<svg xmlns="http://www.w3.org/2000/svg" xmlns:xlink="http://www.w3.org/1999/xlink" xml:lang="en" height="176.23999999999998pt" width="225.20000000000005pt" viewBox="-4.6 -40.6 225.20000000000005 176.23999999999998"><path d="M 0.0,-0.0 L 18.0,-0.0 L 36.0,-0.0" style="stroke:black;fill:none;stroke-width:2.0;stroke-dasharray:-;stroke-linecap:round;stroke-linejoin:round;" /><path d="M 36.0,-0.0 L 36.0,-18.0 L 36.0,-36.0" style="stroke:black;fill:none;stroke-width:2.0;stroke-dasharray:-;stroke-linecap:round;stroke-linejoin:round;" /><path d="M 36.0,-0.0 L 35.99999999999999,18.0 L 35.99999999999999,36.0" style="stroke:black;fill:none;stroke-width:2.0;stroke-dasharray:-;stroke-linecap:round;stroke-linejoin:round;" /><path d="M 36.0,-0.0 L 54.0,-0.0 L 72.0,-0.0" style="stroke:black;fill:none;stroke-width:2.0;stroke-dasharray:-;stroke-linecap:round;stroke-linejoin:round;" /><path d="M 72.0,-0.0 L 71.99999999999999,36.0 L 81.0,39.0 L 62.99999999999999,45.0 L 80.99999999999999,50.99999999999999 L 62.99999999999999,57.0 L 80.99999999999999,63.0 L 62.999999999999986,69.0 L 71.99999999999999,72.0 L 71.99999999999999,108.0" style="stroke:black;fill:none;stroke-width:2.0;stroke-dasharray:-;stroke-linecap:round;stroke-linejoin:round;" /><path d="M 71.99999999999999,108.0 L 71.99999999999999,122.39999999999999 L 62.999999999999986,122.39999999999999 L 80.99999999999999,122.39999999999999 M 65.69999999999999,126.72 L 78.29999999999998,126.72 M 70.19999999999999,131.04 L 73.79999999999998,131.04" style="stroke:black;fill:none;stroke-width:2.0;stroke-dasharray:-;stroke-linecap:round;stroke-linejoin:round;" /><path d="M 144.0,-0.0 L 144.0,36.0 L 153.0,39.0 L 135.0,45.0 L 153.0,50.99999999999999 L 134.99999999999997,57.0 L 153.0,63.0 L 134.99999999999997,69.0 L 143.99999999999997,72.0 L 143.99999999999997,108.0" style="stroke:black;fill:none;stroke-width:2.0;stroke-dasharray:-;stroke-linecap:round;stroke-linejoin:round;" /><path d="M 143.99999999999997,108.0 L 143.99999999999997,122.39999999999999 L 134.99999999999997,122.39999999999999 L 153.0,122.39999999999999 M 137.7,126.72 L 150.29999999999998,126.72 M 142.2,131.04 L 145.79999999999998,131.04" style="stroke:black;fill:none;stroke-width:2.0;stroke-dasharray:-;stroke-linecap:round;stroke-linejoin:round;" /><path d="M 144.0,-0.0 L 162.0,-0.0 L 180.0,-0.0" style="stroke:black;fill:none;stroke-width:2.0;stroke-dasharray:-;stroke-linecap:round;stroke-linejoin:round;" /><path d="M 180.0,-0.0 L 180.0,18.0 L 180.0,36.0" style="stroke:black;fill:none;stroke-width:2.0;stroke-dasharray:-;stroke-linecap:round;stroke-linejoin:round;" /><path d="M 180.0,-0.0 L 198.0,-0.0 L 216.0,-0.0" style="stroke:black;fill:none;stroke-width:2.0;stroke-dasharray:-;stroke-linecap:round;stroke-linejoin:round;" /><path d="M 180.0,-0.0 L 180.0,-18.0 L 180.0,-36.0" style="stroke:black;fill:none;stroke-width:2.0;stroke-dasharray:-;stroke-linecap:round;stroke-linejoin:round;" /><circle cx="36.0" cy="-0.0" r="2.6999999999999997" style="stroke:black;fill:black;stroke-width:2.0;stroke-dasharray:-;" /><g><g><g><path d="M 14.906 -11.66 L 14.906 -11.66 L 19.274 -18.22 Q 19.498 -18.54 19.634 -18.812 Q 19.77 -19.084 19.77 -19.276 Q 19.77 -19.516 19.562 -19.604 Q 19.354 -19.692 18.81 -19.692 L 18.842 -20.172 L 22.298 -20.172 L 22.266 -19.692 Q 21.834 -19.692 21.53 -19.564 Q 21.226 -19.436 20.914 -19.076 Q 20.602 -18.716 20.106 -17.98 L 14.234 -9.58 L 13.706 -9.58 L 12.81 -18.236 Q 12.714 -19.036 12.458 -19.364 Q 12.202 -19.692 11.562 -19.692 L 11.594 -20.172 L 15.514 -20.172 L 15.466 -19.692 Q 14.858 -19.692 14.506 -19.452 Q 14.154 -19.212 14.186 -18.668 Q 14.186 -18.588 14.21 -18.38 Q 14.234 -18.172 14.234 -18.092 L 14.714 -13.532 L 14.826 -11.66 Z " fill="black" /><path d="M 29.168 -6.3 L 29.168 -6.3 L 25.932 -6.3 L 25.932 -6.737 Q 26.066 -6.737 26.251 -6.754 Q 26.436 -6.77 26.576 -6.854 Q 26.716 -6.938 26.716 -7.14 Q 26.716 -7.286 26.654 -7.47 Q 26.592 -7.655 26.492 -7.924 L 26.077 -8.876 L 22.986 -8.876 L 22.504 -7.756 Q 22.437 -7.599 22.392 -7.459 Q 22.348 -7.319 22.348 -7.129 Q 22.348 -6.882 22.538 -6.81 Q 22.728 -6.737 23.154 -6.737 L 23.154 -6.3 L 20.567 -6.3 L 20.567 -6.737 Q 20.903 -6.737 21.104 -6.826 Q 21.306 -6.916 21.48 -7.196 Q 21.653 -7.476 21.888 -8.047 L 24.498 -14.241 L 25.148 -14.241 L 27.948 -7.812 Q 28.205 -7.207 28.457 -6.972 Q 28.709 -6.737 29.168 -6.737 Z M 25.864 -9.425 L 25.864 -9.425 L 24.576 -12.729 L 24.532 -12.729 L 23.188 -9.425 Z " fill="black" /></g></g></g><g><g><g><path d="M 52.371 54.6 L 52.371 54.6 L 51.443 57.576 L 43.379 57.576 L 43.459 57.112 L 51.555 47.8 L 51.555 47.736 L 48.627 47.736 Q 47.811 47.736 47.315 47.856 Q 46.819 47.976 46.483 48.392 Q 46.147 48.808 45.795 49.704 L 45.283 49.704 L 45.875 47.064 L 53.651 47.064 L 53.555 47.512 L 45.491 56.84 L 45.491 56.92 L 48.771 56.92 Q 49.683 56.92 50.203 56.712 Q 50.723 56.504 51.083 55.992 Q 51.443 55.48 51.891 54.6 Z " fill="black" /><path d="M 58.49 60.936 L 58.49 60.936 L 54.693 60.936 L 54.693 60.533 Q 55.499 60.533 55.762 60.37 Q 56.026 60.208 56.026 59.782 L 56.026 54.899 Q 56.026 54.597 55.936 54.462 Q 55.846 54.328 55.611 54.328 Q 55.432 54.328 55.124 54.378 Q 54.816 54.429 54.592 54.485 L 54.592 54.037 L 56.664 53.466 L 57.146 53.466 L 57.146 59.782 Q 57.146 60.208 57.431 60.37 Q 57.717 60.533 58.49 60.533 Z " fill="black" /></g></g></g><g><g><g><path d="M 124.203 54.6 L 124.203 54.6 L 123.275 57.576 L 115.211 57.576 L 115.291 57.112 L 123.387 47.8 L 123.387 47.736 L 120.459 47.736 Q 119.643 47.736 119.147 47.856 Q 118.651 47.976 118.315 48.392 Q 117.979 48.808 117.627 49.704 L 117.115 49.704 L 117.707 47.064 L 125.483 47.064 L 125.387 47.512 L 117.323 56.84 L 117.323 56.92 L 120.603 56.92 Q 121.515 56.92 122.035 56.712 Q 122.555 56.504 122.915 55.992 Q 123.275 55.48 123.723 54.6 Z " fill="black" /><path d="M 130.96 58.987 L 130.96 58.987 L 130.579 60.936 L 125.987 60.936 L 125.987 60.387 L 127.578 58.774 Q 128.205 58.147 128.614 57.666 Q 129.022 57.184 129.224 56.697 Q 129.426 56.21 129.426 55.582 Q 129.426 54.989 129.062 54.602 Q 128.698 54.216 128.037 54.216 Q 127.432 54.216 127.023 54.457 Q 126.614 54.698 126.301 55.246 L 125.998 55.101 Q 126.278 54.317 126.866 53.869 Q 127.454 53.421 128.317 53.421 Q 128.989 53.421 129.504 53.662 Q 130.019 53.902 130.31 54.35 Q 130.602 54.798 130.602 55.437 Q 130.602 55.986 130.355 56.467 Q 130.109 56.949 129.655 57.453 Q 129.202 57.957 128.574 58.573 L 127.174 59.928 L 127.174 60.006 L 128.048 59.962 L 129.504 59.962 Q 129.829 59.962 130.002 59.872 Q 130.176 59.782 130.299 59.564 Q 130.422 59.346 130.568 58.987 Z " fill="black" /></g></g></g><circle cx="180.0" cy="-0.0" r="2.6999999999999997" style="stroke:black;fill:black;stroke-width:2.0;stroke-dasharray:-;" /><g><g><g><path d="M 194.122 -8.96 L 194.122 -8.96 L 198.49 -15.52 Q 198.714 -15.84 198.85 -16.112 Q 198.986 -16.384 198.986 -16.576 Q 198.986 -16.816 198.778 -16.904 Q 198.57 -16.992 198.026 -16.992 L 198.058 -17.472 L 201.514 -17.472 L 201.482 -16.992 Q 201.05 -16.992 200.746 -16.864 Q 200.442 -16.736 200.13 -16.376 Q 199.818 -16.016 199.322 -15.28 L 193.45 -6.88 L 192.922 -6.88 L 192.026 -15.536 Q 191.93 -16.336 191.674 -16.664 Q 191.418 -16.992 190.778 -16.992 L 190.81 -17.472 L 194.73 -17.472 L 194.682 -16.992 Q 194.074 -16.992 193.722 -16.752 Q 193.37 -16.512 193.402 -15.968 Q 193.402 -15.888 193.426 -15.68 Q 193.45 -15.472 193.45 -15.392 L 193.93 -10.832 L 194.042 -8.96 Z " fill="black" /><path d="M 204.867 -7.789 L 204.867 -7.789 L 204.867 -7.722 Q 205.394 -7.643 205.875 -7.414 Q 206.357 -7.184 206.67 -6.77 Q 206.984 -6.355 206.984 -5.717 Q 206.984 -4.686 206.2 -4.143 Q 205.416 -3.6 204.094 -3.6 L 200.23 -3.6 L 200.23 -4.026 Q 200.734 -4.026 200.975 -4.11 Q 201.216 -4.194 201.289 -4.451 Q 201.362 -4.709 201.362 -5.213 L 201.362 -9.939 Q 201.362 -10.432 201.283 -10.667 Q 201.205 -10.902 200.964 -10.975 Q 200.723 -11.048 200.23 -11.048 L 200.23 -11.474 L 203.49 -11.474 Q 205.125 -11.474 205.847 -10.964 Q 206.57 -10.454 206.57 -9.525 Q 206.57 -8.763 206.099 -8.377 Q 205.629 -7.99 204.867 -7.789 Z M 202.538 -7.374 L 202.538 -7.374 L 202.538 -4.126 Q 202.773 -4.115 203.002 -4.115 Q 203.232 -4.115 203.456 -4.115 Q 203.814 -4.115 204.195 -4.154 Q 204.576 -4.194 204.901 -4.345 Q 205.226 -4.496 205.422 -4.821 Q 205.618 -5.146 205.618 -5.706 Q 205.618 -6.355 205.31 -6.714 Q 205.002 -7.072 204.503 -7.223 Q 204.005 -7.374 203.434 -7.374 Z M 202.538 -7.957 L 202.538 -7.957 L 203.434 -7.957 Q 204.486 -7.957 204.895 -8.326 Q 205.304 -8.696 205.304 -9.446 Q 205.304 -10.219 204.817 -10.578 Q 204.33 -10.936 203.266 -10.936 Q 203.086 -10.936 202.907 -10.93 Q 202.728 -10.925 202.538 -10.914 Z " fill="black" /></g></g></g></svg>