<svg xmlns="http://www.w3.org/2000/svg" xmlns:xlink="http://www.w3.org/1999/xlink" xml:lang="en" height="327.87199999999996pt" width="408.76189571021877pt" viewBox="-24.897600000000008 -82.072 408.76189571021877 327.87199999999996"><path d="M 0.0,-59.99999999999999 L 0.0,-45.0 L 14.999999999999998,-45.0 L 14.999999999999998,-14.999999999999995 L 0.0,-14.999999999999995 L 0.0,-0.0" style="stroke:black;fill:none;stroke-width:2.0;stroke-dasharray:-;stroke-linecap:round;stroke-linejoin:round;" /><path d="M 0.0,-45.0 L 5.999999999999998,-45.0" style="stroke:black;fill:none;stroke-width:2.0;stroke-dasharray:-;stroke-linecap:round;stroke-linejoin:round;" /><path d="M 12.999999999999998 -45.0 L 5.999999999999998 -40.5 L 5.999999999999998 -49.5 Z" style="stroke:black;fill:black;stroke-linecap:butt;stroke-linejoin:miter;" /><path d="M 17.999999999999996,-41.99999999999999 L 17.999999999999996,-17.999999999999993" style="stroke:black;fill:none;stroke-width:2.0;stroke-dasharray:-;stroke-linecap:round;stroke-linejoin:round;" /><path d="M 17.999999999999996,-29.999999999999996 L 32.99999999999999,-29.999999999999996" style="stroke:black;fill:none;stroke-width:2.0;stroke-dasharray:-;stroke-linecap:round;stroke-linejoin:round;" /><path d="M 0.0,-0.0 L -3.3065463576978533e-15,18.0 L -6.613092715395707e-15,36.0" style="stroke:black;fill:none;stroke-width:2.0;stroke-dasharray:-;stroke-linecap:round;stroke-linejoin:round;" /><path d="M -6.613092715395707e-15,36.0 L -6.613092715395707e-15,50.99999999999999 L 14.999999999999993,50.99999999999999 L 14.999999999999993,81.0 L -6.613092715395707e-15,81.0 L -6.613092715395707e-15,96.0" style="stroke:black;fill:none;stroke-width:2.0;stroke-dasharray:-;stroke-linecap:round;stroke-linejoin:round;" /><path d="M 14.999999999999993,81.0 L 8.999999999999993,81.0" style="stroke:black;fill:none;stroke-width:2.0;stroke-dasharray:-;stroke-linecap:round;stroke-linejoin:round;" /><path d="M 1.9999999999999933 81.0 L 8.999999999999995 76.5 L 8.999999999999993 85.5 Z" style="stroke:black;fill:black;stroke-linecap:butt;stroke-linejoin:miter;" /><path d="M 17.999999999999993,54.0 L 17.999999999999993,78.00000000000001" style="stroke:black;fill:none;stroke-width:2.0;stroke-dasharray:-;stroke-linecap:round;stroke-linejoin:round;" /><path d="M 17.999999999999993,66.0 L 32.999999999999986,66.0" style="stroke:black;fill:none;stroke-width:2.0;stroke-dasharray:-;stroke-linecap:round;stroke-linejoin:round;" /><path d="M 32.99999999999999,-29.999999999999996 L 59.99999999999999,-29.999999999999996 L 87.0,-29.999999999999996" style="stroke:black;fill:none;stroke-width:2.0;stroke-dasharray:-;stroke-linecap:round;stroke-linejoin:round;" /><path d="M 87.0,-29.999999999999996 L 96.0,-29.999999999999996 L 105.0,-29.999999999999996" style="stroke:black;fill:none;stroke-width:2.0;stroke-dasharray:-;stroke-linecap:round;stroke-linejoin:round;" /><path d="M 138.0,-0.0 L 138.0,-14.999999999999995 L 123.0,-14.999999999999995 L 123.0,-45.0 L 138.0,-45.0 L 138.0,-59.99999999999999" style="stroke:black;fill:none;stroke-width:2.0;stroke-dasharray:-;stroke-linecap:round;stroke-linejoin:round;" /><path d="M 132.0,-45.0 L 138.0,-45.0" style="stroke:black;fill:none;stroke-width:2.0;stroke-dasharray:-;stroke-linecap:round;stroke-linejoin:round;" /><path d="M 125.0 -45.0 L 132.0 -49.5 L 132.0 -40.5 Z" style="stroke:black;fill:black;stroke-linecap:butt;stroke-linejoin:miter;" /><path d="M 119.99999999999999,-17.999999999999993 L 119.99999999999999,-41.99999999999999" style="stroke:black;fill:none;stroke-width:2.0;stroke-dasharray:-;stroke-linecap:round;stroke-linejoin:round;" /><path d="M 105.0,-29.999999999999996 L 119.99999999999999,-29.999999999999996" style="stroke:black;fill:none;stroke-width:2.0;stroke-dasharray:-;stroke-linecap:round;stroke-linejoin:round;" /><path d="M 138.0,-0.0 L 138.0,18.0 L 138.0,36.0" style="stroke:black;fill:none;stroke-width:2.0;stroke-dasharray:-;stroke-linecap:round;stroke-linejoin:round;" /><path d="M 138.0,96.0 L 138.0,81.0 L 123.0,81.0 L 123.0,50.99999999999999 L 138.0,50.99999999999999 L 138.0,36.0" style="stroke:black;fill:none;stroke-width:2.0;stroke-dasharray:-;stroke-linecap:round;stroke-linejoin:round;" /><path d="M 129.0,81.0 L 123.0,81.0" style="stroke:black;fill:none;stroke-width:2.0;stroke-dasharray:-;stroke-linecap:round;stroke-linejoin:round;" /><path d="M 136.0 81.0 L 129.0 85.5 L 129.0 76.5 Z" style="stroke:black;fill:black;stroke-linecap:butt;stroke-linejoin:miter;" /><path d="M 119.99999999999999,78.00000000000001 L 119.99999999999999,54.0" style="stroke:black;fill:none;stroke-width:2.0;stroke-dasharray:-;stroke-linecap:round;stroke-linejoin:round;" /><path d="M 105.0,66.0 L 119.99999999999999,66.0" style="stroke:black;fill:none;stroke-width:2.0;stroke-dasharray:-;stroke-linecap:round;stroke-linejoin:round;" /><path d="M 138.0,96.0 L 138.0,114.0 L 147.0,117.0 L 129.0,123.0 L 147.0,129.0 L 129.0,135.0 L 147.0,141.0 L 128.99999999999997,147.0 L 137.99999999999997,149.99999999999997 L 137.99999999999997,167.99999999999997" style="stroke:black;fill:none;stroke-width:2.0;stroke-dasharray:-;stroke-linecap:round;stroke-linejoin:round;" /><path d="M 110.93999999999998,193.07999999999996 L 124.13999999999999,193.07999999999996" style="stroke:black;fill:none;stroke-width:2.0;stroke-dasharray:-;stroke-linecap:round;stroke-linejoin:round;" /><path d="M 124.13999999999999,179.88 L 124.13999999999999,206.27999999999997" style="stroke:black;fill:none;stroke-width:2.0;stroke-dasharray:-;stroke-linecap:round;stroke-linejoin:round;" /><path d="M 124.13999999999999,186.48 L 137.99999999999997,174.6 L 137.99999999999997,167.99999999999997" style="stroke:black;fill:none;stroke-width:2.0;stroke-dasharray:-;stroke-linecap:round;stroke-linejoin:round;" /><path d="M 124.13999999999999,199.67999999999998 L 137.99999999999997,211.55999999999997 L 137.99999999999997,218.16" style="stroke:black;fill:none;stroke-width:2.0;stroke-dasharray:-;stroke-linecap:round;stroke-linejoin:round;" /><path d="M 137.99999999999997,174.6 L 130.97330942128764,180.62287763889626" style="stroke:black;fill:none;stroke-width:2.0;stroke-dasharray:-;stroke-linecap:round;stroke-linejoin:round;" /><path d="M 125.65851320473058 185.17841725308804 L 128.63046047684617 177.8895538703812 L 133.31615836572914 183.35620140741133 Z" style="stroke:black;fill:black;stroke-linecap:butt;stroke-linejoin:miter;" /><path d="M 137.99999999999997,218.16 L 137.99999999999997,232.56 L 128.99999999999997,232.56 L 146.99999999999994,232.56 M 131.7,236.88 L 144.29999999999998,236.88 M 136.2,241.2 L 139.79999999999995,241.2" style="stroke:black;fill:none;stroke-width:2.0;stroke-dasharray:-;stroke-linecap:round;stroke-linejoin:round;" /><path d="M 110.93999999999998,193.07999999999996 L 101.93999999999998,193.07999999999996 L 92.93999999999998,193.07999999999996" style="stroke:black;fill:none;stroke-width:2.0;stroke-dasharray:-;stroke-linecap:round;stroke-linejoin:round;" /><path d="M 92.93999999999998,193.07999999999996 L 92.93999999999998,205.61999999999998 L 92.93999999999998,218.16" style="stroke:black;fill:none;stroke-width:2.0;stroke-dasharray:-;stroke-linecap:round;stroke-linejoin:round;" /><path d="M 92.93999999999998,218.16 L 92.93999999999998,232.56 L 83.93999999999998,232.56 L 101.93999999999998,232.56 M 86.63999999999999,236.88 L 99.23999999999998,236.88 M 91.13999999999999,241.2 L 94.73999999999998,241.2" style="stroke:black;fill:none;stroke-width:2.0;stroke-dasharray:-;stroke-linecap:round;stroke-linejoin:round;" /><path d="M -6.613092715395707e-15,96.0 L -1.3226185430791412e-14,131.99999999999997 L -1.9839278146187116e-14,167.99999999999997" style="stroke:black;fill:none;stroke-width:2.0;stroke-dasharray:-;stroke-linecap:round;stroke-linejoin:round;" /><path d="M 13.859999999999976,193.07999999999996 L 27.059999999999977,193.07999999999996" style="stroke:black;fill:none;stroke-width:2.0;stroke-dasharray:-;stroke-linecap:round;stroke-linejoin:round;" /><path d="M 13.859999999999976,206.27999999999997 L 13.859999999999976,179.88" style="stroke:black;fill:none;stroke-width:2.0;stroke-dasharray:-;stroke-linecap:round;stroke-linejoin:round;" /><path d="M -1.9839278146187116e-14,167.99999999999997 L -1.9839278146187116e-14,174.6 L 13.859999999999976,186.48" style="stroke:black;fill:none;stroke-width:2.0;stroke-dasharray:-;stroke-linecap:round;stroke-linejoin:round;" /><path d="M -1.9839278146187116e-14,218.16 L -1.9839278146187116e-14,211.55999999999997 L 13.859999999999976,199.67999999999998" style="stroke:black;fill:none;stroke-width:2.0;stroke-dasharray:-;stroke-linecap:round;stroke-linejoin:round;" /><path d="M 7.026690578712309,180.62287763889626 L -1.9839278146187116e-14,174.6" style="stroke:black;fill:none;stroke-width:2.0;stroke-dasharray:-;stroke-linecap:round;stroke-linejoin:round;" /><path d="M 12.341486795269383 185.17841725308804 L 4.68384163427082 183.35620140741133 L 9.369539523153795 177.8895538703812 Z" style="stroke:black;fill:black;stroke-linecap:butt;stroke-linejoin:miter;" /><path d="M -1.9839278146187116e-14,218.16 L -1.9839278146187116e-14,232.56 L -9.00000000000002,232.56 L 8.99999999999998,232.56 M -6.300000000000019,236.88 L 6.299999999999979,236.88 M -1.8000000000000198,241.2 L 1.7999999999999803,241.2" style="stroke:black;fill:none;stroke-width:2.0;stroke-dasharray:-;stroke-linecap:round;stroke-linejoin:round;" /><path d="M 27.059999999999977,193.07999999999996 L 36.059999999999974,193.07999999999996 L 45.059999999999974,193.07999999999996" style="stroke:black;fill:none;stroke-width:2.0;stroke-dasharray:-;stroke-linecap:round;stroke-linejoin:round;" /><path d="M 45.059999999999974,193.07999999999996 L 45.059999999999974,205.61999999999998 L 45.05999999999997,218.16" style="stroke:black;fill:none;stroke-width:2.0;stroke-dasharray:-;stroke-linecap:round;stroke-linejoin:round;" /><path d="M 45.05999999999997,218.16 L 45.05999999999997,232.56 L 36.05999999999997,232.56 L 54.05999999999997,232.56 M 38.75999999999997,236.88 L 51.35999999999997,236.88 M 43.25999999999997,241.2 L 46.85999999999997,241.2" style="stroke:black;fill:none;stroke-width:2.0;stroke-dasharray:-;stroke-linecap:round;stroke-linejoin:round;" /><path d="M 87.0,-29.999999999999996 L 87.0,-11.999999999999996 L 87.0,6.000000000000003" style="stroke:black;fill:none;stroke-width:2.0;stroke-dasharray:-;stroke-linecap:round;stroke-linejoin:round;" /><path d="M 87.0,6.000000000000003 L 112.5,6.000000000000003 L 138.0,6.000000000000003" style="stroke:black;fill:none;stroke-width:2.0;stroke-dasharray:-;stroke-linecap:round;stroke-linejoin:round;" /><path d="M 32.999999999999986,66.0 L 41.999999999999986,66.0 L 50.999999999999986,66.0" style="stroke:black;fill:none;stroke-width:2.0;stroke-dasharray:-;stroke-linecap:round;stroke-linejoin:round;" /><path d="M 50.999999999999986,66.0 L 78.0,66.0 L 105.0,66.0" style="stroke:black;fill:none;stroke-width:2.0;stroke-dasharray:-;stroke-linecap:round;stroke-linejoin:round;" /><path d="M 50.999999999999986,66.0 L 50.999999999999986,48.0 L 50.999999999999986,29.999999999999996" style="stroke:black;fill:none;stroke-width:2.0;stroke-dasharray:-;stroke-linecap:round;stroke-linejoin:round;" /><path d="M 50.999999999999986,29.999999999999996 L 25.49999999999999,29.999999999999993 L -7.993605777301127e-15,29.99999999999999" style="stroke:black;fill:none;stroke-width:2.0;stroke-dasharray:-;stroke-linecap:round;stroke-linejoin:round;" /><path d="M 138.0,6.000000000000003 L 165.0,6.000000000000003 L 192.0,6.000000000000003" style="stroke:black;fill:none;stroke-width:2.0;stroke-dasharray:-;stroke-linecap:round;stroke-linejoin:round;" /><path d="M 192.0,6.000000000000003 L 192.0,-11.999999999999996 L 192.0,-29.999999999999996" style="stroke:black;fill:none;stroke-width:2.0;stroke-dasharray:-;stroke-linecap:round;stroke-linejoin:round;" /><path d="M 192.0,-29.999999999999996 L 210.0,-29.999999999999996 L 228.0,-29.999999999999996" style="stroke:black;fill:none;stroke-width:2.0;stroke-dasharray:-;stroke-linecap:round;stroke-linejoin:round;" /><path d="M 261.0,-0.0 L 261.0,-14.999999999999995 L 246.0,-14.999999999999995 L 246.0,-45.0 L 261.0,-45.0 L 261.0,-59.99999999999999" style="stroke:black;fill:none;stroke-width:2.0;stroke-dasharray:-;stroke-linecap:round;stroke-linejoin:round;" /><path d="M 255.0,-45.0 L 261.0,-45.0" style="stroke:black;fill:none;stroke-width:2.0;stroke-dasharray:-;stroke-linecap:round;stroke-linejoin:round;" /><path d="M 248.0 -45.0 L 255.0 -49.5 L 255.0 -40.5 Z" style="stroke:black;fill:black;stroke-linecap:butt;stroke-linejoin:miter;" /><path d="M 243.0,-17.999999999999993 L 243.0,-41.99999999999999" style="stroke:black;fill:none;stroke-width:2.0;stroke-dasharray:-;stroke-linecap:round;stroke-linejoin:round;" /><path d="M 228.0,-29.999999999999996 L 243.0,-29.999999999999996" style="stroke:black;fill:none;stroke-width:2.0;stroke-dasharray:-;stroke-linecap:round;stroke-linejoin:round;" /><path d="M 261.0,-0.0 L 261.0,36.0 L 261.0,72.0" style="stroke:black;fill:none;stroke-width:2.0;stroke-dasharray:-;stroke-linecap:round;stroke-linejoin:round;" /><path d="M 261.0,72.0 L 279.0,72.0 L 297.0,72.0" style="stroke:black;fill:none;stroke-width:2.0;stroke-dasharray:-;stroke-linecap:round;stroke-linejoin:round;" /><path d="M 261.0,72.0 L 261.0,83.99999999999999 L 261.0,96.0" style="stroke:black;fill:none;stroke-width:2.0;stroke-dasharray:-;stroke-linecap:round;stroke-linejoin:round;" /><path d="M 261.0,96.0 L 261.0,114.0 L 270.0,117.0 L 252.0,123.0 L 270.0,129.0 L 252.0,135.0 L 270.0,141.0 L 252.0,147.0 L 261.0,149.99999999999997 L 261.0,167.99999999999997" style="stroke:black;fill:none;stroke-width:2.0;stroke-dasharray:-;stroke-linecap:round;stroke-linejoin:round;" /><path d="M 233.94,193.07999999999996 L 247.14000000000001,193.07999999999996" style="stroke:black;fill:none;stroke-width:2.0;stroke-dasharray:-;stroke-linecap:round;stroke-linejoin:round;" /><path d="M 247.14000000000001,179.88 L 247.14000000000001,206.27999999999997" style="stroke:black;fill:none;stroke-width:2.0;stroke-dasharray:-;stroke-linecap:round;stroke-linejoin:round;" /><path d="M 247.14000000000001,186.48 L 261.0,174.6 L 261.0,167.99999999999997" style="stroke:black;fill:none;stroke-width:2.0;stroke-dasharray:-;stroke-linecap:round;stroke-linejoin:round;" /><path d="M 247.14000000000001,199.67999999999998 L 261.0,211.55999999999997 L 261.0,218.16" style="stroke:black;fill:none;stroke-width:2.0;stroke-dasharray:-;stroke-linecap:round;stroke-linejoin:round;" /><path d="M 261.0,174.6 L 253.9733094212877,180.62287763889626" style="stroke:black;fill:none;stroke-width:2.0;stroke-dasharray:-;stroke-linecap:round;stroke-linejoin:round;" /><path d="M 248.6585132047306 185.17841725308804 L 251.6304604768462 177.8895538703812 L 256.31615836572917 183.35620140741133 Z" style="stroke:black;fill:black;stroke-linecap:butt;stroke-linejoin:miter;" /><path d="M 261.0,218.16 L 261.0,232.56 L 252.0,232.56 L 270.0,232.56 M 254.70000000000002,236.88 L 267.3,236.88 M 259.2,241.2 L 262.8,241.2" style="stroke:black;fill:none;stroke-width:2.0;stroke-dasharray:-;stroke-linecap:round;stroke-linejoin:round;" /><path d="M 233.94,193.07999999999996 L 224.94,193.07999999999996 L 215.94,193.07999999999996" style="stroke:black;fill:none;stroke-width:2.0;stroke-dasharray:-;stroke-linecap:round;stroke-linejoin:round;" /><path d="M 215.94,193.07999999999996 L 215.94,205.61999999999998 L 215.94,218.16" style="stroke:black;fill:none;stroke-width:2.0;stroke-dasharray:-;stroke-linecap:round;stroke-linejoin:round;" /><path d="M 215.94,218.16 L 215.94,232.56 L 206.94,232.56 L 224.94,232.56 M 209.64,236.88 L 222.23999999999998,236.88 M 214.14,241.2 L 217.73999999999998,241.2" style="stroke:black;fill:none;stroke-width:2.0;stroke-dasharray:-;stroke-linecap:round;stroke-linejoin:round;" /><path d="M -18.0,-59.99999999999999 L 130.5,-59.99999999999999 L 279.0,-59.99999999999999" style="stroke:black;fill:none;stroke-width:3;stroke-dasharray:-;stroke-linecap:round;stroke-linejoin:round;" /><g><g><g><path d="M -12.333 -26.424 L -12.333 -26.424 L -16.605 -26.424 L -16.509 -26.904 Q -15.917 -26.904 -15.605 -27.016 Q -15.293 -27.128 -15.133 -27.44 Q -14.973 -27.752 -14.861 -28.328 L -13.437 -35.24 L -13.501 -35.24 L -18.877 -26.424 L -19.229 -26.424 L -21.165 -35.224 L -21.229 -35.224 L -22.557 -28.76 Q -22.717 -27.944 -22.693 -27.544 Q -22.669 -27.144 -22.381 -27.024 Q -22.093 -26.904 -21.485 -26.904 L -21.581 -26.424 L -25.277 -26.424 L -25.181 -26.904 Q -24.557 -26.904 -24.221 -27.024 Q -23.885 -27.144 -23.693 -27.544 Q -23.501 -27.944 -23.341 -28.76 L -22.077 -34.984 Q -21.949 -35.592 -21.997 -35.904 Q -22.045 -36.216 -22.341 -36.336 Q -22.637 -36.456 -23.277 -36.456 L -23.181 -36.936 L -19.981 -36.936 L -18.253 -28.84 L -18.189 -28.84 L -13.309 -36.936 L -10.285 -36.936 L -10.381 -36.456 Q -10.941 -36.456 -11.269 -36.336 Q -11.597 -36.216 -11.773 -35.904 Q -11.949 -35.592 -12.077 -35 L -13.437 -28.328 Q -13.613 -27.448 -13.349 -27.176 Q -13.085 -26.904 -12.237 -26.904 Z " fill="black" /><path d="M -4.27 -24.834 L -4.27 -24.834 L -5.491 -24.834 L -5.491 -23.064 L -6.6 -23.064 L -6.6 -24.834 L -9.893 -24.834 L -9.893 -25.685 L -6.298 -30.568 L -5.491 -30.568 L -5.491 -25.752 L -4.27 -25.752 Z M -6.6 -25.752 L -6.6 -25.752 L -6.6 -29.213 L -6.667 -29.213 L -9.131 -25.819 L -9.131 -25.752 Z " fill="black" /></g></g></g><g><g><g><path d="M -11.717 69.576 L -11.717 69.576 L -15.989 69.576 L -15.893 69.096 Q -15.301 69.096 -14.989 68.984 Q -14.677 68.872 -14.517 68.56 Q -14.357 68.248 -14.245 67.672 L -12.821 60.76 L -12.885 60.76 L -18.261 69.576 L -18.613 69.576 L -20.549 60.776 L -20.613 60.776 L -21.941 67.24 Q -22.101 68.056 -22.077 68.456 Q -22.053 68.856 -21.765 68.976 Q -21.477 69.096 -20.869 69.096 L -20.965 69.576 L -24.661 69.576 L -24.565 69.096 Q -23.941 69.096 -23.605 68.976 Q -23.269 68.856 -23.077 68.456 Q -22.885 68.056 -22.725 67.24 L -21.461 61.016 Q -21.333 60.408 -21.381 60.096 Q -21.429 59.784 -21.725 59.664 Q -22.021 59.544 -22.661 59.544 L -22.565 59.064 L -19.365 59.064 L -17.637 67.16 L -17.573 67.16 L -12.693 59.064 L -9.669 59.064 L -9.765 59.544 Q -10.325 59.544 -10.653 59.664 Q -10.981 59.784 -11.157 60.096 Q -11.333 60.408 -11.461 61 L -12.821 67.672 Q -12.997 68.552 -12.733 68.824 Q -12.469 69.096 -11.621 69.096 Z " fill="black" /><path d="M -4.83 72.936 L -4.83 72.936 L -8.627 72.936 L -8.627 72.533 Q -7.821 72.533 -7.558 72.37 Q -7.294 72.208 -7.294 71.782 L -7.294 66.899 Q -7.294 66.597 -7.384 66.462 Q -7.474 66.328 -7.709 66.328 Q -7.888 66.328 -8.196 66.378 Q -8.504 66.429 -8.728 66.485 L -8.728 66.037 L -6.656 65.466 L -6.174 65.466 L -6.174 71.782 Q -6.174 72.208 -5.889 72.37 Q -5.603 72.533 -4.83 72.533 Z " fill="black" /></g></g></g><circle cx="87.0" cy="-29.999999999999996" r="2.6999999999999997" style="stroke:black;fill:black;stroke-width:2.0;stroke-dasharray:-;" /><g><g><g><path d="M 150.715 -26.497 L 150.715 -26.497 L 146.443 -26.497 L 146.539 -26.977 Q 147.131 -26.977 147.443 -27.089 Q 147.755 -27.201 147.915 -27.513 Q 148.075 -27.825 148.187 -28.401 L 149.611 -35.313 L 149.547 -35.313 L 144.171 -26.497 L 143.819 -26.497 L 141.883 -35.297 L 141.819 -35.297 L 140.491 -28.833 Q 140.331 -28.017 140.355 -27.617 Q 140.379 -27.217 140.667 -27.097 Q 140.955 -26.977 141.563 -26.977 L 141.467 -26.497 L 137.771 -26.497 L 137.867 -26.977 Q 138.491 -26.977 138.827 -27.097 Q 139.163 -27.217 139.355 -27.617 Q 139.547 -28.017 139.707 -28.833 L 140.971 -35.057 Q 141.099 -35.665 141.051 -35.977 Q 141.003 -36.289 140.707 -36.409 Q 140.411 -36.529 139.771 -36.529 L 139.867 -37.009 L 143.067 -37.009 L 144.795 -28.913 L 144.859 -28.913 L 149.739 -37.009 L 152.763 -37.009 L 152.667 -36.529 Q 152.107 -36.529 151.779 -36.409 Q 151.451 -36.289 151.275 -35.977 Q 151.099 -35.665 150.971 -35.073 L 149.611 -28.401 Q 149.435 -27.521 149.699 -27.249 Q 149.963 -26.977 150.811 -26.977 Z " fill="black" /><path d="M 153.704 -28.961 L 153.704 -28.961 L 153.379 -29.118 Q 153.715 -29.879 154.27 -30.266 Q 154.824 -30.652 155.518 -30.652 Q 156.414 -30.652 156.963 -30.215 Q 157.512 -29.778 157.512 -29.084 Q 157.512 -28.479 157.142 -28.11 Q 156.773 -27.74 156.224 -27.382 L 156.224 -27.326 Q 156.694 -27.202 157.092 -26.956 Q 157.49 -26.71 157.725 -26.323 Q 157.96 -25.937 157.96 -25.388 Q 157.96 -24.772 157.691 -24.318 Q 157.422 -23.865 156.963 -23.568 Q 156.504 -23.271 155.916 -23.131 Q 155.328 -22.991 154.69 -22.991 Q 154.141 -22.991 153.855 -23.086 Q 153.57 -23.182 153.463 -23.338 Q 153.357 -23.495 153.357 -23.652 Q 153.357 -23.842 153.469 -24.027 Q 153.581 -24.212 153.85 -24.212 Q 153.962 -24.212 154.079 -24.15 Q 154.197 -24.089 154.51 -23.91 Q 154.768 -23.786 154.919 -23.719 Q 155.07 -23.652 155.188 -23.63 Q 155.306 -23.607 155.462 -23.607 Q 155.798 -23.607 156.129 -23.73 Q 156.459 -23.854 156.683 -24.173 Q 156.907 -24.492 156.907 -25.074 Q 156.907 -25.59 156.622 -25.959 Q 156.336 -26.329 155.854 -26.536 Q 155.373 -26.743 154.79 -26.743 L 154.544 -26.743 L 154.544 -27.27 L 154.779 -27.27 Q 155.182 -27.27 155.563 -27.454 Q 155.944 -27.639 156.19 -27.981 Q 156.437 -28.322 156.437 -28.793 Q 156.437 -29.319 156.095 -29.588 Q 155.754 -29.857 155.227 -29.857 Q 154.253 -29.857 153.704 -28.961 Z " fill="black" /></g></g></g><g><g><g><path d="M 150.715 69.576 L 150.715 69.576 L 146.443 69.576 L 146.539 69.096 Q 147.131 69.096 147.443 68.984 Q 147.755 68.872 147.915 68.56 Q 148.075 68.248 148.187 67.672 L 149.611 60.76 L 149.547 60.76 L 144.171 69.576 L 143.819 69.576 L 141.883 60.776 L 141.819 60.776 L 140.491 67.24 Q 140.331 68.056 140.355 68.456 Q 140.379 68.856 140.667 68.976 Q 140.955 69.096 141.563 69.096 L 141.467 69.576 L 137.771 69.576 L 137.867 69.096 Q 138.491 69.096 138.827 68.976 Q 139.163 68.856 139.355 68.456 Q 139.547 68.056 139.707 67.24 L 140.971 61.016 Q 141.099 60.408 141.051 60.096 Q 141.003 59.784 140.707 59.664 Q 140.411 59.544 139.771 59.544 L 139.867 59.064 L 143.067 59.064 L 144.795 67.16 L 144.859 67.16 L 149.739 59.064 L 152.763 59.064 L 152.667 59.544 Q 152.107 59.544 151.779 59.664 Q 151.451 59.784 151.275 60.096 Q 151.099 60.408 150.971 61 L 149.611 67.672 Q 149.435 68.552 149.699 68.824 Q 149.963 69.096 150.811 69.096 Z " fill="black" /><path d="M 158.24 70.987 L 158.24 70.987 L 157.859 72.936 L 153.267 72.936 L 153.267 72.387 L 154.858 70.774 Q 155.485 70.147 155.894 69.666 Q 156.302 69.184 156.504 68.697 Q 156.706 68.21 156.706 67.582 Q 156.706 66.989 156.342 66.602 Q 155.978 66.216 155.317 66.216 Q 154.712 66.216 154.303 66.457 Q 153.894 66.698 153.581 67.246 L 153.278 67.101 Q 153.558 66.317 154.146 65.869 Q 154.734 65.421 155.597 65.421 Q 156.269 65.421 156.784 65.662 Q 157.299 65.902 157.59 66.35 Q 157.882 66.798 157.882 67.437 Q 157.882 67.986 157.635 68.467 Q 157.389 68.949 156.935 69.453 Q 156.482 69.957 155.854 70.573 L 154.454 71.928 L 154.454 72.006 L 155.328 71.962 L 156.784 71.962 Q 157.109 71.962 157.282 71.872 Q 157.456 71.782 157.579 71.564 Q 157.702 71.346 157.848 70.987 Z " fill="black" /></g></g></g><g><g><g><path d="M 118.499 127.272 L 118.499 127.272 Q 118.499 128.12 118.179 128.696 Q 117.859 129.272 117.347 129.64 Q 116.835 130.008 116.251 130.208 Q 115.667 130.408 115.139 130.504 L 115.139 130.584 Q 115.427 130.776 115.683 131.168 Q 115.939 131.56 116.315 132.296 Q 116.691 133.032 117.347 134.28 Q 117.619 134.76 117.947 134.928 Q 118.275 135.096 118.819 135.096 L 118.723 135.576 L 116.291 135.576 Q 115.843 134.584 115.539 133.92 Q 115.235 133.256 115.011 132.808 Q 114.787 132.36 114.619 132.008 Q 114.451 131.656 114.259 131.288 Q 114.083 130.952 113.875 130.848 Q 113.667 130.744 113.235 130.744 L 112.899 130.744 L 112.307 133.592 Q 112.179 134.248 112.219 134.576 Q 112.259 134.904 112.579 135 Q 112.899 135.096 113.587 135.096 L 113.507 135.576 L 109.091 135.576 L 109.187 135.096 Q 109.779 135.096 110.099 135 Q 110.419 134.904 110.587 134.584 Q 110.755 134.264 110.883 133.592 L 112.291 126.728 Q 112.387 126.28 112.339 126.024 Q 112.291 125.768 112.011 125.656 Q 111.731 125.544 111.091 125.544 L 111.187 125.064 L 114.947 125.064 Q 116.627 125.064 117.563 125.584 Q 118.499 126.104 118.499 127.272 Z M 113.907 125.736 L 113.907 125.736 L 113.011 130.152 L 113.507 130.168 Q 114.467 130.136 115.243 129.856 Q 116.019 129.576 116.467 128.968 Q 116.915 128.36 116.915 127.336 Q 116.915 126.904 116.731 126.528 Q 116.547 126.152 116.099 125.92 Q 115.651 125.688 114.851 125.688 Q 114.547 125.688 114.363 125.696 Q 114.179 125.704 113.907 125.736 Z " fill="black" /><path d="M 124.394 138.936 L 124.394 138.936 L 120.597 138.936 L 120.597 138.533 Q 121.403 138.533 121.666 138.37 Q 121.93 138.208 121.93 137.782 L 121.93 132.899 Q 121.93 132.597 121.84 132.462 Q 121.75 132.328 121.515 132.328 Q 121.336 132.328 121.028 132.378 Q 120.72 132.429 120.496 132.485 L 120.496 132.037 L 122.568 131.466 L 123.05 131.466 L 123.05 137.782 Q 123.05 138.208 123.335 138.37 Q 123.621 138.533 124.394 138.533 Z " fill="black" /></g></g></g><g><g><g><path d="M 148.048 196.532 L 148.048 196.532 L 146.72 196.532 Q 147.072 195.252 147.384 193.948 Q 147.696 192.644 147.984 191.332 Q 148 191.3 148.04 191.076 Q 148.08 190.852 148.08 190.66 Q 148.08 190.388 147.976 190.204 Q 147.872 190.02 147.6 190.02 Q 147.2 190.02 146.728 190.436 Q 146.256 190.852 145.784 191.508 Q 145.312 192.164 144.888 192.916 Q 144.464 193.668 144.16 194.34 L 143.664 196.532 L 142.352 196.532 L 143.632 190.452 Q 143.632 190.452 143.656 190.276 Q 143.68 190.1 143.68 189.924 Q 143.68 189.716 143.568 189.604 Q 143.456 189.492 143.168 189.492 Q 143.008 189.492 142.832 189.508 Q 142.656 189.524 142.656 189.524 L 142.656 189.092 L 144.864 188.916 L 145.232 188.916 L 144.432 192.388 L 144.56 192.388 Q 144.816 191.908 145.192 191.308 Q 145.568 190.708 146.056 190.148 Q 146.544 189.588 147.136 189.228 Q 147.728 188.868 148.416 188.868 Q 149.024 188.868 149.224 189.22 Q 149.424 189.572 149.424 190.004 Q 149.424 190.356 149.36 190.74 Q 149.296 191.124 149.28 191.188 L 149.008 192.212 L 149.136 192.212 Q 149.392 191.748 149.76 191.18 Q 150.128 190.612 150.6 190.084 Q 151.072 189.556 151.624 189.212 Q 152.176 188.868 152.8 188.868 Q 153.408 188.868 153.616 189.22 Q 153.824 189.572 153.824 190.004 Q 153.824 190.308 153.76 190.66 Q 153.696 191.012 153.664 191.188 L 152.784 194.884 Q 152.784 194.884 152.76 195.004 Q 152.736 195.124 152.736 195.268 Q 152.736 195.572 153.04 195.572 Q 153.456 195.572 153.752 195.268 Q 154.048 194.964 154.24 194.74 L 154.56 194.98 Q 154.352 195.268 154.056 195.676 Q 153.76 196.084 153.352 196.388 Q 152.944 196.692 152.368 196.692 Q 151.76 196.692 151.536 196.396 Q 151.312 196.1 151.312 195.748 Q 151.312 195.556 151.344 195.372 Q 151.376 195.188 151.392 195.124 L 152.208 192.02 Q 152.288 191.7 152.376 191.308 Q 152.464 190.916 152.464 190.66 Q 152.464 190.388 152.36 190.204 Q 152.256 190.02 151.984 190.02 Q 151.68 190.02 151.304 190.324 Q 150.928 190.628 150.52 191.116 Q 150.112 191.604 149.736 192.188 Q 149.36 192.772 149.048 193.332 Q 148.736 193.892 148.56 194.324 Z " fill="black" /></g></g></g><g><g><g><path d="M -2.124 197.892 L -2.124 197.892 L -7.66 197.892 L -7.66 197.444 Q -6.524 197.444 -6.06 197.204 Q -5.596 196.964 -5.596 196.372 L -5.596 189.604 Q -5.596 189.188 -5.708 189.004 Q -5.82 188.82 -6.124 188.82 Q -6.364 188.82 -6.876 188.884 Q -7.388 188.948 -7.756 189.076 L -7.756 188.548 L -4.652 187.668 L -4.188 187.668 L -4.188 196.372 Q -4.188 196.964 -3.708 197.204 Q -3.228 197.444 -2.124 197.444 Z " fill="black" /></g></g></g><circle cx="138.0" cy="6.000000000000003" r="2.6999999999999997" style="stroke:black;fill:black;stroke-width:2.0;stroke-dasharray:-;" /><circle cx="50.999999999999986" cy="66.0" r="2.6999999999999997" style="stroke:black;fill:black;stroke-width:2.0;stroke-dasharray:-;" /><circle cx="-7.993605777301127e-15" cy="29.99999999999999" r="2.6999999999999997" style="stroke:black;fill:black;stroke-width:2.0;stroke-dasharray:-;" /><g><g><g><path d="M 273.962 -26.497 L 273.962 -26.497 L 269.69 -26.497 L 269.786 -26.977 Q 270.378 -26.977 270.69 -27.089 Q 271.002 -27.201 271.162 -27.513 Q 271.322 -27.825 271.434 -28.401 L 272.858 -35.313 L 272.794 -35.313 L 267.418 -26.497 L 267.066 -26.497 L 265.13 -35.297 L 265.066 -35.297 L 263.738 -28.833 Q 263.578 -28.017 263.602 -27.617 Q 263.626 -27.217 263.914 -27.097 Q 264.202 -26.977 264.81 -26.977 L 264.714 -26.497 L 261.018 -26.497 L 261.114 -26.977 Q 261.738 -26.977 262.074 -27.097 Q 262.41 -27.217 262.602 -27.617 Q 262.794 -28.017 262.954 -28.833 L 264.218 -35.057 Q 264.346 -35.665 264.298 -35.977 Q 264.25 -36.289 263.954 -36.409 Q 263.658 -36.529 263.018 -36.529 L 263.114 -37.009 L 266.314 -37.009 L 268.042 -28.913 L 268.106 -28.913 L 272.986 -37.009 L 276.01 -37.009 L 275.914 -36.529 Q 275.354 -36.529 275.026 -36.409 Q 274.698 -36.289 274.522 -35.977 Q 274.346 -35.665 274.218 -35.073 L 272.858 -28.401 Q 272.682 -27.521 272.946 -27.249 Q 273.21 -26.977 274.058 -26.977 Z " fill="black" /><path d="M 280.658 -29.498 L 280.658 -29.498 L 277.88 -29.498 L 277.634 -28.143 L 278.126 -28.121 Q 278.642 -28.11 279.151 -27.981 Q 279.661 -27.852 280.086 -27.578 Q 280.512 -27.303 280.77 -26.838 Q 281.027 -26.374 281.027 -25.679 Q 281.027 -24.75 280.618 -24.156 Q 280.21 -23.562 279.493 -23.277 Q 278.776 -22.991 277.824 -22.991 Q 277.13 -22.991 276.805 -23.165 Q 276.48 -23.338 276.48 -23.674 Q 276.48 -23.887 276.609 -24.05 Q 276.738 -24.212 276.962 -24.212 Q 277.186 -24.212 277.421 -24.061 Q 277.656 -23.91 277.93 -23.758 Q 278.205 -23.607 278.563 -23.607 Q 278.978 -23.607 279.33 -23.77 Q 279.683 -23.932 279.907 -24.279 Q 280.131 -24.626 280.131 -25.198 Q 280.131 -25.914 279.834 -26.329 Q 279.538 -26.743 278.972 -26.922 Q 278.406 -27.102 277.611 -27.124 Q 277.365 -27.124 277.258 -27.124 Q 277.152 -27.124 277.051 -27.135 L 276.883 -27.303 L 277.544 -30.484 L 280.803 -30.484 Z " fill="black" /></g></g></g><circle cx="261.0" cy="72.0" r="2.6999999999999997" style="stroke:black;fill:black;stroke-width:2.0;stroke-dasharray:-;" /><circle cx="297.0" cy="72.0" r="2.6999999999999997" style="stroke:black;fill:white;stroke-width:2.0;stroke-dasharray:-;" /><g><g><g><path d="M 307.732 73.52 L 307.732 73.52 L 312.1 66.96 Q 312.324 66.64 312.46 66.368 Q 312.596 66.096 312.596 65.904 Q 312.596 65.664 312.388 65.576 Q 312.18 65.488 311.636 65.488 L 311.668 65.008 L 315.124 65.008 L 315.092 65.488 Q 314.66 65.488 314.356 65.616 Q 314.052 65.744 313.74 66.104 Q 313.428 66.464 312.932 67.2 L 307.06 75.6 L 306.532 75.6 L 305.636 66.944 Q 305.54 66.144 305.284 65.816 Q 305.028 65.488 304.388 65.488 L 304.42 65.008 L 308.34 65.008 L 308.292 65.488 Q 307.684 65.488 307.332 65.728 Q 306.98 65.968 307.012 66.512 Q 307.012 66.592 307.036 66.8 Q 307.06 67.008 307.06 67.088 L 307.54 71.648 L 307.652 73.52 Z " fill="black" /><path d="M 314.047 73.034 L 314.047 73.034 L 314.047 74.243 L 314.114 74.243 Q 314.562 73.616 314.915 73.286 Q 315.268 72.955 315.682 72.955 Q 316.399 72.955 316.399 73.661 Q 316.399 74.053 316.226 74.21 Q 316.052 74.366 315.85 74.366 Q 315.649 74.366 315.486 74.254 Q 315.324 74.142 315.212 74.03 Q 315.1 73.918 315.044 73.918 Q 314.865 73.918 314.579 74.221 Q 314.294 74.523 314.07 74.904 L 314.07 77.592 Q 314.07 78.141 314.31 78.303 Q 314.551 78.466 315.167 78.466 L 315.167 78.88 L 312.121 78.88 L 312.121 78.466 Q 312.502 78.466 312.681 78.398 Q 312.86 78.331 312.916 78.158 Q 312.972 77.984 312.972 77.67 L 312.972 74.422 Q 312.972 74.064 312.91 73.885 Q 312.849 73.706 312.502 73.706 Q 312.345 73.706 312.233 73.717 Q 312.121 73.728 312.121 73.728 L 312.121 73.314 L 313.633 73.034 Z " fill="black" /><path d="M 322.01 77.211 L 322.01 77.211 L 322.279 77.424 Q 322.044 77.85 321.753 78.208 Q 321.462 78.566 321.036 78.779 Q 320.61 78.992 319.961 78.992 Q 319.255 78.992 318.645 78.673 Q 318.034 78.354 317.665 77.693 Q 317.295 77.032 317.295 76.024 Q 317.295 75.027 317.642 74.355 Q 317.99 73.683 318.583 73.342 Q 319.177 73 319.905 73 Q 320.913 73 321.579 73.7 Q 322.246 74.4 322.268 75.789 L 318.326 75.789 Q 318.326 76.55 318.611 77.049 Q 318.897 77.547 319.345 77.788 Q 319.793 78.029 320.286 78.029 Q 320.79 78.029 321.092 77.922 Q 321.394 77.816 321.602 77.626 Q 321.809 77.435 322.01 77.211 Z M 318.326 75.274 L 318.326 75.274 L 321.07 75.274 Q 321.07 74.826 320.924 74.428 Q 320.778 74.03 320.498 73.778 Q 320.218 73.526 319.782 73.526 Q 319.143 73.526 318.768 73.974 Q 318.393 74.422 318.326 75.274 Z " fill="black" /><path d="M 323.377 73.146 L 323.377 73.146 L 324.273 73.146 Q 324.273 72.552 324.357 72.138 Q 324.441 71.723 324.654 71.309 Q 324.911 70.906 325.275 70.654 Q 325.639 70.402 326.311 70.402 Q 326.882 70.402 327.286 70.62 Q 327.689 70.838 327.689 71.264 Q 327.689 71.533 327.538 71.673 Q 327.386 71.813 327.185 71.813 Q 326.938 71.813 326.798 71.673 Q 326.658 71.533 326.434 71.298 Q 326.278 71.074 326.154 70.99 Q 326.031 70.906 325.863 70.906 Q 325.55 70.906 325.449 71.208 Q 325.348 71.51 325.348 72.25 L 325.348 73.146 L 326.804 73.146 L 326.804 73.694 L 325.348 73.694 L 325.348 77.39 Q 325.348 77.85 325.449 78.079 Q 325.55 78.309 325.818 78.387 Q 326.087 78.466 326.58 78.466 L 326.58 78.88 L 323.276 78.88 L 323.276 78.466 Q 323.702 78.466 323.914 78.387 Q 324.127 78.309 324.2 78.079 Q 324.273 77.85 324.273 77.39 L 324.273 73.694 L 323.377 73.694 Z " fill="black" /><path d="M 343.501 67.744 L 343.501 67.744 L 344.045 67.744 Q 344.013 68.272 343.829 68.848 Q 343.645 69.424 343.317 69.936 Q 342.989 70.448 342.525 70.768 Q 342.061 71.088 341.453 71.088 Q 340.861 71.088 340.253 70.768 Q 339.645 70.448 339.053 70.04 Q 338.461 69.632 337.925 69.312 Q 337.389 68.992 336.957 68.992 Q 336.381 68.992 335.981 69.312 Q 335.581 69.632 335.325 70.144 Q 335.069 70.656 334.941 71.248 L 334.397 71.248 Q 334.445 70.432 334.773 69.664 Q 335.101 68.896 335.685 68.4 Q 336.269 67.904 337.069 67.904 Q 337.661 67.904 338.269 68.224 Q 338.877 68.544 339.469 68.952 Q 340.061 69.36 340.597 69.68 Q 341.133 70 341.581 70 Q 342.157 70 342.533 69.68 Q 342.909 69.36 343.149 68.84 Q 343.389 68.32 343.501 67.744 Z M 343.501 71.616 L 343.501 71.616 L 344.045 71.616 Q 344.013 72.144 343.829 72.72 Q 343.645 73.296 343.317 73.8 Q 342.989 74.304 342.525 74.624 Q 342.061 74.944 341.453 74.944 Q 340.861 74.944 340.253 74.624 Q 339.645 74.304 339.053 73.896 Q 338.461 73.488 337.925 73.168 Q 337.389 72.848 336.957 72.848 Q 336.381 72.848 335.981 73.176 Q 335.581 73.504 335.325 74.016 Q 335.069 74.528 334.941 75.12 L 334.397 75.12 Q 334.445 74.288 334.773 73.528 Q 335.101 72.768 335.685 72.272 Q 336.269 71.776 337.069 71.776 Q 337.661 71.776 338.269 72.096 Q 338.877 72.416 339.469 72.824 Q 340.061 73.232 340.597 73.552 Q 341.133 73.872 341.581 73.872 Q 342.157 73.872 342.533 73.552 Q 342.909 73.232 343.149 72.712 Q 343.389 72.192 343.501 71.616 Z " fill="black" /><path d="M 357.57 75.52 L 357.57 75.52 L 352.034 75.52 L 352.034 75.072 Q 353.17 75.072 353.634 74.832 Q 354.098 74.592 354.098 74 L 354.098 67.232 Q 354.098 66.816 353.986 66.632 Q 353.874 66.448 353.57 66.448 Q 353.33 66.448 352.818 66.512 Q 352.306 66.576 351.938 66.704 L 351.938 66.176 L 355.042 65.296 L 355.506 65.296 L 355.506 74 Q 355.506 74.592 355.986 74.832 Q 356.466 75.072 357.57 75.072 Z " fill="black" /><path d="M 361.602 74.72 L 361.602 74.72 Q 361.602 75.088 361.346 75.368 Q 361.09 75.648 360.61 75.648 Q 360.13 75.648 359.898 75.376 Q 359.666 75.104 359.666 74.704 Q 359.666 74.288 359.922 73.992 Q 360.178 73.696 360.626 73.696 Q 361.09 73.696 361.346 74 Q 361.602 74.304 361.602 74.72 Z " fill="black" /><path d="M 370.018 72.96 L 370.018 72.96 L 369.506 75.52 L 363.202 75.52 L 363.202 74.976 L 365.634 72.544 Q 366.434 71.728 366.962 71.064 Q 367.49 70.4 367.754 69.728 Q 368.018 69.056 368.018 68.224 Q 368.018 67.328 367.482 66.792 Q 366.946 66.256 366.018 66.256 Q 365.234 66.256 364.682 66.592 Q 364.13 66.928 363.682 67.824 L 363.298 67.664 Q 363.666 66.496 364.466 65.856 Q 365.266 65.216 366.434 65.216 Q 367.346 65.216 368.034 65.56 Q 368.722 65.904 369.114 66.52 Q 369.506 67.136 369.506 67.984 Q 369.506 68.688 369.21 69.336 Q 368.914 69.984 368.33 70.672 Q 367.746 71.36 366.898 72.224 L 364.786 74.224 L 364.786 74.304 L 365.906 74.256 L 368.13 74.256 Q 368.77 74.256 369.026 73.968 Q 369.282 73.68 369.554 72.96 Z " fill="black" /><path d="M 380.587 71.904 L 380.587 71.904 L 382.603 66.816 Q 382.683 66.64 382.731 66.44 Q 382.779 66.24 382.779 66.032 Q 382.779 65.712 382.523 65.6 Q 382.267 65.488 381.707 65.488 L 381.707 65.008 L 385.067 65.008 L 385.067 65.488 Q 384.619 65.488 384.347 65.632 Q 384.075 65.776 383.827 66.216 Q 383.579 66.656 383.195 67.568 L 379.899 75.6 L 379.259 75.6 L 375.595 66.944 Q 375.243 66.144 374.907 65.816 Q 374.571 65.488 373.915 65.488 L 373.915 65.008 L 378.203 65.008 L 378.203 65.488 Q 377.995 65.488 377.739 65.52 Q 377.483 65.552 377.299 65.672 Q 377.115 65.792 377.115 66.096 Q 377.115 66.416 377.387 67.072 L 379.323 71.824 L 379.947 73.504 L 380.027 73.504 Z " fill="black" /></g></g></g><g><g><g><path d="M 241.331 127.272 L 241.331 127.272 Q 241.331 128.12 241.011 128.696 Q 240.691 129.272 240.179 129.64 Q 239.667 130.008 239.083 130.208 Q 238.499 130.408 237.971 130.504 L 237.971 130.584 Q 238.259 130.776 238.515 131.168 Q 238.771 131.56 239.147 132.296 Q 239.523 133.032 240.179 134.28 Q 240.451 134.76 240.779 134.928 Q 241.107 135.096 241.651 135.096 L 241.555 135.576 L 239.123 135.576 Q 238.675 134.584 238.371 133.92 Q 238.067 133.256 237.843 132.808 Q 237.619 132.36 237.451 132.008 Q 237.283 131.656 237.091 131.288 Q 236.915 130.952 236.707 130.848 Q 236.499 130.744 236.067 130.744 L 235.731 130.744 L 235.139 133.592 Q 235.011 134.248 235.051 134.576 Q 235.091 134.904 235.411 135 Q 235.731 135.096 236.419 135.096 L 236.339 135.576 L 231.923 135.576 L 232.019 135.096 Q 232.611 135.096 232.931 135 Q 233.251 134.904 233.419 134.584 Q 233.587 134.264 233.715 133.592 L 235.123 126.728 Q 235.219 126.28 235.171 126.024 Q 235.123 125.768 234.843 125.656 Q 234.563 125.544 233.923 125.544 L 234.019 125.064 L 237.779 125.064 Q 239.459 125.064 240.395 125.584 Q 241.331 126.104 241.331 127.272 Z M 236.739 125.736 L 236.739 125.736 L 235.843 130.152 L 236.339 130.168 Q 237.299 130.136 238.075 129.856 Q 238.851 129.576 239.299 128.968 Q 239.747 128.36 239.747 127.336 Q 239.747 126.904 239.563 126.528 Q 239.379 126.152 238.931 125.92 Q 238.483 125.688 237.683 125.688 Q 237.379 125.688 237.195 125.696 Q 237.011 125.704 236.739 125.736 Z " fill="black" /><path d="M 247.864 136.987 L 247.864 136.987 L 247.483 138.936 L 242.891 138.936 L 242.891 138.387 L 244.482 136.774 Q 245.109 136.147 245.518 135.666 Q 245.926 135.184 246.128 134.697 Q 246.33 134.21 246.33 133.582 Q 246.33 132.989 245.966 132.602 Q 245.602 132.216 244.941 132.216 Q 244.336 132.216 243.927 132.457 Q 243.518 132.698 243.205 133.246 L 242.902 133.101 Q 243.182 132.317 243.77 131.869 Q 244.358 131.421 245.221 131.421 Q 245.893 131.421 246.408 131.662 Q 246.923 131.902 247.214 132.35 Q 247.506 132.798 247.506 133.437 Q 247.506 133.986 247.259 134.467 Q 247.013 134.949 246.559 135.453 Q 246.106 135.957 245.478 136.573 L 244.078 137.928 L 244.078 138.006 L 244.952 137.962 L 246.408 137.962 Q 246.733 137.962 246.906 137.872 Q 247.08 137.782 247.203 137.564 Q 247.326 137.346 247.472 136.987 Z " fill="black" /></g></g></g><g><g><g><path d="M 271.048 196.532 L 271.048 196.532 L 269.72 196.532 Q 270.072 195.252 270.384 193.948 Q 270.696 192.644 270.984 191.332 Q 271 191.3 271.04 191.076 Q 271.08 190.852 271.08 190.66 Q 271.08 190.388 270.976 190.204 Q 270.872 190.02 270.6 190.02 Q 270.2 190.02 269.728 190.436 Q 269.256 190.852 268.784 191.508 Q 268.312 192.164 267.888 192.916 Q 267.464 193.668 267.16 194.34 L 266.664 196.532 L 265.352 196.532 L 266.632 190.452 Q 266.632 190.452 266.656 190.276 Q 266.68 190.1 266.68 189.924 Q 266.68 189.716 266.568 189.604 Q 266.456 189.492 266.168 189.492 Q 266.008 189.492 265.832 189.508 Q 265.656 189.524 265.656 189.524 L 265.656 189.092 L 267.864 188.916 L 268.232 188.916 L 267.432 192.388 L 267.56 192.388 Q 267.816 191.908 268.192 191.308 Q 268.568 190.708 269.056 190.148 Q 269.544 189.588 270.136 189.228 Q 270.728 188.868 271.416 188.868 Q 272.024 188.868 272.224 189.22 Q 272.424 189.572 272.424 190.004 Q 272.424 190.356 272.36 190.74 Q 272.296 191.124 272.28 191.188 L 272.008 192.212 L 272.136 192.212 Q 272.392 191.748 272.76 191.18 Q 273.128 190.612 273.6 190.084 Q 274.072 189.556 274.624 189.212 Q 275.176 188.868 275.8 188.868 Q 276.408 188.868 276.616 189.22 Q 276.824 189.572 276.824 190.004 Q 276.824 190.308 276.76 190.66 Q 276.696 191.012 276.664 191.188 L 275.784 194.884 Q 275.784 194.884 275.76 195.004 Q 275.736 195.124 275.736 195.268 Q 275.736 195.572 276.04 195.572 Q 276.456 195.572 276.752 195.268 Q 277.048 194.964 277.24 194.74 L 277.56 194.98 Q 277.352 195.268 277.056 195.676 Q 276.76 196.084 276.352 196.388 Q 275.944 196.692 275.368 196.692 Q 274.76 196.692 274.536 196.396 Q 274.312 196.1 274.312 195.748 Q 274.312 195.556 274.344 195.372 Q 274.376 195.188 274.392 195.124 L 275.208 192.02 Q 275.288 191.7 275.376 191.308 Q 275.464 190.916 275.464 190.66 Q 275.464 190.388 275.36 190.204 Q 275.256 190.02 274.984 190.02 Q 274.68 190.02 274.304 190.324 Q 273.928 190.628 273.52 191.116 Q 273.112 191.604 272.736 192.188 Q 272.36 192.772 272.048 193.332 Q 271.736 193.892 271.56 194.324 Z " fill="black" /></g></g></g><g><g><g><path d="M 121.19 -68.96 L 121.19 -68.96 L 125.558 -75.52 Q 125.782 -75.84 125.918 -76.112 Q 126.054 -76.384 126.054 -76.576 Q 126.054 -76.816 125.846 -76.904 Q 125.638 -76.992 125.094 -76.992 L 125.126 -77.472 L 128.582 -77.472 L 128.55 -76.992 Q 128.118 -76.992 127.814 -76.864 Q 127.51 -76.736 127.198 -76.376 Q 126.886 -76.016 126.39 -75.28 L 120.518 -66.88 L 119.99 -66.88 L 119.094 -75.536 Q 118.998 -76.336 118.742 -76.664 Q 118.486 -76.992 117.846 -76.992 L 117.878 -77.472 L 121.798 -77.472 L 121.75 -76.992 Q 121.142 -76.992 120.79 -76.752 Q 120.438 -76.512 120.47 -75.968 Q 120.47 -75.888 120.494 -75.68 Q 120.518 -75.472 120.518 -75.392 L 120.998 -70.832 L 121.11 -68.96 Z " fill="black" /><path d="M 127.321 -71.474 L 127.321 -71.474 L 130.714 -71.474 Q 131.61 -71.474 132.428 -71.278 Q 133.246 -71.082 133.89 -70.634 Q 134.534 -70.186 134.909 -69.435 Q 135.284 -68.685 135.284 -67.565 Q 135.284 -66.512 134.942 -65.756 Q 134.601 -65 133.985 -64.524 Q 133.369 -64.048 132.551 -63.824 Q 131.734 -63.6 130.782 -63.6 L 127.321 -63.6 L 127.321 -64.026 Q 127.847 -64.026 128.094 -64.104 Q 128.34 -64.182 128.413 -64.423 Q 128.486 -64.664 128.486 -65.157 L 128.486 -70.018 Q 128.486 -70.477 128.379 -70.695 Q 128.273 -70.914 128.021 -70.981 Q 127.769 -71.048 127.321 -71.048 Z M 129.684 -70.914 L 129.684 -70.914 L 129.684 -64.138 Q 129.863 -64.126 130.037 -64.121 Q 130.21 -64.115 130.378 -64.115 Q 131.487 -64.115 132.266 -64.406 Q 133.044 -64.698 133.453 -65.426 Q 133.862 -66.154 133.862 -67.464 Q 133.862 -69.144 133.005 -70.034 Q 132.148 -70.925 130.289 -70.925 Q 130.132 -70.925 129.986 -70.925 Q 129.841 -70.925 129.684 -70.914 Z " fill="black" /><path d="M 136.639 -71.474 L 136.639 -71.474 L 140.033 -71.474 Q 140.929 -71.474 141.746 -71.278 Q 142.564 -71.082 143.208 -70.634 Q 143.852 -70.186 144.227 -69.435 Q 144.602 -68.685 144.602 -67.565 Q 144.602 -66.512 144.261 -65.756 Q 143.919 -65 143.303 -64.524 Q 142.687 -64.048 141.87 -63.824 Q 141.052 -63.6 140.1 -63.6 L 136.639 -63.6 L 136.639 -64.026 Q 137.166 -64.026 137.412 -64.104 Q 137.658 -64.182 137.731 -64.423 Q 137.804 -64.664 137.804 -65.157 L 137.804 -70.018 Q 137.804 -70.477 137.698 -70.695 Q 137.591 -70.914 137.339 -70.981 Q 137.087 -71.048 136.639 -71.048 Z M 139.002 -70.914 L 139.002 -70.914 L 139.002 -64.138 Q 139.182 -64.126 139.355 -64.121 Q 139.529 -64.115 139.697 -64.115 Q 140.806 -64.115 141.584 -64.406 Q 142.362 -64.698 142.771 -65.426 Q 143.18 -66.154 143.18 -67.464 Q 143.18 -69.144 142.323 -70.034 Q 141.466 -70.925 139.607 -70.925 Q 139.45 -70.925 139.305 -70.925 Q 139.159 -70.925 139.002 -70.914 Z " fill="black" /></g></g></g></svg>