<svg xmlns="http://www.w3.org/2000/svg" xml:lang="en" height="149.23999999999998pt" width="299.13988634059945pt" viewBox="-99.5976 -49.6 299.13988634059945 149.23999999999998"><path d="M 0.0,-0.0 L 0.0,45.0 L 77.94228634059947,-0.0 L 0.0,-45.0 L 0.0,-0.0 M 77.94228634059947,-0.0" style="stroke:black;fill:none;stroke-width:2.0;stroke-dasharray:-;stroke-linecap:round;stroke-linejoin:round;" /><path d="M 6.142785792574934,22.5 L 13.342785792574933,22.5" style="stroke:black;fill:none;stroke-width:2.0;stroke-dasharray:-;stroke-linecap:round;stroke-linejoin:round;" /><path d="M 6.142785792574934,-22.5 L 13.342785792574933,-22.5" style="stroke:black;fill:none;stroke-width:2.0;stroke-dasharray:-;stroke-linecap:round;stroke-linejoin:round;" /><path d="M 9.742785792574933,-26.099999999999998 L 9.742785792574933,-18.900000000000002" style="stroke:black;fill:none;stroke-width:2.0;stroke-dasharray:-;stroke-linecap:round;stroke-linejoin:round;" /><path d="M 0.0,-22.5 L -36.0,-22.500000000000004 L -72.0,-22.500000000000007" style="stroke:black;fill:none;stroke-width:2.0;stroke-dasharray:-;stroke-linecap:round;stroke-linejoin:round;" /><path d="M 77.94228634059947,-0.0 L 95.94228634059947,-0.0 L 113.94228634059947,-0.0" style="stroke:black;fill:none;stroke-width:2.0;stroke-dasharray:-;stroke-linecap:round;stroke-linejoin:round;" /><path d="M 113.94228634059947,-0.0 L 149.94228634059948,-0.0 L 185.94228634059948,-0.0" style="stroke:black;fill:none;stroke-width:2.0;stroke-dasharray:-;stroke-linecap:round;stroke-linejoin:round;" /><path d="M 185.94228634059948,-0.0 L 185.94228634059948,32.76 M 194.94228634059948,32.76 L 176.94228634059948,32.76 M 194.94228634059948,39.24 L 176.94228634059948,39.24 M 185.94228634059948,39.24 L 185.94228634059948,72.0" style="stroke:black;fill:none;stroke-width:2.0;stroke-dasharray:-;stroke-linecap:round;stroke-linejoin:round;" /><path d="M 185.94228634059948,72.0 L 185.94228634059948,86.39999999999999 L 176.94228634059948,86.39999999999999 L 194.94228634059948,86.39999999999999 M 179.64228634059947,90.72 L 192.24228634059946,90.72 M 184.14228634059947,95.04 L 187.74228634059946,95.04" style="stroke:black;fill:none;stroke-width:2.0;stroke-dasharray:-;stroke-linecap:round;stroke-linejoin:round;" /><path d="M 113.94228634059947,-0.0 L 113.94228634059947,36.0 L 113.94228634059945,72.0" style="stroke:black;fill:none;stroke-width:2.0;stroke-dasharray:-;stroke-linecap:round;stroke-linejoin:round;" /><path d="M 113.94228634059945,72.0 L 41.94228634059945,71.99999999999999 L -30.057713659400548,71.99999999999999" style="stroke:black;fill:none;stroke-width:2.0;stroke-dasharray:-;stroke-linecap:round;stroke-linejoin:round;" /><path d="M -30.057713659400548,71.99999999999999 L -30.057713659400548,47.24999999999999 L -30.05771365940054,22.5" style="stroke:black;fill:none;stroke-width:2.0;stroke-dasharray:-;stroke-linecap:round;stroke-linejoin:round;" /><path d="M -30.05771365940054,22.5 L -15.02885682970027,22.5 L 0.0,22.5" style="stroke:black;fill:none;stroke-width:2.0;stroke-dasharray:-;stroke-linecap:round;stroke-linejoin:round;" /><circle cx="-72.0" cy="-22.500000000000007" r="2.6999999999999997" style="stroke:black;fill:white;stroke-width:2.0;stroke-dasharray:-;" /><g><g><g><path d="M -94.129 -20.924 L -94.129 -20.924 L -89.761 -27.484 Q -89.537 -27.804 -89.401 -28.076 Q -89.265 -28.348 -89.265 -28.54 Q -89.265 -28.78 -89.473 -28.868 Q -89.681 -28.956 -90.225 -28.956 L -90.193 -29.436 L -86.737 -29.436 L -86.769 -28.956 Q -87.201 -28.956 -87.505 -28.828 Q -87.809 -28.7 -88.121 -28.34 Q -88.433 -27.98 -88.929 -27.244 L -94.801 -18.844 L -95.329 -18.844 L -96.225 -27.5 Q -96.321 -28.3 -96.577 -28.628 Q -96.833 -28.956 -97.473 -28.956 L -97.441 -29.436 L -93.521 -29.436 L -93.569 -28.956 Q -94.177 -28.956 -94.529 -28.716 Q -94.881 -28.476 -94.849 -27.932 Q -94.849 -27.852 -94.825 -27.644 Q -94.801 -27.436 -94.801 -27.356 L -94.321 -22.796 L -94.209 -20.924 Z " fill="black" /><path d="M -85.209 -15.978 L -85.209 -15.978 L -85.209 -15.564 L -88.054 -15.564 L -88.054 -15.978 Q -87.662 -15.978 -87.488 -16.062 Q -87.314 -16.146 -87.27 -16.331 Q -87.225 -16.516 -87.225 -16.818 L -87.225 -20.201 Q -87.225 -20.582 -87.348 -20.66 Q -87.471 -20.738 -87.762 -20.738 Q -87.908 -20.738 -87.998 -20.727 Q -88.087 -20.716 -88.087 -20.716 L -88.087 -21.164 L -86.586 -21.41 L -86.127 -21.41 L -86.127 -16.818 Q -86.127 -16.494 -86.077 -16.309 Q -86.026 -16.124 -85.83 -16.051 Q -85.634 -15.978 -85.209 -15.978 Z M -86.687 -23.886 L -86.687 -23.886 Q -86.362 -23.886 -86.144 -23.662 Q -85.926 -23.438 -85.926 -23.146 Q -85.926 -22.878 -86.144 -22.654 Q -86.362 -22.43 -86.687 -22.43 Q -87.001 -22.43 -87.208 -22.654 Q -87.415 -22.878 -87.415 -23.146 Q -87.415 -23.438 -87.208 -23.662 Q -87.001 -23.886 -86.687 -23.886 Z " fill="black" /><path d="M -78.556 -19.316 L -78.556 -19.316 L -78.556 -16.807 Q -78.556 -16.494 -78.5 -16.309 Q -78.444 -16.124 -78.254 -16.046 Q -78.063 -15.967 -77.66 -15.967 L -77.66 -15.564 L -80.538 -15.564 L -80.538 -15.967 Q -80.113 -15.967 -79.922 -16.046 Q -79.732 -16.124 -79.687 -16.309 Q -79.642 -16.494 -79.642 -16.807 L -79.642 -18.946 Q -79.642 -19.697 -79.816 -20.05 Q -79.99 -20.402 -80.253 -20.514 Q -80.516 -20.626 -80.785 -20.626 Q -81.266 -20.626 -81.63 -20.38 Q -81.994 -20.134 -82.263 -19.91 L -82.263 -16.807 Q -82.263 -16.494 -82.213 -16.309 Q -82.162 -16.124 -81.972 -16.046 Q -81.782 -15.967 -81.367 -15.967 L -81.367 -15.564 L -84.19 -15.564 L -84.19 -15.967 Q -83.798 -15.967 -83.624 -16.046 Q -83.45 -16.124 -83.406 -16.309 Q -83.361 -16.494 -83.361 -16.807 L -83.361 -20.212 Q -83.361 -20.526 -83.478 -20.632 Q -83.596 -20.738 -83.854 -20.738 Q -83.988 -20.738 -84.078 -20.727 Q -84.167 -20.716 -84.167 -20.716 L -84.167 -21.142 L -82.666 -21.41 L -82.297 -21.41 L -82.297 -20.492 L -82.218 -20.492 Q -81.737 -20.929 -81.294 -21.186 Q -80.852 -21.444 -80.292 -21.444 Q -79.631 -21.444 -79.256 -21.147 Q -78.881 -20.85 -78.718 -20.369 Q -78.556 -19.887 -78.556 -19.316 Z " fill="black" /></g></g></g><circle cx="113.94228634059947" cy="-0.0" r="2.6999999999999997" style="stroke:black;fill:black;stroke-width:2.0;stroke-dasharray:-;" /><g><g><g><path d="M 141.397 -9.094 L 141.397 -9.094 L 145.765 -15.654 Q 145.989 -15.974 146.125 -16.246 Q 146.261 -16.518 146.261 -16.71 Q 146.261 -16.95 146.053 -17.038 Q 145.845 -17.126 145.301 -17.126 L 145.333 -17.606 L 148.789 -17.606 L 148.757 -17.126 Q 148.325 -17.126 148.021 -16.998 Q 147.717 -16.87 147.405 -16.51 Q 147.093 -16.15 146.597 -15.414 L 140.725 -7.014 L 140.197 -7.014 L 139.301 -15.67 Q 139.205 -16.47 138.949 -16.798 Q 138.693 -17.126 138.053 -17.126 L 138.085 -17.606 L 142.005 -17.606 L 141.957 -17.126 Q 141.349 -17.126 140.997 -16.886 Q 140.645 -16.646 140.677 -16.102 Q 140.677 -16.022 140.701 -15.814 Q 140.725 -15.606 140.725 -15.526 L 141.205 -10.966 L 141.317 -9.094 Z " fill="black" /><path d="M 148.697 -9.614 L 148.697 -9.614 Q 149.537 -9.614 150.165 -9.25 Q 150.792 -8.886 151.133 -8.231 Q 151.475 -7.576 151.475 -6.691 Q 151.475 -5.627 151.117 -4.944 Q 150.758 -4.261 150.131 -3.93 Q 149.504 -3.6 148.697 -3.6 Q 147.88 -3.6 147.247 -3.942 Q 146.614 -4.283 146.261 -4.966 Q 145.909 -5.65 145.909 -6.68 Q 145.909 -7.554 146.256 -8.214 Q 146.603 -8.875 147.23 -9.245 Q 147.857 -9.614 148.697 -9.614 Z M 148.675 -9.099 L 148.675 -9.099 Q 147.936 -9.099 147.516 -8.5 Q 147.096 -7.901 147.096 -6.747 Q 147.096 -5.325 147.527 -4.737 Q 147.958 -4.149 148.731 -4.149 Q 149.224 -4.16 149.571 -4.395 Q 149.918 -4.63 150.103 -5.185 Q 150.288 -5.739 150.288 -6.691 Q 150.288 -7.834 149.896 -8.466 Q 149.504 -9.099 148.675 -9.099 Z " fill="black" /><path d="M 159.091 -4.306 L 159.091 -4.306 L 159.091 -3.88 L 157.579 -3.678 L 157.221 -3.678 L 157.221 -4.552 L 157.109 -4.552 Q 156.683 -4.171 156.246 -3.897 Q 155.809 -3.622 155.193 -3.622 Q 154.365 -3.622 153.928 -4.126 Q 153.491 -4.63 153.491 -5.874 L 153.491 -8.282 Q 153.491 -8.741 153.329 -8.847 Q 153.166 -8.954 152.651 -8.954 L 152.651 -9.357 L 154.208 -9.57 L 154.577 -9.57 L 154.577 -6.019 Q 154.577 -5.392 154.723 -5.045 Q 154.869 -4.698 155.115 -4.563 Q 155.361 -4.429 155.653 -4.429 Q 156.145 -4.429 156.476 -4.636 Q 156.806 -4.843 157.165 -5.134 L 157.165 -8.282 Q 157.165 -8.741 156.963 -8.847 Q 156.761 -8.954 156.19 -8.954 L 156.19 -9.357 L 157.859 -9.57 L 158.251 -9.57 L 158.251 -5.034 Q 158.251 -4.698 158.313 -4.541 Q 158.374 -4.384 158.531 -4.345 Q 158.688 -4.306 158.968 -4.306 Z " fill="black" /><path d="M 163.459 -4.854 L 163.459 -4.854 L 163.717 -4.642 Q 163.47 -4.306 163.269 -4.076 Q 163.067 -3.846 162.809 -3.723 Q 162.552 -3.6 162.149 -3.6 Q 161.499 -3.6 161.202 -3.97 Q 160.905 -4.339 160.905 -5.157 L 160.905 -8.92 L 160.2 -8.92 L 160.2 -9.256 Q 160.603 -9.547 160.939 -9.967 Q 161.275 -10.387 161.611 -11.171 L 162.003 -11.171 L 161.992 -9.469 L 163.414 -9.469 L 163.414 -8.92 L 161.992 -8.92 L 161.992 -5.526 Q 161.992 -4.899 162.109 -4.636 Q 162.227 -4.373 162.585 -4.373 Q 162.91 -4.373 163.078 -4.49 Q 163.246 -4.608 163.459 -4.854 Z " fill="black" /></g></g></g><g><g><g><path d="M 148.933 37.293 L 148.933 37.293 L 149.221 37.597 Q 148.405 38.557 147.333 39.173 Q 146.261 39.789 144.741 39.789 Q 143.301 39.789 142.437 39.253 Q 141.573 38.717 141.197 37.821 Q 140.821 36.925 140.821 35.869 Q 140.821 34.189 141.333 32.885 Q 141.845 31.581 142.733 30.693 Q 143.621 29.805 144.741 29.349 Q 145.861 28.893 147.077 28.893 Q 147.893 28.893 148.349 29.037 Q 148.805 29.181 149.061 29.333 Q 149.317 29.485 149.509 29.485 Q 149.701 29.485 149.845 29.325 Q 149.989 29.165 150.181 28.909 L 150.645 28.909 L 149.893 32.573 L 149.365 32.573 Q 149.429 30.973 148.773 30.277 Q 148.117 29.581 146.933 29.581 Q 146.005 29.581 145.189 30.005 Q 144.373 30.429 143.741 31.205 Q 143.109 31.981 142.749 33.061 Q 142.389 34.141 142.389 35.469 Q 142.389 37.069 143.149 37.909 Q 143.909 38.749 145.493 38.749 Q 147.333 38.749 148.933 37.293 Z " fill="black" /><path d="M 153.504 42.558 L 153.504 42.558 L 153.504 42.973 L 150.67 42.973 L 150.67 42.558 Q 151.062 42.558 151.236 42.48 Q 151.409 42.402 151.454 42.217 Q 151.499 42.032 151.499 41.718 L 151.499 35.805 Q 151.499 35.446 151.37 35.368 Q 151.241 35.29 150.973 35.29 Q 150.827 35.29 150.732 35.306 Q 150.637 35.323 150.637 35.323 L 150.637 34.898 L 152.16 34.606 L 152.597 34.606 L 152.597 41.718 Q 152.597 42.043 152.647 42.228 Q 152.697 42.413 152.893 42.486 Q 153.089 42.558 153.504 42.558 Z " fill="black" /><path d="M 157.424 37.093 L 157.424 37.093 Q 158.264 37.093 158.891 37.457 Q 159.518 37.821 159.86 38.476 Q 160.201 39.131 160.201 40.016 Q 160.201 41.08 159.843 41.763 Q 159.485 42.446 158.857 42.777 Q 158.23 43.107 157.424 43.107 Q 156.606 43.107 155.973 42.766 Q 155.341 42.424 154.988 41.741 Q 154.635 41.058 154.635 40.027 Q 154.635 39.154 154.982 38.493 Q 155.329 37.832 155.957 37.462 Q 156.584 37.093 157.424 37.093 Z M 157.401 37.608 L 157.401 37.608 Q 156.662 37.608 156.242 38.207 Q 155.822 38.806 155.822 39.96 Q 155.822 41.382 156.253 41.97 Q 156.685 42.558 157.457 42.558 Q 157.95 42.547 158.297 42.312 Q 158.645 42.077 158.829 41.522 Q 159.014 40.968 159.014 40.016 Q 159.014 38.874 158.622 38.241 Q 158.23 37.608 157.401 37.608 Z " fill="black" /><path d="M 164.905 42.267 L 164.905 42.267 L 164.827 42.267 Q 164.446 42.581 163.987 42.816 Q 163.528 43.051 162.99 43.051 Q 162.285 43.051 161.909 42.626 Q 161.534 42.2 161.534 41.595 Q 161.534 41.08 161.775 40.733 Q 162.016 40.386 162.402 40.167 Q 162.789 39.949 163.237 39.814 Q 163.685 39.68 164.099 39.602 Q 164.513 39.523 164.793 39.456 L 164.793 38.874 Q 164.793 38.123 164.497 37.838 Q 164.2 37.552 163.629 37.552 Q 163.281 37.552 163.13 37.642 Q 162.979 37.731 162.94 37.933 Q 162.901 38.134 162.889 38.459 Q 162.878 38.706 162.744 38.857 Q 162.609 39.008 162.352 39.008 Q 162.105 39.008 161.932 38.857 Q 161.758 38.706 161.758 38.414 Q 161.758 38.067 162.027 37.765 Q 162.296 37.462 162.794 37.278 Q 163.293 37.093 163.965 37.093 Q 164.973 37.093 165.426 37.558 Q 165.88 38.022 165.88 38.952 L 165.88 41.696 Q 165.88 42.066 165.964 42.172 Q 166.048 42.278 166.227 42.278 Q 166.417 42.278 166.557 42.2 Q 166.697 42.122 166.821 41.976 L 167.067 42.211 Q 166.485 43.04 165.701 43.04 Q 165.264 43.04 165.101 42.833 Q 164.939 42.626 164.905 42.267 Z M 164.793 41.853 L 164.793 41.853 L 164.793 39.882 Q 164.278 40.016 163.785 40.178 Q 163.293 40.341 162.973 40.621 Q 162.654 40.901 162.654 41.405 Q 162.654 41.842 162.906 42.094 Q 163.158 42.346 163.55 42.346 Q 163.785 42.346 164.116 42.239 Q 164.446 42.133 164.793 41.853 Z " fill="black" /><path d="M 173.787 42.827 L 173.787 42.827 L 172.275 43.029 L 171.872 43.029 L 171.872 42.245 L 171.793 42.245 Q 171.424 42.558 170.959 42.816 Q 170.494 43.074 169.912 43.074 Q 169.251 43.074 168.786 42.715 Q 168.321 42.357 168.075 41.73 Q 167.829 41.102 167.829 40.307 Q 167.829 39.31 168.215 38.588 Q 168.601 37.866 169.245 37.479 Q 169.889 37.093 170.651 37.093 Q 171.312 37.093 171.849 37.395 L 171.849 35.95 Q 171.849 35.547 171.765 35.418 Q 171.681 35.29 171.323 35.29 Q 171.245 35.29 171.116 35.306 Q 170.987 35.323 170.987 35.323 L 170.987 34.898 L 172.477 34.606 L 172.936 34.606 L 172.936 41.707 Q 172.936 42.144 173.059 42.273 Q 173.182 42.402 173.485 42.402 L 173.787 42.402 Z M 171.849 41.73 L 171.849 41.73 L 171.849 38.459 Q 171.726 38.146 171.441 37.899 Q 171.155 37.653 170.629 37.653 Q 169.878 37.653 169.397 38.162 Q 168.915 38.672 168.915 39.848 Q 168.915 41.046 169.335 41.601 Q 169.755 42.155 170.517 42.155 Q 170.875 42.155 171.172 42.054 Q 171.469 41.954 171.849 41.73 Z " fill="black" /></g></g></g></svg>