<svg xmlns="http://www.w3.org/2000/svg" xmlns:xlink="http://www.w3.org/1999/xlink" xml:lang="en" height="211.636pt" width="291.63999999999993pt" viewBox="-74.13199999999999 -81.856 291.63999999999993 211.636"><circle cx="71.99999999999999" cy="-36.0" r="18.0" style="stroke:black;fill:none;stroke-width:2.0;stroke-dasharray:-;" /><path d="M 0.0,-0.0 L -27.0,-3.3065463576978533e-15 L -54.0,-6.613092715395707e-15" style="stroke:black;fill:none;stroke-width:2.0;stroke-dasharray:-;stroke-linecap:round;stroke-linejoin:round;" /><path d="M 0.0,-0.0 L -6.017914371010093e-15,32.76 M 8.999999999999995,32.76 L -9.000000000000005,32.76 M 8.999999999999993,39.24 L -9.000000000000007,39.24 M -7.208271059781322e-15,39.24 L -1.3226185430791413e-14,72.0" style="stroke:black;fill:none;stroke-width:2.0;stroke-dasharray:-;stroke-linecap:round;stroke-linejoin:round;" /><path d="M -1.3226185430791413e-14,72.0 L 35.999999999999986,72.0 L 71.99999999999999,72.0" style="stroke:black;fill:none;stroke-width:2.0;stroke-dasharray:-;stroke-linecap:round;stroke-linejoin:round;" /><path d="M 71.99999999999999,72.0 L 71.99999999999999,90.0 L 71.99999999999997,108.0" style="stroke:black;fill:none;stroke-width:2.0;stroke-dasharray:-;stroke-linecap:round;stroke-linejoin:round;" /><path d="M 71.99999999999999,72.0 L 71.99999999999999,54.0 L 62.999999999999986,50.99999999999999 L 80.99999999999999,45.0 L 62.999999999999986,39.00000000000001 L 80.99999999999999,33.0 L 62.999999999999986,27.0 L 80.99999999999999,21.000000000000007 L 71.99999999999999,18.0 L 71.99999999999999,-0.0" style="stroke:black;fill:none;stroke-width:2.0;stroke-dasharray:-;stroke-linecap:round;stroke-linejoin:round;" /><path d="M 71.99999999999999,-0.0 L 35.99999999999999,-4.408728476930472e-15 L -7.993605777301127e-15,-8.817456953860943e-15" style="stroke:black;fill:none;stroke-width:2.0;stroke-dasharray:-;stroke-linecap:round;stroke-linejoin:round;" /><path d="M 71.99999999999999,-0.0 L 71.99999999999999,-18.0 L 71.99999999999999,-18.0 M 71.99999999999999,-54.0 L 71.99999999999999,-54.0 L 72.0,-72.0" style="stroke:black;fill:none;stroke-width:2.0;stroke-dasharray:-;stroke-linecap:round;stroke-linejoin:round;" /><path d="M 71.99999999999999,-36.0 L 71.99999999999999,-45.0" style="stroke:black;fill:none;stroke-width:2.0;stroke-dasharray:-;stroke-linecap:round;stroke-linejoin:round;" /><path d="M 71.99999999999999 -29.0 L 69.29999999999998 -36.0 L 74.69999999999999 -36.0 Z" style="stroke:black;fill:black;stroke-linecap:butt;stroke-linejoin:miter;" /><path d="M 72.0,-72.0 L 108.0,-72.0 L 144.0,-72.0" style="stroke:black;fill:none;stroke-width:2.0;stroke-dasharray:-;stroke-linecap:round;stroke-linejoin:round;" /><path d="M 144.0,-72.0 L 171.0,-72.0 L 198.0,-72.0" style="stroke:black;fill:none;stroke-width:2.0;stroke-dasharray:-;stroke-linecap:round;stroke-linejoin:round;" /><path d="M 144.0,-72.0 L 143.99999999999997,-18.0 L 153.0,-15.000000000000004 L 134.99999999999997,-9.0 L 153.0,-3.0000000000000053 L 134.99999999999997,2.9999999999999893 L 153.0,9.0 L 134.99999999999997,14.999999999999995 L 143.99999999999997,18.0 L 143.99999999999997,72.0" style="stroke:black;fill:none;stroke-width:2.0;stroke-dasharray:-;stroke-linecap:round;stroke-linejoin:round;" /><path d="M 143.99999999999997,72.0 L 107.99999999999997,71.99999999999999 L 71.99999999999997,71.99999999999999" style="stroke:black;fill:none;stroke-width:2.0;stroke-dasharray:-;stroke-linecap:round;stroke-linejoin:round;" /><circle cx="-54.0" cy="-6.613092715395707e-15" r="2.6999999999999997" style="stroke:black;fill:white;stroke-width:2.0;stroke-dasharray:-;" /><g><g><g><path d="M -63.82 5.44 L -63.82 5.44 Q -65.244 5.44 -66.34 4.792 Q -67.436 4.144 -68.052 2.928 Q -68.668 1.712 -68.668 0.032 Q -68.668 -1.696 -68.028 -2.92 Q -67.388 -4.144 -66.292 -4.792 Q -65.196 -5.44 -63.804 -5.44 Q -62.62 -5.44 -61.876 -5.04 Q -61.132 -4.64 -60.652 -4.144 L -61.404 -3.264 Q -61.804 -3.68 -62.348 -3.968 Q -62.892 -4.256 -63.74 -4.256 Q -65.34 -4.256 -66.3 -3.12 Q -67.26 -1.984 -67.26 0.016 Q -67.26 1.936 -66.34 3.088 Q -65.42 4.24 -63.74 4.24 Q -62.428 4.24 -61.772 3.632 L -61.772 0.928 L -64.028 0.928 L -64.028 -0.208 L -60.524 -0.208 L -60.524 4.224 Q -61.036 4.752 -61.884 5.096 Q -62.732 5.44 -63.82 5.44 Z " fill="black" /></g></g></g><g><g><g><path d="M -25.384 35.938 L -25.384 35.938 L -25.096 36.242 Q -25.912 37.202 -26.984 37.818 Q -28.056 38.434 -29.576 38.434 Q -31.016 38.434 -31.88 37.898 Q -32.744 37.362 -33.12 36.466 Q -33.496 35.57 -33.496 34.514 Q -33.496 32.834 -32.984 31.53 Q -32.472 30.226 -31.584 29.338 Q -30.696 28.45 -29.576 27.994 Q -28.456 27.538 -27.24 27.538 Q -26.424 27.538 -25.968 27.682 Q -25.512 27.826 -25.256 27.978 Q -25 28.13 -24.808 28.13 Q -24.616 28.13 -24.472 27.97 Q -24.328 27.81 -24.136 27.554 L -23.672 27.554 L -24.424 31.218 L -24.952 31.218 Q -24.888 29.618 -25.544 28.922 Q -26.2 28.226 -27.384 28.226 Q -28.312 28.226 -29.128 28.65 Q -29.944 29.074 -30.576 29.85 Q -31.208 30.626 -31.568 31.706 Q -31.928 32.786 -31.928 34.114 Q -31.928 35.714 -31.168 36.554 Q -30.408 37.394 -28.824 37.394 Q -26.984 37.394 -25.384 35.938 Z " fill="black" /><path d="M -22.549 39.366 L -22.549 39.366 L -22.549 39.322 Q -22.941 39.086 -23.215 38.711 Q -23.49 38.336 -23.49 37.742 Q -23.49 37.115 -23.187 36.667 Q -22.885 36.219 -22.37 35.978 Q -21.854 35.738 -21.216 35.738 Q -20.622 35.738 -20.247 35.866 Q -19.872 35.995 -19.872 35.995 L -18.226 35.95 L -18.226 36.611 L -19.402 36.589 L -19.402 36.667 Q -19.256 36.869 -19.099 37.143 Q -18.942 37.418 -18.942 37.91 Q -18.942 38.47 -19.239 38.879 Q -19.536 39.288 -20.034 39.506 Q -20.533 39.725 -21.16 39.725 Q -21.731 39.725 -22.235 39.523 Q -22.314 39.669 -22.42 39.938 Q -22.526 40.206 -22.526 40.397 Q -22.526 40.632 -22.252 40.744 Q -21.978 40.856 -21.16 40.856 Q -20.555 40.856 -20.04 40.884 Q -19.525 40.912 -19.144 41.041 Q -18.763 41.17 -18.556 41.455 Q -18.349 41.741 -18.349 42.267 Q -18.349 42.872 -18.657 43.292 Q -18.965 43.712 -19.469 43.97 Q -19.973 44.227 -20.561 44.345 Q -21.149 44.462 -21.72 44.462 Q -22.538 44.462 -22.986 44.261 Q -23.434 44.059 -23.607 43.746 Q -23.781 43.432 -23.781 43.107 Q -23.781 42.794 -23.562 42.486 Q -23.344 42.178 -22.862 41.73 L -22.862 41.674 Q -23.142 41.528 -23.333 41.282 Q -23.523 41.035 -23.523 40.8 Q -23.523 40.464 -23.226 40.089 Q -22.93 39.714 -22.549 39.366 Z M -22.493 41.786 L -22.493 41.786 Q -22.683 42.11 -22.75 42.301 Q -22.818 42.491 -22.818 42.682 Q -22.818 43.197 -22.398 43.46 Q -21.978 43.723 -21.093 43.723 Q -20.365 43.723 -19.917 43.544 Q -19.469 43.365 -19.256 43.113 Q -19.043 42.861 -19.043 42.626 Q -19.043 42.323 -19.239 42.155 Q -19.435 41.987 -19.738 41.914 Q -20.04 41.842 -20.376 41.819 Q -20.712 41.797 -21.003 41.797 Q -21.082 41.797 -21.126 41.797 Q -21.843 41.797 -22.106 41.791 Q -22.37 41.786 -22.493 41.786 Z M -21.283 36.23 L -21.283 36.23 Q -21.765 36.23 -22.062 36.555 Q -22.358 36.88 -22.358 37.675 Q -22.358 38.459 -22.045 38.862 Q -21.731 39.266 -21.16 39.266 Q -20.858 39.266 -20.611 39.142 Q -20.365 39.019 -20.214 38.694 Q -20.062 38.37 -20.062 37.776 Q -20.062 37.014 -20.393 36.622 Q -20.723 36.23 -21.283 36.23 Z " fill="black" /><path d="M -16.277 39.366 L -16.277 39.366 L -16.277 39.322 Q -16.669 39.086 -16.943 38.711 Q -17.218 38.336 -17.218 37.742 Q -17.218 37.115 -16.915 36.667 Q -16.613 36.219 -16.098 35.978 Q -15.582 35.738 -14.944 35.738 Q -14.35 35.738 -13.975 35.866 Q -13.6 35.995 -13.6 35.995 L -11.954 35.95 L -11.954 36.611 L -13.13 36.589 L -13.13 36.667 Q -12.984 36.869 -12.827 37.143 Q -12.67 37.418 -12.67 37.91 Q -12.67 38.47 -12.967 38.879 Q -13.264 39.288 -13.762 39.506 Q -14.261 39.725 -14.888 39.725 Q -15.459 39.725 -15.963 39.523 Q -16.042 39.669 -16.148 39.938 Q -16.254 40.206 -16.254 40.397 Q -16.254 40.632 -15.98 40.744 Q -15.706 40.856 -14.888 40.856 Q -14.283 40.856 -13.768 40.884 Q -13.253 40.912 -12.872 41.041 Q -12.491 41.17 -12.284 41.455 Q -12.077 41.741 -12.077 42.267 Q -12.077 42.872 -12.385 43.292 Q -12.693 43.712 -13.197 43.97 Q -13.701 44.227 -14.289 44.345 Q -14.877 44.462 -15.448 44.462 Q -16.266 44.462 -16.714 44.261 Q -17.162 44.059 -17.335 43.746 Q -17.509 43.432 -17.509 43.107 Q -17.509 42.794 -17.29 42.486 Q -17.072 42.178 -16.59 41.73 L -16.59 41.674 Q -16.87 41.528 -17.061 41.282 Q -17.251 41.035 -17.251 40.8 Q -17.251 40.464 -16.954 40.089 Q -16.658 39.714 -16.277 39.366 Z M -16.221 41.786 L -16.221 41.786 Q -16.411 42.11 -16.478 42.301 Q -16.546 42.491 -16.546 42.682 Q -16.546 43.197 -16.126 43.46 Q -15.706 43.723 -14.821 43.723 Q -14.093 43.723 -13.645 43.544 Q -13.197 43.365 -12.984 43.113 Q -12.771 42.861 -12.771 42.626 Q -12.771 42.323 -12.967 42.155 Q -13.163 41.987 -13.466 41.914 Q -13.768 41.842 -14.104 41.819 Q -14.44 41.797 -14.731 41.797 Q -14.81 41.797 -14.854 41.797 Q -15.571 41.797 -15.834 41.791 Q -16.098 41.786 -16.221 41.786 Z M -15.011 36.23 L -15.011 36.23 Q -15.493 36.23 -15.79 36.555 Q -16.086 36.88 -16.086 37.675 Q -16.086 38.459 -15.773 38.862 Q -15.459 39.266 -14.888 39.266 Q -14.586 39.266 -14.339 39.142 Q -14.093 39.019 -13.942 38.694 Q -13.79 38.37 -13.79 37.776 Q -13.79 37.014 -14.121 36.622 Q -14.451 36.23 -15.011 36.23 Z " fill="black" /></g></g></g><circle cx="71.99999999999999" cy="72.0" r="2.6999999999999997" style="stroke:black;fill:black;stroke-width:2.0;stroke-dasharray:-;" /><circle cx="71.99999999999997" cy="108.0" r="2.6999999999999997" style="stroke:black;fill:white;stroke-width:2.0;stroke-dasharray:-;" /><g><g><g><path d="M 72.448 125.18 L 72.448 125.18 Q 71.296 125.18 70.344 124.756 Q 69.392 124.332 68.688 123.628 L 69.504 122.684 Q 70.08 123.276 70.856 123.628 Q 71.632 123.98 72.512 123.98 Q 73.536 123.98 74.12 123.516 Q 74.704 123.052 74.704 122.268 Q 74.704 121.756 74.472 121.436 Q 74.24 121.116 73.832 120.892 Q 73.424 120.668 72.912 120.46 L 71.376 119.804 Q 70.912 119.596 70.4 119.268 Q 69.888 118.94 69.544 118.42 Q 69.2 117.9 69.2 117.132 Q 69.2 116.3 69.64 115.66 Q 70.08 115.02 70.84 114.66 Q 71.6 114.3 72.56 114.3 Q 73.536 114.3 74.352 114.66 Q 75.168 115.02 75.744 115.596 L 75.024 116.476 Q 74.512 116.012 73.912 115.748 Q 73.312 115.484 72.592 115.484 Q 71.68 115.484 71.136 115.892 Q 70.592 116.3 70.592 117.004 Q 70.592 117.5 70.856 117.82 Q 71.12 118.14 71.528 118.348 Q 71.936 118.556 72.368 118.732 L 73.888 119.372 Q 74.496 119.628 75 119.988 Q 75.504 120.348 75.8 120.876 Q 76.096 121.404 76.096 122.14 Q 76.096 123.004 75.656 123.692 Q 75.216 124.38 74.4 124.78 Q 73.584 125.18 72.448 125.18 Z " fill="black" /></g></g></g><circle cx="71.99999999999999" cy="-0.0" r="2.6999999999999997" style="stroke:black;fill:black;stroke-width:2.0;stroke-dasharray:-;" /><g><g><g><path d="M 48.168 29.21 L 48.168 29.21 L 48.072 30.026 L 46.68 29.866 L 46.68 29.914 Q 46.952 30.218 47.104 30.674 Q 47.256 31.13 47.256 31.546 Q 47.256 32.266 46.968 32.754 Q 46.68 33.242 46.216 33.538 Q 45.752 33.834 45.192 33.986 Q 44.632 34.138 44.104 34.186 Q 43.464 34.25 43.2 34.458 Q 42.936 34.666 42.936 34.89 Q 42.936 35.178 43.256 35.33 Q 43.576 35.482 44.08 35.578 Q 44.584 35.674 45.16 35.794 Q 45.736 35.914 46.24 36.122 Q 46.744 36.33 47.064 36.706 Q 47.384 37.082 47.384 37.706 Q 47.384 38.394 46.936 38.978 Q 46.488 39.562 45.608 39.922 Q 44.728 40.282 43.448 40.282 Q 42.296 40.282 41.608 40.002 Q 40.92 39.722 40.616 39.282 Q 40.312 38.842 40.312 38.362 Q 40.312 37.594 40.904 37.122 Q 41.496 36.65 42.248 36.41 L 42.248 36.346 Q 42.04 36.218 41.856 35.986 Q 41.672 35.754 41.672 35.386 Q 41.672 34.986 41.88 34.746 Q 42.088 34.506 42.416 34.354 Q 42.744 34.202 43.064 34.09 L 43.064 33.994 Q 42.44 33.722 41.976 33.226 Q 41.512 32.73 41.512 31.818 Q 41.512 30.986 41.912 30.354 Q 42.312 29.722 43.008 29.37 Q 43.704 29.018 44.568 29.018 Q 45.144 29.018 45.44 29.074 Q 45.736 29.13 46.024 29.21 Z M 46.232 38.298 L 46.232 38.298 Q 46.232 37.818 45.832 37.522 Q 45.432 37.226 44.84 37.05 Q 44.248 36.874 43.648 36.77 Q 43.048 36.666 42.632 36.586 Q 42.232 36.842 41.896 37.17 Q 41.56 37.498 41.56 38.122 Q 41.56 38.762 42.056 39.242 Q 42.552 39.722 43.768 39.722 Q 44.92 39.722 45.576 39.298 Q 46.232 38.874 46.232 38.298 Z M 45.832 31.37 L 45.832 31.37 Q 45.832 30.57 45.528 30.034 Q 45.224 29.498 44.52 29.498 Q 43.832 29.498 43.384 30.074 Q 42.936 30.65 42.936 31.818 Q 42.936 32.65 43.224 33.17 Q 43.512 33.69 44.2 33.69 Q 45 33.69 45.416 33.018 Q 45.832 32.346 45.832 31.37 Z " fill="black" /><path d="M 50.901 35.708 L 50.901 35.708 L 50.901 38.81 Q 50.901 39.146 50.968 39.325 Q 51.035 39.504 51.226 39.566 Q 51.416 39.628 51.786 39.628 L 51.786 40.042 L 48.963 40.042 L 48.963 39.628 Q 49.322 39.628 49.501 39.566 Q 49.68 39.504 49.736 39.32 Q 49.792 39.135 49.792 38.788 L 49.792 35.394 Q 49.792 35.08 49.674 34.974 Q 49.557 34.868 49.299 34.868 Q 49.176 34.868 49.081 34.879 Q 48.986 34.89 48.986 34.89 L 48.986 34.464 L 50.453 34.196 L 50.867 34.196 L 50.867 35.114 L 50.946 35.114 Q 51.416 34.688 51.886 34.425 Q 52.357 34.162 52.995 34.162 Q 53.522 34.162 53.852 34.431 Q 54.182 34.7 54.362 35.092 L 54.418 35.092 Q 55.437 34.162 56.378 34.162 Q 57.139 34.162 57.582 34.632 Q 58.024 35.103 58.024 36.122 L 58.024 38.586 Q 58.024 38.967 58.069 39.196 Q 58.114 39.426 58.293 39.527 Q 58.472 39.628 58.875 39.628 L 58.875 40.042 L 56.064 40.042 L 56.064 39.628 Q 56.478 39.628 56.663 39.521 Q 56.848 39.415 56.893 39.185 Q 56.938 38.956 56.938 38.586 L 56.938 36.256 Q 56.938 35.551 56.652 35.271 Q 56.366 34.991 55.918 34.991 Q 55.538 34.991 55.157 35.22 Q 54.776 35.45 54.485 35.674 L 54.485 38.586 Q 54.485 39 54.535 39.23 Q 54.586 39.46 54.782 39.544 Q 54.978 39.628 55.392 39.628 L 55.392 40.042 L 52.469 40.042 L 52.469 39.628 Q 52.894 39.628 53.09 39.544 Q 53.286 39.46 53.342 39.23 Q 53.398 39 53.398 38.586 L 53.398 36.223 Q 53.398 35.517 53.146 35.254 Q 52.894 34.991 52.458 34.991 Q 51.998 34.991 51.578 35.237 Q 51.158 35.484 50.901 35.708 Z " fill="black" /></g></g></g><circle cx="-7.993605777301127e-15" cy="-8.817456953860943e-15" r="2.6999999999999997" style="stroke:black;fill:black;stroke-width:2.0;stroke-dasharray:-;" /><g><g><g><path d="M 19.834 -42.742 L 19.834 -42.742 L 19.738 -41.926 L 18.346 -42.086 L 18.346 -42.038 Q 18.618 -41.734 18.77 -41.278 Q 18.922 -40.822 18.922 -40.406 Q 18.922 -39.686 18.634 -39.198 Q 18.346 -38.71 17.882 -38.414 Q 17.418 -38.118 16.858 -37.966 Q 16.298 -37.814 15.77 -37.766 Q 15.13 -37.702 14.866 -37.494 Q 14.602 -37.286 14.602 -37.062 Q 14.602 -36.774 14.922 -36.622 Q 15.242 -36.47 15.746 -36.374 Q 16.25 -36.278 16.826 -36.158 Q 17.402 -36.038 17.906 -35.83 Q 18.41 -35.622 18.73 -35.246 Q 19.05 -34.87 19.05 -34.246 Q 19.05 -33.558 18.602 -32.974 Q 18.154 -32.39 17.274 -32.03 Q 16.394 -31.67 15.114 -31.67 Q 13.962 -31.67 13.274 -31.95 Q 12.586 -32.23 12.282 -32.67 Q 11.978 -33.11 11.978 -33.59 Q 11.978 -34.358 12.57 -34.83 Q 13.162 -35.302 13.914 -35.542 L 13.914 -35.606 Q 13.706 -35.734 13.522 -35.966 Q 13.338 -36.198 13.338 -36.566 Q 13.338 -36.966 13.546 -37.206 Q 13.754 -37.446 14.082 -37.598 Q 14.41 -37.75 14.73 -37.862 L 14.73 -37.958 Q 14.106 -38.23 13.642 -38.726 Q 13.178 -39.222 13.178 -40.134 Q 13.178 -40.966 13.578 -41.598 Q 13.978 -42.23 14.674 -42.582 Q 15.37 -42.934 16.234 -42.934 Q 16.81 -42.934 17.106 -42.878 Q 17.402 -42.822 17.69 -42.742 Z M 17.898 -33.654 L 17.898 -33.654 Q 17.898 -34.134 17.498 -34.43 Q 17.098 -34.726 16.506 -34.902 Q 15.914 -35.078 15.314 -35.182 Q 14.714 -35.286 14.298 -35.366 Q 13.898 -35.11 13.562 -34.782 Q 13.226 -34.454 13.226 -33.83 Q 13.226 -33.19 13.722 -32.71 Q 14.218 -32.23 15.434 -32.23 Q 16.586 -32.23 17.242 -32.654 Q 17.898 -33.078 17.898 -33.654 Z M 17.498 -40.582 L 17.498 -40.582 Q 17.498 -41.382 17.194 -41.918 Q 16.89 -42.454 16.186 -42.454 Q 15.498 -42.454 15.05 -41.878 Q 14.602 -41.302 14.602 -40.134 Q 14.602 -39.302 14.89 -38.782 Q 15.178 -38.262 15.866 -38.262 Q 16.666 -38.262 17.082 -38.934 Q 17.498 -39.606 17.498 -40.582 Z " fill="black" /><path d="M 22.566 -36.245 L 22.566 -36.245 L 22.566 -33.142 Q 22.566 -32.806 22.634 -32.627 Q 22.701 -32.448 22.891 -32.386 Q 23.082 -32.325 23.451 -32.325 L 23.451 -31.91 L 20.629 -31.91 L 20.629 -32.325 Q 20.987 -32.325 21.166 -32.386 Q 21.346 -32.448 21.402 -32.633 Q 21.458 -32.818 21.458 -33.165 L 21.458 -36.558 Q 21.458 -36.872 21.34 -36.978 Q 21.222 -37.085 20.965 -37.085 Q 20.842 -37.085 20.746 -37.074 Q 20.651 -37.062 20.651 -37.062 L 20.651 -37.488 L 22.118 -37.757 L 22.533 -37.757 L 22.533 -36.838 L 22.611 -36.838 Q 23.082 -37.264 23.552 -37.527 Q 24.022 -37.79 24.661 -37.79 Q 25.187 -37.79 25.518 -37.522 Q 25.848 -37.253 26.027 -36.861 L 26.083 -36.861 Q 27.102 -37.79 28.043 -37.79 Q 28.805 -37.79 29.247 -37.32 Q 29.69 -36.85 29.69 -35.83 L 29.69 -33.366 Q 29.69 -32.986 29.734 -32.756 Q 29.779 -32.526 29.958 -32.426 Q 30.138 -32.325 30.541 -32.325 L 30.541 -31.91 L 27.73 -31.91 L 27.73 -32.325 Q 28.144 -32.325 28.329 -32.431 Q 28.514 -32.538 28.558 -32.767 Q 28.603 -32.997 28.603 -33.366 L 28.603 -35.696 Q 28.603 -36.402 28.318 -36.682 Q 28.032 -36.962 27.584 -36.962 Q 27.203 -36.962 26.822 -36.732 Q 26.442 -36.502 26.15 -36.278 L 26.15 -33.366 Q 26.15 -32.952 26.201 -32.722 Q 26.251 -32.493 26.447 -32.409 Q 26.643 -32.325 27.058 -32.325 L 27.058 -31.91 L 24.134 -31.91 L 24.134 -32.325 Q 24.56 -32.325 24.756 -32.409 Q 24.952 -32.493 25.008 -32.722 Q 25.064 -32.952 25.064 -33.366 L 25.064 -35.73 Q 25.064 -36.435 24.812 -36.698 Q 24.56 -36.962 24.123 -36.962 Q 23.664 -36.962 23.244 -36.715 Q 22.824 -36.469 22.566 -36.245 Z " fill="black" /><path d="M 34.234 -42.886 L 34.234 -42.886 L 34.586 -42.886 L 33.834 -39.814 Q 33.722 -39.398 33.602 -38.814 Q 33.482 -38.23 33.482 -37.686 Q 33.482 -37.062 33.738 -36.606 Q 33.994 -36.15 34.73 -36.15 Q 35.546 -36.15 36.138 -36.542 Q 36.73 -36.934 37.106 -37.542 Q 37.482 -38.15 37.666 -38.822 Q 37.85 -39.494 37.85 -40.054 Q 37.85 -40.47 37.706 -40.774 Q 37.562 -41.078 37.362 -41.318 Q 37.162 -41.558 37.018 -41.782 Q 36.874 -42.006 36.874 -42.262 Q 36.874 -42.582 37.05 -42.758 Q 37.226 -42.934 37.482 -42.934 Q 38.026 -42.934 38.362 -42.39 Q 38.698 -41.846 38.698 -40.998 Q 38.698 -40.262 38.514 -39.454 Q 38.33 -38.646 37.962 -37.878 Q 37.594 -37.11 37.05 -36.486 Q 36.506 -35.862 35.802 -35.494 Q 35.098 -35.126 34.234 -35.126 Q 33.434 -35.126 32.986 -35.446 Q 32.538 -35.766 32.354 -36.294 Q 32.17 -36.822 32.17 -37.43 Q 32.17 -38.006 32.282 -38.614 Q 32.394 -39.222 32.522 -39.718 L 32.842 -40.934 Q 32.874 -41.062 32.938 -41.318 Q 33.002 -41.574 33.002 -41.814 Q 33.002 -42.022 32.922 -42.166 Q 32.842 -42.31 32.618 -42.31 Q 32.426 -42.31 32.154 -42.286 Q 31.882 -42.262 31.882 -42.262 L 31.882 -42.71 Z " fill="black" /><path d="M 40.333 -34.162 L 40.333 -34.162 L 40.333 -34.206 Q 39.941 -34.442 39.666 -34.817 Q 39.392 -35.192 39.392 -35.786 Q 39.392 -36.413 39.694 -36.861 Q 39.997 -37.309 40.512 -37.55 Q 41.027 -37.79 41.666 -37.79 Q 42.259 -37.79 42.634 -37.662 Q 43.01 -37.533 43.01 -37.533 L 44.656 -37.578 L 44.656 -36.917 L 43.48 -36.939 L 43.48 -36.861 Q 43.626 -36.659 43.782 -36.385 Q 43.939 -36.11 43.939 -35.618 Q 43.939 -35.058 43.642 -34.649 Q 43.346 -34.24 42.847 -34.022 Q 42.349 -33.803 41.722 -33.803 Q 41.15 -33.803 40.646 -34.005 Q 40.568 -33.859 40.462 -33.59 Q 40.355 -33.322 40.355 -33.131 Q 40.355 -32.896 40.63 -32.784 Q 40.904 -32.672 41.722 -32.672 Q 42.326 -32.672 42.842 -32.644 Q 43.357 -32.616 43.738 -32.487 Q 44.118 -32.358 44.326 -32.073 Q 44.533 -31.787 44.533 -31.261 Q 44.533 -30.656 44.225 -30.236 Q 43.917 -29.816 43.413 -29.558 Q 42.909 -29.301 42.321 -29.183 Q 41.733 -29.066 41.162 -29.066 Q 40.344 -29.066 39.896 -29.267 Q 39.448 -29.469 39.274 -29.782 Q 39.101 -30.096 39.101 -30.421 Q 39.101 -30.734 39.319 -31.042 Q 39.538 -31.35 40.019 -31.798 L 40.019 -31.854 Q 39.739 -32 39.549 -32.246 Q 39.358 -32.493 39.358 -32.728 Q 39.358 -33.064 39.655 -33.439 Q 39.952 -33.814 40.333 -34.162 Z M 40.389 -31.742 L 40.389 -31.742 Q 40.198 -31.418 40.131 -31.227 Q 40.064 -31.037 40.064 -30.846 Q 40.064 -30.331 40.484 -30.068 Q 40.904 -29.805 41.789 -29.805 Q 42.517 -29.805 42.965 -29.984 Q 43.413 -30.163 43.626 -30.415 Q 43.838 -30.667 43.838 -30.902 Q 43.838 -31.205 43.642 -31.373 Q 43.446 -31.541 43.144 -31.614 Q 42.842 -31.686 42.506 -31.709 Q 42.17 -31.731 41.878 -31.731 Q 41.8 -31.731 41.755 -31.731 Q 41.038 -31.731 40.775 -31.737 Q 40.512 -31.742 40.389 -31.742 Z M 41.598 -37.298 L 41.598 -37.298 Q 41.117 -37.298 40.82 -36.973 Q 40.523 -36.648 40.523 -35.853 Q 40.523 -35.069 40.837 -34.666 Q 41.15 -34.262 41.722 -34.262 Q 42.024 -34.262 42.27 -34.386 Q 42.517 -34.509 42.668 -34.834 Q 42.819 -35.158 42.819 -35.752 Q 42.819 -36.514 42.489 -36.906 Q 42.158 -37.298 41.598 -37.298 Z " fill="black" /><path d="M 45.642 -33.949 L 45.642 -33.949 L 46 -33.949 Q 46.146 -33.299 46.347 -32.941 Q 46.549 -32.582 46.868 -32.442 Q 47.187 -32.302 47.646 -32.302 Q 48.173 -32.302 48.458 -32.476 Q 48.744 -32.65 48.744 -33.086 Q 48.744 -33.378 48.604 -33.574 Q 48.464 -33.77 48.156 -33.949 Q 47.848 -34.128 47.333 -34.363 Q 46.806 -34.621 46.431 -34.845 Q 46.056 -35.069 45.86 -35.371 Q 45.664 -35.674 45.664 -36.133 Q 45.664 -36.939 46.207 -37.365 Q 46.75 -37.79 47.568 -37.79 Q 48.061 -37.79 48.402 -37.667 Q 48.744 -37.544 48.946 -37.454 L 48.968 -37.454 L 49.147 -37.734 L 49.461 -37.734 L 49.483 -35.875 L 49.091 -35.875 Q 48.878 -36.738 48.498 -37.034 Q 48.117 -37.331 47.624 -37.331 Q 47.109 -37.331 46.846 -37.107 Q 46.582 -36.883 46.582 -36.525 Q 46.582 -36.234 46.762 -36.043 Q 46.941 -35.853 47.271 -35.69 Q 47.602 -35.528 48.061 -35.304 Q 48.576 -35.058 48.968 -34.794 Q 49.36 -34.531 49.584 -34.201 Q 49.808 -33.87 49.808 -33.378 Q 49.808 -32.784 49.494 -32.426 Q 49.181 -32.067 48.688 -31.916 Q 48.195 -31.765 47.658 -31.765 Q 47.109 -31.765 46.806 -31.877 Q 46.504 -31.989 46.246 -32.09 L 46.202 -32.09 L 45.922 -31.798 L 45.664 -31.798 Z " fill="black" /></g></g></g><circle cx="144.0" cy="-72.0" r="2.6999999999999997" style="stroke:black;fill:black;stroke-width:2.0;stroke-dasharray:-;" /><circle cx="198.0" cy="-72.0" r="2.6999999999999997" style="stroke:black;fill:white;stroke-width:2.0;stroke-dasharray:-;" /><g><g><g><path d="M 205.772 -66.744 L 205.772 -66.744 L 205.772 -77.256 L 208.46 -77.256 Q 210.94 -77.256 212.236 -75.904 Q 213.532 -74.552 213.532 -72.04 Q 213.532 -69.528 212.244 -68.136 Q 210.956 -66.744 208.524 -66.744 Z M 207.148 -67.864 L 207.148 -67.864 L 208.364 -67.864 Q 210.252 -67.864 211.188 -68.96 Q 212.124 -70.056 212.124 -72.04 Q 212.124 -74.024 211.188 -75.08 Q 210.252 -76.136 208.364 -76.136 L 207.148 -76.136 Z " fill="black" /></g></g></g><g><g><g><path d="M 118.611 -5.44 L 118.611 -5.44 L 118.515 -4.624 L 117.123 -4.784 L 117.123 -4.736 Q 117.395 -4.432 117.547 -3.976 Q 117.699 -3.52 117.699 -3.104 Q 117.699 -2.384 117.411 -1.896 Q 117.123 -1.408 116.659 -1.112 Q 116.195 -0.816 115.635 -0.664 Q 115.075 -0.512 114.547 -0.464 Q 113.907 -0.4 113.643 -0.192 Q 113.379 0.016 113.379 0.24 Q 113.379 0.528 113.699 0.68 Q 114.019 0.832 114.523 0.928 Q 115.027 1.024 115.603 1.144 Q 116.179 1.264 116.683 1.472 Q 117.187 1.68 117.507 2.056 Q 117.827 2.432 117.827 3.056 Q 117.827 3.744 117.379 4.328 Q 116.931 4.912 116.051 5.272 Q 115.171 5.632 113.891 5.632 Q 112.739 5.632 112.051 5.352 Q 111.363 5.072 111.059 4.632 Q 110.755 4.192 110.755 3.712 Q 110.755 2.944 111.347 2.472 Q 111.939 2 112.691 1.76 L 112.691 1.696 Q 112.483 1.568 112.299 1.336 Q 112.115 1.104 112.115 0.736 Q 112.115 0.336 112.323 0.096 Q 112.531 -0.144 112.859 -0.296 Q 113.187 -0.448 113.507 -0.56 L 113.507 -0.656 Q 112.883 -0.928 112.419 -1.424 Q 111.955 -1.92 111.955 -2.832 Q 111.955 -3.664 112.355 -4.296 Q 112.755 -4.928 113.451 -5.28 Q 114.147 -5.632 115.011 -5.632 Q 115.587 -5.632 115.883 -5.576 Q 116.179 -5.52 116.467 -5.44 Z M 116.675 3.648 L 116.675 3.648 Q 116.675 3.168 116.275 2.872 Q 115.875 2.576 115.283 2.4 Q 114.691 2.224 114.091 2.12 Q 113.491 2.016 113.075 1.936 Q 112.675 2.192 112.339 2.52 Q 112.003 2.848 112.003 3.472 Q 112.003 4.112 112.499 4.592 Q 112.995 5.072 114.211 5.072 Q 115.363 5.072 116.019 4.648 Q 116.675 4.224 116.675 3.648 Z M 116.275 -3.28 L 116.275 -3.28 Q 116.275 -4.08 115.971 -4.616 Q 115.667 -5.152 114.963 -5.152 Q 114.275 -5.152 113.827 -4.576 Q 113.379 -4 113.379 -2.832 Q 113.379 -2 113.667 -1.48 Q 113.955 -0.96 114.643 -0.96 Q 115.443 -0.96 115.859 -1.632 Q 116.275 -2.304 116.275 -3.28 Z " fill="black" /><path d="M 125.454 5.246 L 125.454 5.246 L 123.942 5.448 L 123.539 5.448 L 123.539 4.664 L 123.461 4.664 Q 123.091 4.978 122.626 5.235 Q 122.162 5.493 121.579 5.493 Q 120.918 5.493 120.454 5.134 Q 119.989 4.776 119.742 4.149 Q 119.496 3.522 119.496 2.726 Q 119.496 1.73 119.882 1.007 Q 120.269 0.285 120.913 -0.102 Q 121.557 -0.488 122.318 -0.488 Q 122.979 -0.488 123.517 -0.186 L 123.517 -1.63 Q 123.517 -2.034 123.433 -2.162 Q 123.349 -2.291 122.99 -2.291 Q 122.912 -2.291 122.783 -2.274 Q 122.654 -2.258 122.654 -2.258 L 122.654 -2.683 L 124.144 -2.974 L 124.603 -2.974 L 124.603 4.126 Q 124.603 4.563 124.726 4.692 Q 124.85 4.821 125.152 4.821 L 125.454 4.821 Z M 123.517 4.149 L 123.517 4.149 L 123.517 0.878 Q 123.394 0.565 123.108 0.318 Q 122.822 0.072 122.296 0.072 Q 121.546 0.072 121.064 0.582 Q 120.582 1.091 120.582 2.267 Q 120.582 3.466 121.002 4.02 Q 121.422 4.574 122.184 4.574 Q 122.542 4.574 122.839 4.474 Q 123.136 4.373 123.517 4.149 Z " fill="black" /><path d="M 126.642 3.354 L 126.642 3.354 L 127 3.354 Q 127.146 4.003 127.347 4.362 Q 127.549 4.72 127.868 4.86 Q 128.187 5 128.646 5 Q 129.173 5 129.458 4.826 Q 129.744 4.653 129.744 4.216 Q 129.744 3.925 129.604 3.729 Q 129.464 3.533 129.156 3.354 Q 128.848 3.174 128.333 2.939 Q 127.806 2.682 127.431 2.458 Q 127.056 2.234 126.86 1.931 Q 126.664 1.629 126.664 1.17 Q 126.664 0.363 127.207 -0.062 Q 127.75 -0.488 128.568 -0.488 Q 129.061 -0.488 129.402 -0.365 Q 129.744 -0.242 129.946 -0.152 L 129.968 -0.152 L 130.147 -0.432 L 130.461 -0.432 L 130.483 1.427 L 130.091 1.427 Q 129.878 0.565 129.498 0.268 Q 129.117 -0.029 128.624 -0.029 Q 128.109 -0.029 127.846 0.195 Q 127.582 0.419 127.582 0.778 Q 127.582 1.069 127.762 1.259 Q 127.941 1.45 128.271 1.612 Q 128.602 1.774 129.061 1.998 Q 129.576 2.245 129.968 2.508 Q 130.36 2.771 130.584 3.102 Q 130.808 3.432 130.808 3.925 Q 130.808 4.518 130.494 4.877 Q 130.181 5.235 129.688 5.386 Q 129.195 5.538 128.658 5.538 Q 128.109 5.538 127.806 5.426 Q 127.504 5.314 127.246 5.213 L 127.202 5.213 L 126.922 5.504 L 126.664 5.504 Z " fill="black" /></g></g></g></svg>