<svg xmlns="http://www.w3.org/2000/svg" xmlns:xlink="http://www.w3.org/1999/xlink" xml:lang="en" height="256.5464pt" width="276.17188634059943pt" viewBox="-103.62959999999998 -90.90639999999998 276.17188634059943 256.5464"><path d="M 0.0,-0.0 L 0.0,45.0 L 77.94228634059947,-0.0 L 0.0,-45.0 L 0.0,-0.0 M 77.94228634059947,-0.0" style="stroke:black;fill:none;stroke-width:2.0;stroke-dasharray:-;stroke-linecap:round;stroke-linejoin:round;" /><path d="M 6.142785792574934,22.5 L 13.342785792574933,22.5" style="stroke:black;fill:none;stroke-width:2.0;stroke-dasharray:-;stroke-linecap:round;stroke-linejoin:round;" /><path d="M 6.142785792574934,-22.5 L 13.342785792574933,-22.5" style="stroke:black;fill:none;stroke-width:2.0;stroke-dasharray:-;stroke-linecap:round;stroke-linejoin:round;" /><path d="M 9.742785792574933,-26.099999999999998 L 9.742785792574933,-18.900000000000002" style="stroke:black;fill:none;stroke-width:2.0;stroke-dasharray:-;stroke-linecap:round;stroke-linejoin:round;" /><path d="M 0.0,-22.5 L -36.0,-22.500000000000004 L -72.0,-22.500000000000007" style="stroke:black;fill:none;stroke-width:2.0;stroke-dasharray:-;stroke-linecap:round;stroke-linejoin:round;" /><path d="M 77.94228634059947,-0.0 L 95.94228634059947,-0.0 L 113.94228634059947,-0.0" style="stroke:black;fill:none;stroke-width:2.0;stroke-dasharray:-;stroke-linecap:round;stroke-linejoin:round;" /><path d="M 146.94228634059948,29.999999999999996 L 146.94228634059948,15.000000000000004 L 131.94228634059948,15.000000000000004 L 131.94228634059948,-14.999999999999998 L 146.94228634059948,-14.999999999999998 L 146.94228634059948,-29.999999999999996" style="stroke:black;fill:none;stroke-width:2.0;stroke-dasharray:-;stroke-linecap:round;stroke-linejoin:round;" /><path d="M 137.94228634059948,15.0 L 131.94228634059948,15.000000000000004" style="stroke:black;fill:none;stroke-width:2.0;stroke-dasharray:-;stroke-linecap:round;stroke-linejoin:round;" /><path d="M 144.94228634059948 15.000000000000004 L 137.94228634059948 19.500000000000004 L 137.94228634059948 10.500000000000004 Z" style="stroke:black;fill:black;stroke-linecap:butt;stroke-linejoin:miter;" /><path d="M 128.94228634059945,12.000000000000005 L 128.94228634059945,-12.0" style="stroke:black;fill:none;stroke-width:2.0;stroke-dasharray:-;stroke-linecap:round;stroke-linejoin:round;" /><path d="M 113.94228634059947,-0.0 L 128.94228634059945,-0.0" style="stroke:black;fill:none;stroke-width:2.0;stroke-dasharray:-;stroke-linecap:round;stroke-linejoin:round;" /><path d="M 146.94228634059948,29.999999999999996 L 146.94228634059948,48.0 L 146.94228634059948,66.0" style="stroke:black;fill:none;stroke-width:2.0;stroke-dasharray:-;stroke-linecap:round;stroke-linejoin:round;" /><path d="M 146.94228634059948,66.0 L 146.94228634059948,83.99999999999999 L 155.94228634059948,87.0 L 137.94228634059948,92.99999999999999 L 155.94228634059948,99.0 L 137.94228634059948,105.0 L 155.94228634059948,110.99999999999999 L 137.94228634059945,117.0 L 146.94228634059948,119.99999999999999 L 146.94228634059948,138.0" style="stroke:black;fill:none;stroke-width:2.0;stroke-dasharray:-;stroke-linecap:round;stroke-linejoin:round;" /><path d="M 146.94228634059948,138.0 L 146.94228634059948,152.4 L 137.94228634059948,152.4 L 155.94228634059948,152.4 M 140.6422863405995,156.72 L 153.24228634059946,156.72 M 145.1422863405995,161.03999999999996 L 148.74228634059946,161.03999999999996" style="stroke:black;fill:none;stroke-width:2.0;stroke-dasharray:-;stroke-linecap:round;stroke-linejoin:round;" /><path d="M 146.94228634059948,66.0 L 56.94228634059948,65.99999999999999 L -33.05771365940052,65.99999999999997" style="stroke:black;fill:none;stroke-width:2.0;stroke-dasharray:-;stroke-linecap:round;stroke-linejoin:round;" /><path d="M -33.05771365940052,65.99999999999997 L -33.05771365940052,44.249999999999986 L -33.05771365940051,22.5" style="stroke:black;fill:none;stroke-width:2.0;stroke-dasharray:-;stroke-linecap:round;stroke-linejoin:round;" /><path d="M -33.05771365940051,22.5 L -16.528856829700256,22.5 L 0.0,22.5" style="stroke:black;fill:none;stroke-width:2.0;stroke-dasharray:-;stroke-linecap:round;stroke-linejoin:round;" /><path d="M 146.94228634059948,-29.999999999999996 L 146.94228634059948,-48.0 L 146.94228634059948,-66.0" style="stroke:black;fill:none;stroke-width:2.0;stroke-dasharray:-;stroke-linecap:round;stroke-linejoin:round;" /><g><g><g><path d="M 40.945 -51.96 L 40.945 -51.96 L 36.673 -51.96 L 36.769 -52.44 Q 37.361 -52.44 37.705 -52.6 Q 38.049 -52.76 38.049 -53.352 Q 38.049 -53.544 38.041 -53.712 Q 38.033 -53.88 38.017 -54.024 L 37.857 -55.464 L 33.729 -55.464 L 32.609 -53.768 Q 32.449 -53.544 32.329 -53.32 Q 32.209 -53.096 32.209 -52.872 Q 32.209 -52.616 32.409 -52.528 Q 32.609 -52.44 33.137 -52.44 L 33.025 -51.96 L 29.681 -51.96 L 29.793 -52.44 Q 30.241 -52.44 30.545 -52.584 Q 30.849 -52.728 31.217 -53.168 Q 31.585 -53.608 32.177 -54.52 L 37.713 -62.536 L 38.385 -62.536 L 39.649 -53.864 Q 39.809 -53.08 40.065 -52.76 Q 40.321 -52.44 41.041 -52.44 Z M 37.793 -56.104 L 37.793 -56.104 L 37.265 -60.728 L 37.217 -60.728 L 34.113 -56.104 Z " fill="black" /><path d="M 46.407 -48.6 L 46.407 -48.6 L 42.61 -48.6 L 42.61 -49.003 Q 43.417 -49.003 43.68 -49.166 Q 43.943 -49.328 43.943 -49.754 L 43.943 -54.637 Q 43.943 -54.939 43.854 -55.074 Q 43.764 -55.208 43.529 -55.208 Q 43.35 -55.208 43.042 -55.158 Q 42.734 -55.107 42.51 -55.051 L 42.51 -55.499 L 44.582 -56.07 L 45.063 -56.07 L 45.063 -49.754 Q 45.063 -49.328 45.349 -49.166 Q 45.634 -49.003 46.407 -49.003 Z " fill="black" /></g></g></g><circle cx="-72.0" cy="-22.500000000000007" r="2.6999999999999997" style="stroke:black;fill:white;stroke-width:2.0;stroke-dasharray:-;" /><g><g><g><path d="M -97.169 -20.98 L -97.169 -20.98 L -92.801 -27.54 Q -92.577 -27.86 -92.441 -28.132 Q -92.305 -28.404 -92.305 -28.596 Q -92.305 -28.836 -92.513 -28.924 Q -92.721 -29.012 -93.265 -29.012 L -93.233 -29.492 L -89.777 -29.492 L -89.809 -29.012 Q -90.241 -29.012 -90.545 -28.884 Q -90.849 -28.756 -91.161 -28.396 Q -91.473 -28.036 -91.969 -27.3 L -97.841 -18.9 L -98.369 -18.9 L -99.265 -27.556 Q -99.361 -28.356 -99.617 -28.684 Q -99.873 -29.012 -100.513 -29.012 L -100.481 -29.492 L -96.561 -29.492 L -96.609 -29.012 Q -97.217 -29.012 -97.569 -28.772 Q -97.921 -28.532 -97.889 -27.988 Q -97.889 -27.908 -97.865 -27.7 Q -97.841 -27.492 -97.841 -27.412 L -97.361 -22.852 L -97.249 -20.98 Z " fill="black" /><path d="M -90.854 -21.466 L -90.854 -21.466 L -90.854 -20.257 L -90.786 -20.257 Q -90.338 -20.884 -89.986 -21.214 Q -89.633 -21.545 -89.218 -21.545 Q -88.502 -21.545 -88.502 -20.839 Q -88.502 -20.447 -88.675 -20.29 Q -88.849 -20.134 -89.05 -20.134 Q -89.252 -20.134 -89.414 -20.246 Q -89.577 -20.358 -89.689 -20.47 Q -89.801 -20.582 -89.857 -20.582 Q -90.036 -20.582 -90.322 -20.279 Q -90.607 -19.977 -90.831 -19.596 L -90.831 -16.908 Q -90.831 -16.359 -90.59 -16.197 Q -90.35 -16.034 -89.734 -16.034 L -89.734 -15.62 L -92.78 -15.62 L -92.78 -16.034 Q -92.399 -16.034 -92.22 -16.102 Q -92.041 -16.169 -91.985 -16.342 Q -91.929 -16.516 -91.929 -16.83 L -91.929 -20.078 Q -91.929 -20.436 -91.99 -20.615 Q -92.052 -20.794 -92.399 -20.794 Q -92.556 -20.794 -92.668 -20.783 Q -92.78 -20.772 -92.78 -20.772 L -92.78 -21.186 L -91.268 -21.466 Z " fill="black" /><path d="M -82.89 -17.289 L -82.89 -17.289 L -82.622 -17.076 Q -82.857 -16.65 -83.148 -16.292 Q -83.439 -15.934 -83.865 -15.721 Q -84.29 -15.508 -84.94 -15.508 Q -85.646 -15.508 -86.256 -15.827 Q -86.866 -16.146 -87.236 -16.807 Q -87.606 -17.468 -87.606 -18.476 Q -87.606 -19.473 -87.258 -20.145 Q -86.911 -20.817 -86.318 -21.158 Q -85.724 -21.5 -84.996 -21.5 Q -83.988 -21.5 -83.322 -20.8 Q -82.655 -20.1 -82.633 -18.711 L -86.575 -18.711 Q -86.575 -17.95 -86.29 -17.451 Q -86.004 -16.953 -85.556 -16.712 Q -85.108 -16.471 -84.615 -16.471 Q -84.111 -16.471 -83.809 -16.578 Q -83.506 -16.684 -83.299 -16.874 Q -83.092 -17.065 -82.89 -17.289 Z M -86.575 -19.226 L -86.575 -19.226 L -83.831 -19.226 Q -83.831 -19.674 -83.977 -20.072 Q -84.122 -20.47 -84.402 -20.722 Q -84.682 -20.974 -85.119 -20.974 Q -85.758 -20.974 -86.133 -20.526 Q -86.508 -20.078 -86.575 -19.226 Z " fill="black" /><path d="M -81.524 -21.354 L -81.524 -21.354 L -80.628 -21.354 Q -80.628 -21.948 -80.544 -22.362 Q -80.46 -22.777 -80.247 -23.191 Q -79.99 -23.594 -79.626 -23.846 Q -79.262 -24.098 -78.59 -24.098 Q -78.018 -24.098 -77.615 -23.88 Q -77.212 -23.662 -77.212 -23.236 Q -77.212 -22.967 -77.363 -22.827 Q -77.514 -22.687 -77.716 -22.687 Q -77.962 -22.687 -78.102 -22.827 Q -78.242 -22.967 -78.466 -23.202 Q -78.623 -23.426 -78.746 -23.51 Q -78.87 -23.594 -79.038 -23.594 Q -79.351 -23.594 -79.452 -23.292 Q -79.553 -22.99 -79.553 -22.25 L -79.553 -21.354 L -78.097 -21.354 L -78.097 -20.806 L -79.553 -20.806 L -79.553 -17.11 Q -79.553 -16.65 -79.452 -16.421 Q -79.351 -16.191 -79.082 -16.113 Q -78.814 -16.034 -78.321 -16.034 L -78.321 -15.62 L -81.625 -15.62 L -81.625 -16.034 Q -81.199 -16.034 -80.986 -16.113 Q -80.774 -16.191 -80.701 -16.421 Q -80.628 -16.65 -80.628 -17.11 L -80.628 -20.806 L -81.524 -20.806 Z " fill="black" /></g></g></g><g><g><g><path d="M 159.825 3.576 L 159.825 3.576 L 155.553 3.576 L 155.649 3.096 Q 156.241 3.096 156.553 2.984 Q 156.865 2.872 157.025 2.56 Q 157.185 2.248 157.297 1.672 L 158.721 -5.24 L 158.657 -5.24 L 153.281 3.576 L 152.929 3.576 L 150.993 -5.224 L 150.929 -5.224 L 149.601 1.24 Q 149.441 2.056 149.465 2.456 Q 149.489 2.856 149.777 2.976 Q 150.065 3.096 150.673 3.096 L 150.577 3.576 L 146.881 3.576 L 146.977 3.096 Q 147.601 3.096 147.937 2.976 Q 148.273 2.856 148.465 2.456 Q 148.657 2.056 148.817 1.24 L 150.081 -4.984 Q 150.209 -5.592 150.161 -5.904 Q 150.113 -6.216 149.817 -6.336 Q 149.521 -6.456 148.881 -6.456 L 148.977 -6.936 L 152.177 -6.936 L 153.905 1.16 L 153.969 1.16 L 158.849 -6.936 L 161.873 -6.936 L 161.777 -6.456 Q 161.217 -6.456 160.889 -6.336 Q 160.561 -6.216 160.385 -5.904 Q 160.209 -5.592 160.081 -5 L 158.721 1.672 Q 158.545 2.552 158.809 2.824 Q 159.073 3.096 159.921 3.096 Z " fill="black" /><path d="M 166.712 6.936 L 166.712 6.936 L 162.915 6.936 L 162.915 6.533 Q 163.721 6.533 163.985 6.37 Q 164.248 6.208 164.248 5.782 L 164.248 0.899 Q 164.248 0.597 164.158 0.462 Q 164.069 0.328 163.833 0.328 Q 163.654 0.328 163.346 0.378 Q 163.038 0.429 162.814 0.485 L 162.814 0.037 L 164.886 -0.534 L 165.368 -0.534 L 165.368 5.782 Q 165.368 6.208 165.653 6.37 Q 165.939 6.533 166.712 6.533 Z " fill="black" /></g></g></g><g><g><g><path d="M 127.441 97.272 L 127.441 97.272 Q 127.441 98.12 127.121 98.696 Q 126.801 99.272 126.289 99.64 Q 125.777 100.008 125.193 100.208 Q 124.609 100.408 124.081 100.504 L 124.081 100.584 Q 124.369 100.776 124.625 101.168 Q 124.881 101.56 125.257 102.296 Q 125.633 103.032 126.289 104.28 Q 126.561 104.76 126.889 104.928 Q 127.217 105.096 127.761 105.096 L 127.665 105.576 L 125.233 105.576 Q 124.785 104.584 124.481 103.92 Q 124.177 103.256 123.953 102.808 Q 123.729 102.36 123.561 102.008 Q 123.393 101.656 123.201 101.288 Q 123.025 100.952 122.817 100.848 Q 122.609 100.744 122.177 100.744 L 121.841 100.744 L 121.249 103.592 Q 121.121 104.248 121.161 104.576 Q 121.201 104.904 121.521 105 Q 121.841 105.096 122.529 105.096 L 122.449 105.576 L 118.033 105.576 L 118.129 105.096 Q 118.721 105.096 119.041 105 Q 119.361 104.904 119.529 104.584 Q 119.697 104.264 119.825 103.592 L 121.233 96.728 Q 121.329 96.28 121.281 96.024 Q 121.233 95.768 120.953 95.656 Q 120.673 95.544 120.033 95.544 L 120.129 95.064 L 123.889 95.064 Q 125.569 95.064 126.505 95.584 Q 127.441 96.104 127.441 97.272 Z M 122.849 95.736 L 122.849 95.736 L 121.953 100.152 L 122.449 100.168 Q 123.409 100.136 124.185 99.856 Q 124.961 99.576 125.409 98.968 Q 125.857 98.36 125.857 97.336 Q 125.857 96.904 125.673 96.528 Q 125.489 96.152 125.041 95.92 Q 124.593 95.688 123.793 95.688 Q 123.489 95.688 123.305 95.696 Q 123.121 95.704 122.849 95.736 Z " fill="black" /><path d="M 133.336 108.936 L 133.336 108.936 L 129.539 108.936 L 129.539 108.533 Q 130.345 108.533 130.609 108.37 Q 130.872 108.208 130.872 107.782 L 130.872 102.899 Q 130.872 102.597 130.782 102.462 Q 130.693 102.328 130.457 102.328 Q 130.278 102.328 129.97 102.378 Q 129.662 102.429 129.438 102.485 L 129.438 102.037 L 131.51 101.466 L 131.992 101.466 L 131.992 107.782 Q 131.992 108.208 132.277 108.37 Q 132.563 108.533 133.336 108.533 Z " fill="black" /></g></g></g><circle cx="146.94228634059948" cy="66.0" r="2.6999999999999997" style="stroke:black;fill:black;stroke-width:2.0;stroke-dasharray:-;" /><circle cx="146.94228634059948" cy="-66.0" r="2.6999999999999997" style="stroke:black;fill:white;stroke-width:2.0;stroke-dasharray:-;" /><g><g><g><path d="M 134.162 -77.902 L 134.162 -77.902 L 135.474 -84.206 Q 135.618 -84.83 135.61 -85.19 Q 135.602 -85.55 135.314 -85.694 Q 135.026 -85.838 134.29 -85.838 L 134.386 -86.318 L 138.818 -86.318 L 138.722 -85.838 Q 138.018 -85.838 137.666 -85.694 Q 137.314 -85.55 137.17 -85.19 Q 137.026 -84.83 136.898 -84.206 L 135.586 -77.838 Q 135.538 -77.582 135.506 -77.374 Q 135.474 -77.166 135.474 -76.99 Q 135.474 -76.542 135.738 -76.414 Q 136.002 -76.286 136.754 -76.286 L 136.658 -75.806 L 132.29 -75.806 L 132.386 -76.286 Q 133.042 -76.286 133.37 -76.398 Q 133.698 -76.51 133.858 -76.854 Q 134.018 -77.198 134.162 -77.902 Z " fill="black" /><path d="M 141.159 -80.812 L 141.159 -80.812 L 141.159 -77.34 L 141.215 -77.34 Q 141.54 -77.721 141.982 -78.023 Q 142.425 -78.326 143.052 -78.326 Q 143.634 -78.326 144.11 -77.973 Q 144.586 -77.62 144.872 -76.998 Q 145.157 -76.377 145.157 -75.57 Q 145.157 -74.495 144.765 -73.767 Q 144.373 -73.039 143.696 -72.675 Q 143.018 -72.311 142.156 -72.311 Q 141.652 -72.311 141.226 -72.395 Q 140.801 -72.479 140.504 -72.591 Q 140.207 -72.703 140.073 -72.759 L 140.073 -79.479 Q 140.073 -79.894 139.983 -80.011 Q 139.893 -80.129 139.513 -80.129 Q 139.389 -80.129 139.283 -80.112 Q 139.177 -80.095 139.177 -80.095 L 139.177 -80.521 L 140.7 -80.812 Z M 141.159 -76.758 L 141.159 -76.758 L 141.159 -73.398 Q 141.293 -73.151 141.585 -73.006 Q 141.876 -72.86 142.357 -72.86 Q 142.951 -72.86 143.309 -73.179 Q 143.668 -73.498 143.83 -74.03 Q 143.993 -74.562 143.993 -75.19 Q 143.993 -75.761 143.864 -76.282 Q 143.735 -76.802 143.41 -77.127 Q 143.085 -77.452 142.514 -77.452 Q 142.212 -77.452 141.937 -77.334 Q 141.663 -77.217 141.461 -77.054 Q 141.26 -76.892 141.159 -76.758 Z " fill="black" /><path d="M 149.245 -72.86 L 149.245 -72.86 L 149.245 -72.446 L 146.401 -72.446 L 146.401 -72.86 Q 146.793 -72.86 146.966 -72.944 Q 147.14 -73.028 147.185 -73.213 Q 147.229 -73.398 147.229 -73.7 L 147.229 -77.082 Q 147.229 -77.463 147.106 -77.542 Q 146.983 -77.62 146.692 -77.62 Q 146.546 -77.62 146.457 -77.609 Q 146.367 -77.598 146.367 -77.598 L 146.367 -78.046 L 147.868 -78.292 L 148.327 -78.292 L 148.327 -73.7 Q 148.327 -73.375 148.377 -73.19 Q 148.428 -73.006 148.624 -72.933 Q 148.82 -72.86 149.245 -72.86 Z M 147.767 -80.767 L 147.767 -80.767 Q 148.092 -80.767 148.31 -80.543 Q 148.529 -80.319 148.529 -80.028 Q 148.529 -79.759 148.31 -79.535 Q 148.092 -79.311 147.767 -79.311 Q 147.453 -79.311 147.246 -79.535 Q 147.039 -79.759 147.039 -80.028 Q 147.039 -80.319 147.246 -80.543 Q 147.453 -80.767 147.767 -80.767 Z " fill="black" /><path d="M 153.725 -73.151 L 153.725 -73.151 L 153.647 -73.151 Q 153.266 -72.838 152.807 -72.602 Q 152.348 -72.367 151.81 -72.367 Q 151.105 -72.367 150.729 -72.793 Q 150.354 -73.218 150.354 -73.823 Q 150.354 -74.338 150.595 -74.686 Q 150.836 -75.033 151.222 -75.251 Q 151.609 -75.47 152.057 -75.604 Q 152.505 -75.738 152.919 -75.817 Q 153.333 -75.895 153.613 -75.962 L 153.613 -76.545 Q 153.613 -77.295 153.317 -77.581 Q 153.02 -77.866 152.449 -77.866 Q 152.101 -77.866 151.95 -77.777 Q 151.799 -77.687 151.76 -77.486 Q 151.721 -77.284 151.709 -76.959 Q 151.698 -76.713 151.564 -76.562 Q 151.429 -76.41 151.172 -76.41 Q 150.925 -76.41 150.752 -76.562 Q 150.578 -76.713 150.578 -77.004 Q 150.578 -77.351 150.847 -77.654 Q 151.116 -77.956 151.614 -78.141 Q 152.113 -78.326 152.785 -78.326 Q 153.793 -78.326 154.246 -77.861 Q 154.7 -77.396 154.7 -76.466 L 154.7 -73.722 Q 154.7 -73.353 154.784 -73.246 Q 154.868 -73.14 155.047 -73.14 Q 155.237 -73.14 155.377 -73.218 Q 155.517 -73.297 155.641 -73.442 L 155.887 -73.207 Q 155.305 -72.378 154.521 -72.378 Q 154.084 -72.378 153.921 -72.586 Q 153.759 -72.793 153.725 -73.151 Z M 153.613 -73.566 L 153.613 -73.566 L 153.613 -75.537 Q 153.098 -75.402 152.605 -75.24 Q 152.113 -75.078 151.793 -74.798 Q 151.474 -74.518 151.474 -74.014 Q 151.474 -73.577 151.726 -73.325 Q 151.978 -73.073 152.37 -73.073 Q 152.605 -73.073 152.936 -73.179 Q 153.266 -73.286 153.613 -73.566 Z " fill="black" /><path d="M 156.66 -74.484 L 156.66 -74.484 L 157.018 -74.484 Q 157.164 -73.834 157.365 -73.476 Q 157.567 -73.118 157.886 -72.978 Q 158.205 -72.838 158.665 -72.838 Q 159.191 -72.838 159.477 -73.011 Q 159.762 -73.185 159.762 -73.622 Q 159.762 -73.913 159.622 -74.109 Q 159.482 -74.305 159.174 -74.484 Q 158.866 -74.663 158.351 -74.898 Q 157.825 -75.156 157.449 -75.38 Q 157.074 -75.604 156.878 -75.906 Q 156.682 -76.209 156.682 -76.668 Q 156.682 -77.474 157.225 -77.9 Q 157.769 -78.326 158.586 -78.326 Q 159.079 -78.326 159.421 -78.202 Q 159.762 -78.079 159.964 -77.99 L 159.986 -77.99 L 160.165 -78.27 L 160.479 -78.27 L 160.501 -76.41 L 160.109 -76.41 Q 159.897 -77.273 159.516 -77.57 Q 159.135 -77.866 158.642 -77.866 Q 158.127 -77.866 157.864 -77.642 Q 157.601 -77.418 157.601 -77.06 Q 157.601 -76.769 157.78 -76.578 Q 157.959 -76.388 158.289 -76.226 Q 158.62 -76.063 159.079 -75.839 Q 159.594 -75.593 159.986 -75.33 Q 160.378 -75.066 160.602 -74.736 Q 160.826 -74.406 160.826 -73.913 Q 160.826 -73.319 160.513 -72.961 Q 160.199 -72.602 159.706 -72.451 Q 159.213 -72.3 158.676 -72.3 Q 158.127 -72.3 157.825 -72.412 Q 157.522 -72.524 157.265 -72.625 L 157.22 -72.625 L 156.94 -72.334 L 156.682 -72.334 Z " fill="black" /></g></g></g></svg>