<svg xmlns="http://www.w3.org/2000/svg" xmlns:xlink="http://www.w3.org/1999/xlink" xml:lang="en" height="385.71199999999993pt" width="619.5863999999999pt" viewBox="-276.50879999999995 -118.072 619.5863999999999 385.71199999999993"><circle cx="-227.99999999999994" cy="-12.000000000000021" r="18.0" style="stroke:black;fill:none;stroke-width:2.0;stroke-dasharray:-;" /><path d="M 0.0,59.99999999999999 L 0.0,45.0 L -14.999999999999998,45.0 L -14.999999999999998,14.999999999999998 L 0.0,14.999999999999998 L 0.0,-0.0" style="stroke:black;fill:none;stroke-width:2.0;stroke-dasharray:-;stroke-linecap:round;stroke-linejoin:round;" /><path d="M -9.0,45.0 L -14.999999999999998,45.0" style="stroke:black;fill:none;stroke-width:2.0;stroke-dasharray:-;stroke-linecap:round;stroke-linejoin:round;" /><path d="M -2.0 45.0 L -9.0 49.5 L -9.0 40.5 Z" style="stroke:black;fill:black;stroke-linecap:butt;stroke-linejoin:miter;" /><path d="M -17.999999999999996,42.0 L -17.999999999999996,17.999999999999996" style="stroke:black;fill:none;stroke-width:2.0;stroke-dasharray:-;stroke-linecap:round;stroke-linejoin:round;" /><path d="M -32.99999999999999,29.999999999999996 L -17.999999999999996,29.999999999999996" style="stroke:black;fill:none;stroke-width:2.0;stroke-dasharray:-;stroke-linecap:round;stroke-linejoin:round;" /><path d="M 0.0,59.99999999999999 L -1.6532731788489267e-15,69.0 L -3.3065463576978533e-15,78.0" style="stroke:black;fill:none;stroke-width:2.0;stroke-dasharray:-;stroke-linecap:round;stroke-linejoin:round;" /><path d="M -3.3065463576978533e-15,78.0 L 26.999999999999996,78.0 L 54.0,78.0" style="stroke:black;fill:none;stroke-width:2.0;stroke-dasharray:-;stroke-linecap:round;stroke-linejoin:round;" /><path d="M 54.0,78.0 L 54.0,87.0 L 54.0,96.0" style="stroke:black;fill:none;stroke-width:2.0;stroke-dasharray:-;stroke-linecap:round;stroke-linejoin:round;" /><path d="M 54.0,156.0 L 54.0,141.0 L 39.00000000000001,141.0 L 39.00000000000001,110.99999999999999 L 54.0,110.99999999999999 L 54.0,96.0" style="stroke:black;fill:none;stroke-width:2.0;stroke-dasharray:-;stroke-linecap:round;stroke-linejoin:round;" /><path d="M 45.0,141.0 L 39.00000000000001,141.0" style="stroke:black;fill:none;stroke-width:2.0;stroke-dasharray:-;stroke-linecap:round;stroke-linejoin:round;" /><path d="M 52.0 141.0 L 45.0 145.5 L 45.0 136.5 Z" style="stroke:black;fill:black;stroke-linecap:butt;stroke-linejoin:miter;" /><path d="M 36.0,138.0 L 36.0,114.0" style="stroke:black;fill:none;stroke-width:2.0;stroke-dasharray:-;stroke-linecap:round;stroke-linejoin:round;" /><path d="M 21.000000000000007,126.0 L 36.0,126.0" style="stroke:black;fill:none;stroke-width:2.0;stroke-dasharray:-;stroke-linecap:round;stroke-linejoin:round;" /><path d="M 54.0,156.0 L 54.0,170.4 L 45.0,170.4 L 63.0,170.4 M 47.699999999999996,174.72 L 60.300000000000004,174.72 M 52.199999999999996,179.03999999999996 L 55.800000000000004,179.03999999999996" style="stroke:black;fill:none;stroke-width:2.0;stroke-dasharray:-;stroke-linecap:round;stroke-linejoin:round;" /><path d="M 21.000000000000007,126.0 L -87.0,125.99999999999999 L -194.99999999999997,125.99999999999997" style="stroke:black;fill:none;stroke-width:2.0;stroke-dasharray:-;stroke-linecap:round;stroke-linejoin:round;" /><path d="M -227.99999999999994,95.99999999999997 L -227.99999999999994,110.99999999999997 L -212.99999999999997,110.99999999999997 L -212.99999999999997,140.99999999999997 L -227.99999999999994,140.99999999999997 L -227.99999999999994,155.99999999999994" style="stroke:black;fill:none;stroke-width:2.0;stroke-dasharray:-;stroke-linecap:round;stroke-linejoin:round;" /><path d="M -212.99999999999997,140.99999999999997 L -218.99999999999994,140.99999999999997" style="stroke:black;fill:none;stroke-width:2.0;stroke-dasharray:-;stroke-linecap:round;stroke-linejoin:round;" /><path d="M -225.99999999999994 140.99999999999997 L -218.99999999999994 136.49999999999997 L -218.99999999999994 145.49999999999997 Z" style="stroke:black;fill:black;stroke-linecap:butt;stroke-linejoin:miter;" /><path d="M -210.0,113.99999999999996 L -210.0,137.99999999999997" style="stroke:black;fill:none;stroke-width:2.0;stroke-dasharray:-;stroke-linecap:round;stroke-linejoin:round;" /><path d="M -210.0,125.99999999999997 L -194.99999999999997,125.99999999999997" style="stroke:black;fill:none;stroke-width:2.0;stroke-dasharray:-;stroke-linecap:round;stroke-linejoin:round;" /><path d="M -227.99999999999994,155.99999999999994 L -227.99999999999994,170.39999999999998 L -236.99999999999994,170.39999999999998 L -218.99999999999994,170.39999999999998 M -234.29999999999995,174.71999999999994 L -221.69999999999996,174.71999999999994 M -229.79999999999995,179.03999999999994 L -226.19999999999996,179.03999999999994" style="stroke:black;fill:none;stroke-width:2.0;stroke-dasharray:-;stroke-linecap:round;stroke-linejoin:round;" /><path d="M -227.99999999999994,95.99999999999997 L -227.99999999999994,86.99999999999997 L -227.99999999999994,77.99999999999997" style="stroke:black;fill:none;stroke-width:2.0;stroke-dasharray:-;stroke-linecap:round;stroke-linejoin:round;" /><path d="M -227.99999999999994,77.99999999999997 L -227.99999999999994,50.99999999999998 L -227.99999999999994,23.99999999999998" style="stroke:black;fill:none;stroke-width:2.0;stroke-dasharray:-;stroke-linecap:round;stroke-linejoin:round;" /><path d="M -227.99999999999994,23.99999999999998 L -227.99999999999994,5.999999999999979 L -227.99999999999994,5.999999999999979 M -227.99999999999994,-30.00000000000002 L -227.99999999999994,-30.00000000000002 L -227.99999999999994,-48.00000000000002" style="stroke:black;fill:none;stroke-width:2.0;stroke-dasharray:-;stroke-linecap:round;stroke-linejoin:round;" /><path d="M -227.99999999999994,-12.000000000000021 L -227.99999999999994,-21.00000000000002" style="stroke:black;fill:none;stroke-width:2.0;stroke-dasharray:-;stroke-linecap:round;stroke-linejoin:round;" /><path d="M -227.99999999999994 -5.000000000000021 L -230.69999999999993 -12.000000000000021 L -225.29999999999995 -12.000000000000021 Z" style="stroke:black;fill:black;stroke-linecap:butt;stroke-linejoin:miter;" /><path d="M -227.99999999999994,77.99999999999997 L -200.99999999999994,77.99999999999997 L -173.99999999999994,77.99999999999997" style="stroke:black;fill:none;stroke-width:2.0;stroke-dasharray:-;stroke-linecap:round;stroke-linejoin:round;" /><path d="M -173.99999999999994,77.99999999999997 L -173.99999999999994,101.99999999999997 L -173.99999999999994,125.99999999999997" style="stroke:black;fill:none;stroke-width:2.0;stroke-dasharray:-;stroke-linecap:round;stroke-linejoin:round;" /><path d="M 54.0,78.0 L 81.0,78.0 L 108.0,78.0" style="stroke:black;fill:none;stroke-width:2.0;stroke-dasharray:-;stroke-linecap:round;stroke-linejoin:round;" /><path d="M 108.0,78.0 L 108.0,69.0 L 108.0,59.99999999999999" style="stroke:black;fill:none;stroke-width:2.0;stroke-dasharray:-;stroke-linecap:round;stroke-linejoin:round;" /><path d="M 108.0,-0.0 L 108.0,14.999999999999995 L 123.0,14.999999999999995 L 123.0,45.0 L 108.0,45.0 L 108.0,59.99999999999999" style="stroke:black;fill:none;stroke-width:2.0;stroke-dasharray:-;stroke-linecap:round;stroke-linejoin:round;" /><path d="M 123.0,45.0 L 117.0,45.0" style="stroke:black;fill:none;stroke-width:2.0;stroke-dasharray:-;stroke-linecap:round;stroke-linejoin:round;" /><path d="M 110.0 45.0 L 117.0 40.5 L 117.0 49.5 Z" style="stroke:black;fill:black;stroke-linecap:butt;stroke-linejoin:miter;" /><path d="M 126.0,18.0 L 126.0,42.0" style="stroke:black;fill:none;stroke-width:2.0;stroke-dasharray:-;stroke-linecap:round;stroke-linejoin:round;" /><path d="M 126.0,29.999999999999996 L 141.0,29.999999999999996" style="stroke:black;fill:none;stroke-width:2.0;stroke-dasharray:-;stroke-linecap:round;stroke-linejoin:round;" /><path d="M -32.99999999999999,29.999999999999996 L -41.99999999999999,29.999999999999996 L -50.99999999999999,29.999999999999993" style="stroke:black;fill:none;stroke-width:2.0;stroke-dasharray:-;stroke-linecap:round;stroke-linejoin:round;" /><path d="M 141.0,29.999999999999996 L 149.99999999999997,29.999999999999996 L 158.99999999999997,29.999999999999996" style="stroke:black;fill:none;stroke-width:2.0;stroke-dasharray:-;stroke-linecap:round;stroke-linejoin:round;" /><path d="M 0.0,-0.0 L 5.51091059616309e-16,-9.0 L 1.102182119232618e-15,-18.0" style="stroke:black;fill:none;stroke-width:2.0;stroke-dasharray:-;stroke-linecap:round;stroke-linejoin:round;" /><path d="M 1.102182119232618e-15,-18.0 L 1.6532731788489267e-15,-27.0 L 2.204364238465236e-15,-36.0" style="stroke:black;fill:none;stroke-width:2.0;stroke-dasharray:-;stroke-linecap:round;stroke-linejoin:round;" /><path d="M 2.204364238465236e-15,-36.0 L 2.204364238465236e-15,-50.99999999999999 L -14.999999999999996,-50.99999999999999 L -14.999999999999996,-81.0 L 2.204364238465236e-15,-81.0 L 2.204364238465236e-15,-96.0" style="stroke:black;fill:none;stroke-width:2.0;stroke-dasharray:-;stroke-linecap:round;stroke-linejoin:round;" /><path d="M -5.9999999999999964,-81.0 L 2.204364238465236e-15,-81.0" style="stroke:black;fill:none;stroke-width:2.0;stroke-dasharray:-;stroke-linecap:round;stroke-linejoin:round;" /><path d="M -12.999999999999996 -81.0 L -5.999999999999996 -85.5 L -5.999999999999997 -76.5 Z" style="stroke:black;fill:black;stroke-linecap:butt;stroke-linejoin:miter;" /><path d="M -17.999999999999996,-53.99999999999999 L -17.999999999999996,-78.0" style="stroke:black;fill:none;stroke-width:2.0;stroke-dasharray:-;stroke-linecap:round;stroke-linejoin:round;" /><path d="M -32.99999999999999,-66.0 L -17.999999999999996,-66.0" style="stroke:black;fill:none;stroke-width:2.0;stroke-dasharray:-;stroke-linecap:round;stroke-linejoin:round;" /><path d="M 108.0,-0.0 L 108.0,-9.0 L 108.0,-18.0" style="stroke:black;fill:none;stroke-width:2.0;stroke-dasharray:-;stroke-linecap:round;stroke-linejoin:round;" /><path d="M 108.0,-18.0 L 108.0,-27.0 L 108.0,-36.0" style="stroke:black;fill:none;stroke-width:2.0;stroke-dasharray:-;stroke-linecap:round;stroke-linejoin:round;" /><path d="M 108.0,-96.0 L 108.0,-81.0 L 123.0,-81.0 L 123.0,-50.99999999999999 L 108.0,-50.99999999999999 L 108.0,-36.0" style="stroke:black;fill:none;stroke-width:2.0;stroke-dasharray:-;stroke-linecap:round;stroke-linejoin:round;" /><path d="M 108.0,-81.0 L 114.0,-81.0" style="stroke:black;fill:none;stroke-width:2.0;stroke-dasharray:-;stroke-linecap:round;stroke-linejoin:round;" /><path d="M 121.0 -81.0 L 114.0 -76.5 L 114.0 -85.5 Z" style="stroke:black;fill:black;stroke-linecap:butt;stroke-linejoin:miter;" /><path d="M 126.0,-78.0 L 126.0,-53.99999999999999" style="stroke:black;fill:none;stroke-width:2.0;stroke-dasharray:-;stroke-linecap:round;stroke-linejoin:round;" /><path d="M 126.0,-66.0 L 141.0,-66.0" style="stroke:black;fill:none;stroke-width:2.0;stroke-dasharray:-;stroke-linecap:round;stroke-linejoin:round;" /><path d="M 1.102182119232618e-15,-18.0 L -27.0,-18.000000000000004 L -54.0,-18.000000000000007" style="stroke:black;fill:none;stroke-width:2.0;stroke-dasharray:-;stroke-linecap:round;stroke-linejoin:round;" /><path d="M -54.0,-18.000000000000007 L -54.0,-42.0 L -54.0,-66.0" style="stroke:black;fill:none;stroke-width:2.0;stroke-dasharray:-;stroke-linecap:round;stroke-linejoin:round;" /><path d="M -54.0,-66.0 L -43.5,-66.0 L -32.99999999999999,-66.0" style="stroke:black;fill:none;stroke-width:2.0;stroke-dasharray:-;stroke-linecap:round;stroke-linejoin:round;" /><path d="M -54.0,-66.0 L -72.0,-66.0 L -90.0,-66.0" style="stroke:black;fill:none;stroke-width:2.0;stroke-dasharray:-;stroke-linecap:round;stroke-linejoin:round;" /><path d="M -123.0,-96.00000000000001 L -123.0,-81.0 L -108.0,-81.0 L -108.0,-51.0 L -123.0,-51.0 L -123.0,-36.00000000000001" style="stroke:black;fill:none;stroke-width:2.0;stroke-dasharray:-;stroke-linecap:round;stroke-linejoin:round;" /><path d="M -123.0,-81.0 L -117.0,-81.0" style="stroke:black;fill:none;stroke-width:2.0;stroke-dasharray:-;stroke-linecap:round;stroke-linejoin:round;" /><path d="M -110.0 -81.0 L -117.0 -76.5 L -117.0 -85.5 Z" style="stroke:black;fill:black;stroke-linecap:butt;stroke-linejoin:miter;" /><path d="M -105.0,-78.00000000000001 L -105.0,-54.0" style="stroke:black;fill:none;stroke-width:2.0;stroke-dasharray:-;stroke-linecap:round;stroke-linejoin:round;" /><path d="M -105.0,-66.0 L -90.0,-66.0" style="stroke:black;fill:none;stroke-width:2.0;stroke-dasharray:-;stroke-linecap:round;stroke-linejoin:round;" /><path d="M 108.0,-18.0 L 135.0,-18.0 L 162.0,-18.0" style="stroke:black;fill:none;stroke-width:2.0;stroke-dasharray:-;stroke-linecap:round;stroke-linejoin:round;" /><path d="M 162.0,-18.0 L 162.0,-41.99999999999999 L 162.0,-66.0" style="stroke:black;fill:none;stroke-width:2.0;stroke-dasharray:-;stroke-linecap:round;stroke-linejoin:round;" /><path d="M 162.0,-66.0 L 151.5,-66.0 L 141.0,-66.0" style="stroke:black;fill:none;stroke-width:2.0;stroke-dasharray:-;stroke-linecap:round;stroke-linejoin:round;" /><path d="M 162.0,-66.0 L 180.0,-66.0 L 198.0,-66.0" style="stroke:black;fill:none;stroke-width:2.0;stroke-dasharray:-;stroke-linecap:round;stroke-linejoin:round;" /><path d="M 230.99999999999997,-36.0 L 230.99999999999997,-50.99999999999999 L 216.0,-50.99999999999999 L 216.0,-81.0 L 230.99999999999997,-81.0 L 230.99999999999997,-96.0" style="stroke:black;fill:none;stroke-width:2.0;stroke-dasharray:-;stroke-linecap:round;stroke-linejoin:round;" /><path d="M 225.0,-81.0 L 230.99999999999997,-81.0" style="stroke:black;fill:none;stroke-width:2.0;stroke-dasharray:-;stroke-linecap:round;stroke-linejoin:round;" /><path d="M 218.0 -81.0 L 225.0 -85.5 L 225.0 -76.5 Z" style="stroke:black;fill:black;stroke-linecap:butt;stroke-linejoin:miter;" /><path d="M 213.0,-53.99999999999999 L 213.0,-78.0" style="stroke:black;fill:none;stroke-width:2.0;stroke-dasharray:-;stroke-linecap:round;stroke-linejoin:round;" /><path d="M 198.0,-66.0 L 213.0,-66.0" style="stroke:black;fill:none;stroke-width:2.0;stroke-dasharray:-;stroke-linecap:round;stroke-linejoin:round;" /><path d="M -123.0,-36.00000000000001 L -123.00000000000001,71.99999999999999 L -123.00000000000003,180.0" style="stroke:black;fill:none;stroke-width:2.0;stroke-dasharray:-;stroke-linecap:round;stroke-linejoin:round;" /><path d="M -123.00000000000003,180.0 L -123.00000000000003,195.0 L -108.00000000000003,195.0 L -108.00000000000003,225.0 L -123.00000000000003,225.0 L -123.00000000000003,239.99999999999997" style="stroke:black;fill:none;stroke-width:2.0;stroke-dasharray:-;stroke-linecap:round;stroke-linejoin:round;" /><path d="M -108.00000000000003,225.0 L -114.00000000000003,225.0" style="stroke:black;fill:none;stroke-width:2.0;stroke-dasharray:-;stroke-linecap:round;stroke-linejoin:round;" /><path d="M -121.00000000000003 225.0 L -114.00000000000003 220.5 L -114.00000000000003 229.5 Z" style="stroke:black;fill:black;stroke-linecap:butt;stroke-linejoin:miter;" /><path d="M -105.00000000000003,198.0 L -105.00000000000003,222.0" style="stroke:black;fill:none;stroke-width:2.0;stroke-dasharray:-;stroke-linecap:round;stroke-linejoin:round;" /><path d="M -105.00000000000003,210.0 L -90.00000000000003,210.0" style="stroke:black;fill:none;stroke-width:2.0;stroke-dasharray:-;stroke-linecap:round;stroke-linejoin:round;" /><path d="M -123.00000000000003,239.99999999999997 L -123.00000000000003,254.39999999999998 L -132.00000000000003,254.39999999999998 L -114.00000000000003,254.39999999999998 M -129.3,258.71999999999997 L -116.70000000000003,258.71999999999997 M -124.80000000000003,263.03999999999996 L -121.20000000000003,263.03999999999996" style="stroke:black;fill:none;stroke-width:2.0;stroke-dasharray:-;stroke-linecap:round;stroke-linejoin:round;" /><path d="M -90.00000000000003,210.0 L -81.00000000000003,210.0 L -72.00000000000003,210.0" style="stroke:black;fill:none;stroke-width:2.0;stroke-dasharray:-;stroke-linecap:round;stroke-linejoin:round;" /><path d="M -72.00000000000003,210.0 L -72.00000000000003,194.99999999999997 L -72.00000000000003,180.0" style="stroke:black;fill:none;stroke-width:2.0;stroke-dasharray:-;stroke-linecap:round;stroke-linejoin:round;" /><path d="M -72.00000000000003,180.0 L -72.00000000000003,171.0 L -72.00000000000003,162.0" style="stroke:black;fill:none;stroke-width:2.0;stroke-dasharray:-;stroke-linecap:round;stroke-linejoin:round;" /><path d="M -72.00000000000003,162.0 L -97.50000000000003,162.0 L -123.00000000000003,162.0" style="stroke:black;fill:none;stroke-width:2.0;stroke-dasharray:-;stroke-linecap:round;stroke-linejoin:round;" /><path d="M 230.99999999999997,-36.0 L 230.99999999999997,18.0 L 230.99999999999994,72.0" style="stroke:black;fill:none;stroke-width:2.0;stroke-dasharray:-;stroke-linecap:round;stroke-linejoin:round;" /><path d="M 230.99999999999994,72.0 L 248.99999999999994,72.0 L 266.99999999999994,72.0" style="stroke:black;fill:none;stroke-width:2.0;stroke-dasharray:-;stroke-linecap:round;stroke-linejoin:round;" /><path d="M 230.99999999999994,72.0 L 230.99999999999994,126.0 L 230.99999999999991,180.0" style="stroke:black;fill:none;stroke-width:2.0;stroke-dasharray:-;stroke-linecap:round;stroke-linejoin:round;" /><path d="M 230.99999999999991,239.99999999999997 L 230.99999999999991,225.0 L 215.99999999999991,225.0 L 215.99999999999991,195.0 L 230.99999999999991,195.0 L 230.99999999999991,180.0" style="stroke:black;fill:none;stroke-width:2.0;stroke-dasharray:-;stroke-linecap:round;stroke-linejoin:round;" /><path d="M 221.99999999999991,225.0 L 215.99999999999991,225.0" style="stroke:black;fill:none;stroke-width:2.0;stroke-dasharray:-;stroke-linecap:round;stroke-linejoin:round;" /><path d="M 228.99999999999991 225.0 L 221.99999999999991 229.5 L 221.99999999999991 220.5 Z" style="stroke:black;fill:black;stroke-linecap:butt;stroke-linejoin:miter;" /><path d="M 212.99999999999991,222.0 L 212.99999999999991,198.0" style="stroke:black;fill:none;stroke-width:2.0;stroke-dasharray:-;stroke-linecap:round;stroke-linejoin:round;" /><path d="M 197.99999999999994,210.0 L 212.99999999999991,210.0" style="stroke:black;fill:none;stroke-width:2.0;stroke-dasharray:-;stroke-linecap:round;stroke-linejoin:round;" /><path d="M 230.99999999999991,239.99999999999997 L 230.99999999999991,254.39999999999998 L 221.99999999999991,254.39999999999998 L 239.99999999999991,254.39999999999998 M 224.69999999999993,258.71999999999997 L 237.2999999999999,258.71999999999997 M 229.19999999999993,263.03999999999996 L 232.7999999999999,263.03999999999996" style="stroke:black;fill:none;stroke-width:2.0;stroke-dasharray:-;stroke-linecap:round;stroke-linejoin:round;" /><path d="M 197.99999999999994,210.0 L 53.99999999999995,209.99999999999994 L -90.00000000000003,209.99999999999994" style="stroke:black;fill:none;stroke-width:2.0;stroke-dasharray:-;stroke-linecap:round;stroke-linejoin:round;" /><path d="M -227.99999999999994,-48.00000000000002 L -227.99999999999994,-72.0 L -227.99999999999994,-96.0" style="stroke:black;fill:none;stroke-width:2.0;stroke-dasharray:-;stroke-linecap:round;stroke-linejoin:round;" /><path d="M -245.99999999999994,-96.0 L 1.5000000000000107,-96.0 L 248.99999999999997,-96.0" style="stroke:black;fill:none;stroke-width:3;stroke-dasharray:-;stroke-linecap:round;stroke-linejoin:round;" /><g><g><g><path d="M 12.883 33.576 L 12.883 33.576 L 8.611 33.576 L 8.707 33.096 Q 9.299 33.096 9.611 32.984 Q 9.923 32.872 10.083 32.56 Q 10.243 32.248 10.355 31.672 L 11.779 24.76 L 11.715 24.76 L 6.339 33.576 L 5.987 33.576 L 4.051 24.776 L 3.987 24.776 L 2.659 31.24 Q 2.499 32.056 2.523 32.456 Q 2.547 32.856 2.835 32.976 Q 3.123 33.096 3.731 33.096 L 3.635 33.576 L -0.061 33.576 L 0.035 33.096 Q 0.659 33.096 0.995 32.976 Q 1.331 32.856 1.523 32.456 Q 1.715 32.056 1.875 31.24 L 3.139 25.016 Q 3.267 24.408 3.219 24.096 Q 3.171 23.784 2.875 23.664 Q 2.579 23.544 1.939 23.544 L 2.035 23.064 L 5.235 23.064 L 6.963 31.16 L 7.027 31.16 L 11.907 23.064 L 14.931 23.064 L 14.835 23.544 Q 14.275 23.544 13.947 23.664 Q 13.619 23.784 13.443 24.096 Q 13.267 24.408 13.139 25 L 11.779 31.672 Q 11.603 32.552 11.867 32.824 Q 12.131 33.096 12.979 33.096 Z " fill="black" /><path d="M 19.77 36.936 L 19.77 36.936 L 15.973 36.936 L 15.973 36.533 Q 16.779 36.533 17.042 36.37 Q 17.306 36.208 17.306 35.782 L 17.306 30.899 Q 17.306 30.597 17.216 30.462 Q 17.126 30.328 16.891 30.328 Q 16.712 30.328 16.404 30.378 Q 16.096 30.429 15.872 30.485 L 15.872 30.037 L 17.944 29.466 L 18.426 29.466 L 18.426 35.782 Q 18.426 36.208 18.711 36.37 Q 18.997 36.533 19.77 36.533 Z " fill="black" /></g></g></g><circle cx="54.0" cy="78.0" r="2.6999999999999997" style="stroke:black;fill:black;stroke-width:2.0;stroke-dasharray:-;" /><g><g><g><path d="M 60.387 129.503 L 60.387 129.503 L 56.115 129.503 L 56.211 129.023 Q 56.803 129.023 57.115 128.911 Q 57.427 128.799 57.587 128.487 Q 57.747 128.175 57.859 127.599 L 59.283 120.687 L 59.219 120.687 L 53.843 129.503 L 53.491 129.503 L 51.555 120.703 L 51.491 120.703 L 50.163 127.167 Q 50.003 127.983 50.027 128.383 Q 50.051 128.783 50.339 128.903 Q 50.627 129.023 51.235 129.023 L 51.139 129.503 L 47.443 129.503 L 47.539 129.023 Q 48.163 129.023 48.499 128.903 Q 48.835 128.783 49.027 128.383 Q 49.219 127.983 49.379 127.167 L 50.643 120.943 Q 50.771 120.335 50.723 120.023 Q 50.675 119.711 50.379 119.591 Q 50.083 119.471 49.443 119.471 L 49.539 118.991 L 52.739 118.991 L 54.467 127.087 L 54.531 127.087 L 59.411 118.991 L 62.435 118.991 L 62.339 119.471 Q 61.779 119.471 61.451 119.591 Q 61.123 119.711 60.947 120.023 Q 60.771 120.335 60.643 120.927 L 59.283 127.599 Q 59.107 128.479 59.371 128.751 Q 59.635 129.023 60.483 129.023 Z " fill="black" /><path d="M 67.274 132.863 L 67.274 132.863 L 63.477 132.863 L 63.477 132.46 Q 64.283 132.46 64.546 132.298 Q 64.81 132.135 64.81 131.71 L 64.81 126.826 Q 64.81 126.524 64.72 126.39 Q 64.63 126.255 64.395 126.255 Q 64.216 126.255 63.908 126.306 Q 63.6 126.356 63.376 126.412 L 63.376 125.964 L 65.448 125.393 L 65.93 125.393 L 65.93 131.71 Q 65.93 132.135 66.215 132.298 Q 66.501 132.46 67.274 132.46 Z " fill="black" /><path d="M 74.094 129.156 L 74.094 129.156 Q 74.094 129.895 73.938 130.59 Q 73.781 131.284 73.45 131.827 Q 73.12 132.37 72.605 132.69 Q 72.09 133.009 71.384 133.009 Q 70.667 133.009 70.152 132.701 Q 69.637 132.393 69.312 131.855 Q 68.987 131.318 68.836 130.618 Q 68.685 129.918 68.685 129.134 Q 68.685 127.969 69.021 127.129 Q 69.357 126.289 69.967 125.83 Q 70.578 125.37 71.406 125.37 Q 72.179 125.37 72.79 125.813 Q 73.4 126.255 73.747 127.101 Q 74.094 127.946 74.094 129.156 Z M 72.896 129.234 L 72.896 129.234 Q 72.896 127.476 72.515 126.653 Q 72.134 125.83 71.384 125.83 Q 70.645 125.83 70.258 126.653 Q 69.872 127.476 69.872 129.19 Q 69.872 130.881 70.27 131.704 Q 70.667 132.527 71.384 132.527 Q 72.112 132.527 72.504 131.698 Q 72.896 130.87 72.896 129.234 Z " fill="black" /></g></g></g><g><g><g><path d="M -240.109 129.498 L -240.109 129.498 L -244.381 129.498 L -244.285 129.018 Q -243.693 129.018 -243.381 128.906 Q -243.069 128.794 -242.909 128.482 Q -242.749 128.17 -242.637 127.594 L -241.213 120.682 L -241.277 120.682 L -246.653 129.498 L -247.005 129.498 L -248.941 120.698 L -249.005 120.698 L -250.333 127.162 Q -250.493 127.978 -250.469 128.378 Q -250.445 128.778 -250.157 128.898 Q -249.869 129.018 -249.261 129.018 L -249.357 129.498 L -253.053 129.498 L -252.957 129.018 Q -252.333 129.018 -251.997 128.898 Q -251.661 128.778 -251.469 128.378 Q -251.277 127.978 -251.117 127.162 L -249.853 120.938 Q -249.725 120.33 -249.773 120.018 Q -249.821 119.706 -250.117 119.586 Q -250.413 119.466 -251.053 119.466 L -250.957 118.986 L -247.757 118.986 L -246.029 127.082 L -245.965 127.082 L -241.085 118.986 L -238.061 118.986 L -238.157 119.466 Q -238.717 119.466 -239.045 119.586 Q -239.373 119.706 -239.549 120.018 Q -239.725 120.33 -239.853 120.922 L -241.213 127.594 Q -241.389 128.474 -241.125 128.746 Q -240.861 129.018 -240.013 129.018 Z " fill="black" /><path d="M -237.042 133.014 L -237.042 133.014 L -237.053 132.656 Q -236.213 132.555 -235.507 132.191 Q -234.802 131.827 -234.331 131.189 Q -233.861 130.55 -233.726 129.632 L -233.816 129.621 Q -234.23 129.99 -234.583 130.181 Q -234.936 130.371 -235.373 130.371 Q -236.347 130.371 -236.946 129.705 Q -237.546 129.038 -237.546 127.851 Q -237.546 126.653 -236.885 125.992 Q -236.224 125.331 -235.104 125.331 Q -234.23 125.331 -233.665 125.746 Q -233.099 126.16 -232.819 126.882 Q -232.539 127.605 -232.539 128.546 Q -232.539 130.091 -233.116 131.077 Q -233.693 132.062 -234.706 132.533 Q -235.72 133.003 -237.042 133.014 Z M -236.448 127.773 L -236.448 127.773 Q -236.448 128.613 -236.084 129.106 Q -235.72 129.598 -235.014 129.598 Q -234.656 129.598 -234.348 129.464 Q -234.04 129.33 -233.85 129.027 Q -233.659 128.725 -233.659 128.221 Q -233.659 127.112 -233.995 126.468 Q -234.331 125.824 -235.115 125.824 Q -235.698 125.824 -236.073 126.255 Q -236.448 126.686 -236.448 127.773 Z " fill="black" /></g></g></g><circle cx="-227.99999999999994" cy="77.99999999999997" r="2.6999999999999997" style="stroke:black;fill:black;stroke-width:2.0;stroke-dasharray:-;" /><g><g><g><path d="M -277.032 -10.593 L -277.032 -10.593 L -275.72 -16.897 Q -275.576 -17.521 -275.584 -17.881 Q -275.592 -18.241 -275.88 -18.385 Q -276.168 -18.529 -276.904 -18.529 L -276.808 -19.009 L -272.376 -19.009 L -272.472 -18.529 Q -273.176 -18.529 -273.528 -18.385 Q -273.88 -18.241 -274.024 -17.881 Q -274.168 -17.521 -274.296 -16.897 L -275.608 -10.529 Q -275.656 -10.273 -275.688 -10.065 Q -275.72 -9.857 -275.72 -9.681 Q -275.72 -9.233 -275.456 -9.105 Q -275.192 -8.977 -274.44 -8.977 L -274.536 -8.497 L -278.904 -8.497 L -278.808 -8.977 Q -278.152 -8.977 -277.824 -9.089 Q -277.496 -9.201 -277.336 -9.545 Q -277.176 -9.889 -277.032 -10.593 Z " fill="black" /><path d="M -270.035 -13.503 L -270.035 -13.503 L -270.035 -10.031 L -269.979 -10.031 Q -269.654 -10.412 -269.212 -10.714 Q -268.77 -11.017 -268.142 -11.017 Q -267.56 -11.017 -267.084 -10.664 Q -266.608 -10.311 -266.322 -9.69 Q -266.037 -9.068 -266.037 -8.262 Q -266.037 -7.186 -266.429 -6.458 Q -266.821 -5.73 -267.498 -5.366 Q -268.176 -5.002 -269.038 -5.002 Q -269.542 -5.002 -269.968 -5.086 Q -270.394 -5.17 -270.69 -5.282 Q -270.987 -5.394 -271.122 -5.45 L -271.122 -12.17 Q -271.122 -12.585 -271.211 -12.702 Q -271.301 -12.82 -271.682 -12.82 Q -271.805 -12.82 -271.911 -12.803 Q -272.018 -12.786 -272.018 -12.786 L -272.018 -13.212 L -270.494 -13.503 Z M -270.035 -9.449 L -270.035 -9.449 L -270.035 -6.089 Q -269.901 -5.842 -269.61 -5.697 Q -269.318 -5.551 -268.837 -5.551 Q -268.243 -5.551 -267.885 -5.87 Q -267.526 -6.19 -267.364 -6.722 Q -267.202 -7.254 -267.202 -7.881 Q -267.202 -8.452 -267.33 -8.973 Q -267.459 -9.494 -267.784 -9.818 Q -268.109 -10.143 -268.68 -10.143 Q -268.982 -10.143 -269.257 -10.026 Q -269.531 -9.908 -269.733 -9.746 Q -269.934 -9.583 -270.035 -9.449 Z " fill="black" /><path d="M -261.949 -5.551 L -261.949 -5.551 L -261.949 -5.137 L -264.794 -5.137 L -264.794 -5.551 Q -264.402 -5.551 -264.228 -5.635 Q -264.054 -5.719 -264.01 -5.904 Q -263.965 -6.089 -263.965 -6.391 L -263.965 -9.774 Q -263.965 -10.154 -264.088 -10.233 Q -264.211 -10.311 -264.502 -10.311 Q -264.648 -10.311 -264.738 -10.3 Q -264.827 -10.289 -264.827 -10.289 L -264.827 -10.737 L -263.326 -10.983 L -262.867 -10.983 L -262.867 -6.391 Q -262.867 -6.066 -262.817 -5.882 Q -262.766 -5.697 -262.57 -5.624 Q -262.374 -5.551 -261.949 -5.551 Z M -263.427 -13.458 L -263.427 -13.458 Q -263.102 -13.458 -262.884 -13.234 Q -262.666 -13.01 -262.666 -12.719 Q -262.666 -12.45 -262.884 -12.226 Q -263.102 -12.002 -263.427 -12.002 Q -263.741 -12.002 -263.948 -12.226 Q -264.155 -12.45 -264.155 -12.719 Q -264.155 -13.01 -263.948 -13.234 Q -263.741 -13.458 -263.427 -13.458 Z " fill="black" /><path d="M -257.469 -5.842 L -257.469 -5.842 L -257.547 -5.842 Q -257.928 -5.529 -258.387 -5.294 Q -258.846 -5.058 -259.384 -5.058 Q -260.09 -5.058 -260.465 -5.484 Q -260.84 -5.91 -260.84 -6.514 Q -260.84 -7.03 -260.599 -7.377 Q -260.358 -7.724 -259.972 -7.942 Q -259.586 -8.161 -259.138 -8.295 Q -258.69 -8.43 -258.275 -8.508 Q -257.861 -8.586 -257.581 -8.654 L -257.581 -9.236 Q -257.581 -9.986 -257.878 -10.272 Q -258.174 -10.558 -258.746 -10.558 Q -259.093 -10.558 -259.244 -10.468 Q -259.395 -10.378 -259.434 -10.177 Q -259.474 -9.975 -259.485 -9.65 Q -259.496 -9.404 -259.63 -9.253 Q -259.765 -9.102 -260.022 -9.102 Q -260.269 -9.102 -260.442 -9.253 Q -260.616 -9.404 -260.616 -9.695 Q -260.616 -10.042 -260.347 -10.345 Q -260.078 -10.647 -259.58 -10.832 Q -259.082 -11.017 -258.41 -11.017 Q -257.402 -11.017 -256.948 -10.552 Q -256.494 -10.087 -256.494 -9.158 L -256.494 -6.414 Q -256.494 -6.044 -256.41 -5.938 Q -256.326 -5.831 -256.147 -5.831 Q -255.957 -5.831 -255.817 -5.91 Q -255.677 -5.988 -255.554 -6.134 L -255.307 -5.898 Q -255.89 -5.07 -256.674 -5.07 Q -257.11 -5.07 -257.273 -5.277 Q -257.435 -5.484 -257.469 -5.842 Z M -257.581 -6.257 L -257.581 -6.257 L -257.581 -8.228 Q -258.096 -8.094 -258.589 -7.931 Q -259.082 -7.769 -259.401 -7.489 Q -259.72 -7.209 -259.72 -6.705 Q -259.72 -6.268 -259.468 -6.016 Q -259.216 -5.764 -258.824 -5.764 Q -258.589 -5.764 -258.258 -5.87 Q -257.928 -5.977 -257.581 -6.257 Z " fill="black" /><path d="M -254.534 -7.175 L -254.534 -7.175 L -254.176 -7.175 Q -254.03 -6.526 -253.829 -6.167 Q -253.627 -5.809 -253.308 -5.669 Q -252.989 -5.529 -252.53 -5.529 Q -252.003 -5.529 -251.718 -5.702 Q -251.432 -5.876 -251.432 -6.313 Q -251.432 -6.604 -251.572 -6.8 Q -251.712 -6.996 -252.02 -7.175 Q -252.328 -7.354 -252.843 -7.59 Q -253.37 -7.847 -253.745 -8.071 Q -254.12 -8.295 -254.316 -8.598 Q -254.512 -8.9 -254.512 -9.359 Q -254.512 -10.166 -253.969 -10.591 Q -253.426 -11.017 -252.608 -11.017 Q -252.115 -11.017 -251.774 -10.894 Q -251.432 -10.77 -251.23 -10.681 L -251.208 -10.681 L -251.029 -10.961 L -250.715 -10.961 L -250.693 -9.102 L -251.085 -9.102 Q -251.298 -9.964 -251.678 -10.261 Q -252.059 -10.558 -252.552 -10.558 Q -253.067 -10.558 -253.33 -10.334 Q -253.594 -10.11 -253.594 -9.751 Q -253.594 -9.46 -253.414 -9.27 Q -253.235 -9.079 -252.905 -8.917 Q -252.574 -8.754 -252.115 -8.53 Q -251.6 -8.284 -251.208 -8.021 Q -250.816 -7.758 -250.592 -7.427 Q -250.368 -7.097 -250.368 -6.604 Q -250.368 -6.01 -250.682 -5.652 Q -250.995 -5.294 -251.488 -5.142 Q -251.981 -4.991 -252.518 -4.991 Q -253.067 -4.991 -253.37 -5.103 Q -253.672 -5.215 -253.93 -5.316 L -253.974 -5.316 L -254.254 -5.025 L -254.512 -5.025 Z " fill="black" /></g></g></g><circle cx="-173.99999999999994" cy="125.99999999999997" r="2.6999999999999997" style="stroke:black;fill:black;stroke-width:2.0;stroke-dasharray:-;" /><g><g><g><path d="M 96.115 33.576 L 96.115 33.576 L 91.843 33.576 L 91.939 33.096 Q 92.531 33.096 92.843 32.984 Q 93.155 32.872 93.315 32.56 Q 93.475 32.248 93.587 31.672 L 95.011 24.76 L 94.947 24.76 L 89.571 33.576 L 89.219 33.576 L 87.283 24.776 L 87.219 24.776 L 85.891 31.24 Q 85.731 32.056 85.755 32.456 Q 85.779 32.856 86.067 32.976 Q 86.355 33.096 86.963 33.096 L 86.867 33.576 L 83.171 33.576 L 83.267 33.096 Q 83.891 33.096 84.227 32.976 Q 84.563 32.856 84.755 32.456 Q 84.947 32.056 85.107 31.24 L 86.371 25.016 Q 86.499 24.408 86.451 24.096 Q 86.403 23.784 86.107 23.664 Q 85.811 23.544 85.171 23.544 L 85.267 23.064 L 88.467 23.064 L 90.195 31.16 L 90.259 31.16 L 95.139 23.064 L 98.163 23.064 L 98.067 23.544 Q 97.507 23.544 97.179 23.664 Q 96.851 23.784 96.675 24.096 Q 96.499 24.408 96.371 25 L 95.011 31.672 Q 94.835 32.552 95.099 32.824 Q 95.363 33.096 96.211 33.096 Z " fill="black" /><path d="M 103.64 34.987 L 103.64 34.987 L 103.259 36.936 L 98.667 36.936 L 98.667 36.387 L 100.258 34.774 Q 100.885 34.147 101.294 33.666 Q 101.702 33.184 101.904 32.697 Q 102.106 32.21 102.106 31.582 Q 102.106 30.989 101.742 30.602 Q 101.378 30.216 100.717 30.216 Q 100.112 30.216 99.703 30.457 Q 99.294 30.698 98.981 31.246 L 98.678 31.101 Q 98.958 30.317 99.546 29.869 Q 100.134 29.421 100.997 29.421 Q 101.669 29.421 102.184 29.662 Q 102.699 29.902 102.99 30.35 Q 103.282 30.798 103.282 31.437 Q 103.282 31.986 103.035 32.467 Q 102.789 32.949 102.335 33.453 Q 101.882 33.957 101.254 34.573 L 99.854 35.928 L 99.854 36.006 L 100.728 35.962 L 102.184 35.962 Q 102.509 35.962 102.682 35.872 Q 102.856 35.782 102.979 35.564 Q 103.102 35.346 103.248 34.987 Z " fill="black" /></g></g></g><circle cx="-50.99999999999999" cy="29.999999999999993" r="2.6999999999999997" style="stroke:black;fill:white;stroke-width:2.0;stroke-dasharray:-;" /><g><g><g><path d="M -82.682 30.282 L -82.682 30.282 L -78.314 23.722 Q -78.09 23.402 -77.954 23.13 Q -77.818 22.858 -77.818 22.666 Q -77.818 22.426 -78.026 22.338 Q -78.234 22.25 -78.778 22.25 L -78.746 21.77 L -75.29 21.77 L -75.322 22.25 Q -75.754 22.25 -76.058 22.378 Q -76.362 22.506 -76.674 22.866 Q -76.986 23.226 -77.482 23.962 L -83.354 32.362 L -83.882 32.362 L -84.778 23.706 Q -84.874 22.906 -85.13 22.578 Q -85.386 22.25 -86.026 22.25 L -85.994 21.77 L -82.074 21.77 L -82.122 22.25 Q -82.73 22.25 -83.082 22.49 Q -83.434 22.73 -83.402 23.274 Q -83.402 23.354 -83.378 23.562 Q -83.354 23.77 -83.354 23.85 L -82.874 28.41 L -82.762 30.282 Z " fill="black" /><path d="M -73.762 35.228 L -73.762 35.228 L -73.762 35.642 L -76.607 35.642 L -76.607 35.228 Q -76.215 35.228 -76.042 35.144 Q -75.868 35.06 -75.823 34.875 Q -75.778 34.69 -75.778 34.388 L -75.778 31.006 Q -75.778 30.625 -75.902 30.546 Q -76.025 30.468 -76.316 30.468 Q -76.462 30.468 -76.551 30.479 Q -76.641 30.49 -76.641 30.49 L -76.641 30.042 L -75.14 29.796 L -74.681 29.796 L -74.681 34.388 Q -74.681 34.713 -74.63 34.898 Q -74.58 35.082 -74.384 35.155 Q -74.188 35.228 -73.762 35.228 Z M -75.241 27.321 L -75.241 27.321 Q -74.916 27.321 -74.698 27.545 Q -74.479 27.769 -74.479 28.06 Q -74.479 28.329 -74.698 28.553 Q -74.916 28.777 -75.241 28.777 Q -75.554 28.777 -75.762 28.553 Q -75.969 28.329 -75.969 28.06 Q -75.969 27.769 -75.762 27.545 Q -75.554 27.321 -75.241 27.321 Z " fill="black" /><path d="M -67.11 31.89 L -67.11 31.89 L -67.11 34.399 Q -67.11 34.713 -67.054 34.898 Q -66.998 35.082 -66.807 35.161 Q -66.617 35.239 -66.214 35.239 L -66.214 35.642 L -69.092 35.642 L -69.092 35.239 Q -68.666 35.239 -68.476 35.161 Q -68.286 35.082 -68.241 34.898 Q -68.196 34.713 -68.196 34.399 L -68.196 32.26 Q -68.196 31.51 -68.37 31.157 Q -68.543 30.804 -68.806 30.692 Q -69.07 30.58 -69.338 30.58 Q -69.82 30.58 -70.184 30.826 Q -70.548 31.073 -70.817 31.297 L -70.817 34.399 Q -70.817 34.713 -70.766 34.898 Q -70.716 35.082 -70.526 35.161 Q -70.335 35.239 -69.921 35.239 L -69.921 35.642 L -72.743 35.642 L -72.743 35.239 Q -72.351 35.239 -72.178 35.161 Q -72.004 35.082 -71.959 34.898 Q -71.914 34.713 -71.914 34.399 L -71.914 30.994 Q -71.914 30.681 -72.032 30.574 Q -72.15 30.468 -72.407 30.468 Q -72.542 30.468 -72.631 30.479 Q -72.721 30.49 -72.721 30.49 L -72.721 30.065 L -71.22 29.796 L -70.85 29.796 L -70.85 30.714 L -70.772 30.714 Q -70.29 30.278 -69.848 30.02 Q -69.406 29.762 -68.846 29.762 Q -68.185 29.762 -67.81 30.059 Q -67.434 30.356 -67.272 30.838 Q -67.11 31.319 -67.11 31.89 Z " fill="black" /><path d="M -64.814 37.322 L -64.814 37.322 L -65.004 36.953 Q -64.769 36.852 -64.522 36.69 Q -64.276 36.527 -64.114 36.23 Q -63.951 35.934 -63.951 35.452 Q -64.142 35.53 -64.343 35.53 Q -64.713 35.53 -64.87 35.312 Q -65.026 35.094 -65.026 34.814 Q -65.026 34.511 -64.825 34.287 Q -64.623 34.063 -64.242 34.063 Q -63.761 34.063 -63.509 34.36 Q -63.257 34.657 -63.257 35.183 Q -63.257 35.721 -63.425 36.096 Q -63.593 36.471 -63.845 36.712 Q -64.097 36.953 -64.36 37.093 Q -64.623 37.233 -64.814 37.322 Z " fill="black" /><path d="M -60.905 29.796 L -60.905 29.796 L -60.905 30.759 L -60.849 30.759 Q -60.412 30.255 -59.975 30.009 Q -59.538 29.762 -59.012 29.762 Q -58.418 29.762 -57.937 30.115 Q -57.455 30.468 -57.17 31.09 Q -56.884 31.711 -56.884 32.518 Q -56.884 33.57 -57.259 34.298 Q -57.634 35.026 -58.256 35.402 Q -58.878 35.777 -59.606 35.777 Q -59.953 35.777 -60.261 35.687 Q -60.569 35.598 -60.826 35.452 L -60.882 35.452 L -60.882 36.886 Q -60.882 37.278 -60.782 37.485 Q -60.681 37.692 -60.423 37.765 Q -60.166 37.838 -59.684 37.838 L -59.684 38.23 L -62.854 38.23 L -62.854 37.849 Q -62.462 37.838 -62.277 37.765 Q -62.092 37.692 -62.03 37.502 Q -61.969 37.311 -61.969 36.964 L -61.969 31.073 Q -61.969 30.748 -62.036 30.608 Q -62.103 30.468 -62.428 30.468 Q -62.529 30.468 -62.686 30.479 Q -62.842 30.49 -62.842 30.49 L -62.842 30.042 L -61.33 29.796 Z M -60.882 31.33 L -60.882 31.33 L -60.882 34.489 Q -60.759 34.612 -60.574 34.797 Q -60.39 34.982 -60.132 35.122 Q -59.874 35.262 -59.572 35.262 Q -59.158 35.262 -58.816 35.01 Q -58.474 34.758 -58.262 34.22 Q -58.049 33.682 -58.049 32.854 Q -58.049 31.801 -58.43 31.218 Q -58.81 30.636 -59.505 30.636 Q -59.953 30.636 -60.322 30.871 Q -60.692 31.106 -60.882 31.33 Z " fill="black" /></g></g></g><circle cx="158.99999999999997" cy="29.999999999999996" r="2.6999999999999997" style="stroke:black;fill:white;stroke-width:2.0;stroke-dasharray:-;" /><g><g><g><path d="M 169.732 30.736 L 169.732 30.736 L 174.1 24.176 Q 174.324 23.856 174.46 23.584 Q 174.596 23.312 174.596 23.12 Q 174.596 22.88 174.388 22.792 Q 174.18 22.704 173.636 22.704 L 173.668 22.224 L 177.124 22.224 L 177.092 22.704 Q 176.66 22.704 176.356 22.832 Q 176.052 22.96 175.74 23.32 Q 175.428 23.68 174.932 24.416 L 169.06 32.816 L 168.532 32.816 L 167.636 24.16 Q 167.54 23.36 167.284 23.032 Q 167.028 22.704 166.388 22.704 L 166.42 22.224 L 170.34 22.224 L 170.292 22.704 Q 169.684 22.704 169.332 22.944 Q 168.98 23.184 169.012 23.728 Q 169.012 23.808 169.036 24.016 Q 169.06 24.224 169.06 24.304 L 169.54 28.864 L 169.652 30.736 Z " fill="black" /><path d="M 178.652 35.682 L 178.652 35.682 L 178.652 36.096 L 175.807 36.096 L 175.807 35.682 Q 176.199 35.682 176.373 35.598 Q 176.546 35.514 176.591 35.329 Q 176.636 35.144 176.636 34.842 L 176.636 31.459 Q 176.636 31.078 176.513 31 Q 176.39 30.922 176.098 30.922 Q 175.953 30.922 175.863 30.933 Q 175.774 30.944 175.774 30.944 L 175.774 30.496 L 177.274 30.25 L 177.734 30.25 L 177.734 34.842 Q 177.734 35.166 177.784 35.351 Q 177.834 35.536 178.03 35.609 Q 178.226 35.682 178.652 35.682 Z M 177.174 27.774 L 177.174 27.774 Q 177.498 27.774 177.717 27.998 Q 177.935 28.222 177.935 28.514 Q 177.935 28.782 177.717 29.006 Q 177.498 29.23 177.174 29.23 Q 176.86 29.23 176.653 29.006 Q 176.446 28.782 176.446 28.514 Q 176.446 28.222 176.653 27.998 Q 176.86 27.774 177.174 27.774 Z " fill="black" /><path d="M 185.305 32.344 L 185.305 32.344 L 185.305 34.853 Q 185.305 35.166 185.361 35.351 Q 185.417 35.536 185.607 35.614 Q 185.798 35.693 186.201 35.693 L 186.201 36.096 L 183.322 36.096 L 183.322 35.693 Q 183.748 35.693 183.938 35.614 Q 184.129 35.536 184.174 35.351 Q 184.218 35.166 184.218 34.853 L 184.218 32.714 Q 184.218 31.963 184.045 31.61 Q 183.871 31.258 183.608 31.146 Q 183.345 31.034 183.076 31.034 Q 182.594 31.034 182.23 31.28 Q 181.866 31.526 181.598 31.75 L 181.598 34.853 Q 181.598 35.166 181.648 35.351 Q 181.698 35.536 181.889 35.614 Q 182.079 35.693 182.494 35.693 L 182.494 36.096 L 179.671 36.096 L 179.671 35.693 Q 180.063 35.693 180.237 35.614 Q 180.41 35.536 180.455 35.351 Q 180.5 35.166 180.5 34.853 L 180.5 31.448 Q 180.5 31.134 180.382 31.028 Q 180.265 30.922 180.007 30.922 Q 179.873 30.922 179.783 30.933 Q 179.694 30.944 179.694 30.944 L 179.694 30.518 L 181.194 30.25 L 181.564 30.25 L 181.564 31.168 L 181.642 31.168 Q 182.124 30.731 182.566 30.474 Q 183.009 30.216 183.569 30.216 Q 184.23 30.216 184.605 30.513 Q 184.98 30.81 185.142 31.291 Q 185.305 31.773 185.305 32.344 Z " fill="black" /><path d="M 187.601 37.776 L 187.601 37.776 L 187.41 37.406 Q 187.646 37.306 187.892 37.143 Q 188.138 36.981 188.301 36.684 Q 188.463 36.387 188.463 35.906 Q 188.273 35.984 188.071 35.984 Q 187.702 35.984 187.545 35.766 Q 187.388 35.547 187.388 35.267 Q 187.388 34.965 187.59 34.741 Q 187.791 34.517 188.172 34.517 Q 188.654 34.517 188.906 34.814 Q 189.158 35.11 189.158 35.637 Q 189.158 36.174 188.99 36.55 Q 188.822 36.925 188.57 37.166 Q 188.318 37.406 188.054 37.546 Q 187.791 37.686 187.601 37.776 Z " fill="black" /><path d="M 195.362 32.344 L 195.362 32.344 L 195.362 34.853 Q 195.362 35.166 195.418 35.351 Q 195.474 35.536 195.665 35.614 Q 195.855 35.693 196.258 35.693 L 196.258 36.096 L 193.38 36.096 L 193.38 35.693 Q 193.806 35.693 193.996 35.614 Q 194.186 35.536 194.231 35.351 Q 194.276 35.166 194.276 34.853 L 194.276 32.714 Q 194.276 31.963 194.102 31.61 Q 193.929 31.258 193.666 31.146 Q 193.402 31.034 193.134 31.034 Q 192.652 31.034 192.288 31.28 Q 191.924 31.526 191.655 31.75 L 191.655 34.853 Q 191.655 35.166 191.706 35.351 Q 191.756 35.536 191.946 35.614 Q 192.137 35.693 192.551 35.693 L 192.551 36.096 L 189.729 36.096 L 189.729 35.693 Q 190.121 35.693 190.294 35.614 Q 190.468 35.536 190.513 35.351 Q 190.558 35.166 190.558 34.853 L 190.558 31.448 Q 190.558 31.134 190.44 31.028 Q 190.322 30.922 190.065 30.922 Q 189.93 30.922 189.841 30.933 Q 189.751 30.944 189.751 30.944 L 189.751 30.518 L 191.252 30.25 L 191.622 30.25 L 191.622 31.168 L 191.7 31.168 Q 192.182 30.731 192.624 30.474 Q 193.066 30.216 193.626 30.216 Q 194.287 30.216 194.662 30.513 Q 195.038 30.81 195.2 31.291 Q 195.362 31.773 195.362 32.344 Z " fill="black" /></g></g></g><circle cx="1.102182119232618e-15" cy="-18.0" r="2.6999999999999997" style="stroke:black;fill:black;stroke-width:2.0;stroke-dasharray:-;" /><g><g><g><path d="M 12.715 -62.497 L 12.715 -62.497 L 8.443 -62.497 L 8.539 -62.977 Q 9.131 -62.977 9.443 -63.089 Q 9.755 -63.201 9.915 -63.513 Q 10.075 -63.825 10.187 -64.401 L 11.611 -71.313 L 11.547 -71.313 L 6.171 -62.497 L 5.819 -62.497 L 3.883 -71.297 L 3.819 -71.297 L 2.491 -64.833 Q 2.331 -64.017 2.355 -63.617 Q 2.379 -63.217 2.667 -63.097 Q 2.955 -62.977 3.563 -62.977 L 3.467 -62.497 L -0.229 -62.497 L -0.133 -62.977 Q 0.491 -62.977 0.827 -63.097 Q 1.163 -63.217 1.355 -63.617 Q 1.547 -64.017 1.707 -64.833 L 2.971 -71.057 Q 3.099 -71.665 3.051 -71.977 Q 3.003 -72.289 2.707 -72.409 Q 2.411 -72.529 1.771 -72.529 L 1.867 -73.009 L 5.067 -73.009 L 6.795 -64.913 L 6.859 -64.913 L 11.739 -73.009 L 14.763 -73.009 L 14.667 -72.529 Q 14.107 -72.529 13.779 -72.409 Q 13.451 -72.289 13.275 -71.977 Q 13.099 -71.665 12.971 -71.073 L 11.611 -64.401 Q 11.435 -63.521 11.699 -63.249 Q 11.963 -62.977 12.811 -62.977 Z " fill="black" /><path d="M 15.704 -64.961 L 15.704 -64.961 L 15.379 -65.118 Q 15.715 -65.879 16.27 -66.266 Q 16.824 -66.652 17.518 -66.652 Q 18.414 -66.652 18.963 -66.215 Q 19.512 -65.778 19.512 -65.084 Q 19.512 -64.479 19.142 -64.11 Q 18.773 -63.74 18.224 -63.382 L 18.224 -63.326 Q 18.694 -63.202 19.092 -62.956 Q 19.49 -62.71 19.725 -62.323 Q 19.96 -61.937 19.96 -61.388 Q 19.96 -60.772 19.691 -60.318 Q 19.422 -59.865 18.963 -59.568 Q 18.504 -59.271 17.916 -59.131 Q 17.328 -58.991 16.69 -58.991 Q 16.141 -58.991 15.855 -59.086 Q 15.57 -59.182 15.463 -59.338 Q 15.357 -59.495 15.357 -59.652 Q 15.357 -59.842 15.469 -60.027 Q 15.581 -60.212 15.85 -60.212 Q 15.962 -60.212 16.079 -60.15 Q 16.197 -60.089 16.51 -59.91 Q 16.768 -59.786 16.919 -59.719 Q 17.07 -59.652 17.188 -59.63 Q 17.306 -59.607 17.462 -59.607 Q 17.798 -59.607 18.129 -59.73 Q 18.459 -59.854 18.683 -60.173 Q 18.907 -60.492 18.907 -61.074 Q 18.907 -61.59 18.622 -61.959 Q 18.336 -62.329 17.854 -62.536 Q 17.373 -62.743 16.79 -62.743 L 16.544 -62.743 L 16.544 -63.27 L 16.779 -63.27 Q 17.182 -63.27 17.563 -63.454 Q 17.944 -63.639 18.19 -63.981 Q 18.437 -64.322 18.437 -64.793 Q 18.437 -65.319 18.095 -65.588 Q 17.754 -65.857 17.227 -65.857 Q 16.253 -65.857 15.704 -64.961 Z " fill="black" /></g></g></g><circle cx="108.0" cy="-18.0" r="2.6999999999999997" style="stroke:black;fill:black;stroke-width:2.0;stroke-dasharray:-;" /><g><g><g><path d="M 96.362 -62.497 L 96.362 -62.497 L 92.09 -62.497 L 92.186 -62.977 Q 92.778 -62.977 93.09 -63.089 Q 93.402 -63.201 93.562 -63.513 Q 93.722 -63.825 93.834 -64.401 L 95.258 -71.313 L 95.194 -71.313 L 89.818 -62.497 L 89.466 -62.497 L 87.53 -71.297 L 87.466 -71.297 L 86.138 -64.833 Q 85.978 -64.017 86.002 -63.617 Q 86.026 -63.217 86.314 -63.097 Q 86.602 -62.977 87.21 -62.977 L 87.114 -62.497 L 83.418 -62.497 L 83.514 -62.977 Q 84.138 -62.977 84.474 -63.097 Q 84.81 -63.217 85.002 -63.617 Q 85.194 -64.017 85.354 -64.833 L 86.618 -71.057 Q 86.746 -71.665 86.698 -71.977 Q 86.65 -72.289 86.354 -72.409 Q 86.058 -72.529 85.418 -72.529 L 85.514 -73.009 L 88.714 -73.009 L 90.442 -64.913 L 90.506 -64.913 L 95.386 -73.009 L 98.41 -73.009 L 98.314 -72.529 Q 97.754 -72.529 97.426 -72.409 Q 97.098 -72.289 96.922 -71.977 Q 96.746 -71.665 96.618 -71.073 L 95.258 -64.401 Q 95.082 -63.521 95.346 -63.249 Q 95.61 -62.977 96.458 -62.977 Z " fill="black" /><path d="M 103.058 -65.498 L 103.058 -65.498 L 100.28 -65.498 L 100.034 -64.143 L 100.526 -64.121 Q 101.042 -64.11 101.551 -63.981 Q 102.061 -63.852 102.486 -63.578 Q 102.912 -63.303 103.17 -62.838 Q 103.427 -62.374 103.427 -61.679 Q 103.427 -60.75 103.018 -60.156 Q 102.61 -59.562 101.893 -59.277 Q 101.176 -58.991 100.224 -58.991 Q 99.53 -58.991 99.205 -59.165 Q 98.88 -59.338 98.88 -59.674 Q 98.88 -59.887 99.009 -60.05 Q 99.138 -60.212 99.362 -60.212 Q 99.586 -60.212 99.821 -60.061 Q 100.056 -59.91 100.33 -59.758 Q 100.605 -59.607 100.963 -59.607 Q 101.378 -59.607 101.73 -59.77 Q 102.083 -59.932 102.307 -60.279 Q 102.531 -60.626 102.531 -61.198 Q 102.531 -61.914 102.234 -62.329 Q 101.938 -62.743 101.372 -62.922 Q 100.806 -63.102 100.011 -63.124 Q 99.765 -63.124 99.658 -63.124 Q 99.552 -63.124 99.451 -63.135 L 99.283 -63.303 L 99.944 -66.484 L 103.203 -66.484 Z " fill="black" /></g></g></g><circle cx="-54.0" cy="-66.0" r="2.6999999999999997" style="stroke:black;fill:black;stroke-width:2.0;stroke-dasharray:-;" /><g><g><g><path d="M -135.333 -62.424 L -135.333 -62.424 L -139.605 -62.424 L -139.509 -62.904 Q -138.917 -62.904 -138.605 -63.016 Q -138.293 -63.128 -138.133 -63.44 Q -137.973 -63.752 -137.861 -64.328 L -136.437 -71.24 L -136.501 -71.24 L -141.877 -62.424 L -142.229 -62.424 L -144.165 -71.224 L -144.229 -71.224 L -145.557 -64.76 Q -145.717 -63.944 -145.693 -63.544 Q -145.669 -63.144 -145.381 -63.024 Q -145.093 -62.904 -144.485 -62.904 L -144.581 -62.424 L -148.277 -62.424 L -148.181 -62.904 Q -147.557 -62.904 -147.221 -63.024 Q -146.885 -63.144 -146.693 -63.544 Q -146.501 -63.944 -146.341 -64.76 L -145.077 -70.984 Q -144.949 -71.592 -144.997 -71.904 Q -145.045 -72.216 -145.341 -72.336 Q -145.637 -72.456 -146.277 -72.456 L -146.181 -72.936 L -142.981 -72.936 L -141.253 -64.84 L -141.189 -64.84 L -136.309 -72.936 L -133.285 -72.936 L -133.381 -72.456 Q -133.941 -72.456 -134.269 -72.336 Q -134.597 -72.216 -134.773 -71.904 Q -134.949 -71.592 -135.077 -71 L -136.437 -64.328 Q -136.613 -63.448 -136.349 -63.176 Q -136.085 -62.904 -135.237 -62.904 Z " fill="black" /><path d="M -127.27 -60.834 L -127.27 -60.834 L -128.491 -60.834 L -128.491 -59.064 L -129.6 -59.064 L -129.6 -60.834 L -132.893 -60.834 L -132.893 -61.685 L -129.298 -66.568 L -128.491 -66.568 L -128.491 -61.752 L -127.27 -61.752 Z M -129.6 -61.752 L -129.6 -61.752 L -129.6 -65.213 L -129.667 -65.213 L -132.131 -61.819 L -132.131 -61.752 Z " fill="black" /></g></g></g><circle cx="162.0" cy="-66.0" r="2.6999999999999997" style="stroke:black;fill:black;stroke-width:2.0;stroke-dasharray:-;" /><g><g><g><path d="M 243.491 -62.502 L 243.491 -62.502 L 239.219 -62.502 L 239.315 -62.982 Q 239.907 -62.982 240.219 -63.094 Q 240.531 -63.206 240.691 -63.518 Q 240.851 -63.83 240.963 -64.406 L 242.387 -71.318 L 242.323 -71.318 L 236.947 -62.502 L 236.595 -62.502 L 234.659 -71.302 L 234.595 -71.302 L 233.267 -64.838 Q 233.107 -64.022 233.131 -63.622 Q 233.155 -63.222 233.443 -63.102 Q 233.731 -62.982 234.339 -62.982 L 234.243 -62.502 L 230.547 -62.502 L 230.643 -62.982 Q 231.267 -62.982 231.603 -63.102 Q 231.939 -63.222 232.131 -63.622 Q 232.323 -64.022 232.483 -64.838 L 233.747 -71.062 Q 233.875 -71.67 233.827 -71.982 Q 233.779 -72.294 233.483 -72.414 Q 233.187 -72.534 232.547 -72.534 L 232.643 -73.014 L 235.843 -73.014 L 237.571 -64.918 L 237.635 -64.918 L 242.515 -73.014 L 245.539 -73.014 L 245.443 -72.534 Q 244.883 -72.534 244.555 -72.414 Q 244.227 -72.294 244.051 -71.982 Q 243.875 -71.67 243.747 -71.078 L 242.387 -64.406 Q 242.211 -63.526 242.475 -63.254 Q 242.739 -62.982 243.587 -62.982 Z " fill="black" /><path d="M 250.59 -66.669 L 250.59 -66.669 L 250.602 -66.299 Q 249.784 -66.198 249.095 -65.812 Q 248.406 -65.426 247.93 -64.787 Q 247.454 -64.149 247.286 -63.286 L 247.376 -63.275 Q 247.746 -63.611 248.11 -63.824 Q 248.474 -64.037 248.955 -64.037 Q 249.594 -64.037 250.081 -63.734 Q 250.568 -63.432 250.848 -62.872 Q 251.128 -62.312 251.128 -61.517 Q 251.128 -60.318 250.462 -59.652 Q 249.795 -58.986 248.664 -58.986 Q 247.79 -58.986 247.225 -59.4 Q 246.659 -59.814 246.385 -60.537 Q 246.11 -61.259 246.11 -62.2 Q 246.11 -63.645 246.698 -64.63 Q 247.286 -65.616 248.3 -66.131 Q 249.314 -66.646 250.59 -66.669 Z M 250.03 -61.438 L 250.03 -61.438 Q 250.03 -62.267 249.666 -62.766 Q 249.302 -63.264 248.586 -63.264 Q 248.037 -63.264 247.639 -62.956 Q 247.242 -62.648 247.242 -61.886 Q 247.242 -60.778 247.606 -60.128 Q 247.97 -59.478 248.731 -59.478 Q 249.336 -59.478 249.683 -59.915 Q 250.03 -60.352 250.03 -61.438 Z " fill="black" /></g></g></g><g><g><g><path d="M -134.762 213.531 L -134.762 213.531 L -139.034 213.531 L -138.938 213.051 Q -138.346 213.051 -138.034 212.939 Q -137.722 212.827 -137.562 212.515 Q -137.402 212.203 -137.29 211.627 L -135.866 204.715 L -135.93 204.715 L -141.306 213.531 L -141.658 213.531 L -143.594 204.731 L -143.658 204.731 L -144.986 211.195 Q -145.146 212.011 -145.122 212.411 Q -145.098 212.811 -144.81 212.931 Q -144.522 213.051 -143.914 213.051 L -144.01 213.531 L -147.706 213.531 L -147.61 213.051 Q -146.986 213.051 -146.65 212.931 Q -146.314 212.811 -146.122 212.411 Q -145.93 212.011 -145.77 211.195 L -144.506 204.971 Q -144.378 204.363 -144.426 204.051 Q -144.474 203.739 -144.77 203.619 Q -145.066 203.499 -145.706 203.499 L -145.61 203.019 L -142.41 203.019 L -140.682 211.115 L -140.618 211.115 L -135.738 203.019 L -132.714 203.019 L -132.81 203.499 Q -133.37 203.499 -133.698 203.619 Q -134.026 203.739 -134.202 204.051 Q -134.378 204.363 -134.506 204.955 L -135.866 211.627 Q -136.042 212.507 -135.778 212.779 Q -135.514 213.051 -134.666 213.051 Z " fill="black" /><path d="M -127.349 210.014 L -127.349 210.014 L -129.925 216.981 L -130.91 216.981 L -128.278 210.53 L -130.698 210.53 Q -131.045 210.53 -131.224 210.602 Q -131.403 210.675 -131.504 210.866 Q -131.605 211.056 -131.739 211.426 L -132.187 211.403 L -131.806 209.544 L -127.349 209.544 Z " fill="black" /></g></g></g><circle cx="-72.00000000000003" cy="210.0" r="2.6999999999999997" style="stroke:black;fill:black;stroke-width:2.0;stroke-dasharray:-;" /><circle cx="-123.00000000000003" cy="162.0" r="2.6999999999999997" style="stroke:black;fill:black;stroke-width:2.0;stroke-dasharray:-;" /><circle cx="230.99999999999994" cy="72.0" r="2.6999999999999997" style="stroke:black;fill:black;stroke-width:2.0;stroke-dasharray:-;" /><circle cx="266.99999999999994" cy="72.0" r="2.6999999999999997" style="stroke:black;fill:white;stroke-width:2.0;stroke-dasharray:-;" /><g><g><g><path d="M 275.172 73.413 L 275.172 73.413 L 276.484 67.109 Q 276.628 66.485 276.62 66.125 Q 276.612 65.765 276.324 65.621 Q 276.036 65.477 275.3 65.477 L 275.396 64.997 L 279.828 64.997 L 279.732 65.477 Q 279.028 65.477 278.676 65.621 Q 278.324 65.765 278.18 66.125 Q 278.036 66.485 277.908 67.109 L 276.596 73.477 Q 276.548 73.733 276.516 73.941 Q 276.484 74.149 276.484 74.325 Q 276.484 74.773 276.748 74.901 Q 277.012 75.029 277.764 75.029 L 277.668 75.509 L 273.3 75.509 L 273.396 75.029 Q 274.052 75.029 274.38 74.917 Q 274.708 74.805 274.868 74.461 Q 275.028 74.117 275.172 73.413 Z " fill="black" /><path d="M 283.289 72.989 L 283.289 72.989 Q 284.129 72.989 284.756 73.353 Q 285.383 73.717 285.725 74.372 Q 286.066 75.027 286.066 75.912 Q 286.066 76.976 285.708 77.659 Q 285.35 78.342 284.722 78.673 Q 284.095 79.003 283.289 79.003 Q 282.471 79.003 281.838 78.662 Q 281.206 78.32 280.853 77.637 Q 280.5 76.954 280.5 75.923 Q 280.5 75.05 280.847 74.389 Q 281.194 73.728 281.822 73.358 Q 282.449 72.989 283.289 72.989 Z M 283.266 73.504 L 283.266 73.504 Q 282.527 73.504 282.107 74.103 Q 281.687 74.702 281.687 75.856 Q 281.687 77.278 282.118 77.866 Q 282.55 78.454 283.322 78.454 Q 283.815 78.443 284.162 78.208 Q 284.51 77.973 284.694 77.418 Q 284.879 76.864 284.879 75.912 Q 284.879 74.77 284.487 74.137 Q 284.095 73.504 283.266 73.504 Z " fill="black" /><path d="M 293.682 78.298 L 293.682 78.298 L 293.682 78.723 L 292.17 78.925 L 291.812 78.925 L 291.812 78.051 L 291.7 78.051 Q 291.274 78.432 290.838 78.706 Q 290.401 78.981 289.785 78.981 Q 288.956 78.981 288.519 78.477 Q 288.082 77.973 288.082 76.73 L 288.082 74.322 Q 288.082 73.862 287.92 73.756 Q 287.758 73.65 287.242 73.65 L 287.242 73.246 L 288.799 73.034 L 289.169 73.034 L 289.169 76.584 Q 289.169 77.211 289.314 77.558 Q 289.46 77.906 289.706 78.04 Q 289.953 78.174 290.244 78.174 Q 290.737 78.174 291.067 77.967 Q 291.398 77.76 291.756 77.469 L 291.756 74.322 Q 291.756 73.862 291.554 73.756 Q 291.353 73.65 290.782 73.65 L 290.782 73.246 L 292.45 73.034 L 292.842 73.034 L 292.842 77.57 Q 292.842 77.906 292.904 78.062 Q 292.966 78.219 293.122 78.258 Q 293.279 78.298 293.559 78.298 Z " fill="black" /><path d="M 298.05 77.749 L 298.05 77.749 L 298.308 77.962 Q 298.062 78.298 297.86 78.527 Q 297.658 78.757 297.401 78.88 Q 297.143 79.003 296.74 79.003 Q 296.09 79.003 295.794 78.634 Q 295.497 78.264 295.497 77.446 L 295.497 73.683 L 294.791 73.683 L 294.791 73.347 Q 295.194 73.056 295.53 72.636 Q 295.866 72.216 296.202 71.432 L 296.594 71.432 L 296.583 73.134 L 298.006 73.134 L 298.006 73.683 L 296.583 73.683 L 296.583 77.077 Q 296.583 77.704 296.701 77.967 Q 296.818 78.23 297.177 78.23 Q 297.502 78.23 297.67 78.113 Q 297.838 77.995 298.05 77.749 Z " fill="black" /><path d="M 306.487 67.749 L 306.487 67.749 Q 308.135 67.749 309.087 68.773 Q 310.039 69.797 310.039 71.573 Q 310.039 72.917 309.583 73.829 Q 309.127 74.741 308.327 75.205 Q 307.527 75.669 306.487 75.669 Q 304.807 75.669 303.855 74.621 Q 302.903 73.573 302.903 71.637 Q 302.903 70.469 303.351 69.597 Q 303.799 68.725 304.607 68.237 Q 305.415 67.749 306.487 67.749 Z M 306.423 68.357 L 306.423 68.357 Q 305.511 68.357 304.951 69.125 Q 304.391 69.893 304.391 71.429 Q 304.391 73.333 304.959 74.189 Q 305.527 75.045 306.551 75.029 Q 307.207 75.029 307.655 74.725 Q 308.103 74.421 308.335 73.685 Q 308.567 72.949 308.567 71.653 Q 308.567 70.181 308.031 69.269 Q 307.495 68.357 306.423 68.357 Z " fill="black" /><path d="M 313.511 67.797 L 313.511 67.797 L 313.511 69.445 L 313.559 69.445 Q 314.167 68.549 314.607 68.125 Q 315.047 67.701 315.623 67.701 Q 316.087 67.701 316.319 67.941 Q 316.551 68.181 316.551 68.597 Q 316.551 69.045 316.335 69.253 Q 316.119 69.461 315.847 69.461 Q 315.591 69.461 315.391 69.325 Q 315.191 69.189 315.047 69.053 Q 314.903 68.917 314.807 68.917 Q 314.535 68.917 314.183 69.333 Q 313.831 69.749 313.543 70.229 L 313.543 73.877 Q 313.543 74.373 313.671 74.629 Q 313.799 74.885 314.127 74.965 Q 314.455 75.045 315.047 75.045 L 315.047 75.509 L 311.047 75.509 L 311.047 75.045 Q 311.575 75.045 311.823 74.957 Q 312.071 74.869 312.143 74.637 Q 312.215 74.405 312.215 73.957 L 312.215 69.557 Q 312.215 69.125 312.143 68.909 Q 312.071 68.693 311.639 68.693 Q 311.399 68.693 311.271 68.709 Q 311.143 68.725 311.143 68.725 L 311.143 68.277 L 313.127 67.797 Z " fill="black" /><path d="M 324.855 73.509 L 324.855 73.509 L 329.223 66.949 Q 329.447 66.629 329.583 66.357 Q 329.719 66.085 329.719 65.893 Q 329.719 65.653 329.511 65.565 Q 329.303 65.477 328.759 65.477 L 328.791 64.997 L 332.247 64.997 L 332.215 65.477 Q 331.783 65.477 331.479 65.605 Q 331.175 65.733 330.863 66.093 Q 330.551 66.453 330.055 67.189 L 324.183 75.589 L 323.655 75.589 L 322.759 66.933 Q 322.663 66.133 322.407 65.805 Q 322.151 65.477 321.511 65.477 L 321.543 64.997 L 325.463 64.997 L 325.415 65.477 Q 324.807 65.477 324.455 65.717 Q 324.103 65.957 324.135 66.501 Q 324.135 66.581 324.159 66.789 Q 324.183 66.997 324.183 67.077 L 324.663 71.637 L 324.775 73.509 Z " fill="black" /><path d="M 332.156 72.989 L 332.156 72.989 Q 332.996 72.989 333.623 73.353 Q 334.25 73.717 334.592 74.372 Q 334.934 75.027 334.934 75.912 Q 334.934 76.976 334.575 77.659 Q 334.217 78.342 333.59 78.673 Q 332.962 79.003 332.156 79.003 Q 331.338 79.003 330.706 78.662 Q 330.073 78.32 329.72 77.637 Q 329.367 76.954 329.367 75.923 Q 329.367 75.05 329.714 74.389 Q 330.062 73.728 330.689 73.358 Q 331.316 72.989 332.156 72.989 Z M 332.134 73.504 L 332.134 73.504 Q 331.394 73.504 330.974 74.103 Q 330.554 74.702 330.554 75.856 Q 330.554 77.278 330.986 77.866 Q 331.417 78.454 332.19 78.454 Q 332.682 78.443 333.03 78.208 Q 333.377 77.973 333.562 77.418 Q 333.746 76.864 333.746 75.912 Q 333.746 74.77 333.354 74.137 Q 332.962 73.504 332.134 73.504 Z " fill="black" /><path d="M 342.55 78.298 L 342.55 78.298 L 342.55 78.723 L 341.038 78.925 L 340.679 78.925 L 340.679 78.051 L 340.567 78.051 Q 340.142 78.432 339.705 78.706 Q 339.268 78.981 338.652 78.981 Q 337.823 78.981 337.386 78.477 Q 336.95 77.973 336.95 76.73 L 336.95 74.322 Q 336.95 73.862 336.787 73.756 Q 336.625 73.65 336.11 73.65 L 336.11 73.246 L 337.666 73.034 L 338.036 73.034 L 338.036 76.584 Q 338.036 77.211 338.182 77.558 Q 338.327 77.906 338.574 78.04 Q 338.82 78.174 339.111 78.174 Q 339.604 78.174 339.934 77.967 Q 340.265 77.76 340.623 77.469 L 340.623 74.322 Q 340.623 73.862 340.422 73.756 Q 340.22 73.65 339.649 73.65 L 339.649 73.246 L 341.318 73.034 L 341.71 73.034 L 341.71 77.57 Q 341.71 77.906 341.771 78.062 Q 341.833 78.219 341.99 78.258 Q 342.146 78.298 342.426 78.298 Z " fill="black" /><path d="M 346.918 77.749 L 346.918 77.749 L 347.175 77.962 Q 346.929 78.298 346.727 78.527 Q 346.526 78.757 346.268 78.88 Q 346.01 79.003 345.607 79.003 Q 344.958 79.003 344.661 78.634 Q 344.364 78.264 344.364 77.446 L 344.364 73.683 L 343.658 73.683 L 343.658 73.347 Q 344.062 73.056 344.398 72.636 Q 344.734 72.216 345.07 71.432 L 345.462 71.432 L 345.45 73.134 L 346.873 73.134 L 346.873 73.683 L 345.45 73.683 L 345.45 77.077 Q 345.45 77.704 345.568 77.967 Q 345.686 78.23 346.044 78.23 Q 346.369 78.23 346.537 78.113 Q 346.705 77.995 346.918 77.749 Z " fill="black" /></g></g></g><g><g><g><path d="M 243.704 213.498 L 243.704 213.498 L 239.432 213.498 L 239.528 213.018 Q 240.12 213.018 240.432 212.906 Q 240.744 212.794 240.904 212.482 Q 241.064 212.17 241.176 211.594 L 242.6 204.682 L 242.536 204.682 L 237.16 213.498 L 236.808 213.498 L 234.872 204.698 L 234.808 204.698 L 233.48 211.162 Q 233.32 211.978 233.344 212.378 Q 233.368 212.778 233.656 212.898 Q 233.944 213.018 234.552 213.018 L 234.456 213.498 L 230.76 213.498 L 230.856 213.018 Q 231.48 213.018 231.816 212.898 Q 232.152 212.778 232.344 212.378 Q 232.536 211.978 232.696 211.162 L 233.96 204.938 Q 234.088 204.33 234.04 204.018 Q 233.992 203.706 233.696 203.586 Q 233.4 203.466 232.76 203.466 L 232.856 202.986 L 236.056 202.986 L 237.784 211.082 L 237.848 211.082 L 242.728 202.986 L 245.752 202.986 L 245.656 203.466 Q 245.096 203.466 244.768 203.586 Q 244.44 203.706 244.264 204.018 Q 244.088 204.33 243.96 204.922 L 242.6 211.594 Q 242.424 212.474 242.688 212.746 Q 242.952 213.018 243.8 213.018 Z " fill="black" /><path d="M 251.128 215.099 L 251.128 215.099 Q 251.128 216.04 250.445 216.527 Q 249.762 217.014 248.686 217.014 Q 248.003 217.014 247.454 216.813 Q 246.906 216.611 246.592 216.208 Q 246.278 215.805 246.278 215.2 Q 246.278 214.718 246.469 214.394 Q 246.659 214.069 247.023 213.794 Q 247.387 213.52 247.891 213.195 L 247.891 213.15 Q 247.275 212.747 246.962 212.428 Q 246.648 212.109 246.536 211.784 Q 246.424 211.459 246.424 211.056 Q 246.424 210.518 246.721 210.126 Q 247.018 209.734 247.538 209.527 Q 248.059 209.32 248.72 209.32 Q 249.314 209.32 249.79 209.527 Q 250.266 209.734 250.546 210.098 Q 250.826 210.462 250.826 210.933 Q 250.826 211.358 250.68 211.655 Q 250.534 211.952 250.21 212.204 Q 249.885 212.456 249.347 212.747 L 249.347 212.803 Q 250.03 213.195 250.417 213.537 Q 250.803 213.878 250.966 214.248 Q 251.128 214.618 251.128 215.099 Z M 248.283 213.408 L 248.283 213.408 Q 247.768 213.811 247.516 214.164 Q 247.264 214.517 247.264 215.077 Q 247.264 215.894 247.667 216.258 Q 248.07 216.622 248.731 216.622 Q 249.28 216.622 249.672 216.337 Q 250.064 216.051 250.064 215.469 Q 250.064 215.088 249.918 214.786 Q 249.773 214.483 249.386 214.158 Q 249 213.834 248.283 213.408 Z M 249.896 210.922 L 249.896 210.922 Q 249.896 210.328 249.577 210.048 Q 249.258 209.768 248.698 209.768 Q 248.093 209.768 247.762 210.048 Q 247.432 210.328 247.432 210.888 Q 247.432 211.213 247.578 211.465 Q 247.723 211.717 248.054 211.963 Q 248.384 212.21 248.91 212.546 Q 249.515 212.187 249.706 211.829 Q 249.896 211.47 249.896 210.922 Z " fill="black" /></g></g></g><g><g><g><path d="M -7.81 -104.96 L -7.81 -104.96 L -3.442 -111.52 Q -3.218 -111.84 -3.082 -112.112 Q -2.946 -112.384 -2.946 -112.576 Q -2.946 -112.816 -3.154 -112.904 Q -3.362 -112.992 -3.906 -112.992 L -3.874 -113.472 L -0.418 -113.472 L -0.45 -112.992 Q -0.882 -112.992 -1.186 -112.864 Q -1.49 -112.736 -1.802 -112.376 Q -2.114 -112.016 -2.61 -111.28 L -8.482 -102.88 L -9.01 -102.88 L -9.906 -111.536 Q -10.002 -112.336 -10.258 -112.664 Q -10.514 -112.992 -11.154 -112.992 L -11.122 -113.472 L -7.202 -113.472 L -7.25 -112.992 Q -7.858 -112.992 -8.21 -112.752 Q -8.562 -112.512 -8.53 -111.968 Q -8.53 -111.888 -8.506 -111.68 Q -8.482 -111.472 -8.482 -111.392 L -8.002 -106.832 L -7.89 -104.96 Z " fill="black" /><path d="M -1.679 -107.474 L -1.679 -107.474 L 1.714 -107.474 Q 2.61 -107.474 3.428 -107.278 Q 4.246 -107.082 4.89 -106.634 Q 5.534 -106.186 5.909 -105.435 Q 6.284 -104.685 6.284 -103.565 Q 6.284 -102.512 5.942 -101.756 Q 5.601 -101 4.985 -100.524 Q 4.369 -100.048 3.551 -99.824 Q 2.734 -99.6 1.782 -99.6 L -1.679 -99.6 L -1.679 -100.026 Q -1.153 -100.026 -0.906 -100.104 Q -0.66 -100.182 -0.587 -100.423 Q -0.514 -100.664 -0.514 -101.157 L -0.514 -106.018 Q -0.514 -106.477 -0.621 -106.695 Q -0.727 -106.914 -0.979 -106.981 Q -1.231 -107.048 -1.679 -107.048 Z M 0.684 -106.914 L 0.684 -106.914 L 0.684 -100.138 Q 0.863 -100.126 1.037 -100.121 Q 1.21 -100.115 1.378 -100.115 Q 2.487 -100.115 3.266 -100.406 Q 4.044 -100.698 4.453 -101.426 Q 4.862 -102.154 4.862 -103.464 Q 4.862 -105.144 4.005 -106.034 Q 3.148 -106.925 1.289 -106.925 Q 1.132 -106.925 0.986 -106.925 Q 0.841 -106.925 0.684 -106.914 Z " fill="black" /><path d="M 7.639 -107.474 L 7.639 -107.474 L 11.033 -107.474 Q 11.929 -107.474 12.746 -107.278 Q 13.564 -107.082 14.208 -106.634 Q 14.852 -106.186 15.227 -105.435 Q 15.602 -104.685 15.602 -103.565 Q 15.602 -102.512 15.261 -101.756 Q 14.919 -101 14.303 -100.524 Q 13.687 -100.048 12.87 -99.824 Q 12.052 -99.6 11.1 -99.6 L 7.639 -99.6 L 7.639 -100.026 Q 8.166 -100.026 8.412 -100.104 Q 8.658 -100.182 8.731 -100.423 Q 8.804 -100.664 8.804 -101.157 L 8.804 -106.018 Q 8.804 -106.477 8.698 -106.695 Q 8.591 -106.914 8.339 -106.981 Q 8.087 -107.048 7.639 -107.048 Z M 10.002 -106.914 L 10.002 -106.914 L 10.002 -100.138 Q 10.182 -100.126 10.355 -100.121 Q 10.529 -100.115 10.697 -100.115 Q 11.806 -100.115 12.584 -100.406 Q 13.362 -100.698 13.771 -101.426 Q 14.18 -102.154 14.18 -103.464 Q 14.18 -105.144 13.323 -106.034 Q 12.466 -106.925 10.607 -106.925 Q 10.45 -106.925 10.305 -106.925 Q 10.159 -106.925 10.002 -106.914 Z " fill="black" /></g></g></g></svg>