<svg xmlns="http://www.w3.org/2000/svg" xml:lang="en" height="109.64pt" width="465.36159999999995pt" viewBox="-82.7616 -82.0 465.36159999999995 109.64"><circle cx="36.0" cy="-72.0" r="2.6999999999999997" style="stroke:black;fill:black;stroke-width:2.0;stroke-dasharray:-;" /><circle cx="54.0" cy="-72.0" r="2.6999999999999997" style="stroke:black;fill:black;stroke-width:2.0;stroke-dasharray:-;" /><circle cx="72.0" cy="-72.0" r="2.6999999999999997" style="stroke:black;fill:black;stroke-width:2.0;stroke-dasharray:-;" /><circle cx="108.0" cy="-36.0" r="18.0" style="stroke:black;fill:none;stroke-width:2.0;stroke-dasharray:-;" /><path d="M 0.0,-0.0 L 2.0059714570033646e-15,-32.76 M -8.999999999999998,-32.76 L 9.000000000000002,-32.76 M -8.999999999999998,-39.24 L 9.000000000000002,-39.24 M 2.402757019927107e-15,-39.24 L 4.408728476930472e-15,-72.0" style="stroke:black;fill:none;stroke-width:2.0;stroke-dasharray:-;stroke-linecap:round;stroke-linejoin:round;" /><path d="M 4.408728476930472e-15,-72.0 L 9.000000000000004,-72.0 L 18.000000000000004,-72.0" style="stroke:black;fill:none;stroke-width:2.0;stroke-dasharray:-;stroke-linecap:round;stroke-linejoin:round;" /><path d="M 90.0,-72.0 L 99.0,-72.0 L 108.0,-72.0" style="stroke:black;fill:none;stroke-width:2.0;stroke-dasharray:-;stroke-linecap:round;stroke-linejoin:round;" /><path d="M 108.0,-72.0 L 108.0,-54.0 L 108.0,-54.0 M 107.99999999999999,-18.0 L 107.99999999999999,-18.0 L 107.99999999999999,-0.0" style="stroke:black;fill:none;stroke-width:2.0;stroke-dasharray:-;stroke-linecap:round;stroke-linejoin:round;" /><path d="M 108.0,-45.0 L 107.99999999999999,-36.0" style="stroke:black;fill:none;stroke-width:2.0;stroke-dasharray:-;stroke-linecap:round;stroke-linejoin:round;" /><path d="M 107.99999999999999 -29.0 L 105.3 -36.0 L 110.69999999999999 -36.0 Z" style="stroke:black;fill:black;stroke-linecap:butt;stroke-linejoin:miter;" /><path d="M 107.99999999999999,-0.0 L 107.99999999999999,14.4 L 98.99999999999999,14.4 L 116.99999999999999,14.4 M 101.69999999999999,18.72 L 114.29999999999998,18.72 M 106.19999999999999,23.04 L 109.79999999999998,23.04" style="stroke:black;fill:none;stroke-width:2.0;stroke-dasharray:-;stroke-linecap:round;stroke-linejoin:round;" /><path d="M 107.99999999999999,-0.0 L 53.999999999999986,-6.613092715395707e-15 L -1.5987211554602254e-14,-1.3226185430791413e-14" style="stroke:black;fill:none;stroke-width:2.0;stroke-dasharray:-;stroke-linecap:round;stroke-linejoin:round;" /><path d="M 107.99999999999999,-0.0 L 162.0,-0.0 L 216.0,-0.0" style="stroke:black;fill:none;stroke-width:2.0;stroke-dasharray:-;stroke-linecap:round;stroke-linejoin:round;" /><path d="M 216.0,-0.0 L 216.0,-18.0 L 207.0,-21.0 L 225.0,-27.0 L 207.0,-33.0 L 225.0,-39.0 L 207.0,-45.0 L 225.0,-50.99999999999999 L 216.0,-54.0 L 216.0,-72.0" style="stroke:black;fill:none;stroke-width:2.0;stroke-dasharray:-;stroke-linecap:round;stroke-linejoin:round;" /><path d="M 216.0,-72.0 L 162.0,-72.0 L 108.0,-72.00000000000001" style="stroke:black;fill:none;stroke-width:2.0;stroke-dasharray:-;stroke-linecap:round;stroke-linejoin:round;" /><path d="M 216.0,-72.0 L 270.0,-72.0 L 324.0,-72.0" style="stroke:black;fill:none;stroke-width:2.0;stroke-dasharray:-;stroke-linecap:round;stroke-linejoin:round;" /><path d="M 324.0,-0.0 L 324.0,-32.76 M 315.0,-32.76 L 333.0,-32.76 M 315.0,-39.24 L 333.0,-39.24 M 324.0,-39.24 L 324.0,-72.0" style="stroke:black;fill:none;stroke-width:2.0;stroke-dasharray:-;stroke-linecap:round;stroke-linejoin:round;" /><path d="M 378.0,-72.0 L 378.0,-36.0 L 378.0,-9.0" style="stroke:black;fill:none;stroke-width:2.0;stroke-dasharray:-;stroke-linecap:round;stroke-linejoin:round;" /><path d="M 378.0 -2.0 L 375.3 -9.0 L 380.7 -9.0 Z" style="stroke:black;fill:black;stroke-linecap:butt;stroke-linejoin:miter;" /><path d="M 324.0,-0.0 L 270.0,-6.613092715395707e-15 L 216.0,-1.3226185430791413e-14" style="stroke:black;fill:none;stroke-width:2.0;stroke-dasharray:-;stroke-linecap:round;stroke-linejoin:round;" /><path d="M -53.99999999999999,-72.0 L -54.0,-36.0 L -54.00000000000001,-9.0" style="stroke:black;fill:none;stroke-width:2.0;stroke-dasharray:-;stroke-linecap:round;stroke-linejoin:round;" /><path d="M -54.00000000000001 -2.0 L -56.7 -9.0 L -51.300000000000004 -9.0 Z" style="stroke:black;fill:black;stroke-linecap:butt;stroke-linejoin:miter;" /><g><g><g><path d="M -24.51 -36.062 L -24.51 -36.062 L -24.222 -35.758 Q -25.038 -34.798 -26.11 -34.182 Q -27.182 -33.566 -28.702 -33.566 Q -30.142 -33.566 -31.006 -34.102 Q -31.87 -34.638 -32.246 -35.534 Q -32.622 -36.43 -32.622 -37.486 Q -32.622 -39.166 -32.11 -40.47 Q -31.598 -41.774 -30.71 -42.662 Q -29.822 -43.55 -28.702 -44.006 Q -27.582 -44.462 -26.366 -44.462 Q -25.55 -44.462 -25.094 -44.318 Q -24.638 -44.174 -24.382 -44.022 Q -24.126 -43.87 -23.934 -43.87 Q -23.742 -43.87 -23.598 -44.03 Q -23.454 -44.19 -23.262 -44.446 L -22.798 -44.446 L -23.55 -40.782 L -24.078 -40.782 Q -24.014 -42.382 -24.67 -43.078 Q -25.326 -43.774 -26.51 -43.774 Q -27.438 -43.774 -28.254 -43.35 Q -29.07 -42.926 -29.702 -42.15 Q -30.334 -41.374 -30.694 -40.294 Q -31.054 -39.214 -31.054 -37.886 Q -31.054 -36.286 -30.294 -35.446 Q -29.534 -34.606 -27.95 -34.606 Q -26.11 -34.606 -24.51 -36.062 Z " fill="black" /><path d="M -21.675 -32.634 L -21.675 -32.634 L -21.675 -32.678 Q -22.067 -32.914 -22.342 -33.289 Q -22.616 -33.664 -22.616 -34.258 Q -22.616 -34.885 -22.314 -35.333 Q -22.011 -35.781 -21.496 -36.022 Q -20.981 -36.262 -20.342 -36.262 Q -19.749 -36.262 -19.374 -36.134 Q -18.998 -36.005 -18.998 -36.005 L -17.352 -36.05 L -17.352 -35.389 L -18.528 -35.411 L -18.528 -35.333 Q -18.382 -35.131 -18.226 -34.857 Q -18.069 -34.582 -18.069 -34.09 Q -18.069 -33.53 -18.366 -33.121 Q -18.662 -32.712 -19.161 -32.494 Q -19.659 -32.275 -20.286 -32.275 Q -20.858 -32.275 -21.362 -32.477 Q -21.44 -32.331 -21.546 -32.062 Q -21.653 -31.794 -21.653 -31.603 Q -21.653 -31.368 -21.378 -31.256 Q -21.104 -31.144 -20.286 -31.144 Q -19.682 -31.144 -19.166 -31.116 Q -18.651 -31.088 -18.27 -30.959 Q -17.89 -30.83 -17.682 -30.545 Q -17.475 -30.259 -17.475 -29.733 Q -17.475 -29.128 -17.783 -28.708 Q -18.091 -28.288 -18.595 -28.03 Q -19.099 -27.773 -19.687 -27.655 Q -20.275 -27.538 -20.846 -27.538 Q -21.664 -27.538 -22.112 -27.739 Q -22.56 -27.941 -22.734 -28.254 Q -22.907 -28.568 -22.907 -28.893 Q -22.907 -29.206 -22.689 -29.514 Q -22.47 -29.822 -21.989 -30.27 L -21.989 -30.326 Q -22.269 -30.472 -22.459 -30.718 Q -22.65 -30.965 -22.65 -31.2 Q -22.65 -31.536 -22.353 -31.911 Q -22.056 -32.286 -21.675 -32.634 Z M -21.619 -30.214 L -21.619 -30.214 Q -21.81 -29.89 -21.877 -29.699 Q -21.944 -29.509 -21.944 -29.318 Q -21.944 -28.803 -21.524 -28.54 Q -21.104 -28.277 -20.219 -28.277 Q -19.491 -28.277 -19.043 -28.456 Q -18.595 -28.635 -18.382 -28.887 Q -18.17 -29.139 -18.17 -29.374 Q -18.17 -29.677 -18.366 -29.845 Q -18.562 -30.013 -18.864 -30.086 Q -19.166 -30.158 -19.502 -30.181 Q -19.838 -30.203 -20.13 -30.203 Q -20.208 -30.203 -20.253 -30.203 Q -20.97 -30.203 -21.233 -30.209 Q -21.496 -30.214 -21.619 -30.214 Z M -20.41 -35.77 L -20.41 -35.77 Q -20.891 -35.77 -21.188 -35.445 Q -21.485 -35.12 -21.485 -34.325 Q -21.485 -33.541 -21.171 -33.138 Q -20.858 -32.734 -20.286 -32.734 Q -19.984 -32.734 -19.738 -32.858 Q -19.491 -32.981 -19.34 -33.306 Q -19.189 -33.63 -19.189 -34.224 Q -19.189 -34.986 -19.519 -35.378 Q -19.85 -35.77 -20.41 -35.77 Z " fill="black" /><path d="M -16.366 -32.421 L -16.366 -32.421 L -16.008 -32.421 Q -15.862 -31.771 -15.661 -31.413 Q -15.459 -31.054 -15.14 -30.914 Q -14.821 -30.774 -14.362 -30.774 Q -13.835 -30.774 -13.55 -30.948 Q -13.264 -31.122 -13.264 -31.558 Q -13.264 -31.85 -13.404 -32.046 Q -13.544 -32.242 -13.852 -32.421 Q -14.16 -32.6 -14.675 -32.835 Q -15.202 -33.093 -15.577 -33.317 Q -15.952 -33.541 -16.148 -33.843 Q -16.344 -34.146 -16.344 -34.605 Q -16.344 -35.411 -15.801 -35.837 Q -15.258 -36.262 -14.44 -36.262 Q -13.947 -36.262 -13.606 -36.139 Q -13.264 -36.016 -13.062 -35.926 L -13.04 -35.926 L -12.861 -36.206 L -12.547 -36.206 L -12.525 -34.347 L -12.917 -34.347 Q -13.13 -35.21 -13.51 -35.506 Q -13.891 -35.803 -14.384 -35.803 Q -14.899 -35.803 -15.162 -35.579 Q -15.426 -35.355 -15.426 -34.997 Q -15.426 -34.706 -15.246 -34.515 Q -15.067 -34.325 -14.737 -34.162 Q -14.406 -34 -13.947 -33.776 Q -13.432 -33.53 -13.04 -33.266 Q -12.648 -33.003 -12.424 -32.673 Q -12.2 -32.342 -12.2 -31.85 Q -12.2 -31.256 -12.514 -30.898 Q -12.827 -30.539 -13.32 -30.388 Q -13.813 -30.237 -14.35 -30.237 Q -14.899 -30.237 -15.202 -30.349 Q -15.504 -30.461 -15.762 -30.562 L -15.806 -30.562 L -16.086 -30.27 L -16.344 -30.27 Z " fill="black" /></g></g></g><circle cx="108.0" cy="-72.0" r="2.6999999999999997" style="stroke:black;fill:black;stroke-width:2.0;stroke-dasharray:-;" /><circle cx="107.99999999999999" cy="-0.0" r="2.6999999999999997" style="stroke:black;fill:black;stroke-width:2.0;stroke-dasharray:-;" /><g><g><g><path d="M 55.195 -40.09 L 55.195 -40.09 L 55.099 -39.274 L 53.707 -39.434 L 53.707 -39.386 Q 53.979 -39.082 54.131 -38.626 Q 54.283 -38.17 54.283 -37.754 Q 54.283 -37.034 53.995 -36.546 Q 53.707 -36.058 53.243 -35.762 Q 52.779 -35.466 52.219 -35.314 Q 51.659 -35.162 51.131 -35.114 Q 50.491 -35.05 50.227 -34.842 Q 49.963 -34.634 49.963 -34.41 Q 49.963 -34.122 50.283 -33.97 Q 50.603 -33.818 51.107 -33.722 Q 51.611 -33.626 52.187 -33.506 Q 52.763 -33.386 53.267 -33.178 Q 53.771 -32.97 54.091 -32.594 Q 54.411 -32.218 54.411 -31.594 Q 54.411 -30.906 53.963 -30.322 Q 53.515 -29.738 52.635 -29.378 Q 51.755 -29.018 50.475 -29.018 Q 49.323 -29.018 48.635 -29.298 Q 47.947 -29.578 47.643 -30.018 Q 47.339 -30.458 47.339 -30.938 Q 47.339 -31.706 47.931 -32.178 Q 48.523 -32.65 49.275 -32.89 L 49.275 -32.954 Q 49.067 -33.082 48.883 -33.314 Q 48.699 -33.546 48.699 -33.914 Q 48.699 -34.314 48.907 -34.554 Q 49.115 -34.794 49.443 -34.946 Q 49.771 -35.098 50.091 -35.21 L 50.091 -35.306 Q 49.467 -35.578 49.003 -36.074 Q 48.539 -36.57 48.539 -37.482 Q 48.539 -38.314 48.939 -38.946 Q 49.339 -39.578 50.035 -39.93 Q 50.731 -40.282 51.595 -40.282 Q 52.171 -40.282 52.467 -40.226 Q 52.763 -40.17 53.051 -40.09 Z M 53.259 -31.002 L 53.259 -31.002 Q 53.259 -31.482 52.859 -31.778 Q 52.459 -32.074 51.867 -32.25 Q 51.275 -32.426 50.675 -32.53 Q 50.075 -32.634 49.659 -32.714 Q 49.259 -32.458 48.923 -32.13 Q 48.587 -31.802 48.587 -31.178 Q 48.587 -30.538 49.083 -30.058 Q 49.579 -29.578 50.795 -29.578 Q 51.947 -29.578 52.603 -30.002 Q 53.259 -30.426 53.259 -31.002 Z M 52.859 -37.93 L 52.859 -37.93 Q 52.859 -38.73 52.555 -39.266 Q 52.251 -39.802 51.547 -39.802 Q 50.859 -39.802 50.411 -39.226 Q 49.963 -38.65 49.963 -37.482 Q 49.963 -36.65 50.251 -36.13 Q 50.539 -35.61 51.227 -35.61 Q 52.027 -35.61 52.443 -36.282 Q 52.859 -36.954 52.859 -37.93 Z " fill="black" /><path d="M 57.928 -33.592 L 57.928 -33.592 L 57.928 -30.49 Q 57.928 -30.154 57.995 -29.975 Q 58.062 -29.796 58.253 -29.734 Q 58.443 -29.672 58.813 -29.672 L 58.813 -29.258 L 55.99 -29.258 L 55.99 -29.672 Q 56.349 -29.672 56.528 -29.734 Q 56.707 -29.796 56.763 -29.98 Q 56.819 -30.165 56.819 -30.512 L 56.819 -33.906 Q 56.819 -34.22 56.702 -34.326 Q 56.584 -34.432 56.326 -34.432 Q 56.203 -34.432 56.108 -34.421 Q 56.013 -34.41 56.013 -34.41 L 56.013 -34.836 L 57.48 -35.104 L 57.894 -35.104 L 57.894 -34.186 L 57.973 -34.186 Q 58.443 -34.612 58.914 -34.875 Q 59.384 -35.138 60.022 -35.138 Q 60.549 -35.138 60.879 -34.869 Q 61.21 -34.6 61.389 -34.208 L 61.445 -34.208 Q 62.464 -35.138 63.405 -35.138 Q 64.166 -35.138 64.609 -34.668 Q 65.051 -34.197 65.051 -33.178 L 65.051 -30.714 Q 65.051 -30.333 65.096 -30.104 Q 65.141 -29.874 65.32 -29.773 Q 65.499 -29.672 65.902 -29.672 L 65.902 -29.258 L 63.091 -29.258 L 63.091 -29.672 Q 63.506 -29.672 63.69 -29.779 Q 63.875 -29.885 63.92 -30.115 Q 63.965 -30.344 63.965 -30.714 L 63.965 -33.044 Q 63.965 -33.749 63.679 -34.029 Q 63.394 -34.309 62.946 -34.309 Q 62.565 -34.309 62.184 -34.08 Q 61.803 -33.85 61.512 -33.626 L 61.512 -30.714 Q 61.512 -30.3 61.562 -30.07 Q 61.613 -29.84 61.809 -29.756 Q 62.005 -29.672 62.419 -29.672 L 62.419 -29.258 L 59.496 -29.258 L 59.496 -29.672 Q 59.922 -29.672 60.118 -29.756 Q 60.314 -29.84 60.37 -30.07 Q 60.426 -30.3 60.426 -30.714 L 60.426 -33.077 Q 60.426 -33.783 60.174 -34.046 Q 59.922 -34.309 59.485 -34.309 Q 59.026 -34.309 58.606 -34.063 Q 58.186 -33.816 57.928 -33.592 Z " fill="black" /><path d="M 69.595 -40.234 L 69.595 -40.234 L 69.947 -40.234 L 69.195 -37.162 Q 69.083 -36.746 68.963 -36.162 Q 68.843 -35.578 68.843 -35.034 Q 68.843 -34.41 69.099 -33.954 Q 69.355 -33.498 70.091 -33.498 Q 70.907 -33.498 71.499 -33.89 Q 72.091 -34.282 72.467 -34.89 Q 72.843 -35.498 73.027 -36.17 Q 73.211 -36.842 73.211 -37.402 Q 73.211 -37.818 73.067 -38.122 Q 72.923 -38.426 72.723 -38.666 Q 72.523 -38.906 72.379 -39.13 Q 72.235 -39.354 72.235 -39.61 Q 72.235 -39.93 72.411 -40.106 Q 72.587 -40.282 72.843 -40.282 Q 73.387 -40.282 73.723 -39.738 Q 74.059 -39.194 74.059 -38.346 Q 74.059 -37.61 73.875 -36.802 Q 73.691 -35.994 73.323 -35.226 Q 72.955 -34.458 72.411 -33.834 Q 71.867 -33.21 71.163 -32.842 Q 70.459 -32.474 69.595 -32.474 Q 68.795 -32.474 68.347 -32.794 Q 67.899 -33.114 67.715 -33.642 Q 67.531 -34.17 67.531 -34.778 Q 67.531 -35.354 67.643 -35.962 Q 67.755 -36.57 67.883 -37.066 L 68.203 -38.282 Q 68.235 -38.41 68.299 -38.666 Q 68.363 -38.922 68.363 -39.162 Q 68.363 -39.37 68.283 -39.514 Q 68.203 -39.658 67.979 -39.658 Q 67.787 -39.658 67.515 -39.634 Q 67.243 -39.61 67.243 -39.61 L 67.243 -40.058 Z " fill="black" /><path d="M 78.371 -29.672 L 78.371 -29.672 L 78.371 -29.258 L 75.526 -29.258 L 75.526 -29.672 Q 75.918 -29.672 76.092 -29.756 Q 76.266 -29.84 76.31 -30.025 Q 76.355 -30.21 76.355 -30.512 L 76.355 -33.895 Q 76.355 -34.276 76.232 -34.354 Q 76.109 -34.432 75.818 -34.432 Q 75.672 -34.432 75.582 -34.421 Q 75.493 -34.41 75.493 -34.41 L 75.493 -34.858 L 76.994 -35.104 L 77.453 -35.104 L 77.453 -30.512 Q 77.453 -30.188 77.503 -30.003 Q 77.554 -29.818 77.75 -29.745 Q 77.946 -29.672 78.371 -29.672 Z M 76.893 -37.58 L 76.893 -37.58 Q 77.218 -37.58 77.436 -37.356 Q 77.654 -37.132 77.654 -36.84 Q 77.654 -36.572 77.436 -36.348 Q 77.218 -36.124 76.893 -36.124 Q 76.579 -36.124 76.372 -36.348 Q 76.165 -36.572 76.165 -36.84 Q 76.165 -37.132 76.372 -37.356 Q 76.579 -37.58 76.893 -37.58 Z " fill="black" /><path d="M 85.024 -33.01 L 85.024 -33.01 L 85.024 -30.501 Q 85.024 -30.188 85.08 -30.003 Q 85.136 -29.818 85.326 -29.74 Q 85.517 -29.661 85.92 -29.661 L 85.92 -29.258 L 83.042 -29.258 L 83.042 -29.661 Q 83.467 -29.661 83.658 -29.74 Q 83.848 -29.818 83.893 -30.003 Q 83.938 -30.188 83.938 -30.501 L 83.938 -32.64 Q 83.938 -33.391 83.764 -33.744 Q 83.59 -34.096 83.327 -34.208 Q 83.064 -34.32 82.795 -34.32 Q 82.314 -34.32 81.95 -34.074 Q 81.586 -33.828 81.317 -33.604 L 81.317 -30.501 Q 81.317 -30.188 81.367 -30.003 Q 81.418 -29.818 81.608 -29.74 Q 81.798 -29.661 82.213 -29.661 L 82.213 -29.258 L 79.39 -29.258 L 79.39 -29.661 Q 79.782 -29.661 79.956 -29.74 Q 80.13 -29.818 80.174 -30.003 Q 80.219 -30.188 80.219 -30.501 L 80.219 -33.906 Q 80.219 -34.22 80.102 -34.326 Q 79.984 -34.432 79.726 -34.432 Q 79.592 -34.432 79.502 -34.421 Q 79.413 -34.41 79.413 -34.41 L 79.413 -34.836 L 80.914 -35.104 L 81.283 -35.104 L 81.283 -34.186 L 81.362 -34.186 Q 81.843 -34.623 82.286 -34.88 Q 82.728 -35.138 83.288 -35.138 Q 83.949 -35.138 84.324 -34.841 Q 84.699 -34.544 84.862 -34.063 Q 85.024 -33.581 85.024 -33.01 Z " fill="black" /></g></g></g><circle cx="216.0" cy="-0.0" r="2.6999999999999997" style="stroke:black;fill:black;stroke-width:2.0;stroke-dasharray:-;" /><circle cx="216.0" cy="-72.0" r="2.6999999999999997" style="stroke:black;fill:black;stroke-width:2.0;stroke-dasharray:-;" /><g><g><g><path d="M 190.611 -42.79 L 190.611 -42.79 L 190.515 -41.974 L 189.123 -42.134 L 189.123 -42.086 Q 189.395 -41.782 189.547 -41.326 Q 189.699 -40.87 189.699 -40.454 Q 189.699 -39.734 189.411 -39.246 Q 189.123 -38.758 188.659 -38.462 Q 188.195 -38.166 187.635 -38.014 Q 187.075 -37.862 186.547 -37.814 Q 185.907 -37.75 185.643 -37.542 Q 185.379 -37.334 185.379 -37.11 Q 185.379 -36.822 185.699 -36.67 Q 186.019 -36.518 186.523 -36.422 Q 187.027 -36.326 187.603 -36.206 Q 188.179 -36.086 188.683 -35.878 Q 189.187 -35.67 189.507 -35.294 Q 189.827 -34.918 189.827 -34.294 Q 189.827 -33.606 189.379 -33.022 Q 188.931 -32.438 188.051 -32.078 Q 187.171 -31.718 185.891 -31.718 Q 184.739 -31.718 184.051 -31.998 Q 183.363 -32.278 183.059 -32.718 Q 182.755 -33.158 182.755 -33.638 Q 182.755 -34.406 183.347 -34.878 Q 183.939 -35.35 184.691 -35.59 L 184.691 -35.654 Q 184.483 -35.782 184.299 -36.014 Q 184.115 -36.246 184.115 -36.614 Q 184.115 -37.014 184.323 -37.254 Q 184.531 -37.494 184.859 -37.646 Q 185.187 -37.798 185.507 -37.91 L 185.507 -38.006 Q 184.883 -38.278 184.419 -38.774 Q 183.955 -39.27 183.955 -40.182 Q 183.955 -41.014 184.355 -41.646 Q 184.755 -42.278 185.451 -42.63 Q 186.147 -42.982 187.011 -42.982 Q 187.587 -42.982 187.883 -42.926 Q 188.179 -42.87 188.467 -42.79 Z M 188.675 -33.702 L 188.675 -33.702 Q 188.675 -34.182 188.275 -34.478 Q 187.875 -34.774 187.283 -34.95 Q 186.691 -35.126 186.091 -35.23 Q 185.491 -35.334 185.075 -35.414 Q 184.675 -35.158 184.339 -34.83 Q 184.003 -34.502 184.003 -33.878 Q 184.003 -33.238 184.499 -32.758 Q 184.995 -32.278 186.211 -32.278 Q 187.363 -32.278 188.019 -32.702 Q 188.675 -33.126 188.675 -33.702 Z M 188.275 -40.63 L 188.275 -40.63 Q 188.275 -41.43 187.971 -41.966 Q 187.667 -42.502 186.963 -42.502 Q 186.275 -42.502 185.827 -41.926 Q 185.379 -41.35 185.379 -40.182 Q 185.379 -39.35 185.667 -38.83 Q 185.955 -38.31 186.643 -38.31 Q 187.443 -38.31 187.859 -38.982 Q 188.275 -39.654 188.275 -40.63 Z " fill="black" /><path d="M 197.454 -32.104 L 197.454 -32.104 L 195.942 -31.902 L 195.539 -31.902 L 195.539 -32.686 L 195.461 -32.686 Q 195.091 -32.372 194.626 -32.115 Q 194.162 -31.857 193.579 -31.857 Q 192.918 -31.857 192.454 -32.216 Q 191.989 -32.574 191.742 -33.201 Q 191.496 -33.828 191.496 -34.624 Q 191.496 -35.62 191.882 -36.343 Q 192.269 -37.065 192.913 -37.452 Q 193.557 -37.838 194.318 -37.838 Q 194.979 -37.838 195.517 -37.536 L 195.517 -38.98 Q 195.517 -39.384 195.433 -39.512 Q 195.349 -39.641 194.99 -39.641 Q 194.912 -39.641 194.783 -39.624 Q 194.654 -39.608 194.654 -39.608 L 194.654 -40.033 L 196.144 -40.324 L 196.603 -40.324 L 196.603 -33.224 Q 196.603 -32.787 196.726 -32.658 Q 196.85 -32.529 197.152 -32.529 L 197.454 -32.529 Z M 195.517 -33.201 L 195.517 -33.201 L 195.517 -36.472 Q 195.394 -36.785 195.108 -37.032 Q 194.822 -37.278 194.296 -37.278 Q 193.546 -37.278 193.064 -36.768 Q 192.582 -36.259 192.582 -35.083 Q 192.582 -33.884 193.002 -33.33 Q 193.422 -32.776 194.184 -32.776 Q 194.542 -32.776 194.839 -32.876 Q 195.136 -32.977 195.517 -33.201 Z " fill="black" /><path d="M 198.642 -33.996 L 198.642 -33.996 L 199 -33.996 Q 199.146 -33.347 199.347 -32.988 Q 199.549 -32.63 199.868 -32.49 Q 200.187 -32.35 200.646 -32.35 Q 201.173 -32.35 201.458 -32.524 Q 201.744 -32.697 201.744 -33.134 Q 201.744 -33.425 201.604 -33.621 Q 201.464 -33.817 201.156 -33.996 Q 200.848 -34.176 200.333 -34.411 Q 199.806 -34.668 199.431 -34.892 Q 199.056 -35.116 198.86 -35.419 Q 198.664 -35.721 198.664 -36.18 Q 198.664 -36.987 199.207 -37.412 Q 199.75 -37.838 200.568 -37.838 Q 201.061 -37.838 201.402 -37.715 Q 201.744 -37.592 201.946 -37.502 L 201.968 -37.502 L 202.147 -37.782 L 202.461 -37.782 L 202.483 -35.923 L 202.091 -35.923 Q 201.878 -36.785 201.498 -37.082 Q 201.117 -37.379 200.624 -37.379 Q 200.109 -37.379 199.846 -37.155 Q 199.582 -36.931 199.582 -36.572 Q 199.582 -36.281 199.762 -36.091 Q 199.941 -35.9 200.271 -35.738 Q 200.602 -35.576 201.061 -35.352 Q 201.576 -35.105 201.968 -34.842 Q 202.36 -34.579 202.584 -34.248 Q 202.808 -33.918 202.808 -33.425 Q 202.808 -32.832 202.494 -32.473 Q 202.181 -32.115 201.688 -31.964 Q 201.195 -31.812 200.658 -31.812 Q 200.109 -31.812 199.806 -31.924 Q 199.504 -32.036 199.246 -32.137 L 199.202 -32.137 L 198.922 -31.846 L 198.664 -31.846 Z " fill="black" /></g></g></g><g><g><g><path d="M 299.49 -34.044 L 299.49 -34.044 L 299.778 -33.74 Q 298.962 -32.78 297.89 -32.164 Q 296.818 -31.548 295.298 -31.548 Q 293.858 -31.548 292.994 -32.084 Q 292.13 -32.62 291.754 -33.516 Q 291.378 -34.412 291.378 -35.468 Q 291.378 -37.148 291.89 -38.452 Q 292.402 -39.756 293.29 -40.644 Q 294.178 -41.532 295.298 -41.988 Q 296.418 -42.444 297.634 -42.444 Q 298.45 -42.444 298.906 -42.3 Q 299.362 -42.156 299.618 -42.004 Q 299.874 -41.852 300.066 -41.852 Q 300.258 -41.852 300.402 -42.012 Q 300.546 -42.172 300.738 -42.428 L 301.202 -42.428 L 300.45 -38.764 L 299.922 -38.764 Q 299.986 -40.364 299.33 -41.06 Q 298.674 -41.756 297.49 -41.756 Q 296.562 -41.756 295.746 -41.332 Q 294.93 -40.908 294.298 -40.132 Q 293.666 -39.356 293.306 -38.276 Q 292.946 -37.196 292.946 -35.868 Q 292.946 -34.268 293.706 -33.428 Q 294.466 -32.588 296.05 -32.588 Q 297.89 -32.588 299.49 -34.044 Z " fill="black" /><path d="M 302.325 -30.615 L 302.325 -30.615 L 302.325 -30.66 Q 301.933 -30.895 301.658 -31.27 Q 301.384 -31.646 301.384 -32.239 Q 301.384 -32.866 301.686 -33.314 Q 301.989 -33.762 302.504 -34.003 Q 303.019 -34.244 303.658 -34.244 Q 304.251 -34.244 304.626 -34.115 Q 305.002 -33.986 305.002 -33.986 L 306.648 -34.031 L 306.648 -33.37 L 305.472 -33.393 L 305.472 -33.314 Q 305.618 -33.113 305.774 -32.838 Q 305.931 -32.564 305.931 -32.071 Q 305.931 -31.511 305.634 -31.102 Q 305.338 -30.694 304.839 -30.475 Q 304.341 -30.257 303.714 -30.257 Q 303.142 -30.257 302.638 -30.458 Q 302.56 -30.313 302.454 -30.044 Q 302.347 -29.775 302.347 -29.585 Q 302.347 -29.35 302.622 -29.238 Q 302.896 -29.126 303.714 -29.126 Q 304.318 -29.126 304.834 -29.098 Q 305.349 -29.07 305.73 -28.941 Q 306.11 -28.812 306.318 -28.526 Q 306.525 -28.241 306.525 -27.714 Q 306.525 -27.11 306.217 -26.69 Q 305.909 -26.27 305.405 -26.012 Q 304.901 -25.754 304.313 -25.637 Q 303.725 -25.519 303.154 -25.519 Q 302.336 -25.519 301.888 -25.721 Q 301.44 -25.922 301.266 -26.236 Q 301.093 -26.55 301.093 -26.874 Q 301.093 -27.188 301.311 -27.496 Q 301.53 -27.804 302.011 -28.252 L 302.011 -28.308 Q 301.731 -28.454 301.541 -28.7 Q 301.35 -28.946 301.35 -29.182 Q 301.35 -29.518 301.647 -29.893 Q 301.944 -30.268 302.325 -30.615 Z M 302.381 -28.196 L 302.381 -28.196 Q 302.19 -27.871 302.123 -27.681 Q 302.056 -27.49 302.056 -27.3 Q 302.056 -26.785 302.476 -26.522 Q 302.896 -26.258 303.781 -26.258 Q 304.509 -26.258 304.957 -26.438 Q 305.405 -26.617 305.618 -26.869 Q 305.83 -27.121 305.83 -27.356 Q 305.83 -27.658 305.634 -27.826 Q 305.438 -27.994 305.136 -28.067 Q 304.834 -28.14 304.498 -28.162 Q 304.162 -28.185 303.87 -28.185 Q 303.792 -28.185 303.747 -28.185 Q 303.03 -28.185 302.767 -28.19 Q 302.504 -28.196 302.381 -28.196 Z M 303.59 -33.751 L 303.59 -33.751 Q 303.109 -33.751 302.812 -33.426 Q 302.515 -33.102 302.515 -32.306 Q 302.515 -31.522 302.829 -31.119 Q 303.142 -30.716 303.714 -30.716 Q 304.016 -30.716 304.262 -30.839 Q 304.509 -30.962 304.66 -31.287 Q 304.811 -31.612 304.811 -32.206 Q 304.811 -32.967 304.481 -33.359 Q 304.15 -33.751 303.59 -33.751 Z " fill="black" /><path d="M 307.634 -30.402 L 307.634 -30.402 L 307.992 -30.402 Q 308.138 -29.753 308.339 -29.394 Q 308.541 -29.036 308.86 -28.896 Q 309.179 -28.756 309.638 -28.756 Q 310.165 -28.756 310.45 -28.93 Q 310.736 -29.103 310.736 -29.54 Q 310.736 -29.831 310.596 -30.027 Q 310.456 -30.223 310.148 -30.402 Q 309.84 -30.582 309.325 -30.817 Q 308.798 -31.074 308.423 -31.298 Q 308.048 -31.522 307.852 -31.825 Q 307.656 -32.127 307.656 -32.586 Q 307.656 -33.393 308.199 -33.818 Q 308.742 -34.244 309.56 -34.244 Q 310.053 -34.244 310.394 -34.121 Q 310.736 -33.998 310.938 -33.908 L 310.96 -33.908 L 311.139 -34.188 L 311.453 -34.188 L 311.475 -32.329 L 311.083 -32.329 Q 310.87 -33.191 310.49 -33.488 Q 310.109 -33.785 309.616 -33.785 Q 309.101 -33.785 308.838 -33.561 Q 308.574 -33.337 308.574 -32.978 Q 308.574 -32.687 308.754 -32.497 Q 308.933 -32.306 309.263 -32.144 Q 309.594 -31.982 310.053 -31.758 Q 310.568 -31.511 310.96 -31.248 Q 311.352 -30.985 311.576 -30.654 Q 311.8 -30.324 311.8 -29.831 Q 311.8 -29.238 311.486 -28.879 Q 311.173 -28.521 310.68 -28.37 Q 310.187 -28.218 309.65 -28.218 Q 309.101 -28.218 308.798 -28.33 Q 308.496 -28.442 308.238 -28.543 L 308.194 -28.543 L 307.914 -28.252 L 307.656 -28.252 Z " fill="black" /><path d="M 304.466 -44.868 L 304.466 -44.868 L 304.466 -44.633 L 304.645 -44.778 Q 304.802 -44.913 305.003 -45.12 Q 305.205 -45.327 305.401 -45.495 Q 305.597 -45.663 305.754 -45.663 Q 305.922 -45.663 306.045 -45.529 Q 306.168 -45.394 306.168 -45.215 Q 306.168 -45.014 306.017 -44.913 Q 305.866 -44.812 305.642 -44.756 Q 305.418 -44.7 305.182 -44.65 Q 304.947 -44.599 304.768 -44.51 L 304.6 -44.409 L 304.6 -44.386 L 304.79 -44.286 Q 304.97 -44.196 305.205 -44.14 Q 305.44 -44.084 305.658 -44.017 Q 305.877 -43.95 306.022 -43.843 Q 306.168 -43.737 306.168 -43.535 Q 306.168 -43.367 306.045 -43.238 Q 305.922 -43.11 305.754 -43.11 Q 305.574 -43.11 305.39 -43.289 Q 305.205 -43.468 305.02 -43.686 Q 304.835 -43.905 304.656 -44.017 L 304.466 -44.14 L 304.466 -43.905 Q 304.466 -43.636 304.589 -43.289 Q 304.712 -42.942 304.712 -42.684 Q 304.712 -42.494 304.589 -42.393 Q 304.466 -42.292 304.309 -42.292 Q 304.163 -42.292 304.029 -42.393 Q 303.894 -42.494 303.894 -42.695 Q 303.894 -42.953 304.012 -43.294 Q 304.13 -43.636 304.13 -43.905 L 304.13 -44.129 L 304.118 -44.14 L 303.928 -44.017 Q 303.838 -43.961 303.738 -43.854 Q 303.637 -43.748 303.525 -43.636 Q 303.346 -43.446 303.166 -43.278 Q 302.987 -43.11 302.83 -43.11 Q 302.662 -43.11 302.539 -43.255 Q 302.416 -43.401 302.416 -43.546 Q 302.416 -43.737 302.567 -43.843 Q 302.718 -43.95 302.942 -44.011 Q 303.166 -44.073 303.402 -44.129 Q 303.637 -44.185 303.805 -44.286 L 303.984 -44.386 L 303.984 -44.409 L 303.827 -44.51 Q 303.659 -44.599 303.424 -44.65 Q 303.189 -44.7 302.954 -44.756 Q 302.718 -44.812 302.567 -44.913 Q 302.416 -45.014 302.416 -45.204 Q 302.416 -45.361 302.539 -45.512 Q 302.662 -45.663 302.83 -45.663 Q 302.987 -45.663 303.189 -45.495 Q 303.39 -45.327 303.592 -45.114 Q 303.794 -44.902 303.95 -44.778 L 304.118 -44.644 L 304.13 -44.655 L 304.13 -44.868 Q 304.13 -45.137 304.012 -45.484 Q 303.894 -45.831 303.894 -46.078 Q 303.894 -46.29 304.029 -46.386 Q 304.163 -46.481 304.309 -46.481 Q 304.466 -46.481 304.589 -46.386 Q 304.712 -46.29 304.712 -46.089 Q 304.712 -45.921 304.65 -45.702 Q 304.589 -45.484 304.527 -45.266 Q 304.466 -45.047 304.466 -44.868 Z " fill="black" /></g></g></g><g><g><g><path d="M 346.613 -41.531 L 346.613 -41.531 L 346.965 -41.531 L 346.213 -38.459 Q 346.101 -38.043 345.981 -37.459 Q 345.861 -36.875 345.861 -36.331 Q 345.861 -35.707 346.117 -35.251 Q 346.373 -34.795 347.109 -34.795 Q 347.925 -34.795 348.517 -35.187 Q 349.109 -35.579 349.485 -36.187 Q 349.861 -36.795 350.045 -37.467 Q 350.229 -38.139 350.229 -38.699 Q 350.229 -39.115 350.085 -39.419 Q 349.941 -39.723 349.741 -39.963 Q 349.541 -40.203 349.397 -40.427 Q 349.253 -40.651 349.253 -40.907 Q 349.253 -41.227 349.429 -41.403 Q 349.605 -41.579 349.861 -41.579 Q 350.405 -41.579 350.741 -41.035 Q 351.077 -40.491 351.077 -39.643 Q 351.077 -38.907 350.893 -38.099 Q 350.709 -37.291 350.341 -36.523 Q 349.973 -35.755 349.429 -35.131 Q 348.885 -34.507 348.181 -34.139 Q 347.477 -33.771 346.613 -33.771 Q 345.813 -33.771 345.365 -34.091 Q 344.917 -34.411 344.733 -34.939 Q 344.549 -35.467 344.549 -36.075 Q 344.549 -36.651 344.661 -37.259 Q 344.773 -37.867 344.901 -38.363 L 345.221 -39.579 Q 345.253 -39.707 345.317 -39.963 Q 345.381 -40.219 345.381 -40.459 Q 345.381 -40.667 345.301 -40.811 Q 345.221 -40.955 344.997 -40.955 Q 344.805 -40.955 344.533 -40.931 Q 344.261 -40.907 344.261 -40.907 L 344.261 -41.355 Z " fill="black" /><path d="M 354.538 -36.435 L 354.538 -36.435 Q 355.378 -36.435 356.005 -36.071 Q 356.632 -35.707 356.974 -35.052 Q 357.315 -34.397 357.315 -33.512 Q 357.315 -32.448 356.957 -31.765 Q 356.598 -31.082 355.971 -30.751 Q 355.344 -30.421 354.538 -30.421 Q 353.72 -30.421 353.087 -30.762 Q 352.454 -31.104 352.102 -31.787 Q 351.749 -32.47 351.749 -33.501 Q 351.749 -34.374 352.096 -35.035 Q 352.443 -35.696 353.07 -36.066 Q 353.698 -36.435 354.538 -36.435 Z M 354.515 -35.92 L 354.515 -35.92 Q 353.776 -35.92 353.356 -35.321 Q 352.936 -34.722 352.936 -33.568 Q 352.936 -32.146 353.367 -31.558 Q 353.798 -30.97 354.571 -30.97 Q 355.064 -30.981 355.411 -31.216 Q 355.758 -31.451 355.943 -32.006 Q 356.128 -32.56 356.128 -33.512 Q 356.128 -34.654 355.736 -35.287 Q 355.344 -35.92 354.515 -35.92 Z " fill="black" /><path d="M 364.931 -31.126 L 364.931 -31.126 L 364.931 -30.701 L 363.419 -30.499 L 363.061 -30.499 L 363.061 -31.373 L 362.949 -31.373 Q 362.523 -30.992 362.086 -30.718 Q 361.65 -30.443 361.034 -30.443 Q 360.205 -30.443 359.768 -30.947 Q 359.331 -31.451 359.331 -32.694 L 359.331 -35.102 Q 359.331 -35.562 359.169 -35.668 Q 359.006 -35.774 358.491 -35.774 L 358.491 -36.178 L 360.048 -36.39 L 360.418 -36.39 L 360.418 -32.84 Q 360.418 -32.213 360.563 -31.866 Q 360.709 -31.518 360.955 -31.384 Q 361.202 -31.25 361.493 -31.25 Q 361.986 -31.25 362.316 -31.457 Q 362.646 -31.664 363.005 -31.955 L 363.005 -35.102 Q 363.005 -35.562 362.803 -35.668 Q 362.602 -35.774 362.03 -35.774 L 362.03 -36.178 L 363.699 -36.39 L 364.091 -36.39 L 364.091 -31.854 Q 364.091 -31.518 364.153 -31.362 Q 364.214 -31.205 364.371 -31.166 Q 364.528 -31.126 364.808 -31.126 Z " fill="black" /><path d="M 369.299 -31.675 L 369.299 -31.675 L 369.557 -31.462 Q 369.31 -31.126 369.109 -30.897 Q 368.907 -30.667 368.65 -30.544 Q 368.392 -30.421 367.989 -30.421 Q 367.339 -30.421 367.042 -30.79 Q 366.746 -31.16 366.746 -31.978 L 366.746 -35.741 L 366.04 -35.741 L 366.04 -36.077 Q 366.443 -36.368 366.779 -36.788 Q 367.115 -37.208 367.451 -37.992 L 367.843 -37.992 L 367.832 -36.29 L 369.254 -36.29 L 369.254 -35.741 L 367.832 -35.741 L 367.832 -32.347 Q 367.832 -31.72 367.95 -31.457 Q 368.067 -31.194 368.426 -31.194 Q 368.75 -31.194 368.918 -31.311 Q 369.086 -31.429 369.299 -31.675 Z " fill="black" /></g></g></g><g><g><g><path d="M -78.925 -41.464 L -78.925 -41.464 L -78.573 -41.464 L -79.325 -38.392 Q -79.437 -37.976 -79.557 -37.392 Q -79.677 -36.808 -79.677 -36.264 Q -79.677 -35.64 -79.421 -35.184 Q -79.165 -34.728 -78.429 -34.728 Q -77.613 -34.728 -77.021 -35.12 Q -76.429 -35.512 -76.053 -36.12 Q -75.677 -36.728 -75.493 -37.4 Q -75.309 -38.072 -75.309 -38.632 Q -75.309 -39.048 -75.453 -39.352 Q -75.597 -39.656 -75.797 -39.896 Q -75.997 -40.136 -76.141 -40.36 Q -76.285 -40.584 -76.285 -40.84 Q -76.285 -41.16 -76.109 -41.336 Q -75.933 -41.512 -75.677 -41.512 Q -75.133 -41.512 -74.797 -40.968 Q -74.461 -40.424 -74.461 -39.576 Q -74.461 -38.84 -74.645 -38.032 Q -74.829 -37.224 -75.197 -36.456 Q -75.565 -35.688 -76.109 -35.064 Q -76.653 -34.44 -77.357 -34.072 Q -78.061 -33.704 -78.925 -33.704 Q -79.725 -33.704 -80.173 -34.024 Q -80.621 -34.344 -80.805 -34.872 Q -80.989 -35.4 -80.989 -36.008 Q -80.989 -36.584 -80.877 -37.192 Q -80.765 -37.8 -80.637 -38.296 L -80.317 -39.512 Q -80.285 -39.64 -80.221 -39.896 Q -80.157 -40.152 -80.157 -40.392 Q -80.157 -40.6 -80.237 -40.744 Q -80.317 -40.888 -80.541 -40.888 Q -80.733 -40.888 -81.005 -40.864 Q -81.277 -40.84 -81.277 -40.84 L -81.277 -41.288 Z " fill="black" /><path d="M -70.149 -30.902 L -70.149 -30.902 L -70.149 -30.488 L -72.994 -30.488 L -72.994 -30.902 Q -72.602 -30.902 -72.428 -30.986 Q -72.254 -31.07 -72.21 -31.255 Q -72.165 -31.44 -72.165 -31.742 L -72.165 -35.125 Q -72.165 -35.506 -72.288 -35.584 Q -72.411 -35.662 -72.702 -35.662 Q -72.848 -35.662 -72.938 -35.651 Q -73.027 -35.64 -73.027 -35.64 L -73.027 -36.088 L -71.526 -36.334 L -71.067 -36.334 L -71.067 -31.742 Q -71.067 -31.418 -71.017 -31.233 Q -70.966 -31.048 -70.77 -30.975 Q -70.574 -30.902 -70.149 -30.902 Z M -71.627 -38.81 L -71.627 -38.81 Q -71.302 -38.81 -71.084 -38.586 Q -70.866 -38.362 -70.866 -38.07 Q -70.866 -37.802 -71.084 -37.578 Q -71.302 -37.354 -71.627 -37.354 Q -71.941 -37.354 -72.148 -37.578 Q -72.355 -37.802 -72.355 -38.07 Q -72.355 -38.362 -72.148 -38.586 Q -71.941 -38.81 -71.627 -38.81 Z " fill="black" /><path d="M -63.496 -34.24 L -63.496 -34.24 L -63.496 -31.731 Q -63.496 -31.418 -63.44 -31.233 Q -63.384 -31.048 -63.194 -30.97 Q -63.003 -30.891 -62.6 -30.891 L -62.6 -30.488 L -65.478 -30.488 L -65.478 -30.891 Q -65.053 -30.891 -64.862 -30.97 Q -64.672 -31.048 -64.627 -31.233 Q -64.582 -31.418 -64.582 -31.731 L -64.582 -33.87 Q -64.582 -34.621 -64.756 -34.974 Q -64.93 -35.326 -65.193 -35.438 Q -65.456 -35.55 -65.725 -35.55 Q -66.206 -35.55 -66.57 -35.304 Q -66.934 -35.058 -67.203 -34.834 L -67.203 -31.731 Q -67.203 -31.418 -67.153 -31.233 Q -67.102 -31.048 -66.912 -30.97 Q -66.722 -30.891 -66.307 -30.891 L -66.307 -30.488 L -69.13 -30.488 L -69.13 -30.891 Q -68.738 -30.891 -68.564 -30.97 Q -68.39 -31.048 -68.346 -31.233 Q -68.301 -31.418 -68.301 -31.731 L -68.301 -35.136 Q -68.301 -35.45 -68.418 -35.556 Q -68.536 -35.662 -68.794 -35.662 Q -68.928 -35.662 -69.018 -35.651 Q -69.107 -35.64 -69.107 -35.64 L -69.107 -36.066 L -67.606 -36.334 L -67.237 -36.334 L -67.237 -35.416 L -67.158 -35.416 Q -66.677 -35.853 -66.234 -36.11 Q -65.792 -36.368 -65.232 -36.368 Q -64.571 -36.368 -64.196 -36.071 Q -63.821 -35.774 -63.658 -35.293 Q -63.496 -34.811 -63.496 -34.24 Z " fill="black" /></g></g></g></svg>