<svg xmlns="http://www.w3.org/2000/svg" xmlns:xlink="http://www.w3.org/1999/xlink" width="900" height="532" version="1.1">
<style type="text/css">
.l0{
  fill: #ffffff;
  stroke: #ffffff;
  stroke-linecap:round;
  stroke-linejoin:round;
  stroke-width: 0.308595;
}
.l1{
  fill: #0044ee;
  stroke: #0044ee;
  stroke-linecap:round;
  stroke-linejoin:round;
  stroke-width: 0.308595;
}
.l2{
  fill: #aaaaaa; fill-opacity: 0.2;
  stroke: #aaaaaa;
  stroke-linecap:round;
  stroke-linejoin:round;
  stroke-width: 0.308595;
}
.l3{
  fill: #222222; fill-opacity: 0.5;
  stroke: #222222;
  stroke-linecap:round;
  stroke-linejoin:round;
  stroke-width: 0.308595;
}
.l4{
  fill: #229900;
  stroke: #229900;
  stroke-linecap:round;
  stroke-linejoin:round;
  stroke-width: 0.308595;
}
.l5{
  fill: #bb2200;
  stroke: #bb2200;
  stroke-linecap:round;
  stroke-linejoin:round;
  stroke-width: 0.308595;
}
.l6{
  fill: #00ccee; fill-opacity: 0.5;
  stroke: #00ccee;
  stroke-linecap:round;
  stroke-linejoin:round;
  stroke-width: 0.308595;
}
.l7{
  fill: #ff0000; fill-opacity: 0.5;
  stroke: #ff0000;
  stroke-linecap:round;
  stroke-linejoin:round;
  stroke-width: 0.308595;
}
.l8{
  fill: #888800; fill-opacity: 0.5;
  stroke: #888800;
  stroke-linecap:round;
  stroke-linejoin:round;
  stroke-width: 0.308595;
}
.l9{
  fill: #00aaaa; fill-opacity: 0.5;
  stroke: #00aaaa;
  stroke-linecap:round;
  stroke-linejoin:round;
  stroke-width: 0.308595;
}
.l10{
  fill: #880088;
  stroke: #880088;
  stroke-linecap:round;
  stroke-linejoin:round;
  stroke-width: 0.308595;
}
.l11{
  fill: #00ff00; fill-opacity: 0.5;
  stroke: #00ff00;
  stroke-linecap:round;
  stroke-linejoin:round;
  stroke-width: 0.308595;
}
.l12{
  fill: #0000cc; fill-opacity: 0.5;
  stroke: #0000cc;
  stroke-linecap:round;
  stroke-linejoin:round;
  stroke-width: 0.308595;
}
.l13{
  fill: #666600; fill-opacity: 0.5;
  stroke: #666600;
  stroke-linecap:round;
  stroke-linejoin:round;
  stroke-width: 0.308595;
}
.l14{
  fill: #557755; fill-opacity: 0.2;
  stroke: #557755;
  stroke-linecap:round;
  stroke-linejoin:round;
  stroke-width: 0.308595;
}
.l15{
  fill: #aa2222; fill-opacity: 0.5;
  stroke: #aa2222;
  stroke-linecap:round;
  stroke-linejoin:round;
  stroke-width: 0.308595;
}
.l16{
  fill: #7ccc40; fill-opacity: 0.5;
  stroke: #7ccc40;
  stroke-linecap:round;
  stroke-linejoin:round;
  stroke-width: 0.308595;
}
.l17{
  fill: #00ffcc; fill-opacity: 0.2;
  stroke: #00ffcc;
  stroke-linecap:round;
  stroke-linejoin:round;
  stroke-width: 0.308595;
}
.l18{
  fill: #ce0097; fill-opacity: 0.5;
  stroke: #ce0097;
  stroke-linecap:round;
  stroke-linejoin:round;
  stroke-width: 0.308595;
}
.l19{
  fill: #d2d46b; fill-opacity: 0.2;
  stroke: #d2d46b;
  stroke-linecap:round;
  stroke-linejoin:round;
  stroke-width: 0.308595;
}
.l20{
  fill: #ef6158; fill-opacity: 0.2;
  stroke: #ef6158;
  stroke-linecap:round;
  stroke-linejoin:round;
  stroke-width: 0.308595;
}
.l21{
  fill: #fdb200; fill-opacity: 0.2;
  stroke: #fdb200;
  stroke-linecap:round;
  stroke-linejoin:round;
  stroke-width: 0.308595;
}
text {font-family: Sans-Serif;}
</style>
<rect class="l0" x="0" y="0" width="900" height="532"/>
<text fill="#0044ee"  xml:space="preserve" font-size="4.90324" transform="translate(353.466, 315.491)" >v_a</text>
<text fill="#0044ee"  xml:space="preserve" font-size="4.90324" transform="translate(527.104, 315.491)" >v_b</text>
<text fill="#0044ee"  xml:space="preserve" font-size="4.90324" transform="translate(465.437, 248.713) rotate(270)" >di_tg_ctrl</text>
<text fill="#0044ee"  xml:space="preserve" font-size="4.90324" transform="translate(466.417, 404.723) rotate(270)" >di_tg_ctrl_n</text>
<text fill="#0044ee"  xml:space="preserve" font-size="4.90324" transform="translate(494.634, 245.186) rotate(270)" >VDD</text>
<text fill="#0044ee"  xml:space="preserve" font-size="4.90324" transform="translate(494.367, 391.25) rotate(270)" >VSS</text>
<text fill="#0044ee"  xml:space="preserve" font-size="4.90324" transform="translate(426.236, 402.938) rotate(270)" >di_tg_ctrl</text>
<text fill="#0044ee"  xml:space="preserve" font-size="4.90324" transform="translate(425.612, 245.498) rotate(270)" >di_tg_ctrl_n</text>
<text fill="#222222"  xml:space="preserve" font-size="11.8866" transform="translate(612.87, 507.382)" >2024-11-25  22:03:09</text>
<text fill="#222222"  xml:space="preserve" font-size="11.8866" transform="translate(432.856, 484.523)" >Simon Dorrer</text>
<text fill="#222222"  xml:space="preserve" font-size="11.8866" transform="translate(432.856, 507.382)" >Page  of </text>
<text fill="#222222"  xml:space="preserve" font-size="11.8866" transform="translate(530.006, 507.382)" >Rev. 1.0</text>
<text fill="#222222"  xml:space="preserve" font-size="14.8583" transform="translate(137.119, 520.081)" >SCHEM</text>
<text fill="#222222"  xml:space="preserve" font-size="2.97166" transform="translate(432.146, 363.007) rotate(270)" >M1</text>
<text fill="#ff0000"  xml:space="preserve" font-size="2.22874" transform="translate(426.608, 364.293) rotate(270)" >G</text>
<text fill="#222222"  xml:space="preserve" font-size="2.97166" transform="translate(418.053, 350.864) rotate(270)" >sg13_lv_nmos</text>
<text fill="#666600"  xml:space="preserve" font-size="2.97166" transform="translate(421.788, 350.507) rotate(270)" >m=1</text>
<text fill="#666600"  xml:space="preserve" font-size="2.97166" transform="translate(424.288, 350.507) rotate(270)" >ng=1</text>
<text fill="#666600"  xml:space="preserve" font-size="2.97166" transform="translate(427.86, 350.507) rotate(270)" >l=L_N</text>
<text fill="#666600"  xml:space="preserve" font-size="2.97166" transform="translate(431.074, 350.507) rotate(270)" >w=W_N</text>
<text fill="#ff0000"  xml:space="preserve" font-size="2.22874" transform="translate(418.751, 353.007) rotate(270)" >S</text>
<text fill="#ff0000"  xml:space="preserve" font-size="2.22874" transform="translate(431.308, 353.007) rotate(270)" >D</text>
<text fill="#ff0000"  xml:space="preserve" font-size="2.22874" transform="translate(426.608, 353.721) rotate(270)" >B</text>
<text fill="#222222"  xml:space="preserve" font-size="2.97166" transform="translate(432.146, 269.429) rotate(270)" >M2</text>
<text fill="#ff0000"  xml:space="preserve" font-size="2.22874" transform="translate(426.608, 265.143) rotate(270)" >G</text>
<text fill="#222222"  xml:space="preserve" font-size="2.97166" transform="translate(418.053, 298.572) rotate(270)" >sg13_lv_pmos</text>
<text fill="#666600"  xml:space="preserve" font-size="2.97166" transform="translate(421.788, 283.929) rotate(270)" >m=1</text>
<text fill="#666600"  xml:space="preserve" font-size="2.97166" transform="translate(424.288, 284.929) rotate(270)" >ng=1</text>
<text fill="#666600"  xml:space="preserve" font-size="2.97166" transform="translate(427.86, 284.929) rotate(270)" >l=L_P</text>
<text fill="#666600"  xml:space="preserve" font-size="2.97166" transform="translate(431.074, 286.929) rotate(270)" >w=W_P</text>
<text fill="#ff0000"  xml:space="preserve" font-size="2.22874" transform="translate(418.751, 276.429) rotate(270)" >D</text>
<text fill="#ff0000"  xml:space="preserve" font-size="2.22874" transform="translate(431.308, 276.429) rotate(270)" >S</text>
<text fill="#ff0000"  xml:space="preserve" font-size="2.22874" transform="translate(426.608, 275.715) rotate(270)" >B</text>
<text fill="#222222"  xml:space="preserve" font-size="2.97166" transform="translate(472.149, 269.429) rotate(270)" >Mdummy2</text>
<text fill="#ff0000"  xml:space="preserve" font-size="2.22874" transform="translate(466.612, 265.143) rotate(270)" >G</text>
<text fill="#222222"  xml:space="preserve" font-size="2.97166" transform="translate(458.056, 298.572) rotate(270)" >sg13_lv_pmos</text>
<text fill="#666600"  xml:space="preserve" font-size="2.97166" transform="translate(461.791, 283.929) rotate(270)" >m=1</text>
<text fill="#666600"  xml:space="preserve" font-size="2.97166" transform="translate(464.291, 284.929) rotate(270)" >ng=1</text>
<text fill="#666600"  xml:space="preserve" font-size="2.97166" transform="translate(467.863, 288.929) rotate(270)" >l=L_P_D</text>
<text fill="#666600"  xml:space="preserve" font-size="2.97166" transform="translate(471.077, 290.929) rotate(270)" >w=W_P_D</text>
<text fill="#ff0000"  xml:space="preserve" font-size="2.22874" transform="translate(458.754, 276.429) rotate(270)" >D</text>
<text fill="#ff0000"  xml:space="preserve" font-size="2.22874" transform="translate(471.311, 276.429) rotate(270)" >S</text>
<text fill="#ff0000"  xml:space="preserve" font-size="2.22874" transform="translate(466.612, 275.715) rotate(270)" >B</text>
<text fill="#222222"  xml:space="preserve" font-size="2.97166" transform="translate(472.149, 375.007) rotate(270)" >Mdummy1</text>
<text fill="#ff0000"  xml:space="preserve" font-size="2.22874" transform="translate(466.612, 364.293) rotate(270)" >G</text>
<text fill="#222222"  xml:space="preserve" font-size="2.97166" transform="translate(458.056, 350.864) rotate(270)" >sg13_lv_nmos</text>
<text fill="#666600"  xml:space="preserve" font-size="2.97166" transform="translate(461.791, 350.507) rotate(270)" >m=1</text>
<text fill="#666600"  xml:space="preserve" font-size="2.97166" transform="translate(464.291, 350.507) rotate(270)" >ng=1</text>
<text fill="#666600"  xml:space="preserve" font-size="2.97166" transform="translate(467.863, 350.507) rotate(270)" >l=L_N_D</text>
<text fill="#666600"  xml:space="preserve" font-size="2.97166" transform="translate(471.077, 350.507) rotate(270)" >w=W_N_D</text>
<text fill="#ff0000"  xml:space="preserve" font-size="2.22874" transform="translate(458.754, 353.007) rotate(270)" >S</text>
<text fill="#ff0000"  xml:space="preserve" font-size="2.22874" transform="translate(471.311, 353.007) rotate(270)" >D</text>
<text fill="#ff0000"  xml:space="preserve" font-size="2.22874" transform="translate(466.612, 353.721) rotate(270)" >B</text>
<path class="l4" d="M202.838 513.733L807.171 513.733"/>
<path class="l4" d="M92.8295 513.733L111.402 513.733"/>
<path class="l4" d="M807.171 7.98L807.171 513.733"/>
<path class="l4" d="M92.8295 7.98L807.171 7.98"/>
<path class="l4" d="M92.8295 7.98L92.8295 513.733"/>
<path class="l4" d="M429.998 468.016L429.998 513.733"/>
<path class="l4" d="M429.998 468.016L807.171 468.016"/>
<path class="l4" d="M429.998 490.875L807.171 490.875"/>
<path class="l4" d="M610.012 490.875L610.012 513.733"/>
<path class="l4" d="M610.012 468.016L610.012 490.875"/>
<path class="l4" d="M527.149 490.875L527.149 513.733"/>
<path class="l4" d="M417.855 357.293L430.713 357.293"/>
<path class="l4" d="M429.284 353.721L432.856 353.721"/>
<path class="l4" d="M415.712 353.721L419.283 353.721"/>
<path class="l4" d="M419.998 358.721L428.57 358.721"/>
<path class="l4" d="M419.283 353.721L419.283 357.293"/>
<path class="l4" d="M429.284 353.721L429.284 357.293"/>
<path class="l4" d="M424.284 358.864L424.284 365.151"/>
<path class="l4" d="M418.569 355.15L419.283 353.721L419.998 355.15L418.569 355.15"/>
<path class="l4" d="M417.855 270.143L430.713 270.143"/>
<path class="l4" d="M429.284 273.715L432.856 273.715"/>
<path class="l4" d="M415.712 273.715L419.283 273.715"/>
<path class="l4" d="M419.998 268.714L428.57 268.714"/>
<path class="l4" d="M419.283 270.143L419.283 273.715"/>
<path class="l4" d="M429.284 270.143L429.284 273.715"/>
<path class="l4" d="M424.284 262.285L424.284 268.572"/>
<path class="l4" d="M429.998 271.572L429.284 270.143L428.57 271.572L429.998 271.572"/>
<path class="l4" d="M457.858 270.143L470.716 270.143"/>
<path class="l4" d="M469.287 273.715L472.859 273.715"/>
<path class="l4" d="M455.715 273.715L459.286 273.715"/>
<path class="l4" d="M460.001 268.714L468.573 268.714"/>
<path class="l4" d="M459.286 270.143L459.286 273.715"/>
<path class="l4" d="M469.287 270.143L469.287 273.715"/>
<path class="l4" d="M464.287 262.285L464.287 268.572"/>
<path class="l4" d="M470.002 271.572L469.287 270.143L468.573 271.572L470.002 271.572"/>
<path class="l4" d="M457.858 357.293L470.716 357.293"/>
<path class="l4" d="M469.287 353.721L472.859 353.721"/>
<path class="l4" d="M455.715 353.721L459.286 353.721"/>
<path class="l4" d="M460.001 358.721L468.573 358.721"/>
<path class="l4" d="M459.286 353.721L459.286 357.293"/>
<path class="l4" d="M469.287 353.721L469.287 357.293"/>
<path class="l4" d="M464.287 358.864L464.287 365.151"/>
<path class="l4" d="M458.572 355.15L459.286 353.721L460.001 355.15L458.572 355.15"/>
<path class="l5" d="M132.833 509.447L132.743 509.537L132.654 509.626L132.565 509.715L132.475 509.805L132.386 509.894L132.297 509.983L132.208 510.072L132.118 510.162L132.029 510.251L131.94 510.34L131.85 510.43L131.761 510.519L131.672 510.608L131.582 510.698L131.493 510.787L131.404 510.876L131.315 510.965L131.225 511.055L131.136 511.144L131.047 511.233L130.957 511.323L130.868 511.412L130.779 511.501L130.69 511.59L130.6 511.68L130.511 511.769L130.422 511.858L130.332 511.948L130.243 512.037L130.154 512.126L130.064 512.216L129.975 512.305L129.975 512.305L129.889 512.394L129.808 512.483L129.732 512.573L129.663 512.662L129.598 512.751L129.54 512.841L129.487 512.93L129.439 513.019L129.398 513.108L129.361 513.198L129.331 513.287L129.305 513.376L129.286 513.466L129.272 513.555L129.264 513.644L129.261 513.733L129.264 513.823L129.272 513.912L129.286 514.001L129.305 514.091L129.331 514.18L129.361 514.269L129.398 514.359L129.439 514.448L129.487 514.537L129.54 514.626L129.598 514.716L129.663 514.805L129.732 514.894L129.808 514.984L129.889 515.073L129.975 515.162L129.975 515.162L130.065 515.252L130.155 515.342L130.246 515.433L130.338 515.525L130.43 515.617L130.524 515.71L130.617 515.804L130.712 515.899L130.807 515.994L130.903 516.09L131 516.187L131.097 516.284L131.195 516.382L131.294 516.481L131.393 516.58L131.493 516.68L131.594 516.781L131.695 516.882L131.798 516.985L131.901 517.088L132.004 517.191L132.108 517.295L132.213 517.4L132.319 517.506L132.426 517.612L132.533 517.72L132.64 517.827L132.749 517.936L132.858 518.045L132.968 518.155L133.078 518.265L133.19 518.377L133.19 518.377L133.301 518.488L133.41 518.597L133.518 518.705L133.625 518.812L133.73 518.917L133.834 519.021L133.937 519.124L134.038 519.225L134.138 519.325L134.236 519.423L134.333 519.52L134.429 519.616L134.523 519.71L134.616 519.803L134.707 519.894L134.797 519.984L134.886 520.073L134.973 520.16L135.059 520.246L135.143 520.33L135.226 520.413L135.308 520.495L135.388 520.575L135.467 520.654L135.544 520.731L135.62 520.807L135.695 520.882L135.768 520.955L135.84 521.027L135.91 521.097L135.979 521.166L136.047 521.234L136.047 521.234L136.112 521.3L136.173 521.364L136.229 521.426L136.281 521.485L136.33 521.543L136.374 521.598L136.413 521.652L136.449 521.703L136.48 521.752L136.508 521.799L136.531 521.844L136.549 521.887L136.564 521.928L136.574 521.967L136.581 522.003L136.583 522.038L136.581 522.07L136.574 522.1L136.564 522.129L136.549 522.155L136.531 522.179L136.508 522.201L136.48 522.221L136.449 522.239L136.413 522.254L136.374 522.268L136.33 522.279L136.281 522.289L136.229 522.296L136.173 522.301L136.112 522.305L136.047 522.306L136.047 522.306L135.98 522.306L135.913 522.306L135.846 522.306L135.779 522.306L135.712 522.306L135.645 522.306L135.578 522.306L135.511 522.306L135.444 522.306L135.377 522.306L135.31 522.306L135.243 522.306L135.176 522.306L135.11 522.306L135.043 522.306L134.976 522.306L134.909 522.306L134.842 522.306L134.775 522.306L134.708 522.306L134.641 522.306L134.574 522.306L134.507 522.306L134.44 522.306L134.373 522.306L134.306 522.306L134.239 522.306L134.172 522.306L134.105 522.306L134.038 522.306L133.971 522.306L133.904 522.306L133.904 522.306L133.837 522.306L133.772 522.306L133.706 522.306L133.642 522.306L133.578 522.306L133.515 522.306L133.452 522.306L133.391 522.306L133.33 522.306L133.269 522.306L133.21 522.306L133.151 522.306L133.092 522.306L133.035 522.306L132.978 522.306L132.922 522.306L132.866 522.306L132.812 522.306L132.758 522.306L132.704 522.306L132.652 522.306L132.6 522.306L132.548 522.306L132.498 522.306L132.448 522.306L132.399 522.306L132.35 522.306L132.302 522.306L132.255 522.306L132.209 522.306L132.163 522.306L132.118 522.306L132.118 522.306L132.074 522.305L132.029 522.303L131.984 522.299L131.94 522.294L131.895 522.288L131.85 522.28L131.806 522.271L131.761 522.261L131.716 522.249L131.672 522.236L131.627 522.221L131.582 522.205L131.538 522.188L131.493 522.169L131.449 522.149L131.404 522.127L131.359 522.104L131.315 522.08L131.27 522.054L131.225 522.027L131.181 521.998L131.136 521.968L131.091 521.937L131.047 521.904L131.002 521.87L130.957 521.834L130.913 521.797L130.868 521.759L130.823 521.719L130.779 521.678L130.734 521.635L130.69 521.591L130.69 521.591L130.645 521.547L130.6 521.502L130.556 521.457L130.511 521.413L130.466 521.368L130.422 521.323L130.377 521.279L130.332 521.234L130.288 521.189L130.243 521.145L130.198 521.1L130.154 521.055L130.109 521.011L130.064 520.966L130.02 520.922L129.975 520.877L129.931 520.832L129.886 520.788L129.841 520.743L129.797 520.698L129.752 520.654L129.707 520.609L129.663 520.564L129.618 520.52L129.573 520.475L129.529 520.43L129.484 520.386L129.439 520.341L129.395 520.296L129.35 520.252L129.305 520.207L129.261 520.163L129.261 520.163L129.216 520.117L129.169 520.07L129.121 520.022L129.071 519.973L129.02 519.922L128.968 519.87L128.914 519.816L128.859 519.761L128.803 519.704L128.745 519.646L128.685 519.587L128.625 519.526L128.563 519.464L128.499 519.401L128.434 519.336L128.368 519.27L128.3 519.202L128.231 519.133L128.161 519.062L128.089 518.991L128.016 518.917L127.941 518.843L127.865 518.767L127.788 518.689L127.709 518.61L127.628 518.53L127.547 518.449L127.464 518.366L127.379 518.281L127.294 518.195L127.206 518.108L127.118 518.02L127.118 518.02L127.029 517.933L126.939 517.852L126.85 517.777L126.761 517.707L126.671 517.643L126.582 517.584L126.493 517.531L126.403 517.484L126.314 517.442L126.225 517.406L126.136 517.375L126.046 517.35L125.957 517.33L125.868 517.316L125.778 517.308L125.689 517.305L125.6 517.308L125.511 517.316L125.421 517.33L125.332 517.35L125.243 517.375L125.153 517.406L125.064 517.442L124.975 517.484L124.886 517.531L124.796 517.584L124.707 517.643L124.618 517.707L124.528 517.777L124.439 517.852L124.35 517.933L124.26 518.02L124.26 518.02L124.172 518.108L124.085 518.195L123.999 518.281L123.914 518.366L123.831 518.449L123.75 518.53L123.67 518.61L123.591 518.689L123.513 518.767L123.437 518.843L123.363 518.917L123.289 518.991L123.218 519.062L123.147 519.133L123.078 519.202L123.01 519.27L122.944 519.336L122.879 519.401L122.816 519.464L122.754 519.526L122.693 519.587L122.634 519.646L122.576 519.704L122.519 519.761L122.464 519.816L122.41 519.87L122.358 519.922L122.307 519.973L122.258 520.022L122.21 520.07L122.163 520.117L122.117 520.163L122.117 520.163L122.073 520.207L122.028 520.252L121.984 520.296L121.939 520.341L121.894 520.386L121.85 520.43L121.805 520.475L121.76 520.52L121.716 520.564L121.671 520.609L121.626 520.654L121.582 520.698L121.537 520.743L121.492 520.788L121.448 520.832L121.403 520.877L121.358 520.922L121.314 520.966L121.269 521.011L121.225 521.055L121.18 521.1L121.135 521.145L121.091 521.189L121.046 521.234L121.001 521.279L120.957 521.323L120.912 521.368L120.867 521.413L120.823 521.457L120.778 521.502L120.733 521.547L120.689 521.591L120.689 521.591L120.644 521.635L120.599 521.678L120.555 521.719L120.51 521.759L120.466 521.797L120.421 521.834L120.376 521.87L120.332 521.904L120.287 521.937L120.242 521.968L120.198 521.998L120.153 522.027L120.108 522.054L120.064 522.08L120.019 522.104L119.974 522.127L119.93 522.149L119.885 522.169L119.84 522.188L119.796 522.205L119.751 522.221L119.707 522.236L119.662 522.249L119.617 522.261L119.573 522.271L119.528 522.28L119.483 522.288L119.439 522.294L119.394 522.299L119.349 522.303L119.305 522.305L119.26 522.306L119.26 522.306L119.215 522.306L119.169 522.306L119.123 522.306L119.076 522.306L119.028 522.306L118.98 522.306L118.93 522.306L118.881 522.306L118.83 522.306L118.779 522.306L118.727 522.306L118.674 522.306L118.621 522.306L118.567 522.306L118.512 522.306L118.456 522.306L118.4 522.306L118.343 522.306L118.286 522.306L118.228 522.306L118.169 522.306L118.109 522.306L118.049 522.306L117.988 522.306L117.926 522.306L117.863 522.306L117.8 522.306L117.737 522.306L117.672 522.306L117.607 522.306L117.541 522.306L117.474 522.306L117.474 522.306L117.407 522.306L117.34 522.306L117.273 522.306L117.206 522.306L117.139 522.306L117.072 522.306L117.005 522.306L116.938 522.306L116.871 522.306L116.805 522.306L116.738 522.306L116.671 522.306L116.604 522.306L116.537 522.306L116.47 522.306L116.403 522.306L116.336 522.306L116.269 522.306L116.202 522.306L116.135 522.306L116.068 522.306L116.001 522.306L115.934 522.306L115.867 522.306L115.8 522.306L115.733 522.306L115.666 522.306L115.599 522.306L115.532 522.306L115.465 522.306L115.398 522.306L115.331 522.306L115.331 522.306L115.266 522.305L115.206 522.301L115.149 522.296L115.097 522.289L115.049 522.279L115.005 522.268L114.965 522.254L114.929 522.239L114.898 522.221L114.871 522.201L114.848 522.179L114.829 522.155L114.814 522.129L114.804 522.1L114.798 522.07L114.795 522.038L114.798 522.003L114.804 521.967L114.814 521.928L114.829 521.887L114.848 521.844L114.871 521.799L114.898 521.752L114.929 521.703L114.965 521.652L115.005 521.598L115.049 521.543L115.097 521.485L115.149 521.426L115.206 521.364L115.266 521.3L115.331 521.234L115.331 521.234L115.399 521.166L115.468 521.097L115.538 521.027L115.61 520.955L115.683 520.882L115.758 520.807L115.834 520.731L115.912 520.654L115.99 520.575L116.071 520.495L116.152 520.413L116.235 520.33L116.32 520.246L116.406 520.16L116.493 520.073L116.581 519.984L116.671 519.894L116.763 519.803L116.855 519.71L116.95 519.616L117.045 519.52L117.142 519.423L117.241 519.325L117.34 519.225L117.441 519.124L117.544 519.021L117.648 518.917L117.753 518.812L117.86 518.705L117.968 518.597L118.078 518.488L118.189 518.377L118.189 518.377L118.3 518.265L118.41 518.155L118.52 518.045L118.629 517.936L118.738 517.827L118.846 517.72L118.953 517.612L119.059 517.506L119.165 517.4L119.27 517.295L119.374 517.191L119.478 517.088L119.581 516.985L119.683 516.882L119.784 516.781L119.885 516.68L119.985 516.58L120.085 516.481L120.183 516.382L120.281 516.284L120.379 516.187L120.475 516.09L120.571 515.994L120.666 515.899L120.761 515.804L120.855 515.71L120.948 515.617L121.04 515.525L121.132 515.433L121.223 515.342L121.313 515.252L121.403 515.162L121.403 515.162L121.49 515.073L121.571 514.984L121.646 514.894L121.716 514.805L121.78 514.716L121.838 514.626L121.891 514.537L121.939 514.448L121.981 514.359L122.017 514.269L122.048 514.18L122.073 514.091L122.092 514.001L122.106 513.912L122.115 513.823L122.117 513.733L122.115 513.644L122.106 513.555L122.092 513.466L122.073 513.376L122.048 513.287L122.017 513.198L121.981 513.108L121.939 513.019L121.891 512.93L121.838 512.841L121.78 512.751L121.716 512.662L121.646 512.573L121.571 512.483L121.49 512.394L121.403 512.305L121.403 512.305L121.313 512.215L121.223 512.125L121.132 512.034L121.04 511.942L120.948 511.85L120.855 511.756L120.761 511.663L120.666 511.568L120.571 511.473L120.475 511.377L120.379 511.28L120.281 511.183L120.183 511.085L120.085 510.986L119.985 510.887L119.885 510.787L119.784 510.686L119.683 510.585L119.581 510.482L119.478 510.379L119.374 510.276L119.27 510.172L119.165 510.067L119.059 509.961L118.953 509.854L118.846 509.747L118.738 509.64L118.629 509.531L118.52 509.422L118.41 509.312L118.3 509.202L118.189 509.09L118.189 509.09L118.078 508.979L117.968 508.87L117.86 508.762L117.753 508.655L117.648 508.55L117.544 508.446L117.441 508.343L117.34 508.242L117.241 508.142L117.142 508.044L117.045 507.947L116.95 507.851L116.855 507.757L116.763 507.664L116.671 507.573L116.581 507.483L116.493 507.394L116.406 507.307L116.32 507.221L116.235 507.137L116.152 507.054L116.071 506.972L115.99 506.892L115.912 506.813L115.834 506.736L115.758 506.66L115.683 506.585L115.61 506.512L115.538 506.44L115.468 506.37L115.399 506.301L115.331 506.233L115.331 506.233L115.266 506.167L115.206 506.103L115.149 506.041L115.097 505.982L115.049 505.924L115.005 505.869L114.965 505.815L114.929 505.764L114.898 505.715L114.871 505.668L114.848 505.623L114.829 505.58L114.814 505.539L114.804 505.5L114.798 505.464L114.795 505.429L114.798 505.397L114.804 505.366L114.814 505.338L114.829 505.312L114.848 505.288L114.871 505.266L114.898 505.246L114.929 505.228L114.965 505.213L115.005 505.199L115.049 505.188L115.097 505.178L115.149 505.171L115.206 505.166L115.266 505.162L115.331 505.161L115.331 505.161L115.398 505.161L115.465 505.161L115.532 505.161L115.599 505.161L115.666 505.161L115.733 505.161L115.8 505.161L115.867 505.161L115.934 505.161L116.001 505.161L116.068 505.161L116.135 505.161L116.202 505.161L116.269 505.161L116.336 505.161L116.403 505.161L116.47 505.161L116.537 505.161L116.604 505.161L116.671 505.161L116.738 505.161L116.805 505.161L116.871 505.161L116.938 505.161L117.005 505.161L117.072 505.161L117.139 505.161L117.206 505.161L117.273 505.161L117.34 505.161L117.407 505.161L117.474 505.161L117.474 505.161L117.541 505.161L117.607 505.161L117.672 505.161L117.737 505.161L117.8 505.161L117.863 505.161L117.926 505.161L117.988 505.161L118.049 505.161L118.109 505.161L118.169 505.161L118.228 505.161L118.286 505.161L118.343 505.161L118.4 505.161L118.456 505.161L118.512 505.161L118.567 505.161L118.621 505.161L118.674 505.161L118.727 505.161L118.779 505.161L118.83 505.161L118.881 505.161L118.93 505.161L118.98 505.161L119.028 505.161L119.076 505.161L119.123 505.161L119.169 505.161L119.215 505.161L119.26 505.161L119.26 505.161L119.305 505.162L119.349 505.164L119.394 505.168L119.439 505.173L119.483 505.179L119.528 505.187L119.573 505.196L119.617 505.206L119.662 505.218L119.707 505.231L119.751 505.246L119.796 505.262L119.84 505.279L119.885 505.298L119.93 505.318L119.974 505.34L120.019 505.363L120.064 505.387L120.108 505.413L120.153 505.44L120.198 505.469L120.242 505.499L120.287 505.53L120.332 505.563L120.376 505.597L120.421 505.633L120.466 505.67L120.51 505.708L120.555 505.748L120.599 505.789L120.644 505.832L120.689 505.876L120.689 505.876L120.733 505.92L120.778 505.965L120.823 506.01L120.867 506.054L120.912 506.099L120.957 506.144L121.001 506.188L121.046 506.233L121.091 506.278L121.135 506.322L121.18 506.367L121.225 506.411L121.269 506.456L121.314 506.501L121.358 506.545L121.403 506.59L121.448 506.635L121.492 506.679L121.537 506.724L121.582 506.769L121.626 506.813L121.671 506.858L121.716 506.903L121.76 506.947L121.805 506.992L121.85 507.037L121.894 507.081L121.939 507.126L121.984 507.17L122.028 507.215L122.073 507.26L122.117 507.304L122.117 507.304L122.163 507.35L122.21 507.397L122.258 507.445L122.307 507.494L122.358 507.545L122.41 507.597L122.464 507.651L122.519 507.706L122.576 507.763L122.634 507.821L122.693 507.88L122.754 507.941L122.816 508.003L122.879 508.066L122.944 508.131L123.01 508.197L123.078 508.265L123.147 508.334L123.218 508.405L123.289 508.476L123.363 508.55L123.437 508.624L123.513 508.7L123.591 508.778L123.67 508.857L123.75 508.937L123.831 509.018L123.914 509.101L123.999 509.186L124.085 509.272L124.172 509.359L124.26 509.447L124.26 509.447L124.35 509.534L124.439 509.615L124.528 509.69L124.618 509.76L124.707 509.824L124.796 509.883L124.886 509.936L124.975 509.983L125.064 510.025L125.153 510.061L125.243 510.092L125.332 510.117L125.421 510.137L125.511 510.151L125.6 510.159L125.689 510.162L125.778 510.159L125.868 510.151L125.957 510.137L126.046 510.117L126.136 510.092L126.225 510.061L126.314 510.025L126.403 509.983L126.493 509.936L126.582 509.883L126.671 509.824L126.761 509.76L126.85 509.69L126.939 509.615L127.029 509.534L127.118 509.447L127.118 509.447L127.206 509.359L127.294 509.272L127.379 509.186L127.464 509.101L127.547 509.018L127.628 508.937L127.709 508.857L127.788 508.778L127.865 508.7L127.941 508.624L128.016 508.55L128.089 508.476L128.161 508.405L128.231 508.334L128.3 508.265L128.368 508.197L128.434 508.131L128.499 508.066L128.563 508.003L128.625 507.941L128.685 507.88L128.745 507.821L128.803 507.763L128.859 507.706L128.914 507.651L128.968 507.597L129.02 507.545L129.071 507.494L129.121 507.445L129.169 507.397L129.216 507.35L129.261 507.304L129.261 507.304L129.305 507.26L129.35 507.215L129.395 507.17L129.439 507.126L129.484 507.081L129.529 507.037L129.573 506.992L129.618 506.947L129.663 506.903L129.707 506.858L129.752 506.813L129.797 506.769L129.841 506.724L129.886 506.679L129.931 506.635L129.975 506.59L130.02 506.545L130.064 506.501L130.109 506.456L130.154 506.411L130.198 506.367L130.243 506.322L130.288 506.278L130.332 506.233L130.377 506.188L130.422 506.144L130.466 506.099L130.511 506.054L130.556 506.01L130.6 505.965L130.645 505.92L130.69 505.876L130.69 505.876L130.734 505.832L130.779 505.789L130.823 505.748L130.868 505.708L130.913 505.67L130.957 505.633L131.002 505.597L131.047 505.563L131.091 505.53L131.136 505.499L131.181 505.469L131.225 505.44L131.27 505.413L131.315 505.387L131.359 505.363L131.404 505.34L131.449 505.318L131.493 505.298L131.538 505.279L131.582 505.262L131.627 505.246L131.672 505.231L131.716 505.218L131.761 505.206L131.806 505.196L131.85 505.187L131.895 505.179L131.94 505.173L131.984 505.168L132.029 505.164L132.074 505.162L132.118 505.161L132.118 505.161L132.163 505.161L132.209 505.161L132.255 505.161L132.302 505.161L132.35 505.161L132.399 505.161L132.448 505.161L132.498 505.161L132.548 505.161L132.6 505.161L132.652 505.161L132.704 505.161L132.758 505.161L132.812 505.161L132.866 505.161L132.922 505.161L132.978 505.161L133.035 505.161L133.092 505.161L133.151 505.161L133.21 505.161L133.269 505.161L133.33 505.161L133.391 505.161L133.452 505.161L133.515 505.161L133.578 505.161L133.642 505.161L133.706 505.161L133.772 505.161L133.837 505.161L133.904 505.161L133.904 505.161L133.971 505.161L134.038 505.161L134.105 505.161L134.172 505.161L134.239 505.161L134.306 505.161L134.373 505.161L134.44 505.161L134.507 505.161L134.574 505.161L134.641 505.161L134.708 505.161L134.775 505.161L134.842 505.161L134.909 505.161L134.976 505.161L135.043 505.161L135.11 505.161L135.176 505.161L135.243 505.161L135.31 505.161L135.377 505.161L135.444 505.161L135.511 505.161L135.578 505.161L135.645 505.161L135.712 505.161L135.779 505.161L135.846 505.161L135.913 505.161L135.98 505.161L136.047 505.161L136.047 505.161L136.112 505.162L136.173 505.166L136.229 505.171L136.281 505.178L136.33 505.188L136.374 505.199L136.413 505.213L136.449 505.228L136.48 505.246L136.508 505.266L136.531 505.288L136.549 505.312L136.564 505.338L136.574 505.366L136.581 505.397L136.583 505.429L136.581 505.464L136.574 505.5L136.564 505.539L136.549 505.58L136.531 505.623L136.508 505.668L136.48 505.715L136.449 505.764L136.413 505.815L136.374 505.869L136.33 505.924L136.281 505.982L136.229 506.041L136.173 506.103L136.112 506.167L136.047 506.233L136.047 506.233L135.979 506.301L135.909 506.371L135.837 506.443L135.762 506.518L135.686 506.594L135.608 506.672L135.527 506.753L135.444 506.836L135.36 506.92L135.273 507.007L135.184 507.096L135.093 507.187L135 507.28L134.904 507.376L134.807 507.473L134.708 507.572L134.606 507.674L134.503 507.777L134.397 507.883L134.289 507.991L134.179 508.101L134.067 508.213L133.953 508.327L133.837 508.443L133.719 508.561L133.599 508.681L133.476 508.804L133.352 508.928L133.225 509.055L133.096 509.184L132.965 509.315L132.833 509.447"/>
<path class="l5" d="M366.244 313.718L367.136 313.718"/>
<path class="l5" d="M363.208 315.147L362.136 313.718L363.208 312.289L365.172 312.289L366.244 313.718L365.172 315.147L363.208 315.147"/>
<path class="l5" d="M366.779 313.361L367.494 313.361L367.494 314.075L366.779 314.075L366.779 313.361z"/>
<path class="l5" d="M521.434 313.718L522.327 313.718"/>
<path class="l5" d="M525.363 315.147L526.434 313.718L525.363 312.289L523.399 312.289L522.327 313.718L523.399 315.147L525.363 315.147"/>
<path class="l5" d="M521.077 313.361L521.791 313.361L521.791 314.075L521.077 314.075L521.077 313.361z"/>
<path class="l5" d="M423.569 353.721L424.284 355.15L424.998 353.721L423.569 353.721"/>
<path class="l5" d="M432.141 353.007L433.57 353.007L433.57 354.435L432.141 354.435L432.141 353.007z"/>
<path class="l5" d="M423.569 364.436L424.998 364.436L424.998 365.865L423.569 365.865L423.569 364.436z"/>
<path class="l5" d="M414.997 353.007L416.426 353.007L416.426 354.435L414.997 354.435L414.997 353.007z"/>
<path class="l5" d="M424.261 353.699L424.306 353.699L424.306 353.743L424.261 353.743L424.261 353.699z"/>
<path class="l5" d="M424.998 272.286L424.284 273.715L423.569 272.286L424.998 272.286"/>
<path class="l5" d="M414.997 273.001L416.426 273.001L416.426 274.429L414.997 274.429L414.997 273.001z"/>
<path class="l5" d="M423.569 261.571L424.998 261.571L424.998 263L423.569 263L423.569 261.571z"/>
<path class="l5" d="M432.141 273.001L433.57 273.001L433.57 274.429L432.141 274.429L432.141 273.001z"/>
<path class="l5" d="M424.261 273.693L424.306 273.693L424.306 273.737L424.261 273.737L424.261 273.693z"/>
<path class="l5" d="M465.001 272.286L464.287 273.715L463.572 272.286L465.001 272.286"/>
<path class="l5" d="M455 273.001L456.429 273.001L456.429 274.429L455 274.429L455 273.001z"/>
<path class="l5" d="M463.572 261.571L465.001 261.571L465.001 263L463.572 263L463.572 261.571z"/>
<path class="l5" d="M472.145 273.001L473.573 273.001L473.573 274.429L472.145 274.429L472.145 273.001z"/>
<path class="l5" d="M464.264 273.693L464.309 273.693L464.309 273.737L464.264 273.737L464.264 273.693z"/>
<path class="l5" d="M463.572 353.721L464.287 355.15L465.001 353.721L463.572 353.721"/>
<path class="l5" d="M472.145 353.007L473.573 353.007L473.573 354.435L472.145 354.435L472.145 353.007z"/>
<path class="l5" d="M463.572 364.436L465.001 364.436L465.001 365.865L463.572 365.865L463.572 364.436z"/>
<path class="l5" d="M455 353.007L456.429 353.007L456.429 354.435L455 354.435L455 353.007z"/>
<path class="l5" d="M464.264 353.699L464.309 353.699L464.309 353.743L464.264 353.743L464.264 353.699z"/>
<path class="l5" d="M463.93 250.499L464.644 250.499L464.644 251.213L463.93 251.213L463.93 250.499z"/>
<path class="l5" d="M463.93 376.223L464.644 376.223L464.644 376.937L463.93 376.937L463.93 376.223z"/>
<path class="l5" d="M492.86 249.963L492.86 250.856"/>
<path class="l5" d="M494.289 246.927L492.86 245.856L491.432 246.927L491.432 248.892L492.86 249.963L494.289 248.892L494.289 246.927"/>
<path class="l5" d="M492.503 250.499L493.218 250.499L493.218 251.213L492.503 251.213L492.503 250.499z"/>
<path class="l5" d="M492.86 376.58L492.86 377.473"/>
<path class="l5" d="M491.432 380.509L492.86 381.58L494.289 380.509L494.289 378.544L492.86 377.473L491.432 378.544L491.432 380.509"/>
<path class="l5" d="M492.503 376.223L493.218 376.223L493.218 376.937L492.503 376.937L492.503 376.223z"/>
<path class="l5" d="M424.284 376.58L424.284 378.009"/>
<path class="l5" d="M424.284 378.009L422.855 379.08L422.855 381.58L424.284 380.509L425.712 381.58L425.712 379.08L424.284 378.009"/>
<path class="l5" d="M423.927 376.223L424.641 376.223L424.641 376.937L423.927 376.937L423.927 376.223z"/>
<path class="l5" d="M424.284 249.427L424.284 250.856"/>
<path class="l5" d="M424.284 249.427L425.712 248.356L425.712 245.856L424.284 246.927L422.855 245.856L422.855 248.356L424.284 249.427"/>
<path class="l5" d="M423.927 250.499L424.641 250.499L424.641 251.213L423.927 251.213L423.927 250.499z"/>
<path class="l1" d="M424.284 365.151L424.284 376.58"/>
<path class="l1" d="M424.284 250.856L424.284 262.285"/>
<path class="l1" d="M432.856 273.715L435.713 273.715"/>
<path class="l1" d="M435.713 273.715L435.713 290.859"/>
<path class="l1" d="M475.716 290.859L510.005 290.859"/>
<path class="l1" d="M452.857 273.715L455.715 273.715"/>
<path class="l1" d="M452.857 273.715L452.857 290.859"/>
<path class="l1" d="M435.713 290.859L452.857 290.859"/>
<path class="l1" d="M472.859 273.715L475.716 273.715"/>
<path class="l1" d="M475.716 273.715L475.716 290.859"/>
<path class="l1" d="M452.857 290.859L475.716 290.859"/>
<path class="l1" d="M464.287 250.856L464.287 262.285"/>
<path class="l1" d="M412.854 273.715L415.712 273.715"/>
<path class="l1" d="M412.854 273.715L412.854 290.859"/>
<path class="l1" d="M378.566 290.859L412.854 290.859"/>
<path class="l1" d="M412.854 353.721L415.712 353.721"/>
<path class="l1" d="M412.854 336.577L412.854 353.721"/>
<path class="l1" d="M378.566 336.577L412.854 336.577"/>
<path class="l1" d="M452.857 353.721L455.715 353.721"/>
<path class="l1" d="M452.857 336.577L452.857 353.721"/>
<path class="l1" d="M435.713 336.577L452.857 336.577"/>
<path class="l1" d="M435.713 336.577L435.713 353.721"/>
<path class="l1" d="M432.856 353.721L435.713 353.721"/>
<path class="l1" d="M475.716 336.577L510.005 336.577"/>
<path class="l1" d="M464.287 365.151L464.287 376.58"/>
<path class="l1" d="M424.284 273.715L424.284 302.289"/>
<path class="l1" d="M464.287 302.289L492.86 302.289"/>
<path class="l1" d="M492.86 250.856L492.86 302.289"/>
<path class="l1" d="M464.287 273.715L464.287 302.289"/>
<path class="l1" d="M424.284 302.289L464.287 302.289"/>
<path class="l1" d="M424.284 325.147L424.284 353.721"/>
<path class="l1" d="M464.287 325.147L492.86 325.147"/>
<path class="l1" d="M492.86 325.147L492.86 376.58"/>
<path class="l1" d="M464.287 325.147L464.287 353.721"/>
<path class="l1" d="M424.284 325.147L464.287 325.147"/>
<path class="l1" d="M378.566 313.718L378.566 336.577"/>
<path class="l1" d="M367.136 313.718L378.566 313.718"/>
<path class="l1" d="M378.566 290.859L378.566 313.718"/>
<path class="l1" d="M510.005 313.718L510.005 336.577"/>
<path class="l1" d="M510.005 313.718L521.434 313.718"/>
<path class="l1" d="M510.005 290.859L510.005 313.718"/>
<path class="l1" d="M472.859 353.721L475.716 353.721"/>
<path class="l1" d="M475.716 336.577L475.716 353.721"/>
<path class="l1" d="M452.857 336.577L475.716 336.577"/>
<circle class="l1" cx="378.566" cy="313.718" r="1.05722"/>
<circle class="l1" cx="378.566" cy="313.718" r="1.05722"/>
<circle class="l1" cx="378.566" cy="313.718" r="1.05722"/>
<circle class="l1" cx="464.287" cy="325.147" r="1.05722"/>
<circle class="l1" cx="464.287" cy="302.289" r="1.05722"/>
<circle class="l1" cx="464.287" cy="302.289" r="1.05722"/>
<circle class="l1" cx="475.716" cy="290.859" r="1.05722"/>
<circle class="l1" cx="452.857" cy="290.859" r="1.05722"/>
<circle class="l1" cx="452.857" cy="336.577" r="1.05722"/>
<circle class="l1" cx="475.716" cy="336.577" r="1.05722"/>
<circle class="l1" cx="475.716" cy="336.577" r="1.05722"/>
<circle class="l1" cx="510.005" cy="313.718" r="1.05722"/>
<circle class="l1" cx="510.005" cy="313.718" r="1.05722"/>
<circle class="l1" cx="510.005" cy="313.718" r="1.05722"/>
<circle class="l1" cx="464.287" cy="325.147" r="1.05722"/>
<circle class="l1" cx="464.287" cy="325.147" r="1.05722"/>
<circle class="l1" cx="464.287" cy="302.289" r="1.05722"/>
<circle class="l1" cx="475.716" cy="336.577" r="1.05722"/>
<circle class="l1" cx="452.857" cy="336.577" r="1.05722"/>
<circle class="l1" cx="452.857" cy="336.577" r="1.05722"/>
<circle class="l1" cx="452.857" cy="290.859" r="1.05722"/>
<circle class="l1" cx="475.716" cy="290.859" r="1.05722"/>
<circle class="l1" cx="452.857" cy="290.859" r="1.05722"/>
<circle class="l1" cx="475.716" cy="290.859" r="1.05722"/>
<text fill="#222222"  xml:space="preserve" font-size="14.8583" transform="translate(261.414, 44.3302)" >Parameterizable Transmission Gate with Dummies</text>
<text fill="#222222"  xml:space="preserve" font-size="7.42915" transform="translate(178.55, 74.7303)" >-) In most cases, equal W/L ratios for both p- and n-MOSFETs are used.</text>
<text fill="#222222"  xml:space="preserve" font-size="7.42915" transform="translate(178.55, 91.7728)" >-) For transmission gates, the sizing of PMOS could be the same as NMOS because large PMOS increases its </text>
<text fill="#222222"  xml:space="preserve" font-size="7.42915" transform="translate(178.55, 100.294)" >parasitic capacitance at the drain and the source. Thus, the speed is decreased in turn when (W/L)p=3(W/L)n.</text>
<text fill="#222222"  xml:space="preserve" font-size="7.42915" transform="translate(178.55, 117.336)" >-) If W is increased, the on-resistance decreases and vice versa.</text>
<text fill="#222222"  xml:space="preserve" font-size="7.42915" transform="translate(178.55, 125.858)" > </text>
<text fill="#222222"  xml:space="preserve" font-size="7.42915" transform="translate(178.55, 134.379)" >-) If L is increased, the drain-source leakage current decreases but the TG gets slower and vice versa.</text>
<text fill="#222222"  xml:space="preserve" font-size="7.42915" transform="translate(178.55, 151.421)" >-) Furthermore, larger switches have more charge in the inversion layer, which leads to increased charge injection when the switches are turned off. </text>
<text fill="#222222"  xml:space="preserve" font-size="7.42915" transform="translate(178.55, 159.943)" >Larger switches also increase the drain-source overlap capacitance, which leads to increased clock feedthrough.</text>
<text fill="#222222"  xml:space="preserve" font-size="7.42915" transform="translate(178.55, 168.464)" >Accordingly, larger switches are not always the solution. Alternatively, one can use bootstrapped switches [Wulff].</text>
<text fill="#222222"  xml:space="preserve" font-size="7.42915" transform="translate(178.55, 185.506)" >-) To compensate charge injection and clock feedthrough dummy MOSFETs with half W can be used [Baker].</text>
<text fill="#222222"  xml:space="preserve" font-size="7.42915" transform="translate(178.55, 202.549)" >-) If available, minimum-sized thick-oxide MOSFETs decrease leakage currents and charge injection simultaneously [Fath].</text>
<text fill="#222222"  xml:space="preserve" font-size="7.42915" transform="translate(344.278, 429.043)" >di_tg_ctrl = 1, di_tg_ctrl_n = 0: v_a connected to v_b</text>
<text fill="#222222"  xml:space="preserve" font-size="7.42915" transform="translate(344.278, 437.565)" >di_tg_ctrl = 0, di_tg_ctrl_n = 1: v_a = X, v_b = HIGH-Z</text>
</svg>
