<svg xmlns="http://www.w3.org/2000/svg" xmlns:xlink="http://www.w3.org/1999/xlink" width="1066" height="666" version="1.1">
<style type="text/css">
.l0{
  fill: #ffffff;
  stroke: #ffffff;
  stroke-linecap:round;
  stroke-linejoin:round;
  stroke-width: 0.482905;
}
.l1{
  fill: #0099cc;
  stroke: #0099cc;
  stroke-linecap:round;
  stroke-linejoin:round;
  stroke-width: 0.482905;
}
.l2{
  fill: #aaaaaa; fill-opacity: 0.2;
  stroke: #aaaaaa;
  stroke-linecap:round;
  stroke-linejoin:round;
  stroke-width: 0.482905;
}
.l3{
  fill: #222222; fill-opacity: 0.5;
  stroke: #222222;
  stroke-linecap:round;
  stroke-linejoin:round;
  stroke-width: 0.482905;
}
.l4{
  fill: #229900;
  stroke: #229900;
  stroke-linecap:round;
  stroke-linejoin:round;
  stroke-width: 0.482905;
}
.l5{
  fill: #bb2200;
  stroke: #bb2200;
  stroke-linecap:round;
  stroke-linejoin:round;
  stroke-width: 0.482905;
}
.l6{
  fill: #0066cc; fill-opacity: 0.5;
  stroke: #0066cc;
  stroke-linecap:round;
  stroke-linejoin:round;
  stroke-width: 0.482905;
}
.l7{
  fill: #ff0000; fill-opacity: 0.5;
  stroke: #ff0000;
  stroke-linecap:round;
  stroke-linejoin:round;
  stroke-width: 0.482905;
}
.l8{
  fill: #888800; fill-opacity: 0.5;
  stroke: #888800;
  stroke-linecap:round;
  stroke-linejoin:round;
  stroke-width: 0.482905;
}
.l9{
  fill: #00aaaa; fill-opacity: 0.5;
  stroke: #00aaaa;
  stroke-linecap:round;
  stroke-linejoin:round;
  stroke-width: 0.482905;
}
.l10{
  fill: #880088;
  stroke: #880088;
  stroke-linecap:round;
  stroke-linejoin:round;
  stroke-width: 0.482905;
}
.l11{
  fill: #00ff00; fill-opacity: 0.5;
  stroke: #00ff00;
  stroke-linecap:round;
  stroke-linejoin:round;
  stroke-width: 0.482905;
}
.l12{
  fill: #0000cc; fill-opacity: 0.5;
  stroke: #0000cc;
  stroke-linecap:round;
  stroke-linejoin:round;
  stroke-width: 0.482905;
}
.l13{
  fill: #666600; fill-opacity: 0.5;
  stroke: #666600;
  stroke-linecap:round;
  stroke-linejoin:round;
  stroke-width: 0.482905;
}
.l14{
  fill: #557755; fill-opacity: 0.2;
  stroke: #557755;
  stroke-linecap:round;
  stroke-linejoin:round;
  stroke-width: 0.482905;
}
.l15{
  fill: #aa2222; fill-opacity: 0.5;
  stroke: #aa2222;
  stroke-linecap:round;
  stroke-linejoin:round;
  stroke-width: 0.482905;
}
.l16{
  fill: #7ccc40; fill-opacity: 0.5;
  stroke: #7ccc40;
  stroke-linecap:round;
  stroke-linejoin:round;
  stroke-width: 0.482905;
}
.l17{
  fill: #00ffcc; fill-opacity: 0.2;
  stroke: #00ffcc;
  stroke-linecap:round;
  stroke-linejoin:round;
  stroke-width: 0.482905;
}
.l18{
  fill: #ce0097; fill-opacity: 0.5;
  stroke: #ce0097;
  stroke-linecap:round;
  stroke-linejoin:round;
  stroke-width: 0.482905;
}
.l19{
  fill: #d2d46b; fill-opacity: 0.2;
  stroke: #d2d46b;
  stroke-linecap:round;
  stroke-linejoin:round;
  stroke-width: 0.482905;
}
.l20{
  fill: #ef6158; fill-opacity: 0.2;
  stroke: #ef6158;
  stroke-linecap:round;
  stroke-linejoin:round;
  stroke-width: 0.482905;
}
.l21{
  fill: #fdb200; fill-opacity: 0.2;
  stroke: #fdb200;
  stroke-linecap:round;
  stroke-linejoin:round;
  stroke-width: 0.482905;
}
text {font-family: Sans-Serif;}
</style>
<rect class="l0" x="0" y="0" width="1066" height="666"/>
<path class="l4" d="M223.583 643.133L980.135 643.133"/>
<path class="l4" d="M85.8654 643.133L109.116 643.133"/>
<path class="l4" d="M980.135 9.99L980.135 643.133"/>
<path class="l4" d="M85.8654 9.99L980.135 9.99"/>
<path class="l4" d="M85.8654 9.99L85.8654 643.133"/>
<path class="l4" d="M507.96 585.899L507.96 643.133"/>
<path class="l4" d="M507.96 585.899L980.135 585.899"/>
<path class="l4" d="M507.96 614.516L980.135 614.516"/>
<path class="l4" d="M733.316 614.516L733.316 643.133"/>
<path class="l4" d="M733.316 585.899L733.316 614.516"/>
<path class="l4" d="M629.581 614.516L629.581 643.133"/>
<path class="l4" d="M507.066 440.133L523.163 440.133"/>
<path class="l4" d="M521.375 435.662L525.846 435.662"/>
<path class="l4" d="M504.383 435.662L508.855 435.662"/>
<path class="l4" d="M509.749 441.922L520.48 441.922"/>
<path class="l4" d="M508.855 435.662L508.855 440.133"/>
<path class="l4" d="M521.375 435.662L521.375 440.133"/>
<path class="l4" d="M515.115 442.101L515.115 449.97"/>
<path class="l4" d="M507.96 437.451L508.855 435.662L509.749 437.451L507.96 437.451"/>
<path class="l4" d="M507.066 331.033L523.163 331.033"/>
<path class="l4" d="M521.375 335.504L525.846 335.504"/>
<path class="l4" d="M504.383 335.504L508.855 335.504"/>
<path class="l4" d="M509.749 329.244L520.48 329.244"/>
<path class="l4" d="M508.855 331.033L508.855 335.504"/>
<path class="l4" d="M521.375 331.033L521.375 335.504"/>
<path class="l4" d="M515.115 321.196L515.115 329.065"/>
<path class="l4" d="M522.269 332.821L521.375 331.033L520.48 332.821L522.269 332.821"/>
<path class="l5" d="M135.945 637.767L135.833 637.879L135.721 637.99L135.609 638.102L135.497 638.214L135.386 638.326L135.274 638.438L135.162 638.549L135.05 638.661L134.938 638.773L134.827 638.885L134.715 638.997L134.603 639.108L134.491 639.22L134.38 639.332L134.268 639.444L134.156 639.555L134.044 639.667L133.932 639.779L133.821 639.891L133.709 640.003L133.597 640.114L133.485 640.226L133.373 640.338L133.262 640.45L133.15 640.562L133.038 640.673L132.926 640.785L132.815 640.897L132.703 641.009L132.591 641.12L132.479 641.232L132.367 641.344L132.367 641.344L132.259 641.456L132.158 641.568L132.064 641.679L131.976 641.791L131.896 641.903L131.822 642.015L131.756 642.126L131.697 642.238L131.644 642.35L131.599 642.462L131.561 642.574L131.529 642.685L131.505 642.797L131.487 642.909L131.477 643.021L131.473 643.133L131.477 643.244L131.487 643.356L131.505 643.468L131.529 643.58L131.561 643.691L131.599 643.803L131.644 643.915L131.697 644.027L131.756 644.139L131.822 644.25L131.896 644.362L131.976 644.474L132.064 644.586L132.158 644.697L132.259 644.809L132.367 644.921L132.367 644.921L132.48 645.033L132.593 645.146L132.707 645.26L132.822 645.375L132.937 645.491L133.054 645.607L133.171 645.725L133.29 645.843L133.409 645.962L133.529 646.083L133.65 646.204L133.772 646.325L133.894 646.448L134.018 646.572L134.142 646.696L134.268 646.821L134.394 646.948L134.521 647.075L134.649 647.203L134.778 647.331L134.907 647.461L135.038 647.592L135.169 647.723L135.302 647.855L135.435 647.989L135.569 648.123L135.704 648.258L135.84 648.393L135.976 648.53L136.114 648.668L136.252 648.806L136.392 648.945L136.392 648.945L136.531 649.084L136.668 649.221L136.803 649.357L136.937 649.49L137.068 649.622L137.199 649.752L137.327 649.881L137.454 650.007L137.578 650.132L137.702 650.255L137.823 650.377L137.943 650.496L138.061 650.614L138.177 650.73L138.291 650.845L138.404 650.957L138.515 651.068L138.624 651.177L138.731 651.285L138.837 651.391L138.941 651.494L139.043 651.597L139.143 651.697L139.242 651.796L139.339 651.893L139.434 651.988L139.528 652.081L139.619 652.173L139.709 652.263L139.798 652.351L139.884 652.438L139.969 652.522L139.969 652.522L140.05 652.605L140.126 652.685L140.197 652.762L140.262 652.837L140.322 652.909L140.377 652.978L140.427 653.045L140.472 653.109L140.511 653.171L140.545 653.23L140.574 653.286L140.598 653.34L140.616 653.391L140.629 653.439L140.637 653.485L140.639 653.528L140.637 653.569L140.629 653.607L140.616 653.642L140.598 653.675L140.574 653.705L140.545 653.733L140.511 653.758L140.472 653.78L140.427 653.8L140.377 653.817L140.322 653.831L140.262 653.843L140.197 653.852L140.126 653.859L140.05 653.862L139.969 653.864L139.969 653.864L139.885 653.864L139.801 653.864L139.717 653.864L139.633 653.864L139.55 653.864L139.466 653.864L139.382 653.864L139.298 653.864L139.214 653.864L139.13 653.864L139.047 653.864L138.963 653.864L138.879 653.864L138.795 653.864L138.711 653.864L138.627 653.864L138.543 653.864L138.46 653.864L138.376 653.864L138.292 653.864L138.208 653.864L138.124 653.864L138.04 653.864L137.957 653.864L137.873 653.864L137.789 653.864L137.705 653.864L137.621 653.864L137.537 653.864L137.454 653.864L137.37 653.864L137.286 653.864L137.286 653.864L137.203 653.864L137.12 653.864L137.038 653.864L136.958 653.864L136.878 653.864L136.799 653.864L136.72 653.864L136.643 653.864L136.567 653.864L136.491 653.864L136.417 653.864L136.343 653.864L136.27 653.864L136.198 653.864L136.127 653.864L136.056 653.864L135.987 653.864L135.918 653.864L135.851 653.864L135.784 653.864L135.718 653.864L135.653 653.864L135.589 653.864L135.525 653.864L135.463 653.864L135.401 653.864L135.341 653.864L135.281 653.864L135.222 653.864L135.164 653.864L135.107 653.864L135.05 653.864L135.05 653.864L134.994 653.863L134.938 653.86L134.883 653.856L134.827 653.85L134.771 653.842L134.715 653.832L134.659 653.821L134.603 653.808L134.547 653.793L134.491 653.776L134.435 653.758L134.38 653.738L134.324 653.716L134.268 653.693L134.212 653.667L134.156 653.64L134.1 653.611L134.044 653.581L133.988 653.548L133.932 653.514L133.877 653.479L133.821 653.441L133.765 653.402L133.709 653.361L133.653 653.318L133.597 653.273L133.541 653.227L133.485 653.179L133.429 653.129L133.373 653.078L133.318 653.025L133.262 652.969L133.262 652.969L133.206 652.914L133.15 652.858L133.094 652.802L133.038 652.746L132.982 652.69L132.926 652.634L132.87 652.578L132.815 652.522L132.759 652.466L132.703 652.411L132.647 652.355L132.591 652.299L132.535 652.243L132.479 652.187L132.423 652.131L132.367 652.075L132.312 652.019L132.256 651.963L132.2 651.908L132.144 651.852L132.088 651.796L132.032 651.74L131.976 651.684L131.92 651.628L131.864 651.572L131.809 651.516L131.753 651.46L131.697 651.405L131.641 651.349L131.585 651.293L131.529 651.237L131.473 651.181L131.473 651.181L131.416 651.124L131.358 651.066L131.298 651.005L131.236 650.943L131.172 650.88L131.106 650.814L131.039 650.747L130.97 650.678L130.899 650.607L130.827 650.535L130.753 650.46L130.677 650.384L130.599 650.307L130.52 650.227L130.438 650.146L130.355 650.063L130.271 649.978L130.184 649.892L130.096 649.804L130.006 649.714L129.914 649.622L129.821 649.529L129.726 649.433L129.629 649.337L129.53 649.238L129.43 649.137L129.327 649.035L129.224 648.931L129.118 648.826L129.01 648.718L128.901 648.609L128.79 648.498L128.79 648.498L128.679 648.39L128.567 648.289L128.455 648.194L128.343 648.107L128.231 648.027L128.12 647.953L128.008 647.887L127.896 647.827L127.784 647.775L127.673 647.73L127.561 647.691L127.449 647.66L127.337 647.635L127.225 647.618L127.114 647.607L127.002 647.604L126.89 647.607L126.778 647.618L126.666 647.635L126.555 647.66L126.443 647.691L126.331 647.73L126.219 647.775L126.108 647.827L125.996 647.887L125.884 647.953L125.772 648.027L125.66 648.107L125.549 648.194L125.437 648.289L125.325 648.39L125.213 648.498L125.213 648.498L125.102 648.609L124.993 648.718L124.886 648.826L124.78 648.931L124.676 649.035L124.574 649.137L124.474 649.238L124.375 649.337L124.278 649.433L124.183 649.529L124.089 649.622L123.998 649.714L123.908 649.804L123.819 649.892L123.733 649.978L123.648 650.063L123.565 650.146L123.484 650.227L123.405 650.307L123.327 650.384L123.251 650.46L123.177 650.535L123.104 650.607L123.034 650.678L122.965 650.747L122.897 650.814L122.832 650.88L122.768 650.943L122.706 651.005L122.646 651.066L122.587 651.124L122.53 651.181L122.53 651.181L122.475 651.237L122.419 651.293L122.363 651.349L122.307 651.405L122.251 651.46L122.195 651.516L122.139 651.572L122.083 651.628L122.027 651.684L121.972 651.74L121.916 651.796L121.86 651.852L121.804 651.908L121.748 651.963L121.692 652.019L121.636 652.075L121.58 652.131L121.524 652.187L121.469 652.243L121.413 652.299L121.357 652.355L121.301 652.411L121.245 652.466L121.189 652.522L121.133 652.578L121.077 652.634L121.021 652.69L120.966 652.746L120.91 652.802L120.854 652.858L120.798 652.914L120.742 652.969L120.742 652.969L120.686 653.025L120.63 653.078L120.574 653.129L120.518 653.179L120.462 653.227L120.407 653.273L120.351 653.318L120.295 653.361L120.239 653.402L120.183 653.441L120.127 653.479L120.071 653.514L120.015 653.548L119.959 653.581L119.904 653.611L119.848 653.64L119.792 653.667L119.736 653.693L119.68 653.716L119.624 653.738L119.568 653.758L119.512 653.776L119.456 653.793L119.401 653.808L119.345 653.821L119.289 653.832L119.233 653.842L119.177 653.85L119.121 653.856L119.065 653.86L119.009 653.863L118.953 653.864L118.953 653.864L118.897 653.864L118.84 653.864L118.782 653.864L118.723 653.864L118.663 653.864L118.602 653.864L118.541 653.864L118.478 653.864L118.415 653.864L118.351 653.864L118.286 653.864L118.22 653.864L118.153 653.864L118.085 653.864L118.017 653.864L117.947 653.864L117.877 653.864L117.806 653.864L117.734 653.864L117.661 653.864L117.587 653.864L117.512 653.864L117.437 653.864L117.36 653.864L117.283 653.864L117.205 653.864L117.126 653.864L117.046 653.864L116.965 653.864L116.884 653.864L116.801 653.864L116.718 653.864L116.718 653.864L116.634 653.864L116.55 653.864L116.466 653.864L116.382 653.864L116.299 653.864L116.215 653.864L116.131 653.864L116.047 653.864L115.963 653.864L115.879 653.864L115.796 653.864L115.712 653.864L115.628 653.864L115.544 653.864L115.46 653.864L115.376 653.864L115.292 653.864L115.209 653.864L115.125 653.864L115.041 653.864L114.957 653.864L114.873 653.864L114.789 653.864L114.706 653.864L114.622 653.864L114.538 653.864L114.454 653.864L114.37 653.864L114.286 653.864L114.203 653.864L114.119 653.864L114.035 653.864L114.035 653.864L113.954 653.862L113.878 653.859L113.807 653.852L113.741 653.843L113.681 653.831L113.626 653.817L113.576 653.8L113.532 653.78L113.493 653.758L113.459 653.733L113.43 653.705L113.406 653.675L113.388 653.642L113.375 653.607L113.367 653.569L113.364 653.528L113.367 653.485L113.375 653.439L113.388 653.391L113.406 653.34L113.43 653.286L113.459 653.23L113.493 653.171L113.532 653.109L113.576 653.045L113.626 652.978L113.681 652.909L113.741 652.837L113.807 652.762L113.878 652.685L113.954 652.605L114.035 652.522L114.035 652.522L114.12 652.438L114.206 652.351L114.294 652.263L114.384 652.173L114.476 652.081L114.569 651.988L114.665 651.893L114.762 651.796L114.86 651.697L114.961 651.597L115.063 651.494L115.167 651.391L115.272 651.285L115.38 651.177L115.489 651.068L115.6 650.957L115.713 650.845L115.827 650.73L115.943 650.614L116.061 650.496L116.181 650.377L116.302 650.255L116.425 650.132L116.55 650.007L116.677 649.881L116.805 649.752L116.935 649.622L117.067 649.49L117.201 649.357L117.336 649.221L117.473 649.084L117.612 648.945L117.612 648.945L117.751 648.806L117.89 648.668L118.027 648.53L118.164 648.393L118.3 648.258L118.435 648.123L118.569 647.989L118.702 647.855L118.834 647.723L118.966 647.592L119.096 647.461L119.226 647.331L119.355 647.203L119.483 647.075L119.61 646.948L119.736 646.821L119.861 646.696L119.986 646.572L120.109 646.448L120.232 646.325L120.354 646.204L120.475 646.083L120.595 645.962L120.714 645.843L120.832 645.725L120.95 645.607L121.066 645.491L121.182 645.375L121.297 645.26L121.411 645.146L121.524 645.033L121.636 644.921L121.636 644.921L121.745 644.809L121.846 644.697L121.94 644.586L122.027 644.474L122.108 644.362L122.181 644.25L122.248 644.139L122.307 644.027L122.359 643.915L122.405 643.803L122.443 643.691L122.475 643.58L122.499 643.468L122.517 643.356L122.527 643.244L122.53 643.133L122.527 643.021L122.517 642.909L122.499 642.797L122.475 642.685L122.443 642.574L122.405 642.462L122.359 642.35L122.307 642.238L122.248 642.126L122.181 642.015L122.108 641.903L122.027 641.791L121.94 641.679L121.846 641.568L121.745 641.456L121.636 641.344L121.636 641.344L121.524 641.232L121.411 641.119L121.297 641.005L121.182 640.89L121.066 640.774L120.95 640.658L120.832 640.54L120.714 640.422L120.595 640.303L120.475 640.182L120.354 640.062L120.232 639.94L120.109 639.817L119.986 639.693L119.861 639.569L119.736 639.444L119.61 639.317L119.483 639.19L119.355 639.062L119.226 638.934L119.096 638.804L118.966 638.673L118.834 638.542L118.702 638.41L118.569 638.276L118.435 638.142L118.3 638.008L118.164 637.872L118.027 637.735L117.89 637.597L117.751 637.459L117.612 637.32L117.612 637.32L117.473 637.181L117.336 637.044L117.201 636.908L117.067 636.775L116.935 636.643L116.805 636.513L116.677 636.384L116.55 636.258L116.425 636.133L116.302 636.01L116.181 635.888L116.061 635.769L115.943 635.651L115.827 635.535L115.713 635.42L115.6 635.308L115.489 635.197L115.38 635.088L115.272 634.98L115.167 634.875L115.063 634.771L114.961 634.668L114.86 634.568L114.762 634.469L114.665 634.372L114.569 634.277L114.476 634.184L114.384 634.092L114.294 634.002L114.206 633.914L114.12 633.827L114.035 633.743L114.035 633.743L113.954 633.66L113.878 633.58L113.807 633.503L113.741 633.428L113.681 633.356L113.626 633.287L113.576 633.22L113.532 633.156L113.493 633.094L113.459 633.035L113.43 632.979L113.406 632.925L113.388 632.874L113.375 632.826L113.367 632.78L113.364 632.737L113.367 632.696L113.375 632.658L113.388 632.623L113.406 632.59L113.43 632.56L113.459 632.532L113.493 632.507L113.532 632.485L113.576 632.465L113.626 632.448L113.681 632.434L113.741 632.422L113.807 632.413L113.878 632.407L113.954 632.403L114.035 632.401L114.035 632.401L114.119 632.401L114.203 632.401L114.286 632.401L114.37 632.401L114.454 632.401L114.538 632.401L114.622 632.401L114.706 632.401L114.789 632.401L114.873 632.401L114.957 632.401L115.041 632.401L115.125 632.401L115.209 632.401L115.292 632.401L115.376 632.401L115.46 632.401L115.544 632.401L115.628 632.401L115.712 632.401L115.796 632.401L115.879 632.401L115.963 632.401L116.047 632.401L116.131 632.401L116.215 632.401L116.299 632.401L116.382 632.401L116.466 632.401L116.55 632.401L116.634 632.401L116.718 632.401L116.718 632.401L116.801 632.401L116.884 632.401L116.965 632.401L117.046 632.401L117.126 632.401L117.205 632.401L117.283 632.401L117.36 632.401L117.437 632.401L117.512 632.401L117.587 632.401L117.661 632.401L117.734 632.401L117.806 632.401L117.877 632.401L117.947 632.401L118.017 632.401L118.085 632.401L118.153 632.401L118.22 632.401L118.286 632.401L118.351 632.401L118.415 632.401L118.478 632.401L118.541 632.401L118.602 632.401L118.663 632.401L118.723 632.401L118.782 632.401L118.84 632.401L118.897 632.401L118.953 632.401L118.953 632.401L119.009 632.402L119.065 632.405L119.121 632.409L119.177 632.415L119.233 632.423L119.289 632.433L119.345 632.444L119.401 632.457L119.456 632.472L119.512 632.489L119.568 632.507L119.624 632.527L119.68 632.549L119.736 632.572L119.792 632.598L119.848 632.625L119.904 632.654L119.959 632.684L120.015 632.717L120.071 632.751L120.127 632.786L120.183 632.824L120.239 632.863L120.295 632.904L120.351 632.947L120.407 632.992L120.462 633.038L120.518 633.086L120.574 633.136L120.63 633.187L120.686 633.241L120.742 633.296L120.742 633.296L120.798 633.351L120.854 633.407L120.91 633.463L120.966 633.519L121.021 633.575L121.077 633.631L121.133 633.687L121.189 633.743L121.245 633.799L121.301 633.854L121.357 633.91L121.413 633.966L121.469 634.022L121.524 634.078L121.58 634.134L121.636 634.19L121.692 634.246L121.748 634.302L121.804 634.358L121.86 634.413L121.916 634.469L121.972 634.525L122.027 634.581L122.083 634.637L122.139 634.693L122.195 634.749L122.251 634.805L122.307 634.861L122.363 634.916L122.419 634.972L122.475 635.028L122.53 635.084L122.53 635.084L122.587 635.141L122.646 635.199L122.706 635.26L122.768 635.322L122.832 635.385L122.897 635.451L122.965 635.518L123.034 635.587L123.104 635.658L123.177 635.73L123.251 635.805L123.327 635.881L123.405 635.958L123.484 636.038L123.565 636.119L123.648 636.202L123.733 636.287L123.819 636.373L123.908 636.461L123.998 636.551L124.089 636.643L124.183 636.736L124.278 636.832L124.375 636.929L124.474 637.027L124.574 637.128L124.676 637.23L124.78 637.334L124.886 637.439L124.993 637.547L125.102 637.656L125.213 637.767L125.213 637.767L125.325 637.875L125.437 637.977L125.549 638.071L125.66 638.158L125.772 638.238L125.884 638.312L125.996 638.378L126.108 638.438L126.219 638.49L126.331 638.535L126.443 638.574L126.555 638.605L126.666 638.63L126.778 638.647L126.89 638.658L127.002 638.661L127.114 638.658L127.225 638.647L127.337 638.63L127.449 638.605L127.561 638.574L127.673 638.535L127.784 638.49L127.896 638.438L128.008 638.378L128.12 638.312L128.231 638.238L128.343 638.158L128.455 638.071L128.567 637.977L128.679 637.875L128.79 637.767L128.79 637.767L128.901 637.656L129.01 637.547L129.118 637.439L129.224 637.334L129.327 637.23L129.43 637.128L129.53 637.027L129.629 636.929L129.726 636.832L129.821 636.736L129.914 636.643L130.006 636.551L130.096 636.461L130.184 636.373L130.271 636.287L130.355 636.202L130.438 636.119L130.52 636.038L130.599 635.958L130.677 635.881L130.753 635.805L130.827 635.73L130.899 635.658L130.97 635.587L131.039 635.518L131.106 635.451L131.172 635.385L131.236 635.322L131.298 635.26L131.358 635.199L131.416 635.141L131.473 635.084L131.473 635.084L131.529 635.028L131.585 634.972L131.641 634.916L131.697 634.861L131.753 634.805L131.809 634.749L131.864 634.693L131.92 634.637L131.976 634.581L132.032 634.525L132.088 634.469L132.144 634.413L132.2 634.358L132.256 634.302L132.312 634.246L132.367 634.19L132.423 634.134L132.479 634.078L132.535 634.022L132.591 633.966L132.647 633.91L132.703 633.854L132.759 633.799L132.815 633.743L132.87 633.687L132.926 633.631L132.982 633.575L133.038 633.519L133.094 633.463L133.15 633.407L133.206 633.351L133.262 633.296L133.262 633.296L133.318 633.241L133.373 633.187L133.429 633.136L133.485 633.086L133.541 633.038L133.597 632.992L133.653 632.947L133.709 632.904L133.765 632.863L133.821 632.824L133.877 632.786L133.932 632.751L133.988 632.717L134.044 632.684L134.1 632.654L134.156 632.625L134.212 632.598L134.268 632.572L134.324 632.549L134.38 632.527L134.435 632.507L134.491 632.489L134.547 632.472L134.603 632.457L134.659 632.444L134.715 632.433L134.771 632.423L134.827 632.415L134.883 632.409L134.938 632.405L134.994 632.402L135.05 632.401L135.05 632.401L135.107 632.401L135.164 632.401L135.222 632.401L135.281 632.401L135.341 632.401L135.401 632.401L135.463 632.401L135.525 632.401L135.589 632.401L135.653 632.401L135.718 632.401L135.784 632.401L135.851 632.401L135.918 632.401L135.987 632.401L136.056 632.401L136.127 632.401L136.198 632.401L136.27 632.401L136.343 632.401L136.417 632.401L136.491 632.401L136.567 632.401L136.643 632.401L136.72 632.401L136.799 632.401L136.878 632.401L136.958 632.401L137.038 632.401L137.12 632.401L137.203 632.401L137.286 632.401L137.286 632.401L137.37 632.401L137.454 632.401L137.537 632.401L137.621 632.401L137.705 632.401L137.789 632.401L137.873 632.401L137.957 632.401L138.04 632.401L138.124 632.401L138.208 632.401L138.292 632.401L138.376 632.401L138.46 632.401L138.543 632.401L138.627 632.401L138.711 632.401L138.795 632.401L138.879 632.401L138.963 632.401L139.047 632.401L139.13 632.401L139.214 632.401L139.298 632.401L139.382 632.401L139.466 632.401L139.55 632.401L139.633 632.401L139.717 632.401L139.801 632.401L139.885 632.401L139.969 632.401L139.969 632.401L140.05 632.403L140.126 632.407L140.197 632.413L140.262 632.422L140.322 632.434L140.377 632.448L140.427 632.465L140.472 632.485L140.511 632.507L140.545 632.532L140.574 632.56L140.598 632.59L140.616 632.623L140.629 632.658L140.637 632.696L140.639 632.737L140.637 632.78L140.629 632.826L140.616 632.874L140.598 632.925L140.574 632.979L140.545 633.035L140.511 633.094L140.472 633.156L140.427 633.22L140.377 633.287L140.322 633.356L140.262 633.428L140.197 633.503L140.126 633.58L140.05 633.66L139.969 633.743L139.969 633.743L139.884 633.828L139.796 633.916L139.705 634.006L139.612 634.099L139.517 634.195L139.419 634.293L139.318 634.394L139.214 634.497L139.108 634.603L138.999 634.712L138.888 634.823L138.774 634.937L138.657 635.054L138.538 635.173L138.416 635.295L138.292 635.419L138.165 635.547L138.035 635.676L137.903 635.809L137.768 635.943L137.63 636.081L137.49 636.221L137.347 636.364L137.202 636.509L137.054 636.657L136.903 636.808L136.75 636.961L136.594 637.117L136.436 637.276L136.275 637.437L136.111 637.601L135.945 637.767"/>
<path class="l5" d="M442.455 385.583L443.573 385.583"/>
<path class="l5" d="M438.655 387.372L437.313 385.583L438.655 383.794L441.114 383.794L442.455 385.583L441.114 387.372L438.655 387.372"/>
<path class="l5" d="M443.126 385.136L444.02 385.136L444.02 386.03L443.126 386.03L443.126 385.136z"/>
<path class="l5" d="M622.427 385.583L623.545 385.583"/>
<path class="l5" d="M627.345 387.372L628.687 385.583L627.345 383.794L624.886 383.794L623.545 385.583L624.886 387.372L627.345 387.372"/>
<path class="l5" d="M621.98 385.136L622.874 385.136L622.874 386.03L621.98 386.03L621.98 385.136z"/>
<path class="l5" d="M514.22 435.662L515.115 437.451L516.009 435.662L514.22 435.662"/>
<path class="l5" d="M524.952 434.768L526.74 434.768L526.74 436.556L524.952 436.556L524.952 434.768z"/>
<path class="l5" d="M514.22 449.076L516.009 449.076L516.009 450.865L514.22 450.865L514.22 449.076z"/>
<path class="l5" d="M503.489 434.768L505.278 434.768L505.278 436.556L503.489 436.556L503.489 434.768z"/>
<path class="l5" d="M515.087 435.634L515.143 435.634L515.143 435.69L515.087 435.69L515.087 435.634z"/>
<path class="l5" d="M516.009 333.715L515.115 335.504L514.22 333.715L516.009 333.715"/>
<path class="l5" d="M503.489 334.61L505.278 334.61L505.278 336.398L503.489 336.398L503.489 334.61z"/>
<path class="l5" d="M514.22 320.301L516.009 320.301L516.009 322.09L514.22 322.09L514.22 320.301z"/>
<path class="l5" d="M524.952 334.61L526.74 334.61L526.74 336.398L524.952 336.398L524.952 334.61z"/>
<path class="l5" d="M515.087 335.476L515.143 335.476L515.143 335.532L515.087 335.532L515.087 335.476z"/>
<path class="l5" d="M565.194 305.77L565.194 306.887"/>
<path class="l5" d="M566.982 301.969L565.194 300.627L563.405 301.969L563.405 304.428L565.194 305.77L566.982 304.428L566.982 301.969"/>
<path class="l5" d="M564.747 306.44L565.641 306.44L565.641 307.334L564.747 307.334L564.747 306.44z"/>
<path class="l5" d="M565.194 464.279L565.194 465.397"/>
<path class="l5" d="M563.405 469.197L565.194 470.539L566.982 469.197L566.982 466.738L565.194 465.397L563.405 466.738L563.405 469.197"/>
<path class="l5" d="M564.747 463.832L565.641 463.832L565.641 464.726L564.747 464.726L564.747 463.832z"/>
<path class="l5" d="M515.115 464.279L515.115 466.067"/>
<path class="l5" d="M515.115 466.067L513.326 467.409L513.326 470.539L515.115 469.197L516.903 470.539L516.903 467.409L515.115 466.067"/>
<path class="l5" d="M514.667 463.832L515.562 463.832L515.562 464.726L514.667 464.726L514.667 463.832z"/>
<path class="l5" d="M515.115 305.099L515.115 306.887"/>
<path class="l5" d="M515.115 305.099L516.903 303.757L516.903 300.627L515.115 301.969L513.326 300.627L513.326 303.757L515.115 305.099"/>
<path class="l5" d="M514.667 306.44L515.562 306.44L515.562 307.334L514.667 307.334L514.667 306.44z"/>
<text fill="#222222"  xml:space="preserve" font-size="14.8806" transform="translate(736.893, 635.182)" >2026-06-12  23:03:12</text>
<text fill="#222222"  xml:space="preserve" font-size="14.8806" transform="translate(511.538, 606.565)" >Simon Dorrer</text>
<text fill="#222222"  xml:space="preserve" font-size="14.8806" transform="translate(511.538, 635.182)" >Page  of </text>
<text fill="#222222"  xml:space="preserve" font-size="14.8806" transform="translate(633.158, 635.182)" >Rev. 1.0</text>
<text fill="#222222"  xml:space="preserve" font-size="18.6008" transform="translate(141.31, 651.079)" >SCHEM</text>
<text fill="#0099cc"  xml:space="preserve" font-size="6.13826" transform="translate(425.475, 387.803)" >v_a</text>
<text fill="#0099cc"  xml:space="preserve" font-size="6.13826" transform="translate(629.525, 387.803)" >v_b</text>
<text fill="#222222"  xml:space="preserve" font-size="3.72016" transform="translate(524.957, 447.028) rotate(270)" >M1</text>
<text fill="#ff0000"  xml:space="preserve" font-size="2.79012" transform="translate(518.025, 448.393) rotate(270)" >G</text>
<text fill="#222222"  xml:space="preserve" font-size="3.72016" transform="translate(507.314, 432.085) rotate(270)" >sg13_lv_nmos</text>
<text fill="#666600"  xml:space="preserve" font-size="3.72016" transform="translate(511.99, 431.638) rotate(270)" >m=1</text>
<text fill="#666600"  xml:space="preserve" font-size="3.72016" transform="translate(515.12, 431.638) rotate(270)" >ng=1</text>
<text fill="#666600"  xml:space="preserve" font-size="3.72016" transform="translate(519.591, 431.638) rotate(270)" >l=L_N</text>
<text fill="#666600"  xml:space="preserve" font-size="3.72016" transform="translate(523.615, 431.638) rotate(270)" >w=W_N</text>
<text fill="#ff0000"  xml:space="preserve" font-size="2.79012" transform="translate(508.188, 434.768) rotate(270)" >S</text>
<text fill="#ff0000"  xml:space="preserve" font-size="2.79012" transform="translate(523.908, 434.768) rotate(270)" >D</text>
<text fill="#ff0000"  xml:space="preserve" font-size="2.79012" transform="translate(518.025, 435.662) rotate(270)" >B</text>
<text fill="#222222"  xml:space="preserve" font-size="3.72016" transform="translate(524.957, 330.138) rotate(270)" >M2</text>
<text fill="#ff0000"  xml:space="preserve" font-size="2.79012" transform="translate(518.025, 324.773) rotate(270)" >G</text>
<text fill="#222222"  xml:space="preserve" font-size="3.72016" transform="translate(507.314, 364.081) rotate(270)" >sg13_lv_pmos</text>
<text fill="#666600"  xml:space="preserve" font-size="3.72016" transform="translate(511.99, 349.528) rotate(270)" >m=1</text>
<text fill="#666600"  xml:space="preserve" font-size="3.72016" transform="translate(515.12, 349.528) rotate(270)" >ng=1</text>
<text fill="#666600"  xml:space="preserve" font-size="3.72016" transform="translate(519.591, 350.528) rotate(270)" >l=L_P</text>
<text fill="#666600"  xml:space="preserve" font-size="3.72016" transform="translate(523.615, 354.528) rotate(270)" >w=W_P</text>
<text fill="#ff0000"  xml:space="preserve" font-size="2.79012" transform="translate(508.188, 338.398) rotate(270)" >D</text>
<text fill="#ff0000"  xml:space="preserve" font-size="2.79012" transform="translate(523.908, 338.398) rotate(270)" >S</text>
<text fill="#ff0000"  xml:space="preserve" font-size="2.79012" transform="translate(518.025, 337.504) rotate(270)" >B</text>
<text fill="#0099cc"  xml:space="preserve" font-size="6.13826" transform="translate(567.414, 299.789) rotate(270)" >VDD</text>
<text fill="#0099cc"  xml:space="preserve" font-size="6.13826" transform="translate(567.08, 483.377) rotate(270)" >VSS</text>
<text fill="#0099cc"  xml:space="preserve" font-size="6.13826" transform="translate(517.558, 498.986) rotate(270)" >di_tg_ctrl</text>
<text fill="#0099cc"  xml:space="preserve" font-size="6.13826" transform="translate(516.778, 300.18) rotate(270)" >di_tg_ctrl_n</text>
<path class="l1" d="M515.115 449.97L515.115 464.279"/>
<path class="l1" d="M515.115 306.887L515.115 321.196"/>
<path class="l1" d="M525.846 335.504L529.423 335.504"/>
<path class="l1" d="M529.423 335.504L529.423 356.966"/>
<path class="l1" d="M500.806 335.504L504.383 335.504"/>
<path class="l1" d="M500.806 335.504L500.806 356.966"/>
<path class="l1" d="M457.881 356.966L500.806 356.966"/>
<path class="l1" d="M500.806 435.662L504.383 435.662"/>
<path class="l1" d="M500.806 414.2L500.806 435.662"/>
<path class="l1" d="M457.881 414.2L500.806 414.2"/>
<path class="l1" d="M529.423 414.2L529.423 435.662"/>
<path class="l1" d="M525.846 435.662L529.423 435.662"/>
<path class="l1" d="M515.115 335.504L515.115 371.275"/>
<path class="l1" d="M515.115 371.275L565.194 371.275"/>
<path class="l1" d="M515.115 399.891L515.115 435.662"/>
<path class="l1" d="M565.194 399.891L565.194 464.279"/>
<path class="l1" d="M515.115 399.891L565.194 399.891"/>
<path class="l1" d="M457.881 385.583L457.881 414.2"/>
<path class="l1" d="M443.573 385.583L457.881 385.583"/>
<path class="l1" d="M457.881 356.966L457.881 385.583"/>
<path class="l1" d="M608.119 385.583L608.119 414.2"/>
<path class="l1" d="M608.119 385.583L622.427 385.583"/>
<path class="l1" d="M608.119 356.966L608.119 385.583"/>
<path class="l1" d="M565.194 306.887L565.194 371.275"/>
<path class="l1" d="M529.423 414.2L608.119 414.2"/>
<path class="l1" d="M529.423 356.966L608.119 356.966"/>
<circle class="l1" cx="457.881" cy="385.583" r="1.32352"/>
<circle class="l1" cx="457.881" cy="385.583" r="1.32352"/>
<circle class="l1" cx="457.881" cy="385.583" r="1.32352"/>
<circle class="l1" cx="608.119" cy="385.583" r="1.32352"/>
<circle class="l1" cx="608.119" cy="385.583" r="1.32352"/>
<circle class="l1" cx="608.119" cy="385.583" r="1.32352"/>
<text fill="#222222"  xml:space="preserve" font-size="18.6008" transform="translate(296.913, 55.4961)" >Parameterizable Transmission Gate without Dummies</text>
<text fill="#222222"  xml:space="preserve" font-size="9.3004" transform="translate(193.178, 100.708)" >-) In most cases, equal W/L ratios for both p- and n-MOSFETs are used.</text>
<text fill="#222222"  xml:space="preserve" font-size="9.3004" transform="translate(193.178, 122.043)" >-) For transmission gates, the sizing of PMOS could be the same as NMOS because large PMOS increases its </text>
<text fill="#222222"  xml:space="preserve" font-size="9.3004" transform="translate(193.178, 132.71)" >parasitic capacitance at the drain and the source. Thus, the speed is decreased in turn when (W/L)p=3(W/L)n.</text>
<text fill="#222222"  xml:space="preserve" font-size="9.3004" transform="translate(193.178, 154.045)" >-) If W is increased, the on-resistance decreases and vice versa.</text>
<text fill="#222222"  xml:space="preserve" font-size="9.3004" transform="translate(193.178, 164.713)" > </text>
<text fill="#222222"  xml:space="preserve" font-size="9.3004" transform="translate(193.178, 175.38)" >-) If L is increased, the drain-source leakage current decreases but the TG gets slower and vice versa.</text>
<text fill="#222222"  xml:space="preserve" font-size="9.3004" transform="translate(193.178, 196.716)" >-) Furthermore, larger switches have more charge in the inversion layer, which leads to increased charge injection when the switches are turned off. </text>
<text fill="#222222"  xml:space="preserve" font-size="9.3004" transform="translate(193.178, 207.383)" >Larger switches also increase the drain-source overlap capacitance, which leads to increased clock feedthrough.</text>
<text fill="#222222"  xml:space="preserve" font-size="9.3004" transform="translate(193.178, 218.051)" >Accordingly, larger switches are not always the solution. Alternatively, one can use bootstrapped switches [Wulff].</text>
<text fill="#222222"  xml:space="preserve" font-size="9.3004" transform="translate(193.178, 239.386)" >-) If available, minimum-sized thick-oxide MOSFETs decrease leakage currents and charge injection simultaneously [Fath].</text>
<text fill="#222222"  xml:space="preserve" font-size="9.3004" transform="translate(400.648, 522.803)" >di_tg_ctrl = 1, di_tg_ctrl_n = 0: v_a connected to v_b</text>
<text fill="#222222"  xml:space="preserve" font-size="9.3004" transform="translate(400.648, 533.47)" >di_tg_ctrl = 0, di_tg_ctrl_n = 1: v_a = X, v_b = HIGH-Z</text>
</svg>
