<svg xmlns="http://www.w3.org/2000/svg" xmlns:xlink="http://www.w3.org/1999/xlink" xml:lang="en" height="283.59559999999993pt" width="302.3806863405995pt" viewBox="-115.43839999999999 -103.55559999999998 302.3806863405995 283.59559999999993"><path d="M 0.0,-0.0 L 0,45 L 77.942,-0 L 0,-45 L 0,-0 M 77.942,-0" style="stroke:black;fill:none;stroke-width:2.0;stroke-dasharray:-;stroke-linecap:round;stroke-linejoin:round;" /><path d="M 6.142785792574934,22.5 L 13.343,22.5" style="stroke:black;fill:none;stroke-width:2.0;stroke-dasharray:-;stroke-linecap:round;stroke-linejoin:round;" /><path d="M 6.142785792574934,-22.5 L 13.343,-22.5" style="stroke:black;fill:none;stroke-width:2.0;stroke-dasharray:-;stroke-linecap:round;stroke-linejoin:round;" /><path d="M 9.742785792574933,-26.099999999999998 L 9.743,-18.9" style="stroke:black;fill:none;stroke-width:2.0;stroke-dasharray:-;stroke-linecap:round;stroke-linejoin:round;" /><path d="M 0.0,-22.5 L -36,-22.5 L -72,-22.5" style="stroke:black;fill:none;stroke-width:2.0;stroke-dasharray:-;stroke-linecap:round;stroke-linejoin:round;" /><path d="M 77.94228634059947,-0.0 L 95.942,-0 L 113.942,-0" style="stroke:black;fill:none;stroke-width:2.0;stroke-dasharray:-;stroke-linecap:round;stroke-linejoin:round;" /><path d="M 146.94228634059948,29.999999999999996 L 146.942,15 L 131.942,15 L 131.942,-15 L 146.942,-15 L 146.942,-30" style="stroke:black;fill:none;stroke-width:2.0;stroke-dasharray:-;stroke-linecap:round;stroke-linejoin:round;" /><path d="M 137.94228634059948,15.0 L 131.942,15" style="stroke:black;fill:none;stroke-width:2.0;stroke-dasharray:-;stroke-linecap:round;stroke-linejoin:round;" /><path d="M 144.942 15 L 137.942 19.5 L 137.942 10.5 Z" style="stroke:black;fill:black;stroke-linecap:butt;stroke-linejoin:miter;" /><path d="M 128.94228634059945,12.000000000000005 L 128.942,-12" style="stroke:black;fill:none;stroke-width:2.0;stroke-dasharray:-;stroke-linecap:round;stroke-linejoin:round;" /><path d="M 113.94228634059947,-0.0 L 128.942,-0" style="stroke:black;fill:none;stroke-width:2.0;stroke-dasharray:-;stroke-linecap:round;stroke-linejoin:round;" /><path d="M 146.94228634059948,29.999999999999996 L 146.942,48 L 146.942,66" style="stroke:black;fill:none;stroke-width:2.0;stroke-dasharray:-;stroke-linecap:round;stroke-linejoin:round;" /><path d="M 146.94228634059948,66.0 L 146.942,84 L 155.942,87 L 137.942,93 L 155.942,99 L 137.942,105 L 155.942,111 L 137.942,117 L 146.942,120 L 146.942,138" style="stroke:black;fill:none;stroke-width:2.0;stroke-dasharray:-;stroke-linecap:round;stroke-linejoin:round;" /><path d="M 146.94228634059948,138.0 L 146.942,152.4 L 137.942,152.4 L 155.942,152.4 M 140.642,156.72 L 153.242,156.72 M 145.142,161.04 L 148.742,161.04" style="stroke:black;fill:none;stroke-width:2.0;stroke-dasharray:-;stroke-linecap:round;stroke-linejoin:round;" /><path d="M 146.94228634059948,66.0 L 56.942,66 L -33.058,66" style="stroke:black;fill:none;stroke-width:2.0;stroke-dasharray:-;stroke-linecap:round;stroke-linejoin:round;" /><path d="M -33.05771365940052,65.99999999999997 L -33.058,44.25 L -33.058,22.5" style="stroke:black;fill:none;stroke-width:2.0;stroke-dasharray:-;stroke-linecap:round;stroke-linejoin:round;" /><path d="M -33.05771365940051,22.5 L -16.529,22.5 L 0,22.5" style="stroke:black;fill:none;stroke-width:2.0;stroke-dasharray:-;stroke-linecap:round;stroke-linejoin:round;" /><path d="M 146.94228634059948,-29.999999999999996 L 146.942,-48 L 146.942,-66" style="stroke:black;fill:none;stroke-width:2.0;stroke-dasharray:-;stroke-linecap:round;stroke-linejoin:round;" /><g><g><g><path d="M 40.698 -51.54 L 40.698 -51.54 L 36.96 -51.54 L 37.044 -51.96 Q 37.562 -51.96 37.863 -52.1 Q 38.164 -52.24 38.164 -52.758 Q 38.164 -52.926 38.157 -53.073 Q 38.15 -53.22 38.136 -53.346 L 37.996 -54.606 L 34.384 -54.606 L 33.404 -53.122 Q 33.264 -52.926 33.159 -52.73 Q 33.054 -52.534 33.054 -52.338 Q 33.054 -52.114 33.229 -52.037 Q 33.404 -51.96 33.866 -51.96 L 33.768 -51.54 L 30.842 -51.54 L 30.94 -51.96 Q 31.332 -51.96 31.598 -52.086 Q 31.864 -52.212 32.186 -52.597 Q 32.508 -52.982 33.026 -53.78 L 37.87 -60.794 L 38.458 -60.794 L 39.564 -53.206 Q 39.704 -52.52 39.928 -52.24 Q 40.152 -51.96 40.782 -51.96 Z M 37.94 -55.166 L 37.94 -55.166 L 37.478 -59.212 L 37.436 -59.212 L 34.72 -55.166 Z " fill="black" /><path d="M 45.478 -48.6 L 45.478 -48.6 L 42.155 -48.6 L 42.155 -48.953 Q 42.861 -48.953 43.091 -49.095 Q 43.322 -49.237 43.322 -49.609 L 43.322 -53.882 Q 43.322 -54.147 43.243 -54.264 Q 43.165 -54.382 42.959 -54.382 Q 42.802 -54.382 42.533 -54.338 Q 42.263 -54.294 42.067 -54.245 L 42.067 -54.637 L 43.88 -55.137 L 44.302 -55.137 L 44.302 -49.609 Q 44.302 -49.237 44.552 -49.095 Q 44.801 -48.953 45.478 -48.953 Z " fill="black" /></g></g></g><circle cx="-72" cy="-22.5" r="2.7" style="stroke:black;fill:white;stroke-width:2.0;stroke-dasharray:-;" /><g><g><g><path d="M -94.81 -21.17 L -94.81 -21.17 L -90.988 -26.91 Q -90.792 -27.19 -90.673 -27.428 Q -90.554 -27.666 -90.554 -27.834 Q -90.554 -28.044 -90.736 -28.121 Q -90.918 -28.198 -91.394 -28.198 L -91.366 -28.618 L -88.342 -28.618 L -88.37 -28.198 Q -88.748 -28.198 -89.014 -28.086 Q -89.28 -27.974 -89.553 -27.659 Q -89.826 -27.344 -90.26 -26.7 L -95.398 -19.35 L -95.86 -19.35 L -96.644 -26.924 Q -96.728 -27.624 -96.952 -27.911 Q -97.176 -28.198 -97.736 -28.198 L -97.708 -28.618 L -94.278 -28.618 L -94.32 -28.198 Q -94.852 -28.198 -95.16 -27.988 Q -95.468 -27.778 -95.44 -27.302 Q -95.44 -27.232 -95.419 -27.05 Q -95.398 -26.868 -95.398 -26.798 L -94.978 -22.808 L -94.88 -21.17 Z " fill="black" /><path d="M -89.284 -21.596 L -89.284 -21.596 L -89.284 -20.537 L -89.226 -20.537 Q -88.834 -21.086 -88.525 -21.375 Q -88.216 -21.664 -87.854 -21.664 Q -87.226 -21.664 -87.226 -21.047 Q -87.226 -20.704 -87.378 -20.567 Q -87.53 -20.429 -87.707 -20.429 Q -87.883 -20.429 -88.025 -20.527 Q -88.167 -20.625 -88.265 -20.723 Q -88.363 -20.821 -88.412 -20.821 Q -88.569 -20.821 -88.819 -20.557 Q -89.069 -20.292 -89.265 -19.959 L -89.265 -17.607 Q -89.265 -17.127 -89.054 -16.985 Q -88.843 -16.843 -88.304 -16.843 L -88.304 -16.48 L -90.97 -16.48 L -90.97 -16.843 Q -90.637 -16.843 -90.48 -16.901 Q -90.323 -16.96 -90.274 -17.112 Q -90.225 -17.264 -90.225 -17.538 L -90.225 -20.38 Q -90.225 -20.694 -90.279 -20.851 Q -90.333 -21.008 -90.637 -21.008 Q -90.774 -21.008 -90.872 -20.998 Q -90.97 -20.988 -90.97 -20.988 L -90.97 -21.351 L -89.647 -21.596 Z " fill="black" /><path d="M -82.317 -17.94 L -82.317 -17.94 L -82.081 -17.754 Q -82.287 -17.382 -82.542 -17.068 Q -82.797 -16.754 -83.169 -16.568 Q -83.542 -16.382 -84.11 -16.382 Q -84.727 -16.382 -85.261 -16.661 Q -85.796 -16.941 -86.119 -17.519 Q -86.442 -18.097 -86.442 -18.979 Q -86.442 -19.851 -86.139 -20.439 Q -85.835 -21.027 -85.315 -21.326 Q -84.796 -21.625 -84.159 -21.625 Q -83.277 -21.625 -82.694 -21.013 Q -82.111 -20.4 -82.091 -19.185 L -85.541 -19.185 Q -85.541 -18.518 -85.291 -18.082 Q -85.041 -17.646 -84.649 -17.436 Q -84.257 -17.225 -83.826 -17.225 Q -83.385 -17.225 -83.12 -17.318 Q -82.856 -17.411 -82.674 -17.578 Q -82.493 -17.744 -82.317 -17.94 Z M -85.541 -19.636 L -85.541 -19.636 L -83.14 -19.636 Q -83.14 -20.028 -83.267 -20.376 Q -83.395 -20.723 -83.64 -20.944 Q -83.885 -21.164 -84.267 -21.164 Q -84.825 -21.164 -85.154 -20.772 Q -85.482 -20.38 -85.541 -19.636 Z " fill="black" /><path d="M -81.121 -21.498 L -81.121 -21.498 L -80.337 -21.498 Q -80.337 -22.017 -80.263 -22.38 Q -80.19 -22.742 -80.004 -23.105 Q -79.778 -23.458 -79.46 -23.678 Q -79.141 -23.899 -78.553 -23.899 Q -78.054 -23.899 -77.701 -23.708 Q -77.348 -23.516 -77.348 -23.144 Q -77.348 -22.909 -77.48 -22.786 Q -77.613 -22.664 -77.789 -22.664 Q -78.005 -22.664 -78.127 -22.786 Q -78.25 -22.909 -78.446 -23.115 Q -78.583 -23.311 -78.691 -23.384 Q -78.798 -23.458 -78.945 -23.458 Q -79.22 -23.458 -79.308 -23.193 Q -79.396 -22.928 -79.396 -22.282 L -79.396 -21.498 L -78.122 -21.498 L -78.122 -21.017 L -79.396 -21.017 L -79.396 -17.783 Q -79.396 -17.382 -79.308 -17.181 Q -79.22 -16.98 -78.985 -16.911 Q -78.749 -16.843 -78.318 -16.843 L -78.318 -16.48 L -81.209 -16.48 L -81.209 -16.843 Q -80.837 -16.843 -80.651 -16.911 Q -80.464 -16.98 -80.401 -17.181 Q -80.337 -17.382 -80.337 -17.783 L -80.337 -21.017 L -81.121 -21.017 Z " fill="black" /></g></g></g><g><g><g><path d="M 160.84 3.129 L 160.84 3.129 L 157.102 3.129 L 157.186 2.709 Q 157.704 2.709 157.977 2.611 Q 158.25 2.513 158.39 2.24 Q 158.53 1.967 158.628 1.463 L 159.874 -4.585 L 159.818 -4.585 L 155.114 3.129 L 154.806 3.129 L 153.112 -4.571 L 153.056 -4.571 L 151.894 1.085 Q 151.754 1.799 151.775 2.149 Q 151.796 2.499 152.048 2.604 Q 152.3 2.709 152.832 2.709 L 152.748 3.129 L 149.514 3.129 L 149.598 2.709 Q 150.144 2.709 150.438 2.604 Q 150.732 2.499 150.9 2.149 Q 151.068 1.799 151.208 1.085 L 152.314 -4.361 Q 152.426 -4.893 152.384 -5.166 Q 152.342 -5.439 152.083 -5.544 Q 151.824 -5.649 151.264 -5.649 L 151.348 -6.069 L 154.148 -6.069 L 155.66 1.015 L 155.716 1.015 L 159.986 -6.069 L 162.632 -6.069 L 162.548 -5.649 Q 162.058 -5.649 161.771 -5.544 Q 161.484 -5.439 161.33 -5.166 Q 161.176 -4.893 161.064 -4.375 L 159.874 1.463 Q 159.72 2.233 159.951 2.471 Q 160.182 2.709 160.924 2.709 Z " fill="black" /><path d="M 166.866 6.069 L 166.866 6.069 L 163.543 6.069 L 163.543 5.716 Q 164.249 5.716 164.479 5.574 Q 164.71 5.432 164.71 5.06 L 164.71 0.787 Q 164.71 0.522 164.631 0.405 Q 164.553 0.287 164.347 0.287 Q 164.19 0.287 163.921 0.331 Q 163.651 0.375 163.455 0.424 L 163.455 0.032 L 165.268 -0.468 L 165.69 -0.468 L 165.69 5.06 Q 165.69 5.432 165.94 5.574 Q 166.189 5.716 166.866 5.716 Z " fill="black" /></g></g></g><g><g><g><path d="M 128.304 97.863 L 128.304 97.863 Q 128.304 98.605 128.024 99.109 Q 127.744 99.613 127.296 99.935 Q 126.848 100.257 126.337 100.432 Q 125.826 100.607 125.364 100.691 L 125.364 100.761 Q 125.616 100.929 125.84 101.272 Q 126.064 101.615 126.393 102.259 Q 126.722 102.903 127.296 103.995 Q 127.534 104.415 127.821 104.562 Q 128.108 104.709 128.584 104.709 L 128.5 105.129 L 126.372 105.129 Q 125.98 104.261 125.714 103.68 Q 125.448 103.099 125.252 102.707 Q 125.056 102.315 124.909 102.007 Q 124.762 101.699 124.594 101.377 Q 124.44 101.083 124.258 100.992 Q 124.076 100.901 123.698 100.901 L 123.404 100.901 L 122.886 103.393 Q 122.774 103.967 122.809 104.254 Q 122.844 104.541 123.124 104.625 Q 123.404 104.709 124.006 104.709 L 123.936 105.129 L 120.072 105.129 L 120.156 104.709 Q 120.674 104.709 120.954 104.625 Q 121.234 104.541 121.381 104.261 Q 121.528 103.981 121.64 103.393 L 122.872 97.387 Q 122.956 96.995 122.914 96.771 Q 122.872 96.547 122.627 96.449 Q 122.382 96.351 121.822 96.351 L 121.906 95.931 L 125.196 95.931 Q 126.666 95.931 127.485 96.386 Q 128.304 96.841 128.304 97.863 Z M 124.286 96.519 L 124.286 96.519 L 123.502 100.383 L 123.936 100.397 Q 124.776 100.369 125.455 100.124 Q 126.134 99.879 126.526 99.347 Q 126.918 98.815 126.918 97.919 Q 126.918 97.541 126.757 97.212 Q 126.596 96.883 126.204 96.68 Q 125.812 96.477 125.112 96.477 Q 124.846 96.477 124.685 96.484 Q 124.524 96.491 124.286 96.519 Z " fill="black" /><path d="M 133.462 108.069 L 133.462 108.069 L 130.139 108.069 L 130.139 107.716 Q 130.845 107.716 131.075 107.574 Q 131.306 107.432 131.306 107.06 L 131.306 102.787 Q 131.306 102.522 131.227 102.405 Q 131.149 102.287 130.943 102.287 Q 130.786 102.287 130.517 102.331 Q 130.247 102.375 130.051 102.424 L 130.051 102.032 L 131.864 101.532 L 132.286 101.532 L 132.286 107.06 Q 132.286 107.432 132.536 107.574 Q 132.785 107.716 133.462 107.716 Z " fill="black" /></g></g></g><circle cx="146.942" cy="66" r="2.7" style="stroke:black;fill:black;stroke-width:2.0;stroke-dasharray:-;" /><circle cx="146.942" cy="-66" r="2.7" style="stroke:black;fill:white;stroke-width:2.0;stroke-dasharray:-;" /><g><g><g><path d="M 135.76 -77.201 L 135.76 -77.201 L 136.908 -82.717 Q 137.034 -83.263 137.027 -83.578 Q 137.02 -83.893 136.768 -84.019 Q 136.516 -84.145 135.872 -84.145 L 135.956 -84.565 L 139.834 -84.565 L 139.75 -84.145 Q 139.134 -84.145 138.826 -84.019 Q 138.518 -83.893 138.392 -83.578 Q 138.266 -83.263 138.154 -82.717 L 137.006 -77.145 Q 136.964 -76.921 136.936 -76.739 Q 136.908 -76.557 136.908 -76.403 Q 136.908 -76.011 137.139 -75.899 Q 137.37 -75.787 138.028 -75.787 L 137.944 -75.367 L 134.122 -75.367 L 134.206 -75.787 Q 134.78 -75.787 135.067 -75.885 Q 135.354 -75.983 135.494 -76.284 Q 135.634 -76.585 135.76 -77.201 Z " fill="black" /><path d="M 141.882 -79.748 L 141.882 -79.748 L 141.882 -76.71 L 141.931 -76.71 Q 142.215 -77.043 142.602 -77.308 Q 142.989 -77.572 143.538 -77.572 Q 144.048 -77.572 144.464 -77.264 Q 144.881 -76.955 145.131 -76.411 Q 145.381 -75.867 145.381 -75.162 Q 145.381 -74.221 145.038 -73.584 Q 144.695 -72.947 144.102 -72.628 Q 143.509 -72.31 142.754 -72.31 Q 142.313 -72.31 141.941 -72.383 Q 141.568 -72.457 141.309 -72.555 Q 141.049 -72.653 140.931 -72.702 L 140.931 -78.582 Q 140.931 -78.944 140.853 -79.047 Q 140.775 -79.15 140.441 -79.15 Q 140.334 -79.15 140.24 -79.135 Q 140.147 -79.121 140.147 -79.121 L 140.147 -79.493 L 141.48 -79.748 Z M 141.882 -76.2 L 141.882 -76.2 L 141.882 -73.26 Q 142 -73.045 142.254 -72.917 Q 142.509 -72.79 142.931 -72.79 Q 143.45 -72.79 143.764 -73.069 Q 144.077 -73.349 144.219 -73.814 Q 144.361 -74.28 144.361 -74.828 Q 144.361 -75.328 144.249 -75.784 Q 144.136 -76.24 143.852 -76.524 Q 143.568 -76.808 143.068 -76.808 Q 142.803 -76.808 142.563 -76.705 Q 142.323 -76.602 142.147 -76.46 Q 141.97 -76.318 141.882 -76.2 Z " fill="black" /><path d="M 148.958 -72.79 L 148.958 -72.79 L 148.958 -72.427 L 146.468 -72.427 L 146.468 -72.79 Q 146.811 -72.79 146.963 -72.863 Q 147.115 -72.937 147.154 -73.099 Q 147.194 -73.26 147.194 -73.525 L 147.194 -76.485 Q 147.194 -76.818 147.086 -76.886 Q 146.978 -76.955 146.723 -76.955 Q 146.596 -76.955 146.517 -76.945 Q 146.439 -76.935 146.439 -76.935 L 146.439 -77.327 L 147.752 -77.543 L 148.154 -77.543 L 148.154 -73.525 Q 148.154 -73.241 148.198 -73.079 Q 148.242 -72.917 148.414 -72.854 Q 148.585 -72.79 148.958 -72.79 Z M 147.664 -79.709 L 147.664 -79.709 Q 147.948 -79.709 148.139 -79.513 Q 148.33 -79.317 148.33 -79.062 Q 148.33 -78.827 148.139 -78.631 Q 147.948 -78.435 147.664 -78.435 Q 147.39 -78.435 147.208 -78.631 Q 147.027 -78.827 147.027 -79.062 Q 147.027 -79.317 147.208 -79.513 Q 147.39 -79.709 147.664 -79.709 Z " fill="black" /><path d="M 152.878 -73.045 L 152.878 -73.045 L 152.809 -73.045 Q 152.476 -72.77 152.074 -72.565 Q 151.672 -72.359 151.202 -72.359 Q 150.584 -72.359 150.256 -72.731 Q 149.928 -73.104 149.928 -73.633 Q 149.928 -74.084 150.138 -74.387 Q 150.349 -74.691 150.687 -74.882 Q 151.025 -75.073 151.417 -75.191 Q 151.809 -75.309 152.172 -75.377 Q 152.535 -75.446 152.78 -75.505 L 152.78 -76.014 Q 152.78 -76.671 152.52 -76.921 Q 152.26 -77.171 151.76 -77.171 Q 151.457 -77.171 151.324 -77.092 Q 151.192 -77.014 151.158 -76.837 Q 151.123 -76.661 151.114 -76.377 Q 151.104 -76.161 150.986 -76.029 Q 150.869 -75.897 150.643 -75.897 Q 150.428 -75.897 150.276 -76.029 Q 150.124 -76.161 150.124 -76.416 Q 150.124 -76.72 150.359 -76.984 Q 150.594 -77.249 151.03 -77.411 Q 151.466 -77.572 152.054 -77.572 Q 152.936 -77.572 153.333 -77.166 Q 153.73 -76.759 153.73 -75.946 L 153.73 -73.545 Q 153.73 -73.221 153.804 -73.128 Q 153.877 -73.035 154.034 -73.035 Q 154.201 -73.035 154.323 -73.104 Q 154.446 -73.172 154.553 -73.3 L 154.769 -73.094 Q 154.259 -72.369 153.573 -72.369 Q 153.191 -72.369 153.049 -72.55 Q 152.907 -72.731 152.878 -73.045 Z M 152.78 -73.407 L 152.78 -73.407 L 152.78 -75.132 Q 152.329 -75.015 151.898 -74.872 Q 151.466 -74.73 151.187 -74.485 Q 150.908 -74.24 150.908 -73.799 Q 150.908 -73.417 151.128 -73.197 Q 151.349 -72.976 151.692 -72.976 Q 151.898 -72.976 152.187 -73.069 Q 152.476 -73.162 152.78 -73.407 Z " fill="black" /><path d="M 155.445 -74.211 L 155.445 -74.211 L 155.759 -74.211 Q 155.886 -73.643 156.063 -73.329 Q 156.239 -73.015 156.518 -72.893 Q 156.798 -72.77 157.199 -72.77 Q 157.66 -72.77 157.91 -72.922 Q 158.16 -73.074 158.16 -73.456 Q 158.16 -73.711 158.037 -73.883 Q 157.915 -74.054 157.645 -74.211 Q 157.376 -74.368 156.925 -74.574 Q 156.464 -74.799 156.136 -74.995 Q 155.808 -75.191 155.636 -75.456 Q 155.465 -75.72 155.465 -76.122 Q 155.465 -76.828 155.94 -77.2 Q 156.415 -77.572 157.131 -77.572 Q 157.562 -77.572 157.861 -77.465 Q 158.16 -77.357 158.336 -77.278 L 158.356 -77.278 L 158.513 -77.523 L 158.787 -77.523 L 158.807 -75.897 L 158.464 -75.897 Q 158.277 -76.651 157.944 -76.911 Q 157.611 -77.171 157.18 -77.171 Q 156.729 -77.171 156.499 -76.975 Q 156.268 -76.779 156.268 -76.465 Q 156.268 -76.21 156.425 -76.044 Q 156.582 -75.877 156.871 -75.735 Q 157.16 -75.593 157.562 -75.397 Q 158.013 -75.181 158.356 -74.951 Q 158.699 -74.721 158.895 -74.431 Q 159.091 -74.142 159.091 -73.711 Q 159.091 -73.192 158.816 -72.878 Q 158.542 -72.565 158.111 -72.432 Q 157.68 -72.3 157.209 -72.3 Q 156.729 -72.3 156.464 -72.398 Q 156.2 -72.496 155.974 -72.584 L 155.935 -72.584 L 155.69 -72.329 L 155.465 -72.329 Z " fill="black" /></g></g></g></svg>