<svg xmlns="http://www.w3.org/2000/svg" xmlns:xlink="http://www.w3.org/1999/xlink" xml:lang="en" height="266.24pt" width="387.20000000000005pt" viewBox="-157.60000000000002 -94.60000000000002 387.20000000000005 266.24"><circle cx="108.0" cy="36.0" r="18.0" style="stroke:black;fill:none;stroke-width:2.0;stroke-dasharray:-;" /><path d="M 0.0,-0.0 L -36.0,-4.408728476930472e-15 L -72.0,-8.817456953860943e-15" style="stroke:black;fill:none;stroke-width:2.0;stroke-dasharray:-;stroke-linecap:round;stroke-linejoin:round;" /><path d="M -72.0,-8.817456953860943e-15 L -108.0,-1.3226185430791413e-14 L -144.0,-1.7634913907721887e-14" style="stroke:black;fill:none;stroke-width:2.0;stroke-dasharray:-;stroke-linecap:round;stroke-linejoin:round;" /><path d="M -144.0,-1.7634913907721887e-14 L -144.0,14.399999999999983 L -153.0,14.399999999999983 L -135.0,14.399999999999983 M -150.29999999999998,18.719999999999985 L -137.70000000000002,18.719999999999985 M -145.79999999999998,23.039999999999985 L -142.20000000000002,23.039999999999985" style="stroke:black;fill:none;stroke-width:2.0;stroke-dasharray:-;stroke-linecap:round;stroke-linejoin:round;" /><path d="M 0.0,-0.0 L -6.017914371010093e-15,32.76 M 8.999999999999995,32.76 L -9.000000000000005,32.76 M 8.999999999999993,39.24 L -9.000000000000007,39.24 M -7.208271059781322e-15,39.24 L -1.3226185430791413e-14,72.0" style="stroke:black;fill:none;stroke-width:2.0;stroke-dasharray:-;stroke-linecap:round;stroke-linejoin:round;" /><path d="M -1.3226185430791413e-14,72.0 L -36.000000000000014,71.99999999999999 L -72.00000000000001,71.99999999999999" style="stroke:black;fill:none;stroke-width:2.0;stroke-dasharray:-;stroke-linecap:round;stroke-linejoin:round;" /><path d="M -1.3226185430791413e-14,72.0 L 53.999999999999986,72.0 L 107.99999999999999,72.0" style="stroke:black;fill:none;stroke-width:2.0;stroke-dasharray:-;stroke-linecap:round;stroke-linejoin:round;" /><path d="M 107.99999999999999,72.0 L 107.99999999999999,90.0 L 116.99999999999999,93.0 L 98.99999999999999,99.0 L 116.99999999999999,105.0 L 98.99999999999997,110.99999999999999 L 116.99999999999997,117.0 L 98.99999999999997,123.0 L 107.99999999999997,126.0 L 107.99999999999997,144.0" style="stroke:black;fill:none;stroke-width:2.0;stroke-dasharray:-;stroke-linecap:round;stroke-linejoin:round;" /><path d="M 107.99999999999997,144.0 L 107.99999999999997,158.4 L 98.99999999999997,158.4 L 116.99999999999997,158.4 M 101.69999999999997,162.71999999999997 L 114.29999999999995,162.71999999999997 M 106.19999999999997,167.04 L 109.79999999999995,167.04" style="stroke:black;fill:none;stroke-width:2.0;stroke-dasharray:-;stroke-linecap:round;stroke-linejoin:round;" /><path d="M 0.0,-0.0 L 50.76,-0.0 M 50.76,-9.0 L 50.76,9.0 M 57.239999999999995,-9.0 L 57.239999999999995,9.0 M 57.239999999999995,-0.0 L 108.0,-0.0" style="stroke:black;fill:none;stroke-width:2.0;stroke-dasharray:-;stroke-linecap:round;stroke-linejoin:round;" /><path d="M 108.0,-0.0 L 108.0,18.0 L 108.0,18.0 M 107.99999999999999,54.0 L 107.99999999999999,54.0 L 107.99999999999999,72.0" style="stroke:black;fill:none;stroke-width:2.0;stroke-dasharray:-;stroke-linecap:round;stroke-linejoin:round;" /><path d="M 108.0,27.0 L 107.99999999999999,36.0" style="stroke:black;fill:none;stroke-width:2.0;stroke-dasharray:-;stroke-linecap:round;stroke-linejoin:round;" /><path d="M 107.99999999999999 43.0 L 105.3 36.0 L 110.69999999999999 36.0 Z" style="stroke:black;fill:black;stroke-linecap:butt;stroke-linejoin:miter;" /><path d="M 107.99999999999999,72.0 L 162.0,72.0 L 216.0,72.0" style="stroke:black;fill:none;stroke-width:2.0;stroke-dasharray:-;stroke-linecap:round;stroke-linejoin:round;" /><path d="M 216.0,72.0 L 216.0,54.0 L 207.0,50.99999999999999 L 225.0,45.0 L 207.0,39.00000000000001 L 225.0,33.0 L 207.0,27.0 L 225.0,21.000000000000007 L 216.0,18.0 L 216.0,-0.0" style="stroke:black;fill:none;stroke-width:2.0;stroke-dasharray:-;stroke-linecap:round;stroke-linejoin:round;" /><path d="M 216.0,-0.0 L 162.0,-6.613092715395707e-15 L 108.0,-1.3226185430791413e-14" style="stroke:black;fill:none;stroke-width:2.0;stroke-dasharray:-;stroke-linecap:round;stroke-linejoin:round;" /><path d="M 108.0,-1.3226185430791413e-14 L 108.0,-18.00000000000001 L 99.0,-21.000000000000014 L 117.0,-27.00000000000001 L 99.0,-33.000000000000014 L 117.0,-39.000000000000014 L 99.0,-45.000000000000014 L 117.0,-51.000000000000014 L 108.0,-54.000000000000014 L 108.0,-72.00000000000001" style="stroke:black;fill:none;stroke-width:2.0;stroke-dasharray:-;stroke-linecap:round;stroke-linejoin:round;" /><path d="M 108.0,-72.00000000000001 L 108.0,-81.00000000000001 L 108.0,-90.00000000000001" style="stroke:black;fill:none;stroke-width:2.0;stroke-dasharray:-;stroke-linecap:round;stroke-linejoin:round;" /><path d="M 108.0,-90.00000000000001 L 126.0,-90.00000000000001 L 144.0,-90.00000000000001" style="stroke:black;fill:none;stroke-width:2.0;stroke-dasharray:-;stroke-linecap:round;stroke-linejoin:round;" /><path d="M 144.0,-90.00000000000001 L 144.0,-75.60000000000002 L 135.0,-75.60000000000002 L 153.0,-75.60000000000002 M 137.70000000000002,-71.28000000000002 L 150.29999999999998,-71.28000000000002 M 142.20000000000002,-66.96000000000001 L 145.79999999999998,-66.96000000000001" style="stroke:black;fill:none;stroke-width:2.0;stroke-dasharray:-;stroke-linecap:round;stroke-linejoin:round;" /><circle cx="0.0" cy="-0.0" r="2.6999999999999997" style="stroke:black;fill:black;stroke-width:2.0;stroke-dasharray:-;" /><g><g><g><path d="M -66.736 18.544 L -66.736 18.544 L -70.928 18.544 L -70.928 22.784 L -72.08 22.784 L -72.08 18.544 L -76.272 18.544 L -76.272 17.456 L -72.08 17.456 L -72.08 13.216 L -70.928 13.216 L -70.928 17.456 L -66.736 17.456 Z " fill="black" /></g></g></g><g><g><g><path d="M -76.995 36.154 L -76.995 36.154 L -72.627 29.594 Q -72.403 29.274 -72.267 29.002 Q -72.131 28.73 -72.131 28.538 Q -72.131 28.298 -72.339 28.21 Q -72.547 28.122 -73.091 28.122 L -73.059 27.642 L -69.603 27.642 L -69.635 28.122 Q -70.067 28.122 -70.371 28.25 Q -70.675 28.378 -70.987 28.738 Q -71.299 29.098 -71.795 29.834 L -77.667 38.234 L -78.195 38.234 L -79.091 29.578 Q -79.187 28.778 -79.443 28.45 Q -79.699 28.122 -80.339 28.122 L -80.307 27.642 L -76.387 27.642 L -76.435 28.122 Q -77.043 28.122 -77.395 28.362 Q -77.747 28.602 -77.715 29.146 Q -77.715 29.226 -77.691 29.434 Q -77.667 29.642 -77.667 29.722 L -77.187 34.282 L -77.075 36.154 Z " fill="black" /><path d="M -71.52 39.262 L -71.52 39.262 L -71.52 39.218 Q -71.912 38.982 -72.186 38.607 Q -72.461 38.232 -72.461 37.638 Q -72.461 37.011 -72.158 36.563 Q -71.856 36.115 -71.341 35.874 Q -70.826 35.634 -70.187 35.634 Q -69.594 35.634 -69.218 35.762 Q -68.843 35.891 -68.843 35.891 L -67.197 35.846 L -67.197 36.507 L -68.373 36.485 L -68.373 36.563 Q -68.227 36.765 -68.07 37.039 Q -67.914 37.314 -67.914 37.806 Q -67.914 38.366 -68.21 38.775 Q -68.507 39.184 -69.006 39.402 Q -69.504 39.621 -70.131 39.621 Q -70.702 39.621 -71.206 39.419 Q -71.285 39.565 -71.391 39.834 Q -71.498 40.102 -71.498 40.293 Q -71.498 40.528 -71.223 40.64 Q -70.949 40.752 -70.131 40.752 Q -69.526 40.752 -69.011 40.78 Q -68.496 40.808 -68.115 40.937 Q -67.734 41.066 -67.527 41.351 Q -67.32 41.637 -67.32 42.163 Q -67.32 42.768 -67.628 43.188 Q -67.936 43.608 -68.44 43.866 Q -68.944 44.123 -69.532 44.241 Q -70.12 44.358 -70.691 44.358 Q -71.509 44.358 -71.957 44.157 Q -72.405 43.955 -72.578 43.642 Q -72.752 43.328 -72.752 43.003 Q -72.752 42.69 -72.534 42.382 Q -72.315 42.074 -71.834 41.626 L -71.834 41.57 Q -72.114 41.424 -72.304 41.178 Q -72.494 40.931 -72.494 40.696 Q -72.494 40.36 -72.198 39.985 Q -71.901 39.61 -71.52 39.262 Z M -71.464 41.682 L -71.464 41.682 Q -71.654 42.006 -71.722 42.197 Q -71.789 42.387 -71.789 42.578 Q -71.789 43.093 -71.369 43.356 Q -70.949 43.619 -70.064 43.619 Q -69.336 43.619 -68.888 43.44 Q -68.44 43.261 -68.227 43.009 Q -68.014 42.757 -68.014 42.522 Q -68.014 42.219 -68.21 42.051 Q -68.406 41.883 -68.709 41.81 Q -69.011 41.738 -69.347 41.715 Q -69.683 41.693 -69.974 41.693 Q -70.053 41.693 -70.098 41.693 Q -70.814 41.693 -71.078 41.687 Q -71.341 41.682 -71.464 41.682 Z M -70.254 36.126 L -70.254 36.126 Q -70.736 36.126 -71.033 36.451 Q -71.33 36.776 -71.33 37.571 Q -71.33 38.355 -71.016 38.758 Q -70.702 39.162 -70.131 39.162 Q -69.829 39.162 -69.582 39.038 Q -69.336 38.915 -69.185 38.59 Q -69.034 38.266 -69.034 37.672 Q -69.034 36.91 -69.364 36.518 Q -69.694 36.126 -70.254 36.126 Z " fill="black" /><path d="M -66.211 39.475 L -66.211 39.475 L -65.853 39.475 Q -65.707 40.125 -65.506 40.483 Q -65.304 40.842 -64.985 40.982 Q -64.666 41.122 -64.206 41.122 Q -63.68 41.122 -63.394 40.948 Q -63.109 40.774 -63.109 40.338 Q -63.109 40.046 -63.249 39.85 Q -63.389 39.654 -63.697 39.475 Q -64.005 39.296 -64.52 39.061 Q -65.046 38.803 -65.422 38.579 Q -65.797 38.355 -65.993 38.053 Q -66.189 37.75 -66.189 37.291 Q -66.189 36.485 -65.646 36.059 Q -65.102 35.634 -64.285 35.634 Q -63.792 35.634 -63.45 35.757 Q -63.109 35.88 -62.907 35.97 L -62.885 35.97 L -62.706 35.69 L -62.392 35.69 L -62.37 37.549 L -62.762 37.549 Q -62.974 36.686 -63.355 36.39 Q -63.736 36.093 -64.229 36.093 Q -64.744 36.093 -65.007 36.317 Q -65.27 36.541 -65.27 36.899 Q -65.27 37.19 -65.091 37.381 Q -64.912 37.571 -64.582 37.734 Q -64.251 37.896 -63.792 38.12 Q -63.277 38.366 -62.885 38.63 Q -62.493 38.893 -62.269 39.223 Q -62.045 39.554 -62.045 40.046 Q -62.045 40.64 -62.358 40.998 Q -62.672 41.357 -63.165 41.508 Q -63.658 41.659 -64.195 41.659 Q -64.744 41.659 -65.046 41.547 Q -65.349 41.435 -65.606 41.334 L -65.651 41.334 L -65.931 41.626 L -66.189 41.626 Z " fill="black" /></g></g></g><g><g><g><rect x="-74.16" y="49.328" width="4.32" height="1.088" fill="black" /></g></g></g><g><g><g><path d="M -24.51 35.938 L -24.51 35.938 L -24.222 36.242 Q -25.038 37.202 -26.11 37.818 Q -27.182 38.434 -28.702 38.434 Q -30.142 38.434 -31.006 37.898 Q -31.87 37.362 -32.246 36.466 Q -32.622 35.57 -32.622 34.514 Q -32.622 32.834 -32.11 31.53 Q -31.598 30.226 -30.71 29.338 Q -29.822 28.45 -28.702 27.994 Q -27.582 27.538 -26.366 27.538 Q -25.55 27.538 -25.094 27.682 Q -24.638 27.826 -24.382 27.978 Q -24.126 28.13 -23.934 28.13 Q -23.742 28.13 -23.598 27.97 Q -23.454 27.81 -23.262 27.554 L -22.798 27.554 L -23.55 31.218 L -24.078 31.218 Q -24.014 29.618 -24.67 28.922 Q -25.326 28.226 -26.51 28.226 Q -27.438 28.226 -28.254 28.65 Q -29.07 29.074 -29.702 29.85 Q -30.334 30.626 -30.694 31.706 Q -31.054 32.786 -31.054 34.114 Q -31.054 35.714 -30.294 36.554 Q -29.534 37.394 -27.95 37.394 Q -26.11 37.394 -24.51 35.938 Z " fill="black" /><path d="M -21.675 39.366 L -21.675 39.366 L -21.675 39.322 Q -22.067 39.086 -22.342 38.711 Q -22.616 38.336 -22.616 37.742 Q -22.616 37.115 -22.314 36.667 Q -22.011 36.219 -21.496 35.978 Q -20.981 35.738 -20.342 35.738 Q -19.749 35.738 -19.374 35.866 Q -18.998 35.995 -18.998 35.995 L -17.352 35.95 L -17.352 36.611 L -18.528 36.589 L -18.528 36.667 Q -18.382 36.869 -18.226 37.143 Q -18.069 37.418 -18.069 37.91 Q -18.069 38.47 -18.366 38.879 Q -18.662 39.288 -19.161 39.506 Q -19.659 39.725 -20.286 39.725 Q -20.858 39.725 -21.362 39.523 Q -21.44 39.669 -21.546 39.938 Q -21.653 40.206 -21.653 40.397 Q -21.653 40.632 -21.378 40.744 Q -21.104 40.856 -20.286 40.856 Q -19.682 40.856 -19.166 40.884 Q -18.651 40.912 -18.27 41.041 Q -17.89 41.17 -17.682 41.455 Q -17.475 41.741 -17.475 42.267 Q -17.475 42.872 -17.783 43.292 Q -18.091 43.712 -18.595 43.97 Q -19.099 44.227 -19.687 44.345 Q -20.275 44.462 -20.846 44.462 Q -21.664 44.462 -22.112 44.261 Q -22.56 44.059 -22.734 43.746 Q -22.907 43.432 -22.907 43.107 Q -22.907 42.794 -22.689 42.486 Q -22.47 42.178 -21.989 41.73 L -21.989 41.674 Q -22.269 41.528 -22.459 41.282 Q -22.65 41.035 -22.65 40.8 Q -22.65 40.464 -22.353 40.089 Q -22.056 39.714 -21.675 39.366 Z M -21.619 41.786 L -21.619 41.786 Q -21.81 42.11 -21.877 42.301 Q -21.944 42.491 -21.944 42.682 Q -21.944 43.197 -21.524 43.46 Q -21.104 43.723 -20.219 43.723 Q -19.491 43.723 -19.043 43.544 Q -18.595 43.365 -18.382 43.113 Q -18.17 42.861 -18.17 42.626 Q -18.17 42.323 -18.366 42.155 Q -18.562 41.987 -18.864 41.914 Q -19.166 41.842 -19.502 41.819 Q -19.838 41.797 -20.13 41.797 Q -20.208 41.797 -20.253 41.797 Q -20.97 41.797 -21.233 41.791 Q -21.496 41.786 -21.619 41.786 Z M -20.41 36.23 L -20.41 36.23 Q -20.891 36.23 -21.188 36.555 Q -21.485 36.88 -21.485 37.675 Q -21.485 38.459 -21.171 38.862 Q -20.858 39.266 -20.286 39.266 Q -19.984 39.266 -19.738 39.142 Q -19.491 39.019 -19.34 38.694 Q -19.189 38.37 -19.189 37.776 Q -19.189 37.014 -19.519 36.622 Q -19.85 36.23 -20.41 36.23 Z " fill="black" /><path d="M -16.366 39.579 L -16.366 39.579 L -16.008 39.579 Q -15.862 40.229 -15.661 40.587 Q -15.459 40.946 -15.14 41.086 Q -14.821 41.226 -14.362 41.226 Q -13.835 41.226 -13.55 41.052 Q -13.264 40.878 -13.264 40.442 Q -13.264 40.15 -13.404 39.954 Q -13.544 39.758 -13.852 39.579 Q -14.16 39.4 -14.675 39.165 Q -15.202 38.907 -15.577 38.683 Q -15.952 38.459 -16.148 38.157 Q -16.344 37.854 -16.344 37.395 Q -16.344 36.589 -15.801 36.163 Q -15.258 35.738 -14.44 35.738 Q -13.947 35.738 -13.606 35.861 Q -13.264 35.984 -13.062 36.074 L -13.04 36.074 L -12.861 35.794 L -12.547 35.794 L -12.525 37.653 L -12.917 37.653 Q -13.13 36.79 -13.51 36.494 Q -13.891 36.197 -14.384 36.197 Q -14.899 36.197 -15.162 36.421 Q -15.426 36.645 -15.426 37.003 Q -15.426 37.294 -15.246 37.485 Q -15.067 37.675 -14.737 37.838 Q -14.406 38 -13.947 38.224 Q -13.432 38.47 -13.04 38.734 Q -12.648 38.997 -12.424 39.327 Q -12.2 39.658 -12.2 40.15 Q -12.2 40.744 -12.514 41.102 Q -12.827 41.461 -13.32 41.612 Q -13.813 41.763 -14.35 41.763 Q -14.899 41.763 -15.202 41.651 Q -15.504 41.539 -15.762 41.438 L -15.806 41.438 L -16.086 41.73 L -16.344 41.73 Z " fill="black" /></g></g></g><circle cx="-1.3226185430791413e-14" cy="72.0" r="2.6999999999999997" style="stroke:black;fill:black;stroke-width:2.0;stroke-dasharray:-;" /><circle cx="107.99999999999999" cy="72.0" r="2.6999999999999997" style="stroke:black;fill:black;stroke-width:2.0;stroke-dasharray:-;" /><g><g><g><path d="M 88.843 106.646 L 88.843 106.646 L 88.763 107.142 Q 88.315 107.142 88.059 107.238 Q 87.803 107.334 87.675 107.598 Q 87.547 107.862 87.451 108.358 L 86.971 110.678 Q 85.995 111.174 85.091 111.47 Q 84.187 111.766 82.907 111.766 Q 81.755 111.766 80.979 111.446 Q 80.203 111.126 79.747 110.574 Q 79.291 110.022 79.091 109.318 Q 78.891 108.614 78.891 107.846 Q 78.891 106.118 79.427 104.806 Q 79.963 103.494 80.867 102.622 Q 81.771 101.75 82.907 101.31 Q 84.043 100.87 85.243 100.87 Q 86.091 100.87 86.563 101.014 Q 87.035 101.158 87.291 101.31 Q 87.547 101.462 87.755 101.462 Q 87.931 101.462 88.075 101.302 Q 88.219 101.142 88.411 100.886 L 88.859 100.886 L 88.123 104.55 L 87.595 104.55 Q 87.643 102.95 86.987 102.254 Q 86.331 101.558 85.099 101.558 Q 83.883 101.558 82.835 102.27 Q 81.787 102.982 81.155 104.302 Q 80.523 105.622 80.507 107.462 Q 80.507 109.238 81.171 110.15 Q 81.835 111.062 83.291 111.062 Q 84.027 111.062 84.587 110.838 Q 85.147 110.614 85.675 110.262 L 86.011 108.518 Q 86.139 107.942 86.099 107.646 Q 86.059 107.35 85.787 107.246 Q 85.515 107.142 84.907 107.142 L 85.003 106.646 Z " fill="black" /><path d="M 95.362 109.362 L 95.362 109.362 L 94.925 109.362 Q 94.768 108.779 94.538 108.359 Q 94.309 107.939 93.928 107.704 Q 93.547 107.469 92.931 107.469 Q 92.349 107.469 92.002 107.76 Q 91.654 108.051 91.654 108.578 Q 91.654 109.048 91.951 109.378 Q 92.248 109.709 92.713 109.972 Q 93.178 110.235 93.704 110.498 Q 94.23 110.762 94.695 111.086 Q 95.16 111.411 95.457 111.859 Q 95.754 112.307 95.754 112.957 Q 95.754 113.651 95.429 114.133 Q 95.104 114.614 94.544 114.861 Q 93.984 115.107 93.278 115.107 Q 92.64 115.107 92.242 115.018 Q 91.845 114.928 91.61 114.838 Q 91.374 114.749 91.218 114.749 Q 91.083 114.749 90.988 114.844 Q 90.893 114.939 90.882 115.13 L 90.389 115.13 L 90.389 112.453 L 90.826 112.453 Q 91.038 113.237 91.302 113.685 Q 91.565 114.133 91.979 114.318 Q 92.394 114.502 93.043 114.502 Q 93.715 114.502 94.118 114.239 Q 94.522 113.976 94.522 113.27 Q 94.522 112.789 94.236 112.453 Q 93.95 112.117 93.497 111.854 Q 93.043 111.59 92.534 111.333 Q 92.024 111.075 91.57 110.762 Q 91.117 110.448 90.831 110.006 Q 90.546 109.563 90.546 108.925 Q 90.546 108.275 90.87 107.833 Q 91.195 107.39 91.727 107.166 Q 92.259 106.942 92.875 106.942 Q 93.435 106.942 93.754 107.038 Q 94.074 107.133 94.253 107.228 Q 94.432 107.323 94.555 107.323 Q 94.723 107.323 94.807 107.25 Q 94.891 107.178 94.936 106.976 L 95.362 106.976 Z " fill="black" /></g></g></g><circle cx="108.0" cy="-0.0" r="2.6999999999999997" style="stroke:black;fill:black;stroke-width:2.0;stroke-dasharray:-;" /><g><g><g><path d="M 53.063 -21.125 L 53.063 -21.125 L 53.351 -20.821 Q 52.535 -19.861 51.463 -19.245 Q 50.391 -18.629 48.871 -18.629 Q 47.431 -18.629 46.567 -19.165 Q 45.703 -19.701 45.327 -20.597 Q 44.951 -21.493 44.951 -22.549 Q 44.951 -24.229 45.463 -25.533 Q 45.975 -26.837 46.863 -27.725 Q 47.751 -28.613 48.871 -29.069 Q 49.991 -29.525 51.207 -29.525 Q 52.023 -29.525 52.479 -29.381 Q 52.935 -29.237 53.191 -29.085 Q 53.447 -28.933 53.639 -28.933 Q 53.831 -28.933 53.975 -29.093 Q 54.119 -29.253 54.311 -29.509 L 54.775 -29.509 L 54.023 -25.845 L 53.495 -25.845 Q 53.559 -27.445 52.903 -28.141 Q 52.247 -28.837 51.063 -28.837 Q 50.135 -28.837 49.319 -28.413 Q 48.503 -27.989 47.871 -27.213 Q 47.239 -26.437 46.879 -25.357 Q 46.519 -24.277 46.519 -22.949 Q 46.519 -21.349 47.279 -20.509 Q 48.039 -19.669 49.623 -19.669 Q 51.463 -19.669 53.063 -21.125 Z " fill="black" /><path d="M 55.898 -17.696 L 55.898 -17.696 L 55.898 -17.741 Q 55.506 -17.976 55.232 -18.351 Q 54.957 -18.726 54.957 -19.32 Q 54.957 -19.947 55.26 -20.395 Q 55.562 -20.843 56.077 -21.084 Q 56.592 -21.325 57.231 -21.325 Q 57.824 -21.325 58.2 -21.196 Q 58.575 -21.067 58.575 -21.067 L 60.221 -21.112 L 60.221 -20.451 L 59.045 -20.474 L 59.045 -20.395 Q 59.191 -20.194 59.348 -19.919 Q 59.504 -19.645 59.504 -19.152 Q 59.504 -18.592 59.208 -18.183 Q 58.911 -17.774 58.412 -17.556 Q 57.914 -17.338 57.287 -17.338 Q 56.716 -17.338 56.212 -17.539 Q 56.133 -17.394 56.027 -17.125 Q 55.92 -16.856 55.92 -16.666 Q 55.92 -16.43 56.195 -16.318 Q 56.469 -16.206 57.287 -16.206 Q 57.892 -16.206 58.407 -16.178 Q 58.922 -16.15 59.303 -16.022 Q 59.684 -15.893 59.891 -15.607 Q 60.098 -15.322 60.098 -14.795 Q 60.098 -14.19 59.79 -13.77 Q 59.482 -13.35 58.978 -13.093 Q 58.474 -12.835 57.886 -12.718 Q 57.298 -12.6 56.727 -12.6 Q 55.909 -12.6 55.461 -12.802 Q 55.013 -13.003 54.84 -13.317 Q 54.666 -13.63 54.666 -13.955 Q 54.666 -14.269 54.884 -14.577 Q 55.103 -14.885 55.584 -15.333 L 55.584 -15.389 Q 55.304 -15.534 55.114 -15.781 Q 54.924 -16.027 54.924 -16.262 Q 54.924 -16.598 55.22 -16.974 Q 55.517 -17.349 55.898 -17.696 Z M 55.954 -15.277 L 55.954 -15.277 Q 55.764 -14.952 55.696 -14.762 Q 55.629 -14.571 55.629 -14.381 Q 55.629 -13.866 56.049 -13.602 Q 56.469 -13.339 57.354 -13.339 Q 58.082 -13.339 58.53 -13.518 Q 58.978 -13.698 59.191 -13.95 Q 59.404 -14.202 59.404 -14.437 Q 59.404 -14.739 59.208 -14.907 Q 59.012 -15.075 58.709 -15.148 Q 58.407 -15.221 58.071 -15.243 Q 57.735 -15.266 57.444 -15.266 Q 57.365 -15.266 57.32 -15.266 Q 56.604 -15.266 56.34 -15.271 Q 56.077 -15.277 55.954 -15.277 Z M 57.164 -20.832 L 57.164 -20.832 Q 56.682 -20.832 56.385 -20.507 Q 56.088 -20.182 56.088 -19.387 Q 56.088 -18.603 56.402 -18.2 Q 56.716 -17.797 57.287 -17.797 Q 57.589 -17.797 57.836 -17.92 Q 58.082 -18.043 58.233 -18.368 Q 58.384 -18.693 58.384 -19.286 Q 58.384 -20.048 58.054 -20.44 Q 57.724 -20.832 57.164 -20.832 Z " fill="black" /><path d="M 67.154 -15.59 L 67.154 -15.59 L 65.642 -15.389 L 65.239 -15.389 L 65.239 -16.173 L 65.16 -16.173 Q 64.791 -15.859 64.326 -15.602 Q 63.861 -15.344 63.279 -15.344 Q 62.618 -15.344 62.153 -15.702 Q 61.688 -16.061 61.442 -16.688 Q 61.196 -17.315 61.196 -18.11 Q 61.196 -19.107 61.582 -19.83 Q 61.968 -20.552 62.612 -20.938 Q 63.256 -21.325 64.018 -21.325 Q 64.679 -21.325 65.216 -21.022 L 65.216 -22.467 Q 65.216 -22.87 65.132 -22.999 Q 65.048 -23.128 64.69 -23.128 Q 64.612 -23.128 64.483 -23.111 Q 64.354 -23.094 64.354 -23.094 L 64.354 -23.52 L 65.844 -23.811 L 66.303 -23.811 L 66.303 -16.71 Q 66.303 -16.274 66.426 -16.145 Q 66.549 -16.016 66.852 -16.016 L 67.154 -16.016 Z M 65.216 -16.688 L 65.216 -16.688 L 65.216 -19.958 Q 65.093 -20.272 64.808 -20.518 Q 64.522 -20.765 63.996 -20.765 Q 63.245 -20.765 62.764 -20.255 Q 62.282 -19.746 62.282 -18.57 Q 62.282 -17.371 62.702 -16.817 Q 63.122 -16.262 63.884 -16.262 Q 64.242 -16.262 64.539 -16.363 Q 64.836 -16.464 65.216 -16.688 Z " fill="black" /></g></g></g><g><g><g><path d="M 55.226 30.682 L 55.226 30.682 L 55.13 31.498 L 53.738 31.338 L 53.738 31.386 Q 54.01 31.69 54.162 32.146 Q 54.314 32.602 54.314 33.018 Q 54.314 33.738 54.026 34.226 Q 53.738 34.714 53.274 35.01 Q 52.81 35.306 52.25 35.458 Q 51.69 35.61 51.162 35.658 Q 50.522 35.722 50.258 35.93 Q 49.994 36.138 49.994 36.362 Q 49.994 36.65 50.314 36.802 Q 50.634 36.954 51.138 37.05 Q 51.642 37.146 52.218 37.266 Q 52.794 37.386 53.298 37.594 Q 53.802 37.802 54.122 38.178 Q 54.442 38.554 54.442 39.178 Q 54.442 39.866 53.994 40.45 Q 53.546 41.034 52.666 41.394 Q 51.786 41.754 50.506 41.754 Q 49.354 41.754 48.666 41.474 Q 47.978 41.194 47.674 40.754 Q 47.37 40.314 47.37 39.834 Q 47.37 39.066 47.962 38.594 Q 48.554 38.122 49.306 37.882 L 49.306 37.818 Q 49.098 37.69 48.914 37.458 Q 48.73 37.226 48.73 36.858 Q 48.73 36.458 48.938 36.218 Q 49.146 35.978 49.474 35.826 Q 49.802 35.674 50.122 35.562 L 50.122 35.466 Q 49.498 35.194 49.034 34.698 Q 48.57 34.202 48.57 33.29 Q 48.57 32.458 48.97 31.826 Q 49.37 31.194 50.066 30.842 Q 50.762 30.49 51.626 30.49 Q 52.202 30.49 52.498 30.546 Q 52.794 30.602 53.082 30.682 Z M 53.29 39.77 L 53.29 39.77 Q 53.29 39.29 52.89 38.994 Q 52.49 38.698 51.898 38.522 Q 51.306 38.346 50.706 38.242 Q 50.106 38.138 49.69 38.058 Q 49.29 38.314 48.954 38.642 Q 48.618 38.97 48.618 39.594 Q 48.618 40.234 49.114 40.714 Q 49.61 41.194 50.826 41.194 Q 51.978 41.194 52.634 40.77 Q 53.29 40.346 53.29 39.77 Z M 52.89 32.842 L 52.89 32.842 Q 52.89 32.042 52.586 31.506 Q 52.282 30.97 51.578 30.97 Q 50.89 30.97 50.442 31.546 Q 49.994 32.122 49.994 33.29 Q 49.994 34.122 50.282 34.642 Q 50.57 35.162 51.258 35.162 Q 52.058 35.162 52.474 34.49 Q 52.89 33.818 52.89 32.842 Z " fill="black" /><path d="M 57.958 37.179 L 57.958 37.179 L 57.958 40.282 Q 57.958 40.618 58.026 40.797 Q 58.093 40.976 58.283 41.038 Q 58.474 41.099 58.843 41.099 L 58.843 41.514 L 56.021 41.514 L 56.021 41.099 Q 56.379 41.099 56.558 41.038 Q 56.738 40.976 56.794 40.791 Q 56.85 40.606 56.85 40.259 L 56.85 36.866 Q 56.85 36.552 56.732 36.446 Q 56.614 36.339 56.357 36.339 Q 56.234 36.339 56.138 36.35 Q 56.043 36.362 56.043 36.362 L 56.043 35.936 L 57.51 35.667 L 57.925 35.667 L 57.925 36.586 L 58.003 36.586 Q 58.474 36.16 58.944 35.897 Q 59.414 35.634 60.053 35.634 Q 60.579 35.634 60.91 35.902 Q 61.24 36.171 61.419 36.563 L 61.475 36.563 Q 62.494 35.634 63.435 35.634 Q 64.197 35.634 64.639 36.104 Q 65.082 36.574 65.082 37.594 L 65.082 40.058 Q 65.082 40.438 65.126 40.668 Q 65.171 40.898 65.35 40.998 Q 65.53 41.099 65.933 41.099 L 65.933 41.514 L 63.122 41.514 L 63.122 41.099 Q 63.536 41.099 63.721 40.993 Q 63.906 40.886 63.95 40.657 Q 63.995 40.427 63.995 40.058 L 63.995 37.728 Q 63.995 37.022 63.71 36.742 Q 63.424 36.462 62.976 36.462 Q 62.595 36.462 62.214 36.692 Q 61.834 36.922 61.542 37.146 L 61.542 40.058 Q 61.542 40.472 61.593 40.702 Q 61.643 40.931 61.839 41.015 Q 62.035 41.099 62.45 41.099 L 62.45 41.514 L 59.526 41.514 L 59.526 41.099 Q 59.952 41.099 60.148 41.015 Q 60.344 40.931 60.4 40.702 Q 60.456 40.472 60.456 40.058 L 60.456 37.694 Q 60.456 36.989 60.204 36.726 Q 59.952 36.462 59.515 36.462 Q 59.056 36.462 58.636 36.709 Q 58.216 36.955 57.958 37.179 Z " fill="black" /><path d="M 70.858 36.154 L 70.858 36.154 L 75.226 29.594 Q 75.45 29.274 75.586 29.002 Q 75.722 28.73 75.722 28.538 Q 75.722 28.298 75.514 28.21 Q 75.306 28.122 74.762 28.122 L 74.794 27.642 L 78.25 27.642 L 78.218 28.122 Q 77.786 28.122 77.482 28.25 Q 77.178 28.378 76.866 28.738 Q 76.554 29.098 76.058 29.834 L 70.186 38.234 L 69.658 38.234 L 68.762 29.578 Q 68.666 28.778 68.41 28.45 Q 68.154 28.122 67.514 28.122 L 67.546 27.642 L 71.466 27.642 L 71.418 28.122 Q 70.81 28.122 70.458 28.362 Q 70.106 28.602 70.138 29.146 Q 70.138 29.226 70.162 29.434 Q 70.186 29.642 70.186 29.722 L 70.666 34.282 L 70.778 36.154 Z " fill="black" /><path d="M 76.333 39.262 L 76.333 39.262 L 76.333 39.218 Q 75.941 38.982 75.666 38.607 Q 75.392 38.232 75.392 37.638 Q 75.392 37.011 75.694 36.563 Q 75.997 36.115 76.512 35.874 Q 77.027 35.634 77.666 35.634 Q 78.259 35.634 78.634 35.762 Q 79.01 35.891 79.01 35.891 L 80.656 35.846 L 80.656 36.507 L 79.48 36.485 L 79.48 36.563 Q 79.626 36.765 79.782 37.039 Q 79.939 37.314 79.939 37.806 Q 79.939 38.366 79.642 38.775 Q 79.346 39.184 78.847 39.402 Q 78.349 39.621 77.722 39.621 Q 77.15 39.621 76.646 39.419 Q 76.568 39.565 76.462 39.834 Q 76.355 40.102 76.355 40.293 Q 76.355 40.528 76.63 40.64 Q 76.904 40.752 77.722 40.752 Q 78.326 40.752 78.842 40.78 Q 79.357 40.808 79.738 40.937 Q 80.118 41.066 80.326 41.351 Q 80.533 41.637 80.533 42.163 Q 80.533 42.768 80.225 43.188 Q 79.917 43.608 79.413 43.866 Q 78.909 44.123 78.321 44.241 Q 77.733 44.358 77.162 44.358 Q 76.344 44.358 75.896 44.157 Q 75.448 43.955 75.274 43.642 Q 75.101 43.328 75.101 43.003 Q 75.101 42.69 75.319 42.382 Q 75.538 42.074 76.019 41.626 L 76.019 41.57 Q 75.739 41.424 75.549 41.178 Q 75.358 40.931 75.358 40.696 Q 75.358 40.36 75.655 39.985 Q 75.952 39.61 76.333 39.262 Z M 76.389 41.682 L 76.389 41.682 Q 76.198 42.006 76.131 42.197 Q 76.064 42.387 76.064 42.578 Q 76.064 43.093 76.484 43.356 Q 76.904 43.619 77.789 43.619 Q 78.517 43.619 78.965 43.44 Q 79.413 43.261 79.626 43.009 Q 79.838 42.757 79.838 42.522 Q 79.838 42.219 79.642 42.051 Q 79.446 41.883 79.144 41.81 Q 78.842 41.738 78.506 41.715 Q 78.17 41.693 77.878 41.693 Q 77.8 41.693 77.755 41.693 Q 77.038 41.693 76.775 41.687 Q 76.512 41.682 76.389 41.682 Z M 77.598 36.126 L 77.598 36.126 Q 77.117 36.126 76.82 36.451 Q 76.523 36.776 76.523 37.571 Q 76.523 38.355 76.837 38.758 Q 77.15 39.162 77.722 39.162 Q 78.024 39.162 78.27 39.038 Q 78.517 38.915 78.668 38.59 Q 78.819 38.266 78.819 37.672 Q 78.819 36.91 78.489 36.518 Q 78.158 36.126 77.598 36.126 Z " fill="black" /><path d="M 81.642 39.475 L 81.642 39.475 L 82 39.475 Q 82.146 40.125 82.347 40.483 Q 82.549 40.842 82.868 40.982 Q 83.187 41.122 83.646 41.122 Q 84.173 41.122 84.458 40.948 Q 84.744 40.774 84.744 40.338 Q 84.744 40.046 84.604 39.85 Q 84.464 39.654 84.156 39.475 Q 83.848 39.296 83.333 39.061 Q 82.806 38.803 82.431 38.579 Q 82.056 38.355 81.86 38.053 Q 81.664 37.75 81.664 37.291 Q 81.664 36.485 82.207 36.059 Q 82.75 35.634 83.568 35.634 Q 84.061 35.634 84.402 35.757 Q 84.744 35.88 84.946 35.97 L 84.968 35.97 L 85.147 35.69 L 85.461 35.69 L 85.483 37.549 L 85.091 37.549 Q 84.878 36.686 84.498 36.39 Q 84.117 36.093 83.624 36.093 Q 83.109 36.093 82.846 36.317 Q 82.582 36.541 82.582 36.899 Q 82.582 37.19 82.762 37.381 Q 82.941 37.571 83.271 37.734 Q 83.602 37.896 84.061 38.12 Q 84.576 38.366 84.968 38.63 Q 85.36 38.893 85.584 39.223 Q 85.808 39.554 85.808 40.046 Q 85.808 40.64 85.494 40.998 Q 85.181 41.357 84.688 41.508 Q 84.195 41.659 83.658 41.659 Q 83.109 41.659 82.806 41.547 Q 82.504 41.435 82.246 41.334 L 82.202 41.334 L 81.922 41.626 L 81.664 41.626 Z " fill="black" /></g></g></g><g><g><g><path d="M 190.611 30.56 L 190.611 30.56 L 190.515 31.376 L 189.123 31.216 L 189.123 31.264 Q 189.395 31.568 189.547 32.024 Q 189.699 32.48 189.699 32.896 Q 189.699 33.616 189.411 34.104 Q 189.123 34.592 188.659 34.888 Q 188.195 35.184 187.635 35.336 Q 187.075 35.488 186.547 35.536 Q 185.907 35.6 185.643 35.808 Q 185.379 36.016 185.379 36.24 Q 185.379 36.528 185.699 36.68 Q 186.019 36.832 186.523 36.928 Q 187.027 37.024 187.603 37.144 Q 188.179 37.264 188.683 37.472 Q 189.187 37.68 189.507 38.056 Q 189.827 38.432 189.827 39.056 Q 189.827 39.744 189.379 40.328 Q 188.931 40.912 188.051 41.272 Q 187.171 41.632 185.891 41.632 Q 184.739 41.632 184.051 41.352 Q 183.363 41.072 183.059 40.632 Q 182.755 40.192 182.755 39.712 Q 182.755 38.944 183.347 38.472 Q 183.939 38 184.691 37.76 L 184.691 37.696 Q 184.483 37.568 184.299 37.336 Q 184.115 37.104 184.115 36.736 Q 184.115 36.336 184.323 36.096 Q 184.531 35.856 184.859 35.704 Q 185.187 35.552 185.507 35.44 L 185.507 35.344 Q 184.883 35.072 184.419 34.576 Q 183.955 34.08 183.955 33.168 Q 183.955 32.336 184.355 31.704 Q 184.755 31.072 185.451 30.72 Q 186.147 30.368 187.011 30.368 Q 187.587 30.368 187.883 30.424 Q 188.179 30.48 188.467 30.56 Z M 188.675 39.648 L 188.675 39.648 Q 188.675 39.168 188.275 38.872 Q 187.875 38.576 187.283 38.4 Q 186.691 38.224 186.091 38.12 Q 185.491 38.016 185.075 37.936 Q 184.675 38.192 184.339 38.52 Q 184.003 38.848 184.003 39.472 Q 184.003 40.112 184.499 40.592 Q 184.995 41.072 186.211 41.072 Q 187.363 41.072 188.019 40.648 Q 188.675 40.224 188.675 39.648 Z M 188.275 32.72 L 188.275 32.72 Q 188.275 31.92 187.971 31.384 Q 187.667 30.848 186.963 30.848 Q 186.275 30.848 185.827 31.424 Q 185.379 32 185.379 33.168 Q 185.379 34 185.667 34.52 Q 185.955 35.04 186.643 35.04 Q 187.443 35.04 187.859 34.368 Q 188.275 33.696 188.275 32.72 Z " fill="black" /><path d="M 197.454 41.246 L 197.454 41.246 L 195.942 41.448 L 195.539 41.448 L 195.539 40.664 L 195.461 40.664 Q 195.091 40.978 194.626 41.235 Q 194.162 41.493 193.579 41.493 Q 192.918 41.493 192.454 41.134 Q 191.989 40.776 191.742 40.149 Q 191.496 39.522 191.496 38.726 Q 191.496 37.73 191.882 37.007 Q 192.269 36.285 192.913 35.898 Q 193.557 35.512 194.318 35.512 Q 194.979 35.512 195.517 35.814 L 195.517 34.37 Q 195.517 33.966 195.433 33.838 Q 195.349 33.709 194.99 33.709 Q 194.912 33.709 194.783 33.726 Q 194.654 33.742 194.654 33.742 L 194.654 33.317 L 196.144 33.026 L 196.603 33.026 L 196.603 40.126 Q 196.603 40.563 196.726 40.692 Q 196.85 40.821 197.152 40.821 L 197.454 40.821 Z M 195.517 40.149 L 195.517 40.149 L 195.517 36.878 Q 195.394 36.565 195.108 36.318 Q 194.822 36.072 194.296 36.072 Q 193.546 36.072 193.064 36.582 Q 192.582 37.091 192.582 38.267 Q 192.582 39.466 193.002 40.02 Q 193.422 40.574 194.184 40.574 Q 194.542 40.574 194.839 40.474 Q 195.136 40.373 195.517 40.149 Z " fill="black" /><path d="M 198.642 39.354 L 198.642 39.354 L 199 39.354 Q 199.146 40.003 199.347 40.362 Q 199.549 40.72 199.868 40.86 Q 200.187 41 200.646 41 Q 201.173 41 201.458 40.826 Q 201.744 40.653 201.744 40.216 Q 201.744 39.925 201.604 39.729 Q 201.464 39.533 201.156 39.354 Q 200.848 39.174 200.333 38.939 Q 199.806 38.682 199.431 38.458 Q 199.056 38.234 198.86 37.931 Q 198.664 37.629 198.664 37.17 Q 198.664 36.363 199.207 35.938 Q 199.75 35.512 200.568 35.512 Q 201.061 35.512 201.402 35.635 Q 201.744 35.758 201.946 35.848 L 201.968 35.848 L 202.147 35.568 L 202.461 35.568 L 202.483 37.427 L 202.091 37.427 Q 201.878 36.565 201.498 36.268 Q 201.117 35.971 200.624 35.971 Q 200.109 35.971 199.846 36.195 Q 199.582 36.419 199.582 36.778 Q 199.582 37.069 199.762 37.259 Q 199.941 37.45 200.271 37.612 Q 200.602 37.774 201.061 37.998 Q 201.576 38.245 201.968 38.508 Q 202.36 38.771 202.584 39.102 Q 202.808 39.432 202.808 39.925 Q 202.808 40.518 202.494 40.877 Q 202.181 41.235 201.688 41.386 Q 201.195 41.538 200.658 41.538 Q 200.109 41.538 199.806 41.426 Q 199.504 41.314 199.246 41.213 L 199.202 41.213 L 198.922 41.504 L 198.664 41.504 Z " fill="black" /></g></g></g><g><g><g><path d="M 86.29 -37.264 L 86.29 -37.264 L 86.21 -36.768 Q 85.762 -36.768 85.506 -36.672 Q 85.25 -36.576 85.122 -36.312 Q 84.994 -36.048 84.898 -35.552 L 84.418 -33.232 Q 83.442 -32.736 82.538 -32.44 Q 81.634 -32.144 80.354 -32.144 Q 79.202 -32.144 78.426 -32.464 Q 77.65 -32.784 77.194 -33.336 Q 76.738 -33.888 76.538 -34.592 Q 76.338 -35.296 76.338 -36.064 Q 76.338 -37.792 76.874 -39.104 Q 77.41 -40.416 78.314 -41.288 Q 79.218 -42.16 80.354 -42.6 Q 81.49 -43.04 82.69 -43.04 Q 83.538 -43.04 84.01 -42.896 Q 84.482 -42.752 84.738 -42.6 Q 84.994 -42.448 85.202 -42.448 Q 85.378 -42.448 85.522 -42.608 Q 85.666 -42.768 85.858 -43.024 L 86.306 -43.024 L 85.57 -39.36 L 85.042 -39.36 Q 85.09 -40.96 84.434 -41.656 Q 83.778 -42.352 82.546 -42.352 Q 81.33 -42.352 80.282 -41.64 Q 79.234 -40.928 78.602 -39.608 Q 77.97 -38.288 77.954 -36.448 Q 77.954 -34.672 78.618 -33.76 Q 79.282 -32.848 80.738 -32.848 Q 81.474 -32.848 82.034 -33.072 Q 82.594 -33.296 83.122 -33.648 L 83.458 -35.392 Q 83.586 -35.968 83.546 -36.264 Q 83.506 -36.56 83.234 -36.664 Q 82.962 -36.768 82.354 -36.768 L 82.45 -37.264 Z " fill="black" /><path d="M 87.701 -36.834 L 87.701 -36.834 L 91.094 -36.834 Q 91.99 -36.834 92.808 -36.638 Q 93.626 -36.442 94.27 -35.994 Q 94.914 -35.546 95.289 -34.795 Q 95.664 -34.045 95.664 -32.925 Q 95.664 -31.872 95.322 -31.116 Q 94.981 -30.36 94.365 -29.884 Q 93.749 -29.408 92.931 -29.184 Q 92.114 -28.96 91.162 -28.96 L 87.701 -28.96 L 87.701 -29.386 Q 88.227 -29.386 88.474 -29.464 Q 88.72 -29.542 88.793 -29.783 Q 88.866 -30.024 88.866 -30.517 L 88.866 -35.378 Q 88.866 -35.837 88.759 -36.055 Q 88.653 -36.274 88.401 -36.341 Q 88.149 -36.408 87.701 -36.408 Z M 90.064 -36.274 L 90.064 -36.274 L 90.064 -29.498 Q 90.243 -29.486 90.417 -29.481 Q 90.59 -29.475 90.758 -29.475 Q 91.867 -29.475 92.646 -29.766 Q 93.424 -30.058 93.833 -30.786 Q 94.242 -31.514 94.242 -32.824 Q 94.242 -34.504 93.385 -35.394 Q 92.528 -36.285 90.669 -36.285 Q 90.512 -36.285 90.366 -36.285 Q 90.221 -36.285 90.064 -36.274 Z " fill="black" /></g></g></g></svg>