<svg xmlns="http://www.w3.org/2000/svg" xmlns:xlink="http://www.w3.org/1999/xlink" xml:lang="en" height="412.7780000000001pt" width="505.8986pt" viewBox="-65.09860000000002 -34.738 505.8986 412.7780000000001"><circle cx="-6.613092715395707e-15" cy="36.0" r="18.0" style="stroke:black;fill:none;stroke-width:2.0;stroke-dasharray:-;" /><circle cx="248.99999999999997" cy="87.00000000000001" r="18.0" style="stroke:blue;fill:none;stroke-width:2.0;stroke-dasharray:-;" /><circle cx="147.00000000000003" cy="87.00000000000001" r="18.0" style="stroke:blue;fill:none;stroke-width:2.0;stroke-dasharray:-;" /><path d="M 0.0,-0.0 L -3.3065463576978533e-15,18.0 L -3.3065463576978533e-15,18.0 M -9.919639073093561e-15,54.0 L -9.919639073093561e-15,54.0 L -1.3226185430791413e-14,72.0" style="stroke:black;fill:none;stroke-width:2.0;stroke-dasharray:-;stroke-linecap:round;stroke-linejoin:round;" /><path d="M -4.9598195365467806e-15,27.0 L -6.819055509535661e-15,36.0" style="stroke:black;fill:none;stroke-width:2.0;stroke-dasharray:-;stroke-linecap:round;stroke-linejoin:round;" /><path d="M -7.944741364309306e-15 43.0 L -2.7000000000000064 36.0 L 2.699999999999993 36.0 Z" style="stroke:black;fill:black;stroke-linecap:butt;stroke-linejoin:miter;" /><path d="M -1.3226185430791413e-14,72.0 L -1.6532731788489267e-14,90.0 L 8.999999999999982,93.0 L -9.000000000000018,99.0 L 8.99999999999998,105.0 L -9.000000000000021,110.99999999999999 L 8.999999999999979,117.0 L -9.000000000000025,123.0 L -2.3145824503884975e-14,126.0 L -2.6452370861582827e-14,144.0" style="stroke:black;fill:none;stroke-width:2.0;stroke-dasharray:-;stroke-linecap:round;stroke-linejoin:round;" /><path d="M -2.6452370861582827e-14,144.0 L -2.6452370861582827e-14,159.0 L 14.999999999999973,159.0 L 14.999999999999973,189.0 L -2.6452370861582827e-14,189.0 L -2.6452370861582827e-14,203.99999999999997" style="stroke:black;fill:none;stroke-width:2.0;stroke-dasharray:-;stroke-linecap:round;stroke-linejoin:round;" /><path d="M 14.999999999999973,189.0 L 8.999999999999973,189.0" style="stroke:black;fill:none;stroke-width:2.0;stroke-dasharray:-;stroke-linecap:round;stroke-linejoin:round;" /><path d="M 1.9999999999999736 189.0 L 8.999999999999975 184.5 L 8.999999999999972 193.5 Z" style="stroke:black;fill:black;stroke-linecap:butt;stroke-linejoin:miter;" /><path d="M 17.99999999999997,162.0 L 17.99999999999997,186.0" style="stroke:black;fill:none;stroke-width:2.0;stroke-dasharray:-;stroke-linecap:round;stroke-linejoin:round;" /><path d="M 17.99999999999997,174.0 L 32.999999999999964,174.0" style="stroke:black;fill:none;stroke-width:2.0;stroke-dasharray:-;stroke-linecap:round;stroke-linejoin:round;" /><path d="M -2.6452370861582827e-14,203.99999999999997 L -3.3065463576978534e-14,239.99999999999997 L -3.9678556292374245e-14,276.0" style="stroke:black;fill:none;stroke-width:2.0;stroke-dasharray:-;stroke-linecap:round;stroke-linejoin:round;" /><path d="M -3.9678556292374245e-14,276.0 L -3.9678556292374245e-14,290.99999999999994 L 14.99999999999996,290.99999999999994 L 14.99999999999996,321.0 L -3.9678556292374245e-14,321.0 L -3.9678556292374245e-14,335.99999999999994" style="stroke:black;fill:none;stroke-width:2.0;stroke-dasharray:-;stroke-linecap:round;stroke-linejoin:round;" /><path d="M 14.99999999999996,321.0 L 8.999999999999961,321.0" style="stroke:black;fill:none;stroke-width:2.0;stroke-dasharray:-;stroke-linecap:round;stroke-linejoin:round;" /><path d="M 1.9999999999999603 321.0 L 8.999999999999961 316.5 L 8.99999999999996 325.5 Z" style="stroke:black;fill:black;stroke-linecap:butt;stroke-linejoin:miter;" /><path d="M 17.999999999999957,294.0 L 17.999999999999957,317.99999999999994" style="stroke:black;fill:none;stroke-width:2.0;stroke-dasharray:-;stroke-linecap:round;stroke-linejoin:round;" /><path d="M 17.999999999999957,306.0 L 32.99999999999996,306.0" style="stroke:black;fill:none;stroke-width:2.0;stroke-dasharray:-;stroke-linecap:round;stroke-linejoin:round;" /><path d="M -3.9678556292374245e-14,335.99999999999994 L -3.9678556292374245e-14,350.4 L -9.000000000000039,350.4 L 8.999999999999961,350.4 M -6.30000000000004,354.7199999999999 L 6.29999999999996,354.7199999999999 M -1.8000000000000398,359.03999999999996 L 1.7999999999999603,359.03999999999996" style="stroke:black;fill:none;stroke-width:2.0;stroke-dasharray:-;stroke-linecap:round;stroke-linejoin:round;" /><path d="M 32.99999999999996,306.0 L 41.99999999999996,306.0 L 50.99999999999996,306.0" style="stroke:black;fill:none;stroke-width:2.0;stroke-dasharray:-;stroke-linecap:round;stroke-linejoin:round;" /><path d="M 50.99999999999996,306.0 L 50.999999999999964,225.0 L 50.999999999999964,144.0" style="stroke:black;fill:none;stroke-width:2.0;stroke-dasharray:-;stroke-linecap:round;stroke-linejoin:round;" /><path d="M 50.999999999999964,144.0 L 25.499999999999968,144.0 L -2.398081733190338e-14,144.0" style="stroke:black;fill:none;stroke-width:2.0;stroke-dasharray:-;stroke-linecap:round;stroke-linejoin:round;" /><path d="M 32.99999999999996,306.0 L 176.99999999999994,306.0 L 321.0,306.0" style="stroke:black;fill:none;stroke-width:2.0;stroke-dasharray:-;stroke-linecap:round;stroke-linejoin:round;" /><path d="M 353.99999999999994,336.0 L 353.99999999999994,321.0 L 339.0,321.0 L 339.0,291.0 L 353.99999999999994,291.0 L 353.99999999999994,276.0" style="stroke:black;fill:none;stroke-width:2.0;stroke-dasharray:-;stroke-linecap:round;stroke-linejoin:round;" /><path d="M 344.99999999999994,321.0 L 339.0,321.0" style="stroke:black;fill:none;stroke-width:2.0;stroke-dasharray:-;stroke-linecap:round;stroke-linejoin:round;" /><path d="M 351.99999999999994 321.0 L 344.99999999999994 325.5 L 344.99999999999994 316.5 Z" style="stroke:black;fill:black;stroke-linecap:butt;stroke-linejoin:miter;" /><path d="M 335.99999999999994,318.0 L 335.99999999999994,294.0" style="stroke:black;fill:none;stroke-width:2.0;stroke-dasharray:-;stroke-linecap:round;stroke-linejoin:round;" /><path d="M 321.0,306.0 L 335.99999999999994,306.0" style="stroke:black;fill:none;stroke-width:2.0;stroke-dasharray:-;stroke-linecap:round;stroke-linejoin:round;" /><path d="M 353.99999999999994,276.0 L 353.99999999999994,240.0 L 353.99999999999994,204.0" style="stroke:black;fill:none;stroke-width:2.0;stroke-dasharray:-;stroke-linecap:round;stroke-linejoin:round;" /><path d="M 353.99999999999994,204.0 L 353.99999999999994,189.0 L 339.0,189.0 L 339.0,159.0 L 353.99999999999994,159.0 L 353.99999999999994,144.0" style="stroke:black;fill:none;stroke-width:2.0;stroke-dasharray:-;stroke-linecap:round;stroke-linejoin:round;" /><path d="M 344.99999999999994,189.0 L 339.0,189.0" style="stroke:black;fill:none;stroke-width:2.0;stroke-dasharray:-;stroke-linecap:round;stroke-linejoin:round;" /><path d="M 351.99999999999994 189.0 L 344.99999999999994 193.5 L 344.99999999999994 184.5 Z" style="stroke:black;fill:black;stroke-linecap:butt;stroke-linejoin:miter;" /><path d="M 335.99999999999994,186.0 L 335.99999999999994,162.0" style="stroke:black;fill:none;stroke-width:2.0;stroke-dasharray:-;stroke-linecap:round;stroke-linejoin:round;" /><path d="M 321.0,174.00000000000003 L 335.99999999999994,174.00000000000003" style="stroke:black;fill:none;stroke-width:2.0;stroke-dasharray:-;stroke-linecap:round;stroke-linejoin:round;" /><path d="M 353.99999999999994,336.0 L 353.99999999999994,350.40000000000003 L 344.99999999999994,350.40000000000003 L 362.99999999999994,350.40000000000003 M 347.69999999999993,354.72 L 360.29999999999995,354.72 M 352.19999999999993,359.04 L 355.79999999999995,359.04" style="stroke:black;fill:none;stroke-width:2.0;stroke-dasharray:-;stroke-linecap:round;stroke-linejoin:round;" /><path d="M 353.99999999999994,144.0 L 353.99999999999994,108.0 L 353.99999999999994,72.0" style="stroke:black;fill:none;stroke-width:2.0;stroke-dasharray:-;stroke-linecap:round;stroke-linejoin:round;" /><path d="M 32.999999999999964,174.0 L 59.999999999999964,174.0 L 86.99999999999996,174.0" style="stroke:black;fill:none;stroke-width:2.0;stroke-dasharray:-;stroke-linecap:round;stroke-linejoin:round;" /><path d="M 86.99999999999996,174.0 L 86.99999999999996,123.0 L 86.99999999999996,72.0" style="stroke:black;fill:none;stroke-width:2.0;stroke-dasharray:-;stroke-linecap:round;stroke-linejoin:round;" /><path d="M 86.99999999999996,72.0 L 43.49999999999997,71.99999999999999 L -1.5987211554602254e-14,71.99999999999999" style="stroke:black;fill:none;stroke-width:2.0;stroke-dasharray:-;stroke-linecap:round;stroke-linejoin:round;" /><path d="M 321.0,174.00000000000003 L 285.0,174.00000000000003 L 248.99999999999997,174.00000000000003" style="stroke:blue;fill:none;stroke-width:2.0;stroke-dasharray:-;stroke-linecap:round;stroke-linejoin:round;" /><path d="M 248.99999999999997,234.0 L 248.99999999999997,219.00000000000003 L 233.99999999999997,219.00000000000003 L 233.99999999999997,189.00000000000003 L 248.99999999999997,189.00000000000003 L 248.99999999999997,174.00000000000003" style="stroke:blue;fill:none;stroke-width:2.0;stroke-dasharray:-;stroke-linecap:round;stroke-linejoin:round;" /><path d="M 239.99999999999997,219.00000000000003 L 233.99999999999997,219.00000000000003" style="stroke:blue;fill:none;stroke-width:2.0;stroke-dasharray:-;stroke-linecap:round;stroke-linejoin:round;" /><path d="M 246.99999999999997 219.00000000000003 L 239.99999999999997 223.50000000000003 L 239.99999999999997 214.50000000000003 Z" style="stroke:blue;fill:blue;stroke-linecap:butt;stroke-linejoin:miter;" /><path d="M 230.99999999999997,216.00000000000003 L 230.99999999999997,192.00000000000003" style="stroke:blue;fill:none;stroke-width:2.0;stroke-dasharray:-;stroke-linecap:round;stroke-linejoin:round;" /><path d="M 216.0,204.0 L 230.99999999999997,204.0" style="stroke:blue;fill:none;stroke-width:2.0;stroke-dasharray:-;stroke-linecap:round;stroke-linejoin:round;" /><path d="M 248.99999999999997,234.0 L 248.99999999999997,252.0 L 248.99999999999997,270.0" style="stroke:blue;fill:none;stroke-width:2.0;stroke-dasharray:-;stroke-linecap:round;stroke-linejoin:round;" /><path d="M 248.99999999999997,270.0 L 124.49999999999997,270.0 L -3.197442310920451e-14,269.99999999999994" style="stroke:blue;fill:none;stroke-width:2.0;stroke-dasharray:-;stroke-linecap:round;stroke-linejoin:round;" /><path d="M 216.0,204.0 L 207.0,204.0 L 198.0,204.0" style="stroke:blue;fill:none;stroke-width:2.0;stroke-dasharray:-;stroke-linecap:round;stroke-linejoin:round;" /><path d="M 198.0,204.0 L 189.0,204.0 L 180.0,204.0" style="stroke:blue;fill:none;stroke-width:2.0;stroke-dasharray:-;stroke-linecap:round;stroke-linejoin:round;" /><path d="M 147.00000000000003,174.00000000000003 L 147.00000000000003,189.0 L 162.0,189.0 L 162.0,219.00000000000003 L 147.00000000000003,219.00000000000003 L 147.00000000000003,234.0" style="stroke:blue;fill:none;stroke-width:2.0;stroke-dasharray:-;stroke-linecap:round;stroke-linejoin:round;" /><path d="M 162.0,219.00000000000003 L 156.00000000000003,219.00000000000003" style="stroke:blue;fill:none;stroke-width:2.0;stroke-dasharray:-;stroke-linecap:round;stroke-linejoin:round;" /><path d="M 149.00000000000003 219.00000000000003 L 156.00000000000003 214.50000000000003 L 156.00000000000003 223.50000000000003 Z" style="stroke:blue;fill:blue;stroke-linecap:butt;stroke-linejoin:miter;" /><path d="M 165.0,192.00000000000003 L 165.0,216.0" style="stroke:blue;fill:none;stroke-width:2.0;stroke-dasharray:-;stroke-linecap:round;stroke-linejoin:round;" /><path d="M 165.0,204.0 L 180.0,204.0" style="stroke:blue;fill:none;stroke-width:2.0;stroke-dasharray:-;stroke-linecap:round;stroke-linejoin:round;" /><path d="M 147.00000000000003,234.0 L 147.00000000000003,243.0 L 147.00000000000003,252.0" style="stroke:blue;fill:none;stroke-width:2.0;stroke-dasharray:-;stroke-linecap:round;stroke-linejoin:round;" /><path d="M 147.00000000000003,252.0 L 250.5,252.0 L 353.99999999999994,252.0" style="stroke:blue;fill:none;stroke-width:2.0;stroke-dasharray:-;stroke-linecap:round;stroke-linejoin:round;" /><path d="M 198.0,204.0 L 198.0,189.0 L 198.0,174.00000000000003" style="stroke:blue;fill:none;stroke-width:2.0;stroke-dasharray:-;stroke-linecap:round;stroke-linejoin:round;" /><path d="M 198.0,174.00000000000003 L 172.5,174.00000000000003 L 147.00000000000003,174.00000000000003" style="stroke:blue;fill:none;stroke-width:2.0;stroke-dasharray:-;stroke-linecap:round;stroke-linejoin:round;" /><path d="M 248.99999999999997,174.00000000000003 L 248.99999999999997,105.00000000000001 L 248.99999999999997,105.00000000000001 M 248.99999999999997,69.00000000000001 L 248.99999999999997,69.00000000000001 L 248.99999999999997,-0.0" style="stroke:blue;fill:none;stroke-width:2.0;stroke-dasharray:-;stroke-linecap:round;stroke-linejoin:round;" /><path d="M 248.99999999999997,87.00000000000001 L 248.99999999999997,78.00000000000001" style="stroke:blue;fill:none;stroke-width:2.0;stroke-dasharray:-;stroke-linecap:round;stroke-linejoin:round;" /><path d="M 248.99999999999997 94.00000000000001 L 246.29999999999998 87.00000000000001 L 251.69999999999996 87.00000000000001 Z" style="stroke:blue;fill:blue;stroke-linecap:butt;stroke-linejoin:miter;" /><path d="M 147.00000000000003,174.00000000000003 L 147.00000000000003,105.00000000000001 L 147.00000000000003,105.00000000000001 M 147.00000000000003,69.00000000000001 L 147.00000000000003,69.00000000000001 L 147.00000000000003,-0.0" style="stroke:blue;fill:none;stroke-width:2.0;stroke-dasharray:-;stroke-linecap:round;stroke-linejoin:round;" /><path d="M 147.00000000000003,87.00000000000001 L 147.00000000000003,78.00000000000001" style="stroke:blue;fill:none;stroke-width:2.0;stroke-dasharray:-;stroke-linecap:round;stroke-linejoin:round;" /><path d="M 147.00000000000003 94.00000000000001 L 144.30000000000004 87.00000000000001 L 149.70000000000002 87.00000000000001 Z" style="stroke:blue;fill:blue;stroke-linecap:butt;stroke-linejoin:miter;" /><path d="M -18.0,-0.0 L 124.49999999999999,-0.0 L 267.0,-0.0" style="stroke:black;fill:none;stroke-width:3;stroke-dasharray:-;stroke-linecap:round;stroke-linejoin:round;" /><circle cx="-1.3226185430791413e-14" cy="72.0" r="2.6999999999999997" style="stroke:black;fill:black;stroke-width:2.0;stroke-dasharray:-;" /><g><g><g><path d="M -50.591 38.581 L -50.591 38.581 L -49.443 33.065 Q -49.317 32.519 -49.324 32.204 Q -49.331 31.889 -49.583 31.763 Q -49.835 31.637 -50.479 31.637 L -50.395 31.217 L -46.517 31.217 L -46.601 31.637 Q -47.217 31.637 -47.525 31.763 Q -47.833 31.889 -47.959 32.204 Q -48.085 32.519 -48.197 33.065 L -49.345 38.637 Q -49.387 38.861 -49.415 39.043 Q -49.443 39.225 -49.443 39.379 Q -49.443 39.771 -49.212 39.883 Q -48.981 39.995 -48.323 39.995 L -48.407 40.415 L -52.229 40.415 L -52.145 39.995 Q -51.571 39.995 -51.284 39.897 Q -50.997 39.799 -50.857 39.498 Q -50.717 39.197 -50.591 38.581 Z " fill="black" /><path d="M -44.469 36.035 L -44.469 36.035 L -44.469 39.073 L -44.42 39.073 Q -44.136 38.739 -43.749 38.475 Q -43.362 38.21 -42.813 38.21 Q -42.303 38.21 -41.887 38.519 Q -41.47 38.828 -41.22 39.372 Q -40.97 39.916 -40.97 40.621 Q -40.97 41.562 -41.313 42.199 Q -41.656 42.836 -42.249 43.154 Q -42.842 43.473 -43.597 43.473 Q -44.038 43.473 -44.41 43.399 Q -44.783 43.326 -45.042 43.228 Q -45.302 43.13 -45.42 43.081 L -45.42 37.201 Q -45.42 36.838 -45.498 36.735 Q -45.576 36.633 -45.91 36.633 Q -46.017 36.633 -46.111 36.647 Q -46.204 36.662 -46.204 36.662 L -46.204 36.29 L -44.871 36.035 Z M -44.469 39.582 L -44.469 39.582 L -44.469 42.522 Q -44.351 42.738 -44.097 42.865 Q -43.842 42.993 -43.42 42.993 Q -42.901 42.993 -42.587 42.713 Q -42.274 42.434 -42.132 41.969 Q -41.99 41.503 -41.99 40.954 Q -41.99 40.455 -42.102 39.999 Q -42.215 39.543 -42.499 39.259 Q -42.783 38.975 -43.283 38.975 Q -43.548 38.975 -43.788 39.078 Q -44.028 39.181 -44.204 39.323 Q -44.381 39.465 -44.469 39.582 Z " fill="black" /><path d="M -37.393 42.993 L -37.393 42.993 L -37.393 43.355 L -39.883 43.355 L -39.883 42.993 Q -39.54 42.993 -39.388 42.919 Q -39.236 42.846 -39.197 42.684 Q -39.157 42.522 -39.157 42.258 L -39.157 39.298 Q -39.157 38.965 -39.265 38.896 Q -39.373 38.828 -39.628 38.828 Q -39.755 38.828 -39.834 38.837 Q -39.912 38.847 -39.912 38.847 L -39.912 38.455 L -38.599 38.24 L -38.197 38.24 L -38.197 42.258 Q -38.197 42.542 -38.153 42.704 Q -38.109 42.865 -37.937 42.929 Q -37.766 42.993 -37.393 42.993 Z M -38.687 36.074 L -38.687 36.074 Q -38.403 36.074 -38.212 36.27 Q -38.021 36.466 -38.021 36.721 Q -38.021 36.956 -38.212 37.152 Q -38.403 37.348 -38.687 37.348 Q -38.961 37.348 -39.143 37.152 Q -39.324 36.956 -39.324 36.721 Q -39.324 36.466 -39.143 36.27 Q -38.961 36.074 -38.687 36.074 Z " fill="black" /><path d="M -33.473 42.738 L -33.473 42.738 L -33.542 42.738 Q -33.875 43.012 -34.277 43.218 Q -34.679 43.424 -35.149 43.424 Q -35.767 43.424 -36.095 43.051 Q -36.423 42.679 -36.423 42.15 Q -36.423 41.699 -36.213 41.395 Q -36.002 41.092 -35.664 40.9 Q -35.326 40.709 -34.934 40.592 Q -34.542 40.474 -34.179 40.406 Q -33.816 40.337 -33.571 40.278 L -33.571 39.769 Q -33.571 39.112 -33.831 38.862 Q -34.091 38.612 -34.591 38.612 Q -34.894 38.612 -35.027 38.691 Q -35.159 38.769 -35.193 38.945 Q -35.228 39.122 -35.237 39.406 Q -35.247 39.621 -35.365 39.754 Q -35.482 39.886 -35.708 39.886 Q -35.923 39.886 -36.075 39.754 Q -36.227 39.621 -36.227 39.367 Q -36.227 39.063 -35.992 38.798 Q -35.757 38.534 -35.321 38.372 Q -34.885 38.21 -34.297 38.21 Q -33.415 38.21 -33.018 38.617 Q -32.621 39.024 -32.621 39.837 L -32.621 42.238 Q -32.621 42.562 -32.547 42.655 Q -32.474 42.748 -32.317 42.748 Q -32.15 42.748 -32.028 42.679 Q -31.905 42.611 -31.798 42.483 L -31.582 42.689 Q -32.092 43.414 -32.778 43.414 Q -33.16 43.414 -33.302 43.233 Q -33.444 43.051 -33.473 42.738 Z M -33.571 42.375 L -33.571 42.375 L -33.571 40.651 Q -34.022 40.768 -34.453 40.91 Q -34.885 41.052 -35.164 41.297 Q -35.443 41.542 -35.443 41.983 Q -35.443 42.365 -35.223 42.586 Q -35.002 42.806 -34.659 42.806 Q -34.453 42.806 -34.164 42.713 Q -33.875 42.62 -33.571 42.375 Z " fill="black" /><path d="M -30.906 41.572 L -30.906 41.572 L -30.592 41.572 Q -30.465 42.14 -30.288 42.454 Q -30.112 42.767 -29.833 42.89 Q -29.553 43.012 -29.152 43.012 Q -28.691 43.012 -28.441 42.86 Q -28.191 42.709 -28.191 42.326 Q -28.191 42.072 -28.314 41.9 Q -28.436 41.728 -28.706 41.572 Q -28.975 41.415 -29.426 41.209 Q -29.887 40.984 -30.215 40.788 Q -30.543 40.592 -30.715 40.327 Q -30.886 40.062 -30.886 39.661 Q -30.886 38.955 -30.411 38.583 Q -29.936 38.21 -29.22 38.21 Q -28.789 38.21 -28.49 38.318 Q -28.191 38.426 -28.015 38.504 L -27.995 38.504 L -27.838 38.259 L -27.564 38.259 L -27.544 39.886 L -27.887 39.886 Q -28.074 39.132 -28.407 38.872 Q -28.74 38.612 -29.171 38.612 Q -29.622 38.612 -29.852 38.808 Q -30.083 39.004 -30.083 39.318 Q -30.083 39.572 -29.926 39.739 Q -29.769 39.906 -29.48 40.048 Q -29.191 40.19 -28.789 40.386 Q -28.338 40.602 -27.995 40.832 Q -27.652 41.062 -27.456 41.351 Q -27.26 41.64 -27.26 42.072 Q -27.26 42.591 -27.535 42.904 Q -27.809 43.218 -28.24 43.35 Q -28.671 43.483 -29.142 43.483 Q -29.622 43.483 -29.887 43.385 Q -30.151 43.287 -30.377 43.199 L -30.416 43.199 L -30.661 43.453 L -30.886 43.453 Z " fill="black" /><path d="M -22.537 43.355 L -22.537 43.355 L -25.859 43.355 L -25.859 43.002 Q -25.153 43.002 -24.923 42.86 Q -24.693 42.718 -24.693 42.346 L -24.693 38.073 Q -24.693 37.809 -24.771 37.691 Q -24.849 37.573 -25.055 37.573 Q -25.212 37.573 -25.482 37.617 Q -25.751 37.662 -25.947 37.711 L -25.947 37.319 L -24.134 36.819 L -23.713 36.819 L -23.713 42.346 Q -23.713 42.718 -23.463 42.86 Q -23.213 43.002 -22.537 43.002 Z " fill="black" /></g></g></g><circle cx="-2.6452370861582827e-14" cy="144.0" r="2.6999999999999997" style="stroke:black;fill:black;stroke-width:2.0;stroke-dasharray:-;" /><g><g><g><path d="M -13.3 106.683 L -13.3 106.683 Q -13.3 107.425 -13.58 107.929 Q -13.86 108.433 -14.308 108.755 Q -14.756 109.077 -15.267 109.252 Q -15.778 109.427 -16.24 109.511 L -16.24 109.581 Q -15.988 109.749 -15.764 110.092 Q -15.54 110.435 -15.211 111.079 Q -14.882 111.723 -14.308 112.815 Q -14.07 113.235 -13.783 113.382 Q -13.496 113.529 -13.02 113.529 L -13.104 113.949 L -15.232 113.949 Q -15.624 113.081 -15.89 112.5 Q -16.156 111.919 -16.352 111.527 Q -16.548 111.135 -16.695 110.827 Q -16.842 110.519 -17.01 110.197 Q -17.164 109.903 -17.346 109.812 Q -17.528 109.721 -17.906 109.721 L -18.2 109.721 L -18.718 112.213 Q -18.83 112.787 -18.795 113.074 Q -18.76 113.361 -18.48 113.445 Q -18.2 113.529 -17.598 113.529 L -17.668 113.949 L -21.532 113.949 L -21.448 113.529 Q -20.93 113.529 -20.65 113.445 Q -20.37 113.361 -20.223 113.081 Q -20.076 112.801 -19.964 112.213 L -18.732 106.207 Q -18.648 105.815 -18.69 105.591 Q -18.732 105.367 -18.977 105.269 Q -19.222 105.171 -19.782 105.171 L -19.698 104.751 L -16.408 104.751 Q -14.938 104.751 -14.119 105.206 Q -13.3 105.661 -13.3 106.683 Z M -17.318 105.339 L -17.318 105.339 L -18.102 109.203 L -17.668 109.217 Q -16.828 109.189 -16.149 108.944 Q -15.47 108.699 -15.078 108.167 Q -14.686 107.635 -14.686 106.739 Q -14.686 106.361 -14.847 106.032 Q -15.008 105.703 -15.4 105.5 Q -15.792 105.297 -16.492 105.297 Q -16.758 105.297 -16.919 105.304 Q -17.08 105.311 -17.318 105.339 Z " fill="black" /></g></g></g><g><g><g><path d="M -25.546 168.295 L -25.546 168.295 L -25.588 168.715 Q -26.092 168.729 -26.4 168.939 Q -26.708 169.149 -27.072 169.681 L -32 177.577 L -32.406 177.577 L -32.868 172.131 L -32.924 172.131 L -36.522 177.577 L -36.914 177.577 L -37.6 169.975 Q -37.656 169.289 -37.894 169.002 Q -38.132 168.715 -38.734 168.715 L -38.664 168.295 L -35.164 168.295 L -35.234 168.715 Q -35.836 168.715 -36.074 168.834 Q -36.312 168.953 -36.34 169.233 Q -36.34 169.261 -36.34 169.317 Q -36.34 169.429 -36.34 169.59 Q -36.34 169.751 -36.312 169.947 L -35.948 173.895 L -35.878 175.239 L -35.794 175.239 L -32.966 171.137 L -33.064 170.031 Q -33.12 169.429 -33.211 169.149 Q -33.302 168.869 -33.505 168.792 Q -33.708 168.715 -34.114 168.715 L -34.044 168.295 L -30.474 168.295 L -30.544 168.715 Q -31.314 168.715 -31.573 168.967 Q -31.832 169.219 -31.776 170.003 L -31.44 173.783 L -31.384 175.211 L -31.314 175.211 L -28.332 170.521 Q -28.108 170.171 -27.912 169.793 Q -27.716 169.415 -27.716 169.107 Q -27.716 168.897 -27.87 168.806 Q -28.024 168.715 -28.486 168.715 L -28.402 168.295 Z " fill="black" /><path d="M -21.678 178.728 L -21.678 178.728 L -22.011 180.433 L -26.029 180.433 L -26.029 179.953 L -24.638 178.542 Q -24.089 177.993 -23.731 177.571 Q -23.374 177.15 -23.197 176.724 Q -23.021 176.297 -23.021 175.749 Q -23.021 175.229 -23.339 174.891 Q -23.658 174.553 -24.236 174.553 Q -24.765 174.553 -25.123 174.764 Q -25.481 174.974 -25.755 175.455 L -26.02 175.327 Q -25.775 174.641 -25.26 174.249 Q -24.746 173.857 -23.991 173.857 Q -23.403 173.857 -22.952 174.068 Q -22.501 174.279 -22.247 174.671 Q -21.992 175.063 -21.992 175.621 Q -21.992 176.101 -22.207 176.523 Q -22.423 176.944 -22.82 177.385 Q -23.217 177.826 -23.766 178.365 L -24.991 179.551 L -24.991 179.62 L -24.226 179.58 L -22.952 179.58 Q -22.668 179.58 -22.516 179.502 Q -22.364 179.424 -22.256 179.232 Q -22.149 179.041 -22.021 178.728 Z " fill="black" /><path d="M -16.421 167.567 L -16.421 167.567 L -20.061 178.739 L -20.845 178.739 L -17.191 167.567 Z " fill="black" /><path d="M -8.175 174.763 L -8.175 174.763 L -9.015 177.493 L -15.931 177.493 L -15.847 177.073 Q -15.301 177.073 -15.014 176.975 Q -14.727 176.877 -14.573 176.597 Q -14.419 176.317 -14.307 175.757 L -13.103 169.919 Q -13.005 169.457 -13.033 169.191 Q -13.061 168.925 -13.32 168.82 Q -13.579 168.715 -14.181 168.715 L -14.097 168.295 L -10.121 168.295 L -10.191 168.715 Q -10.947 168.715 -11.325 168.946 Q -11.703 169.177 -11.857 169.933 L -13.131 176.205 Q -13.229 176.667 -13.033 176.814 Q -12.837 176.961 -12.221 176.961 L -11.563 176.961 Q -10.891 176.961 -10.471 176.842 Q -10.051 176.723 -9.757 176.471 Q -9.463 176.219 -9.204 175.792 Q -8.945 175.365 -8.623 174.763 Z " fill="black" /><path d="M -2.991 178.728 L -2.991 178.728 L -3.324 180.433 L -7.342 180.433 L -7.342 179.953 L -5.951 178.542 Q -5.402 177.993 -5.044 177.571 Q -4.686 177.15 -4.51 176.724 Q -4.334 176.297 -4.334 175.749 Q -4.334 175.229 -4.652 174.891 Q -4.971 174.553 -5.549 174.553 Q -6.078 174.553 -6.436 174.764 Q -6.793 174.974 -7.068 175.455 L -7.332 175.327 Q -7.087 174.641 -6.573 174.249 Q -6.058 173.857 -5.304 173.857 Q -4.716 173.857 -4.265 174.068 Q -3.814 174.279 -3.559 174.671 Q -3.305 175.063 -3.305 175.621 Q -3.305 176.101 -3.52 176.523 Q -3.736 176.944 -4.133 177.385 Q -4.53 177.826 -5.078 178.365 L -6.303 179.551 L -6.303 179.62 L -5.539 179.58 L -4.265 179.58 Q -3.981 179.58 -3.829 179.502 Q -3.677 179.424 -3.569 179.232 Q -3.461 179.041 -3.334 178.728 Z " fill="black" /></g></g></g><g><g><g><path d="M -25.252 300.295 L -25.252 300.295 L -25.294 300.715 Q -25.798 300.729 -26.106 300.939 Q -26.414 301.149 -26.778 301.681 L -31.706 309.577 L -32.112 309.577 L -32.574 304.131 L -32.63 304.131 L -36.228 309.577 L -36.62 309.577 L -37.306 301.975 Q -37.362 301.289 -37.6 301.002 Q -37.838 300.715 -38.44 300.715 L -38.37 300.295 L -34.87 300.295 L -34.94 300.715 Q -35.542 300.715 -35.78 300.834 Q -36.018 300.953 -36.046 301.233 Q -36.046 301.261 -36.046 301.317 Q -36.046 301.429 -36.046 301.59 Q -36.046 301.751 -36.018 301.947 L -35.654 305.895 L -35.584 307.239 L -35.5 307.239 L -32.672 303.137 L -32.77 302.031 Q -32.826 301.429 -32.917 301.149 Q -33.008 300.869 -33.211 300.792 Q -33.414 300.715 -33.82 300.715 L -33.75 300.295 L -30.18 300.295 L -30.25 300.715 Q -31.02 300.715 -31.279 300.967 Q -31.538 301.219 -31.482 302.003 L -31.146 305.783 L -31.09 307.211 L -31.02 307.211 L -28.038 302.521 Q -27.814 302.171 -27.618 301.793 Q -27.422 301.415 -27.422 301.107 Q -27.422 300.897 -27.576 300.806 Q -27.73 300.715 -28.192 300.715 L -28.108 300.295 Z " fill="black" /><path d="M -21.943 312.433 L -21.943 312.433 L -25.265 312.433 L -25.265 312.08 Q -24.559 312.08 -24.329 311.938 Q -24.099 311.796 -24.099 311.424 L -24.099 307.151 Q -24.099 306.886 -24.177 306.769 Q -24.256 306.651 -24.461 306.651 Q -24.618 306.651 -24.888 306.695 Q -25.157 306.739 -25.353 306.788 L -25.353 306.396 L -23.54 305.896 L -23.119 305.896 L -23.119 311.424 Q -23.119 311.796 -22.869 311.938 Q -22.619 312.08 -21.943 312.08 Z " fill="black" /><path d="M -16.274 299.567 L -16.274 299.567 L -19.914 310.739 L -20.698 310.739 L -17.044 299.567 Z " fill="black" /><path d="M -8.028 306.763 L -8.028 306.763 L -8.868 309.493 L -15.784 309.493 L -15.7 309.073 Q -15.154 309.073 -14.867 308.975 Q -14.58 308.877 -14.426 308.597 Q -14.272 308.317 -14.16 307.757 L -12.956 301.919 Q -12.858 301.457 -12.886 301.191 Q -12.914 300.925 -13.173 300.82 Q -13.432 300.715 -14.034 300.715 L -13.95 300.295 L -9.974 300.295 L -10.044 300.715 Q -10.8 300.715 -11.178 300.946 Q -11.556 301.177 -11.71 301.933 L -12.984 308.205 Q -13.082 308.667 -12.886 308.814 Q -12.69 308.961 -12.074 308.961 L -11.416 308.961 Q -10.744 308.961 -10.324 308.842 Q -9.904 308.723 -9.61 308.471 Q -9.316 308.219 -9.057 307.792 Q -8.798 307.365 -8.476 306.763 Z " fill="black" /><path d="M -3.403 312.433 L -3.403 312.433 L -6.725 312.433 L -6.725 312.08 Q -6.019 312.08 -5.789 311.938 Q -5.559 311.796 -5.559 311.424 L -5.559 307.151 Q -5.559 306.886 -5.637 306.769 Q -5.715 306.651 -5.921 306.651 Q -6.078 306.651 -6.348 306.695 Q -6.617 306.739 -6.813 306.788 L -6.813 306.396 L -5 305.896 L -4.579 305.896 L -4.579 311.424 Q -4.579 311.796 -4.329 311.938 Q -4.079 312.08 -3.403 312.08 Z " fill="black" /></g></g></g><circle cx="50.99999999999996" cy="306.0" r="2.6999999999999997" style="stroke:black;fill:black;stroke-width:2.0;stroke-dasharray:-;" /><g><g><g><path d="M 371.583 299.623 L 371.583 299.623 L 370.337 306.161 L 370.407 306.161 L 372.591 304.187 Q 372.745 304.061 372.836 303.935 Q 372.927 303.809 372.927 303.669 Q 372.927 303.445 372.738 303.375 Q 372.549 303.305 372.297 303.305 L 372.339 302.955 L 375.349 302.955 L 375.307 303.305 Q 374.593 303.319 374.201 303.571 Q 373.809 303.823 373.459 304.145 L 371.905 305.517 L 372.941 307.925 Q 373.095 308.275 373.242 308.478 Q 373.389 308.681 373.697 308.681 Q 374.061 308.681 374.32 308.436 Q 374.579 308.191 374.803 307.869 L 375.097 308.065 Q 375.041 308.163 374.887 308.415 Q 374.733 308.667 374.481 308.947 Q 374.229 309.227 373.9 309.43 Q 373.571 309.633 373.165 309.633 Q 372.815 309.633 372.591 309.465 Q 372.367 309.297 372.234 309.045 Q 372.101 308.793 371.989 308.541 L 371.023 306.203 L 370.211 306.917 L 369.721 309.493 L 368.573 309.493 L 370.225 300.981 Q 370.225 300.981 370.246 300.841 Q 370.267 300.701 370.267 300.561 Q 370.267 300.113 369.777 300.113 Q 369.651 300.113 369.497 300.127 Q 369.343 300.141 369.343 300.141 L 369.343 299.777 L 371.275 299.623 Z " fill="black" /><path d="M 381.371 305.923 L 381.371 305.923 Q 381.371 306.245 381.154 306.483 Q 380.937 306.721 380.531 306.721 Q 380.125 306.721 379.922 306.49 Q 379.719 306.259 379.719 305.909 Q 379.719 305.559 379.936 305.307 Q 380.153 305.055 380.545 305.055 Q 380.951 305.055 381.161 305.314 Q 381.371 305.573 381.371 305.923 Z " fill="black" /><path d="M 399.77 300.295 L 399.77 300.295 L 399.728 300.715 Q 399.224 300.729 398.916 300.939 Q 398.608 301.149 398.244 301.681 L 393.316 309.577 L 392.91 309.577 L 392.448 304.131 L 392.392 304.131 L 388.794 309.577 L 388.402 309.577 L 387.716 301.975 Q 387.66 301.289 387.422 301.002 Q 387.184 300.715 386.582 300.715 L 386.652 300.295 L 390.152 300.295 L 390.082 300.715 Q 389.48 300.715 389.242 300.834 Q 389.004 300.953 388.976 301.233 Q 388.976 301.261 388.976 301.317 Q 388.976 301.429 388.976 301.59 Q 388.976 301.751 389.004 301.947 L 389.368 305.895 L 389.438 307.239 L 389.522 307.239 L 392.35 303.137 L 392.252 302.031 Q 392.196 301.429 392.105 301.149 Q 392.014 300.869 391.811 300.792 Q 391.608 300.715 391.202 300.715 L 391.272 300.295 L 394.842 300.295 L 394.772 300.715 Q 394.002 300.715 393.743 300.967 Q 393.484 301.219 393.54 302.003 L 393.876 305.783 L 393.932 307.211 L 394.002 307.211 L 396.984 302.521 Q 397.208 302.171 397.404 301.793 Q 397.6 301.415 397.6 301.107 Q 397.6 300.897 397.446 300.806 Q 397.292 300.715 396.83 300.715 L 396.914 300.295 Z " fill="black" /><path d="M 403.079 312.433 L 403.079 312.433 L 399.757 312.433 L 399.757 312.08 Q 400.463 312.08 400.693 311.938 Q 400.923 311.796 400.923 311.424 L 400.923 307.151 Q 400.923 306.886 400.845 306.769 Q 400.766 306.651 400.561 306.651 Q 400.404 306.651 400.134 306.695 Q 399.865 306.739 399.669 306.788 L 399.669 306.396 L 401.482 305.896 L 401.903 305.896 L 401.903 311.424 Q 401.903 311.796 402.153 311.938 Q 402.403 312.08 403.079 312.08 Z " fill="black" /><path d="M 408.748 299.567 L 408.748 299.567 L 405.108 310.739 L 404.324 310.739 L 407.978 299.567 Z " fill="black" /><path d="M 416.994 306.763 L 416.994 306.763 L 416.154 309.493 L 409.238 309.493 L 409.322 309.073 Q 409.868 309.073 410.155 308.975 Q 410.442 308.877 410.596 308.597 Q 410.75 308.317 410.862 307.757 L 412.066 301.919 Q 412.164 301.457 412.136 301.191 Q 412.108 300.925 411.849 300.82 Q 411.59 300.715 410.988 300.715 L 411.072 300.295 L 415.048 300.295 L 414.978 300.715 Q 414.222 300.715 413.844 300.946 Q 413.466 301.177 413.312 301.933 L 412.038 308.205 Q 411.94 308.667 412.136 308.814 Q 412.332 308.961 412.948 308.961 L 413.606 308.961 Q 414.278 308.961 414.698 308.842 Q 415.118 308.723 415.412 308.471 Q 415.706 308.219 415.965 307.792 Q 416.224 307.365 416.546 306.763 Z " fill="black" /><path d="M 421.619 312.433 L 421.619 312.433 L 418.297 312.433 L 418.297 312.08 Q 419.003 312.08 419.233 311.938 Q 419.463 311.796 419.463 311.424 L 419.463 307.151 Q 419.463 306.886 419.385 306.769 Q 419.307 306.651 419.101 306.651 Q 418.944 306.651 418.674 306.695 Q 418.405 306.739 418.209 306.788 L 418.209 306.396 L 420.022 305.896 L 420.443 305.896 L 420.443 311.424 Q 420.443 311.796 420.693 311.938 Q 420.943 312.08 421.619 312.08 Z " fill="black" /></g></g></g><g><g><g><path d="M 371.289 167.623 L 371.289 167.623 L 370.043 174.161 L 370.113 174.161 L 372.297 172.187 Q 372.451 172.061 372.542 171.935 Q 372.633 171.809 372.633 171.669 Q 372.633 171.445 372.444 171.375 Q 372.255 171.305 372.003 171.305 L 372.045 170.955 L 375.055 170.955 L 375.013 171.305 Q 374.299 171.319 373.907 171.571 Q 373.515 171.823 373.165 172.145 L 371.611 173.517 L 372.647 175.925 Q 372.801 176.275 372.948 176.478 Q 373.095 176.681 373.403 176.681 Q 373.767 176.681 374.026 176.436 Q 374.285 176.191 374.509 175.869 L 374.803 176.065 Q 374.747 176.163 374.593 176.415 Q 374.439 176.667 374.187 176.947 Q 373.935 177.227 373.606 177.43 Q 373.277 177.633 372.871 177.633 Q 372.521 177.633 372.297 177.465 Q 372.073 177.297 371.94 177.045 Q 371.807 176.793 371.695 176.541 L 370.729 174.203 L 369.917 174.917 L 369.427 177.493 L 368.279 177.493 L 369.931 168.981 Q 369.931 168.981 369.952 168.841 Q 369.973 168.701 369.973 168.561 Q 369.973 168.113 369.483 168.113 Q 369.357 168.113 369.203 168.127 Q 369.049 168.141 369.049 168.141 L 369.049 167.777 L 370.981 167.623 Z " fill="black" /><path d="M 381.077 173.923 L 381.077 173.923 Q 381.077 174.245 380.86 174.483 Q 380.643 174.721 380.237 174.721 Q 379.831 174.721 379.628 174.49 Q 379.425 174.259 379.425 173.909 Q 379.425 173.559 379.642 173.307 Q 379.859 173.055 380.251 173.055 Q 380.657 173.055 380.867 173.314 Q 381.077 173.573 381.077 173.923 Z " fill="black" /><path d="M 399.476 168.295 L 399.476 168.295 L 399.434 168.715 Q 398.93 168.729 398.622 168.939 Q 398.314 169.149 397.95 169.681 L 393.022 177.577 L 392.616 177.577 L 392.154 172.131 L 392.098 172.131 L 388.5 177.577 L 388.108 177.577 L 387.422 169.975 Q 387.366 169.289 387.128 169.002 Q 386.89 168.715 386.288 168.715 L 386.358 168.295 L 389.858 168.295 L 389.788 168.715 Q 389.186 168.715 388.948 168.834 Q 388.71 168.953 388.682 169.233 Q 388.682 169.261 388.682 169.317 Q 388.682 169.429 388.682 169.59 Q 388.682 169.751 388.71 169.947 L 389.074 173.895 L 389.144 175.239 L 389.228 175.239 L 392.056 171.137 L 391.958 170.031 Q 391.902 169.429 391.811 169.149 Q 391.72 168.869 391.517 168.792 Q 391.314 168.715 390.908 168.715 L 390.978 168.295 L 394.548 168.295 L 394.478 168.715 Q 393.708 168.715 393.449 168.967 Q 393.19 169.219 393.246 170.003 L 393.582 173.783 L 393.638 175.211 L 393.708 175.211 L 396.69 170.521 Q 396.914 170.171 397.11 169.793 Q 397.306 169.415 397.306 169.107 Q 397.306 168.897 397.152 168.806 Q 396.998 168.715 396.536 168.715 L 396.62 168.295 Z " fill="black" /><path d="M 403.344 178.728 L 403.344 178.728 L 403.011 180.433 L 398.993 180.433 L 398.993 179.953 L 400.384 178.542 Q 400.933 177.993 401.291 177.571 Q 401.648 177.15 401.825 176.724 Q 402.001 176.297 402.001 175.749 Q 402.001 175.229 401.683 174.891 Q 401.364 174.553 400.786 174.553 Q 400.257 174.553 399.899 174.764 Q 399.541 174.974 399.267 175.455 L 399.002 175.327 Q 399.247 174.641 399.762 174.249 Q 400.276 173.857 401.031 173.857 Q 401.619 173.857 402.07 174.068 Q 402.521 174.279 402.775 174.671 Q 403.03 175.063 403.03 175.621 Q 403.03 176.101 402.815 176.523 Q 402.599 176.944 402.202 177.385 Q 401.805 177.826 401.256 178.365 L 400.031 179.551 L 400.031 179.62 L 400.796 179.58 L 402.07 179.58 Q 402.354 179.58 402.506 179.502 Q 402.658 179.424 402.766 179.233 Q 402.873 179.041 403.001 178.728 Z " fill="black" /><path d="M 408.601 167.567 L 408.601 167.567 L 404.961 178.739 L 404.177 178.739 L 407.831 167.567 Z " fill="black" /><path d="M 416.847 174.763 L 416.847 174.763 L 416.007 177.493 L 409.091 177.493 L 409.175 177.073 Q 409.721 177.073 410.008 176.975 Q 410.295 176.877 410.449 176.597 Q 410.603 176.317 410.715 175.757 L 411.919 169.919 Q 412.017 169.457 411.989 169.191 Q 411.961 168.925 411.702 168.82 Q 411.443 168.715 410.841 168.715 L 410.925 168.295 L 414.901 168.295 L 414.831 168.715 Q 414.075 168.715 413.697 168.946 Q 413.319 169.177 413.165 169.933 L 411.891 176.205 Q 411.793 176.667 411.989 176.814 Q 412.185 176.961 412.801 176.961 L 413.459 176.961 Q 414.131 176.961 414.551 176.842 Q 414.971 176.723 415.265 176.471 Q 415.559 176.219 415.818 175.792 Q 416.077 175.365 416.399 174.763 Z " fill="black" /><path d="M 422.031 178.728 L 422.031 178.728 L 421.698 180.433 L 417.68 180.433 L 417.68 179.953 L 419.071 178.542 Q 419.62 177.993 419.978 177.571 Q 420.336 177.15 420.512 176.724 Q 420.688 176.297 420.688 175.749 Q 420.688 175.229 420.37 174.891 Q 420.051 174.553 419.473 174.553 Q 418.944 174.553 418.586 174.764 Q 418.229 174.974 417.954 175.455 L 417.69 175.327 Q 417.935 174.641 418.449 174.249 Q 418.964 173.857 419.718 173.857 Q 420.306 173.857 420.757 174.068 Q 421.208 174.279 421.463 174.671 Q 421.717 175.063 421.717 175.621 Q 421.717 176.101 421.502 176.523 Q 421.286 176.944 420.889 177.385 Q 420.492 177.826 419.944 178.365 L 418.719 179.551 L 418.719 179.62 L 419.483 179.58 L 420.757 179.58 Q 421.041 179.58 421.193 179.502 Q 421.345 179.424 421.453 179.233 Q 421.561 179.041 421.688 178.728 Z " fill="black" /></g></g></g><circle cx="353.99999999999994" cy="72.0" r="2.6999999999999997" style="stroke:black;fill:white;stroke-width:2.0;stroke-dasharray:-;" /><g><g><g><path d="M 310.216 60.799 L 310.216 60.799 L 311.364 55.283 Q 311.49 54.737 311.483 54.422 Q 311.476 54.107 311.224 53.981 Q 310.972 53.855 310.328 53.855 L 310.412 53.435 L 314.29 53.435 L 314.206 53.855 Q 313.59 53.855 313.282 53.981 Q 312.974 54.107 312.848 54.422 Q 312.722 54.737 312.61 55.283 L 311.462 60.855 Q 311.42 61.079 311.392 61.261 Q 311.364 61.443 311.364 61.597 Q 311.364 61.989 311.595 62.101 Q 311.826 62.213 312.484 62.213 L 312.4 62.633 L 308.578 62.633 L 308.662 62.213 Q 309.236 62.213 309.523 62.115 Q 309.81 62.017 309.95 61.716 Q 310.09 61.415 310.216 60.799 Z " fill="black" /><path d="M 317.318 60.428 L 317.318 60.428 Q 318.053 60.428 318.602 60.746 Q 319.151 61.065 319.449 61.638 Q 319.748 62.211 319.748 62.985 Q 319.748 63.916 319.435 64.514 Q 319.121 65.112 318.572 65.401 Q 318.024 65.69 317.318 65.69 Q 316.603 65.69 316.049 65.391 Q 315.495 65.092 315.186 64.495 Q 314.878 63.897 314.878 62.995 Q 314.878 62.231 315.182 61.653 Q 315.485 61.074 316.034 60.751 Q 316.583 60.428 317.318 60.428 Z M 317.298 60.878 L 317.298 60.878 Q 316.652 60.878 316.284 61.403 Q 315.917 61.927 315.917 62.936 Q 315.917 64.181 316.294 64.696 Q 316.671 65.21 317.347 65.21 Q 317.779 65.2 318.082 64.994 Q 318.386 64.789 318.548 64.304 Q 318.71 63.818 318.71 62.985 Q 318.71 61.986 318.367 61.432 Q 318.024 60.878 317.298 60.878 Z " fill="black" /><path d="M 326.412 65.073 L 326.412 65.073 L 326.412 65.445 L 325.089 65.622 L 324.776 65.622 L 324.776 64.857 L 324.678 64.857 Q 324.305 65.19 323.923 65.431 Q 323.541 65.671 323.002 65.671 Q 322.277 65.671 321.895 65.23 Q 321.512 64.789 321.512 63.701 L 321.512 61.594 Q 321.512 61.192 321.37 61.099 Q 321.228 61.006 320.777 61.006 L 320.777 60.653 L 322.14 60.467 L 322.463 60.467 L 322.463 63.573 Q 322.463 64.122 322.59 64.426 Q 322.718 64.73 322.933 64.847 Q 323.149 64.965 323.404 64.965 Q 323.835 64.965 324.124 64.784 Q 324.413 64.602 324.727 64.348 L 324.727 61.594 Q 324.727 61.192 324.55 61.099 Q 324.374 61.006 323.874 61.006 L 323.874 60.653 L 325.334 60.467 L 325.677 60.467 L 325.677 64.436 Q 325.677 64.73 325.731 64.867 Q 325.785 65.004 325.922 65.039 Q 326.06 65.073 326.305 65.073 Z " fill="black" /><path d="M 330.234 64.593 L 330.234 64.593 L 330.46 64.779 Q 330.244 65.073 330.068 65.274 Q 329.891 65.475 329.666 65.582 Q 329.441 65.69 329.088 65.69 Q 328.519 65.69 328.26 65.367 Q 328 65.043 328 64.328 L 328 61.035 L 327.383 61.035 L 327.383 60.741 Q 327.735 60.486 328.029 60.119 Q 328.323 59.751 328.617 59.065 L 328.96 59.065 L 328.951 60.555 L 330.195 60.555 L 330.195 61.035 L 328.951 61.035 L 328.951 64.005 Q 328.951 64.553 329.053 64.784 Q 329.156 65.014 329.47 65.014 Q 329.754 65.014 329.901 64.911 Q 330.048 64.808 330.234 64.593 Z " fill="black" /><path d="M 345.11 58.055 L 345.11 58.055 L 336.766 58.055 L 336.766 57.103 L 345.11 57.103 Z M 345.11 60.911 L 345.11 60.911 L 336.766 60.911 L 336.766 59.973 L 345.11 59.973 Z " fill="black" /><path d="M 354.746 52.763 L 354.746 52.763 L 353.5 59.301 L 353.57 59.301 L 355.754 57.327 Q 355.908 57.201 355.999 57.075 Q 356.09 56.949 356.09 56.809 Q 356.09 56.585 355.901 56.515 Q 355.712 56.445 355.46 56.445 L 355.502 56.095 L 358.512 56.095 L 358.47 56.445 Q 357.756 56.459 357.364 56.711 Q 356.972 56.963 356.622 57.285 L 355.068 58.657 L 356.104 61.065 Q 356.258 61.415 356.405 61.618 Q 356.552 61.821 356.86 61.821 Q 357.224 61.821 357.483 61.576 Q 357.742 61.331 357.966 61.009 L 358.26 61.205 Q 358.204 61.303 358.05 61.555 Q 357.896 61.807 357.644 62.087 Q 357.392 62.367 357.063 62.57 Q 356.734 62.773 356.328 62.773 Q 355.978 62.773 355.754 62.605 Q 355.53 62.437 355.397 62.185 Q 355.264 61.933 355.152 61.681 L 354.186 59.343 L 353.374 60.057 L 352.884 62.633 L 351.736 62.633 L 353.388 54.121 Q 353.388 54.121 353.409 53.981 Q 353.43 53.841 353.43 53.701 Q 353.43 53.253 352.94 53.253 Q 352.814 53.253 352.66 53.267 Q 352.506 53.281 352.506 53.281 L 352.506 52.917 L 354.438 52.763 Z " fill="black" /><path d="M 364.535 59.063 L 364.535 59.063 Q 364.535 59.385 364.318 59.623 Q 364.101 59.861 363.695 59.861 Q 363.289 59.861 363.086 59.63 Q 362.883 59.399 362.883 59.049 Q 362.883 58.699 363.1 58.447 Q 363.317 58.195 363.709 58.195 Q 364.115 58.195 364.325 58.454 Q 364.535 58.713 364.535 59.063 Z " fill="black" /><path d="M 370.431 60.799 L 370.431 60.799 L 371.579 55.283 Q 371.705 54.737 371.698 54.422 Q 371.691 54.107 371.439 53.981 Q 371.187 53.855 370.543 53.855 L 370.627 53.435 L 374.505 53.435 L 374.421 53.855 Q 373.805 53.855 373.497 53.981 Q 373.189 54.107 373.063 54.422 Q 372.937 54.737 372.825 55.283 L 371.677 60.855 Q 371.635 61.079 371.607 61.261 Q 371.579 61.443 371.579 61.597 Q 371.579 61.989 371.81 62.101 Q 372.041 62.213 372.699 62.213 L 372.615 62.633 L 368.793 62.633 L 368.877 62.213 Q 369.451 62.213 369.738 62.115 Q 370.025 62.017 370.165 61.716 Q 370.305 61.415 370.431 60.799 Z " fill="black" /><path d="M 376.553 58.252 L 376.553 58.252 L 376.553 61.29 L 376.602 61.29 Q 376.886 60.957 377.274 60.692 Q 377.661 60.428 378.209 60.428 Q 378.719 60.428 379.136 60.736 Q 379.552 61.045 379.802 61.589 Q 380.052 62.133 380.052 62.838 Q 380.052 63.779 379.709 64.416 Q 379.366 65.053 378.773 65.372 Q 378.18 65.69 377.425 65.69 Q 376.984 65.69 376.612 65.617 Q 376.24 65.543 375.98 65.445 Q 375.72 65.347 375.603 65.298 L 375.603 59.418 Q 375.603 59.056 375.524 58.953 Q 375.446 58.85 375.113 58.85 Q 375.005 58.85 374.912 58.865 Q 374.819 58.879 374.819 58.879 L 374.819 58.507 L 376.151 58.252 Z M 376.553 61.8 L 376.553 61.8 L 376.553 64.74 Q 376.671 64.955 376.926 65.083 Q 377.18 65.21 377.602 65.21 Q 378.121 65.21 378.435 64.931 Q 378.748 64.651 378.891 64.186 Q 379.033 63.72 379.033 63.172 Q 379.033 62.672 378.92 62.216 Q 378.807 61.76 378.523 61.476 Q 378.239 61.192 377.739 61.192 Q 377.474 61.192 377.234 61.295 Q 376.994 61.398 376.818 61.54 Q 376.641 61.682 376.553 61.8 Z " fill="black" /><path d="M 383.629 65.21 L 383.629 65.21 L 383.629 65.573 L 381.14 65.573 L 381.14 65.21 Q 381.483 65.21 381.635 65.137 Q 381.786 65.063 381.826 64.901 Q 381.865 64.74 381.865 64.475 L 381.865 61.515 Q 381.865 61.182 381.757 61.114 Q 381.649 61.045 381.394 61.045 Q 381.267 61.045 381.189 61.055 Q 381.11 61.065 381.11 61.065 L 381.11 60.673 L 382.423 60.457 L 382.825 60.457 L 382.825 64.475 Q 382.825 64.759 382.869 64.921 Q 382.913 65.083 383.085 65.146 Q 383.256 65.21 383.629 65.21 Z M 382.335 58.291 L 382.335 58.291 Q 382.619 58.291 382.811 58.487 Q 383.002 58.683 383.002 58.938 Q 383.002 59.173 382.811 59.369 Q 382.619 59.565 382.335 59.565 Q 382.061 59.565 381.88 59.369 Q 381.698 59.173 381.698 58.938 Q 381.698 58.683 381.88 58.487 Q 382.061 58.291 382.335 58.291 Z " fill="black" /><path d="M 387.549 64.955 L 387.549 64.955 L 387.48 64.955 Q 387.147 65.23 386.745 65.435 Q 386.343 65.641 385.873 65.641 Q 385.256 65.641 384.927 65.269 Q 384.599 64.896 384.599 64.367 Q 384.599 63.916 384.81 63.613 Q 385.02 63.309 385.359 63.118 Q 385.697 62.927 386.089 62.809 Q 386.481 62.691 386.843 62.623 Q 387.206 62.554 387.451 62.495 L 387.451 61.986 Q 387.451 61.329 387.191 61.079 Q 386.931 60.829 386.432 60.829 Q 386.128 60.829 385.996 60.908 Q 385.863 60.986 385.829 61.163 Q 385.795 61.339 385.785 61.623 Q 385.775 61.839 385.657 61.971 Q 385.54 62.103 385.314 62.103 Q 385.099 62.103 384.947 61.971 Q 384.795 61.839 384.795 61.584 Q 384.795 61.28 385.03 61.016 Q 385.265 60.751 385.702 60.589 Q 386.138 60.428 386.726 60.428 Q 387.608 60.428 388.005 60.834 Q 388.401 61.241 388.401 62.054 L 388.401 64.455 Q 388.401 64.779 388.475 64.872 Q 388.548 64.965 388.705 64.965 Q 388.872 64.965 388.994 64.896 Q 389.117 64.828 389.225 64.7 L 389.44 64.906 Q 388.931 65.631 388.245 65.631 Q 387.862 65.631 387.72 65.45 Q 387.578 65.269 387.549 64.955 Z M 387.451 64.593 L 387.451 64.593 L 387.451 62.868 Q 387 62.985 386.569 63.128 Q 386.138 63.27 385.858 63.515 Q 385.579 63.76 385.579 64.201 Q 385.579 64.583 385.8 64.803 Q 386.02 65.024 386.363 65.024 Q 386.569 65.024 386.858 64.931 Q 387.147 64.838 387.451 64.593 Z " fill="black" /><path d="M 390.116 63.789 L 390.116 63.789 L 390.43 63.789 Q 390.557 64.357 390.734 64.671 Q 390.91 64.985 391.19 65.107 Q 391.469 65.23 391.871 65.23 Q 392.331 65.23 392.581 65.078 Q 392.831 64.926 392.831 64.544 Q 392.831 64.289 392.709 64.117 Q 392.586 63.946 392.317 63.789 Q 392.047 63.632 391.596 63.426 Q 391.136 63.201 390.807 63.005 Q 390.479 62.809 390.308 62.544 Q 390.136 62.28 390.136 61.878 Q 390.136 61.172 390.611 60.8 Q 391.087 60.428 391.802 60.428 Q 392.233 60.428 392.532 60.535 Q 392.831 60.643 393.007 60.722 L 393.027 60.722 L 393.184 60.477 L 393.458 60.477 L 393.478 62.103 L 393.135 62.103 Q 392.949 61.349 392.615 61.089 Q 392.282 60.829 391.851 60.829 Q 391.4 60.829 391.17 61.025 Q 390.94 61.221 390.94 61.535 Q 390.94 61.79 391.096 61.956 Q 391.253 62.123 391.542 62.265 Q 391.831 62.407 392.233 62.603 Q 392.684 62.819 393.027 63.049 Q 393.37 63.279 393.566 63.569 Q 393.762 63.858 393.762 64.289 Q 393.762 64.808 393.488 65.122 Q 393.213 65.435 392.782 65.568 Q 392.351 65.7 391.88 65.7 Q 391.4 65.7 391.136 65.602 Q 390.871 65.504 390.646 65.416 L 390.606 65.416 L 390.361 65.671 L 390.136 65.671 Z " fill="black" /><path d="M 398.486 65.573 L 398.486 65.573 L 395.163 65.573 L 395.163 65.22 Q 395.869 65.22 396.099 65.078 Q 396.33 64.936 396.33 64.563 L 396.33 60.29 Q 396.33 60.026 396.251 59.908 Q 396.173 59.791 395.967 59.791 Q 395.81 59.791 395.541 59.835 Q 395.271 59.879 395.075 59.928 L 395.075 59.536 L 396.888 59.036 L 397.31 59.036 L 397.31 64.563 Q 397.31 64.936 397.56 65.078 Q 397.809 65.22 398.486 65.22 Z " fill="black" /></g></g></g><circle cx="248.99999999999997" cy="174.00000000000003" r="2.6999999999999997" style="stroke:blue;fill:blue;stroke-width:2.0;stroke-dasharray:-;" /><circle cx="-3.197442310920451e-14" cy="269.99999999999994" r="2.6999999999999997" style="stroke:blue;fill:blue;stroke-width:2.0;stroke-dasharray:-;" /><circle cx="198.0" cy="204.0" r="2.6999999999999997" style="stroke:blue;fill:blue;stroke-width:2.0;stroke-dasharray:-;" /><circle cx="353.99999999999994" cy="252.0" r="2.6999999999999997" style="stroke:blue;fill:blue;stroke-width:2.0;stroke-dasharray:-;" /><circle cx="147.00000000000003" cy="174.00000000000003" r="2.6999999999999997" style="stroke:blue;fill:blue;stroke-width:2.0;stroke-dasharray:-;" /><g><g><g><path d="M 198.262 88.231 L 198.262 88.231 L 199.41 82.715 Q 199.536 82.169 199.529 81.854 Q 199.522 81.539 199.27 81.413 Q 199.018 81.287 198.374 81.287 L 198.458 80.867 L 202.336 80.867 L 202.252 81.287 Q 201.636 81.287 201.328 81.413 Q 201.02 81.539 200.894 81.854 Q 200.768 82.169 200.656 82.715 L 199.508 88.287 Q 199.466 88.511 199.438 88.693 Q 199.41 88.875 199.41 89.029 Q 199.41 89.421 199.641 89.533 Q 199.872 89.645 200.53 89.645 L 200.446 90.065 L 196.624 90.065 L 196.708 89.645 Q 197.282 89.645 197.569 89.547 Q 197.856 89.449 197.996 89.148 Q 198.136 88.847 198.262 88.231 Z " fill="blue" /><path d="M 204.384 85.685 L 204.384 85.685 L 204.384 88.723 L 204.433 88.723 Q 204.717 88.39 205.104 88.125 Q 205.491 87.86 206.04 87.86 Q 206.55 87.86 206.966 88.169 Q 207.383 88.478 207.633 89.022 Q 207.883 89.566 207.883 90.271 Q 207.883 91.212 207.54 91.849 Q 207.197 92.486 206.604 92.804 Q 206.011 93.123 205.256 93.123 Q 204.815 93.123 204.443 93.049 Q 204.07 92.976 203.811 92.878 Q 203.551 92.78 203.433 92.731 L 203.433 86.851 Q 203.433 86.488 203.355 86.385 Q 203.277 86.283 202.943 86.283 Q 202.836 86.283 202.742 86.297 Q 202.649 86.312 202.649 86.312 L 202.649 85.94 L 203.982 85.685 Z M 204.384 89.232 L 204.384 89.232 L 204.384 92.172 Q 204.502 92.388 204.756 92.515 Q 205.011 92.643 205.433 92.643 Q 205.952 92.643 206.266 92.363 Q 206.579 92.084 206.721 91.619 Q 206.863 91.153 206.863 90.604 Q 206.863 90.105 206.751 89.649 Q 206.638 89.193 206.354 88.909 Q 206.07 88.625 205.57 88.625 Q 205.305 88.625 205.065 88.728 Q 204.825 88.831 204.649 88.973 Q 204.472 89.115 204.384 89.232 Z " fill="blue" /><path d="M 211.46 92.643 L 211.46 92.643 L 211.46 93.005 L 208.97 93.005 L 208.97 92.643 Q 209.313 92.643 209.465 92.569 Q 209.617 92.496 209.656 92.334 Q 209.696 92.172 209.696 91.908 L 209.696 88.948 Q 209.696 88.615 209.588 88.546 Q 209.48 88.478 209.225 88.478 Q 209.098 88.478 209.019 88.488 Q 208.941 88.497 208.941 88.497 L 208.941 88.105 L 210.254 87.89 L 210.656 87.89 L 210.656 91.908 Q 210.656 92.192 210.7 92.354 Q 210.744 92.515 210.916 92.579 Q 211.087 92.643 211.46 92.643 Z M 210.166 85.724 L 210.166 85.724 Q 210.45 85.724 210.641 85.92 Q 210.832 86.116 210.832 86.371 Q 210.832 86.606 210.641 86.802 Q 210.45 86.998 210.166 86.998 Q 209.892 86.998 209.71 86.802 Q 209.529 86.606 209.529 86.371 Q 209.529 86.116 209.71 85.92 Q 209.892 85.724 210.166 85.724 Z " fill="blue" /><path d="M 215.38 92.388 L 215.38 92.388 L 215.311 92.388 Q 214.978 92.662 214.576 92.868 Q 214.174 93.074 213.704 93.074 Q 213.086 93.074 212.758 92.702 Q 212.43 92.329 212.43 91.8 Q 212.43 91.349 212.64 91.045 Q 212.851 90.742 213.189 90.55 Q 213.527 90.359 213.919 90.242 Q 214.311 90.124 214.674 90.056 Q 215.037 89.987 215.282 89.928 L 215.282 89.419 Q 215.282 88.762 215.022 88.512 Q 214.762 88.262 214.262 88.262 Q 213.959 88.262 213.826 88.341 Q 213.694 88.419 213.66 88.595 Q 213.625 88.772 213.616 89.056 Q 213.606 89.272 213.488 89.404 Q 213.371 89.536 213.145 89.536 Q 212.93 89.536 212.778 89.404 Q 212.626 89.272 212.626 89.017 Q 212.626 88.713 212.861 88.448 Q 213.096 88.184 213.532 88.022 Q 213.968 87.86 214.556 87.86 Q 215.438 87.86 215.835 88.267 Q 216.232 88.674 216.232 89.487 L 216.232 91.888 Q 216.232 92.212 216.306 92.305 Q 216.379 92.398 216.536 92.398 Q 216.703 92.398 216.825 92.329 Q 216.948 92.261 217.055 92.133 L 217.271 92.339 Q 216.761 93.064 216.075 93.064 Q 215.693 93.064 215.551 92.883 Q 215.409 92.702 215.38 92.388 Z M 215.282 92.025 L 215.282 92.025 L 215.282 90.3 Q 214.831 90.418 214.4 90.56 Q 213.968 90.702 213.689 90.947 Q 213.41 91.192 213.41 91.633 Q 213.41 92.016 213.63 92.236 Q 213.851 92.457 214.194 92.457 Q 214.4 92.457 214.689 92.363 Q 214.978 92.27 215.282 92.025 Z " fill="blue" /><path d="M 217.947 91.222 L 217.947 91.222 L 218.261 91.222 Q 218.388 91.79 218.565 92.104 Q 218.741 92.417 219.02 92.54 Q 219.3 92.662 219.701 92.662 Q 220.162 92.662 220.412 92.51 Q 220.662 92.359 220.662 91.976 Q 220.662 91.722 220.539 91.55 Q 220.417 91.379 220.147 91.222 Q 219.878 91.065 219.427 90.859 Q 218.966 90.634 218.638 90.438 Q 218.31 90.242 218.138 89.977 Q 217.967 89.713 217.967 89.311 Q 217.967 88.605 218.442 88.233 Q 218.917 87.86 219.633 87.86 Q 220.064 87.86 220.363 87.968 Q 220.662 88.076 220.838 88.154 L 220.858 88.154 L 221.015 87.909 L 221.289 87.909 L 221.309 89.536 L 220.966 89.536 Q 220.779 88.782 220.446 88.522 Q 220.113 88.262 219.682 88.262 Q 219.231 88.262 219.001 88.458 Q 218.77 88.654 218.77 88.968 Q 218.77 89.223 218.927 89.389 Q 219.084 89.556 219.373 89.698 Q 219.662 89.84 220.064 90.036 Q 220.515 90.252 220.858 90.482 Q 221.201 90.712 221.397 91.001 Q 221.593 91.29 221.593 91.722 Q 221.593 92.241 221.318 92.555 Q 221.044 92.868 220.613 93 Q 220.182 93.133 219.711 93.133 Q 219.231 93.133 218.966 93.035 Q 218.702 92.937 218.476 92.849 L 218.437 92.849 L 218.192 93.103 L 217.967 93.103 Z " fill="blue" /><path d="M 222.906 87.909 L 222.906 87.909 L 222.622 87.772 Q 222.916 87.106 223.401 86.768 Q 223.886 86.43 224.494 86.43 Q 225.278 86.43 225.758 86.812 Q 226.238 87.194 226.238 87.802 Q 226.238 88.331 225.915 88.654 Q 225.591 88.978 225.111 89.291 L 225.111 89.34 Q 225.523 89.448 225.87 89.663 Q 226.218 89.879 226.424 90.217 Q 226.63 90.555 226.63 91.035 Q 226.63 91.575 226.395 91.971 Q 226.16 92.368 225.758 92.628 Q 225.356 92.888 224.841 93.01 Q 224.327 93.133 223.768 93.133 Q 223.288 93.133 223.038 93.049 Q 222.788 92.966 222.695 92.829 Q 222.602 92.692 222.602 92.555 Q 222.602 92.388 222.7 92.226 Q 222.798 92.065 223.033 92.065 Q 223.131 92.065 223.234 92.118 Q 223.337 92.172 223.612 92.329 Q 223.837 92.437 223.969 92.496 Q 224.102 92.555 224.204 92.574 Q 224.307 92.594 224.445 92.594 Q 224.739 92.594 225.028 92.486 Q 225.317 92.378 225.513 92.099 Q 225.709 91.82 225.709 91.31 Q 225.709 90.859 225.459 90.536 Q 225.209 90.212 224.788 90.031 Q 224.366 89.85 223.857 89.85 L 223.641 89.85 L 223.641 89.389 L 223.847 89.389 Q 224.2 89.389 224.533 89.227 Q 224.866 89.066 225.082 88.767 Q 225.297 88.468 225.297 88.056 Q 225.297 87.596 224.998 87.361 Q 224.699 87.125 224.239 87.125 Q 223.386 87.125 222.906 87.909 Z " fill="blue" /></g></g></g><g><g><g><path d="M 96.262 88.231 L 96.262 88.231 L 97.41 82.715 Q 97.536 82.169 97.529 81.854 Q 97.522 81.539 97.27 81.413 Q 97.018 81.287 96.374 81.287 L 96.458 80.867 L 100.336 80.867 L 100.252 81.287 Q 99.636 81.287 99.328 81.413 Q 99.02 81.539 98.894 81.854 Q 98.768 82.169 98.656 82.715 L 97.508 88.287 Q 97.466 88.511 97.438 88.693 Q 97.41 88.875 97.41 89.029 Q 97.41 89.421 97.641 89.533 Q 97.872 89.645 98.53 89.645 L 98.446 90.065 L 94.624 90.065 L 94.708 89.645 Q 95.282 89.645 95.569 89.547 Q 95.856 89.449 95.996 89.148 Q 96.136 88.847 96.262 88.231 Z " fill="blue" /><path d="M 102.384 85.685 L 102.384 85.685 L 102.384 88.723 L 102.433 88.723 Q 102.717 88.39 103.104 88.125 Q 103.491 87.86 104.04 87.86 Q 104.55 87.86 104.966 88.169 Q 105.383 88.478 105.633 89.022 Q 105.883 89.566 105.883 90.271 Q 105.883 91.212 105.54 91.849 Q 105.197 92.486 104.604 92.804 Q 104.011 93.123 103.256 93.123 Q 102.815 93.123 102.443 93.049 Q 102.07 92.976 101.811 92.878 Q 101.551 92.78 101.433 92.731 L 101.433 86.851 Q 101.433 86.488 101.355 86.385 Q 101.277 86.283 100.943 86.283 Q 100.836 86.283 100.743 86.297 Q 100.649 86.312 100.649 86.312 L 100.649 85.94 L 101.982 85.685 Z M 102.384 89.232 L 102.384 89.232 L 102.384 92.172 Q 102.502 92.388 102.756 92.515 Q 103.011 92.643 103.433 92.643 Q 103.952 92.643 104.266 92.363 Q 104.579 92.084 104.721 91.619 Q 104.863 91.153 104.863 90.604 Q 104.863 90.105 104.751 89.649 Q 104.638 89.193 104.354 88.909 Q 104.07 88.625 103.57 88.625 Q 103.305 88.625 103.065 88.728 Q 102.825 88.831 102.649 88.973 Q 102.472 89.115 102.384 89.232 Z " fill="blue" /><path d="M 109.46 92.643 L 109.46 92.643 L 109.46 93.005 L 106.97 93.005 L 106.97 92.643 Q 107.313 92.643 107.465 92.569 Q 107.617 92.496 107.656 92.334 Q 107.696 92.172 107.696 91.908 L 107.696 88.948 Q 107.696 88.615 107.588 88.546 Q 107.48 88.478 107.225 88.478 Q 107.098 88.478 107.019 88.488 Q 106.941 88.497 106.941 88.497 L 106.941 88.105 L 108.254 87.89 L 108.656 87.89 L 108.656 91.908 Q 108.656 92.192 108.7 92.354 Q 108.744 92.515 108.916 92.579 Q 109.087 92.643 109.46 92.643 Z M 108.166 85.724 L 108.166 85.724 Q 108.45 85.724 108.641 85.92 Q 108.832 86.116 108.832 86.371 Q 108.832 86.606 108.641 86.802 Q 108.45 86.998 108.166 86.998 Q 107.892 86.998 107.71 86.802 Q 107.529 86.606 107.529 86.371 Q 107.529 86.116 107.71 85.92 Q 107.892 85.724 108.166 85.724 Z " fill="blue" /><path d="M 113.38 92.388 L 113.38 92.388 L 113.311 92.388 Q 112.978 92.662 112.576 92.868 Q 112.174 93.074 111.704 93.074 Q 111.086 93.074 110.758 92.702 Q 110.43 92.329 110.43 91.8 Q 110.43 91.349 110.641 91.045 Q 110.851 90.742 111.189 90.55 Q 111.527 90.359 111.919 90.242 Q 112.311 90.124 112.674 90.056 Q 113.037 89.987 113.282 89.928 L 113.282 89.419 Q 113.282 88.762 113.022 88.512 Q 112.762 88.262 112.262 88.262 Q 111.959 88.262 111.826 88.341 Q 111.694 88.419 111.66 88.595 Q 111.625 88.772 111.616 89.056 Q 111.606 89.272 111.488 89.404 Q 111.371 89.536 111.145 89.536 Q 110.93 89.536 110.778 89.404 Q 110.626 89.272 110.626 89.017 Q 110.626 88.713 110.861 88.448 Q 111.096 88.184 111.532 88.022 Q 111.968 87.86 112.556 87.86 Q 113.438 87.86 113.835 88.267 Q 114.232 88.674 114.232 89.487 L 114.232 91.888 Q 114.232 92.212 114.306 92.305 Q 114.379 92.398 114.536 92.398 Q 114.703 92.398 114.825 92.329 Q 114.948 92.261 115.055 92.133 L 115.271 92.339 Q 114.761 93.064 114.075 93.064 Q 113.693 93.064 113.551 92.883 Q 113.409 92.702 113.38 92.388 Z M 113.282 92.025 L 113.282 92.025 L 113.282 90.3 Q 112.831 90.418 112.4 90.56 Q 111.968 90.702 111.689 90.947 Q 111.41 91.192 111.41 91.633 Q 111.41 92.016 111.63 92.236 Q 111.851 92.457 112.194 92.457 Q 112.4 92.457 112.689 92.363 Q 112.978 92.27 113.282 92.025 Z " fill="blue" /><path d="M 115.947 91.222 L 115.947 91.222 L 116.261 91.222 Q 116.388 91.79 116.565 92.104 Q 116.741 92.417 117.02 92.54 Q 117.3 92.662 117.701 92.662 Q 118.162 92.662 118.412 92.51 Q 118.662 92.359 118.662 91.976 Q 118.662 91.722 118.539 91.55 Q 118.417 91.379 118.147 91.222 Q 117.878 91.065 117.427 90.859 Q 116.966 90.634 116.638 90.438 Q 116.31 90.242 116.138 89.977 Q 115.967 89.713 115.967 89.311 Q 115.967 88.605 116.442 88.233 Q 116.917 87.86 117.633 87.86 Q 118.064 87.86 118.363 87.968 Q 118.662 88.076 118.838 88.154 L 118.858 88.154 L 119.015 87.909 L 119.289 87.909 L 119.309 89.536 L 118.966 89.536 Q 118.779 88.782 118.446 88.522 Q 118.113 88.262 117.682 88.262 Q 117.231 88.262 117.001 88.458 Q 116.77 88.654 116.77 88.968 Q 116.77 89.223 116.927 89.389 Q 117.084 89.556 117.373 89.698 Q 117.662 89.84 118.064 90.036 Q 118.515 90.252 118.858 90.482 Q 119.201 90.712 119.397 91.001 Q 119.593 91.29 119.593 91.722 Q 119.593 92.241 119.318 92.555 Q 119.044 92.868 118.613 93 Q 118.182 93.133 117.711 93.133 Q 117.231 93.133 116.966 93.035 Q 116.702 92.937 116.476 92.849 L 116.437 92.849 L 116.192 93.103 L 115.967 93.103 Z " fill="blue" /><path d="M 124.875 91.3 L 124.875 91.3 L 124.542 93.005 L 120.524 93.005 L 120.524 92.525 L 121.915 91.114 Q 122.464 90.565 122.822 90.144 Q 123.18 89.722 123.356 89.296 Q 123.532 88.87 123.532 88.321 Q 123.532 87.802 123.214 87.463 Q 122.895 87.125 122.317 87.125 Q 121.788 87.125 121.43 87.336 Q 121.073 87.547 120.798 88.027 L 120.534 87.9 Q 120.779 87.214 121.293 86.822 Q 121.808 86.43 122.562 86.43 Q 123.15 86.43 123.601 86.64 Q 124.052 86.851 124.307 87.243 Q 124.561 87.635 124.561 88.194 Q 124.561 88.674 124.346 89.095 Q 124.13 89.517 123.733 89.958 Q 123.336 90.399 122.788 90.938 L 121.563 92.123 L 121.563 92.192 L 122.327 92.153 L 123.601 92.153 Q 123.885 92.153 124.037 92.074 Q 124.189 91.996 124.297 91.805 Q 124.405 91.614 124.532 91.3 Z " fill="blue" /></g></g></g><g><g><g><path d="M 116.353 -8.29 L 116.353 -8.29 L 120.175 -14.03 Q 120.371 -14.31 120.49 -14.548 Q 120.609 -14.786 120.609 -14.954 Q 120.609 -15.164 120.427 -15.241 Q 120.245 -15.318 119.769 -15.318 L 119.797 -15.738 L 122.821 -15.738 L 122.793 -15.318 Q 122.415 -15.318 122.149 -15.206 Q 121.883 -15.094 121.61 -14.779 Q 121.337 -14.464 120.903 -13.82 L 115.765 -6.47 L 115.303 -6.47 L 114.519 -14.044 Q 114.435 -14.744 114.211 -15.031 Q 113.987 -15.318 113.427 -15.318 L 113.455 -15.738 L 116.885 -15.738 L 116.843 -15.318 Q 116.311 -15.318 116.003 -15.108 Q 115.695 -14.898 115.723 -14.422 Q 115.723 -14.352 115.744 -14.17 Q 115.765 -13.988 115.765 -13.918 L 116.185 -9.928 L 116.283 -8.29 Z " fill="black" /><path d="M 121.718 -10.489 L 121.718 -10.489 L 124.688 -10.489 Q 125.472 -10.489 126.187 -10.318 Q 126.902 -10.146 127.466 -9.754 Q 128.029 -9.362 128.358 -8.706 Q 128.686 -8.049 128.686 -7.069 Q 128.686 -6.148 128.387 -5.486 Q 128.088 -4.825 127.549 -4.409 Q 127.01 -3.992 126.295 -3.796 Q 125.579 -3.6 124.746 -3.6 L 121.718 -3.6 L 121.718 -3.972 Q 122.179 -3.972 122.394 -4.041 Q 122.61 -4.11 122.674 -4.32 Q 122.737 -4.531 122.737 -4.962 L 122.737 -9.215 Q 122.737 -9.617 122.644 -9.808 Q 122.551 -9.999 122.331 -10.058 Q 122.11 -10.117 121.718 -10.117 Z M 123.786 -9.999 L 123.786 -9.999 L 123.786 -4.07 Q 123.943 -4.061 124.095 -4.056 Q 124.247 -4.051 124.394 -4.051 Q 125.364 -4.051 126.045 -4.306 Q 126.726 -4.56 127.084 -5.197 Q 127.441 -5.834 127.441 -6.981 Q 127.441 -8.451 126.692 -9.23 Q 125.942 -10.009 124.315 -10.009 Q 124.178 -10.009 124.051 -10.009 Q 123.923 -10.009 123.786 -9.999 Z " fill="black" /><path d="M 129.872 -10.489 L 129.872 -10.489 L 132.841 -10.489 Q 133.625 -10.489 134.341 -10.318 Q 135.056 -10.146 135.62 -9.754 Q 136.183 -9.362 136.511 -8.706 Q 136.84 -8.049 136.84 -7.069 Q 136.84 -6.148 136.541 -5.486 Q 136.242 -4.825 135.703 -4.409 Q 135.164 -3.992 134.448 -3.796 Q 133.733 -3.6 132.9 -3.6 L 129.872 -3.6 L 129.872 -3.972 Q 130.332 -3.972 130.548 -4.041 Q 130.764 -4.11 130.827 -4.32 Q 130.891 -4.531 130.891 -4.962 L 130.891 -9.215 Q 130.891 -9.617 130.798 -9.808 Q 130.705 -9.999 130.484 -10.058 Q 130.264 -10.117 129.872 -10.117 Z M 131.94 -9.999 L 131.94 -9.999 L 131.94 -4.07 Q 132.096 -4.061 132.248 -4.056 Q 132.4 -4.051 132.547 -4.051 Q 133.517 -4.051 134.198 -4.306 Q 134.88 -4.56 135.237 -5.197 Q 135.595 -5.834 135.595 -6.981 Q 135.595 -8.451 134.845 -9.23 Q 134.096 -10.009 132.469 -10.009 Q 132.332 -10.009 132.204 -10.009 Q 132.077 -10.009 131.94 -9.999 Z " fill="black" /></g></g></g></svg>