<svg xmlns="http://www.w3.org/2000/svg" xmlns:xlink="http://www.w3.org/1999/xlink" xml:lang="en" height="157.93200000000002pt" width="511.2904pt" viewBox="-51.29039999999999 -115.892 511.2904 157.93200000000002"><circle cx="0" cy="-36" r="18" style="stroke:black;fill:none;stroke-width:2.0;stroke-dasharray:-;" /><circle cx="288" cy="-36" r="18" style="stroke:black;fill:none;stroke-width:2.0;stroke-dasharray:-;" /><path d="M 0.0,-0.0 L 0,14.4 L -9,14.4 L 9,14.4 M -6.3,18.72 L 6.3,18.72 M -1.8,23.04 L 1.8,23.04" style="stroke:black;fill:none;stroke-width:2.0;stroke-dasharray:-;stroke-linecap:round;stroke-linejoin:round;" /><path d="M 0.0,-0.0 L 0,-18 L 0,-18 M 0,-54 L 0,-54 L 0,-72" style="stroke:black;fill:none;stroke-width:2.0;stroke-dasharray:-;stroke-linecap:round;stroke-linejoin:round;" /><path d="M 1.6532731788489267e-15,-27.0 L 0,-36" style="stroke:black;fill:none;stroke-width:2.0;stroke-dasharray:-;stroke-linecap:round;stroke-linejoin:round;" /><path d="M 0 -43 L 2.7 -36 L -2.7 -36 Z" style="stroke:black;fill:black;stroke-linecap:butt;stroke-linejoin:miter;" /><path d="M 4.408728476930472e-15,-72.0 L 36,-72 L 72,-72" style="stroke:black;fill:none;stroke-width:2.0;stroke-dasharray:-;stroke-linecap:round;stroke-linejoin:round;" /><path d="M 72.0,-72.0 L 72,-54 L 81,-51 L 63,-45 L 81,-39 L 63,-33 L 81,-27 L 63,-21 L 72,-18 L 72,-0" style="stroke:black;fill:none;stroke-width:2.0;stroke-dasharray:-;stroke-linecap:round;stroke-linejoin:round;" /><path d="M 71.99999999999999,-0.0 L 72,14.4 L 63,14.4 L 81,14.4 M 65.7,18.72 L 78.3,18.72 M 70.2,23.04 L 73.8,23.04" style="stroke:black;fill:none;stroke-width:2.0;stroke-dasharray:-;stroke-linecap:round;stroke-linejoin:round;" /><path d="M 72.0,-72.0 L 108,-72 L 144,-72" style="stroke:black;fill:none;stroke-width:2.0;stroke-dasharray:-;stroke-linecap:round;stroke-linejoin:round;" /><path d="M 144.0,-72.0 L 144,-39.24 M 153,-39.24 L 135,-39.24 M 153,-32.76 L 135,-32.76 M 144,-32.76 L 144,-0" style="stroke:black;fill:none;stroke-width:2.0;stroke-dasharray:-;stroke-linecap:round;stroke-linejoin:round;" /><path d="M 143.99999999999997,-0.0 L 144,14.4 L 135,14.4 L 153,14.4 M 137.7,18.72 L 150.3,18.72 M 142.2,23.04 L 145.8,23.04" style="stroke:black;fill:none;stroke-width:2.0;stroke-dasharray:-;stroke-linecap:round;stroke-linejoin:round;" /><path d="M 144.0,-72.0 L 162,-72 L 165,-81 L 171,-63 L 177,-81 L 183,-63 L 189,-81 L 195,-63 L 198,-72 L 216,-72" style="stroke:black;fill:none;stroke-width:2.0;stroke-dasharray:-;stroke-linecap:round;stroke-linejoin:round;" /><path d="M 216.0,-72.0 L 248.76,-72 M 248.76,-81 L 248.76,-63 M 255.24,-81 L 255.24,-63 M 255.24,-72 L 288,-72" style="stroke:black;fill:none;stroke-width:2.0;stroke-dasharray:-;stroke-linecap:round;stroke-linejoin:round;" /><path d="M 288.0,-72.0 L 288,-54 L 288,-54 M 288,-18 L 288,-18 L 288,-0" style="stroke:black;fill:none;stroke-width:2.0;stroke-dasharray:-;stroke-linecap:round;stroke-linejoin:round;" /><path d="M 288.0,-45.0 L 288,-36" style="stroke:black;fill:none;stroke-width:2.0;stroke-dasharray:-;stroke-linecap:round;stroke-linejoin:round;" /><path d="M 288 -29 L 285.3 -36 L 290.7 -36 Z" style="stroke:black;fill:black;stroke-linecap:butt;stroke-linejoin:miter;" /><path d="M 288.0,-0.0 L 288,14.4 L 279,14.4 L 297,14.4 M 281.7,18.72 L 294.3,18.72 M 286.2,23.04 L 289.8,23.04" style="stroke:black;fill:none;stroke-width:2.0;stroke-dasharray:-;stroke-linecap:round;stroke-linejoin:round;" /><path d="M 288.0,-72.0 L 324,-72 L 360,-72" style="stroke:black;fill:none;stroke-width:2.0;stroke-dasharray:-;stroke-linecap:round;stroke-linejoin:round;" /><path d="M 360.0,-72.0 L 360,-54 L 369,-51 L 351,-45 L 369,-39 L 351,-33 L 369,-27 L 351,-21 L 360,-18 L 360,-0" style="stroke:black;fill:none;stroke-width:2.0;stroke-dasharray:-;stroke-linecap:round;stroke-linejoin:round;" /><path d="M 360.0,-0.0 L 360,14.4 L 351,14.4 L 369,14.4 M 353.7,18.72 L 366.3,18.72 M 358.2,23.04 L 361.8,23.04" style="stroke:black;fill:none;stroke-width:2.0;stroke-dasharray:-;stroke-linecap:round;stroke-linejoin:round;" /><path d="M 360.0,-72.0 L 396,-72 L 432,-72" style="stroke:black;fill:none;stroke-width:2.0;stroke-dasharray:-;stroke-linecap:round;stroke-linejoin:round;" /><path d="M 432.0,-72.0 L 432,-39.24 M 441,-39.24 L 423,-39.24 M 441,-32.76 L 423,-32.76 M 432,-32.76 L 432,-0" style="stroke:black;fill:none;stroke-width:2.0;stroke-dasharray:-;stroke-linecap:round;stroke-linejoin:round;" /><path d="M 432.0,-0.0 L 432,14.4 L 423,14.4 L 441,14.4 M 425.7,18.72 L 438.3,18.72 M 430.2,23.04 L 433.8,23.04" style="stroke:black;fill:none;stroke-width:2.0;stroke-dasharray:-;stroke-linecap:round;stroke-linejoin:round;" /><g><g><g><path d="M -35.842 -34.705 L -35.842 -34.705 L -34.694 -40.221 Q -34.568 -40.767 -34.575 -41.082 Q -34.582 -41.397 -34.834 -41.523 Q -35.086 -41.649 -35.73 -41.649 L -35.646 -42.069 L -31.768 -42.069 L -31.852 -41.649 Q -32.468 -41.649 -32.776 -41.523 Q -33.084 -41.397 -33.21 -41.082 Q -33.336 -40.767 -33.448 -40.221 L -34.596 -34.649 Q -34.638 -34.425 -34.666 -34.243 Q -34.694 -34.061 -34.694 -33.907 Q -34.694 -33.515 -34.463 -33.403 Q -34.232 -33.291 -33.574 -33.291 L -33.658 -32.871 L -37.48 -32.871 L -37.396 -33.291 Q -36.822 -33.291 -36.535 -33.389 Q -36.248 -33.487 -36.108 -33.788 Q -35.968 -34.089 -35.842 -34.705 Z " fill="black" /><path d="M -28.779 -30.294 L -28.779 -30.294 L -28.779 -29.931 L -31.268 -29.931 L -31.268 -30.294 Q -30.925 -30.294 -30.773 -30.367 Q -30.622 -30.441 -30.582 -30.602 Q -30.543 -30.764 -30.543 -31.029 L -30.543 -33.988 Q -30.543 -34.321 -30.651 -34.39 Q -30.759 -34.459 -31.014 -34.459 Q -31.141 -34.459 -31.219 -34.449 Q -31.298 -34.439 -31.298 -34.439 L -31.298 -34.831 L -29.985 -35.047 L -29.583 -35.047 L -29.583 -31.029 Q -29.583 -30.744 -29.539 -30.583 Q -29.495 -30.421 -29.323 -30.357 Q -29.152 -30.294 -28.779 -30.294 Z M -30.073 -37.212 L -30.073 -37.212 Q -29.789 -37.212 -29.597 -37.016 Q -29.406 -36.82 -29.406 -36.566 Q -29.406 -36.33 -29.597 -36.134 Q -29.789 -35.938 -30.073 -35.938 Q -30.347 -35.938 -30.528 -36.134 Q -30.71 -36.33 -30.71 -36.566 Q -30.71 -36.82 -30.528 -37.016 Q -30.347 -37.212 -30.073 -37.212 Z " fill="black" /><path d="M -22.958 -33.214 L -22.958 -33.214 L -22.958 -31.019 Q -22.958 -30.744 -22.909 -30.583 Q -22.86 -30.421 -22.693 -30.352 Q -22.527 -30.284 -22.174 -30.284 L -22.174 -29.931 L -24.693 -29.931 L -24.693 -30.284 Q -24.32 -30.284 -24.154 -30.352 Q -23.987 -30.421 -23.948 -30.583 Q -23.909 -30.744 -23.909 -31.019 L -23.909 -32.891 Q -23.909 -33.547 -24.06 -33.856 Q -24.212 -34.165 -24.443 -34.263 Q -24.673 -34.361 -24.908 -34.361 Q -25.33 -34.361 -25.648 -34.145 Q -25.967 -33.929 -26.202 -33.733 L -26.202 -31.019 Q -26.202 -30.744 -26.158 -30.583 Q -26.114 -30.421 -25.947 -30.352 Q -25.78 -30.284 -25.418 -30.284 L -25.418 -29.931 L -27.887 -29.931 L -27.887 -30.284 Q -27.544 -30.284 -27.392 -30.352 Q -27.241 -30.421 -27.201 -30.583 Q -27.162 -30.744 -27.162 -31.019 L -27.162 -33.998 Q -27.162 -34.272 -27.265 -34.365 Q -27.368 -34.459 -27.593 -34.459 Q -27.711 -34.459 -27.789 -34.449 Q -27.868 -34.439 -27.868 -34.439 L -27.868 -34.811 L -26.555 -35.047 L -26.231 -35.047 L -26.231 -34.243 L -26.163 -34.243 Q -25.741 -34.625 -25.354 -34.851 Q -24.967 -35.076 -24.477 -35.076 Q -23.899 -35.076 -23.57 -34.816 Q -23.242 -34.557 -23.1 -34.135 Q -22.958 -33.714 -22.958 -33.214 Z " fill="black" /></g></g></g><circle cx="72" cy="-72" r="2.7" style="stroke:black;fill:black;stroke-width:2.0;stroke-dasharray:-;" /><g><g><g><path d="M 49.19 -40.76 L 49.19 -40.76 L 49.106 -40.046 L 47.888 -40.186 L 47.888 -40.144 Q 48.126 -39.878 48.259 -39.479 Q 48.392 -39.08 48.392 -38.716 Q 48.392 -38.086 48.14 -37.659 Q 47.888 -37.232 47.482 -36.973 Q 47.076 -36.714 46.586 -36.581 Q 46.096 -36.448 45.634 -36.406 Q 45.074 -36.35 44.843 -36.168 Q 44.612 -35.986 44.612 -35.79 Q 44.612 -35.538 44.892 -35.405 Q 45.172 -35.272 45.613 -35.188 Q 46.054 -35.104 46.558 -34.999 Q 47.062 -34.894 47.503 -34.712 Q 47.944 -34.53 48.224 -34.201 Q 48.504 -33.872 48.504 -33.326 Q 48.504 -32.724 48.112 -32.213 Q 47.72 -31.702 46.95 -31.387 Q 46.18 -31.072 45.06 -31.072 Q 44.052 -31.072 43.45 -31.317 Q 42.848 -31.562 42.582 -31.947 Q 42.316 -32.332 42.316 -32.752 Q 42.316 -33.424 42.834 -33.837 Q 43.352 -34.25 44.01 -34.46 L 44.01 -34.516 Q 43.828 -34.628 43.667 -34.831 Q 43.506 -35.034 43.506 -35.356 Q 43.506 -35.706 43.688 -35.916 Q 43.87 -36.126 44.157 -36.259 Q 44.444 -36.392 44.724 -36.49 L 44.724 -36.574 Q 44.178 -36.812 43.772 -37.246 Q 43.366 -37.68 43.366 -38.478 Q 43.366 -39.206 43.716 -39.759 Q 44.066 -40.312 44.675 -40.62 Q 45.284 -40.928 46.04 -40.928 Q 46.544 -40.928 46.803 -40.879 Q 47.062 -40.83 47.314 -40.76 Z M 47.496 -32.808 L 47.496 -32.808 Q 47.496 -33.228 47.146 -33.487 Q 46.796 -33.746 46.278 -33.9 Q 45.76 -34.054 45.235 -34.145 Q 44.71 -34.236 44.346 -34.306 Q 43.996 -34.082 43.702 -33.795 Q 43.408 -33.508 43.408 -32.962 Q 43.408 -32.402 43.842 -31.982 Q 44.276 -31.562 45.34 -31.562 Q 46.348 -31.562 46.922 -31.933 Q 47.496 -32.304 47.496 -32.808 Z M 47.146 -38.87 L 47.146 -38.87 Q 47.146 -39.57 46.88 -40.039 Q 46.614 -40.508 45.998 -40.508 Q 45.396 -40.508 45.004 -40.004 Q 44.612 -39.5 44.612 -38.478 Q 44.612 -37.75 44.864 -37.295 Q 45.116 -36.84 45.718 -36.84 Q 46.418 -36.84 46.782 -37.428 Q 47.146 -38.016 47.146 -38.87 Z " fill="black" /><path d="M 52.375 -31.645 L 52.375 -31.645 L 52.375 -31.282 L 49.886 -31.282 L 49.886 -31.645 Q 50.229 -31.645 50.38 -31.718 Q 50.532 -31.792 50.572 -31.953 Q 50.611 -32.115 50.611 -32.38 L 50.611 -35.339 Q 50.611 -35.672 50.503 -35.741 Q 50.395 -35.81 50.14 -35.81 Q 50.013 -35.81 49.935 -35.8 Q 49.856 -35.79 49.856 -35.79 L 49.856 -36.182 L 51.169 -36.398 L 51.571 -36.398 L 51.571 -32.38 Q 51.571 -32.095 51.615 -31.934 Q 51.659 -31.772 51.831 -31.708 Q 52.002 -31.645 52.375 -31.645 Z M 51.081 -38.563 L 51.081 -38.563 Q 51.365 -38.563 51.556 -38.367 Q 51.748 -38.171 51.748 -37.917 Q 51.748 -37.681 51.556 -37.485 Q 51.365 -37.289 51.081 -37.289 Q 50.807 -37.289 50.625 -37.485 Q 50.444 -37.681 50.444 -37.917 Q 50.444 -38.171 50.625 -38.367 Q 50.807 -38.563 51.081 -38.563 Z " fill="black" /><path d="M 58.196 -34.565 L 58.196 -34.565 L 58.196 -32.37 Q 58.196 -32.095 58.245 -31.934 Q 58.294 -31.772 58.461 -31.703 Q 58.627 -31.635 58.98 -31.635 L 58.98 -31.282 L 56.461 -31.282 L 56.461 -31.635 Q 56.834 -31.635 57 -31.703 Q 57.167 -31.772 57.206 -31.934 Q 57.245 -32.095 57.245 -32.37 L 57.245 -34.242 Q 57.245 -34.898 57.093 -35.207 Q 56.942 -35.516 56.711 -35.614 Q 56.481 -35.712 56.246 -35.712 Q 55.824 -35.712 55.506 -35.496 Q 55.187 -35.28 54.952 -35.084 L 54.952 -32.37 Q 54.952 -32.095 54.996 -31.934 Q 55.04 -31.772 55.207 -31.703 Q 55.374 -31.635 55.736 -31.635 L 55.736 -31.282 L 53.267 -31.282 L 53.267 -31.635 Q 53.61 -31.635 53.761 -31.703 Q 53.913 -31.772 53.953 -31.934 Q 53.992 -32.095 53.992 -32.37 L 53.992 -35.349 Q 53.992 -35.623 53.889 -35.716 Q 53.786 -35.81 53.561 -35.81 Q 53.443 -35.81 53.365 -35.8 Q 53.286 -35.79 53.286 -35.79 L 53.286 -36.162 L 54.599 -36.398 L 54.923 -36.398 L 54.923 -35.594 L 54.991 -35.594 Q 55.413 -35.976 55.8 -36.202 Q 56.187 -36.427 56.677 -36.427 Q 57.255 -36.427 57.583 -36.167 Q 57.912 -35.908 58.054 -35.486 Q 58.196 -35.065 58.196 -34.565 Z " fill="black" /></g></g></g><circle cx="144" cy="-72" r="2.7" style="stroke:black;fill:black;stroke-width:2.0;stroke-dasharray:-;" /><g><g><g><path d="M 104.979 -85.479 L 104.979 -85.479 L 108.801 -91.219 Q 108.997 -91.499 109.116 -91.737 Q 109.235 -91.975 109.235 -92.143 Q 109.235 -92.353 109.053 -92.43 Q 108.871 -92.507 108.395 -92.507 L 108.423 -92.927 L 111.447 -92.927 L 111.419 -92.507 Q 111.041 -92.507 110.775 -92.395 Q 110.509 -92.283 110.236 -91.968 Q 109.963 -91.653 109.529 -91.009 L 104.391 -83.659 L 103.929 -83.659 L 103.145 -91.233 Q 103.061 -91.933 102.837 -92.22 Q 102.613 -92.507 102.053 -92.507 L 102.081 -92.927 L 105.511 -92.927 L 105.469 -92.507 Q 104.937 -92.507 104.629 -92.297 Q 104.321 -92.087 104.349 -91.611 Q 104.349 -91.541 104.37 -91.359 Q 104.391 -91.177 104.391 -91.107 L 104.811 -87.117 L 104.909 -85.479 Z " fill="black" /><path d="M 109.77 -82.759 L 109.77 -82.759 L 109.77 -82.798 Q 109.427 -83.004 109.187 -83.332 Q 108.947 -83.661 108.947 -84.18 Q 108.947 -84.729 109.211 -85.121 Q 109.476 -85.513 109.927 -85.723 Q 110.378 -85.934 110.936 -85.934 Q 111.456 -85.934 111.784 -85.821 Q 112.112 -85.709 112.112 -85.709 L 113.553 -85.748 L 113.553 -85.17 L 112.524 -85.189 L 112.524 -85.121 Q 112.651 -84.944 112.788 -84.704 Q 112.926 -84.464 112.926 -84.033 Q 112.926 -83.543 112.666 -83.185 Q 112.406 -82.828 111.97 -82.636 Q 111.534 -82.445 110.985 -82.445 Q 110.485 -82.445 110.044 -82.622 Q 109.976 -82.494 109.883 -82.259 Q 109.79 -82.024 109.79 -81.857 Q 109.79 -81.652 110.03 -81.554 Q 110.27 -81.456 110.985 -81.456 Q 111.514 -81.456 111.965 -81.431 Q 112.416 -81.407 112.749 -81.294 Q 113.082 -81.181 113.264 -80.931 Q 113.445 -80.681 113.445 -80.221 Q 113.445 -79.692 113.175 -79.324 Q 112.906 -78.957 112.465 -78.731 Q 112.024 -78.506 111.51 -78.403 Q 110.995 -78.3 110.495 -78.3 Q 109.78 -78.3 109.388 -78.476 Q 108.996 -78.653 108.844 -78.927 Q 108.692 -79.202 108.692 -79.486 Q 108.692 -79.76 108.883 -80.03 Q 109.074 -80.299 109.496 -80.691 L 109.496 -80.74 Q 109.251 -80.868 109.084 -81.083 Q 108.917 -81.299 108.917 -81.505 Q 108.917 -81.799 109.177 -82.127 Q 109.437 -82.455 109.77 -82.759 Z M 109.819 -80.642 L 109.819 -80.642 Q 109.652 -80.358 109.594 -80.191 Q 109.535 -80.025 109.535 -79.858 Q 109.535 -79.407 109.902 -79.177 Q 110.27 -78.947 111.044 -78.947 Q 111.681 -78.947 112.073 -79.104 Q 112.465 -79.26 112.651 -79.481 Q 112.837 -79.701 112.837 -79.907 Q 112.837 -80.172 112.666 -80.319 Q 112.494 -80.466 112.23 -80.529 Q 111.965 -80.593 111.671 -80.613 Q 111.377 -80.632 111.122 -80.632 Q 111.054 -80.632 111.015 -80.632 Q 110.387 -80.632 110.157 -80.637 Q 109.927 -80.642 109.819 -80.642 Z M 110.877 -85.503 L 110.877 -85.503 Q 110.456 -85.503 110.196 -85.219 Q 109.937 -84.935 109.937 -84.239 Q 109.937 -83.553 110.211 -83.2 Q 110.485 -82.847 110.985 -82.847 Q 111.25 -82.847 111.465 -82.955 Q 111.681 -83.063 111.813 -83.347 Q 111.946 -83.631 111.946 -84.151 Q 111.946 -84.817 111.657 -85.16 Q 111.367 -85.503 110.877 -85.503 Z " fill="black" /><path d="M 114.415 -82.573 L 114.415 -82.573 L 114.729 -82.573 Q 114.856 -82.004 115.033 -81.691 Q 115.209 -81.377 115.488 -81.255 Q 115.768 -81.132 116.169 -81.132 Q 116.63 -81.132 116.88 -81.284 Q 117.13 -81.436 117.13 -81.818 Q 117.13 -82.073 117.007 -82.244 Q 116.885 -82.416 116.615 -82.573 Q 116.346 -82.73 115.895 -82.935 Q 115.434 -83.161 115.106 -83.357 Q 114.778 -83.553 114.606 -83.817 Q 114.435 -84.082 114.435 -84.484 Q 114.435 -85.189 114.91 -85.562 Q 115.385 -85.934 116.101 -85.934 Q 116.532 -85.934 116.831 -85.826 Q 117.13 -85.719 117.306 -85.64 L 117.326 -85.64 L 117.483 -85.885 L 117.757 -85.885 L 117.777 -84.258 L 117.434 -84.258 Q 117.247 -85.013 116.914 -85.273 Q 116.581 -85.532 116.15 -85.532 Q 115.699 -85.532 115.469 -85.336 Q 115.238 -85.14 115.238 -84.827 Q 115.238 -84.572 115.395 -84.405 Q 115.552 -84.239 115.841 -84.097 Q 116.13 -83.955 116.532 -83.759 Q 116.983 -83.543 117.326 -83.313 Q 117.669 -83.082 117.865 -82.793 Q 118.061 -82.504 118.061 -82.073 Q 118.061 -81.554 117.786 -81.24 Q 117.512 -80.926 117.081 -80.794 Q 116.65 -80.662 116.179 -80.662 Q 115.699 -80.662 115.434 -80.76 Q 115.17 -80.858 114.944 -80.946 L 114.905 -80.946 L 114.66 -80.691 L 114.435 -80.691 Z " fill="black" /></g></g></g><g><g><g><path d="M 121.204 -34.81 L 121.204 -34.81 L 121.456 -34.544 Q 120.742 -33.704 119.804 -33.165 Q 118.866 -32.626 117.536 -32.626 Q 116.276 -32.626 115.52 -33.095 Q 114.764 -33.564 114.435 -34.348 Q 114.106 -35.132 114.106 -36.056 Q 114.106 -37.526 114.554 -38.667 Q 115.002 -39.808 115.779 -40.585 Q 116.556 -41.362 117.536 -41.761 Q 118.516 -42.16 119.58 -42.16 Q 120.294 -42.16 120.693 -42.034 Q 121.092 -41.908 121.316 -41.775 Q 121.54 -41.642 121.708 -41.642 Q 121.876 -41.642 122.002 -41.782 Q 122.128 -41.922 122.296 -42.146 L 122.702 -42.146 L 122.044 -38.94 L 121.582 -38.94 Q 121.638 -40.34 121.064 -40.949 Q 120.49 -41.558 119.454 -41.558 Q 118.642 -41.558 117.928 -41.187 Q 117.214 -40.816 116.661 -40.137 Q 116.108 -39.458 115.793 -38.513 Q 115.478 -37.568 115.478 -36.406 Q 115.478 -35.006 116.143 -34.271 Q 116.808 -33.536 118.194 -33.536 Q 119.804 -33.536 121.204 -34.81 Z " fill="black" /><path d="M 125.243 -30.203 L 125.243 -30.203 L 125.243 -29.84 L 122.754 -29.84 L 122.754 -30.203 Q 123.097 -30.203 123.249 -30.276 Q 123.4 -30.35 123.44 -30.511 Q 123.479 -30.673 123.479 -30.938 L 123.479 -33.897 Q 123.479 -34.23 123.371 -34.299 Q 123.263 -34.368 123.008 -34.368 Q 122.881 -34.368 122.803 -34.358 Q 122.724 -34.348 122.724 -34.348 L 122.724 -34.74 L 124.037 -34.956 L 124.439 -34.956 L 124.439 -30.938 Q 124.439 -30.653 124.483 -30.492 Q 124.527 -30.33 124.699 -30.266 Q 124.87 -30.203 125.243 -30.203 Z M 123.949 -37.121 L 123.949 -37.121 Q 124.233 -37.121 124.425 -36.925 Q 124.616 -36.729 124.616 -36.475 Q 124.616 -36.239 124.425 -36.043 Q 124.233 -35.847 123.949 -35.847 Q 123.675 -35.847 123.494 -36.043 Q 123.312 -36.239 123.312 -36.475 Q 123.312 -36.729 123.494 -36.925 Q 123.675 -37.121 123.949 -37.121 Z " fill="black" /><path d="M 131.064 -33.123 L 131.064 -33.123 L 131.064 -30.928 Q 131.064 -30.653 131.113 -30.492 Q 131.162 -30.33 131.329 -30.261 Q 131.495 -30.193 131.848 -30.193 L 131.848 -29.84 L 129.329 -29.84 L 129.329 -30.193 Q 129.702 -30.193 129.868 -30.261 Q 130.035 -30.33 130.074 -30.492 Q 130.113 -30.653 130.113 -30.928 L 130.113 -32.8 Q 130.113 -33.456 129.962 -33.765 Q 129.81 -34.074 129.579 -34.172 Q 129.349 -34.27 129.114 -34.27 Q 128.692 -34.27 128.374 -34.054 Q 128.055 -33.838 127.82 -33.642 L 127.82 -30.928 Q 127.82 -30.653 127.864 -30.492 Q 127.908 -30.33 128.075 -30.261 Q 128.242 -30.193 128.604 -30.193 L 128.604 -29.84 L 126.135 -29.84 L 126.135 -30.193 Q 126.478 -30.193 126.63 -30.261 Q 126.781 -30.33 126.821 -30.492 Q 126.86 -30.653 126.86 -30.928 L 126.86 -33.907 Q 126.86 -34.181 126.757 -34.274 Q 126.654 -34.368 126.429 -34.368 Q 126.311 -34.368 126.233 -34.358 Q 126.154 -34.348 126.154 -34.348 L 126.154 -34.72 L 127.467 -34.956 L 127.791 -34.956 L 127.791 -34.152 L 127.859 -34.152 Q 128.281 -34.534 128.668 -34.76 Q 129.055 -34.985 129.545 -34.985 Q 130.123 -34.985 130.452 -34.725 Q 130.78 -34.466 130.922 -34.044 Q 131.064 -33.623 131.064 -33.123 Z " fill="black" /></g></g></g><g><g><g><path d="M 178.789 -94.806 L 178.789 -94.806 Q 178.789 -94.064 178.509 -93.56 Q 178.229 -93.056 177.781 -92.734 Q 177.333 -92.412 176.822 -92.237 Q 176.311 -92.062 175.849 -91.978 L 175.849 -91.908 Q 176.101 -91.74 176.325 -91.397 Q 176.549 -91.054 176.878 -90.41 Q 177.207 -89.766 177.781 -88.674 Q 178.019 -88.254 178.306 -88.107 Q 178.593 -87.96 179.069 -87.96 L 178.985 -87.54 L 176.857 -87.54 Q 176.465 -88.408 176.199 -88.989 Q 175.933 -89.57 175.737 -89.962 Q 175.541 -90.354 175.394 -90.662 Q 175.247 -90.97 175.079 -91.292 Q 174.925 -91.586 174.743 -91.677 Q 174.561 -91.768 174.183 -91.768 L 173.889 -91.768 L 173.371 -89.276 Q 173.259 -88.702 173.294 -88.415 Q 173.329 -88.128 173.609 -88.044 Q 173.889 -87.96 174.491 -87.96 L 174.421 -87.54 L 170.557 -87.54 L 170.641 -87.96 Q 171.159 -87.96 171.439 -88.044 Q 171.719 -88.128 171.866 -88.408 Q 172.013 -88.688 172.125 -89.276 L 173.357 -95.282 Q 173.441 -95.674 173.399 -95.898 Q 173.357 -96.122 173.112 -96.22 Q 172.867 -96.318 172.307 -96.318 L 172.391 -96.738 L 175.681 -96.738 Q 177.151 -96.738 177.97 -96.283 Q 178.789 -95.828 178.789 -94.806 Z M 174.771 -96.15 L 174.771 -96.15 L 173.987 -92.286 L 174.421 -92.272 Q 175.261 -92.3 175.94 -92.545 Q 176.619 -92.79 177.011 -93.322 Q 177.403 -93.854 177.403 -94.75 Q 177.403 -95.128 177.242 -95.457 Q 177.081 -95.786 176.689 -95.989 Q 176.297 -96.192 175.597 -96.192 Q 175.331 -96.192 175.17 -96.185 Q 175.009 -96.178 174.771 -96.15 Z " fill="black" /><path d="M 181.908 -88.393 L 181.908 -88.393 L 181.908 -85.678 Q 181.908 -85.384 181.967 -85.227 Q 182.026 -85.07 182.192 -85.017 Q 182.359 -84.963 182.682 -84.963 L 182.682 -84.6 L 180.213 -84.6 L 180.213 -84.963 Q 180.526 -84.963 180.683 -85.017 Q 180.84 -85.07 180.889 -85.232 Q 180.938 -85.394 180.938 -85.698 L 180.938 -88.667 Q 180.938 -88.941 180.835 -89.035 Q 180.732 -89.128 180.507 -89.128 Q 180.399 -89.128 180.316 -89.118 Q 180.232 -89.108 180.232 -89.108 L 180.232 -89.48 L 181.516 -89.716 L 181.879 -89.716 L 181.879 -88.912 L 181.947 -88.912 Q 182.359 -89.284 182.771 -89.515 Q 183.182 -89.745 183.741 -89.745 Q 184.201 -89.745 184.49 -89.51 Q 184.78 -89.275 184.936 -88.932 L 184.985 -88.932 Q 185.877 -89.745 186.7 -89.745 Q 187.367 -89.745 187.754 -89.333 Q 188.141 -88.922 188.141 -88.03 L 188.141 -85.874 Q 188.141 -85.541 188.18 -85.34 Q 188.219 -85.139 188.376 -85.051 Q 188.533 -84.963 188.886 -84.963 L 188.886 -84.6 L 186.426 -84.6 L 186.426 -84.963 Q 186.789 -84.963 186.95 -85.056 Q 187.112 -85.149 187.151 -85.35 Q 187.19 -85.551 187.19 -85.874 L 187.19 -87.912 Q 187.19 -88.53 186.94 -88.775 Q 186.691 -89.02 186.299 -89.02 Q 185.965 -89.02 185.632 -88.819 Q 185.299 -88.618 185.044 -88.422 L 185.044 -85.874 Q 185.044 -85.511 185.088 -85.311 Q 185.132 -85.11 185.304 -85.036 Q 185.475 -84.963 185.838 -84.963 L 185.838 -84.6 L 183.28 -84.6 L 183.28 -84.963 Q 183.653 -84.963 183.824 -85.036 Q 183.996 -85.11 184.045 -85.311 Q 184.094 -85.511 184.094 -85.874 L 184.094 -87.942 Q 184.094 -88.559 183.873 -88.79 Q 183.653 -89.02 183.27 -89.02 Q 182.869 -89.02 182.501 -88.804 Q 182.134 -88.589 181.908 -88.393 Z " fill="black" /></g></g></g><circle cx="288" cy="-72" r="2.7" style="stroke:black;fill:black;stroke-width:2.0;stroke-dasharray:-;" /><g><g><g><path d="M 252.412 -89.57 L 252.412 -89.57 L 252.664 -89.304 Q 251.95 -88.464 251.012 -87.925 Q 250.074 -87.386 248.744 -87.386 Q 247.484 -87.386 246.728 -87.855 Q 245.972 -88.324 245.643 -89.108 Q 245.314 -89.892 245.314 -90.816 Q 245.314 -92.286 245.762 -93.427 Q 246.21 -94.568 246.987 -95.345 Q 247.764 -96.122 248.744 -96.521 Q 249.724 -96.92 250.788 -96.92 Q 251.502 -96.92 251.901 -96.794 Q 252.3 -96.668 252.524 -96.535 Q 252.748 -96.402 252.916 -96.402 Q 253.084 -96.402 253.21 -96.542 Q 253.336 -96.682 253.504 -96.906 L 253.91 -96.906 L 253.252 -93.7 L 252.79 -93.7 Q 252.846 -95.1 252.272 -95.709 Q 251.698 -96.318 250.662 -96.318 Q 249.85 -96.318 249.136 -95.947 Q 248.422 -95.576 247.869 -94.897 Q 247.316 -94.218 247.001 -93.273 Q 246.686 -92.328 246.686 -91.166 Q 246.686 -89.766 247.351 -89.031 Q 248.016 -88.296 249.402 -88.296 Q 251.012 -88.296 252.412 -89.57 Z " fill="black" /><path d="M 255.657 -88.393 L 255.657 -88.393 L 255.657 -85.678 Q 255.657 -85.384 255.716 -85.227 Q 255.775 -85.07 255.941 -85.017 Q 256.108 -84.963 256.431 -84.963 L 256.431 -84.6 L 253.962 -84.6 L 253.962 -84.963 Q 254.275 -84.963 254.432 -85.017 Q 254.589 -85.07 254.638 -85.232 Q 254.687 -85.394 254.687 -85.698 L 254.687 -88.667 Q 254.687 -88.941 254.584 -89.035 Q 254.481 -89.128 254.256 -89.128 Q 254.148 -89.128 254.065 -89.118 Q 253.981 -89.108 253.981 -89.108 L 253.981 -89.48 L 255.265 -89.716 L 255.628 -89.716 L 255.628 -88.912 L 255.696 -88.912 Q 256.108 -89.284 256.52 -89.515 Q 256.931 -89.745 257.49 -89.745 Q 257.95 -89.745 258.239 -89.51 Q 258.529 -89.275 258.685 -88.932 L 258.734 -88.932 Q 259.626 -89.745 260.449 -89.745 Q 261.116 -89.745 261.503 -89.333 Q 261.89 -88.922 261.89 -88.03 L 261.89 -85.874 Q 261.89 -85.541 261.929 -85.34 Q 261.968 -85.139 262.125 -85.051 Q 262.282 -84.963 262.635 -84.963 L 262.635 -84.6 L 260.175 -84.6 L 260.175 -84.963 Q 260.538 -84.963 260.699 -85.056 Q 260.861 -85.149 260.9 -85.35 Q 260.939 -85.551 260.939 -85.874 L 260.939 -87.912 Q 260.939 -88.53 260.69 -88.775 Q 260.44 -89.02 260.048 -89.02 Q 259.714 -89.02 259.381 -88.819 Q 259.048 -88.618 258.793 -88.422 L 258.793 -85.874 Q 258.793 -85.511 258.837 -85.311 Q 258.881 -85.11 259.053 -85.036 Q 259.224 -84.963 259.587 -84.963 L 259.587 -84.6 L 257.029 -84.6 L 257.029 -84.963 Q 257.402 -84.963 257.573 -85.036 Q 257.745 -85.11 257.794 -85.311 Q 257.843 -85.511 257.843 -85.874 L 257.843 -87.942 Q 257.843 -88.559 257.622 -88.79 Q 257.402 -89.02 257.019 -89.02 Q 256.618 -89.02 256.25 -88.804 Q 255.883 -88.589 255.657 -88.393 Z " fill="black" /></g></g></g><g><g><g><path d="M 239.122 -40.654 L 239.122 -40.654 L 239.038 -39.94 L 237.82 -40.08 L 237.82 -40.038 Q 238.058 -39.772 238.191 -39.373 Q 238.324 -38.974 238.324 -38.61 Q 238.324 -37.98 238.072 -37.553 Q 237.82 -37.126 237.414 -36.867 Q 237.008 -36.608 236.518 -36.475 Q 236.028 -36.342 235.566 -36.3 Q 235.006 -36.244 234.775 -36.062 Q 234.544 -35.88 234.544 -35.684 Q 234.544 -35.432 234.824 -35.299 Q 235.104 -35.166 235.545 -35.082 Q 235.986 -34.998 236.49 -34.893 Q 236.994 -34.788 237.435 -34.606 Q 237.876 -34.424 238.156 -34.095 Q 238.436 -33.766 238.436 -33.22 Q 238.436 -32.618 238.044 -32.107 Q 237.652 -31.596 236.882 -31.281 Q 236.112 -30.966 234.992 -30.966 Q 233.984 -30.966 233.382 -31.211 Q 232.78 -31.456 232.514 -31.841 Q 232.248 -32.226 232.248 -32.646 Q 232.248 -33.318 232.766 -33.731 Q 233.284 -34.144 233.942 -34.354 L 233.942 -34.41 Q 233.76 -34.522 233.599 -34.725 Q 233.438 -34.928 233.438 -35.25 Q 233.438 -35.6 233.62 -35.81 Q 233.802 -36.02 234.089 -36.153 Q 234.376 -36.286 234.656 -36.384 L 234.656 -36.468 Q 234.11 -36.706 233.704 -37.14 Q 233.298 -37.574 233.298 -38.372 Q 233.298 -39.1 233.648 -39.653 Q 233.998 -40.206 234.607 -40.514 Q 235.216 -40.822 235.972 -40.822 Q 236.476 -40.822 236.735 -40.773 Q 236.994 -40.724 237.246 -40.654 Z M 237.428 -32.702 L 237.428 -32.702 Q 237.428 -33.122 237.078 -33.381 Q 236.728 -33.64 236.21 -33.794 Q 235.692 -33.948 235.167 -34.039 Q 234.642 -34.13 234.278 -34.2 Q 233.928 -33.976 233.634 -33.689 Q 233.34 -33.402 233.34 -32.856 Q 233.34 -32.296 233.774 -31.876 Q 234.208 -31.456 235.272 -31.456 Q 236.28 -31.456 236.854 -31.827 Q 237.428 -32.198 237.428 -32.702 Z M 237.078 -38.764 L 237.078 -38.764 Q 237.078 -39.464 236.812 -39.933 Q 236.546 -40.402 235.93 -40.402 Q 235.328 -40.402 234.936 -39.898 Q 234.544 -39.394 234.544 -38.372 Q 234.544 -37.644 234.796 -37.189 Q 235.048 -36.734 235.65 -36.734 Q 236.35 -36.734 236.714 -37.322 Q 237.078 -37.91 237.078 -38.764 Z " fill="black" /><path d="M 241.514 -34.968 L 241.514 -34.968 L 241.514 -32.254 Q 241.514 -31.96 241.572 -31.803 Q 241.631 -31.646 241.798 -31.592 Q 241.964 -31.538 242.288 -31.538 L 242.288 -31.176 L 239.818 -31.176 L 239.818 -31.538 Q 240.132 -31.538 240.289 -31.592 Q 240.445 -31.646 240.494 -31.808 Q 240.543 -31.969 240.543 -32.273 L 240.543 -35.243 Q 240.543 -35.517 240.44 -35.61 Q 240.338 -35.703 240.112 -35.703 Q 240.004 -35.703 239.921 -35.693 Q 239.838 -35.684 239.838 -35.684 L 239.838 -36.056 L 241.122 -36.291 L 241.484 -36.291 L 241.484 -35.488 L 241.553 -35.488 Q 241.964 -35.86 242.376 -36.09 Q 242.788 -36.321 243.346 -36.321 Q 243.807 -36.321 244.096 -36.085 Q 244.385 -35.85 244.542 -35.507 L 244.591 -35.507 Q 245.483 -36.321 246.306 -36.321 Q 246.972 -36.321 247.359 -35.909 Q 247.746 -35.497 247.746 -34.606 L 247.746 -32.45 Q 247.746 -32.116 247.786 -31.915 Q 247.825 -31.715 247.982 -31.626 Q 248.138 -31.538 248.491 -31.538 L 248.491 -31.176 L 246.031 -31.176 L 246.031 -31.538 Q 246.394 -31.538 246.556 -31.631 Q 246.717 -31.724 246.757 -31.925 Q 246.796 -32.126 246.796 -32.45 L 246.796 -34.488 Q 246.796 -35.105 246.546 -35.35 Q 246.296 -35.595 245.904 -35.595 Q 245.571 -35.595 245.238 -35.395 Q 244.904 -35.194 244.65 -34.998 L 244.65 -32.45 Q 244.65 -32.087 244.694 -31.886 Q 244.738 -31.685 244.909 -31.612 Q 245.081 -31.538 245.443 -31.538 L 245.443 -31.176 L 242.886 -31.176 L 242.886 -31.538 Q 243.258 -31.538 243.429 -31.612 Q 243.601 -31.685 243.65 -31.886 Q 243.699 -32.087 243.699 -32.45 L 243.699 -34.517 Q 243.699 -35.135 243.478 -35.365 Q 243.258 -35.595 242.876 -35.595 Q 242.474 -35.595 242.106 -35.38 Q 241.739 -35.164 241.514 -34.968 Z " fill="black" /><path d="M 252.8 -35.866 L 252.8 -35.866 L 256.622 -41.606 Q 256.818 -41.886 256.937 -42.124 Q 257.056 -42.362 257.056 -42.53 Q 257.056 -42.74 256.874 -42.817 Q 256.692 -42.894 256.216 -42.894 L 256.244 -43.314 L 259.268 -43.314 L 259.24 -42.894 Q 258.862 -42.894 258.596 -42.782 Q 258.33 -42.67 258.057 -42.355 Q 257.784 -42.04 257.35 -41.396 L 252.212 -34.046 L 251.75 -34.046 L 250.966 -41.62 Q 250.882 -42.32 250.658 -42.607 Q 250.434 -42.894 249.874 -42.894 L 249.902 -43.314 L 253.332 -43.314 L 253.29 -42.894 Q 252.758 -42.894 252.45 -42.684 Q 252.142 -42.474 252.17 -41.998 Q 252.17 -41.928 252.191 -41.746 Q 252.212 -41.564 252.212 -41.494 L 252.632 -37.504 L 252.73 -35.866 Z " fill="black" /><path d="M 257.591 -33.145 L 257.591 -33.145 L 257.591 -33.185 Q 257.248 -33.39 257.008 -33.719 Q 256.768 -34.047 256.768 -34.566 Q 256.768 -35.115 257.033 -35.507 Q 257.297 -35.899 257.748 -36.11 Q 258.199 -36.321 258.757 -36.321 Q 259.277 -36.321 259.605 -36.208 Q 259.933 -36.095 259.933 -36.095 L 261.374 -36.134 L 261.374 -35.556 L 260.345 -35.576 L 260.345 -35.507 Q 260.472 -35.331 260.61 -35.091 Q 260.747 -34.851 260.747 -34.419 Q 260.747 -33.929 260.487 -33.572 Q 260.227 -33.214 259.791 -33.023 Q 259.355 -32.832 258.806 -32.832 Q 258.307 -32.832 257.866 -33.008 Q 257.797 -32.881 257.704 -32.646 Q 257.611 -32.41 257.611 -32.244 Q 257.611 -32.038 257.851 -31.94 Q 258.091 -31.842 258.806 -31.842 Q 259.336 -31.842 259.786 -31.817 Q 260.237 -31.793 260.57 -31.68 Q 260.904 -31.568 261.085 -31.318 Q 261.266 -31.068 261.266 -30.607 Q 261.266 -30.078 260.997 -29.71 Q 260.727 -29.343 260.286 -29.118 Q 259.845 -28.892 259.331 -28.789 Q 258.816 -28.686 258.316 -28.686 Q 257.601 -28.686 257.209 -28.863 Q 256.817 -29.039 256.665 -29.314 Q 256.513 -29.588 256.513 -29.872 Q 256.513 -30.147 256.704 -30.416 Q 256.895 -30.686 257.317 -31.078 L 257.317 -31.127 Q 257.072 -31.254 256.905 -31.47 Q 256.739 -31.685 256.739 -31.891 Q 256.739 -32.185 256.998 -32.513 Q 257.258 -32.842 257.591 -33.145 Z M 257.64 -31.029 L 257.64 -31.029 Q 257.474 -30.744 257.415 -30.578 Q 257.356 -30.411 257.356 -30.245 Q 257.356 -29.794 257.724 -29.564 Q 258.091 -29.333 258.865 -29.333 Q 259.502 -29.333 259.894 -29.49 Q 260.286 -29.647 260.472 -29.867 Q 260.659 -30.088 260.659 -30.294 Q 260.659 -30.558 260.487 -30.705 Q 260.316 -30.852 260.051 -30.916 Q 259.786 -30.98 259.492 -30.999 Q 259.198 -31.019 258.944 -31.019 Q 258.875 -31.019 258.836 -31.019 Q 258.209 -31.019 257.978 -31.024 Q 257.748 -31.029 257.64 -31.029 Z M 258.699 -35.889 L 258.699 -35.889 Q 258.277 -35.889 258.017 -35.605 Q 257.758 -35.321 257.758 -34.625 Q 257.758 -33.939 258.032 -33.586 Q 258.307 -33.234 258.806 -33.234 Q 259.071 -33.234 259.287 -33.341 Q 259.502 -33.449 259.635 -33.733 Q 259.767 -34.018 259.767 -34.537 Q 259.767 -35.203 259.478 -35.546 Q 259.189 -35.889 258.699 -35.889 Z " fill="black" /><path d="M 262.236 -32.959 L 262.236 -32.959 L 262.55 -32.959 Q 262.677 -32.391 262.854 -32.077 Q 263.03 -31.764 263.309 -31.641 Q 263.589 -31.519 263.991 -31.519 Q 264.451 -31.519 264.701 -31.671 Q 264.951 -31.822 264.951 -32.205 Q 264.951 -32.459 264.828 -32.631 Q 264.706 -32.802 264.436 -32.959 Q 264.167 -33.116 263.716 -33.322 Q 263.256 -33.547 262.927 -33.743 Q 262.599 -33.939 262.428 -34.204 Q 262.256 -34.468 262.256 -34.87 Q 262.256 -35.576 262.731 -35.948 Q 263.207 -36.321 263.922 -36.321 Q 264.353 -36.321 264.652 -36.213 Q 264.951 -36.105 265.127 -36.027 L 265.147 -36.027 L 265.304 -36.272 L 265.578 -36.272 L 265.598 -34.645 L 265.255 -34.645 Q 265.069 -35.399 264.735 -35.659 Q 264.402 -35.919 263.971 -35.919 Q 263.52 -35.919 263.29 -35.723 Q 263.06 -35.527 263.06 -35.213 Q 263.06 -34.958 263.216 -34.792 Q 263.373 -34.625 263.662 -34.483 Q 263.951 -34.341 264.353 -34.145 Q 264.804 -33.929 265.147 -33.699 Q 265.49 -33.469 265.686 -33.18 Q 265.882 -32.891 265.882 -32.459 Q 265.882 -31.94 265.608 -31.626 Q 265.333 -31.313 264.902 -31.18 Q 264.471 -31.048 264 -31.048 Q 263.52 -31.048 263.256 -31.146 Q 262.991 -31.244 262.766 -31.332 L 262.726 -31.332 L 262.481 -31.078 L 262.256 -31.078 Z " fill="black" /></g></g></g><circle cx="360" cy="-72" r="2.7" style="stroke:black;fill:black;stroke-width:2.0;stroke-dasharray:-;" /><g><g><g><path d="M 330.751 -40.76 L 330.751 -40.76 L 330.667 -40.046 L 329.449 -40.186 L 329.449 -40.144 Q 329.687 -39.878 329.82 -39.479 Q 329.953 -39.08 329.953 -38.716 Q 329.953 -38.086 329.701 -37.659 Q 329.449 -37.232 329.043 -36.973 Q 328.637 -36.714 328.147 -36.581 Q 327.657 -36.448 327.195 -36.406 Q 326.635 -36.35 326.404 -36.168 Q 326.173 -35.986 326.173 -35.79 Q 326.173 -35.538 326.453 -35.405 Q 326.733 -35.272 327.174 -35.188 Q 327.615 -35.104 328.119 -34.999 Q 328.623 -34.894 329.064 -34.712 Q 329.505 -34.53 329.785 -34.201 Q 330.065 -33.872 330.065 -33.326 Q 330.065 -32.724 329.673 -32.213 Q 329.281 -31.702 328.511 -31.387 Q 327.741 -31.072 326.621 -31.072 Q 325.613 -31.072 325.011 -31.317 Q 324.409 -31.562 324.143 -31.947 Q 323.877 -32.332 323.877 -32.752 Q 323.877 -33.424 324.395 -33.837 Q 324.913 -34.25 325.571 -34.46 L 325.571 -34.516 Q 325.389 -34.628 325.228 -34.831 Q 325.067 -35.034 325.067 -35.356 Q 325.067 -35.706 325.249 -35.916 Q 325.431 -36.126 325.718 -36.259 Q 326.005 -36.392 326.285 -36.49 L 326.285 -36.574 Q 325.739 -36.812 325.333 -37.246 Q 324.927 -37.68 324.927 -38.478 Q 324.927 -39.206 325.277 -39.759 Q 325.627 -40.312 326.236 -40.62 Q 326.845 -40.928 327.601 -40.928 Q 328.105 -40.928 328.364 -40.879 Q 328.623 -40.83 328.875 -40.76 Z M 329.057 -32.808 L 329.057 -32.808 Q 329.057 -33.228 328.707 -33.487 Q 328.357 -33.746 327.839 -33.9 Q 327.321 -34.054 326.796 -34.145 Q 326.271 -34.236 325.907 -34.306 Q 325.557 -34.082 325.263 -33.795 Q 324.969 -33.508 324.969 -32.962 Q 324.969 -32.402 325.403 -31.982 Q 325.837 -31.562 326.901 -31.562 Q 327.909 -31.562 328.483 -31.933 Q 329.057 -32.304 329.057 -32.808 Z M 328.707 -38.87 L 328.707 -38.87 Q 328.707 -39.57 328.441 -40.039 Q 328.175 -40.508 327.559 -40.508 Q 326.957 -40.508 326.565 -40.004 Q 326.173 -39.5 326.173 -38.478 Q 326.173 -37.75 326.425 -37.295 Q 326.677 -36.84 327.279 -36.84 Q 327.979 -36.84 328.343 -37.428 Q 328.707 -38.016 328.707 -38.87 Z " fill="black" /><path d="M 333.975 -36.427 L 333.975 -36.427 Q 334.71 -36.427 335.259 -36.108 Q 335.808 -35.79 336.107 -35.217 Q 336.406 -34.643 336.406 -33.869 Q 336.406 -32.938 336.092 -32.34 Q 335.779 -31.743 335.23 -31.453 Q 334.681 -31.164 333.975 -31.164 Q 333.26 -31.164 332.706 -31.463 Q 332.153 -31.762 331.844 -32.36 Q 331.535 -32.958 331.535 -33.859 Q 331.535 -34.624 331.839 -35.202 Q 332.143 -35.78 332.692 -36.104 Q 333.24 -36.427 333.975 -36.427 Z M 333.956 -35.976 L 333.956 -35.976 Q 333.309 -35.976 332.942 -35.452 Q 332.574 -34.928 332.574 -33.918 Q 332.574 -32.674 332.951 -32.159 Q 333.329 -31.645 334.005 -31.645 Q 334.436 -31.654 334.74 -31.86 Q 335.044 -32.066 335.205 -32.551 Q 335.367 -33.036 335.367 -33.869 Q 335.367 -34.869 335.024 -35.422 Q 334.681 -35.976 333.956 -35.976 Z " fill="black" /><path d="M 343.07 -31.782 L 343.07 -31.782 L 343.07 -31.409 L 341.747 -31.233 L 341.433 -31.233 L 341.433 -31.997 L 341.335 -31.997 Q 340.963 -31.664 340.581 -31.424 Q 340.198 -31.184 339.659 -31.184 Q 338.934 -31.184 338.552 -31.625 Q 338.17 -32.066 338.17 -33.154 L 338.17 -35.261 Q 338.17 -35.663 338.028 -35.756 Q 337.886 -35.849 337.435 -35.849 L 337.435 -36.202 L 338.797 -36.388 L 339.12 -36.388 L 339.12 -33.281 Q 339.12 -32.732 339.248 -32.429 Q 339.375 -32.125 339.591 -32.007 Q 339.806 -31.89 340.061 -31.89 Q 340.492 -31.89 340.781 -32.071 Q 341.071 -32.252 341.384 -32.507 L 341.384 -35.261 Q 341.384 -35.663 341.208 -35.756 Q 341.031 -35.849 340.532 -35.849 L 340.532 -36.202 L 341.992 -36.388 L 342.335 -36.388 L 342.335 -32.419 Q 342.335 -32.125 342.389 -31.988 Q 342.443 -31.85 342.58 -31.816 Q 342.717 -31.782 342.962 -31.782 Z " fill="black" /><path d="M 346.892 -32.262 L 346.892 -32.262 L 347.117 -32.076 Q 346.902 -31.782 346.725 -31.581 Q 346.549 -31.38 346.323 -31.272 Q 346.098 -31.164 345.745 -31.164 Q 345.177 -31.164 344.917 -31.488 Q 344.657 -31.811 344.657 -32.527 L 344.657 -35.819 L 344.04 -35.819 L 344.04 -36.113 Q 344.393 -36.368 344.687 -36.736 Q 344.981 -37.103 345.275 -37.789 L 345.618 -37.789 L 345.608 -36.3 L 346.853 -36.3 L 346.853 -35.819 L 345.608 -35.819 L 345.608 -32.85 Q 345.608 -32.301 345.711 -32.071 Q 345.814 -31.841 346.127 -31.841 Q 346.412 -31.841 346.559 -31.944 Q 346.706 -32.046 346.892 -32.262 Z " fill="black" /></g></g></g><g><g><g><path d="M 388.523 -80.408 L 388.523 -80.408 L 392.345 -86.148 Q 392.541 -86.428 392.66 -86.666 Q 392.779 -86.904 392.779 -87.072 Q 392.779 -87.282 392.597 -87.359 Q 392.415 -87.436 391.939 -87.436 L 391.967 -87.856 L 394.991 -87.856 L 394.963 -87.436 Q 394.585 -87.436 394.319 -87.324 Q 394.053 -87.212 393.78 -86.897 Q 393.507 -86.582 393.073 -85.938 L 387.935 -78.588 L 387.473 -78.588 L 386.689 -86.162 Q 386.605 -86.862 386.381 -87.149 Q 386.157 -87.436 385.597 -87.436 L 385.625 -87.856 L 389.055 -87.856 L 389.013 -87.436 Q 388.481 -87.436 388.173 -87.226 Q 387.865 -87.016 387.893 -86.54 Q 387.893 -86.47 387.914 -86.288 Q 387.935 -86.106 387.935 -86.036 L 388.355 -82.046 L 388.453 -80.408 Z " fill="black" /><path d="M 394.911 -80.863 L 394.911 -80.863 Q 395.646 -80.863 396.195 -80.544 Q 396.743 -80.226 397.042 -79.652 Q 397.341 -79.079 397.341 -78.305 Q 397.341 -77.374 397.028 -76.776 Q 396.714 -76.178 396.165 -75.889 Q 395.616 -75.6 394.911 -75.6 Q 394.195 -75.6 393.642 -75.899 Q 393.088 -76.198 392.779 -76.796 Q 392.471 -77.393 392.471 -78.295 Q 392.471 -79.059 392.774 -79.638 Q 393.078 -80.216 393.627 -80.539 Q 394.176 -80.863 394.911 -80.863 Z M 394.891 -80.412 L 394.891 -80.412 Q 394.244 -80.412 393.877 -79.888 Q 393.509 -79.363 393.509 -78.354 Q 393.509 -77.109 393.887 -76.595 Q 394.264 -76.08 394.94 -76.08 Q 395.371 -76.09 395.675 -76.296 Q 395.979 -76.502 396.141 -76.987 Q 396.302 -77.472 396.302 -78.305 Q 396.302 -79.304 395.959 -79.858 Q 395.616 -80.412 394.891 -80.412 Z " fill="black" /><path d="M 404.005 -76.217 L 404.005 -76.217 L 404.005 -75.845 L 402.682 -75.669 L 402.369 -75.669 L 402.369 -76.433 L 402.271 -76.433 Q 401.898 -76.1 401.516 -75.86 Q 401.134 -75.62 400.595 -75.62 Q 399.87 -75.62 399.487 -76.061 Q 399.105 -76.502 399.105 -77.589 L 399.105 -79.696 Q 399.105 -80.098 398.963 -80.191 Q 398.821 -80.284 398.37 -80.284 L 398.37 -80.637 L 399.732 -80.823 L 400.056 -80.823 L 400.056 -77.717 Q 400.056 -77.168 400.183 -76.864 Q 400.311 -76.56 400.526 -76.443 Q 400.742 -76.325 400.997 -76.325 Q 401.428 -76.325 401.717 -76.507 Q 402.006 -76.688 402.32 -76.943 L 402.32 -79.696 Q 402.32 -80.098 402.143 -80.191 Q 401.967 -80.284 401.467 -80.284 L 401.467 -80.637 L 402.927 -80.823 L 403.27 -80.823 L 403.27 -76.854 Q 403.27 -76.56 403.324 -76.423 Q 403.378 -76.286 403.515 -76.252 Q 403.652 -76.217 403.897 -76.217 Z " fill="black" /><path d="M 407.827 -76.698 L 407.827 -76.698 L 408.053 -76.511 Q 407.837 -76.217 407.661 -76.017 Q 407.484 -75.816 407.259 -75.708 Q 407.033 -75.6 406.681 -75.6 Q 406.112 -75.6 405.853 -75.923 Q 405.593 -76.247 405.593 -76.962 L 405.593 -80.255 L 404.975 -80.255 L 404.975 -80.549 Q 405.328 -80.804 405.622 -81.171 Q 405.916 -81.539 406.21 -82.225 L 406.553 -82.225 L 406.543 -80.735 L 407.788 -80.735 L 407.788 -80.255 L 406.543 -80.255 L 406.543 -77.286 Q 406.543 -76.737 406.646 -76.507 Q 406.749 -76.276 407.063 -76.276 Q 407.347 -76.276 407.494 -76.379 Q 407.641 -76.482 407.827 -76.698 Z " fill="black" /></g></g></g><g><g><g><path d="M 412.722 -34.81 L 412.722 -34.81 L 412.974 -34.544 Q 412.26 -33.704 411.322 -33.165 Q 410.384 -32.626 409.054 -32.626 Q 407.794 -32.626 407.038 -33.095 Q 406.282 -33.564 405.953 -34.348 Q 405.624 -35.132 405.624 -36.056 Q 405.624 -37.526 406.072 -38.667 Q 406.52 -39.808 407.297 -40.585 Q 408.074 -41.362 409.054 -41.761 Q 410.034 -42.16 411.098 -42.16 Q 411.812 -42.16 412.211 -42.034 Q 412.61 -41.908 412.834 -41.775 Q 413.058 -41.642 413.226 -41.642 Q 413.394 -41.642 413.52 -41.782 Q 413.646 -41.922 413.814 -42.146 L 414.22 -42.146 L 413.562 -38.94 L 413.1 -38.94 Q 413.156 -40.34 412.582 -40.949 Q 412.008 -41.558 410.972 -41.558 Q 410.16 -41.558 409.446 -41.187 Q 408.732 -40.816 408.179 -40.137 Q 407.626 -39.458 407.311 -38.513 Q 406.996 -37.568 406.996 -36.406 Q 406.996 -35.006 407.661 -34.271 Q 408.326 -33.536 409.712 -33.536 Q 411.322 -33.536 412.722 -34.81 Z " fill="black" /><path d="M 420.005 -31.927 L 420.005 -31.927 L 419.75 -29.84 L 414.36 -29.84 L 414.36 -30.212 Q 414.801 -30.212 415.007 -30.286 Q 415.213 -30.359 415.276 -30.57 Q 415.34 -30.781 415.34 -31.192 L 415.34 -35.279 Q 415.34 -35.71 415.276 -35.941 Q 415.213 -36.171 415.007 -36.264 Q 414.801 -36.357 414.36 -36.357 L 414.36 -36.729 L 417.418 -36.729 L 417.418 -36.357 Q 416.986 -36.357 416.761 -36.269 Q 416.536 -36.181 416.452 -35.945 Q 416.369 -35.71 416.369 -35.269 L 416.369 -30.918 Q 416.369 -30.536 416.526 -30.433 Q 416.683 -30.33 417.075 -30.33 L 417.702 -30.33 Q 418.221 -30.33 418.535 -30.399 Q 418.848 -30.467 419.03 -30.639 Q 419.211 -30.81 419.329 -31.124 Q 419.446 -31.437 419.593 -31.927 Z " fill="black" /></g></g></g></svg>