<svg xmlns="http://www.w3.org/2000/svg" xmlns:xlink="http://www.w3.org/1999/xlink" xml:lang="en" height="295.04pt" width="344.0pt" viewBox="-100.0 -109.00000000000001 344.0 295.04"><circle cx="108" cy="36" r="18" style="stroke:black;fill:none;stroke-width:2.0;stroke-dasharray:-;" /><path d="M 0.0,-0.0 L -36,-0 L -72,-0" style="stroke:black;fill:none;stroke-width:2.0;stroke-dasharray:-;stroke-linecap:round;stroke-linejoin:round;" /><path d="M -72.0,-8.817456953860943e-15 L -72,14.4 L -81,14.4 L -63,14.4 M -78.3,18.72 L -65.7,18.72 M -73.8,23.04 L -70.2,23.04" style="stroke:black;fill:none;stroke-width:2.0;stroke-dasharray:-;stroke-linecap:round;stroke-linejoin:round;" /><path d="M -1.3226185430791413e-14,72.0 L 54,72 L 108,72" style="stroke:black;fill:none;stroke-width:2.0;stroke-dasharray:-;stroke-linecap:round;stroke-linejoin:round;" /><path d="M 107.99999999999999,72.0 L 108,90 L 117,93 L 99,99 L 117,105 L 99,111 L 117,117 L 99,123 L 108,126 L 108,144" style="stroke:black;fill:none;stroke-width:2.0;stroke-dasharray:-;stroke-linecap:round;stroke-linejoin:round;" /><path d="M 107.99999999999997,144.0 L 108,158.4 L 99,158.4 L 117,158.4 M 101.7,162.72 L 114.3,162.72 M 106.2,167.04 L 109.8,167.04" style="stroke:black;fill:none;stroke-width:2.0;stroke-dasharray:-;stroke-linecap:round;stroke-linejoin:round;" /><path d="M 108.0,-0.0 L 108,18 L 108,18 M 108,54 L 108,54 L 108,72" style="stroke:black;fill:none;stroke-width:2.0;stroke-dasharray:-;stroke-linecap:round;stroke-linejoin:round;" /><path d="M 108.0,27.0 L 108,36" style="stroke:black;fill:none;stroke-width:2.0;stroke-dasharray:-;stroke-linecap:round;stroke-linejoin:round;" /><path d="M 108 43 L 105.3 36 L 110.7 36 Z" style="stroke:black;fill:black;stroke-linecap:butt;stroke-linejoin:miter;" /><path d="M 107.99999999999999,72.0 L 162,72 L 216,72" style="stroke:black;fill:none;stroke-width:2.0;stroke-dasharray:-;stroke-linecap:round;stroke-linejoin:round;" /><path d="M 216.0,72.0 L 216,54 L 207,51 L 225,45 L 207,39 L 225,33 L 207,27 L 225,21 L 216,18 L 216,-0" style="stroke:black;fill:none;stroke-width:2.0;stroke-dasharray:-;stroke-linecap:round;stroke-linejoin:round;" /><path d="M 216.0,-0.0 L 162,-0 L 108,-0" style="stroke:black;fill:none;stroke-width:2.0;stroke-dasharray:-;stroke-linecap:round;stroke-linejoin:round;" /><path d="M 108.0,-1.3226185430791413e-14 L 108,-18 L 99,-21 L 117,-27 L 99,-33 L 117,-39 L 99,-45 L 117,-51 L 108,-54 L 108,-72" style="stroke:black;fill:none;stroke-width:2.0;stroke-dasharray:-;stroke-linecap:round;stroke-linejoin:round;" /><path d="M 108.0,-72.00000000000001 L 108,-81 L 108,-90" style="stroke:black;fill:none;stroke-width:2.0;stroke-dasharray:-;stroke-linecap:round;stroke-linejoin:round;" /><path d="M 108.0,-90.00000000000001 L 126,-90 L 144,-90" style="stroke:black;fill:none;stroke-width:2.0;stroke-dasharray:-;stroke-linecap:round;stroke-linejoin:round;" /><path d="M 144.0,-90.00000000000001 L 144,-75.6 L 135,-75.6 L 153,-75.6 M 137.7,-71.28 L 150.3,-71.28 M 142.2,-66.96 L 145.8,-66.96" style="stroke:black;fill:none;stroke-width:2.0;stroke-dasharray:-;stroke-linecap:round;stroke-linejoin:round;" /><circle cx="0" cy="-0" r="2.7" style="stroke:black;fill:white;stroke-width:2.0;stroke-dasharray:-;" /><g><g><g><path d="M 4.606 18.476 L 4.606 18.476 L 0.938 18.476 L 0.938 22.186 L -0.07 22.186 L -0.07 18.476 L -3.738 18.476 L -3.738 17.524 L -0.07 17.524 L -0.07 13.814 L 0.938 13.814 L 0.938 17.524 L 4.606 17.524 Z " fill="black" /></g></g></g><g><g><g><path d="M -4.371 36.134 L -4.371 36.134 L -0.549 30.394 Q -0.353 30.114 -0.234 29.876 Q -0.115 29.638 -0.115 29.47 Q -0.115 29.26 -0.297 29.183 Q -0.479 29.106 -0.955 29.106 L -0.927 28.686 L 2.097 28.686 L 2.069 29.106 Q 1.691 29.106 1.425 29.218 Q 1.159 29.33 0.886 29.645 Q 0.613 29.96 0.179 30.604 L -4.959 37.954 L -5.421 37.954 L -6.205 30.38 Q -6.289 29.68 -6.513 29.393 Q -6.737 29.106 -7.297 29.106 L -7.269 28.686 L -3.839 28.686 L -3.881 29.106 Q -4.413 29.106 -4.721 29.316 Q -5.029 29.526 -5.001 30.002 Q -5.001 30.072 -4.98 30.254 Q -4.959 30.436 -4.959 30.506 L -4.539 34.496 L -4.441 36.134 Z " fill="black" /><path d="M 0.42 38.855 L 0.42 38.855 L 0.42 38.815 Q 0.077 38.61 -0.163 38.281 Q -0.403 37.953 -0.403 37.434 Q -0.403 36.885 -0.139 36.493 Q 0.126 36.101 0.577 35.89 Q 1.028 35.679 1.586 35.679 Q 2.106 35.679 2.434 35.792 Q 2.762 35.905 2.762 35.905 L 4.203 35.866 L 4.203 36.444 L 3.174 36.424 L 3.174 36.493 Q 3.301 36.669 3.438 36.909 Q 3.576 37.149 3.576 37.581 Q 3.576 38.071 3.316 38.428 Q 3.056 38.786 2.62 38.977 Q 2.184 39.168 1.635 39.168 Q 1.135 39.168 0.694 38.992 Q 0.626 39.119 0.533 39.354 Q 0.44 39.59 0.44 39.756 Q 0.44 39.962 0.68 40.06 Q 0.92 40.158 1.635 40.158 Q 2.164 40.158 2.615 40.182 Q 3.066 40.207 3.399 40.32 Q 3.732 40.432 3.914 40.682 Q 4.095 40.932 4.095 41.393 Q 4.095 41.922 3.825 42.289 Q 3.556 42.657 3.115 42.882 Q 2.674 43.108 2.159 43.211 Q 1.645 43.314 1.145 43.314 Q 0.43 43.314 0.038 43.137 Q -0.354 42.961 -0.506 42.686 Q -0.658 42.412 -0.658 42.128 Q -0.658 41.853 -0.467 41.584 Q -0.276 41.314 0.146 40.922 L 0.146 40.873 Q -0.099 40.746 -0.266 40.53 Q -0.433 40.315 -0.433 40.109 Q -0.433 39.815 -0.173 39.487 Q 0.087 39.158 0.42 38.855 Z M 0.469 40.971 L 0.469 40.971 Q 0.302 41.256 0.244 41.422 Q 0.185 41.589 0.185 41.755 Q 0.185 42.206 0.552 42.436 Q 0.92 42.667 1.694 42.667 Q 2.331 42.667 2.723 42.51 Q 3.115 42.353 3.301 42.133 Q 3.487 41.912 3.487 41.706 Q 3.487 41.442 3.316 41.295 Q 3.144 41.148 2.88 41.084 Q 2.615 41.02 2.321 41.001 Q 2.027 40.981 1.772 40.981 Q 1.704 40.981 1.665 40.981 Q 1.037 40.981 0.807 40.976 Q 0.577 40.971 0.469 40.971 Z M 1.527 36.111 L 1.527 36.111 Q 1.106 36.111 0.846 36.395 Q 0.587 36.679 0.587 37.375 Q 0.587 38.061 0.861 38.414 Q 1.135 38.766 1.635 38.766 Q 1.9 38.766 2.115 38.659 Q 2.331 38.551 2.463 38.267 Q 2.596 37.982 2.596 37.463 Q 2.596 36.797 2.306 36.454 Q 2.017 36.111 1.527 36.111 Z " fill="black" /><path d="M 5.065 39.041 L 5.065 39.041 L 5.379 39.041 Q 5.506 39.609 5.683 39.923 Q 5.859 40.236 6.138 40.359 Q 6.418 40.481 6.819 40.481 Q 7.28 40.481 7.53 40.329 Q 7.78 40.178 7.78 39.795 Q 7.78 39.541 7.657 39.369 Q 7.535 39.198 7.265 39.041 Q 6.996 38.884 6.545 38.678 Q 6.084 38.453 5.756 38.257 Q 5.428 38.061 5.256 37.796 Q 5.085 37.532 5.085 37.13 Q 5.085 36.424 5.56 36.052 Q 6.035 35.679 6.751 35.679 Q 7.182 35.679 7.481 35.787 Q 7.78 35.895 7.956 35.973 L 7.976 35.973 L 8.133 35.728 L 8.407 35.728 L 8.427 37.355 L 8.084 37.355 Q 7.897 36.601 7.564 36.341 Q 7.231 36.081 6.8 36.081 Q 6.349 36.081 6.119 36.277 Q 5.888 36.473 5.888 36.787 Q 5.888 37.042 6.045 37.208 Q 6.202 37.375 6.491 37.517 Q 6.78 37.659 7.182 37.855 Q 7.633 38.071 7.976 38.301 Q 8.319 38.531 8.515 38.82 Q 8.711 39.109 8.711 39.541 Q 8.711 40.06 8.436 40.374 Q 8.162 40.687 7.731 40.819 Q 7.3 40.952 6.829 40.952 Q 6.349 40.952 6.084 40.854 Q 5.82 40.756 5.594 40.668 L 5.555 40.668 L 5.31 40.922 L 5.085 40.922 Z " fill="black" /></g></g></g><g><g><g><rect x="-1.89" y="49.912" width="3.78" height="0.952" fill="black" /></g></g></g><circle cx="108" cy="72" r="2.7" style="stroke:black;fill:black;stroke-width:2.0;stroke-dasharray:-;" /><circle cx="-0" cy="72" r="2.7" style="stroke:black;fill:white;stroke-width:2.0;stroke-dasharray:-;" /><g><g><g><path d="M 89.663 106.816 L 89.663 106.816 L 89.593 107.25 Q 89.201 107.25 88.977 107.334 Q 88.753 107.418 88.641 107.649 Q 88.529 107.88 88.445 108.314 L 88.025 110.344 Q 87.171 110.778 86.38 111.037 Q 85.589 111.296 84.469 111.296 Q 83.461 111.296 82.782 111.016 Q 82.103 110.736 81.704 110.253 Q 81.305 109.77 81.13 109.154 Q 80.955 108.538 80.955 107.866 Q 80.955 106.354 81.424 105.206 Q 81.893 104.058 82.684 103.295 Q 83.475 102.532 84.469 102.147 Q 85.463 101.762 86.513 101.762 Q 87.255 101.762 87.668 101.888 Q 88.081 102.014 88.305 102.147 Q 88.529 102.28 88.711 102.28 Q 88.865 102.28 88.991 102.14 Q 89.117 102 89.285 101.776 L 89.677 101.776 L 89.033 104.982 L 88.571 104.982 Q 88.613 103.582 88.039 102.973 Q 87.465 102.364 86.387 102.364 Q 85.323 102.364 84.406 102.987 Q 83.489 103.61 82.936 104.765 Q 82.383 105.92 82.369 107.53 Q 82.369 109.084 82.95 109.882 Q 83.531 110.68 84.805 110.68 Q 85.449 110.68 85.939 110.484 Q 86.429 110.288 86.891 109.98 L 87.185 108.454 Q 87.297 107.95 87.262 107.691 Q 87.227 107.432 86.989 107.341 Q 86.751 107.25 86.219 107.25 L 86.303 106.816 Z " fill="black" /><path d="M 95.366 109.191 L 95.366 109.191 L 94.984 109.191 Q 94.847 108.682 94.646 108.314 Q 94.445 107.947 94.112 107.741 Q 93.779 107.535 93.24 107.535 Q 92.73 107.535 92.426 107.79 Q 92.123 108.045 92.123 108.505 Q 92.123 108.917 92.382 109.206 Q 92.642 109.495 93.049 109.725 Q 93.455 109.956 93.916 110.186 Q 94.377 110.416 94.783 110.701 Q 95.19 110.985 95.45 111.377 Q 95.709 111.769 95.709 112.337 Q 95.709 112.945 95.425 113.366 Q 95.141 113.788 94.651 114.003 Q 94.161 114.219 93.544 114.219 Q 92.985 114.219 92.637 114.14 Q 92.289 114.062 92.083 113.984 Q 91.878 113.905 91.74 113.905 Q 91.623 113.905 91.539 113.988 Q 91.456 114.072 91.446 114.238 L 91.015 114.238 L 91.015 111.896 L 91.397 111.896 Q 91.584 112.582 91.814 112.974 Q 92.044 113.366 92.407 113.528 Q 92.769 113.69 93.338 113.69 Q 93.926 113.69 94.279 113.459 Q 94.631 113.229 94.631 112.612 Q 94.631 112.19 94.381 111.896 Q 94.132 111.602 93.735 111.372 Q 93.338 111.142 92.892 110.916 Q 92.446 110.691 92.049 110.416 Q 91.652 110.142 91.402 109.755 Q 91.152 109.368 91.152 108.809 Q 91.152 108.241 91.437 107.854 Q 91.721 107.467 92.186 107.271 Q 92.652 107.075 93.191 107.075 Q 93.681 107.075 93.96 107.158 Q 94.239 107.241 94.396 107.325 Q 94.553 107.408 94.661 107.408 Q 94.808 107.408 94.881 107.344 Q 94.955 107.28 94.994 107.104 L 95.366 107.104 Z " fill="black" /></g></g></g><g><g><g><path d="M 59.122 31.346 L 59.122 31.346 L 59.038 32.06 L 57.82 31.92 L 57.82 31.962 Q 58.058 32.228 58.191 32.627 Q 58.324 33.026 58.324 33.39 Q 58.324 34.02 58.072 34.447 Q 57.82 34.874 57.414 35.133 Q 57.008 35.392 56.518 35.525 Q 56.028 35.658 55.566 35.7 Q 55.006 35.756 54.775 35.938 Q 54.544 36.12 54.544 36.316 Q 54.544 36.568 54.824 36.701 Q 55.104 36.834 55.545 36.918 Q 55.986 37.002 56.49 37.107 Q 56.994 37.212 57.435 37.394 Q 57.876 37.576 58.156 37.905 Q 58.436 38.234 58.436 38.78 Q 58.436 39.382 58.044 39.893 Q 57.652 40.404 56.882 40.719 Q 56.112 41.034 54.992 41.034 Q 53.984 41.034 53.382 40.789 Q 52.78 40.544 52.514 40.159 Q 52.248 39.774 52.248 39.354 Q 52.248 38.682 52.766 38.269 Q 53.284 37.856 53.942 37.646 L 53.942 37.59 Q 53.76 37.478 53.599 37.275 Q 53.438 37.072 53.438 36.75 Q 53.438 36.4 53.62 36.19 Q 53.802 35.98 54.089 35.847 Q 54.376 35.714 54.656 35.616 L 54.656 35.532 Q 54.11 35.294 53.704 34.86 Q 53.298 34.426 53.298 33.628 Q 53.298 32.9 53.648 32.347 Q 53.998 31.794 54.607 31.486 Q 55.216 31.178 55.972 31.178 Q 56.476 31.178 56.735 31.227 Q 56.994 31.276 57.246 31.346 Z M 57.428 39.298 L 57.428 39.298 Q 57.428 38.878 57.078 38.619 Q 56.728 38.36 56.21 38.206 Q 55.692 38.052 55.167 37.961 Q 54.642 37.87 54.278 37.8 Q 53.928 38.024 53.634 38.311 Q 53.34 38.598 53.34 39.144 Q 53.34 39.704 53.774 40.124 Q 54.208 40.544 55.272 40.544 Q 56.28 40.544 56.854 40.173 Q 57.428 39.802 57.428 39.298 Z M 57.078 33.236 L 57.078 33.236 Q 57.078 32.536 56.812 32.067 Q 56.546 31.598 55.93 31.598 Q 55.328 31.598 54.936 32.102 Q 54.544 32.606 54.544 33.628 Q 54.544 34.356 54.796 34.811 Q 55.048 35.266 55.65 35.266 Q 56.35 35.266 56.714 34.678 Q 57.078 34.09 57.078 33.236 Z " fill="black" /><path d="M 61.514 37.032 L 61.514 37.032 L 61.514 39.746 Q 61.514 40.04 61.572 40.197 Q 61.631 40.354 61.798 40.408 Q 61.964 40.462 62.288 40.462 L 62.288 40.824 L 59.818 40.824 L 59.818 40.462 Q 60.132 40.462 60.289 40.408 Q 60.445 40.354 60.494 40.192 Q 60.543 40.031 60.543 39.727 L 60.543 36.757 Q 60.543 36.483 60.441 36.39 Q 60.338 36.297 60.112 36.297 Q 60.004 36.297 59.921 36.307 Q 59.838 36.316 59.838 36.316 L 59.838 35.944 L 61.122 35.709 L 61.484 35.709 L 61.484 36.512 L 61.553 36.512 Q 61.964 36.14 62.376 35.91 Q 62.788 35.679 63.346 35.679 Q 63.807 35.679 64.096 35.915 Q 64.385 36.15 64.542 36.493 L 64.591 36.493 Q 65.483 35.679 66.306 35.679 Q 66.972 35.679 67.359 36.091 Q 67.746 36.503 67.746 37.394 L 67.746 39.55 Q 67.746 39.884 67.786 40.084 Q 67.825 40.285 67.982 40.374 Q 68.138 40.462 68.491 40.462 L 68.491 40.824 L 66.031 40.824 L 66.031 40.462 Q 66.394 40.462 66.556 40.369 Q 66.717 40.276 66.757 40.075 Q 66.796 39.874 66.796 39.55 L 66.796 37.512 Q 66.796 36.895 66.546 36.65 Q 66.296 36.405 65.904 36.405 Q 65.571 36.405 65.238 36.605 Q 64.904 36.806 64.65 37.002 L 64.65 39.55 Q 64.65 39.913 64.694 40.114 Q 64.738 40.315 64.909 40.388 Q 65.081 40.462 65.443 40.462 L 65.443 40.824 L 62.886 40.824 L 62.886 40.462 Q 63.258 40.462 63.429 40.388 Q 63.601 40.315 63.65 40.114 Q 63.699 39.913 63.699 39.55 L 63.699 37.483 Q 63.699 36.865 63.478 36.635 Q 63.258 36.405 62.876 36.405 Q 62.474 36.405 62.106 36.62 Q 61.739 36.836 61.514 37.032 Z " fill="black" /><path d="M 72.8 36.134 L 72.8 36.134 L 76.622 30.394 Q 76.818 30.114 76.937 29.876 Q 77.056 29.638 77.056 29.47 Q 77.056 29.26 76.874 29.183 Q 76.692 29.106 76.216 29.106 L 76.244 28.686 L 79.268 28.686 L 79.24 29.106 Q 78.862 29.106 78.596 29.218 Q 78.33 29.33 78.057 29.645 Q 77.784 29.96 77.35 30.604 L 72.212 37.954 L 71.75 37.954 L 70.966 30.38 Q 70.882 29.68 70.658 29.393 Q 70.434 29.106 69.874 29.106 L 69.902 28.686 L 73.332 28.686 L 73.29 29.106 Q 72.758 29.106 72.45 29.316 Q 72.142 29.526 72.17 30.002 Q 72.17 30.072 72.191 30.254 Q 72.212 30.436 72.212 30.506 L 72.632 34.496 L 72.73 36.134 Z " fill="black" /><path d="M 77.591 38.855 L 77.591 38.855 L 77.591 38.815 Q 77.248 38.61 77.008 38.281 Q 76.768 37.953 76.768 37.434 Q 76.768 36.885 77.033 36.493 Q 77.297 36.101 77.748 35.89 Q 78.199 35.679 78.757 35.679 Q 79.277 35.679 79.605 35.792 Q 79.933 35.905 79.933 35.905 L 81.374 35.866 L 81.374 36.444 L 80.345 36.424 L 80.345 36.493 Q 80.472 36.669 80.61 36.909 Q 80.747 37.149 80.747 37.581 Q 80.747 38.071 80.487 38.428 Q 80.227 38.786 79.791 38.977 Q 79.355 39.168 78.806 39.168 Q 78.307 39.168 77.866 38.992 Q 77.797 39.119 77.704 39.354 Q 77.611 39.59 77.611 39.756 Q 77.611 39.962 77.851 40.06 Q 78.091 40.158 78.806 40.158 Q 79.336 40.158 79.786 40.182 Q 80.237 40.207 80.57 40.32 Q 80.904 40.432 81.085 40.682 Q 81.266 40.932 81.266 41.393 Q 81.266 41.922 80.997 42.289 Q 80.727 42.657 80.286 42.882 Q 79.845 43.108 79.331 43.211 Q 78.816 43.314 78.316 43.314 Q 77.601 43.314 77.209 43.137 Q 76.817 42.961 76.665 42.686 Q 76.513 42.412 76.513 42.128 Q 76.513 41.853 76.704 41.584 Q 76.895 41.314 77.317 40.922 L 77.317 40.873 Q 77.072 40.746 76.905 40.53 Q 76.739 40.315 76.739 40.109 Q 76.739 39.815 76.998 39.487 Q 77.258 39.158 77.591 38.855 Z M 77.64 40.971 L 77.64 40.971 Q 77.474 41.256 77.415 41.422 Q 77.356 41.589 77.356 41.755 Q 77.356 42.206 77.724 42.436 Q 78.091 42.667 78.865 42.667 Q 79.502 42.667 79.894 42.51 Q 80.286 42.353 80.472 42.133 Q 80.659 41.912 80.659 41.706 Q 80.659 41.442 80.487 41.295 Q 80.316 41.148 80.051 41.084 Q 79.786 41.02 79.492 41.001 Q 79.198 40.981 78.944 40.981 Q 78.875 40.981 78.836 40.981 Q 78.209 40.981 77.978 40.976 Q 77.748 40.971 77.64 40.971 Z M 78.699 36.111 L 78.699 36.111 Q 78.277 36.111 78.017 36.395 Q 77.758 36.679 77.758 37.375 Q 77.758 38.061 78.032 38.414 Q 78.307 38.766 78.806 38.766 Q 79.071 38.766 79.287 38.659 Q 79.502 38.551 79.634 38.267 Q 79.767 37.982 79.767 37.463 Q 79.767 36.797 79.478 36.454 Q 79.189 36.111 78.699 36.111 Z " fill="black" /><path d="M 82.236 39.041 L 82.236 39.041 L 82.55 39.041 Q 82.677 39.609 82.854 39.923 Q 83.03 40.236 83.309 40.359 Q 83.589 40.481 83.991 40.481 Q 84.451 40.481 84.701 40.329 Q 84.951 40.178 84.951 39.795 Q 84.951 39.541 84.828 39.369 Q 84.706 39.198 84.436 39.041 Q 84.167 38.884 83.716 38.678 Q 83.256 38.453 82.927 38.257 Q 82.599 38.061 82.427 37.796 Q 82.256 37.532 82.256 37.13 Q 82.256 36.424 82.731 36.052 Q 83.207 35.679 83.922 35.679 Q 84.353 35.679 84.652 35.787 Q 84.951 35.895 85.127 35.973 L 85.147 35.973 L 85.304 35.728 L 85.578 35.728 L 85.598 37.355 L 85.255 37.355 Q 85.069 36.601 84.735 36.341 Q 84.402 36.081 83.971 36.081 Q 83.52 36.081 83.29 36.277 Q 83.06 36.473 83.06 36.787 Q 83.06 37.042 83.216 37.208 Q 83.373 37.375 83.662 37.517 Q 83.951 37.659 84.353 37.855 Q 84.804 38.071 85.147 38.301 Q 85.49 38.531 85.686 38.82 Q 85.882 39.109 85.882 39.541 Q 85.882 40.06 85.608 40.374 Q 85.333 40.687 84.902 40.819 Q 84.471 40.952 84 40.952 Q 83.52 40.952 83.256 40.854 Q 82.991 40.756 82.766 40.668 L 82.726 40.668 L 82.481 40.922 L 82.256 40.922 Z " fill="black" /></g></g></g><g><g><g><path d="M 192.21 31.24 L 192.21 31.24 L 192.126 31.954 L 190.908 31.814 L 190.908 31.856 Q 191.146 32.122 191.279 32.521 Q 191.412 32.92 191.412 33.284 Q 191.412 33.914 191.16 34.341 Q 190.908 34.768 190.502 35.027 Q 190.096 35.286 189.606 35.419 Q 189.116 35.552 188.654 35.594 Q 188.094 35.65 187.863 35.832 Q 187.632 36.014 187.632 36.21 Q 187.632 36.462 187.912 36.595 Q 188.192 36.728 188.633 36.812 Q 189.074 36.896 189.578 37.001 Q 190.082 37.106 190.523 37.288 Q 190.964 37.47 191.244 37.799 Q 191.524 38.128 191.524 38.674 Q 191.524 39.276 191.132 39.787 Q 190.74 40.298 189.97 40.613 Q 189.2 40.928 188.08 40.928 Q 187.072 40.928 186.47 40.683 Q 185.868 40.438 185.602 40.053 Q 185.336 39.668 185.336 39.248 Q 185.336 38.576 185.854 38.163 Q 186.372 37.75 187.03 37.54 L 187.03 37.484 Q 186.848 37.372 186.687 37.169 Q 186.526 36.966 186.526 36.644 Q 186.526 36.294 186.708 36.084 Q 186.89 35.874 187.177 35.741 Q 187.464 35.608 187.744 35.51 L 187.744 35.426 Q 187.198 35.188 186.792 34.754 Q 186.386 34.32 186.386 33.522 Q 186.386 32.794 186.736 32.241 Q 187.086 31.688 187.695 31.38 Q 188.304 31.072 189.06 31.072 Q 189.564 31.072 189.823 31.121 Q 190.082 31.17 190.334 31.24 Z M 190.516 39.192 L 190.516 39.192 Q 190.516 38.772 190.166 38.513 Q 189.816 38.254 189.298 38.1 Q 188.78 37.946 188.255 37.855 Q 187.73 37.764 187.366 37.694 Q 187.016 37.918 186.722 38.205 Q 186.428 38.492 186.428 39.038 Q 186.428 39.598 186.862 40.018 Q 187.296 40.438 188.36 40.438 Q 189.368 40.438 189.942 40.067 Q 190.516 39.696 190.516 39.192 Z M 190.166 33.13 L 190.166 33.13 Q 190.166 32.43 189.9 31.961 Q 189.634 31.492 189.018 31.492 Q 188.416 31.492 188.024 31.996 Q 187.632 32.5 187.632 33.522 Q 187.632 34.25 187.884 34.705 Q 188.136 35.16 188.738 35.16 Q 189.438 35.16 189.802 34.572 Q 190.166 33.984 190.166 33.13 Z " fill="black" /><path d="M 198.198 40.591 L 198.198 40.591 L 196.875 40.767 L 196.522 40.767 L 196.522 40.081 L 196.453 40.081 Q 196.13 40.355 195.723 40.581 Q 195.316 40.806 194.807 40.806 Q 194.229 40.806 193.822 40.493 Q 193.415 40.179 193.2 39.63 Q 192.984 39.081 192.984 38.386 Q 192.984 37.513 193.322 36.881 Q 193.66 36.249 194.224 35.911 Q 194.787 35.573 195.454 35.573 Q 196.032 35.573 196.502 35.838 L 196.502 34.573 Q 196.502 34.221 196.429 34.108 Q 196.355 33.995 196.042 33.995 Q 195.973 33.995 195.86 34.01 Q 195.748 34.025 195.748 34.025 L 195.748 33.652 L 197.051 33.397 L 197.453 33.397 L 197.453 39.611 Q 197.453 39.993 197.561 40.105 Q 197.668 40.218 197.933 40.218 L 198.198 40.218 Z M 196.502 39.63 L 196.502 39.63 L 196.502 36.769 Q 196.394 36.494 196.144 36.279 Q 195.895 36.063 195.434 36.063 Q 194.777 36.063 194.356 36.509 Q 193.935 36.955 193.935 37.984 Q 193.935 39.032 194.302 39.517 Q 194.67 40.003 195.336 40.003 Q 195.65 40.003 195.909 39.914 Q 196.169 39.826 196.502 39.63 Z " fill="black" /><path d="M 199.236 38.934 L 199.236 38.934 L 199.55 38.934 Q 199.677 39.503 199.854 39.816 Q 200.03 40.13 200.31 40.252 Q 200.589 40.375 200.991 40.375 Q 201.451 40.375 201.701 40.223 Q 201.951 40.071 201.951 39.689 Q 201.951 39.434 201.829 39.263 Q 201.706 39.091 201.436 38.934 Q 201.167 38.778 200.716 38.572 Q 200.256 38.346 199.927 38.15 Q 199.599 37.954 199.428 37.69 Q 199.256 37.425 199.256 37.023 Q 199.256 36.318 199.731 35.945 Q 200.207 35.573 200.922 35.573 Q 201.353 35.573 201.652 35.681 Q 201.951 35.789 202.127 35.867 L 202.147 35.867 L 202.304 35.622 L 202.578 35.622 L 202.598 37.249 L 202.255 37.249 Q 202.069 36.494 201.735 36.234 Q 201.402 35.975 200.971 35.975 Q 200.52 35.975 200.29 36.171 Q 200.06 36.367 200.06 36.68 Q 200.06 36.935 200.216 37.102 Q 200.373 37.268 200.662 37.41 Q 200.951 37.553 201.353 37.749 Q 201.804 37.964 202.147 38.194 Q 202.49 38.425 202.686 38.714 Q 202.882 39.003 202.882 39.434 Q 202.882 39.954 202.608 40.267 Q 202.333 40.581 201.902 40.713 Q 201.471 40.845 201 40.845 Q 200.52 40.845 200.256 40.747 Q 199.991 40.649 199.766 40.561 L 199.726 40.561 L 199.481 40.816 L 199.256 40.816 Z " fill="black" /></g></g></g><circle cx="108" cy="-0" r="2.7" style="stroke:black;fill:black;stroke-width:2.0;stroke-dasharray:-;" /><g><g><g><path d="M 87.428 -37.106 L 87.428 -37.106 L 87.358 -36.672 Q 86.966 -36.672 86.742 -36.588 Q 86.518 -36.504 86.406 -36.273 Q 86.294 -36.042 86.21 -35.608 L 85.79 -33.578 Q 84.936 -33.144 84.145 -32.885 Q 83.354 -32.626 82.234 -32.626 Q 81.226 -32.626 80.547 -32.906 Q 79.868 -33.186 79.469 -33.669 Q 79.07 -34.152 78.895 -34.768 Q 78.72 -35.384 78.72 -36.056 Q 78.72 -37.568 79.189 -38.716 Q 79.658 -39.864 80.449 -40.627 Q 81.24 -41.39 82.234 -41.775 Q 83.228 -42.16 84.278 -42.16 Q 85.02 -42.16 85.433 -42.034 Q 85.846 -41.908 86.07 -41.775 Q 86.294 -41.642 86.476 -41.642 Q 86.63 -41.642 86.756 -41.782 Q 86.882 -41.922 87.05 -42.146 L 87.442 -42.146 L 86.798 -38.94 L 86.336 -38.94 Q 86.378 -40.34 85.804 -40.949 Q 85.23 -41.558 84.152 -41.558 Q 83.088 -41.558 82.171 -40.935 Q 81.254 -40.312 80.701 -39.157 Q 80.148 -38.002 80.134 -36.392 Q 80.134 -34.838 80.715 -34.04 Q 81.296 -33.242 82.57 -33.242 Q 83.214 -33.242 83.704 -33.438 Q 84.194 -33.634 84.656 -33.942 L 84.95 -35.468 Q 85.062 -35.972 85.027 -36.231 Q 84.992 -36.49 84.754 -36.581 Q 84.516 -36.672 83.984 -36.672 L 84.068 -37.106 Z " fill="black" /><path d="M 88.663 -36.729 L 88.663 -36.729 L 91.633 -36.729 Q 92.417 -36.729 93.132 -36.558 Q 93.847 -36.386 94.411 -35.994 Q 94.974 -35.602 95.303 -34.946 Q 95.631 -34.289 95.631 -33.309 Q 95.631 -32.388 95.332 -31.727 Q 95.033 -31.065 94.494 -30.649 Q 93.955 -30.232 93.24 -30.036 Q 92.524 -29.84 91.691 -29.84 L 88.663 -29.84 L 88.663 -30.212 Q 89.124 -30.212 89.339 -30.281 Q 89.555 -30.35 89.619 -30.56 Q 89.682 -30.771 89.682 -31.202 L 89.682 -35.455 Q 89.682 -35.857 89.589 -36.048 Q 89.496 -36.239 89.276 -36.298 Q 89.055 -36.357 88.663 -36.357 Z M 90.731 -36.239 L 90.731 -36.239 L 90.731 -30.31 Q 90.888 -30.301 91.04 -30.296 Q 91.192 -30.291 91.339 -30.291 Q 92.309 -30.291 92.99 -30.546 Q 93.671 -30.8 94.029 -31.437 Q 94.386 -32.074 94.386 -33.221 Q 94.386 -34.691 93.637 -35.47 Q 92.887 -36.249 91.26 -36.249 Q 91.123 -36.249 90.996 -36.249 Q 90.868 -36.249 90.731 -36.239 Z " fill="black" /></g></g></g></svg>