<svg xmlns="http://www.w3.org/2000/svg" xmlns:xlink="http://www.w3.org/1999/xlink" xml:lang="en" height="196.112pt" width="185.03839999999997pt" viewBox="-96.59760000000001 -36.472 185.03839999999997 196.112"><path d="M 0.0,-0.0 L 0.0,-14.4" style="stroke:black;fill:none;stroke-width:2.0;stroke-dasharray:-;stroke-linecap:round;stroke-linejoin:round;" /><path d="M 0.0,-14.4 L -6.75,-14.4" style="stroke:black;fill:none;stroke-width:2.0;stroke-dasharray:-;stroke-linecap:round;stroke-linejoin:round;" /><path d="M 0.0,-14.4 L 6.75,-14.4" style="stroke:black;fill:none;stroke-width:2.0;stroke-dasharray:-;stroke-linecap:round;stroke-linejoin:round;" /><path d="M 0.0,-0.0 L -3.3065463576978533e-15,18.0 L 8.999999999999996,21.0 L -9.000000000000004,27.0 L 8.999999999999995,33.0 L -9.000000000000007,39.0 L 8.999999999999993,45.0 L -9.00000000000001,50.99999999999999 L -9.919639073093561e-15,54.0 L -1.3226185430791413e-14,72.0" style="stroke:black;fill:none;stroke-width:2.0;stroke-dasharray:-;stroke-linecap:round;stroke-linejoin:round;" /><path d="M -1.3226185430791413e-14,72.0 L 26.99999999999999,72.0 L 53.999999999999986,72.0" style="stroke:black;fill:none;stroke-width:2.0;stroke-dasharray:-;stroke-linecap:round;stroke-linejoin:round;" /><path d="M -1.3226185430791413e-14,132.0 L -1.3226185430791413e-14,117.0 L -15.000000000000012,117.0 L -15.000000000000012,87.0 L -1.3226185430791413e-14,87.0 L -1.3226185430791413e-14,72.0" style="stroke:black;fill:none;stroke-width:2.0;stroke-dasharray:-;stroke-linecap:round;stroke-linejoin:round;" /><path d="M -9.000000000000014,117.0 L -15.000000000000012,117.0" style="stroke:black;fill:none;stroke-width:2.0;stroke-dasharray:-;stroke-linecap:round;stroke-linejoin:round;" /><path d="M -2.0000000000000133 117.0 L -9.000000000000014 121.5 L -9.000000000000014 112.5 Z" style="stroke:black;fill:black;stroke-linecap:butt;stroke-linejoin:miter;" /><path d="M -18.00000000000001,114.00000000000001 L -18.00000000000001,90.0" style="stroke:black;fill:none;stroke-width:2.0;stroke-dasharray:-;stroke-linecap:round;stroke-linejoin:round;" /><path d="M -33.00000000000001,101.99999999999999 L -18.00000000000001,101.99999999999999" style="stroke:black;fill:none;stroke-width:2.0;stroke-dasharray:-;stroke-linecap:round;stroke-linejoin:round;" /><path d="M -1.3226185430791413e-14,132.0 L -1.3226185430791413e-14,146.39999999999998 L -9.000000000000014,146.39999999999998 L 8.999999999999988,146.39999999999998 M -6.300000000000012,150.72 L 6.2999999999999865,150.72 M -1.8000000000000134,155.04 L 1.799999999999987,155.04" style="stroke:black;fill:none;stroke-width:2.0;stroke-dasharray:-;stroke-linecap:round;stroke-linejoin:round;" /><path d="M -33.00000000000001,101.99999999999999 L -51.000000000000014,101.99999999999999 L -69.00000000000001,101.99999999999999" style="stroke:black;fill:none;stroke-width:2.0;stroke-dasharray:-;stroke-linecap:round;stroke-linejoin:round;" /><g><g><g><path d="M -9.31 -23.36 L -9.31 -23.36 L -4.942 -29.92 Q -4.718 -30.24 -4.582 -30.512 Q -4.446 -30.784 -4.446 -30.976 Q -4.446 -31.216 -4.654 -31.304 Q -4.862 -31.392 -5.406 -31.392 L -5.374 -31.872 L -1.918 -31.872 L -1.95 -31.392 Q -2.382 -31.392 -2.686 -31.264 Q -2.99 -31.136 -3.302 -30.776 Q -3.614 -30.416 -4.11 -29.68 L -9.982 -21.28 L -10.51 -21.28 L -11.406 -29.936 Q -11.502 -30.736 -11.758 -31.064 Q -12.014 -31.392 -12.654 -31.392 L -12.622 -31.872 L -8.702 -31.872 L -8.75 -31.392 Q -9.358 -31.392 -9.71 -31.152 Q -10.062 -30.912 -10.03 -30.368 Q -10.03 -30.288 -10.006 -30.08 Q -9.982 -29.872 -9.982 -29.792 L -9.502 -25.232 L -9.39 -23.36 Z " fill="black" /><path d="M -3.179 -25.874 L -3.179 -25.874 L 0.214 -25.874 Q 1.11 -25.874 1.928 -25.678 Q 2.746 -25.482 3.39 -25.034 Q 4.034 -24.586 4.409 -23.835 Q 4.784 -23.085 4.784 -21.965 Q 4.784 -20.912 4.442 -20.156 Q 4.101 -19.4 3.485 -18.924 Q 2.869 -18.448 2.051 -18.224 Q 1.234 -18 0.282 -18 L -3.179 -18 L -3.179 -18.426 Q -2.653 -18.426 -2.406 -18.504 Q -2.16 -18.582 -2.087 -18.823 Q -2.014 -19.064 -2.014 -19.557 L -2.014 -24.418 Q -2.014 -24.877 -2.121 -25.095 Q -2.227 -25.314 -2.479 -25.381 Q -2.731 -25.448 -3.179 -25.448 Z M -0.816 -25.314 L -0.816 -25.314 L -0.816 -18.538 Q -0.637 -18.526 -0.463 -18.521 Q -0.29 -18.515 -0.122 -18.515 Q 0.987 -18.515 1.766 -18.806 Q 2.544 -19.098 2.953 -19.826 Q 3.362 -20.554 3.362 -21.864 Q 3.362 -23.544 2.505 -24.434 Q 1.648 -25.325 -0.211 -25.325 Q -0.368 -25.325 -0.514 -25.325 Q -0.659 -25.325 -0.816 -25.314 Z " fill="black" /><path d="M 6.139 -25.874 L 6.139 -25.874 L 9.533 -25.874 Q 10.429 -25.874 11.246 -25.678 Q 12.064 -25.482 12.708 -25.034 Q 13.352 -24.586 13.727 -23.835 Q 14.102 -23.085 14.102 -21.965 Q 14.102 -20.912 13.761 -20.156 Q 13.419 -19.4 12.803 -18.924 Q 12.187 -18.448 11.37 -18.224 Q 10.552 -18 9.6 -18 L 6.139 -18 L 6.139 -18.426 Q 6.666 -18.426 6.912 -18.504 Q 7.158 -18.582 7.231 -18.823 Q 7.304 -19.064 7.304 -19.557 L 7.304 -24.418 Q 7.304 -24.877 7.198 -25.095 Q 7.091 -25.314 6.839 -25.381 Q 6.587 -25.448 6.139 -25.448 Z M 8.502 -25.314 L 8.502 -25.314 L 8.502 -18.538 Q 8.682 -18.526 8.855 -18.521 Q 9.029 -18.515 9.197 -18.515 Q 10.306 -18.515 11.084 -18.806 Q 11.862 -19.098 12.271 -19.826 Q 12.68 -20.554 12.68 -21.864 Q 12.68 -23.544 11.823 -24.434 Q 10.966 -25.325 9.107 -25.325 Q 8.95 -25.325 8.805 -25.325 Q 8.659 -25.325 8.502 -25.314 Z " fill="black" /></g></g></g><circle cx="-1.3226185430791413e-14" cy="72.0" r="2.6999999999999997" style="stroke:black;fill:black;stroke-width:2.0;stroke-dasharray:-;" /><g><g><g><path d="M -19.501 32.622 L -19.501 32.622 Q -19.501 33.47 -19.821 34.046 Q -20.141 34.622 -20.653 34.99 Q -21.165 35.358 -21.749 35.558 Q -22.333 35.758 -22.861 35.854 L -22.861 35.934 Q -22.573 36.126 -22.317 36.518 Q -22.061 36.91 -21.685 37.646 Q -21.309 38.382 -20.653 39.63 Q -20.381 40.11 -20.053 40.278 Q -19.725 40.446 -19.181 40.446 L -19.277 40.926 L -21.709 40.926 Q -22.157 39.934 -22.461 39.27 Q -22.765 38.606 -22.989 38.158 Q -23.213 37.71 -23.381 37.358 Q -23.549 37.006 -23.741 36.638 Q -23.917 36.302 -24.125 36.198 Q -24.333 36.094 -24.765 36.094 L -25.101 36.094 L -25.693 38.942 Q -25.821 39.598 -25.781 39.926 Q -25.741 40.254 -25.421 40.35 Q -25.101 40.446 -24.413 40.446 L -24.493 40.926 L -28.909 40.926 L -28.813 40.446 Q -28.221 40.446 -27.901 40.35 Q -27.581 40.254 -27.413 39.934 Q -27.245 39.614 -27.117 38.942 L -25.709 32.078 Q -25.613 31.63 -25.661 31.374 Q -25.709 31.118 -25.989 31.006 Q -26.269 30.894 -26.909 30.894 L -26.813 30.414 L -23.053 30.414 Q -21.373 30.414 -20.437 30.934 Q -19.501 31.454 -19.501 32.622 Z M -24.093 31.086 L -24.093 31.086 L -24.989 35.502 L -24.493 35.518 Q -23.533 35.486 -22.757 35.206 Q -21.981 34.926 -21.533 34.318 Q -21.085 33.71 -21.085 32.686 Q -21.085 32.254 -21.269 31.878 Q -21.453 31.502 -21.901 31.27 Q -22.349 31.038 -23.149 31.038 Q -23.453 31.038 -23.637 31.046 Q -23.821 31.054 -24.093 31.086 Z " fill="black" /><path d="M -13.606 44.286 L -13.606 44.286 L -17.403 44.286 L -17.403 43.883 Q -16.597 43.883 -16.334 43.72 Q -16.07 43.558 -16.07 43.132 L -16.07 38.249 Q -16.07 37.947 -16.16 37.812 Q -16.25 37.678 -16.485 37.678 Q -16.664 37.678 -16.972 37.728 Q -17.28 37.779 -17.504 37.835 L -17.504 37.387 L -15.432 36.816 L -14.95 36.816 L -14.95 43.132 Q -14.95 43.558 -14.665 43.72 Q -14.379 43.883 -13.606 43.883 Z " fill="black" /></g></g></g><circle cx="53.999999999999986" cy="72.0" r="2.6999999999999997" style="stroke:black;fill:white;stroke-width:2.0;stroke-dasharray:-;" /><g><g><g><path d="M 64.732 73.509 L 64.732 73.509 L 69.1 66.949 Q 69.324 66.629 69.46 66.357 Q 69.596 66.085 69.596 65.893 Q 69.596 65.653 69.388 65.565 Q 69.18 65.477 68.636 65.477 L 68.668 64.997 L 72.124 64.997 L 72.092 65.477 Q 71.66 65.477 71.356 65.605 Q 71.052 65.733 70.74 66.093 Q 70.428 66.453 69.932 67.189 L 64.06 75.589 L 63.532 75.589 L 62.636 66.933 Q 62.54 66.133 62.284 65.805 Q 62.028 65.477 61.388 65.477 L 61.42 64.997 L 65.34 64.997 L 65.292 65.477 Q 64.684 65.477 64.332 65.717 Q 63.98 65.957 64.012 66.501 Q 64.012 66.581 64.036 66.789 Q 64.06 66.997 64.06 67.077 L 64.54 71.637 L 64.652 73.509 Z " fill="black" /><path d="M 72.033 72.989 L 72.033 72.989 Q 72.873 72.989 73.5 73.353 Q 74.127 73.717 74.469 74.372 Q 74.81 75.027 74.81 75.912 Q 74.81 76.976 74.452 77.659 Q 74.094 78.342 73.466 78.673 Q 72.839 79.003 72.033 79.003 Q 71.215 79.003 70.582 78.662 Q 69.95 78.32 69.597 77.637 Q 69.244 76.954 69.244 75.923 Q 69.244 75.05 69.591 74.389 Q 69.938 73.728 70.566 73.358 Q 71.193 72.989 72.033 72.989 Z M 72.01 73.504 L 72.01 73.504 Q 71.271 73.504 70.851 74.103 Q 70.431 74.702 70.431 75.856 Q 70.431 77.278 70.862 77.866 Q 71.294 78.454 72.066 78.454 Q 72.559 78.443 72.906 78.208 Q 73.254 77.973 73.438 77.418 Q 73.623 76.864 73.623 75.912 Q 73.623 74.77 73.231 74.137 Q 72.839 73.504 72.01 73.504 Z " fill="black" /><path d="M 82.426 78.298 L 82.426 78.298 L 82.426 78.723 L 80.914 78.925 L 80.556 78.925 L 80.556 78.051 L 80.444 78.051 Q 80.018 78.432 79.582 78.706 Q 79.145 78.981 78.529 78.981 Q 77.7 78.981 77.263 78.477 Q 76.826 77.973 76.826 76.73 L 76.826 74.322 Q 76.826 73.862 76.664 73.756 Q 76.502 73.65 75.986 73.65 L 75.986 73.246 L 77.543 73.034 L 77.913 73.034 L 77.913 76.584 Q 77.913 77.211 78.058 77.558 Q 78.204 77.906 78.45 78.04 Q 78.697 78.174 78.988 78.174 Q 79.481 78.174 79.811 77.967 Q 80.142 77.76 80.5 77.469 L 80.5 74.322 Q 80.5 73.862 80.298 73.756 Q 80.097 73.65 79.526 73.65 L 79.526 73.246 L 81.194 73.034 L 81.586 73.034 L 81.586 77.57 Q 81.586 77.906 81.648 78.062 Q 81.71 78.219 81.866 78.258 Q 82.023 78.298 82.303 78.298 Z " fill="black" /><path d="M 86.794 77.749 L 86.794 77.749 L 87.052 77.962 Q 86.806 78.298 86.604 78.527 Q 86.402 78.757 86.145 78.88 Q 85.887 79.003 85.484 79.003 Q 84.834 79.003 84.538 78.634 Q 84.241 78.264 84.241 77.446 L 84.241 73.683 L 83.535 73.683 L 83.535 73.347 Q 83.938 73.056 84.274 72.636 Q 84.61 72.216 84.946 71.432 L 85.338 71.432 L 85.327 73.134 L 86.75 73.134 L 86.75 73.683 L 85.327 73.683 L 85.327 77.077 Q 85.327 77.704 85.445 77.967 Q 85.562 78.23 85.921 78.23 Q 86.246 78.23 86.414 78.113 Q 86.582 77.995 86.794 77.749 Z " fill="black" /></g></g></g><g><g><g><path d="M 16.544 105.576 L 16.544 105.576 L 12.272 105.576 L 12.368 105.096 Q 12.96 105.096 13.272 104.984 Q 13.584 104.872 13.744 104.56 Q 13.904 104.248 14.016 103.672 L 15.44 96.76 L 15.376 96.76 L 10 105.576 L 9.648 105.576 L 7.712 96.776 L 7.648 96.776 L 6.32 103.24 Q 6.16 104.056 6.184 104.456 Q 6.208 104.856 6.496 104.976 Q 6.784 105.096 7.392 105.096 L 7.296 105.576 L 3.6 105.576 L 3.696 105.096 Q 4.32 105.096 4.656 104.976 Q 4.992 104.856 5.184 104.456 Q 5.376 104.056 5.536 103.24 L 6.8 97.016 Q 6.928 96.408 6.88 96.096 Q 6.832 95.784 6.536 95.664 Q 6.24 95.544 5.6 95.544 L 5.696 95.064 L 8.896 95.064 L 10.624 103.16 L 10.688 103.16 L 15.568 95.064 L 18.592 95.064 L 18.496 95.544 Q 17.936 95.544 17.608 95.664 Q 17.28 95.784 17.104 96.096 Q 16.928 96.408 16.8 97 L 15.44 103.672 Q 15.264 104.552 15.528 104.824 Q 15.792 105.096 16.64 105.096 Z " fill="black" /><path d="M 23.43 108.936 L 23.43 108.936 L 19.634 108.936 L 19.634 108.533 Q 20.44 108.533 20.703 108.37 Q 20.966 108.208 20.966 107.782 L 20.966 102.899 Q 20.966 102.597 20.877 102.462 Q 20.787 102.328 20.552 102.328 Q 20.373 102.328 20.065 102.378 Q 19.757 102.429 19.533 102.485 L 19.533 102.037 L 21.605 101.466 L 22.086 101.466 L 22.086 107.782 Q 22.086 108.208 22.372 108.37 Q 22.658 108.533 23.43 108.533 Z " fill="black" /></g></g></g><circle cx="-69.00000000000001" cy="101.99999999999999" r="2.6999999999999997" style="stroke:black;fill:white;stroke-width:2.0;stroke-dasharray:-;" /><g><g><g><path d="M -91.129 103.576 L -91.129 103.576 L -86.761 97.016 Q -86.537 96.696 -86.401 96.424 Q -86.265 96.152 -86.265 95.96 Q -86.265 95.72 -86.473 95.632 Q -86.681 95.544 -87.225 95.544 L -87.193 95.064 L -83.737 95.064 L -83.769 95.544 Q -84.201 95.544 -84.505 95.672 Q -84.809 95.8 -85.121 96.16 Q -85.433 96.52 -85.929 97.256 L -91.801 105.656 L -92.329 105.656 L -93.225 97 Q -93.321 96.2 -93.577 95.872 Q -93.833 95.544 -94.473 95.544 L -94.441 95.064 L -90.521 95.064 L -90.569 95.544 Q -91.177 95.544 -91.529 95.784 Q -91.881 96.024 -91.849 96.568 Q -91.849 96.648 -91.825 96.856 Q -91.801 97.064 -91.801 97.144 L -91.321 101.704 L -91.209 103.576 Z " fill="black" /><path d="M -82.209 108.522 L -82.209 108.522 L -82.209 108.936 L -85.054 108.936 L -85.054 108.522 Q -84.662 108.522 -84.488 108.438 Q -84.314 108.354 -84.27 108.169 Q -84.225 107.984 -84.225 107.682 L -84.225 104.299 Q -84.225 103.918 -84.348 103.84 Q -84.471 103.762 -84.762 103.762 Q -84.908 103.762 -84.998 103.773 Q -85.087 103.784 -85.087 103.784 L -85.087 103.336 L -83.586 103.09 L -83.127 103.09 L -83.127 107.682 Q -83.127 108.006 -83.077 108.191 Q -83.026 108.376 -82.83 108.449 Q -82.634 108.522 -82.209 108.522 Z M -83.687 100.614 L -83.687 100.614 Q -83.362 100.614 -83.144 100.838 Q -82.926 101.062 -82.926 101.354 Q -82.926 101.622 -83.144 101.846 Q -83.362 102.07 -83.687 102.07 Q -84.001 102.07 -84.208 101.846 Q -84.415 101.622 -84.415 101.354 Q -84.415 101.062 -84.208 100.838 Q -84.001 100.614 -83.687 100.614 Z " fill="black" /><path d="M -75.556 105.184 L -75.556 105.184 L -75.556 107.693 Q -75.556 108.006 -75.5 108.191 Q -75.444 108.376 -75.254 108.454 Q -75.063 108.533 -74.66 108.533 L -74.66 108.936 L -77.538 108.936 L -77.538 108.533 Q -77.113 108.533 -76.922 108.454 Q -76.732 108.376 -76.687 108.191 Q -76.642 108.006 -76.642 107.693 L -76.642 105.554 Q -76.642 104.803 -76.816 104.45 Q -76.99 104.098 -77.253 103.986 Q -77.516 103.874 -77.785 103.874 Q -78.266 103.874 -78.63 104.12 Q -78.994 104.366 -79.263 104.59 L -79.263 107.693 Q -79.263 108.006 -79.213 108.191 Q -79.162 108.376 -78.972 108.454 Q -78.782 108.533 -78.367 108.533 L -78.367 108.936 L -81.19 108.936 L -81.19 108.533 Q -80.798 108.533 -80.624 108.454 Q -80.45 108.376 -80.406 108.191 Q -80.361 108.006 -80.361 107.693 L -80.361 104.288 Q -80.361 103.974 -80.478 103.868 Q -80.596 103.762 -80.854 103.762 Q -80.988 103.762 -81.078 103.773 Q -81.167 103.784 -81.167 103.784 L -81.167 103.358 L -79.666 103.09 L -79.297 103.09 L -79.297 104.008 L -79.218 104.008 Q -78.737 103.571 -78.294 103.314 Q -77.852 103.056 -77.292 103.056 Q -76.631 103.056 -76.256 103.353 Q -75.881 103.65 -75.718 104.131 Q -75.556 104.613 -75.556 105.184 Z " fill="black" /></g></g></g></svg>