<svg xmlns="http://www.w3.org/2000/svg" xmlns:xlink="http://www.w3.org/1999/xlink" xml:lang="en" height="339.43999999999994pt" width="320.92019999999997pt" viewBox="-60.12020000000001 -33.4 320.92019999999997 339.43999999999994"><circle cx="-0" cy="36" r="18" style="stroke:black;fill:none;stroke-width:2.0;stroke-dasharray:-;" /><path d="M 0.0,-0.0 L 0,-14.4" style="stroke:black;fill:none;stroke-width:2.0;stroke-dasharray:-;stroke-linecap:round;stroke-linejoin:round;" /><path d="M 0.0,-14.4 L -6.75,-14.4" style="stroke:black;fill:none;stroke-width:2.0;stroke-dasharray:-;stroke-linecap:round;stroke-linejoin:round;" /><path d="M 0.0,-14.4 L 6.75,-14.4" style="stroke:black;fill:none;stroke-width:2.0;stroke-dasharray:-;stroke-linecap:round;stroke-linejoin:round;" /><path d="M 0.0,-0.0 L -0,18 L -0,18 M -0,54 L -0,54 L -0,72" style="stroke:black;fill:none;stroke-width:2.0;stroke-dasharray:-;stroke-linecap:round;stroke-linejoin:round;" /><path d="M -4.9598195365467806e-15,27.0 L -0,36" style="stroke:black;fill:none;stroke-width:2.0;stroke-dasharray:-;stroke-linecap:round;stroke-linejoin:round;" /><path d="M -0 43 L -2.7 36 L 2.7 36 Z" style="stroke:black;fill:black;stroke-linecap:butt;stroke-linejoin:miter;" /><path d="M -1.3226185430791413e-14,72.0 L -0,90 L 9,93 L -9,99 L 9,105 L -9,111 L 9,117 L -9,123 L -0,126 L -0,144" style="stroke:blue;fill:none;stroke-width:2.0;stroke-dasharray:-;stroke-linecap:round;stroke-linejoin:round;" /><path d="M -2.6452370861582827e-14,144.0 L -0,159 L 15,159 L 15,189 L -0,189 L -0,204" style="stroke:black;fill:none;stroke-width:2.0;stroke-dasharray:-;stroke-linecap:round;stroke-linejoin:round;" /><path d="M 14.999999999999973,189.0 L 9,189" style="stroke:black;fill:none;stroke-width:2.0;stroke-dasharray:-;stroke-linecap:round;stroke-linejoin:round;" /><path d="M 2 189 L 9 184.5 L 9 193.5 Z" style="stroke:black;fill:black;stroke-linecap:butt;stroke-linejoin:miter;" /><path d="M 17.99999999999997,162.0 L 18,186" style="stroke:black;fill:none;stroke-width:2.0;stroke-dasharray:-;stroke-linecap:round;stroke-linejoin:round;" /><path d="M 17.99999999999997,174.0 L 33,174" style="stroke:black;fill:none;stroke-width:2.0;stroke-dasharray:-;stroke-linecap:round;stroke-linejoin:round;" /><path d="M -2.6452370861582827e-14,203.99999999999997 L -0,219 L 15,219 L 15,249 L -0,249 L -0,264" style="stroke:black;fill:none;stroke-width:2.0;stroke-dasharray:-;stroke-linecap:round;stroke-linejoin:round;" /><path d="M 14.999999999999973,248.99999999999997 L 9,249" style="stroke:black;fill:none;stroke-width:2.0;stroke-dasharray:-;stroke-linecap:round;stroke-linejoin:round;" /><path d="M 2 249 L 9 244.5 L 9 253.5 Z" style="stroke:black;fill:black;stroke-linecap:butt;stroke-linejoin:miter;" /><path d="M 17.99999999999997,221.99999999999997 L 18,246" style="stroke:black;fill:none;stroke-width:2.0;stroke-dasharray:-;stroke-linecap:round;stroke-linejoin:round;" /><path d="M 17.99999999999997,233.99999999999997 L 33,234" style="stroke:black;fill:none;stroke-width:2.0;stroke-dasharray:-;stroke-linecap:round;stroke-linejoin:round;" /><path d="M -2.6452370861582827e-14,263.99999999999994 L -0,278.4 L -9,278.4 L 9,278.4 M -6.3,282.72 L 6.3,282.72 M -1.8,287.04 L 1.8,287.04" style="stroke:black;fill:none;stroke-width:2.0;stroke-dasharray:-;stroke-linecap:round;stroke-linejoin:round;" /><path d="M 32.999999999999964,233.99999999999997 L 42,234 L 51,234" style="stroke:black;fill:none;stroke-width:2.0;stroke-dasharray:-;stroke-linecap:round;stroke-linejoin:round;" /><path d="M 50.999999999999964,233.99999999999997 L 51,189 L 51,144" style="stroke:black;fill:none;stroke-width:2.0;stroke-dasharray:-;stroke-linecap:round;stroke-linejoin:round;" /><path d="M 50.99999999999997,144.0 L 25.5,144 L -0,144" style="stroke:black;fill:none;stroke-width:2.0;stroke-dasharray:-;stroke-linecap:round;stroke-linejoin:round;" /><path d="M 32.999999999999964,233.99999999999997 L 87,234 L 141,234" style="stroke:black;fill:none;stroke-width:2.0;stroke-dasharray:-;stroke-linecap:round;stroke-linejoin:round;" /><path d="M 173.99999999999994,263.99999999999994 L 174,249 L 159,249 L 159,219 L 174,219 L 174,204" style="stroke:black;fill:none;stroke-width:2.0;stroke-dasharray:-;stroke-linecap:round;stroke-linejoin:round;" /><path d="M 164.99999999999994,248.99999999999997 L 159,249" style="stroke:black;fill:none;stroke-width:2.0;stroke-dasharray:-;stroke-linecap:round;stroke-linejoin:round;" /><path d="M 172 249 L 165 253.5 L 165 244.5 Z" style="stroke:black;fill:black;stroke-linecap:butt;stroke-linejoin:miter;" /><path d="M 155.99999999999994,245.99999999999994 L 156,222" style="stroke:black;fill:none;stroke-width:2.0;stroke-dasharray:-;stroke-linecap:round;stroke-linejoin:round;" /><path d="M 140.99999999999997,233.99999999999997 L 156,234" style="stroke:black;fill:none;stroke-width:2.0;stroke-dasharray:-;stroke-linecap:round;stroke-linejoin:round;" /><path d="M 173.99999999999994,203.99999999999997 L 174,189 L 159,189 L 159,159 L 174,159 L 174,144" style="stroke:black;fill:none;stroke-width:2.0;stroke-dasharray:-;stroke-linecap:round;stroke-linejoin:round;" /><path d="M 164.99999999999994,189.0 L 159,189" style="stroke:black;fill:none;stroke-width:2.0;stroke-dasharray:-;stroke-linecap:round;stroke-linejoin:round;" /><path d="M 172 189 L 165 193.5 L 165 184.5 Z" style="stroke:black;fill:black;stroke-linecap:butt;stroke-linejoin:miter;" /><path d="M 155.99999999999994,185.99999999999997 L 156,162" style="stroke:black;fill:none;stroke-width:2.0;stroke-dasharray:-;stroke-linecap:round;stroke-linejoin:round;" /><path d="M 140.99999999999997,174.0 L 156,174" style="stroke:black;fill:none;stroke-width:2.0;stroke-dasharray:-;stroke-linecap:round;stroke-linejoin:round;" /><path d="M 173.99999999999994,263.99999999999994 L 174,278.4 L 165,278.4 L 183,278.4 M 167.7,282.72 L 180.3,282.72 M 172.2,287.04 L 175.8,287.04" style="stroke:black;fill:none;stroke-width:2.0;stroke-dasharray:-;stroke-linecap:round;stroke-linejoin:round;" /><path d="M 173.99999999999994,143.99999999999997 L 174,108 L 174,72" style="stroke:black;fill:none;stroke-width:2.0;stroke-dasharray:-;stroke-linecap:round;stroke-linejoin:round;" /><path d="M 32.999999999999964,174.0 L 60,174 L 87,174" style="stroke:black;fill:none;stroke-width:2.0;stroke-dasharray:-;stroke-linecap:round;stroke-linejoin:round;" /><path d="M 86.99999999999996,174.0 L 114,174 L 141,174" style="stroke:black;fill:none;stroke-width:2.0;stroke-dasharray:-;stroke-linecap:round;stroke-linejoin:round;" /><path d="M 86.99999999999996,174.0 L 87,123 L 87,72" style="stroke:blue;fill:none;stroke-width:2.0;stroke-dasharray:-;stroke-linecap:round;stroke-linejoin:round;" /><path d="M 86.99999999999996,72.0 L 43.5,72 L -0,72" style="stroke:blue;fill:none;stroke-width:2.0;stroke-dasharray:-;stroke-linecap:round;stroke-linejoin:round;" /><g><g><g><path d="M -45.603 37.231 L -45.603 37.231 L -44.455 31.715 Q -44.329 31.169 -44.336 30.854 Q -44.343 30.539 -44.595 30.413 Q -44.847 30.287 -45.491 30.287 L -45.407 29.867 L -41.529 29.867 L -41.613 30.287 Q -42.229 30.287 -42.537 30.413 Q -42.845 30.539 -42.971 30.854 Q -43.097 31.169 -43.209 31.715 L -44.357 37.287 Q -44.399 37.511 -44.427 37.693 Q -44.455 37.875 -44.455 38.029 Q -44.455 38.421 -44.224 38.533 Q -43.993 38.645 -43.335 38.645 L -43.419 39.065 L -47.241 39.065 L -47.157 38.645 Q -46.583 38.645 -46.296 38.547 Q -46.009 38.449 -45.869 38.148 Q -45.729 37.847 -45.603 37.231 Z " fill="black" /><path d="M -39.481 34.685 L -39.481 34.685 L -39.481 37.723 L -39.432 37.723 Q -39.148 37.389 -38.761 37.125 Q -38.373 36.86 -37.825 36.86 Q -37.315 36.86 -36.899 37.169 Q -36.482 37.478 -36.232 38.022 Q -35.982 38.565 -35.982 39.271 Q -35.982 40.212 -36.325 40.849 Q -36.668 41.486 -37.261 41.804 Q -37.854 42.123 -38.609 42.123 Q -39.05 42.123 -39.422 42.049 Q -39.794 41.976 -40.054 41.878 Q -40.314 41.78 -40.431 41.731 L -40.431 35.851 Q -40.431 35.488 -40.51 35.385 Q -40.588 35.282 -40.921 35.282 Q -41.029 35.282 -41.122 35.297 Q -41.215 35.312 -41.215 35.312 L -41.215 34.939 L -39.883 34.685 Z M -39.481 38.232 L -39.481 38.232 L -39.481 41.172 Q -39.363 41.388 -39.108 41.515 Q -38.854 41.643 -38.432 41.643 Q -37.913 41.643 -37.599 41.363 Q -37.286 41.084 -37.144 40.619 Q -37.001 40.153 -37.001 39.604 Q -37.001 39.104 -37.114 38.649 Q -37.227 38.193 -37.511 37.909 Q -37.795 37.625 -38.295 37.625 Q -38.56 37.625 -38.8 37.728 Q -39.04 37.83 -39.216 37.973 Q -39.393 38.115 -39.481 38.232 Z " fill="black" /><path d="M -32.405 41.643 L -32.405 41.643 L -32.405 42.005 L -34.894 42.005 L -34.894 41.643 Q -34.551 41.643 -34.4 41.569 Q -34.248 41.496 -34.208 41.334 Q -34.169 41.172 -34.169 40.908 L -34.169 37.948 Q -34.169 37.615 -34.277 37.546 Q -34.385 37.478 -34.64 37.478 Q -34.767 37.478 -34.845 37.487 Q -34.924 37.497 -34.924 37.497 L -34.924 37.105 L -33.611 36.89 L -33.209 36.89 L -33.209 40.908 Q -33.209 41.192 -33.165 41.354 Q -33.121 41.515 -32.949 41.579 Q -32.778 41.643 -32.405 41.643 Z M -33.699 34.724 L -33.699 34.724 Q -33.415 34.724 -33.224 34.92 Q -33.032 35.116 -33.032 35.371 Q -33.032 35.606 -33.224 35.802 Q -33.415 35.998 -33.699 35.998 Q -33.973 35.998 -34.155 35.802 Q -34.336 35.606 -34.336 35.371 Q -34.336 35.116 -34.155 34.92 Q -33.973 34.724 -33.699 34.724 Z " fill="black" /><path d="M -28.485 41.388 L -28.485 41.388 L -28.554 41.388 Q -28.887 41.662 -29.289 41.868 Q -29.691 42.074 -30.161 42.074 Q -30.778 42.074 -31.107 41.701 Q -31.435 41.329 -31.435 40.8 Q -31.435 40.349 -31.224 40.045 Q -31.014 39.741 -30.676 39.55 Q -30.337 39.359 -29.945 39.242 Q -29.553 39.124 -29.191 39.055 Q -28.828 38.987 -28.583 38.928 L -28.583 38.418 Q -28.583 37.762 -28.843 37.512 Q -29.103 37.262 -29.602 37.262 Q -29.906 37.262 -30.039 37.34 Q -30.171 37.419 -30.205 37.595 Q -30.239 37.772 -30.249 38.056 Q -30.259 38.271 -30.377 38.404 Q -30.494 38.536 -30.72 38.536 Q -30.935 38.536 -31.087 38.404 Q -31.239 38.271 -31.239 38.017 Q -31.239 37.713 -31.004 37.448 Q -30.769 37.184 -30.333 37.022 Q -29.896 36.86 -29.308 36.86 Q -28.426 36.86 -28.03 37.267 Q -27.633 37.674 -27.633 38.487 L -27.633 40.888 Q -27.633 41.211 -27.559 41.305 Q -27.486 41.398 -27.329 41.398 Q -27.162 41.398 -27.04 41.329 Q -26.917 41.26 -26.809 41.133 L -26.594 41.339 Q -27.103 42.064 -27.789 42.064 Q -28.172 42.064 -28.314 41.883 Q -28.456 41.701 -28.485 41.388 Z M -28.583 41.025 L -28.583 41.025 L -28.583 39.3 Q -29.034 39.418 -29.465 39.56 Q -29.896 39.702 -30.176 39.947 Q -30.455 40.192 -30.455 40.633 Q -30.455 41.015 -30.235 41.236 Q -30.014 41.456 -29.671 41.456 Q -29.465 41.456 -29.176 41.363 Q -28.887 41.27 -28.583 41.025 Z " fill="black" /><path d="M -25.918 40.222 L -25.918 40.222 L -25.604 40.222 Q -25.477 40.79 -25.3 41.104 Q -25.124 41.417 -24.845 41.54 Q -24.565 41.662 -24.163 41.662 Q -23.703 41.662 -23.453 41.51 Q -23.203 41.358 -23.203 40.976 Q -23.203 40.721 -23.326 40.55 Q -23.448 40.378 -23.718 40.222 Q -23.987 40.065 -24.438 39.859 Q -24.898 39.634 -25.227 39.438 Q -25.555 39.242 -25.727 38.977 Q -25.898 38.712 -25.898 38.311 Q -25.898 37.605 -25.423 37.233 Q -24.947 36.86 -24.232 36.86 Q -23.801 36.86 -23.502 36.968 Q -23.203 37.076 -23.027 37.154 L -23.007 37.154 L -22.85 36.909 L -22.576 36.909 L -22.556 38.536 L -22.899 38.536 Q -23.085 37.781 -23.419 37.522 Q -23.752 37.262 -24.183 37.262 Q -24.634 37.262 -24.864 37.458 Q -25.094 37.654 -25.094 37.968 Q -25.094 38.222 -24.938 38.389 Q -24.781 38.556 -24.492 38.698 Q -24.203 38.84 -23.801 39.036 Q -23.35 39.251 -23.007 39.482 Q -22.664 39.712 -22.468 40.001 Q -22.272 40.29 -22.272 40.721 Q -22.272 41.241 -22.546 41.554 Q -22.821 41.868 -23.252 42 Q -23.683 42.133 -24.154 42.133 Q -24.634 42.133 -24.898 42.035 Q -25.163 41.937 -25.388 41.848 L -25.428 41.848 L -25.673 42.103 L -25.898 42.103 Z " fill="black" /></g></g></g><g><g><g><path d="M -33.397 103.799 L -33.397 103.799 Q -33.397 104.541 -33.677 105.045 Q -33.957 105.549 -34.405 105.871 Q -34.853 106.193 -35.364 106.368 Q -35.875 106.543 -36.337 106.627 L -36.337 106.697 Q -36.085 106.865 -35.861 107.208 Q -35.637 107.551 -35.308 108.195 Q -34.979 108.839 -34.405 109.931 Q -34.167 110.351 -33.88 110.498 Q -33.593 110.645 -33.117 110.645 L -33.201 111.065 L -35.329 111.065 Q -35.721 110.197 -35.987 109.616 Q -36.253 109.035 -36.449 108.643 Q -36.645 108.251 -36.792 107.943 Q -36.939 107.635 -37.107 107.313 Q -37.261 107.019 -37.443 106.928 Q -37.625 106.837 -38.003 106.837 L -38.297 106.837 L -38.815 109.329 Q -38.927 109.903 -38.892 110.19 Q -38.857 110.477 -38.577 110.561 Q -38.297 110.645 -37.695 110.645 L -37.765 111.065 L -41.629 111.065 L -41.545 110.645 Q -41.027 110.645 -40.747 110.561 Q -40.467 110.477 -40.32 110.197 Q -40.173 109.917 -40.061 109.329 L -38.829 103.323 Q -38.745 102.931 -38.787 102.707 Q -38.829 102.483 -39.074 102.385 Q -39.319 102.287 -39.879 102.287 L -39.795 101.867 L -36.505 101.867 Q -35.035 101.867 -34.216 102.322 Q -33.397 102.777 -33.397 103.799 Z M -37.415 102.455 L -37.415 102.455 L -38.199 106.319 L -37.765 106.333 Q -36.925 106.305 -36.246 106.06 Q -35.567 105.815 -35.175 105.283 Q -34.783 104.751 -34.783 103.855 Q -34.783 103.477 -34.944 103.148 Q -35.105 102.819 -35.497 102.616 Q -35.889 102.413 -36.589 102.413 Q -36.855 102.413 -37.016 102.42 Q -37.177 102.427 -37.415 102.455 Z " fill="blue" /><path d="M -30.425 106.685 L -30.425 106.685 L -30.425 109.723 L -30.376 109.723 Q -30.092 109.389 -29.705 109.125 Q -29.317 108.86 -28.769 108.86 Q -28.259 108.86 -27.843 109.169 Q -27.426 109.478 -27.176 110.022 Q -26.926 110.565 -26.926 111.271 Q -26.926 112.212 -27.269 112.849 Q -27.612 113.486 -28.205 113.804 Q -28.798 114.123 -29.553 114.123 Q -29.994 114.123 -30.366 114.049 Q -30.738 113.976 -30.998 113.878 Q -31.258 113.78 -31.375 113.731 L -31.375 107.851 Q -31.375 107.488 -31.454 107.385 Q -31.532 107.282 -31.865 107.282 Q -31.973 107.282 -32.066 107.297 Q -32.159 107.312 -32.159 107.312 L -32.159 106.939 L -30.827 106.685 Z M -30.425 110.232 L -30.425 110.232 L -30.425 113.172 Q -30.307 113.388 -30.052 113.515 Q -29.798 113.643 -29.376 113.643 Q -28.857 113.643 -28.543 113.363 Q -28.23 113.084 -28.088 112.619 Q -27.945 112.153 -27.945 111.604 Q -27.945 111.104 -28.058 110.649 Q -28.171 110.193 -28.455 109.909 Q -28.739 109.625 -29.239 109.625 Q -29.504 109.625 -29.744 109.728 Q -29.984 109.83 -30.16 109.973 Q -30.337 110.115 -30.425 110.232 Z " fill="blue" /><path d="M -23.349 113.643 L -23.349 113.643 L -23.349 114.005 L -25.838 114.005 L -25.838 113.643 Q -25.495 113.643 -25.344 113.569 Q -25.192 113.496 -25.152 113.334 Q -25.113 113.172 -25.113 112.908 L -25.113 109.948 Q -25.113 109.615 -25.221 109.546 Q -25.329 109.478 -25.584 109.478 Q -25.711 109.478 -25.789 109.487 Q -25.868 109.497 -25.868 109.497 L -25.868 109.105 L -24.555 108.89 L -24.153 108.89 L -24.153 112.908 Q -24.153 113.192 -24.109 113.354 Q -24.065 113.515 -23.893 113.579 Q -23.722 113.643 -23.349 113.643 Z M -24.643 106.724 L -24.643 106.724 Q -24.359 106.724 -24.168 106.92 Q -23.976 107.116 -23.976 107.371 Q -23.976 107.606 -24.168 107.802 Q -24.359 107.998 -24.643 107.998 Q -24.917 107.998 -25.099 107.802 Q -25.28 107.606 -25.28 107.371 Q -25.28 107.116 -25.099 106.92 Q -24.917 106.724 -24.643 106.724 Z " fill="blue" /><path d="M -19.429 113.388 L -19.429 113.388 L -19.498 113.388 Q -19.831 113.662 -20.233 113.868 Q -20.635 114.074 -21.105 114.074 Q -21.722 114.074 -22.051 113.701 Q -22.379 113.329 -22.379 112.8 Q -22.379 112.349 -22.168 112.045 Q -21.958 111.741 -21.62 111.55 Q -21.281 111.359 -20.889 111.242 Q -20.497 111.124 -20.135 111.055 Q -19.772 110.987 -19.527 110.928 L -19.527 110.418 Q -19.527 109.762 -19.787 109.512 Q -20.047 109.262 -20.546 109.262 Q -20.85 109.262 -20.983 109.34 Q -21.115 109.419 -21.149 109.595 Q -21.183 109.772 -21.193 110.056 Q -21.203 110.271 -21.321 110.404 Q -21.438 110.536 -21.664 110.536 Q -21.879 110.536 -22.031 110.404 Q -22.183 110.271 -22.183 110.017 Q -22.183 109.713 -21.948 109.448 Q -21.713 109.184 -21.277 109.022 Q -20.84 108.86 -20.252 108.86 Q -19.37 108.86 -18.974 109.267 Q -18.577 109.674 -18.577 110.487 L -18.577 112.888 Q -18.577 113.211 -18.503 113.305 Q -18.43 113.398 -18.273 113.398 Q -18.106 113.398 -17.984 113.329 Q -17.861 113.26 -17.753 113.133 L -17.538 113.339 Q -18.047 114.064 -18.733 114.064 Q -19.116 114.064 -19.258 113.883 Q -19.4 113.701 -19.429 113.388 Z M -19.527 113.025 L -19.527 113.025 L -19.527 111.3 Q -19.978 111.418 -20.409 111.56 Q -20.84 111.702 -21.12 111.947 Q -21.399 112.192 -21.399 112.633 Q -21.399 113.015 -21.179 113.236 Q -20.958 113.456 -20.615 113.456 Q -20.409 113.456 -20.12 113.363 Q -19.831 113.27 -19.527 113.025 Z " fill="blue" /><path d="M -16.862 112.222 L -16.862 112.222 L -16.548 112.222 Q -16.421 112.79 -16.244 113.104 Q -16.068 113.417 -15.789 113.54 Q -15.509 113.662 -15.107 113.662 Q -14.647 113.662 -14.397 113.51 Q -14.147 113.358 -14.147 112.976 Q -14.147 112.721 -14.27 112.55 Q -14.392 112.378 -14.662 112.222 Q -14.931 112.065 -15.382 111.859 Q -15.842 111.634 -16.171 111.438 Q -16.499 111.242 -16.671 110.977 Q -16.842 110.712 -16.842 110.311 Q -16.842 109.605 -16.367 109.233 Q -15.891 108.86 -15.176 108.86 Q -14.745 108.86 -14.446 108.968 Q -14.147 109.076 -13.971 109.154 L -13.951 109.154 L -13.794 108.909 L -13.52 108.909 L -13.5 110.536 L -13.843 110.536 Q -14.029 109.781 -14.363 109.522 Q -14.696 109.262 -15.127 109.262 Q -15.578 109.262 -15.808 109.458 Q -16.038 109.654 -16.038 109.968 Q -16.038 110.222 -15.882 110.389 Q -15.725 110.556 -15.436 110.698 Q -15.147 110.84 -14.745 111.036 Q -14.294 111.251 -13.951 111.482 Q -13.608 111.712 -13.412 112.001 Q -13.216 112.29 -13.216 112.721 Q -13.216 113.241 -13.49 113.554 Q -13.765 113.868 -14.196 114 Q -14.627 114.133 -15.098 114.133 Q -15.578 114.133 -15.842 114.035 Q -16.107 113.937 -16.332 113.848 L -16.372 113.848 L -16.617 114.103 L -16.842 114.103 Z " fill="blue" /></g></g></g><g><g><g><path d="M -25.546 168.295 L -25.546 168.295 L -25.588 168.715 Q -26.092 168.729 -26.4 168.939 Q -26.708 169.149 -27.072 169.681 L -32 177.577 L -32.406 177.577 L -32.868 172.131 L -32.924 172.131 L -36.522 177.577 L -36.914 177.577 L -37.6 169.975 Q -37.656 169.289 -37.894 169.002 Q -38.132 168.715 -38.734 168.715 L -38.664 168.295 L -35.164 168.295 L -35.234 168.715 Q -35.836 168.715 -36.074 168.834 Q -36.312 168.953 -36.34 169.233 Q -36.34 169.261 -36.34 169.317 Q -36.34 169.429 -36.34 169.59 Q -36.34 169.751 -36.312 169.947 L -35.948 173.895 L -35.878 175.239 L -35.794 175.239 L -32.966 171.137 L -33.064 170.031 Q -33.12 169.429 -33.211 169.149 Q -33.302 168.869 -33.505 168.792 Q -33.708 168.715 -34.114 168.715 L -34.044 168.295 L -30.474 168.295 L -30.544 168.715 Q -31.314 168.715 -31.573 168.967 Q -31.832 169.219 -31.776 170.003 L -31.44 173.783 L -31.384 175.211 L -31.314 175.211 L -28.332 170.521 Q -28.108 170.171 -27.912 169.793 Q -27.716 169.415 -27.716 169.107 Q -27.716 168.897 -27.87 168.806 Q -28.024 168.715 -28.486 168.715 L -28.402 168.295 Z " fill="black" /><path d="M -21.678 178.728 L -21.678 178.728 L -22.011 180.433 L -26.029 180.433 L -26.029 179.953 L -24.638 178.542 Q -24.089 177.993 -23.731 177.571 Q -23.374 177.15 -23.197 176.724 Q -23.021 176.297 -23.021 175.749 Q -23.021 175.229 -23.339 174.891 Q -23.658 174.553 -24.236 174.553 Q -24.765 174.553 -25.123 174.764 Q -25.481 174.974 -25.755 175.455 L -26.02 175.327 Q -25.775 174.641 -25.26 174.249 Q -24.746 173.857 -23.991 173.857 Q -23.403 173.857 -22.952 174.068 Q -22.501 174.279 -22.247 174.671 Q -21.992 175.063 -21.992 175.621 Q -21.992 176.101 -22.207 176.523 Q -22.423 176.944 -22.82 177.385 Q -23.217 177.826 -23.766 178.365 L -24.991 179.551 L -24.991 179.62 L -24.226 179.58 L -22.952 179.58 Q -22.668 179.58 -22.516 179.502 Q -22.364 179.424 -22.256 179.232 Q -22.149 179.041 -22.021 178.728 Z " fill="black" /><path d="M -16.421 167.567 L -16.421 167.567 L -20.061 178.739 L -20.845 178.739 L -17.191 167.567 Z " fill="black" /><path d="M -8.175 174.763 L -8.175 174.763 L -9.015 177.493 L -15.931 177.493 L -15.847 177.073 Q -15.301 177.073 -15.014 176.975 Q -14.727 176.877 -14.573 176.597 Q -14.419 176.317 -14.307 175.757 L -13.103 169.919 Q -13.005 169.457 -13.033 169.191 Q -13.061 168.925 -13.32 168.82 Q -13.579 168.715 -14.181 168.715 L -14.097 168.295 L -10.121 168.295 L -10.191 168.715 Q -10.947 168.715 -11.325 168.946 Q -11.703 169.177 -11.857 169.933 L -13.131 176.205 Q -13.229 176.667 -13.033 176.814 Q -12.837 176.961 -12.221 176.961 L -11.563 176.961 Q -10.891 176.961 -10.471 176.842 Q -10.051 176.723 -9.757 176.471 Q -9.463 176.219 -9.204 175.792 Q -8.945 175.365 -8.623 174.763 Z " fill="black" /><path d="M -2.991 178.728 L -2.991 178.728 L -3.324 180.433 L -7.342 180.433 L -7.342 179.953 L -5.951 178.542 Q -5.402 177.993 -5.044 177.571 Q -4.686 177.15 -4.51 176.724 Q -4.334 176.297 -4.334 175.749 Q -4.334 175.229 -4.652 174.891 Q -4.971 174.553 -5.549 174.553 Q -6.078 174.553 -6.436 174.764 Q -6.793 174.974 -7.068 175.455 L -7.332 175.327 Q -7.087 174.641 -6.573 174.249 Q -6.058 173.857 -5.304 173.857 Q -4.716 173.857 -4.265 174.068 Q -3.814 174.279 -3.559 174.671 Q -3.305 175.063 -3.305 175.621 Q -3.305 176.101 -3.52 176.523 Q -3.736 176.944 -4.133 177.385 Q -4.53 177.826 -5.078 178.365 L -6.303 179.551 L -6.303 179.62 L -5.539 179.58 L -4.265 179.58 Q -3.981 179.58 -3.829 179.502 Q -3.677 179.424 -3.569 179.232 Q -3.461 179.041 -3.334 178.728 Z " fill="black" /></g></g></g><g><g><g><path d="M -25.252 228.295 L -25.252 228.295 L -25.294 228.715 Q -25.798 228.729 -26.106 228.939 Q -26.414 229.149 -26.778 229.681 L -31.706 237.577 L -32.112 237.577 L -32.574 232.131 L -32.63 232.131 L -36.228 237.577 L -36.62 237.577 L -37.306 229.975 Q -37.362 229.289 -37.6 229.002 Q -37.838 228.715 -38.44 228.715 L -38.37 228.295 L -34.87 228.295 L -34.94 228.715 Q -35.542 228.715 -35.78 228.834 Q -36.018 228.953 -36.046 229.233 Q -36.046 229.261 -36.046 229.317 Q -36.046 229.429 -36.046 229.59 Q -36.046 229.751 -36.018 229.947 L -35.654 233.895 L -35.584 235.239 L -35.5 235.239 L -32.672 231.137 L -32.77 230.031 Q -32.826 229.429 -32.917 229.149 Q -33.008 228.869 -33.211 228.792 Q -33.414 228.715 -33.82 228.715 L -33.75 228.295 L -30.18 228.295 L -30.25 228.715 Q -31.02 228.715 -31.279 228.967 Q -31.538 229.219 -31.482 230.003 L -31.146 233.783 L -31.09 235.211 L -31.02 235.211 L -28.038 230.521 Q -27.814 230.171 -27.618 229.793 Q -27.422 229.415 -27.422 229.107 Q -27.422 228.897 -27.576 228.806 Q -27.73 228.715 -28.192 228.715 L -28.108 228.295 Z " fill="black" /><path d="M -21.943 240.433 L -21.943 240.433 L -25.265 240.433 L -25.265 240.08 Q -24.559 240.08 -24.329 239.938 Q -24.099 239.796 -24.099 239.424 L -24.099 235.151 Q -24.099 234.886 -24.177 234.769 Q -24.256 234.651 -24.461 234.651 Q -24.618 234.651 -24.888 234.695 Q -25.157 234.739 -25.353 234.788 L -25.353 234.396 L -23.54 233.896 L -23.119 233.896 L -23.119 239.424 Q -23.119 239.796 -22.869 239.938 Q -22.619 240.08 -21.943 240.08 Z " fill="black" /><path d="M -16.274 227.567 L -16.274 227.567 L -19.914 238.739 L -20.698 238.739 L -17.044 227.567 Z " fill="black" /><path d="M -8.028 234.763 L -8.028 234.763 L -8.868 237.493 L -15.784 237.493 L -15.7 237.073 Q -15.154 237.073 -14.867 236.975 Q -14.58 236.877 -14.426 236.597 Q -14.272 236.317 -14.16 235.757 L -12.956 229.919 Q -12.858 229.457 -12.886 229.191 Q -12.914 228.925 -13.173 228.82 Q -13.432 228.715 -14.034 228.715 L -13.95 228.295 L -9.974 228.295 L -10.044 228.715 Q -10.8 228.715 -11.178 228.946 Q -11.556 229.177 -11.71 229.933 L -12.984 236.205 Q -13.082 236.667 -12.886 236.814 Q -12.69 236.961 -12.074 236.961 L -11.416 236.961 Q -10.744 236.961 -10.324 236.842 Q -9.904 236.723 -9.61 236.471 Q -9.316 236.219 -9.057 235.792 Q -8.798 235.365 -8.476 234.763 Z " fill="black" /><path d="M -3.403 240.433 L -3.403 240.433 L -6.725 240.433 L -6.725 240.08 Q -6.019 240.08 -5.789 239.938 Q -5.559 239.796 -5.559 239.424 L -5.559 235.151 Q -5.559 234.886 -5.637 234.769 Q -5.715 234.651 -5.921 234.651 Q -6.078 234.651 -6.348 234.695 Q -6.617 234.739 -6.813 234.788 L -6.813 234.396 L -5 233.896 L -4.579 233.896 L -4.579 239.424 Q -4.579 239.796 -4.329 239.938 Q -4.079 240.08 -3.403 240.08 Z " fill="black" /></g></g></g><circle cx="51" cy="234" r="2.7" style="stroke:black;fill:black;stroke-width:2.0;stroke-dasharray:-;" /><circle cx="-0" cy="144" r="2.7" style="stroke:black;fill:black;stroke-width:2.0;stroke-dasharray:-;" /><g><g><g><path d="M 191.583 227.623 L 191.583 227.623 L 190.337 234.161 L 190.407 234.161 L 192.591 232.187 Q 192.745 232.061 192.836 231.935 Q 192.927 231.809 192.927 231.669 Q 192.927 231.445 192.738 231.375 Q 192.549 231.305 192.297 231.305 L 192.339 230.955 L 195.349 230.955 L 195.307 231.305 Q 194.593 231.319 194.201 231.571 Q 193.809 231.823 193.459 232.145 L 191.905 233.517 L 192.941 235.925 Q 193.095 236.275 193.242 236.478 Q 193.389 236.681 193.697 236.681 Q 194.061 236.681 194.32 236.436 Q 194.579 236.191 194.803 235.869 L 195.097 236.065 Q 195.041 236.163 194.887 236.415 Q 194.733 236.667 194.481 236.947 Q 194.229 237.227 193.9 237.43 Q 193.571 237.633 193.165 237.633 Q 192.815 237.633 192.591 237.465 Q 192.367 237.297 192.234 237.045 Q 192.101 236.793 191.989 236.541 L 191.023 234.203 L 190.211 234.917 L 189.721 237.493 L 188.573 237.493 L 190.225 228.981 Q 190.225 228.981 190.246 228.841 Q 190.267 228.701 190.267 228.561 Q 190.267 228.113 189.777 228.113 Q 189.651 228.113 189.497 228.127 Q 189.343 228.141 189.343 228.141 L 189.343 227.777 L 191.275 227.623 Z " fill="black" /><path d="M 201.371 233.923 L 201.371 233.923 Q 201.371 234.245 201.154 234.483 Q 200.937 234.721 200.531 234.721 Q 200.125 234.721 199.922 234.49 Q 199.719 234.259 199.719 233.909 Q 199.719 233.559 199.936 233.307 Q 200.153 233.055 200.545 233.055 Q 200.951 233.055 201.161 233.314 Q 201.371 233.573 201.371 233.923 Z " fill="black" /><path d="M 219.77 228.295 L 219.77 228.295 L 219.728 228.715 Q 219.224 228.729 218.916 228.939 Q 218.608 229.149 218.244 229.681 L 213.316 237.577 L 212.91 237.577 L 212.448 232.131 L 212.392 232.131 L 208.794 237.577 L 208.402 237.577 L 207.716 229.975 Q 207.66 229.289 207.422 229.002 Q 207.184 228.715 206.582 228.715 L 206.652 228.295 L 210.152 228.295 L 210.082 228.715 Q 209.48 228.715 209.242 228.834 Q 209.004 228.953 208.976 229.233 Q 208.976 229.261 208.976 229.317 Q 208.976 229.429 208.976 229.59 Q 208.976 229.751 209.004 229.947 L 209.368 233.895 L 209.438 235.239 L 209.522 235.239 L 212.35 231.137 L 212.252 230.031 Q 212.196 229.429 212.105 229.149 Q 212.014 228.869 211.811 228.792 Q 211.608 228.715 211.202 228.715 L 211.272 228.295 L 214.842 228.295 L 214.772 228.715 Q 214.002 228.715 213.743 228.967 Q 213.484 229.219 213.54 230.003 L 213.876 233.783 L 213.932 235.211 L 214.002 235.211 L 216.984 230.521 Q 217.208 230.171 217.404 229.793 Q 217.6 229.415 217.6 229.107 Q 217.6 228.897 217.446 228.806 Q 217.292 228.715 216.83 228.715 L 216.914 228.295 Z " fill="black" /><path d="M 223.079 240.433 L 223.079 240.433 L 219.757 240.433 L 219.757 240.08 Q 220.463 240.08 220.693 239.938 Q 220.923 239.796 220.923 239.424 L 220.923 235.151 Q 220.923 234.886 220.845 234.769 Q 220.766 234.651 220.561 234.651 Q 220.404 234.651 220.134 234.695 Q 219.865 234.739 219.669 234.788 L 219.669 234.396 L 221.482 233.896 L 221.903 233.896 L 221.903 239.424 Q 221.903 239.796 222.153 239.938 Q 222.403 240.08 223.079 240.08 Z " fill="black" /><path d="M 228.748 227.567 L 228.748 227.567 L 225.108 238.739 L 224.324 238.739 L 227.978 227.567 Z " fill="black" /><path d="M 236.994 234.763 L 236.994 234.763 L 236.154 237.493 L 229.238 237.493 L 229.322 237.073 Q 229.868 237.073 230.155 236.975 Q 230.442 236.877 230.596 236.597 Q 230.75 236.317 230.862 235.757 L 232.066 229.919 Q 232.164 229.457 232.136 229.191 Q 232.108 228.925 231.849 228.82 Q 231.59 228.715 230.988 228.715 L 231.072 228.295 L 235.048 228.295 L 234.978 228.715 Q 234.222 228.715 233.844 228.946 Q 233.466 229.177 233.312 229.933 L 232.038 236.205 Q 231.94 236.667 232.136 236.814 Q 232.332 236.961 232.948 236.961 L 233.606 236.961 Q 234.278 236.961 234.698 236.842 Q 235.118 236.723 235.412 236.471 Q 235.706 236.219 235.965 235.792 Q 236.224 235.365 236.546 234.763 Z " fill="black" /><path d="M 241.619 240.433 L 241.619 240.433 L 238.297 240.433 L 238.297 240.08 Q 239.003 240.08 239.233 239.938 Q 239.463 239.796 239.463 239.424 L 239.463 235.151 Q 239.463 234.886 239.385 234.769 Q 239.307 234.651 239.101 234.651 Q 238.944 234.651 238.674 234.695 Q 238.405 234.739 238.209 234.788 L 238.209 234.396 L 240.022 233.896 L 240.443 233.896 L 240.443 239.424 Q 240.443 239.796 240.693 239.938 Q 240.943 240.08 241.619 240.08 Z " fill="black" /></g></g></g><g><g><g><path d="M 191.289 167.623 L 191.289 167.623 L 190.043 174.161 L 190.113 174.161 L 192.297 172.187 Q 192.451 172.061 192.542 171.935 Q 192.633 171.809 192.633 171.669 Q 192.633 171.445 192.444 171.375 Q 192.255 171.305 192.003 171.305 L 192.045 170.955 L 195.055 170.955 L 195.013 171.305 Q 194.299 171.319 193.907 171.571 Q 193.515 171.823 193.165 172.145 L 191.611 173.517 L 192.647 175.925 Q 192.801 176.275 192.948 176.478 Q 193.095 176.681 193.403 176.681 Q 193.767 176.681 194.026 176.436 Q 194.285 176.191 194.509 175.869 L 194.803 176.065 Q 194.747 176.163 194.593 176.415 Q 194.439 176.667 194.187 176.947 Q 193.935 177.227 193.606 177.43 Q 193.277 177.633 192.871 177.633 Q 192.521 177.633 192.297 177.465 Q 192.073 177.297 191.94 177.045 Q 191.807 176.793 191.695 176.541 L 190.729 174.203 L 189.917 174.917 L 189.427 177.493 L 188.279 177.493 L 189.931 168.981 Q 189.931 168.981 189.952 168.841 Q 189.973 168.701 189.973 168.561 Q 189.973 168.113 189.483 168.113 Q 189.357 168.113 189.203 168.127 Q 189.049 168.141 189.049 168.141 L 189.049 167.777 L 190.981 167.623 Z " fill="black" /><path d="M 201.077 173.923 L 201.077 173.923 Q 201.077 174.245 200.86 174.483 Q 200.643 174.721 200.237 174.721 Q 199.831 174.721 199.628 174.49 Q 199.425 174.259 199.425 173.909 Q 199.425 173.559 199.642 173.307 Q 199.859 173.055 200.251 173.055 Q 200.657 173.055 200.867 173.314 Q 201.077 173.573 201.077 173.923 Z " fill="black" /><path d="M 219.476 168.295 L 219.476 168.295 L 219.434 168.715 Q 218.93 168.729 218.622 168.939 Q 218.314 169.149 217.95 169.681 L 213.022 177.577 L 212.616 177.577 L 212.154 172.131 L 212.098 172.131 L 208.5 177.577 L 208.108 177.577 L 207.422 169.975 Q 207.366 169.289 207.128 169.002 Q 206.89 168.715 206.288 168.715 L 206.358 168.295 L 209.858 168.295 L 209.788 168.715 Q 209.186 168.715 208.948 168.834 Q 208.71 168.953 208.682 169.233 Q 208.682 169.261 208.682 169.317 Q 208.682 169.429 208.682 169.59 Q 208.682 169.751 208.71 169.947 L 209.074 173.895 L 209.144 175.239 L 209.228 175.239 L 212.056 171.137 L 211.958 170.031 Q 211.902 169.429 211.811 169.149 Q 211.72 168.869 211.517 168.792 Q 211.314 168.715 210.908 168.715 L 210.978 168.295 L 214.548 168.295 L 214.478 168.715 Q 213.708 168.715 213.449 168.967 Q 213.19 169.219 213.246 170.003 L 213.582 173.783 L 213.638 175.211 L 213.708 175.211 L 216.69 170.521 Q 216.914 170.171 217.11 169.793 Q 217.306 169.415 217.306 169.107 Q 217.306 168.897 217.152 168.806 Q 216.998 168.715 216.536 168.715 L 216.62 168.295 Z " fill="black" /><path d="M 223.344 178.728 L 223.344 178.728 L 223.011 180.433 L 218.993 180.433 L 218.993 179.953 L 220.384 178.542 Q 220.933 177.993 221.291 177.571 Q 221.648 177.15 221.825 176.724 Q 222.001 176.297 222.001 175.749 Q 222.001 175.229 221.683 174.891 Q 221.364 174.553 220.786 174.553 Q 220.257 174.553 219.899 174.764 Q 219.541 174.974 219.267 175.455 L 219.002 175.327 Q 219.247 174.641 219.762 174.249 Q 220.276 173.857 221.031 173.857 Q 221.619 173.857 222.07 174.068 Q 222.521 174.279 222.775 174.671 Q 223.03 175.063 223.03 175.621 Q 223.03 176.101 222.815 176.523 Q 222.599 176.944 222.202 177.385 Q 221.805 177.826 221.256 178.365 L 220.031 179.551 L 220.031 179.62 L 220.796 179.58 L 222.07 179.58 Q 222.354 179.58 222.506 179.502 Q 222.658 179.424 222.766 179.232 Q 222.873 179.041 223.001 178.728 Z " fill="black" /><path d="M 228.601 167.567 L 228.601 167.567 L 224.961 178.739 L 224.177 178.739 L 227.831 167.567 Z " fill="black" /><path d="M 236.847 174.763 L 236.847 174.763 L 236.007 177.493 L 229.091 177.493 L 229.175 177.073 Q 229.721 177.073 230.008 176.975 Q 230.295 176.877 230.449 176.597 Q 230.603 176.317 230.715 175.757 L 231.919 169.919 Q 232.017 169.457 231.989 169.191 Q 231.961 168.925 231.702 168.82 Q 231.443 168.715 230.841 168.715 L 230.925 168.295 L 234.901 168.295 L 234.831 168.715 Q 234.075 168.715 233.697 168.946 Q 233.319 169.177 233.165 169.933 L 231.891 176.205 Q 231.793 176.667 231.989 176.814 Q 232.185 176.961 232.801 176.961 L 233.459 176.961 Q 234.131 176.961 234.551 176.842 Q 234.971 176.723 235.265 176.471 Q 235.559 176.219 235.818 175.792 Q 236.077 175.365 236.399 174.763 Z " fill="black" /><path d="M 242.031 178.728 L 242.031 178.728 L 241.698 180.433 L 237.68 180.433 L 237.68 179.953 L 239.071 178.542 Q 239.62 177.993 239.978 177.571 Q 240.336 177.15 240.512 176.724 Q 240.688 176.297 240.688 175.749 Q 240.688 175.229 240.37 174.891 Q 240.051 174.553 239.473 174.553 Q 238.944 174.553 238.586 174.764 Q 238.229 174.974 237.954 175.455 L 237.69 175.327 Q 237.935 174.641 238.449 174.249 Q 238.964 173.857 239.718 173.857 Q 240.306 173.857 240.757 174.068 Q 241.208 174.279 241.463 174.671 Q 241.717 175.063 241.717 175.621 Q 241.717 176.101 241.502 176.523 Q 241.286 176.944 240.889 177.385 Q 240.492 177.826 239.944 178.365 L 238.719 179.551 L 238.719 179.62 L 239.483 179.58 L 240.757 179.58 Q 241.041 179.58 241.193 179.502 Q 241.345 179.424 241.453 179.232 Q 241.561 179.041 241.688 178.728 Z " fill="black" /></g></g></g><circle cx="174" cy="72" r="2.7" style="stroke:black;fill:white;stroke-width:2.0;stroke-dasharray:-;" /><g><g><g><path d="M 132.71 60.799 L 132.71 60.799 L 133.858 55.283 Q 133.984 54.737 133.977 54.422 Q 133.97 54.107 133.718 53.981 Q 133.466 53.855 132.822 53.855 L 132.906 53.435 L 136.784 53.435 L 136.7 53.855 Q 136.084 53.855 135.776 53.981 Q 135.468 54.107 135.342 54.422 Q 135.216 54.737 135.104 55.283 L 133.956 60.855 Q 133.914 61.079 133.886 61.261 Q 133.858 61.443 133.858 61.597 Q 133.858 61.989 134.089 62.101 Q 134.32 62.213 134.978 62.213 L 134.894 62.633 L 131.072 62.633 L 131.156 62.213 Q 131.73 62.213 132.017 62.115 Q 132.304 62.017 132.444 61.716 Q 132.584 61.415 132.71 60.799 Z " fill="black" /><path d="M 139.812 60.428 L 139.812 60.428 Q 140.547 60.428 141.096 60.746 Q 141.645 61.065 141.944 61.638 Q 142.242 62.211 142.242 62.985 Q 142.242 63.916 141.929 64.514 Q 141.615 65.112 141.066 65.401 Q 140.518 65.69 139.812 65.69 Q 139.097 65.69 138.543 65.391 Q 137.989 65.092 137.681 64.495 Q 137.372 63.897 137.372 62.995 Q 137.372 62.231 137.676 61.653 Q 137.979 61.074 138.528 60.751 Q 139.077 60.428 139.812 60.428 Z M 139.792 60.878 L 139.792 60.878 Q 139.146 60.878 138.778 61.403 Q 138.411 61.927 138.411 62.936 Q 138.411 64.181 138.788 64.695 Q 139.165 65.21 139.841 65.21 Q 140.273 65.2 140.576 64.994 Q 140.88 64.789 141.042 64.303 Q 141.204 63.818 141.204 62.985 Q 141.204 61.986 140.861 61.432 Q 140.518 60.878 139.792 60.878 Z " fill="black" /><path d="M 148.906 65.073 L 148.906 65.073 L 148.906 65.445 L 147.583 65.622 L 147.27 65.622 L 147.27 64.857 L 147.172 64.857 Q 146.799 65.19 146.417 65.43 Q 146.035 65.671 145.496 65.671 Q 144.771 65.671 144.389 65.23 Q 144.006 64.789 144.006 63.701 L 144.006 61.594 Q 144.006 61.192 143.864 61.099 Q 143.722 61.006 143.271 61.006 L 143.271 60.653 L 144.634 60.467 L 144.957 60.467 L 144.957 63.573 Q 144.957 64.122 145.084 64.426 Q 145.212 64.73 145.427 64.847 Q 145.643 64.965 145.898 64.965 Q 146.329 64.965 146.618 64.784 Q 146.907 64.602 147.221 64.348 L 147.221 61.594 Q 147.221 61.192 147.044 61.099 Q 146.868 61.006 146.368 61.006 L 146.368 60.653 L 147.828 60.467 L 148.171 60.467 L 148.171 64.436 Q 148.171 64.73 148.225 64.867 Q 148.279 65.004 148.416 65.038 Q 148.554 65.073 148.799 65.073 Z " fill="black" /><path d="M 152.728 64.593 L 152.728 64.593 L 152.954 64.779 Q 152.738 65.073 152.562 65.274 Q 152.385 65.475 152.16 65.582 Q 151.935 65.69 151.582 65.69 Q 151.013 65.69 150.754 65.367 Q 150.494 65.043 150.494 64.328 L 150.494 61.035 L 149.877 61.035 L 149.877 60.741 Q 150.229 60.486 150.523 60.119 Q 150.817 59.751 151.111 59.065 L 151.454 59.065 L 151.445 60.555 L 152.689 60.555 L 152.689 61.035 L 151.445 61.035 L 151.445 64.005 Q 151.445 64.553 151.548 64.784 Q 151.65 65.014 151.964 65.014 Q 152.248 65.014 152.395 64.911 Q 152.542 64.808 152.728 64.593 Z " fill="black" /><path d="M 167.605 58.055 L 167.605 58.055 L 159.261 58.055 L 159.261 57.103 L 167.605 57.103 Z M 167.605 60.911 L 167.605 60.911 L 159.261 60.911 L 159.261 59.973 L 167.605 59.973 Z " fill="black" /><path d="M 177.24 52.763 L 177.24 52.763 L 175.994 59.301 L 176.064 59.301 L 178.248 57.327 Q 178.402 57.201 178.493 57.075 Q 178.584 56.949 178.584 56.809 Q 178.584 56.585 178.395 56.515 Q 178.206 56.445 177.954 56.445 L 177.996 56.095 L 181.006 56.095 L 180.964 56.445 Q 180.25 56.459 179.858 56.711 Q 179.466 56.963 179.116 57.285 L 177.562 58.657 L 178.598 61.065 Q 178.752 61.415 178.899 61.618 Q 179.046 61.821 179.354 61.821 Q 179.718 61.821 179.977 61.576 Q 180.236 61.331 180.46 61.009 L 180.754 61.205 Q 180.698 61.303 180.544 61.555 Q 180.39 61.807 180.138 62.087 Q 179.886 62.367 179.557 62.57 Q 179.228 62.773 178.822 62.773 Q 178.472 62.773 178.248 62.605 Q 178.024 62.437 177.891 62.185 Q 177.758 61.933 177.646 61.681 L 176.68 59.343 L 175.868 60.057 L 175.378 62.633 L 174.23 62.633 L 175.882 54.121 Q 175.882 54.121 175.903 53.981 Q 175.924 53.841 175.924 53.701 Q 175.924 53.253 175.434 53.253 Q 175.308 53.253 175.154 53.267 Q 175 53.281 175 53.281 L 175 52.917 L 176.932 52.763 Z " fill="black" /><path d="M 187.029 59.063 L 187.029 59.063 Q 187.029 59.385 186.812 59.623 Q 186.595 59.861 186.189 59.861 Q 185.783 59.861 185.58 59.63 Q 185.377 59.399 185.377 59.049 Q 185.377 58.699 185.594 58.447 Q 185.811 58.195 186.203 58.195 Q 186.609 58.195 186.819 58.454 Q 187.029 58.713 187.029 59.063 Z " fill="black" /><path d="M 192.925 60.799 L 192.925 60.799 L 194.073 55.283 Q 194.199 54.737 194.192 54.422 Q 194.185 54.107 193.933 53.981 Q 193.681 53.855 193.037 53.855 L 193.121 53.435 L 196.999 53.435 L 196.915 53.855 Q 196.299 53.855 195.991 53.981 Q 195.683 54.107 195.557 54.422 Q 195.431 54.737 195.319 55.283 L 194.171 60.855 Q 194.129 61.079 194.101 61.261 Q 194.073 61.443 194.073 61.597 Q 194.073 61.989 194.304 62.101 Q 194.535 62.213 195.193 62.213 L 195.109 62.633 L 191.287 62.633 L 191.371 62.213 Q 191.945 62.213 192.232 62.115 Q 192.519 62.017 192.659 61.716 Q 192.799 61.415 192.925 60.799 Z " fill="black" /><path d="M 199.047 58.252 L 199.047 58.252 L 199.047 61.29 L 199.096 61.29 Q 199.381 60.957 199.768 60.692 Q 200.155 60.428 200.704 60.428 Q 201.213 60.428 201.63 60.736 Q 202.046 61.045 202.296 61.589 Q 202.546 62.133 202.546 62.838 Q 202.546 63.779 202.203 64.416 Q 201.86 65.053 201.267 65.372 Q 200.674 65.69 199.92 65.69 Q 199.479 65.69 199.106 65.617 Q 198.734 65.543 198.474 65.445 Q 198.214 65.347 198.097 65.298 L 198.097 59.418 Q 198.097 59.056 198.018 58.953 Q 197.94 58.85 197.607 58.85 Q 197.499 58.85 197.406 58.864 Q 197.313 58.879 197.313 58.879 L 197.313 58.507 L 198.646 58.252 Z M 199.047 61.8 L 199.047 61.8 L 199.047 64.74 Q 199.165 64.955 199.42 65.083 Q 199.675 65.21 200.096 65.21 Q 200.615 65.21 200.929 64.931 Q 201.243 64.651 201.385 64.186 Q 201.527 63.72 201.527 63.172 Q 201.527 62.672 201.414 62.216 Q 201.301 61.76 201.017 61.476 Q 200.733 61.192 200.233 61.192 Q 199.969 61.192 199.728 61.295 Q 199.488 61.398 199.312 61.54 Q 199.136 61.682 199.047 61.8 Z " fill="black" /><path d="M 206.123 65.21 L 206.123 65.21 L 206.123 65.573 L 203.634 65.573 L 203.634 65.21 Q 203.977 65.21 204.129 65.136 Q 204.281 65.063 204.32 64.901 Q 204.359 64.74 204.359 64.475 L 204.359 61.515 Q 204.359 61.182 204.251 61.114 Q 204.143 61.045 203.889 61.045 Q 203.761 61.045 203.683 61.055 Q 203.604 61.065 203.604 61.065 L 203.604 60.673 L 204.918 60.457 L 205.319 60.457 L 205.319 64.475 Q 205.319 64.759 205.363 64.921 Q 205.408 65.083 205.579 65.146 Q 205.751 65.21 206.123 65.21 Z M 204.829 58.291 L 204.829 58.291 Q 205.114 58.291 205.305 58.487 Q 205.496 58.683 205.496 58.938 Q 205.496 59.173 205.305 59.369 Q 205.114 59.565 204.829 59.565 Q 204.555 59.565 204.374 59.369 Q 204.192 59.173 204.192 58.938 Q 204.192 58.683 204.374 58.487 Q 204.555 58.291 204.829 58.291 Z " fill="black" /><path d="M 210.043 64.955 L 210.043 64.955 L 209.974 64.955 Q 209.641 65.23 209.239 65.435 Q 208.838 65.641 208.367 65.641 Q 207.75 65.641 207.421 65.269 Q 207.093 64.896 207.093 64.367 Q 207.093 63.916 207.304 63.613 Q 207.515 63.309 207.853 63.118 Q 208.191 62.927 208.583 62.809 Q 208.975 62.691 209.337 62.623 Q 209.7 62.554 209.945 62.495 L 209.945 61.986 Q 209.945 61.329 209.685 61.079 Q 209.426 60.829 208.926 60.829 Q 208.622 60.829 208.49 60.908 Q 208.357 60.986 208.323 61.163 Q 208.289 61.339 208.279 61.623 Q 208.269 61.839 208.152 61.971 Q 208.034 62.103 207.809 62.103 Q 207.593 62.103 207.441 61.971 Q 207.289 61.839 207.289 61.584 Q 207.289 61.28 207.524 61.016 Q 207.76 60.751 208.196 60.589 Q 208.632 60.428 209.22 60.428 Q 210.102 60.428 210.499 60.834 Q 210.896 61.241 210.896 62.054 L 210.896 64.455 Q 210.896 64.779 210.969 64.872 Q 211.043 64.965 211.199 64.965 Q 211.366 64.965 211.488 64.896 Q 211.611 64.828 211.719 64.7 L 211.934 64.906 Q 211.425 65.631 210.739 65.631 Q 210.357 65.631 210.214 65.45 Q 210.072 65.269 210.043 64.955 Z M 209.945 64.593 L 209.945 64.593 L 209.945 62.868 Q 209.494 62.985 209.063 63.127 Q 208.632 63.27 208.352 63.515 Q 208.073 63.76 208.073 64.201 Q 208.073 64.583 208.294 64.803 Q 208.514 65.024 208.857 65.024 Q 209.063 65.024 209.352 64.931 Q 209.641 64.838 209.945 64.593 Z " fill="black" /><path d="M 212.611 63.789 L 212.611 63.789 L 212.924 63.789 Q 213.052 64.357 213.228 64.671 Q 213.404 64.985 213.684 65.107 Q 213.963 65.23 214.365 65.23 Q 214.825 65.23 215.075 65.078 Q 215.325 64.926 215.325 64.544 Q 215.325 64.289 215.203 64.117 Q 215.08 63.946 214.811 63.789 Q 214.541 63.632 214.09 63.426 Q 213.63 63.201 213.301 63.005 Q 212.973 62.809 212.802 62.544 Q 212.63 62.28 212.63 61.878 Q 212.63 61.172 213.105 60.8 Q 213.581 60.428 214.296 60.428 Q 214.727 60.428 215.026 60.535 Q 215.325 60.643 215.502 60.722 L 215.521 60.722 L 215.678 60.477 L 215.952 60.477 L 215.972 62.103 L 215.629 62.103 Q 215.443 61.349 215.11 61.089 Q 214.776 60.829 214.345 60.829 Q 213.894 60.829 213.664 61.025 Q 213.434 61.221 213.434 61.535 Q 213.434 61.79 213.591 61.956 Q 213.747 62.123 214.036 62.265 Q 214.326 62.407 214.727 62.603 Q 215.178 62.819 215.521 63.049 Q 215.864 63.279 216.06 63.568 Q 216.256 63.858 216.256 64.289 Q 216.256 64.808 215.982 65.122 Q 215.707 65.435 215.276 65.568 Q 214.845 65.7 214.375 65.7 Q 213.894 65.7 213.63 65.602 Q 213.365 65.504 213.14 65.416 L 213.101 65.416 L 212.856 65.671 L 212.63 65.671 Z " fill="black" /></g></g></g><circle cx="87" cy="174" r="2.7" style="stroke:blue;fill:blue;stroke-width:2.0;stroke-dasharray:-;" /><circle cx="-0" cy="72" r="2.7" style="stroke:blue;fill:blue;stroke-width:2.0;stroke-dasharray:-;" /></svg>