<svg xmlns="http://www.w3.org/2000/svg" xmlns:xlink="http://www.w3.org/1999/xlink" xml:lang="en" height="304.77799999999996pt" width="361.8986pt" viewBox="-65.09860000000002 -34.738 361.8986 304.77799999999996"><circle cx="-6.613092715395707e-15" cy="36.0" r="18.0" style="stroke:black;fill:none;stroke-width:2.0;stroke-dasharray:-;" /><circle cx="122.99999999999996" cy="36.0" r="18.0" style="stroke:blue;fill:none;stroke-width:2.0;stroke-dasharray:-;" /><path d="M 0.0,-0.0 L -3.3065463576978533e-15,18.0 L -3.3065463576978533e-15,18.0 M -9.919639073093561e-15,54.0 L -9.919639073093561e-15,54.0 L -1.3226185430791413e-14,72.0" style="stroke:black;fill:none;stroke-width:2.0;stroke-dasharray:-;stroke-linecap:round;stroke-linejoin:round;" /><path d="M -4.9598195365467806e-15,27.0 L -6.819055509535661e-15,36.0" style="stroke:black;fill:none;stroke-width:2.0;stroke-dasharray:-;stroke-linecap:round;stroke-linejoin:round;" /><path d="M -7.944741364309306e-15 43.0 L -2.7000000000000064 36.0 L 2.699999999999993 36.0 Z" style="stroke:black;fill:black;stroke-linecap:butt;stroke-linejoin:miter;" /><path d="M -1.3226185430791413e-14,72.0 L -1.3226185430791413e-14,87.0 L 14.999999999999984,87.0 L 14.999999999999984,117.0 L -1.3226185430791413e-14,117.0 L -1.3226185430791413e-14,132.0" style="stroke:black;fill:none;stroke-width:2.0;stroke-dasharray:-;stroke-linecap:round;stroke-linejoin:round;" /><path d="M 14.999999999999984,117.0 L 8.999999999999988,117.0" style="stroke:black;fill:none;stroke-width:2.0;stroke-dasharray:-;stroke-linecap:round;stroke-linejoin:round;" /><path d="M 1.9999999999999867 117.0 L 8.999999999999988 112.5 L 8.999999999999986 121.5 Z" style="stroke:black;fill:black;stroke-linecap:butt;stroke-linejoin:miter;" /><path d="M 17.999999999999986,90.0 L 17.999999999999986,114.00000000000001" style="stroke:black;fill:none;stroke-width:2.0;stroke-dasharray:-;stroke-linecap:round;stroke-linejoin:round;" /><path d="M 17.999999999999986,101.99999999999999 L 32.999999999999986,101.99999999999999" style="stroke:black;fill:none;stroke-width:2.0;stroke-dasharray:-;stroke-linecap:round;stroke-linejoin:round;" /><path d="M -1.3226185430791413e-14,132.0 L -1.6532731788489267e-14,149.99999999999997 L -1.9839278146187122e-14,167.99999999999997" style="stroke:black;fill:none;stroke-width:2.0;stroke-dasharray:-;stroke-linecap:round;stroke-linejoin:round;" /><path d="M -1.9839278146187122e-14,167.99999999999997 L -1.9839278146187122e-14,183.0 L 14.999999999999979,183.0 L 14.999999999999979,212.99999999999997 L -1.9839278146187122e-14,212.99999999999997 L -1.9839278146187122e-14,227.99999999999994" style="stroke:black;fill:none;stroke-width:2.0;stroke-dasharray:-;stroke-linecap:round;stroke-linejoin:round;" /><path d="M 14.999999999999979,212.99999999999997 L 8.99999999999998,212.99999999999997" style="stroke:black;fill:none;stroke-width:2.0;stroke-dasharray:-;stroke-linecap:round;stroke-linejoin:round;" /><path d="M 1.9999999999999802 212.99999999999997 L 8.999999999999982 208.49999999999997 L 8.999999999999979 217.49999999999997 Z" style="stroke:black;fill:black;stroke-linecap:butt;stroke-linejoin:miter;" /><path d="M 17.99999999999998,185.99999999999997 L 17.99999999999998,210.0" style="stroke:black;fill:none;stroke-width:2.0;stroke-dasharray:-;stroke-linecap:round;stroke-linejoin:round;" /><path d="M 17.99999999999998,197.99999999999997 L 32.99999999999997,197.99999999999997" style="stroke:black;fill:none;stroke-width:2.0;stroke-dasharray:-;stroke-linecap:round;stroke-linejoin:round;" /><path d="M -1.9839278146187122e-14,227.99999999999994 L -1.9839278146187122e-14,242.39999999999998 L -9.00000000000002,242.39999999999998 L 8.99999999999998,242.39999999999998 M -6.300000000000019,246.71999999999994 L 6.299999999999979,246.71999999999994 M -1.8000000000000198,251.03999999999994 L 1.7999999999999803,251.03999999999994" style="stroke:black;fill:none;stroke-width:2.0;stroke-dasharray:-;stroke-linecap:round;stroke-linejoin:round;" /><path d="M 32.99999999999997,197.99999999999997 L 41.99999999999998,197.99999999999997 L 50.99999999999998,197.99999999999997" style="stroke:black;fill:none;stroke-width:2.0;stroke-dasharray:-;stroke-linecap:round;stroke-linejoin:round;" /><path d="M 50.99999999999998,197.99999999999997 L 50.99999999999998,134.99999999999997 L 50.999999999999986,72.0" style="stroke:black;fill:none;stroke-width:2.0;stroke-dasharray:-;stroke-linecap:round;stroke-linejoin:round;" /><path d="M 50.999999999999986,72.0 L 25.499999999999986,72.0 L -1.5987211554602254e-14,71.99999999999999" style="stroke:black;fill:none;stroke-width:2.0;stroke-dasharray:-;stroke-linecap:round;stroke-linejoin:round;" /><path d="M 32.99999999999997,197.99999999999997 L 104.99999999999997,197.99999999999997 L 176.99999999999997,197.99999999999997" style="stroke:black;fill:none;stroke-width:2.0;stroke-dasharray:-;stroke-linecap:round;stroke-linejoin:round;" /><path d="M 209.99999999999994,227.99999999999994 L 209.99999999999994,212.99999999999997 L 194.99999999999997,212.99999999999997 L 194.99999999999997,182.99999999999994 L 209.99999999999994,182.99999999999994 L 209.99999999999994,167.99999999999997" style="stroke:black;fill:none;stroke-width:2.0;stroke-dasharray:-;stroke-linecap:round;stroke-linejoin:round;" /><path d="M 200.99999999999994,212.99999999999997 L 194.99999999999997,212.99999999999997" style="stroke:black;fill:none;stroke-width:2.0;stroke-dasharray:-;stroke-linecap:round;stroke-linejoin:round;" /><path d="M 207.99999999999994 212.99999999999997 L 200.99999999999994 217.49999999999997 L 200.99999999999994 208.49999999999997 Z" style="stroke:black;fill:black;stroke-linecap:butt;stroke-linejoin:miter;" /><path d="M 192.0,209.99999999999994 L 192.0,185.99999999999997" style="stroke:black;fill:none;stroke-width:2.0;stroke-dasharray:-;stroke-linecap:round;stroke-linejoin:round;" /><path d="M 176.99999999999997,197.99999999999997 L 192.0,197.99999999999997" style="stroke:black;fill:none;stroke-width:2.0;stroke-dasharray:-;stroke-linecap:round;stroke-linejoin:round;" /><path d="M 209.99999999999994,167.99999999999997 L 209.99999999999994,158.99999999999997 L 209.99999999999994,149.99999999999997" style="stroke:black;fill:none;stroke-width:2.0;stroke-dasharray:-;stroke-linecap:round;stroke-linejoin:round;" /><path d="M 209.99999999999994,149.99999999999997 L 209.99999999999994,140.99999999999997 L 209.99999999999994,131.99999999999997" style="stroke:black;fill:none;stroke-width:2.0;stroke-dasharray:-;stroke-linecap:round;stroke-linejoin:round;" /><path d="M 209.99999999999994,131.99999999999997 L 209.99999999999994,116.99999999999999 L 194.99999999999994,116.99999999999999 L 194.99999999999994,86.99999999999997 L 209.99999999999994,86.99999999999997 L 209.99999999999994,71.99999999999999" style="stroke:black;fill:none;stroke-width:2.0;stroke-dasharray:-;stroke-linecap:round;stroke-linejoin:round;" /><path d="M 200.99999999999994,116.99999999999999 L 194.99999999999994,116.99999999999999" style="stroke:black;fill:none;stroke-width:2.0;stroke-dasharray:-;stroke-linecap:round;stroke-linejoin:round;" /><path d="M 207.99999999999994 116.99999999999999 L 200.99999999999994 121.49999999999999 L 200.99999999999994 112.49999999999999 Z" style="stroke:black;fill:black;stroke-linecap:butt;stroke-linejoin:miter;" /><path d="M 191.99999999999994,113.99999999999997 L 191.99999999999994,89.99999999999999" style="stroke:black;fill:none;stroke-width:2.0;stroke-dasharray:-;stroke-linecap:round;stroke-linejoin:round;" /><path d="M 176.99999999999997,101.99999999999999 L 191.99999999999994,101.99999999999999" style="stroke:black;fill:none;stroke-width:2.0;stroke-dasharray:-;stroke-linecap:round;stroke-linejoin:round;" /><path d="M 209.99999999999994,227.99999999999994 L 209.99999999999994,242.39999999999998 L 200.99999999999994,242.39999999999998 L 218.99999999999994,242.39999999999998 M 203.69999999999996,246.71999999999994 L 216.29999999999995,246.71999999999994 M 208.19999999999996,251.03999999999994 L 211.79999999999995,251.03999999999994" style="stroke:black;fill:none;stroke-width:2.0;stroke-dasharray:-;stroke-linecap:round;stroke-linejoin:round;" /><path d="M 209.99999999999994,71.99999999999999 L 209.99999999999994,53.999999999999986 L 209.99999999999994,35.999999999999986" style="stroke:black;fill:none;stroke-width:2.0;stroke-dasharray:-;stroke-linecap:round;stroke-linejoin:round;" /><path d="M 209.99999999999994,149.99999999999997 L 182.99999999999994,149.99999999999997 L 155.99999999999994,149.99999999999997" style="stroke:blue;fill:none;stroke-width:2.0;stroke-dasharray:-;stroke-linecap:round;stroke-linejoin:round;" /><path d="M 122.99999999999996,119.99999999999999 L 122.99999999999996,134.99999999999997 L 137.99999999999994,134.99999999999997 L 137.99999999999994,165.0 L 122.99999999999996,165.0 L 122.99999999999996,179.99999999999997" style="stroke:blue;fill:none;stroke-width:2.0;stroke-dasharray:-;stroke-linecap:round;stroke-linejoin:round;" /><path d="M 137.99999999999994,165.0 L 131.99999999999997,165.0" style="stroke:blue;fill:none;stroke-width:2.0;stroke-dasharray:-;stroke-linecap:round;stroke-linejoin:round;" /><path d="M 124.99999999999996 165.0 L 131.99999999999997 160.5 L 131.99999999999994 169.5 Z" style="stroke:blue;fill:blue;stroke-linecap:butt;stroke-linejoin:miter;" /><path d="M 140.99999999999997,137.99999999999997 L 140.99999999999997,162.0" style="stroke:blue;fill:none;stroke-width:2.0;stroke-dasharray:-;stroke-linecap:round;stroke-linejoin:round;" /><path d="M 140.99999999999997,149.99999999999997 L 155.99999999999994,149.99999999999997" style="stroke:blue;fill:none;stroke-width:2.0;stroke-dasharray:-;stroke-linecap:round;stroke-linejoin:round;" /><path d="M 122.99999999999996,179.99999999999997 L 122.99999999999996,203.99999999999997 L 122.99999999999994,227.99999999999994" style="stroke:blue;fill:none;stroke-width:2.0;stroke-dasharray:-;stroke-linecap:round;stroke-linejoin:round;" /><path d="M 122.99999999999994,227.99999999999994 L 122.99999999999994,242.39999999999998 L 113.99999999999994,242.39999999999998 L 131.99999999999994,242.39999999999998 M 116.69999999999996,246.71999999999994 L 129.29999999999995,246.71999999999994 M 121.19999999999996,251.03999999999994 L 124.79999999999994,251.03999999999994" style="stroke:blue;fill:none;stroke-width:2.0;stroke-dasharray:-;stroke-linecap:round;stroke-linejoin:round;" /><path d="M 122.99999999999996,119.99999999999999 L 122.99999999999996,110.99999999999999 L 122.99999999999996,101.99999999999999" style="stroke:blue;fill:none;stroke-width:2.0;stroke-dasharray:-;stroke-linecap:round;stroke-linejoin:round;" /><path d="M 122.99999999999996,101.99999999999999 L 122.99999999999996,87.0 L 122.99999999999996,72.0" style="stroke:blue;fill:none;stroke-width:2.0;stroke-dasharray:-;stroke-linecap:round;stroke-linejoin:round;" /><path d="M 122.99999999999996,72.0 L 122.99999999999996,54.0 L 122.99999999999996,54.0 M 122.99999999999996,18.0 L 122.99999999999996,18.0 L 122.99999999999996,-0.0" style="stroke:blue;fill:none;stroke-width:2.0;stroke-dasharray:-;stroke-linecap:round;stroke-linejoin:round;" /><path d="M 122.99999999999996,36.0 L 122.99999999999996,27.0" style="stroke:blue;fill:none;stroke-width:2.0;stroke-dasharray:-;stroke-linecap:round;stroke-linejoin:round;" /><path d="M 122.99999999999996 43.0 L 120.29999999999995 36.0 L 125.69999999999996 36.0 Z" style="stroke:blue;fill:blue;stroke-linecap:butt;stroke-linejoin:miter;" /><path d="M 122.99999999999996,101.99999999999999 L 77.99999999999997,101.99999999999999 L 32.99999999999998,101.99999999999997" style="stroke:black;fill:none;stroke-width:2.0;stroke-dasharray:-;stroke-linecap:round;stroke-linejoin:round;" /><path d="M 122.99999999999996,101.99999999999999 L 149.99999999999997,101.99999999999999 L 176.99999999999997,101.99999999999999" style="stroke:black;fill:none;stroke-width:2.0;stroke-dasharray:-;stroke-linecap:round;stroke-linejoin:round;" /><path d="M -18.0,-0.0 L 61.499999999999986,-0.0 L 140.99999999999997,-0.0" style="stroke:black;fill:none;stroke-width:3;stroke-dasharray:-;stroke-linecap:round;stroke-linejoin:round;" /><circle cx="-1.3226185430791413e-14" cy="72.0" r="2.6999999999999997" style="stroke:black;fill:black;stroke-width:2.0;stroke-dasharray:-;" /><g><g><g><path d="M -50.591 38.581 L -50.591 38.581 L -49.443 33.065 Q -49.317 32.519 -49.324 32.204 Q -49.331 31.889 -49.583 31.763 Q -49.835 31.637 -50.479 31.637 L -50.395 31.217 L -46.517 31.217 L -46.601 31.637 Q -47.217 31.637 -47.525 31.763 Q -47.833 31.889 -47.959 32.204 Q -48.085 32.519 -48.197 33.065 L -49.345 38.637 Q -49.387 38.861 -49.415 39.043 Q -49.443 39.225 -49.443 39.379 Q -49.443 39.771 -49.212 39.883 Q -48.981 39.995 -48.323 39.995 L -48.407 40.415 L -52.229 40.415 L -52.145 39.995 Q -51.571 39.995 -51.284 39.897 Q -50.997 39.799 -50.857 39.498 Q -50.717 39.197 -50.591 38.581 Z " fill="black" /><path d="M -44.469 36.035 L -44.469 36.035 L -44.469 39.073 L -44.42 39.073 Q -44.136 38.739 -43.749 38.475 Q -43.362 38.21 -42.813 38.21 Q -42.303 38.21 -41.887 38.519 Q -41.47 38.828 -41.22 39.372 Q -40.97 39.916 -40.97 40.621 Q -40.97 41.562 -41.313 42.199 Q -41.656 42.836 -42.249 43.154 Q -42.842 43.473 -43.597 43.473 Q -44.038 43.473 -44.41 43.399 Q -44.783 43.326 -45.042 43.228 Q -45.302 43.13 -45.42 43.081 L -45.42 37.201 Q -45.42 36.838 -45.498 36.735 Q -45.576 36.633 -45.91 36.633 Q -46.017 36.633 -46.111 36.647 Q -46.204 36.662 -46.204 36.662 L -46.204 36.29 L -44.871 36.035 Z M -44.469 39.582 L -44.469 39.582 L -44.469 42.522 Q -44.351 42.738 -44.097 42.865 Q -43.842 42.993 -43.42 42.993 Q -42.901 42.993 -42.587 42.713 Q -42.274 42.434 -42.132 41.969 Q -41.99 41.503 -41.99 40.954 Q -41.99 40.455 -42.102 39.999 Q -42.215 39.543 -42.499 39.259 Q -42.783 38.975 -43.283 38.975 Q -43.548 38.975 -43.788 39.078 Q -44.028 39.181 -44.204 39.323 Q -44.381 39.465 -44.469 39.582 Z " fill="black" /><path d="M -37.393 42.993 L -37.393 42.993 L -37.393 43.355 L -39.883 43.355 L -39.883 42.993 Q -39.54 42.993 -39.388 42.919 Q -39.236 42.846 -39.197 42.684 Q -39.157 42.522 -39.157 42.258 L -39.157 39.298 Q -39.157 38.965 -39.265 38.896 Q -39.373 38.828 -39.628 38.828 Q -39.755 38.828 -39.834 38.837 Q -39.912 38.847 -39.912 38.847 L -39.912 38.455 L -38.599 38.24 L -38.197 38.24 L -38.197 42.258 Q -38.197 42.542 -38.153 42.704 Q -38.109 42.865 -37.937 42.929 Q -37.766 42.993 -37.393 42.993 Z M -38.687 36.074 L -38.687 36.074 Q -38.403 36.074 -38.212 36.27 Q -38.021 36.466 -38.021 36.721 Q -38.021 36.956 -38.212 37.152 Q -38.403 37.348 -38.687 37.348 Q -38.961 37.348 -39.143 37.152 Q -39.324 36.956 -39.324 36.721 Q -39.324 36.466 -39.143 36.27 Q -38.961 36.074 -38.687 36.074 Z " fill="black" /><path d="M -33.473 42.738 L -33.473 42.738 L -33.542 42.738 Q -33.875 43.012 -34.277 43.218 Q -34.679 43.424 -35.149 43.424 Q -35.767 43.424 -36.095 43.051 Q -36.423 42.679 -36.423 42.15 Q -36.423 41.699 -36.213 41.395 Q -36.002 41.092 -35.664 40.9 Q -35.326 40.709 -34.934 40.592 Q -34.542 40.474 -34.179 40.406 Q -33.816 40.337 -33.571 40.278 L -33.571 39.769 Q -33.571 39.112 -33.831 38.862 Q -34.091 38.612 -34.591 38.612 Q -34.894 38.612 -35.027 38.691 Q -35.159 38.769 -35.193 38.945 Q -35.228 39.122 -35.237 39.406 Q -35.247 39.621 -35.365 39.754 Q -35.482 39.886 -35.708 39.886 Q -35.923 39.886 -36.075 39.754 Q -36.227 39.621 -36.227 39.367 Q -36.227 39.063 -35.992 38.798 Q -35.757 38.534 -35.321 38.372 Q -34.885 38.21 -34.297 38.21 Q -33.415 38.21 -33.018 38.617 Q -32.621 39.024 -32.621 39.837 L -32.621 42.238 Q -32.621 42.562 -32.547 42.655 Q -32.474 42.748 -32.317 42.748 Q -32.15 42.748 -32.028 42.679 Q -31.905 42.611 -31.798 42.483 L -31.582 42.689 Q -32.092 43.414 -32.778 43.414 Q -33.16 43.414 -33.302 43.233 Q -33.444 43.051 -33.473 42.738 Z M -33.571 42.375 L -33.571 42.375 L -33.571 40.651 Q -34.022 40.768 -34.453 40.91 Q -34.885 41.052 -35.164 41.297 Q -35.443 41.542 -35.443 41.983 Q -35.443 42.365 -35.223 42.586 Q -35.002 42.806 -34.659 42.806 Q -34.453 42.806 -34.164 42.713 Q -33.875 42.62 -33.571 42.375 Z " fill="black" /><path d="M -30.906 41.572 L -30.906 41.572 L -30.592 41.572 Q -30.465 42.14 -30.288 42.454 Q -30.112 42.767 -29.833 42.89 Q -29.553 43.012 -29.152 43.012 Q -28.691 43.012 -28.441 42.86 Q -28.191 42.709 -28.191 42.326 Q -28.191 42.072 -28.314 41.9 Q -28.436 41.728 -28.706 41.572 Q -28.975 41.415 -29.426 41.209 Q -29.887 40.984 -30.215 40.788 Q -30.543 40.592 -30.715 40.327 Q -30.886 40.062 -30.886 39.661 Q -30.886 38.955 -30.411 38.583 Q -29.936 38.21 -29.22 38.21 Q -28.789 38.21 -28.49 38.318 Q -28.191 38.426 -28.015 38.504 L -27.995 38.504 L -27.838 38.259 L -27.564 38.259 L -27.544 39.886 L -27.887 39.886 Q -28.074 39.132 -28.407 38.872 Q -28.74 38.612 -29.171 38.612 Q -29.622 38.612 -29.852 38.808 Q -30.083 39.004 -30.083 39.318 Q -30.083 39.572 -29.926 39.739 Q -29.769 39.906 -29.48 40.048 Q -29.191 40.19 -28.789 40.386 Q -28.338 40.602 -27.995 40.832 Q -27.652 41.062 -27.456 41.351 Q -27.26 41.64 -27.26 42.072 Q -27.26 42.591 -27.535 42.904 Q -27.809 43.218 -28.24 43.35 Q -28.671 43.483 -29.142 43.483 Q -29.622 43.483 -29.887 43.385 Q -30.151 43.287 -30.377 43.199 L -30.416 43.199 L -30.661 43.453 L -30.886 43.453 Z " fill="black" /><path d="M -22.537 43.355 L -22.537 43.355 L -25.859 43.355 L -25.859 43.002 Q -25.153 43.002 -24.923 42.86 Q -24.693 42.718 -24.693 42.346 L -24.693 38.073 Q -24.693 37.809 -24.771 37.691 Q -24.849 37.573 -25.055 37.573 Q -25.212 37.573 -25.482 37.617 Q -25.751 37.662 -25.947 37.711 L -25.947 37.319 L -24.134 36.819 L -23.713 36.819 L -23.713 42.346 Q -23.713 42.718 -23.463 42.86 Q -23.213 43.002 -22.537 43.002 Z " fill="black" /></g></g></g><g><g><g><path d="M -25.546 96.295 L -25.546 96.295 L -25.588 96.715 Q -26.092 96.729 -26.4 96.939 Q -26.708 97.149 -27.072 97.681 L -32 105.577 L -32.406 105.577 L -32.868 100.131 L -32.924 100.131 L -36.522 105.577 L -36.914 105.577 L -37.6 97.975 Q -37.656 97.289 -37.894 97.002 Q -38.132 96.715 -38.734 96.715 L -38.664 96.295 L -35.164 96.295 L -35.234 96.715 Q -35.836 96.715 -36.074 96.834 Q -36.312 96.953 -36.34 97.233 Q -36.34 97.261 -36.34 97.317 Q -36.34 97.429 -36.34 97.59 Q -36.34 97.751 -36.312 97.947 L -35.948 101.895 L -35.878 103.239 L -35.794 103.239 L -32.966 99.137 L -33.064 98.031 Q -33.12 97.429 -33.211 97.149 Q -33.302 96.869 -33.505 96.792 Q -33.708 96.715 -34.114 96.715 L -34.044 96.295 L -30.474 96.295 L -30.544 96.715 Q -31.314 96.715 -31.573 96.967 Q -31.832 97.219 -31.776 98.003 L -31.44 101.783 L -31.384 103.211 L -31.314 103.211 L -28.332 98.521 Q -28.108 98.171 -27.912 97.793 Q -27.716 97.415 -27.716 97.107 Q -27.716 96.897 -27.87 96.806 Q -28.024 96.715 -28.486 96.715 L -28.402 96.295 Z " fill="black" /><path d="M -21.678 106.728 L -21.678 106.728 L -22.011 108.433 L -26.029 108.433 L -26.029 107.953 L -24.638 106.542 Q -24.089 105.993 -23.731 105.571 Q -23.374 105.15 -23.197 104.724 Q -23.021 104.297 -23.021 103.749 Q -23.021 103.229 -23.339 102.891 Q -23.658 102.553 -24.236 102.553 Q -24.765 102.553 -25.123 102.764 Q -25.481 102.974 -25.755 103.455 L -26.02 103.327 Q -25.775 102.641 -25.26 102.249 Q -24.746 101.857 -23.991 101.857 Q -23.403 101.857 -22.952 102.068 Q -22.501 102.279 -22.247 102.671 Q -21.992 103.063 -21.992 103.621 Q -21.992 104.101 -22.207 104.523 Q -22.423 104.944 -22.82 105.385 Q -23.217 105.826 -23.766 106.365 L -24.991 107.551 L -24.991 107.62 L -24.226 107.58 L -22.952 107.58 Q -22.668 107.58 -22.516 107.502 Q -22.364 107.424 -22.256 107.232 Q -22.149 107.041 -22.021 106.728 Z " fill="black" /><path d="M -16.421 95.567 L -16.421 95.567 L -20.061 106.739 L -20.845 106.739 L -17.191 95.567 Z " fill="black" /><path d="M -8.175 102.763 L -8.175 102.763 L -9.015 105.493 L -15.931 105.493 L -15.847 105.073 Q -15.301 105.073 -15.014 104.975 Q -14.727 104.877 -14.573 104.597 Q -14.419 104.317 -14.307 103.757 L -13.103 97.919 Q -13.005 97.457 -13.033 97.191 Q -13.061 96.925 -13.32 96.82 Q -13.579 96.715 -14.181 96.715 L -14.097 96.295 L -10.121 96.295 L -10.191 96.715 Q -10.947 96.715 -11.325 96.946 Q -11.703 97.177 -11.857 97.933 L -13.131 104.205 Q -13.229 104.667 -13.033 104.814 Q -12.837 104.961 -12.221 104.961 L -11.563 104.961 Q -10.891 104.961 -10.471 104.842 Q -10.051 104.723 -9.757 104.471 Q -9.463 104.219 -9.204 103.792 Q -8.945 103.365 -8.623 102.763 Z " fill="black" /><path d="M -2.991 106.728 L -2.991 106.728 L -3.324 108.433 L -7.342 108.433 L -7.342 107.953 L -5.951 106.542 Q -5.402 105.993 -5.044 105.571 Q -4.686 105.15 -4.51 104.724 Q -4.334 104.297 -4.334 103.749 Q -4.334 103.229 -4.652 102.891 Q -4.971 102.553 -5.549 102.553 Q -6.078 102.553 -6.436 102.764 Q -6.793 102.974 -7.068 103.455 L -7.332 103.327 Q -7.087 102.641 -6.573 102.249 Q -6.058 101.857 -5.304 101.857 Q -4.716 101.857 -4.265 102.068 Q -3.814 102.279 -3.559 102.671 Q -3.305 103.063 -3.305 103.621 Q -3.305 104.101 -3.52 104.523 Q -3.736 104.944 -4.133 105.385 Q -4.53 105.826 -5.078 106.365 L -6.303 107.551 L -6.303 107.62 L -5.539 107.58 L -4.265 107.58 Q -3.981 107.58 -3.829 107.502 Q -3.677 107.424 -3.569 107.232 Q -3.461 107.041 -3.334 106.728 Z " fill="black" /></g></g></g><g><g><g><path d="M -25.252 192.295 L -25.252 192.295 L -25.294 192.715 Q -25.798 192.729 -26.106 192.939 Q -26.414 193.149 -26.778 193.681 L -31.706 201.577 L -32.112 201.577 L -32.574 196.131 L -32.63 196.131 L -36.228 201.577 L -36.62 201.577 L -37.306 193.975 Q -37.362 193.289 -37.6 193.002 Q -37.838 192.715 -38.44 192.715 L -38.37 192.295 L -34.87 192.295 L -34.94 192.715 Q -35.542 192.715 -35.78 192.834 Q -36.018 192.953 -36.046 193.233 Q -36.046 193.261 -36.046 193.317 Q -36.046 193.429 -36.046 193.59 Q -36.046 193.751 -36.018 193.947 L -35.654 197.895 L -35.584 199.239 L -35.5 199.239 L -32.672 195.137 L -32.77 194.031 Q -32.826 193.429 -32.917 193.149 Q -33.008 192.869 -33.211 192.792 Q -33.414 192.715 -33.82 192.715 L -33.75 192.295 L -30.18 192.295 L -30.25 192.715 Q -31.02 192.715 -31.279 192.967 Q -31.538 193.219 -31.482 194.003 L -31.146 197.783 L -31.09 199.211 L -31.02 199.211 L -28.038 194.521 Q -27.814 194.171 -27.618 193.793 Q -27.422 193.415 -27.422 193.107 Q -27.422 192.897 -27.576 192.806 Q -27.73 192.715 -28.192 192.715 L -28.108 192.295 Z " fill="black" /><path d="M -21.943 204.433 L -21.943 204.433 L -25.265 204.433 L -25.265 204.08 Q -24.559 204.08 -24.329 203.938 Q -24.099 203.796 -24.099 203.424 L -24.099 199.151 Q -24.099 198.886 -24.177 198.769 Q -24.256 198.651 -24.461 198.651 Q -24.618 198.651 -24.888 198.695 Q -25.157 198.739 -25.353 198.788 L -25.353 198.396 L -23.54 197.896 L -23.119 197.896 L -23.119 203.424 Q -23.119 203.796 -22.869 203.938 Q -22.619 204.08 -21.943 204.08 Z " fill="black" /><path d="M -16.274 191.567 L -16.274 191.567 L -19.914 202.739 L -20.698 202.739 L -17.044 191.567 Z " fill="black" /><path d="M -8.028 198.763 L -8.028 198.763 L -8.868 201.493 L -15.784 201.493 L -15.7 201.073 Q -15.154 201.073 -14.867 200.975 Q -14.58 200.877 -14.426 200.597 Q -14.272 200.317 -14.16 199.757 L -12.956 193.919 Q -12.858 193.457 -12.886 193.191 Q -12.914 192.925 -13.173 192.82 Q -13.432 192.715 -14.034 192.715 L -13.95 192.295 L -9.974 192.295 L -10.044 192.715 Q -10.8 192.715 -11.178 192.946 Q -11.556 193.177 -11.71 193.933 L -12.984 200.205 Q -13.082 200.667 -12.886 200.814 Q -12.69 200.961 -12.074 200.961 L -11.416 200.961 Q -10.744 200.961 -10.324 200.842 Q -9.904 200.723 -9.61 200.471 Q -9.316 200.219 -9.057 199.792 Q -8.798 199.365 -8.476 198.763 Z " fill="black" /><path d="M -3.403 204.433 L -3.403 204.433 L -6.725 204.433 L -6.725 204.08 Q -6.019 204.08 -5.789 203.938 Q -5.559 203.796 -5.559 203.424 L -5.559 199.151 Q -5.559 198.886 -5.637 198.769 Q -5.715 198.651 -5.921 198.651 Q -6.078 198.651 -6.348 198.695 Q -6.617 198.739 -6.813 198.788 L -6.813 198.396 L -5 197.896 L -4.579 197.896 L -4.579 203.424 Q -4.579 203.796 -4.329 203.938 Q -4.079 204.08 -3.403 204.08 Z " fill="black" /></g></g></g><circle cx="50.99999999999998" cy="197.99999999999997" r="2.6999999999999997" style="stroke:black;fill:black;stroke-width:2.0;stroke-dasharray:-;" /><g><g><g><path d="M 227.583 191.623 L 227.583 191.623 L 226.337 198.161 L 226.407 198.161 L 228.591 196.187 Q 228.745 196.061 228.836 195.935 Q 228.927 195.809 228.927 195.669 Q 228.927 195.445 228.738 195.375 Q 228.549 195.305 228.297 195.305 L 228.339 194.955 L 231.349 194.955 L 231.307 195.305 Q 230.593 195.319 230.201 195.571 Q 229.809 195.823 229.459 196.145 L 227.905 197.517 L 228.941 199.925 Q 229.095 200.275 229.242 200.478 Q 229.389 200.681 229.697 200.681 Q 230.061 200.681 230.32 200.436 Q 230.579 200.191 230.803 199.869 L 231.097 200.065 Q 231.041 200.163 230.887 200.415 Q 230.733 200.667 230.481 200.947 Q 230.229 201.227 229.9 201.43 Q 229.571 201.633 229.165 201.633 Q 228.815 201.633 228.591 201.465 Q 228.367 201.297 228.234 201.045 Q 228.101 200.793 227.989 200.541 L 227.023 198.203 L 226.211 198.917 L 225.721 201.493 L 224.573 201.493 L 226.225 192.981 Q 226.225 192.981 226.246 192.841 Q 226.267 192.701 226.267 192.561 Q 226.267 192.113 225.777 192.113 Q 225.651 192.113 225.497 192.127 Q 225.343 192.141 225.343 192.141 L 225.343 191.777 L 227.275 191.623 Z " fill="black" /><path d="M 237.371 197.923 L 237.371 197.923 Q 237.371 198.245 237.154 198.483 Q 236.937 198.721 236.531 198.721 Q 236.125 198.721 235.922 198.49 Q 235.719 198.259 235.719 197.909 Q 235.719 197.559 235.936 197.307 Q 236.153 197.055 236.545 197.055 Q 236.951 197.055 237.161 197.314 Q 237.371 197.573 237.371 197.923 Z " fill="black" /><path d="M 255.77 192.295 L 255.77 192.295 L 255.728 192.715 Q 255.224 192.729 254.916 192.939 Q 254.608 193.149 254.244 193.681 L 249.316 201.577 L 248.91 201.577 L 248.448 196.131 L 248.392 196.131 L 244.794 201.577 L 244.402 201.577 L 243.716 193.975 Q 243.66 193.289 243.422 193.002 Q 243.184 192.715 242.582 192.715 L 242.652 192.295 L 246.152 192.295 L 246.082 192.715 Q 245.48 192.715 245.242 192.834 Q 245.004 192.953 244.976 193.233 Q 244.976 193.261 244.976 193.317 Q 244.976 193.429 244.976 193.59 Q 244.976 193.751 245.004 193.947 L 245.368 197.895 L 245.438 199.239 L 245.522 199.239 L 248.35 195.137 L 248.252 194.031 Q 248.196 193.429 248.105 193.149 Q 248.014 192.869 247.811 192.792 Q 247.608 192.715 247.202 192.715 L 247.272 192.295 L 250.842 192.295 L 250.772 192.715 Q 250.002 192.715 249.743 192.967 Q 249.484 193.219 249.54 194.003 L 249.876 197.783 L 249.932 199.211 L 250.002 199.211 L 252.984 194.521 Q 253.208 194.171 253.404 193.793 Q 253.6 193.415 253.6 193.107 Q 253.6 192.897 253.446 192.806 Q 253.292 192.715 252.83 192.715 L 252.914 192.295 Z " fill="black" /><path d="M 259.079 204.433 L 259.079 204.433 L 255.757 204.433 L 255.757 204.08 Q 256.463 204.08 256.693 203.938 Q 256.923 203.796 256.923 203.424 L 256.923 199.151 Q 256.923 198.886 256.845 198.769 Q 256.766 198.651 256.561 198.651 Q 256.404 198.651 256.134 198.695 Q 255.865 198.739 255.669 198.788 L 255.669 198.396 L 257.482 197.896 L 257.903 197.896 L 257.903 203.424 Q 257.903 203.796 258.153 203.938 Q 258.403 204.08 259.079 204.08 Z " fill="black" /><path d="M 264.748 191.567 L 264.748 191.567 L 261.108 202.739 L 260.324 202.739 L 263.978 191.567 Z " fill="black" /><path d="M 272.994 198.763 L 272.994 198.763 L 272.154 201.493 L 265.238 201.493 L 265.322 201.073 Q 265.868 201.073 266.155 200.975 Q 266.442 200.877 266.596 200.597 Q 266.75 200.317 266.862 199.757 L 268.066 193.919 Q 268.164 193.457 268.136 193.191 Q 268.108 192.925 267.849 192.82 Q 267.59 192.715 266.988 192.715 L 267.072 192.295 L 271.048 192.295 L 270.978 192.715 Q 270.222 192.715 269.844 192.946 Q 269.466 193.177 269.312 193.933 L 268.038 200.205 Q 267.94 200.667 268.136 200.814 Q 268.332 200.961 268.948 200.961 L 269.606 200.961 Q 270.278 200.961 270.698 200.842 Q 271.118 200.723 271.412 200.471 Q 271.706 200.219 271.965 199.792 Q 272.224 199.365 272.546 198.763 Z " fill="black" /><path d="M 277.619 204.433 L 277.619 204.433 L 274.297 204.433 L 274.297 204.08 Q 275.003 204.08 275.233 203.938 Q 275.463 203.796 275.463 203.424 L 275.463 199.151 Q 275.463 198.886 275.385 198.769 Q 275.307 198.651 275.101 198.651 Q 274.944 198.651 274.674 198.695 Q 274.405 198.739 274.209 198.788 L 274.209 198.396 L 276.022 197.896 L 276.443 197.896 L 276.443 203.424 Q 276.443 203.796 276.693 203.938 Q 276.943 204.08 277.619 204.08 Z " fill="black" /></g></g></g><g><g><g><path d="M 227.289 95.623 L 227.289 95.623 L 226.043 102.161 L 226.113 102.161 L 228.297 100.187 Q 228.451 100.061 228.542 99.935 Q 228.633 99.809 228.633 99.669 Q 228.633 99.445 228.444 99.375 Q 228.255 99.305 228.003 99.305 L 228.045 98.955 L 231.055 98.955 L 231.013 99.305 Q 230.299 99.319 229.907 99.571 Q 229.515 99.823 229.165 100.145 L 227.611 101.517 L 228.647 103.925 Q 228.801 104.275 228.948 104.478 Q 229.095 104.681 229.403 104.681 Q 229.767 104.681 230.026 104.436 Q 230.285 104.191 230.509 103.869 L 230.803 104.065 Q 230.747 104.163 230.593 104.415 Q 230.439 104.667 230.187 104.947 Q 229.935 105.227 229.606 105.43 Q 229.277 105.633 228.871 105.633 Q 228.521 105.633 228.297 105.465 Q 228.073 105.297 227.94 105.045 Q 227.807 104.793 227.695 104.541 L 226.729 102.203 L 225.917 102.917 L 225.427 105.493 L 224.279 105.493 L 225.931 96.981 Q 225.931 96.981 225.952 96.841 Q 225.973 96.701 225.973 96.561 Q 225.973 96.113 225.483 96.113 Q 225.357 96.113 225.203 96.127 Q 225.049 96.141 225.049 96.141 L 225.049 95.777 L 226.981 95.623 Z " fill="black" /><path d="M 237.077 101.923 L 237.077 101.923 Q 237.077 102.245 236.86 102.483 Q 236.643 102.721 236.237 102.721 Q 235.831 102.721 235.628 102.49 Q 235.425 102.259 235.425 101.909 Q 235.425 101.559 235.642 101.307 Q 235.859 101.055 236.251 101.055 Q 236.657 101.055 236.867 101.314 Q 237.077 101.573 237.077 101.923 Z " fill="black" /><path d="M 255.476 96.295 L 255.476 96.295 L 255.434 96.715 Q 254.93 96.729 254.622 96.939 Q 254.314 97.149 253.95 97.681 L 249.022 105.577 L 248.616 105.577 L 248.154 100.131 L 248.098 100.131 L 244.5 105.577 L 244.108 105.577 L 243.422 97.975 Q 243.366 97.289 243.128 97.002 Q 242.89 96.715 242.288 96.715 L 242.358 96.295 L 245.858 96.295 L 245.788 96.715 Q 245.186 96.715 244.948 96.834 Q 244.71 96.953 244.682 97.233 Q 244.682 97.261 244.682 97.317 Q 244.682 97.429 244.682 97.59 Q 244.682 97.751 244.71 97.947 L 245.074 101.895 L 245.144 103.239 L 245.228 103.239 L 248.056 99.137 L 247.958 98.031 Q 247.902 97.429 247.811 97.149 Q 247.72 96.869 247.517 96.792 Q 247.314 96.715 246.908 96.715 L 246.978 96.295 L 250.548 96.295 L 250.478 96.715 Q 249.708 96.715 249.449 96.967 Q 249.19 97.219 249.246 98.003 L 249.582 101.783 L 249.638 103.211 L 249.708 103.211 L 252.69 98.521 Q 252.914 98.171 253.11 97.793 Q 253.306 97.415 253.306 97.107 Q 253.306 96.897 253.152 96.806 Q 252.998 96.715 252.536 96.715 L 252.62 96.295 Z " fill="black" /><path d="M 259.344 106.728 L 259.344 106.728 L 259.011 108.433 L 254.993 108.433 L 254.993 107.953 L 256.384 106.542 Q 256.933 105.993 257.291 105.571 Q 257.648 105.15 257.825 104.724 Q 258.001 104.297 258.001 103.749 Q 258.001 103.229 257.683 102.891 Q 257.364 102.553 256.786 102.553 Q 256.257 102.553 255.899 102.764 Q 255.541 102.974 255.267 103.455 L 255.002 103.327 Q 255.247 102.641 255.762 102.249 Q 256.276 101.857 257.031 101.857 Q 257.619 101.857 258.07 102.068 Q 258.521 102.279 258.775 102.671 Q 259.03 103.063 259.03 103.621 Q 259.03 104.101 258.815 104.523 Q 258.599 104.944 258.202 105.385 Q 257.805 105.826 257.256 106.365 L 256.031 107.551 L 256.031 107.62 L 256.796 107.58 L 258.07 107.58 Q 258.354 107.58 258.506 107.502 Q 258.658 107.424 258.766 107.232 Q 258.873 107.041 259.001 106.728 Z " fill="black" /><path d="M 264.601 95.567 L 264.601 95.567 L 260.961 106.739 L 260.177 106.739 L 263.831 95.567 Z " fill="black" /><path d="M 272.847 102.763 L 272.847 102.763 L 272.007 105.493 L 265.091 105.493 L 265.175 105.073 Q 265.721 105.073 266.008 104.975 Q 266.295 104.877 266.449 104.597 Q 266.603 104.317 266.715 103.757 L 267.919 97.919 Q 268.017 97.457 267.989 97.191 Q 267.961 96.925 267.702 96.82 Q 267.443 96.715 266.841 96.715 L 266.925 96.295 L 270.901 96.295 L 270.831 96.715 Q 270.075 96.715 269.697 96.946 Q 269.319 97.177 269.165 97.933 L 267.891 104.205 Q 267.793 104.667 267.989 104.814 Q 268.185 104.961 268.801 104.961 L 269.459 104.961 Q 270.131 104.961 270.551 104.842 Q 270.971 104.723 271.265 104.471 Q 271.559 104.219 271.818 103.792 Q 272.077 103.365 272.399 102.763 Z " fill="black" /><path d="M 278.031 106.728 L 278.031 106.728 L 277.698 108.433 L 273.68 108.433 L 273.68 107.953 L 275.071 106.542 Q 275.62 105.993 275.978 105.571 Q 276.336 105.15 276.512 104.724 Q 276.688 104.297 276.688 103.749 Q 276.688 103.229 276.37 102.891 Q 276.051 102.553 275.473 102.553 Q 274.944 102.553 274.586 102.764 Q 274.229 102.974 273.954 103.455 L 273.69 103.327 Q 273.935 102.641 274.449 102.249 Q 274.964 101.857 275.718 101.857 Q 276.306 101.857 276.757 102.068 Q 277.208 102.279 277.463 102.671 Q 277.717 103.063 277.717 103.621 Q 277.717 104.101 277.502 104.523 Q 277.286 104.944 276.889 105.385 Q 276.492 105.826 275.944 106.365 L 274.719 107.551 L 274.719 107.62 L 275.483 107.58 L 276.757 107.58 Q 277.041 107.58 277.193 107.502 Q 277.345 107.424 277.453 107.232 Q 277.561 107.041 277.688 106.728 Z " fill="black" /></g></g></g><circle cx="209.99999999999994" cy="35.999999999999986" r="2.6999999999999997" style="stroke:black;fill:white;stroke-width:2.0;stroke-dasharray:-;" /><g><g><g><path d="M 166.216 24.799 L 166.216 24.799 L 167.364 19.283 Q 167.49 18.737 167.483 18.422 Q 167.476 18.107 167.224 17.981 Q 166.972 17.855 166.328 17.855 L 166.412 17.435 L 170.29 17.435 L 170.206 17.855 Q 169.59 17.855 169.282 17.981 Q 168.974 18.107 168.848 18.422 Q 168.722 18.737 168.61 19.283 L 167.462 24.855 Q 167.42 25.079 167.392 25.261 Q 167.364 25.443 167.364 25.597 Q 167.364 25.989 167.595 26.101 Q 167.826 26.213 168.484 26.213 L 168.4 26.633 L 164.578 26.633 L 164.662 26.213 Q 165.236 26.213 165.523 26.115 Q 165.81 26.017 165.95 25.716 Q 166.09 25.415 166.216 24.799 Z " fill="black" /><path d="M 173.318 24.428 L 173.318 24.428 Q 174.053 24.428 174.602 24.746 Q 175.151 25.065 175.449 25.638 Q 175.748 26.211 175.748 26.985 Q 175.748 27.916 175.435 28.514 Q 175.121 29.112 174.572 29.401 Q 174.024 29.69 173.318 29.69 Q 172.603 29.69 172.049 29.391 Q 171.495 29.092 171.186 28.495 Q 170.878 27.897 170.878 26.995 Q 170.878 26.231 171.182 25.653 Q 171.485 25.074 172.034 24.751 Q 172.583 24.428 173.318 24.428 Z M 173.298 24.878 L 173.298 24.878 Q 172.652 24.878 172.284 25.403 Q 171.917 25.927 171.917 26.936 Q 171.917 28.181 172.294 28.695 Q 172.671 29.21 173.347 29.21 Q 173.779 29.2 174.082 28.994 Q 174.386 28.789 174.548 28.303 Q 174.71 27.818 174.71 26.985 Q 174.71 25.986 174.367 25.432 Q 174.024 24.878 173.298 24.878 Z " fill="black" /><path d="M 182.412 29.073 L 182.412 29.073 L 182.412 29.445 L 181.089 29.622 L 180.776 29.622 L 180.776 28.857 L 180.678 28.857 Q 180.305 29.19 179.923 29.43 Q 179.541 29.671 179.002 29.671 Q 178.277 29.671 177.895 29.23 Q 177.512 28.789 177.512 27.701 L 177.512 25.594 Q 177.512 25.192 177.37 25.099 Q 177.228 25.006 176.777 25.006 L 176.777 24.653 L 178.14 24.467 L 178.463 24.467 L 178.463 27.573 Q 178.463 28.122 178.59 28.426 Q 178.718 28.73 178.933 28.847 Q 179.149 28.965 179.404 28.965 Q 179.835 28.965 180.124 28.784 Q 180.413 28.602 180.727 28.348 L 180.727 25.594 Q 180.727 25.192 180.55 25.099 Q 180.374 25.006 179.874 25.006 L 179.874 24.653 L 181.334 24.467 L 181.677 24.467 L 181.677 28.436 Q 181.677 28.73 181.731 28.867 Q 181.785 29.004 181.922 29.038 Q 182.06 29.073 182.305 29.073 Z " fill="black" /><path d="M 186.234 28.593 L 186.234 28.593 L 186.46 28.779 Q 186.244 29.073 186.068 29.274 Q 185.891 29.475 185.666 29.582 Q 185.441 29.69 185.088 29.69 Q 184.519 29.69 184.26 29.367 Q 184 29.043 184 28.328 L 184 25.035 L 183.383 25.035 L 183.383 24.741 Q 183.735 24.486 184.029 24.119 Q 184.323 23.751 184.617 23.065 L 184.96 23.065 L 184.951 24.555 L 186.195 24.555 L 186.195 25.035 L 184.951 25.035 L 184.951 28.005 Q 184.951 28.553 185.053 28.784 Q 185.156 29.014 185.47 29.014 Q 185.754 29.014 185.901 28.911 Q 186.048 28.808 186.234 28.593 Z " fill="black" /><path d="M 201.11 22.055 L 201.11 22.055 L 192.766 22.055 L 192.766 21.103 L 201.11 21.103 Z M 201.11 24.911 L 201.11 24.911 L 192.766 24.911 L 192.766 23.973 L 201.11 23.973 Z " fill="black" /><path d="M 210.746 16.763 L 210.746 16.763 L 209.5 23.301 L 209.57 23.301 L 211.754 21.327 Q 211.908 21.201 211.999 21.075 Q 212.09 20.949 212.09 20.809 Q 212.09 20.585 211.901 20.515 Q 211.712 20.445 211.46 20.445 L 211.502 20.095 L 214.512 20.095 L 214.47 20.445 Q 213.756 20.459 213.364 20.711 Q 212.972 20.963 212.622 21.285 L 211.068 22.657 L 212.104 25.065 Q 212.258 25.415 212.405 25.618 Q 212.552 25.821 212.86 25.821 Q 213.224 25.821 213.483 25.576 Q 213.742 25.331 213.966 25.009 L 214.26 25.205 Q 214.204 25.303 214.05 25.555 Q 213.896 25.807 213.644 26.087 Q 213.392 26.367 213.063 26.57 Q 212.734 26.773 212.328 26.773 Q 211.978 26.773 211.754 26.605 Q 211.53 26.437 211.397 26.185 Q 211.264 25.933 211.152 25.681 L 210.186 23.343 L 209.374 24.057 L 208.884 26.633 L 207.736 26.633 L 209.388 18.121 Q 209.388 18.121 209.409 17.981 Q 209.43 17.841 209.43 17.701 Q 209.43 17.253 208.94 17.253 Q 208.814 17.253 208.66 17.267 Q 208.506 17.281 208.506 17.281 L 208.506 16.917 L 210.438 16.763 Z " fill="black" /><path d="M 220.535 23.063 L 220.535 23.063 Q 220.535 23.385 220.318 23.623 Q 220.101 23.861 219.695 23.861 Q 219.289 23.861 219.086 23.63 Q 218.883 23.399 218.883 23.049 Q 218.883 22.699 219.1 22.447 Q 219.317 22.195 219.709 22.195 Q 220.115 22.195 220.325 22.454 Q 220.535 22.713 220.535 23.063 Z " fill="black" /><path d="M 226.431 24.799 L 226.431 24.799 L 227.579 19.283 Q 227.705 18.737 227.698 18.422 Q 227.691 18.107 227.439 17.981 Q 227.187 17.855 226.543 17.855 L 226.627 17.435 L 230.505 17.435 L 230.421 17.855 Q 229.805 17.855 229.497 17.981 Q 229.189 18.107 229.063 18.422 Q 228.937 18.737 228.825 19.283 L 227.677 24.855 Q 227.635 25.079 227.607 25.261 Q 227.579 25.443 227.579 25.597 Q 227.579 25.989 227.81 26.101 Q 228.041 26.213 228.699 26.213 L 228.615 26.633 L 224.793 26.633 L 224.877 26.213 Q 225.451 26.213 225.738 26.115 Q 226.025 26.017 226.165 25.716 Q 226.305 25.415 226.431 24.799 Z " fill="black" /><path d="M 232.553 22.252 L 232.553 22.252 L 232.553 25.29 L 232.602 25.29 Q 232.886 24.957 233.274 24.692 Q 233.661 24.428 234.209 24.428 Q 234.719 24.428 235.136 24.736 Q 235.552 25.045 235.802 25.589 Q 236.052 26.133 236.052 26.838 Q 236.052 27.779 235.709 28.416 Q 235.366 29.053 234.773 29.372 Q 234.18 29.69 233.425 29.69 Q 232.984 29.69 232.612 29.617 Q 232.24 29.543 231.98 29.445 Q 231.72 29.347 231.603 29.298 L 231.603 23.418 Q 231.603 23.056 231.524 22.953 Q 231.446 22.85 231.113 22.85 Q 231.005 22.85 230.912 22.864 Q 230.819 22.879 230.819 22.879 L 230.819 22.507 L 232.151 22.252 Z M 232.553 25.8 L 232.553 25.8 L 232.553 28.74 Q 232.671 28.955 232.926 29.083 Q 233.18 29.21 233.602 29.21 Q 234.121 29.21 234.435 28.931 Q 234.748 28.651 234.891 28.186 Q 235.033 27.72 235.033 27.172 Q 235.033 26.672 234.92 26.216 Q 234.807 25.76 234.523 25.476 Q 234.239 25.192 233.739 25.192 Q 233.474 25.192 233.234 25.295 Q 232.994 25.398 232.818 25.54 Q 232.641 25.682 232.553 25.8 Z " fill="black" /><path d="M 239.629 29.21 L 239.629 29.21 L 239.629 29.573 L 237.14 29.573 L 237.14 29.21 Q 237.483 29.21 237.635 29.136 Q 237.786 29.063 237.826 28.901 Q 237.865 28.74 237.865 28.475 L 237.865 25.515 Q 237.865 25.182 237.757 25.114 Q 237.649 25.045 237.394 25.045 Q 237.267 25.045 237.189 25.055 Q 237.11 25.065 237.11 25.065 L 237.11 24.673 L 238.423 24.457 L 238.825 24.457 L 238.825 28.475 Q 238.825 28.759 238.869 28.921 Q 238.913 29.083 239.085 29.146 Q 239.256 29.21 239.629 29.21 Z M 238.335 22.291 L 238.335 22.291 Q 238.619 22.291 238.811 22.487 Q 239.002 22.683 239.002 22.938 Q 239.002 23.173 238.811 23.369 Q 238.619 23.565 238.335 23.565 Q 238.061 23.565 237.88 23.369 Q 237.698 23.173 237.698 22.938 Q 237.698 22.683 237.88 22.487 Q 238.061 22.291 238.335 22.291 Z " fill="black" /><path d="M 243.549 28.955 L 243.549 28.955 L 243.48 28.955 Q 243.147 29.23 242.745 29.435 Q 242.343 29.641 241.873 29.641 Q 241.256 29.641 240.927 29.269 Q 240.599 28.896 240.599 28.367 Q 240.599 27.916 240.81 27.613 Q 241.02 27.309 241.359 27.118 Q 241.697 26.927 242.089 26.809 Q 242.481 26.691 242.843 26.623 Q 243.206 26.554 243.451 26.495 L 243.451 25.986 Q 243.451 25.329 243.191 25.079 Q 242.931 24.829 242.432 24.829 Q 242.128 24.829 241.996 24.908 Q 241.863 24.986 241.829 25.163 Q 241.795 25.339 241.785 25.623 Q 241.775 25.839 241.657 25.971 Q 241.54 26.103 241.314 26.103 Q 241.099 26.103 240.947 25.971 Q 240.795 25.839 240.795 25.584 Q 240.795 25.28 241.03 25.016 Q 241.265 24.751 241.702 24.589 Q 242.138 24.428 242.726 24.428 Q 243.608 24.428 244.005 24.834 Q 244.401 25.241 244.401 26.054 L 244.401 28.455 Q 244.401 28.779 244.475 28.872 Q 244.548 28.965 244.705 28.965 Q 244.872 28.965 244.994 28.896 Q 245.117 28.828 245.225 28.7 L 245.44 28.906 Q 244.931 29.631 244.245 29.631 Q 243.862 29.631 243.72 29.45 Q 243.578 29.269 243.549 28.955 Z M 243.451 28.593 L 243.451 28.593 L 243.451 26.868 Q 243 26.985 242.569 27.127 Q 242.138 27.27 241.858 27.515 Q 241.579 27.76 241.579 28.201 Q 241.579 28.583 241.8 28.803 Q 242.02 29.024 242.363 29.024 Q 242.569 29.024 242.858 28.931 Q 243.147 28.838 243.451 28.593 Z " fill="black" /><path d="M 246.116 27.789 L 246.116 27.789 L 246.43 27.789 Q 246.557 28.357 246.734 28.671 Q 246.91 28.985 247.19 29.107 Q 247.469 29.23 247.871 29.23 Q 248.331 29.23 248.581 29.078 Q 248.831 28.926 248.831 28.544 Q 248.831 28.289 248.709 28.117 Q 248.586 27.946 248.317 27.789 Q 248.047 27.632 247.596 27.426 Q 247.136 27.201 246.807 27.005 Q 246.479 26.809 246.308 26.544 Q 246.136 26.28 246.136 25.878 Q 246.136 25.172 246.611 24.8 Q 247.087 24.428 247.802 24.428 Q 248.233 24.428 248.532 24.535 Q 248.831 24.643 249.007 24.722 L 249.027 24.722 L 249.184 24.477 L 249.458 24.477 L 249.478 26.103 L 249.135 26.103 Q 248.949 25.349 248.615 25.089 Q 248.282 24.829 247.851 24.829 Q 247.4 24.829 247.17 25.025 Q 246.94 25.221 246.94 25.535 Q 246.94 25.79 247.096 25.956 Q 247.253 26.123 247.542 26.265 Q 247.831 26.407 248.233 26.603 Q 248.684 26.819 249.027 27.049 Q 249.37 27.279 249.566 27.568 Q 249.762 27.858 249.762 28.289 Q 249.762 28.808 249.488 29.122 Q 249.213 29.435 248.782 29.568 Q 248.351 29.7 247.88 29.7 Q 247.4 29.7 247.136 29.602 Q 246.871 29.504 246.646 29.416 L 246.606 29.416 L 246.361 29.671 L 246.136 29.671 Z " fill="black" /><path d="M 254.486 29.573 L 254.486 29.573 L 251.163 29.573 L 251.163 29.22 Q 251.869 29.22 252.099 29.078 Q 252.33 28.936 252.33 28.563 L 252.33 24.29 Q 252.33 24.026 252.251 23.908 Q 252.173 23.791 251.967 23.791 Q 251.81 23.791 251.541 23.835 Q 251.271 23.879 251.075 23.928 L 251.075 23.536 L 252.888 23.036 L 253.31 23.036 L 253.31 28.563 Q 253.31 28.936 253.56 29.078 Q 253.809 29.22 254.486 29.22 Z " fill="black" /></g></g></g><circle cx="209.99999999999994" cy="149.99999999999997" r="2.6999999999999997" style="stroke:blue;fill:blue;stroke-width:2.0;stroke-dasharray:-;" /><g><g><g><path d="M 99.264 153.08 L 99.264 153.08 L 95.526 153.08 L 95.61 152.66 Q 96.128 152.66 96.401 152.562 Q 96.674 152.464 96.814 152.191 Q 96.954 151.918 97.052 151.414 L 98.298 145.366 L 98.242 145.366 L 93.538 153.08 L 93.23 153.08 L 91.536 145.38 L 91.48 145.38 L 90.318 151.036 Q 90.178 151.75 90.199 152.1 Q 90.22 152.45 90.472 152.555 Q 90.724 152.66 91.256 152.66 L 91.172 153.08 L 87.938 153.08 L 88.022 152.66 Q 88.568 152.66 88.862 152.555 Q 89.156 152.45 89.324 152.1 Q 89.492 151.75 89.632 151.036 L 90.738 145.59 Q 90.85 145.058 90.808 144.785 Q 90.766 144.512 90.507 144.407 Q 90.248 144.302 89.688 144.302 L 89.772 143.882 L 92.572 143.882 L 94.084 150.966 L 94.14 150.966 L 98.41 143.882 L 101.056 143.882 L 100.972 144.302 Q 100.482 144.302 100.195 144.407 Q 99.908 144.512 99.754 144.785 Q 99.6 145.058 99.488 145.576 L 98.298 151.414 Q 98.144 152.184 98.375 152.422 Q 98.606 152.66 99.348 152.66 Z " fill="blue" /><path d="M 104.584 155.403 L 104.584 155.403 L 104.515 155.403 Q 104.182 155.677 103.78 155.883 Q 103.378 156.089 102.908 156.089 Q 102.291 156.089 101.962 155.716 Q 101.634 155.344 101.634 154.815 Q 101.634 154.364 101.845 154.06 Q 102.055 153.756 102.393 153.565 Q 102.732 153.374 103.124 153.256 Q 103.516 153.139 103.878 153.07 Q 104.241 153.002 104.486 152.943 L 104.486 152.433 Q 104.486 151.777 104.226 151.527 Q 103.966 151.277 103.467 151.277 Q 103.163 151.277 103.03 151.355 Q 102.898 151.434 102.864 151.61 Q 102.83 151.786 102.82 152.071 Q 102.81 152.286 102.692 152.418 Q 102.575 152.551 102.349 152.551 Q 102.134 152.551 101.982 152.418 Q 101.83 152.286 101.83 152.031 Q 101.83 151.728 102.065 151.463 Q 102.3 151.198 102.736 151.037 Q 103.173 150.875 103.761 150.875 Q 104.643 150.875 105.039 151.282 Q 105.436 151.688 105.436 152.502 L 105.436 154.903 Q 105.436 155.226 105.51 155.319 Q 105.583 155.412 105.74 155.412 Q 105.907 155.412 106.029 155.344 Q 106.152 155.275 106.26 155.148 L 106.475 155.354 Q 105.966 156.079 105.28 156.079 Q 104.897 156.079 104.755 155.897 Q 104.613 155.716 104.584 155.403 Z M 104.486 155.04 L 104.486 155.04 L 104.486 153.315 Q 104.035 153.433 103.604 153.575 Q 103.173 153.717 102.893 153.962 Q 102.614 154.207 102.614 154.648 Q 102.614 155.03 102.834 155.251 Q 103.055 155.471 103.398 155.471 Q 103.604 155.471 103.893 155.378 Q 104.182 155.285 104.486 155.04 Z " fill="blue" /><path d="M 112.639 155.52 L 112.639 155.52 L 112.639 155.893 L 111.316 156.069 L 111.003 156.069 L 111.003 155.305 L 110.905 155.305 Q 110.532 155.638 110.15 155.878 Q 109.768 156.118 109.229 156.118 Q 108.504 156.118 108.122 155.677 Q 107.739 155.236 107.739 154.148 L 107.739 152.041 Q 107.739 151.639 107.597 151.546 Q 107.455 151.453 107.004 151.453 L 107.004 151.1 L 108.367 150.914 L 108.69 150.914 L 108.69 154.021 Q 108.69 154.57 108.817 154.873 Q 108.945 155.177 109.16 155.295 Q 109.376 155.412 109.631 155.412 Q 110.062 155.412 110.351 155.231 Q 110.64 155.05 110.954 154.795 L 110.954 152.041 Q 110.954 151.639 110.777 151.546 Q 110.601 151.453 110.101 151.453 L 110.101 151.1 L 111.561 150.914 L 111.904 150.914 L 111.904 154.883 Q 111.904 155.177 111.958 155.314 Q 112.012 155.452 112.149 155.486 Q 112.287 155.52 112.532 155.52 Z " fill="blue" /><path d="M 118.745 156.02 L 118.745 156.02 L 116.452 156.02 L 116.452 155.657 Q 116.736 155.657 116.844 155.613 Q 116.951 155.569 116.951 155.461 Q 116.951 155.393 116.873 155.256 L 116.236 154.334 L 115.981 153.913 L 115.922 153.913 L 115.07 155.079 Q 114.982 155.226 114.898 155.339 Q 114.815 155.452 114.815 155.501 Q 114.815 155.657 115.325 155.657 L 115.325 156.02 L 113.453 156.02 L 113.453 155.657 Q 113.737 155.657 113.933 155.545 Q 114.129 155.432 114.374 155.138 L 115.658 153.531 L 114.531 151.982 Q 114.335 151.718 114.217 151.585 Q 114.1 151.453 113.967 151.409 Q 113.835 151.365 113.61 151.365 L 113.61 151.002 L 115.962 151.002 L 115.962 151.355 Q 115.452 151.355 115.452 151.59 Q 115.452 151.688 115.57 151.884 L 115.962 152.482 L 116.246 152.982 L 116.314 152.982 L 116.795 152.335 Q 117.01 152.041 117.098 151.875 Q 117.187 151.708 117.187 151.61 Q 117.187 151.502 117.098 151.429 Q 117.01 151.355 116.746 151.355 L 116.746 151.002 L 118.549 151.002 L 118.549 151.365 Q 118.274 151.365 118.078 151.507 Q 117.882 151.649 117.686 151.875 L 116.559 153.286 L 117.873 155.06 Q 118.098 155.383 118.279 155.52 Q 118.461 155.657 118.745 155.657 Z " fill="blue" /></g></g></g><circle cx="122.99999999999996" cy="101.99999999999999" r="2.6999999999999997" style="stroke:blue;fill:blue;stroke-width:2.0;stroke-dasharray:-;" /><g><g><g><path d="M 72.262 37.231 L 72.262 37.231 L 73.41 31.715 Q 73.536 31.169 73.529 30.854 Q 73.522 30.539 73.27 30.413 Q 73.018 30.287 72.374 30.287 L 72.458 29.867 L 76.336 29.867 L 76.252 30.287 Q 75.636 30.287 75.328 30.413 Q 75.02 30.539 74.894 30.854 Q 74.768 31.169 74.656 31.715 L 73.508 37.287 Q 73.466 37.511 73.438 37.693 Q 73.41 37.875 73.41 38.029 Q 73.41 38.421 73.641 38.533 Q 73.872 38.645 74.53 38.645 L 74.446 39.065 L 70.624 39.065 L 70.708 38.645 Q 71.282 38.645 71.569 38.547 Q 71.856 38.449 71.996 38.148 Q 72.136 37.847 72.262 37.231 Z " fill="blue" /><path d="M 78.384 34.685 L 78.384 34.685 L 78.384 37.723 L 78.433 37.723 Q 78.717 37.389 79.104 37.125 Q 79.491 36.86 80.04 36.86 Q 80.55 36.86 80.966 37.169 Q 81.383 37.478 81.633 38.022 Q 81.883 38.566 81.883 39.271 Q 81.883 40.212 81.54 40.849 Q 81.197 41.486 80.604 41.804 Q 80.011 42.123 79.256 42.123 Q 78.815 42.123 78.443 42.049 Q 78.07 41.976 77.811 41.878 Q 77.551 41.78 77.433 41.731 L 77.433 35.851 Q 77.433 35.488 77.355 35.385 Q 77.277 35.282 76.943 35.282 Q 76.836 35.282 76.742 35.297 Q 76.649 35.312 76.649 35.312 L 76.649 34.94 L 77.982 34.685 Z M 78.384 38.232 L 78.384 38.232 L 78.384 41.172 Q 78.502 41.388 78.756 41.515 Q 79.011 41.643 79.433 41.643 Q 79.952 41.643 80.266 41.363 Q 80.579 41.084 80.721 40.619 Q 80.863 40.153 80.863 39.604 Q 80.863 39.105 80.751 38.649 Q 80.638 38.193 80.354 37.909 Q 80.07 37.625 79.57 37.625 Q 79.305 37.625 79.065 37.728 Q 78.825 37.831 78.649 37.973 Q 78.472 38.115 78.384 38.232 Z " fill="blue" /><path d="M 85.46 41.643 L 85.46 41.643 L 85.46 42.005 L 82.97 42.005 L 82.97 41.643 Q 83.313 41.643 83.465 41.569 Q 83.617 41.496 83.656 41.334 Q 83.696 41.172 83.696 40.908 L 83.696 37.948 Q 83.696 37.615 83.588 37.546 Q 83.48 37.478 83.225 37.478 Q 83.098 37.478 83.019 37.487 Q 82.941 37.497 82.941 37.497 L 82.941 37.105 L 84.254 36.89 L 84.656 36.89 L 84.656 40.908 Q 84.656 41.192 84.7 41.354 Q 84.744 41.515 84.916 41.579 Q 85.087 41.643 85.46 41.643 Z M 84.166 34.724 L 84.166 34.724 Q 84.45 34.724 84.641 34.92 Q 84.832 35.116 84.832 35.371 Q 84.832 35.606 84.641 35.802 Q 84.45 35.998 84.166 35.998 Q 83.892 35.998 83.71 35.802 Q 83.529 35.606 83.529 35.371 Q 83.529 35.116 83.71 34.92 Q 83.892 34.724 84.166 34.724 Z " fill="blue" /><path d="M 89.38 41.388 L 89.38 41.388 L 89.311 41.388 Q 88.978 41.662 88.576 41.868 Q 88.174 42.074 87.704 42.074 Q 87.086 42.074 86.758 41.701 Q 86.43 41.329 86.43 40.8 Q 86.43 40.349 86.64 40.045 Q 86.851 39.742 87.189 39.55 Q 87.527 39.359 87.919 39.242 Q 88.311 39.124 88.674 39.056 Q 89.037 38.987 89.282 38.928 L 89.282 38.419 Q 89.282 37.762 89.022 37.512 Q 88.762 37.262 88.262 37.262 Q 87.959 37.262 87.826 37.34 Q 87.694 37.419 87.66 37.595 Q 87.625 37.772 87.616 38.056 Q 87.606 38.271 87.488 38.404 Q 87.371 38.536 87.145 38.536 Q 86.93 38.536 86.778 38.404 Q 86.626 38.271 86.626 38.017 Q 86.626 37.713 86.861 37.448 Q 87.096 37.184 87.532 37.022 Q 87.968 36.86 88.556 36.86 Q 89.438 36.86 89.835 37.267 Q 90.232 37.674 90.232 38.487 L 90.232 40.888 Q 90.232 41.212 90.306 41.305 Q 90.379 41.398 90.536 41.398 Q 90.703 41.398 90.825 41.329 Q 90.948 41.261 91.055 41.133 L 91.271 41.339 Q 90.761 42.064 90.075 42.064 Q 89.693 42.064 89.551 41.883 Q 89.409 41.701 89.38 41.388 Z M 89.282 41.025 L 89.282 41.025 L 89.282 39.3 Q 88.831 39.418 88.4 39.56 Q 87.968 39.702 87.689 39.947 Q 87.41 40.192 87.41 40.633 Q 87.41 41.015 87.63 41.236 Q 87.851 41.456 88.194 41.456 Q 88.4 41.456 88.689 41.363 Q 88.978 41.27 89.282 41.025 Z " fill="blue" /><path d="M 91.947 40.222 L 91.947 40.222 L 92.261 40.222 Q 92.388 40.79 92.565 41.104 Q 92.741 41.417 93.02 41.54 Q 93.3 41.662 93.701 41.662 Q 94.162 41.662 94.412 41.51 Q 94.662 41.358 94.662 40.976 Q 94.662 40.721 94.539 40.55 Q 94.417 40.378 94.147 40.222 Q 93.878 40.065 93.427 39.859 Q 92.966 39.634 92.638 39.438 Q 92.31 39.242 92.138 38.977 Q 91.967 38.712 91.967 38.311 Q 91.967 37.605 92.442 37.233 Q 92.917 36.86 93.633 36.86 Q 94.064 36.86 94.363 36.968 Q 94.662 37.076 94.838 37.154 L 94.858 37.154 L 95.015 36.909 L 95.289 36.909 L 95.309 38.536 L 94.966 38.536 Q 94.779 37.782 94.446 37.522 Q 94.113 37.262 93.682 37.262 Q 93.231 37.262 93.001 37.458 Q 92.77 37.654 92.77 37.968 Q 92.77 38.222 92.927 38.389 Q 93.084 38.556 93.373 38.698 Q 93.662 38.84 94.064 39.036 Q 94.515 39.252 94.858 39.482 Q 95.201 39.712 95.397 40.001 Q 95.593 40.29 95.593 40.721 Q 95.593 41.241 95.318 41.554 Q 95.044 41.868 94.613 42 Q 94.182 42.133 93.711 42.133 Q 93.231 42.133 92.966 42.035 Q 92.702 41.937 92.476 41.849 L 92.437 41.849 L 92.192 42.103 L 91.967 42.103 Z " fill="blue" /><path d="M 100.875 40.3 L 100.875 40.3 L 100.542 42.005 L 96.524 42.005 L 96.524 41.525 L 97.915 40.114 Q 98.464 39.565 98.822 39.144 Q 99.18 38.722 99.356 38.296 Q 99.532 37.87 99.532 37.321 Q 99.532 36.801 99.214 36.463 Q 98.895 36.125 98.317 36.125 Q 97.788 36.125 97.43 36.336 Q 97.073 36.547 96.798 37.027 L 96.534 36.9 Q 96.779 36.213 97.293 35.822 Q 97.808 35.429 98.562 35.429 Q 99.15 35.429 99.601 35.64 Q 100.052 35.851 100.307 36.243 Q 100.561 36.635 100.561 37.194 Q 100.561 37.674 100.346 38.095 Q 100.13 38.517 99.733 38.957 Q 99.336 39.398 98.788 39.938 L 97.563 41.123 L 97.563 41.192 L 98.327 41.153 L 99.601 41.153 Q 99.885 41.153 100.037 41.074 Q 100.189 40.996 100.297 40.805 Q 100.405 40.614 100.532 40.3 Z " fill="blue" /></g></g></g><g><g><g><path d="M 53.353 -8.29 L 53.353 -8.29 L 57.175 -14.03 Q 57.371 -14.31 57.49 -14.548 Q 57.609 -14.786 57.609 -14.954 Q 57.609 -15.164 57.427 -15.241 Q 57.245 -15.318 56.769 -15.318 L 56.797 -15.738 L 59.821 -15.738 L 59.793 -15.318 Q 59.415 -15.318 59.149 -15.206 Q 58.883 -15.094 58.61 -14.779 Q 58.337 -14.464 57.903 -13.82 L 52.765 -6.47 L 52.303 -6.47 L 51.519 -14.044 Q 51.435 -14.744 51.211 -15.031 Q 50.987 -15.318 50.427 -15.318 L 50.455 -15.738 L 53.885 -15.738 L 53.843 -15.318 Q 53.311 -15.318 53.003 -15.108 Q 52.695 -14.898 52.723 -14.422 Q 52.723 -14.352 52.744 -14.17 Q 52.765 -13.988 52.765 -13.918 L 53.185 -9.928 L 53.283 -8.29 Z " fill="black" /><path d="M 58.718 -10.489 L 58.718 -10.489 L 61.688 -10.489 Q 62.472 -10.489 63.187 -10.318 Q 63.902 -10.146 64.466 -9.754 Q 65.029 -9.362 65.358 -8.706 Q 65.686 -8.049 65.686 -7.069 Q 65.686 -6.148 65.387 -5.486 Q 65.088 -4.825 64.549 -4.409 Q 64.01 -3.992 63.295 -3.796 Q 62.579 -3.6 61.746 -3.6 L 58.718 -3.6 L 58.718 -3.972 Q 59.179 -3.972 59.394 -4.041 Q 59.61 -4.11 59.674 -4.32 Q 59.737 -4.531 59.737 -4.962 L 59.737 -9.215 Q 59.737 -9.617 59.644 -9.808 Q 59.551 -9.999 59.331 -10.058 Q 59.11 -10.117 58.718 -10.117 Z M 60.786 -9.999 L 60.786 -9.999 L 60.786 -4.07 Q 60.943 -4.061 61.095 -4.056 Q 61.247 -4.051 61.394 -4.051 Q 62.364 -4.051 63.045 -4.306 Q 63.726 -4.56 64.084 -5.197 Q 64.441 -5.834 64.441 -6.981 Q 64.441 -8.451 63.692 -9.23 Q 62.942 -10.009 61.315 -10.009 Q 61.178 -10.009 61.051 -10.009 Q 60.923 -10.009 60.786 -9.999 Z " fill="black" /><path d="M 66.872 -10.489 L 66.872 -10.489 L 69.841 -10.489 Q 70.625 -10.489 71.341 -10.318 Q 72.056 -10.146 72.619 -9.754 Q 73.183 -9.362 73.511 -8.706 Q 73.84 -8.049 73.84 -7.069 Q 73.84 -6.148 73.541 -5.486 Q 73.242 -4.825 72.703 -4.409 Q 72.164 -3.992 71.448 -3.796 Q 70.733 -3.6 69.9 -3.6 L 66.872 -3.6 L 66.872 -3.972 Q 67.332 -3.972 67.548 -4.041 Q 67.764 -4.11 67.827 -4.32 Q 67.891 -4.531 67.891 -4.962 L 67.891 -9.215 Q 67.891 -9.617 67.798 -9.808 Q 67.705 -9.999 67.484 -10.058 Q 67.264 -10.117 66.872 -10.117 Z M 68.94 -9.999 L 68.94 -9.999 L 68.94 -4.07 Q 69.096 -4.061 69.248 -4.056 Q 69.4 -4.051 69.547 -4.051 Q 70.517 -4.051 71.198 -4.306 Q 71.88 -4.56 72.237 -5.197 Q 72.595 -5.834 72.595 -6.981 Q 72.595 -8.451 71.845 -9.23 Q 71.096 -10.009 69.469 -10.009 Q 69.332 -10.009 69.204 -10.009 Q 69.077 -10.009 68.94 -9.999 Z " fill="black" /></g></g></g></svg>