<svg xmlns="http://www.w3.org/2000/svg" xmlns:xlink="http://www.w3.org/1999/xlink" xml:lang="en" height="110.0pt" width="254.0pt" viewBox="-19.0 -55.0 254.0 110.0"><path d="M 0.0,-0.0 L 18.0,-0.0 L 36.0,-0.0" style="stroke:black;fill:none;stroke-width:2.0;stroke-dasharray:-;stroke-linecap:round;stroke-linejoin:round;" /><path d="M 36.0,-0.0 L 36.0,-18.0 L 36.0,-36.0" style="stroke:black;fill:none;stroke-width:2.0;stroke-dasharray:-;stroke-linecap:round;stroke-linejoin:round;" /><path d="M 36.0,-0.0 L 35.99999999999999,18.0 L 35.99999999999999,36.0" style="stroke:black;fill:none;stroke-width:2.0;stroke-dasharray:-;stroke-linecap:round;stroke-linejoin:round;" /><path d="M 36.0,-0.0 L 90.0,-0.0 L 92.99999999999999,-9.0 L 99.0,9.0 L 105.0,-9.0 L 110.99999999999999,9.0 L 117.0,-9.0 L 123.0,9.0 L 126.0,-0.0 L 180.0,-0.0" style="stroke:black;fill:none;stroke-width:2.0;stroke-dasharray:-;stroke-linecap:round;stroke-linejoin:round;" /><path d="M 180.0,-0.0 L 180.0,-18.0 L 180.0,-36.0" style="stroke:black;fill:none;stroke-width:2.0;stroke-dasharray:-;stroke-linecap:round;stroke-linejoin:round;" /><path d="M 180.0,-0.0 L 180.0,18.0 L 180.0,36.0" style="stroke:black;fill:none;stroke-width:2.0;stroke-dasharray:-;stroke-linecap:round;stroke-linejoin:round;" /><path d="M 180.0,-0.0 L 198.0,-0.0 L 216.0,-0.0" style="stroke:black;fill:none;stroke-width:2.0;stroke-dasharray:-;stroke-linecap:round;stroke-linejoin:round;" /><circle cx="36.0" cy="-0.0" r="2.6999999999999997" style="stroke:black;fill:black;stroke-width:2.0;stroke-dasharray:-;" /><g><g><g><path d="M 15.461 -10.99 L 15.461 -10.99 L 19.283 -16.73 Q 19.479 -17.01 19.598 -17.248 Q 19.717 -17.486 19.717 -17.654 Q 19.717 -17.864 19.535 -17.941 Q 19.353 -18.018 18.877 -18.018 L 18.905 -18.438 L 21.929 -18.438 L 21.901 -18.018 Q 21.523 -18.018 21.258 -17.906 Q 20.991 -17.794 20.718 -17.479 Q 20.445 -17.164 20.011 -16.52 L 14.873 -9.17 L 14.411 -9.17 L 13.627 -16.744 Q 13.543 -17.444 13.319 -17.731 Q 13.095 -18.018 12.535 -18.018 L 12.563 -18.438 L 15.993 -18.438 L 15.951 -18.018 Q 15.419 -18.018 15.111 -17.808 Q 14.803 -17.598 14.831 -17.122 Q 14.831 -17.052 14.852 -16.87 Q 14.873 -16.688 14.873 -16.618 L 15.293 -12.628 L 15.391 -10.99 Z " fill="black" /><path d="M 27.941 -6.3 L 27.941 -6.3 L 25.109 -6.3 L 25.109 -6.682 Q 25.226 -6.682 25.388 -6.697 Q 25.55 -6.712 25.672 -6.785 Q 25.795 -6.859 25.795 -7.035 Q 25.795 -7.162 25.741 -7.324 Q 25.687 -7.486 25.599 -7.721 L 25.236 -8.554 L 22.531 -8.554 L 22.11 -7.574 Q 22.051 -7.437 22.012 -7.314 Q 21.973 -7.192 21.973 -7.025 Q 21.973 -6.81 22.139 -6.746 Q 22.306 -6.682 22.678 -6.682 L 22.678 -6.3 L 20.415 -6.3 L 20.415 -6.682 Q 20.709 -6.682 20.885 -6.761 Q 21.061 -6.839 21.213 -7.084 Q 21.365 -7.329 21.571 -7.829 L 23.854 -13.248 L 24.423 -13.248 L 26.873 -7.623 Q 27.098 -7.094 27.319 -6.888 Q 27.539 -6.682 27.941 -6.682 Z M 25.05 -9.034 L 25.05 -9.034 L 23.923 -11.925 L 23.884 -11.925 L 22.708 -9.034 Z " fill="black" /></g></g></g><circle cx="180.0" cy="-0.0" r="2.6999999999999997" style="stroke:black;fill:black;stroke-width:2.0;stroke-dasharray:-;" /><g><g><g><path d="M 112.703 -15.204 L 112.703 -15.204 L 111.891 -12.6 L 104.835 -12.6 L 104.905 -13.006 L 111.989 -21.154 L 111.989 -21.21 L 109.427 -21.21 Q 108.713 -21.21 108.279 -21.105 Q 107.845 -21 107.551 -20.636 Q 107.257 -20.272 106.949 -19.488 L 106.501 -19.488 L 107.019 -21.798 L 113.823 -21.798 L 113.739 -21.406 L 106.683 -13.244 L 106.683 -13.174 L 109.553 -13.174 Q 110.351 -13.174 110.806 -13.356 Q 111.261 -13.538 111.576 -13.986 Q 111.891 -14.434 112.283 -15.204 Z " fill="black" /></g></g></g><g><g><g><path d="M 194.606 -8.29 L 194.606 -8.29 L 198.428 -14.03 Q 198.624 -14.31 198.743 -14.548 Q 198.862 -14.786 198.862 -14.954 Q 198.862 -15.164 198.68 -15.241 Q 198.498 -15.318 198.022 -15.318 L 198.05 -15.738 L 201.074 -15.738 L 201.046 -15.318 Q 200.668 -15.318 200.402 -15.206 Q 200.136 -15.094 199.863 -14.779 Q 199.59 -14.464 199.156 -13.82 L 194.018 -6.47 L 193.556 -6.47 L 192.772 -14.044 Q 192.688 -14.744 192.464 -15.031 Q 192.24 -15.318 191.68 -15.318 L 191.708 -15.738 L 195.138 -15.738 L 195.096 -15.318 Q 194.564 -15.318 194.256 -15.108 Q 193.948 -14.898 193.976 -14.422 Q 193.976 -14.352 193.997 -14.17 Q 194.018 -13.988 194.018 -13.918 L 194.438 -9.928 L 194.536 -8.29 Z " fill="black" /><path d="M 204.009 -7.265 L 204.009 -7.265 L 204.009 -7.206 Q 204.469 -7.138 204.891 -6.937 Q 205.312 -6.736 205.587 -6.373 Q 205.861 -6.011 205.861 -5.452 Q 205.861 -4.551 205.175 -4.075 Q 204.489 -3.6 203.333 -3.6 L 199.952 -3.6 L 199.952 -3.972 Q 200.393 -3.972 200.603 -4.046 Q 200.814 -4.119 200.878 -4.345 Q 200.941 -4.57 200.941 -5.011 L 200.941 -9.147 Q 200.941 -9.578 200.873 -9.784 Q 200.804 -9.99 200.593 -10.053 Q 200.383 -10.117 199.952 -10.117 L 199.952 -10.489 L 202.803 -10.489 Q 204.234 -10.489 204.866 -10.043 Q 205.498 -9.598 205.498 -8.784 Q 205.498 -8.118 205.087 -7.78 Q 204.675 -7.442 204.009 -7.265 Z M 201.97 -6.903 L 201.97 -6.903 L 201.97 -4.061 Q 202.176 -4.051 202.377 -4.051 Q 202.578 -4.051 202.774 -4.051 Q 203.088 -4.051 203.421 -4.085 Q 203.754 -4.119 204.038 -4.252 Q 204.322 -4.384 204.494 -4.668 Q 204.665 -4.952 204.665 -5.442 Q 204.665 -6.011 204.396 -6.324 Q 204.126 -6.638 203.69 -6.77 Q 203.254 -6.903 202.754 -6.903 Z M 201.97 -7.412 L 201.97 -7.412 L 202.754 -7.412 Q 203.676 -7.412 204.033 -7.736 Q 204.391 -8.059 204.391 -8.716 Q 204.391 -9.392 203.965 -9.705 Q 203.538 -10.019 202.607 -10.019 Q 202.451 -10.019 202.294 -10.014 Q 202.137 -10.009 201.97 -9.999 Z " fill="black" /></g></g></g></svg>