<svg xmlns="http://www.w3.org/2000/svg" xmlns:xlink="http://www.w3.org/1999/xlink" xml:lang="en" height="165.31800000000004pt" width="467.14399999999995pt" viewBox="-84.37799999999999 -52.82000000000001 467.14399999999995 165.31800000000004"><circle cx="325.8" cy="27.0" r="4.199999999999999" style="stroke:black;fill:none;stroke-width:2.0;stroke-dasharray:-;" /><path d="M 0.0,59.99999999999999 L 0.0,45.0 L -14.999999999999998,45.0 L -14.999999999999998,14.999999999999998 L 0.0,14.999999999999998 L 0.0,-0.0" style="stroke:black;fill:none;stroke-width:2.0;stroke-dasharray:-;stroke-linecap:round;stroke-linejoin:round;" /><path d="M -17.999999999999996,42.0 L -17.999999999999996,17.999999999999996" style="stroke:black;fill:none;stroke-width:2.0;stroke-dasharray:-;stroke-linecap:round;stroke-linejoin:round;" /><path d="M -32.99999999999999,29.999999999999996 L -17.999999999999996,29.999999999999996" style="stroke:black;fill:none;stroke-width:2.0;stroke-dasharray:-;stroke-linecap:round;stroke-linejoin:round;" /><path d="M -9.0,29.999999999999996 L -14.999999999999998,29.999999999999996" style="stroke:black;fill:none;stroke-width:2.0;stroke-dasharray:-;stroke-linecap:round;stroke-linejoin:round;" /><path d="M -2.0 29.999999999999996 L -9.0 34.5 L -9.0 25.499999999999996 Z" style="stroke:black;fill:black;stroke-linecap:butt;stroke-linejoin:miter;" /><path d="M 0.0,59.99999999999999 L -1.6532731788489267e-15,69.0 L -3.3065463576978533e-15,78.0" style="stroke:black;fill:none;stroke-width:2.0;stroke-dasharray:-;stroke-linecap:round;stroke-linejoin:round;" /><path d="M 0.0,-0.0 L 5.51091059616309e-16,-9.0 L 1.102182119232618e-15,-18.0" style="stroke:black;fill:none;stroke-width:2.0;stroke-dasharray:-;stroke-linecap:round;stroke-linejoin:round;" /><path d="M -32.99999999999999,29.999999999999996 L -41.99999999999999,29.999999999999996 L -50.99999999999999,29.999999999999993" style="stroke:black;fill:none;stroke-width:2.0;stroke-dasharray:-;stroke-linecap:round;stroke-linejoin:round;" /><path d="M 0.0,29.999999999999996 L 9.0,29.999999999999996 L 18.0,29.999999999999996" style="stroke:black;fill:none;stroke-width:2.0;stroke-dasharray:-;stroke-linecap:round;stroke-linejoin:round;" /><path d="M 180.0,59.99999999999999 L 180.0,45.0 L 165.0,45.0 L 165.0,14.999999999999998 L 180.0,14.999999999999998 L 180.0,-0.0" style="stroke:black;fill:none;stroke-width:2.0;stroke-dasharray:-;stroke-linecap:round;stroke-linejoin:round;" /><path d="M 174.0,14.999999999999998 L 180.0,14.999999999999998" style="stroke:black;fill:none;stroke-width:2.0;stroke-dasharray:-;stroke-linecap:round;stroke-linejoin:round;" /><path d="M 167.0 14.999999999999998 L 174.0 10.5 L 174.0 19.5 Z" style="stroke:black;fill:black;stroke-linecap:butt;stroke-linejoin:miter;" /><path d="M 162.0,42.0 L 162.0,17.999999999999996" style="stroke:black;fill:none;stroke-width:2.0;stroke-dasharray:-;stroke-linecap:round;stroke-linejoin:round;" /><path d="M 147.00000000000003,29.999999999999996 L 162.0,29.999999999999996" style="stroke:black;fill:none;stroke-width:2.0;stroke-dasharray:-;stroke-linecap:round;stroke-linejoin:round;" /><path d="M 180.0,59.99999999999999 L 180.0,69.0 L 180.0,78.0" style="stroke:black;fill:none;stroke-width:2.0;stroke-dasharray:-;stroke-linecap:round;stroke-linejoin:round;" /><path d="M 180.0,-0.0 L 180.0,-9.0 L 180.0,-18.0" style="stroke:black;fill:none;stroke-width:2.0;stroke-dasharray:-;stroke-linecap:round;stroke-linejoin:round;" /><path d="M 147.00000000000003,29.999999999999996 L 138.00000000000003,29.999999999999996 L 129.00000000000003,29.999999999999993" style="stroke:black;fill:none;stroke-width:2.0;stroke-dasharray:-;stroke-linecap:round;stroke-linejoin:round;" /><path d="M 360.0,54.0 L 360.0,39.0 L 336.0,39.0 L 336.0,14.999999999999998 L 360.0,14.999999999999998 L 360.0,-0.0" style="stroke:black;fill:none;stroke-width:2.0;stroke-dasharray:-;stroke-linecap:round;stroke-linejoin:round;" /><path d="M 330.0,39.0 L 330.0,14.999999999999998" style="stroke:black;fill:none;stroke-width:2.0;stroke-dasharray:-;stroke-linecap:round;stroke-linejoin:round;" /><path d="M 310.79999999999995,27.0 L 321.6,27.0" style="stroke:black;fill:none;stroke-width:2.0;stroke-dasharray:-;stroke-linecap:round;stroke-linejoin:round;" /><path d="M 360.0,54.0 L 360.0,63.0 L 360.0,72.0" style="stroke:black;fill:none;stroke-width:2.0;stroke-dasharray:-;stroke-linecap:round;stroke-linejoin:round;" /><path d="M 360.0,-0.0 L 360.0,-9.0 L 360.0,-18.0" style="stroke:black;fill:none;stroke-width:2.0;stroke-dasharray:-;stroke-linecap:round;stroke-linejoin:round;" /><path d="M 310.79999999999995,27.0 L 301.79999999999995,27.0 L 292.79999999999995,26.999999999999996" style="stroke:black;fill:none;stroke-width:2.0;stroke-dasharray:-;stroke-linecap:round;stroke-linejoin:round;" /><circle cx="-3.3065463576978533e-15" cy="78.0" r="2.6999999999999997" style="stroke:black;fill:white;stroke-width:2.0;stroke-dasharray:-;" /><g><g><g><path d="M -2.478 93.498 L -2.478 93.498 L -2.478 84.3 L -0.126 84.3 Q 2.044 84.3 3.178 85.483 Q 4.312 86.666 4.312 88.864 Q 4.312 91.062 3.185 92.28 Q 2.058 93.498 -0.07 93.498 Z M -1.274 92.518 L -1.274 92.518 L -0.21 92.518 Q 1.442 92.518 2.261 91.559 Q 3.08 90.6 3.08 88.864 Q 3.08 87.128 2.261 86.204 Q 1.442 85.28 -0.21 85.28 L -1.274 85.28 Z " fill="black" /></g></g></g><circle cx="1.102182119232618e-15" cy="-18.0" r="2.6999999999999997" style="stroke:black;fill:white;stroke-width:2.0;stroke-dasharray:-;" /><g><g><g><path d="M 0.392 -24.3 L 0.392 -24.3 Q -0.616 -24.3 -1.449 -24.671 Q -2.282 -25.042 -2.898 -25.658 L -2.184 -26.484 Q -1.68 -25.966 -1.001 -25.658 Q -0.322 -25.35 0.448 -25.35 Q 1.344 -25.35 1.855 -25.756 Q 2.366 -26.162 2.366 -26.848 Q 2.366 -27.296 2.163 -27.576 Q 1.96 -27.856 1.603 -28.052 Q 1.246 -28.248 0.798 -28.43 L -0.546 -29.004 Q -0.952 -29.186 -1.4 -29.473 Q -1.848 -29.76 -2.149 -30.215 Q -2.45 -30.67 -2.45 -31.342 Q -2.45 -32.07 -2.065 -32.63 Q -1.68 -33.19 -1.015 -33.505 Q -0.35 -33.82 0.49 -33.82 Q 1.344 -33.82 2.058 -33.505 Q 2.772 -33.19 3.276 -32.686 L 2.646 -31.916 Q 2.198 -32.322 1.673 -32.553 Q 1.148 -32.784 0.518 -32.784 Q -0.28 -32.784 -0.756 -32.427 Q -1.232 -32.07 -1.232 -31.454 Q -1.232 -31.02 -1.001 -30.74 Q -0.77 -30.46 -0.413 -30.278 Q -0.056 -30.096 0.322 -29.942 L 1.652 -29.382 Q 2.184 -29.158 2.625 -28.843 Q 3.066 -28.528 3.325 -28.066 Q 3.584 -27.604 3.584 -26.96 Q 3.584 -26.204 3.199 -25.602 Q 2.814 -25 2.1 -24.65 Q 1.386 -24.3 0.392 -24.3 Z " fill="black" /></g></g></g><circle cx="-50.99999999999999" cy="29.999999999999993" r="2.6999999999999997" style="stroke:black;fill:white;stroke-width:2.0;stroke-dasharray:-;" /><g><g><g><path d="M -60.38 34.76 L -60.38 34.76 Q -61.626 34.76 -62.585 34.193 Q -63.544 33.626 -64.083 32.562 Q -64.622 31.498 -64.622 30.028 Q -64.622 28.516 -64.062 27.445 Q -63.502 26.374 -62.543 25.807 Q -61.584 25.24 -60.366 25.24 Q -59.33 25.24 -58.679 25.59 Q -58.028 25.94 -57.608 26.374 L -58.266 27.144 Q -58.616 26.78 -59.092 26.528 Q -59.568 26.276 -60.31 26.276 Q -61.71 26.276 -62.55 27.27 Q -63.39 28.264 -63.39 30.014 Q -63.39 31.694 -62.585 32.702 Q -61.78 33.71 -60.31 33.71 Q -59.162 33.71 -58.588 33.178 L -58.588 30.812 L -60.562 30.812 L -60.562 29.818 L -57.496 29.818 L -57.496 33.696 Q -57.944 34.158 -58.686 34.459 Q -59.428 34.76 -60.38 34.76 Z " fill="black" /></g></g></g><circle cx="18.0" cy="29.999999999999996" r="2.6999999999999997" style="stroke:black;fill:white;stroke-width:2.0;stroke-dasharray:-;" /><g><g><g><path d="M 25.588 34.599 L 25.588 34.599 L 25.588 25.401 L 28.374 25.401 Q 29.34 25.401 30.068 25.625 Q 30.796 25.849 31.202 26.339 Q 31.608 26.829 31.608 27.613 Q 31.608 28.341 31.251 28.894 Q 30.894 29.447 30.236 29.657 L 30.236 29.713 Q 31.076 29.867 31.615 30.413 Q 32.154 30.959 32.154 31.939 Q 32.154 32.821 31.699 33.409 Q 31.244 33.997 30.446 34.298 Q 29.648 34.599 28.598 34.599 Z M 26.792 33.647 L 26.792 33.647 L 28.416 33.647 Q 29.62 33.647 30.299 33.22 Q 30.978 32.793 30.978 31.897 Q 30.978 31.029 30.327 30.63 Q 29.676 30.231 28.416 30.231 L 26.792 30.231 Z M 26.792 29.321 L 26.792 29.321 L 28.178 29.321 Q 29.396 29.321 29.914 28.908 Q 30.432 28.495 30.432 27.795 Q 30.432 27.011 29.865 26.682 Q 29.298 26.353 28.234 26.353 L 26.792 26.353 Z " fill="black" /></g></g></g><circle cx="180.0" cy="78.0" r="2.6999999999999997" style="stroke:black;fill:white;stroke-width:2.0;stroke-dasharray:-;" /><g><g><g><path d="M 177.522 93.498 L 177.522 93.498 L 177.522 84.3 L 179.874 84.3 Q 182.044 84.3 183.178 85.483 Q 184.312 86.666 184.312 88.864 Q 184.312 91.062 183.185 92.28 Q 182.058 93.498 179.93 93.498 Z M 178.726 92.518 L 178.726 92.518 L 179.79 92.518 Q 181.442 92.518 182.261 91.559 Q 183.08 90.6 183.08 88.864 Q 183.08 87.128 182.261 86.204 Q 181.442 85.28 179.79 85.28 L 178.726 85.28 Z " fill="black" /></g></g></g><circle cx="180.0" cy="-18.0" r="2.6999999999999997" style="stroke:black;fill:white;stroke-width:2.0;stroke-dasharray:-;" /><g><g><g><path d="M 180.392 -24.3 L 180.392 -24.3 Q 179.384 -24.3 178.551 -24.671 Q 177.718 -25.042 177.102 -25.658 L 177.816 -26.484 Q 178.32 -25.966 178.999 -25.658 Q 179.678 -25.35 180.448 -25.35 Q 181.344 -25.35 181.855 -25.756 Q 182.366 -26.162 182.366 -26.848 Q 182.366 -27.296 182.163 -27.576 Q 181.96 -27.856 181.603 -28.052 Q 181.246 -28.248 180.798 -28.43 L 179.454 -29.004 Q 179.048 -29.186 178.6 -29.473 Q 178.152 -29.76 177.851 -30.215 Q 177.55 -30.67 177.55 -31.342 Q 177.55 -32.07 177.935 -32.63 Q 178.32 -33.19 178.985 -33.505 Q 179.65 -33.82 180.49 -33.82 Q 181.344 -33.82 182.058 -33.505 Q 182.772 -33.19 183.276 -32.686 L 182.646 -31.916 Q 182.198 -32.322 181.673 -32.553 Q 181.148 -32.784 180.518 -32.784 Q 179.72 -32.784 179.244 -32.427 Q 178.768 -32.07 178.768 -31.454 Q 178.768 -31.02 178.999 -30.74 Q 179.23 -30.46 179.587 -30.278 Q 179.944 -30.096 180.322 -29.942 L 181.652 -29.382 Q 182.184 -29.158 182.625 -28.843 Q 183.066 -28.528 183.325 -28.066 Q 183.584 -27.604 183.584 -26.96 Q 183.584 -26.204 183.199 -25.602 Q 182.814 -25 182.1 -24.65 Q 181.386 -24.3 180.392 -24.3 Z " fill="black" /></g></g></g><circle cx="129.00000000000003" cy="29.999999999999993" r="2.6999999999999997" style="stroke:black;fill:white;stroke-width:2.0;stroke-dasharray:-;" /><g><g><g><path d="M 119.62 34.76 L 119.62 34.76 Q 118.374 34.76 117.415 34.193 Q 116.456 33.626 115.917 32.562 Q 115.378 31.498 115.378 30.028 Q 115.378 28.516 115.938 27.445 Q 116.498 26.374 117.457 25.807 Q 118.416 25.24 119.634 25.24 Q 120.67 25.24 121.321 25.59 Q 121.972 25.94 122.392 26.374 L 121.734 27.144 Q 121.384 26.78 120.908 26.528 Q 120.432 26.276 119.69 26.276 Q 118.29 26.276 117.45 27.27 Q 116.61 28.264 116.61 30.014 Q 116.61 31.694 117.415 32.702 Q 118.22 33.71 119.69 33.71 Q 120.838 33.71 121.412 33.178 L 121.412 30.812 L 119.438 30.812 L 119.438 29.818 L 122.504 29.818 L 122.504 33.696 Q 122.056 34.158 121.314 34.459 Q 120.572 34.76 119.62 34.76 Z " fill="black" /></g></g></g><circle cx="360.0" cy="72.0" r="2.6999999999999997" style="stroke:black;fill:white;stroke-width:2.0;stroke-dasharray:-;" /><g><g><g><path d="M 357.522 87.498 L 357.522 87.498 L 357.522 78.3 L 359.874 78.3 Q 362.044 78.3 363.178 79.483 Q 364.312 80.666 364.312 82.864 Q 364.312 85.062 363.185 86.28 Q 362.058 87.498 359.93 87.498 Z M 358.726 86.518 L 358.726 86.518 L 359.79 86.518 Q 361.442 86.518 362.261 85.559 Q 363.08 84.6 363.08 82.864 Q 363.08 81.128 362.261 80.204 Q 361.442 79.28 359.79 79.28 L 358.726 79.28 Z " fill="black" /></g></g></g><circle cx="360.0" cy="-18.0" r="2.6999999999999997" style="stroke:black;fill:white;stroke-width:2.0;stroke-dasharray:-;" /><g><g><g><path d="M 360.392 -24.3 L 360.392 -24.3 Q 359.384 -24.3 358.551 -24.671 Q 357.718 -25.042 357.102 -25.658 L 357.816 -26.484 Q 358.32 -25.966 358.999 -25.658 Q 359.678 -25.35 360.448 -25.35 Q 361.344 -25.35 361.855 -25.756 Q 362.366 -26.162 362.366 -26.848 Q 362.366 -27.296 362.163 -27.576 Q 361.96 -27.856 361.603 -28.052 Q 361.246 -28.248 360.798 -28.43 L 359.454 -29.004 Q 359.048 -29.186 358.6 -29.473 Q 358.152 -29.76 357.851 -30.215 Q 357.55 -30.67 357.55 -31.342 Q 357.55 -32.07 357.935 -32.63 Q 358.32 -33.19 358.985 -33.505 Q 359.65 -33.82 360.49 -33.82 Q 361.344 -33.82 362.058 -33.505 Q 362.772 -33.19 363.276 -32.686 L 362.646 -31.916 Q 362.198 -32.322 361.673 -32.553 Q 361.148 -32.784 360.518 -32.784 Q 359.72 -32.784 359.244 -32.427 Q 358.768 -32.07 358.768 -31.454 Q 358.768 -31.02 358.999 -30.74 Q 359.23 -30.46 359.587 -30.278 Q 359.944 -30.096 360.322 -29.942 L 361.652 -29.382 Q 362.184 -29.158 362.625 -28.843 Q 363.066 -28.528 363.325 -28.066 Q 363.584 -27.604 363.584 -26.96 Q 363.584 -26.204 363.199 -25.602 Q 362.814 -25 362.1 -24.65 Q 361.386 -24.3 360.392 -24.3 Z " fill="black" /></g></g></g><circle cx="292.79999999999995" cy="26.999999999999996" r="2.6999999999999997" style="stroke:black;fill:white;stroke-width:2.0;stroke-dasharray:-;" /><g><g><g><path d="M 283.42 31.76 L 283.42 31.76 Q 282.174 31.76 281.215 31.193 Q 280.256 30.626 279.717 29.562 Q 279.178 28.498 279.178 27.028 Q 279.178 25.516 279.738 24.445 Q 280.298 23.374 281.257 22.807 Q 282.216 22.24 283.434 22.24 Q 284.47 22.24 285.121 22.59 Q 285.772 22.94 286.192 23.374 L 285.534 24.144 Q 285.184 23.78 284.708 23.528 Q 284.232 23.276 283.49 23.276 Q 282.09 23.276 281.25 24.27 Q 280.41 25.264 280.41 27.014 Q 280.41 28.694 281.215 29.702 Q 282.02 30.71 283.49 30.71 Q 284.638 30.71 285.212 30.178 L 285.212 27.812 L 283.238 27.812 L 283.238 26.818 L 286.304 26.818 L 286.304 30.696 Q 285.856 31.158 285.114 31.459 Q 284.372 31.76 283.42 31.76 Z " fill="black" /></g></g></g></svg>