<svg xmlns="http://www.w3.org/2000/svg" xmlns:xlink="http://www.w3.org/1999/xlink" xml:lang="en" height="119.81999999999998pt" width="531.5600000000001pt" viewBox="-60.99999999999999 -28.0 531.5600000000001 119.81999999999998"><polygon points="420.06,67.92 420.56,67.916 421.059,67.904 421.559,67.884 422.058,67.857 422.556,67.821 423.054,67.777 423.551,67.726 424.048,67.667 424.543,67.599 425.037,67.524 425.53,67.441 426.021,67.351 426.511,67.252 427,67.146 427.486,67.032 427.971,66.91 428.454,66.781 428.935,66.644 429.413,66.499 429.889,66.347 430.363,66.188 430.834,66.02 431.302,65.846 431.767,65.664 432.23,65.474 432.689,65.277 433.146,65.073 433.599,64.862 434.048,64.644 434.494,64.418 434.937,64.186 435.375,63.946 435.81,63.7 436.241,63.446 436.668,63.186 437.09,62.919 437.508,62.646 437.922,62.366 438.332,62.079 438.737,61.786 439.137,61.486 439.532,61.181 439.922,60.869 440.308,60.55 440.688,60.226 441.063,59.896 441.433,59.56 441.797,59.218 442.156,58.87 442.51,58.516 442.858,58.157 443.2,57.793 443.536,57.423 443.866,57.048 444.19,56.668 444.509,56.282 444.821,55.892 445.126,55.497 445.426,55.097 445.719,54.692 446.006,54.282 446.286,53.868 446.559,53.45 446.826,53.028 447.086,52.601 447.34,52.17 447.586,51.735 447.826,51.297 448.058,50.854 448.284,50.408 448.502,49.959 448.713,49.506 448.917,49.049 449.114,48.59 449.304,48.127 449.486,47.662 449.66,47.194 449.828,46.723 449.987,46.249 450.139,45.773 450.284,45.295 450.421,44.814 450.55,44.331 450.672,43.846 450.786,43.36 450.892,42.871 450.991,42.381 451.081,41.89 451.164,41.397 451.239,40.903 451.307,40.408 451.366,39.911 451.417,39.414 451.461,38.916 451.497,38.418 451.524,37.919 451.544,37.419 451.556,36.92 451.56,36.42 451.56,36.42 451.556,35.92 451.544,35.421 451.524,34.921 451.497,34.422 451.461,33.924 451.417,33.426 451.366,32.929 451.307,32.432 451.239,31.937 451.164,31.443 451.081,30.95 450.991,30.459 450.892,29.969 450.786,29.48 450.672,28.994 450.55,28.509 450.421,28.026 450.284,27.545 450.139,27.067 449.987,26.591 449.828,26.117 449.66,25.646 449.486,25.178 449.304,24.713 449.114,24.25 448.917,23.791 448.713,23.334 448.502,22.881 448.284,22.432 448.058,21.986 447.826,21.543 447.586,21.105 447.34,20.67 447.086,20.239 446.826,19.812 446.559,19.39 446.286,18.972 446.006,18.558 445.719,18.148 445.426,17.743 445.126,17.343 444.821,16.948 444.509,16.558 444.19,16.172 443.866,15.792 443.536,15.417 443.2,15.047 442.858,14.683 442.51,14.324 442.156,13.97 441.797,13.622 441.433,13.28 441.063,12.944 440.688,12.614 440.308,12.29 439.922,11.971 439.532,11.659 439.137,11.354 438.737,11.054 438.332,10.761 437.922,10.474 437.508,10.194 437.09,9.921 436.668,9.654 436.241,9.394 435.81,9.14 435.375,8.894 434.937,8.654 434.494,8.422 434.048,8.196 433.599,7.978 433.146,7.767 432.689,7.563 432.23,7.366 431.767,7.176 431.302,6.994 430.834,6.82 430.363,6.652 429.889,6.493 429.413,6.341 428.935,6.196 428.454,6.059 427.971,5.93 427.486,5.808 427,5.694 426.511,5.588 426.021,5.489 425.53,5.399 425.037,5.316 424.543,5.241 424.048,5.173 423.551,5.114 423.054,5.063 422.556,5.019 422.058,4.983 421.559,4.956 421.059,4.936 420.56,4.924 420.06,4.92 420.06,4.92 419.56,4.924 419.061,4.936 418.561,4.956 418.062,4.983 417.564,5.019 417.066,5.063 416.569,5.114 416.072,5.173 415.577,5.241 415.083,5.316 414.59,5.399 414.099,5.489 413.609,5.588 413.12,5.694 412.634,5.808 412.149,5.93 411.666,6.059 411.185,6.196 410.707,6.341 410.231,6.493 409.757,6.652 409.286,6.82 408.818,6.994 408.353,7.176 407.89,7.366 407.431,7.563 406.974,7.767 406.521,7.978 406.072,8.196 405.626,8.422 405.183,8.654 404.745,8.894 404.31,9.14 403.879,9.394 403.452,9.654 403.03,9.921 402.612,10.194 402.198,10.474 401.788,10.761 401.383,11.054 400.983,11.354 400.588,11.659 400.198,11.971 399.812,12.29 399.432,12.614 399.057,12.944 398.687,13.28 398.323,13.622 397.964,13.97 397.61,14.324 397.262,14.683 396.92,15.047 396.584,15.417 396.254,15.792 395.93,16.172 395.611,16.558 395.299,16.948 394.994,17.343 394.694,17.743 394.401,18.148 394.114,18.558 393.834,18.972 393.561,19.39 393.294,19.812 393.034,20.239 392.78,20.67 392.534,21.105 392.294,21.543 392.062,21.986 391.836,22.432 391.618,22.881 391.407,23.334 391.203,23.791 391.006,24.25 390.816,24.713 390.634,25.178 390.46,25.646 390.292,26.117 390.133,26.591 389.981,27.067 389.836,27.545 389.699,28.026 389.57,28.509 389.448,28.994 389.334,29.48 389.228,29.969 389.129,30.459 389.039,30.95 388.956,31.443 388.881,31.937 388.813,32.432 388.754,32.929 388.703,33.426 388.659,33.924 388.623,34.422 388.596,34.921 388.576,35.421 388.564,35.92 388.56,36.42 388.56,36.42 388.564,36.92 388.576,37.419 388.596,37.919 388.623,38.418 388.659,38.916 388.703,39.414 388.754,39.911 388.813,40.408 388.881,40.903 388.956,41.397 389.039,41.89 389.129,42.381 389.228,42.871 389.334,43.36 389.448,43.846 389.57,44.331 389.699,44.814 389.836,45.295 389.981,45.773 390.133,46.249 390.292,46.723 390.46,47.194 390.634,47.662 390.816,48.127 391.006,48.59 391.203,49.049 391.407,49.506 391.618,49.959 391.836,50.408 392.062,50.854 392.294,51.297 392.534,51.735 392.78,52.17 393.034,52.601 393.294,53.028 393.561,53.45 393.834,53.868 394.114,54.282 394.401,54.692 394.694,55.097 394.994,55.497 395.299,55.892 395.611,56.282 395.93,56.668 396.254,57.048 396.584,57.423 396.92,57.793 397.262,58.157 397.61,58.516 397.964,58.87 398.323,59.218 398.687,59.56 399.057,59.896 399.432,60.226 399.812,60.55 400.198,60.869 400.588,61.181 400.983,61.486 401.383,61.786 401.788,62.079 402.198,62.366 402.612,62.646 403.03,62.919 403.452,63.186 403.879,63.446 404.31,63.7 404.745,63.946 405.183,64.186 405.626,64.418 406.072,64.644 406.521,64.862 406.974,65.073 407.431,65.277 407.89,65.474 408.353,65.664 408.818,65.846 409.286,66.02 409.757,66.188 410.231,66.347 410.707,66.499 411.185,66.644 411.666,66.781 412.149,66.91 412.634,67.032 413.12,67.146 413.609,67.252 414.099,67.351 414.59,67.441 415.083,67.524 415.577,67.599 416.072,67.667 416.569,67.726 417.066,67.777 417.564,67.821 418.062,67.857 418.561,67.884 419.061,67.904 419.56,67.916 420.06,67.92 420.06,67.92 " style="stroke:black;fill:none;stroke-width:2.5;stroke-dasharray:-;stroke-linecap:round;stroke-linejoin:round;" /><path d="M 0.0,59.99999999999999 L 0,45 L -15,45 L -15,15 L 0,15 L 0,-0" style="stroke:black;fill:none;stroke-width:2.0;stroke-dasharray:-;stroke-linecap:round;stroke-linejoin:round;" /><path d="M -9.0,45.0 L -15,45" style="stroke:black;fill:none;stroke-width:2.0;stroke-dasharray:-;stroke-linecap:round;stroke-linejoin:round;" /><path d="M -2 45 L -9 49.5 L -9 40.5 Z" style="stroke:black;fill:black;stroke-linecap:butt;stroke-linejoin:miter;" /><path d="M -17.999999999999996,42.0 L -18,18" style="stroke:black;fill:none;stroke-width:2.0;stroke-dasharray:-;stroke-linecap:round;stroke-linejoin:round;" /><path d="M -32.99999999999999,29.999999999999996 L -18,30" style="stroke:black;fill:none;stroke-width:2.0;stroke-dasharray:-;stroke-linecap:round;stroke-linejoin:round;" /><path d="M -32.99999999999999,29.999999999999996 L -37.5,30 L -42,30" style="stroke:black;fill:none;stroke-width:2.0;stroke-dasharray:-;stroke-linecap:round;stroke-linejoin:round;" /><path d="M 0.0,-0.0 L 0,-4.5 L 0,-9" style="stroke:black;fill:none;stroke-width:2.0;stroke-dasharray:-;stroke-linecap:round;stroke-linejoin:round;" /><path d="M 0.0,59.99999999999999 L -0,64.5 L -0,69" style="stroke:black;fill:none;stroke-width:2.0;stroke-dasharray:-;stroke-linecap:round;stroke-linejoin:round;" /><path d="M 108.0,32.99999999999999 L 121.2,33" style="stroke:black;fill:none;stroke-width:2.0;stroke-dasharray:-;stroke-linecap:round;stroke-linejoin:round;" /><path d="M 121.2,19.799999999999994 L 121.2,46.2" style="stroke:black;fill:none;stroke-width:2.0;stroke-dasharray:-;stroke-linecap:round;stroke-linejoin:round;" /><path d="M 121.2,26.399999999999995 L 135.06,14.52 L 135.06,7.92" style="stroke:black;fill:none;stroke-width:2.0;stroke-dasharray:-;stroke-linecap:round;stroke-linejoin:round;" /><path d="M 121.2,39.599999999999994 L 135.06,51.48 L 135.06,58.08" style="stroke:black;fill:none;stroke-width:2.0;stroke-dasharray:-;stroke-linecap:round;stroke-linejoin:round;" /><path d="M 121.2,39.599999999999994 L 128.227,45.623" style="stroke:black;fill:none;stroke-width:2.0;stroke-dasharray:-;stroke-linecap:round;stroke-linejoin:round;" /><path d="M 133.541 50.178 L 125.884 48.356 L 130.57 42.89 Z" style="stroke:black;fill:black;stroke-linecap:butt;stroke-linejoin:miter;" /><path d="M 108.0,32.99999999999999 L 102,33 L 96,33" style="stroke:black;fill:none;stroke-width:2.0;stroke-dasharray:-;stroke-linecap:round;stroke-linejoin:round;" /><path d="M 135.06,7.919999999999995 L 135.06,1.92 L 135.06,-4.08" style="stroke:black;fill:none;stroke-width:2.0;stroke-dasharray:-;stroke-linecap:round;stroke-linejoin:round;" /><path d="M 135.06,58.08 L 135.06,64.08 L 135.06,70.08" style="stroke:black;fill:none;stroke-width:2.0;stroke-dasharray:-;stroke-linecap:round;stroke-linejoin:round;" /><path d="M 279.06,55.919999999999995 L 279.06,40.92 L 261.06,40.92 L 261.06,45.72 L 261.06,18.12 L 261.06,22.92 L 279.06,22.92 L 279.06,7.92" style="stroke:black;fill:none;stroke-width:2.0;stroke-dasharray:-;stroke-linecap:round;stroke-linejoin:round;" /><path d="M 246.06,40.919999999999995 L 261.06,40.92" style="stroke:black;fill:none;stroke-width:2.0;stroke-dasharray:-;stroke-linecap:round;stroke-linejoin:round;" /><path d="M 259.26,40.919999999999995 L 257.46,40.92" style="stroke:black;fill:none;stroke-width:2.0;stroke-dasharray:-;stroke-linecap:round;stroke-linejoin:round;" /><path d="M 252.26 40.92 L 259.26 37.32 L 259.26 44.52 Z" style="stroke:black;fill:black;stroke-linecap:butt;stroke-linejoin:miter;" /><path d="M 246.06,40.919999999999995 L 240.06,40.92 L 234.06,40.92" style="stroke:black;fill:none;stroke-width:2.0;stroke-dasharray:-;stroke-linecap:round;stroke-linejoin:round;" /><path d="M 279.06,7.919999999999995 L 279.06,1.92 L 279.06,-4.08" style="stroke:black;fill:none;stroke-width:2.0;stroke-dasharray:-;stroke-linecap:round;stroke-linejoin:round;" /><path d="M 279.06,55.919999999999995 L 279.06,61.92 L 279.06,67.92" style="stroke:black;fill:none;stroke-width:2.0;stroke-dasharray:-;stroke-linecap:round;stroke-linejoin:round;" /><path d="M 407.46,29.419999999999995 L 432.66,29.42" style="stroke:black;fill:none;stroke-width:2;stroke-dasharray:-;stroke-linecap:round;stroke-linejoin:round;" /><path d="M 420.06,4.919999999999994 L 420.06,29.42" style="stroke:black;fill:none;stroke-width:2;stroke-dasharray:-;stroke-linecap:round;stroke-linejoin:round;" /><path d="M 407.46,36.419999999999995 L 412.5,36.42" style="stroke:black;fill:none;stroke-width:2;stroke-dasharray:-;stroke-linecap:round;stroke-linejoin:round;" /><path d="M 417.53999999999996,36.419999999999995 L 422.58,36.42" style="stroke:black;fill:none;stroke-width:2;stroke-dasharray:-;stroke-linecap:round;stroke-linejoin:round;" /><path d="M 427.62,36.419999999999995 L 432.66,36.42" style="stroke:black;fill:none;stroke-width:2;stroke-dasharray:-;stroke-linecap:round;stroke-linejoin:round;" /><path d="M 407.46,48.81999999999999 L 407.46,43.42 L 432.66,43.42 L 432.66,48.82" style="stroke:black;fill:none;stroke-width:2;stroke-dasharray:-;stroke-linecap:round;stroke-linejoin:round;" /><path d="M 402.41999999999996,36.419999999999995 L 390.42,36.42 L 378.42,36.42" style="stroke:black;fill:none;stroke-width:2.0;stroke-dasharray:-;stroke-linecap:round;stroke-linejoin:round;" /><path d="M 420.06,4.919999999999994 L 420.06,-0.223 L 420.06,-5.366" style="stroke:black;fill:none;stroke-width:2.0;stroke-dasharray:-;stroke-linecap:round;stroke-linejoin:round;" /><path d="M 407.46,48.81999999999999 L 407.46,60.82 L 407.46,72.82" style="stroke:black;fill:none;stroke-width:2.0;stroke-dasharray:-;stroke-linecap:round;stroke-linejoin:round;" /></svg>