<svg xmlns="http://www.w3.org/2000/svg" xmlns:xlink="http://www.w3.org/1999/xlink" xml:lang="en" height="238.41899999999998pt" width="318.21000000000004pt" viewBox="-87.37799999999999 -95.59899999999999 318.21000000000004 238.41899999999998"><circle cx="71.99999999999999" cy="-36.0" r="18.0" style="stroke:black;fill:none;stroke-width:2.0;stroke-dasharray:-;" /><path d="M 0.0,-0.0 L -27.0,-3.3065463576978533e-15 L -54.0,-6.613092715395707e-15" style="stroke:black;fill:none;stroke-width:2.0;stroke-dasharray:-;stroke-linecap:round;stroke-linejoin:round;" /><path d="M 0.0,-0.0 L -6.017914371010093e-15,32.76 M 8.999999999999995,32.76 L -9.000000000000005,32.76 M 8.999999999999993,39.24 L -9.000000000000007,39.24 M -7.208271059781322e-15,39.24 L -1.3226185430791413e-14,72.0" style="stroke:black;fill:none;stroke-width:2.0;stroke-dasharray:-;stroke-linecap:round;stroke-linejoin:round;" /><path d="M -1.3226185430791413e-14,72.0 L 35.999999999999986,72.0 L 71.99999999999999,72.0" style="stroke:black;fill:none;stroke-width:2.0;stroke-dasharray:-;stroke-linecap:round;stroke-linejoin:round;" /><path d="M 71.99999999999999,72.0 L 71.99999999999999,90.0 L 71.99999999999997,108.0" style="stroke:black;fill:none;stroke-width:2.0;stroke-dasharray:-;stroke-linecap:round;stroke-linejoin:round;" /><path d="M 71.99999999999999,72.0 L 71.99999999999999,54.0 L 62.999999999999986,50.99999999999999 L 80.99999999999999,45.0 L 62.999999999999986,39.00000000000001 L 80.99999999999999,33.0 L 62.999999999999986,27.0 L 80.99999999999999,21.000000000000007 L 71.99999999999999,18.0 L 71.99999999999999,-0.0" style="stroke:black;fill:none;stroke-width:2.0;stroke-dasharray:-;stroke-linecap:round;stroke-linejoin:round;" /><path d="M 71.99999999999999,-0.0 L 35.99999999999999,-4.408728476930472e-15 L -7.993605777301127e-15,-8.817456953860943e-15" style="stroke:black;fill:none;stroke-width:2.0;stroke-dasharray:-;stroke-linecap:round;stroke-linejoin:round;" /><path d="M 71.99999999999999,-0.0 L 71.99999999999999,-18.0 L 71.99999999999999,-18.0 M 71.99999999999999,-54.0 L 71.99999999999999,-54.0 L 72.0,-72.0" style="stroke:black;fill:none;stroke-width:2.0;stroke-dasharray:-;stroke-linecap:round;stroke-linejoin:round;" /><path d="M 71.99999999999999,-36.0 L 71.99999999999999,-45.0" style="stroke:black;fill:none;stroke-width:2.0;stroke-dasharray:-;stroke-linecap:round;stroke-linejoin:round;" /><path d="M 71.99999999999999 -29.0 L 69.29999999999998 -36.0 L 74.69999999999999 -36.0 Z" style="stroke:black;fill:black;stroke-linecap:butt;stroke-linejoin:miter;" /><path d="M 72.0,-72.0 L 108.0,-72.0 L 144.0,-72.0" style="stroke:black;fill:none;stroke-width:2.0;stroke-dasharray:-;stroke-linecap:round;stroke-linejoin:round;" /><path d="M 144.0,-72.0 L 171.0,-72.0 L 198.0,-72.0" style="stroke:black;fill:none;stroke-width:2.0;stroke-dasharray:-;stroke-linecap:round;stroke-linejoin:round;" /><path d="M 144.0,-72.0 L 143.99999999999997,-18.0 L 153.0,-15.000000000000004 L 134.99999999999997,-9.0 L 153.0,-3.0000000000000053 L 134.99999999999997,2.9999999999999893 L 153.0,9.0 L 134.99999999999997,14.999999999999995 L 143.99999999999997,18.0 L 143.99999999999997,72.0" style="stroke:black;fill:none;stroke-width:2.0;stroke-dasharray:-;stroke-linecap:round;stroke-linejoin:round;" /><path d="M 143.99999999999997,72.0 L 107.99999999999997,71.99999999999999 L 71.99999999999997,71.99999999999999" style="stroke:black;fill:none;stroke-width:2.0;stroke-dasharray:-;stroke-linecap:round;stroke-linejoin:round;" /><circle cx="-54.0" cy="-6.613092715395707e-15" r="2.6999999999999997" style="stroke:black;fill:white;stroke-width:2.0;stroke-dasharray:-;" /><g><g><g><path d="M -63.38 4.76 L -63.38 4.76 Q -64.626 4.76 -65.585 4.193 Q -66.544 3.626 -67.083 2.562 Q -67.622 1.498 -67.622 0.028 Q -67.622 -1.484 -67.062 -2.555 Q -66.502 -3.626 -65.543 -4.193 Q -64.584 -4.76 -63.366 -4.76 Q -62.33 -4.76 -61.679 -4.41 Q -61.028 -4.06 -60.608 -3.626 L -61.266 -2.856 Q -61.616 -3.22 -62.092 -3.472 Q -62.568 -3.724 -63.31 -3.724 Q -64.71 -3.724 -65.55 -2.73 Q -66.39 -1.736 -66.39 0.014 Q -66.39 1.694 -65.585 2.702 Q -64.78 3.71 -63.31 3.71 Q -62.162 3.71 -61.588 3.178 L -61.588 0.812 L -63.562 0.812 L -63.562 -0.182 L -60.496 -0.182 L -60.496 3.696 Q -60.944 4.158 -61.686 4.459 Q -62.428 4.76 -63.38 4.76 Z " fill="black" /></g></g></g><g><g><g><path d="M -23.786 35.945 L -23.786 35.945 L -23.534 36.211 Q -24.248 37.051 -25.186 37.59 Q -26.124 38.129 -27.454 38.129 Q -28.714 38.129 -29.47 37.66 Q -30.226 37.191 -30.555 36.407 Q -30.884 35.623 -30.884 34.699 Q -30.884 33.229 -30.436 32.088 Q -29.988 30.947 -29.211 30.17 Q -28.434 29.393 -27.454 28.994 Q -26.474 28.595 -25.41 28.595 Q -24.696 28.595 -24.297 28.721 Q -23.898 28.847 -23.674 28.98 Q -23.45 29.113 -23.282 29.113 Q -23.114 29.113 -22.988 28.973 Q -22.862 28.833 -22.694 28.609 L -22.288 28.609 L -22.946 31.815 L -23.408 31.815 Q -23.352 30.415 -23.926 29.806 Q -24.5 29.197 -25.536 29.197 Q -26.348 29.197 -27.062 29.568 Q -27.776 29.939 -28.329 30.618 Q -28.882 31.297 -29.197 32.242 Q -29.512 33.187 -29.512 34.349 Q -29.512 35.749 -28.847 36.484 Q -28.182 37.219 -26.796 37.219 Q -25.186 37.219 -23.786 35.945 Z " fill="black" /><path d="M -21.305 38.946 L -21.305 38.946 L -21.305 38.906 Q -21.648 38.701 -21.888 38.372 Q -22.128 38.044 -22.128 37.525 Q -22.128 36.976 -21.864 36.584 Q -21.599 36.192 -21.148 35.981 Q -20.698 35.77 -20.139 35.77 Q -19.62 35.77 -19.291 35.883 Q -18.963 35.996 -18.963 35.996 L -17.522 35.957 L -17.522 36.535 L -18.551 36.515 L -18.551 36.584 Q -18.424 36.76 -18.287 37 Q -18.15 37.24 -18.15 37.672 Q -18.15 38.162 -18.409 38.519 Q -18.669 38.877 -19.105 39.068 Q -19.541 39.259 -20.09 39.259 Q -20.59 39.259 -21.031 39.083 Q -21.099 39.21 -21.193 39.445 Q -21.286 39.681 -21.286 39.847 Q -21.286 40.053 -21.046 40.151 Q -20.805 40.249 -20.09 40.249 Q -19.561 40.249 -19.11 40.273 Q -18.659 40.298 -18.326 40.411 Q -17.993 40.523 -17.812 40.773 Q -17.63 41.023 -17.63 41.484 Q -17.63 42.013 -17.9 42.38 Q -18.169 42.748 -18.61 42.973 Q -19.051 43.199 -19.566 43.302 Q -20.08 43.405 -20.58 43.405 Q -21.295 43.405 -21.687 43.228 Q -22.079 43.052 -22.231 42.777 Q -22.383 42.503 -22.383 42.219 Q -22.383 41.944 -22.192 41.675 Q -22.001 41.405 -21.58 41.013 L -21.58 40.964 Q -21.825 40.837 -21.991 40.621 Q -22.158 40.406 -22.158 40.2 Q -22.158 39.906 -21.898 39.578 Q -21.638 39.249 -21.305 38.946 Z M -21.256 41.062 L -21.256 41.062 Q -21.423 41.347 -21.482 41.513 Q -21.54 41.68 -21.54 41.846 Q -21.54 42.297 -21.173 42.527 Q -20.805 42.758 -20.031 42.758 Q -19.394 42.758 -19.002 42.601 Q -18.61 42.444 -18.424 42.224 Q -18.238 42.003 -18.238 41.797 Q -18.238 41.533 -18.409 41.386 Q -18.581 41.239 -18.845 41.175 Q -19.11 41.111 -19.404 41.092 Q -19.698 41.072 -19.953 41.072 Q -20.021 41.072 -20.061 41.072 Q -20.688 41.072 -20.918 41.067 Q -21.148 41.062 -21.256 41.062 Z M -20.198 36.202 L -20.198 36.202 Q -20.619 36.202 -20.879 36.486 Q -21.139 36.77 -21.139 37.466 Q -21.139 38.152 -20.864 38.505 Q -20.59 38.857 -20.09 38.857 Q -19.825 38.857 -19.61 38.75 Q -19.394 38.642 -19.262 38.358 Q -19.13 38.073 -19.13 37.554 Q -19.13 36.888 -19.419 36.545 Q -19.708 36.202 -20.198 36.202 Z " fill="black" /><path d="M -15.817 38.946 L -15.817 38.946 L -15.817 38.906 Q -16.16 38.701 -16.4 38.372 Q -16.64 38.044 -16.64 37.525 Q -16.64 36.976 -16.376 36.584 Q -16.111 36.192 -15.66 35.981 Q -15.21 35.77 -14.651 35.77 Q -14.132 35.77 -13.803 35.883 Q -13.475 35.996 -13.475 35.996 L -12.034 35.957 L -12.034 36.535 L -13.063 36.515 L -13.063 36.584 Q -12.936 36.76 -12.799 37 Q -12.662 37.24 -12.662 37.672 Q -12.662 38.162 -12.921 38.519 Q -13.181 38.877 -13.617 39.068 Q -14.053 39.259 -14.602 39.259 Q -15.102 39.259 -15.543 39.083 Q -15.611 39.21 -15.705 39.445 Q -15.798 39.681 -15.798 39.847 Q -15.798 40.053 -15.558 40.151 Q -15.317 40.249 -14.602 40.249 Q -14.073 40.249 -13.622 40.273 Q -13.171 40.298 -12.838 40.411 Q -12.505 40.523 -12.324 40.773 Q -12.142 41.023 -12.142 41.484 Q -12.142 42.013 -12.412 42.38 Q -12.681 42.748 -13.122 42.973 Q -13.563 43.199 -14.078 43.302 Q -14.592 43.405 -15.092 43.405 Q -15.807 43.405 -16.199 43.228 Q -16.591 43.052 -16.743 42.777 Q -16.895 42.503 -16.895 42.219 Q -16.895 41.944 -16.704 41.675 Q -16.513 41.405 -16.092 41.013 L -16.092 40.964 Q -16.337 40.837 -16.503 40.621 Q -16.67 40.406 -16.67 40.2 Q -16.67 39.906 -16.41 39.578 Q -16.15 39.249 -15.817 38.946 Z M -15.768 41.062 L -15.768 41.062 Q -15.935 41.347 -15.994 41.513 Q -16.052 41.68 -16.052 41.846 Q -16.052 42.297 -15.685 42.527 Q -15.317 42.758 -14.543 42.758 Q -13.906 42.758 -13.514 42.601 Q -13.122 42.444 -12.936 42.224 Q -12.75 42.003 -12.75 41.797 Q -12.75 41.533 -12.921 41.386 Q -13.093 41.239 -13.357 41.175 Q -13.622 41.111 -13.916 41.092 Q -14.21 41.072 -14.465 41.072 Q -14.533 41.072 -14.573 41.072 Q -15.2 41.072 -15.43 41.067 Q -15.66 41.062 -15.768 41.062 Z M -14.71 36.202 L -14.71 36.202 Q -15.131 36.202 -15.391 36.486 Q -15.651 36.77 -15.651 37.466 Q -15.651 38.152 -15.376 38.505 Q -15.102 38.857 -14.602 38.857 Q -14.337 38.857 -14.122 38.75 Q -13.906 38.642 -13.774 38.358 Q -13.642 38.073 -13.642 37.554 Q -13.642 36.888 -13.931 36.545 Q -14.22 36.202 -14.71 36.202 Z " fill="black" /></g></g></g><circle cx="71.99999999999999" cy="72.0" r="2.6999999999999997" style="stroke:black;fill:black;stroke-width:2.0;stroke-dasharray:-;" /><circle cx="71.99999999999997" cy="108.0" r="2.6999999999999997" style="stroke:black;fill:white;stroke-width:2.0;stroke-dasharray:-;" /><g><g><g><path d="M 72.392 123.82 L 72.392 123.82 Q 71.384 123.82 70.551 123.449 Q 69.718 123.078 69.102 122.462 L 69.816 121.636 Q 70.32 122.154 70.999 122.462 Q 71.678 122.77 72.448 122.77 Q 73.344 122.77 73.855 122.364 Q 74.366 121.958 74.366 121.272 Q 74.366 120.824 74.163 120.544 Q 73.96 120.264 73.603 120.068 Q 73.246 119.872 72.798 119.69 L 71.454 119.116 Q 71.048 118.934 70.6 118.647 Q 70.152 118.36 69.851 117.905 Q 69.55 117.45 69.55 116.778 Q 69.55 116.05 69.935 115.49 Q 70.32 114.93 70.985 114.615 Q 71.65 114.3 72.49 114.3 Q 73.344 114.3 74.058 114.615 Q 74.772 114.93 75.276 115.434 L 74.646 116.204 Q 74.198 115.798 73.673 115.567 Q 73.148 115.336 72.518 115.336 Q 71.72 115.336 71.244 115.693 Q 70.768 116.05 70.768 116.666 Q 70.768 117.1 70.999 117.38 Q 71.23 117.66 71.587 117.842 Q 71.944 118.024 72.322 118.178 L 73.652 118.738 Q 74.184 118.962 74.625 119.277 Q 75.066 119.592 75.325 120.054 Q 75.584 120.516 75.584 121.16 Q 75.584 121.916 75.199 122.518 Q 74.814 123.12 74.1 123.47 Q 73.386 123.82 72.392 123.82 Z " fill="black" /></g></g></g><circle cx="71.99999999999999" cy="-0.0" r="2.6999999999999997" style="stroke:black;fill:black;stroke-width:2.0;stroke-dasharray:-;" /><g><g><g><path d="M 49.572 29.89 L 49.572 29.89 L 49.488 30.604 L 48.27 30.464 L 48.27 30.506 Q 48.508 30.772 48.641 31.171 Q 48.774 31.57 48.774 31.934 Q 48.774 32.564 48.522 32.991 Q 48.27 33.418 47.864 33.677 Q 47.458 33.936 46.968 34.069 Q 46.478 34.202 46.016 34.244 Q 45.456 34.3 45.225 34.482 Q 44.994 34.664 44.994 34.86 Q 44.994 35.112 45.274 35.245 Q 45.554 35.378 45.995 35.462 Q 46.436 35.546 46.94 35.651 Q 47.444 35.756 47.885 35.938 Q 48.326 36.12 48.606 36.449 Q 48.886 36.778 48.886 37.324 Q 48.886 37.926 48.494 38.437 Q 48.102 38.948 47.332 39.263 Q 46.562 39.578 45.442 39.578 Q 44.434 39.578 43.832 39.333 Q 43.23 39.088 42.964 38.703 Q 42.698 38.318 42.698 37.898 Q 42.698 37.226 43.216 36.813 Q 43.734 36.4 44.392 36.19 L 44.392 36.134 Q 44.21 36.022 44.049 35.819 Q 43.888 35.616 43.888 35.294 Q 43.888 34.944 44.07 34.734 Q 44.252 34.524 44.539 34.391 Q 44.826 34.258 45.106 34.16 L 45.106 34.076 Q 44.56 33.838 44.154 33.404 Q 43.748 32.97 43.748 32.172 Q 43.748 31.444 44.098 30.891 Q 44.448 30.338 45.057 30.03 Q 45.666 29.722 46.422 29.722 Q 46.926 29.722 47.185 29.771 Q 47.444 29.82 47.696 29.89 Z M 47.878 37.842 L 47.878 37.842 Q 47.878 37.422 47.528 37.163 Q 47.178 36.904 46.66 36.75 Q 46.142 36.596 45.617 36.505 Q 45.092 36.414 44.728 36.344 Q 44.378 36.568 44.084 36.855 Q 43.79 37.142 43.79 37.688 Q 43.79 38.248 44.224 38.668 Q 44.658 39.088 45.722 39.088 Q 46.73 39.088 47.304 38.717 Q 47.878 38.346 47.878 37.842 Z M 47.528 31.78 L 47.528 31.78 Q 47.528 31.08 47.262 30.611 Q 46.996 30.142 46.38 30.142 Q 45.778 30.142 45.386 30.646 Q 44.994 31.15 44.994 32.172 Q 44.994 32.9 45.246 33.355 Q 45.498 33.81 46.1 33.81 Q 46.8 33.81 47.164 33.222 Q 47.528 32.634 47.528 31.78 Z " fill="black" /><path d="M 51.963 35.575 L 51.963 35.575 L 51.963 38.29 Q 51.963 38.584 52.022 38.741 Q 52.081 38.898 52.247 38.951 Q 52.414 39.005 52.737 39.005 L 52.737 39.368 L 50.268 39.368 L 50.268 39.005 Q 50.581 39.005 50.738 38.951 Q 50.895 38.898 50.944 38.736 Q 50.993 38.574 50.993 38.27 L 50.993 35.301 Q 50.993 35.027 50.89 34.933 Q 50.787 34.84 50.562 34.84 Q 50.454 34.84 50.371 34.85 Q 50.287 34.86 50.287 34.86 L 50.287 34.488 L 51.571 34.252 L 51.934 34.252 L 51.934 35.056 L 52.002 35.056 Q 52.414 34.684 52.826 34.453 Q 53.237 34.223 53.796 34.223 Q 54.256 34.223 54.545 34.458 Q 54.835 34.693 54.991 35.036 L 55.04 35.036 Q 55.932 34.223 56.755 34.223 Q 57.422 34.223 57.809 34.635 Q 58.196 35.046 58.196 35.938 L 58.196 38.094 Q 58.196 38.427 58.235 38.628 Q 58.274 38.829 58.431 38.917 Q 58.588 39.005 58.941 39.005 L 58.941 39.368 L 56.481 39.368 L 56.481 39.005 Q 56.844 39.005 57.005 38.912 Q 57.167 38.819 57.206 38.618 Q 57.245 38.417 57.245 38.094 L 57.245 36.056 Q 57.245 35.438 56.995 35.193 Q 56.746 34.948 56.354 34.948 Q 56.02 34.948 55.687 35.149 Q 55.354 35.35 55.099 35.546 L 55.099 38.094 Q 55.099 38.457 55.143 38.657 Q 55.187 38.858 55.359 38.932 Q 55.53 39.005 55.893 39.005 L 55.893 39.368 L 53.335 39.368 L 53.335 39.005 Q 53.708 39.005 53.879 38.932 Q 54.051 38.858 54.1 38.657 Q 54.149 38.457 54.149 38.094 L 54.149 36.026 Q 54.149 35.409 53.928 35.178 Q 53.708 34.948 53.325 34.948 Q 52.924 34.948 52.556 35.164 Q 52.189 35.379 51.963 35.575 Z " fill="black" /></g></g></g><circle cx="-7.993605777301127e-15" cy="-8.817456953860943e-15" r="2.6999999999999997" style="stroke:black;fill:black;stroke-width:2.0;stroke-dasharray:-;" /><g><g><g><path d="M 23.654 -41.9 L 23.654 -41.9 L 23.57 -41.186 L 22.352 -41.326 L 22.352 -41.284 Q 22.59 -41.018 22.723 -40.619 Q 22.856 -40.22 22.856 -39.856 Q 22.856 -39.226 22.604 -38.799 Q 22.352 -38.372 21.946 -38.113 Q 21.54 -37.854 21.05 -37.721 Q 20.56 -37.588 20.098 -37.546 Q 19.538 -37.49 19.307 -37.308 Q 19.076 -37.126 19.076 -36.93 Q 19.076 -36.678 19.356 -36.545 Q 19.636 -36.412 20.077 -36.328 Q 20.518 -36.244 21.022 -36.139 Q 21.526 -36.034 21.967 -35.852 Q 22.408 -35.67 22.688 -35.341 Q 22.968 -35.012 22.968 -34.466 Q 22.968 -33.864 22.576 -33.353 Q 22.184 -32.842 21.414 -32.527 Q 20.644 -32.212 19.524 -32.212 Q 18.516 -32.212 17.914 -32.457 Q 17.312 -32.702 17.046 -33.087 Q 16.78 -33.472 16.78 -33.892 Q 16.78 -34.564 17.298 -34.977 Q 17.816 -35.39 18.474 -35.6 L 18.474 -35.656 Q 18.292 -35.768 18.131 -35.971 Q 17.97 -36.174 17.97 -36.496 Q 17.97 -36.846 18.152 -37.056 Q 18.334 -37.266 18.621 -37.399 Q 18.908 -37.532 19.188 -37.63 L 19.188 -37.714 Q 18.642 -37.952 18.236 -38.386 Q 17.83 -38.82 17.83 -39.618 Q 17.83 -40.346 18.18 -40.899 Q 18.53 -41.452 19.139 -41.76 Q 19.748 -42.068 20.504 -42.068 Q 21.008 -42.068 21.267 -42.019 Q 21.526 -41.97 21.778 -41.9 Z M 21.96 -33.948 L 21.96 -33.948 Q 21.96 -34.368 21.61 -34.627 Q 21.26 -34.886 20.742 -35.04 Q 20.224 -35.194 19.699 -35.285 Q 19.174 -35.376 18.81 -35.446 Q 18.46 -35.222 18.166 -34.935 Q 17.872 -34.648 17.872 -34.102 Q 17.872 -33.542 18.306 -33.122 Q 18.74 -32.702 19.804 -32.702 Q 20.812 -32.702 21.386 -33.073 Q 21.96 -33.444 21.96 -33.948 Z M 21.61 -40.01 L 21.61 -40.01 Q 21.61 -40.71 21.344 -41.179 Q 21.078 -41.648 20.462 -41.648 Q 19.86 -41.648 19.468 -41.144 Q 19.076 -40.64 19.076 -39.618 Q 19.076 -38.89 19.328 -38.435 Q 19.58 -37.98 20.182 -37.98 Q 20.882 -37.98 21.246 -38.568 Q 21.61 -39.156 21.61 -40.01 Z " fill="black" /><path d="M 26.046 -36.214 L 26.046 -36.214 L 26.046 -33.5 Q 26.046 -33.206 26.104 -33.049 Q 26.163 -32.892 26.33 -32.838 Q 26.496 -32.784 26.82 -32.784 L 26.82 -32.422 L 24.35 -32.422 L 24.35 -32.784 Q 24.664 -32.784 24.821 -32.838 Q 24.977 -32.892 25.026 -33.054 Q 25.075 -33.215 25.075 -33.519 L 25.075 -36.489 Q 25.075 -36.763 24.973 -36.856 Q 24.87 -36.949 24.644 -36.949 Q 24.536 -36.949 24.453 -36.939 Q 24.37 -36.93 24.37 -36.93 L 24.37 -37.302 L 25.654 -37.537 L 26.016 -37.537 L 26.016 -36.734 L 26.085 -36.734 Q 26.496 -37.106 26.908 -37.336 Q 27.32 -37.567 27.878 -37.567 Q 28.339 -37.567 28.628 -37.331 Q 28.917 -37.096 29.074 -36.753 L 29.123 -36.753 Q 30.015 -37.567 30.838 -37.567 Q 31.504 -37.567 31.891 -37.155 Q 32.278 -36.743 32.278 -35.852 L 32.278 -33.696 Q 32.278 -33.362 32.318 -33.161 Q 32.357 -32.961 32.514 -32.872 Q 32.67 -32.784 33.023 -32.784 L 33.023 -32.422 L 30.563 -32.422 L 30.563 -32.784 Q 30.926 -32.784 31.088 -32.877 Q 31.249 -32.97 31.289 -33.171 Q 31.328 -33.372 31.328 -33.696 L 31.328 -35.734 Q 31.328 -36.351 31.078 -36.596 Q 30.828 -36.841 30.436 -36.841 Q 30.103 -36.841 29.77 -36.64 Q 29.436 -36.44 29.182 -36.244 L 29.182 -33.696 Q 29.182 -33.333 29.226 -33.132 Q 29.27 -32.931 29.441 -32.858 Q 29.613 -32.784 29.975 -32.784 L 29.975 -32.422 L 27.418 -32.422 L 27.418 -32.784 Q 27.79 -32.784 27.962 -32.858 Q 28.133 -32.931 28.182 -33.132 Q 28.231 -33.333 28.231 -33.696 L 28.231 -35.763 Q 28.231 -36.381 28.011 -36.611 Q 27.79 -36.841 27.408 -36.841 Q 27.006 -36.841 26.639 -36.626 Q 26.271 -36.41 26.046 -36.214 Z " fill="black" /><path d="M 36.254 -42.026 L 36.254 -42.026 L 36.562 -42.026 L 35.904 -39.338 Q 35.806 -38.974 35.701 -38.463 Q 35.596 -37.952 35.596 -37.476 Q 35.596 -36.93 35.82 -36.531 Q 36.044 -36.132 36.688 -36.132 Q 37.402 -36.132 37.92 -36.475 Q 38.438 -36.818 38.767 -37.35 Q 39.096 -37.882 39.257 -38.47 Q 39.418 -39.058 39.418 -39.548 Q 39.418 -39.912 39.292 -40.178 Q 39.166 -40.444 38.991 -40.654 Q 38.816 -40.864 38.69 -41.06 Q 38.564 -41.256 38.564 -41.48 Q 38.564 -41.76 38.718 -41.914 Q 38.872 -42.068 39.096 -42.068 Q 39.572 -42.068 39.866 -41.592 Q 40.16 -41.116 40.16 -40.374 Q 40.16 -39.73 39.999 -39.023 Q 39.838 -38.316 39.516 -37.644 Q 39.194 -36.972 38.718 -36.426 Q 38.242 -35.88 37.626 -35.558 Q 37.01 -35.236 36.254 -35.236 Q 35.554 -35.236 35.162 -35.516 Q 34.77 -35.796 34.609 -36.258 Q 34.448 -36.72 34.448 -37.252 Q 34.448 -37.756 34.546 -38.288 Q 34.644 -38.82 34.756 -39.254 L 35.036 -40.318 Q 35.064 -40.43 35.12 -40.654 Q 35.176 -40.878 35.176 -41.088 Q 35.176 -41.27 35.106 -41.396 Q 35.036 -41.522 34.84 -41.522 Q 34.672 -41.522 34.434 -41.501 Q 34.196 -41.48 34.196 -41.48 L 34.196 -41.872 Z " fill="black" /><path d="M 41.591 -34.391 L 41.591 -34.391 L 41.591 -34.431 Q 41.248 -34.636 41.008 -34.965 Q 40.768 -35.293 40.768 -35.812 Q 40.768 -36.361 41.033 -36.753 Q 41.297 -37.145 41.748 -37.356 Q 42.199 -37.567 42.757 -37.567 Q 43.277 -37.567 43.605 -37.454 Q 43.933 -37.341 43.933 -37.341 L 45.374 -37.38 L 45.374 -36.802 L 44.345 -36.822 L 44.345 -36.753 Q 44.472 -36.577 44.61 -36.337 Q 44.747 -36.097 44.747 -35.665 Q 44.747 -35.175 44.487 -34.818 Q 44.227 -34.46 43.791 -34.269 Q 43.355 -34.078 42.806 -34.078 Q 42.307 -34.078 41.866 -34.254 Q 41.797 -34.127 41.704 -33.892 Q 41.611 -33.656 41.611 -33.49 Q 41.611 -33.284 41.851 -33.186 Q 42.091 -33.088 42.806 -33.088 Q 43.336 -33.088 43.786 -33.063 Q 44.237 -33.039 44.57 -32.926 Q 44.904 -32.814 45.085 -32.564 Q 45.266 -32.314 45.266 -31.853 Q 45.266 -31.324 44.997 -30.956 Q 44.727 -30.589 44.286 -30.364 Q 43.845 -30.138 43.331 -30.035 Q 42.816 -29.932 42.316 -29.932 Q 41.601 -29.932 41.209 -30.109 Q 40.817 -30.285 40.665 -30.56 Q 40.513 -30.834 40.513 -31.118 Q 40.513 -31.393 40.704 -31.662 Q 40.895 -31.932 41.317 -32.324 L 41.317 -32.373 Q 41.072 -32.5 40.905 -32.716 Q 40.739 -32.931 40.739 -33.137 Q 40.739 -33.431 40.998 -33.759 Q 41.258 -34.088 41.591 -34.391 Z M 41.64 -32.275 L 41.64 -32.275 Q 41.474 -31.99 41.415 -31.824 Q 41.356 -31.657 41.356 -31.491 Q 41.356 -31.04 41.724 -30.809 Q 42.091 -30.579 42.865 -30.579 Q 43.502 -30.579 43.894 -30.736 Q 44.286 -30.893 44.472 -31.113 Q 44.659 -31.334 44.659 -31.54 Q 44.659 -31.804 44.487 -31.951 Q 44.316 -32.098 44.051 -32.162 Q 43.786 -32.226 43.492 -32.245 Q 43.198 -32.265 42.944 -32.265 Q 42.875 -32.265 42.836 -32.265 Q 42.209 -32.265 41.978 -32.27 Q 41.748 -32.275 41.64 -32.275 Z M 42.699 -37.135 L 42.699 -37.135 Q 42.277 -37.135 42.018 -36.851 Q 41.758 -36.567 41.758 -35.871 Q 41.758 -35.185 42.032 -34.832 Q 42.307 -34.48 42.806 -34.48 Q 43.071 -34.48 43.287 -34.587 Q 43.502 -34.695 43.635 -34.979 Q 43.767 -35.264 43.767 -35.783 Q 43.767 -36.449 43.478 -36.792 Q 43.189 -37.135 42.699 -37.135 Z " fill="black" /><path d="M 46.236 -34.205 L 46.236 -34.205 L 46.55 -34.205 Q 46.677 -33.637 46.854 -33.323 Q 47.03 -33.01 47.309 -32.887 Q 47.589 -32.765 47.991 -32.765 Q 48.451 -32.765 48.701 -32.916 Q 48.951 -33.068 48.951 -33.451 Q 48.951 -33.705 48.829 -33.877 Q 48.706 -34.048 48.437 -34.205 Q 48.167 -34.362 47.716 -34.568 Q 47.256 -34.793 46.927 -34.989 Q 46.599 -35.185 46.428 -35.45 Q 46.256 -35.714 46.256 -36.116 Q 46.256 -36.822 46.731 -37.194 Q 47.207 -37.567 47.922 -37.567 Q 48.353 -37.567 48.652 -37.459 Q 48.951 -37.351 49.127 -37.273 L 49.147 -37.273 L 49.304 -37.518 L 49.578 -37.518 L 49.598 -35.891 L 49.255 -35.891 Q 49.069 -36.645 48.735 -36.905 Q 48.402 -37.165 47.971 -37.165 Q 47.52 -37.165 47.29 -36.969 Q 47.06 -36.773 47.06 -36.459 Q 47.06 -36.204 47.216 -36.038 Q 47.373 -35.871 47.662 -35.729 Q 47.951 -35.587 48.353 -35.391 Q 48.804 -35.175 49.147 -34.945 Q 49.49 -34.715 49.686 -34.426 Q 49.882 -34.137 49.882 -33.705 Q 49.882 -33.186 49.608 -32.872 Q 49.333 -32.559 48.902 -32.426 Q 48.471 -32.294 48 -32.294 Q 47.52 -32.294 47.256 -32.392 Q 46.991 -32.49 46.766 -32.578 L 46.726 -32.578 L 46.481 -32.324 L 46.256 -32.324 Z " fill="black" /></g></g></g><circle cx="144.0" cy="-72.0" r="2.6999999999999997" style="stroke:black;fill:black;stroke-width:2.0;stroke-dasharray:-;" /><circle cx="198.0" cy="-72.0" r="2.6999999999999997" style="stroke:black;fill:white;stroke-width:2.0;stroke-dasharray:-;" /><g><g><g><path d="M 205.588 -67.401 L 205.588 -67.401 L 205.588 -76.599 L 207.94 -76.599 Q 210.11 -76.599 211.244 -75.416 Q 212.378 -74.233 212.378 -72.035 Q 212.378 -69.837 211.251 -68.619 Q 210.124 -67.401 207.996 -67.401 Z M 206.792 -68.381 L 206.792 -68.381 L 207.856 -68.381 Q 209.508 -68.381 210.327 -69.34 Q 211.146 -70.299 211.146 -72.035 Q 211.146 -73.771 210.327 -74.695 Q 209.508 -75.619 207.856 -75.619 L 206.792 -75.619 Z " fill="black" /></g></g></g><g><g><g><path d="M 120.21 -4.76 L 120.21 -4.76 L 120.126 -4.046 L 118.908 -4.186 L 118.908 -4.144 Q 119.146 -3.878 119.279 -3.479 Q 119.412 -3.08 119.412 -2.716 Q 119.412 -2.086 119.16 -1.659 Q 118.908 -1.232 118.502 -0.973 Q 118.096 -0.714 117.606 -0.581 Q 117.116 -0.448 116.654 -0.406 Q 116.094 -0.35 115.863 -0.168 Q 115.632 0.014 115.632 0.21 Q 115.632 0.462 115.912 0.595 Q 116.192 0.728 116.633 0.812 Q 117.074 0.896 117.578 1.001 Q 118.082 1.106 118.523 1.288 Q 118.964 1.47 119.244 1.799 Q 119.524 2.128 119.524 2.674 Q 119.524 3.276 119.132 3.787 Q 118.74 4.298 117.97 4.613 Q 117.2 4.928 116.08 4.928 Q 115.072 4.928 114.47 4.683 Q 113.868 4.438 113.602 4.053 Q 113.336 3.668 113.336 3.248 Q 113.336 2.576 113.854 2.163 Q 114.372 1.75 115.03 1.54 L 115.03 1.484 Q 114.848 1.372 114.687 1.169 Q 114.526 0.966 114.526 0.644 Q 114.526 0.294 114.708 0.084 Q 114.89 -0.126 115.177 -0.259 Q 115.464 -0.392 115.744 -0.49 L 115.744 -0.574 Q 115.198 -0.812 114.792 -1.246 Q 114.386 -1.68 114.386 -2.478 Q 114.386 -3.206 114.736 -3.759 Q 115.086 -4.312 115.695 -4.62 Q 116.304 -4.928 117.06 -4.928 Q 117.564 -4.928 117.823 -4.879 Q 118.082 -4.83 118.334 -4.76 Z M 118.516 3.192 L 118.516 3.192 Q 118.516 2.772 118.166 2.513 Q 117.816 2.254 117.298 2.1 Q 116.78 1.946 116.255 1.855 Q 115.73 1.764 115.366 1.694 Q 115.016 1.918 114.722 2.205 Q 114.428 2.492 114.428 3.038 Q 114.428 3.598 114.862 4.018 Q 115.296 4.438 116.36 4.438 Q 117.368 4.438 117.942 4.067 Q 118.516 3.696 118.516 3.192 Z M 118.166 -2.87 L 118.166 -2.87 Q 118.166 -3.57 117.9 -4.039 Q 117.634 -4.508 117.018 -4.508 Q 116.416 -4.508 116.024 -4.004 Q 115.632 -3.5 115.632 -2.478 Q 115.632 -1.75 115.884 -1.295 Q 116.136 -0.84 116.738 -0.84 Q 117.438 -0.84 117.802 -1.428 Q 118.166 -2.016 118.166 -2.87 Z " fill="black" /><path d="M 126.198 4.591 L 126.198 4.591 L 124.875 4.767 L 124.522 4.767 L 124.522 4.081 L 124.453 4.081 Q 124.13 4.355 123.723 4.581 Q 123.316 4.806 122.807 4.806 Q 122.229 4.806 121.822 4.493 Q 121.415 4.179 121.2 3.63 Q 120.984 3.081 120.984 2.386 Q 120.984 1.513 121.322 0.881 Q 121.66 0.249 122.224 -0.089 Q 122.787 -0.427 123.454 -0.427 Q 124.032 -0.427 124.502 -0.162 L 124.502 -1.427 Q 124.502 -1.779 124.429 -1.892 Q 124.355 -2.005 124.042 -2.005 Q 123.973 -2.005 123.86 -1.99 Q 123.748 -1.975 123.748 -1.975 L 123.748 -2.348 L 125.051 -2.603 L 125.453 -2.603 L 125.453 3.611 Q 125.453 3.993 125.561 4.106 Q 125.668 4.218 125.933 4.218 L 126.198 4.218 Z M 124.502 3.63 L 124.502 3.63 L 124.502 0.769 Q 124.394 0.494 124.144 0.279 Q 123.895 0.063 123.434 0.063 Q 122.777 0.063 122.356 0.509 Q 121.935 0.955 121.935 1.984 Q 121.935 3.032 122.302 3.518 Q 122.67 4.003 123.336 4.003 Q 123.65 4.003 123.909 3.914 Q 124.169 3.826 124.502 3.63 Z " fill="black" /><path d="M 127.236 2.934 L 127.236 2.934 L 127.55 2.934 Q 127.677 3.503 127.854 3.816 Q 128.03 4.13 128.309 4.253 Q 128.589 4.375 128.991 4.375 Q 129.451 4.375 129.701 4.223 Q 129.951 4.071 129.951 3.689 Q 129.951 3.434 129.828 3.263 Q 129.706 3.091 129.436 2.934 Q 129.167 2.778 128.716 2.572 Q 128.256 2.346 127.927 2.15 Q 127.599 1.954 127.427 1.69 Q 127.256 1.425 127.256 1.023 Q 127.256 0.318 127.731 -0.055 Q 128.207 -0.427 128.922 -0.427 Q 129.353 -0.427 129.652 -0.319 Q 129.951 -0.211 130.127 -0.133 L 130.147 -0.133 L 130.304 -0.378 L 130.578 -0.378 L 130.598 1.249 L 130.255 1.249 Q 130.069 0.494 129.735 0.235 Q 129.402 -0.025 128.971 -0.025 Q 128.52 -0.025 128.29 0.171 Q 128.06 0.367 128.06 0.68 Q 128.06 0.935 128.216 1.102 Q 128.373 1.268 128.662 1.411 Q 128.951 1.553 129.353 1.749 Q 129.804 1.964 130.147 2.195 Q 130.49 2.425 130.686 2.714 Q 130.882 3.003 130.882 3.434 Q 130.882 3.954 130.608 4.267 Q 130.333 4.581 129.902 4.713 Q 129.471 4.845 129 4.845 Q 128.52 4.845 128.256 4.747 Q 127.991 4.649 127.766 4.561 L 127.726 4.561 L 127.481 4.816 L 127.256 4.816 Z " fill="black" /></g></g></g></svg>