<svg xmlns="http://www.w3.org/2000/svg" xmlns:xlink="http://www.w3.org/1999/xlink" xml:lang="en" height="355.71199999999993pt" width="613.9495999999999pt" viewBox="-222.50879999999998 -118.072 613.9495999999999 355.71199999999993"><circle cx="-174.00000000000003" cy="-12.000000000000053" r="18.0" style="stroke:black;fill:none;stroke-width:2.0;stroke-dasharray:-;" /><path d="M 0.0,59.99999999999999 L 0.0,45.0 L -14.999999999999998,45.0 L -14.999999999999998,14.999999999999998 L 0.0,14.999999999999998 L 0.0,-0.0" style="stroke:black;fill:none;stroke-width:2.0;stroke-dasharray:-;stroke-linecap:round;stroke-linejoin:round;" /><path d="M -9.0,45.0 L -14.999999999999998,45.0" style="stroke:black;fill:none;stroke-width:2.0;stroke-dasharray:-;stroke-linecap:round;stroke-linejoin:round;" /><path d="M -2.0 45.0 L -9.0 49.5 L -9.0 40.5 Z" style="stroke:black;fill:black;stroke-linecap:butt;stroke-linejoin:miter;" /><path d="M -17.999999999999996,42.0 L -17.999999999999996,17.999999999999996" style="stroke:black;fill:none;stroke-width:2.0;stroke-dasharray:-;stroke-linecap:round;stroke-linejoin:round;" /><path d="M -32.99999999999999,29.999999999999996 L -17.999999999999996,29.999999999999996" style="stroke:black;fill:none;stroke-width:2.0;stroke-dasharray:-;stroke-linecap:round;stroke-linejoin:round;" /><path d="M 0.0,59.99999999999999 L -1.6532731788489267e-15,69.0 L -3.3065463576978533e-15,78.0" style="stroke:black;fill:none;stroke-width:2.0;stroke-dasharray:-;stroke-linecap:round;stroke-linejoin:round;" /><path d="M -3.3065463576978533e-15,78.0 L 26.999999999999996,78.0 L 54.0,78.0" style="stroke:black;fill:none;stroke-width:2.0;stroke-dasharray:-;stroke-linecap:round;stroke-linejoin:round;" /><path d="M 54.0,78.0 L 53.99999999999999,114.0 L 53.999999999999986,149.99999999999997" style="stroke:black;fill:none;stroke-width:2.0;stroke-dasharray:-;stroke-linecap:round;stroke-linejoin:round;" /><path d="M 53.999999999999986,209.99999999999994 L 53.999999999999986,194.99999999999997 L 38.999999999999986,194.99999999999997 L 38.999999999999986,165.0 L 53.999999999999986,165.0 L 53.999999999999986,149.99999999999997" style="stroke:black;fill:none;stroke-width:2.0;stroke-dasharray:-;stroke-linecap:round;stroke-linejoin:round;" /><path d="M 44.999999999999986,194.99999999999997 L 38.999999999999986,194.99999999999997" style="stroke:black;fill:none;stroke-width:2.0;stroke-dasharray:-;stroke-linecap:round;stroke-linejoin:round;" /><path d="M 51.999999999999986 194.99999999999997 L 44.999999999999986 199.49999999999997 L 44.999999999999986 190.49999999999997 Z" style="stroke:black;fill:black;stroke-linecap:butt;stroke-linejoin:miter;" /><path d="M 35.999999999999986,192.0 L 35.999999999999986,167.99999999999997" style="stroke:black;fill:none;stroke-width:2.0;stroke-dasharray:-;stroke-linecap:round;stroke-linejoin:round;" /><path d="M 20.99999999999999,179.99999999999997 L 35.999999999999986,179.99999999999997" style="stroke:black;fill:none;stroke-width:2.0;stroke-dasharray:-;stroke-linecap:round;stroke-linejoin:round;" /><path d="M 53.999999999999986,209.99999999999994 L 53.999999999999986,224.39999999999998 L 44.999999999999986,224.39999999999998 L 62.999999999999986,224.39999999999998 M 47.69999999999998,228.71999999999994 L 60.29999999999998,228.71999999999994 M 52.19999999999998,233.03999999999994 L 55.79999999999998,233.03999999999994" style="stroke:black;fill:none;stroke-width:2.0;stroke-dasharray:-;stroke-linecap:round;stroke-linejoin:round;" /><path d="M 20.99999999999999,179.99999999999997 L -60.000000000000014,179.99999999999997 L -141.0,179.99999999999994" style="stroke:black;fill:none;stroke-width:2.0;stroke-dasharray:-;stroke-linecap:round;stroke-linejoin:round;" /><path d="M -174.00000000000003,149.99999999999994 L -174.00000000000003,164.99999999999991 L -159.0,164.99999999999991 L -159.0,194.99999999999994 L -174.00000000000003,194.99999999999994 L -174.00000000000003,209.99999999999991" style="stroke:black;fill:none;stroke-width:2.0;stroke-dasharray:-;stroke-linecap:round;stroke-linejoin:round;" /><path d="M -159.0,194.99999999999994 L -165.00000000000003,194.99999999999994" style="stroke:black;fill:none;stroke-width:2.0;stroke-dasharray:-;stroke-linecap:round;stroke-linejoin:round;" /><path d="M -172.00000000000003 194.99999999999994 L -165.00000000000003 190.49999999999994 L -165.00000000000003 199.49999999999994 Z" style="stroke:black;fill:black;stroke-linecap:butt;stroke-linejoin:miter;" /><path d="M -156.00000000000003,167.99999999999994 L -156.00000000000003,191.99999999999994" style="stroke:black;fill:none;stroke-width:2.0;stroke-dasharray:-;stroke-linecap:round;stroke-linejoin:round;" /><path d="M -156.00000000000003,179.99999999999994 L -141.0,179.99999999999994" style="stroke:black;fill:none;stroke-width:2.0;stroke-dasharray:-;stroke-linecap:round;stroke-linejoin:round;" /><path d="M -174.00000000000003,209.99999999999991 L -174.00000000000003,224.39999999999995 L -183.00000000000003,224.39999999999995 L -165.00000000000003,224.39999999999995 M -180.3,228.71999999999994 L -167.70000000000002,228.71999999999994 M -175.8,233.0399999999999 L -172.20000000000002,233.0399999999999" style="stroke:black;fill:none;stroke-width:2.0;stroke-dasharray:-;stroke-linecap:round;stroke-linejoin:round;" /><path d="M -174.00000000000003,149.99999999999994 L -174.00000000000003,86.99999999999994 L -174.00000000000003,23.999999999999947" style="stroke:black;fill:none;stroke-width:2.0;stroke-dasharray:-;stroke-linecap:round;stroke-linejoin:round;" /><path d="M -174.00000000000003,23.999999999999947 L -174.00000000000003,5.999999999999947 L -174.00000000000003,5.999999999999947 M -174.00000000000003,-30.000000000000053 L -174.00000000000003,-30.000000000000053 L -174.00000000000003,-48.00000000000006" style="stroke:black;fill:none;stroke-width:2.0;stroke-dasharray:-;stroke-linecap:round;stroke-linejoin:round;" /><path d="M -174.00000000000003,-12.000000000000053 L -174.00000000000003,-21.000000000000053" style="stroke:black;fill:none;stroke-width:2.0;stroke-dasharray:-;stroke-linecap:round;stroke-linejoin:round;" /><path d="M -174.00000000000003 -5.000000000000053 L -176.70000000000002 -12.000000000000053 L -171.30000000000004 -12.000000000000053 Z" style="stroke:black;fill:black;stroke-linecap:butt;stroke-linejoin:miter;" /><path d="M -141.0,179.99999999999994 L -132.0,179.99999999999994 L -123.00000000000001,179.99999999999994" style="stroke:black;fill:none;stroke-width:2.0;stroke-dasharray:-;stroke-linecap:round;stroke-linejoin:round;" /><path d="M -123.00000000000001,179.99999999999994 L -123.00000000000001,161.99999999999994 L -123.00000000000001,143.99999999999994" style="stroke:black;fill:none;stroke-width:2.0;stroke-dasharray:-;stroke-linecap:round;stroke-linejoin:round;" /><path d="M -123.00000000000001,143.99999999999994 L -148.5,143.99999999999994 L -174.00000000000003,143.99999999999994" style="stroke:black;fill:none;stroke-width:2.0;stroke-dasharray:-;stroke-linecap:round;stroke-linejoin:round;" /><path d="M 54.0,78.0 L 81.0,78.0 L 108.0,78.0" style="stroke:black;fill:none;stroke-width:2.0;stroke-dasharray:-;stroke-linecap:round;stroke-linejoin:round;" /><path d="M 108.0,78.0 L 108.0,69.0 L 108.0,59.99999999999999" style="stroke:black;fill:none;stroke-width:2.0;stroke-dasharray:-;stroke-linecap:round;stroke-linejoin:round;" /><path d="M 108.0,-0.0 L 108.0,14.999999999999995 L 123.0,14.999999999999995 L 123.0,45.0 L 108.0,45.0 L 108.0,59.99999999999999" style="stroke:black;fill:none;stroke-width:2.0;stroke-dasharray:-;stroke-linecap:round;stroke-linejoin:round;" /><path d="M 123.0,45.0 L 117.0,45.0" style="stroke:black;fill:none;stroke-width:2.0;stroke-dasharray:-;stroke-linecap:round;stroke-linejoin:round;" /><path d="M 110.0 45.0 L 117.0 40.5 L 117.0 49.5 Z" style="stroke:black;fill:black;stroke-linecap:butt;stroke-linejoin:miter;" /><path d="M 126.0,18.0 L 126.0,42.0" style="stroke:black;fill:none;stroke-width:2.0;stroke-dasharray:-;stroke-linecap:round;stroke-linejoin:round;" /><path d="M 126.0,29.999999999999996 L 141.0,29.999999999999996" style="stroke:black;fill:none;stroke-width:2.0;stroke-dasharray:-;stroke-linecap:round;stroke-linejoin:round;" /><path d="M 141.0,29.999999999999996 L 149.99999999999997,29.999999999999996 L 158.99999999999997,29.999999999999996" style="stroke:black;fill:none;stroke-width:2.0;stroke-dasharray:-;stroke-linecap:round;stroke-linejoin:round;" /><path d="M 0.0,-0.0 L 5.51091059616309e-16,-9.0 L 1.102182119232618e-15,-18.0" style="stroke:black;fill:none;stroke-width:2.0;stroke-dasharray:-;stroke-linecap:round;stroke-linejoin:round;" /><path d="M 1.102182119232618e-15,-18.0 L 1.6532731788489267e-15,-27.0 L 2.204364238465236e-15,-36.0" style="stroke:black;fill:none;stroke-width:2.0;stroke-dasharray:-;stroke-linecap:round;stroke-linejoin:round;" /><path d="M 2.204364238465236e-15,-96.0 L 2.204364238465236e-15,-81.0 L 15.0,-81.0 L 15.0,-50.99999999999999 L 2.204364238465236e-15,-50.99999999999999 L 2.204364238465236e-15,-36.0" style="stroke:black;fill:none;stroke-width:2.0;stroke-dasharray:-;stroke-linecap:round;stroke-linejoin:round;" /><path d="M 2.204364238465236e-15,-81.0 L 6.000000000000001,-81.0" style="stroke:black;fill:none;stroke-width:2.0;stroke-dasharray:-;stroke-linecap:round;stroke-linejoin:round;" /><path d="M 13.0 -81.0 L 6.0 -76.5 L 6.0 -85.5 Z" style="stroke:black;fill:black;stroke-linecap:butt;stroke-linejoin:miter;" /><path d="M 18.0,-78.0 L 18.0,-53.99999999999999" style="stroke:black;fill:none;stroke-width:2.0;stroke-dasharray:-;stroke-linecap:round;stroke-linejoin:round;" /><path d="M 18.0,-66.0 L 33.0,-66.0" style="stroke:black;fill:none;stroke-width:2.0;stroke-dasharray:-;stroke-linecap:round;stroke-linejoin:round;" /><path d="M 108.0,-0.0 L 108.0,-9.0 L 108.0,-18.0" style="stroke:black;fill:none;stroke-width:2.0;stroke-dasharray:-;stroke-linecap:round;stroke-linejoin:round;" /><path d="M 108.0,-18.0 L 171.0,-18.0 L 234.0,-18.0" style="stroke:black;fill:none;stroke-width:2.0;stroke-dasharray:-;stroke-linecap:round;stroke-linejoin:round;" /><path d="M 234.0,-18.0 L 261.0,-18.0 L 288.0,-18.0" style="stroke:black;fill:none;stroke-width:2.0;stroke-dasharray:-;stroke-linecap:round;stroke-linejoin:round;" /><path d="M 321.0,11.999999999999996 L 321.0,-2.9999999999999973 L 306.0,-2.9999999999999973 L 306.0,-33.0 L 321.0,-33.0 L 321.0,-48.0" style="stroke:black;fill:none;stroke-width:2.0;stroke-dasharray:-;stroke-linecap:round;stroke-linejoin:round;" /><path d="M 315.0,-33.0 L 321.0,-33.0" style="stroke:black;fill:none;stroke-width:2.0;stroke-dasharray:-;stroke-linecap:round;stroke-linejoin:round;" /><path d="M 308.0 -33.0 L 315.0 -37.5 L 315.0 -28.5 Z" style="stroke:black;fill:black;stroke-linecap:butt;stroke-linejoin:miter;" /><path d="M 303.0,-5.999999999999995 L 303.0,-29.999999999999996" style="stroke:black;fill:none;stroke-width:2.0;stroke-dasharray:-;stroke-linecap:round;stroke-linejoin:round;" /><path d="M 288.0,-18.0 L 303.0,-18.0" style="stroke:black;fill:none;stroke-width:2.0;stroke-dasharray:-;stroke-linecap:round;stroke-linejoin:round;" /><path d="M 321.0,11.999999999999996 L 321.0,29.999999999999996 L 321.0,48.0" style="stroke:black;fill:none;stroke-width:2.0;stroke-dasharray:-;stroke-linecap:round;stroke-linejoin:round;" /><path d="M 321.0,48.0 L 321.0,66.0 L 330.0,69.0 L 312.0,74.99999999999999 L 330.0,81.0 L 312.0,87.0 L 330.0,92.99999999999999 L 312.0,99.0 L 321.0,101.99999999999999 L 321.0,119.99999999999999" style="stroke:black;fill:none;stroke-width:2.0;stroke-dasharray:-;stroke-linecap:round;stroke-linejoin:round;" /><path d="M 321.0,119.99999999999999 L 321.0,138.0 L 330.0,141.0 L 312.0,147.0 L 330.0,153.0 L 312.0,158.99999999999997 L 330.0,165.0 L 312.0,171.0 L 321.0,174.0 L 321.0,192.0" style="stroke:black;fill:none;stroke-width:2.0;stroke-dasharray:-;stroke-linecap:round;stroke-linejoin:round;" /><path d="M 321.0,192.0 L 321.0,206.4 L 312.0,206.4 L 330.0,206.4 M 314.69999999999993,210.72 L 327.3,210.72 M 319.19999999999993,215.03999999999996 L 322.8,215.03999999999996" style="stroke:black;fill:none;stroke-width:2.0;stroke-dasharray:-;stroke-linecap:round;stroke-linejoin:round;" /><path d="M 108.0,-18.0 L 108.0,-27.0 L 108.0,-36.0" style="stroke:black;fill:none;stroke-width:2.0;stroke-dasharray:-;stroke-linecap:round;stroke-linejoin:round;" /><path d="M 108.0,-36.0 L 108.0,-50.99999999999999 L 93.0,-50.99999999999999 L 93.0,-81.0 L 108.0,-81.0 L 108.0,-96.0" style="stroke:black;fill:none;stroke-width:2.0;stroke-dasharray:-;stroke-linecap:round;stroke-linejoin:round;" /><path d="M 102.0,-81.0 L 108.0,-81.0" style="stroke:black;fill:none;stroke-width:2.0;stroke-dasharray:-;stroke-linecap:round;stroke-linejoin:round;" /><path d="M 95.0 -81.0 L 102.0 -85.5 L 102.0 -76.5 Z" style="stroke:black;fill:black;stroke-linecap:butt;stroke-linejoin:miter;" /><path d="M 90.0,-53.99999999999999 L 90.0,-78.0" style="stroke:black;fill:none;stroke-width:2.0;stroke-dasharray:-;stroke-linecap:round;stroke-linejoin:round;" /><path d="M 75.0,-66.0 L 90.0,-66.0" style="stroke:black;fill:none;stroke-width:2.0;stroke-dasharray:-;stroke-linecap:round;stroke-linejoin:round;" /><path d="M 75.0,-66.0 L 54.0,-66.0 L 32.99999999999999,-66.0" style="stroke:black;fill:none;stroke-width:2.0;stroke-dasharray:-;stroke-linecap:round;stroke-linejoin:round;" /><path d="M 321.0,-48.0 L 321.0,-72.0 L 321.0,-96.0" style="stroke:black;fill:none;stroke-width:2.0;stroke-dasharray:-;stroke-linecap:round;stroke-linejoin:round;" /><path d="M 1.102182119232618e-15,-18.0 L 26.999999999999993,-18.0 L 53.999999999999986,-18.0" style="stroke:black;fill:none;stroke-width:2.0;stroke-dasharray:-;stroke-linecap:round;stroke-linejoin:round;" /><path d="M 53.999999999999986,-18.0 L 53.999999999999986,-41.99999999999999 L 53.999999999999986,-66.0" style="stroke:black;fill:none;stroke-width:2.0;stroke-dasharray:-;stroke-linecap:round;stroke-linejoin:round;" /><path d="M 234.0,-18.0 L 234.0,9.0 L 234.0,36.0" style="stroke:black;fill:none;stroke-width:2.0;stroke-dasharray:-;stroke-linecap:round;stroke-linejoin:round;" /><path d="M 234.0,36.0 L 274.26,36.0 M 274.26,27.0 L 274.26,45.0 M 280.74,27.0 L 280.74,45.0 M 280.74,36.0 L 321.0,36.0" style="stroke:black;fill:none;stroke-width:2.0;stroke-dasharray:-;stroke-linecap:round;stroke-linejoin:round;" /><path d="M 321.0,36.0 L 339.0,36.0 L 357.0,36.0" style="stroke:black;fill:none;stroke-width:2.0;stroke-dasharray:-;stroke-linecap:round;stroke-linejoin:round;" /><path d="M 321.0,119.99999999999999 L 144.0,119.99999999999997 L -32.99999999999998,119.99999999999994" style="stroke:black;fill:none;stroke-width:2.0;stroke-dasharray:-;stroke-linecap:round;stroke-linejoin:round;" /><path d="M -32.99999999999998,119.99999999999994 L -41.99999999999998,119.99999999999994 L -50.99999999999998,119.99999999999994" style="stroke:black;fill:none;stroke-width:2.0;stroke-dasharray:-;stroke-linecap:round;stroke-linejoin:round;" /><path d="M -50.99999999999998,119.99999999999994 L -50.99999999999998,74.99999999999997 L -50.99999999999997,30.000000000000007" style="stroke:black;fill:none;stroke-width:2.0;stroke-dasharray:-;stroke-linecap:round;stroke-linejoin:round;" /><path d="M -50.99999999999997,30.000000000000007 L -41.99999999999998,30.000000000000007 L -32.99999999999999,30.000000000000007" style="stroke:black;fill:none;stroke-width:2.0;stroke-dasharray:-;stroke-linecap:round;stroke-linejoin:round;" /><path d="M -174.00000000000003,-48.00000000000006 L -174.00000000000003,-72.00000000000003 L -174.00000000000003,-96.0" style="stroke:black;fill:none;stroke-width:2.0;stroke-dasharray:-;stroke-linecap:round;stroke-linejoin:round;" /><path d="M -192.00000000000003,-96.0 L 73.49999999999997,-96.0 L 339.0,-96.0" style="stroke:black;fill:none;stroke-width:3;stroke-dasharray:-;stroke-linecap:round;stroke-linejoin:round;" /><g><g><g><path d="M 12.883 33.576 L 12.883 33.576 L 8.611 33.576 L 8.707 33.096 Q 9.299 33.096 9.611 32.984 Q 9.923 32.872 10.083 32.56 Q 10.243 32.248 10.355 31.672 L 11.779 24.76 L 11.715 24.76 L 6.339 33.576 L 5.987 33.576 L 4.051 24.776 L 3.987 24.776 L 2.659 31.24 Q 2.499 32.056 2.523 32.456 Q 2.547 32.856 2.835 32.976 Q 3.123 33.096 3.731 33.096 L 3.635 33.576 L -0.061 33.576 L 0.035 33.096 Q 0.659 33.096 0.995 32.976 Q 1.331 32.856 1.523 32.456 Q 1.715 32.056 1.875 31.24 L 3.139 25.016 Q 3.267 24.408 3.219 24.096 Q 3.171 23.784 2.875 23.664 Q 2.579 23.544 1.939 23.544 L 2.035 23.064 L 5.235 23.064 L 6.963 31.16 L 7.027 31.16 L 11.907 23.064 L 14.931 23.064 L 14.835 23.544 Q 14.275 23.544 13.947 23.664 Q 13.619 23.784 13.443 24.096 Q 13.267 24.408 13.139 25 L 11.779 31.672 Q 11.603 32.552 11.867 32.824 Q 12.131 33.096 12.979 33.096 Z " fill="black" /><path d="M 19.77 36.936 L 19.77 36.936 L 15.973 36.936 L 15.973 36.533 Q 16.779 36.533 17.042 36.37 Q 17.306 36.208 17.306 35.782 L 17.306 30.899 Q 17.306 30.597 17.216 30.462 Q 17.126 30.328 16.891 30.328 Q 16.712 30.328 16.404 30.378 Q 16.096 30.429 15.872 30.485 L 15.872 30.037 L 17.944 29.466 L 18.426 29.466 L 18.426 35.782 Q 18.426 36.208 18.711 36.37 Q 18.997 36.533 19.77 36.533 Z " fill="black" /></g></g></g><circle cx="54.0" cy="78.0" r="2.6999999999999997" style="stroke:black;fill:black;stroke-width:2.0;stroke-dasharray:-;" /><g><g><g><path d="M 66.491 183.498 L 66.491 183.498 L 62.219 183.498 L 62.315 183.018 Q 62.907 183.018 63.219 182.906 Q 63.531 182.794 63.691 182.482 Q 63.851 182.17 63.963 181.594 L 65.387 174.682 L 65.323 174.682 L 59.947 183.498 L 59.595 183.498 L 57.659 174.698 L 57.595 174.698 L 56.267 181.162 Q 56.107 181.978 56.131 182.378 Q 56.155 182.778 56.443 182.898 Q 56.731 183.018 57.339 183.018 L 57.243 183.498 L 53.547 183.498 L 53.643 183.018 Q 54.267 183.018 54.603 182.898 Q 54.939 182.778 55.131 182.378 Q 55.323 181.978 55.483 181.162 L 56.747 174.938 Q 56.875 174.33 56.827 174.018 Q 56.779 173.706 56.483 173.586 Q 56.187 173.466 55.547 173.466 L 55.643 172.986 L 58.843 172.986 L 60.571 181.082 L 60.635 181.082 L 65.515 172.986 L 68.539 172.986 L 68.443 173.466 Q 67.883 173.466 67.555 173.586 Q 67.227 173.706 67.051 174.018 Q 66.875 174.33 66.747 174.922 L 65.387 181.594 Q 65.211 182.474 65.475 182.746 Q 65.739 183.018 66.587 183.018 Z " fill="black" /><path d="M 73.59 179.331 L 73.59 179.331 L 73.602 179.701 Q 72.784 179.802 72.095 180.188 Q 71.406 180.574 70.93 181.213 Q 70.454 181.851 70.286 182.714 L 70.376 182.725 Q 70.746 182.389 71.11 182.176 Q 71.474 181.963 71.955 181.963 Q 72.594 181.963 73.081 182.266 Q 73.568 182.568 73.848 183.128 Q 74.128 183.688 74.128 184.483 Q 74.128 185.682 73.462 186.348 Q 72.795 187.014 71.664 187.014 Q 70.79 187.014 70.225 186.6 Q 69.659 186.186 69.385 185.463 Q 69.11 184.741 69.11 183.8 Q 69.11 182.355 69.698 181.37 Q 70.286 180.384 71.3 179.869 Q 72.314 179.354 73.59 179.331 Z M 73.03 184.562 L 73.03 184.562 Q 73.03 183.733 72.666 183.234 Q 72.302 182.736 71.586 182.736 Q 71.037 182.736 70.639 183.044 Q 70.242 183.352 70.242 184.114 Q 70.242 185.222 70.606 185.872 Q 70.97 186.522 71.731 186.522 Q 72.336 186.522 72.683 186.085 Q 73.03 185.648 73.03 184.562 Z " fill="black" /></g></g></g><g><g><g><path d="M -185.638 183.503 L -185.638 183.503 L -189.91 183.503 L -189.814 183.023 Q -189.222 183.023 -188.91 182.911 Q -188.598 182.799 -188.438 182.487 Q -188.278 182.175 -188.166 181.599 L -186.742 174.687 L -186.806 174.687 L -192.182 183.503 L -192.534 183.503 L -194.47 174.703 L -194.534 174.703 L -195.862 181.167 Q -196.022 181.983 -195.998 182.383 Q -195.974 182.783 -195.686 182.903 Q -195.398 183.023 -194.79 183.023 L -194.886 183.503 L -198.582 183.503 L -198.486 183.023 Q -197.862 183.023 -197.526 182.903 Q -197.19 182.783 -196.998 182.383 Q -196.806 181.983 -196.646 181.167 L -195.382 174.943 Q -195.254 174.335 -195.302 174.023 Q -195.35 173.711 -195.646 173.591 Q -195.942 173.471 -196.582 173.471 L -196.486 172.991 L -193.286 172.991 L -191.558 181.087 L -191.494 181.087 L -186.614 172.991 L -183.59 172.991 L -183.686 173.471 Q -184.246 173.471 -184.574 173.591 Q -184.902 173.711 -185.078 174.023 Q -185.254 174.335 -185.382 174.927 L -186.742 181.599 Q -186.918 182.479 -186.654 182.751 Q -186.39 183.023 -185.542 183.023 Z " fill="black" /><path d="M -178.942 180.502 L -178.942 180.502 L -181.72 180.502 L -181.966 181.857 L -181.474 181.879 Q -180.958 181.89 -180.449 182.019 Q -179.939 182.148 -179.514 182.422 Q -179.088 182.697 -178.83 183.162 Q -178.573 183.626 -178.573 184.321 Q -178.573 185.25 -178.982 185.844 Q -179.39 186.438 -180.107 186.723 Q -180.824 187.009 -181.776 187.009 Q -182.47 187.009 -182.795 186.835 Q -183.12 186.662 -183.12 186.326 Q -183.12 186.113 -182.991 185.95 Q -182.862 185.788 -182.638 185.788 Q -182.414 185.788 -182.179 185.939 Q -181.944 186.09 -181.67 186.242 Q -181.395 186.393 -181.037 186.393 Q -180.622 186.393 -180.27 186.23 Q -179.917 186.068 -179.693 185.721 Q -179.469 185.374 -179.469 184.802 Q -179.469 184.086 -179.766 183.671 Q -180.062 183.257 -180.628 183.078 Q -181.194 182.898 -181.989 182.876 Q -182.235 182.876 -182.342 182.876 Q -182.448 182.876 -182.549 182.865 L -182.717 182.697 L -182.056 179.516 L -178.797 179.516 Z " fill="black" /></g></g></g><g><g><g><path d="M -223.032 -10.593 L -223.032 -10.593 L -221.72 -16.897 Q -221.576 -17.521 -221.584 -17.881 Q -221.592 -18.241 -221.88 -18.385 Q -222.168 -18.529 -222.904 -18.529 L -222.808 -19.009 L -218.376 -19.009 L -218.472 -18.529 Q -219.176 -18.529 -219.528 -18.385 Q -219.88 -18.241 -220.024 -17.881 Q -220.168 -17.521 -220.296 -16.897 L -221.608 -10.529 Q -221.656 -10.273 -221.688 -10.065 Q -221.72 -9.857 -221.72 -9.681 Q -221.72 -9.233 -221.456 -9.105 Q -221.192 -8.977 -220.44 -8.977 L -220.536 -8.497 L -224.904 -8.497 L -224.808 -8.977 Q -224.152 -8.977 -223.824 -9.089 Q -223.496 -9.201 -223.336 -9.545 Q -223.176 -9.889 -223.032 -10.593 Z " fill="black" /><path d="M -216.035 -13.503 L -216.035 -13.503 L -216.035 -10.031 L -215.979 -10.031 Q -215.654 -10.412 -215.212 -10.714 Q -214.77 -11.017 -214.142 -11.017 Q -213.56 -11.017 -213.084 -10.664 Q -212.608 -10.311 -212.322 -9.69 Q -212.037 -9.068 -212.037 -8.262 Q -212.037 -7.186 -212.429 -6.458 Q -212.821 -5.73 -213.498 -5.366 Q -214.176 -5.002 -215.038 -5.002 Q -215.542 -5.002 -215.968 -5.086 Q -216.394 -5.17 -216.69 -5.282 Q -216.987 -5.394 -217.122 -5.45 L -217.122 -12.17 Q -217.122 -12.585 -217.211 -12.702 Q -217.301 -12.82 -217.682 -12.82 Q -217.805 -12.82 -217.911 -12.803 Q -218.018 -12.786 -218.018 -12.786 L -218.018 -13.212 L -216.494 -13.503 Z M -216.035 -9.449 L -216.035 -9.449 L -216.035 -6.089 Q -215.901 -5.842 -215.61 -5.697 Q -215.318 -5.551 -214.837 -5.551 Q -214.243 -5.551 -213.885 -5.87 Q -213.526 -6.19 -213.364 -6.722 Q -213.202 -7.254 -213.202 -7.881 Q -213.202 -8.452 -213.33 -8.973 Q -213.459 -9.494 -213.784 -9.818 Q -214.109 -10.143 -214.68 -10.143 Q -214.982 -10.143 -215.257 -10.026 Q -215.531 -9.908 -215.733 -9.746 Q -215.934 -9.583 -216.035 -9.449 Z " fill="black" /><path d="M -207.949 -5.551 L -207.949 -5.551 L -207.949 -5.137 L -210.794 -5.137 L -210.794 -5.551 Q -210.402 -5.551 -210.228 -5.635 Q -210.054 -5.719 -210.01 -5.904 Q -209.965 -6.089 -209.965 -6.391 L -209.965 -9.774 Q -209.965 -10.154 -210.088 -10.233 Q -210.211 -10.311 -210.502 -10.311 Q -210.648 -10.311 -210.738 -10.3 Q -210.827 -10.289 -210.827 -10.289 L -210.827 -10.737 L -209.326 -10.983 L -208.867 -10.983 L -208.867 -6.391 Q -208.867 -6.066 -208.817 -5.882 Q -208.766 -5.697 -208.57 -5.624 Q -208.374 -5.551 -207.949 -5.551 Z M -209.427 -13.458 L -209.427 -13.458 Q -209.102 -13.458 -208.884 -13.234 Q -208.666 -13.01 -208.666 -12.719 Q -208.666 -12.45 -208.884 -12.226 Q -209.102 -12.002 -209.427 -12.002 Q -209.741 -12.002 -209.948 -12.226 Q -210.155 -12.45 -210.155 -12.719 Q -210.155 -13.01 -209.948 -13.234 Q -209.741 -13.458 -209.427 -13.458 Z " fill="black" /><path d="M -203.469 -5.842 L -203.469 -5.842 L -203.547 -5.842 Q -203.928 -5.529 -204.387 -5.294 Q -204.846 -5.058 -205.384 -5.058 Q -206.09 -5.058 -206.465 -5.484 Q -206.84 -5.91 -206.84 -6.514 Q -206.84 -7.03 -206.599 -7.377 Q -206.358 -7.724 -205.972 -7.942 Q -205.586 -8.161 -205.138 -8.295 Q -204.69 -8.43 -204.275 -8.508 Q -203.861 -8.586 -203.581 -8.654 L -203.581 -9.236 Q -203.581 -9.986 -203.878 -10.272 Q -204.174 -10.558 -204.746 -10.558 Q -205.093 -10.558 -205.244 -10.468 Q -205.395 -10.378 -205.434 -10.177 Q -205.474 -9.975 -205.485 -9.65 Q -205.496 -9.404 -205.63 -9.253 Q -205.765 -9.102 -206.022 -9.102 Q -206.269 -9.102 -206.442 -9.253 Q -206.616 -9.404 -206.616 -9.695 Q -206.616 -10.042 -206.347 -10.345 Q -206.078 -10.647 -205.58 -10.832 Q -205.082 -11.017 -204.41 -11.017 Q -203.402 -11.017 -202.948 -10.552 Q -202.494 -10.087 -202.494 -9.158 L -202.494 -6.414 Q -202.494 -6.044 -202.41 -5.938 Q -202.326 -5.831 -202.147 -5.831 Q -201.957 -5.831 -201.817 -5.91 Q -201.677 -5.988 -201.554 -6.134 L -201.307 -5.898 Q -201.89 -5.07 -202.674 -5.07 Q -203.11 -5.07 -203.273 -5.277 Q -203.435 -5.484 -203.469 -5.842 Z M -203.581 -6.257 L -203.581 -6.257 L -203.581 -8.228 Q -204.096 -8.094 -204.589 -7.931 Q -205.082 -7.769 -205.401 -7.489 Q -205.72 -7.209 -205.72 -6.705 Q -205.72 -6.268 -205.468 -6.016 Q -205.216 -5.764 -204.824 -5.764 Q -204.589 -5.764 -204.258 -5.87 Q -203.928 -5.977 -203.581 -6.257 Z " fill="black" /><path d="M -200.534 -7.175 L -200.534 -7.175 L -200.176 -7.175 Q -200.03 -6.526 -199.829 -6.167 Q -199.627 -5.809 -199.308 -5.669 Q -198.989 -5.529 -198.53 -5.529 Q -198.003 -5.529 -197.718 -5.702 Q -197.432 -5.876 -197.432 -6.313 Q -197.432 -6.604 -197.572 -6.8 Q -197.712 -6.996 -198.02 -7.175 Q -198.328 -7.354 -198.843 -7.59 Q -199.37 -7.847 -199.745 -8.071 Q -200.12 -8.295 -200.316 -8.598 Q -200.512 -8.9 -200.512 -9.359 Q -200.512 -10.166 -199.969 -10.591 Q -199.426 -11.017 -198.608 -11.017 Q -198.115 -11.017 -197.774 -10.894 Q -197.432 -10.77 -197.23 -10.681 L -197.208 -10.681 L -197.029 -10.961 L -196.715 -10.961 L -196.693 -9.102 L -197.085 -9.102 Q -197.298 -9.964 -197.678 -10.261 Q -198.059 -10.558 -198.552 -10.558 Q -199.067 -10.558 -199.33 -10.334 Q -199.594 -10.11 -199.594 -9.751 Q -199.594 -9.46 -199.414 -9.27 Q -199.235 -9.079 -198.905 -8.917 Q -198.574 -8.754 -198.115 -8.53 Q -197.6 -8.284 -197.208 -8.021 Q -196.816 -7.758 -196.592 -7.427 Q -196.368 -7.097 -196.368 -6.604 Q -196.368 -6.01 -196.682 -5.652 Q -196.995 -5.294 -197.488 -5.142 Q -197.981 -4.991 -198.518 -4.991 Q -199.067 -4.991 -199.37 -5.103 Q -199.672 -5.215 -199.93 -5.316 L -199.974 -5.316 L -200.254 -5.025 L -200.512 -5.025 Z " fill="black" /></g></g></g><circle cx="-123.00000000000001" cy="179.99999999999994" r="2.6999999999999997" style="stroke:black;fill:black;stroke-width:2.0;stroke-dasharray:-;" /><circle cx="-174.00000000000003" cy="143.99999999999994" r="2.6999999999999997" style="stroke:black;fill:black;stroke-width:2.0;stroke-dasharray:-;" /><g><g><g><path d="M 96.115 33.576 L 96.115 33.576 L 91.843 33.576 L 91.939 33.096 Q 92.531 33.096 92.843 32.984 Q 93.155 32.872 93.315 32.56 Q 93.475 32.248 93.587 31.672 L 95.011 24.76 L 94.947 24.76 L 89.571 33.576 L 89.219 33.576 L 87.283 24.776 L 87.219 24.776 L 85.891 31.24 Q 85.731 32.056 85.755 32.456 Q 85.779 32.856 86.067 32.976 Q 86.355 33.096 86.963 33.096 L 86.867 33.576 L 83.171 33.576 L 83.267 33.096 Q 83.891 33.096 84.227 32.976 Q 84.563 32.856 84.755 32.456 Q 84.947 32.056 85.107 31.24 L 86.371 25.016 Q 86.499 24.408 86.451 24.096 Q 86.403 23.784 86.107 23.664 Q 85.811 23.544 85.171 23.544 L 85.267 23.064 L 88.467 23.064 L 90.195 31.16 L 90.259 31.16 L 95.139 23.064 L 98.163 23.064 L 98.067 23.544 Q 97.507 23.544 97.179 23.664 Q 96.851 23.784 96.675 24.096 Q 96.499 24.408 96.371 25 L 95.011 31.672 Q 94.835 32.552 95.099 32.824 Q 95.363 33.096 96.211 33.096 Z " fill="black" /><path d="M 103.64 34.987 L 103.64 34.987 L 103.259 36.936 L 98.667 36.936 L 98.667 36.387 L 100.258 34.774 Q 100.885 34.147 101.294 33.666 Q 101.702 33.184 101.904 32.697 Q 102.106 32.21 102.106 31.582 Q 102.106 30.989 101.742 30.602 Q 101.378 30.216 100.717 30.216 Q 100.112 30.216 99.703 30.457 Q 99.294 30.698 98.981 31.246 L 98.678 31.101 Q 98.958 30.317 99.546 29.869 Q 100.134 29.421 100.997 29.421 Q 101.669 29.421 102.184 29.662 Q 102.699 29.902 102.99 30.35 Q 103.282 30.798 103.282 31.437 Q 103.282 31.986 103.035 32.467 Q 102.789 32.949 102.335 33.453 Q 101.882 33.957 101.254 34.573 L 99.854 35.928 L 99.854 36.006 L 100.728 35.962 L 102.184 35.962 Q 102.509 35.962 102.682 35.872 Q 102.856 35.782 102.979 35.564 Q 103.102 35.346 103.248 34.987 Z " fill="black" /></g></g></g><circle cx="158.99999999999997" cy="29.999999999999996" r="2.6999999999999997" style="stroke:black;fill:white;stroke-width:2.0;stroke-dasharray:-;" /><g><g><g><path d="M 169.732 31.52 L 169.732 31.52 L 174.1 24.96 Q 174.324 24.64 174.46 24.368 Q 174.596 24.096 174.596 23.904 Q 174.596 23.664 174.388 23.576 Q 174.18 23.488 173.636 23.488 L 173.668 23.008 L 177.124 23.008 L 177.092 23.488 Q 176.66 23.488 176.356 23.616 Q 176.052 23.744 175.74 24.104 Q 175.428 24.464 174.932 25.2 L 169.06 33.6 L 168.532 33.6 L 167.636 24.944 Q 167.54 24.144 167.284 23.816 Q 167.028 23.488 166.388 23.488 L 166.42 23.008 L 170.34 23.008 L 170.292 23.488 Q 169.684 23.488 169.332 23.728 Q 168.98 23.968 169.012 24.512 Q 169.012 24.592 169.036 24.8 Q 169.06 25.008 169.06 25.088 L 169.54 29.648 L 169.652 31.52 Z " fill="black" /><path d="M 176.047 31.034 L 176.047 31.034 L 176.047 32.243 L 176.114 32.243 Q 176.562 31.616 176.915 31.286 Q 177.268 30.955 177.682 30.955 Q 178.399 30.955 178.399 31.661 Q 178.399 32.053 178.226 32.21 Q 178.052 32.366 177.85 32.366 Q 177.649 32.366 177.486 32.254 Q 177.324 32.142 177.212 32.03 Q 177.1 31.918 177.044 31.918 Q 176.865 31.918 176.579 32.221 Q 176.294 32.523 176.07 32.904 L 176.07 35.592 Q 176.07 36.141 176.31 36.303 Q 176.551 36.466 177.167 36.466 L 177.167 36.88 L 174.121 36.88 L 174.121 36.466 Q 174.502 36.466 174.681 36.398 Q 174.86 36.331 174.916 36.158 Q 174.972 35.984 174.972 35.67 L 174.972 32.422 Q 174.972 32.064 174.91 31.885 Q 174.849 31.706 174.502 31.706 Q 174.345 31.706 174.233 31.717 Q 174.121 31.728 174.121 31.728 L 174.121 31.314 L 175.633 31.034 Z " fill="black" /><path d="M 184.01 35.211 L 184.01 35.211 L 184.279 35.424 Q 184.044 35.85 183.753 36.208 Q 183.462 36.566 183.036 36.779 Q 182.61 36.992 181.961 36.992 Q 181.255 36.992 180.645 36.673 Q 180.034 36.354 179.665 35.693 Q 179.295 35.032 179.295 34.024 Q 179.295 33.027 179.642 32.355 Q 179.99 31.683 180.583 31.342 Q 181.177 31 181.905 31 Q 182.913 31 183.579 31.7 Q 184.246 32.4 184.268 33.789 L 180.326 33.789 Q 180.326 34.55 180.611 35.049 Q 180.897 35.547 181.345 35.788 Q 181.793 36.029 182.286 36.029 Q 182.79 36.029 183.092 35.922 Q 183.394 35.816 183.602 35.626 Q 183.809 35.435 184.01 35.211 Z M 180.326 33.274 L 180.326 33.274 L 183.07 33.274 Q 183.07 32.826 182.924 32.428 Q 182.778 32.03 182.498 31.778 Q 182.218 31.526 181.782 31.526 Q 181.143 31.526 180.768 31.974 Q 180.393 32.422 180.326 33.274 Z " fill="black" /><path d="M 185.377 31.146 L 185.377 31.146 L 186.273 31.146 Q 186.273 30.552 186.357 30.138 Q 186.441 29.723 186.654 29.309 Q 186.911 28.906 187.275 28.654 Q 187.639 28.402 188.311 28.402 Q 188.882 28.402 189.286 28.62 Q 189.689 28.838 189.689 29.264 Q 189.689 29.533 189.538 29.673 Q 189.386 29.813 189.185 29.813 Q 188.938 29.813 188.798 29.673 Q 188.658 29.533 188.434 29.298 Q 188.278 29.074 188.154 28.99 Q 188.031 28.906 187.863 28.906 Q 187.55 28.906 187.449 29.208 Q 187.348 29.51 187.348 30.25 L 187.348 31.146 L 188.804 31.146 L 188.804 31.694 L 187.348 31.694 L 187.348 35.39 Q 187.348 35.85 187.449 36.079 Q 187.55 36.309 187.818 36.387 Q 188.087 36.466 188.58 36.466 L 188.58 36.88 L 185.276 36.88 L 185.276 36.466 Q 185.702 36.466 185.914 36.387 Q 186.127 36.309 186.2 36.079 Q 186.273 35.85 186.273 35.39 L 186.273 31.694 L 185.377 31.694 Z " fill="black" /></g></g></g><circle cx="1.102182119232618e-15" cy="-18.0" r="2.6999999999999997" style="stroke:black;fill:black;stroke-width:2.0;stroke-dasharray:-;" /><g><g><g><path d="M -11.885 -62.497 L -11.885 -62.497 L -16.157 -62.497 L -16.061 -62.977 Q -15.469 -62.977 -15.157 -63.089 Q -14.845 -63.201 -14.685 -63.513 Q -14.525 -63.825 -14.413 -64.401 L -12.989 -71.313 L -13.053 -71.313 L -18.429 -62.497 L -18.781 -62.497 L -20.717 -71.297 L -20.781 -71.297 L -22.109 -64.833 Q -22.269 -64.017 -22.245 -63.617 Q -22.221 -63.217 -21.933 -63.097 Q -21.645 -62.977 -21.037 -62.977 L -21.133 -62.497 L -24.829 -62.497 L -24.733 -62.977 Q -24.109 -62.977 -23.773 -63.097 Q -23.437 -63.217 -23.245 -63.617 Q -23.053 -64.017 -22.893 -64.833 L -21.629 -71.057 Q -21.501 -71.665 -21.549 -71.977 Q -21.597 -72.289 -21.893 -72.409 Q -22.189 -72.529 -22.829 -72.529 L -22.733 -73.009 L -19.533 -73.009 L -17.805 -64.913 L -17.741 -64.913 L -12.861 -73.009 L -9.837 -73.009 L -9.933 -72.529 Q -10.493 -72.529 -10.821 -72.409 Q -11.149 -72.289 -11.325 -71.977 Q -11.501 -71.665 -11.629 -71.073 L -12.989 -64.401 Q -13.165 -63.521 -12.901 -63.249 Q -12.637 -62.977 -11.789 -62.977 Z " fill="black" /><path d="M -8.896 -64.961 L -8.896 -64.961 L -9.221 -65.118 Q -8.885 -65.879 -8.33 -66.266 Q -7.776 -66.652 -7.082 -66.652 Q -6.186 -66.652 -5.637 -66.215 Q -5.088 -65.778 -5.088 -65.084 Q -5.088 -64.479 -5.458 -64.11 Q -5.827 -63.74 -6.376 -63.382 L -6.376 -63.326 Q -5.906 -63.202 -5.508 -62.956 Q -5.11 -62.71 -4.875 -62.323 Q -4.64 -61.937 -4.64 -61.388 Q -4.64 -60.772 -4.909 -60.318 Q -5.178 -59.865 -5.637 -59.568 Q -6.096 -59.271 -6.684 -59.131 Q -7.272 -58.991 -7.91 -58.991 Q -8.459 -58.991 -8.745 -59.086 Q -9.03 -59.182 -9.137 -59.338 Q -9.243 -59.495 -9.243 -59.652 Q -9.243 -59.842 -9.131 -60.027 Q -9.019 -60.212 -8.75 -60.212 Q -8.638 -60.212 -8.521 -60.15 Q -8.403 -60.089 -8.09 -59.91 Q -7.832 -59.786 -7.681 -59.719 Q -7.53 -59.652 -7.412 -59.63 Q -7.294 -59.607 -7.138 -59.607 Q -6.802 -59.607 -6.471 -59.73 Q -6.141 -59.854 -5.917 -60.173 Q -5.693 -60.492 -5.693 -61.074 Q -5.693 -61.59 -5.978 -61.959 Q -6.264 -62.329 -6.746 -62.536 Q -7.227 -62.743 -7.81 -62.743 L -8.056 -62.743 L -8.056 -63.27 L -7.821 -63.27 Q -7.418 -63.27 -7.037 -63.454 Q -6.656 -63.639 -6.41 -63.981 Q -6.163 -64.322 -6.163 -64.793 Q -6.163 -65.319 -6.505 -65.588 Q -6.846 -65.857 -7.373 -65.857 Q -8.347 -65.857 -8.896 -64.961 Z " fill="black" /></g></g></g><circle cx="108.0" cy="-18.0" r="2.6999999999999997" style="stroke:black;fill:black;stroke-width:2.0;stroke-dasharray:-;" /><g><g><g><path d="M 333.448 -15.718 L 333.448 -15.718 L 329.176 -15.718 L 329.272 -16.198 Q 329.864 -16.198 330.176 -16.31 Q 330.488 -16.422 330.648 -16.734 Q 330.808 -17.046 330.92 -17.622 L 332.344 -24.534 L 332.28 -24.534 L 326.904 -15.718 L 326.552 -15.718 L 324.616 -24.518 L 324.552 -24.518 L 323.224 -18.054 Q 323.064 -17.238 323.088 -16.838 Q 323.112 -16.438 323.4 -16.318 Q 323.688 -16.198 324.296 -16.198 L 324.2 -15.718 L 320.504 -15.718 L 320.6 -16.198 Q 321.224 -16.198 321.56 -16.318 Q 321.896 -16.438 322.088 -16.838 Q 322.28 -17.238 322.44 -18.054 L 323.704 -24.278 Q 323.832 -24.886 323.784 -25.198 Q 323.736 -25.51 323.44 -25.63 Q 323.144 -25.75 322.504 -25.75 L 322.6 -26.23 L 325.8 -26.23 L 327.528 -18.134 L 327.592 -18.134 L 332.472 -26.23 L 335.496 -26.23 L 335.4 -25.75 Q 334.84 -25.75 334.512 -25.63 Q 334.184 -25.51 334.008 -25.198 Q 333.832 -24.886 333.704 -24.294 L 332.344 -17.622 Q 332.168 -16.742 332.432 -16.47 Q 332.696 -16.198 333.544 -16.198 Z " fill="black" /><path d="M 337.848 -18.204 L 337.848 -18.204 L 337.848 -17.241 L 337.904 -17.241 Q 338.341 -17.745 338.778 -17.991 Q 339.214 -18.238 339.741 -18.238 Q 340.334 -18.238 340.816 -17.885 Q 341.298 -17.532 341.583 -16.91 Q 341.869 -16.289 341.869 -15.482 Q 341.869 -14.43 341.494 -13.702 Q 341.118 -12.974 340.497 -12.598 Q 339.875 -12.223 339.147 -12.223 Q 338.8 -12.223 338.492 -12.313 Q 338.184 -12.402 337.926 -12.548 L 337.87 -12.548 L 337.87 -11.114 Q 337.87 -10.722 337.971 -10.515 Q 338.072 -10.308 338.33 -10.235 Q 338.587 -10.162 339.069 -10.162 L 339.069 -9.77 L 335.899 -9.77 L 335.899 -10.151 Q 336.291 -10.162 336.476 -10.235 Q 336.661 -10.308 336.722 -10.498 Q 336.784 -10.689 336.784 -11.036 L 336.784 -16.927 Q 336.784 -17.252 336.717 -17.392 Q 336.65 -17.532 336.325 -17.532 Q 336.224 -17.532 336.067 -17.521 Q 335.91 -17.51 335.91 -17.51 L 335.91 -17.958 L 337.422 -18.204 Z M 337.87 -16.67 L 337.87 -16.67 L 337.87 -13.511 Q 337.994 -13.388 338.178 -13.203 Q 338.363 -13.018 338.621 -12.878 Q 338.878 -12.738 339.181 -12.738 Q 339.595 -12.738 339.937 -12.99 Q 340.278 -13.242 340.491 -13.78 Q 340.704 -14.318 340.704 -15.146 Q 340.704 -16.199 340.323 -16.782 Q 339.942 -17.364 339.248 -17.364 Q 338.8 -17.364 338.43 -17.129 Q 338.061 -16.894 337.87 -16.67 Z " fill="black" /><path d="M 346.573 -13.063 L 346.573 -13.063 L 346.494 -13.063 Q 346.114 -12.75 345.654 -12.514 Q 345.195 -12.279 344.658 -12.279 Q 343.952 -12.279 343.577 -12.705 Q 343.202 -13.13 343.202 -13.735 Q 343.202 -14.25 343.442 -14.598 Q 343.683 -14.945 344.07 -15.163 Q 344.456 -15.382 344.904 -15.516 Q 345.352 -15.65 345.766 -15.729 Q 346.181 -15.807 346.461 -15.874 L 346.461 -16.457 Q 346.461 -17.207 346.164 -17.493 Q 345.867 -17.778 345.296 -17.778 Q 344.949 -17.778 344.798 -17.689 Q 344.646 -17.599 344.607 -17.398 Q 344.568 -17.196 344.557 -16.871 Q 344.546 -16.625 344.411 -16.474 Q 344.277 -16.322 344.019 -16.322 Q 343.773 -16.322 343.599 -16.474 Q 343.426 -16.625 343.426 -16.916 Q 343.426 -17.263 343.694 -17.566 Q 343.963 -17.868 344.462 -18.053 Q 344.96 -18.238 345.632 -18.238 Q 346.64 -18.238 347.094 -17.773 Q 347.547 -17.308 347.547 -16.378 L 347.547 -13.634 Q 347.547 -13.265 347.631 -13.158 Q 347.715 -13.052 347.894 -13.052 Q 348.085 -13.052 348.225 -13.13 Q 348.365 -13.209 348.488 -13.354 L 348.734 -13.119 Q 348.152 -12.29 347.368 -12.29 Q 346.931 -12.29 346.769 -12.498 Q 346.606 -12.705 346.573 -13.063 Z M 346.461 -13.478 L 346.461 -13.478 L 346.461 -15.449 Q 345.946 -15.314 345.453 -15.152 Q 344.96 -14.99 344.641 -14.71 Q 344.322 -14.43 344.322 -13.926 Q 344.322 -13.489 344.574 -13.237 Q 344.826 -12.985 345.218 -12.985 Q 345.453 -12.985 345.783 -13.091 Q 346.114 -13.198 346.461 -13.478 Z " fill="black" /><path d="M 349.507 -14.396 L 349.507 -14.396 L 349.866 -14.396 Q 350.011 -13.746 350.213 -13.388 Q 350.414 -13.03 350.734 -12.89 Q 351.053 -12.75 351.512 -12.75 Q 352.038 -12.75 352.324 -12.923 Q 352.61 -13.097 352.61 -13.534 Q 352.61 -13.825 352.47 -14.021 Q 352.33 -14.217 352.022 -14.396 Q 351.714 -14.575 351.198 -14.81 Q 350.672 -15.068 350.297 -15.292 Q 349.922 -15.516 349.726 -15.818 Q 349.53 -16.121 349.53 -16.58 Q 349.53 -17.386 350.073 -17.812 Q 350.616 -18.238 351.434 -18.238 Q 351.926 -18.238 352.268 -18.114 Q 352.61 -17.991 352.811 -17.902 L 352.834 -17.902 L 353.013 -18.182 L 353.326 -18.182 L 353.349 -16.322 L 352.957 -16.322 Q 352.744 -17.185 352.363 -17.482 Q 351.982 -17.778 351.49 -17.778 Q 350.974 -17.778 350.711 -17.554 Q 350.448 -17.33 350.448 -16.972 Q 350.448 -16.681 350.627 -16.49 Q 350.806 -16.3 351.137 -16.138 Q 351.467 -15.975 351.926 -15.751 Q 352.442 -15.505 352.834 -15.242 Q 353.226 -14.978 353.45 -14.648 Q 353.674 -14.318 353.674 -13.825 Q 353.674 -13.231 353.36 -12.873 Q 353.046 -12.514 352.554 -12.363 Q 352.061 -12.212 351.523 -12.212 Q 350.974 -12.212 350.672 -12.324 Q 350.37 -12.436 350.112 -12.537 L 350.067 -12.537 L 349.787 -12.246 L 349.53 -12.246 Z " fill="black" /><path d="M 354.906 -14.396 L 354.906 -14.396 L 355.264 -14.396 Q 355.41 -13.746 355.611 -13.388 Q 355.813 -13.03 356.132 -12.89 Q 356.451 -12.75 356.91 -12.75 Q 357.437 -12.75 357.722 -12.923 Q 358.008 -13.097 358.008 -13.534 Q 358.008 -13.825 357.868 -14.021 Q 357.728 -14.217 357.42 -14.396 Q 357.112 -14.575 356.597 -14.81 Q 356.07 -15.068 355.695 -15.292 Q 355.32 -15.516 355.124 -15.818 Q 354.928 -16.121 354.928 -16.58 Q 354.928 -17.386 355.471 -17.812 Q 356.014 -18.238 356.832 -18.238 Q 357.325 -18.238 357.666 -18.114 Q 358.008 -17.991 358.21 -17.902 L 358.232 -17.902 L 358.411 -18.182 L 358.725 -18.182 L 358.747 -16.322 L 358.355 -16.322 Q 358.142 -17.185 357.762 -17.482 Q 357.381 -17.778 356.888 -17.778 Q 356.373 -17.778 356.11 -17.554 Q 355.846 -17.33 355.846 -16.972 Q 355.846 -16.681 356.026 -16.49 Q 356.205 -16.3 356.535 -16.138 Q 356.866 -15.975 357.325 -15.751 Q 357.84 -15.505 358.232 -15.242 Q 358.624 -14.978 358.848 -14.648 Q 359.072 -14.318 359.072 -13.825 Q 359.072 -13.231 358.758 -12.873 Q 358.445 -12.514 357.952 -12.363 Q 357.459 -12.212 356.922 -12.212 Q 356.373 -12.212 356.07 -12.324 Q 355.768 -12.436 355.51 -12.537 L 355.466 -12.537 L 355.186 -12.246 L 354.928 -12.246 Z " fill="black" /></g></g></g><circle cx="321.0" cy="119.99999999999999" r="2.6999999999999997" style="stroke:black;fill:black;stroke-width:2.0;stroke-dasharray:-;" /><g><g><g><path d="M 301.499 80.622 L 301.499 80.622 Q 301.499 81.47 301.179 82.046 Q 300.859 82.622 300.347 82.99 Q 299.835 83.358 299.251 83.558 Q 298.667 83.758 298.139 83.854 L 298.139 83.934 Q 298.427 84.126 298.683 84.518 Q 298.939 84.91 299.315 85.646 Q 299.691 86.382 300.347 87.63 Q 300.619 88.11 300.947 88.278 Q 301.275 88.446 301.819 88.446 L 301.723 88.926 L 299.291 88.926 Q 298.843 87.934 298.539 87.27 Q 298.235 86.606 298.011 86.158 Q 297.787 85.71 297.619 85.358 Q 297.451 85.006 297.259 84.638 Q 297.083 84.302 296.875 84.198 Q 296.667 84.094 296.235 84.094 L 295.899 84.094 L 295.307 86.942 Q 295.179 87.598 295.219 87.926 Q 295.259 88.254 295.579 88.35 Q 295.899 88.446 296.587 88.446 L 296.507 88.926 L 292.091 88.926 L 292.187 88.446 Q 292.779 88.446 293.099 88.35 Q 293.419 88.254 293.587 87.934 Q 293.755 87.614 293.883 86.942 L 295.291 80.078 Q 295.387 79.63 295.339 79.374 Q 295.291 79.118 295.011 79.006 Q 294.731 78.894 294.091 78.894 L 294.187 78.414 L 297.947 78.414 Q 299.627 78.414 300.563 78.934 Q 301.499 79.454 301.499 80.622 Z M 296.907 79.086 L 296.907 79.086 L 296.011 83.502 L 296.507 83.518 Q 297.467 83.486 298.243 83.206 Q 299.019 82.926 299.467 82.318 Q 299.915 81.71 299.915 80.686 Q 299.915 80.254 299.731 79.878 Q 299.547 79.502 299.099 79.27 Q 298.651 79.038 297.851 79.038 Q 297.547 79.038 297.363 79.046 Q 297.179 79.054 296.907 79.086 Z " fill="black" /><path d="M 307.394 92.286 L 307.394 92.286 L 303.597 92.286 L 303.597 91.883 Q 304.403 91.883 304.666 91.72 Q 304.93 91.558 304.93 91.132 L 304.93 86.249 Q 304.93 85.947 304.84 85.812 Q 304.75 85.678 304.515 85.678 Q 304.336 85.678 304.028 85.728 Q 303.72 85.779 303.496 85.835 L 303.496 85.387 L 305.568 84.816 L 306.05 84.816 L 306.05 91.132 Q 306.05 91.558 306.335 91.72 Q 306.621 91.883 307.394 91.883 Z " fill="black" /></g></g></g><g><g><g><path d="M 301.331 151.272 L 301.331 151.272 Q 301.331 152.12 301.011 152.696 Q 300.691 153.272 300.179 153.64 Q 299.667 154.008 299.083 154.208 Q 298.499 154.408 297.971 154.504 L 297.971 154.584 Q 298.259 154.776 298.515 155.168 Q 298.771 155.56 299.147 156.296 Q 299.523 157.032 300.179 158.28 Q 300.451 158.76 300.779 158.928 Q 301.107 159.096 301.651 159.096 L 301.555 159.576 L 299.123 159.576 Q 298.675 158.584 298.371 157.92 Q 298.067 157.256 297.843 156.808 Q 297.619 156.36 297.451 156.008 Q 297.283 155.656 297.091 155.288 Q 296.915 154.952 296.707 154.848 Q 296.499 154.744 296.067 154.744 L 295.731 154.744 L 295.139 157.592 Q 295.011 158.248 295.051 158.576 Q 295.091 158.904 295.411 159 Q 295.731 159.096 296.419 159.096 L 296.339 159.576 L 291.923 159.576 L 292.019 159.096 Q 292.611 159.096 292.931 159 Q 293.251 158.904 293.419 158.584 Q 293.587 158.264 293.715 157.592 L 295.123 150.728 Q 295.219 150.28 295.171 150.024 Q 295.123 149.768 294.843 149.656 Q 294.563 149.544 293.923 149.544 L 294.019 149.064 L 297.779 149.064 Q 299.459 149.064 300.395 149.584 Q 301.331 150.104 301.331 151.272 Z M 296.739 149.736 L 296.739 149.736 L 295.843 154.152 L 296.339 154.168 Q 297.299 154.136 298.075 153.856 Q 298.851 153.576 299.299 152.968 Q 299.747 152.36 299.747 151.336 Q 299.747 150.904 299.563 150.528 Q 299.379 150.152 298.931 149.92 Q 298.483 149.688 297.683 149.688 Q 297.379 149.688 297.195 149.696 Q 297.011 149.704 296.739 149.736 Z " fill="black" /><path d="M 307.864 160.987 L 307.864 160.987 L 307.483 162.936 L 302.891 162.936 L 302.891 162.387 L 304.482 160.774 Q 305.109 160.147 305.518 159.666 Q 305.926 159.184 306.128 158.697 Q 306.33 158.21 306.33 157.582 Q 306.33 156.989 305.966 156.602 Q 305.602 156.216 304.941 156.216 Q 304.336 156.216 303.927 156.457 Q 303.518 156.698 303.205 157.246 L 302.902 157.101 Q 303.182 156.317 303.77 155.869 Q 304.358 155.421 305.221 155.421 Q 305.893 155.421 306.408 155.662 Q 306.923 155.902 307.214 156.35 Q 307.506 156.798 307.506 157.437 Q 307.506 157.986 307.259 158.467 Q 307.013 158.949 306.559 159.453 Q 306.106 159.957 305.478 160.573 L 304.078 161.928 L 304.078 162.006 L 304.952 161.962 L 306.408 161.962 Q 306.733 161.962 306.906 161.872 Q 307.08 161.782 307.203 161.564 Q 307.326 161.346 307.472 160.987 Z " fill="black" /></g></g></g><g><g><g><path d="M 120.267 -62.424 L 120.267 -62.424 L 115.995 -62.424 L 116.091 -62.904 Q 116.683 -62.904 116.995 -63.016 Q 117.307 -63.128 117.467 -63.44 Q 117.627 -63.752 117.739 -64.328 L 119.163 -71.24 L 119.099 -71.24 L 113.723 -62.424 L 113.371 -62.424 L 111.435 -71.224 L 111.371 -71.224 L 110.043 -64.76 Q 109.883 -63.944 109.907 -63.544 Q 109.931 -63.144 110.219 -63.024 Q 110.507 -62.904 111.115 -62.904 L 111.019 -62.424 L 107.323 -62.424 L 107.419 -62.904 Q 108.043 -62.904 108.379 -63.024 Q 108.715 -63.144 108.907 -63.544 Q 109.099 -63.944 109.259 -64.76 L 110.523 -70.984 Q 110.651 -71.592 110.603 -71.904 Q 110.555 -72.216 110.259 -72.336 Q 109.963 -72.456 109.323 -72.456 L 109.419 -72.936 L 112.619 -72.936 L 114.347 -64.84 L 114.411 -64.84 L 119.291 -72.936 L 122.315 -72.936 L 122.219 -72.456 Q 121.659 -72.456 121.331 -72.336 Q 121.003 -72.216 120.827 -71.904 Q 120.651 -71.592 120.523 -71 L 119.163 -64.328 Q 118.987 -63.448 119.251 -63.176 Q 119.515 -62.904 120.363 -62.904 Z " fill="black" /><path d="M 128.33 -60.834 L 128.33 -60.834 L 127.109 -60.834 L 127.109 -59.064 L 126 -59.064 L 126 -60.834 L 122.707 -60.834 L 122.707 -61.685 L 126.302 -66.568 L 127.109 -66.568 L 127.109 -61.752 L 128.33 -61.752 Z M 126 -61.752 L 126 -61.752 L 126 -65.213 L 125.933 -65.213 L 123.469 -61.819 L 123.469 -61.752 Z " fill="black" /></g></g></g><circle cx="53.999999999999986" cy="-66.0" r="2.6999999999999997" style="stroke:black;fill:black;stroke-width:2.0;stroke-dasharray:-;" /><circle cx="234.0" cy="-18.0" r="2.6999999999999997" style="stroke:black;fill:black;stroke-width:2.0;stroke-dasharray:-;" /><circle cx="321.0" cy="36.0" r="2.6999999999999997" style="stroke:black;fill:black;stroke-width:2.0;stroke-dasharray:-;" /><g><g><g><path d="M 277.582 17.72 L 277.582 17.72 L 277.87 18.024 Q 277.054 18.984 275.982 19.6 Q 274.91 20.216 273.39 20.216 Q 271.95 20.216 271.086 19.68 Q 270.222 19.144 269.846 18.248 Q 269.47 17.352 269.47 16.296 Q 269.47 14.616 269.982 13.312 Q 270.494 12.008 271.382 11.12 Q 272.27 10.232 273.39 9.776 Q 274.51 9.32 275.726 9.32 Q 276.542 9.32 276.998 9.464 Q 277.454 9.608 277.71 9.76 Q 277.966 9.912 278.158 9.912 Q 278.35 9.912 278.494 9.752 Q 278.638 9.592 278.83 9.336 L 279.294 9.336 L 278.542 13 L 278.014 13 Q 278.078 11.4 277.422 10.704 Q 276.766 10.008 275.582 10.008 Q 274.654 10.008 273.838 10.432 Q 273.022 10.856 272.39 11.632 Q 271.758 12.408 271.398 13.488 Q 271.038 14.568 271.038 15.896 Q 271.038 17.496 271.798 18.336 Q 272.558 19.176 274.142 19.176 Q 275.982 19.176 277.582 17.72 Z " fill="black" /><path d="M 289.433 23.4 L 289.433 23.4 L 286.152 23.4 L 286.152 22.974 Q 286.611 22.974 286.835 22.896 Q 287.059 22.818 287.126 22.594 Q 287.193 22.37 287.193 21.944 L 287.193 16.938 L 287.137 16.938 L 284.36 23.4 L 284.035 23.4 L 281.19 17.128 L 281.112 17.128 L 281.112 21.642 Q 281.112 22.246 281.196 22.532 Q 281.28 22.818 281.515 22.896 Q 281.75 22.974 282.209 22.974 L 282.209 23.4 L 279.308 23.4 L 279.308 22.974 Q 279.801 22.974 280.048 22.896 Q 280.294 22.818 280.378 22.532 Q 280.462 22.246 280.462 21.642 L 280.462 17.061 Q 280.462 16.613 280.378 16.372 Q 280.294 16.131 280.048 16.042 Q 279.801 15.952 279.331 15.952 L 279.331 15.526 L 281.851 15.526 L 284.438 21.418 L 284.505 21.418 L 286.98 15.526 L 289.422 15.526 L 289.422 15.952 Q 288.996 15.952 288.761 16.042 Q 288.526 16.131 288.442 16.366 Q 288.358 16.602 288.358 17.05 L 288.358 21.944 Q 288.358 22.37 288.448 22.594 Q 288.537 22.818 288.772 22.896 Q 289.008 22.974 289.433 22.974 Z " fill="black" /></g></g></g><circle cx="357.0" cy="36.0" r="2.6999999999999997" style="stroke:black;fill:white;stroke-width:2.0;stroke-dasharray:-;" /><g><g><g><path d="M 367.732 37.509 L 367.732 37.509 L 372.1 30.949 Q 372.324 30.629 372.46 30.357 Q 372.596 30.085 372.596 29.893 Q 372.596 29.653 372.388 29.565 Q 372.18 29.477 371.636 29.477 L 371.668 28.997 L 375.124 28.997 L 375.092 29.477 Q 374.66 29.477 374.356 29.605 Q 374.052 29.733 373.74 30.093 Q 373.428 30.453 372.932 31.189 L 367.06 39.589 L 366.532 39.589 L 365.636 30.933 Q 365.54 30.133 365.284 29.805 Q 365.028 29.477 364.388 29.477 L 364.42 28.997 L 368.34 28.997 L 368.292 29.477 Q 367.684 29.477 367.332 29.717 Q 366.98 29.957 367.012 30.501 Q 367.012 30.581 367.036 30.789 Q 367.06 30.997 367.06 31.077 L 367.54 35.637 L 367.652 37.509 Z " fill="black" /><path d="M 375.033 36.989 L 375.033 36.989 Q 375.873 36.989 376.5 37.353 Q 377.127 37.717 377.469 38.372 Q 377.81 39.027 377.81 39.912 Q 377.81 40.976 377.452 41.659 Q 377.094 42.342 376.466 42.673 Q 375.839 43.003 375.033 43.003 Q 374.215 43.003 373.582 42.662 Q 372.95 42.32 372.597 41.637 Q 372.244 40.954 372.244 39.923 Q 372.244 39.05 372.591 38.389 Q 372.938 37.728 373.566 37.358 Q 374.193 36.989 375.033 36.989 Z M 375.01 37.504 L 375.01 37.504 Q 374.271 37.504 373.851 38.103 Q 373.431 38.702 373.431 39.856 Q 373.431 41.278 373.862 41.866 Q 374.294 42.454 375.066 42.454 Q 375.559 42.443 375.906 42.208 Q 376.254 41.973 376.438 41.418 Q 376.623 40.864 376.623 39.912 Q 376.623 38.77 376.231 38.137 Q 375.839 37.504 375.01 37.504 Z " fill="black" /><path d="M 385.426 42.298 L 385.426 42.298 L 385.426 42.723 L 383.914 42.925 L 383.556 42.925 L 383.556 42.051 L 383.444 42.051 Q 383.018 42.432 382.582 42.706 Q 382.145 42.981 381.529 42.981 Q 380.7 42.981 380.263 42.477 Q 379.826 41.973 379.826 40.73 L 379.826 38.322 Q 379.826 37.862 379.664 37.756 Q 379.502 37.65 378.986 37.65 L 378.986 37.246 L 380.543 37.034 L 380.913 37.034 L 380.913 40.584 Q 380.913 41.211 381.058 41.558 Q 381.204 41.906 381.45 42.04 Q 381.697 42.174 381.988 42.174 Q 382.481 42.174 382.811 41.967 Q 383.142 41.76 383.5 41.469 L 383.5 38.322 Q 383.5 37.862 383.298 37.756 Q 383.097 37.65 382.526 37.65 L 382.526 37.246 L 384.194 37.034 L 384.586 37.034 L 384.586 41.57 Q 384.586 41.906 384.648 42.062 Q 384.71 42.219 384.866 42.258 Q 385.023 42.298 385.303 42.298 Z " fill="black" /><path d="M 389.794 41.749 L 389.794 41.749 L 390.052 41.962 Q 389.806 42.298 389.604 42.527 Q 389.402 42.757 389.145 42.88 Q 388.887 43.003 388.484 43.003 Q 387.834 43.003 387.538 42.634 Q 387.241 42.264 387.241 41.446 L 387.241 37.683 L 386.535 37.683 L 386.535 37.347 Q 386.938 37.056 387.274 36.636 Q 387.61 36.216 387.946 35.432 L 388.338 35.432 L 388.327 37.134 L 389.75 37.134 L 389.75 37.683 L 388.327 37.683 L 388.327 41.077 Q 388.327 41.704 388.445 41.967 Q 388.562 42.23 388.921 42.23 Q 389.246 42.23 389.414 42.113 Q 389.582 41.995 389.794 41.749 Z " fill="black" /></g></g></g><g><g><g><path d="M 64.19 -104.96 L 64.19 -104.96 L 68.558 -111.52 Q 68.782 -111.84 68.918 -112.112 Q 69.054 -112.384 69.054 -112.576 Q 69.054 -112.816 68.846 -112.904 Q 68.638 -112.992 68.094 -112.992 L 68.126 -113.472 L 71.582 -113.472 L 71.55 -112.992 Q 71.118 -112.992 70.814 -112.864 Q 70.51 -112.736 70.198 -112.376 Q 69.886 -112.016 69.39 -111.28 L 63.518 -102.88 L 62.99 -102.88 L 62.094 -111.536 Q 61.998 -112.336 61.742 -112.664 Q 61.486 -112.992 60.846 -112.992 L 60.878 -113.472 L 64.798 -113.472 L 64.75 -112.992 Q 64.142 -112.992 63.79 -112.752 Q 63.438 -112.512 63.47 -111.968 Q 63.47 -111.888 63.494 -111.68 Q 63.518 -111.472 63.518 -111.392 L 63.998 -106.832 L 64.11 -104.96 Z " fill="black" /><path d="M 70.321 -107.474 L 70.321 -107.474 L 73.714 -107.474 Q 74.61 -107.474 75.428 -107.278 Q 76.246 -107.082 76.89 -106.634 Q 77.534 -106.186 77.909 -105.435 Q 78.284 -104.685 78.284 -103.565 Q 78.284 -102.512 77.942 -101.756 Q 77.601 -101 76.985 -100.524 Q 76.369 -100.048 75.551 -99.824 Q 74.734 -99.6 73.782 -99.6 L 70.321 -99.6 L 70.321 -100.026 Q 70.847 -100.026 71.094 -100.104 Q 71.34 -100.182 71.413 -100.423 Q 71.486 -100.664 71.486 -101.157 L 71.486 -106.018 Q 71.486 -106.477 71.379 -106.695 Q 71.273 -106.914 71.021 -106.981 Q 70.769 -107.048 70.321 -107.048 Z M 72.684 -106.914 L 72.684 -106.914 L 72.684 -100.138 Q 72.863 -100.126 73.037 -100.121 Q 73.21 -100.115 73.378 -100.115 Q 74.487 -100.115 75.266 -100.406 Q 76.044 -100.698 76.453 -101.426 Q 76.862 -102.154 76.862 -103.464 Q 76.862 -105.144 76.005 -106.034 Q 75.148 -106.925 73.289 -106.925 Q 73.132 -106.925 72.986 -106.925 Q 72.841 -106.925 72.684 -106.914 Z " fill="black" /><path d="M 79.639 -107.474 L 79.639 -107.474 L 83.033 -107.474 Q 83.929 -107.474 84.746 -107.278 Q 85.564 -107.082 86.208 -106.634 Q 86.852 -106.186 87.227 -105.435 Q 87.602 -104.685 87.602 -103.565 Q 87.602 -102.512 87.261 -101.756 Q 86.919 -101 86.303 -100.524 Q 85.687 -100.048 84.87 -99.824 Q 84.052 -99.6 83.1 -99.6 L 79.639 -99.6 L 79.639 -100.026 Q 80.166 -100.026 80.412 -100.104 Q 80.658 -100.182 80.731 -100.423 Q 80.804 -100.664 80.804 -101.157 L 80.804 -106.018 Q 80.804 -106.477 80.698 -106.695 Q 80.591 -106.914 80.339 -106.981 Q 80.087 -107.048 79.639 -107.048 Z M 82.002 -106.914 L 82.002 -106.914 L 82.002 -100.138 Q 82.182 -100.126 82.355 -100.121 Q 82.529 -100.115 82.697 -100.115 Q 83.806 -100.115 84.584 -100.406 Q 85.362 -100.698 85.771 -101.426 Q 86.18 -102.154 86.18 -103.464 Q 86.18 -105.144 85.323 -106.034 Q 84.466 -106.925 82.607 -106.925 Q 82.45 -106.925 82.305 -106.925 Q 82.159 -106.925 82.002 -106.914 Z " fill="black" /></g></g></g></svg>