<svg xmlns="http://www.w3.org/2000/svg" xmlns:xlink="http://www.w3.org/1999/xlink" xml:lang="en" height="448.71199999999993pt" width="526.9496pt" viewBox="-222.50879999999998 -205.07199999999997 526.9496 448.71199999999993"><circle cx="-174.0" cy="-132.00000000000006" r="18.0" style="stroke:black;fill:none;stroke-width:2.0;stroke-dasharray:-;" /><circle cx="107.99999999999999" cy="83.99999999999999" r="18.0" style="stroke:black;fill:none;stroke-width:2.0;stroke-dasharray:-;" /><circle cx="108.0" cy="-119.99999999999999" r="18.0" style="stroke:black;fill:none;stroke-width:2.0;stroke-dasharray:-;" /><path d="M 0.0,-0.0 L 0.0,14.999999999999998 L 14.999999999999998,14.999999999999998 L 14.999999999999998,45.0 L 0.0,45.0 L 0.0,59.99999999999999" style="stroke:black;fill:none;stroke-width:2.0;stroke-dasharray:-;stroke-linecap:round;stroke-linejoin:round;" /><path d="M 14.999999999999998,45.0 L 9.0,45.0" style="stroke:black;fill:none;stroke-width:2.0;stroke-dasharray:-;stroke-linecap:round;stroke-linejoin:round;" /><path d="M 2.0 45.0 L 9.0 40.5 L 9.0 49.5 Z" style="stroke:black;fill:black;stroke-linecap:butt;stroke-linejoin:miter;" /><path d="M 17.999999999999996,17.999999999999996 L 17.999999999999996,42.0" style="stroke:black;fill:none;stroke-width:2.0;stroke-dasharray:-;stroke-linecap:round;stroke-linejoin:round;" /><path d="M 17.999999999999996,29.999999999999996 L 32.99999999999999,29.999999999999996" style="stroke:black;fill:none;stroke-width:2.0;stroke-dasharray:-;stroke-linecap:round;stroke-linejoin:round;" /><path d="M 0.0,119.99999999999999 L 0.0,105.0 L -14.999999999999998,105.0 L -14.999999999999998,74.99999999999999 L 0.0,74.99999999999999 L 0.0,59.99999999999999" style="stroke:black;fill:none;stroke-width:2.0;stroke-dasharray:-;stroke-linecap:round;stroke-linejoin:round;" /><path d="M -9.0,105.0 L -14.999999999999998,105.0" style="stroke:black;fill:none;stroke-width:2.0;stroke-dasharray:-;stroke-linecap:round;stroke-linejoin:round;" /><path d="M -2.0 105.0 L -9.0 109.5 L -9.0 100.5 Z" style="stroke:black;fill:black;stroke-linecap:butt;stroke-linejoin:miter;" /><path d="M -17.999999999999996,101.99999999999999 L -17.999999999999996,78.0" style="stroke:black;fill:none;stroke-width:2.0;stroke-dasharray:-;stroke-linecap:round;stroke-linejoin:round;" /><path d="M -32.99999999999999,90.0 L -17.999999999999996,90.0" style="stroke:black;fill:none;stroke-width:2.0;stroke-dasharray:-;stroke-linecap:round;stroke-linejoin:round;" /><path d="M 0.0,119.99999999999999 L -1.6532731788489267e-15,129.0 L -3.3065463576978533e-15,138.0" style="stroke:black;fill:none;stroke-width:2.0;stroke-dasharray:-;stroke-linecap:round;stroke-linejoin:round;" /><path d="M -3.3065463576978533e-15,138.0 L 54.0,138.0 L 108.0,138.0" style="stroke:black;fill:none;stroke-width:2.0;stroke-dasharray:-;stroke-linecap:round;stroke-linejoin:round;" /><path d="M 108.0,138.0 L 108.0,147.0 L 108.0,156.0" style="stroke:black;fill:none;stroke-width:2.0;stroke-dasharray:-;stroke-linecap:round;stroke-linejoin:round;" /><path d="M 108.0,216.0 L 108.0,201.0 L 93.0,201.0 L 93.0,171.0 L 108.0,171.0 L 108.0,156.0" style="stroke:black;fill:none;stroke-width:2.0;stroke-dasharray:-;stroke-linecap:round;stroke-linejoin:round;" /><path d="M 99.0,201.0 L 93.0,201.0" style="stroke:black;fill:none;stroke-width:2.0;stroke-dasharray:-;stroke-linecap:round;stroke-linejoin:round;" /><path d="M 106.0 201.0 L 99.0 205.5 L 99.0 196.5 Z" style="stroke:black;fill:black;stroke-linecap:butt;stroke-linejoin:miter;" /><path d="M 90.0,198.0 L 90.0,174.0" style="stroke:black;fill:none;stroke-width:2.0;stroke-dasharray:-;stroke-linecap:round;stroke-linejoin:round;" /><path d="M 75.0,185.99999999999997 L 90.0,185.99999999999997" style="stroke:black;fill:none;stroke-width:2.0;stroke-dasharray:-;stroke-linecap:round;stroke-linejoin:round;" /><path d="M 108.0,216.0 L 108.0,230.4 L 99.0,230.4 L 117.0,230.4 M 101.7,234.71999999999997 L 114.3,234.71999999999997 M 106.2,239.04 L 109.8,239.04" style="stroke:black;fill:none;stroke-width:2.0;stroke-dasharray:-;stroke-linecap:round;stroke-linejoin:round;" /><path d="M 75.0,185.99999999999997 L -32.99999999999999,185.99999999999997 L -141.0,185.99999999999994" style="stroke:black;fill:none;stroke-width:2.0;stroke-dasharray:-;stroke-linecap:round;stroke-linejoin:round;" /><path d="M -174.0,155.99999999999994 L -174.0,170.99999999999994 L -158.99999999999997,170.99999999999994 L -158.99999999999997,200.99999999999994 L -174.0,200.99999999999994 L -174.0,215.99999999999994" style="stroke:black;fill:none;stroke-width:2.0;stroke-dasharray:-;stroke-linecap:round;stroke-linejoin:round;" /><path d="M -158.99999999999997,200.99999999999994 L -165.0,200.99999999999994" style="stroke:black;fill:none;stroke-width:2.0;stroke-dasharray:-;stroke-linecap:round;stroke-linejoin:round;" /><path d="M -172.0 200.99999999999994 L -165.0 196.49999999999994 L -165.0 205.49999999999994 Z" style="stroke:black;fill:black;stroke-linecap:butt;stroke-linejoin:miter;" /><path d="M -156.0,173.99999999999994 L -156.0,197.99999999999994" style="stroke:black;fill:none;stroke-width:2.0;stroke-dasharray:-;stroke-linecap:round;stroke-linejoin:round;" /><path d="M -156.0,185.99999999999994 L -141.0,185.99999999999994" style="stroke:black;fill:none;stroke-width:2.0;stroke-dasharray:-;stroke-linecap:round;stroke-linejoin:round;" /><path d="M -174.0,215.99999999999994 L -174.0,230.39999999999995 L -183.0,230.39999999999995 L -165.0,230.39999999999995 M -180.29999999999998,234.7199999999999 L -167.7,234.7199999999999 M -175.79999999999998,239.03999999999994 L -172.2,239.03999999999994" style="stroke:black;fill:none;stroke-width:2.0;stroke-dasharray:-;stroke-linecap:round;stroke-linejoin:round;" /><path d="M -174.0,155.99999999999994 L -174.0,146.99999999999994 L -174.0,137.99999999999994" style="stroke:black;fill:none;stroke-width:2.0;stroke-dasharray:-;stroke-linecap:round;stroke-linejoin:round;" /><path d="M -174.0,137.99999999999994 L -174.0,20.999999999999957 L -174.0,-96.00000000000004" style="stroke:black;fill:none;stroke-width:2.0;stroke-dasharray:-;stroke-linecap:round;stroke-linejoin:round;" /><path d="M -174.0,-96.00000000000004 L -174.0,-114.00000000000004 L -174.0,-114.00000000000004 M -174.0,-150.00000000000006 L -174.0,-150.00000000000006 L -174.0,-168.00000000000006" style="stroke:black;fill:none;stroke-width:2.0;stroke-dasharray:-;stroke-linecap:round;stroke-linejoin:round;" /><path d="M -174.0,-132.00000000000006 L -174.0,-141.00000000000006" style="stroke:black;fill:none;stroke-width:2.0;stroke-dasharray:-;stroke-linecap:round;stroke-linejoin:round;" /><path d="M -174.0 -125.00000000000004 L -176.7 -132.00000000000006 L -171.3 -132.00000000000006 Z" style="stroke:black;fill:black;stroke-linecap:butt;stroke-linejoin:miter;" /><path d="M -174.0,137.99999999999994 L -147.0,137.99999999999994 L -119.99999999999999,137.99999999999994" style="stroke:black;fill:none;stroke-width:2.0;stroke-dasharray:-;stroke-linecap:round;stroke-linejoin:round;" /><path d="M -119.99999999999999,137.99999999999994 L -119.99999999999999,161.99999999999994 L -120.0,185.99999999999994" style="stroke:black;fill:none;stroke-width:2.0;stroke-dasharray:-;stroke-linecap:round;stroke-linejoin:round;" /><path d="M 108.0,138.0 L 162.0,138.0 L 216.0,138.0" style="stroke:black;fill:none;stroke-width:2.0;stroke-dasharray:-;stroke-linecap:round;stroke-linejoin:round;" /><path d="M 216.0,138.0 L 216.0,129.0 L 216.0,119.99999999999999" style="stroke:black;fill:none;stroke-width:2.0;stroke-dasharray:-;stroke-linecap:round;stroke-linejoin:round;" /><path d="M 216.0,59.99999999999999 L 216.0,74.99999999999999 L 231.0,74.99999999999999 L 231.0,105.0 L 216.0,105.0 L 216.0,119.99999999999999" style="stroke:black;fill:none;stroke-width:2.0;stroke-dasharray:-;stroke-linecap:round;stroke-linejoin:round;" /><path d="M 231.0,105.0 L 225.0,105.0" style="stroke:black;fill:none;stroke-width:2.0;stroke-dasharray:-;stroke-linecap:round;stroke-linejoin:round;" /><path d="M 218.0 105.0 L 225.0 100.5 L 225.0 109.5 Z" style="stroke:black;fill:black;stroke-linecap:butt;stroke-linejoin:miter;" /><path d="M 234.0,78.0 L 234.0,101.99999999999999" style="stroke:black;fill:none;stroke-width:2.0;stroke-dasharray:-;stroke-linecap:round;stroke-linejoin:round;" /><path d="M 234.0,90.0 L 248.99999999999997,90.0" style="stroke:black;fill:none;stroke-width:2.0;stroke-dasharray:-;stroke-linecap:round;stroke-linejoin:round;" /><path d="M 216.0,59.99999999999999 L 216.0,45.0 L 201.0,45.0 L 201.0,14.999999999999995 L 216.0,14.999999999999995 L 216.0,-0.0" style="stroke:black;fill:none;stroke-width:2.0;stroke-dasharray:-;stroke-linecap:round;stroke-linejoin:round;" /><path d="M 207.0,45.0 L 201.0,45.0" style="stroke:black;fill:none;stroke-width:2.0;stroke-dasharray:-;stroke-linecap:round;stroke-linejoin:round;" /><path d="M 214.0 45.0 L 207.0 49.5 L 207.0 40.5 Z" style="stroke:black;fill:black;stroke-linecap:butt;stroke-linejoin:miter;" /><path d="M 198.0,42.0 L 198.0,18.0" style="stroke:black;fill:none;stroke-width:2.0;stroke-dasharray:-;stroke-linecap:round;stroke-linejoin:round;" /><path d="M 183.00000000000003,29.999999999999996 L 198.0,29.999999999999996" style="stroke:black;fill:none;stroke-width:2.0;stroke-dasharray:-;stroke-linecap:round;stroke-linejoin:round;" /><path d="M -32.99999999999999,90.0 L -41.99999999999999,90.0 L -50.99999999999999,90.0" style="stroke:black;fill:none;stroke-width:2.0;stroke-dasharray:-;stroke-linecap:round;stroke-linejoin:round;" /><path d="M 248.99999999999997,90.0 L 258.0,90.0 L 267.0,90.0" style="stroke:black;fill:none;stroke-width:2.0;stroke-dasharray:-;stroke-linecap:round;stroke-linejoin:round;" /><path d="M 0.0,-0.0 L 1.102182119232618e-15,-18.0 L 2.204364238465236e-15,-36.0" style="stroke:black;fill:none;stroke-width:2.0;stroke-dasharray:-;stroke-linecap:round;stroke-linejoin:round;" /><path d="M 2.204364238465236e-15,-36.0 L 2.7554552980815448e-15,-45.0 L 3.3065463576978533e-15,-54.0" style="stroke:black;fill:none;stroke-width:2.0;stroke-dasharray:-;stroke-linecap:round;stroke-linejoin:round;" /><path d="M 3.3065463576978533e-15,-114.0 L 3.3065463576978533e-15,-99.0 L 15.000000000000004,-99.0 L 15.000000000000004,-69.0 L 3.3065463576978533e-15,-69.0 L 3.3065463576978533e-15,-54.0" style="stroke:black;fill:none;stroke-width:2.0;stroke-dasharray:-;stroke-linecap:round;stroke-linejoin:round;" /><path d="M 3.3065463576978533e-15,-99.0 L 6.000000000000003,-99.0" style="stroke:black;fill:none;stroke-width:2.0;stroke-dasharray:-;stroke-linecap:round;stroke-linejoin:round;" /><path d="M 13.000000000000004 -99.0 L 6.0000000000000036 -94.5 L 6.0000000000000036 -103.5 Z" style="stroke:black;fill:black;stroke-linecap:butt;stroke-linejoin:miter;" /><path d="M 18.0,-96.0 L 18.0,-71.99999999999999" style="stroke:black;fill:none;stroke-width:2.0;stroke-dasharray:-;stroke-linecap:round;stroke-linejoin:round;" /><path d="M 18.0,-83.99999999999999 L 33.0,-83.99999999999999" style="stroke:black;fill:none;stroke-width:2.0;stroke-dasharray:-;stroke-linecap:round;stroke-linejoin:round;" /><path d="M 3.3065463576978533e-15,-114.0 L 3.582091887506008e-15,-118.5 L 3.857637417314163e-15,-123.0" style="stroke:black;fill:none;stroke-width:2.0;stroke-dasharray:-;stroke-linecap:round;stroke-linejoin:round;" /><path d="M 3.857637417314163e-15,-183.0 L 3.857637417314163e-15,-167.99999999999997 L 15.000000000000004,-167.99999999999997 L 15.000000000000004,-138.0 L 3.857637417314163e-15,-138.0 L 3.857637417314163e-15,-123.0" style="stroke:black;fill:none;stroke-width:2.0;stroke-dasharray:-;stroke-linecap:round;stroke-linejoin:round;" /><path d="M 3.857637417314163e-15,-167.99999999999997 L 6.000000000000003,-167.99999999999997" style="stroke:black;fill:none;stroke-width:2.0;stroke-dasharray:-;stroke-linecap:round;stroke-linejoin:round;" /><path d="M 13.000000000000004 -167.99999999999997 L 6.0000000000000036 -163.49999999999997 L 6.0000000000000036 -172.49999999999997 Z" style="stroke:black;fill:black;stroke-linecap:butt;stroke-linejoin:miter;" /><path d="M 18.0,-165.0 L 18.0,-140.99999999999997" style="stroke:black;fill:none;stroke-width:2.0;stroke-dasharray:-;stroke-linecap:round;stroke-linejoin:round;" /><path d="M 18.0,-153.0 L 33.0,-153.0" style="stroke:black;fill:none;stroke-width:2.0;stroke-dasharray:-;stroke-linecap:round;stroke-linejoin:round;" /><path d="M 216.0,-0.0 L 216.0,-18.0 L 216.0,-36.0" style="stroke:black;fill:none;stroke-width:2.0;stroke-dasharray:-;stroke-linecap:round;stroke-linejoin:round;" /><path d="M 216.0,-36.0 L 243.0,-36.0 L 270.0,-36.0" style="stroke:black;fill:none;stroke-width:2.0;stroke-dasharray:-;stroke-linecap:round;stroke-linejoin:round;" /><path d="M 216.0,-36.0 L 216.0,-45.0 L 216.0,-54.0" style="stroke:black;fill:none;stroke-width:2.0;stroke-dasharray:-;stroke-linecap:round;stroke-linejoin:round;" /><path d="M 216.0,-54.0 L 216.0,-69.0 L 201.0,-69.0 L 201.0,-99.0 L 216.0,-99.0 L 216.0,-114.0" style="stroke:black;fill:none;stroke-width:2.0;stroke-dasharray:-;stroke-linecap:round;stroke-linejoin:round;" /><path d="M 210.0,-99.0 L 216.0,-99.0" style="stroke:black;fill:none;stroke-width:2.0;stroke-dasharray:-;stroke-linecap:round;stroke-linejoin:round;" /><path d="M 203.0 -99.0 L 210.0 -103.5 L 210.0 -94.5 Z" style="stroke:black;fill:black;stroke-linecap:butt;stroke-linejoin:miter;" /><path d="M 198.0,-71.99999999999999 L 198.0,-96.0" style="stroke:black;fill:none;stroke-width:2.0;stroke-dasharray:-;stroke-linecap:round;stroke-linejoin:round;" /><path d="M 183.00000000000003,-83.99999999999999 L 198.0,-83.99999999999999" style="stroke:black;fill:none;stroke-width:2.0;stroke-dasharray:-;stroke-linecap:round;stroke-linejoin:round;" /><path d="M 216.0,-114.0 L 216.0,-118.5 L 216.0,-123.0" style="stroke:black;fill:none;stroke-width:2.0;stroke-dasharray:-;stroke-linecap:round;stroke-linejoin:round;" /><path d="M 216.0,-123.0 L 216.0,-138.0 L 201.0,-138.0 L 201.0,-167.99999999999997 L 216.0,-167.99999999999997 L 216.0,-183.0" style="stroke:black;fill:none;stroke-width:2.0;stroke-dasharray:-;stroke-linecap:round;stroke-linejoin:round;" /><path d="M 210.0,-167.99999999999997 L 216.0,-167.99999999999997" style="stroke:black;fill:none;stroke-width:2.0;stroke-dasharray:-;stroke-linecap:round;stroke-linejoin:round;" /><path d="M 203.0 -167.99999999999997 L 210.0 -172.49999999999997 L 210.0 -163.49999999999997 Z" style="stroke:black;fill:black;stroke-linecap:butt;stroke-linejoin:miter;" /><path d="M 198.0,-140.99999999999997 L 198.0,-165.0" style="stroke:black;fill:none;stroke-width:2.0;stroke-dasharray:-;stroke-linecap:round;stroke-linejoin:round;" /><path d="M 183.00000000000003,-153.0 L 198.0,-153.0" style="stroke:black;fill:none;stroke-width:2.0;stroke-dasharray:-;stroke-linecap:round;stroke-linejoin:round;" /><path d="M 183.00000000000003,-153.0 L 108.00000000000001,-153.0 L 33.000000000000014,-153.00000000000003" style="stroke:black;fill:none;stroke-width:2.0;stroke-dasharray:-;stroke-linecap:round;stroke-linejoin:round;" /><path d="M 2.204364238465236e-15,-36.0 L 27.000000000000004,-36.0 L 54.0,-36.0" style="stroke:black;fill:none;stroke-width:2.0;stroke-dasharray:-;stroke-linecap:round;stroke-linejoin:round;" /><path d="M 54.0,-36.0 L 54.0,-94.5 L 54.00000000000001,-153.0" style="stroke:black;fill:none;stroke-width:2.0;stroke-dasharray:-;stroke-linecap:round;stroke-linejoin:round;" /><path d="M 32.99999999999999,29.999999999999996 L 70.5,29.999999999999996 L 108.0,29.999999999999996" style="stroke:black;fill:none;stroke-width:2.0;stroke-dasharray:-;stroke-linecap:round;stroke-linejoin:round;" /><path d="M 108.0,29.999999999999996 L 145.5,29.999999999999996 L 183.00000000000003,29.999999999999996" style="stroke:black;fill:none;stroke-width:2.0;stroke-dasharray:-;stroke-linecap:round;stroke-linejoin:round;" /><path d="M 108.0,29.999999999999996 L 108.0,66.0 L 108.0,66.0 M 107.99999999999999,101.99999999999999 L 107.99999999999999,101.99999999999999 L 107.99999999999999,138.0" style="stroke:black;fill:none;stroke-width:2.0;stroke-dasharray:-;stroke-linecap:round;stroke-linejoin:round;" /><path d="M 111.6,92.99999999999999 L 104.39999999999998,92.99999999999999" style="stroke:black;fill:none;stroke-width:2.0;stroke-dasharray:-;stroke-linecap:round;stroke-linejoin:round;" /><path d="M 108.0,71.39999999999999 L 107.99999999999999,78.60000000000001" style="stroke:black;fill:none;stroke-width:2.0;stroke-dasharray:-;stroke-linecap:round;stroke-linejoin:round;" /><path d="M 111.6,74.99999999999999 L 104.39999999999999,74.99999999999999" style="stroke:black;fill:none;stroke-width:2.0;stroke-dasharray:-;stroke-linecap:round;stroke-linejoin:round;" /><path d="M 33.0,-83.99999999999999 L 70.5,-83.99999999999999 L 108.0,-83.99999999999999" style="stroke:black;fill:none;stroke-width:2.0;stroke-dasharray:-;stroke-linecap:round;stroke-linejoin:round;" /><path d="M 108.0,-83.99999999999999 L 145.5,-83.99999999999999 L 183.00000000000003,-83.99999999999999" style="stroke:black;fill:none;stroke-width:2.0;stroke-dasharray:-;stroke-linecap:round;stroke-linejoin:round;" /><path d="M 108.0,-83.99999999999999 L 108.0,-101.99999999999999 L 108.0,-101.99999999999999 M 108.0,-138.0 L 108.0,-138.0 L 108.0,-156.0" style="stroke:black;fill:none;stroke-width:2.0;stroke-dasharray:-;stroke-linecap:round;stroke-linejoin:round;" /><path d="M 111.60000000000001,-110.99999999999999 L 104.39999999999999,-110.99999999999999" style="stroke:black;fill:none;stroke-width:2.0;stroke-dasharray:-;stroke-linecap:round;stroke-linejoin:round;" /><path d="M 108.0,-125.39999999999999 L 108.0,-132.6" style="stroke:black;fill:none;stroke-width:2.0;stroke-dasharray:-;stroke-linecap:round;stroke-linejoin:round;" /><path d="M 111.60000000000001,-129.0 L 104.39999999999999,-129.0" style="stroke:black;fill:none;stroke-width:2.0;stroke-dasharray:-;stroke-linecap:round;stroke-linejoin:round;" /><path d="M 108.0,-156.0 L 108.0,-169.5 L 108.0,-183.0" style="stroke:black;fill:none;stroke-width:2.0;stroke-dasharray:-;stroke-linecap:round;stroke-linejoin:round;" /><path d="M -174.0,-168.00000000000006 L -174.0,-175.5 L -174.0,-183.0" style="stroke:black;fill:none;stroke-width:2.0;stroke-dasharray:-;stroke-linecap:round;stroke-linejoin:round;" /><path d="M -192.0,-183.0 L 20.99999999999999,-183.0 L 233.99999999999997,-183.0" style="stroke:black;fill:none;stroke-width:3;stroke-dasharray:-;stroke-linecap:round;stroke-linejoin:round;" /><g><g><g><path d="M -20.285 33.509 L -20.285 33.509 L -24.557 33.509 L -24.461 33.029 Q -23.869 33.029 -23.557 32.917 Q -23.245 32.805 -23.085 32.493 Q -22.925 32.181 -22.813 31.605 L -21.389 24.693 L -21.453 24.693 L -26.829 33.509 L -27.181 33.509 L -29.117 24.709 L -29.181 24.709 L -30.509 31.173 Q -30.669 31.989 -30.645 32.389 Q -30.621 32.789 -30.333 32.909 Q -30.045 33.029 -29.437 33.029 L -29.533 33.509 L -33.229 33.509 L -33.133 33.029 Q -32.509 33.029 -32.173 32.909 Q -31.837 32.789 -31.645 32.389 Q -31.453 31.989 -31.293 31.173 L -30.029 24.949 Q -29.901 24.341 -29.949 24.029 Q -29.997 23.717 -30.293 23.597 Q -30.589 23.477 -31.229 23.477 L -31.133 22.997 L -27.933 22.997 L -26.205 31.093 L -26.141 31.093 L -21.261 22.997 L -18.237 22.997 L -18.333 23.477 Q -18.893 23.477 -19.221 23.597 Q -19.549 23.717 -19.725 24.029 Q -19.901 24.341 -20.029 24.933 L -21.389 31.605 Q -21.565 32.485 -21.301 32.757 Q -21.037 33.029 -20.189 33.029 Z " fill="black" /><path d="M -13.398 36.869 L -13.398 36.869 L -17.195 36.869 L -17.195 36.466 Q -16.389 36.466 -16.126 36.303 Q -15.862 36.141 -15.862 35.715 L -15.862 30.832 Q -15.862 30.53 -15.952 30.395 Q -16.042 30.261 -16.277 30.261 Q -16.456 30.261 -16.764 30.311 Q -17.072 30.362 -17.296 30.418 L -17.296 29.97 L -15.224 29.398 L -14.742 29.398 L -14.742 35.715 Q -14.742 36.141 -14.457 36.303 Q -14.171 36.466 -13.398 36.466 Z " fill="black" /><path d="M -4.987 35.043 L -4.987 35.043 L -4.651 35.323 Q -4.954 35.794 -5.39 36.174 Q -5.827 36.555 -6.443 36.779 Q -7.059 37.003 -7.899 37.003 Q -9.758 37.003 -10.783 35.973 Q -11.808 34.942 -11.808 32.982 Q -11.808 31.672 -11.287 30.748 Q -10.766 29.824 -9.848 29.331 Q -8.93 28.838 -7.742 28.838 Q -7.093 28.838 -6.712 28.945 Q -6.331 29.051 -6.113 29.163 Q -5.894 29.275 -5.749 29.275 Q -5.626 29.275 -5.542 29.169 Q -5.458 29.062 -5.312 28.861 L -4.909 28.861 L -4.909 31.65 L -5.379 31.65 Q -5.592 30.462 -6.191 29.947 Q -6.79 29.432 -7.798 29.432 Q -8.65 29.432 -9.232 29.852 Q -9.814 30.272 -10.111 31.034 Q -10.408 31.795 -10.408 32.814 Q -10.408 33.968 -10.033 34.685 Q -9.658 35.402 -8.997 35.732 Q -8.336 36.062 -7.485 36.062 Q -6.656 36.062 -6.074 35.81 Q -5.491 35.558 -4.987 35.043 Z " fill="black" /></g></g></g><g><g><g><path d="M 12.883 93.576 L 12.883 93.576 L 8.611 93.576 L 8.707 93.096 Q 9.299 93.096 9.611 92.984 Q 9.923 92.872 10.083 92.56 Q 10.243 92.248 10.355 91.672 L 11.779 84.76 L 11.715 84.76 L 6.339 93.576 L 5.987 93.576 L 4.051 84.776 L 3.987 84.776 L 2.659 91.24 Q 2.499 92.056 2.523 92.456 Q 2.547 92.856 2.835 92.976 Q 3.123 93.096 3.731 93.096 L 3.635 93.576 L -0.061 93.576 L 0.035 93.096 Q 0.659 93.096 0.995 92.976 Q 1.331 92.856 1.523 92.456 Q 1.715 92.056 1.875 91.24 L 3.139 85.016 Q 3.267 84.408 3.219 84.096 Q 3.171 83.784 2.875 83.664 Q 2.579 83.544 1.939 83.544 L 2.035 83.064 L 5.235 83.064 L 6.963 91.16 L 7.027 91.16 L 11.907 83.064 L 14.931 83.064 L 14.835 83.544 Q 14.275 83.544 13.947 83.664 Q 13.619 83.784 13.443 84.096 Q 13.267 84.408 13.139 85 L 11.779 91.672 Q 11.603 92.552 11.867 92.824 Q 12.131 93.096 12.979 93.096 Z " fill="black" /><path d="M 19.77 96.936 L 19.77 96.936 L 15.973 96.936 L 15.973 96.533 Q 16.779 96.533 17.042 96.37 Q 17.306 96.208 17.306 95.782 L 17.306 90.899 Q 17.306 90.597 17.216 90.462 Q 17.126 90.328 16.891 90.328 Q 16.712 90.328 16.404 90.378 Q 16.096 90.429 15.872 90.485 L 15.872 90.037 L 17.944 89.466 L 18.426 89.466 L 18.426 95.782 Q 18.426 96.208 18.711 96.37 Q 18.997 96.533 19.77 96.533 Z " fill="black" /></g></g></g><circle cx="108.0" cy="138.0" r="2.6999999999999997" style="stroke:black;fill:black;stroke-width:2.0;stroke-dasharray:-;" /><g><g><g><path d="M 120.962 189.503 L 120.962 189.503 L 116.69 189.503 L 116.786 189.023 Q 117.378 189.023 117.69 188.911 Q 118.002 188.799 118.162 188.487 Q 118.322 188.175 118.434 187.599 L 119.858 180.687 L 119.794 180.687 L 114.418 189.503 L 114.066 189.503 L 112.13 180.703 L 112.066 180.703 L 110.738 187.167 Q 110.578 187.983 110.602 188.383 Q 110.626 188.783 110.914 188.903 Q 111.202 189.023 111.81 189.023 L 111.714 189.503 L 108.018 189.503 L 108.114 189.023 Q 108.738 189.023 109.074 188.903 Q 109.41 188.783 109.602 188.383 Q 109.794 187.983 109.954 187.167 L 111.218 180.943 Q 111.346 180.335 111.298 180.023 Q 111.25 179.711 110.954 179.591 Q 110.658 179.471 110.018 179.471 L 110.114 178.991 L 113.314 178.991 L 115.042 187.087 L 115.106 187.087 L 119.986 178.991 L 123.01 178.991 L 122.914 179.471 Q 122.354 179.471 122.026 179.591 Q 121.698 179.711 121.522 180.023 Q 121.346 180.335 121.218 180.927 L 119.858 187.599 Q 119.682 188.479 119.946 188.751 Q 120.21 189.023 121.058 189.023 Z " fill="black" /><path d="M 127.658 186.502 L 127.658 186.502 L 124.88 186.502 L 124.634 187.857 L 125.126 187.879 Q 125.642 187.89 126.151 188.019 Q 126.661 188.148 127.086 188.422 Q 127.512 188.697 127.77 189.162 Q 128.027 189.626 128.027 190.321 Q 128.027 191.25 127.618 191.844 Q 127.21 192.438 126.493 192.723 Q 125.776 193.009 124.824 193.009 Q 124.13 193.009 123.805 192.835 Q 123.48 192.662 123.48 192.326 Q 123.48 192.113 123.609 191.95 Q 123.738 191.788 123.962 191.788 Q 124.186 191.788 124.421 191.939 Q 124.656 192.09 124.93 192.242 Q 125.205 192.393 125.563 192.393 Q 125.978 192.393 126.33 192.23 Q 126.683 192.068 126.907 191.721 Q 127.131 191.374 127.131 190.802 Q 127.131 190.086 126.834 189.671 Q 126.538 189.257 125.972 189.078 Q 125.406 188.898 124.611 188.876 Q 124.365 188.876 124.258 188.876 Q 124.152 188.876 124.051 188.865 L 123.883 188.697 L 124.544 185.516 L 127.803 185.516 Z " fill="black" /></g></g></g><g><g><g><path d="M -186.109 189.498 L -186.109 189.498 L -190.381 189.498 L -190.285 189.018 Q -189.693 189.018 -189.381 188.906 Q -189.069 188.794 -188.909 188.482 Q -188.749 188.17 -188.637 187.594 L -187.213 180.682 L -187.277 180.682 L -192.653 189.498 L -193.005 189.498 L -194.941 180.698 L -195.005 180.698 L -196.333 187.162 Q -196.493 187.978 -196.469 188.378 Q -196.445 188.778 -196.157 188.898 Q -195.869 189.018 -195.261 189.018 L -195.357 189.498 L -199.053 189.498 L -198.957 189.018 Q -198.333 189.018 -197.997 188.898 Q -197.661 188.778 -197.469 188.378 Q -197.277 187.978 -197.117 187.162 L -195.853 180.938 Q -195.725 180.33 -195.773 180.018 Q -195.821 179.706 -196.117 179.586 Q -196.413 179.466 -197.053 179.466 L -196.957 178.986 L -193.757 178.986 L -192.029 187.082 L -191.965 187.082 L -187.085 178.986 L -184.061 178.986 L -184.157 179.466 Q -184.717 179.466 -185.045 179.586 Q -185.373 179.706 -185.549 180.018 Q -185.725 180.33 -185.853 180.922 L -187.213 187.594 Q -187.389 188.474 -187.125 188.746 Q -186.861 189.018 -186.013 189.018 Z " fill="black" /><path d="M -179.01 185.331 L -179.01 185.331 L -178.998 185.701 Q -179.816 185.802 -180.505 186.188 Q -181.194 186.574 -181.67 187.213 Q -182.146 187.851 -182.314 188.714 L -182.224 188.725 Q -181.854 188.389 -181.49 188.176 Q -181.126 187.963 -180.645 187.963 Q -180.006 187.963 -179.519 188.266 Q -179.032 188.568 -178.752 189.128 Q -178.472 189.688 -178.472 190.483 Q -178.472 191.682 -179.138 192.348 Q -179.805 193.014 -180.936 193.014 Q -181.81 193.014 -182.375 192.6 Q -182.941 192.186 -183.215 191.463 Q -183.49 190.741 -183.49 189.8 Q -183.49 188.355 -182.902 187.37 Q -182.314 186.384 -181.3 185.869 Q -180.286 185.354 -179.01 185.331 Z M -179.57 190.562 L -179.57 190.562 Q -179.57 189.733 -179.934 189.234 Q -180.298 188.736 -181.014 188.736 Q -181.563 188.736 -181.961 189.044 Q -182.358 189.352 -182.358 190.114 Q -182.358 191.222 -181.994 191.872 Q -181.63 192.522 -180.869 192.522 Q -180.264 192.522 -179.917 192.085 Q -179.57 191.648 -179.57 190.562 Z " fill="black" /></g></g></g><circle cx="-174.0" cy="137.99999999999994" r="2.6999999999999997" style="stroke:black;fill:black;stroke-width:2.0;stroke-dasharray:-;" /><g><g><g><path d="M -223.032 -130.593 L -223.032 -130.593 L -221.72 -136.897 Q -221.576 -137.521 -221.584 -137.881 Q -221.592 -138.241 -221.88 -138.385 Q -222.168 -138.529 -222.904 -138.529 L -222.808 -139.009 L -218.376 -139.009 L -218.472 -138.529 Q -219.176 -138.529 -219.528 -138.385 Q -219.88 -138.241 -220.024 -137.881 Q -220.168 -137.521 -220.296 -136.897 L -221.608 -130.529 Q -221.656 -130.273 -221.688 -130.065 Q -221.72 -129.857 -221.72 -129.681 Q -221.72 -129.233 -221.456 -129.105 Q -221.192 -128.977 -220.44 -128.977 L -220.536 -128.497 L -224.904 -128.497 L -224.808 -128.977 Q -224.152 -128.977 -223.824 -129.089 Q -223.496 -129.201 -223.336 -129.545 Q -223.176 -129.889 -223.032 -130.593 Z " fill="black" /><path d="M -216.035 -133.503 L -216.035 -133.503 L -216.035 -130.031 L -215.979 -130.031 Q -215.654 -130.412 -215.212 -130.714 Q -214.77 -131.017 -214.142 -131.017 Q -213.56 -131.017 -213.084 -130.664 Q -212.608 -130.311 -212.322 -129.69 Q -212.037 -129.068 -212.037 -128.262 Q -212.037 -127.186 -212.429 -126.458 Q -212.821 -125.73 -213.498 -125.366 Q -214.176 -125.002 -215.038 -125.002 Q -215.542 -125.002 -215.968 -125.086 Q -216.394 -125.17 -216.69 -125.282 Q -216.987 -125.394 -217.122 -125.45 L -217.122 -132.17 Q -217.122 -132.585 -217.211 -132.702 Q -217.301 -132.82 -217.682 -132.82 Q -217.805 -132.82 -217.911 -132.803 Q -218.018 -132.786 -218.018 -132.786 L -218.018 -133.212 L -216.494 -133.503 Z M -216.035 -129.449 L -216.035 -129.449 L -216.035 -126.089 Q -215.901 -125.842 -215.61 -125.697 Q -215.318 -125.551 -214.837 -125.551 Q -214.243 -125.551 -213.885 -125.87 Q -213.526 -126.19 -213.364 -126.722 Q -213.202 -127.254 -213.202 -127.881 Q -213.202 -128.452 -213.33 -128.973 Q -213.459 -129.494 -213.784 -129.818 Q -214.109 -130.143 -214.68 -130.143 Q -214.982 -130.143 -215.257 -130.026 Q -215.531 -129.908 -215.733 -129.746 Q -215.934 -129.583 -216.035 -129.449 Z " fill="black" /><path d="M -207.949 -125.551 L -207.949 -125.551 L -207.949 -125.137 L -210.794 -125.137 L -210.794 -125.551 Q -210.402 -125.551 -210.228 -125.635 Q -210.054 -125.719 -210.01 -125.904 Q -209.965 -126.089 -209.965 -126.391 L -209.965 -129.774 Q -209.965 -130.154 -210.088 -130.233 Q -210.211 -130.311 -210.502 -130.311 Q -210.648 -130.311 -210.738 -130.3 Q -210.827 -130.289 -210.827 -130.289 L -210.827 -130.737 L -209.326 -130.983 L -208.867 -130.983 L -208.867 -126.391 Q -208.867 -126.066 -208.817 -125.882 Q -208.766 -125.697 -208.57 -125.624 Q -208.374 -125.551 -207.949 -125.551 Z M -209.427 -133.458 L -209.427 -133.458 Q -209.102 -133.458 -208.884 -133.234 Q -208.666 -133.01 -208.666 -132.719 Q -208.666 -132.45 -208.884 -132.226 Q -209.102 -132.002 -209.427 -132.002 Q -209.741 -132.002 -209.948 -132.226 Q -210.155 -132.45 -210.155 -132.719 Q -210.155 -133.01 -209.948 -133.234 Q -209.741 -133.458 -209.427 -133.458 Z " fill="black" /><path d="M -203.469 -125.842 L -203.469 -125.842 L -203.547 -125.842 Q -203.928 -125.529 -204.387 -125.294 Q -204.846 -125.058 -205.384 -125.058 Q -206.09 -125.058 -206.465 -125.484 Q -206.84 -125.91 -206.84 -126.514 Q -206.84 -127.03 -206.599 -127.377 Q -206.358 -127.724 -205.972 -127.942 Q -205.586 -128.161 -205.138 -128.295 Q -204.69 -128.43 -204.275 -128.508 Q -203.861 -128.586 -203.581 -128.654 L -203.581 -129.236 Q -203.581 -129.986 -203.878 -130.272 Q -204.174 -130.558 -204.746 -130.558 Q -205.093 -130.558 -205.244 -130.468 Q -205.395 -130.378 -205.434 -130.177 Q -205.474 -129.975 -205.485 -129.65 Q -205.496 -129.404 -205.63 -129.253 Q -205.765 -129.102 -206.022 -129.102 Q -206.269 -129.102 -206.442 -129.253 Q -206.616 -129.404 -206.616 -129.695 Q -206.616 -130.042 -206.347 -130.345 Q -206.078 -130.647 -205.58 -130.832 Q -205.082 -131.017 -204.41 -131.017 Q -203.402 -131.017 -202.948 -130.552 Q -202.494 -130.087 -202.494 -129.158 L -202.494 -126.414 Q -202.494 -126.044 -202.41 -125.938 Q -202.326 -125.831 -202.147 -125.831 Q -201.957 -125.831 -201.817 -125.91 Q -201.677 -125.988 -201.554 -126.134 L -201.307 -125.898 Q -201.89 -125.07 -202.674 -125.07 Q -203.11 -125.07 -203.273 -125.277 Q -203.435 -125.484 -203.469 -125.842 Z M -203.581 -126.257 L -203.581 -126.257 L -203.581 -128.228 Q -204.096 -128.094 -204.589 -127.931 Q -205.082 -127.769 -205.401 -127.489 Q -205.72 -127.209 -205.72 -126.705 Q -205.72 -126.268 -205.468 -126.016 Q -205.216 -125.764 -204.824 -125.764 Q -204.589 -125.764 -204.258 -125.87 Q -203.928 -125.977 -203.581 -126.257 Z " fill="black" /><path d="M -200.534 -127.175 L -200.534 -127.175 L -200.176 -127.175 Q -200.03 -126.526 -199.829 -126.167 Q -199.627 -125.809 -199.308 -125.669 Q -198.989 -125.529 -198.53 -125.529 Q -198.003 -125.529 -197.718 -125.702 Q -197.432 -125.876 -197.432 -126.313 Q -197.432 -126.604 -197.572 -126.8 Q -197.712 -126.996 -198.02 -127.175 Q -198.328 -127.354 -198.843 -127.59 Q -199.37 -127.847 -199.745 -128.071 Q -200.12 -128.295 -200.316 -128.598 Q -200.512 -128.9 -200.512 -129.359 Q -200.512 -130.166 -199.969 -130.591 Q -199.426 -131.017 -198.608 -131.017 Q -198.115 -131.017 -197.774 -130.894 Q -197.432 -130.77 -197.23 -130.681 L -197.208 -130.681 L -197.029 -130.961 L -196.715 -130.961 L -196.693 -129.102 L -197.085 -129.102 Q -197.298 -129.964 -197.678 -130.261 Q -198.059 -130.558 -198.552 -130.558 Q -199.067 -130.558 -199.33 -130.334 Q -199.594 -130.11 -199.594 -129.751 Q -199.594 -129.46 -199.414 -129.27 Q -199.235 -129.079 -198.905 -128.917 Q -198.574 -128.754 -198.115 -128.53 Q -197.6 -128.284 -197.208 -128.021 Q -196.816 -127.758 -196.592 -127.427 Q -196.368 -127.097 -196.368 -126.604 Q -196.368 -126.01 -196.682 -125.652 Q -196.995 -125.294 -197.488 -125.142 Q -197.981 -124.991 -198.518 -124.991 Q -199.067 -124.991 -199.37 -125.103 Q -199.672 -125.215 -199.93 -125.316 L -199.974 -125.316 L -200.254 -125.025 L -200.512 -125.025 Z " fill="black" /></g></g></g><circle cx="-120.0" cy="185.99999999999994" r="2.6999999999999997" style="stroke:black;fill:black;stroke-width:2.0;stroke-dasharray:-;" /><g><g><g><path d="M 204.115 93.576 L 204.115 93.576 L 199.843 93.576 L 199.939 93.096 Q 200.531 93.096 200.843 92.984 Q 201.155 92.872 201.315 92.56 Q 201.475 92.248 201.587 91.672 L 203.011 84.76 L 202.947 84.76 L 197.571 93.576 L 197.219 93.576 L 195.283 84.776 L 195.219 84.776 L 193.891 91.24 Q 193.731 92.056 193.755 92.456 Q 193.779 92.856 194.067 92.976 Q 194.355 93.096 194.963 93.096 L 194.867 93.576 L 191.171 93.576 L 191.267 93.096 Q 191.891 93.096 192.227 92.976 Q 192.563 92.856 192.755 92.456 Q 192.947 92.056 193.107 91.24 L 194.371 85.016 Q 194.499 84.408 194.451 84.096 Q 194.403 83.784 194.107 83.664 Q 193.811 83.544 193.171 83.544 L 193.267 83.064 L 196.467 83.064 L 198.195 91.16 L 198.259 91.16 L 203.139 83.064 L 206.163 83.064 L 206.067 83.544 Q 205.507 83.544 205.179 83.664 Q 204.851 83.784 204.675 84.096 Q 204.499 84.408 204.371 85 L 203.011 91.672 Q 202.835 92.552 203.099 92.824 Q 203.363 93.096 204.211 93.096 Z " fill="black" /><path d="M 211.64 94.987 L 211.64 94.987 L 211.259 96.936 L 206.667 96.936 L 206.667 96.387 L 208.258 94.774 Q 208.885 94.147 209.294 93.666 Q 209.702 93.184 209.904 92.697 Q 210.106 92.21 210.106 91.582 Q 210.106 90.989 209.742 90.602 Q 209.378 90.216 208.717 90.216 Q 208.112 90.216 207.703 90.457 Q 207.294 90.698 206.981 91.246 L 206.678 91.101 Q 206.958 90.317 207.546 89.869 Q 208.134 89.421 208.997 89.421 Q 209.669 89.421 210.184 89.662 Q 210.699 89.902 210.99 90.35 Q 211.282 90.798 211.282 91.437 Q 211.282 91.986 211.035 92.467 Q 210.789 92.949 210.335 93.453 Q 209.882 93.957 209.254 94.573 L 207.854 95.928 L 207.854 96.006 L 208.728 95.962 L 210.184 95.962 Q 210.509 95.962 210.682 95.872 Q 210.856 95.782 210.979 95.564 Q 211.102 95.346 211.248 94.987 Z " fill="black" /></g></g></g><g><g><g><path d="M 220.147 33.509 L 220.147 33.509 L 215.875 33.509 L 215.971 33.029 Q 216.563 33.029 216.875 32.917 Q 217.187 32.805 217.347 32.493 Q 217.507 32.181 217.619 31.605 L 219.043 24.693 L 218.979 24.693 L 213.603 33.509 L 213.251 33.509 L 211.315 24.709 L 211.251 24.709 L 209.923 31.173 Q 209.763 31.989 209.787 32.389 Q 209.811 32.789 210.099 32.909 Q 210.387 33.029 210.995 33.029 L 210.899 33.509 L 207.203 33.509 L 207.299 33.029 Q 207.923 33.029 208.259 32.909 Q 208.595 32.789 208.787 32.389 Q 208.979 31.989 209.139 31.173 L 210.403 24.949 Q 210.531 24.341 210.483 24.029 Q 210.435 23.717 210.139 23.597 Q 209.843 23.477 209.203 23.477 L 209.299 22.997 L 212.499 22.997 L 214.227 31.093 L 214.291 31.093 L 219.171 22.997 L 222.195 22.997 L 222.099 23.477 Q 221.539 23.477 221.211 23.597 Q 220.883 23.717 220.707 24.029 Q 220.531 24.341 220.403 24.933 L 219.043 31.605 Q 218.867 32.485 219.131 32.757 Q 219.395 33.029 220.243 33.029 Z " fill="black" /><path d="M 227.672 34.92 L 227.672 34.92 L 227.291 36.869 L 222.699 36.869 L 222.699 36.32 L 224.29 34.707 Q 224.917 34.08 225.326 33.598 Q 225.734 33.117 225.936 32.63 Q 226.138 32.142 226.138 31.515 Q 226.138 30.922 225.774 30.535 Q 225.41 30.149 224.749 30.149 Q 224.144 30.149 223.735 30.39 Q 223.326 30.63 223.013 31.179 L 222.71 31.034 Q 222.99 30.25 223.578 29.802 Q 224.166 29.354 225.029 29.354 Q 225.701 29.354 226.216 29.594 Q 226.731 29.835 227.022 30.283 Q 227.314 30.731 227.314 31.37 Q 227.314 31.918 227.067 32.4 Q 226.821 32.882 226.367 33.386 Q 225.914 33.89 225.286 34.506 L 223.886 35.861 L 223.886 35.939 L 224.76 35.894 L 226.216 35.894 Q 226.541 35.894 226.714 35.805 Q 226.888 35.715 227.011 35.497 Q 227.134 35.278 227.28 34.92 Z " fill="black" /><path d="M 235.613 35.043 L 235.613 35.043 L 235.949 35.323 Q 235.646 35.794 235.21 36.174 Q 234.773 36.555 234.157 36.779 Q 233.541 37.003 232.701 37.003 Q 230.842 37.003 229.817 35.973 Q 228.792 34.942 228.792 32.982 Q 228.792 31.672 229.313 30.748 Q 229.834 29.824 230.752 29.331 Q 231.67 28.838 232.858 28.838 Q 233.507 28.838 233.888 28.945 Q 234.269 29.051 234.487 29.163 Q 234.706 29.275 234.851 29.275 Q 234.974 29.275 235.058 29.169 Q 235.142 29.062 235.288 28.861 L 235.691 28.861 L 235.691 31.65 L 235.221 31.65 Q 235.008 30.462 234.409 29.947 Q 233.81 29.432 232.802 29.432 Q 231.95 29.432 231.368 29.852 Q 230.786 30.272 230.489 31.034 Q 230.192 31.795 230.192 32.814 Q 230.192 33.968 230.567 34.685 Q 230.942 35.402 231.603 35.732 Q 232.264 36.062 233.115 36.062 Q 233.944 36.062 234.526 35.81 Q 235.109 35.558 235.613 35.043 Z " fill="black" /></g></g></g><circle cx="-50.99999999999999" cy="90.0" r="2.6999999999999997" style="stroke:black;fill:white;stroke-width:2.0;stroke-dasharray:-;" /><g><g><g><path d="M -82.682 90.282 L -82.682 90.282 L -78.314 83.722 Q -78.09 83.402 -77.954 83.13 Q -77.818 82.858 -77.818 82.666 Q -77.818 82.426 -78.026 82.338 Q -78.234 82.25 -78.778 82.25 L -78.746 81.77 L -75.29 81.77 L -75.322 82.25 Q -75.754 82.25 -76.058 82.378 Q -76.362 82.506 -76.674 82.866 Q -76.986 83.226 -77.482 83.962 L -83.354 92.362 L -83.882 92.362 L -84.778 83.706 Q -84.874 82.906 -85.13 82.578 Q -85.386 82.25 -86.026 82.25 L -85.994 81.77 L -82.074 81.77 L -82.122 82.25 Q -82.73 82.25 -83.082 82.49 Q -83.434 82.73 -83.402 83.274 Q -83.402 83.354 -83.378 83.562 Q -83.354 83.77 -83.354 83.85 L -82.874 88.41 L -82.762 90.282 Z " fill="black" /><path d="M -73.762 95.228 L -73.762 95.228 L -73.762 95.642 L -76.607 95.642 L -76.607 95.228 Q -76.215 95.228 -76.042 95.144 Q -75.868 95.06 -75.823 94.875 Q -75.778 94.69 -75.778 94.388 L -75.778 91.006 Q -75.778 90.625 -75.902 90.546 Q -76.025 90.468 -76.316 90.468 Q -76.462 90.468 -76.551 90.479 Q -76.641 90.49 -76.641 90.49 L -76.641 90.042 L -75.14 89.796 L -74.681 89.796 L -74.681 94.388 Q -74.681 94.713 -74.63 94.898 Q -74.58 95.082 -74.384 95.155 Q -74.188 95.228 -73.762 95.228 Z M -75.241 87.321 L -75.241 87.321 Q -74.916 87.321 -74.698 87.545 Q -74.479 87.769 -74.479 88.06 Q -74.479 88.329 -74.698 88.553 Q -74.916 88.777 -75.241 88.777 Q -75.554 88.777 -75.762 88.553 Q -75.969 88.329 -75.969 88.06 Q -75.969 87.769 -75.762 87.545 Q -75.554 87.321 -75.241 87.321 Z " fill="black" /><path d="M -67.11 91.89 L -67.11 91.89 L -67.11 94.399 Q -67.11 94.713 -67.054 94.898 Q -66.998 95.082 -66.807 95.161 Q -66.617 95.239 -66.214 95.239 L -66.214 95.642 L -69.092 95.642 L -69.092 95.239 Q -68.666 95.239 -68.476 95.161 Q -68.286 95.082 -68.241 94.898 Q -68.196 94.713 -68.196 94.399 L -68.196 92.26 Q -68.196 91.51 -68.37 91.157 Q -68.543 90.804 -68.806 90.692 Q -69.07 90.58 -69.338 90.58 Q -69.82 90.58 -70.184 90.826 Q -70.548 91.073 -70.817 91.297 L -70.817 94.399 Q -70.817 94.713 -70.766 94.898 Q -70.716 95.082 -70.526 95.161 Q -70.335 95.239 -69.921 95.239 L -69.921 95.642 L -72.743 95.642 L -72.743 95.239 Q -72.351 95.239 -72.178 95.161 Q -72.004 95.082 -71.959 94.898 Q -71.914 94.713 -71.914 94.399 L -71.914 90.994 Q -71.914 90.681 -72.032 90.574 Q -72.15 90.468 -72.407 90.468 Q -72.542 90.468 -72.631 90.479 Q -72.721 90.49 -72.721 90.49 L -72.721 90.065 L -71.22 89.796 L -70.85 89.796 L -70.85 90.714 L -70.772 90.714 Q -70.29 90.278 -69.848 90.02 Q -69.406 89.762 -68.846 89.762 Q -68.185 89.762 -67.81 90.059 Q -67.434 90.356 -67.272 90.838 Q -67.11 91.319 -67.11 91.89 Z " fill="black" /><path d="M -64.814 97.322 L -64.814 97.322 L -65.004 96.953 Q -64.769 96.852 -64.522 96.69 Q -64.276 96.527 -64.114 96.23 Q -63.951 95.934 -63.951 95.452 Q -64.142 95.53 -64.343 95.53 Q -64.713 95.53 -64.87 95.312 Q -65.026 95.094 -65.026 94.814 Q -65.026 94.511 -64.825 94.287 Q -64.623 94.063 -64.242 94.063 Q -63.761 94.063 -63.509 94.36 Q -63.257 94.657 -63.257 95.183 Q -63.257 95.721 -63.425 96.096 Q -63.593 96.471 -63.845 96.712 Q -64.097 96.953 -64.36 97.093 Q -64.623 97.233 -64.814 97.322 Z " fill="black" /><path d="M -60.905 89.796 L -60.905 89.796 L -60.905 90.759 L -60.849 90.759 Q -60.412 90.255 -59.975 90.009 Q -59.538 89.762 -59.012 89.762 Q -58.418 89.762 -57.937 90.115 Q -57.455 90.468 -57.17 91.09 Q -56.884 91.711 -56.884 92.518 Q -56.884 93.57 -57.259 94.298 Q -57.634 95.026 -58.256 95.402 Q -58.878 95.777 -59.606 95.777 Q -59.953 95.777 -60.261 95.687 Q -60.569 95.598 -60.826 95.452 L -60.882 95.452 L -60.882 96.886 Q -60.882 97.278 -60.782 97.485 Q -60.681 97.692 -60.423 97.765 Q -60.166 97.838 -59.684 97.838 L -59.684 98.23 L -62.854 98.23 L -62.854 97.849 Q -62.462 97.838 -62.277 97.765 Q -62.092 97.692 -62.03 97.502 Q -61.969 97.311 -61.969 96.964 L -61.969 91.073 Q -61.969 90.748 -62.036 90.608 Q -62.103 90.468 -62.428 90.468 Q -62.529 90.468 -62.686 90.479 Q -62.842 90.49 -62.842 90.49 L -62.842 90.042 L -61.33 89.796 Z M -60.882 91.33 L -60.882 91.33 L -60.882 94.489 Q -60.759 94.612 -60.574 94.797 Q -60.39 94.982 -60.132 95.122 Q -59.874 95.262 -59.572 95.262 Q -59.158 95.262 -58.816 95.01 Q -58.474 94.758 -58.262 94.22 Q -58.049 93.682 -58.049 92.854 Q -58.049 91.801 -58.43 91.218 Q -58.81 90.636 -59.505 90.636 Q -59.953 90.636 -60.322 90.871 Q -60.692 91.106 -60.882 91.33 Z " fill="black" /></g></g></g><circle cx="267.0" cy="90.0" r="2.6999999999999997" style="stroke:black;fill:white;stroke-width:2.0;stroke-dasharray:-;" /><g><g><g><path d="M 277.732 90.736 L 277.732 90.736 L 282.1 84.176 Q 282.324 83.856 282.46 83.584 Q 282.596 83.312 282.596 83.12 Q 282.596 82.88 282.388 82.792 Q 282.18 82.704 281.636 82.704 L 281.668 82.224 L 285.124 82.224 L 285.092 82.704 Q 284.66 82.704 284.356 82.832 Q 284.052 82.96 283.74 83.32 Q 283.428 83.68 282.932 84.416 L 277.06 92.816 L 276.532 92.816 L 275.636 84.16 Q 275.54 83.36 275.284 83.032 Q 275.028 82.704 274.388 82.704 L 274.42 82.224 L 278.34 82.224 L 278.292 82.704 Q 277.684 82.704 277.332 82.944 Q 276.98 83.184 277.012 83.728 Q 277.012 83.808 277.036 84.016 Q 277.06 84.224 277.06 84.304 L 277.54 88.864 L 277.652 90.736 Z " fill="black" /><path d="M 286.652 95.682 L 286.652 95.682 L 286.652 96.096 L 283.807 96.096 L 283.807 95.682 Q 284.199 95.682 284.373 95.598 Q 284.546 95.514 284.591 95.329 Q 284.636 95.144 284.636 94.842 L 284.636 91.459 Q 284.636 91.078 284.513 91 Q 284.39 90.922 284.098 90.922 Q 283.953 90.922 283.863 90.933 Q 283.774 90.944 283.774 90.944 L 283.774 90.496 L 285.274 90.25 L 285.734 90.25 L 285.734 94.842 Q 285.734 95.166 285.784 95.351 Q 285.834 95.536 286.03 95.609 Q 286.226 95.682 286.652 95.682 Z M 285.174 87.774 L 285.174 87.774 Q 285.498 87.774 285.717 87.998 Q 285.935 88.222 285.935 88.514 Q 285.935 88.782 285.717 89.006 Q 285.498 89.23 285.174 89.23 Q 284.86 89.23 284.653 89.006 Q 284.446 88.782 284.446 88.514 Q 284.446 88.222 284.653 87.998 Q 284.86 87.774 285.174 87.774 Z " fill="black" /><path d="M 293.305 92.344 L 293.305 92.344 L 293.305 94.853 Q 293.305 95.166 293.361 95.351 Q 293.417 95.536 293.607 95.614 Q 293.798 95.693 294.201 95.693 L 294.201 96.096 L 291.322 96.096 L 291.322 95.693 Q 291.748 95.693 291.938 95.614 Q 292.129 95.536 292.174 95.351 Q 292.218 95.166 292.218 94.853 L 292.218 92.714 Q 292.218 91.963 292.045 91.61 Q 291.871 91.258 291.608 91.146 Q 291.345 91.034 291.076 91.034 Q 290.594 91.034 290.23 91.28 Q 289.866 91.526 289.598 91.75 L 289.598 94.853 Q 289.598 95.166 289.648 95.351 Q 289.698 95.536 289.889 95.614 Q 290.079 95.693 290.494 95.693 L 290.494 96.096 L 287.671 96.096 L 287.671 95.693 Q 288.063 95.693 288.237 95.614 Q 288.41 95.536 288.455 95.351 Q 288.5 95.166 288.5 94.853 L 288.5 91.448 Q 288.5 91.134 288.382 91.028 Q 288.265 90.922 288.007 90.922 Q 287.873 90.922 287.783 90.933 Q 287.694 90.944 287.694 90.944 L 287.694 90.518 L 289.194 90.25 L 289.564 90.25 L 289.564 91.168 L 289.642 91.168 Q 290.124 90.731 290.566 90.474 Q 291.009 90.216 291.569 90.216 Q 292.23 90.216 292.605 90.513 Q 292.98 90.81 293.142 91.291 Q 293.305 91.773 293.305 92.344 Z " fill="black" /><path d="M 295.601 97.776 L 295.601 97.776 L 295.41 97.406 Q 295.646 97.306 295.892 97.143 Q 296.138 96.981 296.301 96.684 Q 296.463 96.387 296.463 95.906 Q 296.273 95.984 296.071 95.984 Q 295.702 95.984 295.545 95.766 Q 295.388 95.547 295.388 95.267 Q 295.388 94.965 295.59 94.741 Q 295.791 94.517 296.172 94.517 Q 296.654 94.517 296.906 94.814 Q 297.158 95.11 297.158 95.637 Q 297.158 96.174 296.99 96.55 Q 296.822 96.925 296.57 97.166 Q 296.318 97.406 296.054 97.546 Q 295.791 97.686 295.601 97.776 Z " fill="black" /><path d="M 303.362 92.344 L 303.362 92.344 L 303.362 94.853 Q 303.362 95.166 303.418 95.351 Q 303.474 95.536 303.665 95.614 Q 303.855 95.693 304.258 95.693 L 304.258 96.096 L 301.38 96.096 L 301.38 95.693 Q 301.806 95.693 301.996 95.614 Q 302.186 95.536 302.231 95.351 Q 302.276 95.166 302.276 94.853 L 302.276 92.714 Q 302.276 91.963 302.102 91.61 Q 301.929 91.258 301.666 91.146 Q 301.402 91.034 301.134 91.034 Q 300.652 91.034 300.288 91.28 Q 299.924 91.526 299.655 91.75 L 299.655 94.853 Q 299.655 95.166 299.706 95.351 Q 299.756 95.536 299.946 95.614 Q 300.137 95.693 300.551 95.693 L 300.551 96.096 L 297.729 96.096 L 297.729 95.693 Q 298.121 95.693 298.294 95.614 Q 298.468 95.536 298.513 95.351 Q 298.558 95.166 298.558 94.853 L 298.558 91.448 Q 298.558 91.134 298.44 91.028 Q 298.322 90.922 298.065 90.922 Q 297.93 90.922 297.841 90.933 Q 297.751 90.944 297.751 90.944 L 297.751 90.518 L 299.252 90.25 L 299.622 90.25 L 299.622 91.168 L 299.7 91.168 Q 300.182 90.731 300.624 90.474 Q 301.066 90.216 301.626 90.216 Q 302.287 90.216 302.662 90.513 Q 303.038 90.81 303.2 91.291 Q 303.362 91.773 303.362 92.344 Z " fill="black" /></g></g></g><circle cx="2.204364238465236e-15" cy="-36.0" r="2.6999999999999997" style="stroke:black;fill:black;stroke-width:2.0;stroke-dasharray:-;" /><g><g><g><path d="M -20.453 -80.497 L -20.453 -80.497 L -24.725 -80.497 L -24.629 -80.977 Q -24.037 -80.977 -23.725 -81.089 Q -23.413 -81.201 -23.253 -81.513 Q -23.093 -81.825 -22.981 -82.401 L -21.557 -89.313 L -21.621 -89.313 L -26.997 -80.497 L -27.349 -80.497 L -29.285 -89.297 L -29.349 -89.297 L -30.677 -82.833 Q -30.837 -82.017 -30.813 -81.617 Q -30.789 -81.217 -30.501 -81.097 Q -30.213 -80.977 -29.605 -80.977 L -29.701 -80.497 L -33.397 -80.497 L -33.301 -80.977 Q -32.677 -80.977 -32.341 -81.097 Q -32.005 -81.217 -31.813 -81.617 Q -31.621 -82.017 -31.461 -82.833 L -30.197 -89.057 Q -30.069 -89.665 -30.117 -89.977 Q -30.165 -90.289 -30.461 -90.409 Q -30.757 -90.529 -31.397 -90.529 L -31.301 -91.009 L -28.101 -91.009 L -26.373 -82.913 L -26.309 -82.913 L -21.429 -91.009 L -18.405 -91.009 L -18.501 -90.529 Q -19.061 -90.529 -19.389 -90.409 Q -19.717 -90.289 -19.893 -89.977 Q -20.069 -89.665 -20.197 -89.073 L -21.557 -82.401 Q -21.733 -81.521 -21.469 -81.249 Q -21.205 -80.977 -20.357 -80.977 Z " fill="black" /><path d="M -17.464 -82.961 L -17.464 -82.961 L -17.789 -83.118 Q -17.453 -83.879 -16.898 -84.266 Q -16.344 -84.652 -15.65 -84.652 Q -14.754 -84.652 -14.205 -84.215 Q -13.656 -83.778 -13.656 -83.084 Q -13.656 -82.479 -14.026 -82.11 Q -14.395 -81.74 -14.944 -81.382 L -14.944 -81.326 Q -14.474 -81.202 -14.076 -80.956 Q -13.678 -80.71 -13.443 -80.323 Q -13.208 -79.937 -13.208 -79.388 Q -13.208 -78.772 -13.477 -78.318 Q -13.746 -77.865 -14.205 -77.568 Q -14.664 -77.271 -15.252 -77.131 Q -15.84 -76.991 -16.478 -76.991 Q -17.027 -76.991 -17.313 -77.086 Q -17.598 -77.182 -17.705 -77.338 Q -17.811 -77.495 -17.811 -77.652 Q -17.811 -77.842 -17.699 -78.027 Q -17.587 -78.212 -17.318 -78.212 Q -17.206 -78.212 -17.089 -78.15 Q -16.971 -78.089 -16.658 -77.91 Q -16.4 -77.786 -16.249 -77.719 Q -16.098 -77.652 -15.98 -77.63 Q -15.862 -77.607 -15.706 -77.607 Q -15.37 -77.607 -15.039 -77.73 Q -14.709 -77.854 -14.485 -78.173 Q -14.261 -78.492 -14.261 -79.074 Q -14.261 -79.59 -14.546 -79.959 Q -14.832 -80.329 -15.314 -80.536 Q -15.795 -80.743 -16.378 -80.743 L -16.624 -80.743 L -16.624 -81.27 L -16.389 -81.27 Q -15.986 -81.27 -15.605 -81.454 Q -15.224 -81.639 -14.978 -81.981 Q -14.731 -82.322 -14.731 -82.793 Q -14.731 -83.319 -15.073 -83.588 Q -15.414 -83.857 -15.941 -83.857 Q -16.915 -83.857 -17.464 -82.961 Z " fill="black" /><path d="M -4.987 -78.962 L -4.987 -78.962 L -4.651 -78.682 Q -4.954 -78.212 -5.39 -77.831 Q -5.827 -77.45 -6.443 -77.226 Q -7.059 -77.002 -7.899 -77.002 Q -9.758 -77.002 -10.783 -78.033 Q -11.808 -79.063 -11.808 -81.023 Q -11.808 -82.334 -11.287 -83.258 Q -10.766 -84.182 -9.848 -84.674 Q -8.93 -85.167 -7.742 -85.167 Q -7.093 -85.167 -6.712 -85.061 Q -6.331 -84.954 -6.113 -84.842 Q -5.894 -84.73 -5.749 -84.73 Q -5.626 -84.73 -5.542 -84.837 Q -5.458 -84.943 -5.312 -85.145 L -4.909 -85.145 L -4.909 -82.356 L -5.379 -82.356 Q -5.592 -83.543 -6.191 -84.058 Q -6.79 -84.574 -7.798 -84.574 Q -8.65 -84.574 -9.232 -84.154 Q -9.814 -83.734 -10.111 -82.972 Q -10.408 -82.21 -10.408 -81.191 Q -10.408 -80.038 -10.033 -79.321 Q -9.658 -78.604 -8.997 -78.274 Q -8.336 -77.943 -7.485 -77.943 Q -6.656 -77.943 -6.074 -78.195 Q -5.491 -78.447 -4.987 -78.962 Z " fill="black" /></g></g></g><g><g><g><path d="M -11.885 -149.497 L -11.885 -149.497 L -16.157 -149.497 L -16.061 -149.977 Q -15.469 -149.977 -15.157 -150.089 Q -14.845 -150.201 -14.685 -150.513 Q -14.525 -150.825 -14.413 -151.401 L -12.989 -158.313 L -13.053 -158.313 L -18.429 -149.497 L -18.781 -149.497 L -20.717 -158.297 L -20.781 -158.297 L -22.109 -151.833 Q -22.269 -151.017 -22.245 -150.617 Q -22.221 -150.217 -21.933 -150.097 Q -21.645 -149.977 -21.037 -149.977 L -21.133 -149.497 L -24.829 -149.497 L -24.733 -149.977 Q -24.109 -149.977 -23.773 -150.097 Q -23.437 -150.217 -23.245 -150.617 Q -23.053 -151.017 -22.893 -151.833 L -21.629 -158.057 Q -21.501 -158.665 -21.549 -158.977 Q -21.597 -159.289 -21.893 -159.409 Q -22.189 -159.529 -22.829 -159.529 L -22.733 -160.009 L -19.533 -160.009 L -17.805 -151.913 L -17.741 -151.913 L -12.861 -160.009 L -9.837 -160.009 L -9.933 -159.529 Q -10.493 -159.529 -10.821 -159.409 Q -11.149 -159.289 -11.325 -158.977 Q -11.501 -158.665 -11.629 -158.073 L -12.989 -151.401 Q -13.165 -150.521 -12.901 -150.249 Q -12.637 -149.977 -11.789 -149.977 Z " fill="black" /><path d="M -8.896 -151.961 L -8.896 -151.961 L -9.221 -152.118 Q -8.885 -152.879 -8.33 -153.266 Q -7.776 -153.652 -7.082 -153.652 Q -6.186 -153.652 -5.637 -153.215 Q -5.088 -152.778 -5.088 -152.084 Q -5.088 -151.479 -5.458 -151.11 Q -5.827 -150.74 -6.376 -150.382 L -6.376 -150.326 Q -5.906 -150.202 -5.508 -149.956 Q -5.11 -149.71 -4.875 -149.323 Q -4.64 -148.937 -4.64 -148.388 Q -4.64 -147.772 -4.909 -147.318 Q -5.178 -146.865 -5.637 -146.568 Q -6.096 -146.271 -6.684 -146.131 Q -7.272 -145.991 -7.91 -145.991 Q -8.459 -145.991 -8.745 -146.086 Q -9.03 -146.182 -9.137 -146.338 Q -9.243 -146.495 -9.243 -146.652 Q -9.243 -146.842 -9.131 -147.027 Q -9.019 -147.212 -8.75 -147.212 Q -8.638 -147.212 -8.521 -147.15 Q -8.403 -147.089 -8.09 -146.91 Q -7.832 -146.786 -7.681 -146.719 Q -7.53 -146.652 -7.412 -146.63 Q -7.294 -146.607 -7.138 -146.607 Q -6.802 -146.607 -6.471 -146.73 Q -6.141 -146.854 -5.917 -147.173 Q -5.693 -147.492 -5.693 -148.074 Q -5.693 -148.59 -5.978 -148.959 Q -6.264 -149.329 -6.746 -149.536 Q -7.227 -149.743 -7.81 -149.743 L -8.056 -149.743 L -8.056 -150.27 L -7.821 -150.27 Q -7.418 -150.27 -7.037 -150.454 Q -6.656 -150.639 -6.41 -150.981 Q -6.163 -151.322 -6.163 -151.793 Q -6.163 -152.319 -6.505 -152.588 Q -6.846 -152.857 -7.373 -152.857 Q -8.347 -152.857 -8.896 -151.961 Z " fill="black" /></g></g></g><circle cx="216.0" cy="-36.0" r="2.6999999999999997" style="stroke:black;fill:black;stroke-width:2.0;stroke-dasharray:-;" /><circle cx="270.0" cy="-36.0" r="2.6999999999999997" style="stroke:black;fill:white;stroke-width:2.0;stroke-dasharray:-;" /><g><g><g><path d="M 280.732 -34.491 L 280.732 -34.491 L 285.1 -41.051 Q 285.324 -41.371 285.46 -41.643 Q 285.596 -41.915 285.596 -42.107 Q 285.596 -42.347 285.388 -42.435 Q 285.18 -42.523 284.636 -42.523 L 284.668 -43.003 L 288.124 -43.003 L 288.092 -42.523 Q 287.66 -42.523 287.356 -42.395 Q 287.052 -42.267 286.74 -41.907 Q 286.428 -41.547 285.932 -40.811 L 280.06 -32.411 L 279.532 -32.411 L 278.636 -41.067 Q 278.54 -41.867 278.284 -42.195 Q 278.028 -42.523 277.388 -42.523 L 277.42 -43.003 L 281.34 -43.003 L 281.292 -42.523 Q 280.684 -42.523 280.332 -42.283 Q 279.98 -42.043 280.012 -41.499 Q 280.012 -41.419 280.036 -41.211 Q 280.06 -41.003 280.06 -40.923 L 280.54 -36.363 L 280.652 -34.491 Z " fill="black" /><path d="M 288.033 -35.011 L 288.033 -35.011 Q 288.873 -35.011 289.5 -34.647 Q 290.127 -34.283 290.469 -33.628 Q 290.81 -32.973 290.81 -32.088 Q 290.81 -31.024 290.452 -30.341 Q 290.094 -29.658 289.466 -29.327 Q 288.839 -28.997 288.033 -28.997 Q 287.215 -28.997 286.582 -29.338 Q 285.95 -29.68 285.597 -30.363 Q 285.244 -31.046 285.244 -32.077 Q 285.244 -32.95 285.591 -33.611 Q 285.938 -34.272 286.566 -34.642 Q 287.193 -35.011 288.033 -35.011 Z M 288.01 -34.496 L 288.01 -34.496 Q 287.271 -34.496 286.851 -33.897 Q 286.431 -33.298 286.431 -32.144 Q 286.431 -30.722 286.862 -30.134 Q 287.294 -29.546 288.066 -29.546 Q 288.559 -29.557 288.906 -29.792 Q 289.254 -30.027 289.438 -30.582 Q 289.623 -31.136 289.623 -32.088 Q 289.623 -33.23 289.231 -33.863 Q 288.839 -34.496 288.01 -34.496 Z " fill="black" /><path d="M 298.426 -29.702 L 298.426 -29.702 L 298.426 -29.277 L 296.914 -29.075 L 296.556 -29.075 L 296.556 -29.949 L 296.444 -29.949 Q 296.018 -29.568 295.582 -29.294 Q 295.145 -29.019 294.529 -29.019 Q 293.7 -29.019 293.263 -29.523 Q 292.826 -30.027 292.826 -31.27 L 292.826 -33.678 Q 292.826 -34.138 292.664 -34.244 Q 292.502 -34.35 291.986 -34.35 L 291.986 -34.754 L 293.543 -34.966 L 293.913 -34.966 L 293.913 -31.416 Q 293.913 -30.789 294.058 -30.442 Q 294.204 -30.094 294.45 -29.96 Q 294.697 -29.826 294.988 -29.826 Q 295.481 -29.826 295.811 -30.033 Q 296.142 -30.24 296.5 -30.531 L 296.5 -33.678 Q 296.5 -34.138 296.298 -34.244 Q 296.097 -34.35 295.526 -34.35 L 295.526 -34.754 L 297.194 -34.966 L 297.586 -34.966 L 297.586 -30.43 Q 297.586 -30.094 297.648 -29.938 Q 297.71 -29.781 297.866 -29.742 Q 298.023 -29.702 298.303 -29.702 Z " fill="black" /><path d="M 302.794 -30.251 L 302.794 -30.251 L 303.052 -30.038 Q 302.806 -29.702 302.604 -29.473 Q 302.402 -29.243 302.145 -29.12 Q 301.887 -28.997 301.484 -28.997 Q 300.834 -28.997 300.538 -29.366 Q 300.241 -29.736 300.241 -30.554 L 300.241 -34.317 L 299.535 -34.317 L 299.535 -34.653 Q 299.938 -34.944 300.274 -35.364 Q 300.61 -35.784 300.946 -36.568 L 301.338 -36.568 L 301.327 -34.866 L 302.75 -34.866 L 302.75 -34.317 L 301.327 -34.317 L 301.327 -30.923 Q 301.327 -30.296 301.445 -30.033 Q 301.562 -29.77 301.921 -29.77 Q 302.246 -29.77 302.414 -29.887 Q 302.582 -30.005 302.794 -30.251 Z " fill="black" /></g></g></g><g><g><g><path d="M 219.699 -80.491 L 219.699 -80.491 L 215.427 -80.491 L 215.523 -80.971 Q 216.115 -80.971 216.427 -81.083 Q 216.739 -81.195 216.899 -81.507 Q 217.059 -81.819 217.171 -82.395 L 218.595 -89.307 L 218.531 -89.307 L 213.155 -80.491 L 212.803 -80.491 L 210.867 -89.291 L 210.803 -89.291 L 209.475 -82.827 Q 209.315 -82.011 209.339 -81.611 Q 209.363 -81.211 209.651 -81.091 Q 209.939 -80.971 210.547 -80.971 L 210.451 -80.491 L 206.755 -80.491 L 206.851 -80.971 Q 207.475 -80.971 207.811 -81.091 Q 208.147 -81.211 208.339 -81.611 Q 208.531 -82.011 208.691 -82.827 L 209.955 -89.051 Q 210.083 -89.659 210.035 -89.971 Q 209.987 -90.283 209.691 -90.403 Q 209.395 -90.523 208.755 -90.523 L 208.851 -91.003 L 212.051 -91.003 L 213.779 -82.907 L 213.843 -82.907 L 218.723 -91.003 L 221.747 -91.003 L 221.651 -90.523 Q 221.091 -90.523 220.763 -90.403 Q 220.435 -90.283 220.259 -89.971 Q 220.083 -89.659 219.955 -89.067 L 218.595 -82.395 Q 218.419 -81.515 218.683 -81.243 Q 218.947 -80.971 219.795 -80.971 Z " fill="black" /><path d="M 227.762 -78.901 L 227.762 -78.901 L 226.541 -78.901 L 226.541 -77.131 L 225.432 -77.131 L 225.432 -78.901 L 222.139 -78.901 L 222.139 -79.752 L 225.734 -84.635 L 226.541 -84.635 L 226.541 -79.819 L 227.762 -79.819 Z M 225.432 -79.819 L 225.432 -79.819 L 225.432 -83.28 L 225.365 -83.28 L 222.901 -79.886 L 222.901 -79.819 Z " fill="black" /><path d="M 235.613 -78.957 L 235.613 -78.957 L 235.949 -78.677 Q 235.646 -78.206 235.21 -77.826 Q 234.773 -77.445 234.157 -77.221 Q 233.541 -76.997 232.701 -76.997 Q 230.842 -76.997 229.817 -78.027 Q 228.792 -79.058 228.792 -81.018 Q 228.792 -82.328 229.313 -83.252 Q 229.834 -84.176 230.752 -84.669 Q 231.67 -85.162 232.858 -85.162 Q 233.507 -85.162 233.888 -85.055 Q 234.269 -84.949 234.487 -84.837 Q 234.706 -84.725 234.851 -84.725 Q 234.974 -84.725 235.058 -84.831 Q 235.142 -84.938 235.288 -85.139 L 235.691 -85.139 L 235.691 -82.35 L 235.221 -82.35 Q 235.008 -83.538 234.409 -84.053 Q 233.81 -84.568 232.802 -84.568 Q 231.95 -84.568 231.368 -84.148 Q 230.786 -83.728 230.489 -82.966 Q 230.192 -82.205 230.192 -81.186 Q 230.192 -80.032 230.567 -79.315 Q 230.942 -78.598 231.603 -78.268 Q 232.264 -77.938 233.115 -77.938 Q 233.944 -77.938 234.526 -78.19 Q 235.109 -78.442 235.613 -78.957 Z " fill="black" /></g></g></g><g><g><g><path d="M 228.267 -149.424 L 228.267 -149.424 L 223.995 -149.424 L 224.091 -149.904 Q 224.683 -149.904 224.995 -150.016 Q 225.307 -150.128 225.467 -150.44 Q 225.627 -150.752 225.739 -151.328 L 227.163 -158.24 L 227.099 -158.24 L 221.723 -149.424 L 221.371 -149.424 L 219.435 -158.224 L 219.371 -158.224 L 218.043 -151.76 Q 217.883 -150.944 217.907 -150.544 Q 217.931 -150.144 218.219 -150.024 Q 218.507 -149.904 219.115 -149.904 L 219.019 -149.424 L 215.323 -149.424 L 215.419 -149.904 Q 216.043 -149.904 216.379 -150.024 Q 216.715 -150.144 216.907 -150.544 Q 217.099 -150.944 217.259 -151.76 L 218.523 -157.984 Q 218.651 -158.592 218.603 -158.904 Q 218.555 -159.216 218.259 -159.336 Q 217.963 -159.456 217.323 -159.456 L 217.419 -159.936 L 220.619 -159.936 L 222.347 -151.84 L 222.411 -151.84 L 227.291 -159.936 L 230.315 -159.936 L 230.219 -159.456 Q 229.659 -159.456 229.331 -159.336 Q 229.003 -159.216 228.827 -158.904 Q 228.651 -158.592 228.523 -158 L 227.163 -151.328 Q 226.987 -150.448 227.251 -150.176 Q 227.515 -149.904 228.363 -149.904 Z " fill="black" /><path d="M 236.33 -147.834 L 236.33 -147.834 L 235.109 -147.834 L 235.109 -146.064 L 234 -146.064 L 234 -147.834 L 230.707 -147.834 L 230.707 -148.685 L 234.302 -153.568 L 235.109 -153.568 L 235.109 -148.752 L 236.33 -148.752 Z M 234 -148.752 L 234 -148.752 L 234 -152.213 L 233.933 -152.213 L 231.469 -148.819 L 231.469 -148.752 Z " fill="black" /></g></g></g><circle cx="54.00000000000001" cy="-153.0" r="2.6999999999999997" style="stroke:black;fill:black;stroke-width:2.0;stroke-dasharray:-;" /><circle cx="108.0" cy="29.999999999999996" r="2.6999999999999997" style="stroke:black;fill:black;stroke-width:2.0;stroke-dasharray:-;" /><g><g><g><path d="M 136.515 85.503 L 136.515 85.503 L 140.883 78.943 Q 141.107 78.623 141.243 78.351 Q 141.379 78.079 141.379 77.887 Q 141.379 77.647 141.171 77.559 Q 140.963 77.471 140.419 77.471 L 140.451 76.991 L 143.907 76.991 L 143.875 77.471 Q 143.443 77.471 143.139 77.599 Q 142.835 77.727 142.523 78.087 Q 142.211 78.447 141.715 79.183 L 135.843 87.583 L 135.315 87.583 L 134.419 78.927 Q 134.323 78.127 134.067 77.799 Q 133.811 77.471 133.171 77.471 L 133.203 76.991 L 137.123 76.991 L 137.075 77.471 Q 136.467 77.471 136.115 77.711 Q 135.763 77.951 135.795 78.495 Q 135.795 78.575 135.819 78.783 Q 135.843 78.991 135.843 79.071 L 136.323 83.631 L 136.435 85.503 Z " fill="black" /><path d="M 144.36 82.497 L 144.36 82.497 L 144.36 85.969 L 144.416 85.969 Q 144.741 85.588 145.183 85.286 Q 145.626 84.983 146.253 84.983 Q 146.835 84.983 147.311 85.336 Q 147.787 85.689 148.073 86.31 Q 148.358 86.932 148.358 87.738 Q 148.358 88.814 147.966 89.542 Q 147.574 90.27 146.897 90.634 Q 146.219 90.998 145.357 90.998 Q 144.853 90.998 144.427 90.914 Q 144.002 90.83 143.705 90.718 Q 143.408 90.606 143.274 90.55 L 143.274 83.83 Q 143.274 83.415 143.184 83.298 Q 143.094 83.18 142.714 83.18 Q 142.59 83.18 142.484 83.197 Q 142.378 83.214 142.378 83.214 L 142.378 82.788 L 143.901 82.497 Z M 144.36 86.551 L 144.36 86.551 L 144.36 89.911 Q 144.494 90.158 144.786 90.303 Q 145.077 90.449 145.558 90.449 Q 146.152 90.449 146.51 90.13 Q 146.869 89.81 147.031 89.278 Q 147.194 88.746 147.194 88.119 Q 147.194 87.548 147.065 87.027 Q 146.936 86.506 146.611 86.182 Q 146.286 85.857 145.715 85.857 Q 145.413 85.857 145.138 85.974 Q 144.864 86.092 144.662 86.254 Q 144.461 86.417 144.36 86.551 Z " fill="black" /><path d="M 152.446 90.449 L 152.446 90.449 L 152.446 90.863 L 149.602 90.863 L 149.602 90.449 Q 149.994 90.449 150.167 90.365 Q 150.341 90.281 150.386 90.096 Q 150.43 89.911 150.43 89.609 L 150.43 86.226 Q 150.43 85.846 150.307 85.767 Q 150.184 85.689 149.893 85.689 Q 149.747 85.689 149.658 85.7 Q 149.568 85.711 149.568 85.711 L 149.568 85.263 L 151.069 85.017 L 151.528 85.017 L 151.528 89.609 Q 151.528 89.934 151.578 90.118 Q 151.629 90.303 151.825 90.376 Q 152.021 90.449 152.446 90.449 Z M 150.968 82.542 L 150.968 82.542 Q 151.293 82.542 151.511 82.766 Q 151.73 82.99 151.73 83.281 Q 151.73 83.55 151.511 83.774 Q 151.293 83.998 150.968 83.998 Q 150.654 83.998 150.447 83.774 Q 150.24 83.55 150.24 83.281 Q 150.24 82.99 150.447 82.766 Q 150.654 82.542 150.968 82.542 Z " fill="black" /><path d="M 156.926 90.158 L 156.926 90.158 L 156.848 90.158 Q 156.467 90.471 156.008 90.706 Q 155.549 90.942 155.011 90.942 Q 154.306 90.942 153.93 90.516 Q 153.555 90.09 153.555 89.486 Q 153.555 88.97 153.796 88.623 Q 154.037 88.276 154.423 88.058 Q 154.81 87.839 155.258 87.705 Q 155.706 87.57 156.12 87.492 Q 156.534 87.414 156.814 87.346 L 156.814 86.764 Q 156.814 86.014 156.518 85.728 Q 156.221 85.442 155.65 85.442 Q 155.302 85.442 155.151 85.532 Q 155 85.622 154.961 85.823 Q 154.922 86.025 154.91 86.35 Q 154.899 86.596 154.765 86.747 Q 154.63 86.898 154.373 86.898 Q 154.126 86.898 153.953 86.747 Q 153.779 86.596 153.779 86.305 Q 153.779 85.958 154.048 85.655 Q 154.317 85.353 154.815 85.168 Q 155.314 84.983 155.986 84.983 Q 156.994 84.983 157.447 85.448 Q 157.901 85.913 157.901 86.842 L 157.901 89.586 Q 157.901 89.956 157.985 90.062 Q 158.069 90.169 158.248 90.169 Q 158.438 90.169 158.578 90.09 Q 158.718 90.012 158.842 89.866 L 159.088 90.102 Q 158.506 90.93 157.722 90.93 Q 157.285 90.93 157.122 90.723 Q 156.96 90.516 156.926 90.158 Z M 156.814 89.743 L 156.814 89.743 L 156.814 87.772 Q 156.299 87.906 155.806 88.069 Q 155.314 88.231 154.994 88.511 Q 154.675 88.791 154.675 89.295 Q 154.675 89.732 154.927 89.984 Q 155.179 90.236 155.571 90.236 Q 155.806 90.236 156.137 90.13 Q 156.467 90.023 156.814 89.743 Z " fill="black" /><path d="M 159.861 88.825 L 159.861 88.825 L 160.219 88.825 Q 160.365 89.474 160.566 89.833 Q 160.768 90.191 161.087 90.331 Q 161.406 90.471 161.866 90.471 Q 162.392 90.471 162.678 90.298 Q 162.963 90.124 162.963 89.687 Q 162.963 89.396 162.823 89.2 Q 162.683 89.004 162.375 88.825 Q 162.067 88.646 161.552 88.41 Q 161.026 88.153 160.65 87.929 Q 160.275 87.705 160.079 87.402 Q 159.883 87.1 159.883 86.641 Q 159.883 85.834 160.426 85.409 Q 160.97 84.983 161.787 84.983 Q 162.28 84.983 162.622 85.106 Q 162.963 85.23 163.165 85.319 L 163.187 85.319 L 163.366 85.039 L 163.68 85.039 L 163.702 86.898 L 163.31 86.898 Q 163.098 86.036 162.717 85.739 Q 162.336 85.442 161.843 85.442 Q 161.328 85.442 161.065 85.666 Q 160.802 85.89 160.802 86.249 Q 160.802 86.54 160.981 86.73 Q 161.16 86.921 161.49 87.083 Q 161.821 87.246 162.28 87.47 Q 162.795 87.716 163.187 87.979 Q 163.579 88.242 163.803 88.573 Q 164.027 88.903 164.027 89.396 Q 164.027 89.99 163.714 90.348 Q 163.4 90.706 162.907 90.858 Q 162.414 91.009 161.877 91.009 Q 161.328 91.009 161.026 90.897 Q 160.723 90.785 160.466 90.684 L 160.421 90.684 L 160.141 90.975 L 159.883 90.975 Z " fill="black" /><path d="M 169.426 90.863 L 169.426 90.863 L 165.629 90.863 L 165.629 90.46 Q 166.435 90.46 166.698 90.298 Q 166.962 90.135 166.962 89.71 L 166.962 84.826 Q 166.962 84.524 166.872 84.39 Q 166.782 84.255 166.547 84.255 Q 166.368 84.255 166.06 84.306 Q 165.752 84.356 165.528 84.412 L 165.528 83.964 L 167.6 83.393 L 168.082 83.393 L 168.082 89.71 Q 168.082 90.135 168.367 90.298 Q 168.653 90.46 169.426 90.46 Z " fill="black" /></g></g></g><circle cx="108.0" cy="-83.99999999999999" r="2.6999999999999997" style="stroke:black;fill:black;stroke-width:2.0;stroke-dasharray:-;" /><g><g><g><path d="M 136.347 -118.497 L 136.347 -118.497 L 140.715 -125.057 Q 140.939 -125.377 141.075 -125.649 Q 141.211 -125.921 141.211 -126.113 Q 141.211 -126.353 141.003 -126.441 Q 140.795 -126.529 140.251 -126.529 L 140.283 -127.009 L 143.739 -127.009 L 143.707 -126.529 Q 143.275 -126.529 142.971 -126.401 Q 142.667 -126.273 142.355 -125.913 Q 142.043 -125.553 141.547 -124.817 L 135.675 -116.417 L 135.147 -116.417 L 134.251 -125.073 Q 134.155 -125.873 133.899 -126.201 Q 133.643 -126.529 133.003 -126.529 L 133.035 -127.009 L 136.955 -127.009 L 136.907 -126.529 Q 136.299 -126.529 135.947 -126.289 Q 135.595 -126.049 135.627 -125.505 Q 135.627 -125.425 135.651 -125.217 Q 135.675 -125.009 135.675 -124.929 L 136.155 -120.369 L 136.267 -118.497 Z " fill="black" /><path d="M 144.192 -121.503 L 144.192 -121.503 L 144.192 -118.031 L 144.248 -118.031 Q 144.573 -118.412 145.015 -118.714 Q 145.458 -119.017 146.085 -119.017 Q 146.667 -119.017 147.143 -118.664 Q 147.619 -118.311 147.905 -117.69 Q 148.19 -117.068 148.19 -116.262 Q 148.19 -115.186 147.798 -114.458 Q 147.406 -113.73 146.729 -113.366 Q 146.051 -113.002 145.189 -113.002 Q 144.685 -113.002 144.259 -113.086 Q 143.834 -113.17 143.537 -113.282 Q 143.24 -113.394 143.106 -113.45 L 143.106 -120.17 Q 143.106 -120.585 143.016 -120.702 Q 142.926 -120.82 142.546 -120.82 Q 142.422 -120.82 142.316 -120.803 Q 142.21 -120.786 142.21 -120.786 L 142.21 -121.212 L 143.733 -121.503 Z M 144.192 -117.449 L 144.192 -117.449 L 144.192 -114.089 Q 144.326 -113.842 144.618 -113.697 Q 144.909 -113.551 145.39 -113.551 Q 145.984 -113.551 146.342 -113.87 Q 146.701 -114.19 146.863 -114.722 Q 147.026 -115.254 147.026 -115.881 Q 147.026 -116.452 146.897 -116.973 Q 146.768 -117.494 146.443 -117.818 Q 146.118 -118.143 145.547 -118.143 Q 145.245 -118.143 144.97 -118.026 Q 144.696 -117.908 144.494 -117.746 Q 144.293 -117.583 144.192 -117.449 Z " fill="black" /><path d="M 152.278 -113.551 L 152.278 -113.551 L 152.278 -113.137 L 149.434 -113.137 L 149.434 -113.551 Q 149.826 -113.551 149.999 -113.635 Q 150.173 -113.719 150.218 -113.904 Q 150.262 -114.089 150.262 -114.391 L 150.262 -117.774 Q 150.262 -118.154 150.139 -118.233 Q 150.016 -118.311 149.725 -118.311 Q 149.579 -118.311 149.49 -118.3 Q 149.4 -118.289 149.4 -118.289 L 149.4 -118.737 L 150.901 -118.983 L 151.36 -118.983 L 151.36 -114.391 Q 151.36 -114.066 151.41 -113.882 Q 151.461 -113.697 151.657 -113.624 Q 151.853 -113.551 152.278 -113.551 Z M 150.8 -121.458 L 150.8 -121.458 Q 151.125 -121.458 151.343 -121.234 Q 151.562 -121.01 151.562 -120.719 Q 151.562 -120.45 151.343 -120.226 Q 151.125 -120.002 150.8 -120.002 Q 150.486 -120.002 150.279 -120.226 Q 150.072 -120.45 150.072 -120.719 Q 150.072 -121.01 150.279 -121.234 Q 150.486 -121.458 150.8 -121.458 Z " fill="black" /><path d="M 156.758 -113.842 L 156.758 -113.842 L 156.68 -113.842 Q 156.299 -113.529 155.84 -113.294 Q 155.381 -113.058 154.843 -113.058 Q 154.138 -113.058 153.762 -113.484 Q 153.387 -113.91 153.387 -114.514 Q 153.387 -115.03 153.628 -115.377 Q 153.869 -115.724 154.255 -115.942 Q 154.642 -116.161 155.09 -116.295 Q 155.538 -116.43 155.952 -116.508 Q 156.366 -116.586 156.646 -116.654 L 156.646 -117.236 Q 156.646 -117.986 156.35 -118.272 Q 156.053 -118.558 155.482 -118.558 Q 155.134 -118.558 154.983 -118.468 Q 154.832 -118.378 154.793 -118.177 Q 154.754 -117.975 154.742 -117.65 Q 154.731 -117.404 154.597 -117.253 Q 154.462 -117.102 154.205 -117.102 Q 153.958 -117.102 153.785 -117.253 Q 153.611 -117.404 153.611 -117.695 Q 153.611 -118.042 153.88 -118.345 Q 154.149 -118.647 154.647 -118.832 Q 155.146 -119.017 155.818 -119.017 Q 156.826 -119.017 157.279 -118.552 Q 157.733 -118.087 157.733 -117.158 L 157.733 -114.414 Q 157.733 -114.044 157.817 -113.938 Q 157.901 -113.831 158.08 -113.831 Q 158.27 -113.831 158.41 -113.91 Q 158.55 -113.988 158.674 -114.134 L 158.92 -113.898 Q 158.338 -113.07 157.554 -113.07 Q 157.117 -113.07 156.954 -113.277 Q 156.792 -113.484 156.758 -113.842 Z M 156.646 -114.257 L 156.646 -114.257 L 156.646 -116.228 Q 156.131 -116.094 155.638 -115.931 Q 155.146 -115.769 154.826 -115.489 Q 154.507 -115.209 154.507 -114.705 Q 154.507 -114.268 154.759 -114.016 Q 155.011 -113.764 155.403 -113.764 Q 155.638 -113.764 155.969 -113.87 Q 156.299 -113.977 156.646 -114.257 Z " fill="black" /><path d="M 159.693 -115.175 L 159.693 -115.175 L 160.051 -115.175 Q 160.197 -114.526 160.398 -114.167 Q 160.6 -113.809 160.919 -113.669 Q 161.238 -113.529 161.698 -113.529 Q 162.224 -113.529 162.51 -113.702 Q 162.795 -113.876 162.795 -114.313 Q 162.795 -114.604 162.655 -114.8 Q 162.515 -114.996 162.207 -115.175 Q 161.899 -115.354 161.384 -115.59 Q 160.858 -115.847 160.482 -116.071 Q 160.107 -116.295 159.911 -116.598 Q 159.715 -116.9 159.715 -117.359 Q 159.715 -118.166 160.258 -118.591 Q 160.802 -119.017 161.619 -119.017 Q 162.112 -119.017 162.454 -118.894 Q 162.795 -118.77 162.997 -118.681 L 163.019 -118.681 L 163.198 -118.961 L 163.512 -118.961 L 163.534 -117.102 L 163.142 -117.102 Q 162.93 -117.964 162.549 -118.261 Q 162.168 -118.558 161.675 -118.558 Q 161.16 -118.558 160.897 -118.334 Q 160.634 -118.11 160.634 -117.751 Q 160.634 -117.46 160.813 -117.27 Q 160.992 -117.079 161.322 -116.917 Q 161.653 -116.754 162.112 -116.53 Q 162.627 -116.284 163.019 -116.021 Q 163.411 -115.758 163.635 -115.427 Q 163.859 -115.097 163.859 -114.604 Q 163.859 -114.01 163.546 -113.652 Q 163.232 -113.294 162.739 -113.142 Q 162.246 -112.991 161.709 -112.991 Q 161.16 -112.991 160.858 -113.103 Q 160.555 -113.215 160.298 -113.316 L 160.253 -113.316 L 159.973 -113.025 L 159.715 -113.025 Z " fill="black" /><path d="M 169.896 -115.086 L 169.896 -115.086 L 169.515 -113.137 L 164.923 -113.137 L 164.923 -113.686 L 166.514 -115.298 Q 167.141 -115.926 167.55 -116.407 Q 167.958 -116.889 168.16 -117.376 Q 168.362 -117.863 168.362 -118.49 Q 168.362 -119.084 167.998 -119.47 Q 167.634 -119.857 166.973 -119.857 Q 166.368 -119.857 165.959 -119.616 Q 165.55 -119.375 165.237 -118.826 L 164.934 -118.972 Q 165.214 -119.756 165.802 -120.204 Q 166.39 -120.652 167.253 -120.652 Q 167.925 -120.652 168.44 -120.411 Q 168.955 -120.17 169.246 -119.722 Q 169.538 -119.274 169.538 -118.636 Q 169.538 -118.087 169.291 -117.606 Q 169.045 -117.124 168.591 -116.62 Q 168.138 -116.116 167.51 -115.5 L 166.11 -114.145 L 166.11 -114.066 L 166.984 -114.111 L 168.44 -114.111 Q 168.765 -114.111 168.938 -114.201 Q 169.112 -114.29 169.235 -114.509 Q 169.358 -114.727 169.504 -115.086 Z " fill="black" /></g></g></g><g><g><g><path d="M 11.69 -191.96 L 11.69 -191.96 L 16.058 -198.52 Q 16.282 -198.84 16.418 -199.112 Q 16.554 -199.384 16.554 -199.576 Q 16.554 -199.816 16.346 -199.904 Q 16.138 -199.992 15.594 -199.992 L 15.626 -200.472 L 19.082 -200.472 L 19.05 -199.992 Q 18.618 -199.992 18.314 -199.864 Q 18.01 -199.736 17.698 -199.376 Q 17.386 -199.016 16.89 -198.28 L 11.018 -189.88 L 10.49 -189.88 L 9.594 -198.536 Q 9.498 -199.336 9.242 -199.664 Q 8.986 -199.992 8.346 -199.992 L 8.378 -200.472 L 12.298 -200.472 L 12.25 -199.992 Q 11.642 -199.992 11.29 -199.752 Q 10.938 -199.512 10.97 -198.968 Q 10.97 -198.888 10.994 -198.68 Q 11.018 -198.472 11.018 -198.392 L 11.498 -193.832 L 11.61 -191.96 Z " fill="black" /><path d="M 17.821 -194.474 L 17.821 -194.474 L 21.214 -194.474 Q 22.11 -194.474 22.928 -194.278 Q 23.746 -194.082 24.39 -193.634 Q 25.034 -193.186 25.409 -192.435 Q 25.784 -191.685 25.784 -190.565 Q 25.784 -189.512 25.442 -188.756 Q 25.101 -188 24.485 -187.524 Q 23.869 -187.048 23.051 -186.824 Q 22.234 -186.6 21.282 -186.6 L 17.821 -186.6 L 17.821 -187.026 Q 18.347 -187.026 18.594 -187.104 Q 18.84 -187.182 18.913 -187.423 Q 18.986 -187.664 18.986 -188.157 L 18.986 -193.018 Q 18.986 -193.477 18.879 -193.695 Q 18.773 -193.914 18.521 -193.981 Q 18.269 -194.048 17.821 -194.048 Z M 20.184 -193.914 L 20.184 -193.914 L 20.184 -187.138 Q 20.363 -187.126 20.537 -187.121 Q 20.71 -187.115 20.878 -187.115 Q 21.987 -187.115 22.766 -187.406 Q 23.544 -187.698 23.953 -188.426 Q 24.362 -189.154 24.362 -190.464 Q 24.362 -192.144 23.505 -193.034 Q 22.648 -193.925 20.789 -193.925 Q 20.632 -193.925 20.486 -193.925 Q 20.341 -193.925 20.184 -193.914 Z " fill="black" /><path d="M 27.139 -194.474 L 27.139 -194.474 L 30.533 -194.474 Q 31.429 -194.474 32.246 -194.278 Q 33.064 -194.082 33.708 -193.634 Q 34.352 -193.186 34.727 -192.435 Q 35.102 -191.685 35.102 -190.565 Q 35.102 -189.512 34.761 -188.756 Q 34.419 -188 33.803 -187.524 Q 33.187 -187.048 32.37 -186.824 Q 31.552 -186.6 30.6 -186.6 L 27.139 -186.6 L 27.139 -187.026 Q 27.666 -187.026 27.912 -187.104 Q 28.158 -187.182 28.231 -187.423 Q 28.304 -187.664 28.304 -188.157 L 28.304 -193.018 Q 28.304 -193.477 28.198 -193.695 Q 28.091 -193.914 27.839 -193.981 Q 27.587 -194.048 27.139 -194.048 Z M 29.502 -193.914 L 29.502 -193.914 L 29.502 -187.138 Q 29.682 -187.126 29.855 -187.121 Q 30.029 -187.115 30.197 -187.115 Q 31.306 -187.115 32.084 -187.406 Q 32.862 -187.698 33.271 -188.426 Q 33.68 -189.154 33.68 -190.464 Q 33.68 -192.144 32.823 -193.034 Q 31.966 -193.925 30.107 -193.925 Q 29.95 -193.925 29.805 -193.925 Q 29.659 -193.925 29.502 -193.914 Z " fill="black" /></g></g></g></svg>