<svg xmlns="http://www.w3.org/2000/svg" xmlns:xlink="http://www.w3.org/1999/xlink" xml:lang="en" height="315.43999999999994pt" width="266.727679108pt" viewBox="-70.72767910800003 -33.4 266.727679108 315.43999999999994"><circle cx="-6.613092715395707e-15" cy="36.0" r="18.0" style="stroke:black;fill:none;stroke-width:2.0;stroke-dasharray:-;" /><path d="M 0.0,-0.0 L 0.0,-14.4" style="stroke:black;fill:none;stroke-width:2.0;stroke-dasharray:-;stroke-linecap:round;stroke-linejoin:round;" /><path d="M 0.0,-14.4 L -6.75,-14.4" style="stroke:black;fill:none;stroke-width:2.0;stroke-dasharray:-;stroke-linecap:round;stroke-linejoin:round;" /><path d="M 0.0,-14.4 L 6.75,-14.4" style="stroke:black;fill:none;stroke-width:2.0;stroke-dasharray:-;stroke-linecap:round;stroke-linejoin:round;" /><path d="M 0.0,-0.0 L -3.3065463576978533e-15,18.0 L -3.3065463576978533e-15,18.0 M -9.919639073093561e-15,54.0 L -9.919639073093561e-15,54.0 L -1.3226185430791413e-14,72.0" style="stroke:black;fill:none;stroke-width:2.0;stroke-dasharray:-;stroke-linecap:round;stroke-linejoin:round;" /><path d="M -4.9598195365467806e-15,27.0 L -6.819055509535661e-15,36.0" style="stroke:black;fill:none;stroke-width:2.0;stroke-dasharray:-;stroke-linecap:round;stroke-linejoin:round;" /><path d="M -7.944741364309306e-15 43.0 L -2.7000000000000064 36.0 L 2.699999999999993 36.0 Z" style="stroke:black;fill:black;stroke-linecap:butt;stroke-linejoin:miter;" /><path d="M -1.3226185430791413e-14,72.0 L -1.487945860964034e-14,81.0 L -1.6532731788489267e-14,90.0" style="stroke:black;fill:none;stroke-width:2.0;stroke-dasharray:-;stroke-linecap:round;stroke-linejoin:round;" /><path d="M -1.6532731788489267e-14,90.0 L -1.8186004967338195e-14,99.0 L -1.983927814618712e-14,108.0" style="stroke:black;fill:none;stroke-width:2.0;stroke-dasharray:-;stroke-linecap:round;stroke-linejoin:round;" /><path d="M -1.983927814618712e-14,108.0 L -1.983927814618712e-14,123.0 L 14.999999999999979,123.0 L 14.999999999999979,153.0 L -1.983927814618712e-14,153.0 L -1.983927814618712e-14,167.99999999999997" style="stroke:black;fill:none;stroke-width:2.0;stroke-dasharray:-;stroke-linecap:round;stroke-linejoin:round;" /><path d="M 14.999999999999979,153.0 L 8.99999999999998,153.0" style="stroke:black;fill:none;stroke-width:2.0;stroke-dasharray:-;stroke-linecap:round;stroke-linejoin:round;" /><path d="M 1.9999999999999802 153.0 L 8.999999999999982 148.5 L 8.999999999999979 157.5 Z" style="stroke:black;fill:black;stroke-linecap:butt;stroke-linejoin:miter;" /><path d="M 17.99999999999998,126.0 L 17.99999999999998,150.0" style="stroke:black;fill:none;stroke-width:2.0;stroke-dasharray:-;stroke-linecap:round;stroke-linejoin:round;" /><path d="M 17.99999999999998,138.0 L 32.99999999999997,138.0" style="stroke:black;fill:none;stroke-width:2.0;stroke-dasharray:-;stroke-linecap:round;stroke-linejoin:round;" /><path d="M -1.983927814618712e-14,167.99999999999997 L -2.314582450388497e-14,185.99999999999997 L 8.999999999999975,188.99999999999997 L -9.000000000000025,194.99999999999997 L 8.999999999999973,201.0 L -9.000000000000028,206.99999999999997 L 8.999999999999972,212.99999999999997 L -9.00000000000003,218.99999999999994 L -2.975891721928068e-14,221.99999999999997 L -3.3065463576978534e-14,239.99999999999997" style="stroke:black;fill:none;stroke-width:2.0;stroke-dasharray:-;stroke-linecap:round;stroke-linejoin:round;" /><path d="M -3.3065463576978534e-14,239.99999999999997 L -3.3065463576978534e-14,254.39999999999998 L -9.000000000000034,254.39999999999998 L 8.999999999999966,254.39999999999998 M -6.300000000000033,258.71999999999997 L 6.299999999999967,258.71999999999997 M -1.8000000000000331,263.03999999999996 L 1.7999999999999672,263.03999999999996" style="stroke:black;fill:none;stroke-width:2.0;stroke-dasharray:-;stroke-linecap:round;stroke-linejoin:round;" /><path d="M 32.99999999999997,138.0 L 41.99999999999998,138.0 L 50.99999999999998,138.0" style="stroke:black;fill:none;stroke-width:2.0;stroke-dasharray:-;stroke-linecap:round;stroke-linejoin:round;" /><path d="M 50.99999999999998,138.0 L 50.99999999999998,114.0 L 50.99999999999998,90.0" style="stroke:black;fill:none;stroke-width:2.0;stroke-dasharray:-;stroke-linecap:round;stroke-linejoin:round;" /><path d="M 50.99999999999998,90.0 L 25.499999999999982,90.0 L -1.5987211554602254e-14,90.0" style="stroke:black;fill:none;stroke-width:2.0;stroke-dasharray:-;stroke-linecap:round;stroke-linejoin:round;" /><path d="M 32.99999999999997,138.0 L 59.99999999999998,138.0 L 86.99999999999997,138.0" style="stroke:black;fill:none;stroke-width:2.0;stroke-dasharray:-;stroke-linecap:round;stroke-linejoin:round;" /><path d="M 119.99999999999997,167.99999999999997 L 119.99999999999997,153.0 L 104.99999999999997,153.0 L 104.99999999999997,123.0 L 119.99999999999997,123.0 L 119.99999999999997,108.0" style="stroke:black;fill:none;stroke-width:2.0;stroke-dasharray:-;stroke-linecap:round;stroke-linejoin:round;" /><path d="M 110.99999999999997,153.0 L 104.99999999999997,153.0" style="stroke:black;fill:none;stroke-width:2.0;stroke-dasharray:-;stroke-linecap:round;stroke-linejoin:round;" /><path d="M 117.99999999999997 153.0 L 110.99999999999997 157.5 L 110.99999999999997 148.5 Z" style="stroke:black;fill:black;stroke-linecap:butt;stroke-linejoin:miter;" /><path d="M 101.99999999999997,149.99999999999997 L 101.99999999999997,125.99999999999999" style="stroke:black;fill:none;stroke-width:2.0;stroke-dasharray:-;stroke-linecap:round;stroke-linejoin:round;" /><path d="M 86.99999999999997,138.0 L 101.99999999999997,138.0" style="stroke:black;fill:none;stroke-width:2.0;stroke-dasharray:-;stroke-linecap:round;stroke-linejoin:round;" /><path d="M 119.99999999999997,167.99999999999997 L 119.99999999999997,185.99999999999997 L 128.99999999999997,188.99999999999997 L 110.99999999999997,194.99999999999997 L 128.99999999999997,201.0 L 110.99999999999996,206.99999999999997 L 128.99999999999994,212.99999999999997 L 110.99999999999996,218.99999999999994 L 119.99999999999996,221.99999999999997 L 119.99999999999996,239.99999999999997" style="stroke:black;fill:none;stroke-width:2.0;stroke-dasharray:-;stroke-linecap:round;stroke-linejoin:round;" /><path d="M 119.99999999999996,239.99999999999997 L 119.99999999999996,254.39999999999998 L 110.99999999999996,254.39999999999998 L 128.99999999999994,254.39999999999998 M 113.69999999999996,258.71999999999997 L 126.29999999999995,258.71999999999997 M 118.19999999999996,263.03999999999996 L 121.79999999999995,263.03999999999996" style="stroke:black;fill:none;stroke-width:2.0;stroke-dasharray:-;stroke-linecap:round;stroke-linejoin:round;" /><path d="M 119.99999999999997,108.0 L 119.99999999999997,90.0 L 119.99999999999997,72.0" style="stroke:black;fill:none;stroke-width:2.0;stroke-dasharray:-;stroke-linecap:round;stroke-linejoin:round;" /><g><g><g><path d="M -45.603 37.231 L -45.603 37.231 L -44.455 31.715 Q -44.329 31.169 -44.336 30.854 Q -44.343 30.539 -44.595 30.413 Q -44.847 30.287 -45.491 30.287 L -45.407 29.867 L -41.529 29.867 L -41.613 30.287 Q -42.229 30.287 -42.537 30.413 Q -42.845 30.539 -42.971 30.854 Q -43.097 31.169 -43.209 31.715 L -44.357 37.287 Q -44.399 37.511 -44.427 37.693 Q -44.455 37.875 -44.455 38.029 Q -44.455 38.421 -44.224 38.533 Q -43.993 38.645 -43.335 38.645 L -43.419 39.065 L -47.241 39.065 L -47.157 38.645 Q -46.583 38.645 -46.296 38.547 Q -46.009 38.449 -45.869 38.148 Q -45.729 37.847 -45.603 37.231 Z " fill="black" /><path d="M -39.481 34.685 L -39.481 34.685 L -39.481 37.723 L -39.432 37.723 Q -39.148 37.389 -38.761 37.125 Q -38.373 36.86 -37.825 36.86 Q -37.315 36.86 -36.899 37.169 Q -36.482 37.478 -36.232 38.022 Q -35.982 38.565 -35.982 39.271 Q -35.982 40.212 -36.325 40.849 Q -36.668 41.486 -37.261 41.804 Q -37.854 42.123 -38.609 42.123 Q -39.05 42.123 -39.422 42.049 Q -39.794 41.976 -40.054 41.878 Q -40.314 41.78 -40.431 41.731 L -40.431 35.851 Q -40.431 35.488 -40.51 35.385 Q -40.588 35.282 -40.921 35.282 Q -41.029 35.282 -41.122 35.297 Q -41.215 35.312 -41.215 35.312 L -41.215 34.939 L -39.883 34.685 Z M -39.481 38.232 L -39.481 38.232 L -39.481 41.172 Q -39.363 41.388 -39.108 41.515 Q -38.854 41.643 -38.432 41.643 Q -37.913 41.643 -37.599 41.363 Q -37.286 41.084 -37.144 40.619 Q -37.001 40.153 -37.001 39.604 Q -37.001 39.104 -37.114 38.649 Q -37.227 38.193 -37.511 37.909 Q -37.795 37.625 -38.295 37.625 Q -38.56 37.625 -38.8 37.728 Q -39.04 37.83 -39.216 37.973 Q -39.393 38.115 -39.481 38.232 Z " fill="black" /><path d="M -32.405 41.643 L -32.405 41.643 L -32.405 42.005 L -34.894 42.005 L -34.894 41.643 Q -34.551 41.643 -34.4 41.569 Q -34.248 41.496 -34.208 41.334 Q -34.169 41.172 -34.169 40.908 L -34.169 37.948 Q -34.169 37.615 -34.277 37.546 Q -34.385 37.478 -34.64 37.478 Q -34.767 37.478 -34.845 37.487 Q -34.924 37.497 -34.924 37.497 L -34.924 37.105 L -33.611 36.89 L -33.209 36.89 L -33.209 40.908 Q -33.209 41.192 -33.165 41.354 Q -33.121 41.515 -32.949 41.579 Q -32.778 41.643 -32.405 41.643 Z M -33.699 34.724 L -33.699 34.724 Q -33.415 34.724 -33.224 34.92 Q -33.032 35.116 -33.032 35.371 Q -33.032 35.606 -33.224 35.802 Q -33.415 35.998 -33.699 35.998 Q -33.973 35.998 -34.155 35.802 Q -34.336 35.606 -34.336 35.371 Q -34.336 35.116 -34.155 34.92 Q -33.973 34.724 -33.699 34.724 Z " fill="black" /><path d="M -28.485 41.388 L -28.485 41.388 L -28.554 41.388 Q -28.887 41.662 -29.289 41.868 Q -29.691 42.074 -30.161 42.074 Q -30.778 42.074 -31.107 41.701 Q -31.435 41.329 -31.435 40.8 Q -31.435 40.349 -31.224 40.045 Q -31.014 39.741 -30.676 39.55 Q -30.337 39.359 -29.945 39.242 Q -29.553 39.124 -29.191 39.055 Q -28.828 38.987 -28.583 38.928 L -28.583 38.418 Q -28.583 37.762 -28.843 37.512 Q -29.103 37.262 -29.602 37.262 Q -29.906 37.262 -30.039 37.34 Q -30.171 37.419 -30.205 37.595 Q -30.239 37.772 -30.249 38.056 Q -30.259 38.271 -30.377 38.404 Q -30.494 38.536 -30.72 38.536 Q -30.935 38.536 -31.087 38.404 Q -31.239 38.271 -31.239 38.017 Q -31.239 37.713 -31.004 37.448 Q -30.769 37.184 -30.333 37.022 Q -29.896 36.86 -29.308 36.86 Q -28.426 36.86 -28.03 37.267 Q -27.633 37.674 -27.633 38.487 L -27.633 40.888 Q -27.633 41.211 -27.559 41.305 Q -27.486 41.398 -27.329 41.398 Q -27.162 41.398 -27.04 41.329 Q -26.917 41.26 -26.809 41.133 L -26.594 41.339 Q -27.103 42.064 -27.789 42.064 Q -28.172 42.064 -28.314 41.883 Q -28.456 41.701 -28.485 41.388 Z M -28.583 41.025 L -28.583 41.025 L -28.583 39.3 Q -29.034 39.418 -29.465 39.56 Q -29.896 39.702 -30.176 39.947 Q -30.455 40.192 -30.455 40.633 Q -30.455 41.015 -30.235 41.236 Q -30.014 41.456 -29.671 41.456 Q -29.465 41.456 -29.176 41.363 Q -28.887 41.27 -28.583 41.025 Z " fill="black" /><path d="M -25.918 40.222 L -25.918 40.222 L -25.604 40.222 Q -25.477 40.79 -25.3 41.104 Q -25.124 41.417 -24.845 41.54 Q -24.565 41.662 -24.163 41.662 Q -23.703 41.662 -23.453 41.51 Q -23.203 41.358 -23.203 40.976 Q -23.203 40.721 -23.326 40.55 Q -23.448 40.378 -23.718 40.222 Q -23.987 40.065 -24.438 39.859 Q -24.898 39.634 -25.227 39.438 Q -25.555 39.242 -25.727 38.977 Q -25.898 38.712 -25.898 38.311 Q -25.898 37.605 -25.423 37.233 Q -24.947 36.86 -24.232 36.86 Q -23.801 36.86 -23.502 36.968 Q -23.203 37.076 -23.027 37.154 L -23.007 37.154 L -22.85 36.909 L -22.576 36.909 L -22.556 38.536 L -22.899 38.536 Q -23.085 37.781 -23.419 37.522 Q -23.752 37.262 -24.183 37.262 Q -24.634 37.262 -24.864 37.458 Q -25.094 37.654 -25.094 37.968 Q -25.094 38.222 -24.938 38.389 Q -24.781 38.556 -24.492 38.698 Q -24.203 38.84 -23.801 39.036 Q -23.35 39.251 -23.007 39.482 Q -22.664 39.712 -22.468 40.001 Q -22.272 40.29 -22.272 40.721 Q -22.272 41.241 -22.546 41.554 Q -22.821 41.868 -23.252 42 Q -23.683 42.133 -24.154 42.133 Q -24.634 42.133 -24.898 42.035 Q -25.163 41.937 -25.388 41.848 L -25.428 41.848 L -25.673 42.103 L -25.898 42.103 Z " fill="black" /></g></g></g><circle cx="-1.6532731788489267e-14" cy="90.0" r="2.6999999999999997" style="stroke:black;fill:black;stroke-width:2.0;stroke-dasharray:-;" /><g><g><g><path d="M -16.2 133.142 L -16.2 133.142 L -16.242 133.562 Q -16.746 133.576 -17.054 133.786 Q -17.362 133.996 -17.726 134.528 L -22.654 142.424 L -23.06 142.424 L -23.522 136.978 L -23.578 136.978 L -27.176 142.424 L -27.568 142.424 L -28.254 134.822 Q -28.31 134.136 -28.548 133.849 Q -28.786 133.562 -29.388 133.562 L -29.318 133.142 L -25.818 133.142 L -25.888 133.562 Q -26.49 133.562 -26.728 133.681 Q -26.966 133.8 -26.994 134.08 Q -26.994 134.108 -26.994 134.164 Q -26.994 134.276 -26.994 134.437 Q -26.994 134.598 -26.966 134.794 L -26.602 138.742 L -26.532 140.086 L -26.448 140.086 L -23.62 135.984 L -23.718 134.878 Q -23.774 134.276 -23.865 133.996 Q -23.956 133.716 -24.159 133.639 Q -24.362 133.562 -24.768 133.562 L -24.698 133.142 L -21.128 133.142 L -21.198 133.562 Q -21.968 133.562 -22.227 133.814 Q -22.486 134.066 -22.43 134.85 L -22.094 138.63 L -22.038 140.058 L -21.968 140.058 L -18.986 135.368 Q -18.762 135.018 -18.566 134.64 Q -18.37 134.262 -18.37 133.954 Q -18.37 133.744 -18.524 133.653 Q -18.678 133.562 -19.14 133.562 L -19.056 133.142 Z " fill="black" /><path d="M -11.286 132.414 L -11.286 132.414 L -14.926 143.586 L -15.71 143.586 L -12.056 132.414 Z " fill="black" /><path d="M -3.04 139.61 L -3.04 139.61 L -3.88 142.34 L -10.796 142.34 L -10.712 141.92 Q -10.166 141.92 -9.879 141.822 Q -9.592 141.724 -9.438 141.444 Q -9.284 141.164 -9.172 140.604 L -7.968 134.766 Q -7.87 134.304 -7.898 134.038 Q -7.926 133.772 -8.185 133.667 Q -8.444 133.562 -9.046 133.562 L -8.962 133.142 L -4.986 133.142 L -5.056 133.562 Q -5.812 133.562 -6.19 133.793 Q -6.568 134.024 -6.722 134.78 L -7.996 141.052 Q -8.094 141.514 -7.898 141.661 Q -7.702 141.808 -7.086 141.808 L -6.428 141.808 Q -5.756 141.808 -5.336 141.689 Q -4.916 141.57 -4.622 141.318 Q -4.328 141.066 -4.069 140.639 Q -3.81 140.212 -3.488 139.61 Z " fill="black" /></g></g></g><g><g><g><path d="M -52.408 196.35 L -52.408 196.35 L -53.654 202.888 L -53.584 202.888 L -51.4 200.914 Q -51.246 200.788 -51.155 200.662 Q -51.064 200.536 -51.064 200.396 Q -51.064 200.172 -51.253 200.102 Q -51.442 200.032 -51.694 200.032 L -51.652 199.682 L -48.642 199.682 L -48.684 200.032 Q -49.398 200.046 -49.79 200.298 Q -50.182 200.55 -50.532 200.872 L -52.086 202.244 L -51.05 204.652 Q -50.896 205.002 -50.749 205.205 Q -50.602 205.408 -50.294 205.408 Q -49.93 205.408 -49.671 205.163 Q -49.412 204.918 -49.188 204.596 L -48.894 204.792 Q -48.95 204.89 -49.104 205.142 Q -49.258 205.394 -49.51 205.674 Q -49.762 205.954 -50.091 206.157 Q -50.42 206.36 -50.826 206.36 Q -51.176 206.36 -51.4 206.192 Q -51.624 206.024 -51.757 205.772 Q -51.89 205.52 -52.002 205.268 L -52.968 202.93 L -53.78 203.644 L -54.27 206.22 L -55.418 206.22 L -53.766 197.708 Q -53.766 197.708 -53.745 197.568 Q -53.724 197.428 -53.724 197.288 Q -53.724 196.84 -54.214 196.84 Q -54.34 196.84 -54.494 196.854 Q -54.648 196.868 -54.648 196.868 L -54.648 196.504 L -52.716 196.35 Z " fill="black" /><path d="M -42.62 202.65 L -42.62 202.65 Q -42.62 202.972 -42.837 203.21 Q -43.054 203.448 -43.46 203.448 Q -43.866 203.448 -44.069 203.217 Q -44.272 202.986 -44.272 202.636 Q -44.272 202.286 -44.055 202.034 Q -43.838 201.782 -43.446 201.782 Q -43.04 201.782 -42.83 202.041 Q -42.62 202.3 -42.62 202.65 Z " fill="black" /><path d="M -30.129 198.954 L -30.129 198.954 Q -30.129 199.696 -30.409 200.2 Q -30.689 200.704 -31.137 201.026 Q -31.585 201.348 -32.096 201.523 Q -32.607 201.698 -33.069 201.782 L -33.069 201.852 Q -32.817 202.02 -32.593 202.363 Q -32.369 202.706 -32.04 203.35 Q -31.711 203.994 -31.137 205.086 Q -30.899 205.506 -30.612 205.653 Q -30.325 205.8 -29.849 205.8 L -29.933 206.22 L -32.061 206.22 Q -32.453 205.352 -32.719 204.771 Q -32.985 204.19 -33.181 203.798 Q -33.377 203.406 -33.524 203.098 Q -33.671 202.79 -33.839 202.468 Q -33.993 202.174 -34.175 202.083 Q -34.357 201.992 -34.735 201.992 L -35.029 201.992 L -35.547 204.484 Q -35.659 205.058 -35.624 205.345 Q -35.589 205.632 -35.309 205.716 Q -35.029 205.8 -34.427 205.8 L -34.497 206.22 L -38.361 206.22 L -38.277 205.8 Q -37.759 205.8 -37.479 205.716 Q -37.199 205.632 -37.052 205.352 Q -36.905 205.072 -36.793 204.484 L -35.561 198.478 Q -35.477 198.086 -35.519 197.862 Q -35.561 197.638 -35.806 197.54 Q -36.051 197.442 -36.611 197.442 L -36.527 197.022 L -33.237 197.022 Q -31.767 197.022 -30.948 197.477 Q -30.129 197.932 -30.129 198.954 Z M -34.147 197.61 L -34.147 197.61 L -34.931 201.474 L -34.497 201.488 Q -33.657 201.46 -32.978 201.215 Q -32.299 200.97 -31.907 200.438 Q -31.515 199.906 -31.515 199.01 Q -31.515 198.632 -31.676 198.303 Q -31.837 197.974 -32.229 197.771 Q -32.621 197.568 -33.321 197.568 Q -33.587 197.568 -33.748 197.575 Q -33.909 197.582 -34.147 197.61 Z " fill="black" /><path d="M -23.414 209.033 L -23.414 209.033 L -24.737 209.209 L -25.089 209.209 L -25.089 208.523 L -25.158 208.523 Q -25.481 208.798 -25.888 209.023 Q -26.295 209.249 -26.804 209.249 Q -27.383 209.249 -27.789 208.935 Q -28.196 208.621 -28.412 208.073 Q -28.627 207.524 -28.627 206.828 Q -28.627 205.956 -28.289 205.324 Q -27.951 204.692 -27.388 204.353 Q -26.824 204.015 -26.158 204.015 Q -25.579 204.015 -25.109 204.28 L -25.109 203.016 Q -25.109 202.663 -25.183 202.55 Q -25.256 202.438 -25.57 202.438 Q -25.638 202.438 -25.751 202.452 Q -25.864 202.467 -25.864 202.467 L -25.864 202.095 L -24.56 201.84 L -24.158 201.84 L -24.158 208.053 Q -24.158 208.435 -24.051 208.548 Q -23.943 208.661 -23.678 208.661 L -23.414 208.661 Z M -25.109 208.073 L -25.109 208.073 L -25.109 205.211 Q -25.217 204.937 -25.467 204.721 Q -25.717 204.505 -26.177 204.505 Q -26.834 204.505 -27.255 204.951 Q -27.677 205.397 -27.677 206.426 Q -27.677 207.475 -27.309 207.96 Q -26.942 208.445 -26.275 208.445 Q -25.962 208.445 -25.702 208.357 Q -25.442 208.269 -25.109 208.073 Z " fill="black" /><path d="M -18.269 207.7 L -18.269 207.7 L -18.033 207.886 Q -18.239 208.259 -18.494 208.572 Q -18.749 208.886 -19.121 209.072 Q -19.494 209.258 -20.062 209.258 Q -20.679 209.258 -21.214 208.979 Q -21.748 208.7 -22.071 208.122 Q -22.394 207.543 -22.394 206.661 Q -22.394 205.789 -22.091 205.201 Q -21.787 204.613 -21.267 204.314 Q -20.748 204.015 -20.111 204.015 Q -19.229 204.015 -18.646 204.628 Q -18.063 205.24 -18.043 206.456 L -21.493 206.456 Q -21.493 207.122 -21.243 207.558 Q -20.993 207.994 -20.601 208.205 Q -20.209 208.416 -19.778 208.416 Q -19.337 208.416 -19.072 208.322 Q -18.808 208.229 -18.626 208.063 Q -18.445 207.896 -18.269 207.7 Z M -21.493 206.005 L -21.493 206.005 L -19.092 206.005 Q -19.092 205.613 -19.219 205.265 Q -19.347 204.917 -19.592 204.696 Q -19.837 204.476 -20.219 204.476 Q -20.777 204.476 -21.106 204.868 Q -21.434 205.26 -21.493 206.005 Z " fill="black" /><path d="M -16.083 207.191 L -16.083 207.191 L -16.083 207.151 Q -16.426 206.946 -16.666 206.617 Q -16.906 206.289 -16.906 205.77 Q -16.906 205.221 -16.642 204.829 Q -16.377 204.437 -15.926 204.226 Q -15.476 204.015 -14.917 204.015 Q -14.398 204.015 -14.069 204.128 Q -13.741 204.241 -13.741 204.241 L -12.3 204.202 L -12.3 204.78 L -13.329 204.76 L -13.329 204.829 Q -13.202 205.005 -13.065 205.245 Q -12.928 205.485 -12.928 205.917 Q -12.928 206.407 -13.187 206.764 Q -13.447 207.122 -13.883 207.313 Q -14.319 207.504 -14.868 207.504 Q -15.368 207.504 -15.809 207.328 Q -15.877 207.455 -15.971 207.69 Q -16.064 207.926 -16.064 208.092 Q -16.064 208.298 -15.824 208.396 Q -15.583 208.494 -14.868 208.494 Q -14.339 208.494 -13.888 208.518 Q -13.437 208.543 -13.104 208.656 Q -12.771 208.768 -12.59 209.018 Q -12.408 209.268 -12.408 209.729 Q -12.408 210.258 -12.678 210.625 Q -12.947 210.993 -13.388 211.218 Q -13.829 211.444 -14.344 211.547 Q -14.858 211.65 -15.358 211.65 Q -16.073 211.65 -16.465 211.473 Q -16.857 211.297 -17.009 211.022 Q -17.161 210.748 -17.161 210.464 Q -17.161 210.189 -16.97 209.92 Q -16.779 209.65 -16.358 209.258 L -16.358 209.209 Q -16.603 209.082 -16.769 208.866 Q -16.936 208.651 -16.936 208.445 Q -16.936 208.151 -16.676 207.823 Q -16.416 207.494 -16.083 207.191 Z M -16.034 209.307 L -16.034 209.307 Q -16.201 209.592 -16.26 209.758 Q -16.318 209.925 -16.318 210.091 Q -16.318 210.542 -15.951 210.772 Q -15.583 211.003 -14.809 211.003 Q -14.172 211.003 -13.78 210.846 Q -13.388 210.689 -13.202 210.469 Q -13.016 210.248 -13.016 210.042 Q -13.016 209.778 -13.187 209.631 Q -13.359 209.484 -13.623 209.42 Q -13.888 209.356 -14.182 209.337 Q -14.476 209.317 -14.731 209.317 Q -14.799 209.317 -14.839 209.317 Q -15.466 209.317 -15.696 209.312 Q -15.926 209.307 -16.034 209.307 Z M -14.976 204.447 L -14.976 204.447 Q -15.397 204.447 -15.657 204.731 Q -15.917 205.015 -15.917 205.711 Q -15.917 206.397 -15.642 206.75 Q -15.368 207.102 -14.868 207.102 Q -14.603 207.102 -14.388 206.995 Q -14.172 206.887 -14.04 206.603 Q -13.908 206.318 -13.908 205.799 Q -13.908 205.133 -14.197 204.79 Q -14.486 204.447 -14.976 204.447 Z " fill="black" /></g></g></g><circle cx="50.99999999999998" cy="138.0" r="2.6999999999999997" style="stroke:black;fill:black;stroke-width:2.0;stroke-dasharray:-;" /><g><g><g><path d="M 135.835 132.47 L 135.835 132.47 L 134.589 139.008 L 134.659 139.008 L 136.843 137.034 Q 136.997 136.908 137.088 136.782 Q 137.179 136.656 137.179 136.516 Q 137.179 136.292 136.99 136.222 Q 136.801 136.152 136.549 136.152 L 136.591 135.802 L 139.601 135.802 L 139.559 136.152 Q 138.845 136.166 138.453 136.418 Q 138.061 136.67 137.711 136.992 L 136.157 138.364 L 137.193 140.772 Q 137.347 141.122 137.494 141.325 Q 137.641 141.528 137.949 141.528 Q 138.313 141.528 138.572 141.283 Q 138.831 141.038 139.055 140.716 L 139.349 140.912 Q 139.293 141.01 139.139 141.262 Q 138.985 141.514 138.733 141.794 Q 138.481 142.074 138.152 142.277 Q 137.823 142.48 137.417 142.48 Q 137.067 142.48 136.843 142.312 Q 136.619 142.144 136.486 141.892 Q 136.353 141.64 136.241 141.388 L 135.275 139.05 L 134.463 139.764 L 133.973 142.34 L 132.825 142.34 L 134.477 133.828 Q 134.477 133.828 134.498 133.688 Q 134.519 133.548 134.519 133.408 Q 134.519 132.96 134.029 132.96 Q 133.903 132.96 133.749 132.974 Q 133.595 132.988 133.595 132.988 L 133.595 132.624 L 135.527 132.47 Z " fill="black" /><path d="M 145.624 138.77 L 145.624 138.77 Q 145.624 139.092 145.407 139.33 Q 145.19 139.568 144.784 139.568 Q 144.378 139.568 144.175 139.337 Q 143.972 139.106 143.972 138.756 Q 143.972 138.406 144.189 138.154 Q 144.406 137.902 144.798 137.902 Q 145.204 137.902 145.414 138.161 Q 145.624 138.42 145.624 138.77 Z " fill="black" /><path d="M 164.022 133.142 L 164.022 133.142 L 163.98 133.562 Q 163.476 133.576 163.168 133.786 Q 162.86 133.996 162.496 134.528 L 157.568 142.424 L 157.162 142.424 L 156.7 136.978 L 156.644 136.978 L 153.046 142.424 L 152.654 142.424 L 151.968 134.822 Q 151.912 134.136 151.674 133.849 Q 151.436 133.562 150.834 133.562 L 150.904 133.142 L 154.404 133.142 L 154.334 133.562 Q 153.732 133.562 153.494 133.681 Q 153.256 133.8 153.228 134.08 Q 153.228 134.108 153.228 134.164 Q 153.228 134.276 153.228 134.437 Q 153.228 134.598 153.256 134.794 L 153.62 138.742 L 153.69 140.086 L 153.774 140.086 L 156.602 135.984 L 156.504 134.878 Q 156.448 134.276 156.357 133.996 Q 156.266 133.716 156.063 133.639 Q 155.86 133.562 155.454 133.562 L 155.524 133.142 L 159.094 133.142 L 159.024 133.562 Q 158.254 133.562 157.995 133.814 Q 157.736 134.066 157.792 134.85 L 158.128 138.63 L 158.184 140.058 L 158.254 140.058 L 161.236 135.368 Q 161.46 135.018 161.656 134.64 Q 161.852 134.262 161.852 133.954 Q 161.852 133.744 161.698 133.653 Q 161.544 133.562 161.082 133.562 L 161.166 133.142 Z " fill="black" /><path d="M 168.936 132.414 L 168.936 132.414 L 165.296 143.586 L 164.512 143.586 L 168.166 132.414 Z " fill="black" /><path d="M 177.182 139.61 L 177.182 139.61 L 176.342 142.34 L 169.426 142.34 L 169.51 141.92 Q 170.056 141.92 170.343 141.822 Q 170.63 141.724 170.784 141.444 Q 170.938 141.164 171.05 140.604 L 172.254 134.766 Q 172.352 134.304 172.324 134.038 Q 172.296 133.772 172.037 133.667 Q 171.778 133.562 171.176 133.562 L 171.26 133.142 L 175.236 133.142 L 175.166 133.562 Q 174.41 133.562 174.032 133.793 Q 173.654 134.024 173.5 134.78 L 172.226 141.052 Q 172.128 141.514 172.324 141.661 Q 172.52 141.808 173.136 141.808 L 173.794 141.808 Q 174.466 141.808 174.886 141.689 Q 175.306 141.57 175.6 141.318 Q 175.894 141.066 176.153 140.639 Q 176.412 140.212 176.734 139.61 Z " fill="black" /></g></g></g><g><g><g><path d="M 89.171 198.618 L 89.171 198.618 Q 89.171 199.36 88.891 199.864 Q 88.611 200.368 88.163 200.69 Q 87.715 201.012 87.204 201.187 Q 86.693 201.362 86.231 201.446 L 86.231 201.516 Q 86.483 201.684 86.707 202.027 Q 86.931 202.37 87.26 203.014 Q 87.589 203.658 88.163 204.75 Q 88.401 205.17 88.688 205.317 Q 88.975 205.464 89.451 205.464 L 89.367 205.884 L 87.239 205.884 Q 86.847 205.016 86.581 204.435 Q 86.315 203.854 86.119 203.462 Q 85.923 203.07 85.776 202.762 Q 85.629 202.454 85.461 202.132 Q 85.307 201.838 85.125 201.747 Q 84.943 201.656 84.565 201.656 L 84.271 201.656 L 83.753 204.148 Q 83.641 204.722 83.676 205.009 Q 83.711 205.296 83.991 205.38 Q 84.271 205.464 84.873 205.464 L 84.803 205.884 L 80.939 205.884 L 81.023 205.464 Q 81.541 205.464 81.821 205.38 Q 82.101 205.296 82.248 205.016 Q 82.395 204.736 82.507 204.148 L 83.739 198.142 Q 83.823 197.75 83.781 197.526 Q 83.739 197.302 83.494 197.204 Q 83.249 197.106 82.689 197.106 L 82.773 196.686 L 86.063 196.686 Q 87.533 196.686 88.352 197.141 Q 89.171 197.596 89.171 198.618 Z M 85.153 197.274 L 85.153 197.274 L 84.369 201.138 L 84.803 201.152 Q 85.643 201.124 86.322 200.879 Q 87.001 200.634 87.393 200.102 Q 87.785 199.57 87.785 198.674 Q 87.785 198.296 87.624 197.967 Q 87.463 197.638 87.071 197.435 Q 86.679 197.232 85.979 197.232 Q 85.713 197.232 85.552 197.239 Q 85.391 197.246 85.153 197.274 Z " fill="black" /><path d="M 95.886 208.697 L 95.886 208.697 L 94.563 208.873 L 94.211 208.873 L 94.211 208.187 L 94.142 208.187 Q 93.819 208.462 93.412 208.687 Q 93.005 208.913 92.496 208.913 Q 91.917 208.913 91.511 208.599 Q 91.104 208.285 90.888 207.737 Q 90.673 207.188 90.673 206.492 Q 90.673 205.62 91.011 204.988 Q 91.349 204.356 91.912 204.017 Q 92.476 203.679 93.142 203.679 Q 93.721 203.679 94.191 203.944 L 94.191 202.68 Q 94.191 202.327 94.117 202.214 Q 94.044 202.102 93.73 202.102 Q 93.662 202.102 93.549 202.116 Q 93.436 202.131 93.436 202.131 L 93.436 201.759 L 94.74 201.504 L 95.142 201.504 L 95.142 207.717 Q 95.142 208.099 95.249 208.212 Q 95.357 208.325 95.622 208.325 L 95.886 208.325 Z M 94.191 207.737 L 94.191 207.737 L 94.191 204.875 Q 94.083 204.601 93.833 204.385 Q 93.583 204.169 93.123 204.169 Q 92.466 204.169 92.045 204.615 Q 91.623 205.061 91.623 206.09 Q 91.623 207.139 91.991 207.624 Q 92.358 208.109 93.025 208.109 Q 93.338 208.109 93.598 208.021 Q 93.858 207.933 94.191 207.737 Z " fill="black" /><path d="M 101.031 207.364 L 101.031 207.364 L 101.267 207.55 Q 101.061 207.923 100.806 208.236 Q 100.551 208.55 100.179 208.736 Q 99.806 208.922 99.238 208.922 Q 98.621 208.922 98.086 208.643 Q 97.552 208.364 97.229 207.786 Q 96.906 207.207 96.906 206.325 Q 96.906 205.453 97.209 204.865 Q 97.513 204.277 98.033 203.978 Q 98.552 203.679 99.189 203.679 Q 100.071 203.679 100.654 204.292 Q 101.237 204.904 101.257 206.12 L 97.807 206.12 Q 97.807 206.786 98.057 207.222 Q 98.307 207.658 98.699 207.869 Q 99.091 208.08 99.522 208.08 Q 99.963 208.08 100.228 207.986 Q 100.492 207.893 100.674 207.727 Q 100.855 207.56 101.031 207.364 Z M 97.807 205.669 L 97.807 205.669 L 100.208 205.669 Q 100.208 205.277 100.081 204.929 Q 99.953 204.581 99.708 204.36 Q 99.463 204.14 99.081 204.14 Q 98.523 204.14 98.194 204.532 Q 97.866 204.924 97.807 205.669 Z " fill="black" /><path d="M 103.217 206.855 L 103.217 206.855 L 103.217 206.815 Q 102.874 206.61 102.634 206.281 Q 102.394 205.953 102.394 205.434 Q 102.394 204.885 102.658 204.493 Q 102.923 204.101 103.374 203.89 Q 103.824 203.679 104.383 203.679 Q 104.902 203.679 105.231 203.792 Q 105.559 203.905 105.559 203.905 L 107 203.866 L 107 204.444 L 105.971 204.424 L 105.971 204.493 Q 106.098 204.669 106.235 204.909 Q 106.372 205.149 106.372 205.581 Q 106.372 206.071 106.113 206.428 Q 105.853 206.786 105.417 206.977 Q 104.981 207.168 104.432 207.168 Q 103.932 207.168 103.491 206.992 Q 103.423 207.119 103.329 207.354 Q 103.236 207.59 103.236 207.756 Q 103.236 207.962 103.476 208.06 Q 103.717 208.158 104.432 208.158 Q 104.961 208.158 105.412 208.182 Q 105.863 208.207 106.196 208.32 Q 106.529 208.432 106.71 208.682 Q 106.892 208.932 106.892 209.393 Q 106.892 209.922 106.622 210.289 Q 106.353 210.657 105.912 210.882 Q 105.471 211.108 104.956 211.211 Q 104.442 211.314 103.942 211.314 Q 103.227 211.314 102.835 211.137 Q 102.443 210.961 102.291 210.686 Q 102.139 210.412 102.139 210.128 Q 102.139 209.853 102.33 209.584 Q 102.521 209.314 102.942 208.922 L 102.942 208.873 Q 102.697 208.746 102.531 208.53 Q 102.364 208.315 102.364 208.109 Q 102.364 207.815 102.624 207.487 Q 102.884 207.158 103.217 206.855 Z M 103.266 208.971 L 103.266 208.971 Q 103.099 209.256 103.04 209.422 Q 102.982 209.589 102.982 209.755 Q 102.982 210.206 103.349 210.436 Q 103.717 210.667 104.491 210.667 Q 105.128 210.667 105.52 210.51 Q 105.912 210.353 106.098 210.133 Q 106.284 209.912 106.284 209.706 Q 106.284 209.442 106.113 209.295 Q 105.941 209.148 105.677 209.084 Q 105.412 209.02 105.118 209.001 Q 104.824 208.981 104.569 208.981 Q 104.501 208.981 104.461 208.981 Q 103.834 208.981 103.604 208.976 Q 103.374 208.971 103.266 208.971 Z M 104.324 204.111 L 104.324 204.111 Q 103.903 204.111 103.643 204.395 Q 103.383 204.679 103.383 205.375 Q 103.383 206.061 103.658 206.414 Q 103.932 206.766 104.432 206.766 Q 104.697 206.766 104.912 206.659 Q 105.128 206.551 105.26 206.267 Q 105.392 205.982 105.392 205.463 Q 105.392 204.797 105.103 204.454 Q 104.814 204.111 104.324 204.111 Z " fill="black" /></g></g></g><circle cx="119.99999999999997" cy="72.0" r="2.6999999999999997" style="stroke:black;fill:white;stroke-width:2.0;stroke-dasharray:-;" /><g><g><g><path d="M 78.71 60.799 L 78.71 60.799 L 79.858 55.283 Q 79.984 54.737 79.977 54.422 Q 79.97 54.107 79.718 53.981 Q 79.466 53.855 78.822 53.855 L 78.906 53.435 L 82.784 53.435 L 82.7 53.855 Q 82.084 53.855 81.776 53.981 Q 81.468 54.107 81.342 54.422 Q 81.216 54.737 81.104 55.283 L 79.956 60.855 Q 79.914 61.079 79.886 61.261 Q 79.858 61.443 79.858 61.597 Q 79.858 61.989 80.089 62.101 Q 80.32 62.213 80.978 62.213 L 80.894 62.633 L 77.072 62.633 L 77.156 62.213 Q 77.73 62.213 78.017 62.115 Q 78.304 62.017 78.444 61.716 Q 78.584 61.415 78.71 60.799 Z " fill="black" /><path d="M 85.812 60.428 L 85.812 60.428 Q 86.547 60.428 87.096 60.746 Q 87.645 61.065 87.944 61.638 Q 88.242 62.211 88.242 62.985 Q 88.242 63.916 87.929 64.514 Q 87.615 65.112 87.066 65.401 Q 86.518 65.69 85.812 65.69 Q 85.097 65.69 84.543 65.391 Q 83.989 65.092 83.681 64.495 Q 83.372 63.897 83.372 62.995 Q 83.372 62.231 83.676 61.653 Q 83.979 61.074 84.528 60.751 Q 85.077 60.428 85.812 60.428 Z M 85.792 60.878 L 85.792 60.878 Q 85.146 60.878 84.778 61.403 Q 84.411 61.927 84.411 62.936 Q 84.411 64.181 84.788 64.696 Q 85.165 65.21 85.841 65.21 Q 86.273 65.2 86.576 64.994 Q 86.88 64.789 87.042 64.304 Q 87.204 63.818 87.204 62.985 Q 87.204 61.986 86.861 61.432 Q 86.518 60.878 85.792 60.878 Z " fill="black" /><path d="M 94.906 65.073 L 94.906 65.073 L 94.906 65.445 L 93.583 65.622 L 93.27 65.622 L 93.27 64.857 L 93.172 64.857 Q 92.799 65.19 92.417 65.431 Q 92.035 65.671 91.496 65.671 Q 90.771 65.671 90.389 65.23 Q 90.006 64.789 90.006 63.701 L 90.006 61.594 Q 90.006 61.192 89.864 61.099 Q 89.722 61.006 89.271 61.006 L 89.271 60.653 L 90.634 60.467 L 90.957 60.467 L 90.957 63.573 Q 90.957 64.122 91.084 64.426 Q 91.212 64.73 91.427 64.847 Q 91.643 64.965 91.898 64.965 Q 92.329 64.965 92.618 64.784 Q 92.907 64.602 93.221 64.348 L 93.221 61.594 Q 93.221 61.192 93.044 61.099 Q 92.868 61.006 92.368 61.006 L 92.368 60.653 L 93.828 60.467 L 94.171 60.467 L 94.171 64.436 Q 94.171 64.73 94.225 64.867 Q 94.279 65.004 94.416 65.039 Q 94.554 65.073 94.799 65.073 Z " fill="black" /><path d="M 98.728 64.593 L 98.728 64.593 L 98.954 64.779 Q 98.738 65.073 98.562 65.274 Q 98.385 65.475 98.16 65.582 Q 97.935 65.69 97.582 65.69 Q 97.013 65.69 96.754 65.367 Q 96.494 65.043 96.494 64.328 L 96.494 61.035 L 95.877 61.035 L 95.877 60.741 Q 96.229 60.486 96.523 60.119 Q 96.817 59.751 97.111 59.065 L 97.454 59.065 L 97.445 60.555 L 98.689 60.555 L 98.689 61.035 L 97.445 61.035 L 97.445 64.005 Q 97.445 64.553 97.548 64.784 Q 97.65 65.014 97.964 65.014 Q 98.248 65.014 98.395 64.911 Q 98.542 64.808 98.728 64.593 Z " fill="black" /><path d="M 113.605 58.055 L 113.605 58.055 L 105.261 58.055 L 105.261 57.103 L 113.605 57.103 Z M 113.605 60.911 L 113.605 60.911 L 105.261 60.911 L 105.261 59.973 L 113.605 59.973 Z " fill="black" /><path d="M 123.24 52.763 L 123.24 52.763 L 121.994 59.301 L 122.064 59.301 L 124.248 57.327 Q 124.402 57.201 124.493 57.075 Q 124.584 56.949 124.584 56.809 Q 124.584 56.585 124.395 56.515 Q 124.206 56.445 123.954 56.445 L 123.996 56.095 L 127.006 56.095 L 126.964 56.445 Q 126.25 56.459 125.858 56.711 Q 125.466 56.963 125.116 57.285 L 123.562 58.657 L 124.598 61.065 Q 124.752 61.415 124.899 61.618 Q 125.046 61.821 125.354 61.821 Q 125.718 61.821 125.977 61.576 Q 126.236 61.331 126.46 61.009 L 126.754 61.205 Q 126.698 61.303 126.544 61.555 Q 126.39 61.807 126.138 62.087 Q 125.886 62.367 125.557 62.57 Q 125.228 62.773 124.822 62.773 Q 124.472 62.773 124.248 62.605 Q 124.024 62.437 123.891 62.185 Q 123.758 61.933 123.646 61.681 L 122.68 59.343 L 121.868 60.057 L 121.378 62.633 L 120.23 62.633 L 121.882 54.121 Q 121.882 54.121 121.903 53.981 Q 121.924 53.841 121.924 53.701 Q 121.924 53.253 121.434 53.253 Q 121.308 53.253 121.154 53.267 Q 121 53.281 121 53.281 L 121 52.917 L 122.932 52.763 Z " fill="black" /><path d="M 133.029 59.063 L 133.029 59.063 Q 133.029 59.385 132.812 59.623 Q 132.595 59.861 132.189 59.861 Q 131.783 59.861 131.58 59.63 Q 131.377 59.399 131.377 59.049 Q 131.377 58.699 131.594 58.447 Q 131.811 58.195 132.203 58.195 Q 132.609 58.195 132.819 58.454 Q 133.029 58.713 133.029 59.063 Z " fill="black" /><path d="M 138.925 60.799 L 138.925 60.799 L 140.073 55.283 Q 140.199 54.737 140.192 54.422 Q 140.185 54.107 139.933 53.981 Q 139.681 53.855 139.037 53.855 L 139.121 53.435 L 142.999 53.435 L 142.915 53.855 Q 142.299 53.855 141.991 53.981 Q 141.683 54.107 141.557 54.422 Q 141.431 54.737 141.319 55.283 L 140.171 60.855 Q 140.129 61.079 140.101 61.261 Q 140.073 61.443 140.073 61.597 Q 140.073 61.989 140.304 62.101 Q 140.535 62.213 141.193 62.213 L 141.109 62.633 L 137.287 62.633 L 137.371 62.213 Q 137.945 62.213 138.232 62.115 Q 138.519 62.017 138.659 61.716 Q 138.799 61.415 138.925 60.799 Z " fill="black" /><path d="M 145.047 58.252 L 145.047 58.252 L 145.047 61.29 L 145.096 61.29 Q 145.381 60.957 145.768 60.692 Q 146.155 60.428 146.704 60.428 Q 147.213 60.428 147.63 60.736 Q 148.046 61.045 148.296 61.589 Q 148.546 62.133 148.546 62.838 Q 148.546 63.779 148.203 64.416 Q 147.86 65.053 147.267 65.372 Q 146.674 65.69 145.92 65.69 Q 145.479 65.69 145.106 65.617 Q 144.734 65.543 144.474 65.445 Q 144.214 65.347 144.097 65.298 L 144.097 59.418 Q 144.097 59.056 144.018 58.953 Q 143.94 58.85 143.607 58.85 Q 143.499 58.85 143.406 58.865 Q 143.313 58.879 143.313 58.879 L 143.313 58.507 L 144.646 58.252 Z M 145.047 61.8 L 145.047 61.8 L 145.047 64.74 Q 145.165 64.955 145.42 65.083 Q 145.675 65.21 146.096 65.21 Q 146.615 65.21 146.929 64.931 Q 147.243 64.651 147.385 64.186 Q 147.527 63.72 147.527 63.172 Q 147.527 62.672 147.414 62.216 Q 147.301 61.76 147.017 61.476 Q 146.733 61.192 146.233 61.192 Q 145.969 61.192 145.728 61.295 Q 145.488 61.398 145.312 61.54 Q 145.136 61.682 145.047 61.8 Z " fill="black" /><path d="M 152.123 65.21 L 152.123 65.21 L 152.123 65.573 L 149.634 65.573 L 149.634 65.21 Q 149.977 65.21 150.129 65.137 Q 150.281 65.063 150.32 64.901 Q 150.359 64.74 150.359 64.475 L 150.359 61.515 Q 150.359 61.182 150.251 61.114 Q 150.143 61.045 149.889 61.045 Q 149.761 61.045 149.683 61.055 Q 149.604 61.065 149.604 61.065 L 149.604 60.673 L 150.918 60.457 L 151.319 60.457 L 151.319 64.475 Q 151.319 64.759 151.363 64.921 Q 151.408 65.083 151.579 65.146 Q 151.751 65.21 152.123 65.21 Z M 150.829 58.291 L 150.829 58.291 Q 151.114 58.291 151.305 58.487 Q 151.496 58.683 151.496 58.938 Q 151.496 59.173 151.305 59.369 Q 151.114 59.565 150.829 59.565 Q 150.555 59.565 150.374 59.369 Q 150.192 59.173 150.192 58.938 Q 150.192 58.683 150.374 58.487 Q 150.555 58.291 150.829 58.291 Z " fill="black" /><path d="M 156.043 64.955 L 156.043 64.955 L 155.974 64.955 Q 155.641 65.23 155.239 65.435 Q 154.838 65.641 154.367 65.641 Q 153.75 65.641 153.421 65.269 Q 153.093 64.896 153.093 64.367 Q 153.093 63.916 153.304 63.613 Q 153.515 63.309 153.853 63.118 Q 154.191 62.927 154.583 62.809 Q 154.975 62.691 155.337 62.623 Q 155.7 62.554 155.945 62.495 L 155.945 61.986 Q 155.945 61.329 155.685 61.079 Q 155.426 60.829 154.926 60.829 Q 154.622 60.829 154.49 60.908 Q 154.357 60.986 154.323 61.163 Q 154.289 61.339 154.279 61.623 Q 154.269 61.839 154.152 61.971 Q 154.034 62.103 153.809 62.103 Q 153.593 62.103 153.441 61.971 Q 153.289 61.839 153.289 61.584 Q 153.289 61.28 153.524 61.016 Q 153.76 60.751 154.196 60.589 Q 154.632 60.428 155.22 60.428 Q 156.102 60.428 156.499 60.834 Q 156.896 61.241 156.896 62.054 L 156.896 64.455 Q 156.896 64.779 156.969 64.872 Q 157.043 64.965 157.199 64.965 Q 157.366 64.965 157.488 64.896 Q 157.611 64.828 157.719 64.7 L 157.934 64.906 Q 157.425 65.631 156.739 65.631 Q 156.357 65.631 156.214 65.45 Q 156.072 65.269 156.043 64.955 Z M 155.945 64.593 L 155.945 64.593 L 155.945 62.868 Q 155.494 62.985 155.063 63.128 Q 154.632 63.27 154.352 63.515 Q 154.073 63.76 154.073 64.201 Q 154.073 64.583 154.294 64.803 Q 154.514 65.024 154.857 65.024 Q 155.063 65.024 155.352 64.931 Q 155.641 64.838 155.945 64.593 Z " fill="black" /><path d="M 158.611 63.789 L 158.611 63.789 L 158.924 63.789 Q 159.052 64.357 159.228 64.671 Q 159.404 64.985 159.684 65.107 Q 159.963 65.23 160.365 65.23 Q 160.825 65.23 161.075 65.078 Q 161.325 64.926 161.325 64.544 Q 161.325 64.289 161.203 64.117 Q 161.08 63.946 160.811 63.789 Q 160.541 63.632 160.09 63.426 Q 159.63 63.201 159.301 63.005 Q 158.973 62.809 158.802 62.544 Q 158.63 62.28 158.63 61.878 Q 158.63 61.172 159.105 60.8 Q 159.581 60.428 160.296 60.428 Q 160.727 60.428 161.026 60.535 Q 161.325 60.643 161.502 60.722 L 161.521 60.722 L 161.678 60.477 L 161.952 60.477 L 161.972 62.103 L 161.629 62.103 Q 161.443 61.349 161.11 61.089 Q 160.776 60.829 160.345 60.829 Q 159.894 60.829 159.664 61.025 Q 159.434 61.221 159.434 61.535 Q 159.434 61.79 159.591 61.956 Q 159.747 62.123 160.036 62.265 Q 160.326 62.407 160.727 62.603 Q 161.178 62.819 161.521 63.049 Q 161.864 63.279 162.06 63.569 Q 162.256 63.858 162.256 64.289 Q 162.256 64.808 161.982 65.122 Q 161.707 65.435 161.276 65.568 Q 160.845 65.7 160.375 65.7 Q 159.894 65.7 159.63 65.602 Q 159.365 65.504 159.14 65.416 L 159.101 65.416 L 158.856 65.671 L 158.63 65.671 Z " fill="black" /></g></g></g></svg>