<svg xmlns="http://www.w3.org/2000/svg" xmlns:xlink="http://www.w3.org/1999/xlink" xml:lang="en" height="385.71200000000005pt" width="480.59839999999997pt" viewBox="-54.19840000000001 -22.072 480.59839999999997 385.71200000000005"><circle cx="-6.613092715395707e-15" cy="36.0" r="18.0" style="stroke:black;fill:none;stroke-width:2.0;stroke-dasharray:-;" /><circle cx="248.99999999999997" cy="87.00000000000001" r="18.0" style="stroke:blue;fill:none;stroke-width:2.0;stroke-dasharray:-;" /><circle cx="147.00000000000003" cy="87.00000000000001" r="18.0" style="stroke:blue;fill:none;stroke-width:2.0;stroke-dasharray:-;" /><path d="M 0.0,-0.0 L -3.3065463576978533e-15,18.0 L -3.3065463576978533e-15,18.0 M -9.919639073093561e-15,54.0 L -9.919639073093561e-15,54.0 L -1.3226185430791413e-14,72.0" style="stroke:black;fill:none;stroke-width:2.0;stroke-dasharray:-;stroke-linecap:round;stroke-linejoin:round;" /><path d="M -4.9598195365467806e-15,27.0 L -6.819055509535661e-15,36.0" style="stroke:black;fill:none;stroke-width:2.0;stroke-dasharray:-;stroke-linecap:round;stroke-linejoin:round;" /><path d="M -7.944741364309306e-15 43.0 L -2.7000000000000064 36.0 L 2.699999999999993 36.0 Z" style="stroke:black;fill:black;stroke-linecap:butt;stroke-linejoin:miter;" /><path d="M -1.3226185430791413e-14,72.0 L -1.6532731788489267e-14,90.0 L 8.999999999999982,93.0 L -9.000000000000018,99.0 L 8.99999999999998,105.0 L -9.000000000000021,110.99999999999999 L 8.999999999999979,117.0 L -9.000000000000025,123.0 L -2.3145824503884975e-14,126.0 L -2.6452370861582827e-14,144.0" style="stroke:black;fill:none;stroke-width:2.0;stroke-dasharray:-;stroke-linecap:round;stroke-linejoin:round;" /><path d="M -2.6452370861582827e-14,144.0 L -2.6452370861582827e-14,159.0 L 14.999999999999973,159.0 L 14.999999999999973,189.0 L -2.6452370861582827e-14,189.0 L -2.6452370861582827e-14,203.99999999999997" style="stroke:black;fill:none;stroke-width:2.0;stroke-dasharray:-;stroke-linecap:round;stroke-linejoin:round;" /><path d="M 14.999999999999973,189.0 L 8.999999999999973,189.0" style="stroke:black;fill:none;stroke-width:2.0;stroke-dasharray:-;stroke-linecap:round;stroke-linejoin:round;" /><path d="M 1.9999999999999736 189.0 L 8.999999999999975 184.5 L 8.999999999999972 193.5 Z" style="stroke:black;fill:black;stroke-linecap:butt;stroke-linejoin:miter;" /><path d="M 17.99999999999997,162.0 L 17.99999999999997,186.0" style="stroke:black;fill:none;stroke-width:2.0;stroke-dasharray:-;stroke-linecap:round;stroke-linejoin:round;" /><path d="M 17.99999999999997,174.0 L 32.999999999999964,174.0" style="stroke:black;fill:none;stroke-width:2.0;stroke-dasharray:-;stroke-linecap:round;stroke-linejoin:round;" /><path d="M -2.6452370861582827e-14,203.99999999999997 L -3.3065463576978534e-14,239.99999999999997 L -3.9678556292374245e-14,276.0" style="stroke:black;fill:none;stroke-width:2.0;stroke-dasharray:-;stroke-linecap:round;stroke-linejoin:round;" /><path d="M -3.9678556292374245e-14,276.0 L -3.9678556292374245e-14,290.99999999999994 L 14.99999999999996,290.99999999999994 L 14.99999999999996,321.0 L -3.9678556292374245e-14,321.0 L -3.9678556292374245e-14,335.99999999999994" style="stroke:black;fill:none;stroke-width:2.0;stroke-dasharray:-;stroke-linecap:round;stroke-linejoin:round;" /><path d="M 14.99999999999996,321.0 L 8.999999999999961,321.0" style="stroke:black;fill:none;stroke-width:2.0;stroke-dasharray:-;stroke-linecap:round;stroke-linejoin:round;" /><path d="M 1.9999999999999603 321.0 L 8.999999999999961 316.5 L 8.99999999999996 325.5 Z" style="stroke:black;fill:black;stroke-linecap:butt;stroke-linejoin:miter;" /><path d="M 17.999999999999957,294.0 L 17.999999999999957,317.99999999999994" style="stroke:black;fill:none;stroke-width:2.0;stroke-dasharray:-;stroke-linecap:round;stroke-linejoin:round;" /><path d="M 17.999999999999957,306.0 L 32.99999999999996,306.0" style="stroke:black;fill:none;stroke-width:2.0;stroke-dasharray:-;stroke-linecap:round;stroke-linejoin:round;" /><path d="M -3.9678556292374245e-14,335.99999999999994 L -3.9678556292374245e-14,350.4 L -9.000000000000039,350.4 L 8.999999999999961,350.4 M -6.30000000000004,354.7199999999999 L 6.29999999999996,354.7199999999999 M -1.8000000000000398,359.03999999999996 L 1.7999999999999603,359.03999999999996" style="stroke:black;fill:none;stroke-width:2.0;stroke-dasharray:-;stroke-linecap:round;stroke-linejoin:round;" /><path d="M 32.99999999999996,306.0 L 41.99999999999996,306.0 L 50.99999999999996,306.0" style="stroke:black;fill:none;stroke-width:2.0;stroke-dasharray:-;stroke-linecap:round;stroke-linejoin:round;" /><path d="M 50.99999999999996,306.0 L 50.999999999999964,225.0 L 50.999999999999964,144.0" style="stroke:black;fill:none;stroke-width:2.0;stroke-dasharray:-;stroke-linecap:round;stroke-linejoin:round;" /><path d="M 50.999999999999964,144.0 L 25.499999999999968,144.0 L -2.398081733190338e-14,144.0" style="stroke:black;fill:none;stroke-width:2.0;stroke-dasharray:-;stroke-linecap:round;stroke-linejoin:round;" /><path d="M 32.99999999999996,306.0 L 176.99999999999994,306.0 L 321.0,306.0" style="stroke:black;fill:none;stroke-width:2.0;stroke-dasharray:-;stroke-linecap:round;stroke-linejoin:round;" /><path d="M 353.99999999999994,336.0 L 353.99999999999994,321.0 L 339.0,321.0 L 339.0,291.0 L 353.99999999999994,291.0 L 353.99999999999994,276.0" style="stroke:black;fill:none;stroke-width:2.0;stroke-dasharray:-;stroke-linecap:round;stroke-linejoin:round;" /><path d="M 344.99999999999994,321.0 L 339.0,321.0" style="stroke:black;fill:none;stroke-width:2.0;stroke-dasharray:-;stroke-linecap:round;stroke-linejoin:round;" /><path d="M 351.99999999999994 321.0 L 344.99999999999994 325.5 L 344.99999999999994 316.5 Z" style="stroke:black;fill:black;stroke-linecap:butt;stroke-linejoin:miter;" /><path d="M 335.99999999999994,318.0 L 335.99999999999994,294.0" style="stroke:black;fill:none;stroke-width:2.0;stroke-dasharray:-;stroke-linecap:round;stroke-linejoin:round;" /><path d="M 321.0,306.0 L 335.99999999999994,306.0" style="stroke:black;fill:none;stroke-width:2.0;stroke-dasharray:-;stroke-linecap:round;stroke-linejoin:round;" /><path d="M 353.99999999999994,276.0 L 353.99999999999994,240.0 L 353.99999999999994,204.0" style="stroke:black;fill:none;stroke-width:2.0;stroke-dasharray:-;stroke-linecap:round;stroke-linejoin:round;" /><path d="M 353.99999999999994,204.0 L 353.99999999999994,189.0 L 339.0,189.0 L 339.0,159.0 L 353.99999999999994,159.0 L 353.99999999999994,144.0" style="stroke:black;fill:none;stroke-width:2.0;stroke-dasharray:-;stroke-linecap:round;stroke-linejoin:round;" /><path d="M 344.99999999999994,189.0 L 339.0,189.0" style="stroke:black;fill:none;stroke-width:2.0;stroke-dasharray:-;stroke-linecap:round;stroke-linejoin:round;" /><path d="M 351.99999999999994 189.0 L 344.99999999999994 193.5 L 344.99999999999994 184.5 Z" style="stroke:black;fill:black;stroke-linecap:butt;stroke-linejoin:miter;" /><path d="M 335.99999999999994,186.0 L 335.99999999999994,162.0" style="stroke:black;fill:none;stroke-width:2.0;stroke-dasharray:-;stroke-linecap:round;stroke-linejoin:round;" /><path d="M 321.0,174.00000000000003 L 335.99999999999994,174.00000000000003" style="stroke:black;fill:none;stroke-width:2.0;stroke-dasharray:-;stroke-linecap:round;stroke-linejoin:round;" /><path d="M 353.99999999999994,336.0 L 353.99999999999994,350.40000000000003 L 344.99999999999994,350.40000000000003 L 362.99999999999994,350.40000000000003 M 347.69999999999993,354.72 L 360.29999999999995,354.72 M 352.19999999999993,359.04 L 355.79999999999995,359.04" style="stroke:black;fill:none;stroke-width:2.0;stroke-dasharray:-;stroke-linecap:round;stroke-linejoin:round;" /><path d="M 353.99999999999994,144.0 L 353.99999999999994,108.0 L 353.99999999999994,72.0" style="stroke:black;fill:none;stroke-width:2.0;stroke-dasharray:-;stroke-linecap:round;stroke-linejoin:round;" /><path d="M 32.999999999999964,174.0 L 59.999999999999964,174.0 L 86.99999999999996,174.0" style="stroke:black;fill:none;stroke-width:2.0;stroke-dasharray:-;stroke-linecap:round;stroke-linejoin:round;" /><path d="M 86.99999999999996,174.0 L 86.99999999999996,123.0 L 86.99999999999996,72.0" style="stroke:black;fill:none;stroke-width:2.0;stroke-dasharray:-;stroke-linecap:round;stroke-linejoin:round;" /><path d="M 86.99999999999996,72.0 L 43.49999999999997,71.99999999999999 L -1.5987211554602254e-14,71.99999999999999" style="stroke:black;fill:none;stroke-width:2.0;stroke-dasharray:-;stroke-linecap:round;stroke-linejoin:round;" /><path d="M 321.0,174.00000000000003 L 285.0,174.00000000000003 L 248.99999999999997,174.00000000000003" style="stroke:blue;fill:none;stroke-width:2.0;stroke-dasharray:-;stroke-linecap:round;stroke-linejoin:round;" /><path d="M 248.99999999999997,234.0 L 248.99999999999997,219.00000000000003 L 233.99999999999997,219.00000000000003 L 233.99999999999997,189.00000000000003 L 248.99999999999997,189.00000000000003 L 248.99999999999997,174.00000000000003" style="stroke:blue;fill:none;stroke-width:2.0;stroke-dasharray:-;stroke-linecap:round;stroke-linejoin:round;" /><path d="M 239.99999999999997,219.00000000000003 L 233.99999999999997,219.00000000000003" style="stroke:blue;fill:none;stroke-width:2.0;stroke-dasharray:-;stroke-linecap:round;stroke-linejoin:round;" /><path d="M 246.99999999999997 219.00000000000003 L 239.99999999999997 223.50000000000003 L 239.99999999999997 214.50000000000003 Z" style="stroke:blue;fill:blue;stroke-linecap:butt;stroke-linejoin:miter;" /><path d="M 230.99999999999997,216.00000000000003 L 230.99999999999997,192.00000000000003" style="stroke:blue;fill:none;stroke-width:2.0;stroke-dasharray:-;stroke-linecap:round;stroke-linejoin:round;" /><path d="M 216.0,204.0 L 230.99999999999997,204.0" style="stroke:blue;fill:none;stroke-width:2.0;stroke-dasharray:-;stroke-linecap:round;stroke-linejoin:round;" /><path d="M 248.99999999999997,234.0 L 248.99999999999997,252.0 L 248.99999999999997,270.0" style="stroke:blue;fill:none;stroke-width:2.0;stroke-dasharray:-;stroke-linecap:round;stroke-linejoin:round;" /><path d="M 248.99999999999997,270.0 L 124.49999999999997,270.0 L -3.197442310920451e-14,269.99999999999994" style="stroke:blue;fill:none;stroke-width:2.0;stroke-dasharray:-;stroke-linecap:round;stroke-linejoin:round;" /><path d="M 216.0,204.0 L 207.0,204.0 L 198.0,204.0" style="stroke:blue;fill:none;stroke-width:2.0;stroke-dasharray:-;stroke-linecap:round;stroke-linejoin:round;" /><path d="M 198.0,204.0 L 189.0,204.0 L 180.0,204.0" style="stroke:blue;fill:none;stroke-width:2.0;stroke-dasharray:-;stroke-linecap:round;stroke-linejoin:round;" /><path d="M 147.00000000000003,174.00000000000003 L 147.00000000000003,189.0 L 162.0,189.0 L 162.0,219.00000000000003 L 147.00000000000003,219.00000000000003 L 147.00000000000003,234.0" style="stroke:blue;fill:none;stroke-width:2.0;stroke-dasharray:-;stroke-linecap:round;stroke-linejoin:round;" /><path d="M 162.0,219.00000000000003 L 156.00000000000003,219.00000000000003" style="stroke:blue;fill:none;stroke-width:2.0;stroke-dasharray:-;stroke-linecap:round;stroke-linejoin:round;" /><path d="M 149.00000000000003 219.00000000000003 L 156.00000000000003 214.50000000000003 L 156.00000000000003 223.50000000000003 Z" style="stroke:blue;fill:blue;stroke-linecap:butt;stroke-linejoin:miter;" /><path d="M 165.0,192.00000000000003 L 165.0,216.0" style="stroke:blue;fill:none;stroke-width:2.0;stroke-dasharray:-;stroke-linecap:round;stroke-linejoin:round;" /><path d="M 165.0,204.0 L 180.0,204.0" style="stroke:blue;fill:none;stroke-width:2.0;stroke-dasharray:-;stroke-linecap:round;stroke-linejoin:round;" /><path d="M 147.00000000000003,234.0 L 147.00000000000003,243.0 L 147.00000000000003,252.0" style="stroke:blue;fill:none;stroke-width:2.0;stroke-dasharray:-;stroke-linecap:round;stroke-linejoin:round;" /><path d="M 147.00000000000003,252.0 L 250.5,252.0 L 353.99999999999994,252.0" style="stroke:blue;fill:none;stroke-width:2.0;stroke-dasharray:-;stroke-linecap:round;stroke-linejoin:round;" /><path d="M 198.0,204.0 L 198.0,189.0 L 198.0,174.00000000000003" style="stroke:blue;fill:none;stroke-width:2.0;stroke-dasharray:-;stroke-linecap:round;stroke-linejoin:round;" /><path d="M 198.0,174.00000000000003 L 172.5,174.00000000000003 L 147.00000000000003,174.00000000000003" style="stroke:blue;fill:none;stroke-width:2.0;stroke-dasharray:-;stroke-linecap:round;stroke-linejoin:round;" /><path d="M 248.99999999999997,174.00000000000003 L 248.99999999999997,105.00000000000001 L 248.99999999999997,105.00000000000001 M 248.99999999999997,69.00000000000001 L 248.99999999999997,69.00000000000001 L 248.99999999999997,-0.0" style="stroke:blue;fill:none;stroke-width:2.0;stroke-dasharray:-;stroke-linecap:round;stroke-linejoin:round;" /><path d="M 248.99999999999997,87.00000000000001 L 248.99999999999997,78.00000000000001" style="stroke:blue;fill:none;stroke-width:2.0;stroke-dasharray:-;stroke-linecap:round;stroke-linejoin:round;" /><path d="M 248.99999999999997 94.00000000000001 L 246.29999999999998 87.00000000000001 L 251.69999999999996 87.00000000000001 Z" style="stroke:blue;fill:blue;stroke-linecap:butt;stroke-linejoin:miter;" /><path d="M 147.00000000000003,174.00000000000003 L 147.00000000000003,105.00000000000001 L 147.00000000000003,105.00000000000001 M 147.00000000000003,69.00000000000001 L 147.00000000000003,69.00000000000001 L 147.00000000000003,-0.0" style="stroke:blue;fill:none;stroke-width:2.0;stroke-dasharray:-;stroke-linecap:round;stroke-linejoin:round;" /><path d="M 147.00000000000003,87.00000000000001 L 147.00000000000003,78.00000000000001" style="stroke:blue;fill:none;stroke-width:2.0;stroke-dasharray:-;stroke-linecap:round;stroke-linejoin:round;" /><path d="M 147.00000000000003 94.00000000000001 L 144.30000000000004 87.00000000000001 L 149.70000000000002 87.00000000000001 Z" style="stroke:blue;fill:blue;stroke-linecap:butt;stroke-linejoin:miter;" /><path d="M -18.0,-0.0 L 124.49999999999999,-0.0 L 267.0,-0.0" style="stroke:black;fill:none;stroke-width:3;stroke-dasharray:-;stroke-linecap:round;stroke-linejoin:round;" /><circle cx="-1.3226185430791413e-14" cy="72.0" r="2.6999999999999997" style="stroke:black;fill:black;stroke-width:2.0;stroke-dasharray:-;" /><g><g><g><path d="M -54.733 38.757 L -54.733 38.757 L -53.421 32.453 Q -53.277 31.829 -53.285 31.469 Q -53.293 31.109 -53.581 30.965 Q -53.869 30.821 -54.605 30.821 L -54.509 30.341 L -50.077 30.341 L -50.173 30.821 Q -50.877 30.821 -51.229 30.965 Q -51.581 31.109 -51.725 31.469 Q -51.869 31.829 -51.997 32.453 L -53.309 38.821 Q -53.357 39.077 -53.389 39.285 Q -53.421 39.493 -53.421 39.669 Q -53.421 40.117 -53.157 40.245 Q -52.893 40.373 -52.141 40.373 L -52.237 40.853 L -56.605 40.853 L -56.509 40.373 Q -55.853 40.373 -55.525 40.261 Q -55.197 40.149 -55.037 39.805 Q -54.877 39.461 -54.733 38.757 Z " fill="black" /><path d="M -47.736 35.847 L -47.736 35.847 L -47.736 39.319 L -47.68 39.319 Q -47.355 38.938 -46.913 38.636 Q -46.47 38.333 -45.843 38.333 Q -45.261 38.333 -44.785 38.686 Q -44.309 39.039 -44.023 39.66 Q -43.738 40.282 -43.738 41.088 Q -43.738 42.164 -44.13 42.892 Q -44.522 43.62 -45.199 43.984 Q -45.877 44.348 -46.739 44.348 Q -47.243 44.348 -47.669 44.264 Q -48.094 44.18 -48.391 44.068 Q -48.688 43.956 -48.822 43.9 L -48.822 37.18 Q -48.822 36.765 -48.912 36.648 Q -49.002 36.53 -49.382 36.53 Q -49.506 36.53 -49.612 36.547 Q -49.718 36.564 -49.718 36.564 L -49.718 36.138 L -48.195 35.847 Z M -47.736 39.901 L -47.736 39.901 L -47.736 43.261 Q -47.602 43.508 -47.31 43.653 Q -47.019 43.799 -46.538 43.799 Q -45.944 43.799 -45.586 43.48 Q -45.227 43.16 -45.065 42.628 Q -44.902 42.096 -44.902 41.469 Q -44.902 40.898 -45.031 40.377 Q -45.16 39.856 -45.485 39.532 Q -45.81 39.207 -46.381 39.207 Q -46.683 39.207 -46.958 39.324 Q -47.232 39.442 -47.434 39.604 Q -47.635 39.767 -47.736 39.901 Z " fill="black" /><path d="M -39.65 43.799 L -39.65 43.799 L -39.65 44.213 L -42.494 44.213 L -42.494 43.799 Q -42.102 43.799 -41.929 43.715 Q -41.755 43.631 -41.71 43.446 Q -41.666 43.261 -41.666 42.959 L -41.666 39.576 Q -41.666 39.196 -41.789 39.117 Q -41.912 39.039 -42.203 39.039 Q -42.349 39.039 -42.438 39.05 Q -42.528 39.061 -42.528 39.061 L -42.528 38.613 L -41.027 38.367 L -40.568 38.367 L -40.568 42.959 Q -40.568 43.284 -40.518 43.468 Q -40.467 43.653 -40.271 43.726 Q -40.075 43.799 -39.65 43.799 Z M -41.128 35.892 L -41.128 35.892 Q -40.803 35.892 -40.585 36.116 Q -40.366 36.34 -40.366 36.631 Q -40.366 36.9 -40.585 37.124 Q -40.803 37.348 -41.128 37.348 Q -41.442 37.348 -41.649 37.124 Q -41.856 36.9 -41.856 36.631 Q -41.856 36.34 -41.649 36.116 Q -41.442 35.892 -41.128 35.892 Z " fill="black" /><path d="M -35.17 43.508 L -35.17 43.508 L -35.248 43.508 Q -35.629 43.821 -36.088 44.056 Q -36.547 44.292 -37.085 44.292 Q -37.79 44.292 -38.166 43.866 Q -38.541 43.44 -38.541 42.836 Q -38.541 42.32 -38.3 41.973 Q -38.059 41.626 -37.673 41.408 Q -37.286 41.189 -36.838 41.055 Q -36.39 40.92 -35.976 40.842 Q -35.562 40.764 -35.282 40.696 L -35.282 40.114 Q -35.282 39.364 -35.578 39.078 Q -35.875 38.792 -36.446 38.792 Q -36.794 38.792 -36.945 38.882 Q -37.096 38.972 -37.135 39.173 Q -37.174 39.375 -37.186 39.7 Q -37.197 39.946 -37.331 40.097 Q -37.466 40.248 -37.723 40.248 Q -37.97 40.248 -38.143 40.097 Q -38.317 39.946 -38.317 39.655 Q -38.317 39.308 -38.048 39.005 Q -37.779 38.703 -37.281 38.518 Q -36.782 38.333 -36.11 38.333 Q -35.102 38.333 -34.649 38.798 Q -34.195 39.263 -34.195 40.192 L -34.195 42.936 Q -34.195 43.306 -34.111 43.412 Q -34.027 43.519 -33.848 43.519 Q -33.658 43.519 -33.518 43.44 Q -33.378 43.362 -33.254 43.216 L -33.008 43.452 Q -33.59 44.28 -34.374 44.28 Q -34.811 44.28 -34.974 44.073 Q -35.136 43.866 -35.17 43.508 Z M -35.282 43.093 L -35.282 43.093 L -35.282 41.122 Q -35.797 41.256 -36.29 41.419 Q -36.782 41.581 -37.102 41.861 Q -37.421 42.141 -37.421 42.645 Q -37.421 43.082 -37.169 43.334 Q -36.917 43.586 -36.525 43.586 Q -36.29 43.586 -35.959 43.48 Q -35.629 43.373 -35.282 43.093 Z " fill="black" /><path d="M -32.235 42.175 L -32.235 42.175 L -31.877 42.175 Q -31.731 42.824 -31.53 43.183 Q -31.328 43.541 -31.009 43.681 Q -30.69 43.821 -30.23 43.821 Q -29.704 43.821 -29.418 43.648 Q -29.133 43.474 -29.133 43.037 Q -29.133 42.746 -29.273 42.55 Q -29.413 42.354 -29.721 42.175 Q -30.029 41.996 -30.544 41.76 Q -31.07 41.503 -31.446 41.279 Q -31.821 41.055 -32.017 40.752 Q -32.213 40.45 -32.213 39.991 Q -32.213 39.184 -31.67 38.759 Q -31.126 38.333 -30.309 38.333 Q -29.816 38.333 -29.474 38.456 Q -29.133 38.58 -28.931 38.669 L -28.909 38.669 L -28.73 38.389 L -28.416 38.389 L -28.394 40.248 L -28.786 40.248 Q -28.998 39.386 -29.379 39.089 Q -29.76 38.792 -30.253 38.792 Q -30.768 38.792 -31.031 39.016 Q -31.294 39.24 -31.294 39.599 Q -31.294 39.89 -31.115 40.08 Q -30.936 40.271 -30.606 40.433 Q -30.275 40.596 -29.816 40.82 Q -29.301 41.066 -28.909 41.329 Q -28.517 41.592 -28.293 41.923 Q -28.069 42.253 -28.069 42.746 Q -28.069 43.34 -28.382 43.698 Q -28.696 44.056 -29.189 44.208 Q -29.682 44.359 -30.219 44.359 Q -30.768 44.359 -31.07 44.247 Q -31.373 44.135 -31.63 44.034 L -31.675 44.034 L -31.955 44.325 L -32.213 44.325 Z " fill="black" /><path d="M -22.67 44.213 L -22.67 44.213 L -26.467 44.213 L -26.467 43.81 Q -25.661 43.81 -25.398 43.648 Q -25.134 43.485 -25.134 43.06 L -25.134 38.176 Q -25.134 37.874 -25.224 37.74 Q -25.314 37.605 -25.549 37.605 Q -25.728 37.605 -26.036 37.656 Q -26.344 37.706 -26.568 37.762 L -26.568 37.314 L -24.496 36.743 L -24.014 36.743 L -24.014 43.06 Q -24.014 43.485 -23.729 43.648 Q -23.443 43.81 -22.67 43.81 Z " fill="black" /></g></g></g><circle cx="-2.6452370861582827e-14" cy="144.0" r="2.6999999999999997" style="stroke:black;fill:black;stroke-width:2.0;stroke-dasharray:-;" /><g><g><g><path d="M -13.4 106.302 L -13.4 106.302 Q -13.4 107.15 -13.72 107.726 Q -14.04 108.302 -14.552 108.67 Q -15.064 109.038 -15.648 109.238 Q -16.232 109.438 -16.76 109.534 L -16.76 109.614 Q -16.472 109.806 -16.216 110.198 Q -15.96 110.59 -15.584 111.326 Q -15.208 112.062 -14.552 113.31 Q -14.28 113.79 -13.952 113.958 Q -13.624 114.126 -13.08 114.126 L -13.176 114.606 L -15.608 114.606 Q -16.056 113.614 -16.36 112.95 Q -16.664 112.286 -16.888 111.838 Q -17.112 111.39 -17.28 111.038 Q -17.448 110.686 -17.64 110.318 Q -17.816 109.982 -18.024 109.878 Q -18.232 109.774 -18.664 109.774 L -19 109.774 L -19.592 112.622 Q -19.72 113.278 -19.68 113.606 Q -19.64 113.934 -19.32 114.03 Q -19 114.126 -18.312 114.126 L -18.392 114.606 L -22.808 114.606 L -22.712 114.126 Q -22.12 114.126 -21.8 114.03 Q -21.48 113.934 -21.312 113.614 Q -21.144 113.294 -21.016 112.622 L -19.608 105.758 Q -19.512 105.31 -19.56 105.054 Q -19.608 104.798 -19.888 104.686 Q -20.168 104.574 -20.808 104.574 L -20.712 104.094 L -16.952 104.094 Q -15.272 104.094 -14.336 104.614 Q -13.4 105.134 -13.4 106.302 Z M -17.992 104.766 L -17.992 104.766 L -18.888 109.182 L -18.392 109.198 Q -17.432 109.166 -16.656 108.886 Q -15.88 108.606 -15.432 107.998 Q -14.984 107.39 -14.984 106.366 Q -14.984 105.934 -15.168 105.558 Q -15.352 105.182 -15.8 104.95 Q -16.248 104.718 -17.048 104.718 Q -17.352 104.718 -17.536 104.726 Q -17.72 104.734 -17.992 104.766 Z " fill="black" /></g></g></g><g><g><g><path d="M -28.682 167.48 L -28.682 167.48 L -28.73 167.96 Q -29.306 167.976 -29.658 168.216 Q -30.01 168.456 -30.426 169.064 L -36.058 178.088 L -36.522 178.088 L -37.05 171.864 L -37.114 171.864 L -41.226 178.088 L -41.674 178.088 L -42.458 169.4 Q -42.522 168.616 -42.794 168.288 Q -43.066 167.96 -43.754 167.96 L -43.674 167.48 L -39.674 167.48 L -39.754 167.96 Q -40.442 167.96 -40.714 168.096 Q -40.986 168.232 -41.018 168.552 Q -41.018 168.584 -41.018 168.648 Q -41.018 168.776 -41.018 168.96 Q -41.018 169.144 -40.986 169.368 L -40.57 173.88 L -40.49 175.416 L -40.394 175.416 L -37.162 170.728 L -37.274 169.464 Q -37.338 168.776 -37.442 168.456 Q -37.546 168.136 -37.778 168.048 Q -38.01 167.96 -38.474 167.96 L -38.394 167.48 L -34.314 167.48 L -34.394 167.96 Q -35.274 167.96 -35.57 168.248 Q -35.866 168.536 -35.802 169.432 L -35.418 173.752 L -35.354 175.384 L -35.274 175.384 L -31.866 170.024 Q -31.61 169.624 -31.386 169.192 Q -31.162 168.76 -31.162 168.408 Q -31.162 168.168 -31.338 168.064 Q -31.514 167.96 -32.042 167.96 L -31.946 167.48 Z " fill="black" /><path d="M -24.261 179.403 L -24.261 179.403 L -24.642 181.352 L -29.234 181.352 L -29.234 180.803 L -27.643 179.19 Q -27.016 178.563 -26.607 178.082 Q -26.198 177.6 -25.997 177.113 Q -25.795 176.626 -25.795 175.998 Q -25.795 175.405 -26.159 175.018 Q -26.523 174.632 -27.184 174.632 Q -27.789 174.632 -28.198 174.873 Q -28.606 175.114 -28.92 175.662 L -29.222 175.517 Q -28.942 174.733 -28.354 174.285 Q -27.766 173.837 -26.904 173.837 Q -26.232 173.837 -25.717 174.078 Q -25.202 174.318 -24.91 174.766 Q -24.619 175.214 -24.619 175.853 Q -24.619 176.402 -24.866 176.883 Q -25.112 177.365 -25.566 177.869 Q -26.019 178.373 -26.646 178.989 L -28.046 180.344 L -28.046 180.422 L -27.173 180.378 L -25.717 180.378 Q -25.392 180.378 -25.218 180.288 Q -25.045 180.198 -24.922 179.98 Q -24.798 179.762 -24.653 179.403 Z " fill="black" /><path d="M -18.253 166.648 L -18.253 166.648 L -22.413 179.416 L -23.309 179.416 L -19.133 166.648 Z " fill="black" /><path d="M -8.829 174.872 L -8.829 174.872 L -9.789 177.992 L -17.693 177.992 L -17.597 177.512 Q -16.973 177.512 -16.645 177.4 Q -16.317 177.288 -16.141 176.968 Q -15.965 176.648 -15.837 176.008 L -14.461 169.336 Q -14.349 168.808 -14.381 168.504 Q -14.413 168.2 -14.709 168.08 Q -15.005 167.96 -15.693 167.96 L -15.597 167.48 L -11.053 167.48 L -11.133 167.96 Q -11.997 167.96 -12.429 168.224 Q -12.861 168.488 -13.037 169.352 L -14.493 176.52 Q -14.605 177.048 -14.381 177.216 Q -14.157 177.384 -13.453 177.384 L -12.701 177.384 Q -11.933 177.384 -11.453 177.248 Q -10.973 177.112 -10.637 176.824 Q -10.301 176.536 -10.005 176.048 Q -9.709 175.56 -9.341 174.872 Z " fill="black" /><path d="M -2.904 179.403 L -2.904 179.403 L -3.285 181.352 L -7.877 181.352 L -7.877 180.803 L -6.286 179.19 Q -5.659 178.563 -5.25 178.082 Q -4.842 177.6 -4.64 177.113 Q -4.438 176.626 -4.438 175.998 Q -4.438 175.405 -4.802 175.018 Q -5.166 174.632 -5.827 174.632 Q -6.432 174.632 -6.841 174.873 Q -7.25 175.114 -7.563 175.662 L -7.866 175.517 Q -7.586 174.733 -6.998 174.285 Q -6.41 173.837 -5.547 173.837 Q -4.875 173.837 -4.36 174.078 Q -3.845 174.318 -3.554 174.766 Q -3.262 175.214 -3.262 175.853 Q -3.262 176.402 -3.509 176.883 Q -3.755 177.365 -4.209 177.869 Q -4.662 178.373 -5.29 178.989 L -6.69 180.344 L -6.69 180.422 L -5.816 180.378 L -4.36 180.378 Q -4.035 180.378 -3.862 180.288 Q -3.688 180.198 -3.565 179.98 Q -3.442 179.762 -3.296 179.403 Z " fill="black" /></g></g></g><g><g><g><path d="M -28.346 299.48 L -28.346 299.48 L -28.394 299.96 Q -28.97 299.976 -29.322 300.216 Q -29.674 300.456 -30.09 301.064 L -35.722 310.088 L -36.186 310.088 L -36.714 303.864 L -36.778 303.864 L -40.89 310.088 L -41.338 310.088 L -42.122 301.4 Q -42.186 300.616 -42.458 300.288 Q -42.73 299.96 -43.418 299.96 L -43.338 299.48 L -39.338 299.48 L -39.418 299.96 Q -40.106 299.96 -40.378 300.096 Q -40.65 300.232 -40.682 300.552 Q -40.682 300.584 -40.682 300.648 Q -40.682 300.776 -40.682 300.96 Q -40.682 301.144 -40.65 301.368 L -40.234 305.88 L -40.154 307.416 L -40.058 307.416 L -36.826 302.728 L -36.938 301.464 Q -37.002 300.776 -37.106 300.456 Q -37.21 300.136 -37.442 300.048 Q -37.674 299.96 -38.138 299.96 L -38.058 299.48 L -33.978 299.48 L -34.058 299.96 Q -34.938 299.96 -35.234 300.248 Q -35.53 300.536 -35.466 301.432 L -35.082 305.752 L -35.018 307.384 L -34.938 307.384 L -31.53 302.024 Q -31.274 301.624 -31.05 301.192 Q -30.826 300.76 -30.826 300.408 Q -30.826 300.168 -31.002 300.064 Q -31.178 299.96 -31.706 299.96 L -31.61 299.48 Z " fill="black" /><path d="M -24.563 313.352 L -24.563 313.352 L -28.36 313.352 L -28.36 312.949 Q -27.554 312.949 -27.29 312.786 Q -27.027 312.624 -27.027 312.198 L -27.027 307.315 Q -27.027 307.013 -27.117 306.878 Q -27.206 306.744 -27.442 306.744 Q -27.621 306.744 -27.929 306.794 Q -28.237 306.845 -28.461 306.901 L -28.461 306.453 L -26.389 305.882 L -25.907 305.882 L -25.907 312.198 Q -25.907 312.624 -25.622 312.786 Q -25.336 312.949 -24.563 312.949 Z " fill="black" /><path d="M -18.085 298.648 L -18.085 298.648 L -22.245 311.416 L -23.141 311.416 L -18.965 298.648 Z " fill="black" /><path d="M -8.661 306.872 L -8.661 306.872 L -9.621 309.992 L -17.525 309.992 L -17.429 309.512 Q -16.805 309.512 -16.477 309.4 Q -16.149 309.288 -15.973 308.968 Q -15.797 308.648 -15.669 308.008 L -14.293 301.336 Q -14.181 300.808 -14.213 300.504 Q -14.245 300.2 -14.541 300.08 Q -14.837 299.96 -15.525 299.96 L -15.429 299.48 L -10.885 299.48 L -10.965 299.96 Q -11.829 299.96 -12.261 300.224 Q -12.693 300.488 -12.869 301.352 L -14.325 308.52 Q -14.437 309.048 -14.213 309.216 Q -13.989 309.384 -13.285 309.384 L -12.533 309.384 Q -11.765 309.384 -11.285 309.248 Q -10.805 309.112 -10.469 308.824 Q -10.133 308.536 -9.837 308.048 Q -9.541 307.56 -9.173 306.872 Z " fill="black" /><path d="M -3.374 313.352 L -3.374 313.352 L -7.171 313.352 L -7.171 312.949 Q -6.365 312.949 -6.102 312.786 Q -5.838 312.624 -5.838 312.198 L -5.838 307.315 Q -5.838 307.013 -5.928 306.878 Q -6.018 306.744 -6.253 306.744 Q -6.432 306.744 -6.74 306.794 Q -7.048 306.845 -7.272 306.901 L -7.272 306.453 L -5.2 305.882 L -4.718 305.882 L -4.718 312.198 Q -4.718 312.624 -4.433 312.786 Q -4.147 312.949 -3.374 312.949 Z " fill="black" /></g></g></g><circle cx="50.99999999999996" cy="306.0" r="2.6999999999999997" style="stroke:black;fill:black;stroke-width:2.0;stroke-dasharray:-;" /><g><g><g><path d="M 364.409 298.712 L 364.409 298.712 L 362.985 306.184 L 363.065 306.184 L 365.561 303.928 Q 365.737 303.784 365.841 303.64 Q 365.945 303.496 365.945 303.336 Q 365.945 303.08 365.729 303 Q 365.513 302.92 365.225 302.92 L 365.273 302.52 L 368.713 302.52 L 368.665 302.92 Q 367.849 302.936 367.401 303.224 Q 366.953 303.512 366.553 303.88 L 364.777 305.448 L 365.961 308.2 Q 366.137 308.6 366.305 308.832 Q 366.473 309.064 366.825 309.064 Q 367.241 309.064 367.537 308.784 Q 367.833 308.504 368.089 308.136 L 368.425 308.36 Q 368.361 308.472 368.185 308.76 Q 368.009 309.048 367.721 309.368 Q 367.433 309.688 367.057 309.92 Q 366.681 310.152 366.217 310.152 Q 365.817 310.152 365.561 309.96 Q 365.305 309.768 365.153 309.48 Q 365.001 309.192 364.873 308.904 L 363.769 306.232 L 362.841 307.048 L 362.281 309.992 L 360.969 309.992 L 362.857 300.264 Q 362.857 300.264 362.881 300.104 Q 362.905 299.944 362.905 299.784 Q 362.905 299.272 362.345 299.272 Q 362.201 299.272 362.025 299.288 Q 361.849 299.304 361.849 299.304 L 361.849 298.888 L 364.057 298.712 Z " fill="black" /><path d="M 375.596 305.912 L 375.596 305.912 Q 375.596 306.28 375.348 306.552 Q 375.1 306.824 374.636 306.824 Q 374.172 306.824 373.94 306.56 Q 373.708 306.296 373.708 305.896 Q 373.708 305.496 373.956 305.208 Q 374.204 304.92 374.652 304.92 Q 375.116 304.92 375.356 305.216 Q 375.596 305.512 375.596 305.912 Z " fill="black" /><path d="M 396.622 299.48 L 396.622 299.48 L 396.574 299.96 Q 395.998 299.976 395.646 300.216 Q 395.294 300.456 394.878 301.064 L 389.246 310.088 L 388.782 310.088 L 388.254 303.864 L 388.19 303.864 L 384.078 310.088 L 383.63 310.088 L 382.846 301.4 Q 382.782 300.616 382.51 300.288 Q 382.238 299.96 381.55 299.96 L 381.63 299.48 L 385.63 299.48 L 385.55 299.96 Q 384.862 299.96 384.59 300.096 Q 384.318 300.232 384.286 300.552 Q 384.286 300.584 384.286 300.648 Q 384.286 300.776 384.286 300.96 Q 384.286 301.144 384.318 301.368 L 384.734 305.88 L 384.814 307.416 L 384.91 307.416 L 388.142 302.728 L 388.03 301.464 Q 387.966 300.776 387.862 300.456 Q 387.758 300.136 387.526 300.048 Q 387.294 299.96 386.83 299.96 L 386.91 299.48 L 390.99 299.48 L 390.91 299.96 Q 390.03 299.96 389.734 300.248 Q 389.438 300.536 389.502 301.432 L 389.886 305.752 L 389.95 307.384 L 390.03 307.384 L 393.438 302.024 Q 393.694 301.624 393.918 301.192 Q 394.142 300.76 394.142 300.408 Q 394.142 300.168 393.966 300.064 Q 393.79 299.96 393.262 299.96 L 393.358 299.48 Z " fill="black" /><path d="M 400.405 313.352 L 400.405 313.352 L 396.608 313.352 L 396.608 312.949 Q 397.414 312.949 397.678 312.786 Q 397.941 312.624 397.941 312.198 L 397.941 307.315 Q 397.941 307.013 397.851 306.878 Q 397.762 306.744 397.526 306.744 Q 397.347 306.744 397.039 306.794 Q 396.731 306.845 396.507 306.901 L 396.507 306.453 L 398.579 305.882 L 399.061 305.882 L 399.061 312.198 Q 399.061 312.624 399.346 312.786 Q 399.632 312.949 400.405 312.949 Z " fill="black" /><path d="M 406.883 298.648 L 406.883 298.648 L 402.723 311.416 L 401.827 311.416 L 406.003 298.648 Z " fill="black" /><path d="M 416.307 306.872 L 416.307 306.872 L 415.347 309.992 L 407.443 309.992 L 407.539 309.512 Q 408.163 309.512 408.491 309.4 Q 408.819 309.288 408.995 308.968 Q 409.171 308.648 409.299 308.008 L 410.675 301.336 Q 410.787 300.808 410.755 300.504 Q 410.723 300.2 410.427 300.08 Q 410.131 299.96 409.443 299.96 L 409.539 299.48 L 414.083 299.48 L 414.003 299.96 Q 413.139 299.96 412.707 300.224 Q 412.275 300.488 412.099 301.352 L 410.643 308.52 Q 410.531 309.048 410.755 309.216 Q 410.979 309.384 411.683 309.384 L 412.435 309.384 Q 413.203 309.384 413.683 309.248 Q 414.163 309.112 414.499 308.824 Q 414.835 308.536 415.131 308.048 Q 415.427 307.56 415.795 306.872 Z " fill="black" /><path d="M 421.594 313.352 L 421.594 313.352 L 417.797 313.352 L 417.797 312.949 Q 418.603 312.949 418.866 312.786 Q 419.13 312.624 419.13 312.198 L 419.13 307.315 Q 419.13 307.013 419.04 306.878 Q 418.95 306.744 418.715 306.744 Q 418.536 306.744 418.228 306.794 Q 417.92 306.845 417.696 306.901 L 417.696 306.453 L 419.768 305.882 L 420.25 305.882 L 420.25 312.198 Q 420.25 312.624 420.535 312.786 Q 420.821 312.949 421.594 312.949 Z " fill="black" /></g></g></g><g><g><g><path d="M 364.073 166.712 L 364.073 166.712 L 362.649 174.184 L 362.729 174.184 L 365.225 171.928 Q 365.401 171.784 365.505 171.64 Q 365.609 171.496 365.609 171.336 Q 365.609 171.08 365.393 171 Q 365.177 170.92 364.889 170.92 L 364.937 170.52 L 368.377 170.52 L 368.329 170.92 Q 367.513 170.936 367.065 171.224 Q 366.617 171.512 366.217 171.88 L 364.441 173.448 L 365.625 176.2 Q 365.801 176.6 365.969 176.832 Q 366.137 177.064 366.489 177.064 Q 366.905 177.064 367.201 176.784 Q 367.497 176.504 367.753 176.136 L 368.089 176.36 Q 368.025 176.472 367.849 176.76 Q 367.673 177.048 367.385 177.368 Q 367.097 177.688 366.721 177.92 Q 366.345 178.152 365.881 178.152 Q 365.481 178.152 365.225 177.96 Q 364.969 177.768 364.817 177.48 Q 364.665 177.192 364.537 176.904 L 363.433 174.232 L 362.505 175.048 L 361.945 177.992 L 360.633 177.992 L 362.521 168.264 Q 362.521 168.264 362.545 168.104 Q 362.569 167.944 362.569 167.784 Q 362.569 167.272 362.009 167.272 Q 361.865 167.272 361.689 167.288 Q 361.513 167.304 361.513 167.304 L 361.513 166.888 L 363.721 166.712 Z " fill="black" /><path d="M 375.26 173.912 L 375.26 173.912 Q 375.26 174.28 375.012 174.552 Q 374.764 174.824 374.3 174.824 Q 373.836 174.824 373.604 174.56 Q 373.372 174.296 373.372 173.896 Q 373.372 173.496 373.62 173.208 Q 373.868 172.92 374.316 172.92 Q 374.78 172.92 375.02 173.216 Q 375.26 173.512 375.26 173.912 Z " fill="black" /><path d="M 396.286 167.48 L 396.286 167.48 L 396.238 167.96 Q 395.662 167.976 395.31 168.216 Q 394.958 168.456 394.542 169.064 L 388.91 178.088 L 388.446 178.088 L 387.918 171.864 L 387.854 171.864 L 383.742 178.088 L 383.294 178.088 L 382.51 169.4 Q 382.446 168.616 382.174 168.288 Q 381.902 167.96 381.214 167.96 L 381.294 167.48 L 385.294 167.48 L 385.214 167.96 Q 384.526 167.96 384.254 168.096 Q 383.982 168.232 383.95 168.552 Q 383.95 168.584 383.95 168.648 Q 383.95 168.776 383.95 168.96 Q 383.95 169.144 383.982 169.368 L 384.398 173.88 L 384.478 175.416 L 384.574 175.416 L 387.806 170.728 L 387.694 169.464 Q 387.63 168.776 387.526 168.456 Q 387.422 168.136 387.19 168.048 Q 386.958 167.96 386.494 167.96 L 386.574 167.48 L 390.654 167.48 L 390.574 167.96 Q 389.694 167.96 389.398 168.248 Q 389.102 168.536 389.166 169.432 L 389.55 173.752 L 389.614 175.384 L 389.694 175.384 L 393.102 170.024 Q 393.358 169.624 393.582 169.192 Q 393.806 168.76 393.806 168.408 Q 393.806 168.168 393.63 168.064 Q 393.454 167.96 392.926 167.96 L 393.022 167.48 Z " fill="black" /><path d="M 400.707 179.403 L 400.707 179.403 L 400.326 181.352 L 395.734 181.352 L 395.734 180.803 L 397.325 179.19 Q 397.952 178.563 398.361 178.082 Q 398.77 177.6 398.971 177.113 Q 399.173 176.626 399.173 175.998 Q 399.173 175.405 398.809 175.018 Q 398.445 174.632 397.784 174.632 Q 397.179 174.632 396.77 174.873 Q 396.362 175.114 396.048 175.662 L 395.746 175.517 Q 396.026 174.733 396.614 174.285 Q 397.202 173.837 398.064 173.837 Q 398.736 173.837 399.251 174.078 Q 399.766 174.318 400.058 174.766 Q 400.349 175.214 400.349 175.853 Q 400.349 176.402 400.102 176.883 Q 399.856 177.365 399.402 177.869 Q 398.949 178.373 398.322 178.989 L 396.922 180.344 L 396.922 180.422 L 397.795 180.378 L 399.251 180.378 Q 399.576 180.378 399.75 180.288 Q 399.923 180.198 400.046 179.98 Q 400.17 179.762 400.315 179.403 Z " fill="black" /><path d="M 406.715 166.648 L 406.715 166.648 L 402.555 179.416 L 401.659 179.416 L 405.835 166.648 Z " fill="black" /><path d="M 416.139 174.872 L 416.139 174.872 L 415.179 177.992 L 407.275 177.992 L 407.371 177.512 Q 407.995 177.512 408.323 177.4 Q 408.651 177.288 408.827 176.968 Q 409.003 176.648 409.131 176.008 L 410.507 169.336 Q 410.619 168.808 410.587 168.504 Q 410.555 168.2 410.259 168.08 Q 409.963 167.96 409.275 167.96 L 409.371 167.48 L 413.915 167.48 L 413.835 167.96 Q 412.971 167.96 412.539 168.224 Q 412.107 168.488 411.931 169.352 L 410.475 176.52 Q 410.363 177.048 410.587 177.216 Q 410.811 177.384 411.515 177.384 L 412.267 177.384 Q 413.035 177.384 413.515 177.248 Q 413.995 177.112 414.331 176.824 Q 414.667 176.536 414.963 176.048 Q 415.259 175.56 415.627 174.872 Z " fill="black" /><path d="M 422.064 179.403 L 422.064 179.403 L 421.683 181.352 L 417.091 181.352 L 417.091 180.803 L 418.682 179.19 Q 419.309 178.563 419.718 178.082 Q 420.126 177.6 420.328 177.113 Q 420.53 176.626 420.53 175.998 Q 420.53 175.405 420.166 175.018 Q 419.802 174.632 419.141 174.632 Q 418.536 174.632 418.127 174.873 Q 417.718 175.114 417.405 175.662 L 417.102 175.517 Q 417.382 174.733 417.97 174.285 Q 418.558 173.837 419.421 173.837 Q 420.093 173.837 420.608 174.078 Q 421.123 174.318 421.414 174.766 Q 421.706 175.214 421.706 175.853 Q 421.706 176.402 421.459 176.883 Q 421.213 177.365 420.759 177.869 Q 420.306 178.373 419.678 178.989 L 418.278 180.344 L 418.278 180.422 L 419.152 180.378 L 420.608 180.378 Q 420.933 180.378 421.106 180.288 Q 421.28 180.198 421.403 179.98 Q 421.526 179.762 421.672 179.403 Z " fill="black" /></g></g></g><circle cx="353.99999999999994" cy="72.0" r="2.6999999999999997" style="stroke:black;fill:white;stroke-width:2.0;stroke-dasharray:-;" /><g><g><g><path d="M 303.961 60.098 L 303.961 60.098 L 305.273 53.794 Q 305.417 53.17 305.409 52.81 Q 305.401 52.45 305.113 52.306 Q 304.825 52.162 304.089 52.162 L 304.185 51.682 L 308.617 51.682 L 308.521 52.162 Q 307.817 52.162 307.465 52.306 Q 307.113 52.45 306.969 52.81 Q 306.825 53.17 306.697 53.794 L 305.385 60.162 Q 305.337 60.418 305.305 60.626 Q 305.273 60.834 305.273 61.01 Q 305.273 61.458 305.537 61.586 Q 305.801 61.714 306.553 61.714 L 306.457 62.194 L 302.089 62.194 L 302.185 61.714 Q 302.841 61.714 303.169 61.602 Q 303.497 61.49 303.657 61.146 Q 303.817 60.802 303.961 60.098 Z " fill="black" /><path d="M 312.078 59.674 L 312.078 59.674 Q 312.918 59.674 313.545 60.038 Q 314.172 60.402 314.514 61.058 Q 314.855 61.713 314.855 62.598 Q 314.855 63.662 314.497 64.345 Q 314.138 65.028 313.511 65.358 Q 312.884 65.689 312.078 65.689 Q 311.26 65.689 310.627 65.347 Q 309.994 65.006 309.642 64.322 Q 309.289 63.639 309.289 62.609 Q 309.289 61.735 309.636 61.074 Q 309.983 60.414 310.61 60.044 Q 311.238 59.674 312.078 59.674 Z M 312.055 60.19 L 312.055 60.19 Q 311.316 60.19 310.896 60.789 Q 310.476 61.388 310.476 62.542 Q 310.476 63.964 310.907 64.552 Q 311.338 65.14 312.111 65.14 Q 312.604 65.129 312.951 64.894 Q 313.298 64.658 313.483 64.104 Q 313.668 63.55 313.668 62.598 Q 313.668 61.455 313.276 60.822 Q 312.884 60.19 312.055 60.19 Z " fill="black" /><path d="M 322.471 64.983 L 322.471 64.983 L 322.471 65.409 L 320.959 65.61 L 320.601 65.61 L 320.601 64.737 L 320.489 64.737 Q 320.063 65.118 319.626 65.392 Q 319.19 65.666 318.574 65.666 Q 317.745 65.666 317.308 65.162 Q 316.871 64.658 316.871 63.415 L 316.871 61.007 Q 316.871 60.548 316.709 60.442 Q 316.546 60.335 316.031 60.335 L 316.031 59.932 L 317.588 59.719 L 317.958 59.719 L 317.958 63.27 Q 317.958 63.897 318.103 64.244 Q 318.249 64.591 318.495 64.726 Q 318.742 64.86 319.033 64.86 Q 319.526 64.86 319.856 64.653 Q 320.186 64.446 320.545 64.154 L 320.545 61.007 Q 320.545 60.548 320.343 60.442 Q 320.142 60.335 319.57 60.335 L 319.57 59.932 L 321.239 59.719 L 321.631 59.719 L 321.631 64.255 Q 321.631 64.591 321.693 64.748 Q 321.754 64.905 321.911 64.944 Q 322.068 64.983 322.348 64.983 Z " fill="black" /><path d="M 326.839 64.434 L 326.839 64.434 L 327.097 64.647 Q 326.85 64.983 326.649 65.213 Q 326.447 65.442 326.19 65.566 Q 325.932 65.689 325.529 65.689 Q 324.879 65.689 324.582 65.319 Q 324.286 64.95 324.286 64.132 L 324.286 60.369 L 323.58 60.369 L 323.58 60.033 Q 323.983 59.742 324.319 59.322 Q 324.655 58.902 324.991 58.118 L 325.383 58.118 L 325.372 59.82 L 326.794 59.82 L 326.794 60.369 L 325.372 60.369 L 325.372 63.762 Q 325.372 64.39 325.49 64.653 Q 325.607 64.916 325.966 64.916 Q 326.29 64.916 326.458 64.798 Q 326.626 64.681 326.839 64.434 Z " fill="black" /><path d="M 343.841 56.962 L 343.841 56.962 L 334.305 56.962 L 334.305 55.874 L 343.841 55.874 Z M 343.841 60.226 L 343.841 60.226 L 334.305 60.226 L 334.305 59.154 L 343.841 59.154 Z " fill="black" /><path d="M 354.853 50.914 L 354.853 50.914 L 353.429 58.386 L 353.509 58.386 L 356.005 56.13 Q 356.181 55.986 356.285 55.842 Q 356.389 55.698 356.389 55.538 Q 356.389 55.282 356.173 55.202 Q 355.957 55.122 355.669 55.122 L 355.717 54.722 L 359.157 54.722 L 359.109 55.122 Q 358.293 55.138 357.845 55.426 Q 357.397 55.714 356.997 56.082 L 355.221 57.65 L 356.405 60.402 Q 356.581 60.802 356.749 61.034 Q 356.917 61.266 357.269 61.266 Q 357.685 61.266 357.981 60.986 Q 358.277 60.706 358.533 60.338 L 358.869 60.562 Q 358.805 60.674 358.629 60.962 Q 358.453 61.25 358.165 61.57 Q 357.877 61.89 357.501 62.122 Q 357.125 62.354 356.661 62.354 Q 356.261 62.354 356.005 62.162 Q 355.749 61.97 355.597 61.682 Q 355.445 61.394 355.317 61.106 L 354.213 58.434 L 353.285 59.25 L 352.725 62.194 L 351.413 62.194 L 353.301 52.466 Q 353.301 52.466 353.325 52.306 Q 353.349 52.146 353.349 51.986 Q 353.349 51.474 352.789 51.474 Q 352.645 51.474 352.469 51.49 Q 352.293 51.506 352.293 51.506 L 352.293 51.09 L 354.501 50.914 Z " fill="black" /><path d="M 366.04 58.114 L 366.04 58.114 Q 366.04 58.482 365.792 58.754 Q 365.544 59.026 365.08 59.026 Q 364.616 59.026 364.384 58.762 Q 364.152 58.498 364.152 58.098 Q 364.152 57.698 364.4 57.41 Q 364.648 57.122 365.096 57.122 Q 365.56 57.122 365.8 57.418 Q 366.04 57.714 366.04 58.114 Z " fill="black" /><path d="M 372.778 60.098 L 372.778 60.098 L 374.09 53.794 Q 374.234 53.17 374.226 52.81 Q 374.218 52.45 373.93 52.306 Q 373.642 52.162 372.906 52.162 L 373.002 51.682 L 377.434 51.682 L 377.338 52.162 Q 376.634 52.162 376.282 52.306 Q 375.93 52.45 375.786 52.81 Q 375.642 53.17 375.514 53.794 L 374.202 60.162 Q 374.154 60.418 374.122 60.626 Q 374.09 60.834 374.09 61.01 Q 374.09 61.458 374.354 61.586 Q 374.618 61.714 375.37 61.714 L 375.274 62.194 L 370.906 62.194 L 371.002 61.714 Q 371.658 61.714 371.986 61.602 Q 372.314 61.49 372.474 61.146 Q 372.634 60.802 372.778 60.098 Z " fill="black" /><path d="M 379.775 57.188 L 379.775 57.188 L 379.775 60.66 L 379.831 60.66 Q 380.156 60.279 380.598 59.977 Q 381.041 59.674 381.668 59.674 Q 382.25 59.674 382.726 60.027 Q 383.202 60.38 383.488 61.002 Q 383.774 61.623 383.774 62.43 Q 383.774 63.505 383.382 64.233 Q 382.99 64.961 382.312 65.325 Q 381.634 65.689 380.772 65.689 Q 380.268 65.689 379.842 65.605 Q 379.417 65.521 379.12 65.409 Q 378.823 65.297 378.689 65.241 L 378.689 58.521 Q 378.689 58.106 378.599 57.989 Q 378.51 57.871 378.129 57.871 Q 378.006 57.871 377.899 57.888 Q 377.793 57.905 377.793 57.905 L 377.793 57.479 L 379.316 57.188 Z M 379.775 61.242 L 379.775 61.242 L 379.775 64.602 Q 379.91 64.849 380.201 64.994 Q 380.492 65.14 380.974 65.14 Q 381.567 65.14 381.926 64.821 Q 382.284 64.502 382.446 63.97 Q 382.609 63.438 382.609 62.81 Q 382.609 62.239 382.48 61.718 Q 382.351 61.198 382.026 60.873 Q 381.702 60.548 381.13 60.548 Q 380.828 60.548 380.554 60.666 Q 380.279 60.783 380.078 60.946 Q 379.876 61.108 379.775 61.242 Z " fill="black" /><path d="M 387.862 65.14 L 387.862 65.14 L 387.862 65.554 L 385.017 65.554 L 385.017 65.14 Q 385.409 65.14 385.582 65.056 Q 385.756 64.972 385.801 64.787 Q 385.846 64.602 385.846 64.3 L 385.846 60.918 Q 385.846 60.537 385.722 60.458 Q 385.599 60.38 385.308 60.38 Q 385.162 60.38 385.073 60.391 Q 384.983 60.402 384.983 60.402 L 384.983 59.954 L 386.484 59.708 L 386.943 59.708 L 386.943 64.3 Q 386.943 64.625 386.994 64.81 Q 387.044 64.994 387.24 65.067 Q 387.436 65.14 387.862 65.14 Z M 386.383 57.233 L 386.383 57.233 Q 386.708 57.233 386.926 57.457 Q 387.145 57.681 387.145 57.972 Q 387.145 58.241 386.926 58.465 Q 386.708 58.689 386.383 58.689 Q 386.07 58.689 385.862 58.465 Q 385.655 58.241 385.655 57.972 Q 385.655 57.681 385.862 57.457 Q 386.07 57.233 386.383 57.233 Z " fill="black" /><path d="M 392.342 64.849 L 392.342 64.849 L 392.263 64.849 Q 391.882 65.162 391.423 65.398 Q 390.964 65.633 390.426 65.633 Q 389.721 65.633 389.346 65.207 Q 388.97 64.782 388.97 64.177 Q 388.97 63.662 389.211 63.314 Q 389.452 62.967 389.838 62.749 Q 390.225 62.53 390.673 62.396 Q 391.121 62.262 391.535 62.183 Q 391.95 62.105 392.23 62.038 L 392.23 61.455 Q 392.23 60.705 391.933 60.419 Q 391.636 60.134 391.065 60.134 Q 390.718 60.134 390.566 60.223 Q 390.415 60.313 390.376 60.514 Q 390.337 60.716 390.326 61.041 Q 390.314 61.287 390.18 61.438 Q 390.046 61.59 389.788 61.59 Q 389.542 61.59 389.368 61.438 Q 389.194 61.287 389.194 60.996 Q 389.194 60.649 389.463 60.346 Q 389.732 60.044 390.23 59.859 Q 390.729 59.674 391.401 59.674 Q 392.409 59.674 392.862 60.139 Q 393.316 60.604 393.316 61.534 L 393.316 64.278 Q 393.316 64.647 393.4 64.754 Q 393.484 64.86 393.663 64.86 Q 393.854 64.86 393.994 64.782 Q 394.134 64.703 394.257 64.558 L 394.503 64.793 Q 393.921 65.622 393.137 65.622 Q 392.7 65.622 392.538 65.414 Q 392.375 65.207 392.342 64.849 Z M 392.23 64.434 L 392.23 64.434 L 392.23 62.463 Q 391.714 62.598 391.222 62.76 Q 390.729 62.922 390.41 63.202 Q 390.09 63.482 390.09 63.986 Q 390.09 64.423 390.342 64.675 Q 390.594 64.927 390.986 64.927 Q 391.222 64.927 391.552 64.821 Q 391.882 64.714 392.23 64.434 Z " fill="black" /><path d="M 395.276 63.516 L 395.276 63.516 L 395.634 63.516 Q 395.78 64.166 395.982 64.524 Q 396.183 64.882 396.502 65.022 Q 396.822 65.162 397.281 65.162 Q 397.807 65.162 398.093 64.989 Q 398.378 64.815 398.378 64.378 Q 398.378 64.087 398.238 63.891 Q 398.098 63.695 397.79 63.516 Q 397.482 63.337 396.967 63.102 Q 396.441 62.844 396.066 62.62 Q 395.69 62.396 395.494 62.094 Q 395.298 61.791 395.298 61.332 Q 395.298 60.526 395.842 60.1 Q 396.385 59.674 397.202 59.674 Q 397.695 59.674 398.037 59.798 Q 398.378 59.921 398.58 60.01 L 398.602 60.01 L 398.782 59.73 L 399.095 59.73 L 399.118 61.59 L 398.726 61.59 Q 398.513 60.727 398.132 60.43 Q 397.751 60.134 397.258 60.134 Q 396.743 60.134 396.48 60.358 Q 396.217 60.582 396.217 60.94 Q 396.217 61.231 396.396 61.422 Q 396.575 61.612 396.906 61.774 Q 397.236 61.937 397.695 62.161 Q 398.21 62.407 398.602 62.67 Q 398.994 62.934 399.218 63.264 Q 399.442 63.594 399.442 64.087 Q 399.442 64.681 399.129 65.039 Q 398.815 65.398 398.322 65.549 Q 397.83 65.7 397.292 65.7 Q 396.743 65.7 396.441 65.588 Q 396.138 65.476 395.881 65.375 L 395.836 65.375 L 395.556 65.666 L 395.298 65.666 Z " fill="black" /><path d="M 404.841 65.554 L 404.841 65.554 L 401.044 65.554 L 401.044 65.151 Q 401.85 65.151 402.114 64.989 Q 402.377 64.826 402.377 64.401 L 402.377 59.518 Q 402.377 59.215 402.287 59.081 Q 402.198 58.946 401.962 58.946 Q 401.783 58.946 401.475 58.997 Q 401.167 59.047 400.943 59.103 L 400.943 58.655 L 403.015 58.084 L 403.497 58.084 L 403.497 64.401 Q 403.497 64.826 403.782 64.989 Q 404.068 65.151 404.841 65.151 Z " fill="black" /></g></g></g><circle cx="248.99999999999997" cy="174.00000000000003" r="2.6999999999999997" style="stroke:blue;fill:blue;stroke-width:2.0;stroke-dasharray:-;" /><circle cx="-3.197442310920451e-14" cy="269.99999999999994" r="2.6999999999999997" style="stroke:blue;fill:blue;stroke-width:2.0;stroke-dasharray:-;" /><circle cx="198.0" cy="204.0" r="2.6999999999999997" style="stroke:blue;fill:blue;stroke-width:2.0;stroke-dasharray:-;" /><circle cx="353.99999999999994" cy="252.0" r="2.6999999999999997" style="stroke:blue;fill:blue;stroke-width:2.0;stroke-dasharray:-;" /><circle cx="147.00000000000003" cy="174.00000000000003" r="2.6999999999999997" style="stroke:blue;fill:blue;stroke-width:2.0;stroke-dasharray:-;" /><g><g><g><path d="M 194.099 88.407 L 194.099 88.407 L 195.411 82.103 Q 195.555 81.479 195.547 81.119 Q 195.539 80.759 195.251 80.615 Q 194.963 80.471 194.227 80.471 L 194.323 79.991 L 198.755 79.991 L 198.659 80.471 Q 197.955 80.471 197.603 80.615 Q 197.251 80.759 197.107 81.119 Q 196.963 81.479 196.835 82.103 L 195.523 88.471 Q 195.475 88.727 195.443 88.935 Q 195.411 89.143 195.411 89.319 Q 195.411 89.767 195.675 89.895 Q 195.939 90.023 196.691 90.023 L 196.595 90.503 L 192.227 90.503 L 192.323 90.023 Q 192.979 90.023 193.307 89.911 Q 193.635 89.799 193.795 89.455 Q 193.955 89.111 194.099 88.407 Z " fill="blue" /><path d="M 201.096 85.497 L 201.096 85.497 L 201.096 88.969 L 201.152 88.969 Q 201.477 88.588 201.919 88.286 Q 202.362 87.983 202.989 87.983 Q 203.571 87.983 204.047 88.336 Q 204.523 88.689 204.809 89.31 Q 205.094 89.932 205.094 90.738 Q 205.094 91.814 204.702 92.542 Q 204.31 93.27 203.633 93.634 Q 202.955 93.998 202.093 93.998 Q 201.589 93.998 201.163 93.914 Q 200.738 93.83 200.441 93.718 Q 200.144 93.606 200.01 93.55 L 200.01 86.83 Q 200.01 86.415 199.92 86.298 Q 199.83 86.18 199.45 86.18 Q 199.326 86.18 199.22 86.197 Q 199.114 86.214 199.114 86.214 L 199.114 85.788 L 200.637 85.497 Z M 201.096 89.551 L 201.096 89.551 L 201.096 92.911 Q 201.23 93.158 201.522 93.303 Q 201.813 93.449 202.294 93.449 Q 202.888 93.449 203.246 93.13 Q 203.605 92.81 203.767 92.278 Q 203.93 91.746 203.93 91.119 Q 203.93 90.548 203.801 90.027 Q 203.672 89.506 203.347 89.182 Q 203.022 88.857 202.451 88.857 Q 202.149 88.857 201.874 88.974 Q 201.6 89.092 201.398 89.254 Q 201.197 89.417 201.096 89.551 Z " fill="blue" /><path d="M 209.182 93.449 L 209.182 93.449 L 209.182 93.863 L 206.338 93.863 L 206.338 93.449 Q 206.73 93.449 206.903 93.365 Q 207.077 93.281 207.122 93.096 Q 207.166 92.911 207.166 92.609 L 207.166 89.226 Q 207.166 88.846 207.043 88.767 Q 206.92 88.689 206.629 88.689 Q 206.483 88.689 206.394 88.7 Q 206.304 88.711 206.304 88.711 L 206.304 88.263 L 207.805 88.017 L 208.264 88.017 L 208.264 92.609 Q 208.264 92.934 208.314 93.118 Q 208.365 93.303 208.561 93.376 Q 208.757 93.449 209.182 93.449 Z M 207.704 85.542 L 207.704 85.542 Q 208.029 85.542 208.247 85.766 Q 208.466 85.99 208.466 86.281 Q 208.466 86.55 208.247 86.774 Q 208.029 86.998 207.704 86.998 Q 207.39 86.998 207.183 86.774 Q 206.976 86.55 206.976 86.281 Q 206.976 85.99 207.183 85.766 Q 207.39 85.542 207.704 85.542 Z " fill="blue" /><path d="M 213.662 93.158 L 213.662 93.158 L 213.584 93.158 Q 213.203 93.471 212.744 93.706 Q 212.285 93.942 211.747 93.942 Q 211.042 93.942 210.666 93.516 Q 210.291 93.09 210.291 92.486 Q 210.291 91.97 210.532 91.623 Q 210.773 91.276 211.159 91.058 Q 211.546 90.839 211.994 90.705 Q 212.442 90.57 212.856 90.492 Q 213.27 90.414 213.55 90.346 L 213.55 89.764 Q 213.55 89.014 213.254 88.728 Q 212.957 88.442 212.386 88.442 Q 212.038 88.442 211.887 88.532 Q 211.736 88.622 211.697 88.823 Q 211.658 89.025 211.646 89.35 Q 211.635 89.596 211.501 89.747 Q 211.366 89.898 211.109 89.898 Q 210.862 89.898 210.689 89.747 Q 210.515 89.596 210.515 89.305 Q 210.515 88.958 210.784 88.655 Q 211.053 88.353 211.551 88.168 Q 212.05 87.983 212.722 87.983 Q 213.73 87.983 214.183 88.448 Q 214.637 88.913 214.637 89.842 L 214.637 92.586 Q 214.637 92.956 214.721 93.062 Q 214.805 93.169 214.984 93.169 Q 215.174 93.169 215.314 93.09 Q 215.454 93.012 215.578 92.866 L 215.824 93.102 Q 215.242 93.93 214.458 93.93 Q 214.021 93.93 213.858 93.723 Q 213.696 93.516 213.662 93.158 Z M 213.55 92.743 L 213.55 92.743 L 213.55 90.772 Q 213.035 90.906 212.542 91.069 Q 212.05 91.231 211.73 91.511 Q 211.411 91.791 211.411 92.295 Q 211.411 92.732 211.663 92.984 Q 211.915 93.236 212.307 93.236 Q 212.542 93.236 212.873 93.13 Q 213.203 93.023 213.55 92.743 Z " fill="blue" /><path d="M 216.597 91.825 L 216.597 91.825 L 216.955 91.825 Q 217.101 92.474 217.302 92.833 Q 217.504 93.191 217.823 93.331 Q 218.142 93.471 218.602 93.471 Q 219.128 93.471 219.414 93.298 Q 219.699 93.124 219.699 92.687 Q 219.699 92.396 219.559 92.2 Q 219.419 92.004 219.111 91.825 Q 218.803 91.646 218.288 91.41 Q 217.762 91.153 217.386 90.929 Q 217.011 90.705 216.815 90.402 Q 216.619 90.1 216.619 89.641 Q 216.619 88.834 217.162 88.409 Q 217.706 87.983 218.523 87.983 Q 219.016 87.983 219.358 88.106 Q 219.699 88.23 219.901 88.319 L 219.923 88.319 L 220.102 88.039 L 220.416 88.039 L 220.438 89.898 L 220.046 89.898 Q 219.834 89.036 219.453 88.739 Q 219.072 88.442 218.579 88.442 Q 218.064 88.442 217.801 88.666 Q 217.538 88.89 217.538 89.249 Q 217.538 89.54 217.717 89.73 Q 217.896 89.921 218.226 90.083 Q 218.557 90.246 219.016 90.47 Q 219.531 90.716 219.923 90.979 Q 220.315 91.242 220.539 91.573 Q 220.763 91.903 220.763 92.396 Q 220.763 92.99 220.45 93.348 Q 220.136 93.706 219.643 93.858 Q 219.15 94.009 218.613 94.009 Q 218.064 94.009 217.762 93.897 Q 217.459 93.785 217.202 93.684 L 217.157 93.684 L 216.877 93.975 L 216.619 93.975 Z " fill="blue" /><path d="M 222.264 88.039 L 222.264 88.039 L 221.939 87.882 Q 222.275 87.121 222.83 86.734 Q 223.384 86.348 224.078 86.348 Q 224.974 86.348 225.523 86.785 Q 226.072 87.222 226.072 87.916 Q 226.072 88.521 225.702 88.89 Q 225.333 89.26 224.784 89.618 L 224.784 89.674 Q 225.254 89.798 225.652 90.044 Q 226.05 90.29 226.285 90.677 Q 226.52 91.063 226.52 91.612 Q 226.52 92.228 226.251 92.682 Q 225.982 93.135 225.523 93.432 Q 225.064 93.729 224.476 93.869 Q 223.888 94.009 223.25 94.009 Q 222.701 94.009 222.415 93.914 Q 222.13 93.818 222.023 93.662 Q 221.917 93.505 221.917 93.348 Q 221.917 93.158 222.029 92.973 Q 222.141 92.788 222.41 92.788 Q 222.522 92.788 222.639 92.85 Q 222.757 92.911 223.07 93.09 Q 223.328 93.214 223.479 93.281 Q 223.63 93.348 223.748 93.37 Q 223.866 93.393 224.022 93.393 Q 224.358 93.393 224.689 93.27 Q 225.019 93.146 225.243 92.827 Q 225.467 92.508 225.467 91.926 Q 225.467 91.41 225.182 91.041 Q 224.896 90.671 224.414 90.464 Q 223.933 90.257 223.35 90.257 L 223.104 90.257 L 223.104 89.73 L 223.339 89.73 Q 223.742 89.73 224.123 89.546 Q 224.504 89.361 224.75 89.019 Q 224.997 88.678 224.997 88.207 Q 224.997 87.681 224.655 87.412 Q 224.314 87.143 223.787 87.143 Q 222.813 87.143 222.264 88.039 Z " fill="blue" /></g></g></g><g><g><g><path d="M 92.099 88.407 L 92.099 88.407 L 93.411 82.103 Q 93.555 81.479 93.547 81.119 Q 93.539 80.759 93.251 80.615 Q 92.963 80.471 92.227 80.471 L 92.323 79.991 L 96.755 79.991 L 96.659 80.471 Q 95.955 80.471 95.603 80.615 Q 95.251 80.759 95.107 81.119 Q 94.963 81.479 94.835 82.103 L 93.523 88.471 Q 93.475 88.727 93.443 88.935 Q 93.411 89.143 93.411 89.319 Q 93.411 89.767 93.675 89.895 Q 93.939 90.023 94.691 90.023 L 94.595 90.503 L 90.227 90.503 L 90.323 90.023 Q 90.979 90.023 91.307 89.911 Q 91.635 89.799 91.795 89.455 Q 91.955 89.111 92.099 88.407 Z " fill="blue" /><path d="M 99.096 85.497 L 99.096 85.497 L 99.096 88.969 L 99.152 88.969 Q 99.477 88.588 99.919 88.286 Q 100.362 87.983 100.989 87.983 Q 101.571 87.983 102.047 88.336 Q 102.523 88.689 102.809 89.31 Q 103.094 89.932 103.094 90.738 Q 103.094 91.814 102.702 92.542 Q 102.31 93.27 101.633 93.634 Q 100.955 93.998 100.093 93.998 Q 99.589 93.998 99.163 93.914 Q 98.738 93.83 98.441 93.718 Q 98.144 93.606 98.01 93.55 L 98.01 86.83 Q 98.01 86.415 97.92 86.298 Q 97.83 86.18 97.45 86.18 Q 97.326 86.18 97.22 86.197 Q 97.114 86.214 97.114 86.214 L 97.114 85.788 L 98.637 85.497 Z M 99.096 89.551 L 99.096 89.551 L 99.096 92.911 Q 99.23 93.158 99.522 93.303 Q 99.813 93.449 100.294 93.449 Q 100.888 93.449 101.246 93.13 Q 101.605 92.81 101.767 92.278 Q 101.93 91.746 101.93 91.119 Q 101.93 90.548 101.801 90.027 Q 101.672 89.506 101.347 89.182 Q 101.022 88.857 100.451 88.857 Q 100.149 88.857 99.874 88.974 Q 99.6 89.092 99.398 89.254 Q 99.197 89.417 99.096 89.551 Z " fill="blue" /><path d="M 107.182 93.449 L 107.182 93.449 L 107.182 93.863 L 104.338 93.863 L 104.338 93.449 Q 104.73 93.449 104.903 93.365 Q 105.077 93.281 105.122 93.096 Q 105.166 92.911 105.166 92.609 L 105.166 89.226 Q 105.166 88.846 105.043 88.767 Q 104.92 88.689 104.629 88.689 Q 104.483 88.689 104.394 88.7 Q 104.304 88.711 104.304 88.711 L 104.304 88.263 L 105.805 88.017 L 106.264 88.017 L 106.264 92.609 Q 106.264 92.934 106.314 93.118 Q 106.365 93.303 106.561 93.376 Q 106.757 93.449 107.182 93.449 Z M 105.704 85.542 L 105.704 85.542 Q 106.029 85.542 106.247 85.766 Q 106.466 85.99 106.466 86.281 Q 106.466 86.55 106.247 86.774 Q 106.029 86.998 105.704 86.998 Q 105.39 86.998 105.183 86.774 Q 104.976 86.55 104.976 86.281 Q 104.976 85.99 105.183 85.766 Q 105.39 85.542 105.704 85.542 Z " fill="blue" /><path d="M 111.662 93.158 L 111.662 93.158 L 111.584 93.158 Q 111.203 93.471 110.744 93.706 Q 110.285 93.942 109.747 93.942 Q 109.042 93.942 108.666 93.516 Q 108.291 93.09 108.291 92.486 Q 108.291 91.97 108.532 91.623 Q 108.773 91.276 109.159 91.058 Q 109.546 90.839 109.994 90.705 Q 110.442 90.57 110.856 90.492 Q 111.27 90.414 111.55 90.346 L 111.55 89.764 Q 111.55 89.014 111.254 88.728 Q 110.957 88.442 110.386 88.442 Q 110.038 88.442 109.887 88.532 Q 109.736 88.622 109.697 88.823 Q 109.658 89.025 109.646 89.35 Q 109.635 89.596 109.501 89.747 Q 109.366 89.898 109.109 89.898 Q 108.862 89.898 108.689 89.747 Q 108.515 89.596 108.515 89.305 Q 108.515 88.958 108.784 88.655 Q 109.053 88.353 109.551 88.168 Q 110.05 87.983 110.722 87.983 Q 111.73 87.983 112.183 88.448 Q 112.637 88.913 112.637 89.842 L 112.637 92.586 Q 112.637 92.956 112.721 93.062 Q 112.805 93.169 112.984 93.169 Q 113.174 93.169 113.314 93.09 Q 113.454 93.012 113.578 92.866 L 113.824 93.102 Q 113.242 93.93 112.458 93.93 Q 112.021 93.93 111.858 93.723 Q 111.696 93.516 111.662 93.158 Z M 111.55 92.743 L 111.55 92.743 L 111.55 90.772 Q 111.035 90.906 110.542 91.069 Q 110.05 91.231 109.73 91.511 Q 109.411 91.791 109.411 92.295 Q 109.411 92.732 109.663 92.984 Q 109.915 93.236 110.307 93.236 Q 110.542 93.236 110.873 93.13 Q 111.203 93.023 111.55 92.743 Z " fill="blue" /><path d="M 114.597 91.825 L 114.597 91.825 L 114.955 91.825 Q 115.101 92.474 115.302 92.833 Q 115.504 93.191 115.823 93.331 Q 116.142 93.471 116.602 93.471 Q 117.128 93.471 117.414 93.298 Q 117.699 93.124 117.699 92.687 Q 117.699 92.396 117.559 92.2 Q 117.419 92.004 117.111 91.825 Q 116.803 91.646 116.288 91.41 Q 115.762 91.153 115.386 90.929 Q 115.011 90.705 114.815 90.402 Q 114.619 90.1 114.619 89.641 Q 114.619 88.834 115.162 88.409 Q 115.706 87.983 116.523 87.983 Q 117.016 87.983 117.358 88.106 Q 117.699 88.23 117.901 88.319 L 117.923 88.319 L 118.102 88.039 L 118.416 88.039 L 118.438 89.898 L 118.046 89.898 Q 117.834 89.036 117.453 88.739 Q 117.072 88.442 116.579 88.442 Q 116.064 88.442 115.801 88.666 Q 115.538 88.89 115.538 89.249 Q 115.538 89.54 115.717 89.73 Q 115.896 89.921 116.226 90.083 Q 116.557 90.246 117.016 90.47 Q 117.531 90.716 117.923 90.979 Q 118.315 91.242 118.539 91.573 Q 118.763 91.903 118.763 92.396 Q 118.763 92.99 118.45 93.348 Q 118.136 93.706 117.643 93.858 Q 117.15 94.009 116.613 94.009 Q 116.064 94.009 115.762 93.897 Q 115.459 93.785 115.202 93.684 L 115.157 93.684 L 114.877 93.975 L 114.619 93.975 Z " fill="blue" /><path d="M 124.8 91.914 L 124.8 91.914 L 124.419 93.863 L 119.827 93.863 L 119.827 93.314 L 121.418 91.702 Q 122.045 91.074 122.454 90.593 Q 122.862 90.111 123.064 89.624 Q 123.266 89.137 123.266 88.51 Q 123.266 87.916 122.902 87.53 Q 122.538 87.143 121.877 87.143 Q 121.272 87.143 120.863 87.384 Q 120.454 87.625 120.141 88.174 L 119.838 88.028 Q 120.118 87.244 120.706 86.796 Q 121.294 86.348 122.157 86.348 Q 122.829 86.348 123.344 86.589 Q 123.859 86.83 124.15 87.278 Q 124.442 87.726 124.442 88.364 Q 124.442 88.913 124.195 89.394 Q 123.949 89.876 123.495 90.38 Q 123.042 90.884 122.414 91.5 L 121.014 92.855 L 121.014 92.934 L 121.888 92.889 L 123.344 92.889 Q 123.669 92.889 123.842 92.799 Q 124.016 92.71 124.139 92.491 Q 124.262 92.273 124.408 91.914 Z " fill="blue" /></g></g></g><g><g><g><path d="M 115.19 -8.96 L 115.19 -8.96 L 119.558 -15.52 Q 119.782 -15.84 119.918 -16.112 Q 120.054 -16.384 120.054 -16.576 Q 120.054 -16.816 119.846 -16.904 Q 119.638 -16.992 119.094 -16.992 L 119.126 -17.472 L 122.582 -17.472 L 122.55 -16.992 Q 122.118 -16.992 121.814 -16.864 Q 121.51 -16.736 121.198 -16.376 Q 120.886 -16.016 120.39 -15.28 L 114.518 -6.88 L 113.99 -6.88 L 113.094 -15.536 Q 112.998 -16.336 112.742 -16.664 Q 112.486 -16.992 111.846 -16.992 L 111.878 -17.472 L 115.798 -17.472 L 115.75 -16.992 Q 115.142 -16.992 114.79 -16.752 Q 114.438 -16.512 114.47 -15.968 Q 114.47 -15.888 114.494 -15.68 Q 114.518 -15.472 114.518 -15.392 L 114.998 -10.832 L 115.11 -8.96 Z " fill="black" /><path d="M 121.321 -11.474 L 121.321 -11.474 L 124.714 -11.474 Q 125.61 -11.474 126.428 -11.278 Q 127.246 -11.082 127.89 -10.634 Q 128.534 -10.186 128.909 -9.435 Q 129.284 -8.685 129.284 -7.565 Q 129.284 -6.512 128.942 -5.756 Q 128.601 -5 127.985 -4.524 Q 127.369 -4.048 126.551 -3.824 Q 125.734 -3.6 124.782 -3.6 L 121.321 -3.6 L 121.321 -4.026 Q 121.847 -4.026 122.094 -4.104 Q 122.34 -4.182 122.413 -4.423 Q 122.486 -4.664 122.486 -5.157 L 122.486 -10.018 Q 122.486 -10.477 122.379 -10.695 Q 122.273 -10.914 122.021 -10.981 Q 121.769 -11.048 121.321 -11.048 Z M 123.684 -10.914 L 123.684 -10.914 L 123.684 -4.138 Q 123.863 -4.126 124.037 -4.121 Q 124.21 -4.115 124.378 -4.115 Q 125.487 -4.115 126.266 -4.406 Q 127.044 -4.698 127.453 -5.426 Q 127.862 -6.154 127.862 -7.464 Q 127.862 -9.144 127.005 -10.034 Q 126.148 -10.925 124.289 -10.925 Q 124.132 -10.925 123.986 -10.925 Q 123.841 -10.925 123.684 -10.914 Z " fill="black" /><path d="M 130.639 -11.474 L 130.639 -11.474 L 134.033 -11.474 Q 134.929 -11.474 135.746 -11.278 Q 136.564 -11.082 137.208 -10.634 Q 137.852 -10.186 138.227 -9.435 Q 138.602 -8.685 138.602 -7.565 Q 138.602 -6.512 138.261 -5.756 Q 137.919 -5 137.303 -4.524 Q 136.687 -4.048 135.87 -3.824 Q 135.052 -3.6 134.1 -3.6 L 130.639 -3.6 L 130.639 -4.026 Q 131.166 -4.026 131.412 -4.104 Q 131.658 -4.182 131.731 -4.423 Q 131.804 -4.664 131.804 -5.157 L 131.804 -10.018 Q 131.804 -10.477 131.698 -10.695 Q 131.591 -10.914 131.339 -10.981 Q 131.087 -11.048 130.639 -11.048 Z M 133.002 -10.914 L 133.002 -10.914 L 133.002 -4.138 Q 133.182 -4.126 133.355 -4.121 Q 133.529 -4.115 133.697 -4.115 Q 134.806 -4.115 135.584 -4.406 Q 136.362 -4.698 136.771 -5.426 Q 137.18 -6.154 137.18 -7.464 Q 137.18 -9.144 136.323 -10.034 Q 135.466 -10.925 133.607 -10.925 Q 133.45 -10.925 133.305 -10.925 Q 133.159 -10.925 133.002 -10.914 Z " fill="black" /></g></g></g></svg>