<svg xmlns="http://www.w3.org/2000/svg" xmlns:xlink="http://www.w3.org/1999/xlink" xml:lang="en" height="89.8556pt" width="187.4pt" viewBox="-129.7 -52.8556 187.4 89.8556"><circle cx="-36" cy="-0" r="18" style="stroke:black;fill:none;stroke-width:2.0;stroke-dasharray:-;" /><path d="M 0.0,-0.0 L -18,-0 L -18,-0 M -54,-0 L -54,-0 L -72,-0" style="stroke:black;fill:none;stroke-width:2.0;stroke-dasharray:-;stroke-linecap:round;stroke-linejoin:round;" /><path d="M -27.0,-3.6000000000000036 L -27,3.6" style="stroke:black;fill:none;stroke-width:2.0;stroke-dasharray:-;stroke-linecap:round;stroke-linejoin:round;" /><path d="M -41.4,-5.0700377484700416e-15 L -48.6,-0" style="stroke:black;fill:none;stroke-width:2.0;stroke-dasharray:-;stroke-linecap:round;stroke-linejoin:round;" /><path d="M -45.0,-3.600000000000006 L -45,3.6" style="stroke:black;fill:none;stroke-width:2.0;stroke-dasharray:-;stroke-linecap:round;stroke-linejoin:round;" /><path d="M -72.0,-8.817456953860943e-15 L -90,-0 L -108,-0" style="stroke:black;fill:none;stroke-width:2.0;stroke-dasharray:-;stroke-linecap:round;stroke-linejoin:round;" /><path d="M 0.0,-0.0 L 18,-0 L 36,-0" style="stroke:black;fill:none;stroke-width:2.0;stroke-dasharray:-;stroke-linecap:round;stroke-linejoin:round;" /><g><g><g><path d="M -44.921 -26.417 L -44.921 -26.417 L -41.099 -32.157 Q -40.903 -32.437 -40.784 -32.675 Q -40.665 -32.913 -40.665 -33.081 Q -40.665 -33.291 -40.847 -33.368 Q -41.029 -33.445 -41.505 -33.445 L -41.477 -33.865 L -38.453 -33.865 L -38.481 -33.445 Q -38.859 -33.445 -39.125 -33.333 Q -39.391 -33.221 -39.664 -32.906 Q -39.937 -32.591 -40.371 -31.947 L -45.509 -24.597 L -45.971 -24.597 L -46.755 -32.171 Q -46.839 -32.871 -47.063 -33.158 Q -47.287 -33.445 -47.847 -33.445 L -47.819 -33.865 L -44.389 -33.865 L -44.431 -33.445 Q -44.963 -33.445 -45.271 -33.235 Q -45.579 -33.025 -45.551 -32.549 Q -45.551 -32.479 -45.53 -32.297 Q -45.509 -32.115 -45.509 -32.045 L -45.089 -28.055 L -44.991 -26.417 Z " fill="black" /><path d="M -36.743 -22.707 L -36.743 -22.707 L -36.518 -22.521 Q -36.734 -22.227 -36.91 -22.026 Q -37.086 -21.825 -37.312 -21.718 Q -37.537 -21.61 -37.89 -21.61 Q -38.458 -21.61 -38.718 -21.933 Q -38.978 -22.257 -38.978 -22.972 L -38.978 -26.265 L -39.595 -26.265 L -39.595 -26.559 Q -39.242 -26.814 -38.948 -27.181 Q -38.654 -27.549 -38.36 -28.235 L -38.017 -28.235 L -38.027 -26.745 L -36.783 -26.745 L -36.783 -26.265 L -38.027 -26.265 L -38.027 -23.295 Q -38.027 -22.747 -37.924 -22.516 Q -37.821 -22.286 -37.508 -22.286 Q -37.224 -22.286 -37.077 -22.389 Q -36.93 -22.492 -36.743 -22.707 Z " fill="black" /><path d="M -31.569 -23.188 L -31.569 -23.188 L -31.334 -23.001 Q -31.54 -22.629 -31.794 -22.315 Q -32.049 -22.002 -32.422 -21.816 Q -32.794 -21.629 -33.362 -21.629 Q -33.98 -21.629 -34.514 -21.909 Q -35.048 -22.188 -35.371 -22.766 Q -35.695 -23.344 -35.695 -24.226 Q -35.695 -25.099 -35.391 -25.687 Q -35.087 -26.275 -34.568 -26.573 Q -34.048 -26.872 -33.411 -26.872 Q -32.529 -26.872 -31.946 -26.26 Q -31.363 -25.647 -31.344 -24.432 L -34.793 -24.432 Q -34.793 -23.766 -34.543 -23.33 Q -34.293 -22.894 -33.901 -22.683 Q -33.509 -22.472 -33.078 -22.472 Q -32.637 -22.472 -32.373 -22.565 Q -32.108 -22.658 -31.927 -22.825 Q -31.745 -22.992 -31.569 -23.188 Z M -34.793 -24.883 L -34.793 -24.883 L -32.392 -24.883 Q -32.392 -25.275 -32.52 -25.623 Q -32.647 -25.971 -32.892 -26.191 Q -33.137 -26.412 -33.519 -26.412 Q -34.078 -26.412 -34.406 -26.02 Q -34.734 -25.628 -34.793 -24.883 Z " fill="black" /><path d="M -30.226 -23.511 L -30.226 -23.511 L -29.913 -23.511 Q -29.785 -22.943 -29.609 -22.629 Q -29.433 -22.315 -29.153 -22.193 Q -28.874 -22.07 -28.472 -22.07 Q -28.012 -22.07 -27.762 -22.222 Q -27.512 -22.374 -27.512 -22.756 Q -27.512 -23.011 -27.634 -23.183 Q -27.757 -23.354 -28.026 -23.511 Q -28.296 -23.668 -28.747 -23.874 Q -29.207 -24.099 -29.535 -24.295 Q -29.864 -24.491 -30.035 -24.756 Q -30.207 -25.02 -30.207 -25.422 Q -30.207 -26.128 -29.732 -26.5 Q -29.256 -26.872 -28.541 -26.872 Q -28.11 -26.872 -27.811 -26.765 Q -27.512 -26.657 -27.335 -26.578 L -27.316 -26.578 L -27.159 -26.823 L -26.885 -26.823 L -26.865 -25.197 L -27.208 -25.197 Q -27.394 -25.951 -27.727 -26.211 Q -28.061 -26.471 -28.492 -26.471 Q -28.943 -26.471 -29.173 -26.275 Q -29.403 -26.079 -29.403 -25.765 Q -29.403 -25.51 -29.246 -25.344 Q -29.09 -25.177 -28.8 -25.035 Q -28.511 -24.893 -28.11 -24.697 Q -27.659 -24.481 -27.316 -24.251 Q -26.973 -24.021 -26.777 -23.732 Q -26.581 -23.442 -26.581 -23.011 Q -26.581 -22.492 -26.855 -22.178 Q -27.13 -21.865 -27.561 -21.732 Q -27.992 -21.6 -28.462 -21.6 Q -28.943 -21.6 -29.207 -21.698 Q -29.472 -21.796 -29.697 -21.884 L -29.736 -21.884 L -29.981 -21.629 L -30.207 -21.629 Z " fill="black" /><path d="M -22.729 -22.707 L -22.729 -22.707 L -22.504 -22.521 Q -22.72 -22.227 -22.896 -22.026 Q -23.072 -21.825 -23.298 -21.718 Q -23.523 -21.61 -23.876 -21.61 Q -24.444 -21.61 -24.704 -21.933 Q -24.964 -22.257 -24.964 -22.972 L -24.964 -26.265 L -25.581 -26.265 L -25.581 -26.559 Q -25.228 -26.814 -24.934 -27.181 Q -24.64 -27.549 -24.346 -28.235 L -24.003 -28.235 L -24.013 -26.745 L -22.769 -26.745 L -22.769 -26.265 L -24.013 -26.265 L -24.013 -23.295 Q -24.013 -22.747 -23.91 -22.516 Q -23.807 -22.286 -23.494 -22.286 Q -23.21 -22.286 -23.063 -22.389 Q -22.916 -22.492 -22.729 -22.707 Z " fill="black" /></g></g></g><circle cx="-108" cy="-0" r="2.7" style="stroke:black;fill:white;stroke-width:2.0;stroke-dasharray:-;" /><g><g><g><path d="M -93.45 -10.99 L -93.45 -10.99 L -89.628 -16.73 Q -89.432 -17.01 -89.313 -17.248 Q -89.194 -17.486 -89.194 -17.654 Q -89.194 -17.864 -89.376 -17.941 Q -89.558 -18.018 -90.034 -18.018 L -90.006 -18.438 L -86.982 -18.438 L -87.01 -18.018 Q -87.388 -18.018 -87.654 -17.906 Q -87.92 -17.794 -88.193 -17.479 Q -88.466 -17.164 -88.9 -16.52 L -94.038 -9.17 L -94.5 -9.17 L -95.284 -16.744 Q -95.368 -17.444 -95.592 -17.731 Q -95.816 -18.018 -96.376 -18.018 L -96.348 -18.438 L -92.918 -18.438 L -92.96 -18.018 Q -93.492 -18.018 -93.8 -17.808 Q -94.108 -17.598 -94.08 -17.122 Q -94.08 -17.052 -94.059 -16.87 Q -94.038 -16.688 -94.038 -16.618 L -93.618 -12.628 L -93.52 -10.99 Z " fill="black" /><path d="M -88.193 -11.318 L -88.193 -11.318 L -87.409 -11.318 Q -87.409 -11.837 -87.335 -12.2 Q -87.262 -12.562 -87.076 -12.925 Q -86.85 -13.278 -86.532 -13.498 Q -86.213 -13.719 -85.625 -13.719 Q -85.126 -13.719 -84.773 -13.528 Q -84.42 -13.336 -84.42 -12.964 Q -84.42 -12.729 -84.552 -12.606 Q -84.685 -12.484 -84.861 -12.484 Q -85.077 -12.484 -85.199 -12.606 Q -85.322 -12.729 -85.518 -12.935 Q -85.655 -13.131 -85.763 -13.204 Q -85.87 -13.278 -86.017 -13.278 Q -86.292 -13.278 -86.38 -13.013 Q -86.468 -12.748 -86.468 -12.102 L -86.468 -11.318 L -85.194 -11.318 L -85.194 -10.837 L -86.468 -10.837 L -86.468 -7.603 Q -86.468 -7.202 -86.38 -7.001 Q -86.292 -6.8 -86.057 -6.731 Q -85.821 -6.663 -85.39 -6.663 L -85.39 -6.3 L -88.281 -6.3 L -88.281 -6.663 Q -87.909 -6.663 -87.723 -6.731 Q -87.536 -6.8 -87.473 -7.001 Q -87.409 -7.202 -87.409 -7.603 L -87.409 -10.837 L -88.193 -10.837 Z " fill="black" /></g></g></g><circle cx="36" cy="-0" r="2.7" style="stroke:black;fill:white;stroke-width:2.0;stroke-dasharray:-;" /><g><g><g><path d="M 17.865 -10.99 L 17.865 -10.99 L 21.687 -16.73 Q 21.883 -17.01 22.002 -17.248 Q 22.121 -17.486 22.121 -17.654 Q 22.121 -17.864 21.939 -17.941 Q 21.757 -18.018 21.281 -18.018 L 21.309 -18.438 L 24.333 -18.438 L 24.305 -18.018 Q 23.927 -18.018 23.661 -17.906 Q 23.395 -17.794 23.122 -17.479 Q 22.849 -17.164 22.415 -16.52 L 17.277 -9.17 L 16.815 -9.17 L 16.031 -16.744 Q 15.947 -17.444 15.723 -17.731 Q 15.499 -18.018 14.939 -18.018 L 14.967 -18.438 L 18.397 -18.438 L 18.355 -18.018 Q 17.823 -18.018 17.515 -17.808 Q 17.207 -17.598 17.235 -17.122 Q 17.235 -17.052 17.256 -16.87 Q 17.277 -16.688 17.277 -16.618 L 17.697 -12.628 L 17.795 -10.99 Z " fill="black" /><path d="M 23.391 -11.416 L 23.391 -11.416 L 23.391 -10.357 L 23.45 -10.357 Q 23.842 -10.906 24.151 -11.195 Q 24.459 -11.484 24.822 -11.484 Q 25.449 -11.484 25.449 -10.867 Q 25.449 -10.524 25.297 -10.387 Q 25.145 -10.249 24.969 -10.249 Q 24.792 -10.249 24.65 -10.347 Q 24.508 -10.445 24.41 -10.543 Q 24.312 -10.641 24.263 -10.641 Q 24.106 -10.641 23.857 -10.377 Q 23.607 -10.112 23.411 -9.779 L 23.411 -7.427 Q 23.411 -6.947 23.621 -6.805 Q 23.832 -6.663 24.371 -6.663 L 24.371 -6.3 L 21.705 -6.3 L 21.705 -6.663 Q 22.039 -6.663 22.195 -6.721 Q 22.352 -6.78 22.401 -6.932 Q 22.45 -7.084 22.45 -7.358 L 22.45 -10.2 Q 22.45 -10.514 22.396 -10.671 Q 22.342 -10.828 22.039 -10.828 Q 21.901 -10.828 21.803 -10.818 Q 21.705 -10.808 21.705 -10.808 L 21.705 -11.171 L 23.028 -11.416 Z " fill="black" /></g></g></g></svg>