<svg xmlns="http://www.w3.org/2000/svg" xmlns:xlink="http://www.w3.org/1999/xlink" xml:lang="en" height="196.112pt" width="218.19760000000002pt" viewBox="-96.5976 -36.472 218.19760000000002 196.112"><path d="M 0.0,-0.0 L 0.0,-14.4" style="stroke:black;fill:none;stroke-width:2.0;stroke-dasharray:-;stroke-linecap:round;stroke-linejoin:round;" /><path d="M 0.0,-14.4 L -6.75,-14.4" style="stroke:black;fill:none;stroke-width:2.0;stroke-dasharray:-;stroke-linecap:round;stroke-linejoin:round;" /><path d="M 0.0,-14.4 L 6.75,-14.4" style="stroke:black;fill:none;stroke-width:2.0;stroke-dasharray:-;stroke-linecap:round;stroke-linejoin:round;" /><path d="M 0.0,59.99999999999999 L 0.0,45.0 L -14.999999999999998,45.0 L -14.999999999999998,14.999999999999998 L 0.0,14.999999999999998 L 0.0,-0.0" style="stroke:black;fill:none;stroke-width:2.0;stroke-dasharray:-;stroke-linecap:round;stroke-linejoin:round;" /><path d="M -5.999999999999998,14.999999999999998 L 0.0,14.999999999999998" style="stroke:black;fill:none;stroke-width:2.0;stroke-dasharray:-;stroke-linecap:round;stroke-linejoin:round;" /><path d="M -12.999999999999998 14.999999999999998 L -5.999999999999997 10.5 L -5.999999999999999 19.5 Z" style="stroke:black;fill:black;stroke-linecap:butt;stroke-linejoin:miter;" /><path d="M -17.999999999999996,42.0 L -17.999999999999996,17.999999999999996" style="stroke:black;fill:none;stroke-width:2.0;stroke-dasharray:-;stroke-linecap:round;stroke-linejoin:round;" /><path d="M -32.99999999999999,29.999999999999996 L -17.999999999999996,29.999999999999996" style="stroke:black;fill:none;stroke-width:2.0;stroke-dasharray:-;stroke-linecap:round;stroke-linejoin:round;" /><path d="M 0.0,59.99999999999999 L 27.0,59.99999999999999 L 54.0,59.99999999999999" style="stroke:black;fill:none;stroke-width:2.0;stroke-dasharray:-;stroke-linecap:round;stroke-linejoin:round;" /><path d="M 54.0,59.99999999999999 L 81.0,59.99999999999999 L 108.0,59.99999999999999" style="stroke:black;fill:none;stroke-width:2.0;stroke-dasharray:-;stroke-linecap:round;stroke-linejoin:round;" /><path d="M 108.0,59.99999999999999 L 108.0,78.0 L 117.0,81.0 L 99.0,87.0 L 117.0,92.99999999999999 L 99.0,99.0 L 117.0,105.0 L 98.99999999999999,110.99999999999999 L 107.99999999999999,114.0 L 107.99999999999999,132.0" style="stroke:black;fill:none;stroke-width:2.0;stroke-dasharray:-;stroke-linecap:round;stroke-linejoin:round;" /><path d="M 107.99999999999999,132.0 L 107.99999999999999,146.39999999999998 L 98.99999999999999,146.39999999999998 L 116.99999999999999,146.39999999999998 M 101.69999999999999,150.72 L 114.29999999999998,150.72 M 106.19999999999999,155.04 L 109.79999999999998,155.04" style="stroke:black;fill:none;stroke-width:2.0;stroke-dasharray:-;stroke-linecap:round;stroke-linejoin:round;" /><path d="M 0.0,59.99999999999999 L -3.3065463576978533e-15,78.0 L 8.999999999999996,81.0 L -9.000000000000004,87.0 L 8.999999999999995,92.99999999999999 L -9.000000000000007,99.0 L 8.999999999999993,105.0 L -9.00000000000001,110.99999999999999 L -9.919639073093561e-15,114.0 L -1.3226185430791413e-14,132.0" style="stroke:black;fill:none;stroke-width:2.0;stroke-dasharray:-;stroke-linecap:round;stroke-linejoin:round;" /><path d="M -1.3226185430791413e-14,132.0 L -1.3226185430791413e-14,146.39999999999998 L -9.000000000000014,146.39999999999998 L 8.999999999999988,146.39999999999998 M -6.300000000000012,150.72 L 6.2999999999999865,150.72 M -1.8000000000000134,155.04 L 1.799999999999987,155.04" style="stroke:black;fill:none;stroke-width:2.0;stroke-dasharray:-;stroke-linecap:round;stroke-linejoin:round;" /><path d="M -32.99999999999999,29.999999999999996 L -50.99999999999999,29.999999999999993 L -69.0,29.999999999999993" style="stroke:black;fill:none;stroke-width:2.0;stroke-dasharray:-;stroke-linecap:round;stroke-linejoin:round;" /><g><g><g><path d="M -9.31 -23.36 L -9.31 -23.36 L -4.942 -29.92 Q -4.718 -30.24 -4.582 -30.512 Q -4.446 -30.784 -4.446 -30.976 Q -4.446 -31.216 -4.654 -31.304 Q -4.862 -31.392 -5.406 -31.392 L -5.374 -31.872 L -1.918 -31.872 L -1.95 -31.392 Q -2.382 -31.392 -2.686 -31.264 Q -2.99 -31.136 -3.302 -30.776 Q -3.614 -30.416 -4.11 -29.68 L -9.982 -21.28 L -10.51 -21.28 L -11.406 -29.936 Q -11.502 -30.736 -11.758 -31.064 Q -12.014 -31.392 -12.654 -31.392 L -12.622 -31.872 L -8.702 -31.872 L -8.75 -31.392 Q -9.358 -31.392 -9.71 -31.152 Q -10.062 -30.912 -10.03 -30.368 Q -10.03 -30.288 -10.006 -30.08 Q -9.982 -29.872 -9.982 -29.792 L -9.502 -25.232 L -9.39 -23.36 Z " fill="black" /><path d="M -3.179 -25.874 L -3.179 -25.874 L 0.214 -25.874 Q 1.11 -25.874 1.928 -25.678 Q 2.746 -25.482 3.39 -25.034 Q 4.034 -24.586 4.409 -23.835 Q 4.784 -23.085 4.784 -21.965 Q 4.784 -20.912 4.442 -20.156 Q 4.101 -19.4 3.485 -18.924 Q 2.869 -18.448 2.051 -18.224 Q 1.234 -18 0.282 -18 L -3.179 -18 L -3.179 -18.426 Q -2.653 -18.426 -2.406 -18.504 Q -2.16 -18.582 -2.087 -18.823 Q -2.014 -19.064 -2.014 -19.557 L -2.014 -24.418 Q -2.014 -24.877 -2.121 -25.095 Q -2.227 -25.314 -2.479 -25.381 Q -2.731 -25.448 -3.179 -25.448 Z M -0.816 -25.314 L -0.816 -25.314 L -0.816 -18.538 Q -0.637 -18.526 -0.463 -18.521 Q -0.29 -18.515 -0.122 -18.515 Q 0.987 -18.515 1.766 -18.806 Q 2.544 -19.098 2.953 -19.826 Q 3.362 -20.554 3.362 -21.864 Q 3.362 -23.544 2.505 -24.434 Q 1.648 -25.325 -0.211 -25.325 Q -0.368 -25.325 -0.514 -25.325 Q -0.659 -25.325 -0.816 -25.314 Z " fill="black" /><path d="M 6.139 -25.874 L 6.139 -25.874 L 9.533 -25.874 Q 10.429 -25.874 11.246 -25.678 Q 12.064 -25.482 12.708 -25.034 Q 13.352 -24.586 13.727 -23.835 Q 14.102 -23.085 14.102 -21.965 Q 14.102 -20.912 13.761 -20.156 Q 13.419 -19.4 12.803 -18.924 Q 12.187 -18.448 11.37 -18.224 Q 10.552 -18 9.6 -18 L 6.139 -18 L 6.139 -18.426 Q 6.666 -18.426 6.912 -18.504 Q 7.158 -18.582 7.231 -18.823 Q 7.304 -19.064 7.304 -19.557 L 7.304 -24.418 Q 7.304 -24.877 7.198 -25.095 Q 7.091 -25.314 6.839 -25.381 Q 6.587 -25.448 6.139 -25.448 Z M 8.502 -25.314 L 8.502 -25.314 L 8.502 -18.538 Q 8.682 -18.526 8.855 -18.521 Q 9.029 -18.515 9.197 -18.515 Q 10.306 -18.515 11.084 -18.806 Q 11.862 -19.098 12.271 -19.826 Q 12.68 -20.554 12.68 -21.864 Q 12.68 -23.544 11.823 -24.434 Q 10.966 -25.325 9.107 -25.325 Q 8.95 -25.325 8.805 -25.325 Q 8.659 -25.325 8.502 -25.314 Z " fill="black" /></g></g></g><g><g><g><path d="M 16.544 33.576 L 16.544 33.576 L 12.272 33.576 L 12.368 33.096 Q 12.96 33.096 13.272 32.984 Q 13.584 32.872 13.744 32.56 Q 13.904 32.248 14.016 31.672 L 15.44 24.76 L 15.376 24.76 L 10 33.576 L 9.648 33.576 L 7.712 24.776 L 7.648 24.776 L 6.32 31.24 Q 6.16 32.056 6.184 32.456 Q 6.208 32.856 6.496 32.976 Q 6.784 33.096 7.392 33.096 L 7.296 33.576 L 3.6 33.576 L 3.696 33.096 Q 4.32 33.096 4.656 32.976 Q 4.992 32.856 5.184 32.456 Q 5.376 32.056 5.536 31.24 L 6.8 25.016 Q 6.928 24.408 6.88 24.096 Q 6.832 23.784 6.536 23.664 Q 6.24 23.544 5.6 23.544 L 5.696 23.064 L 8.896 23.064 L 10.624 31.16 L 10.688 31.16 L 15.568 23.064 L 18.592 23.064 L 18.496 23.544 Q 17.936 23.544 17.608 23.664 Q 17.28 23.784 17.104 24.096 Q 16.928 24.408 16.8 25 L 15.44 31.672 Q 15.264 32.552 15.528 32.824 Q 15.792 33.096 16.64 33.096 Z " fill="black" /><path d="M 23.43 36.936 L 23.43 36.936 L 19.634 36.936 L 19.634 36.533 Q 20.44 36.533 20.703 36.37 Q 20.966 36.208 20.966 35.782 L 20.966 30.899 Q 20.966 30.597 20.877 30.462 Q 20.787 30.328 20.552 30.328 Q 20.373 30.328 20.065 30.378 Q 19.757 30.429 19.533 30.485 L 19.533 30.037 L 21.605 29.466 L 22.086 29.466 L 22.086 35.782 Q 22.086 36.208 22.372 36.37 Q 22.658 36.533 23.43 36.533 Z " fill="black" /></g></g></g><circle cx="54.0" cy="59.99999999999999" r="2.6999999999999997" style="stroke:black;fill:white;stroke-width:2.0;stroke-dasharray:-;" /><circle cx="0.0" cy="59.99999999999999" r="2.6999999999999997" style="stroke:black;fill:black;stroke-width:2.0;stroke-dasharray:-;" /><g><g><g><path d="M 72.454 50.906 L 72.454 50.906 L 76.822 44.346 Q 77.046 44.026 77.182 43.754 Q 77.318 43.482 77.318 43.29 Q 77.318 43.05 77.11 42.962 Q 76.902 42.874 76.358 42.874 L 76.39 42.394 L 79.846 42.394 L 79.814 42.874 Q 79.382 42.874 79.078 43.002 Q 78.774 43.13 78.462 43.49 Q 78.15 43.85 77.654 44.586 L 71.782 52.986 L 71.254 52.986 L 70.358 44.33 Q 70.262 43.53 70.006 43.202 Q 69.75 42.874 69.11 42.874 L 69.142 42.394 L 73.062 42.394 L 73.014 42.874 Q 72.406 42.874 72.054 43.114 Q 71.702 43.354 71.734 43.898 Q 71.734 43.978 71.758 44.186 Q 71.782 44.394 71.782 44.474 L 72.262 49.034 L 72.374 50.906 Z " fill="black" /><path d="M 79.755 50.386 L 79.755 50.386 Q 80.595 50.386 81.222 50.75 Q 81.85 51.114 82.191 51.769 Q 82.533 52.424 82.533 53.309 Q 82.533 54.373 82.174 55.056 Q 81.816 55.739 81.189 56.07 Q 80.562 56.4 79.755 56.4 Q 78.938 56.4 78.305 56.058 Q 77.672 55.717 77.319 55.034 Q 76.966 54.35 76.966 53.32 Q 76.966 52.446 77.314 51.786 Q 77.661 51.125 78.288 50.755 Q 78.915 50.386 79.755 50.386 Z M 79.733 50.901 L 79.733 50.901 Q 78.994 50.901 78.574 51.5 Q 78.154 52.099 78.154 53.253 Q 78.154 54.675 78.585 55.263 Q 79.016 55.851 79.789 55.851 Q 80.282 55.84 80.629 55.605 Q 80.976 55.37 81.161 54.815 Q 81.346 54.261 81.346 53.309 Q 81.346 52.166 80.954 51.534 Q 80.562 50.901 79.733 50.901 Z " fill="black" /><path d="M 90.149 55.694 L 90.149 55.694 L 90.149 56.12 L 88.637 56.322 L 88.278 56.322 L 88.278 55.448 L 88.166 55.448 Q 87.741 55.829 87.304 56.103 Q 86.867 56.378 86.251 56.378 Q 85.422 56.378 84.986 55.874 Q 84.549 55.37 84.549 54.126 L 84.549 51.718 Q 84.549 51.259 84.386 51.153 Q 84.224 51.046 83.709 51.046 L 83.709 50.643 L 85.266 50.43 L 85.635 50.43 L 85.635 53.981 Q 85.635 54.608 85.781 54.955 Q 85.926 55.302 86.173 55.437 Q 86.419 55.571 86.71 55.571 Q 87.203 55.571 87.534 55.364 Q 87.864 55.157 88.222 54.866 L 88.222 51.718 Q 88.222 51.259 88.021 51.153 Q 87.819 51.046 87.248 51.046 L 87.248 50.643 L 88.917 50.43 L 89.309 50.43 L 89.309 54.966 Q 89.309 55.302 89.37 55.459 Q 89.432 55.616 89.589 55.655 Q 89.746 55.694 90.026 55.694 Z " fill="black" /><path d="M 94.517 55.146 L 94.517 55.146 L 94.774 55.358 Q 94.528 55.694 94.326 55.924 Q 94.125 56.154 93.867 56.277 Q 93.61 56.4 93.206 56.4 Q 92.557 56.4 92.26 56.03 Q 91.963 55.661 91.963 54.843 L 91.963 51.08 L 91.258 51.08 L 91.258 50.744 Q 91.661 50.453 91.997 50.033 Q 92.333 49.613 92.669 48.829 L 93.061 48.829 L 93.05 50.531 L 94.472 50.531 L 94.472 51.08 L 93.05 51.08 L 93.05 54.474 Q 93.05 55.101 93.167 55.364 Q 93.285 55.627 93.643 55.627 Q 93.968 55.627 94.136 55.51 Q 94.304 55.392 94.517 55.146 Z " fill="black" /></g></g></g><g><g><g><path d="M 70.03 91.205 L 70.03 91.205 Q 70.03 92.053 69.71 92.629 Q 69.39 93.205 68.878 93.573 Q 68.366 93.941 67.782 94.141 Q 67.198 94.341 66.67 94.437 L 66.67 94.517 Q 66.958 94.709 67.214 95.101 Q 67.47 95.493 67.846 96.229 Q 68.222 96.965 68.878 98.213 Q 69.15 98.693 69.478 98.861 Q 69.806 99.029 70.35 99.029 L 70.254 99.509 L 67.822 99.509 Q 67.374 98.517 67.07 97.853 Q 66.766 97.189 66.542 96.741 Q 66.318 96.293 66.15 95.941 Q 65.982 95.589 65.79 95.221 Q 65.614 94.885 65.406 94.781 Q 65.198 94.677 64.766 94.677 L 64.43 94.677 L 63.838 97.525 Q 63.71 98.181 63.75 98.509 Q 63.79 98.837 64.11 98.933 Q 64.43 99.029 65.118 99.029 L 65.038 99.509 L 60.622 99.509 L 60.718 99.029 Q 61.31 99.029 61.63 98.933 Q 61.95 98.837 62.118 98.517 Q 62.286 98.197 62.414 97.525 L 63.822 90.661 Q 63.918 90.213 63.87 89.957 Q 63.822 89.701 63.542 89.589 Q 63.262 89.477 62.622 89.477 L 62.718 88.997 L 66.478 88.997 Q 68.158 88.997 69.094 89.517 Q 70.03 90.037 70.03 91.205 Z M 65.438 89.669 L 65.438 89.669 L 64.542 94.085 L 65.038 94.101 Q 65.998 94.069 66.774 93.789 Q 67.55 93.509 67.998 92.901 Q 68.446 92.293 68.446 91.269 Q 68.446 90.837 68.262 90.461 Q 68.078 90.085 67.63 89.853 Q 67.182 89.621 66.382 89.621 Q 66.078 89.621 65.894 89.629 Q 65.71 89.637 65.438 89.669 Z " fill="black" /><path d="M 74.458 102.454 L 74.458 102.454 L 74.458 102.869 L 71.624 102.869 L 71.624 102.454 Q 72.016 102.454 72.19 102.376 Q 72.363 102.298 72.408 102.113 Q 72.453 101.928 72.453 101.614 L 72.453 95.701 Q 72.453 95.342 72.324 95.264 Q 72.195 95.186 71.926 95.186 Q 71.781 95.186 71.686 95.202 Q 71.59 95.219 71.59 95.219 L 71.59 94.794 L 73.114 94.502 L 73.55 94.502 L 73.55 101.614 Q 73.55 101.939 73.601 102.124 Q 73.651 102.309 73.847 102.382 Q 74.043 102.454 74.458 102.454 Z " fill="black" /><path d="M 78.378 96.989 L 78.378 96.989 Q 79.218 96.989 79.845 97.353 Q 80.472 97.717 80.814 98.372 Q 81.155 99.027 81.155 99.912 Q 81.155 100.976 80.797 101.659 Q 80.438 102.342 79.811 102.673 Q 79.184 103.003 78.378 103.003 Q 77.56 103.003 76.927 102.662 Q 76.294 102.32 75.942 101.637 Q 75.589 100.954 75.589 99.923 Q 75.589 99.05 75.936 98.389 Q 76.283 97.728 76.91 97.358 Q 77.538 96.989 78.378 96.989 Z M 78.355 97.504 L 78.355 97.504 Q 77.616 97.504 77.196 98.103 Q 76.776 98.702 76.776 99.856 Q 76.776 101.278 77.207 101.866 Q 77.638 102.454 78.411 102.454 Q 78.904 102.443 79.251 102.208 Q 79.598 101.973 79.783 101.418 Q 79.968 100.864 79.968 99.912 Q 79.968 98.77 79.576 98.137 Q 79.184 97.504 78.355 97.504 Z " fill="black" /><path d="M 85.859 102.163 L 85.859 102.163 L 85.781 102.163 Q 85.4 102.477 84.941 102.712 Q 84.482 102.947 83.944 102.947 Q 83.238 102.947 82.863 102.522 Q 82.488 102.096 82.488 101.491 Q 82.488 100.976 82.729 100.629 Q 82.97 100.282 83.356 100.063 Q 83.742 99.845 84.19 99.71 Q 84.638 99.576 85.053 99.498 Q 85.467 99.419 85.747 99.352 L 85.747 98.77 Q 85.747 98.019 85.45 97.734 Q 85.154 97.448 84.582 97.448 Q 84.235 97.448 84.084 97.538 Q 83.933 97.627 83.894 97.829 Q 83.854 98.03 83.843 98.355 Q 83.832 98.602 83.698 98.753 Q 83.563 98.904 83.306 98.904 Q 83.059 98.904 82.886 98.753 Q 82.712 98.602 82.712 98.31 Q 82.712 97.963 82.981 97.661 Q 83.25 97.358 83.748 97.174 Q 84.246 96.989 84.918 96.989 Q 85.926 96.989 86.38 97.454 Q 86.834 97.918 86.834 98.848 L 86.834 101.592 Q 86.834 101.962 86.918 102.068 Q 87.002 102.174 87.181 102.174 Q 87.371 102.174 87.511 102.096 Q 87.651 102.018 87.774 101.872 L 88.021 102.107 Q 87.438 102.936 86.654 102.936 Q 86.218 102.936 86.055 102.729 Q 85.893 102.522 85.859 102.163 Z M 85.747 101.749 L 85.747 101.749 L 85.747 99.778 Q 85.232 99.912 84.739 100.074 Q 84.246 100.237 83.927 100.517 Q 83.608 100.797 83.608 101.301 Q 83.608 101.738 83.86 101.99 Q 84.112 102.242 84.504 102.242 Q 84.739 102.242 85.07 102.135 Q 85.4 102.029 85.747 101.749 Z " fill="black" /><path d="M 94.741 102.723 L 94.741 102.723 L 93.229 102.925 L 92.826 102.925 L 92.826 102.141 L 92.747 102.141 Q 92.378 102.454 91.913 102.712 Q 91.448 102.97 90.866 102.97 Q 90.205 102.97 89.74 102.611 Q 89.275 102.253 89.029 101.626 Q 88.782 100.998 88.782 100.203 Q 88.782 99.206 89.169 98.484 Q 89.555 97.762 90.199 97.375 Q 90.843 96.989 91.605 96.989 Q 92.266 96.989 92.803 97.291 L 92.803 95.846 Q 92.803 95.443 92.719 95.314 Q 92.635 95.186 92.277 95.186 Q 92.198 95.186 92.07 95.202 Q 91.941 95.219 91.941 95.219 L 91.941 94.794 L 93.43 94.502 L 93.89 94.502 L 93.89 101.603 Q 93.89 102.04 94.013 102.169 Q 94.136 102.298 94.438 102.298 L 94.741 102.298 Z M 92.803 101.626 L 92.803 101.626 L 92.803 98.355 Q 92.68 98.042 92.394 97.795 Q 92.109 97.549 91.582 97.549 Q 90.832 97.549 90.35 98.058 Q 89.869 98.568 89.869 99.744 Q 89.869 100.942 90.289 101.497 Q 90.709 102.051 91.47 102.051 Q 91.829 102.051 92.126 101.95 Q 92.422 101.85 92.803 101.626 Z " fill="black" /></g></g></g><g><g><g><path d="M -19.501 91.272 L -19.501 91.272 Q -19.501 92.12 -19.821 92.696 Q -20.141 93.272 -20.653 93.64 Q -21.165 94.008 -21.749 94.208 Q -22.333 94.408 -22.861 94.504 L -22.861 94.584 Q -22.573 94.776 -22.317 95.168 Q -22.061 95.56 -21.685 96.296 Q -21.309 97.032 -20.653 98.28 Q -20.381 98.76 -20.053 98.928 Q -19.725 99.096 -19.181 99.096 L -19.277 99.576 L -21.709 99.576 Q -22.157 98.584 -22.461 97.92 Q -22.765 97.256 -22.989 96.808 Q -23.213 96.36 -23.381 96.008 Q -23.549 95.656 -23.741 95.288 Q -23.917 94.952 -24.125 94.848 Q -24.333 94.744 -24.765 94.744 L -25.101 94.744 L -25.693 97.592 Q -25.821 98.248 -25.781 98.576 Q -25.741 98.904 -25.421 99 Q -25.101 99.096 -24.413 99.096 L -24.493 99.576 L -28.909 99.576 L -28.813 99.096 Q -28.221 99.096 -27.901 99 Q -27.581 98.904 -27.413 98.584 Q -27.245 98.264 -27.117 97.592 L -25.709 90.728 Q -25.613 90.28 -25.661 90.024 Q -25.709 89.768 -25.989 89.656 Q -26.269 89.544 -26.909 89.544 L -26.813 89.064 L -23.053 89.064 Q -21.373 89.064 -20.437 89.584 Q -19.501 90.104 -19.501 91.272 Z M -24.093 89.736 L -24.093 89.736 L -24.989 94.152 L -24.493 94.168 Q -23.533 94.136 -22.757 93.856 Q -21.981 93.576 -21.533 92.968 Q -21.085 92.36 -21.085 91.336 Q -21.085 90.904 -21.269 90.528 Q -21.453 90.152 -21.901 89.92 Q -22.349 89.688 -23.149 89.688 Q -23.453 89.688 -23.637 89.696 Q -23.821 89.704 -24.093 89.736 Z " fill="black" /><path d="M -13.606 102.936 L -13.606 102.936 L -17.403 102.936 L -17.403 102.533 Q -16.597 102.533 -16.334 102.37 Q -16.07 102.208 -16.07 101.782 L -16.07 96.899 Q -16.07 96.597 -16.16 96.462 Q -16.25 96.328 -16.485 96.328 Q -16.664 96.328 -16.972 96.378 Q -17.28 96.429 -17.504 96.485 L -17.504 96.037 L -15.432 95.466 L -14.95 95.466 L -14.95 101.782 Q -14.95 102.208 -14.665 102.37 Q -14.379 102.533 -13.606 102.533 Z " fill="black" /></g></g></g><circle cx="-69.0" cy="29.999999999999993" r="2.6999999999999997" style="stroke:black;fill:white;stroke-width:2.0;stroke-dasharray:-;" /><g><g><g><path d="M -91.129 31.576 L -91.129 31.576 L -86.761 25.016 Q -86.537 24.696 -86.401 24.424 Q -86.265 24.152 -86.265 23.96 Q -86.265 23.72 -86.473 23.632 Q -86.681 23.544 -87.225 23.544 L -87.193 23.064 L -83.737 23.064 L -83.769 23.544 Q -84.201 23.544 -84.505 23.672 Q -84.809 23.8 -85.121 24.16 Q -85.433 24.52 -85.929 25.256 L -91.801 33.656 L -92.329 33.656 L -93.225 25 Q -93.321 24.2 -93.577 23.872 Q -93.833 23.544 -94.473 23.544 L -94.441 23.064 L -90.521 23.064 L -90.569 23.544 Q -91.177 23.544 -91.529 23.784 Q -91.881 24.024 -91.849 24.568 Q -91.849 24.648 -91.825 24.856 Q -91.801 25.064 -91.801 25.144 L -91.321 29.704 L -91.209 31.576 Z " fill="black" /><path d="M -82.209 36.522 L -82.209 36.522 L -82.209 36.936 L -85.054 36.936 L -85.054 36.522 Q -84.662 36.522 -84.488 36.438 Q -84.314 36.354 -84.27 36.169 Q -84.225 35.984 -84.225 35.682 L -84.225 32.299 Q -84.225 31.918 -84.348 31.84 Q -84.471 31.762 -84.762 31.762 Q -84.908 31.762 -84.998 31.773 Q -85.087 31.784 -85.087 31.784 L -85.087 31.336 L -83.586 31.09 L -83.127 31.09 L -83.127 35.682 Q -83.127 36.006 -83.077 36.191 Q -83.026 36.376 -82.83 36.449 Q -82.634 36.522 -82.209 36.522 Z M -83.687 28.614 L -83.687 28.614 Q -83.362 28.614 -83.144 28.838 Q -82.926 29.062 -82.926 29.354 Q -82.926 29.622 -83.144 29.846 Q -83.362 30.07 -83.687 30.07 Q -84.001 30.07 -84.208 29.846 Q -84.415 29.622 -84.415 29.354 Q -84.415 29.062 -84.208 28.838 Q -84.001 28.614 -83.687 28.614 Z " fill="black" /><path d="M -75.556 33.184 L -75.556 33.184 L -75.556 35.693 Q -75.556 36.006 -75.5 36.191 Q -75.444 36.376 -75.254 36.454 Q -75.063 36.533 -74.66 36.533 L -74.66 36.936 L -77.538 36.936 L -77.538 36.533 Q -77.113 36.533 -76.922 36.454 Q -76.732 36.376 -76.687 36.191 Q -76.642 36.006 -76.642 35.693 L -76.642 33.554 Q -76.642 32.803 -76.816 32.45 Q -76.99 32.098 -77.253 31.986 Q -77.516 31.874 -77.785 31.874 Q -78.266 31.874 -78.63 32.12 Q -78.994 32.366 -79.263 32.59 L -79.263 35.693 Q -79.263 36.006 -79.213 36.191 Q -79.162 36.376 -78.972 36.454 Q -78.782 36.533 -78.367 36.533 L -78.367 36.936 L -81.19 36.936 L -81.19 36.533 Q -80.798 36.533 -80.624 36.454 Q -80.45 36.376 -80.406 36.191 Q -80.361 36.006 -80.361 35.693 L -80.361 32.288 Q -80.361 31.974 -80.478 31.868 Q -80.596 31.762 -80.854 31.762 Q -80.988 31.762 -81.078 31.773 Q -81.167 31.784 -81.167 31.784 L -81.167 31.358 L -79.666 31.09 L -79.297 31.09 L -79.297 32.008 L -79.218 32.008 Q -78.737 31.571 -78.294 31.314 Q -77.852 31.056 -77.292 31.056 Q -76.631 31.056 -76.256 31.353 Q -75.881 31.65 -75.718 32.131 Q -75.556 32.613 -75.556 33.184 Z " fill="black" /></g></g></g></svg>