<svg xmlns="http://www.w3.org/2000/svg" xmlns:xlink="http://www.w3.org/1999/xlink" xml:lang="en" height="291.44000000000005pt" width="795.3682pt" viewBox="-83.36819999999999 -177.4 795.3682 291.44000000000005"><circle cx="107.99999999999999" cy="36.0" r="18.0" style="stroke:black;fill:none;stroke-width:2.0;stroke-dasharray:-;" /><circle cx="360.0" cy="36.0" r="18.0" style="stroke:black;fill:none;stroke-width:2.0;stroke-dasharray:-;" /><circle cx="360.0" cy="-108.0" r="18.0" style="stroke:black;fill:none;stroke-width:2.0;stroke-dasharray:-;" /><path d="M 0.0,-0.0 L -18.0,-2.204364238465236e-15 L -36.0,-4.408728476930472e-15" style="stroke:black;fill:none;stroke-width:2.0;stroke-dasharray:-;stroke-linecap:round;stroke-linejoin:round;" /><path d="M -1.3226185430791413e-14,72.0 L 53.999999999999986,72.0 L 107.99999999999999,72.0" style="stroke:black;fill:none;stroke-width:2.0;stroke-dasharray:-;stroke-linecap:round;stroke-linejoin:round;" /><path d="M 107.99999999999999,72.0 L 107.99999999999999,54.0 L 107.99999999999999,54.0 M 107.99999999999999,18.0 L 107.99999999999999,18.0 L 107.99999999999999,-0.0" style="stroke:black;fill:none;stroke-width:2.0;stroke-dasharray:-;stroke-linecap:round;stroke-linejoin:round;" /><path d="M 107.99999999999999,36.0 L 107.99999999999999,27.0" style="stroke:black;fill:none;stroke-width:2.0;stroke-dasharray:-;stroke-linecap:round;stroke-linejoin:round;" /><path d="M 107.99999999999999 43.0 L 105.29999999999998 36.0 L 110.69999999999999 36.0 Z" style="stroke:black;fill:black;stroke-linecap:butt;stroke-linejoin:miter;" /><path d="M 107.99999999999999,-0.0 L 107.99999999999999,-36.0 L 107.99999999999999,-72.0" style="stroke:black;fill:none;stroke-width:2.0;stroke-dasharray:-;stroke-linecap:round;stroke-linejoin:round;" /><path d="M 107.99999999999999,-72.0 L 107.99999999999999,-90.0 L 98.99999999999999,-93.0 L 116.99999999999999,-99.0 L 98.99999999999999,-105.0 L 116.99999999999999,-110.99999999999999 L 98.99999999999999,-117.0 L 116.99999999999999,-123.0 L 107.99999999999999,-126.0 L 107.99999999999999,-144.0" style="stroke:black;fill:none;stroke-width:2.0;stroke-dasharray:-;stroke-linecap:round;stroke-linejoin:round;" /><path d="M 107.99999999999999,-144.0 L 107.99999999999999,-158.4" style="stroke:black;fill:none;stroke-width:2.0;stroke-dasharray:-;stroke-linecap:round;stroke-linejoin:round;" /><path d="M 107.99999999999999,-158.4 L 101.24999999999999,-158.4" style="stroke:black;fill:none;stroke-width:2.0;stroke-dasharray:-;stroke-linecap:round;stroke-linejoin:round;" /><path d="M 107.99999999999999,-158.4 L 114.74999999999999,-158.4" style="stroke:black;fill:none;stroke-width:2.0;stroke-dasharray:-;stroke-linecap:round;stroke-linejoin:round;" /><path d="M 107.99999999999999,-72.0 L 162.0,-72.0 L 216.0,-72.0" style="stroke:black;fill:none;stroke-width:2.0;stroke-dasharray:-;stroke-linecap:round;stroke-linejoin:round;" /><path d="M 216.0,-72.0 L 216.0,-104.76 M 207.0,-104.76 L 225.0,-104.76 M 207.0,-111.24 L 225.0,-111.24 M 216.0,-111.24 L 216.0,-144.0" style="stroke:black;fill:none;stroke-width:2.0;stroke-dasharray:-;stroke-linecap:round;stroke-linejoin:round;" /><path d="M 216.0,-144.0 L 216.0,-158.4" style="stroke:black;fill:none;stroke-width:2.0;stroke-dasharray:-;stroke-linecap:round;stroke-linejoin:round;" /><path d="M 216.0,-158.4 L 209.25,-158.4" style="stroke:black;fill:none;stroke-width:2.0;stroke-dasharray:-;stroke-linecap:round;stroke-linejoin:round;" /><path d="M 216.0,-158.4 L 222.75,-158.4" style="stroke:black;fill:none;stroke-width:2.0;stroke-dasharray:-;stroke-linecap:round;stroke-linejoin:round;" /><path d="M 107.99999999999999,72.0 L 107.99999999999999,86.39999999999999 L 98.99999999999999,86.39999999999999 L 116.99999999999999,86.39999999999999 M 101.69999999999999,90.72 L 114.29999999999998,90.72 M 106.19999999999999,95.04 L 109.79999999999998,95.04" style="stroke:black;fill:none;stroke-width:2.0;stroke-dasharray:-;stroke-linecap:round;stroke-linejoin:round;" /><path d="M 360.0,72.0 L 360.0,86.39999999999999 L 351.0,86.39999999999999 L 369.0,86.39999999999999 M 353.7,90.72 L 366.3,90.72 M 358.2,95.04 L 361.8,95.04" style="stroke:black;fill:none;stroke-width:2.0;stroke-dasharray:-;stroke-linecap:round;stroke-linejoin:round;" /><path d="M 360.0,72.0 L 360.0,54.0 L 360.0,54.0 M 360.0,18.0 L 360.0,18.0 L 360.0,-0.0" style="stroke:black;fill:none;stroke-width:2.0;stroke-dasharray:-;stroke-linecap:round;stroke-linejoin:round;" /><path d="M 360.0,36.0 L 360.0,27.0" style="stroke:black;fill:none;stroke-width:2.0;stroke-dasharray:-;stroke-linecap:round;stroke-linejoin:round;" /><path d="M 360.0 43.0 L 357.3 36.0 L 362.7 36.0 Z" style="stroke:black;fill:black;stroke-linecap:butt;stroke-linejoin:miter;" /><path d="M 360.0,-0.0 L 360.0,-18.0 L 360.0,-36.0" style="stroke:black;fill:none;stroke-width:2.0;stroke-dasharray:-;stroke-linecap:round;stroke-linejoin:round;" /><path d="M 360.0,-36.0 L 360.0,-54.0 L 360.0,-72.0" style="stroke:black;fill:none;stroke-width:2.0;stroke-dasharray:-;stroke-linecap:round;stroke-linejoin:round;" /><path d="M 360.0,-72.0 L 360.0,-90.0 L 360.0,-90.0 M 360.0,-126.0 L 360.0,-126.0 L 360.0,-144.0" style="stroke:black;fill:none;stroke-width:2.0;stroke-dasharray:-;stroke-linecap:round;stroke-linejoin:round;" /><path d="M 360.0,-99.0 L 360.0,-108.0" style="stroke:black;fill:none;stroke-width:2.0;stroke-dasharray:-;stroke-linecap:round;stroke-linejoin:round;" /><path d="M 360.0 -115.0 L 362.7 -108.0 L 357.3 -108.0 Z" style="stroke:black;fill:black;stroke-linecap:butt;stroke-linejoin:miter;" /><path d="M 360.0,-144.0 L 360.0,-158.4" style="stroke:black;fill:none;stroke-width:2.0;stroke-dasharray:-;stroke-linecap:round;stroke-linejoin:round;" /><path d="M 360.0,-158.4 L 353.25,-158.4" style="stroke:black;fill:none;stroke-width:2.0;stroke-dasharray:-;stroke-linecap:round;stroke-linejoin:round;" /><path d="M 360.0,-158.4 L 366.75,-158.4" style="stroke:black;fill:none;stroke-width:2.0;stroke-dasharray:-;stroke-linecap:round;stroke-linejoin:round;" /><path d="M 360.0,-36.0 L 468.0,-36.0 L 576.0,-36.0" style="stroke:black;fill:none;stroke-width:2.0;stroke-dasharray:-;stroke-linecap:round;stroke-linejoin:round;" /><path d="M 576.0,-36.0 L 576.0,-18.0 L 576.0,-0.0" style="stroke:black;fill:none;stroke-width:2.0;stroke-dasharray:-;stroke-linecap:round;stroke-linejoin:round;" /><path d="M 576.0,-0.0 L 576.0,32.76 M 585.0,32.76 L 567.0,32.76 M 585.0,39.24 L 567.0,39.24 M 576.0,39.24 L 576.0,72.0" style="stroke:black;fill:none;stroke-width:2.0;stroke-dasharray:-;stroke-linecap:round;stroke-linejoin:round;" /><path d="M 576.0,72.0 L 576.0,86.39999999999999 L 567.0,86.39999999999999 L 585.0,86.39999999999999 M 569.6999999999999,90.72 L 582.3000000000001,90.72 M 574.1999999999999,95.04 L 577.8000000000001,95.04" style="stroke:black;fill:none;stroke-width:2.0;stroke-dasharray:-;stroke-linecap:round;stroke-linejoin:round;" /><path d="M 576.0,-36.0 L 630.0,-36.0 L 684.0,-36.0" style="stroke:black;fill:none;stroke-width:2.0;stroke-dasharray:-;stroke-linecap:round;stroke-linejoin:round;" /><path d="M 684.0,-36.0 L 684.0,-18.0 L 684.0,-0.0" style="stroke:black;fill:none;stroke-width:2.0;stroke-dasharray:-;stroke-linecap:round;stroke-linejoin:round;" /><path d="M 684.0,-0.0 L 684.0,18.0 L 693.0,21.0 L 675.0,27.0 L 693.0,33.0 L 675.0,39.0 L 693.0,45.0 L 675.0,50.99999999999999 L 684.0,54.0 L 684.0,72.0" style="stroke:black;fill:none;stroke-width:2.0;stroke-dasharray:-;stroke-linecap:round;stroke-linejoin:round;" /><path d="M 684.0,72.0 L 684.0,86.39999999999999 L 675.0,86.39999999999999 L 693.0,86.39999999999999 M 677.6999999999999,90.72 L 690.3000000000001,90.72 M 682.1999999999999,95.04 L 685.8000000000001,95.04" style="stroke:black;fill:none;stroke-width:2.0;stroke-dasharray:-;stroke-linecap:round;stroke-linejoin:round;" /><path d="M 360.0,72.0 L 396.0,72.0 L 432.0,72.0" style="stroke:black;fill:none;stroke-width:2.0;stroke-dasharray:-;stroke-linecap:round;stroke-linejoin:round;" /><path d="M 432.0,-0.0 L 450.0,-0.0 L 468.0,-0.0" style="stroke:black;fill:none;stroke-width:2.0;stroke-dasharray:-;stroke-linecap:round;stroke-linejoin:round;" /><path d="M 107.99999999999999,-72.0 L 53.999999999999986,-72.0 L -1.5987211554602254e-14,-72.00000000000001" style="stroke:black;fill:none;stroke-width:2.0;stroke-dasharray:-;stroke-linecap:round;stroke-linejoin:round;" /><path d="M -1.1578483077671783e-14,-144.0 L -1.1578483077671783e-14,-158.4" style="stroke:black;fill:none;stroke-width:2.0;stroke-dasharray:-;stroke-linecap:round;stroke-linejoin:round;" /><path d="M -1.1578483077671783e-14,-158.4 L -6.750000000000012,-158.4" style="stroke:black;fill:none;stroke-width:2.0;stroke-dasharray:-;stroke-linecap:round;stroke-linejoin:round;" /><path d="M -1.1578483077671783e-14,-158.4 L 6.749999999999988,-158.4" style="stroke:black;fill:none;stroke-width:2.0;stroke-dasharray:-;stroke-linecap:round;stroke-linejoin:round;" /><circle cx="-36.0" cy="-4.408728476930472e-15" r="2.6999999999999997" style="stroke:black;fill:white;stroke-width:2.0;stroke-dasharray:-;" /><g><g><g><path d="M -64.51 0.247 L -64.51 0.247 L -60.688 -5.493 Q -60.492 -5.773 -60.373 -6.011 Q -60.254 -6.249 -60.254 -6.417 Q -60.254 -6.627 -60.436 -6.704 Q -60.618 -6.781 -61.094 -6.781 L -61.066 -7.201 L -58.042 -7.201 L -58.07 -6.781 Q -58.448 -6.781 -58.714 -6.669 Q -58.98 -6.557 -59.253 -6.242 Q -59.526 -5.927 -59.96 -5.283 L -65.098 2.067 L -65.56 2.067 L -66.344 -5.507 Q -66.428 -6.207 -66.652 -6.494 Q -66.876 -6.781 -67.436 -6.781 L -67.408 -7.201 L -63.978 -7.201 L -64.02 -6.781 Q -64.552 -6.781 -64.86 -6.571 Q -65.168 -6.361 -65.14 -5.885 Q -65.14 -5.815 -65.119 -5.633 Q -65.098 -5.451 -65.098 -5.381 L -64.678 -1.391 L -64.58 0.247 Z " fill="black" /><path d="M -56.705 4.574 L -56.705 4.574 L -56.705 4.937 L -59.194 4.937 L -59.194 4.574 Q -58.851 4.574 -58.699 4.501 Q -58.547 4.427 -58.508 4.266 Q -58.469 4.104 -58.469 3.839 L -58.469 0.88 Q -58.469 0.547 -58.576 0.478 Q -58.684 0.409 -58.939 0.409 Q -59.066 0.409 -59.145 0.419 Q -59.223 0.429 -59.223 0.429 L -59.223 0.037 L -57.91 -0.179 L -57.508 -0.179 L -57.508 3.839 Q -57.508 4.124 -57.464 4.285 Q -57.42 4.447 -57.248 4.511 Q -57.077 4.574 -56.705 4.574 Z M -57.998 -2.344 L -57.998 -2.344 Q -57.714 -2.344 -57.523 -2.148 Q -57.332 -1.952 -57.332 -1.698 Q -57.332 -1.462 -57.523 -1.266 Q -57.714 -1.07 -57.998 -1.07 Q -58.273 -1.07 -58.454 -1.266 Q -58.635 -1.462 -58.635 -1.698 Q -58.635 -1.952 -58.454 -2.148 Q -58.273 -2.344 -57.998 -2.344 Z " fill="black" /><path d="M -50.883 1.654 L -50.883 1.654 L -50.883 3.849 Q -50.883 4.124 -50.834 4.285 Q -50.785 4.447 -50.619 4.516 Q -50.452 4.584 -50.099 4.584 L -50.099 4.937 L -52.618 4.937 L -52.618 4.584 Q -52.246 4.584 -52.079 4.516 Q -51.912 4.447 -51.873 4.285 Q -51.834 4.124 -51.834 3.849 L -51.834 1.977 Q -51.834 1.321 -51.986 1.012 Q -52.138 0.703 -52.368 0.605 Q -52.598 0.507 -52.834 0.507 Q -53.255 0.507 -53.573 0.723 Q -53.892 0.939 -54.127 1.135 L -54.127 3.849 Q -54.127 4.124 -54.083 4.285 Q -54.039 4.447 -53.872 4.516 Q -53.706 4.584 -53.343 4.584 L -53.343 4.937 L -55.813 4.937 L -55.813 4.584 Q -55.47 4.584 -55.318 4.516 Q -55.166 4.447 -55.127 4.285 Q -55.088 4.124 -55.088 3.849 L -55.088 0.87 Q -55.088 0.596 -55.19 0.503 Q -55.293 0.409 -55.519 0.409 Q -55.636 0.409 -55.715 0.419 Q -55.793 0.429 -55.793 0.429 L -55.793 0.057 L -54.48 -0.179 L -54.157 -0.179 L -54.157 0.625 L -54.088 0.625 Q -53.667 0.243 -53.279 0.017 Q -52.892 -0.208 -52.402 -0.208 Q -51.824 -0.208 -51.496 0.052 Q -51.168 0.311 -51.025 0.733 Q -50.883 1.154 -50.883 1.654 Z " fill="black" /><path d="M -48.874 6.407 L -48.874 6.407 L -49.041 6.084 Q -48.835 5.995 -48.62 5.853 Q -48.404 5.711 -48.262 5.452 Q -48.12 5.192 -48.12 4.77 Q -48.286 4.839 -48.463 4.839 Q -48.786 4.839 -48.923 4.648 Q -49.061 4.457 -49.061 4.212 Q -49.061 3.947 -48.884 3.751 Q -48.708 3.555 -48.375 3.555 Q -47.953 3.555 -47.733 3.815 Q -47.512 4.075 -47.512 4.535 Q -47.512 5.006 -47.659 5.334 Q -47.806 5.662 -48.027 5.873 Q -48.247 6.084 -48.477 6.206 Q -48.708 6.329 -48.874 6.407 Z " fill="black" /><path d="M -45.454 -0.179 L -45.454 -0.179 L -45.454 0.664 L -45.405 0.664 Q -45.023 0.223 -44.641 0.008 Q -44.259 -0.208 -43.798 -0.208 Q -43.279 -0.208 -42.857 0.101 Q -42.436 0.409 -42.186 0.953 Q -41.936 1.497 -41.936 2.203 Q -41.936 3.124 -42.264 3.761 Q -42.593 4.398 -43.136 4.726 Q -43.68 5.055 -44.317 5.055 Q -44.621 5.055 -44.891 4.976 Q -45.16 4.898 -45.386 4.77 L -45.435 4.77 L -45.435 6.025 Q -45.435 6.368 -45.346 6.549 Q -45.258 6.73 -45.033 6.794 Q -44.807 6.858 -44.386 6.858 L -44.386 7.201 L -47.159 7.201 L -47.159 6.868 Q -46.816 6.858 -46.655 6.794 Q -46.493 6.73 -46.439 6.564 Q -46.385 6.397 -46.385 6.093 L -46.385 0.939 Q -46.385 0.654 -46.444 0.532 Q -46.503 0.409 -46.787 0.409 Q -46.875 0.409 -47.012 0.419 Q -47.15 0.429 -47.15 0.429 L -47.15 0.037 L -45.827 -0.179 Z M -45.435 1.164 L -45.435 1.164 L -45.435 3.928 Q -45.327 4.035 -45.165 4.197 Q -45.003 4.359 -44.778 4.481 Q -44.553 4.604 -44.288 4.604 Q -43.925 4.604 -43.626 4.383 Q -43.328 4.163 -43.141 3.692 Q -42.955 3.222 -42.955 2.497 Q -42.955 1.576 -43.288 1.066 Q -43.622 0.556 -44.229 0.556 Q -44.621 0.556 -44.945 0.762 Q -45.268 0.968 -45.435 1.164 Z " fill="black" /></g></g></g><g><g><g><path d="M 4.606 18.476 L 4.606 18.476 L 0.938 18.476 L 0.938 22.186 L -0.07 22.186 L -0.07 18.476 L -3.738 18.476 L -3.738 17.524 L -0.07 17.524 L -0.07 13.814 L 0.938 13.814 L 0.938 17.524 L 4.606 17.524 Z " fill="black" /></g></g></g><g><g><g><path d="M -6.865 36.134 L -6.865 36.134 L -3.043 30.394 Q -2.847 30.114 -2.728 29.876 Q -2.609 29.638 -2.609 29.47 Q -2.609 29.26 -2.791 29.183 Q -2.973 29.106 -3.449 29.106 L -3.421 28.686 L -0.397 28.686 L -0.425 29.106 Q -0.803 29.106 -1.069 29.218 Q -1.335 29.33 -1.608 29.645 Q -1.881 29.96 -2.315 30.604 L -7.453 37.954 L -7.915 37.954 L -8.699 30.38 Q -8.783 29.68 -9.007 29.393 Q -9.231 29.106 -9.791 29.106 L -9.763 28.686 L -6.333 28.686 L -6.375 29.106 Q -6.907 29.106 -7.215 29.316 Q -7.523 29.526 -7.495 30.002 Q -7.495 30.072 -7.474 30.254 Q -7.453 30.436 -7.453 30.506 L -7.033 34.496 L -6.935 36.134 Z " fill="black" /><path d="M -2.074 38.855 L -2.074 38.855 L -2.074 38.815 Q -2.417 38.61 -2.657 38.281 Q -2.897 37.953 -2.897 37.434 Q -2.897 36.885 -2.633 36.493 Q -2.368 36.101 -1.917 35.89 Q -1.467 35.679 -0.908 35.679 Q -0.389 35.679 -0.06 35.792 Q 0.268 35.905 0.268 35.905 L 1.709 35.866 L 1.709 36.444 L 0.68 36.424 L 0.68 36.493 Q 0.807 36.669 0.944 36.909 Q 1.081 37.149 1.081 37.581 Q 1.081 38.071 0.822 38.428 Q 0.562 38.786 0.126 38.977 Q -0.31 39.168 -0.859 39.168 Q -1.359 39.168 -1.8 38.992 Q -1.868 39.119 -1.961 39.354 Q -2.055 39.59 -2.055 39.756 Q -2.055 39.962 -1.814 40.06 Q -1.574 40.158 -0.859 40.158 Q -0.33 40.158 0.121 40.182 Q 0.572 40.207 0.905 40.32 Q 1.238 40.432 1.42 40.682 Q 1.601 40.932 1.601 41.393 Q 1.601 41.922 1.331 42.289 Q 1.062 42.657 0.621 42.882 Q 0.18 43.108 -0.335 43.211 Q -0.849 43.314 -1.349 43.314 Q -2.064 43.314 -2.456 43.137 Q -2.848 42.961 -3 42.686 Q -3.152 42.412 -3.152 42.128 Q -3.152 41.853 -2.961 41.584 Q -2.77 41.314 -2.349 40.922 L -2.349 40.873 Q -2.594 40.746 -2.76 40.53 Q -2.927 40.315 -2.927 40.109 Q -2.927 39.815 -2.667 39.487 Q -2.407 39.158 -2.074 38.855 Z M -2.025 40.971 L -2.025 40.971 Q -2.192 41.256 -2.251 41.422 Q -2.309 41.589 -2.309 41.755 Q -2.309 42.206 -1.942 42.436 Q -1.574 42.667 -0.8 42.667 Q -0.163 42.667 0.229 42.51 Q 0.621 42.353 0.807 42.133 Q 0.993 41.912 0.993 41.706 Q 0.993 41.442 0.822 41.295 Q 0.65 41.148 0.386 41.084 Q 0.121 41.02 -0.173 41.001 Q -0.467 40.981 -0.722 40.981 Q -0.79 40.981 -0.83 40.981 Q -1.457 40.981 -1.687 40.976 Q -1.917 40.971 -2.025 40.971 Z M -0.967 36.111 L -0.967 36.111 Q -1.388 36.111 -1.648 36.395 Q -1.908 36.679 -1.908 37.375 Q -1.908 38.061 -1.633 38.414 Q -1.359 38.766 -0.859 38.766 Q -0.594 38.766 -0.379 38.659 Q -0.163 38.551 -0.031 38.267 Q 0.101 37.982 0.101 37.463 Q 0.101 36.797 -0.188 36.454 Q -0.477 36.111 -0.967 36.111 Z " fill="black" /><path d="M 2.571 39.041 L 2.571 39.041 L 2.885 39.041 Q 3.012 39.609 3.188 39.923 Q 3.365 40.236 3.644 40.359 Q 3.923 40.481 4.325 40.481 Q 4.786 40.481 5.036 40.329 Q 5.286 40.178 5.286 39.795 Q 5.286 39.541 5.163 39.369 Q 5.041 39.198 4.771 39.041 Q 4.502 38.884 4.051 38.678 Q 3.59 38.453 3.262 38.257 Q 2.934 38.061 2.762 37.796 Q 2.591 37.532 2.591 37.13 Q 2.591 36.424 3.066 36.052 Q 3.541 35.679 4.257 35.679 Q 4.688 35.679 4.987 35.787 Q 5.286 35.895 5.462 35.973 L 5.482 35.973 L 5.638 35.728 L 5.913 35.728 L 5.932 37.355 L 5.589 37.355 Q 5.403 36.601 5.07 36.341 Q 4.737 36.081 4.306 36.081 Q 3.855 36.081 3.625 36.277 Q 3.394 36.473 3.394 36.787 Q 3.394 37.042 3.551 37.208 Q 3.708 37.375 3.997 37.517 Q 4.286 37.659 4.688 37.855 Q 5.139 38.071 5.482 38.301 Q 5.825 38.531 6.021 38.82 Q 6.217 39.109 6.217 39.541 Q 6.217 40.06 5.942 40.374 Q 5.668 40.687 5.237 40.819 Q 4.805 40.952 4.335 40.952 Q 3.855 40.952 3.59 40.854 Q 3.326 40.756 3.1 40.668 L 3.061 40.668 L 2.816 40.922 L 2.591 40.922 Z " fill="black" /><path d="M 10.94 40.824 L 10.94 40.824 L 7.618 40.824 L 7.618 40.472 Q 8.324 40.472 8.554 40.329 Q 8.784 40.187 8.784 39.815 L 8.784 35.542 Q 8.784 35.278 8.706 35.16 Q 8.627 35.042 8.422 35.042 Q 8.265 35.042 7.995 35.087 Q 7.726 35.131 7.53 35.18 L 7.53 34.788 L 9.343 34.288 L 9.764 34.288 L 9.764 39.815 Q 9.764 40.187 10.014 40.329 Q 10.264 40.472 10.94 40.472 Z " fill="black" /></g></g></g><g><g><g><rect x="-1.89" y="49.912" width="3.78" height="0.952" fill="black" /></g></g></g><circle cx="107.99999999999999" cy="72.0" r="2.6999999999999997" style="stroke:black;fill:black;stroke-width:2.0;stroke-dasharray:-;" /><g><g><g><path d="M 41.816 31.346 L 41.816 31.346 L 41.732 32.06 L 40.514 31.92 L 40.514 31.962 Q 40.752 32.228 40.885 32.627 Q 41.018 33.026 41.018 33.39 Q 41.018 34.02 40.766 34.447 Q 40.514 34.874 40.108 35.133 Q 39.702 35.392 39.212 35.525 Q 38.722 35.658 38.26 35.7 Q 37.7 35.756 37.469 35.938 Q 37.238 36.12 37.238 36.316 Q 37.238 36.568 37.518 36.701 Q 37.798 36.834 38.239 36.918 Q 38.68 37.002 39.184 37.107 Q 39.688 37.212 40.129 37.394 Q 40.57 37.576 40.85 37.905 Q 41.13 38.234 41.13 38.78 Q 41.13 39.382 40.738 39.893 Q 40.346 40.404 39.576 40.719 Q 38.806 41.034 37.686 41.034 Q 36.678 41.034 36.076 40.789 Q 35.474 40.544 35.208 40.159 Q 34.942 39.774 34.942 39.354 Q 34.942 38.682 35.46 38.269 Q 35.978 37.856 36.636 37.646 L 36.636 37.59 Q 36.454 37.478 36.293 37.275 Q 36.132 37.072 36.132 36.75 Q 36.132 36.4 36.314 36.19 Q 36.496 35.98 36.783 35.847 Q 37.07 35.714 37.35 35.616 L 37.35 35.532 Q 36.804 35.294 36.398 34.86 Q 35.992 34.426 35.992 33.628 Q 35.992 32.9 36.342 32.347 Q 36.692 31.794 37.301 31.486 Q 37.91 31.178 38.666 31.178 Q 39.17 31.178 39.429 31.227 Q 39.688 31.276 39.94 31.346 Z M 40.122 39.298 L 40.122 39.298 Q 40.122 38.878 39.772 38.619 Q 39.422 38.36 38.904 38.206 Q 38.386 38.052 37.861 37.961 Q 37.336 37.87 36.972 37.8 Q 36.622 38.024 36.328 38.311 Q 36.034 38.598 36.034 39.144 Q 36.034 39.704 36.468 40.124 Q 36.902 40.544 37.966 40.544 Q 38.974 40.544 39.548 40.173 Q 40.122 39.802 40.122 39.298 Z M 39.772 33.236 L 39.772 33.236 Q 39.772 32.536 39.506 32.067 Q 39.24 31.598 38.624 31.598 Q 38.022 31.598 37.63 32.102 Q 37.238 32.606 37.238 33.628 Q 37.238 34.356 37.49 34.811 Q 37.742 35.266 38.344 35.266 Q 39.044 35.266 39.408 34.678 Q 39.772 34.09 39.772 33.236 Z " fill="black" /><path d="M 44.207 37.032 L 44.207 37.032 L 44.207 39.746 Q 44.207 40.04 44.266 40.197 Q 44.324 40.354 44.491 40.408 Q 44.658 40.462 44.981 40.462 L 44.981 40.824 L 42.511 40.824 L 42.511 40.462 Q 42.825 40.462 42.982 40.408 Q 43.139 40.354 43.188 40.192 Q 43.237 40.031 43.237 39.727 L 43.237 36.757 Q 43.237 36.483 43.134 36.39 Q 43.031 36.297 42.805 36.297 Q 42.698 36.297 42.614 36.307 Q 42.531 36.316 42.531 36.316 L 42.531 35.944 L 43.815 35.709 L 44.177 35.709 L 44.177 36.512 L 44.246 36.512 Q 44.658 36.14 45.069 35.91 Q 45.481 35.679 46.039 35.679 Q 46.5 35.679 46.789 35.915 Q 47.078 36.15 47.235 36.493 L 47.284 36.493 Q 48.176 35.679 48.999 35.679 Q 49.665 35.679 50.052 36.091 Q 50.44 36.503 50.44 37.394 L 50.44 39.55 Q 50.44 39.884 50.479 40.084 Q 50.518 40.285 50.675 40.374 Q 50.832 40.462 51.184 40.462 L 51.184 40.824 L 48.725 40.824 L 48.725 40.462 Q 49.087 40.462 49.249 40.369 Q 49.411 40.276 49.45 40.075 Q 49.489 39.874 49.489 39.55 L 49.489 37.512 Q 49.489 36.895 49.239 36.65 Q 48.989 36.405 48.597 36.405 Q 48.264 36.405 47.931 36.605 Q 47.598 36.806 47.343 37.002 L 47.343 39.55 Q 47.343 39.913 47.387 40.114 Q 47.431 40.315 47.602 40.388 Q 47.774 40.462 48.137 40.462 L 48.137 40.824 L 45.579 40.824 L 45.579 40.462 Q 45.951 40.462 46.123 40.388 Q 46.294 40.315 46.343 40.114 Q 46.392 39.913 46.392 39.55 L 46.392 37.483 Q 46.392 36.865 46.172 36.635 Q 45.951 36.405 45.569 36.405 Q 45.167 36.405 44.8 36.62 Q 44.432 36.836 44.207 37.032 Z " fill="black" /><path d="M 55.849 40.824 L 55.849 40.824 L 52.527 40.824 L 52.527 40.472 Q 53.233 40.472 53.463 40.329 Q 53.693 40.187 53.693 39.815 L 53.693 35.542 Q 53.693 35.278 53.615 35.16 Q 53.536 35.042 53.331 35.042 Q 53.174 35.042 52.904 35.087 Q 52.635 35.131 52.439 35.18 L 52.439 34.788 L 54.252 34.288 L 54.673 34.288 L 54.673 39.815 Q 54.673 40.187 54.923 40.329 Q 55.173 40.472 55.849 40.472 Z " fill="black" /><path d="M 57.437 42.294 L 57.437 42.294 L 57.27 41.971 Q 57.476 41.883 57.692 41.741 Q 57.907 41.599 58.049 41.339 Q 58.191 41.079 58.191 40.658 Q 58.025 40.726 57.848 40.726 Q 57.525 40.726 57.388 40.535 Q 57.251 40.344 57.251 40.099 Q 57.251 39.835 57.427 39.639 Q 57.603 39.443 57.937 39.443 Q 58.358 39.443 58.578 39.702 Q 58.799 39.962 58.799 40.423 Q 58.799 40.893 58.652 41.221 Q 58.505 41.55 58.284 41.76 Q 58.064 41.971 57.834 42.093 Q 57.603 42.216 57.437 42.294 Z " fill="black" /><path d="M 63.591 39.119 L 63.591 39.119 L 63.258 40.824 L 59.24 40.824 L 59.24 40.344 L 60.632 38.933 Q 61.18 38.384 61.538 37.963 Q 61.896 37.541 62.072 37.115 Q 62.249 36.689 62.249 36.14 Q 62.249 35.621 61.93 35.282 Q 61.612 34.944 61.033 34.944 Q 60.504 34.944 60.146 35.155 Q 59.789 35.366 59.514 35.846 L 59.25 35.719 Q 59.495 35.033 60.009 34.641 Q 60.524 34.249 61.278 34.249 Q 61.866 34.249 62.317 34.459 Q 62.768 34.67 63.023 35.062 Q 63.278 35.454 63.278 36.013 Q 63.278 36.493 63.062 36.914 Q 62.846 37.336 62.449 37.777 Q 62.053 38.218 61.504 38.757 L 60.279 39.942 L 60.279 40.011 L 61.043 39.972 L 62.317 39.972 Q 62.601 39.972 62.753 39.893 Q 62.905 39.815 63.013 39.624 Q 63.121 39.433 63.248 39.119 Z " fill="black" /><path d="M 67.812 36.134 L 67.812 36.134 L 71.634 30.394 Q 71.83 30.114 71.949 29.876 Q 72.068 29.638 72.068 29.47 Q 72.068 29.26 71.886 29.183 Q 71.704 29.106 71.228 29.106 L 71.256 28.686 L 74.28 28.686 L 74.252 29.106 Q 73.874 29.106 73.608 29.218 Q 73.342 29.33 73.069 29.645 Q 72.796 29.96 72.362 30.604 L 67.224 37.954 L 66.762 37.954 L 65.978 30.38 Q 65.894 29.68 65.67 29.393 Q 65.446 29.106 64.886 29.106 L 64.914 28.686 L 68.344 28.686 L 68.302 29.106 Q 67.77 29.106 67.462 29.316 Q 67.154 29.526 67.182 30.002 Q 67.182 30.072 67.203 30.254 Q 67.224 30.436 67.224 30.506 L 67.644 34.496 L 67.742 36.134 Z " fill="black" /><path d="M 72.603 38.855 L 72.603 38.855 L 72.603 38.815 Q 72.26 38.61 72.02 38.281 Q 71.78 37.953 71.78 37.434 Q 71.78 36.885 72.044 36.493 Q 72.309 36.101 72.76 35.89 Q 73.211 35.679 73.769 35.679 Q 74.289 35.679 74.617 35.792 Q 74.945 35.905 74.945 35.905 L 76.386 35.866 L 76.386 36.444 L 75.357 36.424 L 75.357 36.493 Q 75.484 36.669 75.621 36.909 Q 75.759 37.149 75.759 37.581 Q 75.759 38.071 75.499 38.428 Q 75.239 38.786 74.803 38.977 Q 74.367 39.168 73.818 39.168 Q 73.318 39.168 72.877 38.992 Q 72.809 39.119 72.716 39.354 Q 72.623 39.59 72.623 39.756 Q 72.623 39.962 72.863 40.06 Q 73.103 40.158 73.818 40.158 Q 74.347 40.158 74.798 40.182 Q 75.249 40.207 75.582 40.32 Q 75.915 40.432 76.097 40.682 Q 76.278 40.932 76.278 41.393 Q 76.278 41.922 76.008 42.289 Q 75.739 42.657 75.298 42.882 Q 74.857 43.108 74.342 43.211 Q 73.828 43.314 73.328 43.314 Q 72.613 43.314 72.221 43.137 Q 71.829 42.961 71.677 42.686 Q 71.525 42.412 71.525 42.128 Q 71.525 41.853 71.716 41.584 Q 71.907 41.314 72.329 40.922 L 72.329 40.873 Q 72.084 40.746 71.917 40.53 Q 71.75 40.315 71.75 40.109 Q 71.75 39.815 72.01 39.487 Q 72.27 39.158 72.603 38.855 Z M 72.652 40.971 L 72.652 40.971 Q 72.485 41.256 72.427 41.422 Q 72.368 41.589 72.368 41.755 Q 72.368 42.206 72.735 42.436 Q 73.103 42.667 73.877 42.667 Q 74.514 42.667 74.906 42.51 Q 75.298 42.353 75.484 42.133 Q 75.67 41.912 75.67 41.706 Q 75.67 41.442 75.499 41.295 Q 75.327 41.148 75.063 41.084 Q 74.798 41.02 74.504 41.001 Q 74.21 40.981 73.955 40.981 Q 73.887 40.981 73.848 40.981 Q 73.22 40.981 72.99 40.976 Q 72.76 40.971 72.652 40.971 Z M 73.71 36.111 L 73.71 36.111 Q 73.289 36.111 73.029 36.395 Q 72.77 36.679 72.77 37.375 Q 72.77 38.061 73.044 38.414 Q 73.318 38.766 73.818 38.766 Q 74.083 38.766 74.298 38.659 Q 74.514 38.551 74.646 38.267 Q 74.779 37.982 74.779 37.463 Q 74.779 36.797 74.489 36.454 Q 74.2 36.111 73.71 36.111 Z " fill="black" /><path d="M 77.248 39.041 L 77.248 39.041 L 77.562 39.041 Q 77.689 39.609 77.866 39.923 Q 78.042 40.236 78.321 40.359 Q 78.601 40.481 79.002 40.481 Q 79.463 40.481 79.713 40.329 Q 79.963 40.178 79.963 39.795 Q 79.963 39.541 79.84 39.369 Q 79.718 39.198 79.448 39.041 Q 79.179 38.884 78.728 38.678 Q 78.267 38.453 77.939 38.257 Q 77.611 38.061 77.439 37.796 Q 77.268 37.532 77.268 37.13 Q 77.268 36.424 77.743 36.052 Q 78.218 35.679 78.934 35.679 Q 79.365 35.679 79.664 35.787 Q 79.963 35.895 80.139 35.973 L 80.159 35.973 L 80.316 35.728 L 80.59 35.728 L 80.61 37.355 L 80.267 37.355 Q 80.08 36.601 79.747 36.341 Q 79.414 36.081 78.983 36.081 Q 78.532 36.081 78.302 36.277 Q 78.071 36.473 78.071 36.787 Q 78.071 37.042 78.228 37.208 Q 78.385 37.375 78.674 37.517 Q 78.963 37.659 79.365 37.855 Q 79.816 38.071 80.159 38.301 Q 80.502 38.531 80.698 38.82 Q 80.894 39.109 80.894 39.541 Q 80.894 40.06 80.619 40.374 Q 80.345 40.687 79.914 40.819 Q 79.483 40.952 79.012 40.952 Q 78.532 40.952 78.267 40.854 Q 78.003 40.756 77.777 40.668 L 77.738 40.668 L 77.493 40.922 L 77.268 40.922 Z " fill="black" /><path d="M 85.617 40.824 L 85.617 40.824 L 82.295 40.824 L 82.295 40.472 Q 83.001 40.472 83.231 40.329 Q 83.461 40.187 83.461 39.815 L 83.461 35.542 Q 83.461 35.278 83.383 35.16 Q 83.305 35.042 83.099 35.042 Q 82.942 35.042 82.672 35.087 Q 82.403 35.131 82.207 35.18 L 82.207 34.788 L 84.02 34.288 L 84.441 34.288 L 84.441 39.815 Q 84.441 40.187 84.691 40.329 Q 84.941 40.472 85.617 40.472 Z " fill="black" /></g></g></g><circle cx="107.99999999999999" cy="-72.0" r="2.6999999999999997" style="stroke:black;fill:black;stroke-width:2.0;stroke-dasharray:-;" /><g><g><g><path d="M 72.714 -113.39 L 72.714 -113.39 L 72.63 -112.676 L 71.412 -112.816 L 71.412 -112.774 Q 71.65 -112.508 71.783 -112.109 Q 71.916 -111.71 71.916 -111.346 Q 71.916 -110.716 71.664 -110.289 Q 71.412 -109.862 71.006 -109.603 Q 70.6 -109.344 70.11 -109.211 Q 69.62 -109.078 69.158 -109.036 Q 68.598 -108.98 68.367 -108.798 Q 68.136 -108.616 68.136 -108.42 Q 68.136 -108.168 68.416 -108.035 Q 68.696 -107.902 69.137 -107.818 Q 69.578 -107.734 70.082 -107.629 Q 70.586 -107.524 71.027 -107.342 Q 71.468 -107.16 71.748 -106.831 Q 72.028 -106.502 72.028 -105.956 Q 72.028 -105.354 71.636 -104.843 Q 71.244 -104.332 70.474 -104.017 Q 69.704 -103.702 68.584 -103.702 Q 67.576 -103.702 66.974 -103.947 Q 66.372 -104.192 66.106 -104.577 Q 65.84 -104.962 65.84 -105.382 Q 65.84 -106.054 66.358 -106.467 Q 66.876 -106.88 67.534 -107.09 L 67.534 -107.146 Q 67.352 -107.258 67.191 -107.461 Q 67.03 -107.664 67.03 -107.986 Q 67.03 -108.336 67.212 -108.546 Q 67.394 -108.756 67.681 -108.889 Q 67.968 -109.022 68.248 -109.12 L 68.248 -109.204 Q 67.702 -109.442 67.296 -109.876 Q 66.89 -110.31 66.89 -111.108 Q 66.89 -111.836 67.24 -112.389 Q 67.59 -112.942 68.199 -113.25 Q 68.808 -113.558 69.564 -113.558 Q 70.068 -113.558 70.327 -113.509 Q 70.586 -113.46 70.838 -113.39 Z M 71.02 -105.438 L 71.02 -105.438 Q 71.02 -105.858 70.67 -106.117 Q 70.32 -106.376 69.802 -106.53 Q 69.284 -106.684 68.759 -106.775 Q 68.234 -106.866 67.87 -106.936 Q 67.52 -106.712 67.226 -106.425 Q 66.932 -106.138 66.932 -105.592 Q 66.932 -105.032 67.366 -104.612 Q 67.8 -104.192 68.864 -104.192 Q 69.872 -104.192 70.446 -104.563 Q 71.02 -104.934 71.02 -105.438 Z M 70.67 -111.5 L 70.67 -111.5 Q 70.67 -112.2 70.404 -112.669 Q 70.138 -113.138 69.522 -113.138 Q 68.92 -113.138 68.528 -112.634 Q 68.136 -112.13 68.136 -111.108 Q 68.136 -110.38 68.388 -109.925 Q 68.64 -109.47 69.242 -109.47 Q 69.942 -109.47 70.306 -110.058 Q 70.67 -110.646 70.67 -111.5 Z " fill="black" /><path d="M 75.106 -107.705 L 75.106 -107.705 L 75.106 -104.99 Q 75.106 -104.696 75.164 -104.539 Q 75.223 -104.382 75.39 -104.329 Q 75.556 -104.275 75.88 -104.275 L 75.88 -103.912 L 73.41 -103.912 L 73.41 -104.275 Q 73.724 -104.275 73.881 -104.329 Q 74.037 -104.382 74.086 -104.544 Q 74.135 -104.706 74.135 -105.01 L 74.135 -107.979 Q 74.135 -108.253 74.032 -108.347 Q 73.93 -108.44 73.704 -108.44 Q 73.596 -108.44 73.513 -108.43 Q 73.43 -108.42 73.43 -108.42 L 73.43 -108.792 L 74.714 -109.028 L 75.076 -109.028 L 75.076 -108.224 L 75.145 -108.224 Q 75.556 -108.596 75.968 -108.827 Q 76.38 -109.057 76.938 -109.057 Q 77.399 -109.057 77.688 -108.822 Q 77.977 -108.587 78.134 -108.244 L 78.183 -108.244 Q 79.075 -109.057 79.898 -109.057 Q 80.564 -109.057 80.951 -108.645 Q 81.338 -108.234 81.338 -107.342 L 81.338 -105.186 Q 81.338 -104.853 81.378 -104.652 Q 81.417 -104.451 81.574 -104.363 Q 81.73 -104.275 82.083 -104.275 L 82.083 -103.912 L 79.623 -103.912 L 79.623 -104.275 Q 79.986 -104.275 80.148 -104.368 Q 80.309 -104.461 80.349 -104.662 Q 80.388 -104.863 80.388 -105.186 L 80.388 -107.224 Q 80.388 -107.842 80.138 -108.087 Q 79.888 -108.332 79.496 -108.332 Q 79.163 -108.332 78.83 -108.131 Q 78.496 -107.93 78.242 -107.734 L 78.242 -105.186 Q 78.242 -104.823 78.286 -104.623 Q 78.33 -104.422 78.501 -104.348 Q 78.673 -104.275 79.035 -104.275 L 79.035 -103.912 L 76.478 -103.912 L 76.478 -104.275 Q 76.85 -104.275 77.021 -104.348 Q 77.193 -104.422 77.242 -104.623 Q 77.291 -104.823 77.291 -105.186 L 77.291 -107.254 Q 77.291 -107.871 77.07 -108.102 Q 76.85 -108.332 76.468 -108.332 Q 76.066 -108.332 75.698 -108.116 Q 75.331 -107.901 75.106 -107.705 Z " fill="black" /><path d="M 83.338 -109.008 L 83.338 -109.008 L 83.053 -109.145 Q 83.347 -109.812 83.832 -110.15 Q 84.318 -110.488 84.925 -110.488 Q 85.709 -110.488 86.189 -110.106 Q 86.67 -109.723 86.67 -109.116 Q 86.67 -108.587 86.346 -108.263 Q 86.023 -107.94 85.543 -107.626 L 85.543 -107.577 Q 85.954 -107.469 86.302 -107.254 Q 86.65 -107.038 86.856 -106.7 Q 87.062 -106.362 87.062 -105.882 Q 87.062 -105.343 86.826 -104.946 Q 86.591 -104.549 86.189 -104.289 Q 85.788 -104.03 85.273 -103.907 Q 84.759 -103.785 84.2 -103.785 Q 83.72 -103.785 83.47 -103.868 Q 83.22 -103.951 83.127 -104.088 Q 83.034 -104.226 83.034 -104.363 Q 83.034 -104.529 83.132 -104.691 Q 83.23 -104.853 83.465 -104.853 Q 83.563 -104.853 83.666 -104.799 Q 83.769 -104.745 84.043 -104.588 Q 84.269 -104.48 84.401 -104.422 Q 84.533 -104.363 84.636 -104.343 Q 84.739 -104.324 84.876 -104.324 Q 85.17 -104.324 85.459 -104.431 Q 85.748 -104.539 85.944 -104.819 Q 86.14 -105.098 86.14 -105.607 Q 86.14 -106.058 85.89 -106.382 Q 85.641 -106.705 85.219 -106.886 Q 84.798 -107.068 84.288 -107.068 L 84.073 -107.068 L 84.073 -107.528 L 84.278 -107.528 Q 84.631 -107.528 84.964 -107.69 Q 85.298 -107.852 85.513 -108.151 Q 85.729 -108.449 85.729 -108.861 Q 85.729 -109.322 85.43 -109.557 Q 85.131 -109.792 84.67 -109.792 Q 83.818 -109.792 83.338 -109.008 Z " fill="black" /><path d="M 88.483 -102.442 L 88.483 -102.442 L 88.316 -102.765 Q 88.522 -102.854 88.737 -102.996 Q 88.953 -103.138 89.095 -103.398 Q 89.237 -103.657 89.237 -104.079 Q 89.071 -104.01 88.894 -104.01 Q 88.571 -104.01 88.434 -104.201 Q 88.296 -104.392 88.296 -104.637 Q 88.296 -104.902 88.473 -105.098 Q 88.649 -105.294 88.982 -105.294 Q 89.404 -105.294 89.624 -105.034 Q 89.845 -104.774 89.845 -104.314 Q 89.845 -103.843 89.698 -103.515 Q 89.551 -103.187 89.33 -102.976 Q 89.11 -102.765 88.879 -102.643 Q 88.649 -102.52 88.483 -102.442 Z " fill="black" /><path d="M 95.107 -105.46 L 95.107 -105.46 L 94.039 -105.46 L 94.039 -103.912 L 93.069 -103.912 L 93.069 -105.46 L 90.188 -105.46 L 90.188 -106.205 L 93.334 -110.478 L 94.039 -110.478 L 94.039 -106.264 L 95.107 -106.264 Z M 93.069 -106.264 L 93.069 -106.264 L 93.069 -109.292 L 93.01 -109.292 L 90.854 -106.323 L 90.854 -106.264 Z " fill="black" /></g></g></g><g><g><g><path d="M 161.272 -108.265 L 161.272 -108.265 L 160.824 -106.025 L 155.308 -106.025 L 155.308 -106.501 L 157.436 -108.629 Q 158.136 -109.343 158.598 -109.924 Q 159.06 -110.505 159.291 -111.093 Q 159.522 -111.681 159.522 -112.409 Q 159.522 -113.193 159.053 -113.662 Q 158.584 -114.131 157.772 -114.131 Q 157.086 -114.131 156.603 -113.837 Q 156.12 -113.543 155.728 -112.759 L 155.392 -112.899 Q 155.714 -113.921 156.414 -114.481 Q 157.114 -115.041 158.136 -115.041 Q 158.934 -115.041 159.536 -114.74 Q 160.138 -114.439 160.481 -113.9 Q 160.824 -113.361 160.824 -112.619 Q 160.824 -112.003 160.565 -111.436 Q 160.306 -110.869 159.795 -110.267 Q 159.284 -109.665 158.542 -108.909 L 156.694 -107.159 L 156.694 -107.089 L 157.674 -107.131 L 159.62 -107.131 Q 160.18 -107.131 160.404 -107.383 Q 160.628 -107.635 160.866 -108.265 Z " fill="black" /><path d="M 167.616 -109.595 L 167.616 -109.595 Q 167.616 -109.273 167.399 -109.035 Q 167.182 -108.797 166.776 -108.797 Q 166.37 -108.797 166.167 -109.028 Q 165.964 -109.259 165.964 -109.609 Q 165.964 -109.959 166.181 -110.211 Q 166.398 -110.463 166.79 -110.463 Q 167.196 -110.463 167.406 -110.204 Q 167.616 -109.945 167.616 -109.595 Z " fill="black" /><path d="M 179.813 -108.055 L 179.813 -108.055 L 180.065 -107.789 Q 179.351 -106.949 178.413 -106.41 Q 177.475 -105.871 176.145 -105.871 Q 174.885 -105.871 174.129 -106.34 Q 173.373 -106.809 173.044 -107.593 Q 172.715 -108.377 172.715 -109.301 Q 172.715 -110.771 173.163 -111.912 Q 173.611 -113.053 174.388 -113.83 Q 175.165 -114.607 176.145 -115.006 Q 177.125 -115.405 178.189 -115.405 Q 178.903 -115.405 179.302 -115.279 Q 179.701 -115.153 179.925 -115.02 Q 180.149 -114.887 180.317 -114.887 Q 180.485 -114.887 180.611 -115.027 Q 180.737 -115.167 180.905 -115.391 L 181.311 -115.391 L 180.653 -112.185 L 180.191 -112.185 Q 180.247 -113.585 179.673 -114.194 Q 179.099 -114.803 178.063 -114.803 Q 177.251 -114.803 176.537 -114.432 Q 175.823 -114.061 175.27 -113.382 Q 174.717 -112.703 174.402 -111.758 Q 174.087 -110.813 174.087 -109.651 Q 174.087 -108.251 174.752 -107.516 Q 175.417 -106.781 176.803 -106.781 Q 178.413 -106.781 179.813 -108.055 Z " fill="black" /><path d="M 182.294 -105.054 L 182.294 -105.054 L 182.294 -105.094 Q 181.951 -105.299 181.71 -105.628 Q 181.47 -105.956 181.47 -106.475 Q 181.47 -107.024 181.735 -107.416 Q 182 -107.808 182.45 -108.019 Q 182.901 -108.23 183.46 -108.23 Q 183.979 -108.23 184.308 -108.117 Q 184.636 -108.004 184.636 -108.004 L 186.076 -108.043 L 186.076 -107.465 L 185.047 -107.485 L 185.047 -107.416 Q 185.175 -107.24 185.312 -107 Q 185.449 -106.76 185.449 -106.328 Q 185.449 -105.838 185.189 -105.481 Q 184.93 -105.123 184.494 -104.932 Q 184.058 -104.741 183.509 -104.741 Q 183.009 -104.741 182.568 -104.917 Q 182.499 -104.79 182.406 -104.555 Q 182.313 -104.319 182.313 -104.153 Q 182.313 -103.947 182.553 -103.849 Q 182.793 -103.751 183.509 -103.751 Q 184.038 -103.751 184.489 -103.727 Q 184.94 -103.702 185.273 -103.589 Q 185.606 -103.477 185.787 -103.227 Q 185.969 -102.977 185.969 -102.516 Q 185.969 -101.987 185.699 -101.619 Q 185.43 -101.252 184.989 -101.027 Q 184.548 -100.801 184.033 -100.698 Q 183.519 -100.595 183.019 -100.595 Q 182.303 -100.595 181.911 -100.772 Q 181.519 -100.948 181.368 -101.223 Q 181.216 -101.497 181.216 -101.781 Q 181.216 -102.056 181.407 -102.325 Q 181.598 -102.595 182.019 -102.987 L 182.019 -103.036 Q 181.774 -103.163 181.608 -103.379 Q 181.441 -103.594 181.441 -103.8 Q 181.441 -104.094 181.701 -104.422 Q 181.96 -104.751 182.294 -105.054 Z M 182.343 -102.938 L 182.343 -102.938 Q 182.176 -102.653 182.117 -102.487 Q 182.058 -102.32 182.058 -102.154 Q 182.058 -101.703 182.426 -101.472 Q 182.793 -101.242 183.568 -101.242 Q 184.205 -101.242 184.597 -101.399 Q 184.989 -101.556 185.175 -101.776 Q 185.361 -101.997 185.361 -102.203 Q 185.361 -102.467 185.189 -102.614 Q 185.018 -102.761 184.753 -102.825 Q 184.489 -102.889 184.195 -102.908 Q 183.901 -102.928 183.646 -102.928 Q 183.577 -102.928 183.538 -102.928 Q 182.911 -102.928 182.681 -102.933 Q 182.45 -102.938 182.343 -102.938 Z M 183.401 -107.798 L 183.401 -107.798 Q 182.98 -107.798 182.72 -107.514 Q 182.46 -107.23 182.46 -106.534 Q 182.46 -105.848 182.735 -105.495 Q 183.009 -105.143 183.509 -105.143 Q 183.773 -105.143 183.989 -105.25 Q 184.205 -105.358 184.337 -105.642 Q 184.469 -105.927 184.469 -106.446 Q 184.469 -107.112 184.18 -107.455 Q 183.891 -107.798 183.401 -107.798 Z " fill="black" /><path d="M 186.939 -104.868 L 186.939 -104.868 L 187.252 -104.868 Q 187.38 -104.3 187.556 -103.986 Q 187.733 -103.673 188.012 -103.55 Q 188.291 -103.428 188.693 -103.428 Q 189.154 -103.428 189.403 -103.579 Q 189.653 -103.731 189.653 -104.114 Q 189.653 -104.368 189.531 -104.54 Q 189.408 -104.711 189.139 -104.868 Q 188.869 -105.025 188.419 -105.231 Q 187.958 -105.456 187.63 -105.652 Q 187.301 -105.848 187.13 -106.113 Q 186.958 -106.377 186.958 -106.779 Q 186.958 -107.485 187.434 -107.857 Q 187.909 -108.23 188.624 -108.23 Q 189.056 -108.23 189.355 -108.122 Q 189.653 -108.014 189.83 -107.936 L 189.849 -107.936 L 190.006 -108.181 L 190.281 -108.181 L 190.3 -106.554 L 189.957 -106.554 Q 189.771 -107.308 189.438 -107.568 Q 189.105 -107.828 188.673 -107.828 Q 188.223 -107.828 187.992 -107.632 Q 187.762 -107.436 187.762 -107.122 Q 187.762 -106.867 187.919 -106.701 Q 188.076 -106.534 188.365 -106.392 Q 188.654 -106.25 189.056 -106.054 Q 189.506 -105.838 189.849 -105.608 Q 190.192 -105.378 190.388 -105.089 Q 190.584 -104.8 190.584 -104.368 Q 190.584 -103.849 190.31 -103.535 Q 190.036 -103.222 189.604 -103.09 Q 189.173 -102.957 188.703 -102.957 Q 188.223 -102.957 187.958 -103.055 Q 187.693 -103.153 187.468 -103.241 L 187.429 -103.241 L 187.184 -102.987 L 186.958 -102.987 Z " fill="black" /><path d="M 191.898 -108.181 L 191.898 -108.181 L 191.613 -108.318 Q 191.907 -108.984 192.392 -109.322 Q 192.878 -109.66 193.485 -109.66 Q 194.269 -109.66 194.749 -109.278 Q 195.23 -108.896 195.23 -108.288 Q 195.23 -107.759 194.906 -107.436 Q 194.583 -107.112 194.103 -106.799 L 194.103 -106.75 Q 194.514 -106.642 194.862 -106.426 Q 195.21 -106.211 195.416 -105.873 Q 195.622 -105.535 195.622 -105.054 Q 195.622 -104.515 195.386 -104.118 Q 195.151 -103.722 194.749 -103.462 Q 194.348 -103.202 193.833 -103.08 Q 193.319 -102.957 192.76 -102.957 Q 192.28 -102.957 192.03 -103.04 Q 191.78 -103.124 191.687 -103.261 Q 191.594 -103.398 191.594 -103.535 Q 191.594 -103.702 191.692 -103.864 Q 191.79 -104.025 192.025 -104.025 Q 192.123 -104.025 192.226 -103.971 Q 192.329 -103.918 192.603 -103.761 Q 192.829 -103.653 192.961 -103.594 Q 193.093 -103.535 193.196 -103.516 Q 193.299 -103.496 193.436 -103.496 Q 193.73 -103.496 194.019 -103.604 Q 194.308 -103.712 194.504 -103.991 Q 194.7 -104.27 194.7 -104.78 Q 194.7 -105.231 194.451 -105.554 Q 194.201 -105.878 193.779 -106.059 Q 193.358 -106.24 192.848 -106.24 L 192.633 -106.24 L 192.633 -106.701 L 192.838 -106.701 Q 193.191 -106.701 193.524 -106.862 Q 193.858 -107.024 194.073 -107.323 Q 194.289 -107.622 194.289 -108.034 Q 194.289 -108.494 193.99 -108.729 Q 193.691 -108.965 193.23 -108.965 Q 192.378 -108.965 191.898 -108.181 Z " fill="black" /><path d="M 197.043 -101.615 L 197.043 -101.615 L 196.876 -101.938 Q 197.082 -102.026 197.297 -102.168 Q 197.513 -102.31 197.655 -102.57 Q 197.797 -102.83 197.797 -103.251 Q 197.631 -103.183 197.454 -103.183 Q 197.131 -103.183 196.994 -103.374 Q 196.856 -103.565 196.856 -103.81 Q 196.856 -104.074 197.033 -104.27 Q 197.209 -104.466 197.542 -104.466 Q 197.964 -104.466 198.184 -104.207 Q 198.405 -103.947 198.405 -103.486 Q 198.405 -103.016 198.258 -102.688 Q 198.111 -102.359 197.89 -102.149 Q 197.67 -101.938 197.439 -101.816 Q 197.209 -101.693 197.043 -101.615 Z " fill="black" /><path d="M 203.667 -104.633 L 203.667 -104.633 L 202.599 -104.633 L 202.599 -103.085 L 201.629 -103.085 L 201.629 -104.633 L 198.748 -104.633 L 198.748 -105.378 L 201.894 -109.651 L 202.599 -109.651 L 202.599 -105.437 L 203.667 -105.437 Z M 201.629 -105.437 L 201.629 -105.437 L 201.629 -108.465 L 201.57 -108.465 L 199.414 -105.495 L 199.414 -105.437 Z " fill="black" /></g></g></g><g><g><g><path d="M 293.669 31.346 L 293.669 31.346 L 293.585 32.06 L 292.367 31.92 L 292.367 31.962 Q 292.605 32.228 292.738 32.627 Q 292.871 33.026 292.871 33.39 Q 292.871 34.02 292.619 34.447 Q 292.367 34.874 291.961 35.133 Q 291.555 35.392 291.065 35.525 Q 290.575 35.658 290.113 35.7 Q 289.553 35.756 289.322 35.938 Q 289.091 36.12 289.091 36.316 Q 289.091 36.568 289.371 36.701 Q 289.651 36.834 290.092 36.918 Q 290.533 37.002 291.037 37.107 Q 291.541 37.212 291.982 37.394 Q 292.423 37.576 292.703 37.905 Q 292.983 38.234 292.983 38.78 Q 292.983 39.382 292.591 39.893 Q 292.199 40.404 291.429 40.719 Q 290.659 41.034 289.539 41.034 Q 288.531 41.034 287.929 40.789 Q 287.327 40.544 287.061 40.159 Q 286.795 39.774 286.795 39.354 Q 286.795 38.682 287.313 38.269 Q 287.831 37.856 288.489 37.646 L 288.489 37.59 Q 288.307 37.478 288.146 37.275 Q 287.985 37.072 287.985 36.75 Q 287.985 36.4 288.167 36.19 Q 288.349 35.98 288.636 35.847 Q 288.923 35.714 289.203 35.616 L 289.203 35.532 Q 288.657 35.294 288.251 34.86 Q 287.845 34.426 287.845 33.628 Q 287.845 32.9 288.195 32.347 Q 288.545 31.794 289.154 31.486 Q 289.763 31.178 290.519 31.178 Q 291.023 31.178 291.282 31.227 Q 291.541 31.276 291.793 31.346 Z M 291.975 39.298 L 291.975 39.298 Q 291.975 38.878 291.625 38.619 Q 291.275 38.36 290.757 38.206 Q 290.239 38.052 289.714 37.961 Q 289.189 37.87 288.825 37.8 Q 288.475 38.024 288.181 38.311 Q 287.887 38.598 287.887 39.144 Q 287.887 39.704 288.321 40.124 Q 288.755 40.544 289.819 40.544 Q 290.827 40.544 291.401 40.173 Q 291.975 39.802 291.975 39.298 Z M 291.625 33.236 L 291.625 33.236 Q 291.625 32.536 291.359 32.067 Q 291.093 31.598 290.477 31.598 Q 289.875 31.598 289.483 32.102 Q 289.091 32.606 289.091 33.628 Q 289.091 34.356 289.343 34.811 Q 289.595 35.266 290.197 35.266 Q 290.897 35.266 291.261 34.678 Q 291.625 34.09 291.625 33.236 Z " fill="black" /><path d="M 296.06 37.032 L 296.06 37.032 L 296.06 39.746 Q 296.06 40.04 296.119 40.197 Q 296.177 40.354 296.344 40.408 Q 296.511 40.462 296.834 40.462 L 296.834 40.824 L 294.364 40.824 L 294.364 40.462 Q 294.678 40.462 294.835 40.408 Q 294.992 40.354 295.041 40.192 Q 295.09 40.031 295.09 39.727 L 295.09 36.757 Q 295.09 36.483 294.987 36.39 Q 294.884 36.297 294.658 36.297 Q 294.551 36.297 294.467 36.307 Q 294.384 36.316 294.384 36.316 L 294.384 35.944 L 295.668 35.709 L 296.03 35.709 L 296.03 36.512 L 296.099 36.512 Q 296.511 36.14 296.922 35.91 Q 297.334 35.679 297.892 35.679 Q 298.353 35.679 298.642 35.915 Q 298.931 36.15 299.088 36.493 L 299.137 36.493 Q 300.029 35.679 300.852 35.679 Q 301.518 35.679 301.906 36.091 Q 302.293 36.503 302.293 37.394 L 302.293 39.55 Q 302.293 39.884 302.332 40.084 Q 302.371 40.285 302.528 40.374 Q 302.685 40.462 303.037 40.462 L 303.037 40.824 L 300.578 40.824 L 300.578 40.462 Q 300.94 40.462 301.102 40.369 Q 301.264 40.276 301.303 40.075 Q 301.342 39.874 301.342 39.55 L 301.342 37.512 Q 301.342 36.895 301.092 36.65 Q 300.842 36.405 300.45 36.405 Q 300.117 36.405 299.784 36.605 Q 299.451 36.806 299.196 37.002 L 299.196 39.55 Q 299.196 39.913 299.24 40.114 Q 299.284 40.315 299.456 40.388 Q 299.627 40.462 299.99 40.462 L 299.99 40.824 L 297.432 40.824 L 297.432 40.462 Q 297.804 40.462 297.976 40.388 Q 298.147 40.315 298.196 40.114 Q 298.245 39.913 298.245 39.55 L 298.245 37.483 Q 298.245 36.865 298.025 36.635 Q 297.804 36.405 297.422 36.405 Q 297.02 36.405 296.653 36.62 Q 296.285 36.836 296.06 37.032 Z " fill="black" /><path d="M 307.702 40.824 L 307.702 40.824 L 304.38 40.824 L 304.38 40.472 Q 305.086 40.472 305.316 40.329 Q 305.546 40.187 305.546 39.815 L 305.546 35.542 Q 305.546 35.278 305.468 35.16 Q 305.389 35.042 305.184 35.042 Q 305.027 35.042 304.757 35.087 Q 304.488 35.131 304.292 35.18 L 304.292 34.788 L 306.105 34.288 L 306.526 34.288 L 306.526 39.815 Q 306.526 40.187 306.776 40.329 Q 307.026 40.472 307.702 40.472 Z " fill="black" /><path d="M 309.29 42.294 L 309.29 42.294 L 309.123 41.971 Q 309.329 41.883 309.545 41.741 Q 309.76 41.599 309.902 41.339 Q 310.044 41.079 310.044 40.658 Q 309.878 40.726 309.701 40.726 Q 309.378 40.726 309.241 40.535 Q 309.104 40.344 309.104 40.099 Q 309.104 39.835 309.28 39.639 Q 309.456 39.443 309.79 39.443 Q 310.211 39.443 310.432 39.702 Q 310.652 39.962 310.652 40.423 Q 310.652 40.893 310.505 41.221 Q 310.358 41.55 310.138 41.76 Q 309.917 41.971 309.687 42.093 Q 309.456 42.216 309.29 42.294 Z " fill="black" /><path d="M 315.444 39.119 L 315.444 39.119 L 315.111 40.824 L 311.093 40.824 L 311.093 40.344 L 312.485 38.933 Q 313.033 38.384 313.391 37.963 Q 313.749 37.541 313.925 37.115 Q 314.102 36.689 314.102 36.14 Q 314.102 35.621 313.783 35.282 Q 313.465 34.944 312.886 34.944 Q 312.357 34.944 312 35.155 Q 311.642 35.366 311.367 35.846 L 311.103 35.719 Q 311.348 35.033 311.862 34.641 Q 312.377 34.249 313.131 34.249 Q 313.719 34.249 314.17 34.459 Q 314.621 34.67 314.876 35.062 Q 315.131 35.454 315.131 36.013 Q 315.131 36.493 314.915 36.914 Q 314.699 37.336 314.303 37.777 Q 313.906 38.218 313.357 38.757 L 312.132 39.942 L 312.132 40.011 L 312.896 39.972 L 314.17 39.972 Q 314.454 39.972 314.606 39.893 Q 314.758 39.815 314.866 39.624 Q 314.974 39.433 315.101 39.119 Z " fill="black" /><path d="M 319.665 36.134 L 319.665 36.134 L 323.487 30.394 Q 323.683 30.114 323.802 29.876 Q 323.921 29.638 323.921 29.47 Q 323.921 29.26 323.739 29.183 Q 323.557 29.106 323.081 29.106 L 323.109 28.686 L 326.133 28.686 L 326.105 29.106 Q 325.727 29.106 325.461 29.218 Q 325.195 29.33 324.922 29.645 Q 324.649 29.96 324.215 30.604 L 319.077 37.954 L 318.615 37.954 L 317.831 30.38 Q 317.747 29.68 317.523 29.393 Q 317.299 29.106 316.739 29.106 L 316.767 28.686 L 320.197 28.686 L 320.155 29.106 Q 319.623 29.106 319.315 29.316 Q 319.007 29.526 319.035 30.002 Q 319.035 30.072 319.056 30.254 Q 319.077 30.436 319.077 30.506 L 319.497 34.496 L 319.595 36.134 Z " fill="black" /><path d="M 324.456 38.855 L 324.456 38.855 L 324.456 38.815 Q 324.113 38.61 323.873 38.281 Q 323.633 37.953 323.633 37.434 Q 323.633 36.885 323.897 36.493 Q 324.162 36.101 324.613 35.89 Q 325.064 35.679 325.622 35.679 Q 326.142 35.679 326.47 35.792 Q 326.798 35.905 326.798 35.905 L 328.239 35.866 L 328.239 36.444 L 327.21 36.424 L 327.21 36.493 Q 327.337 36.669 327.474 36.909 Q 327.612 37.149 327.612 37.581 Q 327.612 38.071 327.352 38.428 Q 327.092 38.786 326.656 38.977 Q 326.22 39.168 325.671 39.168 Q 325.171 39.168 324.73 38.992 Q 324.662 39.119 324.569 39.354 Q 324.476 39.59 324.476 39.756 Q 324.476 39.962 324.716 40.06 Q 324.956 40.158 325.671 40.158 Q 326.2 40.158 326.651 40.182 Q 327.102 40.207 327.435 40.32 Q 327.768 40.432 327.95 40.682 Q 328.131 40.932 328.131 41.393 Q 328.131 41.922 327.862 42.289 Q 327.592 42.657 327.151 42.882 Q 326.71 43.108 326.196 43.211 Q 325.681 43.314 325.181 43.314 Q 324.466 43.314 324.074 43.137 Q 323.682 42.961 323.53 42.686 Q 323.378 42.412 323.378 42.128 Q 323.378 41.853 323.569 41.584 Q 323.76 41.314 324.182 40.922 L 324.182 40.873 Q 323.937 40.746 323.77 40.53 Q 323.603 40.315 323.603 40.109 Q 323.603 39.815 323.863 39.487 Q 324.123 39.158 324.456 38.855 Z M 324.505 40.971 L 324.505 40.971 Q 324.338 41.256 324.28 41.422 Q 324.221 41.589 324.221 41.755 Q 324.221 42.206 324.588 42.436 Q 324.956 42.667 325.73 42.667 Q 326.367 42.667 326.759 42.51 Q 327.151 42.353 327.337 42.133 Q 327.523 41.912 327.523 41.706 Q 327.523 41.442 327.352 41.295 Q 327.18 41.148 326.916 41.084 Q 326.651 41.02 326.357 41.001 Q 326.063 40.981 325.808 40.981 Q 325.74 40.981 325.701 40.981 Q 325.073 40.981 324.843 40.976 Q 324.613 40.971 324.505 40.971 Z M 325.563 36.111 L 325.563 36.111 Q 325.142 36.111 324.882 36.395 Q 324.623 36.679 324.623 37.375 Q 324.623 38.061 324.897 38.414 Q 325.171 38.766 325.671 38.766 Q 325.936 38.766 326.151 38.659 Q 326.367 38.551 326.499 38.267 Q 326.632 37.982 326.632 37.463 Q 326.632 36.797 326.343 36.454 Q 326.053 36.111 325.563 36.111 Z " fill="black" /><path d="M 329.101 39.041 L 329.101 39.041 L 329.415 39.041 Q 329.542 39.609 329.719 39.923 Q 329.895 40.236 330.174 40.359 Q 330.454 40.481 330.855 40.481 Q 331.316 40.481 331.566 40.329 Q 331.816 40.178 331.816 39.795 Q 331.816 39.541 331.693 39.369 Q 331.571 39.198 331.301 39.041 Q 331.032 38.884 330.581 38.678 Q 330.12 38.453 329.792 38.257 Q 329.464 38.061 329.292 37.796 Q 329.121 37.532 329.121 37.13 Q 329.121 36.424 329.596 36.052 Q 330.071 35.679 330.787 35.679 Q 331.218 35.679 331.517 35.787 Q 331.816 35.895 331.992 35.973 L 332.012 35.973 L 332.169 35.728 L 332.443 35.728 L 332.463 37.355 L 332.12 37.355 Q 331.933 36.601 331.6 36.341 Q 331.267 36.081 330.836 36.081 Q 330.385 36.081 330.155 36.277 Q 329.924 36.473 329.924 36.787 Q 329.924 37.042 330.081 37.208 Q 330.238 37.375 330.527 37.517 Q 330.816 37.659 331.218 37.855 Q 331.669 38.071 332.012 38.301 Q 332.355 38.531 332.551 38.82 Q 332.747 39.109 332.747 39.541 Q 332.747 40.06 332.472 40.374 Q 332.198 40.687 331.767 40.819 Q 331.336 40.952 330.865 40.952 Q 330.385 40.952 330.12 40.854 Q 329.856 40.756 329.63 40.668 L 329.591 40.668 L 329.346 40.922 L 329.121 40.922 Z " fill="black" /><path d="M 338.029 39.119 L 338.029 39.119 L 337.696 40.824 L 333.678 40.824 L 333.678 40.344 L 335.069 38.933 Q 335.618 38.384 335.976 37.963 Q 336.334 37.541 336.51 37.115 Q 336.686 36.689 336.686 36.14 Q 336.686 35.621 336.368 35.282 Q 336.049 34.944 335.471 34.944 Q 334.942 34.944 334.584 35.155 Q 334.227 35.366 333.952 35.846 L 333.688 35.719 Q 333.933 35.033 334.447 34.641 Q 334.962 34.249 335.716 34.249 Q 336.304 34.249 336.755 34.459 Q 337.206 34.67 337.461 35.062 Q 337.715 35.454 337.715 36.013 Q 337.715 36.493 337.5 36.914 Q 337.284 37.336 336.887 37.777 Q 336.49 38.218 335.942 38.757 L 334.717 39.942 L 334.717 40.011 L 335.481 39.972 L 336.755 39.972 Q 337.039 39.972 337.191 39.893 Q 337.343 39.815 337.451 39.624 Q 337.559 39.433 337.686 39.119 Z " fill="black" /></g></g></g><circle cx="360.0" cy="-36.0" r="2.6999999999999997" style="stroke:black;fill:black;stroke-width:2.0;stroke-dasharray:-;" /><g><g><g><path d="M 293.13 -112.654 L 293.13 -112.654 L 293.046 -111.94 L 291.828 -112.08 L 291.828 -112.038 Q 292.066 -111.772 292.199 -111.373 Q 292.332 -110.974 292.332 -110.61 Q 292.332 -109.98 292.08 -109.553 Q 291.828 -109.126 291.422 -108.867 Q 291.016 -108.608 290.526 -108.475 Q 290.036 -108.342 289.574 -108.3 Q 289.014 -108.244 288.783 -108.062 Q 288.552 -107.88 288.552 -107.684 Q 288.552 -107.432 288.832 -107.299 Q 289.112 -107.166 289.553 -107.082 Q 289.994 -106.998 290.498 -106.893 Q 291.002 -106.788 291.443 -106.606 Q 291.884 -106.424 292.164 -106.095 Q 292.444 -105.766 292.444 -105.22 Q 292.444 -104.618 292.052 -104.107 Q 291.66 -103.596 290.89 -103.281 Q 290.12 -102.966 289 -102.966 Q 287.992 -102.966 287.39 -103.211 Q 286.788 -103.456 286.522 -103.841 Q 286.256 -104.226 286.256 -104.646 Q 286.256 -105.318 286.774 -105.731 Q 287.292 -106.144 287.95 -106.354 L 287.95 -106.41 Q 287.768 -106.522 287.607 -106.725 Q 287.446 -106.928 287.446 -107.25 Q 287.446 -107.6 287.628 -107.81 Q 287.81 -108.02 288.097 -108.153 Q 288.384 -108.286 288.664 -108.384 L 288.664 -108.468 Q 288.118 -108.706 287.712 -109.14 Q 287.306 -109.574 287.306 -110.372 Q 287.306 -111.1 287.656 -111.653 Q 288.006 -112.206 288.615 -112.514 Q 289.224 -112.822 289.98 -112.822 Q 290.484 -112.822 290.743 -112.773 Q 291.002 -112.724 291.254 -112.654 Z M 291.436 -104.702 L 291.436 -104.702 Q 291.436 -105.122 291.086 -105.381 Q 290.736 -105.64 290.218 -105.794 Q 289.7 -105.948 289.175 -106.039 Q 288.65 -106.13 288.286 -106.2 Q 287.936 -105.976 287.642 -105.689 Q 287.348 -105.402 287.348 -104.856 Q 287.348 -104.296 287.782 -103.876 Q 288.216 -103.456 289.28 -103.456 Q 290.288 -103.456 290.862 -103.827 Q 291.436 -104.198 291.436 -104.702 Z M 291.086 -110.764 L 291.086 -110.764 Q 291.086 -111.464 290.82 -111.933 Q 290.554 -112.402 289.938 -112.402 Q 289.336 -112.402 288.944 -111.898 Q 288.552 -111.394 288.552 -110.372 Q 288.552 -109.644 288.804 -109.189 Q 289.056 -108.734 289.658 -108.734 Q 290.358 -108.734 290.722 -109.322 Q 291.086 -109.91 291.086 -110.764 Z " fill="black" /><path d="M 295.521 -106.968 L 295.521 -106.968 L 295.521 -104.254 Q 295.521 -103.96 295.58 -103.803 Q 295.638 -103.646 295.805 -103.592 Q 295.972 -103.538 296.295 -103.538 L 296.295 -103.176 L 293.825 -103.176 L 293.825 -103.538 Q 294.139 -103.538 294.296 -103.592 Q 294.453 -103.646 294.502 -103.808 Q 294.551 -103.969 294.551 -104.273 L 294.551 -107.243 Q 294.551 -107.517 294.448 -107.61 Q 294.345 -107.703 294.119 -107.703 Q 294.012 -107.703 293.928 -107.693 Q 293.845 -107.684 293.845 -107.684 L 293.845 -108.056 L 295.129 -108.291 L 295.491 -108.291 L 295.491 -107.488 L 295.56 -107.488 Q 295.972 -107.86 296.383 -108.09 Q 296.795 -108.321 297.353 -108.321 Q 297.814 -108.321 298.103 -108.085 Q 298.392 -107.85 298.549 -107.507 L 298.598 -107.507 Q 299.49 -108.321 300.313 -108.321 Q 300.979 -108.321 301.367 -107.909 Q 301.754 -107.497 301.754 -106.606 L 301.754 -104.45 Q 301.754 -104.116 301.793 -103.916 Q 301.832 -103.715 301.989 -103.626 Q 302.146 -103.538 302.498 -103.538 L 302.498 -103.176 L 300.039 -103.176 L 300.039 -103.538 Q 300.401 -103.538 300.563 -103.631 Q 300.725 -103.724 300.764 -103.925 Q 300.803 -104.126 300.803 -104.45 L 300.803 -106.488 Q 300.803 -107.105 300.553 -107.35 Q 300.303 -107.595 299.911 -107.595 Q 299.578 -107.595 299.245 -107.395 Q 298.912 -107.194 298.657 -106.998 L 298.657 -104.45 Q 298.657 -104.087 298.701 -103.886 Q 298.745 -103.685 298.916 -103.612 Q 299.088 -103.538 299.451 -103.538 L 299.451 -103.176 L 296.893 -103.176 L 296.893 -103.538 Q 297.265 -103.538 297.437 -103.612 Q 297.608 -103.685 297.657 -103.886 Q 297.706 -104.087 297.706 -104.45 L 297.706 -106.517 Q 297.706 -107.135 297.486 -107.365 Q 297.265 -107.595 296.883 -107.595 Q 296.481 -107.595 296.114 -107.38 Q 295.746 -107.164 295.521 -106.968 Z " fill="black" /><path d="M 303.753 -108.272 L 303.753 -108.272 L 303.469 -108.409 Q 303.763 -109.075 304.248 -109.413 Q 304.733 -109.751 305.34 -109.751 Q 306.124 -109.751 306.605 -109.369 Q 307.085 -108.987 307.085 -108.379 Q 307.085 -107.85 306.761 -107.527 Q 306.438 -107.203 305.958 -106.89 L 305.958 -106.841 Q 306.369 -106.733 306.717 -106.517 Q 307.065 -106.302 307.271 -105.964 Q 307.477 -105.626 307.477 -105.145 Q 307.477 -104.606 307.242 -104.21 Q 307.006 -103.813 306.605 -103.553 Q 306.203 -103.293 305.688 -103.171 Q 305.174 -103.048 304.615 -103.048 Q 304.135 -103.048 303.885 -103.132 Q 303.635 -103.215 303.542 -103.352 Q 303.449 -103.489 303.449 -103.626 Q 303.449 -103.793 303.547 -103.955 Q 303.645 -104.116 303.88 -104.116 Q 303.978 -104.116 304.081 -104.062 Q 304.184 -104.009 304.458 -103.852 Q 304.684 -103.744 304.816 -103.685 Q 304.948 -103.626 305.051 -103.607 Q 305.154 -103.587 305.291 -103.587 Q 305.585 -103.587 305.875 -103.695 Q 306.164 -103.803 306.36 -104.082 Q 306.556 -104.361 306.556 -104.871 Q 306.556 -105.322 306.306 -105.645 Q 306.056 -105.969 305.634 -106.15 Q 305.213 -106.331 304.703 -106.331 L 304.488 -106.331 L 304.488 -106.792 L 304.694 -106.792 Q 305.046 -106.792 305.38 -106.954 Q 305.713 -107.115 305.928 -107.414 Q 306.144 -107.713 306.144 -108.125 Q 306.144 -108.585 305.845 -108.82 Q 305.546 -109.056 305.086 -109.056 Q 304.233 -109.056 303.753 -108.272 Z " fill="black" /><path d="M 308.898 -101.706 L 308.898 -101.706 L 308.731 -102.029 Q 308.937 -102.117 309.153 -102.259 Q 309.368 -102.401 309.51 -102.661 Q 309.652 -102.921 309.652 -103.342 Q 309.486 -103.274 309.309 -103.274 Q 308.986 -103.274 308.849 -103.465 Q 308.712 -103.656 308.712 -103.901 Q 308.712 -104.165 308.888 -104.361 Q 309.064 -104.557 309.398 -104.557 Q 309.819 -104.557 310.039 -104.298 Q 310.26 -104.038 310.26 -103.577 Q 310.26 -103.107 310.113 -102.779 Q 309.966 -102.45 309.745 -102.24 Q 309.525 -102.029 309.295 -101.907 Q 309.064 -101.784 308.898 -101.706 Z " fill="black" /><path d="M 315.523 -104.724 L 315.523 -104.724 L 314.454 -104.724 L 314.454 -103.176 L 313.484 -103.176 L 313.484 -104.724 L 310.603 -104.724 L 310.603 -105.469 L 313.749 -109.742 L 314.454 -109.742 L 314.454 -105.528 L 315.523 -105.528 Z M 313.484 -105.528 L 313.484 -105.528 L 313.484 -108.556 L 313.425 -108.556 L 311.269 -105.586 L 311.269 -105.528 Z " fill="black" /><path d="M 319.665 -107.866 L 319.665 -107.866 L 323.487 -113.606 Q 323.683 -113.886 323.802 -114.124 Q 323.921 -114.362 323.921 -114.53 Q 323.921 -114.74 323.739 -114.817 Q 323.557 -114.894 323.081 -114.894 L 323.109 -115.314 L 326.133 -115.314 L 326.105 -114.894 Q 325.727 -114.894 325.461 -114.782 Q 325.195 -114.67 324.922 -114.355 Q 324.649 -114.04 324.215 -113.396 L 319.077 -106.046 L 318.615 -106.046 L 317.831 -113.62 Q 317.747 -114.32 317.523 -114.607 Q 317.299 -114.894 316.739 -114.894 L 316.767 -115.314 L 320.197 -115.314 L 320.155 -114.894 Q 319.623 -114.894 319.315 -114.684 Q 319.007 -114.474 319.035 -113.998 Q 319.035 -113.928 319.056 -113.746 Q 319.077 -113.564 319.077 -113.494 L 319.497 -109.504 L 319.595 -107.866 Z " fill="black" /><path d="M 324.456 -105.145 L 324.456 -105.145 L 324.456 -105.185 Q 324.113 -105.39 323.873 -105.719 Q 323.633 -106.047 323.633 -106.566 Q 323.633 -107.115 323.897 -107.507 Q 324.162 -107.899 324.613 -108.11 Q 325.064 -108.321 325.622 -108.321 Q 326.142 -108.321 326.47 -108.208 Q 326.798 -108.095 326.798 -108.095 L 328.239 -108.134 L 328.239 -107.556 L 327.21 -107.576 L 327.21 -107.507 Q 327.337 -107.331 327.474 -107.091 Q 327.612 -106.851 327.612 -106.419 Q 327.612 -105.929 327.352 -105.572 Q 327.092 -105.214 326.656 -105.023 Q 326.22 -104.832 325.671 -104.832 Q 325.171 -104.832 324.73 -105.008 Q 324.662 -104.881 324.569 -104.646 Q 324.476 -104.41 324.476 -104.244 Q 324.476 -104.038 324.716 -103.94 Q 324.956 -103.842 325.671 -103.842 Q 326.2 -103.842 326.651 -103.818 Q 327.102 -103.793 327.435 -103.68 Q 327.768 -103.568 327.95 -103.318 Q 328.131 -103.068 328.131 -102.607 Q 328.131 -102.078 327.862 -101.71 Q 327.592 -101.343 327.151 -101.118 Q 326.71 -100.892 326.196 -100.789 Q 325.681 -100.686 325.181 -100.686 Q 324.466 -100.686 324.074 -100.863 Q 323.682 -101.039 323.53 -101.314 Q 323.378 -101.588 323.378 -101.872 Q 323.378 -102.147 323.569 -102.416 Q 323.76 -102.686 324.182 -103.078 L 324.182 -103.127 Q 323.937 -103.254 323.77 -103.47 Q 323.603 -103.685 323.603 -103.891 Q 323.603 -104.185 323.863 -104.513 Q 324.123 -104.842 324.456 -105.145 Z M 324.505 -103.029 L 324.505 -103.029 Q 324.338 -102.744 324.28 -102.578 Q 324.221 -102.411 324.221 -102.245 Q 324.221 -101.794 324.588 -101.564 Q 324.956 -101.333 325.73 -101.333 Q 326.367 -101.333 326.759 -101.49 Q 327.151 -101.647 327.337 -101.867 Q 327.523 -102.088 327.523 -102.294 Q 327.523 -102.558 327.352 -102.705 Q 327.18 -102.852 326.916 -102.916 Q 326.651 -102.98 326.357 -102.999 Q 326.063 -103.019 325.808 -103.019 Q 325.74 -103.019 325.701 -103.019 Q 325.073 -103.019 324.843 -103.024 Q 324.613 -103.029 324.505 -103.029 Z M 325.563 -107.889 L 325.563 -107.889 Q 325.142 -107.889 324.882 -107.605 Q 324.623 -107.321 324.623 -106.625 Q 324.623 -105.939 324.897 -105.586 Q 325.171 -105.234 325.671 -105.234 Q 325.936 -105.234 326.151 -105.341 Q 326.367 -105.449 326.499 -105.733 Q 326.632 -106.018 326.632 -106.537 Q 326.632 -107.203 326.343 -107.546 Q 326.053 -107.889 325.563 -107.889 Z " fill="black" /><path d="M 329.101 -104.959 L 329.101 -104.959 L 329.415 -104.959 Q 329.542 -104.391 329.719 -104.077 Q 329.895 -103.764 330.174 -103.641 Q 330.454 -103.519 330.855 -103.519 Q 331.316 -103.519 331.566 -103.671 Q 331.816 -103.822 331.816 -104.205 Q 331.816 -104.459 331.693 -104.631 Q 331.571 -104.802 331.301 -104.959 Q 331.032 -105.116 330.581 -105.322 Q 330.12 -105.547 329.792 -105.743 Q 329.464 -105.939 329.292 -106.204 Q 329.121 -106.468 329.121 -106.87 Q 329.121 -107.576 329.596 -107.948 Q 330.071 -108.321 330.787 -108.321 Q 331.218 -108.321 331.517 -108.213 Q 331.816 -108.105 331.992 -108.027 L 332.012 -108.027 L 332.169 -108.272 L 332.443 -108.272 L 332.463 -106.645 L 332.12 -106.645 Q 331.933 -107.399 331.6 -107.659 Q 331.267 -107.919 330.836 -107.919 Q 330.385 -107.919 330.155 -107.723 Q 329.924 -107.527 329.924 -107.213 Q 329.924 -106.958 330.081 -106.792 Q 330.238 -106.625 330.527 -106.483 Q 330.816 -106.341 331.218 -106.145 Q 331.669 -105.929 332.012 -105.699 Q 332.355 -105.469 332.551 -105.18 Q 332.747 -104.891 332.747 -104.459 Q 332.747 -103.94 332.472 -103.626 Q 332.198 -103.313 331.767 -103.181 Q 331.336 -103.048 330.865 -103.048 Q 330.385 -103.048 330.12 -103.146 Q 329.856 -103.244 329.63 -103.332 L 329.591 -103.332 L 329.346 -103.078 L 329.121 -103.078 Z " fill="black" /><path d="M 334.06 -108.272 L 334.06 -108.272 L 333.776 -108.409 Q 334.07 -109.075 334.555 -109.413 Q 335.04 -109.751 335.648 -109.751 Q 336.432 -109.751 336.912 -109.369 Q 337.392 -108.987 337.392 -108.379 Q 337.392 -107.85 337.069 -107.527 Q 336.745 -107.203 336.265 -106.89 L 336.265 -106.841 Q 336.677 -106.733 337.024 -106.517 Q 337.372 -106.302 337.578 -105.964 Q 337.784 -105.626 337.784 -105.145 Q 337.784 -104.606 337.549 -104.21 Q 337.314 -103.813 336.912 -103.553 Q 336.51 -103.293 335.995 -103.171 Q 335.481 -103.048 334.922 -103.048 Q 334.442 -103.048 334.192 -103.132 Q 333.942 -103.215 333.849 -103.352 Q 333.756 -103.489 333.756 -103.626 Q 333.756 -103.793 333.854 -103.955 Q 333.952 -104.116 334.187 -104.116 Q 334.285 -104.116 334.388 -104.062 Q 334.491 -104.009 334.766 -103.852 Q 334.991 -103.744 335.123 -103.685 Q 335.256 -103.626 335.358 -103.607 Q 335.461 -103.587 335.599 -103.587 Q 335.893 -103.587 336.182 -103.695 Q 336.471 -103.803 336.667 -104.082 Q 336.863 -104.361 336.863 -104.871 Q 336.863 -105.322 336.613 -105.645 Q 336.363 -105.969 335.942 -106.15 Q 335.52 -106.331 335.011 -106.331 L 334.795 -106.331 L 334.795 -106.792 L 335.001 -106.792 Q 335.354 -106.792 335.687 -106.954 Q 336.02 -107.115 336.236 -107.414 Q 336.451 -107.713 336.451 -108.125 Q 336.451 -108.585 336.152 -108.82 Q 335.853 -109.056 335.393 -109.056 Q 334.54 -109.056 334.06 -108.272 Z " fill="black" /></g></g></g><circle cx="576.0" cy="-36.0" r="2.6999999999999997" style="stroke:black;fill:black;stroke-width:2.0;stroke-dasharray:-;" /><g><g><g><path d="M 461.873 -47.108 L 461.873 -47.108 L 465.695 -52.848 Q 465.891 -53.128 466.01 -53.366 Q 466.129 -53.604 466.129 -53.772 Q 466.129 -53.982 465.947 -54.059 Q 465.765 -54.136 465.289 -54.136 L 465.317 -54.556 L 468.341 -54.556 L 468.313 -54.136 Q 467.935 -54.136 467.669 -54.024 Q 467.403 -53.912 467.13 -53.597 Q 466.857 -53.282 466.423 -52.638 L 461.285 -45.288 L 460.823 -45.288 L 460.039 -52.862 Q 459.955 -53.562 459.731 -53.849 Q 459.507 -54.136 458.947 -54.136 L 458.975 -54.556 L 462.405 -54.556 L 462.363 -54.136 Q 461.831 -54.136 461.523 -53.926 Q 461.215 -53.716 461.243 -53.24 Q 461.243 -53.17 461.264 -52.988 Q 461.285 -52.806 461.285 -52.736 L 461.705 -48.746 L 461.803 -47.108 Z " fill="black" /><path d="M 468.261 -47.563 L 468.261 -47.563 Q 468.996 -47.563 469.545 -47.244 Q 470.093 -46.926 470.392 -46.352 Q 470.691 -45.779 470.691 -45.005 Q 470.691 -44.074 470.378 -43.476 Q 470.064 -42.878 469.515 -42.589 Q 468.966 -42.3 468.261 -42.3 Q 467.545 -42.3 466.992 -42.599 Q 466.438 -42.898 466.129 -43.496 Q 465.821 -44.093 465.821 -44.995 Q 465.821 -45.759 466.124 -46.338 Q 466.428 -46.916 466.977 -47.239 Q 467.526 -47.563 468.261 -47.563 Z M 468.241 -47.112 L 468.241 -47.112 Q 467.594 -47.112 467.227 -46.588 Q 466.859 -46.063 466.859 -45.054 Q 466.859 -43.809 467.237 -43.295 Q 467.614 -42.78 468.29 -42.78 Q 468.721 -42.79 469.025 -42.996 Q 469.329 -43.202 469.491 -43.687 Q 469.652 -44.172 469.652 -45.005 Q 469.652 -46.004 469.309 -46.558 Q 468.966 -47.112 468.241 -47.112 Z " fill="black" /><path d="M 477.355 -42.917 L 477.355 -42.917 L 477.355 -42.545 L 476.032 -42.369 L 475.719 -42.369 L 475.719 -43.133 L 475.621 -43.133 Q 475.248 -42.8 474.866 -42.56 Q 474.484 -42.32 473.945 -42.32 Q 473.22 -42.32 472.837 -42.761 Q 472.455 -43.202 472.455 -44.289 L 472.455 -46.396 Q 472.455 -46.798 472.313 -46.891 Q 472.171 -46.984 471.72 -46.984 L 471.72 -47.337 L 473.082 -47.523 L 473.406 -47.523 L 473.406 -44.417 Q 473.406 -43.868 473.533 -43.564 Q 473.661 -43.26 473.876 -43.143 Q 474.092 -43.025 474.347 -43.025 Q 474.778 -43.025 475.067 -43.207 Q 475.356 -43.388 475.67 -43.643 L 475.67 -46.396 Q 475.67 -46.798 475.493 -46.891 Q 475.317 -46.984 474.817 -46.984 L 474.817 -47.337 L 476.277 -47.523 L 476.62 -47.523 L 476.62 -43.554 Q 476.62 -43.26 476.674 -43.123 Q 476.728 -42.986 476.865 -42.952 Q 477.002 -42.917 477.247 -42.917 Z " fill="black" /><path d="M 481.177 -43.398 L 481.177 -43.398 L 481.403 -43.211 Q 481.187 -42.917 481.011 -42.717 Q 480.834 -42.516 480.609 -42.408 Q 480.383 -42.3 480.031 -42.3 Q 479.462 -42.3 479.202 -42.623 Q 478.943 -42.947 478.943 -43.662 L 478.943 -46.955 L 478.325 -46.955 L 478.325 -47.249 Q 478.678 -47.504 478.972 -47.871 Q 479.266 -48.239 479.56 -48.925 L 479.903 -48.925 L 479.893 -47.435 L 481.138 -47.435 L 481.138 -46.955 L 479.893 -46.955 L 479.893 -43.986 Q 479.893 -43.437 479.996 -43.207 Q 480.099 -42.976 480.413 -42.976 Q 480.697 -42.976 480.844 -43.079 Q 480.991 -43.182 481.177 -43.398 Z " fill="black" /></g></g></g><g><g><g><path d="M 542.042 37.131 L 542.042 37.131 L 542.294 37.397 Q 541.58 38.237 540.642 38.776 Q 539.704 39.315 538.374 39.315 Q 537.114 39.315 536.358 38.846 Q 535.602 38.377 535.273 37.593 Q 534.944 36.809 534.944 35.885 Q 534.944 34.415 535.392 33.274 Q 535.84 32.133 536.617 31.356 Q 537.394 30.579 538.374 30.18 Q 539.354 29.781 540.418 29.781 Q 541.132 29.781 541.531 29.907 Q 541.93 30.033 542.154 30.166 Q 542.378 30.299 542.546 30.299 Q 542.714 30.299 542.84 30.159 Q 542.966 30.019 543.134 29.795 L 543.54 29.795 L 542.882 33.001 L 542.42 33.001 Q 542.476 31.601 541.902 30.992 Q 541.328 30.383 540.292 30.383 Q 539.48 30.383 538.766 30.754 Q 538.052 31.125 537.499 31.804 Q 536.946 32.483 536.631 33.428 Q 536.316 34.373 536.316 35.535 Q 536.316 36.935 536.981 37.67 Q 537.646 38.405 539.032 38.405 Q 540.642 38.405 542.042 37.131 Z " fill="black" /><path d="M 546.041 41.739 L 546.041 41.739 L 546.041 42.101 L 543.562 42.101 L 543.562 41.739 Q 543.905 41.739 544.057 41.67 Q 544.209 41.601 544.248 41.44 Q 544.287 41.278 544.287 41.004 L 544.287 35.829 Q 544.287 35.516 544.174 35.447 Q 544.062 35.378 543.827 35.378 Q 543.699 35.378 543.616 35.393 Q 543.533 35.408 543.533 35.408 L 543.533 35.035 L 544.865 34.781 L 545.248 34.781 L 545.248 41.004 Q 545.248 41.288 545.292 41.449 Q 545.336 41.611 545.507 41.675 Q 545.679 41.739 546.041 41.739 Z " fill="black" /><path d="M 549.471 36.956 L 549.471 36.956 Q 550.206 36.956 550.755 37.275 Q 551.304 37.593 551.603 38.166 Q 551.902 38.74 551.902 39.514 Q 551.902 40.445 551.588 41.043 Q 551.275 41.641 550.726 41.93 Q 550.177 42.219 549.471 42.219 Q 548.756 42.219 548.202 41.92 Q 547.649 41.621 547.34 41.023 Q 547.031 40.425 547.031 39.524 Q 547.031 38.759 547.335 38.181 Q 547.639 37.603 548.188 37.28 Q 548.736 36.956 549.471 36.956 Z M 549.452 37.407 L 549.452 37.407 Q 548.805 37.407 548.437 37.931 Q 548.07 38.456 548.07 39.465 Q 548.07 40.71 548.447 41.224 Q 548.825 41.739 549.501 41.739 Q 549.932 41.729 550.236 41.523 Q 550.54 41.317 550.701 40.832 Q 550.863 40.347 550.863 39.514 Q 550.863 38.514 550.52 37.961 Q 550.177 37.407 549.452 37.407 Z " fill="black" /><path d="M 556.018 41.484 L 556.018 41.484 L 555.949 41.484 Q 555.616 41.758 555.214 41.964 Q 554.812 42.17 554.342 42.17 Q 553.725 42.17 553.396 41.797 Q 553.068 41.425 553.068 40.896 Q 553.068 40.445 553.279 40.141 Q 553.489 39.837 553.827 39.646 Q 554.166 39.455 554.558 39.338 Q 554.95 39.22 555.312 39.151 Q 555.675 39.083 555.92 39.024 L 555.92 38.514 Q 555.92 37.858 555.66 37.608 Q 555.4 37.358 554.901 37.358 Q 554.597 37.358 554.464 37.436 Q 554.332 37.515 554.298 37.691 Q 554.264 37.868 554.254 38.152 Q 554.244 38.367 554.126 38.5 Q 554.009 38.632 553.783 38.632 Q 553.568 38.632 553.416 38.5 Q 553.264 38.367 553.264 38.113 Q 553.264 37.809 553.499 37.544 Q 553.734 37.28 554.17 37.118 Q 554.607 36.956 555.195 36.956 Q 556.077 36.956 556.473 37.363 Q 556.87 37.77 556.87 38.583 L 556.87 40.984 Q 556.87 41.307 556.944 41.4 Q 557.017 41.494 557.174 41.494 Q 557.341 41.494 557.463 41.425 Q 557.586 41.356 557.694 41.229 L 557.909 41.435 Q 557.4 42.16 556.714 42.16 Q 556.331 42.16 556.189 41.979 Q 556.047 41.797 556.018 41.484 Z M 555.92 41.121 L 555.92 41.121 L 555.92 39.396 Q 555.469 39.514 555.038 39.656 Q 554.607 39.798 554.327 40.043 Q 554.048 40.288 554.048 40.729 Q 554.048 41.111 554.268 41.332 Q 554.489 41.552 554.832 41.552 Q 555.038 41.552 555.327 41.459 Q 555.616 41.366 555.92 41.121 Z " fill="black" /><path d="M 563.789 41.974 L 563.789 41.974 L 562.466 42.15 L 562.113 42.15 L 562.113 41.464 L 562.045 41.464 Q 561.721 41.739 561.315 41.964 Q 560.908 42.189 560.398 42.189 Q 559.82 42.189 559.413 41.876 Q 559.007 41.562 558.791 41.013 Q 558.576 40.465 558.576 39.769 Q 558.576 38.897 558.914 38.264 Q 559.252 37.632 559.815 37.294 Q 560.379 36.956 561.045 36.956 Q 561.623 36.956 562.094 37.221 L 562.094 35.957 Q 562.094 35.604 562.02 35.491 Q 561.947 35.378 561.633 35.378 Q 561.565 35.378 561.452 35.393 Q 561.339 35.408 561.339 35.408 L 561.339 35.035 L 562.643 34.781 L 563.044 34.781 L 563.044 40.994 Q 563.044 41.376 563.152 41.489 Q 563.26 41.601 563.525 41.601 L 563.789 41.601 Z M 562.094 41.013 L 562.094 41.013 L 562.094 38.152 Q 561.986 37.877 561.736 37.662 Q 561.486 37.446 561.026 37.446 Q 560.369 37.446 559.948 37.892 Q 559.526 38.338 559.526 39.367 Q 559.526 40.416 559.894 40.901 Q 560.261 41.386 560.928 41.386 Q 561.241 41.386 561.501 41.298 Q 561.761 41.209 562.094 41.013 Z " fill="black" /></g></g></g><g><g><g><path d="M 613.137 31.793 L 613.137 31.793 L 613.053 32.507 L 611.835 32.367 L 611.835 32.409 Q 612.073 32.675 612.206 33.074 Q 612.339 33.473 612.339 33.837 Q 612.339 34.467 612.087 34.894 Q 611.835 35.321 611.429 35.58 Q 611.023 35.839 610.533 35.972 Q 610.043 36.105 609.581 36.147 Q 609.021 36.203 608.79 36.385 Q 608.559 36.567 608.559 36.763 Q 608.559 37.015 608.839 37.148 Q 609.119 37.281 609.56 37.365 Q 610.001 37.449 610.505 37.554 Q 611.009 37.659 611.45 37.841 Q 611.891 38.023 612.171 38.352 Q 612.451 38.681 612.451 39.227 Q 612.451 39.829 612.059 40.34 Q 611.667 40.851 610.897 41.166 Q 610.127 41.481 609.007 41.481 Q 607.999 41.481 607.397 41.236 Q 606.795 40.991 606.529 40.606 Q 606.263 40.221 606.263 39.801 Q 606.263 39.129 606.781 38.716 Q 607.299 38.303 607.957 38.093 L 607.957 38.037 Q 607.775 37.925 607.614 37.722 Q 607.453 37.519 607.453 37.197 Q 607.453 36.847 607.635 36.637 Q 607.817 36.427 608.104 36.294 Q 608.391 36.161 608.671 36.063 L 608.671 35.979 Q 608.125 35.741 607.719 35.307 Q 607.313 34.873 607.313 34.075 Q 607.313 33.347 607.663 32.794 Q 608.013 32.241 608.622 31.933 Q 609.231 31.625 609.987 31.625 Q 610.491 31.625 610.75 31.674 Q 611.009 31.723 611.261 31.793 Z M 611.443 39.745 L 611.443 39.745 Q 611.443 39.325 611.093 39.066 Q 610.743 38.807 610.225 38.653 Q 609.707 38.499 609.182 38.408 Q 608.657 38.317 608.293 38.247 Q 607.943 38.471 607.649 38.758 Q 607.355 39.045 607.355 39.591 Q 607.355 40.151 607.789 40.571 Q 608.223 40.991 609.287 40.991 Q 610.295 40.991 610.869 40.62 Q 611.443 40.249 611.443 39.745 Z M 611.093 33.683 L 611.093 33.683 Q 611.093 32.983 610.827 32.514 Q 610.561 32.045 609.945 32.045 Q 609.343 32.045 608.951 32.549 Q 608.559 33.053 608.559 34.075 Q 608.559 34.803 608.811 35.258 Q 609.063 35.713 609.665 35.713 Q 610.365 35.713 610.729 35.125 Q 611.093 34.537 611.093 33.683 Z " fill="black" /><path d="M 619.125 41.144 L 619.125 41.144 L 617.802 41.32 L 617.449 41.32 L 617.449 40.634 L 617.38 40.634 Q 617.057 40.908 616.65 41.134 Q 616.244 41.359 615.734 41.359 Q 615.156 41.359 614.749 41.046 Q 614.342 40.732 614.127 40.183 Q 613.911 39.634 613.911 38.939 Q 613.911 38.066 614.249 37.434 Q 614.587 36.802 615.151 36.464 Q 615.714 36.126 616.381 36.126 Q 616.959 36.126 617.429 36.391 L 617.429 35.126 Q 617.429 34.774 617.356 34.661 Q 617.282 34.548 616.969 34.548 Q 616.9 34.548 616.787 34.563 Q 616.675 34.578 616.675 34.578 L 616.675 34.205 L 617.978 33.95 L 618.38 33.95 L 618.38 40.164 Q 618.38 40.546 618.488 40.658 Q 618.596 40.771 618.86 40.771 L 619.125 40.771 Z M 617.429 40.183 L 617.429 40.183 L 617.429 37.322 Q 617.322 37.047 617.072 36.832 Q 616.822 36.616 616.361 36.616 Q 615.705 36.616 615.283 37.062 Q 614.862 37.508 614.862 38.537 Q 614.862 39.585 615.229 40.07 Q 615.597 40.556 616.263 40.556 Q 616.577 40.556 616.836 40.467 Q 617.096 40.379 617.429 40.183 Z " fill="black" /><path d="M 620.164 39.487 L 620.164 39.487 L 620.477 39.487 Q 620.605 40.056 620.781 40.369 Q 620.957 40.683 621.237 40.805 Q 621.516 40.928 621.918 40.928 Q 622.378 40.928 622.628 40.776 Q 622.878 40.624 622.878 40.242 Q 622.878 39.987 622.756 39.816 Q 622.633 39.644 622.364 39.487 Q 622.094 39.331 621.643 39.125 Q 621.183 38.899 620.854 38.703 Q 620.526 38.507 620.355 38.243 Q 620.183 37.978 620.183 37.576 Q 620.183 36.871 620.658 36.498 Q 621.134 36.126 621.849 36.126 Q 622.28 36.126 622.579 36.234 Q 622.878 36.342 623.055 36.42 L 623.074 36.42 L 623.231 36.175 L 623.505 36.175 L 623.525 37.802 L 623.182 37.802 Q 622.996 37.047 622.663 36.787 Q 622.329 36.528 621.898 36.528 Q 621.447 36.528 621.217 36.724 Q 620.987 36.92 620.987 37.233 Q 620.987 37.488 621.144 37.655 Q 621.3 37.821 621.589 37.963 Q 621.879 38.106 622.28 38.302 Q 622.731 38.517 623.074 38.747 Q 623.417 38.978 623.613 39.267 Q 623.809 39.556 623.809 39.987 Q 623.809 40.507 623.535 40.82 Q 623.26 41.134 622.829 41.266 Q 622.398 41.398 621.928 41.398 Q 621.447 41.398 621.183 41.3 Q 620.918 41.202 620.693 41.114 L 620.654 41.114 L 620.409 41.369 L 620.183 41.369 Z " fill="black" /><path d="M 629.091 39.566 L 629.091 39.566 L 628.758 41.271 L 624.74 41.271 L 624.74 40.791 L 626.132 39.38 Q 626.681 38.831 627.038 38.409 Q 627.396 37.988 627.572 37.562 Q 627.749 37.135 627.749 36.587 Q 627.749 36.067 627.43 35.729 Q 627.112 35.391 626.534 35.391 Q 626.004 35.391 625.647 35.602 Q 625.289 35.812 625.015 36.293 L 624.75 36.165 Q 624.995 35.479 625.509 35.087 Q 626.024 34.695 626.779 34.695 Q 627.367 34.695 627.817 34.906 Q 628.268 35.117 628.523 35.509 Q 628.778 35.901 628.778 36.459 Q 628.778 36.939 628.562 37.361 Q 628.347 37.782 627.95 38.223 Q 627.553 38.664 627.004 39.203 L 625.779 40.389 L 625.779 40.458 L 626.543 40.418 L 627.817 40.418 Q 628.102 40.418 628.253 40.34 Q 628.405 40.262 628.513 40.07 Q 628.621 39.879 628.748 39.566 Z " fill="black" /><path d="M 642.793 35.181 L 642.793 35.181 L 639.125 35.181 L 639.125 38.891 L 638.117 38.891 L 638.117 35.181 L 634.449 35.181 L 634.449 34.229 L 638.117 34.229 L 638.117 30.519 L 639.125 30.519 L 639.125 34.229 L 642.793 34.229 Z " fill="black" /><path d="M 654.683 31.793 L 654.683 31.793 L 654.599 32.507 L 653.381 32.367 L 653.381 32.409 Q 653.619 32.675 653.752 33.074 Q 653.885 33.473 653.885 33.837 Q 653.885 34.467 653.633 34.894 Q 653.381 35.321 652.975 35.58 Q 652.569 35.839 652.079 35.972 Q 651.589 36.105 651.127 36.147 Q 650.567 36.203 650.336 36.385 Q 650.105 36.567 650.105 36.763 Q 650.105 37.015 650.385 37.148 Q 650.665 37.281 651.106 37.365 Q 651.547 37.449 652.051 37.554 Q 652.555 37.659 652.996 37.841 Q 653.437 38.023 653.717 38.352 Q 653.997 38.681 653.997 39.227 Q 653.997 39.829 653.605 40.34 Q 653.213 40.851 652.443 41.166 Q 651.673 41.481 650.553 41.481 Q 649.545 41.481 648.943 41.236 Q 648.341 40.991 648.075 40.606 Q 647.809 40.221 647.809 39.801 Q 647.809 39.129 648.327 38.716 Q 648.845 38.303 649.503 38.093 L 649.503 38.037 Q 649.321 37.925 649.16 37.722 Q 648.999 37.519 648.999 37.197 Q 648.999 36.847 649.181 36.637 Q 649.363 36.427 649.65 36.294 Q 649.937 36.161 650.217 36.063 L 650.217 35.979 Q 649.671 35.741 649.265 35.307 Q 648.859 34.873 648.859 34.075 Q 648.859 33.347 649.209 32.794 Q 649.559 32.241 650.168 31.933 Q 650.777 31.625 651.533 31.625 Q 652.037 31.625 652.296 31.674 Q 652.555 31.723 652.807 31.793 Z M 652.989 39.745 L 652.989 39.745 Q 652.989 39.325 652.639 39.066 Q 652.289 38.807 651.771 38.653 Q 651.253 38.499 650.728 38.408 Q 650.203 38.317 649.839 38.247 Q 649.489 38.471 649.195 38.758 Q 648.901 39.045 648.901 39.591 Q 648.901 40.151 649.335 40.571 Q 649.769 40.991 650.833 40.991 Q 651.841 40.991 652.415 40.62 Q 652.989 40.249 652.989 39.745 Z M 652.639 33.683 L 652.639 33.683 Q 652.639 32.983 652.373 32.514 Q 652.107 32.045 651.491 32.045 Q 650.889 32.045 650.497 32.549 Q 650.105 33.053 650.105 34.075 Q 650.105 34.803 650.357 35.258 Q 650.609 35.713 651.211 35.713 Q 651.911 35.713 652.275 35.125 Q 652.639 34.537 652.639 33.683 Z " fill="black" /><path d="M 660.67 41.144 L 660.67 41.144 L 659.347 41.32 L 658.995 41.32 L 658.995 40.634 L 658.926 40.634 Q 658.603 40.908 658.196 41.134 Q 657.789 41.359 657.28 41.359 Q 656.701 41.359 656.295 41.046 Q 655.888 40.732 655.672 40.183 Q 655.457 39.634 655.457 38.939 Q 655.457 38.066 655.795 37.434 Q 656.133 36.802 656.697 36.464 Q 657.26 36.126 657.926 36.126 Q 658.505 36.126 658.975 36.391 L 658.975 35.126 Q 658.975 34.774 658.902 34.661 Q 658.828 34.548 658.514 34.548 Q 658.446 34.548 658.333 34.563 Q 658.22 34.578 658.22 34.578 L 658.22 34.205 L 659.524 33.95 L 659.926 33.95 L 659.926 40.164 Q 659.926 40.546 660.033 40.658 Q 660.141 40.771 660.406 40.771 L 660.67 40.771 Z M 658.975 40.183 L 658.975 40.183 L 658.975 37.322 Q 658.867 37.047 658.617 36.832 Q 658.367 36.616 657.907 36.616 Q 657.25 36.616 656.829 37.062 Q 656.407 37.508 656.407 38.537 Q 656.407 39.585 656.775 40.07 Q 657.142 40.556 657.809 40.556 Q 658.122 40.556 658.382 40.467 Q 658.642 40.379 658.975 40.183 Z " fill="black" /><path d="M 661.709 39.487 L 661.709 39.487 L 662.023 39.487 Q 662.15 40.056 662.327 40.369 Q 662.503 40.683 662.782 40.805 Q 663.062 40.928 663.463 40.928 Q 663.924 40.928 664.174 40.776 Q 664.424 40.624 664.424 40.242 Q 664.424 39.987 664.301 39.816 Q 664.179 39.644 663.909 39.487 Q 663.64 39.331 663.189 39.125 Q 662.728 38.899 662.4 38.703 Q 662.072 38.507 661.9 38.243 Q 661.729 37.978 661.729 37.576 Q 661.729 36.871 662.204 36.498 Q 662.679 36.126 663.395 36.126 Q 663.826 36.126 664.125 36.234 Q 664.424 36.342 664.6 36.42 L 664.62 36.42 L 664.777 36.175 L 665.051 36.175 L 665.071 37.802 L 664.728 37.802 Q 664.541 37.047 664.208 36.787 Q 663.875 36.528 663.444 36.528 Q 662.993 36.528 662.763 36.724 Q 662.532 36.92 662.532 37.233 Q 662.532 37.488 662.689 37.655 Q 662.846 37.821 663.135 37.963 Q 663.424 38.106 663.826 38.302 Q 664.277 38.517 664.62 38.747 Q 664.963 38.978 665.159 39.267 Q 665.355 39.556 665.355 39.987 Q 665.355 40.507 665.08 40.82 Q 664.806 41.134 664.375 41.266 Q 663.944 41.398 663.473 41.398 Q 662.993 41.398 662.728 41.3 Q 662.464 41.202 662.238 41.114 L 662.199 41.114 L 661.954 41.369 L 661.729 41.369 Z " fill="black" /><path d="M 671.107 39.723 L 671.107 39.723 L 670.039 39.723 L 670.039 41.271 L 669.069 41.271 L 669.069 39.723 L 666.188 39.723 L 666.188 38.978 L 669.334 34.705 L 670.039 34.705 L 670.039 38.919 L 671.107 38.919 Z M 669.069 38.919 L 669.069 38.919 L 669.069 35.891 L 669.01 35.891 L 666.854 38.86 L 666.854 38.919 Z " fill="black" /></g></g></g><circle cx="360.0" cy="72.0" r="2.6999999999999997" style="stroke:black;fill:black;stroke-width:2.0;stroke-dasharray:-;" /><g><g><g><rect x="430.11" y="49.912" width="3.78" height="0.952" fill="black" /></g></g></g><g><g><g><path d="M 425.062 36.134 L 425.062 36.134 L 428.884 30.394 Q 429.08 30.114 429.199 29.876 Q 429.318 29.638 429.318 29.47 Q 429.318 29.26 429.136 29.183 Q 428.954 29.106 428.478 29.106 L 428.506 28.686 L 431.53 28.686 L 431.502 29.106 Q 431.124 29.106 430.858 29.218 Q 430.592 29.33 430.319 29.645 Q 430.046 29.96 429.612 30.604 L 424.474 37.954 L 424.012 37.954 L 423.228 30.38 Q 423.144 29.68 422.92 29.393 Q 422.696 29.106 422.136 29.106 L 422.164 28.686 L 425.594 28.686 L 425.552 29.106 Q 425.02 29.106 424.712 29.316 Q 424.404 29.526 424.432 30.002 Q 424.432 30.072 424.453 30.254 Q 424.474 30.436 424.474 30.506 L 424.894 34.496 L 424.992 36.134 Z " fill="black" /><path d="M 429.852 38.855 L 429.852 38.855 L 429.852 38.815 Q 429.509 38.61 429.269 38.281 Q 429.029 37.953 429.029 37.434 Q 429.029 36.885 429.294 36.493 Q 429.558 36.101 430.009 35.89 Q 430.46 35.679 431.019 35.679 Q 431.538 35.679 431.866 35.792 Q 432.195 35.905 432.195 35.905 L 433.635 35.866 L 433.635 36.444 L 432.606 36.424 L 432.606 36.493 Q 432.734 36.669 432.871 36.909 Q 433.008 37.149 433.008 37.581 Q 433.008 38.071 432.748 38.428 Q 432.489 38.786 432.053 38.977 Q 431.616 39.168 431.068 39.168 Q 430.568 39.168 430.127 38.992 Q 430.058 39.119 429.965 39.354 Q 429.872 39.59 429.872 39.756 Q 429.872 39.962 430.112 40.06 Q 430.352 40.158 431.068 40.158 Q 431.597 40.158 432.048 40.182 Q 432.498 40.207 432.832 40.32 Q 433.165 40.432 433.346 40.682 Q 433.527 40.932 433.527 41.393 Q 433.527 41.922 433.258 42.289 Q 432.988 42.657 432.547 42.882 Q 432.106 43.108 431.592 43.211 Q 431.077 43.314 430.578 43.314 Q 429.862 43.314 429.47 43.137 Q 429.078 42.961 428.926 42.686 Q 428.774 42.412 428.774 42.128 Q 428.774 41.853 428.966 41.584 Q 429.157 41.314 429.578 40.922 L 429.578 40.873 Q 429.333 40.746 429.166 40.53 Q 429 40.315 429 40.109 Q 429 39.815 429.26 39.487 Q 429.519 39.158 429.852 38.855 Z M 429.901 40.971 L 429.901 40.971 Q 429.735 41.256 429.676 41.422 Q 429.617 41.589 429.617 41.755 Q 429.617 42.206 429.985 42.436 Q 430.352 42.667 431.126 42.667 Q 431.763 42.667 432.155 42.51 Q 432.547 42.353 432.734 42.133 Q 432.92 41.912 432.92 41.706 Q 432.92 41.442 432.748 41.295 Q 432.577 41.148 432.312 41.084 Q 432.048 41.02 431.754 41.001 Q 431.46 40.981 431.205 40.981 Q 431.136 40.981 431.097 40.981 Q 430.47 40.981 430.24 40.976 Q 430.009 40.971 429.901 40.971 Z M 430.96 36.111 L 430.96 36.111 Q 430.538 36.111 430.279 36.395 Q 430.019 36.679 430.019 37.375 Q 430.019 38.061 430.293 38.414 Q 430.568 38.766 431.068 38.766 Q 431.332 38.766 431.548 38.659 Q 431.763 38.551 431.896 38.267 Q 432.028 37.982 432.028 37.463 Q 432.028 36.797 431.739 36.454 Q 431.45 36.111 430.96 36.111 Z " fill="black" /><path d="M 434.498 39.041 L 434.498 39.041 L 434.811 39.041 Q 434.939 39.609 435.115 39.923 Q 435.291 40.236 435.571 40.359 Q 435.85 40.481 436.252 40.481 Q 436.712 40.481 436.962 40.329 Q 437.212 40.178 437.212 39.795 Q 437.212 39.541 437.09 39.369 Q 436.967 39.198 436.698 39.041 Q 436.428 38.884 435.977 38.678 Q 435.517 38.453 435.189 38.257 Q 434.86 38.061 434.689 37.796 Q 434.517 37.532 434.517 37.13 Q 434.517 36.424 434.993 36.052 Q 435.468 35.679 436.183 35.679 Q 436.614 35.679 436.913 35.787 Q 437.212 35.895 437.389 35.973 L 437.408 35.973 L 437.565 35.728 L 437.839 35.728 L 437.859 37.355 L 437.516 37.355 Q 437.33 36.601 436.997 36.341 Q 436.663 36.081 436.232 36.081 Q 435.781 36.081 435.551 36.277 Q 435.321 36.473 435.321 36.787 Q 435.321 37.042 435.478 37.208 Q 435.634 37.375 435.923 37.517 Q 436.213 37.659 436.614 37.855 Q 437.065 38.071 437.408 38.301 Q 437.751 38.531 437.947 38.82 Q 438.143 39.109 438.143 39.541 Q 438.143 40.06 437.869 40.374 Q 437.594 40.687 437.163 40.819 Q 436.732 40.952 436.262 40.952 Q 435.781 40.952 435.517 40.854 Q 435.252 40.756 435.027 40.668 L 434.988 40.668 L 434.743 40.922 L 434.517 40.922 Z " fill="black" /><path d="M 443.425 39.119 L 443.425 39.119 L 443.092 40.824 L 439.074 40.824 L 439.074 40.344 L 440.466 38.933 Q 441.015 38.384 441.372 37.963 Q 441.73 37.541 441.906 37.115 Q 442.083 36.689 442.083 36.14 Q 442.083 35.621 441.764 35.282 Q 441.446 34.944 440.868 34.944 Q 440.338 34.944 439.981 35.155 Q 439.623 35.366 439.349 35.846 L 439.084 35.719 Q 439.329 35.033 439.844 34.641 Q 440.358 34.249 441.113 34.249 Q 441.701 34.249 442.151 34.459 Q 442.602 34.67 442.857 35.062 Q 443.112 35.454 443.112 36.013 Q 443.112 36.493 442.896 36.914 Q 442.681 37.336 442.284 37.777 Q 441.887 38.218 441.338 38.757 L 440.113 39.942 L 440.113 40.011 L 440.877 39.972 L 442.151 39.972 Q 442.436 39.972 442.587 39.893 Q 442.739 39.815 442.847 39.624 Q 442.955 39.433 443.082 39.119 Z " fill="black" /></g></g></g><g><g><g><path d="M 436.606 18.476 L 436.606 18.476 L 432.938 18.476 L 432.938 22.186 L 431.93 22.186 L 431.93 18.476 L 428.262 18.476 L 428.262 17.524 L 431.93 17.524 L 431.93 13.814 L 432.938 13.814 L 432.938 17.524 L 436.606 17.524 Z " fill="black" /></g></g></g><circle cx="468.0" cy="-0.0" r="2.6999999999999997" style="stroke:black;fill:white;stroke-width:2.0;stroke-dasharray:-;" /><g><g><g><path d="M 478.178 0.644 L 478.178 0.644 L 482 -5.096 Q 482.196 -5.376 482.315 -5.614 Q 482.434 -5.852 482.434 -6.02 Q 482.434 -6.23 482.252 -6.307 Q 482.07 -6.384 481.594 -6.384 L 481.622 -6.804 L 484.646 -6.804 L 484.618 -6.384 Q 484.24 -6.384 483.974 -6.272 Q 483.708 -6.16 483.435 -5.845 Q 483.162 -5.53 482.728 -4.886 L 477.59 2.464 L 477.128 2.464 L 476.344 -5.11 Q 476.26 -5.81 476.036 -6.097 Q 475.812 -6.384 475.252 -6.384 L 475.28 -6.804 L 478.71 -6.804 L 478.668 -6.384 Q 478.136 -6.384 477.828 -6.174 Q 477.52 -5.964 477.548 -5.488 Q 477.548 -5.418 477.569 -5.236 Q 477.59 -5.054 477.59 -4.984 L 478.01 -0.994 L 478.108 0.644 Z " fill="black" /><path d="M 485.983 4.971 L 485.983 4.971 L 485.983 5.334 L 483.494 5.334 L 483.494 4.971 Q 483.837 4.971 483.989 4.898 Q 484.141 4.824 484.18 4.663 Q 484.219 4.501 484.219 4.236 L 484.219 1.277 Q 484.219 0.944 484.111 0.875 Q 484.003 0.806 483.749 0.806 Q 483.621 0.806 483.543 0.816 Q 483.464 0.826 483.464 0.826 L 483.464 0.434 L 484.778 0.218 L 485.179 0.218 L 485.179 4.236 Q 485.179 4.521 485.224 4.682 Q 485.268 4.844 485.439 4.908 Q 485.611 4.971 485.983 4.971 Z M 484.689 -1.947 L 484.689 -1.947 Q 484.974 -1.947 485.165 -1.751 Q 485.356 -1.555 485.356 -1.301 Q 485.356 -1.065 485.165 -0.869 Q 484.974 -0.673 484.689 -0.673 Q 484.415 -0.673 484.234 -0.869 Q 484.052 -1.065 484.052 -1.301 Q 484.052 -1.555 484.234 -1.751 Q 484.415 -1.947 484.689 -1.947 Z " fill="black" /><path d="M 491.804 2.051 L 491.804 2.051 L 491.804 4.246 Q 491.804 4.521 491.853 4.682 Q 491.902 4.844 492.069 4.913 Q 492.235 4.981 492.588 4.981 L 492.588 5.334 L 490.07 5.334 L 490.07 4.981 Q 490.442 4.981 490.609 4.913 Q 490.775 4.844 490.814 4.682 Q 490.854 4.521 490.854 4.246 L 490.854 2.374 Q 490.854 1.718 490.702 1.409 Q 490.55 1.1 490.32 1.002 Q 490.089 0.904 489.854 0.904 Q 489.433 0.904 489.114 1.12 Q 488.796 1.336 488.56 1.532 L 488.56 4.246 Q 488.56 4.521 488.604 4.682 Q 488.649 4.844 488.815 4.913 Q 488.982 4.981 489.344 4.981 L 489.344 5.334 L 486.875 5.334 L 486.875 4.981 Q 487.218 4.981 487.37 4.913 Q 487.522 4.844 487.561 4.682 Q 487.6 4.521 487.6 4.246 L 487.6 1.267 Q 487.6 0.993 487.497 0.9 Q 487.394 0.806 487.169 0.806 Q 487.051 0.806 486.973 0.816 Q 486.894 0.826 486.894 0.826 L 486.894 0.454 L 488.208 0.218 L 488.531 0.218 L 488.531 1.022 L 488.6 1.022 Q 489.021 0.64 489.408 0.414 Q 489.795 0.189 490.285 0.189 Q 490.863 0.189 491.192 0.449 Q 491.52 0.708 491.662 1.13 Q 491.804 1.551 491.804 2.051 Z " fill="black" /><path d="M 493.813 6.804 L 493.813 6.804 L 493.647 6.481 Q 493.852 6.392 494.068 6.25 Q 494.284 6.108 494.426 5.848 Q 494.568 5.589 494.568 5.167 Q 494.401 5.236 494.225 5.236 Q 493.901 5.236 493.764 5.045 Q 493.627 4.854 493.627 4.609 Q 493.627 4.344 493.803 4.148 Q 493.98 3.952 494.313 3.952 Q 494.734 3.952 494.955 4.212 Q 495.175 4.472 495.175 4.932 Q 495.175 5.403 495.028 5.731 Q 494.881 6.059 494.661 6.27 Q 494.44 6.481 494.21 6.603 Q 493.98 6.726 493.813 6.804 Z " fill="black" /><path d="M 500.605 2.051 L 500.605 2.051 L 500.605 4.246 Q 500.605 4.521 500.654 4.682 Q 500.703 4.844 500.869 4.913 Q 501.036 4.981 501.389 4.981 L 501.389 5.334 L 498.87 5.334 L 498.87 4.981 Q 499.242 4.981 499.409 4.913 Q 499.576 4.844 499.615 4.682 Q 499.654 4.521 499.654 4.246 L 499.654 2.374 Q 499.654 1.718 499.502 1.409 Q 499.35 1.1 499.12 1.002 Q 498.89 0.904 498.654 0.904 Q 498.233 0.904 497.915 1.12 Q 497.596 1.336 497.361 1.532 L 497.361 4.246 Q 497.361 4.521 497.405 4.682 Q 497.449 4.844 497.616 4.913 Q 497.782 4.981 498.145 4.981 L 498.145 5.334 L 495.675 5.334 L 495.675 4.981 Q 496.018 4.981 496.17 4.913 Q 496.322 4.844 496.361 4.682 Q 496.4 4.521 496.4 4.246 L 496.4 1.267 Q 496.4 0.993 496.298 0.9 Q 496.195 0.806 495.969 0.806 Q 495.852 0.806 495.773 0.816 Q 495.695 0.826 495.695 0.826 L 495.695 0.454 L 497.008 0.218 L 497.331 0.218 L 497.331 1.022 L 497.4 1.022 Q 497.821 0.64 498.209 0.414 Q 498.596 0.189 499.086 0.189 Q 499.664 0.189 499.992 0.449 Q 500.32 0.708 500.463 1.13 Q 500.605 1.551 500.605 2.051 Z " fill="black" /></g></g></g><g><g><g><path d="M 4.606 -89.524 L 4.606 -89.524 L 0.938 -89.524 L 0.938 -85.814 L -0.07 -85.814 L -0.07 -89.524 L -3.738 -89.524 L -3.738 -90.476 L -0.07 -90.476 L -0.07 -94.186 L 0.938 -94.186 L 0.938 -90.476 L 4.606 -90.476 Z " fill="black" /></g></g></g><g><g><g><path d="M -6.938 -107.866 L -6.938 -107.866 L -3.116 -113.606 Q -2.92 -113.886 -2.801 -114.124 Q -2.682 -114.362 -2.682 -114.53 Q -2.682 -114.74 -2.864 -114.817 Q -3.046 -114.894 -3.522 -114.894 L -3.494 -115.314 L -0.47 -115.314 L -0.498 -114.894 Q -0.876 -114.894 -1.142 -114.782 Q -1.408 -114.67 -1.681 -114.355 Q -1.954 -114.04 -2.388 -113.396 L -7.526 -106.046 L -7.988 -106.046 L -8.772 -113.62 Q -8.856 -114.32 -9.08 -114.607 Q -9.304 -114.894 -9.864 -114.894 L -9.836 -115.314 L -6.406 -115.314 L -6.448 -114.894 Q -6.98 -114.894 -7.288 -114.684 Q -7.596 -114.474 -7.568 -113.998 Q -7.568 -113.928 -7.547 -113.746 Q -7.526 -113.564 -7.526 -113.494 L -7.106 -109.504 L -7.008 -107.866 Z " fill="black" /><path d="M -2.148 -105.145 L -2.148 -105.145 L -2.148 -105.185 Q -2.491 -105.39 -2.731 -105.719 Q -2.971 -106.047 -2.971 -106.566 Q -2.971 -107.115 -2.706 -107.507 Q -2.442 -107.899 -1.991 -108.11 Q -1.54 -108.321 -0.981 -108.321 Q -0.462 -108.321 -0.134 -108.208 Q 0.195 -108.095 0.195 -108.095 L 1.635 -108.134 L 1.635 -107.556 L 0.606 -107.576 L 0.606 -107.507 Q 0.734 -107.331 0.871 -107.091 Q 1.008 -106.851 1.008 -106.419 Q 1.008 -105.929 0.748 -105.572 Q 0.489 -105.214 0.052 -105.023 Q -0.384 -104.832 -0.932 -104.832 Q -1.432 -104.832 -1.873 -105.008 Q -1.942 -104.881 -2.035 -104.646 Q -2.128 -104.41 -2.128 -104.244 Q -2.128 -104.038 -1.888 -103.94 Q -1.648 -103.842 -0.932 -103.842 Q -0.403 -103.842 0.048 -103.818 Q 0.498 -103.793 0.832 -103.68 Q 1.165 -103.568 1.346 -103.318 Q 1.527 -103.068 1.527 -102.607 Q 1.527 -102.078 1.258 -101.711 Q 0.988 -101.343 0.547 -101.118 Q 0.106 -100.892 -0.408 -100.789 Q -0.923 -100.686 -1.422 -100.686 Q -2.138 -100.686 -2.53 -100.863 Q -2.922 -101.039 -3.074 -101.314 Q -3.226 -101.588 -3.226 -101.872 Q -3.226 -102.147 -3.035 -102.416 Q -2.843 -102.686 -2.422 -103.078 L -2.422 -103.127 Q -2.667 -103.254 -2.834 -103.47 Q -3 -103.685 -3 -103.891 Q -3 -104.185 -2.741 -104.513 Q -2.481 -104.842 -2.148 -105.145 Z M -2.099 -103.029 L -2.099 -103.029 Q -2.265 -102.744 -2.324 -102.578 Q -2.383 -102.411 -2.383 -102.245 Q -2.383 -101.794 -2.015 -101.564 Q -1.648 -101.333 -0.874 -101.333 Q -0.237 -101.333 0.155 -101.49 Q 0.547 -101.647 0.734 -101.867 Q 0.92 -102.088 0.92 -102.294 Q 0.92 -102.558 0.748 -102.705 Q 0.577 -102.852 0.312 -102.916 Q 0.048 -102.98 -0.246 -102.999 Q -0.54 -103.019 -0.795 -103.019 Q -0.864 -103.019 -0.903 -103.019 Q -1.53 -103.019 -1.761 -103.024 Q -1.991 -103.029 -2.099 -103.029 Z M -1.04 -107.889 L -1.04 -107.889 Q -1.462 -107.889 -1.721 -107.605 Q -1.981 -107.321 -1.981 -106.625 Q -1.981 -105.939 -1.707 -105.586 Q -1.432 -105.234 -0.932 -105.234 Q -0.668 -105.234 -0.452 -105.341 Q -0.237 -105.449 -0.104 -105.733 Q 0.028 -106.018 0.028 -106.537 Q 0.028 -107.203 -0.261 -107.546 Q -0.55 -107.889 -1.04 -107.889 Z " fill="black" /><path d="M 2.498 -104.959 L 2.498 -104.959 L 2.811 -104.959 Q 2.939 -104.391 3.115 -104.077 Q 3.291 -103.764 3.571 -103.641 Q 3.85 -103.519 4.252 -103.519 Q 4.712 -103.519 4.962 -103.671 Q 5.212 -103.822 5.212 -104.205 Q 5.212 -104.459 5.09 -104.631 Q 4.967 -104.802 4.698 -104.959 Q 4.428 -105.116 3.977 -105.322 Q 3.517 -105.547 3.188 -105.743 Q 2.86 -105.939 2.689 -106.204 Q 2.517 -106.468 2.517 -106.87 Q 2.517 -107.576 2.992 -107.948 Q 3.468 -108.321 4.183 -108.321 Q 4.614 -108.321 4.913 -108.213 Q 5.212 -108.105 5.389 -108.027 L 5.408 -108.027 L 5.565 -108.272 L 5.839 -108.272 L 5.859 -106.645 L 5.516 -106.645 Q 5.33 -107.399 4.997 -107.659 Q 4.663 -107.919 4.232 -107.919 Q 3.781 -107.919 3.551 -107.723 Q 3.321 -107.527 3.321 -107.213 Q 3.321 -106.958 3.478 -106.792 Q 3.634 -106.625 3.923 -106.483 Q 4.213 -106.341 4.614 -106.145 Q 5.065 -105.929 5.408 -105.699 Q 5.751 -105.469 5.947 -105.18 Q 6.143 -104.891 6.143 -104.459 Q 6.143 -103.94 5.869 -103.626 Q 5.594 -103.313 5.163 -103.181 Q 4.732 -103.048 4.262 -103.048 Q 3.781 -103.048 3.517 -103.146 Q 3.252 -103.244 3.027 -103.332 L 2.988 -103.332 L 2.743 -103.078 L 2.517 -103.078 Z " fill="black" /><path d="M 7.456 -108.272 L 7.456 -108.272 L 7.172 -108.409 Q 7.466 -109.075 7.951 -109.413 Q 8.436 -109.751 9.044 -109.751 Q 9.828 -109.751 10.308 -109.369 Q 10.788 -108.987 10.788 -108.379 Q 10.788 -107.85 10.465 -107.527 Q 10.142 -107.203 9.661 -106.89 L 9.661 -106.841 Q 10.073 -106.733 10.421 -106.517 Q 10.769 -106.302 10.975 -105.964 Q 11.18 -105.626 11.18 -105.145 Q 11.18 -104.606 10.945 -104.21 Q 10.71 -103.813 10.308 -103.553 Q 9.906 -103.293 9.392 -103.171 Q 8.877 -103.048 8.319 -103.048 Q 7.839 -103.048 7.589 -103.132 Q 7.339 -103.215 7.246 -103.352 Q 7.153 -103.489 7.153 -103.626 Q 7.153 -103.793 7.251 -103.955 Q 7.349 -104.116 7.584 -104.116 Q 7.682 -104.116 7.785 -104.063 Q 7.888 -104.009 8.162 -103.852 Q 8.387 -103.744 8.52 -103.685 Q 8.652 -103.626 8.755 -103.607 Q 8.858 -103.587 8.995 -103.587 Q 9.289 -103.587 9.578 -103.695 Q 9.867 -103.803 10.063 -104.082 Q 10.259 -104.361 10.259 -104.871 Q 10.259 -105.322 10.009 -105.645 Q 9.759 -105.969 9.338 -106.15 Q 8.917 -106.331 8.407 -106.331 L 8.191 -106.331 L 8.191 -106.792 L 8.397 -106.792 Q 8.75 -106.792 9.083 -106.954 Q 9.416 -107.115 9.632 -107.414 Q 9.848 -107.713 9.848 -108.125 Q 9.848 -108.585 9.549 -108.82 Q 9.25 -109.056 8.789 -109.056 Q 7.937 -109.056 7.456 -108.272 Z " fill="black" /></g></g></g><g><g><g><rect x="-1.89" y="-130.088" width="3.78" height="0.952" fill="black" /></g></g></g></svg>