<svg xmlns="http://www.w3.org/2000/svg" xmlns:xlink="http://www.w3.org/1999/xlink" xml:lang="en" height="109.64pt" width="558.3088pt" viewBox="-211.70880000000002 -82.0 558.3088 109.64"><circle cx="108.0" cy="-36.0" r="18.0" style="stroke:black;fill:none;stroke-width:2.0;stroke-dasharray:-;" /><circle cx="324.0" cy="-36.0" r="18.0" style="stroke:black;fill:none;stroke-width:2.0;stroke-dasharray:-;" /><path d="M 0.0,-0.0 L 2.0059714570033646e-15,-32.76 M -8.999999999999998,-32.76 L 9.000000000000002,-32.76 M -8.999999999999998,-39.24 L 9.000000000000002,-39.24 M 2.402757019927107e-15,-39.24 L 4.408728476930472e-15,-72.0" style="stroke:black;fill:none;stroke-width:2.0;stroke-dasharray:-;stroke-linecap:round;stroke-linejoin:round;" /><path d="M 4.408728476930472e-15,-72.0 L 54.00000000000001,-72.0 L 108.0,-72.0" style="stroke:black;fill:none;stroke-width:2.0;stroke-dasharray:-;stroke-linecap:round;stroke-linejoin:round;" /><path d="M 108.0,-72.0 L 108.0,-54.0 L 108.0,-54.0 M 107.99999999999999,-18.0 L 107.99999999999999,-18.0 L 107.99999999999999,-0.0" style="stroke:black;fill:none;stroke-width:2.0;stroke-dasharray:-;stroke-linecap:round;stroke-linejoin:round;" /><path d="M 108.0,-45.0 L 107.99999999999999,-36.0" style="stroke:black;fill:none;stroke-width:2.0;stroke-dasharray:-;stroke-linecap:round;stroke-linejoin:round;" /><path d="M 107.99999999999999 -29.0 L 105.3 -36.0 L 110.69999999999999 -36.0 Z" style="stroke:black;fill:black;stroke-linecap:butt;stroke-linejoin:miter;" /><path d="M 107.99999999999999,-0.0 L 107.99999999999999,14.4 L 98.99999999999999,14.4 L 116.99999999999999,14.4 M 101.69999999999999,18.72 L 114.29999999999998,18.72 M 106.19999999999999,23.04 L 109.79999999999998,23.04" style="stroke:black;fill:none;stroke-width:2.0;stroke-dasharray:-;stroke-linecap:round;stroke-linejoin:round;" /><path d="M 107.99999999999999,-0.0 L 53.999999999999986,-6.613092715395707e-15 L -1.5987211554602254e-14,-1.3226185430791413e-14" style="stroke:black;fill:none;stroke-width:2.0;stroke-dasharray:-;stroke-linecap:round;stroke-linejoin:round;" /><path d="M 107.99999999999999,-0.0 L 162.0,-0.0 L 216.0,-0.0" style="stroke:black;fill:none;stroke-width:2.0;stroke-dasharray:-;stroke-linecap:round;stroke-linejoin:round;" /><path d="M 216.0,-0.0 L 216.0,-18.0 L 207.0,-21.0 L 225.0,-27.0 L 207.0,-33.0 L 225.0,-39.0 L 207.0,-45.0 L 225.0,-50.99999999999999 L 216.0,-54.0 L 216.0,-72.0" style="stroke:black;fill:none;stroke-width:2.0;stroke-dasharray:-;stroke-linecap:round;stroke-linejoin:round;" /><path d="M 216.0,-72.0 L 162.0,-72.0 L 108.0,-72.00000000000001" style="stroke:black;fill:none;stroke-width:2.0;stroke-dasharray:-;stroke-linecap:round;stroke-linejoin:round;" /><path d="M 216.0,-72.0 L 270.0,-72.0 L 324.0,-72.0" style="stroke:black;fill:none;stroke-width:2.0;stroke-dasharray:-;stroke-linecap:round;stroke-linejoin:round;" /><path d="M 324.0,-0.0 L 324.0,-18.0 L 324.0,-18.0 M 324.0,-54.0 L 324.0,-54.0 L 324.0,-72.0" style="stroke:black;fill:none;stroke-width:2.0;stroke-dasharray:-;stroke-linecap:round;stroke-linejoin:round;" /><path d="M 324.0,-27.0 L 324.0,-36.0" style="stroke:black;fill:none;stroke-width:2.0;stroke-dasharray:-;stroke-linecap:round;stroke-linejoin:round;" /><path d="M 324.0 -43.0 L 326.7 -36.0 L 321.3 -36.0 Z" style="stroke:black;fill:black;stroke-linecap:butt;stroke-linejoin:miter;" /><path d="M 324.0,-0.0 L 270.0,-6.613092715395707e-15 L 216.0,-1.3226185430791413e-14" style="stroke:black;fill:none;stroke-width:2.0;stroke-dasharray:-;stroke-linecap:round;stroke-linejoin:round;" /><path d="M -180.0,-72.0 L -180.0,-36.0 L -180.0,-9.0" style="stroke:black;fill:none;stroke-width:2.0;stroke-dasharray:-;stroke-linecap:round;stroke-linejoin:round;" /><path d="M -180.0 -2.0 L -182.7 -9.0 L -177.3 -9.0 Z" style="stroke:black;fill:black;stroke-linecap:butt;stroke-linejoin:miter;" /><g><g><g><path d="M -159.489 -36.062 L -159.489 -36.062 L -159.201 -35.758 Q -160.017 -34.798 -161.089 -34.182 Q -162.161 -33.566 -163.681 -33.566 Q -165.121 -33.566 -165.985 -34.102 Q -166.849 -34.638 -167.225 -35.534 Q -167.601 -36.43 -167.601 -37.486 Q -167.601 -39.166 -167.089 -40.47 Q -166.577 -41.774 -165.689 -42.662 Q -164.801 -43.55 -163.681 -44.006 Q -162.561 -44.462 -161.345 -44.462 Q -160.529 -44.462 -160.073 -44.318 Q -159.617 -44.174 -159.361 -44.022 Q -159.105 -43.87 -158.913 -43.87 Q -158.721 -43.87 -158.577 -44.03 Q -158.433 -44.19 -158.241 -44.446 L -157.777 -44.446 L -158.529 -40.782 L -159.057 -40.782 Q -158.993 -42.382 -159.649 -43.078 Q -160.305 -43.774 -161.489 -43.774 Q -162.417 -43.774 -163.233 -43.35 Q -164.049 -42.926 -164.681 -42.15 Q -165.313 -41.374 -165.673 -40.294 Q -166.033 -39.214 -166.033 -37.886 Q -166.033 -36.286 -165.273 -35.446 Q -164.513 -34.606 -162.929 -34.606 Q -161.089 -34.606 -159.489 -36.062 Z " fill="black" /><path d="M -156.654 -32.634 L -156.654 -32.634 L -156.654 -32.678 Q -157.046 -32.914 -157.32 -33.289 Q -157.594 -33.664 -157.594 -34.258 Q -157.594 -34.885 -157.292 -35.333 Q -156.99 -35.781 -156.474 -36.022 Q -155.959 -36.262 -155.321 -36.262 Q -154.727 -36.262 -154.352 -36.134 Q -153.977 -36.005 -153.977 -36.005 L -152.33 -36.05 L -152.33 -35.389 L -153.506 -35.411 L -153.506 -35.333 Q -153.361 -35.131 -153.204 -34.857 Q -153.047 -34.582 -153.047 -34.09 Q -153.047 -33.53 -153.344 -33.121 Q -153.641 -32.712 -154.139 -32.494 Q -154.638 -32.275 -155.265 -32.275 Q -155.836 -32.275 -156.34 -32.477 Q -156.418 -32.331 -156.525 -32.062 Q -156.631 -31.794 -156.631 -31.603 Q -156.631 -31.368 -156.357 -31.256 Q -156.082 -31.144 -155.265 -31.144 Q -154.66 -31.144 -154.145 -31.116 Q -153.63 -31.088 -153.249 -30.959 Q -152.868 -30.83 -152.661 -30.545 Q -152.454 -30.259 -152.454 -29.733 Q -152.454 -29.128 -152.762 -28.708 Q -153.07 -28.288 -153.574 -28.03 Q -154.078 -27.773 -154.666 -27.655 Q -155.254 -27.538 -155.825 -27.538 Q -156.642 -27.538 -157.09 -27.739 Q -157.538 -27.941 -157.712 -28.254 Q -157.886 -28.568 -157.886 -28.893 Q -157.886 -29.206 -157.667 -29.514 Q -157.449 -29.822 -156.967 -30.27 L -156.967 -30.326 Q -157.247 -30.472 -157.438 -30.718 Q -157.628 -30.965 -157.628 -31.2 Q -157.628 -31.536 -157.331 -31.911 Q -157.034 -32.286 -156.654 -32.634 Z M -156.598 -30.214 L -156.598 -30.214 Q -156.788 -29.89 -156.855 -29.699 Q -156.922 -29.509 -156.922 -29.318 Q -156.922 -28.803 -156.502 -28.54 Q -156.082 -28.277 -155.198 -28.277 Q -154.47 -28.277 -154.022 -28.456 Q -153.574 -28.635 -153.361 -28.887 Q -153.148 -29.139 -153.148 -29.374 Q -153.148 -29.677 -153.344 -29.845 Q -153.54 -30.013 -153.842 -30.086 Q -154.145 -30.158 -154.481 -30.181 Q -154.817 -30.203 -155.108 -30.203 Q -155.186 -30.203 -155.231 -30.203 Q -155.948 -30.203 -156.211 -30.209 Q -156.474 -30.214 -156.598 -30.214 Z M -155.388 -35.77 L -155.388 -35.77 Q -155.87 -35.77 -156.166 -35.445 Q -156.463 -35.12 -156.463 -34.325 Q -156.463 -33.541 -156.15 -33.138 Q -155.836 -32.734 -155.265 -32.734 Q -154.962 -32.734 -154.716 -32.858 Q -154.47 -32.981 -154.318 -33.306 Q -154.167 -33.63 -154.167 -34.224 Q -154.167 -34.986 -154.498 -35.378 Q -154.828 -35.77 -155.388 -35.77 Z " fill="black" /><path d="M -151.345 -32.421 L -151.345 -32.421 L -150.986 -32.421 Q -150.841 -31.771 -150.639 -31.413 Q -150.438 -31.054 -150.118 -30.914 Q -149.799 -30.774 -149.34 -30.774 Q -148.814 -30.774 -148.528 -30.948 Q -148.242 -31.122 -148.242 -31.558 Q -148.242 -31.85 -148.382 -32.046 Q -148.522 -32.242 -148.83 -32.421 Q -149.138 -32.6 -149.654 -32.835 Q -150.18 -33.093 -150.555 -33.317 Q -150.93 -33.541 -151.126 -33.843 Q -151.322 -34.146 -151.322 -34.605 Q -151.322 -35.411 -150.779 -35.837 Q -150.236 -36.262 -149.418 -36.262 Q -148.926 -36.262 -148.584 -36.139 Q -148.242 -36.016 -148.041 -35.926 L -148.018 -35.926 L -147.839 -36.206 L -147.526 -36.206 L -147.503 -34.347 L -147.895 -34.347 Q -148.108 -35.21 -148.489 -35.506 Q -148.87 -35.803 -149.362 -35.803 Q -149.878 -35.803 -150.141 -35.579 Q -150.404 -35.355 -150.404 -34.997 Q -150.404 -34.706 -150.225 -34.515 Q -150.046 -34.325 -149.715 -34.162 Q -149.385 -34 -148.926 -33.776 Q -148.41 -33.53 -148.018 -33.266 Q -147.626 -33.003 -147.402 -32.673 Q -147.178 -32.342 -147.178 -31.85 Q -147.178 -31.256 -147.492 -30.898 Q -147.806 -30.539 -148.298 -30.388 Q -148.791 -30.237 -149.329 -30.237 Q -149.878 -30.237 -150.18 -30.349 Q -150.482 -30.461 -150.74 -30.562 L -150.785 -30.562 L -151.065 -30.27 L -151.322 -30.27 Z " fill="black" /><path d="M -131.351 -37.342 L -131.351 -37.342 L -135.543 -37.342 L -135.543 -33.102 L -136.695 -33.102 L -136.695 -37.342 L -140.887 -37.342 L -140.887 -38.43 L -136.695 -38.43 L -136.695 -42.67 L -135.543 -42.67 L -135.543 -38.43 L -131.351 -38.43 Z " fill="black" /><path d="M -116.547 -36.062 L -116.547 -36.062 L -116.259 -35.758 Q -117.075 -34.798 -118.147 -34.182 Q -119.219 -33.566 -120.739 -33.566 Q -122.179 -33.566 -123.043 -34.102 Q -123.907 -34.638 -124.283 -35.534 Q -124.659 -36.43 -124.659 -37.486 Q -124.659 -39.166 -124.147 -40.47 Q -123.635 -41.774 -122.747 -42.662 Q -121.859 -43.55 -120.739 -44.006 Q -119.619 -44.462 -118.403 -44.462 Q -117.587 -44.462 -117.131 -44.318 Q -116.675 -44.174 -116.419 -44.022 Q -116.163 -43.87 -115.971 -43.87 Q -115.779 -43.87 -115.635 -44.03 Q -115.491 -44.19 -115.299 -44.446 L -114.835 -44.446 L -115.587 -40.782 L -116.115 -40.782 Q -116.051 -42.382 -116.707 -43.078 Q -117.363 -43.774 -118.547 -43.774 Q -119.475 -43.774 -120.291 -43.35 Q -121.107 -42.926 -121.739 -42.15 Q -122.371 -41.374 -122.731 -40.294 Q -123.091 -39.214 -123.091 -37.886 Q -123.091 -36.286 -122.331 -35.446 Q -121.571 -34.606 -119.987 -34.606 Q -118.147 -34.606 -116.547 -36.062 Z " fill="black" /><path d="M -113.712 -32.634 L -113.712 -32.634 L -113.712 -32.678 Q -114.104 -32.914 -114.378 -33.289 Q -114.653 -33.664 -114.653 -34.258 Q -114.653 -34.885 -114.35 -35.333 Q -114.048 -35.781 -113.533 -36.022 Q -113.018 -36.262 -112.379 -36.262 Q -111.786 -36.262 -111.41 -36.134 Q -111.035 -36.005 -111.035 -36.005 L -109.389 -36.05 L -109.389 -35.389 L -110.565 -35.411 L -110.565 -35.333 Q -110.419 -35.131 -110.262 -34.857 Q -110.106 -34.582 -110.106 -34.09 Q -110.106 -33.53 -110.402 -33.121 Q -110.699 -32.712 -111.198 -32.494 Q -111.696 -32.275 -112.323 -32.275 Q -112.894 -32.275 -113.398 -32.477 Q -113.477 -32.331 -113.583 -32.062 Q -113.69 -31.794 -113.69 -31.603 Q -113.69 -31.368 -113.415 -31.256 Q -113.141 -31.144 -112.323 -31.144 Q -111.718 -31.144 -111.203 -31.116 Q -110.688 -31.088 -110.307 -30.959 Q -109.926 -30.83 -109.719 -30.545 Q -109.512 -30.259 -109.512 -29.733 Q -109.512 -29.128 -109.82 -28.708 Q -110.128 -28.288 -110.632 -28.03 Q -111.136 -27.773 -111.724 -27.655 Q -112.312 -27.538 -112.883 -27.538 Q -113.701 -27.538 -114.149 -27.739 Q -114.597 -27.941 -114.77 -28.254 Q -114.944 -28.568 -114.944 -28.893 Q -114.944 -29.206 -114.726 -29.514 Q -114.507 -29.822 -114.026 -30.27 L -114.026 -30.326 Q -114.306 -30.472 -114.496 -30.718 Q -114.686 -30.965 -114.686 -31.2 Q -114.686 -31.536 -114.39 -31.911 Q -114.093 -32.286 -113.712 -32.634 Z M -113.656 -30.214 L -113.656 -30.214 Q -113.846 -29.89 -113.914 -29.699 Q -113.981 -29.509 -113.981 -29.318 Q -113.981 -28.803 -113.561 -28.54 Q -113.141 -28.277 -112.256 -28.277 Q -111.528 -28.277 -111.08 -28.456 Q -110.632 -28.635 -110.419 -28.887 Q -110.206 -29.139 -110.206 -29.374 Q -110.206 -29.677 -110.402 -29.845 Q -110.598 -30.013 -110.901 -30.086 Q -111.203 -30.158 -111.539 -30.181 Q -111.875 -30.203 -112.166 -30.203 Q -112.245 -30.203 -112.29 -30.203 Q -113.006 -30.203 -113.27 -30.209 Q -113.533 -30.214 -113.656 -30.214 Z M -112.446 -35.77 L -112.446 -35.77 Q -112.928 -35.77 -113.225 -35.445 Q -113.522 -35.12 -113.522 -34.325 Q -113.522 -33.541 -113.208 -33.138 Q -112.894 -32.734 -112.323 -32.734 Q -112.021 -32.734 -111.774 -32.858 Q -111.528 -32.981 -111.377 -33.306 Q -111.226 -33.63 -111.226 -34.224 Q -111.226 -34.986 -111.556 -35.378 Q -111.886 -35.77 -112.446 -35.77 Z " fill="black" /><path d="M -106.734 -38.749 L -106.734 -38.749 L -106.734 -35.277 L -106.678 -35.277 Q -106.354 -35.658 -105.911 -35.96 Q -105.469 -36.262 -104.842 -36.262 Q -104.259 -36.262 -103.783 -35.91 Q -103.307 -35.557 -103.022 -34.935 Q -102.736 -34.314 -102.736 -33.507 Q -102.736 -32.432 -103.128 -31.704 Q -103.52 -30.976 -104.198 -30.612 Q -104.875 -30.248 -105.738 -30.248 Q -106.242 -30.248 -106.667 -30.332 Q -107.093 -30.416 -107.39 -30.528 Q -107.686 -30.64 -107.821 -30.696 L -107.821 -37.416 Q -107.821 -37.83 -107.91 -37.948 Q -108 -38.066 -108.381 -38.066 Q -108.504 -38.066 -108.61 -38.049 Q -108.717 -38.032 -108.717 -38.032 L -108.717 -38.458 L -107.194 -38.749 Z M -106.734 -34.694 L -106.734 -34.694 L -106.734 -31.334 Q -106.6 -31.088 -106.309 -30.942 Q -106.018 -30.797 -105.536 -30.797 Q -104.942 -30.797 -104.584 -31.116 Q -104.226 -31.435 -104.063 -31.967 Q -103.901 -32.499 -103.901 -33.126 Q -103.901 -33.698 -104.03 -34.218 Q -104.158 -34.739 -104.483 -35.064 Q -104.808 -35.389 -105.379 -35.389 Q -105.682 -35.389 -105.956 -35.271 Q -106.23 -35.154 -106.432 -34.991 Q -106.634 -34.829 -106.734 -34.694 Z " fill="black" /><path d="M -86.796 -37.342 L -86.796 -37.342 L -90.988 -37.342 L -90.988 -33.102 L -92.14 -33.102 L -92.14 -37.342 L -96.332 -37.342 L -96.332 -38.43 L -92.14 -38.43 L -92.14 -42.67 L -90.988 -42.67 L -90.988 -38.43 L -86.796 -38.43 Z " fill="black" /><path d="M -71.993 -36.062 L -71.993 -36.062 L -71.705 -35.758 Q -72.521 -34.798 -73.593 -34.182 Q -74.665 -33.566 -76.185 -33.566 Q -77.625 -33.566 -78.489 -34.102 Q -79.353 -34.638 -79.729 -35.534 Q -80.105 -36.43 -80.105 -37.486 Q -80.105 -39.166 -79.593 -40.47 Q -79.081 -41.774 -78.193 -42.662 Q -77.305 -43.55 -76.185 -44.006 Q -75.065 -44.462 -73.849 -44.462 Q -73.033 -44.462 -72.577 -44.318 Q -72.121 -44.174 -71.865 -44.022 Q -71.609 -43.87 -71.417 -43.87 Q -71.225 -43.87 -71.081 -44.03 Q -70.937 -44.19 -70.745 -44.446 L -70.281 -44.446 L -71.033 -40.782 L -71.561 -40.782 Q -71.497 -42.382 -72.153 -43.078 Q -72.809 -43.774 -73.993 -43.774 Q -74.921 -43.774 -75.737 -43.35 Q -76.553 -42.926 -77.185 -42.15 Q -77.817 -41.374 -78.177 -40.294 Q -78.537 -39.214 -78.537 -37.886 Q -78.537 -36.286 -77.777 -35.446 Q -77.017 -34.606 -75.433 -34.606 Q -73.593 -34.606 -71.993 -36.062 Z " fill="black" /><path d="M -64.174 -30.528 L -64.174 -30.528 L -65.686 -30.326 L -66.089 -30.326 L -66.089 -31.11 L -66.167 -31.11 Q -66.537 -30.797 -67.002 -30.539 Q -67.467 -30.282 -68.049 -30.282 Q -68.71 -30.282 -69.175 -30.64 Q -69.639 -30.998 -69.886 -31.626 Q -70.132 -32.253 -70.132 -33.048 Q -70.132 -34.045 -69.746 -34.767 Q -69.359 -35.49 -68.715 -35.876 Q -68.071 -36.262 -67.31 -36.262 Q -66.649 -36.262 -66.111 -35.96 L -66.111 -37.405 Q -66.111 -37.808 -66.195 -37.937 Q -66.279 -38.066 -66.638 -38.066 Q -66.716 -38.066 -66.845 -38.049 Q -66.974 -38.032 -66.974 -38.032 L -66.974 -38.458 L -65.484 -38.749 L -65.025 -38.749 L -65.025 -31.648 Q -65.025 -31.211 -64.902 -31.082 Q -64.779 -30.954 -64.476 -30.954 L -64.174 -30.954 Z M -66.111 -31.626 L -66.111 -31.626 L -66.111 -34.896 Q -66.235 -35.21 -66.52 -35.456 Q -66.806 -35.702 -67.332 -35.702 Q -68.083 -35.702 -68.564 -35.193 Q -69.046 -34.683 -69.046 -33.507 Q -69.046 -32.309 -68.626 -31.754 Q -68.206 -31.2 -67.444 -31.2 Q -67.086 -31.2 -66.789 -31.301 Q -66.492 -31.402 -66.111 -31.626 Z " fill="black" /><path d="M -61.318 -38.749 L -61.318 -38.749 L -61.318 -35.277 L -61.262 -35.277 Q -60.937 -35.658 -60.495 -35.96 Q -60.052 -36.262 -59.425 -36.262 Q -58.843 -36.262 -58.367 -35.91 Q -57.891 -35.557 -57.605 -34.935 Q -57.319 -34.314 -57.319 -33.507 Q -57.319 -32.432 -57.711 -31.704 Q -58.103 -30.976 -58.781 -30.612 Q -59.459 -30.248 -60.321 -30.248 Q -60.825 -30.248 -61.251 -30.332 Q -61.676 -30.416 -61.973 -30.528 Q -62.27 -30.64 -62.404 -30.696 L -62.404 -37.416 Q -62.404 -37.83 -62.494 -37.948 Q -62.583 -38.066 -62.964 -38.066 Q -63.087 -38.066 -63.194 -38.049 Q -63.3 -38.032 -63.3 -38.032 L -63.3 -38.458 L -61.777 -38.749 Z M -61.318 -34.694 L -61.318 -34.694 L -61.318 -31.334 Q -61.183 -31.088 -60.892 -30.942 Q -60.601 -30.797 -60.119 -30.797 Q -59.526 -30.797 -59.167 -31.116 Q -58.809 -31.435 -58.647 -31.967 Q -58.484 -32.499 -58.484 -33.126 Q -58.484 -33.698 -58.613 -34.218 Q -58.742 -34.739 -59.067 -35.064 Q -59.391 -35.389 -59.963 -35.389 Q -60.265 -35.389 -60.539 -35.271 Q -60.814 -35.154 -61.015 -34.991 Q -61.217 -34.829 -61.318 -34.694 Z " fill="black" /><path d="M -40.835 -41.518 L -40.835 -41.518 L -40.291 -41.518 Q -40.323 -40.99 -40.507 -40.414 Q -40.691 -39.838 -41.019 -39.326 Q -41.347 -38.814 -41.811 -38.494 Q -42.275 -38.174 -42.883 -38.174 Q -43.475 -38.174 -44.083 -38.494 Q -44.691 -38.814 -45.283 -39.222 Q -45.875 -39.63 -46.411 -39.95 Q -46.947 -40.27 -47.379 -40.27 Q -47.955 -40.27 -48.355 -39.95 Q -48.755 -39.63 -49.011 -39.118 Q -49.267 -38.606 -49.395 -38.014 L -49.939 -38.014 Q -49.891 -38.83 -49.563 -39.598 Q -49.235 -40.366 -48.651 -40.862 Q -48.067 -41.358 -47.267 -41.358 Q -46.675 -41.358 -46.067 -41.038 Q -45.459 -40.718 -44.867 -40.31 Q -44.275 -39.902 -43.739 -39.582 Q -43.203 -39.262 -42.755 -39.262 Q -42.179 -39.262 -41.803 -39.582 Q -41.427 -39.902 -41.187 -40.422 Q -40.947 -40.942 -40.835 -41.518 Z M -40.835 -37.646 L -40.835 -37.646 L -40.291 -37.646 Q -40.323 -37.118 -40.507 -36.542 Q -40.691 -35.966 -41.019 -35.462 Q -41.347 -34.958 -41.811 -34.638 Q -42.275 -34.318 -42.883 -34.318 Q -43.475 -34.318 -44.083 -34.638 Q -44.691 -34.958 -45.283 -35.366 Q -45.875 -35.774 -46.411 -36.094 Q -46.947 -36.414 -47.379 -36.414 Q -47.955 -36.414 -48.355 -36.086 Q -48.755 -35.758 -49.011 -35.246 Q -49.267 -34.734 -49.395 -34.142 L -49.939 -34.142 Q -49.891 -34.974 -49.563 -35.734 Q -49.235 -36.494 -48.651 -36.99 Q -48.067 -37.486 -47.267 -37.486 Q -46.675 -37.486 -46.067 -37.166 Q -45.459 -36.846 -44.867 -36.438 Q -44.275 -36.03 -43.739 -35.71 Q -43.203 -35.39 -42.755 -35.39 Q -42.179 -35.39 -41.803 -35.71 Q -41.427 -36.03 -41.187 -36.55 Q -40.947 -37.07 -40.835 -37.646 Z " fill="black" /><path d="M -24.51 -36.062 L -24.51 -36.062 L -24.222 -35.758 Q -25.038 -34.798 -26.11 -34.182 Q -27.182 -33.566 -28.702 -33.566 Q -30.142 -33.566 -31.006 -34.102 Q -31.87 -34.638 -32.246 -35.534 Q -32.622 -36.43 -32.622 -37.486 Q -32.622 -39.166 -32.11 -40.47 Q -31.598 -41.774 -30.71 -42.662 Q -29.822 -43.55 -28.702 -44.006 Q -27.582 -44.462 -26.366 -44.462 Q -25.55 -44.462 -25.094 -44.318 Q -24.638 -44.174 -24.382 -44.022 Q -24.126 -43.87 -23.934 -43.87 Q -23.742 -43.87 -23.598 -44.03 Q -23.454 -44.19 -23.262 -44.446 L -22.798 -44.446 L -23.55 -40.782 L -24.078 -40.782 Q -24.014 -42.382 -24.67 -43.078 Q -25.326 -43.774 -26.51 -43.774 Q -27.438 -43.774 -28.254 -43.35 Q -29.07 -42.926 -29.702 -42.15 Q -30.334 -41.374 -30.694 -40.294 Q -31.054 -39.214 -31.054 -37.886 Q -31.054 -36.286 -30.294 -35.446 Q -29.534 -34.606 -27.95 -34.606 Q -26.11 -34.606 -24.51 -36.062 Z " fill="black" /><path d="M -21.675 -32.634 L -21.675 -32.634 L -21.675 -32.678 Q -22.067 -32.914 -22.342 -33.289 Q -22.616 -33.664 -22.616 -34.258 Q -22.616 -34.885 -22.314 -35.333 Q -22.011 -35.781 -21.496 -36.022 Q -20.981 -36.262 -20.342 -36.262 Q -19.749 -36.262 -19.374 -36.134 Q -18.998 -36.005 -18.998 -36.005 L -17.352 -36.05 L -17.352 -35.389 L -18.528 -35.411 L -18.528 -35.333 Q -18.382 -35.131 -18.226 -34.857 Q -18.069 -34.582 -18.069 -34.09 Q -18.069 -33.53 -18.366 -33.121 Q -18.662 -32.712 -19.161 -32.494 Q -19.659 -32.275 -20.286 -32.275 Q -20.858 -32.275 -21.362 -32.477 Q -21.44 -32.331 -21.546 -32.062 Q -21.653 -31.794 -21.653 -31.603 Q -21.653 -31.368 -21.378 -31.256 Q -21.104 -31.144 -20.286 -31.144 Q -19.682 -31.144 -19.166 -31.116 Q -18.651 -31.088 -18.27 -30.959 Q -17.89 -30.83 -17.682 -30.545 Q -17.475 -30.259 -17.475 -29.733 Q -17.475 -29.128 -17.783 -28.708 Q -18.091 -28.288 -18.595 -28.03 Q -19.099 -27.773 -19.687 -27.655 Q -20.275 -27.538 -20.846 -27.538 Q -21.664 -27.538 -22.112 -27.739 Q -22.56 -27.941 -22.734 -28.254 Q -22.907 -28.568 -22.907 -28.893 Q -22.907 -29.206 -22.689 -29.514 Q -22.47 -29.822 -21.989 -30.27 L -21.989 -30.326 Q -22.269 -30.472 -22.459 -30.718 Q -22.65 -30.965 -22.65 -31.2 Q -22.65 -31.536 -22.353 -31.911 Q -22.056 -32.286 -21.675 -32.634 Z M -21.619 -30.214 L -21.619 -30.214 Q -21.81 -29.89 -21.877 -29.699 Q -21.944 -29.509 -21.944 -29.318 Q -21.944 -28.803 -21.524 -28.54 Q -21.104 -28.277 -20.219 -28.277 Q -19.491 -28.277 -19.043 -28.456 Q -18.595 -28.635 -18.382 -28.887 Q -18.17 -29.139 -18.17 -29.374 Q -18.17 -29.677 -18.366 -29.845 Q -18.562 -30.013 -18.864 -30.086 Q -19.166 -30.158 -19.502 -30.181 Q -19.838 -30.203 -20.13 -30.203 Q -20.208 -30.203 -20.253 -30.203 Q -20.97 -30.203 -21.233 -30.209 Q -21.496 -30.214 -21.619 -30.214 Z M -20.41 -35.77 L -20.41 -35.77 Q -20.891 -35.77 -21.188 -35.445 Q -21.485 -35.12 -21.485 -34.325 Q -21.485 -33.541 -21.171 -33.138 Q -20.858 -32.734 -20.286 -32.734 Q -19.984 -32.734 -19.738 -32.858 Q -19.491 -32.981 -19.34 -33.306 Q -19.189 -33.63 -19.189 -34.224 Q -19.189 -34.986 -19.519 -35.378 Q -19.85 -35.77 -20.41 -35.77 Z " fill="black" /><path d="M -16.366 -32.421 L -16.366 -32.421 L -16.008 -32.421 Q -15.862 -31.771 -15.661 -31.413 Q -15.459 -31.054 -15.14 -30.914 Q -14.821 -30.774 -14.362 -30.774 Q -13.835 -30.774 -13.55 -30.948 Q -13.264 -31.122 -13.264 -31.558 Q -13.264 -31.85 -13.404 -32.046 Q -13.544 -32.242 -13.852 -32.421 Q -14.16 -32.6 -14.675 -32.835 Q -15.202 -33.093 -15.577 -33.317 Q -15.952 -33.541 -16.148 -33.843 Q -16.344 -34.146 -16.344 -34.605 Q -16.344 -35.411 -15.801 -35.837 Q -15.258 -36.262 -14.44 -36.262 Q -13.947 -36.262 -13.606 -36.139 Q -13.264 -36.016 -13.062 -35.926 L -13.04 -35.926 L -12.861 -36.206 L -12.547 -36.206 L -12.525 -34.347 L -12.917 -34.347 Q -13.13 -35.21 -13.51 -35.506 Q -13.891 -35.803 -14.384 -35.803 Q -14.899 -35.803 -15.162 -35.579 Q -15.426 -35.355 -15.426 -34.997 Q -15.426 -34.706 -15.246 -34.515 Q -15.067 -34.325 -14.737 -34.162 Q -14.406 -34 -13.947 -33.776 Q -13.432 -33.53 -13.04 -33.266 Q -12.648 -33.003 -12.424 -32.673 Q -12.2 -32.342 -12.2 -31.85 Q -12.2 -31.256 -12.514 -30.898 Q -12.827 -30.539 -13.32 -30.388 Q -13.813 -30.237 -14.35 -30.237 Q -14.899 -30.237 -15.202 -30.349 Q -15.504 -30.461 -15.762 -30.562 L -15.806 -30.562 L -16.086 -30.27 L -16.344 -30.27 Z " fill="black" /></g></g></g><circle cx="108.0" cy="-72.0" r="2.6999999999999997" style="stroke:black;fill:black;stroke-width:2.0;stroke-dasharray:-;" /><circle cx="107.99999999999999" cy="-0.0" r="2.6999999999999997" style="stroke:black;fill:black;stroke-width:2.0;stroke-dasharray:-;" /><g><g><g><path d="M 55.226 -39.968 L 55.226 -39.968 L 55.13 -39.152 L 53.738 -39.312 L 53.738 -39.264 Q 54.01 -38.96 54.162 -38.504 Q 54.314 -38.048 54.314 -37.632 Q 54.314 -36.912 54.026 -36.424 Q 53.738 -35.936 53.274 -35.64 Q 52.81 -35.344 52.25 -35.192 Q 51.69 -35.04 51.162 -34.992 Q 50.522 -34.928 50.258 -34.72 Q 49.994 -34.512 49.994 -34.288 Q 49.994 -34 50.314 -33.848 Q 50.634 -33.696 51.138 -33.6 Q 51.642 -33.504 52.218 -33.384 Q 52.794 -33.264 53.298 -33.056 Q 53.802 -32.848 54.122 -32.472 Q 54.442 -32.096 54.442 -31.472 Q 54.442 -30.784 53.994 -30.2 Q 53.546 -29.616 52.666 -29.256 Q 51.786 -28.896 50.506 -28.896 Q 49.354 -28.896 48.666 -29.176 Q 47.978 -29.456 47.674 -29.896 Q 47.37 -30.336 47.37 -30.816 Q 47.37 -31.584 47.962 -32.056 Q 48.554 -32.528 49.306 -32.768 L 49.306 -32.832 Q 49.098 -32.96 48.914 -33.192 Q 48.73 -33.424 48.73 -33.792 Q 48.73 -34.192 48.938 -34.432 Q 49.146 -34.672 49.474 -34.824 Q 49.802 -34.976 50.122 -35.088 L 50.122 -35.184 Q 49.498 -35.456 49.034 -35.952 Q 48.57 -36.448 48.57 -37.36 Q 48.57 -38.192 48.97 -38.824 Q 49.37 -39.456 50.066 -39.808 Q 50.762 -40.16 51.626 -40.16 Q 52.202 -40.16 52.498 -40.104 Q 52.794 -40.048 53.082 -39.968 Z M 53.29 -30.88 L 53.29 -30.88 Q 53.29 -31.36 52.89 -31.656 Q 52.49 -31.952 51.898 -32.128 Q 51.306 -32.304 50.706 -32.408 Q 50.106 -32.512 49.69 -32.592 Q 49.29 -32.336 48.954 -32.008 Q 48.618 -31.68 48.618 -31.056 Q 48.618 -30.416 49.114 -29.936 Q 49.61 -29.456 50.826 -29.456 Q 51.978 -29.456 52.634 -29.88 Q 53.29 -30.304 53.29 -30.88 Z M 52.89 -37.808 L 52.89 -37.808 Q 52.89 -38.608 52.586 -39.144 Q 52.282 -39.68 51.578 -39.68 Q 50.89 -39.68 50.442 -39.104 Q 49.994 -38.528 49.994 -37.36 Q 49.994 -36.528 50.282 -36.008 Q 50.57 -35.488 51.258 -35.488 Q 52.058 -35.488 52.474 -36.16 Q 52.89 -36.832 52.89 -37.808 Z " fill="black" /><path d="M 57.958 -33.471 L 57.958 -33.471 L 57.958 -30.368 Q 57.958 -30.032 58.026 -29.853 Q 58.093 -29.674 58.283 -29.612 Q 58.474 -29.551 58.843 -29.551 L 58.843 -29.136 L 56.021 -29.136 L 56.021 -29.551 Q 56.379 -29.551 56.558 -29.612 Q 56.738 -29.674 56.794 -29.859 Q 56.85 -30.044 56.85 -30.391 L 56.85 -33.784 Q 56.85 -34.098 56.732 -34.204 Q 56.614 -34.311 56.357 -34.311 Q 56.234 -34.311 56.138 -34.3 Q 56.043 -34.288 56.043 -34.288 L 56.043 -34.714 L 57.51 -34.983 L 57.925 -34.983 L 57.925 -34.064 L 58.003 -34.064 Q 58.474 -34.49 58.944 -34.753 Q 59.414 -35.016 60.053 -35.016 Q 60.579 -35.016 60.91 -34.748 Q 61.24 -34.479 61.419 -34.087 L 61.475 -34.087 Q 62.494 -35.016 63.435 -35.016 Q 64.197 -35.016 64.639 -34.546 Q 65.082 -34.076 65.082 -33.056 L 65.082 -30.592 Q 65.082 -30.212 65.126 -29.982 Q 65.171 -29.752 65.35 -29.652 Q 65.53 -29.551 65.933 -29.551 L 65.933 -29.136 L 63.122 -29.136 L 63.122 -29.551 Q 63.536 -29.551 63.721 -29.657 Q 63.906 -29.764 63.95 -29.993 Q 63.995 -30.223 63.995 -30.592 L 63.995 -32.922 Q 63.995 -33.628 63.71 -33.908 Q 63.424 -34.188 62.976 -34.188 Q 62.595 -34.188 62.214 -33.958 Q 61.834 -33.728 61.542 -33.504 L 61.542 -30.592 Q 61.542 -30.178 61.593 -29.948 Q 61.643 -29.719 61.839 -29.635 Q 62.035 -29.551 62.45 -29.551 L 62.45 -29.136 L 59.526 -29.136 L 59.526 -29.551 Q 59.952 -29.551 60.148 -29.635 Q 60.344 -29.719 60.4 -29.948 Q 60.456 -30.178 60.456 -30.592 L 60.456 -32.956 Q 60.456 -33.661 60.204 -33.924 Q 59.952 -34.188 59.515 -34.188 Q 59.056 -34.188 58.636 -33.941 Q 58.216 -33.695 57.958 -33.471 Z " fill="black" /><path d="M 70.858 -34.496 L 70.858 -34.496 L 75.226 -41.056 Q 75.45 -41.376 75.586 -41.648 Q 75.722 -41.92 75.722 -42.112 Q 75.722 -42.352 75.514 -42.44 Q 75.306 -42.528 74.762 -42.528 L 74.794 -43.008 L 78.25 -43.008 L 78.218 -42.528 Q 77.786 -42.528 77.482 -42.4 Q 77.178 -42.272 76.866 -41.912 Q 76.554 -41.552 76.058 -40.816 L 70.186 -32.416 L 69.658 -32.416 L 68.762 -41.072 Q 68.666 -41.872 68.41 -42.2 Q 68.154 -42.528 67.514 -42.528 L 67.546 -43.008 L 71.466 -43.008 L 71.418 -42.528 Q 70.81 -42.528 70.458 -42.288 Q 70.106 -42.048 70.138 -41.504 Q 70.138 -41.424 70.162 -41.216 Q 70.186 -41.008 70.186 -40.928 L 70.666 -36.368 L 70.778 -34.496 Z " fill="black" /><path d="M 76.333 -31.388 L 76.333 -31.388 L 76.333 -31.432 Q 75.941 -31.668 75.666 -32.043 Q 75.392 -32.418 75.392 -33.012 Q 75.392 -33.639 75.694 -34.087 Q 75.997 -34.535 76.512 -34.776 Q 77.027 -35.016 77.666 -35.016 Q 78.259 -35.016 78.634 -34.888 Q 79.01 -34.759 79.01 -34.759 L 80.656 -34.804 L 80.656 -34.143 L 79.48 -34.165 L 79.48 -34.087 Q 79.626 -33.885 79.782 -33.611 Q 79.939 -33.336 79.939 -32.844 Q 79.939 -32.284 79.642 -31.875 Q 79.346 -31.466 78.847 -31.248 Q 78.349 -31.029 77.722 -31.029 Q 77.15 -31.029 76.646 -31.231 Q 76.568 -31.085 76.462 -30.816 Q 76.355 -30.548 76.355 -30.357 Q 76.355 -30.122 76.63 -30.01 Q 76.904 -29.898 77.722 -29.898 Q 78.326 -29.898 78.842 -29.87 Q 79.357 -29.842 79.738 -29.713 Q 80.118 -29.584 80.326 -29.299 Q 80.533 -29.013 80.533 -28.487 Q 80.533 -27.882 80.225 -27.462 Q 79.917 -27.042 79.413 -26.784 Q 78.909 -26.527 78.321 -26.409 Q 77.733 -26.292 77.162 -26.292 Q 76.344 -26.292 75.896 -26.493 Q 75.448 -26.695 75.274 -27.008 Q 75.101 -27.322 75.101 -27.647 Q 75.101 -27.96 75.319 -28.268 Q 75.538 -28.576 76.019 -29.024 L 76.019 -29.08 Q 75.739 -29.226 75.549 -29.472 Q 75.358 -29.719 75.358 -29.954 Q 75.358 -30.29 75.655 -30.665 Q 75.952 -31.04 76.333 -31.388 Z M 76.389 -28.968 L 76.389 -28.968 Q 76.198 -28.644 76.131 -28.453 Q 76.064 -28.263 76.064 -28.072 Q 76.064 -27.557 76.484 -27.294 Q 76.904 -27.031 77.789 -27.031 Q 78.517 -27.031 78.965 -27.21 Q 79.413 -27.389 79.626 -27.641 Q 79.838 -27.893 79.838 -28.128 Q 79.838 -28.431 79.642 -28.599 Q 79.446 -28.767 79.144 -28.84 Q 78.842 -28.912 78.506 -28.935 Q 78.17 -28.957 77.878 -28.957 Q 77.8 -28.957 77.755 -28.957 Q 77.038 -28.957 76.775 -28.963 Q 76.512 -28.968 76.389 -28.968 Z M 77.598 -34.524 L 77.598 -34.524 Q 77.117 -34.524 76.82 -34.199 Q 76.523 -33.874 76.523 -33.079 Q 76.523 -32.295 76.837 -31.892 Q 77.15 -31.488 77.722 -31.488 Q 78.024 -31.488 78.27 -31.612 Q 78.517 -31.735 78.668 -32.06 Q 78.819 -32.384 78.819 -32.978 Q 78.819 -33.74 78.489 -34.132 Q 78.158 -34.524 77.598 -34.524 Z " fill="black" /><path d="M 81.642 -31.175 L 81.642 -31.175 L 82 -31.175 Q 82.146 -30.525 82.347 -30.167 Q 82.549 -29.808 82.868 -29.668 Q 83.187 -29.528 83.646 -29.528 Q 84.173 -29.528 84.458 -29.702 Q 84.744 -29.876 84.744 -30.312 Q 84.744 -30.604 84.604 -30.8 Q 84.464 -30.996 84.156 -31.175 Q 83.848 -31.354 83.333 -31.589 Q 82.806 -31.847 82.431 -32.071 Q 82.056 -32.295 81.86 -32.597 Q 81.664 -32.9 81.664 -33.359 Q 81.664 -34.165 82.207 -34.591 Q 82.75 -35.016 83.568 -35.016 Q 84.061 -35.016 84.402 -34.893 Q 84.744 -34.77 84.946 -34.68 L 84.968 -34.68 L 85.147 -34.96 L 85.461 -34.96 L 85.483 -33.101 L 85.091 -33.101 Q 84.878 -33.964 84.498 -34.26 Q 84.117 -34.557 83.624 -34.557 Q 83.109 -34.557 82.846 -34.333 Q 82.582 -34.109 82.582 -33.751 Q 82.582 -33.46 82.762 -33.269 Q 82.941 -33.079 83.271 -32.916 Q 83.602 -32.754 84.061 -32.53 Q 84.576 -32.284 84.968 -32.02 Q 85.36 -31.757 85.584 -31.427 Q 85.808 -31.096 85.808 -30.604 Q 85.808 -30.01 85.494 -29.652 Q 85.181 -29.293 84.688 -29.142 Q 84.195 -28.991 83.658 -28.991 Q 83.109 -28.991 82.806 -29.103 Q 82.504 -29.215 82.246 -29.316 L 82.202 -29.316 L 81.922 -29.024 L 81.664 -29.024 Z " fill="black" /></g></g></g><circle cx="216.0" cy="-0.0" r="2.6999999999999997" style="stroke:black;fill:black;stroke-width:2.0;stroke-dasharray:-;" /><circle cx="216.0" cy="-72.0" r="2.6999999999999997" style="stroke:black;fill:black;stroke-width:2.0;stroke-dasharray:-;" /><g><g><g><path d="M 190.611 -42.79 L 190.611 -42.79 L 190.515 -41.974 L 189.123 -42.134 L 189.123 -42.086 Q 189.395 -41.782 189.547 -41.326 Q 189.699 -40.87 189.699 -40.454 Q 189.699 -39.734 189.411 -39.246 Q 189.123 -38.758 188.659 -38.462 Q 188.195 -38.166 187.635 -38.014 Q 187.075 -37.862 186.547 -37.814 Q 185.907 -37.75 185.643 -37.542 Q 185.379 -37.334 185.379 -37.11 Q 185.379 -36.822 185.699 -36.67 Q 186.019 -36.518 186.523 -36.422 Q 187.027 -36.326 187.603 -36.206 Q 188.179 -36.086 188.683 -35.878 Q 189.187 -35.67 189.507 -35.294 Q 189.827 -34.918 189.827 -34.294 Q 189.827 -33.606 189.379 -33.022 Q 188.931 -32.438 188.051 -32.078 Q 187.171 -31.718 185.891 -31.718 Q 184.739 -31.718 184.051 -31.998 Q 183.363 -32.278 183.059 -32.718 Q 182.755 -33.158 182.755 -33.638 Q 182.755 -34.406 183.347 -34.878 Q 183.939 -35.35 184.691 -35.59 L 184.691 -35.654 Q 184.483 -35.782 184.299 -36.014 Q 184.115 -36.246 184.115 -36.614 Q 184.115 -37.014 184.323 -37.254 Q 184.531 -37.494 184.859 -37.646 Q 185.187 -37.798 185.507 -37.91 L 185.507 -38.006 Q 184.883 -38.278 184.419 -38.774 Q 183.955 -39.27 183.955 -40.182 Q 183.955 -41.014 184.355 -41.646 Q 184.755 -42.278 185.451 -42.63 Q 186.147 -42.982 187.011 -42.982 Q 187.587 -42.982 187.883 -42.926 Q 188.179 -42.87 188.467 -42.79 Z M 188.675 -33.702 L 188.675 -33.702 Q 188.675 -34.182 188.275 -34.478 Q 187.875 -34.774 187.283 -34.95 Q 186.691 -35.126 186.091 -35.23 Q 185.491 -35.334 185.075 -35.414 Q 184.675 -35.158 184.339 -34.83 Q 184.003 -34.502 184.003 -33.878 Q 184.003 -33.238 184.499 -32.758 Q 184.995 -32.278 186.211 -32.278 Q 187.363 -32.278 188.019 -32.702 Q 188.675 -33.126 188.675 -33.702 Z M 188.275 -40.63 L 188.275 -40.63 Q 188.275 -41.43 187.971 -41.966 Q 187.667 -42.502 186.963 -42.502 Q 186.275 -42.502 185.827 -41.926 Q 185.379 -41.35 185.379 -40.182 Q 185.379 -39.35 185.667 -38.83 Q 185.955 -38.31 186.643 -38.31 Q 187.443 -38.31 187.859 -38.982 Q 188.275 -39.654 188.275 -40.63 Z " fill="black" /><path d="M 197.454 -32.104 L 197.454 -32.104 L 195.942 -31.902 L 195.539 -31.902 L 195.539 -32.686 L 195.461 -32.686 Q 195.091 -32.372 194.626 -32.115 Q 194.162 -31.857 193.579 -31.857 Q 192.918 -31.857 192.454 -32.216 Q 191.989 -32.574 191.742 -33.201 Q 191.496 -33.828 191.496 -34.624 Q 191.496 -35.62 191.882 -36.343 Q 192.269 -37.065 192.913 -37.452 Q 193.557 -37.838 194.318 -37.838 Q 194.979 -37.838 195.517 -37.536 L 195.517 -38.98 Q 195.517 -39.384 195.433 -39.512 Q 195.349 -39.641 194.99 -39.641 Q 194.912 -39.641 194.783 -39.624 Q 194.654 -39.608 194.654 -39.608 L 194.654 -40.033 L 196.144 -40.324 L 196.603 -40.324 L 196.603 -33.224 Q 196.603 -32.787 196.726 -32.658 Q 196.85 -32.529 197.152 -32.529 L 197.454 -32.529 Z M 195.517 -33.201 L 195.517 -33.201 L 195.517 -36.472 Q 195.394 -36.785 195.108 -37.032 Q 194.822 -37.278 194.296 -37.278 Q 193.546 -37.278 193.064 -36.768 Q 192.582 -36.259 192.582 -35.083 Q 192.582 -33.884 193.002 -33.33 Q 193.422 -32.776 194.184 -32.776 Q 194.542 -32.776 194.839 -32.876 Q 195.136 -32.977 195.517 -33.201 Z " fill="black" /><path d="M 198.642 -33.996 L 198.642 -33.996 L 199 -33.996 Q 199.146 -33.347 199.347 -32.988 Q 199.549 -32.63 199.868 -32.49 Q 200.187 -32.35 200.646 -32.35 Q 201.173 -32.35 201.458 -32.524 Q 201.744 -32.697 201.744 -33.134 Q 201.744 -33.425 201.604 -33.621 Q 201.464 -33.817 201.156 -33.996 Q 200.848 -34.176 200.333 -34.411 Q 199.806 -34.668 199.431 -34.892 Q 199.056 -35.116 198.86 -35.419 Q 198.664 -35.721 198.664 -36.18 Q 198.664 -36.987 199.207 -37.412 Q 199.75 -37.838 200.568 -37.838 Q 201.061 -37.838 201.402 -37.715 Q 201.744 -37.592 201.946 -37.502 L 201.968 -37.502 L 202.147 -37.782 L 202.461 -37.782 L 202.483 -35.923 L 202.091 -35.923 Q 201.878 -36.785 201.498 -37.082 Q 201.117 -37.379 200.624 -37.379 Q 200.109 -37.379 199.846 -37.155 Q 199.582 -36.931 199.582 -36.572 Q 199.582 -36.281 199.762 -36.091 Q 199.941 -35.9 200.271 -35.738 Q 200.602 -35.576 201.061 -35.352 Q 201.576 -35.105 201.968 -34.842 Q 202.36 -34.579 202.584 -34.248 Q 202.808 -33.918 202.808 -33.425 Q 202.808 -32.832 202.494 -32.473 Q 202.181 -32.115 201.688 -31.964 Q 201.195 -31.812 200.658 -31.812 Q 200.109 -31.812 199.806 -31.924 Q 199.504 -32.036 199.246 -32.137 L 199.202 -32.137 L 198.922 -31.846 L 198.664 -31.846 Z " fill="black" /></g></g></g><g><g><g><path d="M 274.968 -34.593 L 274.968 -34.593 L 276.28 -40.897 Q 276.424 -41.521 276.416 -41.881 Q 276.408 -42.241 276.12 -42.385 Q 275.832 -42.529 275.096 -42.529 L 275.192 -43.009 L 279.624 -43.009 L 279.528 -42.529 Q 278.824 -42.529 278.472 -42.385 Q 278.12 -42.241 277.976 -41.881 Q 277.832 -41.521 277.704 -40.897 L 276.392 -34.529 Q 276.344 -34.273 276.312 -34.065 Q 276.28 -33.857 276.28 -33.681 Q 276.28 -33.233 276.544 -33.105 Q 276.808 -32.977 277.56 -32.977 L 277.464 -32.497 L 273.096 -32.497 L 273.192 -32.977 Q 273.848 -32.977 274.176 -33.089 Q 274.504 -33.201 274.664 -33.545 Q 274.824 -33.889 274.968 -34.593 Z " fill="black" /><path d="M 281.965 -37.503 L 281.965 -37.503 L 281.965 -34.031 L 282.021 -34.031 Q 282.346 -34.412 282.788 -34.714 Q 283.23 -35.017 283.858 -35.017 Q 284.44 -35.017 284.916 -34.664 Q 285.392 -34.311 285.678 -33.69 Q 285.963 -33.068 285.963 -32.262 Q 285.963 -31.186 285.571 -30.458 Q 285.179 -29.73 284.502 -29.366 Q 283.824 -29.002 282.962 -29.002 Q 282.458 -29.002 282.032 -29.086 Q 281.606 -29.17 281.31 -29.282 Q 281.013 -29.394 280.878 -29.45 L 280.878 -36.17 Q 280.878 -36.585 280.789 -36.702 Q 280.699 -36.82 280.318 -36.82 Q 280.195 -36.82 280.089 -36.803 Q 279.982 -36.786 279.982 -36.786 L 279.982 -37.212 L 281.506 -37.503 Z M 281.965 -33.449 L 281.965 -33.449 L 281.965 -30.089 Q 282.099 -29.842 282.39 -29.697 Q 282.682 -29.551 283.163 -29.551 Q 283.757 -29.551 284.115 -29.87 Q 284.474 -30.19 284.636 -30.722 Q 284.798 -31.254 284.798 -31.881 Q 284.798 -32.452 284.67 -32.973 Q 284.541 -33.494 284.216 -33.818 Q 283.891 -34.143 283.32 -34.143 Q 283.018 -34.143 282.743 -34.026 Q 282.469 -33.908 282.267 -33.746 Q 282.066 -33.583 281.965 -33.449 Z " fill="black" /><path d="M 290.051 -29.551 L 290.051 -29.551 L 290.051 -29.137 L 287.206 -29.137 L 287.206 -29.551 Q 287.598 -29.551 287.772 -29.635 Q 287.946 -29.719 287.99 -29.904 Q 288.035 -30.089 288.035 -30.391 L 288.035 -33.774 Q 288.035 -34.154 287.912 -34.233 Q 287.789 -34.311 287.498 -34.311 Q 287.352 -34.311 287.262 -34.3 Q 287.173 -34.289 287.173 -34.289 L 287.173 -34.737 L 288.674 -34.983 L 289.133 -34.983 L 289.133 -30.391 Q 289.133 -30.066 289.183 -29.882 Q 289.234 -29.697 289.43 -29.624 Q 289.626 -29.551 290.051 -29.551 Z M 288.573 -37.458 L 288.573 -37.458 Q 288.898 -37.458 289.116 -37.234 Q 289.334 -37.01 289.334 -36.719 Q 289.334 -36.45 289.116 -36.226 Q 288.898 -36.002 288.573 -36.002 Q 288.259 -36.002 288.052 -36.226 Q 287.845 -36.45 287.845 -36.719 Q 287.845 -37.01 288.052 -37.234 Q 288.259 -37.458 288.573 -37.458 Z " fill="black" /><path d="M 294.531 -29.842 L 294.531 -29.842 L 294.453 -29.842 Q 294.072 -29.529 293.613 -29.294 Q 293.154 -29.058 292.616 -29.058 Q 291.91 -29.058 291.535 -29.484 Q 291.16 -29.91 291.16 -30.514 Q 291.16 -31.03 291.401 -31.377 Q 291.642 -31.724 292.028 -31.942 Q 292.414 -32.161 292.862 -32.295 Q 293.31 -32.43 293.725 -32.508 Q 294.139 -32.586 294.419 -32.654 L 294.419 -33.236 Q 294.419 -33.986 294.122 -34.272 Q 293.826 -34.558 293.254 -34.558 Q 292.907 -34.558 292.756 -34.468 Q 292.605 -34.378 292.566 -34.177 Q 292.526 -33.975 292.515 -33.65 Q 292.504 -33.404 292.37 -33.253 Q 292.235 -33.102 291.978 -33.102 Q 291.731 -33.102 291.558 -33.253 Q 291.384 -33.404 291.384 -33.695 Q 291.384 -34.042 291.653 -34.345 Q 291.922 -34.647 292.42 -34.832 Q 292.918 -35.017 293.59 -35.017 Q 294.598 -35.017 295.052 -34.552 Q 295.506 -34.087 295.506 -33.158 L 295.506 -30.414 Q 295.506 -30.044 295.59 -29.938 Q 295.674 -29.831 295.853 -29.831 Q 296.043 -29.831 296.183 -29.91 Q 296.323 -29.988 296.446 -30.134 L 296.693 -29.898 Q 296.11 -29.07 295.326 -29.07 Q 294.89 -29.07 294.727 -29.277 Q 294.565 -29.484 294.531 -29.842 Z M 294.419 -30.257 L 294.419 -30.257 L 294.419 -32.228 Q 293.904 -32.094 293.411 -31.931 Q 292.918 -31.769 292.599 -31.489 Q 292.28 -31.209 292.28 -30.705 Q 292.28 -30.268 292.532 -30.016 Q 292.784 -29.764 293.176 -29.764 Q 293.411 -29.764 293.742 -29.87 Q 294.072 -29.977 294.419 -30.257 Z " fill="black" /><path d="M 297.466 -31.175 L 297.466 -31.175 L 297.824 -31.175 Q 297.97 -30.526 298.171 -30.167 Q 298.373 -29.809 298.692 -29.669 Q 299.011 -29.529 299.47 -29.529 Q 299.997 -29.529 300.282 -29.702 Q 300.568 -29.876 300.568 -30.313 Q 300.568 -30.604 300.428 -30.8 Q 300.288 -30.996 299.98 -31.175 Q 299.672 -31.354 299.157 -31.59 Q 298.63 -31.847 298.255 -32.071 Q 297.88 -32.295 297.684 -32.598 Q 297.488 -32.9 297.488 -33.359 Q 297.488 -34.166 298.031 -34.591 Q 298.574 -35.017 299.392 -35.017 Q 299.885 -35.017 300.226 -34.894 Q 300.568 -34.77 300.77 -34.681 L 300.792 -34.681 L 300.971 -34.961 L 301.285 -34.961 L 301.307 -33.102 L 300.915 -33.102 Q 300.702 -33.964 300.322 -34.261 Q 299.941 -34.558 299.448 -34.558 Q 298.933 -34.558 298.67 -34.334 Q 298.406 -34.11 298.406 -33.751 Q 298.406 -33.46 298.586 -33.27 Q 298.765 -33.079 299.095 -32.917 Q 299.426 -32.754 299.885 -32.53 Q 300.4 -32.284 300.792 -32.021 Q 301.184 -31.758 301.408 -31.427 Q 301.632 -31.097 301.632 -30.604 Q 301.632 -30.01 301.318 -29.652 Q 301.005 -29.294 300.512 -29.142 Q 300.019 -28.991 299.482 -28.991 Q 298.933 -28.991 298.63 -29.103 Q 298.328 -29.215 298.07 -29.316 L 298.026 -29.316 L 297.746 -29.025 L 297.488 -29.025 Z " fill="black" /></g></g></g><g><g><g><path d="M -203.422 -35.846 L -203.422 -35.846 L -199.054 -42.406 Q -198.83 -42.726 -198.694 -42.998 Q -198.558 -43.27 -198.558 -43.462 Q -198.558 -43.702 -198.766 -43.79 Q -198.974 -43.878 -199.518 -43.878 L -199.486 -44.358 L -196.03 -44.358 L -196.062 -43.878 Q -196.494 -43.878 -196.798 -43.75 Q -197.102 -43.622 -197.414 -43.262 Q -197.726 -42.902 -198.222 -42.166 L -204.094 -33.766 L -204.622 -33.766 L -205.518 -42.422 Q -205.614 -43.222 -205.87 -43.55 Q -206.126 -43.878 -206.766 -43.878 L -206.734 -44.358 L -202.814 -44.358 L -202.862 -43.878 Q -203.47 -43.878 -203.822 -43.638 Q -204.174 -43.398 -204.142 -42.854 Q -204.142 -42.774 -204.118 -42.566 Q -204.094 -42.358 -204.094 -42.278 L -203.614 -37.718 L -203.502 -35.846 Z " fill="black" /><path d="M -197.947 -32.738 L -197.947 -32.738 L -197.947 -32.782 Q -198.339 -33.018 -198.614 -33.393 Q -198.888 -33.768 -198.888 -34.362 Q -198.888 -34.989 -198.586 -35.437 Q -198.283 -35.885 -197.768 -36.126 Q -197.253 -36.366 -196.614 -36.366 Q -196.021 -36.366 -195.646 -36.238 Q -195.27 -36.109 -195.27 -36.109 L -193.624 -36.154 L -193.624 -35.493 L -194.8 -35.515 L -194.8 -35.437 Q -194.654 -35.235 -194.498 -34.961 Q -194.341 -34.686 -194.341 -34.194 Q -194.341 -33.634 -194.638 -33.225 Q -194.934 -32.816 -195.433 -32.598 Q -195.931 -32.379 -196.558 -32.379 Q -197.13 -32.379 -197.634 -32.581 Q -197.712 -32.435 -197.818 -32.166 Q -197.925 -31.898 -197.925 -31.707 Q -197.925 -31.472 -197.65 -31.36 Q -197.376 -31.248 -196.558 -31.248 Q -195.954 -31.248 -195.438 -31.22 Q -194.923 -31.192 -194.542 -31.063 Q -194.162 -30.934 -193.954 -30.649 Q -193.747 -30.363 -193.747 -29.837 Q -193.747 -29.232 -194.055 -28.812 Q -194.363 -28.392 -194.867 -28.134 Q -195.371 -27.877 -195.959 -27.759 Q -196.547 -27.642 -197.118 -27.642 Q -197.936 -27.642 -198.384 -27.843 Q -198.832 -28.045 -199.006 -28.358 Q -199.179 -28.672 -199.179 -28.997 Q -199.179 -29.31 -198.961 -29.618 Q -198.742 -29.926 -198.261 -30.374 L -198.261 -30.43 Q -198.541 -30.576 -198.731 -30.822 Q -198.922 -31.069 -198.922 -31.304 Q -198.922 -31.64 -198.625 -32.015 Q -198.328 -32.39 -197.947 -32.738 Z M -197.891 -30.318 L -197.891 -30.318 Q -198.082 -29.994 -198.149 -29.803 Q -198.216 -29.613 -198.216 -29.422 Q -198.216 -28.907 -197.796 -28.644 Q -197.376 -28.381 -196.491 -28.381 Q -195.763 -28.381 -195.315 -28.56 Q -194.867 -28.739 -194.654 -28.991 Q -194.442 -29.243 -194.442 -29.478 Q -194.442 -29.781 -194.638 -29.949 Q -194.834 -30.117 -195.136 -30.19 Q -195.438 -30.262 -195.774 -30.285 Q -196.11 -30.307 -196.402 -30.307 Q -196.48 -30.307 -196.525 -30.307 Q -197.242 -30.307 -197.505 -30.313 Q -197.768 -30.318 -197.891 -30.318 Z M -196.682 -35.874 L -196.682 -35.874 Q -197.163 -35.874 -197.46 -35.549 Q -197.757 -35.224 -197.757 -34.429 Q -197.757 -33.645 -197.443 -33.242 Q -197.13 -32.838 -196.558 -32.838 Q -196.256 -32.838 -196.01 -32.962 Q -195.763 -33.085 -195.612 -33.41 Q -195.461 -33.734 -195.461 -34.328 Q -195.461 -35.09 -195.791 -35.482 Q -196.122 -35.874 -196.682 -35.874 Z " fill="black" /><path d="M -192.638 -32.525 L -192.638 -32.525 L -192.28 -32.525 Q -192.134 -31.875 -191.933 -31.517 Q -191.731 -31.158 -191.412 -31.018 Q -191.093 -30.878 -190.634 -30.878 Q -190.107 -30.878 -189.822 -31.052 Q -189.536 -31.226 -189.536 -31.662 Q -189.536 -31.954 -189.676 -32.15 Q -189.816 -32.346 -190.124 -32.525 Q -190.432 -32.704 -190.947 -32.939 Q -191.474 -33.197 -191.849 -33.421 Q -192.224 -33.645 -192.42 -33.947 Q -192.616 -34.25 -192.616 -34.709 Q -192.616 -35.515 -192.073 -35.941 Q -191.53 -36.366 -190.712 -36.366 Q -190.219 -36.366 -189.878 -36.243 Q -189.536 -36.12 -189.334 -36.03 L -189.312 -36.03 L -189.133 -36.31 L -188.819 -36.31 L -188.797 -34.451 L -189.189 -34.451 Q -189.402 -35.314 -189.782 -35.61 Q -190.163 -35.907 -190.656 -35.907 Q -191.171 -35.907 -191.434 -35.683 Q -191.698 -35.459 -191.698 -35.101 Q -191.698 -34.81 -191.518 -34.619 Q -191.339 -34.429 -191.009 -34.266 Q -190.678 -34.104 -190.219 -33.88 Q -189.704 -33.634 -189.312 -33.37 Q -188.92 -33.107 -188.696 -32.777 Q -188.472 -32.446 -188.472 -31.954 Q -188.472 -31.36 -188.786 -31.002 Q -189.099 -30.643 -189.592 -30.492 Q -190.085 -30.341 -190.622 -30.341 Q -191.171 -30.341 -191.474 -30.453 Q -191.776 -30.565 -192.034 -30.666 L -192.078 -30.666 L -192.358 -30.374 L -192.616 -30.374 Z " fill="black" /></g></g></g></svg>