<svg xmlns="http://www.w3.org/2000/svg" xmlns:xlink="http://www.w3.org/1999/xlink" xml:lang="en" height="240.87599999999998pt" width="282.152pt" viewBox="-105.12079999999999 -63.236 282.152 240.87599999999998"><path d="M 0.0,59.99999999999999 L 0.0,45.0 L -14.999999999999998,45.0 L -14.999999999999998,14.999999999999998 L 0.0,14.999999999999998 L 0.0,-0.0" style="stroke:black;fill:none;stroke-width:2.0;stroke-dasharray:-;stroke-linecap:round;stroke-linejoin:round;" /><path d="M -9.0,45.0 L -14.999999999999998,45.0" style="stroke:black;fill:none;stroke-width:2.0;stroke-dasharray:-;stroke-linecap:round;stroke-linejoin:round;" /><path d="M -2.0 45.0 L -9.0 49.5 L -9.0 40.5 Z" style="stroke:black;fill:black;stroke-linecap:butt;stroke-linejoin:miter;" /><path d="M -17.999999999999996,42.0 L -17.999999999999996,17.999999999999996" style="stroke:black;fill:none;stroke-width:2.0;stroke-dasharray:-;stroke-linecap:round;stroke-linejoin:round;" /><path d="M -32.99999999999999,29.999999999999996 L -17.999999999999996,29.999999999999996" style="stroke:black;fill:none;stroke-width:2.0;stroke-dasharray:-;stroke-linecap:round;stroke-linejoin:round;" /><path d="M 0.0,59.99999999999999 L -1.6532731788489267e-15,69.0 L -3.3065463576978533e-15,78.0" style="stroke:black;fill:none;stroke-width:2.0;stroke-dasharray:-;stroke-linecap:round;stroke-linejoin:round;" /><path d="M -3.3065463576978533e-15,78.0 L 17.999999999999996,78.0 L 35.99999999999999,78.0" style="stroke:black;fill:none;stroke-width:2.0;stroke-dasharray:-;stroke-linecap:round;stroke-linejoin:round;" /><path d="M 35.99999999999999,78.0 L 35.99999999999999,96.0 L 44.99999999999999,99.0 L 26.999999999999993,105.0 L 44.99999999999999,110.99999999999999 L 26.99999999999999,117.0 L 44.999999999999986,123.0 L 26.999999999999986,129.0 L 35.999999999999986,132.0 L 35.999999999999986,149.99999999999997" style="stroke:black;fill:none;stroke-width:2.0;stroke-dasharray:-;stroke-linecap:round;stroke-linejoin:round;" /><path d="M 35.999999999999986,149.99999999999997 L 35.999999999999986,164.39999999999998 L 26.999999999999986,164.39999999999998 L 44.999999999999986,164.39999999999998 M 29.69999999999998,168.71999999999997 L 42.29999999999998,168.71999999999997 M 34.19999999999998,173.03999999999996 L 37.79999999999998,173.03999999999996" style="stroke:black;fill:none;stroke-width:2.0;stroke-dasharray:-;stroke-linecap:round;stroke-linejoin:round;" /><path d="M 35.99999999999999,78.0 L 54.0,78.0 L 72.0,78.0" style="stroke:black;fill:none;stroke-width:2.0;stroke-dasharray:-;stroke-linecap:round;stroke-linejoin:round;" /><path d="M 72.0,78.0 L 72.0,69.0 L 72.0,59.99999999999999" style="stroke:black;fill:none;stroke-width:2.0;stroke-dasharray:-;stroke-linecap:round;stroke-linejoin:round;" /><path d="M 72.0,-0.0 L 72.0,14.999999999999995 L 87.0,14.999999999999995 L 87.0,45.0 L 72.0,45.0 L 72.0,59.99999999999999" style="stroke:black;fill:none;stroke-width:2.0;stroke-dasharray:-;stroke-linecap:round;stroke-linejoin:round;" /><path d="M 87.0,45.0 L 81.0,45.0" style="stroke:black;fill:none;stroke-width:2.0;stroke-dasharray:-;stroke-linecap:round;stroke-linejoin:round;" /><path d="M 74.0 45.0 L 81.0 40.5 L 81.0 49.5 Z" style="stroke:black;fill:black;stroke-linecap:butt;stroke-linejoin:miter;" /><path d="M 90.0,18.0 L 90.0,42.0" style="stroke:black;fill:none;stroke-width:2.0;stroke-dasharray:-;stroke-linecap:round;stroke-linejoin:round;" /><path d="M 90.0,29.999999999999996 L 105.0,29.999999999999996" style="stroke:black;fill:none;stroke-width:2.0;stroke-dasharray:-;stroke-linecap:round;stroke-linejoin:round;" /><path d="M -32.99999999999999,29.999999999999996 L -50.99999999999999,29.999999999999993 L -69.0,29.999999999999993" style="stroke:black;fill:none;stroke-width:2.0;stroke-dasharray:-;stroke-linecap:round;stroke-linejoin:round;" /><path d="M 105.0,29.999999999999996 L 123.0,29.999999999999996 L 141.0,29.999999999999996" style="stroke:black;fill:none;stroke-width:2.0;stroke-dasharray:-;stroke-linecap:round;stroke-linejoin:round;" /><path d="M 0.0,-0.0 L 1.102182119232618e-15,-18.0 L 2.204364238465236e-15,-36.0" style="stroke:black;fill:none;stroke-width:2.0;stroke-dasharray:-;stroke-linecap:round;stroke-linejoin:round;" /><path d="M 72.0,-0.0 L 72.0,-18.0 L 72.0,-36.0" style="stroke:black;fill:none;stroke-width:2.0;stroke-dasharray:-;stroke-linecap:round;stroke-linejoin:round;" /><g><g><g><path d="M 12.883 33.576 L 12.883 33.576 L 8.611 33.576 L 8.707 33.096 Q 9.299 33.096 9.611 32.984 Q 9.923 32.872 10.083 32.56 Q 10.243 32.248 10.355 31.672 L 11.779 24.76 L 11.715 24.76 L 6.339 33.576 L 5.987 33.576 L 4.051 24.776 L 3.987 24.776 L 2.659 31.24 Q 2.499 32.056 2.523 32.456 Q 2.547 32.856 2.835 32.976 Q 3.123 33.096 3.731 33.096 L 3.635 33.576 L -0.061 33.576 L 0.035 33.096 Q 0.659 33.096 0.995 32.976 Q 1.331 32.856 1.523 32.456 Q 1.715 32.056 1.875 31.24 L 3.139 25.016 Q 3.267 24.408 3.219 24.096 Q 3.171 23.784 2.875 23.664 Q 2.579 23.544 1.939 23.544 L 2.035 23.064 L 5.235 23.064 L 6.963 31.16 L 7.027 31.16 L 11.907 23.064 L 14.931 23.064 L 14.835 23.544 Q 14.275 23.544 13.947 23.664 Q 13.619 23.784 13.443 24.096 Q 13.267 24.408 13.139 25 L 11.779 31.672 Q 11.603 32.552 11.867 32.824 Q 12.131 33.096 12.979 33.096 Z " fill="black" /><path d="M 19.77 36.936 L 19.77 36.936 L 15.973 36.936 L 15.973 36.533 Q 16.779 36.533 17.042 36.37 Q 17.306 36.208 17.306 35.782 L 17.306 30.899 Q 17.306 30.597 17.216 30.462 Q 17.126 30.328 16.891 30.328 Q 16.712 30.328 16.404 30.378 Q 16.096 30.429 15.872 30.485 L 15.872 30.037 L 17.944 29.466 L 18.426 29.466 L 18.426 35.782 Q 18.426 36.208 18.711 36.37 Q 18.997 36.533 19.77 36.533 Z " fill="black" /></g></g></g><circle cx="35.99999999999999" cy="78.0" r="2.6999999999999997" style="stroke:black;fill:black;stroke-width:2.0;stroke-dasharray:-;" /><g><g><g><path d="M 4.765 108.56 L 4.765 108.56 L 4.669 109.376 L 3.277 109.216 L 3.277 109.264 Q 3.549 109.568 3.701 110.024 Q 3.853 110.48 3.853 110.896 Q 3.853 111.616 3.565 112.104 Q 3.277 112.592 2.813 112.888 Q 2.349 113.184 1.789 113.336 Q 1.229 113.488 0.701 113.536 Q 0.061 113.6 -0.203 113.808 Q -0.467 114.016 -0.467 114.24 Q -0.467 114.528 -0.147 114.68 Q 0.173 114.832 0.677 114.928 Q 1.181 115.024 1.757 115.144 Q 2.333 115.264 2.837 115.472 Q 3.341 115.68 3.661 116.056 Q 3.981 116.432 3.981 117.056 Q 3.981 117.744 3.533 118.328 Q 3.085 118.912 2.205 119.272 Q 1.325 119.632 0.045 119.632 Q -1.107 119.632 -1.795 119.352 Q -2.483 119.072 -2.787 118.632 Q -3.091 118.192 -3.091 117.712 Q -3.091 116.944 -2.499 116.472 Q -1.907 116 -1.155 115.76 L -1.155 115.696 Q -1.363 115.568 -1.547 115.336 Q -1.731 115.104 -1.731 114.736 Q -1.731 114.336 -1.523 114.096 Q -1.315 113.856 -0.987 113.704 Q -0.659 113.552 -0.339 113.44 L -0.339 113.344 Q -0.963 113.072 -1.427 112.576 Q -1.891 112.08 -1.891 111.168 Q -1.891 110.336 -1.491 109.704 Q -1.091 109.072 -0.395 108.72 Q 0.301 108.368 1.165 108.368 Q 1.741 108.368 2.037 108.424 Q 2.333 108.48 2.621 108.56 Z M 2.829 117.648 L 2.829 117.648 Q 2.829 117.168 2.429 116.872 Q 2.029 116.576 1.437 116.4 Q 0.845 116.224 0.245 116.12 Q -0.355 116.016 -0.771 115.936 Q -1.171 116.192 -1.507 116.52 Q -1.843 116.848 -1.843 117.472 Q -1.843 118.112 -1.347 118.592 Q -0.851 119.072 0.365 119.072 Q 1.517 119.072 2.173 118.648 Q 2.829 118.224 2.829 117.648 Z M 2.429 110.72 L 2.429 110.72 Q 2.429 109.92 2.125 109.384 Q 1.821 108.848 1.117 108.848 Q 0.429 108.848 -0.019 109.424 Q -0.467 110 -0.467 111.168 Q -0.467 112 -0.179 112.52 Q 0.109 113.04 0.797 113.04 Q 1.597 113.04 2.013 112.368 Q 2.429 111.696 2.429 110.72 Z " fill="black" /><path d="M 8.83 118.272 L 8.83 118.272 L 9.088 118.485 Q 8.842 118.821 8.64 119.05 Q 8.438 119.28 8.181 119.403 Q 7.923 119.526 7.52 119.526 Q 6.87 119.526 6.574 119.157 Q 6.277 118.787 6.277 117.97 L 6.277 114.206 L 5.571 114.206 L 5.571 113.87 Q 5.974 113.579 6.31 113.159 Q 6.646 112.739 6.982 111.955 L 7.374 111.955 L 7.363 113.658 L 8.786 113.658 L 8.786 114.206 L 7.363 114.206 L 7.363 117.6 Q 7.363 118.227 7.481 118.49 Q 7.598 118.754 7.957 118.754 Q 8.282 118.754 8.45 118.636 Q 8.618 118.518 8.83 118.272 Z " fill="black" /><path d="M 13.411 118.686 L 13.411 118.686 L 13.333 118.686 Q 12.952 119 12.493 119.235 Q 12.034 119.47 11.496 119.47 Q 10.79 119.47 10.415 119.045 Q 10.04 118.619 10.04 118.014 Q 10.04 117.499 10.281 117.152 Q 10.522 116.805 10.908 116.586 Q 11.294 116.368 11.742 116.234 Q 12.19 116.099 12.605 116.021 Q 13.019 115.942 13.299 115.875 L 13.299 115.293 Q 13.299 114.542 13.002 114.257 Q 12.706 113.971 12.134 113.971 Q 11.787 113.971 11.636 114.061 Q 11.485 114.15 11.446 114.352 Q 11.406 114.554 11.395 114.878 Q 11.384 115.125 11.25 115.276 Q 11.115 115.427 10.858 115.427 Q 10.611 115.427 10.438 115.276 Q 10.264 115.125 10.264 114.834 Q 10.264 114.486 10.533 114.184 Q 10.802 113.882 11.3 113.697 Q 11.798 113.512 12.47 113.512 Q 13.478 113.512 13.932 113.977 Q 14.386 114.442 14.386 115.371 L 14.386 118.115 Q 14.386 118.485 14.47 118.591 Q 14.554 118.698 14.733 118.698 Q 14.923 118.698 15.063 118.619 Q 15.203 118.541 15.326 118.395 L 15.573 118.63 Q 14.99 119.459 14.206 119.459 Q 13.77 119.459 13.607 119.252 Q 13.445 119.045 13.411 118.686 Z M 13.299 118.272 L 13.299 118.272 L 13.299 116.301 Q 12.784 116.435 12.291 116.598 Q 11.798 116.76 11.479 117.04 Q 11.16 117.32 11.16 117.824 Q 11.16 118.261 11.412 118.513 Q 11.664 118.765 12.056 118.765 Q 12.291 118.765 12.622 118.658 Q 12.952 118.552 13.299 118.272 Z " fill="black" /><path d="M 19.09 118.978 L 19.09 118.978 L 19.09 119.392 L 16.245 119.392 L 16.245 118.978 Q 16.637 118.978 16.81 118.894 Q 16.984 118.81 17.029 118.625 Q 17.074 118.44 17.074 118.138 L 17.074 114.755 Q 17.074 114.374 16.95 114.296 Q 16.827 114.218 16.536 114.218 Q 16.39 114.218 16.301 114.229 Q 16.211 114.24 16.211 114.24 L 16.211 113.792 L 17.712 113.546 L 18.171 113.546 L 18.171 118.138 Q 18.171 118.462 18.222 118.647 Q 18.272 118.832 18.468 118.905 Q 18.664 118.978 19.09 118.978 Z M 17.611 111.07 L 17.611 111.07 Q 17.936 111.07 18.154 111.294 Q 18.373 111.518 18.373 111.81 Q 18.373 112.078 18.154 112.302 Q 17.936 112.526 17.611 112.526 Q 17.298 112.526 17.09 112.302 Q 16.883 112.078 16.883 111.81 Q 16.883 111.518 17.09 111.294 Q 17.298 111.07 17.611 111.07 Z " fill="black" /><path d="M 22.909 118.978 L 22.909 118.978 L 22.909 119.392 L 20.075 119.392 L 20.075 118.978 Q 20.467 118.978 20.641 118.899 Q 20.814 118.821 20.859 118.636 Q 20.904 118.451 20.904 118.138 L 20.904 112.224 Q 20.904 111.866 20.775 111.787 Q 20.646 111.709 20.378 111.709 Q 20.232 111.709 20.137 111.726 Q 20.042 111.742 20.042 111.742 L 20.042 111.317 L 21.565 111.026 L 22.002 111.026 L 22.002 118.138 Q 22.002 118.462 22.052 118.647 Q 22.102 118.832 22.298 118.905 Q 22.494 118.978 22.909 118.978 Z " fill="black" /></g></g></g><g><g><g><path d="M 60.115 33.576 L 60.115 33.576 L 55.843 33.576 L 55.939 33.096 Q 56.531 33.096 56.843 32.984 Q 57.155 32.872 57.315 32.56 Q 57.475 32.248 57.587 31.672 L 59.011 24.76 L 58.947 24.76 L 53.571 33.576 L 53.219 33.576 L 51.283 24.776 L 51.219 24.776 L 49.891 31.24 Q 49.731 32.056 49.755 32.456 Q 49.779 32.856 50.067 32.976 Q 50.355 33.096 50.963 33.096 L 50.867 33.576 L 47.171 33.576 L 47.267 33.096 Q 47.891 33.096 48.227 32.976 Q 48.563 32.856 48.755 32.456 Q 48.947 32.056 49.107 31.24 L 50.371 25.016 Q 50.499 24.408 50.451 24.096 Q 50.403 23.784 50.107 23.664 Q 49.811 23.544 49.171 23.544 L 49.267 23.064 L 52.467 23.064 L 54.195 31.16 L 54.259 31.16 L 59.139 23.064 L 62.163 23.064 L 62.067 23.544 Q 61.507 23.544 61.179 23.664 Q 60.851 23.784 60.675 24.096 Q 60.499 24.408 60.371 25 L 59.011 31.672 Q 58.835 32.552 59.099 32.824 Q 59.363 33.096 60.211 33.096 Z " fill="black" /><path d="M 67.64 34.987 L 67.64 34.987 L 67.259 36.936 L 62.667 36.936 L 62.667 36.387 L 64.258 34.774 Q 64.885 34.147 65.294 33.666 Q 65.702 33.184 65.904 32.697 Q 66.106 32.21 66.106 31.582 Q 66.106 30.989 65.742 30.602 Q 65.378 30.216 64.717 30.216 Q 64.112 30.216 63.703 30.457 Q 63.294 30.698 62.981 31.246 L 62.678 31.101 Q 62.958 30.317 63.546 29.869 Q 64.134 29.421 64.997 29.421 Q 65.669 29.421 66.184 29.662 Q 66.699 29.902 66.99 30.35 Q 67.282 30.798 67.282 31.437 Q 67.282 31.986 67.035 32.467 Q 66.789 32.949 66.335 33.453 Q 65.882 33.957 65.254 34.573 L 63.854 35.928 L 63.854 36.006 L 64.728 35.962 L 66.184 35.962 Q 66.509 35.962 66.682 35.872 Q 66.856 35.782 66.979 35.564 Q 67.102 35.346 67.248 34.987 Z " fill="black" /></g></g></g><circle cx="-69.0" cy="29.999999999999993" r="2.6999999999999997" style="stroke:black;fill:white;stroke-width:2.0;stroke-dasharray:-;" /><g><g><g><path d="M -100.682 30.282 L -100.682 30.282 L -96.314 23.722 Q -96.09 23.402 -95.954 23.13 Q -95.818 22.858 -95.818 22.666 Q -95.818 22.426 -96.026 22.338 Q -96.234 22.25 -96.778 22.25 L -96.746 21.77 L -93.29 21.77 L -93.322 22.25 Q -93.754 22.25 -94.058 22.378 Q -94.362 22.506 -94.674 22.866 Q -94.986 23.226 -95.482 23.962 L -101.354 32.362 L -101.882 32.362 L -102.778 23.706 Q -102.874 22.906 -103.13 22.578 Q -103.386 22.25 -104.026 22.25 L -103.994 21.77 L -100.074 21.77 L -100.122 22.25 Q -100.73 22.25 -101.082 22.49 Q -101.434 22.73 -101.402 23.274 Q -101.402 23.354 -101.378 23.562 Q -101.354 23.77 -101.354 23.85 L -100.874 28.41 L -100.762 30.282 Z " fill="black" /><path d="M -91.762 35.228 L -91.762 35.228 L -91.762 35.642 L -94.607 35.642 L -94.607 35.228 Q -94.215 35.228 -94.042 35.144 Q -93.868 35.06 -93.823 34.875 Q -93.778 34.69 -93.778 34.388 L -93.778 31.006 Q -93.778 30.625 -93.902 30.546 Q -94.025 30.468 -94.316 30.468 Q -94.462 30.468 -94.551 30.479 Q -94.641 30.49 -94.641 30.49 L -94.641 30.042 L -93.14 29.796 L -92.681 29.796 L -92.681 34.388 Q -92.681 34.713 -92.63 34.898 Q -92.58 35.082 -92.384 35.155 Q -92.188 35.228 -91.762 35.228 Z M -93.241 27.321 L -93.241 27.321 Q -92.916 27.321 -92.698 27.545 Q -92.479 27.769 -92.479 28.06 Q -92.479 28.329 -92.698 28.553 Q -92.916 28.777 -93.241 28.777 Q -93.554 28.777 -93.762 28.553 Q -93.969 28.329 -93.969 28.06 Q -93.969 27.769 -93.762 27.545 Q -93.554 27.321 -93.241 27.321 Z " fill="black" /><path d="M -85.11 31.89 L -85.11 31.89 L -85.11 34.399 Q -85.11 34.713 -85.054 34.898 Q -84.998 35.082 -84.807 35.161 Q -84.617 35.239 -84.214 35.239 L -84.214 35.642 L -87.092 35.642 L -87.092 35.239 Q -86.666 35.239 -86.476 35.161 Q -86.286 35.082 -86.241 34.898 Q -86.196 34.713 -86.196 34.399 L -86.196 32.26 Q -86.196 31.51 -86.37 31.157 Q -86.543 30.804 -86.806 30.692 Q -87.07 30.58 -87.338 30.58 Q -87.82 30.58 -88.184 30.826 Q -88.548 31.073 -88.817 31.297 L -88.817 34.399 Q -88.817 34.713 -88.766 34.898 Q -88.716 35.082 -88.526 35.161 Q -88.335 35.239 -87.921 35.239 L -87.921 35.642 L -90.743 35.642 L -90.743 35.239 Q -90.351 35.239 -90.178 35.161 Q -90.004 35.082 -89.959 34.898 Q -89.914 34.713 -89.914 34.399 L -89.914 30.994 Q -89.914 30.681 -90.032 30.574 Q -90.15 30.468 -90.407 30.468 Q -90.542 30.468 -90.631 30.479 Q -90.721 30.49 -90.721 30.49 L -90.721 30.065 L -89.22 29.796 L -88.85 29.796 L -88.85 30.714 L -88.772 30.714 Q -88.29 30.278 -87.848 30.02 Q -87.406 29.762 -86.846 29.762 Q -86.185 29.762 -85.81 30.059 Q -85.434 30.356 -85.272 30.838 Q -85.11 31.319 -85.11 31.89 Z " fill="black" /><path d="M -82.814 37.322 L -82.814 37.322 L -83.004 36.953 Q -82.769 36.852 -82.522 36.69 Q -82.276 36.527 -82.114 36.23 Q -81.951 35.934 -81.951 35.452 Q -82.142 35.53 -82.343 35.53 Q -82.713 35.53 -82.87 35.312 Q -83.026 35.094 -83.026 34.814 Q -83.026 34.511 -82.825 34.287 Q -82.623 34.063 -82.242 34.063 Q -81.761 34.063 -81.509 34.36 Q -81.257 34.657 -81.257 35.183 Q -81.257 35.721 -81.425 36.096 Q -81.593 36.471 -81.845 36.712 Q -82.097 36.953 -82.36 37.093 Q -82.623 37.233 -82.814 37.322 Z " fill="black" /><path d="M -78.905 29.796 L -78.905 29.796 L -78.905 30.759 L -78.849 30.759 Q -78.412 30.255 -77.975 30.009 Q -77.538 29.762 -77.012 29.762 Q -76.418 29.762 -75.937 30.115 Q -75.455 30.468 -75.17 31.09 Q -74.884 31.711 -74.884 32.518 Q -74.884 33.57 -75.259 34.298 Q -75.634 35.026 -76.256 35.402 Q -76.878 35.777 -77.606 35.777 Q -77.953 35.777 -78.261 35.687 Q -78.569 35.598 -78.826 35.452 L -78.882 35.452 L -78.882 36.886 Q -78.882 37.278 -78.782 37.485 Q -78.681 37.692 -78.423 37.765 Q -78.166 37.838 -77.684 37.838 L -77.684 38.23 L -80.854 38.23 L -80.854 37.849 Q -80.462 37.838 -80.277 37.765 Q -80.092 37.692 -80.03 37.502 Q -79.969 37.311 -79.969 36.964 L -79.969 31.073 Q -79.969 30.748 -80.036 30.608 Q -80.103 30.468 -80.428 30.468 Q -80.529 30.468 -80.686 30.479 Q -80.842 30.49 -80.842 30.49 L -80.842 30.042 L -79.33 29.796 Z M -78.882 31.33 L -78.882 31.33 L -78.882 34.489 Q -78.759 34.612 -78.574 34.797 Q -78.39 34.982 -78.132 35.122 Q -77.874 35.262 -77.572 35.262 Q -77.158 35.262 -76.816 35.01 Q -76.474 34.758 -76.262 34.22 Q -76.049 33.682 -76.049 32.854 Q -76.049 31.801 -76.43 31.218 Q -76.81 30.636 -77.505 30.636 Q -77.953 30.636 -78.322 30.871 Q -78.692 31.106 -78.882 31.33 Z " fill="black" /></g></g></g><circle cx="141.0" cy="29.999999999999996" r="2.6999999999999997" style="stroke:black;fill:white;stroke-width:2.0;stroke-dasharray:-;" /><g><g><g><path d="M 151.732 30.736 L 151.732 30.736 L 156.1 24.176 Q 156.324 23.856 156.46 23.584 Q 156.596 23.312 156.596 23.12 Q 156.596 22.88 156.388 22.792 Q 156.18 22.704 155.636 22.704 L 155.668 22.224 L 159.124 22.224 L 159.092 22.704 Q 158.66 22.704 158.356 22.832 Q 158.052 22.96 157.74 23.32 Q 157.428 23.68 156.932 24.416 L 151.06 32.816 L 150.532 32.816 L 149.636 24.16 Q 149.54 23.36 149.284 23.032 Q 149.028 22.704 148.388 22.704 L 148.42 22.224 L 152.34 22.224 L 152.292 22.704 Q 151.684 22.704 151.332 22.944 Q 150.98 23.184 151.012 23.728 Q 151.012 23.808 151.036 24.016 Q 151.06 24.224 151.06 24.304 L 151.54 28.864 L 151.652 30.736 Z " fill="black" /><path d="M 160.652 35.682 L 160.652 35.682 L 160.652 36.096 L 157.807 36.096 L 157.807 35.682 Q 158.199 35.682 158.373 35.598 Q 158.546 35.514 158.591 35.329 Q 158.636 35.144 158.636 34.842 L 158.636 31.459 Q 158.636 31.078 158.513 31 Q 158.39 30.922 158.098 30.922 Q 157.953 30.922 157.863 30.933 Q 157.774 30.944 157.774 30.944 L 157.774 30.496 L 159.274 30.25 L 159.734 30.25 L 159.734 34.842 Q 159.734 35.166 159.784 35.351 Q 159.834 35.536 160.03 35.609 Q 160.226 35.682 160.652 35.682 Z M 159.174 27.774 L 159.174 27.774 Q 159.498 27.774 159.717 27.998 Q 159.935 28.222 159.935 28.514 Q 159.935 28.782 159.717 29.006 Q 159.498 29.23 159.174 29.23 Q 158.86 29.23 158.653 29.006 Q 158.446 28.782 158.446 28.514 Q 158.446 28.222 158.653 27.998 Q 158.86 27.774 159.174 27.774 Z " fill="black" /><path d="M 167.305 32.344 L 167.305 32.344 L 167.305 34.853 Q 167.305 35.166 167.361 35.351 Q 167.417 35.536 167.607 35.614 Q 167.798 35.693 168.201 35.693 L 168.201 36.096 L 165.322 36.096 L 165.322 35.693 Q 165.748 35.693 165.938 35.614 Q 166.129 35.536 166.174 35.351 Q 166.218 35.166 166.218 34.853 L 166.218 32.714 Q 166.218 31.963 166.045 31.61 Q 165.871 31.258 165.608 31.146 Q 165.345 31.034 165.076 31.034 Q 164.594 31.034 164.23 31.28 Q 163.866 31.526 163.598 31.75 L 163.598 34.853 Q 163.598 35.166 163.648 35.351 Q 163.698 35.536 163.889 35.614 Q 164.079 35.693 164.494 35.693 L 164.494 36.096 L 161.671 36.096 L 161.671 35.693 Q 162.063 35.693 162.237 35.614 Q 162.41 35.536 162.455 35.351 Q 162.5 35.166 162.5 34.853 L 162.5 31.448 Q 162.5 31.134 162.382 31.028 Q 162.265 30.922 162.007 30.922 Q 161.873 30.922 161.783 30.933 Q 161.694 30.944 161.694 30.944 L 161.694 30.518 L 163.194 30.25 L 163.564 30.25 L 163.564 31.168 L 163.642 31.168 Q 164.124 30.731 164.566 30.474 Q 165.009 30.216 165.569 30.216 Q 166.23 30.216 166.605 30.513 Q 166.98 30.81 167.142 31.291 Q 167.305 31.773 167.305 32.344 Z " fill="black" /><path d="M 169.601 37.776 L 169.601 37.776 L 169.41 37.406 Q 169.646 37.306 169.892 37.143 Q 170.138 36.981 170.301 36.684 Q 170.463 36.387 170.463 35.906 Q 170.273 35.984 170.071 35.984 Q 169.702 35.984 169.545 35.766 Q 169.388 35.547 169.388 35.267 Q 169.388 34.965 169.59 34.741 Q 169.791 34.517 170.172 34.517 Q 170.654 34.517 170.906 34.814 Q 171.158 35.11 171.158 35.637 Q 171.158 36.174 170.99 36.55 Q 170.822 36.925 170.57 37.166 Q 170.318 37.406 170.054 37.546 Q 169.791 37.686 169.601 37.776 Z " fill="black" /><path d="M 177.362 32.344 L 177.362 32.344 L 177.362 34.853 Q 177.362 35.166 177.418 35.351 Q 177.474 35.536 177.665 35.614 Q 177.855 35.693 178.258 35.693 L 178.258 36.096 L 175.38 36.096 L 175.38 35.693 Q 175.806 35.693 175.996 35.614 Q 176.186 35.536 176.231 35.351 Q 176.276 35.166 176.276 34.853 L 176.276 32.714 Q 176.276 31.963 176.102 31.61 Q 175.929 31.258 175.666 31.146 Q 175.402 31.034 175.134 31.034 Q 174.652 31.034 174.288 31.28 Q 173.924 31.526 173.655 31.75 L 173.655 34.853 Q 173.655 35.166 173.706 35.351 Q 173.756 35.536 173.946 35.614 Q 174.137 35.693 174.551 35.693 L 174.551 36.096 L 171.729 36.096 L 171.729 35.693 Q 172.121 35.693 172.294 35.614 Q 172.468 35.536 172.513 35.351 Q 172.558 35.166 172.558 34.853 L 172.558 31.448 Q 172.558 31.134 172.44 31.028 Q 172.322 30.922 172.065 30.922 Q 171.93 30.922 171.841 30.933 Q 171.751 30.944 171.751 30.944 L 171.751 30.518 L 173.252 30.25 L 173.622 30.25 L 173.622 31.168 L 173.7 31.168 Q 174.182 30.731 174.624 30.474 Q 175.066 30.216 175.626 30.216 Q 176.287 30.216 176.662 30.513 Q 177.038 30.81 177.2 31.291 Q 177.362 31.773 177.362 32.344 Z " fill="black" /></g></g></g><circle cx="2.204364238465236e-15" cy="-36.0" r="2.6999999999999997" style="stroke:black;fill:white;stroke-width:2.0;stroke-dasharray:-;" /><g><g><g><path d="M -15.658 -50.343 L -15.658 -50.343 L -14.346 -56.647 Q -14.202 -57.271 -14.21 -57.631 Q -14.218 -57.991 -14.506 -58.135 Q -14.794 -58.279 -15.53 -58.279 L -15.434 -58.759 L -11.002 -58.759 L -11.098 -58.279 Q -11.802 -58.279 -12.154 -58.135 Q -12.506 -57.991 -12.65 -57.631 Q -12.794 -57.271 -12.922 -56.647 L -14.234 -50.279 Q -14.282 -50.023 -14.314 -49.815 Q -14.346 -49.607 -14.346 -49.431 Q -14.346 -48.983 -14.082 -48.855 Q -13.818 -48.727 -13.066 -48.727 L -13.162 -48.247 L -17.53 -48.247 L -17.434 -48.727 Q -16.778 -48.727 -16.45 -48.839 Q -16.122 -48.951 -15.962 -49.295 Q -15.802 -49.639 -15.658 -50.343 Z " fill="black" /><path d="M -7.542 -50.767 L -7.542 -50.767 Q -6.702 -50.767 -6.074 -50.403 Q -5.447 -50.039 -5.106 -49.384 Q -4.764 -48.729 -4.764 -47.844 Q -4.764 -46.78 -5.122 -46.097 Q -5.481 -45.414 -6.108 -45.083 Q -6.735 -44.753 -7.542 -44.753 Q -8.359 -44.753 -8.992 -45.094 Q -9.625 -45.436 -9.978 -46.119 Q -10.33 -46.802 -10.33 -47.833 Q -10.33 -48.706 -9.983 -49.367 Q -9.636 -50.028 -9.009 -50.398 Q -8.382 -50.767 -7.542 -50.767 Z M -7.564 -50.252 L -7.564 -50.252 Q -8.303 -50.252 -8.723 -49.653 Q -9.143 -49.054 -9.143 -47.9 Q -9.143 -46.478 -8.712 -45.89 Q -8.281 -45.302 -7.508 -45.302 Q -7.015 -45.313 -6.668 -45.548 Q -6.321 -45.783 -6.136 -46.338 Q -5.951 -46.892 -5.951 -47.844 Q -5.951 -48.986 -6.343 -49.619 Q -6.735 -50.252 -7.564 -50.252 Z " fill="black" /><path d="M 2.852 -45.458 L 2.852 -45.458 L 2.852 -45.033 L 1.34 -44.831 L 0.982 -44.831 L 0.982 -45.705 L 0.87 -45.705 Q 0.444 -45.324 0.007 -45.05 Q -0.43 -44.775 -1.046 -44.775 Q -1.874 -44.775 -2.311 -45.279 Q -2.748 -45.783 -2.748 -47.026 L -2.748 -49.434 Q -2.748 -49.894 -2.91 -50 Q -3.073 -50.106 -3.588 -50.106 L -3.588 -50.51 L -2.031 -50.722 L -1.662 -50.722 L -1.662 -47.172 Q -1.662 -46.545 -1.516 -46.198 Q -1.37 -45.85 -1.124 -45.716 Q -0.878 -45.582 -0.586 -45.582 Q -0.094 -45.582 0.237 -45.789 Q 0.567 -45.996 0.926 -46.287 L 0.926 -49.434 Q 0.926 -49.894 0.724 -50 Q 0.522 -50.106 -0.049 -50.106 L -0.049 -50.51 L 1.62 -50.722 L 2.012 -50.722 L 2.012 -46.186 Q 2.012 -45.85 2.074 -45.694 Q 2.135 -45.537 2.292 -45.498 Q 2.449 -45.458 2.729 -45.458 Z " fill="black" /><path d="M 7.22 -46.007 L 7.22 -46.007 L 7.478 -45.794 Q 7.231 -45.458 7.03 -45.229 Q 6.828 -44.999 6.57 -44.876 Q 6.313 -44.753 5.91 -44.753 Q 5.26 -44.753 4.963 -45.122 Q 4.666 -45.492 4.666 -46.31 L 4.666 -50.073 L 3.961 -50.073 L 3.961 -50.409 Q 4.364 -50.7 4.7 -51.12 Q 5.036 -51.54 5.372 -52.324 L 5.764 -52.324 L 5.753 -50.622 L 7.175 -50.622 L 7.175 -50.073 L 5.753 -50.073 L 5.753 -46.679 Q 5.753 -46.052 5.87 -45.789 Q 5.988 -45.526 6.346 -45.526 Q 6.671 -45.526 6.839 -45.643 Q 7.007 -45.761 7.22 -46.007 Z " fill="black" /><path d="M 8.721 -43.207 L 8.721 -43.207 L 8.53 -43.577 Q 8.766 -43.678 9.012 -43.84 Q 9.258 -44.002 9.421 -44.299 Q 9.583 -44.596 9.583 -45.078 Q 9.393 -44.999 9.191 -44.999 Q 8.822 -44.999 8.665 -45.218 Q 8.508 -45.436 8.508 -45.716 Q 8.508 -46.018 8.71 -46.242 Q 8.911 -46.466 9.292 -46.466 Q 9.774 -46.466 10.026 -46.17 Q 10.278 -45.873 10.278 -45.346 Q 10.278 -44.809 10.11 -44.434 Q 9.942 -44.058 9.69 -43.818 Q 9.438 -43.577 9.174 -43.437 Q 8.911 -43.297 8.721 -43.207 Z " fill="black" /><path d="M 12.63 -50.734 L 12.63 -50.734 L 12.63 -49.77 L 12.686 -49.77 Q 13.122 -50.274 13.559 -50.521 Q 13.996 -50.767 14.522 -50.767 Q 15.116 -50.767 15.598 -50.414 Q 16.079 -50.062 16.365 -49.44 Q 16.65 -48.818 16.65 -48.012 Q 16.65 -46.959 16.275 -46.231 Q 15.9 -45.503 15.278 -45.128 Q 14.657 -44.753 13.929 -44.753 Q 13.582 -44.753 13.274 -44.842 Q 12.966 -44.932 12.708 -45.078 L 12.652 -45.078 L 12.652 -43.644 Q 12.652 -43.252 12.753 -43.045 Q 12.854 -42.838 13.111 -42.765 Q 13.369 -42.692 13.85 -42.692 L 13.85 -42.3 L 10.681 -42.3 L 10.681 -42.681 Q 11.073 -42.692 11.258 -42.765 Q 11.442 -42.838 11.504 -43.028 Q 11.566 -43.218 11.566 -43.566 L 11.566 -49.457 Q 11.566 -49.782 11.498 -49.922 Q 11.431 -50.062 11.106 -50.062 Q 11.006 -50.062 10.849 -50.05 Q 10.692 -50.039 10.692 -50.039 L 10.692 -50.487 L 12.204 -50.734 Z M 12.652 -49.199 L 12.652 -49.199 L 12.652 -46.041 Q 12.775 -45.918 12.96 -45.733 Q 13.145 -45.548 13.402 -45.408 Q 13.66 -45.268 13.962 -45.268 Q 14.377 -45.268 14.718 -45.52 Q 15.06 -45.772 15.273 -46.31 Q 15.486 -46.847 15.486 -47.676 Q 15.486 -48.729 15.105 -49.311 Q 14.724 -49.894 14.03 -49.894 Q 13.582 -49.894 13.212 -49.658 Q 12.842 -49.423 12.652 -49.199 Z " fill="black" /></g></g></g><circle cx="72.0" cy="-36.0" r="2.6999999999999997" style="stroke:black;fill:white;stroke-width:2.0;stroke-dasharray:-;" /><g><g><g><path d="M 56.09 -49.436 L 56.09 -49.436 L 57.402 -55.74 Q 57.546 -56.364 57.538 -56.724 Q 57.53 -57.084 57.242 -57.228 Q 56.954 -57.372 56.218 -57.372 L 56.314 -57.852 L 60.746 -57.852 L 60.65 -57.372 Q 59.946 -57.372 59.594 -57.228 Q 59.242 -57.084 59.098 -56.724 Q 58.954 -56.364 58.826 -55.74 L 57.514 -49.372 Q 57.466 -49.116 57.434 -48.908 Q 57.402 -48.7 57.402 -48.524 Q 57.402 -48.076 57.666 -47.948 Q 57.93 -47.82 58.682 -47.82 L 58.586 -47.34 L 54.218 -47.34 L 54.314 -47.82 Q 54.97 -47.82 55.298 -47.932 Q 55.626 -48.044 55.786 -48.388 Q 55.946 -48.732 56.09 -49.436 Z " fill="black" /><path d="M 64.206 -49.86 L 64.206 -49.86 Q 65.046 -49.86 65.674 -49.496 Q 66.301 -49.132 66.642 -48.477 Q 66.984 -47.822 66.984 -46.937 Q 66.984 -45.873 66.626 -45.19 Q 66.267 -44.506 65.64 -44.176 Q 65.013 -43.846 64.206 -43.846 Q 63.389 -43.846 62.756 -44.187 Q 62.123 -44.529 61.77 -45.212 Q 61.418 -45.895 61.418 -46.926 Q 61.418 -47.799 61.765 -48.46 Q 62.112 -49.121 62.739 -49.49 Q 63.366 -49.86 64.206 -49.86 Z M 64.184 -49.345 L 64.184 -49.345 Q 63.445 -49.345 63.025 -48.746 Q 62.605 -48.146 62.605 -46.993 Q 62.605 -45.57 63.036 -44.982 Q 63.467 -44.394 64.24 -44.394 Q 64.733 -44.406 65.08 -44.641 Q 65.427 -44.876 65.612 -45.43 Q 65.797 -45.985 65.797 -46.937 Q 65.797 -48.079 65.405 -48.712 Q 65.013 -49.345 64.184 -49.345 Z " fill="black" /><path d="M 74.6 -44.551 L 74.6 -44.551 L 74.6 -44.126 L 73.088 -43.924 L 72.73 -43.924 L 72.73 -44.798 L 72.618 -44.798 Q 72.192 -44.417 71.755 -44.142 Q 71.318 -43.868 70.702 -43.868 Q 69.874 -43.868 69.437 -44.372 Q 69 -44.876 69 -46.119 L 69 -48.527 Q 69 -48.986 68.838 -49.093 Q 68.675 -49.199 68.16 -49.199 L 68.16 -49.602 L 69.717 -49.815 L 70.086 -49.815 L 70.086 -46.265 Q 70.086 -45.638 70.232 -45.29 Q 70.378 -44.943 70.624 -44.809 Q 70.87 -44.674 71.162 -44.674 Q 71.654 -44.674 71.985 -44.882 Q 72.315 -45.089 72.674 -45.38 L 72.674 -48.527 Q 72.674 -48.986 72.472 -49.093 Q 72.27 -49.199 71.699 -49.199 L 71.699 -49.602 L 73.368 -49.815 L 73.76 -49.815 L 73.76 -45.279 Q 73.76 -44.943 73.822 -44.786 Q 73.883 -44.63 74.04 -44.59 Q 74.197 -44.551 74.477 -44.551 Z " fill="black" /><path d="M 78.968 -45.1 L 78.968 -45.1 L 79.226 -44.887 Q 78.979 -44.551 78.778 -44.322 Q 78.576 -44.092 78.318 -43.969 Q 78.061 -43.846 77.658 -43.846 Q 77.008 -43.846 76.711 -44.215 Q 76.414 -44.585 76.414 -45.402 L 76.414 -49.166 L 75.709 -49.166 L 75.709 -49.502 Q 76.112 -49.793 76.448 -50.213 Q 76.784 -50.633 77.12 -51.417 L 77.512 -51.417 L 77.501 -49.714 L 78.923 -49.714 L 78.923 -49.166 L 77.501 -49.166 L 77.501 -45.772 Q 77.501 -45.145 77.618 -44.882 Q 77.736 -44.618 78.094 -44.618 Q 78.419 -44.618 78.587 -44.736 Q 78.755 -44.854 78.968 -45.1 Z " fill="black" /><path d="M 80.469 -42.3 L 80.469 -42.3 L 80.278 -42.67 Q 80.514 -42.77 80.76 -42.933 Q 81.006 -43.095 81.169 -43.392 Q 81.331 -43.689 81.331 -44.17 Q 81.141 -44.092 80.939 -44.092 Q 80.57 -44.092 80.413 -44.31 Q 80.256 -44.529 80.256 -44.809 Q 80.256 -45.111 80.458 -45.335 Q 80.659 -45.559 81.04 -45.559 Q 81.522 -45.559 81.774 -45.262 Q 82.026 -44.966 82.026 -44.439 Q 82.026 -43.902 81.858 -43.526 Q 81.69 -43.151 81.438 -42.91 Q 81.186 -42.67 80.922 -42.53 Q 80.659 -42.39 80.469 -42.3 Z " fill="black" /><path d="M 88.23 -47.732 L 88.23 -47.732 L 88.23 -45.223 Q 88.23 -44.91 88.286 -44.725 Q 88.342 -44.54 88.533 -44.462 Q 88.723 -44.383 89.126 -44.383 L 89.126 -43.98 L 86.248 -43.98 L 86.248 -44.383 Q 86.674 -44.383 86.864 -44.462 Q 87.054 -44.54 87.099 -44.725 Q 87.144 -44.91 87.144 -45.223 L 87.144 -47.362 Q 87.144 -48.113 86.97 -48.466 Q 86.797 -48.818 86.534 -48.93 Q 86.27 -49.042 86.002 -49.042 Q 85.52 -49.042 85.156 -48.796 Q 84.792 -48.55 84.523 -48.326 L 84.523 -45.223 Q 84.523 -44.91 84.574 -44.725 Q 84.624 -44.54 84.814 -44.462 Q 85.005 -44.383 85.419 -44.383 L 85.419 -43.98 L 82.597 -43.98 L 82.597 -44.383 Q 82.989 -44.383 83.162 -44.462 Q 83.336 -44.54 83.381 -44.725 Q 83.426 -44.91 83.426 -45.223 L 83.426 -48.628 Q 83.426 -48.942 83.308 -49.048 Q 83.19 -49.154 82.933 -49.154 Q 82.798 -49.154 82.709 -49.143 Q 82.619 -49.132 82.619 -49.132 L 82.619 -49.558 L 84.12 -49.826 L 84.49 -49.826 L 84.49 -48.908 L 84.568 -48.908 Q 85.05 -49.345 85.492 -49.602 Q 85.934 -49.86 86.494 -49.86 Q 87.155 -49.86 87.53 -49.563 Q 87.906 -49.266 88.068 -48.785 Q 88.23 -48.303 88.23 -47.732 Z " fill="black" /></g></g></g></svg>