<svg xmlns="http://www.w3.org/2000/svg" xmlns:xlink="http://www.w3.org/1999/xlink" xml:lang="en" height="139.79pt" width="511.6104pt" viewBox="-114.6104 -97.75 511.6104 139.79"><circle cx="108" cy="-36" r="18" style="stroke:black;fill:none;stroke-width:2.0;stroke-dasharray:-;" /><path d="M 0.0,-0.0 L 0,-32.76 M -9,-32.76 L 9,-32.76 M -9,-39.24 L 9,-39.24 M 0,-39.24 L 0,-72" style="stroke:black;fill:none;stroke-width:2.0;stroke-dasharray:-;stroke-linecap:round;stroke-linejoin:round;" /><path d="M 4.408728476930472e-15,-72.0 L 18,-72 L 36,-72" style="stroke:black;fill:none;stroke-width:2.0;stroke-dasharray:-;stroke-linecap:round;stroke-linejoin:round;" /><path d="M 29.250000000000007,-65.25 L 42.75,-78.75" style="stroke:red;fill:none;stroke-width:2.0;stroke-dasharray:-;stroke-linecap:round;stroke-linejoin:round;" /><path d="M 29.250000000000007,-78.75 L 42.75,-65.25" style="stroke:red;fill:none;stroke-width:2.0;stroke-dasharray:-;stroke-linecap:round;stroke-linejoin:round;" /><path d="M 65.25,-65.25 L 78.75,-78.75" style="stroke:red;fill:none;stroke-width:2.0;stroke-dasharray:-;stroke-linecap:round;stroke-linejoin:round;" /><path d="M 65.25,-78.75 L 78.75,-65.25" style="stroke:red;fill:none;stroke-width:2.0;stroke-dasharray:-;stroke-linecap:round;stroke-linejoin:round;" /><path d="M 72.0,-72.0 L 90,-72 L 108,-72" style="stroke:black;fill:none;stroke-width:2.0;stroke-dasharray:-;stroke-linecap:round;stroke-linejoin:round;" /><path d="M 108.0,-72.0 L 108,-54 L 108,-54 M 108,-18 L 108,-18 L 108,-0" style="stroke:black;fill:none;stroke-width:2.0;stroke-dasharray:-;stroke-linecap:round;stroke-linejoin:round;" /><path d="M 108.0,-45.0 L 108,-36" style="stroke:black;fill:none;stroke-width:2.0;stroke-dasharray:-;stroke-linecap:round;stroke-linejoin:round;" /><path d="M 108 -29 L 105.3 -36 L 110.7 -36 Z" style="stroke:black;fill:black;stroke-linecap:butt;stroke-linejoin:miter;" /><path d="M 107.99999999999999,-0.0 L 108,14.4 L 99,14.4 L 117,14.4 M 101.7,18.72 L 114.3,18.72 M 106.2,23.04 L 109.8,23.04" style="stroke:black;fill:none;stroke-width:2.0;stroke-dasharray:-;stroke-linecap:round;stroke-linejoin:round;" /><path d="M 107.99999999999999,-0.0 L 54,-0 L -0,-0" style="stroke:black;fill:none;stroke-width:2.0;stroke-dasharray:-;stroke-linecap:round;stroke-linejoin:round;" /><path d="M 107.99999999999999,-0.0 L 162,-0 L 216,-0" style="stroke:black;fill:none;stroke-width:2.0;stroke-dasharray:-;stroke-linecap:round;stroke-linejoin:round;" /><path d="M 216.0,-0.0 L 216,-18 L 207,-21 L 225,-27 L 207,-33 L 225,-39 L 207,-45 L 225,-51 L 216,-54 L 216,-72" style="stroke:black;fill:none;stroke-width:2.0;stroke-dasharray:-;stroke-linecap:round;stroke-linejoin:round;" /><path d="M 216.0,-72.0 L 162,-72 L 108,-72" style="stroke:black;fill:none;stroke-width:2.0;stroke-dasharray:-;stroke-linecap:round;stroke-linejoin:round;" /><path d="M 216.0,-72.0 L 270,-72 L 324,-72" style="stroke:black;fill:none;stroke-width:2.0;stroke-dasharray:-;stroke-linecap:round;stroke-linejoin:round;" /><path d="M 324.0,-0.0 L 324,-32.76 M 315,-32.76 L 333,-32.76 M 315,-39.24 L 333,-39.24 M 324,-39.24 L 324,-72" style="stroke:blue;fill:none;stroke-width:2.0;stroke-dasharray:-;stroke-linecap:round;stroke-linejoin:round;" /><path d="M 378.0,-72.0 L 378,-36 L 378,-9" style="stroke:black;fill:none;stroke-width:2.0;stroke-dasharray:-;stroke-linecap:round;stroke-linejoin:round;" /><path d="M 378 -2 L 375.3 -9 L 380.7 -9 Z" style="stroke:black;fill:black;stroke-linecap:butt;stroke-linejoin:miter;" /><path d="M 324.0,-0.0 L 270,-0 L 216,-0" style="stroke:black;fill:none;stroke-width:2.0;stroke-dasharray:-;stroke-linecap:round;stroke-linejoin:round;" /><path d="M -71.99999999999999,-72.0 L -72,-36 L -72,-9" style="stroke:black;fill:none;stroke-width:2.0;stroke-dasharray:-;stroke-linecap:round;stroke-linejoin:round;" /><path d="M -72 -2 L -74.7 -9 L -69.3 -9 Z" style="stroke:black;fill:black;stroke-linecap:butt;stroke-linejoin:miter;" /><g><g><g><path d="M -23.022 -36.055 L -23.022 -36.055 L -22.77 -35.789 Q -23.484 -34.949 -24.422 -34.41 Q -25.36 -33.871 -26.69 -33.871 Q -27.95 -33.871 -28.706 -34.34 Q -29.462 -34.809 -29.791 -35.593 Q -30.12 -36.377 -30.12 -37.301 Q -30.12 -38.771 -29.672 -39.912 Q -29.224 -41.053 -28.447 -41.83 Q -27.67 -42.607 -26.69 -43.006 Q -25.71 -43.405 -24.646 -43.405 Q -23.932 -43.405 -23.533 -43.279 Q -23.134 -43.153 -22.91 -43.02 Q -22.686 -42.887 -22.518 -42.887 Q -22.35 -42.887 -22.224 -43.027 Q -22.098 -43.167 -21.93 -43.391 L -21.524 -43.391 L -22.182 -40.185 L -22.644 -40.185 Q -22.588 -41.585 -23.162 -42.194 Q -23.736 -42.803 -24.772 -42.803 Q -25.584 -42.803 -26.298 -42.432 Q -27.012 -42.061 -27.565 -41.382 Q -28.118 -40.703 -28.433 -39.758 Q -28.748 -38.813 -28.748 -37.651 Q -28.748 -36.251 -28.083 -35.516 Q -27.418 -34.781 -26.032 -34.781 Q -24.422 -34.781 -23.022 -36.055 Z " fill="black" /><path d="M -20.541 -33.054 L -20.541 -33.054 L -20.541 -33.094 Q -20.884 -33.299 -21.124 -33.628 Q -21.364 -33.956 -21.364 -34.475 Q -21.364 -35.024 -21.099 -35.416 Q -20.835 -35.808 -20.384 -36.019 Q -19.933 -36.23 -19.375 -36.23 Q -18.855 -36.23 -18.527 -36.117 Q -18.199 -36.004 -18.199 -36.004 L -16.758 -36.043 L -16.758 -35.465 L -17.787 -35.485 L -17.787 -35.416 Q -17.66 -35.24 -17.522 -35 Q -17.385 -34.76 -17.385 -34.328 Q -17.385 -33.838 -17.645 -33.481 Q -17.905 -33.123 -18.341 -32.932 Q -18.777 -32.741 -19.326 -32.741 Q -19.825 -32.741 -20.266 -32.917 Q -20.335 -32.79 -20.428 -32.555 Q -20.521 -32.319 -20.521 -32.153 Q -20.521 -31.947 -20.281 -31.849 Q -20.041 -31.751 -19.326 -31.751 Q -18.796 -31.751 -18.346 -31.726 Q -17.895 -31.702 -17.562 -31.589 Q -17.228 -31.477 -17.047 -31.227 Q -16.866 -30.977 -16.866 -30.516 Q -16.866 -29.987 -17.135 -29.619 Q -17.405 -29.252 -17.846 -29.027 Q -18.287 -28.801 -18.801 -28.698 Q -19.316 -28.595 -19.816 -28.595 Q -20.531 -28.595 -20.923 -28.772 Q -21.315 -28.948 -21.467 -29.223 Q -21.619 -29.497 -21.619 -29.781 Q -21.619 -30.056 -21.428 -30.325 Q -21.237 -30.595 -20.815 -30.987 L -20.815 -31.036 Q -21.06 -31.163 -21.227 -31.379 Q -21.393 -31.594 -21.393 -31.8 Q -21.393 -32.094 -21.134 -32.422 Q -20.874 -32.751 -20.541 -33.054 Z M -20.492 -30.938 L -20.492 -30.938 Q -20.658 -30.653 -20.717 -30.487 Q -20.776 -30.32 -20.776 -30.154 Q -20.776 -29.703 -20.409 -29.473 Q -20.041 -29.242 -19.267 -29.242 Q -18.63 -29.242 -18.238 -29.399 Q -17.846 -29.556 -17.66 -29.776 Q -17.473 -29.997 -17.473 -30.203 Q -17.473 -30.467 -17.645 -30.614 Q -17.816 -30.761 -18.081 -30.825 Q -18.346 -30.889 -18.64 -30.908 Q -18.934 -30.928 -19.188 -30.928 Q -19.257 -30.928 -19.296 -30.928 Q -19.923 -30.928 -20.154 -30.933 Q -20.384 -30.938 -20.492 -30.938 Z M -19.433 -35.798 L -19.433 -35.798 Q -19.855 -35.798 -20.114 -35.514 Q -20.374 -35.23 -20.374 -34.534 Q -20.374 -33.848 -20.1 -33.495 Q -19.825 -33.143 -19.326 -33.143 Q -19.061 -33.143 -18.845 -33.25 Q -18.63 -33.358 -18.497 -33.642 Q -18.365 -33.927 -18.365 -34.446 Q -18.365 -35.112 -18.654 -35.455 Q -18.943 -35.798 -19.433 -35.798 Z " fill="black" /><path d="M -15.896 -32.868 L -15.896 -32.868 L -15.582 -32.868 Q -15.455 -32.3 -15.278 -31.986 Q -15.102 -31.673 -14.822 -31.55 Q -14.543 -31.428 -14.141 -31.428 Q -13.681 -31.428 -13.431 -31.579 Q -13.181 -31.731 -13.181 -32.114 Q -13.181 -32.368 -13.303 -32.54 Q -13.426 -32.711 -13.695 -32.868 Q -13.965 -33.025 -14.416 -33.231 Q -14.876 -33.456 -15.205 -33.652 Q -15.533 -33.848 -15.704 -34.113 Q -15.876 -34.377 -15.876 -34.779 Q -15.876 -35.485 -15.401 -35.857 Q -14.925 -36.23 -14.21 -36.23 Q -13.779 -36.23 -13.48 -36.122 Q -13.181 -36.014 -13.005 -35.936 L -12.985 -35.936 L -12.828 -36.181 L -12.554 -36.181 L -12.534 -34.554 L -12.877 -34.554 Q -13.063 -35.308 -13.397 -35.568 Q -13.73 -35.828 -14.161 -35.828 Q -14.612 -35.828 -14.842 -35.632 Q -15.072 -35.436 -15.072 -35.122 Q -15.072 -34.867 -14.916 -34.701 Q -14.759 -34.534 -14.47 -34.392 Q -14.181 -34.25 -13.779 -34.054 Q -13.328 -33.838 -12.985 -33.608 Q -12.642 -33.378 -12.446 -33.089 Q -12.25 -32.8 -12.25 -32.368 Q -12.25 -31.849 -12.524 -31.535 Q -12.799 -31.222 -13.23 -31.089 Q -13.661 -30.957 -14.132 -30.957 Q -14.612 -30.957 -14.876 -31.055 Q -15.141 -31.153 -15.366 -31.241 L -15.406 -31.241 L -15.651 -30.987 L -15.876 -30.987 Z " fill="black" /></g></g></g><circle cx="108" cy="-72" r="2.7" style="stroke:black;fill:black;stroke-width:2.0;stroke-dasharray:-;" /><circle cx="108" cy="-0" r="2.7" style="stroke:black;fill:black;stroke-width:2.0;stroke-dasharray:-;" /><g><g><g><path d="M 57.892 -38.164 L 57.892 -38.164 L 57.808 -37.45 L 56.59 -37.59 L 56.59 -37.548 Q 56.828 -37.282 56.961 -36.883 Q 57.094 -36.484 57.094 -36.12 Q 57.094 -35.49 56.842 -35.063 Q 56.59 -34.636 56.184 -34.377 Q 55.778 -34.118 55.288 -33.985 Q 54.798 -33.852 54.336 -33.81 Q 53.776 -33.754 53.545 -33.572 Q 53.314 -33.39 53.314 -33.194 Q 53.314 -32.942 53.594 -32.809 Q 53.874 -32.676 54.315 -32.592 Q 54.756 -32.508 55.26 -32.403 Q 55.764 -32.298 56.205 -32.116 Q 56.646 -31.934 56.926 -31.605 Q 57.206 -31.276 57.206 -30.73 Q 57.206 -30.128 56.814 -29.617 Q 56.422 -29.106 55.652 -28.791 Q 54.882 -28.476 53.762 -28.476 Q 52.754 -28.476 52.152 -28.721 Q 51.55 -28.966 51.284 -29.351 Q 51.018 -29.736 51.018 -30.156 Q 51.018 -30.828 51.536 -31.241 Q 52.054 -31.654 52.712 -31.864 L 52.712 -31.92 Q 52.53 -32.032 52.369 -32.235 Q 52.208 -32.438 52.208 -32.76 Q 52.208 -33.11 52.39 -33.32 Q 52.572 -33.53 52.859 -33.663 Q 53.146 -33.796 53.426 -33.894 L 53.426 -33.978 Q 52.88 -34.216 52.474 -34.65 Q 52.068 -35.084 52.068 -35.882 Q 52.068 -36.61 52.418 -37.163 Q 52.768 -37.716 53.377 -38.024 Q 53.986 -38.332 54.742 -38.332 Q 55.246 -38.332 55.505 -38.283 Q 55.764 -38.234 56.016 -38.164 Z M 56.198 -30.212 L 56.198 -30.212 Q 56.198 -30.632 55.848 -30.891 Q 55.498 -31.15 54.98 -31.304 Q 54.462 -31.458 53.937 -31.549 Q 53.412 -31.64 53.048 -31.71 Q 52.698 -31.486 52.404 -31.199 Q 52.11 -30.912 52.11 -30.366 Q 52.11 -29.806 52.544 -29.386 Q 52.978 -28.966 54.042 -28.966 Q 55.05 -28.966 55.624 -29.337 Q 56.198 -29.708 56.198 -30.212 Z M 55.848 -36.274 L 55.848 -36.274 Q 55.848 -36.974 55.582 -37.443 Q 55.316 -37.912 54.7 -37.912 Q 54.098 -37.912 53.706 -37.408 Q 53.314 -36.904 53.314 -35.882 Q 53.314 -35.154 53.566 -34.699 Q 53.818 -34.244 54.42 -34.244 Q 55.12 -34.244 55.484 -34.832 Q 55.848 -35.42 55.848 -36.274 Z " fill="black" /><path d="M 60.283 -32.479 L 60.283 -32.479 L 60.283 -29.764 Q 60.283 -29.47 60.342 -29.313 Q 60.401 -29.156 60.567 -29.102 Q 60.734 -29.049 61.057 -29.049 L 61.057 -28.686 L 58.588 -28.686 L 58.588 -29.049 Q 58.901 -29.049 59.058 -29.102 Q 59.215 -29.156 59.264 -29.318 Q 59.313 -29.48 59.313 -29.784 L 59.313 -32.753 Q 59.313 -33.027 59.21 -33.12 Q 59.107 -33.214 58.882 -33.214 Q 58.774 -33.214 58.69 -33.204 Q 58.607 -33.194 58.607 -33.194 L 58.607 -33.566 L 59.891 -33.802 L 60.254 -33.802 L 60.254 -32.998 L 60.322 -32.998 Q 60.734 -33.37 61.145 -33.601 Q 61.557 -33.831 62.116 -33.831 Q 62.576 -33.831 62.865 -33.596 Q 63.154 -33.361 63.311 -33.018 L 63.36 -33.018 Q 64.252 -33.831 65.075 -33.831 Q 65.742 -33.831 66.129 -33.419 Q 66.516 -33.008 66.516 -32.116 L 66.516 -29.96 Q 66.516 -29.627 66.555 -29.426 Q 66.594 -29.225 66.751 -29.137 Q 66.908 -29.049 67.261 -29.049 L 67.261 -28.686 L 64.801 -28.686 L 64.801 -29.049 Q 65.163 -29.049 65.325 -29.142 Q 65.487 -29.235 65.526 -29.436 Q 65.565 -29.637 65.565 -29.96 L 65.565 -31.998 Q 65.565 -32.616 65.315 -32.861 Q 65.065 -33.106 64.673 -33.106 Q 64.34 -33.106 64.007 -32.905 Q 63.674 -32.704 63.419 -32.508 L 63.419 -29.96 Q 63.419 -29.597 63.463 -29.396 Q 63.507 -29.196 63.679 -29.122 Q 63.85 -29.049 64.213 -29.049 L 64.213 -28.686 L 61.655 -28.686 L 61.655 -29.049 Q 62.027 -29.049 62.199 -29.122 Q 62.37 -29.196 62.419 -29.396 Q 62.468 -29.597 62.468 -29.96 L 62.468 -32.028 Q 62.468 -32.645 62.248 -32.875 Q 62.027 -33.106 61.645 -33.106 Q 61.243 -33.106 60.876 -32.89 Q 60.508 -32.675 60.283 -32.479 Z " fill="black" /><path d="M 71.57 -33.376 L 71.57 -33.376 L 75.392 -39.116 Q 75.588 -39.396 75.707 -39.634 Q 75.826 -39.872 75.826 -40.04 Q 75.826 -40.25 75.644 -40.327 Q 75.462 -40.404 74.986 -40.404 L 75.014 -40.824 L 78.038 -40.824 L 78.01 -40.404 Q 77.632 -40.404 77.366 -40.292 Q 77.1 -40.18 76.827 -39.865 Q 76.554 -39.55 76.12 -38.906 L 70.982 -31.556 L 70.52 -31.556 L 69.736 -39.13 Q 69.652 -39.83 69.428 -40.117 Q 69.204 -40.404 68.644 -40.404 L 68.672 -40.824 L 72.102 -40.824 L 72.06 -40.404 Q 71.528 -40.404 71.22 -40.194 Q 70.912 -39.984 70.94 -39.508 Q 70.94 -39.438 70.961 -39.256 Q 70.982 -39.074 70.982 -39.004 L 71.402 -35.014 L 71.5 -33.376 Z " fill="black" /><path d="M 79.375 -29.049 L 79.375 -29.049 L 79.375 -28.686 L 76.886 -28.686 L 76.886 -29.049 Q 77.229 -29.049 77.38 -29.122 Q 77.532 -29.196 77.572 -29.357 Q 77.611 -29.519 77.611 -29.784 L 77.611 -32.743 Q 77.611 -33.076 77.503 -33.145 Q 77.395 -33.214 77.14 -33.214 Q 77.013 -33.214 76.935 -33.204 Q 76.856 -33.194 76.856 -33.194 L 76.856 -33.586 L 78.169 -33.802 L 78.571 -33.802 L 78.571 -29.784 Q 78.571 -29.499 78.615 -29.338 Q 78.659 -29.176 78.831 -29.112 Q 79.002 -29.049 79.375 -29.049 Z M 78.081 -35.967 L 78.081 -35.967 Q 78.365 -35.967 78.556 -35.771 Q 78.748 -35.575 78.748 -35.321 Q 78.748 -35.085 78.556 -34.889 Q 78.365 -34.693 78.081 -34.693 Q 77.807 -34.693 77.626 -34.889 Q 77.444 -35.085 77.444 -35.321 Q 77.444 -35.575 77.626 -35.771 Q 77.807 -35.967 78.081 -35.967 Z " fill="black" /><path d="M 85.196 -31.969 L 85.196 -31.969 L 85.196 -29.774 Q 85.196 -29.499 85.245 -29.338 Q 85.294 -29.176 85.461 -29.107 Q 85.627 -29.039 85.98 -29.039 L 85.98 -28.686 L 83.461 -28.686 L 83.461 -29.039 Q 83.834 -29.039 84 -29.107 Q 84.167 -29.176 84.206 -29.338 Q 84.245 -29.499 84.245 -29.774 L 84.245 -31.646 Q 84.245 -32.302 84.094 -32.611 Q 83.942 -32.92 83.711 -33.018 Q 83.481 -33.116 83.246 -33.116 Q 82.824 -33.116 82.506 -32.9 Q 82.187 -32.684 81.952 -32.488 L 81.952 -29.774 Q 81.952 -29.499 81.996 -29.338 Q 82.04 -29.176 82.207 -29.107 Q 82.374 -29.039 82.736 -29.039 L 82.736 -28.686 L 80.267 -28.686 L 80.267 -29.039 Q 80.61 -29.039 80.761 -29.107 Q 80.913 -29.176 80.953 -29.338 Q 80.992 -29.499 80.992 -29.774 L 80.992 -32.753 Q 80.992 -33.027 80.889 -33.12 Q 80.786 -33.214 80.561 -33.214 Q 80.443 -33.214 80.365 -33.204 Q 80.286 -33.194 80.286 -33.194 L 80.286 -33.566 L 81.599 -33.802 L 81.923 -33.802 L 81.923 -32.998 L 81.991 -32.998 Q 82.413 -33.38 82.8 -33.606 Q 83.187 -33.831 83.677 -33.831 Q 84.255 -33.831 84.584 -33.571 Q 84.912 -33.312 85.054 -32.89 Q 85.196 -32.469 85.196 -31.969 Z " fill="black" /></g></g></g><circle cx="216" cy="-0" r="2.7" style="stroke:black;fill:black;stroke-width:2.0;stroke-dasharray:-;" /><circle cx="216" cy="-72" r="2.7" style="stroke:black;fill:black;stroke-width:2.0;stroke-dasharray:-;" /><g><g><g><path d="M 192.21 -42.11 L 192.21 -42.11 L 192.126 -41.396 L 190.908 -41.536 L 190.908 -41.494 Q 191.146 -41.228 191.279 -40.829 Q 191.412 -40.43 191.412 -40.066 Q 191.412 -39.436 191.16 -39.009 Q 190.908 -38.582 190.502 -38.323 Q 190.096 -38.064 189.606 -37.931 Q 189.116 -37.798 188.654 -37.756 Q 188.094 -37.7 187.863 -37.518 Q 187.632 -37.336 187.632 -37.14 Q 187.632 -36.888 187.912 -36.755 Q 188.192 -36.622 188.633 -36.538 Q 189.074 -36.454 189.578 -36.349 Q 190.082 -36.244 190.523 -36.062 Q 190.964 -35.88 191.244 -35.551 Q 191.524 -35.222 191.524 -34.676 Q 191.524 -34.074 191.132 -33.563 Q 190.74 -33.052 189.97 -32.737 Q 189.2 -32.422 188.08 -32.422 Q 187.072 -32.422 186.47 -32.667 Q 185.868 -32.912 185.602 -33.297 Q 185.336 -33.682 185.336 -34.102 Q 185.336 -34.774 185.854 -35.187 Q 186.372 -35.6 187.03 -35.81 L 187.03 -35.866 Q 186.848 -35.978 186.687 -36.181 Q 186.526 -36.384 186.526 -36.706 Q 186.526 -37.056 186.708 -37.266 Q 186.89 -37.476 187.177 -37.609 Q 187.464 -37.742 187.744 -37.84 L 187.744 -37.924 Q 187.198 -38.162 186.792 -38.596 Q 186.386 -39.03 186.386 -39.828 Q 186.386 -40.556 186.736 -41.109 Q 187.086 -41.662 187.695 -41.97 Q 188.304 -42.278 189.06 -42.278 Q 189.564 -42.278 189.823 -42.229 Q 190.082 -42.18 190.334 -42.11 Z M 190.516 -34.158 L 190.516 -34.158 Q 190.516 -34.578 190.166 -34.837 Q 189.816 -35.096 189.298 -35.25 Q 188.78 -35.404 188.255 -35.495 Q 187.73 -35.586 187.366 -35.656 Q 187.016 -35.432 186.722 -35.145 Q 186.428 -34.858 186.428 -34.312 Q 186.428 -33.752 186.862 -33.332 Q 187.296 -32.912 188.36 -32.912 Q 189.368 -32.912 189.942 -33.283 Q 190.516 -33.654 190.516 -34.158 Z M 190.166 -40.22 L 190.166 -40.22 Q 190.166 -40.92 189.9 -41.389 Q 189.634 -41.858 189.018 -41.858 Q 188.416 -41.858 188.024 -41.354 Q 187.632 -40.85 187.632 -39.828 Q 187.632 -39.1 187.884 -38.645 Q 188.136 -38.19 188.738 -38.19 Q 189.438 -38.19 189.802 -38.778 Q 190.166 -39.366 190.166 -40.22 Z " fill="black" /><path d="M 198.198 -32.759 L 198.198 -32.759 L 196.875 -32.583 L 196.522 -32.583 L 196.522 -33.269 L 196.453 -33.269 Q 196.13 -32.995 195.723 -32.769 Q 195.316 -32.544 194.807 -32.544 Q 194.229 -32.544 193.822 -32.857 Q 193.415 -33.171 193.2 -33.72 Q 192.984 -34.269 192.984 -34.964 Q 192.984 -35.837 193.322 -36.469 Q 193.66 -37.101 194.224 -37.439 Q 194.787 -37.777 195.454 -37.777 Q 196.032 -37.777 196.502 -37.512 L 196.502 -38.777 Q 196.502 -39.129 196.429 -39.242 Q 196.355 -39.355 196.042 -39.355 Q 195.973 -39.355 195.86 -39.34 Q 195.748 -39.325 195.748 -39.325 L 195.748 -39.698 L 197.051 -39.953 L 197.453 -39.953 L 197.453 -33.739 Q 197.453 -33.357 197.561 -33.245 Q 197.668 -33.132 197.933 -33.132 L 198.198 -33.132 Z M 196.502 -33.72 L 196.502 -33.72 L 196.502 -36.581 Q 196.394 -36.856 196.144 -37.071 Q 195.895 -37.287 195.434 -37.287 Q 194.777 -37.287 194.356 -36.841 Q 193.935 -36.395 193.935 -35.366 Q 193.935 -34.318 194.302 -33.833 Q 194.67 -33.347 195.336 -33.347 Q 195.65 -33.347 195.909 -33.436 Q 196.169 -33.524 196.502 -33.72 Z " fill="black" /><path d="M 199.236 -34.416 L 199.236 -34.416 L 199.55 -34.416 Q 199.677 -33.847 199.854 -33.534 Q 200.03 -33.22 200.31 -33.098 Q 200.589 -32.975 200.991 -32.975 Q 201.451 -32.975 201.701 -33.127 Q 201.951 -33.279 201.951 -33.661 Q 201.951 -33.916 201.829 -34.087 Q 201.706 -34.259 201.436 -34.416 Q 201.167 -34.572 200.716 -34.778 Q 200.256 -35.004 199.927 -35.2 Q 199.599 -35.396 199.428 -35.66 Q 199.256 -35.925 199.256 -36.327 Q 199.256 -37.032 199.731 -37.405 Q 200.207 -37.777 200.922 -37.777 Q 201.353 -37.777 201.652 -37.669 Q 201.951 -37.561 202.127 -37.483 L 202.147 -37.483 L 202.304 -37.728 L 202.578 -37.728 L 202.598 -36.101 L 202.255 -36.101 Q 202.069 -36.856 201.735 -37.116 Q 201.402 -37.375 200.971 -37.375 Q 200.52 -37.375 200.29 -37.179 Q 200.06 -36.983 200.06 -36.67 Q 200.06 -36.415 200.216 -36.248 Q 200.373 -36.082 200.662 -35.94 Q 200.951 -35.797 201.353 -35.601 Q 201.804 -35.386 202.147 -35.156 Q 202.49 -34.925 202.686 -34.636 Q 202.882 -34.347 202.882 -33.916 Q 202.882 -33.396 202.608 -33.083 Q 202.333 -32.769 201.902 -32.637 Q 201.471 -32.505 201 -32.505 Q 200.52 -32.505 200.256 -32.603 Q 199.991 -32.701 199.766 -32.789 L 199.726 -32.789 L 199.481 -32.534 L 199.256 -32.534 Z " fill="black" /></g></g></g><g><g><g><path d="M 300.978 -34.288 L 300.978 -34.288 L 301.23 -34.023 Q 300.516 -33.182 299.578 -32.643 Q 298.64 -32.104 297.31 -32.104 Q 296.05 -32.104 295.294 -32.573 Q 294.538 -33.042 294.209 -33.826 Q 293.88 -34.611 293.88 -35.535 Q 293.88 -37.005 294.328 -38.145 Q 294.776 -39.286 295.553 -40.063 Q 296.33 -40.84 297.31 -41.239 Q 298.29 -41.639 299.354 -41.639 Q 300.068 -41.639 300.467 -41.513 Q 300.866 -41.386 301.09 -41.254 Q 301.314 -41.12 301.482 -41.12 Q 301.65 -41.12 301.776 -41.261 Q 301.902 -41.401 302.07 -41.624 L 302.476 -41.624 L 301.818 -38.419 L 301.356 -38.419 Q 301.412 -39.819 300.838 -40.427 Q 300.264 -41.036 299.228 -41.036 Q 298.416 -41.036 297.702 -40.666 Q 296.988 -40.294 296.435 -39.615 Q 295.882 -38.936 295.567 -37.992 Q 295.252 -37.046 295.252 -35.884 Q 295.252 -34.484 295.917 -33.749 Q 296.582 -33.014 297.968 -33.014 Q 299.578 -33.014 300.978 -34.288 Z " fill="blue" /><path d="M 303.459 -31.288 L 303.459 -31.288 L 303.459 -31.327 Q 303.116 -31.533 302.876 -31.862 Q 302.636 -32.19 302.636 -32.709 Q 302.636 -33.258 302.901 -33.65 Q 303.165 -34.042 303.616 -34.253 Q 304.067 -34.463 304.625 -34.463 Q 305.145 -34.463 305.473 -34.351 Q 305.801 -34.238 305.801 -34.238 L 307.242 -34.277 L 307.242 -33.699 L 306.213 -33.719 L 306.213 -33.65 Q 306.34 -33.474 306.478 -33.234 Q 306.615 -32.993 306.615 -32.562 Q 306.615 -32.072 306.355 -31.715 Q 306.095 -31.357 305.659 -31.166 Q 305.223 -30.975 304.674 -30.975 Q 304.175 -30.975 303.734 -31.151 Q 303.665 -31.024 303.572 -30.788 Q 303.479 -30.553 303.479 -30.387 Q 303.479 -30.181 303.719 -30.083 Q 303.959 -29.985 304.674 -29.985 Q 305.204 -29.985 305.654 -29.96 Q 306.105 -29.936 306.438 -29.823 Q 306.772 -29.71 306.953 -29.461 Q 307.134 -29.211 307.134 -28.75 Q 307.134 -28.221 306.865 -27.853 Q 306.595 -27.486 306.154 -27.26 Q 305.713 -27.035 305.199 -26.932 Q 304.684 -26.829 304.184 -26.829 Q 303.469 -26.829 303.077 -27.006 Q 302.685 -27.182 302.533 -27.456 Q 302.381 -27.731 302.381 -28.015 Q 302.381 -28.289 302.572 -28.559 Q 302.763 -28.828 303.185 -29.22 L 303.185 -29.269 Q 302.94 -29.397 302.773 -29.612 Q 302.607 -29.828 302.607 -30.034 Q 302.607 -30.328 302.866 -30.656 Q 303.126 -30.984 303.459 -31.288 Z M 303.508 -29.171 L 303.508 -29.171 Q 303.342 -28.887 303.283 -28.721 Q 303.224 -28.554 303.224 -28.387 Q 303.224 -27.937 303.592 -27.706 Q 303.959 -27.476 304.733 -27.476 Q 305.37 -27.476 305.762 -27.633 Q 306.154 -27.79 306.34 -28.01 Q 306.527 -28.231 306.527 -28.436 Q 306.527 -28.701 306.355 -28.848 Q 306.184 -28.995 305.919 -29.059 Q 305.654 -29.122 305.36 -29.142 Q 305.066 -29.162 304.812 -29.162 Q 304.743 -29.162 304.704 -29.162 Q 304.077 -29.162 303.846 -29.167 Q 303.616 -29.171 303.508 -29.171 Z M 304.567 -34.032 L 304.567 -34.032 Q 304.145 -34.032 303.886 -33.748 Q 303.626 -33.464 303.626 -32.768 Q 303.626 -32.082 303.9 -31.729 Q 304.175 -31.376 304.674 -31.376 Q 304.939 -31.376 305.155 -31.484 Q 305.37 -31.592 305.503 -31.876 Q 305.635 -32.16 305.635 -32.68 Q 305.635 -33.346 305.346 -33.689 Q 305.057 -34.032 304.567 -34.032 Z " fill="blue" /><path d="M 308.104 -31.102 L 308.104 -31.102 L 308.418 -31.102 Q 308.545 -30.534 308.722 -30.22 Q 308.898 -29.906 309.178 -29.784 Q 309.457 -29.661 309.859 -29.661 Q 310.319 -29.661 310.569 -29.813 Q 310.819 -29.965 310.819 -30.347 Q 310.819 -30.602 310.697 -30.774 Q 310.574 -30.945 310.305 -31.102 Q 310.035 -31.259 309.584 -31.465 Q 309.124 -31.69 308.795 -31.886 Q 308.467 -32.082 308.296 -32.347 Q 308.124 -32.611 308.124 -33.013 Q 308.124 -33.719 308.599 -34.091 Q 309.075 -34.463 309.79 -34.463 Q 310.221 -34.463 310.52 -34.356 Q 310.819 -34.248 310.995 -34.169 L 311.015 -34.169 L 311.172 -34.414 L 311.446 -34.414 L 311.466 -32.788 L 311.123 -32.788 Q 310.937 -33.542 310.603 -33.802 Q 310.27 -34.062 309.839 -34.062 Q 309.388 -34.062 309.158 -33.866 Q 308.928 -33.67 308.928 -33.356 Q 308.928 -33.101 309.084 -32.935 Q 309.241 -32.768 309.53 -32.626 Q 309.819 -32.484 310.221 -32.288 Q 310.672 -32.072 311.015 -31.842 Q 311.358 -31.612 311.554 -31.323 Q 311.75 -31.033 311.75 -30.602 Q 311.75 -30.083 311.476 -29.769 Q 311.201 -29.456 310.77 -29.323 Q 310.339 -29.191 309.868 -29.191 Q 309.388 -29.191 309.124 -29.289 Q 308.859 -29.387 308.634 -29.475 L 308.594 -29.475 L 308.349 -29.22 L 308.124 -29.22 Z " fill="blue" /><path d="M 305.332 -43.759 L 305.332 -43.759 L 305.332 -43.554 L 305.489 -43.681 Q 305.626 -43.799 305.803 -43.98 Q 305.979 -44.161 306.151 -44.308 Q 306.322 -44.455 306.459 -44.455 Q 306.606 -44.455 306.714 -44.338 Q 306.822 -44.22 306.822 -44.063 Q 306.822 -43.887 306.69 -43.799 Q 306.557 -43.71 306.361 -43.661 Q 306.165 -43.612 305.96 -43.568 Q 305.754 -43.524 305.597 -43.446 L 305.45 -43.358 L 305.45 -43.338 L 305.617 -43.25 Q 305.773 -43.171 305.979 -43.122 Q 306.185 -43.073 306.376 -43.015 Q 306.567 -42.956 306.695 -42.863 Q 306.822 -42.77 306.822 -42.593 Q 306.822 -42.446 306.714 -42.334 Q 306.606 -42.221 306.459 -42.221 Q 306.303 -42.221 306.141 -42.378 Q 305.979 -42.534 305.818 -42.726 Q 305.656 -42.917 305.499 -43.015 L 305.332 -43.122 L 305.332 -42.917 Q 305.332 -42.681 305.44 -42.378 Q 305.548 -42.074 305.548 -41.848 Q 305.548 -41.682 305.44 -41.594 Q 305.332 -41.505 305.195 -41.505 Q 305.068 -41.505 304.95 -41.594 Q 304.833 -41.682 304.833 -41.858 Q 304.833 -42.084 304.936 -42.383 Q 305.038 -42.681 305.038 -42.917 L 305.038 -43.113 L 305.029 -43.122 L 304.862 -43.015 Q 304.784 -42.966 304.695 -42.873 Q 304.607 -42.779 304.509 -42.681 Q 304.352 -42.515 304.196 -42.368 Q 304.039 -42.221 303.902 -42.221 Q 303.755 -42.221 303.647 -42.348 Q 303.539 -42.476 303.539 -42.603 Q 303.539 -42.77 303.671 -42.863 Q 303.804 -42.956 304 -43.01 Q 304.196 -43.064 304.401 -43.113 Q 304.607 -43.162 304.754 -43.25 L 304.911 -43.338 L 304.911 -43.358 L 304.774 -43.446 Q 304.627 -43.524 304.421 -43.568 Q 304.215 -43.612 304.009 -43.661 Q 303.804 -43.71 303.671 -43.799 Q 303.539 -43.887 303.539 -44.053 Q 303.539 -44.191 303.647 -44.323 Q 303.755 -44.455 303.902 -44.455 Q 304.039 -44.455 304.215 -44.308 Q 304.392 -44.161 304.568 -43.975 Q 304.744 -43.789 304.882 -43.681 L 305.029 -43.563 L 305.038 -43.573 L 305.038 -43.759 Q 305.038 -43.995 304.936 -44.298 Q 304.833 -44.602 304.833 -44.818 Q 304.833 -45.004 304.95 -45.087 Q 305.068 -45.171 305.195 -45.171 Q 305.332 -45.171 305.44 -45.087 Q 305.548 -45.004 305.548 -44.828 Q 305.548 -44.681 305.494 -44.49 Q 305.44 -44.298 305.386 -44.107 Q 305.332 -43.916 305.332 -43.759 Z " fill="blue" /></g></g></g><g><g><g><path d="M 350.167 -34.68 L 350.167 -34.68 L 353.989 -40.42 Q 354.185 -40.7 354.304 -40.938 Q 354.423 -41.176 354.423 -41.344 Q 354.423 -41.554 354.241 -41.631 Q 354.059 -41.708 353.583 -41.708 L 353.611 -42.128 L 356.635 -42.128 L 356.607 -41.708 Q 356.229 -41.708 355.963 -41.596 Q 355.697 -41.484 355.424 -41.169 Q 355.151 -40.854 354.717 -40.21 L 349.579 -32.86 L 349.117 -32.86 L 348.333 -40.434 Q 348.249 -41.134 348.025 -41.421 Q 347.801 -41.708 347.241 -41.708 L 347.269 -42.128 L 350.699 -42.128 L 350.657 -41.708 Q 350.125 -41.708 349.817 -41.498 Q 349.509 -41.288 349.537 -40.812 Q 349.537 -40.742 349.558 -40.56 Q 349.579 -40.378 349.579 -40.308 L 349.999 -36.318 L 350.097 -34.68 Z " fill="black" /><path d="M 356.555 -35.135 L 356.555 -35.135 Q 357.29 -35.135 357.839 -34.816 Q 358.388 -34.498 358.687 -33.924 Q 358.986 -33.351 358.986 -32.577 Q 358.986 -31.646 358.672 -31.048 Q 358.359 -30.45 357.81 -30.161 Q 357.261 -29.872 356.555 -29.872 Q 355.84 -29.872 355.286 -30.171 Q 354.733 -30.47 354.424 -31.068 Q 354.115 -31.666 354.115 -32.567 Q 354.115 -33.332 354.419 -33.91 Q 354.723 -34.488 355.272 -34.811 Q 355.82 -35.135 356.555 -35.135 Z M 356.536 -34.684 L 356.536 -34.684 Q 355.889 -34.684 355.522 -34.16 Q 355.154 -33.635 355.154 -32.626 Q 355.154 -31.381 355.531 -30.867 Q 355.909 -30.352 356.585 -30.352 Q 357.016 -30.362 357.32 -30.568 Q 357.624 -30.774 357.785 -31.259 Q 357.947 -31.744 357.947 -32.577 Q 357.947 -33.577 357.604 -34.13 Q 357.261 -34.684 356.536 -34.684 Z " fill="black" /><path d="M 365.65 -30.49 L 365.65 -30.49 L 365.65 -30.117 L 364.327 -29.941 L 364.013 -29.941 L 364.013 -30.705 L 363.915 -30.705 Q 363.543 -30.372 363.161 -30.132 Q 362.778 -29.892 362.239 -29.892 Q 361.514 -29.892 361.132 -30.333 Q 360.75 -30.774 360.75 -31.862 L 360.75 -33.969 Q 360.75 -34.37 360.608 -34.463 Q 360.466 -34.557 360.015 -34.557 L 360.015 -34.909 L 361.377 -35.096 L 361.7 -35.096 L 361.7 -31.989 Q 361.7 -31.44 361.828 -31.136 Q 361.955 -30.833 362.171 -30.715 Q 362.386 -30.597 362.641 -30.597 Q 363.072 -30.597 363.361 -30.779 Q 363.651 -30.96 363.964 -31.215 L 363.964 -33.969 Q 363.964 -34.37 363.788 -34.463 Q 363.611 -34.557 363.112 -34.557 L 363.112 -34.909 L 364.572 -35.096 L 364.915 -35.096 L 364.915 -31.127 Q 364.915 -30.833 364.969 -30.695 Q 365.023 -30.558 365.16 -30.524 Q 365.297 -30.49 365.542 -30.49 Z " fill="black" /><path d="M 369.472 -30.97 L 369.472 -30.97 L 369.697 -30.784 Q 369.482 -30.49 369.305 -30.289 Q 369.129 -30.088 368.903 -29.98 Q 368.678 -29.872 368.325 -29.872 Q 367.757 -29.872 367.497 -30.196 Q 367.237 -30.519 367.237 -31.234 L 367.237 -34.527 L 366.62 -34.527 L 366.62 -34.821 Q 366.973 -35.076 367.267 -35.444 Q 367.561 -35.811 367.855 -36.497 L 368.198 -36.497 L 368.188 -35.007 L 369.433 -35.007 L 369.433 -34.527 L 368.188 -34.527 L 368.188 -31.558 Q 368.188 -31.009 368.291 -30.779 Q 368.394 -30.548 368.707 -30.548 Q 368.992 -30.548 369.139 -30.651 Q 369.286 -30.754 369.472 -30.97 Z " fill="black" /></g></g></g><g><g><g><path d="M -94.85 -34.621 L -94.85 -34.621 L -91.028 -40.361 Q -90.832 -40.641 -90.713 -40.879 Q -90.594 -41.117 -90.594 -41.285 Q -90.594 -41.495 -90.776 -41.572 Q -90.958 -41.649 -91.434 -41.649 L -91.406 -42.069 L -88.382 -42.069 L -88.41 -41.649 Q -88.788 -41.649 -89.054 -41.537 Q -89.32 -41.425 -89.593 -41.11 Q -89.866 -40.795 -90.3 -40.151 L -95.438 -32.801 L -95.9 -32.801 L -96.684 -40.375 Q -96.768 -41.075 -96.992 -41.362 Q -97.216 -41.649 -97.776 -41.649 L -97.748 -42.069 L -94.318 -42.069 L -94.36 -41.649 Q -94.892 -41.649 -95.2 -41.439 Q -95.508 -41.229 -95.48 -40.753 Q -95.48 -40.683 -95.459 -40.501 Q -95.438 -40.319 -95.438 -40.249 L -95.018 -36.259 L -94.92 -34.621 Z " fill="black" /><path d="M -87.045 -30.294 L -87.045 -30.294 L -87.045 -29.931 L -89.534 -29.931 L -89.534 -30.294 Q -89.191 -30.294 -89.04 -30.367 Q -88.888 -30.441 -88.848 -30.602 Q -88.809 -30.764 -88.809 -31.029 L -88.809 -33.988 Q -88.809 -34.321 -88.917 -34.39 Q -89.025 -34.459 -89.28 -34.459 Q -89.407 -34.459 -89.485 -34.449 Q -89.564 -34.439 -89.564 -34.439 L -89.564 -34.831 L -88.251 -35.047 L -87.849 -35.047 L -87.849 -31.029 Q -87.849 -30.744 -87.805 -30.583 Q -87.761 -30.421 -87.589 -30.357 Q -87.418 -30.294 -87.045 -30.294 Z M -88.339 -37.212 L -88.339 -37.212 Q -88.055 -37.212 -87.864 -37.016 Q -87.672 -36.82 -87.672 -36.566 Q -87.672 -36.33 -87.864 -36.134 Q -88.055 -35.938 -88.339 -35.938 Q -88.613 -35.938 -88.794 -36.134 Q -88.976 -36.33 -88.976 -36.566 Q -88.976 -36.82 -88.794 -37.016 Q -88.613 -37.212 -88.339 -37.212 Z " fill="black" /><path d="M -81.224 -33.214 L -81.224 -33.214 L -81.224 -31.019 Q -81.224 -30.744 -81.175 -30.583 Q -81.126 -30.421 -80.959 -30.352 Q -80.793 -30.284 -80.44 -30.284 L -80.44 -29.931 L -82.959 -29.931 L -82.959 -30.284 Q -82.586 -30.284 -82.42 -30.352 Q -82.253 -30.421 -82.214 -30.583 Q -82.175 -30.744 -82.175 -31.019 L -82.175 -32.891 Q -82.175 -33.547 -82.326 -33.856 Q -82.478 -34.165 -82.709 -34.263 Q -82.939 -34.361 -83.174 -34.361 Q -83.596 -34.361 -83.914 -34.145 Q -84.233 -33.929 -84.468 -33.733 L -84.468 -31.019 Q -84.468 -30.744 -84.424 -30.583 Q -84.38 -30.421 -84.213 -30.352 Q -84.046 -30.284 -83.684 -30.284 L -83.684 -29.931 L -86.153 -29.931 L -86.153 -30.284 Q -85.81 -30.284 -85.659 -30.352 Q -85.507 -30.421 -85.467 -30.583 Q -85.428 -30.744 -85.428 -31.019 L -85.428 -33.998 Q -85.428 -34.272 -85.531 -34.365 Q -85.634 -34.459 -85.859 -34.459 Q -85.977 -34.459 -86.055 -34.449 Q -86.134 -34.439 -86.134 -34.439 L -86.134 -34.811 L -84.821 -35.047 L -84.497 -35.047 L -84.497 -34.243 L -84.429 -34.243 Q -84.007 -34.625 -83.62 -34.851 Q -83.233 -35.076 -82.743 -35.076 Q -82.165 -35.076 -81.837 -34.816 Q -81.508 -34.557 -81.366 -34.135 Q -81.224 -33.714 -81.224 -33.214 Z " fill="black" /></g></g></g></svg>