<svg xmlns="http://www.w3.org/2000/svg" xmlns:xlink="http://www.w3.org/1999/xlink" xml:lang="en" height="138.44pt" width="584.8452pt" viewBox="-223.84519999999998 -96.39999999999999 584.8452 138.44"><circle cx="108.0" cy="-36.0" r="18.0" style="stroke:black;fill:none;stroke-width:2.0;stroke-dasharray:-;" /><circle cx="324.0" cy="-36.0" r="18.0" style="stroke:black;fill:none;stroke-width:2.0;stroke-dasharray:-;" /><path d="M 0.0,-0.0 L 2.0059714570033646e-15,-32.76 M -8.999999999999998,-32.76 L 9.000000000000002,-32.76 M -8.999999999999998,-39.24 L 9.000000000000002,-39.24 M 2.402757019927107e-15,-39.24 L 4.408728476930472e-15,-72.0" style="stroke:black;fill:none;stroke-width:2.0;stroke-dasharray:-;stroke-linecap:round;stroke-linejoin:round;" /><path d="M 4.408728476930472e-15,-72.0 L 54.00000000000001,-72.0 L 108.0,-72.0" style="stroke:black;fill:none;stroke-width:2.0;stroke-dasharray:-;stroke-linecap:round;stroke-linejoin:round;" /><path d="M 108.0,-72.0 L 108.0,-54.0 L 108.0,-54.0 M 107.99999999999999,-18.0 L 107.99999999999999,-18.0 L 107.99999999999999,-0.0" style="stroke:black;fill:none;stroke-width:2.0;stroke-dasharray:-;stroke-linecap:round;stroke-linejoin:round;" /><path d="M 108.0,-45.0 L 107.99999999999999,-36.0" style="stroke:black;fill:none;stroke-width:2.0;stroke-dasharray:-;stroke-linecap:round;stroke-linejoin:round;" /><path d="M 107.99999999999999 -29.0 L 105.3 -36.0 L 110.69999999999999 -36.0 Z" style="stroke:black;fill:black;stroke-linecap:butt;stroke-linejoin:miter;" /><path d="M 107.99999999999999,-0.0 L 107.99999999999999,14.4 L 98.99999999999999,14.4 L 116.99999999999999,14.4 M 101.69999999999999,18.72 L 114.29999999999998,18.72 M 106.19999999999999,23.04 L 109.79999999999998,23.04" style="stroke:black;fill:none;stroke-width:2.0;stroke-dasharray:-;stroke-linecap:round;stroke-linejoin:round;" /><path d="M 107.99999999999999,-0.0 L 53.999999999999986,-6.613092715395707e-15 L -1.5987211554602254e-14,-1.3226185430791413e-14" style="stroke:black;fill:none;stroke-width:2.0;stroke-dasharray:-;stroke-linecap:round;stroke-linejoin:round;" /><path d="M 107.99999999999999,-0.0 L 162.0,-0.0 L 216.0,-0.0" style="stroke:black;fill:none;stroke-width:2.0;stroke-dasharray:-;stroke-linecap:round;stroke-linejoin:round;" /><path d="M 216.0,-0.0 L 216.0,-18.0 L 207.0,-21.0 L 225.0,-27.0 L 207.0,-33.0 L 225.0,-39.0 L 207.0,-45.0 L 225.0,-50.99999999999999 L 216.0,-54.0 L 216.0,-72.0" style="stroke:black;fill:none;stroke-width:2.0;stroke-dasharray:-;stroke-linecap:round;stroke-linejoin:round;" /><path d="M 216.0,-72.0 L 162.0,-72.0 L 108.0,-72.00000000000001" style="stroke:black;fill:none;stroke-width:2.0;stroke-dasharray:-;stroke-linecap:round;stroke-linejoin:round;" /><path d="M 216.0,-72.0 L 270.0,-72.0 L 324.0,-72.0" style="stroke:black;fill:none;stroke-width:2.0;stroke-dasharray:-;stroke-linecap:round;stroke-linejoin:round;" /><path d="M 324.0,-0.0 L 324.0,-18.0 L 324.0,-18.0 M 324.0,-54.0 L 324.0,-54.0 L 324.0,-72.0" style="stroke:black;fill:none;stroke-width:2.0;stroke-dasharray:-;stroke-linecap:round;stroke-linejoin:round;" /><path d="M 324.0,-27.0 L 324.0,-36.0" style="stroke:black;fill:none;stroke-width:2.0;stroke-dasharray:-;stroke-linecap:round;stroke-linejoin:round;" /><path d="M 324.0 -43.0 L 326.7 -36.0 L 321.3 -36.0 Z" style="stroke:black;fill:black;stroke-linecap:butt;stroke-linejoin:miter;" /><path d="M 324.0,-0.0 L 270.0,-6.613092715395707e-15 L 216.0,-1.3226185430791413e-14" style="stroke:black;fill:none;stroke-width:2.0;stroke-dasharray:-;stroke-linecap:round;stroke-linejoin:round;" /><path d="M -180.0,-72.0 L -180.0,-36.0 L -180.0,-9.0" style="stroke:black;fill:none;stroke-width:2.0;stroke-dasharray:-;stroke-linecap:round;stroke-linejoin:round;" /><path d="M -180.0 -2.0 L -182.7 -9.0 L -177.3 -9.0 Z" style="stroke:black;fill:black;stroke-linecap:butt;stroke-linejoin:miter;" /><g><g><g><path d="M -141.128 -36.055 L -141.128 -36.055 L -140.876 -35.789 Q -141.59 -34.949 -142.528 -34.41 Q -143.466 -33.871 -144.796 -33.871 Q -146.056 -33.871 -146.812 -34.34 Q -147.568 -34.809 -147.897 -35.593 Q -148.226 -36.377 -148.226 -37.301 Q -148.226 -38.771 -147.778 -39.912 Q -147.33 -41.053 -146.553 -41.83 Q -145.776 -42.607 -144.796 -43.006 Q -143.816 -43.405 -142.752 -43.405 Q -142.038 -43.405 -141.639 -43.279 Q -141.24 -43.153 -141.016 -43.02 Q -140.792 -42.887 -140.624 -42.887 Q -140.456 -42.887 -140.33 -43.027 Q -140.204 -43.167 -140.036 -43.391 L -139.63 -43.391 L -140.288 -40.185 L -140.75 -40.185 Q -140.694 -41.585 -141.268 -42.194 Q -141.842 -42.803 -142.878 -42.803 Q -143.69 -42.803 -144.404 -42.432 Q -145.118 -42.061 -145.671 -41.382 Q -146.224 -40.703 -146.539 -39.758 Q -146.854 -38.813 -146.854 -37.651 Q -146.854 -36.251 -146.189 -35.516 Q -145.524 -34.781 -144.138 -34.781 Q -142.528 -34.781 -141.128 -36.055 Z " fill="black" /><path d="M -138.647 -33.054 L -138.647 -33.054 L -138.647 -33.094 Q -138.99 -33.299 -139.23 -33.628 Q -139.47 -33.956 -139.47 -34.475 Q -139.47 -35.024 -139.205 -35.416 Q -138.941 -35.808 -138.49 -36.019 Q -138.039 -36.23 -137.481 -36.23 Q -136.961 -36.23 -136.633 -36.117 Q -136.305 -36.004 -136.305 -36.004 L -134.864 -36.043 L -134.864 -35.465 L -135.893 -35.485 L -135.893 -35.416 Q -135.766 -35.24 -135.628 -35 Q -135.491 -34.76 -135.491 -34.328 Q -135.491 -33.838 -135.751 -33.481 Q -136.011 -33.123 -136.447 -32.932 Q -136.883 -32.741 -137.432 -32.741 Q -137.931 -32.741 -138.372 -32.917 Q -138.441 -32.79 -138.534 -32.555 Q -138.627 -32.319 -138.627 -32.153 Q -138.627 -31.947 -138.387 -31.849 Q -138.147 -31.751 -137.432 -31.751 Q -136.902 -31.751 -136.452 -31.726 Q -136.001 -31.702 -135.668 -31.589 Q -135.334 -31.477 -135.153 -31.227 Q -134.972 -30.977 -134.972 -30.516 Q -134.972 -29.987 -135.241 -29.619 Q -135.511 -29.252 -135.952 -29.027 Q -136.393 -28.801 -136.907 -28.698 Q -137.422 -28.595 -137.922 -28.595 Q -138.637 -28.595 -139.029 -28.772 Q -139.421 -28.948 -139.573 -29.223 Q -139.725 -29.497 -139.725 -29.781 Q -139.725 -30.056 -139.534 -30.325 Q -139.343 -30.595 -138.921 -30.987 L -138.921 -31.036 Q -139.166 -31.163 -139.333 -31.379 Q -139.499 -31.594 -139.499 -31.8 Q -139.499 -32.094 -139.24 -32.422 Q -138.98 -32.751 -138.647 -33.054 Z M -138.598 -30.938 L -138.598 -30.938 Q -138.764 -30.653 -138.823 -30.487 Q -138.882 -30.32 -138.882 -30.154 Q -138.882 -29.703 -138.515 -29.473 Q -138.147 -29.242 -137.373 -29.242 Q -136.736 -29.242 -136.344 -29.399 Q -135.952 -29.556 -135.766 -29.776 Q -135.579 -29.997 -135.579 -30.203 Q -135.579 -30.467 -135.751 -30.614 Q -135.922 -30.761 -136.187 -30.825 Q -136.452 -30.889 -136.746 -30.908 Q -137.04 -30.928 -137.294 -30.928 Q -137.363 -30.928 -137.402 -30.928 Q -138.029 -30.928 -138.26 -30.933 Q -138.49 -30.938 -138.598 -30.938 Z M -137.539 -35.798 L -137.539 -35.798 Q -137.961 -35.798 -138.221 -35.514 Q -138.48 -35.23 -138.48 -34.534 Q -138.48 -33.848 -138.206 -33.495 Q -137.931 -33.143 -137.432 -33.143 Q -137.167 -33.143 -136.951 -33.25 Q -136.736 -33.358 -136.604 -33.642 Q -136.471 -33.927 -136.471 -34.446 Q -136.471 -35.112 -136.76 -35.455 Q -137.049 -35.798 -137.539 -35.798 Z " fill="black" /><path d="M -134.002 -32.868 L -134.002 -32.868 L -133.688 -32.868 Q -133.561 -32.3 -133.384 -31.986 Q -133.208 -31.673 -132.929 -31.55 Q -132.649 -31.428 -132.247 -31.428 Q -131.787 -31.428 -131.537 -31.579 Q -131.287 -31.731 -131.287 -32.114 Q -131.287 -32.368 -131.41 -32.54 Q -131.532 -32.711 -131.802 -32.868 Q -132.071 -33.025 -132.522 -33.231 Q -132.982 -33.456 -133.311 -33.652 Q -133.639 -33.848 -133.811 -34.113 Q -133.982 -34.377 -133.982 -34.779 Q -133.982 -35.485 -133.507 -35.857 Q -133.031 -36.23 -132.316 -36.23 Q -131.885 -36.23 -131.586 -36.122 Q -131.287 -36.014 -131.111 -35.936 L -131.091 -35.936 L -130.934 -36.181 L -130.66 -36.181 L -130.64 -34.554 L -130.983 -34.554 Q -131.169 -35.308 -131.503 -35.568 Q -131.836 -35.828 -132.267 -35.828 Q -132.718 -35.828 -132.948 -35.632 Q -133.178 -35.436 -133.178 -35.122 Q -133.178 -34.867 -133.022 -34.701 Q -132.865 -34.534 -132.576 -34.392 Q -132.287 -34.25 -131.885 -34.054 Q -131.434 -33.838 -131.091 -33.608 Q -130.748 -33.378 -130.552 -33.089 Q -130.356 -32.8 -130.356 -32.368 Q -130.356 -31.849 -130.63 -31.535 Q -130.905 -31.222 -131.336 -31.089 Q -131.767 -30.957 -132.238 -30.957 Q -132.718 -30.957 -132.982 -31.055 Q -133.247 -31.153 -133.472 -31.241 L -133.512 -31.241 L -133.757 -30.987 L -133.982 -30.987 Z " fill="black" /><path d="M -116.507 -37.175 L -116.507 -37.175 L -120.175 -37.175 L -120.175 -33.465 L -121.183 -33.465 L -121.183 -37.175 L -124.851 -37.175 L -124.851 -38.127 L -121.183 -38.127 L -121.183 -41.837 L -120.175 -41.837 L -120.175 -38.127 L -116.507 -38.127 Z " fill="black" /><path d="M -103.554 -36.055 L -103.554 -36.055 L -103.302 -35.789 Q -104.016 -34.949 -104.954 -34.41 Q -105.892 -33.871 -107.222 -33.871 Q -108.482 -33.871 -109.238 -34.34 Q -109.994 -34.809 -110.323 -35.593 Q -110.652 -36.377 -110.652 -37.301 Q -110.652 -38.771 -110.204 -39.912 Q -109.756 -41.053 -108.979 -41.83 Q -108.202 -42.607 -107.222 -43.006 Q -106.242 -43.405 -105.178 -43.405 Q -104.464 -43.405 -104.065 -43.279 Q -103.666 -43.153 -103.442 -43.02 Q -103.218 -42.887 -103.05 -42.887 Q -102.882 -42.887 -102.756 -43.027 Q -102.63 -43.167 -102.462 -43.391 L -102.056 -43.391 L -102.714 -40.185 L -103.176 -40.185 Q -103.12 -41.585 -103.694 -42.194 Q -104.268 -42.803 -105.304 -42.803 Q -106.116 -42.803 -106.83 -42.432 Q -107.544 -42.061 -108.097 -41.382 Q -108.65 -40.703 -108.965 -39.758 Q -109.28 -38.813 -109.28 -37.651 Q -109.28 -36.251 -108.615 -35.516 Q -107.95 -34.781 -106.564 -34.781 Q -104.954 -34.781 -103.554 -36.055 Z " fill="black" /><path d="M -101.073 -33.054 L -101.073 -33.054 L -101.073 -33.094 Q -101.416 -33.299 -101.656 -33.628 Q -101.896 -33.956 -101.896 -34.475 Q -101.896 -35.024 -101.632 -35.416 Q -101.367 -35.808 -100.916 -36.019 Q -100.465 -36.23 -99.907 -36.23 Q -99.387 -36.23 -99.059 -36.117 Q -98.731 -36.004 -98.731 -36.004 L -97.29 -36.043 L -97.29 -35.465 L -98.319 -35.485 L -98.319 -35.416 Q -98.192 -35.24 -98.055 -35 Q -97.917 -34.76 -97.917 -34.328 Q -97.917 -33.838 -98.177 -33.481 Q -98.437 -33.123 -98.873 -32.932 Q -99.309 -32.741 -99.858 -32.741 Q -100.358 -32.741 -100.799 -32.917 Q -100.867 -32.79 -100.96 -32.555 Q -101.053 -32.319 -101.053 -32.153 Q -101.053 -31.947 -100.813 -31.849 Q -100.573 -31.751 -99.858 -31.751 Q -99.329 -31.751 -98.878 -31.726 Q -98.427 -31.702 -98.094 -31.589 Q -97.761 -31.477 -97.579 -31.227 Q -97.398 -30.977 -97.398 -30.516 Q -97.398 -29.987 -97.668 -29.619 Q -97.937 -29.252 -98.378 -29.027 Q -98.819 -28.801 -99.334 -28.698 Q -99.848 -28.595 -100.348 -28.595 Q -101.063 -28.595 -101.455 -28.772 Q -101.847 -28.948 -101.999 -29.223 Q -102.151 -29.497 -102.151 -29.781 Q -102.151 -30.056 -101.96 -30.325 Q -101.769 -30.595 -101.347 -30.987 L -101.347 -31.036 Q -101.592 -31.163 -101.759 -31.379 Q -101.926 -31.594 -101.926 -31.8 Q -101.926 -32.094 -101.666 -32.422 Q -101.406 -32.751 -101.073 -33.054 Z M -101.024 -30.938 L -101.024 -30.938 Q -101.191 -30.653 -101.249 -30.487 Q -101.308 -30.32 -101.308 -30.154 Q -101.308 -29.703 -100.941 -29.473 Q -100.573 -29.242 -99.799 -29.242 Q -99.162 -29.242 -98.77 -29.399 Q -98.378 -29.556 -98.192 -29.776 Q -98.006 -29.997 -98.006 -30.203 Q -98.006 -30.467 -98.177 -30.614 Q -98.349 -30.761 -98.613 -30.825 Q -98.878 -30.889 -99.172 -30.908 Q -99.466 -30.928 -99.721 -30.928 Q -99.789 -30.928 -99.828 -30.928 Q -100.456 -30.928 -100.686 -30.933 Q -100.916 -30.938 -101.024 -30.938 Z M -99.966 -35.798 L -99.966 -35.798 Q -100.387 -35.798 -100.647 -35.514 Q -100.906 -35.23 -100.906 -34.534 Q -100.906 -33.848 -100.632 -33.495 Q -100.358 -33.143 -99.858 -33.143 Q -99.593 -33.143 -99.378 -33.25 Q -99.162 -33.358 -99.03 -33.642 Q -98.897 -33.927 -98.897 -34.446 Q -98.897 -35.112 -99.187 -35.455 Q -99.476 -35.798 -99.966 -35.798 Z " fill="black" /><path d="M -94.968 -38.405 L -94.968 -38.405 L -94.968 -35.367 L -94.919 -35.367 Q -94.634 -35.7 -94.247 -35.965 Q -93.86 -36.23 -93.311 -36.23 Q -92.802 -36.23 -92.385 -35.921 Q -91.969 -35.612 -91.719 -35.068 Q -91.469 -34.524 -91.469 -33.819 Q -91.469 -32.878 -91.812 -32.241 Q -92.155 -31.604 -92.748 -31.285 Q -93.341 -30.967 -94.095 -30.967 Q -94.536 -30.967 -94.909 -31.04 Q -95.281 -31.114 -95.541 -31.212 Q -95.801 -31.31 -95.918 -31.359 L -95.918 -37.239 Q -95.918 -37.602 -95.997 -37.704 Q -96.075 -37.807 -96.408 -37.807 Q -96.516 -37.807 -96.609 -37.793 Q -96.702 -37.778 -96.702 -37.778 L -96.702 -38.15 L -95.369 -38.405 Z M -94.968 -34.858 L -94.968 -34.858 L -94.968 -31.918 Q -94.85 -31.702 -94.595 -31.575 Q -94.34 -31.447 -93.919 -31.447 Q -93.4 -31.447 -93.086 -31.726 Q -92.772 -32.006 -92.63 -32.471 Q -92.488 -32.937 -92.488 -33.486 Q -92.488 -33.985 -92.601 -34.441 Q -92.714 -34.897 -92.998 -35.181 Q -93.282 -35.465 -93.782 -35.465 Q -94.046 -35.465 -94.287 -35.362 Q -94.527 -35.259 -94.703 -35.117 Q -94.879 -34.975 -94.968 -34.858 Z " fill="black" /><path d="M -77.522 -37.175 L -77.522 -37.175 L -81.19 -37.175 L -81.19 -33.465 L -82.198 -33.465 L -82.198 -37.175 L -85.866 -37.175 L -85.866 -38.127 L -82.198 -38.127 L -82.198 -41.837 L -81.19 -41.837 L -81.19 -38.127 L -77.522 -38.127 Z " fill="black" /><path d="M -64.569 -36.055 L -64.569 -36.055 L -64.317 -35.789 Q -65.031 -34.949 -65.969 -34.41 Q -66.907 -33.871 -68.237 -33.871 Q -69.497 -33.871 -70.253 -34.34 Q -71.009 -34.809 -71.338 -35.593 Q -71.667 -36.377 -71.667 -37.301 Q -71.667 -38.771 -71.219 -39.912 Q -70.771 -41.053 -69.994 -41.83 Q -69.217 -42.607 -68.237 -43.006 Q -67.257 -43.405 -66.193 -43.405 Q -65.479 -43.405 -65.08 -43.279 Q -64.681 -43.153 -64.457 -43.02 Q -64.233 -42.887 -64.065 -42.887 Q -63.897 -42.887 -63.771 -43.027 Q -63.645 -43.167 -63.477 -43.391 L -63.071 -43.391 L -63.729 -40.185 L -64.191 -40.185 Q -64.135 -41.585 -64.709 -42.194 Q -65.283 -42.803 -66.319 -42.803 Q -67.131 -42.803 -67.845 -42.432 Q -68.559 -42.061 -69.112 -41.382 Q -69.665 -40.703 -69.98 -39.758 Q -70.295 -38.813 -70.295 -37.651 Q -70.295 -36.251 -69.63 -35.516 Q -68.965 -34.781 -67.579 -34.781 Q -65.969 -34.781 -64.569 -36.055 Z " fill="black" /><path d="M -57.727 -31.212 L -57.727 -31.212 L -59.05 -31.036 L -59.403 -31.036 L -59.403 -31.722 L -59.471 -31.722 Q -59.795 -31.447 -60.201 -31.222 Q -60.608 -30.996 -61.118 -30.996 Q -61.696 -30.996 -62.103 -31.31 Q -62.509 -31.624 -62.725 -32.172 Q -62.941 -32.721 -62.941 -33.417 Q -62.941 -34.289 -62.602 -34.921 Q -62.264 -35.553 -61.701 -35.891 Q -61.137 -36.23 -60.471 -36.23 Q -59.893 -36.23 -59.422 -35.965 L -59.422 -37.229 Q -59.422 -37.582 -59.496 -37.695 Q -59.569 -37.807 -59.883 -37.807 Q -59.952 -37.807 -60.064 -37.793 Q -60.177 -37.778 -60.177 -37.778 L -60.177 -38.15 L -58.874 -38.405 L -58.472 -38.405 L -58.472 -32.192 Q -58.472 -31.81 -58.364 -31.697 Q -58.256 -31.584 -57.992 -31.584 L -57.727 -31.584 Z M -59.422 -32.172 L -59.422 -32.172 L -59.422 -35.034 Q -59.53 -35.308 -59.78 -35.524 Q -60.03 -35.74 -60.491 -35.74 Q -61.147 -35.74 -61.569 -35.294 Q -61.99 -34.848 -61.99 -33.819 Q -61.99 -32.77 -61.622 -32.285 Q -61.255 -31.8 -60.589 -31.8 Q -60.275 -31.8 -60.015 -31.888 Q -59.756 -31.976 -59.422 -32.172 Z " fill="black" /><path d="M -55.228 -38.405 L -55.228 -38.405 L -55.228 -35.367 L -55.179 -35.367 Q -54.895 -35.7 -54.508 -35.965 Q -54.121 -36.23 -53.572 -36.23 Q -53.062 -36.23 -52.646 -35.921 Q -52.229 -35.612 -51.979 -35.068 Q -51.729 -34.524 -51.729 -33.819 Q -51.729 -32.878 -52.072 -32.241 Q -52.415 -31.604 -53.008 -31.285 Q -53.601 -30.967 -54.356 -30.967 Q -54.797 -30.967 -55.169 -31.04 Q -55.542 -31.114 -55.801 -31.212 Q -56.061 -31.31 -56.179 -31.359 L -56.179 -37.239 Q -56.179 -37.602 -56.257 -37.704 Q -56.335 -37.807 -56.669 -37.807 Q -56.776 -37.807 -56.869 -37.793 Q -56.963 -37.778 -56.963 -37.778 L -56.963 -38.15 L -55.63 -38.405 Z M -55.228 -34.858 L -55.228 -34.858 L -55.228 -31.918 Q -55.11 -31.702 -54.856 -31.575 Q -54.601 -31.447 -54.179 -31.447 Q -53.66 -31.447 -53.346 -31.726 Q -53.033 -32.006 -52.891 -32.471 Q -52.749 -32.937 -52.749 -33.486 Q -52.749 -33.985 -52.861 -34.441 Q -52.974 -34.897 -53.258 -35.181 Q -53.542 -35.465 -54.042 -35.465 Q -54.307 -35.465 -54.547 -35.362 Q -54.787 -35.259 -54.963 -35.117 Q -55.14 -34.975 -55.228 -34.858 Z " fill="black" /><path d="M -37.305 -40.829 L -37.305 -40.829 L -36.829 -40.829 Q -36.857 -40.367 -37.018 -39.863 Q -37.179 -39.359 -37.466 -38.911 Q -37.753 -38.463 -38.159 -38.183 Q -38.565 -37.903 -39.097 -37.903 Q -39.615 -37.903 -40.147 -38.183 Q -40.679 -38.463 -41.197 -38.82 Q -41.715 -39.177 -42.184 -39.457 Q -42.653 -39.737 -43.031 -39.737 Q -43.535 -39.737 -43.885 -39.457 Q -44.235 -39.177 -44.459 -38.729 Q -44.683 -38.281 -44.795 -37.763 L -45.271 -37.763 Q -45.229 -38.477 -44.942 -39.149 Q -44.655 -39.821 -44.144 -40.255 Q -43.633 -40.689 -42.933 -40.689 Q -42.415 -40.689 -41.883 -40.409 Q -41.351 -40.129 -40.833 -39.772 Q -40.315 -39.415 -39.846 -39.135 Q -39.377 -38.855 -38.985 -38.855 Q -38.481 -38.855 -38.152 -39.135 Q -37.823 -39.415 -37.613 -39.87 Q -37.403 -40.325 -37.305 -40.829 Z M -37.305 -37.441 L -37.305 -37.441 L -36.829 -37.441 Q -36.857 -36.979 -37.018 -36.475 Q -37.179 -35.971 -37.466 -35.53 Q -37.753 -35.089 -38.159 -34.809 Q -38.565 -34.529 -39.097 -34.529 Q -39.615 -34.529 -40.147 -34.809 Q -40.679 -35.089 -41.197 -35.446 Q -41.715 -35.803 -42.184 -36.083 Q -42.653 -36.363 -43.031 -36.363 Q -43.535 -36.363 -43.885 -36.076 Q -44.235 -35.789 -44.459 -35.341 Q -44.683 -34.893 -44.795 -34.375 L -45.271 -34.375 Q -45.229 -35.103 -44.942 -35.768 Q -44.655 -36.433 -44.144 -36.867 Q -43.633 -37.301 -42.933 -37.301 Q -42.415 -37.301 -41.883 -37.021 Q -41.351 -36.741 -40.833 -36.384 Q -40.315 -36.027 -39.846 -35.747 Q -39.377 -35.467 -38.985 -35.467 Q -38.481 -35.467 -38.152 -35.747 Q -37.823 -36.027 -37.613 -36.482 Q -37.403 -36.937 -37.305 -37.441 Z " fill="black" /><path d="M -23.022 -36.055 L -23.022 -36.055 L -22.77 -35.789 Q -23.484 -34.949 -24.422 -34.41 Q -25.36 -33.871 -26.69 -33.871 Q -27.95 -33.871 -28.706 -34.34 Q -29.462 -34.809 -29.791 -35.593 Q -30.12 -36.377 -30.12 -37.301 Q -30.12 -38.771 -29.672 -39.912 Q -29.224 -41.053 -28.447 -41.83 Q -27.67 -42.607 -26.69 -43.006 Q -25.71 -43.405 -24.646 -43.405 Q -23.932 -43.405 -23.533 -43.279 Q -23.134 -43.153 -22.91 -43.02 Q -22.686 -42.887 -22.518 -42.887 Q -22.35 -42.887 -22.224 -43.027 Q -22.098 -43.167 -21.93 -43.391 L -21.524 -43.391 L -22.182 -40.185 L -22.644 -40.185 Q -22.588 -41.585 -23.162 -42.194 Q -23.736 -42.803 -24.772 -42.803 Q -25.584 -42.803 -26.298 -42.432 Q -27.012 -42.061 -27.565 -41.382 Q -28.118 -40.703 -28.433 -39.758 Q -28.748 -38.813 -28.748 -37.651 Q -28.748 -36.251 -28.083 -35.516 Q -27.418 -34.781 -26.032 -34.781 Q -24.422 -34.781 -23.022 -36.055 Z " fill="black" /><path d="M -20.541 -33.054 L -20.541 -33.054 L -20.541 -33.094 Q -20.884 -33.299 -21.124 -33.628 Q -21.364 -33.956 -21.364 -34.475 Q -21.364 -35.024 -21.099 -35.416 Q -20.835 -35.808 -20.384 -36.019 Q -19.933 -36.23 -19.375 -36.23 Q -18.855 -36.23 -18.527 -36.117 Q -18.199 -36.004 -18.199 -36.004 L -16.758 -36.043 L -16.758 -35.465 L -17.787 -35.485 L -17.787 -35.416 Q -17.66 -35.24 -17.522 -35 Q -17.385 -34.76 -17.385 -34.328 Q -17.385 -33.838 -17.645 -33.481 Q -17.905 -33.123 -18.341 -32.932 Q -18.777 -32.741 -19.326 -32.741 Q -19.825 -32.741 -20.266 -32.917 Q -20.335 -32.79 -20.428 -32.555 Q -20.521 -32.319 -20.521 -32.153 Q -20.521 -31.947 -20.281 -31.849 Q -20.041 -31.751 -19.326 -31.751 Q -18.796 -31.751 -18.346 -31.726 Q -17.895 -31.702 -17.562 -31.589 Q -17.228 -31.477 -17.047 -31.227 Q -16.866 -30.977 -16.866 -30.516 Q -16.866 -29.987 -17.135 -29.619 Q -17.405 -29.252 -17.846 -29.027 Q -18.287 -28.801 -18.801 -28.698 Q -19.316 -28.595 -19.816 -28.595 Q -20.531 -28.595 -20.923 -28.772 Q -21.315 -28.948 -21.467 -29.223 Q -21.619 -29.497 -21.619 -29.781 Q -21.619 -30.056 -21.428 -30.325 Q -21.237 -30.595 -20.815 -30.987 L -20.815 -31.036 Q -21.06 -31.163 -21.227 -31.379 Q -21.393 -31.594 -21.393 -31.8 Q -21.393 -32.094 -21.134 -32.422 Q -20.874 -32.751 -20.541 -33.054 Z M -20.492 -30.938 L -20.492 -30.938 Q -20.658 -30.653 -20.717 -30.487 Q -20.776 -30.32 -20.776 -30.154 Q -20.776 -29.703 -20.408 -29.473 Q -20.041 -29.242 -19.267 -29.242 Q -18.63 -29.242 -18.238 -29.399 Q -17.846 -29.556 -17.66 -29.776 Q -17.473 -29.997 -17.473 -30.203 Q -17.473 -30.467 -17.645 -30.614 Q -17.816 -30.761 -18.081 -30.825 Q -18.346 -30.889 -18.64 -30.908 Q -18.934 -30.928 -19.188 -30.928 Q -19.257 -30.928 -19.296 -30.928 Q -19.923 -30.928 -20.154 -30.933 Q -20.384 -30.938 -20.492 -30.938 Z M -19.433 -35.798 L -19.433 -35.798 Q -19.855 -35.798 -20.114 -35.514 Q -20.374 -35.23 -20.374 -34.534 Q -20.374 -33.848 -20.1 -33.495 Q -19.825 -33.143 -19.326 -33.143 Q -19.061 -33.143 -18.845 -33.25 Q -18.63 -33.358 -18.497 -33.642 Q -18.365 -33.927 -18.365 -34.446 Q -18.365 -35.112 -18.654 -35.455 Q -18.943 -35.798 -19.433 -35.798 Z " fill="black" /><path d="M -15.896 -32.868 L -15.896 -32.868 L -15.582 -32.868 Q -15.455 -32.3 -15.278 -31.986 Q -15.102 -31.673 -14.822 -31.55 Q -14.543 -31.428 -14.141 -31.428 Q -13.681 -31.428 -13.431 -31.579 Q -13.181 -31.731 -13.181 -32.114 Q -13.181 -32.368 -13.303 -32.54 Q -13.426 -32.711 -13.695 -32.868 Q -13.965 -33.025 -14.416 -33.231 Q -14.876 -33.456 -15.205 -33.652 Q -15.533 -33.848 -15.704 -34.113 Q -15.876 -34.377 -15.876 -34.779 Q -15.876 -35.485 -15.401 -35.857 Q -14.925 -36.23 -14.21 -36.23 Q -13.779 -36.23 -13.48 -36.122 Q -13.181 -36.014 -13.005 -35.936 L -12.985 -35.936 L -12.828 -36.181 L -12.554 -36.181 L -12.534 -34.554 L -12.877 -34.554 Q -13.063 -35.308 -13.397 -35.568 Q -13.73 -35.828 -14.161 -35.828 Q -14.612 -35.828 -14.842 -35.632 Q -15.072 -35.436 -15.072 -35.122 Q -15.072 -34.867 -14.916 -34.701 Q -14.759 -34.534 -14.47 -34.392 Q -14.181 -34.25 -13.779 -34.054 Q -13.328 -33.838 -12.985 -33.608 Q -12.642 -33.378 -12.446 -33.089 Q -12.25 -32.8 -12.25 -32.368 Q -12.25 -31.849 -12.524 -31.535 Q -12.799 -31.222 -13.23 -31.089 Q -13.661 -30.957 -14.132 -30.957 Q -14.612 -30.957 -14.876 -31.055 Q -15.141 -31.153 -15.366 -31.241 L -15.406 -31.241 L -15.651 -30.987 L -15.876 -30.987 Z " fill="black" /></g></g></g><circle cx="108.0" cy="-72.0" r="2.6999999999999997" style="stroke:black;fill:black;stroke-width:2.0;stroke-dasharray:-;" /><circle cx="107.99999999999999" cy="-0.0" r="2.6999999999999997" style="stroke:black;fill:black;stroke-width:2.0;stroke-dasharray:-;" /><g><g><g><path d="M 59.122 -39.304 L 59.122 -39.304 L 59.038 -38.59 L 57.82 -38.73 L 57.82 -38.688 Q 58.058 -38.422 58.191 -38.023 Q 58.324 -37.624 58.324 -37.26 Q 58.324 -36.63 58.072 -36.203 Q 57.82 -35.776 57.414 -35.517 Q 57.008 -35.258 56.518 -35.125 Q 56.028 -34.992 55.566 -34.95 Q 55.006 -34.894 54.775 -34.712 Q 54.544 -34.53 54.544 -34.334 Q 54.544 -34.082 54.824 -33.949 Q 55.104 -33.816 55.545 -33.732 Q 55.986 -33.648 56.49 -33.543 Q 56.994 -33.438 57.435 -33.256 Q 57.876 -33.074 58.156 -32.745 Q 58.436 -32.416 58.436 -31.87 Q 58.436 -31.268 58.044 -30.757 Q 57.652 -30.246 56.882 -29.931 Q 56.112 -29.616 54.992 -29.616 Q 53.984 -29.616 53.382 -29.861 Q 52.78 -30.106 52.514 -30.491 Q 52.248 -30.876 52.248 -31.296 Q 52.248 -31.968 52.766 -32.381 Q 53.284 -32.794 53.942 -33.004 L 53.942 -33.06 Q 53.76 -33.172 53.599 -33.375 Q 53.438 -33.578 53.438 -33.9 Q 53.438 -34.25 53.62 -34.46 Q 53.802 -34.67 54.089 -34.803 Q 54.376 -34.936 54.656 -35.034 L 54.656 -35.118 Q 54.11 -35.356 53.704 -35.79 Q 53.298 -36.224 53.298 -37.022 Q 53.298 -37.75 53.648 -38.303 Q 53.998 -38.856 54.607 -39.164 Q 55.216 -39.472 55.972 -39.472 Q 56.476 -39.472 56.735 -39.423 Q 56.994 -39.374 57.246 -39.304 Z M 57.428 -31.352 L 57.428 -31.352 Q 57.428 -31.772 57.078 -32.031 Q 56.728 -32.29 56.21 -32.444 Q 55.692 -32.598 55.167 -32.689 Q 54.642 -32.78 54.278 -32.85 Q 53.928 -32.626 53.634 -32.339 Q 53.34 -32.052 53.34 -31.506 Q 53.34 -30.946 53.774 -30.526 Q 54.208 -30.106 55.272 -30.106 Q 56.28 -30.106 56.854 -30.477 Q 57.428 -30.848 57.428 -31.352 Z M 57.078 -37.414 L 57.078 -37.414 Q 57.078 -38.114 56.812 -38.583 Q 56.546 -39.052 55.93 -39.052 Q 55.328 -39.052 54.936 -38.548 Q 54.544 -38.044 54.544 -37.022 Q 54.544 -36.294 54.796 -35.839 Q 55.048 -35.384 55.65 -35.384 Q 56.35 -35.384 56.714 -35.972 Q 57.078 -36.56 57.078 -37.414 Z " fill="black" /><path d="M 61.514 -33.618 L 61.514 -33.618 L 61.514 -30.904 Q 61.514 -30.61 61.572 -30.453 Q 61.631 -30.296 61.798 -30.242 Q 61.964 -30.188 62.288 -30.188 L 62.288 -29.826 L 59.818 -29.826 L 59.818 -30.188 Q 60.132 -30.188 60.289 -30.242 Q 60.445 -30.296 60.494 -30.458 Q 60.543 -30.619 60.543 -30.923 L 60.543 -33.893 Q 60.543 -34.167 60.441 -34.26 Q 60.338 -34.353 60.112 -34.353 Q 60.004 -34.353 59.921 -34.343 Q 59.838 -34.334 59.838 -34.334 L 59.838 -34.706 L 61.122 -34.941 L 61.484 -34.941 L 61.484 -34.138 L 61.553 -34.138 Q 61.964 -34.51 62.376 -34.74 Q 62.788 -34.971 63.346 -34.971 Q 63.807 -34.971 64.096 -34.735 Q 64.385 -34.5 64.542 -34.157 L 64.591 -34.157 Q 65.483 -34.971 66.306 -34.971 Q 66.972 -34.971 67.359 -34.559 Q 67.746 -34.147 67.746 -33.256 L 67.746 -31.1 Q 67.746 -30.766 67.786 -30.565 Q 67.825 -30.365 67.982 -30.276 Q 68.138 -30.188 68.491 -30.188 L 68.491 -29.826 L 66.031 -29.826 L 66.031 -30.188 Q 66.394 -30.188 66.556 -30.281 Q 66.717 -30.374 66.757 -30.575 Q 66.796 -30.776 66.796 -31.1 L 66.796 -33.138 Q 66.796 -33.755 66.546 -34 Q 66.296 -34.245 65.904 -34.245 Q 65.571 -34.245 65.238 -34.044 Q 64.904 -33.844 64.65 -33.648 L 64.65 -31.1 Q 64.65 -30.737 64.694 -30.536 Q 64.738 -30.335 64.909 -30.262 Q 65.081 -30.188 65.443 -30.188 L 65.443 -29.826 L 62.886 -29.826 L 62.886 -30.188 Q 63.258 -30.188 63.429 -30.262 Q 63.601 -30.335 63.65 -30.536 Q 63.699 -30.737 63.699 -31.1 L 63.699 -33.167 Q 63.699 -33.785 63.478 -34.015 Q 63.258 -34.245 62.876 -34.245 Q 62.474 -34.245 62.106 -34.03 Q 61.739 -33.814 61.514 -33.618 Z " fill="black" /><path d="M 72.8 -34.516 L 72.8 -34.516 L 76.622 -40.256 Q 76.818 -40.536 76.937 -40.774 Q 77.056 -41.012 77.056 -41.18 Q 77.056 -41.39 76.874 -41.467 Q 76.692 -41.544 76.216 -41.544 L 76.244 -41.964 L 79.268 -41.964 L 79.24 -41.544 Q 78.862 -41.544 78.596 -41.432 Q 78.33 -41.32 78.057 -41.005 Q 77.784 -40.69 77.35 -40.046 L 72.212 -32.696 L 71.75 -32.696 L 70.966 -40.27 Q 70.882 -40.97 70.658 -41.257 Q 70.434 -41.544 69.874 -41.544 L 69.902 -41.964 L 73.332 -41.964 L 73.29 -41.544 Q 72.758 -41.544 72.45 -41.334 Q 72.142 -41.124 72.17 -40.648 Q 72.17 -40.578 72.191 -40.396 Q 72.212 -40.214 72.212 -40.144 L 72.632 -36.154 L 72.73 -34.516 Z " fill="black" /><path d="M 77.591 -31.795 L 77.591 -31.795 L 77.591 -31.835 Q 77.248 -32.04 77.008 -32.369 Q 76.768 -32.697 76.768 -33.216 Q 76.768 -33.765 77.033 -34.157 Q 77.297 -34.549 77.748 -34.76 Q 78.199 -34.971 78.757 -34.971 Q 79.277 -34.971 79.605 -34.858 Q 79.933 -34.745 79.933 -34.745 L 81.374 -34.784 L 81.374 -34.206 L 80.345 -34.226 L 80.345 -34.157 Q 80.472 -33.981 80.61 -33.741 Q 80.747 -33.501 80.747 -33.069 Q 80.747 -32.579 80.487 -32.222 Q 80.227 -31.864 79.791 -31.673 Q 79.355 -31.482 78.806 -31.482 Q 78.307 -31.482 77.866 -31.658 Q 77.797 -31.531 77.704 -31.296 Q 77.611 -31.06 77.611 -30.894 Q 77.611 -30.688 77.851 -30.59 Q 78.091 -30.492 78.806 -30.492 Q 79.336 -30.492 79.786 -30.467 Q 80.237 -30.443 80.57 -30.33 Q 80.904 -30.218 81.085 -29.968 Q 81.266 -29.718 81.266 -29.257 Q 81.266 -28.728 80.997 -28.36 Q 80.727 -27.993 80.286 -27.768 Q 79.845 -27.542 79.331 -27.439 Q 78.816 -27.336 78.316 -27.336 Q 77.601 -27.336 77.209 -27.513 Q 76.817 -27.689 76.665 -27.964 Q 76.513 -28.238 76.513 -28.522 Q 76.513 -28.797 76.704 -29.066 Q 76.895 -29.336 77.317 -29.728 L 77.317 -29.777 Q 77.072 -29.904 76.905 -30.12 Q 76.739 -30.335 76.739 -30.541 Q 76.739 -30.835 76.998 -31.163 Q 77.258 -31.492 77.591 -31.795 Z M 77.64 -29.679 L 77.64 -29.679 Q 77.474 -29.394 77.415 -29.228 Q 77.356 -29.061 77.356 -28.895 Q 77.356 -28.444 77.724 -28.213 Q 78.091 -27.983 78.865 -27.983 Q 79.502 -27.983 79.894 -28.14 Q 80.286 -28.297 80.472 -28.517 Q 80.659 -28.738 80.659 -28.944 Q 80.659 -29.208 80.487 -29.355 Q 80.316 -29.502 80.051 -29.566 Q 79.786 -29.63 79.492 -29.649 Q 79.198 -29.669 78.944 -29.669 Q 78.875 -29.669 78.836 -29.669 Q 78.209 -29.669 77.978 -29.674 Q 77.748 -29.679 77.64 -29.679 Z M 78.699 -34.539 L 78.699 -34.539 Q 78.277 -34.539 78.017 -34.255 Q 77.758 -33.971 77.758 -33.275 Q 77.758 -32.589 78.032 -32.236 Q 78.307 -31.884 78.806 -31.884 Q 79.071 -31.884 79.287 -31.991 Q 79.502 -32.099 79.634 -32.383 Q 79.767 -32.668 79.767 -33.187 Q 79.767 -33.853 79.478 -34.196 Q 79.189 -34.539 78.699 -34.539 Z " fill="black" /><path d="M 82.236 -31.609 L 82.236 -31.609 L 82.55 -31.609 Q 82.677 -31.041 82.854 -30.727 Q 83.03 -30.414 83.309 -30.291 Q 83.589 -30.169 83.991 -30.169 Q 84.451 -30.169 84.701 -30.32 Q 84.951 -30.472 84.951 -30.855 Q 84.951 -31.109 84.828 -31.281 Q 84.706 -31.452 84.436 -31.609 Q 84.167 -31.766 83.716 -31.972 Q 83.256 -32.197 82.927 -32.393 Q 82.599 -32.589 82.427 -32.854 Q 82.256 -33.118 82.256 -33.52 Q 82.256 -34.226 82.731 -34.598 Q 83.207 -34.971 83.922 -34.971 Q 84.353 -34.971 84.652 -34.863 Q 84.951 -34.755 85.127 -34.677 L 85.147 -34.677 L 85.304 -34.922 L 85.578 -34.922 L 85.598 -33.295 L 85.255 -33.295 Q 85.069 -34.049 84.735 -34.309 Q 84.402 -34.569 83.971 -34.569 Q 83.52 -34.569 83.29 -34.373 Q 83.06 -34.177 83.06 -33.863 Q 83.06 -33.608 83.216 -33.442 Q 83.373 -33.275 83.662 -33.133 Q 83.951 -32.991 84.353 -32.795 Q 84.804 -32.579 85.147 -32.349 Q 85.49 -32.119 85.686 -31.83 Q 85.882 -31.541 85.882 -31.109 Q 85.882 -30.59 85.608 -30.276 Q 85.333 -29.963 84.902 -29.83 Q 84.471 -29.698 84 -29.698 Q 83.52 -29.698 83.256 -29.796 Q 82.991 -29.894 82.766 -29.982 L 82.726 -29.982 L 82.481 -29.728 L 82.256 -29.728 Z " fill="black" /></g></g></g><circle cx="216.0" cy="-0.0" r="2.6999999999999997" style="stroke:black;fill:black;stroke-width:2.0;stroke-dasharray:-;" /><circle cx="216.0" cy="-72.0" r="2.6999999999999997" style="stroke:black;fill:black;stroke-width:2.0;stroke-dasharray:-;" /><g><g><g><path d="M 192.21 -42.11 L 192.21 -42.11 L 192.126 -41.396 L 190.908 -41.536 L 190.908 -41.494 Q 191.146 -41.228 191.279 -40.829 Q 191.412 -40.43 191.412 -40.066 Q 191.412 -39.436 191.16 -39.009 Q 190.908 -38.582 190.502 -38.323 Q 190.096 -38.064 189.606 -37.931 Q 189.116 -37.798 188.654 -37.756 Q 188.094 -37.7 187.863 -37.518 Q 187.632 -37.336 187.632 -37.14 Q 187.632 -36.888 187.912 -36.755 Q 188.192 -36.622 188.633 -36.538 Q 189.074 -36.454 189.578 -36.349 Q 190.082 -36.244 190.523 -36.062 Q 190.964 -35.88 191.244 -35.551 Q 191.524 -35.222 191.524 -34.676 Q 191.524 -34.074 191.132 -33.563 Q 190.74 -33.052 189.97 -32.737 Q 189.2 -32.422 188.08 -32.422 Q 187.072 -32.422 186.47 -32.667 Q 185.868 -32.912 185.602 -33.297 Q 185.336 -33.682 185.336 -34.102 Q 185.336 -34.774 185.854 -35.187 Q 186.372 -35.6 187.03 -35.81 L 187.03 -35.866 Q 186.848 -35.978 186.687 -36.181 Q 186.526 -36.384 186.526 -36.706 Q 186.526 -37.056 186.708 -37.266 Q 186.89 -37.476 187.177 -37.609 Q 187.464 -37.742 187.744 -37.84 L 187.744 -37.924 Q 187.198 -38.162 186.792 -38.596 Q 186.386 -39.03 186.386 -39.828 Q 186.386 -40.556 186.736 -41.109 Q 187.086 -41.662 187.695 -41.97 Q 188.304 -42.278 189.06 -42.278 Q 189.564 -42.278 189.823 -42.229 Q 190.082 -42.18 190.334 -42.11 Z M 190.516 -34.158 L 190.516 -34.158 Q 190.516 -34.578 190.166 -34.837 Q 189.816 -35.096 189.298 -35.25 Q 188.78 -35.404 188.255 -35.495 Q 187.73 -35.586 187.366 -35.656 Q 187.016 -35.432 186.722 -35.145 Q 186.428 -34.858 186.428 -34.312 Q 186.428 -33.752 186.862 -33.332 Q 187.296 -32.912 188.36 -32.912 Q 189.368 -32.912 189.942 -33.283 Q 190.516 -33.654 190.516 -34.158 Z M 190.166 -40.22 L 190.166 -40.22 Q 190.166 -40.92 189.9 -41.389 Q 189.634 -41.858 189.018 -41.858 Q 188.416 -41.858 188.024 -41.354 Q 187.632 -40.85 187.632 -39.828 Q 187.632 -39.1 187.884 -38.645 Q 188.136 -38.19 188.738 -38.19 Q 189.438 -38.19 189.802 -38.778 Q 190.166 -39.366 190.166 -40.22 Z " fill="black" /><path d="M 198.198 -32.759 L 198.198 -32.759 L 196.875 -32.583 L 196.522 -32.583 L 196.522 -33.269 L 196.453 -33.269 Q 196.13 -32.995 195.723 -32.769 Q 195.316 -32.544 194.807 -32.544 Q 194.229 -32.544 193.822 -32.857 Q 193.415 -33.171 193.2 -33.72 Q 192.984 -34.269 192.984 -34.964 Q 192.984 -35.837 193.322 -36.469 Q 193.66 -37.101 194.224 -37.439 Q 194.787 -37.777 195.454 -37.777 Q 196.032 -37.777 196.502 -37.512 L 196.502 -38.777 Q 196.502 -39.129 196.429 -39.242 Q 196.355 -39.355 196.042 -39.355 Q 195.973 -39.355 195.86 -39.34 Q 195.748 -39.325 195.748 -39.325 L 195.748 -39.698 L 197.051 -39.953 L 197.453 -39.953 L 197.453 -33.739 Q 197.453 -33.357 197.561 -33.245 Q 197.668 -33.132 197.933 -33.132 L 198.198 -33.132 Z M 196.502 -33.72 L 196.502 -33.72 L 196.502 -36.581 Q 196.394 -36.856 196.144 -37.071 Q 195.895 -37.287 195.434 -37.287 Q 194.777 -37.287 194.356 -36.841 Q 193.935 -36.395 193.935 -35.366 Q 193.935 -34.318 194.302 -33.833 Q 194.67 -33.347 195.336 -33.347 Q 195.65 -33.347 195.909 -33.436 Q 196.169 -33.524 196.502 -33.72 Z " fill="black" /><path d="M 199.236 -34.416 L 199.236 -34.416 L 199.55 -34.416 Q 199.677 -33.847 199.854 -33.534 Q 200.03 -33.22 200.31 -33.098 Q 200.589 -32.975 200.991 -32.975 Q 201.451 -32.975 201.701 -33.127 Q 201.951 -33.279 201.951 -33.661 Q 201.951 -33.916 201.829 -34.087 Q 201.706 -34.259 201.436 -34.416 Q 201.167 -34.572 200.716 -34.778 Q 200.256 -35.004 199.927 -35.2 Q 199.599 -35.396 199.428 -35.66 Q 199.256 -35.925 199.256 -36.327 Q 199.256 -37.032 199.731 -37.405 Q 200.207 -37.777 200.922 -37.777 Q 201.353 -37.777 201.652 -37.669 Q 201.951 -37.561 202.127 -37.483 L 202.147 -37.483 L 202.304 -37.728 L 202.578 -37.728 L 202.598 -36.101 L 202.255 -36.101 Q 202.069 -36.856 201.735 -37.116 Q 201.402 -37.375 200.971 -37.375 Q 200.52 -37.375 200.29 -37.179 Q 200.06 -36.983 200.06 -36.67 Q 200.06 -36.415 200.216 -36.248 Q 200.373 -36.082 200.662 -35.94 Q 200.951 -35.797 201.353 -35.601 Q 201.804 -35.386 202.147 -35.156 Q 202.49 -34.925 202.686 -34.636 Q 202.882 -34.347 202.882 -33.916 Q 202.882 -33.396 202.608 -33.083 Q 202.333 -32.769 201.902 -32.637 Q 201.471 -32.505 201 -32.505 Q 200.52 -32.505 200.256 -32.603 Q 199.991 -32.701 199.766 -32.789 L 199.726 -32.789 L 199.481 -32.534 L 199.256 -32.534 Z " fill="black" /></g></g></g><g><g><g><path d="M 278.397 -34.769 L 278.397 -34.769 L 279.545 -40.285 Q 279.671 -40.831 279.664 -41.146 Q 279.657 -41.461 279.405 -41.587 Q 279.153 -41.713 278.509 -41.713 L 278.593 -42.133 L 282.471 -42.133 L 282.387 -41.713 Q 281.771 -41.713 281.463 -41.587 Q 281.155 -41.461 281.029 -41.146 Q 280.903 -40.831 280.791 -40.285 L 279.643 -34.713 Q 279.601 -34.489 279.573 -34.307 Q 279.545 -34.125 279.545 -33.971 Q 279.545 -33.579 279.776 -33.467 Q 280.007 -33.355 280.665 -33.355 L 280.581 -32.935 L 276.759 -32.935 L 276.843 -33.355 Q 277.417 -33.355 277.704 -33.453 Q 277.991 -33.551 278.131 -33.852 Q 278.271 -34.153 278.397 -34.769 Z " fill="black" /><path d="M 284.519 -37.315 L 284.519 -37.315 L 284.519 -34.277 L 284.568 -34.277 Q 284.852 -34.61 285.24 -34.875 Q 285.627 -35.14 286.175 -35.14 Q 286.685 -35.14 287.101 -34.831 Q 287.518 -34.522 287.768 -33.978 Q 288.018 -33.434 288.018 -32.729 Q 288.018 -31.788 287.675 -31.151 Q 287.332 -30.514 286.739 -30.196 Q 286.146 -29.877 285.391 -29.877 Q 284.95 -29.877 284.578 -29.951 Q 284.206 -30.024 283.946 -30.122 Q 283.686 -30.22 283.569 -30.269 L 283.569 -36.149 Q 283.569 -36.512 283.49 -36.615 Q 283.412 -36.717 283.079 -36.717 Q 282.971 -36.717 282.878 -36.703 Q 282.785 -36.688 282.785 -36.688 L 282.785 -37.06 L 284.117 -37.315 Z M 284.519 -33.768 L 284.519 -33.768 L 284.519 -30.828 Q 284.637 -30.612 284.892 -30.485 Q 285.146 -30.357 285.568 -30.357 Q 286.087 -30.357 286.401 -30.637 Q 286.714 -30.916 286.856 -31.381 Q 286.999 -31.847 286.999 -32.396 Q 286.999 -32.895 286.886 -33.351 Q 286.773 -33.807 286.489 -34.091 Q 286.205 -34.375 285.705 -34.375 Q 285.44 -34.375 285.2 -34.272 Q 284.96 -34.169 284.784 -34.027 Q 284.607 -33.885 284.519 -33.768 Z " fill="black" /><path d="M 291.595 -30.357 L 291.595 -30.357 L 291.595 -29.995 L 289.106 -29.995 L 289.106 -30.357 Q 289.449 -30.357 289.601 -30.431 Q 289.752 -30.504 289.792 -30.666 Q 289.831 -30.828 289.831 -31.092 L 289.831 -34.052 Q 289.831 -34.385 289.723 -34.454 Q 289.615 -34.522 289.36 -34.522 Q 289.233 -34.522 289.155 -34.512 Q 289.076 -34.503 289.076 -34.503 L 289.076 -34.895 L 290.389 -35.11 L 290.791 -35.11 L 290.791 -31.092 Q 290.791 -30.808 290.835 -30.646 Q 290.879 -30.485 291.051 -30.421 Q 291.222 -30.357 291.595 -30.357 Z M 290.301 -37.276 L 290.301 -37.276 Q 290.585 -37.276 290.776 -37.08 Q 290.968 -36.884 290.968 -36.629 Q 290.968 -36.394 290.776 -36.198 Q 290.585 -36.002 290.301 -36.002 Q 290.027 -36.002 289.846 -36.198 Q 289.664 -36.394 289.664 -36.629 Q 289.664 -36.884 289.846 -37.08 Q 290.027 -37.276 290.301 -37.276 Z " fill="black" /><path d="M 295.515 -30.612 L 295.515 -30.612 L 295.446 -30.612 Q 295.113 -30.338 294.711 -30.132 Q 294.309 -29.926 293.839 -29.926 Q 293.222 -29.926 292.893 -30.298 Q 292.565 -30.671 292.565 -31.2 Q 292.565 -31.651 292.776 -31.955 Q 292.986 -32.258 293.325 -32.45 Q 293.663 -32.641 294.055 -32.758 Q 294.447 -32.876 294.809 -32.944 Q 295.172 -33.013 295.417 -33.072 L 295.417 -33.581 Q 295.417 -34.238 295.157 -34.488 Q 294.897 -34.738 294.398 -34.738 Q 294.094 -34.738 293.962 -34.659 Q 293.829 -34.581 293.795 -34.405 Q 293.761 -34.228 293.751 -33.944 Q 293.741 -33.728 293.623 -33.596 Q 293.506 -33.464 293.28 -33.464 Q 293.065 -33.464 292.913 -33.596 Q 292.761 -33.728 292.761 -33.983 Q 292.761 -34.287 292.996 -34.552 Q 293.231 -34.816 293.668 -34.978 Q 294.104 -35.14 294.692 -35.14 Q 295.574 -35.14 295.971 -34.733 Q 296.367 -34.326 296.367 -33.513 L 296.367 -31.112 Q 296.367 -30.788 296.441 -30.695 Q 296.514 -30.602 296.671 -30.602 Q 296.838 -30.602 296.96 -30.671 Q 297.083 -30.739 297.191 -30.867 L 297.406 -30.661 Q 296.897 -29.936 296.211 -29.936 Q 295.828 -29.936 295.686 -30.117 Q 295.544 -30.298 295.515 -30.612 Z M 295.417 -30.975 L 295.417 -30.975 L 295.417 -32.7 Q 294.966 -32.582 294.535 -32.44 Q 294.104 -32.298 293.824 -32.053 Q 293.545 -31.808 293.545 -31.367 Q 293.545 -30.984 293.766 -30.764 Q 293.986 -30.543 294.329 -30.543 Q 294.535 -30.543 294.824 -30.637 Q 295.113 -30.73 295.417 -30.975 Z " fill="black" /><path d="M 298.082 -31.778 L 298.082 -31.778 L 298.396 -31.778 Q 298.523 -31.21 298.7 -30.896 Q 298.876 -30.583 299.155 -30.46 Q 299.435 -30.338 299.837 -30.338 Q 300.297 -30.338 300.547 -30.49 Q 300.797 -30.641 300.797 -31.024 Q 300.797 -31.278 300.674 -31.45 Q 300.552 -31.621 300.282 -31.778 Q 300.013 -31.935 299.562 -32.141 Q 299.102 -32.366 298.773 -32.562 Q 298.445 -32.758 298.274 -33.023 Q 298.102 -33.287 298.102 -33.689 Q 298.102 -34.395 298.577 -34.767 Q 299.053 -35.14 299.768 -35.14 Q 300.199 -35.14 300.498 -35.032 Q 300.797 -34.924 300.973 -34.846 L 300.993 -34.846 L 301.15 -35.091 L 301.424 -35.091 L 301.444 -33.464 L 301.101 -33.464 Q 300.915 -34.218 300.581 -34.478 Q 300.248 -34.738 299.817 -34.738 Q 299.366 -34.738 299.136 -34.542 Q 298.906 -34.346 298.906 -34.032 Q 298.906 -33.777 299.062 -33.611 Q 299.219 -33.444 299.508 -33.302 Q 299.797 -33.16 300.199 -32.964 Q 300.65 -32.748 300.993 -32.518 Q 301.336 -32.288 301.532 -31.999 Q 301.728 -31.71 301.728 -31.278 Q 301.728 -30.759 301.454 -30.445 Q 301.179 -30.132 300.748 -30 Q 300.317 -29.867 299.846 -29.867 Q 299.366 -29.867 299.102 -29.965 Q 298.837 -30.063 298.612 -30.151 L 298.572 -30.151 L 298.327 -29.897 L 298.102 -29.897 Z " fill="black" /></g></g></g><g><g><g><path d="M -201.62 -35.866 L -201.62 -35.866 L -197.798 -41.606 Q -197.602 -41.886 -197.483 -42.124 Q -197.364 -42.362 -197.364 -42.53 Q -197.364 -42.74 -197.546 -42.817 Q -197.728 -42.894 -198.204 -42.894 L -198.176 -43.314 L -195.152 -43.314 L -195.18 -42.894 Q -195.558 -42.894 -195.824 -42.782 Q -196.09 -42.67 -196.363 -42.355 Q -196.636 -42.04 -197.07 -41.396 L -202.208 -34.046 L -202.67 -34.046 L -203.454 -41.62 Q -203.538 -42.32 -203.762 -42.607 Q -203.986 -42.894 -204.546 -42.894 L -204.518 -43.314 L -201.088 -43.314 L -201.13 -42.894 Q -201.662 -42.894 -201.97 -42.684 Q -202.278 -42.474 -202.25 -41.998 Q -202.25 -41.928 -202.229 -41.746 Q -202.208 -41.564 -202.208 -41.494 L -201.788 -37.504 L -201.69 -35.866 Z " fill="black" /><path d="M -196.829 -33.145 L -196.829 -33.145 L -196.829 -33.185 Q -197.172 -33.39 -197.412 -33.719 Q -197.652 -34.047 -197.652 -34.566 Q -197.652 -35.115 -197.387 -35.507 Q -197.123 -35.899 -196.672 -36.11 Q -196.221 -36.321 -195.663 -36.321 Q -195.143 -36.321 -194.815 -36.208 Q -194.487 -36.095 -194.487 -36.095 L -193.046 -36.134 L -193.046 -35.556 L -194.075 -35.576 L -194.075 -35.507 Q -193.948 -35.331 -193.81 -35.091 Q -193.673 -34.851 -193.673 -34.419 Q -193.673 -33.929 -193.933 -33.572 Q -194.193 -33.214 -194.629 -33.023 Q -195.065 -32.832 -195.614 -32.832 Q -196.113 -32.832 -196.554 -33.008 Q -196.623 -32.881 -196.716 -32.646 Q -196.809 -32.41 -196.809 -32.244 Q -196.809 -32.038 -196.569 -31.94 Q -196.329 -31.842 -195.614 -31.842 Q -195.084 -31.842 -194.634 -31.817 Q -194.183 -31.793 -193.85 -31.68 Q -193.516 -31.568 -193.335 -31.318 Q -193.154 -31.068 -193.154 -30.607 Q -193.154 -30.078 -193.423 -29.71 Q -193.693 -29.343 -194.134 -29.118 Q -194.575 -28.892 -195.089 -28.789 Q -195.604 -28.686 -196.104 -28.686 Q -196.819 -28.686 -197.211 -28.863 Q -197.603 -29.039 -197.755 -29.314 Q -197.907 -29.588 -197.907 -29.872 Q -197.907 -30.147 -197.716 -30.416 Q -197.525 -30.686 -197.103 -31.078 L -197.103 -31.127 Q -197.348 -31.254 -197.515 -31.47 Q -197.681 -31.685 -197.681 -31.891 Q -197.681 -32.185 -197.422 -32.513 Q -197.162 -32.842 -196.829 -33.145 Z M -196.78 -31.029 L -196.78 -31.029 Q -196.946 -30.744 -197.005 -30.578 Q -197.064 -30.411 -197.064 -30.245 Q -197.064 -29.794 -196.697 -29.564 Q -196.329 -29.333 -195.555 -29.333 Q -194.918 -29.333 -194.526 -29.49 Q -194.134 -29.647 -193.948 -29.867 Q -193.761 -30.088 -193.761 -30.294 Q -193.761 -30.558 -193.933 -30.705 Q -194.104 -30.852 -194.369 -30.916 Q -194.634 -30.98 -194.928 -30.999 Q -195.222 -31.019 -195.476 -31.019 Q -195.545 -31.019 -195.584 -31.019 Q -196.211 -31.019 -196.442 -31.024 Q -196.672 -31.029 -196.78 -31.029 Z M -195.721 -35.889 L -195.721 -35.889 Q -196.143 -35.889 -196.403 -35.605 Q -196.662 -35.321 -196.662 -34.625 Q -196.662 -33.939 -196.388 -33.586 Q -196.113 -33.234 -195.614 -33.234 Q -195.349 -33.234 -195.133 -33.341 Q -194.918 -33.449 -194.786 -33.733 Q -194.653 -34.018 -194.653 -34.537 Q -194.653 -35.203 -194.942 -35.546 Q -195.231 -35.889 -195.721 -35.889 Z " fill="black" /><path d="M -192.184 -32.959 L -192.184 -32.959 L -191.87 -32.959 Q -191.743 -32.391 -191.566 -32.077 Q -191.39 -31.764 -191.111 -31.641 Q -190.831 -31.519 -190.429 -31.519 Q -189.969 -31.519 -189.719 -31.671 Q -189.469 -31.822 -189.469 -32.205 Q -189.469 -32.459 -189.591 -32.631 Q -189.714 -32.802 -189.984 -32.959 Q -190.253 -33.116 -190.704 -33.322 Q -191.164 -33.547 -191.493 -33.743 Q -191.821 -33.939 -191.993 -34.204 Q -192.164 -34.468 -192.164 -34.87 Q -192.164 -35.576 -191.689 -35.948 Q -191.213 -36.321 -190.498 -36.321 Q -190.067 -36.321 -189.768 -36.213 Q -189.469 -36.105 -189.293 -36.027 L -189.273 -36.027 L -189.116 -36.272 L -188.842 -36.272 L -188.822 -34.645 L -189.165 -34.645 Q -189.351 -35.399 -189.685 -35.659 Q -190.018 -35.919 -190.449 -35.919 Q -190.9 -35.919 -191.13 -35.723 Q -191.36 -35.527 -191.36 -35.213 Q -191.36 -34.958 -191.204 -34.792 Q -191.047 -34.625 -190.758 -34.483 Q -190.469 -34.341 -190.067 -34.145 Q -189.616 -33.929 -189.273 -33.699 Q -188.93 -33.469 -188.734 -33.18 Q -188.538 -32.891 -188.538 -32.459 Q -188.538 -31.94 -188.812 -31.626 Q -189.087 -31.313 -189.518 -31.18 Q -189.949 -31.048 -190.42 -31.048 Q -190.9 -31.048 -191.164 -31.146 Q -191.429 -31.244 -191.654 -31.332 L -191.694 -31.332 L -191.939 -31.078 L -192.164 -31.078 Z " fill="black" /></g></g></g></svg>