<svg xmlns="http://www.w3.org/2000/svg" xmlns:xlink="http://www.w3.org/1999/xlink" xml:lang="en" height="155.97799999999998pt" width="187.4pt" viewBox="-93.69999999999999 -113.93799999999999 187.4 155.97799999999998"><circle cx="0" cy="-36" r="18" style="stroke:black;fill:none;stroke-width:2.0;stroke-dasharray:-;" /><path d="M 0.0,-0.0 L 0,14.4 L -9,14.4 L 9,14.4 M -6.3,18.72 L 6.3,18.72 M -1.8,23.04 L 1.8,23.04" style="stroke:black;fill:none;stroke-width:2.0;stroke-dasharray:-;stroke-linecap:round;stroke-linejoin:round;" /><path d="M 0.0,-0.0 L 0,-18 L 0,-18 M 0,-54 L 0,-54 L 0,-72" style="stroke:black;fill:none;stroke-width:2.0;stroke-dasharray:-;stroke-linecap:round;stroke-linejoin:round;" /><path d="M 1.6532731788489267e-15,-27.0 L 0,-36" style="stroke:black;fill:none;stroke-width:2.0;stroke-dasharray:-;stroke-linecap:round;stroke-linejoin:round;" /><path d="M 0 -43 L 2.7 -36 L -2.7 -36 Z" style="stroke:black;fill:black;stroke-linecap:butt;stroke-linejoin:miter;" /><path d="M 4.408728476930472e-15,-72.0 L -36,-72 L -72,-72" style="stroke:black;fill:none;stroke-width:2.0;stroke-dasharray:-;stroke-linecap:round;stroke-linejoin:round;" /><path d="M 4.408728476930472e-15,-72.0 L 36,-72 L 72,-72" style="stroke:black;fill:none;stroke-width:2.0;stroke-dasharray:-;stroke-linecap:round;stroke-linejoin:round;" /><circle cx="0" cy="-72" r="2.7" style="stroke:black;fill:black;stroke-width:2.0;stroke-dasharray:-;" /><g><g><g><path d="M -43.712 -36.119 L -43.712 -36.119 L -42.564 -41.635 Q -42.438 -42.181 -42.445 -42.496 Q -42.452 -42.811 -42.704 -42.937 Q -42.956 -43.063 -43.6 -43.063 L -43.516 -43.483 L -39.638 -43.483 L -39.722 -43.063 Q -40.338 -43.063 -40.646 -42.937 Q -40.954 -42.811 -41.08 -42.496 Q -41.206 -42.181 -41.318 -41.635 L -42.466 -36.063 Q -42.508 -35.839 -42.536 -35.657 Q -42.564 -35.475 -42.564 -35.321 Q -42.564 -34.929 -42.333 -34.817 Q -42.102 -34.705 -41.444 -34.705 L -41.528 -34.285 L -45.35 -34.285 L -45.266 -34.705 Q -44.692 -34.705 -44.405 -34.803 Q -44.118 -34.901 -43.978 -35.202 Q -43.838 -35.503 -43.712 -36.119 Z " fill="black" /><path d="M -36.276 -32.325 L -36.276 -32.325 L -36.051 -32.139 Q -36.266 -31.845 -36.443 -31.644 Q -36.619 -31.443 -36.845 -31.335 Q -37.07 -31.227 -37.423 -31.227 Q -37.991 -31.227 -38.251 -31.55 Q -38.511 -31.874 -38.511 -32.589 L -38.511 -35.882 L -39.128 -35.882 L -39.128 -36.176 Q -38.775 -36.431 -38.481 -36.798 Q -38.187 -37.166 -37.893 -37.852 L -37.55 -37.852 L -37.56 -36.362 L -36.315 -36.362 L -36.315 -35.882 L -37.56 -35.882 L -37.56 -32.913 Q -37.56 -32.364 -37.457 -32.134 Q -37.354 -31.903 -37.041 -31.903 Q -36.756 -31.903 -36.609 -32.006 Q -36.462 -32.109 -36.276 -32.325 Z " fill="black" /><path d="M -31.102 -32.805 L -31.102 -32.805 L -30.867 -32.619 Q -31.072 -32.246 -31.327 -31.933 Q -31.582 -31.619 -31.954 -31.433 Q -32.327 -31.247 -32.895 -31.247 Q -33.513 -31.247 -34.047 -31.526 Q -34.581 -31.805 -34.904 -32.383 Q -35.228 -32.962 -35.228 -33.844 Q -35.228 -34.716 -34.924 -35.304 Q -34.62 -35.892 -34.101 -36.191 Q -33.581 -36.49 -32.944 -36.49 Q -32.062 -36.49 -31.479 -35.877 Q -30.896 -35.265 -30.876 -34.05 L -34.326 -34.05 Q -34.326 -33.383 -34.076 -32.947 Q -33.826 -32.511 -33.434 -32.3 Q -33.042 -32.09 -32.611 -32.09 Q -32.17 -32.09 -31.905 -32.183 Q -31.641 -32.276 -31.459 -32.442 Q -31.278 -32.609 -31.102 -32.805 Z M -34.326 -34.5 L -34.326 -34.5 L -31.925 -34.5 Q -31.925 -34.892 -32.052 -35.24 Q -32.18 -35.588 -32.425 -35.809 Q -32.67 -36.029 -33.052 -36.029 Q -33.611 -36.029 -33.939 -35.637 Q -34.267 -35.245 -34.326 -34.5 Z " fill="black" /><path d="M -29.759 -33.128 L -29.759 -33.128 L -29.446 -33.128 Q -29.318 -32.56 -29.142 -32.246 Q -28.965 -31.933 -28.686 -31.81 Q -28.407 -31.688 -28.005 -31.688 Q -27.544 -31.688 -27.294 -31.84 Q -27.045 -31.991 -27.045 -32.374 Q -27.045 -32.629 -27.167 -32.8 Q -27.29 -32.971 -27.559 -33.128 Q -27.829 -33.285 -28.279 -33.491 Q -28.74 -33.716 -29.068 -33.912 Q -29.397 -34.108 -29.568 -34.373 Q -29.74 -34.637 -29.74 -35.039 Q -29.74 -35.745 -29.264 -36.117 Q -28.789 -36.49 -28.074 -36.49 Q -27.642 -36.49 -27.343 -36.382 Q -27.045 -36.274 -26.868 -36.196 L -26.849 -36.196 L -26.692 -36.441 L -26.417 -36.441 L -26.398 -34.814 L -26.741 -34.814 Q -26.927 -35.569 -27.26 -35.828 Q -27.593 -36.088 -28.025 -36.088 Q -28.475 -36.088 -28.706 -35.892 Q -28.936 -35.696 -28.936 -35.382 Q -28.936 -35.127 -28.779 -34.961 Q -28.622 -34.794 -28.333 -34.652 Q -28.044 -34.51 -27.642 -34.314 Q -27.192 -34.099 -26.849 -33.868 Q -26.506 -33.638 -26.31 -33.349 Q -26.114 -33.06 -26.114 -32.629 Q -26.114 -32.109 -26.388 -31.796 Q -26.662 -31.482 -27.094 -31.35 Q -27.525 -31.217 -27.995 -31.217 Q -28.475 -31.217 -28.74 -31.315 Q -29.005 -31.413 -29.23 -31.502 L -29.269 -31.502 L -29.514 -31.247 L -29.74 -31.247 Z " fill="black" /><path d="M -22.262 -32.325 L -22.262 -32.325 L -22.037 -32.139 Q -22.252 -31.845 -22.429 -31.644 Q -22.605 -31.443 -22.831 -31.335 Q -23.056 -31.227 -23.409 -31.227 Q -23.977 -31.227 -24.237 -31.55 Q -24.497 -31.874 -24.497 -32.589 L -24.497 -35.882 L -25.114 -35.882 L -25.114 -36.176 Q -24.761 -36.431 -24.467 -36.798 Q -24.173 -37.166 -23.879 -37.852 L -23.536 -37.852 L -23.546 -36.362 L -22.301 -36.362 L -22.301 -35.882 L -23.546 -35.882 L -23.546 -32.913 Q -23.546 -32.364 -23.443 -32.134 Q -23.34 -31.903 -23.027 -31.903 Q -22.742 -31.903 -22.595 -32.006 Q -22.448 -32.109 -22.262 -32.325 Z " fill="black" /></g></g></g><circle cx="-72" cy="-72" r="2.7" style="stroke:black;fill:white;stroke-width:2.0;stroke-dasharray:-;" /><circle cx="72" cy="-72" r="2.7" style="stroke:black;fill:white;stroke-width:2.0;stroke-dasharray:-;" /><path d="M -30.599999999999994,-72.0 L -30.6,-72" style="stroke:black;fill:none;stroke-width:2.0;stroke-dasharray:-;stroke-linecap:round;stroke-linejoin:round;" /><path d="M -39.4 -72 L -30.6 -77.4 L -30.6 -66.6 Z" style="stroke:black;fill:black;stroke-linecap:butt;stroke-linejoin:miter;" /><g><g><g><path d="M -39.416 -87.574 L -39.416 -87.574 L -38.268 -93.09 Q -38.142 -93.636 -38.149 -93.951 Q -38.156 -94.266 -38.408 -94.392 Q -38.66 -94.518 -39.304 -94.518 L -39.22 -94.938 L -35.342 -94.938 L -35.426 -94.518 Q -36.042 -94.518 -36.35 -94.392 Q -36.658 -94.266 -36.784 -93.951 Q -36.91 -93.636 -37.022 -93.09 L -38.17 -87.518 Q -38.212 -87.294 -38.24 -87.112 Q -38.268 -86.93 -38.268 -86.776 Q -38.268 -86.384 -38.037 -86.272 Q -37.806 -86.16 -37.148 -86.16 L -37.232 -85.74 L -41.054 -85.74 L -40.97 -86.16 Q -40.396 -86.16 -40.109 -86.258 Q -39.822 -86.356 -39.682 -86.657 Q -39.542 -86.958 -39.416 -87.574 Z " fill="black" /><path d="M -34.901 -87.818 L -34.901 -87.818 L -34.117 -87.818 Q -34.117 -88.337 -34.043 -88.7 Q -33.97 -89.062 -33.784 -89.425 Q -33.558 -89.778 -33.24 -89.998 Q -32.921 -90.219 -32.333 -90.219 Q -31.834 -90.219 -31.481 -90.027 Q -31.128 -89.836 -31.128 -89.464 Q -31.128 -89.229 -31.26 -89.106 Q -31.393 -88.984 -31.569 -88.984 Q -31.785 -88.984 -31.907 -89.106 Q -32.03 -89.229 -32.226 -89.435 Q -32.363 -89.631 -32.471 -89.704 Q -32.578 -89.778 -32.725 -89.778 Q -33 -89.778 -33.088 -89.513 Q -33.176 -89.248 -33.176 -88.602 L -33.176 -87.818 L -31.902 -87.818 L -31.902 -87.337 L -33.176 -87.337 L -33.176 -84.103 Q -33.176 -83.702 -33.088 -83.501 Q -33 -83.3 -32.765 -83.231 Q -32.529 -83.163 -32.098 -83.163 L -32.098 -82.8 L -34.989 -82.8 L -34.989 -83.163 Q -34.617 -83.163 -34.431 -83.231 Q -34.244 -83.3 -34.181 -83.501 Q -34.117 -83.702 -34.117 -84.103 L -34.117 -87.337 L -34.901 -87.337 Z " fill="black" /></g></g></g><path d="M 41.400000000000006,-72.0 L 41.4,-72" style="stroke:black;fill:none;stroke-width:2.0;stroke-dasharray:-;stroke-linecap:round;stroke-linejoin:round;" /><path d="M 32.6 -72 L 41.4 -77.4 L 41.4 -66.6 Z" style="stroke:black;fill:black;stroke-linecap:butt;stroke-linejoin:miter;" /><g><g><g><path d="M 32.471 -87.574 L 32.471 -87.574 L 33.619 -93.09 Q 33.745 -93.636 33.738 -93.951 Q 33.731 -94.266 33.479 -94.392 Q 33.227 -94.518 32.583 -94.518 L 32.667 -94.938 L 36.545 -94.938 L 36.461 -94.518 Q 35.845 -94.518 35.537 -94.392 Q 35.229 -94.266 35.103 -93.951 Q 34.977 -93.636 34.865 -93.09 L 33.717 -87.518 Q 33.675 -87.294 33.647 -87.112 Q 33.619 -86.93 33.619 -86.776 Q 33.619 -86.384 33.85 -86.272 Q 34.081 -86.16 34.739 -86.16 L 34.655 -85.74 L 30.833 -85.74 L 30.917 -86.16 Q 31.491 -86.16 31.778 -86.258 Q 32.065 -86.356 32.205 -86.657 Q 32.345 -86.958 32.471 -87.574 Z " fill="black" /><path d="M 38.711 -87.916 L 38.711 -87.916 L 38.711 -86.857 L 38.77 -86.857 Q 39.162 -87.406 39.471 -87.695 Q 39.779 -87.984 40.142 -87.984 Q 40.769 -87.984 40.769 -87.367 Q 40.769 -87.024 40.617 -86.887 Q 40.465 -86.749 40.289 -86.749 Q 40.113 -86.749 39.97 -86.847 Q 39.828 -86.945 39.73 -87.043 Q 39.632 -87.141 39.583 -87.141 Q 39.427 -87.141 39.177 -86.877 Q 38.927 -86.612 38.731 -86.279 L 38.731 -83.927 Q 38.731 -83.447 38.941 -83.305 Q 39.152 -83.163 39.691 -83.163 L 39.691 -82.8 L 37.026 -82.8 L 37.026 -83.163 Q 37.359 -83.163 37.516 -83.221 Q 37.672 -83.28 37.721 -83.432 Q 37.77 -83.584 37.77 -83.858 L 37.77 -86.7 Q 37.77 -87.014 37.716 -87.171 Q 37.663 -87.328 37.359 -87.328 Q 37.222 -87.328 37.124 -87.318 Q 37.026 -87.308 37.026 -87.308 L 37.026 -87.671 L 38.349 -87.916 Z " fill="black" /></g></g></g></svg>