<svg xmlns="http://www.w3.org/2000/svg" xml:lang="en" height="143.4pt" width="114.99199999999999pt" viewBox="-75.33999999999999 -41.7 114.99199999999999 143.4"><path d="M 0.0,59.99999999999999 L 0.0,45.0 L -14.999999999999998,45.0 L -14.999999999999998,14.999999999999998 L 0.0,14.999999999999998 L 0.0,-0.0" style="stroke:black;fill:none;stroke-width:2.0;stroke-linecap:round;stroke-linejoin:round;" /><path d="M -17.999999999999996,42.0 L -17.999999999999996,17.999999999999996" style="stroke:black;fill:none;stroke-width:2.0;stroke-linecap:round;stroke-linejoin:round;" /><path d="M -32.99999999999999,29.999999999999996 L -17.999999999999996,29.999999999999996" style="stroke:black;fill:none;stroke-width:2.0;stroke-linecap:round;stroke-linejoin:round;" /><path d="M -9.0,29.999999999999996 L -14.999999999999998,29.999999999999996" style="stroke:black;fill:none;stroke-width:2.0;stroke-linecap:round;stroke-linejoin:round;" /><path d="M -2.0 29.999999999999996 L -9.0 34.5 L -9.0 25.499999999999996 Z" style="stroke:black;fill:black;stroke-linecap:butt;stroke-linejoin:miter;" /><path d="M 0.0,59.99999999999999 L -1.6532731788489267e-15,69.0 L -3.3065463576978533e-15,78.0" style="stroke:black;fill:none;stroke-width:2.0;stroke-linecap:round;stroke-linejoin:round;" /><path d="M 0.0,-0.0 L 5.51091059616309e-16,-9.0 L 1.102182119232618e-15,-18.0" style="stroke:black;fill:none;stroke-width:2.0;stroke-linecap:round;stroke-linejoin:round;" /><path d="M -32.99999999999999,29.999999999999996 L -41.99999999999999,29.999999999999996 L -50.99999999999999,29.999999999999993" style="stroke:black;fill:none;stroke-width:2.0;stroke-linecap:round;stroke-linejoin:round;" /><path d="M 0.0,29.999999999999996 L 9.0,29.999999999999996 L 18.0,29.999999999999996" style="stroke:black;fill:none;stroke-width:2.0;stroke-linecap:round;stroke-linejoin:round;" /><circle cx="-3.3065463576978533e-15" cy="78.0" r="2.6999999999999997" style="stroke:black;fill:white;stroke-width:2.0;" /><text x="-4.463837582892102e-15" y="84.30000000000001" fill="black" font-size="16" font-family="sans" text-anchor="middle"><tspan x="-4.463837582892102e-15" dy="16">D</tspan></text><circle cx="1.102182119232618e-15" cy="-18.0" r="2.6999999999999997" style="stroke:black;fill:white;stroke-width:2.0;" /><text x="1.4879458609640342e-15" y="-37.1" fill="black" font-size="16" font-family="sans" text-anchor="middle"><tspan x="1.4879458609640342e-15" dy="16">S</tspan></text><circle cx="-50.99999999999999" cy="29.999999999999993" r="2.6999999999999997" style="stroke:black;fill:white;stroke-width:2.0;" /><text x="-57.3" y="23.59999999999999" fill="black" font-size="16" font-family="sans" text-anchor="end"><tspan x="-57.3" dy="16">G</tspan></text><circle cx="18.0" cy="29.999999999999996" r="2.6999999999999997" style="stroke:black;fill:white;stroke-width:2.0;" /><text x="24.3" y="23.599999999999998" fill="black" font-size="16" font-family="sans" text-anchor="start"><tspan x="24.3" dy="16">B</tspan></text></svg>