<svg xmlns="http://www.w3.org/2000/svg" xml:lang="en" height="266.24pt" width="315.20000000000005pt" viewBox="-85.6 -94.60000000000002 315.20000000000005 266.24"><circle cx="108.0" cy="36.0" r="18.0" style="stroke:black;fill:none;stroke-width:2.0;" /><circle cx="108.0" cy="-36.000000000000014" r="18.0" style="stroke:black;fill:none;stroke-width:2.0;" /><path d="M 0.0,-0.0 L -36.0,-4.408728476930472e-15 L -72.0,-8.817456953860943e-15" style="stroke:black;fill:none;stroke-width:2.0;stroke-linecap:round;stroke-linejoin:round;" /><path d="M -72.0,-8.817456953860943e-15 L -72.0,14.399999999999993 L -81.0,14.399999999999993 L -63.0,14.399999999999993 M -78.3,18.71999999999999 L -65.7,18.71999999999999 M -73.8,23.039999999999992 L -70.2,23.039999999999992" style="stroke:black;fill:none;stroke-width:2.0;stroke-linecap:round;stroke-linejoin:round;" /><path d="M -1.3226185430791413e-14,72.0 L 53.999999999999986,72.0 L 107.99999999999999,72.0" style="stroke:black;fill:none;stroke-width:2.0;stroke-linecap:round;stroke-linejoin:round;" /><path d="M 107.99999999999999,72.0 L 107.99999999999999,90.0 L 116.99999999999999,93.0 L 98.99999999999999,99.0 L 116.99999999999999,105.0 L 98.99999999999997,110.99999999999999 L 116.99999999999997,117.0 L 98.99999999999997,123.0 L 107.99999999999997,126.0 L 107.99999999999997,144.0" style="stroke:black;fill:none;stroke-width:2.0;stroke-linecap:round;stroke-linejoin:round;" /><path d="M 107.99999999999997,144.0 L 107.99999999999997,158.4 L 98.99999999999997,158.4 L 116.99999999999997,158.4 M 101.69999999999997,162.71999999999997 L 114.29999999999995,162.71999999999997 M 106.19999999999997,167.04 L 109.79999999999995,167.04" style="stroke:black;fill:none;stroke-width:2.0;stroke-linecap:round;stroke-linejoin:round;" /><path d="M 108.0,-0.0 L 108.0,18.0 L 108.0,18.0 M 107.99999999999999,54.0 L 107.99999999999999,54.0 L 107.99999999999999,72.0" style="stroke:black;fill:none;stroke-width:2.0;stroke-linecap:round;stroke-linejoin:round;" /><path d="M 108.0,27.0 L 107.99999999999999,36.0" style="stroke:black;fill:none;stroke-width:2.0;stroke-linecap:round;stroke-linejoin:round;" /><path d="M 107.99999999999999 43.0 L 105.3 36.0 L 110.69999999999999 36.0 Z" style="stroke:black;fill:black;stroke-linecap:butt;stroke-linejoin:miter;" /><path d="M 107.99999999999999,72.0 L 162.0,72.0 L 216.0,72.0" style="stroke:black;fill:none;stroke-width:2.0;stroke-linecap:round;stroke-linejoin:round;" /><path d="M 216.0,72.0 L 216.0,54.0 L 207.0,50.99999999999999 L 225.0,45.0 L 207.0,39.00000000000001 L 225.0,33.0 L 207.0,27.0 L 225.0,21.000000000000007 L 216.0,18.0 L 216.0,-0.0" style="stroke:black;fill:none;stroke-width:2.0;stroke-linecap:round;stroke-linejoin:round;" /><path d="M 216.0,-0.0 L 162.0,-6.613092715395707e-15 L 108.0,-1.3226185430791413e-14" style="stroke:black;fill:none;stroke-width:2.0;stroke-linecap:round;stroke-linejoin:round;" /><path d="M 108.0,-1.3226185430791413e-14 L 108.0,-18.00000000000001 L 108.0,-18.00000000000001 M 108.0,-54.000000000000014 L 108.0,-54.000000000000014 L 108.0,-72.00000000000001" style="stroke:black;fill:none;stroke-width:2.0;stroke-linecap:round;stroke-linejoin:round;" /><path d="M 108.0,-36.000000000000014 L 108.0,-45.000000000000014" style="stroke:black;fill:none;stroke-width:2.0;stroke-linecap:round;stroke-linejoin:round;" /><path d="M 108.0 -29.00000000000001 L 105.3 -36.000000000000014 L 110.7 -36.000000000000014 Z" style="stroke:black;fill:black;stroke-linecap:butt;stroke-linejoin:miter;" /><path d="M 108.0,-72.00000000000001 L 108.0,-81.00000000000001 L 108.0,-90.00000000000001" style="stroke:black;fill:none;stroke-width:2.0;stroke-linecap:round;stroke-linejoin:round;" /><path d="M 108.0,-90.00000000000001 L 126.0,-90.00000000000001 L 144.0,-90.00000000000001" style="stroke:black;fill:none;stroke-width:2.0;stroke-linecap:round;stroke-linejoin:round;" /><path d="M 144.0,-90.00000000000001 L 144.0,-75.60000000000002 L 135.0,-75.60000000000002 L 153.0,-75.60000000000002 M 137.70000000000002,-71.28000000000002 L 150.29999999999998,-71.28000000000002 M 142.20000000000002,-66.96000000000001 L 145.79999999999998,-66.96000000000001" style="stroke:black;fill:none;stroke-width:2.0;stroke-linecap:round;stroke-linejoin:round;" /><circle cx="0.0" cy="-0.0" r="2.6999999999999997" style="stroke:black;fill:white;stroke-width:2.0;" /><g><g><g><path d="M 5.264 18.544 L 5.264 18.544 L 1.072 18.544 L 1.072 22.784 L -0.08 22.784 L -0.08 18.544 L -4.272 18.544 L -4.272 17.456 L -0.08 17.456 L -0.08 13.216 L 1.072 13.216 L 1.072 17.456 L 5.264 17.456 Z " fill="black" /></g></g></g><g><g><g><path d="M -5.13 29.22 L -5.13 29.22 L -4.778 29.22 L -5.53 32.292 Q -5.642 32.708 -5.762 33.292 Q -5.882 33.876 -5.882 34.42 Q -5.882 35.044 -5.626 35.5 Q -5.37 35.956 -4.634 35.956 Q -3.818 35.956 -3.226 35.564 Q -2.634 35.172 -2.258 34.564 Q -1.882 33.956 -1.698 33.284 Q -1.514 32.612 -1.514 32.052 Q -1.514 31.636 -1.658 31.332 Q -1.802 31.028 -2.002 30.788 Q -2.202 30.548 -2.346 30.324 Q -2.49 30.1 -2.49 29.844 Q -2.49 29.524 -2.314 29.348 Q -2.138 29.172 -1.882 29.172 Q -1.338 29.172 -1.002 29.716 Q -0.666 30.26 -0.666 31.108 Q -0.666 31.844 -0.85 32.652 Q -1.034 33.46 -1.402 34.228 Q -1.77 34.996 -2.314 35.62 Q -2.858 36.244 -3.562 36.612 Q -4.266 36.98 -5.13 36.98 Q -5.93 36.98 -6.378 36.66 Q -6.826 36.34 -7.01 35.812 Q -7.194 35.284 -7.194 34.676 Q -7.194 34.1 -7.082 33.492 Q -6.97 32.884 -6.842 32.388 L -6.522 31.172 Q -6.49 31.044 -6.426 30.788 Q -6.362 30.532 -6.362 30.292 Q -6.362 30.084 -6.442 29.94 Q -6.522 29.796 -6.746 29.796 Q -6.938 29.796 -7.21 29.82 Q -7.482 29.844 -7.482 29.844 L -7.482 29.396 Z " fill="black" /><path d="M 0.767 38.135 L 0.767 38.135 L 0.767 38.113 Q 0.364 37.878 0.134 37.508 Q -0.095 37.138 -0.095 36.59 Q -0.095 35.75 0.476 35.257 Q 1.047 34.764 1.932 34.764 Q 2.302 34.764 2.582 34.831 Q 2.862 34.898 3.018 34.971 Q 3.175 35.044 3.175 35.044 L 4.62 34.966 L 4.62 35.57 L 3.567 35.537 L 3.567 35.593 Q 3.69 35.761 3.83 36.041 Q 3.97 36.321 3.97 36.746 Q 3.97 37.53 3.422 37.99 Q 2.873 38.449 1.988 38.449 Q 1.719 38.449 1.484 38.404 Q 1.249 38.359 1.025 38.281 Q 0.946 38.393 0.84 38.639 Q 0.734 38.886 0.734 39.031 Q 0.734 39.278 1.008 39.378 Q 1.282 39.479 2.055 39.479 Q 2.761 39.479 3.326 39.546 Q 3.892 39.614 4.217 39.894 Q 4.542 40.174 4.542 40.812 Q 4.542 41.372 4.267 41.758 Q 3.993 42.145 3.539 42.38 Q 3.086 42.615 2.542 42.722 Q 1.999 42.828 1.473 42.828 Q 0.745 42.828 0.325 42.649 Q -0.095 42.47 -0.263 42.184 Q -0.431 41.898 -0.431 41.596 Q -0.431 41.316 -0.202 41.008 Q 0.028 40.7 0.476 40.263 L 0.476 40.218 Q 0.196 40.073 0.022 39.86 Q -0.151 39.647 -0.151 39.412 Q -0.151 39.11 0.112 38.774 Q 0.375 38.438 0.767 38.135 Z M 0.756 40.308 L 0.756 40.308 Q 0.577 40.622 0.51 40.829 Q 0.442 41.036 0.442 41.215 Q 0.442 42.19 2.122 42.19 Q 2.783 42.19 3.192 42.022 Q 3.601 41.854 3.786 41.607 Q 3.97 41.361 3.97 41.126 Q 3.97 40.834 3.791 40.672 Q 3.612 40.51 3.326 40.442 Q 3.041 40.375 2.722 40.353 Q 2.402 40.33 2.122 40.33 Q 2.055 40.33 2.022 40.33 Q 1.574 40.319 1.327 40.319 Q 1.081 40.319 0.958 40.314 Q 0.834 40.308 0.756 40.308 Z M 1.854 35.167 L 1.854 35.167 Q 1.417 35.167 1.154 35.503 Q 0.89 35.839 0.89 36.545 Q 0.89 37.262 1.17 37.659 Q 1.45 38.057 1.999 38.057 Q 2.425 38.057 2.699 37.766 Q 2.974 37.474 2.974 36.679 Q 2.974 35.996 2.682 35.582 Q 2.391 35.167 1.854 35.167 Z " fill="black" /><path d="M 5.191 38.359 L 5.191 38.359 L 5.482 38.359 Q 5.662 39.222 6.009 39.563 Q 6.356 39.905 6.972 39.905 Q 7.398 39.905 7.666 39.731 Q 7.935 39.558 7.935 39.166 Q 7.935 38.897 7.84 38.718 Q 7.745 38.538 7.476 38.354 Q 7.207 38.169 6.681 37.911 Q 5.919 37.519 5.561 37.155 Q 5.202 36.791 5.202 36.175 Q 5.202 35.481 5.701 35.122 Q 6.199 34.764 6.916 34.764 Q 7.342 34.764 7.61 34.859 Q 7.879 34.954 8.092 35.055 L 8.103 35.055 L 8.294 34.82 L 8.518 34.82 L 8.551 36.534 L 8.249 36.534 Q 8.07 35.738 7.745 35.442 Q 7.42 35.145 6.905 35.145 Q 6.524 35.145 6.261 35.324 Q 5.998 35.503 5.998 35.884 Q 5.998 36.209 6.3 36.466 Q 6.602 36.724 7.308 37.082 Q 8.07 37.486 8.473 37.861 Q 8.876 38.236 8.876 38.863 Q 8.876 39.39 8.618 39.709 Q 8.361 40.028 7.93 40.174 Q 7.498 40.319 6.994 40.319 Q 6.513 40.319 6.227 40.218 Q 5.942 40.118 5.718 40.028 L 5.695 40.028 L 5.46 40.286 L 5.225 40.286 Z " fill="black" /></g></g></g><g><g><g><rect x="-2.16" y="49.328" width="4.32" height="1.088" fill="black" /></g></g></g><circle cx="107.99999999999999" cy="72.0" r="2.6999999999999997" style="stroke:black;fill:black;stroke-width:2.0;" /><circle cx="-1.3226185430791413e-14" cy="72.0" r="2.6999999999999997" style="stroke:black;fill:white;stroke-width:2.0;" /><g><g><g><path d="M 89.963 106.652 L 89.963 106.652 L 89.883 107.148 Q 89.435 107.148 89.179 107.244 Q 88.923 107.34 88.795 107.604 Q 88.667 107.868 88.571 108.364 L 88.091 110.684 Q 87.115 111.18 86.211 111.476 Q 85.307 111.772 84.027 111.772 Q 82.875 111.772 82.099 111.452 Q 81.323 111.132 80.867 110.58 Q 80.411 110.028 80.211 109.324 Q 80.011 108.62 80.011 107.852 Q 80.011 106.124 80.547 104.812 Q 81.083 103.5 81.987 102.628 Q 82.891 101.756 84.027 101.316 Q 85.163 100.876 86.363 100.876 Q 87.211 100.876 87.683 101.02 Q 88.155 101.164 88.411 101.316 Q 88.667 101.468 88.875 101.468 Q 89.051 101.468 89.195 101.308 Q 89.339 101.148 89.531 100.892 L 89.979 100.892 L 89.243 104.556 L 88.715 104.556 Q 88.763 102.956 88.107 102.26 Q 87.451 101.564 86.219 101.564 Q 85.003 101.564 83.955 102.276 Q 82.907 102.988 82.275 104.308 Q 81.643 105.628 81.627 107.468 Q 81.627 109.244 82.291 110.156 Q 82.955 111.068 84.411 111.068 Q 85.147 111.068 85.707 110.844 Q 86.267 110.62 86.795 110.268 L 87.131 108.524 Q 87.259 107.948 87.219 107.652 Q 87.179 107.356 86.907 107.252 Q 86.635 107.148 86.027 107.148 L 86.123 106.652 Z " fill="black" /><path d="M 95.675 109.726 L 95.675 109.726 L 95.339 109.726 Q 95.104 108.796 94.712 108.348 Q 94.32 107.9 93.469 107.911 Q 92.898 107.911 92.584 108.174 Q 92.27 108.438 92.27 108.964 Q 92.27 109.378 92.506 109.675 Q 92.741 109.972 93.122 110.207 Q 93.502 110.442 93.917 110.689 Q 94.286 110.902 94.662 111.114 Q 95.037 111.327 95.345 111.596 Q 95.653 111.865 95.838 112.223 Q 96.022 112.582 96.022 113.086 Q 96.022 113.735 95.726 114.183 Q 95.429 114.631 94.914 114.861 Q 94.398 115.09 93.749 115.09 Q 93.166 115.09 92.802 115.006 Q 92.438 114.922 92.231 114.838 Q 92.024 114.754 91.89 114.754 Q 91.778 114.754 91.688 114.855 Q 91.598 114.956 91.587 115.124 L 91.24 115.124 L 91.139 112.705 L 91.486 112.705 Q 91.688 113.478 91.957 113.886 Q 92.226 114.295 92.623 114.446 Q 93.021 114.598 93.592 114.598 Q 94.219 114.598 94.589 114.323 Q 94.958 114.049 94.958 113.41 Q 94.958 112.918 94.684 112.593 Q 94.41 112.268 93.984 112.016 Q 93.558 111.764 93.099 111.506 Q 92.651 111.249 92.237 110.958 Q 91.822 110.666 91.559 110.263 Q 91.296 109.86 91.296 109.278 Q 91.296 108.684 91.587 108.286 Q 91.878 107.889 92.36 107.676 Q 92.842 107.463 93.424 107.463 Q 93.939 107.463 94.219 107.547 Q 94.499 107.631 94.662 107.721 Q 94.824 107.81 94.958 107.81 Q 95.227 107.81 95.306 107.486 L 95.597 107.486 Z " fill="black" /></g></g></g><g><g><g><path d="M 47.471 29.364 L 47.471 29.364 L 47.375 30.18 L 45.983 30.02 L 45.983 30.068 Q 46.255 30.372 46.407 30.828 Q 46.559 31.284 46.559 31.7 Q 46.559 32.42 46.271 32.908 Q 45.983 33.396 45.519 33.692 Q 45.055 33.988 44.495 34.14 Q 43.935 34.292 43.407 34.34 Q 42.767 34.404 42.503 34.612 Q 42.239 34.82 42.239 35.044 Q 42.239 35.332 42.559 35.484 Q 42.879 35.636 43.383 35.732 Q 43.887 35.828 44.463 35.948 Q 45.039 36.068 45.543 36.276 Q 46.047 36.484 46.367 36.86 Q 46.687 37.236 46.687 37.86 Q 46.687 38.548 46.239 39.132 Q 45.791 39.716 44.911 40.076 Q 44.031 40.436 42.751 40.436 Q 41.599 40.436 40.911 40.156 Q 40.223 39.876 39.919 39.436 Q 39.615 38.996 39.615 38.516 Q 39.615 37.748 40.207 37.276 Q 40.799 36.804 41.551 36.564 L 41.551 36.5 Q 41.343 36.372 41.159 36.14 Q 40.975 35.908 40.975 35.54 Q 40.975 35.14 41.183 34.9 Q 41.391 34.66 41.719 34.508 Q 42.047 34.356 42.367 34.244 L 42.367 34.148 Q 41.743 33.876 41.279 33.38 Q 40.815 32.884 40.815 31.972 Q 40.815 31.14 41.215 30.508 Q 41.615 29.876 42.311 29.524 Q 43.007 29.172 43.871 29.172 Q 44.447 29.172 44.743 29.228 Q 45.039 29.284 45.327 29.364 Z M 45.535 38.452 L 45.535 38.452 Q 45.535 37.972 45.135 37.676 Q 44.735 37.38 44.143 37.204 Q 43.551 37.028 42.951 36.924 Q 42.351 36.82 41.935 36.74 Q 41.535 36.996 41.199 37.324 Q 40.863 37.652 40.863 38.276 Q 40.863 38.916 41.359 39.396 Q 41.855 39.876 43.071 39.876 Q 44.223 39.876 44.879 39.452 Q 45.535 39.028 45.535 38.452 Z M 45.135 31.524 L 45.135 31.524 Q 45.135 30.724 44.831 30.188 Q 44.527 29.652 43.823 29.652 Q 43.135 29.652 42.687 30.228 Q 42.239 30.804 42.239 31.972 Q 42.239 32.804 42.527 33.324 Q 42.815 33.844 43.503 33.844 Q 44.303 33.844 44.719 33.172 Q 45.135 32.5 45.135 31.524 Z " fill="black" /><path d="M 49.767 36.198 L 49.767 36.198 L 49.767 39.11 Q 49.767 39.58 49.93 39.726 Q 50.092 39.871 50.607 39.871 L 50.607 40.196 L 48.054 40.196 L 48.054 39.871 Q 48.412 39.871 48.575 39.81 Q 48.737 39.748 48.787 39.574 Q 48.838 39.401 48.838 39.065 L 48.838 35.929 Q 48.838 35.626 48.72 35.526 Q 48.603 35.425 48.367 35.425 Q 48.244 35.425 48.155 35.436 Q 48.065 35.447 48.065 35.447 L 48.065 35.122 L 49.465 34.798 L 49.734 34.798 L 49.734 35.705 L 49.779 35.705 Q 50.238 35.313 50.663 35.038 Q 51.089 34.764 51.66 34.764 Q 52.142 34.764 52.439 35.027 Q 52.735 35.29 52.903 35.694 L 52.948 35.694 Q 53.407 35.234 53.844 34.999 Q 54.281 34.764 54.729 34.764 Q 55.39 34.764 55.782 35.178 Q 56.174 35.593 56.174 36.612 L 56.174 38.897 Q 56.174 39.244 56.213 39.462 Q 56.252 39.681 56.426 39.776 Q 56.599 39.871 56.98 39.871 L 56.98 40.196 L 54.449 40.196 L 54.449 39.871 Q 54.83 39.871 54.998 39.77 Q 55.166 39.67 55.205 39.451 Q 55.244 39.233 55.244 38.897 L 55.244 36.746 Q 55.244 36.231 55.115 35.962 Q 54.987 35.694 54.768 35.587 Q 54.55 35.481 54.281 35.481 Q 53.934 35.481 53.603 35.71 Q 53.273 35.94 52.993 36.175 L 52.993 38.897 Q 52.993 39.278 53.043 39.49 Q 53.094 39.703 53.273 39.787 Q 53.452 39.871 53.855 39.871 L 53.855 40.196 L 51.201 40.196 L 51.201 39.871 Q 51.604 39.871 51.783 39.793 Q 51.963 39.714 52.013 39.502 Q 52.063 39.289 52.063 38.897 L 52.063 36.679 Q 52.063 35.962 51.811 35.722 Q 51.559 35.481 51.167 35.481 Q 50.731 35.481 50.372 35.727 Q 50.014 35.974 49.767 36.198 Z " fill="black" /><path d="M 63.993 32.756 L 63.993 32.756 Q 63.993 33.124 63.745 33.396 Q 63.497 33.668 63.033 33.668 Q 62.569 33.668 62.337 33.404 Q 62.105 33.14 62.105 32.74 Q 62.105 32.34 62.353 32.052 Q 62.601 31.764 63.049 31.764 Q 63.513 31.764 63.753 32.06 Q 63.993 32.356 63.993 32.756 Z " fill="black" /><path d="M 72.059 29.22 L 72.059 29.22 L 72.411 29.22 L 71.659 32.292 Q 71.547 32.708 71.427 33.292 Q 71.307 33.876 71.307 34.42 Q 71.307 35.044 71.563 35.5 Q 71.819 35.956 72.555 35.956 Q 73.371 35.956 73.963 35.564 Q 74.555 35.172 74.931 34.564 Q 75.307 33.956 75.491 33.284 Q 75.675 32.612 75.675 32.052 Q 75.675 31.636 75.531 31.332 Q 75.387 31.028 75.187 30.788 Q 74.987 30.548 74.843 30.324 Q 74.699 30.1 74.699 29.844 Q 74.699 29.524 74.875 29.348 Q 75.051 29.172 75.307 29.172 Q 75.851 29.172 76.187 29.716 Q 76.523 30.26 76.523 31.108 Q 76.523 31.844 76.339 32.652 Q 76.155 33.46 75.787 34.228 Q 75.419 34.996 74.875 35.62 Q 74.331 36.244 73.627 36.612 Q 72.923 36.98 72.059 36.98 Q 71.259 36.98 70.811 36.66 Q 70.363 36.34 70.179 35.812 Q 69.995 35.284 69.995 34.676 Q 69.995 34.1 70.107 33.492 Q 70.219 32.884 70.347 32.388 L 70.667 31.172 Q 70.699 31.044 70.763 30.788 Q 70.827 30.532 70.827 30.292 Q 70.827 30.084 70.747 29.94 Q 70.667 29.796 70.443 29.796 Q 70.251 29.796 69.979 29.82 Q 69.707 29.844 69.707 29.844 L 69.707 29.396 Z " fill="black" /><path d="M 77.957 38.135 L 77.957 38.135 L 77.957 38.113 Q 77.554 37.878 77.324 37.508 Q 77.094 37.138 77.094 36.59 Q 77.094 35.75 77.666 35.257 Q 78.237 34.764 79.122 34.764 Q 79.491 34.764 79.771 34.831 Q 80.051 34.898 80.208 34.971 Q 80.365 35.044 80.365 35.044 L 81.81 34.966 L 81.81 35.57 L 80.757 35.537 L 80.757 35.593 Q 80.88 35.761 81.02 36.041 Q 81.16 36.321 81.16 36.746 Q 81.16 37.53 80.611 37.99 Q 80.062 38.449 79.178 38.449 Q 78.909 38.449 78.674 38.404 Q 78.438 38.359 78.214 38.281 Q 78.136 38.393 78.03 38.639 Q 77.923 38.886 77.923 39.031 Q 77.923 39.278 78.198 39.378 Q 78.472 39.479 79.245 39.479 Q 79.95 39.479 80.516 39.546 Q 81.082 39.614 81.406 39.894 Q 81.731 40.174 81.731 40.812 Q 81.731 41.372 81.457 41.758 Q 81.182 42.145 80.729 42.38 Q 80.275 42.615 79.732 42.722 Q 79.189 42.828 78.662 42.828 Q 77.934 42.828 77.514 42.649 Q 77.094 42.47 76.926 42.184 Q 76.758 41.898 76.758 41.596 Q 76.758 41.316 76.988 41.008 Q 77.218 40.7 77.666 40.263 L 77.666 40.218 Q 77.386 40.073 77.212 39.86 Q 77.038 39.647 77.038 39.412 Q 77.038 39.11 77.302 38.774 Q 77.565 38.438 77.957 38.135 Z M 77.946 40.308 L 77.946 40.308 Q 77.766 40.622 77.699 40.829 Q 77.632 41.036 77.632 41.215 Q 77.632 42.19 79.312 42.19 Q 79.973 42.19 80.382 42.022 Q 80.79 41.854 80.975 41.607 Q 81.16 41.361 81.16 41.126 Q 81.16 40.834 80.981 40.672 Q 80.802 40.51 80.516 40.442 Q 80.23 40.375 79.911 40.353 Q 79.592 40.33 79.312 40.33 Q 79.245 40.33 79.211 40.33 Q 78.763 40.319 78.517 40.319 Q 78.27 40.319 78.147 40.314 Q 78.024 40.308 77.946 40.308 Z M 79.043 35.167 L 79.043 35.167 Q 78.606 35.167 78.343 35.503 Q 78.08 35.839 78.08 36.545 Q 78.08 37.262 78.36 37.659 Q 78.64 38.057 79.189 38.057 Q 79.614 38.057 79.889 37.766 Q 80.163 37.474 80.163 36.679 Q 80.163 35.996 79.872 35.582 Q 79.581 35.167 79.043 35.167 Z " fill="black" /><path d="M 82.381 38.359 L 82.381 38.359 L 82.672 38.359 Q 82.851 39.222 83.198 39.563 Q 83.546 39.905 84.162 39.905 Q 84.587 39.905 84.856 39.731 Q 85.125 39.558 85.125 39.166 Q 85.125 38.897 85.03 38.718 Q 84.934 38.538 84.666 38.354 Q 84.397 38.169 83.87 37.911 Q 83.109 37.519 82.75 37.155 Q 82.392 36.791 82.392 36.175 Q 82.392 35.481 82.89 35.122 Q 83.389 34.764 84.106 34.764 Q 84.531 34.764 84.8 34.859 Q 85.069 34.954 85.282 35.055 L 85.293 35.055 L 85.483 34.82 L 85.707 34.82 L 85.741 36.534 L 85.438 36.534 Q 85.259 35.738 84.934 35.442 Q 84.61 35.145 84.094 35.145 Q 83.714 35.145 83.45 35.324 Q 83.187 35.503 83.187 35.884 Q 83.187 36.209 83.49 36.466 Q 83.792 36.724 84.498 37.082 Q 85.259 37.486 85.662 37.861 Q 86.066 38.236 86.066 38.863 Q 86.066 39.39 85.808 39.709 Q 85.55 40.028 85.119 40.174 Q 84.688 40.319 84.184 40.319 Q 83.702 40.319 83.417 40.218 Q 83.131 40.118 82.907 40.028 L 82.885 40.028 L 82.65 40.286 L 82.414 40.286 Z " fill="black" /></g></g></g><g><g><g><path d="M 192.683 30.56 L 192.683 30.56 L 192.587 31.376 L 191.195 31.216 L 191.195 31.264 Q 191.467 31.568 191.619 32.024 Q 191.771 32.48 191.771 32.896 Q 191.771 33.616 191.483 34.104 Q 191.195 34.592 190.731 34.888 Q 190.267 35.184 189.707 35.336 Q 189.147 35.488 188.619 35.536 Q 187.979 35.6 187.715 35.808 Q 187.451 36.016 187.451 36.24 Q 187.451 36.528 187.771 36.68 Q 188.091 36.832 188.595 36.928 Q 189.099 37.024 189.675 37.144 Q 190.251 37.264 190.755 37.472 Q 191.259 37.68 191.579 38.056 Q 191.899 38.432 191.899 39.056 Q 191.899 39.744 191.451 40.328 Q 191.003 40.912 190.123 41.272 Q 189.243 41.632 187.963 41.632 Q 186.811 41.632 186.123 41.352 Q 185.435 41.072 185.131 40.632 Q 184.827 40.192 184.827 39.712 Q 184.827 38.944 185.419 38.472 Q 186.011 38 186.763 37.76 L 186.763 37.696 Q 186.555 37.568 186.371 37.336 Q 186.187 37.104 186.187 36.736 Q 186.187 36.336 186.395 36.096 Q 186.603 35.856 186.931 35.704 Q 187.259 35.552 187.579 35.44 L 187.579 35.344 Q 186.955 35.072 186.491 34.576 Q 186.027 34.08 186.027 33.168 Q 186.027 32.336 186.427 31.704 Q 186.827 31.072 187.523 30.72 Q 188.219 30.368 189.083 30.368 Q 189.659 30.368 189.955 30.424 Q 190.251 30.48 190.539 30.56 Z M 190.747 39.648 L 190.747 39.648 Q 190.747 39.168 190.347 38.872 Q 189.947 38.576 189.355 38.4 Q 188.763 38.224 188.163 38.12 Q 187.563 38.016 187.147 37.936 Q 186.747 38.192 186.411 38.52 Q 186.075 38.848 186.075 39.472 Q 186.075 40.112 186.571 40.592 Q 187.067 41.072 188.283 41.072 Q 189.435 41.072 190.091 40.648 Q 190.747 40.224 190.747 39.648 Z M 190.347 32.72 L 190.347 32.72 Q 190.347 31.92 190.043 31.384 Q 189.739 30.848 189.035 30.848 Q 188.347 30.848 187.899 31.424 Q 187.451 32 187.451 33.168 Q 187.451 34 187.739 34.52 Q 188.027 35.04 188.715 35.04 Q 189.515 35.04 189.931 34.368 Q 190.347 33.696 190.347 32.72 Z " fill="black" /><path d="M 198.664 41.19 L 198.664 41.19 L 197.23 41.448 L 196.973 41.448 L 196.973 40.675 L 196.928 40.675 Q 196.614 40.955 196.183 41.218 Q 195.752 41.482 195.192 41.482 Q 194.565 41.482 194.134 41.146 Q 193.702 40.81 193.49 40.233 Q 193.277 39.656 193.277 38.939 Q 193.277 38.01 193.624 37.343 Q 193.971 36.677 194.559 36.318 Q 195.147 35.96 195.853 35.96 Q 196.133 35.96 196.407 36.022 Q 196.682 36.083 196.939 36.229 L 196.939 34.762 Q 196.939 34.392 196.855 34.28 Q 196.771 34.168 196.446 34.168 Q 196.368 34.168 196.262 34.179 Q 196.155 34.19 196.155 34.19 L 196.155 33.877 L 197.566 33.485 L 197.869 33.485 L 197.869 40.194 Q 197.869 40.63 197.992 40.759 Q 198.115 40.888 198.429 40.888 L 198.664 40.888 Z M 196.939 40.261 L 196.939 40.261 L 196.939 37.304 Q 196.872 36.957 196.614 36.682 Q 196.357 36.408 195.83 36.408 Q 195.125 36.408 194.688 36.923 Q 194.251 37.438 194.251 38.502 Q 194.251 39.656 194.626 40.166 Q 195.002 40.675 195.718 40.675 Q 196.11 40.675 196.379 40.569 Q 196.648 40.462 196.939 40.261 Z " fill="black" /><path d="M 199.381 39.555 L 199.381 39.555 L 199.672 39.555 Q 199.851 40.418 200.198 40.759 Q 200.546 41.101 201.162 41.101 Q 201.587 41.101 201.856 40.927 Q 202.125 40.754 202.125 40.362 Q 202.125 40.093 202.03 39.914 Q 201.934 39.734 201.666 39.55 Q 201.397 39.365 200.87 39.107 Q 200.109 38.715 199.75 38.351 Q 199.392 37.987 199.392 37.371 Q 199.392 36.677 199.89 36.318 Q 200.389 35.96 201.106 35.96 Q 201.531 35.96 201.8 36.055 Q 202.069 36.15 202.282 36.251 L 202.293 36.251 L 202.483 36.016 L 202.707 36.016 L 202.741 37.73 L 202.438 37.73 Q 202.259 36.934 201.934 36.638 Q 201.61 36.341 201.094 36.341 Q 200.714 36.341 200.45 36.52 Q 200.187 36.699 200.187 37.08 Q 200.187 37.405 200.49 37.662 Q 200.792 37.92 201.498 38.278 Q 202.259 38.682 202.662 39.057 Q 203.066 39.432 203.066 40.059 Q 203.066 40.586 202.808 40.905 Q 202.55 41.224 202.119 41.37 Q 201.688 41.515 201.184 41.515 Q 200.702 41.515 200.417 41.414 Q 200.131 41.314 199.907 41.224 L 199.885 41.224 L 199.65 41.482 L 199.414 41.482 Z " fill="black" /></g></g></g><circle cx="108.0" cy="-1.3226185430791413e-14" r="2.6999999999999997" style="stroke:black;fill:black;stroke-width:2.0;" /><g><g><g><path d="M 152.608 -17.388 L 152.608 -17.388 L 152.96 -17.388 L 152.208 -14.316 Q 152.096 -13.9 151.976 -13.316 Q 151.856 -12.732 151.856 -12.188 Q 151.856 -11.564 152.112 -11.108 Q 152.368 -10.652 153.104 -10.652 Q 153.92 -10.652 154.512 -11.044 Q 155.104 -11.436 155.48 -12.044 Q 155.856 -12.652 156.04 -13.324 Q 156.224 -13.996 156.224 -14.556 Q 156.224 -14.972 156.08 -15.276 Q 155.936 -15.58 155.736 -15.82 Q 155.536 -16.06 155.392 -16.284 Q 155.248 -16.508 155.248 -16.764 Q 155.248 -17.084 155.424 -17.26 Q 155.6 -17.436 155.856 -17.436 Q 156.4 -17.436 156.736 -16.892 Q 157.072 -16.348 157.072 -15.5 Q 157.072 -14.764 156.888 -13.956 Q 156.704 -13.148 156.336 -12.38 Q 155.968 -11.612 155.424 -10.988 Q 154.88 -10.364 154.176 -9.996 Q 153.472 -9.628 152.608 -9.628 Q 151.808 -9.628 151.36 -9.948 Q 150.912 -10.268 150.728 -10.796 Q 150.544 -11.324 150.544 -11.932 Q 150.544 -12.508 150.656 -13.116 Q 150.768 -13.724 150.896 -14.22 L 151.216 -15.436 Q 151.248 -15.564 151.312 -15.82 Q 151.376 -16.076 151.376 -16.316 Q 151.376 -16.524 151.296 -16.668 Q 151.216 -16.812 150.992 -16.812 Q 150.8 -16.812 150.528 -16.788 Q 150.256 -16.764 150.256 -16.764 L 150.256 -17.212 Z " fill="black" /><path d="M 159.961 -11.844 L 159.961 -11.844 Q 161.115 -11.844 161.781 -11.127 Q 162.448 -10.41 162.448 -9.167 Q 162.448 -8.226 162.128 -7.588 Q 161.809 -6.95 161.249 -6.625 Q 160.689 -6.3 159.961 -6.3 Q 158.785 -6.3 158.119 -7.034 Q 157.452 -7.767 157.452 -9.122 Q 157.452 -9.94 157.766 -10.55 Q 158.08 -11.161 158.645 -11.502 Q 159.211 -11.844 159.961 -11.844 Z M 159.916 -11.418 L 159.916 -11.418 Q 159.278 -11.418 158.886 -10.881 Q 158.494 -10.343 158.494 -9.268 Q 158.494 -7.935 158.892 -7.336 Q 159.289 -6.737 160.006 -6.748 Q 160.465 -6.748 160.779 -6.961 Q 161.092 -7.174 161.255 -7.689 Q 161.417 -8.204 161.417 -9.111 Q 161.417 -10.142 161.042 -10.78 Q 160.667 -11.418 159.916 -11.418 Z " fill="black" /><path d="M 168.876 -6.916 L 168.876 -6.916 L 168.876 -6.614 L 167.454 -6.356 L 167.208 -6.356 L 167.208 -7.218 L 167.152 -7.218 Q 166.704 -6.782 166.278 -6.541 Q 165.852 -6.3 165.315 -6.3 Q 164.62 -6.3 164.234 -6.754 Q 163.848 -7.207 163.848 -8.35 L 163.848 -10.623 Q 163.848 -11.082 163.696 -11.178 Q 163.545 -11.273 163.086 -11.284 L 163.086 -11.598 L 164.531 -11.766 L 164.777 -11.766 L 164.777 -8.495 Q 164.777 -7.644 165.063 -7.33 Q 165.348 -7.017 165.785 -7.017 Q 166.211 -7.017 166.519 -7.207 Q 166.827 -7.398 167.163 -7.689 L 167.163 -10.634 Q 167.163 -11.082 166.978 -11.183 Q 166.793 -11.284 166.256 -11.284 L 166.256 -11.598 L 167.824 -11.766 L 168.092 -11.766 L 168.092 -7.655 Q 168.092 -7.162 168.227 -7.039 Q 168.361 -6.916 168.764 -6.916 Z " fill="black" /><path d="M 172.494 -7.42 L 172.494 -7.42 L 172.707 -7.241 Q 172.494 -6.938 172.309 -6.731 Q 172.124 -6.524 171.9 -6.412 Q 171.676 -6.3 171.318 -6.3 Q 170.758 -6.3 170.5 -6.63 Q 170.243 -6.961 170.243 -7.711 L 170.243 -11.183 L 169.627 -11.183 L 169.627 -11.441 Q 170.019 -11.687 170.304 -12.107 Q 170.59 -12.527 170.892 -13.244 L 171.184 -13.244 L 171.172 -11.654 L 172.438 -11.654 L 172.438 -11.183 L 171.172 -11.183 L 171.172 -8.025 Q 171.172 -7.431 171.279 -7.196 Q 171.385 -6.961 171.71 -6.961 Q 171.979 -6.961 172.13 -7.073 Q 172.281 -7.185 172.494 -7.42 Z " fill="black" /></g></g></g><g><g><g><path d="M 70.683 -40.032 L 70.683 -40.032 L 69.483 -34.336 Q 69.483 -34.336 69.443 -34.088 Q 69.403 -33.84 69.403 -33.664 Q 69.403 -33.36 69.691 -33.36 Q 70.107 -33.36 70.427 -33.672 Q 70.747 -33.984 70.939 -34.192 L 71.259 -33.952 Q 70.987 -33.568 70.667 -33.176 Q 70.347 -32.784 69.947 -32.528 Q 69.547 -32.272 69.019 -32.272 Q 68.011 -32.272 68.011 -33.12 Q 68.011 -33.328 68.067 -33.656 Q 68.123 -33.984 68.283 -34.688 L 69.099 -38.496 Q 69.099 -38.496 69.123 -38.64 Q 69.147 -38.784 69.147 -38.992 Q 69.147 -39.152 69.051 -39.304 Q 68.955 -39.456 68.635 -39.456 Q 68.427 -39.456 68.259 -39.44 Q 68.091 -39.424 68.091 -39.424 L 68.091 -39.856 L 70.331 -40.032 Z M 71.067 -42.176 L 71.067 -42.176 Q 71.067 -41.776 70.811 -41.544 Q 70.555 -41.312 70.187 -41.312 Q 69.835 -41.312 69.595 -41.536 Q 69.355 -41.76 69.355 -42.176 Q 69.355 -42.592 69.595 -42.824 Q 69.835 -43.056 70.235 -43.056 Q 70.635 -43.056 70.851 -42.816 Q 71.067 -42.576 71.067 -42.176 Z " fill="black" /><path d="M 74.453 -34.488 L 74.453 -34.488 Q 75.606 -34.488 76.273 -33.771 Q 76.939 -33.054 76.939 -31.811 Q 76.939 -30.87 76.62 -30.232 Q 76.301 -29.594 75.741 -29.269 Q 75.181 -28.944 74.453 -28.944 Q 73.277 -28.944 72.61 -29.678 Q 71.944 -30.411 71.944 -31.766 Q 71.944 -32.584 72.258 -33.194 Q 72.571 -33.805 73.137 -34.146 Q 73.702 -34.488 74.453 -34.488 Z M 74.408 -34.062 L 74.408 -34.062 Q 73.77 -34.062 73.378 -33.525 Q 72.986 -32.987 72.986 -31.912 Q 72.986 -30.579 73.383 -29.98 Q 73.781 -29.381 74.498 -29.392 Q 74.957 -29.392 75.27 -29.605 Q 75.584 -29.818 75.746 -30.333 Q 75.909 -30.848 75.909 -31.755 Q 75.909 -32.786 75.534 -33.424 Q 75.158 -34.062 74.408 -34.062 Z " fill="black" /><path d="M 83.368 -29.56 L 83.368 -29.56 L 83.368 -29.258 L 81.946 -29 L 81.699 -29 L 81.699 -29.862 L 81.643 -29.862 Q 81.195 -29.426 80.77 -29.185 Q 80.344 -28.944 79.806 -28.944 Q 79.112 -28.944 78.726 -29.398 Q 78.339 -29.851 78.339 -30.994 L 78.339 -33.267 Q 78.339 -33.726 78.188 -33.822 Q 78.037 -33.917 77.578 -33.928 L 77.578 -34.242 L 79.022 -34.41 L 79.269 -34.41 L 79.269 -31.139 Q 79.269 -30.288 79.554 -29.974 Q 79.84 -29.661 80.277 -29.661 Q 80.702 -29.661 81.01 -29.851 Q 81.318 -30.042 81.654 -30.333 L 81.654 -33.278 Q 81.654 -33.726 81.47 -33.827 Q 81.285 -33.928 80.747 -33.928 L 80.747 -34.242 L 82.315 -34.41 L 82.584 -34.41 L 82.584 -30.299 Q 82.584 -29.806 82.718 -29.683 Q 82.853 -29.56 83.256 -29.56 Z " fill="black" /><path d="M 86.986 -30.064 L 86.986 -30.064 L 87.198 -29.885 Q 86.986 -29.582 86.801 -29.375 Q 86.616 -29.168 86.392 -29.056 Q 86.168 -28.944 85.81 -28.944 Q 85.25 -28.944 84.992 -29.274 Q 84.734 -29.605 84.734 -30.355 L 84.734 -33.827 L 84.118 -33.827 L 84.118 -34.085 Q 84.51 -34.331 84.796 -34.751 Q 85.082 -35.171 85.384 -35.888 L 85.675 -35.888 L 85.664 -34.298 L 86.93 -34.298 L 86.93 -33.827 L 85.664 -33.827 L 85.664 -30.669 Q 85.664 -30.075 85.77 -29.84 Q 85.877 -29.605 86.202 -29.605 Q 86.47 -29.605 86.622 -29.717 Q 86.773 -29.829 86.986 -30.064 Z " fill="black" /></g></g></g></svg>