<svg xmlns="http://www.w3.org/2000/svg" xml:lang="en" height="232.80239999999995pt" width="192.66159999999996pt" viewBox="-62.06159999999999 -61.16239999999999 192.66159999999996 232.80239999999995"><circle cx="107.99999999999999" cy="36.0" r="18.0" style="stroke:black;fill:none;stroke-width:2.0;" /><path d="M 0.0,-0.0 L -18.0,-2.204364238465236e-15 L -36.0,-4.408728476930472e-15" style="stroke:black;fill:none;stroke-width:2.0;stroke-linecap:round;stroke-linejoin:round;" /><path d="M -1.3226185430791413e-14,72.0 L 53.999999999999986,72.0 L 107.99999999999999,72.0" style="stroke:black;fill:none;stroke-width:2.0;stroke-linecap:round;stroke-linejoin:round;" /><path d="M 107.99999999999999,72.0 L 107.99999999999999,54.0 L 107.99999999999999,54.0 M 107.99999999999999,18.0 L 107.99999999999999,18.0 L 107.99999999999999,-0.0" style="stroke:black;fill:none;stroke-width:2.0;stroke-linecap:round;stroke-linejoin:round;" /><path d="M 107.99999999999999,36.0 L 107.99999999999999,27.0" style="stroke:black;fill:none;stroke-width:2.0;stroke-linecap:round;stroke-linejoin:round;" /><path d="M 107.99999999999999 43.0 L 105.29999999999998 36.0 L 110.69999999999999 36.0 Z" style="stroke:black;fill:black;stroke-linecap:butt;stroke-linejoin:miter;" /><path d="M 107.99999999999999,-0.0 L 107.99999999999999,-18.0 L 107.99999999999999,-36.0" style="stroke:black;fill:none;stroke-width:2.0;stroke-linecap:round;stroke-linejoin:round;" /><path d="M 107.99999999999999,72.0 L 107.99999999999999,90.0 L 116.99999999999999,93.0 L 98.99999999999999,99.0 L 116.99999999999999,105.0 L 98.99999999999997,110.99999999999999 L 116.99999999999997,117.0 L 98.99999999999997,123.0 L 107.99999999999997,126.0 L 107.99999999999997,144.0" style="stroke:black;fill:none;stroke-width:2.0;stroke-linecap:round;stroke-linejoin:round;" /><path d="M 107.99999999999997,144.0 L 107.99999999999997,158.4 L 98.99999999999997,158.4 L 116.99999999999997,158.4 M 101.69999999999997,162.71999999999997 L 114.29999999999995,162.71999999999997 M 106.19999999999997,167.04 L 109.79999999999995,167.04" style="stroke:black;fill:none;stroke-width:2.0;stroke-linecap:round;stroke-linejoin:round;" /><circle cx="-36.0" cy="-4.408728476930472e-15" r="2.6999999999999997" style="stroke:black;fill:white;stroke-width:2.0;" /><circle cx="0.0" cy="-0.0" r="2.6999999999999997" style="stroke:black;fill:white;stroke-width:2.0;" /><g><g><g><path d="M -56.455 -5.464 L -56.455 -5.464 L -56.103 -5.464 L -56.855 -2.392 Q -56.967 -1.976 -57.087 -1.392 Q -57.207 -0.808 -57.207 -0.264 Q -57.207 0.36 -56.951 0.816 Q -56.695 1.272 -55.959 1.272 Q -55.143 1.272 -54.551 0.88 Q -53.959 0.488 -53.583 -0.12 Q -53.207 -0.728 -53.023 -1.4 Q -52.839 -2.072 -52.839 -2.632 Q -52.839 -3.048 -52.983 -3.352 Q -53.127 -3.656 -53.327 -3.896 Q -53.527 -4.136 -53.671 -4.36 Q -53.815 -4.584 -53.815 -4.84 Q -53.815 -5.16 -53.639 -5.336 Q -53.463 -5.512 -53.207 -5.512 Q -52.663 -5.512 -52.327 -4.968 Q -51.991 -4.424 -51.991 -3.576 Q -51.991 -2.84 -52.175 -2.032 Q -52.359 -1.224 -52.727 -0.456 Q -53.095 0.312 -53.639 0.936 Q -54.183 1.56 -54.887 1.928 Q -55.591 2.296 -56.455 2.296 Q -57.255 2.296 -57.703 1.976 Q -58.151 1.656 -58.335 1.128 Q -58.519 0.6 -58.519 -0.008 Q -58.519 -0.584 -58.407 -1.192 Q -58.295 -1.8 -58.167 -2.296 L -57.847 -3.512 Q -57.815 -3.64 -57.751 -3.896 Q -57.687 -4.152 -57.687 -4.392 Q -57.687 -4.6 -57.767 -4.744 Q -57.847 -4.888 -58.071 -4.888 Q -58.263 -4.888 -58.535 -4.864 Q -58.807 -4.84 -58.807 -4.84 L -58.807 -5.288 Z " fill="black" /><path d="M -48.217 5.198 L -48.217 5.198 L -48.217 5.512 L -50.737 5.512 L -50.737 5.198 Q -50.356 5.198 -50.194 5.126 Q -50.031 5.053 -49.992 4.874 Q -49.953 4.694 -49.953 4.381 L -49.953 1.256 Q -49.953 0.898 -50.076 0.814 Q -50.199 0.73 -50.446 0.73 Q -50.558 0.73 -50.642 0.741 Q -50.726 0.752 -50.726 0.752 L -50.726 0.427 L -49.314 0.114 L -49.023 0.114 L -49.023 4.381 Q -49.023 4.706 -48.978 4.885 Q -48.934 5.064 -48.76 5.131 Q -48.586 5.198 -48.217 5.198 Z M -49.471 -2.026 L -49.471 -2.026 Q -49.18 -2.026 -49.006 -1.841 Q -48.833 -1.656 -48.833 -1.398 Q -48.833 -1.141 -49.006 -0.95 Q -49.18 -0.76 -49.471 -0.76 Q -49.751 -0.76 -49.93 -0.95 Q -50.11 -1.141 -50.11 -1.398 Q -50.11 -1.656 -49.936 -1.841 Q -49.762 -2.026 -49.471 -2.026 Z " fill="black" /><path d="M -42.516 2.074 L -42.516 2.074 L -42.516 4.381 Q -42.516 4.694 -42.466 4.874 Q -42.415 5.053 -42.236 5.126 Q -42.057 5.198 -41.687 5.198 L -41.687 5.512 L -44.274 5.512 L -44.274 5.198 Q -43.871 5.198 -43.698 5.126 Q -43.524 5.053 -43.485 4.874 Q -43.446 4.694 -43.446 4.381 L -43.446 2.354 Q -43.446 1.682 -43.597 1.346 Q -43.748 1.01 -43.983 0.903 Q -44.218 0.797 -44.476 0.797 Q -44.924 0.797 -45.249 1.038 Q -45.574 1.278 -45.831 1.502 L -45.831 4.381 Q -45.831 4.694 -45.786 4.874 Q -45.742 5.053 -45.562 5.126 Q -45.383 5.198 -44.98 5.198 L -44.98 5.512 L -47.545 5.512 L -47.545 5.198 Q -47.164 5.198 -47.002 5.126 Q -46.839 5.053 -46.8 4.874 Q -46.761 4.694 -46.761 4.381 L -46.761 1.234 Q -46.761 0.931 -46.884 0.836 Q -47.007 0.741 -47.231 0.741 Q -47.377 0.741 -47.455 0.752 Q -47.534 0.763 -47.534 0.763 L -47.534 0.438 L -46.111 0.114 L -45.854 0.114 L -45.865 1.021 L -45.82 1.021 Q -45.361 0.618 -44.952 0.349 Q -44.543 0.08 -44.017 0.08 Q -43.255 0.08 -42.886 0.595 Q -42.516 1.11 -42.516 2.074 Z " fill="black" /></g></g></g><g><g><g><path d="M 5.264 18.544 L 5.264 18.544 L 1.072 18.544 L 1.072 22.784 L -0.08 22.784 L -0.08 18.544 L -4.272 18.544 L -4.272 17.456 L -0.08 17.456 L -0.08 13.216 L 1.072 13.216 L 1.072 17.456 L 5.264 17.456 Z " fill="black" /></g></g></g><g><g><g><path d="M -5.13 29.22 L -5.13 29.22 L -4.778 29.22 L -5.53 32.292 Q -5.642 32.708 -5.762 33.292 Q -5.882 33.876 -5.882 34.42 Q -5.882 35.044 -5.626 35.5 Q -5.37 35.956 -4.634 35.956 Q -3.818 35.956 -3.226 35.564 Q -2.634 35.172 -2.258 34.564 Q -1.882 33.956 -1.698 33.284 Q -1.514 32.612 -1.514 32.052 Q -1.514 31.636 -1.658 31.332 Q -1.802 31.028 -2.002 30.788 Q -2.202 30.548 -2.346 30.324 Q -2.49 30.1 -2.49 29.844 Q -2.49 29.524 -2.314 29.348 Q -2.138 29.172 -1.882 29.172 Q -1.338 29.172 -1.002 29.716 Q -0.666 30.26 -0.666 31.108 Q -0.666 31.844 -0.85 32.652 Q -1.034 33.46 -1.402 34.228 Q -1.77 34.996 -2.314 35.62 Q -2.858 36.244 -3.562 36.612 Q -4.266 36.98 -5.13 36.98 Q -5.93 36.98 -6.378 36.66 Q -6.826 36.34 -7.01 35.812 Q -7.194 35.284 -7.194 34.676 Q -7.194 34.1 -7.082 33.492 Q -6.97 32.884 -6.842 32.388 L -6.522 31.172 Q -6.49 31.044 -6.426 30.788 Q -6.362 30.532 -6.362 30.292 Q -6.362 30.084 -6.442 29.94 Q -6.522 29.796 -6.746 29.796 Q -6.938 29.796 -7.21 29.82 Q -7.482 29.844 -7.482 29.844 L -7.482 29.396 Z " fill="black" /><path d="M 0.767 38.135 L 0.767 38.135 L 0.767 38.113 Q 0.364 37.878 0.134 37.508 Q -0.095 37.138 -0.095 36.59 Q -0.095 35.75 0.476 35.257 Q 1.047 34.764 1.932 34.764 Q 2.302 34.764 2.582 34.831 Q 2.862 34.898 3.018 34.971 Q 3.175 35.044 3.175 35.044 L 4.62 34.966 L 4.62 35.57 L 3.567 35.537 L 3.567 35.593 Q 3.69 35.761 3.83 36.041 Q 3.97 36.321 3.97 36.746 Q 3.97 37.53 3.422 37.99 Q 2.873 38.449 1.988 38.449 Q 1.719 38.449 1.484 38.404 Q 1.249 38.359 1.025 38.281 Q 0.946 38.393 0.84 38.639 Q 0.734 38.886 0.734 39.031 Q 0.734 39.278 1.008 39.378 Q 1.282 39.479 2.055 39.479 Q 2.761 39.479 3.326 39.546 Q 3.892 39.614 4.217 39.894 Q 4.542 40.174 4.542 40.812 Q 4.542 41.372 4.267 41.758 Q 3.993 42.145 3.539 42.38 Q 3.086 42.615 2.542 42.722 Q 1.999 42.828 1.473 42.828 Q 0.745 42.828 0.325 42.649 Q -0.095 42.47 -0.263 42.184 Q -0.431 41.898 -0.431 41.596 Q -0.431 41.316 -0.202 41.008 Q 0.028 40.7 0.476 40.263 L 0.476 40.218 Q 0.196 40.073 0.022 39.86 Q -0.151 39.647 -0.151 39.412 Q -0.151 39.11 0.112 38.774 Q 0.375 38.438 0.767 38.135 Z M 0.756 40.308 L 0.756 40.308 Q 0.577 40.622 0.51 40.829 Q 0.442 41.036 0.442 41.215 Q 0.442 42.19 2.122 42.19 Q 2.783 42.19 3.192 42.022 Q 3.601 41.854 3.786 41.607 Q 3.97 41.361 3.97 41.126 Q 3.97 40.834 3.791 40.672 Q 3.612 40.51 3.326 40.442 Q 3.041 40.375 2.722 40.353 Q 2.402 40.33 2.122 40.33 Q 2.055 40.33 2.022 40.33 Q 1.574 40.319 1.327 40.319 Q 1.081 40.319 0.958 40.314 Q 0.834 40.308 0.756 40.308 Z M 1.854 35.167 L 1.854 35.167 Q 1.417 35.167 1.154 35.503 Q 0.89 35.839 0.89 36.545 Q 0.89 37.262 1.17 37.659 Q 1.45 38.057 1.999 38.057 Q 2.425 38.057 2.699 37.766 Q 2.974 37.474 2.974 36.679 Q 2.974 35.996 2.682 35.582 Q 2.391 35.167 1.854 35.167 Z " fill="black" /><path d="M 5.191 38.359 L 5.191 38.359 L 5.482 38.359 Q 5.662 39.222 6.009 39.563 Q 6.356 39.905 6.972 39.905 Q 7.398 39.905 7.666 39.731 Q 7.935 39.558 7.935 39.166 Q 7.935 38.897 7.84 38.718 Q 7.745 38.538 7.476 38.354 Q 7.207 38.169 6.681 37.911 Q 5.919 37.519 5.561 37.155 Q 5.202 36.791 5.202 36.175 Q 5.202 35.481 5.701 35.122 Q 6.199 34.764 6.916 34.764 Q 7.342 34.764 7.61 34.859 Q 7.879 34.954 8.092 35.055 L 8.103 35.055 L 8.294 34.82 L 8.518 34.82 L 8.551 36.534 L 8.249 36.534 Q 8.07 35.738 7.745 35.442 Q 7.42 35.145 6.905 35.145 Q 6.524 35.145 6.261 35.324 Q 5.998 35.503 5.998 35.884 Q 5.998 36.209 6.3 36.466 Q 6.602 36.724 7.308 37.082 Q 8.07 37.486 8.473 37.861 Q 8.876 38.236 8.876 38.863 Q 8.876 39.39 8.618 39.709 Q 8.361 40.028 7.93 40.174 Q 7.498 40.319 6.994 40.319 Q 6.513 40.319 6.227 40.218 Q 5.942 40.118 5.718 40.028 L 5.695 40.028 L 5.46 40.286 L 5.225 40.286 Z " fill="black" /></g></g></g><g><g><g><rect x="-2.16" y="49.328" width="4.32" height="1.088" fill="black" /></g></g></g><circle cx="107.99999999999999" cy="72.0" r="2.6999999999999997" style="stroke:black;fill:black;stroke-width:2.0;" /><circle cx="-1.3226185430791413e-14" cy="72.0" r="2.6999999999999997" style="stroke:black;fill:white;stroke-width:2.0;" /><g><g><g><path d="M 59.093 29.364 L 59.093 29.364 L 58.997 30.18 L 57.605 30.02 L 57.605 30.068 Q 57.877 30.372 58.029 30.828 Q 58.181 31.284 58.181 31.7 Q 58.181 32.42 57.893 32.908 Q 57.605 33.396 57.141 33.692 Q 56.677 33.988 56.117 34.14 Q 55.557 34.292 55.029 34.34 Q 54.389 34.404 54.125 34.612 Q 53.861 34.82 53.861 35.044 Q 53.861 35.332 54.181 35.484 Q 54.501 35.636 55.005 35.732 Q 55.509 35.828 56.085 35.948 Q 56.661 36.068 57.165 36.276 Q 57.669 36.484 57.989 36.86 Q 58.309 37.236 58.309 37.86 Q 58.309 38.548 57.861 39.132 Q 57.413 39.716 56.533 40.076 Q 55.653 40.436 54.373 40.436 Q 53.221 40.436 52.533 40.156 Q 51.845 39.876 51.541 39.436 Q 51.237 38.996 51.237 38.516 Q 51.237 37.748 51.829 37.276 Q 52.421 36.804 53.173 36.564 L 53.173 36.5 Q 52.965 36.372 52.781 36.14 Q 52.597 35.908 52.597 35.54 Q 52.597 35.14 52.805 34.9 Q 53.013 34.66 53.341 34.508 Q 53.669 34.356 53.989 34.244 L 53.989 34.148 Q 53.365 33.876 52.901 33.38 Q 52.437 32.884 52.437 31.972 Q 52.437 31.14 52.837 30.508 Q 53.237 29.876 53.933 29.524 Q 54.629 29.172 55.493 29.172 Q 56.069 29.172 56.365 29.228 Q 56.661 29.284 56.949 29.364 Z M 57.157 38.452 L 57.157 38.452 Q 57.157 37.972 56.757 37.676 Q 56.357 37.38 55.765 37.204 Q 55.173 37.028 54.573 36.924 Q 53.973 36.82 53.557 36.74 Q 53.157 36.996 52.821 37.324 Q 52.485 37.652 52.485 38.276 Q 52.485 38.916 52.981 39.396 Q 53.477 39.876 54.693 39.876 Q 55.845 39.876 56.501 39.452 Q 57.157 39.028 57.157 38.452 Z M 56.757 31.524 L 56.757 31.524 Q 56.757 30.724 56.453 30.188 Q 56.149 29.652 55.445 29.652 Q 54.757 29.652 54.309 30.228 Q 53.861 30.804 53.861 31.972 Q 53.861 32.804 54.149 33.324 Q 54.437 33.844 55.125 33.844 Q 55.925 33.844 56.341 33.172 Q 56.757 32.5 56.757 31.524 Z " fill="black" /><path d="M 61.389 36.198 L 61.389 36.198 L 61.389 39.11 Q 61.389 39.58 61.551 39.726 Q 61.714 39.871 62.229 39.871 L 62.229 40.196 L 59.675 40.196 L 59.675 39.871 Q 60.034 39.871 60.196 39.81 Q 60.358 39.748 60.409 39.574 Q 60.459 39.401 60.459 39.065 L 60.459 35.929 Q 60.459 35.626 60.342 35.526 Q 60.224 35.425 59.989 35.425 Q 59.866 35.425 59.776 35.436 Q 59.686 35.447 59.686 35.447 L 59.686 35.122 L 61.086 34.798 L 61.355 34.798 L 61.355 35.705 L 61.4 35.705 Q 61.859 35.313 62.285 35.038 Q 62.71 34.764 63.282 34.764 Q 63.763 34.764 64.06 35.027 Q 64.357 35.29 64.525 35.694 L 64.57 35.694 Q 65.029 35.234 65.466 34.999 Q 65.902 34.764 66.35 34.764 Q 67.011 34.764 67.403 35.178 Q 67.795 35.593 67.795 36.612 L 67.795 38.897 Q 67.795 39.244 67.834 39.462 Q 67.874 39.681 68.047 39.776 Q 68.221 39.871 68.602 39.871 L 68.602 40.196 L 66.07 40.196 L 66.07 39.871 Q 66.451 39.871 66.619 39.77 Q 66.787 39.67 66.826 39.451 Q 66.866 39.233 66.866 38.897 L 66.866 36.746 Q 66.866 36.231 66.737 35.962 Q 66.608 35.694 66.39 35.587 Q 66.171 35.481 65.902 35.481 Q 65.555 35.481 65.225 35.71 Q 64.894 35.94 64.614 36.175 L 64.614 38.897 Q 64.614 39.278 64.665 39.49 Q 64.715 39.703 64.894 39.787 Q 65.074 39.871 65.477 39.871 L 65.477 40.196 L 62.822 40.196 L 62.822 39.871 Q 63.226 39.871 63.405 39.793 Q 63.584 39.714 63.634 39.502 Q 63.685 39.289 63.685 38.897 L 63.685 36.679 Q 63.685 35.962 63.433 35.722 Q 63.181 35.481 62.789 35.481 Q 62.352 35.481 61.994 35.727 Q 61.635 35.974 61.389 36.198 Z " fill="black" /><path d="M 72.059 29.22 L 72.059 29.22 L 72.411 29.22 L 71.659 32.292 Q 71.547 32.708 71.427 33.292 Q 71.307 33.876 71.307 34.42 Q 71.307 35.044 71.563 35.5 Q 71.819 35.956 72.555 35.956 Q 73.371 35.956 73.963 35.564 Q 74.555 35.172 74.931 34.564 Q 75.307 33.956 75.491 33.284 Q 75.675 32.612 75.675 32.052 Q 75.675 31.636 75.531 31.332 Q 75.387 31.028 75.187 30.788 Q 74.987 30.548 74.843 30.324 Q 74.699 30.1 74.699 29.844 Q 74.699 29.524 74.875 29.348 Q 75.051 29.172 75.307 29.172 Q 75.851 29.172 76.187 29.716 Q 76.523 30.26 76.523 31.108 Q 76.523 31.844 76.339 32.652 Q 76.155 33.46 75.787 34.228 Q 75.419 34.996 74.875 35.62 Q 74.331 36.244 73.627 36.612 Q 72.923 36.98 72.059 36.98 Q 71.259 36.98 70.811 36.66 Q 70.363 36.34 70.179 35.812 Q 69.995 35.284 69.995 34.676 Q 69.995 34.1 70.107 33.492 Q 70.219 32.884 70.347 32.388 L 70.667 31.172 Q 70.699 31.044 70.763 30.788 Q 70.827 30.532 70.827 30.292 Q 70.827 30.084 70.747 29.94 Q 70.667 29.796 70.443 29.796 Q 70.251 29.796 69.979 29.82 Q 69.707 29.844 69.707 29.844 L 69.707 29.396 Z " fill="black" /><path d="M 77.957 38.135 L 77.957 38.135 L 77.957 38.113 Q 77.554 37.878 77.324 37.508 Q 77.094 37.138 77.094 36.59 Q 77.094 35.75 77.666 35.257 Q 78.237 34.764 79.122 34.764 Q 79.491 34.764 79.771 34.831 Q 80.051 34.898 80.208 34.971 Q 80.365 35.044 80.365 35.044 L 81.81 34.966 L 81.81 35.57 L 80.757 35.537 L 80.757 35.593 Q 80.88 35.761 81.02 36.041 Q 81.16 36.321 81.16 36.746 Q 81.16 37.53 80.611 37.99 Q 80.062 38.449 79.178 38.449 Q 78.909 38.449 78.674 38.404 Q 78.438 38.359 78.214 38.281 Q 78.136 38.393 78.03 38.639 Q 77.923 38.886 77.923 39.031 Q 77.923 39.278 78.198 39.378 Q 78.472 39.479 79.245 39.479 Q 79.95 39.479 80.516 39.546 Q 81.082 39.614 81.406 39.894 Q 81.731 40.174 81.731 40.812 Q 81.731 41.372 81.457 41.758 Q 81.182 42.145 80.729 42.38 Q 80.275 42.615 79.732 42.722 Q 79.189 42.828 78.662 42.828 Q 77.934 42.828 77.514 42.649 Q 77.094 42.47 76.926 42.184 Q 76.758 41.898 76.758 41.596 Q 76.758 41.316 76.988 41.008 Q 77.218 40.7 77.666 40.263 L 77.666 40.218 Q 77.386 40.073 77.212 39.86 Q 77.038 39.647 77.038 39.412 Q 77.038 39.11 77.302 38.774 Q 77.565 38.438 77.957 38.135 Z M 77.946 40.308 L 77.946 40.308 Q 77.766 40.622 77.699 40.829 Q 77.632 41.036 77.632 41.215 Q 77.632 42.19 79.312 42.19 Q 79.973 42.19 80.382 42.022 Q 80.79 41.854 80.975 41.607 Q 81.16 41.361 81.16 41.126 Q 81.16 40.834 80.981 40.672 Q 80.802 40.51 80.516 40.442 Q 80.23 40.375 79.911 40.353 Q 79.592 40.33 79.312 40.33 Q 79.245 40.33 79.211 40.33 Q 78.763 40.319 78.517 40.319 Q 78.27 40.319 78.147 40.314 Q 78.024 40.308 77.946 40.308 Z M 79.043 35.167 L 79.043 35.167 Q 78.606 35.167 78.343 35.503 Q 78.08 35.839 78.08 36.545 Q 78.08 37.262 78.36 37.659 Q 78.64 38.057 79.189 38.057 Q 79.614 38.057 79.889 37.766 Q 80.163 37.474 80.163 36.679 Q 80.163 35.996 79.872 35.582 Q 79.581 35.167 79.043 35.167 Z " fill="black" /><path d="M 82.381 38.359 L 82.381 38.359 L 82.672 38.359 Q 82.851 39.222 83.198 39.563 Q 83.546 39.905 84.162 39.905 Q 84.587 39.905 84.856 39.731 Q 85.125 39.558 85.125 39.166 Q 85.125 38.897 85.03 38.718 Q 84.934 38.538 84.666 38.354 Q 84.397 38.169 83.87 37.911 Q 83.109 37.519 82.75 37.155 Q 82.392 36.791 82.392 36.175 Q 82.392 35.481 82.89 35.122 Q 83.389 34.764 84.106 34.764 Q 84.531 34.764 84.8 34.859 Q 85.069 34.954 85.282 35.055 L 85.293 35.055 L 85.483 34.82 L 85.707 34.82 L 85.741 36.534 L 85.438 36.534 Q 85.259 35.738 84.934 35.442 Q 84.61 35.145 84.094 35.145 Q 83.714 35.145 83.45 35.324 Q 83.187 35.503 83.187 35.884 Q 83.187 36.209 83.49 36.466 Q 83.792 36.724 84.498 37.082 Q 85.259 37.486 85.662 37.861 Q 86.066 38.236 86.066 38.863 Q 86.066 39.39 85.808 39.709 Q 85.55 40.028 85.119 40.174 Q 84.688 40.319 84.184 40.319 Q 83.702 40.319 83.417 40.218 Q 83.131 40.118 82.907 40.028 L 82.885 40.028 L 82.65 40.286 L 82.414 40.286 Z " fill="black" /></g></g></g><circle cx="107.99999999999999" cy="-36.0" r="2.6999999999999997" style="stroke:black;fill:white;stroke-width:2.0;" /><g><g><g><path d="M 101.894 -53.388 L 101.894 -53.388 L 100.694 -47.692 Q 100.694 -47.692 100.654 -47.444 Q 100.614 -47.196 100.614 -47.02 Q 100.614 -46.716 100.902 -46.716 Q 101.318 -46.716 101.638 -47.028 Q 101.958 -47.34 102.15 -47.548 L 102.47 -47.308 Q 102.198 -46.924 101.878 -46.532 Q 101.558 -46.14 101.158 -45.884 Q 100.758 -45.628 100.23 -45.628 Q 99.222 -45.628 99.222 -46.476 Q 99.222 -46.684 99.278 -47.012 Q 99.334 -47.34 99.494 -48.044 L 100.31 -51.852 Q 100.31 -51.852 100.334 -51.996 Q 100.358 -52.14 100.358 -52.348 Q 100.358 -52.508 100.262 -52.66 Q 100.166 -52.812 99.846 -52.812 Q 99.638 -52.812 99.47 -52.796 Q 99.302 -52.78 99.302 -52.78 L 99.302 -53.212 L 101.542 -53.388 Z M 102.278 -55.532 L 102.278 -55.532 Q 102.278 -55.132 102.022 -54.9 Q 101.766 -54.668 101.398 -54.668 Q 101.046 -54.668 100.806 -54.892 Q 100.566 -55.116 100.566 -55.532 Q 100.566 -55.948 100.806 -56.18 Q 101.046 -56.412 101.446 -56.412 Q 101.846 -56.412 102.062 -56.172 Q 102.278 -55.932 102.278 -55.532 Z " fill="black" /><path d="M 105.663 -47.844 L 105.663 -47.844 Q 106.817 -47.844 107.483 -47.127 Q 108.15 -46.41 108.15 -45.167 Q 108.15 -44.226 107.83 -43.588 Q 107.511 -42.95 106.951 -42.625 Q 106.391 -42.3 105.663 -42.3 Q 104.487 -42.3 103.821 -43.034 Q 103.154 -43.767 103.154 -45.122 Q 103.154 -45.94 103.468 -46.55 Q 103.782 -47.161 104.347 -47.502 Q 104.913 -47.844 105.663 -47.844 Z M 105.618 -47.418 L 105.618 -47.418 Q 104.98 -47.418 104.588 -46.881 Q 104.196 -46.343 104.196 -45.268 Q 104.196 -43.935 104.594 -43.336 Q 104.991 -42.737 105.708 -42.748 Q 106.167 -42.748 106.481 -42.961 Q 106.794 -43.174 106.957 -43.689 Q 107.119 -44.204 107.119 -45.111 Q 107.119 -46.142 106.744 -46.78 Q 106.369 -47.418 105.618 -47.418 Z " fill="black" /><path d="M 114.578 -42.916 L 114.578 -42.916 L 114.578 -42.614 L 113.156 -42.356 L 112.91 -42.356 L 112.91 -43.218 L 112.854 -43.218 Q 112.406 -42.782 111.98 -42.541 Q 111.554 -42.3 111.017 -42.3 Q 110.322 -42.3 109.936 -42.754 Q 109.55 -43.207 109.55 -44.35 L 109.55 -46.623 Q 109.55 -47.082 109.398 -47.178 Q 109.247 -47.273 108.788 -47.284 L 108.788 -47.598 L 110.233 -47.766 L 110.479 -47.766 L 110.479 -44.495 Q 110.479 -43.644 110.765 -43.33 Q 111.05 -43.017 111.487 -43.017 Q 111.913 -43.017 112.221 -43.207 Q 112.529 -43.398 112.865 -43.689 L 112.865 -46.634 Q 112.865 -47.082 112.68 -47.183 Q 112.495 -47.284 111.958 -47.284 L 111.958 -47.598 L 113.526 -47.766 L 113.794 -47.766 L 113.794 -43.655 Q 113.794 -43.162 113.929 -43.039 Q 114.063 -42.916 114.466 -42.916 Z " fill="black" /><path d="M 118.196 -43.42 L 118.196 -43.42 L 118.409 -43.241 Q 118.196 -42.938 118.011 -42.731 Q 117.826 -42.524 117.602 -42.412 Q 117.378 -42.3 117.02 -42.3 Q 116.46 -42.3 116.202 -42.63 Q 115.945 -42.961 115.945 -43.711 L 115.945 -47.183 L 115.329 -47.183 L 115.329 -47.441 Q 115.721 -47.687 116.006 -48.107 Q 116.292 -48.527 116.594 -49.244 L 116.886 -49.244 L 116.874 -47.654 L 118.14 -47.654 L 118.14 -47.183 L 116.874 -47.183 L 116.874 -44.025 Q 116.874 -43.431 116.981 -43.196 Q 117.087 -42.961 117.412 -42.961 Q 117.681 -42.961 117.832 -43.073 Q 117.983 -43.185 118.196 -43.42 Z " fill="black" /></g></g></g><g><g><g><path d="M 79.878 102.56 L 79.878 102.56 L 79.782 103.376 L 78.39 103.216 L 78.39 103.264 Q 78.662 103.568 78.814 104.024 Q 78.966 104.48 78.966 104.896 Q 78.966 105.616 78.678 106.104 Q 78.39 106.592 77.926 106.888 Q 77.462 107.184 76.902 107.336 Q 76.342 107.488 75.814 107.536 Q 75.174 107.6 74.91 107.808 Q 74.646 108.016 74.646 108.24 Q 74.646 108.528 74.966 108.68 Q 75.286 108.832 75.79 108.928 Q 76.294 109.024 76.87 109.144 Q 77.446 109.264 77.95 109.472 Q 78.454 109.68 78.774 110.056 Q 79.094 110.432 79.094 111.056 Q 79.094 111.744 78.646 112.328 Q 78.198 112.912 77.318 113.272 Q 76.438 113.632 75.158 113.632 Q 74.006 113.632 73.318 113.352 Q 72.63 113.072 72.326 112.632 Q 72.022 112.192 72.022 111.712 Q 72.022 110.944 72.614 110.472 Q 73.206 110 73.958 109.76 L 73.958 109.696 Q 73.75 109.568 73.566 109.336 Q 73.382 109.104 73.382 108.736 Q 73.382 108.336 73.59 108.096 Q 73.798 107.856 74.126 107.704 Q 74.454 107.552 74.774 107.44 L 74.774 107.344 Q 74.15 107.072 73.686 106.576 Q 73.222 106.08 73.222 105.168 Q 73.222 104.336 73.622 103.704 Q 74.022 103.072 74.718 102.72 Q 75.414 102.368 76.278 102.368 Q 76.854 102.368 77.15 102.424 Q 77.446 102.48 77.734 102.56 Z M 77.942 111.648 L 77.942 111.648 Q 77.942 111.168 77.542 110.872 Q 77.142 110.576 76.55 110.4 Q 75.958 110.224 75.358 110.12 Q 74.758 110.016 74.342 109.936 Q 73.942 110.192 73.606 110.52 Q 73.27 110.848 73.27 111.472 Q 73.27 112.112 73.766 112.592 Q 74.262 113.072 75.478 113.072 Q 76.63 113.072 77.286 112.648 Q 77.942 112.224 77.942 111.648 Z M 77.542 104.72 L 77.542 104.72 Q 77.542 103.92 77.238 103.384 Q 76.934 102.848 76.23 102.848 Q 75.542 102.848 75.094 103.424 Q 74.646 104 74.646 105.168 Q 74.646 106 74.934 106.52 Q 75.222 107.04 75.91 107.04 Q 76.71 107.04 77.126 106.368 Q 77.542 105.696 77.542 104.72 Z " fill="black" /><path d="M 83.384 112.384 L 83.384 112.384 L 83.597 112.563 Q 83.384 112.866 83.199 113.073 Q 83.014 113.28 82.79 113.392 Q 82.566 113.504 82.208 113.504 Q 81.648 113.504 81.39 113.174 Q 81.133 112.843 81.133 112.093 L 81.133 108.621 L 80.517 108.621 L 80.517 108.363 Q 80.909 108.117 81.194 107.697 Q 81.48 107.277 81.782 106.56 L 82.074 106.56 L 82.062 108.15 L 83.328 108.15 L 83.328 108.621 L 82.062 108.621 L 82.062 111.779 Q 82.062 112.373 82.169 112.608 Q 82.275 112.843 82.6 112.843 Q 82.869 112.843 83.02 112.731 Q 83.171 112.619 83.384 112.384 Z " fill="black" /><path d="M 87.08 112.698 L 87.08 112.698 L 87.035 112.698 Q 86.643 113.045 86.285 113.258 Q 85.926 113.47 85.389 113.47 Q 84.739 113.47 84.398 113.112 Q 84.056 112.754 84.056 112.216 Q 84.056 111.768 84.263 111.46 Q 84.47 111.152 84.812 110.939 Q 85.154 110.726 85.551 110.581 Q 85.949 110.435 86.33 110.334 Q 86.71 110.234 87.002 110.144 L 87.002 109.651 Q 87.002 108.923 86.75 108.615 Q 86.498 108.307 85.994 108.307 Q 85.512 108.307 85.378 108.509 Q 85.243 108.71 85.243 109.214 Q 85.243 109.73 84.75 109.73 Q 84.582 109.73 84.431 109.601 Q 84.28 109.472 84.28 109.192 Q 84.28 108.878 84.521 108.598 Q 84.762 108.318 85.204 108.139 Q 85.646 107.96 86.251 107.96 Q 87.17 107.96 87.55 108.386 Q 87.931 108.811 87.931 109.685 L 87.931 112.227 Q 87.931 112.574 88.01 112.675 Q 88.088 112.776 88.267 112.776 Q 88.424 112.776 88.553 112.698 Q 88.682 112.619 88.794 112.496 L 88.962 112.675 Q 88.682 113.078 88.43 113.263 Q 88.178 113.448 87.752 113.448 Q 87.382 113.448 87.259 113.258 Q 87.136 113.067 87.08 112.698 Z M 87.002 112.362 L 87.002 112.362 L 87.002 110.514 Q 86.498 110.637 86.05 110.805 Q 85.602 110.973 85.322 111.242 Q 85.042 111.51 85.042 111.947 Q 85.042 112.362 85.266 112.608 Q 85.49 112.854 85.848 112.854 Q 86.408 112.854 87.002 112.362 Z " fill="black" /><path d="M 91.885 113.078 L 91.885 113.078 L 91.885 113.392 L 89.365 113.392 L 89.365 113.078 Q 89.746 113.078 89.908 113.006 Q 90.07 112.933 90.11 112.754 Q 90.149 112.574 90.149 112.261 L 90.149 109.136 Q 90.149 108.778 90.026 108.694 Q 89.902 108.61 89.656 108.61 Q 89.544 108.61 89.46 108.621 Q 89.376 108.632 89.376 108.632 L 89.376 108.307 L 90.787 107.994 L 91.078 107.994 L 91.078 112.261 Q 91.078 112.586 91.123 112.765 Q 91.168 112.944 91.342 113.011 Q 91.515 113.078 91.885 113.078 Z M 90.63 105.854 L 90.63 105.854 Q 90.922 105.854 91.095 106.039 Q 91.269 106.224 91.269 106.482 Q 91.269 106.739 91.095 106.93 Q 90.922 107.12 90.63 107.12 Q 90.35 107.12 90.171 106.93 Q 89.992 106.739 89.992 106.482 Q 89.992 106.224 90.166 106.039 Q 90.339 105.854 90.63 105.854 Z " fill="black" /><path d="M 95.11 113.067 L 95.11 113.067 L 95.11 113.392 L 92.534 113.392 L 92.534 113.067 Q 92.904 113.067 93.072 112.994 Q 93.24 112.922 93.279 112.748 Q 93.318 112.574 93.318 112.261 L 93.318 106.638 Q 93.318 106.291 93.19 106.224 Q 93.061 106.157 92.848 106.157 Q 92.702 106.157 92.596 106.168 Q 92.49 106.179 92.49 106.179 L 92.49 105.877 L 93.968 105.485 L 94.248 105.485 L 94.248 112.261 Q 94.248 112.586 94.298 112.759 Q 94.349 112.933 94.528 113 Q 94.707 113.067 95.11 113.067 Z " fill="black" /></g></g></g></svg>