<svg xmlns="http://www.w3.org/2000/svg" xml:lang="en" height="298.64pt" width="424.19599999999997pt" viewBox="-216.95199999999997 -114.99999999999999 424.19599999999997 298.64"><circle cx="-156.0" cy="-12.000000000000021" r="18.0" style="stroke:black;fill:none;stroke-width:2.0;" /><path d="M 0.0,59.99999999999999 L 0.0,45.0 L -14.999999999999998,45.0 L -14.999999999999998,14.999999999999998 L 0.0,14.999999999999998 L 0.0,-0.0" style="stroke:black;fill:none;stroke-width:2.0;stroke-linecap:round;stroke-linejoin:round;" /><path d="M -9.0,45.0 L -14.999999999999998,45.0" style="stroke:black;fill:none;stroke-width:2.0;stroke-linecap:round;stroke-linejoin:round;" /><path d="M -2.0 45.0 L -9.0 49.5 L -9.0 40.5 Z" style="stroke:black;fill:black;stroke-linecap:butt;stroke-linejoin:miter;" /><path d="M -17.999999999999996,42.0 L -17.999999999999996,17.999999999999996" style="stroke:black;fill:none;stroke-width:2.0;stroke-linecap:round;stroke-linejoin:round;" /><path d="M -32.99999999999999,29.999999999999996 L -17.999999999999996,29.999999999999996" style="stroke:black;fill:none;stroke-width:2.0;stroke-linecap:round;stroke-linejoin:round;" /><path d="M 0.0,59.99999999999999 L -1.6532731788489267e-15,69.0 L -3.3065463576978533e-15,78.0" style="stroke:black;fill:none;stroke-width:2.0;stroke-linecap:round;stroke-linejoin:round;" /><path d="M -3.3065463576978533e-15,78.0 L 26.999999999999996,78.0 L 54.0,78.0" style="stroke:black;fill:none;stroke-width:2.0;stroke-linecap:round;stroke-linejoin:round;" /><path d="M 54.0,78.0 L 54.0,87.0 L 54.0,96.0" style="stroke:black;fill:none;stroke-width:2.0;stroke-linecap:round;stroke-linejoin:round;" /><path d="M 54.0,156.0 L 54.0,141.0 L 39.00000000000001,141.0 L 39.00000000000001,110.99999999999999 L 54.0,110.99999999999999 L 54.0,96.0" style="stroke:black;fill:none;stroke-width:2.0;stroke-linecap:round;stroke-linejoin:round;" /><path d="M 45.0,141.0 L 39.00000000000001,141.0" style="stroke:black;fill:none;stroke-width:2.0;stroke-linecap:round;stroke-linejoin:round;" /><path d="M 52.0 141.0 L 45.0 145.5 L 45.0 136.5 Z" style="stroke:black;fill:black;stroke-linecap:butt;stroke-linejoin:miter;" /><path d="M 36.0,138.0 L 36.0,114.0" style="stroke:black;fill:none;stroke-width:2.0;stroke-linecap:round;stroke-linejoin:round;" /><path d="M 21.000000000000007,126.0 L 36.0,126.0" style="stroke:black;fill:none;stroke-width:2.0;stroke-linecap:round;stroke-linejoin:round;" /><path d="M 54.0,156.0 L 54.0,170.4 L 45.0,170.4 L 63.0,170.4 M 47.699999999999996,174.72 L 60.300000000000004,174.72 M 52.199999999999996,179.03999999999996 L 55.800000000000004,179.03999999999996" style="stroke:black;fill:none;stroke-width:2.0;stroke-linecap:round;stroke-linejoin:round;" /><path d="M 21.000000000000007,126.0 L -50.99999999999999,125.99999999999999 L -123.0,125.99999999999999" style="stroke:black;fill:none;stroke-width:2.0;stroke-linecap:round;stroke-linejoin:round;" /><path d="M -156.0,95.99999999999997 L -156.0,110.99999999999999 L -141.0,110.99999999999999 L -141.0,140.99999999999997 L -156.0,140.99999999999997 L -156.0,156.0" style="stroke:black;fill:none;stroke-width:2.0;stroke-linecap:round;stroke-linejoin:round;" /><path d="M -141.0,140.99999999999997 L -147.0,140.99999999999997" style="stroke:black;fill:none;stroke-width:2.0;stroke-linecap:round;stroke-linejoin:round;" /><path d="M -154.0 140.99999999999997 L -147.0 136.49999999999997 L -147.0 145.49999999999997 Z" style="stroke:black;fill:black;stroke-linecap:butt;stroke-linejoin:miter;" /><path d="M -138.0,113.99999999999997 L -138.0,138.0" style="stroke:black;fill:none;stroke-width:2.0;stroke-linecap:round;stroke-linejoin:round;" /><path d="M -138.0,125.99999999999999 L -123.0,125.99999999999999" style="stroke:black;fill:none;stroke-width:2.0;stroke-linecap:round;stroke-linejoin:round;" /><path d="M -156.0,156.0 L -156.0,170.4 L -165.0,170.4 L -147.0,170.4 M -162.29999999999998,174.72 L -149.7,174.72 M -157.79999999999998,179.03999999999996 L -154.2,179.03999999999996" style="stroke:black;fill:none;stroke-width:2.0;stroke-linecap:round;stroke-linejoin:round;" /><path d="M -156.0,95.99999999999997 L -156.0,86.99999999999997 L -156.0,77.99999999999997" style="stroke:black;fill:none;stroke-width:2.0;stroke-linecap:round;stroke-linejoin:round;" /><path d="M -156.0,77.99999999999997 L -156.0,50.99999999999998 L -156.0,23.99999999999998" style="stroke:black;fill:none;stroke-width:2.0;stroke-linecap:round;stroke-linejoin:round;" /><path d="M -156.0,23.99999999999998 L -156.0,5.999999999999979 L -156.0,5.999999999999979 M -156.0,-30.00000000000002 L -156.0,-30.00000000000002 L -156.0,-48.00000000000002" style="stroke:black;fill:none;stroke-width:2.0;stroke-linecap:round;stroke-linejoin:round;" /><path d="M -156.0,-12.000000000000021 L -156.0,-21.00000000000002" style="stroke:black;fill:none;stroke-width:2.0;stroke-linecap:round;stroke-linejoin:round;" /><path d="M -156.0 -5.000000000000021 L -158.7 -12.000000000000021 L -153.3 -12.000000000000021 Z" style="stroke:black;fill:black;stroke-linecap:butt;stroke-linejoin:miter;" /><path d="M -156.0,-48.00000000000002 L -156.0,-62.40000000000002" style="stroke:black;fill:none;stroke-width:2.0;stroke-linecap:round;stroke-linejoin:round;" /><path d="M -156.0,-62.40000000000002 L -162.75,-62.40000000000002" style="stroke:black;fill:none;stroke-width:2.0;stroke-linecap:round;stroke-linejoin:round;" /><path d="M -156.0,-62.40000000000002 L -149.25,-62.40000000000002" style="stroke:black;fill:none;stroke-width:2.0;stroke-linecap:round;stroke-linejoin:round;" /><path d="M -156.0,77.99999999999997 L -129.0,77.99999999999997 L -101.99999999999999,77.99999999999997" style="stroke:black;fill:none;stroke-width:2.0;stroke-linecap:round;stroke-linejoin:round;" /><path d="M -101.99999999999999,77.99999999999997 L -101.99999999999999,101.99999999999999 L -102.0,125.99999999999999" style="stroke:black;fill:none;stroke-width:2.0;stroke-linecap:round;stroke-linejoin:round;" /><path d="M 54.0,78.0 L 81.0,78.0 L 108.0,78.0" style="stroke:black;fill:none;stroke-width:2.0;stroke-linecap:round;stroke-linejoin:round;" /><path d="M 108.0,78.0 L 108.0,69.0 L 108.0,59.99999999999999" style="stroke:black;fill:none;stroke-width:2.0;stroke-linecap:round;stroke-linejoin:round;" /><path d="M 108.0,-0.0 L 108.0,14.999999999999995 L 123.0,14.999999999999995 L 123.0,45.0 L 108.0,45.0 L 108.0,59.99999999999999" style="stroke:black;fill:none;stroke-width:2.0;stroke-linecap:round;stroke-linejoin:round;" /><path d="M 123.0,45.0 L 117.0,45.0" style="stroke:black;fill:none;stroke-width:2.0;stroke-linecap:round;stroke-linejoin:round;" /><path d="M 110.0 45.0 L 117.0 40.5 L 117.0 49.5 Z" style="stroke:black;fill:black;stroke-linecap:butt;stroke-linejoin:miter;" /><path d="M 126.0,18.0 L 126.0,42.0" style="stroke:black;fill:none;stroke-width:2.0;stroke-linecap:round;stroke-linejoin:round;" /><path d="M 126.0,29.999999999999996 L 141.0,29.999999999999996" style="stroke:black;fill:none;stroke-width:2.0;stroke-linecap:round;stroke-linejoin:round;" /><path d="M -32.99999999999999,29.999999999999996 L -41.99999999999999,29.999999999999996 L -50.99999999999999,29.999999999999993" style="stroke:black;fill:none;stroke-width:2.0;stroke-linecap:round;stroke-linejoin:round;" /><path d="M 141.0,29.999999999999996 L 149.99999999999997,29.999999999999996 L 158.99999999999997,29.999999999999996" style="stroke:black;fill:none;stroke-width:2.0;stroke-linecap:round;stroke-linejoin:round;" /><path d="M 0.0,-0.0 L 5.51091059616309e-16,-9.0 L 1.102182119232618e-15,-18.0" style="stroke:black;fill:none;stroke-width:2.0;stroke-linecap:round;stroke-linejoin:round;" /><path d="M 1.102182119232618e-15,-18.0 L 1.6532731788489267e-15,-27.0 L 2.204364238465236e-15,-36.0" style="stroke:black;fill:none;stroke-width:2.0;stroke-linecap:round;stroke-linejoin:round;" /><path d="M 2.204364238465236e-15,-96.0 L 2.204364238465236e-15,-81.0 L 15.0,-81.0 L 15.0,-50.99999999999999 L 2.204364238465236e-15,-50.99999999999999 L 2.204364238465236e-15,-36.0" style="stroke:black;fill:none;stroke-width:2.0;stroke-linecap:round;stroke-linejoin:round;" /><path d="M 2.204364238465236e-15,-81.0 L 6.000000000000001,-81.0" style="stroke:black;fill:none;stroke-width:2.0;stroke-linecap:round;stroke-linejoin:round;" /><path d="M 13.0 -81.0 L 6.0 -76.5 L 6.0 -85.5 Z" style="stroke:black;fill:black;stroke-linecap:butt;stroke-linejoin:miter;" /><path d="M 18.0,-78.0 L 18.0,-53.99999999999999" style="stroke:black;fill:none;stroke-width:2.0;stroke-linecap:round;stroke-linejoin:round;" /><path d="M 18.0,-66.0 L 33.0,-66.0" style="stroke:black;fill:none;stroke-width:2.0;stroke-linecap:round;stroke-linejoin:round;" /><path d="M 2.204364238465236e-15,-96.0 L 2.204364238465236e-15,-110.39999999999999" style="stroke:black;fill:none;stroke-width:2.0;stroke-linecap:round;stroke-linejoin:round;" /><path d="M 2.204364238465236e-15,-110.39999999999999 L -6.749999999999998,-110.39999999999999" style="stroke:black;fill:none;stroke-width:2.0;stroke-linecap:round;stroke-linejoin:round;" /><path d="M 2.204364238465236e-15,-110.39999999999999 L 6.750000000000002,-110.39999999999999" style="stroke:black;fill:none;stroke-width:2.0;stroke-linecap:round;stroke-linejoin:round;" /><path d="M 108.0,-0.0 L 108.0,-9.0 L 108.0,-18.0" style="stroke:black;fill:none;stroke-width:2.0;stroke-linecap:round;stroke-linejoin:round;" /><path d="M 108.0,-18.0 L 135.0,-18.0 L 162.0,-18.0" style="stroke:black;fill:none;stroke-width:2.0;stroke-linecap:round;stroke-linejoin:round;" /><path d="M 108.0,-18.0 L 108.0,-27.0 L 108.0,-36.0" style="stroke:black;fill:none;stroke-width:2.0;stroke-linecap:round;stroke-linejoin:round;" /><path d="M 108.0,-36.0 L 108.0,-50.99999999999999 L 93.0,-50.99999999999999 L 93.0,-81.0 L 108.0,-81.0 L 108.0,-96.0" style="stroke:black;fill:none;stroke-width:2.0;stroke-linecap:round;stroke-linejoin:round;" /><path d="M 102.0,-81.0 L 108.0,-81.0" style="stroke:black;fill:none;stroke-width:2.0;stroke-linecap:round;stroke-linejoin:round;" /><path d="M 95.0 -81.0 L 102.0 -85.5 L 102.0 -76.5 Z" style="stroke:black;fill:black;stroke-linecap:butt;stroke-linejoin:miter;" /><path d="M 90.0,-53.99999999999999 L 90.0,-78.0" style="stroke:black;fill:none;stroke-width:2.0;stroke-linecap:round;stroke-linejoin:round;" /><path d="M 75.0,-66.0 L 90.0,-66.0" style="stroke:black;fill:none;stroke-width:2.0;stroke-linecap:round;stroke-linejoin:round;" /><path d="M 108.0,-96.0 L 108.0,-110.39999999999999" style="stroke:black;fill:none;stroke-width:2.0;stroke-linecap:round;stroke-linejoin:round;" /><path d="M 108.0,-110.39999999999999 L 101.25,-110.39999999999999" style="stroke:black;fill:none;stroke-width:2.0;stroke-linecap:round;stroke-linejoin:round;" /><path d="M 108.0,-110.39999999999999 L 114.75,-110.39999999999999" style="stroke:black;fill:none;stroke-width:2.0;stroke-linecap:round;stroke-linejoin:round;" /><path d="M 75.0,-66.0 L 54.0,-66.0 L 32.99999999999999,-66.0" style="stroke:black;fill:none;stroke-width:2.0;stroke-linecap:round;stroke-linejoin:round;" /><path d="M 1.102182119232618e-15,-18.0 L 27.0,-18.0 L 54.0,-18.0" style="stroke:black;fill:none;stroke-width:2.0;stroke-linecap:round;stroke-linejoin:round;" /><path d="M 54.0,-18.0 L 54.0,-41.99999999999999 L 54.0,-66.0" style="stroke:black;fill:none;stroke-width:2.0;stroke-linecap:round;stroke-linejoin:round;" /><text x="21.000000000000007" y="23.599999999999998" fill="black" font-size="16" font-family="sans" text-anchor="end"><tspan x="21.000000000000007" dy="16">M1</tspan></text><circle cx="54.0" cy="78.0" r="2.6999999999999997" style="stroke:black;fill:black;stroke-width:2.0;" /><text x="75.0" y="119.60000000000001" fill="black" font-size="16" font-family="sans" text-anchor="end"><tspan x="75.0" dy="16">M5</tspan></text><text x="-159.60000000000002" y="119.59999999999998" fill="black" font-size="16" font-family="sans" text-anchor="end"><tspan x="-159.60000000000002" dy="16">M6</tspan></text><circle cx="-156.0" cy="77.99999999999997" r="2.6999999999999997" style="stroke:black;fill:black;stroke-width:2.0;" /><text x="-177.59999999999997" y="-18.40000000000002" fill="black" font-size="16" font-family="sans" text-anchor="end"><tspan x="-177.59999999999997" dy="16">Ibias</tspan></text><circle cx="-102.0" cy="125.99999999999999" r="2.6999999999999997" style="stroke:black;fill:black;stroke-width:2.0;" /><text x="104.39999999999999" y="23.599999999999998" fill="black" font-size="16" font-family="sans" text-anchor="end"><tspan x="104.39999999999999" dy="16">M2</tspan></text><circle cx="-50.99999999999999" cy="29.999999999999993" r="2.6999999999999997" style="stroke:black;fill:white;stroke-width:2.0;" /><text x="-57.3" y="23.59999999999999" fill="black" font-size="16" font-family="sans" text-anchor="end"><tspan x="-57.3" dy="16">Vin,p</tspan></text><circle cx="158.99999999999997" cy="29.999999999999996" r="2.6999999999999997" style="stroke:black;fill:white;stroke-width:2.0;" /><text x="165.3" y="23.599999999999998" fill="black" font-size="16" font-family="sans" text-anchor="start"><tspan x="165.3" dy="16">Vin,n</tspan></text><circle cx="1.102182119232618e-15" cy="-18.0" r="2.6999999999999997" style="stroke:black;fill:black;stroke-width:2.0;" /><text x="-3.5999999999999983" y="-72.4" fill="black" font-size="16" font-family="sans" text-anchor="end"><tspan x="-3.5999999999999983" dy="16">M3</tspan></text><circle cx="108.0" cy="-18.0" r="2.6999999999999997" style="stroke:black;fill:black;stroke-width:2.0;" /><circle cx="162.0" cy="-18.0" r="2.6999999999999997" style="stroke:black;fill:white;stroke-width:2.0;" /><text x="168.29999999999998" y="-24.4" fill="black" font-size="16" font-family="sans" text-anchor="start"><tspan x="168.29999999999998" dy="16">Vout</tspan></text><text x="129.0" y="-72.4" fill="black" font-size="16" font-family="sans" text-anchor="end"><tspan x="129.0" dy="16">M4</tspan></text><circle cx="54.0" cy="-66.0" r="2.6999999999999997" style="stroke:black;fill:black;stroke-width:2.0;" /></svg>