<svg xmlns="http://www.w3.org/2000/svg" xml:lang="en" height="256.5464pt" width="276.17188634059943pt" viewBox="-103.62959999999998 -90.90639999999998 276.17188634059943 256.5464"><path d="M 0.0,-0.0 L 0.0,45.0 L 77.94228634059947,-0.0 L 0.0,-45.0 L 0.0,-0.0 M 77.94228634059947,-0.0" style="stroke:black;fill:none;stroke-width:2.0;stroke-linecap:round;stroke-linejoin:round;" /><path d="M 6.142785792574934,22.5 L 13.342785792574933,22.5" style="stroke:black;fill:none;stroke-width:2.0;stroke-linecap:round;stroke-linejoin:round;" /><path d="M 6.142785792574934,-22.5 L 13.342785792574933,-22.5" style="stroke:black;fill:none;stroke-width:2.0;stroke-linecap:round;stroke-linejoin:round;" /><path d="M 9.742785792574933,-26.099999999999998 L 9.742785792574933,-18.900000000000002" style="stroke:black;fill:none;stroke-width:2.0;stroke-linecap:round;stroke-linejoin:round;" /><path d="M 0.0,-22.5 L -36.0,-22.500000000000004 L -72.0,-22.500000000000007" style="stroke:black;fill:none;stroke-width:2.0;stroke-linecap:round;stroke-linejoin:round;" /><path d="M 77.94228634059947,-0.0 L 95.94228634059947,-0.0 L 113.94228634059947,-0.0" style="stroke:black;fill:none;stroke-width:2.0;stroke-linecap:round;stroke-linejoin:round;" /><path d="M 146.94228634059948,29.999999999999996 L 146.94228634059948,15.000000000000004 L 131.94228634059948,15.000000000000004 L 131.94228634059948,-14.999999999999998 L 146.94228634059948,-14.999999999999998 L 146.94228634059948,-29.999999999999996" style="stroke:black;fill:none;stroke-width:2.0;stroke-linecap:round;stroke-linejoin:round;" /><path d="M 137.94228634059948,15.0 L 131.94228634059948,15.000000000000004" style="stroke:black;fill:none;stroke-width:2.0;stroke-linecap:round;stroke-linejoin:round;" /><path d="M 144.94228634059948 15.000000000000004 L 137.94228634059948 19.500000000000004 L 137.94228634059948 10.500000000000004 Z" style="stroke:black;fill:black;stroke-linecap:butt;stroke-linejoin:miter;" /><path d="M 128.94228634059945,12.000000000000005 L 128.94228634059945,-12.0" style="stroke:black;fill:none;stroke-width:2.0;stroke-linecap:round;stroke-linejoin:round;" /><path d="M 113.94228634059947,-0.0 L 128.94228634059945,-0.0" style="stroke:black;fill:none;stroke-width:2.0;stroke-linecap:round;stroke-linejoin:round;" /><path d="M 146.94228634059948,29.999999999999996 L 146.94228634059948,48.0 L 146.94228634059948,66.0" style="stroke:black;fill:none;stroke-width:2.0;stroke-linecap:round;stroke-linejoin:round;" /><path d="M 146.94228634059948,66.0 L 146.94228634059948,83.99999999999999 L 155.94228634059948,87.0 L 137.94228634059948,92.99999999999999 L 155.94228634059948,99.0 L 137.94228634059948,105.0 L 155.94228634059948,110.99999999999999 L 137.94228634059945,117.0 L 146.94228634059948,119.99999999999999 L 146.94228634059948,138.0" style="stroke:black;fill:none;stroke-width:2.0;stroke-linecap:round;stroke-linejoin:round;" /><path d="M 146.94228634059948,138.0 L 146.94228634059948,152.4 L 137.94228634059948,152.4 L 155.94228634059948,152.4 M 140.6422863405995,156.72 L 153.24228634059946,156.72 M 145.1422863405995,161.03999999999996 L 148.74228634059946,161.03999999999996" style="stroke:black;fill:none;stroke-width:2.0;stroke-linecap:round;stroke-linejoin:round;" /><path d="M 146.94228634059948,66.0 L 56.94228634059948,65.99999999999999 L -33.05771365940052,65.99999999999997" style="stroke:black;fill:none;stroke-width:2.0;stroke-linecap:round;stroke-linejoin:round;" /><path d="M -33.05771365940052,65.99999999999997 L -33.05771365940052,44.249999999999986 L -33.05771365940051,22.5" style="stroke:black;fill:none;stroke-width:2.0;stroke-linecap:round;stroke-linejoin:round;" /><path d="M -33.05771365940051,22.5 L -16.528856829700256,22.5 L 0.0,22.5" style="stroke:black;fill:none;stroke-width:2.0;stroke-linecap:round;stroke-linejoin:round;" /><path d="M 146.94228634059948,-29.999999999999996 L 146.94228634059948,-48.0 L 146.94228634059948,-66.0" style="stroke:black;fill:none;stroke-width:2.0;stroke-linecap:round;stroke-linejoin:round;" /><g><g><g><path d="M 41.023 -51.96 L 41.023 -51.96 L 36.751 -51.96 L 36.847 -52.44 Q 37.439 -52.44 37.783 -52.6 Q 38.127 -52.76 38.127 -53.352 Q 38.127 -53.544 38.119 -53.712 Q 38.111 -53.88 38.095 -54.024 L 37.935 -55.464 L 33.807 -55.464 L 32.687 -53.768 Q 32.527 -53.544 32.407 -53.32 Q 32.287 -53.096 32.287 -52.872 Q 32.287 -52.616 32.487 -52.528 Q 32.687 -52.44 33.215 -52.44 L 33.103 -51.96 L 29.759 -51.96 L 29.871 -52.44 Q 30.319 -52.44 30.623 -52.584 Q 30.927 -52.728 31.295 -53.168 Q 31.663 -53.608 32.255 -54.52 L 37.791 -62.536 L 38.463 -62.536 L 39.727 -53.864 Q 39.887 -53.08 40.143 -52.76 Q 40.399 -52.44 41.119 -52.44 Z M 37.871 -56.104 L 37.871 -56.104 L 37.343 -60.728 L 37.295 -60.728 L 34.191 -56.104 Z " fill="black" /><path d="M 46.418 -48.6 L 46.418 -48.6 L 42.543 -48.6 L 42.543 -48.914 Q 43.338 -48.914 43.663 -49.082 Q 43.988 -49.25 43.988 -49.664 L 43.988 -54.402 Q 43.988 -54.693 43.91 -54.822 Q 43.831 -54.95 43.618 -54.95 Q 43.45 -54.95 43.092 -54.906 Q 42.734 -54.861 42.476 -54.771 L 42.476 -55.141 L 44.649 -55.757 L 44.974 -55.757 L 44.974 -49.664 Q 44.974 -49.25 45.31 -49.082 Q 45.646 -48.914 46.418 -48.914 Z " fill="black" /></g></g></g><circle cx="-72.0" cy="-22.500000000000007" r="2.6999999999999997" style="stroke:black;fill:white;stroke-width:2.0;" /><g><g><g><path d="M -94.75 -20.98 L -94.75 -20.98 L -90.382 -27.54 Q -90.158 -27.86 -90.022 -28.132 Q -89.886 -28.404 -89.886 -28.596 Q -89.886 -28.836 -90.094 -28.924 Q -90.302 -29.012 -90.846 -29.012 L -90.814 -29.492 L -87.358 -29.492 L -87.39 -29.012 Q -87.822 -29.012 -88.126 -28.884 Q -88.43 -28.756 -88.742 -28.396 Q -89.054 -28.036 -89.55 -27.3 L -95.422 -18.9 L -95.95 -18.9 L -96.846 -27.556 Q -96.942 -28.356 -97.198 -28.684 Q -97.454 -29.012 -98.094 -29.012 L -98.062 -29.492 L -94.142 -29.492 L -94.19 -29.012 Q -94.798 -29.012 -95.15 -28.772 Q -95.502 -28.532 -95.47 -27.988 Q -95.47 -27.908 -95.446 -27.7 Q -95.422 -27.492 -95.422 -27.412 L -94.942 -22.852 L -94.83 -20.98 Z " fill="black" /><path d="M -88.86 -21.018 L -88.86 -21.018 L -88.86 -19.865 L -88.826 -19.865 Q -88.401 -20.492 -88.093 -20.789 Q -87.785 -21.086 -87.382 -21.086 Q -87.057 -21.086 -86.894 -20.918 Q -86.732 -20.75 -86.732 -20.458 Q -86.732 -20.145 -86.883 -19.999 Q -87.034 -19.854 -87.225 -19.854 Q -87.404 -19.854 -87.544 -19.949 Q -87.684 -20.044 -87.785 -20.139 Q -87.886 -20.234 -87.953 -20.234 Q -88.143 -20.234 -88.39 -19.943 Q -88.636 -19.652 -88.838 -19.316 L -88.838 -16.762 Q -88.838 -16.415 -88.748 -16.236 Q -88.658 -16.057 -88.429 -16.001 Q -88.199 -15.945 -87.785 -15.945 L -87.785 -15.62 L -90.585 -15.62 L -90.585 -15.945 Q -90.215 -15.945 -90.042 -16.006 Q -89.868 -16.068 -89.818 -16.23 Q -89.767 -16.393 -89.767 -16.706 L -89.767 -19.786 Q -89.767 -20.089 -89.818 -20.24 Q -89.868 -20.391 -90.17 -20.391 Q -90.338 -20.391 -90.428 -20.38 Q -90.518 -20.369 -90.518 -20.369 L -90.518 -20.682 L -89.129 -21.018 Z " fill="black" /><path d="M -82.006 -17.222 L -82.006 -17.222 L -81.793 -17.065 Q -81.994 -16.639 -82.263 -16.286 Q -82.532 -15.934 -82.918 -15.721 Q -83.305 -15.508 -83.887 -15.508 Q -84.559 -15.508 -85.102 -15.827 Q -85.646 -16.146 -85.959 -16.768 Q -86.273 -17.39 -86.273 -18.286 Q -86.273 -19.226 -85.954 -19.837 Q -85.634 -20.447 -85.097 -20.75 Q -84.559 -21.052 -83.91 -21.052 Q -82.991 -21.052 -82.431 -20.414 Q -81.871 -19.775 -81.826 -18.599 L -85.366 -18.599 Q -85.366 -17.826 -85.114 -17.328 Q -84.862 -16.83 -84.464 -16.589 Q -84.066 -16.348 -83.618 -16.348 Q -83.159 -16.348 -82.874 -16.471 Q -82.588 -16.594 -82.386 -16.79 Q -82.185 -16.986 -82.006 -17.222 Z M -85.377 -19.014 L -85.377 -19.014 L -82.879 -19.014 Q -82.89 -19.428 -83.025 -19.792 Q -83.159 -20.156 -83.417 -20.38 Q -83.674 -20.604 -84.078 -20.604 Q -85.242 -20.604 -85.377 -19.014 Z " fill="black" /><path d="M -81.166 -20.862 L -81.166 -20.862 L -80.314 -20.862 Q -80.314 -21.545 -80.242 -21.976 Q -80.169 -22.407 -79.956 -22.788 Q -79.732 -23.18 -79.39 -23.393 Q -79.049 -23.606 -78.466 -23.606 Q -77.918 -23.606 -77.565 -23.404 Q -77.212 -23.202 -77.212 -22.822 Q -77.212 -22.575 -77.346 -22.458 Q -77.481 -22.34 -77.671 -22.34 Q -77.884 -22.34 -78.018 -22.469 Q -78.153 -22.598 -78.259 -22.766 Q -78.366 -22.934 -78.5 -23.062 Q -78.634 -23.191 -78.847 -23.191 Q -79.161 -23.191 -79.273 -22.906 Q -79.385 -22.62 -79.385 -21.914 L -79.385 -20.862 L -78.018 -20.862 L -78.018 -20.391 L -79.385 -20.391 L -79.385 -16.953 Q -79.385 -16.516 -79.295 -16.303 Q -79.206 -16.09 -78.959 -16.018 Q -78.713 -15.945 -78.242 -15.945 L -78.242 -15.62 L -81.255 -15.62 L -81.255 -15.945 Q -80.841 -15.945 -80.645 -16.018 Q -80.449 -16.09 -80.382 -16.303 Q -80.314 -16.516 -80.314 -16.953 L -80.314 -20.391 L -81.166 -20.391 Z " fill="black" /></g></g></g><g><g><g><path d="M 159.982 3.576 L 159.982 3.576 L 155.71 3.576 L 155.806 3.096 Q 156.398 3.096 156.71 2.984 Q 157.022 2.872 157.182 2.56 Q 157.342 2.248 157.454 1.672 L 158.878 -5.24 L 158.814 -5.24 L 153.438 3.576 L 153.086 3.576 L 151.15 -5.224 L 151.086 -5.224 L 149.758 1.24 Q 149.598 2.056 149.622 2.456 Q 149.646 2.856 149.934 2.976 Q 150.222 3.096 150.83 3.096 L 150.734 3.576 L 147.038 3.576 L 147.134 3.096 Q 147.758 3.096 148.094 2.976 Q 148.43 2.856 148.622 2.456 Q 148.814 2.056 148.974 1.24 L 150.238 -4.984 Q 150.366 -5.592 150.318 -5.904 Q 150.27 -6.216 149.974 -6.336 Q 149.678 -6.456 149.038 -6.456 L 149.134 -6.936 L 152.334 -6.936 L 154.062 1.16 L 154.126 1.16 L 159.006 -6.936 L 162.03 -6.936 L 161.934 -6.456 Q 161.374 -6.456 161.046 -6.336 Q 160.718 -6.216 160.542 -5.904 Q 160.366 -5.592 160.238 -5 L 158.878 1.672 Q 158.702 2.552 158.966 2.824 Q 159.23 3.096 160.078 3.096 Z " fill="black" /><path d="M 166.801 6.936 L 166.801 6.936 L 162.926 6.936 L 162.926 6.622 Q 163.721 6.622 164.046 6.454 Q 164.371 6.286 164.371 5.872 L 164.371 1.134 Q 164.371 0.843 164.293 0.714 Q 164.214 0.586 164.001 0.586 Q 163.833 0.586 163.475 0.63 Q 163.117 0.675 162.859 0.765 L 162.859 0.395 L 165.032 -0.221 L 165.357 -0.221 L 165.357 5.872 Q 165.357 6.286 165.693 6.454 Q 166.029 6.622 166.801 6.622 Z " fill="black" /></g></g></g><g><g><g><path d="M 127.598 97.272 L 127.598 97.272 Q 127.598 98.12 127.278 98.696 Q 126.958 99.272 126.446 99.64 Q 125.934 100.008 125.35 100.208 Q 124.766 100.408 124.238 100.504 L 124.238 100.584 Q 124.526 100.776 124.782 101.168 Q 125.038 101.56 125.414 102.296 Q 125.79 103.032 126.446 104.28 Q 126.718 104.76 127.046 104.928 Q 127.374 105.096 127.918 105.096 L 127.822 105.576 L 125.39 105.576 Q 124.942 104.584 124.638 103.92 Q 124.334 103.256 124.11 102.808 Q 123.886 102.36 123.718 102.008 Q 123.55 101.656 123.358 101.288 Q 123.182 100.952 122.974 100.848 Q 122.766 100.744 122.334 100.744 L 121.998 100.744 L 121.406 103.592 Q 121.278 104.248 121.318 104.576 Q 121.358 104.904 121.678 105 Q 121.998 105.096 122.686 105.096 L 122.606 105.576 L 118.19 105.576 L 118.286 105.096 Q 118.878 105.096 119.198 105 Q 119.518 104.904 119.686 104.584 Q 119.854 104.264 119.982 103.592 L 121.39 96.728 Q 121.486 96.28 121.438 96.024 Q 121.39 95.768 121.11 95.656 Q 120.83 95.544 120.19 95.544 L 120.286 95.064 L 124.046 95.064 Q 125.726 95.064 126.662 95.584 Q 127.598 96.104 127.598 97.272 Z M 123.006 95.736 L 123.006 95.736 L 122.11 100.152 L 122.606 100.168 Q 123.566 100.136 124.342 99.856 Q 125.118 99.576 125.566 98.968 Q 126.014 98.36 126.014 97.336 Q 126.014 96.904 125.83 96.528 Q 125.646 96.152 125.198 95.92 Q 124.75 95.688 123.95 95.688 Q 123.646 95.688 123.462 95.696 Q 123.278 95.704 123.006 95.736 Z " fill="black" /><path d="M 133.425 108.936 L 133.425 108.936 L 129.55 108.936 L 129.55 108.622 Q 130.345 108.622 130.67 108.454 Q 130.995 108.286 130.995 107.872 L 130.995 103.134 Q 130.995 102.843 130.917 102.714 Q 130.838 102.586 130.625 102.586 Q 130.457 102.586 130.099 102.63 Q 129.741 102.675 129.483 102.765 L 129.483 102.395 L 131.656 101.779 L 131.981 101.779 L 131.981 107.872 Q 131.981 108.286 132.317 108.454 Q 132.653 108.622 133.425 108.622 Z " fill="black" /></g></g></g><circle cx="146.94228634059948" cy="66.0" r="2.6999999999999997" style="stroke:black;fill:black;stroke-width:2.0;" /><circle cx="146.94228634059948" cy="-66.0" r="2.6999999999999997" style="stroke:black;fill:white;stroke-width:2.0;" /><g><g><g><path d="M 136.027 -77.879 L 136.027 -77.879 L 137.339 -84.183 Q 137.483 -84.807 137.475 -85.167 Q 137.467 -85.527 137.179 -85.671 Q 136.891 -85.815 136.155 -85.815 L 136.251 -86.295 L 140.683 -86.295 L 140.587 -85.815 Q 139.883 -85.815 139.531 -85.671 Q 139.179 -85.527 139.035 -85.167 Q 138.891 -84.807 138.763 -84.183 L 137.451 -77.815 Q 137.403 -77.559 137.371 -77.351 Q 137.339 -77.143 137.339 -76.967 Q 137.339 -76.519 137.603 -76.391 Q 137.867 -76.263 138.619 -76.263 L 138.523 -75.783 L 134.155 -75.783 L 134.251 -76.263 Q 134.907 -76.263 135.235 -76.375 Q 135.563 -76.487 135.723 -76.831 Q 135.883 -77.175 136.027 -77.879 Z " fill="black" /><path d="M 142.509 -80.33 L 142.509 -80.33 L 142.509 -76.903 L 142.542 -76.903 Q 142.833 -77.262 143.27 -77.558 Q 143.707 -77.855 144.267 -77.855 Q 144.827 -77.855 145.247 -77.536 Q 145.667 -77.217 145.902 -76.657 Q 146.137 -76.097 146.137 -75.369 Q 146.137 -74.372 145.79 -73.689 Q 145.443 -73.006 144.838 -72.658 Q 144.233 -72.311 143.449 -72.311 Q 142.733 -72.311 142.257 -72.479 Q 141.781 -72.647 141.579 -72.759 L 141.579 -79.054 Q 141.579 -79.434 141.495 -79.541 Q 141.411 -79.647 141.086 -79.647 Q 140.952 -79.647 140.862 -79.636 Q 140.773 -79.625 140.773 -79.625 L 140.773 -79.938 L 142.217 -80.33 Z M 142.509 -76.41 L 142.509 -76.41 L 142.509 -73.297 Q 142.665 -73.106 142.934 -72.938 Q 143.203 -72.77 143.651 -72.77 Q 144.189 -72.77 144.508 -73.073 Q 144.827 -73.375 144.973 -73.885 Q 145.118 -74.394 145.118 -75.01 Q 145.118 -75.548 145.006 -76.024 Q 144.894 -76.5 144.603 -76.797 Q 144.312 -77.094 143.774 -77.094 Q 143.349 -77.094 143.007 -76.853 Q 142.665 -76.612 142.509 -76.41 Z " fill="black" /><path d="M 149.408 -72.737 L 149.408 -72.737 L 149.408 -72.423 L 146.888 -72.423 L 146.888 -72.737 Q 147.269 -72.737 147.431 -72.81 Q 147.593 -72.882 147.633 -73.062 Q 147.672 -73.241 147.672 -73.554 L 147.672 -76.679 Q 147.672 -77.038 147.549 -77.122 Q 147.425 -77.206 147.179 -77.206 Q 147.067 -77.206 146.983 -77.194 Q 146.899 -77.183 146.899 -77.183 L 146.899 -77.508 L 148.31 -77.822 L 148.601 -77.822 L 148.601 -73.554 Q 148.601 -73.23 148.646 -73.05 Q 148.691 -72.871 148.865 -72.804 Q 149.038 -72.737 149.408 -72.737 Z M 148.153 -79.961 L 148.153 -79.961 Q 148.445 -79.961 148.618 -79.776 Q 148.792 -79.591 148.792 -79.334 Q 148.792 -79.076 148.618 -78.886 Q 148.445 -78.695 148.153 -78.695 Q 147.873 -78.695 147.694 -78.886 Q 147.515 -79.076 147.515 -79.334 Q 147.515 -79.591 147.689 -79.776 Q 147.862 -79.961 148.153 -79.961 Z " fill="black" /><path d="M 153.171 -73.118 L 153.171 -73.118 L 153.126 -73.118 Q 152.734 -72.77 152.376 -72.558 Q 152.017 -72.345 151.48 -72.345 Q 150.83 -72.345 150.489 -72.703 Q 150.147 -73.062 150.147 -73.599 Q 150.147 -74.047 150.354 -74.355 Q 150.561 -74.663 150.903 -74.876 Q 151.245 -75.089 151.642 -75.234 Q 152.04 -75.38 152.421 -75.481 Q 152.801 -75.582 153.093 -75.671 L 153.093 -76.164 Q 153.093 -76.892 152.841 -77.2 Q 152.589 -77.508 152.085 -77.508 Q 151.603 -77.508 151.469 -77.306 Q 151.334 -77.105 151.334 -76.601 Q 151.334 -76.086 150.841 -76.086 Q 150.673 -76.086 150.522 -76.214 Q 150.371 -76.343 150.371 -76.623 Q 150.371 -76.937 150.612 -77.217 Q 150.853 -77.497 151.295 -77.676 Q 151.737 -77.855 152.342 -77.855 Q 153.261 -77.855 153.641 -77.43 Q 154.022 -77.004 154.022 -76.13 L 154.022 -73.588 Q 154.022 -73.241 154.101 -73.14 Q 154.179 -73.039 154.358 -73.039 Q 154.515 -73.039 154.644 -73.118 Q 154.773 -73.196 154.885 -73.319 L 155.053 -73.14 Q 154.773 -72.737 154.521 -72.552 Q 154.269 -72.367 153.843 -72.367 Q 153.473 -72.367 153.35 -72.558 Q 153.227 -72.748 153.171 -73.118 Z M 153.093 -73.454 L 153.093 -73.454 L 153.093 -75.302 Q 152.589 -75.178 152.141 -75.01 Q 151.693 -74.842 151.413 -74.574 Q 151.133 -74.305 151.133 -73.868 Q 151.133 -73.454 151.357 -73.207 Q 151.581 -72.961 151.939 -72.961 Q 152.499 -72.961 153.093 -73.454 Z " fill="black" /><path d="M 155.534 -74.26 L 155.534 -74.26 L 155.825 -74.26 Q 156.005 -73.398 156.352 -73.056 Q 156.699 -72.714 157.315 -72.714 Q 157.741 -72.714 158.009 -72.888 Q 158.278 -73.062 158.278 -73.454 Q 158.278 -73.722 158.183 -73.902 Q 158.088 -74.081 157.819 -74.266 Q 157.55 -74.45 157.024 -74.708 Q 156.262 -75.1 155.904 -75.464 Q 155.545 -75.828 155.545 -76.444 Q 155.545 -77.138 156.044 -77.497 Q 156.542 -77.855 157.259 -77.855 Q 157.685 -77.855 157.953 -77.76 Q 158.222 -77.665 158.435 -77.564 L 158.446 -77.564 L 158.637 -77.799 L 158.861 -77.799 L 158.894 -76.086 L 158.592 -76.086 Q 158.413 -76.881 158.088 -77.178 Q 157.763 -77.474 157.248 -77.474 Q 156.867 -77.474 156.604 -77.295 Q 156.341 -77.116 156.341 -76.735 Q 156.341 -76.41 156.643 -76.153 Q 156.945 -75.895 157.651 -75.537 Q 158.413 -75.134 158.816 -74.758 Q 159.219 -74.383 159.219 -73.756 Q 159.219 -73.23 158.961 -72.91 Q 158.704 -72.591 158.273 -72.446 Q 157.841 -72.3 157.337 -72.3 Q 156.856 -72.3 156.57 -72.401 Q 156.285 -72.502 156.061 -72.591 L 156.038 -72.591 L 155.803 -72.334 L 155.568 -72.334 Z " fill="black" /></g></g></g></svg>