<svg xmlns="http://www.w3.org/2000/svg" xml:lang="en" height="109.64pt" width="439.64000000000004pt" viewBox="-93.03999999999999 -82.0 439.64000000000004 109.64"><circle cx="108.0" cy="-36.0" r="18.0" style="stroke:black;fill:none;stroke-width:2.0;" /><circle cx="324.0" cy="-36.0" r="18.0" style="stroke:black;fill:none;stroke-width:2.0;" /><path d="M 0.0,-0.0 L 2.0059714570033646e-15,-32.76 M -8.999999999999998,-32.76 L 9.000000000000002,-32.76 M -8.999999999999998,-39.24 L 9.000000000000002,-39.24 M 2.402757019927107e-15,-39.24 L 4.408728476930472e-15,-72.0" style="stroke:black;fill:none;stroke-width:2.0;stroke-linecap:round;stroke-linejoin:round;" /><path d="M 4.408728476930472e-15,-72.0 L 54.00000000000001,-72.0 L 108.0,-72.0" style="stroke:black;fill:none;stroke-width:2.0;stroke-linecap:round;stroke-linejoin:round;" /><path d="M 108.0,-72.0 L 108.0,-54.0 L 108.0,-54.0 M 107.99999999999999,-18.0 L 107.99999999999999,-18.0 L 107.99999999999999,-0.0" style="stroke:black;fill:none;stroke-width:2.0;stroke-linecap:round;stroke-linejoin:round;" /><path d="M 108.0,-45.0 L 107.99999999999999,-36.0" style="stroke:black;fill:none;stroke-width:2.0;stroke-linecap:round;stroke-linejoin:round;" /><path d="M 107.99999999999999 -29.0 L 105.3 -36.0 L 110.69999999999999 -36.0 Z" style="stroke:black;fill:black;stroke-linecap:butt;stroke-linejoin:miter;" /><path d="M 107.99999999999999,-0.0 L 107.99999999999999,14.4 L 98.99999999999999,14.4 L 116.99999999999999,14.4 M 101.69999999999999,18.72 L 114.29999999999998,18.72 M 106.19999999999999,23.04 L 109.79999999999998,23.04" style="stroke:black;fill:none;stroke-width:2.0;stroke-linecap:round;stroke-linejoin:round;" /><path d="M 107.99999999999999,-0.0 L 53.999999999999986,-6.613092715395707e-15 L -1.5987211554602254e-14,-1.3226185430791413e-14" style="stroke:black;fill:none;stroke-width:2.0;stroke-linecap:round;stroke-linejoin:round;" /><path d="M 107.99999999999999,-0.0 L 162.0,-0.0 L 216.0,-0.0" style="stroke:black;fill:none;stroke-width:2.0;stroke-linecap:round;stroke-linejoin:round;" /><path d="M 216.0,-0.0 L 216.0,-18.0 L 207.0,-21.0 L 225.0,-27.0 L 207.0,-33.0 L 225.0,-39.0 L 207.0,-45.0 L 225.0,-50.99999999999999 L 216.0,-54.0 L 216.0,-72.0" style="stroke:black;fill:none;stroke-width:2.0;stroke-linecap:round;stroke-linejoin:round;" /><path d="M 216.0,-72.0 L 162.0,-72.0 L 108.0,-72.00000000000001" style="stroke:black;fill:none;stroke-width:2.0;stroke-linecap:round;stroke-linejoin:round;" /><path d="M 216.0,-72.0 L 270.0,-72.0 L 324.0,-72.0" style="stroke:black;fill:none;stroke-width:2.0;stroke-linecap:round;stroke-linejoin:round;" /><path d="M 324.0,-72.0 L 324.0,-54.0 L 324.0,-54.0 M 324.0,-18.0 L 324.0,-18.0 L 324.0,-0.0" style="stroke:black;fill:none;stroke-width:2.0;stroke-linecap:round;stroke-linejoin:round;" /><path d="M 315.0,-36.0 L 315.75,-34.13650287526184 L 316.5,-32.4 L 317.25,-30.908831175456854 L 318.0,-29.764617092752044 L 318.75,-29.04533405071871 L 319.5,-28.8 L 320.25,-29.0453340507187 L 321.0,-29.764617092752044 L 321.75,-30.90883117545686 L 322.5,-32.4 L 323.25,-34.136502875261854 L 324.0,-36.0 L 324.75,-37.863497124738146 L 325.5,-39.599999999999994 L 326.25,-41.091168824543146 L 327.0,-42.23538290724795 L 327.75,-42.95466594928129 L 328.5,-43.199999999999996 L 329.25,-42.9546659492813 L 330.0,-42.23538290724795 L 330.75,-41.09116882454314 L 331.5,-39.6 L 332.25,-37.863497124738146 L 333.0,-36.0" style="stroke:black;fill:none;stroke-width:2.0;stroke-linecap:round;stroke-linejoin:round;" /><path d="M 324.0,-0.0 L 270.0,-6.613092715395707e-15 L 216.0,-1.3226185430791413e-14" style="stroke:black;fill:none;stroke-width:2.0;stroke-linecap:round;stroke-linejoin:round;" /><path d="M -53.99999999999999,-72.0 L -54.0,-36.0 L -54.00000000000001,-9.0" style="stroke:black;fill:none;stroke-width:2.0;stroke-linecap:round;stroke-linejoin:round;" /><path d="M -54.00000000000001 -2.0 L -56.7 -9.0 L -51.300000000000004 -9.0 Z" style="stroke:black;fill:black;stroke-linecap:butt;stroke-linejoin:miter;" /><text x="-12.599999999999998" y="-42.400000000000006" fill="black" font-size="16" font-family="sans" text-anchor="end"><tspan x="-12.599999999999998" dy="16">Cgs</tspan></text><circle cx="108.0" cy="-72.0" r="2.6999999999999997" style="stroke:black;fill:black;stroke-width:2.0;" /><circle cx="107.99999999999999" cy="-0.0" r="2.6999999999999997" style="stroke:black;fill:black;stroke-width:2.0;" /><text x="86.39999999999999" y="-41.05" fill="black" font-size="16" font-family="sans" text-anchor="end"><tspan x="86.39999999999999" dy="16">gm vgs</tspan></text><circle cx="216.0" cy="-0.0" r="2.6999999999999997" style="stroke:black;fill:black;stroke-width:2.0;" /><circle cx="216.0" cy="-72.0" r="2.6999999999999997" style="stroke:black;fill:black;stroke-width:2.0;" /><text x="203.4" y="-43.75" fill="black" font-size="16" font-family="sans" text-anchor="end"><tspan x="203.4" dy="16">gds</tspan></text><text x="302.40000000000003" y="-42.400000000000006" fill="black" font-size="16" font-family="sans" text-anchor="end"><tspan x="302.40000000000003" dy="16">In,d2</tspan></text><text x="-63.0" y="-42.400000000000006" fill="black" font-size="16" font-family="sans" text-anchor="end"><tspan x="-63.0" dy="16">vgs</tspan></text></svg>