<svg xmlns="http://www.w3.org/2000/svg" xml:lang="en" height="250.63999999999996pt" width="101.6248pt" viewBox="-76.7272 -19.0 101.6248 250.63999999999996"><path d="M 0.0,-0.0 L 0.0,-14.4" style="stroke:black;fill:none;stroke-width:2.0;stroke-dasharray:-;stroke-linecap:round;stroke-linejoin:round;" /><path d="M 0.0,-14.4 L -6.75,-14.4" style="stroke:black;fill:none;stroke-width:2.0;stroke-dasharray:-;stroke-linecap:round;stroke-linejoin:round;" /><path d="M 0.0,-14.4 L 6.75,-14.4" style="stroke:black;fill:none;stroke-width:2.0;stroke-dasharray:-;stroke-linecap:round;stroke-linejoin:round;" /><path d="M 0.0,-0.0 L -3.3065463576978533e-15,18.0 L 8.999999999999996,21.0 L -9.000000000000004,27.0 L 8.999999999999995,33.0 L -9.000000000000007,39.0 L 8.999999999999993,45.0 L -9.00000000000001,50.99999999999999 L -9.919639073093561e-15,54.0 L -1.3226185430791413e-14,72.0" style="stroke:black;fill:none;stroke-width:2.0;stroke-dasharray:-;stroke-linecap:round;stroke-linejoin:round;" /><path d="M -1.3226185430791413e-14,132.0 L -1.3226185430791413e-14,117.0 L -15.000000000000012,117.0 L -15.000000000000012,87.0 L -1.3226185430791413e-14,87.0 L -1.3226185430791413e-14,72.0" style="stroke:black;fill:none;stroke-width:2.0;stroke-dasharray:-;stroke-linecap:round;stroke-linejoin:round;" /><path d="M -9.000000000000014,117.0 L -15.000000000000012,117.0" style="stroke:black;fill:none;stroke-width:2.0;stroke-dasharray:-;stroke-linecap:round;stroke-linejoin:round;" /><path d="M -2.0000000000000133 117.0 L -9.000000000000014 121.5 L -9.000000000000014 112.5 Z" style="stroke:black;fill:black;stroke-linecap:butt;stroke-linejoin:miter;" /><path d="M -18.00000000000001,114.00000000000001 L -18.00000000000001,90.0" style="stroke:black;fill:none;stroke-width:2.0;stroke-dasharray:-;stroke-linecap:round;stroke-linejoin:round;" /><path d="M -33.00000000000001,101.99999999999999 L -18.00000000000001,101.99999999999999" style="stroke:black;fill:none;stroke-width:2.0;stroke-dasharray:-;stroke-linecap:round;stroke-linejoin:round;" /><path d="M -1.3226185430791413e-14,132.0 L -1.6532731788489267e-14,149.99999999999997 L 8.999999999999982,153.0 L -9.000000000000018,158.99999999999997 L 8.99999999999998,165.0 L -9.000000000000021,171.0 L 8.999999999999979,176.99999999999997 L -9.000000000000025,183.0 L -2.3145824503884975e-14,185.99999999999997 L -2.6452370861582827e-14,203.99999999999997" style="stroke:black;fill:none;stroke-width:2.0;stroke-dasharray:-;stroke-linecap:round;stroke-linejoin:round;" /><path d="M -2.6452370861582827e-14,203.99999999999997 L -2.6452370861582827e-14,218.39999999999998 L -9.000000000000027,218.39999999999998 L 8.999999999999973,218.39999999999998 M -6.300000000000026,222.71999999999997 L 6.299999999999974,222.71999999999997 M -1.8000000000000265,227.03999999999996 L 1.7999999999999736,227.03999999999996" style="stroke:black;fill:none;stroke-width:2.0;stroke-dasharray:-;stroke-linecap:round;stroke-linejoin:round;" /><path d="M -33.00000000000001,101.99999999999999 L -42.000000000000014,101.99999999999999 L -51.000000000000014,101.99999999999999" style="stroke:black;fill:none;stroke-width:2.0;stroke-dasharray:-;stroke-linecap:round;stroke-linejoin:round;" /><g><g><g><path d="M -21.71 34.736 L -21.71 34.736 L -21.79 35.232 Q -22.238 35.232 -22.494 35.328 Q -22.75 35.424 -22.878 35.688 Q -23.006 35.952 -23.102 36.448 L -23.582 38.768 Q -24.558 39.264 -25.462 39.56 Q -26.366 39.856 -27.646 39.856 Q -28.798 39.856 -29.574 39.536 Q -30.35 39.216 -30.806 38.664 Q -31.262 38.112 -31.462 37.408 Q -31.662 36.704 -31.662 35.936 Q -31.662 34.208 -31.126 32.896 Q -30.59 31.584 -29.686 30.712 Q -28.782 29.84 -27.646 29.4 Q -26.51 28.96 -25.31 28.96 Q -24.462 28.96 -23.99 29.104 Q -23.518 29.248 -23.262 29.4 Q -23.006 29.552 -22.798 29.552 Q -22.622 29.552 -22.478 29.392 Q -22.334 29.232 -22.142 28.976 L -21.694 28.976 L -22.43 32.64 L -22.958 32.64 Q -22.91 31.04 -23.566 30.344 Q -24.222 29.648 -25.454 29.648 Q -26.67 29.648 -27.718 30.36 Q -28.766 31.072 -29.398 32.392 Q -30.03 33.712 -30.046 35.552 Q -30.046 37.328 -29.382 38.24 Q -28.718 39.152 -27.262 39.152 Q -26.526 39.152 -25.966 38.928 Q -25.406 38.704 -24.878 38.352 L -24.542 36.608 Q -24.414 36.032 -24.454 35.736 Q -24.494 35.44 -24.766 35.336 Q -25.038 35.232 -25.646 35.232 L -25.55 34.736 Z " fill="black" /><path d="M -20.299 35.166 L -20.299 35.166 L -16.906 35.166 Q -16.01 35.166 -15.192 35.362 Q -14.374 35.558 -13.73 36.006 Q -13.086 36.454 -12.711 37.205 Q -12.336 37.955 -12.336 39.075 Q -12.336 40.128 -12.678 40.884 Q -13.019 41.64 -13.635 42.116 Q -14.251 42.592 -15.069 42.816 Q -15.886 43.04 -16.838 43.04 L -20.299 43.04 L -20.299 42.614 Q -19.773 42.614 -19.526 42.536 Q -19.28 42.458 -19.207 42.217 Q -19.134 41.976 -19.134 41.483 L -19.134 36.622 Q -19.134 36.163 -19.241 35.945 Q -19.347 35.726 -19.599 35.659 Q -19.851 35.592 -20.299 35.592 Z M -17.936 35.726 L -17.936 35.726 L -17.936 42.502 Q -17.757 42.514 -17.583 42.519 Q -17.41 42.525 -17.242 42.525 Q -16.133 42.525 -15.354 42.234 Q -14.576 41.942 -14.167 41.214 Q -13.758 40.486 -13.758 39.176 Q -13.758 37.496 -14.615 36.606 Q -15.472 35.715 -17.331 35.715 Q -17.488 35.715 -17.634 35.715 Q -17.779 35.715 -17.936 35.726 Z " fill="black" /></g></g></g><g><g><g><path d="M 16.544 105.576 L 16.544 105.576 L 12.272 105.576 L 12.368 105.096 Q 12.96 105.096 13.272 104.984 Q 13.584 104.872 13.744 104.56 Q 13.904 104.248 14.016 103.672 L 15.44 96.76 L 15.376 96.76 L 10 105.576 L 9.648 105.576 L 7.712 96.776 L 7.648 96.776 L 6.32 103.24 Q 6.16 104.056 6.184 104.456 Q 6.208 104.856 6.496 104.976 Q 6.784 105.096 7.392 105.096 L 7.296 105.576 L 3.6 105.576 L 3.696 105.096 Q 4.32 105.096 4.656 104.976 Q 4.992 104.856 5.184 104.456 Q 5.376 104.056 5.536 103.24 L 6.8 97.016 Q 6.928 96.408 6.88 96.096 Q 6.832 95.784 6.536 95.664 Q 6.24 95.544 5.6 95.544 L 5.696 95.064 L 8.896 95.064 L 10.624 103.16 L 10.688 103.16 L 15.568 95.064 L 18.592 95.064 L 18.496 95.544 Q 17.936 95.544 17.608 95.664 Q 17.28 95.784 17.104 96.096 Q 16.928 96.408 16.8 97 L 15.44 103.672 Q 15.264 104.552 15.528 104.824 Q 15.792 105.096 16.64 105.096 Z " fill="black" /><path d="M 23.43 108.936 L 23.43 108.936 L 19.634 108.936 L 19.634 108.533 Q 20.44 108.533 20.703 108.37 Q 20.966 108.208 20.966 107.782 L 20.966 102.899 Q 20.966 102.597 20.877 102.462 Q 20.787 102.328 20.552 102.328 Q 20.373 102.328 20.065 102.378 Q 19.757 102.429 19.533 102.485 L 19.533 102.037 L 21.605 101.466 L 22.086 101.466 L 22.086 107.782 Q 22.086 108.208 22.372 108.37 Q 22.658 108.533 23.43 108.533 Z " fill="black" /></g></g></g><g><g><g><path d="M -19.157 166.646 L -19.157 166.646 L -19.237 167.142 Q -19.685 167.142 -19.941 167.238 Q -20.197 167.334 -20.325 167.598 Q -20.453 167.862 -20.549 168.358 L -21.029 170.678 Q -22.005 171.174 -22.909 171.47 Q -23.813 171.766 -25.093 171.766 Q -26.245 171.766 -27.021 171.446 Q -27.797 171.126 -28.253 170.574 Q -28.709 170.022 -28.909 169.318 Q -29.109 168.614 -29.109 167.846 Q -29.109 166.118 -28.573 164.806 Q -28.037 163.494 -27.133 162.622 Q -26.229 161.75 -25.093 161.31 Q -23.957 160.87 -22.757 160.87 Q -21.909 160.87 -21.437 161.014 Q -20.965 161.158 -20.709 161.31 Q -20.453 161.462 -20.245 161.462 Q -20.069 161.462 -19.925 161.302 Q -19.781 161.142 -19.589 160.886 L -19.141 160.886 L -19.877 164.55 L -20.405 164.55 Q -20.357 162.95 -21.013 162.254 Q -21.669 161.558 -22.901 161.558 Q -24.117 161.558 -25.165 162.27 Q -26.213 162.982 -26.845 164.302 Q -27.477 165.622 -27.493 167.462 Q -27.493 169.238 -26.829 170.15 Q -26.165 171.062 -24.709 171.062 Q -23.973 171.062 -23.413 170.838 Q -22.853 170.614 -22.325 170.262 L -21.989 168.518 Q -21.861 167.942 -21.901 167.646 Q -21.941 167.35 -22.213 167.246 Q -22.485 167.142 -23.093 167.142 L -22.997 166.646 Z " fill="black" /><path d="M -12.638 169.362 L -12.638 169.362 L -13.075 169.362 Q -13.232 168.779 -13.462 168.359 Q -13.691 167.939 -14.072 167.704 Q -14.453 167.469 -15.069 167.469 Q -15.651 167.469 -15.998 167.76 Q -16.346 168.051 -16.346 168.578 Q -16.346 169.048 -16.049 169.378 Q -15.752 169.709 -15.287 169.972 Q -14.822 170.235 -14.296 170.498 Q -13.77 170.762 -13.305 171.086 Q -12.84 171.411 -12.543 171.859 Q -12.246 172.307 -12.246 172.957 Q -12.246 173.651 -12.571 174.133 Q -12.896 174.614 -13.456 174.861 Q -14.016 175.107 -14.722 175.107 Q -15.36 175.107 -15.758 175.018 Q -16.155 174.928 -16.39 174.838 Q -16.626 174.749 -16.782 174.749 Q -16.917 174.749 -17.012 174.844 Q -17.107 174.939 -17.118 175.13 L -17.611 175.13 L -17.611 172.453 L -17.174 172.453 Q -16.962 173.237 -16.698 173.685 Q -16.435 174.133 -16.021 174.318 Q -15.606 174.502 -14.957 174.502 Q -14.285 174.502 -13.882 174.239 Q -13.478 173.976 -13.478 173.27 Q -13.478 172.789 -13.764 172.453 Q -14.05 172.117 -14.503 171.854 Q -14.957 171.59 -15.466 171.333 Q -15.976 171.075 -16.43 170.762 Q -16.883 170.448 -17.169 170.006 Q -17.454 169.563 -17.454 168.925 Q -17.454 168.275 -17.13 167.833 Q -16.805 167.39 -16.273 167.166 Q -15.741 166.942 -15.125 166.942 Q -14.565 166.942 -14.246 167.038 Q -13.926 167.133 -13.747 167.228 Q -13.568 167.323 -13.445 167.323 Q -13.277 167.323 -13.193 167.25 Q -13.109 167.178 -13.064 166.976 L -12.638 166.976 Z " fill="black" /></g></g></g><circle cx="-51.000000000000014" cy="101.99999999999999" r="2.6999999999999997" style="stroke:black;fill:white;stroke-width:2.0;stroke-dasharray:-;" /><g><g><g><path d="M -69.489 103.576 L -69.489 103.576 L -65.121 97.016 Q -64.897 96.696 -64.761 96.424 Q -64.625 96.152 -64.625 95.96 Q -64.625 95.72 -64.833 95.632 Q -65.041 95.544 -65.585 95.544 L -65.553 95.064 L -62.097 95.064 L -62.129 95.544 Q -62.561 95.544 -62.865 95.672 Q -63.169 95.8 -63.481 96.16 Q -63.793 96.52 -64.289 97.256 L -70.161 105.656 L -70.689 105.656 L -71.585 97 Q -71.681 96.2 -71.937 95.872 Q -72.193 95.544 -72.833 95.544 L -72.801 95.064 L -68.881 95.064 L -68.929 95.544 Q -69.537 95.544 -69.889 95.784 Q -70.241 96.024 -70.209 96.568 Q -70.209 96.648 -70.185 96.856 Q -70.161 97.064 -70.161 97.144 L -69.681 101.704 L -69.569 103.576 Z " fill="black" /><path d="M -58.743 104.747 L -58.743 104.747 L -58.743 104.814 Q -58.217 104.893 -57.735 105.122 Q -57.254 105.352 -56.94 105.766 Q -56.626 106.181 -56.626 106.819 Q -56.626 107.85 -57.41 108.393 Q -58.194 108.936 -59.516 108.936 L -63.38 108.936 L -63.38 108.51 Q -62.876 108.51 -62.635 108.426 Q -62.394 108.342 -62.322 108.085 Q -62.249 107.827 -62.249 107.323 L -62.249 102.597 Q -62.249 102.104 -62.327 101.869 Q -62.406 101.634 -62.646 101.561 Q -62.887 101.488 -63.38 101.488 L -63.38 101.062 L -60.121 101.062 Q -58.486 101.062 -57.763 101.572 Q -57.041 102.082 -57.041 103.011 Q -57.041 103.773 -57.511 104.159 Q -57.982 104.546 -58.743 104.747 Z M -61.073 105.162 L -61.073 105.162 L -61.073 108.41 Q -60.838 108.421 -60.608 108.421 Q -60.378 108.421 -60.154 108.421 Q -59.796 108.421 -59.415 108.382 Q -59.034 108.342 -58.71 108.191 Q -58.385 108.04 -58.189 107.715 Q -57.993 107.39 -57.993 106.83 Q -57.993 106.181 -58.301 105.822 Q -58.609 105.464 -59.107 105.313 Q -59.606 105.162 -60.177 105.162 Z M -61.073 104.579 L -61.073 104.579 L -60.177 104.579 Q -59.124 104.579 -58.715 104.21 Q -58.306 103.84 -58.306 103.09 Q -58.306 102.317 -58.794 101.958 Q -59.281 101.6 -60.345 101.6 Q -60.524 101.6 -60.703 101.606 Q -60.882 101.611 -61.073 101.622 Z " fill="black" /></g></g></g></svg>