<svg xmlns="http://www.w3.org/2000/svg" xml:lang="en" height="62.8064pt" width="158.60000000000002pt" viewBox="-115.30000000000001 -40.2064 158.60000000000002 62.8064"><circle cx="-36.0" cy="-4.408728476930472e-15" r="18.0" style="stroke:black;fill:none;stroke-width:2.0;" /><path d="M 0.0,-0.0 L -18.0,-2.204364238465236e-15 L -18.0,-2.204364238465236e-15 M -54.0,-6.613092715395707e-15 L -54.0,-6.613092715395707e-15 L -72.0,-8.817456953860943e-15" style="stroke:black;fill:none;stroke-width:2.0;stroke-linecap:round;stroke-linejoin:round;" /><path d="M -27.0,-3.6000000000000036 L -27.0,3.5999999999999965" style="stroke:black;fill:none;stroke-width:2.0;stroke-linecap:round;stroke-linejoin:round;" /><path d="M -41.4,-5.0700377484700416e-15 L -48.6,-5.951783443856137e-15" style="stroke:black;fill:none;stroke-width:2.0;stroke-linecap:round;stroke-linejoin:round;" /><path d="M -45.0,-3.600000000000006 L -45.0,3.5999999999999948" style="stroke:black;fill:none;stroke-width:2.0;stroke-linecap:round;stroke-linejoin:round;" /><path d="M -72.0,-8.817456953860943e-15 L -90.0,-1.1021821192326179e-14 L -108.0,-1.3226185430791413e-14" style="stroke:black;fill:none;stroke-width:2.0;stroke-linecap:round;stroke-linejoin:round;" /><path d="M 0.0,-0.0 L 18.0,-0.0 L 36.0,-0.0" style="stroke:black;fill:none;stroke-width:2.0;stroke-linecap:round;stroke-linejoin:round;" /><g><g><g><symbol id="STIXTwoMathRegular_3321" width="8.868" height="51.216" viewBox="0 -31.524 8.868 51.216"><path d="M 3.324 -1.5 L 3.324 -1.5 L 6.6 -6.42 Q 6.768 -6.66 6.87 -6.864 Q 6.972 -7.068 6.972 -7.212 Q 6.972 -7.392 6.816 -7.458 Q 6.66 -7.524 6.252 -7.524 L 6.276 -7.884 L 8.868 -7.884 L 8.844 -7.524 Q 8.52 -7.524 8.292 -7.428 Q 8.064 -7.332 7.83 -7.062 Q 7.596 -6.792 7.224 -6.24 L 2.82 0.06 L 2.424 0.06 L 1.752 -6.432 Q 1.68 -7.032 1.488 -7.278 Q 1.296 -7.524 0.816 -7.524 L 0.84 -7.884 L 3.78 -7.884 L 3.744 -7.524 Q 3.288 -7.524 3.024 -7.344 Q 2.76 -7.164 2.784 -6.756 Q 2.784 -6.696 2.802 -6.54 Q 2.82 -6.384 2.82 -6.324 L 3.18 -2.904 L 3.264 -1.5 Z " /></symbol><use href="#STIXTwoMathRegular_3321" transform="translate(-48.762 -67.115) scale(1.333)" fill="black" /><symbol id="STIXTwoMathRegular_275" width="3.744" height="51.216" viewBox="0 -31.524 3.744 51.216"><path d="M 3.516 -1.08 L 3.516 -1.08 L 3.744 -0.888 Q 3.516 -0.564 3.318 -0.342 Q 3.12 -0.12 2.88 0 Q 2.64 0.12 2.256 0.12 Q 1.656 0.12 1.38 -0.234 Q 1.104 -0.588 1.104 -1.392 L 1.104 -5.112 L 0.444 -5.112 L 0.444 -5.388 Q 0.864 -5.652 1.17 -6.102 Q 1.476 -6.552 1.8 -7.32 L 2.112 -7.32 L 2.1 -5.616 L 3.456 -5.616 L 3.456 -5.112 L 2.1 -5.112 L 2.1 -1.728 Q 2.1 -1.092 2.214 -0.84 Q 2.328 -0.588 2.676 -0.588 Q 2.964 -0.588 3.126 -0.708 Q 3.288 -0.828 3.516 -1.08 Z " /></symbol><use href="#STIXTwoMathRegular_275" transform="translate(-38.826 -51.146) scale(0.933)" fill="black" /><symbol id="STIXTwoMathRegular_259" width="5.208" height="51.216" viewBox="0 -31.524 5.208 51.216"><path d="M 4.98 -1.716 L 4.98 -1.716 L 5.208 -1.548 Q 4.992 -1.092 4.704 -0.714 Q 4.416 -0.336 4.002 -0.108 Q 3.588 0.12 2.964 0.12 Q 2.244 0.12 1.662 -0.222 Q 1.08 -0.564 0.744 -1.23 Q 0.408 -1.896 0.408 -2.856 Q 0.408 -3.864 0.75 -4.518 Q 1.092 -5.172 1.668 -5.496 Q 2.244 -5.82 2.94 -5.82 Q 3.924 -5.82 4.524 -5.136 Q 5.124 -4.452 5.172 -3.192 L 1.38 -3.192 Q 1.38 -2.364 1.65 -1.83 Q 1.92 -1.296 2.346 -1.038 Q 2.772 -0.78 3.252 -0.78 Q 3.744 -0.78 4.05 -0.912 Q 4.356 -1.044 4.572 -1.254 Q 4.788 -1.464 4.98 -1.716 Z M 1.368 -3.636 L 1.368 -3.636 L 4.044 -3.636 Q 4.032 -4.08 3.888 -4.47 Q 3.744 -4.86 3.468 -5.1 Q 3.192 -5.34 2.76 -5.34 Q 1.512 -5.34 1.368 -3.636 Z " /></symbol><use href="#STIXTwoMathRegular_259" transform="translate(-35.298 -51.146) scale(0.933)" fill="black" /><symbol id="STIXTwoMathRegular_274" width="4.416" height="51.216" viewBox="0 -31.524 4.416 51.216"><path d="M 0.468 -1.968 L 0.468 -1.968 L 0.78 -1.968 Q 0.972 -1.044 1.344 -0.678 Q 1.716 -0.312 2.376 -0.312 Q 2.832 -0.312 3.12 -0.498 Q 3.408 -0.684 3.408 -1.104 Q 3.408 -1.392 3.306 -1.584 Q 3.204 -1.776 2.916 -1.974 Q 2.628 -2.172 2.064 -2.448 Q 1.248 -2.868 0.864 -3.258 Q 0.48 -3.648 0.48 -4.308 Q 0.48 -5.052 1.014 -5.436 Q 1.548 -5.82 2.316 -5.82 Q 2.772 -5.82 3.06 -5.718 Q 3.348 -5.616 3.576 -5.508 L 3.588 -5.508 L 3.792 -5.76 L 4.032 -5.76 L 4.068 -3.924 L 3.744 -3.924 Q 3.552 -4.776 3.204 -5.094 Q 2.856 -5.412 2.304 -5.412 Q 1.896 -5.412 1.614 -5.22 Q 1.332 -5.028 1.332 -4.62 Q 1.332 -4.272 1.656 -3.996 Q 1.98 -3.72 2.736 -3.336 Q 3.552 -2.904 3.984 -2.502 Q 4.416 -2.1 4.416 -1.428 Q 4.416 -0.864 4.14 -0.522 Q 3.864 -0.18 3.402 -0.024 Q 2.94 0.132 2.4 0.132 Q 1.884 0.132 1.578 0.024 Q 1.272 -0.084 1.032 -0.18 L 1.008 -0.18 L 0.756 0.096 L 0.504 0.096 Z " /></symbol><use href="#STIXTwoMathRegular_274" transform="translate(-30.102 -51.146) scale(0.933)" fill="black" /><use href="#STIXTwoMathRegular_275" transform="translate(-25.678 -51.146) scale(0.933)" fill="black" /></g></g></g><circle cx="-108.0" cy="-1.3226185430791413e-14" r="2.6999999999999997" style="stroke:black;fill:white;stroke-width:2.0;" /><g><g><g><symbol id="STIXTwoMathRegular_3321" width="8.868" height="51.216" viewBox="0 -31.524 8.868 51.216"><path d="M 3.324 -1.5 L 3.324 -1.5 L 6.6 -6.42 Q 6.768 -6.66 6.87 -6.864 Q 6.972 -7.068 6.972 -7.212 Q 6.972 -7.392 6.816 -7.458 Q 6.66 -7.524 6.252 -7.524 L 6.276 -7.884 L 8.868 -7.884 L 8.844 -7.524 Q 8.52 -7.524 8.292 -7.428 Q 8.064 -7.332 7.83 -7.062 Q 7.596 -6.792 7.224 -6.24 L 2.82 0.06 L 2.424 0.06 L 1.752 -6.432 Q 1.68 -7.032 1.488 -7.278 Q 1.296 -7.524 0.816 -7.524 L 0.84 -7.884 L 3.78 -7.884 L 3.744 -7.524 Q 3.288 -7.524 3.024 -7.344 Q 2.76 -7.164 2.784 -6.756 Q 2.784 -6.696 2.802 -6.54 Q 2.82 -6.384 2.82 -6.324 L 3.18 -2.904 L 3.264 -1.5 Z " /></symbol><use href="#STIXTwoMathRegular_3321" transform="translate(-97.896 -51.692) scale(1.333)" fill="black" /><symbol id="STIXTwoMathRegular_260" width="4.548" height="51.216" viewBox="0 -31.524 4.548 51.216"><path d="M 0.312 -5.616 L 0.312 -5.616 L 1.224 -5.616 Q 1.224 -6.348 1.302 -6.81 Q 1.38 -7.272 1.608 -7.68 Q 1.848 -8.1 2.214 -8.328 Q 2.58 -8.556 3.204 -8.556 Q 3.792 -8.556 4.17 -8.34 Q 4.548 -8.124 4.548 -7.716 Q 4.548 -7.452 4.404 -7.326 Q 4.26 -7.2 4.056 -7.2 Q 3.828 -7.2 3.684 -7.338 Q 3.54 -7.476 3.426 -7.656 Q 3.312 -7.836 3.168 -7.974 Q 3.024 -8.112 2.796 -8.112 Q 2.46 -8.112 2.34 -7.806 Q 2.22 -7.5 2.22 -6.744 L 2.22 -5.616 L 3.684 -5.616 L 3.684 -5.112 L 2.22 -5.112 L 2.22 -1.428 Q 2.22 -0.96 2.316 -0.732 Q 2.412 -0.504 2.676 -0.426 Q 2.94 -0.348 3.444 -0.348 L 3.444 0 L 0.216 0 L 0.216 -0.348 Q 0.66 -0.348 0.87 -0.426 Q 1.08 -0.504 1.152 -0.732 Q 1.224 -0.96 1.224 -1.428 L 1.224 -5.112 L 0.312 -5.112 Z " /></symbol><use href="#STIXTwoMathRegular_260" transform="translate(-87.96 -35.722) scale(0.933)" fill="black" /></g></g></g><circle cx="36.0" cy="-0.0" r="2.6999999999999997" style="stroke:black;fill:white;stroke-width:2.0;" /><g><g><g><symbol id="STIXTwoMathRegular_3321" width="8.868" height="51.216" viewBox="0 -31.524 8.868 51.216"><path d="M 3.324 -1.5 L 3.324 -1.5 L 6.6 -6.42 Q 6.768 -6.66 6.87 -6.864 Q 6.972 -7.068 6.972 -7.212 Q 6.972 -7.392 6.816 -7.458 Q 6.66 -7.524 6.252 -7.524 L 6.276 -7.884 L 8.868 -7.884 L 8.844 -7.524 Q 8.52 -7.524 8.292 -7.428 Q 8.064 -7.332 7.83 -7.062 Q 7.596 -6.792 7.224 -6.24 L 2.82 0.06 L 2.424 0.06 L 1.752 -6.432 Q 1.68 -7.032 1.488 -7.278 Q 1.296 -7.524 0.816 -7.524 L 0.84 -7.884 L 3.78 -7.884 L 3.744 -7.524 Q 3.288 -7.524 3.024 -7.344 Q 2.76 -7.164 2.784 -6.756 Q 2.784 -6.696 2.802 -6.54 Q 2.82 -6.384 2.82 -6.324 L 3.18 -2.904 L 3.264 -1.5 Z " /></symbol><use href="#STIXTwoMathRegular_3321" transform="translate(13.63 -51.692) scale(1.333)" fill="black" /><symbol id="STIXTwoMathRegular_273" width="4.476" height="51.216" viewBox="0 -31.524 4.476 51.216"><path d="M 2.196 -5.784 L 2.196 -5.784 L 2.196 -4.548 L 2.232 -4.548 Q 2.688 -5.22 3.018 -5.538 Q 3.348 -5.856 3.78 -5.856 Q 4.128 -5.856 4.302 -5.676 Q 4.476 -5.496 4.476 -5.184 Q 4.476 -4.848 4.314 -4.692 Q 4.152 -4.536 3.948 -4.536 Q 3.756 -4.536 3.606 -4.638 Q 3.456 -4.74 3.348 -4.842 Q 3.24 -4.944 3.168 -4.944 Q 2.964 -4.944 2.7 -4.632 Q 2.436 -4.32 2.22 -3.96 L 2.22 -1.224 Q 2.22 -0.852 2.316 -0.66 Q 2.412 -0.468 2.658 -0.408 Q 2.904 -0.348 3.348 -0.348 L 3.348 0 L 0.348 0 L 0.348 -0.348 Q 0.744 -0.348 0.93 -0.414 Q 1.116 -0.48 1.17 -0.654 Q 1.224 -0.828 1.224 -1.164 L 1.224 -4.464 Q 1.224 -4.788 1.17 -4.95 Q 1.116 -5.112 0.792 -5.112 Q 0.612 -5.112 0.516 -5.1 Q 0.42 -5.088 0.42 -5.088 L 0.42 -5.424 L 1.908 -5.784 Z " /></symbol><use href="#STIXTwoMathRegular_273" transform="translate(21.902 -35.722) scale(0.933)" fill="black" /></g></g></g></svg>