<svg xmlns="http://www.w3.org/2000/svg" xml:lang="en" height="178.64000000000001pt" width="144.8pt" viewBox="-55.60000000000001 -19.0 144.8 178.64000000000001"><circle cx="-6.613092715395707e-15" cy="36.0" r="18.0" style="stroke:black;fill:none;stroke-width:2.0;" /><path d="M 0.0,-0.0 L 0.0,-14.4" style="stroke:black;fill:none;stroke-width:2.0;stroke-linecap:round;stroke-linejoin:round;" /><path d="M 0.0,-14.4 L -6.75,-14.4" style="stroke:black;fill:none;stroke-width:2.0;stroke-linecap:round;stroke-linejoin:round;" /><path d="M 0.0,-14.4 L 6.75,-14.4" style="stroke:black;fill:none;stroke-width:2.0;stroke-linecap:round;stroke-linejoin:round;" /><path d="M 0.0,-0.0 L -3.3065463576978533e-15,18.0 L -3.3065463576978533e-15,18.0 M -9.919639073093561e-15,54.0 L -9.919639073093561e-15,54.0 L -1.3226185430791413e-14,72.0" style="stroke:black;fill:none;stroke-width:2.0;stroke-linecap:round;stroke-linejoin:round;" /><path d="M -4.9598195365467806e-15,27.0 L -6.819055509535661e-15,36.0" style="stroke:black;fill:none;stroke-width:2.0;stroke-linecap:round;stroke-linejoin:round;" /><path d="M -7.944741364309306e-15 43.0 L -2.7000000000000064 36.0 L 2.699999999999993 36.0 Z" style="stroke:black;fill:black;stroke-linecap:butt;stroke-linejoin:miter;" /><path d="M -1.3226185430791413e-14,132.0 L -1.3226185430791413e-14,117.0 L -15.000000000000012,117.0 L -15.000000000000012,87.0 L -1.3226185430791413e-14,87.0 L -1.3226185430791413e-14,72.0" style="stroke:black;fill:none;stroke-width:2.0;stroke-linecap:round;stroke-linejoin:round;" /><path d="M -9.000000000000014,117.0 L -15.000000000000012,117.0" style="stroke:black;fill:none;stroke-width:2.0;stroke-linecap:round;stroke-linejoin:round;" /><path d="M -2.0000000000000133 117.0 L -9.000000000000014 121.5 L -9.000000000000014 112.5 Z" style="stroke:black;fill:black;stroke-linecap:butt;stroke-linejoin:miter;" /><path d="M -18.00000000000001,114.00000000000001 L -18.00000000000001,90.0" style="stroke:black;fill:none;stroke-width:2.0;stroke-linecap:round;stroke-linejoin:round;" /><path d="M -33.00000000000001,101.99999999999999 L -18.00000000000001,101.99999999999999" style="stroke:black;fill:none;stroke-width:2.0;stroke-linecap:round;stroke-linejoin:round;" /><path d="M -1.3226185430791413e-14,132.0 L -1.3226185430791413e-14,146.39999999999998 L -9.000000000000014,146.39999999999998 L 8.999999999999988,146.39999999999998 M -6.300000000000012,150.72 L 6.2999999999999865,150.72 M -1.8000000000000134,155.04 L 1.799999999999987,155.04" style="stroke:black;fill:none;stroke-width:2.0;stroke-linecap:round;stroke-linejoin:round;" /><path d="M -33.00000000000001,101.99999999999999 L -42.000000000000014,101.99999999999999 L -51.000000000000014,101.99999999999999" style="stroke:black;fill:none;stroke-width:2.0;stroke-linecap:round;stroke-linejoin:round;" /><path d="M -51.000000000000014,101.99999999999999 L -51.000000000000014,87.0 L -51.000000000000014,72.0" style="stroke:black;fill:none;stroke-width:2.0;stroke-linecap:round;stroke-linejoin:round;" /><path d="M -51.000000000000014,72.0 L -25.500000000000014,72.0 L -1.5987211554602254e-14,72.0" style="stroke:black;fill:none;stroke-width:2.0;stroke-linecap:round;stroke-linejoin:round;" /><path d="M 53.999999999999986,72.0 L 53.99999999999998,108.0 L 53.99999999999997,135.0" style="stroke:black;fill:none;stroke-width:2.0;stroke-linecap:round;stroke-linejoin:round;" /><path d="M 53.99999999999997 142.0 L 51.299999999999976 135.0 L 56.699999999999974 135.0 Z" style="stroke:black;fill:black;stroke-linecap:butt;stroke-linejoin:miter;" /><g><g><g><symbol id="STIXTwoMathRegular_3308" width="4.896" height="51.216" viewBox="-0.156 -31.524 4.896 51.216"><path d="M 1.248 -1.572 L 1.248 -1.572 L 2.232 -6.3 Q 2.34 -6.768 2.334 -7.038 Q 2.328 -7.308 2.112 -7.416 Q 1.896 -7.524 1.344 -7.524 L 1.416 -7.884 L 4.74 -7.884 L 4.668 -7.524 Q 4.14 -7.524 3.876 -7.416 Q 3.612 -7.308 3.504 -7.038 Q 3.396 -6.768 3.3 -6.3 L 2.316 -1.524 Q 2.28 -1.332 2.256 -1.176 Q 2.232 -1.02 2.232 -0.888 Q 2.232 -0.552 2.43 -0.456 Q 2.628 -0.36 3.192 -0.36 L 3.12 0 L -0.156 0 L -0.084 -0.36 Q 0.408 -0.36 0.654 -0.444 Q 0.9 -0.528 1.02 -0.786 Q 1.14 -1.044 1.248 -1.572 Z " /></symbol><use href="#STIXTwoMathRegular_3308" transform="translate(28.426 -2.518) scale(1.333)" fill="black" /><symbol id="STIXTwoMathRegular_256" width="5.844" height="51.216" viewBox="0 -31.524 5.844 51.216"><path d="M 1.956 -8.472 L 1.956 -8.472 L 1.956 -4.8 L 1.992 -4.8 Q 2.304 -5.184 2.772 -5.502 Q 3.24 -5.82 3.84 -5.82 Q 4.44 -5.82 4.89 -5.478 Q 5.34 -5.136 5.592 -4.536 Q 5.844 -3.936 5.844 -3.156 Q 5.844 -2.088 5.472 -1.356 Q 5.1 -0.624 4.452 -0.252 Q 3.804 0.12 2.964 0.12 Q 2.196 0.12 1.686 -0.06 Q 1.176 -0.24 0.96 -0.36 L 0.96 -7.104 Q 0.96 -7.512 0.87 -7.626 Q 0.78 -7.74 0.432 -7.74 Q 0.288 -7.74 0.192 -7.728 Q 0.096 -7.716 0.096 -7.716 L 0.096 -8.052 L 1.644 -8.472 Z M 1.956 -4.272 L 1.956 -4.272 L 1.956 -0.936 Q 2.124 -0.732 2.412 -0.552 Q 2.7 -0.372 3.18 -0.372 Q 3.756 -0.372 4.098 -0.696 Q 4.44 -1.02 4.596 -1.566 Q 4.752 -2.112 4.752 -2.772 Q 4.752 -3.348 4.632 -3.858 Q 4.512 -4.368 4.2 -4.686 Q 3.888 -5.004 3.312 -5.004 Q 2.856 -5.004 2.49 -4.746 Q 2.124 -4.488 1.956 -4.272 Z " /></symbol><use href="#STIXTwoMathRegular_256" transform="translate(34.954 13.452) scale(0.933)" fill="black" /><symbol id="STIXTwoMathRegular_263" width="3.084" height="51.216" viewBox="0 -31.524 3.084 51.216"><path d="M 3.084 -0.336 L 3.084 -0.336 L 3.084 0 L 0.384 0 L 0.384 -0.336 Q 0.792 -0.336 0.966 -0.414 Q 1.14 -0.492 1.182 -0.684 Q 1.224 -0.876 1.224 -1.212 L 1.224 -4.56 Q 1.224 -4.944 1.092 -5.034 Q 0.96 -5.124 0.696 -5.124 Q 0.576 -5.124 0.486 -5.112 Q 0.396 -5.1 0.396 -5.1 L 0.396 -5.448 L 1.908 -5.784 L 2.22 -5.784 L 2.22 -1.212 Q 2.22 -0.864 2.268 -0.672 Q 2.316 -0.48 2.502 -0.408 Q 2.688 -0.336 3.084 -0.336 Z M 1.74 -8.076 L 1.74 -8.076 Q 2.052 -8.076 2.238 -7.878 Q 2.424 -7.68 2.424 -7.404 Q 2.424 -7.128 2.238 -6.924 Q 2.052 -6.72 1.74 -6.72 Q 1.44 -6.72 1.248 -6.924 Q 1.056 -7.128 1.056 -7.404 Q 1.056 -7.68 1.242 -7.878 Q 1.428 -8.076 1.74 -8.076 Z " /></symbol><use href="#STIXTwoMathRegular_263" transform="translate(40.8 13.452) scale(0.933)" fill="black" /><symbol id="STIXTwoMathRegular_255" width="5.712" height="51.216" viewBox="0 -31.524 5.712 51.216"><path d="M 3.696 -0.744 L 3.696 -0.744 L 3.648 -0.744 Q 3.228 -0.372 2.844 -0.144 Q 2.46 0.084 1.884 0.084 Q 1.188 0.084 0.822 -0.3 Q 0.456 -0.684 0.456 -1.26 Q 0.456 -1.74 0.678 -2.07 Q 0.9 -2.4 1.266 -2.628 Q 1.632 -2.856 2.058 -3.012 Q 2.484 -3.168 2.892 -3.276 Q 3.3 -3.384 3.612 -3.48 L 3.612 -4.008 Q 3.612 -4.788 3.342 -5.118 Q 3.072 -5.448 2.532 -5.448 Q 2.016 -5.448 1.872 -5.232 Q 1.728 -5.016 1.728 -4.476 Q 1.728 -3.924 1.2 -3.924 Q 1.02 -3.924 0.858 -4.062 Q 0.696 -4.2 0.696 -4.5 Q 0.696 -4.836 0.954 -5.136 Q 1.212 -5.436 1.686 -5.628 Q 2.16 -5.82 2.808 -5.82 Q 3.792 -5.82 4.2 -5.364 Q 4.608 -4.908 4.608 -3.972 L 4.608 -1.248 Q 4.608 -0.876 4.692 -0.768 Q 4.776 -0.66 4.968 -0.66 Q 5.136 -0.66 5.274 -0.744 Q 5.412 -0.828 5.532 -0.96 L 5.712 -0.768 Q 5.412 -0.336 5.142 -0.138 Q 4.872 0.06 4.416 0.06 Q 4.02 0.06 3.888 -0.144 Q 3.756 -0.348 3.696 -0.744 Z M 3.612 -1.104 L 3.612 -1.104 L 3.612 -3.084 Q 3.072 -2.952 2.592 -2.772 Q 2.112 -2.592 1.812 -2.304 Q 1.512 -2.016 1.512 -1.548 Q 1.512 -1.104 1.752 -0.84 Q 1.992 -0.576 2.376 -0.576 Q 2.976 -0.576 3.612 -1.104 Z " /></symbol><use href="#STIXTwoMathRegular_255" transform="translate(43.992 13.452) scale(0.933)" fill="black" /><symbol id="STIXTwoMathRegular_274" width="4.416" height="51.216" viewBox="0 -31.524 4.416 51.216"><path d="M 0.468 -1.968 L 0.468 -1.968 L 0.78 -1.968 Q 0.972 -1.044 1.344 -0.678 Q 1.716 -0.312 2.376 -0.312 Q 2.832 -0.312 3.12 -0.498 Q 3.408 -0.684 3.408 -1.104 Q 3.408 -1.392 3.306 -1.584 Q 3.204 -1.776 2.916 -1.974 Q 2.628 -2.172 2.064 -2.448 Q 1.248 -2.868 0.864 -3.258 Q 0.48 -3.648 0.48 -4.308 Q 0.48 -5.052 1.014 -5.436 Q 1.548 -5.82 2.316 -5.82 Q 2.772 -5.82 3.06 -5.718 Q 3.348 -5.616 3.576 -5.508 L 3.588 -5.508 L 3.792 -5.76 L 4.032 -5.76 L 4.068 -3.924 L 3.744 -3.924 Q 3.552 -4.776 3.204 -5.094 Q 2.856 -5.412 2.304 -5.412 Q 1.896 -5.412 1.614 -5.22 Q 1.332 -5.028 1.332 -4.62 Q 1.332 -4.272 1.656 -3.996 Q 1.98 -3.72 2.736 -3.336 Q 3.552 -2.904 3.984 -2.502 Q 4.416 -2.1 4.416 -1.428 Q 4.416 -0.864 4.14 -0.522 Q 3.864 -0.18 3.402 -0.024 Q 2.94 0.132 2.4 0.132 Q 1.884 0.132 1.578 0.024 Q 1.272 -0.084 1.032 -0.18 L 1.008 -0.18 L 0.756 0.096 L 0.504 0.096 Z " /></symbol><use href="#STIXTwoMathRegular_274" transform="translate(49.368 13.452) scale(0.933)" fill="black" /></g></g></g><g><g><g><symbol id="STIXTwoMathRegular_3322" width="12.12" height="51.216" viewBox="0 -31.524 12.12 51.216"><path d="M 12.12 -7.884 L 12.12 -7.884 L 12.084 -7.524 Q 11.652 -7.512 11.388 -7.332 Q 11.124 -7.152 10.812 -6.696 L 6.588 0.072 L 6.24 0.072 L 5.844 -4.596 L 5.796 -4.596 L 2.712 0.072 L 2.376 0.072 L 1.788 -6.444 Q 1.74 -7.032 1.536 -7.278 Q 1.332 -7.524 0.816 -7.524 L 0.876 -7.884 L 3.876 -7.884 L 3.816 -7.524 Q 3.3 -7.524 3.096 -7.422 Q 2.892 -7.32 2.868 -7.08 Q 2.868 -7.056 2.868 -7.008 Q 2.868 -6.912 2.868 -6.774 Q 2.868 -6.636 2.892 -6.468 L 3.204 -3.084 L 3.264 -1.932 L 3.336 -1.932 L 5.76 -5.448 L 5.676 -6.396 Q 5.628 -6.912 5.55 -7.152 Q 5.472 -7.392 5.298 -7.458 Q 5.124 -7.524 4.776 -7.524 L 4.836 -7.884 L 7.896 -7.884 L 7.836 -7.524 Q 7.176 -7.524 6.954 -7.308 Q 6.732 -7.092 6.78 -6.42 L 7.068 -3.18 L 7.116 -1.956 L 7.176 -1.956 L 9.732 -5.976 Q 9.924 -6.276 10.092 -6.6 Q 10.26 -6.924 10.26 -7.188 Q 10.26 -7.368 10.128 -7.446 Q 9.996 -7.524 9.6 -7.524 L 9.672 -7.884 Z " /></symbol><use href="#STIXTwoMathRegular_3322" transform="translate(3.6 64.928) scale(1.333)" fill="black" /><symbol id="STIXTwoMathRegular_1060" width="4.212" height="51.216" viewBox="0 -31.524 4.212 51.216"><path d="M 4.212 -8.508 L 4.212 -8.508 L 1.092 1.068 L 0.42 1.068 L 3.552 -8.508 Z " /></symbol><use href="#STIXTwoMathRegular_1060" transform="translate(19.76 64.928) scale(1.333)" fill="black" /><symbol id="STIXTwoMathRegular_3311" width="6.648" height="51.216" viewBox="-0.156 -31.524 6.648 51.216"><path d="M 6.492 -2.34 L 6.492 -2.34 L 5.772 0 L -0.156 0 L -0.084 -0.36 Q 0.384 -0.36 0.63 -0.444 Q 0.876 -0.528 1.008 -0.768 Q 1.14 -1.008 1.236 -1.488 L 2.268 -6.492 Q 2.352 -6.888 2.328 -7.116 Q 2.304 -7.344 2.082 -7.434 Q 1.86 -7.524 1.344 -7.524 L 1.416 -7.884 L 4.824 -7.884 L 4.764 -7.524 Q 4.116 -7.524 3.792 -7.326 Q 3.468 -7.128 3.336 -6.48 L 2.244 -1.104 Q 2.16 -0.708 2.328 -0.582 Q 2.496 -0.456 3.024 -0.456 L 3.588 -0.456 Q 4.164 -0.456 4.524 -0.558 Q 4.884 -0.66 5.136 -0.876 Q 5.388 -1.092 5.61 -1.458 Q 5.832 -1.824 6.108 -2.34 Z " /></symbol><use href="#STIXTwoMathRegular_3311" transform="translate(25.936 64.928) scale(1.333)" fill="black" /></g></g></g><g><g><g><symbol id="STIXTwoMathRegular_3321" width="8.868" height="51.216" viewBox="0 -31.524 8.868 51.216"><path d="M 3.324 -1.5 L 3.324 -1.5 L 6.6 -6.42 Q 6.768 -6.66 6.87 -6.864 Q 6.972 -7.068 6.972 -7.212 Q 6.972 -7.392 6.816 -7.458 Q 6.66 -7.524 6.252 -7.524 L 6.276 -7.884 L 8.868 -7.884 L 8.844 -7.524 Q 8.52 -7.524 8.292 -7.428 Q 8.064 -7.332 7.83 -7.062 Q 7.596 -6.792 7.224 -6.24 L 2.82 0.06 L 2.424 0.06 L 1.752 -6.432 Q 1.68 -7.032 1.488 -7.278 Q 1.296 -7.524 0.816 -7.524 L 0.84 -7.884 L 3.78 -7.884 L 3.744 -7.524 Q 3.288 -7.524 3.024 -7.344 Q 2.76 -7.164 2.784 -6.756 Q 2.784 -6.696 2.802 -6.54 Q 2.82 -6.384 2.82 -6.324 L 3.18 -2.904 L 3.264 -1.5 Z " /></symbol><use href="#STIXTwoMathRegular_3321" transform="translate(62.043 69.46) scale(1.333)" fill="black" /><symbol id="STIXTwoMathRegular_9" width="8.22" height="51.216" viewBox="0 -31.524 8.22 51.216"><path d="M 8.22 -3.72 L 8.22 -3.72 L 8.22 -3.336 Q 7.716 -3.336 7.56 -3.162 Q 7.404 -2.988 7.404 -2.424 L 7.404 -0.684 Q 6.756 -0.312 6.096 -0.09 Q 5.436 0.132 4.44 0.132 Q 2.532 0.132 1.566 -0.93 Q 0.6 -1.992 0.6 -3.912 Q 0.6 -5.244 1.11 -6.162 Q 1.62 -7.08 2.502 -7.554 Q 3.384 -8.028 4.512 -8.028 Q 5.172 -8.028 5.562 -7.92 Q 5.952 -7.812 6.174 -7.704 Q 6.396 -7.596 6.54 -7.596 Q 6.696 -7.596 6.774 -7.716 Q 6.852 -7.836 6.972 -8.028 L 7.32 -8.028 L 7.32 -5.28 L 6.912 -5.28 Q 6.708 -6.48 6.096 -6.996 Q 5.484 -7.512 4.524 -7.512 Q 3.252 -7.512 2.55 -6.582 Q 1.848 -5.652 1.848 -4.056 Q 1.848 -2.22 2.586 -1.314 Q 3.324 -0.408 4.608 -0.408 Q 5.172 -0.408 5.562 -0.576 Q 5.952 -0.744 6.312 -1.008 L 6.312 -2.304 Q 6.312 -2.736 6.24 -2.958 Q 6.168 -3.18 5.94 -3.258 Q 5.712 -3.336 5.256 -3.336 L 5.256 -3.72 Z " /></symbol><use href="#STIXTwoMathRegular_9" transform="translate(71.979 85.43) scale(0.933)" fill="black" /><symbol id="STIXTwoMathRegular_21" width="5.652" height="51.216" viewBox="0 -31.524 5.652 51.216"><path d="M 5.28 -5.604 L 5.28 -5.604 L 4.92 -5.604 Q 4.668 -6.6 4.248 -7.08 Q 3.828 -7.56 2.916 -7.548 Q 2.304 -7.548 1.968 -7.266 Q 1.632 -6.984 1.632 -6.42 Q 1.632 -5.976 1.884 -5.658 Q 2.136 -5.34 2.544 -5.088 Q 2.952 -4.836 3.396 -4.572 Q 3.792 -4.344 4.194 -4.116 Q 4.596 -3.888 4.926 -3.6 Q 5.256 -3.312 5.454 -2.928 Q 5.652 -2.544 5.652 -2.004 Q 5.652 -1.308 5.334 -0.828 Q 5.016 -0.348 4.464 -0.102 Q 3.912 0.144 3.216 0.144 Q 2.592 0.144 2.202 0.054 Q 1.812 -0.036 1.59 -0.126 Q 1.368 -0.216 1.224 -0.216 Q 1.104 -0.216 1.008 -0.108 Q 0.912 0 0.9 0.18 L 0.528 0.18 L 0.42 -2.412 L 0.792 -2.412 Q 1.008 -1.584 1.296 -1.146 Q 1.584 -0.708 2.01 -0.546 Q 2.436 -0.384 3.048 -0.384 Q 3.72 -0.384 4.116 -0.678 Q 4.512 -0.972 4.512 -1.656 Q 4.512 -2.184 4.218 -2.532 Q 3.924 -2.88 3.468 -3.15 Q 3.012 -3.42 2.52 -3.696 Q 2.04 -3.972 1.596 -4.284 Q 1.152 -4.596 0.87 -5.028 Q 0.588 -5.46 0.588 -6.084 Q 0.588 -6.72 0.9 -7.146 Q 1.212 -7.572 1.728 -7.8 Q 2.244 -8.028 2.868 -8.028 Q 3.42 -8.028 3.72 -7.938 Q 4.02 -7.848 4.194 -7.752 Q 4.368 -7.656 4.512 -7.656 Q 4.8 -7.656 4.884 -8.004 L 5.196 -8.004 Z " /></symbol><use href="#STIXTwoMathRegular_21" transform="translate(80.043 85.43) scale(0.933)" fill="black" /></g></g></g><circle cx="-1.3226185430791413e-14" cy="72.0" r="2.6999999999999997" style="stroke:black;fill:black;stroke-width:2.0;" /></svg>