<svg xmlns="http://www.w3.org/2000/svg" xml:lang="en" height="196.112pt" width="216.6616pt" viewBox="-95.06159999999998 -36.472 216.6616 196.112"><path d="M 0.0,-0.0 L 0.0,-14.4" style="stroke:black;fill:none;stroke-width:2.0;stroke-linecap:round;stroke-linejoin:round;" /><path d="M 0.0,-14.4 L -6.75,-14.4" style="stroke:black;fill:none;stroke-width:2.0;stroke-linecap:round;stroke-linejoin:round;" /><path d="M 0.0,-14.4 L 6.75,-14.4" style="stroke:black;fill:none;stroke-width:2.0;stroke-linecap:round;stroke-linejoin:round;" /><path d="M 0.0,59.99999999999999 L 0.0,45.0 L -14.999999999999998,45.0 L -14.999999999999998,14.999999999999998 L 0.0,14.999999999999998 L 0.0,-0.0" style="stroke:black;fill:none;stroke-width:2.0;stroke-linecap:round;stroke-linejoin:round;" /><path d="M -5.999999999999998,14.999999999999998 L 0.0,14.999999999999998" style="stroke:black;fill:none;stroke-width:2.0;stroke-linecap:round;stroke-linejoin:round;" /><path d="M -12.999999999999998 14.999999999999998 L -5.999999999999997 10.5 L -5.999999999999999 19.5 Z" style="stroke:black;fill:black;stroke-linecap:butt;stroke-linejoin:miter;" /><path d="M -17.999999999999996,42.0 L -17.999999999999996,17.999999999999996" style="stroke:black;fill:none;stroke-width:2.0;stroke-linecap:round;stroke-linejoin:round;" /><path d="M -32.99999999999999,29.999999999999996 L -17.999999999999996,29.999999999999996" style="stroke:black;fill:none;stroke-width:2.0;stroke-linecap:round;stroke-linejoin:round;" /><path d="M 0.0,59.99999999999999 L 27.0,59.99999999999999 L 54.0,59.99999999999999" style="stroke:black;fill:none;stroke-width:2.0;stroke-linecap:round;stroke-linejoin:round;" /><path d="M 54.0,59.99999999999999 L 81.0,59.99999999999999 L 108.0,59.99999999999999" style="stroke:black;fill:none;stroke-width:2.0;stroke-linecap:round;stroke-linejoin:round;" /><path d="M 108.0,59.99999999999999 L 108.0,78.0 L 117.0,81.0 L 99.0,87.0 L 117.0,92.99999999999999 L 99.0,99.0 L 117.0,105.0 L 98.99999999999999,110.99999999999999 L 107.99999999999999,114.0 L 107.99999999999999,132.0" style="stroke:black;fill:none;stroke-width:2.0;stroke-linecap:round;stroke-linejoin:round;" /><path d="M 107.99999999999999,132.0 L 107.99999999999999,146.39999999999998 L 98.99999999999999,146.39999999999998 L 116.99999999999999,146.39999999999998 M 101.69999999999999,150.72 L 114.29999999999998,150.72 M 106.19999999999999,155.04 L 109.79999999999998,155.04" style="stroke:black;fill:none;stroke-width:2.0;stroke-linecap:round;stroke-linejoin:round;" /><path d="M 0.0,59.99999999999999 L -3.3065463576978533e-15,78.0 L 8.999999999999996,81.0 L -9.000000000000004,87.0 L 8.999999999999995,92.99999999999999 L -9.000000000000007,99.0 L 8.999999999999993,105.0 L -9.00000000000001,110.99999999999999 L -9.919639073093561e-15,114.0 L -1.3226185430791413e-14,132.0" style="stroke:black;fill:none;stroke-width:2.0;stroke-linecap:round;stroke-linejoin:round;" /><path d="M -1.3226185430791413e-14,132.0 L -1.3226185430791413e-14,146.39999999999998 L -9.000000000000014,146.39999999999998 L 8.999999999999988,146.39999999999998 M -6.300000000000012,150.72 L 6.2999999999999865,150.72 M -1.8000000000000134,155.04 L 1.799999999999987,155.04" style="stroke:black;fill:none;stroke-width:2.0;stroke-linecap:round;stroke-linejoin:round;" /><path d="M -32.99999999999999,29.999999999999996 L -50.99999999999999,29.999999999999993 L -69.0,29.999999999999993" style="stroke:black;fill:none;stroke-width:2.0;stroke-linecap:round;stroke-linejoin:round;" /><g><g><g><path d="M -8.168 -23.36 L -8.168 -23.36 L -3.8 -29.92 Q -3.576 -30.24 -3.44 -30.512 Q -3.304 -30.784 -3.304 -30.976 Q -3.304 -31.216 -3.512 -31.304 Q -3.72 -31.392 -4.264 -31.392 L -4.232 -31.872 L -0.776 -31.872 L -0.808 -31.392 Q -1.24 -31.392 -1.544 -31.264 Q -1.848 -31.136 -2.16 -30.776 Q -2.472 -30.416 -2.968 -29.68 L -8.84 -21.28 L -9.368 -21.28 L -10.264 -29.936 Q -10.36 -30.736 -10.616 -31.064 Q -10.872 -31.392 -11.512 -31.392 L -11.48 -31.872 L -7.56 -31.872 L -7.608 -31.392 Q -8.216 -31.392 -8.568 -31.152 Q -8.92 -30.912 -8.888 -30.368 Q -8.888 -30.288 -8.864 -30.08 Q -8.84 -29.872 -8.84 -29.792 L -8.36 -25.232 L -8.248 -23.36 Z " fill="black" /><path d="M -2.272 -25.358 L -2.272 -25.358 L 0.808 -25.358 Q 1.682 -25.358 2.438 -25.174 Q 3.194 -24.989 3.754 -24.563 Q 4.314 -24.138 4.633 -23.443 Q 4.952 -22.749 4.952 -21.718 Q 4.952 -20.43 4.454 -19.607 Q 3.955 -18.784 3.048 -18.392 Q 2.141 -18 0.931 -18 L -2.272 -18 L -2.272 -18.336 Q -1.779 -18.336 -1.544 -18.409 Q -1.309 -18.482 -1.242 -18.711 Q -1.174 -18.941 -1.174 -19.389 L -1.174 -24.082 Q -1.174 -24.496 -1.275 -24.692 Q -1.376 -24.888 -1.611 -24.955 Q -1.846 -25.022 -2.272 -25.022 Z M -0.144 -24.877 L -0.144 -24.877 L -0.144 -18.459 Q 0.192 -18.426 0.517 -18.426 Q 1.536 -18.426 2.264 -18.7 Q 2.992 -18.974 3.384 -19.669 Q 3.776 -20.363 3.776 -21.618 Q 3.776 -23.219 2.958 -24.059 Q 2.141 -24.899 0.405 -24.899 Q 0.27 -24.899 0.142 -24.899 Q 0.013 -24.899 -0.144 -24.877 Z " fill="black" /><path d="M 5.904 -25.358 L 5.904 -25.358 L 8.984 -25.358 Q 9.858 -25.358 10.614 -25.174 Q 11.37 -24.989 11.93 -24.563 Q 12.49 -24.138 12.809 -23.443 Q 13.128 -22.749 13.128 -21.718 Q 13.128 -20.43 12.63 -19.607 Q 12.131 -18.784 11.224 -18.392 Q 10.317 -18 9.107 -18 L 5.904 -18 L 5.904 -18.336 Q 6.397 -18.336 6.632 -18.409 Q 6.867 -18.482 6.934 -18.711 Q 7.002 -18.941 7.002 -19.389 L 7.002 -24.082 Q 7.002 -24.496 6.901 -24.692 Q 6.8 -24.888 6.565 -24.955 Q 6.33 -25.022 5.904 -25.022 Z M 8.032 -24.877 L 8.032 -24.877 L 8.032 -18.459 Q 8.368 -18.426 8.693 -18.426 Q 9.712 -18.426 10.44 -18.7 Q 11.168 -18.974 11.56 -19.669 Q 11.952 -20.363 11.952 -21.618 Q 11.952 -23.219 11.134 -24.059 Q 10.317 -24.899 8.581 -24.899 Q 8.446 -24.899 8.318 -24.899 Q 8.189 -24.899 8.032 -24.877 Z " fill="black" /></g></g></g><g><g><g><path d="M 16.544 33.576 L 16.544 33.576 L 12.272 33.576 L 12.368 33.096 Q 12.96 33.096 13.272 32.984 Q 13.584 32.872 13.744 32.56 Q 13.904 32.248 14.016 31.672 L 15.44 24.76 L 15.376 24.76 L 10 33.576 L 9.648 33.576 L 7.712 24.776 L 7.648 24.776 L 6.32 31.24 Q 6.16 32.056 6.184 32.456 Q 6.208 32.856 6.496 32.976 Q 6.784 33.096 7.392 33.096 L 7.296 33.576 L 3.6 33.576 L 3.696 33.096 Q 4.32 33.096 4.656 32.976 Q 4.992 32.856 5.184 32.456 Q 5.376 32.056 5.536 31.24 L 6.8 25.016 Q 6.928 24.408 6.88 24.096 Q 6.832 23.784 6.536 23.664 Q 6.24 23.544 5.6 23.544 L 5.696 23.064 L 8.896 23.064 L 10.624 31.16 L 10.688 31.16 L 15.568 23.064 L 18.592 23.064 L 18.496 23.544 Q 17.936 23.544 17.608 23.664 Q 17.28 23.784 17.104 24.096 Q 16.928 24.408 16.8 25 L 15.44 31.672 Q 15.264 32.552 15.528 32.824 Q 15.792 33.096 16.64 33.096 Z " fill="black" /><path d="M 23.363 36.936 L 23.363 36.936 L 19.488 36.936 L 19.488 36.622 Q 20.283 36.622 20.608 36.454 Q 20.933 36.286 20.933 35.872 L 20.933 31.134 Q 20.933 30.843 20.854 30.714 Q 20.776 30.586 20.563 30.586 Q 20.395 30.586 20.037 30.63 Q 19.678 30.675 19.421 30.765 L 19.421 30.395 L 21.594 29.779 L 21.918 29.779 L 21.918 35.872 Q 21.918 36.286 22.254 36.454 Q 22.59 36.622 23.363 36.622 Z " fill="black" /></g></g></g><circle cx="54.0" cy="59.99999999999999" r="2.6999999999999997" style="stroke:black;fill:white;stroke-width:2.0;" /><circle cx="0.0" cy="59.99999999999999" r="2.6999999999999997" style="stroke:black;fill:black;stroke-width:2.0;" /><g><g><g><path d="M 72.958 45.312 L 72.958 45.312 L 73.31 45.312 L 72.558 48.384 Q 72.446 48.8 72.326 49.384 Q 72.206 49.968 72.206 50.512 Q 72.206 51.136 72.462 51.592 Q 72.718 52.048 73.454 52.048 Q 74.27 52.048 74.862 51.656 Q 75.454 51.264 75.83 50.656 Q 76.206 50.048 76.39 49.376 Q 76.574 48.704 76.574 48.144 Q 76.574 47.728 76.43 47.424 Q 76.286 47.12 76.086 46.88 Q 75.886 46.64 75.742 46.416 Q 75.598 46.192 75.598 45.936 Q 75.598 45.616 75.774 45.44 Q 75.95 45.264 76.206 45.264 Q 76.75 45.264 77.086 45.808 Q 77.422 46.352 77.422 47.2 Q 77.422 47.936 77.238 48.744 Q 77.054 49.552 76.686 50.32 Q 76.318 51.088 75.774 51.712 Q 75.23 52.336 74.526 52.704 Q 73.822 53.072 72.958 53.072 Q 72.158 53.072 71.71 52.752 Q 71.262 52.432 71.078 51.904 Q 70.894 51.376 70.894 50.768 Q 70.894 50.192 71.006 49.584 Q 71.118 48.976 71.246 48.48 L 71.566 47.264 Q 71.598 47.136 71.662 46.88 Q 71.726 46.624 71.726 46.384 Q 71.726 46.176 71.646 46.032 Q 71.566 45.888 71.342 45.888 Q 71.15 45.888 70.878 45.912 Q 70.606 45.936 70.606 45.936 L 70.606 45.488 Z " fill="black" /><path d="M 80.311 50.856 L 80.311 50.856 Q 81.465 50.856 82.131 51.573 Q 82.798 52.29 82.798 53.533 Q 82.798 54.474 82.478 55.112 Q 82.159 55.75 81.599 56.075 Q 81.039 56.4 80.311 56.4 Q 79.135 56.4 78.469 55.666 Q 77.802 54.933 77.802 53.578 Q 77.802 52.76 78.116 52.15 Q 78.43 51.539 78.995 51.198 Q 79.561 50.856 80.311 50.856 Z M 80.266 51.282 L 80.266 51.282 Q 79.628 51.282 79.236 51.819 Q 78.844 52.357 78.844 53.432 Q 78.844 54.765 79.242 55.364 Q 79.639 55.963 80.356 55.952 Q 80.815 55.952 81.129 55.739 Q 81.442 55.526 81.605 55.011 Q 81.767 54.496 81.767 53.589 Q 81.767 52.558 81.392 51.92 Q 81.017 51.282 80.266 51.282 Z " fill="black" /><path d="M 89.226 55.784 L 89.226 55.784 L 89.226 56.086 L 87.804 56.344 L 87.558 56.344 L 87.558 55.482 L 87.502 55.482 Q 87.054 55.918 86.628 56.159 Q 86.202 56.4 85.665 56.4 Q 84.97 56.4 84.584 55.946 Q 84.198 55.493 84.198 54.35 L 84.198 52.077 Q 84.198 51.618 84.046 51.522 Q 83.895 51.427 83.436 51.416 L 83.436 51.102 L 84.881 50.934 L 85.127 50.934 L 85.127 54.205 Q 85.127 55.056 85.413 55.37 Q 85.698 55.683 86.135 55.683 Q 86.561 55.683 86.869 55.493 Q 87.177 55.302 87.513 55.011 L 87.513 52.066 Q 87.513 51.618 87.328 51.517 Q 87.143 51.416 86.606 51.416 L 86.606 51.102 L 88.174 50.934 L 88.442 50.934 L 88.442 55.045 Q 88.442 55.538 88.577 55.661 Q 88.711 55.784 89.114 55.784 Z " fill="black" /><path d="M 92.844 55.28 L 92.844 55.28 L 93.057 55.459 Q 92.844 55.762 92.659 55.969 Q 92.474 56.176 92.25 56.288 Q 92.026 56.4 91.668 56.4 Q 91.108 56.4 90.85 56.07 Q 90.593 55.739 90.593 54.989 L 90.593 51.517 L 89.977 51.517 L 89.977 51.259 Q 90.369 51.013 90.654 50.593 Q 90.94 50.173 91.242 49.456 L 91.534 49.456 L 91.522 51.046 L 92.788 51.046 L 92.788 51.517 L 91.522 51.517 L 91.522 54.675 Q 91.522 55.269 91.629 55.504 Q 91.735 55.739 92.06 55.739 Q 92.329 55.739 92.48 55.627 Q 92.631 55.515 92.844 55.28 Z " fill="black" /></g></g></g><g><g><g><path d="M 73.861 91.216 L 73.861 91.216 Q 73.861 92.064 73.541 92.64 Q 73.221 93.216 72.709 93.584 Q 72.197 93.952 71.613 94.152 Q 71.029 94.352 70.501 94.448 L 70.501 94.528 Q 70.789 94.72 71.045 95.112 Q 71.301 95.504 71.677 96.24 Q 72.053 96.976 72.709 98.224 Q 72.981 98.704 73.309 98.872 Q 73.637 99.04 74.181 99.04 L 74.085 99.52 L 71.653 99.52 Q 71.205 98.528 70.901 97.864 Q 70.597 97.2 70.373 96.752 Q 70.149 96.304 69.981 95.952 Q 69.813 95.6 69.621 95.232 Q 69.445 94.896 69.237 94.792 Q 69.029 94.688 68.597 94.688 L 68.261 94.688 L 67.669 97.536 Q 67.541 98.192 67.581 98.52 Q 67.621 98.848 67.941 98.944 Q 68.261 99.04 68.949 99.04 L 68.869 99.52 L 64.453 99.52 L 64.549 99.04 Q 65.141 99.04 65.461 98.944 Q 65.781 98.848 65.949 98.528 Q 66.117 98.208 66.245 97.536 L 67.653 90.672 Q 67.749 90.224 67.701 89.968 Q 67.653 89.712 67.373 89.6 Q 67.093 89.488 66.453 89.488 L 66.549 89.008 L 70.309 89.008 Q 71.989 89.008 72.925 89.528 Q 73.861 90.048 73.861 91.216 Z M 69.269 89.68 L 69.269 89.68 L 68.373 94.096 L 68.869 94.112 Q 69.829 94.08 70.605 93.8 Q 71.381 93.52 71.829 92.912 Q 72.277 92.304 72.277 91.28 Q 72.277 90.848 72.093 90.472 Q 71.909 90.096 71.461 89.864 Q 71.013 89.632 70.213 89.632 Q 69.909 89.632 69.725 89.64 Q 69.541 89.648 69.269 89.68 Z " fill="black" /><path d="M 77.829 102.555 L 77.829 102.555 L 77.829 102.88 L 75.253 102.88 L 75.253 102.555 Q 75.622 102.555 75.79 102.482 Q 75.958 102.41 75.998 102.236 Q 76.037 102.062 76.037 101.749 L 76.037 96.126 Q 76.037 95.779 75.908 95.712 Q 75.779 95.645 75.566 95.645 Q 75.421 95.645 75.314 95.656 Q 75.208 95.667 75.208 95.667 L 75.208 95.365 L 76.686 94.973 L 76.966 94.973 L 76.966 101.749 Q 76.966 102.074 77.017 102.247 Q 77.067 102.421 77.246 102.488 Q 77.426 102.555 77.829 102.555 Z " fill="black" /><path d="M 80.976 97.448 L 80.976 97.448 Q 82.13 97.448 82.796 98.165 Q 83.462 98.882 83.462 100.125 Q 83.462 101.066 83.143 101.704 Q 82.824 102.342 82.264 102.667 Q 81.704 102.992 80.976 102.992 Q 79.8 102.992 79.134 102.258 Q 78.467 101.525 78.467 100.17 Q 78.467 99.352 78.781 98.742 Q 79.094 98.131 79.66 97.79 Q 80.226 97.448 80.976 97.448 Z M 80.931 97.874 L 80.931 97.874 Q 80.293 97.874 79.901 98.411 Q 79.509 98.949 79.509 100.024 Q 79.509 101.357 79.906 101.956 Q 80.304 102.555 81.021 102.544 Q 81.48 102.544 81.794 102.331 Q 82.107 102.118 82.27 101.603 Q 82.432 101.088 82.432 100.181 Q 82.432 99.15 82.057 98.512 Q 81.682 97.874 80.931 97.874 Z " fill="black" /><path d="M 87.293 102.186 L 87.293 102.186 L 87.248 102.186 Q 86.856 102.533 86.498 102.746 Q 86.139 102.958 85.602 102.958 Q 84.952 102.958 84.61 102.6 Q 84.269 102.242 84.269 101.704 Q 84.269 101.256 84.476 100.948 Q 84.683 100.64 85.025 100.427 Q 85.366 100.214 85.764 100.069 Q 86.162 99.923 86.542 99.822 Q 86.923 99.722 87.214 99.632 L 87.214 99.139 Q 87.214 98.411 86.962 98.103 Q 86.71 97.795 86.206 97.795 Q 85.725 97.795 85.59 97.997 Q 85.456 98.198 85.456 98.702 Q 85.456 99.218 84.963 99.218 Q 84.795 99.218 84.644 99.089 Q 84.493 98.96 84.493 98.68 Q 84.493 98.366 84.734 98.086 Q 84.974 97.806 85.417 97.627 Q 85.859 97.448 86.464 97.448 Q 87.382 97.448 87.763 97.874 Q 88.144 98.299 88.144 99.173 L 88.144 101.715 Q 88.144 102.062 88.222 102.163 Q 88.301 102.264 88.48 102.264 Q 88.637 102.264 88.766 102.186 Q 88.894 102.107 89.006 101.984 L 89.174 102.163 Q 88.894 102.566 88.642 102.751 Q 88.39 102.936 87.965 102.936 Q 87.595 102.936 87.472 102.746 Q 87.349 102.555 87.293 102.186 Z M 87.214 101.85 L 87.214 101.85 L 87.214 100.002 Q 86.71 100.125 86.262 100.293 Q 85.814 100.461 85.534 100.73 Q 85.254 100.998 85.254 101.435 Q 85.254 101.85 85.478 102.096 Q 85.702 102.342 86.061 102.342 Q 86.621 102.342 87.214 101.85 Z " fill="black" /><path d="M 94.976 102.678 L 94.976 102.678 L 93.542 102.936 L 93.285 102.936 L 93.285 102.163 L 93.24 102.163 Q 92.926 102.443 92.495 102.706 Q 92.064 102.97 91.504 102.97 Q 90.877 102.97 90.446 102.634 Q 90.014 102.298 89.802 101.721 Q 89.589 101.144 89.589 100.427 Q 89.589 99.498 89.936 98.831 Q 90.283 98.165 90.871 97.806 Q 91.459 97.448 92.165 97.448 Q 92.445 97.448 92.719 97.51 Q 92.994 97.571 93.251 97.717 L 93.251 96.25 Q 93.251 95.88 93.167 95.768 Q 93.083 95.656 92.758 95.656 Q 92.68 95.656 92.574 95.667 Q 92.467 95.678 92.467 95.678 L 92.467 95.365 L 93.878 94.973 L 94.181 94.973 L 94.181 101.682 Q 94.181 102.118 94.304 102.247 Q 94.427 102.376 94.741 102.376 L 94.976 102.376 Z M 93.251 101.749 L 93.251 101.749 L 93.251 98.792 Q 93.184 98.445 92.926 98.17 Q 92.669 97.896 92.142 97.896 Q 91.437 97.896 91 98.411 Q 90.563 98.926 90.563 99.99 Q 90.563 101.144 90.938 101.654 Q 91.314 102.163 92.03 102.163 Q 92.422 102.163 92.691 102.057 Q 92.96 101.95 93.251 101.749 Z " fill="black" /></g></g></g><g><g><g><path d="M -19.344 91.272 L -19.344 91.272 Q -19.344 92.12 -19.664 92.696 Q -19.984 93.272 -20.496 93.64 Q -21.008 94.008 -21.592 94.208 Q -22.176 94.408 -22.704 94.504 L -22.704 94.584 Q -22.416 94.776 -22.16 95.168 Q -21.904 95.56 -21.528 96.296 Q -21.152 97.032 -20.496 98.28 Q -20.224 98.76 -19.896 98.928 Q -19.568 99.096 -19.024 99.096 L -19.12 99.576 L -21.552 99.576 Q -22 98.584 -22.304 97.92 Q -22.608 97.256 -22.832 96.808 Q -23.056 96.36 -23.224 96.008 Q -23.392 95.656 -23.584 95.288 Q -23.76 94.952 -23.968 94.848 Q -24.176 94.744 -24.608 94.744 L -24.944 94.744 L -25.536 97.592 Q -25.664 98.248 -25.624 98.576 Q -25.584 98.904 -25.264 99 Q -24.944 99.096 -24.256 99.096 L -24.336 99.576 L -28.752 99.576 L -28.656 99.096 Q -28.064 99.096 -27.744 99 Q -27.424 98.904 -27.256 98.584 Q -27.088 98.264 -26.96 97.592 L -25.552 90.728 Q -25.456 90.28 -25.504 90.024 Q -25.552 89.768 -25.832 89.656 Q -26.112 89.544 -26.752 89.544 L -26.656 89.064 L -22.896 89.064 Q -21.216 89.064 -20.28 89.584 Q -19.344 90.104 -19.344 91.272 Z M -23.936 89.736 L -23.936 89.736 L -24.832 94.152 L -24.336 94.168 Q -23.376 94.136 -22.6 93.856 Q -21.824 93.576 -21.376 92.968 Q -20.928 92.36 -20.928 91.336 Q -20.928 90.904 -21.112 90.528 Q -21.296 90.152 -21.744 89.92 Q -22.192 89.688 -22.992 89.688 Q -23.296 89.688 -23.48 89.696 Q -23.664 89.704 -23.936 89.736 Z " fill="black" /><path d="M -13.517 102.936 L -13.517 102.936 L -17.392 102.936 L -17.392 102.622 Q -16.597 102.622 -16.272 102.454 Q -15.947 102.286 -15.947 101.872 L -15.947 97.134 Q -15.947 96.843 -16.026 96.714 Q -16.104 96.586 -16.317 96.586 Q -16.485 96.586 -16.843 96.63 Q -17.202 96.675 -17.459 96.765 L -17.459 96.395 L -15.286 95.779 L -14.962 95.779 L -14.962 101.872 Q -14.962 102.286 -14.626 102.454 Q -14.29 102.622 -13.517 102.622 Z " fill="black" /></g></g></g><circle cx="-69.0" cy="29.999999999999993" r="2.6999999999999997" style="stroke:black;fill:white;stroke-width:2.0;" /><g><g><g><path d="M -89.455 24.536 L -89.455 24.536 L -89.103 24.536 L -89.855 27.608 Q -89.967 28.024 -90.087 28.608 Q -90.207 29.192 -90.207 29.736 Q -90.207 30.36 -89.951 30.816 Q -89.695 31.272 -88.959 31.272 Q -88.143 31.272 -87.551 30.88 Q -86.959 30.488 -86.583 29.88 Q -86.207 29.272 -86.023 28.6 Q -85.839 27.928 -85.839 27.368 Q -85.839 26.952 -85.983 26.648 Q -86.127 26.344 -86.327 26.104 Q -86.527 25.864 -86.671 25.64 Q -86.815 25.416 -86.815 25.16 Q -86.815 24.84 -86.639 24.664 Q -86.463 24.488 -86.207 24.488 Q -85.663 24.488 -85.327 25.032 Q -84.991 25.576 -84.991 26.424 Q -84.991 27.16 -85.175 27.968 Q -85.359 28.776 -85.727 29.544 Q -86.095 30.312 -86.639 30.936 Q -87.183 31.56 -87.887 31.928 Q -88.591 32.296 -89.455 32.296 Q -90.255 32.296 -90.703 31.976 Q -91.151 31.656 -91.335 31.128 Q -91.519 30.6 -91.519 29.992 Q -91.519 29.416 -91.407 28.808 Q -91.295 28.2 -91.167 27.704 L -90.847 26.488 Q -90.815 26.36 -90.751 26.104 Q -90.687 25.848 -90.687 25.608 Q -90.687 25.4 -90.767 25.256 Q -90.847 25.112 -91.071 25.112 Q -91.263 25.112 -91.535 25.136 Q -91.807 25.16 -91.807 25.16 L -91.807 24.712 Z " fill="black" /><path d="M -81.217 35.198 L -81.217 35.198 L -81.217 35.512 L -83.737 35.512 L -83.737 35.198 Q -83.356 35.198 -83.194 35.126 Q -83.031 35.053 -82.992 34.874 Q -82.953 34.694 -82.953 34.381 L -82.953 31.256 Q -82.953 30.898 -83.076 30.814 Q -83.199 30.73 -83.446 30.73 Q -83.558 30.73 -83.642 30.741 Q -83.726 30.752 -83.726 30.752 L -83.726 30.427 L -82.314 30.114 L -82.023 30.114 L -82.023 34.381 Q -82.023 34.706 -81.978 34.885 Q -81.934 35.064 -81.76 35.131 Q -81.586 35.198 -81.217 35.198 Z M -82.471 27.974 L -82.471 27.974 Q -82.18 27.974 -82.006 28.159 Q -81.833 28.344 -81.833 28.602 Q -81.833 28.859 -82.006 29.05 Q -82.18 29.24 -82.471 29.24 Q -82.751 29.24 -82.93 29.05 Q -83.11 28.859 -83.11 28.602 Q -83.11 28.344 -82.936 28.159 Q -82.762 27.974 -82.471 27.974 Z " fill="black" /><path d="M -75.516 32.074 L -75.516 32.074 L -75.516 34.381 Q -75.516 34.694 -75.466 34.874 Q -75.415 35.053 -75.236 35.126 Q -75.057 35.198 -74.687 35.198 L -74.687 35.512 L -77.274 35.512 L -77.274 35.198 Q -76.871 35.198 -76.698 35.126 Q -76.524 35.053 -76.485 34.874 Q -76.446 34.694 -76.446 34.381 L -76.446 32.354 Q -76.446 31.682 -76.597 31.346 Q -76.748 31.01 -76.983 30.903 Q -77.218 30.797 -77.476 30.797 Q -77.924 30.797 -78.249 31.038 Q -78.574 31.278 -78.831 31.502 L -78.831 34.381 Q -78.831 34.694 -78.786 34.874 Q -78.742 35.053 -78.562 35.126 Q -78.383 35.198 -77.98 35.198 L -77.98 35.512 L -80.545 35.512 L -80.545 35.198 Q -80.164 35.198 -80.002 35.126 Q -79.839 35.053 -79.8 34.874 Q -79.761 34.694 -79.761 34.381 L -79.761 31.234 Q -79.761 30.931 -79.884 30.836 Q -80.007 30.741 -80.231 30.741 Q -80.377 30.741 -80.455 30.752 Q -80.534 30.763 -80.534 30.763 L -80.534 30.438 L -79.111 30.114 L -78.854 30.114 L -78.865 31.021 L -78.82 31.021 Q -78.361 30.618 -77.952 30.349 Q -77.543 30.08 -77.017 30.08 Q -76.255 30.08 -75.886 30.595 Q -75.516 31.11 -75.516 32.074 Z " fill="black" /></g></g></g></svg>