<svg xmlns="http://www.w3.org/2000/svg" xml:lang="en" height="130.888pt" width="484.0176pt" viewBox="-38.41759999999999 -103.24799999999999 484.0176 130.888"><circle cx="2.204364238465236e-15" cy="-36.0" r="18.0" style="stroke:black;fill:none;stroke-width:2.0;" /><circle cx="288.0" cy="-36.0" r="18.0" style="stroke:black;fill:none;stroke-width:2.0;" /><path d="M 0.0,-0.0 L 0.0,14.4 L -9.0,14.4 L 9.0,14.4 M -6.3,18.72 L 6.3,18.72 M -1.8,23.04 L 1.8,23.04" style="stroke:black;fill:none;stroke-width:2.0;stroke-linecap:round;stroke-linejoin:round;" /><path d="M 0.0,-0.0 L 1.102182119232618e-15,-18.0 L 1.102182119232618e-15,-18.0 M 3.3065463576978533e-15,-54.0 L 3.3065463576978533e-15,-54.0 L 4.408728476930472e-15,-72.0" style="stroke:black;fill:none;stroke-width:2.0;stroke-linecap:round;stroke-linejoin:round;" /><path d="M 1.6532731788489267e-15,-27.0 L 2.204364238465236e-15,-36.0" style="stroke:black;fill:none;stroke-width:2.0;stroke-linecap:round;stroke-linejoin:round;" /><path d="M 2.6329906181668096e-15 -43.0 L 2.700000000000002 -36.0 L -2.6999999999999975 -36.0 Z" style="stroke:black;fill:black;stroke-linecap:butt;stroke-linejoin:miter;" /><path d="M 4.408728476930472e-15,-72.0 L 36.00000000000001,-72.0 L 72.0,-72.0" style="stroke:black;fill:none;stroke-width:2.0;stroke-linecap:round;stroke-linejoin:round;" /><path d="M 72.0,-72.0 L 72.0,-54.0 L 81.0,-50.99999999999999 L 63.0,-45.0 L 81.0,-39.00000000000001 L 62.99999999999999,-33.0 L 81.0,-27.0 L 62.99999999999999,-21.000000000000007 L 71.99999999999999,-18.0 L 71.99999999999999,-0.0" style="stroke:black;fill:none;stroke-width:2.0;stroke-linecap:round;stroke-linejoin:round;" /><path d="M 71.99999999999999,-0.0 L 71.99999999999999,14.4 L 62.999999999999986,14.4 L 80.99999999999999,14.4 M 65.69999999999999,18.72 L 78.29999999999998,18.72 M 70.19999999999999,23.04 L 73.79999999999998,23.04" style="stroke:black;fill:none;stroke-width:2.0;stroke-linecap:round;stroke-linejoin:round;" /><path d="M 72.0,-72.0 L 108.0,-72.0 L 144.0,-72.0" style="stroke:black;fill:none;stroke-width:2.0;stroke-linecap:round;stroke-linejoin:round;" /><path d="M 144.0,-72.0 L 144.0,-39.239999999999995 M 153.0,-39.239999999999995 L 135.0,-39.239999999999995 M 153.0,-32.76 L 135.0,-32.76 M 144.0,-32.76 L 143.99999999999997,-0.0" style="stroke:black;fill:none;stroke-width:2.0;stroke-linecap:round;stroke-linejoin:round;" /><path d="M 143.99999999999997,-0.0 L 143.99999999999997,14.4 L 134.99999999999997,14.4 L 153.0,14.4 M 137.7,18.72 L 150.29999999999998,18.72 M 142.2,23.04 L 145.79999999999998,23.04" style="stroke:black;fill:none;stroke-width:2.0;stroke-linecap:round;stroke-linejoin:round;" /><path d="M 144.0,-72.0 L 162.0,-72.0 L 165.0,-81.0 L 171.0,-63.0 L 177.0,-81.0 L 183.0,-63.0 L 189.0,-81.0 L 194.99999999999997,-63.0 L 198.0,-72.0 L 216.0,-72.0" style="stroke:black;fill:none;stroke-width:2.0;stroke-linecap:round;stroke-linejoin:round;" /><path d="M 216.0,-72.0 L 248.76,-72.0 M 248.76,-81.0 L 248.76,-63.0 M 255.24,-81.0 L 255.24,-63.0 M 255.24,-72.0 L 288.0,-72.0" style="stroke:black;fill:none;stroke-width:2.0;stroke-linecap:round;stroke-linejoin:round;" /><path d="M 288.0,-72.0 L 288.0,-54.0 L 288.0,-54.0 M 288.0,-18.0 L 288.0,-18.0 L 288.0,-0.0" style="stroke:black;fill:none;stroke-width:2.0;stroke-linecap:round;stroke-linejoin:round;" /><path d="M 288.0,-45.0 L 288.0,-36.0" style="stroke:black;fill:none;stroke-width:2.0;stroke-linecap:round;stroke-linejoin:round;" /><path d="M 288.0 -29.0 L 285.3 -36.0 L 290.7 -36.0 Z" style="stroke:black;fill:black;stroke-linecap:butt;stroke-linejoin:miter;" /><path d="M 288.0,-0.0 L 288.0,14.4 L 279.0,14.4 L 297.0,14.4 M 281.7,18.72 L 294.3,18.72 M 286.2,23.04 L 289.8,23.04" style="stroke:black;fill:none;stroke-width:2.0;stroke-linecap:round;stroke-linejoin:round;" /><path d="M 288.0,-72.0 L 324.0,-72.0 L 360.0,-72.0" style="stroke:black;fill:none;stroke-width:2.0;stroke-linecap:round;stroke-linejoin:round;" /><path d="M 360.0,-72.0 L 360.0,-54.0 L 369.0,-50.99999999999999 L 351.0,-45.0 L 369.0,-39.00000000000001 L 351.0,-33.0 L 369.0,-27.0 L 351.0,-21.000000000000007 L 360.0,-18.0 L 360.0,-0.0" style="stroke:black;fill:none;stroke-width:2.0;stroke-linecap:round;stroke-linejoin:round;" /><path d="M 360.0,-0.0 L 360.0,14.4 L 351.0,14.4 L 369.0,14.4 M 353.7,18.72 L 366.3,18.72 M 358.2,23.04 L 361.8,23.04" style="stroke:black;fill:none;stroke-width:2.0;stroke-linecap:round;stroke-linejoin:round;" /><path d="M 360.0,-72.0 L 396.0,-72.0 L 432.0,-72.0" style="stroke:black;fill:none;stroke-width:2.0;stroke-linecap:round;stroke-linejoin:round;" /><path d="M 432.0,-72.0 L 432.0,-39.239999999999995 M 441.0,-39.239999999999995 L 423.0,-39.239999999999995 M 441.0,-32.76 L 423.0,-32.76 M 432.0,-32.76 L 432.0,-0.0" style="stroke:black;fill:none;stroke-width:2.0;stroke-linecap:round;stroke-linejoin:round;" /><path d="M 432.0,-0.0 L 432.0,14.4 L 423.0,14.4 L 441.0,14.4 M 425.7,18.72 L 438.3,18.72 M 430.2,23.04 L 433.8,23.04" style="stroke:black;fill:none;stroke-width:2.0;stroke-linecap:round;stroke-linejoin:round;" /><g><g><g><path d="M -36.107 -34.52 L -36.107 -34.52 L -34.795 -40.824 Q -34.651 -41.448 -34.659 -41.808 Q -34.667 -42.168 -34.955 -42.312 Q -35.243 -42.456 -35.979 -42.456 L -35.883 -42.936 L -31.451 -42.936 L -31.547 -42.456 Q -32.251 -42.456 -32.603 -42.312 Q -32.955 -42.168 -33.099 -41.808 Q -33.243 -41.448 -33.371 -40.824 L -34.683 -34.456 Q -34.731 -34.2 -34.763 -33.992 Q -34.795 -33.784 -34.795 -33.608 Q -34.795 -33.16 -34.531 -33.032 Q -34.267 -32.904 -33.515 -32.904 L -33.611 -32.424 L -37.979 -32.424 L -37.883 -32.904 Q -37.227 -32.904 -36.899 -33.016 Q -36.571 -33.128 -36.411 -33.472 Q -36.251 -33.816 -36.107 -34.52 Z " fill="black" /><path d="M -28.573 -29.378 L -28.573 -29.378 L -28.573 -29.064 L -31.093 -29.064 L -31.093 -29.378 Q -30.712 -29.378 -30.55 -29.45 Q -30.387 -29.523 -30.348 -29.702 Q -30.309 -29.882 -30.309 -30.195 L -30.309 -33.32 Q -30.309 -33.678 -30.432 -33.762 Q -30.555 -33.846 -30.802 -33.846 Q -30.914 -33.846 -30.998 -33.835 Q -31.082 -33.824 -31.082 -33.824 L -31.082 -34.149 L -29.67 -34.462 L -29.379 -34.462 L -29.379 -30.195 Q -29.379 -29.87 -29.334 -29.691 Q -29.29 -29.512 -29.116 -29.445 Q -28.942 -29.378 -28.573 -29.378 Z M -29.827 -36.602 L -29.827 -36.602 Q -29.536 -36.602 -29.362 -36.417 Q -29.189 -36.232 -29.189 -35.974 Q -29.189 -35.717 -29.362 -35.526 Q -29.536 -35.336 -29.827 -35.336 Q -30.107 -35.336 -30.286 -35.526 Q -30.466 -35.717 -30.466 -35.974 Q -30.466 -36.232 -30.292 -36.417 Q -30.118 -36.602 -29.827 -36.602 Z " fill="black" /><path d="M -22.872 -32.502 L -22.872 -32.502 L -22.872 -30.195 Q -22.872 -29.882 -22.822 -29.702 Q -22.771 -29.523 -22.592 -29.45 Q -22.413 -29.378 -22.043 -29.378 L -22.043 -29.064 L -24.63 -29.064 L -24.63 -29.378 Q -24.227 -29.378 -24.054 -29.45 Q -23.88 -29.523 -23.841 -29.702 Q -23.802 -29.882 -23.802 -30.195 L -23.802 -32.222 Q -23.802 -32.894 -23.953 -33.23 Q -24.104 -33.566 -24.339 -33.673 Q -24.574 -33.779 -24.832 -33.779 Q -25.28 -33.779 -25.605 -33.538 Q -25.93 -33.298 -26.187 -33.074 L -26.187 -30.195 Q -26.187 -29.882 -26.142 -29.702 Q -26.098 -29.523 -25.918 -29.45 Q -25.739 -29.378 -25.336 -29.378 L -25.336 -29.064 L -27.901 -29.064 L -27.901 -29.378 Q -27.52 -29.378 -27.358 -29.45 Q -27.195 -29.523 -27.156 -29.702 Q -27.117 -29.882 -27.117 -30.195 L -27.117 -33.342 Q -27.117 -33.645 -27.24 -33.74 Q -27.363 -33.835 -27.587 -33.835 Q -27.733 -33.835 -27.811 -33.824 Q -27.89 -33.813 -27.89 -33.813 L -27.89 -34.138 L -26.467 -34.462 L -26.21 -34.462 L -26.221 -33.555 L -26.176 -33.555 Q -25.717 -33.958 -25.308 -34.227 Q -24.899 -34.496 -24.373 -34.496 Q -23.611 -34.496 -23.242 -33.981 Q -22.872 -33.466 -22.872 -32.502 Z " fill="black" /></g></g></g><circle cx="72.0" cy="-72.0" r="2.6999999999999997" style="stroke:black;fill:black;stroke-width:2.0;" /><g><g><g><path d="M 49.501 -41.44 L 49.501 -41.44 L 49.405 -40.624 L 48.013 -40.784 L 48.013 -40.736 Q 48.285 -40.432 48.437 -39.976 Q 48.589 -39.52 48.589 -39.104 Q 48.589 -38.384 48.301 -37.896 Q 48.013 -37.408 47.549 -37.112 Q 47.085 -36.816 46.525 -36.664 Q 45.965 -36.512 45.437 -36.464 Q 44.797 -36.4 44.533 -36.192 Q 44.269 -35.984 44.269 -35.76 Q 44.269 -35.472 44.589 -35.32 Q 44.909 -35.168 45.413 -35.072 Q 45.917 -34.976 46.493 -34.856 Q 47.069 -34.736 47.573 -34.528 Q 48.077 -34.32 48.397 -33.944 Q 48.717 -33.568 48.717 -32.944 Q 48.717 -32.256 48.269 -31.672 Q 47.821 -31.088 46.941 -30.728 Q 46.061 -30.368 44.781 -30.368 Q 43.629 -30.368 42.941 -30.648 Q 42.253 -30.928 41.949 -31.368 Q 41.645 -31.808 41.645 -32.288 Q 41.645 -33.056 42.237 -33.528 Q 42.829 -34 43.581 -34.24 L 43.581 -34.304 Q 43.373 -34.432 43.189 -34.664 Q 43.005 -34.896 43.005 -35.264 Q 43.005 -35.664 43.213 -35.904 Q 43.421 -36.144 43.749 -36.296 Q 44.077 -36.448 44.397 -36.56 L 44.397 -36.656 Q 43.773 -36.928 43.309 -37.424 Q 42.845 -37.92 42.845 -38.832 Q 42.845 -39.664 43.245 -40.296 Q 43.645 -40.928 44.341 -41.28 Q 45.037 -41.632 45.901 -41.632 Q 46.477 -41.632 46.773 -41.576 Q 47.069 -41.52 47.357 -41.44 Z M 47.565 -32.352 L 47.565 -32.352 Q 47.565 -32.832 47.165 -33.128 Q 46.765 -33.424 46.173 -33.6 Q 45.581 -33.776 44.981 -33.88 Q 44.381 -33.984 43.965 -34.064 Q 43.565 -33.808 43.229 -33.48 Q 42.893 -33.152 42.893 -32.528 Q 42.893 -31.888 43.389 -31.408 Q 43.885 -30.928 45.101 -30.928 Q 46.253 -30.928 46.909 -31.352 Q 47.565 -31.776 47.565 -32.352 Z M 47.165 -39.28 L 47.165 -39.28 Q 47.165 -40.08 46.861 -40.616 Q 46.557 -41.152 45.853 -41.152 Q 45.165 -41.152 44.717 -40.576 Q 44.269 -40 44.269 -38.832 Q 44.269 -38 44.557 -37.48 Q 44.845 -36.96 45.533 -36.96 Q 46.333 -36.96 46.749 -37.632 Q 47.165 -38.304 47.165 -39.28 Z " fill="black" /><path d="M 52.603 -30.922 L 52.603 -30.922 L 52.603 -30.608 L 50.083 -30.608 L 50.083 -30.922 Q 50.464 -30.922 50.626 -30.994 Q 50.789 -31.067 50.828 -31.246 Q 50.867 -31.426 50.867 -31.739 L 50.867 -34.864 Q 50.867 -35.222 50.744 -35.306 Q 50.621 -35.39 50.374 -35.39 Q 50.262 -35.39 50.178 -35.379 Q 50.094 -35.368 50.094 -35.368 L 50.094 -35.693 L 51.506 -36.006 L 51.797 -36.006 L 51.797 -31.739 Q 51.797 -31.414 51.842 -31.235 Q 51.886 -31.056 52.06 -30.989 Q 52.234 -30.922 52.603 -30.922 Z M 51.349 -38.146 L 51.349 -38.146 Q 51.64 -38.146 51.814 -37.961 Q 51.987 -37.776 51.987 -37.518 Q 51.987 -37.261 51.814 -37.07 Q 51.64 -36.88 51.349 -36.88 Q 51.069 -36.88 50.89 -37.07 Q 50.71 -37.261 50.71 -37.518 Q 50.71 -37.776 50.884 -37.961 Q 51.058 -38.146 51.349 -38.146 Z " fill="black" /><path d="M 58.304 -34.046 L 58.304 -34.046 L 58.304 -31.739 Q 58.304 -31.426 58.354 -31.246 Q 58.405 -31.067 58.584 -30.994 Q 58.763 -30.922 59.133 -30.922 L 59.133 -30.608 L 56.546 -30.608 L 56.546 -30.922 Q 56.949 -30.922 57.122 -30.994 Q 57.296 -31.067 57.335 -31.246 Q 57.374 -31.426 57.374 -31.739 L 57.374 -33.766 Q 57.374 -34.438 57.223 -34.774 Q 57.072 -35.11 56.837 -35.217 Q 56.602 -35.323 56.344 -35.323 Q 55.896 -35.323 55.571 -35.082 Q 55.246 -34.842 54.989 -34.618 L 54.989 -31.739 Q 54.989 -31.426 55.034 -31.246 Q 55.078 -31.067 55.258 -30.994 Q 55.437 -30.922 55.84 -30.922 L 55.84 -30.608 L 53.275 -30.608 L 53.275 -30.922 Q 53.656 -30.922 53.818 -30.994 Q 53.981 -31.067 54.02 -31.246 Q 54.059 -31.426 54.059 -31.739 L 54.059 -34.886 Q 54.059 -35.189 53.936 -35.284 Q 53.813 -35.379 53.589 -35.379 Q 53.443 -35.379 53.365 -35.368 Q 53.286 -35.357 53.286 -35.357 L 53.286 -35.682 L 54.709 -36.006 L 54.966 -36.006 L 54.955 -35.099 L 55 -35.099 Q 55.459 -35.502 55.868 -35.771 Q 56.277 -36.04 56.803 -36.04 Q 57.565 -36.04 57.934 -35.525 Q 58.304 -35.01 58.304 -34.046 Z " fill="black" /></g></g></g><circle cx="144.0" cy="-72.0" r="2.6999999999999997" style="stroke:black;fill:black;stroke-width:2.0;" /><g><g><g><path d="M 105.268 -86.292 L 105.268 -86.292 L 109.636 -92.852 Q 109.86 -93.172 109.996 -93.444 Q 110.132 -93.716 110.132 -93.908 Q 110.132 -94.148 109.924 -94.236 Q 109.716 -94.324 109.172 -94.324 L 109.204 -94.804 L 112.66 -94.804 L 112.628 -94.324 Q 112.196 -94.324 111.892 -94.196 Q 111.588 -94.068 111.276 -93.708 Q 110.964 -93.348 110.468 -92.612 L 104.596 -84.212 L 104.068 -84.212 L 103.172 -92.868 Q 103.076 -93.668 102.82 -93.996 Q 102.564 -94.324 101.924 -94.324 L 101.956 -94.804 L 105.876 -94.804 L 105.828 -94.324 Q 105.22 -94.324 104.868 -94.084 Q 104.516 -93.844 104.548 -93.3 Q 104.548 -93.22 104.572 -93.012 Q 104.596 -92.804 104.596 -92.724 L 105.076 -88.164 L 105.188 -86.292 Z " fill="black" /><path d="M 110.541 -82.993 L 110.541 -82.993 L 110.541 -83.015 Q 110.138 -83.25 109.908 -83.62 Q 109.679 -83.99 109.679 -84.538 Q 109.679 -85.378 110.25 -85.871 Q 110.821 -86.364 111.706 -86.364 Q 112.076 -86.364 112.356 -86.297 Q 112.636 -86.23 112.792 -86.157 Q 112.949 -86.084 112.949 -86.084 L 114.394 -86.162 L 114.394 -85.558 L 113.341 -85.591 L 113.341 -85.535 Q 113.464 -85.367 113.604 -85.087 Q 113.744 -84.807 113.744 -84.382 Q 113.744 -83.598 113.196 -83.138 Q 112.647 -82.679 111.762 -82.679 Q 111.493 -82.679 111.258 -82.724 Q 111.023 -82.769 110.799 -82.847 Q 110.72 -82.735 110.614 -82.489 Q 110.508 -82.242 110.508 -82.097 Q 110.508 -81.85 110.782 -81.75 Q 111.056 -81.649 111.829 -81.649 Q 112.535 -81.649 113.1 -81.582 Q 113.666 -81.514 113.991 -81.234 Q 114.316 -80.954 114.316 -80.316 Q 114.316 -79.756 114.041 -79.37 Q 113.767 -78.983 113.313 -78.748 Q 112.86 -78.513 112.316 -78.406 Q 111.773 -78.3 111.247 -78.3 Q 110.519 -78.3 110.099 -78.479 Q 109.679 -78.658 109.511 -78.944 Q 109.343 -79.23 109.343 -79.532 Q 109.343 -79.812 109.572 -80.12 Q 109.802 -80.428 110.25 -80.865 L 110.25 -80.91 Q 109.97 -81.055 109.796 -81.268 Q 109.623 -81.481 109.623 -81.716 Q 109.623 -82.018 109.886 -82.354 Q 110.149 -82.69 110.541 -82.993 Z M 110.53 -80.82 L 110.53 -80.82 Q 110.351 -80.506 110.284 -80.299 Q 110.216 -80.092 110.216 -79.913 Q 110.216 -78.938 111.896 -78.938 Q 112.557 -78.938 112.966 -79.106 Q 113.375 -79.274 113.56 -79.521 Q 113.744 -79.767 113.744 -80.002 Q 113.744 -80.294 113.565 -80.456 Q 113.386 -80.618 113.1 -80.686 Q 112.815 -80.753 112.496 -80.775 Q 112.176 -80.798 111.896 -80.798 Q 111.829 -80.798 111.796 -80.798 Q 111.348 -80.809 111.101 -80.809 Q 110.855 -80.809 110.732 -80.814 Q 110.608 -80.82 110.53 -80.82 Z M 111.628 -85.961 L 111.628 -85.961 Q 111.191 -85.961 110.928 -85.625 Q 110.664 -85.289 110.664 -84.583 Q 110.664 -83.866 110.944 -83.469 Q 111.224 -83.071 111.773 -83.071 Q 112.199 -83.071 112.473 -83.362 Q 112.748 -83.654 112.748 -84.449 Q 112.748 -85.132 112.456 -85.546 Q 112.165 -85.961 111.628 -85.961 Z " fill="black" /><path d="M 114.965 -82.769 L 114.965 -82.769 L 115.256 -82.769 Q 115.436 -81.906 115.783 -81.565 Q 116.13 -81.223 116.746 -81.223 Q 117.172 -81.223 117.44 -81.397 Q 117.709 -81.57 117.709 -81.962 Q 117.709 -82.231 117.614 -82.41 Q 117.519 -82.59 117.25 -82.774 Q 116.981 -82.959 116.455 -83.217 Q 115.693 -83.609 115.335 -83.973 Q 114.976 -84.337 114.976 -84.953 Q 114.976 -85.647 115.475 -86.006 Q 115.973 -86.364 116.69 -86.364 Q 117.116 -86.364 117.384 -86.269 Q 117.653 -86.174 117.866 -86.073 L 117.877 -86.073 L 118.068 -86.308 L 118.292 -86.308 L 118.325 -84.594 L 118.023 -84.594 Q 117.844 -85.39 117.519 -85.686 Q 117.194 -85.983 116.679 -85.983 Q 116.298 -85.983 116.035 -85.804 Q 115.772 -85.625 115.772 -85.244 Q 115.772 -84.919 116.074 -84.662 Q 116.376 -84.404 117.082 -84.046 Q 117.844 -83.642 118.247 -83.267 Q 118.65 -82.892 118.65 -82.265 Q 118.65 -81.738 118.392 -81.419 Q 118.135 -81.1 117.704 -80.954 Q 117.272 -80.809 116.768 -80.809 Q 116.287 -80.809 116.001 -80.91 Q 115.716 -81.01 115.492 -81.1 L 115.469 -81.1 L 115.234 -80.842 L 114.999 -80.842 Z " fill="black" /></g></g></g><g><g><g><path d="M 121.517 -34.64 L 121.517 -34.64 L 121.805 -34.336 Q 120.989 -33.376 119.917 -32.76 Q 118.845 -32.144 117.325 -32.144 Q 115.885 -32.144 115.021 -32.68 Q 114.157 -33.216 113.781 -34.112 Q 113.405 -35.008 113.405 -36.064 Q 113.405 -37.744 113.917 -39.048 Q 114.429 -40.352 115.317 -41.24 Q 116.205 -42.128 117.325 -42.584 Q 118.445 -43.04 119.661 -43.04 Q 120.477 -43.04 120.933 -42.896 Q 121.389 -42.752 121.645 -42.6 Q 121.901 -42.448 122.093 -42.448 Q 122.285 -42.448 122.429 -42.608 Q 122.573 -42.768 122.765 -43.024 L 123.229 -43.024 L 122.477 -39.36 L 121.949 -39.36 Q 122.013 -40.96 121.357 -41.656 Q 120.701 -42.352 119.517 -42.352 Q 118.589 -42.352 117.773 -41.928 Q 116.957 -41.504 116.325 -40.728 Q 115.693 -39.952 115.333 -38.872 Q 114.973 -37.792 114.973 -36.464 Q 114.973 -34.864 115.733 -34.024 Q 116.493 -33.184 118.077 -33.184 Q 119.917 -33.184 121.517 -34.64 Z " fill="black" /><path d="M 125.595 -29.274 L 125.595 -29.274 L 125.595 -28.96 L 123.075 -28.96 L 123.075 -29.274 Q 123.456 -29.274 123.618 -29.346 Q 123.781 -29.419 123.82 -29.598 Q 123.859 -29.778 123.859 -30.091 L 123.859 -33.216 Q 123.859 -33.574 123.736 -33.658 Q 123.613 -33.742 123.366 -33.742 Q 123.254 -33.742 123.17 -33.731 Q 123.086 -33.72 123.086 -33.72 L 123.086 -34.045 L 124.498 -34.358 L 124.789 -34.358 L 124.789 -30.091 Q 124.789 -29.766 124.834 -29.587 Q 124.878 -29.408 125.052 -29.341 Q 125.226 -29.274 125.595 -29.274 Z M 124.341 -36.498 L 124.341 -36.498 Q 124.632 -36.498 124.806 -36.313 Q 124.979 -36.128 124.979 -35.87 Q 124.979 -35.613 124.806 -35.422 Q 124.632 -35.232 124.341 -35.232 Q 124.061 -35.232 123.882 -35.422 Q 123.702 -35.613 123.702 -35.87 Q 123.702 -36.128 123.876 -36.313 Q 124.05 -36.498 124.341 -36.498 Z " fill="black" /><path d="M 131.296 -32.398 L 131.296 -32.398 L 131.296 -30.091 Q 131.296 -29.778 131.346 -29.598 Q 131.397 -29.419 131.576 -29.346 Q 131.755 -29.274 132.125 -29.274 L 132.125 -28.96 L 129.538 -28.96 L 129.538 -29.274 Q 129.941 -29.274 130.114 -29.346 Q 130.288 -29.419 130.327 -29.598 Q 130.366 -29.778 130.366 -30.091 L 130.366 -32.118 Q 130.366 -32.79 130.215 -33.126 Q 130.064 -33.462 129.829 -33.569 Q 129.594 -33.675 129.336 -33.675 Q 128.888 -33.675 128.563 -33.434 Q 128.238 -33.194 127.981 -32.97 L 127.981 -30.091 Q 127.981 -29.778 128.026 -29.598 Q 128.07 -29.419 128.25 -29.346 Q 128.429 -29.274 128.832 -29.274 L 128.832 -28.96 L 126.267 -28.96 L 126.267 -29.274 Q 126.648 -29.274 126.81 -29.346 Q 126.973 -29.419 127.012 -29.598 Q 127.051 -29.778 127.051 -30.091 L 127.051 -33.238 Q 127.051 -33.541 126.928 -33.636 Q 126.805 -33.731 126.581 -33.731 Q 126.435 -33.731 126.357 -33.72 Q 126.278 -33.709 126.278 -33.709 L 126.278 -34.034 L 127.701 -34.358 L 127.958 -34.358 L 127.947 -33.451 L 127.992 -33.451 Q 128.451 -33.854 128.86 -34.123 Q 129.269 -34.392 129.795 -34.392 Q 130.557 -34.392 130.926 -33.877 Q 131.296 -33.362 131.296 -32.398 Z " fill="black" /></g></g></g><g><g><g><path d="M 179.333 -96.264 L 179.333 -96.264 Q 179.333 -95.416 179.013 -94.84 Q 178.693 -94.264 178.181 -93.896 Q 177.669 -93.528 177.085 -93.328 Q 176.501 -93.128 175.973 -93.032 L 175.973 -92.952 Q 176.261 -92.76 176.517 -92.368 Q 176.773 -91.976 177.149 -91.24 Q 177.525 -90.504 178.181 -89.256 Q 178.453 -88.776 178.781 -88.608 Q 179.109 -88.44 179.653 -88.44 L 179.557 -87.96 L 177.125 -87.96 Q 176.677 -88.952 176.373 -89.616 Q 176.069 -90.28 175.845 -90.728 Q 175.621 -91.176 175.453 -91.528 Q 175.285 -91.88 175.093 -92.248 Q 174.917 -92.584 174.709 -92.688 Q 174.501 -92.792 174.069 -92.792 L 173.733 -92.792 L 173.141 -89.944 Q 173.013 -89.288 173.053 -88.96 Q 173.093 -88.632 173.413 -88.536 Q 173.733 -88.44 174.421 -88.44 L 174.341 -87.96 L 169.925 -87.96 L 170.021 -88.44 Q 170.613 -88.44 170.933 -88.536 Q 171.253 -88.632 171.421 -88.952 Q 171.589 -89.272 171.717 -89.944 L 173.125 -96.808 Q 173.221 -97.256 173.173 -97.512 Q 173.125 -97.768 172.845 -97.88 Q 172.565 -97.992 171.925 -97.992 L 172.021 -98.472 L 175.781 -98.472 Q 177.461 -98.472 178.397 -97.952 Q 179.333 -97.432 179.333 -96.264 Z M 174.741 -97.8 L 174.741 -97.8 L 173.845 -93.384 L 174.341 -93.368 Q 175.301 -93.4 176.077 -93.68 Q 176.853 -93.96 177.301 -94.568 Q 177.749 -95.176 177.749 -96.2 Q 177.749 -96.632 177.565 -97.008 Q 177.381 -97.384 176.933 -97.616 Q 176.485 -97.848 175.685 -97.848 Q 175.381 -97.848 175.197 -97.84 Q 175.013 -97.832 174.741 -97.8 Z " fill="black" /><path d="M 182.461 -88.598 L 182.461 -88.598 L 182.461 -85.686 Q 182.461 -85.216 182.623 -85.07 Q 182.786 -84.925 183.301 -84.925 L 183.301 -84.6 L 180.747 -84.6 L 180.747 -84.925 Q 181.106 -84.925 181.268 -84.986 Q 181.43 -85.048 181.481 -85.222 Q 181.531 -85.395 181.531 -85.731 L 181.531 -88.867 Q 181.531 -89.17 181.414 -89.27 Q 181.296 -89.371 181.061 -89.371 Q 180.938 -89.371 180.848 -89.36 Q 180.758 -89.349 180.758 -89.349 L 180.758 -89.674 L 182.158 -89.998 L 182.427 -89.998 L 182.427 -89.091 L 182.472 -89.091 Q 182.931 -89.483 183.357 -89.758 Q 183.782 -90.032 184.354 -90.032 Q 184.835 -90.032 185.132 -89.769 Q 185.429 -89.506 185.597 -89.102 L 185.642 -89.102 Q 186.101 -89.562 186.538 -89.797 Q 186.974 -90.032 187.422 -90.032 Q 188.083 -90.032 188.475 -89.618 Q 188.867 -89.203 188.867 -88.184 L 188.867 -85.899 Q 188.867 -85.552 188.906 -85.334 Q 188.946 -85.115 189.119 -85.02 Q 189.293 -84.925 189.674 -84.925 L 189.674 -84.6 L 187.142 -84.6 L 187.142 -84.925 Q 187.523 -84.925 187.691 -85.026 Q 187.859 -85.126 187.898 -85.345 Q 187.938 -85.563 187.938 -85.899 L 187.938 -88.05 Q 187.938 -88.565 187.809 -88.834 Q 187.68 -89.102 187.462 -89.209 Q 187.243 -89.315 186.974 -89.315 Q 186.627 -89.315 186.297 -89.086 Q 185.966 -88.856 185.686 -88.621 L 185.686 -85.899 Q 185.686 -85.518 185.737 -85.306 Q 185.787 -85.093 185.966 -85.009 Q 186.146 -84.925 186.549 -84.925 L 186.549 -84.6 L 183.894 -84.6 L 183.894 -84.925 Q 184.298 -84.925 184.477 -85.003 Q 184.656 -85.082 184.706 -85.294 Q 184.757 -85.507 184.757 -85.899 L 184.757 -88.117 Q 184.757 -88.834 184.505 -89.074 Q 184.253 -89.315 183.861 -89.315 Q 183.424 -89.315 183.066 -89.069 Q 182.707 -88.822 182.461 -88.598 Z " fill="black" /></g></g></g><circle cx="288.0" cy="-72.0" r="2.6999999999999997" style="stroke:black;fill:black;stroke-width:2.0;" /><g><g><g><path d="M 252.995 -90.28 L 252.995 -90.28 L 253.283 -89.976 Q 252.467 -89.016 251.395 -88.4 Q 250.323 -87.784 248.803 -87.784 Q 247.363 -87.784 246.499 -88.32 Q 245.635 -88.856 245.259 -89.752 Q 244.883 -90.648 244.883 -91.704 Q 244.883 -93.384 245.395 -94.688 Q 245.907 -95.992 246.795 -96.88 Q 247.683 -97.768 248.803 -98.224 Q 249.923 -98.68 251.139 -98.68 Q 251.955 -98.68 252.411 -98.536 Q 252.867 -98.392 253.123 -98.24 Q 253.379 -98.088 253.571 -98.088 Q 253.763 -98.088 253.907 -98.248 Q 254.051 -98.408 254.243 -98.664 L 254.707 -98.664 L 253.955 -95 L 253.427 -95 Q 253.491 -96.6 252.835 -97.296 Q 252.179 -97.992 250.995 -97.992 Q 250.067 -97.992 249.251 -97.568 Q 248.435 -97.144 247.803 -96.368 Q 247.171 -95.592 246.811 -94.512 Q 246.451 -93.432 246.451 -92.104 Q 246.451 -90.504 247.211 -89.664 Q 247.971 -88.824 249.555 -88.824 Q 251.395 -88.824 252.995 -90.28 Z " fill="black" /><path d="M 256.267 -88.598 L 256.267 -88.598 L 256.267 -85.686 Q 256.267 -85.216 256.429 -85.07 Q 256.592 -84.925 257.107 -84.925 L 257.107 -84.6 L 254.553 -84.6 L 254.553 -84.925 Q 254.912 -84.925 255.074 -84.986 Q 255.236 -85.048 255.287 -85.222 Q 255.337 -85.395 255.337 -85.731 L 255.337 -88.867 Q 255.337 -89.17 255.22 -89.27 Q 255.102 -89.371 254.867 -89.371 Q 254.744 -89.371 254.654 -89.36 Q 254.564 -89.349 254.564 -89.349 L 254.564 -89.674 L 255.964 -89.998 L 256.233 -89.998 L 256.233 -89.091 L 256.278 -89.091 Q 256.737 -89.483 257.163 -89.758 Q 257.588 -90.032 258.16 -90.032 Q 258.641 -90.032 258.938 -89.769 Q 259.235 -89.506 259.403 -89.102 L 259.448 -89.102 Q 259.907 -89.562 260.344 -89.797 Q 260.78 -90.032 261.228 -90.032 Q 261.889 -90.032 262.281 -89.618 Q 262.673 -89.203 262.673 -88.184 L 262.673 -85.899 Q 262.673 -85.552 262.712 -85.334 Q 262.752 -85.115 262.925 -85.02 Q 263.099 -84.925 263.48 -84.925 L 263.48 -84.6 L 260.948 -84.6 L 260.948 -84.925 Q 261.329 -84.925 261.497 -85.026 Q 261.665 -85.126 261.704 -85.345 Q 261.744 -85.563 261.744 -85.899 L 261.744 -88.05 Q 261.744 -88.565 261.615 -88.834 Q 261.486 -89.102 261.268 -89.209 Q 261.049 -89.315 260.78 -89.315 Q 260.433 -89.315 260.103 -89.086 Q 259.772 -88.856 259.492 -88.621 L 259.492 -85.899 Q 259.492 -85.518 259.543 -85.306 Q 259.593 -85.093 259.772 -85.009 Q 259.952 -84.925 260.355 -84.925 L 260.355 -84.6 L 257.7 -84.6 L 257.7 -84.925 Q 258.104 -84.925 258.283 -85.003 Q 258.462 -85.082 258.512 -85.294 Q 258.563 -85.507 258.563 -85.899 L 258.563 -88.117 Q 258.563 -88.834 258.311 -89.074 Q 258.059 -89.315 257.667 -89.315 Q 257.23 -89.315 256.872 -89.069 Q 256.513 -88.822 256.267 -88.598 Z " fill="black" /></g></g></g><g><g><g><path d="M 238.485 -41.212 L 238.485 -41.212 L 238.389 -40.396 L 236.997 -40.556 L 236.997 -40.508 Q 237.269 -40.204 237.421 -39.748 Q 237.573 -39.292 237.573 -38.876 Q 237.573 -38.156 237.285 -37.668 Q 236.997 -37.18 236.533 -36.884 Q 236.069 -36.588 235.509 -36.436 Q 234.949 -36.284 234.421 -36.236 Q 233.781 -36.172 233.517 -35.964 Q 233.253 -35.756 233.253 -35.532 Q 233.253 -35.244 233.573 -35.092 Q 233.893 -34.94 234.397 -34.844 Q 234.901 -34.748 235.477 -34.628 Q 236.053 -34.508 236.557 -34.3 Q 237.061 -34.092 237.381 -33.716 Q 237.701 -33.34 237.701 -32.716 Q 237.701 -32.028 237.253 -31.444 Q 236.805 -30.86 235.925 -30.5 Q 235.045 -30.14 233.765 -30.14 Q 232.613 -30.14 231.925 -30.42 Q 231.237 -30.7 230.933 -31.14 Q 230.629 -31.58 230.629 -32.06 Q 230.629 -32.828 231.221 -33.3 Q 231.813 -33.772 232.565 -34.012 L 232.565 -34.076 Q 232.357 -34.204 232.173 -34.436 Q 231.989 -34.668 231.989 -35.036 Q 231.989 -35.436 232.197 -35.676 Q 232.405 -35.916 232.733 -36.068 Q 233.061 -36.22 233.381 -36.332 L 233.381 -36.428 Q 232.757 -36.7 232.293 -37.196 Q 231.829 -37.692 231.829 -38.604 Q 231.829 -39.436 232.229 -40.068 Q 232.629 -40.7 233.325 -41.052 Q 234.021 -41.404 234.885 -41.404 Q 235.461 -41.404 235.757 -41.348 Q 236.053 -41.292 236.341 -41.212 Z M 236.549 -32.124 L 236.549 -32.124 Q 236.549 -32.604 236.149 -32.9 Q 235.749 -33.196 235.157 -33.372 Q 234.565 -33.548 233.965 -33.652 Q 233.365 -33.756 232.949 -33.836 Q 232.549 -33.58 232.213 -33.252 Q 231.877 -32.924 231.877 -32.3 Q 231.877 -31.66 232.373 -31.18 Q 232.869 -30.7 234.085 -30.7 Q 235.237 -30.7 235.893 -31.124 Q 236.549 -31.548 236.549 -32.124 Z M 236.149 -39.052 L 236.149 -39.052 Q 236.149 -39.852 235.845 -40.388 Q 235.541 -40.924 234.837 -40.924 Q 234.149 -40.924 233.701 -40.348 Q 233.253 -39.772 233.253 -38.604 Q 233.253 -37.772 233.541 -37.252 Q 233.829 -36.732 234.517 -36.732 Q 235.317 -36.732 235.733 -37.404 Q 236.149 -38.076 236.149 -39.052 Z " fill="black" /><path d="M 240.781 -34.378 L 240.781 -34.378 L 240.781 -31.466 Q 240.781 -30.996 240.943 -30.85 Q 241.106 -30.705 241.621 -30.705 L 241.621 -30.38 L 239.067 -30.38 L 239.067 -30.705 Q 239.426 -30.705 239.588 -30.766 Q 239.75 -30.828 239.801 -31.002 Q 239.851 -31.175 239.851 -31.511 L 239.851 -34.647 Q 239.851 -34.95 239.734 -35.05 Q 239.616 -35.151 239.381 -35.151 Q 239.258 -35.151 239.168 -35.14 Q 239.078 -35.129 239.078 -35.129 L 239.078 -35.454 L 240.478 -35.778 L 240.747 -35.778 L 240.747 -34.871 L 240.792 -34.871 Q 241.251 -35.263 241.677 -35.538 Q 242.102 -35.812 242.674 -35.812 Q 243.155 -35.812 243.452 -35.549 Q 243.749 -35.286 243.917 -34.882 L 243.962 -34.882 Q 244.421 -35.342 244.858 -35.577 Q 245.294 -35.812 245.742 -35.812 Q 246.403 -35.812 246.795 -35.398 Q 247.187 -34.983 247.187 -33.964 L 247.187 -31.679 Q 247.187 -31.332 247.226 -31.114 Q 247.266 -30.895 247.439 -30.8 Q 247.613 -30.705 247.994 -30.705 L 247.994 -30.38 L 245.462 -30.38 L 245.462 -30.705 Q 245.843 -30.705 246.011 -30.806 Q 246.179 -30.906 246.218 -31.125 Q 246.258 -31.343 246.258 -31.679 L 246.258 -33.83 Q 246.258 -34.345 246.129 -34.614 Q 246 -34.882 245.782 -34.989 Q 245.563 -35.095 245.294 -35.095 Q 244.947 -35.095 244.617 -34.866 Q 244.286 -34.636 244.006 -34.401 L 244.006 -31.679 Q 244.006 -31.298 244.057 -31.086 Q 244.107 -30.873 244.286 -30.789 Q 244.466 -30.705 244.869 -30.705 L 244.869 -30.38 L 242.214 -30.38 L 242.214 -30.705 Q 242.618 -30.705 242.797 -30.783 Q 242.976 -30.862 243.026 -31.074 Q 243.077 -31.287 243.077 -31.679 L 243.077 -33.897 Q 243.077 -34.614 242.825 -34.854 Q 242.573 -35.095 242.181 -35.095 Q 241.744 -35.095 241.386 -34.849 Q 241.027 -34.602 240.781 -34.378 Z " fill="black" /><path d="M 252.683 -35.74 L 252.683 -35.74 L 257.051 -42.3 Q 257.275 -42.62 257.411 -42.892 Q 257.547 -43.164 257.547 -43.356 Q 257.547 -43.596 257.339 -43.684 Q 257.131 -43.772 256.587 -43.772 L 256.619 -44.252 L 260.075 -44.252 L 260.043 -43.772 Q 259.611 -43.772 259.307 -43.644 Q 259.003 -43.516 258.691 -43.156 Q 258.379 -42.796 257.883 -42.06 L 252.011 -33.66 L 251.483 -33.66 L 250.587 -42.316 Q 250.491 -43.116 250.235 -43.444 Q 249.979 -43.772 249.339 -43.772 L 249.371 -44.252 L 253.291 -44.252 L 253.243 -43.772 Q 252.635 -43.772 252.283 -43.532 Q 251.931 -43.292 251.963 -42.748 Q 251.963 -42.668 251.987 -42.46 Q 252.011 -42.252 252.011 -42.172 L 252.491 -37.612 L 252.603 -35.74 Z " fill="black" /><path d="M 257.957 -32.441 L 257.957 -32.441 L 257.957 -32.463 Q 257.554 -32.698 257.324 -33.068 Q 257.094 -33.438 257.094 -33.986 Q 257.094 -34.826 257.666 -35.319 Q 258.237 -35.812 259.122 -35.812 Q 259.491 -35.812 259.771 -35.745 Q 260.051 -35.678 260.208 -35.605 Q 260.365 -35.532 260.365 -35.532 L 261.81 -35.61 L 261.81 -35.006 L 260.757 -35.039 L 260.757 -34.983 Q 260.88 -34.815 261.02 -34.535 Q 261.16 -34.255 261.16 -33.83 Q 261.16 -33.046 260.611 -32.586 Q 260.062 -32.127 259.178 -32.127 Q 258.909 -32.127 258.674 -32.172 Q 258.438 -32.217 258.214 -32.295 Q 258.136 -32.183 258.03 -31.937 Q 257.923 -31.69 257.923 -31.545 Q 257.923 -31.298 258.198 -31.198 Q 258.472 -31.097 259.245 -31.097 Q 259.95 -31.097 260.516 -31.03 Q 261.082 -30.962 261.406 -30.682 Q 261.731 -30.402 261.731 -29.764 Q 261.731 -29.204 261.457 -28.818 Q 261.182 -28.431 260.729 -28.196 Q 260.275 -27.961 259.732 -27.854 Q 259.189 -27.748 258.662 -27.748 Q 257.934 -27.748 257.514 -27.927 Q 257.094 -28.106 256.926 -28.392 Q 256.758 -28.678 256.758 -28.98 Q 256.758 -29.26 256.988 -29.568 Q 257.218 -29.876 257.666 -30.313 L 257.666 -30.358 Q 257.386 -30.503 257.212 -30.716 Q 257.038 -30.929 257.038 -31.164 Q 257.038 -31.466 257.302 -31.802 Q 257.565 -32.138 257.957 -32.441 Z M 257.946 -30.268 L 257.946 -30.268 Q 257.766 -29.954 257.699 -29.747 Q 257.632 -29.54 257.632 -29.361 Q 257.632 -28.386 259.312 -28.386 Q 259.973 -28.386 260.382 -28.554 Q 260.79 -28.722 260.975 -28.969 Q 261.16 -29.215 261.16 -29.45 Q 261.16 -29.742 260.981 -29.904 Q 260.802 -30.066 260.516 -30.134 Q 260.23 -30.201 259.911 -30.223 Q 259.592 -30.246 259.312 -30.246 Q 259.245 -30.246 259.211 -30.246 Q 258.763 -30.257 258.517 -30.257 Q 258.27 -30.257 258.147 -30.262 Q 258.024 -30.268 257.946 -30.268 Z M 259.043 -35.409 L 259.043 -35.409 Q 258.606 -35.409 258.343 -35.073 Q 258.08 -34.737 258.08 -34.031 Q 258.08 -33.314 258.36 -32.917 Q 258.64 -32.519 259.189 -32.519 Q 259.614 -32.519 259.889 -32.81 Q 260.163 -33.102 260.163 -33.897 Q 260.163 -34.58 259.872 -34.994 Q 259.581 -35.409 259.043 -35.409 Z " fill="black" /><path d="M 262.381 -32.217 L 262.381 -32.217 L 262.672 -32.217 Q 262.851 -31.354 263.198 -31.013 Q 263.546 -30.671 264.162 -30.671 Q 264.587 -30.671 264.856 -30.845 Q 265.125 -31.018 265.125 -31.41 Q 265.125 -31.679 265.03 -31.858 Q 264.934 -32.038 264.666 -32.222 Q 264.397 -32.407 263.87 -32.665 Q 263.109 -33.057 262.75 -33.421 Q 262.392 -33.785 262.392 -34.401 Q 262.392 -35.095 262.89 -35.454 Q 263.389 -35.812 264.106 -35.812 Q 264.531 -35.812 264.8 -35.717 Q 265.069 -35.622 265.282 -35.521 L 265.293 -35.521 L 265.483 -35.756 L 265.707 -35.756 L 265.741 -34.042 L 265.438 -34.042 Q 265.259 -34.838 264.934 -35.134 Q 264.61 -35.431 264.094 -35.431 Q 263.714 -35.431 263.45 -35.252 Q 263.187 -35.073 263.187 -34.692 Q 263.187 -34.367 263.49 -34.11 Q 263.792 -33.852 264.498 -33.494 Q 265.259 -33.09 265.662 -32.715 Q 266.066 -32.34 266.066 -31.713 Q 266.066 -31.186 265.808 -30.867 Q 265.55 -30.548 265.119 -30.402 Q 264.688 -30.257 264.184 -30.257 Q 263.702 -30.257 263.417 -30.358 Q 263.131 -30.458 262.907 -30.548 L 262.885 -30.548 L 262.65 -30.29 L 262.414 -30.29 Z " fill="black" /></g></g></g><circle cx="360.0" cy="-72.0" r="2.6999999999999997" style="stroke:black;fill:black;stroke-width:2.0;" /><g><g><g><path d="M 331.475 -41.44 L 331.475 -41.44 L 331.379 -40.624 L 329.987 -40.784 L 329.987 -40.736 Q 330.259 -40.432 330.411 -39.976 Q 330.563 -39.52 330.563 -39.104 Q 330.563 -38.384 330.275 -37.896 Q 329.987 -37.408 329.523 -37.112 Q 329.059 -36.816 328.499 -36.664 Q 327.939 -36.512 327.411 -36.464 Q 326.771 -36.4 326.507 -36.192 Q 326.243 -35.984 326.243 -35.76 Q 326.243 -35.472 326.563 -35.32 Q 326.883 -35.168 327.387 -35.072 Q 327.891 -34.976 328.467 -34.856 Q 329.043 -34.736 329.547 -34.528 Q 330.051 -34.32 330.371 -33.944 Q 330.691 -33.568 330.691 -32.944 Q 330.691 -32.256 330.243 -31.672 Q 329.795 -31.088 328.915 -30.728 Q 328.035 -30.368 326.755 -30.368 Q 325.603 -30.368 324.915 -30.648 Q 324.227 -30.928 323.923 -31.368 Q 323.619 -31.808 323.619 -32.288 Q 323.619 -33.056 324.211 -33.528 Q 324.803 -34 325.555 -34.24 L 325.555 -34.304 Q 325.347 -34.432 325.163 -34.664 Q 324.979 -34.896 324.979 -35.264 Q 324.979 -35.664 325.187 -35.904 Q 325.395 -36.144 325.723 -36.296 Q 326.051 -36.448 326.371 -36.56 L 326.371 -36.656 Q 325.747 -36.928 325.283 -37.424 Q 324.819 -37.92 324.819 -38.832 Q 324.819 -39.664 325.219 -40.296 Q 325.619 -40.928 326.315 -41.28 Q 327.011 -41.632 327.875 -41.632 Q 328.451 -41.632 328.747 -41.576 Q 329.043 -41.52 329.331 -41.44 Z M 329.539 -32.352 L 329.539 -32.352 Q 329.539 -32.832 329.139 -33.128 Q 328.739 -33.424 328.147 -33.6 Q 327.555 -33.776 326.955 -33.88 Q 326.355 -33.984 325.939 -34.064 Q 325.539 -33.808 325.203 -33.48 Q 324.867 -33.152 324.867 -32.528 Q 324.867 -31.888 325.363 -31.408 Q 325.859 -30.928 327.075 -30.928 Q 328.227 -30.928 328.883 -31.352 Q 329.539 -31.776 329.539 -32.352 Z M 329.139 -39.28 L 329.139 -39.28 Q 329.139 -40.08 328.835 -40.616 Q 328.531 -41.152 327.827 -41.152 Q 327.139 -41.152 326.691 -40.576 Q 326.243 -40 326.243 -38.832 Q 326.243 -38 326.531 -37.48 Q 326.819 -36.96 327.507 -36.96 Q 328.307 -36.96 328.723 -37.632 Q 329.139 -38.304 329.139 -39.28 Z " fill="black" /><path d="M 334.589 -36.04 L 334.589 -36.04 Q 335.742 -36.04 336.409 -35.323 Q 337.075 -34.606 337.075 -33.363 Q 337.075 -32.422 336.756 -31.784 Q 336.437 -31.146 335.877 -30.821 Q 335.317 -30.496 334.589 -30.496 Q 333.413 -30.496 332.746 -31.23 Q 332.08 -31.963 332.08 -33.318 Q 332.08 -34.136 332.394 -34.746 Q 332.707 -35.357 333.273 -35.698 Q 333.838 -36.04 334.589 -36.04 Z M 334.544 -35.614 L 334.544 -35.614 Q 333.906 -35.614 333.514 -35.077 Q 333.122 -34.539 333.122 -33.464 Q 333.122 -32.131 333.519 -31.532 Q 333.917 -30.933 334.634 -30.944 Q 335.093 -30.944 335.406 -31.157 Q 335.72 -31.37 335.882 -31.885 Q 336.045 -32.4 336.045 -33.307 Q 336.045 -34.338 335.67 -34.976 Q 335.294 -35.614 334.544 -35.614 Z " fill="black" /><path d="M 343.504 -31.112 L 343.504 -31.112 L 343.504 -30.81 L 342.082 -30.552 L 341.835 -30.552 L 341.835 -31.414 L 341.779 -31.414 Q 341.331 -30.978 340.906 -30.737 Q 340.48 -30.496 339.942 -30.496 Q 339.248 -30.496 338.862 -30.95 Q 338.475 -31.403 338.475 -32.546 L 338.475 -34.819 Q 338.475 -35.278 338.324 -35.374 Q 338.173 -35.469 337.714 -35.48 L 337.714 -35.794 L 339.158 -35.962 L 339.405 -35.962 L 339.405 -32.691 Q 339.405 -31.84 339.69 -31.526 Q 339.976 -31.213 340.413 -31.213 Q 340.838 -31.213 341.146 -31.403 Q 341.454 -31.594 341.79 -31.885 L 341.79 -34.83 Q 341.79 -35.278 341.606 -35.379 Q 341.421 -35.48 340.883 -35.48 L 340.883 -35.794 L 342.451 -35.962 L 342.72 -35.962 L 342.72 -31.851 Q 342.72 -31.358 342.854 -31.235 Q 342.989 -31.112 343.392 -31.112 Z " fill="black" /><path d="M 347.122 -31.616 L 347.122 -31.616 L 347.334 -31.437 Q 347.122 -31.134 346.937 -30.927 Q 346.752 -30.72 346.528 -30.608 Q 346.304 -30.496 345.946 -30.496 Q 345.386 -30.496 345.128 -30.826 Q 344.87 -31.157 344.87 -31.907 L 344.87 -35.379 L 344.254 -35.379 L 344.254 -35.637 Q 344.646 -35.883 344.932 -36.303 Q 345.218 -36.723 345.52 -37.44 L 345.811 -37.44 L 345.8 -35.85 L 347.066 -35.85 L 347.066 -35.379 L 345.8 -35.379 L 345.8 -32.221 Q 345.8 -31.627 345.906 -31.392 Q 346.013 -31.157 346.338 -31.157 Q 346.606 -31.157 346.758 -31.269 Q 346.909 -31.381 347.122 -31.616 Z " fill="black" /></g></g></g><g><g><g><path d="M 389.006 -81.072 L 389.006 -81.072 L 393.374 -87.632 Q 393.598 -87.952 393.734 -88.224 Q 393.87 -88.496 393.87 -88.688 Q 393.87 -88.928 393.662 -89.016 Q 393.454 -89.104 392.91 -89.104 L 392.942 -89.584 L 396.398 -89.584 L 396.366 -89.104 Q 395.934 -89.104 395.63 -88.976 Q 395.326 -88.848 395.014 -88.488 Q 394.702 -88.128 394.206 -87.392 L 388.334 -78.992 L 387.806 -78.992 L 386.91 -87.648 Q 386.814 -88.448 386.558 -88.776 Q 386.302 -89.104 385.662 -89.104 L 385.694 -89.584 L 389.614 -89.584 L 389.566 -89.104 Q 388.958 -89.104 388.606 -88.864 Q 388.254 -88.624 388.286 -88.08 Q 388.286 -88 388.31 -87.792 Q 388.334 -87.584 388.334 -87.504 L 388.814 -82.944 L 388.926 -81.072 Z " fill="black" /><path d="M 395.735 -81.144 L 395.735 -81.144 Q 396.889 -81.144 397.555 -80.427 Q 398.222 -79.71 398.222 -78.467 Q 398.222 -77.526 397.902 -76.888 Q 397.583 -76.25 397.023 -75.925 Q 396.463 -75.6 395.735 -75.6 Q 394.559 -75.6 393.893 -76.334 Q 393.226 -77.067 393.226 -78.422 Q 393.226 -79.24 393.54 -79.85 Q 393.854 -80.461 394.419 -80.802 Q 394.985 -81.144 395.735 -81.144 Z M 395.69 -80.718 L 395.69 -80.718 Q 395.052 -80.718 394.66 -80.181 Q 394.268 -79.643 394.268 -78.568 Q 394.268 -77.235 394.666 -76.636 Q 395.063 -76.037 395.78 -76.048 Q 396.239 -76.048 396.553 -76.261 Q 396.866 -76.474 397.029 -76.989 Q 397.191 -77.504 397.191 -78.411 Q 397.191 -79.442 396.816 -80.08 Q 396.441 -80.718 395.69 -80.718 Z " fill="black" /><path d="M 404.65 -76.216 L 404.65 -76.216 L 404.65 -75.914 L 403.228 -75.656 L 402.982 -75.656 L 402.982 -76.518 L 402.926 -76.518 Q 402.478 -76.082 402.052 -75.841 Q 401.626 -75.6 401.089 -75.6 Q 400.394 -75.6 400.008 -76.054 Q 399.622 -76.507 399.622 -77.65 L 399.622 -79.923 Q 399.622 -80.382 399.47 -80.478 Q 399.319 -80.573 398.86 -80.584 L 398.86 -80.898 L 400.305 -81.066 L 400.551 -81.066 L 400.551 -77.795 Q 400.551 -76.944 400.837 -76.63 Q 401.122 -76.317 401.559 -76.317 Q 401.985 -76.317 402.293 -76.507 Q 402.601 -76.698 402.937 -76.989 L 402.937 -79.934 Q 402.937 -80.382 402.752 -80.483 Q 402.567 -80.584 402.03 -80.584 L 402.03 -80.898 L 403.598 -81.066 L 403.866 -81.066 L 403.866 -76.955 Q 403.866 -76.462 404.001 -76.339 Q 404.135 -76.216 404.538 -76.216 Z " fill="black" /><path d="M 408.268 -76.72 L 408.268 -76.72 L 408.481 -76.541 Q 408.268 -76.238 408.083 -76.031 Q 407.898 -75.824 407.674 -75.712 Q 407.45 -75.6 407.092 -75.6 Q 406.532 -75.6 406.274 -75.93 Q 406.017 -76.261 406.017 -77.011 L 406.017 -80.483 L 405.401 -80.483 L 405.401 -80.741 Q 405.793 -80.987 406.078 -81.407 Q 406.364 -81.827 406.666 -82.544 L 406.958 -82.544 L 406.946 -80.954 L 408.212 -80.954 L 408.212 -80.483 L 406.946 -80.483 L 406.946 -77.325 Q 406.946 -76.731 407.053 -76.496 Q 407.159 -76.261 407.484 -76.261 Q 407.753 -76.261 407.904 -76.373 Q 408.055 -76.485 408.268 -76.72 Z " fill="black" /></g></g></g><g><g><g><path d="M 412.608 -34.64 L 412.608 -34.64 L 412.896 -34.336 Q 412.08 -33.376 411.008 -32.76 Q 409.936 -32.144 408.416 -32.144 Q 406.976 -32.144 406.112 -32.68 Q 405.248 -33.216 404.872 -34.112 Q 404.496 -35.008 404.496 -36.064 Q 404.496 -37.744 405.008 -39.048 Q 405.52 -40.352 406.408 -41.24 Q 407.296 -42.128 408.416 -42.584 Q 409.536 -43.04 410.752 -43.04 Q 411.568 -43.04 412.024 -42.896 Q 412.48 -42.752 412.736 -42.6 Q 412.992 -42.448 413.184 -42.448 Q 413.376 -42.448 413.52 -42.608 Q 413.664 -42.768 413.856 -43.024 L 414.32 -43.024 L 413.568 -39.36 L 413.04 -39.36 Q 413.104 -40.96 412.448 -41.656 Q 411.792 -42.352 410.608 -42.352 Q 409.68 -42.352 408.864 -41.928 Q 408.048 -41.504 407.416 -40.728 Q 406.784 -39.952 406.424 -38.872 Q 406.064 -37.792 406.064 -36.464 Q 406.064 -34.864 406.824 -34.024 Q 407.584 -33.184 409.168 -33.184 Q 411.008 -33.184 412.608 -34.64 Z " fill="black" /><path d="M 420.17 -31.144 L 420.17 -31.144 L 419.834 -28.96 L 414.278 -28.96 L 414.278 -29.296 Q 414.726 -29.296 414.945 -29.374 Q 415.163 -29.453 415.23 -29.677 Q 415.298 -29.901 415.298 -30.338 L 415.298 -34.896 Q 415.298 -35.333 415.23 -35.568 Q 415.163 -35.803 414.945 -35.893 Q 414.726 -35.982 414.278 -35.982 L 414.278 -36.318 L 417.426 -36.318 L 417.426 -35.982 Q 416.978 -35.982 416.737 -35.887 Q 416.496 -35.792 416.412 -35.557 Q 416.328 -35.322 416.328 -34.885 L 416.328 -30.024 Q 416.328 -29.654 416.507 -29.542 Q 416.686 -29.43 417.179 -29.43 L 417.694 -29.43 Q 418.254 -29.43 418.602 -29.514 Q 418.949 -29.598 419.156 -29.8 Q 419.363 -30.002 419.503 -30.332 Q 419.643 -30.662 419.811 -31.144 Z " fill="black" /></g></g></g></svg>