<svg xmlns="http://www.w3.org/2000/svg" xml:lang="en" height="109.64pt" width="556.7728pt" viewBox="-210.1728 -82.0 556.7728 109.64"><circle cx="108.0" cy="-36.0" r="18.0" style="stroke:black;fill:none;stroke-width:2.0;" /><circle cx="324.0" cy="-36.0" r="18.0" style="stroke:black;fill:none;stroke-width:2.0;" /><path d="M 0.0,-0.0 L 2.0059714570033646e-15,-32.76 M -8.999999999999998,-32.76 L 9.000000000000002,-32.76 M -8.999999999999998,-39.24 L 9.000000000000002,-39.24 M 2.402757019927107e-15,-39.24 L 4.408728476930472e-15,-72.0" style="stroke:black;fill:none;stroke-width:2.0;stroke-linecap:round;stroke-linejoin:round;" /><path d="M 4.408728476930472e-15,-72.0 L 54.00000000000001,-72.0 L 108.0,-72.0" style="stroke:black;fill:none;stroke-width:2.0;stroke-linecap:round;stroke-linejoin:round;" /><path d="M 108.0,-72.0 L 108.0,-54.0 L 108.0,-54.0 M 107.99999999999999,-18.0 L 107.99999999999999,-18.0 L 107.99999999999999,-0.0" style="stroke:black;fill:none;stroke-width:2.0;stroke-linecap:round;stroke-linejoin:round;" /><path d="M 108.0,-45.0 L 107.99999999999999,-36.0" style="stroke:black;fill:none;stroke-width:2.0;stroke-linecap:round;stroke-linejoin:round;" /><path d="M 107.99999999999999 -29.0 L 105.3 -36.0 L 110.69999999999999 -36.0 Z" style="stroke:black;fill:black;stroke-linecap:butt;stroke-linejoin:miter;" /><path d="M 107.99999999999999,-0.0 L 107.99999999999999,14.4 L 98.99999999999999,14.4 L 116.99999999999999,14.4 M 101.69999999999999,18.72 L 114.29999999999998,18.72 M 106.19999999999999,23.04 L 109.79999999999998,23.04" style="stroke:black;fill:none;stroke-width:2.0;stroke-linecap:round;stroke-linejoin:round;" /><path d="M 107.99999999999999,-0.0 L 53.999999999999986,-6.613092715395707e-15 L -1.5987211554602254e-14,-1.3226185430791413e-14" style="stroke:black;fill:none;stroke-width:2.0;stroke-linecap:round;stroke-linejoin:round;" /><path d="M 107.99999999999999,-0.0 L 162.0,-0.0 L 216.0,-0.0" style="stroke:black;fill:none;stroke-width:2.0;stroke-linecap:round;stroke-linejoin:round;" /><path d="M 216.0,-0.0 L 216.0,-18.0 L 207.0,-21.0 L 225.0,-27.0 L 207.0,-33.0 L 225.0,-39.0 L 207.0,-45.0 L 225.0,-50.99999999999999 L 216.0,-54.0 L 216.0,-72.0" style="stroke:black;fill:none;stroke-width:2.0;stroke-linecap:round;stroke-linejoin:round;" /><path d="M 216.0,-72.0 L 162.0,-72.0 L 108.0,-72.00000000000001" style="stroke:black;fill:none;stroke-width:2.0;stroke-linecap:round;stroke-linejoin:round;" /><path d="M 216.0,-72.0 L 270.0,-72.0 L 324.0,-72.0" style="stroke:black;fill:none;stroke-width:2.0;stroke-linecap:round;stroke-linejoin:round;" /><path d="M 324.0,-0.0 L 324.0,-18.0 L 324.0,-18.0 M 324.0,-54.0 L 324.0,-54.0 L 324.0,-72.0" style="stroke:black;fill:none;stroke-width:2.0;stroke-linecap:round;stroke-linejoin:round;" /><path d="M 324.0,-27.0 L 324.0,-36.0" style="stroke:black;fill:none;stroke-width:2.0;stroke-linecap:round;stroke-linejoin:round;" /><path d="M 324.0 -43.0 L 326.7 -36.0 L 321.3 -36.0 Z" style="stroke:black;fill:black;stroke-linecap:butt;stroke-linejoin:miter;" /><path d="M 324.0,-0.0 L 270.0,-6.613092715395707e-15 L 216.0,-1.3226185430791413e-14" style="stroke:black;fill:none;stroke-width:2.0;stroke-linecap:round;stroke-linejoin:round;" /><path d="M -180.0,-72.0 L -180.0,-36.0 L -180.0,-9.0" style="stroke:black;fill:none;stroke-width:2.0;stroke-linecap:round;stroke-linejoin:round;" /><path d="M -180.0 -2.0 L -182.7 -9.0 L -177.3 -9.0 Z" style="stroke:black;fill:black;stroke-linecap:butt;stroke-linejoin:miter;" /><g><g><g><path d="M -151.559 -35.956 L -151.559 -35.956 L -151.271 -35.652 Q -152.087 -34.692 -153.159 -34.076 Q -154.231 -33.46 -155.751 -33.46 Q -157.191 -33.46 -158.055 -33.996 Q -158.919 -34.532 -159.295 -35.428 Q -159.671 -36.324 -159.671 -37.38 Q -159.671 -39.06 -159.159 -40.364 Q -158.647 -41.668 -157.759 -42.556 Q -156.871 -43.444 -155.751 -43.9 Q -154.631 -44.356 -153.415 -44.356 Q -152.599 -44.356 -152.143 -44.212 Q -151.687 -44.068 -151.431 -43.916 Q -151.175 -43.764 -150.983 -43.764 Q -150.791 -43.764 -150.647 -43.924 Q -150.503 -44.084 -150.311 -44.34 L -149.847 -44.34 L -150.599 -40.676 L -151.127 -40.676 Q -151.063 -42.276 -151.719 -42.972 Q -152.375 -43.668 -153.559 -43.668 Q -154.487 -43.668 -155.303 -43.244 Q -156.119 -42.82 -156.751 -42.044 Q -157.383 -41.268 -157.743 -40.188 Q -158.103 -39.108 -158.103 -37.78 Q -158.103 -36.18 -157.343 -35.34 Q -156.583 -34.5 -154.999 -34.5 Q -153.159 -34.5 -151.559 -35.956 Z " fill="black" /><path d="M -148.926 -32.337 L -148.926 -32.337 L -148.926 -32.359 Q -149.329 -32.594 -149.558 -32.964 Q -149.788 -33.334 -149.788 -33.882 Q -149.788 -34.722 -149.217 -35.215 Q -148.646 -35.708 -147.761 -35.708 Q -147.391 -35.708 -147.111 -35.641 Q -146.831 -35.574 -146.674 -35.501 Q -146.518 -35.428 -146.518 -35.428 L -145.073 -35.506 L -145.073 -34.902 L -146.126 -34.935 L -146.126 -34.879 Q -146.002 -34.711 -145.862 -34.431 Q -145.722 -34.151 -145.722 -33.726 Q -145.722 -32.942 -146.271 -32.482 Q -146.82 -32.023 -147.705 -32.023 Q -147.974 -32.023 -148.209 -32.068 Q -148.444 -32.113 -148.668 -32.191 Q -148.746 -32.079 -148.853 -31.833 Q -148.959 -31.586 -148.959 -31.441 Q -148.959 -31.194 -148.685 -31.094 Q -148.41 -30.993 -147.638 -30.993 Q -146.932 -30.993 -146.366 -30.926 Q -145.801 -30.858 -145.476 -30.578 Q -145.151 -30.298 -145.151 -29.66 Q -145.151 -29.1 -145.426 -28.714 Q -145.7 -28.327 -146.154 -28.092 Q -146.607 -27.857 -147.15 -27.75 Q -147.694 -27.644 -148.22 -27.644 Q -148.948 -27.644 -149.368 -27.823 Q -149.788 -28.002 -149.956 -28.288 Q -150.124 -28.574 -150.124 -28.876 Q -150.124 -29.156 -149.894 -29.464 Q -149.665 -29.772 -149.217 -30.209 L -149.217 -30.254 Q -149.497 -30.399 -149.67 -30.612 Q -149.844 -30.825 -149.844 -31.06 Q -149.844 -31.362 -149.581 -31.698 Q -149.318 -32.034 -148.926 -32.337 Z M -148.937 -30.164 L -148.937 -30.164 Q -149.116 -29.85 -149.183 -29.643 Q -149.25 -29.436 -149.25 -29.257 Q -149.25 -28.282 -147.57 -28.282 Q -146.91 -28.282 -146.501 -28.45 Q -146.092 -28.618 -145.907 -28.865 Q -145.722 -29.111 -145.722 -29.346 Q -145.722 -29.638 -145.902 -29.8 Q -146.081 -29.962 -146.366 -30.03 Q -146.652 -30.097 -146.971 -30.119 Q -147.29 -30.142 -147.57 -30.142 Q -147.638 -30.142 -147.671 -30.142 Q -148.119 -30.153 -148.366 -30.153 Q -148.612 -30.153 -148.735 -30.158 Q -148.858 -30.164 -148.937 -30.164 Z M -147.839 -35.305 L -147.839 -35.305 Q -148.276 -35.305 -148.539 -34.969 Q -148.802 -34.633 -148.802 -33.927 Q -148.802 -33.21 -148.522 -32.813 Q -148.242 -32.415 -147.694 -32.415 Q -147.268 -32.415 -146.994 -32.706 Q -146.719 -32.998 -146.719 -33.793 Q -146.719 -34.476 -147.01 -34.89 Q -147.302 -35.305 -147.839 -35.305 Z " fill="black" /><path d="M -144.502 -32.113 L -144.502 -32.113 L -144.21 -32.113 Q -144.031 -31.25 -143.684 -30.909 Q -143.337 -30.567 -142.721 -30.567 Q -142.295 -30.567 -142.026 -30.741 Q -141.758 -30.914 -141.758 -31.306 Q -141.758 -31.575 -141.853 -31.754 Q -141.948 -31.934 -142.217 -32.118 Q -142.486 -32.303 -143.012 -32.561 Q -143.774 -32.953 -144.132 -33.317 Q -144.49 -33.681 -144.49 -34.297 Q -144.49 -34.991 -143.992 -35.35 Q -143.494 -35.708 -142.777 -35.708 Q -142.351 -35.708 -142.082 -35.613 Q -141.814 -35.518 -141.601 -35.417 L -141.59 -35.417 L -141.399 -35.652 L -141.175 -35.652 L -141.142 -33.938 L -141.444 -33.938 Q -141.623 -34.734 -141.948 -35.03 Q -142.273 -35.327 -142.788 -35.327 Q -143.169 -35.327 -143.432 -35.148 Q -143.695 -34.969 -143.695 -34.588 Q -143.695 -34.263 -143.393 -34.006 Q -143.09 -33.748 -142.385 -33.39 Q -141.623 -32.986 -141.22 -32.611 Q -140.817 -32.236 -140.817 -31.609 Q -140.817 -31.082 -141.074 -30.763 Q -141.332 -30.444 -141.763 -30.298 Q -142.194 -30.153 -142.698 -30.153 Q -143.18 -30.153 -143.466 -30.254 Q -143.751 -30.354 -143.975 -30.444 L -143.998 -30.444 L -144.233 -30.186 L -144.468 -30.186 Z " fill="black" /><path d="M -125.247 -37.236 L -125.247 -37.236 L -129.439 -37.236 L -129.439 -32.996 L -130.591 -32.996 L -130.591 -37.236 L -134.783 -37.236 L -134.783 -38.324 L -130.591 -38.324 L -130.591 -42.564 L -129.439 -42.564 L -129.439 -38.324 L -125.247 -38.324 Z " fill="black" /><path d="M -110.443 -35.956 L -110.443 -35.956 L -110.155 -35.652 Q -110.971 -34.692 -112.043 -34.076 Q -113.115 -33.46 -114.635 -33.46 Q -116.075 -33.46 -116.939 -33.996 Q -117.803 -34.532 -118.179 -35.428 Q -118.555 -36.324 -118.555 -37.38 Q -118.555 -39.06 -118.043 -40.364 Q -117.531 -41.668 -116.643 -42.556 Q -115.755 -43.444 -114.635 -43.9 Q -113.515 -44.356 -112.299 -44.356 Q -111.483 -44.356 -111.027 -44.212 Q -110.571 -44.068 -110.315 -43.916 Q -110.059 -43.764 -109.867 -43.764 Q -109.675 -43.764 -109.531 -43.924 Q -109.387 -44.084 -109.195 -44.34 L -108.731 -44.34 L -109.483 -40.676 L -110.011 -40.676 Q -109.947 -42.276 -110.603 -42.972 Q -111.259 -43.668 -112.443 -43.668 Q -113.371 -43.668 -114.187 -43.244 Q -115.003 -42.82 -115.635 -42.044 Q -116.267 -41.268 -116.627 -40.188 Q -116.987 -39.108 -116.987 -37.78 Q -116.987 -36.18 -116.227 -35.34 Q -115.467 -34.5 -113.883 -34.5 Q -112.043 -34.5 -110.443 -35.956 Z " fill="black" /><path d="M -107.81 -32.337 L -107.81 -32.337 L -107.81 -32.359 Q -108.213 -32.594 -108.442 -32.964 Q -108.672 -33.334 -108.672 -33.882 Q -108.672 -34.722 -108.101 -35.215 Q -107.53 -35.708 -106.645 -35.708 Q -106.275 -35.708 -105.995 -35.641 Q -105.715 -35.574 -105.558 -35.501 Q -105.402 -35.428 -105.402 -35.428 L -103.957 -35.506 L -103.957 -34.902 L -105.01 -34.935 L -105.01 -34.879 Q -104.886 -34.711 -104.746 -34.431 Q -104.606 -34.151 -104.606 -33.726 Q -104.606 -32.942 -105.155 -32.482 Q -105.704 -32.023 -106.589 -32.023 Q -106.858 -32.023 -107.093 -32.068 Q -107.328 -32.113 -107.552 -32.191 Q -107.63 -32.079 -107.737 -31.833 Q -107.843 -31.586 -107.843 -31.441 Q -107.843 -31.194 -107.569 -31.094 Q -107.294 -30.993 -106.522 -30.993 Q -105.816 -30.993 -105.25 -30.926 Q -104.685 -30.858 -104.36 -30.578 Q -104.035 -30.298 -104.035 -29.66 Q -104.035 -29.1 -104.31 -28.714 Q -104.584 -28.327 -105.038 -28.092 Q -105.491 -27.857 -106.034 -27.75 Q -106.578 -27.644 -107.104 -27.644 Q -107.832 -27.644 -108.252 -27.823 Q -108.672 -28.002 -108.84 -28.288 Q -109.008 -28.574 -109.008 -28.876 Q -109.008 -29.156 -108.778 -29.464 Q -108.549 -29.772 -108.101 -30.209 L -108.101 -30.254 Q -108.381 -30.399 -108.554 -30.612 Q -108.728 -30.825 -108.728 -31.06 Q -108.728 -31.362 -108.465 -31.698 Q -108.202 -32.034 -107.81 -32.337 Z M -107.821 -30.164 L -107.821 -30.164 Q -108 -29.85 -108.067 -29.643 Q -108.134 -29.436 -108.134 -29.257 Q -108.134 -28.282 -106.454 -28.282 Q -105.794 -28.282 -105.385 -28.45 Q -104.976 -28.618 -104.791 -28.865 Q -104.606 -29.111 -104.606 -29.346 Q -104.606 -29.638 -104.786 -29.8 Q -104.965 -29.962 -105.25 -30.03 Q -105.536 -30.097 -105.855 -30.119 Q -106.174 -30.142 -106.454 -30.142 Q -106.522 -30.142 -106.555 -30.142 Q -107.003 -30.153 -107.25 -30.153 Q -107.496 -30.153 -107.619 -30.158 Q -107.742 -30.164 -107.821 -30.164 Z M -106.723 -35.305 L -106.723 -35.305 Q -107.16 -35.305 -107.423 -34.969 Q -107.686 -34.633 -107.686 -33.927 Q -107.686 -33.21 -107.406 -32.813 Q -107.126 -32.415 -106.578 -32.415 Q -106.152 -32.415 -105.878 -32.706 Q -105.603 -32.998 -105.603 -33.793 Q -105.603 -34.476 -105.894 -34.89 Q -106.186 -35.305 -106.723 -35.305 Z " fill="black" /><path d="M -101.997 -38.183 L -101.997 -38.183 L -101.997 -34.756 L -101.963 -34.756 Q -101.672 -35.114 -101.235 -35.411 Q -100.798 -35.708 -100.238 -35.708 Q -99.678 -35.708 -99.258 -35.389 Q -98.838 -35.07 -98.603 -34.51 Q -98.368 -33.95 -98.368 -33.222 Q -98.368 -32.225 -98.715 -31.542 Q -99.062 -30.858 -99.667 -30.511 Q -100.272 -30.164 -101.056 -30.164 Q -101.773 -30.164 -102.249 -30.332 Q -102.725 -30.5 -102.926 -30.612 L -102.926 -36.906 Q -102.926 -37.287 -103.01 -37.394 Q -103.094 -37.5 -103.419 -37.5 Q -103.554 -37.5 -103.643 -37.489 Q -103.733 -37.478 -103.733 -37.478 L -103.733 -37.791 L -102.288 -38.183 Z M -101.997 -34.263 L -101.997 -34.263 L -101.997 -31.15 Q -101.84 -30.959 -101.571 -30.791 Q -101.302 -30.623 -100.854 -30.623 Q -100.317 -30.623 -99.998 -30.926 Q -99.678 -31.228 -99.533 -31.738 Q -99.387 -32.247 -99.387 -32.863 Q -99.387 -33.401 -99.499 -33.877 Q -99.611 -34.353 -99.902 -34.65 Q -100.194 -34.946 -100.731 -34.946 Q -101.157 -34.946 -101.498 -34.706 Q -101.84 -34.465 -101.997 -34.263 Z " fill="black" /><path d="M -82.708 -37.236 L -82.708 -37.236 L -86.9 -37.236 L -86.9 -32.996 L -88.052 -32.996 L -88.052 -37.236 L -92.244 -37.236 L -92.244 -38.324 L -88.052 -38.324 L -88.052 -42.564 L -86.9 -42.564 L -86.9 -38.324 L -82.708 -38.324 Z " fill="black" /><path d="M -67.905 -35.956 L -67.905 -35.956 L -67.617 -35.652 Q -68.433 -34.692 -69.505 -34.076 Q -70.577 -33.46 -72.097 -33.46 Q -73.537 -33.46 -74.401 -33.996 Q -75.265 -34.532 -75.641 -35.428 Q -76.017 -36.324 -76.017 -37.38 Q -76.017 -39.06 -75.505 -40.364 Q -74.993 -41.668 -74.105 -42.556 Q -73.217 -43.444 -72.097 -43.9 Q -70.977 -44.356 -69.761 -44.356 Q -68.945 -44.356 -68.489 -44.212 Q -68.033 -44.068 -67.777 -43.916 Q -67.521 -43.764 -67.329 -43.764 Q -67.137 -43.764 -66.993 -43.924 Q -66.849 -44.084 -66.657 -44.34 L -66.193 -44.34 L -66.945 -40.676 L -67.473 -40.676 Q -67.409 -42.276 -68.065 -42.972 Q -68.721 -43.668 -69.905 -43.668 Q -70.833 -43.668 -71.649 -43.244 Q -72.465 -42.82 -73.097 -42.044 Q -73.729 -41.268 -74.089 -40.188 Q -74.449 -39.108 -74.449 -37.78 Q -74.449 -36.18 -73.689 -35.34 Q -72.929 -34.5 -71.345 -34.5 Q -69.505 -34.5 -67.905 -35.956 Z " fill="black" /><path d="M -60.948 -30.478 L -60.948 -30.478 L -62.382 -30.22 L -62.639 -30.22 L -62.639 -30.993 L -62.684 -30.993 Q -62.998 -30.713 -63.429 -30.45 Q -63.86 -30.186 -64.42 -30.186 Q -65.047 -30.186 -65.479 -30.522 Q -65.91 -30.858 -66.123 -31.435 Q -66.335 -32.012 -66.335 -32.729 Q -66.335 -33.658 -65.988 -34.325 Q -65.641 -34.991 -65.053 -35.35 Q -64.465 -35.708 -63.759 -35.708 Q -63.479 -35.708 -63.205 -35.646 Q -62.931 -35.585 -62.673 -35.439 L -62.673 -36.906 Q -62.673 -37.276 -62.757 -37.388 Q -62.841 -37.5 -63.166 -37.5 Q -63.244 -37.5 -63.351 -37.489 Q -63.457 -37.478 -63.457 -37.478 L -63.457 -37.791 L -62.046 -38.183 L -61.743 -38.183 L -61.743 -31.474 Q -61.743 -31.038 -61.62 -30.909 Q -61.497 -30.78 -61.183 -30.78 L -60.948 -30.78 Z M -62.673 -31.407 L -62.673 -31.407 L -62.673 -34.364 Q -62.74 -34.711 -62.998 -34.986 Q -63.255 -35.26 -63.782 -35.26 Q -64.487 -35.26 -64.924 -34.745 Q -65.361 -34.23 -65.361 -33.166 Q -65.361 -32.012 -64.986 -31.502 Q -64.611 -30.993 -63.894 -30.993 Q -63.502 -30.993 -63.233 -31.099 Q -62.964 -31.206 -62.673 -31.407 Z " fill="black" /><path d="M -58.843 -38.183 L -58.843 -38.183 L -58.843 -34.756 L -58.809 -34.756 Q -58.518 -35.114 -58.081 -35.411 Q -57.644 -35.708 -57.084 -35.708 Q -56.524 -35.708 -56.104 -35.389 Q -55.684 -35.07 -55.449 -34.51 Q -55.214 -33.95 -55.214 -33.222 Q -55.214 -32.225 -55.561 -31.542 Q -55.908 -30.858 -56.513 -30.511 Q -57.118 -30.164 -57.902 -30.164 Q -58.619 -30.164 -59.095 -30.332 Q -59.571 -30.5 -59.772 -30.612 L -59.772 -36.906 Q -59.772 -37.287 -59.856 -37.394 Q -59.94 -37.5 -60.265 -37.5 Q -60.399 -37.5 -60.489 -37.489 Q -60.579 -37.478 -60.579 -37.478 L -60.579 -37.791 L -59.134 -38.183 Z M -58.843 -34.263 L -58.843 -34.263 L -58.843 -31.15 Q -58.686 -30.959 -58.417 -30.791 Q -58.148 -30.623 -57.7 -30.623 Q -57.163 -30.623 -56.843 -30.926 Q -56.524 -31.228 -56.379 -31.738 Q -56.233 -32.247 -56.233 -32.863 Q -56.233 -33.401 -56.345 -33.877 Q -56.457 -34.353 -56.748 -34.65 Q -57.039 -34.946 -57.577 -34.946 Q -58.003 -34.946 -58.344 -34.706 Q -58.686 -34.465 -58.843 -34.263 Z " fill="black" /><path d="M -39.009 -41.412 L -39.009 -41.412 L -38.465 -41.412 Q -38.497 -40.884 -38.681 -40.308 Q -38.865 -39.732 -39.193 -39.22 Q -39.521 -38.708 -39.985 -38.388 Q -40.449 -38.068 -41.057 -38.068 Q -41.649 -38.068 -42.257 -38.388 Q -42.865 -38.708 -43.457 -39.116 Q -44.049 -39.524 -44.585 -39.844 Q -45.121 -40.164 -45.553 -40.164 Q -46.129 -40.164 -46.529 -39.844 Q -46.929 -39.524 -47.185 -39.012 Q -47.441 -38.5 -47.569 -37.908 L -48.113 -37.908 Q -48.065 -38.724 -47.737 -39.492 Q -47.409 -40.26 -46.825 -40.756 Q -46.241 -41.252 -45.441 -41.252 Q -44.849 -41.252 -44.241 -40.932 Q -43.633 -40.612 -43.041 -40.204 Q -42.449 -39.796 -41.913 -39.476 Q -41.377 -39.156 -40.929 -39.156 Q -40.353 -39.156 -39.977 -39.476 Q -39.601 -39.796 -39.361 -40.316 Q -39.121 -40.836 -39.009 -41.412 Z M -39.009 -37.54 L -39.009 -37.54 L -38.465 -37.54 Q -38.497 -37.012 -38.681 -36.436 Q -38.865 -35.86 -39.193 -35.356 Q -39.521 -34.852 -39.985 -34.532 Q -40.449 -34.212 -41.057 -34.212 Q -41.649 -34.212 -42.257 -34.532 Q -42.865 -34.852 -43.457 -35.26 Q -44.049 -35.668 -44.585 -35.988 Q -45.121 -36.308 -45.553 -36.308 Q -46.129 -36.308 -46.529 -35.98 Q -46.929 -35.652 -47.185 -35.14 Q -47.441 -34.628 -47.569 -34.036 L -48.113 -34.036 Q -48.065 -34.868 -47.737 -35.628 Q -47.409 -36.388 -46.825 -36.884 Q -46.241 -37.38 -45.441 -37.38 Q -44.849 -37.38 -44.241 -37.06 Q -43.633 -36.74 -43.041 -36.332 Q -42.449 -35.924 -41.913 -35.604 Q -41.377 -35.284 -40.929 -35.284 Q -40.353 -35.284 -39.977 -35.604 Q -39.601 -35.924 -39.361 -36.444 Q -39.121 -36.964 -39.009 -37.54 Z " fill="black" /><path d="M -22.685 -35.956 L -22.685 -35.956 L -22.397 -35.652 Q -23.213 -34.692 -24.285 -34.076 Q -25.357 -33.46 -26.877 -33.46 Q -28.317 -33.46 -29.181 -33.996 Q -30.045 -34.532 -30.421 -35.428 Q -30.797 -36.324 -30.797 -37.38 Q -30.797 -39.06 -30.285 -40.364 Q -29.773 -41.668 -28.885 -42.556 Q -27.997 -43.444 -26.877 -43.9 Q -25.757 -44.356 -24.541 -44.356 Q -23.725 -44.356 -23.269 -44.212 Q -22.813 -44.068 -22.557 -43.916 Q -22.301 -43.764 -22.109 -43.764 Q -21.917 -43.764 -21.773 -43.924 Q -21.629 -44.084 -21.437 -44.34 L -20.973 -44.34 L -21.725 -40.676 L -22.253 -40.676 Q -22.189 -42.276 -22.845 -42.972 Q -23.501 -43.668 -24.685 -43.668 Q -25.613 -43.668 -26.429 -43.244 Q -27.245 -42.82 -27.877 -42.044 Q -28.509 -41.268 -28.869 -40.188 Q -29.229 -39.108 -29.229 -37.78 Q -29.229 -36.18 -28.469 -35.34 Q -27.709 -34.5 -26.125 -34.5 Q -24.285 -34.5 -22.685 -35.956 Z " fill="black" /><path d="M -20.051 -32.337 L -20.051 -32.337 L -20.051 -32.359 Q -20.454 -32.594 -20.684 -32.964 Q -20.914 -33.334 -20.914 -33.882 Q -20.914 -34.722 -20.342 -35.215 Q -19.771 -35.708 -18.886 -35.708 Q -18.517 -35.708 -18.237 -35.641 Q -17.957 -35.574 -17.8 -35.501 Q -17.643 -35.428 -17.643 -35.428 L -16.198 -35.506 L -16.198 -34.902 L -17.251 -34.935 L -17.251 -34.879 Q -17.128 -34.711 -16.988 -34.431 Q -16.848 -34.151 -16.848 -33.726 Q -16.848 -32.942 -17.397 -32.482 Q -17.946 -32.023 -18.83 -32.023 Q -19.099 -32.023 -19.334 -32.068 Q -19.57 -32.113 -19.794 -32.191 Q -19.872 -32.079 -19.978 -31.833 Q -20.085 -31.586 -20.085 -31.441 Q -20.085 -31.194 -19.81 -31.094 Q -19.536 -30.993 -18.763 -30.993 Q -18.058 -30.993 -17.492 -30.926 Q -16.926 -30.858 -16.602 -30.578 Q -16.277 -30.298 -16.277 -29.66 Q -16.277 -29.1 -16.551 -28.714 Q -16.826 -28.327 -17.279 -28.092 Q -17.733 -27.857 -18.276 -27.75 Q -18.819 -27.644 -19.346 -27.644 Q -20.074 -27.644 -20.494 -27.823 Q -20.914 -28.002 -21.082 -28.288 Q -21.25 -28.574 -21.25 -28.876 Q -21.25 -29.156 -21.02 -29.464 Q -20.79 -29.772 -20.342 -30.209 L -20.342 -30.254 Q -20.622 -30.399 -20.796 -30.612 Q -20.97 -30.825 -20.97 -31.06 Q -20.97 -31.362 -20.706 -31.698 Q -20.443 -32.034 -20.051 -32.337 Z M -20.062 -30.164 L -20.062 -30.164 Q -20.242 -29.85 -20.309 -29.643 Q -20.376 -29.436 -20.376 -29.257 Q -20.376 -28.282 -18.696 -28.282 Q -18.035 -28.282 -17.626 -28.45 Q -17.218 -28.618 -17.033 -28.865 Q -16.848 -29.111 -16.848 -29.346 Q -16.848 -29.638 -17.027 -29.8 Q -17.206 -29.962 -17.492 -30.03 Q -17.778 -30.097 -18.097 -30.119 Q -18.416 -30.142 -18.696 -30.142 Q -18.763 -30.142 -18.797 -30.142 Q -19.245 -30.153 -19.491 -30.153 Q -19.738 -30.153 -19.861 -30.158 Q -19.984 -30.164 -20.062 -30.164 Z M -18.965 -35.305 L -18.965 -35.305 Q -19.402 -35.305 -19.665 -34.969 Q -19.928 -34.633 -19.928 -33.927 Q -19.928 -33.21 -19.648 -32.813 Q -19.368 -32.415 -18.819 -32.415 Q -18.394 -32.415 -18.119 -32.706 Q -17.845 -32.998 -17.845 -33.793 Q -17.845 -34.476 -18.136 -34.89 Q -18.427 -35.305 -18.965 -35.305 Z " fill="black" /><path d="M -15.627 -32.113 L -15.627 -32.113 L -15.336 -32.113 Q -15.157 -31.25 -14.81 -30.909 Q -14.462 -30.567 -13.846 -30.567 Q -13.421 -30.567 -13.152 -30.741 Q -12.883 -30.914 -12.883 -31.306 Q -12.883 -31.575 -12.978 -31.754 Q -13.074 -31.934 -13.342 -32.118 Q -13.611 -32.303 -14.138 -32.561 Q -14.899 -32.953 -15.258 -33.317 Q -15.616 -33.681 -15.616 -34.297 Q -15.616 -34.991 -15.118 -35.35 Q -14.619 -35.708 -13.902 -35.708 Q -13.477 -35.708 -13.208 -35.613 Q -12.939 -35.518 -12.726 -35.417 L -12.715 -35.417 L -12.525 -35.652 L -12.301 -35.652 L -12.267 -33.938 L -12.57 -33.938 Q -12.749 -34.734 -13.074 -35.03 Q -13.398 -35.327 -13.914 -35.327 Q -14.294 -35.327 -14.558 -35.148 Q -14.821 -34.969 -14.821 -34.588 Q -14.821 -34.263 -14.518 -34.006 Q -14.216 -33.748 -13.51 -33.39 Q -12.749 -32.986 -12.346 -32.611 Q -11.942 -32.236 -11.942 -31.609 Q -11.942 -31.082 -12.2 -30.763 Q -12.458 -30.444 -12.889 -30.298 Q -13.32 -30.153 -13.824 -30.153 Q -14.306 -30.153 -14.591 -30.254 Q -14.877 -30.354 -15.101 -30.444 L -15.123 -30.444 L -15.358 -30.186 L -15.594 -30.186 Z " fill="black" /></g></g></g><circle cx="108.0" cy="-72.0" r="2.6999999999999997" style="stroke:black;fill:black;stroke-width:2.0;" /><circle cx="107.99999999999999" cy="-0.0" r="2.6999999999999997" style="stroke:black;fill:black;stroke-width:2.0;" /><g><g><g><path d="M 59.093 -41.286 L 59.093 -41.286 L 58.997 -40.47 L 57.605 -40.63 L 57.605 -40.582 Q 57.877 -40.278 58.029 -39.822 Q 58.181 -39.366 58.181 -38.95 Q 58.181 -38.23 57.893 -37.742 Q 57.605 -37.254 57.141 -36.958 Q 56.677 -36.662 56.117 -36.51 Q 55.557 -36.358 55.029 -36.31 Q 54.389 -36.246 54.125 -36.038 Q 53.861 -35.83 53.861 -35.606 Q 53.861 -35.318 54.181 -35.166 Q 54.501 -35.014 55.005 -34.918 Q 55.509 -34.822 56.085 -34.702 Q 56.661 -34.582 57.165 -34.374 Q 57.669 -34.166 57.989 -33.79 Q 58.309 -33.414 58.309 -32.79 Q 58.309 -32.102 57.861 -31.518 Q 57.413 -30.934 56.533 -30.574 Q 55.653 -30.214 54.373 -30.214 Q 53.221 -30.214 52.533 -30.494 Q 51.845 -30.774 51.541 -31.214 Q 51.237 -31.654 51.237 -32.134 Q 51.237 -32.902 51.829 -33.374 Q 52.421 -33.846 53.173 -34.086 L 53.173 -34.15 Q 52.965 -34.278 52.781 -34.51 Q 52.597 -34.742 52.597 -35.11 Q 52.597 -35.51 52.805 -35.75 Q 53.013 -35.99 53.341 -36.142 Q 53.669 -36.294 53.989 -36.406 L 53.989 -36.502 Q 53.365 -36.774 52.901 -37.27 Q 52.437 -37.766 52.437 -38.678 Q 52.437 -39.51 52.837 -40.142 Q 53.237 -40.774 53.933 -41.126 Q 54.629 -41.478 55.493 -41.478 Q 56.069 -41.478 56.365 -41.422 Q 56.661 -41.366 56.949 -41.286 Z M 57.157 -32.198 L 57.157 -32.198 Q 57.157 -32.678 56.757 -32.974 Q 56.357 -33.27 55.765 -33.446 Q 55.173 -33.622 54.573 -33.726 Q 53.973 -33.83 53.557 -33.91 Q 53.157 -33.654 52.821 -33.326 Q 52.485 -32.998 52.485 -32.374 Q 52.485 -31.734 52.981 -31.254 Q 53.477 -30.774 54.693 -30.774 Q 55.845 -30.774 56.501 -31.198 Q 57.157 -31.622 57.157 -32.198 Z M 56.757 -39.126 L 56.757 -39.126 Q 56.757 -39.926 56.453 -40.462 Q 56.149 -40.998 55.445 -40.998 Q 54.757 -40.998 54.309 -40.422 Q 53.861 -39.846 53.861 -38.678 Q 53.861 -37.846 54.149 -37.326 Q 54.437 -36.806 55.125 -36.806 Q 55.925 -36.806 56.341 -37.478 Q 56.757 -38.15 56.757 -39.126 Z " fill="black" /><path d="M 61.389 -34.452 L 61.389 -34.452 L 61.389 -31.54 Q 61.389 -31.07 61.551 -30.924 Q 61.714 -30.779 62.229 -30.779 L 62.229 -30.454 L 59.675 -30.454 L 59.675 -30.779 Q 60.034 -30.779 60.196 -30.84 Q 60.358 -30.902 60.409 -31.076 Q 60.459 -31.249 60.459 -31.585 L 60.459 -34.721 Q 60.459 -35.024 60.342 -35.124 Q 60.224 -35.225 59.989 -35.225 Q 59.866 -35.225 59.776 -35.214 Q 59.686 -35.203 59.686 -35.203 L 59.686 -35.528 L 61.086 -35.852 L 61.355 -35.852 L 61.355 -34.945 L 61.4 -34.945 Q 61.859 -35.337 62.285 -35.612 Q 62.71 -35.886 63.282 -35.886 Q 63.763 -35.886 64.06 -35.623 Q 64.357 -35.36 64.525 -34.956 L 64.57 -34.956 Q 65.029 -35.416 65.466 -35.651 Q 65.902 -35.886 66.35 -35.886 Q 67.011 -35.886 67.403 -35.472 Q 67.795 -35.057 67.795 -34.038 L 67.795 -31.753 Q 67.795 -31.406 67.834 -31.188 Q 67.874 -30.969 68.047 -30.874 Q 68.221 -30.779 68.602 -30.779 L 68.602 -30.454 L 66.07 -30.454 L 66.07 -30.779 Q 66.451 -30.779 66.619 -30.88 Q 66.787 -30.98 66.826 -31.199 Q 66.866 -31.417 66.866 -31.753 L 66.866 -33.904 Q 66.866 -34.419 66.737 -34.688 Q 66.608 -34.956 66.39 -35.063 Q 66.171 -35.169 65.902 -35.169 Q 65.555 -35.169 65.225 -34.94 Q 64.894 -34.71 64.614 -34.475 L 64.614 -31.753 Q 64.614 -31.372 64.665 -31.16 Q 64.715 -30.947 64.894 -30.863 Q 65.074 -30.779 65.477 -30.779 L 65.477 -30.454 L 62.822 -30.454 L 62.822 -30.779 Q 63.226 -30.779 63.405 -30.857 Q 63.584 -30.936 63.634 -31.148 Q 63.685 -31.361 63.685 -31.753 L 63.685 -33.971 Q 63.685 -34.688 63.433 -34.928 Q 63.181 -35.169 62.789 -35.169 Q 62.352 -35.169 61.994 -34.923 Q 61.635 -34.676 61.389 -34.452 Z " fill="black" /><path d="M 72.059 -41.43 L 72.059 -41.43 L 72.411 -41.43 L 71.659 -38.358 Q 71.547 -37.942 71.427 -37.358 Q 71.307 -36.774 71.307 -36.23 Q 71.307 -35.606 71.563 -35.15 Q 71.819 -34.694 72.555 -34.694 Q 73.371 -34.694 73.963 -35.086 Q 74.555 -35.478 74.931 -36.086 Q 75.307 -36.694 75.491 -37.366 Q 75.675 -38.038 75.675 -38.598 Q 75.675 -39.014 75.531 -39.318 Q 75.387 -39.622 75.187 -39.862 Q 74.987 -40.102 74.843 -40.326 Q 74.699 -40.55 74.699 -40.806 Q 74.699 -41.126 74.875 -41.302 Q 75.051 -41.478 75.307 -41.478 Q 75.851 -41.478 76.187 -40.934 Q 76.523 -40.39 76.523 -39.542 Q 76.523 -38.806 76.339 -37.998 Q 76.155 -37.19 75.787 -36.422 Q 75.419 -35.654 74.875 -35.03 Q 74.331 -34.406 73.627 -34.038 Q 72.923 -33.67 72.059 -33.67 Q 71.259 -33.67 70.811 -33.99 Q 70.363 -34.31 70.179 -34.838 Q 69.995 -35.366 69.995 -35.974 Q 69.995 -36.55 70.107 -37.158 Q 70.219 -37.766 70.347 -38.262 L 70.667 -39.478 Q 70.699 -39.606 70.763 -39.862 Q 70.827 -40.118 70.827 -40.358 Q 70.827 -40.566 70.747 -40.71 Q 70.667 -40.854 70.443 -40.854 Q 70.251 -40.854 69.979 -40.83 Q 69.707 -40.806 69.707 -40.806 L 69.707 -41.254 Z " fill="black" /><path d="M 77.957 -32.515 L 77.957 -32.515 L 77.957 -32.537 Q 77.554 -32.772 77.324 -33.142 Q 77.094 -33.512 77.094 -34.06 Q 77.094 -34.9 77.666 -35.393 Q 78.237 -35.886 79.122 -35.886 Q 79.491 -35.886 79.771 -35.819 Q 80.051 -35.752 80.208 -35.679 Q 80.365 -35.606 80.365 -35.606 L 81.81 -35.684 L 81.81 -35.08 L 80.757 -35.113 L 80.757 -35.057 Q 80.88 -34.889 81.02 -34.609 Q 81.16 -34.329 81.16 -33.904 Q 81.16 -33.12 80.611 -32.66 Q 80.062 -32.201 79.178 -32.201 Q 78.909 -32.201 78.674 -32.246 Q 78.438 -32.291 78.214 -32.369 Q 78.136 -32.257 78.03 -32.011 Q 77.923 -31.764 77.923 -31.619 Q 77.923 -31.372 78.198 -31.272 Q 78.472 -31.171 79.245 -31.171 Q 79.95 -31.171 80.516 -31.104 Q 81.082 -31.036 81.406 -30.756 Q 81.731 -30.476 81.731 -29.838 Q 81.731 -29.278 81.457 -28.892 Q 81.182 -28.505 80.729 -28.27 Q 80.275 -28.035 79.732 -27.928 Q 79.189 -27.822 78.662 -27.822 Q 77.934 -27.822 77.514 -28.001 Q 77.094 -28.18 76.926 -28.466 Q 76.758 -28.752 76.758 -29.054 Q 76.758 -29.334 76.988 -29.642 Q 77.218 -29.95 77.666 -30.387 L 77.666 -30.432 Q 77.386 -30.577 77.212 -30.79 Q 77.038 -31.003 77.038 -31.238 Q 77.038 -31.54 77.302 -31.876 Q 77.565 -32.212 77.957 -32.515 Z M 77.946 -30.342 L 77.946 -30.342 Q 77.766 -30.028 77.699 -29.821 Q 77.632 -29.614 77.632 -29.435 Q 77.632 -28.46 79.312 -28.46 Q 79.973 -28.46 80.382 -28.628 Q 80.79 -28.796 80.975 -29.043 Q 81.16 -29.289 81.16 -29.524 Q 81.16 -29.816 80.981 -29.978 Q 80.802 -30.14 80.516 -30.208 Q 80.23 -30.275 79.911 -30.297 Q 79.592 -30.32 79.312 -30.32 Q 79.245 -30.32 79.211 -30.32 Q 78.763 -30.331 78.517 -30.331 Q 78.27 -30.331 78.147 -30.336 Q 78.024 -30.342 77.946 -30.342 Z M 79.043 -35.483 L 79.043 -35.483 Q 78.606 -35.483 78.343 -35.147 Q 78.08 -34.811 78.08 -34.105 Q 78.08 -33.388 78.36 -32.991 Q 78.64 -32.593 79.189 -32.593 Q 79.614 -32.593 79.889 -32.884 Q 80.163 -33.176 80.163 -33.971 Q 80.163 -34.654 79.872 -35.068 Q 79.581 -35.483 79.043 -35.483 Z " fill="black" /><path d="M 82.381 -32.291 L 82.381 -32.291 L 82.672 -32.291 Q 82.851 -31.428 83.198 -31.087 Q 83.546 -30.745 84.162 -30.745 Q 84.587 -30.745 84.856 -30.919 Q 85.125 -31.092 85.125 -31.484 Q 85.125 -31.753 85.03 -31.932 Q 84.934 -32.112 84.666 -32.296 Q 84.397 -32.481 83.87 -32.739 Q 83.109 -33.131 82.75 -33.495 Q 82.392 -33.859 82.392 -34.475 Q 82.392 -35.169 82.89 -35.528 Q 83.389 -35.886 84.106 -35.886 Q 84.531 -35.886 84.8 -35.791 Q 85.069 -35.696 85.282 -35.595 L 85.293 -35.595 L 85.483 -35.83 L 85.707 -35.83 L 85.741 -34.116 L 85.438 -34.116 Q 85.259 -34.912 84.934 -35.208 Q 84.61 -35.505 84.094 -35.505 Q 83.714 -35.505 83.45 -35.326 Q 83.187 -35.147 83.187 -34.766 Q 83.187 -34.441 83.49 -34.184 Q 83.792 -33.926 84.498 -33.568 Q 85.259 -33.164 85.662 -32.789 Q 86.066 -32.414 86.066 -31.787 Q 86.066 -31.26 85.808 -30.941 Q 85.55 -30.622 85.119 -30.476 Q 84.688 -30.331 84.184 -30.331 Q 83.702 -30.331 83.417 -30.432 Q 83.131 -30.532 82.907 -30.622 L 82.885 -30.622 L 82.65 -30.364 L 82.414 -30.364 Z " fill="black" /></g></g></g><circle cx="216.0" cy="-0.0" r="2.6999999999999997" style="stroke:black;fill:black;stroke-width:2.0;" /><circle cx="216.0" cy="-72.0" r="2.6999999999999997" style="stroke:black;fill:black;stroke-width:2.0;" /><g><g><g><path d="M 192.683 -42.79 L 192.683 -42.79 L 192.587 -41.974 L 191.195 -42.134 L 191.195 -42.086 Q 191.467 -41.782 191.619 -41.326 Q 191.771 -40.87 191.771 -40.454 Q 191.771 -39.734 191.483 -39.246 Q 191.195 -38.758 190.731 -38.462 Q 190.267 -38.166 189.707 -38.014 Q 189.147 -37.862 188.619 -37.814 Q 187.979 -37.75 187.715 -37.542 Q 187.451 -37.334 187.451 -37.11 Q 187.451 -36.822 187.771 -36.67 Q 188.091 -36.518 188.595 -36.422 Q 189.099 -36.326 189.675 -36.206 Q 190.251 -36.086 190.755 -35.878 Q 191.259 -35.67 191.579 -35.294 Q 191.899 -34.918 191.899 -34.294 Q 191.899 -33.606 191.451 -33.022 Q 191.003 -32.438 190.123 -32.078 Q 189.243 -31.718 187.963 -31.718 Q 186.811 -31.718 186.123 -31.998 Q 185.435 -32.278 185.131 -32.718 Q 184.827 -33.158 184.827 -33.638 Q 184.827 -34.406 185.419 -34.878 Q 186.011 -35.35 186.763 -35.59 L 186.763 -35.654 Q 186.555 -35.782 186.371 -36.014 Q 186.187 -36.246 186.187 -36.614 Q 186.187 -37.014 186.395 -37.254 Q 186.603 -37.494 186.931 -37.646 Q 187.259 -37.798 187.579 -37.91 L 187.579 -38.006 Q 186.955 -38.278 186.491 -38.774 Q 186.027 -39.27 186.027 -40.182 Q 186.027 -41.014 186.427 -41.646 Q 186.827 -42.278 187.523 -42.63 Q 188.219 -42.982 189.083 -42.982 Q 189.659 -42.982 189.955 -42.926 Q 190.251 -42.87 190.539 -42.79 Z M 190.747 -33.702 L 190.747 -33.702 Q 190.747 -34.182 190.347 -34.478 Q 189.947 -34.774 189.355 -34.95 Q 188.763 -35.126 188.163 -35.23 Q 187.563 -35.334 187.147 -35.414 Q 186.747 -35.158 186.411 -34.83 Q 186.075 -34.502 186.075 -33.878 Q 186.075 -33.238 186.571 -32.758 Q 187.067 -32.278 188.283 -32.278 Q 189.435 -32.278 190.091 -32.702 Q 190.747 -33.126 190.747 -33.702 Z M 190.347 -40.63 L 190.347 -40.63 Q 190.347 -41.43 190.043 -41.966 Q 189.739 -42.502 189.035 -42.502 Q 188.347 -42.502 187.899 -41.926 Q 187.451 -41.35 187.451 -40.182 Q 187.451 -39.35 187.739 -38.83 Q 188.027 -38.31 188.715 -38.31 Q 189.515 -38.31 189.931 -38.982 Q 190.347 -39.654 190.347 -40.63 Z " fill="black" /><path d="M 198.664 -32.16 L 198.664 -32.16 L 197.23 -31.902 L 196.973 -31.902 L 196.973 -32.675 L 196.928 -32.675 Q 196.614 -32.395 196.183 -32.132 Q 195.752 -31.868 195.192 -31.868 Q 194.565 -31.868 194.134 -32.204 Q 193.702 -32.54 193.49 -33.117 Q 193.277 -33.694 193.277 -34.411 Q 193.277 -35.34 193.624 -36.007 Q 193.971 -36.673 194.559 -37.032 Q 195.147 -37.39 195.853 -37.39 Q 196.133 -37.39 196.407 -37.328 Q 196.682 -37.267 196.939 -37.121 L 196.939 -38.588 Q 196.939 -38.958 196.855 -39.07 Q 196.771 -39.182 196.446 -39.182 Q 196.368 -39.182 196.262 -39.171 Q 196.155 -39.16 196.155 -39.16 L 196.155 -39.473 L 197.566 -39.865 L 197.869 -39.865 L 197.869 -33.156 Q 197.869 -32.72 197.992 -32.591 Q 198.115 -32.462 198.429 -32.462 L 198.664 -32.462 Z M 196.939 -33.089 L 196.939 -33.089 L 196.939 -36.046 Q 196.872 -36.393 196.614 -36.668 Q 196.357 -36.942 195.83 -36.942 Q 195.125 -36.942 194.688 -36.427 Q 194.251 -35.912 194.251 -34.848 Q 194.251 -33.694 194.626 -33.184 Q 195.002 -32.675 195.718 -32.675 Q 196.11 -32.675 196.379 -32.781 Q 196.648 -32.888 196.939 -33.089 Z " fill="black" /><path d="M 199.381 -33.795 L 199.381 -33.795 L 199.672 -33.795 Q 199.851 -32.932 200.198 -32.591 Q 200.546 -32.249 201.162 -32.249 Q 201.587 -32.249 201.856 -32.423 Q 202.125 -32.596 202.125 -32.988 Q 202.125 -33.257 202.03 -33.436 Q 201.934 -33.616 201.666 -33.8 Q 201.397 -33.985 200.87 -34.243 Q 200.109 -34.635 199.75 -34.999 Q 199.392 -35.363 199.392 -35.979 Q 199.392 -36.673 199.89 -37.032 Q 200.389 -37.39 201.106 -37.39 Q 201.531 -37.39 201.8 -37.295 Q 202.069 -37.2 202.282 -37.099 L 202.293 -37.099 L 202.483 -37.334 L 202.707 -37.334 L 202.741 -35.62 L 202.438 -35.62 Q 202.259 -36.416 201.934 -36.712 Q 201.61 -37.009 201.094 -37.009 Q 200.714 -37.009 200.45 -36.83 Q 200.187 -36.651 200.187 -36.27 Q 200.187 -35.945 200.49 -35.688 Q 200.792 -35.43 201.498 -35.072 Q 202.259 -34.668 202.662 -34.293 Q 203.066 -33.918 203.066 -33.291 Q 203.066 -32.764 202.808 -32.445 Q 202.55 -32.126 202.119 -31.98 Q 201.688 -31.835 201.184 -31.835 Q 200.702 -31.835 200.417 -31.936 Q 200.131 -32.036 199.907 -32.126 L 199.885 -32.126 L 199.65 -31.868 L 199.414 -31.868 Z " fill="black" /></g></g></g><g><g><g><path d="M 283.514 -40.038 L 283.514 -40.038 L 282.314 -34.342 Q 282.314 -34.342 282.274 -34.094 Q 282.234 -33.846 282.234 -33.67 Q 282.234 -33.366 282.522 -33.366 Q 282.938 -33.366 283.258 -33.678 Q 283.578 -33.99 283.77 -34.198 L 284.09 -33.958 Q 283.818 -33.574 283.498 -33.182 Q 283.178 -32.79 282.778 -32.534 Q 282.378 -32.278 281.85 -32.278 Q 280.842 -32.278 280.842 -33.126 Q 280.842 -33.334 280.898 -33.662 Q 280.954 -33.99 281.114 -34.694 L 281.93 -38.502 Q 281.93 -38.502 281.954 -38.646 Q 281.978 -38.79 281.978 -38.998 Q 281.978 -39.158 281.882 -39.31 Q 281.786 -39.462 281.466 -39.462 Q 281.258 -39.462 281.09 -39.446 Q 280.922 -39.43 280.922 -39.43 L 280.922 -39.862 L 283.162 -40.038 Z M 283.898 -42.182 L 283.898 -42.182 Q 283.898 -41.782 283.642 -41.55 Q 283.386 -41.318 283.018 -41.318 Q 282.666 -41.318 282.426 -41.542 Q 282.186 -41.766 282.186 -42.182 Q 282.186 -42.598 282.426 -42.83 Q 282.666 -43.062 283.066 -43.062 Q 283.466 -43.062 283.682 -42.822 Q 283.898 -42.582 283.898 -42.182 Z " fill="black" /><path d="M 286.219 -36.969 L 286.219 -36.969 L 286.219 -33.542 L 286.253 -33.542 Q 286.544 -33.9 286.981 -34.197 Q 287.418 -34.494 287.978 -34.494 Q 288.538 -34.494 288.958 -34.174 Q 289.378 -33.855 289.613 -33.295 Q 289.848 -32.735 289.848 -32.007 Q 289.848 -31.01 289.501 -30.327 Q 289.154 -29.644 288.549 -29.297 Q 287.944 -28.95 287.16 -28.95 Q 286.443 -28.95 285.967 -29.118 Q 285.491 -29.286 285.29 -29.398 L 285.29 -35.692 Q 285.29 -36.073 285.206 -36.179 Q 285.122 -36.286 284.797 -36.286 Q 284.662 -36.286 284.573 -36.274 Q 284.483 -36.263 284.483 -36.263 L 284.483 -36.577 L 285.928 -36.969 Z M 286.219 -33.049 L 286.219 -33.049 L 286.219 -29.935 Q 286.376 -29.745 286.645 -29.577 Q 286.914 -29.409 287.362 -29.409 Q 287.899 -29.409 288.218 -29.711 Q 288.538 -30.014 288.683 -30.523 Q 288.829 -31.033 288.829 -31.649 Q 288.829 -32.186 288.717 -32.662 Q 288.605 -33.138 288.314 -33.435 Q 288.022 -33.732 287.485 -33.732 Q 287.059 -33.732 286.718 -33.491 Q 286.376 -33.25 286.219 -33.049 Z " fill="black" /><path d="M 293.118 -29.375 L 293.118 -29.375 L 293.118 -29.062 L 290.598 -29.062 L 290.598 -29.375 Q 290.979 -29.375 291.142 -29.448 Q 291.304 -29.521 291.343 -29.7 Q 291.382 -29.879 291.382 -30.193 L 291.382 -33.318 Q 291.382 -33.676 291.259 -33.76 Q 291.136 -33.844 290.89 -33.844 Q 290.778 -33.844 290.694 -33.833 Q 290.61 -33.822 290.61 -33.822 L 290.61 -34.146 L 292.021 -34.46 L 292.312 -34.46 L 292.312 -30.193 Q 292.312 -29.868 292.357 -29.689 Q 292.402 -29.51 292.575 -29.442 Q 292.749 -29.375 293.118 -29.375 Z M 291.864 -36.599 L 291.864 -36.599 Q 292.155 -36.599 292.329 -36.414 Q 292.502 -36.23 292.502 -35.972 Q 292.502 -35.714 292.329 -35.524 Q 292.155 -35.334 291.864 -35.334 Q 291.584 -35.334 291.405 -35.524 Q 291.226 -35.714 291.226 -35.972 Q 291.226 -36.23 291.399 -36.414 Q 291.573 -36.599 291.864 -36.599 Z " fill="black" /><path d="M 296.882 -29.756 L 296.882 -29.756 L 296.837 -29.756 Q 296.445 -29.409 296.086 -29.196 Q 295.728 -28.983 295.19 -28.983 Q 294.541 -28.983 294.199 -29.342 Q 293.858 -29.7 293.858 -30.238 Q 293.858 -30.686 294.065 -30.994 Q 294.272 -31.302 294.614 -31.514 Q 294.955 -31.727 295.353 -31.873 Q 295.75 -32.018 296.131 -32.119 Q 296.512 -32.22 296.803 -32.31 L 296.803 -32.802 Q 296.803 -33.53 296.551 -33.838 Q 296.299 -34.146 295.795 -34.146 Q 295.314 -34.146 295.179 -33.945 Q 295.045 -33.743 295.045 -33.239 Q 295.045 -32.724 294.552 -32.724 Q 294.384 -32.724 294.233 -32.853 Q 294.082 -32.982 294.082 -33.262 Q 294.082 -33.575 294.322 -33.855 Q 294.563 -34.135 295.006 -34.314 Q 295.448 -34.494 296.053 -34.494 Q 296.971 -34.494 297.352 -34.068 Q 297.733 -33.642 297.733 -32.769 L 297.733 -30.226 Q 297.733 -29.879 297.811 -29.778 Q 297.89 -29.678 298.069 -29.678 Q 298.226 -29.678 298.354 -29.756 Q 298.483 -29.834 298.595 -29.958 L 298.763 -29.778 Q 298.483 -29.375 298.231 -29.19 Q 297.979 -29.006 297.554 -29.006 Q 297.184 -29.006 297.061 -29.196 Q 296.938 -29.386 296.882 -29.756 Z M 296.803 -30.092 L 296.803 -30.092 L 296.803 -31.94 Q 296.299 -31.817 295.851 -31.649 Q 295.403 -31.481 295.123 -31.212 Q 294.843 -30.943 294.843 -30.506 Q 294.843 -30.092 295.067 -29.846 Q 295.291 -29.599 295.65 -29.599 Q 296.21 -29.599 296.803 -30.092 Z " fill="black" /><path d="M 299.245 -30.898 L 299.245 -30.898 L 299.536 -30.898 Q 299.715 -30.036 300.062 -29.694 Q 300.41 -29.353 301.026 -29.353 Q 301.451 -29.353 301.72 -29.526 Q 301.989 -29.7 301.989 -30.092 Q 301.989 -30.361 301.894 -30.54 Q 301.798 -30.719 301.53 -30.904 Q 301.261 -31.089 300.734 -31.346 Q 299.973 -31.738 299.614 -32.102 Q 299.256 -32.466 299.256 -33.082 Q 299.256 -33.777 299.754 -34.135 Q 300.253 -34.494 300.97 -34.494 Q 301.395 -34.494 301.664 -34.398 Q 301.933 -34.303 302.146 -34.202 L 302.157 -34.202 L 302.347 -34.438 L 302.571 -34.438 L 302.605 -32.724 L 302.302 -32.724 Q 302.123 -33.519 301.798 -33.816 Q 301.474 -34.113 300.958 -34.113 Q 300.578 -34.113 300.314 -33.934 Q 300.051 -33.754 300.051 -33.374 Q 300.051 -33.049 300.354 -32.791 Q 300.656 -32.534 301.362 -32.175 Q 302.123 -31.772 302.526 -31.397 Q 302.93 -31.022 302.93 -30.394 Q 302.93 -29.868 302.672 -29.549 Q 302.414 -29.23 301.983 -29.084 Q 301.552 -28.938 301.048 -28.938 Q 300.566 -28.938 300.281 -29.039 Q 299.995 -29.14 299.771 -29.23 L 299.749 -29.23 L 299.514 -28.972 L 299.278 -28.972 Z " fill="black" /></g></g></g><g><g><g><path d="M -202.461 -42.78 L -202.461 -42.78 L -202.109 -42.78 L -202.861 -39.708 Q -202.973 -39.292 -203.093 -38.708 Q -203.213 -38.124 -203.213 -37.58 Q -203.213 -36.956 -202.957 -36.5 Q -202.701 -36.044 -201.965 -36.044 Q -201.149 -36.044 -200.557 -36.436 Q -199.965 -36.828 -199.589 -37.436 Q -199.213 -38.044 -199.029 -38.716 Q -198.845 -39.388 -198.845 -39.948 Q -198.845 -40.364 -198.989 -40.668 Q -199.133 -40.972 -199.333 -41.212 Q -199.533 -41.452 -199.677 -41.676 Q -199.821 -41.9 -199.821 -42.156 Q -199.821 -42.476 -199.645 -42.652 Q -199.469 -42.828 -199.213 -42.828 Q -198.669 -42.828 -198.333 -42.284 Q -197.997 -41.74 -197.997 -40.892 Q -197.997 -40.156 -198.181 -39.348 Q -198.365 -38.54 -198.733 -37.772 Q -199.101 -37.004 -199.645 -36.38 Q -200.189 -35.756 -200.893 -35.388 Q -201.597 -35.02 -202.461 -35.02 Q -203.261 -35.02 -203.709 -35.34 Q -204.157 -35.66 -204.341 -36.188 Q -204.525 -36.716 -204.525 -37.324 Q -204.525 -37.9 -204.413 -38.508 Q -204.301 -39.116 -204.173 -39.612 L -203.853 -40.828 Q -203.821 -40.956 -203.757 -41.212 Q -203.693 -41.468 -203.693 -41.708 Q -203.693 -41.916 -203.773 -42.06 Q -203.853 -42.204 -204.077 -42.204 Q -204.269 -42.204 -204.541 -42.18 Q -204.813 -42.156 -204.813 -42.156 L -204.813 -42.604 Z " fill="black" /><path d="M -196.563 -33.865 L -196.563 -33.865 L -196.563 -33.887 Q -196.966 -34.122 -197.196 -34.492 Q -197.426 -34.862 -197.426 -35.41 Q -197.426 -36.25 -196.854 -36.743 Q -196.283 -37.236 -195.398 -37.236 Q -195.029 -37.236 -194.749 -37.169 Q -194.469 -37.102 -194.312 -37.029 Q -194.155 -36.956 -194.155 -36.956 L -192.71 -37.034 L -192.71 -36.43 L -193.763 -36.463 L -193.763 -36.407 Q -193.64 -36.239 -193.5 -35.959 Q -193.36 -35.679 -193.36 -35.254 Q -193.36 -34.47 -193.909 -34.01 Q -194.458 -33.551 -195.342 -33.551 Q -195.611 -33.551 -195.846 -33.596 Q -196.082 -33.641 -196.306 -33.719 Q -196.384 -33.607 -196.49 -33.361 Q -196.597 -33.114 -196.597 -32.969 Q -196.597 -32.722 -196.322 -32.622 Q -196.048 -32.521 -195.275 -32.521 Q -194.57 -32.521 -194.004 -32.454 Q -193.438 -32.386 -193.114 -32.106 Q -192.789 -31.826 -192.789 -31.188 Q -192.789 -30.628 -193.063 -30.242 Q -193.338 -29.855 -193.791 -29.62 Q -194.245 -29.385 -194.788 -29.278 Q -195.331 -29.172 -195.858 -29.172 Q -196.586 -29.172 -197.006 -29.351 Q -197.426 -29.53 -197.594 -29.816 Q -197.762 -30.102 -197.762 -30.404 Q -197.762 -30.684 -197.532 -30.992 Q -197.302 -31.3 -196.854 -31.737 L -196.854 -31.782 Q -197.134 -31.927 -197.308 -32.14 Q -197.482 -32.353 -197.482 -32.588 Q -197.482 -32.89 -197.218 -33.226 Q -196.955 -33.562 -196.563 -33.865 Z M -196.574 -31.692 L -196.574 -31.692 Q -196.754 -31.378 -196.821 -31.171 Q -196.888 -30.964 -196.888 -30.785 Q -196.888 -29.81 -195.208 -29.81 Q -194.547 -29.81 -194.138 -29.978 Q -193.73 -30.146 -193.545 -30.393 Q -193.36 -30.639 -193.36 -30.874 Q -193.36 -31.166 -193.539 -31.328 Q -193.718 -31.49 -194.004 -31.558 Q -194.29 -31.625 -194.609 -31.647 Q -194.928 -31.67 -195.208 -31.67 Q -195.275 -31.67 -195.309 -31.67 Q -195.757 -31.681 -196.003 -31.681 Q -196.25 -31.681 -196.373 -31.686 Q -196.496 -31.692 -196.574 -31.692 Z M -195.477 -36.833 L -195.477 -36.833 Q -195.914 -36.833 -196.177 -36.497 Q -196.44 -36.161 -196.44 -35.455 Q -196.44 -34.738 -196.16 -34.341 Q -195.88 -33.943 -195.331 -33.943 Q -194.906 -33.943 -194.631 -34.234 Q -194.357 -34.526 -194.357 -35.321 Q -194.357 -36.004 -194.648 -36.418 Q -194.939 -36.833 -195.477 -36.833 Z " fill="black" /><path d="M -192.139 -33.641 L -192.139 -33.641 L -191.848 -33.641 Q -191.669 -32.778 -191.322 -32.437 Q -190.974 -32.095 -190.358 -32.095 Q -189.933 -32.095 -189.664 -32.269 Q -189.395 -32.442 -189.395 -32.834 Q -189.395 -33.103 -189.49 -33.282 Q -189.586 -33.462 -189.854 -33.646 Q -190.123 -33.831 -190.65 -34.089 Q -191.411 -34.481 -191.77 -34.845 Q -192.128 -35.209 -192.128 -35.825 Q -192.128 -36.519 -191.63 -36.878 Q -191.131 -37.236 -190.414 -37.236 Q -189.989 -37.236 -189.72 -37.141 Q -189.451 -37.046 -189.238 -36.945 L -189.227 -36.945 L -189.037 -37.18 L -188.813 -37.18 L -188.779 -35.466 L -189.082 -35.466 Q -189.261 -36.262 -189.586 -36.558 Q -189.91 -36.855 -190.426 -36.855 Q -190.806 -36.855 -191.07 -36.676 Q -191.333 -36.497 -191.333 -36.116 Q -191.333 -35.791 -191.03 -35.534 Q -190.728 -35.276 -190.022 -34.918 Q -189.261 -34.514 -188.858 -34.139 Q -188.454 -33.764 -188.454 -33.137 Q -188.454 -32.61 -188.712 -32.291 Q -188.97 -31.972 -189.401 -31.826 Q -189.832 -31.681 -190.336 -31.681 Q -190.818 -31.681 -191.103 -31.782 Q -191.389 -31.882 -191.613 -31.972 L -191.635 -31.972 L -191.87 -31.714 L -192.106 -31.714 Z " fill="black" /></g></g></g></svg>