<svg xmlns="http://www.w3.org/2000/svg" xml:lang="en" height="211.636pt" width="291.63999999999993pt" viewBox="-74.13199999999999 -81.856 291.63999999999993 211.636"><circle cx="71.99999999999999" cy="-36.0" r="18.0" style="stroke:black;fill:none;stroke-width:2.0;" /><path d="M 0.0,-0.0 L -27.0,-3.3065463576978533e-15 L -54.0,-6.613092715395707e-15" style="stroke:black;fill:none;stroke-width:2.0;stroke-linecap:round;stroke-linejoin:round;" /><path d="M 0.0,-0.0 L -6.017914371010093e-15,32.76 M 8.999999999999995,32.76 L -9.000000000000005,32.76 M 8.999999999999993,39.24 L -9.000000000000007,39.24 M -7.208271059781322e-15,39.24 L -1.3226185430791413e-14,72.0" style="stroke:black;fill:none;stroke-width:2.0;stroke-linecap:round;stroke-linejoin:round;" /><path d="M -1.3226185430791413e-14,72.0 L 35.999999999999986,72.0 L 71.99999999999999,72.0" style="stroke:black;fill:none;stroke-width:2.0;stroke-linecap:round;stroke-linejoin:round;" /><path d="M 71.99999999999999,72.0 L 71.99999999999999,90.0 L 71.99999999999997,108.0" style="stroke:black;fill:none;stroke-width:2.0;stroke-linecap:round;stroke-linejoin:round;" /><path d="M 71.99999999999999,72.0 L 71.99999999999999,54.0 L 62.999999999999986,50.99999999999999 L 80.99999999999999,45.0 L 62.999999999999986,39.00000000000001 L 80.99999999999999,33.0 L 62.999999999999986,27.0 L 80.99999999999999,21.000000000000007 L 71.99999999999999,18.0 L 71.99999999999999,-0.0" style="stroke:black;fill:none;stroke-width:2.0;stroke-linecap:round;stroke-linejoin:round;" /><path d="M 71.99999999999999,-0.0 L 35.99999999999999,-4.408728476930472e-15 L -7.993605777301127e-15,-8.817456953860943e-15" style="stroke:black;fill:none;stroke-width:2.0;stroke-linecap:round;stroke-linejoin:round;" /><path d="M 71.99999999999999,-0.0 L 71.99999999999999,-18.0 L 71.99999999999999,-18.0 M 71.99999999999999,-54.0 L 71.99999999999999,-54.0 L 72.0,-72.0" style="stroke:black;fill:none;stroke-width:2.0;stroke-linecap:round;stroke-linejoin:round;" /><path d="M 71.99999999999999,-36.0 L 71.99999999999999,-45.0" style="stroke:black;fill:none;stroke-width:2.0;stroke-linecap:round;stroke-linejoin:round;" /><path d="M 71.99999999999999 -29.0 L 69.29999999999998 -36.0 L 74.69999999999999 -36.0 Z" style="stroke:black;fill:black;stroke-linecap:butt;stroke-linejoin:miter;" /><path d="M 72.0,-72.0 L 108.0,-72.0 L 144.0,-72.0" style="stroke:black;fill:none;stroke-width:2.0;stroke-linecap:round;stroke-linejoin:round;" /><path d="M 144.0,-72.0 L 171.0,-72.0 L 198.0,-72.0" style="stroke:black;fill:none;stroke-width:2.0;stroke-linecap:round;stroke-linejoin:round;" /><path d="M 144.0,-72.0 L 143.99999999999997,-18.0 L 153.0,-15.000000000000004 L 134.99999999999997,-9.0 L 153.0,-3.0000000000000053 L 134.99999999999997,2.9999999999999893 L 153.0,9.0 L 134.99999999999997,14.999999999999995 L 143.99999999999997,18.0 L 143.99999999999997,72.0" style="stroke:black;fill:none;stroke-width:2.0;stroke-linecap:round;stroke-linejoin:round;" /><path d="M 143.99999999999997,72.0 L 107.99999999999997,71.99999999999999 L 71.99999999999997,71.99999999999999" style="stroke:black;fill:none;stroke-width:2.0;stroke-linecap:round;stroke-linejoin:round;" /><circle cx="-54.0" cy="-6.613092715395707e-15" r="2.6999999999999997" style="stroke:black;fill:white;stroke-width:2.0;" /><g><g><g><path d="M -63.82 5.44 L -63.82 5.44 Q -65.244 5.44 -66.34 4.792 Q -67.436 4.144 -68.052 2.928 Q -68.668 1.712 -68.668 0.032 Q -68.668 -1.696 -68.028 -2.92 Q -67.388 -4.144 -66.292 -4.792 Q -65.196 -5.44 -63.804 -5.44 Q -62.62 -5.44 -61.876 -5.04 Q -61.132 -4.64 -60.652 -4.144 L -61.404 -3.264 Q -61.804 -3.68 -62.348 -3.968 Q -62.892 -4.256 -63.74 -4.256 Q -65.34 -4.256 -66.3 -3.12 Q -67.26 -1.984 -67.26 0.016 Q -67.26 1.936 -66.34 3.088 Q -65.42 4.24 -63.74 4.24 Q -62.428 4.24 -61.772 3.632 L -61.772 0.928 L -64.028 0.928 L -64.028 -0.208 L -60.524 -0.208 L -60.524 4.224 Q -61.036 4.752 -61.884 5.096 Q -62.732 5.44 -63.82 5.44 Z " fill="black" /></g></g></g><g><g><g><path d="M -23.682 36.044 L -23.682 36.044 L -23.394 36.348 Q -24.21 37.308 -25.282 37.924 Q -26.354 38.54 -27.874 38.54 Q -29.314 38.54 -30.178 38.004 Q -31.042 37.468 -31.418 36.572 Q -31.794 35.676 -31.794 34.62 Q -31.794 32.94 -31.282 31.636 Q -30.77 30.332 -29.882 29.444 Q -28.994 28.556 -27.874 28.1 Q -26.754 27.644 -25.538 27.644 Q -24.722 27.644 -24.266 27.788 Q -23.81 27.932 -23.554 28.084 Q -23.298 28.236 -23.106 28.236 Q -22.914 28.236 -22.77 28.076 Q -22.626 27.916 -22.434 27.66 L -21.97 27.66 L -22.722 31.324 L -23.25 31.324 Q -23.186 29.724 -23.842 29.028 Q -24.498 28.332 -25.682 28.332 Q -26.61 28.332 -27.426 28.756 Q -28.242 29.18 -28.874 29.956 Q -29.506 30.732 -29.866 31.812 Q -30.226 32.892 -30.226 34.22 Q -30.226 35.82 -29.466 36.66 Q -28.706 37.5 -27.122 37.5 Q -25.282 37.5 -23.682 36.044 Z " fill="black" /><path d="M -21.048 39.663 L -21.048 39.663 L -21.048 39.641 Q -21.451 39.406 -21.681 39.036 Q -21.91 38.666 -21.91 38.118 Q -21.91 37.278 -21.339 36.785 Q -20.768 36.292 -19.883 36.292 Q -19.514 36.292 -19.234 36.359 Q -18.954 36.426 -18.797 36.499 Q -18.64 36.572 -18.64 36.572 L -17.195 36.494 L -17.195 37.098 L -18.248 37.065 L -18.248 37.121 Q -18.125 37.289 -17.985 37.569 Q -17.845 37.849 -17.845 38.274 Q -17.845 39.058 -18.394 39.518 Q -18.942 39.977 -19.827 39.977 Q -20.096 39.977 -20.331 39.932 Q -20.566 39.887 -20.79 39.809 Q -20.869 39.921 -20.975 40.167 Q -21.082 40.414 -21.082 40.559 Q -21.082 40.806 -20.807 40.906 Q -20.533 41.007 -19.76 41.007 Q -19.054 41.007 -18.489 41.074 Q -17.923 41.142 -17.598 41.422 Q -17.274 41.702 -17.274 42.34 Q -17.274 42.9 -17.548 43.286 Q -17.822 43.673 -18.276 43.908 Q -18.73 44.143 -19.273 44.25 Q -19.816 44.356 -20.342 44.356 Q -21.07 44.356 -21.49 44.177 Q -21.91 43.998 -22.078 43.712 Q -22.246 43.426 -22.246 43.124 Q -22.246 42.844 -22.017 42.536 Q -21.787 42.228 -21.339 41.791 L -21.339 41.746 Q -21.619 41.601 -21.793 41.388 Q -21.966 41.175 -21.966 40.94 Q -21.966 40.638 -21.703 40.302 Q -21.44 39.966 -21.048 39.663 Z M -21.059 41.836 L -21.059 41.836 Q -21.238 42.15 -21.306 42.357 Q -21.373 42.564 -21.373 42.743 Q -21.373 43.718 -19.693 43.718 Q -19.032 43.718 -18.623 43.55 Q -18.214 43.382 -18.03 43.135 Q -17.845 42.889 -17.845 42.654 Q -17.845 42.362 -18.024 42.2 Q -18.203 42.038 -18.489 41.97 Q -18.774 41.903 -19.094 41.881 Q -19.413 41.858 -19.693 41.858 Q -19.76 41.858 -19.794 41.858 Q -20.242 41.847 -20.488 41.847 Q -20.734 41.847 -20.858 41.842 Q -20.981 41.836 -21.059 41.836 Z M -19.962 36.695 L -19.962 36.695 Q -20.398 36.695 -20.662 37.031 Q -20.925 37.367 -20.925 38.073 Q -20.925 38.79 -20.645 39.187 Q -20.365 39.585 -19.816 39.585 Q -19.39 39.585 -19.116 39.294 Q -18.842 39.002 -18.842 38.207 Q -18.842 37.524 -19.133 37.11 Q -19.424 36.695 -19.962 36.695 Z " fill="black" /><path d="M -15.627 39.663 L -15.627 39.663 L -15.627 39.641 Q -16.03 39.406 -16.26 39.036 Q -16.49 38.666 -16.49 38.118 Q -16.49 37.278 -15.918 36.785 Q -15.347 36.292 -14.462 36.292 Q -14.093 36.292 -13.813 36.359 Q -13.533 36.426 -13.376 36.499 Q -13.219 36.572 -13.219 36.572 L -11.774 36.494 L -11.774 37.098 L -12.827 37.065 L -12.827 37.121 Q -12.704 37.289 -12.564 37.569 Q -12.424 37.849 -12.424 38.274 Q -12.424 39.058 -12.973 39.518 Q -13.522 39.977 -14.406 39.977 Q -14.675 39.977 -14.91 39.932 Q -15.146 39.887 -15.37 39.809 Q -15.448 39.921 -15.554 40.167 Q -15.661 40.414 -15.661 40.559 Q -15.661 40.806 -15.386 40.906 Q -15.112 41.007 -14.339 41.007 Q -13.634 41.007 -13.068 41.074 Q -12.502 41.142 -12.178 41.422 Q -11.853 41.702 -11.853 42.34 Q -11.853 42.9 -12.127 43.286 Q -12.402 43.673 -12.855 43.908 Q -13.309 44.143 -13.852 44.25 Q -14.395 44.356 -14.922 44.356 Q -15.65 44.356 -16.07 44.177 Q -16.49 43.998 -16.658 43.712 Q -16.826 43.426 -16.826 43.124 Q -16.826 42.844 -16.596 42.536 Q -16.366 42.228 -15.918 41.791 L -15.918 41.746 Q -16.198 41.601 -16.372 41.388 Q -16.546 41.175 -16.546 40.94 Q -16.546 40.638 -16.282 40.302 Q -16.019 39.966 -15.627 39.663 Z M -15.638 41.836 L -15.638 41.836 Q -15.818 42.15 -15.885 42.357 Q -15.952 42.564 -15.952 42.743 Q -15.952 43.718 -14.272 43.718 Q -13.611 43.718 -13.202 43.55 Q -12.794 43.382 -12.609 43.135 Q -12.424 42.889 -12.424 42.654 Q -12.424 42.362 -12.603 42.2 Q -12.782 42.038 -13.068 41.97 Q -13.354 41.903 -13.673 41.881 Q -13.992 41.858 -14.272 41.858 Q -14.339 41.858 -14.373 41.858 Q -14.821 41.847 -15.067 41.847 Q -15.314 41.847 -15.437 41.842 Q -15.56 41.836 -15.638 41.836 Z M -14.541 36.695 L -14.541 36.695 Q -14.978 36.695 -15.241 37.031 Q -15.504 37.367 -15.504 38.073 Q -15.504 38.79 -15.224 39.187 Q -14.944 39.585 -14.395 39.585 Q -13.97 39.585 -13.695 39.294 Q -13.421 39.002 -13.421 38.207 Q -13.421 37.524 -13.712 37.11 Q -14.003 36.695 -14.541 36.695 Z " fill="black" /></g></g></g><circle cx="71.99999999999999" cy="72.0" r="2.6999999999999997" style="stroke:black;fill:black;stroke-width:2.0;" /><circle cx="71.99999999999997" cy="108.0" r="2.6999999999999997" style="stroke:black;fill:white;stroke-width:2.0;" /><g><g><g><path d="M 72.448 125.18 L 72.448 125.18 Q 71.296 125.18 70.344 124.756 Q 69.392 124.332 68.688 123.628 L 69.504 122.684 Q 70.08 123.276 70.856 123.628 Q 71.632 123.98 72.512 123.98 Q 73.536 123.98 74.12 123.516 Q 74.704 123.052 74.704 122.268 Q 74.704 121.756 74.472 121.436 Q 74.24 121.116 73.832 120.892 Q 73.424 120.668 72.912 120.46 L 71.376 119.804 Q 70.912 119.596 70.4 119.268 Q 69.888 118.94 69.544 118.42 Q 69.2 117.9 69.2 117.132 Q 69.2 116.3 69.64 115.66 Q 70.08 115.02 70.84 114.66 Q 71.6 114.3 72.56 114.3 Q 73.536 114.3 74.352 114.66 Q 75.168 115.02 75.744 115.596 L 75.024 116.476 Q 74.512 116.012 73.912 115.748 Q 73.312 115.484 72.592 115.484 Q 71.68 115.484 71.136 115.892 Q 70.592 116.3 70.592 117.004 Q 70.592 117.5 70.856 117.82 Q 71.12 118.14 71.528 118.348 Q 71.936 118.556 72.368 118.732 L 73.888 119.372 Q 74.496 119.628 75 119.988 Q 75.504 120.348 75.8 120.876 Q 76.096 121.404 76.096 122.14 Q 76.096 123.004 75.656 123.692 Q 75.216 124.38 74.4 124.78 Q 73.584 125.18 72.448 125.18 Z " fill="black" /></g></g></g><circle cx="71.99999999999999" cy="-0.0" r="2.6999999999999997" style="stroke:black;fill:black;stroke-width:2.0;" /><g><g><g><path d="M 49.602 29.21 L 49.602 29.21 L 49.506 30.026 L 48.114 29.866 L 48.114 29.914 Q 48.386 30.218 48.538 30.674 Q 48.69 31.13 48.69 31.546 Q 48.69 32.266 48.402 32.754 Q 48.114 33.242 47.65 33.538 Q 47.186 33.834 46.626 33.986 Q 46.066 34.138 45.538 34.186 Q 44.898 34.25 44.634 34.458 Q 44.37 34.666 44.37 34.89 Q 44.37 35.178 44.69 35.33 Q 45.01 35.482 45.514 35.578 Q 46.018 35.674 46.594 35.794 Q 47.17 35.914 47.674 36.122 Q 48.178 36.33 48.498 36.706 Q 48.818 37.082 48.818 37.706 Q 48.818 38.394 48.37 38.978 Q 47.922 39.562 47.042 39.922 Q 46.162 40.282 44.882 40.282 Q 43.73 40.282 43.042 40.002 Q 42.354 39.722 42.05 39.282 Q 41.746 38.842 41.746 38.362 Q 41.746 37.594 42.338 37.122 Q 42.93 36.65 43.682 36.41 L 43.682 36.346 Q 43.474 36.218 43.29 35.986 Q 43.106 35.754 43.106 35.386 Q 43.106 34.986 43.314 34.746 Q 43.522 34.506 43.85 34.354 Q 44.178 34.202 44.498 34.09 L 44.498 33.994 Q 43.874 33.722 43.41 33.226 Q 42.946 32.73 42.946 31.818 Q 42.946 30.986 43.346 30.354 Q 43.746 29.722 44.442 29.37 Q 45.138 29.018 46.002 29.018 Q 46.578 29.018 46.874 29.074 Q 47.17 29.13 47.458 29.21 Z M 47.666 38.298 L 47.666 38.298 Q 47.666 37.818 47.266 37.522 Q 46.866 37.226 46.274 37.05 Q 45.682 36.874 45.082 36.77 Q 44.482 36.666 44.066 36.586 Q 43.666 36.842 43.33 37.17 Q 42.994 37.498 42.994 38.122 Q 42.994 38.762 43.49 39.242 Q 43.986 39.722 45.202 39.722 Q 46.354 39.722 47.01 39.298 Q 47.666 38.874 47.666 38.298 Z M 47.266 31.37 L 47.266 31.37 Q 47.266 30.57 46.962 30.034 Q 46.658 29.498 45.954 29.498 Q 45.266 29.498 44.818 30.074 Q 44.37 30.65 44.37 31.818 Q 44.37 32.65 44.658 33.17 Q 44.946 33.69 45.634 33.69 Q 46.434 33.69 46.85 33.018 Q 47.266 32.346 47.266 31.37 Z " fill="black" /><path d="M 51.898 36.044 L 51.898 36.044 L 51.898 38.956 Q 51.898 39.426 52.06 39.572 Q 52.222 39.717 52.738 39.717 L 52.738 40.042 L 50.184 40.042 L 50.184 39.717 Q 50.542 39.717 50.705 39.656 Q 50.867 39.594 50.918 39.42 Q 50.968 39.247 50.968 38.911 L 50.968 35.775 Q 50.968 35.472 50.85 35.372 Q 50.733 35.271 50.498 35.271 Q 50.374 35.271 50.285 35.282 Q 50.195 35.293 50.195 35.293 L 50.195 34.968 L 51.595 34.644 L 51.864 34.644 L 51.864 35.551 L 51.909 35.551 Q 52.368 35.159 52.794 34.884 Q 53.219 34.61 53.79 34.61 Q 54.272 34.61 54.569 34.873 Q 54.866 35.136 55.034 35.54 L 55.078 35.54 Q 55.538 35.08 55.974 34.845 Q 56.411 34.61 56.859 34.61 Q 57.52 34.61 57.912 35.024 Q 58.304 35.439 58.304 36.458 L 58.304 38.743 Q 58.304 39.09 58.343 39.308 Q 58.382 39.527 58.556 39.622 Q 58.73 39.717 59.11 39.717 L 59.11 40.042 L 56.579 40.042 L 56.579 39.717 Q 56.96 39.717 57.128 39.616 Q 57.296 39.516 57.335 39.297 Q 57.374 39.079 57.374 38.743 L 57.374 36.592 Q 57.374 36.077 57.246 35.808 Q 57.117 35.54 56.898 35.433 Q 56.68 35.327 56.411 35.327 Q 56.064 35.327 55.734 35.556 Q 55.403 35.786 55.123 36.021 L 55.123 38.743 Q 55.123 39.124 55.174 39.336 Q 55.224 39.549 55.403 39.633 Q 55.582 39.717 55.986 39.717 L 55.986 40.042 L 53.331 40.042 L 53.331 39.717 Q 53.734 39.717 53.914 39.639 Q 54.093 39.56 54.143 39.348 Q 54.194 39.135 54.194 38.743 L 54.194 36.525 Q 54.194 35.808 53.942 35.568 Q 53.69 35.327 53.298 35.327 Q 52.861 35.327 52.502 35.573 Q 52.144 35.82 51.898 36.044 Z " fill="black" /></g></g></g><circle cx="-7.993605777301127e-15" cy="-8.817456953860943e-15" r="2.6999999999999997" style="stroke:black;fill:black;stroke-width:2.0;" /><g><g><g><path d="M 23.093 -42.636 L 23.093 -42.636 L 22.997 -41.82 L 21.605 -41.98 L 21.605 -41.932 Q 21.877 -41.628 22.029 -41.172 Q 22.181 -40.716 22.181 -40.3 Q 22.181 -39.58 21.893 -39.092 Q 21.605 -38.604 21.141 -38.308 Q 20.677 -38.012 20.117 -37.86 Q 19.557 -37.708 19.029 -37.66 Q 18.389 -37.596 18.125 -37.388 Q 17.861 -37.18 17.861 -36.956 Q 17.861 -36.668 18.181 -36.516 Q 18.501 -36.364 19.005 -36.268 Q 19.509 -36.172 20.085 -36.052 Q 20.661 -35.932 21.165 -35.724 Q 21.669 -35.516 21.989 -35.14 Q 22.309 -34.764 22.309 -34.14 Q 22.309 -33.452 21.861 -32.868 Q 21.413 -32.284 20.533 -31.924 Q 19.653 -31.564 18.373 -31.564 Q 17.221 -31.564 16.533 -31.844 Q 15.845 -32.124 15.541 -32.564 Q 15.237 -33.004 15.237 -33.484 Q 15.237 -34.252 15.829 -34.724 Q 16.421 -35.196 17.173 -35.436 L 17.173 -35.5 Q 16.965 -35.628 16.781 -35.86 Q 16.597 -36.092 16.597 -36.46 Q 16.597 -36.86 16.805 -37.1 Q 17.013 -37.34 17.341 -37.492 Q 17.669 -37.644 17.989 -37.756 L 17.989 -37.852 Q 17.365 -38.124 16.901 -38.62 Q 16.437 -39.116 16.437 -40.028 Q 16.437 -40.86 16.837 -41.492 Q 17.237 -42.124 17.933 -42.476 Q 18.629 -42.828 19.493 -42.828 Q 20.069 -42.828 20.365 -42.772 Q 20.661 -42.716 20.949 -42.636 Z M 21.157 -33.548 L 21.157 -33.548 Q 21.157 -34.028 20.757 -34.324 Q 20.357 -34.62 19.765 -34.796 Q 19.173 -34.972 18.573 -35.076 Q 17.973 -35.18 17.557 -35.26 Q 17.157 -35.004 16.821 -34.676 Q 16.485 -34.348 16.485 -33.724 Q 16.485 -33.084 16.981 -32.604 Q 17.477 -32.124 18.693 -32.124 Q 19.845 -32.124 20.501 -32.548 Q 21.157 -32.972 21.157 -33.548 Z M 20.757 -40.476 L 20.757 -40.476 Q 20.757 -41.276 20.453 -41.812 Q 20.149 -42.348 19.445 -42.348 Q 18.757 -42.348 18.309 -41.772 Q 17.861 -41.196 17.861 -40.028 Q 17.861 -39.196 18.149 -38.676 Q 18.437 -38.156 19.125 -38.156 Q 19.925 -38.156 20.341 -38.828 Q 20.757 -39.5 20.757 -40.476 Z " fill="black" /><path d="M 25.389 -35.802 L 25.389 -35.802 L 25.389 -32.89 Q 25.389 -32.42 25.551 -32.274 Q 25.714 -32.129 26.229 -32.129 L 26.229 -31.804 L 23.675 -31.804 L 23.675 -32.129 Q 24.034 -32.129 24.196 -32.19 Q 24.358 -32.252 24.409 -32.426 Q 24.459 -32.599 24.459 -32.935 L 24.459 -36.071 Q 24.459 -36.374 24.342 -36.474 Q 24.224 -36.575 23.989 -36.575 Q 23.866 -36.575 23.776 -36.564 Q 23.686 -36.553 23.686 -36.553 L 23.686 -36.878 L 25.086 -37.202 L 25.355 -37.202 L 25.355 -36.295 L 25.4 -36.295 Q 25.859 -36.687 26.285 -36.962 Q 26.71 -37.236 27.282 -37.236 Q 27.763 -37.236 28.06 -36.973 Q 28.357 -36.71 28.525 -36.306 L 28.57 -36.306 Q 29.029 -36.766 29.466 -37.001 Q 29.902 -37.236 30.35 -37.236 Q 31.011 -37.236 31.403 -36.822 Q 31.795 -36.407 31.795 -35.388 L 31.795 -33.103 Q 31.795 -32.756 31.834 -32.538 Q 31.874 -32.319 32.047 -32.224 Q 32.221 -32.129 32.602 -32.129 L 32.602 -31.804 L 30.07 -31.804 L 30.07 -32.129 Q 30.451 -32.129 30.619 -32.23 Q 30.787 -32.33 30.826 -32.549 Q 30.866 -32.767 30.866 -33.103 L 30.866 -35.254 Q 30.866 -35.769 30.737 -36.038 Q 30.608 -36.306 30.39 -36.413 Q 30.171 -36.519 29.902 -36.519 Q 29.555 -36.519 29.225 -36.29 Q 28.894 -36.06 28.614 -35.825 L 28.614 -33.103 Q 28.614 -32.722 28.665 -32.51 Q 28.715 -32.297 28.894 -32.213 Q 29.074 -32.129 29.477 -32.129 L 29.477 -31.804 L 26.822 -31.804 L 26.822 -32.129 Q 27.226 -32.129 27.405 -32.207 Q 27.584 -32.286 27.634 -32.498 Q 27.685 -32.711 27.685 -33.103 L 27.685 -35.321 Q 27.685 -36.038 27.433 -36.278 Q 27.181 -36.519 26.789 -36.519 Q 26.352 -36.519 25.994 -36.273 Q 25.635 -36.026 25.389 -35.802 Z " fill="black" /><path d="M 36.059 -42.78 L 36.059 -42.78 L 36.411 -42.78 L 35.659 -39.708 Q 35.547 -39.292 35.427 -38.708 Q 35.307 -38.124 35.307 -37.58 Q 35.307 -36.956 35.563 -36.5 Q 35.819 -36.044 36.555 -36.044 Q 37.371 -36.044 37.963 -36.436 Q 38.555 -36.828 38.931 -37.436 Q 39.307 -38.044 39.491 -38.716 Q 39.675 -39.388 39.675 -39.948 Q 39.675 -40.364 39.531 -40.668 Q 39.387 -40.972 39.187 -41.212 Q 38.987 -41.452 38.843 -41.676 Q 38.699 -41.9 38.699 -42.156 Q 38.699 -42.476 38.875 -42.652 Q 39.051 -42.828 39.307 -42.828 Q 39.851 -42.828 40.187 -42.284 Q 40.523 -41.74 40.523 -40.892 Q 40.523 -40.156 40.339 -39.348 Q 40.155 -38.54 39.787 -37.772 Q 39.419 -37.004 38.875 -36.38 Q 38.331 -35.756 37.627 -35.388 Q 36.923 -35.02 36.059 -35.02 Q 35.259 -35.02 34.811 -35.34 Q 34.363 -35.66 34.179 -36.188 Q 33.995 -36.716 33.995 -37.324 Q 33.995 -37.9 34.107 -38.508 Q 34.219 -39.116 34.347 -39.612 L 34.667 -40.828 Q 34.699 -40.956 34.763 -41.212 Q 34.827 -41.468 34.827 -41.708 Q 34.827 -41.916 34.747 -42.06 Q 34.667 -42.204 34.443 -42.204 Q 34.251 -42.204 33.979 -42.18 Q 33.707 -42.156 33.707 -42.156 L 33.707 -42.604 Z " fill="black" /><path d="M 41.957 -33.865 L 41.957 -33.865 L 41.957 -33.887 Q 41.554 -34.122 41.324 -34.492 Q 41.094 -34.862 41.094 -35.41 Q 41.094 -36.25 41.666 -36.743 Q 42.237 -37.236 43.122 -37.236 Q 43.491 -37.236 43.771 -37.169 Q 44.051 -37.102 44.208 -37.029 Q 44.365 -36.956 44.365 -36.956 L 45.81 -37.034 L 45.81 -36.43 L 44.757 -36.463 L 44.757 -36.407 Q 44.88 -36.239 45.02 -35.959 Q 45.16 -35.679 45.16 -35.254 Q 45.16 -34.47 44.611 -34.01 Q 44.062 -33.551 43.178 -33.551 Q 42.909 -33.551 42.674 -33.596 Q 42.438 -33.641 42.214 -33.719 Q 42.136 -33.607 42.03 -33.361 Q 41.923 -33.114 41.923 -32.969 Q 41.923 -32.722 42.198 -32.622 Q 42.472 -32.521 43.245 -32.521 Q 43.95 -32.521 44.516 -32.454 Q 45.082 -32.386 45.406 -32.106 Q 45.731 -31.826 45.731 -31.188 Q 45.731 -30.628 45.457 -30.242 Q 45.182 -29.855 44.729 -29.62 Q 44.275 -29.385 43.732 -29.278 Q 43.189 -29.172 42.662 -29.172 Q 41.934 -29.172 41.514 -29.351 Q 41.094 -29.53 40.926 -29.816 Q 40.758 -30.102 40.758 -30.404 Q 40.758 -30.684 40.988 -30.992 Q 41.218 -31.3 41.666 -31.737 L 41.666 -31.782 Q 41.386 -31.927 41.212 -32.14 Q 41.038 -32.353 41.038 -32.588 Q 41.038 -32.89 41.302 -33.226 Q 41.565 -33.562 41.957 -33.865 Z M 41.946 -31.692 L 41.946 -31.692 Q 41.766 -31.378 41.699 -31.171 Q 41.632 -30.964 41.632 -30.785 Q 41.632 -29.81 43.312 -29.81 Q 43.973 -29.81 44.382 -29.978 Q 44.79 -30.146 44.975 -30.393 Q 45.16 -30.639 45.16 -30.874 Q 45.16 -31.166 44.981 -31.328 Q 44.802 -31.49 44.516 -31.558 Q 44.23 -31.625 43.911 -31.647 Q 43.592 -31.67 43.312 -31.67 Q 43.245 -31.67 43.211 -31.67 Q 42.763 -31.681 42.517 -31.681 Q 42.27 -31.681 42.147 -31.686 Q 42.024 -31.692 41.946 -31.692 Z M 43.043 -36.833 L 43.043 -36.833 Q 42.606 -36.833 42.343 -36.497 Q 42.08 -36.161 42.08 -35.455 Q 42.08 -34.738 42.36 -34.341 Q 42.64 -33.943 43.189 -33.943 Q 43.614 -33.943 43.889 -34.234 Q 44.163 -34.526 44.163 -35.321 Q 44.163 -36.004 43.872 -36.418 Q 43.581 -36.833 43.043 -36.833 Z " fill="black" /><path d="M 46.381 -33.641 L 46.381 -33.641 L 46.672 -33.641 Q 46.851 -32.778 47.198 -32.437 Q 47.546 -32.095 48.162 -32.095 Q 48.587 -32.095 48.856 -32.269 Q 49.125 -32.442 49.125 -32.834 Q 49.125 -33.103 49.03 -33.282 Q 48.934 -33.462 48.666 -33.646 Q 48.397 -33.831 47.87 -34.089 Q 47.109 -34.481 46.75 -34.845 Q 46.392 -35.209 46.392 -35.825 Q 46.392 -36.519 46.89 -36.878 Q 47.389 -37.236 48.106 -37.236 Q 48.531 -37.236 48.8 -37.141 Q 49.069 -37.046 49.282 -36.945 L 49.293 -36.945 L 49.483 -37.18 L 49.707 -37.18 L 49.741 -35.466 L 49.438 -35.466 Q 49.259 -36.262 48.934 -36.558 Q 48.61 -36.855 48.094 -36.855 Q 47.714 -36.855 47.45 -36.676 Q 47.187 -36.497 47.187 -36.116 Q 47.187 -35.791 47.49 -35.534 Q 47.792 -35.276 48.498 -34.918 Q 49.259 -34.514 49.662 -34.139 Q 50.066 -33.764 50.066 -33.137 Q 50.066 -32.61 49.808 -32.291 Q 49.55 -31.972 49.119 -31.826 Q 48.688 -31.681 48.184 -31.681 Q 47.702 -31.681 47.417 -31.782 Q 47.131 -31.882 46.907 -31.972 L 46.885 -31.972 L 46.65 -31.714 L 46.414 -31.714 Z " fill="black" /></g></g></g><circle cx="144.0" cy="-72.0" r="2.6999999999999997" style="stroke:black;fill:black;stroke-width:2.0;" /><circle cx="198.0" cy="-72.0" r="2.6999999999999997" style="stroke:black;fill:white;stroke-width:2.0;" /><g><g><g><path d="M 205.772 -66.744 L 205.772 -66.744 L 205.772 -77.256 L 208.46 -77.256 Q 210.94 -77.256 212.236 -75.904 Q 213.532 -74.552 213.532 -72.04 Q 213.532 -69.528 212.244 -68.136 Q 210.956 -66.744 208.524 -66.744 Z M 207.148 -67.864 L 207.148 -67.864 L 208.364 -67.864 Q 210.252 -67.864 211.188 -68.96 Q 212.124 -70.056 212.124 -72.04 Q 212.124 -74.024 211.188 -75.08 Q 210.252 -76.136 208.364 -76.136 L 207.148 -76.136 Z " fill="black" /></g></g></g><g><g><g><path d="M 120.683 -5.44 L 120.683 -5.44 L 120.587 -4.624 L 119.195 -4.784 L 119.195 -4.736 Q 119.467 -4.432 119.619 -3.976 Q 119.771 -3.52 119.771 -3.104 Q 119.771 -2.384 119.483 -1.896 Q 119.195 -1.408 118.731 -1.112 Q 118.267 -0.816 117.707 -0.664 Q 117.147 -0.512 116.619 -0.464 Q 115.979 -0.4 115.715 -0.192 Q 115.451 0.016 115.451 0.24 Q 115.451 0.528 115.771 0.68 Q 116.091 0.832 116.595 0.928 Q 117.099 1.024 117.675 1.144 Q 118.251 1.264 118.755 1.472 Q 119.259 1.68 119.579 2.056 Q 119.899 2.432 119.899 3.056 Q 119.899 3.744 119.451 4.328 Q 119.003 4.912 118.123 5.272 Q 117.243 5.632 115.963 5.632 Q 114.811 5.632 114.123 5.352 Q 113.435 5.072 113.131 4.632 Q 112.827 4.192 112.827 3.712 Q 112.827 2.944 113.419 2.472 Q 114.011 2 114.763 1.76 L 114.763 1.696 Q 114.555 1.568 114.371 1.336 Q 114.187 1.104 114.187 0.736 Q 114.187 0.336 114.395 0.096 Q 114.603 -0.144 114.931 -0.296 Q 115.259 -0.448 115.579 -0.56 L 115.579 -0.656 Q 114.955 -0.928 114.491 -1.424 Q 114.027 -1.92 114.027 -2.832 Q 114.027 -3.664 114.427 -4.296 Q 114.827 -4.928 115.523 -5.28 Q 116.219 -5.632 117.083 -5.632 Q 117.659 -5.632 117.955 -5.576 Q 118.251 -5.52 118.539 -5.44 Z M 118.747 3.648 L 118.747 3.648 Q 118.747 3.168 118.347 2.872 Q 117.947 2.576 117.355 2.4 Q 116.763 2.224 116.163 2.12 Q 115.563 2.016 115.147 1.936 Q 114.747 2.192 114.411 2.52 Q 114.075 2.848 114.075 3.472 Q 114.075 4.112 114.571 4.592 Q 115.067 5.072 116.283 5.072 Q 117.435 5.072 118.091 4.648 Q 118.747 4.224 118.747 3.648 Z M 118.347 -3.28 L 118.347 -3.28 Q 118.347 -4.08 118.043 -4.616 Q 117.739 -5.152 117.035 -5.152 Q 116.347 -5.152 115.899 -4.576 Q 115.451 -4 115.451 -2.832 Q 115.451 -2 115.739 -1.48 Q 116.027 -0.96 116.715 -0.96 Q 117.515 -0.96 117.931 -1.632 Q 118.347 -2.304 118.347 -3.28 Z " fill="black" /><path d="M 126.664 5.19 L 126.664 5.19 L 125.23 5.448 L 124.973 5.448 L 124.973 4.675 L 124.928 4.675 Q 124.614 4.955 124.183 5.218 Q 123.752 5.482 123.192 5.482 Q 122.565 5.482 122.134 5.146 Q 121.702 4.81 121.49 4.233 Q 121.277 3.656 121.277 2.939 Q 121.277 2.01 121.624 1.343 Q 121.971 0.677 122.559 0.318 Q 123.147 -0.04 123.853 -0.04 Q 124.133 -0.04 124.407 0.022 Q 124.682 0.083 124.939 0.229 L 124.939 -1.238 Q 124.939 -1.608 124.855 -1.72 Q 124.771 -1.832 124.446 -1.832 Q 124.368 -1.832 124.262 -1.821 Q 124.155 -1.81 124.155 -1.81 L 124.155 -2.123 L 125.566 -2.515 L 125.869 -2.515 L 125.869 4.194 Q 125.869 4.63 125.992 4.759 Q 126.115 4.888 126.429 4.888 L 126.664 4.888 Z M 124.939 4.261 L 124.939 4.261 L 124.939 1.304 Q 124.872 0.957 124.614 0.682 Q 124.357 0.408 123.83 0.408 Q 123.125 0.408 122.688 0.923 Q 122.251 1.438 122.251 2.502 Q 122.251 3.656 122.626 4.166 Q 123.002 4.675 123.718 4.675 Q 124.11 4.675 124.379 4.569 Q 124.648 4.462 124.939 4.261 Z " fill="black" /><path d="M 127.381 3.555 L 127.381 3.555 L 127.672 3.555 Q 127.851 4.418 128.198 4.759 Q 128.546 5.101 129.162 5.101 Q 129.587 5.101 129.856 4.927 Q 130.125 4.754 130.125 4.362 Q 130.125 4.093 130.03 3.914 Q 129.934 3.734 129.666 3.55 Q 129.397 3.365 128.87 3.107 Q 128.109 2.715 127.75 2.351 Q 127.392 1.987 127.392 1.371 Q 127.392 0.677 127.89 0.318 Q 128.389 -0.04 129.106 -0.04 Q 129.531 -0.04 129.8 0.055 Q 130.069 0.15 130.282 0.251 L 130.293 0.251 L 130.483 0.016 L 130.707 0.016 L 130.741 1.73 L 130.438 1.73 Q 130.259 0.934 129.934 0.638 Q 129.61 0.341 129.094 0.341 Q 128.714 0.341 128.45 0.52 Q 128.187 0.699 128.187 1.08 Q 128.187 1.405 128.49 1.662 Q 128.792 1.92 129.498 2.278 Q 130.259 2.682 130.662 3.057 Q 131.066 3.432 131.066 4.059 Q 131.066 4.586 130.808 4.905 Q 130.55 5.224 130.119 5.37 Q 129.688 5.515 129.184 5.515 Q 128.702 5.515 128.417 5.414 Q 128.131 5.314 127.907 5.224 L 127.885 5.224 L 127.65 5.482 L 127.414 5.482 Z " fill="black" /></g></g></g></svg>