<svg xmlns="http://www.w3.org/2000/svg" xml:lang="en" height="189.19999999999996pt" width="467.808pt" viewBox="-18.568 -40.6 467.808 189.19999999999996"><circle cx="90.0" cy="-0.0" r="18.0" style="stroke:black;fill:none;stroke-width:2.0;" /><path d="M 0.0,-0.0 L 36.0,-0.0 L 72.0,-0.0" style="stroke:black;fill:none;stroke-width:2.0;stroke-linecap:round;stroke-linejoin:round;" /><path d="M 108.0,-0.0 L 144.0,-0.0 L 171.0,-0.0" style="stroke:black;fill:none;stroke-width:2.0;stroke-linecap:round;stroke-linejoin:round;" /><path d="M 178.0 0.0 L 171.0 2.6999999999999997 L 171.0 -2.6999999999999997 Z" style="stroke:black;fill:black;stroke-linecap:butt;stroke-linejoin:miter;" /><path d="M 180.0,-0.0 L 180.0,-36.0 L 288.0,-36.0 L 288.0,36.0 L 180.0,36.0 L 180.0,-0.0" style="stroke:black;fill:none;stroke-width:2.0;stroke-linecap:round;stroke-linejoin:round;" /><path d="M 288.0,-0.0 L 324.0,-0.0 L 360.0,-0.0" style="stroke:black;fill:none;stroke-width:2.0;stroke-linecap:round;stroke-linejoin:round;" /><path d="M 360.0,-0.0 L 396.0,-0.0 L 432.0,-0.0" style="stroke:black;fill:none;stroke-width:2.0;stroke-linecap:round;stroke-linejoin:round;" /><path d="M 360.0,-0.0 L 360.0,54.0 L 360.0,108.0" style="stroke:black;fill:none;stroke-width:2.0;stroke-linecap:round;stroke-linejoin:round;" /><path d="M 360.0,108.0 L 324.0,108.0 L 297.0,107.99999999999999" style="stroke:black;fill:none;stroke-width:2.0;stroke-linecap:round;stroke-linejoin:round;" /><path d="M 290.0 107.99999999999999 L 297.0 105.29999999999998 L 297.0 110.69999999999999 Z" style="stroke:black;fill:black;stroke-linecap:butt;stroke-linejoin:miter;" /><path d="M 180.0,107.99999999999999 L 180.0,71.99999999999999 L 288.0,71.99999999999999 L 288.0,143.99999999999997 L 180.0,143.99999999999997 L 180.0,107.99999999999999" style="stroke:black;fill:none;stroke-width:2.0;stroke-linecap:round;stroke-linejoin:round;" /><path d="M 180.0,107.99999999999999 L 135.0,107.99999999999999 L 90.0,107.99999999999997" style="stroke:black;fill:none;stroke-width:2.0;stroke-linecap:round;stroke-linejoin:round;" /><path d="M 90.0,107.99999999999997 L 90.0,89.99999999999997 L 90.0,71.99999999999997" style="stroke:black;fill:none;stroke-width:2.0;stroke-linecap:round;stroke-linejoin:round;" /><path d="M 90.0,71.99999999999997 L 90.0,44.999999999999986 L 90.0,27.0" style="stroke:black;fill:none;stroke-width:2.0;stroke-linecap:round;stroke-linejoin:round;" /><path d="M 90.0 20.0 L 92.7 27.0 L 87.3 27.0 Z" style="stroke:black;fill:black;stroke-linecap:butt;stroke-linejoin:miter;" /><g><g><g><path d="M 92.246 1.743 L 92.246 1.743 L 91.784 4.599 L 84.602 4.599 L 84.602 4.165 L 88.144 -0.091 L 84.616 -4.263 L 84.616 -4.599 L 91.714 -4.599 L 91.798 -2.233 L 91.336 -2.233 Q 91.224 -3.003 91 -3.374 Q 90.776 -3.745 90.37 -3.857 Q 89.964 -3.969 89.292 -3.969 L 86.604 -3.969 L 86.604 -3.871 L 89.25 -0.651 L 89.25 -0.399 L 86.114 3.409 L 86.114 3.479 L 90.09 3.479 Q 90.888 3.479 91.231 3.017 Q 91.574 2.555 91.784 1.743 Z " fill="black" /></g></g></g><g><g><g><path d="M 218.697 -4.248 L 218.697 -4.248 L 218.137 -1.56 L 223.321 -1.56 L 223.881 -4.248 Q 224.025 -4.872 224.033 -5.232 Q 224.041 -5.592 223.777 -5.736 Q 223.513 -5.88 222.793 -5.88 L 222.889 -6.36 L 227.177 -6.36 L 227.081 -5.88 Q 226.377 -5.88 226.049 -5.736 Q 225.721 -5.592 225.593 -5.24 Q 225.465 -4.888 225.321 -4.248 L 224.025 2.056 Q 223.881 2.744 223.897 3.088 Q 223.913 3.432 224.209 3.552 Q 224.505 3.672 225.177 3.672 L 225.081 4.152 L 220.857 4.152 L 220.937 3.672 Q 221.561 3.672 221.857 3.56 Q 222.153 3.448 222.289 3.096 Q 222.425 2.744 222.569 2.056 L 223.193 -0.936 L 218.025 -0.936 L 217.417 2.056 Q 217.273 2.76 217.297 3.104 Q 217.321 3.448 217.617 3.56 Q 217.913 3.672 218.569 3.672 L 218.473 4.152 L 214.089 4.152 L 214.185 3.672 Q 214.825 3.672 215.153 3.568 Q 215.481 3.464 215.649 3.112 Q 215.817 2.76 215.961 2.056 L 217.273 -4.248 Q 217.417 -4.888 217.393 -5.24 Q 217.369 -5.592 217.081 -5.736 Q 216.793 -5.88 216.089 -5.88 L 216.185 -6.36 L 220.585 -6.36 L 220.505 -5.88 Q 219.769 -5.88 219.441 -5.736 Q 219.113 -5.592 218.977 -5.232 Q 218.841 -4.872 218.697 -4.248 Z " fill="black" /><path d="M 230.066 2.08 L 230.066 2.08 Q 231.22 2.08 231.886 2.797 Q 232.553 3.514 232.553 4.757 Q 232.553 5.698 232.234 6.336 Q 231.914 6.974 231.354 7.299 Q 230.794 7.624 230.066 7.624 Q 228.89 7.624 228.224 6.89 Q 227.558 6.157 227.558 4.802 Q 227.558 3.984 227.871 3.374 Q 228.185 2.763 228.75 2.422 Q 229.316 2.08 230.066 2.08 Z M 230.022 2.506 L 230.022 2.506 Q 229.383 2.506 228.991 3.043 Q 228.599 3.581 228.599 4.656 Q 228.599 5.989 228.997 6.588 Q 229.394 7.187 230.111 7.176 Q 230.57 7.176 230.884 6.963 Q 231.198 6.75 231.36 6.235 Q 231.522 5.72 231.522 4.813 Q 231.522 3.782 231.147 3.144 Q 230.772 2.506 230.022 2.506 Z " fill="black" /><path d="M 235.846 7.187 L 235.846 7.187 L 235.846 7.512 L 233.27 7.512 L 233.27 7.187 Q 233.639 7.187 233.807 7.114 Q 233.975 7.042 234.014 6.868 Q 234.054 6.694 234.054 6.381 L 234.054 0.758 Q 234.054 0.411 233.925 0.344 Q 233.796 0.277 233.583 0.277 Q 233.438 0.277 233.331 0.288 Q 233.225 0.299 233.225 0.299 L 233.225 -0.003 L 234.703 -0.395 L 234.983 -0.395 L 234.983 6.381 Q 234.983 6.706 235.034 6.879 Q 235.084 7.053 235.263 7.12 Q 235.442 7.187 235.846 7.187 Z " fill="black" /><path d="M 236.823 -0.168 L 236.823 -0.168 Q 236.823 -2.84 237.983 -4.728 Q 239.143 -6.616 241.079 -7.624 L 241.335 -7.208 Q 239.591 -6.024 238.863 -4.32 Q 238.135 -2.616 238.135 -0.168 Q 238.135 2.28 238.863 3.984 Q 239.591 5.688 241.335 6.872 L 241.079 7.288 Q 239.143 6.28 237.983 4.392 Q 236.823 2.504 236.823 -0.168 Z " fill="black" /><path d="M 247.863 -3.512 L 247.863 -3.512 L 247.495 -1.016 L 247.111 -1.016 Q 247.079 -1.944 246.687 -2.488 Q 246.295 -3.032 245.591 -3.032 Q 244.967 -3.032 244.695 -2.696 Q 244.423 -2.36 244.423 -2.008 Q 244.423 -1.672 244.655 -1.36 Q 244.887 -1.048 245.239 -0.72 Q 245.591 -0.392 245.943 -0.008 Q 246.455 0.536 246.831 1.056 Q 247.207 1.576 247.207 2.344 Q 247.207 2.808 246.975 3.264 Q 246.743 3.72 246.215 4.024 Q 245.687 4.328 244.775 4.328 Q 244.023 4.328 243.567 4.144 Q 243.111 3.96 242.935 3.896 L 242.887 3.896 L 242.503 4.328 L 242.151 4.328 L 242.567 1.656 L 242.967 1.656 Q 243.095 2.696 243.455 3.24 Q 243.815 3.784 244.631 3.784 Q 245.191 3.784 245.535 3.512 Q 245.879 3.24 245.879 2.616 Q 245.879 1.96 245.519 1.504 Q 245.159 1.048 244.695 0.616 Q 244.375 0.296 244.047 -0.008 Q 243.719 -0.312 243.503 -0.688 Q 243.287 -1.064 243.287 -1.56 Q 243.287 -2.376 243.831 -2.944 Q 244.375 -3.512 245.463 -3.512 Q 246.103 -3.512 246.527 -3.336 Q 246.951 -3.16 247.095 -3.08 L 247.143 -3.08 L 247.559 -3.512 Z " fill="black" /><path d="M 252.983 -0.168 L 252.983 -0.168 Q 252.983 2.504 251.823 4.392 Q 250.663 6.28 248.727 7.288 L 248.471 6.872 Q 250.231 5.688 250.951 3.984 Q 251.671 2.28 251.671 -0.168 Q 251.671 -2.616 250.951 -4.32 Q 250.231 -6.024 248.471 -7.208 L 248.727 -7.624 Q 250.663 -6.616 251.823 -4.728 Q 252.983 -2.84 252.983 -0.168 Z " fill="black" /></g></g></g><g><g><g><path d="M 231.064 107.376 L 231.064 107.376 L 230.984 107.872 Q 230.536 107.872 230.28 107.968 Q 230.024 108.064 229.896 108.328 Q 229.768 108.592 229.672 109.088 L 229.192 111.408 Q 228.216 111.904 227.312 112.2 Q 226.408 112.496 225.128 112.496 Q 223.976 112.496 223.2 112.176 Q 222.424 111.856 221.968 111.304 Q 221.512 110.752 221.312 110.048 Q 221.112 109.344 221.112 108.576 Q 221.112 106.848 221.648 105.536 Q 222.184 104.224 223.088 103.352 Q 223.992 102.48 225.128 102.04 Q 226.264 101.6 227.464 101.6 Q 228.312 101.6 228.784 101.744 Q 229.256 101.888 229.512 102.04 Q 229.768 102.192 229.976 102.192 Q 230.152 102.192 230.296 102.032 Q 230.44 101.872 230.632 101.616 L 231.08 101.616 L 230.344 105.28 L 229.816 105.28 Q 229.864 103.68 229.208 102.984 Q 228.552 102.288 227.32 102.288 Q 226.104 102.288 225.056 103 Q 224.008 103.712 223.376 105.032 Q 222.744 106.352 222.728 108.192 Q 222.728 109.968 223.392 110.88 Q 224.056 111.792 225.512 111.792 Q 226.248 111.792 226.808 111.568 Q 227.368 111.344 227.896 110.992 L 228.232 109.248 Q 228.36 108.672 228.32 108.376 Q 228.28 108.08 228.008 107.976 Q 227.736 107.872 227.128 107.872 L 227.224 107.376 Z " fill="black" /><path d="M 231.992 108 L 231.992 108 Q 231.992 105.328 233.152 103.44 Q 234.312 101.552 236.248 100.544 L 236.504 100.96 Q 234.76 102.144 234.032 103.848 Q 233.304 105.552 233.304 108 Q 233.304 110.448 234.032 112.152 Q 234.76 113.856 236.504 115.04 L 236.248 115.456 Q 234.312 114.448 233.152 112.56 Q 231.992 110.672 231.992 108 Z " fill="black" /><path d="M 243.032 104.656 L 243.032 104.656 L 242.664 107.152 L 242.28 107.152 Q 242.248 106.224 241.856 105.68 Q 241.464 105.136 240.76 105.136 Q 240.136 105.136 239.864 105.472 Q 239.592 105.808 239.592 106.16 Q 239.592 106.496 239.824 106.808 Q 240.056 107.12 240.408 107.448 Q 240.76 107.776 241.112 108.16 Q 241.624 108.704 242 109.224 Q 242.376 109.744 242.376 110.512 Q 242.376 110.976 242.144 111.432 Q 241.912 111.888 241.384 112.192 Q 240.856 112.496 239.944 112.496 Q 239.192 112.496 238.736 112.312 Q 238.28 112.128 238.104 112.064 L 238.056 112.064 L 237.672 112.496 L 237.32 112.496 L 237.736 109.824 L 238.136 109.824 Q 238.264 110.864 238.624 111.408 Q 238.984 111.952 239.8 111.952 Q 240.36 111.952 240.704 111.68 Q 241.048 111.408 241.048 110.784 Q 241.048 110.128 240.688 109.672 Q 240.328 109.216 239.864 108.784 Q 239.544 108.464 239.216 108.16 Q 238.888 107.856 238.672 107.48 Q 238.456 107.104 238.456 106.608 Q 238.456 105.792 239 105.224 Q 239.544 104.656 240.632 104.656 Q 241.272 104.656 241.696 104.832 Q 242.12 105.008 242.264 105.088 L 242.312 105.088 L 242.728 104.656 Z " fill="black" /><path d="M 248.152 108 L 248.152 108 Q 248.152 110.672 246.992 112.56 Q 245.832 114.448 243.896 115.456 L 243.64 115.04 Q 245.4 113.856 246.12 112.152 Q 246.84 110.448 246.84 108 Q 246.84 105.552 246.12 103.848 Q 245.4 102.144 243.64 100.96 L 243.896 100.544 Q 245.832 101.552 246.992 103.44 Q 248.152 105.328 248.152 108 Z " fill="black" /></g></g></g><g><g><g><path d="M 109.528 45.544 L 109.528 45.544 L 99.992 45.544 L 99.992 44.456 L 109.528 44.456 Z " fill="black" /></g></g></g><circle cx="0.0" cy="-0.0" r="2.6999999999999997" style="stroke:black;fill:white;stroke-width:2.0;" /><g><g><g><path d="M -5.08 -9.436 L -5.08 -9.436 L -9.384 -9.436 L -9.288 -9.9 L -9.128 -9.9 Q -8.632 -9.9 -8.368 -10.012 Q -8.104 -10.124 -8.104 -10.46 Q -8.104 -10.668 -8.184 -10.964 Q -8.264 -11.26 -8.456 -11.708 L -9.16 -13.26 L -9.448 -14.092 L -9.496 -14.092 L -12.008 -11.372 Q -12.136 -11.244 -12.312 -11.036 Q -12.488 -10.828 -12.624 -10.636 Q -12.76 -10.444 -12.76 -10.316 Q -12.76 -10.108 -12.576 -10.004 Q -12.392 -9.9 -11.8 -9.9 L -11.896 -9.436 L -15.416 -9.436 L -15.336 -9.9 Q -14.92 -9.916 -14.632 -10.02 Q -14.344 -10.124 -14.024 -10.396 Q -13.704 -10.668 -13.224 -11.164 L -9.8 -14.716 L -11.352 -18.108 Q -11.608 -18.668 -11.808 -18.964 Q -12.008 -19.26 -12.296 -19.364 Q -12.584 -19.468 -13.128 -19.468 L -13.032 -19.948 L -8.76 -19.948 L -8.856 -19.468 L -9.032 -19.468 Q -9.48 -19.468 -9.736 -19.356 Q -9.992 -19.244 -9.992 -18.956 Q -9.992 -18.716 -9.8 -18.284 Q -9.608 -17.852 -9.368 -17.244 L -8.792 -15.74 L -8.744 -15.74 L -6.6 -18.108 Q -6.328 -18.428 -6.136 -18.692 Q -5.944 -18.956 -5.944 -19.116 Q -5.944 -19.292 -6.104 -19.38 Q -6.264 -19.468 -6.808 -19.468 L -6.728 -19.948 L -3.064 -19.948 L -3.144 -19.468 Q -3.656 -19.452 -4.008 -19.34 Q -4.36 -19.228 -4.728 -18.932 Q -5.096 -18.636 -5.672 -18.044 L -8.472 -15.164 L -6.408 -10.86 Q -6.136 -10.284 -5.856 -10.1 Q -5.576 -9.916 -4.984 -9.9 Z " fill="black" /><path d="M -2.344 -13.756 L -2.344 -13.756 Q -2.344 -16.428 -1.184 -18.316 Q -0.024 -20.204 1.912 -21.212 L 2.168 -20.796 Q 0.424 -19.612 -0.304 -17.908 Q -1.032 -16.204 -1.032 -13.756 Q -1.032 -11.308 -0.304 -9.604 Q 0.424 -7.9 2.168 -6.716 L 1.912 -6.3 Q -0.024 -7.308 -1.184 -9.196 Q -2.344 -11.084 -2.344 -13.756 Z " fill="black" /><path d="M 8.696 -17.1 L 8.696 -17.1 L 8.328 -14.604 L 7.944 -14.604 Q 7.912 -15.532 7.52 -16.076 Q 7.128 -16.62 6.424 -16.62 Q 5.8 -16.62 5.528 -16.284 Q 5.256 -15.948 5.256 -15.596 Q 5.256 -15.26 5.488 -14.948 Q 5.72 -14.636 6.072 -14.308 Q 6.424 -13.98 6.776 -13.596 Q 7.288 -13.052 7.664 -12.532 Q 8.04 -12.012 8.04 -11.244 Q 8.04 -10.78 7.808 -10.324 Q 7.576 -9.868 7.048 -9.564 Q 6.52 -9.26 5.608 -9.26 Q 4.856 -9.26 4.4 -9.444 Q 3.944 -9.628 3.768 -9.692 L 3.72 -9.692 L 3.336 -9.26 L 2.984 -9.26 L 3.4 -11.932 L 3.8 -11.932 Q 3.928 -10.892 4.288 -10.348 Q 4.648 -9.804 5.464 -9.804 Q 6.024 -9.804 6.368 -10.076 Q 6.712 -10.348 6.712 -10.972 Q 6.712 -11.628 6.352 -12.084 Q 5.992 -12.54 5.528 -12.972 Q 5.208 -13.292 4.88 -13.596 Q 4.552 -13.9 4.336 -14.276 Q 4.12 -14.652 4.12 -15.148 Q 4.12 -15.964 4.664 -16.532 Q 5.208 -17.1 6.296 -17.1 Q 6.936 -17.1 7.36 -16.924 Q 7.784 -16.748 7.928 -16.668 L 7.976 -16.668 L 8.392 -17.1 Z " fill="black" /><path d="M 13.816 -13.756 L 13.816 -13.756 Q 13.816 -11.084 12.656 -9.196 Q 11.496 -7.308 9.56 -6.3 L 9.304 -6.716 Q 11.064 -7.9 11.784 -9.604 Q 12.504 -11.308 12.504 -13.756 Q 12.504 -16.204 11.784 -17.908 Q 11.064 -19.612 9.304 -20.796 L 9.56 -21.212 Q 11.496 -20.204 12.656 -18.316 Q 13.816 -16.428 13.816 -13.756 Z " fill="black" /></g></g></g><circle cx="360.0" cy="-0.0" r="2.6999999999999997" style="stroke:black;fill:black;stroke-width:2.0;" /><circle cx="432.0" cy="-0.0" r="2.6999999999999997" style="stroke:black;fill:white;stroke-width:2.0;" /><g><g><g><path d="M 429.376 -19.948 L 429.376 -19.948 L 429.28 -19.468 Q 428.8 -19.436 428.456 -19.308 Q 428.112 -19.18 427.744 -18.86 Q 427.376 -18.54 426.848 -17.884 L 423.68 -13.932 L 423.184 -11.532 Q 423.04 -10.828 423.104 -10.484 Q 423.168 -10.14 423.504 -10.028 Q 423.84 -9.916 424.496 -9.916 L 424.416 -9.436 L 419.712 -9.436 L 419.792 -9.916 Q 420.512 -9.916 420.88 -10.02 Q 421.248 -10.124 421.424 -10.476 Q 421.6 -10.828 421.744 -11.532 L 422.224 -13.852 L 420.848 -17.292 Q 420.448 -18.3 420.144 -18.756 Q 419.84 -19.212 419.544 -19.34 Q 419.248 -19.468 418.848 -19.468 L 418.944 -19.948 L 423.072 -19.948 L 422.976 -19.468 Q 422.304 -19.468 422.048 -19.34 Q 421.792 -19.212 421.792 -19.036 Q 421.792 -18.876 421.84 -18.708 Q 421.888 -18.54 421.952 -18.364 L 422.88 -16.028 L 423.312 -14.7 L 423.392 -14.7 L 426.384 -18.412 Q 426.512 -18.572 426.616 -18.756 Q 426.72 -18.94 426.72 -19.1 Q 426.72 -19.276 426.536 -19.372 Q 426.352 -19.468 425.776 -19.468 L 425.872 -19.948 Z " fill="black" /><path d="M 430.096 -13.756 L 430.096 -13.756 Q 430.096 -16.428 431.256 -18.316 Q 432.416 -20.204 434.352 -21.212 L 434.608 -20.796 Q 432.864 -19.612 432.136 -17.908 Q 431.408 -16.204 431.408 -13.756 Q 431.408 -11.308 432.136 -9.604 Q 432.864 -7.9 434.608 -6.716 L 434.352 -6.3 Q 432.416 -7.308 431.256 -9.196 Q 430.096 -11.084 430.096 -13.756 Z " fill="black" /><path d="M 441.136 -17.1 L 441.136 -17.1 L 440.768 -14.604 L 440.384 -14.604 Q 440.352 -15.532 439.96 -16.076 Q 439.568 -16.62 438.864 -16.62 Q 438.24 -16.62 437.968 -16.284 Q 437.696 -15.948 437.696 -15.596 Q 437.696 -15.26 437.928 -14.948 Q 438.16 -14.636 438.512 -14.308 Q 438.864 -13.98 439.216 -13.596 Q 439.728 -13.052 440.104 -12.532 Q 440.48 -12.012 440.48 -11.244 Q 440.48 -10.78 440.248 -10.324 Q 440.016 -9.868 439.488 -9.564 Q 438.96 -9.26 438.048 -9.26 Q 437.296 -9.26 436.84 -9.444 Q 436.384 -9.628 436.208 -9.692 L 436.16 -9.692 L 435.776 -9.26 L 435.424 -9.26 L 435.84 -11.932 L 436.24 -11.932 Q 436.368 -10.892 436.728 -10.348 Q 437.088 -9.804 437.904 -9.804 Q 438.464 -9.804 438.808 -10.076 Q 439.152 -10.348 439.152 -10.972 Q 439.152 -11.628 438.792 -12.084 Q 438.432 -12.54 437.968 -12.972 Q 437.648 -13.292 437.32 -13.596 Q 436.992 -13.9 436.776 -14.276 Q 436.56 -14.652 436.56 -15.148 Q 436.56 -15.964 437.104 -16.532 Q 437.648 -17.1 438.736 -17.1 Q 439.376 -17.1 439.8 -16.924 Q 440.224 -16.748 440.368 -16.668 L 440.416 -16.668 L 440.832 -17.1 Z " fill="black" /><path d="M 446.256 -13.756 L 446.256 -13.756 Q 446.256 -11.084 445.096 -9.196 Q 443.936 -7.308 442 -6.3 L 441.744 -6.716 Q 443.504 -7.9 444.224 -9.604 Q 444.944 -11.308 444.944 -13.756 Q 444.944 -16.204 444.224 -17.908 Q 443.504 -19.612 441.744 -20.796 L 442 -21.212 Q 443.936 -20.204 445.096 -18.316 Q 446.256 -16.428 446.256 -13.756 Z " fill="black" /></g></g></g></svg>