<svg xmlns="http://www.w3.org/2000/svg" xml:lang="en" height="243.3624pt" width="489.64000000000004pt" viewBox="-110.13199999999999 -41.5824 489.64000000000004 243.3624"><circle cx="252.0" cy="54.0" r="18.0" style="stroke:black;fill:none;stroke-width:2.0;" /><path d="M 0.0,-0.0 L -27.0,-3.3065463576978533e-15 L -54.0,-6.613092715395707e-15" style="stroke:black;fill:none;stroke-width:2.0;stroke-linecap:round;stroke-linejoin:round;" /><path d="M -54.0,-6.613092715395707e-15 L -54.000000000000014,68.75999999999999 M -45.000000000000014,68.75999999999999 L -63.000000000000014,68.75999999999999 M -45.000000000000014,75.24 L -63.000000000000014,75.24 M -54.000000000000014,75.24 L -54.00000000000002,144.0" style="stroke:black;fill:none;stroke-width:2.0;stroke-linecap:round;stroke-linejoin:round;" /><path d="M -63.00000000000001,56.75999999999999 L -46.12892887941598,80.8615301722629" style="stroke:black;fill:none;stroke-width:2.0;stroke-linecap:round;stroke-linejoin:round;" /><path d="M -43.14692468872668 85.12153615896193 L -49.07816379328453 82.92599461197089 L -43.179693965547436 78.79706573255493 Z" style="stroke:black;fill:black;stroke-linecap:butt;stroke-linejoin:miter;" /><path d="M -54.00000000000002,144.0 L 134.99999999999997,144.0 L 324.0,144.0" style="stroke:black;fill:none;stroke-width:2.0;stroke-linecap:round;stroke-linejoin:round;" /><path d="M -54.0,-6.613092715395707e-15 L -72.0,-8.817456953860943e-15 L -90.0,-1.1021821192326178e-14" style="stroke:black;fill:none;stroke-width:2.0;stroke-linecap:round;stroke-linejoin:round;" /><path d="M 0.0,-0.0 L -9.324460728707945e-15,50.76 M 8.999999999999991,50.76 L -9.00000000000001,50.76 M 8.99999999999999,57.239999999999995 L -9.00000000000001,57.239999999999995 M -1.0514817417479173e-14,57.239999999999995 L -1.9839278146187122e-14,108.0" style="stroke:black;fill:none;stroke-width:2.0;stroke-linecap:round;stroke-linejoin:round;" /><path d="M -9.000000000000007,38.76 L 7.871071120584023,62.86153017226291" style="stroke:black;fill:none;stroke-width:2.0;stroke-linecap:round;stroke-linejoin:round;" /><path d="M 10.853075311273331 67.12153615896192 L 4.921836206715478 64.92599461197088 L 10.820306034452571 60.79706573255491 Z" style="stroke:black;fill:black;stroke-linecap:butt;stroke-linejoin:miter;" /><path d="M -1.9839278146187122e-14,108.0 L 125.99999999999999,108.0 L 251.99999999999997,108.0" style="stroke:black;fill:none;stroke-width:2.0;stroke-linecap:round;stroke-linejoin:round;" /><path d="M 251.99999999999997,108.0 L 251.99999999999997,144.0 L 251.99999999999997,180.0" style="stroke:black;fill:none;stroke-width:2.0;stroke-linecap:round;stroke-linejoin:round;" /><path d="M 0.0,-0.0 L 122.76,-0.0 M 122.76,-9.0 L 122.76,9.0 M 129.24,-9.0 L 129.24,9.0 M 129.24,-0.0 L 252.0,-0.0" style="stroke:black;fill:none;stroke-width:2.0;stroke-linecap:round;stroke-linejoin:round;" /><path d="M 110.76,9.0 L 134.86153017226292,-7.871071120584036" style="stroke:black;fill:none;stroke-width:2.0;stroke-linecap:round;stroke-linejoin:round;" /><path d="M 139.1215361589619 -10.853075311273344 L 136.92599461197088 -4.921836206715492 L 132.79706573255493 -10.820306034452585 Z" style="stroke:black;fill:black;stroke-linecap:butt;stroke-linejoin:miter;" /><path d="M 252.0,-0.0 L 252.0,36.0 L 252.0,36.0 M 252.0,72.0 L 252.0,72.0 L 251.99999999999997,108.0" style="stroke:black;fill:none;stroke-width:2.0;stroke-linecap:round;stroke-linejoin:round;" /><path d="M 252.0,45.0 L 252.0,54.0" style="stroke:black;fill:none;stroke-width:2.0;stroke-linecap:round;stroke-linejoin:round;" /><path d="M 252.0 61.0 L 249.3 54.0 L 254.7 54.0 Z" style="stroke:black;fill:black;stroke-linecap:butt;stroke-linejoin:miter;" /><path d="M 252.0,-0.0 L 288.0,-0.0 L 324.0,-0.0" style="stroke:black;fill:none;stroke-width:2.0;stroke-linecap:round;stroke-linejoin:round;" /><path d="M 324.0,-0.0 L 324.0,50.76 M 333.0,50.76 L 315.0,50.76 M 333.0,57.239999999999995 L 315.0,57.239999999999995 M 324.0,57.239999999999995 L 324.0,108.0" style="stroke:black;fill:none;stroke-width:2.0;stroke-linecap:round;stroke-linejoin:round;" /><path d="M 315.0,38.76 L 331.871071120584,62.8615301722629" style="stroke:black;fill:none;stroke-width:2.0;stroke-linecap:round;stroke-linejoin:round;" /><path d="M 334.8530753112733 67.1215361589619 L 328.9218362067154 64.92599461197088 L 334.8203060344525 60.79706573255491 Z" style="stroke:black;fill:black;stroke-linecap:butt;stroke-linejoin:miter;" /><path d="M 324.0,108.0 L 291.24,108.0 M 291.24,117.0 L 291.24,99.0 M 284.76,117.0 L 284.76,99.0 M 284.76,108.0 L 252.0,107.99999999999999" style="stroke:black;fill:none;stroke-width:2.0;stroke-linecap:round;stroke-linejoin:round;" /><path d="M 303.24,99.0 L 279.1384698277371,115.87107112058403" style="stroke:black;fill:none;stroke-width:2.0;stroke-linecap:round;stroke-linejoin:round;" /><path d="M 274.87846384103807 118.85307531127333 L 277.07400538802915 112.92183620671548 L 281.20293426744513 118.82030603445257 Z" style="stroke:black;fill:black;stroke-linecap:butt;stroke-linejoin:miter;" /><path d="M 324.0,108.0 L 324.0,144.0 L 324.0,180.0" style="stroke:black;fill:none;stroke-width:2.0;stroke-linecap:round;stroke-linejoin:round;" /><path d="M 324.0,-0.0 L 342.0,-0.0 L 360.0,-0.0" style="stroke:black;fill:none;stroke-width:2.0;stroke-linecap:round;stroke-linejoin:round;" /><circle cx="-54.0" cy="-6.613092715395707e-15" r="2.6999999999999997" style="stroke:black;fill:black;stroke-width:2.0;" /><circle cx="0.0" cy="-0.0" r="2.6999999999999997" style="stroke:black;fill:black;stroke-width:2.0;" /><g><g><g><path d="M -89.026 73.298 L -89.026 73.298 L -88.738 73.602 Q -89.554 74.562 -90.626 75.178 Q -91.698 75.794 -93.218 75.794 Q -94.658 75.794 -95.522 75.258 Q -96.386 74.722 -96.762 73.826 Q -97.138 72.93 -97.138 71.874 Q -97.138 70.194 -96.626 68.89 Q -96.114 67.586 -95.226 66.698 Q -94.338 65.81 -93.218 65.354 Q -92.098 64.898 -90.882 64.898 Q -90.066 64.898 -89.61 65.042 Q -89.154 65.186 -88.898 65.338 Q -88.642 65.49 -88.45 65.49 Q -88.258 65.49 -88.114 65.33 Q -87.97 65.17 -87.778 64.914 L -87.314 64.914 L -88.066 68.578 L -88.594 68.578 Q -88.53 66.978 -89.186 66.282 Q -89.842 65.586 -91.026 65.586 Q -91.954 65.586 -92.77 66.01 Q -93.586 66.434 -94.218 67.21 Q -94.85 67.986 -95.21 69.066 Q -95.57 70.146 -95.57 71.474 Q -95.57 73.074 -94.81 73.914 Q -94.05 74.754 -92.466 74.754 Q -90.626 74.754 -89.026 73.298 Z " fill="black" /><path d="M -80.154 75.506 L -80.154 75.506 L -80.154 75.865 Q -80.624 75.865 -80.77 76.027 Q -80.915 76.19 -80.915 76.716 L -80.915 78.34 Q -81.52 78.687 -82.136 78.894 Q -82.752 79.102 -83.682 79.102 Q -85.462 79.102 -86.364 78.11 Q -87.266 77.119 -87.266 75.327 Q -87.266 74.084 -86.79 73.227 Q -86.314 72.37 -85.49 71.928 Q -84.667 71.486 -83.614 71.486 Q -82.998 71.486 -82.634 71.586 Q -82.27 71.687 -82.063 71.788 Q -81.856 71.889 -81.722 71.889 Q -81.576 71.889 -81.503 71.777 Q -81.43 71.665 -81.318 71.486 L -80.994 71.486 L -80.994 74.05 L -81.374 74.05 Q -81.565 72.93 -82.136 72.449 Q -82.707 71.967 -83.603 71.967 Q -84.79 71.967 -85.446 72.835 Q -86.101 73.703 -86.101 75.193 Q -86.101 76.906 -85.412 77.752 Q -84.723 78.598 -83.525 78.598 Q -82.998 78.598 -82.634 78.441 Q -82.27 78.284 -81.934 78.038 L -81.934 76.828 Q -81.934 76.425 -82.002 76.218 Q -82.069 76.01 -82.282 75.938 Q -82.494 75.865 -82.92 75.865 L -82.92 75.506 Z " fill="black" /><path d="M -75.181 75.058 L -75.181 75.058 L -75.181 75.103 Q -74.699 75.182 -74.257 75.394 Q -73.814 75.607 -73.523 75.994 Q -73.232 76.38 -73.232 76.996 Q -73.232 77.948 -73.943 78.463 Q -74.654 78.978 -75.909 78.978 L -79.358 78.978 L -79.358 78.642 Q -78.899 78.642 -78.67 78.564 Q -78.44 78.486 -78.356 78.25 Q -78.272 78.015 -78.272 77.556 L -78.272 72.975 Q -78.272 72.527 -78.356 72.309 Q -78.44 72.09 -78.67 72.023 Q -78.899 71.956 -79.358 71.956 L -79.358 71.62 L -76.334 71.62 Q -74.834 71.62 -74.212 72.079 Q -73.59 72.538 -73.59 73.367 Q -73.59 74.118 -74.038 74.493 Q -74.486 74.868 -75.181 75.058 Z M -77.242 75.394 L -77.242 75.394 L -77.242 78.53 Q -76.838 78.564 -76.435 78.564 Q -76.077 78.564 -75.718 78.519 Q -75.36 78.474 -75.063 78.323 Q -74.766 78.172 -74.587 77.864 Q -74.408 77.556 -74.408 77.018 Q -74.408 76.38 -74.705 76.027 Q -75.002 75.674 -75.466 75.534 Q -75.931 75.394 -76.458 75.394 Z M -77.242 74.924 L -77.242 74.924 L -76.48 74.924 Q -75.461 74.924 -75.08 74.571 Q -74.699 74.218 -74.699 73.457 Q -74.699 72.796 -75.119 72.426 Q -75.539 72.057 -76.57 72.057 Q -76.906 72.057 -77.242 72.09 Z " fill="black" /></g></g></g><circle cx="324.0" cy="144.0" r="2.6999999999999997" style="stroke:black;fill:black;stroke-width:2.0;" /><circle cx="-90.0" cy="-1.1021821192326178e-14" r="2.6999999999999997" style="stroke:black;fill:white;stroke-width:2.0;" /><g><g><g><path d="M -99.82 5.44 L -99.82 5.44 Q -101.244 5.44 -102.34 4.792 Q -103.436 4.144 -104.052 2.928 Q -104.668 1.712 -104.668 0.032 Q -104.668 -1.696 -104.028 -2.92 Q -103.388 -4.144 -102.292 -4.792 Q -101.196 -5.44 -99.804 -5.44 Q -98.62 -5.44 -97.876 -5.04 Q -97.132 -4.64 -96.652 -4.144 L -97.404 -3.264 Q -97.804 -3.68 -98.348 -3.968 Q -98.892 -4.256 -99.74 -4.256 Q -101.34 -4.256 -102.3 -3.12 Q -103.26 -1.984 -103.26 0.016 Q -103.26 1.936 -102.34 3.088 Q -101.42 4.24 -99.74 4.24 Q -98.428 4.24 -97.772 3.632 L -97.772 0.928 L -100.028 0.928 L -100.028 -0.208 L -96.524 -0.208 L -96.524 4.224 Q -97.036 4.752 -97.884 5.096 Q -98.732 5.44 -99.82 5.44 Z " fill="black" /></g></g></g><g><g><g><path d="M -33.749 55.276 L -33.749 55.276 L -33.461 55.58 Q -34.277 56.54 -35.349 57.156 Q -36.421 57.772 -37.941 57.772 Q -39.381 57.772 -40.245 57.236 Q -41.109 56.7 -41.485 55.804 Q -41.861 54.908 -41.861 53.852 Q -41.861 52.172 -41.349 50.868 Q -40.837 49.564 -39.949 48.676 Q -39.061 47.788 -37.941 47.332 Q -36.821 46.876 -35.605 46.876 Q -34.789 46.876 -34.333 47.02 Q -33.877 47.164 -33.621 47.316 Q -33.365 47.468 -33.173 47.468 Q -32.981 47.468 -32.837 47.308 Q -32.693 47.148 -32.501 46.892 L -32.037 46.892 L -32.789 50.556 L -33.317 50.556 Q -33.253 48.956 -33.909 48.26 Q -34.565 47.564 -35.749 47.564 Q -36.677 47.564 -37.493 47.988 Q -38.309 48.412 -38.941 49.188 Q -39.573 49.964 -39.933 51.044 Q -40.293 52.124 -40.293 53.452 Q -40.293 55.052 -39.533 55.892 Q -38.773 56.732 -37.189 56.732 Q -35.349 56.732 -33.749 55.276 Z " fill="black" /><path d="M -24.877 57.484 L -24.877 57.484 L -24.877 57.842 Q -25.347 57.842 -25.493 58.005 Q -25.638 58.167 -25.638 58.694 L -25.638 60.318 Q -26.243 60.665 -26.859 60.872 Q -27.475 61.079 -28.405 61.079 Q -30.186 61.079 -31.087 60.088 Q -31.989 59.097 -31.989 57.305 Q -31.989 56.062 -31.513 55.205 Q -31.037 54.348 -30.214 53.906 Q -29.39 53.463 -28.338 53.463 Q -27.722 53.463 -27.358 53.564 Q -26.994 53.665 -26.786 53.766 Q -26.579 53.866 -26.445 53.866 Q -26.299 53.866 -26.226 53.754 Q -26.154 53.642 -26.042 53.463 L -25.717 53.463 L -25.717 56.028 L -26.098 56.028 Q -26.288 54.908 -26.859 54.426 Q -27.43 53.945 -28.326 53.945 Q -29.514 53.945 -30.169 54.813 Q -30.824 55.681 -30.824 57.17 Q -30.824 58.884 -30.135 59.73 Q -29.446 60.575 -28.248 60.575 Q -27.722 60.575 -27.358 60.418 Q -26.994 60.262 -26.658 60.015 L -26.658 58.806 Q -26.658 58.402 -26.725 58.195 Q -26.792 57.988 -27.005 57.915 Q -27.218 57.842 -27.643 57.842 L -27.643 57.484 Z " fill="black" /><path d="M -19.557 55.726 L -19.557 55.726 L -19.893 55.726 Q -20.128 54.796 -20.52 54.348 Q -20.912 53.9 -21.763 53.911 Q -22.334 53.911 -22.648 54.174 Q -22.962 54.438 -22.962 54.964 Q -22.962 55.378 -22.726 55.675 Q -22.491 55.972 -22.11 56.207 Q -21.73 56.442 -21.315 56.689 Q -20.946 56.902 -20.57 57.114 Q -20.195 57.327 -19.887 57.596 Q -19.579 57.865 -19.394 58.223 Q -19.21 58.582 -19.21 59.086 Q -19.21 59.735 -19.506 60.183 Q -19.803 60.631 -20.318 60.861 Q -20.834 61.09 -21.483 61.09 Q -22.066 61.09 -22.43 61.006 Q -22.794 60.922 -23.001 60.838 Q -23.208 60.754 -23.342 60.754 Q -23.454 60.754 -23.544 60.855 Q -23.634 60.956 -23.645 61.124 L -23.992 61.124 L -24.093 58.705 L -23.746 58.705 Q -23.544 59.478 -23.275 59.886 Q -23.006 60.295 -22.609 60.446 Q -22.211 60.598 -21.64 60.598 Q -21.013 60.598 -20.643 60.323 Q -20.274 60.049 -20.274 59.41 Q -20.274 58.918 -20.548 58.593 Q -20.822 58.268 -21.248 58.016 Q -21.674 57.764 -22.133 57.506 Q -22.581 57.249 -22.995 56.958 Q -23.41 56.666 -23.673 56.263 Q -23.936 55.86 -23.936 55.278 Q -23.936 54.684 -23.645 54.286 Q -23.354 53.889 -22.872 53.676 Q -22.39 53.463 -21.808 53.463 Q -21.293 53.463 -21.013 53.547 Q -20.733 53.631 -20.57 53.721 Q -20.408 53.81 -20.274 53.81 Q -20.005 53.81 -19.926 53.486 L -19.635 53.486 Z " fill="black" /></g></g></g><circle cx="251.99999999999997" cy="108.0" r="2.6999999999999997" style="stroke:black;fill:black;stroke-width:2.0;" /><circle cx="251.99999999999997" cy="180.0" r="2.6999999999999997" style="stroke:black;fill:white;stroke-width:2.0;" /><g><g><g><path d="M 252.448 197.18 L 252.448 197.18 Q 251.296 197.18 250.344 196.756 Q 249.392 196.332 248.688 195.628 L 249.504 194.684 Q 250.08 195.276 250.856 195.628 Q 251.632 195.98 252.512 195.98 Q 253.536 195.98 254.12 195.516 Q 254.704 195.052 254.704 194.268 Q 254.704 193.756 254.472 193.436 Q 254.24 193.116 253.832 192.892 Q 253.424 192.668 252.912 192.46 L 251.376 191.804 Q 250.912 191.596 250.4 191.268 Q 249.888 190.94 249.544 190.42 Q 249.2 189.9 249.2 189.132 Q 249.2 188.3 249.64 187.66 Q 250.08 187.02 250.84 186.66 Q 251.6 186.3 252.56 186.3 Q 253.536 186.3 254.352 186.66 Q 255.168 187.02 255.744 187.596 L 255.024 188.476 Q 254.512 188.012 253.912 187.748 Q 253.312 187.484 252.592 187.484 Q 251.68 187.484 251.136 187.892 Q 250.592 188.3 250.592 189.004 Q 250.592 189.5 250.856 189.82 Q 251.12 190.14 251.528 190.348 Q 251.936 190.556 252.368 190.732 L 253.888 191.372 Q 254.496 191.628 255 191.988 Q 255.504 192.348 255.8 192.876 Q 256.096 193.404 256.096 194.14 Q 256.096 195.004 255.656 195.692 Q 255.216 196.38 254.4 196.78 Q 253.584 197.18 252.448 197.18 Z " fill="black" /></g></g></g><circle cx="252.0" cy="-0.0" r="2.6999999999999997" style="stroke:black;fill:black;stroke-width:2.0;" /><g><g><g><path d="M 123.646 -28.603 L 123.646 -28.603 L 123.934 -28.299 Q 123.118 -27.339 122.046 -26.723 Q 120.974 -26.107 119.454 -26.107 Q 118.014 -26.107 117.15 -26.643 Q 116.286 -27.179 115.91 -28.075 Q 115.534 -28.971 115.534 -30.027 Q 115.534 -31.707 116.046 -33.011 Q 116.558 -34.315 117.446 -35.203 Q 118.334 -36.091 119.454 -36.547 Q 120.574 -37.003 121.79 -37.003 Q 122.606 -37.003 123.062 -36.859 Q 123.518 -36.715 123.774 -36.563 Q 124.03 -36.411 124.222 -36.411 Q 124.414 -36.411 124.558 -36.571 Q 124.702 -36.731 124.894 -36.987 L 125.358 -36.987 L 124.606 -33.323 L 124.078 -33.323 Q 124.142 -34.923 123.486 -35.619 Q 122.83 -36.315 121.646 -36.315 Q 120.718 -36.315 119.902 -35.891 Q 119.086 -35.467 118.454 -34.691 Q 117.822 -33.915 117.462 -32.835 Q 117.102 -31.755 117.102 -30.427 Q 117.102 -28.827 117.862 -27.987 Q 118.622 -27.147 120.206 -27.147 Q 122.046 -27.147 123.646 -28.603 Z " fill="black" /><path d="M 132.518 -26.395 L 132.518 -26.395 L 132.518 -26.037 Q 132.048 -26.037 131.902 -25.874 Q 131.756 -25.712 131.756 -25.186 L 131.756 -23.562 Q 131.152 -23.214 130.536 -23.007 Q 129.92 -22.8 128.99 -22.8 Q 127.209 -22.8 126.308 -23.791 Q 125.406 -24.782 125.406 -26.574 Q 125.406 -27.818 125.882 -28.674 Q 126.358 -29.531 127.181 -29.974 Q 128.004 -30.416 129.057 -30.416 Q 129.673 -30.416 130.037 -30.315 Q 130.401 -30.214 130.608 -30.114 Q 130.816 -30.013 130.95 -30.013 Q 131.096 -30.013 131.168 -30.125 Q 131.241 -30.237 131.353 -30.416 L 131.678 -30.416 L 131.678 -27.851 L 131.297 -27.851 Q 131.107 -28.971 130.536 -29.453 Q 129.964 -29.934 129.068 -29.934 Q 127.881 -29.934 127.226 -29.066 Q 126.571 -28.198 126.571 -26.709 Q 126.571 -24.995 127.26 -24.15 Q 127.948 -23.304 129.147 -23.304 Q 129.673 -23.304 130.037 -23.461 Q 130.401 -23.618 130.737 -23.864 L 130.737 -25.074 Q 130.737 -25.477 130.67 -25.684 Q 130.603 -25.891 130.39 -25.964 Q 130.177 -26.037 129.752 -26.037 L 129.752 -26.395 Z " fill="black" /><path d="M 133.302 -30.282 L 133.302 -30.282 L 136.382 -30.282 Q 137.256 -30.282 138.012 -30.097 Q 138.768 -29.912 139.328 -29.486 Q 139.888 -29.061 140.207 -28.366 Q 140.526 -27.672 140.526 -26.642 Q 140.526 -25.354 140.028 -24.53 Q 139.529 -23.707 138.622 -23.315 Q 137.715 -22.923 136.505 -22.923 L 133.302 -22.923 L 133.302 -23.259 Q 133.795 -23.259 134.03 -23.332 Q 134.265 -23.405 134.332 -23.634 Q 134.4 -23.864 134.4 -24.312 L 134.4 -29.005 Q 134.4 -29.419 134.299 -29.615 Q 134.198 -29.811 133.963 -29.878 Q 133.728 -29.946 133.302 -29.946 Z M 135.43 -29.8 L 135.43 -29.8 L 135.43 -23.382 Q 135.766 -23.349 136.091 -23.349 Q 137.11 -23.349 137.838 -23.623 Q 138.566 -23.898 138.958 -24.592 Q 139.35 -25.286 139.35 -26.541 Q 139.35 -28.142 138.532 -28.982 Q 137.715 -29.822 135.979 -29.822 Q 135.844 -29.822 135.716 -29.822 Q 135.587 -29.822 135.43 -29.8 Z " fill="black" /></g></g></g><g><g><g><path d="M 28.197 55.992 L 28.197 55.992 L 29.509 49.688 Q 29.653 49.064 29.645 48.704 Q 29.637 48.344 29.349 48.2 Q 29.061 48.056 28.325 48.056 L 28.421 47.576 L 32.853 47.576 L 32.757 48.056 Q 32.053 48.056 31.701 48.2 Q 31.349 48.344 31.205 48.704 Q 31.061 49.064 30.933 49.688 L 29.621 56.056 Q 29.573 56.312 29.541 56.52 Q 29.509 56.728 29.509 56.904 Q 29.509 57.352 29.773 57.48 Q 30.037 57.608 30.789 57.608 L 30.693 58.088 L 26.325 58.088 L 26.421 57.608 Q 27.077 57.608 27.405 57.496 Q 27.733 57.384 27.893 57.04 Q 28.053 56.696 28.197 55.992 Z " fill="black" /><path d="M 33.245 54.09 L 33.245 54.09 L 36.325 54.09 Q 37.198 54.09 37.954 54.274 Q 38.71 54.459 39.27 54.885 Q 39.83 55.31 40.15 56.005 Q 40.469 56.699 40.469 57.73 Q 40.469 59.018 39.97 59.841 Q 39.472 60.664 38.565 61.056 Q 37.658 61.448 36.448 61.448 L 33.245 61.448 L 33.245 61.112 Q 33.738 61.112 33.973 61.039 Q 34.208 60.966 34.275 60.737 Q 34.342 60.507 34.342 60.059 L 34.342 55.366 Q 34.342 54.952 34.242 54.756 Q 34.141 54.56 33.906 54.493 Q 33.67 54.426 33.245 54.426 Z M 35.373 54.571 L 35.373 54.571 L 35.373 60.989 Q 35.709 61.022 36.034 61.022 Q 37.053 61.022 37.781 60.748 Q 38.509 60.474 38.901 59.779 Q 39.293 59.085 39.293 57.83 Q 39.293 56.229 38.475 55.389 Q 37.658 54.549 35.922 54.549 Q 35.787 54.549 35.658 54.549 Q 35.53 54.549 35.373 54.571 Z " fill="black" /><path d="M 45.957 56.218 L 45.957 56.218 L 45.621 56.218 Q 45.386 55.288 44.994 54.84 Q 44.602 54.392 43.75 54.403 Q 43.179 54.403 42.866 54.666 Q 42.552 54.93 42.552 55.456 Q 42.552 55.87 42.787 56.167 Q 43.022 56.464 43.403 56.699 Q 43.784 56.934 44.198 57.181 Q 44.568 57.394 44.943 57.606 Q 45.318 57.819 45.626 58.088 Q 45.934 58.357 46.119 58.715 Q 46.304 59.074 46.304 59.578 Q 46.304 60.227 46.007 60.675 Q 45.71 61.123 45.195 61.353 Q 44.68 61.582 44.03 61.582 Q 43.448 61.582 43.084 61.498 Q 42.72 61.414 42.513 61.33 Q 42.306 61.246 42.171 61.246 Q 42.059 61.246 41.97 61.347 Q 41.88 61.448 41.869 61.616 L 41.522 61.616 L 41.421 59.197 L 41.768 59.197 Q 41.97 59.97 42.238 60.378 Q 42.507 60.787 42.905 60.938 Q 43.302 61.09 43.874 61.09 Q 44.501 61.09 44.87 60.815 Q 45.24 60.541 45.24 59.902 Q 45.24 59.41 44.966 59.085 Q 44.691 58.76 44.266 58.508 Q 43.84 58.256 43.381 57.998 Q 42.933 57.741 42.518 57.45 Q 42.104 57.158 41.841 56.755 Q 41.578 56.352 41.578 55.77 Q 41.578 55.176 41.869 54.778 Q 42.16 54.381 42.642 54.168 Q 43.123 53.955 43.706 53.955 Q 44.221 53.955 44.501 54.039 Q 44.781 54.123 44.943 54.213 Q 45.106 54.302 45.24 54.302 Q 45.509 54.302 45.587 53.978 L 45.878 53.978 Z " fill="black" /><path d="M 63.126 52.856 L 63.126 52.856 L 53.59 52.856 L 53.59 51.768 L 63.126 51.768 Z M 63.126 56.12 L 63.126 56.12 L 53.59 56.12 L 53.59 55.048 L 63.126 55.048 Z " fill="black" /><path d="M 73.083 50.616 L 73.083 50.616 L 74.459 50.616 Q 74.603 49.944 74.771 49.32 Q 74.939 48.696 75.211 48.2 Q 75.419 47.816 75.723 47.48 Q 76.027 47.144 76.499 46.928 Q 76.971 46.712 77.659 46.712 Q 78.395 46.712 78.787 47.04 Q 79.179 47.368 79.179 47.88 Q 79.179 48.232 78.987 48.408 Q 78.795 48.584 78.539 48.584 Q 78.219 48.584 78.075 48.4 Q 77.931 48.216 77.899 47.96 Q 77.851 47.656 77.779 47.416 Q 77.707 47.176 77.419 47.176 Q 76.811 47.176 76.475 47.816 Q 76.139 48.456 75.963 49.48 L 75.771 50.616 L 77.291 50.616 L 77.195 51.272 L 75.691 51.272 L 74.779 56.728 Q 74.715 57.144 74.579 57.768 Q 74.443 58.392 74.203 59.072 Q 73.963 59.752 73.619 60.344 Q 73.275 60.936 72.779 61.312 Q 72.283 61.688 71.627 61.688 Q 70.859 61.688 70.531 61.32 Q 70.203 60.952 70.203 60.536 Q 70.203 60.2 70.371 59.976 Q 70.539 59.752 70.843 59.752 Q 71.211 59.752 71.339 59.968 Q 71.467 60.184 71.499 60.464 Q 71.531 60.744 71.595 60.96 Q 71.659 61.176 71.883 61.176 Q 72.203 61.176 72.443 60.76 Q 72.683 60.344 72.859 59.728 Q 73.035 59.112 73.147 58.504 Q 73.259 57.896 73.323 57.496 L 74.363 51.272 L 73.019 51.272 Z " fill="black" /><path d="M 79.995 53.768 L 79.995 53.768 Q 79.995 51.096 81.155 49.208 Q 82.315 47.32 84.251 46.312 L 84.507 46.728 Q 82.763 47.912 82.035 49.616 Q 81.307 51.32 81.307 53.768 Q 81.307 56.216 82.035 57.92 Q 82.763 59.624 84.507 60.808 L 84.251 61.224 Q 82.315 60.216 81.155 58.328 Q 79.995 56.44 79.995 53.768 Z " fill="black" /><path d="M 101.147 47.576 L 101.147 47.576 L 101.099 48.056 Q 100.523 48.072 100.171 48.312 Q 99.819 48.552 99.403 49.16 L 93.771 58.184 L 93.307 58.184 L 92.779 51.96 L 92.715 51.96 L 88.603 58.184 L 88.155 58.184 L 87.371 49.496 Q 87.307 48.712 87.035 48.384 Q 86.763 48.056 86.075 48.056 L 86.155 47.576 L 90.155 47.576 L 90.075 48.056 Q 89.387 48.056 89.115 48.192 Q 88.843 48.328 88.811 48.648 Q 88.811 48.68 88.811 48.744 Q 88.811 48.872 88.811 49.056 Q 88.811 49.24 88.843 49.464 L 89.259 53.976 L 89.339 55.512 L 89.435 55.512 L 92.667 50.824 L 92.555 49.56 Q 92.491 48.872 92.387 48.552 Q 92.283 48.232 92.051 48.144 Q 91.819 48.056 91.355 48.056 L 91.435 47.576 L 95.515 47.576 L 95.435 48.056 Q 94.555 48.056 94.259 48.344 Q 93.963 48.632 94.027 49.528 L 94.411 53.848 L 94.475 55.48 L 94.555 55.48 L 97.963 50.12 Q 98.219 49.72 98.443 49.288 Q 98.667 48.856 98.667 48.504 Q 98.667 48.264 98.491 48.16 Q 98.315 48.056 97.787 48.056 L 97.883 47.576 Z " fill="black" /><path d="M 102.267 60.2 L 102.267 60.2 L 102.075 59.8 Q 102.379 59.672 102.683 59.472 Q 102.987 59.272 103.195 58.888 Q 103.403 58.504 103.403 57.864 Q 103.147 57.96 102.907 57.96 Q 102.443 57.96 102.235 57.704 Q 102.027 57.448 102.027 57.096 Q 102.027 56.712 102.283 56.432 Q 102.539 56.152 103.019 56.152 Q 103.627 56.152 103.939 56.528 Q 104.251 56.904 104.251 57.56 Q 104.251 58.232 104.035 58.696 Q 103.819 59.16 103.499 59.448 Q 103.179 59.736 102.843 59.912 Q 102.507 60.088 102.267 60.2 Z " fill="black" /><path d="M 121.04 54.968 L 121.04 54.968 L 120.08 58.088 L 112.176 58.088 L 112.272 57.608 Q 112.896 57.608 113.224 57.496 Q 113.552 57.384 113.728 57.064 Q 113.904 56.744 114.032 56.104 L 115.408 49.432 Q 115.52 48.904 115.488 48.6 Q 115.456 48.296 115.16 48.176 Q 114.864 48.056 114.176 48.056 L 114.272 47.576 L 118.816 47.576 L 118.736 48.056 Q 117.872 48.056 117.44 48.32 Q 117.008 48.584 116.832 49.448 L 115.376 56.616 Q 115.264 57.144 115.488 57.312 Q 115.712 57.48 116.416 57.48 L 117.168 57.48 Q 117.936 57.48 118.416 57.344 Q 118.896 57.208 119.232 56.92 Q 119.568 56.632 119.864 56.144 Q 120.16 55.656 120.528 54.968 Z " fill="black" /><path d="M 122.608 60.2 L 122.608 60.2 L 122.416 59.8 Q 122.72 59.672 123.024 59.472 Q 123.328 59.272 123.536 58.888 Q 123.744 58.504 123.744 57.864 Q 123.488 57.96 123.248 57.96 Q 122.784 57.96 122.576 57.704 Q 122.368 57.448 122.368 57.096 Q 122.368 56.712 122.624 56.432 Q 122.88 56.152 123.36 56.152 Q 123.968 56.152 124.28 56.528 Q 124.592 56.904 124.592 57.56 Q 124.592 58.232 124.376 58.696 Q 124.16 59.16 123.84 59.448 Q 123.52 59.736 123.184 59.912 Q 122.848 60.088 122.608 60.2 Z " fill="black" /><path d="M 136.949 56.088 L 136.949 56.088 L 141.317 49.528 Q 141.541 49.208 141.677 48.936 Q 141.813 48.664 141.813 48.472 Q 141.813 48.232 141.605 48.144 Q 141.397 48.056 140.853 48.056 L 140.885 47.576 L 144.341 47.576 L 144.309 48.056 Q 143.877 48.056 143.573 48.184 Q 143.269 48.312 142.957 48.672 Q 142.645 49.032 142.149 49.768 L 136.277 58.168 L 135.749 58.168 L 134.853 49.512 Q 134.757 48.712 134.501 48.384 Q 134.245 48.056 133.605 48.056 L 133.637 47.576 L 137.557 47.576 L 137.509 48.056 Q 136.901 48.056 136.549 48.296 Q 136.197 48.536 136.229 49.08 Q 136.229 49.16 136.253 49.368 Q 136.277 49.576 136.277 49.656 L 136.757 54.216 L 136.869 56.088 Z " fill="black" /><path d="M 150.125 57.976 L 150.125 57.976 L 150.125 58.334 Q 149.655 58.334 149.509 58.497 Q 149.364 58.659 149.364 59.186 L 149.364 60.81 Q 148.759 61.157 148.143 61.364 Q 147.527 61.571 146.597 61.571 Q 144.817 61.571 143.915 60.58 Q 143.013 59.589 143.013 57.797 Q 143.013 56.554 143.489 55.697 Q 143.965 54.84 144.789 54.398 Q 145.612 53.955 146.665 53.955 Q 147.281 53.955 147.645 54.056 Q 148.009 54.157 148.216 54.258 Q 148.423 54.358 148.557 54.358 Q 148.703 54.358 148.776 54.246 Q 148.849 54.134 148.961 53.955 L 149.285 53.955 L 149.285 56.52 L 148.905 56.52 Q 148.714 55.4 148.143 54.918 Q 147.572 54.437 146.676 54.437 Q 145.489 54.437 144.833 55.305 Q 144.178 56.173 144.178 57.662 Q 144.178 59.376 144.867 60.222 Q 145.556 61.067 146.754 61.067 Q 147.281 61.067 147.645 60.91 Q 148.009 60.754 148.345 60.507 L 148.345 59.298 Q 148.345 58.894 148.277 58.687 Q 148.21 58.48 147.997 58.407 Q 147.785 58.334 147.359 58.334 L 147.359 57.976 Z " fill="black" /><path d="M 155.445 56.218 L 155.445 56.218 L 155.109 56.218 Q 154.874 55.288 154.482 54.84 Q 154.09 54.392 153.239 54.403 Q 152.668 54.403 152.354 54.666 Q 152.041 54.93 152.041 55.456 Q 152.041 55.87 152.276 56.167 Q 152.511 56.464 152.892 56.699 Q 153.273 56.934 153.687 57.181 Q 154.057 57.394 154.432 57.606 Q 154.807 57.819 155.115 58.088 Q 155.423 58.357 155.608 58.715 Q 155.793 59.074 155.793 59.578 Q 155.793 60.227 155.496 60.675 Q 155.199 61.123 154.684 61.353 Q 154.169 61.582 153.519 61.582 Q 152.937 61.582 152.573 61.498 Q 152.209 61.414 152.001 61.33 Q 151.794 61.246 151.66 61.246 Q 151.548 61.246 151.458 61.347 Q 151.369 61.448 151.357 61.616 L 151.01 61.616 L 150.909 59.197 L 151.257 59.197 Q 151.458 59.97 151.727 60.378 Q 151.996 60.787 152.393 60.938 Q 152.791 61.09 153.362 61.09 Q 153.989 61.09 154.359 60.815 Q 154.729 60.541 154.729 59.902 Q 154.729 59.41 154.454 59.085 Q 154.18 58.76 153.754 58.508 Q 153.329 58.256 152.869 57.998 Q 152.421 57.741 152.007 57.45 Q 151.593 57.158 151.329 56.755 Q 151.066 56.352 151.066 55.77 Q 151.066 55.176 151.357 54.778 Q 151.649 54.381 152.13 54.168 Q 152.612 53.955 153.194 53.955 Q 153.709 53.955 153.989 54.039 Q 154.269 54.123 154.432 54.213 Q 154.594 54.302 154.729 54.302 Q 154.997 54.302 155.076 53.978 L 155.367 53.978 Z " fill="black" /><path d="M 157.282 60.2 L 157.282 60.2 L 157.09 59.8 Q 157.394 59.672 157.698 59.472 Q 158.002 59.272 158.21 58.888 Q 158.418 58.504 158.418 57.864 Q 158.162 57.96 157.922 57.96 Q 157.458 57.96 157.25 57.704 Q 157.042 57.448 157.042 57.096 Q 157.042 56.712 157.298 56.432 Q 157.554 56.152 158.034 56.152 Q 158.642 56.152 158.954 56.528 Q 159.266 56.904 159.266 57.56 Q 159.266 58.232 159.05 58.696 Q 158.834 59.16 158.514 59.448 Q 158.194 59.736 157.858 59.912 Q 157.522 60.088 157.282 60.2 Z " fill="black" /><path d="M 171.623 56.088 L 171.623 56.088 L 175.991 49.528 Q 176.215 49.208 176.351 48.936 Q 176.487 48.664 176.487 48.472 Q 176.487 48.232 176.279 48.144 Q 176.071 48.056 175.527 48.056 L 175.559 47.576 L 179.015 47.576 L 178.983 48.056 Q 178.551 48.056 178.247 48.184 Q 177.943 48.312 177.631 48.672 Q 177.319 49.032 176.823 49.768 L 170.951 58.168 L 170.423 58.168 L 169.527 49.512 Q 169.431 48.712 169.175 48.384 Q 168.919 48.056 168.279 48.056 L 168.311 47.576 L 172.231 47.576 L 172.183 48.056 Q 171.575 48.056 171.223 48.296 Q 170.871 48.536 170.903 49.08 Q 170.903 49.16 170.927 49.368 Q 170.951 49.576 170.951 49.656 L 171.431 54.216 L 171.543 56.088 Z " fill="black" /><path d="M 177.519 54.09 L 177.519 54.09 L 180.599 54.09 Q 181.473 54.09 182.229 54.274 Q 182.985 54.459 183.545 54.885 Q 184.105 55.31 184.424 56.005 Q 184.743 56.699 184.743 57.73 Q 184.743 59.018 184.245 59.841 Q 183.747 60.664 182.839 61.056 Q 181.932 61.448 180.723 61.448 L 177.519 61.448 L 177.519 61.112 Q 178.012 61.112 178.247 61.039 Q 178.483 60.966 178.55 60.737 Q 178.617 60.507 178.617 60.059 L 178.617 55.366 Q 178.617 54.952 178.516 54.756 Q 178.415 54.56 178.18 54.493 Q 177.945 54.426 177.519 54.426 Z M 179.647 54.571 L 179.647 54.571 L 179.647 60.989 Q 179.983 61.022 180.308 61.022 Q 181.327 61.022 182.055 60.748 Q 182.783 60.474 183.175 59.779 Q 183.567 59.085 183.567 57.83 Q 183.567 56.229 182.75 55.389 Q 181.932 54.549 180.196 54.549 Q 180.062 54.549 179.933 54.549 Q 179.804 54.549 179.647 54.571 Z " fill="black" /><path d="M 190.231 56.218 L 190.231 56.218 L 189.895 56.218 Q 189.66 55.288 189.268 54.84 Q 188.876 54.392 188.025 54.403 Q 187.454 54.403 187.14 54.666 Q 186.827 54.93 186.827 55.456 Q 186.827 55.87 187.062 56.167 Q 187.297 56.464 187.678 56.699 Q 188.059 56.934 188.473 57.181 Q 188.843 57.394 189.218 57.606 Q 189.593 57.819 189.901 58.088 Q 190.209 58.357 190.394 58.715 Q 190.579 59.074 190.579 59.578 Q 190.579 60.227 190.282 60.675 Q 189.985 61.123 189.47 61.353 Q 188.955 61.582 188.305 61.582 Q 187.723 61.582 187.359 61.498 Q 186.995 61.414 186.787 61.33 Q 186.58 61.246 186.446 61.246 Q 186.334 61.246 186.244 61.347 Q 186.155 61.448 186.143 61.616 L 185.796 61.616 L 185.695 59.197 L 186.043 59.197 Q 186.244 59.97 186.513 60.378 Q 186.782 60.787 187.179 60.938 Q 187.577 61.09 188.148 61.09 Q 188.775 61.09 189.145 60.815 Q 189.515 60.541 189.515 59.902 Q 189.515 59.41 189.24 59.085 Q 188.966 58.76 188.54 58.508 Q 188.115 58.256 187.655 57.998 Q 187.207 57.741 186.793 57.45 Q 186.379 57.158 186.115 56.755 Q 185.852 56.352 185.852 55.77 Q 185.852 55.176 186.143 54.778 Q 186.435 54.381 186.916 54.168 Q 187.398 53.955 187.98 53.955 Q 188.495 53.955 188.775 54.039 Q 189.055 54.123 189.218 54.213 Q 189.38 54.302 189.515 54.302 Q 189.783 54.302 189.862 53.978 L 190.153 53.978 Z " fill="black" /><path d="M 192.068 60.2 L 192.068 60.2 L 191.876 59.8 Q 192.18 59.672 192.484 59.472 Q 192.788 59.272 192.996 58.888 Q 193.204 58.504 193.204 57.864 Q 192.948 57.96 192.708 57.96 Q 192.244 57.96 192.036 57.704 Q 191.828 57.448 191.828 57.096 Q 191.828 56.712 192.084 56.432 Q 192.34 56.152 192.82 56.152 Q 193.428 56.152 193.74 56.528 Q 194.052 56.904 194.052 57.56 Q 194.052 58.232 193.836 58.696 Q 193.62 59.16 193.3 59.448 Q 192.98 59.736 192.644 59.912 Q 192.308 60.088 192.068 60.2 Z " fill="black" /><path d="M 206.41 56.088 L 206.41 56.088 L 210.778 49.528 Q 211.002 49.208 211.138 48.936 Q 211.274 48.664 211.274 48.472 Q 211.274 48.232 211.066 48.144 Q 210.858 48.056 210.314 48.056 L 210.346 47.576 L 213.802 47.576 L 213.77 48.056 Q 213.338 48.056 213.034 48.184 Q 212.73 48.312 212.418 48.672 Q 212.106 49.032 211.61 49.768 L 205.738 58.168 L 205.21 58.168 L 204.314 49.512 Q 204.218 48.712 203.962 48.384 Q 203.706 48.056 203.066 48.056 L 203.098 47.576 L 207.018 47.576 L 206.97 48.056 Q 206.362 48.056 206.01 48.296 Q 205.658 48.536 205.69 49.08 Q 205.69 49.16 205.714 49.368 Q 205.738 49.576 205.738 49.656 L 206.218 54.216 L 206.33 56.088 Z " fill="black" /><path d="M 216.842 56.218 L 216.842 56.218 L 216.506 56.218 Q 216.27 55.288 215.878 54.84 Q 215.486 54.392 214.635 54.403 Q 214.064 54.403 213.75 54.666 Q 213.437 54.93 213.437 55.456 Q 213.437 55.87 213.672 56.167 Q 213.907 56.464 214.288 56.699 Q 214.669 56.934 215.083 57.181 Q 215.453 57.394 215.828 57.606 Q 216.203 57.819 216.511 58.088 Q 216.819 58.357 217.004 58.715 Q 217.189 59.074 217.189 59.578 Q 217.189 60.227 216.892 60.675 Q 216.595 61.123 216.08 61.353 Q 215.565 61.582 214.915 61.582 Q 214.333 61.582 213.969 61.498 Q 213.605 61.414 213.398 61.33 Q 213.19 61.246 213.056 61.246 Q 212.944 61.246 212.854 61.347 Q 212.765 61.448 212.754 61.616 L 212.406 61.616 L 212.306 59.197 L 212.653 59.197 Q 212.854 59.97 213.123 60.378 Q 213.392 60.787 213.79 60.938 Q 214.187 61.09 214.758 61.09 Q 215.386 61.09 215.755 60.815 Q 216.125 60.541 216.125 59.902 Q 216.125 59.41 215.85 59.085 Q 215.576 58.76 215.15 58.508 Q 214.725 58.256 214.266 57.998 Q 213.818 57.741 213.403 57.45 Q 212.989 57.158 212.726 56.755 Q 212.462 56.352 212.462 55.77 Q 212.462 55.176 212.754 54.778 Q 213.045 54.381 213.526 54.168 Q 214.008 53.955 214.59 53.955 Q 215.106 53.955 215.386 54.039 Q 215.666 54.123 215.828 54.213 Q 215.99 54.302 216.125 54.302 Q 216.394 54.302 216.472 53.978 L 216.763 53.978 Z " fill="black" /><path d="M 222.139 57.528 L 222.139 57.528 L 222.139 57.573 Q 222.621 57.651 223.063 57.864 Q 223.506 58.077 223.797 58.463 Q 224.088 58.85 224.088 59.466 Q 224.088 60.418 223.377 60.933 Q 222.666 61.448 221.411 61.448 L 217.962 61.448 L 217.962 61.112 Q 218.421 61.112 218.65 61.034 Q 218.88 60.955 218.964 60.72 Q 219.048 60.485 219.048 60.026 L 219.048 55.445 Q 219.048 54.997 218.964 54.778 Q 218.88 54.56 218.65 54.493 Q 218.421 54.426 217.962 54.426 L 217.962 54.09 L 220.986 54.09 Q 222.486 54.09 223.108 54.549 Q 223.73 55.008 223.73 55.837 Q 223.73 56.587 223.282 56.962 Q 222.834 57.338 222.139 57.528 Z M 220.078 57.864 L 220.078 57.864 L 220.078 61 Q 220.482 61.034 220.885 61.034 Q 221.243 61.034 221.602 60.989 Q 221.96 60.944 222.257 60.793 Q 222.554 60.642 222.733 60.334 Q 222.912 60.026 222.912 59.488 Q 222.912 58.85 222.615 58.497 Q 222.318 58.144 221.854 58.004 Q 221.389 57.864 220.862 57.864 Z M 220.078 57.394 L 220.078 57.394 L 220.84 57.394 Q 221.859 57.394 222.24 57.041 Q 222.621 56.688 222.621 55.926 Q 222.621 55.266 222.201 54.896 Q 221.781 54.526 220.75 54.526 Q 220.414 54.526 220.078 54.56 Z " fill="black" /><path d="M 229.472 53.768 L 229.472 53.768 Q 229.472 56.44 228.312 58.328 Q 227.152 60.216 225.216 61.224 L 224.96 60.808 Q 226.72 59.624 227.44 57.92 Q 228.16 56.216 228.16 53.768 Q 228.16 51.32 227.44 49.616 Q 226.72 47.912 224.96 46.728 L 225.216 46.312 Q 227.152 47.32 228.312 49.208 Q 229.472 51.096 229.472 53.768 Z " fill="black" /></g></g></g><circle cx="324.0" cy="-0.0" r="2.6999999999999997" style="stroke:black;fill:black;stroke-width:2.0;" /><circle cx="324.0" cy="108.0" r="2.6999999999999997" style="stroke:black;fill:black;stroke-width:2.0;" /><g><g><g><path d="M 288.862 56.71 L 288.862 56.71 L 289.15 57.014 Q 288.334 57.974 287.262 58.59 Q 286.19 59.206 284.67 59.206 Q 283.23 59.206 282.366 58.67 Q 281.502 58.134 281.126 57.238 Q 280.75 56.342 280.75 55.286 Q 280.75 53.606 281.262 52.302 Q 281.774 50.998 282.662 50.11 Q 283.55 49.222 284.67 48.766 Q 285.79 48.31 287.006 48.31 Q 287.822 48.31 288.278 48.454 Q 288.734 48.598 288.99 48.75 Q 289.246 48.902 289.438 48.902 Q 289.63 48.902 289.774 48.742 Q 289.918 48.582 290.11 48.326 L 290.574 48.326 L 289.822 51.99 L 289.294 51.99 Q 289.358 50.39 288.702 49.694 Q 288.046 48.998 286.862 48.998 Q 285.934 48.998 285.118 49.422 Q 284.302 49.846 283.67 50.622 Q 283.038 51.398 282.678 52.478 Q 282.318 53.558 282.318 54.886 Q 282.318 56.486 283.078 57.326 Q 283.838 58.166 285.422 58.166 Q 287.262 58.166 288.862 56.71 Z " fill="black" /><path d="M 290.454 55.032 L 290.454 55.032 L 293.534 55.032 Q 294.408 55.032 295.164 55.216 Q 295.92 55.401 296.48 55.827 Q 297.04 56.252 297.359 56.947 Q 297.678 57.641 297.678 58.672 Q 297.678 59.96 297.18 60.783 Q 296.682 61.606 295.774 61.998 Q 294.867 62.39 293.658 62.39 L 290.454 62.39 L 290.454 62.054 Q 290.947 62.054 291.182 61.981 Q 291.418 61.908 291.485 61.679 Q 291.552 61.449 291.552 61.001 L 291.552 56.308 Q 291.552 55.894 291.451 55.698 Q 291.35 55.502 291.115 55.435 Q 290.88 55.368 290.454 55.368 Z M 292.582 55.513 L 292.582 55.513 L 292.582 61.931 Q 292.918 61.964 293.243 61.964 Q 294.262 61.964 294.99 61.69 Q 295.718 61.416 296.11 60.721 Q 296.502 60.027 296.502 58.772 Q 296.502 57.171 295.685 56.331 Q 294.867 55.491 293.131 55.491 Q 292.997 55.491 292.868 55.491 Q 292.739 55.491 292.582 55.513 Z " fill="black" /><path d="M 302.819 58.47 L 302.819 58.47 L 302.819 58.515 Q 303.301 58.593 303.743 58.806 Q 304.186 59.019 304.477 59.405 Q 304.768 59.792 304.768 60.408 Q 304.768 61.36 304.057 61.875 Q 303.346 62.39 302.091 62.39 L 298.642 62.39 L 298.642 62.054 Q 299.101 62.054 299.33 61.976 Q 299.56 61.897 299.644 61.662 Q 299.728 61.427 299.728 60.968 L 299.728 56.387 Q 299.728 55.939 299.644 55.72 Q 299.56 55.502 299.33 55.435 Q 299.101 55.368 298.642 55.368 L 298.642 55.032 L 301.666 55.032 Q 303.166 55.032 303.788 55.491 Q 304.41 55.95 304.41 56.779 Q 304.41 57.529 303.962 57.904 Q 303.514 58.28 302.819 58.47 Z M 300.758 58.806 L 300.758 58.806 L 300.758 61.942 Q 301.162 61.976 301.565 61.976 Q 301.923 61.976 302.282 61.931 Q 302.64 61.886 302.937 61.735 Q 303.234 61.584 303.413 61.276 Q 303.592 60.968 303.592 60.43 Q 303.592 59.792 303.295 59.439 Q 302.998 59.086 302.534 58.946 Q 302.069 58.806 301.542 58.806 Z M 300.758 58.336 L 300.758 58.336 L 301.52 58.336 Q 302.539 58.336 302.92 57.983 Q 303.301 57.63 303.301 56.868 Q 303.301 56.208 302.881 55.838 Q 302.461 55.468 301.43 55.468 Q 301.094 55.468 300.758 55.502 Z " fill="black" /></g></g></g><g><g><g><path d="M 286.133 82.352 L 286.133 82.352 L 286.421 82.656 Q 285.605 83.616 284.533 84.232 Q 283.461 84.848 281.941 84.848 Q 280.501 84.848 279.637 84.312 Q 278.773 83.776 278.397 82.88 Q 278.021 81.984 278.021 80.928 Q 278.021 79.248 278.533 77.944 Q 279.045 76.64 279.933 75.752 Q 280.821 74.864 281.941 74.408 Q 283.061 73.952 284.277 73.952 Q 285.093 73.952 285.549 74.096 Q 286.005 74.24 286.261 74.392 Q 286.517 74.544 286.709 74.544 Q 286.901 74.544 287.045 74.384 Q 287.189 74.224 287.381 73.968 L 287.845 73.968 L 287.093 77.632 L 286.565 77.632 Q 286.629 76.032 285.973 75.336 Q 285.317 74.64 284.133 74.64 Q 283.205 74.64 282.389 75.064 Q 281.573 75.488 280.941 76.264 Q 280.309 77.04 279.949 78.12 Q 279.589 79.2 279.589 80.528 Q 279.589 82.128 280.349 82.968 Q 281.109 83.808 282.693 83.808 Q 284.533 83.808 286.133 82.352 Z " fill="black" /><path d="M 292.261 82.802 L 292.261 82.802 L 291.925 82.802 Q 291.69 81.872 291.298 81.424 Q 290.906 80.976 290.054 80.987 Q 289.483 80.987 289.17 81.25 Q 288.856 81.514 288.856 82.04 Q 288.856 82.454 289.091 82.751 Q 289.326 83.048 289.707 83.283 Q 290.088 83.518 290.502 83.765 Q 290.872 83.978 291.247 84.19 Q 291.622 84.403 291.93 84.672 Q 292.238 84.941 292.423 85.299 Q 292.608 85.658 292.608 86.162 Q 292.608 86.811 292.311 87.259 Q 292.014 87.707 291.499 87.937 Q 290.984 88.166 290.334 88.166 Q 289.752 88.166 289.388 88.082 Q 289.024 87.998 288.817 87.914 Q 288.61 87.83 288.475 87.83 Q 288.363 87.83 288.274 87.931 Q 288.184 88.032 288.173 88.2 L 287.826 88.2 L 287.725 85.781 L 288.072 85.781 Q 288.274 86.554 288.542 86.962 Q 288.811 87.371 289.209 87.522 Q 289.606 87.674 290.178 87.674 Q 290.805 87.674 291.174 87.399 Q 291.544 87.125 291.544 86.486 Q 291.544 85.994 291.27 85.669 Q 290.995 85.344 290.57 85.092 Q 290.144 84.84 289.685 84.582 Q 289.237 84.325 288.822 84.034 Q 288.408 83.742 288.145 83.339 Q 287.882 82.936 287.882 82.354 Q 287.882 81.76 288.173 81.362 Q 288.464 80.965 288.946 80.752 Q 289.427 80.539 290.01 80.539 Q 290.525 80.539 290.805 80.623 Q 291.085 80.707 291.247 80.797 Q 291.41 80.886 291.544 80.886 Q 291.813 80.886 291.891 80.562 L 292.182 80.562 Z " fill="black" /><path d="M 297.558 84.112 L 297.558 84.112 L 297.558 84.157 Q 298.04 84.235 298.482 84.448 Q 298.925 84.661 299.216 85.047 Q 299.507 85.434 299.507 86.05 Q 299.507 87.002 298.796 87.517 Q 298.085 88.032 296.83 88.032 L 293.381 88.032 L 293.381 87.696 Q 293.84 87.696 294.07 87.618 Q 294.299 87.539 294.383 87.304 Q 294.467 87.069 294.467 86.61 L 294.467 82.029 Q 294.467 81.581 294.383 81.362 Q 294.299 81.144 294.07 81.077 Q 293.84 81.01 293.381 81.01 L 293.381 80.674 L 296.405 80.674 Q 297.906 80.674 298.527 81.133 Q 299.149 81.592 299.149 82.421 Q 299.149 83.171 298.701 83.546 Q 298.253 83.922 297.558 84.112 Z M 295.498 84.448 L 295.498 84.448 L 295.498 87.584 Q 295.901 87.618 296.304 87.618 Q 296.662 87.618 297.021 87.573 Q 297.379 87.528 297.676 87.377 Q 297.973 87.226 298.152 86.918 Q 298.331 86.61 298.331 86.072 Q 298.331 85.434 298.034 85.081 Q 297.738 84.728 297.273 84.588 Q 296.808 84.448 296.282 84.448 Z M 295.498 83.978 L 295.498 83.978 L 296.259 83.978 Q 297.278 83.978 297.659 83.625 Q 298.04 83.272 298.04 82.51 Q 298.04 81.85 297.62 81.48 Q 297.2 81.11 296.17 81.11 Q 295.834 81.11 295.498 81.144 Z " fill="black" /></g></g></g><circle cx="324.0" cy="180.0" r="2.6999999999999997" style="stroke:black;fill:white;stroke-width:2.0;" /><g><g><g><path d="M 321.4 196.812 L 321.4 196.812 L 321.4 186.3 L 324.584 186.3 Q 325.688 186.3 326.52 186.556 Q 327.352 186.812 327.816 187.372 Q 328.28 187.932 328.28 188.828 Q 328.28 189.66 327.872 190.292 Q 327.464 190.924 326.712 191.164 L 326.712 191.228 Q 327.672 191.404 328.288 192.028 Q 328.904 192.652 328.904 193.772 Q 328.904 194.78 328.384 195.452 Q 327.864 196.124 326.952 196.468 Q 326.04 196.812 324.84 196.812 Z M 322.776 195.724 L 322.776 195.724 L 324.632 195.724 Q 326.008 195.724 326.784 195.236 Q 327.56 194.748 327.56 193.724 Q 327.56 192.732 326.816 192.276 Q 326.072 191.82 324.632 191.82 L 322.776 191.82 Z M 322.776 190.78 L 322.776 190.78 L 324.36 190.78 Q 325.752 190.78 326.344 190.308 Q 326.936 189.836 326.936 189.036 Q 326.936 188.14 326.288 187.764 Q 325.64 187.388 324.424 187.388 L 322.776 187.388 Z " fill="black" /></g></g></g><circle cx="360.0" cy="-0.0" r="2.6999999999999997" style="stroke:black;fill:white;stroke-width:2.0;" /><g><g><g><path d="M 367.772 5.256 L 367.772 5.256 L 367.772 -5.256 L 370.46 -5.256 Q 372.94 -5.256 374.236 -3.904 Q 375.532 -2.552 375.532 -0.04 Q 375.532 2.472 374.244 3.864 Q 372.956 5.256 370.524 5.256 Z M 369.148 4.136 L 369.148 4.136 L 370.364 4.136 Q 372.252 4.136 373.188 3.04 Q 374.124 1.944 374.124 -0.04 Q 374.124 -2.024 373.188 -3.08 Q 372.252 -4.136 370.364 -4.136 L 369.148 -4.136 Z " fill="black" /></g></g></g></svg>