<svg xmlns="http://www.w3.org/2000/svg" xmlns:xlink="http://www.w3.org/1999/xlink" width="900" height="509" version="1.1">
<style type="text/css">
.l0{
  fill: #ffffff;
  stroke: #ffffff;
  stroke-linecap:round;
  stroke-linejoin:round;
  stroke-width: 0.799017;
}
.l1{
  fill: #0044ee;
  stroke: #0044ee;
  stroke-linecap:round;
  stroke-linejoin:round;
  stroke-width: 0.799017;
}
.l2{
  fill: #aaaaaa; fill-opacity: 0.2;
  stroke: #aaaaaa;
  stroke-linecap:round;
  stroke-linejoin:round;
  stroke-width: 0.799017;
}
.l3{
  fill: #222222; fill-opacity: 0.5;
  stroke: #222222;
  stroke-linecap:round;
  stroke-linejoin:round;
  stroke-width: 0.799017;
}
.l4{
  fill: #229900;
  stroke: #229900;
  stroke-linecap:round;
  stroke-linejoin:round;
  stroke-width: 0.799017;
}
.l5{
  fill: #bb2200;
  stroke: #bb2200;
  stroke-linecap:round;
  stroke-linejoin:round;
  stroke-width: 0.799017;
}
.l6{
  fill: #00ccee; fill-opacity: 0.5;
  stroke: #00ccee;
  stroke-linecap:round;
  stroke-linejoin:round;
  stroke-width: 0.799017;
}
.l7{
  fill: #ff0000; fill-opacity: 0.5;
  stroke: #ff0000;
  stroke-linecap:round;
  stroke-linejoin:round;
  stroke-width: 0.799017;
}
.l8{
  fill: #888800; fill-opacity: 0.5;
  stroke: #888800;
  stroke-linecap:round;
  stroke-linejoin:round;
  stroke-width: 0.799017;
}
.l9{
  fill: #00aaaa; fill-opacity: 0.5;
  stroke: #00aaaa;
  stroke-linecap:round;
  stroke-linejoin:round;
  stroke-width: 0.799017;
}
.l10{
  fill: #880088;
  stroke: #880088;
  stroke-linecap:round;
  stroke-linejoin:round;
  stroke-width: 0.799017;
}
.l11{
  fill: #00ff00; fill-opacity: 0.5;
  stroke: #00ff00;
  stroke-linecap:round;
  stroke-linejoin:round;
  stroke-width: 0.799017;
}
.l12{
  fill: #0000cc; fill-opacity: 0.5;
  stroke: #0000cc;
  stroke-linecap:round;
  stroke-linejoin:round;
  stroke-width: 0.799017;
}
.l13{
  fill: #666600; fill-opacity: 0.5;
  stroke: #666600;
  stroke-linecap:round;
  stroke-linejoin:round;
  stroke-width: 0.799017;
}
.l14{
  fill: #557755; fill-opacity: 0.2;
  stroke: #557755;
  stroke-linecap:round;
  stroke-linejoin:round;
  stroke-width: 0.799017;
}
.l15{
  fill: #aa2222; fill-opacity: 0.5;
  stroke: #aa2222;
  stroke-linecap:round;
  stroke-linejoin:round;
  stroke-width: 0.799017;
}
.l16{
  fill: #7ccc40; fill-opacity: 0.5;
  stroke: #7ccc40;
  stroke-linecap:round;
  stroke-linejoin:round;
  stroke-width: 0.799017;
}
.l17{
  fill: #00ffcc; fill-opacity: 0.2;
  stroke: #00ffcc;
  stroke-linecap:round;
  stroke-linejoin:round;
  stroke-width: 0.799017;
}
.l18{
  fill: #ce0097; fill-opacity: 0.5;
  stroke: #ce0097;
  stroke-linecap:round;
  stroke-linejoin:round;
  stroke-width: 0.799017;
}
.l19{
  fill: #d2d46b; fill-opacity: 0.2;
  stroke: #d2d46b;
  stroke-linecap:round;
  stroke-linejoin:round;
  stroke-width: 0.799017;
}
.l20{
  fill: #ef6158; fill-opacity: 0.2;
  stroke: #ef6158;
  stroke-linecap:round;
  stroke-linejoin:round;
  stroke-width: 0.799017;
}
.l21{
  fill: #fdb200; fill-opacity: 0.2;
  stroke: #fdb200;
  stroke-linecap:round;
  stroke-linejoin:round;
  stroke-width: 0.799017;
}
text {font-family: Sans-Serif;}
</style>
<rect class="l0" x="0" y="0" width="900" height="509"/>
<text fill="#0044ee"  xml:space="preserve" font-size="7.69424" transform="translate(573.922, 266.665)" >GND</text>
<text fill="#0044ee"  xml:space="preserve" font-size="7.69424" transform="translate(403.761, 266.665)" >GND</text>
<text fill="#0044ee"  xml:space="preserve" font-size="7.69424" transform="translate(625.71, 266.665)" >GND</text>
<text fill="#0044ee"  xml:space="preserve" font-size="12.6955" transform="translate(482.036, 157.92)" >v_gs</text>
<text fill="#0044ee"  xml:space="preserve" font-size="12.6955" transform="translate(362.663, 69.1401)" >v_dd</text>
<text fill="#222222"  xml:space="preserve" font-size="11.5414" transform="translate(17.1992, 377.434)" >MODEL</text>
<text fill="#222222"  xml:space="preserve" font-size="11.5414" style="font-family:Monospace;" transform="translate(24.5975, 395.93)" >.lib cornerMOSlv.lib mos_tt</text>
<text fill="#222222"  xml:space="preserve" font-size="11.5414" transform="translate(17.1992, 51.9084)" >NGSPICE</text>
<text fill="#222222"  xml:space="preserve" font-size="11.5414" style="font-family:Monospace;" transform="translate(24.5975, 83.6421)" >.param temp=27</text>
<text fill="#222222"  xml:space="preserve" font-size="11.5414" style="font-family:Monospace;" transform="translate(24.5975, 96.88)" >.control</text>
<text fill="#222222"  xml:space="preserve" font-size="11.5414" style="font-family:Monospace;" transform="translate(24.5975, 110.118)" >option sparse</text>
<text fill="#222222"  xml:space="preserve" font-size="11.5414" style="font-family:Monospace;" transform="translate(24.5975, 123.356)" >save all</text>
<text fill="#222222"  xml:space="preserve" font-size="11.5414" style="font-family:Monospace;" transform="translate(24.5975, 136.594)" >op</text>
<text fill="#222222"  xml:space="preserve" font-size="11.5414" style="font-family:Monospace;" transform="translate(24.5975, 149.832)" >noise v(v_gs) Ibias dec 101 1k 300e9</text>
<text fill="#222222"  xml:space="preserve" font-size="11.5414" style="font-family:Monospace;" transform="translate(24.5975, 163.07)" >setplot noise1</text>
<text fill="#222222"  xml:space="preserve" font-size="11.5414" style="font-family:Monospace;" transform="translate(24.5975, 176.308)" >plot loglog onoise_spectrum</text>
<text fill="#222222"  xml:space="preserve" font-size="11.5414" style="font-family:Monospace;" transform="translate(24.5975, 189.546)" >setplot noise2</text>
<text fill="#222222"  xml:space="preserve" font-size="11.5414" style="font-family:Monospace;" transform="translate(24.5975, 202.783)" >print onoise_total</text>
<text fill="#222222"  xml:space="preserve" font-size="11.5414" style="font-family:Monospace;" transform="translate(24.5975, 216.021)" >write mosfet_diode_noise.raw</text>
<text fill="#222222"  xml:space="preserve" font-size="11.5414" style="font-family:Monospace;" transform="translate(24.5975, 229.259)" >.endc</text>
<text fill="#222222"  xml:space="preserve" font-size="7.69424" transform="translate(413.008, 182.509)" >Vdd</text>
<text fill="#222222"  xml:space="preserve" font-size="7.69424" transform="translate(413.008, 201.005)" >1.5</text>
<text fill="#222222"  xml:space="preserve" font-size="15.3885" transform="translate(305.733, 458.609)" >         /foss/designs/xschem/mosfet_diode_noise.sch</text>
<text fill="#222222"  xml:space="preserve" font-size="15.3885" transform="translate(305.733, 436.414)" >Copyright 2024 Harald Pretl</text>
<text fill="#222222"  xml:space="preserve" font-size="15.3885" transform="translate(714.5, 436.414)" >2024-08-20  18:05:54</text>
<text fill="#222222"  xml:space="preserve" font-size="38.4712" transform="translate(135.572, 457.373)" >SCHEM</text>
<text fill="#222222"  xml:space="preserve" font-size="7.69424" transform="translate(545.275, 209.751)" >M1</text>
<text fill="#ff0000"  xml:space="preserve" font-size="5.77068" transform="translate(570.222, 175.069)" >D</text>
<text fill="#ff0000"  xml:space="preserve" font-size="5.77068" transform="translate(570.222, 207.582)" >S</text>
<text fill="#ff0000"  xml:space="preserve" font-size="5.77068" transform="translate(568.373, 195.414)" >B</text>
<text fill="#ff0000"  xml:space="preserve" font-size="5.77068" transform="translate(542.178, 195.414)" >G</text>
<text fill="#222222"  xml:space="preserve" font-size="7.69424" transform="translate(575.771, 173.262)" >sg13_lv_nmos</text>
<text fill="#666600"  xml:space="preserve" font-size="7.69424" transform="translate(576.696, 206.977)" >m=1</text>
<text fill="#666600"  xml:space="preserve" font-size="7.69424" transform="translate(576.696, 201.428)" >ng=1</text>
<text fill="#666600"  xml:space="preserve" font-size="7.69424" transform="translate(576.696, 194.03)" >l=0.13u</text>
<text fill="#666600"  xml:space="preserve" font-size="7.69424" transform="translate(576.696, 186.631)" >w=1u</text>
<text fill="#222222"  xml:space="preserve" font-size="15.3885" transform="translate(390.814, 349.732)" >simulate</text>
<text fill="#222222"  xml:space="preserve" font-size="15.3885" transform="translate(568.373, 349.732)" >annotate OP</text>
<text fill="#222222"  xml:space="preserve" font-size="7.69424" transform="translate(583.169, 115)" >Ibias</text>
<text fill="#222222"  xml:space="preserve" font-size="7.69424" transform="translate(583.169, 123.825)" >dc 20u ac 1</text>
<path class="l4" d="M13.5 381.751L65.2881 381.751"/>
<path class="l4" d="M13.5 381.751L13.5 396.547"/>
<path class="l4" d="M13.5 56.2254L65.2881 56.2254"/>
<path class="l4" d="M13.5 56.2254L13.5 71.022"/>
<path class="l4" d="M568.373 255.98L568.373 265.228"/>
<path class="l4" d="M564.674 265.228L572.072 265.228"/>
<path class="l4" d="M568.373 268.927L572.072 265.228"/>
<path class="l4" d="M564.674 265.228L568.373 268.927"/>
<path class="l4" d="M400.061 172.749L403.761 172.749"/>
<path class="l4" d="M401.911 170.899L401.911 174.598"/>
<path class="l4" d="M398.212 167.2L398.212 211.59"/>
<circle class="l4" cx="398.212" cy="189.395" r="11.0975" style="fill:none;" />
<path class="l4" d="M398.212 255.98L398.212 265.228"/>
<path class="l4" d="M394.513 265.228L401.911 265.228"/>
<path class="l4" d="M398.212 268.927L401.911 265.228"/>
<path class="l4" d="M394.513 265.228L398.212 268.927"/>
<path class="l4" d="M620.161 255.98L620.161 265.228"/>
<path class="l4" d="M616.462 265.228L623.86 265.228"/>
<path class="l4" d="M620.161 268.927L623.86 265.228"/>
<path class="l4" d="M616.462 265.228L620.161 268.927"/>
<path class="l4" d="M559.125 172.749L559.125 206.041"/>
<path class="l4" d="M568.373 202.342L568.373 211.59"/>
<path class="l4" d="M568.373 167.2L568.373 176.448"/>
<path class="l4" d="M555.426 178.297L555.426 200.492"/>
<path class="l4" d="M559.125 176.448L568.373 176.448"/>
<path class="l4" d="M559.125 202.342L568.373 202.342"/>
<path class="l4" d="M538.78 189.395L555.056 189.395"/>
<path class="l4" d="M562.824 200.492L566.523 202.342L562.824 204.192L562.824 200.492"/>
<path class="l4" d="M383.415 344.759L361.22 335.511L361.22 341.06L339.025 341.06L346.424 344.759L339.025 348.458L361.22 348.458L361.22 354.007L383.415 344.759"/>
<path class="l4" d="M560.975 344.759L538.78 335.511L538.78 341.06L516.585 341.06L523.983 344.759L516.585 348.458L538.78 348.458L538.78 354.007L560.975 344.759"/>
<path class="l4" d="M568.373 93.2169L568.373 104.314"/>
<path class="l4" d="M568.373 126.509L568.373 137.607"/>
<path class="l4" d="M570.222 98.7657L573.922 98.7657"/>
<path class="l4" d="M572.072 96.9161L572.072 100.615"/>
<path class="l4" d="M568.373 109.863L568.373 117.261L570.222 117.261L568.373 122.81L566.523 117.261L568.373 117.261L568.373 109.863"/>
<circle class="l4" cx="568.373" cy="115.412" r="11.0975" style="fill:none;" />
<path class="l5" d="M566.523 254.13L570.222 254.13L570.222 257.829L566.523 257.829L566.523 254.13z"/>
<path class="l5" d="M396.362 165.35L400.061 165.35L400.061 169.05L396.362 169.05L396.362 165.35z"/>
<path class="l5" d="M396.362 209.74L400.061 209.74L400.061 213.439L396.362 213.439L396.362 209.74z"/>
<path class="l5" d="M396.362 254.13L400.061 254.13L400.061 257.829L396.362 257.829L396.362 254.13z"/>
<path class="l5" d="M618.311 254.13L622.011 254.13L622.011 257.829L618.311 257.829L618.311 254.13z"/>
<path class="l5" d="M124.475 429.84L124.243 430.071L124.012 430.302L123.781 430.533L123.55 430.765L123.319 430.996L123.087 431.227L122.856 431.458L122.625 431.689L122.394 431.921L122.163 432.152L121.931 432.383L121.7 432.614L121.469 432.845L121.238 433.077L121.007 433.308L120.775 433.539L120.544 433.77L120.313 434.001L120.082 434.233L119.851 434.464L119.619 434.695L119.388 434.926L119.157 435.157L118.926 435.389L118.695 435.62L118.463 435.851L118.232 436.082L118.001 436.313L117.77 436.545L117.539 436.776L117.307 437.007L117.076 437.238L117.076 437.238L116.852 437.469L116.643 437.701L116.448 437.932L116.267 438.163L116.101 438.394L115.949 438.625L115.812 438.857L115.689 439.088L115.581 439.319L115.487 439.55L115.407 439.781L115.342 440.012L115.292 440.244L115.256 440.475L115.234 440.706L115.227 440.937L115.234 441.168L115.256 441.4L115.292 441.631L115.342 441.862L115.407 442.093L115.487 442.324L115.581 442.556L115.689 442.787L115.812 443.018L115.949 443.249L116.101 443.48L116.267 443.712L116.448 443.943L116.643 444.174L116.852 444.405L117.076 444.636L117.076 444.636L117.308 444.869L117.542 445.102L117.778 445.338L118.016 445.576L118.255 445.815L118.496 446.056L118.739 446.299L118.984 446.544L119.23 446.79L119.479 447.039L119.729 447.289L119.981 447.541L120.234 447.795L120.49 448.05L120.747 448.308L121.007 448.567L121.268 448.828L121.53 449.091L121.795 449.355L122.061 449.622L122.33 449.89L122.6 450.16L122.872 450.432L123.145 450.705L123.421 450.981L123.698 451.258L123.977 451.537L124.258 451.818L124.541 452.101L124.825 452.385L125.111 452.671L125.399 452.96L125.399 452.96L125.687 453.247L125.97 453.53L126.25 453.81L126.526 454.087L126.799 454.359L127.068 454.628L127.334 454.894L127.596 455.156L127.854 455.414L128.109 455.669L128.36 455.92L128.607 456.167L128.851 456.411L129.091 456.651L129.328 456.888L129.561 457.121L129.79 457.35L130.016 457.576L130.238 457.798L130.457 458.017L130.672 458.232L130.883 458.443L131.091 458.651L131.295 458.855L131.495 459.056L131.692 459.252L131.886 459.446L132.075 459.635L132.261 459.821L132.444 460.004L132.622 460.183L132.798 460.358L132.798 460.358L132.966 460.529L133.123 460.694L133.269 460.854L133.405 461.008L133.529 461.157L133.643 461.301L133.746 461.439L133.838 461.572L133.919 461.699L133.99 461.821L134.049 461.937L134.098 462.048L134.136 462.154L134.163 462.254L134.179 462.349L134.185 462.439L134.179 462.523L134.163 462.601L134.136 462.674L134.098 462.742L134.049 462.804L133.99 462.861L133.919 462.913L133.838 462.959L133.746 462.999L133.643 463.035L133.529 463.064L133.405 463.089L133.269 463.108L133.123 463.121L132.966 463.129L132.798 463.132L132.798 463.132L132.624 463.132L132.451 463.132L132.277 463.132L132.104 463.132L131.931 463.132L131.757 463.132L131.584 463.132L131.41 463.132L131.237 463.132L131.064 463.132L130.89 463.132L130.717 463.132L130.543 463.132L130.37 463.132L130.197 463.132L130.023 463.132L129.85 463.132L129.677 463.132L129.503 463.132L129.33 463.132L129.156 463.132L128.983 463.132L128.81 463.132L128.636 463.132L128.463 463.132L128.289 463.132L128.116 463.132L127.943 463.132L127.769 463.132L127.596 463.132L127.422 463.132L127.249 463.132L127.249 463.132L127.076 463.132L126.906 463.132L126.737 463.132L126.57 463.132L126.405 463.132L126.241 463.132L126.079 463.132L125.92 463.132L125.762 463.132L125.605 463.132L125.451 463.132L125.298 463.132L125.147 463.132L124.998 463.132L124.851 463.132L124.706 463.132L124.562 463.132L124.42 463.132L124.28 463.132L124.142 463.132L124.006 463.132L123.871 463.132L123.739 463.132L123.608 463.132L123.478 463.132L123.351 463.132L123.226 463.132L123.102 463.132L122.98 463.132L122.86 463.132L122.742 463.132L122.625 463.132L122.625 463.132L122.509 463.13L122.394 463.125L122.278 463.116L122.163 463.103L122.047 463.087L121.931 463.067L121.816 463.044L121.7 463.017L121.585 462.986L121.469 462.952L121.353 462.914L121.238 462.872L121.122 462.827L121.007 462.778L120.891 462.726L120.775 462.67L120.66 462.61L120.544 462.547L120.429 462.48L120.313 462.41L120.197 462.336L120.082 462.258L119.966 462.177L119.851 462.092L119.735 462.003L119.619 461.911L119.504 461.815L119.388 461.716L119.273 461.613L119.157 461.507L119.041 461.396L118.926 461.283L118.926 461.283L118.81 461.167L118.695 461.051L118.579 460.936L118.463 460.82L118.348 460.705L118.232 460.589L118.117 460.473L118.001 460.358L117.885 460.242L117.77 460.127L117.654 460.011L117.539 459.895L117.423 459.78L117.307 459.664L117.192 459.549L117.076 459.433L116.961 459.317L116.845 459.202L116.729 459.086L116.614 458.971L116.498 458.855L116.383 458.739L116.267 458.624L116.151 458.508L116.036 458.393L115.92 458.277L115.805 458.161L115.689 458.046L115.573 457.93L115.458 457.815L115.342 457.699L115.227 457.583L115.227 457.583L115.109 457.466L114.988 457.345L114.864 457.22L114.735 457.092L114.604 456.96L114.468 456.825L114.329 456.686L114.186 456.543L114.04 456.397L113.89 456.247L113.737 456.093L113.579 455.936L113.419 455.775L113.254 455.611L113.086 455.443L112.915 455.272L112.74 455.096L112.561 454.917L112.378 454.735L112.192 454.549L112.003 454.359L111.809 454.166L111.612 453.969L111.412 453.769L111.208 453.565L111 453.357L110.789 453.146L110.574 452.931L110.355 452.712L110.133 452.49L109.907 452.264L109.678 452.035L109.678 452.035L109.447 451.811L109.216 451.601L108.984 451.406L108.753 451.226L108.522 451.059L108.291 450.908L108.06 450.77L107.828 450.648L107.597 450.539L107.366 450.445L107.135 450.366L106.904 450.301L106.672 450.25L106.441 450.214L106.21 450.192L105.979 450.185L105.748 450.192L105.516 450.214L105.285 450.25L105.054 450.301L104.823 450.366L104.592 450.445L104.36 450.539L104.129 450.648L103.898 450.77L103.667 450.908L103.436 451.059L103.204 451.226L102.973 451.406L102.742 451.601L102.511 451.811L102.28 452.035L102.28 452.035L102.05 452.264L101.824 452.49L101.602 452.712L101.384 452.931L101.169 453.146L100.958 453.357L100.75 453.565L100.546 453.769L100.345 453.969L100.148 454.166L99.955 454.359L99.7654 454.549L99.5794 454.735L99.3969 454.917L99.2181 455.096L99.0429 455.272L98.8713 455.443L98.7033 455.611L98.539 455.775L98.3782 455.936L98.2211 456.093L98.0675 456.247L97.9176 456.397L97.7713 456.543L97.6286 456.686L97.4895 456.825L97.3541 456.96L97.2222 457.092L97.094 457.22L96.9694 457.345L96.8483 457.466L96.7309 457.583L96.7309 457.583L96.6153 457.699L96.4997 457.815L96.3841 457.93L96.2685 458.046L96.1529 458.161L96.0373 458.277L95.9217 458.393L95.8061 458.508L95.6905 458.624L95.5749 458.739L95.4593 458.855L95.3438 458.971L95.2282 459.086L95.1126 459.202L94.997 459.317L94.8814 459.433L94.7658 459.549L94.6502 459.664L94.5346 459.78L94.419 459.895L94.3034 460.011L94.1878 460.127L94.0722 460.242L93.9566 460.358L93.841 460.473L93.7254 460.589L93.6098 460.705L93.4942 460.82L93.3786 460.936L93.263 461.051L93.1474 461.167L93.0318 461.283L93.0318 461.283L92.9162 461.396L92.8006 461.507L92.685 461.613L92.5694 461.716L92.4538 461.815L92.3382 461.911L92.2226 462.003L92.107 462.092L91.9914 462.177L91.8758 462.258L91.7602 462.336L91.6446 462.41L91.529 462.48L91.4134 462.547L91.2978 462.61L91.1822 462.67L91.0666 462.726L90.951 462.778L90.8354 462.827L90.7198 462.872L90.6042 462.914L90.4886 462.952L90.373 462.986L90.2574 463.017L90.1418 463.044L90.0262 463.067L89.9106 463.087L89.795 463.103L89.6794 463.116L89.5638 463.125L89.4482 463.13L89.3326 463.132L89.3326 463.132L89.2161 463.132L89.0978 463.132L88.9777 463.132L88.8558 463.132L88.7321 463.132L88.6065 463.132L88.4792 463.132L88.35 463.132L88.2191 463.132L88.0863 463.132L87.9518 463.132L87.8154 463.132L87.6772 463.132L87.5372 463.132L87.3954 463.132L87.2519 463.132L87.1065 463.132L86.9592 463.132L86.8102 463.132L86.6594 463.132L86.5068 463.132L86.3524 463.132L86.1961 463.132L86.0381 463.132L85.8782 463.132L85.7166 463.132L85.5531 463.132L85.3878 463.132L85.2208 463.132L85.0519 463.132L84.8812 463.132L84.7087 463.132L84.7087 463.132L84.5353 463.132L84.3619 463.132L84.1885 463.132L84.0151 463.132L83.8417 463.132L83.6683 463.132L83.4949 463.132L83.3215 463.132L83.1481 463.132L82.9747 463.132L82.8013 463.132L82.6279 463.132L82.4545 463.132L82.2811 463.132L82.1077 463.132L81.9343 463.132L81.7609 463.132L81.5875 463.132L81.4141 463.132L81.2407 463.132L81.0673 463.132L80.8939 463.132L80.7205 463.132L80.5471 463.132L80.3737 463.132L80.2003 463.132L80.0269 463.132L79.8535 463.132L79.6802 463.132L79.5068 463.132L79.3334 463.132L79.16 463.132L79.16 463.132L78.992 463.129L78.8348 463.121L78.6885 463.108L78.5531 463.089L78.4284 463.064L78.3146 463.035L78.2117 462.999L78.1196 462.959L78.0383 462.913L77.9678 462.861L77.9082 462.804L77.8595 462.742L77.8215 462.674L77.7945 462.601L77.7782 462.523L77.7728 462.439L77.7782 462.349L77.7945 462.254L77.8215 462.154L77.8595 462.048L77.9082 461.937L77.9678 461.821L78.0383 461.699L78.1196 461.572L78.2117 461.439L78.3146 461.301L78.4284 461.157L78.5531 461.008L78.6885 460.854L78.8348 460.694L78.992 460.529L79.16 460.358L79.16 460.358L79.3352 460.183L79.514 460.004L79.6964 459.821L79.8824 459.635L80.0721 459.446L80.2654 459.252L80.4622 459.056L80.6627 458.855L80.8668 458.651L81.0746 458.443L81.2859 458.232L81.5008 458.017L81.7194 457.798L81.9415 457.576L82.1673 457.35L82.3967 457.121L82.6297 456.888L82.8663 456.651L83.1066 456.411L83.3504 456.167L83.5979 455.92L83.8489 455.669L84.1036 455.414L84.3619 455.156L84.6238 454.894L84.8893 454.628L85.1584 454.359L85.4312 454.087L85.7075 453.81L85.9875 453.53L86.2711 453.247L86.5583 452.96L86.5583 452.96L86.8464 452.671L87.1326 452.385L87.4171 452.101L87.6998 451.818L87.9807 451.537L88.2597 451.258L88.537 450.981L88.8124 450.705L89.0861 450.432L89.3579 450.16L89.6279 449.89L89.8962 449.622L90.1626 449.355L90.4272 449.091L90.69 448.828L90.951 448.567L91.2102 448.308L91.4676 448.05L91.7232 447.795L91.9769 447.541L92.2289 447.289L92.4791 447.039L92.7274 446.79L92.974 446.544L93.2187 446.299L93.4617 446.056L93.7028 445.815L93.9421 445.576L94.1796 445.338L94.4153 445.102L94.6493 444.869L94.8814 444.636L94.8814 444.636L95.1053 444.405L95.3149 444.174L95.5099 443.943L95.6905 443.712L95.8567 443.48L96.0084 443.249L96.1457 443.018L96.2685 442.787L96.3769 442.556L96.4708 442.324L96.5503 442.093L96.6153 441.862L96.6659 441.631L96.702 441.4L96.7237 441.168L96.7309 440.937L96.7237 440.706L96.702 440.475L96.6659 440.244L96.6153 440.012L96.5503 439.781L96.4708 439.55L96.3769 439.319L96.2685 439.088L96.1457 438.857L96.0084 438.625L95.8567 438.394L95.6905 438.163L95.5099 437.932L95.3149 437.701L95.1053 437.469L94.8814 437.238L94.8814 437.238L94.6493 437.006L94.4153 436.772L94.1796 436.536L93.9421 436.299L93.7028 436.06L93.4617 435.818L93.2187 435.576L92.974 435.331L92.7274 435.084L92.4791 434.836L92.2289 434.586L91.9769 434.334L91.7232 434.08L91.4676 433.824L91.2102 433.567L90.951 433.308L90.69 433.047L90.4272 432.784L90.1626 432.519L89.8962 432.253L89.6279 431.985L89.3579 431.715L89.0861 431.443L88.8124 431.169L88.537 430.894L88.2597 430.617L87.9807 430.337L87.6998 430.057L87.4171 429.774L87.1326 429.489L86.8464 429.203L86.5583 428.915L86.5583 428.915L86.2711 428.628L85.9875 428.344L85.7075 428.064L85.4312 427.788L85.1584 427.515L84.8893 427.246L84.6238 426.981L84.3619 426.719L84.1036 426.46L83.8489 426.206L83.5979 425.955L83.3504 425.707L83.1066 425.463L82.8663 425.223L82.6297 424.986L82.3967 424.753L82.1673 424.524L81.9415 424.298L81.7194 424.076L81.5008 423.858L81.2859 423.643L81.0746 423.431L80.8668 423.224L80.6627 423.02L80.4622 422.819L80.2654 422.622L80.0721 422.429L79.8824 422.239L79.6964 422.053L79.514 421.871L79.3352 421.692L79.16 421.517L79.16 421.517L78.992 421.346L78.8348 421.181L78.6885 421.021L78.5531 420.866L78.4284 420.717L78.3146 420.574L78.2117 420.436L78.1196 420.303L78.0383 420.176L77.9678 420.054L77.9082 419.937L77.8595 419.826L77.8215 419.72L77.7945 419.62L77.7782 419.525L77.7728 419.436L77.7782 419.352L77.7945 419.273L77.8215 419.2L77.8595 419.133L77.9082 419.07L77.9678 419.013L78.0383 418.962L78.1196 418.916L78.2117 418.875L78.3146 418.84L78.4284 418.81L78.5531 418.786L78.6885 418.767L78.8348 418.753L78.992 418.745L79.16 418.742L79.16 418.742L79.3334 418.742L79.5068 418.742L79.6802 418.742L79.8535 418.742L80.0269 418.742L80.2003 418.742L80.3737 418.742L80.5471 418.742L80.7205 418.742L80.8939 418.742L81.0673 418.742L81.2407 418.742L81.4141 418.742L81.5875 418.742L81.7609 418.742L81.9343 418.742L82.1077 418.742L82.2811 418.742L82.4545 418.742L82.6279 418.742L82.8013 418.742L82.9747 418.742L83.1481 418.742L83.3215 418.742L83.4949 418.742L83.6683 418.742L83.8417 418.742L84.0151 418.742L84.1885 418.742L84.3619 418.742L84.5353 418.742L84.7087 418.742L84.7087 418.742L84.8812 418.742L85.0519 418.742L85.2208 418.742L85.3878 418.742L85.5531 418.742L85.7166 418.742L85.8782 418.742L86.0381 418.742L86.1961 418.742L86.3524 418.742L86.5068 418.742L86.6594 418.742L86.8102 418.742L86.9592 418.742L87.1065 418.742L87.2519 418.742L87.3954 418.742L87.5372 418.742L87.6772 418.742L87.8154 418.742L87.9518 418.742L88.0863 418.742L88.2191 418.742L88.35 418.742L88.4792 418.742L88.6065 418.742L88.7321 418.742L88.8558 418.742L88.9777 418.742L89.0978 418.742L89.2161 418.742L89.3326 418.742L89.3326 418.742L89.4482 418.744L89.5638 418.75L89.6794 418.759L89.795 418.771L89.9106 418.788L90.0262 418.807L90.1418 418.831L90.2574 418.858L90.373 418.889L90.4886 418.923L90.6042 418.961L90.7198 419.002L90.8354 419.048L90.951 419.096L91.0666 419.149L91.1822 419.205L91.2978 419.264L91.4134 419.328L91.529 419.394L91.6446 419.465L91.7602 419.539L91.8758 419.617L91.9914 419.698L92.107 419.783L92.2226 419.871L92.3382 419.963L92.4538 420.059L92.5694 420.158L92.685 420.261L92.8006 420.368L92.9162 420.478L93.0318 420.592L93.0318 420.592L93.1474 420.708L93.263 420.823L93.3786 420.939L93.4942 421.054L93.6098 421.17L93.7254 421.286L93.841 421.401L93.9566 421.517L94.0722 421.632L94.1878 421.748L94.3034 421.864L94.419 421.979L94.5346 422.095L94.6502 422.21L94.7658 422.326L94.8814 422.442L94.997 422.557L95.1126 422.673L95.2282 422.788L95.3438 422.904L95.4593 423.02L95.5749 423.135L95.6905 423.251L95.8061 423.366L95.9217 423.482L96.0373 423.598L96.1529 423.713L96.2685 423.829L96.3841 423.944L96.4997 424.06L96.6153 424.176L96.7309 424.291L96.7309 424.291L96.8483 424.409L96.9694 424.53L97.094 424.654L97.2222 424.782L97.3541 424.914L97.4895 425.05L97.6286 425.189L97.7713 425.331L97.9176 425.478L98.0675 425.628L98.2211 425.781L98.3782 425.938L98.539 426.099L98.7033 426.264L98.8713 426.431L99.0429 426.603L99.2181 426.778L99.3969 426.957L99.5794 427.14L99.7654 427.326L99.955 427.515L100.148 427.708L100.345 427.905L100.546 428.106L100.75 428.31L100.958 428.518L101.169 428.729L101.384 428.944L101.602 429.162L101.824 429.385L102.05 429.61L102.28 429.84L102.28 429.84L102.511 430.064L102.742 430.273L102.973 430.468L103.204 430.649L103.436 430.815L103.667 430.967L103.898 431.104L104.129 431.227L104.36 431.335L104.592 431.429L104.823 431.509L105.054 431.574L105.285 431.624L105.516 431.661L105.748 431.682L105.979 431.689L106.21 431.682L106.441 431.661L106.672 431.624L106.904 431.574L107.135 431.509L107.366 431.429L107.597 431.335L107.828 431.227L108.06 431.104L108.291 430.967L108.522 430.815L108.753 430.649L108.984 430.468L109.216 430.273L109.447 430.064L109.678 429.84L109.678 429.84L109.907 429.61L110.133 429.385L110.355 429.162L110.574 428.944L110.789 428.729L111 428.518L111.208 428.31L111.412 428.106L111.612 427.905L111.809 427.708L112.003 427.515L112.192 427.326L112.378 427.14L112.561 426.957L112.74 426.778L112.915 426.603L113.086 426.431L113.254 426.264L113.419 426.099L113.579 425.938L113.737 425.781L113.89 425.628L114.04 425.478L114.186 425.331L114.329 425.189L114.468 425.05L114.604 424.914L114.735 424.782L114.864 424.654L114.988 424.53L115.109 424.409L115.227 424.291L115.227 424.291L115.342 424.176L115.458 424.06L115.573 423.944L115.689 423.829L115.805 423.713L115.92 423.598L116.036 423.482L116.151 423.366L116.267 423.251L116.383 423.135L116.498 423.02L116.614 422.904L116.729 422.788L116.845 422.673L116.961 422.557L117.076 422.442L117.192 422.326L117.307 422.21L117.423 422.095L117.539 421.979L117.654 421.864L117.77 421.748L117.885 421.632L118.001 421.517L118.117 421.401L118.232 421.286L118.348 421.17L118.463 421.054L118.579 420.939L118.695 420.823L118.81 420.708L118.926 420.592L118.926 420.592L119.041 420.478L119.157 420.368L119.273 420.261L119.388 420.158L119.504 420.059L119.619 419.963L119.735 419.871L119.851 419.783L119.966 419.698L120.082 419.617L120.197 419.539L120.313 419.465L120.429 419.394L120.544 419.328L120.66 419.264L120.775 419.205L120.891 419.149L121.007 419.096L121.122 419.048L121.238 419.002L121.353 418.961L121.469 418.923L121.585 418.889L121.7 418.858L121.816 418.831L121.931 418.807L122.047 418.788L122.163 418.771L122.278 418.759L122.394 418.75L122.509 418.744L122.625 418.742L122.625 418.742L122.742 418.742L122.86 418.742L122.98 418.742L123.102 418.742L123.226 418.742L123.351 418.742L123.478 418.742L123.608 418.742L123.739 418.742L123.871 418.742L124.006 418.742L124.142 418.742L124.28 418.742L124.42 418.742L124.562 418.742L124.706 418.742L124.851 418.742L124.998 418.742L125.147 418.742L125.298 418.742L125.451 418.742L125.605 418.742L125.762 418.742L125.92 418.742L126.079 418.742L126.241 418.742L126.405 418.742L126.57 418.742L126.737 418.742L126.906 418.742L127.076 418.742L127.249 418.742L127.249 418.742L127.422 418.742L127.596 418.742L127.769 418.742L127.943 418.742L128.116 418.742L128.289 418.742L128.463 418.742L128.636 418.742L128.81 418.742L128.983 418.742L129.156 418.742L129.33 418.742L129.503 418.742L129.677 418.742L129.85 418.742L130.023 418.742L130.197 418.742L130.37 418.742L130.543 418.742L130.717 418.742L130.89 418.742L131.064 418.742L131.237 418.742L131.41 418.742L131.584 418.742L131.757 418.742L131.931 418.742L132.104 418.742L132.277 418.742L132.451 418.742L132.624 418.742L132.798 418.742L132.798 418.742L132.966 418.745L133.123 418.753L133.269 418.767L133.405 418.786L133.529 418.81L133.643 418.84L133.746 418.875L133.838 418.916L133.919 418.962L133.99 419.013L134.049 419.07L134.098 419.133L134.136 419.2L134.163 419.273L134.179 419.352L134.185 419.436L134.179 419.525L134.163 419.62L134.136 419.72L134.098 419.826L134.049 419.937L133.99 420.054L133.919 420.176L133.838 420.303L133.746 420.436L133.643 420.574L133.529 420.717L133.405 420.866L133.269 421.021L133.123 421.181L132.966 421.346L132.798 421.517L132.798 421.517L132.622 421.693L132.44 421.874L132.253 422.061L132.061 422.254L131.863 422.451L131.66 422.655L131.451 422.863L131.237 423.077L131.018 423.297L130.793 423.522L130.562 423.752L130.327 423.988L130.086 424.229L129.839 424.475L129.587 424.727L129.33 424.985L129.067 425.247L128.799 425.516L128.525 425.789L128.246 426.068L127.961 426.353L127.672 426.643L127.376 426.938L127.076 427.239L126.769 427.545L126.458 427.857L126.141 428.174L125.818 428.496L125.491 428.824L125.157 429.157L124.819 429.496L124.475 429.84"/>
<path class="l5" d="M564.674 191.244L568.373 189.395L564.674 187.545L564.674 191.244"/>
<path class="l5" d="M566.523 165.35L570.222 165.35L570.222 169.05L566.523 169.05L566.523 165.35z"/>
<path class="l5" d="M536.93 187.545L540.629 187.545L540.629 191.244L536.93 191.244L536.93 187.545z"/>
<path class="l5" d="M566.523 209.74L570.222 209.74L570.222 213.439L566.523 213.439L566.523 209.74z"/>
<path class="l5" d="M568.315 189.337L568.431 189.337L568.431 189.453L568.315 189.453L568.315 189.337z"/>
<path class="l5" d="M566.523 91.3674L570.222 91.3674L570.222 95.0665L566.523 95.0665L566.523 91.3674z"/>
<path class="l5" d="M566.523 135.757L570.222 135.757L570.222 139.456L566.523 139.456L566.523 135.757z"/>
<path class="l5" d="M515.66 151.479L517.51 151.479L517.51 153.328L515.66 153.328L515.66 151.479z"/>
<path class="l5" d="M397.287 62.6989L399.137 62.6989L399.137 64.5485L397.287 64.5485L397.287 62.6989z"/>
<path class="l6" d="M298.335 440.937L886.5 440.937"/>
<path class="l6" d="M13.5 440.937L61.589 440.937"/>
<path class="l1" d="M568.373 211.59L568.373 255.98"/>
<path class="l1" d="M398.212 211.59L398.212 255.98"/>
<path class="l1" d="M568.373 189.395L620.161 189.395"/>
<path class="l1" d="M620.161 189.395L620.161 255.98"/>
<path class="l1" d="M568.373 63.6237L568.373 93.2169"/>
<path class="l1" d="M398.212 63.6237L398.212 167.2"/>
<path class="l1" d="M398.212 63.6237L568.373 63.6237"/>
<path class="l1" d="M568.373 152.403L568.373 167.2"/>
<path class="l1" d="M516.585 189.395L538.78 189.395"/>
<path class="l1" d="M516.585 152.403L516.585 189.395"/>
<path class="l1" d="M516.585 152.403L568.373 152.403"/>
<path class="l1" d="M568.373 137.607L568.373 152.403"/>
<circle class="l1" cx="568.373" cy="152.403" r="2.73737"/>
<circle class="l1" cx="568.373" cy="152.403" r="2.73737"/>
<circle class="l1" cx="568.373" cy="152.403" r="2.73737"/>
</svg>
