<svg xmlns="http://www.w3.org/2000/svg" xmlns:xlink="http://www.w3.org/1999/xlink" width="900" height="506" version="1.1">
<style type="text/css">
.l0{
  fill: #ffffff;
  stroke: #ffffff;
  stroke-linecap:round;
  stroke-linejoin:round;
  stroke-width: 0.799017;
}
.l1{
  fill: #0044ee;
  stroke: #0044ee;
  stroke-linecap:round;
  stroke-linejoin:round;
  stroke-width: 0.799017;
}
.l2{
  fill: #aaaaaa; fill-opacity: 0.2;
  stroke: #aaaaaa;
  stroke-linecap:round;
  stroke-linejoin:round;
  stroke-width: 0.799017;
}
.l3{
  fill: #222222; fill-opacity: 0.5;
  stroke: #222222;
  stroke-linecap:round;
  stroke-linejoin:round;
  stroke-width: 0.799017;
}
.l4{
  fill: #229900;
  stroke: #229900;
  stroke-linecap:round;
  stroke-linejoin:round;
  stroke-width: 0.799017;
}
.l5{
  fill: #bb2200;
  stroke: #bb2200;
  stroke-linecap:round;
  stroke-linejoin:round;
  stroke-width: 0.799017;
}
.l6{
  fill: #00ccee; fill-opacity: 0.5;
  stroke: #00ccee;
  stroke-linecap:round;
  stroke-linejoin:round;
  stroke-width: 0.799017;
}
.l7{
  fill: #ff0000; fill-opacity: 0.5;
  stroke: #ff0000;
  stroke-linecap:round;
  stroke-linejoin:round;
  stroke-width: 0.799017;
}
.l8{
  fill: #888800; fill-opacity: 0.5;
  stroke: #888800;
  stroke-linecap:round;
  stroke-linejoin:round;
  stroke-width: 0.799017;
}
.l9{
  fill: #00aaaa; fill-opacity: 0.5;
  stroke: #00aaaa;
  stroke-linecap:round;
  stroke-linejoin:round;
  stroke-width: 0.799017;
}
.l10{
  fill: #880088;
  stroke: #880088;
  stroke-linecap:round;
  stroke-linejoin:round;
  stroke-width: 0.799017;
}
.l11{
  fill: #00ff00; fill-opacity: 0.5;
  stroke: #00ff00;
  stroke-linecap:round;
  stroke-linejoin:round;
  stroke-width: 0.799017;
}
.l12{
  fill: #0000cc; fill-opacity: 0.5;
  stroke: #0000cc;
  stroke-linecap:round;
  stroke-linejoin:round;
  stroke-width: 0.799017;
}
.l13{
  fill: #666600; fill-opacity: 0.5;
  stroke: #666600;
  stroke-linecap:round;
  stroke-linejoin:round;
  stroke-width: 0.799017;
}
.l14{
  fill: #557755; fill-opacity: 0.2;
  stroke: #557755;
  stroke-linecap:round;
  stroke-linejoin:round;
  stroke-width: 0.799017;
}
.l15{
  fill: #aa2222; fill-opacity: 0.5;
  stroke: #aa2222;
  stroke-linecap:round;
  stroke-linejoin:round;
  stroke-width: 0.799017;
}
.l16{
  fill: #7ccc40; fill-opacity: 0.5;
  stroke: #7ccc40;
  stroke-linecap:round;
  stroke-linejoin:round;
  stroke-width: 0.799017;
}
.l17{
  fill: #00ffcc; fill-opacity: 0.2;
  stroke: #00ffcc;
  stroke-linecap:round;
  stroke-linejoin:round;
  stroke-width: 0.799017;
}
.l18{
  fill: #ce0097; fill-opacity: 0.5;
  stroke: #ce0097;
  stroke-linecap:round;
  stroke-linejoin:round;
  stroke-width: 0.799017;
}
.l19{
  fill: #d2d46b; fill-opacity: 0.2;
  stroke: #d2d46b;
  stroke-linecap:round;
  stroke-linejoin:round;
  stroke-width: 0.799017;
}
.l20{
  fill: #ef6158; fill-opacity: 0.2;
  stroke: #ef6158;
  stroke-linecap:round;
  stroke-linejoin:round;
  stroke-width: 0.799017;
}
.l21{
  fill: #fdb200; fill-opacity: 0.2;
  stroke: #fdb200;
  stroke-linecap:round;
  stroke-linejoin:round;
  stroke-width: 0.799017;
}
text {font-family: Sans-Serif;}
</style>
<rect class="l0" x="0" y="0" width="900" height="506"/>
<text fill="#0044ee"  xml:space="preserve" font-size="7.69424" transform="translate(573.922, 265.165)" >GND</text>
<text fill="#0044ee"  xml:space="preserve" font-size="7.69424" transform="translate(403.761, 265.165)" >GND</text>
<text fill="#0044ee"  xml:space="preserve" font-size="7.69424" transform="translate(625.71, 265.165)" >GND</text>
<text fill="#0044ee"  xml:space="preserve" font-size="12.6955" transform="translate(482.036, 156.42)" >v_gs</text>
<text fill="#0044ee"  xml:space="preserve" font-size="12.6955" transform="translate(362.663, 67.6401)" >v_dd</text>
<text fill="#222222"  xml:space="preserve" font-size="11.5414" transform="translate(17.1992, 375.934)" >MODEL</text>
<text fill="#222222"  xml:space="preserve" font-size="11.5414" style="font-family:Monospace;" transform="translate(24.5975, 394.43)" >.lib cornerMOSlv.lib mos_tt</text>
<text fill="#222222"  xml:space="preserve" font-size="11.5414" transform="translate(17.1992, 50.4084)" >NGSPICE</text>
<text fill="#222222"  xml:space="preserve" font-size="11.5414" style="font-family:Monospace;" transform="translate(24.5975, 82.1421)" >.temp 27</text>
<text fill="#222222"  xml:space="preserve" font-size="11.5414" style="font-family:Monospace;" transform="translate(24.5975, 95.38)" >.control</text>
<text fill="#222222"  xml:space="preserve" font-size="11.5414" style="font-family:Monospace;" transform="translate(24.5975, 108.618)" >option sparse</text>
<text fill="#222222"  xml:space="preserve" font-size="11.5414" style="font-family:Monospace;" transform="translate(24.5975, 121.856)" >save all</text>
<text fill="#222222"  xml:space="preserve" font-size="11.5414" style="font-family:Monospace;" transform="translate(24.5975, 135.094)" >op</text>
<text fill="#222222"  xml:space="preserve" font-size="11.5414" style="font-family:Monospace;" transform="translate(24.5975, 148.332)" >noise v(v_gs) Ibias dec 101 1k 300e9</text>
<text fill="#222222"  xml:space="preserve" font-size="11.5414" style="font-family:Monospace;" transform="translate(24.5975, 161.57)" >setplot noise1</text>
<text fill="#222222"  xml:space="preserve" font-size="11.5414" style="font-family:Monospace;" transform="translate(24.5975, 174.808)" >plot loglog onoise_spectrum</text>
<text fill="#222222"  xml:space="preserve" font-size="11.5414" style="font-family:Monospace;" transform="translate(24.5975, 188.046)" >setplot noise2</text>
<text fill="#222222"  xml:space="preserve" font-size="11.5414" style="font-family:Monospace;" transform="translate(24.5975, 201.283)" >print onoise_total</text>
<text fill="#222222"  xml:space="preserve" font-size="11.5414" style="font-family:Monospace;" transform="translate(24.5975, 214.521)" >write mosfet_diode_noise.raw</text>
<text fill="#222222"  xml:space="preserve" font-size="11.5414" style="font-family:Monospace;" transform="translate(24.5975, 227.759)" >.endc</text>
<text fill="#222222"  xml:space="preserve" font-size="7.69424" transform="translate(413.008, 181.009)" >Vdd</text>
<text fill="#222222"  xml:space="preserve" font-size="7.69424" transform="translate(413.008, 199.505)" >1.5</text>
<text fill="#222222"  xml:space="preserve" font-size="15.3885" transform="translate(305.733, 457.109)" >         /foss/designs/xschem/mosfet_diode_noise.sch</text>
<text fill="#222222"  xml:space="preserve" font-size="15.3885" transform="translate(305.733, 434.914)" >Copyright 2024 Harald Pretl</text>
<text fill="#222222"  xml:space="preserve" font-size="15.3885" transform="translate(714.5, 434.914)" >2024-08-27  17:39:52</text>
<text fill="#222222"  xml:space="preserve" font-size="38.4712" transform="translate(135.572, 455.873)" >SCHEM</text>
<text fill="#222222"  xml:space="preserve" font-size="7.69424" transform="translate(545.275, 208.251)" >M1</text>
<text fill="#ff0000"  xml:space="preserve" font-size="5.77068" transform="translate(570.222, 173.569)" >D</text>
<text fill="#ff0000"  xml:space="preserve" font-size="5.77068" transform="translate(570.222, 206.082)" >S</text>
<text fill="#ff0000"  xml:space="preserve" font-size="5.77068" transform="translate(568.373, 193.914)" >B</text>
<text fill="#ff0000"  xml:space="preserve" font-size="5.77068" transform="translate(542.178, 193.914)" >G</text>
<text fill="#222222"  xml:space="preserve" font-size="7.69424" transform="translate(575.771, 171.762)" >sg13_lv_nmos</text>
<text fill="#666600"  xml:space="preserve" font-size="7.69424" transform="translate(576.696, 205.477)" >m=1</text>
<text fill="#666600"  xml:space="preserve" font-size="7.69424" transform="translate(576.696, 199.928)" >ng=1</text>
<text fill="#666600"  xml:space="preserve" font-size="7.69424" transform="translate(576.696, 192.53)" >l=0.13u</text>
<text fill="#666600"  xml:space="preserve" font-size="7.69424" transform="translate(576.696, 185.131)" >w=1u</text>
<text fill="#222222"  xml:space="preserve" font-size="15.3885" transform="translate(390.814, 348.232)" >simulate</text>
<text fill="#222222"  xml:space="preserve" font-size="15.3885" transform="translate(568.373, 348.232)" >annotate OP</text>
<text fill="#222222"  xml:space="preserve" font-size="7.69424" transform="translate(583.169, 113.5)" >Ibias</text>
<text fill="#222222"  xml:space="preserve" font-size="7.69424" transform="translate(583.169, 122.325)" >dc 20u ac 1</text>
<path class="l4" d="M13.5 380.251L65.2881 380.251"/>
<path class="l4" d="M13.5 380.251L13.5 395.047"/>
<path class="l4" d="M13.5 54.7254L65.2881 54.7254"/>
<path class="l4" d="M13.5 54.7254L13.5 69.522"/>
<path class="l4" d="M568.373 254.48L568.373 263.728"/>
<path class="l4" d="M564.674 263.728L572.072 263.728"/>
<path class="l4" d="M568.373 267.427L572.072 263.728"/>
<path class="l4" d="M564.674 263.728L568.373 267.427"/>
<path class="l4" d="M400.061 171.249L403.761 171.249"/>
<path class="l4" d="M401.911 169.399L401.911 173.098"/>
<path class="l4" d="M398.212 165.7L398.212 210.09"/>
<circle class="l4" cx="398.212" cy="187.895" r="11.0975" style="fill:none;" />
<path class="l4" d="M398.212 254.48L398.212 263.728"/>
<path class="l4" d="M394.513 263.728L401.911 263.728"/>
<path class="l4" d="M398.212 267.427L401.911 263.728"/>
<path class="l4" d="M394.513 263.728L398.212 267.427"/>
<path class="l4" d="M620.161 254.48L620.161 263.728"/>
<path class="l4" d="M616.462 263.728L623.86 263.728"/>
<path class="l4" d="M620.161 267.427L623.86 263.728"/>
<path class="l4" d="M616.462 263.728L620.161 267.427"/>
<path class="l4" d="M559.125 171.249L559.125 204.541"/>
<path class="l4" d="M568.373 200.842L568.373 210.09"/>
<path class="l4" d="M568.373 165.7L568.373 174.948"/>
<path class="l4" d="M555.426 176.797L555.426 198.992"/>
<path class="l4" d="M559.125 174.948L568.373 174.948"/>
<path class="l4" d="M559.125 200.842L568.373 200.842"/>
<path class="l4" d="M538.78 187.895L555.056 187.895"/>
<path class="l4" d="M562.824 198.992L566.523 200.842L562.824 202.692L562.824 198.992"/>
<path class="l4" d="M383.415 343.259L361.22 334.011L361.22 339.56L339.025 339.56L346.424 343.259L339.025 346.958L361.22 346.958L361.22 352.507L383.415 343.259"/>
<path class="l4" d="M560.975 343.259L538.78 334.011L538.78 339.56L516.585 339.56L523.983 343.259L516.585 346.958L538.78 346.958L538.78 352.507L560.975 343.259"/>
<path class="l4" d="M568.373 91.7169L568.373 102.814"/>
<path class="l4" d="M568.373 125.009L568.373 136.107"/>
<path class="l4" d="M570.222 97.2657L573.922 97.2657"/>
<path class="l4" d="M572.072 95.4161L572.072 99.1153"/>
<path class="l4" d="M568.373 108.363L568.373 115.761L570.222 115.761L568.373 121.31L566.523 115.761L568.373 115.761L568.373 108.363"/>
<circle class="l4" cx="568.373" cy="113.912" r="11.0975" style="fill:none;" />
<path class="l5" d="M566.523 252.63L570.222 252.63L570.222 256.329L566.523 256.329L566.523 252.63z"/>
<path class="l5" d="M396.362 163.85L400.061 163.85L400.061 167.55L396.362 167.55L396.362 163.85z"/>
<path class="l5" d="M396.362 208.24L400.061 208.24L400.061 211.939L396.362 211.939L396.362 208.24z"/>
<path class="l5" d="M396.362 252.63L400.061 252.63L400.061 256.329L396.362 256.329L396.362 252.63z"/>
<path class="l5" d="M618.311 252.63L622.011 252.63L622.011 256.329L618.311 256.329L618.311 252.63z"/>
<path class="l5" d="M124.475 428.34L124.243 428.571L124.012 428.802L123.781 429.033L123.55 429.265L123.319 429.496L123.087 429.727L122.856 429.958L122.625 430.189L122.394 430.421L122.163 430.652L121.931 430.883L121.7 431.114L121.469 431.345L121.238 431.577L121.007 431.808L120.775 432.039L120.544 432.27L120.313 432.501L120.082 432.733L119.851 432.964L119.619 433.195L119.388 433.426L119.157 433.657L118.926 433.889L118.695 434.12L118.463 434.351L118.232 434.582L118.001 434.813L117.77 435.045L117.539 435.276L117.307 435.507L117.076 435.738L117.076 435.738L116.852 435.969L116.643 436.201L116.448 436.432L116.267 436.663L116.101 436.894L115.949 437.125L115.812 437.357L115.689 437.588L115.581 437.819L115.487 438.05L115.407 438.281L115.342 438.512L115.292 438.744L115.256 438.975L115.234 439.206L115.227 439.437L115.234 439.668L115.256 439.9L115.292 440.131L115.342 440.362L115.407 440.593L115.487 440.824L115.581 441.056L115.689 441.287L115.812 441.518L115.949 441.749L116.101 441.98L116.267 442.212L116.448 442.443L116.643 442.674L116.852 442.905L117.076 443.136L117.076 443.136L117.308 443.369L117.542 443.602L117.778 443.838L118.016 444.076L118.255 444.315L118.496 444.556L118.739 444.799L118.984 445.044L119.23 445.29L119.479 445.539L119.729 445.789L119.981 446.041L120.234 446.295L120.49 446.55L120.747 446.808L121.007 447.067L121.268 447.328L121.53 447.591L121.795 447.855L122.061 448.122L122.33 448.39L122.6 448.66L122.872 448.932L123.145 449.205L123.421 449.481L123.698 449.758L123.977 450.037L124.258 450.318L124.541 450.601L124.825 450.885L125.111 451.171L125.399 451.46L125.399 451.46L125.687 451.747L125.97 452.03L126.25 452.31L126.526 452.587L126.799 452.859L127.068 453.128L127.334 453.394L127.596 453.656L127.854 453.914L128.109 454.169L128.36 454.42L128.607 454.667L128.851 454.911L129.091 455.151L129.328 455.388L129.561 455.621L129.79 455.85L130.016 456.076L130.238 456.298L130.457 456.517L130.672 456.732L130.883 456.943L131.091 457.151L131.295 457.355L131.495 457.556L131.692 457.752L131.886 457.946L132.075 458.135L132.261 458.321L132.444 458.504L132.622 458.683L132.798 458.858L132.798 458.858L132.966 459.029L133.123 459.194L133.269 459.354L133.405 459.508L133.529 459.657L133.643 459.801L133.746 459.939L133.838 460.072L133.919 460.199L133.99 460.321L134.049 460.437L134.098 460.548L134.136 460.654L134.163 460.754L134.179 460.849L134.185 460.939L134.179 461.023L134.163 461.101L134.136 461.174L134.098 461.242L134.049 461.304L133.99 461.361L133.919 461.413L133.838 461.459L133.746 461.499L133.643 461.535L133.529 461.564L133.405 461.589L133.269 461.608L133.123 461.621L132.966 461.629L132.798 461.632L132.798 461.632L132.624 461.632L132.451 461.632L132.277 461.632L132.104 461.632L131.931 461.632L131.757 461.632L131.584 461.632L131.41 461.632L131.237 461.632L131.064 461.632L130.89 461.632L130.717 461.632L130.543 461.632L130.37 461.632L130.197 461.632L130.023 461.632L129.85 461.632L129.677 461.632L129.503 461.632L129.33 461.632L129.156 461.632L128.983 461.632L128.81 461.632L128.636 461.632L128.463 461.632L128.289 461.632L128.116 461.632L127.943 461.632L127.769 461.632L127.596 461.632L127.422 461.632L127.249 461.632L127.249 461.632L127.076 461.632L126.906 461.632L126.737 461.632L126.57 461.632L126.405 461.632L126.241 461.632L126.079 461.632L125.92 461.632L125.762 461.632L125.605 461.632L125.451 461.632L125.298 461.632L125.147 461.632L124.998 461.632L124.851 461.632L124.706 461.632L124.562 461.632L124.42 461.632L124.28 461.632L124.142 461.632L124.006 461.632L123.871 461.632L123.739 461.632L123.608 461.632L123.478 461.632L123.351 461.632L123.226 461.632L123.102 461.632L122.98 461.632L122.86 461.632L122.742 461.632L122.625 461.632L122.625 461.632L122.509 461.63L122.394 461.625L122.278 461.616L122.163 461.603L122.047 461.587L121.931 461.567L121.816 461.544L121.7 461.517L121.585 461.486L121.469 461.452L121.353 461.414L121.238 461.372L121.122 461.327L121.007 461.278L120.891 461.226L120.775 461.17L120.66 461.11L120.544 461.047L120.429 460.98L120.313 460.91L120.197 460.836L120.082 460.758L119.966 460.677L119.851 460.592L119.735 460.503L119.619 460.411L119.504 460.315L119.388 460.216L119.273 460.113L119.157 460.007L119.041 459.896L118.926 459.783L118.926 459.783L118.81 459.667L118.695 459.551L118.579 459.436L118.463 459.32L118.348 459.205L118.232 459.089L118.117 458.973L118.001 458.858L117.885 458.742L117.77 458.627L117.654 458.511L117.539 458.395L117.423 458.28L117.307 458.164L117.192 458.049L117.076 457.933L116.961 457.817L116.845 457.702L116.729 457.586L116.614 457.471L116.498 457.355L116.383 457.239L116.267 457.124L116.151 457.008L116.036 456.893L115.92 456.777L115.805 456.661L115.689 456.546L115.573 456.43L115.458 456.315L115.342 456.199L115.227 456.083L115.227 456.083L115.109 455.966L114.988 455.845L114.864 455.72L114.735 455.592L114.604 455.46L114.468 455.325L114.329 455.186L114.186 455.043L114.04 454.897L113.89 454.747L113.737 454.593L113.579 454.436L113.419 454.275L113.254 454.111L113.086 453.943L112.915 453.772L112.74 453.596L112.561 453.417L112.378 453.235L112.192 453.049L112.003 452.859L111.809 452.666L111.612 452.469L111.412 452.269L111.208 452.065L111 451.857L110.789 451.646L110.574 451.431L110.355 451.212L110.133 450.99L109.907 450.764L109.678 450.535L109.678 450.535L109.447 450.311L109.216 450.101L108.984 449.906L108.753 449.726L108.522 449.559L108.291 449.408L108.06 449.27L107.828 449.148L107.597 449.039L107.366 448.945L107.135 448.866L106.904 448.801L106.672 448.75L106.441 448.714L106.21 448.692L105.979 448.685L105.748 448.692L105.516 448.714L105.285 448.75L105.054 448.801L104.823 448.866L104.592 448.945L104.36 449.039L104.129 449.148L103.898 449.27L103.667 449.408L103.436 449.559L103.204 449.726L102.973 449.906L102.742 450.101L102.511 450.311L102.28 450.535L102.28 450.535L102.05 450.764L101.824 450.99L101.602 451.212L101.384 451.431L101.169 451.646L100.958 451.857L100.75 452.065L100.546 452.269L100.345 452.469L100.148 452.666L99.955 452.859L99.7654 453.049L99.5794 453.235L99.3969 453.417L99.2181 453.596L99.0429 453.772L98.8713 453.943L98.7033 454.111L98.539 454.275L98.3782 454.436L98.2211 454.593L98.0675 454.747L97.9176 454.897L97.7713 455.043L97.6286 455.186L97.4895 455.325L97.3541 455.46L97.2222 455.592L97.094 455.72L96.9694 455.845L96.8483 455.966L96.7309 456.083L96.7309 456.083L96.6153 456.199L96.4997 456.315L96.3841 456.43L96.2685 456.546L96.1529 456.661L96.0373 456.777L95.9217 456.893L95.8061 457.008L95.6905 457.124L95.5749 457.239L95.4593 457.355L95.3438 457.471L95.2282 457.586L95.1126 457.702L94.997 457.817L94.8814 457.933L94.7658 458.049L94.6502 458.164L94.5346 458.28L94.419 458.395L94.3034 458.511L94.1878 458.627L94.0722 458.742L93.9566 458.858L93.841 458.973L93.7254 459.089L93.6098 459.205L93.4942 459.32L93.3786 459.436L93.263 459.551L93.1474 459.667L93.0318 459.783L93.0318 459.783L92.9162 459.896L92.8006 460.007L92.685 460.113L92.5694 460.216L92.4538 460.315L92.3382 460.411L92.2226 460.503L92.107 460.592L91.9914 460.677L91.8758 460.758L91.7602 460.836L91.6446 460.91L91.529 460.98L91.4134 461.047L91.2978 461.11L91.1822 461.17L91.0666 461.226L90.951 461.278L90.8354 461.327L90.7198 461.372L90.6042 461.414L90.4886 461.452L90.373 461.486L90.2574 461.517L90.1418 461.544L90.0262 461.567L89.9106 461.587L89.795 461.603L89.6794 461.616L89.5638 461.625L89.4482 461.63L89.3326 461.632L89.3326 461.632L89.2161 461.632L89.0978 461.632L88.9777 461.632L88.8558 461.632L88.7321 461.632L88.6065 461.632L88.4792 461.632L88.35 461.632L88.2191 461.632L88.0863 461.632L87.9518 461.632L87.8154 461.632L87.6772 461.632L87.5372 461.632L87.3954 461.632L87.2519 461.632L87.1065 461.632L86.9592 461.632L86.8102 461.632L86.6594 461.632L86.5068 461.632L86.3524 461.632L86.1961 461.632L86.0381 461.632L85.8782 461.632L85.7166 461.632L85.5531 461.632L85.3878 461.632L85.2208 461.632L85.0519 461.632L84.8812 461.632L84.7087 461.632L84.7087 461.632L84.5353 461.632L84.3619 461.632L84.1885 461.632L84.0151 461.632L83.8417 461.632L83.6683 461.632L83.4949 461.632L83.3215 461.632L83.1481 461.632L82.9747 461.632L82.8013 461.632L82.6279 461.632L82.4545 461.632L82.2811 461.632L82.1077 461.632L81.9343 461.632L81.7609 461.632L81.5875 461.632L81.4141 461.632L81.2407 461.632L81.0673 461.632L80.8939 461.632L80.7205 461.632L80.5471 461.632L80.3737 461.632L80.2003 461.632L80.0269 461.632L79.8535 461.632L79.6802 461.632L79.5068 461.632L79.3334 461.632L79.16 461.632L79.16 461.632L78.992 461.629L78.8348 461.621L78.6885 461.608L78.5531 461.589L78.4284 461.564L78.3146 461.535L78.2117 461.499L78.1196 461.459L78.0383 461.413L77.9678 461.361L77.9082 461.304L77.8595 461.242L77.8215 461.174L77.7945 461.101L77.7782 461.023L77.7728 460.939L77.7782 460.849L77.7945 460.754L77.8215 460.654L77.8595 460.548L77.9082 460.437L77.9678 460.321L78.0383 460.199L78.1196 460.072L78.2117 459.939L78.3146 459.801L78.4284 459.657L78.5531 459.508L78.6885 459.354L78.8348 459.194L78.992 459.029L79.16 458.858L79.16 458.858L79.3352 458.683L79.514 458.504L79.6964 458.321L79.8824 458.135L80.0721 457.946L80.2654 457.752L80.4622 457.556L80.6627 457.355L80.8668 457.151L81.0746 456.943L81.2859 456.732L81.5008 456.517L81.7194 456.298L81.9415 456.076L82.1673 455.85L82.3967 455.621L82.6297 455.388L82.8663 455.151L83.1066 454.911L83.3504 454.667L83.5979 454.42L83.8489 454.169L84.1036 453.914L84.3619 453.656L84.6238 453.394L84.8893 453.128L85.1584 452.859L85.4312 452.587L85.7075 452.31L85.9875 452.03L86.2711 451.747L86.5583 451.46L86.5583 451.46L86.8464 451.171L87.1326 450.885L87.4171 450.601L87.6998 450.318L87.9807 450.037L88.2597 449.758L88.537 449.481L88.8124 449.205L89.0861 448.932L89.3579 448.66L89.6279 448.39L89.8962 448.122L90.1626 447.855L90.4272 447.591L90.69 447.328L90.951 447.067L91.2102 446.808L91.4676 446.55L91.7232 446.295L91.9769 446.041L92.2289 445.789L92.4791 445.539L92.7274 445.29L92.974 445.044L93.2187 444.799L93.4617 444.556L93.7028 444.315L93.9421 444.076L94.1796 443.838L94.4153 443.602L94.6493 443.369L94.8814 443.136L94.8814 443.136L95.1053 442.905L95.3149 442.674L95.5099 442.443L95.6905 442.212L95.8567 441.98L96.0084 441.749L96.1457 441.518L96.2685 441.287L96.3769 441.056L96.4708 440.824L96.5503 440.593L96.6153 440.362L96.6659 440.131L96.702 439.9L96.7237 439.668L96.7309 439.437L96.7237 439.206L96.702 438.975L96.6659 438.744L96.6153 438.512L96.5503 438.281L96.4708 438.05L96.3769 437.819L96.2685 437.588L96.1457 437.357L96.0084 437.125L95.8567 436.894L95.6905 436.663L95.5099 436.432L95.3149 436.201L95.1053 435.969L94.8814 435.738L94.8814 435.738L94.6493 435.506L94.4153 435.272L94.1796 435.036L93.9421 434.799L93.7028 434.56L93.4617 434.318L93.2187 434.076L92.974 433.831L92.7274 433.584L92.4791 433.336L92.2289 433.086L91.9769 432.834L91.7232 432.58L91.4676 432.324L91.2102 432.067L90.951 431.808L90.69 431.547L90.4272 431.284L90.1626 431.019L89.8962 430.753L89.6279 430.485L89.3579 430.215L89.0861 429.943L88.8124 429.669L88.537 429.394L88.2597 429.117L87.9807 428.837L87.6998 428.557L87.4171 428.274L87.1326 427.989L86.8464 427.703L86.5583 427.415L86.5583 427.415L86.2711 427.128L85.9875 426.844L85.7075 426.564L85.4312 426.288L85.1584 426.015L84.8893 425.746L84.6238 425.481L84.3619 425.219L84.1036 424.96L83.8489 424.706L83.5979 424.455L83.3504 424.207L83.1066 423.963L82.8663 423.723L82.6297 423.486L82.3967 423.253L82.1673 423.024L81.9415 422.798L81.7194 422.576L81.5008 422.358L81.2859 422.143L81.0746 421.931L80.8668 421.724L80.6627 421.52L80.4622 421.319L80.2654 421.122L80.0721 420.929L79.8824 420.739L79.6964 420.553L79.514 420.371L79.3352 420.192L79.16 420.017L79.16 420.017L78.992 419.846L78.8348 419.681L78.6885 419.521L78.5531 419.366L78.4284 419.217L78.3146 419.074L78.2117 418.936L78.1196 418.803L78.0383 418.676L77.9678 418.554L77.9082 418.437L77.8595 418.326L77.8215 418.22L77.7945 418.12L77.7782 418.025L77.7728 417.936L77.7782 417.852L77.7945 417.773L77.8215 417.7L77.8595 417.633L77.9082 417.57L77.9678 417.513L78.0383 417.462L78.1196 417.416L78.2117 417.375L78.3146 417.34L78.4284 417.31L78.5531 417.286L78.6885 417.267L78.8348 417.253L78.992 417.245L79.16 417.242L79.16 417.242L79.3334 417.242L79.5068 417.242L79.6802 417.242L79.8535 417.242L80.0269 417.242L80.2003 417.242L80.3737 417.242L80.5471 417.242L80.7205 417.242L80.8939 417.242L81.0673 417.242L81.2407 417.242L81.4141 417.242L81.5875 417.242L81.7609 417.242L81.9343 417.242L82.1077 417.242L82.2811 417.242L82.4545 417.242L82.6279 417.242L82.8013 417.242L82.9747 417.242L83.1481 417.242L83.3215 417.242L83.4949 417.242L83.6683 417.242L83.8417 417.242L84.0151 417.242L84.1885 417.242L84.3619 417.242L84.5353 417.242L84.7087 417.242L84.7087 417.242L84.8812 417.242L85.0519 417.242L85.2208 417.242L85.3878 417.242L85.5531 417.242L85.7166 417.242L85.8782 417.242L86.0381 417.242L86.1961 417.242L86.3524 417.242L86.5068 417.242L86.6594 417.242L86.8102 417.242L86.9592 417.242L87.1065 417.242L87.2519 417.242L87.3954 417.242L87.5372 417.242L87.6772 417.242L87.8154 417.242L87.9518 417.242L88.0863 417.242L88.2191 417.242L88.35 417.242L88.4792 417.242L88.6065 417.242L88.7321 417.242L88.8558 417.242L88.9777 417.242L89.0978 417.242L89.2161 417.242L89.3326 417.242L89.3326 417.242L89.4482 417.244L89.5638 417.25L89.6794 417.259L89.795 417.271L89.9106 417.288L90.0262 417.307L90.1418 417.331L90.2574 417.358L90.373 417.389L90.4886 417.423L90.6042 417.461L90.7198 417.502L90.8354 417.548L90.951 417.596L91.0666 417.649L91.1822 417.705L91.2978 417.764L91.4134 417.828L91.529 417.894L91.6446 417.965L91.7602 418.039L91.8758 418.117L91.9914 418.198L92.107 418.283L92.2226 418.371L92.3382 418.463L92.4538 418.559L92.5694 418.658L92.685 418.761L92.8006 418.868L92.9162 418.978L93.0318 419.092L93.0318 419.092L93.1474 419.208L93.263 419.323L93.3786 419.439L93.4942 419.554L93.6098 419.67L93.7254 419.786L93.841 419.901L93.9566 420.017L94.0722 420.132L94.1878 420.248L94.3034 420.364L94.419 420.479L94.5346 420.595L94.6502 420.71L94.7658 420.826L94.8814 420.942L94.997 421.057L95.1126 421.173L95.2282 421.288L95.3438 421.404L95.4593 421.52L95.5749 421.635L95.6905 421.751L95.8061 421.866L95.9217 421.982L96.0373 422.098L96.1529 422.213L96.2685 422.329L96.3841 422.444L96.4997 422.56L96.6153 422.676L96.7309 422.791L96.7309 422.791L96.8483 422.909L96.9694 423.03L97.094 423.154L97.2222 423.282L97.3541 423.414L97.4895 423.55L97.6286 423.689L97.7713 423.831L97.9176 423.978L98.0675 424.128L98.2211 424.281L98.3782 424.438L98.539 424.599L98.7033 424.764L98.8713 424.931L99.0429 425.103L99.2181 425.278L99.3969 425.457L99.5794 425.64L99.7654 425.826L99.955 426.015L100.148 426.208L100.345 426.405L100.546 426.606L100.75 426.81L100.958 427.018L101.169 427.229L101.384 427.444L101.602 427.662L101.824 427.885L102.05 428.11L102.28 428.34L102.28 428.34L102.511 428.564L102.742 428.773L102.973 428.968L103.204 429.149L103.436 429.315L103.667 429.467L103.898 429.604L104.129 429.727L104.36 429.835L104.592 429.929L104.823 430.009L105.054 430.074L105.285 430.124L105.516 430.161L105.748 430.182L105.979 430.189L106.21 430.182L106.441 430.161L106.672 430.124L106.904 430.074L107.135 430.009L107.366 429.929L107.597 429.835L107.828 429.727L108.06 429.604L108.291 429.467L108.522 429.315L108.753 429.149L108.984 428.968L109.216 428.773L109.447 428.564L109.678 428.34L109.678 428.34L109.907 428.11L110.133 427.885L110.355 427.662L110.574 427.444L110.789 427.229L111 427.018L111.208 426.81L111.412 426.606L111.612 426.405L111.809 426.208L112.003 426.015L112.192 425.826L112.378 425.64L112.561 425.457L112.74 425.278L112.915 425.103L113.086 424.931L113.254 424.764L113.419 424.599L113.579 424.438L113.737 424.281L113.89 424.128L114.04 423.978L114.186 423.831L114.329 423.689L114.468 423.55L114.604 423.414L114.735 423.282L114.864 423.154L114.988 423.03L115.109 422.909L115.227 422.791L115.227 422.791L115.342 422.676L115.458 422.56L115.573 422.444L115.689 422.329L115.805 422.213L115.92 422.098L116.036 421.982L116.151 421.866L116.267 421.751L116.383 421.635L116.498 421.52L116.614 421.404L116.729 421.288L116.845 421.173L116.961 421.057L117.076 420.942L117.192 420.826L117.307 420.71L117.423 420.595L117.539 420.479L117.654 420.364L117.77 420.248L117.885 420.132L118.001 420.017L118.117 419.901L118.232 419.786L118.348 419.67L118.463 419.554L118.579 419.439L118.695 419.323L118.81 419.208L118.926 419.092L118.926 419.092L119.041 418.978L119.157 418.868L119.273 418.761L119.388 418.658L119.504 418.559L119.619 418.463L119.735 418.371L119.851 418.283L119.966 418.198L120.082 418.117L120.197 418.039L120.313 417.965L120.429 417.894L120.544 417.828L120.66 417.764L120.775 417.705L120.891 417.649L121.007 417.596L121.122 417.548L121.238 417.502L121.353 417.461L121.469 417.423L121.585 417.389L121.7 417.358L121.816 417.331L121.931 417.307L122.047 417.288L122.163 417.271L122.278 417.259L122.394 417.25L122.509 417.244L122.625 417.242L122.625 417.242L122.742 417.242L122.86 417.242L122.98 417.242L123.102 417.242L123.226 417.242L123.351 417.242L123.478 417.242L123.608 417.242L123.739 417.242L123.871 417.242L124.006 417.242L124.142 417.242L124.28 417.242L124.42 417.242L124.562 417.242L124.706 417.242L124.851 417.242L124.998 417.242L125.147 417.242L125.298 417.242L125.451 417.242L125.605 417.242L125.762 417.242L125.92 417.242L126.079 417.242L126.241 417.242L126.405 417.242L126.57 417.242L126.737 417.242L126.906 417.242L127.076 417.242L127.249 417.242L127.249 417.242L127.422 417.242L127.596 417.242L127.769 417.242L127.943 417.242L128.116 417.242L128.289 417.242L128.463 417.242L128.636 417.242L128.81 417.242L128.983 417.242L129.156 417.242L129.33 417.242L129.503 417.242L129.677 417.242L129.85 417.242L130.023 417.242L130.197 417.242L130.37 417.242L130.543 417.242L130.717 417.242L130.89 417.242L131.064 417.242L131.237 417.242L131.41 417.242L131.584 417.242L131.757 417.242L131.931 417.242L132.104 417.242L132.277 417.242L132.451 417.242L132.624 417.242L132.798 417.242L132.798 417.242L132.966 417.245L133.123 417.253L133.269 417.267L133.405 417.286L133.529 417.31L133.643 417.34L133.746 417.375L133.838 417.416L133.919 417.462L133.99 417.513L134.049 417.57L134.098 417.633L134.136 417.7L134.163 417.773L134.179 417.852L134.185 417.936L134.179 418.025L134.163 418.12L134.136 418.22L134.098 418.326L134.049 418.437L133.99 418.554L133.919 418.676L133.838 418.803L133.746 418.936L133.643 419.074L133.529 419.217L133.405 419.366L133.269 419.521L133.123 419.681L132.966 419.846L132.798 420.017L132.798 420.017L132.622 420.193L132.44 420.374L132.253 420.561L132.061 420.754L131.863 420.951L131.66 421.155L131.451 421.363L131.237 421.577L131.018 421.797L130.793 422.022L130.562 422.252L130.327 422.488L130.086 422.729L129.839 422.975L129.587 423.227L129.33 423.485L129.067 423.747L128.799 424.016L128.525 424.289L128.246 424.568L127.961 424.853L127.672 425.143L127.376 425.438L127.076 425.739L126.769 426.045L126.458 426.357L126.141 426.674L125.818 426.996L125.491 427.324L125.157 427.657L124.819 427.996L124.475 428.34"/>
<path class="l5" d="M564.674 189.744L568.373 187.895L564.674 186.045L564.674 189.744"/>
<path class="l5" d="M566.523 163.85L570.222 163.85L570.222 167.55L566.523 167.55L566.523 163.85z"/>
<path class="l5" d="M536.93 186.045L540.629 186.045L540.629 189.744L536.93 189.744L536.93 186.045z"/>
<path class="l5" d="M566.523 208.24L570.222 208.24L570.222 211.939L566.523 211.939L566.523 208.24z"/>
<path class="l5" d="M568.315 187.837L568.431 187.837L568.431 187.953L568.315 187.953L568.315 187.837z"/>
<path class="l5" d="M566.523 89.8674L570.222 89.8674L570.222 93.5665L566.523 93.5665L566.523 89.8674z"/>
<path class="l5" d="M566.523 134.257L570.222 134.257L570.222 137.956L566.523 137.956L566.523 134.257z"/>
<path class="l5" d="M515.66 149.979L517.51 149.979L517.51 151.828L515.66 151.828L515.66 149.979z"/>
<path class="l5" d="M397.287 61.1989L399.137 61.1989L399.137 63.0485L397.287 63.0485L397.287 61.1989z"/>
<path class="l6" d="M298.335 439.437L886.5 439.437"/>
<path class="l6" d="M13.5 439.437L61.589 439.437"/>
<path class="l1" d="M568.373 210.09L568.373 254.48"/>
<path class="l1" d="M398.212 210.09L398.212 254.48"/>
<path class="l1" d="M568.373 187.895L620.161 187.895"/>
<path class="l1" d="M620.161 187.895L620.161 254.48"/>
<path class="l1" d="M568.373 62.1237L568.373 91.7169"/>
<path class="l1" d="M398.212 62.1237L398.212 165.7"/>
<path class="l1" d="M398.212 62.1237L568.373 62.1237"/>
<path class="l1" d="M568.373 150.903L568.373 165.7"/>
<path class="l1" d="M516.585 187.895L538.78 187.895"/>
<path class="l1" d="M516.585 150.903L516.585 187.895"/>
<path class="l1" d="M516.585 150.903L568.373 150.903"/>
<path class="l1" d="M568.373 136.107L568.373 150.903"/>
<circle class="l1" cx="568.373" cy="150.903" r="2.73737"/>
<circle class="l1" cx="568.373" cy="150.903" r="2.73737"/>
<circle class="l1" cx="568.373" cy="150.903" r="2.73737"/>
</svg>
