<svg xmlns="http://www.w3.org/2000/svg" xmlns:xlink="http://www.w3.org/1999/xlink" width="900" height="532" version="1.1">
<style type="text/css">
.l0{
  fill: #ffffff;
  stroke: #ffffff;
  stroke-linecap:round;
  stroke-linejoin:round;
  stroke-width: 0.494958;
}
.l1{
  fill: #0044ee;
  stroke: #0044ee;
  stroke-linecap:round;
  stroke-linejoin:round;
  stroke-width: 0.494958;
}
.l2{
  fill: #aaaaaa; fill-opacity: 0.2;
  stroke: #aaaaaa;
  stroke-linecap:round;
  stroke-linejoin:round;
  stroke-width: 0.494958;
}
.l3{
  fill: #222222; fill-opacity: 0.5;
  stroke: #222222;
  stroke-linecap:round;
  stroke-linejoin:round;
  stroke-width: 0.494958;
}
.l4{
  fill: #229900;
  stroke: #229900;
  stroke-linecap:round;
  stroke-linejoin:round;
  stroke-width: 0.494958;
}
.l5{
  fill: #bb2200;
  stroke: #bb2200;
  stroke-linecap:round;
  stroke-linejoin:round;
  stroke-width: 0.494958;
}
.l6{
  fill: #00ccee; fill-opacity: 0.5;
  stroke: #00ccee;
  stroke-linecap:round;
  stroke-linejoin:round;
  stroke-width: 0.494958;
}
.l7{
  fill: #ff0000; fill-opacity: 0.5;
  stroke: #ff0000;
  stroke-linecap:round;
  stroke-linejoin:round;
  stroke-width: 0.494958;
}
.l8{
  fill: #888800; fill-opacity: 0.5;
  stroke: #888800;
  stroke-linecap:round;
  stroke-linejoin:round;
  stroke-width: 0.494958;
}
.l9{
  fill: #00aaaa; fill-opacity: 0.5;
  stroke: #00aaaa;
  stroke-linecap:round;
  stroke-linejoin:round;
  stroke-width: 0.494958;
}
.l10{
  fill: #880088;
  stroke: #880088;
  stroke-linecap:round;
  stroke-linejoin:round;
  stroke-width: 0.494958;
}
.l11{
  fill: #00ff00; fill-opacity: 0.5;
  stroke: #00ff00;
  stroke-linecap:round;
  stroke-linejoin:round;
  stroke-width: 0.494958;
}
.l12{
  fill: #0000cc; fill-opacity: 0.5;
  stroke: #0000cc;
  stroke-linecap:round;
  stroke-linejoin:round;
  stroke-width: 0.494958;
}
.l13{
  fill: #666600; fill-opacity: 0.5;
  stroke: #666600;
  stroke-linecap:round;
  stroke-linejoin:round;
  stroke-width: 0.494958;
}
.l14{
  fill: #557755; fill-opacity: 0.2;
  stroke: #557755;
  stroke-linecap:round;
  stroke-linejoin:round;
  stroke-width: 0.494958;
}
.l15{
  fill: #aa2222; fill-opacity: 0.5;
  stroke: #aa2222;
  stroke-linecap:round;
  stroke-linejoin:round;
  stroke-width: 0.494958;
}
.l16{
  fill: #7ccc40; fill-opacity: 0.5;
  stroke: #7ccc40;
  stroke-linecap:round;
  stroke-linejoin:round;
  stroke-width: 0.494958;
}
.l17{
  fill: #00ffcc; fill-opacity: 0.2;
  stroke: #00ffcc;
  stroke-linecap:round;
  stroke-linejoin:round;
  stroke-width: 0.494958;
}
.l18{
  fill: #ce0097; fill-opacity: 0.5;
  stroke: #ce0097;
  stroke-linecap:round;
  stroke-linejoin:round;
  stroke-width: 0.494958;
}
.l19{
  fill: #d2d46b; fill-opacity: 0.2;
  stroke: #d2d46b;
  stroke-linecap:round;
  stroke-linejoin:round;
  stroke-width: 0.494958;
}
.l20{
  fill: #ef6158; fill-opacity: 0.2;
  stroke: #ef6158;
  stroke-linecap:round;
  stroke-linejoin:round;
  stroke-width: 0.494958;
}
.l21{
  fill: #fdb200; fill-opacity: 0.2;
  stroke: #fdb200;
  stroke-linecap:round;
  stroke-linejoin:round;
  stroke-width: 0.494958;
}
text {font-family: Sans-Serif;}
</style>
<rect class="l0" x="0" y="0" width="900" height="532"/>
<text fill="#0044ee"  xml:space="preserve" font-size="4.76627" transform="translate(590.926, 454.562)" >GND</text>
<text fill="#0044ee"  xml:space="preserve" font-size="4.76627" transform="translate(425.94, 454.562)" >GND</text>
<text fill="#0044ee"  xml:space="preserve" font-size="4.76627" transform="translate(623.006, 454.562)" >GND</text>
<text fill="#0044ee"  xml:space="preserve" font-size="7.86434" transform="translate(400.065, 332.204)" >v_dd</text>
<text fill="#0044ee"  xml:space="preserve" font-size="6.43446" transform="translate(493.85, 381.671)" >vf1</text>
<text fill="#0044ee"  xml:space="preserve" font-size="6.43446" transform="translate(561.594, 381.671)" >vr1</text>
<text fill="#0044ee"  xml:space="preserve" font-size="4.76627" transform="translate(820.073, 454.562)" >GND</text>
<text fill="#0044ee"  xml:space="preserve" font-size="4.76627" transform="translate(852.154, 454.562)" >GND</text>
<text fill="#0044ee"  xml:space="preserve" font-size="4.76627" transform="translate(765.078, 454.562)" >GND</text>
<text fill="#0044ee"  xml:space="preserve" font-size="6.43446" transform="translate(699.665, 404.586)" >v_gs</text>
<text fill="#0044ee"  xml:space="preserve" font-size="4.76627" transform="translate(590.926, 243.747)" >GND</text>
<text fill="#0044ee"  xml:space="preserve" font-size="4.76627" transform="translate(623.006, 243.747)" >GND</text>
<text fill="#0044ee"  xml:space="preserve" font-size="7.86434" transform="translate(400.065, 121.388)" >v_dd</text>
<text fill="#0044ee"  xml:space="preserve" font-size="4.76627" transform="translate(820.073, 243.747)" >GND</text>
<text fill="#0044ee"  xml:space="preserve" font-size="4.76627" transform="translate(852.154, 243.747)" >GND</text>
<text fill="#0044ee"  xml:space="preserve" font-size="4.76627" transform="translate(490.101, 243.747)" >GND</text>
<text fill="#0044ee"  xml:space="preserve" font-size="4.76627" transform="translate(719.248, 243.747)" >GND</text>
<text fill="#0044ee"  xml:space="preserve" font-size="6.43446" transform="translate(442.186, 193.77)" >vmeas1</text>
<text fill="#0044ee"  xml:space="preserve" font-size="6.43446" transform="translate(671.333, 193.77)" >vmeas2</text>
<text fill="#222222"  xml:space="preserve" font-size="7.1494" transform="translate(48.992, 445.269)" >MODEL</text>
<text fill="#222222"  xml:space="preserve" font-size="7.1494" style="font-family:Monospace;" transform="translate(53.575, 456.726)" >.lib cornerMOSlv.lib mos_tt</text>
<text fill="#222222"  xml:space="preserve" font-size="7.1494" transform="translate(48.992, 14.4717)" >NGSPICE</text>
<text fill="#222222"  xml:space="preserve" font-size="7.1494" style="font-family:Monospace;" transform="translate(53.575, 34.1294)" >.param temp=27</text>
<text fill="#222222"  xml:space="preserve" font-size="7.1494" style="font-family:Monospace;" transform="translate(53.575, 42.3297)" >.options savecurrents reltol=1e-3 abstol=1e-12 gmin=1e-15</text>
<text fill="#222222"  xml:space="preserve" font-size="7.1494" style="font-family:Monospace;" transform="translate(53.575, 50.5301)" >.control</text>
<text fill="#222222"  xml:space="preserve" font-size="7.1494" style="font-family:Monospace;" transform="translate(53.575, 58.7305)" >save all</text>
<text fill="#222222"  xml:space="preserve" font-size="7.1494" style="font-family:Monospace;" transform="translate(53.575, 75.1312)" >* Operating Point Analysis</text>
<text fill="#222222"  xml:space="preserve" font-size="7.1494" style="font-family:Monospace;" transform="translate(53.575, 83.3316)" >op</text>
<text fill="#222222"  xml:space="preserve" font-size="7.1494" style="font-family:Monospace;" transform="translate(53.575, 91.5319)" >remzerovec</text>
<text fill="#222222"  xml:space="preserve" font-size="7.1494" style="font-family:Monospace;" transform="translate(53.575, 99.7323)" >write mosfet_diode_loopgain.raw</text>
<text fill="#222222"  xml:space="preserve" font-size="7.1494" style="font-family:Monospace;" transform="translate(53.575, 107.933)" >set appendwrite</text>
<text fill="#222222"  xml:space="preserve" font-size="7.1494" style="font-family:Monospace;" transform="translate(53.575, 124.333)" >* AC Analysis</text>
<text fill="#222222"  xml:space="preserve" font-size="7.1494" style="font-family:Monospace;" transform="translate(53.575, 132.534)" >ac dec 1001 10k 100G</text>
<text fill="#222222"  xml:space="preserve" font-size="7.1494" style="font-family:Monospace;" transform="translate(53.575, 140.734)" >remzerovec</text>
<text fill="#222222"  xml:space="preserve" font-size="7.1494" style="font-family:Monospace;" transform="translate(53.575, 148.934)" >write mosfet_diode_loopgain.raw</text>
<text fill="#222222"  xml:space="preserve" font-size="7.1494" style="font-family:Monospace;" transform="translate(53.575, 157.135)" >set appendwrite</text>
<text fill="#222222"  xml:space="preserve" font-size="7.1494" style="font-family:Monospace;" transform="translate(53.575, 173.536)" >* Middlebrook's Method</text>
<text fill="#222222"  xml:space="preserve" font-size="7.1494" style="font-family:Monospace;" transform="translate(53.575, 181.736)" >let tv=-v(vr1)/v(vf1)</text>
<text fill="#222222"  xml:space="preserve" font-size="7.1494" style="font-family:Monospace;" transform="translate(53.575, 189.936)" >let ti=-i(vir1)/i(vif1)</text>
<text fill="#222222"  xml:space="preserve" font-size="7.1494" style="font-family:Monospace;" transform="translate(53.575, 198.137)" >let tmb=(tv*ti - 1)/(tv + ti + 2)</text>
<text fill="#222222"  xml:space="preserve" font-size="7.1494" style="font-family:Monospace;" transform="translate(53.575, 214.537)" >plot db(tmb) ylabel 'Magnitude - Middlebrook'</text>
<text fill="#222222"  xml:space="preserve" font-size="7.1494" style="font-family:Monospace;" transform="translate(53.575, 222.738)" >plot 180/pi*cphase(tmb) ylabel 'Phase - Middlebrook'</text>
<text fill="#222222"  xml:space="preserve" font-size="7.1494" style="font-family:Monospace;" transform="translate(53.575, 239.138)" >* Tian's Method</text>
<text fill="#222222"  xml:space="preserve" font-size="7.1494" style="font-family:Monospace;" transform="translate(53.575, 247.339)" >* vtest=0, itest=1:</text>
<text fill="#222222"  xml:space="preserve" font-size="7.1494" style="font-family:Monospace;" transform="translate(53.575, 255.539)" >let A=i(Vimeas2)</text>
<text fill="#222222"  xml:space="preserve" font-size="7.1494" style="font-family:Monospace;" transform="translate(53.575, 263.74)" >let C=v(vmeas2)</text>
<text fill="#222222"  xml:space="preserve" font-size="7.1494" style="font-family:Monospace;" transform="translate(53.575, 280.14)" >* vtest=1, itest=0:</text>
<text fill="#222222"  xml:space="preserve" font-size="7.1494" style="font-family:Monospace;" transform="translate(53.575, 288.341)" >let B=i(Vimeas1)</text>
<text fill="#222222"  xml:space="preserve" font-size="7.1494" style="font-family:Monospace;" transform="translate(53.575, 296.541)" >let D=v(vmeas1)</text>
<text fill="#222222"  xml:space="preserve" font-size="7.1494" style="font-family:Monospace;" transform="translate(53.575, 304.741)" >let ttian=(A*D-B*C-A)/(2*(B*C-A*D)+A-D+1)</text>
<text fill="#222222"  xml:space="preserve" font-size="7.1494" style="font-family:Monospace;" transform="translate(53.575, 321.142)" >plot db(ttian) ylabel 'Magnitude - Tian'</text>
<text fill="#222222"  xml:space="preserve" font-size="7.1494" style="font-family:Monospace;" transform="translate(53.575, 329.342)" >plot 180/pi*cphase(ttian) ylabel 'Phase - Tian'</text>
<text fill="#222222"  xml:space="preserve" font-size="7.1494" style="font-family:Monospace;" transform="translate(53.575, 345.743)" >* Middlebrook vs. Tian</text>
<text fill="#222222"  xml:space="preserve" font-size="7.1494" style="font-family:Monospace;" transform="translate(53.575, 353.943)" >plot db(tmb) db(ttian) ylabel 'Magnitude'</text>
<text fill="#222222"  xml:space="preserve" font-size="7.1494" style="font-family:Monospace;" transform="translate(53.575, 362.144)" >plot 180/pi*cphase(tmb) 180/pi*cphase(ttian) ylabel 'Phase'</text>
<text fill="#222222"  xml:space="preserve" font-size="7.1494" style="font-family:Monospace;" transform="translate(53.575, 378.545)" >write mosfet_diode_loopgain.raw</text>
<text fill="#222222"  xml:space="preserve" font-size="7.1494" style="font-family:Monospace;" transform="translate(53.575, 394.945)" >*quit</text>
<text fill="#222222"  xml:space="preserve" font-size="7.1494" style="font-family:Monospace;" transform="translate(53.575, 403.146)" >.endc</text>
<text fill="#222222"  xml:space="preserve" font-size="4.76627" transform="translate(431.668, 402.431)" >Vdd</text>
<text fill="#222222"  xml:space="preserve" font-size="4.76627" transform="translate(431.668, 413.889)" >1.5</text>
<text fill="#222222"  xml:space="preserve" font-size="9.53253" transform="translate(200.229, 518.468)" >         mosfet_diode_loopgain.sch</text>
<text fill="#222222"  xml:space="preserve" font-size="9.53253" transform="translate(200.229, 504.72)" >(c) 2024 H. Pretl, S. Dorrer, Apache-2.0 license</text>
<text fill="#222222"  xml:space="preserve" font-size="9.53253" transform="translate(457.991, 504.72)" >2025-03-16  12:13:05</text>
<text fill="#222222"  xml:space="preserve" font-size="23.8313" transform="translate(94.8215, 517.703)" >SCHEM</text>
<text fill="#222222"  xml:space="preserve" font-size="4.76627" transform="translate(573.614, 397.275)" >M1</text>
<text fill="#ff0000"  xml:space="preserve" font-size="3.5747" transform="translate(570.74, 405.359)" >G</text>
<text fill="#222222"  xml:space="preserve" font-size="4.76627" transform="translate(592.071, 419.879)" >sg13_lv_nmos</text>
<text fill="#666600"  xml:space="preserve" font-size="4.76627" transform="translate(592.644, 413.889)" >m=1</text>
<text fill="#666600"  xml:space="preserve" font-size="4.76627" transform="translate(592.644, 409.879)" >ng=1</text>
<text fill="#666600"  xml:space="preserve" font-size="4.76627" transform="translate(592.644, 404.15)" >l=0.13u</text>
<text fill="#666600"  xml:space="preserve" font-size="4.76627" transform="translate(592.644, 398.994)" >w=1u</text>
<text fill="#ff0000"  xml:space="preserve" font-size="3.5747" transform="translate(588.634, 417.963)" >S</text>
<text fill="#ff0000"  xml:space="preserve" font-size="3.5747" transform="translate(588.634, 397.822)" >D</text>
<text fill="#ff0000"  xml:space="preserve" font-size="3.5747" transform="translate(587.488, 405.359)" >B</text>
<text fill="#222222"  xml:space="preserve" font-size="4.76627" transform="translate(596.654, 360.612)" >Ibias1</text>
<text fill="#222222"  xml:space="preserve" font-size="4.76627" transform="translate(596.654, 366.079)" >20u</text>
<text fill="#222222"  xml:space="preserve" font-size="4.76627" transform="translate(532.811, 374.616) rotate(270)" >Vtest1</text>
<text fill="#222222"  xml:space="preserve" font-size="4.76627" transform="translate(544.268, 374.616) rotate(270)" >dc 0 ac 1</text>
<text fill="#222222"  xml:space="preserve" font-size="4.76627" transform="translate(802.761, 397.275)" >M2</text>
<text fill="#ff0000"  xml:space="preserve" font-size="3.5747" transform="translate(799.887, 405.359)" >G</text>
<text fill="#222222"  xml:space="preserve" font-size="4.76627" transform="translate(821.219, 419.879)" >sg13_lv_nmos</text>
<text fill="#666600"  xml:space="preserve" font-size="4.76627" transform="translate(821.792, 413.889)" >m=1</text>
<text fill="#666600"  xml:space="preserve" font-size="4.76627" transform="translate(821.792, 409.879)" >ng=1</text>
<text fill="#666600"  xml:space="preserve" font-size="4.76627" transform="translate(821.792, 404.15)" >l=0.13u</text>
<text fill="#666600"  xml:space="preserve" font-size="4.76627" transform="translate(821.792, 398.994)" >w=1u</text>
<text fill="#ff0000"  xml:space="preserve" font-size="3.5747" transform="translate(817.782, 417.963)" >S</text>
<text fill="#ff0000"  xml:space="preserve" font-size="3.5747" transform="translate(817.782, 397.822)" >D</text>
<text fill="#ff0000"  xml:space="preserve" font-size="3.5747" transform="translate(816.636, 405.359)" >B</text>
<text fill="#222222"  xml:space="preserve" font-size="4.76627" transform="translate(825.802, 360.612)" >Ibias2</text>
<text fill="#222222"  xml:space="preserve" font-size="4.76627" transform="translate(825.802, 366.079)" >20u</text>
<text fill="#222222"  xml:space="preserve" font-size="4.76627" transform="translate(792.009, 399.656) rotate(270)" >Vir1</text>
<text fill="#222222"  xml:space="preserve" font-size="4.76627" transform="translate(746.18, 399.656) rotate(270)" >Vif1</text>
<text fill="#222222"  xml:space="preserve" font-size="4.76627" transform="translate(728.475, 432.171)" >Itest1</text>
<text fill="#222222"  xml:space="preserve" font-size="4.76627" transform="translate(728.475, 437.638)" >dc 0 ac 1</text>
<text fill="#222222"  xml:space="preserve" font-size="9.53253" transform="translate(417.919, 47.7991)" >Annotate OP</text>
<text fill="#222222"  xml:space="preserve" font-size="9.53253" transform="translate(417.919, 20.3014)" >Simulate</text>
<text fill="#222222"  xml:space="preserve" font-size="4.76627" transform="translate(573.614, 186.46)" >M3</text>
<text fill="#ff0000"  xml:space="preserve" font-size="3.5747" transform="translate(570.74, 194.544)" >G</text>
<text fill="#222222"  xml:space="preserve" font-size="4.76627" transform="translate(592.071, 209.063)" >sg13_lv_nmos</text>
<text fill="#666600"  xml:space="preserve" font-size="4.76627" transform="translate(592.644, 203.073)" >m=1</text>
<text fill="#666600"  xml:space="preserve" font-size="4.76627" transform="translate(592.644, 199.063)" >ng=1</text>
<text fill="#666600"  xml:space="preserve" font-size="4.76627" transform="translate(592.644, 193.334)" >l=0.13u</text>
<text fill="#666600"  xml:space="preserve" font-size="4.76627" transform="translate(592.644, 188.178)" >w=1u</text>
<text fill="#ff0000"  xml:space="preserve" font-size="3.5747" transform="translate(588.634, 207.147)" >S</text>
<text fill="#ff0000"  xml:space="preserve" font-size="3.5747" transform="translate(588.634, 187.006)" >D</text>
<text fill="#ff0000"  xml:space="preserve" font-size="3.5747" transform="translate(587.488, 194.544)" >B</text>
<text fill="#222222"  xml:space="preserve" font-size="4.76627" transform="translate(596.654, 149.796)" >Ibias3</text>
<text fill="#222222"  xml:space="preserve" font-size="4.76627" transform="translate(596.654, 155.263)" >20u</text>
<text fill="#222222"  xml:space="preserve" font-size="4.76627" transform="translate(802.761, 186.46)" >M4</text>
<text fill="#ff0000"  xml:space="preserve" font-size="3.5747" transform="translate(799.887, 194.544)" >G</text>
<text fill="#222222"  xml:space="preserve" font-size="4.76627" transform="translate(821.219, 209.063)" >sg13_lv_nmos</text>
<text fill="#666600"  xml:space="preserve" font-size="4.76627" transform="translate(821.792, 203.073)" >m=1</text>
<text fill="#666600"  xml:space="preserve" font-size="4.76627" transform="translate(821.792, 199.063)" >ng=1</text>
<text fill="#666600"  xml:space="preserve" font-size="4.76627" transform="translate(821.792, 193.334)" >l=0.13u</text>
<text fill="#666600"  xml:space="preserve" font-size="4.76627" transform="translate(821.792, 188.178)" >w=1u</text>
<text fill="#ff0000"  xml:space="preserve" font-size="3.5747" transform="translate(817.782, 207.147)" >S</text>
<text fill="#ff0000"  xml:space="preserve" font-size="3.5747" transform="translate(817.782, 187.006)" >D</text>
<text fill="#ff0000"  xml:space="preserve" font-size="3.5747" transform="translate(816.636, 194.544)" >B</text>
<text fill="#222222"  xml:space="preserve" font-size="4.76627" transform="translate(825.802, 149.796)" >Ibias4</text>
<text fill="#222222"  xml:space="preserve" font-size="4.76627" transform="translate(825.802, 155.263)" >20u</text>
<text fill="#222222"  xml:space="preserve" font-size="4.76627" transform="translate(453.498, 216.773)" >Itest2</text>
<text fill="#222222"  xml:space="preserve" font-size="4.76627" transform="translate(453.498, 222.239)" >dc 0 ac 0</text>
<text fill="#222222"  xml:space="preserve" font-size="4.76627" transform="translate(682.645, 216.773)" >Itest3</text>
<text fill="#222222"  xml:space="preserve" font-size="4.76627" transform="translate(682.645, 222.239)" >dc 0 ac 1</text>
<text fill="#222222"  xml:space="preserve" font-size="4.76627" transform="translate(505.313, 163.8) rotate(270)" >Vtest2</text>
<text fill="#222222"  xml:space="preserve" font-size="4.76627" transform="translate(516.77, 163.8) rotate(270)" >dc 0 ac 1</text>
<text fill="#222222"  xml:space="preserve" font-size="4.76627" transform="translate(734.46, 163.8) rotate(270)" >Vtest3</text>
<text fill="#222222"  xml:space="preserve" font-size="4.76627" transform="translate(745.918, 163.8) rotate(270)" >dc 0 ac 0</text>
<text fill="#222222"  xml:space="preserve" font-size="4.76627" transform="translate(562.862, 199.841) rotate(270)" >Vimeas1</text>
<text fill="#222222"  xml:space="preserve" font-size="4.76627" transform="translate(792.009, 199.841) rotate(270)" >Vimeas2</text>
<path class="l4" stroke-dasharray="2.56645,2.56645" style="fill:none;" d="M385.839 310.455L880.797 310.455L880.797 466.275L385.839 466.275L385.839 310.455"/>
<path class="l4" stroke-dasharray="2.56645,2.56645" style="fill:none;" d="M385.839 99.639L880.797 99.639L880.797 255.459L385.839 255.459L385.839 99.639"/>
<path class="l4" d="M46.7005 447.943L78.7812 447.943"/>
<path class="l4" d="M46.7005 447.943L46.7005 457.109"/>
<path class="l4" d="M46.7005 17.1459L78.7812 17.1459"/>
<path class="l4" d="M46.7005 17.1459L46.7005 26.3118"/>
<path class="l4" d="M587.488 447.943L587.488 453.672"/>
<path class="l4" d="M585.197 453.672L589.78 453.672"/>
<path class="l4" d="M587.488 455.963L589.78 453.672"/>
<path class="l4" d="M585.197 453.672L587.488 455.963"/>
<path class="l4" d="M423.648 396.385L425.94 396.385"/>
<path class="l4" d="M424.794 395.239L424.794 397.531"/>
<path class="l4" d="M422.502 392.948L422.502 420.445"/>
<circle class="l4" cx="422.502" cy="406.697" r="6.87442" style="fill:none;" />
<path class="l4" d="M422.502 447.943L422.502 453.672"/>
<path class="l4" d="M420.211 453.672L424.794 453.672"/>
<path class="l4" d="M422.502 455.963L424.794 453.672"/>
<path class="l4" d="M420.211 453.672L422.502 455.963"/>
<path class="l4" d="M619.569 447.943L619.569 453.672"/>
<path class="l4" d="M617.278 453.672L621.861 453.672"/>
<path class="l4" d="M619.569 455.963L621.861 453.672"/>
<path class="l4" d="M617.278 453.672L619.569 455.963"/>
<path class="l4" d="M581.76 396.385L581.76 417.008"/>
<path class="l4" d="M587.488 392.948L587.488 398.676"/>
<path class="l4" d="M587.488 414.717L587.488 420.445"/>
<path class="l4" d="M579.468 399.822L579.468 413.571"/>
<path class="l4" d="M581.76 414.717L587.488 414.717"/>
<path class="l4" d="M581.76 398.676L587.488 398.676"/>
<path class="l4" d="M569.157 406.697L579.239 406.697"/>
<path class="l4" d="M585.197 415.862L587.488 414.717L585.197 413.571L585.197 415.862"/>
<path class="l4" d="M587.488 347.118L587.488 353.993"/>
<path class="l4" d="M587.488 367.741L587.488 374.616"/>
<path class="l4" d="M588.634 350.555L590.926 350.555"/>
<path class="l4" d="M589.78 349.41L589.78 351.701"/>
<path class="l4" d="M587.488 357.43L587.488 362.013L588.634 362.013L587.488 365.45L586.343 362.013L587.488 362.013L587.488 357.43"/>
<circle class="l4" cx="587.488" cy="360.867" r="6.87442" style="fill:none;" />
<path class="l4" d="M526.764 380.345L526.764 382.636"/>
<path class="l4" d="M525.619 381.49L527.91 381.49"/>
<path class="l4" d="M523.327 383.782L550.825 383.782"/>
<circle class="l4" cx="537.076" cy="383.782" r="6.87442" style="fill:none;" />
<path class="l4" d="M816.636 447.943L816.636 453.672"/>
<path class="l4" d="M814.344 453.672L818.927 453.672"/>
<path class="l4" d="M816.636 455.963L818.927 453.672"/>
<path class="l4" d="M814.344 453.672L816.636 455.963"/>
<path class="l4" d="M848.717 447.943L848.717 453.672"/>
<path class="l4" d="M846.425 453.672L851.008 453.672"/>
<path class="l4" d="M848.717 455.963L851.008 453.672"/>
<path class="l4" d="M846.425 453.672L848.717 455.963"/>
<path class="l4" d="M810.907 396.385L810.907 417.008"/>
<path class="l4" d="M816.636 392.948L816.636 398.676"/>
<path class="l4" d="M816.636 414.717L816.636 420.445"/>
<path class="l4" d="M808.616 399.822L808.616 413.571"/>
<path class="l4" d="M810.907 414.717L816.636 414.717"/>
<path class="l4" d="M810.907 398.676L816.636 398.676"/>
<path class="l4" d="M798.304 406.697L808.387 406.697"/>
<path class="l4" d="M814.344 415.862L816.636 414.717L814.344 413.571L814.344 415.862"/>
<path class="l4" d="M816.636 347.118L816.636 353.993"/>
<path class="l4" d="M816.636 367.741L816.636 374.616"/>
<path class="l4" d="M817.782 350.555L820.073 350.555"/>
<path class="l4" d="M818.927 349.41L818.927 351.701"/>
<path class="l4" d="M816.636 357.43L816.636 362.013L817.782 362.013L816.636 365.45L815.49 362.013L816.636 362.013L816.636 357.43"/>
<circle class="l4" cx="816.636" cy="360.867" r="6.87442" style="fill:none;" />
<path class="l4" d="M770.806 383.782L798.304 383.782"/>
<path class="l4" d="M779.972 383.782L784.555 380.345"/>
<path class="l4" d="M779.972 383.782L784.555 387.219"/>
<path class="l4" d="M724.977 383.782L752.475 383.782"/>
<path class="l4" d="M734.143 383.782L738.726 380.345"/>
<path class="l4" d="M734.143 383.782L738.726 387.219"/>
<path class="l4" d="M761.64 441.069L761.64 447.943"/>
<path class="l4" d="M761.64 420.445L761.64 427.32"/>
<path class="l4" d="M758.203 444.506L760.495 444.506"/>
<path class="l4" d="M759.349 443.36L759.349 445.652"/>
<path class="l4" d="M761.64 437.631L761.64 433.048L760.495 433.048L761.64 429.611L762.786 433.048L761.64 433.048L761.64 437.631"/>
<circle class="l4" cx="761.64" cy="434.194" r="6.87442" style="fill:none;" />
<path class="l4" d="M761.64 447.943L761.64 453.672"/>
<path class="l4" d="M759.349 453.672L763.932 453.672"/>
<path class="l4" d="M761.64 455.963L763.932 453.672"/>
<path class="l4" d="M759.349 453.672L761.64 455.963"/>
<path class="l4" d="M413.336 44.6436L399.588 38.9149L399.588 42.3521L385.839 42.3521L390.422 44.6436L385.839 46.9351L399.588 46.9351L399.588 50.3723L413.336 44.6436"/>
<path class="l4" d="M413.336 17.1459L399.588 11.4172L399.588 14.8544L385.839 14.8544L390.422 17.1459L385.839 19.4374L399.588 19.4374L399.588 22.8746L413.336 17.1459"/>
<path class="l4" d="M587.488 237.127L587.488 242.856"/>
<path class="l4" d="M585.197 242.856L589.78 242.856"/>
<path class="l4" d="M587.488 245.148L589.78 242.856"/>
<path class="l4" d="M585.197 242.856L587.488 245.148"/>
<path class="l4" d="M619.569 237.127L619.569 242.856"/>
<path class="l4" d="M617.278 242.856L621.861 242.856"/>
<path class="l4" d="M619.569 245.148L621.861 242.856"/>
<path class="l4" d="M617.278 242.856L619.569 245.148"/>
<path class="l4" d="M581.76 185.569L581.76 206.193"/>
<path class="l4" d="M587.488 182.132L587.488 187.861"/>
<path class="l4" d="M587.488 203.901L587.488 209.63"/>
<path class="l4" d="M579.468 189.006L579.468 202.755"/>
<path class="l4" d="M581.76 203.901L587.488 203.901"/>
<path class="l4" d="M581.76 187.861L587.488 187.861"/>
<path class="l4" d="M569.157 195.881L579.239 195.881"/>
<path class="l4" d="M585.197 205.047L587.488 203.901L585.197 202.755L585.197 205.047"/>
<path class="l4" d="M587.488 136.303L587.488 143.177"/>
<path class="l4" d="M587.488 156.926L587.488 163.8"/>
<path class="l4" d="M588.634 139.74L590.926 139.74"/>
<path class="l4" d="M589.78 138.594L589.78 140.886"/>
<path class="l4" d="M587.488 146.614L587.488 151.197L588.634 151.197L587.488 154.634L586.343 151.197L587.488 151.197L587.488 146.614"/>
<circle class="l4" cx="587.488" cy="150.051" r="6.87442" style="fill:none;" />
<path class="l4" d="M816.636 237.127L816.636 242.856"/>
<path class="l4" d="M814.344 242.856L818.927 242.856"/>
<path class="l4" d="M816.636 245.148L818.927 242.856"/>
<path class="l4" d="M814.344 242.856L816.636 245.148"/>
<path class="l4" d="M848.717 237.127L848.717 242.856"/>
<path class="l4" d="M846.425 242.856L851.008 242.856"/>
<path class="l4" d="M848.717 245.148L851.008 242.856"/>
<path class="l4" d="M846.425 242.856L848.717 245.148"/>
<path class="l4" d="M810.907 185.569L810.907 206.193"/>
<path class="l4" d="M816.636 182.132L816.636 187.861"/>
<path class="l4" d="M816.636 203.901L816.636 209.63"/>
<path class="l4" d="M808.616 189.006L808.616 202.755"/>
<path class="l4" d="M810.907 203.901L816.636 203.901"/>
<path class="l4" d="M810.907 187.861L816.636 187.861"/>
<path class="l4" d="M798.304 195.881L808.387 195.881"/>
<path class="l4" d="M814.344 205.047L816.636 203.901L814.344 202.755L814.344 205.047"/>
<path class="l4" d="M816.636 136.303L816.636 143.177"/>
<path class="l4" d="M816.636 156.926L816.636 163.8"/>
<path class="l4" d="M817.782 139.74L820.073 139.74"/>
<path class="l4" d="M818.927 138.594L818.927 140.886"/>
<path class="l4" d="M816.636 146.614L816.636 151.197L817.782 151.197L816.636 154.634L815.49 151.197L816.636 151.197L816.636 146.614"/>
<circle class="l4" cx="816.636" cy="150.051" r="6.87442" style="fill:none;" />
<path class="l4" d="M486.664 225.67L486.664 232.544"/>
<path class="l4" d="M486.664 205.047L486.664 211.921"/>
<path class="l4" d="M483.226 229.107L485.518 229.107"/>
<path class="l4" d="M484.372 227.962L484.372 230.253"/>
<path class="l4" d="M486.664 222.233L486.664 217.65L485.518 217.65L486.664 214.213L487.809 217.65L486.664 217.65L486.664 222.233"/>
<circle class="l4" cx="486.664" cy="218.796" r="6.87442" style="fill:none;" />
<path class="l4" d="M486.664 237.127L486.664 242.856"/>
<path class="l4" d="M484.372 242.856L488.955 242.856"/>
<path class="l4" d="M486.664 245.148L488.955 242.856"/>
<path class="l4" d="M484.372 242.856L486.664 245.148"/>
<path class="l4" d="M715.811 225.67L715.811 232.544"/>
<path class="l4" d="M715.811 205.047L715.811 211.921"/>
<path class="l4" d="M712.374 229.107L714.665 229.107"/>
<path class="l4" d="M713.52 227.962L713.52 230.253"/>
<path class="l4" d="M715.811 222.233L715.811 217.65L714.665 217.65L715.811 214.213L716.957 217.65L715.811 217.65L715.811 222.233"/>
<circle class="l4" cx="715.811" cy="218.796" r="6.87442" style="fill:none;" />
<path class="l4" d="M715.811 237.127L715.811 242.856"/>
<path class="l4" d="M713.52 242.856L718.102 242.856"/>
<path class="l4" d="M715.811 245.148L718.102 242.856"/>
<path class="l4" d="M713.52 242.856L715.811 245.148"/>
<path class="l4" d="M499.267 169.529L499.267 171.82"/>
<path class="l4" d="M498.121 170.675L500.412 170.675"/>
<path class="l4" d="M495.829 172.966L523.327 172.966"/>
<circle class="l4" cx="509.578" cy="172.966" r="6.87442" style="fill:none;" />
<path class="l4" d="M728.414 169.529L728.414 171.82"/>
<path class="l4" d="M727.268 170.675L729.56 170.675"/>
<path class="l4" d="M724.977 172.966L752.475 172.966"/>
<circle class="l4" cx="738.726" cy="172.966" r="6.87442" style="fill:none;" />
<path class="l4" d="M541.659 172.966L569.157 172.966"/>
<path class="l4" d="M550.825 172.966L555.408 169.529"/>
<path class="l4" d="M550.825 172.966L555.408 176.403"/>
<path class="l4" d="M770.806 172.966L798.304 172.966"/>
<path class="l4" d="M779.972 172.966L784.555 169.529"/>
<path class="l4" d="M779.972 172.966L784.555 176.403"/>
<path class="l5" d="M586.343 446.797L588.634 446.797L588.634 449.089L586.343 449.089L586.343 446.797z"/>
<path class="l5" d="M421.357 391.802L423.648 391.802L423.648 394.093L421.357 394.093L421.357 391.802z"/>
<path class="l5" d="M421.357 419.3L423.648 419.3L423.648 421.591L421.357 421.591L421.357 419.3z"/>
<path class="l5" d="M421.357 446.797L423.648 446.797L423.648 449.089L421.357 449.089L421.357 446.797z"/>
<path class="l5" d="M618.423 446.797L620.715 446.797L620.715 449.089L618.423 449.089L618.423 446.797z"/>
<path class="l5" d="M87.9471 500.647L87.8039 500.79L87.6606 500.933L87.5174 501.077L87.3742 501.22L87.231 501.363L87.0878 501.506L86.9445 501.649L86.8013 501.793L86.6581 501.936L86.5149 502.079L86.3717 502.222L86.2285 502.366L86.0852 502.509L85.942 502.652L85.7988 502.795L85.6556 502.938L85.5124 503.082L85.3692 503.225L85.2259 503.368L85.0827 503.511L84.9395 503.655L84.7963 503.798L84.6531 503.941L84.5099 504.084L84.3666 504.227L84.2234 504.371L84.0802 504.514L83.937 504.657L83.7938 504.8L83.6506 504.943L83.5073 505.087L83.3641 505.23L83.3641 505.23L83.2254 505.373L83.0956 505.516L82.9747 505.66L82.8629 505.803L82.7599 505.946L82.6659 506.089L82.5809 506.232L82.5048 506.376L82.4377 506.519L82.3795 506.662L82.3303 506.805L82.29 506.949L82.2587 507.092L82.2363 507.235L82.2229 507.378L82.2184 507.521L82.2229 507.665L82.2363 507.808L82.2587 507.951L82.29 508.094L82.3303 508.237L82.3795 508.381L82.4377 508.524L82.5048 508.667L82.5809 508.81L82.6659 508.954L82.7599 509.097L82.8629 509.24L82.9747 509.383L83.0956 509.526L83.2254 509.67L83.3641 509.813L83.3641 509.813L83.5079 509.957L83.6528 510.102L83.7988 510.248L83.9459 510.395L84.0942 510.543L84.2436 510.692L84.3941 510.843L84.5457 510.994L84.6984 511.147L84.8522 511.301L85.0072 511.456L85.1633 511.612L85.3205 511.769L85.4788 511.928L85.6383 512.087L85.7988 512.248L85.9605 512.409L86.1233 512.572L86.2872 512.736L86.4522 512.901L86.6184 513.067L86.7857 513.234L86.9541 513.403L87.1236 513.572L87.2942 513.743L87.4659 513.915L87.6388 514.088L87.8128 514.262L87.9879 514.437L88.1641 514.613L88.3415 514.79L88.5199 514.969L88.5199 514.969L88.6978 515.147L88.8735 515.322L89.0469 515.496L89.2181 515.667L89.3871 515.836L89.5538 516.003L89.7183 516.167L89.8805 516.329L90.0405 516.489L90.1983 516.647L90.3538 516.803L90.5071 516.956L90.6581 517.107L90.8069 517.256L90.9535 517.402L91.0978 517.547L91.2399 517.689L91.3798 517.829L91.5174 517.966L91.6528 518.102L91.786 518.235L91.9169 518.366L92.0455 518.494L92.172 518.621L92.2962 518.745L92.4181 518.867L92.5378 518.987L92.6553 519.104L92.7706 519.219L92.8836 519.332L92.9944 519.443L93.1029 519.552L93.1029 519.552L93.2069 519.657L93.3043 519.76L93.3949 519.859L93.4788 519.954L93.556 520.047L93.6265 520.136L93.6903 520.221L93.7474 520.304L93.7977 520.382L93.8413 520.458L93.8783 520.53L93.9085 520.599L93.932 520.664L93.9488 520.726L93.9588 520.785L93.9622 520.841L93.9588 520.893L93.9488 520.941L93.932 520.987L93.9085 521.029L93.8783 521.067L93.8413 521.102L93.7977 521.134L93.7474 521.163L93.6903 521.188L93.6265 521.21L93.556 521.228L93.4788 521.243L93.3949 521.255L93.3043 521.264L93.2069 521.269L93.1029 521.27L93.1029 521.27L92.9955 521.27L92.8881 521.27L92.7806 521.27L92.6732 521.27L92.5658 521.27L92.4584 521.27L92.351 521.27L92.2436 521.27L92.1362 521.27L92.0288 521.27L91.9213 521.27L91.8139 521.27L91.7065 521.27L91.5991 521.27L91.4917 521.27L91.3843 521.27L91.2769 521.27L91.1695 521.27L91.062 521.27L90.9546 521.27L90.8472 521.27L90.7398 521.27L90.6324 521.27L90.525 521.27L90.4176 521.27L90.3102 521.27L90.2027 521.27L90.0953 521.27L89.9879 521.27L89.8805 521.27L89.7731 521.27L89.6657 521.27L89.6657 521.27L89.5588 521.27L89.4531 521.27L89.3485 521.27L89.245 521.27L89.1426 521.27L89.0413 521.27L88.9412 521.27L88.8422 521.27L88.7443 521.27L88.6475 521.27L88.5518 521.27L88.4573 521.27L88.3639 521.27L88.2715 521.27L88.1804 521.27L88.0903 521.27L88.0013 521.27L87.9135 521.27L87.8268 521.27L87.7412 521.27L87.6567 521.27L87.5734 521.27L87.4911 521.27L87.41 521.27L87.33 521.27L87.2511 521.27L87.1734 521.27L87.0967 521.27L87.0212 521.27L86.9468 521.27L86.8735 521.27L86.8013 521.27L86.8013 521.27L86.7297 521.269L86.6581 521.266L86.5865 521.26L86.5149 521.252L86.4433 521.242L86.3717 521.23L86.3001 521.215L86.2285 521.199L86.1569 521.18L86.0852 521.158L86.0136 521.135L85.942 521.109L85.8704 521.081L85.7988 521.051L85.7272 521.018L85.6556 520.984L85.584 520.947L85.5124 520.908L85.4408 520.866L85.3692 520.823L85.2976 520.777L85.2259 520.729L85.1543 520.678L85.0827 520.626L85.0111 520.571L84.9395 520.514L84.8679 520.455L84.7963 520.393L84.7247 520.329L84.6531 520.263L84.5815 520.195L84.5099 520.124L84.5099 520.124L84.4382 520.053L84.3666 519.981L84.295 519.91L84.2234 519.838L84.1518 519.766L84.0802 519.695L84.0086 519.623L83.937 519.552L83.8654 519.48L83.7938 519.408L83.7222 519.337L83.6506 519.265L83.5789 519.194L83.5073 519.122L83.4357 519.05L83.3641 518.979L83.2925 518.907L83.2209 518.836L83.1493 518.764L83.0777 518.692L83.0061 518.621L82.9345 518.549L82.8629 518.477L82.7913 518.406L82.7196 518.334L82.648 518.263L82.5764 518.191L82.5048 518.119L82.4332 518.048L82.3616 517.976L82.29 517.905L82.2184 517.833L82.2184 517.833L82.1457 517.76L82.0707 517.685L81.9935 517.608L81.914 517.529L81.8324 517.447L81.7485 517.363L81.6623 517.277L81.5739 517.189L81.4833 517.098L81.3904 517.005L81.2953 516.91L81.198 516.813L81.0984 516.713L80.9966 516.611L80.8925 516.507L80.7862 516.401L80.6777 516.292L80.5669 516.182L80.4539 516.069L80.3387 515.953L80.2212 515.836L80.1015 515.716L79.9795 515.594L79.8553 515.47L79.7289 515.344L79.6002 515.215L79.4693 515.084L79.3361 514.951L79.2008 514.815L79.0631 514.678L78.9233 514.538L78.7812 514.396L78.7812 514.396L78.638 514.257L78.4947 514.127L78.3515 514.006L78.2083 513.895L78.0651 513.792L77.9219 513.698L77.7787 513.613L77.6354 513.537L77.4922 513.469L77.349 513.411L77.2058 513.362L77.0626 513.322L76.9193 513.29L76.7761 513.268L76.6329 513.255L76.4897 513.25L76.3465 513.255L76.2033 513.268L76.06 513.29L75.9168 513.322L75.7736 513.362L75.6304 513.411L75.4872 513.469L75.344 513.537L75.2007 513.613L75.0575 513.698L74.9143 513.792L74.7711 513.895L74.6279 514.006L74.4847 514.127L74.3414 514.257L74.1982 514.396L74.1982 514.396L74.0561 514.538L73.9163 514.678L73.7786 514.815L73.6433 514.951L73.5101 515.084L73.3792 515.215L73.2505 515.344L73.1241 515.47L72.9999 515.594L72.8779 515.716L72.7582 515.836L72.6407 515.953L72.5255 516.069L72.4125 516.182L72.3017 516.292L72.1932 516.401L72.0869 516.507L71.9828 516.611L71.881 516.713L71.7814 516.813L71.6841 516.91L71.589 517.005L71.4961 517.098L71.4055 517.189L71.3171 517.277L71.2309 517.363L71.147 517.447L71.0653 517.529L70.9859 517.608L70.9087 517.685L70.8337 517.76L70.761 517.833L70.761 517.833L70.6894 517.905L70.6178 517.976L70.5462 518.048L70.4746 518.119L70.403 518.191L70.3314 518.263L70.2598 518.334L70.1881 518.406L70.1165 518.477L70.0449 518.549L69.9733 518.621L69.9017 518.692L69.8301 518.764L69.7585 518.836L69.6869 518.907L69.6153 518.979L69.5437 519.05L69.4721 519.122L69.4004 519.194L69.3288 519.265L69.2572 519.337L69.1856 519.408L69.114 519.48L69.0424 519.552L68.9708 519.623L68.8992 519.695L68.8276 519.766L68.756 519.838L68.6844 519.91L68.6128 519.981L68.5411 520.053L68.4695 520.124L68.4695 520.124L68.3979 520.195L68.3263 520.263L68.2547 520.329L68.1831 520.393L68.1115 520.455L68.0399 520.514L67.9683 520.571L67.8967 520.626L67.8251 520.678L67.7535 520.729L67.6818 520.777L67.6102 520.823L67.5386 520.866L67.467 520.908L67.3954 520.947L67.3238 520.984L67.2522 521.018L67.1806 521.051L67.109 521.081L67.0374 521.109L66.9658 521.135L66.8941 521.158L66.8225 521.18L66.7509 521.199L66.6793 521.215L66.6077 521.23L66.5361 521.242L66.4645 521.252L66.3929 521.26L66.3213 521.266L66.2497 521.269L66.1781 521.27L66.1781 521.27L66.1059 521.27L66.0326 521.27L65.9582 521.27L65.8827 521.27L65.806 521.27L65.7283 521.27L65.6494 521.27L65.5694 521.27L65.4883 521.27L65.406 521.27L65.3227 521.27L65.2382 521.27L65.1526 521.27L65.0659 521.27L64.9781 521.27L64.8891 521.27L64.799 521.27L64.7079 521.27L64.6155 521.27L64.5221 521.27L64.4276 521.27L64.3319 521.27L64.2351 521.27L64.1372 521.27L64.0382 521.27L63.9381 521.27L63.8368 521.27L63.7344 521.27L63.6309 521.27L63.5263 521.27L63.4206 521.27L63.3137 521.27L63.3137 521.27L63.2063 521.27L63.0989 521.27L62.9915 521.27L62.8841 521.27L62.7767 521.27L62.6692 521.27L62.5618 521.27L62.4544 521.27L62.347 521.27L62.2396 521.27L62.1322 521.27L62.0248 521.27L61.9174 521.27L61.8099 521.27L61.7025 521.27L61.5951 521.27L61.4877 521.27L61.3803 521.27L61.2729 521.27L61.1655 521.27L61.0581 521.27L60.9506 521.27L60.8432 521.27L60.7358 521.27L60.6284 521.27L60.521 521.27L60.4136 521.27L60.3062 521.27L60.1987 521.27L60.0913 521.27L59.9839 521.27L59.8765 521.27L59.8765 521.27L59.7725 521.269L59.6751 521.264L59.5845 521.255L59.5006 521.243L59.4234 521.228L59.3529 521.21L59.2891 521.188L59.232 521.163L59.1817 521.134L59.138 521.102L59.1011 521.067L59.0709 521.029L59.0474 520.987L59.0306 520.941L59.0206 520.893L59.0172 520.841L59.0206 520.785L59.0306 520.726L59.0474 520.664L59.0709 520.599L59.1011 520.53L59.138 520.458L59.1817 520.382L59.232 520.304L59.2891 520.221L59.3529 520.136L59.4234 520.047L59.5006 519.954L59.5845 519.859L59.6751 519.76L59.7725 519.657L59.8765 519.552L59.8765 519.552L59.985 519.443L60.0958 519.332L60.2088 519.219L60.3241 519.104L60.4415 518.987L60.5613 518.867L60.6832 518.745L60.8074 518.621L60.9339 518.494L61.0625 518.366L61.1934 518.235L61.3266 518.102L61.462 517.966L61.5996 517.829L61.7395 517.689L61.8815 517.547L62.0259 517.402L62.1725 517.256L62.3213 517.107L62.4723 516.956L62.6256 516.803L62.7811 516.647L62.9389 516.489L63.0989 516.329L63.2611 516.167L63.4256 516.003L63.5923 515.836L63.7613 515.667L63.9325 515.496L64.1059 515.322L64.2816 515.147L64.4595 514.969L64.4595 514.969L64.6379 514.79L64.8153 514.613L64.9915 514.437L65.1666 514.262L65.3406 514.088L65.5134 513.915L65.6852 513.743L65.8558 513.572L66.0253 513.403L66.1937 513.234L66.361 513.067L66.5272 512.901L66.6922 512.736L66.8561 512.572L67.0189 512.409L67.1806 512.248L67.3411 512.087L67.5006 511.928L67.6589 511.769L67.8161 511.612L67.9722 511.456L68.1272 511.301L68.281 511.147L68.4337 510.994L68.5853 510.843L68.7358 510.692L68.8852 510.543L69.0335 510.395L69.1806 510.248L69.3266 510.102L69.4715 509.957L69.6153 509.813L69.6153 509.813L69.754 509.67L69.8838 509.526L70.0046 509.383L70.1165 509.24L70.2195 509.097L70.3135 508.954L70.3985 508.81L70.4746 508.667L70.5417 508.524L70.5999 508.381L70.6491 508.237L70.6894 508.094L70.7207 507.951L70.7431 507.808L70.7565 507.665L70.761 507.521L70.7565 507.378L70.7431 507.235L70.7207 507.092L70.6894 506.949L70.6491 506.805L70.5999 506.662L70.5417 506.519L70.4746 506.376L70.3985 506.232L70.3135 506.089L70.2195 505.946L70.1165 505.803L70.0046 505.66L69.8838 505.516L69.754 505.373L69.6153 505.23L69.6153 505.23L69.4715 505.086L69.3266 504.941L69.1806 504.795L69.0335 504.648L68.8852 504.5L68.7358 504.35L68.5853 504.2L68.4337 504.048L68.281 503.896L68.1272 503.742L67.9722 503.587L67.8161 503.431L67.6589 503.274L67.5006 503.115L67.3411 502.956L67.1806 502.795L67.0189 502.634L66.8561 502.471L66.6922 502.307L66.5272 502.142L66.361 501.976L66.1937 501.808L66.0253 501.64L65.8558 501.47L65.6852 501.3L65.5134 501.128L65.3406 500.955L65.1666 500.781L64.9915 500.606L64.8153 500.43L64.6379 500.253L64.4595 500.074L64.4595 500.074L64.2816 499.896L64.1059 499.721L63.9325 499.547L63.7613 499.376L63.5923 499.207L63.4256 499.04L63.2611 498.876L63.0989 498.714L62.9389 498.554L62.7811 498.396L62.6256 498.24L62.4723 498.087L62.3213 497.936L62.1725 497.787L62.0259 497.641L61.8815 497.496L61.7395 497.354L61.5996 497.214L61.462 497.077L61.3266 496.941L61.1934 496.808L61.0625 496.677L60.9339 496.548L60.8074 496.422L60.6832 496.298L60.5613 496.176L60.4415 496.056L60.3241 495.939L60.2088 495.823L60.0958 495.71L59.985 495.6L59.8765 495.491L59.8765 495.491L59.7725 495.385L59.6751 495.283L59.5845 495.184L59.5006 495.088L59.4234 494.996L59.3529 494.907L59.2891 494.821L59.232 494.739L59.1817 494.66L59.138 494.585L59.1011 494.513L59.0709 494.444L59.0474 494.378L59.0306 494.316L59.0206 494.258L59.0172 494.202L59.0206 494.15L59.0306 494.101L59.0474 494.056L59.0709 494.014L59.1011 493.976L59.138 493.94L59.1817 493.908L59.232 493.88L59.2891 493.855L59.3529 493.833L59.4234 493.814L59.5006 493.799L59.5845 493.788L59.6751 493.779L59.7725 493.774L59.8765 493.773L59.8765 493.773L59.9839 493.773L60.0913 493.773L60.1987 493.773L60.3062 493.773L60.4136 493.773L60.521 493.773L60.6284 493.773L60.7358 493.773L60.8432 493.773L60.9506 493.773L61.0581 493.773L61.1655 493.773L61.2729 493.773L61.3803 493.773L61.4877 493.773L61.5951 493.773L61.7025 493.773L61.8099 493.773L61.9174 493.773L62.0248 493.773L62.1322 493.773L62.2396 493.773L62.347 493.773L62.4544 493.773L62.5618 493.773L62.6692 493.773L62.7767 493.773L62.8841 493.773L62.9915 493.773L63.0989 493.773L63.2063 493.773L63.3137 493.773L63.3137 493.773L63.4206 493.773L63.5263 493.773L63.6309 493.773L63.7344 493.773L63.8368 493.773L63.9381 493.773L64.0382 493.773L64.1372 493.773L64.2351 493.773L64.3319 493.773L64.4276 493.773L64.5221 493.773L64.6155 493.773L64.7079 493.773L64.799 493.773L64.8891 493.773L64.9781 493.773L65.0659 493.773L65.1526 493.773L65.2382 493.773L65.3227 493.773L65.406 493.773L65.4883 493.773L65.5694 493.773L65.6494 493.773L65.7283 493.773L65.806 493.773L65.8827 493.773L65.9582 493.773L66.0326 493.773L66.1059 493.773L66.1781 493.773L66.1781 493.773L66.2497 493.774L66.3213 493.777L66.3929 493.783L66.4645 493.79L66.5361 493.801L66.6077 493.813L66.6793 493.827L66.7509 493.844L66.8225 493.863L66.8941 493.884L66.9658 493.908L67.0374 493.934L67.109 493.962L67.1806 493.992L67.2522 494.024L67.3238 494.059L67.3954 494.096L67.467 494.135L67.5386 494.176L67.6102 494.22L67.6818 494.266L67.7535 494.314L67.8251 494.364L67.8967 494.417L67.9683 494.472L68.0399 494.529L68.1115 494.588L68.1831 494.65L68.2547 494.714L68.3263 494.78L68.3979 494.848L68.4695 494.918L68.4695 494.918L68.5411 494.99L68.6128 495.061L68.6844 495.133L68.756 495.205L68.8276 495.276L68.8992 495.348L68.9708 495.42L69.0424 495.491L69.114 495.563L69.1856 495.634L69.2572 495.706L69.3288 495.778L69.4004 495.849L69.4721 495.921L69.5437 495.992L69.6153 496.064L69.6869 496.136L69.7585 496.207L69.8301 496.279L69.9017 496.35L69.9733 496.422L70.0449 496.494L70.1165 496.565L70.1881 496.637L70.2598 496.708L70.3314 496.78L70.403 496.852L70.4746 496.923L70.5462 496.995L70.6178 497.067L70.6894 497.138L70.761 497.21L70.761 497.21L70.8337 497.282L70.9087 497.357L70.9859 497.435L71.0653 497.514L71.147 497.596L71.2309 497.68L71.3171 497.766L71.4055 497.854L71.4961 497.945L71.589 498.038L71.6841 498.133L71.7814 498.23L71.881 498.33L71.9828 498.432L72.0869 498.536L72.1932 498.642L72.3017 498.75L72.4125 498.861L72.5255 498.974L72.6407 499.089L72.7582 499.207L72.8779 499.327L72.9999 499.449L73.1241 499.573L73.2505 499.699L73.3792 499.828L73.5101 499.959L73.6433 500.092L73.7786 500.227L73.9163 500.365L74.0561 500.505L74.1982 500.647L74.1982 500.647L74.3414 500.786L74.4847 500.915L74.6279 501.036L74.7711 501.148L74.9143 501.251L75.0575 501.345L75.2007 501.43L75.344 501.506L75.4872 501.573L75.6304 501.632L75.7736 501.681L75.9168 501.721L76.06 501.752L76.2033 501.775L76.3465 501.788L76.4897 501.793L76.6329 501.788L76.7761 501.775L76.9193 501.752L77.0626 501.721L77.2058 501.681L77.349 501.632L77.4922 501.573L77.6354 501.506L77.7787 501.43L77.9219 501.345L78.0651 501.251L78.2083 501.148L78.3515 501.036L78.4947 500.915L78.638 500.786L78.7812 500.647L78.7812 500.647L78.9233 500.505L79.0631 500.365L79.2008 500.227L79.3361 500.092L79.4693 499.959L79.6002 499.828L79.7289 499.699L79.8553 499.573L79.9795 499.449L80.1015 499.327L80.2212 499.207L80.3387 499.089L80.4539 498.974L80.5669 498.861L80.6777 498.75L80.7862 498.642L80.8925 498.536L80.9966 498.432L81.0984 498.33L81.198 498.23L81.2953 498.133L81.3904 498.038L81.4833 497.945L81.5739 497.854L81.6623 497.766L81.7485 497.68L81.8324 497.596L81.914 497.514L81.9935 497.435L82.0707 497.357L82.1457 497.282L82.2184 497.21L82.2184 497.21L82.29 497.138L82.3616 497.067L82.4332 496.995L82.5048 496.923L82.5764 496.852L82.648 496.78L82.7196 496.708L82.7913 496.637L82.8629 496.565L82.9345 496.494L83.0061 496.422L83.0777 496.35L83.1493 496.279L83.2209 496.207L83.2925 496.136L83.3641 496.064L83.4357 495.992L83.5073 495.921L83.5789 495.849L83.6506 495.778L83.7222 495.706L83.7938 495.634L83.8654 495.563L83.937 495.491L84.0086 495.42L84.0802 495.348L84.1518 495.276L84.2234 495.205L84.295 495.133L84.3666 495.061L84.4382 494.99L84.5099 494.918L84.5099 494.918L84.5815 494.848L84.6531 494.78L84.7247 494.714L84.7963 494.65L84.8679 494.588L84.9395 494.529L85.0111 494.472L85.0827 494.417L85.1543 494.364L85.2259 494.314L85.2976 494.266L85.3692 494.22L85.4408 494.176L85.5124 494.135L85.584 494.096L85.6556 494.059L85.7272 494.024L85.7988 493.992L85.8704 493.962L85.942 493.934L86.0136 493.908L86.0852 493.884L86.1569 493.863L86.2285 493.844L86.3001 493.827L86.3717 493.813L86.4433 493.801L86.5149 493.79L86.5865 493.783L86.6581 493.777L86.7297 493.774L86.8013 493.773L86.8013 493.773L86.8735 493.773L86.9468 493.773L87.0212 493.773L87.0967 493.773L87.1734 493.773L87.2511 493.773L87.33 493.773L87.41 493.773L87.4911 493.773L87.5734 493.773L87.6567 493.773L87.7412 493.773L87.8268 493.773L87.9135 493.773L88.0013 493.773L88.0903 493.773L88.1804 493.773L88.2715 493.773L88.3639 493.773L88.4573 493.773L88.5518 493.773L88.6475 493.773L88.7443 493.773L88.8422 493.773L88.9412 493.773L89.0413 493.773L89.1426 493.773L89.245 493.773L89.3485 493.773L89.4531 493.773L89.5588 493.773L89.6657 493.773L89.6657 493.773L89.7731 493.773L89.8805 493.773L89.9879 493.773L90.0953 493.773L90.2027 493.773L90.3102 493.773L90.4176 493.773L90.525 493.773L90.6324 493.773L90.7398 493.773L90.8472 493.773L90.9546 493.773L91.062 493.773L91.1695 493.773L91.2769 493.773L91.3843 493.773L91.4917 493.773L91.5991 493.773L91.7065 493.773L91.8139 493.773L91.9213 493.773L92.0288 493.773L92.1362 493.773L92.2436 493.773L92.351 493.773L92.4584 493.773L92.5658 493.773L92.6732 493.773L92.7806 493.773L92.8881 493.773L92.9955 493.773L93.1029 493.773L93.1029 493.773L93.2069 493.774L93.3043 493.779L93.3949 493.788L93.4788 493.799L93.556 493.814L93.6265 493.833L93.6903 493.855L93.7474 493.88L93.7977 493.908L93.8413 493.94L93.8783 493.976L93.9085 494.014L93.932 494.056L93.9488 494.101L93.9588 494.15L93.9622 494.202L93.9588 494.258L93.9488 494.316L93.932 494.378L93.9085 494.444L93.8783 494.513L93.8413 494.585L93.7977 494.66L93.7474 494.739L93.6903 494.821L93.6265 494.907L93.556 494.996L93.4788 495.088L93.3949 495.184L93.3043 495.283L93.2069 495.385L93.1029 495.491L93.1029 495.491L92.9938 495.6L92.8813 495.713L92.7655 495.828L92.6464 495.948L92.5239 496.07L92.398 496.196L92.2688 496.325L92.1362 496.458L92.0002 496.594L91.8609 496.733L91.7183 496.876L91.5723 497.022L91.4229 497.171L91.2702 497.324L91.1141 497.48L90.9546 497.639L90.7918 497.802L90.6257 497.968L90.4562 498.138L90.2833 498.311L90.1071 498.487L89.9275 498.667L89.7446 498.849L89.5583 499.036L89.3686 499.225L89.1756 499.418L88.9792 499.615L88.7795 499.815L88.5764 500.018L88.37 500.224L88.1602 500.434L87.9471 500.647"/>
<path class="l5" d="M587.488 407.842L585.197 406.697L587.488 405.551L587.488 407.842"/>
<path class="l5" d="M586.343 391.802L588.634 391.802L588.634 394.093L586.343 394.093L586.343 391.802z"/>
<path class="l5" d="M568.011 405.551L570.302 405.551L570.302 407.842L568.011 407.842L568.011 405.551z"/>
<path class="l5" d="M586.343 419.3L588.634 419.3L588.634 421.591L586.343 421.591L586.343 419.3z"/>
<path class="l5" d="M587.453 406.661L587.524 406.661L587.524 406.732L587.453 406.732L587.453 406.661z"/>
<path class="l5" d="M586.343 345.972L588.634 345.972L588.634 348.264L586.343 348.264L586.343 345.972z"/>
<path class="l5" d="M586.343 373.47L588.634 373.47L588.634 375.762L586.343 375.762L586.343 373.47z"/>
<path class="l5" d="M421.929 328.214L423.075 328.214L423.075 329.359L421.929 329.359L421.929 328.214z"/>
<path class="l5" d="M522.181 382.636L524.473 382.636L524.473 384.928L522.181 384.928L522.181 382.636z"/>
<path class="l5" d="M549.679 382.636L551.971 382.636L551.971 384.928L549.679 384.928L549.679 382.636z"/>
<path class="l5" d="M504.423 383.209L505.568 383.209L505.568 384.355L504.423 384.355L504.423 383.209z"/>
<path class="l5" d="M573.167 383.209L574.312 383.209L574.312 384.355L573.167 384.355L573.167 383.209z"/>
<path class="l5" d="M815.49 446.797L817.782 446.797L817.782 449.089L815.49 449.089L815.49 446.797z"/>
<path class="l5" d="M847.571 446.797L849.862 446.797L849.862 449.089L847.571 449.089L847.571 446.797z"/>
<path class="l5" d="M816.636 407.842L814.344 406.697L816.636 405.551L816.636 407.842"/>
<path class="l5" d="M815.49 391.802L817.782 391.802L817.782 394.093L815.49 394.093L815.49 391.802z"/>
<path class="l5" d="M797.158 405.551L799.45 405.551L799.45 407.842L797.158 407.842L797.158 405.551z"/>
<path class="l5" d="M815.49 419.3L817.782 419.3L817.782 421.591L815.49 421.591L815.49 419.3z"/>
<path class="l5" d="M816.6 406.661L816.672 406.661L816.672 406.732L816.6 406.732L816.6 406.661z"/>
<path class="l5" d="M815.49 345.972L817.782 345.972L817.782 348.264L815.49 348.264L815.49 345.972z"/>
<path class="l5" d="M815.49 373.47L817.782 373.47L817.782 375.762L815.49 375.762L815.49 373.47z"/>
<path class="l5" d="M797.158 382.636L799.45 382.636L799.45 384.928L797.158 384.928L797.158 382.636z"/>
<path class="l5" d="M769.661 382.636L771.952 382.636L771.952 384.928L769.661 384.928L769.661 382.636z"/>
<path class="l5" d="M751.329 382.636L753.62 382.636L753.62 384.928L751.329 384.928L751.329 382.636z"/>
<path class="l5" d="M723.831 382.636L726.123 382.636L726.123 384.928L723.831 384.928L723.831 382.636z"/>
<path class="l5" d="M760.495 446.797L762.786 446.797L762.786 449.089L760.495 449.089L760.495 446.797z"/>
<path class="l5" d="M760.495 419.3L762.786 419.3L762.786 421.591L760.495 421.591L760.495 419.3z"/>
<path class="l5" d="M760.495 446.797L762.786 446.797L762.786 449.089L760.495 449.089L760.495 446.797z"/>
<path class="l5" d="M715.238 406.124L716.384 406.124L716.384 407.269L715.238 407.269L715.238 406.124z"/>
<path class="l5" d="M586.343 235.982L588.634 235.982L588.634 238.273L586.343 238.273L586.343 235.982z"/>
<path class="l5" d="M618.423 235.982L620.715 235.982L620.715 238.273L618.423 238.273L618.423 235.982z"/>
<path class="l5" d="M587.488 197.027L585.197 195.881L587.488 194.735L587.488 197.027"/>
<path class="l5" d="M586.343 180.986L588.634 180.986L588.634 183.278L586.343 183.278L586.343 180.986z"/>
<path class="l5" d="M568.011 194.735L570.302 194.735L570.302 197.027L568.011 197.027L568.011 194.735z"/>
<path class="l5" d="M586.343 208.484L588.634 208.484L588.634 210.775L586.343 210.775L586.343 208.484z"/>
<path class="l5" d="M587.453 195.845L587.524 195.845L587.524 195.917L587.453 195.917L587.453 195.845z"/>
<path class="l5" d="M586.343 135.157L588.634 135.157L588.634 137.448L586.343 137.448L586.343 135.157z"/>
<path class="l5" d="M586.343 162.655L588.634 162.655L588.634 164.946L586.343 164.946L586.343 162.655z"/>
<path class="l5" d="M421.929 117.398L423.075 117.398L423.075 118.544L421.929 118.544L421.929 117.398z"/>
<path class="l5" d="M815.49 235.982L817.782 235.982L817.782 238.273L815.49 238.273L815.49 235.982z"/>
<path class="l5" d="M847.571 235.982L849.862 235.982L849.862 238.273L847.571 238.273L847.571 235.982z"/>
<path class="l5" d="M816.636 197.027L814.344 195.881L816.636 194.735L816.636 197.027"/>
<path class="l5" d="M815.49 180.986L817.782 180.986L817.782 183.278L815.49 183.278L815.49 180.986z"/>
<path class="l5" d="M797.158 194.735L799.45 194.735L799.45 197.027L797.158 197.027L797.158 194.735z"/>
<path class="l5" d="M815.49 208.484L817.782 208.484L817.782 210.775L815.49 210.775L815.49 208.484z"/>
<path class="l5" d="M816.6 195.845L816.672 195.845L816.672 195.917L816.6 195.917L816.6 195.845z"/>
<path class="l5" d="M815.49 135.157L817.782 135.157L817.782 137.448L815.49 137.448L815.49 135.157z"/>
<path class="l5" d="M815.49 162.655L817.782 162.655L817.782 164.946L815.49 164.946L815.49 162.655z"/>
<path class="l5" d="M485.518 231.399L487.809 231.399L487.809 233.69L485.518 233.69L485.518 231.399z"/>
<path class="l5" d="M485.518 203.901L487.809 203.901L487.809 206.193L485.518 206.193L485.518 203.901z"/>
<path class="l5" d="M485.518 235.982L487.809 235.982L487.809 238.273L485.518 238.273L485.518 235.982z"/>
<path class="l5" d="M714.665 231.399L716.957 231.399L716.957 233.69L714.665 233.69L714.665 231.399z"/>
<path class="l5" d="M714.665 203.901L716.957 203.901L716.957 206.193L714.665 206.193L714.665 203.901z"/>
<path class="l5" d="M714.665 235.982L716.957 235.982L716.957 238.273L714.665 238.273L714.665 235.982z"/>
<path class="l5" d="M494.684 171.82L496.975 171.82L496.975 174.112L494.684 174.112L494.684 171.82z"/>
<path class="l5" d="M522.181 171.82L524.473 171.82L524.473 174.112L522.181 174.112L522.181 171.82z"/>
<path class="l5" d="M723.831 171.82L726.123 171.82L726.123 174.112L723.831 174.112L723.831 171.82z"/>
<path class="l5" d="M751.329 171.82L753.62 171.82L753.62 174.112L751.329 174.112L751.329 171.82z"/>
<path class="l5" d="M467.759 195.308L468.905 195.308L468.905 196.454L467.759 196.454L467.759 195.308z"/>
<path class="l5" d="M696.906 195.308L698.052 195.308L698.052 196.454L696.906 196.454L696.906 195.308z"/>
<path class="l5" d="M568.011 171.82L570.302 171.82L570.302 174.112L568.011 174.112L568.011 171.82z"/>
<path class="l5" d="M540.513 171.82L542.805 171.82L542.805 174.112L540.513 174.112L540.513 171.82z"/>
<path class="l5" d="M797.158 171.82L799.45 171.82L799.45 174.112L797.158 174.112L797.158 171.82z"/>
<path class="l5" d="M769.661 171.82L771.952 171.82L771.952 174.112L769.661 174.112L769.661 171.82z"/>
<path class="l6" d="M195.646 507.521L559.991 507.521"/>
<path class="l6" d="M19.2028 507.521L48.992 507.521"/>
<path class="l1" d="M587.488 420.445L587.488 447.943"/>
<path class="l1" d="M422.502 420.445L422.502 447.943"/>
<path class="l1" d="M587.488 406.697L619.569 406.697"/>
<path class="l1" d="M619.569 406.697L619.569 447.943"/>
<path class="l1" d="M587.488 328.786L587.488 347.118"/>
<path class="l1" d="M422.502 328.786L422.502 392.948"/>
<path class="l1" d="M486.664 383.782L486.664 406.697"/>
<path class="l1" d="M587.488 383.782L587.488 392.948"/>
<path class="l1" d="M486.664 406.697L569.157 406.697"/>
<path class="l1" d="M486.664 383.782L523.327 383.782"/>
<path class="l1" d="M550.825 383.782L587.488 383.782"/>
<path class="l1" d="M587.488 374.616L587.488 383.782"/>
<path class="l1" d="M816.636 420.445L816.636 447.943"/>
<path class="l1" d="M816.636 406.697L848.717 406.697"/>
<path class="l1" d="M848.717 406.697L848.717 447.943"/>
<path class="l1" d="M816.636 328.786L816.636 347.118"/>
<path class="l1" d="M715.811 383.782L715.811 406.697"/>
<path class="l1" d="M715.811 406.697L798.304 406.697"/>
<path class="l1" d="M816.636 383.782L816.636 392.948"/>
<path class="l1" d="M587.488 328.786L816.636 328.786"/>
<path class="l1" d="M422.502 328.786L587.488 328.786"/>
<path class="l1" d="M715.811 383.782L724.977 383.782"/>
<path class="l1" d="M761.64 383.782L770.806 383.782"/>
<path class="l1" d="M798.304 383.782L816.636 383.782"/>
<path class="l1" d="M816.636 374.616L816.636 383.782"/>
<path class="l1" d="M761.64 383.782L761.64 420.445"/>
<path class="l1" d="M752.475 383.782L761.64 383.782"/>
<path class="l1" d="M587.488 209.63L587.488 237.127"/>
<path class="l1" d="M587.488 195.881L619.569 195.881"/>
<path class="l1" d="M619.569 195.881L619.569 237.127"/>
<path class="l1" d="M587.488 117.971L587.488 136.303"/>
<path class="l1" d="M486.664 172.966L486.664 195.881"/>
<path class="l1" d="M486.664 195.881L569.157 195.881"/>
<path class="l1" d="M587.488 172.966L587.488 182.132"/>
<path class="l1" d="M816.636 209.63L816.636 237.127"/>
<path class="l1" d="M816.636 195.881L848.717 195.881"/>
<path class="l1" d="M848.717 195.881L848.717 237.127"/>
<path class="l1" d="M816.636 117.971L816.636 136.303"/>
<path class="l1" d="M715.811 172.966L715.811 195.881"/>
<path class="l1" d="M715.811 195.881L798.304 195.881"/>
<path class="l1" d="M587.488 117.971L816.636 117.971"/>
<path class="l1" d="M422.502 117.971L587.488 117.971"/>
<path class="l1" d="M486.664 195.881L486.664 205.047"/>
<path class="l1" d="M486.664 232.544L486.664 237.127"/>
<path class="l1" d="M715.811 232.544L715.811 237.127"/>
<path class="l1" d="M715.811 195.881L715.811 205.047"/>
<path class="l1" d="M816.636 172.966L816.636 182.132"/>
<path class="l1" d="M468.332 195.881L486.664 195.881"/>
<path class="l1" d="M697.479 195.881L715.811 195.881"/>
<path class="l1" d="M486.664 172.966L495.829 172.966"/>
<path class="l1" d="M523.327 172.966L541.659 172.966"/>
<path class="l1" d="M569.157 172.966L587.488 172.966"/>
<path class="l1" d="M587.488 163.8L587.488 172.966"/>
<path class="l1" d="M798.304 172.966L816.636 172.966"/>
<path class="l1" d="M816.636 163.8L816.636 172.966"/>
<path class="l1" d="M752.475 172.966L770.806 172.966"/>
<path class="l1" d="M715.811 172.966L724.977 172.966"/>
<circle class="l1" cx="587.488" cy="117.971" r="1.69569"/>
<circle class="l1" cx="486.664" cy="195.881" r="1.69569"/>
<circle class="l1" cx="486.664" cy="195.881" r="1.69569"/>
<circle class="l1" cx="486.664" cy="195.881" r="1.69569"/>
<circle class="l1" cx="486.664" cy="195.881" r="1.69569"/>
<circle class="l1" cx="587.488" cy="328.786" r="1.69569"/>
<circle class="l1" cx="587.488" cy="383.782" r="1.69569"/>
<circle class="l1" cx="587.488" cy="117.971" r="1.69569"/>
<circle class="l1" cx="587.488" cy="117.971" r="1.69569"/>
<circle class="l1" cx="587.488" cy="172.966" r="1.69569"/>
<circle class="l1" cx="587.488" cy="172.966" r="1.69569"/>
<circle class="l1" cx="715.811" cy="195.881" r="1.69569"/>
<circle class="l1" cx="715.811" cy="195.881" r="1.69569"/>
<circle class="l1" cx="715.811" cy="195.881" r="1.69569"/>
<circle class="l1" cx="715.811" cy="195.881" r="1.69569"/>
<circle class="l1" cx="587.488" cy="172.966" r="1.69569"/>
<circle class="l1" cx="587.488" cy="328.786" r="1.69569"/>
<circle class="l1" cx="587.488" cy="328.786" r="1.69569"/>
<circle class="l1" cx="587.488" cy="383.782" r="1.69569"/>
<circle class="l1" cx="587.488" cy="383.782" r="1.69569"/>
<circle class="l1" cx="816.636" cy="172.966" r="1.69569"/>
<circle class="l1" cx="816.636" cy="172.966" r="1.69569"/>
<circle class="l1" cx="816.636" cy="172.966" r="1.69569"/>
<circle class="l1" cx="761.64" cy="383.782" r="1.69569"/>
<circle class="l1" cx="761.64" cy="383.782" r="1.69569"/>
<circle class="l1" cx="816.636" cy="383.782" r="1.69569"/>
<circle class="l1" cx="816.636" cy="383.782" r="1.69569"/>
<circle class="l1" cx="761.64" cy="383.782" r="1.69569"/>
<circle class="l1" cx="816.636" cy="383.782" r="1.69569"/>
<text fill="#222222"  xml:space="preserve" font-size="9.53253" transform="translate(385.839, 300.778)" >Middlebrook's Method</text>
<text fill="#222222"  xml:space="preserve" font-size="9.53253" transform="translate(385.839, 89.9627)" >Tian's Method</text>
</svg>
