<svg xmlns="http://www.w3.org/2000/svg" xmlns:xlink="http://www.w3.org/1999/xlink" width="900" height="532" version="1.1">
<style type="text/css">
.l0{
  fill: #ffffff;
  stroke: #ffffff;
  stroke-linecap:round;
  stroke-linejoin:round;
  stroke-width: 0.663717;
}
.l1{
  fill: #0044ee;
  stroke: #0044ee;
  stroke-linecap:round;
  stroke-linejoin:round;
  stroke-width: 0.663717;
}
.l2{
  fill: #aaaaaa; fill-opacity: 0.2;
  stroke: #aaaaaa;
  stroke-linecap:round;
  stroke-linejoin:round;
  stroke-width: 0.663717;
}
.l3{
  fill: #222222; fill-opacity: 0.5;
  stroke: #222222;
  stroke-linecap:round;
  stroke-linejoin:round;
  stroke-width: 0.663717;
}
.l4{
  fill: #229900;
  stroke: #229900;
  stroke-linecap:round;
  stroke-linejoin:round;
  stroke-width: 0.663717;
}
.l5{
  fill: #bb2200;
  stroke: #bb2200;
  stroke-linecap:round;
  stroke-linejoin:round;
  stroke-width: 0.663717;
}
.l6{
  fill: #00ccee; fill-opacity: 0.5;
  stroke: #00ccee;
  stroke-linecap:round;
  stroke-linejoin:round;
  stroke-width: 0.663717;
}
.l7{
  fill: #ff0000; fill-opacity: 0.5;
  stroke: #ff0000;
  stroke-linecap:round;
  stroke-linejoin:round;
  stroke-width: 0.663717;
}
.l8{
  fill: #888800; fill-opacity: 0.5;
  stroke: #888800;
  stroke-linecap:round;
  stroke-linejoin:round;
  stroke-width: 0.663717;
}
.l9{
  fill: #00aaaa; fill-opacity: 0.5;
  stroke: #00aaaa;
  stroke-linecap:round;
  stroke-linejoin:round;
  stroke-width: 0.663717;
}
.l10{
  fill: #880088;
  stroke: #880088;
  stroke-linecap:round;
  stroke-linejoin:round;
  stroke-width: 0.663717;
}
.l11{
  fill: #00ff00; fill-opacity: 0.5;
  stroke: #00ff00;
  stroke-linecap:round;
  stroke-linejoin:round;
  stroke-width: 0.663717;
}
.l12{
  fill: #0000cc; fill-opacity: 0.5;
  stroke: #0000cc;
  stroke-linecap:round;
  stroke-linejoin:round;
  stroke-width: 0.663717;
}
.l13{
  fill: #666600; fill-opacity: 0.5;
  stroke: #666600;
  stroke-linecap:round;
  stroke-linejoin:round;
  stroke-width: 0.663717;
}
.l14{
  fill: #557755; fill-opacity: 0.2;
  stroke: #557755;
  stroke-linecap:round;
  stroke-linejoin:round;
  stroke-width: 0.663717;
}
.l15{
  fill: #aa2222; fill-opacity: 0.5;
  stroke: #aa2222;
  stroke-linecap:round;
  stroke-linejoin:round;
  stroke-width: 0.663717;
}
.l16{
  fill: #7ccc40; fill-opacity: 0.5;
  stroke: #7ccc40;
  stroke-linecap:round;
  stroke-linejoin:round;
  stroke-width: 0.663717;
}
.l17{
  fill: #00ffcc; fill-opacity: 0.2;
  stroke: #00ffcc;
  stroke-linecap:round;
  stroke-linejoin:round;
  stroke-width: 0.663717;
}
.l18{
  fill: #ce0097; fill-opacity: 0.5;
  stroke: #ce0097;
  stroke-linecap:round;
  stroke-linejoin:round;
  stroke-width: 0.663717;
}
.l19{
  fill: #d2d46b; fill-opacity: 0.2;
  stroke: #d2d46b;
  stroke-linecap:round;
  stroke-linejoin:round;
  stroke-width: 0.663717;
}
.l20{
  fill: #ef6158; fill-opacity: 0.2;
  stroke: #ef6158;
  stroke-linecap:round;
  stroke-linejoin:round;
  stroke-width: 0.663717;
}
.l21{
  fill: #fdb200; fill-opacity: 0.2;
  stroke: #fdb200;
  stroke-linecap:round;
  stroke-linejoin:round;
  stroke-width: 0.663717;
}
text {font-family: Sans-Serif;}
</style>
<rect class="l0" x="0" y="0" width="900" height="532"/>
<text fill="#0044ee"  xml:space="preserve" font-size="6.39135" transform="translate(362.119, 357.134)" >GND</text>
<text fill="#0044ee"  xml:space="preserve" font-size="10.5457" transform="translate(327.901, 291.385)" >v_dd</text>
<text fill="#0044ee"  xml:space="preserve" font-size="6.39135" transform="translate(411.283, 357.134)" >GND</text>
<text fill="#0044ee"  xml:space="preserve" font-size="10.5457" transform="translate(379.065, 291.385)" >v_ss</text>
<text fill="#0044ee"  xml:space="preserve" font-size="8.62832" transform="translate(812.325, 130.334)" >v_out</text>
<text fill="#0044ee"  xml:space="preserve" font-size="8.62832" transform="translate(487.466, 111.897)" >v_in</text>
<text fill="#0044ee"  xml:space="preserve" font-size="8.62832" transform="translate(682.269, 191.789)" >v_ena</text>
<text fill="#222222"  xml:space="preserve" font-size="9.58702" transform="translate(41.0151, 49.6865)" >NGSPICE</text>
<text fill="#222222"  xml:space="preserve" font-size="9.58702" style="font-family:Monospace;" transform="translate(47.1606, 76.0466)" >.temp 27</text>
<text fill="#222222"  xml:space="preserve" font-size="9.58702" style="font-family:Monospace;" transform="translate(47.1606, 98.0393)" >.ic v(v_out)=0</text>
<text fill="#222222"  xml:space="preserve" font-size="9.58702" style="font-family:Monospace;" transform="translate(47.1606, 109.036)" >.option method=gear</text>
<text fill="#222222"  xml:space="preserve" font-size="9.58702" style="font-family:Monospace;" transform="translate(47.1606, 131.028)" >.control</text>
<text fill="#222222"  xml:space="preserve" font-size="9.58702" style="font-family:Monospace;" transform="translate(47.1606, 142.025)" >tran 0.005u 15u uic</text>
<text fill="#222222"  xml:space="preserve" font-size="9.58702" style="font-family:Monospace;" transform="translate(47.1606, 153.021)" >plot v_ena v_out</text>
<text fill="#222222"  xml:space="preserve" font-size="9.58702" style="font-family:Monospace;" transform="translate(47.1606, 175.013)" >let vout_limit=0.8*0.99</text>
<text fill="#222222"  xml:space="preserve" font-size="9.58702" style="font-family:Monospace;" transform="translate(47.1606, 186.01)" >meas tran tcross WHEN v(v_out)=vout_limit</text>
<text fill="#222222"  xml:space="preserve" font-size="9.58702" style="font-family:Monospace;" transform="translate(47.1606, 197.006)" >let vena_limit=0.5*1.5</text>
<text fill="#222222"  xml:space="preserve" font-size="9.58702" style="font-family:Monospace;" transform="translate(47.1606, 208.002)" >meas tran tstart WHEN v(v_ena)=vena_limit</text>
<text fill="#222222"  xml:space="preserve" font-size="9.58702" style="font-family:Monospace;" transform="translate(47.1606, 218.999)" >let tsettle=tcross-tstart</text>
<text fill="#222222"  xml:space="preserve" font-size="9.58702" style="font-family:Monospace;" transform="translate(47.1606, 229.995)" >print tsettle</text>
<text fill="#222222"  xml:space="preserve" font-size="9.58702" style="font-family:Monospace;" transform="translate(47.1606, 251.988)" >.endc</text>
<text fill="#222222"  xml:space="preserve" font-size="6.39135" transform="translate(369.801, 311.811)" >Vdd</text>
<text fill="#222222"  xml:space="preserve" font-size="6.39135" transform="translate(369.801, 327.175)" >1.5</text>
<text fill="#222222"  xml:space="preserve" font-size="12.7827" transform="translate(280.691, 516.576)" >         ota-improved_tb-tran.sch</text>
<text fill="#222222"  xml:space="preserve" font-size="12.7827" transform="translate(280.691, 498.139)" >(c) 2024-2025 H. Pretl, Apache-2.0 license</text>
<text fill="#222222"  xml:space="preserve" font-size="12.7827" transform="translate(625.115, 498.139)" >2025-01-31  20:06:31</text>
<text fill="#222222"  xml:space="preserve" font-size="31.9567" transform="translate(139.344, 515.549)" >SCHEM</text>
<text fill="#222222"  xml:space="preserve" font-size="12.7827" transform="translate(351.364, 426.111)" >simulate</text>
<text fill="#222222"  xml:space="preserve" font-size="12.7827" transform="translate(498.857, 426.111)" >annotate OP</text>
<text fill="#222222"  xml:space="preserve" font-size="6.39135" transform="translate(655.568, 135.28)" >ota-improved</text>
<text fill="#222222"  xml:space="preserve" font-size="6.39135" transform="translate(747.751, 82.4289)" >xota</text>
<text fill="#222222"  xml:space="preserve" font-size="6.39135" transform="translate(684.153, 99.364) rotate(270)" >vdd</text>
<text fill="#222222"  xml:space="preserve" font-size="6.39135" transform="translate(702.023, 136.51)" >vout</text>
<text fill="#222222"  xml:space="preserve" font-size="6.39135" transform="translate(649.422, 118.073)" >vinp</text>
<text fill="#222222"  xml:space="preserve" font-size="6.39135" transform="translate(649.422, 154.946)" >vinn</text>
<text fill="#222222"  xml:space="preserve" font-size="6.39135" transform="translate(708.736, 113.073) rotate(270)" >ibias_5u</text>
<text fill="#222222"  xml:space="preserve" font-size="6.39135" transform="translate(708.736, 179.819) rotate(270)" >d_ena</text>
<text fill="#222222"  xml:space="preserve" font-size="6.39135" transform="translate(684.153, 179.256) rotate(270)" >vss</text>
<text fill="#222222"  xml:space="preserve" font-size="6.39135" transform="translate(418.965, 311.811)" >Vss</text>
<text fill="#222222"  xml:space="preserve" font-size="6.39135" transform="translate(418.965, 327.175)" >0</text>
<text fill="#666600"  xml:space="preserve" font-size="6.39135" transform="translate(829.788, 165.854)" >1</text>
<text fill="#666600"  xml:space="preserve" font-size="6.39135" transform="translate(829.788, 191.973)" >2</text>
<text fill="#222222"  xml:space="preserve" font-size="6.39135" transform="translate(846.079, 170.464)" >C1</text>
<text fill="#222222"  xml:space="preserve" font-size="6.39135" transform="translate(846.079, 178.145)" >50f</text>
<text fill="#222222"  xml:space="preserve" font-size="6.39135" transform="translate(846.079, 185.827)" >m=1</text>
<text fill="#222222"  xml:space="preserve" font-size="6.39135" transform="translate(480.42, 182.755)" >Vin</text>
<text fill="#222222"  xml:space="preserve" font-size="6.39135" transform="translate(480.42, 198.118)" >0.8</text>
<text fill="#222222"  xml:space="preserve" font-size="6.39135" transform="translate(720.096, 40.6393)" >I0</text>
<text fill="#222222"  xml:space="preserve" font-size="6.39135" transform="translate(720.096, 47.9702)" >dc 0 pwl(0 0 1.1u 0 1.2u 5u)</text>
<text fill="#222222"  xml:space="preserve" font-size="6.39135" transform="translate(720.096, 250.355)" >Venable</text>
<text fill="#222222"  xml:space="preserve" font-size="6.39135" transform="translate(720.096, 265.719)" >dc 0 pwl(0 0 1u 0 1.1u 1.5)</text>
<text fill="#222222"  xml:space="preserve" font-size="9.58702" transform="translate(41.0151, 406.127)" >MODEL</text>
<text fill="#222222"  xml:space="preserve" font-size="9.58702" style="font-family:Monospace;" transform="translate(47.1606, 432.487)" >.lib cornerMOSlv.lib mos_tt</text>
<text fill="#222222"  xml:space="preserve" font-size="9.58702" style="font-family:Monospace;" transform="translate(47.1606, 443.484)" >.lib cornerRES.lib res_typ</text>
<path class="l4" d="M37.9423 53.2725L80.961 53.2725"/>
<path class="l4" d="M37.9423 53.2725L37.9423 65.5636"/>
<path class="l4" d="M359.046 303.703L362.119 303.703"/>
<path class="l4" d="M360.583 302.166L360.583 305.239"/>
<path class="l4" d="M357.51 299.094L357.51 335.967"/>
<circle class="l4" cx="357.51" cy="317.53" r="9.21829" style="fill:none;" />
<path class="l4" d="M357.51 348.258L357.51 355.94"/>
<path class="l4" d="M354.437 355.94L360.583 355.94"/>
<path class="l4" d="M357.51 359.013L360.583 355.94"/>
<path class="l4" d="M354.437 355.94L357.51 359.013"/>
<path class="l4" d="M345.219 422.004L326.782 414.322L326.782 418.931L308.346 418.931L314.491 422.004L308.346 425.077L326.782 425.077L326.782 429.686L345.219 422.004"/>
<path class="l4" d="M492.711 422.004L474.275 414.322L474.275 418.931L455.838 418.931L461.984 422.004L455.838 425.077L474.275 425.077L474.275 429.686L492.711 422.004"/>
<path class="l4" d="M732.387 133.164L744.678 133.164"/>
<path class="l4" d="M634.059 114.728L646.35 114.728"/>
<path class="l4" d="M634.059 151.601L646.35 151.601"/>
<path class="l4" d="M646.35 96.2912L646.35 170.038"/>
<path class="l4" d="M646.35 170.038L732.387 133.164"/>
<path class="l4" d="M646.35 96.2912L732.387 133.164"/>
<path class="l4" d="M634.059 84.0002L744.678 84.0002"/>
<path class="l4" d="M744.678 84.0002L744.678 182.329"/>
<path class="l4" d="M634.059 182.329L744.678 182.329"/>
<path class="l4" d="M634.059 84.0002L634.059 182.329"/>
<path class="l4" d="M408.21 303.703L411.283 303.703"/>
<path class="l4" d="M409.747 302.166L409.747 305.239"/>
<path class="l4" d="M406.674 299.094L406.674 335.967"/>
<circle class="l4" cx="406.674" cy="317.53" r="9.21829" style="fill:none;" />
<path class="l4" d="M406.674 348.258L406.674 355.94"/>
<path class="l4" d="M403.601 355.94L409.747 355.94"/>
<path class="l4" d="M406.674 359.013L409.747 355.94"/>
<path class="l4" d="M403.601 355.94L406.674 359.013"/>
<path class="l4" d="M836.861 179.256L836.861 194.62"/>
<path class="l4" d="M836.861 157.747L836.861 173.11"/>
<path class="l4" d="M830.715 173.11L843.007 173.11"/>
<path class="l4" d="M830.715 179.256L843.007 179.256"/>
<path class="l4" d="M838.397 162.356L841.47 162.356"/>
<path class="l4" d="M839.934 160.819L839.934 163.892"/>
<path class="l4" d="M469.666 174.647L472.738 174.647"/>
<path class="l4" d="M471.202 173.11L471.202 176.183"/>
<path class="l4" d="M468.129 170.038L468.129 206.911"/>
<circle class="l4" cx="468.129" cy="188.474" r="9.21829" style="fill:none;" />
<path class="l4" d="M707.805 22.5449L707.805 31.7632"/>
<path class="l4" d="M707.805 50.1998L707.805 59.4181"/>
<path class="l4" d="M709.341 27.154L712.414 27.154"/>
<path class="l4" d="M710.878 25.6177L710.878 28.6904"/>
<path class="l4" d="M707.805 36.3723L707.805 42.5179L709.341 42.5179L707.805 47.127L706.269 42.5179L707.805 42.5179L707.805 36.3723"/>
<circle class="l4" cx="707.805" cy="40.9815" r="9.21829" style="fill:none;" />
<path class="l4" d="M709.341 242.248L712.414 242.248"/>
<path class="l4" d="M710.878 240.711L710.878 243.784"/>
<path class="l4" d="M707.805 237.638L707.805 274.512"/>
<circle class="l4" cx="707.805" cy="256.075" r="9.21829" style="fill:none;" />
<path class="l4" d="M37.9423 409.713L80.961 409.713"/>
<path class="l4" d="M37.9423 409.713L37.9423 422.004"/>
<path class="l5" d="M355.973 297.557L359.046 297.557L359.046 300.63L355.973 300.63L355.973 297.557z"/>
<path class="l5" d="M355.973 334.43L359.046 334.43L359.046 337.503L355.973 337.503L355.973 334.43z"/>
<path class="l5" d="M355.973 346.722L359.046 346.722L359.046 349.794L355.973 349.794L355.973 346.722z"/>
<path class="l5" d="M130.125 492.678L129.933 492.87L129.741 493.062L129.549 493.254L129.357 493.446L129.165 493.638L128.973 493.83L128.781 494.022L128.589 494.214L128.397 494.406L128.205 494.598L128.013 494.79L127.821 494.982L127.629 495.174L127.437 495.366L127.245 495.559L127.052 495.751L126.86 495.943L126.668 496.135L126.476 496.327L126.284 496.519L126.092 496.711L125.9 496.903L125.708 497.095L125.516 497.287L125.324 497.479L125.132 497.671L124.94 497.863L124.748 498.055L124.556 498.247L124.364 498.439L124.172 498.631L123.98 498.823L123.98 498.823L123.794 499.015L123.62 499.207L123.458 499.399L123.308 499.592L123.17 499.784L123.043 499.976L122.929 500.168L122.827 500.36L122.737 500.552L122.659 500.744L122.593 500.936L122.539 501.128L122.497 501.32L122.467 501.512L122.449 501.704L122.443 501.896L122.449 502.088L122.467 502.28L122.497 502.472L122.539 502.664L122.593 502.856L122.659 503.048L122.737 503.24L122.827 503.432L122.929 503.625L123.043 503.817L123.17 504.009L123.308 504.201L123.458 504.393L123.62 504.585L123.794 504.777L123.98 504.969L123.98 504.969L124.173 505.162L124.367 505.356L124.563 505.552L124.76 505.749L124.959 505.948L125.159 506.148L125.361 506.35L125.564 506.553L125.769 506.758L125.975 506.964L126.183 507.172L126.392 507.381L126.603 507.592L126.815 507.805L127.029 508.018L127.245 508.234L127.461 508.45L127.68 508.669L127.899 508.889L128.121 509.11L128.344 509.333L128.568 509.557L128.794 509.783L129.021 510.01L129.25 510.239L129.48 510.469L129.712 510.701L129.945 510.934L130.18 511.169L130.416 511.405L130.654 511.643L130.893 511.883L130.893 511.883L131.132 512.121L131.368 512.357L131.6 512.589L131.83 512.819L132.056 513.045L132.28 513.269L132.5 513.489L132.718 513.707L132.932 513.922L133.144 514.133L133.353 514.342L133.558 514.547L133.761 514.75L133.96 514.949L134.157 515.146L134.35 515.339L134.541 515.53L134.728 515.718L134.913 515.902L135.094 516.084L135.273 516.262L135.449 516.438L135.621 516.61L135.791 516.78L135.957 516.946L136.121 517.11L136.281 517.27L136.439 517.428L136.593 517.582L136.745 517.734L136.893 517.883L137.039 518.028L137.039 518.028L137.179 518.17L137.309 518.307L137.431 518.44L137.543 518.568L137.647 518.692L137.741 518.811L137.827 518.926L137.903 519.036L137.971 519.142L138.029 519.243L138.079 519.34L138.119 519.432L138.151 519.52L138.173 519.604L138.187 519.682L138.191 519.757L138.187 519.826L138.173 519.892L138.151 519.952L138.119 520.009L138.079 520.06L138.029 520.108L137.971 520.15L137.903 520.189L137.827 520.222L137.741 520.252L137.647 520.276L137.543 520.297L137.431 520.312L137.309 520.324L137.179 520.33L137.039 520.333L137.039 520.333L136.895 520.333L136.751 520.333L136.607 520.333L136.463 520.333L136.319 520.333L136.175 520.333L136.031 520.333L135.887 520.333L135.743 520.333L135.599 520.333L135.455 520.333L135.311 520.333L135.167 520.333L135.022 520.333L134.878 520.333L134.734 520.333L134.59 520.333L134.446 520.333L134.302 520.333L134.158 520.333L134.014 520.333L133.87 520.333L133.726 520.333L133.582 520.333L133.438 520.333L133.294 520.333L133.15 520.333L133.006 520.333L132.862 520.333L132.718 520.333L132.574 520.333L132.43 520.333L132.43 520.333L132.287 520.333L132.145 520.333L132.004 520.333L131.866 520.333L131.728 520.333L131.593 520.333L131.458 520.333L131.326 520.333L131.194 520.333L131.064 520.333L130.936 520.333L130.809 520.333L130.684 520.333L130.56 520.333L130.438 520.333L130.317 520.333L130.198 520.333L130.08 520.333L129.964 520.333L129.849 520.333L129.736 520.333L129.624 520.333L129.514 520.333L129.405 520.333L129.298 520.333L129.192 520.333L129.088 520.333L128.985 520.333L128.884 520.333L128.784 520.333L128.686 520.333L128.589 520.333L128.589 520.333L128.493 520.331L128.397 520.327L128.301 520.319L128.205 520.309L128.109 520.295L128.013 520.279L127.917 520.259L127.821 520.237L127.725 520.211L127.629 520.183L127.533 520.151L127.437 520.117L127.341 520.079L127.245 520.039L127.149 519.995L127.052 519.949L126.956 519.899L126.86 519.847L126.764 519.791L126.668 519.733L126.572 519.671L126.476 519.607L126.38 519.539L126.284 519.468L126.188 519.395L126.092 519.318L125.996 519.239L125.9 519.156L125.804 519.071L125.708 518.982L125.612 518.891L125.516 518.796L125.516 518.796L125.42 518.7L125.324 518.604L125.228 518.508L125.132 518.412L125.036 518.316L124.94 518.22L124.844 518.124L124.748 518.028L124.652 517.932L124.556 517.836L124.46 517.74L124.364 517.644L124.268 517.548L124.172 517.452L124.076 517.356L123.98 517.26L123.884 517.164L123.788 517.068L123.692 516.972L123.596 516.876L123.5 516.78L123.404 516.684L123.308 516.588L123.212 516.492L123.116 516.396L123.019 516.3L122.923 516.204L122.827 516.108L122.731 516.012L122.635 515.916L122.539 515.82L122.443 515.724L122.443 515.724L122.346 515.626L122.245 515.525L122.142 515.422L122.035 515.315L121.926 515.206L121.813 515.093L121.698 514.978L121.579 514.859L121.458 514.738L121.333 514.613L121.206 514.486L121.075 514.355L120.941 514.222L120.805 514.085L120.665 513.946L120.523 513.803L120.377 513.658L120.229 513.509L120.077 513.357L119.923 513.203L119.765 513.045L119.605 512.885L119.441 512.721L119.275 512.555L119.105 512.385L118.932 512.213L118.757 512.037L118.578 511.859L118.397 511.677L118.212 511.492L118.025 511.305L117.834 511.114L117.834 511.114L117.642 510.928L117.45 510.754L117.258 510.592L117.066 510.442L116.874 510.304L116.682 510.178L116.49 510.064L116.298 509.962L116.106 509.872L115.914 509.794L115.722 509.728L115.53 509.674L115.338 509.632L115.146 509.602L114.953 509.584L114.761 509.578L114.569 509.584L114.377 509.602L114.185 509.632L113.993 509.674L113.801 509.728L113.609 509.794L113.417 509.872L113.225 509.962L113.033 510.064L112.841 510.178L112.649 510.304L112.457 510.442L112.265 510.592L112.073 510.754L111.881 510.928L111.689 511.114L111.689 511.114L111.498 511.305L111.311 511.492L111.126 511.677L110.944 511.859L110.766 512.037L110.59 512.213L110.418 512.385L110.248 512.555L110.082 512.721L109.918 512.885L109.758 513.045L109.6 513.203L109.446 513.357L109.294 513.509L109.146 513.658L109 513.803L108.857 513.946L108.718 514.085L108.581 514.222L108.448 514.355L108.317 514.486L108.19 514.613L108.065 514.738L107.944 514.859L107.825 514.978L107.71 515.093L107.597 515.206L107.488 515.315L107.381 515.422L107.278 515.525L107.177 515.626L107.08 515.724L107.08 515.724L106.984 515.82L106.887 515.916L106.791 516.012L106.695 516.108L106.599 516.204L106.503 516.3L106.407 516.396L106.311 516.492L106.215 516.588L106.119 516.684L106.023 516.78L105.927 516.876L105.831 516.972L105.735 517.068L105.639 517.164L105.543 517.26L105.447 517.356L105.351 517.452L105.255 517.548L105.159 517.644L105.063 517.74L104.967 517.836L104.871 517.932L104.775 518.028L104.679 518.124L104.583 518.22L104.487 518.316L104.391 518.412L104.295 518.508L104.199 518.604L104.103 518.7L104.007 518.796L104.007 518.796L103.911 518.891L103.815 518.982L103.719 519.071L103.623 519.156L103.527 519.239L103.431 519.318L103.335 519.395L103.239 519.468L103.143 519.539L103.047 519.607L102.951 519.671L102.854 519.733L102.758 519.791L102.662 519.847L102.566 519.899L102.47 519.949L102.374 519.995L102.278 520.039L102.182 520.079L102.086 520.117L101.99 520.151L101.894 520.183L101.798 520.211L101.702 520.237L101.606 520.259L101.51 520.279L101.414 520.295L101.318 520.309L101.222 520.319L101.126 520.327L101.03 520.331L100.934 520.333L100.934 520.333L100.837 520.333L100.739 520.333L100.639 520.333L100.538 520.333L100.435 520.333L100.331 520.333L100.225 520.333L100.118 520.333L100.009 520.333L99.8987 520.333L99.787 520.333L99.6737 520.333L99.5589 520.333L99.4426 520.333L99.3249 520.333L99.2056 520.333L99.0848 520.333L98.9625 520.333L98.8387 520.333L98.7134 520.333L98.5867 520.333L98.4584 520.333L98.3286 520.333L98.1973 520.333L98.0645 520.333L97.9303 520.333L97.7945 520.333L97.6572 520.333L97.5184 520.333L97.3781 520.333L97.2363 520.333L97.093 520.333L97.093 520.333L96.949 520.333L96.805 520.333L96.6609 520.333L96.5169 520.333L96.3729 520.333L96.2288 520.333L96.0848 520.333L95.9408 520.333L95.7967 520.333L95.6527 520.333L95.5087 520.333L95.3646 520.333L95.2206 520.333L95.0765 520.333L94.9325 520.333L94.7885 520.333L94.6444 520.333L94.5004 520.333L94.3564 520.333L94.2123 520.333L94.0683 520.333L93.9243 520.333L93.7802 520.333L93.6362 520.333L93.4921 520.333L93.3481 520.333L93.2041 520.333L93.06 520.333L92.916 520.333L92.772 520.333L92.6279 520.333L92.4839 520.333L92.4839 520.333L92.3444 520.33L92.2138 520.324L92.0923 520.312L91.9798 520.297L91.8762 520.276L91.7817 520.252L91.6962 520.222L91.6197 520.189L91.5522 520.15L91.4937 520.108L91.4441 520.06L91.4036 520.009L91.3721 519.952L91.3496 519.892L91.3361 519.826L91.3316 519.757L91.3361 519.682L91.3496 519.604L91.3721 519.52L91.4036 519.432L91.4441 519.34L91.4937 519.243L91.5522 519.142L91.6197 519.036L91.6962 518.926L91.7817 518.811L91.8762 518.692L91.9798 518.568L92.0923 518.44L92.2138 518.307L92.3444 518.17L92.4839 518.028L92.4839 518.028L92.6294 517.883L92.778 517.734L92.9295 517.582L93.084 517.428L93.2416 517.27L93.4021 517.11L93.5657 516.946L93.7322 516.78L93.9018 516.61L94.0743 516.438L94.2498 516.262L94.4284 516.084L94.6099 515.902L94.7945 515.718L94.982 515.53L95.1726 515.339L95.3661 515.146L95.5627 514.949L95.7622 514.75L95.9648 514.547L96.1703 514.342L96.3789 514.133L96.5904 513.922L96.805 513.707L97.0225 513.489L97.2431 513.269L97.4666 513.045L97.6932 512.819L97.9228 512.589L98.1553 512.357L98.3909 512.121L98.6294 511.883L98.6294 511.883L98.8687 511.643L99.1065 511.405L99.3429 511.169L99.5777 510.934L99.811 510.701L100.043 510.469L100.273 510.239L100.502 510.01L100.729 509.783L100.955 509.557L101.179 509.333L101.402 509.11L101.623 508.889L101.843 508.669L102.062 508.45L102.278 508.234L102.494 508.018L102.707 507.805L102.92 507.592L103.131 507.381L103.34 507.172L103.548 506.964L103.754 506.758L103.959 506.553L104.162 506.35L104.364 506.148L104.564 505.948L104.763 505.749L104.96 505.552L105.156 505.356L105.35 505.162L105.543 504.969L105.543 504.969L105.729 504.777L105.903 504.585L106.065 504.393L106.215 504.201L106.353 504.009L106.479 503.817L106.593 503.625L106.695 503.432L106.785 503.24L106.863 503.048L106.929 502.856L106.984 502.664L107.026 502.472L107.056 502.28L107.074 502.088L107.08 501.896L107.074 501.704L107.056 501.512L107.026 501.32L106.984 501.128L106.929 500.936L106.863 500.744L106.785 500.552L106.695 500.36L106.593 500.168L106.479 499.976L106.353 499.784L106.215 499.592L106.065 499.399L105.903 499.207L105.729 499.015L105.543 498.823L105.543 498.823L105.35 498.631L105.156 498.436L104.96 498.24L104.763 498.043L104.564 497.844L104.364 497.644L104.162 497.442L103.959 497.239L103.754 497.034L103.548 496.828L103.34 496.62L103.131 496.411L102.92 496.2L102.707 495.988L102.494 495.774L102.278 495.559L102.062 495.342L101.843 495.123L101.623 494.904L101.402 494.682L101.179 494.459L100.955 494.235L100.729 494.009L100.502 493.782L100.273 493.553L100.043 493.323L99.811 493.091L99.5777 492.858L99.3429 492.623L99.1065 492.387L98.8687 492.149L98.6294 491.91L98.6294 491.91L98.3909 491.671L98.1553 491.435L97.9228 491.203L97.6932 490.973L97.4666 490.747L97.2431 490.523L97.0225 490.303L96.805 490.085L96.5904 489.871L96.3789 489.659L96.1703 489.451L95.9648 489.245L95.7622 489.042L95.5627 488.843L95.3661 488.646L95.1726 488.453L94.982 488.262L94.7945 488.075L94.6099 487.89L94.4284 487.709L94.2498 487.53L94.0743 487.354L93.9018 487.182L93.7322 487.012L93.5657 486.846L93.4021 486.682L93.2416 486.522L93.084 486.364L92.9295 486.21L92.778 486.058L92.6294 485.91L92.4839 485.764L92.4839 485.764L92.3444 485.622L92.2138 485.485L92.0923 485.352L91.9798 485.224L91.8762 485.1L91.7817 484.981L91.6962 484.866L91.6197 484.756L91.5522 484.65L91.4937 484.549L91.4441 484.452L91.4036 484.36L91.3721 484.272L91.3496 484.189L91.3361 484.11L91.3316 484.036L91.3361 483.966L91.3496 483.901L91.3721 483.84L91.4036 483.784L91.4441 483.732L91.4937 483.685L91.5522 483.642L91.6197 483.604L91.6962 483.57L91.7817 483.541L91.8762 483.516L91.9798 483.496L92.0923 483.48L92.2138 483.469L92.3444 483.462L92.4839 483.46L92.4839 483.46L92.6279 483.46L92.772 483.46L92.916 483.46L93.06 483.46L93.2041 483.46L93.3481 483.46L93.4921 483.46L93.6362 483.46L93.7802 483.46L93.9243 483.46L94.0683 483.46L94.2123 483.46L94.3564 483.46L94.5004 483.46L94.6444 483.46L94.7885 483.46L94.9325 483.46L95.0765 483.46L95.2206 483.46L95.3646 483.46L95.5087 483.46L95.6527 483.46L95.7967 483.46L95.9408 483.46L96.0848 483.46L96.2288 483.46L96.3729 483.46L96.5169 483.46L96.6609 483.46L96.805 483.46L96.949 483.46L97.093 483.46L97.093 483.46L97.2363 483.46L97.3781 483.46L97.5184 483.46L97.6572 483.46L97.7945 483.46L97.9303 483.46L98.0645 483.46L98.1973 483.46L98.3286 483.46L98.4584 483.46L98.5867 483.46L98.7134 483.46L98.8387 483.46L98.9625 483.46L99.0848 483.46L99.2056 483.46L99.3249 483.46L99.4426 483.46L99.5589 483.46L99.6737 483.46L99.787 483.46L99.8987 483.46L100.009 483.46L100.118 483.46L100.225 483.46L100.331 483.46L100.435 483.46L100.538 483.46L100.639 483.46L100.739 483.46L100.837 483.46L100.934 483.46L100.934 483.46L101.03 483.461L101.126 483.466L101.222 483.473L101.318 483.484L101.414 483.497L101.51 483.514L101.606 483.533L101.702 483.556L101.798 483.581L101.894 483.61L101.99 483.641L102.086 483.676L102.182 483.713L102.278 483.754L102.374 483.797L102.47 483.844L102.566 483.893L102.662 483.946L102.758 484.001L102.854 484.06L102.951 484.121L103.047 484.186L103.143 484.253L103.239 484.324L103.335 484.397L103.431 484.474L103.527 484.553L103.623 484.636L103.719 484.721L103.815 484.81L103.911 484.901L104.007 484.996L104.007 484.996L104.103 485.092L104.199 485.188L104.295 485.284L104.391 485.38L104.487 485.476L104.583 485.572L104.679 485.668L104.775 485.764L104.871 485.86L104.967 485.956L105.063 486.052L105.159 486.148L105.255 486.244L105.351 486.34L105.447 486.436L105.543 486.532L105.639 486.628L105.735 486.724L105.831 486.82L105.927 486.916L106.023 487.012L106.119 487.108L106.215 487.204L106.311 487.3L106.407 487.396L106.503 487.493L106.599 487.589L106.695 487.685L106.791 487.781L106.887 487.877L106.984 487.973L107.08 488.069L107.08 488.069L107.177 488.166L107.278 488.267L107.381 488.37L107.488 488.477L107.597 488.586L107.71 488.699L107.825 488.814L107.944 488.933L108.065 489.054L108.19 489.179L108.317 489.306L108.448 489.437L108.581 489.571L108.718 489.707L108.857 489.847L109 489.989L109.146 490.135L109.294 490.283L109.446 490.435L109.6 490.589L109.758 490.747L109.918 490.907L110.082 491.071L110.248 491.237L110.418 491.407L110.59 491.58L110.766 491.755L110.944 491.934L111.126 492.115L111.311 492.3L111.498 492.487L111.689 492.678L111.689 492.678L111.881 492.864L112.073 493.038L112.265 493.2L112.457 493.35L112.649 493.488L112.841 493.614L113.033 493.728L113.225 493.83L113.417 493.92L113.609 493.998L113.801 494.064L113.993 494.118L114.185 494.16L114.377 494.19L114.569 494.208L114.761 494.214L114.953 494.208L115.146 494.19L115.338 494.16L115.53 494.118L115.722 494.064L115.914 493.998L116.106 493.92L116.298 493.83L116.49 493.728L116.682 493.614L116.874 493.488L117.066 493.35L117.258 493.2L117.45 493.038L117.642 492.864L117.834 492.678L117.834 492.678L118.025 492.487L118.212 492.3L118.397 492.115L118.578 491.934L118.757 491.755L118.932 491.58L119.105 491.407L119.275 491.237L119.441 491.071L119.605 490.907L119.765 490.747L119.923 490.589L120.077 490.435L120.229 490.283L120.377 490.135L120.523 489.989L120.665 489.847L120.805 489.707L120.941 489.571L121.075 489.437L121.206 489.306L121.333 489.179L121.458 489.054L121.579 488.933L121.698 488.814L121.813 488.699L121.926 488.586L122.035 488.477L122.142 488.37L122.245 488.267L122.346 488.166L122.443 488.069L122.443 488.069L122.539 487.973L122.635 487.877L122.731 487.781L122.827 487.685L122.923 487.589L123.019 487.493L123.116 487.396L123.212 487.3L123.308 487.204L123.404 487.108L123.5 487.012L123.596 486.916L123.692 486.82L123.788 486.724L123.884 486.628L123.98 486.532L124.076 486.436L124.172 486.34L124.268 486.244L124.364 486.148L124.46 486.052L124.556 485.956L124.652 485.86L124.748 485.764L124.844 485.668L124.94 485.572L125.036 485.476L125.132 485.38L125.228 485.284L125.324 485.188L125.42 485.092L125.516 484.996L125.516 484.996L125.612 484.901L125.708 484.81L125.804 484.721L125.9 484.636L125.996 484.553L126.092 484.474L126.188 484.397L126.284 484.324L126.38 484.253L126.476 484.186L126.572 484.121L126.668 484.06L126.764 484.001L126.86 483.946L126.956 483.893L127.052 483.844L127.149 483.797L127.245 483.754L127.341 483.713L127.437 483.676L127.533 483.641L127.629 483.61L127.725 483.581L127.821 483.556L127.917 483.533L128.013 483.514L128.109 483.497L128.205 483.484L128.301 483.473L128.397 483.466L128.493 483.461L128.589 483.46L128.589 483.46L128.686 483.46L128.784 483.46L128.884 483.46L128.985 483.46L129.088 483.46L129.192 483.46L129.298 483.46L129.405 483.46L129.514 483.46L129.624 483.46L129.736 483.46L129.849 483.46L129.964 483.46L130.08 483.46L130.198 483.46L130.317 483.46L130.438 483.46L130.56 483.46L130.684 483.46L130.809 483.46L130.936 483.46L131.064 483.46L131.194 483.46L131.326 483.46L131.458 483.46L131.593 483.46L131.728 483.46L131.866 483.46L132.004 483.46L132.145 483.46L132.287 483.46L132.43 483.46L132.43 483.46L132.574 483.46L132.718 483.46L132.862 483.46L133.006 483.46L133.15 483.46L133.294 483.46L133.438 483.46L133.582 483.46L133.726 483.46L133.87 483.46L134.014 483.46L134.158 483.46L134.302 483.46L134.446 483.46L134.59 483.46L134.734 483.46L134.878 483.46L135.022 483.46L135.167 483.46L135.311 483.46L135.455 483.46L135.599 483.46L135.743 483.46L135.887 483.46L136.031 483.46L136.175 483.46L136.319 483.46L136.463 483.46L136.607 483.46L136.751 483.46L136.895 483.46L137.039 483.46L137.039 483.46L137.179 483.462L137.309 483.469L137.431 483.48L137.543 483.496L137.647 483.516L137.741 483.541L137.827 483.57L137.903 483.604L137.971 483.642L138.029 483.685L138.079 483.732L138.119 483.784L138.151 483.84L138.173 483.901L138.187 483.966L138.191 484.036L138.187 484.11L138.173 484.189L138.151 484.272L138.119 484.36L138.079 484.452L138.029 484.549L137.971 484.65L137.903 484.756L137.827 484.866L137.741 484.981L137.647 485.1L137.543 485.224L137.431 485.352L137.309 485.485L137.179 485.622L137.039 485.764L137.039 485.764L136.893 485.91L136.742 486.061L136.587 486.216L136.427 486.376L136.263 486.541L136.094 486.709L135.92 486.883L135.743 487.06L135.56 487.243L135.374 487.43L135.182 487.621L134.986 487.817L134.786 488.017L134.581 488.222L134.372 488.431L134.158 488.645L133.94 488.863L133.717 489.086L133.49 489.313L133.258 489.545L133.022 489.781L132.781 490.022L132.536 490.267L132.286 490.517L132.031 490.772L131.773 491.03L131.509 491.294L131.242 491.562L130.969 491.834L130.692 492.111L130.411 492.392L130.125 492.678"/>
<path class="l5" d="M356.742 286.034L358.278 286.034L358.278 287.571L356.742 287.571L356.742 286.034z"/>
<path class="l5" d="M681.686 82.4638L684.759 82.4638L684.759 85.5366L681.686 85.5366L681.686 82.4638z"/>
<path class="l5" d="M743.142 131.628L746.214 131.628L746.214 134.701L743.142 134.701L743.142 131.628z"/>
<path class="l5" d="M632.522 113.191L635.595 113.191L635.595 116.264L632.522 116.264L632.522 113.191z"/>
<path class="l5" d="M632.522 150.065L635.595 150.065L635.595 153.137L632.522 153.137L632.522 150.065z"/>
<path class="l5" d="M706.269 82.4638L709.341 82.4638L709.341 85.5366L706.269 85.5366L706.269 82.4638z"/>
<path class="l5" d="M706.269 180.792L709.341 180.792L709.341 183.865L706.269 183.865L706.269 180.792z"/>
<path class="l5" d="M681.686 180.792L684.759 180.792L684.759 183.865L681.686 183.865L681.686 180.792z"/>
<path class="l5" d="M405.138 297.557L408.21 297.557L408.21 300.63L405.138 300.63L405.138 297.557z"/>
<path class="l5" d="M405.138 334.43L408.21 334.43L408.21 337.503L405.138 337.503L405.138 334.43z"/>
<path class="l5" d="M405.138 346.722L408.21 346.722L408.21 349.794L405.138 349.794L405.138 346.722z"/>
<path class="l5" d="M405.906 286.034L407.442 286.034L407.442 287.571L405.906 287.571L405.906 286.034z"/>
<path class="l5" d="M835.325 156.21L838.397 156.21L838.397 159.283L835.325 159.283L835.325 156.21z"/>
<path class="l5" d="M835.325 193.083L838.397 193.083L838.397 196.156L835.325 196.156L835.325 193.083z"/>
<path class="l5" d="M836.093 132.396L837.629 132.396L837.629 133.933L836.093 133.933L836.093 132.396z"/>
<path class="l5" d="M466.593 168.501L469.666 168.501L469.666 171.574L466.593 171.574L466.593 168.501z"/>
<path class="l5" d="M466.593 205.374L469.666 205.374L469.666 208.447L466.593 208.447L466.593 205.374z"/>
<path class="l5" d="M504.234 113.96L505.771 113.96L505.771 115.496L504.234 115.496L504.234 113.96z"/>
<path class="l5" d="M706.269 21.0085L709.341 21.0085L709.341 24.0813L706.269 24.0813L706.269 21.0085z"/>
<path class="l5" d="M706.269 57.8817L709.341 57.8817L709.341 60.9545L706.269 60.9545L706.269 57.8817z"/>
<path class="l5" d="M706.269 236.102L709.341 236.102L709.341 239.175L706.269 239.175L706.269 236.102z"/>
<path class="l5" d="M706.269 272.975L709.341 272.975L709.341 276.048L706.269 276.048L706.269 272.975z"/>
<path class="l5" d="M541.588 114.44L542.164 114.44L542.164 115.016L541.588 115.016L541.588 114.44z"/>
<path class="l5" d="M762.827 132.876L763.403 132.876L763.403 133.452L762.827 133.452L762.827 132.876z"/>
<path class="l5" d="M707.517 231.205L708.093 231.205L708.093 231.781L707.517 231.781L707.517 231.205z"/>
<path class="l5" d="M707.037 193.851L708.573 193.851L708.573 195.388L707.037 195.388L707.037 193.851z"/>
<path class="l6" d="M274.545 501.896L763.115 501.896"/>
<path class="l6" d="M37.9423 501.896L77.8883 501.896"/>
<path class="l15" d="M544.18 109.35L548.021 104.741"/>
<path class="l15" d="M541.876 114.728L544.18 109.35"/>
<path class="l15" d="M548.021 97.8276L548.021 106.278"/>
<path class="l15" d="M546.485 104.741L559.544 104.741"/>
<path class="l15" d="M549.558 102.437L552.63 102.437"/>
<path class="l15" d="M552.63 100.132L552.63 102.437"/>
<path class="l15" d="M552.63 100.132L554.935 100.132"/>
<path class="l15" d="M554.935 100.132L554.935 102.437"/>
<path class="l15" d="M554.935 102.437L557.239 102.437"/>
<path class="l15" d="M557.239 100.132L557.239 102.437"/>
<path class="l15" d="M557.239 100.132L558.968 100.132"/>
<path class="l15" d="M765.419 127.787L769.26 123.178"/>
<path class="l15" d="M763.115 133.164L765.419 127.787"/>
<path class="l15" d="M769.26 116.264L769.26 124.714"/>
<path class="l15" d="M767.724 123.178L780.783 123.178"/>
<path class="l15" d="M770.797 120.873L773.869 120.873"/>
<path class="l15" d="M773.869 118.569L773.869 120.873"/>
<path class="l15" d="M773.869 118.569L776.174 118.569"/>
<path class="l15" d="M776.174 118.569L776.174 120.873"/>
<path class="l15" d="M776.174 120.873L778.478 120.873"/>
<path class="l15" d="M778.478 118.569L778.478 120.873"/>
<path class="l15" d="M778.478 118.569L780.207 118.569"/>
<path class="l15" d="M710.109 226.116L713.95 221.506"/>
<path class="l15" d="M707.805 231.493L710.109 226.116"/>
<path class="l15" d="M713.95 214.593L713.95 223.043"/>
<path class="l15" d="M712.414 221.506L725.473 221.506"/>
<path class="l15" d="M715.487 219.202L718.56 219.202"/>
<path class="l15" d="M718.56 216.897L718.56 219.202"/>
<path class="l15" d="M718.56 216.897L720.864 216.897"/>
<path class="l15" d="M720.864 216.897L720.864 219.202"/>
<path class="l15" d="M720.864 219.202L723.169 219.202"/>
<path class="l15" d="M723.169 216.897L723.169 219.202"/>
<path class="l15" d="M723.169 216.897L724.897 216.897"/>
<path class="l1" d="M357.51 335.967L357.51 348.258"/>
<path class="l1" d="M406.674 335.967L406.674 348.258"/>
<path class="l1" d="M406.674 286.803L406.674 299.094"/>
<path class="l1" d="M707.805 286.803L836.861 286.803"/>
<path class="l1" d="M683.223 10.2538L707.805 10.2538"/>
<path class="l1" d="M683.223 182.329L683.223 286.803"/>
<path class="l1" d="M836.861 194.62L836.861 286.803"/>
<path class="l1" d="M836.861 133.164L836.861 157.747"/>
<path class="l1" d="M787.697 133.164L836.861 133.164"/>
<path class="l1" d="M787.697 133.164L787.697 206.911"/>
<path class="l1" d="M744.678 133.164L787.697 133.164"/>
<path class="l1" d="M591.04 206.911L787.697 206.911"/>
<path class="l1" d="M591.04 151.601L591.04 206.911"/>
<path class="l1" d="M591.04 151.601L634.059 151.601"/>
<path class="l1" d="M468.129 206.911L468.129 286.803"/>
<path class="l1" d="M406.674 286.803L468.129 286.803"/>
<path class="l1" d="M468.129 114.728L468.129 170.038"/>
<path class="l1" d="M468.129 114.728L634.059 114.728"/>
<path class="l1" d="M707.805 10.2538L707.805 22.5449"/>
<path class="l1" d="M707.805 59.4181L707.805 84.0002"/>
<path class="l1" d="M683.223 53.2725L683.223 84.0002"/>
<path class="l1" d="M357.51 53.2725L683.223 53.2725"/>
<path class="l1" d="M357.51 53.2725L357.51 299.094"/>
<path class="l1" d="M683.223 10.2538L683.223 53.2725"/>
<path class="l1" d="M707.805 274.512L707.805 286.803"/>
<path class="l1" d="M683.223 286.803L707.805 286.803"/>
<path class="l1" d="M468.129 286.803L683.223 286.803"/>
<path class="l1" d="M707.805 182.329L707.805 237.638"/>
<circle class="l1" cx="683.223" cy="53.2725" r="2.27385"/>
<circle class="l1" cx="468.129" cy="286.803" r="2.27385"/>
<circle class="l1" cx="468.129" cy="286.803" r="2.27385"/>
<circle class="l1" cx="683.223" cy="286.803" r="2.27385"/>
<circle class="l1" cx="468.129" cy="286.803" r="2.27385"/>
<circle class="l1" cx="683.223" cy="53.2725" r="2.27385"/>
<circle class="l1" cx="683.223" cy="53.2725" r="2.27385"/>
<circle class="l1" cx="787.697" cy="133.164" r="2.27385"/>
<circle class="l1" cx="683.223" cy="286.803" r="2.27385"/>
<circle class="l1" cx="683.223" cy="286.803" r="2.27385"/>
<circle class="l1" cx="707.805" cy="286.803" r="2.27385"/>
<circle class="l1" cx="707.805" cy="286.803" r="2.27385"/>
<circle class="l1" cx="707.805" cy="286.803" r="2.27385"/>
<circle class="l1" cx="787.697" cy="133.164" r="2.27385"/>
<circle class="l1" cx="787.697" cy="133.164" r="2.27385"/>
</svg>
