<svg xmlns="http://www.w3.org/2000/svg" xmlns:xlink="http://www.w3.org/1999/xlink" width="900" height="509" version="1.1">
<style type="text/css">
.l0{
  fill: #ffffff;
  stroke: #ffffff;
  stroke-linecap:round;
  stroke-linejoin:round;
  stroke-width: 0.546341;
}
.l1{
  fill: #0044ee;
  stroke: #0044ee;
  stroke-linecap:round;
  stroke-linejoin:round;
  stroke-width: 0.546341;
}
.l2{
  fill: #aaaaaa; fill-opacity: 0.2;
  stroke: #aaaaaa;
  stroke-linecap:round;
  stroke-linejoin:round;
  stroke-width: 0.546341;
}
.l3{
  fill: #222222; fill-opacity: 0.5;
  stroke: #222222;
  stroke-linecap:round;
  stroke-linejoin:round;
  stroke-width: 0.546341;
}
.l4{
  fill: #229900;
  stroke: #229900;
  stroke-linecap:round;
  stroke-linejoin:round;
  stroke-width: 0.546341;
}
.l5{
  fill: #bb2200;
  stroke: #bb2200;
  stroke-linecap:round;
  stroke-linejoin:round;
  stroke-width: 0.546341;
}
.l6{
  fill: #00ccee; fill-opacity: 0.5;
  stroke: #00ccee;
  stroke-linecap:round;
  stroke-linejoin:round;
  stroke-width: 0.546341;
}
.l7{
  fill: #ff0000; fill-opacity: 0.5;
  stroke: #ff0000;
  stroke-linecap:round;
  stroke-linejoin:round;
  stroke-width: 0.546341;
}
.l8{
  fill: #888800; fill-opacity: 0.5;
  stroke: #888800;
  stroke-linecap:round;
  stroke-linejoin:round;
  stroke-width: 0.546341;
}
.l9{
  fill: #00aaaa; fill-opacity: 0.5;
  stroke: #00aaaa;
  stroke-linecap:round;
  stroke-linejoin:round;
  stroke-width: 0.546341;
}
.l10{
  fill: #880088;
  stroke: #880088;
  stroke-linecap:round;
  stroke-linejoin:round;
  stroke-width: 0.546341;
}
.l11{
  fill: #00ff00; fill-opacity: 0.5;
  stroke: #00ff00;
  stroke-linecap:round;
  stroke-linejoin:round;
  stroke-width: 0.546341;
}
.l12{
  fill: #0000cc; fill-opacity: 0.5;
  stroke: #0000cc;
  stroke-linecap:round;
  stroke-linejoin:round;
  stroke-width: 0.546341;
}
.l13{
  fill: #666600; fill-opacity: 0.5;
  stroke: #666600;
  stroke-linecap:round;
  stroke-linejoin:round;
  stroke-width: 0.546341;
}
.l14{
  fill: #557755; fill-opacity: 0.2;
  stroke: #557755;
  stroke-linecap:round;
  stroke-linejoin:round;
  stroke-width: 0.546341;
}
.l15{
  fill: #aa2222; fill-opacity: 0.5;
  stroke: #aa2222;
  stroke-linecap:round;
  stroke-linejoin:round;
  stroke-width: 0.546341;
}
.l16{
  fill: #7ccc40; fill-opacity: 0.5;
  stroke: #7ccc40;
  stroke-linecap:round;
  stroke-linejoin:round;
  stroke-width: 0.546341;
}
.l17{
  fill: #00ffcc; fill-opacity: 0.2;
  stroke: #00ffcc;
  stroke-linecap:round;
  stroke-linejoin:round;
  stroke-width: 0.546341;
}
.l18{
  fill: #ce0097; fill-opacity: 0.5;
  stroke: #ce0097;
  stroke-linecap:round;
  stroke-linejoin:round;
  stroke-width: 0.546341;
}
.l19{
  fill: #d2d46b; fill-opacity: 0.2;
  stroke: #d2d46b;
  stroke-linecap:round;
  stroke-linejoin:round;
  stroke-width: 0.546341;
}
.l20{
  fill: #ef6158; fill-opacity: 0.2;
  stroke: #ef6158;
  stroke-linecap:round;
  stroke-linejoin:round;
  stroke-width: 0.546341;
}
.l21{
  fill: #fdb200; fill-opacity: 0.2;
  stroke: #fdb200;
  stroke-linecap:round;
  stroke-linejoin:round;
  stroke-width: 0.546341;
}
text {font-family: Sans-Serif;}
</style>
<rect class="l0" x="0" y="0" width="900" height="509"/>
<text fill="#0044ee"  xml:space="preserve" font-size="5.26106" transform="translate(484.146, 449.99)" >GND</text>
<text fill="#0044ee"  xml:space="preserve" font-size="5.26106" transform="translate(418.383, 449.99)" >GND</text>
<text fill="#0044ee"  xml:space="preserve" font-size="5.26106" transform="translate(549.91, 449.99)" >GND</text>
<text fill="#0044ee"  xml:space="preserve" font-size="5.26106" transform="translate(519.557, 449.99)" >GND</text>
<text fill="#0044ee"  xml:space="preserve" font-size="7.10243" transform="translate(408.324, 374.591)" >g</text>
<text fill="#0044ee"  xml:space="preserve" font-size="7.10243" transform="translate(474.088, 318.945)" >d</text>
<text fill="#0044ee"  xml:space="preserve" font-size="7.10243" transform="translate(517.028, 374.591)" >b</text>
<text fill="#0044ee"  xml:space="preserve" font-size="5.26106" transform="translate(595.438, 449.99)" >GND</text>
<text fill="#0044ee"  xml:space="preserve" font-size="8.68074" transform="translate(581.85, 390.81)" >n</text>
<text fill="#222222"  xml:space="preserve" font-size="7.89159" transform="translate(154.066, 439.732)" >MODEL</text>
<text fill="#222222"  xml:space="preserve" font-size="7.89159" style="font-family:Monospace;" transform="translate(159.124, 452.379)" >.lib cornerMOSlv.lib mos_tt</text>
<text fill="#222222"  xml:space="preserve" font-size="7.89159" transform="translate(154.066, 14.8006)" >NGSPICE_CTRL</text>
<text fill="#222222"  xml:space="preserve" font-size="7.89159" style="font-family:Monospace;" transform="translate(159.124, 36.499)" >.option sparse</text>
<text fill="#222222"  xml:space="preserve" font-size="7.89159" style="font-family:Monospace;" transform="translate(159.124, 45.5506)" >.param temp=27</text>
<text fill="#222222"  xml:space="preserve" font-size="7.89159" style="font-family:Monospace;" transform="translate(159.124, 54.6023)" >.param wx=5u lx=0.13u vbx=0</text>
<text fill="#222222"  xml:space="preserve" font-size="7.89159" style="font-family:Monospace;" transform="translate(159.124, 63.6539)" >.noise v(n) vg lin 1 1 1 1</text>
<text fill="#222222"  xml:space="preserve" font-size="7.89159" style="font-family:Monospace;" transform="translate(159.124, 72.7056)" >.control</text>
<text fill="#222222"  xml:space="preserve" font-size="7.89159" style="font-family:Monospace;" transform="translate(159.124, 81.7572)" >option numdgt=3</text>
<text fill="#222222"  xml:space="preserve" font-size="7.89159" style="font-family:Monospace;" transform="translate(159.124, 90.8089)" >set wr_singlescale</text>
<text fill="#222222"  xml:space="preserve" font-size="7.89159" style="font-family:Monospace;" transform="translate(159.124, 99.8605)" >set wr_vecnames</text>
<text fill="#222222"  xml:space="preserve" font-size="7.89159" style="font-family:Monospace;" transform="translate(159.124, 117.964)" >compose l_vec  values 0.13u 0.2u 0.3u 0.4u 0.5u 1u 5u 10u</text>
<text fill="#222222"  xml:space="preserve" font-size="7.89159" style="font-family:Monospace;" transform="translate(159.124, 127.015)" >compose vg_vec start= 0 stop=1.5  step=25m</text>
<text fill="#222222"  xml:space="preserve" font-size="7.89159" style="font-family:Monospace;" transform="translate(159.124, 136.067)" >compose vd_vec start= 0 stop=1.5  step=25m</text>
<text fill="#222222"  xml:space="preserve" font-size="7.89159" style="font-family:Monospace;" transform="translate(159.124, 145.119)" >compose vb_vec values 0 0.4 0.8 1.2</text>
<text fill="#222222"  xml:space="preserve" font-size="7.89159" style="font-family:Monospace;" transform="translate(159.124, 163.222)" >foreach var1 $&amp;l_vec</text>
<text fill="#222222"  xml:space="preserve" font-size="7.89159" style="font-family:Monospace;" transform="translate(159.124, 172.274)" >  alterparam lx=$var1</text>
<text fill="#222222"  xml:space="preserve" font-size="7.89159" style="font-family:Monospace;" transform="translate(159.124, 181.325)" >  reset</text>
<text fill="#222222"  xml:space="preserve" font-size="7.89159" style="font-family:Monospace;" transform="translate(159.124, 190.377)" >  foreach var2 $&amp;vg_vec</text>
<text fill="#222222"  xml:space="preserve" font-size="7.89159" style="font-family:Monospace;" transform="translate(159.124, 199.429)" >    alter vg $var2</text>
<text fill="#222222"  xml:space="preserve" font-size="7.89159" style="font-family:Monospace;" transform="translate(159.124, 208.48)" >    foreach var3 $&amp;vd_vec</text>
<text fill="#222222"  xml:space="preserve" font-size="7.89159" style="font-family:Monospace;" transform="translate(159.124, 217.532)" >      alter vd $var3</text>
<text fill="#222222"  xml:space="preserve" font-size="7.89159" style="font-family:Monospace;" transform="translate(159.124, 226.584)" >      foreach var4 $&amp;vb_vec</text>
<text fill="#222222"  xml:space="preserve" font-size="7.89159" style="font-family:Monospace;" transform="translate(159.124, 235.635)" >        alter vsb $var4</text>
<text fill="#222222"  xml:space="preserve" font-size="7.89159" style="font-family:Monospace;" transform="translate(159.124, 244.687)" >        run </text>
<text fill="#222222"  xml:space="preserve" font-size="7.89159" style="font-family:Monospace;" transform="translate(159.124, 253.739)" >        wrdata techsweep_sg13_lv_nmos.txt noise1.all</text>
<text fill="#222222"  xml:space="preserve" font-size="7.89159" style="font-family:Monospace;" transform="translate(159.124, 262.79)" >        destroy all</text>
<text fill="#222222"  xml:space="preserve" font-size="7.89159" style="font-family:Monospace;" transform="translate(159.124, 271.842)" >        set appendwrite</text>
<text fill="#222222"  xml:space="preserve" font-size="7.89159" style="font-family:Monospace;" transform="translate(159.124, 280.894)" >        unset set wr_vecnames</text>
<text fill="#222222"  xml:space="preserve" font-size="7.89159" style="font-family:Monospace;" transform="translate(159.124, 289.945)" >      end</text>
<text fill="#222222"  xml:space="preserve" font-size="7.89159" style="font-family:Monospace;" transform="translate(159.124, 298.997)" >    end</text>
<text fill="#222222"  xml:space="preserve" font-size="7.89159" style="font-family:Monospace;" transform="translate(159.124, 308.048)" >  end</text>
<text fill="#222222"  xml:space="preserve" font-size="7.89159" style="font-family:Monospace;" transform="translate(159.124, 317.1)" >end</text>
<text fill="#222222"  xml:space="preserve" font-size="7.89159" style="font-family:Monospace;" transform="translate(159.124, 335.203)" >set appendwrite=0</text>
<text fill="#222222"  xml:space="preserve" font-size="7.89159" style="font-family:Monospace;" transform="translate(159.124, 353.307)" >alterparam lx=0.13u</text>
<text fill="#222222"  xml:space="preserve" font-size="7.89159" style="font-family:Monospace;" transform="translate(159.124, 362.358)" >alterparam vbx=0</text>
<text fill="#222222"  xml:space="preserve" font-size="7.89159" style="font-family:Monospace;" transform="translate(159.124, 371.41)" >reset</text>
<text fill="#222222"  xml:space="preserve" font-size="7.89159" style="font-family:Monospace;" transform="translate(159.124, 380.462)" >op</text>
<text fill="#222222"  xml:space="preserve" font-size="7.89159" style="font-family:Monospace;" transform="translate(159.124, 389.513)" >*showmod</text>
<text fill="#222222"  xml:space="preserve" font-size="7.89159" style="font-family:Monospace;" transform="translate(159.124, 398.565)" >show</text>
<text fill="#222222"  xml:space="preserve" font-size="7.89159" style="font-family:Monospace;" transform="translate(159.124, 407.617)" >write techsweep_sg13g2_lv_nmos.raw</text>
<text fill="#222222"  xml:space="preserve" font-size="7.89159" style="font-family:Monospace;" transform="translate(159.124, 416.668)" >.endc</text>
<text fill="#222222"  xml:space="preserve" font-size="5.26106" transform="translate(424.706, 412.682)" >vg</text>
<text fill="#222222"  xml:space="preserve" font-size="5.26106" transform="translate(424.706, 425.329)" >0.65 AC 1</text>
<text fill="#222222"  xml:space="preserve" font-size="5.26106" transform="translate(556.233, 372.213)" >vd</text>
<text fill="#222222"  xml:space="preserve" font-size="5.26106" transform="translate(556.233, 384.859)" >0.75</text>
<text fill="#222222"  xml:space="preserve" font-size="10.5221" transform="translate(351.355, 495.237)" >         /foss/designs/xschem/techsweep_sg13g2_lv_nmos.sch</text>
<text fill="#222222"  xml:space="preserve" font-size="10.5221" transform="translate(351.355, 480.061)" >(c) 2024 Harald Pretl (adapted from Boris Murmann)</text>
<text fill="#222222"  xml:space="preserve" font-size="10.5221" transform="translate(628.464, 480.061)" >2024-08-19  13:13:30</text>
<text fill="#222222"  xml:space="preserve" font-size="26.3053" transform="translate(235.005, 494.392)" >SCHEM</text>
<text fill="#222222"  xml:space="preserve" font-size="5.26106" transform="translate(464.764, 390.839)" >M1</text>
<text fill="#ff0000"  xml:space="preserve" font-size="3.94579" transform="translate(481.617, 367.125)" >D</text>
<text fill="#ff0000"  xml:space="preserve" font-size="3.94579" transform="translate(481.617, 389.356)" >S</text>
<text fill="#ff0000"  xml:space="preserve" font-size="3.94579" transform="translate(480.352, 381.036)" >B</text>
<text fill="#ff0000"  xml:space="preserve" font-size="3.94579" transform="translate(462.176, 381.036)" >G</text>
<text fill="#222222"  xml:space="preserve" font-size="5.26106" transform="translate(485.411, 365.889)" >sg13_lv_nmos</text>
<text fill="#666600"  xml:space="preserve" font-size="5.26106" transform="translate(486.043, 388.942)" >m=1</text>
<text fill="#666600"  xml:space="preserve" font-size="5.26106" transform="translate(486.043, 385.148)" >ng=1</text>
<text fill="#666600"  xml:space="preserve" font-size="5.26106" transform="translate(486.043, 380.09)" >l={lx}</text>
<text fill="#666600"  xml:space="preserve" font-size="5.26106" transform="translate(486.043, 375.031)" >w={wx}</text>
<text fill="#222222"  xml:space="preserve" font-size="10.5221" transform="translate(374.119, 314.712)" >simulate</text>
<text fill="#222222"  xml:space="preserve" font-size="10.5221" transform="translate(374.119, 334.946)" >annotate OP</text>
<text fill="#aa2222"  xml:space="preserve" font-size="5.26106" transform="translate(660.311, 343.998)" >? </text>
<text fill="#aa2222"  xml:space="preserve" font-size="5.26106" transform="translate(652.311, 337.675)" >gds=</text>
<text fill="#aa2222"  xml:space="preserve" font-size="5.26106" transform="translate(660.311, 328.822)" >? </text>
<text fill="#aa2222"  xml:space="preserve" font-size="5.26106" transform="translate(653.311, 322.499)" >gm=</text>
<text fill="#aa2222"  xml:space="preserve" font-size="5.26106" transform="translate(660.311, 359.174)" >? </text>
<text fill="#aa2222"  xml:space="preserve" font-size="5.26106" transform="translate(653.311, 352.851)" >vth=</text>
<text fill="#aa2222"  xml:space="preserve" font-size="5.26106" transform="translate(660.311, 389.527)" >? </text>
<text fill="#aa2222"  xml:space="preserve" font-size="5.26106" transform="translate(652.311, 383.203)" >cgs=</text>
<text fill="#aa2222"  xml:space="preserve" font-size="5.26106" transform="translate(660.311, 374.35)" >? </text>
<text fill="#aa2222"  xml:space="preserve" font-size="5.26106" transform="translate(625.311, 368.027)" >vdss(vds_sat)=</text>
<text fill="#aa2222"  xml:space="preserve" font-size="5.26106" transform="translate(660.311, 404.703)" >? </text>
<text fill="#aa2222"  xml:space="preserve" font-size="5.26106" transform="translate(642.311, 398.379)" >fug(f_t)=</text>
<text fill="#aa2222"  xml:space="preserve" font-size="5.26106" transform="translate(660.311, 419.879)" >? </text>
<text fill="#aa2222"  xml:space="preserve" font-size="5.26106" transform="translate(652.311, 413.555)" >cdg=</text>
<text fill="#aa2222"  xml:space="preserve" font-size="5.26106" transform="translate(660.311, 450.231)" >? </text>
<text fill="#aa2222"  xml:space="preserve" font-size="5.26106" transform="translate(654.311, 443.908)" >sid=</text>
<text fill="#aa2222"  xml:space="preserve" font-size="5.26106" transform="translate(660.311, 435.055)" >? </text>
<text fill="#aa2222"  xml:space="preserve" font-size="5.26106" transform="translate(656.311, 428.732)" >rg=</text>
<text fill="#222222"  xml:space="preserve" font-size="5.26106" transform="translate(525.881, 425.618)" >vsb</text>
<text fill="#222222"  xml:space="preserve" font-size="5.26106" transform="translate(525.881, 412.971)" >{vbx}</text>
<text fill="#222222"  xml:space="preserve" font-size="7.89159" transform="translate(467.705, 14.8006)" >NGSPICE_SAVE</text>
<text fill="#222222"  xml:space="preserve" font-size="7.89159" style="font-family:Monospace;" transform="translate(472.764, 36.499)" >.save b d g n</text>
<text fill="#222222"  xml:space="preserve" font-size="7.89159" style="font-family:Monospace;" transform="translate(472.764, 45.5506)" >.save @n.xm1.nsg13_lv_nmos[cgsol]</text>
<text fill="#222222"  xml:space="preserve" font-size="7.89159" style="font-family:Monospace;" transform="translate(472.764, 54.6023)" >.save @n.xm1.nsg13_lv_nmos[cgdol]</text>
<text fill="#222222"  xml:space="preserve" font-size="7.89159" style="font-family:Monospace;" transform="translate(472.764, 63.6539)" >.save @n.xm1.nsg13_lv_nmos[cdd]</text>
<text fill="#222222"  xml:space="preserve" font-size="7.89159" style="font-family:Monospace;" transform="translate(472.764, 72.7056)" >.save @n.xm1.nsg13_lv_nmos[cgb]</text>
<text fill="#222222"  xml:space="preserve" font-size="7.89159" style="font-family:Monospace;" transform="translate(472.764, 81.7572)" >.save @n.xm1.nsg13_lv_nmos[cgd]</text>
<text fill="#222222"  xml:space="preserve" font-size="7.89159" style="font-family:Monospace;" transform="translate(472.764, 90.8089)" >.save @n.xm1.nsg13_lv_nmos[cgg]</text>
<text fill="#222222"  xml:space="preserve" font-size="7.89159" style="font-family:Monospace;" transform="translate(472.764, 99.8605)" >.save @n.xm1.nsg13_lv_nmos[cgs]</text>
<text fill="#222222"  xml:space="preserve" font-size="7.89159" style="font-family:Monospace;" transform="translate(472.764, 108.912)" >.save @n.xm1.nsg13_lv_nmos[css]</text>
<text fill="#222222"  xml:space="preserve" font-size="7.89159" style="font-family:Monospace;" transform="translate(472.764, 117.964)" >.save @n.xm1.nsg13_lv_nmos[gds]</text>
<text fill="#222222"  xml:space="preserve" font-size="7.89159" style="font-family:Monospace;" transform="translate(472.764, 127.015)" >.save @n.xm1.nsg13_lv_nmos[gm]</text>
<text fill="#222222"  xml:space="preserve" font-size="7.89159" style="font-family:Monospace;" transform="translate(472.764, 136.067)" >.save @n.xm1.nsg13_lv_nmos[gmb]</text>
<text fill="#222222"  xml:space="preserve" font-size="7.89159" style="font-family:Monospace;" transform="translate(472.764, 145.119)" >.save @n.xm1.nsg13_lv_nmos[ids]</text>
<text fill="#222222"  xml:space="preserve" font-size="7.89159" style="font-family:Monospace;" transform="translate(472.764, 154.17)" >.save @n.xm1.nsg13_lv_nmos[l]</text>
<text fill="#222222"  xml:space="preserve" font-size="7.89159" style="font-family:Monospace;" transform="translate(472.764, 163.222)" >.save @n.xm1.nsg13_lv_nmos[vgs]</text>
<text fill="#222222"  xml:space="preserve" font-size="7.89159" style="font-family:Monospace;" transform="translate(472.764, 172.274)" >.save @n.xm1.nsg13_lv_nmos[vds]</text>
<text fill="#222222"  xml:space="preserve" font-size="7.89159" style="font-family:Monospace;" transform="translate(472.764, 181.325)" >.save @n.xm1.nsg13_lv_nmos[vsb]</text>
<text fill="#222222"  xml:space="preserve" font-size="7.89159" style="font-family:Monospace;" transform="translate(472.764, 190.377)" >.save @n.xm1.nsg13_lv_nmos[vth]</text>
<text fill="#222222"  xml:space="preserve" font-size="7.89159" style="font-family:Monospace;" transform="translate(472.764, 199.429)" >.save @n.xm1.nsg13_lv_nmos[vdss]</text>
<text fill="#222222"  xml:space="preserve" font-size="7.89159" style="font-family:Monospace;" transform="translate(472.764, 208.48)" >.save @n.xm1.nsg13_lv_nmos[fug]</text>
<text fill="#222222"  xml:space="preserve" font-size="7.89159" style="font-family:Monospace;" transform="translate(472.764, 217.532)" >.save @n.xm1.nsg13_lv_nmos[sid]</text>
<text fill="#222222"  xml:space="preserve" font-size="7.89159" style="font-family:Monospace;" transform="translate(472.764, 226.584)" >.save @n.xm1.nsg13_lv_nmos[sfl]</text>
<text fill="#222222"  xml:space="preserve" font-size="7.89159" style="font-family:Monospace;" transform="translate(472.764, 235.635)" >.save @n.xm1.nsg13_lv_nmos[cjd]</text>
<text fill="#222222"  xml:space="preserve" font-size="7.89159" style="font-family:Monospace;" transform="translate(472.764, 244.687)" >.save @n.xm1.nsg13_lv_nmos[cjs]</text>
<text fill="#222222"  xml:space="preserve" font-size="7.89159" style="font-family:Monospace;" transform="translate(472.764, 253.739)" >.save @n.xm1.nsg13_lv_nmos[rg]</text>
<text fill="#222222"  xml:space="preserve" font-size="5.26106" transform="translate(604.291, 427.226)" >1</text>
<text fill="#222222"  xml:space="preserve" font-size="5.26106" transform="translate(604.291, 414.579)" >H4</text>
<text fill="#222222"  xml:space="preserve" font-size="5.26106" transform="translate(604.291, 420.903)" >vd</text>
<path class="l4" d="M151.536 442.684L186.947 442.684"/>
<path class="l4" d="M151.536 442.684L151.536 452.801"/>
<path class="l4" d="M151.536 17.7524L186.947 17.7524"/>
<path class="l4" d="M151.536 17.7524L151.536 27.8698"/>
<path class="l4" d="M480.352 442.684L480.352 449.007"/>
<path class="l4" d="M477.823 449.007L482.882 449.007"/>
<path class="l4" d="M480.352 451.537L482.882 449.007"/>
<path class="l4" d="M477.823 449.007L480.352 451.537"/>
<path class="l4" d="M414.589 442.684L414.589 449.007"/>
<path class="l4" d="M412.06 449.007L417.118 449.007"/>
<path class="l4" d="M414.589 451.537L417.118 449.007"/>
<path class="l4" d="M412.06 449.007L414.589 451.537"/>
<path class="l4" d="M415.854 406.008L418.383 406.008"/>
<path class="l4" d="M417.118 404.744L417.118 407.273"/>
<path class="l4" d="M414.589 402.214L414.589 432.567"/>
<circle class="l4" cx="414.589" cy="417.39" r="7.58806" style="fill:none;" />
<path class="l4" d="M547.38 365.539L549.91 365.539"/>
<path class="l4" d="M548.645 364.274L548.645 366.803"/>
<path class="l4" d="M546.115 361.745L546.115 392.097"/>
<circle class="l4" cx="546.115" cy="376.921" r="7.58806" style="fill:none;" />
<path class="l4" d="M546.115 442.684L546.115 449.007"/>
<path class="l4" d="M543.586 449.007L548.645 449.007"/>
<path class="l4" d="M546.115 451.537L548.645 449.007"/>
<path class="l4" d="M543.586 449.007L546.115 451.537"/>
<path class="l4" d="M515.763 442.684L515.763 449.007"/>
<path class="l4" d="M513.234 449.007L518.293 449.007"/>
<path class="l4" d="M515.763 451.537L518.293 449.007"/>
<path class="l4" d="M513.234 449.007L515.763 451.537"/>
<path class="l4" d="M474.029 365.539L474.029 388.303"/>
<path class="l4" d="M480.352 385.773L480.352 392.097"/>
<path class="l4" d="M480.352 361.745L480.352 368.068"/>
<path class="l4" d="M471.5 369.333L471.5 384.509"/>
<path class="l4" d="M474.029 368.068L480.352 368.068"/>
<path class="l4" d="M474.029 385.773L480.352 385.773"/>
<path class="l4" d="M460.117 376.921L471.247 376.921"/>
<path class="l4" d="M476.558 384.509L479.088 385.773L476.558 387.038L476.558 384.509"/>
<path class="l4" d="M369.061 311.158L353.885 304.834L353.885 308.628L338.708 308.628L343.767 311.158L338.708 313.687L353.885 313.687L353.885 317.481L369.061 311.158"/>
<path class="l4" d="M369.061 331.392L353.885 325.069L353.885 328.863L338.708 328.863L343.767 331.392L338.708 333.922L353.885 333.922L353.885 337.716L369.061 331.392"/>
<path class="l4" d="M517.028 428.773L519.557 428.773"/>
<path class="l4" d="M518.293 427.508L518.293 430.037"/>
<path class="l4" d="M515.763 402.214L515.763 432.567"/>
<circle class="l4" cx="515.763" cy="417.39" r="7.58806" style="fill:none;" />
<path class="l4" d="M465.176 17.7524L500.587 17.7524"/>
<path class="l4" d="M465.176 17.7524L465.176 27.8698"/>
<path class="l4" d="M591.644 407.273L601.761 417.39"/>
<path class="l4" d="M581.526 417.39L591.644 407.273"/>
<path class="l4" d="M581.526 417.39L591.644 427.508"/>
<path class="l4" d="M591.644 427.508L601.761 417.39"/>
<path class="l4" d="M591.644 402.214L591.644 432.567"/>
<path class="l4" d="M596.703 407.273L601.761 407.273"/>
<path class="l4" d="M599.232 404.744L599.232 409.802"/>
<path class="l4" d="M591.644 442.684L591.644 449.007"/>
<path class="l4" d="M589.114 449.007L594.173 449.007"/>
<path class="l4" d="M591.644 451.537L594.173 449.007"/>
<path class="l4" d="M589.114 449.007L591.644 451.537"/>
<path class="l5" d="M479.088 441.419L481.617 441.419L481.617 443.949L479.088 443.949L479.088 441.419z"/>
<path class="l5" d="M413.324 441.419L415.854 441.419L415.854 443.949L413.324 443.949L413.324 441.419z"/>
<path class="l5" d="M413.324 400.95L415.854 400.95L415.854 403.479L413.324 403.479L413.324 400.95z"/>
<path class="l5" d="M413.324 431.302L415.854 431.302L415.854 433.831L413.324 433.831L413.324 431.302z"/>
<path class="l5" d="M544.851 360.48L547.38 360.48L547.38 363.009L544.851 363.009L544.851 360.48z"/>
<path class="l5" d="M544.851 390.832L547.38 390.832L547.38 393.362L544.851 393.362L544.851 390.832z"/>
<path class="l5" d="M544.851 441.419L547.38 441.419L547.38 443.949L544.851 443.949L544.851 441.419z"/>
<path class="l5" d="M514.499 441.419L517.028 441.419L517.028 443.949L514.499 443.949L514.499 441.419z"/>
<path class="l5" d="M227.417 475.566L227.259 475.724L227.101 475.882L226.943 476.04L226.784 476.198L226.626 476.356L226.468 476.514L226.31 476.672L226.152 476.83L225.994 476.988L225.836 477.146L225.678 477.305L225.52 477.463L225.362 477.621L225.204 477.779L225.046 477.937L224.887 478.095L224.729 478.253L224.571 478.411L224.413 478.569L224.255 478.727L224.097 478.885L223.939 479.043L223.781 479.202L223.623 479.36L223.465 479.518L223.307 479.676L223.149 479.834L222.99 479.992L222.832 480.15L222.674 480.308L222.516 480.466L222.358 480.624L222.358 480.624L222.205 480.782L222.062 480.94L221.928 481.099L221.805 481.257L221.691 481.415L221.587 481.573L221.494 481.731L221.41 481.889L221.335 482.047L221.271 482.205L221.217 482.363L221.172 482.521L221.138 482.679L221.113 482.837L221.098 482.996L221.093 483.154L221.098 483.312L221.113 483.47L221.138 483.628L221.172 483.786L221.217 483.944L221.271 484.102L221.335 484.26L221.41 484.418L221.494 484.576L221.587 484.734L221.691 484.893L221.805 485.051L221.928 485.209L222.062 485.367L222.205 485.525L222.358 485.683L222.358 485.683L222.517 485.842L222.677 486.002L222.838 486.163L223 486.325L223.164 486.489L223.329 486.654L223.495 486.82L223.662 486.987L223.831 487.156L224.001 487.326L224.172 487.497L224.344 487.669L224.518 487.842L224.692 488.017L224.868 488.193L225.046 488.37L225.224 488.549L225.404 488.729L225.585 488.91L225.767 489.092L225.95 489.275L226.135 489.46L226.321 489.646L226.508 489.833L226.696 490.021L226.886 490.211L227.077 490.401L227.269 490.594L227.462 490.787L227.656 490.981L227.852 491.177L228.049 491.374L228.049 491.374L228.246 491.57L228.439 491.764L228.631 491.956L228.82 492.145L229.006 492.331L229.19 492.515L229.372 492.697L229.551 492.876L229.728 493.052L229.902 493.227L230.073 493.398L230.243 493.567L230.409 493.734L230.574 493.898L230.735 494.06L230.895 494.22L231.052 494.376L231.206 494.531L231.358 494.683L231.507 494.832L231.654 494.979L231.799 495.124L231.941 495.266L232.08 495.405L232.217 495.542L232.352 495.677L232.484 495.809L232.614 495.939L232.741 496.066L232.866 496.191L232.988 496.313L233.108 496.433L233.108 496.433L233.223 496.549L233.33 496.662L233.43 496.772L233.523 496.877L233.608 496.979L233.686 497.077L233.756 497.172L233.819 497.263L233.875 497.35L233.923 497.433L233.964 497.513L233.997 497.589L234.023 497.661L234.042 497.73L234.053 497.794L234.056 497.856L234.053 497.913L234.042 497.967L234.023 498.017L233.997 498.063L233.964 498.106L233.923 498.145L233.875 498.18L233.819 498.211L233.756 498.239L233.686 498.263L233.608 498.283L233.523 498.3L233.43 498.313L233.33 498.322L233.223 498.328L233.108 498.33L233.108 498.33L232.989 498.33L232.871 498.33L232.752 498.33L232.634 498.33L232.515 498.33L232.396 498.33L232.278 498.33L232.159 498.33L232.041 498.33L231.922 498.33L231.804 498.33L231.685 498.33L231.567 498.33L231.448 498.33L231.329 498.33L231.211 498.33L231.092 498.33L230.974 498.33L230.855 498.33L230.737 498.33L230.618 498.33L230.499 498.33L230.381 498.33L230.262 498.33L230.144 498.33L230.025 498.33L229.907 498.33L229.788 498.33L229.67 498.33L229.551 498.33L229.432 498.33L229.314 498.33L229.314 498.33L229.196 498.33L229.079 498.33L228.964 498.33L228.849 498.33L228.736 498.33L228.625 498.33L228.514 498.33L228.405 498.33L228.297 498.33L228.19 498.33L228.084 498.33L227.98 498.33L227.877 498.33L227.775 498.33L227.674 498.33L227.575 498.33L227.477 498.33L227.38 498.33L227.284 498.33L227.19 498.33L227.096 498.33L227.004 498.33L226.914 498.33L226.824 498.33L226.736 498.33L226.649 498.33L226.563 498.33L226.478 498.33L226.395 498.33L226.313 498.33L226.232 498.33L226.152 498.33L226.152 498.33L226.073 498.329L225.994 498.325L225.915 498.319L225.836 498.31L225.757 498.299L225.678 498.285L225.599 498.269L225.52 498.251L225.441 498.23L225.362 498.206L225.283 498.18L225.204 498.152L225.125 498.121L225.046 498.088L224.966 498.052L224.887 498.014L224.808 497.973L224.729 497.93L224.65 497.884L224.571 497.836L224.492 497.785L224.413 497.732L224.334 497.676L224.255 497.618L224.176 497.558L224.097 497.495L224.018 497.429L223.939 497.362L223.86 497.291L223.781 497.218L223.702 497.143L223.623 497.065L223.623 497.065L223.544 496.986L223.465 496.907L223.386 496.828L223.307 496.749L223.228 496.67L223.149 496.591L223.069 496.512L222.99 496.433L222.911 496.354L222.832 496.275L222.753 496.196L222.674 496.117L222.595 496.038L222.516 495.959L222.437 495.879L222.358 495.8L222.279 495.721L222.2 495.642L222.121 495.563L222.042 495.484L221.963 495.405L221.884 495.326L221.805 495.247L221.726 495.168L221.647 495.089L221.568 495.01L221.489 494.931L221.41 494.852L221.331 494.773L221.252 494.694L221.172 494.615L221.093 494.536L221.093 494.536L221.013 494.455L220.93 494.373L220.845 494.288L220.757 494.2L220.667 494.11L220.575 494.017L220.48 493.922L220.382 493.824L220.282 493.724L220.179 493.622L220.075 493.517L219.967 493.409L219.857 493.299L219.745 493.187L219.63 493.072L219.513 492.955L219.393 492.835L219.271 492.713L219.146 492.588L219.019 492.461L218.889 492.331L218.757 492.199L218.622 492.064L218.485 491.927L218.345 491.788L218.203 491.646L218.059 491.501L217.912 491.354L217.763 491.205L217.611 491.053L217.456 490.899L217.299 490.742L217.299 490.742L217.141 490.589L216.983 490.445L216.825 490.312L216.667 490.188L216.509 490.075L216.351 489.971L216.193 489.877L216.035 489.793L215.877 489.719L215.719 489.655L215.56 489.601L215.402 489.556L215.244 489.521L215.086 489.497L214.928 489.482L214.77 489.477L214.612 489.482L214.454 489.497L214.296 489.521L214.138 489.556L213.98 489.601L213.822 489.655L213.663 489.719L213.505 489.793L213.347 489.877L213.189 489.971L213.031 490.075L212.873 490.188L212.715 490.312L212.557 490.445L212.399 490.589L212.241 490.742L212.241 490.742L212.084 490.899L211.929 491.053L211.778 491.205L211.628 491.354L211.481 491.501L211.337 491.646L211.195 491.788L211.055 491.927L210.918 492.064L210.783 492.199L210.651 492.331L210.522 492.461L210.394 492.588L210.27 492.713L210.147 492.835L210.027 492.955L209.91 493.072L209.795 493.187L209.683 493.299L209.573 493.409L209.466 493.517L209.361 493.622L209.258 493.724L209.158 493.824L209.06 493.922L208.965 494.017L208.873 494.11L208.783 494.2L208.695 494.288L208.61 494.373L208.527 494.455L208.447 494.536L208.447 494.536L208.368 494.615L208.289 494.694L208.21 494.773L208.13 494.852L208.051 494.931L207.972 495.01L207.893 495.089L207.814 495.168L207.735 495.247L207.656 495.326L207.577 495.405L207.498 495.484L207.419 495.563L207.34 495.642L207.261 495.721L207.182 495.8L207.103 495.879L207.024 495.959L206.945 496.038L206.866 496.117L206.787 496.196L206.708 496.275L206.629 496.354L206.55 496.433L206.471 496.512L206.392 496.591L206.313 496.67L206.233 496.749L206.154 496.828L206.075 496.907L205.996 496.986L205.917 497.065L205.917 497.065L205.838 497.143L205.759 497.218L205.68 497.291L205.601 497.362L205.522 497.429L205.443 497.495L205.364 497.558L205.285 497.618L205.206 497.676L205.127 497.732L205.048 497.785L204.969 497.836L204.89 497.884L204.811 497.93L204.732 497.973L204.653 498.014L204.574 498.052L204.495 498.088L204.415 498.121L204.336 498.152L204.257 498.18L204.178 498.206L204.099 498.23L204.02 498.251L203.941 498.269L203.862 498.285L203.783 498.299L203.704 498.31L203.625 498.319L203.546 498.325L203.467 498.329L203.388 498.33L203.388 498.33L203.308 498.33L203.227 498.33L203.145 498.33L203.062 498.33L202.977 498.33L202.891 498.33L202.804 498.33L202.716 498.33L202.627 498.33L202.536 498.33L202.444 498.33L202.351 498.33L202.256 498.33L202.16 498.33L202.063 498.33L201.965 498.33L201.866 498.33L201.765 498.33L201.663 498.33L201.56 498.33L201.456 498.33L201.35 498.33L201.243 498.33L201.135 498.33L201.026 498.33L200.915 498.33L200.804 498.33L200.691 498.33L200.576 498.33L200.461 498.33L200.344 498.33L200.226 498.33L200.226 498.33L200.108 498.33L199.989 498.33L199.871 498.33L199.752 498.33L199.633 498.33L199.515 498.33L199.396 498.33L199.278 498.33L199.159 498.33L199.041 498.33L198.922 498.33L198.803 498.33L198.685 498.33L198.566 498.33L198.448 498.33L198.329 498.33L198.211 498.33L198.092 498.33L197.974 498.33L197.855 498.33L197.736 498.33L197.618 498.33L197.499 498.33L197.381 498.33L197.262 498.33L197.144 498.33L197.025 498.33L196.906 498.33L196.788 498.33L196.669 498.33L196.551 498.33L196.432 498.33L196.432 498.33L196.317 498.328L196.21 498.322L196.11 498.313L196.017 498.3L195.932 498.283L195.854 498.263L195.784 498.239L195.721 498.211L195.665 498.18L195.617 498.145L195.576 498.106L195.543 498.063L195.517 498.017L195.499 497.967L195.487 497.913L195.484 497.856L195.487 497.794L195.499 497.73L195.517 497.661L195.543 497.589L195.576 497.513L195.617 497.433L195.665 497.35L195.721 497.263L195.784 497.172L195.854 497.077L195.932 496.979L196.017 496.877L196.11 496.772L196.21 496.662L196.317 496.549L196.432 496.433L196.432 496.433L196.552 496.313L196.674 496.191L196.799 496.066L196.926 495.939L197.056 495.809L197.188 495.677L197.323 495.542L197.46 495.405L197.599 495.266L197.741 495.124L197.886 494.979L198.033 494.832L198.182 494.683L198.334 494.531L198.489 494.376L198.645 494.22L198.805 494.06L198.967 493.898L199.131 493.734L199.297 493.567L199.467 493.398L199.638 493.227L199.813 493.052L199.989 492.876L200.168 492.697L200.35 492.515L200.534 492.331L200.72 492.145L200.909 491.956L201.101 491.764L201.295 491.57L201.491 491.374L201.491 491.374L201.688 491.177L201.884 490.981L202.078 490.787L202.271 490.594L202.464 490.401L202.654 490.211L202.844 490.021L203.032 489.833L203.219 489.646L203.405 489.46L203.59 489.275L203.773 489.092L203.955 488.91L204.136 488.729L204.316 488.549L204.495 488.37L204.672 488.193L204.848 488.017L205.023 487.842L205.196 487.669L205.368 487.497L205.539 487.326L205.709 487.156L205.878 486.987L206.045 486.82L206.211 486.654L206.376 486.489L206.54 486.325L206.702 486.163L206.863 486.002L207.023 485.842L207.182 485.683L207.182 485.683L207.335 485.525L207.478 485.367L207.612 485.209L207.735 485.051L207.849 484.893L207.953 484.734L208.046 484.576L208.13 484.418L208.205 484.26L208.269 484.102L208.323 483.944L208.368 483.786L208.402 483.628L208.427 483.47L208.442 483.312L208.447 483.154L208.442 482.996L208.427 482.837L208.402 482.679L208.368 482.521L208.323 482.363L208.269 482.205L208.205 482.047L208.13 481.889L208.046 481.731L207.953 481.573L207.849 481.415L207.735 481.257L207.612 481.099L207.478 480.94L207.335 480.782L207.182 480.624L207.182 480.624L207.023 480.466L206.863 480.306L206.702 480.144L206.54 479.982L206.376 479.818L206.211 479.654L206.045 479.487L205.878 479.32L205.709 479.152L205.539 478.982L205.368 478.811L205.196 478.638L205.023 478.465L204.848 478.29L204.672 478.114L204.495 477.937L204.316 477.758L204.136 477.579L203.955 477.398L203.773 477.216L203.59 477.032L203.405 476.848L203.219 476.662L203.032 476.475L202.844 476.286L202.654 476.097L202.464 475.906L202.271 475.714L202.078 475.521L201.884 475.326L201.688 475.13L201.491 474.933L201.491 474.933L201.295 474.737L201.101 474.543L200.909 474.352L200.72 474.163L200.534 473.976L200.35 473.792L200.168 473.611L199.989 473.431L199.813 473.255L199.638 473.081L199.467 472.909L199.297 472.74L199.131 472.573L198.967 472.409L198.805 472.247L198.645 472.088L198.489 471.931L198.334 471.776L198.182 471.625L198.033 471.475L197.886 471.328L197.741 471.184L197.599 471.042L197.46 470.902L197.323 470.765L197.188 470.63L197.056 470.498L196.926 470.369L196.799 470.241L196.674 470.117L196.552 469.994L196.432 469.875L196.432 469.875L196.317 469.758L196.21 469.645L196.11 469.536L196.017 469.43L195.932 469.328L195.854 469.23L195.784 469.135L195.721 469.045L195.665 468.958L195.617 468.874L195.576 468.794L195.543 468.719L195.517 468.646L195.499 468.578L195.487 468.513L195.484 468.452L195.487 468.394L195.499 468.341L195.517 468.291L195.543 468.244L195.576 468.202L195.617 468.163L195.665 468.128L195.721 468.096L195.784 468.068L195.854 468.044L195.932 468.024L196.017 468.007L196.11 467.994L196.21 467.985L196.317 467.979L196.432 467.978L196.432 467.978L196.551 467.978L196.669 467.978L196.788 467.978L196.906 467.978L197.025 467.978L197.144 467.978L197.262 467.978L197.381 467.978L197.499 467.978L197.618 467.978L197.736 467.978L197.855 467.978L197.974 467.978L198.092 467.978L198.211 467.978L198.329 467.978L198.448 467.978L198.566 467.978L198.685 467.978L198.803 467.978L198.922 467.978L199.041 467.978L199.159 467.978L199.278 467.978L199.396 467.978L199.515 467.978L199.633 467.978L199.752 467.978L199.871 467.978L199.989 467.978L200.108 467.978L200.226 467.978L200.226 467.978L200.344 467.978L200.461 467.978L200.576 467.978L200.691 467.978L200.804 467.978L200.915 467.978L201.026 467.978L201.135 467.978L201.243 467.978L201.35 467.978L201.456 467.978L201.56 467.978L201.663 467.978L201.765 467.978L201.866 467.978L201.965 467.978L202.063 467.978L202.16 467.978L202.256 467.978L202.351 467.978L202.444 467.978L202.536 467.978L202.627 467.978L202.716 467.978L202.804 467.978L202.891 467.978L202.977 467.978L203.062 467.978L203.145 467.978L203.227 467.978L203.308 467.978L203.388 467.978L203.388 467.978L203.467 467.979L203.546 467.982L203.625 467.989L203.704 467.997L203.783 468.008L203.862 468.022L203.941 468.038L204.02 468.057L204.099 468.078L204.178 468.101L204.257 468.127L204.336 468.155L204.415 468.186L204.495 468.22L204.574 468.255L204.653 468.294L204.732 468.334L204.811 468.378L204.89 468.423L204.969 468.472L205.048 468.522L205.127 468.575L205.206 468.631L205.285 468.689L205.364 468.749L205.443 468.812L205.522 468.878L205.601 468.946L205.68 469.016L205.759 469.089L205.838 469.164L205.917 469.242L205.917 469.242L205.996 469.321L206.075 469.4L206.154 469.479L206.233 469.558L206.313 469.637L206.392 469.716L206.471 469.795L206.55 469.875L206.629 469.954L206.708 470.033L206.787 470.112L206.866 470.191L206.945 470.27L207.024 470.349L207.103 470.428L207.182 470.507L207.261 470.586L207.34 470.665L207.419 470.744L207.498 470.823L207.577 470.902L207.656 470.981L207.735 471.06L207.814 471.139L207.893 471.218L207.972 471.297L208.051 471.376L208.13 471.455L208.21 471.534L208.289 471.613L208.368 471.693L208.447 471.772L208.447 471.772L208.527 471.852L208.61 471.935L208.695 472.02L208.783 472.107L208.873 472.198L208.965 472.29L209.06 472.385L209.158 472.483L209.258 472.583L209.361 472.685L209.466 472.79L209.573 472.898L209.683 473.008L209.795 473.12L209.91 473.235L210.027 473.352L210.147 473.472L210.27 473.594L210.394 473.719L210.522 473.846L210.651 473.976L210.783 474.108L210.918 474.243L211.055 474.38L211.195 474.52L211.337 474.662L211.481 474.806L211.628 474.953L211.778 475.102L211.929 475.254L212.084 475.409L212.241 475.566L212.241 475.566L212.399 475.719L212.557 475.862L212.715 475.995L212.873 476.119L213.031 476.233L213.189 476.336L213.347 476.43L213.505 476.514L213.663 476.588L213.822 476.652L213.98 476.707L214.138 476.751L214.296 476.786L214.454 476.811L214.612 476.825L214.77 476.83L214.928 476.825L215.086 476.811L215.244 476.786L215.402 476.751L215.56 476.707L215.719 476.652L215.877 476.588L216.035 476.514L216.193 476.43L216.351 476.336L216.509 476.233L216.667 476.119L216.825 475.995L216.983 475.862L217.141 475.719L217.299 475.566L217.299 475.566L217.456 475.409L217.611 475.254L217.763 475.102L217.912 474.953L218.059 474.806L218.203 474.662L218.345 474.52L218.485 474.38L218.622 474.243L218.757 474.108L218.889 473.976L219.019 473.846L219.146 473.719L219.271 473.594L219.393 473.472L219.513 473.352L219.63 473.235L219.745 473.12L219.857 473.008L219.967 472.898L220.075 472.79L220.179 472.685L220.282 472.583L220.382 472.483L220.48 472.385L220.575 472.29L220.667 472.198L220.757 472.107L220.845 472.02L220.93 471.935L221.013 471.852L221.093 471.772L221.093 471.772L221.172 471.693L221.252 471.613L221.331 471.534L221.41 471.455L221.489 471.376L221.568 471.297L221.647 471.218L221.726 471.139L221.805 471.06L221.884 470.981L221.963 470.902L222.042 470.823L222.121 470.744L222.2 470.665L222.279 470.586L222.358 470.507L222.437 470.428L222.516 470.349L222.595 470.27L222.674 470.191L222.753 470.112L222.832 470.033L222.911 469.954L222.99 469.875L223.069 469.795L223.149 469.716L223.228 469.637L223.307 469.558L223.386 469.479L223.465 469.4L223.544 469.321L223.623 469.242L223.623 469.242L223.702 469.164L223.781 469.089L223.86 469.016L223.939 468.946L224.018 468.878L224.097 468.812L224.176 468.749L224.255 468.689L224.334 468.631L224.413 468.575L224.492 468.522L224.571 468.472L224.65 468.423L224.729 468.378L224.808 468.334L224.887 468.294L224.966 468.255L225.046 468.22L225.125 468.186L225.204 468.155L225.283 468.127L225.362 468.101L225.441 468.078L225.52 468.057L225.599 468.038L225.678 468.022L225.757 468.008L225.836 467.997L225.915 467.989L225.994 467.982L226.073 467.979L226.152 467.978L226.152 467.978L226.232 467.978L226.313 467.978L226.395 467.978L226.478 467.978L226.563 467.978L226.649 467.978L226.736 467.978L226.824 467.978L226.914 467.978L227.004 467.978L227.096 467.978L227.19 467.978L227.284 467.978L227.38 467.978L227.477 467.978L227.575 467.978L227.674 467.978L227.775 467.978L227.877 467.978L227.98 467.978L228.084 467.978L228.19 467.978L228.297 467.978L228.405 467.978L228.514 467.978L228.625 467.978L228.736 467.978L228.849 467.978L228.964 467.978L229.079 467.978L229.196 467.978L229.314 467.978L229.314 467.978L229.432 467.978L229.551 467.978L229.67 467.978L229.788 467.978L229.907 467.978L230.025 467.978L230.144 467.978L230.262 467.978L230.381 467.978L230.499 467.978L230.618 467.978L230.737 467.978L230.855 467.978L230.974 467.978L231.092 467.978L231.211 467.978L231.329 467.978L231.448 467.978L231.567 467.978L231.685 467.978L231.804 467.978L231.922 467.978L232.041 467.978L232.159 467.978L232.278 467.978L232.396 467.978L232.515 467.978L232.634 467.978L232.752 467.978L232.871 467.978L232.989 467.978L233.108 467.978L233.108 467.978L233.223 467.979L233.33 467.985L233.43 467.994L233.523 468.007L233.608 468.024L233.686 468.044L233.756 468.068L233.819 468.096L233.875 468.128L233.923 468.163L233.964 468.202L233.997 468.244L234.023 468.291L234.042 468.341L234.053 468.394L234.056 468.452L234.053 468.513L234.042 468.578L234.023 468.646L233.997 468.719L233.964 468.794L233.923 468.874L233.875 468.958L233.819 469.045L233.756 469.135L233.686 469.23L233.608 469.328L233.523 469.43L233.43 469.536L233.33 469.645L233.223 469.758L233.108 469.875L233.108 469.875L232.987 469.995L232.863 470.119L232.735 470.247L232.604 470.378L232.469 470.514L232.33 470.653L232.187 470.795L232.041 470.942L231.891 471.092L231.737 471.245L231.579 471.403L231.418 471.564L231.253 471.729L231.085 471.898L230.913 472.07L230.737 472.246L230.557 472.426L230.373 472.609L230.186 472.796L229.996 472.987L229.801 473.181L229.603 473.38L229.401 473.581L229.195 473.787L228.986 473.996L228.773 474.21L228.556 474.426L228.336 474.647L228.112 474.871L227.884 475.099L227.652 475.33L227.417 475.566"/>
<path class="l5" d="M477.823 378.185L480.352 376.921L477.823 375.656L477.823 378.185"/>
<path class="l5" d="M479.088 360.48L481.617 360.48L481.617 363.009L479.088 363.009L479.088 360.48z"/>
<path class="l5" d="M458.853 375.656L461.382 375.656L461.382 378.185L458.853 378.185L458.853 375.656z"/>
<path class="l5" d="M479.088 390.832L481.617 390.832L481.617 393.362L479.088 393.362L479.088 390.832z"/>
<path class="l5" d="M480.313 376.881L480.392 376.881L480.392 376.96L480.313 376.96L480.313 376.881z"/>
<path class="l5" d="M514.499 431.302L517.028 431.302L517.028 433.831L514.499 433.831L514.499 431.302z"/>
<path class="l5" d="M514.499 400.95L517.028 400.95L517.028 403.479L514.499 403.479L514.499 400.95z"/>
<path class="l5" d="M413.957 376.288L415.221 376.288L415.221 377.553L413.957 377.553L413.957 376.288z"/>
<path class="l5" d="M479.72 320.643L480.985 320.643L480.985 321.907L479.72 321.907L479.72 320.643z"/>
<path class="l5" d="M515.131 376.288L516.396 376.288L516.396 377.553L515.131 377.553L515.131 376.288z"/>
<path class="l5" d="M590.379 400.95L592.909 400.95L592.909 403.479L590.379 403.479L590.379 400.95z"/>
<path class="l5" d="M590.379 431.302L592.909 431.302L592.909 433.831L590.379 433.831L590.379 431.302z"/>
<path class="l5" d="M590.379 441.419L592.909 441.419L592.909 443.949L590.379 443.949L590.379 441.419z"/>
<path class="l5" d="M591.012 386.406L592.276 386.406L592.276 387.671L591.012 387.671L591.012 386.406z"/>
<path class="l6" d="M346.296 483.154L748.464 483.154"/>
<path class="l6" d="M151.536 483.154L184.418 483.154"/>
<circle class="l15" cx="667.524" cy="346.569" r="0.948508" />
<circle class="l15" cx="667.524" cy="331.392" r="0.948508" />
<circle class="l15" cx="667.524" cy="361.745" r="0.948508" />
<circle class="l15" cx="667.524" cy="392.097" r="0.948508" />
<circle class="l15" cx="667.524" cy="376.921" r="0.948508" />
<circle class="l15" cx="667.524" cy="407.273" r="0.948508" />
<circle class="l15" cx="667.524" cy="422.449" r="0.948508" />
<circle class="l15" cx="667.524" cy="452.801" r="0.948508" />
<circle class="l15" cx="667.524" cy="437.625" r="0.948508" />
<path class="l1" d="M480.352 392.097L480.352 442.684"/>
<path class="l1" d="M480.352 376.921L515.763 376.921"/>
<path class="l1" d="M480.352 321.275L546.115 321.275"/>
<path class="l1" d="M414.589 376.921L460.117 376.921"/>
<path class="l1" d="M480.352 321.275L480.352 361.745"/>
<path class="l1" d="M546.115 321.275L546.115 361.745"/>
<path class="l1" d="M515.763 432.567L515.763 442.684"/>
<path class="l1" d="M515.763 376.921L515.763 402.214"/>
<path class="l1" d="M546.115 392.097L546.115 442.684"/>
<path class="l1" d="M414.589 376.921L414.589 402.214"/>
<path class="l1" d="M414.589 432.567L414.589 442.684"/>
<path class="l1" d="M591.644 432.567L591.644 442.684"/>
<path class="l1" d="M591.644 381.979L591.644 402.214"/>
</svg>
