<svg xmlns="http://www.w3.org/2000/svg" xml:lang="en" height="382.64pt" width="619.5863999999999pt" viewBox="-276.50879999999995 -115.0 619.5863999999999 382.64"><circle cx="-227.99999999999994" cy="-12.000000000000021" r="18.0" style="stroke:black;fill:none;stroke-width:2.0;" /><path d="M 0.0,59.99999999999999 L 0.0,45.0 L -14.999999999999998,45.0 L -14.999999999999998,14.999999999999998 L 0.0,14.999999999999998 L 0.0,-0.0" style="stroke:black;fill:none;stroke-width:2.0;stroke-linecap:round;stroke-linejoin:round;" /><path d="M -9.0,45.0 L -14.999999999999998,45.0" style="stroke:black;fill:none;stroke-width:2.0;stroke-linecap:round;stroke-linejoin:round;" /><path d="M -2.0 45.0 L -9.0 49.5 L -9.0 40.5 Z" style="stroke:black;fill:black;stroke-linecap:butt;stroke-linejoin:miter;" /><path d="M -17.999999999999996,42.0 L -17.999999999999996,17.999999999999996" style="stroke:black;fill:none;stroke-width:2.0;stroke-linecap:round;stroke-linejoin:round;" /><path d="M -32.99999999999999,29.999999999999996 L -17.999999999999996,29.999999999999996" style="stroke:black;fill:none;stroke-width:2.0;stroke-linecap:round;stroke-linejoin:round;" /><path d="M 0.0,59.99999999999999 L -1.6532731788489267e-15,69.0 L -3.3065463576978533e-15,78.0" style="stroke:black;fill:none;stroke-width:2.0;stroke-linecap:round;stroke-linejoin:round;" /><path d="M -3.3065463576978533e-15,78.0 L 26.999999999999996,78.0 L 54.0,78.0" style="stroke:black;fill:none;stroke-width:2.0;stroke-linecap:round;stroke-linejoin:round;" /><path d="M 54.0,78.0 L 54.0,87.0 L 54.0,96.0" style="stroke:black;fill:none;stroke-width:2.0;stroke-linecap:round;stroke-linejoin:round;" /><path d="M 54.0,156.0 L 54.0,141.0 L 39.00000000000001,141.0 L 39.00000000000001,110.99999999999999 L 54.0,110.99999999999999 L 54.0,96.0" style="stroke:black;fill:none;stroke-width:2.0;stroke-linecap:round;stroke-linejoin:round;" /><path d="M 45.0,141.0 L 39.00000000000001,141.0" style="stroke:black;fill:none;stroke-width:2.0;stroke-linecap:round;stroke-linejoin:round;" /><path d="M 52.0 141.0 L 45.0 145.5 L 45.0 136.5 Z" style="stroke:black;fill:black;stroke-linecap:butt;stroke-linejoin:miter;" /><path d="M 36.0,138.0 L 36.0,114.0" style="stroke:black;fill:none;stroke-width:2.0;stroke-linecap:round;stroke-linejoin:round;" /><path d="M 21.000000000000007,126.0 L 36.0,126.0" style="stroke:black;fill:none;stroke-width:2.0;stroke-linecap:round;stroke-linejoin:round;" /><path d="M 54.0,156.0 L 54.0,170.4 L 45.0,170.4 L 63.0,170.4 M 47.699999999999996,174.72 L 60.300000000000004,174.72 M 52.199999999999996,179.03999999999996 L 55.800000000000004,179.03999999999996" style="stroke:black;fill:none;stroke-width:2.0;stroke-linecap:round;stroke-linejoin:round;" /><path d="M 21.000000000000007,126.0 L -87.0,125.99999999999999 L -194.99999999999997,125.99999999999997" style="stroke:black;fill:none;stroke-width:2.0;stroke-linecap:round;stroke-linejoin:round;" /><path d="M -227.99999999999994,95.99999999999997 L -227.99999999999994,110.99999999999997 L -212.99999999999997,110.99999999999997 L -212.99999999999997,140.99999999999997 L -227.99999999999994,140.99999999999997 L -227.99999999999994,155.99999999999994" style="stroke:black;fill:none;stroke-width:2.0;stroke-linecap:round;stroke-linejoin:round;" /><path d="M -212.99999999999997,140.99999999999997 L -218.99999999999994,140.99999999999997" style="stroke:black;fill:none;stroke-width:2.0;stroke-linecap:round;stroke-linejoin:round;" /><path d="M -225.99999999999994 140.99999999999997 L -218.99999999999994 136.49999999999997 L -218.99999999999994 145.49999999999997 Z" style="stroke:black;fill:black;stroke-linecap:butt;stroke-linejoin:miter;" /><path d="M -210.0,113.99999999999996 L -210.0,137.99999999999997" style="stroke:black;fill:none;stroke-width:2.0;stroke-linecap:round;stroke-linejoin:round;" /><path d="M -210.0,125.99999999999997 L -194.99999999999997,125.99999999999997" style="stroke:black;fill:none;stroke-width:2.0;stroke-linecap:round;stroke-linejoin:round;" /><path d="M -227.99999999999994,155.99999999999994 L -227.99999999999994,170.39999999999998 L -236.99999999999994,170.39999999999998 L -218.99999999999994,170.39999999999998 M -234.29999999999995,174.71999999999994 L -221.69999999999996,174.71999999999994 M -229.79999999999995,179.03999999999994 L -226.19999999999996,179.03999999999994" style="stroke:black;fill:none;stroke-width:2.0;stroke-linecap:round;stroke-linejoin:round;" /><path d="M -227.99999999999994,95.99999999999997 L -227.99999999999994,86.99999999999997 L -227.99999999999994,77.99999999999997" style="stroke:black;fill:none;stroke-width:2.0;stroke-linecap:round;stroke-linejoin:round;" /><path d="M -227.99999999999994,77.99999999999997 L -227.99999999999994,50.99999999999998 L -227.99999999999994,23.99999999999998" style="stroke:black;fill:none;stroke-width:2.0;stroke-linecap:round;stroke-linejoin:round;" /><path d="M -227.99999999999994,23.99999999999998 L -227.99999999999994,5.999999999999979 L -227.99999999999994,5.999999999999979 M -227.99999999999994,-30.00000000000002 L -227.99999999999994,-30.00000000000002 L -227.99999999999994,-48.00000000000002" style="stroke:black;fill:none;stroke-width:2.0;stroke-linecap:round;stroke-linejoin:round;" /><path d="M -227.99999999999994,-12.000000000000021 L -227.99999999999994,-21.00000000000002" style="stroke:black;fill:none;stroke-width:2.0;stroke-linecap:round;stroke-linejoin:round;" /><path d="M -227.99999999999994 -5.000000000000021 L -230.69999999999993 -12.000000000000021 L -225.29999999999995 -12.000000000000021 Z" style="stroke:black;fill:black;stroke-linecap:butt;stroke-linejoin:miter;" /><path d="M -227.99999999999994,-48.00000000000002 L -227.99999999999994,-62.40000000000002" style="stroke:black;fill:none;stroke-width:2.0;stroke-linecap:round;stroke-linejoin:round;" /><path d="M -227.99999999999994,-62.40000000000002 L -234.74999999999994,-62.40000000000002" style="stroke:black;fill:none;stroke-width:2.0;stroke-linecap:round;stroke-linejoin:round;" /><path d="M -227.99999999999994,-62.40000000000002 L -221.24999999999994,-62.40000000000002" style="stroke:black;fill:none;stroke-width:2.0;stroke-linecap:round;stroke-linejoin:round;" /><path d="M -227.99999999999994,77.99999999999997 L -200.99999999999994,77.99999999999997 L -173.99999999999994,77.99999999999997" style="stroke:black;fill:none;stroke-width:2.0;stroke-linecap:round;stroke-linejoin:round;" /><path d="M -173.99999999999994,77.99999999999997 L -173.99999999999994,101.99999999999997 L -173.99999999999994,125.99999999999997" style="stroke:black;fill:none;stroke-width:2.0;stroke-linecap:round;stroke-linejoin:round;" /><path d="M 54.0,78.0 L 81.0,78.0 L 108.0,78.0" style="stroke:black;fill:none;stroke-width:2.0;stroke-linecap:round;stroke-linejoin:round;" /><path d="M 108.0,78.0 L 108.0,69.0 L 108.0,59.99999999999999" style="stroke:black;fill:none;stroke-width:2.0;stroke-linecap:round;stroke-linejoin:round;" /><path d="M 108.0,-0.0 L 108.0,14.999999999999995 L 123.0,14.999999999999995 L 123.0,45.0 L 108.0,45.0 L 108.0,59.99999999999999" style="stroke:black;fill:none;stroke-width:2.0;stroke-linecap:round;stroke-linejoin:round;" /><path d="M 123.0,45.0 L 117.0,45.0" style="stroke:black;fill:none;stroke-width:2.0;stroke-linecap:round;stroke-linejoin:round;" /><path d="M 110.0 45.0 L 117.0 40.5 L 117.0 49.5 Z" style="stroke:black;fill:black;stroke-linecap:butt;stroke-linejoin:miter;" /><path d="M 126.0,18.0 L 126.0,42.0" style="stroke:black;fill:none;stroke-width:2.0;stroke-linecap:round;stroke-linejoin:round;" /><path d="M 126.0,29.999999999999996 L 141.0,29.999999999999996" style="stroke:black;fill:none;stroke-width:2.0;stroke-linecap:round;stroke-linejoin:round;" /><path d="M -32.99999999999999,29.999999999999996 L -41.99999999999999,29.999999999999996 L -50.99999999999999,29.999999999999993" style="stroke:black;fill:none;stroke-width:2.0;stroke-linecap:round;stroke-linejoin:round;" /><path d="M 141.0,29.999999999999996 L 149.99999999999997,29.999999999999996 L 158.99999999999997,29.999999999999996" style="stroke:black;fill:none;stroke-width:2.0;stroke-linecap:round;stroke-linejoin:round;" /><path d="M 0.0,-0.0 L 5.51091059616309e-16,-9.0 L 1.102182119232618e-15,-18.0" style="stroke:black;fill:none;stroke-width:2.0;stroke-linecap:round;stroke-linejoin:round;" /><path d="M 1.102182119232618e-15,-18.0 L 1.6532731788489267e-15,-27.0 L 2.204364238465236e-15,-36.0" style="stroke:black;fill:none;stroke-width:2.0;stroke-linecap:round;stroke-linejoin:round;" /><path d="M 2.204364238465236e-15,-36.0 L 2.204364238465236e-15,-50.99999999999999 L -14.999999999999996,-50.99999999999999 L -14.999999999999996,-81.0 L 2.204364238465236e-15,-81.0 L 2.204364238465236e-15,-96.0" style="stroke:black;fill:none;stroke-width:2.0;stroke-linecap:round;stroke-linejoin:round;" /><path d="M -5.9999999999999964,-81.0 L 2.204364238465236e-15,-81.0" style="stroke:black;fill:none;stroke-width:2.0;stroke-linecap:round;stroke-linejoin:round;" /><path d="M -12.999999999999996 -81.0 L -5.999999999999996 -85.5 L -5.999999999999997 -76.5 Z" style="stroke:black;fill:black;stroke-linecap:butt;stroke-linejoin:miter;" /><path d="M -17.999999999999996,-53.99999999999999 L -17.999999999999996,-78.0" style="stroke:black;fill:none;stroke-width:2.0;stroke-linecap:round;stroke-linejoin:round;" /><path d="M -32.99999999999999,-66.0 L -17.999999999999996,-66.0" style="stroke:black;fill:none;stroke-width:2.0;stroke-linecap:round;stroke-linejoin:round;" /><path d="M 2.204364238465236e-15,-96.0 L 2.204364238465236e-15,-110.39999999999999" style="stroke:black;fill:none;stroke-width:2.0;stroke-linecap:round;stroke-linejoin:round;" /><path d="M 2.204364238465236e-15,-110.39999999999999 L -6.749999999999998,-110.39999999999999" style="stroke:black;fill:none;stroke-width:2.0;stroke-linecap:round;stroke-linejoin:round;" /><path d="M 2.204364238465236e-15,-110.39999999999999 L 6.750000000000002,-110.39999999999999" style="stroke:black;fill:none;stroke-width:2.0;stroke-linecap:round;stroke-linejoin:round;" /><path d="M 108.0,-0.0 L 108.0,-9.0 L 108.0,-18.0" style="stroke:black;fill:none;stroke-width:2.0;stroke-linecap:round;stroke-linejoin:round;" /><path d="M 108.0,-18.0 L 108.0,-27.0 L 108.0,-36.0" style="stroke:black;fill:none;stroke-width:2.0;stroke-linecap:round;stroke-linejoin:round;" /><path d="M 108.0,-96.0 L 108.0,-81.0 L 123.0,-81.0 L 123.0,-50.99999999999999 L 108.0,-50.99999999999999 L 108.0,-36.0" style="stroke:black;fill:none;stroke-width:2.0;stroke-linecap:round;stroke-linejoin:round;" /><path d="M 108.0,-81.0 L 114.0,-81.0" style="stroke:black;fill:none;stroke-width:2.0;stroke-linecap:round;stroke-linejoin:round;" /><path d="M 121.0 -81.0 L 114.0 -76.5 L 114.0 -85.5 Z" style="stroke:black;fill:black;stroke-linecap:butt;stroke-linejoin:miter;" /><path d="M 126.0,-78.0 L 126.0,-53.99999999999999" style="stroke:black;fill:none;stroke-width:2.0;stroke-linecap:round;stroke-linejoin:round;" /><path d="M 126.0,-66.0 L 141.0,-66.0" style="stroke:black;fill:none;stroke-width:2.0;stroke-linecap:round;stroke-linejoin:round;" /><path d="M 108.0,-96.0 L 108.0,-110.39999999999999" style="stroke:black;fill:none;stroke-width:2.0;stroke-linecap:round;stroke-linejoin:round;" /><path d="M 108.0,-110.39999999999999 L 101.25,-110.39999999999999" style="stroke:black;fill:none;stroke-width:2.0;stroke-linecap:round;stroke-linejoin:round;" /><path d="M 108.0,-110.39999999999999 L 114.75,-110.39999999999999" style="stroke:black;fill:none;stroke-width:2.0;stroke-linecap:round;stroke-linejoin:round;" /><path d="M 1.102182119232618e-15,-18.0 L -27.0,-18.000000000000004 L -54.0,-18.000000000000007" style="stroke:black;fill:none;stroke-width:2.0;stroke-linecap:round;stroke-linejoin:round;" /><path d="M -54.0,-18.000000000000007 L -54.0,-42.0 L -54.0,-66.0" style="stroke:black;fill:none;stroke-width:2.0;stroke-linecap:round;stroke-linejoin:round;" /><path d="M -54.0,-66.0 L -43.5,-66.0 L -32.99999999999999,-66.0" style="stroke:black;fill:none;stroke-width:2.0;stroke-linecap:round;stroke-linejoin:round;" /><path d="M -54.0,-66.0 L -72.0,-66.0 L -90.0,-66.0" style="stroke:black;fill:none;stroke-width:2.0;stroke-linecap:round;stroke-linejoin:round;" /><path d="M -123.0,-96.00000000000001 L -123.0,-81.0 L -108.0,-81.0 L -108.0,-51.0 L -123.0,-51.0 L -123.0,-36.00000000000001" style="stroke:black;fill:none;stroke-width:2.0;stroke-linecap:round;stroke-linejoin:round;" /><path d="M -123.0,-81.0 L -117.0,-81.0" style="stroke:black;fill:none;stroke-width:2.0;stroke-linecap:round;stroke-linejoin:round;" /><path d="M -110.0 -81.0 L -117.0 -76.5 L -117.0 -85.5 Z" style="stroke:black;fill:black;stroke-linecap:butt;stroke-linejoin:miter;" /><path d="M -105.0,-78.00000000000001 L -105.0,-54.0" style="stroke:black;fill:none;stroke-width:2.0;stroke-linecap:round;stroke-linejoin:round;" /><path d="M -105.0,-66.0 L -90.0,-66.0" style="stroke:black;fill:none;stroke-width:2.0;stroke-linecap:round;stroke-linejoin:round;" /><path d="M -123.0,-96.00000000000001 L -123.0,-110.4" style="stroke:black;fill:none;stroke-width:2.0;stroke-linecap:round;stroke-linejoin:round;" /><path d="M -123.0,-110.4 L -129.75,-110.4" style="stroke:black;fill:none;stroke-width:2.0;stroke-linecap:round;stroke-linejoin:round;" /><path d="M -123.0,-110.4 L -116.25,-110.4" style="stroke:black;fill:none;stroke-width:2.0;stroke-linecap:round;stroke-linejoin:round;" /><path d="M 108.0,-18.0 L 135.0,-18.0 L 162.0,-18.0" style="stroke:black;fill:none;stroke-width:2.0;stroke-linecap:round;stroke-linejoin:round;" /><path d="M 162.0,-18.0 L 162.0,-41.99999999999999 L 162.0,-66.0" style="stroke:black;fill:none;stroke-width:2.0;stroke-linecap:round;stroke-linejoin:round;" /><path d="M 162.0,-66.0 L 151.5,-66.0 L 141.0,-66.0" style="stroke:black;fill:none;stroke-width:2.0;stroke-linecap:round;stroke-linejoin:round;" /><path d="M 162.0,-66.0 L 180.0,-66.0 L 198.0,-66.0" style="stroke:black;fill:none;stroke-width:2.0;stroke-linecap:round;stroke-linejoin:round;" /><path d="M 230.99999999999997,-36.0 L 230.99999999999997,-50.99999999999999 L 216.0,-50.99999999999999 L 216.0,-81.0 L 230.99999999999997,-81.0 L 230.99999999999997,-96.0" style="stroke:black;fill:none;stroke-width:2.0;stroke-linecap:round;stroke-linejoin:round;" /><path d="M 225.0,-81.0 L 230.99999999999997,-81.0" style="stroke:black;fill:none;stroke-width:2.0;stroke-linecap:round;stroke-linejoin:round;" /><path d="M 218.0 -81.0 L 225.0 -85.5 L 225.0 -76.5 Z" style="stroke:black;fill:black;stroke-linecap:butt;stroke-linejoin:miter;" /><path d="M 213.0,-53.99999999999999 L 213.0,-78.0" style="stroke:black;fill:none;stroke-width:2.0;stroke-linecap:round;stroke-linejoin:round;" /><path d="M 198.0,-66.0 L 213.0,-66.0" style="stroke:black;fill:none;stroke-width:2.0;stroke-linecap:round;stroke-linejoin:round;" /><path d="M 230.99999999999997,-96.0 L 230.99999999999997,-110.39999999999999" style="stroke:black;fill:none;stroke-width:2.0;stroke-linecap:round;stroke-linejoin:round;" /><path d="M 230.99999999999997,-110.39999999999999 L 224.24999999999997,-110.39999999999999" style="stroke:black;fill:none;stroke-width:2.0;stroke-linecap:round;stroke-linejoin:round;" /><path d="M 230.99999999999997,-110.39999999999999 L 237.74999999999997,-110.39999999999999" style="stroke:black;fill:none;stroke-width:2.0;stroke-linecap:round;stroke-linejoin:round;" /><path d="M -123.0,-36.00000000000001 L -123.00000000000001,71.99999999999999 L -123.00000000000003,180.0" style="stroke:black;fill:none;stroke-width:2.0;stroke-linecap:round;stroke-linejoin:round;" /><path d="M -123.00000000000003,180.0 L -123.00000000000003,195.0 L -108.00000000000003,195.0 L -108.00000000000003,225.0 L -123.00000000000003,225.0 L -123.00000000000003,239.99999999999997" style="stroke:black;fill:none;stroke-width:2.0;stroke-linecap:round;stroke-linejoin:round;" /><path d="M -108.00000000000003,225.0 L -114.00000000000003,225.0" style="stroke:black;fill:none;stroke-width:2.0;stroke-linecap:round;stroke-linejoin:round;" /><path d="M -121.00000000000003 225.0 L -114.00000000000003 220.5 L -114.00000000000003 229.5 Z" style="stroke:black;fill:black;stroke-linecap:butt;stroke-linejoin:miter;" /><path d="M -105.00000000000003,198.0 L -105.00000000000003,222.0" style="stroke:black;fill:none;stroke-width:2.0;stroke-linecap:round;stroke-linejoin:round;" /><path d="M -105.00000000000003,210.0 L -90.00000000000003,210.0" style="stroke:black;fill:none;stroke-width:2.0;stroke-linecap:round;stroke-linejoin:round;" /><path d="M -123.00000000000003,239.99999999999997 L -123.00000000000003,254.39999999999998 L -132.00000000000003,254.39999999999998 L -114.00000000000003,254.39999999999998 M -129.3,258.71999999999997 L -116.70000000000003,258.71999999999997 M -124.80000000000003,263.03999999999996 L -121.20000000000003,263.03999999999996" style="stroke:black;fill:none;stroke-width:2.0;stroke-linecap:round;stroke-linejoin:round;" /><path d="M -90.00000000000003,210.0 L -81.00000000000003,210.0 L -72.00000000000003,210.0" style="stroke:black;fill:none;stroke-width:2.0;stroke-linecap:round;stroke-linejoin:round;" /><path d="M -72.00000000000003,210.0 L -72.00000000000003,194.99999999999997 L -72.00000000000003,180.0" style="stroke:black;fill:none;stroke-width:2.0;stroke-linecap:round;stroke-linejoin:round;" /><path d="M -72.00000000000003,180.0 L -72.00000000000003,171.0 L -72.00000000000003,162.0" style="stroke:black;fill:none;stroke-width:2.0;stroke-linecap:round;stroke-linejoin:round;" /><path d="M -72.00000000000003,162.0 L -97.50000000000003,162.0 L -123.00000000000003,162.0" style="stroke:black;fill:none;stroke-width:2.0;stroke-linecap:round;stroke-linejoin:round;" /><path d="M 230.99999999999997,-36.0 L 230.99999999999997,18.0 L 230.99999999999994,72.0" style="stroke:black;fill:none;stroke-width:2.0;stroke-linecap:round;stroke-linejoin:round;" /><path d="M 230.99999999999994,72.0 L 248.99999999999994,72.0 L 266.99999999999994,72.0" style="stroke:black;fill:none;stroke-width:2.0;stroke-linecap:round;stroke-linejoin:round;" /><path d="M 230.99999999999994,72.0 L 230.99999999999994,126.0 L 230.99999999999991,180.0" style="stroke:black;fill:none;stroke-width:2.0;stroke-linecap:round;stroke-linejoin:round;" /><path d="M 230.99999999999991,239.99999999999997 L 230.99999999999991,225.0 L 215.99999999999991,225.0 L 215.99999999999991,195.0 L 230.99999999999991,195.0 L 230.99999999999991,180.0" style="stroke:black;fill:none;stroke-width:2.0;stroke-linecap:round;stroke-linejoin:round;" /><path d="M 221.99999999999991,225.0 L 215.99999999999991,225.0" style="stroke:black;fill:none;stroke-width:2.0;stroke-linecap:round;stroke-linejoin:round;" /><path d="M 228.99999999999991 225.0 L 221.99999999999991 229.5 L 221.99999999999991 220.5 Z" style="stroke:black;fill:black;stroke-linecap:butt;stroke-linejoin:miter;" /><path d="M 212.99999999999991,222.0 L 212.99999999999991,198.0" style="stroke:black;fill:none;stroke-width:2.0;stroke-linecap:round;stroke-linejoin:round;" /><path d="M 197.99999999999994,210.0 L 212.99999999999991,210.0" style="stroke:black;fill:none;stroke-width:2.0;stroke-linecap:round;stroke-linejoin:round;" /><path d="M 230.99999999999991,239.99999999999997 L 230.99999999999991,254.39999999999998 L 221.99999999999991,254.39999999999998 L 239.99999999999991,254.39999999999998 M 224.69999999999993,258.71999999999997 L 237.2999999999999,258.71999999999997 M 229.19999999999993,263.03999999999996 L 232.7999999999999,263.03999999999996" style="stroke:black;fill:none;stroke-width:2.0;stroke-linecap:round;stroke-linejoin:round;" /><path d="M 197.99999999999994,210.0 L 53.99999999999995,209.99999999999994 L -90.00000000000003,209.99999999999994" style="stroke:black;fill:none;stroke-width:2.0;stroke-linecap:round;stroke-linejoin:round;" /><g><g><g><path d="M 13.04 33.576 L 13.04 33.576 L 8.768 33.576 L 8.864 33.096 Q 9.456 33.096 9.768 32.984 Q 10.08 32.872 10.24 32.56 Q 10.4 32.248 10.512 31.672 L 11.936 24.76 L 11.872 24.76 L 6.496 33.576 L 6.144 33.576 L 4.208 24.776 L 4.144 24.776 L 2.816 31.24 Q 2.656 32.056 2.68 32.456 Q 2.704 32.856 2.992 32.976 Q 3.28 33.096 3.888 33.096 L 3.792 33.576 L 0.096 33.576 L 0.192 33.096 Q 0.816 33.096 1.152 32.976 Q 1.488 32.856 1.68 32.456 Q 1.872 32.056 2.032 31.24 L 3.296 25.016 Q 3.424 24.408 3.376 24.096 Q 3.328 23.784 3.032 23.664 Q 2.736 23.544 2.096 23.544 L 2.192 23.064 L 5.392 23.064 L 7.12 31.16 L 7.184 31.16 L 12.064 23.064 L 15.088 23.064 L 14.992 23.544 Q 14.432 23.544 14.104 23.664 Q 13.776 23.784 13.6 24.096 Q 13.424 24.408 13.296 25 L 11.936 31.672 Q 11.76 32.552 12.024 32.824 Q 12.288 33.096 13.136 33.096 Z " fill="black" /><path d="M 19.859 36.936 L 19.859 36.936 L 15.984 36.936 L 15.984 36.622 Q 16.779 36.622 17.104 36.454 Q 17.429 36.286 17.429 35.872 L 17.429 31.134 Q 17.429 30.843 17.35 30.714 Q 17.272 30.586 17.059 30.586 Q 16.891 30.586 16.533 30.63 Q 16.174 30.675 15.917 30.765 L 15.917 30.395 L 18.09 29.779 L 18.414 29.779 L 18.414 35.872 Q 18.414 36.286 18.75 36.454 Q 19.086 36.622 19.859 36.622 Z " fill="black" /></g></g></g><circle cx="54.0" cy="78.0" r="2.6999999999999997" style="stroke:black;fill:black;stroke-width:2.0;" /><g><g><g><path d="M 61.496 129.514 L 61.496 129.514 L 57.224 129.514 L 57.32 129.034 Q 57.912 129.034 58.224 128.922 Q 58.536 128.81 58.696 128.498 Q 58.856 128.186 58.968 127.61 L 60.392 120.698 L 60.328 120.698 L 54.952 129.514 L 54.6 129.514 L 52.664 120.714 L 52.6 120.714 L 51.272 127.178 Q 51.112 127.994 51.136 128.394 Q 51.16 128.794 51.448 128.914 Q 51.736 129.034 52.344 129.034 L 52.248 129.514 L 48.552 129.514 L 48.648 129.034 Q 49.272 129.034 49.608 128.914 Q 49.944 128.794 50.136 128.394 Q 50.328 127.994 50.488 127.178 L 51.752 120.954 Q 51.88 120.346 51.832 120.034 Q 51.784 119.722 51.488 119.602 Q 51.192 119.482 50.552 119.482 L 50.648 119.002 L 53.848 119.002 L 55.576 127.098 L 55.64 127.098 L 60.52 119.002 L 63.544 119.002 L 63.448 119.482 Q 62.888 119.482 62.56 119.602 Q 62.232 119.722 62.056 120.034 Q 61.88 120.346 61.752 120.938 L 60.392 127.61 Q 60.216 128.49 60.48 128.762 Q 60.744 129.034 61.592 129.034 Z " fill="black" /><path d="M 68.315 132.874 L 68.315 132.874 L 64.44 132.874 L 64.44 132.561 Q 65.235 132.561 65.56 132.393 Q 65.885 132.225 65.885 131.81 L 65.885 127.073 Q 65.885 126.782 65.806 126.653 Q 65.728 126.524 65.515 126.524 Q 65.347 126.524 64.989 126.569 Q 64.63 126.614 64.373 126.703 L 64.373 126.334 L 66.546 125.718 L 66.87 125.718 L 66.87 131.81 Q 66.87 132.225 67.206 132.393 Q 67.542 132.561 68.315 132.561 Z " fill="black" /><path d="M 74.33 129.324 L 74.33 129.324 Q 74.33 130.041 74.19 130.702 Q 74.05 131.362 73.753 131.878 Q 73.456 132.393 72.986 132.695 Q 72.515 132.998 71.854 132.998 Q 71.182 132.998 70.712 132.701 Q 70.242 132.404 69.95 131.889 Q 69.659 131.374 69.525 130.702 Q 69.39 130.03 69.39 129.29 Q 69.39 128.226 69.676 127.414 Q 69.962 126.602 70.516 126.143 Q 71.07 125.684 71.877 125.684 Q 72.605 125.684 73.154 126.115 Q 73.702 126.546 74.016 127.358 Q 74.33 128.17 74.33 129.324 Z M 73.243 129.391 L 73.243 129.391 Q 73.243 127.689 72.89 126.877 Q 72.538 126.065 71.843 126.065 Q 71.182 126.065 70.824 126.871 Q 70.466 127.678 70.466 129.346 Q 70.466 130.97 70.824 131.782 Q 71.182 132.594 71.854 132.594 Q 72.515 132.594 72.879 131.799 Q 73.243 131.004 73.243 129.391 Z " fill="black" /></g></g></g><g><g><g><path d="M -239.56 129.503 L -239.56 129.503 L -243.832 129.503 L -243.736 129.023 Q -243.144 129.023 -242.832 128.911 Q -242.52 128.799 -242.36 128.487 Q -242.2 128.175 -242.088 127.599 L -240.664 120.687 L -240.728 120.687 L -246.104 129.503 L -246.456 129.503 L -248.392 120.703 L -248.456 120.703 L -249.784 127.167 Q -249.944 127.983 -249.92 128.383 Q -249.896 128.783 -249.608 128.903 Q -249.32 129.023 -248.712 129.023 L -248.808 129.503 L -252.504 129.503 L -252.408 129.023 Q -251.784 129.023 -251.448 128.903 Q -251.112 128.783 -250.92 128.383 Q -250.728 127.983 -250.568 127.167 L -249.304 120.943 Q -249.176 120.335 -249.224 120.023 Q -249.272 119.711 -249.568 119.591 Q -249.864 119.471 -250.504 119.471 L -250.408 118.991 L -247.208 118.991 L -245.48 127.087 L -245.416 127.087 L -240.536 118.991 L -237.512 118.991 L -237.608 119.471 Q -238.168 119.471 -238.496 119.591 Q -238.824 119.711 -239 120.023 Q -239.176 120.335 -239.304 120.927 L -240.664 127.599 Q -240.84 128.479 -240.576 128.751 Q -240.312 129.023 -239.464 129.023 Z " fill="black" /><path d="M -236.56 133.009 L -236.56 133.009 L -236.582 132.684 Q -235.81 132.594 -235.16 132.23 Q -234.51 131.866 -234.079 131.234 Q -233.648 130.601 -233.525 129.694 L -233.592 129.682 Q -233.973 130.03 -234.303 130.203 Q -234.634 130.377 -235.059 130.377 Q -235.978 130.377 -236.526 129.755 Q -237.075 129.134 -237.075 128.025 Q -237.075 126.894 -236.476 126.261 Q -235.877 125.628 -234.824 125.628 Q -233.984 125.628 -233.469 126.042 Q -232.954 126.457 -232.713 127.151 Q -232.472 127.846 -232.472 128.674 Q -232.472 130.119 -232.976 131.077 Q -233.48 132.034 -234.398 132.516 Q -235.317 132.998 -236.56 133.009 Z M -236.101 127.958 L -236.101 127.958 Q -236.101 128.742 -235.759 129.229 Q -235.418 129.716 -234.723 129.716 Q -234.23 129.716 -233.855 129.419 Q -233.48 129.122 -233.48 128.406 Q -233.48 127.7 -233.62 127.162 Q -233.76 126.625 -234.068 126.317 Q -234.376 126.009 -234.869 126.009 Q -235.418 126.009 -235.759 126.446 Q -236.101 126.882 -236.101 127.958 Z " fill="black" /></g></g></g><circle cx="-227.99999999999994" cy="77.99999999999997" r="2.6999999999999997" style="stroke:black;fill:black;stroke-width:2.0;" /><g><g><g><path d="M -273.302 -10.582 L -273.302 -10.582 L -271.99 -16.886 Q -271.846 -17.51 -271.854 -17.87 Q -271.862 -18.23 -272.15 -18.374 Q -272.438 -18.518 -273.174 -18.518 L -273.078 -18.998 L -268.646 -18.998 L -268.742 -18.518 Q -269.446 -18.518 -269.798 -18.374 Q -270.15 -18.23 -270.294 -17.87 Q -270.438 -17.51 -270.566 -16.886 L -271.878 -10.518 Q -271.926 -10.262 -271.958 -10.054 Q -271.99 -9.846 -271.99 -9.67 Q -271.99 -9.222 -271.726 -9.094 Q -271.462 -8.966 -270.71 -8.966 L -270.806 -8.486 L -275.174 -8.486 L -275.078 -8.966 Q -274.422 -8.966 -274.094 -9.078 Q -273.766 -9.19 -273.606 -9.534 Q -273.446 -9.878 -273.302 -10.582 Z " fill="black" /><path d="M -266.821 -13.033 L -266.821 -13.033 L -266.821 -9.606 L -266.787 -9.606 Q -266.496 -9.964 -266.059 -10.261 Q -265.622 -10.558 -265.062 -10.558 Q -264.502 -10.558 -264.082 -10.238 Q -263.662 -9.919 -263.427 -9.359 Q -263.192 -8.799 -263.192 -8.071 Q -263.192 -7.074 -263.539 -6.391 Q -263.886 -5.708 -264.491 -5.361 Q -265.096 -5.014 -265.88 -5.014 Q -266.597 -5.014 -267.073 -5.182 Q -267.549 -5.35 -267.75 -5.462 L -267.75 -11.756 Q -267.75 -12.137 -267.834 -12.243 Q -267.918 -12.35 -268.243 -12.35 Q -268.378 -12.35 -268.467 -12.338 Q -268.557 -12.327 -268.557 -12.327 L -268.557 -12.641 L -267.112 -13.033 Z M -266.821 -9.113 L -266.821 -9.113 L -266.821 -5.999 Q -266.664 -5.809 -266.395 -5.641 Q -266.126 -5.473 -265.678 -5.473 Q -265.141 -5.473 -264.822 -5.775 Q -264.502 -6.078 -264.357 -6.587 Q -264.211 -7.097 -264.211 -7.713 Q -264.211 -8.25 -264.323 -8.726 Q -264.435 -9.202 -264.726 -9.499 Q -265.018 -9.796 -265.555 -9.796 Q -265.981 -9.796 -266.322 -9.555 Q -266.664 -9.314 -266.821 -9.113 Z " fill="black" /><path d="M -259.922 -5.439 L -259.922 -5.439 L -259.922 -5.126 L -262.442 -5.126 L -262.442 -5.439 Q -262.061 -5.439 -261.898 -5.512 Q -261.736 -5.585 -261.697 -5.764 Q -261.658 -5.943 -261.658 -6.257 L -261.658 -9.382 Q -261.658 -9.74 -261.781 -9.824 Q -261.904 -9.908 -262.15 -9.908 Q -262.262 -9.908 -262.346 -9.897 Q -262.43 -9.886 -262.43 -9.886 L -262.43 -10.21 L -261.019 -10.524 L -260.728 -10.524 L -260.728 -6.257 Q -260.728 -5.932 -260.683 -5.753 Q -260.638 -5.574 -260.465 -5.506 Q -260.291 -5.439 -259.922 -5.439 Z M -261.176 -12.663 L -261.176 -12.663 Q -260.885 -12.663 -260.711 -12.478 Q -260.538 -12.294 -260.538 -12.036 Q -260.538 -11.778 -260.711 -11.588 Q -260.885 -11.398 -261.176 -11.398 Q -261.456 -11.398 -261.635 -11.588 Q -261.814 -11.778 -261.814 -12.036 Q -261.814 -12.294 -261.641 -12.478 Q -261.467 -12.663 -261.176 -12.663 Z " fill="black" /><path d="M -256.158 -5.82 L -256.158 -5.82 L -256.203 -5.82 Q -256.595 -5.473 -256.954 -5.26 Q -257.312 -5.047 -257.85 -5.047 Q -258.499 -5.047 -258.841 -5.406 Q -259.182 -5.764 -259.182 -6.302 Q -259.182 -6.75 -258.975 -7.058 Q -258.768 -7.366 -258.426 -7.578 Q -258.085 -7.791 -257.687 -7.937 Q -257.29 -8.082 -256.909 -8.183 Q -256.528 -8.284 -256.237 -8.374 L -256.237 -8.866 Q -256.237 -9.594 -256.489 -9.902 Q -256.741 -10.21 -257.245 -10.21 Q -257.726 -10.21 -257.861 -10.009 Q -257.995 -9.807 -257.995 -9.303 Q -257.995 -8.788 -258.488 -8.788 Q -258.656 -8.788 -258.807 -8.917 Q -258.958 -9.046 -258.958 -9.326 Q -258.958 -9.639 -258.718 -9.919 Q -258.477 -10.199 -258.034 -10.378 Q -257.592 -10.558 -256.987 -10.558 Q -256.069 -10.558 -255.688 -10.132 Q -255.307 -9.706 -255.307 -8.833 L -255.307 -6.29 Q -255.307 -5.943 -255.229 -5.842 Q -255.15 -5.742 -254.971 -5.742 Q -254.814 -5.742 -254.686 -5.82 Q -254.557 -5.898 -254.445 -6.022 L -254.277 -5.842 Q -254.557 -5.439 -254.809 -5.254 Q -255.061 -5.07 -255.486 -5.07 Q -255.856 -5.07 -255.979 -5.26 Q -256.102 -5.45 -256.158 -5.82 Z M -256.237 -6.156 L -256.237 -6.156 L -256.237 -8.004 Q -256.741 -7.881 -257.189 -7.713 Q -257.637 -7.545 -257.917 -7.276 Q -258.197 -7.007 -258.197 -6.57 Q -258.197 -6.156 -257.973 -5.91 Q -257.749 -5.663 -257.39 -5.663 Q -256.83 -5.663 -256.237 -6.156 Z " fill="black" /><path d="M -253.795 -6.962 L -253.795 -6.962 L -253.504 -6.962 Q -253.325 -6.1 -252.978 -5.758 Q -252.63 -5.417 -252.014 -5.417 Q -251.589 -5.417 -251.32 -5.59 Q -251.051 -5.764 -251.051 -6.156 Q -251.051 -6.425 -251.146 -6.604 Q -251.242 -6.783 -251.51 -6.968 Q -251.779 -7.153 -252.306 -7.41 Q -253.067 -7.802 -253.426 -8.166 Q -253.784 -8.53 -253.784 -9.146 Q -253.784 -9.841 -253.286 -10.199 Q -252.787 -10.558 -252.07 -10.558 Q -251.645 -10.558 -251.376 -10.462 Q -251.107 -10.367 -250.894 -10.266 L -250.883 -10.266 L -250.693 -10.502 L -250.469 -10.502 L -250.435 -8.788 L -250.738 -8.788 Q -250.917 -9.583 -251.242 -9.88 Q -251.566 -10.177 -252.082 -10.177 Q -252.462 -10.177 -252.726 -9.998 Q -252.989 -9.818 -252.989 -9.438 Q -252.989 -9.113 -252.686 -8.855 Q -252.384 -8.598 -251.678 -8.239 Q -250.917 -7.836 -250.514 -7.461 Q -250.11 -7.086 -250.11 -6.458 Q -250.11 -5.932 -250.368 -5.613 Q -250.626 -5.294 -251.057 -5.148 Q -251.488 -5.002 -251.992 -5.002 Q -252.474 -5.002 -252.759 -5.103 Q -253.045 -5.204 -253.269 -5.294 L -253.291 -5.294 L -253.526 -5.036 L -253.762 -5.036 Z " fill="black" /></g></g></g><circle cx="-173.99999999999994" cy="125.99999999999997" r="2.6999999999999997" style="stroke:black;fill:black;stroke-width:2.0;" /><g><g><g><path d="M 96.44 33.576 L 96.44 33.576 L 92.168 33.576 L 92.264 33.096 Q 92.856 33.096 93.168 32.984 Q 93.48 32.872 93.64 32.56 Q 93.8 32.248 93.912 31.672 L 95.336 24.76 L 95.272 24.76 L 89.896 33.576 L 89.544 33.576 L 87.608 24.776 L 87.544 24.776 L 86.216 31.24 Q 86.056 32.056 86.08 32.456 Q 86.104 32.856 86.392 32.976 Q 86.68 33.096 87.288 33.096 L 87.192 33.576 L 83.496 33.576 L 83.592 33.096 Q 84.216 33.096 84.552 32.976 Q 84.888 32.856 85.08 32.456 Q 85.272 32.056 85.432 31.24 L 86.696 25.016 Q 86.824 24.408 86.776 24.096 Q 86.728 23.784 86.432 23.664 Q 86.136 23.544 85.496 23.544 L 85.592 23.064 L 88.792 23.064 L 90.52 31.16 L 90.584 31.16 L 95.464 23.064 L 98.488 23.064 L 98.392 23.544 Q 97.832 23.544 97.504 23.664 Q 97.176 23.784 97 24.096 Q 96.824 24.408 96.696 25 L 95.336 31.672 Q 95.16 32.552 95.424 32.824 Q 95.688 33.096 96.536 33.096 Z " fill="black" /><path d="M 103.685 35.144 L 103.685 35.144 L 103.326 36.936 L 98.914 36.936 L 98.914 36.555 L 100.616 34.853 Q 101.176 34.282 101.546 33.817 Q 101.915 33.352 102.1 32.882 Q 102.285 32.411 102.285 31.829 Q 102.285 31.202 101.91 30.826 Q 101.534 30.451 100.885 30.451 Q 100.336 30.451 99.95 30.686 Q 99.563 30.922 99.25 31.549 L 98.981 31.437 Q 99.238 30.619 99.798 30.171 Q 100.358 29.723 101.176 29.723 Q 101.814 29.723 102.296 29.964 Q 102.778 30.205 103.052 30.636 Q 103.326 31.067 103.326 31.661 Q 103.326 32.154 103.119 32.607 Q 102.912 33.061 102.503 33.542 Q 102.094 34.024 101.501 34.629 L 100.022 36.029 L 100.022 36.085 L 100.806 36.051 L 102.363 36.051 Q 102.811 36.051 102.99 35.85 Q 103.17 35.648 103.36 35.144 Z " fill="black" /></g></g></g><circle cx="-50.99999999999999" cy="29.999999999999993" r="2.6999999999999997" style="stroke:black;fill:white;stroke-width:2.0;" /><g><g><g><path d="M -79.546 30.344 L -79.546 30.344 L -75.178 23.784 Q -74.954 23.464 -74.818 23.192 Q -74.682 22.92 -74.682 22.728 Q -74.682 22.488 -74.89 22.4 Q -75.098 22.312 -75.642 22.312 L -75.61 21.832 L -72.154 21.832 L -72.186 22.312 Q -72.618 22.312 -72.922 22.44 Q -73.226 22.568 -73.538 22.928 Q -73.85 23.288 -74.346 24.024 L -80.218 32.424 L -80.746 32.424 L -81.642 23.768 Q -81.738 22.968 -81.994 22.64 Q -82.25 22.312 -82.89 22.312 L -82.858 21.832 L -78.938 21.832 L -78.986 22.312 Q -79.594 22.312 -79.946 22.552 Q -80.298 22.792 -80.266 23.336 Q -80.266 23.416 -80.242 23.624 Q -80.218 23.832 -80.218 23.912 L -79.738 28.472 L -79.626 30.344 Z " fill="black" /><path d="M -71.164 35.39 L -71.164 35.39 L -71.164 35.704 L -73.684 35.704 L -73.684 35.39 Q -73.303 35.39 -73.141 35.318 Q -72.978 35.245 -72.939 35.066 Q -72.9 34.886 -72.9 34.573 L -72.9 31.448 Q -72.9 31.09 -73.023 31.006 Q -73.146 30.922 -73.393 30.922 Q -73.505 30.922 -73.589 30.933 Q -73.673 30.944 -73.673 30.944 L -73.673 30.619 L -72.262 30.306 L -71.97 30.306 L -71.97 34.573 Q -71.97 34.898 -71.926 35.077 Q -71.881 35.256 -71.707 35.323 Q -71.534 35.39 -71.164 35.39 Z M -72.418 28.166 L -72.418 28.166 Q -72.127 28.166 -71.954 28.351 Q -71.78 28.536 -71.78 28.794 Q -71.78 29.051 -71.954 29.242 Q -72.127 29.432 -72.418 29.432 Q -72.698 29.432 -72.878 29.242 Q -73.057 29.051 -73.057 28.794 Q -73.057 28.536 -72.883 28.351 Q -72.71 28.166 -72.418 28.166 Z " fill="black" /><path d="M -65.463 32.266 L -65.463 32.266 L -65.463 34.573 Q -65.463 34.886 -65.413 35.066 Q -65.362 35.245 -65.183 35.318 Q -65.004 35.39 -64.634 35.39 L -64.634 35.704 L -67.222 35.704 L -67.222 35.39 Q -66.818 35.39 -66.645 35.318 Q -66.471 35.245 -66.432 35.066 Q -66.393 34.886 -66.393 34.573 L -66.393 32.546 Q -66.393 31.874 -66.544 31.538 Q -66.695 31.202 -66.93 31.095 Q -67.166 30.989 -67.423 30.989 Q -67.871 30.989 -68.196 31.23 Q -68.521 31.47 -68.778 31.694 L -68.778 34.573 Q -68.778 34.886 -68.734 35.066 Q -68.689 35.245 -68.51 35.318 Q -68.33 35.39 -67.927 35.39 L -67.927 35.704 L -70.492 35.704 L -70.492 35.39 Q -70.111 35.39 -69.949 35.318 Q -69.786 35.245 -69.747 35.066 Q -69.708 34.886 -69.708 34.573 L -69.708 31.426 Q -69.708 31.123 -69.831 31.028 Q -69.954 30.933 -70.178 30.933 Q -70.324 30.933 -70.402 30.944 Q -70.481 30.955 -70.481 30.955 L -70.481 30.63 L -69.058 30.306 L -68.801 30.306 L -68.812 31.213 L -68.767 31.213 Q -68.308 30.81 -67.899 30.541 Q -67.49 30.272 -66.964 30.272 Q -66.202 30.272 -65.833 30.787 Q -65.463 31.302 -65.463 32.266 Z " fill="black" /><path d="M -63.615 37.182 L -63.615 37.182 L -63.75 36.902 Q -63.537 36.813 -63.324 36.673 Q -63.111 36.533 -62.966 36.264 Q -62.82 35.995 -62.82 35.547 Q -62.999 35.614 -63.167 35.614 Q -63.492 35.614 -63.638 35.435 Q -63.783 35.256 -63.783 35.01 Q -63.783 34.741 -63.604 34.545 Q -63.425 34.349 -63.089 34.349 Q -62.663 34.349 -62.445 34.612 Q -62.226 34.875 -62.226 35.334 Q -62.226 35.805 -62.378 36.13 Q -62.529 36.454 -62.753 36.656 Q -62.977 36.858 -63.212 36.981 Q -63.447 37.104 -63.615 37.182 Z " fill="black" /><path d="M -60.255 30.306 L -60.255 30.306 L -60.255 31.246 L -60.222 31.246 Q -59.818 30.776 -59.398 30.524 Q -58.978 30.272 -58.486 30.272 Q -57.926 30.272 -57.506 30.591 Q -57.086 30.91 -56.845 31.476 Q -56.604 32.042 -56.604 32.781 Q -56.604 33.733 -56.934 34.41 Q -57.265 35.088 -57.825 35.452 Q -58.385 35.816 -59.057 35.816 Q -59.37 35.816 -59.656 35.743 Q -59.942 35.67 -60.188 35.502 L -60.233 35.502 L -60.233 36.97 Q -60.233 37.328 -60.143 37.518 Q -60.054 37.709 -59.818 37.776 Q -59.583 37.843 -59.146 37.843 L -59.146 38.168 L -61.98 38.168 L -61.98 37.854 Q -61.454 37.854 -61.308 37.681 Q -61.162 37.507 -61.162 37.037 L -61.162 31.493 Q -61.162 31.168 -61.235 31.045 Q -61.308 30.922 -61.588 30.922 Q -61.7 30.922 -61.823 30.933 Q -61.946 30.944 -61.946 30.944 L -61.946 30.619 L -60.535 30.306 Z M -60.233 31.717 L -60.233 31.717 L -60.233 34.64 Q -60.121 34.752 -59.953 34.931 Q -59.785 35.11 -59.55 35.245 Q -59.314 35.379 -59.001 35.379 Q -58.407 35.379 -58.015 34.819 Q -57.623 34.259 -57.623 33.094 Q -57.623 32.03 -57.97 31.532 Q -58.318 31.034 -58.945 31.034 Q -59.393 31.034 -59.734 31.269 Q -60.076 31.504 -60.233 31.717 Z " fill="black" /></g></g></g><circle cx="158.99999999999997" cy="29.999999999999996" r="2.6999999999999997" style="stroke:black;fill:white;stroke-width:2.0;" /><g><g><g><path d="M 169.732 30.837 L 169.732 30.837 L 174.1 24.277 Q 174.324 23.957 174.46 23.685 Q 174.596 23.413 174.596 23.221 Q 174.596 22.981 174.388 22.893 Q 174.18 22.805 173.636 22.805 L 173.668 22.325 L 177.124 22.325 L 177.092 22.805 Q 176.66 22.805 176.356 22.933 Q 176.052 23.061 175.74 23.421 Q 175.428 23.781 174.932 24.517 L 169.06 32.917 L 168.532 32.917 L 167.636 24.261 Q 167.54 23.461 167.284 23.133 Q 167.028 22.805 166.388 22.805 L 166.42 22.325 L 170.34 22.325 L 170.292 22.805 Q 169.684 22.805 169.332 23.045 Q 168.98 23.285 169.012 23.829 Q 169.012 23.909 169.036 24.117 Q 169.06 24.325 169.06 24.405 L 169.54 28.965 L 169.652 30.837 Z " fill="black" /><path d="M 178.114 35.883 L 178.114 35.883 L 178.114 36.197 L 175.594 36.197 L 175.594 35.883 Q 175.975 35.883 176.138 35.81 Q 176.3 35.738 176.339 35.558 Q 176.378 35.379 176.378 35.066 L 176.378 31.941 Q 176.378 31.582 176.255 31.498 Q 176.132 31.414 175.886 31.414 Q 175.774 31.414 175.69 31.426 Q 175.606 31.437 175.606 31.437 L 175.606 31.112 L 177.017 30.798 L 177.308 30.798 L 177.308 35.066 Q 177.308 35.39 177.353 35.57 Q 177.398 35.749 177.571 35.816 Q 177.745 35.883 178.114 35.883 Z M 176.86 28.659 L 176.86 28.659 Q 177.151 28.659 177.325 28.844 Q 177.498 29.029 177.498 29.286 Q 177.498 29.544 177.325 29.734 Q 177.151 29.925 176.86 29.925 Q 176.58 29.925 176.401 29.734 Q 176.222 29.544 176.222 29.286 Q 176.222 29.029 176.395 28.844 Q 176.569 28.659 176.86 28.659 Z " fill="black" /><path d="M 183.815 32.758 L 183.815 32.758 L 183.815 35.066 Q 183.815 35.379 183.866 35.558 Q 183.916 35.738 184.095 35.81 Q 184.274 35.883 184.644 35.883 L 184.644 36.197 L 182.057 36.197 L 182.057 35.883 Q 182.46 35.883 182.634 35.81 Q 182.807 35.738 182.846 35.558 Q 182.886 35.379 182.886 35.066 L 182.886 33.038 Q 182.886 32.366 182.734 32.03 Q 182.583 31.694 182.348 31.588 Q 182.113 31.482 181.855 31.482 Q 181.407 31.482 181.082 31.722 Q 180.758 31.963 180.5 32.187 L 180.5 35.066 Q 180.5 35.379 180.545 35.558 Q 180.59 35.738 180.769 35.81 Q 180.948 35.883 181.351 35.883 L 181.351 36.197 L 178.786 36.197 L 178.786 35.883 Q 179.167 35.883 179.33 35.81 Q 179.492 35.738 179.531 35.558 Q 179.57 35.379 179.57 35.066 L 179.57 31.918 Q 179.57 31.616 179.447 31.521 Q 179.324 31.426 179.1 31.426 Q 178.954 31.426 178.876 31.437 Q 178.798 31.448 178.798 31.448 L 178.798 31.123 L 180.22 30.798 L 180.478 30.798 L 180.466 31.706 L 180.511 31.706 Q 180.97 31.302 181.379 31.034 Q 181.788 30.765 182.314 30.765 Q 183.076 30.765 183.446 31.28 Q 183.815 31.795 183.815 32.758 Z " fill="black" /><path d="M 185.663 37.675 L 185.663 37.675 L 185.529 37.395 Q 185.742 37.306 185.954 37.166 Q 186.167 37.026 186.313 36.757 Q 186.458 36.488 186.458 36.04 Q 186.279 36.107 186.111 36.107 Q 185.786 36.107 185.641 35.928 Q 185.495 35.749 185.495 35.502 Q 185.495 35.234 185.674 35.038 Q 185.854 34.842 186.19 34.842 Q 186.615 34.842 186.834 35.105 Q 187.052 35.368 187.052 35.827 Q 187.052 36.298 186.901 36.622 Q 186.75 36.947 186.526 37.149 Q 186.302 37.35 186.066 37.474 Q 185.831 37.597 185.663 37.675 Z " fill="black" /><path d="M 192.439 32.758 L 192.439 32.758 L 192.439 35.066 Q 192.439 35.379 192.49 35.558 Q 192.54 35.738 192.719 35.81 Q 192.898 35.883 193.268 35.883 L 193.268 36.197 L 190.681 36.197 L 190.681 35.883 Q 191.084 35.883 191.258 35.81 Q 191.431 35.738 191.47 35.558 Q 191.51 35.379 191.51 35.066 L 191.51 33.038 Q 191.51 32.366 191.358 32.03 Q 191.207 31.694 190.972 31.588 Q 190.737 31.482 190.479 31.482 Q 190.031 31.482 189.706 31.722 Q 189.382 31.963 189.124 32.187 L 189.124 35.066 Q 189.124 35.379 189.169 35.558 Q 189.214 35.738 189.393 35.81 Q 189.572 35.883 189.975 35.883 L 189.975 36.197 L 187.41 36.197 L 187.41 35.883 Q 187.791 35.883 187.954 35.81 Q 188.116 35.738 188.155 35.558 Q 188.194 35.379 188.194 35.066 L 188.194 31.918 Q 188.194 31.616 188.071 31.521 Q 187.948 31.426 187.724 31.426 Q 187.578 31.426 187.5 31.437 Q 187.422 31.448 187.422 31.448 L 187.422 31.123 L 188.844 30.798 L 189.102 30.798 L 189.09 31.706 L 189.135 31.706 Q 189.594 31.302 190.003 31.034 Q 190.412 30.765 190.938 30.765 Q 191.7 30.765 192.07 31.28 Q 192.439 31.795 192.439 32.758 Z " fill="black" /></g></g></g><circle cx="1.102182119232618e-15" cy="-18.0" r="2.6999999999999997" style="stroke:black;fill:black;stroke-width:2.0;" /><g><g><g><path d="M 13.04 -62.497 L 13.04 -62.497 L 8.768 -62.497 L 8.864 -62.977 Q 9.456 -62.977 9.768 -63.089 Q 10.08 -63.201 10.24 -63.513 Q 10.4 -63.825 10.512 -64.401 L 11.936 -71.313 L 11.872 -71.313 L 6.496 -62.497 L 6.144 -62.497 L 4.208 -71.297 L 4.144 -71.297 L 2.816 -64.833 Q 2.656 -64.017 2.68 -63.617 Q 2.704 -63.217 2.992 -63.097 Q 3.28 -62.977 3.888 -62.977 L 3.792 -62.497 L 0.096 -62.497 L 0.192 -62.977 Q 0.816 -62.977 1.152 -63.097 Q 1.488 -63.217 1.68 -63.617 Q 1.872 -64.017 2.032 -64.833 L 3.296 -71.057 Q 3.424 -71.665 3.376 -71.977 Q 3.328 -72.289 3.032 -72.409 Q 2.736 -72.529 2.096 -72.529 L 2.192 -73.009 L 5.392 -73.009 L 7.12 -64.913 L 7.184 -64.913 L 12.064 -73.009 L 15.088 -73.009 L 14.992 -72.529 Q 14.432 -72.529 14.104 -72.409 Q 13.776 -72.289 13.6 -71.977 Q 13.424 -71.665 13.296 -71.073 L 11.936 -64.401 Q 11.76 -63.521 12.024 -63.249 Q 12.288 -62.977 13.136 -62.977 Z " fill="black" /><path d="M 16.051 -64.714 L 16.051 -64.714 L 15.794 -64.86 Q 16.432 -66.35 17.821 -66.35 Q 18.683 -66.35 19.154 -65.918 Q 19.624 -65.487 19.624 -64.849 Q 19.624 -64.266 19.282 -63.908 Q 18.941 -63.55 18.414 -63.214 L 18.414 -63.18 Q 18.862 -63.046 19.238 -62.794 Q 19.613 -62.542 19.837 -62.178 Q 20.061 -61.814 20.061 -61.31 Q 20.061 -60.548 19.635 -60.027 Q 19.21 -59.506 18.515 -59.249 Q 17.821 -58.991 17.003 -58.991 Q 16.499 -58.991 16.23 -59.086 Q 15.962 -59.182 15.855 -59.322 Q 15.749 -59.462 15.749 -59.607 Q 15.749 -59.786 15.861 -59.943 Q 15.973 -60.1 16.186 -60.1 Q 16.32 -60.1 16.438 -60.05 Q 16.555 -59.999 16.846 -59.842 Q 17.205 -59.663 17.378 -59.607 Q 17.552 -59.551 17.754 -59.551 Q 18.112 -59.551 18.426 -59.68 Q 18.739 -59.809 18.941 -60.117 Q 19.142 -60.425 19.142 -60.974 Q 19.142 -61.478 18.862 -61.847 Q 18.582 -62.217 18.118 -62.424 Q 17.653 -62.631 17.115 -62.631 L 16.891 -62.631 L 16.891 -63.057 L 17.104 -63.057 Q 17.485 -63.057 17.843 -63.247 Q 18.202 -63.438 18.431 -63.785 Q 18.661 -64.132 18.661 -64.58 Q 18.661 -65.073 18.353 -65.347 Q 18.045 -65.622 17.518 -65.622 Q 17.014 -65.622 16.678 -65.392 Q 16.342 -65.162 16.051 -64.714 Z " fill="black" /></g></g></g><circle cx="108.0" cy="-18.0" r="2.6999999999999997" style="stroke:black;fill:black;stroke-width:2.0;" /><g><g><g><path d="M 96.44 -62.497 L 96.44 -62.497 L 92.168 -62.497 L 92.264 -62.977 Q 92.856 -62.977 93.168 -63.089 Q 93.48 -63.201 93.64 -63.513 Q 93.8 -63.825 93.912 -64.401 L 95.336 -71.313 L 95.272 -71.313 L 89.896 -62.497 L 89.544 -62.497 L 87.608 -71.297 L 87.544 -71.297 L 86.216 -64.833 Q 86.056 -64.017 86.08 -63.617 Q 86.104 -63.217 86.392 -63.097 Q 86.68 -62.977 87.288 -62.977 L 87.192 -62.497 L 83.496 -62.497 L 83.592 -62.977 Q 84.216 -62.977 84.552 -63.097 Q 84.888 -63.217 85.08 -63.617 Q 85.272 -64.017 85.432 -64.833 L 86.696 -71.057 Q 86.824 -71.665 86.776 -71.977 Q 86.728 -72.289 86.432 -72.409 Q 86.136 -72.529 85.496 -72.529 L 85.592 -73.009 L 88.792 -73.009 L 90.52 -64.913 L 90.584 -64.913 L 95.464 -73.009 L 98.488 -73.009 L 98.392 -72.529 Q 97.832 -72.529 97.504 -72.409 Q 97.176 -72.289 97 -71.977 Q 96.824 -71.665 96.696 -71.073 L 95.336 -64.401 Q 95.16 -63.521 95.424 -63.249 Q 95.688 -62.977 96.536 -62.977 Z " fill="black" /><path d="M 103.158 -65.286 L 103.158 -65.286 L 100.526 -65.286 L 100.224 -64.009 L 100.75 -63.975 Q 101.243 -63.942 101.725 -63.807 Q 102.206 -63.673 102.598 -63.404 Q 102.99 -63.135 103.22 -62.693 Q 103.45 -62.25 103.45 -61.59 Q 103.45 -60.727 103.069 -60.15 Q 102.688 -59.574 102.01 -59.282 Q 101.333 -58.991 100.437 -58.991 Q 99.149 -58.991 99.149 -59.618 Q 99.149 -59.809 99.266 -59.954 Q 99.384 -60.1 99.597 -60.1 Q 99.821 -60.1 100.039 -59.966 Q 100.258 -59.831 100.515 -59.691 Q 100.773 -59.551 101.131 -59.551 Q 101.534 -59.551 101.876 -59.708 Q 102.218 -59.865 102.425 -60.212 Q 102.632 -60.559 102.632 -61.142 Q 102.632 -62.194 102.005 -62.609 Q 101.378 -63.023 100.213 -63.079 Q 100 -63.102 99.916 -63.102 Q 99.832 -63.102 99.709 -63.102 L 99.574 -63.27 L 100.269 -66.193 L 103.338 -66.193 Z " fill="black" /></g></g></g><circle cx="-54.0" cy="-66.0" r="2.6999999999999997" style="stroke:black;fill:black;stroke-width:2.0;" /><g><g><g><path d="M -134.56 -62.424 L -134.56 -62.424 L -138.832 -62.424 L -138.736 -62.904 Q -138.144 -62.904 -137.832 -63.016 Q -137.52 -63.128 -137.36 -63.44 Q -137.2 -63.752 -137.088 -64.328 L -135.664 -71.24 L -135.728 -71.24 L -141.104 -62.424 L -141.456 -62.424 L -143.392 -71.224 L -143.456 -71.224 L -144.784 -64.76 Q -144.944 -63.944 -144.92 -63.544 Q -144.896 -63.144 -144.608 -63.024 Q -144.32 -62.904 -143.712 -62.904 L -143.808 -62.424 L -147.504 -62.424 L -147.408 -62.904 Q -146.784 -62.904 -146.448 -63.024 Q -146.112 -63.144 -145.92 -63.544 Q -145.728 -63.944 -145.568 -64.76 L -144.304 -70.984 Q -144.176 -71.592 -144.224 -71.904 Q -144.272 -72.216 -144.568 -72.336 Q -144.864 -72.456 -145.504 -72.456 L -145.408 -72.936 L -142.208 -72.936 L -140.48 -64.84 L -140.416 -64.84 L -135.536 -72.936 L -132.512 -72.936 L -132.608 -72.456 Q -133.168 -72.456 -133.496 -72.336 Q -133.824 -72.216 -134 -71.904 Q -134.176 -71.592 -134.304 -71 L -135.664 -64.328 Q -135.84 -63.448 -135.576 -63.176 Q -135.312 -62.904 -134.464 -62.904 Z " fill="black" /><path d="M -127.125 -60.834 L -127.125 -60.834 L -128.267 -60.834 L -128.267 -59.064 L -129.264 -59.064 L -129.264 -60.834 L -132.366 -60.834 L -132.366 -61.539 L -128.95 -66.288 L -128.267 -66.288 L -128.267 -61.606 L -127.125 -61.606 Z M -129.264 -61.606 L -129.264 -61.606 L -129.264 -65.067 L -129.309 -65.067 L -131.75 -61.651 L -131.75 -61.606 Z " fill="black" /></g></g></g><circle cx="162.0" cy="-66.0" r="2.6999999999999997" style="stroke:black;fill:black;stroke-width:2.0;" /><g><g><g><path d="M 244.04 -62.491 L 244.04 -62.491 L 239.768 -62.491 L 239.864 -62.971 Q 240.456 -62.971 240.768 -63.083 Q 241.08 -63.195 241.24 -63.507 Q 241.4 -63.819 241.512 -64.395 L 242.936 -71.307 L 242.872 -71.307 L 237.496 -62.491 L 237.144 -62.491 L 235.208 -71.291 L 235.144 -71.291 L 233.816 -64.827 Q 233.656 -64.011 233.68 -63.611 Q 233.704 -63.211 233.992 -63.091 Q 234.28 -62.971 234.888 -62.971 L 234.792 -62.491 L 231.096 -62.491 L 231.192 -62.971 Q 231.816 -62.971 232.152 -63.091 Q 232.488 -63.211 232.68 -63.611 Q 232.872 -64.011 233.032 -64.827 L 234.296 -71.051 Q 234.424 -71.659 234.376 -71.971 Q 234.328 -72.283 234.032 -72.403 Q 233.736 -72.523 233.096 -72.523 L 233.192 -73.003 L 236.392 -73.003 L 238.12 -64.907 L 238.184 -64.907 L 243.064 -73.003 L 246.088 -73.003 L 245.992 -72.523 Q 245.432 -72.523 245.104 -72.403 Q 244.776 -72.283 244.6 -71.971 Q 244.424 -71.659 244.296 -71.067 L 242.936 -64.395 Q 242.76 -63.515 243.024 -63.243 Q 243.288 -62.971 244.136 -62.971 Z " fill="black" /><path d="M 250.736 -66.366 L 250.736 -66.366 L 250.758 -66.042 Q 249.974 -65.93 249.325 -65.538 Q 248.675 -65.146 248.238 -64.518 Q 247.802 -63.891 247.656 -63.074 L 247.734 -63.062 Q 248.082 -63.398 248.418 -63.578 Q 248.754 -63.757 249.19 -63.757 Q 250.109 -63.757 250.658 -63.13 Q 251.206 -62.502 251.206 -61.405 Q 251.206 -60.262 250.63 -59.63 Q 250.053 -58.997 248.989 -58.997 Q 248.16 -58.997 247.628 -59.406 Q 247.096 -59.814 246.844 -60.503 Q 246.592 -61.192 246.592 -62.01 Q 246.592 -63.365 247.124 -64.317 Q 247.656 -65.269 248.597 -65.795 Q 249.538 -66.322 250.736 -66.366 Z M 250.232 -61.315 L 250.232 -61.315 Q 250.232 -62.077 249.89 -62.592 Q 249.549 -63.107 248.854 -63.107 Q 248.53 -63.107 248.244 -62.978 Q 247.958 -62.85 247.779 -62.558 Q 247.6 -62.267 247.6 -61.774 Q 247.6 -61.08 247.757 -60.542 Q 247.914 -60.005 248.233 -59.697 Q 248.552 -59.389 249.034 -59.389 Q 249.594 -59.389 249.913 -59.82 Q 250.232 -60.251 250.232 -61.315 Z " fill="black" /></g></g></g><g><g><g><path d="M -134.56 213.531 L -134.56 213.531 L -138.832 213.531 L -138.736 213.051 Q -138.144 213.051 -137.832 212.939 Q -137.52 212.827 -137.36 212.515 Q -137.2 212.203 -137.088 211.627 L -135.664 204.715 L -135.728 204.715 L -141.104 213.531 L -141.456 213.531 L -143.392 204.731 L -143.456 204.731 L -144.784 211.195 Q -144.944 212.011 -144.92 212.411 Q -144.896 212.811 -144.608 212.931 Q -144.32 213.051 -143.712 213.051 L -143.808 213.531 L -147.504 213.531 L -147.408 213.051 Q -146.784 213.051 -146.448 212.931 Q -146.112 212.811 -145.92 212.411 Q -145.728 212.011 -145.568 211.195 L -144.304 204.971 Q -144.176 204.363 -144.224 204.051 Q -144.272 203.739 -144.568 203.619 Q -144.864 203.499 -145.504 203.499 L -145.408 203.019 L -142.208 203.019 L -140.48 211.115 L -140.416 211.115 L -135.536 203.019 L -132.512 203.019 L -132.608 203.499 Q -133.168 203.499 -133.496 203.619 Q -133.824 203.739 -134 204.051 Q -134.176 204.363 -134.304 204.955 L -135.664 211.627 Q -135.84 212.507 -135.576 212.779 Q -135.312 213.051 -134.464 213.051 Z " fill="black" /><path d="M -127.315 210.182 L -127.315 210.182 L -129.936 216.981 L -130.821 216.981 L -128.178 210.742 L -130.675 210.742 Q -130.989 210.742 -131.157 210.798 Q -131.325 210.854 -131.431 211.034 Q -131.538 211.213 -131.694 211.582 L -132.042 211.549 L -131.594 209.835 L -127.315 209.835 Z " fill="black" /></g></g></g><circle cx="-72.00000000000003" cy="210.0" r="2.6999999999999997" style="stroke:black;fill:black;stroke-width:2.0;" /><circle cx="-123.00000000000003" cy="162.0" r="2.6999999999999997" style="stroke:black;fill:black;stroke-width:2.0;" /><circle cx="230.99999999999994" cy="72.0" r="2.6999999999999997" style="stroke:black;fill:black;stroke-width:2.0;" /><circle cx="266.99999999999994" cy="72.0" r="2.6999999999999997" style="stroke:black;fill:white;stroke-width:2.0;" /><g><g><g><path d="M 275.172 73.424 L 275.172 73.424 L 276.484 67.12 Q 276.628 66.496 276.62 66.136 Q 276.612 65.776 276.324 65.632 Q 276.036 65.488 275.3 65.488 L 275.396 65.008 L 279.828 65.008 L 279.732 65.488 Q 279.028 65.488 278.676 65.632 Q 278.324 65.776 278.18 66.136 Q 278.036 66.496 277.908 67.12 L 276.596 73.488 Q 276.548 73.744 276.516 73.952 Q 276.484 74.16 276.484 74.336 Q 276.484 74.784 276.748 74.912 Q 277.012 75.04 277.764 75.04 L 277.668 75.52 L 273.3 75.52 L 273.396 75.04 Q 274.052 75.04 274.38 74.928 Q 274.708 74.816 274.868 74.472 Q 275.028 74.128 275.172 73.424 Z " fill="black" /><path d="M 282.718 73.448 L 282.718 73.448 Q 283.871 73.448 284.538 74.165 Q 285.204 74.882 285.204 76.125 Q 285.204 77.066 284.885 77.704 Q 284.566 78.342 284.006 78.667 Q 283.446 78.992 282.718 78.992 Q 281.542 78.992 280.875 78.258 Q 280.209 77.525 280.209 76.17 Q 280.209 75.352 280.522 74.742 Q 280.836 74.131 281.402 73.79 Q 281.967 73.448 282.718 73.448 Z M 282.673 73.874 L 282.673 73.874 Q 282.034 73.874 281.642 74.411 Q 281.25 74.949 281.25 76.024 Q 281.25 77.357 281.648 77.956 Q 282.046 78.555 282.762 78.544 Q 283.222 78.544 283.535 78.331 Q 283.849 78.118 284.011 77.603 Q 284.174 77.088 284.174 76.181 Q 284.174 75.15 283.798 74.512 Q 283.423 73.874 282.673 73.874 Z " fill="black" /><path d="M 291.633 78.376 L 291.633 78.376 L 291.633 78.678 L 290.21 78.936 L 289.964 78.936 L 289.964 78.074 L 289.908 78.074 Q 289.46 78.51 289.034 78.751 Q 288.609 78.992 288.071 78.992 Q 287.377 78.992 286.99 78.538 Q 286.604 78.085 286.604 76.942 L 286.604 74.669 Q 286.604 74.21 286.453 74.114 Q 286.302 74.019 285.842 74.008 L 285.842 73.694 L 287.287 73.526 L 287.534 73.526 L 287.534 76.797 Q 287.534 77.648 287.819 77.962 Q 288.105 78.275 288.542 78.275 Q 288.967 78.275 289.275 78.085 Q 289.583 77.894 289.919 77.603 L 289.919 74.658 Q 289.919 74.21 289.734 74.109 Q 289.55 74.008 289.012 74.008 L 289.012 73.694 L 290.58 73.526 L 290.849 73.526 L 290.849 77.637 Q 290.849 78.13 290.983 78.253 Q 291.118 78.376 291.521 78.376 Z " fill="black" /><path d="M 295.25 77.872 L 295.25 77.872 L 295.463 78.051 Q 295.25 78.354 295.066 78.561 Q 294.881 78.768 294.657 78.88 Q 294.433 78.992 294.074 78.992 Q 293.514 78.992 293.257 78.662 Q 292.999 78.331 292.999 77.581 L 292.999 74.109 L 292.383 74.109 L 292.383 73.851 Q 292.775 73.605 293.061 73.185 Q 293.346 72.765 293.649 72.048 L 293.94 72.048 L 293.929 73.638 L 295.194 73.638 L 295.194 74.109 L 293.929 74.109 L 293.929 77.267 Q 293.929 77.861 294.035 78.096 Q 294.142 78.331 294.466 78.331 Q 294.735 78.331 294.886 78.219 Q 295.038 78.107 295.25 77.872 Z " fill="black" /><path d="M 303.385 67.76 L 303.385 67.76 Q 305.033 67.76 305.985 68.784 Q 306.937 69.808 306.937 71.584 Q 306.937 72.928 306.481 73.84 Q 306.025 74.752 305.225 75.216 Q 304.425 75.68 303.385 75.68 Q 301.705 75.68 300.753 74.632 Q 299.801 73.584 299.801 71.648 Q 299.801 70.48 300.249 69.608 Q 300.697 68.736 301.505 68.248 Q 302.313 67.76 303.385 67.76 Z M 303.321 68.368 L 303.321 68.368 Q 302.409 68.368 301.849 69.136 Q 301.289 69.904 301.289 71.44 Q 301.289 73.344 301.857 74.2 Q 302.425 75.056 303.449 75.04 Q 304.105 75.04 304.553 74.736 Q 305.001 74.432 305.233 73.696 Q 305.465 72.96 305.465 71.664 Q 305.465 70.192 304.929 69.28 Q 304.393 68.368 303.321 68.368 Z " fill="black" /><path d="M 310.409 67.808 L 310.409 67.808 L 310.409 69.456 L 310.457 69.456 Q 311.065 68.56 311.505 68.136 Q 311.945 67.712 312.521 67.712 Q 312.985 67.712 313.217 67.952 Q 313.449 68.192 313.449 68.608 Q 313.449 69.056 313.233 69.264 Q 313.017 69.472 312.745 69.472 Q 312.489 69.472 312.289 69.336 Q 312.089 69.2 311.945 69.064 Q 311.801 68.928 311.705 68.928 Q 311.433 68.928 311.081 69.344 Q 310.729 69.76 310.441 70.24 L 310.441 73.888 Q 310.441 74.384 310.569 74.64 Q 310.697 74.896 311.025 74.976 Q 311.353 75.056 311.945 75.056 L 311.945 75.52 L 307.945 75.52 L 307.945 75.056 Q 308.473 75.056 308.721 74.968 Q 308.969 74.88 309.041 74.648 Q 309.113 74.416 309.113 73.968 L 309.113 69.568 Q 309.113 69.136 309.041 68.92 Q 308.969 68.704 308.537 68.704 Q 308.297 68.704 308.169 68.72 Q 308.041 68.736 308.041 68.736 L 308.041 68.288 L 310.025 67.808 Z " fill="black" /><path d="M 321.753 73.52 L 321.753 73.52 L 326.121 66.96 Q 326.345 66.64 326.481 66.368 Q 326.617 66.096 326.617 65.904 Q 326.617 65.664 326.409 65.576 Q 326.201 65.488 325.657 65.488 L 325.689 65.008 L 329.145 65.008 L 329.113 65.488 Q 328.681 65.488 328.377 65.616 Q 328.073 65.744 327.761 66.104 Q 327.449 66.464 326.953 67.2 L 321.081 75.6 L 320.553 75.6 L 319.657 66.944 Q 319.561 66.144 319.305 65.816 Q 319.049 65.488 318.409 65.488 L 318.441 65.008 L 322.361 65.008 L 322.313 65.488 Q 321.705 65.488 321.353 65.728 Q 321.001 65.968 321.033 66.512 Q 321.033 66.592 321.057 66.8 Q 321.081 67.008 321.081 67.088 L 321.561 71.648 L 321.673 73.52 Z " fill="black" /><path d="M 328.482 73.448 L 328.482 73.448 Q 329.636 73.448 330.302 74.165 Q 330.969 74.882 330.969 76.125 Q 330.969 77.066 330.65 77.704 Q 330.33 78.342 329.77 78.667 Q 329.21 78.992 328.482 78.992 Q 327.306 78.992 326.64 78.258 Q 325.974 77.525 325.974 76.17 Q 325.974 75.352 326.287 74.742 Q 326.601 74.131 327.166 73.79 Q 327.732 73.448 328.482 73.448 Z M 328.438 73.874 L 328.438 73.874 Q 327.799 73.874 327.407 74.411 Q 327.015 74.949 327.015 76.024 Q 327.015 77.357 327.413 77.956 Q 327.81 78.555 328.527 78.544 Q 328.986 78.544 329.3 78.331 Q 329.614 78.118 329.776 77.603 Q 329.938 77.088 329.938 76.181 Q 329.938 75.15 329.563 74.512 Q 329.188 73.874 328.438 73.874 Z " fill="black" /><path d="M 337.398 78.376 L 337.398 78.376 L 337.398 78.678 L 335.975 78.936 L 335.729 78.936 L 335.729 78.074 L 335.673 78.074 Q 335.225 78.51 334.799 78.751 Q 334.374 78.992 333.836 78.992 Q 333.142 78.992 332.755 78.538 Q 332.369 78.085 332.369 76.942 L 332.369 74.669 Q 332.369 74.21 332.218 74.114 Q 332.066 74.019 331.607 74.008 L 331.607 73.694 L 333.052 73.526 L 333.298 73.526 L 333.298 76.797 Q 333.298 77.648 333.584 77.962 Q 333.87 78.275 334.306 78.275 Q 334.732 78.275 335.04 78.085 Q 335.348 77.894 335.684 77.603 L 335.684 74.658 Q 335.684 74.21 335.499 74.109 Q 335.314 74.008 334.777 74.008 L 334.777 73.694 L 336.345 73.526 L 336.614 73.526 L 336.614 77.637 Q 336.614 78.13 336.748 78.253 Q 336.882 78.376 337.286 78.376 Z " fill="black" /><path d="M 341.015 77.872 L 341.015 77.872 L 341.228 78.051 Q 341.015 78.354 340.83 78.561 Q 340.646 78.768 340.422 78.88 Q 340.198 78.992 339.839 78.992 Q 339.279 78.992 339.022 78.662 Q 338.764 78.331 338.764 77.581 L 338.764 74.109 L 338.148 74.109 L 338.148 73.851 Q 338.54 73.605 338.826 73.185 Q 339.111 72.765 339.414 72.048 L 339.705 72.048 L 339.694 73.638 L 340.959 73.638 L 340.959 74.109 L 339.694 74.109 L 339.694 77.267 Q 339.694 77.861 339.8 78.096 Q 339.906 78.331 340.231 78.331 Q 340.5 78.331 340.651 78.219 Q 340.802 78.107 341.015 77.872 Z " fill="black" /></g></g></g><g><g><g><path d="M 244.04 213.509 L 244.04 213.509 L 239.768 213.509 L 239.864 213.029 Q 240.456 213.029 240.768 212.917 Q 241.08 212.805 241.24 212.493 Q 241.4 212.181 241.512 211.605 L 242.936 204.693 L 242.872 204.693 L 237.496 213.509 L 237.144 213.509 L 235.208 204.709 L 235.144 204.709 L 233.816 211.173 Q 233.656 211.989 233.68 212.389 Q 233.704 212.789 233.992 212.909 Q 234.28 213.029 234.888 213.029 L 234.792 213.509 L 231.096 213.509 L 231.192 213.029 Q 231.816 213.029 232.152 212.909 Q 232.488 212.789 232.68 212.389 Q 232.872 211.989 233.032 211.173 L 234.296 204.949 Q 234.424 204.341 234.376 204.029 Q 234.328 203.717 234.032 203.597 Q 233.736 203.477 233.096 203.477 L 233.192 202.997 L 236.392 202.997 L 238.12 211.093 L 238.184 211.093 L 243.064 202.997 L 246.088 202.997 L 245.992 203.477 Q 245.432 203.477 245.104 203.597 Q 244.776 203.717 244.6 204.029 Q 244.424 204.341 244.296 204.933 L 242.936 211.605 Q 242.76 212.485 243.024 212.757 Q 243.288 213.029 244.136 213.029 Z " fill="black" /><path d="M 251.106 215.189 L 251.106 215.189 Q 251.106 216.074 250.473 216.538 Q 249.84 217.003 248.843 217.003 Q 247.869 217.003 247.236 216.566 Q 246.603 216.13 246.603 215.278 Q 246.603 214.83 246.771 214.522 Q 246.939 214.214 247.281 213.946 Q 247.622 213.677 248.138 213.33 L 248.138 213.296 Q 247.566 212.893 247.27 212.585 Q 246.973 212.277 246.861 211.969 Q 246.749 211.661 246.749 211.28 Q 246.749 210.765 247.023 210.395 Q 247.298 210.026 247.779 209.824 Q 248.261 209.622 248.877 209.622 Q 249.437 209.622 249.879 209.824 Q 250.322 210.026 250.579 210.373 Q 250.837 210.72 250.837 211.168 Q 250.837 211.571 250.691 211.862 Q 250.546 212.154 250.232 212.394 Q 249.918 212.635 249.392 212.926 L 249.392 212.96 Q 250.053 213.352 250.422 213.694 Q 250.792 214.035 250.949 214.388 Q 251.106 214.741 251.106 215.189 Z M 248.474 213.509 L 248.474 213.509 Q 247.992 213.89 247.734 214.248 Q 247.477 214.606 247.477 215.189 Q 247.477 215.939 247.863 216.298 Q 248.25 216.656 248.888 216.656 Q 249.414 216.656 249.79 216.37 Q 250.165 216.085 250.165 215.514 Q 250.165 215.155 250.025 214.864 Q 249.885 214.573 249.521 214.259 Q 249.157 213.946 248.474 213.509 Z M 250.008 211.146 L 250.008 211.146 Q 250.008 210.586 249.7 210.289 Q 249.392 209.992 248.854 209.992 Q 248.283 209.992 247.953 210.278 Q 247.622 210.563 247.622 211.078 Q 247.622 211.571 247.958 211.93 Q 248.294 212.288 249.045 212.747 Q 249.605 212.411 249.806 212.047 Q 250.008 211.683 250.008 211.146 Z " fill="black" /></g></g></g></svg>