<svg xmlns="http://www.w3.org/2000/svg" xml:lang="en" height="240.87599999999998pt" width="281.48pt" viewBox="-104.78479999999999 -63.236 281.48 240.87599999999998"><path d="M 0.0,59.99999999999999 L 0.0,45.0 L -14.999999999999998,45.0 L -14.999999999999998,14.999999999999998 L 0.0,14.999999999999998 L 0.0,-0.0" style="stroke:black;fill:none;stroke-width:2.0;stroke-linecap:round;stroke-linejoin:round;" /><path d="M -9.0,45.0 L -14.999999999999998,45.0" style="stroke:black;fill:none;stroke-width:2.0;stroke-linecap:round;stroke-linejoin:round;" /><path d="M -2.0 45.0 L -9.0 49.5 L -9.0 40.5 Z" style="stroke:black;fill:black;stroke-linecap:butt;stroke-linejoin:miter;" /><path d="M -17.999999999999996,42.0 L -17.999999999999996,17.999999999999996" style="stroke:black;fill:none;stroke-width:2.0;stroke-linecap:round;stroke-linejoin:round;" /><path d="M -32.99999999999999,29.999999999999996 L -17.999999999999996,29.999999999999996" style="stroke:black;fill:none;stroke-width:2.0;stroke-linecap:round;stroke-linejoin:round;" /><path d="M 0.0,59.99999999999999 L -1.6532731788489267e-15,69.0 L -3.3065463576978533e-15,78.0" style="stroke:black;fill:none;stroke-width:2.0;stroke-linecap:round;stroke-linejoin:round;" /><path d="M -3.3065463576978533e-15,78.0 L 17.999999999999996,78.0 L 35.99999999999999,78.0" style="stroke:black;fill:none;stroke-width:2.0;stroke-linecap:round;stroke-linejoin:round;" /><path d="M 35.99999999999999,78.0 L 35.99999999999999,96.0 L 44.99999999999999,99.0 L 26.999999999999993,105.0 L 44.99999999999999,110.99999999999999 L 26.99999999999999,117.0 L 44.999999999999986,123.0 L 26.999999999999986,129.0 L 35.999999999999986,132.0 L 35.999999999999986,149.99999999999997" style="stroke:black;fill:none;stroke-width:2.0;stroke-linecap:round;stroke-linejoin:round;" /><path d="M 35.999999999999986,149.99999999999997 L 35.999999999999986,164.39999999999998 L 26.999999999999986,164.39999999999998 L 44.999999999999986,164.39999999999998 M 29.69999999999998,168.71999999999997 L 42.29999999999998,168.71999999999997 M 34.19999999999998,173.03999999999996 L 37.79999999999998,173.03999999999996" style="stroke:black;fill:none;stroke-width:2.0;stroke-linecap:round;stroke-linejoin:round;" /><path d="M 35.99999999999999,78.0 L 54.0,78.0 L 72.0,78.0" style="stroke:black;fill:none;stroke-width:2.0;stroke-linecap:round;stroke-linejoin:round;" /><path d="M 72.0,78.0 L 72.0,69.0 L 72.0,59.99999999999999" style="stroke:black;fill:none;stroke-width:2.0;stroke-linecap:round;stroke-linejoin:round;" /><path d="M 72.0,-0.0 L 72.0,14.999999999999995 L 87.0,14.999999999999995 L 87.0,45.0 L 72.0,45.0 L 72.0,59.99999999999999" style="stroke:black;fill:none;stroke-width:2.0;stroke-linecap:round;stroke-linejoin:round;" /><path d="M 87.0,45.0 L 81.0,45.0" style="stroke:black;fill:none;stroke-width:2.0;stroke-linecap:round;stroke-linejoin:round;" /><path d="M 74.0 45.0 L 81.0 40.5 L 81.0 49.5 Z" style="stroke:black;fill:black;stroke-linecap:butt;stroke-linejoin:miter;" /><path d="M 90.0,18.0 L 90.0,42.0" style="stroke:black;fill:none;stroke-width:2.0;stroke-linecap:round;stroke-linejoin:round;" /><path d="M 90.0,29.999999999999996 L 105.0,29.999999999999996" style="stroke:black;fill:none;stroke-width:2.0;stroke-linecap:round;stroke-linejoin:round;" /><path d="M -32.99999999999999,29.999999999999996 L -50.99999999999999,29.999999999999993 L -69.0,29.999999999999993" style="stroke:black;fill:none;stroke-width:2.0;stroke-linecap:round;stroke-linejoin:round;" /><path d="M 105.0,29.999999999999996 L 123.0,29.999999999999996 L 141.0,29.999999999999996" style="stroke:black;fill:none;stroke-width:2.0;stroke-linecap:round;stroke-linejoin:round;" /><path d="M 0.0,-0.0 L 1.102182119232618e-15,-18.0 L 2.204364238465236e-15,-36.0" style="stroke:black;fill:none;stroke-width:2.0;stroke-linecap:round;stroke-linejoin:round;" /><path d="M 72.0,-0.0 L 72.0,-18.0 L 72.0,-36.0" style="stroke:black;fill:none;stroke-width:2.0;stroke-linecap:round;stroke-linejoin:round;" /><g><g><g><path d="M 13.04 33.576 L 13.04 33.576 L 8.768 33.576 L 8.864 33.096 Q 9.456 33.096 9.768 32.984 Q 10.08 32.872 10.24 32.56 Q 10.4 32.248 10.512 31.672 L 11.936 24.76 L 11.872 24.76 L 6.496 33.576 L 6.144 33.576 L 4.208 24.776 L 4.144 24.776 L 2.816 31.24 Q 2.656 32.056 2.68 32.456 Q 2.704 32.856 2.992 32.976 Q 3.28 33.096 3.888 33.096 L 3.792 33.576 L 0.096 33.576 L 0.192 33.096 Q 0.816 33.096 1.152 32.976 Q 1.488 32.856 1.68 32.456 Q 1.872 32.056 2.032 31.24 L 3.296 25.016 Q 3.424 24.408 3.376 24.096 Q 3.328 23.784 3.032 23.664 Q 2.736 23.544 2.096 23.544 L 2.192 23.064 L 5.392 23.064 L 7.12 31.16 L 7.184 31.16 L 12.064 23.064 L 15.088 23.064 L 14.992 23.544 Q 14.432 23.544 14.104 23.664 Q 13.776 23.784 13.6 24.096 Q 13.424 24.408 13.296 25 L 11.936 31.672 Q 11.76 32.552 12.024 32.824 Q 12.288 33.096 13.136 33.096 Z " fill="black" /><path d="M 19.859 36.936 L 19.859 36.936 L 15.984 36.936 L 15.984 36.622 Q 16.779 36.622 17.104 36.454 Q 17.429 36.286 17.429 35.872 L 17.429 31.134 Q 17.429 30.843 17.35 30.714 Q 17.272 30.586 17.059 30.586 Q 16.891 30.586 16.533 30.63 Q 16.174 30.675 15.917 30.765 L 15.917 30.395 L 18.09 29.779 L 18.414 29.779 L 18.414 35.872 Q 18.414 36.286 18.75 36.454 Q 19.086 36.622 19.859 36.622 Z " fill="black" /></g></g></g><circle cx="35.99999999999999" cy="78.0" r="2.6999999999999997" style="stroke:black;fill:black;stroke-width:2.0;" /><g><g><g><path d="M 7.878 108.56 L 7.878 108.56 L 7.782 109.376 L 6.39 109.216 L 6.39 109.264 Q 6.662 109.568 6.814 110.024 Q 6.966 110.48 6.966 110.896 Q 6.966 111.616 6.678 112.104 Q 6.39 112.592 5.926 112.888 Q 5.462 113.184 4.902 113.336 Q 4.342 113.488 3.814 113.536 Q 3.174 113.6 2.91 113.808 Q 2.646 114.016 2.646 114.24 Q 2.646 114.528 2.966 114.68 Q 3.286 114.832 3.79 114.928 Q 4.294 115.024 4.87 115.144 Q 5.446 115.264 5.95 115.472 Q 6.454 115.68 6.774 116.056 Q 7.094 116.432 7.094 117.056 Q 7.094 117.744 6.646 118.328 Q 6.198 118.912 5.318 119.272 Q 4.438 119.632 3.158 119.632 Q 2.006 119.632 1.318 119.352 Q 0.63 119.072 0.326 118.632 Q 0.022 118.192 0.022 117.712 Q 0.022 116.944 0.614 116.472 Q 1.206 116 1.958 115.76 L 1.958 115.696 Q 1.75 115.568 1.566 115.336 Q 1.382 115.104 1.382 114.736 Q 1.382 114.336 1.59 114.096 Q 1.798 113.856 2.126 113.704 Q 2.454 113.552 2.774 113.44 L 2.774 113.344 Q 2.15 113.072 1.686 112.576 Q 1.222 112.08 1.222 111.168 Q 1.222 110.336 1.622 109.704 Q 2.022 109.072 2.718 108.72 Q 3.414 108.368 4.278 108.368 Q 4.854 108.368 5.15 108.424 Q 5.446 108.48 5.734 108.56 Z M 5.942 117.648 L 5.942 117.648 Q 5.942 117.168 5.542 116.872 Q 5.142 116.576 4.55 116.4 Q 3.958 116.224 3.358 116.12 Q 2.758 116.016 2.342 115.936 Q 1.942 116.192 1.606 116.52 Q 1.27 116.848 1.27 117.472 Q 1.27 118.112 1.766 118.592 Q 2.262 119.072 3.478 119.072 Q 4.63 119.072 5.286 118.648 Q 5.942 118.224 5.942 117.648 Z M 5.542 110.72 L 5.542 110.72 Q 5.542 109.92 5.238 109.384 Q 4.934 108.848 4.23 108.848 Q 3.542 108.848 3.094 109.424 Q 2.646 110 2.646 111.168 Q 2.646 112 2.934 112.52 Q 3.222 113.04 3.91 113.04 Q 4.71 113.04 5.126 112.368 Q 5.542 111.696 5.542 110.72 Z " fill="black" /><path d="M 11.384 118.384 L 11.384 118.384 L 11.597 118.563 Q 11.384 118.866 11.199 119.073 Q 11.014 119.28 10.79 119.392 Q 10.566 119.504 10.208 119.504 Q 9.648 119.504 9.39 119.174 Q 9.133 118.843 9.133 118.093 L 9.133 114.621 L 8.517 114.621 L 8.517 114.363 Q 8.909 114.117 9.194 113.697 Q 9.48 113.277 9.782 112.56 L 10.074 112.56 L 10.062 114.15 L 11.328 114.15 L 11.328 114.621 L 10.062 114.621 L 10.062 117.779 Q 10.062 118.373 10.169 118.608 Q 10.275 118.843 10.6 118.843 Q 10.869 118.843 11.02 118.731 Q 11.171 118.619 11.384 118.384 Z " fill="black" /><path d="M 15.08 118.698 L 15.08 118.698 L 15.035 118.698 Q 14.643 119.045 14.285 119.258 Q 13.926 119.47 13.389 119.47 Q 12.739 119.47 12.398 119.112 Q 12.056 118.754 12.056 118.216 Q 12.056 117.768 12.263 117.46 Q 12.47 117.152 12.812 116.939 Q 13.154 116.726 13.551 116.581 Q 13.949 116.435 14.33 116.334 Q 14.71 116.234 15.002 116.144 L 15.002 115.651 Q 15.002 114.923 14.75 114.615 Q 14.498 114.307 13.994 114.307 Q 13.512 114.307 13.378 114.509 Q 13.243 114.71 13.243 115.214 Q 13.243 115.73 12.75 115.73 Q 12.582 115.73 12.431 115.601 Q 12.28 115.472 12.28 115.192 Q 12.28 114.878 12.521 114.598 Q 12.762 114.318 13.204 114.139 Q 13.646 113.96 14.251 113.96 Q 15.17 113.96 15.55 114.386 Q 15.931 114.811 15.931 115.685 L 15.931 118.227 Q 15.931 118.574 16.01 118.675 Q 16.088 118.776 16.267 118.776 Q 16.424 118.776 16.553 118.698 Q 16.682 118.619 16.794 118.496 L 16.962 118.675 Q 16.682 119.078 16.43 119.263 Q 16.178 119.448 15.752 119.448 Q 15.382 119.448 15.259 119.258 Q 15.136 119.067 15.08 118.698 Z M 15.002 118.362 L 15.002 118.362 L 15.002 116.514 Q 14.498 116.637 14.05 116.805 Q 13.602 116.973 13.322 117.242 Q 13.042 117.51 13.042 117.947 Q 13.042 118.362 13.266 118.608 Q 13.49 118.854 13.848 118.854 Q 14.408 118.854 15.002 118.362 Z " fill="black" /><path d="M 19.885 119.078 L 19.885 119.078 L 19.885 119.392 L 17.365 119.392 L 17.365 119.078 Q 17.746 119.078 17.908 119.006 Q 18.07 118.933 18.11 118.754 Q 18.149 118.574 18.149 118.261 L 18.149 115.136 Q 18.149 114.778 18.026 114.694 Q 17.902 114.61 17.656 114.61 Q 17.544 114.61 17.46 114.621 Q 17.376 114.632 17.376 114.632 L 17.376 114.307 L 18.787 113.994 L 19.078 113.994 L 19.078 118.261 Q 19.078 118.586 19.123 118.765 Q 19.168 118.944 19.342 119.011 Q 19.515 119.078 19.885 119.078 Z M 18.63 111.854 L 18.63 111.854 Q 18.922 111.854 19.095 112.039 Q 19.269 112.224 19.269 112.482 Q 19.269 112.739 19.095 112.93 Q 18.922 113.12 18.63 113.12 Q 18.35 113.12 18.171 112.93 Q 17.992 112.739 17.992 112.482 Q 17.992 112.224 18.166 112.039 Q 18.339 111.854 18.63 111.854 Z " fill="black" /><path d="M 23.11 119.067 L 23.11 119.067 L 23.11 119.392 L 20.534 119.392 L 20.534 119.067 Q 20.904 119.067 21.072 118.994 Q 21.24 118.922 21.279 118.748 Q 21.318 118.574 21.318 118.261 L 21.318 112.638 Q 21.318 112.291 21.19 112.224 Q 21.061 112.157 20.848 112.157 Q 20.702 112.157 20.596 112.168 Q 20.49 112.179 20.49 112.179 L 20.49 111.877 L 21.968 111.485 L 22.248 111.485 L 22.248 118.261 Q 22.248 118.586 22.298 118.759 Q 22.349 118.933 22.528 119 Q 22.707 119.067 23.11 119.067 Z " fill="black" /></g></g></g><g><g><g><path d="M 60.44 33.576 L 60.44 33.576 L 56.168 33.576 L 56.264 33.096 Q 56.856 33.096 57.168 32.984 Q 57.48 32.872 57.64 32.56 Q 57.8 32.248 57.912 31.672 L 59.336 24.76 L 59.272 24.76 L 53.896 33.576 L 53.544 33.576 L 51.608 24.776 L 51.544 24.776 L 50.216 31.24 Q 50.056 32.056 50.08 32.456 Q 50.104 32.856 50.392 32.976 Q 50.68 33.096 51.288 33.096 L 51.192 33.576 L 47.496 33.576 L 47.592 33.096 Q 48.216 33.096 48.552 32.976 Q 48.888 32.856 49.08 32.456 Q 49.272 32.056 49.432 31.24 L 50.696 25.016 Q 50.824 24.408 50.776 24.096 Q 50.728 23.784 50.432 23.664 Q 50.136 23.544 49.496 23.544 L 49.592 23.064 L 52.792 23.064 L 54.52 31.16 L 54.584 31.16 L 59.464 23.064 L 62.488 23.064 L 62.392 23.544 Q 61.832 23.544 61.504 23.664 Q 61.176 23.784 61 24.096 Q 60.824 24.408 60.696 25 L 59.336 31.672 Q 59.16 32.552 59.424 32.824 Q 59.688 33.096 60.536 33.096 Z " fill="black" /><path d="M 67.685 35.144 L 67.685 35.144 L 67.326 36.936 L 62.914 36.936 L 62.914 36.555 L 64.616 34.853 Q 65.176 34.282 65.546 33.817 Q 65.915 33.352 66.1 32.882 Q 66.285 32.411 66.285 31.829 Q 66.285 31.202 65.91 30.826 Q 65.534 30.451 64.885 30.451 Q 64.336 30.451 63.95 30.686 Q 63.563 30.922 63.25 31.549 L 62.981 31.437 Q 63.238 30.619 63.798 30.171 Q 64.358 29.723 65.176 29.723 Q 65.814 29.723 66.296 29.964 Q 66.778 30.205 67.052 30.636 Q 67.326 31.067 67.326 31.661 Q 67.326 32.154 67.119 32.607 Q 66.912 33.061 66.503 33.542 Q 66.094 34.024 65.501 34.629 L 64.022 36.029 L 64.022 36.085 L 64.806 36.051 L 66.363 36.051 Q 66.811 36.051 66.99 35.85 Q 67.17 35.648 67.36 35.144 Z " fill="black" /></g></g></g><circle cx="-69.0" cy="29.999999999999993" r="2.6999999999999997" style="stroke:black;fill:white;stroke-width:2.0;" /><g><g><g><path d="M -97.546 30.344 L -97.546 30.344 L -93.178 23.784 Q -92.954 23.464 -92.818 23.192 Q -92.682 22.92 -92.682 22.728 Q -92.682 22.488 -92.89 22.4 Q -93.098 22.312 -93.642 22.312 L -93.61 21.832 L -90.154 21.832 L -90.186 22.312 Q -90.618 22.312 -90.922 22.44 Q -91.226 22.568 -91.538 22.928 Q -91.85 23.288 -92.346 24.024 L -98.218 32.424 L -98.746 32.424 L -99.642 23.768 Q -99.738 22.968 -99.994 22.64 Q -100.25 22.312 -100.89 22.312 L -100.858 21.832 L -96.938 21.832 L -96.986 22.312 Q -97.594 22.312 -97.946 22.552 Q -98.298 22.792 -98.266 23.336 Q -98.266 23.416 -98.242 23.624 Q -98.218 23.832 -98.218 23.912 L -97.738 28.472 L -97.626 30.344 Z " fill="black" /><path d="M -89.164 35.39 L -89.164 35.39 L -89.164 35.704 L -91.684 35.704 L -91.684 35.39 Q -91.303 35.39 -91.141 35.318 Q -90.978 35.245 -90.939 35.066 Q -90.9 34.886 -90.9 34.573 L -90.9 31.448 Q -90.9 31.09 -91.023 31.006 Q -91.146 30.922 -91.393 30.922 Q -91.505 30.922 -91.589 30.933 Q -91.673 30.944 -91.673 30.944 L -91.673 30.619 L -90.262 30.306 L -89.97 30.306 L -89.97 34.573 Q -89.97 34.898 -89.926 35.077 Q -89.881 35.256 -89.707 35.323 Q -89.534 35.39 -89.164 35.39 Z M -90.418 28.166 L -90.418 28.166 Q -90.127 28.166 -89.954 28.351 Q -89.78 28.536 -89.78 28.794 Q -89.78 29.051 -89.954 29.242 Q -90.127 29.432 -90.418 29.432 Q -90.698 29.432 -90.878 29.242 Q -91.057 29.051 -91.057 28.794 Q -91.057 28.536 -90.883 28.351 Q -90.71 28.166 -90.418 28.166 Z " fill="black" /><path d="M -83.463 32.266 L -83.463 32.266 L -83.463 34.573 Q -83.463 34.886 -83.413 35.066 Q -83.362 35.245 -83.183 35.318 Q -83.004 35.39 -82.634 35.39 L -82.634 35.704 L -85.222 35.704 L -85.222 35.39 Q -84.818 35.39 -84.645 35.318 Q -84.471 35.245 -84.432 35.066 Q -84.393 34.886 -84.393 34.573 L -84.393 32.546 Q -84.393 31.874 -84.544 31.538 Q -84.695 31.202 -84.93 31.095 Q -85.166 30.989 -85.423 30.989 Q -85.871 30.989 -86.196 31.23 Q -86.521 31.47 -86.778 31.694 L -86.778 34.573 Q -86.778 34.886 -86.734 35.066 Q -86.689 35.245 -86.51 35.318 Q -86.33 35.39 -85.927 35.39 L -85.927 35.704 L -88.492 35.704 L -88.492 35.39 Q -88.111 35.39 -87.949 35.318 Q -87.786 35.245 -87.747 35.066 Q -87.708 34.886 -87.708 34.573 L -87.708 31.426 Q -87.708 31.123 -87.831 31.028 Q -87.954 30.933 -88.178 30.933 Q -88.324 30.933 -88.402 30.944 Q -88.481 30.955 -88.481 30.955 L -88.481 30.63 L -87.058 30.306 L -86.801 30.306 L -86.812 31.213 L -86.767 31.213 Q -86.308 30.81 -85.899 30.541 Q -85.49 30.272 -84.964 30.272 Q -84.202 30.272 -83.833 30.787 Q -83.463 31.302 -83.463 32.266 Z " fill="black" /><path d="M -81.615 37.182 L -81.615 37.182 L -81.75 36.902 Q -81.537 36.813 -81.324 36.673 Q -81.111 36.533 -80.966 36.264 Q -80.82 35.995 -80.82 35.547 Q -80.999 35.614 -81.167 35.614 Q -81.492 35.614 -81.638 35.435 Q -81.783 35.256 -81.783 35.01 Q -81.783 34.741 -81.604 34.545 Q -81.425 34.349 -81.089 34.349 Q -80.663 34.349 -80.445 34.612 Q -80.226 34.875 -80.226 35.334 Q -80.226 35.805 -80.378 36.13 Q -80.529 36.454 -80.753 36.656 Q -80.977 36.858 -81.212 36.981 Q -81.447 37.104 -81.615 37.182 Z " fill="black" /><path d="M -78.255 30.306 L -78.255 30.306 L -78.255 31.246 L -78.222 31.246 Q -77.818 30.776 -77.398 30.524 Q -76.978 30.272 -76.486 30.272 Q -75.926 30.272 -75.506 30.591 Q -75.086 30.91 -74.845 31.476 Q -74.604 32.042 -74.604 32.781 Q -74.604 33.733 -74.934 34.41 Q -75.265 35.088 -75.825 35.452 Q -76.385 35.816 -77.057 35.816 Q -77.37 35.816 -77.656 35.743 Q -77.942 35.67 -78.188 35.502 L -78.233 35.502 L -78.233 36.97 Q -78.233 37.328 -78.143 37.518 Q -78.054 37.709 -77.818 37.776 Q -77.583 37.843 -77.146 37.843 L -77.146 38.168 L -79.98 38.168 L -79.98 37.854 Q -79.454 37.854 -79.308 37.681 Q -79.162 37.507 -79.162 37.037 L -79.162 31.493 Q -79.162 31.168 -79.235 31.045 Q -79.308 30.922 -79.588 30.922 Q -79.7 30.922 -79.823 30.933 Q -79.946 30.944 -79.946 30.944 L -79.946 30.619 L -78.535 30.306 Z M -78.233 31.717 L -78.233 31.717 L -78.233 34.64 Q -78.121 34.752 -77.953 34.931 Q -77.785 35.11 -77.55 35.245 Q -77.314 35.379 -77.001 35.379 Q -76.407 35.379 -76.015 34.819 Q -75.623 34.259 -75.623 33.094 Q -75.623 32.03 -75.97 31.532 Q -76.318 31.034 -76.945 31.034 Q -77.393 31.034 -77.734 31.269 Q -78.076 31.504 -78.233 31.717 Z " fill="black" /></g></g></g><circle cx="141.0" cy="29.999999999999996" r="2.6999999999999997" style="stroke:black;fill:white;stroke-width:2.0;" /><g><g><g><path d="M 151.732 30.837 L 151.732 30.837 L 156.1 24.277 Q 156.324 23.957 156.46 23.685 Q 156.596 23.413 156.596 23.221 Q 156.596 22.981 156.388 22.893 Q 156.18 22.805 155.636 22.805 L 155.668 22.325 L 159.124 22.325 L 159.092 22.805 Q 158.66 22.805 158.356 22.933 Q 158.052 23.061 157.74 23.421 Q 157.428 23.781 156.932 24.517 L 151.06 32.917 L 150.532 32.917 L 149.636 24.261 Q 149.54 23.461 149.284 23.133 Q 149.028 22.805 148.388 22.805 L 148.42 22.325 L 152.34 22.325 L 152.292 22.805 Q 151.684 22.805 151.332 23.045 Q 150.98 23.285 151.012 23.829 Q 151.012 23.909 151.036 24.117 Q 151.06 24.325 151.06 24.405 L 151.54 28.965 L 151.652 30.837 Z " fill="black" /><path d="M 160.114 35.883 L 160.114 35.883 L 160.114 36.197 L 157.594 36.197 L 157.594 35.883 Q 157.975 35.883 158.138 35.81 Q 158.3 35.738 158.339 35.558 Q 158.378 35.379 158.378 35.066 L 158.378 31.941 Q 158.378 31.582 158.255 31.498 Q 158.132 31.414 157.886 31.414 Q 157.774 31.414 157.69 31.426 Q 157.606 31.437 157.606 31.437 L 157.606 31.112 L 159.017 30.798 L 159.308 30.798 L 159.308 35.066 Q 159.308 35.39 159.353 35.57 Q 159.398 35.749 159.571 35.816 Q 159.745 35.883 160.114 35.883 Z M 158.86 28.659 L 158.86 28.659 Q 159.151 28.659 159.325 28.844 Q 159.498 29.029 159.498 29.286 Q 159.498 29.544 159.325 29.734 Q 159.151 29.925 158.86 29.925 Q 158.58 29.925 158.401 29.734 Q 158.222 29.544 158.222 29.286 Q 158.222 29.029 158.395 28.844 Q 158.569 28.659 158.86 28.659 Z " fill="black" /><path d="M 165.815 32.758 L 165.815 32.758 L 165.815 35.066 Q 165.815 35.379 165.866 35.558 Q 165.916 35.738 166.095 35.81 Q 166.274 35.883 166.644 35.883 L 166.644 36.197 L 164.057 36.197 L 164.057 35.883 Q 164.46 35.883 164.634 35.81 Q 164.807 35.738 164.846 35.558 Q 164.886 35.379 164.886 35.066 L 164.886 33.038 Q 164.886 32.366 164.734 32.03 Q 164.583 31.694 164.348 31.588 Q 164.113 31.482 163.855 31.482 Q 163.407 31.482 163.082 31.722 Q 162.758 31.963 162.5 32.187 L 162.5 35.066 Q 162.5 35.379 162.545 35.558 Q 162.59 35.738 162.769 35.81 Q 162.948 35.883 163.351 35.883 L 163.351 36.197 L 160.786 36.197 L 160.786 35.883 Q 161.167 35.883 161.33 35.81 Q 161.492 35.738 161.531 35.558 Q 161.57 35.379 161.57 35.066 L 161.57 31.918 Q 161.57 31.616 161.447 31.521 Q 161.324 31.426 161.1 31.426 Q 160.954 31.426 160.876 31.437 Q 160.798 31.448 160.798 31.448 L 160.798 31.123 L 162.22 30.798 L 162.478 30.798 L 162.466 31.706 L 162.511 31.706 Q 162.97 31.302 163.379 31.034 Q 163.788 30.765 164.314 30.765 Q 165.076 30.765 165.446 31.28 Q 165.815 31.795 165.815 32.758 Z " fill="black" /><path d="M 167.663 37.675 L 167.663 37.675 L 167.529 37.395 Q 167.742 37.306 167.954 37.166 Q 168.167 37.026 168.313 36.757 Q 168.458 36.488 168.458 36.04 Q 168.279 36.107 168.111 36.107 Q 167.786 36.107 167.641 35.928 Q 167.495 35.749 167.495 35.502 Q 167.495 35.234 167.674 35.038 Q 167.854 34.842 168.19 34.842 Q 168.615 34.842 168.834 35.105 Q 169.052 35.368 169.052 35.827 Q 169.052 36.298 168.901 36.622 Q 168.75 36.947 168.526 37.149 Q 168.302 37.35 168.066 37.474 Q 167.831 37.597 167.663 37.675 Z " fill="black" /><path d="M 174.439 32.758 L 174.439 32.758 L 174.439 35.066 Q 174.439 35.379 174.49 35.558 Q 174.54 35.738 174.719 35.81 Q 174.898 35.883 175.268 35.883 L 175.268 36.197 L 172.681 36.197 L 172.681 35.883 Q 173.084 35.883 173.258 35.81 Q 173.431 35.738 173.47 35.558 Q 173.51 35.379 173.51 35.066 L 173.51 33.038 Q 173.51 32.366 173.358 32.03 Q 173.207 31.694 172.972 31.588 Q 172.737 31.482 172.479 31.482 Q 172.031 31.482 171.706 31.722 Q 171.382 31.963 171.124 32.187 L 171.124 35.066 Q 171.124 35.379 171.169 35.558 Q 171.214 35.738 171.393 35.81 Q 171.572 35.883 171.975 35.883 L 171.975 36.197 L 169.41 36.197 L 169.41 35.883 Q 169.791 35.883 169.954 35.81 Q 170.116 35.738 170.155 35.558 Q 170.194 35.379 170.194 35.066 L 170.194 31.918 Q 170.194 31.616 170.071 31.521 Q 169.948 31.426 169.724 31.426 Q 169.578 31.426 169.5 31.437 Q 169.422 31.448 169.422 31.448 L 169.422 31.123 L 170.844 30.798 L 171.102 30.798 L 171.09 31.706 L 171.135 31.706 Q 171.594 31.302 172.003 31.034 Q 172.412 30.765 172.938 30.765 Q 173.7 30.765 174.07 31.28 Q 174.439 31.795 174.439 32.758 Z " fill="black" /></g></g></g><circle cx="2.204364238465236e-15" cy="-36.0" r="2.6999999999999997" style="stroke:black;fill:white;stroke-width:2.0;" /><g><g><g><path d="M -13.424 -50.22 L -13.424 -50.22 L -12.112 -56.524 Q -11.968 -57.148 -11.976 -57.508 Q -11.984 -57.868 -12.272 -58.012 Q -12.56 -58.156 -13.296 -58.156 L -13.2 -58.636 L -8.768 -58.636 L -8.864 -58.156 Q -9.568 -58.156 -9.92 -58.012 Q -10.272 -57.868 -10.416 -57.508 Q -10.56 -57.148 -10.688 -56.524 L -12 -50.156 Q -12.048 -49.9 -12.08 -49.692 Q -12.112 -49.484 -12.112 -49.308 Q -12.112 -48.86 -11.848 -48.732 Q -11.584 -48.604 -10.832 -48.604 L -10.928 -48.124 L -15.296 -48.124 L -15.2 -48.604 Q -14.544 -48.604 -14.216 -48.716 Q -13.888 -48.828 -13.728 -49.172 Q -13.568 -49.516 -13.424 -50.22 Z " fill="black" /><path d="M -5.878 -50.196 L -5.878 -50.196 Q -4.725 -50.196 -4.058 -49.479 Q -3.392 -48.762 -3.392 -47.519 Q -3.392 -46.578 -3.711 -45.94 Q -4.03 -45.302 -4.59 -44.977 Q -5.15 -44.652 -5.878 -44.652 Q -7.054 -44.652 -7.721 -45.386 Q -8.387 -46.119 -8.387 -47.474 Q -8.387 -48.292 -8.074 -48.902 Q -7.76 -49.513 -7.194 -49.854 Q -6.629 -50.196 -5.878 -50.196 Z M -5.923 -49.77 L -5.923 -49.77 Q -6.562 -49.77 -6.954 -49.233 Q -7.346 -48.695 -7.346 -47.62 Q -7.346 -46.287 -6.948 -45.688 Q -6.55 -45.089 -5.834 -45.1 Q -5.374 -45.1 -5.061 -45.313 Q -4.747 -45.526 -4.585 -46.041 Q -4.422 -46.556 -4.422 -47.463 Q -4.422 -48.494 -4.798 -49.132 Q -5.173 -49.77 -5.923 -49.77 Z " fill="black" /><path d="M 3.037 -45.268 L 3.037 -45.268 L 3.037 -44.966 L 1.614 -44.708 L 1.368 -44.708 L 1.368 -45.57 L 1.312 -45.57 Q 0.864 -45.134 0.438 -44.893 Q 0.013 -44.652 -0.525 -44.652 Q -1.219 -44.652 -1.606 -45.106 Q -1.992 -45.559 -1.992 -46.702 L -1.992 -48.975 Q -1.992 -49.434 -2.143 -49.53 Q -2.294 -49.625 -2.754 -49.636 L -2.754 -49.95 L -1.309 -50.118 L -1.062 -50.118 L -1.062 -46.847 Q -1.062 -45.996 -0.777 -45.682 Q -0.491 -45.369 -0.054 -45.369 Q 0.371 -45.369 0.679 -45.559 Q 0.987 -45.75 1.323 -46.041 L 1.323 -48.986 Q 1.323 -49.434 1.138 -49.535 Q 0.954 -49.636 0.416 -49.636 L 0.416 -49.95 L 1.984 -50.118 L 2.253 -50.118 L 2.253 -46.007 Q 2.253 -45.514 2.387 -45.391 Q 2.522 -45.268 2.925 -45.268 Z " fill="black" /><path d="M 6.654 -45.772 L 6.654 -45.772 L 6.867 -45.593 Q 6.654 -45.29 6.47 -45.083 Q 6.285 -44.876 6.061 -44.764 Q 5.837 -44.652 5.478 -44.652 Q 4.918 -44.652 4.661 -44.982 Q 4.403 -45.313 4.403 -46.063 L 4.403 -49.535 L 3.787 -49.535 L 3.787 -49.793 Q 4.179 -50.039 4.465 -50.459 Q 4.75 -50.879 5.053 -51.596 L 5.344 -51.596 L 5.333 -50.006 L 6.598 -50.006 L 6.598 -49.535 L 5.333 -49.535 L 5.333 -46.377 Q 5.333 -45.783 5.439 -45.548 Q 5.546 -45.313 5.87 -45.313 Q 6.139 -45.313 6.29 -45.425 Q 6.442 -45.537 6.654 -45.772 Z " fill="black" /><path d="M 7.685 -43.286 L 7.685 -43.286 L 7.55 -43.566 Q 7.763 -43.655 7.976 -43.795 Q 8.189 -43.935 8.334 -44.204 Q 8.48 -44.473 8.48 -44.921 Q 8.301 -44.854 8.133 -44.854 Q 7.808 -44.854 7.662 -45.033 Q 7.517 -45.212 7.517 -45.458 Q 7.517 -45.727 7.696 -45.923 Q 7.875 -46.119 8.211 -46.119 Q 8.637 -46.119 8.855 -45.856 Q 9.074 -45.593 9.074 -45.134 Q 9.074 -44.663 8.922 -44.338 Q 8.771 -44.014 8.547 -43.812 Q 8.323 -43.61 8.088 -43.487 Q 7.853 -43.364 7.685 -43.286 Z " fill="black" /><path d="M 11.045 -50.162 L 11.045 -50.162 L 11.045 -49.222 L 11.078 -49.222 Q 11.482 -49.692 11.902 -49.944 Q 12.322 -50.196 12.814 -50.196 Q 13.374 -50.196 13.794 -49.877 Q 14.214 -49.558 14.455 -48.992 Q 14.696 -48.426 14.696 -47.687 Q 14.696 -46.735 14.366 -46.058 Q 14.035 -45.38 13.475 -45.016 Q 12.915 -44.652 12.243 -44.652 Q 11.93 -44.652 11.644 -44.725 Q 11.358 -44.798 11.112 -44.966 L 11.067 -44.966 L 11.067 -43.498 Q 11.067 -43.14 11.157 -42.95 Q 11.246 -42.759 11.482 -42.692 Q 11.717 -42.625 12.154 -42.625 L 12.154 -42.3 L 9.32 -42.3 L 9.32 -42.614 Q 9.846 -42.614 9.992 -42.787 Q 10.138 -42.961 10.138 -43.431 L 10.138 -48.975 Q 10.138 -49.3 10.065 -49.423 Q 9.992 -49.546 9.712 -49.546 Q 9.6 -49.546 9.477 -49.535 Q 9.354 -49.524 9.354 -49.524 L 9.354 -49.849 L 10.765 -50.162 Z M 11.067 -48.751 L 11.067 -48.751 L 11.067 -45.828 Q 11.179 -45.716 11.347 -45.537 Q 11.515 -45.358 11.75 -45.223 Q 11.986 -45.089 12.299 -45.089 Q 12.893 -45.089 13.285 -45.649 Q 13.677 -46.209 13.677 -47.374 Q 13.677 -48.438 13.33 -48.936 Q 12.982 -49.434 12.355 -49.434 Q 11.907 -49.434 11.566 -49.199 Q 11.224 -48.964 11.067 -48.751 Z " fill="black" /></g></g></g><circle cx="72.0" cy="-36.0" r="2.6999999999999997" style="stroke:black;fill:white;stroke-width:2.0;" /><g><g><g><path d="M 58.358 -49.234 L 58.358 -49.234 L 59.67 -55.538 Q 59.814 -56.162 59.806 -56.522 Q 59.798 -56.882 59.51 -57.026 Q 59.222 -57.17 58.486 -57.17 L 58.582 -57.65 L 63.014 -57.65 L 62.918 -57.17 Q 62.214 -57.17 61.862 -57.026 Q 61.51 -56.882 61.366 -56.522 Q 61.222 -56.162 61.094 -55.538 L 59.782 -49.17 Q 59.734 -48.914 59.702 -48.706 Q 59.67 -48.498 59.67 -48.322 Q 59.67 -47.874 59.934 -47.746 Q 60.198 -47.618 60.95 -47.618 L 60.854 -47.138 L 56.486 -47.138 L 56.582 -47.618 Q 57.238 -47.618 57.566 -47.73 Q 57.894 -47.842 58.054 -48.186 Q 58.214 -48.53 58.358 -49.234 Z " fill="black" /><path d="M 65.903 -49.21 L 65.903 -49.21 Q 67.057 -49.21 67.723 -48.494 Q 68.39 -47.777 68.39 -46.534 Q 68.39 -45.593 68.07 -44.954 Q 67.751 -44.316 67.191 -43.991 Q 66.631 -43.666 65.903 -43.666 Q 64.727 -43.666 64.061 -44.4 Q 63.394 -45.134 63.394 -46.489 Q 63.394 -47.306 63.708 -47.917 Q 64.022 -48.527 64.587 -48.869 Q 65.153 -49.21 65.903 -49.21 Z M 65.858 -48.785 L 65.858 -48.785 Q 65.22 -48.785 64.828 -48.247 Q 64.436 -47.71 64.436 -46.634 Q 64.436 -45.302 64.834 -44.702 Q 65.231 -44.103 65.948 -44.114 Q 66.407 -44.114 66.721 -44.327 Q 67.034 -44.54 67.197 -45.055 Q 67.359 -45.57 67.359 -46.478 Q 67.359 -47.508 66.984 -48.146 Q 66.609 -48.785 65.858 -48.785 Z " fill="black" /><path d="M 74.818 -44.282 L 74.818 -44.282 L 74.818 -43.98 L 73.396 -43.722 L 73.15 -43.722 L 73.15 -44.585 L 73.094 -44.585 Q 72.646 -44.148 72.22 -43.907 Q 71.794 -43.666 71.257 -43.666 Q 70.562 -43.666 70.176 -44.12 Q 69.79 -44.574 69.79 -45.716 L 69.79 -47.99 Q 69.79 -48.449 69.638 -48.544 Q 69.487 -48.639 69.028 -48.65 L 69.028 -48.964 L 70.473 -49.132 L 70.719 -49.132 L 70.719 -45.862 Q 70.719 -45.01 71.005 -44.697 Q 71.29 -44.383 71.727 -44.383 Q 72.153 -44.383 72.461 -44.574 Q 72.769 -44.764 73.105 -45.055 L 73.105 -48.001 Q 73.105 -48.449 72.92 -48.55 Q 72.735 -48.65 72.198 -48.65 L 72.198 -48.964 L 73.766 -49.132 L 74.034 -49.132 L 74.034 -45.022 Q 74.034 -44.529 74.169 -44.406 Q 74.303 -44.282 74.706 -44.282 Z " fill="black" /><path d="M 78.436 -44.786 L 78.436 -44.786 L 78.649 -44.607 Q 78.436 -44.305 78.251 -44.098 Q 78.066 -43.89 77.842 -43.778 Q 77.618 -43.666 77.26 -43.666 Q 76.7 -43.666 76.442 -43.997 Q 76.185 -44.327 76.185 -45.078 L 76.185 -48.55 L 75.569 -48.55 L 75.569 -48.807 Q 75.961 -49.054 76.246 -49.474 Q 76.532 -49.894 76.834 -50.61 L 77.126 -50.61 L 77.114 -49.02 L 78.38 -49.02 L 78.38 -48.55 L 77.114 -48.55 L 77.114 -45.391 Q 77.114 -44.798 77.221 -44.562 Q 77.327 -44.327 77.652 -44.327 Q 77.921 -44.327 78.072 -44.439 Q 78.223 -44.551 78.436 -44.786 Z " fill="black" /><path d="M 79.466 -42.3 L 79.466 -42.3 L 79.332 -42.58 Q 79.545 -42.67 79.758 -42.81 Q 79.97 -42.95 80.116 -43.218 Q 80.262 -43.487 80.262 -43.935 Q 80.082 -43.868 79.914 -43.868 Q 79.59 -43.868 79.444 -44.047 Q 79.298 -44.226 79.298 -44.473 Q 79.298 -44.742 79.478 -44.938 Q 79.657 -45.134 79.993 -45.134 Q 80.418 -45.134 80.637 -44.87 Q 80.855 -44.607 80.855 -44.148 Q 80.855 -43.678 80.704 -43.353 Q 80.553 -43.028 80.329 -42.826 Q 80.105 -42.625 79.87 -42.502 Q 79.634 -42.378 79.466 -42.3 Z " fill="black" /><path d="M 86.242 -47.217 L 86.242 -47.217 L 86.242 -44.91 Q 86.242 -44.596 86.293 -44.417 Q 86.343 -44.238 86.522 -44.165 Q 86.702 -44.092 87.071 -44.092 L 87.071 -43.778 L 84.484 -43.778 L 84.484 -44.092 Q 84.887 -44.092 85.061 -44.165 Q 85.234 -44.238 85.274 -44.417 Q 85.313 -44.596 85.313 -44.91 L 85.313 -46.937 Q 85.313 -47.609 85.162 -47.945 Q 85.01 -48.281 84.775 -48.387 Q 84.54 -48.494 84.282 -48.494 Q 83.834 -48.494 83.51 -48.253 Q 83.185 -48.012 82.927 -47.788 L 82.927 -44.91 Q 82.927 -44.596 82.972 -44.417 Q 83.017 -44.238 83.196 -44.165 Q 83.375 -44.092 83.778 -44.092 L 83.778 -43.778 L 81.214 -43.778 L 81.214 -44.092 Q 81.594 -44.092 81.757 -44.165 Q 81.919 -44.238 81.958 -44.417 Q 81.998 -44.596 81.998 -44.91 L 81.998 -48.057 Q 81.998 -48.359 81.874 -48.454 Q 81.751 -48.55 81.527 -48.55 Q 81.382 -48.55 81.303 -48.538 Q 81.225 -48.527 81.225 -48.527 L 81.225 -48.852 L 82.647 -49.177 L 82.905 -49.177 L 82.894 -48.27 L 82.938 -48.27 Q 83.398 -48.673 83.806 -48.942 Q 84.215 -49.21 84.742 -49.21 Q 85.503 -49.21 85.873 -48.695 Q 86.242 -48.18 86.242 -47.217 Z " fill="black" /></g></g></g></svg>