<svg xmlns="http://www.w3.org/2000/svg" xml:lang="en" height="163.5928pt" width="471.64000000000004pt" viewBox="-92.13199999999999 -33.812799999999996 471.64000000000004 163.5928"><circle cx="108.0" cy="36.0" r="18.0" style="stroke:black;fill:none;stroke-width:2.0;" /><circle cx="252.0" cy="36.0" r="18.0" style="stroke:black;fill:none;stroke-width:2.0;" /><path d="M 0.0,-0.0 L -36.0,-4.408728476930472e-15 L -72.0,-8.817456953860943e-15" style="stroke:black;fill:none;stroke-width:2.0;stroke-linecap:round;stroke-linejoin:round;" /><path d="M 0.0,-0.0 L -6.017914371010093e-15,32.76 M 8.999999999999995,32.76 L -9.000000000000005,32.76 M 8.999999999999993,39.24 L -9.000000000000007,39.24 M -7.208271059781322e-15,39.24 L -1.3226185430791413e-14,72.0" style="stroke:black;fill:none;stroke-width:2.0;stroke-linecap:round;stroke-linejoin:round;" /><path d="M -1.3226185430791413e-14,72.0 L 53.999999999999986,72.0 L 107.99999999999999,72.0" style="stroke:black;fill:none;stroke-width:2.0;stroke-linecap:round;stroke-linejoin:round;" /><path d="M 107.99999999999999,72.0 L 107.99999999999999,90.0 L 107.99999999999999,108.0" style="stroke:black;fill:none;stroke-width:2.0;stroke-linecap:round;stroke-linejoin:round;" /><path d="M 0.0,-0.0 L 50.76,-0.0 M 50.76,-9.0 L 50.76,9.0 M 57.239999999999995,-9.0 L 57.239999999999995,9.0 M 57.239999999999995,-0.0 L 108.0,-0.0" style="stroke:black;fill:none;stroke-width:2.0;stroke-linecap:round;stroke-linejoin:round;" /><path d="M 108.0,-0.0 L 108.0,18.0 L 108.0,18.0 M 107.99999999999999,54.0 L 107.99999999999999,54.0 L 107.99999999999999,72.0" style="stroke:black;fill:none;stroke-width:2.0;stroke-linecap:round;stroke-linejoin:round;" /><path d="M 108.0,27.0 L 107.99999999999999,36.0" style="stroke:black;fill:none;stroke-width:2.0;stroke-linecap:round;stroke-linejoin:round;" /><path d="M 107.99999999999999 43.0 L 105.3 36.0 L 110.69999999999999 36.0 Z" style="stroke:black;fill:black;stroke-linecap:butt;stroke-linejoin:miter;" /><path d="M 107.99999999999999,72.0 L 143.99999999999997,72.0 L 180.0,72.0" style="stroke:black;fill:none;stroke-width:2.0;stroke-linecap:round;stroke-linejoin:round;" /><path d="M 180.0,72.0 L 180.0,54.0 L 171.0,50.99999999999999 L 189.0,45.0 L 171.0,39.00000000000001 L 189.0,33.0 L 171.0,27.0 L 189.0,21.000000000000007 L 180.0,18.0 L 180.0,-0.0" style="stroke:black;fill:none;stroke-width:2.0;stroke-linecap:round;stroke-linejoin:round;" /><path d="M 180.0,72.0 L 216.0,72.0 L 252.0,72.0" style="stroke:black;fill:none;stroke-width:2.0;stroke-linecap:round;stroke-linejoin:round;" /><path d="M 252.0,72.0 L 252.0,54.0 L 252.0,54.0 M 252.0,18.0 L 252.0,18.0 L 252.0,-0.0" style="stroke:black;fill:none;stroke-width:2.0;stroke-linecap:round;stroke-linejoin:round;" /><path d="M 261.0,36.0 L 260.25,34.13650287526184 L 259.5,32.4 L 258.75,30.908831175456854 L 258.0,29.764617092752044 L 257.25,29.04533405071871 L 256.5,28.8 L 255.75,29.0453340507187 L 255.0,29.764617092752044 L 254.25,30.90883117545686 L 253.5,32.4 L 252.75,34.136502875261854 L 252.0,36.0 L 251.25,37.863497124738146 L 250.5,39.599999999999994 L 249.75,41.091168824543146 L 249.0,42.23538290724795 L 248.25,42.95466594928129 L 247.5,43.199999999999996 L 246.75,42.9546659492813 L 246.0,42.23538290724795 L 245.25,41.09116882454314 L 244.5,39.6 L 243.75,37.863497124738146 L 243.0,36.0" style="stroke:black;fill:none;stroke-width:2.0;stroke-linecap:round;stroke-linejoin:round;" /><path d="M 108.0,-0.0 L 216.0,-0.0 L 324.0,-0.0" style="stroke:black;fill:none;stroke-width:2.0;stroke-linecap:round;stroke-linejoin:round;" /><path d="M 324.0,-0.0 L 324.0,32.76 M 333.0,32.76 L 315.0,32.76 M 333.0,39.24 L 315.0,39.24 M 324.0,39.24 L 324.0,72.0" style="stroke:black;fill:none;stroke-width:2.0;stroke-linecap:round;stroke-linejoin:round;" /><path d="M 324.0,72.0 L 288.0,71.99999999999999 L 252.0,71.99999999999999" style="stroke:black;fill:none;stroke-width:2.0;stroke-linecap:round;stroke-linejoin:round;" /><path d="M 324.0,-0.0 L 342.0,-0.0 L 360.0,-0.0" style="stroke:black;fill:none;stroke-width:2.0;stroke-linecap:round;stroke-linejoin:round;" /><circle cx="-72.0" cy="-8.817456953860943e-15" r="2.6999999999999997" style="stroke:black;fill:white;stroke-width:2.0;" /><circle cx="0.0" cy="-0.0" r="2.6999999999999997" style="stroke:black;fill:black;stroke-width:2.0;" /><g><g><g><path d="M -81.82 5.44 L -81.82 5.44 Q -83.244 5.44 -84.34 4.792 Q -85.436 4.144 -86.052 2.928 Q -86.668 1.712 -86.668 0.032 Q -86.668 -1.696 -86.028 -2.92 Q -85.388 -4.144 -84.292 -4.792 Q -83.196 -5.44 -81.804 -5.44 Q -80.62 -5.44 -79.876 -5.04 Q -79.132 -4.64 -78.652 -4.144 L -79.404 -3.264 Q -79.804 -3.68 -80.348 -3.968 Q -80.892 -4.256 -81.74 -4.256 Q -83.34 -4.256 -84.3 -3.12 Q -85.26 -1.984 -85.26 0.016 Q -85.26 1.936 -84.34 3.088 Q -83.42 4.24 -81.74 4.24 Q -80.428 4.24 -79.772 3.632 L -79.772 0.928 L -82.028 0.928 L -82.028 -0.208 L -78.524 -0.208 L -78.524 4.224 Q -79.036 4.752 -79.884 5.096 Q -80.732 5.44 -81.82 5.44 Z " fill="black" /></g></g></g><g><g><g><path d="M -65.223 36.044 L -65.223 36.044 L -64.935 36.348 Q -65.751 37.308 -66.823 37.924 Q -67.895 38.54 -69.415 38.54 Q -70.855 38.54 -71.719 38.004 Q -72.583 37.468 -72.959 36.572 Q -73.335 35.676 -73.335 34.62 Q -73.335 32.94 -72.823 31.636 Q -72.311 30.332 -71.423 29.444 Q -70.535 28.556 -69.415 28.1 Q -68.295 27.644 -67.079 27.644 Q -66.263 27.644 -65.807 27.788 Q -65.351 27.932 -65.095 28.084 Q -64.839 28.236 -64.647 28.236 Q -64.455 28.236 -64.311 28.076 Q -64.167 27.916 -63.975 27.66 L -63.511 27.66 L -64.263 31.324 L -64.791 31.324 Q -64.727 29.724 -65.383 29.028 Q -66.039 28.332 -67.223 28.332 Q -68.151 28.332 -68.967 28.756 Q -69.783 29.18 -70.415 29.956 Q -71.047 30.732 -71.407 31.812 Q -71.767 32.892 -71.767 34.22 Q -71.767 35.82 -71.007 36.66 Q -70.247 37.5 -68.663 37.5 Q -66.823 37.5 -65.223 36.044 Z " fill="black" /><path d="M -62.59 39.663 L -62.59 39.663 L -62.59 39.641 Q -62.993 39.406 -63.222 39.036 Q -63.452 38.666 -63.452 38.118 Q -63.452 37.278 -62.881 36.785 Q -62.31 36.292 -61.425 36.292 Q -61.055 36.292 -60.775 36.359 Q -60.495 36.426 -60.338 36.499 Q -60.182 36.572 -60.182 36.572 L -58.737 36.494 L -58.737 37.098 L -59.79 37.065 L -59.79 37.121 Q -59.666 37.289 -59.526 37.569 Q -59.386 37.849 -59.386 38.274 Q -59.386 39.058 -59.935 39.518 Q -60.484 39.977 -61.369 39.977 Q -61.638 39.977 -61.873 39.932 Q -62.108 39.887 -62.332 39.809 Q -62.41 39.921 -62.517 40.167 Q -62.623 40.414 -62.623 40.559 Q -62.623 40.806 -62.349 40.906 Q -62.074 41.007 -61.302 41.007 Q -60.596 41.007 -60.03 41.074 Q -59.465 41.142 -59.14 41.422 Q -58.815 41.702 -58.815 42.34 Q -58.815 42.9 -59.09 43.286 Q -59.364 43.673 -59.818 43.908 Q -60.271 44.143 -60.814 44.25 Q -61.358 44.356 -61.884 44.356 Q -62.612 44.356 -63.032 44.177 Q -63.452 43.998 -63.62 43.712 Q -63.788 43.426 -63.788 43.124 Q -63.788 42.844 -63.558 42.536 Q -63.329 42.228 -62.881 41.791 L -62.881 41.746 Q -63.161 41.601 -63.334 41.388 Q -63.508 41.175 -63.508 40.94 Q -63.508 40.638 -63.245 40.302 Q -62.982 39.966 -62.59 39.663 Z M -62.601 41.836 L -62.601 41.836 Q -62.78 42.15 -62.847 42.357 Q -62.914 42.564 -62.914 42.743 Q -62.914 43.718 -61.234 43.718 Q -60.574 43.718 -60.165 43.55 Q -59.756 43.382 -59.571 43.135 Q -59.386 42.889 -59.386 42.654 Q -59.386 42.362 -59.566 42.2 Q -59.745 42.038 -60.03 41.97 Q -60.316 41.903 -60.635 41.881 Q -60.954 41.858 -61.234 41.858 Q -61.302 41.858 -61.335 41.858 Q -61.783 41.847 -62.03 41.847 Q -62.276 41.847 -62.399 41.842 Q -62.522 41.836 -62.601 41.836 Z M -61.503 36.695 L -61.503 36.695 Q -61.94 36.695 -62.203 37.031 Q -62.466 37.367 -62.466 38.073 Q -62.466 38.79 -62.186 39.187 Q -61.906 39.585 -61.358 39.585 Q -60.932 39.585 -60.658 39.294 Q -60.383 39.002 -60.383 38.207 Q -60.383 37.524 -60.674 37.11 Q -60.966 36.695 -61.503 36.695 Z " fill="black" /><path d="M -58.166 39.887 L -58.166 39.887 L -57.874 39.887 Q -57.695 40.75 -57.348 41.091 Q -57.001 41.433 -56.385 41.433 Q -55.959 41.433 -55.69 41.259 Q -55.422 41.086 -55.422 40.694 Q -55.422 40.425 -55.517 40.246 Q -55.612 40.066 -55.881 39.882 Q -56.15 39.697 -56.676 39.439 Q -57.438 39.047 -57.796 38.683 Q -58.154 38.319 -58.154 37.703 Q -58.154 37.009 -57.656 36.65 Q -57.158 36.292 -56.441 36.292 Q -56.015 36.292 -55.746 36.387 Q -55.478 36.482 -55.265 36.583 L -55.254 36.583 L -55.063 36.348 L -54.839 36.348 L -54.806 38.062 L -55.108 38.062 Q -55.287 37.266 -55.612 36.97 Q -55.937 36.673 -56.452 36.673 Q -56.833 36.673 -57.096 36.852 Q -57.359 37.031 -57.359 37.412 Q -57.359 37.737 -57.057 37.994 Q -56.754 38.252 -56.049 38.61 Q -55.287 39.014 -54.884 39.389 Q -54.481 39.764 -54.481 40.391 Q -54.481 40.918 -54.738 41.237 Q -54.996 41.556 -55.427 41.702 Q -55.858 41.847 -56.362 41.847 Q -56.844 41.847 -57.13 41.746 Q -57.415 41.646 -57.639 41.556 L -57.662 41.556 L -57.897 41.814 L -58.132 41.814 Z " fill="black" /><path d="M -38.911 34.764 L -38.911 34.764 L -43.103 34.764 L -43.103 39.004 L -44.255 39.004 L -44.255 34.764 L -48.447 34.764 L -48.447 33.676 L -44.255 33.676 L -44.255 29.436 L -43.103 29.436 L -43.103 33.676 L -38.911 33.676 Z " fill="black" /><path d="M -24.107 36.044 L -24.107 36.044 L -23.819 36.348 Q -24.635 37.308 -25.707 37.924 Q -26.779 38.54 -28.299 38.54 Q -29.739 38.54 -30.603 38.004 Q -31.467 37.468 -31.843 36.572 Q -32.219 35.676 -32.219 34.62 Q -32.219 32.94 -31.707 31.636 Q -31.195 30.332 -30.307 29.444 Q -29.419 28.556 -28.299 28.1 Q -27.179 27.644 -25.963 27.644 Q -25.147 27.644 -24.691 27.788 Q -24.235 27.932 -23.979 28.084 Q -23.723 28.236 -23.531 28.236 Q -23.339 28.236 -23.195 28.076 Q -23.051 27.916 -22.859 27.66 L -22.395 27.66 L -23.147 31.324 L -23.675 31.324 Q -23.611 29.724 -24.267 29.028 Q -24.923 28.332 -26.107 28.332 Q -27.035 28.332 -27.851 28.756 Q -28.667 29.18 -29.299 29.956 Q -29.931 30.732 -30.291 31.812 Q -30.651 32.892 -30.651 34.22 Q -30.651 35.82 -29.891 36.66 Q -29.131 37.5 -27.547 37.5 Q -25.707 37.5 -24.107 36.044 Z " fill="black" /><path d="M -21.474 39.663 L -21.474 39.663 L -21.474 39.641 Q -21.877 39.406 -22.106 39.036 Q -22.336 38.666 -22.336 38.118 Q -22.336 37.278 -21.765 36.785 Q -21.194 36.292 -20.309 36.292 Q -19.939 36.292 -19.659 36.359 Q -19.379 36.426 -19.222 36.499 Q -19.066 36.572 -19.066 36.572 L -17.621 36.494 L -17.621 37.098 L -18.674 37.065 L -18.674 37.121 Q -18.55 37.289 -18.41 37.569 Q -18.27 37.849 -18.27 38.274 Q -18.27 39.058 -18.819 39.518 Q -19.368 39.977 -20.253 39.977 Q -20.522 39.977 -20.757 39.932 Q -20.992 39.887 -21.216 39.809 Q -21.294 39.921 -21.401 40.167 Q -21.507 40.414 -21.507 40.559 Q -21.507 40.806 -21.233 40.906 Q -20.958 41.007 -20.186 41.007 Q -19.48 41.007 -18.914 41.074 Q -18.349 41.142 -18.024 41.422 Q -17.699 41.702 -17.699 42.34 Q -17.699 42.9 -17.974 43.286 Q -18.248 43.673 -18.702 43.908 Q -19.155 44.143 -19.698 44.25 Q -20.242 44.356 -20.768 44.356 Q -21.496 44.356 -21.916 44.177 Q -22.336 43.998 -22.504 43.712 Q -22.672 43.426 -22.672 43.124 Q -22.672 42.844 -22.442 42.536 Q -22.213 42.228 -21.765 41.791 L -21.765 41.746 Q -22.045 41.601 -22.218 41.388 Q -22.392 41.175 -22.392 40.94 Q -22.392 40.638 -22.129 40.302 Q -21.866 39.966 -21.474 39.663 Z M -21.485 41.836 L -21.485 41.836 Q -21.664 42.15 -21.731 42.357 Q -21.798 42.564 -21.798 42.743 Q -21.798 43.718 -20.118 43.718 Q -19.458 43.718 -19.049 43.55 Q -18.64 43.382 -18.455 43.135 Q -18.27 42.889 -18.27 42.654 Q -18.27 42.362 -18.45 42.2 Q -18.629 42.038 -18.914 41.97 Q -19.2 41.903 -19.519 41.881 Q -19.838 41.858 -20.118 41.858 Q -20.186 41.858 -20.219 41.858 Q -20.667 41.847 -20.914 41.847 Q -21.16 41.847 -21.283 41.842 Q -21.406 41.836 -21.485 41.836 Z M -20.387 36.695 L -20.387 36.695 Q -20.824 36.695 -21.087 37.031 Q -21.35 37.367 -21.35 38.073 Q -21.35 38.79 -21.07 39.187 Q -20.79 39.585 -20.242 39.585 Q -19.816 39.585 -19.542 39.294 Q -19.267 39.002 -19.267 38.207 Q -19.267 37.524 -19.558 37.11 Q -19.85 36.695 -20.387 36.695 Z " fill="black" /><path d="M -15.661 33.817 L -15.661 33.817 L -15.661 37.244 L -15.627 37.244 Q -15.336 36.886 -14.899 36.589 Q -14.462 36.292 -13.902 36.292 Q -13.342 36.292 -12.922 36.611 Q -12.502 36.93 -12.267 37.49 Q -12.032 38.05 -12.032 38.778 Q -12.032 39.775 -12.379 40.458 Q -12.726 41.142 -13.331 41.489 Q -13.936 41.836 -14.72 41.836 Q -15.437 41.836 -15.913 41.668 Q -16.389 41.5 -16.59 41.388 L -16.59 35.094 Q -16.59 34.713 -16.674 34.606 Q -16.758 34.5 -17.083 34.5 Q -17.218 34.5 -17.307 34.511 Q -17.397 34.522 -17.397 34.522 L -17.397 34.209 L -15.952 33.817 Z M -15.661 37.737 L -15.661 37.737 L -15.661 40.85 Q -15.504 41.041 -15.235 41.209 Q -14.966 41.377 -14.518 41.377 Q -13.981 41.377 -13.662 41.074 Q -13.342 40.772 -13.197 40.262 Q -13.051 39.753 -13.051 39.137 Q -13.051 38.599 -13.163 38.123 Q -13.275 37.647 -13.566 37.35 Q -13.858 37.054 -14.395 37.054 Q -14.821 37.054 -15.162 37.294 Q -15.504 37.535 -15.661 37.737 Z " fill="black" /></g></g></g><circle cx="107.99999999999999" cy="72.0" r="2.6999999999999997" style="stroke:black;fill:black;stroke-width:2.0;" /><circle cx="107.99999999999999" cy="108.0" r="2.6999999999999997" style="stroke:black;fill:white;stroke-width:2.0;" /><g><g><g><path d="M 108.448 125.18 L 108.448 125.18 Q 107.296 125.18 106.344 124.756 Q 105.392 124.332 104.688 123.628 L 105.504 122.684 Q 106.08 123.276 106.856 123.628 Q 107.632 123.98 108.512 123.98 Q 109.536 123.98 110.12 123.516 Q 110.704 123.052 110.704 122.268 Q 110.704 121.756 110.472 121.436 Q 110.24 121.116 109.832 120.892 Q 109.424 120.668 108.912 120.46 L 107.376 119.804 Q 106.912 119.596 106.4 119.268 Q 105.888 118.94 105.544 118.42 Q 105.2 117.9 105.2 117.132 Q 105.2 116.3 105.64 115.66 Q 106.08 115.02 106.84 114.66 Q 107.6 114.3 108.56 114.3 Q 109.536 114.3 110.352 114.66 Q 111.168 115.02 111.744 115.596 L 111.024 116.476 Q 110.512 116.012 109.912 115.748 Q 109.312 115.484 108.592 115.484 Q 107.68 115.484 107.136 115.892 Q 106.592 116.3 106.592 117.004 Q 106.592 117.5 106.856 117.82 Q 107.12 118.14 107.528 118.348 Q 107.936 118.556 108.368 118.732 L 109.888 119.372 Q 110.496 119.628 111 119.988 Q 111.504 120.348 111.8 120.876 Q 112.096 121.404 112.096 122.14 Q 112.096 123.004 111.656 123.692 Q 111.216 124.38 110.4 124.78 Q 109.584 125.18 108.448 125.18 Z " fill="black" /></g></g></g><circle cx="108.0" cy="-0.0" r="2.6999999999999997" style="stroke:black;fill:black;stroke-width:2.0;" /><g><g><g><path d="M 54.037 -20.912 L 54.037 -20.912 L 54.325 -20.608 Q 53.509 -19.648 52.437 -19.032 Q 51.365 -18.416 49.845 -18.416 Q 48.405 -18.416 47.541 -18.952 Q 46.677 -19.488 46.301 -20.384 Q 45.925 -21.28 45.925 -22.336 Q 45.925 -24.016 46.437 -25.32 Q 46.949 -26.624 47.837 -27.512 Q 48.725 -28.4 49.845 -28.856 Q 50.965 -29.312 52.181 -29.312 Q 52.997 -29.312 53.453 -29.168 Q 53.909 -29.024 54.165 -28.872 Q 54.421 -28.72 54.613 -28.72 Q 54.805 -28.72 54.949 -28.88 Q 55.093 -29.04 55.285 -29.296 L 55.749 -29.296 L 54.997 -25.632 L 54.469 -25.632 Q 54.533 -27.232 53.877 -27.928 Q 53.221 -28.624 52.037 -28.624 Q 51.109 -28.624 50.293 -28.2 Q 49.477 -27.776 48.845 -27 Q 48.213 -26.224 47.853 -25.144 Q 47.493 -24.064 47.493 -22.736 Q 47.493 -21.136 48.253 -20.296 Q 49.013 -19.456 50.597 -19.456 Q 52.437 -19.456 54.037 -20.912 Z " fill="black" /><path d="M 56.671 -17.293 L 56.671 -17.293 L 56.671 -17.315 Q 56.268 -17.55 56.038 -17.92 Q 55.808 -18.29 55.808 -18.838 Q 55.808 -19.678 56.38 -20.171 Q 56.951 -20.664 57.836 -20.664 Q 58.205 -20.664 58.485 -20.597 Q 58.765 -20.53 58.922 -20.457 Q 59.079 -20.384 59.079 -20.384 L 60.524 -20.462 L 60.524 -19.858 L 59.471 -19.891 L 59.471 -19.835 Q 59.594 -19.667 59.734 -19.387 Q 59.874 -19.107 59.874 -18.682 Q 59.874 -17.898 59.325 -17.438 Q 58.776 -16.979 57.892 -16.979 Q 57.623 -16.979 57.388 -17.024 Q 57.152 -17.069 56.928 -17.147 Q 56.85 -17.035 56.744 -16.789 Q 56.637 -16.542 56.637 -16.397 Q 56.637 -16.15 56.912 -16.05 Q 57.186 -15.949 57.959 -15.949 Q 58.664 -15.949 59.23 -15.882 Q 59.796 -15.814 60.12 -15.534 Q 60.445 -15.254 60.445 -14.616 Q 60.445 -14.056 60.171 -13.67 Q 59.896 -13.283 59.443 -13.048 Q 58.989 -12.813 58.446 -12.706 Q 57.903 -12.6 57.376 -12.6 Q 56.648 -12.6 56.228 -12.779 Q 55.808 -12.958 55.64 -13.244 Q 55.472 -13.53 55.472 -13.832 Q 55.472 -14.112 55.702 -14.42 Q 55.932 -14.728 56.38 -15.165 L 56.38 -15.21 Q 56.1 -15.355 55.926 -15.568 Q 55.752 -15.781 55.752 -16.016 Q 55.752 -16.318 56.016 -16.654 Q 56.279 -16.99 56.671 -17.293 Z M 56.66 -15.12 L 56.66 -15.12 Q 56.48 -14.806 56.413 -14.599 Q 56.346 -14.392 56.346 -14.213 Q 56.346 -13.238 58.026 -13.238 Q 58.687 -13.238 59.096 -13.406 Q 59.504 -13.574 59.689 -13.821 Q 59.874 -14.067 59.874 -14.302 Q 59.874 -14.594 59.695 -14.756 Q 59.516 -14.918 59.23 -14.986 Q 58.944 -15.053 58.625 -15.075 Q 58.306 -15.098 58.026 -15.098 Q 57.959 -15.098 57.925 -15.098 Q 57.477 -15.109 57.231 -15.109 Q 56.984 -15.109 56.861 -15.114 Q 56.738 -15.12 56.66 -15.12 Z M 57.757 -20.261 L 57.757 -20.261 Q 57.32 -20.261 57.057 -19.925 Q 56.794 -19.589 56.794 -18.883 Q 56.794 -18.166 57.074 -17.769 Q 57.354 -17.371 57.903 -17.371 Q 58.328 -17.371 58.603 -17.662 Q 58.877 -17.954 58.877 -18.749 Q 58.877 -19.432 58.586 -19.846 Q 58.295 -20.261 57.757 -20.261 Z " fill="black" /><path d="M 66.415 -15.434 L 66.415 -15.434 L 64.981 -15.176 L 64.724 -15.176 L 64.724 -15.949 L 64.679 -15.949 Q 64.365 -15.669 63.934 -15.406 Q 63.503 -15.142 62.943 -15.142 Q 62.316 -15.142 61.884 -15.478 Q 61.453 -15.814 61.24 -16.391 Q 61.028 -16.968 61.028 -17.685 Q 61.028 -18.614 61.375 -19.281 Q 61.722 -19.947 62.31 -20.306 Q 62.898 -20.664 63.604 -20.664 Q 63.884 -20.664 64.158 -20.602 Q 64.432 -20.541 64.69 -20.395 L 64.69 -21.862 Q 64.69 -22.232 64.606 -22.344 Q 64.522 -22.456 64.197 -22.456 Q 64.119 -22.456 64.012 -22.445 Q 63.906 -22.434 63.906 -22.434 L 63.906 -22.747 L 65.317 -23.139 L 65.62 -23.139 L 65.62 -16.43 Q 65.62 -15.994 65.743 -15.865 Q 65.866 -15.736 66.18 -15.736 L 66.415 -15.736 Z M 64.69 -16.363 L 64.69 -16.363 L 64.69 -19.32 Q 64.623 -19.667 64.365 -19.942 Q 64.108 -20.216 63.581 -20.216 Q 62.876 -20.216 62.439 -19.701 Q 62.002 -19.186 62.002 -18.122 Q 62.002 -16.968 62.377 -16.458 Q 62.752 -15.949 63.469 -15.949 Q 63.861 -15.949 64.13 -16.055 Q 64.399 -16.162 64.69 -16.363 Z " fill="black" /></g></g></g><g><g><g><path d="M 59.093 29.364 L 59.093 29.364 L 58.997 30.18 L 57.605 30.02 L 57.605 30.068 Q 57.877 30.372 58.029 30.828 Q 58.181 31.284 58.181 31.7 Q 58.181 32.42 57.893 32.908 Q 57.605 33.396 57.141 33.692 Q 56.677 33.988 56.117 34.14 Q 55.557 34.292 55.029 34.34 Q 54.389 34.404 54.125 34.612 Q 53.861 34.82 53.861 35.044 Q 53.861 35.332 54.181 35.484 Q 54.501 35.636 55.005 35.732 Q 55.509 35.828 56.085 35.948 Q 56.661 36.068 57.165 36.276 Q 57.669 36.484 57.989 36.86 Q 58.309 37.236 58.309 37.86 Q 58.309 38.548 57.861 39.132 Q 57.413 39.716 56.533 40.076 Q 55.653 40.436 54.373 40.436 Q 53.221 40.436 52.533 40.156 Q 51.845 39.876 51.541 39.436 Q 51.237 38.996 51.237 38.516 Q 51.237 37.748 51.829 37.276 Q 52.421 36.804 53.173 36.564 L 53.173 36.5 Q 52.965 36.372 52.781 36.14 Q 52.597 35.908 52.597 35.54 Q 52.597 35.14 52.805 34.9 Q 53.013 34.66 53.341 34.508 Q 53.669 34.356 53.989 34.244 L 53.989 34.148 Q 53.365 33.876 52.901 33.38 Q 52.437 32.884 52.437 31.972 Q 52.437 31.14 52.837 30.508 Q 53.237 29.876 53.933 29.524 Q 54.629 29.172 55.493 29.172 Q 56.069 29.172 56.365 29.228 Q 56.661 29.284 56.949 29.364 Z M 57.157 38.452 L 57.157 38.452 Q 57.157 37.972 56.757 37.676 Q 56.357 37.38 55.765 37.204 Q 55.173 37.028 54.573 36.924 Q 53.973 36.82 53.557 36.74 Q 53.157 36.996 52.821 37.324 Q 52.485 37.652 52.485 38.276 Q 52.485 38.916 52.981 39.396 Q 53.477 39.876 54.693 39.876 Q 55.845 39.876 56.501 39.452 Q 57.157 39.028 57.157 38.452 Z M 56.757 31.524 L 56.757 31.524 Q 56.757 30.724 56.453 30.188 Q 56.149 29.652 55.445 29.652 Q 54.757 29.652 54.309 30.228 Q 53.861 30.804 53.861 31.972 Q 53.861 32.804 54.149 33.324 Q 54.437 33.844 55.125 33.844 Q 55.925 33.844 56.341 33.172 Q 56.757 32.5 56.757 31.524 Z " fill="black" /><path d="M 61.389 36.198 L 61.389 36.198 L 61.389 39.11 Q 61.389 39.58 61.551 39.726 Q 61.714 39.871 62.229 39.871 L 62.229 40.196 L 59.675 40.196 L 59.675 39.871 Q 60.034 39.871 60.196 39.81 Q 60.358 39.748 60.409 39.574 Q 60.459 39.401 60.459 39.065 L 60.459 35.929 Q 60.459 35.626 60.342 35.526 Q 60.224 35.425 59.989 35.425 Q 59.866 35.425 59.776 35.436 Q 59.686 35.447 59.686 35.447 L 59.686 35.122 L 61.086 34.798 L 61.355 34.798 L 61.355 35.705 L 61.4 35.705 Q 61.859 35.313 62.285 35.038 Q 62.71 34.764 63.282 34.764 Q 63.763 34.764 64.06 35.027 Q 64.357 35.29 64.525 35.694 L 64.57 35.694 Q 65.029 35.234 65.466 34.999 Q 65.902 34.764 66.35 34.764 Q 67.011 34.764 67.403 35.178 Q 67.795 35.593 67.795 36.612 L 67.795 38.897 Q 67.795 39.244 67.834 39.462 Q 67.874 39.681 68.047 39.776 Q 68.221 39.871 68.602 39.871 L 68.602 40.196 L 66.07 40.196 L 66.07 39.871 Q 66.451 39.871 66.619 39.77 Q 66.787 39.67 66.826 39.451 Q 66.866 39.233 66.866 38.897 L 66.866 36.746 Q 66.866 36.231 66.737 35.962 Q 66.608 35.694 66.39 35.587 Q 66.171 35.481 65.902 35.481 Q 65.555 35.481 65.225 35.71 Q 64.894 35.94 64.614 36.175 L 64.614 38.897 Q 64.614 39.278 64.665 39.49 Q 64.715 39.703 64.894 39.787 Q 65.074 39.871 65.477 39.871 L 65.477 40.196 L 62.822 40.196 L 62.822 39.871 Q 63.226 39.871 63.405 39.793 Q 63.584 39.714 63.634 39.502 Q 63.685 39.289 63.685 38.897 L 63.685 36.679 Q 63.685 35.962 63.433 35.722 Q 63.181 35.481 62.789 35.481 Q 62.352 35.481 61.994 35.727 Q 61.635 35.974 61.389 36.198 Z " fill="black" /><path d="M 72.059 29.22 L 72.059 29.22 L 72.411 29.22 L 71.659 32.292 Q 71.547 32.708 71.427 33.292 Q 71.307 33.876 71.307 34.42 Q 71.307 35.044 71.563 35.5 Q 71.819 35.956 72.555 35.956 Q 73.371 35.956 73.963 35.564 Q 74.555 35.172 74.931 34.564 Q 75.307 33.956 75.491 33.284 Q 75.675 32.612 75.675 32.052 Q 75.675 31.636 75.531 31.332 Q 75.387 31.028 75.187 30.788 Q 74.987 30.548 74.843 30.324 Q 74.699 30.1 74.699 29.844 Q 74.699 29.524 74.875 29.348 Q 75.051 29.172 75.307 29.172 Q 75.851 29.172 76.187 29.716 Q 76.523 30.26 76.523 31.108 Q 76.523 31.844 76.339 32.652 Q 76.155 33.46 75.787 34.228 Q 75.419 34.996 74.875 35.62 Q 74.331 36.244 73.627 36.612 Q 72.923 36.98 72.059 36.98 Q 71.259 36.98 70.811 36.66 Q 70.363 36.34 70.179 35.812 Q 69.995 35.284 69.995 34.676 Q 69.995 34.1 70.107 33.492 Q 70.219 32.884 70.347 32.388 L 70.667 31.172 Q 70.699 31.044 70.763 30.788 Q 70.827 30.532 70.827 30.292 Q 70.827 30.084 70.747 29.94 Q 70.667 29.796 70.443 29.796 Q 70.251 29.796 69.979 29.82 Q 69.707 29.844 69.707 29.844 L 69.707 29.396 Z " fill="black" /><path d="M 77.957 38.135 L 77.957 38.135 L 77.957 38.113 Q 77.554 37.878 77.324 37.508 Q 77.094 37.138 77.094 36.59 Q 77.094 35.75 77.666 35.257 Q 78.237 34.764 79.122 34.764 Q 79.491 34.764 79.771 34.831 Q 80.051 34.898 80.208 34.971 Q 80.365 35.044 80.365 35.044 L 81.81 34.966 L 81.81 35.57 L 80.757 35.537 L 80.757 35.593 Q 80.88 35.761 81.02 36.041 Q 81.16 36.321 81.16 36.746 Q 81.16 37.53 80.611 37.99 Q 80.062 38.449 79.178 38.449 Q 78.909 38.449 78.674 38.404 Q 78.438 38.359 78.214 38.281 Q 78.136 38.393 78.03 38.639 Q 77.923 38.886 77.923 39.031 Q 77.923 39.278 78.198 39.378 Q 78.472 39.479 79.245 39.479 Q 79.95 39.479 80.516 39.546 Q 81.082 39.614 81.406 39.894 Q 81.731 40.174 81.731 40.812 Q 81.731 41.372 81.457 41.758 Q 81.182 42.145 80.729 42.38 Q 80.275 42.615 79.732 42.722 Q 79.189 42.828 78.662 42.828 Q 77.934 42.828 77.514 42.649 Q 77.094 42.47 76.926 42.184 Q 76.758 41.898 76.758 41.596 Q 76.758 41.316 76.988 41.008 Q 77.218 40.7 77.666 40.263 L 77.666 40.218 Q 77.386 40.073 77.212 39.86 Q 77.038 39.647 77.038 39.412 Q 77.038 39.11 77.302 38.774 Q 77.565 38.438 77.957 38.135 Z M 77.946 40.308 L 77.946 40.308 Q 77.766 40.622 77.699 40.829 Q 77.632 41.036 77.632 41.215 Q 77.632 42.19 79.312 42.19 Q 79.973 42.19 80.382 42.022 Q 80.79 41.854 80.975 41.607 Q 81.16 41.361 81.16 41.126 Q 81.16 40.834 80.981 40.672 Q 80.802 40.51 80.516 40.442 Q 80.23 40.375 79.911 40.353 Q 79.592 40.33 79.312 40.33 Q 79.245 40.33 79.211 40.33 Q 78.763 40.319 78.517 40.319 Q 78.27 40.319 78.147 40.314 Q 78.024 40.308 77.946 40.308 Z M 79.043 35.167 L 79.043 35.167 Q 78.606 35.167 78.343 35.503 Q 78.08 35.839 78.08 36.545 Q 78.08 37.262 78.36 37.659 Q 78.64 38.057 79.189 38.057 Q 79.614 38.057 79.889 37.766 Q 80.163 37.474 80.163 36.679 Q 80.163 35.996 79.872 35.582 Q 79.581 35.167 79.043 35.167 Z " fill="black" /><path d="M 82.381 38.359 L 82.381 38.359 L 82.672 38.359 Q 82.851 39.222 83.198 39.563 Q 83.546 39.905 84.162 39.905 Q 84.587 39.905 84.856 39.731 Q 85.125 39.558 85.125 39.166 Q 85.125 38.897 85.03 38.718 Q 84.934 38.538 84.666 38.354 Q 84.397 38.169 83.87 37.911 Q 83.109 37.519 82.75 37.155 Q 82.392 36.791 82.392 36.175 Q 82.392 35.481 82.89 35.122 Q 83.389 34.764 84.106 34.764 Q 84.531 34.764 84.8 34.859 Q 85.069 34.954 85.282 35.055 L 85.293 35.055 L 85.483 34.82 L 85.707 34.82 L 85.741 36.534 L 85.438 36.534 Q 85.259 35.738 84.934 35.442 Q 84.61 35.145 84.094 35.145 Q 83.714 35.145 83.45 35.324 Q 83.187 35.503 83.187 35.884 Q 83.187 36.209 83.49 36.466 Q 83.792 36.724 84.498 37.082 Q 85.259 37.486 85.662 37.861 Q 86.066 38.236 86.066 38.863 Q 86.066 39.39 85.808 39.709 Q 85.55 40.028 85.119 40.174 Q 84.688 40.319 84.184 40.319 Q 83.702 40.319 83.417 40.218 Q 83.131 40.118 82.907 40.028 L 82.885 40.028 L 82.65 40.286 L 82.414 40.286 Z " fill="black" /></g></g></g><circle cx="180.0" cy="72.0" r="2.6999999999999997" style="stroke:black;fill:black;stroke-width:2.0;" /><circle cx="180.0" cy="-0.0" r="2.6999999999999997" style="stroke:black;fill:black;stroke-width:2.0;" /><g><g><g><path d="M 156.683 29.21 L 156.683 29.21 L 156.587 30.026 L 155.195 29.866 L 155.195 29.914 Q 155.467 30.218 155.619 30.674 Q 155.771 31.13 155.771 31.546 Q 155.771 32.266 155.483 32.754 Q 155.195 33.242 154.731 33.538 Q 154.267 33.834 153.707 33.986 Q 153.147 34.138 152.619 34.186 Q 151.979 34.25 151.715 34.458 Q 151.451 34.666 151.451 34.89 Q 151.451 35.178 151.771 35.33 Q 152.091 35.482 152.595 35.578 Q 153.099 35.674 153.675 35.794 Q 154.251 35.914 154.755 36.122 Q 155.259 36.33 155.579 36.706 Q 155.899 37.082 155.899 37.706 Q 155.899 38.394 155.451 38.978 Q 155.003 39.562 154.123 39.922 Q 153.243 40.282 151.963 40.282 Q 150.811 40.282 150.123 40.002 Q 149.435 39.722 149.131 39.282 Q 148.827 38.842 148.827 38.362 Q 148.827 37.594 149.419 37.122 Q 150.011 36.65 150.763 36.41 L 150.763 36.346 Q 150.555 36.218 150.371 35.986 Q 150.187 35.754 150.187 35.386 Q 150.187 34.986 150.395 34.746 Q 150.603 34.506 150.931 34.354 Q 151.259 34.202 151.579 34.09 L 151.579 33.994 Q 150.955 33.722 150.491 33.226 Q 150.027 32.73 150.027 31.818 Q 150.027 30.986 150.427 30.354 Q 150.827 29.722 151.523 29.37 Q 152.219 29.018 153.083 29.018 Q 153.659 29.018 153.955 29.074 Q 154.251 29.13 154.539 29.21 Z M 154.747 38.298 L 154.747 38.298 Q 154.747 37.818 154.347 37.522 Q 153.947 37.226 153.355 37.05 Q 152.763 36.874 152.163 36.77 Q 151.563 36.666 151.147 36.586 Q 150.747 36.842 150.411 37.17 Q 150.075 37.498 150.075 38.122 Q 150.075 38.762 150.571 39.242 Q 151.067 39.722 152.283 39.722 Q 153.435 39.722 154.091 39.298 Q 154.747 38.874 154.747 38.298 Z M 154.347 31.37 L 154.347 31.37 Q 154.347 30.57 154.043 30.034 Q 153.739 29.498 153.035 29.498 Q 152.347 29.498 151.899 30.074 Q 151.451 30.65 151.451 31.818 Q 151.451 32.65 151.739 33.17 Q 152.027 33.69 152.715 33.69 Q 153.515 33.69 153.931 33.018 Q 154.347 32.346 154.347 31.37 Z " fill="black" /><path d="M 162.664 39.84 L 162.664 39.84 L 161.23 40.098 L 160.973 40.098 L 160.973 39.325 L 160.928 39.325 Q 160.614 39.605 160.183 39.868 Q 159.752 40.132 159.192 40.132 Q 158.565 40.132 158.134 39.796 Q 157.702 39.46 157.49 38.883 Q 157.277 38.306 157.277 37.589 Q 157.277 36.66 157.624 35.993 Q 157.971 35.327 158.559 34.968 Q 159.147 34.61 159.853 34.61 Q 160.133 34.61 160.407 34.672 Q 160.682 34.733 160.939 34.879 L 160.939 33.412 Q 160.939 33.042 160.855 32.93 Q 160.771 32.818 160.446 32.818 Q 160.368 32.818 160.262 32.829 Q 160.155 32.84 160.155 32.84 L 160.155 32.527 L 161.566 32.135 L 161.869 32.135 L 161.869 38.844 Q 161.869 39.28 161.992 39.409 Q 162.115 39.538 162.429 39.538 L 162.664 39.538 Z M 160.939 38.911 L 160.939 38.911 L 160.939 35.954 Q 160.872 35.607 160.614 35.332 Q 160.357 35.058 159.83 35.058 Q 159.125 35.058 158.688 35.573 Q 158.251 36.088 158.251 37.152 Q 158.251 38.306 158.626 38.816 Q 159.002 39.325 159.718 39.325 Q 160.11 39.325 160.379 39.219 Q 160.648 39.112 160.939 38.911 Z " fill="black" /><path d="M 163.381 38.205 L 163.381 38.205 L 163.672 38.205 Q 163.851 39.068 164.198 39.409 Q 164.546 39.751 165.162 39.751 Q 165.587 39.751 165.856 39.577 Q 166.125 39.404 166.125 39.012 Q 166.125 38.743 166.03 38.564 Q 165.934 38.384 165.666 38.2 Q 165.397 38.015 164.87 37.757 Q 164.109 37.365 163.75 37.001 Q 163.392 36.637 163.392 36.021 Q 163.392 35.327 163.89 34.968 Q 164.389 34.61 165.106 34.61 Q 165.531 34.61 165.8 34.705 Q 166.069 34.8 166.282 34.901 L 166.293 34.901 L 166.483 34.666 L 166.707 34.666 L 166.741 36.38 L 166.438 36.38 Q 166.259 35.584 165.934 35.288 Q 165.61 34.991 165.094 34.991 Q 164.714 34.991 164.45 35.17 Q 164.187 35.349 164.187 35.73 Q 164.187 36.055 164.49 36.312 Q 164.792 36.57 165.498 36.928 Q 166.259 37.332 166.662 37.707 Q 167.066 38.082 167.066 38.709 Q 167.066 39.236 166.808 39.555 Q 166.55 39.874 166.119 40.02 Q 165.688 40.165 165.184 40.165 Q 164.702 40.165 164.417 40.064 Q 164.131 39.964 163.907 39.874 L 163.885 39.874 L 163.65 40.132 L 163.414 40.132 Z " fill="black" /></g></g></g><circle cx="252.0" cy="-0.0" r="2.6999999999999997" style="stroke:black;fill:black;stroke-width:2.0;" /><g><g><g><path d="M 218.877 39.304 L 218.877 39.304 L 220.189 33 Q 220.333 32.376 220.325 32.016 Q 220.317 31.656 220.029 31.512 Q 219.741 31.368 219.005 31.368 L 219.101 30.888 L 223.533 30.888 L 223.437 31.368 Q 222.733 31.368 222.381 31.512 Q 222.029 31.656 221.885 32.016 Q 221.741 32.376 221.613 33 L 220.301 39.368 Q 220.253 39.624 220.221 39.832 Q 220.189 40.04 220.189 40.216 Q 220.189 40.664 220.453 40.792 Q 220.717 40.92 221.469 40.92 L 221.373 41.4 L 217.005 41.4 L 217.101 40.92 Q 217.757 40.92 218.085 40.808 Q 218.413 40.696 218.573 40.352 Q 218.733 40.008 218.877 39.304 Z " fill="black" /><path d="M 228.92 41.322 L 228.92 41.322 L 228.92 43.629 Q 228.92 43.943 228.97 44.122 Q 229.021 44.301 229.2 44.374 Q 229.379 44.447 229.749 44.447 L 229.749 44.76 L 227.162 44.76 L 227.162 44.447 Q 227.565 44.447 227.738 44.374 Q 227.912 44.301 227.951 44.122 Q 227.99 43.943 227.99 43.629 L 227.99 41.602 Q 227.99 40.93 227.839 40.594 Q 227.688 40.258 227.453 40.152 Q 227.218 40.045 226.96 40.045 Q 226.512 40.045 226.187 40.286 Q 225.862 40.527 225.605 40.751 L 225.605 43.629 Q 225.605 43.943 225.65 44.122 Q 225.694 44.301 225.874 44.374 Q 226.053 44.447 226.456 44.447 L 226.456 44.76 L 223.891 44.76 L 223.891 44.447 Q 224.272 44.447 224.434 44.374 Q 224.597 44.301 224.636 44.122 Q 224.675 43.943 224.675 43.629 L 224.675 40.482 Q 224.675 40.18 224.552 40.084 Q 224.429 39.989 224.205 39.989 Q 224.059 39.989 223.981 40 Q 223.902 40.012 223.902 40.012 L 223.902 39.687 L 225.325 39.362 L 225.582 39.362 L 225.571 40.269 L 225.616 40.269 Q 226.075 39.866 226.484 39.597 Q 226.893 39.328 227.419 39.328 Q 228.181 39.328 228.55 39.844 Q 228.92 40.359 228.92 41.322 Z " fill="black" /><path d="M 229.45 33.848 L 229.45 33.848 L 229.091 35.64 L 224.678 35.64 L 224.678 35.26 L 226.381 33.557 Q 226.941 32.986 227.31 32.521 Q 227.68 32.056 227.865 31.586 Q 228.05 31.116 228.05 30.533 Q 228.05 29.906 227.674 29.531 Q 227.299 29.156 226.65 29.156 Q 226.101 29.156 225.714 29.391 Q 225.328 29.626 225.014 30.253 L 224.746 30.141 Q 225.003 29.324 225.563 28.876 Q 226.123 28.428 226.941 28.428 Q 227.579 28.428 228.061 28.668 Q 228.542 28.909 228.817 29.34 Q 229.091 29.772 229.091 30.365 Q 229.091 30.858 228.884 31.312 Q 228.677 31.765 228.268 32.247 Q 227.859 32.728 227.266 33.333 L 225.787 34.733 L 225.787 34.789 L 226.571 34.756 L 228.128 34.756 Q 228.576 34.756 228.755 34.554 Q 228.934 34.352 229.125 33.848 Z " fill="black" /><rect x="217.005" y="25.084" width="13.187" height="1.088" fill="black" /></g></g></g><circle cx="324.0" cy="-0.0" r="2.6999999999999997" style="stroke:black;fill:black;stroke-width:2.0;" /><g><g><g><path d="M 299.277 37.304 L 299.277 37.304 L 299.565 37.608 Q 298.749 38.568 297.677 39.184 Q 296.605 39.8 295.085 39.8 Q 293.645 39.8 292.781 39.264 Q 291.917 38.728 291.541 37.832 Q 291.165 36.936 291.165 35.88 Q 291.165 34.2 291.677 32.896 Q 292.189 31.592 293.077 30.704 Q 293.965 29.816 295.085 29.36 Q 296.205 28.904 297.421 28.904 Q 298.237 28.904 298.693 29.048 Q 299.149 29.192 299.405 29.344 Q 299.661 29.496 299.853 29.496 Q 300.045 29.496 300.189 29.336 Q 300.333 29.176 300.525 28.92 L 300.989 28.92 L 300.237 32.584 L 299.709 32.584 Q 299.773 30.984 299.117 30.288 Q 298.461 29.592 297.277 29.592 Q 296.349 29.592 295.533 30.016 Q 294.717 30.44 294.085 31.216 Q 293.453 31.992 293.093 33.072 Q 292.733 34.152 292.733 35.48 Q 292.733 37.08 293.493 37.92 Q 294.253 38.76 295.837 38.76 Q 297.677 38.76 299.277 37.304 Z " fill="black" /><path d="M 306.234 42.782 L 306.234 42.782 L 304.8 43.04 L 304.542 43.04 L 304.542 42.267 L 304.498 42.267 Q 304.184 42.547 303.753 42.81 Q 303.322 43.074 302.762 43.074 Q 302.134 43.074 301.703 42.738 Q 301.272 42.402 301.059 41.825 Q 300.846 41.248 300.846 40.531 Q 300.846 39.602 301.194 38.935 Q 301.541 38.269 302.129 37.91 Q 302.717 37.552 303.422 37.552 Q 303.702 37.552 303.977 37.614 Q 304.251 37.675 304.509 37.821 L 304.509 36.354 Q 304.509 35.984 304.425 35.872 Q 304.341 35.76 304.016 35.76 Q 303.938 35.76 303.831 35.771 Q 303.725 35.782 303.725 35.782 L 303.725 35.469 L 305.136 35.077 L 305.438 35.077 L 305.438 41.786 Q 305.438 42.222 305.562 42.351 Q 305.685 42.48 305.998 42.48 L 306.234 42.48 Z M 304.509 41.853 L 304.509 41.853 L 304.509 38.896 Q 304.442 38.549 304.184 38.274 Q 303.926 38 303.4 38 Q 302.694 38 302.258 38.515 Q 301.821 39.03 301.821 40.094 Q 301.821 41.248 302.196 41.758 Q 302.571 42.267 303.288 42.267 Q 303.68 42.267 303.949 42.161 Q 304.218 42.054 304.509 41.853 Z " fill="black" /><path d="M 308.339 35.077 L 308.339 35.077 L 308.339 38.504 L 308.373 38.504 Q 308.664 38.146 309.101 37.849 Q 309.538 37.552 310.098 37.552 Q 310.658 37.552 311.078 37.871 Q 311.498 38.19 311.733 38.75 Q 311.968 39.31 311.968 40.038 Q 311.968 41.035 311.621 41.718 Q 311.274 42.402 310.669 42.749 Q 310.064 43.096 309.28 43.096 Q 308.563 43.096 308.087 42.928 Q 307.611 42.76 307.41 42.648 L 307.41 36.354 Q 307.41 35.973 307.326 35.866 Q 307.242 35.76 306.917 35.76 Q 306.782 35.76 306.693 35.771 Q 306.603 35.782 306.603 35.782 L 306.603 35.469 L 308.048 35.077 Z M 308.339 38.997 L 308.339 38.997 L 308.339 42.11 Q 308.496 42.301 308.765 42.469 Q 309.034 42.637 309.482 42.637 Q 310.019 42.637 310.338 42.334 Q 310.658 42.032 310.803 41.522 Q 310.949 41.013 310.949 40.397 Q 310.949 39.859 310.837 39.383 Q 310.725 38.907 310.434 38.61 Q 310.142 38.314 309.605 38.314 Q 309.179 38.314 308.838 38.554 Q 308.496 38.795 308.339 38.997 Z " fill="black" /></g></g></g><circle cx="252.0" cy="71.99999999999999" r="2.6999999999999997" style="stroke:black;fill:black;stroke-width:2.0;" /><circle cx="360.0" cy="-0.0" r="2.6999999999999997" style="stroke:black;fill:white;stroke-width:2.0;" /><g><g><g><path d="M 367.772 5.256 L 367.772 5.256 L 367.772 -5.256 L 370.46 -5.256 Q 372.94 -5.256 374.236 -3.904 Q 375.532 -2.552 375.532 -0.04 Q 375.532 2.472 374.244 3.864 Q 372.956 5.256 370.524 5.256 Z M 369.148 4.136 L 369.148 4.136 L 370.364 4.136 Q 372.252 4.136 373.188 3.04 Q 374.124 1.944 374.124 -0.04 Q 374.124 -2.024 373.188 -3.08 Q 372.252 -4.136 370.364 -4.136 L 369.148 -4.136 Z " fill="black" /></g></g></g></svg>