<svg xmlns="http://www.w3.org/2000/svg" xml:lang="en" height="334.64pt" width="752.252pt" viewBox="-81.65199999999999 -163.00000000000003 752.252 334.64"><circle cx="107.99999999999999" cy="36.0" r="18.0" style="stroke:black;fill:none;stroke-width:2.0;" /><circle cx="360.0" cy="36.0" r="18.0" style="stroke:black;fill:none;stroke-width:2.0;" /><circle cx="360.0" cy="-108.0" r="18.0" style="stroke:black;fill:none;stroke-width:2.0;" /><circle cx="648.0" cy="72.0" r="18.0" style="stroke:black;fill:none;stroke-width:2.0;" /><path d="M 0.0,-0.0 L -18.0,-2.204364238465236e-15 L -36.0,-4.408728476930472e-15" style="stroke:black;fill:none;stroke-width:2.0;stroke-linecap:round;stroke-linejoin:round;" /><path d="M -1.3226185430791413e-14,72.0 L 53.999999999999986,72.0 L 107.99999999999999,72.0" style="stroke:black;fill:none;stroke-width:2.0;stroke-linecap:round;stroke-linejoin:round;" /><path d="M 107.99999999999999,72.0 L 180.0,72.0 L 252.0,72.0" style="stroke:black;fill:none;stroke-width:2.0;stroke-linecap:round;stroke-linejoin:round;" /><path d="M 252.0,72.0 L 252.0,90.0 L 261.0,93.0 L 243.0,99.0 L 261.0,105.0 L 243.0,110.99999999999999 L 261.0,117.0 L 243.0,123.0 L 252.0,126.0 L 252.0,144.0" style="stroke:black;fill:none;stroke-width:2.0;stroke-linecap:round;stroke-linejoin:round;" /><path d="M 252.0,144.0 L 252.0,158.4 L 243.0,158.4 L 261.0,158.4 M 245.70000000000002,162.71999999999997 L 258.3,162.71999999999997 M 250.20000000000002,167.04 L 253.79999999999998,167.04" style="stroke:black;fill:none;stroke-width:2.0;stroke-linecap:round;stroke-linejoin:round;" /><path d="M 107.99999999999999,72.0 L 107.99999999999999,54.0 L 107.99999999999999,54.0 M 107.99999999999999,18.0 L 107.99999999999999,18.0 L 107.99999999999999,-0.0" style="stroke:black;fill:none;stroke-width:2.0;stroke-linecap:round;stroke-linejoin:round;" /><path d="M 107.99999999999999,36.0 L 107.99999999999999,27.0" style="stroke:black;fill:none;stroke-width:2.0;stroke-linecap:round;stroke-linejoin:round;" /><path d="M 107.99999999999999 43.0 L 105.29999999999998 36.0 L 110.69999999999999 36.0 Z" style="stroke:black;fill:black;stroke-linecap:butt;stroke-linejoin:miter;" /><path d="M 107.99999999999999,-0.0 L 107.99999999999999,-36.0 L 107.99999999999999,-72.0" style="stroke:black;fill:none;stroke-width:2.0;stroke-linecap:round;stroke-linejoin:round;" /><path d="M 107.99999999999999,-72.0 L 107.99999999999999,-90.0 L 98.99999999999999,-93.0 L 116.99999999999999,-99.0 L 98.99999999999999,-105.0 L 116.99999999999999,-110.99999999999999 L 98.99999999999999,-117.0 L 116.99999999999999,-123.0 L 107.99999999999999,-126.0 L 107.99999999999999,-144.0" style="stroke:black;fill:none;stroke-width:2.0;stroke-linecap:round;stroke-linejoin:round;" /><path d="M 107.99999999999999,-144.0 L 107.99999999999999,-158.4" style="stroke:black;fill:none;stroke-width:2.0;stroke-linecap:round;stroke-linejoin:round;" /><path d="M 107.99999999999999,-158.4 L 101.24999999999999,-158.4" style="stroke:black;fill:none;stroke-width:2.0;stroke-linecap:round;stroke-linejoin:round;" /><path d="M 107.99999999999999,-158.4 L 114.74999999999999,-158.4" style="stroke:black;fill:none;stroke-width:2.0;stroke-linecap:round;stroke-linejoin:round;" /><path d="M 252.0,72.0 L 306.0,72.0 L 360.0,72.0" style="stroke:black;fill:none;stroke-width:2.0;stroke-linecap:round;stroke-linejoin:round;" /><path d="M 360.0,72.0 L 360.0,54.0 L 360.0,54.0 M 360.0,18.0 L 360.0,18.0 L 360.0,-0.0" style="stroke:black;fill:none;stroke-width:2.0;stroke-linecap:round;stroke-linejoin:round;" /><path d="M 360.0,36.0 L 360.0,27.0" style="stroke:black;fill:none;stroke-width:2.0;stroke-linecap:round;stroke-linejoin:round;" /><path d="M 360.0 43.0 L 357.3 36.0 L 362.7 36.0 Z" style="stroke:black;fill:black;stroke-linecap:butt;stroke-linejoin:miter;" /><path d="M 360.0,-0.0 L 360.0,-18.0 L 360.0,-36.0" style="stroke:black;fill:none;stroke-width:2.0;stroke-linecap:round;stroke-linejoin:round;" /><path d="M 360.0,-36.0 L 360.0,-54.0 L 360.0,-72.0" style="stroke:black;fill:none;stroke-width:2.0;stroke-linecap:round;stroke-linejoin:round;" /><path d="M 360.0,-72.0 L 360.0,-90.0 L 360.0,-90.0 M 360.0,-126.0 L 360.0,-126.0 L 360.0,-144.0" style="stroke:black;fill:none;stroke-width:2.0;stroke-linecap:round;stroke-linejoin:round;" /><path d="M 360.0,-99.0 L 360.0,-108.0" style="stroke:black;fill:none;stroke-width:2.0;stroke-linecap:round;stroke-linejoin:round;" /><path d="M 360.0 -115.0 L 362.7 -108.0 L 357.3 -108.0 Z" style="stroke:black;fill:black;stroke-linecap:butt;stroke-linejoin:miter;" /><path d="M 360.0,-144.0 L 360.0,-158.4" style="stroke:black;fill:none;stroke-width:2.0;stroke-linecap:round;stroke-linejoin:round;" /><path d="M 360.0,-158.4 L 353.25,-158.4" style="stroke:black;fill:none;stroke-width:2.0;stroke-linecap:round;stroke-linejoin:round;" /><path d="M 360.0,-158.4 L 366.75,-158.4" style="stroke:black;fill:none;stroke-width:2.0;stroke-linecap:round;stroke-linejoin:round;" /><path d="M 360.0,72.0 L 396.0,72.0 L 432.0,72.0" style="stroke:black;fill:none;stroke-width:2.0;stroke-linecap:round;stroke-linejoin:round;" /><path d="M 432.0,72.0 L 432.0,54.0 L 423.0,50.99999999999999 L 441.0,45.0 L 423.0,39.00000000000001 L 441.0,33.0 L 423.0,27.0 L 441.0,21.000000000000007 L 432.0,18.0 L 432.0,-0.0" style="stroke:black;fill:none;stroke-width:2.0;stroke-linecap:round;stroke-linejoin:round;" /><path d="M 432.0,-0.0 L 432.0,-18.0 L 432.0,-36.0" style="stroke:black;fill:none;stroke-width:2.0;stroke-linecap:round;stroke-linejoin:round;" /><path d="M 432.0,-36.0 L 432.0,-54.0 L 432.0,-72.0" style="stroke:black;fill:none;stroke-width:2.0;stroke-linecap:round;stroke-linejoin:round;" /><path d="M 432.0,-72.0 L 432.0,-90.0 L 423.0,-93.0 L 441.0,-99.0 L 423.0,-105.0 L 441.0,-110.99999999999999 L 423.0,-117.0 L 441.0,-123.0 L 432.0,-126.0 L 432.0,-144.0" style="stroke:black;fill:none;stroke-width:2.0;stroke-linecap:round;stroke-linejoin:round;" /><path d="M 432.0,-144.0 L 432.0,-158.4" style="stroke:black;fill:none;stroke-width:2.0;stroke-linecap:round;stroke-linejoin:round;" /><path d="M 432.0,-158.4 L 425.25,-158.4" style="stroke:black;fill:none;stroke-width:2.0;stroke-linecap:round;stroke-linejoin:round;" /><path d="M 432.0,-158.4 L 438.75,-158.4" style="stroke:black;fill:none;stroke-width:2.0;stroke-linecap:round;stroke-linejoin:round;" /><path d="M 360.0,-36.0 L 504.0,-36.0 L 648.0,-36.0" style="stroke:black;fill:none;stroke-width:2.0;stroke-linecap:round;stroke-linejoin:round;" /><path d="M 648.0,-36.0 L 648.0,-0.0 L 648.0,36.0" style="stroke:black;fill:none;stroke-width:2.0;stroke-linecap:round;stroke-linejoin:round;" /><path d="M 648.0,36.0 L 648.0,54.0 L 648.0,54.0 M 648.0,90.0 L 648.0,90.0 L 648.0,108.0" style="stroke:black;fill:none;stroke-width:2.0;stroke-linecap:round;stroke-linejoin:round;" /><path d="M 648.0,72.0 L 648.0,81.0" style="stroke:black;fill:none;stroke-width:2.0;stroke-linecap:round;stroke-linejoin:round;" /><path d="M 648.0 65.0 L 650.7 72.0 L 645.3 72.0 Z" style="stroke:black;fill:black;stroke-linecap:butt;stroke-linejoin:miter;" /><path d="M 648.0,108.0 L 648.0,126.0 L 648.0,144.0" style="stroke:black;fill:none;stroke-width:2.0;stroke-linecap:round;stroke-linejoin:round;" /><path d="M 648.0,144.0 L 648.0,158.4 L 639.0,158.4 L 657.0,158.4 M 641.6999999999999,162.71999999999997 L 654.3000000000001,162.71999999999997 M 646.1999999999999,167.04 L 649.8000000000001,167.04" style="stroke:black;fill:none;stroke-width:2.0;stroke-linecap:round;stroke-linejoin:round;" /><path d="M 432.0,72.0 L 468.0,72.0 L 504.0,72.0" style="stroke:black;fill:none;stroke-width:2.0;stroke-linecap:round;stroke-linejoin:round;" /><path d="M 504.0,-0.0 L 522.0,-0.0 L 540.0,-0.0" style="stroke:black;fill:none;stroke-width:2.0;stroke-linecap:round;stroke-linejoin:round;" /><path d="M 107.99999999999999,-72.0 L 53.999999999999986,-72.0 L -1.5987211554602254e-14,-72.00000000000001" style="stroke:black;fill:none;stroke-width:2.0;stroke-linecap:round;stroke-linejoin:round;" /><path d="M -1.1578483077671783e-14,-144.0 L -1.1578483077671783e-14,-158.4" style="stroke:black;fill:none;stroke-width:2.0;stroke-linecap:round;stroke-linejoin:round;" /><path d="M -1.1578483077671783e-14,-158.4 L -6.750000000000012,-158.4" style="stroke:black;fill:none;stroke-width:2.0;stroke-linecap:round;stroke-linejoin:round;" /><path d="M -1.1578483077671783e-14,-158.4 L 6.749999999999988,-158.4" style="stroke:black;fill:none;stroke-width:2.0;stroke-linecap:round;stroke-linejoin:round;" /><circle cx="-36.0" cy="-4.408728476930472e-15" r="2.6999999999999997" style="stroke:black;fill:white;stroke-width:2.0;" /><circle cx="0.0" cy="-0.0" r="2.6999999999999997" style="stroke:black;fill:white;stroke-width:2.0;" /><text x="-42.3" y="-6.400000000000006" fill="black" font-size="16" font-family="sans" text-anchor="end"><tspan x="-42.3" dy="16">vin,p</tspan></text><text x="-3.3065463576978533e-15" y="11.599999999999998" fill="black" font-size="16" font-family="sans" text-anchor="middle"><tspan x="-3.3065463576978533e-15" dy="16">+</tspan></text><text x="-6.613092715395707e-15" y="29.599999999999998" fill="black" font-size="16" font-family="sans" text-anchor="middle"><tspan x="-6.613092715395707e-15" dy="16">vgs1</tspan></text><text x="-9.919639073093561e-15" y="47.599999999999994" fill="black" font-size="16" font-family="sans" text-anchor="middle"><tspan x="-9.919639073093561e-15" dy="16">-</tspan></text><circle cx="107.99999999999999" cy="72.0" r="2.6999999999999997" style="stroke:black;fill:black;stroke-width:2.0;" /><circle cx="-1.3226185430791413e-14" cy="72.0" r="2.6999999999999997" style="stroke:black;fill:white;stroke-width:2.0;" /><circle cx="252.0" cy="72.0" r="2.6999999999999997" style="stroke:black;fill:black;stroke-width:2.0;" /><text x="239.39999999999998" y="101.60000000000001" fill="black" font-size="16" font-family="sans" text-anchor="end"><tspan x="239.39999999999998" dy="16">gds5</tspan></text><text x="86.39999999999998" y="29.599999999999998" fill="black" font-size="16" font-family="sans" text-anchor="end"><tspan x="86.39999999999998" dy="16">gm1 vgs1</tspan></text><circle cx="107.99999999999999" cy="-72.0" r="2.6999999999999997" style="stroke:black;fill:black;stroke-width:2.0;" /><text x="95.39999999999998" y="-114.39999999999999" fill="black" font-size="16" font-family="sans" text-anchor="end"><tspan x="95.39999999999998" dy="16">gm34</tspan></text><circle cx="360.0" cy="72.0" r="2.6999999999999997" style="stroke:black;fill:black;stroke-width:2.0;" /><text x="338.40000000000003" y="29.599999999999998" fill="black" font-size="16" font-family="sans" text-anchor="end"><tspan x="338.40000000000003" dy="16">gm2 vgs2</tspan></text><circle cx="360.0" cy="-36.0" r="2.6999999999999997" style="stroke:black;fill:black;stroke-width:2.0;" /><text x="338.40000000000003" y="-114.39999999999999" fill="black" font-size="16" font-family="sans" text-anchor="end"><tspan x="338.40000000000003" dy="16">gm34 vgs34</tspan></text><text x="419.40000000000003" y="29.599999999999998" fill="black" font-size="16" font-family="sans" text-anchor="end"><tspan x="419.40000000000003" dy="16">gds2</tspan></text><circle cx="432.0" cy="-36.0" r="2.6999999999999997" style="stroke:black;fill:black;stroke-width:2.0;" /><text x="419.40000000000003" y="-114.39999999999999" fill="black" font-size="16" font-family="sans" text-anchor="end"><tspan x="419.40000000000003" dy="16">gds4</tspan></text><text x="504.0" y="-52.400000000000006" fill="black" font-size="16" font-family="sans" text-anchor="middle"><tspan x="504.0" dy="16">vout</tspan></text><text x="626.4" y="65.60000000000001" fill="black" font-size="16" font-family="sans" text-anchor="end"><tspan x="626.4" dy="16">iout</tspan></text><circle cx="504.0" cy="72.0" r="2.6999999999999997" style="stroke:black;fill:white;stroke-width:2.0;" /><circle cx="432.0" cy="72.0" r="2.6999999999999997" style="stroke:black;fill:black;stroke-width:2.0;" /><text x="504.0" y="47.599999999999994" fill="black" font-size="16" font-family="sans" text-anchor="middle"><tspan x="504.0" dy="16">-</tspan></text><text x="504.0" y="29.599999999999998" fill="black" font-size="16" font-family="sans" text-anchor="middle"><tspan x="504.0" dy="16">vgs2</tspan></text><text x="504.0" y="11.599999999999998" fill="black" font-size="16" font-family="sans" text-anchor="middle"><tspan x="504.0" dy="16">+</tspan></text><circle cx="540.0" cy="-0.0" r="2.6999999999999997" style="stroke:black;fill:white;stroke-width:2.0;" /><circle cx="504.0" cy="-0.0" r="2.6999999999999997" style="stroke:black;fill:white;stroke-width:2.0;" /><text x="546.3000000000001" y="-6.4" fill="black" font-size="16" font-family="sans" text-anchor="start"><tspan x="546.3000000000001" dy="16">vin,n</tspan></text><circle cx="-1.5987211554602254e-14" cy="-72.00000000000001" r="2.6999999999999997" style="stroke:black;fill:white;stroke-width:2.0;" /><text x="-1.4885029435369635e-14" y="-96.4" fill="black" font-size="16" font-family="sans" text-anchor="middle"><tspan x="-1.4885029435369635e-14" dy="16">+</tspan></text><text x="-1.3782847316137018e-14" y="-114.4" fill="black" font-size="16" font-family="sans" text-anchor="middle"><tspan x="-1.3782847316137018e-14" dy="16">vgs34</tspan></text><text x="-1.2680665196904402e-14" y="-132.4" fill="black" font-size="16" font-family="sans" text-anchor="middle"><tspan x="-1.2680665196904402e-14" dy="16">-</tspan></text><circle cx="-1.1578483077671783e-14" cy="-144.0" r="2.6999999999999997" style="stroke:black;fill:white;stroke-width:2.0;" /></svg>