<svg xmlns="http://www.w3.org/2000/svg" xml:lang="en" height="334.64pt" width="740.8488pt" viewBox="-70.24879999999999 -163.00000000000003 740.8488 334.64"><circle cx="107.99999999999999" cy="36.0" r="18.0" style="stroke:black;fill:none;stroke-width:2.0;" /><circle cx="360.0" cy="36.0" r="18.0" style="stroke:black;fill:none;stroke-width:2.0;" /><circle cx="360.0" cy="-108.0" r="18.0" style="stroke:black;fill:none;stroke-width:2.0;" /><circle cx="648.0" cy="72.0" r="18.0" style="stroke:black;fill:none;stroke-width:2.0;" /><path d="M 0.0,-0.0 L -18.0,-2.204364238465236e-15 L -36.0,-4.408728476930472e-15" style="stroke:black;fill:none;stroke-width:2.0;stroke-linecap:round;stroke-linejoin:round;" /><path d="M -1.3226185430791413e-14,72.0 L 53.999999999999986,72.0 L 107.99999999999999,72.0" style="stroke:black;fill:none;stroke-width:2.0;stroke-linecap:round;stroke-linejoin:round;" /><path d="M 107.99999999999999,72.0 L 180.0,72.0 L 252.0,72.0" style="stroke:black;fill:none;stroke-width:2.0;stroke-linecap:round;stroke-linejoin:round;" /><path d="M 252.0,72.0 L 252.0,90.0 L 261.0,93.0 L 243.0,99.0 L 261.0,105.0 L 243.0,110.99999999999999 L 261.0,117.0 L 243.0,123.0 L 252.0,126.0 L 252.0,144.0" style="stroke:black;fill:none;stroke-width:2.0;stroke-linecap:round;stroke-linejoin:round;" /><path d="M 252.0,144.0 L 252.0,158.4 L 243.0,158.4 L 261.0,158.4 M 245.70000000000002,162.71999999999997 L 258.3,162.71999999999997 M 250.20000000000002,167.04 L 253.79999999999998,167.04" style="stroke:black;fill:none;stroke-width:2.0;stroke-linecap:round;stroke-linejoin:round;" /><path d="M 107.99999999999999,72.0 L 107.99999999999999,54.0 L 107.99999999999999,54.0 M 107.99999999999999,18.0 L 107.99999999999999,18.0 L 107.99999999999999,-0.0" style="stroke:black;fill:none;stroke-width:2.0;stroke-linecap:round;stroke-linejoin:round;" /><path d="M 107.99999999999999,36.0 L 107.99999999999999,27.0" style="stroke:black;fill:none;stroke-width:2.0;stroke-linecap:round;stroke-linejoin:round;" /><path d="M 107.99999999999999 43.0 L 105.29999999999998 36.0 L 110.69999999999999 36.0 Z" style="stroke:black;fill:black;stroke-linecap:butt;stroke-linejoin:miter;" /><path d="M 107.99999999999999,-0.0 L 107.99999999999999,-36.0 L 107.99999999999999,-72.0" style="stroke:black;fill:none;stroke-width:2.0;stroke-linecap:round;stroke-linejoin:round;" /><path d="M 107.99999999999999,-72.0 L 107.99999999999999,-90.0 L 98.99999999999999,-93.0 L 116.99999999999999,-99.0 L 98.99999999999999,-105.0 L 116.99999999999999,-110.99999999999999 L 98.99999999999999,-117.0 L 116.99999999999999,-123.0 L 107.99999999999999,-126.0 L 107.99999999999999,-144.0" style="stroke:black;fill:none;stroke-width:2.0;stroke-linecap:round;stroke-linejoin:round;" /><path d="M 107.99999999999999,-144.0 L 107.99999999999999,-158.4" style="stroke:black;fill:none;stroke-width:2.0;stroke-linecap:round;stroke-linejoin:round;" /><path d="M 107.99999999999999,-158.4 L 101.24999999999999,-158.4" style="stroke:black;fill:none;stroke-width:2.0;stroke-linecap:round;stroke-linejoin:round;" /><path d="M 107.99999999999999,-158.4 L 114.74999999999999,-158.4" style="stroke:black;fill:none;stroke-width:2.0;stroke-linecap:round;stroke-linejoin:round;" /><path d="M 252.0,72.0 L 306.0,72.0 L 360.0,72.0" style="stroke:black;fill:none;stroke-width:2.0;stroke-linecap:round;stroke-linejoin:round;" /><path d="M 360.0,72.0 L 360.0,54.0 L 360.0,54.0 M 360.0,18.0 L 360.0,18.0 L 360.0,-0.0" style="stroke:black;fill:none;stroke-width:2.0;stroke-linecap:round;stroke-linejoin:round;" /><path d="M 360.0,36.0 L 360.0,27.0" style="stroke:black;fill:none;stroke-width:2.0;stroke-linecap:round;stroke-linejoin:round;" /><path d="M 360.0 43.0 L 357.3 36.0 L 362.7 36.0 Z" style="stroke:black;fill:black;stroke-linecap:butt;stroke-linejoin:miter;" /><path d="M 360.0,-0.0 L 360.0,-18.0 L 360.0,-36.0" style="stroke:black;fill:none;stroke-width:2.0;stroke-linecap:round;stroke-linejoin:round;" /><path d="M 360.0,-36.0 L 360.0,-54.0 L 360.0,-72.0" style="stroke:black;fill:none;stroke-width:2.0;stroke-linecap:round;stroke-linejoin:round;" /><path d="M 360.0,-72.0 L 360.0,-90.0 L 360.0,-90.0 M 360.0,-126.0 L 360.0,-126.0 L 360.0,-144.0" style="stroke:black;fill:none;stroke-width:2.0;stroke-linecap:round;stroke-linejoin:round;" /><path d="M 360.0,-99.0 L 360.0,-108.0" style="stroke:black;fill:none;stroke-width:2.0;stroke-linecap:round;stroke-linejoin:round;" /><path d="M 360.0 -115.0 L 362.7 -108.0 L 357.3 -108.0 Z" style="stroke:black;fill:black;stroke-linecap:butt;stroke-linejoin:miter;" /><path d="M 360.0,-144.0 L 360.0,-158.4" style="stroke:black;fill:none;stroke-width:2.0;stroke-linecap:round;stroke-linejoin:round;" /><path d="M 360.0,-158.4 L 353.25,-158.4" style="stroke:black;fill:none;stroke-width:2.0;stroke-linecap:round;stroke-linejoin:round;" /><path d="M 360.0,-158.4 L 366.75,-158.4" style="stroke:black;fill:none;stroke-width:2.0;stroke-linecap:round;stroke-linejoin:round;" /><path d="M 360.0,72.0 L 396.0,72.0 L 432.0,72.0" style="stroke:black;fill:none;stroke-width:2.0;stroke-linecap:round;stroke-linejoin:round;" /><path d="M 432.0,72.0 L 432.0,54.0 L 423.0,50.99999999999999 L 441.0,45.0 L 423.0,39.00000000000001 L 441.0,33.0 L 423.0,27.0 L 441.0,21.000000000000007 L 432.0,18.0 L 432.0,-0.0" style="stroke:black;fill:none;stroke-width:2.0;stroke-linecap:round;stroke-linejoin:round;" /><path d="M 432.0,-0.0 L 432.0,-18.0 L 432.0,-36.0" style="stroke:black;fill:none;stroke-width:2.0;stroke-linecap:round;stroke-linejoin:round;" /><path d="M 432.0,-36.0 L 432.0,-54.0 L 432.0,-72.0" style="stroke:black;fill:none;stroke-width:2.0;stroke-linecap:round;stroke-linejoin:round;" /><path d="M 432.0,-72.0 L 432.0,-90.0 L 423.0,-93.0 L 441.0,-99.0 L 423.0,-105.0 L 441.0,-110.99999999999999 L 423.0,-117.0 L 441.0,-123.0 L 432.0,-126.0 L 432.0,-144.0" style="stroke:black;fill:none;stroke-width:2.0;stroke-linecap:round;stroke-linejoin:round;" /><path d="M 432.0,-144.0 L 432.0,-158.4" style="stroke:black;fill:none;stroke-width:2.0;stroke-linecap:round;stroke-linejoin:round;" /><path d="M 432.0,-158.4 L 425.25,-158.4" style="stroke:black;fill:none;stroke-width:2.0;stroke-linecap:round;stroke-linejoin:round;" /><path d="M 432.0,-158.4 L 438.75,-158.4" style="stroke:black;fill:none;stroke-width:2.0;stroke-linecap:round;stroke-linejoin:round;" /><path d="M 360.0,-36.0 L 504.0,-36.0 L 648.0,-36.0" style="stroke:black;fill:none;stroke-width:2.0;stroke-linecap:round;stroke-linejoin:round;" /><path d="M 648.0,-36.0 L 648.0,-0.0 L 648.0,36.0" style="stroke:black;fill:none;stroke-width:2.0;stroke-linecap:round;stroke-linejoin:round;" /><path d="M 648.0,36.0 L 648.0,54.0 L 648.0,54.0 M 648.0,90.0 L 648.0,90.0 L 648.0,108.0" style="stroke:black;fill:none;stroke-width:2.0;stroke-linecap:round;stroke-linejoin:round;" /><path d="M 648.0,72.0 L 648.0,81.0" style="stroke:black;fill:none;stroke-width:2.0;stroke-linecap:round;stroke-linejoin:round;" /><path d="M 648.0 65.0 L 650.7 72.0 L 645.3 72.0 Z" style="stroke:black;fill:black;stroke-linecap:butt;stroke-linejoin:miter;" /><path d="M 648.0,108.0 L 648.0,126.0 L 648.0,144.0" style="stroke:black;fill:none;stroke-width:2.0;stroke-linecap:round;stroke-linejoin:round;" /><path d="M 648.0,144.0 L 648.0,158.4 L 639.0,158.4 L 657.0,158.4 M 641.6999999999999,162.71999999999997 L 654.3000000000001,162.71999999999997 M 646.1999999999999,167.04 L 649.8000000000001,167.04" style="stroke:black;fill:none;stroke-width:2.0;stroke-linecap:round;stroke-linejoin:round;" /><path d="M 432.0,72.0 L 468.0,72.0 L 504.0,72.0" style="stroke:black;fill:none;stroke-width:2.0;stroke-linecap:round;stroke-linejoin:round;" /><path d="M 504.0,-0.0 L 522.0,-0.0 L 540.0,-0.0" style="stroke:black;fill:none;stroke-width:2.0;stroke-linecap:round;stroke-linejoin:round;" /><path d="M 107.99999999999999,-72.0 L 53.999999999999986,-72.0 L -1.5987211554602254e-14,-72.00000000000001" style="stroke:black;fill:none;stroke-width:2.0;stroke-linecap:round;stroke-linejoin:round;" /><path d="M -1.1578483077671783e-14,-144.0 L -1.1578483077671783e-14,-158.4" style="stroke:black;fill:none;stroke-width:2.0;stroke-linecap:round;stroke-linejoin:round;" /><path d="M -1.1578483077671783e-14,-158.4 L -6.750000000000012,-158.4" style="stroke:black;fill:none;stroke-width:2.0;stroke-linecap:round;stroke-linejoin:round;" /><path d="M -1.1578483077671783e-14,-158.4 L 6.749999999999988,-158.4" style="stroke:black;fill:none;stroke-width:2.0;stroke-linecap:round;stroke-linejoin:round;" /><circle cx="-36.0" cy="-4.408728476930472e-15" r="2.6999999999999997" style="stroke:black;fill:white;stroke-width:2.0;" /><circle cx="0.0" cy="-0.0" r="2.6999999999999997" style="stroke:black;fill:white;stroke-width:2.0;" /><g><g><g><path d="M -64.642 -6.696 L -64.642 -6.696 L -64.29 -6.696 L -65.042 -3.624 Q -65.154 -3.208 -65.274 -2.624 Q -65.394 -2.04 -65.394 -1.496 Q -65.394 -0.872 -65.138 -0.416 Q -64.882 0.04 -64.146 0.04 Q -63.33 0.04 -62.738 -0.352 Q -62.146 -0.744 -61.77 -1.352 Q -61.394 -1.96 -61.21 -2.632 Q -61.026 -3.304 -61.026 -3.864 Q -61.026 -4.28 -61.17 -4.584 Q -61.314 -4.888 -61.514 -5.128 Q -61.714 -5.368 -61.858 -5.592 Q -62.002 -5.816 -62.002 -6.072 Q -62.002 -6.392 -61.826 -6.568 Q -61.65 -6.744 -61.394 -6.744 Q -60.85 -6.744 -60.514 -6.2 Q -60.178 -5.656 -60.178 -4.808 Q -60.178 -4.072 -60.362 -3.264 Q -60.546 -2.456 -60.914 -1.688 Q -61.282 -0.92 -61.826 -0.296 Q -62.37 0.328 -63.074 0.696 Q -63.778 1.064 -64.642 1.064 Q -65.442 1.064 -65.89 0.744 Q -66.338 0.424 -66.522 -0.104 Q -66.706 -0.632 -66.706 -1.24 Q -66.706 -1.816 -66.594 -2.424 Q -66.482 -3.032 -66.354 -3.528 L -66.034 -4.744 Q -66.002 -4.872 -65.938 -5.128 Q -65.874 -5.384 -65.874 -5.624 Q -65.874 -5.832 -65.954 -5.976 Q -66.034 -6.12 -66.258 -6.12 Q -66.45 -6.12 -66.722 -6.096 Q -66.994 -6.072 -66.994 -6.072 L -66.994 -6.52 Z " fill="black" /><path d="M -56.404 3.966 L -56.404 3.966 L -56.404 4.28 L -58.924 4.28 L -58.924 3.966 Q -58.543 3.966 -58.381 3.894 Q -58.218 3.821 -58.179 3.642 Q -58.14 3.462 -58.14 3.149 L -58.14 0.024 Q -58.14 -0.334 -58.263 -0.418 Q -58.386 -0.502 -58.633 -0.502 Q -58.745 -0.502 -58.829 -0.491 Q -58.913 -0.48 -58.913 -0.48 L -58.913 -0.805 L -57.502 -1.118 L -57.21 -1.118 L -57.21 3.149 Q -57.21 3.474 -57.166 3.653 Q -57.121 3.832 -56.947 3.899 Q -56.774 3.966 -56.404 3.966 Z M -57.658 -3.258 L -57.658 -3.258 Q -57.367 -3.258 -57.194 -3.073 Q -57.02 -2.888 -57.02 -2.63 Q -57.02 -2.373 -57.194 -2.182 Q -57.367 -1.992 -57.658 -1.992 Q -57.938 -1.992 -58.118 -2.182 Q -58.297 -2.373 -58.297 -2.63 Q -58.297 -2.888 -58.123 -3.073 Q -57.95 -3.258 -57.658 -3.258 Z " fill="black" /><path d="M -50.703 0.842 L -50.703 0.842 L -50.703 3.149 Q -50.703 3.462 -50.653 3.642 Q -50.602 3.821 -50.423 3.894 Q -50.244 3.966 -49.874 3.966 L -49.874 4.28 L -52.462 4.28 L -52.462 3.966 Q -52.058 3.966 -51.885 3.894 Q -51.711 3.821 -51.672 3.642 Q -51.633 3.462 -51.633 3.149 L -51.633 1.122 Q -51.633 0.45 -51.784 0.114 Q -51.935 -0.222 -52.17 -0.329 Q -52.406 -0.435 -52.663 -0.435 Q -53.111 -0.435 -53.436 -0.194 Q -53.761 0.046 -54.018 0.27 L -54.018 3.149 Q -54.018 3.462 -53.974 3.642 Q -53.929 3.821 -53.75 3.894 Q -53.57 3.966 -53.167 3.966 L -53.167 4.28 L -55.732 4.28 L -55.732 3.966 Q -55.351 3.966 -55.189 3.894 Q -55.026 3.821 -54.987 3.642 Q -54.948 3.462 -54.948 3.149 L -54.948 0.002 Q -54.948 -0.301 -55.071 -0.396 Q -55.194 -0.491 -55.418 -0.491 Q -55.564 -0.491 -55.642 -0.48 Q -55.721 -0.469 -55.721 -0.469 L -55.721 -0.794 L -54.298 -1.118 L -54.041 -1.118 L -54.052 -0.211 L -54.007 -0.211 Q -53.548 -0.614 -53.139 -0.883 Q -52.73 -1.152 -52.204 -1.152 Q -51.442 -1.152 -51.073 -0.637 Q -50.703 -0.122 -50.703 0.842 Z " fill="black" /><path d="M -48.855 5.758 L -48.855 5.758 L -48.99 5.478 Q -48.777 5.389 -48.564 5.249 Q -48.351 5.109 -48.206 4.84 Q -48.06 4.571 -48.06 4.123 Q -48.239 4.19 -48.407 4.19 Q -48.732 4.19 -48.878 4.011 Q -49.023 3.832 -49.023 3.586 Q -49.023 3.317 -48.844 3.121 Q -48.665 2.925 -48.329 2.925 Q -47.903 2.925 -47.685 3.188 Q -47.466 3.451 -47.466 3.91 Q -47.466 4.381 -47.618 4.706 Q -47.769 5.03 -47.993 5.232 Q -48.217 5.434 -48.452 5.557 Q -48.687 5.68 -48.855 5.758 Z " fill="black" /><path d="M -45.495 -1.118 L -45.495 -1.118 L -45.495 -0.178 L -45.462 -0.178 Q -45.058 -0.648 -44.638 -0.9 Q -44.218 -1.152 -43.726 -1.152 Q -43.166 -1.152 -42.746 -0.833 Q -42.326 -0.514 -42.085 0.052 Q -41.844 0.618 -41.844 1.357 Q -41.844 2.309 -42.174 2.986 Q -42.505 3.664 -43.065 4.028 Q -43.625 4.392 -44.297 4.392 Q -44.61 4.392 -44.896 4.319 Q -45.182 4.246 -45.428 4.078 L -45.473 4.078 L -45.473 5.546 Q -45.473 5.904 -45.383 6.094 Q -45.294 6.285 -45.058 6.352 Q -44.823 6.419 -44.386 6.419 L -44.386 6.744 L -47.22 6.744 L -47.22 6.43 Q -46.694 6.43 -46.548 6.257 Q -46.402 6.083 -46.402 5.613 L -46.402 0.069 Q -46.402 -0.256 -46.475 -0.379 Q -46.548 -0.502 -46.828 -0.502 Q -46.94 -0.502 -47.063 -0.491 Q -47.186 -0.48 -47.186 -0.48 L -47.186 -0.805 L -45.775 -1.118 Z M -45.473 0.293 L -45.473 0.293 L -45.473 3.216 Q -45.361 3.328 -45.193 3.507 Q -45.025 3.686 -44.79 3.821 Q -44.554 3.955 -44.241 3.955 Q -43.647 3.955 -43.255 3.395 Q -42.863 2.835 -42.863 1.67 Q -42.863 0.606 -43.21 0.108 Q -43.558 -0.39 -44.185 -0.39 Q -44.633 -0.39 -44.974 -0.155 Q -45.316 0.08 -45.473 0.293 Z " fill="black" /></g></g></g><g><g><g><path d="M 5.264 18.544 L 5.264 18.544 L 1.072 18.544 L 1.072 22.784 L -0.08 22.784 L -0.08 18.544 L -4.272 18.544 L -4.272 17.456 L -0.08 17.456 L -0.08 13.216 L 1.072 13.216 L 1.072 17.456 L 5.264 17.456 Z " fill="black" /></g></g></g><g><g><g><path d="M -7.902 29.22 L -7.902 29.22 L -7.55 29.22 L -8.302 32.292 Q -8.414 32.708 -8.534 33.292 Q -8.654 33.876 -8.654 34.42 Q -8.654 35.044 -8.398 35.5 Q -8.142 35.956 -7.406 35.956 Q -6.59 35.956 -5.998 35.564 Q -5.406 35.172 -5.03 34.564 Q -4.654 33.956 -4.47 33.284 Q -4.286 32.612 -4.286 32.052 Q -4.286 31.636 -4.43 31.332 Q -4.574 31.028 -4.774 30.788 Q -4.974 30.548 -5.118 30.324 Q -5.262 30.1 -5.262 29.844 Q -5.262 29.524 -5.086 29.348 Q -4.91 29.172 -4.654 29.172 Q -4.11 29.172 -3.774 29.716 Q -3.438 30.26 -3.438 31.108 Q -3.438 31.844 -3.622 32.652 Q -3.806 33.46 -4.174 34.228 Q -4.542 34.996 -5.086 35.62 Q -5.63 36.244 -6.334 36.612 Q -7.038 36.98 -7.902 36.98 Q -8.702 36.98 -9.15 36.66 Q -9.598 36.34 -9.782 35.812 Q -9.966 35.284 -9.966 34.676 Q -9.966 34.1 -9.854 33.492 Q -9.742 32.884 -9.614 32.388 L -9.294 31.172 Q -9.262 31.044 -9.198 30.788 Q -9.134 30.532 -9.134 30.292 Q -9.134 30.084 -9.214 29.94 Q -9.294 29.796 -9.518 29.796 Q -9.71 29.796 -9.982 29.82 Q -10.254 29.844 -10.254 29.844 L -10.254 29.396 Z " fill="black" /><path d="M -2.005 38.135 L -2.005 38.135 L -2.005 38.113 Q -2.408 37.878 -2.638 37.508 Q -2.867 37.138 -2.867 36.59 Q -2.867 35.75 -2.296 35.257 Q -1.725 34.764 -0.84 34.764 Q -0.47 34.764 -0.19 34.831 Q 0.09 34.898 0.246 34.971 Q 0.403 35.044 0.403 35.044 L 1.848 34.966 L 1.848 35.57 L 0.795 35.537 L 0.795 35.593 Q 0.918 35.761 1.058 36.041 Q 1.198 36.321 1.198 36.746 Q 1.198 37.53 0.65 37.99 Q 0.101 38.449 -0.784 38.449 Q -1.053 38.449 -1.288 38.404 Q -1.523 38.359 -1.747 38.281 Q -1.826 38.393 -1.932 38.639 Q -2.038 38.886 -2.038 39.031 Q -2.038 39.278 -1.764 39.378 Q -1.49 39.479 -0.717 39.479 Q -0.011 39.479 0.554 39.546 Q 1.12 39.614 1.445 39.894 Q 1.77 40.174 1.77 40.812 Q 1.77 41.372 1.495 41.758 Q 1.221 42.145 0.767 42.38 Q 0.314 42.615 -0.23 42.722 Q -0.773 42.828 -1.299 42.828 Q -2.027 42.828 -2.447 42.649 Q -2.867 42.47 -3.035 42.184 Q -3.203 41.898 -3.203 41.596 Q -3.203 41.316 -2.974 41.008 Q -2.744 40.7 -2.296 40.263 L -2.296 40.218 Q -2.576 40.073 -2.75 39.86 Q -2.923 39.647 -2.923 39.412 Q -2.923 39.11 -2.66 38.774 Q -2.397 38.438 -2.005 38.135 Z M -2.016 40.308 L -2.016 40.308 Q -2.195 40.622 -2.262 40.829 Q -2.33 41.036 -2.33 41.215 Q -2.33 42.19 -0.65 42.19 Q 0.011 42.19 0.42 42.022 Q 0.829 41.854 1.014 41.607 Q 1.198 41.361 1.198 41.126 Q 1.198 40.834 1.019 40.672 Q 0.84 40.51 0.554 40.442 Q 0.269 40.375 -0.05 40.353 Q -0.37 40.33 -0.65 40.33 Q -0.717 40.33 -0.75 40.33 Q -1.198 40.319 -1.445 40.319 Q -1.691 40.319 -1.814 40.314 Q -1.938 40.308 -2.016 40.308 Z M -0.918 35.167 L -0.918 35.167 Q -1.355 35.167 -1.618 35.503 Q -1.882 35.839 -1.882 36.545 Q -1.882 37.262 -1.602 37.659 Q -1.322 38.057 -0.773 38.057 Q -0.347 38.057 -0.073 37.766 Q 0.202 37.474 0.202 36.679 Q 0.202 35.996 -0.09 35.582 Q -0.381 35.167 -0.918 35.167 Z " fill="black" /><path d="M 2.419 38.359 L 2.419 38.359 L 2.71 38.359 Q 2.89 39.222 3.237 39.563 Q 3.584 39.905 4.2 39.905 Q 4.626 39.905 4.894 39.731 Q 5.163 39.558 5.163 39.166 Q 5.163 38.897 5.068 38.718 Q 4.973 38.538 4.704 38.354 Q 4.435 38.169 3.909 37.911 Q 3.147 37.519 2.789 37.155 Q 2.43 36.791 2.43 36.175 Q 2.43 35.481 2.929 35.122 Q 3.427 34.764 4.144 34.764 Q 4.57 34.764 4.838 34.859 Q 5.107 34.954 5.32 35.055 L 5.331 35.055 L 5.522 34.82 L 5.746 34.82 L 5.779 36.534 L 5.477 36.534 Q 5.298 35.738 4.973 35.442 Q 4.648 35.145 4.133 35.145 Q 3.752 35.145 3.489 35.324 Q 3.226 35.503 3.226 35.884 Q 3.226 36.209 3.528 36.466 Q 3.83 36.724 4.536 37.082 Q 5.298 37.486 5.701 37.861 Q 6.104 38.236 6.104 38.863 Q 6.104 39.39 5.846 39.709 Q 5.589 40.028 5.158 40.174 Q 4.726 40.319 4.222 40.319 Q 3.741 40.319 3.455 40.218 Q 3.17 40.118 2.946 40.028 L 2.923 40.028 L 2.688 40.286 L 2.453 40.286 Z " fill="black" /><path d="M 11.178 40.196 L 11.178 40.196 L 7.302 40.196 L 7.302 39.882 Q 8.098 39.882 8.422 39.714 Q 8.747 39.546 8.747 39.132 L 8.747 34.394 Q 8.747 34.103 8.669 33.974 Q 8.59 33.846 8.378 33.846 Q 8.21 33.846 7.851 33.89 Q 7.493 33.935 7.235 34.025 L 7.235 33.655 L 9.408 33.039 L 9.733 33.039 L 9.733 39.132 Q 9.733 39.546 10.069 39.714 Q 10.405 39.882 11.178 39.882 Z " fill="black" /></g></g></g><g><g><g><rect x="-2.16" y="49.328" width="4.32" height="1.088" fill="black" /></g></g></g><circle cx="107.99999999999999" cy="72.0" r="2.6999999999999997" style="stroke:black;fill:black;stroke-width:2.0;" /><circle cx="-1.3226185430791413e-14" cy="72.0" r="2.6999999999999997" style="stroke:black;fill:white;stroke-width:2.0;" /><circle cx="252.0" cy="72.0" r="2.6999999999999997" style="stroke:black;fill:black;stroke-width:2.0;" /><g><g><g><path d="M 223.139 102.56 L 223.139 102.56 L 223.043 103.376 L 221.651 103.216 L 221.651 103.264 Q 221.923 103.568 222.075 104.024 Q 222.227 104.48 222.227 104.896 Q 222.227 105.616 221.939 106.104 Q 221.651 106.592 221.187 106.888 Q 220.723 107.184 220.163 107.336 Q 219.603 107.488 219.075 107.536 Q 218.435 107.6 218.171 107.808 Q 217.907 108.016 217.907 108.24 Q 217.907 108.528 218.227 108.68 Q 218.547 108.832 219.051 108.928 Q 219.555 109.024 220.131 109.144 Q 220.707 109.264 221.211 109.472 Q 221.715 109.68 222.035 110.056 Q 222.355 110.432 222.355 111.056 Q 222.355 111.744 221.907 112.328 Q 221.459 112.912 220.579 113.272 Q 219.699 113.632 218.419 113.632 Q 217.267 113.632 216.579 113.352 Q 215.891 113.072 215.587 112.632 Q 215.283 112.192 215.283 111.712 Q 215.283 110.944 215.875 110.472 Q 216.467 110 217.219 109.76 L 217.219 109.696 Q 217.011 109.568 216.827 109.336 Q 216.643 109.104 216.643 108.736 Q 216.643 108.336 216.851 108.096 Q 217.059 107.856 217.387 107.704 Q 217.715 107.552 218.035 107.44 L 218.035 107.344 Q 217.411 107.072 216.947 106.576 Q 216.483 106.08 216.483 105.168 Q 216.483 104.336 216.883 103.704 Q 217.283 103.072 217.979 102.72 Q 218.675 102.368 219.539 102.368 Q 220.115 102.368 220.411 102.424 Q 220.707 102.48 220.995 102.56 Z M 221.203 111.648 L 221.203 111.648 Q 221.203 111.168 220.803 110.872 Q 220.403 110.576 219.811 110.4 Q 219.219 110.224 218.619 110.12 Q 218.019 110.016 217.603 109.936 Q 217.203 110.192 216.867 110.52 Q 216.531 110.848 216.531 111.472 Q 216.531 112.112 217.027 112.592 Q 217.523 113.072 218.739 113.072 Q 219.891 113.072 220.547 112.648 Q 221.203 112.224 221.203 111.648 Z M 220.803 104.72 L 220.803 104.72 Q 220.803 103.92 220.499 103.384 Q 220.195 102.848 219.491 102.848 Q 218.803 102.848 218.355 103.424 Q 217.907 104 217.907 105.168 Q 217.907 106 218.195 106.52 Q 218.483 107.04 219.171 107.04 Q 219.971 107.04 220.387 106.368 Q 220.803 105.696 220.803 104.72 Z " fill="black" /><path d="M 229.12 113.19 L 229.12 113.19 L 227.686 113.448 L 227.429 113.448 L 227.429 112.675 L 227.384 112.675 Q 227.07 112.955 226.639 113.218 Q 226.208 113.482 225.648 113.482 Q 225.021 113.482 224.59 113.146 Q 224.158 112.81 223.946 112.233 Q 223.733 111.656 223.733 110.939 Q 223.733 110.01 224.08 109.343 Q 224.427 108.677 225.015 108.318 Q 225.603 107.96 226.309 107.96 Q 226.589 107.96 226.863 108.022 Q 227.138 108.083 227.395 108.229 L 227.395 106.762 Q 227.395 106.392 227.311 106.28 Q 227.227 106.168 226.902 106.168 Q 226.824 106.168 226.718 106.179 Q 226.611 106.19 226.611 106.19 L 226.611 105.877 L 228.022 105.485 L 228.325 105.485 L 228.325 112.194 Q 228.325 112.63 228.448 112.759 Q 228.571 112.888 228.885 112.888 L 229.12 112.888 Z M 227.395 112.261 L 227.395 112.261 L 227.395 109.304 Q 227.328 108.957 227.07 108.682 Q 226.813 108.408 226.286 108.408 Q 225.581 108.408 225.144 108.923 Q 224.707 109.438 224.707 110.502 Q 224.707 111.656 225.082 112.166 Q 225.458 112.675 226.174 112.675 Q 226.566 112.675 226.835 112.569 Q 227.104 112.462 227.395 112.261 Z " fill="black" /><path d="M 229.837 111.555 L 229.837 111.555 L 230.128 111.555 Q 230.307 112.418 230.654 112.759 Q 231.002 113.101 231.618 113.101 Q 232.043 113.101 232.312 112.927 Q 232.581 112.754 232.581 112.362 Q 232.581 112.093 232.486 111.914 Q 232.39 111.734 232.122 111.55 Q 231.853 111.365 231.326 111.107 Q 230.565 110.715 230.206 110.351 Q 229.848 109.987 229.848 109.371 Q 229.848 108.677 230.346 108.318 Q 230.845 107.96 231.562 107.96 Q 231.987 107.96 232.256 108.055 Q 232.525 108.15 232.738 108.251 L 232.749 108.251 L 232.939 108.016 L 233.163 108.016 L 233.197 109.73 L 232.894 109.73 Q 232.715 108.934 232.39 108.638 Q 232.066 108.341 231.55 108.341 Q 231.17 108.341 230.906 108.52 Q 230.643 108.699 230.643 109.08 Q 230.643 109.405 230.946 109.662 Q 231.248 109.92 231.954 110.278 Q 232.715 110.682 233.118 111.057 Q 233.522 111.432 233.522 112.059 Q 233.522 112.586 233.264 112.905 Q 233.006 113.224 232.575 113.37 Q 232.144 113.515 231.64 113.515 Q 231.158 113.515 230.873 113.414 Q 230.587 113.314 230.363 113.224 L 230.341 113.224 L 230.106 113.482 L 229.87 113.482 Z " fill="black" /><path d="M 238.494 107.243 L 238.494 107.243 L 235.862 107.243 L 235.56 108.52 L 236.086 108.554 Q 236.579 108.587 237.061 108.722 Q 237.542 108.856 237.934 109.125 Q 238.326 109.394 238.556 109.836 Q 238.786 110.278 238.786 110.939 Q 238.786 111.802 238.405 112.378 Q 238.024 112.955 237.346 113.246 Q 236.669 113.538 235.773 113.538 Q 234.485 113.538 234.485 112.91 Q 234.485 112.72 234.602 112.574 Q 234.72 112.429 234.933 112.429 Q 235.157 112.429 235.375 112.563 Q 235.594 112.698 235.851 112.838 Q 236.109 112.978 236.467 112.978 Q 236.87 112.978 237.212 112.821 Q 237.554 112.664 237.761 112.317 Q 237.968 111.97 237.968 111.387 Q 237.968 110.334 237.341 109.92 Q 236.714 109.506 235.549 109.45 Q 235.336 109.427 235.252 109.427 Q 235.168 109.427 235.045 109.427 L 234.91 109.259 L 235.605 106.336 L 238.674 106.336 Z " fill="black" /></g></g></g><g><g><g><path d="M 48.005 29.364 L 48.005 29.364 L 47.909 30.18 L 46.517 30.02 L 46.517 30.068 Q 46.789 30.372 46.941 30.828 Q 47.093 31.284 47.093 31.7 Q 47.093 32.42 46.805 32.908 Q 46.517 33.396 46.053 33.692 Q 45.589 33.988 45.029 34.14 Q 44.469 34.292 43.941 34.34 Q 43.301 34.404 43.037 34.612 Q 42.773 34.82 42.773 35.044 Q 42.773 35.332 43.093 35.484 Q 43.413 35.636 43.917 35.732 Q 44.421 35.828 44.997 35.948 Q 45.573 36.068 46.077 36.276 Q 46.581 36.484 46.901 36.86 Q 47.221 37.236 47.221 37.86 Q 47.221 38.548 46.773 39.132 Q 46.325 39.716 45.445 40.076 Q 44.565 40.436 43.285 40.436 Q 42.133 40.436 41.445 40.156 Q 40.757 39.876 40.453 39.436 Q 40.149 38.996 40.149 38.516 Q 40.149 37.748 40.741 37.276 Q 41.333 36.804 42.085 36.564 L 42.085 36.5 Q 41.877 36.372 41.693 36.14 Q 41.509 35.908 41.509 35.54 Q 41.509 35.14 41.717 34.9 Q 41.925 34.66 42.253 34.508 Q 42.581 34.356 42.901 34.244 L 42.901 34.148 Q 42.277 33.876 41.813 33.38 Q 41.349 32.884 41.349 31.972 Q 41.349 31.14 41.749 30.508 Q 42.149 29.876 42.845 29.524 Q 43.541 29.172 44.405 29.172 Q 44.981 29.172 45.277 29.228 Q 45.573 29.284 45.861 29.364 Z M 46.069 38.452 L 46.069 38.452 Q 46.069 37.972 45.669 37.676 Q 45.269 37.38 44.677 37.204 Q 44.085 37.028 43.485 36.924 Q 42.885 36.82 42.469 36.74 Q 42.069 36.996 41.733 37.324 Q 41.397 37.652 41.397 38.276 Q 41.397 38.916 41.893 39.396 Q 42.389 39.876 43.605 39.876 Q 44.757 39.876 45.413 39.452 Q 46.069 39.028 46.069 38.452 Z M 45.669 31.524 L 45.669 31.524 Q 45.669 30.724 45.365 30.188 Q 45.061 29.652 44.357 29.652 Q 43.669 29.652 43.221 30.228 Q 42.773 30.804 42.773 31.972 Q 42.773 32.804 43.061 33.324 Q 43.349 33.844 44.037 33.844 Q 44.837 33.844 45.253 33.172 Q 45.669 32.5 45.669 31.524 Z " fill="black" /><path d="M 50.301 36.198 L 50.301 36.198 L 50.301 39.11 Q 50.301 39.58 50.463 39.726 Q 50.626 39.871 51.141 39.871 L 51.141 40.196 L 48.587 40.196 L 48.587 39.871 Q 48.946 39.871 49.108 39.81 Q 49.27 39.748 49.321 39.574 Q 49.371 39.401 49.371 39.065 L 49.371 35.929 Q 49.371 35.626 49.254 35.526 Q 49.136 35.425 48.901 35.425 Q 48.778 35.425 48.688 35.436 Q 48.598 35.447 48.598 35.447 L 48.598 35.122 L 49.998 34.798 L 50.267 34.798 L 50.267 35.705 L 50.312 35.705 Q 50.771 35.313 51.197 35.038 Q 51.622 34.764 52.194 34.764 Q 52.675 34.764 52.972 35.027 Q 53.269 35.29 53.437 35.694 L 53.482 35.694 Q 53.941 35.234 54.378 34.999 Q 54.814 34.764 55.262 34.764 Q 55.923 34.764 56.315 35.178 Q 56.707 35.593 56.707 36.612 L 56.707 38.897 Q 56.707 39.244 56.746 39.462 Q 56.786 39.681 56.959 39.776 Q 57.133 39.871 57.514 39.871 L 57.514 40.196 L 54.982 40.196 L 54.982 39.871 Q 55.363 39.871 55.531 39.77 Q 55.699 39.67 55.738 39.451 Q 55.778 39.233 55.778 38.897 L 55.778 36.746 Q 55.778 36.231 55.649 35.962 Q 55.52 35.694 55.302 35.587 Q 55.083 35.481 54.814 35.481 Q 54.467 35.481 54.137 35.71 Q 53.806 35.94 53.526 36.175 L 53.526 38.897 Q 53.526 39.278 53.577 39.49 Q 53.627 39.703 53.806 39.787 Q 53.986 39.871 54.389 39.871 L 54.389 40.196 L 51.734 40.196 L 51.734 39.871 Q 52.138 39.871 52.317 39.793 Q 52.496 39.714 52.546 39.502 Q 52.597 39.289 52.597 38.897 L 52.597 36.679 Q 52.597 35.962 52.345 35.722 Q 52.093 35.481 51.701 35.481 Q 51.264 35.481 50.906 35.727 Q 50.547 35.974 50.301 36.198 Z " fill="black" /><path d="M 62.542 40.196 L 62.542 40.196 L 58.667 40.196 L 58.667 39.882 Q 59.462 39.882 59.787 39.714 Q 60.112 39.546 60.112 39.132 L 60.112 34.394 Q 60.112 34.103 60.034 33.974 Q 59.955 33.846 59.742 33.846 Q 59.574 33.846 59.216 33.89 Q 58.858 33.935 58.6 34.025 L 58.6 33.655 L 60.773 33.039 L 61.098 33.039 L 61.098 39.132 Q 61.098 39.546 61.434 39.714 Q 61.77 39.882 62.542 39.882 Z " fill="black" /><path d="M 66.515 29.22 L 66.515 29.22 L 66.867 29.22 L 66.115 32.292 Q 66.003 32.708 65.883 33.292 Q 65.763 33.876 65.763 34.42 Q 65.763 35.044 66.019 35.5 Q 66.275 35.956 67.011 35.956 Q 67.827 35.956 68.419 35.564 Q 69.011 35.172 69.387 34.564 Q 69.763 33.956 69.947 33.284 Q 70.131 32.612 70.131 32.052 Q 70.131 31.636 69.987 31.332 Q 69.843 31.028 69.643 30.788 Q 69.443 30.548 69.299 30.324 Q 69.155 30.1 69.155 29.844 Q 69.155 29.524 69.331 29.348 Q 69.507 29.172 69.763 29.172 Q 70.307 29.172 70.643 29.716 Q 70.979 30.26 70.979 31.108 Q 70.979 31.844 70.795 32.652 Q 70.611 33.46 70.243 34.228 Q 69.875 34.996 69.331 35.62 Q 68.787 36.244 68.083 36.612 Q 67.379 36.98 66.515 36.98 Q 65.715 36.98 65.267 36.66 Q 64.819 36.34 64.635 35.812 Q 64.451 35.284 64.451 34.676 Q 64.451 34.1 64.563 33.492 Q 64.675 32.884 64.803 32.388 L 65.123 31.172 Q 65.155 31.044 65.219 30.788 Q 65.283 30.532 65.283 30.292 Q 65.283 30.084 65.203 29.94 Q 65.123 29.796 64.899 29.796 Q 64.707 29.796 64.435 29.82 Q 64.163 29.844 64.163 29.844 L 64.163 29.396 Z " fill="black" /><path d="M 72.413 38.135 L 72.413 38.135 L 72.413 38.113 Q 72.01 37.878 71.78 37.508 Q 71.55 37.138 71.55 36.59 Q 71.55 35.75 72.122 35.257 Q 72.693 34.764 73.578 34.764 Q 73.947 34.764 74.227 34.831 Q 74.507 34.898 74.664 34.971 Q 74.821 35.044 74.821 35.044 L 76.266 34.966 L 76.266 35.57 L 75.213 35.537 L 75.213 35.593 Q 75.336 35.761 75.476 36.041 Q 75.616 36.321 75.616 36.746 Q 75.616 37.53 75.067 37.99 Q 74.518 38.449 73.634 38.449 Q 73.365 38.449 73.13 38.404 Q 72.894 38.359 72.67 38.281 Q 72.592 38.393 72.486 38.639 Q 72.379 38.886 72.379 39.031 Q 72.379 39.278 72.654 39.378 Q 72.928 39.479 73.701 39.479 Q 74.406 39.479 74.972 39.546 Q 75.538 39.614 75.862 39.894 Q 76.187 40.174 76.187 40.812 Q 76.187 41.372 75.913 41.758 Q 75.638 42.145 75.185 42.38 Q 74.731 42.615 74.188 42.722 Q 73.645 42.828 73.118 42.828 Q 72.39 42.828 71.97 42.649 Q 71.55 42.47 71.382 42.184 Q 71.214 41.898 71.214 41.596 Q 71.214 41.316 71.444 41.008 Q 71.674 40.7 72.122 40.263 L 72.122 40.218 Q 71.842 40.073 71.668 39.86 Q 71.494 39.647 71.494 39.412 Q 71.494 39.11 71.758 38.774 Q 72.021 38.438 72.413 38.135 Z M 72.402 40.308 L 72.402 40.308 Q 72.222 40.622 72.155 40.829 Q 72.088 41.036 72.088 41.215 Q 72.088 42.19 73.768 42.19 Q 74.429 42.19 74.838 42.022 Q 75.246 41.854 75.431 41.607 Q 75.616 41.361 75.616 41.126 Q 75.616 40.834 75.437 40.672 Q 75.258 40.51 74.972 40.442 Q 74.686 40.375 74.367 40.353 Q 74.048 40.33 73.768 40.33 Q 73.701 40.33 73.667 40.33 Q 73.219 40.319 72.973 40.319 Q 72.726 40.319 72.603 40.314 Q 72.48 40.308 72.402 40.308 Z M 73.499 35.167 L 73.499 35.167 Q 73.062 35.167 72.799 35.503 Q 72.536 35.839 72.536 36.545 Q 72.536 37.262 72.816 37.659 Q 73.096 38.057 73.645 38.057 Q 74.07 38.057 74.345 37.766 Q 74.619 37.474 74.619 36.679 Q 74.619 35.996 74.328 35.582 Q 74.037 35.167 73.499 35.167 Z " fill="black" /><path d="M 76.837 38.359 L 76.837 38.359 L 77.128 38.359 Q 77.307 39.222 77.654 39.563 Q 78.002 39.905 78.618 39.905 Q 79.043 39.905 79.312 39.731 Q 79.581 39.558 79.581 39.166 Q 79.581 38.897 79.486 38.718 Q 79.39 38.538 79.122 38.354 Q 78.853 38.169 78.326 37.911 Q 77.565 37.519 77.206 37.155 Q 76.848 36.791 76.848 36.175 Q 76.848 35.481 77.346 35.122 Q 77.845 34.764 78.562 34.764 Q 78.987 34.764 79.256 34.859 Q 79.525 34.954 79.738 35.055 L 79.749 35.055 L 79.939 34.82 L 80.163 34.82 L 80.197 36.534 L 79.894 36.534 Q 79.715 35.738 79.39 35.442 Q 79.066 35.145 78.55 35.145 Q 78.17 35.145 77.906 35.324 Q 77.643 35.503 77.643 35.884 Q 77.643 36.209 77.946 36.466 Q 78.248 36.724 78.954 37.082 Q 79.715 37.486 80.118 37.861 Q 80.522 38.236 80.522 38.863 Q 80.522 39.39 80.264 39.709 Q 80.006 40.028 79.575 40.174 Q 79.144 40.319 78.64 40.319 Q 78.158 40.319 77.873 40.218 Q 77.587 40.118 77.363 40.028 L 77.341 40.028 L 77.106 40.286 L 76.87 40.286 Z " fill="black" /><path d="M 85.595 40.196 L 85.595 40.196 L 81.72 40.196 L 81.72 39.882 Q 82.515 39.882 82.84 39.714 Q 83.165 39.546 83.165 39.132 L 83.165 34.394 Q 83.165 34.103 83.086 33.974 Q 83.008 33.846 82.795 33.846 Q 82.627 33.846 82.269 33.89 Q 81.91 33.935 81.653 34.025 L 81.653 33.655 L 83.826 33.039 L 84.15 33.039 L 84.15 39.132 Q 84.15 39.546 84.486 39.714 Q 84.822 39.882 85.595 39.882 Z " fill="black" /></g></g></g><circle cx="107.99999999999999" cy="-72.0" r="2.6999999999999997" style="stroke:black;fill:black;stroke-width:2.0;" /><g><g><g><path d="M 74.514 -113.44 L 74.514 -113.44 L 74.418 -112.624 L 73.026 -112.784 L 73.026 -112.736 Q 73.298 -112.432 73.45 -111.976 Q 73.602 -111.52 73.602 -111.104 Q 73.602 -110.384 73.314 -109.896 Q 73.026 -109.408 72.562 -109.112 Q 72.098 -108.816 71.538 -108.664 Q 70.978 -108.512 70.45 -108.464 Q 69.81 -108.4 69.546 -108.192 Q 69.282 -107.984 69.282 -107.76 Q 69.282 -107.472 69.602 -107.32 Q 69.922 -107.168 70.426 -107.072 Q 70.93 -106.976 71.506 -106.856 Q 72.082 -106.736 72.586 -106.528 Q 73.09 -106.32 73.41 -105.944 Q 73.73 -105.568 73.73 -104.944 Q 73.73 -104.256 73.282 -103.672 Q 72.834 -103.088 71.954 -102.728 Q 71.074 -102.368 69.794 -102.368 Q 68.642 -102.368 67.954 -102.648 Q 67.266 -102.928 66.962 -103.368 Q 66.658 -103.808 66.658 -104.288 Q 66.658 -105.056 67.25 -105.528 Q 67.842 -106 68.594 -106.24 L 68.594 -106.304 Q 68.386 -106.432 68.202 -106.664 Q 68.018 -106.896 68.018 -107.264 Q 68.018 -107.664 68.226 -107.904 Q 68.434 -108.144 68.762 -108.296 Q 69.09 -108.448 69.41 -108.56 L 69.41 -108.656 Q 68.786 -108.928 68.322 -109.424 Q 67.858 -109.92 67.858 -110.832 Q 67.858 -111.664 68.258 -112.296 Q 68.658 -112.928 69.354 -113.28 Q 70.05 -113.632 70.914 -113.632 Q 71.49 -113.632 71.786 -113.576 Q 72.082 -113.52 72.37 -113.44 Z M 72.578 -104.352 L 72.578 -104.352 Q 72.578 -104.832 72.178 -105.128 Q 71.778 -105.424 71.186 -105.6 Q 70.594 -105.776 69.994 -105.88 Q 69.394 -105.984 68.978 -106.064 Q 68.578 -105.808 68.242 -105.48 Q 67.906 -105.152 67.906 -104.528 Q 67.906 -103.888 68.402 -103.408 Q 68.898 -102.928 70.114 -102.928 Q 71.266 -102.928 71.922 -103.352 Q 72.578 -103.776 72.578 -104.352 Z M 72.178 -111.28 L 72.178 -111.28 Q 72.178 -112.08 71.874 -112.616 Q 71.57 -113.152 70.866 -113.152 Q 70.178 -113.152 69.73 -112.576 Q 69.282 -112 69.282 -110.832 Q 69.282 -110 69.57 -109.48 Q 69.858 -108.96 70.546 -108.96 Q 71.346 -108.96 71.762 -109.632 Q 72.178 -110.304 72.178 -111.28 Z " fill="black" /><path d="M 76.81 -106.606 L 76.81 -106.606 L 76.81 -103.694 Q 76.81 -103.224 76.972 -103.078 Q 77.134 -102.933 77.65 -102.933 L 77.65 -102.608 L 75.096 -102.608 L 75.096 -102.933 Q 75.454 -102.933 75.617 -102.994 Q 75.779 -103.056 75.83 -103.23 Q 75.88 -103.403 75.88 -103.739 L 75.88 -106.875 Q 75.88 -107.178 75.762 -107.278 Q 75.645 -107.379 75.41 -107.379 Q 75.286 -107.379 75.197 -107.368 Q 75.107 -107.357 75.107 -107.357 L 75.107 -107.682 L 76.507 -108.006 L 76.776 -108.006 L 76.776 -107.099 L 76.821 -107.099 Q 77.28 -107.491 77.706 -107.766 Q 78.131 -108.04 78.702 -108.04 Q 79.184 -108.04 79.481 -107.777 Q 79.778 -107.514 79.946 -107.11 L 79.99 -107.11 Q 80.45 -107.57 80.886 -107.805 Q 81.323 -108.04 81.771 -108.04 Q 82.432 -108.04 82.824 -107.626 Q 83.216 -107.211 83.216 -106.192 L 83.216 -103.907 Q 83.216 -103.56 83.255 -103.342 Q 83.294 -103.123 83.468 -103.028 Q 83.642 -102.933 84.022 -102.933 L 84.022 -102.608 L 81.491 -102.608 L 81.491 -102.933 Q 81.872 -102.933 82.04 -103.034 Q 82.208 -103.134 82.247 -103.353 Q 82.286 -103.571 82.286 -103.907 L 82.286 -106.058 Q 82.286 -106.573 82.158 -106.842 Q 82.029 -107.11 81.81 -107.217 Q 81.592 -107.323 81.323 -107.323 Q 80.976 -107.323 80.646 -107.094 Q 80.315 -106.864 80.035 -106.629 L 80.035 -103.907 Q 80.035 -103.526 80.086 -103.314 Q 80.136 -103.101 80.315 -103.017 Q 80.494 -102.933 80.898 -102.933 L 80.898 -102.608 L 78.243 -102.608 L 78.243 -102.933 Q 78.646 -102.933 78.826 -103.011 Q 79.005 -103.09 79.055 -103.302 Q 79.106 -103.515 79.106 -103.907 L 79.106 -106.125 Q 79.106 -106.842 78.854 -107.082 Q 78.602 -107.323 78.21 -107.323 Q 77.773 -107.323 77.414 -107.077 Q 77.056 -106.83 76.81 -106.606 Z " fill="black" /><path d="M 85.243 -108.186 L 85.243 -108.186 L 84.986 -108.331 Q 85.624 -109.821 87.013 -109.821 Q 87.875 -109.821 88.346 -109.39 Q 88.816 -108.958 88.816 -108.32 Q 88.816 -107.738 88.474 -107.379 Q 88.133 -107.021 87.606 -106.685 L 87.606 -106.651 Q 88.054 -106.517 88.43 -106.265 Q 88.805 -106.013 89.029 -105.649 Q 89.253 -105.285 89.253 -104.781 Q 89.253 -104.019 88.827 -103.498 Q 88.402 -102.978 87.707 -102.72 Q 87.013 -102.462 86.195 -102.462 Q 85.691 -102.462 85.422 -102.558 Q 85.154 -102.653 85.047 -102.793 Q 84.941 -102.933 84.941 -103.078 Q 84.941 -103.258 85.053 -103.414 Q 85.165 -103.571 85.378 -103.571 Q 85.512 -103.571 85.63 -103.521 Q 85.747 -103.47 86.038 -103.314 Q 86.397 -103.134 86.57 -103.078 Q 86.744 -103.022 86.946 -103.022 Q 87.304 -103.022 87.618 -103.151 Q 87.931 -103.28 88.133 -103.588 Q 88.334 -103.896 88.334 -104.445 Q 88.334 -104.949 88.054 -105.318 Q 87.774 -105.688 87.31 -105.895 Q 86.845 -106.102 86.307 -106.102 L 86.083 -106.102 L 86.083 -106.528 L 86.296 -106.528 Q 86.677 -106.528 87.035 -106.718 Q 87.394 -106.909 87.623 -107.256 Q 87.853 -107.603 87.853 -108.051 Q 87.853 -108.544 87.545 -108.818 Q 87.237 -109.093 86.71 -109.093 Q 86.206 -109.093 85.87 -108.863 Q 85.534 -108.634 85.243 -108.186 Z " fill="black" /><path d="M 95.211 -104.378 L 95.211 -104.378 L 94.069 -104.378 L 94.069 -102.608 L 93.072 -102.608 L 93.072 -104.378 L 89.97 -104.378 L 89.97 -105.083 L 93.386 -109.832 L 94.069 -109.832 L 94.069 -105.15 L 95.211 -105.15 Z M 93.072 -105.15 L 93.072 -105.15 L 93.072 -108.611 L 93.027 -108.611 L 90.586 -105.195 L 90.586 -105.15 Z " fill="black" /></g></g></g><circle cx="360.0" cy="72.0" r="2.6999999999999997" style="stroke:black;fill:black;stroke-width:2.0;" /><g><g><g><path d="M 300.005 29.364 L 300.005 29.364 L 299.909 30.18 L 298.517 30.02 L 298.517 30.068 Q 298.789 30.372 298.941 30.828 Q 299.093 31.284 299.093 31.7 Q 299.093 32.42 298.805 32.908 Q 298.517 33.396 298.053 33.692 Q 297.589 33.988 297.029 34.14 Q 296.469 34.292 295.941 34.34 Q 295.301 34.404 295.037 34.612 Q 294.773 34.82 294.773 35.044 Q 294.773 35.332 295.093 35.484 Q 295.413 35.636 295.917 35.732 Q 296.421 35.828 296.997 35.948 Q 297.573 36.068 298.077 36.276 Q 298.581 36.484 298.901 36.86 Q 299.221 37.236 299.221 37.86 Q 299.221 38.548 298.773 39.132 Q 298.325 39.716 297.445 40.076 Q 296.565 40.436 295.285 40.436 Q 294.133 40.436 293.445 40.156 Q 292.757 39.876 292.453 39.436 Q 292.149 38.996 292.149 38.516 Q 292.149 37.748 292.741 37.276 Q 293.333 36.804 294.085 36.564 L 294.085 36.5 Q 293.877 36.372 293.693 36.14 Q 293.509 35.908 293.509 35.54 Q 293.509 35.14 293.717 34.9 Q 293.925 34.66 294.253 34.508 Q 294.581 34.356 294.901 34.244 L 294.901 34.148 Q 294.277 33.876 293.813 33.38 Q 293.349 32.884 293.349 31.972 Q 293.349 31.14 293.749 30.508 Q 294.149 29.876 294.845 29.524 Q 295.541 29.172 296.405 29.172 Q 296.981 29.172 297.277 29.228 Q 297.573 29.284 297.861 29.364 Z M 298.069 38.452 L 298.069 38.452 Q 298.069 37.972 297.669 37.676 Q 297.269 37.38 296.677 37.204 Q 296.085 37.028 295.485 36.924 Q 294.885 36.82 294.469 36.74 Q 294.069 36.996 293.733 37.324 Q 293.397 37.652 293.397 38.276 Q 293.397 38.916 293.893 39.396 Q 294.389 39.876 295.605 39.876 Q 296.757 39.876 297.413 39.452 Q 298.069 39.028 298.069 38.452 Z M 297.669 31.524 L 297.669 31.524 Q 297.669 30.724 297.365 30.188 Q 297.061 29.652 296.357 29.652 Q 295.669 29.652 295.221 30.228 Q 294.773 30.804 294.773 31.972 Q 294.773 32.804 295.061 33.324 Q 295.349 33.844 296.037 33.844 Q 296.837 33.844 297.253 33.172 Q 297.669 32.5 297.669 31.524 Z " fill="black" /><path d="M 302.301 36.198 L 302.301 36.198 L 302.301 39.11 Q 302.301 39.58 302.463 39.726 Q 302.626 39.871 303.141 39.871 L 303.141 40.196 L 300.587 40.196 L 300.587 39.871 Q 300.946 39.871 301.108 39.81 Q 301.27 39.748 301.321 39.574 Q 301.371 39.401 301.371 39.065 L 301.371 35.929 Q 301.371 35.626 301.254 35.526 Q 301.136 35.425 300.901 35.425 Q 300.778 35.425 300.688 35.436 Q 300.598 35.447 300.598 35.447 L 300.598 35.122 L 301.998 34.798 L 302.267 34.798 L 302.267 35.705 L 302.312 35.705 Q 302.771 35.313 303.197 35.038 Q 303.622 34.764 304.194 34.764 Q 304.675 34.764 304.972 35.027 Q 305.269 35.29 305.437 35.694 L 305.482 35.694 Q 305.941 35.234 306.378 34.999 Q 306.814 34.764 307.262 34.764 Q 307.923 34.764 308.315 35.178 Q 308.707 35.593 308.707 36.612 L 308.707 38.897 Q 308.707 39.244 308.746 39.462 Q 308.786 39.681 308.959 39.776 Q 309.133 39.871 309.514 39.871 L 309.514 40.196 L 306.982 40.196 L 306.982 39.871 Q 307.363 39.871 307.531 39.77 Q 307.699 39.67 307.738 39.451 Q 307.778 39.233 307.778 38.897 L 307.778 36.746 Q 307.778 36.231 307.649 35.962 Q 307.52 35.694 307.302 35.587 Q 307.083 35.481 306.814 35.481 Q 306.467 35.481 306.137 35.71 Q 305.806 35.94 305.526 36.175 L 305.526 38.897 Q 305.526 39.278 305.577 39.49 Q 305.627 39.703 305.806 39.787 Q 305.986 39.871 306.389 39.871 L 306.389 40.196 L 303.734 40.196 L 303.734 39.871 Q 304.138 39.871 304.317 39.793 Q 304.496 39.714 304.546 39.502 Q 304.597 39.289 304.597 38.897 L 304.597 36.679 Q 304.597 35.962 304.345 35.722 Q 304.093 35.481 303.701 35.481 Q 303.264 35.481 302.906 35.727 Q 302.547 35.974 302.301 36.198 Z " fill="black" /><path d="M 314.968 38.404 L 314.968 38.404 L 314.61 40.196 L 310.197 40.196 L 310.197 39.815 L 311.899 38.113 Q 312.459 37.542 312.829 37.077 Q 313.198 36.612 313.383 36.142 Q 313.568 35.671 313.568 35.089 Q 313.568 34.462 313.193 34.086 Q 312.818 33.711 312.168 33.711 Q 311.619 33.711 311.233 33.946 Q 310.846 34.182 310.533 34.809 L 310.264 34.697 Q 310.522 33.879 311.082 33.431 Q 311.642 32.983 312.459 32.983 Q 313.098 32.983 313.579 33.224 Q 314.061 33.465 314.335 33.896 Q 314.61 34.327 314.61 34.921 Q 314.61 35.414 314.402 35.867 Q 314.195 36.321 313.786 36.802 Q 313.378 37.284 312.784 37.889 L 311.306 39.289 L 311.306 39.345 L 312.09 39.311 L 313.646 39.311 Q 314.094 39.311 314.274 39.11 Q 314.453 38.908 314.643 38.404 Z " fill="black" /><path d="M 318.515 29.22 L 318.515 29.22 L 318.867 29.22 L 318.115 32.292 Q 318.003 32.708 317.883 33.292 Q 317.763 33.876 317.763 34.42 Q 317.763 35.044 318.019 35.5 Q 318.275 35.956 319.011 35.956 Q 319.827 35.956 320.419 35.564 Q 321.011 35.172 321.387 34.564 Q 321.763 33.956 321.947 33.284 Q 322.131 32.612 322.131 32.052 Q 322.131 31.636 321.987 31.332 Q 321.843 31.028 321.643 30.788 Q 321.443 30.548 321.299 30.324 Q 321.155 30.1 321.155 29.844 Q 321.155 29.524 321.331 29.348 Q 321.507 29.172 321.763 29.172 Q 322.307 29.172 322.643 29.716 Q 322.979 30.26 322.979 31.108 Q 322.979 31.844 322.795 32.652 Q 322.611 33.46 322.243 34.228 Q 321.875 34.996 321.331 35.62 Q 320.787 36.244 320.083 36.612 Q 319.379 36.98 318.515 36.98 Q 317.715 36.98 317.267 36.66 Q 316.819 36.34 316.635 35.812 Q 316.451 35.284 316.451 34.676 Q 316.451 34.1 316.563 33.492 Q 316.675 32.884 316.803 32.388 L 317.123 31.172 Q 317.155 31.044 317.219 30.788 Q 317.283 30.532 317.283 30.292 Q 317.283 30.084 317.203 29.94 Q 317.123 29.796 316.899 29.796 Q 316.707 29.796 316.435 29.82 Q 316.163 29.844 316.163 29.844 L 316.163 29.396 Z " fill="black" /><path d="M 324.413 38.135 L 324.413 38.135 L 324.413 38.113 Q 324.01 37.878 323.78 37.508 Q 323.55 37.138 323.55 36.59 Q 323.55 35.75 324.122 35.257 Q 324.693 34.764 325.578 34.764 Q 325.947 34.764 326.227 34.831 Q 326.507 34.898 326.664 34.971 Q 326.821 35.044 326.821 35.044 L 328.266 34.966 L 328.266 35.57 L 327.213 35.537 L 327.213 35.593 Q 327.336 35.761 327.476 36.041 Q 327.616 36.321 327.616 36.746 Q 327.616 37.53 327.067 37.99 Q 326.518 38.449 325.634 38.449 Q 325.365 38.449 325.13 38.404 Q 324.894 38.359 324.67 38.281 Q 324.592 38.393 324.486 38.639 Q 324.379 38.886 324.379 39.031 Q 324.379 39.278 324.654 39.378 Q 324.928 39.479 325.701 39.479 Q 326.406 39.479 326.972 39.546 Q 327.538 39.614 327.862 39.894 Q 328.187 40.174 328.187 40.812 Q 328.187 41.372 327.913 41.758 Q 327.638 42.145 327.185 42.38 Q 326.731 42.615 326.188 42.722 Q 325.645 42.828 325.118 42.828 Q 324.39 42.828 323.97 42.649 Q 323.55 42.47 323.382 42.184 Q 323.214 41.898 323.214 41.596 Q 323.214 41.316 323.444 41.008 Q 323.674 40.7 324.122 40.263 L 324.122 40.218 Q 323.842 40.073 323.668 39.86 Q 323.494 39.647 323.494 39.412 Q 323.494 39.11 323.758 38.774 Q 324.021 38.438 324.413 38.135 Z M 324.402 40.308 L 324.402 40.308 Q 324.222 40.622 324.155 40.829 Q 324.088 41.036 324.088 41.215 Q 324.088 42.19 325.768 42.19 Q 326.429 42.19 326.838 42.022 Q 327.246 41.854 327.431 41.607 Q 327.616 41.361 327.616 41.126 Q 327.616 40.834 327.437 40.672 Q 327.258 40.51 326.972 40.442 Q 326.686 40.375 326.367 40.353 Q 326.048 40.33 325.768 40.33 Q 325.701 40.33 325.667 40.33 Q 325.219 40.319 324.973 40.319 Q 324.726 40.319 324.603 40.314 Q 324.48 40.308 324.402 40.308 Z M 325.499 35.167 L 325.499 35.167 Q 325.062 35.167 324.799 35.503 Q 324.536 35.839 324.536 36.545 Q 324.536 37.262 324.816 37.659 Q 325.096 38.057 325.645 38.057 Q 326.07 38.057 326.345 37.766 Q 326.619 37.474 326.619 36.679 Q 326.619 35.996 326.328 35.582 Q 326.037 35.167 325.499 35.167 Z " fill="black" /><path d="M 328.837 38.359 L 328.837 38.359 L 329.128 38.359 Q 329.307 39.222 329.654 39.563 Q 330.002 39.905 330.618 39.905 Q 331.043 39.905 331.312 39.731 Q 331.581 39.558 331.581 39.166 Q 331.581 38.897 331.486 38.718 Q 331.39 38.538 331.122 38.354 Q 330.853 38.169 330.326 37.911 Q 329.565 37.519 329.206 37.155 Q 328.848 36.791 328.848 36.175 Q 328.848 35.481 329.346 35.122 Q 329.845 34.764 330.562 34.764 Q 330.987 34.764 331.256 34.859 Q 331.525 34.954 331.738 35.055 L 331.749 35.055 L 331.939 34.82 L 332.163 34.82 L 332.197 36.534 L 331.894 36.534 Q 331.715 35.738 331.39 35.442 Q 331.066 35.145 330.55 35.145 Q 330.17 35.145 329.906 35.324 Q 329.643 35.503 329.643 35.884 Q 329.643 36.209 329.946 36.466 Q 330.248 36.724 330.954 37.082 Q 331.715 37.486 332.118 37.861 Q 332.522 38.236 332.522 38.863 Q 332.522 39.39 332.264 39.709 Q 332.006 40.028 331.575 40.174 Q 331.144 40.319 330.64 40.319 Q 330.158 40.319 329.873 40.218 Q 329.587 40.118 329.363 40.028 L 329.341 40.028 L 329.106 40.286 L 328.87 40.286 Z " fill="black" /><path d="M 338.021 38.404 L 338.021 38.404 L 337.662 40.196 L 333.25 40.196 L 333.25 39.815 L 334.952 38.113 Q 335.512 37.542 335.882 37.077 Q 336.251 36.612 336.436 36.142 Q 336.621 35.671 336.621 35.089 Q 336.621 34.462 336.246 34.086 Q 335.87 33.711 335.221 33.711 Q 334.672 33.711 334.286 33.946 Q 333.899 34.182 333.586 34.809 L 333.317 34.697 Q 333.574 33.879 334.134 33.431 Q 334.694 32.983 335.512 32.983 Q 336.15 32.983 336.632 33.224 Q 337.114 33.465 337.388 33.896 Q 337.662 34.327 337.662 34.921 Q 337.662 35.414 337.455 35.867 Q 337.248 36.321 336.839 36.802 Q 336.43 37.284 335.837 37.889 L 334.358 39.289 L 334.358 39.345 L 335.142 39.311 L 336.699 39.311 Q 337.147 39.311 337.326 39.11 Q 337.506 38.908 337.696 38.404 Z " fill="black" /></g></g></g><circle cx="360.0" cy="-36.0" r="2.6999999999999997" style="stroke:black;fill:black;stroke-width:2.0;" /><g><g><g><path d="M 288.917 -114.636 L 288.917 -114.636 L 288.821 -113.82 L 287.429 -113.98 L 287.429 -113.932 Q 287.701 -113.628 287.853 -113.172 Q 288.005 -112.716 288.005 -112.3 Q 288.005 -111.58 287.717 -111.092 Q 287.429 -110.604 286.965 -110.308 Q 286.501 -110.012 285.941 -109.86 Q 285.381 -109.708 284.853 -109.66 Q 284.213 -109.596 283.949 -109.388 Q 283.685 -109.18 283.685 -108.956 Q 283.685 -108.668 284.005 -108.516 Q 284.325 -108.364 284.829 -108.268 Q 285.333 -108.172 285.909 -108.052 Q 286.485 -107.932 286.989 -107.724 Q 287.493 -107.516 287.813 -107.14 Q 288.133 -106.764 288.133 -106.14 Q 288.133 -105.452 287.685 -104.868 Q 287.237 -104.284 286.357 -103.924 Q 285.477 -103.564 284.197 -103.564 Q 283.045 -103.564 282.357 -103.844 Q 281.669 -104.124 281.365 -104.564 Q 281.061 -105.004 281.061 -105.484 Q 281.061 -106.252 281.653 -106.724 Q 282.245 -107.196 282.997 -107.436 L 282.997 -107.5 Q 282.789 -107.628 282.605 -107.86 Q 282.421 -108.092 282.421 -108.46 Q 282.421 -108.86 282.629 -109.1 Q 282.837 -109.34 283.165 -109.492 Q 283.493 -109.644 283.813 -109.756 L 283.813 -109.852 Q 283.189 -110.124 282.725 -110.62 Q 282.261 -111.116 282.261 -112.028 Q 282.261 -112.86 282.661 -113.492 Q 283.061 -114.124 283.757 -114.476 Q 284.453 -114.828 285.317 -114.828 Q 285.893 -114.828 286.189 -114.772 Q 286.485 -114.716 286.773 -114.636 Z M 286.981 -105.548 L 286.981 -105.548 Q 286.981 -106.028 286.581 -106.324 Q 286.181 -106.62 285.589 -106.796 Q 284.997 -106.972 284.397 -107.076 Q 283.797 -107.18 283.381 -107.26 Q 282.981 -107.004 282.645 -106.676 Q 282.309 -106.348 282.309 -105.724 Q 282.309 -105.084 282.805 -104.604 Q 283.301 -104.124 284.517 -104.124 Q 285.669 -104.124 286.325 -104.548 Q 286.981 -104.972 286.981 -105.548 Z M 286.581 -112.476 L 286.581 -112.476 Q 286.581 -113.276 286.277 -113.812 Q 285.973 -114.348 285.269 -114.348 Q 284.581 -114.348 284.133 -113.772 Q 283.685 -113.196 283.685 -112.028 Q 283.685 -111.196 283.973 -110.676 Q 284.261 -110.156 284.949 -110.156 Q 285.749 -110.156 286.165 -110.828 Q 286.581 -111.5 286.581 -112.476 Z " fill="black" /><path d="M 291.213 -107.802 L 291.213 -107.802 L 291.213 -104.89 Q 291.213 -104.42 291.375 -104.274 Q 291.538 -104.129 292.053 -104.129 L 292.053 -103.804 L 289.499 -103.804 L 289.499 -104.129 Q 289.858 -104.129 290.02 -104.19 Q 290.182 -104.252 290.233 -104.426 Q 290.283 -104.599 290.283 -104.935 L 290.283 -108.071 Q 290.283 -108.374 290.166 -108.474 Q 290.048 -108.575 289.813 -108.575 Q 289.69 -108.575 289.6 -108.564 Q 289.51 -108.553 289.51 -108.553 L 289.51 -108.878 L 290.91 -109.202 L 291.179 -109.202 L 291.179 -108.295 L 291.224 -108.295 Q 291.683 -108.687 292.109 -108.962 Q 292.534 -109.236 293.106 -109.236 Q 293.587 -109.236 293.884 -108.973 Q 294.181 -108.71 294.349 -108.306 L 294.394 -108.306 Q 294.853 -108.766 295.29 -109.001 Q 295.726 -109.236 296.174 -109.236 Q 296.835 -109.236 297.227 -108.822 Q 297.619 -108.407 297.619 -107.388 L 297.619 -105.103 Q 297.619 -104.756 297.658 -104.538 Q 297.698 -104.319 297.871 -104.224 Q 298.045 -104.129 298.426 -104.129 L 298.426 -103.804 L 295.894 -103.804 L 295.894 -104.129 Q 296.275 -104.129 296.443 -104.23 Q 296.611 -104.33 296.65 -104.549 Q 296.69 -104.767 296.69 -105.103 L 296.69 -107.254 Q 296.69 -107.769 296.561 -108.038 Q 296.432 -108.306 296.214 -108.413 Q 295.995 -108.519 295.726 -108.519 Q 295.379 -108.519 295.049 -108.29 Q 294.718 -108.06 294.438 -107.825 L 294.438 -105.103 Q 294.438 -104.722 294.489 -104.51 Q 294.539 -104.297 294.718 -104.213 Q 294.898 -104.129 295.301 -104.129 L 295.301 -103.804 L 292.646 -103.804 L 292.646 -104.129 Q 293.05 -104.129 293.229 -104.207 Q 293.408 -104.286 293.458 -104.498 Q 293.509 -104.711 293.509 -105.103 L 293.509 -107.321 Q 293.509 -108.038 293.257 -108.278 Q 293.005 -108.519 292.613 -108.519 Q 292.176 -108.519 291.818 -108.273 Q 291.459 -108.026 291.213 -107.802 Z " fill="black" /><path d="M 299.646 -109.382 L 299.646 -109.382 L 299.389 -109.527 Q 300.027 -111.017 301.416 -111.017 Q 302.278 -111.017 302.749 -110.586 Q 303.219 -110.154 303.219 -109.516 Q 303.219 -108.934 302.878 -108.575 Q 302.536 -108.217 302.01 -107.881 L 302.01 -107.847 Q 302.458 -107.713 302.833 -107.461 Q 303.208 -107.209 303.432 -106.845 Q 303.656 -106.481 303.656 -105.977 Q 303.656 -105.215 303.23 -104.694 Q 302.805 -104.174 302.11 -103.916 Q 301.416 -103.658 300.598 -103.658 Q 300.094 -103.658 299.826 -103.754 Q 299.557 -103.849 299.45 -103.989 Q 299.344 -104.129 299.344 -104.274 Q 299.344 -104.454 299.456 -104.61 Q 299.568 -104.767 299.781 -104.767 Q 299.915 -104.767 300.033 -104.717 Q 300.15 -104.666 300.442 -104.51 Q 300.8 -104.33 300.974 -104.274 Q 301.147 -104.218 301.349 -104.218 Q 301.707 -104.218 302.021 -104.347 Q 302.334 -104.476 302.536 -104.784 Q 302.738 -105.092 302.738 -105.641 Q 302.738 -106.145 302.458 -106.514 Q 302.178 -106.884 301.713 -107.091 Q 301.248 -107.298 300.71 -107.298 L 300.486 -107.298 L 300.486 -107.724 L 300.699 -107.724 Q 301.08 -107.724 301.438 -107.914 Q 301.797 -108.105 302.026 -108.452 Q 302.256 -108.799 302.256 -109.247 Q 302.256 -109.74 301.948 -110.014 Q 301.64 -110.289 301.114 -110.289 Q 300.61 -110.289 300.274 -110.059 Q 299.938 -109.83 299.646 -109.382 Z " fill="black" /><path d="M 309.614 -105.574 L 309.614 -105.574 L 308.472 -105.574 L 308.472 -103.804 L 307.475 -103.804 L 307.475 -105.574 L 304.373 -105.574 L 304.373 -106.279 L 307.789 -111.028 L 308.472 -111.028 L 308.472 -106.346 L 309.614 -106.346 Z M 307.475 -106.346 L 307.475 -106.346 L 307.475 -109.807 L 307.43 -109.807 L 304.989 -106.391 L 304.989 -106.346 Z " fill="black" /><path d="M 312.971 -114.78 L 312.971 -114.78 L 313.323 -114.78 L 312.571 -111.708 Q 312.459 -111.292 312.339 -110.708 Q 312.219 -110.124 312.219 -109.58 Q 312.219 -108.956 312.475 -108.5 Q 312.731 -108.044 313.467 -108.044 Q 314.283 -108.044 314.875 -108.436 Q 315.467 -108.828 315.843 -109.436 Q 316.219 -110.044 316.403 -110.716 Q 316.587 -111.388 316.587 -111.948 Q 316.587 -112.364 316.443 -112.668 Q 316.299 -112.972 316.099 -113.212 Q 315.899 -113.452 315.755 -113.676 Q 315.611 -113.9 315.611 -114.156 Q 315.611 -114.476 315.787 -114.652 Q 315.963 -114.828 316.219 -114.828 Q 316.763 -114.828 317.099 -114.284 Q 317.435 -113.74 317.435 -112.892 Q 317.435 -112.156 317.251 -111.348 Q 317.067 -110.54 316.699 -109.772 Q 316.331 -109.004 315.787 -108.38 Q 315.243 -107.756 314.539 -107.388 Q 313.835 -107.02 312.971 -107.02 Q 312.171 -107.02 311.723 -107.34 Q 311.275 -107.66 311.091 -108.188 Q 310.907 -108.716 310.907 -109.324 Q 310.907 -109.9 311.019 -110.508 Q 311.131 -111.116 311.259 -111.612 L 311.579 -112.828 Q 311.611 -112.956 311.675 -113.212 Q 311.739 -113.468 311.739 -113.708 Q 311.739 -113.916 311.659 -114.06 Q 311.579 -114.204 311.355 -114.204 Q 311.163 -114.204 310.891 -114.18 Q 310.619 -114.156 310.619 -114.156 L 310.619 -114.604 Z " fill="black" /><path d="M 318.869 -105.865 L 318.869 -105.865 L 318.869 -105.887 Q 318.466 -106.122 318.236 -106.492 Q 318.006 -106.862 318.006 -107.41 Q 318.006 -108.25 318.578 -108.743 Q 319.149 -109.236 320.034 -109.236 Q 320.403 -109.236 320.683 -109.169 Q 320.963 -109.102 321.12 -109.029 Q 321.277 -108.956 321.277 -108.956 L 322.722 -109.034 L 322.722 -108.43 L 321.669 -108.463 L 321.669 -108.407 Q 321.792 -108.239 321.932 -107.959 Q 322.072 -107.679 322.072 -107.254 Q 322.072 -106.47 321.523 -106.01 Q 320.974 -105.551 320.09 -105.551 Q 319.821 -105.551 319.586 -105.596 Q 319.35 -105.641 319.126 -105.719 Q 319.048 -105.607 318.942 -105.361 Q 318.835 -105.114 318.835 -104.969 Q 318.835 -104.722 319.11 -104.622 Q 319.384 -104.521 320.157 -104.521 Q 320.862 -104.521 321.428 -104.454 Q 321.994 -104.386 322.318 -104.106 Q 322.643 -103.826 322.643 -103.188 Q 322.643 -102.628 322.369 -102.242 Q 322.094 -101.855 321.641 -101.62 Q 321.187 -101.385 320.644 -101.278 Q 320.101 -101.172 319.574 -101.172 Q 318.846 -101.172 318.426 -101.351 Q 318.006 -101.53 317.838 -101.816 Q 317.67 -102.102 317.67 -102.404 Q 317.67 -102.684 317.9 -102.992 Q 318.13 -103.3 318.578 -103.737 L 318.578 -103.782 Q 318.298 -103.927 318.124 -104.14 Q 317.95 -104.353 317.95 -104.588 Q 317.95 -104.89 318.214 -105.226 Q 318.477 -105.562 318.869 -105.865 Z M 318.858 -103.692 L 318.858 -103.692 Q 318.678 -103.378 318.611 -103.171 Q 318.544 -102.964 318.544 -102.785 Q 318.544 -101.81 320.224 -101.81 Q 320.885 -101.81 321.294 -101.978 Q 321.702 -102.146 321.887 -102.393 Q 322.072 -102.639 322.072 -102.874 Q 322.072 -103.166 321.893 -103.328 Q 321.714 -103.49 321.428 -103.558 Q 321.142 -103.625 320.823 -103.647 Q 320.504 -103.67 320.224 -103.67 Q 320.157 -103.67 320.123 -103.67 Q 319.675 -103.681 319.429 -103.681 Q 319.182 -103.681 319.059 -103.686 Q 318.936 -103.692 318.858 -103.692 Z M 319.955 -108.833 L 319.955 -108.833 Q 319.518 -108.833 319.255 -108.497 Q 318.992 -108.161 318.992 -107.455 Q 318.992 -106.738 319.272 -106.341 Q 319.552 -105.943 320.101 -105.943 Q 320.526 -105.943 320.801 -106.234 Q 321.075 -106.526 321.075 -107.321 Q 321.075 -108.004 320.784 -108.418 Q 320.493 -108.833 319.955 -108.833 Z " fill="black" /><path d="M 323.293 -105.641 L 323.293 -105.641 L 323.584 -105.641 Q 323.763 -104.778 324.11 -104.437 Q 324.458 -104.095 325.074 -104.095 Q 325.499 -104.095 325.768 -104.269 Q 326.037 -104.442 326.037 -104.834 Q 326.037 -105.103 325.942 -105.282 Q 325.846 -105.462 325.578 -105.646 Q 325.309 -105.831 324.782 -106.089 Q 324.021 -106.481 323.662 -106.845 Q 323.304 -107.209 323.304 -107.825 Q 323.304 -108.519 323.802 -108.878 Q 324.301 -109.236 325.018 -109.236 Q 325.443 -109.236 325.712 -109.141 Q 325.981 -109.046 326.194 -108.945 L 326.205 -108.945 L 326.395 -109.18 L 326.619 -109.18 L 326.653 -107.466 L 326.35 -107.466 Q 326.171 -108.262 325.846 -108.558 Q 325.522 -108.855 325.006 -108.855 Q 324.626 -108.855 324.362 -108.676 Q 324.099 -108.497 324.099 -108.116 Q 324.099 -107.791 324.402 -107.534 Q 324.704 -107.276 325.41 -106.918 Q 326.171 -106.514 326.574 -106.139 Q 326.978 -105.764 326.978 -105.137 Q 326.978 -104.61 326.72 -104.291 Q 326.462 -103.972 326.031 -103.826 Q 325.6 -103.681 325.096 -103.681 Q 324.614 -103.681 324.329 -103.782 Q 324.043 -103.882 323.819 -103.972 L 323.797 -103.972 L 323.562 -103.714 L 323.326 -103.714 Z " fill="black" /><path d="M 328.243 -109.382 L 328.243 -109.382 L 327.986 -109.527 Q 328.624 -111.017 330.013 -111.017 Q 330.875 -111.017 331.346 -110.586 Q 331.816 -110.154 331.816 -109.516 Q 331.816 -108.934 331.474 -108.575 Q 331.133 -108.217 330.606 -107.881 L 330.606 -107.847 Q 331.054 -107.713 331.43 -107.461 Q 331.805 -107.209 332.029 -106.845 Q 332.253 -106.481 332.253 -105.977 Q 332.253 -105.215 331.827 -104.694 Q 331.402 -104.174 330.707 -103.916 Q 330.013 -103.658 329.195 -103.658 Q 328.691 -103.658 328.422 -103.754 Q 328.154 -103.849 328.047 -103.989 Q 327.941 -104.129 327.941 -104.274 Q 327.941 -104.454 328.053 -104.61 Q 328.165 -104.767 328.378 -104.767 Q 328.512 -104.767 328.63 -104.717 Q 328.747 -104.666 329.038 -104.51 Q 329.397 -104.33 329.57 -104.274 Q 329.744 -104.218 329.946 -104.218 Q 330.304 -104.218 330.618 -104.347 Q 330.931 -104.476 331.133 -104.784 Q 331.334 -105.092 331.334 -105.641 Q 331.334 -106.145 331.054 -106.514 Q 330.774 -106.884 330.31 -107.091 Q 329.845 -107.298 329.307 -107.298 L 329.083 -107.298 L 329.083 -107.724 L 329.296 -107.724 Q 329.677 -107.724 330.035 -107.914 Q 330.394 -108.105 330.623 -108.452 Q 330.853 -108.799 330.853 -109.247 Q 330.853 -109.74 330.545 -110.014 Q 330.237 -110.289 329.71 -110.289 Q 329.206 -110.289 328.87 -110.059 Q 328.534 -109.83 328.243 -109.382 Z " fill="black" /><path d="M 338.211 -105.574 L 338.211 -105.574 L 337.069 -105.574 L 337.069 -103.804 L 336.072 -103.804 L 336.072 -105.574 L 332.97 -105.574 L 332.97 -106.279 L 336.386 -111.028 L 337.069 -111.028 L 337.069 -106.346 L 338.211 -106.346 Z M 336.072 -106.346 L 336.072 -106.346 L 336.072 -109.807 L 336.027 -109.807 L 333.586 -106.391 L 333.586 -106.346 Z " fill="black" /></g></g></g><g><g><g><path d="M 403.139 30.56 L 403.139 30.56 L 403.043 31.376 L 401.651 31.216 L 401.651 31.264 Q 401.923 31.568 402.075 32.024 Q 402.227 32.48 402.227 32.896 Q 402.227 33.616 401.939 34.104 Q 401.651 34.592 401.187 34.888 Q 400.723 35.184 400.163 35.336 Q 399.603 35.488 399.075 35.536 Q 398.435 35.6 398.171 35.808 Q 397.907 36.016 397.907 36.24 Q 397.907 36.528 398.227 36.68 Q 398.547 36.832 399.051 36.928 Q 399.555 37.024 400.131 37.144 Q 400.707 37.264 401.211 37.472 Q 401.715 37.68 402.035 38.056 Q 402.355 38.432 402.355 39.056 Q 402.355 39.744 401.907 40.328 Q 401.459 40.912 400.579 41.272 Q 399.699 41.632 398.419 41.632 Q 397.267 41.632 396.579 41.352 Q 395.891 41.072 395.587 40.632 Q 395.283 40.192 395.283 39.712 Q 395.283 38.944 395.875 38.472 Q 396.467 38 397.219 37.76 L 397.219 37.696 Q 397.011 37.568 396.827 37.336 Q 396.643 37.104 396.643 36.736 Q 396.643 36.336 396.851 36.096 Q 397.059 35.856 397.387 35.704 Q 397.715 35.552 398.035 35.44 L 398.035 35.344 Q 397.411 35.072 396.947 34.576 Q 396.483 34.08 396.483 33.168 Q 396.483 32.336 396.883 31.704 Q 397.283 31.072 397.979 30.72 Q 398.675 30.368 399.539 30.368 Q 400.115 30.368 400.411 30.424 Q 400.707 30.48 400.995 30.56 Z M 401.203 39.648 L 401.203 39.648 Q 401.203 39.168 400.803 38.872 Q 400.403 38.576 399.811 38.4 Q 399.219 38.224 398.619 38.12 Q 398.019 38.016 397.603 37.936 Q 397.203 38.192 396.867 38.52 Q 396.531 38.848 396.531 39.472 Q 396.531 40.112 397.027 40.592 Q 397.523 41.072 398.739 41.072 Q 399.891 41.072 400.547 40.648 Q 401.203 40.224 401.203 39.648 Z M 400.803 32.72 L 400.803 32.72 Q 400.803 31.92 400.499 31.384 Q 400.195 30.848 399.491 30.848 Q 398.803 30.848 398.355 31.424 Q 397.907 32 397.907 33.168 Q 397.907 34 398.195 34.52 Q 398.483 35.04 399.171 35.04 Q 399.971 35.04 400.387 34.368 Q 400.803 33.696 400.803 32.72 Z " fill="black" /><path d="M 409.12 41.19 L 409.12 41.19 L 407.686 41.448 L 407.429 41.448 L 407.429 40.675 L 407.384 40.675 Q 407.07 40.955 406.639 41.218 Q 406.208 41.482 405.648 41.482 Q 405.021 41.482 404.59 41.146 Q 404.158 40.81 403.946 40.233 Q 403.733 39.656 403.733 38.939 Q 403.733 38.01 404.08 37.343 Q 404.427 36.677 405.015 36.318 Q 405.603 35.96 406.309 35.96 Q 406.589 35.96 406.863 36.022 Q 407.138 36.083 407.395 36.229 L 407.395 34.762 Q 407.395 34.392 407.311 34.28 Q 407.227 34.168 406.902 34.168 Q 406.824 34.168 406.718 34.179 Q 406.611 34.19 406.611 34.19 L 406.611 33.877 L 408.022 33.485 L 408.325 33.485 L 408.325 40.194 Q 408.325 40.63 408.448 40.759 Q 408.571 40.888 408.885 40.888 L 409.12 40.888 Z M 407.395 40.261 L 407.395 40.261 L 407.395 37.304 Q 407.328 36.957 407.07 36.682 Q 406.813 36.408 406.286 36.408 Q 405.581 36.408 405.144 36.923 Q 404.707 37.438 404.707 38.502 Q 404.707 39.656 405.082 40.166 Q 405.458 40.675 406.174 40.675 Q 406.566 40.675 406.835 40.569 Q 407.104 40.462 407.395 40.261 Z " fill="black" /><path d="M 409.837 39.555 L 409.837 39.555 L 410.128 39.555 Q 410.307 40.418 410.654 40.759 Q 411.002 41.101 411.618 41.101 Q 412.043 41.101 412.312 40.927 Q 412.581 40.754 412.581 40.362 Q 412.581 40.093 412.486 39.914 Q 412.39 39.734 412.122 39.55 Q 411.853 39.365 411.326 39.107 Q 410.565 38.715 410.206 38.351 Q 409.848 37.987 409.848 37.371 Q 409.848 36.677 410.346 36.318 Q 410.845 35.96 411.562 35.96 Q 411.987 35.96 412.256 36.055 Q 412.525 36.15 412.738 36.251 L 412.749 36.251 L 412.939 36.016 L 413.163 36.016 L 413.197 37.73 L 412.894 37.73 Q 412.715 36.934 412.39 36.638 Q 412.066 36.341 411.55 36.341 Q 411.17 36.341 410.906 36.52 Q 410.643 36.699 410.643 37.08 Q 410.643 37.405 410.946 37.662 Q 411.248 37.92 411.954 38.278 Q 412.715 38.682 413.118 39.057 Q 413.522 39.432 413.522 40.059 Q 413.522 40.586 413.264 40.905 Q 413.006 41.224 412.575 41.37 Q 412.144 41.515 411.64 41.515 Q 411.158 41.515 410.873 41.414 Q 410.587 41.314 410.363 41.224 L 410.341 41.224 L 410.106 41.482 L 409.87 41.482 Z " fill="black" /><path d="M 419.021 39.6 L 419.021 39.6 L 418.662 41.392 L 414.25 41.392 L 414.25 41.011 L 415.952 39.309 Q 416.512 38.738 416.882 38.273 Q 417.251 37.808 417.436 37.338 Q 417.621 36.867 417.621 36.285 Q 417.621 35.658 417.246 35.282 Q 416.87 34.907 416.221 34.907 Q 415.672 34.907 415.286 35.142 Q 414.899 35.378 414.586 36.005 L 414.317 35.893 Q 414.574 35.075 415.134 34.627 Q 415.694 34.179 416.512 34.179 Q 417.15 34.179 417.632 34.42 Q 418.114 34.661 418.388 35.092 Q 418.662 35.523 418.662 36.117 Q 418.662 36.61 418.455 37.063 Q 418.248 37.517 417.839 37.998 Q 417.43 38.48 416.837 39.085 L 415.358 40.485 L 415.358 40.541 L 416.142 40.507 L 417.699 40.507 Q 418.147 40.507 418.326 40.306 Q 418.506 40.104 418.696 39.6 Z " fill="black" /></g></g></g><circle cx="432.0" cy="-36.0" r="2.6999999999999997" style="stroke:black;fill:black;stroke-width:2.0;" /><g><g><g><path d="M 403.139 -113.44 L 403.139 -113.44 L 403.043 -112.624 L 401.651 -112.784 L 401.651 -112.736 Q 401.923 -112.432 402.075 -111.976 Q 402.227 -111.52 402.227 -111.104 Q 402.227 -110.384 401.939 -109.896 Q 401.651 -109.408 401.187 -109.112 Q 400.723 -108.816 400.163 -108.664 Q 399.603 -108.512 399.075 -108.464 Q 398.435 -108.4 398.171 -108.192 Q 397.907 -107.984 397.907 -107.76 Q 397.907 -107.472 398.227 -107.32 Q 398.547 -107.168 399.051 -107.072 Q 399.555 -106.976 400.131 -106.856 Q 400.707 -106.736 401.211 -106.528 Q 401.715 -106.32 402.035 -105.944 Q 402.355 -105.568 402.355 -104.944 Q 402.355 -104.256 401.907 -103.672 Q 401.459 -103.088 400.579 -102.728 Q 399.699 -102.368 398.419 -102.368 Q 397.267 -102.368 396.579 -102.648 Q 395.891 -102.928 395.587 -103.368 Q 395.283 -103.808 395.283 -104.288 Q 395.283 -105.056 395.875 -105.528 Q 396.467 -106 397.219 -106.24 L 397.219 -106.304 Q 397.011 -106.432 396.827 -106.664 Q 396.643 -106.896 396.643 -107.264 Q 396.643 -107.664 396.851 -107.904 Q 397.059 -108.144 397.387 -108.296 Q 397.715 -108.448 398.035 -108.56 L 398.035 -108.656 Q 397.411 -108.928 396.947 -109.424 Q 396.483 -109.92 396.483 -110.832 Q 396.483 -111.664 396.883 -112.296 Q 397.283 -112.928 397.979 -113.28 Q 398.675 -113.632 399.539 -113.632 Q 400.115 -113.632 400.411 -113.576 Q 400.707 -113.52 400.995 -113.44 Z M 401.203 -104.352 L 401.203 -104.352 Q 401.203 -104.832 400.803 -105.128 Q 400.403 -105.424 399.811 -105.6 Q 399.219 -105.776 398.619 -105.88 Q 398.019 -105.984 397.603 -106.064 Q 397.203 -105.808 396.867 -105.48 Q 396.531 -105.152 396.531 -104.528 Q 396.531 -103.888 397.027 -103.408 Q 397.523 -102.928 398.739 -102.928 Q 399.891 -102.928 400.547 -103.352 Q 401.203 -103.776 401.203 -104.352 Z M 400.803 -111.28 L 400.803 -111.28 Q 400.803 -112.08 400.499 -112.616 Q 400.195 -113.152 399.491 -113.152 Q 398.803 -113.152 398.355 -112.576 Q 397.907 -112 397.907 -110.832 Q 397.907 -110 398.195 -109.48 Q 398.483 -108.96 399.171 -108.96 Q 399.971 -108.96 400.387 -109.632 Q 400.803 -110.304 400.803 -111.28 Z " fill="black" /><path d="M 409.12 -102.81 L 409.12 -102.81 L 407.686 -102.552 L 407.429 -102.552 L 407.429 -103.325 L 407.384 -103.325 Q 407.07 -103.045 406.639 -102.782 Q 406.208 -102.518 405.648 -102.518 Q 405.021 -102.518 404.59 -102.854 Q 404.158 -103.19 403.946 -103.767 Q 403.733 -104.344 403.733 -105.061 Q 403.733 -105.99 404.08 -106.657 Q 404.427 -107.323 405.015 -107.682 Q 405.603 -108.04 406.309 -108.04 Q 406.589 -108.04 406.863 -107.978 Q 407.138 -107.917 407.395 -107.771 L 407.395 -109.238 Q 407.395 -109.608 407.311 -109.72 Q 407.227 -109.832 406.902 -109.832 Q 406.824 -109.832 406.718 -109.821 Q 406.611 -109.81 406.611 -109.81 L 406.611 -110.123 L 408.022 -110.515 L 408.325 -110.515 L 408.325 -103.806 Q 408.325 -103.37 408.448 -103.241 Q 408.571 -103.112 408.885 -103.112 L 409.12 -103.112 Z M 407.395 -103.739 L 407.395 -103.739 L 407.395 -106.696 Q 407.328 -107.043 407.07 -107.318 Q 406.813 -107.592 406.286 -107.592 Q 405.581 -107.592 405.144 -107.077 Q 404.707 -106.562 404.707 -105.498 Q 404.707 -104.344 405.082 -103.834 Q 405.458 -103.325 406.174 -103.325 Q 406.566 -103.325 406.835 -103.431 Q 407.104 -103.538 407.395 -103.739 Z " fill="black" /><path d="M 409.837 -104.445 L 409.837 -104.445 L 410.128 -104.445 Q 410.307 -103.582 410.654 -103.241 Q 411.002 -102.899 411.618 -102.899 Q 412.043 -102.899 412.312 -103.073 Q 412.581 -103.246 412.581 -103.638 Q 412.581 -103.907 412.486 -104.086 Q 412.39 -104.266 412.122 -104.45 Q 411.853 -104.635 411.326 -104.893 Q 410.565 -105.285 410.206 -105.649 Q 409.848 -106.013 409.848 -106.629 Q 409.848 -107.323 410.346 -107.682 Q 410.845 -108.04 411.562 -108.04 Q 411.987 -108.04 412.256 -107.945 Q 412.525 -107.85 412.738 -107.749 L 412.749 -107.749 L 412.939 -107.984 L 413.163 -107.984 L 413.197 -106.27 L 412.894 -106.27 Q 412.715 -107.066 412.39 -107.362 Q 412.066 -107.659 411.55 -107.659 Q 411.17 -107.659 410.906 -107.48 Q 410.643 -107.301 410.643 -106.92 Q 410.643 -106.595 410.946 -106.338 Q 411.248 -106.08 411.954 -105.722 Q 412.715 -105.318 413.118 -104.943 Q 413.522 -104.568 413.522 -103.941 Q 413.522 -103.414 413.264 -103.095 Q 413.006 -102.776 412.575 -102.63 Q 412.144 -102.485 411.64 -102.485 Q 411.158 -102.485 410.873 -102.586 Q 410.587 -102.686 410.363 -102.776 L 410.341 -102.776 L 410.106 -102.518 L 409.87 -102.518 Z " fill="black" /><path d="M 419.211 -104.378 L 419.211 -104.378 L 418.069 -104.378 L 418.069 -102.608 L 417.072 -102.608 L 417.072 -104.378 L 413.97 -104.378 L 413.97 -105.083 L 417.386 -109.832 L 418.069 -109.832 L 418.069 -105.15 L 419.211 -105.15 Z M 417.072 -105.15 L 417.072 -105.15 L 417.072 -108.611 L 417.027 -108.611 L 414.586 -105.195 L 414.586 -105.15 Z " fill="black" /></g></g></g><g><g><g><path d="M 495.958 -50.688 L 495.958 -50.688 L 496.31 -50.688 L 495.558 -47.616 Q 495.446 -47.2 495.326 -46.616 Q 495.206 -46.032 495.206 -45.488 Q 495.206 -44.864 495.462 -44.408 Q 495.718 -43.952 496.454 -43.952 Q 497.27 -43.952 497.862 -44.344 Q 498.454 -44.736 498.83 -45.344 Q 499.206 -45.952 499.39 -46.624 Q 499.574 -47.296 499.574 -47.856 Q 499.574 -48.272 499.43 -48.576 Q 499.286 -48.88 499.086 -49.12 Q 498.886 -49.36 498.742 -49.584 Q 498.598 -49.808 498.598 -50.064 Q 498.598 -50.384 498.774 -50.56 Q 498.95 -50.736 499.206 -50.736 Q 499.75 -50.736 500.086 -50.192 Q 500.422 -49.648 500.422 -48.8 Q 500.422 -48.064 500.238 -47.256 Q 500.054 -46.448 499.686 -45.68 Q 499.318 -44.912 498.774 -44.288 Q 498.23 -43.664 497.526 -43.296 Q 496.822 -42.928 495.958 -42.928 Q 495.158 -42.928 494.71 -43.248 Q 494.262 -43.568 494.078 -44.096 Q 493.894 -44.624 493.894 -45.232 Q 493.894 -45.808 494.006 -46.416 Q 494.118 -47.024 494.246 -47.52 L 494.566 -48.736 Q 494.598 -48.864 494.662 -49.12 Q 494.726 -49.376 494.726 -49.616 Q 494.726 -49.824 494.646 -49.968 Q 494.566 -50.112 494.342 -50.112 Q 494.15 -50.112 493.878 -50.088 Q 493.606 -50.064 493.606 -50.064 L 493.606 -50.512 Z " fill="black" /><path d="M 503.311 -45.144 L 503.311 -45.144 Q 504.465 -45.144 505.131 -44.427 Q 505.798 -43.71 505.798 -42.467 Q 505.798 -41.526 505.478 -40.888 Q 505.159 -40.25 504.599 -39.925 Q 504.039 -39.6 503.311 -39.6 Q 502.135 -39.6 501.469 -40.334 Q 500.802 -41.067 500.802 -42.422 Q 500.802 -43.24 501.116 -43.85 Q 501.43 -44.461 501.995 -44.802 Q 502.561 -45.144 503.311 -45.144 Z M 503.266 -44.718 L 503.266 -44.718 Q 502.628 -44.718 502.236 -44.181 Q 501.844 -43.643 501.844 -42.568 Q 501.844 -41.235 502.242 -40.636 Q 502.639 -40.037 503.356 -40.048 Q 503.815 -40.048 504.129 -40.261 Q 504.442 -40.474 504.605 -40.989 Q 504.767 -41.504 504.767 -42.411 Q 504.767 -43.442 504.392 -44.08 Q 504.017 -44.718 503.266 -44.718 Z " fill="black" /><path d="M 512.226 -40.216 L 512.226 -40.216 L 512.226 -39.914 L 510.804 -39.656 L 510.558 -39.656 L 510.558 -40.518 L 510.502 -40.518 Q 510.054 -40.082 509.628 -39.841 Q 509.202 -39.6 508.665 -39.6 Q 507.97 -39.6 507.584 -40.054 Q 507.198 -40.507 507.198 -41.65 L 507.198 -43.923 Q 507.198 -44.382 507.046 -44.478 Q 506.895 -44.573 506.436 -44.584 L 506.436 -44.898 L 507.881 -45.066 L 508.127 -45.066 L 508.127 -41.795 Q 508.127 -40.944 508.413 -40.63 Q 508.698 -40.317 509.135 -40.317 Q 509.561 -40.317 509.869 -40.507 Q 510.177 -40.698 510.513 -40.989 L 510.513 -43.934 Q 510.513 -44.382 510.328 -44.483 Q 510.143 -44.584 509.606 -44.584 L 509.606 -44.898 L 511.174 -45.066 L 511.442 -45.066 L 511.442 -40.955 Q 511.442 -40.462 511.577 -40.339 Q 511.711 -40.216 512.114 -40.216 Z " fill="black" /><path d="M 515.844 -40.72 L 515.844 -40.72 L 516.057 -40.541 Q 515.844 -40.238 515.659 -40.031 Q 515.474 -39.824 515.25 -39.712 Q 515.026 -39.6 514.668 -39.6 Q 514.108 -39.6 513.85 -39.93 Q 513.593 -40.261 513.593 -41.011 L 513.593 -44.483 L 512.977 -44.483 L 512.977 -44.741 Q 513.369 -44.987 513.654 -45.407 Q 513.94 -45.827 514.242 -46.544 L 514.534 -46.544 L 514.522 -44.954 L 515.788 -44.954 L 515.788 -44.483 L 514.522 -44.483 L 514.522 -41.325 Q 514.522 -40.731 514.629 -40.496 Q 514.735 -40.261 515.06 -40.261 Q 515.329 -40.261 515.48 -40.373 Q 515.631 -40.485 515.844 -40.72 Z " fill="black" /></g></g></g><g><g><g><path d="M 610.683 67.968 L 610.683 67.968 L 609.483 73.664 Q 609.483 73.664 609.443 73.912 Q 609.403 74.16 609.403 74.336 Q 609.403 74.64 609.691 74.64 Q 610.107 74.64 610.427 74.328 Q 610.747 74.016 610.939 73.808 L 611.259 74.048 Q 610.987 74.432 610.667 74.824 Q 610.347 75.216 609.947 75.472 Q 609.547 75.728 609.019 75.728 Q 608.011 75.728 608.011 74.88 Q 608.011 74.672 608.067 74.344 Q 608.123 74.016 608.283 73.312 L 609.099 69.504 Q 609.099 69.504 609.123 69.36 Q 609.147 69.216 609.147 69.008 Q 609.147 68.848 609.051 68.696 Q 608.955 68.544 608.635 68.544 Q 608.427 68.544 608.259 68.56 Q 608.091 68.576 608.091 68.576 L 608.091 68.144 L 610.331 67.968 Z M 611.067 65.824 L 611.067 65.824 Q 611.067 66.224 610.811 66.456 Q 610.555 66.688 610.187 66.688 Q 609.835 66.688 609.595 66.464 Q 609.355 66.24 609.355 65.824 Q 609.355 65.408 609.595 65.176 Q 609.835 64.944 610.235 64.944 Q 610.635 64.944 610.851 65.184 Q 611.067 65.424 611.067 65.824 Z " fill="black" /><path d="M 614.453 73.512 L 614.453 73.512 Q 615.606 73.512 616.273 74.229 Q 616.939 74.946 616.939 76.189 Q 616.939 77.13 616.62 77.768 Q 616.301 78.406 615.741 78.731 Q 615.181 79.056 614.453 79.056 Q 613.277 79.056 612.61 78.322 Q 611.944 77.589 611.944 76.234 Q 611.944 75.416 612.258 74.806 Q 612.571 74.195 613.137 73.854 Q 613.702 73.512 614.453 73.512 Z M 614.408 73.938 L 614.408 73.938 Q 613.77 73.938 613.378 74.475 Q 612.986 75.013 612.986 76.088 Q 612.986 77.421 613.383 78.02 Q 613.781 78.619 614.498 78.608 Q 614.957 78.608 615.27 78.395 Q 615.584 78.182 615.746 77.667 Q 615.909 77.152 615.909 76.245 Q 615.909 75.214 615.534 74.576 Q 615.158 73.938 614.408 73.938 Z " fill="black" /><path d="M 623.368 78.44 L 623.368 78.44 L 623.368 78.742 L 621.946 79 L 621.699 79 L 621.699 78.138 L 621.643 78.138 Q 621.195 78.574 620.77 78.815 Q 620.344 79.056 619.806 79.056 Q 619.112 79.056 618.726 78.602 Q 618.339 78.149 618.339 77.006 L 618.339 74.733 Q 618.339 74.274 618.188 74.178 Q 618.037 74.083 617.578 74.072 L 617.578 73.758 L 619.022 73.59 L 619.269 73.59 L 619.269 76.861 Q 619.269 77.712 619.554 78.026 Q 619.84 78.339 620.277 78.339 Q 620.702 78.339 621.01 78.149 Q 621.318 77.958 621.654 77.667 L 621.654 74.722 Q 621.654 74.274 621.47 74.173 Q 621.285 74.072 620.747 74.072 L 620.747 73.758 L 622.315 73.59 L 622.584 73.59 L 622.584 77.701 Q 622.584 78.194 622.718 78.317 Q 622.853 78.44 623.256 78.44 Z " fill="black" /><path d="M 626.986 77.936 L 626.986 77.936 L 627.198 78.115 Q 626.986 78.418 626.801 78.625 Q 626.616 78.832 626.392 78.944 Q 626.168 79.056 625.81 79.056 Q 625.25 79.056 624.992 78.726 Q 624.734 78.395 624.734 77.645 L 624.734 74.173 L 624.118 74.173 L 624.118 73.915 Q 624.51 73.669 624.796 73.249 Q 625.082 72.829 625.384 72.112 L 625.675 72.112 L 625.664 73.702 L 626.93 73.702 L 626.93 74.173 L 625.664 74.173 L 625.664 77.331 Q 625.664 77.925 625.77 78.16 Q 625.877 78.395 626.202 78.395 Q 626.47 78.395 626.622 78.283 Q 626.773 78.171 626.986 77.936 Z " fill="black" /></g></g></g><circle cx="504.0" cy="72.0" r="2.6999999999999997" style="stroke:black;fill:white;stroke-width:2.0;" /><circle cx="432.0" cy="72.0" r="2.6999999999999997" style="stroke:black;fill:black;stroke-width:2.0;" /><g><g><g><rect x="501.84" y="49.328" width="4.32" height="1.088" fill="black" /></g></g></g><g><g><g><path d="M 496.098 29.22 L 496.098 29.22 L 496.45 29.22 L 495.698 32.292 Q 495.586 32.708 495.466 33.292 Q 495.346 33.876 495.346 34.42 Q 495.346 35.044 495.602 35.5 Q 495.858 35.956 496.594 35.956 Q 497.41 35.956 498.002 35.564 Q 498.594 35.172 498.97 34.564 Q 499.346 33.956 499.53 33.284 Q 499.714 32.612 499.714 32.052 Q 499.714 31.636 499.57 31.332 Q 499.426 31.028 499.226 30.788 Q 499.026 30.548 498.882 30.324 Q 498.738 30.1 498.738 29.844 Q 498.738 29.524 498.914 29.348 Q 499.09 29.172 499.346 29.172 Q 499.89 29.172 500.226 29.716 Q 500.562 30.26 500.562 31.108 Q 500.562 31.844 500.378 32.652 Q 500.194 33.46 499.826 34.228 Q 499.458 34.996 498.914 35.62 Q 498.37 36.244 497.666 36.612 Q 496.962 36.98 496.098 36.98 Q 495.298 36.98 494.85 36.66 Q 494.402 36.34 494.218 35.812 Q 494.034 35.284 494.034 34.676 Q 494.034 34.1 494.146 33.492 Q 494.258 32.884 494.386 32.388 L 494.706 31.172 Q 494.738 31.044 494.802 30.788 Q 494.866 30.532 494.866 30.292 Q 494.866 30.084 494.786 29.94 Q 494.706 29.796 494.482 29.796 Q 494.29 29.796 494.018 29.82 Q 493.746 29.844 493.746 29.844 L 493.746 29.396 Z " fill="black" /><path d="M 501.995 38.135 L 501.995 38.135 L 501.995 38.113 Q 501.592 37.878 501.362 37.508 Q 501.133 37.138 501.133 36.59 Q 501.133 35.75 501.704 35.257 Q 502.275 34.764 503.16 34.764 Q 503.53 34.764 503.81 34.831 Q 504.09 34.898 504.246 34.971 Q 504.403 35.044 504.403 35.044 L 505.848 34.966 L 505.848 35.57 L 504.795 35.537 L 504.795 35.593 Q 504.918 35.761 505.058 36.041 Q 505.198 36.321 505.198 36.746 Q 505.198 37.53 504.65 37.99 Q 504.101 38.449 503.216 38.449 Q 502.947 38.449 502.712 38.404 Q 502.477 38.359 502.253 38.281 Q 502.174 38.393 502.068 38.639 Q 501.962 38.886 501.962 39.031 Q 501.962 39.278 502.236 39.378 Q 502.51 39.479 503.283 39.479 Q 503.989 39.479 504.554 39.546 Q 505.12 39.614 505.445 39.894 Q 505.77 40.174 505.77 40.812 Q 505.77 41.372 505.495 41.758 Q 505.221 42.145 504.767 42.38 Q 504.314 42.615 503.77 42.722 Q 503.227 42.828 502.701 42.828 Q 501.973 42.828 501.553 42.649 Q 501.133 42.47 500.965 42.184 Q 500.797 41.898 500.797 41.596 Q 500.797 41.316 501.026 41.008 Q 501.256 40.7 501.704 40.263 L 501.704 40.218 Q 501.424 40.073 501.25 39.86 Q 501.077 39.647 501.077 39.412 Q 501.077 39.11 501.34 38.774 Q 501.603 38.438 501.995 38.135 Z M 501.984 40.308 L 501.984 40.308 Q 501.805 40.622 501.738 40.829 Q 501.67 41.036 501.67 41.215 Q 501.67 42.19 503.35 42.19 Q 504.011 42.19 504.42 42.022 Q 504.829 41.854 505.014 41.607 Q 505.198 41.361 505.198 41.126 Q 505.198 40.834 505.019 40.672 Q 504.84 40.51 504.554 40.442 Q 504.269 40.375 503.95 40.353 Q 503.63 40.33 503.35 40.33 Q 503.283 40.33 503.25 40.33 Q 502.802 40.319 502.555 40.319 Q 502.309 40.319 502.186 40.314 Q 502.062 40.308 501.984 40.308 Z M 503.082 35.167 L 503.082 35.167 Q 502.645 35.167 502.382 35.503 Q 502.118 35.839 502.118 36.545 Q 502.118 37.262 502.398 37.659 Q 502.678 38.057 503.227 38.057 Q 503.653 38.057 503.927 37.766 Q 504.202 37.474 504.202 36.679 Q 504.202 35.996 503.91 35.582 Q 503.619 35.167 503.082 35.167 Z " fill="black" /><path d="M 506.419 38.359 L 506.419 38.359 L 506.71 38.359 Q 506.89 39.222 507.237 39.563 Q 507.584 39.905 508.2 39.905 Q 508.626 39.905 508.894 39.731 Q 509.163 39.558 509.163 39.166 Q 509.163 38.897 509.068 38.718 Q 508.973 38.538 508.704 38.354 Q 508.435 38.169 507.909 37.911 Q 507.147 37.519 506.789 37.155 Q 506.43 36.791 506.43 36.175 Q 506.43 35.481 506.929 35.122 Q 507.427 34.764 508.144 34.764 Q 508.57 34.764 508.838 34.859 Q 509.107 34.954 509.32 35.055 L 509.331 35.055 L 509.522 34.82 L 509.746 34.82 L 509.779 36.534 L 509.477 36.534 Q 509.298 35.738 508.973 35.442 Q 508.648 35.145 508.133 35.145 Q 507.752 35.145 507.489 35.324 Q 507.226 35.503 507.226 35.884 Q 507.226 36.209 507.528 36.466 Q 507.83 36.724 508.536 37.082 Q 509.298 37.486 509.701 37.861 Q 510.104 38.236 510.104 38.863 Q 510.104 39.39 509.846 39.709 Q 509.589 40.028 509.158 40.174 Q 508.726 40.319 508.222 40.319 Q 507.741 40.319 507.455 40.218 Q 507.17 40.118 506.946 40.028 L 506.923 40.028 L 506.688 40.286 L 506.453 40.286 Z " fill="black" /><path d="M 515.603 38.404 L 515.603 38.404 L 515.245 40.196 L 510.832 40.196 L 510.832 39.815 L 512.534 38.113 Q 513.094 37.542 513.464 37.077 Q 513.834 36.612 514.018 36.142 Q 514.203 35.671 514.203 35.089 Q 514.203 34.462 513.828 34.086 Q 513.453 33.711 512.803 33.711 Q 512.254 33.711 511.868 33.946 Q 511.482 34.182 511.168 34.809 L 510.899 34.697 Q 511.157 33.879 511.717 33.431 Q 512.277 32.983 513.094 32.983 Q 513.733 32.983 514.214 33.224 Q 514.696 33.465 514.97 33.896 Q 515.245 34.327 515.245 34.921 Q 515.245 35.414 515.038 35.867 Q 514.83 36.321 514.422 36.802 Q 514.013 37.284 513.419 37.889 L 511.941 39.289 L 511.941 39.345 L 512.725 39.311 L 514.282 39.311 Q 514.73 39.311 514.909 39.11 Q 515.088 38.908 515.278 38.404 Z " fill="black" /></g></g></g><g><g><g><path d="M 509.264 18.544 L 509.264 18.544 L 505.072 18.544 L 505.072 22.784 L 503.92 22.784 L 503.92 18.544 L 499.728 18.544 L 499.728 17.456 L 503.92 17.456 L 503.92 13.216 L 505.072 13.216 L 505.072 17.456 L 509.264 17.456 Z " fill="black" /></g></g></g><circle cx="540.0" cy="-0.0" r="2.6999999999999997" style="stroke:black;fill:white;stroke-width:2.0;" /><circle cx="504.0" cy="-0.0" r="2.6999999999999997" style="stroke:black;fill:white;stroke-width:2.0;" /><g><g><g><path d="M 549.5 -6.203 L 549.5 -6.203 L 549.852 -6.203 L 549.1 -3.131 Q 548.988 -2.715 548.868 -2.131 Q 548.748 -1.547 548.748 -1.003 Q 548.748 -0.379 549.004 0.077 Q 549.26 0.533 549.996 0.533 Q 550.812 0.533 551.404 0.141 Q 551.996 -0.251 552.372 -0.859 Q 552.748 -1.467 552.932 -2.139 Q 553.116 -2.811 553.116 -3.371 Q 553.116 -3.787 552.972 -4.091 Q 552.828 -4.395 552.628 -4.635 Q 552.428 -4.875 552.284 -5.099 Q 552.14 -5.323 552.14 -5.579 Q 552.14 -5.899 552.316 -6.075 Q 552.492 -6.251 552.748 -6.251 Q 553.292 -6.251 553.628 -5.707 Q 553.964 -5.163 553.964 -4.315 Q 553.964 -3.579 553.78 -2.771 Q 553.596 -1.963 553.228 -1.195 Q 552.86 -0.427 552.316 0.197 Q 551.772 0.821 551.068 1.189 Q 550.364 1.557 549.5 1.557 Q 548.7 1.557 548.252 1.237 Q 547.804 0.917 547.62 0.389 Q 547.436 -0.139 547.436 -0.747 Q 547.436 -1.323 547.548 -1.931 Q 547.66 -2.539 547.788 -3.035 L 548.108 -4.251 Q 548.14 -4.379 548.204 -4.635 Q 548.268 -4.891 548.268 -5.131 Q 548.268 -5.339 548.188 -5.483 Q 548.108 -5.627 547.884 -5.627 Q 547.692 -5.627 547.42 -5.603 Q 547.148 -5.579 547.148 -5.579 L 547.148 -6.027 Z " fill="black" /><path d="M 557.738 4.459 L 557.738 4.459 L 557.738 4.773 L 555.218 4.773 L 555.218 4.459 Q 555.599 4.459 555.762 4.386 Q 555.924 4.314 555.963 4.134 Q 556.002 3.955 556.002 3.642 L 556.002 0.517 Q 556.002 0.158 555.879 0.074 Q 555.756 -0.01 555.51 -0.01 Q 555.398 -0.01 555.314 0.002 Q 555.23 0.013 555.23 0.013 L 555.23 -0.312 L 556.641 -0.626 L 556.932 -0.626 L 556.932 3.642 Q 556.932 3.966 556.977 4.146 Q 557.022 4.325 557.195 4.392 Q 557.369 4.459 557.738 4.459 Z M 556.484 -2.765 L 556.484 -2.765 Q 556.775 -2.765 556.949 -2.58 Q 557.122 -2.395 557.122 -2.138 Q 557.122 -1.88 556.949 -1.69 Q 556.775 -1.499 556.484 -1.499 Q 556.204 -1.499 556.025 -1.69 Q 555.846 -1.88 555.846 -2.138 Q 555.846 -2.395 556.019 -2.58 Q 556.193 -2.765 556.484 -2.765 Z " fill="black" /><path d="M 563.439 1.334 L 563.439 1.334 L 563.439 3.642 Q 563.439 3.955 563.49 4.134 Q 563.54 4.314 563.719 4.386 Q 563.898 4.459 564.268 4.459 L 564.268 4.773 L 561.681 4.773 L 561.681 4.459 Q 562.084 4.459 562.258 4.386 Q 562.431 4.314 562.47 4.134 Q 562.51 3.955 562.51 3.642 L 562.51 1.614 Q 562.51 0.942 562.358 0.606 Q 562.207 0.27 561.972 0.164 Q 561.737 0.058 561.479 0.058 Q 561.031 0.058 560.706 0.298 Q 560.382 0.539 560.124 0.763 L 560.124 3.642 Q 560.124 3.955 560.169 4.134 Q 560.214 4.314 560.393 4.386 Q 560.572 4.459 560.975 4.459 L 560.975 4.773 L 558.41 4.773 L 558.41 4.459 Q 558.791 4.459 558.954 4.386 Q 559.116 4.314 559.155 4.134 Q 559.194 3.955 559.194 3.642 L 559.194 0.494 Q 559.194 0.192 559.071 0.097 Q 558.948 0.002 558.724 0.002 Q 558.578 0.002 558.5 0.013 Q 558.422 0.024 558.422 0.024 L 558.422 -0.301 L 559.844 -0.626 L 560.102 -0.626 L 560.09 0.282 L 560.135 0.282 Q 560.594 -0.122 561.003 -0.39 Q 561.412 -0.659 561.938 -0.659 Q 562.7 -0.659 563.07 -0.144 Q 563.439 0.371 563.439 1.334 Z " fill="black" /><path d="M 565.287 6.251 L 565.287 6.251 L 565.153 5.971 Q 565.366 5.882 565.578 5.742 Q 565.791 5.602 565.937 5.333 Q 566.082 5.064 566.082 4.616 Q 565.903 4.683 565.735 4.683 Q 565.41 4.683 565.265 4.504 Q 565.119 4.325 565.119 4.078 Q 565.119 3.81 565.298 3.614 Q 565.478 3.418 565.814 3.418 Q 566.239 3.418 566.458 3.681 Q 566.676 3.944 566.676 4.403 Q 566.676 4.874 566.525 5.198 Q 566.374 5.523 566.15 5.725 Q 565.926 5.926 565.69 6.05 Q 565.455 6.173 565.287 6.251 Z " fill="black" /><path d="M 572.063 1.334 L 572.063 1.334 L 572.063 3.642 Q 572.063 3.955 572.114 4.134 Q 572.164 4.314 572.343 4.386 Q 572.522 4.459 572.892 4.459 L 572.892 4.773 L 570.305 4.773 L 570.305 4.459 Q 570.708 4.459 570.882 4.386 Q 571.055 4.314 571.094 4.134 Q 571.134 3.955 571.134 3.642 L 571.134 1.614 Q 571.134 0.942 570.982 0.606 Q 570.831 0.27 570.596 0.164 Q 570.361 0.058 570.103 0.058 Q 569.655 0.058 569.33 0.298 Q 569.006 0.539 568.748 0.763 L 568.748 3.642 Q 568.748 3.955 568.793 4.134 Q 568.838 4.314 569.017 4.386 Q 569.196 4.459 569.599 4.459 L 569.599 4.773 L 567.034 4.773 L 567.034 4.459 Q 567.415 4.459 567.578 4.386 Q 567.74 4.314 567.779 4.134 Q 567.818 3.955 567.818 3.642 L 567.818 0.494 Q 567.818 0.192 567.695 0.097 Q 567.572 0.002 567.348 0.002 Q 567.202 0.002 567.124 0.013 Q 567.046 0.024 567.046 0.024 L 567.046 -0.301 L 568.468 -0.626 L 568.726 -0.626 L 568.714 0.282 L 568.759 0.282 Q 569.218 -0.122 569.627 -0.39 Q 570.036 -0.659 570.562 -0.659 Q 571.324 -0.659 571.694 -0.144 Q 572.063 0.371 572.063 1.334 Z " fill="black" /></g></g></g><circle cx="-1.5987211554602254e-14" cy="-72.00000000000001" r="2.6999999999999997" style="stroke:black;fill:white;stroke-width:2.0;" /><g><g><g><path d="M 5.264 -89.456 L 5.264 -89.456 L 1.072 -89.456 L 1.072 -85.216 L -0.08 -85.216 L -0.08 -89.456 L -4.272 -89.456 L -4.272 -90.544 L -0.08 -90.544 L -0.08 -94.784 L 1.072 -94.784 L 1.072 -90.544 L 5.264 -90.544 Z " fill="black" /></g></g></g><g><g><g><path d="M -10.674 -114.78 L -10.674 -114.78 L -10.322 -114.78 L -11.074 -111.708 Q -11.186 -111.292 -11.306 -110.708 Q -11.426 -110.124 -11.426 -109.58 Q -11.426 -108.956 -11.17 -108.5 Q -10.914 -108.044 -10.178 -108.044 Q -9.362 -108.044 -8.77 -108.436 Q -8.178 -108.828 -7.802 -109.436 Q -7.426 -110.044 -7.242 -110.716 Q -7.058 -111.388 -7.058 -111.948 Q -7.058 -112.364 -7.202 -112.668 Q -7.346 -112.972 -7.546 -113.212 Q -7.746 -113.452 -7.89 -113.676 Q -8.034 -113.9 -8.034 -114.156 Q -8.034 -114.476 -7.858 -114.652 Q -7.682 -114.828 -7.426 -114.828 Q -6.882 -114.828 -6.546 -114.284 Q -6.21 -113.74 -6.21 -112.892 Q -6.21 -112.156 -6.394 -111.348 Q -6.578 -110.54 -6.946 -109.772 Q -7.314 -109.004 -7.858 -108.38 Q -8.402 -107.756 -9.106 -107.388 Q -9.81 -107.02 -10.674 -107.02 Q -11.474 -107.02 -11.922 -107.34 Q -12.37 -107.66 -12.554 -108.188 Q -12.738 -108.716 -12.738 -109.324 Q -12.738 -109.9 -12.626 -110.508 Q -12.514 -111.116 -12.386 -111.612 L -12.066 -112.828 Q -12.034 -112.956 -11.97 -113.212 Q -11.906 -113.468 -11.906 -113.708 Q -11.906 -113.916 -11.986 -114.06 Q -12.066 -114.204 -12.29 -114.204 Q -12.482 -114.204 -12.754 -114.18 Q -13.026 -114.156 -13.026 -114.156 L -13.026 -114.604 Z " fill="black" /><path d="M -4.777 -105.865 L -4.777 -105.865 L -4.777 -105.887 Q -5.18 -106.122 -5.41 -106.492 Q -5.639 -106.862 -5.639 -107.41 Q -5.639 -108.25 -5.068 -108.743 Q -4.497 -109.236 -3.612 -109.236 Q -3.242 -109.236 -2.962 -109.169 Q -2.682 -109.102 -2.526 -109.029 Q -2.369 -108.956 -2.369 -108.956 L -0.924 -109.034 L -0.924 -108.43 L -1.977 -108.463 L -1.977 -108.407 Q -1.854 -108.239 -1.714 -107.959 Q -1.574 -107.679 -1.574 -107.254 Q -1.574 -106.47 -2.122 -106.01 Q -2.671 -105.551 -3.556 -105.551 Q -3.825 -105.551 -4.06 -105.596 Q -4.295 -105.641 -4.519 -105.719 Q -4.598 -105.607 -4.704 -105.361 Q -4.81 -105.114 -4.81 -104.969 Q -4.81 -104.722 -4.536 -104.622 Q -4.262 -104.521 -3.489 -104.521 Q -2.783 -104.521 -2.218 -104.454 Q -1.652 -104.386 -1.327 -104.106 Q -1.002 -103.826 -1.002 -103.188 Q -1.002 -102.628 -1.277 -102.242 Q -1.551 -101.855 -2.005 -101.62 Q -2.458 -101.385 -3.002 -101.278 Q -3.545 -101.172 -4.071 -101.172 Q -4.799 -101.172 -5.219 -101.351 Q -5.639 -101.53 -5.807 -101.816 Q -5.975 -102.102 -5.975 -102.404 Q -5.975 -102.684 -5.746 -102.992 Q -5.516 -103.3 -5.068 -103.737 L -5.068 -103.782 Q -5.348 -103.927 -5.522 -104.14 Q -5.695 -104.353 -5.695 -104.588 Q -5.695 -104.89 -5.432 -105.226 Q -5.169 -105.562 -4.777 -105.865 Z M -4.788 -103.692 L -4.788 -103.692 Q -4.967 -103.378 -5.034 -103.171 Q -5.102 -102.964 -5.102 -102.785 Q -5.102 -101.81 -3.422 -101.81 Q -2.761 -101.81 -2.352 -101.978 Q -1.943 -102.146 -1.758 -102.393 Q -1.574 -102.639 -1.574 -102.874 Q -1.574 -103.166 -1.753 -103.328 Q -1.932 -103.49 -2.218 -103.558 Q -2.503 -103.625 -2.822 -103.647 Q -3.142 -103.67 -3.422 -103.67 Q -3.489 -103.67 -3.522 -103.67 Q -3.97 -103.681 -4.217 -103.681 Q -4.463 -103.681 -4.586 -103.686 Q -4.71 -103.692 -4.788 -103.692 Z M -3.69 -108.833 L -3.69 -108.833 Q -4.127 -108.833 -4.39 -108.497 Q -4.654 -108.161 -4.654 -107.455 Q -4.654 -106.738 -4.374 -106.341 Q -4.094 -105.943 -3.545 -105.943 Q -3.119 -105.943 -2.845 -106.234 Q -2.57 -106.526 -2.57 -107.321 Q -2.57 -108.004 -2.862 -108.418 Q -3.153 -108.833 -3.69 -108.833 Z " fill="black" /><path d="M -0.353 -105.641 L -0.353 -105.641 L -0.062 -105.641 Q 0.118 -104.778 0.465 -104.437 Q 0.812 -104.095 1.428 -104.095 Q 1.854 -104.095 2.122 -104.269 Q 2.391 -104.442 2.391 -104.834 Q 2.391 -105.103 2.296 -105.282 Q 2.201 -105.462 1.932 -105.646 Q 1.663 -105.831 1.137 -106.089 Q 0.375 -106.481 0.017 -106.845 Q -0.342 -107.209 -0.342 -107.825 Q -0.342 -108.519 0.157 -108.878 Q 0.655 -109.236 1.372 -109.236 Q 1.798 -109.236 2.066 -109.141 Q 2.335 -109.046 2.548 -108.945 L 2.559 -108.945 L 2.75 -109.18 L 2.974 -109.18 L 3.007 -107.466 L 2.705 -107.466 Q 2.526 -108.262 2.201 -108.558 Q 1.876 -108.855 1.361 -108.855 Q 0.98 -108.855 0.717 -108.676 Q 0.454 -108.497 0.454 -108.116 Q 0.454 -107.791 0.756 -107.534 Q 1.058 -107.276 1.764 -106.918 Q 2.526 -106.514 2.929 -106.139 Q 3.332 -105.764 3.332 -105.137 Q 3.332 -104.61 3.074 -104.291 Q 2.817 -103.972 2.386 -103.826 Q 1.954 -103.681 1.45 -103.681 Q 0.969 -103.681 0.683 -103.782 Q 0.398 -103.882 0.174 -103.972 L 0.151 -103.972 L -0.084 -103.714 L -0.319 -103.714 Z " fill="black" /><path d="M 4.598 -109.382 L 4.598 -109.382 L 4.34 -109.527 Q 4.978 -111.017 6.367 -111.017 Q 7.23 -111.017 7.7 -110.586 Q 8.17 -110.154 8.17 -109.516 Q 8.17 -108.934 7.829 -108.575 Q 7.487 -108.217 6.961 -107.881 L 6.961 -107.847 Q 7.409 -107.713 7.784 -107.461 Q 8.159 -107.209 8.383 -106.845 Q 8.607 -106.481 8.607 -105.977 Q 8.607 -105.215 8.182 -104.694 Q 7.756 -104.174 7.062 -103.916 Q 6.367 -103.658 5.55 -103.658 Q 5.046 -103.658 4.777 -103.754 Q 4.508 -103.849 4.402 -103.989 Q 4.295 -104.129 4.295 -104.274 Q 4.295 -104.454 4.407 -104.61 Q 4.519 -104.767 4.732 -104.767 Q 4.866 -104.767 4.984 -104.717 Q 5.102 -104.666 5.393 -104.51 Q 5.751 -104.33 5.925 -104.274 Q 6.098 -104.218 6.3 -104.218 Q 6.658 -104.218 6.972 -104.347 Q 7.286 -104.476 7.487 -104.784 Q 7.689 -105.092 7.689 -105.641 Q 7.689 -106.145 7.409 -106.514 Q 7.129 -106.884 6.664 -107.091 Q 6.199 -107.298 5.662 -107.298 L 5.438 -107.298 L 5.438 -107.724 L 5.65 -107.724 Q 6.031 -107.724 6.39 -107.914 Q 6.748 -108.105 6.978 -108.452 Q 7.207 -108.799 7.207 -109.247 Q 7.207 -109.74 6.899 -110.014 Q 6.591 -110.289 6.065 -110.289 Q 5.561 -110.289 5.225 -110.059 Q 4.889 -109.83 4.598 -109.382 Z " fill="black" /><path d="M 14.566 -105.574 L 14.566 -105.574 L 13.423 -105.574 L 13.423 -103.804 L 12.426 -103.804 L 12.426 -105.574 L 9.324 -105.574 L 9.324 -106.279 L 12.74 -111.028 L 13.423 -111.028 L 13.423 -106.346 L 14.566 -106.346 Z M 12.426 -106.346 L 12.426 -106.346 L 12.426 -109.807 L 12.382 -109.807 L 9.94 -106.391 L 9.94 -106.346 Z " fill="black" /></g></g></g><g><g><g><rect x="-2.16" y="-130.672" width="4.32" height="1.088" fill="black" /></g></g></g><circle cx="-1.1578483077671783e-14" cy="-144.0" r="2.6999999999999997" style="stroke:black;fill:white;stroke-width:2.0;" /></svg>