<svg xmlns="http://www.w3.org/2000/svg" xml:lang="en" height="352.63999999999993pt" width="613.9495999999999pt" viewBox="-222.50879999999998 -114.99999999999999 613.9495999999999 352.63999999999993"><circle cx="-174.00000000000003" cy="-12.000000000000053" r="18.0" style="stroke:black;fill:none;stroke-width:2.0;" /><path d="M 0.0,59.99999999999999 L 0.0,45.0 L -14.999999999999998,45.0 L -14.999999999999998,14.999999999999998 L 0.0,14.999999999999998 L 0.0,-0.0" style="stroke:black;fill:none;stroke-width:2.0;stroke-linecap:round;stroke-linejoin:round;" /><path d="M -9.0,45.0 L -14.999999999999998,45.0" style="stroke:black;fill:none;stroke-width:2.0;stroke-linecap:round;stroke-linejoin:round;" /><path d="M -2.0 45.0 L -9.0 49.5 L -9.0 40.5 Z" style="stroke:black;fill:black;stroke-linecap:butt;stroke-linejoin:miter;" /><path d="M -17.999999999999996,42.0 L -17.999999999999996,17.999999999999996" style="stroke:black;fill:none;stroke-width:2.0;stroke-linecap:round;stroke-linejoin:round;" /><path d="M -32.99999999999999,29.999999999999996 L -17.999999999999996,29.999999999999996" style="stroke:black;fill:none;stroke-width:2.0;stroke-linecap:round;stroke-linejoin:round;" /><path d="M 0.0,59.99999999999999 L -1.6532731788489267e-15,69.0 L -3.3065463576978533e-15,78.0" style="stroke:black;fill:none;stroke-width:2.0;stroke-linecap:round;stroke-linejoin:round;" /><path d="M -3.3065463576978533e-15,78.0 L 26.999999999999996,78.0 L 54.0,78.0" style="stroke:black;fill:none;stroke-width:2.0;stroke-linecap:round;stroke-linejoin:round;" /><path d="M 54.0,78.0 L 53.99999999999999,114.0 L 53.999999999999986,149.99999999999997" style="stroke:black;fill:none;stroke-width:2.0;stroke-linecap:round;stroke-linejoin:round;" /><path d="M 53.999999999999986,209.99999999999994 L 53.999999999999986,194.99999999999997 L 38.999999999999986,194.99999999999997 L 38.999999999999986,165.0 L 53.999999999999986,165.0 L 53.999999999999986,149.99999999999997" style="stroke:black;fill:none;stroke-width:2.0;stroke-linecap:round;stroke-linejoin:round;" /><path d="M 44.999999999999986,194.99999999999997 L 38.999999999999986,194.99999999999997" style="stroke:black;fill:none;stroke-width:2.0;stroke-linecap:round;stroke-linejoin:round;" /><path d="M 51.999999999999986 194.99999999999997 L 44.999999999999986 199.49999999999997 L 44.999999999999986 190.49999999999997 Z" style="stroke:black;fill:black;stroke-linecap:butt;stroke-linejoin:miter;" /><path d="M 35.999999999999986,192.0 L 35.999999999999986,167.99999999999997" style="stroke:black;fill:none;stroke-width:2.0;stroke-linecap:round;stroke-linejoin:round;" /><path d="M 20.99999999999999,179.99999999999997 L 35.999999999999986,179.99999999999997" style="stroke:black;fill:none;stroke-width:2.0;stroke-linecap:round;stroke-linejoin:round;" /><path d="M 53.999999999999986,209.99999999999994 L 53.999999999999986,224.39999999999998 L 44.999999999999986,224.39999999999998 L 62.999999999999986,224.39999999999998 M 47.69999999999998,228.71999999999994 L 60.29999999999998,228.71999999999994 M 52.19999999999998,233.03999999999994 L 55.79999999999998,233.03999999999994" style="stroke:black;fill:none;stroke-width:2.0;stroke-linecap:round;stroke-linejoin:round;" /><path d="M 20.99999999999999,179.99999999999997 L -60.000000000000014,179.99999999999997 L -141.0,179.99999999999994" style="stroke:black;fill:none;stroke-width:2.0;stroke-linecap:round;stroke-linejoin:round;" /><path d="M -174.00000000000003,149.99999999999994 L -174.00000000000003,164.99999999999991 L -159.0,164.99999999999991 L -159.0,194.99999999999994 L -174.00000000000003,194.99999999999994 L -174.00000000000003,209.99999999999991" style="stroke:black;fill:none;stroke-width:2.0;stroke-linecap:round;stroke-linejoin:round;" /><path d="M -159.0,194.99999999999994 L -165.00000000000003,194.99999999999994" style="stroke:black;fill:none;stroke-width:2.0;stroke-linecap:round;stroke-linejoin:round;" /><path d="M -172.00000000000003 194.99999999999994 L -165.00000000000003 190.49999999999994 L -165.00000000000003 199.49999999999994 Z" style="stroke:black;fill:black;stroke-linecap:butt;stroke-linejoin:miter;" /><path d="M -156.00000000000003,167.99999999999994 L -156.00000000000003,191.99999999999994" style="stroke:black;fill:none;stroke-width:2.0;stroke-linecap:round;stroke-linejoin:round;" /><path d="M -156.00000000000003,179.99999999999994 L -141.0,179.99999999999994" style="stroke:black;fill:none;stroke-width:2.0;stroke-linecap:round;stroke-linejoin:round;" /><path d="M -174.00000000000003,209.99999999999991 L -174.00000000000003,224.39999999999995 L -183.00000000000003,224.39999999999995 L -165.00000000000003,224.39999999999995 M -180.3,228.71999999999994 L -167.70000000000002,228.71999999999994 M -175.8,233.0399999999999 L -172.20000000000002,233.0399999999999" style="stroke:black;fill:none;stroke-width:2.0;stroke-linecap:round;stroke-linejoin:round;" /><path d="M -174.00000000000003,149.99999999999994 L -174.00000000000003,86.99999999999994 L -174.00000000000003,23.999999999999947" style="stroke:black;fill:none;stroke-width:2.0;stroke-linecap:round;stroke-linejoin:round;" /><path d="M -174.00000000000003,23.999999999999947 L -174.00000000000003,5.999999999999947 L -174.00000000000003,5.999999999999947 M -174.00000000000003,-30.000000000000053 L -174.00000000000003,-30.000000000000053 L -174.00000000000003,-48.00000000000006" style="stroke:black;fill:none;stroke-width:2.0;stroke-linecap:round;stroke-linejoin:round;" /><path d="M -174.00000000000003,-12.000000000000053 L -174.00000000000003,-21.000000000000053" style="stroke:black;fill:none;stroke-width:2.0;stroke-linecap:round;stroke-linejoin:round;" /><path d="M -174.00000000000003 -5.000000000000053 L -176.70000000000002 -12.000000000000053 L -171.30000000000004 -12.000000000000053 Z" style="stroke:black;fill:black;stroke-linecap:butt;stroke-linejoin:miter;" /><path d="M -174.00000000000003,-48.00000000000006 L -174.00000000000003,-62.40000000000005" style="stroke:black;fill:none;stroke-width:2.0;stroke-linecap:round;stroke-linejoin:round;" /><path d="M -174.00000000000003,-62.40000000000005 L -180.75000000000003,-62.40000000000005" style="stroke:black;fill:none;stroke-width:2.0;stroke-linecap:round;stroke-linejoin:round;" /><path d="M -174.00000000000003,-62.40000000000005 L -167.25000000000003,-62.40000000000005" style="stroke:black;fill:none;stroke-width:2.0;stroke-linecap:round;stroke-linejoin:round;" /><path d="M -141.0,179.99999999999994 L -132.0,179.99999999999994 L -123.00000000000001,179.99999999999994" style="stroke:black;fill:none;stroke-width:2.0;stroke-linecap:round;stroke-linejoin:round;" /><path d="M -123.00000000000001,179.99999999999994 L -123.00000000000001,161.99999999999994 L -123.00000000000001,143.99999999999994" style="stroke:black;fill:none;stroke-width:2.0;stroke-linecap:round;stroke-linejoin:round;" /><path d="M -123.00000000000001,143.99999999999994 L -148.5,143.99999999999994 L -174.00000000000003,143.99999999999994" style="stroke:black;fill:none;stroke-width:2.0;stroke-linecap:round;stroke-linejoin:round;" /><path d="M 54.0,78.0 L 81.0,78.0 L 108.0,78.0" style="stroke:black;fill:none;stroke-width:2.0;stroke-linecap:round;stroke-linejoin:round;" /><path d="M 108.0,78.0 L 108.0,69.0 L 108.0,59.99999999999999" style="stroke:black;fill:none;stroke-width:2.0;stroke-linecap:round;stroke-linejoin:round;" /><path d="M 108.0,-0.0 L 108.0,14.999999999999995 L 123.0,14.999999999999995 L 123.0,45.0 L 108.0,45.0 L 108.0,59.99999999999999" style="stroke:black;fill:none;stroke-width:2.0;stroke-linecap:round;stroke-linejoin:round;" /><path d="M 123.0,45.0 L 117.0,45.0" style="stroke:black;fill:none;stroke-width:2.0;stroke-linecap:round;stroke-linejoin:round;" /><path d="M 110.0 45.0 L 117.0 40.5 L 117.0 49.5 Z" style="stroke:black;fill:black;stroke-linecap:butt;stroke-linejoin:miter;" /><path d="M 126.0,18.0 L 126.0,42.0" style="stroke:black;fill:none;stroke-width:2.0;stroke-linecap:round;stroke-linejoin:round;" /><path d="M 126.0,29.999999999999996 L 141.0,29.999999999999996" style="stroke:black;fill:none;stroke-width:2.0;stroke-linecap:round;stroke-linejoin:round;" /><path d="M 141.0,29.999999999999996 L 149.99999999999997,29.999999999999996 L 158.99999999999997,29.999999999999996" style="stroke:black;fill:none;stroke-width:2.0;stroke-linecap:round;stroke-linejoin:round;" /><path d="M 0.0,-0.0 L 5.51091059616309e-16,-9.0 L 1.102182119232618e-15,-18.0" style="stroke:black;fill:none;stroke-width:2.0;stroke-linecap:round;stroke-linejoin:round;" /><path d="M 1.102182119232618e-15,-18.0 L 1.6532731788489267e-15,-27.0 L 2.204364238465236e-15,-36.0" style="stroke:black;fill:none;stroke-width:2.0;stroke-linecap:round;stroke-linejoin:round;" /><path d="M 2.204364238465236e-15,-96.0 L 2.204364238465236e-15,-81.0 L 15.0,-81.0 L 15.0,-50.99999999999999 L 2.204364238465236e-15,-50.99999999999999 L 2.204364238465236e-15,-36.0" style="stroke:black;fill:none;stroke-width:2.0;stroke-linecap:round;stroke-linejoin:round;" /><path d="M 2.204364238465236e-15,-81.0 L 6.000000000000001,-81.0" style="stroke:black;fill:none;stroke-width:2.0;stroke-linecap:round;stroke-linejoin:round;" /><path d="M 13.0 -81.0 L 6.0 -76.5 L 6.0 -85.5 Z" style="stroke:black;fill:black;stroke-linecap:butt;stroke-linejoin:miter;" /><path d="M 18.0,-78.0 L 18.0,-53.99999999999999" style="stroke:black;fill:none;stroke-width:2.0;stroke-linecap:round;stroke-linejoin:round;" /><path d="M 18.0,-66.0 L 33.0,-66.0" style="stroke:black;fill:none;stroke-width:2.0;stroke-linecap:round;stroke-linejoin:round;" /><path d="M 2.204364238465236e-15,-96.0 L 2.204364238465236e-15,-110.39999999999999" style="stroke:black;fill:none;stroke-width:2.0;stroke-linecap:round;stroke-linejoin:round;" /><path d="M 2.204364238465236e-15,-110.39999999999999 L -6.749999999999998,-110.39999999999999" style="stroke:black;fill:none;stroke-width:2.0;stroke-linecap:round;stroke-linejoin:round;" /><path d="M 2.204364238465236e-15,-110.39999999999999 L 6.750000000000002,-110.39999999999999" style="stroke:black;fill:none;stroke-width:2.0;stroke-linecap:round;stroke-linejoin:round;" /><path d="M 108.0,-0.0 L 108.0,-9.0 L 108.0,-18.0" style="stroke:black;fill:none;stroke-width:2.0;stroke-linecap:round;stroke-linejoin:round;" /><path d="M 108.0,-18.0 L 171.0,-18.0 L 234.0,-18.0" style="stroke:black;fill:none;stroke-width:2.0;stroke-linecap:round;stroke-linejoin:round;" /><path d="M 234.0,-18.0 L 261.0,-18.0 L 288.0,-18.0" style="stroke:black;fill:none;stroke-width:2.0;stroke-linecap:round;stroke-linejoin:round;" /><path d="M 321.0,11.999999999999996 L 321.0,-2.9999999999999973 L 306.0,-2.9999999999999973 L 306.0,-33.0 L 321.0,-33.0 L 321.0,-48.0" style="stroke:black;fill:none;stroke-width:2.0;stroke-linecap:round;stroke-linejoin:round;" /><path d="M 315.0,-33.0 L 321.0,-33.0" style="stroke:black;fill:none;stroke-width:2.0;stroke-linecap:round;stroke-linejoin:round;" /><path d="M 308.0 -33.0 L 315.0 -37.5 L 315.0 -28.5 Z" style="stroke:black;fill:black;stroke-linecap:butt;stroke-linejoin:miter;" /><path d="M 303.0,-5.999999999999995 L 303.0,-29.999999999999996" style="stroke:black;fill:none;stroke-width:2.0;stroke-linecap:round;stroke-linejoin:round;" /><path d="M 288.0,-18.0 L 303.0,-18.0" style="stroke:black;fill:none;stroke-width:2.0;stroke-linecap:round;stroke-linejoin:round;" /><path d="M 321.0,11.999999999999996 L 321.0,29.999999999999996 L 321.0,48.0" style="stroke:black;fill:none;stroke-width:2.0;stroke-linecap:round;stroke-linejoin:round;" /><path d="M 321.0,48.0 L 321.0,66.0 L 330.0,69.0 L 312.0,74.99999999999999 L 330.0,81.0 L 312.0,87.0 L 330.0,92.99999999999999 L 312.0,99.0 L 321.0,101.99999999999999 L 321.0,119.99999999999999" style="stroke:black;fill:none;stroke-width:2.0;stroke-linecap:round;stroke-linejoin:round;" /><path d="M 321.0,119.99999999999999 L 321.0,138.0 L 330.0,141.0 L 312.0,147.0 L 330.0,153.0 L 312.0,158.99999999999997 L 330.0,165.0 L 312.0,171.0 L 321.0,174.0 L 321.0,192.0" style="stroke:black;fill:none;stroke-width:2.0;stroke-linecap:round;stroke-linejoin:round;" /><path d="M 321.0,192.0 L 321.0,206.4 L 312.0,206.4 L 330.0,206.4 M 314.69999999999993,210.72 L 327.3,210.72 M 319.19999999999993,215.03999999999996 L 322.8,215.03999999999996" style="stroke:black;fill:none;stroke-width:2.0;stroke-linecap:round;stroke-linejoin:round;" /><path d="M 108.0,-18.0 L 108.0,-27.0 L 108.0,-36.0" style="stroke:black;fill:none;stroke-width:2.0;stroke-linecap:round;stroke-linejoin:round;" /><path d="M 108.0,-36.0 L 108.0,-50.99999999999999 L 93.0,-50.99999999999999 L 93.0,-81.0 L 108.0,-81.0 L 108.0,-96.0" style="stroke:black;fill:none;stroke-width:2.0;stroke-linecap:round;stroke-linejoin:round;" /><path d="M 102.0,-81.0 L 108.0,-81.0" style="stroke:black;fill:none;stroke-width:2.0;stroke-linecap:round;stroke-linejoin:round;" /><path d="M 95.0 -81.0 L 102.0 -85.5 L 102.0 -76.5 Z" style="stroke:black;fill:black;stroke-linecap:butt;stroke-linejoin:miter;" /><path d="M 90.0,-53.99999999999999 L 90.0,-78.0" style="stroke:black;fill:none;stroke-width:2.0;stroke-linecap:round;stroke-linejoin:round;" /><path d="M 75.0,-66.0 L 90.0,-66.0" style="stroke:black;fill:none;stroke-width:2.0;stroke-linecap:round;stroke-linejoin:round;" /><path d="M 108.0,-96.0 L 108.0,-110.39999999999999" style="stroke:black;fill:none;stroke-width:2.0;stroke-linecap:round;stroke-linejoin:round;" /><path d="M 108.0,-110.39999999999999 L 101.25,-110.39999999999999" style="stroke:black;fill:none;stroke-width:2.0;stroke-linecap:round;stroke-linejoin:round;" /><path d="M 108.0,-110.39999999999999 L 114.75,-110.39999999999999" style="stroke:black;fill:none;stroke-width:2.0;stroke-linecap:round;stroke-linejoin:round;" /><path d="M 75.0,-66.0 L 54.0,-66.0 L 32.99999999999999,-66.0" style="stroke:black;fill:none;stroke-width:2.0;stroke-linecap:round;stroke-linejoin:round;" /><path d="M 321.0,-48.0 L 321.0,-72.0 L 321.0,-96.0" style="stroke:black;fill:none;stroke-width:2.0;stroke-linecap:round;stroke-linejoin:round;" /><path d="M 321.0,-96.0 L 321.0,-110.39999999999999" style="stroke:black;fill:none;stroke-width:2.0;stroke-linecap:round;stroke-linejoin:round;" /><path d="M 321.0,-110.39999999999999 L 314.25,-110.39999999999999" style="stroke:black;fill:none;stroke-width:2.0;stroke-linecap:round;stroke-linejoin:round;" /><path d="M 321.0,-110.39999999999999 L 327.75,-110.39999999999999" style="stroke:black;fill:none;stroke-width:2.0;stroke-linecap:round;stroke-linejoin:round;" /><path d="M 1.102182119232618e-15,-18.0 L 26.999999999999993,-18.0 L 53.999999999999986,-18.0" style="stroke:black;fill:none;stroke-width:2.0;stroke-linecap:round;stroke-linejoin:round;" /><path d="M 53.999999999999986,-18.0 L 53.999999999999986,-41.99999999999999 L 53.999999999999986,-66.0" style="stroke:black;fill:none;stroke-width:2.0;stroke-linecap:round;stroke-linejoin:round;" /><path d="M 234.0,-18.0 L 234.0,9.0 L 234.0,36.0" style="stroke:black;fill:none;stroke-width:2.0;stroke-linecap:round;stroke-linejoin:round;" /><path d="M 234.0,36.0 L 274.26,36.0 M 274.26,27.0 L 274.26,45.0 M 280.74,27.0 L 280.74,45.0 M 280.74,36.0 L 321.0,36.0" style="stroke:black;fill:none;stroke-width:2.0;stroke-linecap:round;stroke-linejoin:round;" /><path d="M 321.0,36.0 L 339.0,36.0 L 357.0,36.0" style="stroke:black;fill:none;stroke-width:2.0;stroke-linecap:round;stroke-linejoin:round;" /><path d="M 321.0,119.99999999999999 L 144.0,119.99999999999997 L -32.99999999999998,119.99999999999994" style="stroke:black;fill:none;stroke-width:2.0;stroke-linecap:round;stroke-linejoin:round;" /><path d="M -32.99999999999998,119.99999999999994 L -41.99999999999998,119.99999999999994 L -50.99999999999998,119.99999999999994" style="stroke:black;fill:none;stroke-width:2.0;stroke-linecap:round;stroke-linejoin:round;" /><path d="M -50.99999999999998,119.99999999999994 L -50.99999999999998,74.99999999999997 L -50.99999999999997,30.000000000000007" style="stroke:black;fill:none;stroke-width:2.0;stroke-linecap:round;stroke-linejoin:round;" /><path d="M -50.99999999999997,30.000000000000007 L -41.99999999999998,30.000000000000007 L -32.99999999999999,30.000000000000007" style="stroke:black;fill:none;stroke-width:2.0;stroke-linecap:round;stroke-linejoin:round;" /><g><g><g><path d="M 13.04 33.576 L 13.04 33.576 L 8.768 33.576 L 8.864 33.096 Q 9.456 33.096 9.768 32.984 Q 10.08 32.872 10.24 32.56 Q 10.4 32.248 10.512 31.672 L 11.936 24.76 L 11.872 24.76 L 6.496 33.576 L 6.144 33.576 L 4.208 24.776 L 4.144 24.776 L 2.816 31.24 Q 2.656 32.056 2.68 32.456 Q 2.704 32.856 2.992 32.976 Q 3.28 33.096 3.888 33.096 L 3.792 33.576 L 0.096 33.576 L 0.192 33.096 Q 0.816 33.096 1.152 32.976 Q 1.488 32.856 1.68 32.456 Q 1.872 32.056 2.032 31.24 L 3.296 25.016 Q 3.424 24.408 3.376 24.096 Q 3.328 23.784 3.032 23.664 Q 2.736 23.544 2.096 23.544 L 2.192 23.064 L 5.392 23.064 L 7.12 31.16 L 7.184 31.16 L 12.064 23.064 L 15.088 23.064 L 14.992 23.544 Q 14.432 23.544 14.104 23.664 Q 13.776 23.784 13.6 24.096 Q 13.424 24.408 13.296 25 L 11.936 31.672 Q 11.76 32.552 12.024 32.824 Q 12.288 33.096 13.136 33.096 Z " fill="black" /><path d="M 19.859 36.936 L 19.859 36.936 L 15.984 36.936 L 15.984 36.622 Q 16.779 36.622 17.104 36.454 Q 17.429 36.286 17.429 35.872 L 17.429 31.134 Q 17.429 30.843 17.35 30.714 Q 17.272 30.586 17.059 30.586 Q 16.891 30.586 16.533 30.63 Q 16.174 30.675 15.917 30.765 L 15.917 30.395 L 18.09 29.779 L 18.414 29.779 L 18.414 35.872 Q 18.414 36.286 18.75 36.454 Q 19.086 36.622 19.859 36.622 Z " fill="black" /></g></g></g><circle cx="54.0" cy="78.0" r="2.6999999999999997" style="stroke:black;fill:black;stroke-width:2.0;" /><g><g><g><path d="M 67.04 183.509 L 67.04 183.509 L 62.768 183.509 L 62.864 183.029 Q 63.456 183.029 63.768 182.917 Q 64.08 182.805 64.24 182.493 Q 64.4 182.181 64.512 181.605 L 65.936 174.693 L 65.872 174.693 L 60.496 183.509 L 60.144 183.509 L 58.208 174.709 L 58.144 174.709 L 56.816 181.173 Q 56.656 181.989 56.68 182.389 Q 56.704 182.789 56.992 182.909 Q 57.28 183.029 57.888 183.029 L 57.792 183.509 L 54.096 183.509 L 54.192 183.029 Q 54.816 183.029 55.152 182.909 Q 55.488 182.789 55.68 182.389 Q 55.872 181.989 56.032 181.173 L 57.296 174.949 Q 57.424 174.341 57.376 174.029 Q 57.328 173.717 57.032 173.597 Q 56.736 173.477 56.096 173.477 L 56.192 172.997 L 59.392 172.997 L 61.12 181.093 L 61.184 181.093 L 66.064 172.997 L 69.088 172.997 L 68.992 173.477 Q 68.432 173.477 68.104 173.597 Q 67.776 173.717 67.6 174.029 Q 67.424 174.341 67.296 174.933 L 65.936 181.605 Q 65.76 182.485 66.024 182.757 Q 66.288 183.029 67.136 183.029 Z " fill="black" /><path d="M 73.736 179.634 L 73.736 179.634 L 73.758 179.958 Q 72.974 180.07 72.325 180.462 Q 71.675 180.854 71.238 181.482 Q 70.802 182.109 70.656 182.926 L 70.734 182.938 Q 71.082 182.602 71.418 182.422 Q 71.754 182.243 72.19 182.243 Q 73.109 182.243 73.658 182.87 Q 74.206 183.498 74.206 184.595 Q 74.206 185.738 73.63 186.37 Q 73.053 187.003 71.989 187.003 Q 71.16 187.003 70.628 186.594 Q 70.096 186.186 69.844 185.497 Q 69.592 184.808 69.592 183.99 Q 69.592 182.635 70.124 181.683 Q 70.656 180.731 71.597 180.205 Q 72.538 179.678 73.736 179.634 Z M 73.232 184.685 L 73.232 184.685 Q 73.232 183.923 72.89 183.408 Q 72.549 182.893 71.854 182.893 Q 71.53 182.893 71.244 183.022 Q 70.958 183.15 70.779 183.442 Q 70.6 183.733 70.6 184.226 Q 70.6 184.92 70.757 185.458 Q 70.914 185.995 71.233 186.303 Q 71.552 186.611 72.034 186.611 Q 72.594 186.611 72.913 186.18 Q 73.232 185.749 73.232 184.685 Z " fill="black" /></g></g></g><g><g><g><path d="M -185.56 183.503 L -185.56 183.503 L -189.832 183.503 L -189.736 183.023 Q -189.144 183.023 -188.832 182.911 Q -188.52 182.799 -188.36 182.487 Q -188.2 182.175 -188.088 181.599 L -186.664 174.687 L -186.728 174.687 L -192.104 183.503 L -192.456 183.503 L -194.392 174.703 L -194.456 174.703 L -195.784 181.167 Q -195.944 181.983 -195.92 182.383 Q -195.896 182.783 -195.608 182.903 Q -195.32 183.023 -194.712 183.023 L -194.808 183.503 L -198.504 183.503 L -198.408 183.023 Q -197.784 183.023 -197.448 182.903 Q -197.112 182.783 -196.92 182.383 Q -196.728 181.983 -196.568 181.167 L -195.304 174.943 Q -195.176 174.335 -195.224 174.023 Q -195.272 173.711 -195.568 173.591 Q -195.864 173.471 -196.504 173.471 L -196.408 172.991 L -193.208 172.991 L -191.48 181.087 L -191.416 181.087 L -186.536 172.991 L -183.512 172.991 L -183.608 173.471 Q -184.168 173.471 -184.496 173.591 Q -184.824 173.711 -185 174.023 Q -185.176 174.335 -185.304 174.927 L -186.664 181.599 Q -186.84 182.479 -186.576 182.751 Q -186.312 183.023 -185.464 183.023 Z " fill="black" /><path d="M -178.842 180.714 L -178.842 180.714 L -181.474 180.714 L -181.776 181.991 L -181.25 182.025 Q -180.757 182.058 -180.275 182.193 Q -179.794 182.327 -179.402 182.596 Q -179.01 182.865 -178.78 183.307 Q -178.55 183.75 -178.55 184.41 Q -178.55 185.273 -178.931 185.85 Q -179.312 186.426 -179.99 186.718 Q -180.667 187.009 -181.563 187.009 Q -182.851 187.009 -182.851 186.382 Q -182.851 186.191 -182.734 186.046 Q -182.616 185.9 -182.403 185.9 Q -182.179 185.9 -181.961 186.034 Q -181.742 186.169 -181.485 186.309 Q -181.227 186.449 -180.869 186.449 Q -180.466 186.449 -180.124 186.292 Q -179.782 186.135 -179.575 185.788 Q -179.368 185.441 -179.368 184.858 Q -179.368 183.806 -179.995 183.391 Q -180.622 182.977 -181.787 182.921 Q -182 182.898 -182.084 182.898 Q -182.168 182.898 -182.291 182.898 L -182.426 182.73 L -181.731 179.807 L -178.662 179.807 Z " fill="black" /></g></g></g><g><g><g><path d="M -219.302 -10.582 L -219.302 -10.582 L -217.99 -16.886 Q -217.846 -17.51 -217.854 -17.87 Q -217.862 -18.23 -218.15 -18.374 Q -218.438 -18.518 -219.174 -18.518 L -219.078 -18.998 L -214.646 -18.998 L -214.742 -18.518 Q -215.446 -18.518 -215.798 -18.374 Q -216.15 -18.23 -216.294 -17.87 Q -216.438 -17.51 -216.566 -16.886 L -217.878 -10.518 Q -217.926 -10.262 -217.958 -10.054 Q -217.99 -9.846 -217.99 -9.67 Q -217.99 -9.222 -217.726 -9.094 Q -217.462 -8.966 -216.71 -8.966 L -216.806 -8.486 L -221.174 -8.486 L -221.078 -8.966 Q -220.422 -8.966 -220.094 -9.078 Q -219.766 -9.19 -219.606 -9.534 Q -219.446 -9.878 -219.302 -10.582 Z " fill="black" /><path d="M -212.821 -13.033 L -212.821 -13.033 L -212.821 -9.606 L -212.787 -9.606 Q -212.496 -9.964 -212.059 -10.261 Q -211.622 -10.558 -211.062 -10.558 Q -210.502 -10.558 -210.082 -10.238 Q -209.662 -9.919 -209.427 -9.359 Q -209.192 -8.799 -209.192 -8.071 Q -209.192 -7.074 -209.539 -6.391 Q -209.886 -5.708 -210.491 -5.361 Q -211.096 -5.014 -211.88 -5.014 Q -212.597 -5.014 -213.073 -5.182 Q -213.549 -5.35 -213.75 -5.462 L -213.75 -11.756 Q -213.75 -12.137 -213.834 -12.243 Q -213.918 -12.35 -214.243 -12.35 Q -214.378 -12.35 -214.467 -12.338 Q -214.557 -12.327 -214.557 -12.327 L -214.557 -12.641 L -213.112 -13.033 Z M -212.821 -9.113 L -212.821 -9.113 L -212.821 -5.999 Q -212.664 -5.809 -212.395 -5.641 Q -212.126 -5.473 -211.678 -5.473 Q -211.141 -5.473 -210.822 -5.775 Q -210.502 -6.078 -210.357 -6.587 Q -210.211 -7.097 -210.211 -7.713 Q -210.211 -8.25 -210.323 -8.726 Q -210.435 -9.202 -210.726 -9.499 Q -211.018 -9.796 -211.555 -9.796 Q -211.981 -9.796 -212.322 -9.555 Q -212.664 -9.314 -212.821 -9.113 Z " fill="black" /><path d="M -205.922 -5.439 L -205.922 -5.439 L -205.922 -5.126 L -208.442 -5.126 L -208.442 -5.439 Q -208.061 -5.439 -207.898 -5.512 Q -207.736 -5.585 -207.697 -5.764 Q -207.658 -5.943 -207.658 -6.257 L -207.658 -9.382 Q -207.658 -9.74 -207.781 -9.824 Q -207.904 -9.908 -208.15 -9.908 Q -208.262 -9.908 -208.346 -9.897 Q -208.43 -9.886 -208.43 -9.886 L -208.43 -10.21 L -207.019 -10.524 L -206.728 -10.524 L -206.728 -6.257 Q -206.728 -5.932 -206.683 -5.753 Q -206.638 -5.574 -206.465 -5.506 Q -206.291 -5.439 -205.922 -5.439 Z M -207.176 -12.663 L -207.176 -12.663 Q -206.885 -12.663 -206.711 -12.478 Q -206.538 -12.294 -206.538 -12.036 Q -206.538 -11.778 -206.711 -11.588 Q -206.885 -11.398 -207.176 -11.398 Q -207.456 -11.398 -207.635 -11.588 Q -207.814 -11.778 -207.814 -12.036 Q -207.814 -12.294 -207.641 -12.478 Q -207.467 -12.663 -207.176 -12.663 Z " fill="black" /><path d="M -202.158 -5.82 L -202.158 -5.82 L -202.203 -5.82 Q -202.595 -5.473 -202.954 -5.26 Q -203.312 -5.047 -203.85 -5.047 Q -204.499 -5.047 -204.841 -5.406 Q -205.182 -5.764 -205.182 -6.302 Q -205.182 -6.75 -204.975 -7.058 Q -204.768 -7.366 -204.426 -7.578 Q -204.085 -7.791 -203.687 -7.937 Q -203.29 -8.082 -202.909 -8.183 Q -202.528 -8.284 -202.237 -8.374 L -202.237 -8.866 Q -202.237 -9.594 -202.489 -9.902 Q -202.741 -10.21 -203.245 -10.21 Q -203.726 -10.21 -203.861 -10.009 Q -203.995 -9.807 -203.995 -9.303 Q -203.995 -8.788 -204.488 -8.788 Q -204.656 -8.788 -204.807 -8.917 Q -204.958 -9.046 -204.958 -9.326 Q -204.958 -9.639 -204.718 -9.919 Q -204.477 -10.199 -204.034 -10.378 Q -203.592 -10.558 -202.987 -10.558 Q -202.069 -10.558 -201.688 -10.132 Q -201.307 -9.706 -201.307 -8.833 L -201.307 -6.29 Q -201.307 -5.943 -201.229 -5.842 Q -201.15 -5.742 -200.971 -5.742 Q -200.814 -5.742 -200.686 -5.82 Q -200.557 -5.898 -200.445 -6.022 L -200.277 -5.842 Q -200.557 -5.439 -200.809 -5.254 Q -201.061 -5.07 -201.486 -5.07 Q -201.856 -5.07 -201.979 -5.26 Q -202.102 -5.45 -202.158 -5.82 Z M -202.237 -6.156 L -202.237 -6.156 L -202.237 -8.004 Q -202.741 -7.881 -203.189 -7.713 Q -203.637 -7.545 -203.917 -7.276 Q -204.197 -7.007 -204.197 -6.57 Q -204.197 -6.156 -203.973 -5.91 Q -203.749 -5.663 -203.39 -5.663 Q -202.83 -5.663 -202.237 -6.156 Z " fill="black" /><path d="M -199.795 -6.962 L -199.795 -6.962 L -199.504 -6.962 Q -199.325 -6.1 -198.978 -5.758 Q -198.63 -5.417 -198.014 -5.417 Q -197.589 -5.417 -197.32 -5.59 Q -197.051 -5.764 -197.051 -6.156 Q -197.051 -6.425 -197.146 -6.604 Q -197.242 -6.783 -197.51 -6.968 Q -197.779 -7.153 -198.306 -7.41 Q -199.067 -7.802 -199.426 -8.166 Q -199.784 -8.53 -199.784 -9.146 Q -199.784 -9.841 -199.286 -10.199 Q -198.787 -10.558 -198.07 -10.558 Q -197.645 -10.558 -197.376 -10.462 Q -197.107 -10.367 -196.894 -10.266 L -196.883 -10.266 L -196.693 -10.502 L -196.469 -10.502 L -196.435 -8.788 L -196.738 -8.788 Q -196.917 -9.583 -197.242 -9.88 Q -197.566 -10.177 -198.082 -10.177 Q -198.462 -10.177 -198.726 -9.998 Q -198.989 -9.818 -198.989 -9.438 Q -198.989 -9.113 -198.686 -8.855 Q -198.384 -8.598 -197.678 -8.239 Q -196.917 -7.836 -196.514 -7.461 Q -196.11 -7.086 -196.11 -6.458 Q -196.11 -5.932 -196.368 -5.613 Q -196.626 -5.294 -197.057 -5.148 Q -197.488 -5.002 -197.992 -5.002 Q -198.474 -5.002 -198.759 -5.103 Q -199.045 -5.204 -199.269 -5.294 L -199.291 -5.294 L -199.526 -5.036 L -199.762 -5.036 Z " fill="black" /></g></g></g><circle cx="-123.00000000000001" cy="179.99999999999994" r="2.6999999999999997" style="stroke:black;fill:black;stroke-width:2.0;" /><circle cx="-174.00000000000003" cy="143.99999999999994" r="2.6999999999999997" style="stroke:black;fill:black;stroke-width:2.0;" /><g><g><g><path d="M 96.44 33.576 L 96.44 33.576 L 92.168 33.576 L 92.264 33.096 Q 92.856 33.096 93.168 32.984 Q 93.48 32.872 93.64 32.56 Q 93.8 32.248 93.912 31.672 L 95.336 24.76 L 95.272 24.76 L 89.896 33.576 L 89.544 33.576 L 87.608 24.776 L 87.544 24.776 L 86.216 31.24 Q 86.056 32.056 86.08 32.456 Q 86.104 32.856 86.392 32.976 Q 86.68 33.096 87.288 33.096 L 87.192 33.576 L 83.496 33.576 L 83.592 33.096 Q 84.216 33.096 84.552 32.976 Q 84.888 32.856 85.08 32.456 Q 85.272 32.056 85.432 31.24 L 86.696 25.016 Q 86.824 24.408 86.776 24.096 Q 86.728 23.784 86.432 23.664 Q 86.136 23.544 85.496 23.544 L 85.592 23.064 L 88.792 23.064 L 90.52 31.16 L 90.584 31.16 L 95.464 23.064 L 98.488 23.064 L 98.392 23.544 Q 97.832 23.544 97.504 23.664 Q 97.176 23.784 97 24.096 Q 96.824 24.408 96.696 25 L 95.336 31.672 Q 95.16 32.552 95.424 32.824 Q 95.688 33.096 96.536 33.096 Z " fill="black" /><path d="M 103.685 35.144 L 103.685 35.144 L 103.326 36.936 L 98.914 36.936 L 98.914 36.555 L 100.616 34.853 Q 101.176 34.282 101.546 33.817 Q 101.915 33.352 102.1 32.882 Q 102.285 32.411 102.285 31.829 Q 102.285 31.202 101.91 30.826 Q 101.534 30.451 100.885 30.451 Q 100.336 30.451 99.95 30.686 Q 99.563 30.922 99.25 31.549 L 98.981 31.437 Q 99.238 30.619 99.798 30.171 Q 100.358 29.723 101.176 29.723 Q 101.814 29.723 102.296 29.964 Q 102.778 30.205 103.052 30.636 Q 103.326 31.067 103.326 31.661 Q 103.326 32.154 103.119 32.607 Q 102.912 33.061 102.503 33.542 Q 102.094 34.024 101.501 34.629 L 100.022 36.029 L 100.022 36.085 L 100.806 36.051 L 102.363 36.051 Q 102.811 36.051 102.99 35.85 Q 103.17 35.648 103.36 35.144 Z " fill="black" /></g></g></g><circle cx="158.99999999999997" cy="29.999999999999996" r="2.6999999999999997" style="stroke:black;fill:white;stroke-width:2.0;" /><g><g><g><path d="M 169.732 31.52 L 169.732 31.52 L 174.1 24.96 Q 174.324 24.64 174.46 24.368 Q 174.596 24.096 174.596 23.904 Q 174.596 23.664 174.388 23.576 Q 174.18 23.488 173.636 23.488 L 173.668 23.008 L 177.124 23.008 L 177.092 23.488 Q 176.66 23.488 176.356 23.616 Q 176.052 23.744 175.74 24.104 Q 175.428 24.464 174.932 25.2 L 169.06 33.6 L 168.532 33.6 L 167.636 24.944 Q 167.54 24.144 167.284 23.816 Q 167.028 23.488 166.388 23.488 L 166.42 23.008 L 170.34 23.008 L 170.292 23.488 Q 169.684 23.488 169.332 23.728 Q 168.98 23.968 169.012 24.512 Q 169.012 24.592 169.036 24.8 Q 169.06 25.008 169.06 25.088 L 169.54 29.648 L 169.652 31.52 Z " fill="black" /><path d="M 175.622 31.482 L 175.622 31.482 L 175.622 32.635 L 175.655 32.635 Q 176.081 32.008 176.389 31.711 Q 176.697 31.414 177.1 31.414 Q 177.425 31.414 177.587 31.582 Q 177.75 31.75 177.75 32.042 Q 177.75 32.355 177.598 32.501 Q 177.447 32.646 177.257 32.646 Q 177.078 32.646 176.938 32.551 Q 176.798 32.456 176.697 32.361 Q 176.596 32.266 176.529 32.266 Q 176.338 32.266 176.092 32.557 Q 175.846 32.848 175.644 33.184 L 175.644 35.738 Q 175.644 36.085 175.734 36.264 Q 175.823 36.443 176.053 36.499 Q 176.282 36.555 176.697 36.555 L 176.697 36.88 L 173.897 36.88 L 173.897 36.555 Q 174.266 36.555 174.44 36.494 Q 174.614 36.432 174.664 36.27 Q 174.714 36.107 174.714 35.794 L 174.714 32.714 Q 174.714 32.411 174.664 32.26 Q 174.614 32.109 174.311 32.109 Q 174.143 32.109 174.054 32.12 Q 173.964 32.131 173.964 32.131 L 173.964 31.818 L 175.353 31.482 Z " fill="black" /><path d="M 182.476 35.278 L 182.476 35.278 L 182.689 35.435 Q 182.487 35.861 182.218 36.214 Q 181.95 36.566 181.563 36.779 Q 181.177 36.992 180.594 36.992 Q 179.922 36.992 179.379 36.673 Q 178.836 36.354 178.522 35.732 Q 178.209 35.11 178.209 34.214 Q 178.209 33.274 178.528 32.663 Q 178.847 32.053 179.385 31.75 Q 179.922 31.448 180.572 31.448 Q 181.49 31.448 182.05 32.086 Q 182.61 32.725 182.655 33.901 L 179.116 33.901 Q 179.116 34.674 179.368 35.172 Q 179.62 35.67 180.018 35.911 Q 180.415 36.152 180.863 36.152 Q 181.322 36.152 181.608 36.029 Q 181.894 35.906 182.095 35.71 Q 182.297 35.514 182.476 35.278 Z M 179.105 33.486 L 179.105 33.486 L 181.602 33.486 Q 181.591 33.072 181.457 32.708 Q 181.322 32.344 181.065 32.12 Q 180.807 31.896 180.404 31.896 Q 179.239 31.896 179.105 33.486 Z " fill="black" /><path d="M 183.316 31.638 L 183.316 31.638 L 184.167 31.638 Q 184.167 30.955 184.24 30.524 Q 184.313 30.093 184.526 29.712 Q 184.75 29.32 185.091 29.107 Q 185.433 28.894 186.015 28.894 Q 186.564 28.894 186.917 29.096 Q 187.27 29.298 187.27 29.678 Q 187.27 29.925 187.135 30.042 Q 187.001 30.16 186.81 30.16 Q 186.598 30.16 186.463 30.031 Q 186.329 29.902 186.222 29.734 Q 186.116 29.566 185.982 29.438 Q 185.847 29.309 185.634 29.309 Q 185.321 29.309 185.209 29.594 Q 185.097 29.88 185.097 30.586 L 185.097 31.638 L 186.463 31.638 L 186.463 32.109 L 185.097 32.109 L 185.097 35.547 Q 185.097 35.984 185.186 36.197 Q 185.276 36.41 185.522 36.482 Q 185.769 36.555 186.239 36.555 L 186.239 36.88 L 183.226 36.88 L 183.226 36.555 Q 183.641 36.555 183.837 36.482 Q 184.033 36.41 184.1 36.197 Q 184.167 35.984 184.167 35.547 L 184.167 32.109 L 183.316 32.109 Z " fill="black" /></g></g></g><circle cx="1.102182119232618e-15" cy="-18.0" r="2.6999999999999997" style="stroke:black;fill:black;stroke-width:2.0;" /><g><g><g><path d="M -11.56 -62.497 L -11.56 -62.497 L -15.832 -62.497 L -15.736 -62.977 Q -15.144 -62.977 -14.832 -63.089 Q -14.52 -63.201 -14.36 -63.513 Q -14.2 -63.825 -14.088 -64.401 L -12.664 -71.313 L -12.728 -71.313 L -18.104 -62.497 L -18.456 -62.497 L -20.392 -71.297 L -20.456 -71.297 L -21.784 -64.833 Q -21.944 -64.017 -21.92 -63.617 Q -21.896 -63.217 -21.608 -63.097 Q -21.32 -62.977 -20.712 -62.977 L -20.808 -62.497 L -24.504 -62.497 L -24.408 -62.977 Q -23.784 -62.977 -23.448 -63.097 Q -23.112 -63.217 -22.92 -63.617 Q -22.728 -64.017 -22.568 -64.833 L -21.304 -71.057 Q -21.176 -71.665 -21.224 -71.977 Q -21.272 -72.289 -21.568 -72.409 Q -21.864 -72.529 -22.504 -72.529 L -22.408 -73.009 L -19.208 -73.009 L -17.48 -64.913 L -17.416 -64.913 L -12.536 -73.009 L -9.512 -73.009 L -9.608 -72.529 Q -10.168 -72.529 -10.496 -72.409 Q -10.824 -72.289 -11 -71.977 Q -11.176 -71.665 -11.304 -71.073 L -12.664 -64.401 Q -12.84 -63.521 -12.576 -63.249 Q -12.312 -62.977 -11.464 -62.977 Z " fill="black" /><path d="M -8.549 -64.714 L -8.549 -64.714 L -8.806 -64.86 Q -8.168 -66.35 -6.779 -66.35 Q -5.917 -66.35 -5.446 -65.918 Q -4.976 -65.487 -4.976 -64.849 Q -4.976 -64.266 -5.318 -63.908 Q -5.659 -63.55 -6.186 -63.214 L -6.186 -63.18 Q -5.738 -63.046 -5.362 -62.794 Q -4.987 -62.542 -4.763 -62.178 Q -4.539 -61.814 -4.539 -61.31 Q -4.539 -60.548 -4.965 -60.027 Q -5.39 -59.506 -6.085 -59.249 Q -6.779 -58.991 -7.597 -58.991 Q -8.101 -58.991 -8.37 -59.086 Q -8.638 -59.182 -8.745 -59.322 Q -8.851 -59.462 -8.851 -59.607 Q -8.851 -59.786 -8.739 -59.943 Q -8.627 -60.1 -8.414 -60.1 Q -8.28 -60.1 -8.162 -60.05 Q -8.045 -59.999 -7.754 -59.842 Q -7.395 -59.663 -7.222 -59.607 Q -7.048 -59.551 -6.846 -59.551 Q -6.488 -59.551 -6.174 -59.68 Q -5.861 -59.809 -5.659 -60.117 Q -5.458 -60.425 -5.458 -60.974 Q -5.458 -61.478 -5.738 -61.847 Q -6.018 -62.217 -6.482 -62.424 Q -6.947 -62.631 -7.485 -62.631 L -7.709 -62.631 L -7.709 -63.057 L -7.496 -63.057 Q -7.115 -63.057 -6.757 -63.247 Q -6.398 -63.438 -6.169 -63.785 Q -5.939 -64.132 -5.939 -64.58 Q -5.939 -65.073 -6.247 -65.347 Q -6.555 -65.622 -7.082 -65.622 Q -7.586 -65.622 -7.922 -65.392 Q -8.258 -65.162 -8.549 -64.714 Z " fill="black" /></g></g></g><circle cx="108.0" cy="-18.0" r="2.6999999999999997" style="stroke:black;fill:black;stroke-width:2.0;" /><g><g><g><path d="M 337.346 -15.656 L 337.346 -15.656 L 333.074 -15.656 L 333.17 -16.136 Q 333.762 -16.136 334.074 -16.248 Q 334.386 -16.36 334.546 -16.672 Q 334.706 -16.984 334.818 -17.56 L 336.242 -24.472 L 336.178 -24.472 L 330.802 -15.656 L 330.45 -15.656 L 328.514 -24.456 L 328.45 -24.456 L 327.122 -17.992 Q 326.962 -17.176 326.986 -16.776 Q 327.01 -16.376 327.298 -16.256 Q 327.586 -16.136 328.194 -16.136 L 328.098 -15.656 L 324.402 -15.656 L 324.498 -16.136 Q 325.122 -16.136 325.458 -16.256 Q 325.794 -16.376 325.986 -16.776 Q 326.178 -17.176 326.338 -17.992 L 327.602 -24.216 Q 327.73 -24.824 327.682 -25.136 Q 327.634 -25.448 327.338 -25.568 Q 327.042 -25.688 326.402 -25.688 L 326.498 -26.168 L 329.698 -26.168 L 331.426 -18.072 L 331.49 -18.072 L 336.37 -26.168 L 339.394 -26.168 L 339.298 -25.688 Q 338.738 -25.688 338.41 -25.568 Q 338.082 -25.448 337.906 -25.136 Q 337.73 -24.824 337.602 -24.232 L 336.242 -17.56 Q 336.066 -16.68 336.33 -16.408 Q 336.594 -16.136 337.442 -16.136 Z " fill="black" /><path d="M 341.365 -17.694 L 341.365 -17.694 L 341.365 -16.754 L 341.398 -16.754 Q 341.802 -17.224 342.222 -17.476 Q 342.642 -17.728 343.134 -17.728 Q 343.694 -17.728 344.114 -17.409 Q 344.534 -17.09 344.775 -16.524 Q 345.016 -15.958 345.016 -15.219 Q 345.016 -14.267 344.686 -13.59 Q 344.355 -12.912 343.795 -12.548 Q 343.235 -12.184 342.563 -12.184 Q 342.25 -12.184 341.964 -12.257 Q 341.678 -12.33 341.432 -12.498 L 341.387 -12.498 L 341.387 -11.03 Q 341.387 -10.672 341.477 -10.482 Q 341.566 -10.291 341.802 -10.224 Q 342.037 -10.157 342.474 -10.157 L 342.474 -9.832 L 339.64 -9.832 L 339.64 -10.146 Q 340.166 -10.146 340.312 -10.319 Q 340.458 -10.493 340.458 -10.963 L 340.458 -16.507 Q 340.458 -16.832 340.385 -16.955 Q 340.312 -17.078 340.032 -17.078 Q 339.92 -17.078 339.797 -17.067 Q 339.674 -17.056 339.674 -17.056 L 339.674 -17.381 L 341.085 -17.694 Z M 341.387 -16.283 L 341.387 -16.283 L 341.387 -13.36 Q 341.499 -13.248 341.667 -13.069 Q 341.835 -12.89 342.07 -12.755 Q 342.306 -12.621 342.619 -12.621 Q 343.213 -12.621 343.605 -13.181 Q 343.997 -13.741 343.997 -14.906 Q 343.997 -15.97 343.65 -16.468 Q 343.302 -16.966 342.675 -16.966 Q 342.227 -16.966 341.886 -16.731 Q 341.544 -16.496 341.387 -16.283 Z " fill="black" /><path d="M 348.858 -12.99 L 348.858 -12.99 L 348.813 -12.99 Q 348.421 -12.643 348.062 -12.43 Q 347.704 -12.218 347.166 -12.218 Q 346.517 -12.218 346.175 -12.576 Q 345.834 -12.934 345.834 -13.472 Q 345.834 -13.92 346.041 -14.228 Q 346.248 -14.536 346.59 -14.749 Q 346.931 -14.962 347.329 -15.107 Q 347.726 -15.253 348.107 -15.354 Q 348.488 -15.454 348.779 -15.544 L 348.779 -16.037 Q 348.779 -16.765 348.527 -17.073 Q 348.275 -17.381 347.771 -17.381 Q 347.29 -17.381 347.155 -17.179 Q 347.021 -16.978 347.021 -16.474 Q 347.021 -15.958 346.528 -15.958 Q 346.36 -15.958 346.209 -16.087 Q 346.058 -16.216 346.058 -16.496 Q 346.058 -16.81 346.298 -17.09 Q 346.539 -17.37 346.982 -17.549 Q 347.424 -17.728 348.029 -17.728 Q 348.947 -17.728 349.328 -17.302 Q 349.709 -16.877 349.709 -16.003 L 349.709 -13.461 Q 349.709 -13.114 349.787 -13.013 Q 349.866 -12.912 350.045 -12.912 Q 350.202 -12.912 350.33 -12.99 Q 350.459 -13.069 350.571 -13.192 L 350.739 -13.013 Q 350.459 -12.61 350.207 -12.425 Q 349.955 -12.24 349.53 -12.24 Q 349.16 -12.24 349.037 -12.43 Q 348.914 -12.621 348.858 -12.99 Z M 348.779 -13.326 L 348.779 -13.326 L 348.779 -15.174 Q 348.275 -15.051 347.827 -14.883 Q 347.379 -14.715 347.099 -14.446 Q 346.819 -14.178 346.819 -13.741 Q 346.819 -13.326 347.043 -13.08 Q 347.267 -12.834 347.626 -12.834 Q 348.186 -12.834 348.779 -13.326 Z " fill="black" /><path d="M 351.221 -14.133 L 351.221 -14.133 L 351.512 -14.133 Q 351.691 -13.27 352.038 -12.929 Q 352.386 -12.587 353.002 -12.587 Q 353.427 -12.587 353.696 -12.761 Q 353.965 -12.934 353.965 -13.326 Q 353.965 -13.595 353.87 -13.774 Q 353.774 -13.954 353.506 -14.138 Q 353.237 -14.323 352.71 -14.581 Q 351.949 -14.973 351.59 -15.337 Q 351.232 -15.701 351.232 -16.317 Q 351.232 -17.011 351.73 -17.37 Q 352.229 -17.728 352.946 -17.728 Q 353.371 -17.728 353.64 -17.633 Q 353.909 -17.538 354.122 -17.437 L 354.133 -17.437 L 354.323 -17.672 L 354.547 -17.672 L 354.581 -15.958 L 354.278 -15.958 Q 354.099 -16.754 353.774 -17.05 Q 353.45 -17.347 352.934 -17.347 Q 352.554 -17.347 352.29 -17.168 Q 352.027 -16.989 352.027 -16.608 Q 352.027 -16.283 352.33 -16.026 Q 352.632 -15.768 353.338 -15.41 Q 354.099 -15.006 354.502 -14.631 Q 354.906 -14.256 354.906 -13.629 Q 354.906 -13.102 354.648 -12.783 Q 354.39 -12.464 353.959 -12.318 Q 353.528 -12.173 353.024 -12.173 Q 352.542 -12.173 352.257 -12.274 Q 351.971 -12.374 351.747 -12.464 L 351.725 -12.464 L 351.49 -12.206 L 351.254 -12.206 Z " fill="black" /><path d="M 355.645 -14.133 L 355.645 -14.133 L 355.936 -14.133 Q 356.115 -13.27 356.462 -12.929 Q 356.81 -12.587 357.426 -12.587 Q 357.851 -12.587 358.12 -12.761 Q 358.389 -12.934 358.389 -13.326 Q 358.389 -13.595 358.294 -13.774 Q 358.198 -13.954 357.93 -14.138 Q 357.661 -14.323 357.134 -14.581 Q 356.373 -14.973 356.014 -15.337 Q 355.656 -15.701 355.656 -16.317 Q 355.656 -17.011 356.154 -17.37 Q 356.653 -17.728 357.37 -17.728 Q 357.795 -17.728 358.064 -17.633 Q 358.333 -17.538 358.546 -17.437 L 358.557 -17.437 L 358.747 -17.672 L 358.971 -17.672 L 359.005 -15.958 L 358.702 -15.958 Q 358.523 -16.754 358.198 -17.05 Q 357.874 -17.347 357.358 -17.347 Q 356.978 -17.347 356.714 -17.168 Q 356.451 -16.989 356.451 -16.608 Q 356.451 -16.283 356.754 -16.026 Q 357.056 -15.768 357.762 -15.41 Q 358.523 -15.006 358.926 -14.631 Q 359.33 -14.256 359.33 -13.629 Q 359.33 -13.102 359.072 -12.783 Q 358.814 -12.464 358.383 -12.318 Q 357.952 -12.173 357.448 -12.173 Q 356.966 -12.173 356.681 -12.274 Q 356.395 -12.374 356.171 -12.464 L 356.149 -12.464 L 355.914 -12.206 L 355.678 -12.206 Z " fill="black" /></g></g></g><circle cx="321.0" cy="119.99999999999999" r="2.6999999999999997" style="stroke:black;fill:black;stroke-width:2.0;" /><g><g><g><path d="M 301.656 80.622 L 301.656 80.622 Q 301.656 81.47 301.336 82.046 Q 301.016 82.622 300.504 82.99 Q 299.992 83.358 299.408 83.558 Q 298.824 83.758 298.296 83.854 L 298.296 83.934 Q 298.584 84.126 298.84 84.518 Q 299.096 84.91 299.472 85.646 Q 299.848 86.382 300.504 87.63 Q 300.776 88.11 301.104 88.278 Q 301.432 88.446 301.976 88.446 L 301.88 88.926 L 299.448 88.926 Q 299 87.934 298.696 87.27 Q 298.392 86.606 298.168 86.158 Q 297.944 85.71 297.776 85.358 Q 297.608 85.006 297.416 84.638 Q 297.24 84.302 297.032 84.198 Q 296.824 84.094 296.392 84.094 L 296.056 84.094 L 295.464 86.942 Q 295.336 87.598 295.376 87.926 Q 295.416 88.254 295.736 88.35 Q 296.056 88.446 296.744 88.446 L 296.664 88.926 L 292.248 88.926 L 292.344 88.446 Q 292.936 88.446 293.256 88.35 Q 293.576 88.254 293.744 87.934 Q 293.912 87.614 294.04 86.942 L 295.448 80.078 Q 295.544 79.63 295.496 79.374 Q 295.448 79.118 295.168 79.006 Q 294.888 78.894 294.248 78.894 L 294.344 78.414 L 298.104 78.414 Q 299.784 78.414 300.72 78.934 Q 301.656 79.454 301.656 80.622 Z M 297.064 79.086 L 297.064 79.086 L 296.168 83.502 L 296.664 83.518 Q 297.624 83.486 298.4 83.206 Q 299.176 82.926 299.624 82.318 Q 300.072 81.71 300.072 80.686 Q 300.072 80.254 299.888 79.878 Q 299.704 79.502 299.256 79.27 Q 298.808 79.038 298.008 79.038 Q 297.704 79.038 297.52 79.046 Q 297.336 79.054 297.064 79.086 Z " fill="black" /><path d="M 307.483 92.286 L 307.483 92.286 L 303.608 92.286 L 303.608 91.972 Q 304.403 91.972 304.728 91.804 Q 305.053 91.636 305.053 91.222 L 305.053 86.484 Q 305.053 86.193 304.974 86.064 Q 304.896 85.936 304.683 85.936 Q 304.515 85.936 304.157 85.98 Q 303.798 86.025 303.541 86.115 L 303.541 85.745 L 305.714 85.129 L 306.038 85.129 L 306.038 91.222 Q 306.038 91.636 306.374 91.804 Q 306.71 91.972 307.483 91.972 Z " fill="black" /></g></g></g><g><g><g><path d="M 301.656 151.272 L 301.656 151.272 Q 301.656 152.12 301.336 152.696 Q 301.016 153.272 300.504 153.64 Q 299.992 154.008 299.408 154.208 Q 298.824 154.408 298.296 154.504 L 298.296 154.584 Q 298.584 154.776 298.84 155.168 Q 299.096 155.56 299.472 156.296 Q 299.848 157.032 300.504 158.28 Q 300.776 158.76 301.104 158.928 Q 301.432 159.096 301.976 159.096 L 301.88 159.576 L 299.448 159.576 Q 299 158.584 298.696 157.92 Q 298.392 157.256 298.168 156.808 Q 297.944 156.36 297.776 156.008 Q 297.608 155.656 297.416 155.288 Q 297.24 154.952 297.032 154.848 Q 296.824 154.744 296.392 154.744 L 296.056 154.744 L 295.464 157.592 Q 295.336 158.248 295.376 158.576 Q 295.416 158.904 295.736 159 Q 296.056 159.096 296.744 159.096 L 296.664 159.576 L 292.248 159.576 L 292.344 159.096 Q 292.936 159.096 293.256 159 Q 293.576 158.904 293.744 158.584 Q 293.912 158.264 294.04 157.592 L 295.448 150.728 Q 295.544 150.28 295.496 150.024 Q 295.448 149.768 295.168 149.656 Q 294.888 149.544 294.248 149.544 L 294.344 149.064 L 298.104 149.064 Q 299.784 149.064 300.72 149.584 Q 301.656 150.104 301.656 151.272 Z M 297.064 149.736 L 297.064 149.736 L 296.168 154.152 L 296.664 154.168 Q 297.624 154.136 298.4 153.856 Q 299.176 153.576 299.624 152.968 Q 300.072 152.36 300.072 151.336 Q 300.072 150.904 299.888 150.528 Q 299.704 150.152 299.256 149.92 Q 298.808 149.688 298.008 149.688 Q 297.704 149.688 297.52 149.696 Q 297.336 149.704 297.064 149.736 Z " fill="black" /><path d="M 307.909 161.144 L 307.909 161.144 L 307.55 162.936 L 303.138 162.936 L 303.138 162.555 L 304.84 160.853 Q 305.4 160.282 305.77 159.817 Q 306.139 159.352 306.324 158.882 Q 306.509 158.411 306.509 157.829 Q 306.509 157.202 306.134 156.826 Q 305.758 156.451 305.109 156.451 Q 304.56 156.451 304.174 156.686 Q 303.787 156.922 303.474 157.549 L 303.205 157.437 Q 303.462 156.619 304.022 156.171 Q 304.582 155.723 305.4 155.723 Q 306.038 155.723 306.52 155.964 Q 307.002 156.205 307.276 156.636 Q 307.55 157.067 307.55 157.661 Q 307.55 158.154 307.343 158.607 Q 307.136 159.061 306.727 159.542 Q 306.318 160.024 305.725 160.629 L 304.246 162.029 L 304.246 162.085 L 305.03 162.051 L 306.587 162.051 Q 307.035 162.051 307.214 161.85 Q 307.394 161.648 307.584 161.144 Z " fill="black" /></g></g></g><g><g><g><path d="M 121.04 -62.424 L 121.04 -62.424 L 116.768 -62.424 L 116.864 -62.904 Q 117.456 -62.904 117.768 -63.016 Q 118.08 -63.128 118.24 -63.44 Q 118.4 -63.752 118.512 -64.328 L 119.936 -71.24 L 119.872 -71.24 L 114.496 -62.424 L 114.144 -62.424 L 112.208 -71.224 L 112.144 -71.224 L 110.816 -64.76 Q 110.656 -63.944 110.68 -63.544 Q 110.704 -63.144 110.992 -63.024 Q 111.28 -62.904 111.888 -62.904 L 111.792 -62.424 L 108.096 -62.424 L 108.192 -62.904 Q 108.816 -62.904 109.152 -63.024 Q 109.488 -63.144 109.68 -63.544 Q 109.872 -63.944 110.032 -64.76 L 111.296 -70.984 Q 111.424 -71.592 111.376 -71.904 Q 111.328 -72.216 111.032 -72.336 Q 110.736 -72.456 110.096 -72.456 L 110.192 -72.936 L 113.392 -72.936 L 115.12 -64.84 L 115.184 -64.84 L 120.064 -72.936 L 123.088 -72.936 L 122.992 -72.456 Q 122.432 -72.456 122.104 -72.336 Q 121.776 -72.216 121.6 -71.904 Q 121.424 -71.592 121.296 -71 L 119.936 -64.328 Q 119.76 -63.448 120.024 -63.176 Q 120.288 -62.904 121.136 -62.904 Z " fill="black" /><path d="M 128.475 -60.834 L 128.475 -60.834 L 127.333 -60.834 L 127.333 -59.064 L 126.336 -59.064 L 126.336 -60.834 L 123.234 -60.834 L 123.234 -61.539 L 126.65 -66.288 L 127.333 -66.288 L 127.333 -61.606 L 128.475 -61.606 Z M 126.336 -61.606 L 126.336 -61.606 L 126.336 -65.067 L 126.291 -65.067 L 123.85 -61.651 L 123.85 -61.606 Z " fill="black" /></g></g></g><circle cx="53.999999999999986" cy="-66.0" r="2.6999999999999997" style="stroke:black;fill:black;stroke-width:2.0;" /><circle cx="234.0" cy="-18.0" r="2.6999999999999997" style="stroke:black;fill:black;stroke-width:2.0;" /><circle cx="321.0" cy="36.0" r="2.6999999999999997" style="stroke:black;fill:black;stroke-width:2.0;" /><g><g><g><path d="M 278.254 17.72 L 278.254 17.72 L 278.542 18.024 Q 277.726 18.984 276.654 19.6 Q 275.582 20.216 274.062 20.216 Q 272.622 20.216 271.758 19.68 Q 270.894 19.144 270.518 18.248 Q 270.142 17.352 270.142 16.296 Q 270.142 14.616 270.654 13.312 Q 271.166 12.008 272.054 11.12 Q 272.942 10.232 274.062 9.776 Q 275.182 9.32 276.398 9.32 Q 277.214 9.32 277.67 9.464 Q 278.126 9.608 278.382 9.76 Q 278.638 9.912 278.83 9.912 Q 279.022 9.912 279.166 9.752 Q 279.31 9.592 279.502 9.336 L 279.966 9.336 L 279.214 13 L 278.686 13 Q 278.75 11.4 278.094 10.704 Q 277.438 10.008 276.254 10.008 Q 275.326 10.008 274.51 10.432 Q 273.694 10.856 273.062 11.632 Q 272.43 12.408 272.07 13.488 Q 271.71 14.568 271.71 15.896 Q 271.71 17.496 272.47 18.336 Q 273.23 19.176 274.814 19.176 Q 276.654 19.176 278.254 17.72 Z " fill="black" /><path d="M 288.974 23.4 L 288.974 23.4 L 285.995 23.4 L 285.995 23.064 Q 286.432 23.064 286.644 22.986 Q 286.857 22.907 286.924 22.689 Q 286.992 22.47 286.992 22.067 L 286.992 17.24 L 286.947 17.24 L 284.337 23.4 L 284.068 23.4 L 281.425 17.251 L 281.38 17.251 L 281.38 21.765 Q 281.38 22.336 281.459 22.616 Q 281.537 22.896 281.756 22.98 Q 281.974 23.064 282.4 23.064 L 282.4 23.4 L 279.768 23.4 L 279.768 23.064 Q 280.227 23.064 280.451 22.98 Q 280.675 22.896 280.753 22.616 Q 280.832 22.336 280.832 21.765 L 280.832 17.408 Q 280.832 16.982 280.753 16.764 Q 280.675 16.546 280.456 16.462 Q 280.238 16.378 279.79 16.378 L 279.79 16.042 L 282.075 16.042 L 284.438 21.675 L 284.483 21.675 L 286.835 16.042 L 288.963 16.042 L 288.963 16.378 Q 288.571 16.378 288.358 16.462 Q 288.145 16.546 288.067 16.764 Q 287.988 16.982 287.988 17.397 L 287.988 22.067 Q 287.988 22.47 288.067 22.689 Q 288.145 22.907 288.358 22.986 Q 288.571 23.064 288.974 23.064 Z " fill="black" /></g></g></g><circle cx="357.0" cy="36.0" r="2.6999999999999997" style="stroke:black;fill:white;stroke-width:2.0;" /><g><g><g><path d="M 367.732 37.52 L 367.732 37.52 L 372.1 30.96 Q 372.324 30.64 372.46 30.368 Q 372.596 30.096 372.596 29.904 Q 372.596 29.664 372.388 29.576 Q 372.18 29.488 371.636 29.488 L 371.668 29.008 L 375.124 29.008 L 375.092 29.488 Q 374.66 29.488 374.356 29.616 Q 374.052 29.744 373.74 30.104 Q 373.428 30.464 372.932 31.2 L 367.06 39.6 L 366.532 39.6 L 365.636 30.944 Q 365.54 30.144 365.284 29.816 Q 365.028 29.488 364.388 29.488 L 364.42 29.008 L 368.34 29.008 L 368.292 29.488 Q 367.684 29.488 367.332 29.728 Q 366.98 29.968 367.012 30.512 Q 367.012 30.592 367.036 30.8 Q 367.06 31.008 367.06 31.088 L 367.54 35.648 L 367.652 37.52 Z " fill="black" /><path d="M 374.462 37.448 L 374.462 37.448 Q 375.615 37.448 376.282 38.165 Q 376.948 38.882 376.948 40.125 Q 376.948 41.066 376.629 41.704 Q 376.31 42.342 375.75 42.667 Q 375.19 42.992 374.462 42.992 Q 373.286 42.992 372.619 42.258 Q 371.953 41.525 371.953 40.17 Q 371.953 39.352 372.266 38.742 Q 372.58 38.131 373.146 37.79 Q 373.711 37.448 374.462 37.448 Z M 374.417 37.874 L 374.417 37.874 Q 373.778 37.874 373.386 38.411 Q 372.994 38.949 372.994 40.024 Q 372.994 41.357 373.392 41.956 Q 373.79 42.555 374.506 42.544 Q 374.966 42.544 375.279 42.331 Q 375.593 42.118 375.755 41.603 Q 375.918 41.088 375.918 40.181 Q 375.918 39.15 375.542 38.512 Q 375.167 37.874 374.417 37.874 Z " fill="black" /><path d="M 383.377 42.376 L 383.377 42.376 L 383.377 42.678 L 381.954 42.936 L 381.708 42.936 L 381.708 42.074 L 381.652 42.074 Q 381.204 42.51 380.778 42.751 Q 380.353 42.992 379.815 42.992 Q 379.121 42.992 378.734 42.538 Q 378.348 42.085 378.348 40.942 L 378.348 38.669 Q 378.348 38.21 378.197 38.114 Q 378.046 38.019 377.586 38.008 L 377.586 37.694 L 379.031 37.526 L 379.278 37.526 L 379.278 40.797 Q 379.278 41.648 379.563 41.962 Q 379.849 42.275 380.286 42.275 Q 380.711 42.275 381.019 42.085 Q 381.327 41.894 381.663 41.603 L 381.663 38.658 Q 381.663 38.21 381.478 38.109 Q 381.294 38.008 380.756 38.008 L 380.756 37.694 L 382.324 37.526 L 382.593 37.526 L 382.593 41.637 Q 382.593 42.13 382.727 42.253 Q 382.862 42.376 383.265 42.376 Z " fill="black" /><path d="M 386.994 41.872 L 386.994 41.872 L 387.207 42.051 Q 386.994 42.354 386.81 42.561 Q 386.625 42.768 386.401 42.88 Q 386.177 42.992 385.818 42.992 Q 385.258 42.992 385.001 42.662 Q 384.743 42.331 384.743 41.581 L 384.743 38.109 L 384.127 38.109 L 384.127 37.851 Q 384.519 37.605 384.805 37.185 Q 385.09 36.765 385.393 36.048 L 385.684 36.048 L 385.673 37.638 L 386.938 37.638 L 386.938 38.109 L 385.673 38.109 L 385.673 41.267 Q 385.673 41.861 385.779 42.096 Q 385.886 42.331 386.21 42.331 Q 386.479 42.331 386.63 42.219 Q 386.782 42.107 386.994 41.872 Z " fill="black" /></g></g></g></svg>