<svg xmlns="http://www.w3.org/2000/svg" xml:lang="en" height="202.8024pt" width="121.3912pt" viewBox="-95.06159999999998 -43.1624 121.3912 202.8024"><path d="M 0.0,59.99999999999999 L 0.0,45.0 L -14.999999999999998,45.0 L -14.999999999999998,14.999999999999998 L 0.0,14.999999999999998 L 0.0,-0.0" style="stroke:black;fill:none;stroke-width:2.0;stroke-linecap:round;stroke-linejoin:round;" /><path d="M -9.0,45.0 L -14.999999999999998,45.0" style="stroke:black;fill:none;stroke-width:2.0;stroke-linecap:round;stroke-linejoin:round;" /><path d="M -2.0 45.0 L -9.0 49.5 L -9.0 40.5 Z" style="stroke:black;fill:black;stroke-linecap:butt;stroke-linejoin:miter;" /><path d="M -17.999999999999996,42.0 L -17.999999999999996,17.999999999999996" style="stroke:black;fill:none;stroke-width:2.0;stroke-linecap:round;stroke-linejoin:round;" /><path d="M -32.99999999999999,29.999999999999996 L -17.999999999999996,29.999999999999996" style="stroke:black;fill:none;stroke-width:2.0;stroke-linecap:round;stroke-linejoin:round;" /><path d="M 0.0,59.99999999999999 L -3.3065463576978533e-15,78.0 L 8.999999999999996,81.0 L -9.000000000000004,87.0 L 8.999999999999995,92.99999999999999 L -9.000000000000007,99.0 L 8.999999999999993,105.0 L -9.00000000000001,110.99999999999999 L -9.919639073093561e-15,114.0 L -1.3226185430791413e-14,132.0" style="stroke:black;fill:none;stroke-width:2.0;stroke-linecap:round;stroke-linejoin:round;" /><path d="M -1.3226185430791413e-14,132.0 L -1.3226185430791413e-14,146.39999999999998 L -9.000000000000014,146.39999999999998 L 8.999999999999988,146.39999999999998 M -6.300000000000012,150.72 L 6.2999999999999865,150.72 M -1.8000000000000134,155.04 L 1.799999999999987,155.04" style="stroke:black;fill:none;stroke-width:2.0;stroke-linecap:round;stroke-linejoin:round;" /><path d="M -32.99999999999999,29.999999999999996 L -50.99999999999999,29.999999999999993 L -69.0,29.999999999999993" style="stroke:black;fill:none;stroke-width:2.0;stroke-linecap:round;stroke-linejoin:round;" /><path d="M 0.0,-0.0 L 5.51091059616309e-16,-9.0 L 1.102182119232618e-15,-18.0" style="stroke:black;fill:none;stroke-width:2.0;stroke-linecap:round;stroke-linejoin:round;" /><g><g><g><path d="M 11.456 24.56 L 11.456 24.56 L 11.36 25.376 L 9.968 25.216 L 9.968 25.264 Q 10.24 25.568 10.392 26.024 Q 10.544 26.48 10.544 26.896 Q 10.544 27.616 10.256 28.104 Q 9.968 28.592 9.504 28.888 Q 9.04 29.184 8.48 29.336 Q 7.92 29.488 7.392 29.536 Q 6.752 29.6 6.488 29.808 Q 6.224 30.016 6.224 30.24 Q 6.224 30.528 6.544 30.68 Q 6.864 30.832 7.368 30.928 Q 7.872 31.024 8.448 31.144 Q 9.024 31.264 9.528 31.472 Q 10.032 31.68 10.352 32.056 Q 10.672 32.432 10.672 33.056 Q 10.672 33.744 10.224 34.328 Q 9.776 34.912 8.896 35.272 Q 8.016 35.632 6.736 35.632 Q 5.584 35.632 4.896 35.352 Q 4.208 35.072 3.904 34.632 Q 3.6 34.192 3.6 33.712 Q 3.6 32.944 4.192 32.472 Q 4.784 32 5.536 31.76 L 5.536 31.696 Q 5.328 31.568 5.144 31.336 Q 4.96 31.104 4.96 30.736 Q 4.96 30.336 5.168 30.096 Q 5.376 29.856 5.704 29.704 Q 6.032 29.552 6.352 29.44 L 6.352 29.344 Q 5.728 29.072 5.264 28.576 Q 4.8 28.08 4.8 27.168 Q 4.8 26.336 5.2 25.704 Q 5.6 25.072 6.296 24.72 Q 6.992 24.368 7.856 24.368 Q 8.432 24.368 8.728 24.424 Q 9.024 24.48 9.312 24.56 Z M 9.52 33.648 L 9.52 33.648 Q 9.52 33.168 9.12 32.872 Q 8.72 32.576 8.128 32.4 Q 7.536 32.224 6.936 32.12 Q 6.336 32.016 5.92 31.936 Q 5.52 32.192 5.184 32.52 Q 4.848 32.848 4.848 33.472 Q 4.848 34.112 5.344 34.592 Q 5.84 35.072 7.056 35.072 Q 8.208 35.072 8.864 34.648 Q 9.52 34.224 9.52 33.648 Z M 9.12 26.72 L 9.12 26.72 Q 9.12 25.92 8.816 25.384 Q 8.512 24.848 7.808 24.848 Q 7.12 24.848 6.672 25.424 Q 6.224 26 6.224 27.168 Q 6.224 28 6.512 28.52 Q 6.8 29.04 7.488 29.04 Q 8.288 29.04 8.704 28.368 Q 9.12 27.696 9.12 26.72 Z " fill="black" /><path d="M 13.752 31.394 L 13.752 31.394 L 13.752 34.306 Q 13.752 34.776 13.914 34.922 Q 14.077 35.067 14.592 35.067 L 14.592 35.392 L 12.038 35.392 L 12.038 35.067 Q 12.397 35.067 12.559 35.006 Q 12.722 34.944 12.772 34.77 Q 12.822 34.597 12.822 34.261 L 12.822 31.125 Q 12.822 30.822 12.705 30.722 Q 12.587 30.621 12.352 30.621 Q 12.229 30.621 12.139 30.632 Q 12.05 30.643 12.05 30.643 L 12.05 30.318 L 13.45 29.994 L 13.718 29.994 L 13.718 30.901 L 13.763 30.901 Q 14.222 30.509 14.648 30.234 Q 15.074 29.96 15.645 29.96 Q 16.126 29.96 16.423 30.223 Q 16.72 30.486 16.888 30.89 L 16.933 30.89 Q 17.392 30.43 17.829 30.195 Q 18.266 29.96 18.714 29.96 Q 19.374 29.96 19.766 30.374 Q 20.158 30.789 20.158 31.808 L 20.158 34.093 Q 20.158 34.44 20.198 34.658 Q 20.237 34.877 20.41 34.972 Q 20.584 35.067 20.965 35.067 L 20.965 35.392 L 18.434 35.392 L 18.434 35.067 Q 18.814 35.067 18.982 34.966 Q 19.15 34.866 19.19 34.647 Q 19.229 34.429 19.229 34.093 L 19.229 31.942 Q 19.229 31.427 19.1 31.158 Q 18.971 30.89 18.753 30.783 Q 18.534 30.677 18.266 30.677 Q 17.918 30.677 17.588 30.906 Q 17.258 31.136 16.978 31.371 L 16.978 34.093 Q 16.978 34.474 17.028 34.686 Q 17.078 34.899 17.258 34.983 Q 17.437 35.067 17.84 35.067 L 17.84 35.392 L 15.186 35.392 L 15.186 35.067 Q 15.589 35.067 15.768 34.989 Q 15.947 34.91 15.998 34.698 Q 16.048 34.485 16.048 34.093 L 16.048 31.875 Q 16.048 31.158 15.796 30.918 Q 15.544 30.677 15.152 30.677 Q 14.715 30.677 14.357 30.923 Q 13.998 31.17 13.752 31.394 Z " fill="black" /></g></g></g><g><g><g><path d="M -42.102 89.956 L -42.102 89.956 Q -42.102 90.804 -42.422 91.38 Q -42.742 91.956 -43.254 92.324 Q -43.766 92.692 -44.35 92.892 Q -44.934 93.092 -45.462 93.188 L -45.462 93.268 Q -45.174 93.46 -44.918 93.852 Q -44.662 94.244 -44.286 94.98 Q -43.91 95.716 -43.254 96.964 Q -42.982 97.444 -42.654 97.612 Q -42.326 97.78 -41.782 97.78 L -41.878 98.26 L -44.31 98.26 Q -44.758 97.268 -45.062 96.604 Q -45.366 95.94 -45.59 95.492 Q -45.814 95.044 -45.982 94.692 Q -46.15 94.34 -46.342 93.972 Q -46.518 93.636 -46.726 93.532 Q -46.934 93.428 -47.366 93.428 L -47.702 93.428 L -48.294 96.276 Q -48.422 96.932 -48.382 97.26 Q -48.342 97.588 -48.022 97.684 Q -47.702 97.78 -47.014 97.78 L -47.094 98.26 L -51.51 98.26 L -51.414 97.78 Q -50.822 97.78 -50.502 97.684 Q -50.182 97.588 -50.014 97.268 Q -49.846 96.948 -49.718 96.276 L -48.31 89.412 Q -48.214 88.964 -48.262 88.708 Q -48.31 88.452 -48.59 88.34 Q -48.87 88.228 -49.51 88.228 L -49.414 87.748 L -45.654 87.748 Q -43.974 87.748 -43.038 88.268 Q -42.102 88.788 -42.102 89.956 Z M -46.694 88.42 L -46.694 88.42 L -47.59 92.836 L -47.094 92.852 Q -46.134 92.82 -45.358 92.54 Q -44.582 92.26 -44.134 91.652 Q -43.686 91.044 -43.686 90.02 Q -43.686 89.588 -43.87 89.212 Q -44.054 88.836 -44.502 88.604 Q -44.95 88.372 -45.75 88.372 Q -46.054 88.372 -46.238 88.38 Q -46.422 88.388 -46.694 88.42 Z " fill="black" /><path d="M -35.29 101.418 L -35.29 101.418 L -36.723 101.676 L -36.981 101.676 L -36.981 100.903 L -37.026 100.903 Q -37.339 101.183 -37.77 101.446 Q -38.202 101.71 -38.762 101.71 Q -39.389 101.71 -39.82 101.374 Q -40.251 101.038 -40.464 100.461 Q -40.677 99.884 -40.677 99.167 Q -40.677 98.238 -40.33 97.571 Q -39.982 96.905 -39.394 96.546 Q -38.806 96.188 -38.101 96.188 Q -37.821 96.188 -37.546 96.25 Q -37.272 96.311 -37.014 96.457 L -37.014 94.99 Q -37.014 94.62 -37.098 94.508 Q -37.182 94.396 -37.507 94.396 Q -37.586 94.396 -37.692 94.407 Q -37.798 94.418 -37.798 94.418 L -37.798 94.105 L -36.387 93.713 L -36.085 93.713 L -36.085 100.422 Q -36.085 100.858 -35.962 100.987 Q -35.838 101.116 -35.525 101.116 L -35.29 101.116 Z M -37.014 100.489 L -37.014 100.489 L -37.014 97.532 Q -37.082 97.185 -37.339 96.91 Q -37.597 96.636 -38.123 96.636 Q -38.829 96.636 -39.266 97.151 Q -39.702 97.666 -39.702 98.73 Q -39.702 99.884 -39.327 100.394 Q -38.952 100.903 -38.235 100.903 Q -37.843 100.903 -37.574 100.797 Q -37.306 100.69 -37.014 100.489 Z " fill="black" /><path d="M -30.362 100.018 L -30.362 100.018 L -30.149 100.175 Q -30.35 100.601 -30.619 100.954 Q -30.888 101.306 -31.274 101.519 Q -31.661 101.732 -32.243 101.732 Q -32.915 101.732 -33.458 101.413 Q -34.002 101.094 -34.315 100.472 Q -34.629 99.85 -34.629 98.954 Q -34.629 98.014 -34.31 97.403 Q -33.99 96.793 -33.453 96.49 Q -32.915 96.188 -32.266 96.188 Q -31.347 96.188 -30.787 96.826 Q -30.227 97.465 -30.182 98.641 L -33.722 98.641 Q -33.722 99.414 -33.47 99.912 Q -33.218 100.41 -32.82 100.651 Q -32.422 100.892 -31.974 100.892 Q -31.515 100.892 -31.23 100.769 Q -30.944 100.646 -30.742 100.45 Q -30.541 100.254 -30.362 100.018 Z M -33.733 98.226 L -33.733 98.226 L -31.235 98.226 Q -31.246 97.812 -31.381 97.448 Q -31.515 97.084 -31.773 96.86 Q -32.03 96.636 -32.434 96.636 Q -33.598 96.636 -33.733 98.226 Z " fill="black" /><path d="M -28.379 99.559 L -28.379 99.559 L -28.379 99.537 Q -28.782 99.302 -29.012 98.932 Q -29.242 98.562 -29.242 98.014 Q -29.242 97.174 -28.67 96.681 Q -28.099 96.188 -27.214 96.188 Q -26.845 96.188 -26.565 96.255 Q -26.285 96.322 -26.128 96.395 Q -25.971 96.468 -25.971 96.468 L -24.526 96.39 L -24.526 96.994 L -25.579 96.961 L -25.579 97.017 Q -25.456 97.185 -25.316 97.465 Q -25.176 97.745 -25.176 98.17 Q -25.176 98.954 -25.725 99.414 Q -26.274 99.873 -27.158 99.873 Q -27.427 99.873 -27.662 99.828 Q -27.898 99.783 -28.122 99.705 Q -28.2 99.817 -28.306 100.063 Q -28.413 100.31 -28.413 100.455 Q -28.413 100.702 -28.138 100.802 Q -27.864 100.903 -27.091 100.903 Q -26.386 100.903 -25.82 100.97 Q -25.254 101.038 -24.93 101.318 Q -24.605 101.598 -24.605 102.236 Q -24.605 102.796 -24.879 103.182 Q -25.154 103.569 -25.607 103.804 Q -26.061 104.039 -26.604 104.146 Q -27.147 104.252 -27.674 104.252 Q -28.402 104.252 -28.822 104.073 Q -29.242 103.894 -29.41 103.608 Q -29.578 103.322 -29.578 103.02 Q -29.578 102.74 -29.348 102.432 Q -29.118 102.124 -28.67 101.687 L -28.67 101.642 Q -28.95 101.497 -29.124 101.284 Q -29.298 101.071 -29.298 100.836 Q -29.298 100.534 -29.034 100.198 Q -28.771 99.862 -28.379 99.559 Z M -28.39 101.732 L -28.39 101.732 Q -28.57 102.046 -28.637 102.253 Q -28.704 102.46 -28.704 102.639 Q -28.704 103.614 -27.024 103.614 Q -26.363 103.614 -25.954 103.446 Q -25.546 103.278 -25.361 103.031 Q -25.176 102.785 -25.176 102.55 Q -25.176 102.258 -25.355 102.096 Q -25.534 101.934 -25.82 101.866 Q -26.106 101.799 -26.425 101.777 Q -26.744 101.754 -27.024 101.754 Q -27.091 101.754 -27.125 101.754 Q -27.573 101.743 -27.819 101.743 Q -28.066 101.743 -28.189 101.738 Q -28.312 101.732 -28.39 101.732 Z M -27.293 96.591 L -27.293 96.591 Q -27.73 96.591 -27.993 96.927 Q -28.256 97.263 -28.256 97.969 Q -28.256 98.686 -27.976 99.083 Q -27.696 99.481 -27.147 99.481 Q -26.722 99.481 -26.447 99.19 Q -26.173 98.898 -26.173 98.103 Q -26.173 97.42 -26.464 97.006 Q -26.755 96.591 -27.293 96.591 Z " fill="black" /><path d="M -19.744 100.018 L -19.744 100.018 L -19.531 100.175 Q -19.733 100.601 -20.002 100.954 Q -20.27 101.306 -20.657 101.519 Q -21.043 101.732 -21.626 101.732 Q -22.298 101.732 -22.841 101.413 Q -23.384 101.094 -23.698 100.472 Q -24.011 99.85 -24.011 98.954 Q -24.011 98.014 -23.692 97.403 Q -23.373 96.793 -22.835 96.49 Q -22.298 96.188 -21.648 96.188 Q -20.73 96.188 -20.17 96.826 Q -19.61 97.465 -19.565 98.641 L -23.104 98.641 Q -23.104 99.414 -22.852 99.912 Q -22.6 100.41 -22.202 100.651 Q -21.805 100.892 -21.357 100.892 Q -20.898 100.892 -20.612 100.769 Q -20.326 100.646 -20.125 100.45 Q -19.923 100.254 -19.744 100.018 Z M -23.115 98.226 L -23.115 98.226 L -20.618 98.226 Q -20.629 97.812 -20.763 97.448 Q -20.898 97.084 -21.155 96.86 Q -21.413 96.636 -21.816 96.636 Q -22.981 96.636 -23.115 98.226 Z " fill="black" /><path d="M -13.808 98.182 L -13.808 98.182 L -13.808 100.489 Q -13.808 100.802 -13.758 100.982 Q -13.707 101.161 -13.528 101.234 Q -13.349 101.306 -12.979 101.306 L -12.979 101.62 L -15.566 101.62 L -15.566 101.306 Q -15.163 101.306 -14.99 101.234 Q -14.816 101.161 -14.777 100.982 Q -14.738 100.802 -14.738 100.489 L -14.738 98.462 Q -14.738 97.79 -14.889 97.454 Q -15.04 97.118 -15.275 97.011 Q -15.51 96.905 -15.768 96.905 Q -16.216 96.905 -16.541 97.146 Q -16.866 97.386 -17.123 97.61 L -17.123 100.489 Q -17.123 100.802 -17.078 100.982 Q -17.034 101.161 -16.854 101.234 Q -16.675 101.306 -16.272 101.306 L -16.272 101.62 L -18.837 101.62 L -18.837 101.306 Q -18.456 101.306 -18.294 101.234 Q -18.131 101.161 -18.092 100.982 Q -18.053 100.802 -18.053 100.489 L -18.053 97.342 Q -18.053 97.039 -18.176 96.944 Q -18.299 96.849 -18.523 96.849 Q -18.669 96.849 -18.747 96.86 Q -18.826 96.871 -18.826 96.871 L -18.826 96.546 L -17.403 96.222 L -17.146 96.222 L -17.157 97.129 L -17.112 97.129 Q -16.653 96.726 -16.244 96.457 Q -15.835 96.188 -15.309 96.188 Q -14.547 96.188 -14.178 96.703 Q -13.808 97.218 -13.808 98.182 Z " fill="black" /></g></g></g><circle cx="-69.0" cy="29.999999999999993" r="2.6999999999999997" style="stroke:black;fill:white;stroke-width:2.0;" /><g><g><g><path d="M -89.455 24.536 L -89.455 24.536 L -89.103 24.536 L -89.855 27.608 Q -89.967 28.024 -90.087 28.608 Q -90.207 29.192 -90.207 29.736 Q -90.207 30.36 -89.951 30.816 Q -89.695 31.272 -88.959 31.272 Q -88.143 31.272 -87.551 30.88 Q -86.959 30.488 -86.583 29.88 Q -86.207 29.272 -86.023 28.6 Q -85.839 27.928 -85.839 27.368 Q -85.839 26.952 -85.983 26.648 Q -86.127 26.344 -86.327 26.104 Q -86.527 25.864 -86.671 25.64 Q -86.815 25.416 -86.815 25.16 Q -86.815 24.84 -86.639 24.664 Q -86.463 24.488 -86.207 24.488 Q -85.663 24.488 -85.327 25.032 Q -84.991 25.576 -84.991 26.424 Q -84.991 27.16 -85.175 27.968 Q -85.359 28.776 -85.727 29.544 Q -86.095 30.312 -86.639 30.936 Q -87.183 31.56 -87.887 31.928 Q -88.591 32.296 -89.455 32.296 Q -90.255 32.296 -90.703 31.976 Q -91.151 31.656 -91.335 31.128 Q -91.519 30.6 -91.519 29.992 Q -91.519 29.416 -91.407 28.808 Q -91.295 28.2 -91.167 27.704 L -90.847 26.488 Q -90.815 26.36 -90.751 26.104 Q -90.687 25.848 -90.687 25.608 Q -90.687 25.4 -90.767 25.256 Q -90.847 25.112 -91.071 25.112 Q -91.263 25.112 -91.535 25.136 Q -91.807 25.16 -91.807 25.16 L -91.807 24.712 Z " fill="black" /><path d="M -81.217 35.198 L -81.217 35.198 L -81.217 35.512 L -83.737 35.512 L -83.737 35.198 Q -83.356 35.198 -83.194 35.126 Q -83.031 35.053 -82.992 34.874 Q -82.953 34.694 -82.953 34.381 L -82.953 31.256 Q -82.953 30.898 -83.076 30.814 Q -83.199 30.73 -83.446 30.73 Q -83.558 30.73 -83.642 30.741 Q -83.726 30.752 -83.726 30.752 L -83.726 30.427 L -82.314 30.114 L -82.023 30.114 L -82.023 34.381 Q -82.023 34.706 -81.978 34.885 Q -81.934 35.064 -81.76 35.131 Q -81.586 35.198 -81.217 35.198 Z M -82.471 27.974 L -82.471 27.974 Q -82.18 27.974 -82.006 28.159 Q -81.833 28.344 -81.833 28.602 Q -81.833 28.859 -82.006 29.05 Q -82.18 29.24 -82.471 29.24 Q -82.751 29.24 -82.93 29.05 Q -83.11 28.859 -83.11 28.602 Q -83.11 28.344 -82.936 28.159 Q -82.762 27.974 -82.471 27.974 Z " fill="black" /><path d="M -75.516 32.074 L -75.516 32.074 L -75.516 34.381 Q -75.516 34.694 -75.466 34.874 Q -75.415 35.053 -75.236 35.126 Q -75.057 35.198 -74.687 35.198 L -74.687 35.512 L -77.274 35.512 L -77.274 35.198 Q -76.871 35.198 -76.698 35.126 Q -76.524 35.053 -76.485 34.874 Q -76.446 34.694 -76.446 34.381 L -76.446 32.354 Q -76.446 31.682 -76.597 31.346 Q -76.748 31.01 -76.983 30.903 Q -77.218 30.797 -77.476 30.797 Q -77.924 30.797 -78.249 31.038 Q -78.574 31.278 -78.831 31.502 L -78.831 34.381 Q -78.831 34.694 -78.786 34.874 Q -78.742 35.053 -78.562 35.126 Q -78.383 35.198 -77.98 35.198 L -77.98 35.512 L -80.545 35.512 L -80.545 35.198 Q -80.164 35.198 -80.002 35.126 Q -79.839 35.053 -79.8 34.874 Q -79.761 34.694 -79.761 34.381 L -79.761 31.234 Q -79.761 30.931 -79.884 30.836 Q -80.007 30.741 -80.231 30.741 Q -80.377 30.741 -80.455 30.752 Q -80.534 30.763 -80.534 30.763 L -80.534 30.438 L -79.111 30.114 L -78.854 30.114 L -78.865 31.021 L -78.82 31.021 Q -78.361 30.618 -77.952 30.349 Q -77.543 30.08 -77.017 30.08 Q -76.255 30.08 -75.886 30.595 Q -75.516 31.11 -75.516 32.074 Z " fill="black" /></g></g></g><circle cx="1.102182119232618e-15" cy="-18.0" r="2.6999999999999997" style="stroke:black;fill:white;stroke-width:2.0;" /><g><g><g><path d="M -6.106 -35.388 L -6.106 -35.388 L -7.306 -29.692 Q -7.306 -29.692 -7.346 -29.444 Q -7.386 -29.196 -7.386 -29.02 Q -7.386 -28.716 -7.098 -28.716 Q -6.682 -28.716 -6.362 -29.028 Q -6.042 -29.34 -5.85 -29.548 L -5.53 -29.308 Q -5.802 -28.924 -6.122 -28.532 Q -6.442 -28.14 -6.842 -27.884 Q -7.242 -27.628 -7.77 -27.628 Q -8.778 -27.628 -8.778 -28.476 Q -8.778 -28.684 -8.722 -29.012 Q -8.666 -29.34 -8.506 -30.044 L -7.69 -33.852 Q -7.69 -33.852 -7.666 -33.996 Q -7.642 -34.14 -7.642 -34.348 Q -7.642 -34.508 -7.738 -34.66 Q -7.834 -34.812 -8.154 -34.812 Q -8.362 -34.812 -8.53 -34.796 Q -8.698 -34.78 -8.698 -34.78 L -8.698 -35.212 L -6.458 -35.388 Z M -5.722 -37.532 L -5.722 -37.532 Q -5.722 -37.132 -5.978 -36.9 Q -6.234 -36.668 -6.602 -36.668 Q -6.954 -36.668 -7.194 -36.892 Q -7.434 -37.116 -7.434 -37.532 Q -7.434 -37.948 -7.194 -38.18 Q -6.954 -38.412 -6.554 -38.412 Q -6.154 -38.412 -5.938 -38.172 Q -5.722 -37.932 -5.722 -37.532 Z " fill="black" /><path d="M -2.337 -29.844 L -2.337 -29.844 Q -1.183 -29.844 -0.517 -29.127 Q 0.15 -28.41 0.15 -27.167 Q 0.15 -26.226 -0.17 -25.588 Q -0.489 -24.95 -1.049 -24.625 Q -1.609 -24.3 -2.337 -24.3 Q -3.513 -24.3 -4.179 -25.034 Q -4.846 -25.767 -4.846 -27.122 Q -4.846 -27.94 -4.532 -28.55 Q -4.218 -29.161 -3.653 -29.502 Q -3.087 -29.844 -2.337 -29.844 Z M -2.382 -29.418 L -2.382 -29.418 Q -3.02 -29.418 -3.412 -28.881 Q -3.804 -28.343 -3.804 -27.268 Q -3.804 -25.935 -3.406 -25.336 Q -3.009 -24.737 -2.292 -24.748 Q -1.833 -24.748 -1.519 -24.961 Q -1.206 -25.174 -1.043 -25.689 Q -0.881 -26.204 -0.881 -27.111 Q -0.881 -28.142 -1.256 -28.78 Q -1.631 -29.418 -2.382 -29.418 Z " fill="black" /><path d="M 6.578 -24.916 L 6.578 -24.916 L 6.578 -24.614 L 5.156 -24.356 L 4.91 -24.356 L 4.91 -25.218 L 4.854 -25.218 Q 4.406 -24.782 3.98 -24.541 Q 3.554 -24.3 3.017 -24.3 Q 2.322 -24.3 1.936 -24.754 Q 1.55 -25.207 1.55 -26.35 L 1.55 -28.623 Q 1.55 -29.082 1.398 -29.178 Q 1.247 -29.273 0.788 -29.284 L 0.788 -29.598 L 2.233 -29.766 L 2.479 -29.766 L 2.479 -26.495 Q 2.479 -25.644 2.765 -25.33 Q 3.05 -25.017 3.487 -25.017 Q 3.913 -25.017 4.221 -25.207 Q 4.529 -25.398 4.865 -25.689 L 4.865 -28.634 Q 4.865 -29.082 4.68 -29.183 Q 4.495 -29.284 3.958 -29.284 L 3.958 -29.598 L 5.526 -29.766 L 5.794 -29.766 L 5.794 -25.655 Q 5.794 -25.162 5.929 -25.039 Q 6.063 -24.916 6.466 -24.916 Z " fill="black" /><path d="M 10.196 -25.42 L 10.196 -25.42 L 10.409 -25.241 Q 10.196 -24.938 10.011 -24.731 Q 9.826 -24.524 9.602 -24.412 Q 9.378 -24.3 9.02 -24.3 Q 8.46 -24.3 8.202 -24.63 Q 7.945 -24.961 7.945 -25.711 L 7.945 -29.183 L 7.329 -29.183 L 7.329 -29.441 Q 7.721 -29.687 8.006 -30.107 Q 8.292 -30.527 8.594 -31.244 L 8.886 -31.244 L 8.874 -29.654 L 10.14 -29.654 L 10.14 -29.183 L 8.874 -29.183 L 8.874 -26.025 Q 8.874 -25.431 8.981 -25.196 Q 9.087 -24.961 9.412 -24.961 Q 9.681 -24.961 9.832 -25.073 Q 9.983 -25.185 10.196 -25.42 Z " fill="black" /></g></g></g></svg>