<svg xmlns="http://www.w3.org/2000/svg" xml:lang="en" height="178.64000000000001pt" width="338.10880000000003pt" viewBox="-48.50880000000001 -19.0 338.10880000000003 178.64000000000001"><circle cx="-6.613092715395707e-15" cy="36.0" r="18.0" style="stroke:black;fill:none;stroke-width:2.0;stroke-dasharray:-;" /><path d="M 0.0,-0.0 L 0.0,-14.4" style="stroke:black;fill:none;stroke-width:2.0;stroke-dasharray:-;stroke-linecap:round;stroke-linejoin:round;" /><path d="M 0.0,-14.4 L -6.75,-14.4" style="stroke:black;fill:none;stroke-width:2.0;stroke-dasharray:-;stroke-linecap:round;stroke-linejoin:round;" /><path d="M 0.0,-14.4 L 6.75,-14.4" style="stroke:black;fill:none;stroke-width:2.0;stroke-dasharray:-;stroke-linecap:round;stroke-linejoin:round;" /><path d="M 0.0,-0.0 L -3.3065463576978533e-15,18.0 L -3.3065463576978533e-15,18.0 M -9.919639073093561e-15,54.0 L -9.919639073093561e-15,54.0 L -1.3226185430791413e-14,72.0" style="stroke:black;fill:none;stroke-width:2.0;stroke-dasharray:-;stroke-linecap:round;stroke-linejoin:round;" /><path d="M -4.9598195365467806e-15,27.0 L -6.819055509535661e-15,36.0" style="stroke:black;fill:none;stroke-width:2.0;stroke-dasharray:-;stroke-linecap:round;stroke-linejoin:round;" /><path d="M -7.944741364309306e-15 43.0 L -2.7000000000000064 36.0 L 2.699999999999993 36.0 Z" style="stroke:black;fill:black;stroke-linecap:butt;stroke-linejoin:miter;" /><path d="M -1.3226185430791413e-14,72.0 L -1.3226185430791413e-14,87.0 L 14.999999999999984,87.0 L 14.999999999999984,117.0 L -1.3226185430791413e-14,117.0 L -1.3226185430791413e-14,132.0" style="stroke:black;fill:none;stroke-width:2.0;stroke-dasharray:-;stroke-linecap:round;stroke-linejoin:round;" /><path d="M 14.999999999999984,117.0 L 8.999999999999988,117.0" style="stroke:black;fill:none;stroke-width:2.0;stroke-dasharray:-;stroke-linecap:round;stroke-linejoin:round;" /><path d="M 1.9999999999999867 117.0 L 8.999999999999988 112.5 L 8.999999999999986 121.5 Z" style="stroke:black;fill:black;stroke-linecap:butt;stroke-linejoin:miter;" /><path d="M 17.999999999999986,90.0 L 17.999999999999986,114.00000000000001" style="stroke:black;fill:none;stroke-width:2.0;stroke-dasharray:-;stroke-linecap:round;stroke-linejoin:round;" /><path d="M 17.999999999999986,101.99999999999999 L 32.999999999999986,101.99999999999999" style="stroke:black;fill:none;stroke-width:2.0;stroke-dasharray:-;stroke-linecap:round;stroke-linejoin:round;" /><path d="M -1.3226185430791413e-14,132.0 L -1.3226185430791413e-14,146.39999999999998 L -9.000000000000014,146.39999999999998 L 8.999999999999988,146.39999999999998 M -6.300000000000012,150.72 L 6.2999999999999865,150.72 M -1.8000000000000134,155.04 L 1.799999999999987,155.04" style="stroke:black;fill:none;stroke-width:2.0;stroke-dasharray:-;stroke-linecap:round;stroke-linejoin:round;" /><path d="M 32.999999999999986,101.99999999999999 L 41.99999999999998,101.99999999999999 L 50.99999999999998,101.99999999999999" style="stroke:black;fill:none;stroke-width:2.0;stroke-dasharray:-;stroke-linecap:round;stroke-linejoin:round;" /><path d="M 50.99999999999998,101.99999999999999 L 50.99999999999998,87.0 L 50.99999999999998,72.0" style="stroke:black;fill:none;stroke-width:2.0;stroke-dasharray:-;stroke-linecap:round;stroke-linejoin:round;" /><path d="M 50.99999999999998,72.0 L 25.499999999999982,72.0 L -1.5987211554602254e-14,71.99999999999999" style="stroke:black;fill:none;stroke-width:2.0;stroke-dasharray:-;stroke-linecap:round;stroke-linejoin:round;" /><path d="M 32.999999999999986,101.99999999999999 L 59.99999999999998,101.99999999999999 L 86.99999999999997,101.99999999999999" style="stroke:black;fill:none;stroke-width:2.0;stroke-dasharray:-;stroke-linecap:round;stroke-linejoin:round;" /><path d="M 119.99999999999997,131.99999999999997 L 119.99999999999997,117.0 L 104.99999999999997,117.0 L 104.99999999999997,87.0 L 119.99999999999997,87.0 L 119.99999999999997,71.99999999999999" style="stroke:black;fill:none;stroke-width:2.0;stroke-dasharray:-;stroke-linecap:round;stroke-linejoin:round;" /><path d="M 110.99999999999997,117.0 L 104.99999999999997,117.0" style="stroke:black;fill:none;stroke-width:2.0;stroke-dasharray:-;stroke-linecap:round;stroke-linejoin:round;" /><path d="M 117.99999999999997 117.0 L 110.99999999999997 121.5 L 110.99999999999997 112.5 Z" style="stroke:black;fill:black;stroke-linecap:butt;stroke-linejoin:miter;" /><path d="M 101.99999999999997,114.0 L 101.99999999999997,89.99999999999999" style="stroke:black;fill:none;stroke-width:2.0;stroke-dasharray:-;stroke-linecap:round;stroke-linejoin:round;" /><path d="M 86.99999999999997,101.99999999999999 L 101.99999999999997,101.99999999999999" style="stroke:black;fill:none;stroke-width:2.0;stroke-dasharray:-;stroke-linecap:round;stroke-linejoin:round;" /><path d="M 119.99999999999997,131.99999999999997 L 119.99999999999997,146.39999999999998 L 110.99999999999997,146.39999999999998 L 128.99999999999997,146.39999999999998 M 113.69999999999997,150.71999999999997 L 126.29999999999997,150.71999999999997 M 118.19999999999997,155.03999999999996 L 121.79999999999997,155.03999999999996" style="stroke:black;fill:none;stroke-width:2.0;stroke-dasharray:-;stroke-linecap:round;stroke-linejoin:round;" /><path d="M 119.99999999999997,71.99999999999999 L 119.99999999999997,53.99999999999999 L 119.99999999999997,35.99999999999999" style="stroke:black;fill:none;stroke-width:2.0;stroke-dasharray:-;stroke-linecap:round;stroke-linejoin:round;" /><path d="M 50.99999999999998,72.0 L 113.99999999999997,72.0 L 176.99999999999997,72.0" style="stroke:black;fill:none;stroke-width:2.0;stroke-dasharray:-;stroke-linecap:round;stroke-linejoin:round;" /><path d="M 176.99999999999997,72.0 L 176.99999999999997,87.0 L 176.99999999999997,101.99999999999999" style="stroke:black;fill:none;stroke-width:2.0;stroke-dasharray:-;stroke-linecap:round;stroke-linejoin:round;" /><path d="M 176.99999999999997,101.99999999999999 L 194.99999999999997,101.99999999999999 L 212.99999999999997,101.99999999999999" style="stroke:black;fill:none;stroke-width:2.0;stroke-dasharray:-;stroke-linecap:round;stroke-linejoin:round;" /><path d="M 245.99999999999994,131.99999999999997 L 245.99999999999994,117.0 L 230.99999999999997,117.0 L 230.99999999999997,87.0 L 245.99999999999994,87.0 L 245.99999999999994,71.99999999999999" style="stroke:black;fill:none;stroke-width:2.0;stroke-dasharray:-;stroke-linecap:round;stroke-linejoin:round;" /><path d="M 236.99999999999994,117.0 L 230.99999999999997,117.0" style="stroke:black;fill:none;stroke-width:2.0;stroke-dasharray:-;stroke-linecap:round;stroke-linejoin:round;" /><path d="M 243.99999999999994 117.0 L 236.99999999999994 121.5 L 236.99999999999994 112.5 Z" style="stroke:black;fill:black;stroke-linecap:butt;stroke-linejoin:miter;" /><path d="M 228.0,114.0 L 228.0,89.99999999999999" style="stroke:black;fill:none;stroke-width:2.0;stroke-dasharray:-;stroke-linecap:round;stroke-linejoin:round;" /><path d="M 212.99999999999997,101.99999999999999 L 228.0,101.99999999999999" style="stroke:black;fill:none;stroke-width:2.0;stroke-dasharray:-;stroke-linecap:round;stroke-linejoin:round;" /><path d="M 245.99999999999994,131.99999999999997 L 245.99999999999994,146.39999999999998 L 236.99999999999994,146.39999999999998 L 254.99999999999994,146.39999999999998 M 239.69999999999996,150.71999999999997 L 252.29999999999995,150.71999999999997 M 244.19999999999996,155.03999999999996 L 247.79999999999995,155.03999999999996" style="stroke:black;fill:none;stroke-width:2.0;stroke-dasharray:-;stroke-linecap:round;stroke-linejoin:round;" /><path d="M 245.99999999999994,71.99999999999999 L 245.99999999999994,53.99999999999999 L 245.99999999999994,35.99999999999999" style="stroke:black;fill:none;stroke-width:2.0;stroke-dasharray:-;stroke-linecap:round;stroke-linejoin:round;" /><g><g><g><path d="M -49.032 37.407 L -49.032 37.407 L -47.72 31.103 Q -47.576 30.479 -47.584 30.119 Q -47.592 29.759 -47.88 29.615 Q -48.168 29.471 -48.904 29.471 L -48.808 28.991 L -44.376 28.991 L -44.472 29.471 Q -45.176 29.471 -45.528 29.615 Q -45.88 29.759 -46.024 30.119 Q -46.168 30.479 -46.296 31.103 L -47.608 37.471 Q -47.656 37.727 -47.688 37.935 Q -47.72 38.143 -47.72 38.319 Q -47.72 38.767 -47.456 38.895 Q -47.192 39.023 -46.44 39.023 L -46.536 39.503 L -50.904 39.503 L -50.808 39.023 Q -50.152 39.023 -49.824 38.911 Q -49.496 38.799 -49.336 38.455 Q -49.176 38.111 -49.032 37.407 Z " fill="black" /><path d="M -42.035 34.497 L -42.035 34.497 L -42.035 37.969 L -41.979 37.969 Q -41.654 37.588 -41.212 37.286 Q -40.77 36.983 -40.142 36.983 Q -39.56 36.983 -39.084 37.336 Q -38.608 37.689 -38.322 38.31 Q -38.037 38.932 -38.037 39.738 Q -38.037 40.814 -38.429 41.542 Q -38.821 42.27 -39.498 42.634 Q -40.176 42.998 -41.038 42.998 Q -41.542 42.998 -41.968 42.914 Q -42.394 42.83 -42.69 42.718 Q -42.987 42.606 -43.122 42.55 L -43.122 35.83 Q -43.122 35.415 -43.211 35.298 Q -43.301 35.18 -43.682 35.18 Q -43.805 35.18 -43.911 35.197 Q -44.018 35.214 -44.018 35.214 L -44.018 34.788 L -42.494 34.497 Z M -42.035 38.551 L -42.035 38.551 L -42.035 41.911 Q -41.901 42.158 -41.61 42.303 Q -41.318 42.449 -40.837 42.449 Q -40.243 42.449 -39.885 42.13 Q -39.526 41.81 -39.364 41.278 Q -39.202 40.746 -39.202 40.119 Q -39.202 39.548 -39.33 39.027 Q -39.459 38.506 -39.784 38.182 Q -40.109 37.857 -40.68 37.857 Q -40.982 37.857 -41.257 37.974 Q -41.531 38.092 -41.733 38.254 Q -41.934 38.417 -42.035 38.551 Z " fill="black" /><path d="M -33.949 42.449 L -33.949 42.449 L -33.949 42.863 L -36.794 42.863 L -36.794 42.449 Q -36.402 42.449 -36.228 42.365 Q -36.054 42.281 -36.01 42.096 Q -35.965 41.911 -35.965 41.609 L -35.965 38.226 Q -35.965 37.846 -36.088 37.767 Q -36.211 37.689 -36.502 37.689 Q -36.648 37.689 -36.738 37.7 Q -36.827 37.711 -36.827 37.711 L -36.827 37.263 L -35.326 37.017 L -34.867 37.017 L -34.867 41.609 Q -34.867 41.934 -34.817 42.118 Q -34.766 42.303 -34.57 42.376 Q -34.374 42.449 -33.949 42.449 Z M -35.427 34.542 L -35.427 34.542 Q -35.102 34.542 -34.884 34.766 Q -34.666 34.99 -34.666 35.281 Q -34.666 35.55 -34.884 35.774 Q -35.102 35.998 -35.427 35.998 Q -35.741 35.998 -35.948 35.774 Q -36.155 35.55 -36.155 35.281 Q -36.155 34.99 -35.948 34.766 Q -35.741 34.542 -35.427 34.542 Z " fill="black" /><path d="M -29.469 42.158 L -29.469 42.158 L -29.547 42.158 Q -29.928 42.471 -30.387 42.706 Q -30.846 42.942 -31.384 42.942 Q -32.09 42.942 -32.465 42.516 Q -32.84 42.09 -32.84 41.486 Q -32.84 40.97 -32.599 40.623 Q -32.358 40.276 -31.972 40.058 Q -31.586 39.839 -31.138 39.705 Q -30.69 39.57 -30.275 39.492 Q -29.861 39.414 -29.581 39.346 L -29.581 38.764 Q -29.581 38.014 -29.878 37.728 Q -30.174 37.442 -30.746 37.442 Q -31.093 37.442 -31.244 37.532 Q -31.395 37.622 -31.434 37.823 Q -31.474 38.025 -31.485 38.35 Q -31.496 38.596 -31.63 38.747 Q -31.765 38.898 -32.022 38.898 Q -32.269 38.898 -32.442 38.747 Q -32.616 38.596 -32.616 38.305 Q -32.616 37.958 -32.347 37.655 Q -32.078 37.353 -31.58 37.168 Q -31.082 36.983 -30.41 36.983 Q -29.402 36.983 -28.948 37.448 Q -28.494 37.913 -28.494 38.842 L -28.494 41.586 Q -28.494 41.956 -28.41 42.062 Q -28.326 42.169 -28.147 42.169 Q -27.957 42.169 -27.817 42.09 Q -27.677 42.012 -27.554 41.866 L -27.307 42.102 Q -27.89 42.93 -28.674 42.93 Q -29.11 42.93 -29.273 42.723 Q -29.435 42.516 -29.469 42.158 Z M -29.581 41.743 L -29.581 41.743 L -29.581 39.772 Q -30.096 39.906 -30.589 40.069 Q -31.082 40.231 -31.401 40.511 Q -31.72 40.791 -31.72 41.295 Q -31.72 41.732 -31.468 41.984 Q -31.216 42.236 -30.824 42.236 Q -30.589 42.236 -30.258 42.13 Q -29.928 42.023 -29.581 41.743 Z " fill="black" /><path d="M -26.534 40.825 L -26.534 40.825 L -26.176 40.825 Q -26.03 41.474 -25.829 41.833 Q -25.627 42.191 -25.308 42.331 Q -24.989 42.471 -24.53 42.471 Q -24.003 42.471 -23.718 42.298 Q -23.432 42.124 -23.432 41.687 Q -23.432 41.396 -23.572 41.2 Q -23.712 41.004 -24.02 40.825 Q -24.328 40.646 -24.843 40.41 Q -25.37 40.153 -25.745 39.929 Q -26.12 39.705 -26.316 39.402 Q -26.512 39.1 -26.512 38.641 Q -26.512 37.834 -25.969 37.409 Q -25.426 36.983 -24.608 36.983 Q -24.115 36.983 -23.774 37.106 Q -23.432 37.23 -23.23 37.319 L -23.208 37.319 L -23.029 37.039 L -22.715 37.039 L -22.693 38.898 L -23.085 38.898 Q -23.298 38.036 -23.678 37.739 Q -24.059 37.442 -24.552 37.442 Q -25.067 37.442 -25.33 37.666 Q -25.594 37.89 -25.594 38.249 Q -25.594 38.54 -25.414 38.73 Q -25.235 38.921 -24.905 39.083 Q -24.574 39.246 -24.115 39.47 Q -23.6 39.716 -23.208 39.979 Q -22.816 40.242 -22.592 40.573 Q -22.368 40.903 -22.368 41.396 Q -22.368 41.99 -22.682 42.348 Q -22.995 42.706 -23.488 42.858 Q -23.981 43.009 -24.518 43.009 Q -25.067 43.009 -25.37 42.897 Q -25.672 42.785 -25.93 42.684 L -25.974 42.684 L -26.254 42.975 L -26.512 42.975 Z " fill="black" /></g></g></g><g><g><g><path d="M -28.346 95.48 L -28.346 95.48 L -28.394 95.96 Q -28.97 95.976 -29.322 96.216 Q -29.674 96.456 -30.09 97.064 L -35.722 106.088 L -36.186 106.088 L -36.714 99.864 L -36.778 99.864 L -40.89 106.088 L -41.338 106.088 L -42.122 97.4 Q -42.186 96.616 -42.458 96.288 Q -42.73 95.96 -43.418 95.96 L -43.338 95.48 L -39.338 95.48 L -39.418 95.96 Q -40.106 95.96 -40.378 96.096 Q -40.65 96.232 -40.682 96.552 Q -40.682 96.584 -40.682 96.648 Q -40.682 96.776 -40.682 96.96 Q -40.682 97.144 -40.65 97.368 L -40.234 101.88 L -40.154 103.416 L -40.058 103.416 L -36.826 98.728 L -36.938 97.464 Q -37.002 96.776 -37.106 96.456 Q -37.21 96.136 -37.442 96.048 Q -37.674 95.96 -38.138 95.96 L -38.058 95.48 L -33.978 95.48 L -34.058 95.96 Q -34.938 95.96 -35.234 96.248 Q -35.53 96.536 -35.466 97.432 L -35.082 101.752 L -35.018 103.384 L -34.938 103.384 L -31.53 98.024 Q -31.274 97.624 -31.05 97.192 Q -30.826 96.76 -30.826 96.408 Q -30.826 96.168 -31.002 96.064 Q -31.178 95.96 -31.706 95.96 L -31.61 95.48 Z " fill="black" /><path d="M -24.563 109.352 L -24.563 109.352 L -28.36 109.352 L -28.36 108.949 Q -27.554 108.949 -27.29 108.786 Q -27.027 108.624 -27.027 108.198 L -27.027 103.315 Q -27.027 103.013 -27.117 102.878 Q -27.206 102.744 -27.442 102.744 Q -27.621 102.744 -27.929 102.794 Q -28.237 102.845 -28.461 102.901 L -28.461 102.453 L -26.389 101.882 L -25.907 101.882 L -25.907 108.198 Q -25.907 108.624 -25.622 108.786 Q -25.336 108.949 -24.563 108.949 Z " fill="black" /><path d="M -18.085 94.648 L -18.085 94.648 L -22.245 107.416 L -23.141 107.416 L -18.965 94.648 Z " fill="black" /><path d="M -8.661 102.872 L -8.661 102.872 L -9.621 105.992 L -17.525 105.992 L -17.429 105.512 Q -16.805 105.512 -16.477 105.4 Q -16.149 105.288 -15.973 104.968 Q -15.797 104.648 -15.669 104.008 L -14.293 97.336 Q -14.181 96.808 -14.213 96.504 Q -14.245 96.2 -14.541 96.08 Q -14.837 95.96 -15.525 95.96 L -15.429 95.48 L -10.885 95.48 L -10.965 95.96 Q -11.829 95.96 -12.261 96.224 Q -12.693 96.488 -12.869 97.352 L -14.325 104.52 Q -14.437 105.048 -14.213 105.216 Q -13.989 105.384 -13.285 105.384 L -12.533 105.384 Q -11.765 105.384 -11.285 105.248 Q -10.805 105.112 -10.469 104.824 Q -10.133 104.536 -9.837 104.048 Q -9.541 103.56 -9.173 102.872 Z " fill="black" /><path d="M -3.374 109.352 L -3.374 109.352 L -7.171 109.352 L -7.171 108.949 Q -6.365 108.949 -6.102 108.786 Q -5.838 108.624 -5.838 108.198 L -5.838 103.315 Q -5.838 103.013 -5.928 102.878 Q -6.018 102.744 -6.253 102.744 Q -6.432 102.744 -6.74 102.794 Q -7.048 102.845 -7.272 102.901 L -7.272 102.453 L -5.2 101.882 L -4.718 101.882 L -4.718 108.198 Q -4.718 108.624 -4.433 108.786 Q -4.147 108.949 -3.374 108.949 Z " fill="black" /></g></g></g><circle cx="50.99999999999998" cy="101.99999999999999" r="2.6999999999999997" style="stroke:black;fill:black;stroke-width:2.0;stroke-dasharray:-;" /><circle cx="50.99999999999998" cy="72.0" r="2.6999999999999997" style="stroke:black;fill:black;stroke-width:2.0;stroke-dasharray:-;" /><g><g><g><path d="M 133.918 95.48 L 133.918 95.48 L 133.87 95.96 Q 133.294 95.976 132.942 96.216 Q 132.59 96.456 132.174 97.064 L 126.542 106.088 L 126.078 106.088 L 125.55 99.864 L 125.486 99.864 L 121.374 106.088 L 120.926 106.088 L 120.142 97.4 Q 120.078 96.616 119.806 96.288 Q 119.534 95.96 118.846 95.96 L 118.926 95.48 L 122.926 95.48 L 122.846 95.96 Q 122.158 95.96 121.886 96.096 Q 121.614 96.232 121.582 96.552 Q 121.582 96.584 121.582 96.648 Q 121.582 96.776 121.582 96.96 Q 121.582 97.144 121.614 97.368 L 122.03 101.88 L 122.11 103.416 L 122.206 103.416 L 125.438 98.728 L 125.326 97.464 Q 125.262 96.776 125.158 96.456 Q 125.054 96.136 124.822 96.048 Q 124.59 95.96 124.126 95.96 L 124.206 95.48 L 128.286 95.48 L 128.206 95.96 Q 127.326 95.96 127.03 96.248 Q 126.734 96.536 126.798 97.432 L 127.182 101.752 L 127.246 103.384 L 127.326 103.384 L 130.734 98.024 Q 130.99 97.624 131.214 97.192 Q 131.438 96.76 131.438 96.408 Q 131.438 96.168 131.262 96.064 Q 131.086 95.96 130.558 95.96 L 130.654 95.48 Z " fill="black" /><path d="M 138.339 107.403 L 138.339 107.403 L 137.958 109.352 L 133.366 109.352 L 133.366 108.803 L 134.957 107.19 Q 135.584 106.563 135.993 106.082 Q 136.402 105.6 136.603 105.113 Q 136.805 104.626 136.805 103.998 Q 136.805 103.405 136.441 103.018 Q 136.077 102.632 135.416 102.632 Q 134.811 102.632 134.402 102.873 Q 133.994 103.114 133.68 103.662 L 133.378 103.517 Q 133.658 102.733 134.246 102.285 Q 134.834 101.837 135.696 101.837 Q 136.368 101.837 136.883 102.078 Q 137.398 102.318 137.69 102.766 Q 137.981 103.214 137.981 103.853 Q 137.981 104.402 137.734 104.883 Q 137.488 105.365 137.034 105.869 Q 136.581 106.373 135.954 106.989 L 134.554 108.344 L 134.554 108.422 L 135.427 108.378 L 136.883 108.378 Q 137.208 108.378 137.382 108.288 Q 137.555 108.198 137.678 107.98 Q 137.802 107.762 137.947 107.403 Z " fill="black" /><path d="M 144.347 94.648 L 144.347 94.648 L 140.187 107.416 L 139.291 107.416 L 143.467 94.648 Z " fill="black" /><path d="M 153.771 102.872 L 153.771 102.872 L 152.811 105.992 L 144.907 105.992 L 145.003 105.512 Q 145.627 105.512 145.955 105.4 Q 146.283 105.288 146.459 104.968 Q 146.635 104.648 146.763 104.008 L 148.139 97.336 Q 148.251 96.808 148.219 96.504 Q 148.187 96.2 147.891 96.08 Q 147.595 95.96 146.907 95.96 L 147.003 95.48 L 151.547 95.48 L 151.467 95.96 Q 150.603 95.96 150.171 96.224 Q 149.739 96.488 149.563 97.352 L 148.107 104.52 Q 147.995 105.048 148.219 105.216 Q 148.443 105.384 149.147 105.384 L 149.899 105.384 Q 150.667 105.384 151.147 105.248 Q 151.627 105.112 151.963 104.824 Q 152.299 104.536 152.595 104.048 Q 152.891 103.56 153.259 102.872 Z " fill="black" /><path d="M 159.696 107.403 L 159.696 107.403 L 159.315 109.352 L 154.723 109.352 L 154.723 108.803 L 156.314 107.19 Q 156.941 106.563 157.35 106.082 Q 157.758 105.6 157.96 105.113 Q 158.162 104.626 158.162 103.998 Q 158.162 103.405 157.798 103.018 Q 157.434 102.632 156.773 102.632 Q 156.168 102.632 155.759 102.873 Q 155.35 103.114 155.037 103.662 L 154.734 103.517 Q 155.014 102.733 155.602 102.285 Q 156.19 101.837 157.053 101.837 Q 157.725 101.837 158.24 102.078 Q 158.755 102.318 159.046 102.766 Q 159.338 103.214 159.338 103.853 Q 159.338 104.402 159.091 104.883 Q 158.845 105.365 158.391 105.869 Q 157.938 106.373 157.31 106.989 L 155.91 108.344 L 155.91 108.422 L 156.784 108.378 L 158.24 108.378 Q 158.565 108.378 158.738 108.288 Q 158.912 108.198 159.035 107.98 Q 159.158 107.762 159.304 107.403 Z " fill="black" /></g></g></g><circle cx="119.99999999999997" cy="35.99999999999999" r="2.6999999999999997" style="stroke:black;fill:white;stroke-width:2.0;stroke-dasharray:-;" /><g><g><g><path d="M 106.268 24.11 L 106.268 24.11 L 107.58 17.806 Q 107.724 17.182 107.716 16.822 Q 107.708 16.462 107.42 16.318 Q 107.132 16.174 106.396 16.174 L 106.492 15.694 L 110.924 15.694 L 110.828 16.174 Q 110.124 16.174 109.772 16.318 Q 109.42 16.462 109.276 16.822 Q 109.132 17.182 109.004 17.806 L 107.692 24.174 Q 107.644 24.43 107.612 24.638 Q 107.58 24.846 107.58 25.022 Q 107.58 25.47 107.844 25.598 Q 108.108 25.726 108.86 25.726 L 108.764 26.206 L 104.396 26.206 L 104.492 25.726 Q 105.148 25.726 105.476 25.614 Q 105.804 25.502 105.964 25.158 Q 106.124 24.814 106.268 24.11 Z " fill="black" /><path d="M 114.385 23.686 L 114.385 23.686 Q 115.225 23.686 115.852 24.05 Q 116.479 24.414 116.821 25.069 Q 117.162 25.724 117.162 26.609 Q 117.162 27.673 116.804 28.356 Q 116.446 29.039 115.818 29.37 Q 115.191 29.7 114.385 29.7 Q 113.567 29.7 112.934 29.358 Q 112.302 29.017 111.949 28.334 Q 111.596 27.65 111.596 26.62 Q 111.596 25.746 111.943 25.086 Q 112.29 24.425 112.918 24.055 Q 113.545 23.686 114.385 23.686 Z M 114.362 24.201 L 114.362 24.201 Q 113.623 24.201 113.203 24.8 Q 112.783 25.399 112.783 26.553 Q 112.783 27.975 113.214 28.563 Q 113.646 29.151 114.418 29.151 Q 114.911 29.14 115.258 28.905 Q 115.606 28.67 115.79 28.115 Q 115.975 27.561 115.975 26.609 Q 115.975 25.466 115.583 24.834 Q 115.191 24.201 114.362 24.201 Z " fill="black" /><path d="M 124.778 28.994 L 124.778 28.994 L 124.778 29.42 L 123.266 29.622 L 122.908 29.622 L 122.908 28.748 L 122.796 28.748 Q 122.37 29.129 121.934 29.403 Q 121.497 29.678 120.881 29.678 Q 120.052 29.678 119.615 29.174 Q 119.178 28.67 119.178 27.426 L 119.178 25.018 Q 119.178 24.559 119.016 24.453 Q 118.854 24.346 118.338 24.346 L 118.338 23.943 L 119.895 23.73 L 120.265 23.73 L 120.265 27.281 Q 120.265 27.908 120.41 28.255 Q 120.556 28.602 120.802 28.737 Q 121.049 28.871 121.34 28.871 Q 121.833 28.871 122.163 28.664 Q 122.494 28.457 122.852 28.166 L 122.852 25.018 Q 122.852 24.559 122.65 24.453 Q 122.449 24.346 121.878 24.346 L 121.878 23.943 L 123.546 23.73 L 123.938 23.73 L 123.938 28.266 Q 123.938 28.602 124 28.759 Q 124.062 28.916 124.218 28.955 Q 124.375 28.994 124.655 28.994 Z " fill="black" /><path d="M 129.146 28.446 L 129.146 28.446 L 129.404 28.658 Q 129.158 28.994 128.956 29.224 Q 128.754 29.454 128.497 29.577 Q 128.239 29.7 127.836 29.7 Q 127.186 29.7 126.89 29.33 Q 126.593 28.961 126.593 28.143 L 126.593 24.38 L 125.887 24.38 L 125.887 24.044 Q 126.29 23.753 126.626 23.333 Q 126.962 22.913 127.298 22.129 L 127.69 22.129 L 127.679 23.831 L 129.102 23.831 L 129.102 24.38 L 127.679 24.38 L 127.679 27.774 Q 127.679 28.401 127.797 28.664 Q 127.914 28.927 128.273 28.927 Q 128.598 28.927 128.766 28.81 Q 128.934 28.692 129.146 28.446 Z " fill="black" /><path d="M 134.534 29.566 L 134.534 29.566 L 130.737 29.566 L 130.737 29.162 Q 131.543 29.162 131.806 29 Q 132.07 28.838 132.07 28.412 L 132.07 23.529 Q 132.07 23.226 131.98 23.092 Q 131.89 22.958 131.655 22.958 Q 131.476 22.958 131.168 23.008 Q 130.86 23.058 130.636 23.114 L 130.636 22.666 L 132.708 22.095 L 133.19 22.095 L 133.19 28.412 Q 133.19 28.838 133.475 29 Q 133.761 29.162 134.534 29.162 Z " fill="black" /></g></g></g><g><g><g><path d="M 259.918 95.407 L 259.918 95.407 L 259.87 95.887 Q 259.294 95.903 258.942 96.143 Q 258.59 96.383 258.174 96.991 L 252.542 106.015 L 252.078 106.015 L 251.55 99.791 L 251.486 99.791 L 247.374 106.015 L 246.926 106.015 L 246.142 97.327 Q 246.078 96.543 245.806 96.215 Q 245.534 95.887 244.846 95.887 L 244.926 95.407 L 248.926 95.407 L 248.846 95.887 Q 248.158 95.887 247.886 96.023 Q 247.614 96.159 247.582 96.479 Q 247.582 96.511 247.582 96.575 Q 247.582 96.703 247.582 96.887 Q 247.582 97.071 247.614 97.295 L 248.03 101.807 L 248.11 103.343 L 248.206 103.343 L 251.438 98.655 L 251.326 97.391 Q 251.262 96.703 251.158 96.383 Q 251.054 96.063 250.822 95.975 Q 250.59 95.887 250.126 95.887 L 250.206 95.407 L 254.286 95.407 L 254.206 95.887 Q 253.326 95.887 253.03 96.175 Q 252.734 96.463 252.798 97.359 L 253.182 101.679 L 253.246 103.311 L 253.326 103.311 L 256.734 97.951 Q 256.99 97.551 257.214 97.119 Q 257.438 96.687 257.438 96.335 Q 257.438 96.095 257.262 95.991 Q 257.086 95.887 256.558 95.887 L 256.654 95.407 Z " fill="black" /><path d="M 259.803 103.455 L 259.803 103.455 L 259.478 103.298 Q 259.814 102.537 260.369 102.15 Q 260.923 101.764 261.618 101.764 Q 262.514 101.764 263.062 102.201 Q 263.611 102.638 263.611 103.332 Q 263.611 103.937 263.242 104.306 Q 262.872 104.676 262.323 105.034 L 262.323 105.09 Q 262.794 105.214 263.191 105.46 Q 263.589 105.706 263.824 106.093 Q 264.059 106.479 264.059 107.028 Q 264.059 107.644 263.79 108.098 Q 263.522 108.551 263.062 108.848 Q 262.603 109.145 262.015 109.285 Q 261.427 109.425 260.789 109.425 Q 260.24 109.425 259.954 109.33 Q 259.669 109.234 259.562 109.078 Q 259.456 108.921 259.456 108.764 Q 259.456 108.574 259.568 108.389 Q 259.68 108.204 259.949 108.204 Q 260.061 108.204 260.178 108.266 Q 260.296 108.327 260.61 108.506 Q 260.867 108.63 261.018 108.697 Q 261.17 108.764 261.287 108.786 Q 261.405 108.809 261.562 108.809 Q 261.898 108.809 262.228 108.686 Q 262.558 108.562 262.782 108.243 Q 263.006 107.924 263.006 107.342 Q 263.006 106.826 262.721 106.457 Q 262.435 106.087 261.954 105.88 Q 261.472 105.673 260.89 105.673 L 260.643 105.673 L 260.643 105.146 L 260.878 105.146 Q 261.282 105.146 261.662 104.962 Q 262.043 104.777 262.29 104.435 Q 262.536 104.094 262.536 103.623 Q 262.536 103.097 262.194 102.828 Q 261.853 102.559 261.326 102.559 Q 260.352 102.559 259.803 103.455 Z " fill="black" /><path d="M 270.347 94.575 L 270.347 94.575 L 266.187 107.343 L 265.291 107.343 L 269.467 94.575 Z " fill="black" /><path d="M 279.771 102.799 L 279.771 102.799 L 278.811 105.919 L 270.907 105.919 L 271.003 105.439 Q 271.627 105.439 271.955 105.327 Q 272.283 105.215 272.459 104.895 Q 272.635 104.575 272.763 103.935 L 274.139 97.263 Q 274.251 96.735 274.219 96.431 Q 274.187 96.127 273.891 96.007 Q 273.595 95.887 272.907 95.887 L 273.003 95.407 L 277.547 95.407 L 277.467 95.887 Q 276.603 95.887 276.171 96.151 Q 275.739 96.415 275.563 97.279 L 274.107 104.447 Q 273.995 104.975 274.219 105.143 Q 274.443 105.311 275.147 105.311 L 275.899 105.311 Q 276.667 105.311 277.147 105.175 Q 277.627 105.039 277.963 104.751 Q 278.299 104.463 278.595 103.975 Q 278.891 103.487 279.259 102.799 Z " fill="black" /><path d="M 281.16 103.455 L 281.16 103.455 L 280.835 103.298 Q 281.171 102.537 281.726 102.15 Q 282.28 101.764 282.974 101.764 Q 283.87 101.764 284.419 102.201 Q 284.968 102.638 284.968 103.332 Q 284.968 103.937 284.598 104.306 Q 284.229 104.676 283.68 105.034 L 283.68 105.09 Q 284.15 105.214 284.548 105.46 Q 284.946 105.706 285.181 106.093 Q 285.416 106.479 285.416 107.028 Q 285.416 107.644 285.147 108.098 Q 284.878 108.551 284.419 108.848 Q 283.96 109.145 283.372 109.285 Q 282.784 109.425 282.146 109.425 Q 281.597 109.425 281.311 109.33 Q 281.026 109.234 280.919 109.078 Q 280.813 108.921 280.813 108.764 Q 280.813 108.574 280.925 108.389 Q 281.037 108.204 281.306 108.204 Q 281.418 108.204 281.535 108.266 Q 281.653 108.327 281.966 108.506 Q 282.224 108.63 282.375 108.697 Q 282.526 108.764 282.644 108.786 Q 282.762 108.809 282.918 108.809 Q 283.254 108.809 283.585 108.686 Q 283.915 108.562 284.139 108.243 Q 284.363 107.924 284.363 107.342 Q 284.363 106.826 284.078 106.457 Q 283.792 106.087 283.31 105.88 Q 282.829 105.673 282.246 105.673 L 282 105.673 L 282 105.146 L 282.235 105.146 Q 282.638 105.146 283.019 104.962 Q 283.4 104.777 283.646 104.435 Q 283.893 104.094 283.893 103.623 Q 283.893 103.097 283.551 102.828 Q 283.21 102.559 282.683 102.559 Q 281.709 102.559 281.16 103.455 Z " fill="black" /></g></g></g><circle cx="245.99999999999994" cy="35.99999999999999" r="2.6999999999999997" style="stroke:black;fill:white;stroke-width:2.0;stroke-dasharray:-;" /><g><g><g><path d="M 232.184 24.11 L 232.184 24.11 L 233.496 17.806 Q 233.64 17.182 233.632 16.822 Q 233.624 16.462 233.336 16.318 Q 233.048 16.174 232.312 16.174 L 232.408 15.694 L 236.84 15.694 L 236.744 16.174 Q 236.04 16.174 235.688 16.318 Q 235.336 16.462 235.192 16.822 Q 235.048 17.182 234.92 17.806 L 233.608 24.174 Q 233.56 24.43 233.528 24.638 Q 233.496 24.846 233.496 25.022 Q 233.496 25.47 233.76 25.598 Q 234.024 25.726 234.776 25.726 L 234.68 26.206 L 230.312 26.206 L 230.408 25.726 Q 231.064 25.726 231.392 25.614 Q 231.72 25.502 231.88 25.158 Q 232.04 24.814 232.184 24.11 Z " fill="black" /><path d="M 240.301 23.686 L 240.301 23.686 Q 241.141 23.686 241.768 24.05 Q 242.395 24.414 242.737 25.069 Q 243.078 25.724 243.078 26.609 Q 243.078 27.673 242.72 28.356 Q 242.362 29.039 241.734 29.37 Q 241.107 29.7 240.301 29.7 Q 239.483 29.7 238.85 29.358 Q 238.218 29.017 237.865 28.334 Q 237.512 27.65 237.512 26.62 Q 237.512 25.746 237.859 25.086 Q 238.206 24.425 238.834 24.055 Q 239.461 23.686 240.301 23.686 Z M 240.278 24.201 L 240.278 24.201 Q 239.539 24.201 239.119 24.8 Q 238.699 25.399 238.699 26.553 Q 238.699 27.975 239.13 28.563 Q 239.562 29.151 240.334 29.151 Q 240.827 29.14 241.174 28.905 Q 241.522 28.67 241.706 28.115 Q 241.891 27.561 241.891 26.609 Q 241.891 25.466 241.499 24.834 Q 241.107 24.201 240.278 24.201 Z " fill="black" /><path d="M 250.694 28.994 L 250.694 28.994 L 250.694 29.42 L 249.182 29.622 L 248.824 29.622 L 248.824 28.748 L 248.712 28.748 Q 248.286 29.129 247.85 29.403 Q 247.413 29.678 246.797 29.678 Q 245.968 29.678 245.531 29.174 Q 245.094 28.67 245.094 27.426 L 245.094 25.018 Q 245.094 24.559 244.932 24.453 Q 244.77 24.346 244.254 24.346 L 244.254 23.943 L 245.811 23.73 L 246.181 23.73 L 246.181 27.281 Q 246.181 27.908 246.326 28.255 Q 246.472 28.602 246.718 28.737 Q 246.965 28.871 247.256 28.871 Q 247.749 28.871 248.079 28.664 Q 248.41 28.457 248.768 28.166 L 248.768 25.018 Q 248.768 24.559 248.566 24.453 Q 248.365 24.346 247.794 24.346 L 247.794 23.943 L 249.462 23.73 L 249.854 23.73 L 249.854 28.266 Q 249.854 28.602 249.916 28.759 Q 249.978 28.916 250.134 28.955 Q 250.291 28.994 250.571 28.994 Z " fill="black" /><path d="M 255.062 28.446 L 255.062 28.446 L 255.32 28.658 Q 255.074 28.994 254.872 29.224 Q 254.67 29.454 254.413 29.577 Q 254.155 29.7 253.752 29.7 Q 253.102 29.7 252.806 29.33 Q 252.509 28.961 252.509 28.143 L 252.509 24.38 L 251.803 24.38 L 251.803 24.044 Q 252.206 23.753 252.542 23.333 Q 252.878 22.913 253.214 22.129 L 253.606 22.129 L 253.595 23.831 L 255.018 23.831 L 255.018 24.38 L 253.595 24.38 L 253.595 27.774 Q 253.595 28.401 253.713 28.664 Q 253.83 28.927 254.189 28.927 Q 254.514 28.927 254.682 28.81 Q 254.85 28.692 255.062 28.446 Z " fill="black" /><path d="M 261.088 27.617 L 261.088 27.617 L 260.707 29.566 L 256.115 29.566 L 256.115 29.017 L 257.706 27.404 Q 258.333 26.777 258.742 26.295 Q 259.15 25.814 259.352 25.326 Q 259.554 24.839 259.554 24.212 Q 259.554 23.618 259.19 23.232 Q 258.826 22.846 258.165 22.846 Q 257.56 22.846 257.151 23.086 Q 256.742 23.327 256.429 23.876 L 256.126 23.73 Q 256.406 22.946 256.994 22.498 Q 257.582 22.05 258.445 22.05 Q 259.117 22.05 259.632 22.291 Q 260.147 22.532 260.438 22.98 Q 260.73 23.428 260.73 24.066 Q 260.73 24.615 260.483 25.097 Q 260.237 25.578 259.783 26.082 Q 259.33 26.586 258.702 27.202 L 257.302 28.558 L 257.302 28.636 L 258.176 28.591 L 259.632 28.591 Q 259.957 28.591 260.13 28.502 Q 260.304 28.412 260.427 28.194 Q 260.55 27.975 260.696 27.617 Z " fill="black" /></g></g></g><circle cx="-1.3226185430791413e-14" cy="72.0" r="2.6999999999999997" style="stroke:black;fill:black;stroke-width:2.0;stroke-dasharray:-;" /></svg>