<svg xmlns="http://www.w3.org/2000/svg" xml:lang="en" height="139.192pt" width="108.176pt" viewBox="-71.13199999999999 -39.78 108.176 139.192"><path d="M 0.0,59.99999999999999 L 0.0,45.0 L -14.999999999999998,45.0 L -14.999999999999998,14.999999999999998 L 0.0,14.999999999999998 L 0.0,-0.0" style="stroke:black;fill:none;stroke-width:2.0;stroke-linecap:round;stroke-linejoin:round;" /><path d="M -17.999999999999996,42.0 L -17.999999999999996,17.999999999999996" style="stroke:black;fill:none;stroke-width:2.0;stroke-linecap:round;stroke-linejoin:round;" /><path d="M -32.99999999999999,29.999999999999996 L -17.999999999999996,29.999999999999996" style="stroke:black;fill:none;stroke-width:2.0;stroke-linecap:round;stroke-linejoin:round;" /><path d="M -9.0,29.999999999999996 L -14.999999999999998,29.999999999999996" style="stroke:black;fill:none;stroke-width:2.0;stroke-linecap:round;stroke-linejoin:round;" /><path d="M -2.0 29.999999999999996 L -9.0 34.5 L -9.0 25.499999999999996 Z" style="stroke:black;fill:black;stroke-linecap:butt;stroke-linejoin:miter;" /><path d="M 0.0,59.99999999999999 L -1.6532731788489267e-15,69.0 L -3.3065463576978533e-15,78.0" style="stroke:black;fill:none;stroke-width:2.0;stroke-linecap:round;stroke-linejoin:round;" /><path d="M 0.0,-0.0 L 5.51091059616309e-16,-9.0 L 1.102182119232618e-15,-18.0" style="stroke:black;fill:none;stroke-width:2.0;stroke-linecap:round;stroke-linejoin:round;" /><path d="M -32.99999999999999,29.999999999999996 L -41.99999999999999,29.999999999999996 L -50.99999999999999,29.999999999999993" style="stroke:black;fill:none;stroke-width:2.0;stroke-linecap:round;stroke-linejoin:round;" /><path d="M 0.0,29.999999999999996 L 9.0,29.999999999999996 L 18.0,29.999999999999996" style="stroke:black;fill:none;stroke-width:2.0;stroke-linecap:round;stroke-linejoin:round;" /><circle cx="-3.3065463576978533e-15" cy="78.0" r="2.6999999999999997" style="stroke:black;fill:white;stroke-width:2.0;" /><g><g><g><symbol id="STIXTwoMathRegular_3662" width="6.924" height="51.216" viewBox="0 -31.524 6.924 51.216"><path d="M 1.104 0 L 1.104 0 L 1.104 -7.884 L 3.12 -7.884 Q 4.98 -7.884 5.952 -6.87 Q 6.924 -5.856 6.924 -3.972 Q 6.924 -2.088 5.958 -1.044 Q 4.992 0 3.168 0 Z M 2.136 -0.84 L 2.136 -0.84 L 3.048 -0.84 Q 4.464 -0.84 5.166 -1.662 Q 5.868 -2.484 5.868 -3.972 Q 5.868 -5.46 5.166 -6.252 Q 4.464 -7.044 3.048 -7.044 L 2.136 -7.044 Z " /></symbol><use href="#STIXTwoMathRegular_3662" transform="translate(-4.304 52.78) scale(1.333)" fill="black" /></g></g></g><circle cx="1.102182119232618e-15" cy="-18.0" r="2.6999999999999997" style="stroke:black;fill:white;stroke-width:2.0;" /><g><g><g><symbol id="STIXTwoMathRegular_3677" width="6.084" height="51.216" viewBox="0 -31.524 6.084 51.216"><path d="M 3.348 0.144 L 3.348 0.144 Q 2.484 0.144 1.77 -0.174 Q 1.056 -0.492 0.528 -1.02 L 1.14 -1.728 Q 1.572 -1.284 2.154 -1.02 Q 2.736 -0.756 3.396 -0.756 Q 4.164 -0.756 4.602 -1.104 Q 5.04 -1.452 5.04 -2.04 Q 5.04 -2.424 4.866 -2.664 Q 4.692 -2.904 4.386 -3.072 Q 4.08 -3.24 3.696 -3.396 L 2.544 -3.888 Q 2.196 -4.044 1.812 -4.29 Q 1.428 -4.536 1.17 -4.926 Q 0.912 -5.316 0.912 -5.892 Q 0.912 -6.516 1.242 -6.996 Q 1.572 -7.476 2.142 -7.746 Q 2.712 -8.016 3.432 -8.016 Q 4.164 -8.016 4.776 -7.746 Q 5.388 -7.476 5.82 -7.044 L 5.28 -6.384 Q 4.896 -6.732 4.446 -6.93 Q 3.996 -7.128 3.456 -7.128 Q 2.772 -7.128 2.364 -6.822 Q 1.956 -6.516 1.956 -5.988 Q 1.956 -5.616 2.154 -5.376 Q 2.352 -5.136 2.658 -4.98 Q 2.964 -4.824 3.288 -4.692 L 4.428 -4.212 Q 4.884 -4.02 5.262 -3.75 Q 5.64 -3.48 5.862 -3.084 Q 6.084 -2.688 6.084 -2.136 Q 6.084 -1.488 5.754 -0.972 Q 5.424 -0.456 4.812 -0.156 Q 4.2 0.144 3.348 0.144 Z " /></symbol><use href="#STIXTwoMathRegular_3677" transform="translate(-4.016 -66.524) scale(1.333)" fill="black" /></g></g></g><circle cx="-50.99999999999999" cy="29.999999999999993" r="2.6999999999999997" style="stroke:black;fill:white;stroke-width:2.0;" /><g><g><g><symbol id="STIXTwoMathRegular_3665" width="6.756" height="51.216" viewBox="0 -31.524 6.756 51.216"><path d="M 4.284 0.144 L 4.284 0.144 Q 3.216 0.144 2.394 -0.342 Q 1.572 -0.828 1.11 -1.74 Q 0.648 -2.652 0.648 -3.912 Q 0.648 -5.208 1.128 -6.126 Q 1.608 -7.044 2.43 -7.53 Q 3.252 -8.016 4.296 -8.016 Q 5.184 -8.016 5.742 -7.716 Q 6.3 -7.416 6.66 -7.044 L 6.096 -6.384 Q 5.796 -6.696 5.388 -6.912 Q 4.98 -7.128 4.344 -7.128 Q 3.144 -7.128 2.424 -6.276 Q 1.704 -5.424 1.704 -3.924 Q 1.704 -2.484 2.394 -1.62 Q 3.084 -0.756 4.344 -0.756 Q 5.328 -0.756 5.82 -1.212 L 5.82 -3.24 L 4.128 -3.24 L 4.128 -4.092 L 6.756 -4.092 L 6.756 -0.768 Q 6.372 -0.372 5.736 -0.114 Q 5.1 0.144 4.284 0.144 Z " /></symbol><use href="#STIXTwoMathRegular_3665" transform="translate(-66.532 -6.784) scale(1.333)" fill="black" /></g></g></g><circle cx="18.0" cy="29.999999999999996" r="2.6999999999999997" style="stroke:black;fill:white;stroke-width:2.0;" /><g><g><g><symbol id="STIXTwoMathRegular_3660" width="6.732" height="51.216" viewBox="0 -31.524 6.732 51.216"><path d="M 1.104 0 L 1.104 0 L 1.104 -7.884 L 3.492 -7.884 Q 4.32 -7.884 4.944 -7.692 Q 5.568 -7.5 5.916 -7.08 Q 6.264 -6.66 6.264 -5.988 Q 6.264 -5.364 5.958 -4.89 Q 5.652 -4.416 5.088 -4.236 L 5.088 -4.188 Q 5.808 -4.056 6.27 -3.588 Q 6.732 -3.12 6.732 -2.28 Q 6.732 -1.524 6.342 -1.02 Q 5.952 -0.516 5.268 -0.258 Q 4.584 0 3.684 0 Z M 2.136 -0.816 L 2.136 -0.816 L 3.528 -0.816 Q 4.56 -0.816 5.142 -1.182 Q 5.724 -1.548 5.724 -2.316 Q 5.724 -3.06 5.166 -3.402 Q 4.608 -3.744 3.528 -3.744 L 2.136 -3.744 Z M 2.136 -4.524 L 2.136 -4.524 L 3.324 -4.524 Q 4.368 -4.524 4.812 -4.878 Q 5.256 -5.232 5.256 -5.832 Q 5.256 -6.504 4.77 -6.786 Q 4.284 -7.068 3.372 -7.068 L 2.136 -7.068 Z " /></symbol><use href="#STIXTwoMathRegular_3660" transform="translate(24.3 -6.776) scale(1.333)" fill="black" /></g></g></g></svg>