<svg xmlns="http://www.w3.org/2000/svg" xml:lang="en" height="496.64pt" width="784.0472pt" viewBox="-402.50880000000006 -169.0 784.0472 496.64"><circle cx="-354.0" cy="-102.00000000000006" r="18.0" style="stroke:black;fill:none;stroke-width:2.0;" /><path d="M 0.0,59.99999999999999 L 0.0,45.0 L -14.999999999999998,45.0 L -14.999999999999998,14.999999999999998 L 0.0,14.999999999999998 L 0.0,-0.0" style="stroke:black;fill:none;stroke-width:2.0;stroke-linecap:round;stroke-linejoin:round;" /><path d="M -9.0,45.0 L -14.999999999999998,45.0" style="stroke:black;fill:none;stroke-width:2.0;stroke-linecap:round;stroke-linejoin:round;" /><path d="M -2.0 45.0 L -9.0 49.5 L -9.0 40.5 Z" style="stroke:black;fill:black;stroke-linecap:butt;stroke-linejoin:miter;" /><path d="M -17.999999999999996,42.0 L -17.999999999999996,17.999999999999996" style="stroke:black;fill:none;stroke-width:2.0;stroke-linecap:round;stroke-linejoin:round;" /><path d="M -32.99999999999999,29.999999999999996 L -17.999999999999996,29.999999999999996" style="stroke:black;fill:none;stroke-width:2.0;stroke-linecap:round;stroke-linejoin:round;" /><path d="M 0.0,59.99999999999999 L -1.6532731788489267e-15,69.0 L -3.3065463576978533e-15,78.0" style="stroke:black;fill:none;stroke-width:2.0;stroke-linecap:round;stroke-linejoin:round;" /><path d="M -3.3065463576978533e-15,78.0 L 8.999999999999996,78.0 L 17.999999999999996,78.0" style="stroke:black;fill:none;stroke-width:2.0;stroke-linecap:round;stroke-linejoin:round;" /><path d="M 17.999999999999996,78.0 L 17.999999999999982,158.99999999999997 L 17.999999999999964,239.99999999999997" style="stroke:black;fill:none;stroke-width:2.0;stroke-linecap:round;stroke-linejoin:round;" /><path d="M 17.999999999999964,299.99999999999994 L 17.999999999999964,285.0 L 2.999999999999967,285.0 L 2.999999999999967,255.0 L 17.999999999999964,255.0 L 17.999999999999964,239.99999999999997" style="stroke:black;fill:none;stroke-width:2.0;stroke-linecap:round;stroke-linejoin:round;" /><path d="M 8.999999999999966,285.0 L 2.999999999999967,285.0" style="stroke:black;fill:none;stroke-width:2.0;stroke-linecap:round;stroke-linejoin:round;" /><path d="M 15.999999999999964 285.0 L 8.999999999999964 289.5 L 8.999999999999964 280.5 Z" style="stroke:black;fill:black;stroke-linecap:butt;stroke-linejoin:miter;" /><path d="M -3.197442310920451e-14,282.0 L -3.197442310920451e-14,258.0" style="stroke:black;fill:none;stroke-width:2.0;stroke-linecap:round;stroke-linejoin:round;" /><path d="M -15.000000000000028,269.99999999999994 L -3.197442310920451e-14,269.99999999999994" style="stroke:black;fill:none;stroke-width:2.0;stroke-linecap:round;stroke-linejoin:round;" /><path d="M 17.999999999999964,299.99999999999994 L 17.999999999999964,314.4 L 8.999999999999966,314.4 L 26.999999999999968,314.4 M 11.699999999999967,318.7199999999999 L 24.299999999999965,318.7199999999999 M 16.199999999999967,323.03999999999996 L 19.799999999999965,323.03999999999996" style="stroke:black;fill:none;stroke-width:2.0;stroke-linecap:round;stroke-linejoin:round;" /><path d="M -15.000000000000028,269.99999999999994 L -24.00000000000003,269.99999999999994 L -33.00000000000003,269.99999999999994" style="stroke:black;fill:none;stroke-width:2.0;stroke-linecap:round;stroke-linejoin:round;" /><path d="M -33.00000000000003,269.99999999999994 L -33.00000000000003,251.99999999999997 L -33.00000000000002,233.99999999999997" style="stroke:black;fill:none;stroke-width:2.0;stroke-linecap:round;stroke-linejoin:round;" /><path d="M -33.00000000000002,233.99999999999997 L -168.0,233.99999999999994 L -303.00000000000006,233.99999999999994" style="stroke:black;fill:none;stroke-width:2.0;stroke-linecap:round;stroke-linejoin:round;" /><path d="M -303.00000000000006,233.99999999999994 L -303.00000000000006,251.99999999999994 L -303.00000000000006,269.99999999999994" style="stroke:black;fill:none;stroke-width:2.0;stroke-linecap:round;stroke-linejoin:round;" /><path d="M -303.00000000000006,269.99999999999994 L -312.00000000000006,269.99999999999994 L -321.00000000000006,269.99999999999994" style="stroke:black;fill:none;stroke-width:2.0;stroke-linecap:round;stroke-linejoin:round;" /><path d="M -354.0,239.99999999999994 L -354.0,254.99999999999991 L -339.00000000000006,254.99999999999991 L -339.00000000000006,284.99999999999994 L -354.0,284.99999999999994 L -354.0,299.99999999999994" style="stroke:black;fill:none;stroke-width:2.0;stroke-linecap:round;stroke-linejoin:round;" /><path d="M -339.00000000000006,284.99999999999994 L -345.0,284.99999999999994" style="stroke:black;fill:none;stroke-width:2.0;stroke-linecap:round;stroke-linejoin:round;" /><path d="M -352.0 284.99999999999994 L -345.0 280.49999999999994 L -345.0 289.49999999999994 Z" style="stroke:black;fill:black;stroke-linecap:butt;stroke-linejoin:miter;" /><path d="M -336.0,257.99999999999994 L -336.0,281.99999999999994" style="stroke:black;fill:none;stroke-width:2.0;stroke-linecap:round;stroke-linejoin:round;" /><path d="M -336.0,269.99999999999994 L -321.00000000000006,269.99999999999994" style="stroke:black;fill:none;stroke-width:2.0;stroke-linecap:round;stroke-linejoin:round;" /><path d="M -354.0,299.99999999999994 L -354.0,314.4 L -363.0,314.4 L -345.0,314.4 M -360.30000000000007,318.7199999999999 L -347.7,318.7199999999999 M -355.80000000000007,323.03999999999996 L -352.2,323.03999999999996" style="stroke:black;fill:none;stroke-width:2.0;stroke-linecap:round;stroke-linejoin:round;" /><path d="M -354.0,239.99999999999994 L -354.0,86.99999999999994 L -354.0,-66.00000000000006" style="stroke:black;fill:none;stroke-width:2.0;stroke-linecap:round;stroke-linejoin:round;" /><path d="M -354.0,-66.00000000000006 L -354.0,-84.00000000000006 L -354.0,-84.00000000000006 M -354.0,-120.00000000000006 L -354.0,-120.00000000000006 L -354.0,-138.00000000000006" style="stroke:black;fill:none;stroke-width:2.0;stroke-linecap:round;stroke-linejoin:round;" /><path d="M -354.0,-102.00000000000006 L -354.0,-111.00000000000006" style="stroke:black;fill:none;stroke-width:2.0;stroke-linecap:round;stroke-linejoin:round;" /><path d="M -354.0 -95.00000000000006 L -356.7 -102.00000000000006 L -351.3 -102.00000000000006 Z" style="stroke:black;fill:black;stroke-linecap:butt;stroke-linejoin:miter;" /><path d="M -354.0,-138.00000000000006 L -354.0,-152.40000000000006" style="stroke:black;fill:none;stroke-width:2.0;stroke-linecap:round;stroke-linejoin:round;" /><path d="M -354.0,-152.40000000000006 L -360.75,-152.40000000000006" style="stroke:black;fill:none;stroke-width:2.0;stroke-linecap:round;stroke-linejoin:round;" /><path d="M -354.0,-152.40000000000006 L -347.25,-152.40000000000006" style="stroke:black;fill:none;stroke-width:2.0;stroke-linecap:round;stroke-linejoin:round;" /><path d="M -303.00000000000006,233.99999999999994 L -328.5,233.99999999999994 L -354.0,233.99999999999994" style="stroke:black;fill:none;stroke-width:2.0;stroke-linecap:round;stroke-linejoin:round;" /><path d="M 17.999999999999996,78.0 L 81.0,78.0 L 144.0,78.0" style="stroke:black;fill:none;stroke-width:2.0;stroke-linecap:round;stroke-linejoin:round;" /><path d="M 144.0,78.0 L 144.0,69.0 L 144.0,59.99999999999999" style="stroke:black;fill:none;stroke-width:2.0;stroke-linecap:round;stroke-linejoin:round;" /><path d="M 144.0,-0.0 L 144.0,14.999999999999995 L 159.0,14.999999999999995 L 159.0,45.0 L 144.0,45.0 L 144.0,59.99999999999999" style="stroke:black;fill:none;stroke-width:2.0;stroke-linecap:round;stroke-linejoin:round;" /><path d="M 159.0,45.0 L 153.0,45.0" style="stroke:black;fill:none;stroke-width:2.0;stroke-linecap:round;stroke-linejoin:round;" /><path d="M 146.0 45.0 L 153.0 40.5 L 153.0 49.5 Z" style="stroke:black;fill:black;stroke-linecap:butt;stroke-linejoin:miter;" /><path d="M 162.0,18.0 L 162.0,42.0" style="stroke:black;fill:none;stroke-width:2.0;stroke-linecap:round;stroke-linejoin:round;" /><path d="M 162.0,29.999999999999996 L 176.99999999999997,29.999999999999996" style="stroke:black;fill:none;stroke-width:2.0;stroke-linecap:round;stroke-linejoin:round;" /><path d="M -32.99999999999999,29.999999999999996 L -41.99999999999999,29.999999999999996 L -50.99999999999999,29.999999999999993" style="stroke:black;fill:none;stroke-width:2.0;stroke-linecap:round;stroke-linejoin:round;" /><path d="M 176.99999999999997,29.999999999999996 L 185.99999999999997,29.999999999999996 L 194.99999999999997,29.999999999999996" style="stroke:black;fill:none;stroke-width:2.0;stroke-linecap:round;stroke-linejoin:round;" /><path d="M 0.0,-0.0 L 2.204364238465236e-15,-36.0 L 4.408728476930472e-15,-72.0" style="stroke:black;fill:none;stroke-width:2.0;stroke-linecap:round;stroke-linejoin:round;" /><path d="M 4.408728476930472e-15,-72.0 L 4.9598195365467806e-15,-81.0 L 5.5109105961630896e-15,-90.0" style="stroke:black;fill:none;stroke-width:2.0;stroke-linecap:round;stroke-linejoin:round;" /><path d="M 5.5109105961630896e-15,-149.99999999999997 L 5.5109105961630896e-15,-135.0 L 15.000000000000005,-135.0 L 15.000000000000005,-105.0 L 5.5109105961630896e-15,-105.0 L 5.5109105961630896e-15,-90.0" style="stroke:black;fill:none;stroke-width:2.0;stroke-linecap:round;stroke-linejoin:round;" /><path d="M 5.5109105961630896e-15,-135.0 L 6.000000000000004,-135.0" style="stroke:black;fill:none;stroke-width:2.0;stroke-linecap:round;stroke-linejoin:round;" /><path d="M 13.000000000000005 -135.0 L 6.000000000000005 -130.5 L 6.000000000000005 -139.5 Z" style="stroke:black;fill:black;stroke-linecap:butt;stroke-linejoin:miter;" /><path d="M 18.000000000000004,-132.0 L 18.000000000000004,-108.0" style="stroke:black;fill:none;stroke-width:2.0;stroke-linecap:round;stroke-linejoin:round;" /><path d="M 18.000000000000004,-119.99999999999999 L 33.0,-119.99999999999999" style="stroke:black;fill:none;stroke-width:2.0;stroke-linecap:round;stroke-linejoin:round;" /><path d="M 5.5109105961630896e-15,-149.99999999999997 L 5.5109105961630896e-15,-164.39999999999998" style="stroke:black;fill:none;stroke-width:2.0;stroke-linecap:round;stroke-linejoin:round;" /><path d="M 5.5109105961630896e-15,-164.39999999999998 L -6.749999999999994,-164.39999999999998" style="stroke:black;fill:none;stroke-width:2.0;stroke-linecap:round;stroke-linejoin:round;" /><path d="M 5.5109105961630896e-15,-164.39999999999998 L 6.750000000000006,-164.39999999999998" style="stroke:black;fill:none;stroke-width:2.0;stroke-linecap:round;stroke-linejoin:round;" /><path d="M 144.0,-0.0 L 144.0,-36.0 L 144.0,-72.0" style="stroke:black;fill:none;stroke-width:2.0;stroke-linecap:round;stroke-linejoin:round;" /><path d="M 144.0,-72.0 L 144.0,-81.0 L 144.0,-90.0" style="stroke:black;fill:none;stroke-width:2.0;stroke-linecap:round;stroke-linejoin:round;" /><path d="M 144.0,-90.0 L 144.0,-105.0 L 129.0,-105.0 L 129.0,-135.0 L 144.0,-135.0 L 144.0,-149.99999999999997" style="stroke:black;fill:none;stroke-width:2.0;stroke-linecap:round;stroke-linejoin:round;" /><path d="M 138.0,-135.0 L 144.0,-135.0" style="stroke:black;fill:none;stroke-width:2.0;stroke-linecap:round;stroke-linejoin:round;" /><path d="M 131.0 -135.0 L 138.0 -139.5 L 138.0 -130.5 Z" style="stroke:black;fill:black;stroke-linecap:butt;stroke-linejoin:miter;" /><path d="M 126.0,-108.0 L 126.0,-132.0" style="stroke:black;fill:none;stroke-width:2.0;stroke-linecap:round;stroke-linejoin:round;" /><path d="M 111.0,-119.99999999999999 L 126.0,-119.99999999999999" style="stroke:black;fill:none;stroke-width:2.0;stroke-linecap:round;stroke-linejoin:round;" /><path d="M 144.0,-149.99999999999997 L 144.0,-164.39999999999998" style="stroke:black;fill:none;stroke-width:2.0;stroke-linecap:round;stroke-linejoin:round;" /><path d="M 144.0,-164.39999999999998 L 137.25,-164.39999999999998" style="stroke:black;fill:none;stroke-width:2.0;stroke-linecap:round;stroke-linejoin:round;" /><path d="M 144.0,-164.39999999999998 L 150.75,-164.39999999999998" style="stroke:black;fill:none;stroke-width:2.0;stroke-linecap:round;stroke-linejoin:round;" /><path d="M 4.408728476930472e-15,-72.0 L -62.99999999999999,-72.0 L -126.0,-72.00000000000001" style="stroke:black;fill:none;stroke-width:2.0;stroke-linecap:round;stroke-linejoin:round;" /><path d="M -158.99999999999997,-102.00000000000003 L -158.99999999999997,-87.00000000000001 L -144.0,-87.00000000000001 L -144.0,-57.000000000000014 L -158.99999999999997,-57.000000000000014 L -158.99999999999997,-42.00000000000002" style="stroke:black;fill:none;stroke-width:2.0;stroke-linecap:round;stroke-linejoin:round;" /><path d="M -158.99999999999997,-87.00000000000001 L -153.0,-87.00000000000001" style="stroke:black;fill:none;stroke-width:2.0;stroke-linecap:round;stroke-linejoin:round;" /><path d="M -146.0 -87.00000000000001 L -153.0 -82.50000000000001 L -153.0 -91.50000000000001 Z" style="stroke:black;fill:black;stroke-linecap:butt;stroke-linejoin:miter;" /><path d="M -141.0,-84.00000000000003 L -141.0,-60.000000000000014" style="stroke:black;fill:none;stroke-width:2.0;stroke-linecap:round;stroke-linejoin:round;" /><path d="M -141.0,-72.00000000000001 L -126.0,-72.00000000000001" style="stroke:black;fill:none;stroke-width:2.0;stroke-linecap:round;stroke-linejoin:round;" /><path d="M -158.99999999999997,-102.00000000000003 L -158.99999999999997,-126.0 L -158.99999999999997,-149.99999999999997" style="stroke:black;fill:none;stroke-width:2.0;stroke-linecap:round;stroke-linejoin:round;" /><path d="M -158.99999999999997,-149.99999999999997 L -158.99999999999997,-164.39999999999998" style="stroke:black;fill:none;stroke-width:2.0;stroke-linecap:round;stroke-linejoin:round;" /><path d="M -158.99999999999997,-164.39999999999998 L -165.74999999999997,-164.39999999999998" style="stroke:black;fill:none;stroke-width:2.0;stroke-linecap:round;stroke-linejoin:round;" /><path d="M -158.99999999999997,-164.39999999999998 L -152.24999999999997,-164.39999999999998" style="stroke:black;fill:none;stroke-width:2.0;stroke-linecap:round;stroke-linejoin:round;" /><path d="M 144.0,-72.0 L 207.0,-72.0 L 270.0,-72.0" style="stroke:black;fill:none;stroke-width:2.0;stroke-linecap:round;stroke-linejoin:round;" /><path d="M 303.0,-42.0 L 303.0,-57.0 L 288.0,-57.0 L 288.0,-87.0 L 303.0,-87.0 L 303.0,-101.99999999999999" style="stroke:black;fill:none;stroke-width:2.0;stroke-linecap:round;stroke-linejoin:round;" /><path d="M 297.0,-87.0 L 303.0,-87.0" style="stroke:black;fill:none;stroke-width:2.0;stroke-linecap:round;stroke-linejoin:round;" /><path d="M 290.0 -87.0 L 297.0 -91.5 L 297.0 -82.5 Z" style="stroke:black;fill:black;stroke-linecap:butt;stroke-linejoin:miter;" /><path d="M 285.0,-59.99999999999999 L 285.0,-84.0" style="stroke:black;fill:none;stroke-width:2.0;stroke-linecap:round;stroke-linejoin:round;" /><path d="M 270.0,-72.0 L 285.0,-72.0" style="stroke:black;fill:none;stroke-width:2.0;stroke-linecap:round;stroke-linejoin:round;" /><path d="M 303.0,-101.99999999999999 L 303.0,-125.99999999999999 L 303.0,-149.99999999999997" style="stroke:black;fill:none;stroke-width:2.0;stroke-linecap:round;stroke-linejoin:round;" /><path d="M 303.0,-149.99999999999997 L 303.0,-164.39999999999998" style="stroke:black;fill:none;stroke-width:2.0;stroke-linecap:round;stroke-linejoin:round;" /><path d="M 303.0,-164.39999999999998 L 296.25,-164.39999999999998" style="stroke:black;fill:none;stroke-width:2.0;stroke-linecap:round;stroke-linejoin:round;" /><path d="M 303.0,-164.39999999999998 L 309.75,-164.39999999999998" style="stroke:black;fill:none;stroke-width:2.0;stroke-linecap:round;stroke-linejoin:round;" /><path d="M -158.99999999999997,-42.00000000000002 L -158.99999999999997,-33.00000000000002 L -158.99999999999997,-24.000000000000018" style="stroke:black;fill:none;stroke-width:2.0;stroke-linecap:round;stroke-linejoin:round;" /><path d="M -158.99999999999997,-24.000000000000018 L -176.99999999999997,-24.00000000000002 L -194.99999999999997,-24.00000000000002" style="stroke:black;fill:none;stroke-width:2.0;stroke-linecap:round;stroke-linejoin:round;" /><path d="M -158.99999999999997,-24.000000000000018 L -126.23999999999998,-24.000000000000018 M -126.23999999999998,-33.00000000000002 L -126.23999999999998,-15.000000000000018 M -119.75999999999999,-33.00000000000002 L -119.75999999999999,-15.000000000000018 M -119.75999999999999,-24.000000000000018 L -86.99999999999997,-24.000000000000018" style="stroke:black;fill:none;stroke-width:2.0;stroke-linecap:round;stroke-linejoin:round;" /><path d="M -86.99999999999997,-24.000000000000018 L -61.499999999999986,-24.000000000000018 L -58.499999999999986,-33.00000000000002 L -52.499999999999986,-15.000000000000018 L -46.49999999999999,-33.00000000000002 L -40.49999999999999,-15.000000000000018 L -34.499999999999986,-33.00000000000002 L -28.499999999999993,-15.000000000000018 L -25.49999999999999,-24.000000000000018 L 0.0,-24.000000000000018" style="stroke:black;fill:none;stroke-width:2.0;stroke-linecap:round;stroke-linejoin:round;" /><path d="M -158.99999999999997,-24.000000000000018 L -158.99999999999997,56.99999999999998 L -159.0,138.0" style="stroke:black;fill:none;stroke-width:2.0;stroke-linecap:round;stroke-linejoin:round;" /><path d="M -159.0,138.0 L -159.0,153.0 L -144.0,153.0 L -144.0,183.0 L -159.0,183.0 L -159.0,198.0" style="stroke:black;fill:none;stroke-width:2.0;stroke-linecap:round;stroke-linejoin:round;" /><path d="M -144.0,183.0 L -150.0,183.0" style="stroke:black;fill:none;stroke-width:2.0;stroke-linecap:round;stroke-linejoin:round;" /><path d="M -157.0 183.0 L -150.0 178.5 L -150.0 187.5 Z" style="stroke:black;fill:black;stroke-linecap:butt;stroke-linejoin:miter;" /><path d="M -141.0,156.0 L -141.0,180.0" style="stroke:black;fill:none;stroke-width:2.0;stroke-linecap:round;stroke-linejoin:round;" /><path d="M -141.0,167.99999999999997 L -126.00000000000001,167.99999999999997" style="stroke:black;fill:none;stroke-width:2.0;stroke-linecap:round;stroke-linejoin:round;" /><path d="M -159.0,198.0 L -159.0,212.4 L -168.0,212.4 L -150.0,212.4 M -165.3,216.71999999999997 L -152.70000000000002,216.71999999999997 M -160.8,221.04 L -157.20000000000002,221.04" style="stroke:black;fill:none;stroke-width:2.0;stroke-linecap:round;stroke-linejoin:round;" /><path d="M 303.0,-42.0 L 303.0,-33.0 L 303.0,-24.000000000000004" style="stroke:black;fill:none;stroke-width:2.0;stroke-linecap:round;stroke-linejoin:round;" /><path d="M 303.0,-24.000000000000004 L 321.0,-24.000000000000004 L 339.0,-24.000000000000004" style="stroke:black;fill:none;stroke-width:2.0;stroke-linecap:round;stroke-linejoin:round;" /><path d="M 303.0,-24.000000000000004 L 270.23999999999995,-24.000000000000007 M 270.23999999999995,-15.000000000000007 L 270.23999999999995,-33.00000000000001 M 263.76,-15.000000000000007 L 263.76,-33.00000000000001 M 263.76,-24.000000000000007 L 230.99999999999997,-24.00000000000001" style="stroke:black;fill:none;stroke-width:2.0;stroke-linecap:round;stroke-linejoin:round;" /><path d="M 230.99999999999997,-24.00000000000001 L 205.5,-24.000000000000014 L 202.5,-15.000000000000014 L 196.5,-33.000000000000014 L 190.49999999999997,-15.000000000000014 L 184.5,-33.00000000000002 L 178.5,-15.000000000000016 L 172.49999999999997,-33.00000000000002 L 169.5,-24.000000000000018 L 144.0,-24.00000000000002" style="stroke:black;fill:none;stroke-width:2.0;stroke-linecap:round;stroke-linejoin:round;" /><path d="M 303.0,-24.000000000000004 L 303.0,57.0 L 303.0,138.0" style="stroke:black;fill:none;stroke-width:2.0;stroke-linecap:round;stroke-linejoin:round;" /><path d="M 303.0,198.0 L 303.0,183.0 L 287.99999999999994,183.0 L 287.99999999999994,153.0 L 303.0,153.0 L 303.0,138.0" style="stroke:black;fill:none;stroke-width:2.0;stroke-linecap:round;stroke-linejoin:round;" /><path d="M 294.0,183.0 L 287.99999999999994,183.0" style="stroke:black;fill:none;stroke-width:2.0;stroke-linecap:round;stroke-linejoin:round;" /><path d="M 301.0 183.0 L 294.0 187.5 L 294.0 178.5 Z" style="stroke:black;fill:black;stroke-linecap:butt;stroke-linejoin:miter;" /><path d="M 285.0,180.0 L 285.0,156.0" style="stroke:black;fill:none;stroke-width:2.0;stroke-linecap:round;stroke-linejoin:round;" /><path d="M 270.0,167.99999999999997 L 285.0,167.99999999999997" style="stroke:black;fill:none;stroke-width:2.0;stroke-linecap:round;stroke-linejoin:round;" /><path d="M 303.0,198.0 L 303.0,212.4 L 294.0,212.4 L 312.0,212.4 M 296.69999999999993,216.71999999999997 L 309.3,216.71999999999997 M 301.19999999999993,221.04 L 304.8,221.04" style="stroke:black;fill:none;stroke-width:2.0;stroke-linecap:round;stroke-linejoin:round;" /><path d="M 270.0,167.99999999999997 L 207.0,167.99999999999997 L 144.0,167.99999999999997" style="stroke:black;fill:none;stroke-width:2.0;stroke-linecap:round;stroke-linejoin:round;" /><path d="M 144.0,167.99999999999997 L 135.0,167.99999999999997 L 126.0,167.99999999999997" style="stroke:black;fill:none;stroke-width:2.0;stroke-linecap:round;stroke-linejoin:round;" /><path d="M 270.0,167.99999999999997 L 72.0,167.99999999999994 L -126.0,167.99999999999991" style="stroke:black;fill:none;stroke-width:2.0;stroke-linecap:round;stroke-linejoin:round;" /><path d="M 4.408728476930472e-15,-72.0 L 18.000000000000004,-72.0 L 21.000000000000007,-81.0 L 27.000000000000004,-63.0 L 33.0,-81.0 L 39.00000000000001,-63.0 L 45.00000000000001,-81.0 L 51.0,-63.0 L 54.00000000000001,-72.0 L 72.0,-72.0" style="stroke:black;fill:none;stroke-width:2.0;stroke-linecap:round;stroke-linejoin:round;" /><path d="M 72.0,-72.0 L 90.0,-72.0 L 93.0,-81.0 L 99.0,-63.0 L 105.0,-81.0 L 110.99999999999999,-63.0 L 117.0,-81.0 L 123.0,-63.0 L 126.0,-72.0 L 144.0,-72.0" style="stroke:black;fill:none;stroke-width:2.0;stroke-linecap:round;stroke-linejoin:round;" /><path d="M 72.0,-72.0 L 72.0,-96.0 L 72.0,-119.99999999999999" style="stroke:black;fill:none;stroke-width:2.0;stroke-linecap:round;stroke-linejoin:round;" /><path d="M 72.0,-119.99999999999999 L 52.5,-119.99999999999999 L 32.99999999999999,-119.99999999999999" style="stroke:black;fill:none;stroke-width:2.0;stroke-linecap:round;stroke-linejoin:round;" /><path d="M 72.0,-119.99999999999999 L 91.50000000000001,-119.99999999999999 L 111.0,-119.99999999999999" style="stroke:black;fill:none;stroke-width:2.0;stroke-linecap:round;stroke-linejoin:round;" /><path d="M -159.0,138.0 L -159.0,129.0 L -159.0,119.99999999999999" style="stroke:black;fill:none;stroke-width:2.0;stroke-linecap:round;stroke-linejoin:round;" /><path d="M -159.0,119.99999999999999 L -34.50000000000001,119.99999999999999 L -31.5,110.99999999999999 L -25.500000000000007,129.0 L -19.50000000000001,110.99999999999999 L -13.5,129.0 L -7.499999999999989,110.99999999999999 L -1.5000000000000107,129.0 L 1.5000000000000107,119.99999999999999 L 126.00000000000003,119.99999999999999" style="stroke:black;fill:none;stroke-width:2.0;stroke-linecap:round;stroke-linejoin:round;" /><path d="M 126.00000000000003,119.99999999999999 L 126.00000000000003,143.99999999999997 L 126.00000000000001,167.99999999999997" style="stroke:black;fill:none;stroke-width:2.0;stroke-linecap:round;stroke-linejoin:round;" /><path d="M 126.00000000000003,119.99999999999999 L 196.50000000000003,119.99999999999999 L 199.5,110.99999999999999 L 205.50000000000003,129.0 L 211.5,110.99999999999999 L 217.5,129.0 L 223.50000000000003,110.99999999999999 L 229.5,129.0 L 232.50000000000003,119.99999999999999 L 303.0,119.99999999999999" style="stroke:black;fill:none;stroke-width:2.0;stroke-linecap:round;stroke-linejoin:round;" /><path d="M 126.00000000000001,167.99999999999997 L 126.00000000000001,203.99999999999997 L 126.0,239.99999999999997" style="stroke:black;fill:none;stroke-width:2.0;stroke-linecap:round;stroke-linejoin:round;" /><path d="M 126.0,299.99999999999994 L 126.0,285.0 L 111.0,285.0 L 111.0,255.0 L 126.0,255.0 L 126.0,239.99999999999997" style="stroke:black;fill:none;stroke-width:2.0;stroke-linecap:round;stroke-linejoin:round;" /><path d="M 117.0,285.0 L 111.0,285.0" style="stroke:black;fill:none;stroke-width:2.0;stroke-linecap:round;stroke-linejoin:round;" /><path d="M 124.0 285.0 L 117.0 289.5 L 117.0 280.5 Z" style="stroke:black;fill:black;stroke-linecap:butt;stroke-linejoin:miter;" /><path d="M 108.0,282.0 L 108.0,258.0" style="stroke:black;fill:none;stroke-width:2.0;stroke-linecap:round;stroke-linejoin:round;" /><path d="M 93.0,269.99999999999994 L 108.0,269.99999999999994" style="stroke:black;fill:none;stroke-width:2.0;stroke-linecap:round;stroke-linejoin:round;" /><path d="M 126.0,299.99999999999994 L 126.0,314.4 L 117.0,314.4 L 135.0,314.4 M 119.7,318.7199999999999 L 132.29999999999998,318.7199999999999 M 124.2,323.03999999999996 L 127.8,323.03999999999996" style="stroke:black;fill:none;stroke-width:2.0;stroke-linecap:round;stroke-linejoin:round;" /><path d="M 93.0,269.99999999999994 L 84.0,269.99999999999994 L 75.0,269.99999999999994" style="stroke:black;fill:none;stroke-width:2.0;stroke-linecap:round;stroke-linejoin:round;" /><path d="M 75.0,269.99999999999994 L 75.0,251.99999999999997 L 75.0,233.99999999999997" style="stroke:black;fill:none;stroke-width:2.0;stroke-linecap:round;stroke-linejoin:round;" /><path d="M 75.0,233.99999999999997 L 21.000000000000007,233.99999999999997 L -32.99999999999999,233.99999999999997" style="stroke:black;fill:none;stroke-width:2.0;stroke-linecap:round;stroke-linejoin:round;" /><g><g><g><path d="M 13.04 33.576 L 13.04 33.576 L 8.768 33.576 L 8.864 33.096 Q 9.456 33.096 9.768 32.984 Q 10.08 32.872 10.24 32.56 Q 10.4 32.248 10.512 31.672 L 11.936 24.76 L 11.872 24.76 L 6.496 33.576 L 6.144 33.576 L 4.208 24.776 L 4.144 24.776 L 2.816 31.24 Q 2.656 32.056 2.68 32.456 Q 2.704 32.856 2.992 32.976 Q 3.28 33.096 3.888 33.096 L 3.792 33.576 L 0.096 33.576 L 0.192 33.096 Q 0.816 33.096 1.152 32.976 Q 1.488 32.856 1.68 32.456 Q 1.872 32.056 2.032 31.24 L 3.296 25.016 Q 3.424 24.408 3.376 24.096 Q 3.328 23.784 3.032 23.664 Q 2.736 23.544 2.096 23.544 L 2.192 23.064 L 5.392 23.064 L 7.12 31.16 L 7.184 31.16 L 12.064 23.064 L 15.088 23.064 L 14.992 23.544 Q 14.432 23.544 14.104 23.664 Q 13.776 23.784 13.6 24.096 Q 13.424 24.408 13.296 25 L 11.936 31.672 Q 11.76 32.552 12.024 32.824 Q 12.288 33.096 13.136 33.096 Z " fill="black" /><path d="M 19.859 36.936 L 19.859 36.936 L 15.984 36.936 L 15.984 36.622 Q 16.779 36.622 17.104 36.454 Q 17.429 36.286 17.429 35.872 L 17.429 31.134 Q 17.429 30.843 17.35 30.714 Q 17.272 30.586 17.059 30.586 Q 16.891 30.586 16.533 30.63 Q 16.174 30.675 15.917 30.765 L 15.917 30.395 L 18.09 29.779 L 18.414 29.779 L 18.414 35.872 Q 18.414 36.286 18.75 36.454 Q 19.086 36.622 19.859 36.622 Z " fill="black" /></g></g></g><circle cx="17.999999999999996" cy="78.0" r="2.6999999999999997" style="stroke:black;fill:black;stroke-width:2.0;" /><g><g><g><path d="M 25.496 273.514 L 25.496 273.514 L 21.224 273.514 L 21.32 273.034 Q 21.912 273.034 22.224 272.922 Q 22.536 272.81 22.696 272.498 Q 22.856 272.186 22.968 271.61 L 24.392 264.698 L 24.328 264.698 L 18.952 273.514 L 18.6 273.514 L 16.664 264.714 L 16.6 264.714 L 15.272 271.178 Q 15.112 271.994 15.136 272.394 Q 15.16 272.794 15.448 272.914 Q 15.736 273.034 16.344 273.034 L 16.248 273.514 L 12.552 273.514 L 12.648 273.034 Q 13.272 273.034 13.608 272.914 Q 13.944 272.794 14.136 272.394 Q 14.328 271.994 14.488 271.178 L 15.752 264.954 Q 15.88 264.346 15.832 264.034 Q 15.784 263.722 15.488 263.602 Q 15.192 263.482 14.552 263.482 L 14.648 263.002 L 17.848 263.002 L 19.576 271.098 L 19.64 271.098 L 24.52 263.002 L 27.544 263.002 L 27.448 263.482 Q 26.888 263.482 26.56 263.602 Q 26.232 263.722 26.056 264.034 Q 25.88 264.346 25.752 264.938 L 24.392 271.61 Q 24.216 272.49 24.48 272.762 Q 24.744 273.034 25.592 273.034 Z " fill="black" /><path d="M 32.315 276.874 L 32.315 276.874 L 28.44 276.874 L 28.44 276.561 Q 29.235 276.561 29.56 276.393 Q 29.885 276.225 29.885 275.81 L 29.885 271.073 Q 29.885 270.782 29.806 270.653 Q 29.728 270.524 29.515 270.524 Q 29.347 270.524 28.989 270.569 Q 28.63 270.614 28.373 270.703 L 28.373 270.334 L 30.546 269.718 L 30.87 269.718 L 30.87 275.81 Q 30.87 276.225 31.206 276.393 Q 31.542 276.561 32.315 276.561 Z " fill="black" /><path d="M 38.33 273.324 L 38.33 273.324 Q 38.33 274.041 38.19 274.702 Q 38.05 275.362 37.753 275.878 Q 37.456 276.393 36.986 276.695 Q 36.515 276.998 35.854 276.998 Q 35.182 276.998 34.712 276.701 Q 34.242 276.404 33.95 275.889 Q 33.659 275.374 33.525 274.702 Q 33.39 274.03 33.39 273.29 Q 33.39 272.226 33.676 271.414 Q 33.962 270.602 34.516 270.143 Q 35.07 269.684 35.877 269.684 Q 36.605 269.684 37.154 270.115 Q 37.702 270.546 38.016 271.358 Q 38.33 272.17 38.33 273.324 Z M 37.243 273.391 L 37.243 273.391 Q 37.243 271.689 36.89 270.877 Q 36.538 270.065 35.843 270.065 Q 35.182 270.065 34.824 270.871 Q 34.466 271.678 34.466 273.346 Q 34.466 274.97 34.824 275.782 Q 35.182 276.594 35.854 276.594 Q 36.515 276.594 36.879 275.799 Q 37.243 275.004 37.243 273.391 Z " fill="black" /></g></g></g><g><g><g><path d="M -365.56 273.503 L -365.56 273.503 L -369.832 273.503 L -369.736 273.023 Q -369.144 273.023 -368.832 272.911 Q -368.52 272.799 -368.36 272.487 Q -368.2 272.175 -368.088 271.599 L -366.664 264.687 L -366.728 264.687 L -372.104 273.503 L -372.456 273.503 L -374.392 264.703 L -374.456 264.703 L -375.784 271.167 Q -375.944 271.983 -375.92 272.383 Q -375.896 272.783 -375.608 272.903 Q -375.32 273.023 -374.712 273.023 L -374.808 273.503 L -378.504 273.503 L -378.408 273.023 Q -377.784 273.023 -377.448 272.903 Q -377.112 272.783 -376.92 272.383 Q -376.728 271.983 -376.568 271.167 L -375.304 264.943 Q -375.176 264.335 -375.224 264.023 Q -375.272 263.711 -375.568 263.591 Q -375.864 263.471 -376.504 263.471 L -376.408 262.991 L -373.208 262.991 L -371.48 271.087 L -371.416 271.087 L -366.536 262.991 L -363.512 262.991 L -363.608 263.471 Q -364.168 263.471 -364.496 263.591 Q -364.824 263.711 -365 264.023 Q -365.176 264.335 -365.304 264.927 L -366.664 271.599 Q -366.84 272.479 -366.576 272.751 Q -366.312 273.023 -365.464 273.023 Z " fill="black" /><path d="M -362.56 277.009 L -362.56 277.009 L -362.582 276.684 Q -361.81 276.594 -361.16 276.23 Q -360.51 275.866 -360.079 275.234 Q -359.648 274.601 -359.525 273.694 L -359.592 273.682 Q -359.973 274.03 -360.303 274.203 Q -360.634 274.377 -361.059 274.377 Q -361.978 274.377 -362.526 273.755 Q -363.075 273.134 -363.075 272.025 Q -363.075 270.894 -362.476 270.261 Q -361.877 269.628 -360.824 269.628 Q -359.984 269.628 -359.469 270.042 Q -358.954 270.457 -358.713 271.151 Q -358.472 271.846 -358.472 272.674 Q -358.472 274.119 -358.976 275.077 Q -359.48 276.034 -360.398 276.516 Q -361.317 276.998 -362.56 277.009 Z M -362.101 271.958 L -362.101 271.958 Q -362.101 272.742 -361.759 273.229 Q -361.418 273.716 -360.723 273.716 Q -360.23 273.716 -359.855 273.419 Q -359.48 273.122 -359.48 272.406 Q -359.48 271.7 -359.62 271.162 Q -359.76 270.625 -360.068 270.317 Q -360.376 270.009 -360.869 270.009 Q -361.418 270.009 -361.759 270.446 Q -362.101 270.882 -362.101 271.958 Z " fill="black" /></g></g></g><g><g><g><path d="M -399.302 -100.582 L -399.302 -100.582 L -397.99 -106.886 Q -397.846 -107.51 -397.854 -107.87 Q -397.862 -108.23 -398.15 -108.374 Q -398.438 -108.518 -399.174 -108.518 L -399.078 -108.998 L -394.646 -108.998 L -394.742 -108.518 Q -395.446 -108.518 -395.798 -108.374 Q -396.15 -108.23 -396.294 -107.87 Q -396.438 -107.51 -396.566 -106.886 L -397.878 -100.518 Q -397.926 -100.262 -397.958 -100.054 Q -397.99 -99.846 -397.99 -99.67 Q -397.99 -99.222 -397.726 -99.094 Q -397.462 -98.966 -396.71 -98.966 L -396.806 -98.486 L -401.174 -98.486 L -401.078 -98.966 Q -400.422 -98.966 -400.094 -99.078 Q -399.766 -99.19 -399.606 -99.534 Q -399.446 -99.878 -399.302 -100.582 Z " fill="black" /><path d="M -392.821 -103.033 L -392.821 -103.033 L -392.821 -99.606 L -392.787 -99.606 Q -392.496 -99.964 -392.059 -100.261 Q -391.622 -100.558 -391.062 -100.558 Q -390.502 -100.558 -390.082 -100.238 Q -389.662 -99.919 -389.427 -99.359 Q -389.192 -98.799 -389.192 -98.071 Q -389.192 -97.074 -389.539 -96.391 Q -389.886 -95.708 -390.491 -95.361 Q -391.096 -95.014 -391.88 -95.014 Q -392.597 -95.014 -393.073 -95.182 Q -393.549 -95.35 -393.75 -95.462 L -393.75 -101.756 Q -393.75 -102.137 -393.834 -102.243 Q -393.918 -102.35 -394.243 -102.35 Q -394.378 -102.35 -394.467 -102.338 Q -394.557 -102.327 -394.557 -102.327 L -394.557 -102.641 L -393.112 -103.033 Z M -392.821 -99.113 L -392.821 -99.113 L -392.821 -95.999 Q -392.664 -95.809 -392.395 -95.641 Q -392.126 -95.473 -391.678 -95.473 Q -391.141 -95.473 -390.822 -95.775 Q -390.502 -96.078 -390.357 -96.587 Q -390.211 -97.097 -390.211 -97.713 Q -390.211 -98.25 -390.323 -98.726 Q -390.435 -99.202 -390.726 -99.499 Q -391.018 -99.796 -391.555 -99.796 Q -391.981 -99.796 -392.322 -99.555 Q -392.664 -99.314 -392.821 -99.113 Z " fill="black" /><path d="M -385.922 -95.439 L -385.922 -95.439 L -385.922 -95.126 L -388.442 -95.126 L -388.442 -95.439 Q -388.061 -95.439 -387.898 -95.512 Q -387.736 -95.585 -387.697 -95.764 Q -387.658 -95.943 -387.658 -96.257 L -387.658 -99.382 Q -387.658 -99.74 -387.781 -99.824 Q -387.904 -99.908 -388.15 -99.908 Q -388.262 -99.908 -388.346 -99.897 Q -388.43 -99.886 -388.43 -99.886 L -388.43 -100.21 L -387.019 -100.524 L -386.728 -100.524 L -386.728 -96.257 Q -386.728 -95.932 -386.683 -95.753 Q -386.638 -95.574 -386.465 -95.506 Q -386.291 -95.439 -385.922 -95.439 Z M -387.176 -102.663 L -387.176 -102.663 Q -386.885 -102.663 -386.711 -102.478 Q -386.538 -102.294 -386.538 -102.036 Q -386.538 -101.778 -386.711 -101.588 Q -386.885 -101.398 -387.176 -101.398 Q -387.456 -101.398 -387.635 -101.588 Q -387.814 -101.778 -387.814 -102.036 Q -387.814 -102.294 -387.641 -102.478 Q -387.467 -102.663 -387.176 -102.663 Z " fill="black" /><path d="M -382.158 -95.82 L -382.158 -95.82 L -382.203 -95.82 Q -382.595 -95.473 -382.954 -95.26 Q -383.312 -95.047 -383.85 -95.047 Q -384.499 -95.047 -384.841 -95.406 Q -385.182 -95.764 -385.182 -96.302 Q -385.182 -96.75 -384.975 -97.058 Q -384.768 -97.366 -384.426 -97.578 Q -384.085 -97.791 -383.687 -97.937 Q -383.29 -98.082 -382.909 -98.183 Q -382.528 -98.284 -382.237 -98.374 L -382.237 -98.866 Q -382.237 -99.594 -382.489 -99.902 Q -382.741 -100.21 -383.245 -100.21 Q -383.726 -100.21 -383.861 -100.009 Q -383.995 -99.807 -383.995 -99.303 Q -383.995 -98.788 -384.488 -98.788 Q -384.656 -98.788 -384.807 -98.917 Q -384.958 -99.046 -384.958 -99.326 Q -384.958 -99.639 -384.718 -99.919 Q -384.477 -100.199 -384.034 -100.378 Q -383.592 -100.558 -382.987 -100.558 Q -382.069 -100.558 -381.688 -100.132 Q -381.307 -99.706 -381.307 -98.833 L -381.307 -96.29 Q -381.307 -95.943 -381.229 -95.842 Q -381.15 -95.742 -380.971 -95.742 Q -380.814 -95.742 -380.686 -95.82 Q -380.557 -95.898 -380.445 -96.022 L -380.277 -95.842 Q -380.557 -95.439 -380.809 -95.254 Q -381.061 -95.07 -381.486 -95.07 Q -381.856 -95.07 -381.979 -95.26 Q -382.102 -95.45 -382.158 -95.82 Z M -382.237 -96.156 L -382.237 -96.156 L -382.237 -98.004 Q -382.741 -97.881 -383.189 -97.713 Q -383.637 -97.545 -383.917 -97.276 Q -384.197 -97.007 -384.197 -96.57 Q -384.197 -96.156 -383.973 -95.91 Q -383.749 -95.663 -383.39 -95.663 Q -382.83 -95.663 -382.237 -96.156 Z " fill="black" /><path d="M -379.795 -96.962 L -379.795 -96.962 L -379.504 -96.962 Q -379.325 -96.1 -378.978 -95.758 Q -378.63 -95.417 -378.014 -95.417 Q -377.589 -95.417 -377.32 -95.59 Q -377.051 -95.764 -377.051 -96.156 Q -377.051 -96.425 -377.146 -96.604 Q -377.242 -96.783 -377.51 -96.968 Q -377.779 -97.153 -378.306 -97.41 Q -379.067 -97.802 -379.426 -98.166 Q -379.784 -98.53 -379.784 -99.146 Q -379.784 -99.841 -379.286 -100.199 Q -378.787 -100.558 -378.07 -100.558 Q -377.645 -100.558 -377.376 -100.462 Q -377.107 -100.367 -376.894 -100.266 L -376.883 -100.266 L -376.693 -100.502 L -376.469 -100.502 L -376.435 -98.788 L -376.738 -98.788 Q -376.917 -99.583 -377.242 -99.88 Q -377.566 -100.177 -378.082 -100.177 Q -378.462 -100.177 -378.726 -99.998 Q -378.989 -99.818 -378.989 -99.438 Q -378.989 -99.113 -378.686 -98.855 Q -378.384 -98.598 -377.678 -98.239 Q -376.917 -97.836 -376.514 -97.461 Q -376.11 -97.086 -376.11 -96.458 Q -376.11 -95.932 -376.368 -95.613 Q -376.626 -95.294 -377.057 -95.148 Q -377.488 -95.002 -377.992 -95.002 Q -378.474 -95.002 -378.759 -95.103 Q -379.045 -95.204 -379.269 -95.294 L -379.291 -95.294 L -379.526 -95.036 L -379.762 -95.036 Z " fill="black" /></g></g></g><circle cx="-354.0" cy="233.99999999999994" r="2.6999999999999997" style="stroke:black;fill:black;stroke-width:2.0;" /><circle cx="-303.00000000000006" cy="233.99999999999994" r="2.6999999999999997" style="stroke:black;fill:black;stroke-width:2.0;" /><g><g><g><path d="M 132.44 33.576 L 132.44 33.576 L 128.168 33.576 L 128.264 33.096 Q 128.856 33.096 129.168 32.984 Q 129.48 32.872 129.64 32.56 Q 129.8 32.248 129.912 31.672 L 131.336 24.76 L 131.272 24.76 L 125.896 33.576 L 125.544 33.576 L 123.608 24.776 L 123.544 24.776 L 122.216 31.24 Q 122.056 32.056 122.08 32.456 Q 122.104 32.856 122.392 32.976 Q 122.68 33.096 123.288 33.096 L 123.192 33.576 L 119.496 33.576 L 119.592 33.096 Q 120.216 33.096 120.552 32.976 Q 120.888 32.856 121.08 32.456 Q 121.272 32.056 121.432 31.24 L 122.696 25.016 Q 122.824 24.408 122.776 24.096 Q 122.728 23.784 122.432 23.664 Q 122.136 23.544 121.496 23.544 L 121.592 23.064 L 124.792 23.064 L 126.52 31.16 L 126.584 31.16 L 131.464 23.064 L 134.488 23.064 L 134.392 23.544 Q 133.832 23.544 133.504 23.664 Q 133.176 23.784 133 24.096 Q 132.824 24.408 132.696 25 L 131.336 31.672 Q 131.16 32.552 131.424 32.824 Q 131.688 33.096 132.536 33.096 Z " fill="black" /><path d="M 139.685 35.144 L 139.685 35.144 L 139.326 36.936 L 134.914 36.936 L 134.914 36.555 L 136.616 34.853 Q 137.176 34.282 137.546 33.817 Q 137.915 33.352 138.1 32.882 Q 138.285 32.411 138.285 31.829 Q 138.285 31.202 137.91 30.826 Q 137.534 30.451 136.885 30.451 Q 136.336 30.451 135.95 30.686 Q 135.563 30.922 135.25 31.549 L 134.981 31.437 Q 135.238 30.619 135.798 30.171 Q 136.358 29.723 137.176 29.723 Q 137.814 29.723 138.296 29.964 Q 138.778 30.205 139.052 30.636 Q 139.326 31.067 139.326 31.661 Q 139.326 32.154 139.119 32.607 Q 138.912 33.061 138.503 33.542 Q 138.094 34.024 137.501 34.629 L 136.022 36.029 L 136.022 36.085 L 136.806 36.051 L 138.363 36.051 Q 138.811 36.051 138.99 35.85 Q 139.17 35.648 139.36 35.144 Z " fill="black" /></g></g></g><circle cx="-50.99999999999999" cy="29.999999999999993" r="2.6999999999999997" style="stroke:black;fill:white;stroke-width:2.0;" /><g><g><g><path d="M -79.546 30.344 L -79.546 30.344 L -75.178 23.784 Q -74.954 23.464 -74.818 23.192 Q -74.682 22.92 -74.682 22.728 Q -74.682 22.488 -74.89 22.4 Q -75.098 22.312 -75.642 22.312 L -75.61 21.832 L -72.154 21.832 L -72.186 22.312 Q -72.618 22.312 -72.922 22.44 Q -73.226 22.568 -73.538 22.928 Q -73.85 23.288 -74.346 24.024 L -80.218 32.424 L -80.746 32.424 L -81.642 23.768 Q -81.738 22.968 -81.994 22.64 Q -82.25 22.312 -82.89 22.312 L -82.858 21.832 L -78.938 21.832 L -78.986 22.312 Q -79.594 22.312 -79.946 22.552 Q -80.298 22.792 -80.266 23.336 Q -80.266 23.416 -80.242 23.624 Q -80.218 23.832 -80.218 23.912 L -79.738 28.472 L -79.626 30.344 Z " fill="black" /><path d="M -71.164 35.39 L -71.164 35.39 L -71.164 35.704 L -73.684 35.704 L -73.684 35.39 Q -73.303 35.39 -73.141 35.318 Q -72.978 35.245 -72.939 35.066 Q -72.9 34.886 -72.9 34.573 L -72.9 31.448 Q -72.9 31.09 -73.023 31.006 Q -73.146 30.922 -73.393 30.922 Q -73.505 30.922 -73.589 30.933 Q -73.673 30.944 -73.673 30.944 L -73.673 30.619 L -72.262 30.306 L -71.97 30.306 L -71.97 34.573 Q -71.97 34.898 -71.926 35.077 Q -71.881 35.256 -71.707 35.323 Q -71.534 35.39 -71.164 35.39 Z M -72.418 28.166 L -72.418 28.166 Q -72.127 28.166 -71.954 28.351 Q -71.78 28.536 -71.78 28.794 Q -71.78 29.051 -71.954 29.242 Q -72.127 29.432 -72.418 29.432 Q -72.698 29.432 -72.878 29.242 Q -73.057 29.051 -73.057 28.794 Q -73.057 28.536 -72.883 28.351 Q -72.71 28.166 -72.418 28.166 Z " fill="black" /><path d="M -65.463 32.266 L -65.463 32.266 L -65.463 34.573 Q -65.463 34.886 -65.413 35.066 Q -65.362 35.245 -65.183 35.318 Q -65.004 35.39 -64.634 35.39 L -64.634 35.704 L -67.222 35.704 L -67.222 35.39 Q -66.818 35.39 -66.645 35.318 Q -66.471 35.245 -66.432 35.066 Q -66.393 34.886 -66.393 34.573 L -66.393 32.546 Q -66.393 31.874 -66.544 31.538 Q -66.695 31.202 -66.93 31.095 Q -67.166 30.989 -67.423 30.989 Q -67.871 30.989 -68.196 31.23 Q -68.521 31.47 -68.778 31.694 L -68.778 34.573 Q -68.778 34.886 -68.734 35.066 Q -68.689 35.245 -68.51 35.318 Q -68.33 35.39 -67.927 35.39 L -67.927 35.704 L -70.492 35.704 L -70.492 35.39 Q -70.111 35.39 -69.949 35.318 Q -69.786 35.245 -69.747 35.066 Q -69.708 34.886 -69.708 34.573 L -69.708 31.426 Q -69.708 31.123 -69.831 31.028 Q -69.954 30.933 -70.178 30.933 Q -70.324 30.933 -70.402 30.944 Q -70.481 30.955 -70.481 30.955 L -70.481 30.63 L -69.058 30.306 L -68.801 30.306 L -68.812 31.213 L -68.767 31.213 Q -68.308 30.81 -67.899 30.541 Q -67.49 30.272 -66.964 30.272 Q -66.202 30.272 -65.833 30.787 Q -65.463 31.302 -65.463 32.266 Z " fill="black" /><path d="M -63.615 37.182 L -63.615 37.182 L -63.75 36.902 Q -63.537 36.813 -63.324 36.673 Q -63.111 36.533 -62.966 36.264 Q -62.82 35.995 -62.82 35.547 Q -62.999 35.614 -63.167 35.614 Q -63.492 35.614 -63.638 35.435 Q -63.783 35.256 -63.783 35.01 Q -63.783 34.741 -63.604 34.545 Q -63.425 34.349 -63.089 34.349 Q -62.663 34.349 -62.445 34.612 Q -62.226 34.875 -62.226 35.334 Q -62.226 35.805 -62.378 36.13 Q -62.529 36.454 -62.753 36.656 Q -62.977 36.858 -63.212 36.981 Q -63.447 37.104 -63.615 37.182 Z " fill="black" /><path d="M -60.255 30.306 L -60.255 30.306 L -60.255 31.246 L -60.222 31.246 Q -59.818 30.776 -59.398 30.524 Q -58.978 30.272 -58.486 30.272 Q -57.926 30.272 -57.506 30.591 Q -57.086 30.91 -56.845 31.476 Q -56.604 32.042 -56.604 32.781 Q -56.604 33.733 -56.934 34.41 Q -57.265 35.088 -57.825 35.452 Q -58.385 35.816 -59.057 35.816 Q -59.37 35.816 -59.656 35.743 Q -59.942 35.67 -60.188 35.502 L -60.233 35.502 L -60.233 36.97 Q -60.233 37.328 -60.143 37.518 Q -60.054 37.709 -59.818 37.776 Q -59.583 37.843 -59.146 37.843 L -59.146 38.168 L -61.98 38.168 L -61.98 37.854 Q -61.454 37.854 -61.308 37.681 Q -61.162 37.507 -61.162 37.037 L -61.162 31.493 Q -61.162 31.168 -61.235 31.045 Q -61.308 30.922 -61.588 30.922 Q -61.7 30.922 -61.823 30.933 Q -61.946 30.944 -61.946 30.944 L -61.946 30.619 L -60.535 30.306 Z M -60.233 31.717 L -60.233 31.717 L -60.233 34.64 Q -60.121 34.752 -59.953 34.931 Q -59.785 35.11 -59.55 35.245 Q -59.314 35.379 -59.001 35.379 Q -58.407 35.379 -58.015 34.819 Q -57.623 34.259 -57.623 33.094 Q -57.623 32.03 -57.97 31.532 Q -58.318 31.034 -58.945 31.034 Q -59.393 31.034 -59.734 31.269 Q -60.076 31.504 -60.233 31.717 Z " fill="black" /></g></g></g><circle cx="194.99999999999997" cy="29.999999999999996" r="2.6999999999999997" style="stroke:black;fill:white;stroke-width:2.0;" /><g><g><g><path d="M 205.732 30.837 L 205.732 30.837 L 210.1 24.277 Q 210.324 23.957 210.46 23.685 Q 210.596 23.413 210.596 23.221 Q 210.596 22.981 210.388 22.893 Q 210.18 22.805 209.636 22.805 L 209.668 22.325 L 213.124 22.325 L 213.092 22.805 Q 212.66 22.805 212.356 22.933 Q 212.052 23.061 211.74 23.421 Q 211.428 23.781 210.932 24.517 L 205.06 32.917 L 204.532 32.917 L 203.636 24.261 Q 203.54 23.461 203.284 23.133 Q 203.028 22.805 202.388 22.805 L 202.42 22.325 L 206.34 22.325 L 206.292 22.805 Q 205.684 22.805 205.332 23.045 Q 204.98 23.285 205.012 23.829 Q 205.012 23.909 205.036 24.117 Q 205.06 24.325 205.06 24.405 L 205.54 28.965 L 205.652 30.837 Z " fill="black" /><path d="M 214.114 35.883 L 214.114 35.883 L 214.114 36.197 L 211.594 36.197 L 211.594 35.883 Q 211.975 35.883 212.138 35.81 Q 212.3 35.738 212.339 35.558 Q 212.378 35.379 212.378 35.066 L 212.378 31.941 Q 212.378 31.582 212.255 31.498 Q 212.132 31.414 211.886 31.414 Q 211.774 31.414 211.69 31.426 Q 211.606 31.437 211.606 31.437 L 211.606 31.112 L 213.017 30.798 L 213.308 30.798 L 213.308 35.066 Q 213.308 35.39 213.353 35.57 Q 213.398 35.749 213.571 35.816 Q 213.745 35.883 214.114 35.883 Z M 212.86 28.659 L 212.86 28.659 Q 213.151 28.659 213.325 28.844 Q 213.498 29.029 213.498 29.286 Q 213.498 29.544 213.325 29.734 Q 213.151 29.925 212.86 29.925 Q 212.58 29.925 212.401 29.734 Q 212.222 29.544 212.222 29.286 Q 212.222 29.029 212.395 28.844 Q 212.569 28.659 212.86 28.659 Z " fill="black" /><path d="M 219.815 32.758 L 219.815 32.758 L 219.815 35.066 Q 219.815 35.379 219.866 35.558 Q 219.916 35.738 220.095 35.81 Q 220.274 35.883 220.644 35.883 L 220.644 36.197 L 218.057 36.197 L 218.057 35.883 Q 218.46 35.883 218.634 35.81 Q 218.807 35.738 218.846 35.558 Q 218.886 35.379 218.886 35.066 L 218.886 33.038 Q 218.886 32.366 218.734 32.03 Q 218.583 31.694 218.348 31.588 Q 218.113 31.482 217.855 31.482 Q 217.407 31.482 217.082 31.722 Q 216.758 31.963 216.5 32.187 L 216.5 35.066 Q 216.5 35.379 216.545 35.558 Q 216.59 35.738 216.769 35.81 Q 216.948 35.883 217.351 35.883 L 217.351 36.197 L 214.786 36.197 L 214.786 35.883 Q 215.167 35.883 215.33 35.81 Q 215.492 35.738 215.531 35.558 Q 215.57 35.379 215.57 35.066 L 215.57 31.918 Q 215.57 31.616 215.447 31.521 Q 215.324 31.426 215.1 31.426 Q 214.954 31.426 214.876 31.437 Q 214.798 31.448 214.798 31.448 L 214.798 31.123 L 216.22 30.798 L 216.478 30.798 L 216.466 31.706 L 216.511 31.706 Q 216.97 31.302 217.379 31.034 Q 217.788 30.765 218.314 30.765 Q 219.076 30.765 219.446 31.28 Q 219.815 31.795 219.815 32.758 Z " fill="black" /><path d="M 221.663 37.675 L 221.663 37.675 L 221.529 37.395 Q 221.742 37.306 221.954 37.166 Q 222.167 37.026 222.313 36.757 Q 222.458 36.488 222.458 36.04 Q 222.279 36.107 222.111 36.107 Q 221.786 36.107 221.641 35.928 Q 221.495 35.749 221.495 35.502 Q 221.495 35.234 221.674 35.038 Q 221.854 34.842 222.19 34.842 Q 222.615 34.842 222.834 35.105 Q 223.052 35.368 223.052 35.827 Q 223.052 36.298 222.901 36.622 Q 222.75 36.947 222.526 37.149 Q 222.302 37.35 222.066 37.474 Q 221.831 37.597 221.663 37.675 Z " fill="black" /><path d="M 228.439 32.758 L 228.439 32.758 L 228.439 35.066 Q 228.439 35.379 228.49 35.558 Q 228.54 35.738 228.719 35.81 Q 228.898 35.883 229.268 35.883 L 229.268 36.197 L 226.681 36.197 L 226.681 35.883 Q 227.084 35.883 227.258 35.81 Q 227.431 35.738 227.47 35.558 Q 227.51 35.379 227.51 35.066 L 227.51 33.038 Q 227.51 32.366 227.358 32.03 Q 227.207 31.694 226.972 31.588 Q 226.737 31.482 226.479 31.482 Q 226.031 31.482 225.706 31.722 Q 225.382 31.963 225.124 32.187 L 225.124 35.066 Q 225.124 35.379 225.169 35.558 Q 225.214 35.738 225.393 35.81 Q 225.572 35.883 225.975 35.883 L 225.975 36.197 L 223.41 36.197 L 223.41 35.883 Q 223.791 35.883 223.954 35.81 Q 224.116 35.738 224.155 35.558 Q 224.194 35.379 224.194 35.066 L 224.194 31.918 Q 224.194 31.616 224.071 31.521 Q 223.948 31.426 223.724 31.426 Q 223.578 31.426 223.5 31.437 Q 223.422 31.448 223.422 31.448 L 223.422 31.123 L 224.844 30.798 L 225.102 30.798 L 225.09 31.706 L 225.135 31.706 Q 225.594 31.302 226.003 31.034 Q 226.412 30.765 226.938 30.765 Q 227.7 30.765 228.07 31.28 Q 228.439 31.795 228.439 32.758 Z " fill="black" /></g></g></g><circle cx="4.408728476930472e-15" cy="-72.0" r="2.6999999999999997" style="stroke:black;fill:black;stroke-width:2.0;" /><g><g><g><path d="M -11.56 -116.497 L -11.56 -116.497 L -15.832 -116.497 L -15.736 -116.977 Q -15.144 -116.977 -14.832 -117.089 Q -14.52 -117.201 -14.36 -117.513 Q -14.2 -117.825 -14.088 -118.401 L -12.664 -125.313 L -12.728 -125.313 L -18.104 -116.497 L -18.456 -116.497 L -20.392 -125.297 L -20.456 -125.297 L -21.784 -118.833 Q -21.944 -118.017 -21.92 -117.617 Q -21.896 -117.217 -21.608 -117.097 Q -21.32 -116.977 -20.712 -116.977 L -20.808 -116.497 L -24.504 -116.497 L -24.408 -116.977 Q -23.784 -116.977 -23.448 -117.097 Q -23.112 -117.217 -22.92 -117.617 Q -22.728 -118.017 -22.568 -118.833 L -21.304 -125.057 Q -21.176 -125.665 -21.224 -125.977 Q -21.272 -126.289 -21.568 -126.409 Q -21.864 -126.529 -22.504 -126.529 L -22.408 -127.009 L -19.208 -127.009 L -17.48 -118.913 L -17.416 -118.913 L -12.536 -127.009 L -9.512 -127.009 L -9.608 -126.529 Q -10.168 -126.529 -10.496 -126.409 Q -10.824 -126.289 -11 -125.977 Q -11.176 -125.665 -11.304 -125.073 L -12.664 -118.401 Q -12.84 -117.521 -12.576 -117.249 Q -12.312 -116.977 -11.464 -116.977 Z " fill="black" /><path d="M -8.549 -118.714 L -8.549 -118.714 L -8.806 -118.86 Q -8.168 -120.35 -6.779 -120.35 Q -5.917 -120.35 -5.446 -119.918 Q -4.976 -119.487 -4.976 -118.849 Q -4.976 -118.266 -5.318 -117.908 Q -5.659 -117.55 -6.186 -117.214 L -6.186 -117.18 Q -5.738 -117.046 -5.362 -116.794 Q -4.987 -116.542 -4.763 -116.178 Q -4.539 -115.814 -4.539 -115.31 Q -4.539 -114.548 -4.965 -114.027 Q -5.39 -113.506 -6.085 -113.249 Q -6.779 -112.991 -7.597 -112.991 Q -8.101 -112.991 -8.37 -113.086 Q -8.638 -113.182 -8.745 -113.322 Q -8.851 -113.462 -8.851 -113.607 Q -8.851 -113.786 -8.739 -113.943 Q -8.627 -114.1 -8.414 -114.1 Q -8.28 -114.1 -8.162 -114.05 Q -8.045 -113.999 -7.754 -113.842 Q -7.395 -113.663 -7.222 -113.607 Q -7.048 -113.551 -6.846 -113.551 Q -6.488 -113.551 -6.174 -113.68 Q -5.861 -113.809 -5.659 -114.117 Q -5.458 -114.425 -5.458 -114.974 Q -5.458 -115.478 -5.738 -115.847 Q -6.018 -116.217 -6.482 -116.424 Q -6.947 -116.631 -7.485 -116.631 L -7.709 -116.631 L -7.709 -117.057 L -7.496 -117.057 Q -7.115 -117.057 -6.757 -117.247 Q -6.398 -117.438 -6.169 -117.785 Q -5.939 -118.132 -5.939 -118.58 Q -5.939 -119.073 -6.247 -119.347 Q -6.555 -119.622 -7.082 -119.622 Q -7.586 -119.622 -7.922 -119.392 Q -8.258 -119.162 -8.549 -118.714 Z " fill="black" /></g></g></g><circle cx="144.0" cy="-72.0" r="2.6999999999999997" style="stroke:black;fill:black;stroke-width:2.0;" /><g><g><g><path d="M 157.04 -116.497 L 157.04 -116.497 L 152.768 -116.497 L 152.864 -116.977 Q 153.456 -116.977 153.768 -117.089 Q 154.08 -117.201 154.24 -117.513 Q 154.4 -117.825 154.512 -118.401 L 155.936 -125.313 L 155.872 -125.313 L 150.496 -116.497 L 150.144 -116.497 L 148.208 -125.297 L 148.144 -125.297 L 146.816 -118.833 Q 146.656 -118.017 146.68 -117.617 Q 146.704 -117.217 146.992 -117.097 Q 147.28 -116.977 147.888 -116.977 L 147.792 -116.497 L 144.096 -116.497 L 144.192 -116.977 Q 144.816 -116.977 145.152 -117.097 Q 145.488 -117.217 145.68 -117.617 Q 145.872 -118.017 146.032 -118.833 L 147.296 -125.057 Q 147.424 -125.665 147.376 -125.977 Q 147.328 -126.289 147.032 -126.409 Q 146.736 -126.529 146.096 -126.529 L 146.192 -127.009 L 149.392 -127.009 L 151.12 -118.913 L 151.184 -118.913 L 156.064 -127.009 L 159.088 -127.009 L 158.992 -126.529 Q 158.432 -126.529 158.104 -126.409 Q 157.776 -126.289 157.6 -125.977 Q 157.424 -125.665 157.296 -125.073 L 155.936 -118.401 Q 155.76 -117.521 156.024 -117.249 Q 156.288 -116.977 157.136 -116.977 Z " fill="black" /><path d="M 163.758 -119.286 L 163.758 -119.286 L 161.126 -119.286 L 160.824 -118.009 L 161.35 -117.975 Q 161.843 -117.942 162.325 -117.807 Q 162.806 -117.673 163.198 -117.404 Q 163.59 -117.135 163.82 -116.693 Q 164.05 -116.25 164.05 -115.59 Q 164.05 -114.727 163.669 -114.15 Q 163.288 -113.574 162.61 -113.282 Q 161.933 -112.991 161.037 -112.991 Q 159.749 -112.991 159.749 -113.618 Q 159.749 -113.809 159.866 -113.954 Q 159.984 -114.1 160.197 -114.1 Q 160.421 -114.1 160.639 -113.966 Q 160.858 -113.831 161.115 -113.691 Q 161.373 -113.551 161.731 -113.551 Q 162.134 -113.551 162.476 -113.708 Q 162.818 -113.865 163.025 -114.212 Q 163.232 -114.559 163.232 -115.142 Q 163.232 -116.194 162.605 -116.609 Q 161.978 -117.023 160.813 -117.079 Q 160.6 -117.102 160.516 -117.102 Q 160.432 -117.102 160.309 -117.102 L 160.174 -117.27 L 160.869 -120.193 L 163.938 -120.193 Z " fill="black" /></g></g></g><g><g><g><path d="M -58.176 -75.6 L -58.176 -75.6 L -62.448 -75.6 L -62.352 -76.08 Q -61.76 -76.08 -61.416 -76.24 Q -61.072 -76.4 -61.072 -76.992 Q -61.072 -77.184 -61.08 -77.352 Q -61.088 -77.52 -61.104 -77.664 L -61.264 -79.104 L -65.392 -79.104 L -66.512 -77.408 Q -66.672 -77.184 -66.792 -76.96 Q -66.912 -76.736 -66.912 -76.512 Q -66.912 -76.256 -66.712 -76.168 Q -66.512 -76.08 -65.984 -76.08 L -66.096 -75.6 L -69.44 -75.6 L -69.328 -76.08 Q -68.88 -76.08 -68.576 -76.224 Q -68.272 -76.368 -67.904 -76.808 Q -67.536 -77.248 -66.944 -78.16 L -61.408 -86.176 L -60.736 -86.176 L -59.472 -77.504 Q -59.312 -76.72 -59.056 -76.4 Q -58.8 -76.08 -58.08 -76.08 Z M -61.328 -79.744 L -61.328 -79.744 L -61.856 -84.368 L -61.904 -84.368 L -65.008 -79.744 Z " fill="black" /></g></g></g><g><g><g><path d="M -170.56 -68.424 L -170.56 -68.424 L -174.832 -68.424 L -174.736 -68.904 Q -174.144 -68.904 -173.832 -69.016 Q -173.52 -69.128 -173.36 -69.44 Q -173.2 -69.752 -173.088 -70.328 L -171.664 -77.24 L -171.728 -77.24 L -177.104 -68.424 L -177.456 -68.424 L -179.392 -77.224 L -179.456 -77.224 L -180.784 -70.76 Q -180.944 -69.944 -180.92 -69.544 Q -180.896 -69.144 -180.608 -69.024 Q -180.32 -68.904 -179.712 -68.904 L -179.808 -68.424 L -183.504 -68.424 L -183.408 -68.904 Q -182.784 -68.904 -182.448 -69.024 Q -182.112 -69.144 -181.92 -69.544 Q -181.728 -69.944 -181.568 -70.76 L -180.304 -76.984 Q -180.176 -77.592 -180.224 -77.904 Q -180.272 -78.216 -180.568 -78.336 Q -180.864 -78.456 -181.504 -78.456 L -181.408 -78.936 L -178.208 -78.936 L -176.48 -70.84 L -176.416 -70.84 L -171.536 -78.936 L -168.512 -78.936 L -168.608 -78.456 Q -169.168 -78.456 -169.496 -78.336 Q -169.824 -78.216 -170 -77.904 Q -170.176 -77.592 -170.304 -77 L -171.664 -70.328 Q -171.84 -69.448 -171.576 -69.176 Q -171.312 -68.904 -170.464 -68.904 Z " fill="black" /><path d="M -163.125 -66.834 L -163.125 -66.834 L -164.267 -66.834 L -164.267 -65.064 L -165.264 -65.064 L -165.264 -66.834 L -168.366 -66.834 L -168.366 -67.539 L -164.95 -72.288 L -164.267 -72.288 L -164.267 -67.606 L -163.125 -67.606 Z M -165.264 -67.606 L -165.264 -67.606 L -165.264 -71.067 L -165.309 -71.067 L -167.75 -67.651 L -167.75 -67.606 Z " fill="black" /></g></g></g><g><g><g><path d="M 210.726 -75.6 L 210.726 -75.6 L 206.454 -75.6 L 206.55 -76.08 Q 207.142 -76.08 207.486 -76.24 Q 207.83 -76.4 207.83 -76.992 Q 207.83 -77.184 207.822 -77.352 Q 207.814 -77.52 207.798 -77.664 L 207.638 -79.104 L 203.51 -79.104 L 202.39 -77.408 Q 202.23 -77.184 202.11 -76.96 Q 201.99 -76.736 201.99 -76.512 Q 201.99 -76.256 202.19 -76.168 Q 202.39 -76.08 202.918 -76.08 L 202.806 -75.6 L 199.462 -75.6 L 199.574 -76.08 Q 200.022 -76.08 200.326 -76.224 Q 200.63 -76.368 200.998 -76.808 Q 201.366 -77.248 201.958 -78.16 L 207.494 -86.176 L 208.166 -86.176 L 209.43 -77.504 Q 209.59 -76.72 209.846 -76.4 Q 210.102 -76.08 210.822 -76.08 Z M 207.574 -79.744 L 207.574 -79.744 L 207.046 -84.368 L 206.998 -84.368 L 203.894 -79.744 Z " fill="black" /><path d="M 210.97 -85.997 L 210.97 -85.997 L 211.754 -88.64 Q 211.821 -88.864 211.944 -89.049 Q 212.067 -89.234 212.358 -89.234 Q 212.582 -89.234 212.683 -89.088 Q 212.784 -88.942 212.784 -88.752 Q 212.784 -88.64 212.745 -88.539 Q 212.706 -88.438 212.661 -88.338 L 211.35 -85.829 Z " fill="black" /></g></g></g><g><g><g><path d="M 316.04 -68.491 L 316.04 -68.491 L 311.768 -68.491 L 311.864 -68.971 Q 312.456 -68.971 312.768 -69.083 Q 313.08 -69.195 313.24 -69.507 Q 313.4 -69.819 313.512 -70.395 L 314.936 -77.307 L 314.872 -77.307 L 309.496 -68.491 L 309.144 -68.491 L 307.208 -77.291 L 307.144 -77.291 L 305.816 -70.827 Q 305.656 -70.011 305.68 -69.611 Q 305.704 -69.211 305.992 -69.091 Q 306.28 -68.971 306.888 -68.971 L 306.792 -68.491 L 303.096 -68.491 L 303.192 -68.971 Q 303.816 -68.971 304.152 -69.091 Q 304.488 -69.211 304.68 -69.611 Q 304.872 -70.011 305.032 -70.827 L 306.296 -77.051 Q 306.424 -77.659 306.376 -77.971 Q 306.328 -78.283 306.032 -78.403 Q 305.736 -78.523 305.096 -78.523 L 305.192 -79.003 L 308.392 -79.003 L 310.12 -70.907 L 310.184 -70.907 L 315.064 -79.003 L 318.088 -79.003 L 317.992 -78.523 Q 317.432 -78.523 317.104 -78.403 Q 316.776 -78.283 316.6 -77.971 Q 316.424 -77.659 316.296 -77.067 L 314.936 -70.395 Q 314.76 -69.515 315.024 -69.243 Q 315.288 -68.971 316.136 -68.971 Z " fill="black" /><path d="M 322.736 -72.366 L 322.736 -72.366 L 322.758 -72.042 Q 321.974 -71.93 321.325 -71.538 Q 320.675 -71.146 320.238 -70.518 Q 319.802 -69.891 319.656 -69.074 L 319.734 -69.062 Q 320.082 -69.398 320.418 -69.578 Q 320.754 -69.757 321.19 -69.757 Q 322.109 -69.757 322.658 -69.13 Q 323.206 -68.502 323.206 -67.405 Q 323.206 -66.262 322.63 -65.63 Q 322.053 -64.997 320.989 -64.997 Q 320.16 -64.997 319.628 -65.406 Q 319.096 -65.814 318.844 -66.503 Q 318.592 -67.192 318.592 -68.01 Q 318.592 -69.365 319.124 -70.317 Q 319.656 -71.269 320.597 -71.795 Q 321.538 -72.322 322.736 -72.366 Z M 322.232 -67.315 L 322.232 -67.315 Q 322.232 -68.077 321.89 -68.592 Q 321.549 -69.107 320.854 -69.107 Q 320.53 -69.107 320.244 -68.978 Q 319.958 -68.85 319.779 -68.558 Q 319.6 -68.267 319.6 -67.774 Q 319.6 -67.08 319.757 -66.542 Q 319.914 -66.005 320.233 -65.697 Q 320.552 -65.389 321.034 -65.389 Q 321.594 -65.389 321.913 -65.82 Q 322.232 -66.251 322.232 -67.315 Z " fill="black" /></g></g></g><circle cx="-194.99999999999997" cy="-24.00000000000002" r="2.6999999999999997" style="stroke:black;fill:white;stroke-width:2.0;" /><g><g><g><path d="M -227.908 -23.656 L -227.908 -23.656 L -223.54 -30.216 Q -223.316 -30.536 -223.18 -30.808 Q -223.044 -31.08 -223.044 -31.272 Q -223.044 -31.512 -223.252 -31.6 Q -223.46 -31.688 -224.004 -31.688 L -223.972 -32.168 L -220.516 -32.168 L -220.548 -31.688 Q -220.98 -31.688 -221.284 -31.56 Q -221.588 -31.432 -221.9 -31.072 Q -222.212 -30.712 -222.708 -29.976 L -228.58 -21.576 L -229.108 -21.576 L -230.004 -30.232 Q -230.1 -31.032 -230.356 -31.36 Q -230.612 -31.688 -231.252 -31.688 L -231.22 -32.168 L -227.3 -32.168 L -227.348 -31.688 Q -227.956 -31.688 -228.308 -31.448 Q -228.66 -31.208 -228.628 -30.664 Q -228.628 -30.584 -228.604 -30.376 Q -228.58 -30.168 -228.58 -30.088 L -228.1 -25.528 L -227.988 -23.656 Z " fill="black" /><path d="M -221.178 -23.728 L -221.178 -23.728 Q -220.025 -23.728 -219.358 -23.011 Q -218.692 -22.294 -218.692 -21.051 Q -218.692 -20.11 -219.011 -19.472 Q -219.33 -18.834 -219.89 -18.509 Q -220.45 -18.184 -221.178 -18.184 Q -222.354 -18.184 -223.021 -18.918 Q -223.687 -19.651 -223.687 -21.006 Q -223.687 -21.824 -223.374 -22.434 Q -223.06 -23.045 -222.494 -23.386 Q -221.929 -23.728 -221.178 -23.728 Z M -221.223 -23.302 L -221.223 -23.302 Q -221.862 -23.302 -222.254 -22.765 Q -222.646 -22.227 -222.646 -21.152 Q -222.646 -19.819 -222.248 -19.22 Q -221.85 -18.621 -221.134 -18.632 Q -220.674 -18.632 -220.361 -18.845 Q -220.047 -19.058 -219.885 -19.573 Q -219.722 -20.088 -219.722 -20.995 Q -219.722 -22.026 -220.098 -22.664 Q -220.473 -23.302 -221.223 -23.302 Z " fill="black" /><path d="M -212.263 -18.8 L -212.263 -18.8 L -212.263 -18.498 L -213.686 -18.24 L -213.932 -18.24 L -213.932 -19.102 L -213.988 -19.102 Q -214.436 -18.666 -214.862 -18.425 Q -215.287 -18.184 -215.825 -18.184 Q -216.519 -18.184 -216.906 -18.638 Q -217.292 -19.091 -217.292 -20.234 L -217.292 -22.507 Q -217.292 -22.966 -217.443 -23.062 Q -217.594 -23.157 -218.054 -23.168 L -218.054 -23.482 L -216.609 -23.65 L -216.362 -23.65 L -216.362 -20.379 Q -216.362 -19.528 -216.077 -19.214 Q -215.791 -18.901 -215.354 -18.901 Q -214.929 -18.901 -214.621 -19.091 Q -214.313 -19.282 -213.977 -19.573 L -213.977 -22.518 Q -213.977 -22.966 -214.162 -23.067 Q -214.346 -23.168 -214.884 -23.168 L -214.884 -23.482 L -213.316 -23.65 L -213.047 -23.65 L -213.047 -19.539 Q -213.047 -19.046 -212.913 -18.923 Q -212.778 -18.8 -212.375 -18.8 Z " fill="black" /><path d="M -208.646 -19.304 L -208.646 -19.304 L -208.433 -19.125 Q -208.646 -18.822 -208.83 -18.615 Q -209.015 -18.408 -209.239 -18.296 Q -209.463 -18.184 -209.822 -18.184 Q -210.382 -18.184 -210.639 -18.514 Q -210.897 -18.845 -210.897 -19.595 L -210.897 -23.067 L -211.513 -23.067 L -211.513 -23.325 Q -211.121 -23.571 -210.835 -23.991 Q -210.55 -24.411 -210.247 -25.128 L -209.956 -25.128 L -209.967 -23.538 L -208.702 -23.538 L -208.702 -23.067 L -209.967 -23.067 L -209.967 -19.909 Q -209.967 -19.315 -209.861 -19.08 Q -209.754 -18.845 -209.43 -18.845 Q -209.161 -18.845 -209.01 -18.957 Q -208.858 -19.069 -208.646 -19.304 Z " fill="black" /><path d="M -207.615 -16.818 L -207.615 -16.818 L -207.75 -17.098 Q -207.537 -17.187 -207.324 -17.327 Q -207.111 -17.467 -206.966 -17.736 Q -206.82 -18.005 -206.82 -18.453 Q -206.999 -18.386 -207.167 -18.386 Q -207.492 -18.386 -207.638 -18.565 Q -207.783 -18.744 -207.783 -18.99 Q -207.783 -19.259 -207.604 -19.455 Q -207.425 -19.651 -207.089 -19.651 Q -206.663 -19.651 -206.445 -19.388 Q -206.226 -19.125 -206.226 -18.666 Q -206.226 -18.195 -206.378 -17.87 Q -206.529 -17.546 -206.753 -17.344 Q -206.977 -17.142 -207.212 -17.019 Q -207.447 -16.896 -207.615 -16.818 Z " fill="black" /><path d="M -204.255 -23.694 L -204.255 -23.694 L -204.255 -22.754 L -204.222 -22.754 Q -203.818 -23.224 -203.398 -23.476 Q -202.978 -23.728 -202.486 -23.728 Q -201.926 -23.728 -201.506 -23.409 Q -201.086 -23.09 -200.845 -22.524 Q -200.604 -21.958 -200.604 -21.219 Q -200.604 -20.267 -200.934 -19.59 Q -201.265 -18.912 -201.825 -18.548 Q -202.385 -18.184 -203.057 -18.184 Q -203.37 -18.184 -203.656 -18.257 Q -203.942 -18.33 -204.188 -18.498 L -204.233 -18.498 L -204.233 -17.03 Q -204.233 -16.672 -204.143 -16.482 Q -204.054 -16.291 -203.818 -16.224 Q -203.583 -16.157 -203.146 -16.157 L -203.146 -15.832 L -205.98 -15.832 L -205.98 -16.146 Q -205.454 -16.146 -205.308 -16.319 Q -205.162 -16.493 -205.162 -16.963 L -205.162 -22.507 Q -205.162 -22.832 -205.235 -22.955 Q -205.308 -23.078 -205.588 -23.078 Q -205.7 -23.078 -205.823 -23.067 Q -205.946 -23.056 -205.946 -23.056 L -205.946 -23.381 L -204.535 -23.694 Z M -204.233 -22.283 L -204.233 -22.283 L -204.233 -19.36 Q -204.121 -19.248 -203.953 -19.069 Q -203.785 -18.89 -203.55 -18.755 Q -203.314 -18.621 -203.001 -18.621 Q -202.407 -18.621 -202.015 -19.181 Q -201.623 -19.741 -201.623 -20.906 Q -201.623 -21.97 -201.97 -22.468 Q -202.318 -22.966 -202.945 -22.966 Q -203.393 -22.966 -203.734 -22.731 Q -204.076 -22.496 -204.233 -22.283 Z " fill="black" /></g></g></g><g><g><g><path d="M -126.127 -42.28 L -126.127 -42.28 L -125.839 -41.976 Q -126.655 -41.016 -127.727 -40.4 Q -128.799 -39.784 -130.319 -39.784 Q -131.759 -39.784 -132.623 -40.32 Q -133.487 -40.856 -133.863 -41.752 Q -134.239 -42.648 -134.239 -43.704 Q -134.239 -45.384 -133.727 -46.688 Q -133.215 -47.992 -132.327 -48.88 Q -131.439 -49.768 -130.319 -50.224 Q -129.199 -50.68 -127.983 -50.68 Q -127.167 -50.68 -126.711 -50.536 Q -126.255 -50.392 -125.999 -50.24 Q -125.743 -50.088 -125.551 -50.088 Q -125.359 -50.088 -125.215 -50.248 Q -125.071 -50.408 -124.879 -50.664 L -124.415 -50.664 L -125.167 -47 L -125.695 -47 Q -125.631 -48.6 -126.287 -49.296 Q -126.943 -49.992 -128.127 -49.992 Q -129.055 -49.992 -129.871 -49.568 Q -130.687 -49.144 -131.319 -48.368 Q -131.951 -47.592 -132.311 -46.512 Q -132.671 -45.432 -132.671 -44.104 Q -132.671 -42.504 -131.911 -41.664 Q -131.151 -40.824 -129.567 -40.824 Q -127.727 -40.824 -126.127 -42.28 Z " fill="black" /><path d="M -122.855 -40.598 L -122.855 -40.598 L -122.855 -37.686 Q -122.855 -37.216 -122.693 -37.07 Q -122.53 -36.925 -122.015 -36.925 L -122.015 -36.6 L -124.569 -36.6 L -124.569 -36.925 Q -124.21 -36.925 -124.048 -36.986 Q -123.886 -37.048 -123.835 -37.222 Q -123.785 -37.395 -123.785 -37.731 L -123.785 -40.867 Q -123.785 -41.17 -123.902 -41.27 Q -124.02 -41.371 -124.255 -41.371 Q -124.378 -41.371 -124.468 -41.36 Q -124.558 -41.349 -124.558 -41.349 L -124.558 -41.674 L -123.158 -41.998 L -122.889 -41.998 L -122.889 -41.091 L -122.844 -41.091 Q -122.385 -41.483 -121.959 -41.758 Q -121.534 -42.032 -120.962 -42.032 Q -120.481 -42.032 -120.184 -41.769 Q -119.887 -41.506 -119.719 -41.102 L -119.674 -41.102 Q -119.215 -41.562 -118.778 -41.797 Q -118.342 -42.032 -117.894 -42.032 Q -117.233 -42.032 -116.841 -41.618 Q -116.449 -41.203 -116.449 -40.184 L -116.449 -37.899 Q -116.449 -37.552 -116.41 -37.334 Q -116.37 -37.115 -116.197 -37.02 Q -116.023 -36.925 -115.642 -36.925 L -115.642 -36.6 L -118.174 -36.6 L -118.174 -36.925 Q -117.793 -36.925 -117.625 -37.026 Q -117.457 -37.126 -117.418 -37.345 Q -117.378 -37.563 -117.378 -37.899 L -117.378 -40.05 Q -117.378 -40.565 -117.507 -40.834 Q -117.636 -41.102 -117.854 -41.209 Q -118.073 -41.315 -118.342 -41.315 Q -118.689 -41.315 -119.019 -41.086 Q -119.35 -40.856 -119.63 -40.621 L -119.63 -37.899 Q -119.63 -37.518 -119.579 -37.306 Q -119.529 -37.093 -119.35 -37.009 Q -119.17 -36.925 -118.767 -36.925 L -118.767 -36.6 L -121.422 -36.6 L -121.422 -36.925 Q -121.018 -36.925 -120.839 -37.003 Q -120.66 -37.082 -120.61 -37.294 Q -120.559 -37.507 -120.559 -37.899 L -120.559 -40.117 Q -120.559 -40.834 -120.811 -41.074 Q -121.063 -41.315 -121.455 -41.315 Q -121.892 -41.315 -122.25 -41.069 Q -122.609 -40.822 -122.855 -40.598 Z " fill="black" /><path d="M -110.614 -36.6 L -110.614 -36.6 L -114.489 -36.6 L -114.489 -36.914 Q -113.694 -36.914 -113.369 -37.082 Q -113.044 -37.25 -113.044 -37.664 L -113.044 -42.402 Q -113.044 -42.693 -113.122 -42.822 Q -113.201 -42.95 -113.414 -42.95 Q -113.582 -42.95 -113.94 -42.906 Q -114.298 -42.861 -114.556 -42.771 L -114.556 -43.141 L -112.383 -43.757 L -112.058 -43.757 L -112.058 -37.664 Q -112.058 -37.25 -111.722 -37.082 Q -111.386 -36.914 -110.614 -36.914 Z " fill="black" /></g></g></g><circle cx="0.0" cy="-24.000000000000018" r="2.6999999999999997" style="stroke:black;fill:black;stroke-width:2.0;" /><g><g><g><path d="M -45.589 -48.264 L -45.589 -48.264 Q -45.589 -47.416 -45.909 -46.84 Q -46.229 -46.264 -46.741 -45.896 Q -47.253 -45.528 -47.837 -45.328 Q -48.421 -45.128 -48.949 -45.032 L -48.949 -44.952 Q -48.661 -44.76 -48.405 -44.368 Q -48.149 -43.976 -47.773 -43.24 Q -47.397 -42.504 -46.741 -41.256 Q -46.469 -40.776 -46.141 -40.608 Q -45.813 -40.44 -45.269 -40.44 L -45.365 -39.96 L -47.797 -39.96 Q -48.245 -40.952 -48.549 -41.616 Q -48.853 -42.28 -49.077 -42.728 Q -49.301 -43.176 -49.469 -43.528 Q -49.637 -43.88 -49.829 -44.248 Q -50.005 -44.584 -50.213 -44.688 Q -50.421 -44.792 -50.853 -44.792 L -51.189 -44.792 L -51.781 -41.944 Q -51.909 -41.288 -51.869 -40.96 Q -51.829 -40.632 -51.509 -40.536 Q -51.189 -40.44 -50.501 -40.44 L -50.581 -39.96 L -54.997 -39.96 L -54.901 -40.44 Q -54.309 -40.44 -53.989 -40.536 Q -53.669 -40.632 -53.501 -40.952 Q -53.333 -41.272 -53.205 -41.944 L -51.797 -48.808 Q -51.701 -49.256 -51.749 -49.512 Q -51.797 -49.768 -52.077 -49.88 Q -52.357 -49.992 -52.997 -49.992 L -52.901 -50.472 L -49.141 -50.472 Q -47.461 -50.472 -46.525 -49.952 Q -45.589 -49.432 -45.589 -48.264 Z M -50.181 -49.8 L -50.181 -49.8 L -51.077 -45.384 L -50.581 -45.368 Q -49.621 -45.4 -48.845 -45.68 Q -48.069 -45.96 -47.621 -46.568 Q -47.173 -47.176 -47.173 -48.2 Q -47.173 -48.632 -47.357 -49.008 Q -47.541 -49.384 -47.989 -49.616 Q -48.437 -49.848 -49.237 -49.848 Q -49.541 -49.848 -49.725 -49.84 Q -49.909 -49.832 -50.181 -49.8 Z " fill="black" /><path d="M -42.461 -40.598 L -42.461 -40.598 L -42.461 -37.686 Q -42.461 -37.216 -42.299 -37.07 Q -42.136 -36.925 -41.621 -36.925 L -41.621 -36.6 L -44.175 -36.6 L -44.175 -36.925 Q -43.816 -36.925 -43.654 -36.986 Q -43.492 -37.048 -43.441 -37.222 Q -43.391 -37.395 -43.391 -37.731 L -43.391 -40.867 Q -43.391 -41.17 -43.508 -41.27 Q -43.626 -41.371 -43.861 -41.371 Q -43.984 -41.371 -44.074 -41.36 Q -44.164 -41.349 -44.164 -41.349 L -44.164 -41.674 L -42.764 -41.998 L -42.495 -41.998 L -42.495 -41.091 L -42.45 -41.091 Q -41.991 -41.483 -41.565 -41.758 Q -41.14 -42.032 -40.568 -42.032 Q -40.087 -42.032 -39.79 -41.769 Q -39.493 -41.506 -39.325 -41.102 L -39.28 -41.102 Q -38.821 -41.562 -38.384 -41.797 Q -37.948 -42.032 -37.5 -42.032 Q -36.839 -42.032 -36.447 -41.618 Q -36.055 -41.203 -36.055 -40.184 L -36.055 -37.899 Q -36.055 -37.552 -36.016 -37.334 Q -35.976 -37.115 -35.803 -37.02 Q -35.629 -36.925 -35.248 -36.925 L -35.248 -36.6 L -37.78 -36.6 L -37.78 -36.925 Q -37.399 -36.925 -37.231 -37.026 Q -37.063 -37.126 -37.024 -37.345 Q -36.984 -37.563 -36.984 -37.899 L -36.984 -40.05 Q -36.984 -40.565 -37.113 -40.834 Q -37.242 -41.102 -37.46 -41.209 Q -37.679 -41.315 -37.948 -41.315 Q -38.295 -41.315 -38.625 -41.086 Q -38.956 -40.856 -39.236 -40.621 L -39.236 -37.899 Q -39.236 -37.518 -39.185 -37.306 Q -39.135 -37.093 -38.956 -37.009 Q -38.776 -36.925 -38.373 -36.925 L -38.373 -36.6 L -41.028 -36.6 L -41.028 -36.925 Q -40.624 -36.925 -40.445 -37.003 Q -40.266 -37.082 -40.216 -37.294 Q -40.165 -37.507 -40.165 -37.899 L -40.165 -40.117 Q -40.165 -40.834 -40.417 -41.074 Q -40.669 -41.315 -41.061 -41.315 Q -41.498 -41.315 -41.856 -41.069 Q -42.215 -40.822 -42.461 -40.598 Z " fill="black" /><path d="M -30.22 -36.6 L -30.22 -36.6 L -34.095 -36.6 L -34.095 -36.914 Q -33.3 -36.914 -32.975 -37.082 Q -32.65 -37.25 -32.65 -37.664 L -32.65 -42.402 Q -32.65 -42.693 -32.728 -42.822 Q -32.807 -42.95 -33.02 -42.95 Q -33.188 -42.95 -33.546 -42.906 Q -33.904 -42.861 -34.162 -42.771 L -34.162 -43.141 L -31.989 -43.757 L -31.664 -43.757 L -31.664 -37.664 Q -31.664 -37.25 -31.328 -37.082 Q -30.992 -36.914 -30.22 -36.914 Z " fill="black" /></g></g></g><g><g><g><path d="M -170.56 171.531 L -170.56 171.531 L -174.832 171.531 L -174.736 171.051 Q -174.144 171.051 -173.832 170.939 Q -173.52 170.827 -173.36 170.515 Q -173.2 170.203 -173.088 169.627 L -171.664 162.715 L -171.728 162.715 L -177.104 171.531 L -177.456 171.531 L -179.392 162.731 L -179.456 162.731 L -180.784 169.195 Q -180.944 170.011 -180.92 170.411 Q -180.896 170.811 -180.608 170.931 Q -180.32 171.051 -179.712 171.051 L -179.808 171.531 L -183.504 171.531 L -183.408 171.051 Q -182.784 171.051 -182.448 170.931 Q -182.112 170.811 -181.92 170.411 Q -181.728 170.011 -181.568 169.195 L -180.304 162.971 Q -180.176 162.363 -180.224 162.051 Q -180.272 161.739 -180.568 161.619 Q -180.864 161.499 -181.504 161.499 L -181.408 161.019 L -178.208 161.019 L -176.48 169.115 L -176.416 169.115 L -171.536 161.019 L -168.512 161.019 L -168.608 161.499 Q -169.168 161.499 -169.496 161.619 Q -169.824 161.739 -170 162.051 Q -170.176 162.363 -170.304 162.955 L -171.664 169.627 Q -171.84 170.507 -171.576 170.779 Q -171.312 171.051 -170.464 171.051 Z " fill="black" /><path d="M -163.315 168.182 L -163.315 168.182 L -165.936 174.981 L -166.821 174.981 L -164.178 168.742 L -166.675 168.742 Q -166.989 168.742 -167.157 168.798 Q -167.325 168.854 -167.431 169.034 Q -167.538 169.213 -167.694 169.582 L -168.042 169.549 L -167.594 167.835 L -163.315 167.835 Z " fill="black" /></g></g></g><circle cx="339.0" cy="-24.000000000000004" r="2.6999999999999997" style="stroke:black;fill:white;stroke-width:2.0;" /><g><g><g><path d="M 349.732 -23.163 L 349.732 -23.163 L 354.1 -29.723 Q 354.324 -30.043 354.46 -30.315 Q 354.596 -30.587 354.596 -30.779 Q 354.596 -31.019 354.388 -31.107 Q 354.18 -31.195 353.636 -31.195 L 353.668 -31.675 L 357.124 -31.675 L 357.092 -31.195 Q 356.66 -31.195 356.356 -31.067 Q 356.052 -30.939 355.74 -30.579 Q 355.428 -30.219 354.932 -29.483 L 349.06 -21.083 L 348.532 -21.083 L 347.636 -29.739 Q 347.54 -30.539 347.284 -30.867 Q 347.028 -31.195 346.388 -31.195 L 346.42 -31.675 L 350.34 -31.675 L 350.292 -31.195 Q 349.684 -31.195 349.332 -30.955 Q 348.98 -30.715 349.012 -30.171 Q 349.012 -30.091 349.036 -29.883 Q 349.06 -29.675 349.06 -29.595 L 349.54 -25.035 L 349.652 -23.163 Z " fill="black" /><path d="M 356.462 -23.235 L 356.462 -23.235 Q 357.615 -23.235 358.282 -22.518 Q 358.948 -21.802 358.948 -20.558 Q 358.948 -19.618 358.629 -18.979 Q 358.31 -18.341 357.75 -18.016 Q 357.19 -17.691 356.462 -17.691 Q 355.286 -17.691 354.619 -18.425 Q 353.953 -19.158 353.953 -20.514 Q 353.953 -21.331 354.266 -21.942 Q 354.58 -22.552 355.146 -22.894 Q 355.711 -23.235 356.462 -23.235 Z M 356.417 -22.81 L 356.417 -22.81 Q 355.778 -22.81 355.386 -22.272 Q 354.994 -21.734 354.994 -20.659 Q 354.994 -19.326 355.392 -18.727 Q 355.79 -18.128 356.506 -18.139 Q 356.966 -18.139 357.279 -18.352 Q 357.593 -18.565 357.755 -19.08 Q 357.918 -19.595 357.918 -20.502 Q 357.918 -21.533 357.542 -22.171 Q 357.167 -22.81 356.417 -22.81 Z " fill="black" /><path d="M 365.377 -18.307 L 365.377 -18.307 L 365.377 -18.005 L 363.954 -17.747 L 363.708 -17.747 L 363.708 -18.61 L 363.652 -18.61 Q 363.204 -18.173 362.778 -17.932 Q 362.353 -17.691 361.815 -17.691 Q 361.121 -17.691 360.734 -18.145 Q 360.348 -18.598 360.348 -19.741 L 360.348 -22.014 Q 360.348 -22.474 360.197 -22.569 Q 360.046 -22.664 359.586 -22.675 L 359.586 -22.989 L 361.031 -23.157 L 361.278 -23.157 L 361.278 -19.886 Q 361.278 -19.035 361.563 -18.722 Q 361.849 -18.408 362.286 -18.408 Q 362.711 -18.408 363.019 -18.598 Q 363.327 -18.789 363.663 -19.08 L 363.663 -22.026 Q 363.663 -22.474 363.478 -22.574 Q 363.294 -22.675 362.756 -22.675 L 362.756 -22.989 L 364.324 -23.157 L 364.593 -23.157 L 364.593 -19.046 Q 364.593 -18.554 364.727 -18.43 Q 364.862 -18.307 365.265 -18.307 Z " fill="black" /><path d="M 368.994 -18.811 L 368.994 -18.811 L 369.207 -18.632 Q 368.994 -18.33 368.81 -18.122 Q 368.625 -17.915 368.401 -17.803 Q 368.177 -17.691 367.818 -17.691 Q 367.258 -17.691 367.001 -18.022 Q 366.743 -18.352 366.743 -19.102 L 366.743 -22.574 L 366.127 -22.574 L 366.127 -22.832 Q 366.519 -23.078 366.805 -23.498 Q 367.09 -23.918 367.393 -24.635 L 367.684 -24.635 L 367.673 -23.045 L 368.938 -23.045 L 368.938 -22.574 L 367.673 -22.574 L 367.673 -19.416 Q 367.673 -18.822 367.779 -18.587 Q 367.886 -18.352 368.21 -18.352 Q 368.479 -18.352 368.63 -18.464 Q 368.782 -18.576 368.994 -18.811 Z " fill="black" /><path d="M 370.025 -16.325 L 370.025 -16.325 L 369.89 -16.605 Q 370.103 -16.694 370.316 -16.834 Q 370.529 -16.974 370.674 -17.243 Q 370.82 -17.512 370.82 -17.96 Q 370.641 -17.893 370.473 -17.893 Q 370.148 -17.893 370.002 -18.072 Q 369.857 -18.251 369.857 -18.498 Q 369.857 -18.766 370.036 -18.962 Q 370.215 -19.158 370.551 -19.158 Q 370.977 -19.158 371.195 -18.895 Q 371.414 -18.632 371.414 -18.173 Q 371.414 -17.702 371.262 -17.378 Q 371.111 -17.053 370.887 -16.851 Q 370.663 -16.65 370.428 -16.526 Q 370.193 -16.403 370.025 -16.325 Z " fill="black" /><path d="M 376.801 -21.242 L 376.801 -21.242 L 376.801 -18.934 Q 376.801 -18.621 376.851 -18.442 Q 376.902 -18.262 377.081 -18.19 Q 377.26 -18.117 377.63 -18.117 L 377.63 -17.803 L 375.042 -17.803 L 375.042 -18.117 Q 375.446 -18.117 375.619 -18.19 Q 375.793 -18.262 375.832 -18.442 Q 375.871 -18.621 375.871 -18.934 L 375.871 -20.962 Q 375.871 -21.634 375.72 -21.97 Q 375.569 -22.306 375.334 -22.412 Q 375.098 -22.518 374.841 -22.518 Q 374.393 -22.518 374.068 -22.278 Q 373.743 -22.037 373.486 -21.813 L 373.486 -18.934 Q 373.486 -18.621 373.53 -18.442 Q 373.575 -18.262 373.754 -18.19 Q 373.934 -18.117 374.337 -18.117 L 374.337 -17.803 L 371.772 -17.803 L 371.772 -18.117 Q 372.153 -18.117 372.315 -18.19 Q 372.478 -18.262 372.517 -18.442 Q 372.556 -18.621 372.556 -18.934 L 372.556 -22.082 Q 372.556 -22.384 372.433 -22.479 Q 372.31 -22.574 372.086 -22.574 Q 371.94 -22.574 371.862 -22.563 Q 371.783 -22.552 371.783 -22.552 L 371.783 -22.877 L 373.206 -23.202 L 373.463 -23.202 L 373.452 -22.294 L 373.497 -22.294 Q 373.956 -22.698 374.365 -22.966 Q 374.774 -23.235 375.3 -23.235 Q 376.062 -23.235 376.431 -22.72 Q 376.801 -22.205 376.801 -21.242 Z " fill="black" /></g></g></g><g><g><g><path d="M 263.873 -42.28 L 263.873 -42.28 L 264.161 -41.976 Q 263.345 -41.016 262.273 -40.4 Q 261.201 -39.784 259.681 -39.784 Q 258.241 -39.784 257.377 -40.32 Q 256.513 -40.856 256.137 -41.752 Q 255.761 -42.648 255.761 -43.704 Q 255.761 -45.384 256.273 -46.688 Q 256.785 -47.992 257.673 -48.88 Q 258.561 -49.768 259.681 -50.224 Q 260.801 -50.68 262.017 -50.68 Q 262.833 -50.68 263.289 -50.536 Q 263.745 -50.392 264.001 -50.24 Q 264.257 -50.088 264.449 -50.088 Q 264.641 -50.088 264.785 -50.248 Q 264.929 -50.408 265.121 -50.664 L 265.585 -50.664 L 264.833 -47 L 264.305 -47 Q 264.369 -48.6 263.713 -49.296 Q 263.057 -49.992 261.873 -49.992 Q 260.945 -49.992 260.129 -49.568 Q 259.313 -49.144 258.681 -48.368 Q 258.049 -47.592 257.689 -46.512 Q 257.329 -45.432 257.329 -44.104 Q 257.329 -42.504 258.089 -41.664 Q 258.849 -40.824 260.433 -40.824 Q 262.273 -40.824 263.873 -42.28 Z " fill="black" /><path d="M 267.145 -40.598 L 267.145 -40.598 L 267.145 -37.686 Q 267.145 -37.216 267.307 -37.07 Q 267.47 -36.925 267.985 -36.925 L 267.985 -36.6 L 265.431 -36.6 L 265.431 -36.925 Q 265.79 -36.925 265.952 -36.986 Q 266.114 -37.048 266.165 -37.222 Q 266.215 -37.395 266.215 -37.731 L 266.215 -40.867 Q 266.215 -41.17 266.098 -41.27 Q 265.98 -41.371 265.745 -41.371 Q 265.622 -41.371 265.532 -41.36 Q 265.442 -41.349 265.442 -41.349 L 265.442 -41.674 L 266.842 -41.998 L 267.111 -41.998 L 267.111 -41.091 L 267.156 -41.091 Q 267.615 -41.483 268.041 -41.758 Q 268.466 -42.032 269.038 -42.032 Q 269.519 -42.032 269.816 -41.769 Q 270.113 -41.506 270.281 -41.102 L 270.326 -41.102 Q 270.785 -41.562 271.222 -41.797 Q 271.658 -42.032 272.106 -42.032 Q 272.767 -42.032 273.159 -41.618 Q 273.551 -41.203 273.551 -40.184 L 273.551 -37.899 Q 273.551 -37.552 273.59 -37.334 Q 273.63 -37.115 273.803 -37.02 Q 273.977 -36.925 274.358 -36.925 L 274.358 -36.6 L 271.826 -36.6 L 271.826 -36.925 Q 272.207 -36.925 272.375 -37.026 Q 272.543 -37.126 272.582 -37.345 Q 272.622 -37.563 272.622 -37.899 L 272.622 -40.05 Q 272.622 -40.565 272.493 -40.834 Q 272.364 -41.102 272.146 -41.209 Q 271.927 -41.315 271.658 -41.315 Q 271.311 -41.315 270.981 -41.086 Q 270.65 -40.856 270.37 -40.621 L 270.37 -37.899 Q 270.37 -37.518 270.421 -37.306 Q 270.471 -37.093 270.65 -37.009 Q 270.83 -36.925 271.233 -36.925 L 271.233 -36.6 L 268.578 -36.6 L 268.578 -36.925 Q 268.982 -36.925 269.161 -37.003 Q 269.34 -37.082 269.39 -37.294 Q 269.441 -37.507 269.441 -37.899 L 269.441 -40.117 Q 269.441 -40.834 269.189 -41.074 Q 268.937 -41.315 268.545 -41.315 Q 268.108 -41.315 267.75 -41.069 Q 267.391 -40.822 267.145 -40.598 Z " fill="black" /><path d="M 279.812 -38.392 L 279.812 -38.392 L 279.454 -36.6 L 275.041 -36.6 L 275.041 -36.981 L 276.743 -38.683 Q 277.303 -39.254 277.673 -39.719 Q 278.042 -40.184 278.227 -40.654 Q 278.412 -41.125 278.412 -41.707 Q 278.412 -42.334 278.037 -42.71 Q 277.662 -43.085 277.012 -43.085 Q 276.463 -43.085 276.077 -42.85 Q 275.69 -42.614 275.377 -41.987 L 275.108 -42.099 Q 275.366 -42.917 275.926 -43.365 Q 276.486 -43.813 277.303 -43.813 Q 277.942 -43.813 278.423 -43.572 Q 278.905 -43.331 279.179 -42.9 Q 279.454 -42.469 279.454 -41.875 Q 279.454 -41.382 279.246 -40.929 Q 279.039 -40.475 278.63 -39.994 Q 278.222 -39.512 277.628 -38.907 L 276.15 -37.507 L 276.15 -37.451 L 276.934 -37.485 L 278.49 -37.485 Q 278.938 -37.485 279.118 -37.686 Q 279.297 -37.888 279.487 -38.392 Z " fill="black" /></g></g></g><circle cx="144.0" cy="-24.00000000000002" r="2.6999999999999997" style="stroke:black;fill:black;stroke-width:2.0;" /><g><g><g><path d="M 182.711 -48.264 L 182.711 -48.264 Q 182.711 -47.416 182.391 -46.84 Q 182.071 -46.264 181.559 -45.896 Q 181.047 -45.528 180.463 -45.328 Q 179.879 -45.128 179.351 -45.032 L 179.351 -44.952 Q 179.639 -44.76 179.895 -44.368 Q 180.151 -43.976 180.527 -43.24 Q 180.903 -42.504 181.559 -41.256 Q 181.831 -40.776 182.159 -40.608 Q 182.487 -40.44 183.031 -40.44 L 182.935 -39.96 L 180.503 -39.96 Q 180.055 -40.952 179.751 -41.616 Q 179.447 -42.28 179.223 -42.728 Q 178.999 -43.176 178.831 -43.528 Q 178.663 -43.88 178.471 -44.248 Q 178.295 -44.584 178.087 -44.688 Q 177.879 -44.792 177.447 -44.792 L 177.111 -44.792 L 176.519 -41.944 Q 176.391 -41.288 176.431 -40.96 Q 176.471 -40.632 176.791 -40.536 Q 177.111 -40.44 177.799 -40.44 L 177.719 -39.96 L 173.303 -39.96 L 173.399 -40.44 Q 173.991 -40.44 174.311 -40.536 Q 174.631 -40.632 174.799 -40.952 Q 174.967 -41.272 175.095 -41.944 L 176.503 -48.808 Q 176.599 -49.256 176.551 -49.512 Q 176.503 -49.768 176.223 -49.88 Q 175.943 -49.992 175.303 -49.992 L 175.399 -50.472 L 179.159 -50.472 Q 180.839 -50.472 181.775 -49.952 Q 182.711 -49.432 182.711 -48.264 Z M 178.119 -49.8 L 178.119 -49.8 L 177.223 -45.384 L 177.719 -45.368 Q 178.679 -45.4 179.455 -45.68 Q 180.231 -45.96 180.679 -46.568 Q 181.127 -47.176 181.127 -48.2 Q 181.127 -48.632 180.943 -49.008 Q 180.759 -49.384 180.311 -49.616 Q 179.863 -49.848 179.063 -49.848 Q 178.759 -49.848 178.575 -49.84 Q 178.391 -49.832 178.119 -49.8 Z " fill="black" /><path d="M 185.839 -40.598 L 185.839 -40.598 L 185.839 -37.686 Q 185.839 -37.216 186.001 -37.07 Q 186.164 -36.925 186.679 -36.925 L 186.679 -36.6 L 184.125 -36.6 L 184.125 -36.925 Q 184.484 -36.925 184.646 -36.986 Q 184.808 -37.048 184.859 -37.222 Q 184.909 -37.395 184.909 -37.731 L 184.909 -40.867 Q 184.909 -41.17 184.792 -41.27 Q 184.674 -41.371 184.439 -41.371 Q 184.316 -41.371 184.226 -41.36 Q 184.136 -41.349 184.136 -41.349 L 184.136 -41.674 L 185.536 -41.998 L 185.805 -41.998 L 185.805 -41.091 L 185.85 -41.091 Q 186.309 -41.483 186.735 -41.758 Q 187.16 -42.032 187.732 -42.032 Q 188.213 -42.032 188.51 -41.769 Q 188.807 -41.506 188.975 -41.102 L 189.02 -41.102 Q 189.479 -41.562 189.916 -41.797 Q 190.352 -42.032 190.8 -42.032 Q 191.461 -42.032 191.853 -41.618 Q 192.245 -41.203 192.245 -40.184 L 192.245 -37.899 Q 192.245 -37.552 192.284 -37.334 Q 192.324 -37.115 192.497 -37.02 Q 192.671 -36.925 193.052 -36.925 L 193.052 -36.6 L 190.52 -36.6 L 190.52 -36.925 Q 190.901 -36.925 191.069 -37.026 Q 191.237 -37.126 191.276 -37.345 Q 191.316 -37.563 191.316 -37.899 L 191.316 -40.05 Q 191.316 -40.565 191.187 -40.834 Q 191.058 -41.102 190.84 -41.209 Q 190.621 -41.315 190.352 -41.315 Q 190.005 -41.315 189.675 -41.086 Q 189.344 -40.856 189.064 -40.621 L 189.064 -37.899 Q 189.064 -37.518 189.115 -37.306 Q 189.165 -37.093 189.344 -37.009 Q 189.524 -36.925 189.927 -36.925 L 189.927 -36.6 L 187.272 -36.6 L 187.272 -36.925 Q 187.676 -36.925 187.855 -37.003 Q 188.034 -37.082 188.084 -37.294 Q 188.135 -37.507 188.135 -37.899 L 188.135 -40.117 Q 188.135 -40.834 187.883 -41.074 Q 187.631 -41.315 187.239 -41.315 Q 186.802 -41.315 186.444 -41.069 Q 186.085 -40.822 185.839 -40.598 Z " fill="black" /><path d="M 198.506 -38.392 L 198.506 -38.392 L 198.148 -36.6 L 193.735 -36.6 L 193.735 -36.981 L 195.437 -38.683 Q 195.997 -39.254 196.367 -39.719 Q 196.736 -40.184 196.921 -40.654 Q 197.106 -41.125 197.106 -41.707 Q 197.106 -42.334 196.731 -42.71 Q 196.356 -43.085 195.706 -43.085 Q 195.157 -43.085 194.771 -42.85 Q 194.384 -42.614 194.071 -41.987 L 193.802 -42.099 Q 194.06 -42.917 194.62 -43.365 Q 195.18 -43.813 195.997 -43.813 Q 196.636 -43.813 197.117 -43.572 Q 197.599 -43.331 197.873 -42.9 Q 198.148 -42.469 198.148 -41.875 Q 198.148 -41.382 197.94 -40.929 Q 197.733 -40.475 197.324 -39.994 Q 196.916 -39.512 196.322 -38.907 L 194.844 -37.507 L 194.844 -37.451 L 195.628 -37.485 L 197.184 -37.485 Q 197.632 -37.485 197.812 -37.686 Q 197.991 -37.888 198.181 -38.392 Z " fill="black" /></g></g></g><g><g><g><path d="M 316.04 171.509 L 316.04 171.509 L 311.768 171.509 L 311.864 171.029 Q 312.456 171.029 312.768 170.917 Q 313.08 170.805 313.24 170.493 Q 313.4 170.181 313.512 169.605 L 314.936 162.693 L 314.872 162.693 L 309.496 171.509 L 309.144 171.509 L 307.208 162.709 L 307.144 162.709 L 305.816 169.173 Q 305.656 169.989 305.68 170.389 Q 305.704 170.789 305.992 170.909 Q 306.28 171.029 306.888 171.029 L 306.792 171.509 L 303.096 171.509 L 303.192 171.029 Q 303.816 171.029 304.152 170.909 Q 304.488 170.789 304.68 170.389 Q 304.872 169.989 305.032 169.173 L 306.296 162.949 Q 306.424 162.341 306.376 162.029 Q 306.328 161.717 306.032 161.597 Q 305.736 161.477 305.096 161.477 L 305.192 160.997 L 308.392 160.997 L 310.12 169.093 L 310.184 169.093 L 315.064 160.997 L 318.088 160.997 L 317.992 161.477 Q 317.432 161.477 317.104 161.597 Q 316.776 161.717 316.6 162.029 Q 316.424 162.341 316.296 162.933 L 314.936 169.605 Q 314.76 170.485 315.024 170.757 Q 315.288 171.029 316.136 171.029 Z " fill="black" /><path d="M 323.106 173.189 L 323.106 173.189 Q 323.106 174.074 322.473 174.538 Q 321.84 175.003 320.843 175.003 Q 319.869 175.003 319.236 174.566 Q 318.603 174.13 318.603 173.278 Q 318.603 172.83 318.771 172.522 Q 318.939 172.214 319.281 171.946 Q 319.622 171.677 320.138 171.33 L 320.138 171.296 Q 319.566 170.893 319.27 170.585 Q 318.973 170.277 318.861 169.969 Q 318.749 169.661 318.749 169.28 Q 318.749 168.765 319.023 168.395 Q 319.298 168.026 319.779 167.824 Q 320.261 167.622 320.877 167.622 Q 321.437 167.622 321.879 167.824 Q 322.322 168.026 322.579 168.373 Q 322.837 168.72 322.837 169.168 Q 322.837 169.571 322.691 169.862 Q 322.546 170.154 322.232 170.394 Q 321.918 170.635 321.392 170.926 L 321.392 170.96 Q 322.053 171.352 322.422 171.694 Q 322.792 172.035 322.949 172.388 Q 323.106 172.741 323.106 173.189 Z M 320.474 171.509 L 320.474 171.509 Q 319.992 171.89 319.734 172.248 Q 319.477 172.606 319.477 173.189 Q 319.477 173.939 319.863 174.298 Q 320.25 174.656 320.888 174.656 Q 321.414 174.656 321.79 174.37 Q 322.165 174.085 322.165 173.514 Q 322.165 173.155 322.025 172.864 Q 321.885 172.573 321.521 172.259 Q 321.157 171.946 320.474 171.509 Z M 322.008 169.146 L 322.008 169.146 Q 322.008 168.586 321.7 168.289 Q 321.392 167.992 320.854 167.992 Q 320.283 167.992 319.953 168.278 Q 319.622 168.563 319.622 169.078 Q 319.622 169.571 319.958 169.93 Q 320.294 170.288 321.045 170.747 Q 321.605 170.411 321.806 170.047 Q 322.008 169.683 322.008 169.146 Z " fill="black" /></g></g></g><circle cx="126.0" cy="167.99999999999997" r="2.6999999999999997" style="stroke:black;fill:black;stroke-width:2.0;" /><circle cx="72.0" cy="-72.0" r="2.6999999999999997" style="stroke:black;fill:black;stroke-width:2.0;" /><g><g><g><path d="M 38.682 -96.264 L 38.682 -96.264 Q 38.682 -95.416 38.362 -94.84 Q 38.042 -94.264 37.53 -93.896 Q 37.018 -93.528 36.434 -93.328 Q 35.85 -93.128 35.322 -93.032 L 35.322 -92.952 Q 35.61 -92.76 35.866 -92.368 Q 36.122 -91.976 36.498 -91.24 Q 36.874 -90.504 37.53 -89.256 Q 37.802 -88.776 38.13 -88.608 Q 38.458 -88.44 39.002 -88.44 L 38.906 -87.96 L 36.474 -87.96 Q 36.026 -88.952 35.722 -89.616 Q 35.418 -90.28 35.194 -90.728 Q 34.97 -91.176 34.802 -91.528 Q 34.634 -91.88 34.442 -92.248 Q 34.266 -92.584 34.058 -92.688 Q 33.85 -92.792 33.418 -92.792 L 33.082 -92.792 L 32.49 -89.944 Q 32.362 -89.288 32.402 -88.96 Q 32.442 -88.632 32.762 -88.536 Q 33.082 -88.44 33.77 -88.44 L 33.69 -87.96 L 29.274 -87.96 L 29.37 -88.44 Q 29.962 -88.44 30.282 -88.536 Q 30.602 -88.632 30.77 -88.952 Q 30.938 -89.272 31.066 -89.944 L 32.474 -96.808 Q 32.57 -97.256 32.522 -97.512 Q 32.474 -97.768 32.194 -97.88 Q 31.914 -97.992 31.274 -97.992 L 31.37 -98.472 L 35.13 -98.472 Q 36.81 -98.472 37.746 -97.952 Q 38.682 -97.432 38.682 -96.264 Z M 34.09 -97.8 L 34.09 -97.8 L 33.194 -93.384 L 33.69 -93.368 Q 34.65 -93.4 35.426 -93.68 Q 36.202 -93.96 36.65 -94.568 Q 37.098 -95.176 37.098 -96.2 Q 37.098 -96.632 36.914 -97.008 Q 36.73 -97.384 36.282 -97.616 Q 35.834 -97.848 35.034 -97.848 Q 34.73 -97.848 34.546 -97.84 Q 34.362 -97.832 34.09 -97.8 Z " fill="black" /><path d="M 44.509 -84.6 L 44.509 -84.6 L 40.634 -84.6 L 40.634 -84.914 Q 41.429 -84.914 41.754 -85.082 Q 42.079 -85.25 42.079 -85.664 L 42.079 -90.402 Q 42.079 -90.693 42 -90.822 Q 41.922 -90.95 41.709 -90.95 Q 41.541 -90.95 41.183 -90.906 Q 40.824 -90.861 40.567 -90.771 L 40.567 -91.141 L 42.74 -91.757 L 43.064 -91.757 L 43.064 -85.664 Q 43.064 -85.25 43.4 -85.082 Q 43.736 -84.914 44.509 -84.914 Z " fill="black" /></g></g></g><g><g><g><path d="M 109.332 -96.264 L 109.332 -96.264 Q 109.332 -95.416 109.012 -94.84 Q 108.692 -94.264 108.18 -93.896 Q 107.668 -93.528 107.084 -93.328 Q 106.5 -93.128 105.972 -93.032 L 105.972 -92.952 Q 106.26 -92.76 106.516 -92.368 Q 106.772 -91.976 107.148 -91.24 Q 107.524 -90.504 108.18 -89.256 Q 108.452 -88.776 108.78 -88.608 Q 109.108 -88.44 109.652 -88.44 L 109.556 -87.96 L 107.124 -87.96 Q 106.676 -88.952 106.372 -89.616 Q 106.068 -90.28 105.844 -90.728 Q 105.62 -91.176 105.452 -91.528 Q 105.284 -91.88 105.092 -92.248 Q 104.916 -92.584 104.708 -92.688 Q 104.5 -92.792 104.068 -92.792 L 103.732 -92.792 L 103.14 -89.944 Q 103.012 -89.288 103.052 -88.96 Q 103.092 -88.632 103.412 -88.536 Q 103.732 -88.44 104.42 -88.44 L 104.34 -87.96 L 99.924 -87.96 L 100.02 -88.44 Q 100.612 -88.44 100.932 -88.536 Q 101.252 -88.632 101.42 -88.952 Q 101.588 -89.272 101.716 -89.944 L 103.124 -96.808 Q 103.22 -97.256 103.172 -97.512 Q 103.124 -97.768 102.844 -97.88 Q 102.564 -97.992 101.924 -97.992 L 102.02 -98.472 L 105.78 -98.472 Q 107.46 -98.472 108.396 -97.952 Q 109.332 -97.432 109.332 -96.264 Z M 104.74 -97.8 L 104.74 -97.8 L 103.844 -93.384 L 104.34 -93.368 Q 105.3 -93.4 106.076 -93.68 Q 106.852 -93.96 107.3 -94.568 Q 107.748 -95.176 107.748 -96.2 Q 107.748 -96.632 107.564 -97.008 Q 107.38 -97.384 106.932 -97.616 Q 106.484 -97.848 105.684 -97.848 Q 105.38 -97.848 105.196 -97.84 Q 105.012 -97.832 104.74 -97.8 Z " fill="black" /><path d="M 115.585 -86.392 L 115.585 -86.392 L 115.226 -84.6 L 110.814 -84.6 L 110.814 -84.981 L 112.516 -86.683 Q 113.076 -87.254 113.446 -87.719 Q 113.815 -88.184 114 -88.654 Q 114.185 -89.125 114.185 -89.707 Q 114.185 -90.334 113.81 -90.71 Q 113.434 -91.085 112.785 -91.085 Q 112.236 -91.085 111.85 -90.85 Q 111.463 -90.614 111.15 -89.987 L 110.881 -90.099 Q 111.138 -90.917 111.698 -91.365 Q 112.258 -91.813 113.076 -91.813 Q 113.714 -91.813 114.196 -91.572 Q 114.678 -91.331 114.952 -90.9 Q 115.226 -90.469 115.226 -89.875 Q 115.226 -89.382 115.019 -88.929 Q 114.812 -88.475 114.403 -87.994 Q 113.994 -87.512 113.401 -86.907 L 111.922 -85.507 L 111.922 -85.451 L 112.706 -85.485 L 114.263 -85.485 Q 114.711 -85.485 114.89 -85.686 Q 115.07 -85.888 115.26 -86.392 Z " fill="black" /></g></g></g><circle cx="126.00000000000003" cy="119.99999999999999" r="2.6999999999999997" style="stroke:black;fill:black;stroke-width:2.0;" /><circle cx="-159.0" cy="119.99999999999999" r="2.6999999999999997" style="stroke:black;fill:black;stroke-width:2.0;" /><g><g><g><path d="M -15.168 95.59 L -15.168 95.59 Q -15.168 96.438 -15.488 97.014 Q -15.808 97.59 -16.32 97.958 Q -16.832 98.326 -17.416 98.526 Q -18 98.726 -18.528 98.822 L -18.528 98.902 Q -18.24 99.094 -17.984 99.486 Q -17.728 99.878 -17.352 100.614 Q -16.976 101.35 -16.32 102.598 Q -16.048 103.078 -15.72 103.246 Q -15.392 103.414 -14.848 103.414 L -14.944 103.894 L -17.376 103.894 Q -17.824 102.902 -18.128 102.238 Q -18.432 101.574 -18.656 101.126 Q -18.88 100.678 -19.048 100.326 Q -19.216 99.974 -19.408 99.606 Q -19.584 99.27 -19.792 99.166 Q -20 99.062 -20.432 99.062 L -20.768 99.062 L -21.36 101.91 Q -21.488 102.566 -21.448 102.894 Q -21.408 103.222 -21.088 103.318 Q -20.768 103.414 -20.08 103.414 L -20.16 103.894 L -24.576 103.894 L -24.48 103.414 Q -23.888 103.414 -23.568 103.318 Q -23.248 103.222 -23.08 102.902 Q -22.912 102.582 -22.784 101.91 L -21.376 95.046 Q -21.28 94.598 -21.328 94.342 Q -21.376 94.086 -21.656 93.974 Q -21.936 93.862 -22.576 93.862 L -22.48 93.382 L -18.72 93.382 Q -17.04 93.382 -16.104 93.902 Q -15.168 94.422 -15.168 95.59 Z M -19.76 94.054 L -19.76 94.054 L -20.656 98.47 L -20.16 98.486 Q -19.2 98.454 -18.424 98.174 Q -17.648 97.894 -17.2 97.286 Q -16.752 96.678 -16.752 95.654 Q -16.752 95.222 -16.936 94.846 Q -17.12 94.47 -17.568 94.238 Q -18.016 94.006 -18.816 94.006 Q -19.12 94.006 -19.304 94.014 Q -19.488 94.022 -19.76 94.054 Z " fill="black" /><path d="M -13.149 101.677 L -13.149 101.677 L -13.406 101.531 Q -12.768 100.042 -11.379 100.042 Q -10.517 100.042 -10.046 100.473 Q -9.576 100.904 -9.576 101.542 Q -9.576 102.125 -9.918 102.483 Q -10.259 102.842 -10.786 103.178 L -10.786 103.211 Q -10.338 103.346 -9.962 103.598 Q -9.587 103.85 -9.363 104.214 Q -9.139 104.578 -9.139 105.082 Q -9.139 105.843 -9.565 106.364 Q -9.99 106.885 -10.685 107.142 Q -11.379 107.4 -12.197 107.4 Q -12.701 107.4 -12.97 107.305 Q -13.238 107.21 -13.345 107.07 Q -13.451 106.93 -13.451 106.784 Q -13.451 106.605 -13.339 106.448 Q -13.227 106.291 -13.014 106.291 Q -12.88 106.291 -12.762 106.342 Q -12.645 106.392 -12.354 106.549 Q -11.995 106.728 -11.822 106.784 Q -11.648 106.84 -11.446 106.84 Q -11.088 106.84 -10.774 106.711 Q -10.461 106.582 -10.259 106.274 Q -10.058 105.966 -10.058 105.418 Q -10.058 104.914 -10.338 104.544 Q -10.618 104.174 -11.082 103.967 Q -11.547 103.76 -12.085 103.76 L -12.309 103.76 L -12.309 103.334 L -12.096 103.334 Q -11.715 103.334 -11.357 103.144 Q -10.998 102.954 -10.769 102.606 Q -10.539 102.259 -10.539 101.811 Q -10.539 101.318 -10.847 101.044 Q -11.155 100.77 -11.682 100.77 Q -12.186 100.77 -12.522 100.999 Q -12.858 101.229 -13.149 101.677 Z " fill="black" /></g></g></g><circle cx="303.0" cy="119.99999999999999" r="2.6999999999999997" style="stroke:black;fill:black;stroke-width:2.0;" /><g><g><g><path d="M 217.182 95.736 L 217.182 95.736 Q 217.182 96.584 216.862 97.16 Q 216.542 97.736 216.03 98.104 Q 215.518 98.472 214.934 98.672 Q 214.35 98.872 213.822 98.968 L 213.822 99.048 Q 214.11 99.24 214.366 99.632 Q 214.622 100.024 214.998 100.76 Q 215.374 101.496 216.03 102.744 Q 216.302 103.224 216.63 103.392 Q 216.958 103.56 217.502 103.56 L 217.406 104.04 L 214.974 104.04 Q 214.526 103.048 214.222 102.384 Q 213.918 101.72 213.694 101.272 Q 213.47 100.824 213.302 100.472 Q 213.134 100.12 212.942 99.752 Q 212.766 99.416 212.558 99.312 Q 212.35 99.208 211.918 99.208 L 211.582 99.208 L 210.99 102.056 Q 210.862 102.712 210.902 103.04 Q 210.942 103.368 211.262 103.464 Q 211.582 103.56 212.27 103.56 L 212.19 104.04 L 207.774 104.04 L 207.87 103.56 Q 208.462 103.56 208.782 103.464 Q 209.102 103.368 209.27 103.048 Q 209.438 102.728 209.566 102.056 L 210.974 95.192 Q 211.07 94.744 211.022 94.488 Q 210.974 94.232 210.694 94.12 Q 210.414 94.008 209.774 94.008 L 209.87 93.528 L 213.63 93.528 Q 215.31 93.528 216.246 94.048 Q 217.182 94.568 217.182 95.736 Z M 212.59 94.2 L 212.59 94.2 L 211.694 98.616 L 212.19 98.632 Q 213.15 98.6 213.926 98.32 Q 214.702 98.04 215.15 97.432 Q 215.598 96.824 215.598 95.8 Q 215.598 95.368 215.414 94.992 Q 215.23 94.616 214.782 94.384 Q 214.334 94.152 213.534 94.152 Q 213.23 94.152 213.046 94.16 Q 212.862 94.168 212.59 94.2 Z " fill="black" /><path d="M 223.625 105.63 L 223.625 105.63 L 222.483 105.63 L 222.483 107.4 L 221.486 107.4 L 221.486 105.63 L 218.384 105.63 L 218.384 104.925 L 221.8 100.176 L 222.483 100.176 L 222.483 104.858 L 223.625 104.858 Z M 221.486 104.858 L 221.486 104.858 L 221.486 101.397 L 221.441 101.397 L 219 104.813 L 219 104.858 Z " fill="black" /></g></g></g><g><g><g><path d="M 133.496 273.576 L 133.496 273.576 L 129.224 273.576 L 129.32 273.096 Q 129.912 273.096 130.224 272.984 Q 130.536 272.872 130.696 272.56 Q 130.856 272.248 130.968 271.672 L 132.392 264.76 L 132.328 264.76 L 126.952 273.576 L 126.6 273.576 L 124.664 264.776 L 124.6 264.776 L 123.272 271.24 Q 123.112 272.056 123.136 272.456 Q 123.16 272.856 123.448 272.976 Q 123.736 273.096 124.344 273.096 L 124.248 273.576 L 120.552 273.576 L 120.648 273.096 Q 121.272 273.096 121.608 272.976 Q 121.944 272.856 122.136 272.456 Q 122.328 272.056 122.488 271.24 L 123.752 265.016 Q 123.88 264.408 123.832 264.096 Q 123.784 263.784 123.488 263.664 Q 123.192 263.544 122.552 263.544 L 122.648 263.064 L 125.848 263.064 L 127.576 271.16 L 127.64 271.16 L 132.52 263.064 L 135.544 263.064 L 135.448 263.544 Q 134.888 263.544 134.56 263.664 Q 134.232 263.784 134.056 264.096 Q 133.88 264.408 133.752 265 L 132.392 271.672 Q 132.216 272.552 132.48 272.824 Q 132.744 273.096 133.592 273.096 Z " fill="black" /><path d="M 140.315 276.936 L 140.315 276.936 L 136.44 276.936 L 136.44 276.622 Q 137.235 276.622 137.56 276.454 Q 137.885 276.286 137.885 275.872 L 137.885 271.134 Q 137.885 270.843 137.806 270.714 Q 137.728 270.586 137.515 270.586 Q 137.347 270.586 136.989 270.63 Q 136.63 270.675 136.373 270.765 L 136.373 270.395 L 138.546 269.779 L 138.87 269.779 L 138.87 275.872 Q 138.87 276.286 139.206 276.454 Q 139.542 276.622 140.315 276.622 Z " fill="black" /><path d="M 145.859 276.936 L 145.859 276.936 L 141.984 276.936 L 141.984 276.622 Q 142.779 276.622 143.104 276.454 Q 143.429 276.286 143.429 275.872 L 143.429 271.134 Q 143.429 270.843 143.35 270.714 Q 143.272 270.586 143.059 270.586 Q 142.891 270.586 142.533 270.63 Q 142.174 270.675 141.917 270.765 L 141.917 270.395 L 144.09 269.779 L 144.414 269.779 L 144.414 275.872 Q 144.414 276.286 144.75 276.454 Q 145.086 276.622 145.859 276.622 Z " fill="black" /></g></g></g><circle cx="-32.99999999999999" cy="233.99999999999997" r="2.6999999999999997" style="stroke:black;fill:black;stroke-width:2.0;" /><circle cx="-158.99999999999997" cy="-24.000000000000018" r="2.6999999999999997" style="stroke:black;fill:black;stroke-width:2.0;" /><circle cx="303.0" cy="-24.000000000000004" r="2.6999999999999997" style="stroke:black;fill:black;stroke-width:2.0;" /><circle cx="72.0" cy="-119.99999999999999" r="2.6999999999999997" style="stroke:black;fill:black;stroke-width:2.0;" /><g><g><g><path d="M 75.72 -126.3 L 75.72 -126.3 L 71.416 -126.3 L 71.512 -126.764 L 71.672 -126.764 Q 72.168 -126.764 72.432 -126.876 Q 72.696 -126.988 72.696 -127.324 Q 72.696 -127.532 72.616 -127.828 Q 72.536 -128.124 72.344 -128.572 L 71.64 -130.124 L 71.352 -130.956 L 71.304 -130.956 L 68.792 -128.236 Q 68.664 -128.108 68.488 -127.9 Q 68.312 -127.692 68.176 -127.5 Q 68.04 -127.308 68.04 -127.18 Q 68.04 -126.972 68.224 -126.868 Q 68.408 -126.764 69 -126.764 L 68.904 -126.3 L 65.384 -126.3 L 65.464 -126.764 Q 65.88 -126.78 66.168 -126.884 Q 66.456 -126.988 66.776 -127.26 Q 67.096 -127.532 67.576 -128.028 L 71 -131.58 L 69.448 -134.972 Q 69.192 -135.532 68.992 -135.828 Q 68.792 -136.124 68.504 -136.228 Q 68.216 -136.332 67.672 -136.332 L 67.768 -136.812 L 72.04 -136.812 L 71.944 -136.332 L 71.768 -136.332 Q 71.32 -136.332 71.064 -136.22 Q 70.808 -136.108 70.808 -135.82 Q 70.808 -135.58 71 -135.148 Q 71.192 -134.716 71.432 -134.108 L 72.008 -132.604 L 72.056 -132.604 L 74.2 -134.972 Q 74.472 -135.292 74.664 -135.556 Q 74.856 -135.82 74.856 -135.98 Q 74.856 -136.156 74.696 -136.244 Q 74.536 -136.332 73.992 -136.332 L 74.072 -136.812 L 77.736 -136.812 L 77.656 -136.332 Q 77.144 -136.316 76.792 -136.204 Q 76.44 -136.092 76.072 -135.796 Q 75.704 -135.5 75.128 -134.908 L 72.328 -132.028 L 74.392 -127.724 Q 74.664 -127.148 74.944 -126.964 Q 75.224 -126.78 75.816 -126.764 Z " fill="black" /></g></g></g></svg>