<svg xmlns="http://www.w3.org/2000/svg" xml:lang="en" height="178.64000000000001pt" width="179.14399999999998pt" viewBox="-120.54400000000001 -19.0 179.14399999999998 178.64000000000001"><circle cx="-6.613092715395707e-15" cy="36.0" r="18.0" style="stroke:black;fill:none;stroke-width:2.0;" /><path d="M 0.0,-0.0 L 0.0,-14.4" style="stroke:black;fill:none;stroke-width:2.0;stroke-linecap:round;stroke-linejoin:round;" /><path d="M 0.0,-14.4 L -6.75,-14.4" style="stroke:black;fill:none;stroke-width:2.0;stroke-linecap:round;stroke-linejoin:round;" /><path d="M 0.0,-14.4 L 6.75,-14.4" style="stroke:black;fill:none;stroke-width:2.0;stroke-linecap:round;stroke-linejoin:round;" /><path d="M 0.0,-0.0 L -3.3065463576978533e-15,18.0 L -3.3065463576978533e-15,18.0 M -9.919639073093561e-15,54.0 L -9.919639073093561e-15,54.0 L -1.3226185430791413e-14,72.0" style="stroke:black;fill:none;stroke-width:2.0;stroke-linecap:round;stroke-linejoin:round;" /><path d="M -4.9598195365467806e-15,27.0 L -6.819055509535661e-15,36.0" style="stroke:black;fill:none;stroke-width:2.0;stroke-linecap:round;stroke-linejoin:round;" /><path d="M -7.944741364309306e-15 43.0 L -2.7000000000000064 36.0 L 2.699999999999993 36.0 Z" style="stroke:black;fill:black;stroke-linecap:butt;stroke-linejoin:miter;" /><path d="M -1.3226185430791413e-14,132.0 L -1.3226185430791413e-14,117.0 L -15.000000000000012,117.0 L -15.000000000000012,87.0 L -1.3226185430791413e-14,87.0 L -1.3226185430791413e-14,72.0" style="stroke:black;fill:none;stroke-width:2.0;stroke-linecap:round;stroke-linejoin:round;" /><path d="M -9.000000000000014,117.0 L -15.000000000000012,117.0" style="stroke:black;fill:none;stroke-width:2.0;stroke-linecap:round;stroke-linejoin:round;" /><path d="M -2.0000000000000133 117.0 L -9.000000000000014 121.5 L -9.000000000000014 112.5 Z" style="stroke:black;fill:black;stroke-linecap:butt;stroke-linejoin:miter;" /><path d="M -18.00000000000001,114.00000000000001 L -18.00000000000001,90.0" style="stroke:black;fill:none;stroke-width:2.0;stroke-linecap:round;stroke-linejoin:round;" /><path d="M -33.00000000000001,101.99999999999999 L -18.00000000000001,101.99999999999999" style="stroke:black;fill:none;stroke-width:2.0;stroke-linecap:round;stroke-linejoin:round;" /><path d="M -1.3226185430791413e-14,132.0 L -1.3226185430791413e-14,146.39999999999998 L -9.000000000000014,146.39999999999998 L 8.999999999999988,146.39999999999998 M -6.300000000000012,150.72 L 6.2999999999999865,150.72 M -1.8000000000000134,155.04 L 1.799999999999987,155.04" style="stroke:black;fill:none;stroke-width:2.0;stroke-linecap:round;stroke-linejoin:round;" /><path d="M -33.00000000000001,101.99999999999999 L -42.000000000000014,101.99999999999999 L -51.000000000000014,101.99999999999999" style="stroke:black;fill:none;stroke-width:2.0;stroke-linecap:round;stroke-linejoin:round;" /><path d="M -51.000000000000014,101.99999999999999 L -51.000000000000014,87.0 L -51.000000000000014,72.0" style="stroke:black;fill:none;stroke-width:2.0;stroke-linecap:round;stroke-linejoin:round;" /><path d="M -51.000000000000014,72.0 L -25.500000000000014,72.0 L -1.5987211554602254e-14,72.0" style="stroke:black;fill:none;stroke-width:2.0;stroke-linecap:round;stroke-linejoin:round;" /><path d="M -72.00000000000001,72.0 L -72.00000000000001,108.0 L -72.00000000000003,135.0" style="stroke:black;fill:none;stroke-width:2.0;stroke-linecap:round;stroke-linejoin:round;" /><path d="M -72.00000000000003 142.0 L -74.70000000000003 135.0 L -69.30000000000003 135.0 Z" style="stroke:black;fill:black;stroke-linecap:butt;stroke-linejoin:miter;" /><text x="53.99999999999999" y="29.600000000000005" fill="black" font-size="16" font-family="sans" text-anchor="end"><tspan x="53.99999999999999" dy="16">Ibias</tspan></text><text x="3.599999999999987" y="95.6" fill="black" font-size="16" font-family="sans" text-anchor="start"><tspan x="3.599999999999987" dy="16">W/L</tspan></text><text x="-81.00000000000001" y="101.60000000000001" fill="black" font-size="16" font-family="sans" text-anchor="end"><tspan x="-81.00000000000001" dy="16">VGS</tspan></text><circle cx="-1.3226185430791413e-14" cy="72.0" r="2.6999999999999997" style="stroke:black;fill:black;stroke-width:2.0;" /></svg>