<svg xmlns="http://www.w3.org/2000/svg" xml:lang="en" height="161.7pt" width="369.99199999999996pt" viewBox="-60.33999999999999 -29.999999999999996 369.99199999999996 161.7"><circle cx="216.0" cy="36.0" r="18.0" style="stroke:black;fill:none;stroke-width:2.0;" /><path d="M 0.0,-0.0 L -18.0,-2.204364238465236e-15 L -36.0,-4.408728476930472e-15" style="stroke:black;fill:none;stroke-width:2.0;stroke-linecap:round;stroke-linejoin:round;" /><path d="M 0.0,-0.0 L -6.017914371010093e-15,32.76 M 8.999999999999995,32.76 L -9.000000000000005,32.76 M 8.999999999999993,39.24 L -9.000000000000007,39.24 M -7.208271059781322e-15,39.24 L -1.3226185430791413e-14,72.0" style="stroke:black;fill:none;stroke-width:2.0;stroke-linecap:round;stroke-linejoin:round;" /><path d="M -1.3226185430791413e-14,72.0 L 107.99999999999999,72.0 L 216.0,72.0" style="stroke:black;fill:none;stroke-width:2.0;stroke-linecap:round;stroke-linejoin:round;" /><path d="M 216.0,72.0 L 216.0,90.0 L 216.0,108.0" style="stroke:black;fill:none;stroke-width:2.0;stroke-linecap:round;stroke-linejoin:round;" /><path d="M 0.0,-0.0 L 104.76,-0.0 M 104.76,-9.0 L 104.76,9.0 M 111.24000000000001,-9.0 L 111.24000000000001,9.0 M 111.24000000000001,-0.0 L 216.0,-0.0" style="stroke:black;fill:none;stroke-width:2.0;stroke-linecap:round;stroke-linejoin:round;" /><path d="M 216.0,-0.0 L 216.0,18.0 L 216.0,18.0 M 216.0,54.0 L 216.0,54.0 L 216.0,72.0" style="stroke:black;fill:none;stroke-width:2.0;stroke-linecap:round;stroke-linejoin:round;" /><path d="M 216.0,27.0 L 216.0,36.0" style="stroke:black;fill:none;stroke-width:2.0;stroke-linecap:round;stroke-linejoin:round;" /><path d="M 216.0 43.0 L 213.3 36.0 L 218.7 36.0 Z" style="stroke:black;fill:black;stroke-linecap:butt;stroke-linejoin:miter;" /><path d="M 216.0,-0.0 L 252.0,-0.0 L 288.0,-0.0" style="stroke:black;fill:none;stroke-width:2.0;stroke-linecap:round;stroke-linejoin:round;" /><path d="M 288.0,72.0 L 288.0,90.0 L 288.0,108.0" style="stroke:black;fill:none;stroke-width:2.0;stroke-linecap:round;stroke-linejoin:round;" /><circle cx="-36.0" cy="-4.408728476930472e-15" r="2.6999999999999997" style="stroke:black;fill:white;stroke-width:2.0;" /><circle cx="0.0" cy="-0.0" r="2.6999999999999997" style="stroke:black;fill:black;stroke-width:2.0;" /><text x="-42.3" y="-6.400000000000006" fill="black" font-size="16" font-family="sans" text-anchor="end"><tspan x="-42.3" dy="16">G</tspan></text><text x="-12.600000000000005" y="29.59999999999999" fill="black" font-size="16" font-family="sans" text-anchor="end"><tspan x="-12.600000000000005" dy="16">CGS</tspan></text><circle cx="216.0" cy="72.0" r="2.6999999999999997" style="stroke:black;fill:black;stroke-width:2.0;" /><circle cx="216.0" cy="108.0" r="2.6999999999999997" style="stroke:black;fill:white;stroke-width:2.0;" /><text x="216.0" y="114.3" fill="black" font-size="16" font-family="sans" text-anchor="middle"><tspan x="216.0" dy="16">S</tspan></text><circle cx="216.0" cy="-0.0" r="2.6999999999999997" style="stroke:black;fill:black;stroke-width:2.0;" /><text x="109.35000000000002" y="-25.4" fill="black" font-size="16" font-family="sans" text-anchor="middle"><tspan x="109.35000000000002" dy="16">CGD</tspan></text><text x="194.39999999999998" y="29.59999999999999" fill="black" font-size="16" font-family="sans" text-anchor="end"><tspan x="194.39999999999998" dy="16">IDS = f(VGS, VDS, VSB)</tspan></text><circle cx="288.0" cy="-0.0" r="2.6999999999999997" style="stroke:black;fill:white;stroke-width:2.0;" /><text x="294.3" y="-6.4" fill="black" font-size="16" font-family="sans" text-anchor="start"><tspan x="294.3" dy="16">D</tspan></text><circle cx="288.0" cy="108.0" r="2.6999999999999997" style="stroke:black;fill:white;stroke-width:2.0;" /><text x="288.0" y="114.3" fill="black" font-size="16" font-family="sans" text-anchor="middle"><tspan x="288.0" dy="16">B</tspan></text></svg>