<svg xmlns="http://www.w3.org/2000/svg" xml:lang="en" height="149.23999999999998pt" width="285.14228634059947pt" viewBox="-85.6 -49.6 285.14228634059947 149.23999999999998"><circle cx="176.94228634059948" cy="36.0" r="18.0" style="stroke:black;fill:none;stroke-width:2.0;" /><path d="M 0.0,-0.0 L 0.0,45.0 L 77.94228634059947,-0.0 L 0.0,-45.0 L 0.0,-0.0 M 77.94228634059947,-0.0" style="stroke:black;fill:none;stroke-width:2.0;stroke-linecap:round;stroke-linejoin:round;" /><path d="M 6.142785792574934,22.5 L 13.342785792574933,22.5" style="stroke:black;fill:none;stroke-width:2.0;stroke-linecap:round;stroke-linejoin:round;" /><path d="M 6.142785792574934,-22.5 L 13.342785792574933,-22.5" style="stroke:black;fill:none;stroke-width:2.0;stroke-linecap:round;stroke-linejoin:round;" /><path d="M 9.742785792574933,-26.099999999999998 L 9.742785792574933,-18.900000000000002" style="stroke:black;fill:none;stroke-width:2.0;stroke-linecap:round;stroke-linejoin:round;" /><path d="M 0.0,-22.5 L -18.0,-22.500000000000004 L -36.0,-22.500000000000004" style="stroke:black;fill:none;stroke-width:2.0;stroke-linecap:round;stroke-linejoin:round;" /><path d="M -36.0,-22.500000000000004 L -54.0,-22.500000000000007 L -72.0,-22.500000000000007" style="stroke:black;fill:none;stroke-width:2.0;stroke-linecap:round;stroke-linejoin:round;" /><path d="M -72.0,-22.500000000000007 L -72.0,-8.100000000000007 L -81.0,-8.100000000000007 L -63.0,-8.100000000000007 M -78.3,-3.7800000000000074 L -65.7,-3.7800000000000074 M -73.8,0.5399999999999925 L -70.2,0.5399999999999925" style="stroke:black;fill:none;stroke-width:2.0;stroke-linecap:round;stroke-linejoin:round;" /><path d="M 77.94228634059947,-0.0 L 104.94228634059947,-0.0 L 131.94228634059948,-0.0" style="stroke:black;fill:none;stroke-width:2.0;stroke-linecap:round;stroke-linejoin:round;" /><path d="M 77.94228634059947,-0.0 L 95.94228634059947,-0.0 L 113.94228634059947,-0.0" style="stroke:black;fill:none;stroke-width:2.0;stroke-linecap:round;stroke-linejoin:round;" /><path d="M 113.94228634059947,-0.0 L 131.94228634059948,-0.0 L 149.94228634059948,-0.0" style="stroke:black;fill:none;stroke-width:2.0;stroke-linecap:round;stroke-linejoin:round;" /><path d="M 149.94228634059948,-0.0 L 163.44228634059948,-0.0 L 176.94228634059948,-0.0" style="stroke:black;fill:none;stroke-width:2.0;stroke-linecap:round;stroke-linejoin:round;" /><path d="M 176.94228634059948,-0.0 L 176.94228634059948,18.0 L 176.94228634059948,18.0 M 176.94228634059948,54.0 L 176.94228634059948,54.0 L 176.94228634059948,72.0" style="stroke:black;fill:none;stroke-width:2.0;stroke-linecap:round;stroke-linejoin:round;" /><path d="M 176.94228634059948,36.0 L 176.94228634059948,45.0" style="stroke:black;fill:none;stroke-width:2.0;stroke-linecap:round;stroke-linejoin:round;" /><path d="M 176.94228634059948 29.0 L 179.64228634059947 36.0 L 174.2422863405995 36.0 Z" style="stroke:black;fill:black;stroke-linecap:butt;stroke-linejoin:miter;" /><path d="M 176.94228634059948,72.0 L 176.94228634059948,86.39999999999999 L 167.94228634059948,86.39999999999999 L 185.94228634059948,86.39999999999999 M 170.64228634059947,90.72 L 183.24228634059946,90.72 M 175.14228634059947,95.04 L 178.74228634059946,95.04" style="stroke:black;fill:none;stroke-width:2.0;stroke-linecap:round;stroke-linejoin:round;" /><path d="M 113.94228634059947,-0.0 L 113.94228634059947,36.0 L 113.94228634059945,72.0" style="stroke:black;fill:none;stroke-width:2.0;stroke-linecap:round;stroke-linejoin:round;" /><path d="M 113.94228634059945,72.0 L 29.971143170299733,71.99999999999999 L -53.999999999999986,71.99999999999997" style="stroke:black;fill:none;stroke-width:2.0;stroke-linecap:round;stroke-linejoin:round;" /><path d="M -53.999999999999986,71.99999999999997 L -53.999999999999986,47.249999999999986 L -53.999999999999986,22.5" style="stroke:black;fill:none;stroke-width:2.0;stroke-linecap:round;stroke-linejoin:round;" /><path d="M -53.999999999999986,22.5 L -44.99999999999999,22.5 L -36.0,22.5" style="stroke:black;fill:none;stroke-width:2.0;stroke-linecap:round;stroke-linejoin:round;" /><path d="M -36.0,22.5 L -18.0,22.5 L 0.0,22.5" style="stroke:black;fill:none;stroke-width:2.0;stroke-linecap:round;stroke-linejoin:round;" /><g><g><g><path d="M 32.456 -5.44 L 32.456 -5.44 L 32.36 -4.624 L 30.968 -4.784 L 30.968 -4.736 Q 31.24 -4.432 31.392 -3.976 Q 31.544 -3.52 31.544 -3.104 Q 31.544 -2.384 31.256 -1.896 Q 30.968 -1.408 30.504 -1.112 Q 30.04 -0.816 29.48 -0.664 Q 28.92 -0.512 28.392 -0.464 Q 27.752 -0.4 27.488 -0.192 Q 27.224 0.016 27.224 0.24 Q 27.224 0.528 27.544 0.68 Q 27.864 0.832 28.368 0.928 Q 28.872 1.024 29.448 1.144 Q 30.024 1.264 30.528 1.472 Q 31.032 1.68 31.352 2.056 Q 31.672 2.432 31.672 3.056 Q 31.672 3.744 31.224 4.328 Q 30.776 4.912 29.896 5.272 Q 29.016 5.632 27.736 5.632 Q 26.584 5.632 25.896 5.352 Q 25.208 5.072 24.904 4.632 Q 24.6 4.192 24.6 3.712 Q 24.6 2.944 25.192 2.472 Q 25.784 2 26.536 1.76 L 26.536 1.696 Q 26.328 1.568 26.144 1.336 Q 25.96 1.104 25.96 0.736 Q 25.96 0.336 26.168 0.096 Q 26.376 -0.144 26.704 -0.296 Q 27.032 -0.448 27.352 -0.56 L 27.352 -0.656 Q 26.728 -0.928 26.264 -1.424 Q 25.8 -1.92 25.8 -2.832 Q 25.8 -3.664 26.2 -4.296 Q 26.6 -4.928 27.296 -5.28 Q 27.992 -5.632 28.856 -5.632 Q 29.432 -5.632 29.728 -5.576 Q 30.024 -5.52 30.312 -5.44 Z M 30.52 3.648 L 30.52 3.648 Q 30.52 3.168 30.12 2.872 Q 29.72 2.576 29.128 2.4 Q 28.536 2.224 27.936 2.12 Q 27.336 2.016 26.92 1.936 Q 26.52 2.192 26.184 2.52 Q 25.848 2.848 25.848 3.472 Q 25.848 4.112 26.344 4.592 Q 26.84 5.072 28.056 5.072 Q 29.208 5.072 29.864 4.648 Q 30.52 4.224 30.52 3.648 Z M 30.12 -3.28 L 30.12 -3.28 Q 30.12 -4.08 29.816 -4.616 Q 29.512 -5.152 28.808 -5.152 Q 28.12 -5.152 27.672 -4.576 Q 27.224 -4 27.224 -2.832 Q 27.224 -2 27.512 -1.48 Q 27.8 -0.96 28.488 -0.96 Q 29.288 -0.96 29.704 -1.632 Q 30.12 -2.304 30.12 -3.28 Z " fill="black" /><path d="M 34.752 1.394 L 34.752 1.394 L 34.752 4.306 Q 34.752 4.776 34.914 4.922 Q 35.077 5.067 35.592 5.067 L 35.592 5.392 L 33.038 5.392 L 33.038 5.067 Q 33.397 5.067 33.559 5.006 Q 33.722 4.944 33.772 4.77 Q 33.822 4.597 33.822 4.261 L 33.822 1.125 Q 33.822 0.822 33.705 0.722 Q 33.587 0.621 33.352 0.621 Q 33.229 0.621 33.139 0.632 Q 33.05 0.643 33.05 0.643 L 33.05 0.318 L 34.45 -0.006 L 34.718 -0.006 L 34.718 0.901 L 34.763 0.901 Q 35.222 0.509 35.648 0.234 Q 36.074 -0.04 36.645 -0.04 Q 37.126 -0.04 37.423 0.223 Q 37.72 0.486 37.888 0.89 L 37.933 0.89 Q 38.392 0.43 38.829 0.195 Q 39.266 -0.04 39.714 -0.04 Q 40.374 -0.04 40.766 0.374 Q 41.158 0.789 41.158 1.808 L 41.158 4.093 Q 41.158 4.44 41.198 4.658 Q 41.237 4.877 41.41 4.972 Q 41.584 5.067 41.965 5.067 L 41.965 5.392 L 39.434 5.392 L 39.434 5.067 Q 39.814 5.067 39.982 4.966 Q 40.15 4.866 40.19 4.647 Q 40.229 4.429 40.229 4.093 L 40.229 1.942 Q 40.229 1.427 40.1 1.158 Q 39.971 0.89 39.753 0.783 Q 39.534 0.677 39.266 0.677 Q 38.918 0.677 38.588 0.906 Q 38.258 1.136 37.978 1.371 L 37.978 4.093 Q 37.978 4.474 38.028 4.686 Q 38.078 4.899 38.258 4.983 Q 38.437 5.067 38.84 5.067 L 38.84 5.392 L 36.186 5.392 L 36.186 5.067 Q 36.589 5.067 36.768 4.989 Q 36.947 4.91 36.998 4.698 Q 37.048 4.485 37.048 4.093 L 37.048 1.875 Q 37.048 1.158 36.796 0.918 Q 36.544 0.677 36.152 0.677 Q 35.715 0.677 35.357 0.923 Q 34.998 1.17 34.752 1.394 Z " fill="black" /><path d="M 46.994 5.392 L 46.994 5.392 L 43.118 5.392 L 43.118 5.078 Q 43.914 5.078 44.238 4.91 Q 44.563 4.742 44.563 4.328 L 44.563 -0.41 Q 44.563 -0.701 44.485 -0.83 Q 44.406 -0.958 44.194 -0.958 Q 44.026 -0.958 43.667 -0.914 Q 43.309 -0.869 43.051 -0.779 L 43.051 -1.149 L 45.224 -1.765 L 45.549 -1.765 L 45.549 4.328 Q 45.549 4.742 45.885 4.91 Q 46.221 5.078 46.994 5.078 Z " fill="black" /><path d="M 52.963 3.6 L 52.963 3.6 L 52.605 5.392 L 48.192 5.392 L 48.192 5.011 L 49.894 3.309 Q 50.454 2.738 50.824 2.273 Q 51.194 1.808 51.378 1.338 Q 51.563 0.867 51.563 0.285 Q 51.563 -0.342 51.188 -0.718 Q 50.813 -1.093 50.163 -1.093 Q 49.614 -1.093 49.228 -0.858 Q 48.842 -0.622 48.528 0.005 L 48.259 -0.107 Q 48.517 -0.925 49.077 -1.373 Q 49.637 -1.821 50.454 -1.821 Q 51.093 -1.821 51.574 -1.58 Q 52.056 -1.339 52.33 -0.908 Q 52.605 -0.477 52.605 0.117 Q 52.605 0.61 52.398 1.063 Q 52.19 1.517 51.782 1.998 Q 51.373 2.48 50.779 3.085 L 49.301 4.485 L 49.301 4.541 L 50.085 4.507 L 51.642 4.507 Q 52.09 4.507 52.269 4.306 Q 52.448 4.104 52.638 3.6 Z " fill="black" /></g></g></g><circle cx="-36.0" cy="-22.500000000000004" r="2.6999999999999997" style="stroke:black;fill:white;stroke-width:2.0;" /><g><g><g><path d="M -21.736 -14.756 L -21.736 -14.756 L -25.928 -14.756 L -25.928 -10.516 L -27.08 -10.516 L -27.08 -14.756 L -31.272 -14.756 L -31.272 -15.844 L -27.08 -15.844 L -27.08 -20.084 L -25.928 -20.084 L -25.928 -15.844 L -21.736 -15.844 Z " fill="black" /></g></g></g><g><g><g><path d="M -28.588 4.276 L -28.588 4.276 L -24.22 -2.284 Q -23.996 -2.604 -23.86 -2.876 Q -23.724 -3.148 -23.724 -3.34 Q -23.724 -3.58 -23.932 -3.668 Q -24.14 -3.756 -24.684 -3.756 L -24.652 -4.236 L -21.196 -4.236 L -21.228 -3.756 Q -21.66 -3.756 -21.964 -3.628 Q -22.268 -3.5 -22.58 -3.14 Q -22.892 -2.78 -23.388 -2.044 L -29.26 6.356 L -29.788 6.356 L -30.684 -2.3 Q -30.78 -3.1 -31.036 -3.428 Q -31.292 -3.756 -31.932 -3.756 L -31.9 -4.236 L -27.98 -4.236 L -28.028 -3.756 Q -28.636 -3.756 -28.988 -3.516 Q -29.34 -3.276 -29.308 -2.732 Q -29.308 -2.652 -29.284 -2.444 Q -29.26 -2.236 -29.26 -2.156 L -28.78 2.404 L -28.668 4.276 Z " fill="black" /><path d="M -20.206 9.322 L -20.206 9.322 L -20.206 9.636 L -22.726 9.636 L -22.726 9.322 Q -22.345 9.322 -22.182 9.25 Q -22.02 9.177 -21.981 8.998 Q -21.942 8.818 -21.942 8.505 L -21.942 5.38 Q -21.942 5.022 -22.065 4.938 Q -22.188 4.854 -22.434 4.854 Q -22.546 4.854 -22.63 4.865 Q -22.714 4.876 -22.714 4.876 L -22.714 4.551 L -21.303 4.238 L -21.012 4.238 L -21.012 8.505 Q -21.012 8.83 -20.967 9.009 Q -20.922 9.188 -20.749 9.255 Q -20.575 9.322 -20.206 9.322 Z M -21.46 2.098 L -21.46 2.098 Q -21.169 2.098 -20.995 2.283 Q -20.822 2.468 -20.822 2.726 Q -20.822 2.983 -20.995 3.174 Q -21.169 3.364 -21.46 3.364 Q -21.74 3.364 -21.919 3.174 Q -22.098 2.983 -22.098 2.726 Q -22.098 2.468 -21.925 2.283 Q -21.751 2.098 -21.46 2.098 Z " fill="black" /></g></g></g><g><g><g><rect x="-29.16" y="16.028" width="4.32" height="1.088" fill="black" /></g></g></g><circle cx="113.94228634059947" cy="-0.0" r="2.6999999999999997" style="stroke:black;fill:black;stroke-width:2.0;" /><circle cx="149.94228634059948" cy="-0.0" r="2.6999999999999997" style="stroke:black;fill:white;stroke-width:2.0;" /><g><g><g><path d="M 144.298 -17.172 L 144.298 -17.172 L 148.666 -23.732 Q 148.89 -24.052 149.026 -24.324 Q 149.162 -24.596 149.162 -24.788 Q 149.162 -25.028 148.954 -25.116 Q 148.746 -25.204 148.202 -25.204 L 148.234 -25.684 L 151.69 -25.684 L 151.658 -25.204 Q 151.226 -25.204 150.922 -25.076 Q 150.618 -24.948 150.306 -24.588 Q 149.994 -24.228 149.498 -23.492 L 143.626 -15.092 L 143.098 -15.092 L 142.202 -23.748 Q 142.106 -24.548 141.85 -24.876 Q 141.594 -25.204 140.954 -25.204 L 140.986 -25.684 L 144.906 -25.684 L 144.858 -25.204 Q 144.25 -25.204 143.898 -24.964 Q 143.546 -24.724 143.578 -24.18 Q 143.578 -24.1 143.602 -23.892 Q 143.626 -23.684 143.626 -23.604 L 144.106 -19.044 L 144.218 -17.172 Z " fill="black" /><path d="M 151.027 -17.244 L 151.027 -17.244 Q 152.181 -17.244 152.847 -16.527 Q 153.514 -15.81 153.514 -14.567 Q 153.514 -13.626 153.195 -12.988 Q 152.875 -12.35 152.315 -12.025 Q 151.755 -11.7 151.027 -11.7 Q 149.851 -11.7 149.185 -12.434 Q 148.519 -13.167 148.519 -14.522 Q 148.519 -15.34 148.832 -15.95 Q 149.146 -16.561 149.711 -16.902 Q 150.277 -17.244 151.027 -17.244 Z M 150.983 -16.818 L 150.983 -16.818 Q 150.344 -16.818 149.952 -16.281 Q 149.56 -15.743 149.56 -14.668 Q 149.56 -13.335 149.958 -12.736 Q 150.355 -12.137 151.072 -12.148 Q 151.531 -12.148 151.845 -12.361 Q 152.159 -12.574 152.321 -13.089 Q 152.483 -13.604 152.483 -14.511 Q 152.483 -15.542 152.108 -16.18 Q 151.733 -16.818 150.983 -16.818 Z " fill="black" /><path d="M 159.943 -12.316 L 159.943 -12.316 L 159.943 -12.014 L 158.52 -11.756 L 158.274 -11.756 L 158.274 -12.618 L 158.218 -12.618 Q 157.77 -12.182 157.344 -11.941 Q 156.919 -11.7 156.381 -11.7 Q 155.687 -11.7 155.3 -12.154 Q 154.914 -12.607 154.914 -13.75 L 154.914 -16.023 Q 154.914 -16.482 154.763 -16.578 Q 154.611 -16.673 154.152 -16.684 L 154.152 -16.998 L 155.597 -17.166 L 155.843 -17.166 L 155.843 -13.895 Q 155.843 -13.044 156.129 -12.73 Q 156.415 -12.417 156.851 -12.417 Q 157.277 -12.417 157.585 -12.607 Q 157.893 -12.798 158.229 -13.089 L 158.229 -16.034 Q 158.229 -16.482 158.044 -16.583 Q 157.859 -16.684 157.322 -16.684 L 157.322 -16.998 L 158.89 -17.166 L 159.159 -17.166 L 159.159 -13.055 Q 159.159 -12.562 159.293 -12.439 Q 159.427 -12.316 159.831 -12.316 Z " fill="black" /><path d="M 163.56 -12.82 L 163.56 -12.82 L 163.773 -12.641 Q 163.56 -12.338 163.375 -12.131 Q 163.191 -11.924 162.967 -11.812 Q 162.743 -11.7 162.384 -11.7 Q 161.824 -11.7 161.567 -12.03 Q 161.309 -12.361 161.309 -13.111 L 161.309 -16.583 L 160.693 -16.583 L 160.693 -16.841 Q 161.085 -17.087 161.371 -17.507 Q 161.656 -17.927 161.959 -18.644 L 162.25 -18.644 L 162.239 -17.054 L 163.504 -17.054 L 163.504 -16.583 L 162.239 -16.583 L 162.239 -13.425 Q 162.239 -12.831 162.345 -12.596 Q 162.451 -12.361 162.776 -12.361 Q 163.045 -12.361 163.196 -12.473 Q 163.347 -12.585 163.56 -12.82 Z " fill="black" /></g></g></g><g><g><g><path d="M 134.809 37.424 L 134.809 37.424 L 136.121 31.12 Q 136.265 30.496 136.257 30.136 Q 136.249 29.776 135.961 29.632 Q 135.673 29.488 134.937 29.488 L 135.033 29.008 L 139.465 29.008 L 139.369 29.488 Q 138.665 29.488 138.313 29.632 Q 137.961 29.776 137.817 30.136 Q 137.673 30.496 137.545 31.12 L 136.233 37.488 Q 136.185 37.744 136.153 37.952 Q 136.121 38.16 136.121 38.336 Q 136.121 38.784 136.385 38.912 Q 136.649 39.04 137.401 39.04 L 137.305 39.52 L 132.937 39.52 L 133.033 39.04 Q 133.689 39.04 134.017 38.928 Q 134.345 38.816 134.505 38.472 Q 134.665 38.128 134.809 37.424 Z " fill="black" /><path d="M 142.355 37.448 L 142.355 37.448 Q 143.509 37.448 144.175 38.165 Q 144.841 38.882 144.841 40.125 Q 144.841 41.066 144.522 41.704 Q 144.203 42.342 143.643 42.667 Q 143.083 42.992 142.355 42.992 Q 141.179 42.992 140.513 42.258 Q 139.846 41.525 139.846 40.17 Q 139.846 39.352 140.16 38.742 Q 140.473 38.131 141.039 37.79 Q 141.605 37.448 142.355 37.448 Z M 142.31 37.874 L 142.31 37.874 Q 141.672 37.874 141.28 38.411 Q 140.888 38.949 140.888 40.024 Q 140.888 41.357 141.285 41.956 Q 141.683 42.555 142.4 42.544 Q 142.859 42.544 143.173 42.331 Q 143.486 42.118 143.649 41.603 Q 143.811 41.088 143.811 40.181 Q 143.811 39.15 143.436 38.512 Q 143.061 37.874 142.31 37.874 Z " fill="black" /><path d="M 151.27 42.376 L 151.27 42.376 L 151.27 42.678 L 149.848 42.936 L 149.601 42.936 L 149.601 42.074 L 149.545 42.074 Q 149.097 42.51 148.672 42.751 Q 148.246 42.992 147.709 42.992 Q 147.014 42.992 146.628 42.538 Q 146.241 42.085 146.241 40.942 L 146.241 38.669 Q 146.241 38.21 146.09 38.114 Q 145.939 38.019 145.48 38.008 L 145.48 37.694 L 146.925 37.526 L 147.171 37.526 L 147.171 40.797 Q 147.171 41.648 147.457 41.962 Q 147.742 42.275 148.179 42.275 Q 148.605 42.275 148.913 42.085 Q 149.221 41.894 149.557 41.603 L 149.557 38.658 Q 149.557 38.21 149.372 38.109 Q 149.187 38.008 148.649 38.008 L 148.649 37.694 L 150.217 37.526 L 150.486 37.526 L 150.486 41.637 Q 150.486 42.13 150.621 42.253 Q 150.755 42.376 151.158 42.376 Z " fill="black" /><path d="M 154.888 41.872 L 154.888 41.872 L 155.101 42.051 Q 154.888 42.354 154.703 42.561 Q 154.518 42.768 154.294 42.88 Q 154.07 42.992 153.712 42.992 Q 153.152 42.992 152.894 42.662 Q 152.637 42.331 152.637 41.581 L 152.637 38.109 L 152.021 38.109 L 152.021 37.851 Q 152.413 37.605 152.698 37.185 Q 152.984 36.765 153.286 36.048 L 153.577 36.048 L 153.566 37.638 L 154.832 37.638 L 154.832 38.109 L 153.566 38.109 L 153.566 41.267 Q 153.566 41.861 153.673 42.096 Q 153.779 42.331 154.104 42.331 Q 154.373 42.331 154.524 42.219 Q 154.675 42.107 154.888 41.872 Z " fill="black" /></g></g></g><circle cx="-36.0" cy="22.5" r="2.6999999999999997" style="stroke:black;fill:white;stroke-width:2.0;" /><path d="M 92.34228634059947,-0.0 L 92.34228634059949,-0.0" style="stroke:black;fill:none;stroke-width:2.0;stroke-linecap:round;stroke-linejoin:round;" /><path d="M 101.14228634059947 0.0 L 92.34228634059946 5.3999999999999995 L 92.34228634059946 -5.3999999999999995 Z" style="stroke:black;fill:black;stroke-linecap:butt;stroke-linejoin:miter;" /><g><g><g><path d="M 78.852 -21.872 L 78.852 -21.872 L 78.756 -21.056 L 77.364 -21.216 L 77.364 -21.168 Q 77.636 -20.864 77.788 -20.408 Q 77.94 -19.952 77.94 -19.536 Q 77.94 -18.816 77.652 -18.328 Q 77.364 -17.84 76.9 -17.544 Q 76.436 -17.248 75.876 -17.096 Q 75.316 -16.944 74.788 -16.896 Q 74.148 -16.832 73.884 -16.624 Q 73.62 -16.416 73.62 -16.192 Q 73.62 -15.904 73.94 -15.752 Q 74.26 -15.6 74.764 -15.504 Q 75.268 -15.408 75.844 -15.288 Q 76.42 -15.168 76.924 -14.96 Q 77.428 -14.752 77.748 -14.376 Q 78.068 -14 78.068 -13.376 Q 78.068 -12.688 77.62 -12.104 Q 77.172 -11.52 76.292 -11.16 Q 75.412 -10.8 74.132 -10.8 Q 72.98 -10.8 72.292 -11.08 Q 71.604 -11.36 71.3 -11.8 Q 70.996 -12.24 70.996 -12.72 Q 70.996 -13.488 71.588 -13.96 Q 72.18 -14.432 72.932 -14.672 L 72.932 -14.736 Q 72.724 -14.864 72.54 -15.096 Q 72.356 -15.328 72.356 -15.696 Q 72.356 -16.096 72.564 -16.336 Q 72.772 -16.576 73.1 -16.728 Q 73.428 -16.88 73.748 -16.992 L 73.748 -17.088 Q 73.124 -17.36 72.66 -17.856 Q 72.196 -18.352 72.196 -19.264 Q 72.196 -20.096 72.596 -20.728 Q 72.996 -21.36 73.692 -21.712 Q 74.388 -22.064 75.252 -22.064 Q 75.828 -22.064 76.124 -22.008 Q 76.42 -21.952 76.708 -21.872 Z M 76.916 -12.784 L 76.916 -12.784 Q 76.916 -13.264 76.516 -13.56 Q 76.116 -13.856 75.524 -14.032 Q 74.932 -14.208 74.332 -14.312 Q 73.732 -14.416 73.316 -14.496 Q 72.916 -14.24 72.58 -13.912 Q 72.244 -13.584 72.244 -12.96 Q 72.244 -12.32 72.74 -11.84 Q 73.236 -11.36 74.452 -11.36 Q 75.604 -11.36 76.26 -11.784 Q 76.916 -12.208 76.916 -12.784 Z M 76.516 -19.712 L 76.516 -19.712 Q 76.516 -20.512 76.212 -21.048 Q 75.908 -21.584 75.204 -21.584 Q 74.516 -21.584 74.068 -21.008 Q 73.62 -20.432 73.62 -19.264 Q 73.62 -18.432 73.908 -17.912 Q 74.196 -17.392 74.884 -17.392 Q 75.684 -17.392 76.1 -18.064 Q 76.516 -18.736 76.516 -19.712 Z " fill="black" /><path d="M 81.148 -15.038 L 81.148 -15.038 L 81.148 -12.126 Q 81.148 -11.656 81.311 -11.51 Q 81.473 -11.365 81.988 -11.365 L 81.988 -11.04 L 79.435 -11.04 L 79.435 -11.365 Q 79.793 -11.365 79.956 -11.426 Q 80.118 -11.488 80.168 -11.662 Q 80.219 -11.835 80.219 -12.171 L 80.219 -15.307 Q 80.219 -15.61 80.101 -15.71 Q 79.984 -15.811 79.748 -15.811 Q 79.625 -15.811 79.536 -15.8 Q 79.446 -15.789 79.446 -15.789 L 79.446 -16.114 L 80.846 -16.438 L 81.115 -16.438 L 81.115 -15.531 L 81.16 -15.531 Q 81.619 -15.923 82.044 -16.198 Q 82.47 -16.472 83.041 -16.472 Q 83.523 -16.472 83.82 -16.209 Q 84.116 -15.946 84.284 -15.542 L 84.329 -15.542 Q 84.788 -16.002 85.225 -16.237 Q 85.662 -16.472 86.11 -16.472 Q 86.771 -16.472 87.163 -16.058 Q 87.555 -15.643 87.555 -14.624 L 87.555 -12.339 Q 87.555 -11.992 87.594 -11.774 Q 87.633 -11.555 87.807 -11.46 Q 87.98 -11.365 88.361 -11.365 L 88.361 -11.04 L 85.83 -11.04 L 85.83 -11.365 Q 86.211 -11.365 86.379 -11.466 Q 86.547 -11.566 86.586 -11.785 Q 86.625 -12.003 86.625 -12.339 L 86.625 -14.49 Q 86.625 -15.005 86.496 -15.274 Q 86.368 -15.542 86.149 -15.649 Q 85.931 -15.755 85.662 -15.755 Q 85.315 -15.755 84.984 -15.526 Q 84.654 -15.296 84.374 -15.061 L 84.374 -12.339 Q 84.374 -11.958 84.424 -11.746 Q 84.475 -11.533 84.654 -11.449 Q 84.833 -11.365 85.236 -11.365 L 85.236 -11.04 L 82.582 -11.04 L 82.582 -11.365 Q 82.985 -11.365 83.164 -11.443 Q 83.344 -11.522 83.394 -11.734 Q 83.444 -11.947 83.444 -12.339 L 83.444 -14.557 Q 83.444 -15.274 83.192 -15.514 Q 82.94 -15.755 82.548 -15.755 Q 82.112 -15.755 81.753 -15.509 Q 81.395 -15.262 81.148 -15.038 Z " fill="black" /><path d="M 93.39 -11.04 L 93.39 -11.04 L 89.515 -11.04 L 89.515 -11.354 Q 90.31 -11.354 90.635 -11.522 Q 90.96 -11.69 90.96 -12.104 L 90.96 -16.842 Q 90.96 -17.133 90.881 -17.262 Q 90.803 -17.39 90.59 -17.39 Q 90.422 -17.39 90.064 -17.346 Q 89.705 -17.301 89.448 -17.211 L 89.448 -17.581 L 91.62 -18.197 L 91.945 -18.197 L 91.945 -12.104 Q 91.945 -11.69 92.281 -11.522 Q 92.617 -11.354 93.39 -11.354 Z " fill="black" /><path d="M 99.36 -12.832 L 99.36 -12.832 L 99.001 -11.04 L 94.588 -11.04 L 94.588 -11.421 L 96.291 -13.123 Q 96.851 -13.694 97.22 -14.159 Q 97.59 -14.624 97.775 -15.094 Q 97.96 -15.565 97.96 -16.147 Q 97.96 -16.774 97.584 -17.15 Q 97.209 -17.525 96.56 -17.525 Q 96.011 -17.525 95.624 -17.29 Q 95.238 -17.054 94.924 -16.427 L 94.656 -16.539 Q 94.913 -17.357 95.473 -17.805 Q 96.033 -18.253 96.851 -18.253 Q 97.489 -18.253 97.971 -18.012 Q 98.452 -17.771 98.727 -17.34 Q 99.001 -16.909 99.001 -16.315 Q 99.001 -15.822 98.794 -15.369 Q 98.587 -14.915 98.178 -14.434 Q 97.769 -13.952 97.176 -13.347 L 95.697 -11.947 L 95.697 -11.891 L 96.481 -11.925 L 98.038 -11.925 Q 98.486 -11.925 98.665 -12.126 Q 98.844 -12.328 99.035 -12.832 Z " fill="black" /><path d="M 106.461 -18.48 L 106.461 -18.48 Q 106.461 -18.112 106.213 -17.84 Q 105.965 -17.568 105.501 -17.568 Q 105.037 -17.568 104.805 -17.832 Q 104.573 -18.096 104.573 -18.496 Q 104.573 -18.896 104.821 -19.184 Q 105.069 -19.472 105.517 -19.472 Q 105.981 -19.472 106.221 -19.176 Q 106.461 -18.88 106.461 -18.48 Z " fill="black" /><path d="M 115.76 -16.4 L 115.76 -16.4 L 120.128 -22.96 Q 120.352 -23.28 120.488 -23.552 Q 120.624 -23.824 120.624 -24.016 Q 120.624 -24.256 120.416 -24.344 Q 120.208 -24.432 119.664 -24.432 L 119.696 -24.912 L 123.152 -24.912 L 123.12 -24.432 Q 122.688 -24.432 122.384 -24.304 Q 122.08 -24.176 121.768 -23.816 Q 121.456 -23.456 120.96 -22.72 L 115.088 -14.32 L 114.56 -14.32 L 113.664 -22.976 Q 113.568 -23.776 113.312 -24.104 Q 113.056 -24.432 112.416 -24.432 L 112.448 -24.912 L 116.368 -24.912 L 116.32 -24.432 Q 115.712 -24.432 115.36 -24.192 Q 115.008 -23.952 115.04 -23.408 Q 115.04 -23.328 115.064 -23.12 Q 115.088 -22.912 115.088 -22.832 L 115.568 -18.272 L 115.68 -16.4 Z " fill="black" /><path d="M 124.143 -11.354 L 124.143 -11.354 L 124.143 -11.04 L 121.623 -11.04 L 121.623 -11.354 Q 122.003 -11.354 122.166 -11.426 Q 122.328 -11.499 122.367 -11.678 Q 122.407 -11.858 122.407 -12.171 L 122.407 -15.296 Q 122.407 -15.654 122.283 -15.738 Q 122.16 -15.822 121.914 -15.822 Q 121.802 -15.822 121.718 -15.811 Q 121.634 -15.8 121.634 -15.8 L 121.634 -16.125 L 123.045 -16.438 L 123.336 -16.438 L 123.336 -12.171 Q 123.336 -11.846 123.381 -11.667 Q 123.426 -11.488 123.599 -11.421 Q 123.773 -11.354 124.143 -11.354 Z M 122.888 -18.578 L 122.888 -18.578 Q 123.179 -18.578 123.353 -18.393 Q 123.527 -18.208 123.527 -17.95 Q 123.527 -17.693 123.353 -17.502 Q 123.179 -17.312 122.888 -17.312 Q 122.608 -17.312 122.429 -17.502 Q 122.25 -17.693 122.25 -17.95 Q 122.25 -18.208 122.423 -18.393 Q 122.597 -18.578 122.888 -18.578 Z " fill="black" /></g></g></g></svg>