<svg xmlns="http://www.w3.org/2000/svg" xml:lang="en" height="176.23999999999998pt" width="225.20000000000005pt" viewBox="-4.6 -40.6 225.20000000000005 176.23999999999998"><path d="M 0.0,-0.0 L 18.0,-0.0 L 36.0,-0.0" style="stroke:black;fill:none;stroke-width:2.0;stroke-linecap:round;stroke-linejoin:round;" /><path d="M 36.0,-0.0 L 36.0,-18.0 L 36.0,-36.0" style="stroke:black;fill:none;stroke-width:2.0;stroke-linecap:round;stroke-linejoin:round;" /><path d="M 36.0,-0.0 L 35.99999999999999,18.0 L 35.99999999999999,36.0" style="stroke:black;fill:none;stroke-width:2.0;stroke-linecap:round;stroke-linejoin:round;" /><path d="M 36.0,-0.0 L 54.0,-0.0 L 72.0,-0.0" style="stroke:black;fill:none;stroke-width:2.0;stroke-linecap:round;stroke-linejoin:round;" /><path d="M 72.0,-0.0 L 71.99999999999999,36.0 L 81.0,39.0 L 62.99999999999999,45.0 L 80.99999999999999,50.99999999999999 L 62.99999999999999,57.0 L 80.99999999999999,63.0 L 62.999999999999986,69.0 L 71.99999999999999,72.0 L 71.99999999999999,108.0" style="stroke:black;fill:none;stroke-width:2.0;stroke-linecap:round;stroke-linejoin:round;" /><path d="M 71.99999999999999,108.0 L 71.99999999999999,122.39999999999999 L 62.999999999999986,122.39999999999999 L 80.99999999999999,122.39999999999999 M 65.69999999999999,126.72 L 78.29999999999998,126.72 M 70.19999999999999,131.04 L 73.79999999999998,131.04" style="stroke:black;fill:none;stroke-width:2.0;stroke-linecap:round;stroke-linejoin:round;" /><path d="M 144.0,-0.0 L 144.0,36.0 L 153.0,39.0 L 135.0,45.0 L 153.0,50.99999999999999 L 134.99999999999997,57.0 L 153.0,63.0 L 134.99999999999997,69.0 L 143.99999999999997,72.0 L 143.99999999999997,108.0" style="stroke:black;fill:none;stroke-width:2.0;stroke-linecap:round;stroke-linejoin:round;" /><path d="M 143.99999999999997,108.0 L 143.99999999999997,122.39999999999999 L 134.99999999999997,122.39999999999999 L 153.0,122.39999999999999 M 137.7,126.72 L 150.29999999999998,126.72 M 142.2,131.04 L 145.79999999999998,131.04" style="stroke:black;fill:none;stroke-width:2.0;stroke-linecap:round;stroke-linejoin:round;" /><path d="M 144.0,-0.0 L 162.0,-0.0 L 180.0,-0.0" style="stroke:black;fill:none;stroke-width:2.0;stroke-linecap:round;stroke-linejoin:round;" /><path d="M 180.0,-0.0 L 180.0,18.0 L 180.0,36.0" style="stroke:black;fill:none;stroke-width:2.0;stroke-linecap:round;stroke-linejoin:round;" /><path d="M 180.0,-0.0 L 198.0,-0.0 L 216.0,-0.0" style="stroke:black;fill:none;stroke-width:2.0;stroke-linecap:round;stroke-linejoin:round;" /><path d="M 180.0,-0.0 L 180.0,-18.0 L 180.0,-36.0" style="stroke:black;fill:none;stroke-width:2.0;stroke-linecap:round;stroke-linejoin:round;" /><circle cx="36.0" cy="-0.0" r="2.6999999999999997" style="stroke:black;fill:black;stroke-width:2.0;" /><g><g><g><path d="M 15.337 -11.66 L 15.337 -11.66 L 19.705 -18.22 Q 19.929 -18.54 20.065 -18.812 Q 20.201 -19.084 20.201 -19.276 Q 20.201 -19.516 19.993 -19.604 Q 19.785 -19.692 19.241 -19.692 L 19.273 -20.172 L 22.729 -20.172 L 22.697 -19.692 Q 22.265 -19.692 21.961 -19.564 Q 21.657 -19.436 21.345 -19.076 Q 21.033 -18.716 20.537 -17.98 L 14.665 -9.58 L 14.137 -9.58 L 13.241 -18.236 Q 13.145 -19.036 12.889 -19.364 Q 12.633 -19.692 11.993 -19.692 L 12.025 -20.172 L 15.945 -20.172 L 15.897 -19.692 Q 15.289 -19.692 14.937 -19.452 Q 14.585 -19.212 14.617 -18.668 Q 14.617 -18.588 14.641 -18.38 Q 14.665 -18.172 14.665 -18.092 L 15.145 -13.532 L 15.257 -11.66 Z " fill="black" /><path d="M 28.838 -6.3 L 28.838 -6.3 L 25.825 -6.3 L 25.825 -6.636 Q 25.993 -6.636 26.172 -6.658 Q 26.352 -6.681 26.475 -6.77 Q 26.598 -6.86 26.598 -7.05 Q 26.598 -7.174 26.559 -7.336 Q 26.52 -7.498 26.408 -7.745 L 25.971 -8.753 L 23.104 -8.753 L 22.6 -7.566 Q 22.555 -7.431 22.516 -7.302 Q 22.476 -7.174 22.476 -7.017 Q 22.476 -6.782 22.656 -6.709 Q 22.835 -6.636 23.227 -6.636 L 23.227 -6.3 L 20.875 -6.3 L 20.875 -6.636 Q 21.188 -6.636 21.379 -6.737 Q 21.569 -6.838 21.748 -7.146 Q 21.928 -7.454 22.196 -8.092 L 24.571 -13.714 L 25.03 -13.714 L 27.684 -7.633 Q 27.931 -7.084 28.16 -6.86 Q 28.39 -6.636 28.838 -6.636 Z M 25.803 -9.201 L 25.803 -9.201 L 24.571 -12.337 L 24.537 -12.337 L 23.272 -9.201 Z " fill="black" /></g></g></g><g><g><g><path d="M 52.528 54.6 L 52.528 54.6 L 51.6 57.576 L 43.536 57.576 L 43.616 57.112 L 51.712 47.8 L 51.712 47.736 L 48.784 47.736 Q 47.968 47.736 47.472 47.856 Q 46.976 47.976 46.64 48.392 Q 46.304 48.808 45.952 49.704 L 45.44 49.704 L 46.032 47.064 L 53.808 47.064 L 53.712 47.512 L 45.648 56.84 L 45.648 56.92 L 48.928 56.92 Q 49.84 56.92 50.36 56.712 Q 50.88 56.504 51.24 55.992 Q 51.6 55.48 52.048 54.6 Z " fill="black" /><path d="M 58.579 60.936 L 58.579 60.936 L 54.704 60.936 L 54.704 60.622 Q 55.499 60.622 55.824 60.454 Q 56.149 60.286 56.149 59.872 L 56.149 55.134 Q 56.149 54.843 56.07 54.714 Q 55.992 54.586 55.779 54.586 Q 55.611 54.586 55.253 54.63 Q 54.894 54.675 54.637 54.765 L 54.637 54.395 L 56.81 53.779 L 57.134 53.779 L 57.134 59.872 Q 57.134 60.286 57.47 60.454 Q 57.806 60.622 58.579 60.622 Z " fill="black" /></g></g></g><g><g><g><path d="M 124.528 54.6 L 124.528 54.6 L 123.6 57.576 L 115.536 57.576 L 115.616 57.112 L 123.712 47.8 L 123.712 47.736 L 120.784 47.736 Q 119.968 47.736 119.472 47.856 Q 118.976 47.976 118.64 48.392 Q 118.304 48.808 117.952 49.704 L 117.44 49.704 L 118.032 47.064 L 125.808 47.064 L 125.712 47.512 L 117.648 56.84 L 117.648 56.92 L 120.928 56.92 Q 121.84 56.92 122.36 56.712 Q 122.88 56.504 123.24 55.992 Q 123.6 55.48 124.048 54.6 Z " fill="black" /><path d="M 131.005 59.144 L 131.005 59.144 L 130.646 60.936 L 126.234 60.936 L 126.234 60.555 L 127.936 58.853 Q 128.496 58.282 128.866 57.817 Q 129.235 57.352 129.42 56.882 Q 129.605 56.411 129.605 55.829 Q 129.605 55.202 129.23 54.826 Q 128.854 54.451 128.205 54.451 Q 127.656 54.451 127.27 54.686 Q 126.883 54.922 126.57 55.549 L 126.301 55.437 Q 126.558 54.619 127.118 54.171 Q 127.678 53.723 128.496 53.723 Q 129.134 53.723 129.616 53.964 Q 130.098 54.205 130.372 54.636 Q 130.646 55.067 130.646 55.661 Q 130.646 56.154 130.439 56.607 Q 130.232 57.061 129.823 57.542 Q 129.414 58.024 128.821 58.629 L 127.342 60.029 L 127.342 60.085 L 128.126 60.051 L 129.683 60.051 Q 130.131 60.051 130.31 59.85 Q 130.49 59.648 130.68 59.144 Z " fill="black" /></g></g></g><circle cx="180.0" cy="-0.0" r="2.6999999999999997" style="stroke:black;fill:black;stroke-width:2.0;" /><g><g><g><path d="M 194.547 -8.96 L 194.547 -8.96 L 198.915 -15.52 Q 199.139 -15.84 199.275 -16.112 Q 199.411 -16.384 199.411 -16.576 Q 199.411 -16.816 199.203 -16.904 Q 198.995 -16.992 198.451 -16.992 L 198.483 -17.472 L 201.939 -17.472 L 201.907 -16.992 Q 201.475 -16.992 201.171 -16.864 Q 200.867 -16.736 200.555 -16.376 Q 200.243 -16.016 199.747 -15.28 L 193.875 -6.88 L 193.347 -6.88 L 192.451 -15.536 Q 192.355 -16.336 192.099 -16.664 Q 191.843 -16.992 191.203 -16.992 L 191.235 -17.472 L 195.155 -17.472 L 195.107 -16.992 Q 194.499 -16.992 194.147 -16.752 Q 193.795 -16.512 193.827 -15.968 Q 193.827 -15.888 193.851 -15.68 Q 193.875 -15.472 193.875 -15.392 L 194.355 -10.832 L 194.467 -8.96 Z " fill="black" /><path d="M 204.632 -7.52 L 204.632 -7.52 L 204.632 -7.475 Q 205.114 -7.397 205.556 -7.184 Q 205.998 -6.971 206.29 -6.585 Q 206.581 -6.198 206.581 -5.582 Q 206.581 -4.63 205.87 -4.115 Q 205.158 -3.6 203.904 -3.6 L 200.454 -3.6 L 200.454 -3.936 Q 200.914 -3.936 201.143 -4.014 Q 201.373 -4.093 201.457 -4.328 Q 201.541 -4.563 201.541 -5.022 L 201.541 -9.603 Q 201.541 -10.051 201.457 -10.27 Q 201.373 -10.488 201.143 -10.555 Q 200.914 -10.622 200.454 -10.622 L 200.454 -10.958 L 203.478 -10.958 Q 204.979 -10.958 205.601 -10.499 Q 206.222 -10.04 206.222 -9.211 Q 206.222 -8.461 205.774 -8.086 Q 205.326 -7.71 204.632 -7.52 Z M 202.571 -7.184 L 202.571 -7.184 L 202.571 -4.048 Q 202.974 -4.014 203.378 -4.014 Q 203.736 -4.014 204.094 -4.059 Q 204.453 -4.104 204.75 -4.255 Q 205.046 -4.406 205.226 -4.714 Q 205.405 -5.022 205.405 -5.56 Q 205.405 -6.198 205.108 -6.551 Q 204.811 -6.904 204.346 -7.044 Q 203.882 -7.184 203.355 -7.184 Z M 202.571 -7.654 L 202.571 -7.654 L 203.333 -7.654 Q 204.352 -7.654 204.733 -8.007 Q 205.114 -8.36 205.114 -9.122 Q 205.114 -9.782 204.694 -10.152 Q 204.274 -10.522 203.243 -10.522 Q 202.907 -10.522 202.571 -10.488 Z " fill="black" /></g></g></g></svg>