<svg xmlns="http://www.w3.org/2000/svg" xml:lang="en" height="298.64pt" width="442.58639999999997pt" viewBox="-204.50879999999998 -114.99999999999999 442.58639999999997 298.64"><circle cx="-156.0" cy="-12.000000000000021" r="18.0" style="stroke:black;fill:none;stroke-width:2.0;" /><path d="M 0.0,59.99999999999999 L 0.0,45.0 L -14.999999999999998,45.0 L -14.999999999999998,14.999999999999998 L 0.0,14.999999999999998 L 0.0,-0.0" style="stroke:black;fill:none;stroke-width:2.0;stroke-linecap:round;stroke-linejoin:round;" /><path d="M -9.0,45.0 L -14.999999999999998,45.0" style="stroke:black;fill:none;stroke-width:2.0;stroke-linecap:round;stroke-linejoin:round;" /><path d="M -2.0 45.0 L -9.0 49.5 L -9.0 40.5 Z" style="stroke:black;fill:black;stroke-linecap:butt;stroke-linejoin:miter;" /><path d="M -17.999999999999996,42.0 L -17.999999999999996,17.999999999999996" style="stroke:black;fill:none;stroke-width:2.0;stroke-linecap:round;stroke-linejoin:round;" /><path d="M -32.99999999999999,29.999999999999996 L -17.999999999999996,29.999999999999996" style="stroke:black;fill:none;stroke-width:2.0;stroke-linecap:round;stroke-linejoin:round;" /><path d="M 0.0,59.99999999999999 L -1.6532731788489267e-15,69.0 L -3.3065463576978533e-15,78.0" style="stroke:black;fill:none;stroke-width:2.0;stroke-linecap:round;stroke-linejoin:round;" /><path d="M -3.3065463576978533e-15,78.0 L 26.999999999999996,78.0 L 54.0,78.0" style="stroke:black;fill:none;stroke-width:2.0;stroke-linecap:round;stroke-linejoin:round;" /><path d="M 54.0,78.0 L 54.0,87.0 L 54.0,96.0" style="stroke:black;fill:none;stroke-width:2.0;stroke-linecap:round;stroke-linejoin:round;" /><path d="M 54.0,156.0 L 54.0,141.0 L 39.00000000000001,141.0 L 39.00000000000001,110.99999999999999 L 54.0,110.99999999999999 L 54.0,96.0" style="stroke:black;fill:none;stroke-width:2.0;stroke-linecap:round;stroke-linejoin:round;" /><path d="M 45.0,141.0 L 39.00000000000001,141.0" style="stroke:black;fill:none;stroke-width:2.0;stroke-linecap:round;stroke-linejoin:round;" /><path d="M 52.0 141.0 L 45.0 145.5 L 45.0 136.5 Z" style="stroke:black;fill:black;stroke-linecap:butt;stroke-linejoin:miter;" /><path d="M 36.0,138.0 L 36.0,114.0" style="stroke:black;fill:none;stroke-width:2.0;stroke-linecap:round;stroke-linejoin:round;" /><path d="M 21.000000000000007,126.0 L 36.0,126.0" style="stroke:black;fill:none;stroke-width:2.0;stroke-linecap:round;stroke-linejoin:round;" /><path d="M 54.0,156.0 L 54.0,170.4 L 45.0,170.4 L 63.0,170.4 M 47.699999999999996,174.72 L 60.300000000000004,174.72 M 52.199999999999996,179.03999999999996 L 55.800000000000004,179.03999999999996" style="stroke:black;fill:none;stroke-width:2.0;stroke-linecap:round;stroke-linejoin:round;" /><path d="M 21.000000000000007,126.0 L -50.99999999999999,125.99999999999999 L -123.0,125.99999999999999" style="stroke:black;fill:none;stroke-width:2.0;stroke-linecap:round;stroke-linejoin:round;" /><path d="M -156.0,95.99999999999997 L -156.0,110.99999999999999 L -141.0,110.99999999999999 L -141.0,140.99999999999997 L -156.0,140.99999999999997 L -156.0,156.0" style="stroke:black;fill:none;stroke-width:2.0;stroke-linecap:round;stroke-linejoin:round;" /><path d="M -141.0,140.99999999999997 L -147.0,140.99999999999997" style="stroke:black;fill:none;stroke-width:2.0;stroke-linecap:round;stroke-linejoin:round;" /><path d="M -154.0 140.99999999999997 L -147.0 136.49999999999997 L -147.0 145.49999999999997 Z" style="stroke:black;fill:black;stroke-linecap:butt;stroke-linejoin:miter;" /><path d="M -138.0,113.99999999999997 L -138.0,138.0" style="stroke:black;fill:none;stroke-width:2.0;stroke-linecap:round;stroke-linejoin:round;" /><path d="M -138.0,125.99999999999999 L -123.0,125.99999999999999" style="stroke:black;fill:none;stroke-width:2.0;stroke-linecap:round;stroke-linejoin:round;" /><path d="M -156.0,156.0 L -156.0,170.4 L -165.0,170.4 L -147.0,170.4 M -162.29999999999998,174.72 L -149.7,174.72 M -157.79999999999998,179.03999999999996 L -154.2,179.03999999999996" style="stroke:black;fill:none;stroke-width:2.0;stroke-linecap:round;stroke-linejoin:round;" /><path d="M -156.0,95.99999999999997 L -156.0,86.99999999999997 L -156.0,77.99999999999997" style="stroke:black;fill:none;stroke-width:2.0;stroke-linecap:round;stroke-linejoin:round;" /><path d="M -156.0,77.99999999999997 L -156.0,50.99999999999998 L -156.0,23.99999999999998" style="stroke:black;fill:none;stroke-width:2.0;stroke-linecap:round;stroke-linejoin:round;" /><path d="M -156.0,23.99999999999998 L -156.0,5.999999999999979 L -156.0,5.999999999999979 M -156.0,-30.00000000000002 L -156.0,-30.00000000000002 L -156.0,-48.00000000000002" style="stroke:black;fill:none;stroke-width:2.0;stroke-linecap:round;stroke-linejoin:round;" /><path d="M -156.0,-12.000000000000021 L -156.0,-21.00000000000002" style="stroke:black;fill:none;stroke-width:2.0;stroke-linecap:round;stroke-linejoin:round;" /><path d="M -156.0 -5.000000000000021 L -158.7 -12.000000000000021 L -153.3 -12.000000000000021 Z" style="stroke:black;fill:black;stroke-linecap:butt;stroke-linejoin:miter;" /><path d="M -156.0,-48.00000000000002 L -156.0,-62.40000000000002" style="stroke:black;fill:none;stroke-width:2.0;stroke-linecap:round;stroke-linejoin:round;" /><path d="M -156.0,-62.40000000000002 L -162.75,-62.40000000000002" style="stroke:black;fill:none;stroke-width:2.0;stroke-linecap:round;stroke-linejoin:round;" /><path d="M -156.0,-62.40000000000002 L -149.25,-62.40000000000002" style="stroke:black;fill:none;stroke-width:2.0;stroke-linecap:round;stroke-linejoin:round;" /><path d="M -156.0,77.99999999999997 L -129.0,77.99999999999997 L -101.99999999999999,77.99999999999997" style="stroke:black;fill:none;stroke-width:2.0;stroke-linecap:round;stroke-linejoin:round;" /><path d="M -101.99999999999999,77.99999999999997 L -101.99999999999999,101.99999999999999 L -102.0,125.99999999999999" style="stroke:black;fill:none;stroke-width:2.0;stroke-linecap:round;stroke-linejoin:round;" /><path d="M 54.0,78.0 L 81.0,78.0 L 108.0,78.0" style="stroke:black;fill:none;stroke-width:2.0;stroke-linecap:round;stroke-linejoin:round;" /><path d="M 108.0,78.0 L 108.0,69.0 L 108.0,59.99999999999999" style="stroke:black;fill:none;stroke-width:2.0;stroke-linecap:round;stroke-linejoin:round;" /><path d="M 108.0,-0.0 L 108.0,14.999999999999995 L 123.0,14.999999999999995 L 123.0,45.0 L 108.0,45.0 L 108.0,59.99999999999999" style="stroke:black;fill:none;stroke-width:2.0;stroke-linecap:round;stroke-linejoin:round;" /><path d="M 123.0,45.0 L 117.0,45.0" style="stroke:black;fill:none;stroke-width:2.0;stroke-linecap:round;stroke-linejoin:round;" /><path d="M 110.0 45.0 L 117.0 40.5 L 117.0 49.5 Z" style="stroke:black;fill:black;stroke-linecap:butt;stroke-linejoin:miter;" /><path d="M 126.0,18.0 L 126.0,42.0" style="stroke:black;fill:none;stroke-width:2.0;stroke-linecap:round;stroke-linejoin:round;" /><path d="M 126.0,29.999999999999996 L 141.0,29.999999999999996" style="stroke:black;fill:none;stroke-width:2.0;stroke-linecap:round;stroke-linejoin:round;" /><path d="M -32.99999999999999,29.999999999999996 L -41.99999999999999,29.999999999999996 L -50.99999999999999,29.999999999999993" style="stroke:black;fill:none;stroke-width:2.0;stroke-linecap:round;stroke-linejoin:round;" /><path d="M 141.0,29.999999999999996 L 149.99999999999997,29.999999999999996 L 158.99999999999997,29.999999999999996" style="stroke:black;fill:none;stroke-width:2.0;stroke-linecap:round;stroke-linejoin:round;" /><path d="M 0.0,-0.0 L 5.51091059616309e-16,-9.0 L 1.102182119232618e-15,-18.0" style="stroke:black;fill:none;stroke-width:2.0;stroke-linecap:round;stroke-linejoin:round;" /><path d="M 1.102182119232618e-15,-18.0 L 1.6532731788489267e-15,-27.0 L 2.204364238465236e-15,-36.0" style="stroke:black;fill:none;stroke-width:2.0;stroke-linecap:round;stroke-linejoin:round;" /><path d="M 2.204364238465236e-15,-96.0 L 2.204364238465236e-15,-81.0 L 15.0,-81.0 L 15.0,-50.99999999999999 L 2.204364238465236e-15,-50.99999999999999 L 2.204364238465236e-15,-36.0" style="stroke:black;fill:none;stroke-width:2.0;stroke-linecap:round;stroke-linejoin:round;" /><path d="M 2.204364238465236e-15,-81.0 L 6.000000000000001,-81.0" style="stroke:black;fill:none;stroke-width:2.0;stroke-linecap:round;stroke-linejoin:round;" /><path d="M 13.0 -81.0 L 6.0 -76.5 L 6.0 -85.5 Z" style="stroke:black;fill:black;stroke-linecap:butt;stroke-linejoin:miter;" /><path d="M 18.0,-78.0 L 18.0,-53.99999999999999" style="stroke:black;fill:none;stroke-width:2.0;stroke-linecap:round;stroke-linejoin:round;" /><path d="M 18.0,-66.0 L 33.0,-66.0" style="stroke:black;fill:none;stroke-width:2.0;stroke-linecap:round;stroke-linejoin:round;" /><path d="M 2.204364238465236e-15,-96.0 L 2.204364238465236e-15,-110.39999999999999" style="stroke:black;fill:none;stroke-width:2.0;stroke-linecap:round;stroke-linejoin:round;" /><path d="M 2.204364238465236e-15,-110.39999999999999 L -6.749999999999998,-110.39999999999999" style="stroke:black;fill:none;stroke-width:2.0;stroke-linecap:round;stroke-linejoin:round;" /><path d="M 2.204364238465236e-15,-110.39999999999999 L 6.750000000000002,-110.39999999999999" style="stroke:black;fill:none;stroke-width:2.0;stroke-linecap:round;stroke-linejoin:round;" /><path d="M 108.0,-0.0 L 108.0,-9.0 L 108.0,-18.0" style="stroke:black;fill:none;stroke-width:2.0;stroke-linecap:round;stroke-linejoin:round;" /><path d="M 108.0,-18.0 L 135.0,-18.0 L 162.0,-18.0" style="stroke:black;fill:none;stroke-width:2.0;stroke-linecap:round;stroke-linejoin:round;" /><path d="M 108.0,-18.0 L 108.0,-27.0 L 108.0,-36.0" style="stroke:black;fill:none;stroke-width:2.0;stroke-linecap:round;stroke-linejoin:round;" /><path d="M 108.0,-36.0 L 108.0,-50.99999999999999 L 93.0,-50.99999999999999 L 93.0,-81.0 L 108.0,-81.0 L 108.0,-96.0" style="stroke:black;fill:none;stroke-width:2.0;stroke-linecap:round;stroke-linejoin:round;" /><path d="M 102.0,-81.0 L 108.0,-81.0" style="stroke:black;fill:none;stroke-width:2.0;stroke-linecap:round;stroke-linejoin:round;" /><path d="M 95.0 -81.0 L 102.0 -85.5 L 102.0 -76.5 Z" style="stroke:black;fill:black;stroke-linecap:butt;stroke-linejoin:miter;" /><path d="M 90.0,-53.99999999999999 L 90.0,-78.0" style="stroke:black;fill:none;stroke-width:2.0;stroke-linecap:round;stroke-linejoin:round;" /><path d="M 75.0,-66.0 L 90.0,-66.0" style="stroke:black;fill:none;stroke-width:2.0;stroke-linecap:round;stroke-linejoin:round;" /><path d="M 108.0,-96.0 L 108.0,-110.39999999999999" style="stroke:black;fill:none;stroke-width:2.0;stroke-linecap:round;stroke-linejoin:round;" /><path d="M 108.0,-110.39999999999999 L 101.25,-110.39999999999999" style="stroke:black;fill:none;stroke-width:2.0;stroke-linecap:round;stroke-linejoin:round;" /><path d="M 108.0,-110.39999999999999 L 114.75,-110.39999999999999" style="stroke:black;fill:none;stroke-width:2.0;stroke-linecap:round;stroke-linejoin:round;" /><path d="M 75.0,-66.0 L 54.0,-66.0 L 32.99999999999999,-66.0" style="stroke:black;fill:none;stroke-width:2.0;stroke-linecap:round;stroke-linejoin:round;" /><path d="M 1.102182119232618e-15,-18.0 L 27.0,-18.0 L 54.0,-18.0" style="stroke:black;fill:none;stroke-width:2.0;stroke-linecap:round;stroke-linejoin:round;" /><path d="M 54.0,-18.0 L 54.0,-41.99999999999999 L 54.0,-66.0" style="stroke:black;fill:none;stroke-width:2.0;stroke-linecap:round;stroke-linejoin:round;" /><g><g><g><path d="M 13.04 33.576 L 13.04 33.576 L 8.768 33.576 L 8.864 33.096 Q 9.456 33.096 9.768 32.984 Q 10.08 32.872 10.24 32.56 Q 10.4 32.248 10.512 31.672 L 11.936 24.76 L 11.872 24.76 L 6.496 33.576 L 6.144 33.576 L 4.208 24.776 L 4.144 24.776 L 2.816 31.24 Q 2.656 32.056 2.68 32.456 Q 2.704 32.856 2.992 32.976 Q 3.28 33.096 3.888 33.096 L 3.792 33.576 L 0.096 33.576 L 0.192 33.096 Q 0.816 33.096 1.152 32.976 Q 1.488 32.856 1.68 32.456 Q 1.872 32.056 2.032 31.24 L 3.296 25.016 Q 3.424 24.408 3.376 24.096 Q 3.328 23.784 3.032 23.664 Q 2.736 23.544 2.096 23.544 L 2.192 23.064 L 5.392 23.064 L 7.12 31.16 L 7.184 31.16 L 12.064 23.064 L 15.088 23.064 L 14.992 23.544 Q 14.432 23.544 14.104 23.664 Q 13.776 23.784 13.6 24.096 Q 13.424 24.408 13.296 25 L 11.936 31.672 Q 11.76 32.552 12.024 32.824 Q 12.288 33.096 13.136 33.096 Z " fill="black" /><path d="M 19.859 36.936 L 19.859 36.936 L 15.984 36.936 L 15.984 36.622 Q 16.779 36.622 17.104 36.454 Q 17.429 36.286 17.429 35.872 L 17.429 31.134 Q 17.429 30.843 17.35 30.714 Q 17.272 30.586 17.059 30.586 Q 16.891 30.586 16.533 30.63 Q 16.174 30.675 15.917 30.765 L 15.917 30.395 L 18.09 29.779 L 18.414 29.779 L 18.414 35.872 Q 18.414 36.286 18.75 36.454 Q 19.086 36.622 19.859 36.622 Z " fill="black" /></g></g></g><circle cx="54.0" cy="78.0" r="2.6999999999999997" style="stroke:black;fill:black;stroke-width:2.0;" /><g><g><g><path d="M 67.04 129.503 L 67.04 129.503 L 62.768 129.503 L 62.864 129.023 Q 63.456 129.023 63.768 128.911 Q 64.08 128.799 64.24 128.487 Q 64.4 128.175 64.512 127.599 L 65.936 120.687 L 65.872 120.687 L 60.496 129.503 L 60.144 129.503 L 58.208 120.703 L 58.144 120.703 L 56.816 127.167 Q 56.656 127.983 56.68 128.383 Q 56.704 128.783 56.992 128.903 Q 57.28 129.023 57.888 129.023 L 57.792 129.503 L 54.096 129.503 L 54.192 129.023 Q 54.816 129.023 55.152 128.903 Q 55.488 128.783 55.68 128.383 Q 55.872 127.983 56.032 127.167 L 57.296 120.943 Q 57.424 120.335 57.376 120.023 Q 57.328 119.711 57.032 119.591 Q 56.736 119.471 56.096 119.471 L 56.192 118.991 L 59.392 118.991 L 61.12 127.087 L 61.184 127.087 L 66.064 118.991 L 69.088 118.991 L 68.992 119.471 Q 68.432 119.471 68.104 119.591 Q 67.776 119.711 67.6 120.023 Q 67.424 120.335 67.296 120.927 L 65.936 127.599 Q 65.76 128.479 66.024 128.751 Q 66.288 129.023 67.136 129.023 Z " fill="black" /><path d="M 73.758 126.714 L 73.758 126.714 L 71.126 126.714 L 70.824 127.991 L 71.35 128.025 Q 71.843 128.058 72.325 128.193 Q 72.806 128.327 73.198 128.596 Q 73.59 128.865 73.82 129.307 Q 74.05 129.75 74.05 130.41 Q 74.05 131.273 73.669 131.85 Q 73.288 132.426 72.61 132.718 Q 71.933 133.009 71.037 133.009 Q 69.749 133.009 69.749 132.382 Q 69.749 132.191 69.866 132.046 Q 69.984 131.9 70.197 131.9 Q 70.421 131.9 70.639 132.034 Q 70.858 132.169 71.115 132.309 Q 71.373 132.449 71.731 132.449 Q 72.134 132.449 72.476 132.292 Q 72.818 132.135 73.025 131.788 Q 73.232 131.441 73.232 130.858 Q 73.232 129.806 72.605 129.391 Q 71.978 128.977 70.813 128.921 Q 70.6 128.898 70.516 128.898 Q 70.432 128.898 70.309 128.898 L 70.174 128.73 L 70.869 125.807 L 73.938 125.807 Z " fill="black" /></g></g></g><g><g><g><path d="M -167.56 129.509 L -167.56 129.509 L -171.832 129.509 L -171.736 129.029 Q -171.144 129.029 -170.832 128.917 Q -170.52 128.805 -170.36 128.493 Q -170.2 128.181 -170.088 127.605 L -168.664 120.693 L -168.728 120.693 L -174.104 129.509 L -174.456 129.509 L -176.392 120.709 L -176.456 120.709 L -177.784 127.173 Q -177.944 127.989 -177.92 128.389 Q -177.896 128.789 -177.608 128.909 Q -177.32 129.029 -176.712 129.029 L -176.808 129.509 L -180.504 129.509 L -180.408 129.029 Q -179.784 129.029 -179.448 128.909 Q -179.112 128.789 -178.92 128.389 Q -178.728 127.989 -178.568 127.173 L -177.304 120.949 Q -177.176 120.341 -177.224 120.029 Q -177.272 119.717 -177.568 119.597 Q -177.864 119.477 -178.504 119.477 L -178.408 118.997 L -175.208 118.997 L -173.48 127.093 L -173.416 127.093 L -168.536 118.997 L -165.512 118.997 L -165.608 119.477 Q -166.168 119.477 -166.496 119.597 Q -166.824 119.717 -167 120.029 Q -167.176 120.341 -167.304 120.933 L -168.664 127.605 Q -168.84 128.485 -168.576 128.757 Q -168.312 129.029 -167.464 129.029 Z " fill="black" /><path d="M -160.864 125.634 L -160.864 125.634 L -160.842 125.958 Q -161.626 126.07 -162.275 126.462 Q -162.925 126.854 -163.362 127.482 Q -163.798 128.109 -163.944 128.926 L -163.866 128.938 Q -163.518 128.602 -163.182 128.422 Q -162.846 128.243 -162.41 128.243 Q -161.491 128.243 -160.942 128.87 Q -160.394 129.498 -160.394 130.595 Q -160.394 131.738 -160.97 132.37 Q -161.547 133.003 -162.611 133.003 Q -163.44 133.003 -163.972 132.594 Q -164.504 132.186 -164.756 131.497 Q -165.008 130.808 -165.008 129.99 Q -165.008 128.635 -164.476 127.683 Q -163.944 126.731 -163.003 126.205 Q -162.062 125.678 -160.864 125.634 Z M -161.368 130.685 L -161.368 130.685 Q -161.368 129.923 -161.71 129.408 Q -162.051 128.893 -162.746 128.893 Q -163.07 128.893 -163.356 129.022 Q -163.642 129.15 -163.821 129.442 Q -164 129.733 -164 130.226 Q -164 130.92 -163.843 131.458 Q -163.686 131.995 -163.367 132.303 Q -163.048 132.611 -162.566 132.611 Q -162.006 132.611 -161.687 132.18 Q -161.368 131.749 -161.368 130.685 Z " fill="black" /></g></g></g><circle cx="-156.0" cy="77.99999999999997" r="2.6999999999999997" style="stroke:black;fill:black;stroke-width:2.0;" /><g><g><g><path d="M -201.302 -10.582 L -201.302 -10.582 L -199.99 -16.886 Q -199.846 -17.51 -199.854 -17.87 Q -199.862 -18.23 -200.15 -18.374 Q -200.438 -18.518 -201.174 -18.518 L -201.078 -18.998 L -196.646 -18.998 L -196.742 -18.518 Q -197.446 -18.518 -197.798 -18.374 Q -198.15 -18.23 -198.294 -17.87 Q -198.438 -17.51 -198.566 -16.886 L -199.878 -10.518 Q -199.926 -10.262 -199.958 -10.054 Q -199.99 -9.846 -199.99 -9.67 Q -199.99 -9.222 -199.726 -9.094 Q -199.462 -8.966 -198.71 -8.966 L -198.806 -8.486 L -203.174 -8.486 L -203.078 -8.966 Q -202.422 -8.966 -202.094 -9.078 Q -201.766 -9.19 -201.606 -9.534 Q -201.446 -9.878 -201.302 -10.582 Z " fill="black" /><path d="M -194.821 -13.033 L -194.821 -13.033 L -194.821 -9.606 L -194.787 -9.606 Q -194.496 -9.964 -194.059 -10.261 Q -193.622 -10.558 -193.062 -10.558 Q -192.502 -10.558 -192.082 -10.238 Q -191.662 -9.919 -191.427 -9.359 Q -191.192 -8.799 -191.192 -8.071 Q -191.192 -7.074 -191.539 -6.391 Q -191.886 -5.708 -192.491 -5.361 Q -193.096 -5.014 -193.88 -5.014 Q -194.597 -5.014 -195.073 -5.182 Q -195.549 -5.35 -195.75 -5.462 L -195.75 -11.756 Q -195.75 -12.137 -195.834 -12.243 Q -195.918 -12.35 -196.243 -12.35 Q -196.378 -12.35 -196.467 -12.338 Q -196.557 -12.327 -196.557 -12.327 L -196.557 -12.641 L -195.112 -13.033 Z M -194.821 -9.113 L -194.821 -9.113 L -194.821 -5.999 Q -194.664 -5.809 -194.395 -5.641 Q -194.126 -5.473 -193.678 -5.473 Q -193.141 -5.473 -192.822 -5.775 Q -192.502 -6.078 -192.357 -6.587 Q -192.211 -7.097 -192.211 -7.713 Q -192.211 -8.25 -192.323 -8.726 Q -192.435 -9.202 -192.726 -9.499 Q -193.018 -9.796 -193.555 -9.796 Q -193.981 -9.796 -194.322 -9.555 Q -194.664 -9.314 -194.821 -9.113 Z " fill="black" /><path d="M -187.922 -5.439 L -187.922 -5.439 L -187.922 -5.126 L -190.442 -5.126 L -190.442 -5.439 Q -190.061 -5.439 -189.898 -5.512 Q -189.736 -5.585 -189.697 -5.764 Q -189.658 -5.943 -189.658 -6.257 L -189.658 -9.382 Q -189.658 -9.74 -189.781 -9.824 Q -189.904 -9.908 -190.15 -9.908 Q -190.262 -9.908 -190.346 -9.897 Q -190.43 -9.886 -190.43 -9.886 L -190.43 -10.21 L -189.019 -10.524 L -188.728 -10.524 L -188.728 -6.257 Q -188.728 -5.932 -188.683 -5.753 Q -188.638 -5.574 -188.465 -5.506 Q -188.291 -5.439 -187.922 -5.439 Z M -189.176 -12.663 L -189.176 -12.663 Q -188.885 -12.663 -188.711 -12.478 Q -188.538 -12.294 -188.538 -12.036 Q -188.538 -11.778 -188.711 -11.588 Q -188.885 -11.398 -189.176 -11.398 Q -189.456 -11.398 -189.635 -11.588 Q -189.814 -11.778 -189.814 -12.036 Q -189.814 -12.294 -189.641 -12.478 Q -189.467 -12.663 -189.176 -12.663 Z " fill="black" /><path d="M -184.158 -5.82 L -184.158 -5.82 L -184.203 -5.82 Q -184.595 -5.473 -184.954 -5.26 Q -185.312 -5.047 -185.85 -5.047 Q -186.499 -5.047 -186.841 -5.406 Q -187.182 -5.764 -187.182 -6.302 Q -187.182 -6.75 -186.975 -7.058 Q -186.768 -7.366 -186.426 -7.578 Q -186.085 -7.791 -185.687 -7.937 Q -185.29 -8.082 -184.909 -8.183 Q -184.528 -8.284 -184.237 -8.374 L -184.237 -8.866 Q -184.237 -9.594 -184.489 -9.902 Q -184.741 -10.21 -185.245 -10.21 Q -185.726 -10.21 -185.861 -10.009 Q -185.995 -9.807 -185.995 -9.303 Q -185.995 -8.788 -186.488 -8.788 Q -186.656 -8.788 -186.807 -8.917 Q -186.958 -9.046 -186.958 -9.326 Q -186.958 -9.639 -186.718 -9.919 Q -186.477 -10.199 -186.034 -10.378 Q -185.592 -10.558 -184.987 -10.558 Q -184.069 -10.558 -183.688 -10.132 Q -183.307 -9.706 -183.307 -8.833 L -183.307 -6.29 Q -183.307 -5.943 -183.229 -5.842 Q -183.15 -5.742 -182.971 -5.742 Q -182.814 -5.742 -182.686 -5.82 Q -182.557 -5.898 -182.445 -6.022 L -182.277 -5.842 Q -182.557 -5.439 -182.809 -5.254 Q -183.061 -5.07 -183.486 -5.07 Q -183.856 -5.07 -183.979 -5.26 Q -184.102 -5.45 -184.158 -5.82 Z M -184.237 -6.156 L -184.237 -6.156 L -184.237 -8.004 Q -184.741 -7.881 -185.189 -7.713 Q -185.637 -7.545 -185.917 -7.276 Q -186.197 -7.007 -186.197 -6.57 Q -186.197 -6.156 -185.973 -5.91 Q -185.749 -5.663 -185.39 -5.663 Q -184.83 -5.663 -184.237 -6.156 Z " fill="black" /><path d="M -181.795 -6.962 L -181.795 -6.962 L -181.504 -6.962 Q -181.325 -6.1 -180.978 -5.758 Q -180.63 -5.417 -180.014 -5.417 Q -179.589 -5.417 -179.32 -5.59 Q -179.051 -5.764 -179.051 -6.156 Q -179.051 -6.425 -179.146 -6.604 Q -179.242 -6.783 -179.51 -6.968 Q -179.779 -7.153 -180.306 -7.41 Q -181.067 -7.802 -181.426 -8.166 Q -181.784 -8.53 -181.784 -9.146 Q -181.784 -9.841 -181.286 -10.199 Q -180.787 -10.558 -180.07 -10.558 Q -179.645 -10.558 -179.376 -10.462 Q -179.107 -10.367 -178.894 -10.266 L -178.883 -10.266 L -178.693 -10.502 L -178.469 -10.502 L -178.435 -8.788 L -178.738 -8.788 Q -178.917 -9.583 -179.242 -9.88 Q -179.566 -10.177 -180.082 -10.177 Q -180.462 -10.177 -180.726 -9.998 Q -180.989 -9.818 -180.989 -9.438 Q -180.989 -9.113 -180.686 -8.855 Q -180.384 -8.598 -179.678 -8.239 Q -178.917 -7.836 -178.514 -7.461 Q -178.11 -7.086 -178.11 -6.458 Q -178.11 -5.932 -178.368 -5.613 Q -178.626 -5.294 -179.057 -5.148 Q -179.488 -5.002 -179.992 -5.002 Q -180.474 -5.002 -180.759 -5.103 Q -181.045 -5.204 -181.269 -5.294 L -181.291 -5.294 L -181.526 -5.036 L -181.762 -5.036 Z " fill="black" /></g></g></g><circle cx="-102.0" cy="125.99999999999999" r="2.6999999999999997" style="stroke:black;fill:black;stroke-width:2.0;" /><g><g><g><path d="M 96.44 33.576 L 96.44 33.576 L 92.168 33.576 L 92.264 33.096 Q 92.856 33.096 93.168 32.984 Q 93.48 32.872 93.64 32.56 Q 93.8 32.248 93.912 31.672 L 95.336 24.76 L 95.272 24.76 L 89.896 33.576 L 89.544 33.576 L 87.608 24.776 L 87.544 24.776 L 86.216 31.24 Q 86.056 32.056 86.08 32.456 Q 86.104 32.856 86.392 32.976 Q 86.68 33.096 87.288 33.096 L 87.192 33.576 L 83.496 33.576 L 83.592 33.096 Q 84.216 33.096 84.552 32.976 Q 84.888 32.856 85.08 32.456 Q 85.272 32.056 85.432 31.24 L 86.696 25.016 Q 86.824 24.408 86.776 24.096 Q 86.728 23.784 86.432 23.664 Q 86.136 23.544 85.496 23.544 L 85.592 23.064 L 88.792 23.064 L 90.52 31.16 L 90.584 31.16 L 95.464 23.064 L 98.488 23.064 L 98.392 23.544 Q 97.832 23.544 97.504 23.664 Q 97.176 23.784 97 24.096 Q 96.824 24.408 96.696 25 L 95.336 31.672 Q 95.16 32.552 95.424 32.824 Q 95.688 33.096 96.536 33.096 Z " fill="black" /><path d="M 103.685 35.144 L 103.685 35.144 L 103.326 36.936 L 98.914 36.936 L 98.914 36.555 L 100.616 34.853 Q 101.176 34.282 101.546 33.817 Q 101.915 33.352 102.1 32.882 Q 102.285 32.411 102.285 31.829 Q 102.285 31.202 101.91 30.826 Q 101.534 30.451 100.885 30.451 Q 100.336 30.451 99.95 30.686 Q 99.563 30.922 99.25 31.549 L 98.981 31.437 Q 99.238 30.619 99.798 30.171 Q 100.358 29.723 101.176 29.723 Q 101.814 29.723 102.296 29.964 Q 102.778 30.205 103.052 30.636 Q 103.326 31.067 103.326 31.661 Q 103.326 32.154 103.119 32.607 Q 102.912 33.061 102.503 33.542 Q 102.094 34.024 101.501 34.629 L 100.022 36.029 L 100.022 36.085 L 100.806 36.051 L 102.363 36.051 Q 102.811 36.051 102.99 35.85 Q 103.17 35.648 103.36 35.144 Z " fill="black" /></g></g></g><circle cx="-50.99999999999999" cy="29.999999999999993" r="2.6999999999999997" style="stroke:black;fill:white;stroke-width:2.0;" /><g><g><g><path d="M -79.546 30.344 L -79.546 30.344 L -75.178 23.784 Q -74.954 23.464 -74.818 23.192 Q -74.682 22.92 -74.682 22.728 Q -74.682 22.488 -74.89 22.4 Q -75.098 22.312 -75.642 22.312 L -75.61 21.832 L -72.154 21.832 L -72.186 22.312 Q -72.618 22.312 -72.922 22.44 Q -73.226 22.568 -73.538 22.928 Q -73.85 23.288 -74.346 24.024 L -80.218 32.424 L -80.746 32.424 L -81.642 23.768 Q -81.738 22.968 -81.994 22.64 Q -82.25 22.312 -82.89 22.312 L -82.858 21.832 L -78.938 21.832 L -78.986 22.312 Q -79.594 22.312 -79.946 22.552 Q -80.298 22.792 -80.266 23.336 Q -80.266 23.416 -80.242 23.624 Q -80.218 23.832 -80.218 23.912 L -79.738 28.472 L -79.626 30.344 Z " fill="black" /><path d="M -71.164 35.39 L -71.164 35.39 L -71.164 35.704 L -73.684 35.704 L -73.684 35.39 Q -73.303 35.39 -73.141 35.318 Q -72.978 35.245 -72.939 35.066 Q -72.9 34.886 -72.9 34.573 L -72.9 31.448 Q -72.9 31.09 -73.023 31.006 Q -73.146 30.922 -73.393 30.922 Q -73.505 30.922 -73.589 30.933 Q -73.673 30.944 -73.673 30.944 L -73.673 30.619 L -72.262 30.306 L -71.97 30.306 L -71.97 34.573 Q -71.97 34.898 -71.926 35.077 Q -71.881 35.256 -71.707 35.323 Q -71.534 35.39 -71.164 35.39 Z M -72.418 28.166 L -72.418 28.166 Q -72.127 28.166 -71.954 28.351 Q -71.78 28.536 -71.78 28.794 Q -71.78 29.051 -71.954 29.242 Q -72.127 29.432 -72.418 29.432 Q -72.698 29.432 -72.878 29.242 Q -73.057 29.051 -73.057 28.794 Q -73.057 28.536 -72.883 28.351 Q -72.71 28.166 -72.418 28.166 Z " fill="black" /><path d="M -65.463 32.266 L -65.463 32.266 L -65.463 34.573 Q -65.463 34.886 -65.413 35.066 Q -65.362 35.245 -65.183 35.318 Q -65.004 35.39 -64.634 35.39 L -64.634 35.704 L -67.222 35.704 L -67.222 35.39 Q -66.818 35.39 -66.645 35.318 Q -66.471 35.245 -66.432 35.066 Q -66.393 34.886 -66.393 34.573 L -66.393 32.546 Q -66.393 31.874 -66.544 31.538 Q -66.695 31.202 -66.93 31.095 Q -67.166 30.989 -67.423 30.989 Q -67.871 30.989 -68.196 31.23 Q -68.521 31.47 -68.778 31.694 L -68.778 34.573 Q -68.778 34.886 -68.734 35.066 Q -68.689 35.245 -68.51 35.318 Q -68.33 35.39 -67.927 35.39 L -67.927 35.704 L -70.492 35.704 L -70.492 35.39 Q -70.111 35.39 -69.949 35.318 Q -69.786 35.245 -69.747 35.066 Q -69.708 34.886 -69.708 34.573 L -69.708 31.426 Q -69.708 31.123 -69.831 31.028 Q -69.954 30.933 -70.178 30.933 Q -70.324 30.933 -70.402 30.944 Q -70.481 30.955 -70.481 30.955 L -70.481 30.63 L -69.058 30.306 L -68.801 30.306 L -68.812 31.213 L -68.767 31.213 Q -68.308 30.81 -67.899 30.541 Q -67.49 30.272 -66.964 30.272 Q -66.202 30.272 -65.833 30.787 Q -65.463 31.302 -65.463 32.266 Z " fill="black" /><path d="M -63.615 37.182 L -63.615 37.182 L -63.75 36.902 Q -63.537 36.813 -63.324 36.673 Q -63.111 36.533 -62.966 36.264 Q -62.82 35.995 -62.82 35.547 Q -62.999 35.614 -63.167 35.614 Q -63.492 35.614 -63.638 35.435 Q -63.783 35.256 -63.783 35.01 Q -63.783 34.741 -63.604 34.545 Q -63.425 34.349 -63.089 34.349 Q -62.663 34.349 -62.445 34.612 Q -62.226 34.875 -62.226 35.334 Q -62.226 35.805 -62.378 36.13 Q -62.529 36.454 -62.753 36.656 Q -62.977 36.858 -63.212 36.981 Q -63.447 37.104 -63.615 37.182 Z " fill="black" /><path d="M -60.255 30.306 L -60.255 30.306 L -60.255 31.246 L -60.222 31.246 Q -59.818 30.776 -59.398 30.524 Q -58.978 30.272 -58.486 30.272 Q -57.926 30.272 -57.506 30.591 Q -57.086 30.91 -56.845 31.476 Q -56.604 32.042 -56.604 32.781 Q -56.604 33.733 -56.934 34.41 Q -57.265 35.088 -57.825 35.452 Q -58.385 35.816 -59.057 35.816 Q -59.37 35.816 -59.656 35.743 Q -59.942 35.67 -60.188 35.502 L -60.233 35.502 L -60.233 36.97 Q -60.233 37.328 -60.143 37.518 Q -60.054 37.709 -59.818 37.776 Q -59.583 37.843 -59.146 37.843 L -59.146 38.168 L -61.98 38.168 L -61.98 37.854 Q -61.454 37.854 -61.308 37.681 Q -61.162 37.507 -61.162 37.037 L -61.162 31.493 Q -61.162 31.168 -61.235 31.045 Q -61.308 30.922 -61.588 30.922 Q -61.7 30.922 -61.823 30.933 Q -61.946 30.944 -61.946 30.944 L -61.946 30.619 L -60.535 30.306 Z M -60.233 31.717 L -60.233 31.717 L -60.233 34.64 Q -60.121 34.752 -59.953 34.931 Q -59.785 35.11 -59.55 35.245 Q -59.314 35.379 -59.001 35.379 Q -58.407 35.379 -58.015 34.819 Q -57.623 34.259 -57.623 33.094 Q -57.623 32.03 -57.97 31.532 Q -58.318 31.034 -58.945 31.034 Q -59.393 31.034 -59.734 31.269 Q -60.076 31.504 -60.233 31.717 Z " fill="black" /></g></g></g><circle cx="158.99999999999997" cy="29.999999999999996" r="2.6999999999999997" style="stroke:black;fill:white;stroke-width:2.0;" /><g><g><g><path d="M 169.732 30.837 L 169.732 30.837 L 174.1 24.277 Q 174.324 23.957 174.46 23.685 Q 174.596 23.413 174.596 23.221 Q 174.596 22.981 174.388 22.893 Q 174.18 22.805 173.636 22.805 L 173.668 22.325 L 177.124 22.325 L 177.092 22.805 Q 176.66 22.805 176.356 22.933 Q 176.052 23.061 175.74 23.421 Q 175.428 23.781 174.932 24.517 L 169.06 32.917 L 168.532 32.917 L 167.636 24.261 Q 167.54 23.461 167.284 23.133 Q 167.028 22.805 166.388 22.805 L 166.42 22.325 L 170.34 22.325 L 170.292 22.805 Q 169.684 22.805 169.332 23.045 Q 168.98 23.285 169.012 23.829 Q 169.012 23.909 169.036 24.117 Q 169.06 24.325 169.06 24.405 L 169.54 28.965 L 169.652 30.837 Z " fill="black" /><path d="M 178.114 35.883 L 178.114 35.883 L 178.114 36.197 L 175.594 36.197 L 175.594 35.883 Q 175.975 35.883 176.138 35.81 Q 176.3 35.738 176.339 35.558 Q 176.378 35.379 176.378 35.066 L 176.378 31.941 Q 176.378 31.582 176.255 31.498 Q 176.132 31.414 175.886 31.414 Q 175.774 31.414 175.69 31.426 Q 175.606 31.437 175.606 31.437 L 175.606 31.112 L 177.017 30.798 L 177.308 30.798 L 177.308 35.066 Q 177.308 35.39 177.353 35.57 Q 177.398 35.749 177.571 35.816 Q 177.745 35.883 178.114 35.883 Z M 176.86 28.659 L 176.86 28.659 Q 177.151 28.659 177.325 28.844 Q 177.498 29.029 177.498 29.286 Q 177.498 29.544 177.325 29.734 Q 177.151 29.925 176.86 29.925 Q 176.58 29.925 176.401 29.734 Q 176.222 29.544 176.222 29.286 Q 176.222 29.029 176.395 28.844 Q 176.569 28.659 176.86 28.659 Z " fill="black" /><path d="M 183.815 32.758 L 183.815 32.758 L 183.815 35.066 Q 183.815 35.379 183.866 35.558 Q 183.916 35.738 184.095 35.81 Q 184.274 35.883 184.644 35.883 L 184.644 36.197 L 182.057 36.197 L 182.057 35.883 Q 182.46 35.883 182.634 35.81 Q 182.807 35.738 182.846 35.558 Q 182.886 35.379 182.886 35.066 L 182.886 33.038 Q 182.886 32.366 182.734 32.03 Q 182.583 31.694 182.348 31.588 Q 182.113 31.482 181.855 31.482 Q 181.407 31.482 181.082 31.722 Q 180.758 31.963 180.5 32.187 L 180.5 35.066 Q 180.5 35.379 180.545 35.558 Q 180.59 35.738 180.769 35.81 Q 180.948 35.883 181.351 35.883 L 181.351 36.197 L 178.786 36.197 L 178.786 35.883 Q 179.167 35.883 179.33 35.81 Q 179.492 35.738 179.531 35.558 Q 179.57 35.379 179.57 35.066 L 179.57 31.918 Q 179.57 31.616 179.447 31.521 Q 179.324 31.426 179.1 31.426 Q 178.954 31.426 178.876 31.437 Q 178.798 31.448 178.798 31.448 L 178.798 31.123 L 180.22 30.798 L 180.478 30.798 L 180.466 31.706 L 180.511 31.706 Q 180.97 31.302 181.379 31.034 Q 181.788 30.765 182.314 30.765 Q 183.076 30.765 183.446 31.28 Q 183.815 31.795 183.815 32.758 Z " fill="black" /><path d="M 185.663 37.675 L 185.663 37.675 L 185.529 37.395 Q 185.742 37.306 185.954 37.166 Q 186.167 37.026 186.313 36.757 Q 186.458 36.488 186.458 36.04 Q 186.279 36.107 186.111 36.107 Q 185.786 36.107 185.641 35.928 Q 185.495 35.749 185.495 35.502 Q 185.495 35.234 185.674 35.038 Q 185.854 34.842 186.19 34.842 Q 186.615 34.842 186.834 35.105 Q 187.052 35.368 187.052 35.827 Q 187.052 36.298 186.901 36.622 Q 186.75 36.947 186.526 37.149 Q 186.302 37.35 186.066 37.474 Q 185.831 37.597 185.663 37.675 Z " fill="black" /><path d="M 192.439 32.758 L 192.439 32.758 L 192.439 35.066 Q 192.439 35.379 192.49 35.558 Q 192.54 35.738 192.719 35.81 Q 192.898 35.883 193.268 35.883 L 193.268 36.197 L 190.681 36.197 L 190.681 35.883 Q 191.084 35.883 191.258 35.81 Q 191.431 35.738 191.47 35.558 Q 191.51 35.379 191.51 35.066 L 191.51 33.038 Q 191.51 32.366 191.358 32.03 Q 191.207 31.694 190.972 31.588 Q 190.737 31.482 190.479 31.482 Q 190.031 31.482 189.706 31.722 Q 189.382 31.963 189.124 32.187 L 189.124 35.066 Q 189.124 35.379 189.169 35.558 Q 189.214 35.738 189.393 35.81 Q 189.572 35.883 189.975 35.883 L 189.975 36.197 L 187.41 36.197 L 187.41 35.883 Q 187.791 35.883 187.954 35.81 Q 188.116 35.738 188.155 35.558 Q 188.194 35.379 188.194 35.066 L 188.194 31.918 Q 188.194 31.616 188.071 31.521 Q 187.948 31.426 187.724 31.426 Q 187.578 31.426 187.5 31.437 Q 187.422 31.448 187.422 31.448 L 187.422 31.123 L 188.844 30.798 L 189.102 30.798 L 189.09 31.706 L 189.135 31.706 Q 189.594 31.302 190.003 31.034 Q 190.412 30.765 190.938 30.765 Q 191.7 30.765 192.07 31.28 Q 192.439 31.795 192.439 32.758 Z " fill="black" /></g></g></g><circle cx="1.102182119232618e-15" cy="-18.0" r="2.6999999999999997" style="stroke:black;fill:black;stroke-width:2.0;" /><g><g><g><path d="M -11.56 -62.497 L -11.56 -62.497 L -15.832 -62.497 L -15.736 -62.977 Q -15.144 -62.977 -14.832 -63.089 Q -14.52 -63.201 -14.36 -63.513 Q -14.2 -63.825 -14.088 -64.401 L -12.664 -71.313 L -12.728 -71.313 L -18.104 -62.497 L -18.456 -62.497 L -20.392 -71.297 L -20.456 -71.297 L -21.784 -64.833 Q -21.944 -64.017 -21.92 -63.617 Q -21.896 -63.217 -21.608 -63.097 Q -21.32 -62.977 -20.712 -62.977 L -20.808 -62.497 L -24.504 -62.497 L -24.408 -62.977 Q -23.784 -62.977 -23.448 -63.097 Q -23.112 -63.217 -22.92 -63.617 Q -22.728 -64.017 -22.568 -64.833 L -21.304 -71.057 Q -21.176 -71.665 -21.224 -71.977 Q -21.272 -72.289 -21.568 -72.409 Q -21.864 -72.529 -22.504 -72.529 L -22.408 -73.009 L -19.208 -73.009 L -17.48 -64.913 L -17.416 -64.913 L -12.536 -73.009 L -9.512 -73.009 L -9.608 -72.529 Q -10.168 -72.529 -10.496 -72.409 Q -10.824 -72.289 -11 -71.977 Q -11.176 -71.665 -11.304 -71.073 L -12.664 -64.401 Q -12.84 -63.521 -12.576 -63.249 Q -12.312 -62.977 -11.464 -62.977 Z " fill="black" /><path d="M -8.549 -64.714 L -8.549 -64.714 L -8.806 -64.86 Q -8.168 -66.35 -6.779 -66.35 Q -5.917 -66.35 -5.446 -65.918 Q -4.976 -65.487 -4.976 -64.849 Q -4.976 -64.266 -5.318 -63.908 Q -5.659 -63.55 -6.186 -63.214 L -6.186 -63.18 Q -5.738 -63.046 -5.362 -62.794 Q -4.987 -62.542 -4.763 -62.178 Q -4.539 -61.814 -4.539 -61.31 Q -4.539 -60.548 -4.965 -60.027 Q -5.39 -59.506 -6.085 -59.249 Q -6.779 -58.991 -7.597 -58.991 Q -8.101 -58.991 -8.37 -59.086 Q -8.638 -59.182 -8.745 -59.322 Q -8.851 -59.462 -8.851 -59.607 Q -8.851 -59.786 -8.739 -59.943 Q -8.627 -60.1 -8.414 -60.1 Q -8.28 -60.1 -8.162 -60.05 Q -8.045 -59.999 -7.754 -59.842 Q -7.395 -59.663 -7.222 -59.607 Q -7.048 -59.551 -6.846 -59.551 Q -6.488 -59.551 -6.174 -59.68 Q -5.861 -59.809 -5.659 -60.117 Q -5.458 -60.425 -5.458 -60.974 Q -5.458 -61.478 -5.738 -61.847 Q -6.018 -62.217 -6.482 -62.424 Q -6.947 -62.631 -7.485 -62.631 L -7.709 -62.631 L -7.709 -63.057 L -7.496 -63.057 Q -7.115 -63.057 -6.757 -63.247 Q -6.398 -63.438 -6.169 -63.785 Q -5.939 -64.132 -5.939 -64.58 Q -5.939 -65.073 -6.247 -65.347 Q -6.555 -65.622 -7.082 -65.622 Q -7.586 -65.622 -7.922 -65.392 Q -8.258 -65.162 -8.549 -64.714 Z " fill="black" /></g></g></g><circle cx="108.0" cy="-18.0" r="2.6999999999999997" style="stroke:black;fill:black;stroke-width:2.0;" /><circle cx="162.0" cy="-18.0" r="2.6999999999999997" style="stroke:black;fill:white;stroke-width:2.0;" /><g><g><g><path d="M 170.172 -16.576 L 170.172 -16.576 L 171.484 -22.88 Q 171.628 -23.504 171.62 -23.864 Q 171.612 -24.224 171.324 -24.368 Q 171.036 -24.512 170.3 -24.512 L 170.396 -24.992 L 174.828 -24.992 L 174.732 -24.512 Q 174.028 -24.512 173.676 -24.368 Q 173.324 -24.224 173.18 -23.864 Q 173.036 -23.504 172.908 -22.88 L 171.596 -16.512 Q 171.548 -16.256 171.516 -16.048 Q 171.484 -15.84 171.484 -15.664 Q 171.484 -15.216 171.748 -15.088 Q 172.012 -14.96 172.764 -14.96 L 172.668 -14.48 L 168.3 -14.48 L 168.396 -14.96 Q 169.052 -14.96 169.38 -15.072 Q 169.708 -15.184 169.868 -15.528 Q 170.028 -15.872 170.172 -16.576 Z " fill="black" /><path d="M 177.718 -16.552 L 177.718 -16.552 Q 178.871 -16.552 179.538 -15.835 Q 180.204 -15.118 180.204 -13.875 Q 180.204 -12.934 179.885 -12.296 Q 179.566 -11.658 179.006 -11.333 Q 178.446 -11.008 177.718 -11.008 Q 176.542 -11.008 175.875 -11.742 Q 175.209 -12.475 175.209 -13.83 Q 175.209 -14.648 175.522 -15.258 Q 175.836 -15.869 176.402 -16.21 Q 176.967 -16.552 177.718 -16.552 Z M 177.673 -16.126 L 177.673 -16.126 Q 177.034 -16.126 176.642 -15.589 Q 176.25 -15.051 176.25 -13.976 Q 176.25 -12.643 176.648 -12.044 Q 177.046 -11.445 177.762 -11.456 Q 178.222 -11.456 178.535 -11.669 Q 178.849 -11.882 179.011 -12.397 Q 179.174 -12.912 179.174 -13.819 Q 179.174 -14.85 178.798 -15.488 Q 178.423 -16.126 177.673 -16.126 Z " fill="black" /><path d="M 186.633 -11.624 L 186.633 -11.624 L 186.633 -11.322 L 185.21 -11.064 L 184.964 -11.064 L 184.964 -11.926 L 184.908 -11.926 Q 184.46 -11.49 184.034 -11.249 Q 183.609 -11.008 183.071 -11.008 Q 182.377 -11.008 181.99 -11.462 Q 181.604 -11.915 181.604 -13.058 L 181.604 -15.331 Q 181.604 -15.79 181.453 -15.886 Q 181.302 -15.981 180.842 -15.992 L 180.842 -16.306 L 182.287 -16.474 L 182.534 -16.474 L 182.534 -13.203 Q 182.534 -12.352 182.819 -12.038 Q 183.105 -11.725 183.542 -11.725 Q 183.967 -11.725 184.275 -11.915 Q 184.583 -12.106 184.919 -12.397 L 184.919 -15.342 Q 184.919 -15.79 184.734 -15.891 Q 184.55 -15.992 184.012 -15.992 L 184.012 -16.306 L 185.58 -16.474 L 185.849 -16.474 L 185.849 -12.363 Q 185.849 -11.87 185.983 -11.747 Q 186.118 -11.624 186.521 -11.624 Z " fill="black" /><path d="M 190.25 -12.128 L 190.25 -12.128 L 190.463 -11.949 Q 190.25 -11.646 190.066 -11.439 Q 189.881 -11.232 189.657 -11.12 Q 189.433 -11.008 189.074 -11.008 Q 188.514 -11.008 188.257 -11.338 Q 187.999 -11.669 187.999 -12.419 L 187.999 -15.891 L 187.383 -15.891 L 187.383 -16.149 Q 187.775 -16.395 188.061 -16.815 Q 188.346 -17.235 188.649 -17.952 L 188.94 -17.952 L 188.929 -16.362 L 190.194 -16.362 L 190.194 -15.891 L 188.929 -15.891 L 188.929 -12.733 Q 188.929 -12.139 189.035 -11.904 Q 189.142 -11.669 189.466 -11.669 Q 189.735 -11.669 189.886 -11.781 Q 190.038 -11.893 190.25 -12.128 Z " fill="black" /><path d="M 198.385 -22.24 L 198.385 -22.24 Q 200.033 -22.24 200.985 -21.216 Q 201.937 -20.192 201.937 -18.416 Q 201.937 -17.072 201.481 -16.16 Q 201.025 -15.248 200.225 -14.784 Q 199.425 -14.32 198.385 -14.32 Q 196.705 -14.32 195.753 -15.368 Q 194.801 -16.416 194.801 -18.352 Q 194.801 -19.52 195.249 -20.392 Q 195.697 -21.264 196.505 -21.752 Q 197.313 -22.24 198.385 -22.24 Z M 198.321 -21.632 L 198.321 -21.632 Q 197.409 -21.632 196.849 -20.864 Q 196.289 -20.096 196.289 -18.56 Q 196.289 -16.656 196.857 -15.8 Q 197.425 -14.944 198.449 -14.96 Q 199.105 -14.96 199.553 -15.264 Q 200.001 -15.568 200.233 -16.304 Q 200.465 -17.04 200.465 -18.336 Q 200.465 -19.808 199.929 -20.72 Q 199.393 -21.632 198.321 -21.632 Z " fill="black" /><path d="M 205.409 -22.192 L 205.409 -22.192 L 205.409 -20.544 L 205.457 -20.544 Q 206.065 -21.44 206.505 -21.864 Q 206.945 -22.288 207.521 -22.288 Q 207.985 -22.288 208.217 -22.048 Q 208.449 -21.808 208.449 -21.392 Q 208.449 -20.944 208.233 -20.736 Q 208.017 -20.528 207.745 -20.528 Q 207.489 -20.528 207.289 -20.664 Q 207.089 -20.8 206.945 -20.936 Q 206.801 -21.072 206.705 -21.072 Q 206.433 -21.072 206.081 -20.656 Q 205.729 -20.24 205.441 -19.76 L 205.441 -16.112 Q 205.441 -15.616 205.569 -15.36 Q 205.697 -15.104 206.025 -15.024 Q 206.353 -14.944 206.945 -14.944 L 206.945 -14.48 L 202.945 -14.48 L 202.945 -14.944 Q 203.473 -14.944 203.721 -15.032 Q 203.969 -15.12 204.041 -15.352 Q 204.113 -15.584 204.113 -16.032 L 204.113 -20.432 Q 204.113 -20.864 204.041 -21.08 Q 203.969 -21.296 203.537 -21.296 Q 203.297 -21.296 203.169 -21.28 Q 203.041 -21.264 203.041 -21.264 L 203.041 -21.712 L 205.025 -22.192 Z " fill="black" /><path d="M 216.753 -16.48 L 216.753 -16.48 L 221.121 -23.04 Q 221.345 -23.36 221.481 -23.632 Q 221.617 -23.904 221.617 -24.096 Q 221.617 -24.336 221.409 -24.424 Q 221.201 -24.512 220.657 -24.512 L 220.689 -24.992 L 224.145 -24.992 L 224.113 -24.512 Q 223.681 -24.512 223.377 -24.384 Q 223.073 -24.256 222.761 -23.896 Q 222.449 -23.536 221.953 -22.8 L 216.081 -14.4 L 215.553 -14.4 L 214.657 -23.056 Q 214.561 -23.856 214.305 -24.184 Q 214.049 -24.512 213.409 -24.512 L 213.441 -24.992 L 217.361 -24.992 L 217.313 -24.512 Q 216.705 -24.512 216.353 -24.272 Q 216.001 -24.032 216.033 -23.488 Q 216.033 -23.408 216.057 -23.2 Q 216.081 -22.992 216.081 -22.912 L 216.561 -18.352 L 216.673 -16.48 Z " fill="black" /><path d="M 223.482 -16.552 L 223.482 -16.552 Q 224.636 -16.552 225.302 -15.835 Q 225.969 -15.118 225.969 -13.875 Q 225.969 -12.934 225.65 -12.296 Q 225.33 -11.658 224.77 -11.333 Q 224.21 -11.008 223.482 -11.008 Q 222.306 -11.008 221.64 -11.742 Q 220.974 -12.475 220.974 -13.83 Q 220.974 -14.648 221.287 -15.258 Q 221.601 -15.869 222.166 -16.21 Q 222.732 -16.552 223.482 -16.552 Z M 223.438 -16.126 L 223.438 -16.126 Q 222.799 -16.126 222.407 -15.589 Q 222.015 -15.051 222.015 -13.976 Q 222.015 -12.643 222.413 -12.044 Q 222.81 -11.445 223.527 -11.456 Q 223.986 -11.456 224.3 -11.669 Q 224.614 -11.882 224.776 -12.397 Q 224.938 -12.912 224.938 -13.819 Q 224.938 -14.85 224.563 -15.488 Q 224.188 -16.126 223.438 -16.126 Z " fill="black" /><path d="M 232.398 -11.624 L 232.398 -11.624 L 232.398 -11.322 L 230.975 -11.064 L 230.729 -11.064 L 230.729 -11.926 L 230.673 -11.926 Q 230.225 -11.49 229.799 -11.249 Q 229.374 -11.008 228.836 -11.008 Q 228.142 -11.008 227.755 -11.462 Q 227.369 -11.915 227.369 -13.058 L 227.369 -15.331 Q 227.369 -15.79 227.218 -15.886 Q 227.066 -15.981 226.607 -15.992 L 226.607 -16.306 L 228.052 -16.474 L 228.298 -16.474 L 228.298 -13.203 Q 228.298 -12.352 228.584 -12.038 Q 228.87 -11.725 229.306 -11.725 Q 229.732 -11.725 230.04 -11.915 Q 230.348 -12.106 230.684 -12.397 L 230.684 -15.342 Q 230.684 -15.79 230.499 -15.891 Q 230.314 -15.992 229.777 -15.992 L 229.777 -16.306 L 231.345 -16.474 L 231.614 -16.474 L 231.614 -12.363 Q 231.614 -11.87 231.748 -11.747 Q 231.882 -11.624 232.286 -11.624 Z " fill="black" /><path d="M 236.015 -12.128 L 236.015 -12.128 L 236.228 -11.949 Q 236.015 -11.646 235.83 -11.439 Q 235.646 -11.232 235.422 -11.12 Q 235.198 -11.008 234.839 -11.008 Q 234.279 -11.008 234.022 -11.338 Q 233.764 -11.669 233.764 -12.419 L 233.764 -15.891 L 233.148 -15.891 L 233.148 -16.149 Q 233.54 -16.395 233.826 -16.815 Q 234.111 -17.235 234.414 -17.952 L 234.705 -17.952 L 234.694 -16.362 L 235.959 -16.362 L 235.959 -15.891 L 234.694 -15.891 L 234.694 -12.733 Q 234.694 -12.139 234.8 -11.904 Q 234.906 -11.669 235.231 -11.669 Q 235.5 -11.669 235.651 -11.781 Q 235.802 -11.893 236.015 -12.128 Z " fill="black" /></g></g></g><g><g><g><path d="M 121.04 -62.424 L 121.04 -62.424 L 116.768 -62.424 L 116.864 -62.904 Q 117.456 -62.904 117.768 -63.016 Q 118.08 -63.128 118.24 -63.44 Q 118.4 -63.752 118.512 -64.328 L 119.936 -71.24 L 119.872 -71.24 L 114.496 -62.424 L 114.144 -62.424 L 112.208 -71.224 L 112.144 -71.224 L 110.816 -64.76 Q 110.656 -63.944 110.68 -63.544 Q 110.704 -63.144 110.992 -63.024 Q 111.28 -62.904 111.888 -62.904 L 111.792 -62.424 L 108.096 -62.424 L 108.192 -62.904 Q 108.816 -62.904 109.152 -63.024 Q 109.488 -63.144 109.68 -63.544 Q 109.872 -63.944 110.032 -64.76 L 111.296 -70.984 Q 111.424 -71.592 111.376 -71.904 Q 111.328 -72.216 111.032 -72.336 Q 110.736 -72.456 110.096 -72.456 L 110.192 -72.936 L 113.392 -72.936 L 115.12 -64.84 L 115.184 -64.84 L 120.064 -72.936 L 123.088 -72.936 L 122.992 -72.456 Q 122.432 -72.456 122.104 -72.336 Q 121.776 -72.216 121.6 -71.904 Q 121.424 -71.592 121.296 -71 L 119.936 -64.328 Q 119.76 -63.448 120.024 -63.176 Q 120.288 -62.904 121.136 -62.904 Z " fill="black" /><path d="M 128.475 -60.834 L 128.475 -60.834 L 127.333 -60.834 L 127.333 -59.064 L 126.336 -59.064 L 126.336 -60.834 L 123.234 -60.834 L 123.234 -61.539 L 126.65 -66.288 L 127.333 -66.288 L 127.333 -61.606 L 128.475 -61.606 Z M 126.336 -61.606 L 126.336 -61.606 L 126.336 -65.067 L 126.291 -65.067 L 123.85 -61.651 L 123.85 -61.606 Z " fill="black" /></g></g></g><circle cx="54.0" cy="-66.0" r="2.6999999999999997" style="stroke:black;fill:black;stroke-width:2.0;" /></svg>