<svg xmlns="http://www.w3.org/2000/svg" xml:lang="en" height="237.33999999999995pt" width="306.488pt" viewBox="-117.24399999999999 -59.699999999999996 306.488 237.33999999999995"><path d="M 0.0,59.99999999999999 L 0.0,45.0 L -14.999999999999998,45.0 L -14.999999999999998,14.999999999999998 L 0.0,14.999999999999998 L 0.0,-0.0" style="stroke:black;fill:none;stroke-width:2.0;stroke-linecap:round;stroke-linejoin:round;" /><path d="M -9.0,45.0 L -14.999999999999998,45.0" style="stroke:black;fill:none;stroke-width:2.0;stroke-linecap:round;stroke-linejoin:round;" /><path d="M -2.0 45.0 L -9.0 49.5 L -9.0 40.5 Z" style="stroke:black;fill:black;stroke-linecap:butt;stroke-linejoin:miter;" /><path d="M -17.999999999999996,42.0 L -17.999999999999996,17.999999999999996" style="stroke:black;fill:none;stroke-width:2.0;stroke-linecap:round;stroke-linejoin:round;" /><path d="M -32.99999999999999,29.999999999999996 L -17.999999999999996,29.999999999999996" style="stroke:black;fill:none;stroke-width:2.0;stroke-linecap:round;stroke-linejoin:round;" /><path d="M 0.0,59.99999999999999 L -1.6532731788489267e-15,69.0 L -3.3065463576978533e-15,78.0" style="stroke:black;fill:none;stroke-width:2.0;stroke-linecap:round;stroke-linejoin:round;" /><path d="M -3.3065463576978533e-15,78.0 L 17.999999999999996,78.0 L 35.99999999999999,78.0" style="stroke:black;fill:none;stroke-width:2.0;stroke-linecap:round;stroke-linejoin:round;" /><path d="M 35.99999999999999,78.0 L 35.99999999999999,96.0 L 44.99999999999999,99.0 L 26.999999999999993,105.0 L 44.99999999999999,110.99999999999999 L 26.99999999999999,117.0 L 44.999999999999986,123.0 L 26.999999999999986,129.0 L 35.999999999999986,132.0 L 35.999999999999986,149.99999999999997" style="stroke:black;fill:none;stroke-width:2.0;stroke-linecap:round;stroke-linejoin:round;" /><path d="M 35.999999999999986,149.99999999999997 L 35.999999999999986,164.39999999999998 L 26.999999999999986,164.39999999999998 L 44.999999999999986,164.39999999999998 M 29.69999999999998,168.71999999999997 L 42.29999999999998,168.71999999999997 M 34.19999999999998,173.03999999999996 L 37.79999999999998,173.03999999999996" style="stroke:black;fill:none;stroke-width:2.0;stroke-linecap:round;stroke-linejoin:round;" /><path d="M 35.99999999999999,78.0 L 54.0,78.0 L 72.0,78.0" style="stroke:black;fill:none;stroke-width:2.0;stroke-linecap:round;stroke-linejoin:round;" /><path d="M 72.0,78.0 L 72.0,69.0 L 72.0,59.99999999999999" style="stroke:black;fill:none;stroke-width:2.0;stroke-linecap:round;stroke-linejoin:round;" /><path d="M 72.0,-0.0 L 72.0,14.999999999999995 L 87.0,14.999999999999995 L 87.0,45.0 L 72.0,45.0 L 72.0,59.99999999999999" style="stroke:black;fill:none;stroke-width:2.0;stroke-linecap:round;stroke-linejoin:round;" /><path d="M 87.0,45.0 L 81.0,45.0" style="stroke:black;fill:none;stroke-width:2.0;stroke-linecap:round;stroke-linejoin:round;" /><path d="M 74.0 45.0 L 81.0 40.5 L 81.0 49.5 Z" style="stroke:black;fill:black;stroke-linecap:butt;stroke-linejoin:miter;" /><path d="M 90.0,18.0 L 90.0,42.0" style="stroke:black;fill:none;stroke-width:2.0;stroke-linecap:round;stroke-linejoin:round;" /><path d="M 90.0,29.999999999999996 L 105.0,29.999999999999996" style="stroke:black;fill:none;stroke-width:2.0;stroke-linecap:round;stroke-linejoin:round;" /><path d="M -32.99999999999999,29.999999999999996 L -50.99999999999999,29.999999999999993 L -69.0,29.999999999999993" style="stroke:black;fill:none;stroke-width:2.0;stroke-linecap:round;stroke-linejoin:round;" /><path d="M 105.0,29.999999999999996 L 123.0,29.999999999999996 L 141.0,29.999999999999996" style="stroke:black;fill:none;stroke-width:2.0;stroke-linecap:round;stroke-linejoin:round;" /><path d="M 0.0,-0.0 L 1.102182119232618e-15,-18.0 L 2.204364238465236e-15,-36.0" style="stroke:black;fill:none;stroke-width:2.0;stroke-linecap:round;stroke-linejoin:round;" /><path d="M 72.0,-0.0 L 72.0,-18.0 L 72.0,-36.0" style="stroke:black;fill:none;stroke-width:2.0;stroke-linecap:round;stroke-linejoin:round;" /><text x="21.000000000000007" y="23.599999999999998" fill="black" font-size="16" font-family="sans" text-anchor="end"><tspan x="21.000000000000007" dy="16">M1</tspan></text><circle cx="35.99999999999999" cy="78.0" r="2.6999999999999997" style="stroke:black;fill:black;stroke-width:2.0;" /><text x="23.399999999999988" y="107.60000000000001" fill="black" font-size="16" font-family="sans" text-anchor="end"><tspan x="23.399999999999988" dy="16">gtail</tspan></text><text x="68.39999999999999" y="23.599999999999998" fill="black" font-size="16" font-family="sans" text-anchor="end"><tspan x="68.39999999999999" dy="16">M2</tspan></text><circle cx="-69.0" cy="29.999999999999993" r="2.6999999999999997" style="stroke:black;fill:white;stroke-width:2.0;" /><text x="-75.29999999999998" y="23.59999999999999" fill="black" font-size="16" font-family="sans" text-anchor="end"><tspan x="-75.29999999999998" dy="16">Vin,p</tspan></text><circle cx="141.0" cy="29.999999999999996" r="2.6999999999999997" style="stroke:black;fill:white;stroke-width:2.0;" /><text x="147.3" y="23.599999999999998" fill="black" font-size="16" font-family="sans" text-anchor="start"><tspan x="147.3" dy="16">Vin,n</tspan></text><circle cx="2.204364238465236e-15" cy="-36.0" r="2.6999999999999997" style="stroke:black;fill:white;stroke-width:2.0;" /><text x="2.5901279801966517e-15" y="-55.099999999999994" fill="black" font-size="16" font-family="sans" text-anchor="middle"><tspan x="2.5901279801966517e-15" dy="16">Iout,p</tspan></text><circle cx="72.0" cy="-36.0" r="2.6999999999999997" style="stroke:black;fill:white;stroke-width:2.0;" /><text x="72.0" y="-55.099999999999994" fill="black" font-size="16" font-family="sans" text-anchor="middle"><tspan x="72.0" dy="16">Iout,n</tspan></text></svg>