<svg xmlns="http://www.w3.org/2000/svg" xml:lang="en" height="189.19999999999996pt" width="467.808pt" viewBox="-18.568 -40.6 467.808 189.19999999999996"><circle cx="90.0" cy="-0.0" r="18.0" style="stroke:black;fill:none;stroke-width:2.0;stroke-dasharray:-;" /><path d="M 0.0,-0.0 L 18.0,-0.0 L 36.0,-0.0" style="stroke:black;fill:none;stroke-width:2.0;stroke-dasharray:-;stroke-linecap:round;stroke-linejoin:round;" /><path d="M 36.0,-0.0 L 54.0,-0.0 L 63.0,-0.0" style="stroke:black;fill:none;stroke-width:2.0;stroke-dasharray:-;stroke-linecap:round;stroke-linejoin:round;" /><path d="M 70.0 0.0 L 63.0 2.6999999999999997 L 63.0 -2.6999999999999997 Z" style="stroke:black;fill:black;stroke-linecap:butt;stroke-linejoin:miter;" /><path d="M 108.0,-0.0 L 144.0,-0.0 L 171.0,-0.0" style="stroke:black;fill:none;stroke-width:2.0;stroke-dasharray:-;stroke-linecap:round;stroke-linejoin:round;" /><path d="M 178.0 0.0 L 171.0 2.6999999999999997 L 171.0 -2.6999999999999997 Z" style="stroke:black;fill:black;stroke-linecap:butt;stroke-linejoin:miter;" /><path d="M 180.0,-0.0 L 180.0,-36.0 L 288.0,-36.0 L 288.0,36.0 L 180.0,36.0 L 180.0,-0.0" style="stroke:black;fill:none;stroke-width:2.0;stroke-dasharray:-;stroke-linecap:round;stroke-linejoin:round;" /><path d="M 288.0,-0.0 L 324.0,-0.0 L 360.0,-0.0" style="stroke:black;fill:none;stroke-width:2.0;stroke-dasharray:-;stroke-linecap:round;stroke-linejoin:round;" /><path d="M 360.0,-0.0 L 396.0,-0.0 L 432.0,-0.0" style="stroke:black;fill:none;stroke-width:2.0;stroke-dasharray:-;stroke-linecap:round;stroke-linejoin:round;" /><path d="M 360.0,-0.0 L 360.0,54.0 L 360.0,108.0" style="stroke:black;fill:none;stroke-width:2.0;stroke-dasharray:-;stroke-linecap:round;stroke-linejoin:round;" /><path d="M 360.0,108.0 L 324.0,108.0 L 297.0,107.99999999999999" style="stroke:black;fill:none;stroke-width:2.0;stroke-dasharray:-;stroke-linecap:round;stroke-linejoin:round;" /><path d="M 290.0 107.99999999999999 L 297.0 105.29999999999998 L 297.0 110.69999999999999 Z" style="stroke:black;fill:black;stroke-linecap:butt;stroke-linejoin:miter;" /><path d="M 180.0,107.99999999999999 L 180.0,71.99999999999999 L 288.0,71.99999999999999 L 288.0,143.99999999999997 L 180.0,143.99999999999997 L 180.0,107.99999999999999" style="stroke:black;fill:none;stroke-width:2.0;stroke-dasharray:-;stroke-linecap:round;stroke-linejoin:round;" /><path d="M 180.0,107.99999999999999 L 135.0,107.99999999999999 L 90.0,107.99999999999997" style="stroke:black;fill:none;stroke-width:2.0;stroke-dasharray:-;stroke-linecap:round;stroke-linejoin:round;" /><path d="M 90.0,107.99999999999997 L 90.0,80.99999999999997 L 90.0,53.99999999999997" style="stroke:black;fill:none;stroke-width:2.0;stroke-dasharray:-;stroke-linecap:round;stroke-linejoin:round;" /><path d="M 90.0,53.99999999999997 L 90.0,35.999999999999986 L 90.0,27.0" style="stroke:black;fill:none;stroke-width:2.0;stroke-dasharray:-;stroke-linecap:round;stroke-linejoin:round;" /><path d="M 90.0 20.0 L 92.7 27.0 L 87.3 27.0 Z" style="stroke:black;fill:black;stroke-linecap:butt;stroke-linejoin:miter;" /><g><g><g><path d="M 59.264 10.728 L 59.264 10.728 L 55.072 10.728 L 55.072 14.968 L 53.92 14.968 L 53.92 10.728 L 49.728 10.728 L 49.728 9.64 L 53.92 9.64 L 53.92 5.4 L 55.072 5.4 L 55.072 9.64 L 59.264 9.64 Z " fill="black" /></g></g></g><g><g><g><path d="M 92.246 1.743 L 92.246 1.743 L 91.784 4.599 L 84.602 4.599 L 84.602 4.165 L 88.144 -0.091 L 84.616 -4.263 L 84.616 -4.599 L 91.714 -4.599 L 91.798 -2.233 L 91.336 -2.233 Q 91.224 -3.003 91 -3.374 Q 90.776 -3.745 90.37 -3.857 Q 89.964 -3.969 89.292 -3.969 L 86.604 -3.969 L 86.604 -3.871 L 89.25 -0.651 L 89.25 -0.399 L 86.114 3.409 L 86.114 3.479 L 90.09 3.479 Q 90.888 3.479 91.231 3.017 Q 91.574 2.555 91.784 1.743 Z " fill="black" /></g></g></g><g><g><g><path d="M 217.79 -4.259 L 217.79 -4.259 L 217.23 -1.571 L 222.414 -1.571 L 222.974 -4.259 Q 223.118 -4.883 223.126 -5.243 Q 223.134 -5.603 222.87 -5.747 Q 222.606 -5.891 221.886 -5.891 L 221.982 -6.371 L 226.27 -6.371 L 226.174 -5.891 Q 225.47 -5.891 225.142 -5.747 Q 224.814 -5.603 224.686 -5.251 Q 224.558 -4.899 224.414 -4.259 L 223.118 2.045 Q 222.974 2.733 222.99 3.077 Q 223.006 3.421 223.302 3.541 Q 223.598 3.661 224.27 3.661 L 224.174 4.141 L 219.95 4.141 L 220.03 3.661 Q 220.654 3.661 220.95 3.549 Q 221.246 3.437 221.382 3.085 Q 221.518 2.733 221.662 2.045 L 222.286 -0.947 L 217.118 -0.947 L 216.51 2.045 Q 216.366 2.749 216.39 3.093 Q 216.414 3.437 216.71 3.549 Q 217.006 3.661 217.662 3.661 L 217.566 4.141 L 213.182 4.141 L 213.278 3.661 Q 213.918 3.661 214.246 3.557 Q 214.574 3.453 214.742 3.101 Q 214.91 2.749 215.054 2.045 L 216.366 -4.259 Q 216.51 -4.899 216.486 -5.251 Q 216.462 -5.603 216.174 -5.747 Q 215.886 -5.891 215.182 -5.891 L 215.278 -6.371 L 219.678 -6.371 L 219.598 -5.891 Q 218.862 -5.891 218.534 -5.747 Q 218.206 -5.603 218.07 -5.243 Q 217.934 -4.883 217.79 -4.259 Z " fill="black" /><path d="M 229.73 1.621 L 229.73 1.621 Q 230.57 1.621 231.198 1.985 Q 231.825 2.349 232.166 3.004 Q 232.508 3.659 232.508 4.544 Q 232.508 5.608 232.15 6.291 Q 231.791 6.974 231.164 7.305 Q 230.537 7.635 229.73 7.635 Q 228.913 7.635 228.28 7.294 Q 227.647 6.952 227.294 6.269 Q 226.942 5.586 226.942 4.555 Q 226.942 3.682 227.289 3.021 Q 227.636 2.36 228.263 1.99 Q 228.89 1.621 229.73 1.621 Z M 229.708 2.136 L 229.708 2.136 Q 228.969 2.136 228.549 2.735 Q 228.129 3.334 228.129 4.488 Q 228.129 5.91 228.56 6.498 Q 228.991 7.086 229.764 7.086 Q 230.257 7.075 230.604 6.84 Q 230.951 6.605 231.136 6.05 Q 231.321 5.496 231.321 4.544 Q 231.321 3.402 230.929 2.769 Q 230.537 2.136 229.708 2.136 Z " fill="black" /><path d="M 236.551 7.086 L 236.551 7.086 L 236.551 7.501 L 233.718 7.501 L 233.718 7.086 Q 234.11 7.086 234.283 7.008 Q 234.457 6.93 234.502 6.745 Q 234.546 6.56 234.546 6.246 L 234.546 0.333 Q 234.546 -0.026 234.418 -0.104 Q 234.289 -0.182 234.02 -0.182 Q 233.874 -0.182 233.779 -0.166 Q 233.684 -0.149 233.684 -0.149 L 233.684 -0.574 L 235.207 -0.866 L 235.644 -0.866 L 235.644 6.246 Q 235.644 6.571 235.694 6.756 Q 235.745 6.941 235.941 7.014 Q 236.137 7.086 236.551 7.086 Z " fill="black" /><path d="M 237.73 -0.179 L 237.73 -0.179 Q 237.73 -2.851 238.89 -4.739 Q 240.05 -6.627 241.986 -7.635 L 242.242 -7.219 Q 240.498 -6.035 239.77 -4.331 Q 239.042 -2.627 239.042 -0.179 Q 239.042 2.269 239.77 3.973 Q 240.498 5.677 242.242 6.861 L 241.986 7.277 Q 240.05 6.269 238.89 4.381 Q 237.73 2.493 237.73 -0.179 Z " fill="black" /><path d="M 248.77 -3.523 L 248.77 -3.523 L 248.402 -1.027 L 248.018 -1.027 Q 247.986 -1.955 247.594 -2.499 Q 247.202 -3.043 246.498 -3.043 Q 245.874 -3.043 245.602 -2.707 Q 245.33 -2.371 245.33 -2.019 Q 245.33 -1.683 245.562 -1.371 Q 245.794 -1.059 246.146 -0.731 Q 246.498 -0.403 246.85 -0.019 Q 247.362 0.525 247.738 1.045 Q 248.114 1.565 248.114 2.333 Q 248.114 2.797 247.882 3.253 Q 247.65 3.709 247.122 4.013 Q 246.594 4.317 245.682 4.317 Q 244.93 4.317 244.474 4.133 Q 244.018 3.949 243.842 3.885 L 243.794 3.885 L 243.41 4.317 L 243.058 4.317 L 243.474 1.645 L 243.874 1.645 Q 244.002 2.685 244.362 3.229 Q 244.722 3.773 245.538 3.773 Q 246.098 3.773 246.442 3.501 Q 246.786 3.229 246.786 2.605 Q 246.786 1.949 246.426 1.493 Q 246.066 1.037 245.602 0.605 Q 245.282 0.285 244.954 -0.019 Q 244.626 -0.323 244.41 -0.699 Q 244.194 -1.075 244.194 -1.571 Q 244.194 -2.387 244.738 -2.955 Q 245.282 -3.523 246.37 -3.523 Q 247.01 -3.523 247.434 -3.347 Q 247.858 -3.171 248.002 -3.091 L 248.05 -3.091 L 248.466 -3.523 Z " fill="black" /><path d="M 253.89 -0.179 L 253.89 -0.179 Q 253.89 2.493 252.73 4.381 Q 251.57 6.269 249.634 7.277 L 249.378 6.861 Q 251.138 5.677 251.858 3.973 Q 252.578 2.269 252.578 -0.179 Q 252.578 -2.627 251.858 -4.331 Q 251.138 -6.035 249.378 -7.219 L 249.634 -7.635 Q 251.57 -6.627 252.73 -4.739 Q 253.89 -2.851 253.89 -0.179 Z " fill="black" /></g></g></g><g><g><g><path d="M 231.064 107.376 L 231.064 107.376 L 230.984 107.872 Q 230.536 107.872 230.28 107.968 Q 230.024 108.064 229.896 108.328 Q 229.768 108.592 229.672 109.088 L 229.192 111.408 Q 228.216 111.904 227.312 112.2 Q 226.408 112.496 225.128 112.496 Q 223.976 112.496 223.2 112.176 Q 222.424 111.856 221.968 111.304 Q 221.512 110.752 221.312 110.048 Q 221.112 109.344 221.112 108.576 Q 221.112 106.848 221.648 105.536 Q 222.184 104.224 223.088 103.352 Q 223.992 102.48 225.128 102.04 Q 226.264 101.6 227.464 101.6 Q 228.312 101.6 228.784 101.744 Q 229.256 101.888 229.512 102.04 Q 229.768 102.192 229.976 102.192 Q 230.152 102.192 230.296 102.032 Q 230.44 101.872 230.632 101.616 L 231.08 101.616 L 230.344 105.28 L 229.816 105.28 Q 229.864 103.68 229.208 102.984 Q 228.552 102.288 227.32 102.288 Q 226.104 102.288 225.056 103 Q 224.008 103.712 223.376 105.032 Q 222.744 106.352 222.728 108.192 Q 222.728 109.968 223.392 110.88 Q 224.056 111.792 225.512 111.792 Q 226.248 111.792 226.808 111.568 Q 227.368 111.344 227.896 110.992 L 228.232 109.248 Q 228.36 108.672 228.32 108.376 Q 228.28 108.08 228.008 107.976 Q 227.736 107.872 227.128 107.872 L 227.224 107.376 Z " fill="black" /><path d="M 231.992 108 L 231.992 108 Q 231.992 105.328 233.152 103.44 Q 234.312 101.552 236.248 100.544 L 236.504 100.96 Q 234.76 102.144 234.032 103.848 Q 233.304 105.552 233.304 108 Q 233.304 110.448 234.032 112.152 Q 234.76 113.856 236.504 115.04 L 236.248 115.456 Q 234.312 114.448 233.152 112.56 Q 231.992 110.672 231.992 108 Z " fill="black" /><path d="M 243.032 104.656 L 243.032 104.656 L 242.664 107.152 L 242.28 107.152 Q 242.248 106.224 241.856 105.68 Q 241.464 105.136 240.76 105.136 Q 240.136 105.136 239.864 105.472 Q 239.592 105.808 239.592 106.16 Q 239.592 106.496 239.824 106.808 Q 240.056 107.12 240.408 107.448 Q 240.76 107.776 241.112 108.16 Q 241.624 108.704 242 109.224 Q 242.376 109.744 242.376 110.512 Q 242.376 110.976 242.144 111.432 Q 241.912 111.888 241.384 112.192 Q 240.856 112.496 239.944 112.496 Q 239.192 112.496 238.736 112.312 Q 238.28 112.128 238.104 112.064 L 238.056 112.064 L 237.672 112.496 L 237.32 112.496 L 237.736 109.824 L 238.136 109.824 Q 238.264 110.864 238.624 111.408 Q 238.984 111.952 239.8 111.952 Q 240.36 111.952 240.704 111.68 Q 241.048 111.408 241.048 110.784 Q 241.048 110.128 240.688 109.672 Q 240.328 109.216 239.864 108.784 Q 239.544 108.464 239.216 108.16 Q 238.888 107.856 238.672 107.48 Q 238.456 107.104 238.456 106.608 Q 238.456 105.792 239 105.224 Q 239.544 104.656 240.632 104.656 Q 241.272 104.656 241.696 104.832 Q 242.12 105.008 242.264 105.088 L 242.312 105.088 L 242.728 104.656 Z " fill="black" /><path d="M 248.152 108 L 248.152 108 Q 248.152 110.672 246.992 112.56 Q 245.832 114.448 243.896 115.456 L 243.64 115.04 Q 245.4 113.856 246.12 112.152 Q 246.84 110.448 246.84 108 Q 246.84 105.552 246.12 103.848 Q 245.4 102.144 243.64 100.96 L 243.896 100.544 Q 245.832 101.552 246.992 103.44 Q 248.152 105.328 248.152 108 Z " fill="black" /></g></g></g><g><g><g><path d="M 109.528 36.544 L 109.528 36.544 L 99.992 36.544 L 99.992 35.456 L 109.528 35.456 Z " fill="black" /></g></g></g><circle cx="0.0" cy="-0.0" r="2.6999999999999997" style="stroke:black;fill:white;stroke-width:2.0;stroke-dasharray:-;" /><g><g><g><path d="M -5.08 -9.436 L -5.08 -9.436 L -9.384 -9.436 L -9.288 -9.9 L -9.128 -9.9 Q -8.632 -9.9 -8.368 -10.012 Q -8.104 -10.124 -8.104 -10.46 Q -8.104 -10.668 -8.184 -10.964 Q -8.264 -11.26 -8.456 -11.708 L -9.16 -13.26 L -9.448 -14.092 L -9.496 -14.092 L -12.008 -11.372 Q -12.136 -11.244 -12.312 -11.036 Q -12.488 -10.828 -12.624 -10.636 Q -12.76 -10.444 -12.76 -10.316 Q -12.76 -10.108 -12.576 -10.004 Q -12.392 -9.9 -11.8 -9.9 L -11.896 -9.436 L -15.416 -9.436 L -15.336 -9.9 Q -14.92 -9.916 -14.632 -10.02 Q -14.344 -10.124 -14.024 -10.396 Q -13.704 -10.668 -13.224 -11.164 L -9.8 -14.716 L -11.352 -18.108 Q -11.608 -18.668 -11.808 -18.964 Q -12.008 -19.26 -12.296 -19.364 Q -12.584 -19.468 -13.128 -19.468 L -13.032 -19.948 L -8.76 -19.948 L -8.856 -19.468 L -9.032 -19.468 Q -9.48 -19.468 -9.736 -19.356 Q -9.992 -19.244 -9.992 -18.956 Q -9.992 -18.716 -9.8 -18.284 Q -9.608 -17.852 -9.368 -17.244 L -8.792 -15.74 L -8.744 -15.74 L -6.6 -18.108 Q -6.328 -18.428 -6.136 -18.692 Q -5.944 -18.956 -5.944 -19.116 Q -5.944 -19.292 -6.104 -19.38 Q -6.264 -19.468 -6.808 -19.468 L -6.728 -19.948 L -3.064 -19.948 L -3.144 -19.468 Q -3.656 -19.452 -4.008 -19.34 Q -4.36 -19.228 -4.728 -18.932 Q -5.096 -18.636 -5.672 -18.044 L -8.472 -15.164 L -6.408 -10.86 Q -6.136 -10.284 -5.856 -10.1 Q -5.576 -9.916 -4.984 -9.9 Z " fill="black" /><path d="M -2.344 -13.756 L -2.344 -13.756 Q -2.344 -16.428 -1.184 -18.316 Q -0.024 -20.204 1.912 -21.212 L 2.168 -20.796 Q 0.424 -19.612 -0.304 -17.908 Q -1.032 -16.204 -1.032 -13.756 Q -1.032 -11.308 -0.304 -9.604 Q 0.424 -7.9 2.168 -6.716 L 1.912 -6.3 Q -0.024 -7.308 -1.184 -9.196 Q -2.344 -11.084 -2.344 -13.756 Z " fill="black" /><path d="M 8.696 -17.1 L 8.696 -17.1 L 8.328 -14.604 L 7.944 -14.604 Q 7.912 -15.532 7.52 -16.076 Q 7.128 -16.62 6.424 -16.62 Q 5.8 -16.62 5.528 -16.284 Q 5.256 -15.948 5.256 -15.596 Q 5.256 -15.26 5.488 -14.948 Q 5.72 -14.636 6.072 -14.308 Q 6.424 -13.98 6.776 -13.596 Q 7.288 -13.052 7.664 -12.532 Q 8.04 -12.012 8.04 -11.244 Q 8.04 -10.78 7.808 -10.324 Q 7.576 -9.868 7.048 -9.564 Q 6.52 -9.26 5.608 -9.26 Q 4.856 -9.26 4.4 -9.444 Q 3.944 -9.628 3.768 -9.692 L 3.72 -9.692 L 3.336 -9.26 L 2.984 -9.26 L 3.4 -11.932 L 3.8 -11.932 Q 3.928 -10.892 4.288 -10.348 Q 4.648 -9.804 5.464 -9.804 Q 6.024 -9.804 6.368 -10.076 Q 6.712 -10.348 6.712 -10.972 Q 6.712 -11.628 6.352 -12.084 Q 5.992 -12.54 5.528 -12.972 Q 5.208 -13.292 4.88 -13.596 Q 4.552 -13.9 4.336 -14.276 Q 4.12 -14.652 4.12 -15.148 Q 4.12 -15.964 4.664 -16.532 Q 5.208 -17.1 6.296 -17.1 Q 6.936 -17.1 7.36 -16.924 Q 7.784 -16.748 7.928 -16.668 L 7.976 -16.668 L 8.392 -17.1 Z " fill="black" /><path d="M 13.816 -13.756 L 13.816 -13.756 Q 13.816 -11.084 12.656 -9.196 Q 11.496 -7.308 9.56 -6.3 L 9.304 -6.716 Q 11.064 -7.9 11.784 -9.604 Q 12.504 -11.308 12.504 -13.756 Q 12.504 -16.204 11.784 -17.908 Q 11.064 -19.612 9.304 -20.796 L 9.56 -21.212 Q 11.496 -20.204 12.656 -18.316 Q 13.816 -16.428 13.816 -13.756 Z " fill="black" /></g></g></g><circle cx="360.0" cy="-0.0" r="2.6999999999999997" style="stroke:black;fill:black;stroke-width:2.0;stroke-dasharray:-;" /><circle cx="432.0" cy="-0.0" r="2.6999999999999997" style="stroke:black;fill:white;stroke-width:2.0;stroke-dasharray:-;" /><g><g><g><path d="M 429.376 -19.948 L 429.376 -19.948 L 429.28 -19.468 Q 428.8 -19.436 428.456 -19.308 Q 428.112 -19.18 427.744 -18.86 Q 427.376 -18.54 426.848 -17.884 L 423.68 -13.932 L 423.184 -11.532 Q 423.04 -10.828 423.104 -10.484 Q 423.168 -10.14 423.504 -10.028 Q 423.84 -9.916 424.496 -9.916 L 424.416 -9.436 L 419.712 -9.436 L 419.792 -9.916 Q 420.512 -9.916 420.88 -10.02 Q 421.248 -10.124 421.424 -10.476 Q 421.6 -10.828 421.744 -11.532 L 422.224 -13.852 L 420.848 -17.292 Q 420.448 -18.3 420.144 -18.756 Q 419.84 -19.212 419.544 -19.34 Q 419.248 -19.468 418.848 -19.468 L 418.944 -19.948 L 423.072 -19.948 L 422.976 -19.468 Q 422.304 -19.468 422.048 -19.34 Q 421.792 -19.212 421.792 -19.036 Q 421.792 -18.876 421.84 -18.708 Q 421.888 -18.54 421.952 -18.364 L 422.88 -16.028 L 423.312 -14.7 L 423.392 -14.7 L 426.384 -18.412 Q 426.512 -18.572 426.616 -18.756 Q 426.72 -18.94 426.72 -19.1 Q 426.72 -19.276 426.536 -19.372 Q 426.352 -19.468 425.776 -19.468 L 425.872 -19.948 Z " fill="black" /><path d="M 430.096 -13.756 L 430.096 -13.756 Q 430.096 -16.428 431.256 -18.316 Q 432.416 -20.204 434.352 -21.212 L 434.608 -20.796 Q 432.864 -19.612 432.136 -17.908 Q 431.408 -16.204 431.408 -13.756 Q 431.408 -11.308 432.136 -9.604 Q 432.864 -7.9 434.608 -6.716 L 434.352 -6.3 Q 432.416 -7.308 431.256 -9.196 Q 430.096 -11.084 430.096 -13.756 Z " fill="black" /><path d="M 441.136 -17.1 L 441.136 -17.1 L 440.768 -14.604 L 440.384 -14.604 Q 440.352 -15.532 439.96 -16.076 Q 439.568 -16.62 438.864 -16.62 Q 438.24 -16.62 437.968 -16.284 Q 437.696 -15.948 437.696 -15.596 Q 437.696 -15.26 437.928 -14.948 Q 438.16 -14.636 438.512 -14.308 Q 438.864 -13.98 439.216 -13.596 Q 439.728 -13.052 440.104 -12.532 Q 440.48 -12.012 440.48 -11.244 Q 440.48 -10.78 440.248 -10.324 Q 440.016 -9.868 439.488 -9.564 Q 438.96 -9.26 438.048 -9.26 Q 437.296 -9.26 436.84 -9.444 Q 436.384 -9.628 436.208 -9.692 L 436.16 -9.692 L 435.776 -9.26 L 435.424 -9.26 L 435.84 -11.932 L 436.24 -11.932 Q 436.368 -10.892 436.728 -10.348 Q 437.088 -9.804 437.904 -9.804 Q 438.464 -9.804 438.808 -10.076 Q 439.152 -10.348 439.152 -10.972 Q 439.152 -11.628 438.792 -12.084 Q 438.432 -12.54 437.968 -12.972 Q 437.648 -13.292 437.32 -13.596 Q 436.992 -13.9 436.776 -14.276 Q 436.56 -14.652 436.56 -15.148 Q 436.56 -15.964 437.104 -16.532 Q 437.648 -17.1 438.736 -17.1 Q 439.376 -17.1 439.8 -16.924 Q 440.224 -16.748 440.368 -16.668 L 440.416 -16.668 L 440.832 -17.1 Z " fill="black" /><path d="M 446.256 -13.756 L 446.256 -13.756 Q 446.256 -11.084 445.096 -9.196 Q 443.936 -7.308 442 -6.3 L 441.744 -6.716 Q 443.504 -7.9 444.224 -9.604 Q 444.944 -11.308 444.944 -13.756 Q 444.944 -16.204 444.224 -17.908 Q 443.504 -19.612 441.744 -20.796 L 442 -21.212 Q 443.936 -20.204 445.096 -18.316 Q 446.256 -16.428 446.256 -13.756 Z " fill="black" /></g></g></g></svg>