<svg xmlns="http://www.w3.org/2000/svg" xml:lang="en" height="262.64000000000004pt" width="767.8488pt" viewBox="-70.24879999999999 -163.00000000000003 767.8488 262.64000000000004"><circle cx="107.99999999999999" cy="36.0" r="18.0" style="stroke:black;fill:none;stroke-width:2.0;" /><circle cx="360.0" cy="36.0" r="18.0" style="stroke:black;fill:none;stroke-width:2.0;" /><circle cx="360.0" cy="-108.0" r="18.0" style="stroke:black;fill:none;stroke-width:2.0;" /><path d="M 0.0,-0.0 L -18.0,-2.204364238465236e-15 L -36.0,-4.408728476930472e-15" style="stroke:black;fill:none;stroke-width:2.0;stroke-linecap:round;stroke-linejoin:round;" /><path d="M -1.3226185430791413e-14,72.0 L 53.999999999999986,72.0 L 107.99999999999999,72.0" style="stroke:black;fill:none;stroke-width:2.0;stroke-linecap:round;stroke-linejoin:round;" /><path d="M 107.99999999999999,72.0 L 107.99999999999999,54.0 L 107.99999999999999,54.0 M 107.99999999999999,18.0 L 107.99999999999999,18.0 L 107.99999999999999,-0.0" style="stroke:black;fill:none;stroke-width:2.0;stroke-linecap:round;stroke-linejoin:round;" /><path d="M 107.99999999999999,36.0 L 107.99999999999999,27.0" style="stroke:black;fill:none;stroke-width:2.0;stroke-linecap:round;stroke-linejoin:round;" /><path d="M 107.99999999999999 43.0 L 105.29999999999998 36.0 L 110.69999999999999 36.0 Z" style="stroke:black;fill:black;stroke-linecap:butt;stroke-linejoin:miter;" /><path d="M 107.99999999999999,-0.0 L 107.99999999999999,-36.0 L 107.99999999999999,-72.0" style="stroke:black;fill:none;stroke-width:2.0;stroke-linecap:round;stroke-linejoin:round;" /><path d="M 107.99999999999999,-72.0 L 107.99999999999999,-104.76 M 98.99999999999999,-104.76 L 116.99999999999999,-104.76 M 98.99999999999999,-111.24 L 116.99999999999999,-111.24 M 107.99999999999999,-111.24 L 107.99999999999999,-144.0" style="stroke:black;fill:none;stroke-width:2.0;stroke-linecap:round;stroke-linejoin:round;" /><path d="M 107.99999999999999,-144.0 L 107.99999999999999,-158.4" style="stroke:black;fill:none;stroke-width:2.0;stroke-linecap:round;stroke-linejoin:round;" /><path d="M 107.99999999999999,-158.4 L 101.24999999999999,-158.4" style="stroke:black;fill:none;stroke-width:2.0;stroke-linecap:round;stroke-linejoin:round;" /><path d="M 107.99999999999999,-158.4 L 114.74999999999999,-158.4" style="stroke:black;fill:none;stroke-width:2.0;stroke-linecap:round;stroke-linejoin:round;" /><path d="M 107.99999999999999,-72.0 L 162.0,-72.0 L 216.0,-72.0" style="stroke:black;fill:none;stroke-width:2.0;stroke-linecap:round;stroke-linejoin:round;" /><path d="M 216.0,-72.0 L 216.0,-90.0 L 207.0,-93.0 L 225.0,-99.0 L 207.0,-105.0 L 225.0,-110.99999999999999 L 207.0,-117.0 L 225.0,-123.0 L 216.0,-126.0 L 216.0,-144.0" style="stroke:black;fill:none;stroke-width:2.0;stroke-linecap:round;stroke-linejoin:round;" /><path d="M 216.0,-144.0 L 216.0,-158.4" style="stroke:black;fill:none;stroke-width:2.0;stroke-linecap:round;stroke-linejoin:round;" /><path d="M 216.0,-158.4 L 209.25,-158.4" style="stroke:black;fill:none;stroke-width:2.0;stroke-linecap:round;stroke-linejoin:round;" /><path d="M 216.0,-158.4 L 222.75,-158.4" style="stroke:black;fill:none;stroke-width:2.0;stroke-linecap:round;stroke-linejoin:round;" /><path d="M 107.99999999999999,72.0 L 107.99999999999999,86.39999999999999 L 98.99999999999999,86.39999999999999 L 116.99999999999999,86.39999999999999 M 101.69999999999999,90.72 L 114.29999999999998,90.72 M 106.19999999999999,95.04 L 109.79999999999998,95.04" style="stroke:black;fill:none;stroke-width:2.0;stroke-linecap:round;stroke-linejoin:round;" /><path d="M 360.0,72.0 L 360.0,86.39999999999999 L 351.0,86.39999999999999 L 369.0,86.39999999999999 M 353.7,90.72 L 366.3,90.72 M 358.2,95.04 L 361.8,95.04" style="stroke:black;fill:none;stroke-width:2.0;stroke-linecap:round;stroke-linejoin:round;" /><path d="M 360.0,72.0 L 360.0,54.0 L 360.0,54.0 M 360.0,18.0 L 360.0,18.0 L 360.0,-0.0" style="stroke:black;fill:none;stroke-width:2.0;stroke-linecap:round;stroke-linejoin:round;" /><path d="M 360.0,36.0 L 360.0,27.0" style="stroke:black;fill:none;stroke-width:2.0;stroke-linecap:round;stroke-linejoin:round;" /><path d="M 360.0 43.0 L 357.3 36.0 L 362.7 36.0 Z" style="stroke:black;fill:black;stroke-linecap:butt;stroke-linejoin:miter;" /><path d="M 360.0,-0.0 L 360.0,-18.0 L 360.0,-36.0" style="stroke:black;fill:none;stroke-width:2.0;stroke-linecap:round;stroke-linejoin:round;" /><path d="M 360.0,-36.0 L 360.0,-54.0 L 360.0,-72.0" style="stroke:black;fill:none;stroke-width:2.0;stroke-linecap:round;stroke-linejoin:round;" /><path d="M 360.0,-72.0 L 360.0,-90.0 L 360.0,-90.0 M 360.0,-126.0 L 360.0,-126.0 L 360.0,-144.0" style="stroke:black;fill:none;stroke-width:2.0;stroke-linecap:round;stroke-linejoin:round;" /><path d="M 360.0,-99.0 L 360.0,-108.0" style="stroke:black;fill:none;stroke-width:2.0;stroke-linecap:round;stroke-linejoin:round;" /><path d="M 360.0 -115.0 L 362.7 -108.0 L 357.3 -108.0 Z" style="stroke:black;fill:black;stroke-linecap:butt;stroke-linejoin:miter;" /><path d="M 360.0,-144.0 L 360.0,-158.4" style="stroke:black;fill:none;stroke-width:2.0;stroke-linecap:round;stroke-linejoin:round;" /><path d="M 360.0,-158.4 L 353.25,-158.4" style="stroke:black;fill:none;stroke-width:2.0;stroke-linecap:round;stroke-linejoin:round;" /><path d="M 360.0,-158.4 L 366.75,-158.4" style="stroke:black;fill:none;stroke-width:2.0;stroke-linecap:round;stroke-linejoin:round;" /><path d="M 360.0,-36.0 L 468.0,-36.0 L 576.0,-36.0" style="stroke:black;fill:none;stroke-width:2.0;stroke-linecap:round;stroke-linejoin:round;" /><path d="M 576.0,-36.0 L 576.0,-18.0 L 576.0,-0.0" style="stroke:black;fill:none;stroke-width:2.0;stroke-linecap:round;stroke-linejoin:round;" /><path d="M 576.0,-0.0 L 576.0,32.76 M 585.0,32.76 L 567.0,32.76 M 585.0,39.24 L 567.0,39.24 M 576.0,39.24 L 576.0,72.0" style="stroke:black;fill:none;stroke-width:2.0;stroke-linecap:round;stroke-linejoin:round;" /><path d="M 576.0,72.0 L 576.0,86.39999999999999 L 567.0,86.39999999999999 L 585.0,86.39999999999999 M 569.6999999999999,90.72 L 582.3000000000001,90.72 M 574.1999999999999,95.04 L 577.8000000000001,95.04" style="stroke:black;fill:none;stroke-width:2.0;stroke-linecap:round;stroke-linejoin:round;" /><path d="M 576.0,-36.0 L 630.0,-36.0 L 684.0,-36.0" style="stroke:black;fill:none;stroke-width:2.0;stroke-linecap:round;stroke-linejoin:round;" /><path d="M 684.0,-36.0 L 684.0,-18.0 L 684.0,-0.0" style="stroke:black;fill:none;stroke-width:2.0;stroke-linecap:round;stroke-linejoin:round;" /><path d="M 684.0,-0.0 L 684.0,18.0 L 693.0,21.0 L 675.0,27.0 L 693.0,33.0 L 675.0,39.0 L 693.0,45.0 L 675.0,50.99999999999999 L 684.0,54.0 L 684.0,72.0" style="stroke:black;fill:none;stroke-width:2.0;stroke-linecap:round;stroke-linejoin:round;" /><path d="M 684.0,72.0 L 684.0,86.39999999999999 L 675.0,86.39999999999999 L 693.0,86.39999999999999 M 677.6999999999999,90.72 L 690.3000000000001,90.72 M 682.1999999999999,95.04 L 685.8000000000001,95.04" style="stroke:black;fill:none;stroke-width:2.0;stroke-linecap:round;stroke-linejoin:round;" /><path d="M 360.0,72.0 L 396.0,72.0 L 432.0,72.0" style="stroke:black;fill:none;stroke-width:2.0;stroke-linecap:round;stroke-linejoin:round;" /><path d="M 432.0,-0.0 L 450.0,-0.0 L 468.0,-0.0" style="stroke:black;fill:none;stroke-width:2.0;stroke-linecap:round;stroke-linejoin:round;" /><path d="M 107.99999999999999,-72.0 L 53.999999999999986,-72.0 L -1.5987211554602254e-14,-72.00000000000001" style="stroke:black;fill:none;stroke-width:2.0;stroke-linecap:round;stroke-linejoin:round;" /><path d="M -1.1578483077671783e-14,-144.0 L -1.1578483077671783e-14,-158.4" style="stroke:black;fill:none;stroke-width:2.0;stroke-linecap:round;stroke-linejoin:round;" /><path d="M -1.1578483077671783e-14,-158.4 L -6.750000000000012,-158.4" style="stroke:black;fill:none;stroke-width:2.0;stroke-linecap:round;stroke-linejoin:round;" /><path d="M -1.1578483077671783e-14,-158.4 L 6.749999999999988,-158.4" style="stroke:black;fill:none;stroke-width:2.0;stroke-linecap:round;stroke-linejoin:round;" /><circle cx="-36.0" cy="-4.408728476930472e-15" r="2.6999999999999997" style="stroke:black;fill:white;stroke-width:2.0;" /><circle cx="0.0" cy="-0.0" r="2.6999999999999997" style="stroke:black;fill:white;stroke-width:2.0;" /><g><g><g><path d="M -64.642 -6.696 L -64.642 -6.696 L -64.29 -6.696 L -65.042 -3.624 Q -65.154 -3.208 -65.274 -2.624 Q -65.394 -2.04 -65.394 -1.496 Q -65.394 -0.872 -65.138 -0.416 Q -64.882 0.04 -64.146 0.04 Q -63.33 0.04 -62.738 -0.352 Q -62.146 -0.744 -61.77 -1.352 Q -61.394 -1.96 -61.21 -2.632 Q -61.026 -3.304 -61.026 -3.864 Q -61.026 -4.28 -61.17 -4.584 Q -61.314 -4.888 -61.514 -5.128 Q -61.714 -5.368 -61.858 -5.592 Q -62.002 -5.816 -62.002 -6.072 Q -62.002 -6.392 -61.826 -6.568 Q -61.65 -6.744 -61.394 -6.744 Q -60.85 -6.744 -60.514 -6.2 Q -60.178 -5.656 -60.178 -4.808 Q -60.178 -4.072 -60.362 -3.264 Q -60.546 -2.456 -60.914 -1.688 Q -61.282 -0.92 -61.826 -0.296 Q -62.37 0.328 -63.074 0.696 Q -63.778 1.064 -64.642 1.064 Q -65.442 1.064 -65.89 0.744 Q -66.338 0.424 -66.522 -0.104 Q -66.706 -0.632 -66.706 -1.24 Q -66.706 -1.816 -66.594 -2.424 Q -66.482 -3.032 -66.354 -3.528 L -66.034 -4.744 Q -66.002 -4.872 -65.938 -5.128 Q -65.874 -5.384 -65.874 -5.624 Q -65.874 -5.832 -65.954 -5.976 Q -66.034 -6.12 -66.258 -6.12 Q -66.45 -6.12 -66.722 -6.096 Q -66.994 -6.072 -66.994 -6.072 L -66.994 -6.52 Z " fill="black" /><path d="M -56.404 3.966 L -56.404 3.966 L -56.404 4.28 L -58.924 4.28 L -58.924 3.966 Q -58.543 3.966 -58.381 3.894 Q -58.218 3.821 -58.179 3.642 Q -58.14 3.462 -58.14 3.149 L -58.14 0.024 Q -58.14 -0.334 -58.263 -0.418 Q -58.386 -0.502 -58.633 -0.502 Q -58.745 -0.502 -58.829 -0.491 Q -58.913 -0.48 -58.913 -0.48 L -58.913 -0.805 L -57.502 -1.118 L -57.21 -1.118 L -57.21 3.149 Q -57.21 3.474 -57.166 3.653 Q -57.121 3.832 -56.947 3.899 Q -56.774 3.966 -56.404 3.966 Z M -57.658 -3.258 L -57.658 -3.258 Q -57.367 -3.258 -57.194 -3.073 Q -57.02 -2.888 -57.02 -2.63 Q -57.02 -2.373 -57.194 -2.182 Q -57.367 -1.992 -57.658 -1.992 Q -57.938 -1.992 -58.118 -2.182 Q -58.297 -2.373 -58.297 -2.63 Q -58.297 -2.888 -58.123 -3.073 Q -57.95 -3.258 -57.658 -3.258 Z " fill="black" /><path d="M -50.703 0.842 L -50.703 0.842 L -50.703 3.149 Q -50.703 3.462 -50.653 3.642 Q -50.602 3.821 -50.423 3.894 Q -50.244 3.966 -49.874 3.966 L -49.874 4.28 L -52.462 4.28 L -52.462 3.966 Q -52.058 3.966 -51.885 3.894 Q -51.711 3.821 -51.672 3.642 Q -51.633 3.462 -51.633 3.149 L -51.633 1.122 Q -51.633 0.45 -51.784 0.114 Q -51.935 -0.222 -52.17 -0.329 Q -52.406 -0.435 -52.663 -0.435 Q -53.111 -0.435 -53.436 -0.194 Q -53.761 0.046 -54.018 0.27 L -54.018 3.149 Q -54.018 3.462 -53.974 3.642 Q -53.929 3.821 -53.75 3.894 Q -53.57 3.966 -53.167 3.966 L -53.167 4.28 L -55.732 4.28 L -55.732 3.966 Q -55.351 3.966 -55.189 3.894 Q -55.026 3.821 -54.987 3.642 Q -54.948 3.462 -54.948 3.149 L -54.948 0.002 Q -54.948 -0.301 -55.071 -0.396 Q -55.194 -0.491 -55.418 -0.491 Q -55.564 -0.491 -55.642 -0.48 Q -55.721 -0.469 -55.721 -0.469 L -55.721 -0.794 L -54.298 -1.118 L -54.041 -1.118 L -54.052 -0.211 L -54.007 -0.211 Q -53.548 -0.614 -53.139 -0.883 Q -52.73 -1.152 -52.204 -1.152 Q -51.442 -1.152 -51.073 -0.637 Q -50.703 -0.122 -50.703 0.842 Z " fill="black" /><path d="M -48.855 5.758 L -48.855 5.758 L -48.99 5.478 Q -48.777 5.389 -48.564 5.249 Q -48.351 5.109 -48.206 4.84 Q -48.06 4.571 -48.06 4.123 Q -48.239 4.19 -48.407 4.19 Q -48.732 4.19 -48.878 4.011 Q -49.023 3.832 -49.023 3.586 Q -49.023 3.317 -48.844 3.121 Q -48.665 2.925 -48.329 2.925 Q -47.903 2.925 -47.685 3.188 Q -47.466 3.451 -47.466 3.91 Q -47.466 4.381 -47.618 4.706 Q -47.769 5.03 -47.993 5.232 Q -48.217 5.434 -48.452 5.557 Q -48.687 5.68 -48.855 5.758 Z " fill="black" /><path d="M -45.495 -1.118 L -45.495 -1.118 L -45.495 -0.178 L -45.462 -0.178 Q -45.058 -0.648 -44.638 -0.9 Q -44.218 -1.152 -43.726 -1.152 Q -43.166 -1.152 -42.746 -0.833 Q -42.326 -0.514 -42.085 0.052 Q -41.844 0.618 -41.844 1.357 Q -41.844 2.309 -42.174 2.986 Q -42.505 3.664 -43.065 4.028 Q -43.625 4.392 -44.297 4.392 Q -44.61 4.392 -44.896 4.319 Q -45.182 4.246 -45.428 4.078 L -45.473 4.078 L -45.473 5.546 Q -45.473 5.904 -45.383 6.094 Q -45.294 6.285 -45.058 6.352 Q -44.823 6.419 -44.386 6.419 L -44.386 6.744 L -47.22 6.744 L -47.22 6.43 Q -46.694 6.43 -46.548 6.257 Q -46.402 6.083 -46.402 5.613 L -46.402 0.069 Q -46.402 -0.256 -46.475 -0.379 Q -46.548 -0.502 -46.828 -0.502 Q -46.94 -0.502 -47.063 -0.491 Q -47.186 -0.48 -47.186 -0.48 L -47.186 -0.805 L -45.775 -1.118 Z M -45.473 0.293 L -45.473 0.293 L -45.473 3.216 Q -45.361 3.328 -45.193 3.507 Q -45.025 3.686 -44.79 3.821 Q -44.554 3.955 -44.241 3.955 Q -43.647 3.955 -43.255 3.395 Q -42.863 2.835 -42.863 1.67 Q -42.863 0.606 -43.21 0.108 Q -43.558 -0.39 -44.185 -0.39 Q -44.633 -0.39 -44.974 -0.155 Q -45.316 0.08 -45.473 0.293 Z " fill="black" /></g></g></g><g><g><g><path d="M 5.264 18.544 L 5.264 18.544 L 1.072 18.544 L 1.072 22.784 L -0.08 22.784 L -0.08 18.544 L -4.272 18.544 L -4.272 17.456 L -0.08 17.456 L -0.08 13.216 L 1.072 13.216 L 1.072 17.456 L 5.264 17.456 Z " fill="black" /></g></g></g><g><g><g><path d="M -7.902 29.22 L -7.902 29.22 L -7.55 29.22 L -8.302 32.292 Q -8.414 32.708 -8.534 33.292 Q -8.654 33.876 -8.654 34.42 Q -8.654 35.044 -8.398 35.5 Q -8.142 35.956 -7.406 35.956 Q -6.59 35.956 -5.998 35.564 Q -5.406 35.172 -5.03 34.564 Q -4.654 33.956 -4.47 33.284 Q -4.286 32.612 -4.286 32.052 Q -4.286 31.636 -4.43 31.332 Q -4.574 31.028 -4.774 30.788 Q -4.974 30.548 -5.118 30.324 Q -5.262 30.1 -5.262 29.844 Q -5.262 29.524 -5.086 29.348 Q -4.91 29.172 -4.654 29.172 Q -4.11 29.172 -3.774 29.716 Q -3.438 30.26 -3.438 31.108 Q -3.438 31.844 -3.622 32.652 Q -3.806 33.46 -4.174 34.228 Q -4.542 34.996 -5.086 35.62 Q -5.63 36.244 -6.334 36.612 Q -7.038 36.98 -7.902 36.98 Q -8.702 36.98 -9.15 36.66 Q -9.598 36.34 -9.782 35.812 Q -9.966 35.284 -9.966 34.676 Q -9.966 34.1 -9.854 33.492 Q -9.742 32.884 -9.614 32.388 L -9.294 31.172 Q -9.262 31.044 -9.198 30.788 Q -9.134 30.532 -9.134 30.292 Q -9.134 30.084 -9.214 29.94 Q -9.294 29.796 -9.518 29.796 Q -9.71 29.796 -9.982 29.82 Q -10.254 29.844 -10.254 29.844 L -10.254 29.396 Z " fill="black" /><path d="M -2.005 38.135 L -2.005 38.135 L -2.005 38.113 Q -2.408 37.878 -2.638 37.508 Q -2.867 37.138 -2.867 36.59 Q -2.867 35.75 -2.296 35.257 Q -1.725 34.764 -0.84 34.764 Q -0.47 34.764 -0.19 34.831 Q 0.09 34.898 0.246 34.971 Q 0.403 35.044 0.403 35.044 L 1.848 34.966 L 1.848 35.57 L 0.795 35.537 L 0.795 35.593 Q 0.918 35.761 1.058 36.041 Q 1.198 36.321 1.198 36.746 Q 1.198 37.53 0.65 37.99 Q 0.101 38.449 -0.784 38.449 Q -1.053 38.449 -1.288 38.404 Q -1.523 38.359 -1.747 38.281 Q -1.826 38.393 -1.932 38.639 Q -2.038 38.886 -2.038 39.031 Q -2.038 39.278 -1.764 39.378 Q -1.49 39.479 -0.717 39.479 Q -0.011 39.479 0.554 39.546 Q 1.12 39.614 1.445 39.894 Q 1.77 40.174 1.77 40.812 Q 1.77 41.372 1.495 41.758 Q 1.221 42.145 0.767 42.38 Q 0.314 42.615 -0.23 42.722 Q -0.773 42.828 -1.299 42.828 Q -2.027 42.828 -2.447 42.649 Q -2.867 42.47 -3.035 42.184 Q -3.203 41.898 -3.203 41.596 Q -3.203 41.316 -2.974 41.008 Q -2.744 40.7 -2.296 40.263 L -2.296 40.218 Q -2.576 40.073 -2.75 39.86 Q -2.923 39.647 -2.923 39.412 Q -2.923 39.11 -2.66 38.774 Q -2.397 38.438 -2.005 38.135 Z M -2.016 40.308 L -2.016 40.308 Q -2.195 40.622 -2.262 40.829 Q -2.33 41.036 -2.33 41.215 Q -2.33 42.19 -0.65 42.19 Q 0.011 42.19 0.42 42.022 Q 0.829 41.854 1.014 41.607 Q 1.198 41.361 1.198 41.126 Q 1.198 40.834 1.019 40.672 Q 0.84 40.51 0.554 40.442 Q 0.269 40.375 -0.05 40.353 Q -0.37 40.33 -0.65 40.33 Q -0.717 40.33 -0.75 40.33 Q -1.198 40.319 -1.445 40.319 Q -1.691 40.319 -1.814 40.314 Q -1.938 40.308 -2.016 40.308 Z M -0.918 35.167 L -0.918 35.167 Q -1.355 35.167 -1.618 35.503 Q -1.882 35.839 -1.882 36.545 Q -1.882 37.262 -1.602 37.659 Q -1.322 38.057 -0.773 38.057 Q -0.347 38.057 -0.073 37.766 Q 0.202 37.474 0.202 36.679 Q 0.202 35.996 -0.09 35.582 Q -0.381 35.167 -0.918 35.167 Z " fill="black" /><path d="M 2.419 38.359 L 2.419 38.359 L 2.71 38.359 Q 2.89 39.222 3.237 39.563 Q 3.584 39.905 4.2 39.905 Q 4.626 39.905 4.894 39.731 Q 5.163 39.558 5.163 39.166 Q 5.163 38.897 5.068 38.718 Q 4.973 38.538 4.704 38.354 Q 4.435 38.169 3.909 37.911 Q 3.147 37.519 2.789 37.155 Q 2.43 36.791 2.43 36.175 Q 2.43 35.481 2.929 35.122 Q 3.427 34.764 4.144 34.764 Q 4.57 34.764 4.838 34.859 Q 5.107 34.954 5.32 35.055 L 5.331 35.055 L 5.522 34.82 L 5.746 34.82 L 5.779 36.534 L 5.477 36.534 Q 5.298 35.738 4.973 35.442 Q 4.648 35.145 4.133 35.145 Q 3.752 35.145 3.489 35.324 Q 3.226 35.503 3.226 35.884 Q 3.226 36.209 3.528 36.466 Q 3.83 36.724 4.536 37.082 Q 5.298 37.486 5.701 37.861 Q 6.104 38.236 6.104 38.863 Q 6.104 39.39 5.846 39.709 Q 5.589 40.028 5.158 40.174 Q 4.726 40.319 4.222 40.319 Q 3.741 40.319 3.455 40.218 Q 3.17 40.118 2.946 40.028 L 2.923 40.028 L 2.688 40.286 L 2.453 40.286 Z " fill="black" /><path d="M 11.178 40.196 L 11.178 40.196 L 7.302 40.196 L 7.302 39.882 Q 8.098 39.882 8.422 39.714 Q 8.747 39.546 8.747 39.132 L 8.747 34.394 Q 8.747 34.103 8.669 33.974 Q 8.59 33.846 8.378 33.846 Q 8.21 33.846 7.851 33.89 Q 7.493 33.935 7.235 34.025 L 7.235 33.655 L 9.408 33.039 L 9.733 33.039 L 9.733 39.132 Q 9.733 39.546 10.069 39.714 Q 10.405 39.882 11.178 39.882 Z " fill="black" /></g></g></g><g><g><g><rect x="-2.16" y="49.328" width="4.32" height="1.088" fill="black" /></g></g></g><circle cx="107.99999999999999" cy="72.0" r="2.6999999999999997" style="stroke:black;fill:black;stroke-width:2.0;" /><circle cx="-1.3226185430791413e-14" cy="72.0" r="2.6999999999999997" style="stroke:black;fill:white;stroke-width:2.0;" /><g><g><g><path d="M 42.461 29.364 L 42.461 29.364 L 42.365 30.18 L 40.973 30.02 L 40.973 30.068 Q 41.245 30.372 41.397 30.828 Q 41.549 31.284 41.549 31.7 Q 41.549 32.42 41.261 32.908 Q 40.973 33.396 40.509 33.692 Q 40.045 33.988 39.485 34.14 Q 38.925 34.292 38.397 34.34 Q 37.757 34.404 37.493 34.612 Q 37.229 34.82 37.229 35.044 Q 37.229 35.332 37.549 35.484 Q 37.869 35.636 38.373 35.732 Q 38.877 35.828 39.453 35.948 Q 40.029 36.068 40.533 36.276 Q 41.037 36.484 41.357 36.86 Q 41.677 37.236 41.677 37.86 Q 41.677 38.548 41.229 39.132 Q 40.781 39.716 39.901 40.076 Q 39.021 40.436 37.741 40.436 Q 36.589 40.436 35.901 40.156 Q 35.213 39.876 34.909 39.436 Q 34.605 38.996 34.605 38.516 Q 34.605 37.748 35.197 37.276 Q 35.789 36.804 36.541 36.564 L 36.541 36.5 Q 36.333 36.372 36.149 36.14 Q 35.965 35.908 35.965 35.54 Q 35.965 35.14 36.173 34.9 Q 36.381 34.66 36.709 34.508 Q 37.037 34.356 37.357 34.244 L 37.357 34.148 Q 36.733 33.876 36.269 33.38 Q 35.805 32.884 35.805 31.972 Q 35.805 31.14 36.205 30.508 Q 36.605 29.876 37.301 29.524 Q 37.997 29.172 38.861 29.172 Q 39.437 29.172 39.733 29.228 Q 40.029 29.284 40.317 29.364 Z M 40.525 38.452 L 40.525 38.452 Q 40.525 37.972 40.125 37.676 Q 39.725 37.38 39.133 37.204 Q 38.541 37.028 37.941 36.924 Q 37.341 36.82 36.925 36.74 Q 36.525 36.996 36.189 37.324 Q 35.853 37.652 35.853 38.276 Q 35.853 38.916 36.349 39.396 Q 36.845 39.876 38.061 39.876 Q 39.213 39.876 39.869 39.452 Q 40.525 39.028 40.525 38.452 Z M 40.125 31.524 L 40.125 31.524 Q 40.125 30.724 39.821 30.188 Q 39.517 29.652 38.813 29.652 Q 38.125 29.652 37.677 30.228 Q 37.229 30.804 37.229 31.972 Q 37.229 32.804 37.517 33.324 Q 37.805 33.844 38.493 33.844 Q 39.293 33.844 39.709 33.172 Q 40.125 32.5 40.125 31.524 Z " fill="black" /><path d="M 44.757 36.198 L 44.757 36.198 L 44.757 39.11 Q 44.757 39.58 44.919 39.726 Q 45.082 39.871 45.597 39.871 L 45.597 40.196 L 43.043 40.196 L 43.043 39.871 Q 43.402 39.871 43.564 39.81 Q 43.726 39.748 43.777 39.574 Q 43.827 39.401 43.827 39.065 L 43.827 35.929 Q 43.827 35.626 43.71 35.526 Q 43.592 35.425 43.357 35.425 Q 43.234 35.425 43.144 35.436 Q 43.054 35.447 43.054 35.447 L 43.054 35.122 L 44.454 34.798 L 44.723 34.798 L 44.723 35.705 L 44.768 35.705 Q 45.227 35.313 45.653 35.038 Q 46.078 34.764 46.65 34.764 Q 47.131 34.764 47.428 35.027 Q 47.725 35.29 47.893 35.694 L 47.938 35.694 Q 48.397 35.234 48.834 34.999 Q 49.27 34.764 49.718 34.764 Q 50.379 34.764 50.771 35.178 Q 51.163 35.593 51.163 36.612 L 51.163 38.897 Q 51.163 39.244 51.202 39.462 Q 51.242 39.681 51.415 39.776 Q 51.589 39.871 51.97 39.871 L 51.97 40.196 L 49.438 40.196 L 49.438 39.871 Q 49.819 39.871 49.987 39.77 Q 50.155 39.67 50.194 39.451 Q 50.234 39.233 50.234 38.897 L 50.234 36.746 Q 50.234 36.231 50.105 35.962 Q 49.976 35.694 49.758 35.587 Q 49.539 35.481 49.27 35.481 Q 48.923 35.481 48.593 35.71 Q 48.262 35.94 47.982 36.175 L 47.982 38.897 Q 47.982 39.278 48.033 39.49 Q 48.083 39.703 48.262 39.787 Q 48.442 39.871 48.845 39.871 L 48.845 40.196 L 46.19 40.196 L 46.19 39.871 Q 46.594 39.871 46.773 39.793 Q 46.952 39.714 47.002 39.502 Q 47.053 39.289 47.053 38.897 L 47.053 36.679 Q 47.053 35.962 46.801 35.722 Q 46.549 35.481 46.157 35.481 Q 45.72 35.481 45.362 35.727 Q 45.003 35.974 44.757 36.198 Z " fill="black" /><path d="M 56.998 40.196 L 56.998 40.196 L 53.123 40.196 L 53.123 39.882 Q 53.918 39.882 54.243 39.714 Q 54.568 39.546 54.568 39.132 L 54.568 34.394 Q 54.568 34.103 54.49 33.974 Q 54.411 33.846 54.198 33.846 Q 54.03 33.846 53.672 33.89 Q 53.314 33.935 53.056 34.025 L 53.056 33.655 L 55.229 33.039 L 55.554 33.039 L 55.554 39.132 Q 55.554 39.546 55.89 39.714 Q 56.226 39.882 56.998 39.882 Z " fill="black" /><path d="M 62.968 38.404 L 62.968 38.404 L 62.61 40.196 L 58.197 40.196 L 58.197 39.815 L 59.899 38.113 Q 60.459 37.542 60.829 37.077 Q 61.198 36.612 61.383 36.142 Q 61.568 35.671 61.568 35.089 Q 61.568 34.462 61.193 34.086 Q 60.818 33.711 60.168 33.711 Q 59.619 33.711 59.233 33.946 Q 58.846 34.182 58.533 34.809 L 58.264 34.697 Q 58.522 33.879 59.082 33.431 Q 59.642 32.983 60.459 32.983 Q 61.098 32.983 61.579 33.224 Q 62.061 33.465 62.335 33.896 Q 62.61 34.327 62.61 34.921 Q 62.61 35.414 62.402 35.867 Q 62.195 36.321 61.786 36.802 Q 61.378 37.284 60.784 37.889 L 59.306 39.289 L 59.306 39.345 L 60.09 39.311 L 61.646 39.311 Q 62.094 39.311 62.274 39.11 Q 62.453 38.908 62.643 38.404 Z " fill="black" /><path d="M 66.515 29.22 L 66.515 29.22 L 66.867 29.22 L 66.115 32.292 Q 66.003 32.708 65.883 33.292 Q 65.763 33.876 65.763 34.42 Q 65.763 35.044 66.019 35.5 Q 66.275 35.956 67.011 35.956 Q 67.827 35.956 68.419 35.564 Q 69.011 35.172 69.387 34.564 Q 69.763 33.956 69.947 33.284 Q 70.131 32.612 70.131 32.052 Q 70.131 31.636 69.987 31.332 Q 69.843 31.028 69.643 30.788 Q 69.443 30.548 69.299 30.324 Q 69.155 30.1 69.155 29.844 Q 69.155 29.524 69.331 29.348 Q 69.507 29.172 69.763 29.172 Q 70.307 29.172 70.643 29.716 Q 70.979 30.26 70.979 31.108 Q 70.979 31.844 70.795 32.652 Q 70.611 33.46 70.243 34.228 Q 69.875 34.996 69.331 35.62 Q 68.787 36.244 68.083 36.612 Q 67.379 36.98 66.515 36.98 Q 65.715 36.98 65.267 36.66 Q 64.819 36.34 64.635 35.812 Q 64.451 35.284 64.451 34.676 Q 64.451 34.1 64.563 33.492 Q 64.675 32.884 64.803 32.388 L 65.123 31.172 Q 65.155 31.044 65.219 30.788 Q 65.283 30.532 65.283 30.292 Q 65.283 30.084 65.203 29.94 Q 65.123 29.796 64.899 29.796 Q 64.707 29.796 64.435 29.82 Q 64.163 29.844 64.163 29.844 L 64.163 29.396 Z " fill="black" /><path d="M 72.413 38.135 L 72.413 38.135 L 72.413 38.113 Q 72.01 37.878 71.78 37.508 Q 71.55 37.138 71.55 36.59 Q 71.55 35.75 72.122 35.257 Q 72.693 34.764 73.578 34.764 Q 73.947 34.764 74.227 34.831 Q 74.507 34.898 74.664 34.971 Q 74.821 35.044 74.821 35.044 L 76.266 34.966 L 76.266 35.57 L 75.213 35.537 L 75.213 35.593 Q 75.336 35.761 75.476 36.041 Q 75.616 36.321 75.616 36.746 Q 75.616 37.53 75.067 37.99 Q 74.518 38.449 73.634 38.449 Q 73.365 38.449 73.13 38.404 Q 72.894 38.359 72.67 38.281 Q 72.592 38.393 72.486 38.639 Q 72.379 38.886 72.379 39.031 Q 72.379 39.278 72.654 39.378 Q 72.928 39.479 73.701 39.479 Q 74.406 39.479 74.972 39.546 Q 75.538 39.614 75.862 39.894 Q 76.187 40.174 76.187 40.812 Q 76.187 41.372 75.913 41.758 Q 75.638 42.145 75.185 42.38 Q 74.731 42.615 74.188 42.722 Q 73.645 42.828 73.118 42.828 Q 72.39 42.828 71.97 42.649 Q 71.55 42.47 71.382 42.184 Q 71.214 41.898 71.214 41.596 Q 71.214 41.316 71.444 41.008 Q 71.674 40.7 72.122 40.263 L 72.122 40.218 Q 71.842 40.073 71.668 39.86 Q 71.494 39.647 71.494 39.412 Q 71.494 39.11 71.758 38.774 Q 72.021 38.438 72.413 38.135 Z M 72.402 40.308 L 72.402 40.308 Q 72.222 40.622 72.155 40.829 Q 72.088 41.036 72.088 41.215 Q 72.088 42.19 73.768 42.19 Q 74.429 42.19 74.838 42.022 Q 75.246 41.854 75.431 41.607 Q 75.616 41.361 75.616 41.126 Q 75.616 40.834 75.437 40.672 Q 75.258 40.51 74.972 40.442 Q 74.686 40.375 74.367 40.353 Q 74.048 40.33 73.768 40.33 Q 73.701 40.33 73.667 40.33 Q 73.219 40.319 72.973 40.319 Q 72.726 40.319 72.603 40.314 Q 72.48 40.308 72.402 40.308 Z M 73.499 35.167 L 73.499 35.167 Q 73.062 35.167 72.799 35.503 Q 72.536 35.839 72.536 36.545 Q 72.536 37.262 72.816 37.659 Q 73.096 38.057 73.645 38.057 Q 74.07 38.057 74.345 37.766 Q 74.619 37.474 74.619 36.679 Q 74.619 35.996 74.328 35.582 Q 74.037 35.167 73.499 35.167 Z " fill="black" /><path d="M 76.837 38.359 L 76.837 38.359 L 77.128 38.359 Q 77.307 39.222 77.654 39.563 Q 78.002 39.905 78.618 39.905 Q 79.043 39.905 79.312 39.731 Q 79.581 39.558 79.581 39.166 Q 79.581 38.897 79.486 38.718 Q 79.39 38.538 79.122 38.354 Q 78.853 38.169 78.326 37.911 Q 77.565 37.519 77.206 37.155 Q 76.848 36.791 76.848 36.175 Q 76.848 35.481 77.346 35.122 Q 77.845 34.764 78.562 34.764 Q 78.987 34.764 79.256 34.859 Q 79.525 34.954 79.738 35.055 L 79.749 35.055 L 79.939 34.82 L 80.163 34.82 L 80.197 36.534 L 79.894 36.534 Q 79.715 35.738 79.39 35.442 Q 79.066 35.145 78.55 35.145 Q 78.17 35.145 77.906 35.324 Q 77.643 35.503 77.643 35.884 Q 77.643 36.209 77.946 36.466 Q 78.248 36.724 78.954 37.082 Q 79.715 37.486 80.118 37.861 Q 80.522 38.236 80.522 38.863 Q 80.522 39.39 80.264 39.709 Q 80.006 40.028 79.575 40.174 Q 79.144 40.319 78.64 40.319 Q 78.158 40.319 77.873 40.218 Q 77.587 40.118 77.363 40.028 L 77.341 40.028 L 77.106 40.286 L 76.87 40.286 Z " fill="black" /><path d="M 85.595 40.196 L 85.595 40.196 L 81.72 40.196 L 81.72 39.882 Q 82.515 39.882 82.84 39.714 Q 83.165 39.546 83.165 39.132 L 83.165 34.394 Q 83.165 34.103 83.086 33.974 Q 83.008 33.846 82.795 33.846 Q 82.627 33.846 82.269 33.89 Q 81.91 33.935 81.653 34.025 L 81.653 33.655 L 83.826 33.039 L 84.15 33.039 L 84.15 39.132 Q 84.15 39.546 84.486 39.714 Q 84.822 39.882 85.595 39.882 Z " fill="black" /></g></g></g><circle cx="107.99999999999999" cy="-72.0" r="2.6999999999999997" style="stroke:black;fill:black;stroke-width:2.0;" /><g><g><g><path d="M 74.227 -107.956 L 74.227 -107.956 L 74.515 -107.652 Q 73.699 -106.692 72.627 -106.076 Q 71.555 -105.46 70.035 -105.46 Q 68.595 -105.46 67.731 -105.996 Q 66.867 -106.532 66.491 -107.428 Q 66.115 -108.324 66.115 -109.38 Q 66.115 -111.06 66.627 -112.364 Q 67.139 -113.668 68.027 -114.556 Q 68.915 -115.444 70.035 -115.9 Q 71.155 -116.356 72.371 -116.356 Q 73.187 -116.356 73.643 -116.212 Q 74.099 -116.068 74.355 -115.916 Q 74.611 -115.764 74.803 -115.764 Q 74.995 -115.764 75.139 -115.924 Q 75.283 -116.084 75.475 -116.34 L 75.939 -116.34 L 75.187 -112.676 L 74.659 -112.676 Q 74.723 -114.276 74.067 -114.972 Q 73.411 -115.668 72.227 -115.668 Q 71.299 -115.668 70.483 -115.244 Q 69.667 -114.82 69.035 -114.044 Q 68.403 -113.268 68.043 -112.188 Q 67.683 -111.108 67.683 -109.78 Q 67.683 -108.18 68.443 -107.34 Q 69.203 -106.5 70.787 -106.5 Q 72.627 -106.5 74.227 -107.956 Z " fill="black" /><path d="M 76.861 -104.337 L 76.861 -104.337 L 76.861 -104.359 Q 76.458 -104.594 76.228 -104.964 Q 75.998 -105.334 75.998 -105.882 Q 75.998 -106.722 76.57 -107.215 Q 77.141 -107.708 78.026 -107.708 Q 78.395 -107.708 78.675 -107.641 Q 78.955 -107.574 79.112 -107.501 Q 79.269 -107.428 79.269 -107.428 L 80.714 -107.506 L 80.714 -106.902 L 79.661 -106.935 L 79.661 -106.879 Q 79.784 -106.711 79.924 -106.431 Q 80.064 -106.151 80.064 -105.726 Q 80.064 -104.942 79.515 -104.482 Q 78.966 -104.023 78.082 -104.023 Q 77.813 -104.023 77.578 -104.068 Q 77.342 -104.113 77.118 -104.191 Q 77.04 -104.079 76.934 -103.833 Q 76.827 -103.586 76.827 -103.441 Q 76.827 -103.194 77.102 -103.094 Q 77.376 -102.993 78.149 -102.993 Q 78.854 -102.993 79.42 -102.926 Q 79.986 -102.858 80.31 -102.578 Q 80.635 -102.298 80.635 -101.66 Q 80.635 -101.1 80.361 -100.714 Q 80.086 -100.327 79.633 -100.092 Q 79.179 -99.857 78.636 -99.75 Q 78.093 -99.644 77.566 -99.644 Q 76.838 -99.644 76.418 -99.823 Q 75.998 -100.002 75.83 -100.288 Q 75.662 -100.574 75.662 -100.876 Q 75.662 -101.156 75.892 -101.464 Q 76.122 -101.772 76.57 -102.209 L 76.57 -102.254 Q 76.29 -102.399 76.116 -102.612 Q 75.942 -102.825 75.942 -103.06 Q 75.942 -103.362 76.206 -103.698 Q 76.469 -104.034 76.861 -104.337 Z M 76.85 -102.164 L 76.85 -102.164 Q 76.67 -101.85 76.603 -101.643 Q 76.536 -101.436 76.536 -101.257 Q 76.536 -100.282 78.216 -100.282 Q 78.877 -100.282 79.286 -100.45 Q 79.694 -100.618 79.879 -100.865 Q 80.064 -101.111 80.064 -101.346 Q 80.064 -101.638 79.885 -101.8 Q 79.706 -101.962 79.42 -102.03 Q 79.134 -102.097 78.815 -102.119 Q 78.496 -102.142 78.216 -102.142 Q 78.149 -102.142 78.115 -102.142 Q 77.667 -102.153 77.421 -102.153 Q 77.174 -102.153 77.051 -102.158 Q 76.928 -102.164 76.85 -102.164 Z M 77.947 -107.305 L 77.947 -107.305 Q 77.51 -107.305 77.247 -106.969 Q 76.984 -106.633 76.984 -105.927 Q 76.984 -105.21 77.264 -104.813 Q 77.544 -104.415 78.093 -104.415 Q 78.518 -104.415 78.793 -104.706 Q 79.067 -104.998 79.067 -105.793 Q 79.067 -106.476 78.776 -106.89 Q 78.485 -107.305 77.947 -107.305 Z " fill="black" /><path d="M 81.285 -104.113 L 81.285 -104.113 L 81.576 -104.113 Q 81.755 -103.25 82.102 -102.909 Q 82.45 -102.567 83.066 -102.567 Q 83.491 -102.567 83.76 -102.741 Q 84.029 -102.914 84.029 -103.306 Q 84.029 -103.575 83.934 -103.754 Q 83.838 -103.934 83.57 -104.118 Q 83.301 -104.303 82.774 -104.561 Q 82.013 -104.953 81.654 -105.317 Q 81.296 -105.681 81.296 -106.297 Q 81.296 -106.991 81.794 -107.35 Q 82.293 -107.708 83.01 -107.708 Q 83.435 -107.708 83.704 -107.613 Q 83.973 -107.518 84.186 -107.417 L 84.197 -107.417 L 84.387 -107.652 L 84.611 -107.652 L 84.645 -105.938 L 84.342 -105.938 Q 84.163 -106.734 83.838 -107.03 Q 83.514 -107.327 82.998 -107.327 Q 82.618 -107.327 82.354 -107.148 Q 82.091 -106.969 82.091 -106.588 Q 82.091 -106.263 82.394 -106.006 Q 82.696 -105.748 83.402 -105.39 Q 84.163 -104.986 84.566 -104.611 Q 84.97 -104.236 84.97 -103.609 Q 84.97 -103.082 84.712 -102.763 Q 84.454 -102.444 84.023 -102.298 Q 83.592 -102.153 83.088 -102.153 Q 82.606 -102.153 82.321 -102.254 Q 82.035 -102.354 81.811 -102.444 L 81.789 -102.444 L 81.554 -102.186 L 81.318 -102.186 Z " fill="black" /><path d="M 86.235 -107.854 L 86.235 -107.854 L 85.978 -107.999 Q 86.616 -109.489 88.005 -109.489 Q 88.867 -109.489 89.338 -109.058 Q 89.808 -108.626 89.808 -107.988 Q 89.808 -107.406 89.466 -107.047 Q 89.125 -106.689 88.598 -106.353 L 88.598 -106.319 Q 89.046 -106.185 89.422 -105.933 Q 89.797 -105.681 90.021 -105.317 Q 90.245 -104.953 90.245 -104.449 Q 90.245 -103.687 89.819 -103.166 Q 89.394 -102.646 88.699 -102.388 Q 88.005 -102.13 87.187 -102.13 Q 86.683 -102.13 86.414 -102.226 Q 86.146 -102.321 86.039 -102.461 Q 85.933 -102.601 85.933 -102.746 Q 85.933 -102.926 86.045 -103.082 Q 86.157 -103.239 86.37 -103.239 Q 86.504 -103.239 86.622 -103.189 Q 86.739 -103.138 87.03 -102.982 Q 87.389 -102.802 87.562 -102.746 Q 87.736 -102.69 87.938 -102.69 Q 88.296 -102.69 88.61 -102.819 Q 88.923 -102.948 89.125 -103.256 Q 89.326 -103.564 89.326 -104.113 Q 89.326 -104.617 89.046 -104.986 Q 88.766 -105.356 88.302 -105.563 Q 87.837 -105.77 87.299 -105.77 L 87.075 -105.77 L 87.075 -106.196 L 87.288 -106.196 Q 87.669 -106.196 88.027 -106.386 Q 88.386 -106.577 88.615 -106.924 Q 88.845 -107.271 88.845 -107.719 Q 88.845 -108.212 88.537 -108.486 Q 88.229 -108.761 87.702 -108.761 Q 87.198 -108.761 86.862 -108.531 Q 86.526 -108.302 86.235 -107.854 Z " fill="black" /><path d="M 96.203 -104.046 L 96.203 -104.046 L 95.061 -104.046 L 95.061 -102.276 L 94.064 -102.276 L 94.064 -104.046 L 90.962 -104.046 L 90.962 -104.751 L 94.378 -109.5 L 95.061 -109.5 L 95.061 -104.818 L 96.203 -104.818 Z M 94.064 -104.818 L 94.064 -104.818 L 94.064 -108.279 L 94.019 -108.279 L 91.578 -104.863 L 91.578 -104.818 Z " fill="black" /></g></g></g><g><g><g><path d="M 182.514 -113.44 L 182.514 -113.44 L 182.418 -112.624 L 181.026 -112.784 L 181.026 -112.736 Q 181.298 -112.432 181.45 -111.976 Q 181.602 -111.52 181.602 -111.104 Q 181.602 -110.384 181.314 -109.896 Q 181.026 -109.408 180.562 -109.112 Q 180.098 -108.816 179.538 -108.664 Q 178.978 -108.512 178.45 -108.464 Q 177.81 -108.4 177.546 -108.192 Q 177.282 -107.984 177.282 -107.76 Q 177.282 -107.472 177.602 -107.32 Q 177.922 -107.168 178.426 -107.072 Q 178.93 -106.976 179.506 -106.856 Q 180.082 -106.736 180.586 -106.528 Q 181.09 -106.32 181.41 -105.944 Q 181.73 -105.568 181.73 -104.944 Q 181.73 -104.256 181.282 -103.672 Q 180.834 -103.088 179.954 -102.728 Q 179.074 -102.368 177.794 -102.368 Q 176.642 -102.368 175.954 -102.648 Q 175.266 -102.928 174.962 -103.368 Q 174.658 -103.808 174.658 -104.288 Q 174.658 -105.056 175.25 -105.528 Q 175.842 -106 176.594 -106.24 L 176.594 -106.304 Q 176.386 -106.432 176.202 -106.664 Q 176.018 -106.896 176.018 -107.264 Q 176.018 -107.664 176.226 -107.904 Q 176.434 -108.144 176.762 -108.296 Q 177.09 -108.448 177.41 -108.56 L 177.41 -108.656 Q 176.786 -108.928 176.322 -109.424 Q 175.858 -109.92 175.858 -110.832 Q 175.858 -111.664 176.258 -112.296 Q 176.658 -112.928 177.354 -113.28 Q 178.05 -113.632 178.914 -113.632 Q 179.49 -113.632 179.786 -113.576 Q 180.082 -113.52 180.37 -113.44 Z M 180.578 -104.352 L 180.578 -104.352 Q 180.578 -104.832 180.178 -105.128 Q 179.778 -105.424 179.186 -105.6 Q 178.594 -105.776 177.994 -105.88 Q 177.394 -105.984 176.978 -106.064 Q 176.578 -105.808 176.242 -105.48 Q 175.906 -105.152 175.906 -104.528 Q 175.906 -103.888 176.402 -103.408 Q 176.898 -102.928 178.114 -102.928 Q 179.266 -102.928 179.922 -103.352 Q 180.578 -103.776 180.578 -104.352 Z M 180.178 -111.28 L 180.178 -111.28 Q 180.178 -112.08 179.874 -112.616 Q 179.57 -113.152 178.866 -113.152 Q 178.178 -113.152 177.73 -112.576 Q 177.282 -112 177.282 -110.832 Q 177.282 -110 177.57 -109.48 Q 177.858 -108.96 178.546 -108.96 Q 179.346 -108.96 179.762 -109.632 Q 180.178 -110.304 180.178 -111.28 Z " fill="black" /><path d="M 184.81 -106.606 L 184.81 -106.606 L 184.81 -103.694 Q 184.81 -103.224 184.972 -103.078 Q 185.134 -102.933 185.65 -102.933 L 185.65 -102.608 L 183.096 -102.608 L 183.096 -102.933 Q 183.454 -102.933 183.617 -102.994 Q 183.779 -103.056 183.83 -103.23 Q 183.88 -103.403 183.88 -103.739 L 183.88 -106.875 Q 183.88 -107.178 183.762 -107.278 Q 183.645 -107.379 183.41 -107.379 Q 183.286 -107.379 183.197 -107.368 Q 183.107 -107.357 183.107 -107.357 L 183.107 -107.682 L 184.507 -108.006 L 184.776 -108.006 L 184.776 -107.099 L 184.821 -107.099 Q 185.28 -107.491 185.706 -107.766 Q 186.131 -108.04 186.702 -108.04 Q 187.184 -108.04 187.481 -107.777 Q 187.778 -107.514 187.946 -107.11 L 187.99 -107.11 Q 188.45 -107.57 188.886 -107.805 Q 189.323 -108.04 189.771 -108.04 Q 190.432 -108.04 190.824 -107.626 Q 191.216 -107.211 191.216 -106.192 L 191.216 -103.907 Q 191.216 -103.56 191.255 -103.342 Q 191.294 -103.123 191.468 -103.028 Q 191.642 -102.933 192.022 -102.933 L 192.022 -102.608 L 189.491 -102.608 L 189.491 -102.933 Q 189.872 -102.933 190.04 -103.034 Q 190.208 -103.134 190.247 -103.353 Q 190.286 -103.571 190.286 -103.907 L 190.286 -106.058 Q 190.286 -106.573 190.158 -106.842 Q 190.029 -107.11 189.81 -107.217 Q 189.592 -107.323 189.323 -107.323 Q 188.976 -107.323 188.646 -107.094 Q 188.315 -106.864 188.035 -106.629 L 188.035 -103.907 Q 188.035 -103.526 188.086 -103.314 Q 188.136 -103.101 188.315 -103.017 Q 188.494 -102.933 188.898 -102.933 L 188.898 -102.608 L 186.243 -102.608 L 186.243 -102.933 Q 186.646 -102.933 186.826 -103.011 Q 187.005 -103.09 187.055 -103.302 Q 187.106 -103.515 187.106 -103.907 L 187.106 -106.125 Q 187.106 -106.842 186.854 -107.082 Q 186.602 -107.323 186.21 -107.323 Q 185.773 -107.323 185.414 -107.077 Q 185.056 -106.83 184.81 -106.606 Z " fill="black" /><path d="M 193.243 -108.186 L 193.243 -108.186 L 192.986 -108.331 Q 193.624 -109.821 195.013 -109.821 Q 195.875 -109.821 196.346 -109.39 Q 196.816 -108.958 196.816 -108.32 Q 196.816 -107.738 196.474 -107.379 Q 196.133 -107.021 195.606 -106.685 L 195.606 -106.651 Q 196.054 -106.517 196.43 -106.265 Q 196.805 -106.013 197.029 -105.649 Q 197.253 -105.285 197.253 -104.781 Q 197.253 -104.019 196.827 -103.498 Q 196.402 -102.978 195.707 -102.72 Q 195.013 -102.462 194.195 -102.462 Q 193.691 -102.462 193.422 -102.558 Q 193.154 -102.653 193.047 -102.793 Q 192.941 -102.933 192.941 -103.078 Q 192.941 -103.258 193.053 -103.414 Q 193.165 -103.571 193.378 -103.571 Q 193.512 -103.571 193.63 -103.521 Q 193.747 -103.47 194.038 -103.314 Q 194.397 -103.134 194.57 -103.078 Q 194.744 -103.022 194.946 -103.022 Q 195.304 -103.022 195.618 -103.151 Q 195.931 -103.28 196.133 -103.588 Q 196.334 -103.896 196.334 -104.445 Q 196.334 -104.949 196.054 -105.318 Q 195.774 -105.688 195.31 -105.895 Q 194.845 -106.102 194.307 -106.102 L 194.083 -106.102 L 194.083 -106.528 L 194.296 -106.528 Q 194.677 -106.528 195.035 -106.718 Q 195.394 -106.909 195.623 -107.256 Q 195.853 -107.603 195.853 -108.051 Q 195.853 -108.544 195.545 -108.818 Q 195.237 -109.093 194.71 -109.093 Q 194.206 -109.093 193.87 -108.863 Q 193.534 -108.634 193.243 -108.186 Z " fill="black" /><path d="M 203.211 -104.378 L 203.211 -104.378 L 202.069 -104.378 L 202.069 -102.608 L 201.072 -102.608 L 201.072 -104.378 L 197.97 -104.378 L 197.97 -105.083 L 201.386 -109.832 L 202.069 -109.832 L 202.069 -105.15 L 203.211 -105.15 Z M 201.072 -105.15 L 201.072 -105.15 L 201.072 -108.611 L 201.027 -108.611 L 198.586 -105.195 L 198.586 -105.15 Z " fill="black" /></g></g></g><g><g><g><path d="M 294.461 29.364 L 294.461 29.364 L 294.365 30.18 L 292.973 30.02 L 292.973 30.068 Q 293.245 30.372 293.397 30.828 Q 293.549 31.284 293.549 31.7 Q 293.549 32.42 293.261 32.908 Q 292.973 33.396 292.509 33.692 Q 292.045 33.988 291.485 34.14 Q 290.925 34.292 290.397 34.34 Q 289.757 34.404 289.493 34.612 Q 289.229 34.82 289.229 35.044 Q 289.229 35.332 289.549 35.484 Q 289.869 35.636 290.373 35.732 Q 290.877 35.828 291.453 35.948 Q 292.029 36.068 292.533 36.276 Q 293.037 36.484 293.357 36.86 Q 293.677 37.236 293.677 37.86 Q 293.677 38.548 293.229 39.132 Q 292.781 39.716 291.901 40.076 Q 291.021 40.436 289.741 40.436 Q 288.589 40.436 287.901 40.156 Q 287.213 39.876 286.909 39.436 Q 286.605 38.996 286.605 38.516 Q 286.605 37.748 287.197 37.276 Q 287.789 36.804 288.541 36.564 L 288.541 36.5 Q 288.333 36.372 288.149 36.14 Q 287.965 35.908 287.965 35.54 Q 287.965 35.14 288.173 34.9 Q 288.381 34.66 288.709 34.508 Q 289.037 34.356 289.357 34.244 L 289.357 34.148 Q 288.733 33.876 288.269 33.38 Q 287.805 32.884 287.805 31.972 Q 287.805 31.14 288.205 30.508 Q 288.605 29.876 289.301 29.524 Q 289.997 29.172 290.861 29.172 Q 291.437 29.172 291.733 29.228 Q 292.029 29.284 292.317 29.364 Z M 292.525 38.452 L 292.525 38.452 Q 292.525 37.972 292.125 37.676 Q 291.725 37.38 291.133 37.204 Q 290.541 37.028 289.941 36.924 Q 289.341 36.82 288.925 36.74 Q 288.525 36.996 288.189 37.324 Q 287.853 37.652 287.853 38.276 Q 287.853 38.916 288.349 39.396 Q 288.845 39.876 290.061 39.876 Q 291.213 39.876 291.869 39.452 Q 292.525 39.028 292.525 38.452 Z M 292.125 31.524 L 292.125 31.524 Q 292.125 30.724 291.821 30.188 Q 291.517 29.652 290.813 29.652 Q 290.125 29.652 289.677 30.228 Q 289.229 30.804 289.229 31.972 Q 289.229 32.804 289.517 33.324 Q 289.805 33.844 290.493 33.844 Q 291.293 33.844 291.709 33.172 Q 292.125 32.5 292.125 31.524 Z " fill="black" /><path d="M 296.757 36.198 L 296.757 36.198 L 296.757 39.11 Q 296.757 39.58 296.919 39.726 Q 297.082 39.871 297.597 39.871 L 297.597 40.196 L 295.043 40.196 L 295.043 39.871 Q 295.402 39.871 295.564 39.81 Q 295.726 39.748 295.777 39.574 Q 295.827 39.401 295.827 39.065 L 295.827 35.929 Q 295.827 35.626 295.71 35.526 Q 295.592 35.425 295.357 35.425 Q 295.234 35.425 295.144 35.436 Q 295.054 35.447 295.054 35.447 L 295.054 35.122 L 296.454 34.798 L 296.723 34.798 L 296.723 35.705 L 296.768 35.705 Q 297.227 35.313 297.653 35.038 Q 298.078 34.764 298.65 34.764 Q 299.131 34.764 299.428 35.027 Q 299.725 35.29 299.893 35.694 L 299.938 35.694 Q 300.397 35.234 300.834 34.999 Q 301.27 34.764 301.718 34.764 Q 302.379 34.764 302.771 35.178 Q 303.163 35.593 303.163 36.612 L 303.163 38.897 Q 303.163 39.244 303.202 39.462 Q 303.242 39.681 303.415 39.776 Q 303.589 39.871 303.97 39.871 L 303.97 40.196 L 301.438 40.196 L 301.438 39.871 Q 301.819 39.871 301.987 39.77 Q 302.155 39.67 302.194 39.451 Q 302.234 39.233 302.234 38.897 L 302.234 36.746 Q 302.234 36.231 302.105 35.962 Q 301.976 35.694 301.758 35.587 Q 301.539 35.481 301.27 35.481 Q 300.923 35.481 300.593 35.71 Q 300.262 35.94 299.982 36.175 L 299.982 38.897 Q 299.982 39.278 300.033 39.49 Q 300.083 39.703 300.262 39.787 Q 300.442 39.871 300.845 39.871 L 300.845 40.196 L 298.19 40.196 L 298.19 39.871 Q 298.594 39.871 298.773 39.793 Q 298.952 39.714 299.002 39.502 Q 299.053 39.289 299.053 38.897 L 299.053 36.679 Q 299.053 35.962 298.801 35.722 Q 298.549 35.481 298.157 35.481 Q 297.72 35.481 297.362 35.727 Q 297.003 35.974 296.757 36.198 Z " fill="black" /><path d="M 308.998 40.196 L 308.998 40.196 L 305.123 40.196 L 305.123 39.882 Q 305.918 39.882 306.243 39.714 Q 306.568 39.546 306.568 39.132 L 306.568 34.394 Q 306.568 34.103 306.49 33.974 Q 306.411 33.846 306.198 33.846 Q 306.03 33.846 305.672 33.89 Q 305.314 33.935 305.056 34.025 L 305.056 33.655 L 307.229 33.039 L 307.554 33.039 L 307.554 39.132 Q 307.554 39.546 307.89 39.714 Q 308.226 39.882 308.998 39.882 Z " fill="black" /><path d="M 314.968 38.404 L 314.968 38.404 L 314.61 40.196 L 310.197 40.196 L 310.197 39.815 L 311.899 38.113 Q 312.459 37.542 312.829 37.077 Q 313.198 36.612 313.383 36.142 Q 313.568 35.671 313.568 35.089 Q 313.568 34.462 313.193 34.086 Q 312.818 33.711 312.168 33.711 Q 311.619 33.711 311.233 33.946 Q 310.846 34.182 310.533 34.809 L 310.264 34.697 Q 310.522 33.879 311.082 33.431 Q 311.642 32.983 312.459 32.983 Q 313.098 32.983 313.579 33.224 Q 314.061 33.465 314.335 33.896 Q 314.61 34.327 314.61 34.921 Q 314.61 35.414 314.402 35.867 Q 314.195 36.321 313.786 36.802 Q 313.378 37.284 312.784 37.889 L 311.306 39.289 L 311.306 39.345 L 312.09 39.311 L 313.646 39.311 Q 314.094 39.311 314.274 39.11 Q 314.453 38.908 314.643 38.404 Z " fill="black" /><path d="M 318.515 29.22 L 318.515 29.22 L 318.867 29.22 L 318.115 32.292 Q 318.003 32.708 317.883 33.292 Q 317.763 33.876 317.763 34.42 Q 317.763 35.044 318.019 35.5 Q 318.275 35.956 319.011 35.956 Q 319.827 35.956 320.419 35.564 Q 321.011 35.172 321.387 34.564 Q 321.763 33.956 321.947 33.284 Q 322.131 32.612 322.131 32.052 Q 322.131 31.636 321.987 31.332 Q 321.843 31.028 321.643 30.788 Q 321.443 30.548 321.299 30.324 Q 321.155 30.1 321.155 29.844 Q 321.155 29.524 321.331 29.348 Q 321.507 29.172 321.763 29.172 Q 322.307 29.172 322.643 29.716 Q 322.979 30.26 322.979 31.108 Q 322.979 31.844 322.795 32.652 Q 322.611 33.46 322.243 34.228 Q 321.875 34.996 321.331 35.62 Q 320.787 36.244 320.083 36.612 Q 319.379 36.98 318.515 36.98 Q 317.715 36.98 317.267 36.66 Q 316.819 36.34 316.635 35.812 Q 316.451 35.284 316.451 34.676 Q 316.451 34.1 316.563 33.492 Q 316.675 32.884 316.803 32.388 L 317.123 31.172 Q 317.155 31.044 317.219 30.788 Q 317.283 30.532 317.283 30.292 Q 317.283 30.084 317.203 29.94 Q 317.123 29.796 316.899 29.796 Q 316.707 29.796 316.435 29.82 Q 316.163 29.844 316.163 29.844 L 316.163 29.396 Z " fill="black" /><path d="M 324.413 38.135 L 324.413 38.135 L 324.413 38.113 Q 324.01 37.878 323.78 37.508 Q 323.55 37.138 323.55 36.59 Q 323.55 35.75 324.122 35.257 Q 324.693 34.764 325.578 34.764 Q 325.947 34.764 326.227 34.831 Q 326.507 34.898 326.664 34.971 Q 326.821 35.044 326.821 35.044 L 328.266 34.966 L 328.266 35.57 L 327.213 35.537 L 327.213 35.593 Q 327.336 35.761 327.476 36.041 Q 327.616 36.321 327.616 36.746 Q 327.616 37.53 327.067 37.99 Q 326.518 38.449 325.634 38.449 Q 325.365 38.449 325.13 38.404 Q 324.894 38.359 324.67 38.281 Q 324.592 38.393 324.486 38.639 Q 324.379 38.886 324.379 39.031 Q 324.379 39.278 324.654 39.378 Q 324.928 39.479 325.701 39.479 Q 326.406 39.479 326.972 39.546 Q 327.538 39.614 327.862 39.894 Q 328.187 40.174 328.187 40.812 Q 328.187 41.372 327.913 41.758 Q 327.638 42.145 327.185 42.38 Q 326.731 42.615 326.188 42.722 Q 325.645 42.828 325.118 42.828 Q 324.39 42.828 323.97 42.649 Q 323.55 42.47 323.382 42.184 Q 323.214 41.898 323.214 41.596 Q 323.214 41.316 323.444 41.008 Q 323.674 40.7 324.122 40.263 L 324.122 40.218 Q 323.842 40.073 323.668 39.86 Q 323.494 39.647 323.494 39.412 Q 323.494 39.11 323.758 38.774 Q 324.021 38.438 324.413 38.135 Z M 324.402 40.308 L 324.402 40.308 Q 324.222 40.622 324.155 40.829 Q 324.088 41.036 324.088 41.215 Q 324.088 42.19 325.768 42.19 Q 326.429 42.19 326.838 42.022 Q 327.246 41.854 327.431 41.607 Q 327.616 41.361 327.616 41.126 Q 327.616 40.834 327.437 40.672 Q 327.258 40.51 326.972 40.442 Q 326.686 40.375 326.367 40.353 Q 326.048 40.33 325.768 40.33 Q 325.701 40.33 325.667 40.33 Q 325.219 40.319 324.973 40.319 Q 324.726 40.319 324.603 40.314 Q 324.48 40.308 324.402 40.308 Z M 325.499 35.167 L 325.499 35.167 Q 325.062 35.167 324.799 35.503 Q 324.536 35.839 324.536 36.545 Q 324.536 37.262 324.816 37.659 Q 325.096 38.057 325.645 38.057 Q 326.07 38.057 326.345 37.766 Q 326.619 37.474 326.619 36.679 Q 326.619 35.996 326.328 35.582 Q 326.037 35.167 325.499 35.167 Z " fill="black" /><path d="M 328.837 38.359 L 328.837 38.359 L 329.128 38.359 Q 329.307 39.222 329.654 39.563 Q 330.002 39.905 330.618 39.905 Q 331.043 39.905 331.312 39.731 Q 331.581 39.558 331.581 39.166 Q 331.581 38.897 331.486 38.718 Q 331.39 38.538 331.122 38.354 Q 330.853 38.169 330.326 37.911 Q 329.565 37.519 329.206 37.155 Q 328.848 36.791 328.848 36.175 Q 328.848 35.481 329.346 35.122 Q 329.845 34.764 330.562 34.764 Q 330.987 34.764 331.256 34.859 Q 331.525 34.954 331.738 35.055 L 331.749 35.055 L 331.939 34.82 L 332.163 34.82 L 332.197 36.534 L 331.894 36.534 Q 331.715 35.738 331.39 35.442 Q 331.066 35.145 330.55 35.145 Q 330.17 35.145 329.906 35.324 Q 329.643 35.503 329.643 35.884 Q 329.643 36.209 329.946 36.466 Q 330.248 36.724 330.954 37.082 Q 331.715 37.486 332.118 37.861 Q 332.522 38.236 332.522 38.863 Q 332.522 39.39 332.264 39.709 Q 332.006 40.028 331.575 40.174 Q 331.144 40.319 330.64 40.319 Q 330.158 40.319 329.873 40.218 Q 329.587 40.118 329.363 40.028 L 329.341 40.028 L 329.106 40.286 L 328.87 40.286 Z " fill="black" /><path d="M 338.021 38.404 L 338.021 38.404 L 337.662 40.196 L 333.25 40.196 L 333.25 39.815 L 334.952 38.113 Q 335.512 37.542 335.882 37.077 Q 336.251 36.612 336.436 36.142 Q 336.621 35.671 336.621 35.089 Q 336.621 34.462 336.246 34.086 Q 335.87 33.711 335.221 33.711 Q 334.672 33.711 334.286 33.946 Q 333.899 34.182 333.586 34.809 L 333.317 34.697 Q 333.574 33.879 334.134 33.431 Q 334.694 32.983 335.512 32.983 Q 336.15 32.983 336.632 33.224 Q 337.114 33.465 337.388 33.896 Q 337.662 34.327 337.662 34.921 Q 337.662 35.414 337.455 35.867 Q 337.248 36.321 336.839 36.802 Q 336.43 37.284 335.837 37.889 L 334.358 39.289 L 334.358 39.345 L 335.142 39.311 L 336.699 39.311 Q 337.147 39.311 337.326 39.11 Q 337.506 38.908 337.696 38.404 Z " fill="black" /></g></g></g><circle cx="360.0" cy="-36.0" r="2.6999999999999997" style="stroke:black;fill:black;stroke-width:2.0;" /><g><g><g><path d="M 288.917 -114.636 L 288.917 -114.636 L 288.821 -113.82 L 287.429 -113.98 L 287.429 -113.932 Q 287.701 -113.628 287.853 -113.172 Q 288.005 -112.716 288.005 -112.3 Q 288.005 -111.58 287.717 -111.092 Q 287.429 -110.604 286.965 -110.308 Q 286.501 -110.012 285.941 -109.86 Q 285.381 -109.708 284.853 -109.66 Q 284.213 -109.596 283.949 -109.388 Q 283.685 -109.18 283.685 -108.956 Q 283.685 -108.668 284.005 -108.516 Q 284.325 -108.364 284.829 -108.268 Q 285.333 -108.172 285.909 -108.052 Q 286.485 -107.932 286.989 -107.724 Q 287.493 -107.516 287.813 -107.14 Q 288.133 -106.764 288.133 -106.14 Q 288.133 -105.452 287.685 -104.868 Q 287.237 -104.284 286.357 -103.924 Q 285.477 -103.564 284.197 -103.564 Q 283.045 -103.564 282.357 -103.844 Q 281.669 -104.124 281.365 -104.564 Q 281.061 -105.004 281.061 -105.484 Q 281.061 -106.252 281.653 -106.724 Q 282.245 -107.196 282.997 -107.436 L 282.997 -107.5 Q 282.789 -107.628 282.605 -107.86 Q 282.421 -108.092 282.421 -108.46 Q 282.421 -108.86 282.629 -109.1 Q 282.837 -109.34 283.165 -109.492 Q 283.493 -109.644 283.813 -109.756 L 283.813 -109.852 Q 283.189 -110.124 282.725 -110.62 Q 282.261 -111.116 282.261 -112.028 Q 282.261 -112.86 282.661 -113.492 Q 283.061 -114.124 283.757 -114.476 Q 284.453 -114.828 285.317 -114.828 Q 285.893 -114.828 286.189 -114.772 Q 286.485 -114.716 286.773 -114.636 Z M 286.981 -105.548 L 286.981 -105.548 Q 286.981 -106.028 286.581 -106.324 Q 286.181 -106.62 285.589 -106.796 Q 284.997 -106.972 284.397 -107.076 Q 283.797 -107.18 283.381 -107.26 Q 282.981 -107.004 282.645 -106.676 Q 282.309 -106.348 282.309 -105.724 Q 282.309 -105.084 282.805 -104.604 Q 283.301 -104.124 284.517 -104.124 Q 285.669 -104.124 286.325 -104.548 Q 286.981 -104.972 286.981 -105.548 Z M 286.581 -112.476 L 286.581 -112.476 Q 286.581 -113.276 286.277 -113.812 Q 285.973 -114.348 285.269 -114.348 Q 284.581 -114.348 284.133 -113.772 Q 283.685 -113.196 283.685 -112.028 Q 283.685 -111.196 283.973 -110.676 Q 284.261 -110.156 284.949 -110.156 Q 285.749 -110.156 286.165 -110.828 Q 286.581 -111.5 286.581 -112.476 Z " fill="black" /><path d="M 291.213 -107.802 L 291.213 -107.802 L 291.213 -104.89 Q 291.213 -104.42 291.375 -104.274 Q 291.538 -104.129 292.053 -104.129 L 292.053 -103.804 L 289.499 -103.804 L 289.499 -104.129 Q 289.858 -104.129 290.02 -104.19 Q 290.182 -104.252 290.233 -104.426 Q 290.283 -104.599 290.283 -104.935 L 290.283 -108.071 Q 290.283 -108.374 290.166 -108.474 Q 290.048 -108.575 289.813 -108.575 Q 289.69 -108.575 289.6 -108.564 Q 289.51 -108.553 289.51 -108.553 L 289.51 -108.878 L 290.91 -109.202 L 291.179 -109.202 L 291.179 -108.295 L 291.224 -108.295 Q 291.683 -108.687 292.109 -108.962 Q 292.534 -109.236 293.106 -109.236 Q 293.587 -109.236 293.884 -108.973 Q 294.181 -108.71 294.349 -108.306 L 294.394 -108.306 Q 294.853 -108.766 295.29 -109.001 Q 295.726 -109.236 296.174 -109.236 Q 296.835 -109.236 297.227 -108.822 Q 297.619 -108.407 297.619 -107.388 L 297.619 -105.103 Q 297.619 -104.756 297.658 -104.538 Q 297.698 -104.319 297.871 -104.224 Q 298.045 -104.129 298.426 -104.129 L 298.426 -103.804 L 295.894 -103.804 L 295.894 -104.129 Q 296.275 -104.129 296.443 -104.23 Q 296.611 -104.33 296.65 -104.549 Q 296.69 -104.767 296.69 -105.103 L 296.69 -107.254 Q 296.69 -107.769 296.561 -108.038 Q 296.432 -108.306 296.214 -108.413 Q 295.995 -108.519 295.726 -108.519 Q 295.379 -108.519 295.049 -108.29 Q 294.718 -108.06 294.438 -107.825 L 294.438 -105.103 Q 294.438 -104.722 294.489 -104.51 Q 294.539 -104.297 294.718 -104.213 Q 294.898 -104.129 295.301 -104.129 L 295.301 -103.804 L 292.646 -103.804 L 292.646 -104.129 Q 293.05 -104.129 293.229 -104.207 Q 293.408 -104.286 293.458 -104.498 Q 293.509 -104.711 293.509 -105.103 L 293.509 -107.321 Q 293.509 -108.038 293.257 -108.278 Q 293.005 -108.519 292.613 -108.519 Q 292.176 -108.519 291.818 -108.273 Q 291.459 -108.026 291.213 -107.802 Z " fill="black" /><path d="M 299.646 -109.382 L 299.646 -109.382 L 299.389 -109.527 Q 300.027 -111.017 301.416 -111.017 Q 302.278 -111.017 302.749 -110.586 Q 303.219 -110.154 303.219 -109.516 Q 303.219 -108.934 302.878 -108.575 Q 302.536 -108.217 302.01 -107.881 L 302.01 -107.847 Q 302.458 -107.713 302.833 -107.461 Q 303.208 -107.209 303.432 -106.845 Q 303.656 -106.481 303.656 -105.977 Q 303.656 -105.215 303.23 -104.694 Q 302.805 -104.174 302.11 -103.916 Q 301.416 -103.658 300.598 -103.658 Q 300.094 -103.658 299.826 -103.754 Q 299.557 -103.849 299.45 -103.989 Q 299.344 -104.129 299.344 -104.274 Q 299.344 -104.454 299.456 -104.61 Q 299.568 -104.767 299.781 -104.767 Q 299.915 -104.767 300.033 -104.717 Q 300.15 -104.666 300.442 -104.51 Q 300.8 -104.33 300.974 -104.274 Q 301.147 -104.218 301.349 -104.218 Q 301.707 -104.218 302.021 -104.347 Q 302.334 -104.476 302.536 -104.784 Q 302.738 -105.092 302.738 -105.641 Q 302.738 -106.145 302.458 -106.514 Q 302.178 -106.884 301.713 -107.091 Q 301.248 -107.298 300.71 -107.298 L 300.486 -107.298 L 300.486 -107.724 L 300.699 -107.724 Q 301.08 -107.724 301.438 -107.914 Q 301.797 -108.105 302.026 -108.452 Q 302.256 -108.799 302.256 -109.247 Q 302.256 -109.74 301.948 -110.014 Q 301.64 -110.289 301.114 -110.289 Q 300.61 -110.289 300.274 -110.059 Q 299.938 -109.83 299.646 -109.382 Z " fill="black" /><path d="M 309.614 -105.574 L 309.614 -105.574 L 308.472 -105.574 L 308.472 -103.804 L 307.475 -103.804 L 307.475 -105.574 L 304.373 -105.574 L 304.373 -106.279 L 307.789 -111.028 L 308.472 -111.028 L 308.472 -106.346 L 309.614 -106.346 Z M 307.475 -106.346 L 307.475 -106.346 L 307.475 -109.807 L 307.43 -109.807 L 304.989 -106.391 L 304.989 -106.346 Z " fill="black" /><path d="M 312.971 -114.78 L 312.971 -114.78 L 313.323 -114.78 L 312.571 -111.708 Q 312.459 -111.292 312.339 -110.708 Q 312.219 -110.124 312.219 -109.58 Q 312.219 -108.956 312.475 -108.5 Q 312.731 -108.044 313.467 -108.044 Q 314.283 -108.044 314.875 -108.436 Q 315.467 -108.828 315.843 -109.436 Q 316.219 -110.044 316.403 -110.716 Q 316.587 -111.388 316.587 -111.948 Q 316.587 -112.364 316.443 -112.668 Q 316.299 -112.972 316.099 -113.212 Q 315.899 -113.452 315.755 -113.676 Q 315.611 -113.9 315.611 -114.156 Q 315.611 -114.476 315.787 -114.652 Q 315.963 -114.828 316.219 -114.828 Q 316.763 -114.828 317.099 -114.284 Q 317.435 -113.74 317.435 -112.892 Q 317.435 -112.156 317.251 -111.348 Q 317.067 -110.54 316.699 -109.772 Q 316.331 -109.004 315.787 -108.38 Q 315.243 -107.756 314.539 -107.388 Q 313.835 -107.02 312.971 -107.02 Q 312.171 -107.02 311.723 -107.34 Q 311.275 -107.66 311.091 -108.188 Q 310.907 -108.716 310.907 -109.324 Q 310.907 -109.9 311.019 -110.508 Q 311.131 -111.116 311.259 -111.612 L 311.579 -112.828 Q 311.611 -112.956 311.675 -113.212 Q 311.739 -113.468 311.739 -113.708 Q 311.739 -113.916 311.659 -114.06 Q 311.579 -114.204 311.355 -114.204 Q 311.163 -114.204 310.891 -114.18 Q 310.619 -114.156 310.619 -114.156 L 310.619 -114.604 Z " fill="black" /><path d="M 318.869 -105.865 L 318.869 -105.865 L 318.869 -105.887 Q 318.466 -106.122 318.236 -106.492 Q 318.006 -106.862 318.006 -107.41 Q 318.006 -108.25 318.578 -108.743 Q 319.149 -109.236 320.034 -109.236 Q 320.403 -109.236 320.683 -109.169 Q 320.963 -109.102 321.12 -109.029 Q 321.277 -108.956 321.277 -108.956 L 322.722 -109.034 L 322.722 -108.43 L 321.669 -108.463 L 321.669 -108.407 Q 321.792 -108.239 321.932 -107.959 Q 322.072 -107.679 322.072 -107.254 Q 322.072 -106.47 321.523 -106.01 Q 320.974 -105.551 320.09 -105.551 Q 319.821 -105.551 319.586 -105.596 Q 319.35 -105.641 319.126 -105.719 Q 319.048 -105.607 318.942 -105.361 Q 318.835 -105.114 318.835 -104.969 Q 318.835 -104.722 319.11 -104.622 Q 319.384 -104.521 320.157 -104.521 Q 320.862 -104.521 321.428 -104.454 Q 321.994 -104.386 322.318 -104.106 Q 322.643 -103.826 322.643 -103.188 Q 322.643 -102.628 322.369 -102.242 Q 322.094 -101.855 321.641 -101.62 Q 321.187 -101.385 320.644 -101.278 Q 320.101 -101.172 319.574 -101.172 Q 318.846 -101.172 318.426 -101.351 Q 318.006 -101.53 317.838 -101.816 Q 317.67 -102.102 317.67 -102.404 Q 317.67 -102.684 317.9 -102.992 Q 318.13 -103.3 318.578 -103.737 L 318.578 -103.782 Q 318.298 -103.927 318.124 -104.14 Q 317.95 -104.353 317.95 -104.588 Q 317.95 -104.89 318.214 -105.226 Q 318.477 -105.562 318.869 -105.865 Z M 318.858 -103.692 L 318.858 -103.692 Q 318.678 -103.378 318.611 -103.171 Q 318.544 -102.964 318.544 -102.785 Q 318.544 -101.81 320.224 -101.81 Q 320.885 -101.81 321.294 -101.978 Q 321.702 -102.146 321.887 -102.393 Q 322.072 -102.639 322.072 -102.874 Q 322.072 -103.166 321.893 -103.328 Q 321.714 -103.49 321.428 -103.558 Q 321.142 -103.625 320.823 -103.647 Q 320.504 -103.67 320.224 -103.67 Q 320.157 -103.67 320.123 -103.67 Q 319.675 -103.681 319.429 -103.681 Q 319.182 -103.681 319.059 -103.686 Q 318.936 -103.692 318.858 -103.692 Z M 319.955 -108.833 L 319.955 -108.833 Q 319.518 -108.833 319.255 -108.497 Q 318.992 -108.161 318.992 -107.455 Q 318.992 -106.738 319.272 -106.341 Q 319.552 -105.943 320.101 -105.943 Q 320.526 -105.943 320.801 -106.234 Q 321.075 -106.526 321.075 -107.321 Q 321.075 -108.004 320.784 -108.418 Q 320.493 -108.833 319.955 -108.833 Z " fill="black" /><path d="M 323.293 -105.641 L 323.293 -105.641 L 323.584 -105.641 Q 323.763 -104.778 324.11 -104.437 Q 324.458 -104.095 325.074 -104.095 Q 325.499 -104.095 325.768 -104.269 Q 326.037 -104.442 326.037 -104.834 Q 326.037 -105.103 325.942 -105.282 Q 325.846 -105.462 325.578 -105.646 Q 325.309 -105.831 324.782 -106.089 Q 324.021 -106.481 323.662 -106.845 Q 323.304 -107.209 323.304 -107.825 Q 323.304 -108.519 323.802 -108.878 Q 324.301 -109.236 325.018 -109.236 Q 325.443 -109.236 325.712 -109.141 Q 325.981 -109.046 326.194 -108.945 L 326.205 -108.945 L 326.395 -109.18 L 326.619 -109.18 L 326.653 -107.466 L 326.35 -107.466 Q 326.171 -108.262 325.846 -108.558 Q 325.522 -108.855 325.006 -108.855 Q 324.626 -108.855 324.362 -108.676 Q 324.099 -108.497 324.099 -108.116 Q 324.099 -107.791 324.402 -107.534 Q 324.704 -107.276 325.41 -106.918 Q 326.171 -106.514 326.574 -106.139 Q 326.978 -105.764 326.978 -105.137 Q 326.978 -104.61 326.72 -104.291 Q 326.462 -103.972 326.031 -103.826 Q 325.6 -103.681 325.096 -103.681 Q 324.614 -103.681 324.329 -103.782 Q 324.043 -103.882 323.819 -103.972 L 323.797 -103.972 L 323.562 -103.714 L 323.326 -103.714 Z " fill="black" /><path d="M 328.243 -109.382 L 328.243 -109.382 L 327.986 -109.527 Q 328.624 -111.017 330.013 -111.017 Q 330.875 -111.017 331.346 -110.586 Q 331.816 -110.154 331.816 -109.516 Q 331.816 -108.934 331.474 -108.575 Q 331.133 -108.217 330.606 -107.881 L 330.606 -107.847 Q 331.054 -107.713 331.43 -107.461 Q 331.805 -107.209 332.029 -106.845 Q 332.253 -106.481 332.253 -105.977 Q 332.253 -105.215 331.827 -104.694 Q 331.402 -104.174 330.707 -103.916 Q 330.013 -103.658 329.195 -103.658 Q 328.691 -103.658 328.422 -103.754 Q 328.154 -103.849 328.047 -103.989 Q 327.941 -104.129 327.941 -104.274 Q 327.941 -104.454 328.053 -104.61 Q 328.165 -104.767 328.378 -104.767 Q 328.512 -104.767 328.63 -104.717 Q 328.747 -104.666 329.038 -104.51 Q 329.397 -104.33 329.57 -104.274 Q 329.744 -104.218 329.946 -104.218 Q 330.304 -104.218 330.618 -104.347 Q 330.931 -104.476 331.133 -104.784 Q 331.334 -105.092 331.334 -105.641 Q 331.334 -106.145 331.054 -106.514 Q 330.774 -106.884 330.31 -107.091 Q 329.845 -107.298 329.307 -107.298 L 329.083 -107.298 L 329.083 -107.724 L 329.296 -107.724 Q 329.677 -107.724 330.035 -107.914 Q 330.394 -108.105 330.623 -108.452 Q 330.853 -108.799 330.853 -109.247 Q 330.853 -109.74 330.545 -110.014 Q 330.237 -110.289 329.71 -110.289 Q 329.206 -110.289 328.87 -110.059 Q 328.534 -109.83 328.243 -109.382 Z " fill="black" /><path d="M 338.211 -105.574 L 338.211 -105.574 L 337.069 -105.574 L 337.069 -103.804 L 336.072 -103.804 L 336.072 -105.574 L 332.97 -105.574 L 332.97 -106.279 L 336.386 -111.028 L 337.069 -111.028 L 337.069 -106.346 L 338.211 -106.346 Z M 336.072 -106.346 L 336.072 -106.346 L 336.072 -109.807 L 336.027 -109.807 L 333.586 -106.391 L 333.586 -106.346 Z " fill="black" /></g></g></g><circle cx="576.0" cy="-36.0" r="2.6999999999999997" style="stroke:black;fill:black;stroke-width:2.0;" /><g><g><g><path d="M 461.308 -53.388 L 461.308 -53.388 L 461.66 -53.388 L 460.908 -50.316 Q 460.796 -49.9 460.676 -49.316 Q 460.556 -48.732 460.556 -48.188 Q 460.556 -47.564 460.812 -47.108 Q 461.068 -46.652 461.804 -46.652 Q 462.62 -46.652 463.212 -47.044 Q 463.804 -47.436 464.18 -48.044 Q 464.556 -48.652 464.74 -49.324 Q 464.924 -49.996 464.924 -50.556 Q 464.924 -50.972 464.78 -51.276 Q 464.636 -51.58 464.436 -51.82 Q 464.236 -52.06 464.092 -52.284 Q 463.948 -52.508 463.948 -52.764 Q 463.948 -53.084 464.124 -53.26 Q 464.3 -53.436 464.556 -53.436 Q 465.1 -53.436 465.436 -52.892 Q 465.772 -52.348 465.772 -51.5 Q 465.772 -50.764 465.588 -49.956 Q 465.404 -49.148 465.036 -48.38 Q 464.668 -47.612 464.124 -46.988 Q 463.58 -46.364 462.876 -45.996 Q 462.172 -45.628 461.308 -45.628 Q 460.508 -45.628 460.06 -45.948 Q 459.612 -46.268 459.428 -46.796 Q 459.244 -47.324 459.244 -47.932 Q 459.244 -48.508 459.356 -49.116 Q 459.468 -49.724 459.596 -50.22 L 459.916 -51.436 Q 459.948 -51.564 460.012 -51.82 Q 460.076 -52.076 460.076 -52.316 Q 460.076 -52.524 459.996 -52.668 Q 459.916 -52.812 459.692 -52.812 Q 459.5 -52.812 459.228 -52.788 Q 458.956 -52.764 458.956 -52.764 L 458.956 -53.212 Z " fill="black" /><path d="M 468.661 -47.844 L 468.661 -47.844 Q 469.815 -47.844 470.481 -47.127 Q 471.148 -46.41 471.148 -45.167 Q 471.148 -44.226 470.828 -43.588 Q 470.509 -42.95 469.949 -42.625 Q 469.389 -42.3 468.661 -42.3 Q 467.485 -42.3 466.819 -43.034 Q 466.152 -43.767 466.152 -45.122 Q 466.152 -45.94 466.466 -46.55 Q 466.78 -47.161 467.345 -47.502 Q 467.911 -47.844 468.661 -47.844 Z M 468.616 -47.418 L 468.616 -47.418 Q 467.978 -47.418 467.586 -46.881 Q 467.194 -46.343 467.194 -45.268 Q 467.194 -43.935 467.592 -43.336 Q 467.989 -42.737 468.706 -42.748 Q 469.165 -42.748 469.479 -42.961 Q 469.792 -43.174 469.955 -43.689 Q 470.117 -44.204 470.117 -45.111 Q 470.117 -46.142 469.742 -46.78 Q 469.367 -47.418 468.616 -47.418 Z " fill="black" /><path d="M 477.576 -42.916 L 477.576 -42.916 L 477.576 -42.614 L 476.154 -42.356 L 475.908 -42.356 L 475.908 -43.218 L 475.852 -43.218 Q 475.404 -42.782 474.978 -42.541 Q 474.552 -42.3 474.015 -42.3 Q 473.32 -42.3 472.934 -42.754 Q 472.548 -43.207 472.548 -44.35 L 472.548 -46.623 Q 472.548 -47.082 472.396 -47.178 Q 472.245 -47.273 471.786 -47.284 L 471.786 -47.598 L 473.231 -47.766 L 473.477 -47.766 L 473.477 -44.495 Q 473.477 -43.644 473.763 -43.33 Q 474.048 -43.017 474.485 -43.017 Q 474.911 -43.017 475.219 -43.207 Q 475.527 -43.398 475.863 -43.689 L 475.863 -46.634 Q 475.863 -47.082 475.678 -47.183 Q 475.493 -47.284 474.956 -47.284 L 474.956 -47.598 L 476.524 -47.766 L 476.792 -47.766 L 476.792 -43.655 Q 476.792 -43.162 476.927 -43.039 Q 477.061 -42.916 477.464 -42.916 Z " fill="black" /><path d="M 481.194 -43.42 L 481.194 -43.42 L 481.407 -43.241 Q 481.194 -42.938 481.009 -42.731 Q 480.824 -42.524 480.6 -42.412 Q 480.376 -42.3 480.018 -42.3 Q 479.458 -42.3 479.2 -42.63 Q 478.943 -42.961 478.943 -43.711 L 478.943 -47.183 L 478.327 -47.183 L 478.327 -47.441 Q 478.719 -47.687 479.004 -48.107 Q 479.29 -48.527 479.592 -49.244 L 479.884 -49.244 L 479.872 -47.654 L 481.138 -47.654 L 481.138 -47.183 L 479.872 -47.183 L 479.872 -44.025 Q 479.872 -43.431 479.979 -43.196 Q 480.085 -42.961 480.41 -42.961 Q 480.679 -42.961 480.83 -43.073 Q 480.981 -43.185 481.194 -43.42 Z " fill="black" /></g></g></g><g><g><g><path d="M 542.821 37.304 L 542.821 37.304 L 543.109 37.608 Q 542.293 38.568 541.221 39.184 Q 540.149 39.8 538.629 39.8 Q 537.189 39.8 536.325 39.264 Q 535.461 38.728 535.085 37.832 Q 534.709 36.936 534.709 35.88 Q 534.709 34.2 535.221 32.896 Q 535.733 31.592 536.621 30.704 Q 537.509 29.816 538.629 29.36 Q 539.749 28.904 540.965 28.904 Q 541.781 28.904 542.237 29.048 Q 542.693 29.192 542.949 29.344 Q 543.205 29.496 543.397 29.496 Q 543.589 29.496 543.733 29.336 Q 543.877 29.176 544.069 28.92 L 544.533 28.92 L 543.781 32.584 L 543.253 32.584 Q 543.317 30.984 542.661 30.288 Q 542.005 29.592 540.821 29.592 Q 539.893 29.592 539.077 30.016 Q 538.261 30.44 537.629 31.216 Q 536.997 31.992 536.637 33.072 Q 536.277 34.152 536.277 35.48 Q 536.277 37.08 537.037 37.92 Q 537.797 38.76 539.381 38.76 Q 541.221 38.76 542.821 37.304 Z " fill="black" /><path d="M 546.933 42.659 L 546.933 42.659 L 546.933 42.984 L 544.357 42.984 L 544.357 42.659 Q 544.726 42.659 544.894 42.586 Q 545.062 42.514 545.102 42.34 Q 545.141 42.166 545.141 41.853 L 545.141 36.23 Q 545.141 35.883 545.012 35.816 Q 544.883 35.749 544.67 35.749 Q 544.525 35.749 544.418 35.76 Q 544.312 35.771 544.312 35.771 L 544.312 35.469 L 545.79 35.077 L 546.07 35.077 L 546.07 41.853 Q 546.07 42.178 546.121 42.351 Q 546.171 42.525 546.35 42.592 Q 546.53 42.659 546.933 42.659 Z " fill="black" /><path d="M 550.08 37.552 L 550.08 37.552 Q 551.234 37.552 551.9 38.269 Q 552.566 38.986 552.566 40.229 Q 552.566 41.17 552.247 41.808 Q 551.928 42.446 551.368 42.771 Q 550.808 43.096 550.08 43.096 Q 548.904 43.096 548.238 42.362 Q 547.571 41.629 547.571 40.274 Q 547.571 39.456 547.885 38.846 Q 548.198 38.235 548.764 37.894 Q 549.33 37.552 550.08 37.552 Z M 550.035 37.978 L 550.035 37.978 Q 549.397 37.978 549.005 38.515 Q 548.613 39.053 548.613 40.128 Q 548.613 41.461 549.01 42.06 Q 549.408 42.659 550.125 42.648 Q 550.584 42.648 550.898 42.435 Q 551.211 42.222 551.374 41.707 Q 551.536 41.192 551.536 40.285 Q 551.536 39.254 551.161 38.616 Q 550.786 37.978 550.035 37.978 Z " fill="black" /><path d="M 556.397 42.29 L 556.397 42.29 L 556.352 42.29 Q 555.96 42.637 555.602 42.85 Q 555.243 43.062 554.706 43.062 Q 554.056 43.062 553.714 42.704 Q 553.373 42.346 553.373 41.808 Q 553.373 41.36 553.58 41.052 Q 553.787 40.744 554.129 40.531 Q 554.47 40.318 554.868 40.173 Q 555.266 40.027 555.646 39.926 Q 556.027 39.826 556.318 39.736 L 556.318 39.243 Q 556.318 38.515 556.066 38.207 Q 555.814 37.899 555.31 37.899 Q 554.829 37.899 554.694 38.101 Q 554.56 38.302 554.56 38.806 Q 554.56 39.322 554.067 39.322 Q 553.899 39.322 553.748 39.193 Q 553.597 39.064 553.597 38.784 Q 553.597 38.47 553.838 38.19 Q 554.078 37.91 554.521 37.731 Q 554.963 37.552 555.568 37.552 Q 556.486 37.552 556.867 37.978 Q 557.248 38.403 557.248 39.277 L 557.248 41.819 Q 557.248 42.166 557.326 42.267 Q 557.405 42.368 557.584 42.368 Q 557.741 42.368 557.87 42.29 Q 557.998 42.211 558.11 42.088 L 558.278 42.267 Q 557.998 42.67 557.746 42.855 Q 557.494 43.04 557.069 43.04 Q 556.699 43.04 556.576 42.85 Q 556.453 42.659 556.397 42.29 Z M 556.318 41.954 L 556.318 41.954 L 556.318 40.106 Q 555.814 40.229 555.366 40.397 Q 554.918 40.565 554.638 40.834 Q 554.358 41.102 554.358 41.539 Q 554.358 41.954 554.582 42.2 Q 554.806 42.446 555.165 42.446 Q 555.725 42.446 556.318 41.954 Z " fill="black" /><path d="M 564.08 42.782 L 564.08 42.782 L 562.646 43.04 L 562.389 43.04 L 562.389 42.267 L 562.344 42.267 Q 562.03 42.547 561.599 42.81 Q 561.168 43.074 560.608 43.074 Q 559.981 43.074 559.55 42.738 Q 559.118 42.402 558.906 41.825 Q 558.693 41.248 558.693 40.531 Q 558.693 39.602 559.04 38.935 Q 559.387 38.269 559.975 37.91 Q 560.563 37.552 561.269 37.552 Q 561.549 37.552 561.823 37.614 Q 562.098 37.675 562.355 37.821 L 562.355 36.354 Q 562.355 35.984 562.271 35.872 Q 562.187 35.76 561.862 35.76 Q 561.784 35.76 561.678 35.771 Q 561.571 35.782 561.571 35.782 L 561.571 35.469 L 562.982 35.077 L 563.285 35.077 L 563.285 41.786 Q 563.285 42.222 563.408 42.351 Q 563.531 42.48 563.845 42.48 L 564.08 42.48 Z M 562.355 41.853 L 562.355 41.853 L 562.355 38.896 Q 562.288 38.549 562.03 38.274 Q 561.773 38 561.246 38 Q 560.541 38 560.104 38.515 Q 559.667 39.03 559.667 40.094 Q 559.667 41.248 560.042 41.758 Q 560.418 42.267 561.134 42.267 Q 561.526 42.267 561.795 42.161 Q 562.064 42.054 562.355 41.853 Z " fill="black" /></g></g></g><g><g><g><path d="M 610.055 31.192 L 610.055 31.192 L 609.959 32.008 L 608.567 31.848 L 608.567 31.896 Q 608.839 32.2 608.991 32.656 Q 609.143 33.112 609.143 33.528 Q 609.143 34.248 608.855 34.736 Q 608.567 35.224 608.103 35.52 Q 607.639 35.816 607.079 35.968 Q 606.519 36.12 605.991 36.168 Q 605.351 36.232 605.087 36.44 Q 604.823 36.648 604.823 36.872 Q 604.823 37.16 605.143 37.312 Q 605.463 37.464 605.967 37.56 Q 606.471 37.656 607.047 37.776 Q 607.623 37.896 608.127 38.104 Q 608.631 38.312 608.951 38.688 Q 609.271 39.064 609.271 39.688 Q 609.271 40.376 608.823 40.96 Q 608.375 41.544 607.495 41.904 Q 606.615 42.264 605.335 42.264 Q 604.183 42.264 603.495 41.984 Q 602.807 41.704 602.503 41.264 Q 602.199 40.824 602.199 40.344 Q 602.199 39.576 602.791 39.104 Q 603.383 38.632 604.135 38.392 L 604.135 38.328 Q 603.927 38.2 603.743 37.968 Q 603.559 37.736 603.559 37.368 Q 603.559 36.968 603.767 36.728 Q 603.975 36.488 604.303 36.336 Q 604.631 36.184 604.951 36.072 L 604.951 35.976 Q 604.327 35.704 603.863 35.208 Q 603.399 34.712 603.399 33.8 Q 603.399 32.968 603.799 32.336 Q 604.199 31.704 604.895 31.352 Q 605.591 31 606.455 31 Q 607.031 31 607.327 31.056 Q 607.623 31.112 607.911 31.192 Z M 608.119 40.28 L 608.119 40.28 Q 608.119 39.8 607.719 39.504 Q 607.319 39.208 606.727 39.032 Q 606.135 38.856 605.535 38.752 Q 604.935 38.648 604.519 38.568 Q 604.119 38.824 603.783 39.152 Q 603.447 39.48 603.447 40.104 Q 603.447 40.744 603.943 41.224 Q 604.439 41.704 605.655 41.704 Q 606.807 41.704 607.463 41.28 Q 608.119 40.856 608.119 40.28 Z M 607.719 33.352 L 607.719 33.352 Q 607.719 32.552 607.415 32.016 Q 607.111 31.48 606.407 31.48 Q 605.719 31.48 605.271 32.056 Q 604.823 32.632 604.823 33.8 Q 604.823 34.632 605.111 35.152 Q 605.399 35.672 606.087 35.672 Q 606.887 35.672 607.303 35 Q 607.719 34.328 607.719 33.352 Z " fill="black" /><path d="M 616.036 41.822 L 616.036 41.822 L 614.602 42.08 L 614.345 42.08 L 614.345 41.307 L 614.3 41.307 Q 613.986 41.587 613.555 41.85 Q 613.124 42.114 612.564 42.114 Q 611.937 42.114 611.506 41.778 Q 611.074 41.442 610.862 40.865 Q 610.649 40.288 610.649 39.571 Q 610.649 38.642 610.996 37.975 Q 611.343 37.309 611.931 36.95 Q 612.519 36.592 613.225 36.592 Q 613.505 36.592 613.779 36.654 Q 614.054 36.715 614.311 36.861 L 614.311 35.394 Q 614.311 35.024 614.227 34.912 Q 614.143 34.8 613.818 34.8 Q 613.74 34.8 613.634 34.811 Q 613.527 34.822 613.527 34.822 L 613.527 34.509 L 614.938 34.117 L 615.241 34.117 L 615.241 40.826 Q 615.241 41.262 615.364 41.391 Q 615.487 41.52 615.801 41.52 L 616.036 41.52 Z M 614.311 40.893 L 614.311 40.893 L 614.311 37.936 Q 614.244 37.589 613.986 37.314 Q 613.729 37.04 613.202 37.04 Q 612.497 37.04 612.06 37.555 Q 611.623 38.07 611.623 39.134 Q 611.623 40.288 611.998 40.798 Q 612.374 41.307 613.09 41.307 Q 613.482 41.307 613.751 41.201 Q 614.02 41.094 614.311 40.893 Z " fill="black" /><path d="M 616.753 40.187 L 616.753 40.187 L 617.044 40.187 Q 617.223 41.05 617.57 41.391 Q 617.918 41.733 618.534 41.733 Q 618.959 41.733 619.228 41.559 Q 619.497 41.386 619.497 40.994 Q 619.497 40.725 619.402 40.546 Q 619.306 40.366 619.038 40.182 Q 618.769 39.997 618.242 39.739 Q 617.481 39.347 617.122 38.983 Q 616.764 38.619 616.764 38.003 Q 616.764 37.309 617.262 36.95 Q 617.761 36.592 618.478 36.592 Q 618.903 36.592 619.172 36.687 Q 619.441 36.782 619.654 36.883 L 619.665 36.883 L 619.855 36.648 L 620.079 36.648 L 620.113 38.362 L 619.81 38.362 Q 619.631 37.566 619.306 37.27 Q 618.982 36.973 618.466 36.973 Q 618.086 36.973 617.822 37.152 Q 617.559 37.331 617.559 37.712 Q 617.559 38.037 617.862 38.294 Q 618.164 38.552 618.87 38.91 Q 619.631 39.314 620.034 39.689 Q 620.438 40.064 620.438 40.691 Q 620.438 41.218 620.18 41.537 Q 619.922 41.856 619.491 42.002 Q 619.06 42.147 618.556 42.147 Q 618.074 42.147 617.789 42.046 Q 617.503 41.946 617.279 41.856 L 617.257 41.856 L 617.022 42.114 L 616.786 42.114 Z " fill="black" /><path d="M 625.937 40.232 L 625.937 40.232 L 625.578 42.024 L 621.166 42.024 L 621.166 41.643 L 622.868 39.941 Q 623.428 39.37 623.798 38.905 Q 624.167 38.44 624.352 37.97 Q 624.537 37.499 624.537 36.917 Q 624.537 36.29 624.162 35.914 Q 623.786 35.539 623.137 35.539 Q 622.588 35.539 622.202 35.774 Q 621.815 36.01 621.502 36.637 L 621.233 36.525 Q 621.49 35.707 622.05 35.259 Q 622.61 34.811 623.428 34.811 Q 624.066 34.811 624.548 35.052 Q 625.03 35.293 625.304 35.724 Q 625.578 36.155 625.578 36.749 Q 625.578 37.242 625.371 37.695 Q 625.164 38.149 624.755 38.63 Q 624.346 39.112 623.753 39.717 L 622.274 41.117 L 622.274 41.173 L 623.058 41.139 L 624.615 41.139 Q 625.063 41.139 625.242 40.938 Q 625.422 40.736 625.612 40.232 Z " fill="black" /><path d="M 641.552 35.064 L 641.552 35.064 L 637.36 35.064 L 637.36 39.304 L 636.208 39.304 L 636.208 35.064 L 632.016 35.064 L 632.016 33.976 L 636.208 33.976 L 636.208 29.736 L 637.36 29.736 L 637.36 33.976 L 641.552 33.976 Z " fill="black" /><path d="M 655.139 31.192 L 655.139 31.192 L 655.043 32.008 L 653.651 31.848 L 653.651 31.896 Q 653.923 32.2 654.075 32.656 Q 654.227 33.112 654.227 33.528 Q 654.227 34.248 653.939 34.736 Q 653.651 35.224 653.187 35.52 Q 652.723 35.816 652.163 35.968 Q 651.603 36.12 651.075 36.168 Q 650.435 36.232 650.171 36.44 Q 649.907 36.648 649.907 36.872 Q 649.907 37.16 650.227 37.312 Q 650.547 37.464 651.051 37.56 Q 651.555 37.656 652.131 37.776 Q 652.707 37.896 653.211 38.104 Q 653.715 38.312 654.035 38.688 Q 654.355 39.064 654.355 39.688 Q 654.355 40.376 653.907 40.96 Q 653.459 41.544 652.579 41.904 Q 651.699 42.264 650.419 42.264 Q 649.267 42.264 648.579 41.984 Q 647.891 41.704 647.587 41.264 Q 647.283 40.824 647.283 40.344 Q 647.283 39.576 647.875 39.104 Q 648.467 38.632 649.219 38.392 L 649.219 38.328 Q 649.011 38.2 648.827 37.968 Q 648.643 37.736 648.643 37.368 Q 648.643 36.968 648.851 36.728 Q 649.059 36.488 649.387 36.336 Q 649.715 36.184 650.035 36.072 L 650.035 35.976 Q 649.411 35.704 648.947 35.208 Q 648.483 34.712 648.483 33.8 Q 648.483 32.968 648.883 32.336 Q 649.283 31.704 649.979 31.352 Q 650.675 31 651.539 31 Q 652.115 31 652.411 31.056 Q 652.707 31.112 652.995 31.192 Z M 653.203 40.28 L 653.203 40.28 Q 653.203 39.8 652.803 39.504 Q 652.403 39.208 651.811 39.032 Q 651.219 38.856 650.619 38.752 Q 650.019 38.648 649.603 38.568 Q 649.203 38.824 648.867 39.152 Q 648.531 39.48 648.531 40.104 Q 648.531 40.744 649.027 41.224 Q 649.523 41.704 650.739 41.704 Q 651.891 41.704 652.547 41.28 Q 653.203 40.856 653.203 40.28 Z M 652.803 33.352 L 652.803 33.352 Q 652.803 32.552 652.499 32.016 Q 652.195 31.48 651.491 31.48 Q 650.803 31.48 650.355 32.056 Q 649.907 32.632 649.907 33.8 Q 649.907 34.632 650.195 35.152 Q 650.483 35.672 651.171 35.672 Q 651.971 35.672 652.387 35 Q 652.803 34.328 652.803 33.352 Z " fill="black" /><path d="M 661.12 41.822 L 661.12 41.822 L 659.686 42.08 L 659.429 42.08 L 659.429 41.307 L 659.384 41.307 Q 659.07 41.587 658.639 41.85 Q 658.208 42.114 657.648 42.114 Q 657.021 42.114 656.59 41.778 Q 656.158 41.442 655.946 40.865 Q 655.733 40.288 655.733 39.571 Q 655.733 38.642 656.08 37.975 Q 656.427 37.309 657.015 36.95 Q 657.603 36.592 658.309 36.592 Q 658.589 36.592 658.863 36.654 Q 659.138 36.715 659.395 36.861 L 659.395 35.394 Q 659.395 35.024 659.311 34.912 Q 659.227 34.8 658.902 34.8 Q 658.824 34.8 658.718 34.811 Q 658.611 34.822 658.611 34.822 L 658.611 34.509 L 660.022 34.117 L 660.325 34.117 L 660.325 40.826 Q 660.325 41.262 660.448 41.391 Q 660.571 41.52 660.885 41.52 L 661.12 41.52 Z M 659.395 40.893 L 659.395 40.893 L 659.395 37.936 Q 659.328 37.589 659.07 37.314 Q 658.813 37.04 658.286 37.04 Q 657.581 37.04 657.144 37.555 Q 656.707 38.07 656.707 39.134 Q 656.707 40.288 657.082 40.798 Q 657.458 41.307 658.174 41.307 Q 658.566 41.307 658.835 41.201 Q 659.104 41.094 659.395 40.893 Z " fill="black" /><path d="M 661.837 40.187 L 661.837 40.187 L 662.128 40.187 Q 662.307 41.05 662.654 41.391 Q 663.002 41.733 663.618 41.733 Q 664.043 41.733 664.312 41.559 Q 664.581 41.386 664.581 40.994 Q 664.581 40.725 664.486 40.546 Q 664.39 40.366 664.122 40.182 Q 663.853 39.997 663.326 39.739 Q 662.565 39.347 662.206 38.983 Q 661.848 38.619 661.848 38.003 Q 661.848 37.309 662.346 36.95 Q 662.845 36.592 663.562 36.592 Q 663.987 36.592 664.256 36.687 Q 664.525 36.782 664.738 36.883 L 664.749 36.883 L 664.939 36.648 L 665.163 36.648 L 665.197 38.362 L 664.894 38.362 Q 664.715 37.566 664.39 37.27 Q 664.066 36.973 663.55 36.973 Q 663.17 36.973 662.906 37.152 Q 662.643 37.331 662.643 37.712 Q 662.643 38.037 662.946 38.294 Q 663.248 38.552 663.954 38.91 Q 664.715 39.314 665.118 39.689 Q 665.522 40.064 665.522 40.691 Q 665.522 41.218 665.264 41.537 Q 665.006 41.856 664.575 42.002 Q 664.144 42.147 663.64 42.147 Q 663.158 42.147 662.873 42.046 Q 662.587 41.946 662.363 41.856 L 662.341 41.856 L 662.106 42.114 L 661.87 42.114 Z " fill="black" /><path d="M 671.211 40.254 L 671.211 40.254 L 670.069 40.254 L 670.069 42.024 L 669.072 42.024 L 669.072 40.254 L 665.97 40.254 L 665.97 39.549 L 669.386 34.8 L 670.069 34.8 L 670.069 39.482 L 671.211 39.482 Z M 669.072 39.482 L 669.072 39.482 L 669.072 36.021 L 669.027 36.021 L 666.586 39.437 L 666.586 39.482 Z " fill="black" /></g></g></g><circle cx="432.0" cy="72.0" r="2.6999999999999997" style="stroke:black;fill:white;stroke-width:2.0;" /><circle cx="360.0" cy="72.0" r="2.6999999999999997" style="stroke:black;fill:black;stroke-width:2.0;" /><g><g><g><rect x="429.84" y="49.328" width="4.32" height="1.088" fill="black" /></g></g></g><g><g><g><path d="M 424.098 29.22 L 424.098 29.22 L 424.45 29.22 L 423.698 32.292 Q 423.586 32.708 423.466 33.292 Q 423.346 33.876 423.346 34.42 Q 423.346 35.044 423.602 35.5 Q 423.858 35.956 424.594 35.956 Q 425.41 35.956 426.002 35.564 Q 426.594 35.172 426.97 34.564 Q 427.346 33.956 427.53 33.284 Q 427.714 32.612 427.714 32.052 Q 427.714 31.636 427.57 31.332 Q 427.426 31.028 427.226 30.788 Q 427.026 30.548 426.882 30.324 Q 426.738 30.1 426.738 29.844 Q 426.738 29.524 426.914 29.348 Q 427.09 29.172 427.346 29.172 Q 427.89 29.172 428.226 29.716 Q 428.562 30.26 428.562 31.108 Q 428.562 31.844 428.378 32.652 Q 428.194 33.46 427.826 34.228 Q 427.458 34.996 426.914 35.62 Q 426.37 36.244 425.666 36.612 Q 424.962 36.98 424.098 36.98 Q 423.298 36.98 422.85 36.66 Q 422.402 36.34 422.218 35.812 Q 422.034 35.284 422.034 34.676 Q 422.034 34.1 422.146 33.492 Q 422.258 32.884 422.386 32.388 L 422.706 31.172 Q 422.738 31.044 422.802 30.788 Q 422.866 30.532 422.866 30.292 Q 422.866 30.084 422.786 29.94 Q 422.706 29.796 422.482 29.796 Q 422.29 29.796 422.018 29.82 Q 421.746 29.844 421.746 29.844 L 421.746 29.396 Z " fill="black" /><path d="M 429.995 38.135 L 429.995 38.135 L 429.995 38.113 Q 429.592 37.878 429.362 37.508 Q 429.133 37.138 429.133 36.59 Q 429.133 35.75 429.704 35.257 Q 430.275 34.764 431.16 34.764 Q 431.53 34.764 431.81 34.831 Q 432.09 34.898 432.246 34.971 Q 432.403 35.044 432.403 35.044 L 433.848 34.966 L 433.848 35.57 L 432.795 35.537 L 432.795 35.593 Q 432.918 35.761 433.058 36.041 Q 433.198 36.321 433.198 36.746 Q 433.198 37.53 432.65 37.99 Q 432.101 38.449 431.216 38.449 Q 430.947 38.449 430.712 38.404 Q 430.477 38.359 430.253 38.281 Q 430.174 38.393 430.068 38.639 Q 429.962 38.886 429.962 39.031 Q 429.962 39.278 430.236 39.378 Q 430.51 39.479 431.283 39.479 Q 431.989 39.479 432.554 39.546 Q 433.12 39.614 433.445 39.894 Q 433.77 40.174 433.77 40.812 Q 433.77 41.372 433.495 41.758 Q 433.221 42.145 432.767 42.38 Q 432.314 42.615 431.77 42.722 Q 431.227 42.828 430.701 42.828 Q 429.973 42.828 429.553 42.649 Q 429.133 42.47 428.965 42.184 Q 428.797 41.898 428.797 41.596 Q 428.797 41.316 429.026 41.008 Q 429.256 40.7 429.704 40.263 L 429.704 40.218 Q 429.424 40.073 429.25 39.86 Q 429.077 39.647 429.077 39.412 Q 429.077 39.11 429.34 38.774 Q 429.603 38.438 429.995 38.135 Z M 429.984 40.308 L 429.984 40.308 Q 429.805 40.622 429.738 40.829 Q 429.67 41.036 429.67 41.215 Q 429.67 42.19 431.35 42.19 Q 432.011 42.19 432.42 42.022 Q 432.829 41.854 433.014 41.607 Q 433.198 41.361 433.198 41.126 Q 433.198 40.834 433.019 40.672 Q 432.84 40.51 432.554 40.442 Q 432.269 40.375 431.95 40.353 Q 431.63 40.33 431.35 40.33 Q 431.283 40.33 431.25 40.33 Q 430.802 40.319 430.555 40.319 Q 430.309 40.319 430.186 40.314 Q 430.062 40.308 429.984 40.308 Z M 431.082 35.167 L 431.082 35.167 Q 430.645 35.167 430.382 35.503 Q 430.118 35.839 430.118 36.545 Q 430.118 37.262 430.398 37.659 Q 430.678 38.057 431.227 38.057 Q 431.653 38.057 431.927 37.766 Q 432.202 37.474 432.202 36.679 Q 432.202 35.996 431.91 35.582 Q 431.619 35.167 431.082 35.167 Z " fill="black" /><path d="M 434.419 38.359 L 434.419 38.359 L 434.71 38.359 Q 434.89 39.222 435.237 39.563 Q 435.584 39.905 436.2 39.905 Q 436.626 39.905 436.894 39.731 Q 437.163 39.558 437.163 39.166 Q 437.163 38.897 437.068 38.718 Q 436.973 38.538 436.704 38.354 Q 436.435 38.169 435.909 37.911 Q 435.147 37.519 434.789 37.155 Q 434.43 36.791 434.43 36.175 Q 434.43 35.481 434.929 35.122 Q 435.427 34.764 436.144 34.764 Q 436.57 34.764 436.838 34.859 Q 437.107 34.954 437.32 35.055 L 437.331 35.055 L 437.522 34.82 L 437.746 34.82 L 437.779 36.534 L 437.477 36.534 Q 437.298 35.738 436.973 35.442 Q 436.648 35.145 436.133 35.145 Q 435.752 35.145 435.489 35.324 Q 435.226 35.503 435.226 35.884 Q 435.226 36.209 435.528 36.466 Q 435.83 36.724 436.536 37.082 Q 437.298 37.486 437.701 37.861 Q 438.104 38.236 438.104 38.863 Q 438.104 39.39 437.846 39.709 Q 437.589 40.028 437.158 40.174 Q 436.726 40.319 436.222 40.319 Q 435.741 40.319 435.455 40.218 Q 435.17 40.118 434.946 40.028 L 434.923 40.028 L 434.688 40.286 L 434.453 40.286 Z " fill="black" /><path d="M 443.603 38.404 L 443.603 38.404 L 443.245 40.196 L 438.832 40.196 L 438.832 39.815 L 440.534 38.113 Q 441.094 37.542 441.464 37.077 Q 441.834 36.612 442.018 36.142 Q 442.203 35.671 442.203 35.089 Q 442.203 34.462 441.828 34.086 Q 441.453 33.711 440.803 33.711 Q 440.254 33.711 439.868 33.946 Q 439.482 34.182 439.168 34.809 L 438.899 34.697 Q 439.157 33.879 439.717 33.431 Q 440.277 32.983 441.094 32.983 Q 441.733 32.983 442.214 33.224 Q 442.696 33.465 442.97 33.896 Q 443.245 34.327 443.245 34.921 Q 443.245 35.414 443.038 35.867 Q 442.83 36.321 442.422 36.802 Q 442.013 37.284 441.419 37.889 L 439.941 39.289 L 439.941 39.345 L 440.725 39.311 L 442.282 39.311 Q 442.73 39.311 442.909 39.11 Q 443.088 38.908 443.278 38.404 Z " fill="black" /></g></g></g><g><g><g><path d="M 437.264 18.544 L 437.264 18.544 L 433.072 18.544 L 433.072 22.784 L 431.92 22.784 L 431.92 18.544 L 427.728 18.544 L 427.728 17.456 L 431.92 17.456 L 431.92 13.216 L 433.072 13.216 L 433.072 17.456 L 437.264 17.456 Z " fill="black" /></g></g></g><circle cx="468.0" cy="-0.0" r="2.6999999999999997" style="stroke:black;fill:white;stroke-width:2.0;" /><circle cx="432.0" cy="-0.0" r="2.6999999999999997" style="stroke:black;fill:white;stroke-width:2.0;" /><g><g><g><path d="M 477.5 -6.203 L 477.5 -6.203 L 477.852 -6.203 L 477.1 -3.131 Q 476.988 -2.715 476.868 -2.131 Q 476.748 -1.547 476.748 -1.003 Q 476.748 -0.379 477.004 0.077 Q 477.26 0.533 477.996 0.533 Q 478.812 0.533 479.404 0.141 Q 479.996 -0.251 480.372 -0.859 Q 480.748 -1.467 480.932 -2.139 Q 481.116 -2.811 481.116 -3.371 Q 481.116 -3.787 480.972 -4.091 Q 480.828 -4.395 480.628 -4.635 Q 480.428 -4.875 480.284 -5.099 Q 480.14 -5.323 480.14 -5.579 Q 480.14 -5.899 480.316 -6.075 Q 480.492 -6.251 480.748 -6.251 Q 481.292 -6.251 481.628 -5.707 Q 481.964 -5.163 481.964 -4.315 Q 481.964 -3.579 481.78 -2.771 Q 481.596 -1.963 481.228 -1.195 Q 480.86 -0.427 480.316 0.197 Q 479.772 0.821 479.068 1.189 Q 478.364 1.557 477.5 1.557 Q 476.7 1.557 476.252 1.237 Q 475.804 0.917 475.62 0.389 Q 475.436 -0.139 475.436 -0.747 Q 475.436 -1.323 475.548 -1.931 Q 475.66 -2.539 475.788 -3.035 L 476.108 -4.251 Q 476.14 -4.379 476.204 -4.635 Q 476.268 -4.891 476.268 -5.131 Q 476.268 -5.339 476.188 -5.483 Q 476.108 -5.627 475.884 -5.627 Q 475.692 -5.627 475.42 -5.603 Q 475.148 -5.579 475.148 -5.579 L 475.148 -6.027 Z " fill="black" /><path d="M 485.738 4.459 L 485.738 4.459 L 485.738 4.773 L 483.218 4.773 L 483.218 4.459 Q 483.599 4.459 483.762 4.386 Q 483.924 4.314 483.963 4.134 Q 484.002 3.955 484.002 3.642 L 484.002 0.517 Q 484.002 0.158 483.879 0.074 Q 483.756 -0.01 483.51 -0.01 Q 483.398 -0.01 483.314 0.002 Q 483.23 0.013 483.23 0.013 L 483.23 -0.312 L 484.641 -0.626 L 484.932 -0.626 L 484.932 3.642 Q 484.932 3.966 484.977 4.146 Q 485.022 4.325 485.195 4.392 Q 485.369 4.459 485.738 4.459 Z M 484.484 -2.765 L 484.484 -2.765 Q 484.775 -2.765 484.949 -2.58 Q 485.122 -2.395 485.122 -2.138 Q 485.122 -1.88 484.949 -1.69 Q 484.775 -1.499 484.484 -1.499 Q 484.204 -1.499 484.025 -1.69 Q 483.846 -1.88 483.846 -2.138 Q 483.846 -2.395 484.019 -2.58 Q 484.193 -2.765 484.484 -2.765 Z " fill="black" /><path d="M 491.439 1.334 L 491.439 1.334 L 491.439 3.642 Q 491.439 3.955 491.49 4.134 Q 491.54 4.314 491.719 4.386 Q 491.898 4.459 492.268 4.459 L 492.268 4.773 L 489.681 4.773 L 489.681 4.459 Q 490.084 4.459 490.258 4.386 Q 490.431 4.314 490.47 4.134 Q 490.51 3.955 490.51 3.642 L 490.51 1.614 Q 490.51 0.942 490.358 0.606 Q 490.207 0.27 489.972 0.164 Q 489.737 0.058 489.479 0.058 Q 489.031 0.058 488.706 0.298 Q 488.382 0.539 488.124 0.763 L 488.124 3.642 Q 488.124 3.955 488.169 4.134 Q 488.214 4.314 488.393 4.386 Q 488.572 4.459 488.975 4.459 L 488.975 4.773 L 486.41 4.773 L 486.41 4.459 Q 486.791 4.459 486.954 4.386 Q 487.116 4.314 487.155 4.134 Q 487.194 3.955 487.194 3.642 L 487.194 0.494 Q 487.194 0.192 487.071 0.097 Q 486.948 0.002 486.724 0.002 Q 486.578 0.002 486.5 0.013 Q 486.422 0.024 486.422 0.024 L 486.422 -0.301 L 487.844 -0.626 L 488.102 -0.626 L 488.09 0.282 L 488.135 0.282 Q 488.594 -0.122 489.003 -0.39 Q 489.412 -0.659 489.938 -0.659 Q 490.7 -0.659 491.07 -0.144 Q 491.439 0.371 491.439 1.334 Z " fill="black" /><path d="M 493.287 6.251 L 493.287 6.251 L 493.153 5.971 Q 493.366 5.882 493.578 5.742 Q 493.791 5.602 493.937 5.333 Q 494.082 5.064 494.082 4.616 Q 493.903 4.683 493.735 4.683 Q 493.41 4.683 493.265 4.504 Q 493.119 4.325 493.119 4.078 Q 493.119 3.81 493.298 3.614 Q 493.478 3.418 493.814 3.418 Q 494.239 3.418 494.458 3.681 Q 494.676 3.944 494.676 4.403 Q 494.676 4.874 494.525 5.198 Q 494.374 5.523 494.15 5.725 Q 493.926 5.926 493.69 6.05 Q 493.455 6.173 493.287 6.251 Z " fill="black" /><path d="M 500.063 1.334 L 500.063 1.334 L 500.063 3.642 Q 500.063 3.955 500.114 4.134 Q 500.164 4.314 500.343 4.386 Q 500.522 4.459 500.892 4.459 L 500.892 4.773 L 498.305 4.773 L 498.305 4.459 Q 498.708 4.459 498.882 4.386 Q 499.055 4.314 499.094 4.134 Q 499.134 3.955 499.134 3.642 L 499.134 1.614 Q 499.134 0.942 498.982 0.606 Q 498.831 0.27 498.596 0.164 Q 498.361 0.058 498.103 0.058 Q 497.655 0.058 497.33 0.298 Q 497.006 0.539 496.748 0.763 L 496.748 3.642 Q 496.748 3.955 496.793 4.134 Q 496.838 4.314 497.017 4.386 Q 497.196 4.459 497.599 4.459 L 497.599 4.773 L 495.034 4.773 L 495.034 4.459 Q 495.415 4.459 495.578 4.386 Q 495.74 4.314 495.779 4.134 Q 495.818 3.955 495.818 3.642 L 495.818 0.494 Q 495.818 0.192 495.695 0.097 Q 495.572 0.002 495.348 0.002 Q 495.202 0.002 495.124 0.013 Q 495.046 0.024 495.046 0.024 L 495.046 -0.301 L 496.468 -0.626 L 496.726 -0.626 L 496.714 0.282 L 496.759 0.282 Q 497.218 -0.122 497.627 -0.39 Q 498.036 -0.659 498.562 -0.659 Q 499.324 -0.659 499.694 -0.144 Q 500.063 0.371 500.063 1.334 Z " fill="black" /></g></g></g><circle cx="-1.5987211554602254e-14" cy="-72.00000000000001" r="2.6999999999999997" style="stroke:black;fill:white;stroke-width:2.0;" /><g><g><g><path d="M 5.264 -89.456 L 5.264 -89.456 L 1.072 -89.456 L 1.072 -85.216 L -0.08 -85.216 L -0.08 -89.456 L -4.272 -89.456 L -4.272 -90.544 L -0.08 -90.544 L -0.08 -94.784 L 1.072 -94.784 L 1.072 -90.544 L 5.264 -90.544 Z " fill="black" /></g></g></g><g><g><g><path d="M -10.674 -114.78 L -10.674 -114.78 L -10.322 -114.78 L -11.074 -111.708 Q -11.186 -111.292 -11.306 -110.708 Q -11.426 -110.124 -11.426 -109.58 Q -11.426 -108.956 -11.17 -108.5 Q -10.914 -108.044 -10.178 -108.044 Q -9.362 -108.044 -8.77 -108.436 Q -8.178 -108.828 -7.802 -109.436 Q -7.426 -110.044 -7.242 -110.716 Q -7.058 -111.388 -7.058 -111.948 Q -7.058 -112.364 -7.202 -112.668 Q -7.346 -112.972 -7.546 -113.212 Q -7.746 -113.452 -7.89 -113.676 Q -8.034 -113.9 -8.034 -114.156 Q -8.034 -114.476 -7.858 -114.652 Q -7.682 -114.828 -7.426 -114.828 Q -6.882 -114.828 -6.546 -114.284 Q -6.21 -113.74 -6.21 -112.892 Q -6.21 -112.156 -6.394 -111.348 Q -6.578 -110.54 -6.946 -109.772 Q -7.314 -109.004 -7.858 -108.38 Q -8.402 -107.756 -9.106 -107.388 Q -9.81 -107.02 -10.674 -107.02 Q -11.474 -107.02 -11.922 -107.34 Q -12.37 -107.66 -12.554 -108.188 Q -12.738 -108.716 -12.738 -109.324 Q -12.738 -109.9 -12.626 -110.508 Q -12.514 -111.116 -12.386 -111.612 L -12.066 -112.828 Q -12.034 -112.956 -11.97 -113.212 Q -11.906 -113.468 -11.906 -113.708 Q -11.906 -113.916 -11.986 -114.06 Q -12.066 -114.204 -12.29 -114.204 Q -12.482 -114.204 -12.754 -114.18 Q -13.026 -114.156 -13.026 -114.156 L -13.026 -114.604 Z " fill="black" /><path d="M -4.777 -105.865 L -4.777 -105.865 L -4.777 -105.887 Q -5.18 -106.122 -5.41 -106.492 Q -5.639 -106.862 -5.639 -107.41 Q -5.639 -108.25 -5.068 -108.743 Q -4.497 -109.236 -3.612 -109.236 Q -3.242 -109.236 -2.962 -109.169 Q -2.682 -109.102 -2.526 -109.029 Q -2.369 -108.956 -2.369 -108.956 L -0.924 -109.034 L -0.924 -108.43 L -1.977 -108.463 L -1.977 -108.407 Q -1.854 -108.239 -1.714 -107.959 Q -1.574 -107.679 -1.574 -107.254 Q -1.574 -106.47 -2.122 -106.01 Q -2.671 -105.551 -3.556 -105.551 Q -3.825 -105.551 -4.06 -105.596 Q -4.295 -105.641 -4.519 -105.719 Q -4.598 -105.607 -4.704 -105.361 Q -4.81 -105.114 -4.81 -104.969 Q -4.81 -104.722 -4.536 -104.622 Q -4.262 -104.521 -3.489 -104.521 Q -2.783 -104.521 -2.218 -104.454 Q -1.652 -104.386 -1.327 -104.106 Q -1.002 -103.826 -1.002 -103.188 Q -1.002 -102.628 -1.277 -102.242 Q -1.551 -101.855 -2.005 -101.62 Q -2.458 -101.385 -3.002 -101.278 Q -3.545 -101.172 -4.071 -101.172 Q -4.799 -101.172 -5.219 -101.351 Q -5.639 -101.53 -5.807 -101.816 Q -5.975 -102.102 -5.975 -102.404 Q -5.975 -102.684 -5.746 -102.992 Q -5.516 -103.3 -5.068 -103.737 L -5.068 -103.782 Q -5.348 -103.927 -5.522 -104.14 Q -5.695 -104.353 -5.695 -104.588 Q -5.695 -104.89 -5.432 -105.226 Q -5.169 -105.562 -4.777 -105.865 Z M -4.788 -103.692 L -4.788 -103.692 Q -4.967 -103.378 -5.034 -103.171 Q -5.102 -102.964 -5.102 -102.785 Q -5.102 -101.81 -3.422 -101.81 Q -2.761 -101.81 -2.352 -101.978 Q -1.943 -102.146 -1.758 -102.393 Q -1.574 -102.639 -1.574 -102.874 Q -1.574 -103.166 -1.753 -103.328 Q -1.932 -103.49 -2.218 -103.558 Q -2.503 -103.625 -2.822 -103.647 Q -3.142 -103.67 -3.422 -103.67 Q -3.489 -103.67 -3.522 -103.67 Q -3.97 -103.681 -4.217 -103.681 Q -4.463 -103.681 -4.586 -103.686 Q -4.71 -103.692 -4.788 -103.692 Z M -3.69 -108.833 L -3.69 -108.833 Q -4.127 -108.833 -4.39 -108.497 Q -4.654 -108.161 -4.654 -107.455 Q -4.654 -106.738 -4.374 -106.341 Q -4.094 -105.943 -3.545 -105.943 Q -3.119 -105.943 -2.845 -106.234 Q -2.57 -106.526 -2.57 -107.321 Q -2.57 -108.004 -2.862 -108.418 Q -3.153 -108.833 -3.69 -108.833 Z " fill="black" /><path d="M -0.353 -105.641 L -0.353 -105.641 L -0.062 -105.641 Q 0.118 -104.778 0.465 -104.437 Q 0.812 -104.095 1.428 -104.095 Q 1.854 -104.095 2.122 -104.269 Q 2.391 -104.442 2.391 -104.834 Q 2.391 -105.103 2.296 -105.282 Q 2.201 -105.462 1.932 -105.646 Q 1.663 -105.831 1.137 -106.089 Q 0.375 -106.481 0.017 -106.845 Q -0.342 -107.209 -0.342 -107.825 Q -0.342 -108.519 0.157 -108.878 Q 0.655 -109.236 1.372 -109.236 Q 1.798 -109.236 2.066 -109.141 Q 2.335 -109.046 2.548 -108.945 L 2.559 -108.945 L 2.75 -109.18 L 2.974 -109.18 L 3.007 -107.466 L 2.705 -107.466 Q 2.526 -108.262 2.201 -108.558 Q 1.876 -108.855 1.361 -108.855 Q 0.98 -108.855 0.717 -108.676 Q 0.454 -108.497 0.454 -108.116 Q 0.454 -107.791 0.756 -107.534 Q 1.058 -107.276 1.764 -106.918 Q 2.526 -106.514 2.929 -106.139 Q 3.332 -105.764 3.332 -105.137 Q 3.332 -104.61 3.074 -104.291 Q 2.817 -103.972 2.386 -103.826 Q 1.954 -103.681 1.45 -103.681 Q 0.969 -103.681 0.683 -103.782 Q 0.398 -103.882 0.174 -103.972 L 0.151 -103.972 L -0.084 -103.714 L -0.319 -103.714 Z " fill="black" /><path d="M 4.598 -109.382 L 4.598 -109.382 L 4.34 -109.527 Q 4.978 -111.017 6.367 -111.017 Q 7.23 -111.017 7.7 -110.586 Q 8.17 -110.154 8.17 -109.516 Q 8.17 -108.934 7.829 -108.575 Q 7.487 -108.217 6.961 -107.881 L 6.961 -107.847 Q 7.409 -107.713 7.784 -107.461 Q 8.159 -107.209 8.383 -106.845 Q 8.607 -106.481 8.607 -105.977 Q 8.607 -105.215 8.182 -104.694 Q 7.756 -104.174 7.062 -103.916 Q 6.367 -103.658 5.55 -103.658 Q 5.046 -103.658 4.777 -103.754 Q 4.508 -103.849 4.402 -103.989 Q 4.295 -104.129 4.295 -104.274 Q 4.295 -104.454 4.407 -104.61 Q 4.519 -104.767 4.732 -104.767 Q 4.866 -104.767 4.984 -104.717 Q 5.102 -104.666 5.393 -104.51 Q 5.751 -104.33 5.925 -104.274 Q 6.098 -104.218 6.3 -104.218 Q 6.658 -104.218 6.972 -104.347 Q 7.286 -104.476 7.487 -104.784 Q 7.689 -105.092 7.689 -105.641 Q 7.689 -106.145 7.409 -106.514 Q 7.129 -106.884 6.664 -107.091 Q 6.199 -107.298 5.662 -107.298 L 5.438 -107.298 L 5.438 -107.724 L 5.65 -107.724 Q 6.031 -107.724 6.39 -107.914 Q 6.748 -108.105 6.978 -108.452 Q 7.207 -108.799 7.207 -109.247 Q 7.207 -109.74 6.899 -110.014 Q 6.591 -110.289 6.065 -110.289 Q 5.561 -110.289 5.225 -110.059 Q 4.889 -109.83 4.598 -109.382 Z " fill="black" /><path d="M 14.566 -105.574 L 14.566 -105.574 L 13.423 -105.574 L 13.423 -103.804 L 12.426 -103.804 L 12.426 -105.574 L 9.324 -105.574 L 9.324 -106.279 L 12.74 -111.028 L 13.423 -111.028 L 13.423 -106.346 L 14.566 -106.346 Z M 12.426 -106.346 L 12.426 -106.346 L 12.426 -109.807 L 12.382 -109.807 L 9.94 -106.391 L 9.94 -106.346 Z " fill="black" /></g></g></g><g><g><g><rect x="-2.16" y="-130.672" width="4.32" height="1.088" fill="black" /></g></g></g><circle cx="-1.1578483077671783e-14" cy="-144.0" r="2.6999999999999997" style="stroke:black;fill:white;stroke-width:2.0;" /></svg>