<svg xmlns="http://www.w3.org/2000/svg" xmlns:xlink="http://www.w3.org/1999/xlink" xml:lang="en" height="232.80239999999995pt" width="192.66159999999996pt" viewBox="-62.06159999999999 -61.16239999999999 192.66159999999996 232.80239999999995"><circle cx="107.99999999999999" cy="36.0" r="18.0" style="stroke:black;fill:none;stroke-width:2.0;stroke-dasharray:-;" /><path d="M 0.0,-0.0 L -18.0,-2.204364238465236e-15 L -36.0,-4.408728476930472e-15" style="stroke:black;fill:none;stroke-width:2.0;stroke-dasharray:-;stroke-linecap:round;stroke-linejoin:round;" /><path d="M -1.3226185430791413e-14,72.0 L 53.999999999999986,72.0 L 107.99999999999999,72.0" style="stroke:black;fill:none;stroke-width:2.0;stroke-dasharray:-;stroke-linecap:round;stroke-linejoin:round;" /><path d="M 107.99999999999999,72.0 L 107.99999999999999,54.0 L 107.99999999999999,54.0 M 107.99999999999999,18.0 L 107.99999999999999,18.0 L 107.99999999999999,-0.0" style="stroke:black;fill:none;stroke-width:2.0;stroke-dasharray:-;stroke-linecap:round;stroke-linejoin:round;" /><path d="M 107.99999999999999,36.0 L 107.99999999999999,27.0" style="stroke:black;fill:none;stroke-width:2.0;stroke-dasharray:-;stroke-linecap:round;stroke-linejoin:round;" /><path d="M 107.99999999999999 43.0 L 105.29999999999998 36.0 L 110.69999999999999 36.0 Z" style="stroke:black;fill:black;stroke-linecap:butt;stroke-linejoin:miter;" /><path d="M 107.99999999999999,-0.0 L 107.99999999999999,-18.0 L 107.99999999999999,-36.0" style="stroke:black;fill:none;stroke-width:2.0;stroke-dasharray:-;stroke-linecap:round;stroke-linejoin:round;" /><path d="M 107.99999999999999,72.0 L 107.99999999999999,90.0 L 116.99999999999999,93.0 L 98.99999999999999,99.0 L 116.99999999999999,105.0 L 98.99999999999997,110.99999999999999 L 116.99999999999997,117.0 L 98.99999999999997,123.0 L 107.99999999999997,126.0 L 107.99999999999997,144.0" style="stroke:black;fill:none;stroke-width:2.0;stroke-dasharray:-;stroke-linecap:round;stroke-linejoin:round;" /><path d="M 107.99999999999997,144.0 L 107.99999999999997,158.4 L 98.99999999999997,158.4 L 116.99999999999997,158.4 M 101.69999999999997,162.71999999999997 L 114.29999999999995,162.71999999999997 M 106.19999999999997,167.04 L 109.79999999999995,167.04" style="stroke:black;fill:none;stroke-width:2.0;stroke-dasharray:-;stroke-linecap:round;stroke-linejoin:round;" /><circle cx="-36.0" cy="-4.408728476930472e-15" r="2.6999999999999997" style="stroke:black;fill:white;stroke-width:2.0;stroke-dasharray:-;" /><circle cx="0.0" cy="-0.0" r="2.6999999999999997" style="stroke:black;fill:white;stroke-width:2.0;stroke-dasharray:-;" /><g><g><g><path d="M -58.225 -5.464 L -58.225 -5.464 L -57.873 -5.464 L -58.625 -2.392 Q -58.737 -1.976 -58.857 -1.392 Q -58.977 -0.808 -58.977 -0.264 Q -58.977 0.36 -58.721 0.816 Q -58.465 1.272 -57.729 1.272 Q -56.913 1.272 -56.321 0.88 Q -55.729 0.488 -55.353 -0.12 Q -54.977 -0.728 -54.793 -1.4 Q -54.609 -2.072 -54.609 -2.632 Q -54.609 -3.048 -54.753 -3.352 Q -54.897 -3.656 -55.097 -3.896 Q -55.297 -4.136 -55.441 -4.36 Q -55.585 -4.584 -55.585 -4.84 Q -55.585 -5.16 -55.409 -5.336 Q -55.233 -5.512 -54.977 -5.512 Q -54.433 -5.512 -54.097 -4.968 Q -53.761 -4.424 -53.761 -3.576 Q -53.761 -2.84 -53.945 -2.032 Q -54.129 -1.224 -54.497 -0.456 Q -54.865 0.312 -55.409 0.936 Q -55.953 1.56 -56.657 1.928 Q -57.361 2.296 -58.225 2.296 Q -59.025 2.296 -59.473 1.976 Q -59.921 1.656 -60.105 1.128 Q -60.289 0.6 -60.289 -0.008 Q -60.289 -0.584 -60.177 -1.192 Q -60.065 -1.8 -59.937 -2.296 L -59.617 -3.512 Q -59.585 -3.64 -59.521 -3.896 Q -59.457 -4.152 -59.457 -4.392 Q -59.457 -4.6 -59.537 -4.744 Q -59.617 -4.888 -59.841 -4.888 Q -60.033 -4.888 -60.305 -4.864 Q -60.577 -4.84 -60.577 -4.84 L -60.577 -5.288 Z " fill="black" /><path d="M -49.449 5.098 L -49.449 5.098 L -49.449 5.512 L -52.294 5.512 L -52.294 5.098 Q -51.902 5.098 -51.728 5.014 Q -51.554 4.93 -51.51 4.745 Q -51.465 4.56 -51.465 4.258 L -51.465 0.875 Q -51.465 0.494 -51.588 0.416 Q -51.711 0.338 -52.002 0.338 Q -52.148 0.338 -52.238 0.349 Q -52.327 0.36 -52.327 0.36 L -52.327 -0.088 L -50.826 -0.334 L -50.367 -0.334 L -50.367 4.258 Q -50.367 4.582 -50.317 4.767 Q -50.266 4.952 -50.07 5.025 Q -49.874 5.098 -49.449 5.098 Z M -50.927 -2.81 L -50.927 -2.81 Q -50.602 -2.81 -50.384 -2.586 Q -50.166 -2.362 -50.166 -2.07 Q -50.166 -1.802 -50.384 -1.578 Q -50.602 -1.354 -50.927 -1.354 Q -51.241 -1.354 -51.448 -1.578 Q -51.655 -1.802 -51.655 -2.07 Q -51.655 -2.362 -51.448 -2.586 Q -51.241 -2.81 -50.927 -2.81 Z " fill="black" /><path d="M -42.796 1.76 L -42.796 1.76 L -42.796 4.269 Q -42.796 4.582 -42.74 4.767 Q -42.684 4.952 -42.494 5.03 Q -42.303 5.109 -41.9 5.109 L -41.9 5.512 L -44.778 5.512 L -44.778 5.109 Q -44.353 5.109 -44.162 5.03 Q -43.972 4.952 -43.927 4.767 Q -43.882 4.582 -43.882 4.269 L -43.882 2.13 Q -43.882 1.379 -44.056 1.026 Q -44.23 0.674 -44.493 0.562 Q -44.756 0.45 -45.025 0.45 Q -45.506 0.45 -45.87 0.696 Q -46.234 0.942 -46.503 1.166 L -46.503 4.269 Q -46.503 4.582 -46.453 4.767 Q -46.402 4.952 -46.212 5.03 Q -46.022 5.109 -45.607 5.109 L -45.607 5.512 L -48.43 5.512 L -48.43 5.109 Q -48.038 5.109 -47.864 5.03 Q -47.69 4.952 -47.646 4.767 Q -47.601 4.582 -47.601 4.269 L -47.601 0.864 Q -47.601 0.55 -47.718 0.444 Q -47.836 0.338 -48.094 0.338 Q -48.228 0.338 -48.318 0.349 Q -48.407 0.36 -48.407 0.36 L -48.407 -0.066 L -46.906 -0.334 L -46.537 -0.334 L -46.537 0.584 L -46.458 0.584 Q -45.977 0.147 -45.534 -0.11 Q -45.092 -0.368 -44.532 -0.368 Q -43.871 -0.368 -43.496 -0.071 Q -43.121 0.226 -42.958 0.707 Q -42.796 1.189 -42.796 1.76 Z " fill="black" /></g></g></g><g><g><g><path d="M 5.264 18.544 L 5.264 18.544 L 1.072 18.544 L 1.072 22.784 L -0.08 22.784 L -0.08 18.544 L -4.272 18.544 L -4.272 17.456 L -0.08 17.456 L -0.08 13.216 L 1.072 13.216 L 1.072 17.456 L 5.264 17.456 Z " fill="black" /></g></g></g><g><g><g><path d="M -6.043 29.114 L -6.043 29.114 L -5.691 29.114 L -6.443 32.186 Q -6.555 32.602 -6.675 33.186 Q -6.795 33.77 -6.795 34.314 Q -6.795 34.938 -6.539 35.394 Q -6.283 35.85 -5.547 35.85 Q -4.731 35.85 -4.139 35.458 Q -3.547 35.066 -3.171 34.458 Q -2.795 33.85 -2.611 33.178 Q -2.427 32.506 -2.427 31.946 Q -2.427 31.53 -2.571 31.226 Q -2.715 30.922 -2.915 30.682 Q -3.115 30.442 -3.259 30.218 Q -3.403 29.994 -3.403 29.738 Q -3.403 29.418 -3.227 29.242 Q -3.051 29.066 -2.795 29.066 Q -2.251 29.066 -1.915 29.61 Q -1.579 30.154 -1.579 31.002 Q -1.579 31.738 -1.763 32.546 Q -1.947 33.354 -2.315 34.122 Q -2.683 34.89 -3.227 35.514 Q -3.771 36.138 -4.475 36.506 Q -5.179 36.874 -6.043 36.874 Q -6.843 36.874 -7.291 36.554 Q -7.739 36.234 -7.923 35.706 Q -8.107 35.178 -8.107 34.57 Q -8.107 33.994 -7.995 33.386 Q -7.883 32.778 -7.755 32.282 L -7.435 31.066 Q -7.403 30.938 -7.339 30.682 Q -7.275 30.426 -7.275 30.186 Q -7.275 29.978 -7.355 29.834 Q -7.435 29.69 -7.659 29.69 Q -7.851 29.69 -8.123 29.714 Q -8.395 29.738 -8.395 29.738 L -8.395 29.29 Z " fill="black" /><path d="M 0.056 37.838 L 0.056 37.838 L 0.056 37.794 Q -0.336 37.558 -0.61 37.183 Q -0.885 36.808 -0.885 36.214 Q -0.885 35.587 -0.582 35.139 Q -0.28 34.691 0.235 34.45 Q 0.75 34.21 1.389 34.21 Q 1.982 34.21 2.358 34.338 Q 2.733 34.467 2.733 34.467 L 4.379 34.422 L 4.379 35.083 L 3.203 35.061 L 3.203 35.139 Q 3.349 35.341 3.506 35.615 Q 3.662 35.89 3.662 36.382 Q 3.662 36.942 3.366 37.351 Q 3.069 37.76 2.57 37.978 Q 2.072 38.197 1.445 38.197 Q 0.874 38.197 0.37 37.995 Q 0.291 38.141 0.185 38.41 Q 0.078 38.678 0.078 38.869 Q 0.078 39.104 0.353 39.216 Q 0.627 39.328 1.445 39.328 Q 2.05 39.328 2.565 39.356 Q 3.08 39.384 3.461 39.513 Q 3.842 39.642 4.049 39.927 Q 4.256 40.213 4.256 40.739 Q 4.256 41.344 3.948 41.764 Q 3.64 42.184 3.136 42.442 Q 2.632 42.699 2.044 42.817 Q 1.456 42.934 0.885 42.934 Q 0.067 42.934 -0.381 42.733 Q -0.829 42.531 -1.002 42.218 Q -1.176 41.904 -1.176 41.579 Q -1.176 41.266 -0.958 40.958 Q -0.739 40.65 -0.258 40.202 L -0.258 40.146 Q -0.538 40 -0.728 39.754 Q -0.918 39.507 -0.918 39.272 Q -0.918 38.936 -0.622 38.561 Q -0.325 38.186 0.056 37.838 Z M 0.112 40.258 L 0.112 40.258 Q -0.078 40.582 -0.146 40.773 Q -0.213 40.963 -0.213 41.154 Q -0.213 41.669 0.207 41.932 Q 0.627 42.195 1.512 42.195 Q 2.24 42.195 2.688 42.016 Q 3.136 41.837 3.349 41.585 Q 3.562 41.333 3.562 41.098 Q 3.562 40.795 3.366 40.627 Q 3.17 40.459 2.867 40.386 Q 2.565 40.314 2.229 40.291 Q 1.893 40.269 1.602 40.269 Q 1.523 40.269 1.478 40.269 Q 0.762 40.269 0.498 40.263 Q 0.235 40.258 0.112 40.258 Z M 1.322 34.702 L 1.322 34.702 Q 0.84 34.702 0.543 35.027 Q 0.246 35.352 0.246 36.147 Q 0.246 36.931 0.56 37.334 Q 0.874 37.738 1.445 37.738 Q 1.747 37.738 1.994 37.614 Q 2.24 37.491 2.391 37.166 Q 2.542 36.842 2.542 36.248 Q 2.542 35.486 2.212 35.094 Q 1.882 34.702 1.322 34.702 Z " fill="black" /><path d="M 5.365 38.051 L 5.365 38.051 L 5.723 38.051 Q 5.869 38.701 6.07 39.059 Q 6.272 39.418 6.591 39.558 Q 6.91 39.698 7.37 39.698 Q 7.896 39.698 8.182 39.524 Q 8.467 39.35 8.467 38.914 Q 8.467 38.622 8.327 38.426 Q 8.187 38.23 7.879 38.051 Q 7.571 37.872 7.056 37.637 Q 6.53 37.379 6.154 37.155 Q 5.779 36.931 5.583 36.629 Q 5.387 36.326 5.387 35.867 Q 5.387 35.061 5.93 34.635 Q 6.474 34.21 7.291 34.21 Q 7.784 34.21 8.126 34.333 Q 8.467 34.456 8.669 34.546 L 8.691 34.546 L 8.87 34.266 L 9.184 34.266 L 9.206 36.125 L 8.814 36.125 Q 8.602 35.262 8.221 34.966 Q 7.84 34.669 7.347 34.669 Q 6.832 34.669 6.569 34.893 Q 6.306 35.117 6.306 35.475 Q 6.306 35.766 6.485 35.957 Q 6.664 36.147 6.994 36.31 Q 7.325 36.472 7.784 36.696 Q 8.299 36.942 8.691 37.206 Q 9.083 37.469 9.307 37.799 Q 9.531 38.13 9.531 38.622 Q 9.531 39.216 9.218 39.574 Q 8.904 39.933 8.411 40.084 Q 7.918 40.235 7.381 40.235 Q 6.832 40.235 6.53 40.123 Q 6.227 40.011 5.97 39.91 L 5.925 39.91 L 5.645 40.202 L 5.387 40.202 Z " fill="black" /></g></g></g><g><g><g><rect x="-2.16" y="49.328" width="4.32" height="1.088" fill="black" /></g></g></g><circle cx="107.99999999999999" cy="72.0" r="2.6999999999999997" style="stroke:black;fill:black;stroke-width:2.0;stroke-dasharray:-;" /><circle cx="-1.3226185430791413e-14" cy="72.0" r="2.6999999999999997" style="stroke:black;fill:white;stroke-width:2.0;stroke-dasharray:-;" /><g><g><g><path d="M 55.834 29.258 L 55.834 29.258 L 55.738 30.074 L 54.346 29.914 L 54.346 29.962 Q 54.618 30.266 54.77 30.722 Q 54.922 31.178 54.922 31.594 Q 54.922 32.314 54.634 32.802 Q 54.346 33.29 53.882 33.586 Q 53.418 33.882 52.858 34.034 Q 52.298 34.186 51.77 34.234 Q 51.13 34.298 50.866 34.506 Q 50.602 34.714 50.602 34.938 Q 50.602 35.226 50.922 35.378 Q 51.242 35.53 51.746 35.626 Q 52.25 35.722 52.826 35.842 Q 53.402 35.962 53.906 36.17 Q 54.41 36.378 54.73 36.754 Q 55.05 37.13 55.05 37.754 Q 55.05 38.442 54.602 39.026 Q 54.154 39.61 53.274 39.97 Q 52.394 40.33 51.114 40.33 Q 49.962 40.33 49.274 40.05 Q 48.586 39.77 48.282 39.33 Q 47.978 38.89 47.978 38.41 Q 47.978 37.642 48.57 37.17 Q 49.162 36.698 49.914 36.458 L 49.914 36.394 Q 49.706 36.266 49.522 36.034 Q 49.338 35.802 49.338 35.434 Q 49.338 35.034 49.546 34.794 Q 49.754 34.554 50.082 34.402 Q 50.41 34.25 50.73 34.138 L 50.73 34.042 Q 50.106 33.77 49.642 33.274 Q 49.178 32.778 49.178 31.866 Q 49.178 31.034 49.578 30.402 Q 49.978 29.77 50.674 29.418 Q 51.37 29.066 52.234 29.066 Q 52.81 29.066 53.106 29.122 Q 53.402 29.178 53.69 29.258 Z M 53.898 38.346 L 53.898 38.346 Q 53.898 37.866 53.498 37.57 Q 53.098 37.274 52.506 37.098 Q 51.914 36.922 51.314 36.818 Q 50.714 36.714 50.298 36.634 Q 49.898 36.89 49.562 37.218 Q 49.226 37.546 49.226 38.17 Q 49.226 38.81 49.722 39.29 Q 50.218 39.77 51.434 39.77 Q 52.586 39.77 53.242 39.346 Q 53.898 38.922 53.898 38.346 Z M 53.498 31.418 L 53.498 31.418 Q 53.498 30.618 53.194 30.082 Q 52.89 29.546 52.186 29.546 Q 51.498 29.546 51.05 30.122 Q 50.602 30.698 50.602 31.866 Q 50.602 32.698 50.89 33.218 Q 51.178 33.738 51.866 33.738 Q 52.666 33.738 53.082 33.066 Q 53.498 32.394 53.498 31.418 Z " fill="black" /><path d="M 58.566 35.755 L 58.566 35.755 L 58.566 38.858 Q 58.566 39.194 58.634 39.373 Q 58.701 39.552 58.891 39.614 Q 59.082 39.675 59.451 39.675 L 59.451 40.09 L 56.629 40.09 L 56.629 39.675 Q 56.987 39.675 57.166 39.614 Q 57.346 39.552 57.402 39.367 Q 57.458 39.182 57.458 38.835 L 57.458 35.442 Q 57.458 35.128 57.34 35.022 Q 57.222 34.915 56.965 34.915 Q 56.842 34.915 56.746 34.926 Q 56.651 34.938 56.651 34.938 L 56.651 34.512 L 58.118 34.243 L 58.533 34.243 L 58.533 35.162 L 58.611 35.162 Q 59.082 34.736 59.552 34.473 Q 60.022 34.21 60.661 34.21 Q 61.187 34.21 61.518 34.478 Q 61.848 34.747 62.027 35.139 L 62.083 35.139 Q 63.102 34.21 64.043 34.21 Q 64.805 34.21 65.247 34.68 Q 65.69 35.15 65.69 36.17 L 65.69 38.634 Q 65.69 39.014 65.734 39.244 Q 65.779 39.474 65.958 39.574 Q 66.138 39.675 66.541 39.675 L 66.541 40.09 L 63.73 40.09 L 63.73 39.675 Q 64.144 39.675 64.329 39.569 Q 64.514 39.462 64.558 39.233 Q 64.603 39.003 64.603 38.634 L 64.603 36.304 Q 64.603 35.598 64.318 35.318 Q 64.032 35.038 63.584 35.038 Q 63.203 35.038 62.822 35.268 Q 62.442 35.498 62.15 35.722 L 62.15 38.634 Q 62.15 39.048 62.201 39.278 Q 62.251 39.507 62.447 39.591 Q 62.643 39.675 63.058 39.675 L 63.058 40.09 L 60.134 40.09 L 60.134 39.675 Q 60.56 39.675 60.756 39.591 Q 60.952 39.507 61.008 39.278 Q 61.064 39.048 61.064 38.634 L 61.064 36.27 Q 61.064 35.565 60.812 35.302 Q 60.56 35.038 60.123 35.038 Q 59.664 35.038 59.244 35.285 Q 58.824 35.531 58.566 35.755 Z " fill="black" /><path d="M 70.234 29.114 L 70.234 29.114 L 70.586 29.114 L 69.834 32.186 Q 69.722 32.602 69.602 33.186 Q 69.482 33.77 69.482 34.314 Q 69.482 34.938 69.738 35.394 Q 69.994 35.85 70.73 35.85 Q 71.546 35.85 72.138 35.458 Q 72.73 35.066 73.106 34.458 Q 73.482 33.85 73.666 33.178 Q 73.85 32.506 73.85 31.946 Q 73.85 31.53 73.706 31.226 Q 73.562 30.922 73.362 30.682 Q 73.162 30.442 73.018 30.218 Q 72.874 29.994 72.874 29.738 Q 72.874 29.418 73.05 29.242 Q 73.226 29.066 73.482 29.066 Q 74.026 29.066 74.362 29.61 Q 74.698 30.154 74.698 31.002 Q 74.698 31.738 74.514 32.546 Q 74.33 33.354 73.962 34.122 Q 73.594 34.89 73.05 35.514 Q 72.506 36.138 71.802 36.506 Q 71.098 36.874 70.234 36.874 Q 69.434 36.874 68.986 36.554 Q 68.538 36.234 68.354 35.706 Q 68.17 35.178 68.17 34.57 Q 68.17 33.994 68.282 33.386 Q 68.394 32.778 68.522 32.282 L 68.842 31.066 Q 68.874 30.938 68.938 30.682 Q 69.002 30.426 69.002 30.186 Q 69.002 29.978 68.922 29.834 Q 68.842 29.69 68.618 29.69 Q 68.426 29.69 68.154 29.714 Q 67.882 29.738 67.882 29.738 L 67.882 29.29 Z " fill="black" /><path d="M 76.333 37.838 L 76.333 37.838 L 76.333 37.794 Q 75.941 37.558 75.666 37.183 Q 75.392 36.808 75.392 36.214 Q 75.392 35.587 75.694 35.139 Q 75.997 34.691 76.512 34.45 Q 77.027 34.21 77.666 34.21 Q 78.259 34.21 78.634 34.338 Q 79.01 34.467 79.01 34.467 L 80.656 34.422 L 80.656 35.083 L 79.48 35.061 L 79.48 35.139 Q 79.626 35.341 79.782 35.615 Q 79.939 35.89 79.939 36.382 Q 79.939 36.942 79.642 37.351 Q 79.346 37.76 78.847 37.978 Q 78.349 38.197 77.722 38.197 Q 77.15 38.197 76.646 37.995 Q 76.568 38.141 76.462 38.41 Q 76.355 38.678 76.355 38.869 Q 76.355 39.104 76.63 39.216 Q 76.904 39.328 77.722 39.328 Q 78.326 39.328 78.842 39.356 Q 79.357 39.384 79.738 39.513 Q 80.118 39.642 80.326 39.927 Q 80.533 40.213 80.533 40.739 Q 80.533 41.344 80.225 41.764 Q 79.917 42.184 79.413 42.442 Q 78.909 42.699 78.321 42.817 Q 77.733 42.934 77.162 42.934 Q 76.344 42.934 75.896 42.733 Q 75.448 42.531 75.274 42.218 Q 75.101 41.904 75.101 41.579 Q 75.101 41.266 75.319 40.958 Q 75.538 40.65 76.019 40.202 L 76.019 40.146 Q 75.739 40 75.549 39.754 Q 75.358 39.507 75.358 39.272 Q 75.358 38.936 75.655 38.561 Q 75.952 38.186 76.333 37.838 Z M 76.389 40.258 L 76.389 40.258 Q 76.198 40.582 76.131 40.773 Q 76.064 40.963 76.064 41.154 Q 76.064 41.669 76.484 41.932 Q 76.904 42.195 77.789 42.195 Q 78.517 42.195 78.965 42.016 Q 79.413 41.837 79.626 41.585 Q 79.838 41.333 79.838 41.098 Q 79.838 40.795 79.642 40.627 Q 79.446 40.459 79.144 40.386 Q 78.842 40.314 78.506 40.291 Q 78.17 40.269 77.878 40.269 Q 77.8 40.269 77.755 40.269 Q 77.038 40.269 76.775 40.263 Q 76.512 40.258 76.389 40.258 Z M 77.598 34.702 L 77.598 34.702 Q 77.117 34.702 76.82 35.027 Q 76.523 35.352 76.523 36.147 Q 76.523 36.931 76.837 37.334 Q 77.15 37.738 77.722 37.738 Q 78.024 37.738 78.27 37.614 Q 78.517 37.491 78.668 37.166 Q 78.819 36.842 78.819 36.248 Q 78.819 35.486 78.489 35.094 Q 78.158 34.702 77.598 34.702 Z " fill="black" /><path d="M 81.642 38.051 L 81.642 38.051 L 82 38.051 Q 82.146 38.701 82.347 39.059 Q 82.549 39.418 82.868 39.558 Q 83.187 39.698 83.646 39.698 Q 84.173 39.698 84.458 39.524 Q 84.744 39.35 84.744 38.914 Q 84.744 38.622 84.604 38.426 Q 84.464 38.23 84.156 38.051 Q 83.848 37.872 83.333 37.637 Q 82.806 37.379 82.431 37.155 Q 82.056 36.931 81.86 36.629 Q 81.664 36.326 81.664 35.867 Q 81.664 35.061 82.207 34.635 Q 82.75 34.21 83.568 34.21 Q 84.061 34.21 84.402 34.333 Q 84.744 34.456 84.946 34.546 L 84.968 34.546 L 85.147 34.266 L 85.461 34.266 L 85.483 36.125 L 85.091 36.125 Q 84.878 35.262 84.498 34.966 Q 84.117 34.669 83.624 34.669 Q 83.109 34.669 82.846 34.893 Q 82.582 35.117 82.582 35.475 Q 82.582 35.766 82.762 35.957 Q 82.941 36.147 83.271 36.31 Q 83.602 36.472 84.061 36.696 Q 84.576 36.942 84.968 37.206 Q 85.36 37.469 85.584 37.799 Q 85.808 38.13 85.808 38.622 Q 85.808 39.216 85.494 39.574 Q 85.181 39.933 84.688 40.084 Q 84.195 40.235 83.658 40.235 Q 83.109 40.235 82.806 40.123 Q 82.504 40.011 82.246 39.91 L 82.202 39.91 L 81.922 40.202 L 81.664 40.202 Z " fill="black" /></g></g></g><circle cx="107.99999999999999" cy="-36.0" r="2.6999999999999997" style="stroke:black;fill:white;stroke-width:2.0;stroke-dasharray:-;" /><g><g><g><path d="M 100.342 -53.41 L 100.342 -53.41 L 99.142 -47.714 Q 99.142 -47.714 99.102 -47.466 Q 99.062 -47.218 99.062 -47.042 Q 99.062 -46.738 99.35 -46.738 Q 99.766 -46.738 100.086 -47.05 Q 100.406 -47.362 100.598 -47.57 L 100.918 -47.33 Q 100.646 -46.946 100.326 -46.554 Q 100.006 -46.162 99.606 -45.906 Q 99.206 -45.65 98.678 -45.65 Q 97.67 -45.65 97.67 -46.498 Q 97.67 -46.706 97.726 -47.034 Q 97.782 -47.362 97.942 -48.066 L 98.758 -51.874 Q 98.758 -51.874 98.782 -52.018 Q 98.806 -52.162 98.806 -52.37 Q 98.806 -52.53 98.71 -52.682 Q 98.614 -52.834 98.294 -52.834 Q 98.086 -52.834 97.918 -52.818 Q 97.75 -52.802 97.75 -52.802 L 97.75 -53.234 L 99.99 -53.41 Z M 100.726 -55.554 L 100.726 -55.554 Q 100.726 -55.154 100.47 -54.922 Q 100.214 -54.69 99.846 -54.69 Q 99.494 -54.69 99.254 -54.914 Q 99.014 -55.138 99.014 -55.554 Q 99.014 -55.97 99.254 -56.202 Q 99.494 -56.434 99.894 -56.434 Q 100.294 -56.434 100.51 -56.194 Q 100.726 -55.954 100.726 -55.554 Z " fill="black" /><path d="M 104.683 -48.314 L 104.683 -48.314 Q 105.523 -48.314 106.15 -47.95 Q 106.778 -47.586 107.119 -46.931 Q 107.461 -46.276 107.461 -45.391 Q 107.461 -44.327 107.102 -43.644 Q 106.744 -42.961 106.117 -42.63 Q 105.49 -42.3 104.683 -42.3 Q 103.866 -42.3 103.233 -42.642 Q 102.6 -42.983 102.247 -43.666 Q 101.894 -44.35 101.894 -45.38 Q 101.894 -46.254 102.242 -46.914 Q 102.589 -47.575 103.216 -47.945 Q 103.843 -48.314 104.683 -48.314 Z M 104.661 -47.799 L 104.661 -47.799 Q 103.922 -47.799 103.502 -47.2 Q 103.082 -46.601 103.082 -45.447 Q 103.082 -44.025 103.513 -43.437 Q 103.944 -42.849 104.717 -42.849 Q 105.21 -42.86 105.557 -43.095 Q 105.904 -43.33 106.089 -43.885 Q 106.274 -44.439 106.274 -45.391 Q 106.274 -46.534 105.882 -47.166 Q 105.49 -47.799 104.661 -47.799 Z " fill="black" /><path d="M 115.077 -43.006 L 115.077 -43.006 L 115.077 -42.58 L 113.565 -42.378 L 113.206 -42.378 L 113.206 -43.252 L 113.094 -43.252 Q 112.669 -42.871 112.232 -42.597 Q 111.795 -42.322 111.179 -42.322 Q 110.35 -42.322 109.914 -42.826 Q 109.477 -43.33 109.477 -44.574 L 109.477 -46.982 Q 109.477 -47.441 109.314 -47.547 Q 109.152 -47.654 108.637 -47.654 L 108.637 -48.057 L 110.194 -48.27 L 110.563 -48.27 L 110.563 -44.719 Q 110.563 -44.092 110.709 -43.745 Q 110.854 -43.398 111.101 -43.263 Q 111.347 -43.129 111.638 -43.129 Q 112.131 -43.129 112.462 -43.336 Q 112.792 -43.543 113.15 -43.834 L 113.15 -46.982 Q 113.15 -47.441 112.949 -47.547 Q 112.747 -47.654 112.176 -47.654 L 112.176 -48.057 L 113.845 -48.27 L 114.237 -48.27 L 114.237 -43.734 Q 114.237 -43.398 114.298 -43.241 Q 114.36 -43.084 114.517 -43.045 Q 114.674 -43.006 114.954 -43.006 Z " fill="black" /><path d="M 119.445 -43.554 L 119.445 -43.554 L 119.702 -43.342 Q 119.456 -43.006 119.254 -42.776 Q 119.053 -42.546 118.795 -42.423 Q 118.538 -42.3 118.134 -42.3 Q 117.485 -42.3 117.188 -42.67 Q 116.891 -43.039 116.891 -43.857 L 116.891 -47.62 L 116.186 -47.62 L 116.186 -47.956 Q 116.589 -48.247 116.925 -48.667 Q 117.261 -49.087 117.597 -49.871 L 117.989 -49.871 L 117.978 -48.169 L 119.4 -48.169 L 119.4 -47.62 L 117.978 -47.62 L 117.978 -44.226 Q 117.978 -43.599 118.095 -43.336 Q 118.213 -43.073 118.571 -43.073 Q 118.896 -43.073 119.064 -43.19 Q 119.232 -43.308 119.445 -43.554 Z " fill="black" /></g></g></g><g><g><g><path d="M 76.765 102.56 L 76.765 102.56 L 76.669 103.376 L 75.277 103.216 L 75.277 103.264 Q 75.549 103.568 75.701 104.024 Q 75.853 104.48 75.853 104.896 Q 75.853 105.616 75.565 106.104 Q 75.277 106.592 74.813 106.888 Q 74.349 107.184 73.789 107.336 Q 73.229 107.488 72.701 107.536 Q 72.061 107.6 71.797 107.808 Q 71.533 108.016 71.533 108.24 Q 71.533 108.528 71.853 108.68 Q 72.173 108.832 72.677 108.928 Q 73.181 109.024 73.757 109.144 Q 74.333 109.264 74.837 109.472 Q 75.341 109.68 75.661 110.056 Q 75.981 110.432 75.981 111.056 Q 75.981 111.744 75.533 112.328 Q 75.085 112.912 74.205 113.272 Q 73.325 113.632 72.045 113.632 Q 70.893 113.632 70.205 113.352 Q 69.517 113.072 69.213 112.632 Q 68.909 112.192 68.909 111.712 Q 68.909 110.944 69.501 110.472 Q 70.093 110 70.845 109.76 L 70.845 109.696 Q 70.637 109.568 70.453 109.336 Q 70.269 109.104 70.269 108.736 Q 70.269 108.336 70.477 108.096 Q 70.685 107.856 71.013 107.704 Q 71.341 107.552 71.661 107.44 L 71.661 107.344 Q 71.037 107.072 70.573 106.576 Q 70.109 106.08 70.109 105.168 Q 70.109 104.336 70.509 103.704 Q 70.909 103.072 71.605 102.72 Q 72.301 102.368 73.165 102.368 Q 73.741 102.368 74.037 102.424 Q 74.333 102.48 74.621 102.56 Z M 74.829 111.648 L 74.829 111.648 Q 74.829 111.168 74.429 110.872 Q 74.029 110.576 73.437 110.4 Q 72.845 110.224 72.245 110.12 Q 71.645 110.016 71.229 109.936 Q 70.829 110.192 70.493 110.52 Q 70.157 110.848 70.157 111.472 Q 70.157 112.112 70.653 112.592 Q 71.149 113.072 72.365 113.072 Q 73.517 113.072 74.173 112.648 Q 74.829 112.224 74.829 111.648 Z M 74.429 104.72 L 74.429 104.72 Q 74.429 103.92 74.125 103.384 Q 73.821 102.848 73.117 102.848 Q 72.429 102.848 71.981 103.424 Q 71.533 104 71.533 105.168 Q 71.533 106 71.821 106.52 Q 72.109 107.04 72.797 107.04 Q 73.597 107.04 74.013 106.368 Q 74.429 105.696 74.429 104.72 Z " fill="black" /><path d="M 80.83 112.272 L 80.83 112.272 L 81.088 112.485 Q 80.842 112.821 80.64 113.05 Q 80.438 113.28 80.181 113.403 Q 79.923 113.526 79.52 113.526 Q 78.87 113.526 78.574 113.157 Q 78.277 112.787 78.277 111.97 L 78.277 108.206 L 77.571 108.206 L 77.571 107.87 Q 77.974 107.579 78.31 107.159 Q 78.646 106.739 78.982 105.955 L 79.374 105.955 L 79.363 107.658 L 80.786 107.658 L 80.786 108.206 L 79.363 108.206 L 79.363 111.6 Q 79.363 112.227 79.481 112.49 Q 79.598 112.754 79.957 112.754 Q 80.282 112.754 80.45 112.636 Q 80.618 112.518 80.83 112.272 Z " fill="black" /><path d="M 85.411 112.686 L 85.411 112.686 L 85.333 112.686 Q 84.952 113 84.493 113.235 Q 84.034 113.47 83.496 113.47 Q 82.79 113.47 82.415 113.045 Q 82.04 112.619 82.04 112.014 Q 82.04 111.499 82.281 111.152 Q 82.522 110.805 82.908 110.586 Q 83.294 110.368 83.742 110.234 Q 84.19 110.099 84.605 110.021 Q 85.019 109.942 85.299 109.875 L 85.299 109.293 Q 85.299 108.542 85.002 108.257 Q 84.706 107.971 84.134 107.971 Q 83.787 107.971 83.636 108.061 Q 83.485 108.15 83.446 108.352 Q 83.406 108.554 83.395 108.878 Q 83.384 109.125 83.25 109.276 Q 83.115 109.427 82.858 109.427 Q 82.611 109.427 82.438 109.276 Q 82.264 109.125 82.264 108.834 Q 82.264 108.486 82.533 108.184 Q 82.802 107.882 83.3 107.697 Q 83.798 107.512 84.47 107.512 Q 85.478 107.512 85.932 107.977 Q 86.386 108.442 86.386 109.371 L 86.386 112.115 Q 86.386 112.485 86.47 112.591 Q 86.554 112.698 86.733 112.698 Q 86.923 112.698 87.063 112.619 Q 87.203 112.541 87.326 112.395 L 87.573 112.63 Q 86.99 113.459 86.206 113.459 Q 85.77 113.459 85.607 113.252 Q 85.445 113.045 85.411 112.686 Z M 85.299 112.272 L 85.299 112.272 L 85.299 110.301 Q 84.784 110.435 84.291 110.598 Q 83.798 110.76 83.479 111.04 Q 83.16 111.32 83.16 111.824 Q 83.16 112.261 83.412 112.513 Q 83.664 112.765 84.056 112.765 Q 84.291 112.765 84.622 112.658 Q 84.952 112.552 85.299 112.272 Z " fill="black" /><path d="M 91.09 112.978 L 91.09 112.978 L 91.09 113.392 L 88.245 113.392 L 88.245 112.978 Q 88.637 112.978 88.81 112.894 Q 88.984 112.81 89.029 112.625 Q 89.074 112.44 89.074 112.138 L 89.074 108.755 Q 89.074 108.374 88.95 108.296 Q 88.827 108.218 88.536 108.218 Q 88.39 108.218 88.301 108.229 Q 88.211 108.24 88.211 108.24 L 88.211 107.792 L 89.712 107.546 L 90.171 107.546 L 90.171 112.138 Q 90.171 112.462 90.222 112.647 Q 90.272 112.832 90.468 112.905 Q 90.664 112.978 91.09 112.978 Z M 89.611 105.07 L 89.611 105.07 Q 89.936 105.07 90.154 105.294 Q 90.373 105.518 90.373 105.81 Q 90.373 106.078 90.154 106.302 Q 89.936 106.526 89.611 106.526 Q 89.298 106.526 89.09 106.302 Q 88.883 106.078 88.883 105.81 Q 88.883 105.518 89.09 105.294 Q 89.298 105.07 89.611 105.07 Z " fill="black" /><path d="M 94.909 112.978 L 94.909 112.978 L 94.909 113.392 L 92.075 113.392 L 92.075 112.978 Q 92.467 112.978 92.641 112.899 Q 92.814 112.821 92.859 112.636 Q 92.904 112.451 92.904 112.138 L 92.904 106.224 Q 92.904 105.866 92.775 105.787 Q 92.646 105.709 92.378 105.709 Q 92.232 105.709 92.137 105.726 Q 92.042 105.742 92.042 105.742 L 92.042 105.317 L 93.565 105.026 L 94.002 105.026 L 94.002 112.138 Q 94.002 112.462 94.052 112.647 Q 94.102 112.832 94.298 112.905 Q 94.494 112.978 94.909 112.978 Z " fill="black" /></g></g></g></svg>