<svg xmlns="http://www.w3.org/2000/svg" xml:lang="en" height="178.64000000000001pt" width="144.8pt" viewBox="-55.60000000000001 -19.0 144.8 178.64000000000001"><circle cx="-6.613092715395707e-15" cy="36.0" r="18.0" style="stroke:black;fill:none;stroke-width:2.0;stroke-dasharray:-;" /><path d="M 0.0,-0.0 L 0.0,-14.4" style="stroke:black;fill:none;stroke-width:2.0;stroke-dasharray:-;stroke-linecap:round;stroke-linejoin:round;" /><path d="M 0.0,-14.4 L -6.75,-14.4" style="stroke:black;fill:none;stroke-width:2.0;stroke-dasharray:-;stroke-linecap:round;stroke-linejoin:round;" /><path d="M 0.0,-14.4 L 6.75,-14.4" style="stroke:black;fill:none;stroke-width:2.0;stroke-dasharray:-;stroke-linecap:round;stroke-linejoin:round;" /><path d="M 0.0,-0.0 L -3.3065463576978533e-15,18.0 L -3.3065463576978533e-15,18.0 M -9.919639073093561e-15,54.0 L -9.919639073093561e-15,54.0 L -1.3226185430791413e-14,72.0" style="stroke:black;fill:none;stroke-width:2.0;stroke-dasharray:-;stroke-linecap:round;stroke-linejoin:round;" /><path d="M -4.9598195365467806e-15,27.0 L -6.819055509535661e-15,36.0" style="stroke:black;fill:none;stroke-width:2.0;stroke-dasharray:-;stroke-linecap:round;stroke-linejoin:round;" /><path d="M -7.944741364309306e-15 43.0 L -2.7000000000000064 36.0 L 2.699999999999993 36.0 Z" style="stroke:black;fill:black;stroke-linecap:butt;stroke-linejoin:miter;" /><path d="M -1.3226185430791413e-14,132.0 L -1.3226185430791413e-14,117.0 L -15.000000000000012,117.0 L -15.000000000000012,87.0 L -1.3226185430791413e-14,87.0 L -1.3226185430791413e-14,72.0" style="stroke:black;fill:none;stroke-width:2.0;stroke-dasharray:-;stroke-linecap:round;stroke-linejoin:round;" /><path d="M -9.000000000000014,117.0 L -15.000000000000012,117.0" style="stroke:black;fill:none;stroke-width:2.0;stroke-dasharray:-;stroke-linecap:round;stroke-linejoin:round;" /><path d="M -2.0000000000000133 117.0 L -9.000000000000014 121.5 L -9.000000000000014 112.5 Z" style="stroke:black;fill:black;stroke-linecap:butt;stroke-linejoin:miter;" /><path d="M -18.00000000000001,114.00000000000001 L -18.00000000000001,90.0" style="stroke:black;fill:none;stroke-width:2.0;stroke-dasharray:-;stroke-linecap:round;stroke-linejoin:round;" /><path d="M -33.00000000000001,101.99999999999999 L -18.00000000000001,101.99999999999999" style="stroke:black;fill:none;stroke-width:2.0;stroke-dasharray:-;stroke-linecap:round;stroke-linejoin:round;" /><path d="M -1.3226185430791413e-14,132.0 L -1.3226185430791413e-14,146.39999999999998 L -9.000000000000014,146.39999999999998 L 8.999999999999988,146.39999999999998 M -6.300000000000012,150.72 L 6.2999999999999865,150.72 M -1.8000000000000134,155.04 L 1.799999999999987,155.04" style="stroke:black;fill:none;stroke-width:2.0;stroke-dasharray:-;stroke-linecap:round;stroke-linejoin:round;" /><path d="M -33.00000000000001,101.99999999999999 L -42.000000000000014,101.99999999999999 L -51.000000000000014,101.99999999999999" style="stroke:black;fill:none;stroke-width:2.0;stroke-dasharray:-;stroke-linecap:round;stroke-linejoin:round;" /><path d="M -51.000000000000014,101.99999999999999 L -51.000000000000014,87.0 L -51.000000000000014,72.0" style="stroke:black;fill:none;stroke-width:2.0;stroke-dasharray:-;stroke-linecap:round;stroke-linejoin:round;" /><path d="M -51.000000000000014,72.0 L -25.500000000000014,72.0 L -1.5987211554602254e-14,72.0" style="stroke:black;fill:none;stroke-width:2.0;stroke-dasharray:-;stroke-linecap:round;stroke-linejoin:round;" /><path d="M 53.999999999999986,72.0 L 53.99999999999998,108.0 L 53.99999999999997,135.0" style="stroke:black;fill:none;stroke-width:2.0;stroke-dasharray:-;stroke-linecap:round;stroke-linejoin:round;" /><path d="M 53.99999999999997 142.0 L 51.299999999999976 135.0 L 56.699999999999974 135.0 Z" style="stroke:black;fill:black;stroke-linecap:butt;stroke-linejoin:miter;" /><g><g><g><path d="M 26.568 37.407 L 26.568 37.407 L 27.88 31.103 Q 28.024 30.479 28.016 30.119 Q 28.008 29.759 27.72 29.615 Q 27.432 29.471 26.696 29.471 L 26.792 28.991 L 31.224 28.991 L 31.128 29.471 Q 30.424 29.471 30.072 29.615 Q 29.72 29.759 29.576 30.119 Q 29.432 30.479 29.304 31.103 L 27.992 37.471 Q 27.944 37.727 27.912 37.935 Q 27.88 38.143 27.88 38.319 Q 27.88 38.767 28.144 38.895 Q 28.408 39.023 29.16 39.023 L 29.064 39.503 L 24.696 39.503 L 24.792 39.023 Q 25.448 39.023 25.776 38.911 Q 26.104 38.799 26.264 38.455 Q 26.424 38.111 26.568 37.407 Z " fill="black" /><path d="M 33.565 34.497 L 33.565 34.497 L 33.565 37.969 L 33.621 37.969 Q 33.946 37.588 34.388 37.286 Q 34.83 36.983 35.458 36.983 Q 36.04 36.983 36.516 37.336 Q 36.992 37.689 37.278 38.31 Q 37.563 38.932 37.563 39.738 Q 37.563 40.814 37.171 41.542 Q 36.779 42.27 36.102 42.634 Q 35.424 42.998 34.562 42.998 Q 34.058 42.998 33.632 42.914 Q 33.206 42.83 32.91 42.718 Q 32.613 42.606 32.478 42.55 L 32.478 35.83 Q 32.478 35.415 32.389 35.298 Q 32.299 35.18 31.918 35.18 Q 31.795 35.18 31.689 35.197 Q 31.582 35.214 31.582 35.214 L 31.582 34.788 L 33.106 34.497 Z M 33.565 38.551 L 33.565 38.551 L 33.565 41.911 Q 33.699 42.158 33.99 42.303 Q 34.282 42.449 34.763 42.449 Q 35.357 42.449 35.715 42.13 Q 36.074 41.81 36.236 41.278 Q 36.398 40.746 36.398 40.119 Q 36.398 39.548 36.27 39.027 Q 36.141 38.506 35.816 38.182 Q 35.491 37.857 34.92 37.857 Q 34.618 37.857 34.343 37.974 Q 34.069 38.092 33.867 38.254 Q 33.666 38.417 33.565 38.551 Z " fill="black" /><path d="M 41.651 42.449 L 41.651 42.449 L 41.651 42.863 L 38.806 42.863 L 38.806 42.449 Q 39.198 42.449 39.372 42.365 Q 39.546 42.281 39.59 42.096 Q 39.635 41.911 39.635 41.609 L 39.635 38.226 Q 39.635 37.846 39.512 37.767 Q 39.389 37.689 39.098 37.689 Q 38.952 37.689 38.862 37.7 Q 38.773 37.711 38.773 37.711 L 38.773 37.263 L 40.274 37.017 L 40.733 37.017 L 40.733 41.609 Q 40.733 41.934 40.783 42.118 Q 40.834 42.303 41.03 42.376 Q 41.226 42.449 41.651 42.449 Z M 40.173 34.542 L 40.173 34.542 Q 40.498 34.542 40.716 34.766 Q 40.934 34.99 40.934 35.281 Q 40.934 35.55 40.716 35.774 Q 40.498 35.998 40.173 35.998 Q 39.859 35.998 39.652 35.774 Q 39.445 35.55 39.445 35.281 Q 39.445 34.99 39.652 34.766 Q 39.859 34.542 40.173 34.542 Z " fill="black" /><path d="M 46.131 42.158 L 46.131 42.158 L 46.053 42.158 Q 45.672 42.471 45.213 42.706 Q 44.754 42.942 44.216 42.942 Q 43.51 42.942 43.135 42.516 Q 42.76 42.09 42.76 41.486 Q 42.76 40.97 43.001 40.623 Q 43.242 40.276 43.628 40.058 Q 44.014 39.839 44.462 39.705 Q 44.91 39.57 45.325 39.492 Q 45.739 39.414 46.019 39.346 L 46.019 38.764 Q 46.019 38.014 45.722 37.728 Q 45.426 37.442 44.854 37.442 Q 44.507 37.442 44.356 37.532 Q 44.205 37.622 44.166 37.823 Q 44.126 38.025 44.115 38.35 Q 44.104 38.596 43.97 38.747 Q 43.835 38.898 43.578 38.898 Q 43.331 38.898 43.158 38.747 Q 42.984 38.596 42.984 38.305 Q 42.984 37.958 43.253 37.655 Q 43.522 37.353 44.02 37.168 Q 44.518 36.983 45.19 36.983 Q 46.198 36.983 46.652 37.448 Q 47.106 37.913 47.106 38.842 L 47.106 41.586 Q 47.106 41.956 47.19 42.062 Q 47.274 42.169 47.453 42.169 Q 47.643 42.169 47.783 42.09 Q 47.923 42.012 48.046 41.866 L 48.293 42.102 Q 47.71 42.93 46.926 42.93 Q 46.49 42.93 46.327 42.723 Q 46.165 42.516 46.131 42.158 Z M 46.019 41.743 L 46.019 41.743 L 46.019 39.772 Q 45.504 39.906 45.011 40.069 Q 44.518 40.231 44.199 40.511 Q 43.88 40.791 43.88 41.295 Q 43.88 41.732 44.132 41.984 Q 44.384 42.236 44.776 42.236 Q 45.011 42.236 45.342 42.13 Q 45.672 42.023 46.019 41.743 Z " fill="black" /><path d="M 49.066 40.825 L 49.066 40.825 L 49.424 40.825 Q 49.57 41.474 49.771 41.833 Q 49.973 42.191 50.292 42.331 Q 50.611 42.471 51.07 42.471 Q 51.597 42.471 51.882 42.298 Q 52.168 42.124 52.168 41.687 Q 52.168 41.396 52.028 41.2 Q 51.888 41.004 51.58 40.825 Q 51.272 40.646 50.757 40.41 Q 50.23 40.153 49.855 39.929 Q 49.48 39.705 49.284 39.402 Q 49.088 39.1 49.088 38.641 Q 49.088 37.834 49.631 37.409 Q 50.174 36.983 50.992 36.983 Q 51.485 36.983 51.826 37.106 Q 52.168 37.23 52.37 37.319 L 52.392 37.319 L 52.571 37.039 L 52.885 37.039 L 52.907 38.898 L 52.515 38.898 Q 52.302 38.036 51.922 37.739 Q 51.541 37.442 51.048 37.442 Q 50.533 37.442 50.27 37.666 Q 50.006 37.89 50.006 38.249 Q 50.006 38.54 50.186 38.73 Q 50.365 38.921 50.695 39.083 Q 51.026 39.246 51.485 39.47 Q 52 39.716 52.392 39.979 Q 52.784 40.242 53.008 40.573 Q 53.232 40.903 53.232 41.396 Q 53.232 41.99 52.918 42.348 Q 52.605 42.706 52.112 42.858 Q 51.619 43.009 51.082 43.009 Q 50.533 43.009 50.23 42.897 Q 49.928 42.785 49.67 42.684 L 49.626 42.684 L 49.346 42.975 L 49.088 42.975 Z " fill="black" /></g></g></g><g><g><g><path d="M 19.76 96.448 L 19.76 96.448 L 19.712 96.928 Q 19.136 96.944 18.784 97.184 Q 18.432 97.424 18.016 98.032 L 12.384 107.056 L 11.92 107.056 L 11.392 100.832 L 11.328 100.832 L 7.216 107.056 L 6.768 107.056 L 5.984 98.368 Q 5.92 97.584 5.648 97.256 Q 5.376 96.928 4.688 96.928 L 4.768 96.448 L 8.768 96.448 L 8.688 96.928 Q 8 96.928 7.728 97.064 Q 7.456 97.2 7.424 97.52 Q 7.424 97.552 7.424 97.616 Q 7.424 97.744 7.424 97.928 Q 7.424 98.112 7.456 98.336 L 7.872 102.848 L 7.952 104.384 L 8.048 104.384 L 11.28 99.696 L 11.168 98.432 Q 11.104 97.744 11 97.424 Q 10.896 97.104 10.664 97.016 Q 10.432 96.928 9.968 96.928 L 10.048 96.448 L 14.128 96.448 L 14.048 96.928 Q 13.168 96.928 12.872 97.216 Q 12.576 97.504 12.64 98.4 L 13.024 102.72 L 13.088 104.352 L 13.168 104.352 L 16.576 98.992 Q 16.832 98.592 17.056 98.16 Q 17.28 97.728 17.28 97.376 Q 17.28 97.136 17.104 97.032 Q 16.928 96.928 16.4 96.928 L 16.496 96.448 Z " fill="black" /><path d="M 25.376 95.616 L 25.376 95.616 L 21.216 108.384 L 20.32 108.384 L 24.496 95.616 Z " fill="black" /><path d="M 34.8 103.84 L 34.8 103.84 L 33.84 106.96 L 25.936 106.96 L 26.032 106.48 Q 26.656 106.48 26.984 106.368 Q 27.312 106.256 27.488 105.936 Q 27.664 105.616 27.792 104.976 L 29.168 98.304 Q 29.28 97.776 29.248 97.472 Q 29.216 97.168 28.92 97.048 Q 28.624 96.928 27.936 96.928 L 28.032 96.448 L 32.576 96.448 L 32.496 96.928 Q 31.632 96.928 31.2 97.192 Q 30.768 97.456 30.592 98.32 L 29.136 105.488 Q 29.024 106.016 29.248 106.184 Q 29.472 106.352 30.176 106.352 L 30.928 106.352 Q 31.696 106.352 32.176 106.216 Q 32.656 106.08 32.992 105.792 Q 33.328 105.504 33.624 105.016 Q 33.92 104.528 34.288 103.84 Z " fill="black" /></g></g></g><g><g><g><path d="M 64.358 109.486 L 64.358 109.486 L 68.726 102.926 Q 68.95 102.606 69.086 102.334 Q 69.222 102.062 69.222 101.87 Q 69.222 101.63 69.014 101.542 Q 68.806 101.454 68.262 101.454 L 68.294 100.974 L 71.75 100.974 L 71.718 101.454 Q 71.286 101.454 70.982 101.582 Q 70.678 101.71 70.366 102.07 Q 70.054 102.43 69.558 103.166 L 63.686 111.566 L 63.158 111.566 L 62.262 102.91 Q 62.166 102.11 61.91 101.782 Q 61.654 101.454 61.014 101.454 L 61.046 100.974 L 64.966 100.974 L 64.918 101.454 Q 64.31 101.454 63.958 101.694 Q 63.606 101.934 63.638 102.478 Q 63.638 102.558 63.662 102.766 Q 63.686 102.974 63.686 103.054 L 64.166 107.614 L 64.278 109.486 Z " fill="black" /><path d="M 78.419 111.262 L 78.419 111.262 L 78.419 111.71 Q 78.083 111.71 77.91 111.783 Q 77.736 111.856 77.674 112.052 Q 77.613 112.248 77.613 112.629 L 77.613 114.13 Q 77.221 114.365 76.784 114.555 Q 76.347 114.746 75.798 114.863 Q 75.25 114.981 74.522 114.981 Q 72.629 114.981 71.61 113.95 Q 70.59 112.92 70.59 110.96 Q 70.59 109.65 71.111 108.72 Q 71.632 107.79 72.545 107.303 Q 73.458 106.816 74.634 106.816 Q 75.294 106.816 75.681 106.922 Q 76.067 107.029 76.286 107.141 Q 76.504 107.253 76.65 107.253 Q 76.773 107.253 76.857 107.146 Q 76.941 107.04 77.086 106.838 L 77.49 106.838 L 77.49 109.627 L 77.019 109.627 Q 76.806 108.44 76.207 107.925 Q 75.608 107.41 74.6 107.41 Q 73.749 107.41 73.166 107.83 Q 72.584 108.25 72.293 109.006 Q 72.002 109.762 72.002 110.792 Q 72.002 112.55 72.718 113.463 Q 73.435 114.376 74.712 114.376 Q 75.261 114.376 75.664 114.208 Q 76.067 114.04 76.403 113.76 L 76.403 112.707 Q 76.403 112.293 76.336 112.08 Q 76.269 111.867 76.05 111.789 Q 75.832 111.71 75.384 111.71 L 75.384 111.262 Z " fill="black" /><path d="M 84.658 109.258 L 84.658 109.258 L 84.221 109.258 Q 84.064 108.675 83.834 108.255 Q 83.605 107.835 83.224 107.6 Q 82.843 107.365 82.227 107.365 Q 81.645 107.365 81.298 107.656 Q 80.95 107.947 80.95 108.474 Q 80.95 108.944 81.247 109.274 Q 81.544 109.605 82.009 109.868 Q 82.474 110.131 83 110.394 Q 83.526 110.658 83.991 110.982 Q 84.456 111.307 84.753 111.755 Q 85.05 112.203 85.05 112.853 Q 85.05 113.547 84.725 114.029 Q 84.4 114.51 83.84 114.757 Q 83.28 115.003 82.574 115.003 Q 81.936 115.003 81.538 114.914 Q 81.141 114.824 80.906 114.734 Q 80.67 114.645 80.514 114.645 Q 80.379 114.645 80.284 114.74 Q 80.189 114.835 80.178 115.026 L 79.685 115.026 L 79.685 112.349 L 80.122 112.349 Q 80.334 113.133 80.598 113.581 Q 80.861 114.029 81.275 114.214 Q 81.69 114.398 82.339 114.398 Q 83.011 114.398 83.414 114.135 Q 83.818 113.872 83.818 113.166 Q 83.818 112.685 83.532 112.349 Q 83.246 112.013 82.793 111.75 Q 82.339 111.486 81.83 111.229 Q 81.32 110.971 80.866 110.658 Q 80.413 110.344 80.127 109.902 Q 79.842 109.459 79.842 108.821 Q 79.842 108.171 80.166 107.729 Q 80.491 107.286 81.023 107.062 Q 81.555 106.838 82.171 106.838 Q 82.731 106.838 83.05 106.934 Q 83.37 107.029 83.549 107.124 Q 83.728 107.219 83.851 107.219 Q 84.019 107.219 84.103 107.146 Q 84.187 107.074 84.232 106.872 L 84.658 106.872 Z " fill="black" /></g></g></g><circle cx="-1.3226185430791413e-14" cy="72.0" r="2.6999999999999997" style="stroke:black;fill:black;stroke-width:2.0;stroke-dasharray:-;" /></svg>