<svg xmlns="http://www.w3.org/2000/svg" xmlns:xlink="http://www.w3.org/1999/xlink" xml:lang="en" height="109.64pt" width="466.8976pt" viewBox="-84.2976 -82.0 466.8976 109.64"><circle cx="36.0" cy="-72.0" r="2.6999999999999997" style="stroke:black;fill:black;stroke-width:2.0;stroke-dasharray:-;" /><circle cx="54.0" cy="-72.0" r="2.6999999999999997" style="stroke:black;fill:black;stroke-width:2.0;stroke-dasharray:-;" /><circle cx="72.0" cy="-72.0" r="2.6999999999999997" style="stroke:black;fill:black;stroke-width:2.0;stroke-dasharray:-;" /><circle cx="108.0" cy="-36.0" r="18.0" style="stroke:black;fill:none;stroke-width:2.0;stroke-dasharray:-;" /><path d="M 0.0,-0.0 L 2.0059714570033646e-15,-32.76 M -8.999999999999998,-32.76 L 9.000000000000002,-32.76 M -8.999999999999998,-39.24 L 9.000000000000002,-39.24 M 2.402757019927107e-15,-39.24 L 4.408728476930472e-15,-72.0" style="stroke:black;fill:none;stroke-width:2.0;stroke-dasharray:-;stroke-linecap:round;stroke-linejoin:round;" /><path d="M 4.408728476930472e-15,-72.0 L 9.000000000000004,-72.0 L 18.000000000000004,-72.0" style="stroke:black;fill:none;stroke-width:2.0;stroke-dasharray:-;stroke-linecap:round;stroke-linejoin:round;" /><path d="M 90.0,-72.0 L 99.0,-72.0 L 108.0,-72.0" style="stroke:black;fill:none;stroke-width:2.0;stroke-dasharray:-;stroke-linecap:round;stroke-linejoin:round;" /><path d="M 108.0,-72.0 L 108.0,-54.0 L 108.0,-54.0 M 107.99999999999999,-18.0 L 107.99999999999999,-18.0 L 107.99999999999999,-0.0" style="stroke:black;fill:none;stroke-width:2.0;stroke-dasharray:-;stroke-linecap:round;stroke-linejoin:round;" /><path d="M 108.0,-45.0 L 107.99999999999999,-36.0" style="stroke:black;fill:none;stroke-width:2.0;stroke-dasharray:-;stroke-linecap:round;stroke-linejoin:round;" /><path d="M 107.99999999999999 -29.0 L 105.3 -36.0 L 110.69999999999999 -36.0 Z" style="stroke:black;fill:black;stroke-linecap:butt;stroke-linejoin:miter;" /><path d="M 107.99999999999999,-0.0 L 107.99999999999999,14.4 L 98.99999999999999,14.4 L 116.99999999999999,14.4 M 101.69999999999999,18.72 L 114.29999999999998,18.72 M 106.19999999999999,23.04 L 109.79999999999998,23.04" style="stroke:black;fill:none;stroke-width:2.0;stroke-dasharray:-;stroke-linecap:round;stroke-linejoin:round;" /><path d="M 107.99999999999999,-0.0 L 53.999999999999986,-6.613092715395707e-15 L -1.5987211554602254e-14,-1.3226185430791413e-14" style="stroke:black;fill:none;stroke-width:2.0;stroke-dasharray:-;stroke-linecap:round;stroke-linejoin:round;" /><path d="M 107.99999999999999,-0.0 L 162.0,-0.0 L 216.0,-0.0" style="stroke:black;fill:none;stroke-width:2.0;stroke-dasharray:-;stroke-linecap:round;stroke-linejoin:round;" /><path d="M 216.0,-0.0 L 216.0,-18.0 L 207.0,-21.0 L 225.0,-27.0 L 207.0,-33.0 L 225.0,-39.0 L 207.0,-45.0 L 225.0,-50.99999999999999 L 216.0,-54.0 L 216.0,-72.0" style="stroke:black;fill:none;stroke-width:2.0;stroke-dasharray:-;stroke-linecap:round;stroke-linejoin:round;" /><path d="M 216.0,-72.0 L 162.0,-72.0 L 108.0,-72.00000000000001" style="stroke:black;fill:none;stroke-width:2.0;stroke-dasharray:-;stroke-linecap:round;stroke-linejoin:round;" /><path d="M 216.0,-72.0 L 270.0,-72.0 L 324.0,-72.0" style="stroke:black;fill:none;stroke-width:2.0;stroke-dasharray:-;stroke-linecap:round;stroke-linejoin:round;" /><path d="M 324.0,-0.0 L 324.0,-32.76 M 315.0,-32.76 L 333.0,-32.76 M 315.0,-39.24 L 333.0,-39.24 M 324.0,-39.24 L 324.0,-72.0" style="stroke:black;fill:none;stroke-width:2.0;stroke-dasharray:-;stroke-linecap:round;stroke-linejoin:round;" /><path d="M 378.0,-72.0 L 378.0,-36.0 L 378.0,-9.0" style="stroke:black;fill:none;stroke-width:2.0;stroke-dasharray:-;stroke-linecap:round;stroke-linejoin:round;" /><path d="M 378.0 -2.0 L 375.3 -9.0 L 380.7 -9.0 Z" style="stroke:black;fill:black;stroke-linecap:butt;stroke-linejoin:miter;" /><path d="M 324.0,-0.0 L 270.0,-6.613092715395707e-15 L 216.0,-1.3226185430791413e-14" style="stroke:black;fill:none;stroke-width:2.0;stroke-dasharray:-;stroke-linecap:round;stroke-linejoin:round;" /><path d="M -53.99999999999999,-72.0 L -54.0,-36.0 L -54.00000000000001,-9.0" style="stroke:black;fill:none;stroke-width:2.0;stroke-dasharray:-;stroke-linecap:round;stroke-linejoin:round;" /><path d="M -54.00000000000001 -2.0 L -56.7 -9.0 L -51.300000000000004 -9.0 Z" style="stroke:black;fill:black;stroke-linecap:butt;stroke-linejoin:miter;" /><g><g><g><path d="M -24.51 -36.062 L -24.51 -36.062 L -24.222 -35.758 Q -25.038 -34.798 -26.11 -34.182 Q -27.182 -33.566 -28.702 -33.566 Q -30.142 -33.566 -31.006 -34.102 Q -31.87 -34.638 -32.246 -35.534 Q -32.622 -36.43 -32.622 -37.486 Q -32.622 -39.166 -32.11 -40.47 Q -31.598 -41.774 -30.71 -42.662 Q -29.822 -43.55 -28.702 -44.006 Q -27.582 -44.462 -26.366 -44.462 Q -25.55 -44.462 -25.094 -44.318 Q -24.638 -44.174 -24.382 -44.022 Q -24.126 -43.87 -23.934 -43.87 Q -23.742 -43.87 -23.598 -44.03 Q -23.454 -44.19 -23.262 -44.446 L -22.798 -44.446 L -23.55 -40.782 L -24.078 -40.782 Q -24.014 -42.382 -24.67 -43.078 Q -25.326 -43.774 -26.51 -43.774 Q -27.438 -43.774 -28.254 -43.35 Q -29.07 -42.926 -29.702 -42.15 Q -30.334 -41.374 -30.694 -40.294 Q -31.054 -39.214 -31.054 -37.886 Q -31.054 -36.286 -30.294 -35.446 Q -29.534 -34.606 -27.95 -34.606 Q -26.11 -34.606 -24.51 -36.062 Z " fill="black" /><path d="M -21.675 -32.634 L -21.675 -32.634 L -21.675 -32.678 Q -22.067 -32.914 -22.342 -33.289 Q -22.616 -33.664 -22.616 -34.258 Q -22.616 -34.885 -22.314 -35.333 Q -22.011 -35.781 -21.496 -36.022 Q -20.981 -36.262 -20.342 -36.262 Q -19.749 -36.262 -19.374 -36.134 Q -18.998 -36.005 -18.998 -36.005 L -17.352 -36.05 L -17.352 -35.389 L -18.528 -35.411 L -18.528 -35.333 Q -18.382 -35.131 -18.226 -34.857 Q -18.069 -34.582 -18.069 -34.09 Q -18.069 -33.53 -18.366 -33.121 Q -18.662 -32.712 -19.161 -32.494 Q -19.659 -32.275 -20.286 -32.275 Q -20.858 -32.275 -21.362 -32.477 Q -21.44 -32.331 -21.546 -32.062 Q -21.653 -31.794 -21.653 -31.603 Q -21.653 -31.368 -21.378 -31.256 Q -21.104 -31.144 -20.286 -31.144 Q -19.682 -31.144 -19.166 -31.116 Q -18.651 -31.088 -18.27 -30.959 Q -17.89 -30.83 -17.682 -30.545 Q -17.475 -30.259 -17.475 -29.733 Q -17.475 -29.128 -17.783 -28.708 Q -18.091 -28.288 -18.595 -28.03 Q -19.099 -27.773 -19.687 -27.655 Q -20.275 -27.538 -20.846 -27.538 Q -21.664 -27.538 -22.112 -27.739 Q -22.56 -27.941 -22.734 -28.254 Q -22.907 -28.568 -22.907 -28.893 Q -22.907 -29.206 -22.689 -29.514 Q -22.47 -29.822 -21.989 -30.27 L -21.989 -30.326 Q -22.269 -30.472 -22.459 -30.718 Q -22.65 -30.965 -22.65 -31.2 Q -22.65 -31.536 -22.353 -31.911 Q -22.056 -32.286 -21.675 -32.634 Z M -21.619 -30.214 L -21.619 -30.214 Q -21.81 -29.89 -21.877 -29.699 Q -21.944 -29.509 -21.944 -29.318 Q -21.944 -28.803 -21.524 -28.54 Q -21.104 -28.277 -20.219 -28.277 Q -19.491 -28.277 -19.043 -28.456 Q -18.595 -28.635 -18.382 -28.887 Q -18.17 -29.139 -18.17 -29.374 Q -18.17 -29.677 -18.366 -29.845 Q -18.562 -30.013 -18.864 -30.086 Q -19.166 -30.158 -19.502 -30.181 Q -19.838 -30.203 -20.13 -30.203 Q -20.208 -30.203 -20.253 -30.203 Q -20.97 -30.203 -21.233 -30.209 Q -21.496 -30.214 -21.619 -30.214 Z M -20.41 -35.77 L -20.41 -35.77 Q -20.891 -35.77 -21.188 -35.445 Q -21.485 -35.12 -21.485 -34.325 Q -21.485 -33.541 -21.171 -33.138 Q -20.858 -32.734 -20.286 -32.734 Q -19.984 -32.734 -19.738 -32.858 Q -19.491 -32.981 -19.34 -33.306 Q -19.189 -33.63 -19.189 -34.224 Q -19.189 -34.986 -19.519 -35.378 Q -19.85 -35.77 -20.41 -35.77 Z " fill="black" /><path d="M -16.366 -32.421 L -16.366 -32.421 L -16.008 -32.421 Q -15.862 -31.771 -15.661 -31.413 Q -15.459 -31.054 -15.14 -30.914 Q -14.821 -30.774 -14.362 -30.774 Q -13.835 -30.774 -13.55 -30.948 Q -13.264 -31.122 -13.264 -31.558 Q -13.264 -31.85 -13.404 -32.046 Q -13.544 -32.242 -13.852 -32.421 Q -14.16 -32.6 -14.675 -32.835 Q -15.202 -33.093 -15.577 -33.317 Q -15.952 -33.541 -16.148 -33.843 Q -16.344 -34.146 -16.344 -34.605 Q -16.344 -35.411 -15.801 -35.837 Q -15.258 -36.262 -14.44 -36.262 Q -13.947 -36.262 -13.606 -36.139 Q -13.264 -36.016 -13.062 -35.926 L -13.04 -35.926 L -12.861 -36.206 L -12.547 -36.206 L -12.525 -34.347 L -12.917 -34.347 Q -13.13 -35.21 -13.51 -35.506 Q -13.891 -35.803 -14.384 -35.803 Q -14.899 -35.803 -15.162 -35.579 Q -15.426 -35.355 -15.426 -34.997 Q -15.426 -34.706 -15.246 -34.515 Q -15.067 -34.325 -14.737 -34.162 Q -14.406 -34 -13.947 -33.776 Q -13.432 -33.53 -13.04 -33.266 Q -12.648 -33.003 -12.424 -32.673 Q -12.2 -32.342 -12.2 -31.85 Q -12.2 -31.256 -12.514 -30.898 Q -12.827 -30.539 -13.32 -30.388 Q -13.813 -30.237 -14.35 -30.237 Q -14.899 -30.237 -15.202 -30.349 Q -15.504 -30.461 -15.762 -30.562 L -15.806 -30.562 L -16.086 -30.27 L -16.344 -30.27 Z " fill="black" /></g></g></g><circle cx="108.0" cy="-72.0" r="2.6999999999999997" style="stroke:black;fill:black;stroke-width:2.0;stroke-dasharray:-;" /><circle cx="107.99999999999999" cy="-0.0" r="2.6999999999999997" style="stroke:black;fill:black;stroke-width:2.0;stroke-dasharray:-;" /><g><g><g><path d="M 53.819 -38.666 L 53.819 -38.666 L 53.723 -37.85 L 52.331 -38.01 L 52.331 -37.962 Q 52.603 -37.658 52.755 -37.202 Q 52.907 -36.746 52.907 -36.33 Q 52.907 -35.61 52.619 -35.122 Q 52.331 -34.634 51.867 -34.338 Q 51.403 -34.042 50.843 -33.89 Q 50.283 -33.738 49.755 -33.69 Q 49.115 -33.626 48.851 -33.418 Q 48.587 -33.21 48.587 -32.986 Q 48.587 -32.698 48.907 -32.546 Q 49.227 -32.394 49.731 -32.298 Q 50.235 -32.202 50.811 -32.082 Q 51.387 -31.962 51.891 -31.754 Q 52.395 -31.546 52.715 -31.17 Q 53.035 -30.794 53.035 -30.17 Q 53.035 -29.482 52.587 -28.898 Q 52.139 -28.314 51.259 -27.954 Q 50.379 -27.594 49.099 -27.594 Q 47.947 -27.594 47.259 -27.874 Q 46.571 -28.154 46.267 -28.594 Q 45.963 -29.034 45.963 -29.514 Q 45.963 -30.282 46.555 -30.754 Q 47.147 -31.226 47.899 -31.466 L 47.899 -31.53 Q 47.691 -31.658 47.507 -31.89 Q 47.323 -32.122 47.323 -32.49 Q 47.323 -32.89 47.531 -33.13 Q 47.739 -33.37 48.067 -33.522 Q 48.395 -33.674 48.715 -33.786 L 48.715 -33.882 Q 48.091 -34.154 47.627 -34.65 Q 47.163 -35.146 47.163 -36.058 Q 47.163 -36.89 47.563 -37.522 Q 47.963 -38.154 48.659 -38.506 Q 49.355 -38.858 50.219 -38.858 Q 50.795 -38.858 51.091 -38.802 Q 51.387 -38.746 51.675 -38.666 Z M 51.883 -29.578 L 51.883 -29.578 Q 51.883 -30.058 51.483 -30.354 Q 51.083 -30.65 50.491 -30.826 Q 49.899 -31.002 49.299 -31.106 Q 48.699 -31.21 48.283 -31.29 Q 47.883 -31.034 47.547 -30.706 Q 47.211 -30.378 47.211 -29.754 Q 47.211 -29.114 47.707 -28.634 Q 48.203 -28.154 49.419 -28.154 Q 50.571 -28.154 51.227 -28.578 Q 51.883 -29.002 51.883 -29.578 Z M 51.483 -36.506 L 51.483 -36.506 Q 51.483 -37.306 51.179 -37.842 Q 50.875 -38.378 50.171 -38.378 Q 49.483 -38.378 49.035 -37.802 Q 48.587 -37.226 48.587 -36.058 Q 48.587 -35.226 48.875 -34.706 Q 49.163 -34.186 49.851 -34.186 Q 50.651 -34.186 51.067 -34.858 Q 51.483 -35.53 51.483 -36.506 Z " fill="black" /><path d="M 56.552 -32.168 L 56.552 -32.168 L 56.552 -29.066 Q 56.552 -28.73 56.619 -28.551 Q 56.686 -28.372 56.877 -28.31 Q 57.067 -28.248 57.437 -28.248 L 57.437 -27.834 L 54.614 -27.834 L 54.614 -28.248 Q 54.973 -28.248 55.152 -28.31 Q 55.331 -28.372 55.387 -28.556 Q 55.443 -28.741 55.443 -29.088 L 55.443 -32.482 Q 55.443 -32.796 55.326 -32.902 Q 55.208 -33.008 54.95 -33.008 Q 54.827 -33.008 54.732 -32.997 Q 54.637 -32.986 54.637 -32.986 L 54.637 -33.412 L 56.104 -33.68 L 56.518 -33.68 L 56.518 -32.762 L 56.597 -32.762 Q 57.067 -33.188 57.538 -33.451 Q 58.008 -33.714 58.646 -33.714 Q 59.173 -33.714 59.503 -33.445 Q 59.834 -33.176 60.013 -32.784 L 60.069 -32.784 Q 61.088 -33.714 62.029 -33.714 Q 62.79 -33.714 63.233 -33.244 Q 63.675 -32.773 63.675 -31.754 L 63.675 -29.29 Q 63.675 -28.909 63.72 -28.68 Q 63.765 -28.45 63.944 -28.349 Q 64.123 -28.248 64.526 -28.248 L 64.526 -27.834 L 61.715 -27.834 L 61.715 -28.248 Q 62.13 -28.248 62.314 -28.355 Q 62.499 -28.461 62.544 -28.691 Q 62.589 -28.92 62.589 -29.29 L 62.589 -31.62 Q 62.589 -32.325 62.303 -32.605 Q 62.018 -32.885 61.57 -32.885 Q 61.189 -32.885 60.808 -32.656 Q 60.427 -32.426 60.136 -32.202 L 60.136 -29.29 Q 60.136 -28.876 60.186 -28.646 Q 60.237 -28.416 60.433 -28.332 Q 60.629 -28.248 61.043 -28.248 L 61.043 -27.834 L 58.12 -27.834 L 58.12 -28.248 Q 58.546 -28.248 58.742 -28.332 Q 58.938 -28.416 58.994 -28.646 Q 59.05 -28.876 59.05 -29.29 L 59.05 -31.653 Q 59.05 -32.359 58.798 -32.622 Q 58.546 -32.885 58.109 -32.885 Q 57.65 -32.885 57.23 -32.639 Q 56.81 -32.392 56.552 -32.168 Z " fill="black" /><path d="M 69.451 -33.194 L 69.451 -33.194 L 73.819 -39.754 Q 74.043 -40.074 74.179 -40.346 Q 74.315 -40.618 74.315 -40.81 Q 74.315 -41.05 74.107 -41.138 Q 73.899 -41.226 73.355 -41.226 L 73.387 -41.706 L 76.843 -41.706 L 76.811 -41.226 Q 76.379 -41.226 76.075 -41.098 Q 75.771 -40.97 75.459 -40.61 Q 75.147 -40.25 74.651 -39.514 L 68.779 -31.114 L 68.251 -31.114 L 67.355 -39.77 Q 67.259 -40.57 67.003 -40.898 Q 66.747 -41.226 66.107 -41.226 L 66.139 -41.706 L 70.059 -41.706 L 70.011 -41.226 Q 69.403 -41.226 69.051 -40.986 Q 68.699 -40.746 68.731 -40.202 Q 68.731 -40.122 68.755 -39.914 Q 68.779 -39.706 68.779 -39.626 L 69.259 -35.066 L 69.371 -33.194 Z " fill="black" /><path d="M 78.371 -28.248 L 78.371 -28.248 L 78.371 -27.834 L 75.526 -27.834 L 75.526 -28.248 Q 75.918 -28.248 76.092 -28.332 Q 76.266 -28.416 76.31 -28.601 Q 76.355 -28.786 76.355 -29.088 L 76.355 -32.471 Q 76.355 -32.852 76.232 -32.93 Q 76.109 -33.008 75.818 -33.008 Q 75.672 -33.008 75.582 -32.997 Q 75.493 -32.986 75.493 -32.986 L 75.493 -33.434 L 76.994 -33.68 L 77.453 -33.68 L 77.453 -29.088 Q 77.453 -28.764 77.503 -28.579 Q 77.554 -28.394 77.75 -28.321 Q 77.946 -28.248 78.371 -28.248 Z M 76.893 -36.156 L 76.893 -36.156 Q 77.218 -36.156 77.436 -35.932 Q 77.654 -35.708 77.654 -35.416 Q 77.654 -35.148 77.436 -34.924 Q 77.218 -34.7 76.893 -34.7 Q 76.579 -34.7 76.372 -34.924 Q 76.165 -35.148 76.165 -35.416 Q 76.165 -35.708 76.372 -35.932 Q 76.579 -36.156 76.893 -36.156 Z " fill="black" /><path d="M 85.024 -31.586 L 85.024 -31.586 L 85.024 -29.077 Q 85.024 -28.764 85.08 -28.579 Q 85.136 -28.394 85.326 -28.316 Q 85.517 -28.237 85.92 -28.237 L 85.92 -27.834 L 83.042 -27.834 L 83.042 -28.237 Q 83.467 -28.237 83.658 -28.316 Q 83.848 -28.394 83.893 -28.579 Q 83.938 -28.764 83.938 -29.077 L 83.938 -31.216 Q 83.938 -31.967 83.764 -32.32 Q 83.59 -32.672 83.327 -32.784 Q 83.064 -32.896 82.795 -32.896 Q 82.314 -32.896 81.95 -32.65 Q 81.586 -32.404 81.317 -32.18 L 81.317 -29.077 Q 81.317 -28.764 81.367 -28.579 Q 81.418 -28.394 81.608 -28.316 Q 81.798 -28.237 82.213 -28.237 L 82.213 -27.834 L 79.39 -27.834 L 79.39 -28.237 Q 79.782 -28.237 79.956 -28.316 Q 80.13 -28.394 80.174 -28.579 Q 80.219 -28.764 80.219 -29.077 L 80.219 -32.482 Q 80.219 -32.796 80.102 -32.902 Q 79.984 -33.008 79.726 -33.008 Q 79.592 -33.008 79.502 -32.997 Q 79.413 -32.986 79.413 -32.986 L 79.413 -33.412 L 80.914 -33.68 L 81.283 -33.68 L 81.283 -32.762 L 81.362 -32.762 Q 81.843 -33.199 82.286 -33.456 Q 82.728 -33.714 83.288 -33.714 Q 83.949 -33.714 84.324 -33.417 Q 84.699 -33.12 84.862 -32.639 Q 85.024 -32.157 85.024 -31.586 Z " fill="black" /></g></g></g><circle cx="216.0" cy="-0.0" r="2.6999999999999997" style="stroke:black;fill:black;stroke-width:2.0;stroke-dasharray:-;" /><circle cx="216.0" cy="-72.0" r="2.6999999999999997" style="stroke:black;fill:black;stroke-width:2.0;stroke-dasharray:-;" /><g><g><g><path d="M 190.611 -42.79 L 190.611 -42.79 L 190.515 -41.974 L 189.123 -42.134 L 189.123 -42.086 Q 189.395 -41.782 189.547 -41.326 Q 189.699 -40.87 189.699 -40.454 Q 189.699 -39.734 189.411 -39.246 Q 189.123 -38.758 188.659 -38.462 Q 188.195 -38.166 187.635 -38.014 Q 187.075 -37.862 186.547 -37.814 Q 185.907 -37.75 185.643 -37.542 Q 185.379 -37.334 185.379 -37.11 Q 185.379 -36.822 185.699 -36.67 Q 186.019 -36.518 186.523 -36.422 Q 187.027 -36.326 187.603 -36.206 Q 188.179 -36.086 188.683 -35.878 Q 189.187 -35.67 189.507 -35.294 Q 189.827 -34.918 189.827 -34.294 Q 189.827 -33.606 189.379 -33.022 Q 188.931 -32.438 188.051 -32.078 Q 187.171 -31.718 185.891 -31.718 Q 184.739 -31.718 184.051 -31.998 Q 183.363 -32.278 183.059 -32.718 Q 182.755 -33.158 182.755 -33.638 Q 182.755 -34.406 183.347 -34.878 Q 183.939 -35.35 184.691 -35.59 L 184.691 -35.654 Q 184.483 -35.782 184.299 -36.014 Q 184.115 -36.246 184.115 -36.614 Q 184.115 -37.014 184.323 -37.254 Q 184.531 -37.494 184.859 -37.646 Q 185.187 -37.798 185.507 -37.91 L 185.507 -38.006 Q 184.883 -38.278 184.419 -38.774 Q 183.955 -39.27 183.955 -40.182 Q 183.955 -41.014 184.355 -41.646 Q 184.755 -42.278 185.451 -42.63 Q 186.147 -42.982 187.011 -42.982 Q 187.587 -42.982 187.883 -42.926 Q 188.179 -42.87 188.467 -42.79 Z M 188.675 -33.702 L 188.675 -33.702 Q 188.675 -34.182 188.275 -34.478 Q 187.875 -34.774 187.283 -34.95 Q 186.691 -35.126 186.091 -35.23 Q 185.491 -35.334 185.075 -35.414 Q 184.675 -35.158 184.339 -34.83 Q 184.003 -34.502 184.003 -33.878 Q 184.003 -33.238 184.499 -32.758 Q 184.995 -32.278 186.211 -32.278 Q 187.363 -32.278 188.019 -32.702 Q 188.675 -33.126 188.675 -33.702 Z M 188.275 -40.63 L 188.275 -40.63 Q 188.275 -41.43 187.971 -41.966 Q 187.667 -42.502 186.963 -42.502 Q 186.275 -42.502 185.827 -41.926 Q 185.379 -41.35 185.379 -40.182 Q 185.379 -39.35 185.667 -38.83 Q 185.955 -38.31 186.643 -38.31 Q 187.443 -38.31 187.859 -38.982 Q 188.275 -39.654 188.275 -40.63 Z " fill="black" /><path d="M 197.454 -32.104 L 197.454 -32.104 L 195.942 -31.902 L 195.539 -31.902 L 195.539 -32.686 L 195.461 -32.686 Q 195.091 -32.372 194.626 -32.115 Q 194.162 -31.857 193.579 -31.857 Q 192.918 -31.857 192.454 -32.216 Q 191.989 -32.574 191.742 -33.201 Q 191.496 -33.828 191.496 -34.624 Q 191.496 -35.62 191.882 -36.343 Q 192.269 -37.065 192.913 -37.452 Q 193.557 -37.838 194.318 -37.838 Q 194.979 -37.838 195.517 -37.536 L 195.517 -38.98 Q 195.517 -39.384 195.433 -39.512 Q 195.349 -39.641 194.99 -39.641 Q 194.912 -39.641 194.783 -39.624 Q 194.654 -39.608 194.654 -39.608 L 194.654 -40.033 L 196.144 -40.324 L 196.603 -40.324 L 196.603 -33.224 Q 196.603 -32.787 196.726 -32.658 Q 196.85 -32.529 197.152 -32.529 L 197.454 -32.529 Z M 195.517 -33.201 L 195.517 -33.201 L 195.517 -36.472 Q 195.394 -36.785 195.108 -37.032 Q 194.822 -37.278 194.296 -37.278 Q 193.546 -37.278 193.064 -36.768 Q 192.582 -36.259 192.582 -35.083 Q 192.582 -33.884 193.002 -33.33 Q 193.422 -32.776 194.184 -32.776 Q 194.542 -32.776 194.839 -32.876 Q 195.136 -32.977 195.517 -33.201 Z " fill="black" /><path d="M 198.642 -33.996 L 198.642 -33.996 L 199 -33.996 Q 199.146 -33.347 199.347 -32.988 Q 199.549 -32.63 199.868 -32.49 Q 200.187 -32.35 200.646 -32.35 Q 201.173 -32.35 201.458 -32.524 Q 201.744 -32.697 201.744 -33.134 Q 201.744 -33.425 201.604 -33.621 Q 201.464 -33.817 201.156 -33.996 Q 200.848 -34.176 200.333 -34.411 Q 199.806 -34.668 199.431 -34.892 Q 199.056 -35.116 198.86 -35.419 Q 198.664 -35.721 198.664 -36.18 Q 198.664 -36.987 199.207 -37.412 Q 199.75 -37.838 200.568 -37.838 Q 201.061 -37.838 201.402 -37.715 Q 201.744 -37.592 201.946 -37.502 L 201.968 -37.502 L 202.147 -37.782 L 202.461 -37.782 L 202.483 -35.923 L 202.091 -35.923 Q 201.878 -36.785 201.498 -37.082 Q 201.117 -37.379 200.624 -37.379 Q 200.109 -37.379 199.846 -37.155 Q 199.582 -36.931 199.582 -36.572 Q 199.582 -36.281 199.762 -36.091 Q 199.941 -35.9 200.271 -35.738 Q 200.602 -35.576 201.061 -35.352 Q 201.576 -35.105 201.968 -34.842 Q 202.36 -34.579 202.584 -34.248 Q 202.808 -33.918 202.808 -33.425 Q 202.808 -32.832 202.494 -32.473 Q 202.181 -32.115 201.688 -31.964 Q 201.195 -31.812 200.658 -31.812 Q 200.109 -31.812 199.806 -31.924 Q 199.504 -32.036 199.246 -32.137 L 199.202 -32.137 L 198.922 -31.846 L 198.664 -31.846 Z " fill="black" /></g></g></g><g><g><g><path d="M 299.49 -34.044 L 299.49 -34.044 L 299.778 -33.74 Q 298.962 -32.78 297.89 -32.164 Q 296.818 -31.548 295.298 -31.548 Q 293.858 -31.548 292.994 -32.084 Q 292.13 -32.62 291.754 -33.516 Q 291.378 -34.412 291.378 -35.468 Q 291.378 -37.148 291.89 -38.452 Q 292.402 -39.756 293.29 -40.644 Q 294.178 -41.532 295.298 -41.988 Q 296.418 -42.444 297.634 -42.444 Q 298.45 -42.444 298.906 -42.3 Q 299.362 -42.156 299.618 -42.004 Q 299.874 -41.852 300.066 -41.852 Q 300.258 -41.852 300.402 -42.012 Q 300.546 -42.172 300.738 -42.428 L 301.202 -42.428 L 300.45 -38.764 L 299.922 -38.764 Q 299.986 -40.364 299.33 -41.06 Q 298.674 -41.756 297.49 -41.756 Q 296.562 -41.756 295.746 -41.332 Q 294.93 -40.908 294.298 -40.132 Q 293.666 -39.356 293.306 -38.276 Q 292.946 -37.196 292.946 -35.868 Q 292.946 -34.268 293.706 -33.428 Q 294.466 -32.588 296.05 -32.588 Q 297.89 -32.588 299.49 -34.044 Z " fill="black" /><path d="M 302.325 -30.615 L 302.325 -30.615 L 302.325 -30.66 Q 301.933 -30.895 301.658 -31.27 Q 301.384 -31.646 301.384 -32.239 Q 301.384 -32.866 301.686 -33.314 Q 301.989 -33.762 302.504 -34.003 Q 303.019 -34.244 303.658 -34.244 Q 304.251 -34.244 304.626 -34.115 Q 305.002 -33.986 305.002 -33.986 L 306.648 -34.031 L 306.648 -33.37 L 305.472 -33.393 L 305.472 -33.314 Q 305.618 -33.113 305.774 -32.838 Q 305.931 -32.564 305.931 -32.071 Q 305.931 -31.511 305.634 -31.102 Q 305.338 -30.694 304.839 -30.475 Q 304.341 -30.257 303.714 -30.257 Q 303.142 -30.257 302.638 -30.458 Q 302.56 -30.313 302.454 -30.044 Q 302.347 -29.775 302.347 -29.585 Q 302.347 -29.35 302.622 -29.238 Q 302.896 -29.126 303.714 -29.126 Q 304.318 -29.126 304.834 -29.098 Q 305.349 -29.07 305.73 -28.941 Q 306.11 -28.812 306.318 -28.526 Q 306.525 -28.241 306.525 -27.714 Q 306.525 -27.11 306.217 -26.69 Q 305.909 -26.27 305.405 -26.012 Q 304.901 -25.754 304.313 -25.637 Q 303.725 -25.519 303.154 -25.519 Q 302.336 -25.519 301.888 -25.721 Q 301.44 -25.922 301.266 -26.236 Q 301.093 -26.55 301.093 -26.874 Q 301.093 -27.188 301.311 -27.496 Q 301.53 -27.804 302.011 -28.252 L 302.011 -28.308 Q 301.731 -28.454 301.541 -28.7 Q 301.35 -28.946 301.35 -29.182 Q 301.35 -29.518 301.647 -29.893 Q 301.944 -30.268 302.325 -30.615 Z M 302.381 -28.196 L 302.381 -28.196 Q 302.19 -27.871 302.123 -27.681 Q 302.056 -27.49 302.056 -27.3 Q 302.056 -26.785 302.476 -26.522 Q 302.896 -26.258 303.781 -26.258 Q 304.509 -26.258 304.957 -26.438 Q 305.405 -26.617 305.618 -26.869 Q 305.83 -27.121 305.83 -27.356 Q 305.83 -27.658 305.634 -27.826 Q 305.438 -27.994 305.136 -28.067 Q 304.834 -28.14 304.498 -28.162 Q 304.162 -28.185 303.87 -28.185 Q 303.792 -28.185 303.747 -28.185 Q 303.03 -28.185 302.767 -28.19 Q 302.504 -28.196 302.381 -28.196 Z M 303.59 -33.751 L 303.59 -33.751 Q 303.109 -33.751 302.812 -33.426 Q 302.515 -33.102 302.515 -32.306 Q 302.515 -31.522 302.829 -31.119 Q 303.142 -30.716 303.714 -30.716 Q 304.016 -30.716 304.262 -30.839 Q 304.509 -30.962 304.66 -31.287 Q 304.811 -31.612 304.811 -32.206 Q 304.811 -32.967 304.481 -33.359 Q 304.15 -33.751 303.59 -33.751 Z " fill="black" /><path d="M 307.634 -30.402 L 307.634 -30.402 L 307.992 -30.402 Q 308.138 -29.753 308.339 -29.394 Q 308.541 -29.036 308.86 -28.896 Q 309.179 -28.756 309.638 -28.756 Q 310.165 -28.756 310.45 -28.93 Q 310.736 -29.103 310.736 -29.54 Q 310.736 -29.831 310.596 -30.027 Q 310.456 -30.223 310.148 -30.402 Q 309.84 -30.582 309.325 -30.817 Q 308.798 -31.074 308.423 -31.298 Q 308.048 -31.522 307.852 -31.825 Q 307.656 -32.127 307.656 -32.586 Q 307.656 -33.393 308.199 -33.818 Q 308.742 -34.244 309.56 -34.244 Q 310.053 -34.244 310.394 -34.121 Q 310.736 -33.998 310.938 -33.908 L 310.96 -33.908 L 311.139 -34.188 L 311.453 -34.188 L 311.475 -32.329 L 311.083 -32.329 Q 310.87 -33.191 310.49 -33.488 Q 310.109 -33.785 309.616 -33.785 Q 309.101 -33.785 308.838 -33.561 Q 308.574 -33.337 308.574 -32.978 Q 308.574 -32.687 308.754 -32.497 Q 308.933 -32.306 309.263 -32.144 Q 309.594 -31.982 310.053 -31.758 Q 310.568 -31.511 310.96 -31.248 Q 311.352 -30.985 311.576 -30.654 Q 311.8 -30.324 311.8 -29.831 Q 311.8 -29.238 311.486 -28.879 Q 311.173 -28.521 310.68 -28.37 Q 310.187 -28.218 309.65 -28.218 Q 309.101 -28.218 308.798 -28.33 Q 308.496 -28.442 308.238 -28.543 L 308.194 -28.543 L 307.914 -28.252 L 307.656 -28.252 Z " fill="black" /><path d="M 304.466 -44.868 L 304.466 -44.868 L 304.466 -44.633 L 304.645 -44.778 Q 304.802 -44.913 305.003 -45.12 Q 305.205 -45.327 305.401 -45.495 Q 305.597 -45.663 305.754 -45.663 Q 305.922 -45.663 306.045 -45.529 Q 306.168 -45.394 306.168 -45.215 Q 306.168 -45.014 306.017 -44.913 Q 305.866 -44.812 305.642 -44.756 Q 305.418 -44.7 305.182 -44.65 Q 304.947 -44.599 304.768 -44.51 L 304.6 -44.409 L 304.6 -44.386 L 304.79 -44.286 Q 304.97 -44.196 305.205 -44.14 Q 305.44 -44.084 305.658 -44.017 Q 305.877 -43.95 306.022 -43.843 Q 306.168 -43.737 306.168 -43.535 Q 306.168 -43.367 306.045 -43.238 Q 305.922 -43.11 305.754 -43.11 Q 305.574 -43.11 305.39 -43.289 Q 305.205 -43.468 305.02 -43.686 Q 304.835 -43.905 304.656 -44.017 L 304.466 -44.14 L 304.466 -43.905 Q 304.466 -43.636 304.589 -43.289 Q 304.712 -42.942 304.712 -42.684 Q 304.712 -42.494 304.589 -42.393 Q 304.466 -42.292 304.309 -42.292 Q 304.163 -42.292 304.029 -42.393 Q 303.894 -42.494 303.894 -42.695 Q 303.894 -42.953 304.012 -43.294 Q 304.13 -43.636 304.13 -43.905 L 304.13 -44.129 L 304.118 -44.14 L 303.928 -44.017 Q 303.838 -43.961 303.738 -43.854 Q 303.637 -43.748 303.525 -43.636 Q 303.346 -43.446 303.166 -43.278 Q 302.987 -43.11 302.83 -43.11 Q 302.662 -43.11 302.539 -43.255 Q 302.416 -43.401 302.416 -43.546 Q 302.416 -43.737 302.567 -43.843 Q 302.718 -43.95 302.942 -44.011 Q 303.166 -44.073 303.402 -44.129 Q 303.637 -44.185 303.805 -44.286 L 303.984 -44.386 L 303.984 -44.409 L 303.827 -44.51 Q 303.659 -44.599 303.424 -44.65 Q 303.189 -44.7 302.954 -44.756 Q 302.718 -44.812 302.567 -44.913 Q 302.416 -45.014 302.416 -45.204 Q 302.416 -45.361 302.539 -45.512 Q 302.662 -45.663 302.83 -45.663 Q 302.987 -45.663 303.189 -45.495 Q 303.39 -45.327 303.592 -45.114 Q 303.794 -44.902 303.95 -44.778 L 304.118 -44.644 L 304.13 -44.655 L 304.13 -44.868 Q 304.13 -45.137 304.012 -45.484 Q 303.894 -45.831 303.894 -46.078 Q 303.894 -46.29 304.029 -46.386 Q 304.163 -46.481 304.309 -46.481 Q 304.466 -46.481 304.589 -46.386 Q 304.712 -46.29 304.712 -46.089 Q 304.712 -45.921 304.65 -45.702 Q 304.589 -45.484 304.527 -45.266 Q 304.466 -45.047 304.466 -44.868 Z " fill="black" /></g></g></g><g><g><g><path d="M 347.477 -34.491 L 347.477 -34.491 L 351.845 -41.051 Q 352.069 -41.371 352.205 -41.643 Q 352.341 -41.915 352.341 -42.107 Q 352.341 -42.347 352.133 -42.435 Q 351.925 -42.523 351.381 -42.523 L 351.413 -43.003 L 354.869 -43.003 L 354.837 -42.523 Q 354.405 -42.523 354.101 -42.395 Q 353.797 -42.267 353.485 -41.907 Q 353.173 -41.547 352.677 -40.811 L 346.805 -32.411 L 346.277 -32.411 L 345.381 -41.067 Q 345.285 -41.867 345.029 -42.195 Q 344.773 -42.523 344.133 -42.523 L 344.165 -43.003 L 348.085 -43.003 L 348.037 -42.523 Q 347.429 -42.523 347.077 -42.283 Q 346.725 -42.043 346.757 -41.499 Q 346.757 -41.419 346.781 -41.211 Q 346.805 -41.003 346.805 -40.923 L 347.285 -36.363 L 347.397 -34.491 Z " fill="black" /><path d="M 354.778 -35.011 L 354.778 -35.011 Q 355.618 -35.011 356.245 -34.647 Q 356.872 -34.283 357.214 -33.628 Q 357.555 -32.973 357.555 -32.088 Q 357.555 -31.024 357.197 -30.341 Q 356.838 -29.658 356.211 -29.327 Q 355.584 -28.997 354.778 -28.997 Q 353.96 -28.997 353.327 -29.338 Q 352.694 -29.68 352.342 -30.363 Q 351.989 -31.046 351.989 -32.077 Q 351.989 -32.95 352.336 -33.611 Q 352.683 -34.272 353.31 -34.642 Q 353.938 -35.011 354.778 -35.011 Z M 354.755 -34.496 L 354.755 -34.496 Q 354.016 -34.496 353.596 -33.897 Q 353.176 -33.298 353.176 -32.144 Q 353.176 -30.722 353.607 -30.134 Q 354.038 -29.546 354.811 -29.546 Q 355.304 -29.557 355.651 -29.792 Q 355.998 -30.027 356.183 -30.582 Q 356.368 -31.136 356.368 -32.088 Q 356.368 -33.23 355.976 -33.863 Q 355.584 -34.496 354.755 -34.496 Z " fill="black" /><path d="M 365.171 -29.702 L 365.171 -29.702 L 365.171 -29.277 L 363.659 -29.075 L 363.301 -29.075 L 363.301 -29.949 L 363.189 -29.949 Q 362.763 -29.568 362.326 -29.294 Q 361.89 -29.019 361.274 -29.019 Q 360.445 -29.019 360.008 -29.523 Q 359.571 -30.027 359.571 -31.27 L 359.571 -33.678 Q 359.571 -34.138 359.409 -34.244 Q 359.246 -34.35 358.731 -34.35 L 358.731 -34.754 L 360.288 -34.966 L 360.658 -34.966 L 360.658 -31.416 Q 360.658 -30.789 360.803 -30.442 Q 360.949 -30.094 361.195 -29.96 Q 361.442 -29.826 361.733 -29.826 Q 362.226 -29.826 362.556 -30.033 Q 362.886 -30.24 363.245 -30.531 L 363.245 -33.678 Q 363.245 -34.138 363.043 -34.244 Q 362.842 -34.35 362.27 -34.35 L 362.27 -34.754 L 363.939 -34.966 L 364.331 -34.966 L 364.331 -30.43 Q 364.331 -30.094 364.393 -29.938 Q 364.454 -29.781 364.611 -29.742 Q 364.768 -29.702 365.048 -29.702 Z " fill="black" /><path d="M 369.539 -30.251 L 369.539 -30.251 L 369.797 -30.038 Q 369.55 -29.702 369.349 -29.473 Q 369.147 -29.243 368.89 -29.12 Q 368.632 -28.997 368.229 -28.997 Q 367.579 -28.997 367.282 -29.366 Q 366.986 -29.736 366.986 -30.554 L 366.986 -34.317 L 366.28 -34.317 L 366.28 -34.653 Q 366.683 -34.944 367.019 -35.364 Q 367.355 -35.784 367.691 -36.568 L 368.083 -36.568 L 368.072 -34.866 L 369.494 -34.866 L 369.494 -34.317 L 368.072 -34.317 L 368.072 -30.923 Q 368.072 -30.296 368.19 -30.033 Q 368.307 -29.77 368.666 -29.77 Q 368.99 -29.77 369.158 -29.887 Q 369.326 -30.005 369.539 -30.251 Z " fill="black" /></g></g></g><g><g><g><path d="M -78.829 -34.424 L -78.829 -34.424 L -74.461 -40.984 Q -74.237 -41.304 -74.101 -41.576 Q -73.965 -41.848 -73.965 -42.04 Q -73.965 -42.28 -74.173 -42.368 Q -74.381 -42.456 -74.925 -42.456 L -74.893 -42.936 L -71.437 -42.936 L -71.469 -42.456 Q -71.901 -42.456 -72.205 -42.328 Q -72.509 -42.2 -72.821 -41.84 Q -73.133 -41.48 -73.629 -40.744 L -79.501 -32.344 L -80.029 -32.344 L -80.925 -41 Q -81.021 -41.8 -81.277 -42.128 Q -81.533 -42.456 -82.173 -42.456 L -82.141 -42.936 L -78.221 -42.936 L -78.269 -42.456 Q -78.877 -42.456 -79.229 -42.216 Q -79.581 -41.976 -79.549 -41.432 Q -79.549 -41.352 -79.525 -41.144 Q -79.501 -40.936 -79.501 -40.856 L -79.021 -36.296 L -78.909 -34.424 Z " fill="black" /><path d="M -69.909 -29.478 L -69.909 -29.478 L -69.909 -29.064 L -72.754 -29.064 L -72.754 -29.478 Q -72.362 -29.478 -72.188 -29.562 Q -72.014 -29.646 -71.97 -29.831 Q -71.925 -30.016 -71.925 -30.318 L -71.925 -33.701 Q -71.925 -34.082 -72.048 -34.16 Q -72.171 -34.238 -72.462 -34.238 Q -72.608 -34.238 -72.698 -34.227 Q -72.787 -34.216 -72.787 -34.216 L -72.787 -34.664 L -71.286 -34.91 L -70.827 -34.91 L -70.827 -30.318 Q -70.827 -29.994 -70.777 -29.809 Q -70.726 -29.624 -70.53 -29.551 Q -70.334 -29.478 -69.909 -29.478 Z M -71.387 -37.386 L -71.387 -37.386 Q -71.062 -37.386 -70.844 -37.162 Q -70.626 -36.938 -70.626 -36.646 Q -70.626 -36.378 -70.844 -36.154 Q -71.062 -35.93 -71.387 -35.93 Q -71.701 -35.93 -71.908 -36.154 Q -72.115 -36.378 -72.115 -36.646 Q -72.115 -36.938 -71.908 -37.162 Q -71.701 -37.386 -71.387 -37.386 Z " fill="black" /><path d="M -63.256 -32.816 L -63.256 -32.816 L -63.256 -30.307 Q -63.256 -29.994 -63.2 -29.809 Q -63.144 -29.624 -62.954 -29.546 Q -62.763 -29.467 -62.36 -29.467 L -62.36 -29.064 L -65.238 -29.064 L -65.238 -29.467 Q -64.813 -29.467 -64.622 -29.546 Q -64.432 -29.624 -64.387 -29.809 Q -64.342 -29.994 -64.342 -30.307 L -64.342 -32.446 Q -64.342 -33.197 -64.516 -33.55 Q -64.69 -33.902 -64.953 -34.014 Q -65.216 -34.126 -65.485 -34.126 Q -65.966 -34.126 -66.33 -33.88 Q -66.694 -33.634 -66.963 -33.41 L -66.963 -30.307 Q -66.963 -29.994 -66.913 -29.809 Q -66.862 -29.624 -66.672 -29.546 Q -66.482 -29.467 -66.067 -29.467 L -66.067 -29.064 L -68.89 -29.064 L -68.89 -29.467 Q -68.498 -29.467 -68.324 -29.546 Q -68.15 -29.624 -68.106 -29.809 Q -68.061 -29.994 -68.061 -30.307 L -68.061 -33.712 Q -68.061 -34.026 -68.178 -34.132 Q -68.296 -34.238 -68.554 -34.238 Q -68.688 -34.238 -68.778 -34.227 Q -68.867 -34.216 -68.867 -34.216 L -68.867 -34.642 L -67.366 -34.91 L -66.997 -34.91 L -66.997 -33.992 L -66.918 -33.992 Q -66.437 -34.429 -65.994 -34.686 Q -65.552 -34.944 -64.992 -34.944 Q -64.331 -34.944 -63.956 -34.647 Q -63.581 -34.35 -63.418 -33.869 Q -63.256 -33.387 -63.256 -32.816 Z " fill="black" /></g></g></g></svg>