<svg xmlns="http://www.w3.org/2000/svg" xmlns:xlink="http://www.w3.org/1999/xlink" xml:lang="en" height="241.9224pt" width="489.64000000000004pt" viewBox="-110.13199999999999 -40.1424 489.64000000000004 241.9224"><circle cx="252.0" cy="54.0" r="18.0" style="stroke:black;fill:none;stroke-width:2.0;stroke-dasharray:-;" /><path d="M 0.0,-0.0 L -27.0,-3.3065463576978533e-15 L -54.0,-6.613092715395707e-15" style="stroke:black;fill:none;stroke-width:2.0;stroke-dasharray:-;stroke-linecap:round;stroke-linejoin:round;" /><path d="M -54.0,-6.613092715395707e-15 L -54.000000000000014,68.75999999999999 M -45.000000000000014,68.75999999999999 L -63.000000000000014,68.75999999999999 M -45.000000000000014,75.24 L -63.000000000000014,75.24 M -54.000000000000014,75.24 L -54.00000000000002,144.0" style="stroke:black;fill:none;stroke-width:2.0;stroke-dasharray:-;stroke-linecap:round;stroke-linejoin:round;" /><path d="M -63.00000000000001,56.75999999999999 L -46.12892887941598,80.8615301722629" style="stroke:black;fill:none;stroke-width:2.0;stroke-dasharray:-;stroke-linecap:round;stroke-linejoin:round;" /><path d="M -43.14692468872668 85.12153615896193 L -48.488316810510824 82.5131017240293 L -43.76954094832115 79.20995862049652 Z" style="stroke:black;fill:black;stroke-linecap:butt;stroke-linejoin:miter;" /><path d="M -54.00000000000002,144.0 L 134.99999999999997,144.0 L 324.0,144.0" style="stroke:black;fill:none;stroke-width:2.0;stroke-dasharray:-;stroke-linecap:round;stroke-linejoin:round;" /><path d="M -54.0,-6.613092715395707e-15 L -72.0,-8.817456953860943e-15 L -90.0,-1.1021821192326178e-14" style="stroke:black;fill:none;stroke-width:2.0;stroke-dasharray:-;stroke-linecap:round;stroke-linejoin:round;" /><path d="M 0.0,-0.0 L -9.324460728707945e-15,50.76 M 8.999999999999991,50.76 L -9.00000000000001,50.76 M 8.99999999999999,57.239999999999995 L -9.00000000000001,57.239999999999995 M -1.0514817417479173e-14,57.239999999999995 L -1.9839278146187122e-14,108.0" style="stroke:black;fill:none;stroke-width:2.0;stroke-dasharray:-;stroke-linecap:round;stroke-linejoin:round;" /><path d="M -9.000000000000007,38.76 L 7.871071120584023,62.86153017226291" style="stroke:black;fill:none;stroke-width:2.0;stroke-dasharray:-;stroke-linecap:round;stroke-linejoin:round;" /><path d="M 10.853075311273331 67.12153615896192 L 5.511683189489188 64.51310172402928 L 10.23045905167886 61.20995862049651 Z" style="stroke:black;fill:black;stroke-linecap:butt;stroke-linejoin:miter;" /><path d="M -1.9839278146187122e-14,108.0 L 125.99999999999999,108.0 L 251.99999999999997,108.0" style="stroke:black;fill:none;stroke-width:2.0;stroke-dasharray:-;stroke-linecap:round;stroke-linejoin:round;" /><path d="M 251.99999999999997,108.0 L 251.99999999999997,144.0 L 251.99999999999997,180.0" style="stroke:black;fill:none;stroke-width:2.0;stroke-dasharray:-;stroke-linecap:round;stroke-linejoin:round;" /><path d="M 0.0,-0.0 L 122.76,-0.0 M 122.76,-9.0 L 122.76,9.0 M 129.24,-9.0 L 129.24,9.0 M 129.24,-0.0 L 252.0,-0.0" style="stroke:black;fill:none;stroke-width:2.0;stroke-dasharray:-;stroke-linecap:round;stroke-linejoin:round;" /><path d="M 110.76,9.0 L 134.86153017226292,-7.871071120584036" style="stroke:black;fill:none;stroke-width:2.0;stroke-dasharray:-;stroke-linecap:round;stroke-linejoin:round;" /><path d="M 139.1215361589619 -10.853075311273344 L 136.5131017240293 -5.511683189489201 L 133.20995862049654 -10.230459051678874 Z" style="stroke:black;fill:black;stroke-linecap:butt;stroke-linejoin:miter;" /><path d="M 252.0,-0.0 L 252.0,36.0 L 252.0,36.0 M 252.0,72.0 L 252.0,72.0 L 251.99999999999997,108.0" style="stroke:black;fill:none;stroke-width:2.0;stroke-dasharray:-;stroke-linecap:round;stroke-linejoin:round;" /><path d="M 252.0,45.0 L 252.0,54.0" style="stroke:black;fill:none;stroke-width:2.0;stroke-dasharray:-;stroke-linecap:round;stroke-linejoin:round;" /><path d="M 252.0 61.0 L 249.3 54.0 L 254.7 54.0 Z" style="stroke:black;fill:black;stroke-linecap:butt;stroke-linejoin:miter;" /><path d="M 252.0,-0.0 L 288.0,-0.0 L 324.0,-0.0" style="stroke:black;fill:none;stroke-width:2.0;stroke-dasharray:-;stroke-linecap:round;stroke-linejoin:round;" /><path d="M 324.0,-0.0 L 324.0,50.76 M 333.0,50.76 L 315.0,50.76 M 333.0,57.239999999999995 L 315.0,57.239999999999995 M 324.0,57.239999999999995 L 324.0,108.0" style="stroke:black;fill:none;stroke-width:2.0;stroke-dasharray:-;stroke-linecap:round;stroke-linejoin:round;" /><path d="M 315.0,38.76 L 331.871071120584,62.8615301722629" style="stroke:black;fill:none;stroke-width:2.0;stroke-dasharray:-;stroke-linecap:round;stroke-linejoin:round;" /><path d="M 334.8530753112733 67.1215361589619 L 329.51168318948913 64.51310172402927 L 334.2304590516788 61.20995862049651 Z" style="stroke:black;fill:black;stroke-linecap:butt;stroke-linejoin:miter;" /><path d="M 324.0,108.0 L 291.24,108.0 M 291.24,117.0 L 291.24,99.0 M 284.76,117.0 L 284.76,99.0 M 284.76,108.0 L 252.0,107.99999999999999" style="stroke:black;fill:none;stroke-width:2.0;stroke-dasharray:-;stroke-linecap:round;stroke-linejoin:round;" /><path d="M 303.24,99.0 L 279.1384698277371,115.87107112058403" style="stroke:black;fill:none;stroke-width:2.0;stroke-dasharray:-;stroke-linecap:round;stroke-linejoin:round;" /><path d="M 274.87846384103807 118.85307531127333 L 277.48689827597076 113.51168318948919 L 280.7900413795035 118.23045905167886 Z" style="stroke:black;fill:black;stroke-linecap:butt;stroke-linejoin:miter;" /><path d="M 324.0,108.0 L 324.0,144.0 L 324.0,180.0" style="stroke:black;fill:none;stroke-width:2.0;stroke-dasharray:-;stroke-linecap:round;stroke-linejoin:round;" /><path d="M 324.0,-0.0 L 342.0,-0.0 L 360.0,-0.0" style="stroke:black;fill:none;stroke-width:2.0;stroke-dasharray:-;stroke-linecap:round;stroke-linejoin:round;" /><circle cx="-54.0" cy="-6.613092715395707e-15" r="2.6999999999999997" style="stroke:black;fill:black;stroke-width:2.0;stroke-dasharray:-;" /><circle cx="0.0" cy="-0.0" r="2.6999999999999997" style="stroke:black;fill:black;stroke-width:2.0;stroke-dasharray:-;" /><g><g><g><path d="M -89.434 73.293 L -89.434 73.293 L -89.146 73.597 Q -89.962 74.557 -91.034 75.173 Q -92.106 75.789 -93.626 75.789 Q -95.066 75.789 -95.93 75.253 Q -96.794 74.717 -97.17 73.821 Q -97.546 72.925 -97.546 71.869 Q -97.546 70.189 -97.034 68.885 Q -96.522 67.581 -95.634 66.693 Q -94.746 65.805 -93.626 65.349 Q -92.506 64.893 -91.29 64.893 Q -90.474 64.893 -90.018 65.037 Q -89.562 65.181 -89.306 65.333 Q -89.05 65.485 -88.858 65.485 Q -88.666 65.485 -88.522 65.325 Q -88.378 65.165 -88.186 64.909 L -87.722 64.909 L -88.474 68.573 L -89.002 68.573 Q -88.938 66.973 -89.594 66.277 Q -90.25 65.581 -91.434 65.581 Q -92.362 65.581 -93.178 66.005 Q -93.994 66.429 -94.626 67.205 Q -95.258 67.981 -95.618 69.061 Q -95.978 70.141 -95.978 71.469 Q -95.978 73.069 -95.218 73.909 Q -94.458 74.749 -92.874 74.749 Q -91.034 74.749 -89.434 73.293 Z " fill="black" /><path d="M -79.677 75.389 L -79.677 75.389 L -79.677 75.837 Q -80.013 75.837 -80.186 75.91 Q -80.36 75.982 -80.422 76.178 Q -80.483 76.374 -80.483 76.755 L -80.483 78.256 Q -80.875 78.491 -81.312 78.682 Q -81.749 78.872 -82.298 78.99 Q -82.846 79.107 -83.574 79.107 Q -85.467 79.107 -86.486 78.077 Q -87.506 77.046 -87.506 75.086 Q -87.506 73.776 -86.985 72.846 Q -86.464 71.917 -85.551 71.43 Q -84.638 70.942 -83.462 70.942 Q -82.802 70.942 -82.415 71.049 Q -82.029 71.155 -81.81 71.267 Q -81.592 71.379 -81.446 71.379 Q -81.323 71.379 -81.239 71.273 Q -81.155 71.166 -81.01 70.965 L -80.606 70.965 L -80.606 73.754 L -81.077 73.754 Q -81.29 72.566 -81.889 72.051 Q -82.488 71.536 -83.496 71.536 Q -84.347 71.536 -84.93 71.956 Q -85.512 72.376 -85.803 73.132 Q -86.094 73.888 -86.094 74.918 Q -86.094 76.677 -85.378 77.59 Q -84.661 78.502 -83.384 78.502 Q -82.835 78.502 -82.432 78.334 Q -82.029 78.166 -81.693 77.886 L -81.693 76.834 Q -81.693 76.419 -81.76 76.206 Q -81.827 75.994 -82.046 75.915 Q -82.264 75.837 -82.712 75.837 L -82.712 75.389 Z " fill="black" /><path d="M -73.931 74.784 L -73.931 74.784 L -73.931 74.851 Q -73.405 74.93 -72.923 75.159 Q -72.442 75.389 -72.128 75.803 Q -71.814 76.218 -71.814 76.856 Q -71.814 77.886 -72.598 78.43 Q -73.382 78.973 -74.704 78.973 L -78.568 78.973 L -78.568 78.547 Q -78.064 78.547 -77.823 78.463 Q -77.582 78.379 -77.51 78.122 Q -77.437 77.864 -77.437 77.36 L -77.437 72.634 Q -77.437 72.141 -77.515 71.906 Q -77.594 71.67 -77.834 71.598 Q -78.075 71.525 -78.568 71.525 L -78.568 71.099 L -75.309 71.099 Q -73.674 71.099 -72.951 71.609 Q -72.229 72.118 -72.229 73.048 Q -72.229 73.81 -72.699 74.196 Q -73.17 74.582 -73.931 74.784 Z M -76.261 75.198 L -76.261 75.198 L -76.261 78.446 Q -76.026 78.458 -75.796 78.458 Q -75.566 78.458 -75.342 78.458 Q -74.984 78.458 -74.603 78.418 Q -74.222 78.379 -73.898 78.228 Q -73.573 78.077 -73.377 77.752 Q -73.181 77.427 -73.181 76.867 Q -73.181 76.218 -73.489 75.859 Q -73.797 75.501 -74.295 75.35 Q -74.794 75.198 -75.365 75.198 Z M -76.261 74.616 L -76.261 74.616 L -75.365 74.616 Q -74.312 74.616 -73.903 74.246 Q -73.494 73.877 -73.494 73.126 Q -73.494 72.354 -73.982 71.995 Q -74.469 71.637 -75.533 71.637 Q -75.712 71.637 -75.891 71.642 Q -76.07 71.648 -76.261 71.659 Z " fill="black" /></g></g></g><circle cx="324.0" cy="144.0" r="2.6999999999999997" style="stroke:black;fill:black;stroke-width:2.0;stroke-dasharray:-;" /><circle cx="-90.0" cy="-1.1021821192326178e-14" r="2.6999999999999997" style="stroke:black;fill:white;stroke-width:2.0;stroke-dasharray:-;" /><g><g><g><path d="M -99.82 5.44 L -99.82 5.44 Q -101.244 5.44 -102.34 4.792 Q -103.436 4.144 -104.052 2.928 Q -104.668 1.712 -104.668 0.032 Q -104.668 -1.696 -104.028 -2.92 Q -103.388 -4.144 -102.292 -4.792 Q -101.196 -5.44 -99.804 -5.44 Q -98.62 -5.44 -97.876 -5.04 Q -97.132 -4.64 -96.652 -4.144 L -97.404 -3.264 Q -97.804 -3.68 -98.348 -3.968 Q -98.892 -4.256 -99.74 -4.256 Q -101.34 -4.256 -102.3 -3.12 Q -103.26 -1.984 -103.26 0.016 Q -103.26 1.936 -102.34 3.088 Q -101.42 4.24 -99.74 4.24 Q -98.428 4.24 -97.772 3.632 L -97.772 0.928 L -100.028 0.928 L -100.028 -0.208 L -96.524 -0.208 L -96.524 4.224 Q -97.036 4.752 -97.884 5.096 Q -98.732 5.44 -99.82 5.44 Z " fill="black" /></g></g></g><g><g><g><path d="M -34.426 55.27 L -34.426 55.27 L -34.138 55.574 Q -34.954 56.534 -36.026 57.15 Q -37.098 57.766 -38.618 57.766 Q -40.058 57.766 -40.922 57.23 Q -41.786 56.694 -42.162 55.798 Q -42.538 54.902 -42.538 53.846 Q -42.538 52.166 -42.026 50.862 Q -41.514 49.558 -40.626 48.67 Q -39.738 47.782 -38.618 47.326 Q -37.498 46.87 -36.282 46.87 Q -35.466 46.87 -35.01 47.014 Q -34.554 47.158 -34.298 47.31 Q -34.042 47.462 -33.85 47.462 Q -33.658 47.462 -33.514 47.302 Q -33.37 47.142 -33.178 46.886 L -32.714 46.886 L -33.466 50.55 L -33.994 50.55 Q -33.93 48.95 -34.586 48.254 Q -35.242 47.558 -36.426 47.558 Q -37.354 47.558 -38.17 47.982 Q -38.986 48.406 -39.618 49.182 Q -40.25 49.958 -40.61 51.038 Q -40.97 52.118 -40.97 53.446 Q -40.97 55.046 -40.21 55.886 Q -39.45 56.726 -37.866 56.726 Q -36.026 56.726 -34.426 55.27 Z " fill="black" /><path d="M -24.669 57.366 L -24.669 57.366 L -24.669 57.814 Q -25.005 57.814 -25.178 57.887 Q -25.352 57.96 -25.414 58.156 Q -25.475 58.352 -25.475 58.733 L -25.475 60.234 Q -25.867 60.469 -26.304 60.659 Q -26.741 60.85 -27.29 60.967 Q -27.838 61.085 -28.566 61.085 Q -30.459 61.085 -31.478 60.054 Q -32.498 59.024 -32.498 57.064 Q -32.498 55.754 -31.977 54.824 Q -31.456 53.894 -30.543 53.407 Q -29.63 52.92 -28.454 52.92 Q -27.794 52.92 -27.407 53.026 Q -27.021 53.133 -26.802 53.245 Q -26.584 53.357 -26.438 53.357 Q -26.315 53.357 -26.231 53.25 Q -26.147 53.144 -26.002 52.942 L -25.598 52.942 L -25.598 55.731 L -26.069 55.731 Q -26.282 54.544 -26.881 54.029 Q -27.48 53.514 -28.488 53.514 Q -29.339 53.514 -29.922 53.934 Q -30.504 54.354 -30.795 55.11 Q -31.086 55.866 -31.086 56.896 Q -31.086 58.654 -30.37 59.567 Q -29.653 60.48 -28.376 60.48 Q -27.827 60.48 -27.424 60.312 Q -27.021 60.144 -26.685 59.864 L -26.685 58.811 Q -26.685 58.397 -26.752 58.184 Q -26.819 57.971 -27.038 57.893 Q -27.256 57.814 -27.704 57.814 L -27.704 57.366 Z " fill="black" /><path d="M -18.43 55.362 L -18.43 55.362 L -18.867 55.362 Q -19.024 54.779 -19.254 54.359 Q -19.483 53.939 -19.864 53.704 Q -20.245 53.469 -20.861 53.469 Q -21.443 53.469 -21.79 53.76 Q -22.138 54.051 -22.138 54.578 Q -22.138 55.048 -21.841 55.378 Q -21.544 55.709 -21.079 55.972 Q -20.614 56.235 -20.088 56.498 Q -19.562 56.762 -19.097 57.086 Q -18.632 57.411 -18.335 57.859 Q -18.038 58.307 -18.038 58.957 Q -18.038 59.651 -18.363 60.133 Q -18.688 60.614 -19.248 60.861 Q -19.808 61.107 -20.514 61.107 Q -21.152 61.107 -21.55 61.018 Q -21.947 60.928 -22.182 60.838 Q -22.418 60.749 -22.574 60.749 Q -22.709 60.749 -22.804 60.844 Q -22.899 60.939 -22.91 61.13 L -23.403 61.13 L -23.403 58.453 L -22.966 58.453 Q -22.754 59.237 -22.49 59.685 Q -22.227 60.133 -21.813 60.318 Q -21.398 60.502 -20.749 60.502 Q -20.077 60.502 -19.674 60.239 Q -19.27 59.976 -19.27 59.27 Q -19.27 58.789 -19.556 58.453 Q -19.842 58.117 -20.295 57.854 Q -20.749 57.59 -21.258 57.333 Q -21.768 57.075 -22.222 56.762 Q -22.675 56.448 -22.961 56.006 Q -23.246 55.563 -23.246 54.925 Q -23.246 54.275 -22.922 53.833 Q -22.597 53.39 -22.065 53.166 Q -21.533 52.942 -20.917 52.942 Q -20.357 52.942 -20.038 53.038 Q -19.718 53.133 -19.539 53.228 Q -19.36 53.323 -19.237 53.323 Q -19.069 53.323 -18.985 53.25 Q -18.901 53.178 -18.856 52.976 L -18.43 52.976 Z " fill="black" /></g></g></g><circle cx="251.99999999999997" cy="108.0" r="2.6999999999999997" style="stroke:black;fill:black;stroke-width:2.0;stroke-dasharray:-;" /><circle cx="251.99999999999997" cy="180.0" r="2.6999999999999997" style="stroke:black;fill:white;stroke-width:2.0;stroke-dasharray:-;" /><g><g><g><path d="M 252.448 197.18 L 252.448 197.18 Q 251.296 197.18 250.344 196.756 Q 249.392 196.332 248.688 195.628 L 249.504 194.684 Q 250.08 195.276 250.856 195.628 Q 251.632 195.98 252.512 195.98 Q 253.536 195.98 254.12 195.516 Q 254.704 195.052 254.704 194.268 Q 254.704 193.756 254.472 193.436 Q 254.24 193.116 253.832 192.892 Q 253.424 192.668 252.912 192.46 L 251.376 191.804 Q 250.912 191.596 250.4 191.268 Q 249.888 190.94 249.544 190.42 Q 249.2 189.9 249.2 189.132 Q 249.2 188.3 249.64 187.66 Q 250.08 187.02 250.84 186.66 Q 251.6 186.3 252.56 186.3 Q 253.536 186.3 254.352 186.66 Q 255.168 187.02 255.744 187.596 L 255.024 188.476 Q 254.512 188.012 253.912 187.748 Q 253.312 187.484 252.592 187.484 Q 251.68 187.484 251.136 187.892 Q 250.592 188.3 250.592 189.004 Q 250.592 189.5 250.856 189.82 Q 251.12 190.14 251.528 190.348 Q 251.936 190.556 252.368 190.732 L 253.888 191.372 Q 254.496 191.628 255 191.988 Q 255.504 192.348 255.8 192.876 Q 256.096 193.404 256.096 194.14 Q 256.096 195.004 255.656 195.692 Q 255.216 196.38 254.4 196.78 Q 253.584 197.18 252.448 197.18 Z " fill="black" /></g></g></g><circle cx="252.0" cy="-0.0" r="2.6999999999999997" style="stroke:black;fill:black;stroke-width:2.0;stroke-dasharray:-;" /><g><g><g><path d="M 122.576 -27.174 L 122.576 -27.174 L 122.864 -26.87 Q 122.048 -25.91 120.976 -25.294 Q 119.904 -24.678 118.384 -24.678 Q 116.944 -24.678 116.08 -25.214 Q 115.216 -25.75 114.84 -26.646 Q 114.464 -27.542 114.464 -28.598 Q 114.464 -30.278 114.976 -31.582 Q 115.488 -32.886 116.376 -33.774 Q 117.264 -34.662 118.384 -35.118 Q 119.504 -35.574 120.72 -35.574 Q 121.536 -35.574 121.992 -35.43 Q 122.448 -35.286 122.704 -35.134 Q 122.96 -34.982 123.152 -34.982 Q 123.344 -34.982 123.488 -35.142 Q 123.632 -35.302 123.824 -35.558 L 124.288 -35.558 L 123.536 -31.894 L 123.008 -31.894 Q 123.072 -33.494 122.416 -34.19 Q 121.76 -34.886 120.576 -34.886 Q 119.648 -34.886 118.832 -34.462 Q 118.016 -34.038 117.384 -33.262 Q 116.752 -32.486 116.392 -31.406 Q 116.032 -30.326 116.032 -28.998 Q 116.032 -27.398 116.792 -26.558 Q 117.552 -25.718 119.136 -25.718 Q 120.976 -25.718 122.576 -27.174 Z " fill="black" /><path d="M 132.333 -25.078 L 132.333 -25.078 L 132.333 -24.63 Q 131.997 -24.63 131.824 -24.558 Q 131.65 -24.485 131.588 -24.289 Q 131.527 -24.093 131.527 -23.712 L 131.527 -22.211 Q 131.135 -21.976 130.698 -21.786 Q 130.261 -21.595 129.712 -21.478 Q 129.164 -21.36 128.436 -21.36 Q 126.543 -21.36 125.524 -22.39 Q 124.504 -23.421 124.504 -25.381 Q 124.504 -26.691 125.025 -27.621 Q 125.546 -28.55 126.459 -29.038 Q 127.372 -29.525 128.548 -29.525 Q 129.208 -29.525 129.595 -29.418 Q 129.981 -29.312 130.2 -29.2 Q 130.418 -29.088 130.564 -29.088 Q 130.687 -29.088 130.771 -29.194 Q 130.855 -29.301 131 -29.502 L 131.404 -29.502 L 131.404 -26.714 L 130.933 -26.714 Q 130.72 -27.901 130.121 -28.416 Q 129.522 -28.931 128.514 -28.931 Q 127.663 -28.931 127.08 -28.511 Q 126.498 -28.091 126.207 -27.335 Q 125.916 -26.579 125.916 -25.549 Q 125.916 -23.79 126.632 -22.878 Q 127.349 -21.965 128.626 -21.965 Q 129.175 -21.965 129.578 -22.133 Q 129.981 -22.301 130.317 -22.581 L 130.317 -23.634 Q 130.317 -24.048 130.25 -24.261 Q 130.183 -24.474 129.964 -24.552 Q 129.746 -24.63 129.298 -24.63 L 129.298 -25.078 Z " fill="black" /><path d="M 133.464 -29.368 L 133.464 -29.368 L 136.858 -29.368 Q 137.754 -29.368 138.572 -29.172 Q 139.389 -28.976 140.033 -28.528 Q 140.677 -28.08 141.052 -27.33 Q 141.428 -26.579 141.428 -25.459 Q 141.428 -24.406 141.086 -23.65 Q 140.744 -22.894 140.128 -22.418 Q 139.512 -21.942 138.695 -21.718 Q 137.877 -21.494 136.925 -21.494 L 133.464 -21.494 L 133.464 -21.92 Q 133.991 -21.92 134.237 -21.998 Q 134.484 -22.077 134.556 -22.318 Q 134.629 -22.558 134.629 -23.051 L 134.629 -27.912 Q 134.629 -28.371 134.523 -28.59 Q 134.416 -28.808 134.164 -28.875 Q 133.912 -28.942 133.464 -28.942 Z M 135.828 -28.808 L 135.828 -28.808 L 135.828 -22.032 Q 136.007 -22.021 136.18 -22.015 Q 136.354 -22.01 136.522 -22.01 Q 137.631 -22.01 138.409 -22.301 Q 139.188 -22.592 139.596 -23.32 Q 140.005 -24.048 140.005 -25.358 Q 140.005 -27.038 139.148 -27.929 Q 138.292 -28.819 136.432 -28.819 Q 136.276 -28.819 136.13 -28.819 Q 135.984 -28.819 135.828 -28.808 Z " fill="black" /></g></g></g><g><g><g><path d="M 19.584 55.992 L 19.584 55.992 L 20.896 49.688 Q 21.04 49.064 21.032 48.704 Q 21.024 48.344 20.736 48.2 Q 20.448 48.056 19.712 48.056 L 19.808 47.576 L 24.24 47.576 L 24.144 48.056 Q 23.44 48.056 23.088 48.2 Q 22.736 48.344 22.592 48.704 Q 22.448 49.064 22.32 49.688 L 21.008 56.056 Q 20.96 56.312 20.928 56.52 Q 20.896 56.728 20.896 56.904 Q 20.896 57.352 21.16 57.48 Q 21.424 57.608 22.176 57.608 L 22.08 58.088 L 17.712 58.088 L 17.808 57.608 Q 18.464 57.608 18.792 57.496 Q 19.12 57.384 19.28 57.04 Q 19.44 56.696 19.584 55.992 Z " fill="black" /><path d="M 24.867 53.574 L 24.867 53.574 L 28.261 53.574 Q 29.157 53.574 29.974 53.77 Q 30.792 53.966 31.436 54.414 Q 32.08 54.862 32.455 55.613 Q 32.83 56.363 32.83 57.483 Q 32.83 58.536 32.489 59.292 Q 32.147 60.048 31.531 60.524 Q 30.915 61 30.098 61.224 Q 29.28 61.448 28.328 61.448 L 24.867 61.448 L 24.867 61.022 Q 25.394 61.022 25.64 60.944 Q 25.886 60.866 25.959 60.625 Q 26.032 60.384 26.032 59.891 L 26.032 55.03 Q 26.032 54.571 25.926 54.353 Q 25.819 54.134 25.567 54.067 Q 25.315 54 24.867 54 Z M 27.23 54.134 L 27.23 54.134 L 27.23 60.91 Q 27.41 60.922 27.583 60.927 Q 27.757 60.933 27.925 60.933 Q 29.034 60.933 29.812 60.642 Q 30.59 60.35 30.999 59.622 Q 31.408 58.894 31.408 57.584 Q 31.408 55.904 30.551 55.014 Q 29.694 54.123 27.835 54.123 Q 27.678 54.123 27.533 54.123 Q 27.387 54.123 27.23 54.134 Z " fill="black" /><path d="M 39.293 55.859 L 39.293 55.859 L 38.856 55.859 Q 38.699 55.277 38.47 54.857 Q 38.24 54.437 37.859 54.202 Q 37.478 53.966 36.862 53.966 Q 36.28 53.966 35.933 54.258 Q 35.586 54.549 35.586 55.075 Q 35.586 55.546 35.882 55.876 Q 36.179 56.206 36.644 56.47 Q 37.109 56.733 37.635 56.996 Q 38.162 57.259 38.626 57.584 Q 39.091 57.909 39.388 58.357 Q 39.685 58.805 39.685 59.454 Q 39.685 60.149 39.36 60.63 Q 39.035 61.112 38.475 61.358 Q 37.915 61.605 37.21 61.605 Q 36.571 61.605 36.174 61.515 Q 35.776 61.426 35.541 61.336 Q 35.306 61.246 35.149 61.246 Q 35.014 61.246 34.919 61.342 Q 34.824 61.437 34.813 61.627 L 34.32 61.627 L 34.32 58.95 L 34.757 58.95 Q 34.97 59.734 35.233 60.182 Q 35.496 60.63 35.91 60.815 Q 36.325 61 36.974 61 Q 37.646 61 38.05 60.737 Q 38.453 60.474 38.453 59.768 Q 38.453 59.286 38.167 58.95 Q 37.882 58.614 37.428 58.351 Q 36.974 58.088 36.465 57.83 Q 35.955 57.573 35.502 57.259 Q 35.048 56.946 34.762 56.503 Q 34.477 56.061 34.477 55.422 Q 34.477 54.773 34.802 54.33 Q 35.126 53.888 35.658 53.664 Q 36.19 53.44 36.806 53.44 Q 37.366 53.44 37.686 53.535 Q 38.005 53.63 38.184 53.726 Q 38.363 53.821 38.486 53.821 Q 38.654 53.821 38.738 53.748 Q 38.822 53.675 38.867 53.474 L 39.293 53.474 Z " fill="black" /><path d="M 56.776 52.856 L 56.776 52.856 L 47.24 52.856 L 47.24 51.768 L 56.776 51.768 Z M 56.776 56.12 L 56.776 56.12 L 47.24 56.12 L 47.24 55.048 L 56.776 55.048 Z " fill="black" /><path d="M 66.732 50.616 L 66.732 50.616 L 68.108 50.616 Q 68.252 49.944 68.42 49.32 Q 68.588 48.696 68.86 48.2 Q 69.068 47.816 69.372 47.48 Q 69.676 47.144 70.148 46.928 Q 70.62 46.712 71.308 46.712 Q 72.044 46.712 72.436 47.04 Q 72.828 47.368 72.828 47.88 Q 72.828 48.232 72.636 48.408 Q 72.444 48.584 72.188 48.584 Q 71.868 48.584 71.724 48.4 Q 71.58 48.216 71.548 47.96 Q 71.5 47.656 71.428 47.416 Q 71.356 47.176 71.068 47.176 Q 70.46 47.176 70.124 47.816 Q 69.788 48.456 69.612 49.48 L 69.42 50.616 L 70.94 50.616 L 70.844 51.272 L 69.34 51.272 L 68.428 56.728 Q 68.364 57.144 68.228 57.768 Q 68.092 58.392 67.852 59.072 Q 67.612 59.752 67.268 60.344 Q 66.924 60.936 66.428 61.312 Q 65.932 61.688 65.276 61.688 Q 64.508 61.688 64.18 61.32 Q 63.852 60.952 63.852 60.536 Q 63.852 60.2 64.02 59.976 Q 64.188 59.752 64.492 59.752 Q 64.86 59.752 64.988 59.968 Q 65.116 60.184 65.148 60.464 Q 65.18 60.744 65.244 60.96 Q 65.308 61.176 65.532 61.176 Q 65.852 61.176 66.092 60.76 Q 66.332 60.344 66.508 59.728 Q 66.684 59.112 66.796 58.504 Q 66.908 57.896 66.972 57.496 L 68.012 51.272 L 66.668 51.272 Z " fill="black" /><path d="M 73.644 53.768 L 73.644 53.768 Q 73.644 51.096 74.804 49.208 Q 75.964 47.32 77.9 46.312 L 78.156 46.728 Q 76.412 47.912 75.684 49.616 Q 74.956 51.32 74.956 53.768 Q 74.956 56.216 75.684 57.92 Q 76.412 59.624 78.156 60.808 L 77.9 61.224 Q 75.964 60.216 74.804 58.328 Q 73.644 56.44 73.644 53.768 Z " fill="black" /><path d="M 94.796 47.576 L 94.796 47.576 L 94.748 48.056 Q 94.172 48.072 93.82 48.312 Q 93.468 48.552 93.052 49.16 L 87.42 58.184 L 86.956 58.184 L 86.428 51.96 L 86.364 51.96 L 82.252 58.184 L 81.804 58.184 L 81.02 49.496 Q 80.956 48.712 80.684 48.384 Q 80.412 48.056 79.724 48.056 L 79.804 47.576 L 83.804 47.576 L 83.724 48.056 Q 83.036 48.056 82.764 48.192 Q 82.492 48.328 82.46 48.648 Q 82.46 48.68 82.46 48.744 Q 82.46 48.872 82.46 49.056 Q 82.46 49.24 82.492 49.464 L 82.908 53.976 L 82.988 55.512 L 83.084 55.512 L 86.316 50.824 L 86.204 49.56 Q 86.14 48.872 86.036 48.552 Q 85.932 48.232 85.7 48.144 Q 85.468 48.056 85.004 48.056 L 85.084 47.576 L 89.164 47.576 L 89.084 48.056 Q 88.204 48.056 87.908 48.344 Q 87.612 48.632 87.676 49.528 L 88.06 53.848 L 88.124 55.48 L 88.204 55.48 L 91.612 50.12 Q 91.868 49.72 92.092 49.288 Q 92.316 48.856 92.316 48.504 Q 92.316 48.264 92.14 48.16 Q 91.964 48.056 91.436 48.056 L 91.532 47.576 Z " fill="black" /><path d="M 95.916 60.2 L 95.916 60.2 L 95.724 59.8 Q 96.028 59.672 96.332 59.472 Q 96.636 59.272 96.844 58.888 Q 97.052 58.504 97.052 57.864 Q 96.796 57.96 96.556 57.96 Q 96.092 57.96 95.884 57.704 Q 95.676 57.448 95.676 57.096 Q 95.676 56.712 95.932 56.432 Q 96.188 56.152 96.668 56.152 Q 97.276 56.152 97.588 56.528 Q 97.9 56.904 97.9 57.56 Q 97.9 58.232 97.684 58.696 Q 97.468 59.16 97.148 59.448 Q 96.828 59.736 96.492 59.912 Q 96.156 60.088 95.916 60.2 Z " fill="black" /><path d="M 114.69 54.968 L 114.69 54.968 L 113.73 58.088 L 105.826 58.088 L 105.922 57.608 Q 106.546 57.608 106.874 57.496 Q 107.202 57.384 107.378 57.064 Q 107.554 56.744 107.682 56.104 L 109.058 49.432 Q 109.17 48.904 109.138 48.6 Q 109.106 48.296 108.81 48.176 Q 108.514 48.056 107.826 48.056 L 107.922 47.576 L 112.466 47.576 L 112.386 48.056 Q 111.522 48.056 111.09 48.32 Q 110.658 48.584 110.482 49.448 L 109.026 56.616 Q 108.914 57.144 109.138 57.312 Q 109.362 57.48 110.066 57.48 L 110.818 57.48 Q 111.586 57.48 112.066 57.344 Q 112.546 57.208 112.882 56.92 Q 113.218 56.632 113.514 56.144 Q 113.81 55.656 114.178 54.968 Z " fill="black" /><path d="M 116.258 60.2 L 116.258 60.2 L 116.066 59.8 Q 116.37 59.672 116.674 59.472 Q 116.978 59.272 117.186 58.888 Q 117.394 58.504 117.394 57.864 Q 117.138 57.96 116.898 57.96 Q 116.434 57.96 116.226 57.704 Q 116.018 57.448 116.018 57.096 Q 116.018 56.712 116.274 56.432 Q 116.53 56.152 117.01 56.152 Q 117.618 56.152 117.93 56.528 Q 118.242 56.904 118.242 57.56 Q 118.242 58.232 118.026 58.696 Q 117.81 59.16 117.49 59.448 Q 117.17 59.736 116.834 59.912 Q 116.498 60.088 116.258 60.2 Z " fill="black" /><path d="M 130.599 56.088 L 130.599 56.088 L 134.967 49.528 Q 135.191 49.208 135.327 48.936 Q 135.463 48.664 135.463 48.472 Q 135.463 48.232 135.255 48.144 Q 135.047 48.056 134.503 48.056 L 134.535 47.576 L 137.991 47.576 L 137.959 48.056 Q 137.527 48.056 137.223 48.184 Q 136.919 48.312 136.607 48.672 Q 136.295 49.032 135.799 49.768 L 129.927 58.168 L 129.399 58.168 L 128.503 49.512 Q 128.407 48.712 128.151 48.384 Q 127.895 48.056 127.255 48.056 L 127.287 47.576 L 131.207 47.576 L 131.159 48.056 Q 130.551 48.056 130.199 48.296 Q 129.847 48.536 129.879 49.08 Q 129.879 49.16 129.903 49.368 Q 129.927 49.576 129.927 49.656 L 130.407 54.216 L 130.519 56.088 Z " fill="black" /><path d="M 144.66 57.864 L 144.66 57.864 L 144.66 58.312 Q 144.324 58.312 144.15 58.385 Q 143.977 58.458 143.915 58.654 Q 143.853 58.85 143.853 59.23 L 143.853 60.731 Q 143.461 60.966 143.025 61.157 Q 142.588 61.347 142.039 61.465 Q 141.49 61.582 140.762 61.582 Q 138.869 61.582 137.85 60.552 Q 136.831 59.522 136.831 57.562 Q 136.831 56.251 137.352 55.322 Q 137.873 54.392 138.785 53.905 Q 139.698 53.418 140.874 53.418 Q 141.535 53.418 141.921 53.524 Q 142.308 53.63 142.526 53.742 Q 142.745 53.854 142.89 53.854 Q 143.013 53.854 143.097 53.748 Q 143.181 53.642 143.327 53.44 L 143.73 53.44 L 143.73 56.229 L 143.26 56.229 Q 143.047 55.042 142.448 54.526 Q 141.849 54.011 140.841 54.011 Q 139.989 54.011 139.407 54.431 Q 138.825 54.851 138.533 55.607 Q 138.242 56.363 138.242 57.394 Q 138.242 59.152 138.959 60.065 Q 139.676 60.978 140.953 60.978 Q 141.501 60.978 141.905 60.81 Q 142.308 60.642 142.644 60.362 L 142.644 59.309 Q 142.644 58.894 142.577 58.682 Q 142.509 58.469 142.291 58.39 Q 142.073 58.312 141.625 58.312 L 141.625 57.864 Z " fill="black" /><path d="M 150.898 55.859 L 150.898 55.859 L 150.461 55.859 Q 150.305 55.277 150.075 54.857 Q 149.845 54.437 149.465 54.202 Q 149.084 53.966 148.468 53.966 Q 147.885 53.966 147.538 54.258 Q 147.191 54.549 147.191 55.075 Q 147.191 55.546 147.488 55.876 Q 147.785 56.206 148.249 56.47 Q 148.714 56.733 149.241 56.996 Q 149.767 57.259 150.232 57.584 Q 150.697 57.909 150.993 58.357 Q 151.29 58.805 151.29 59.454 Q 151.29 60.149 150.965 60.63 Q 150.641 61.112 150.081 61.358 Q 149.521 61.605 148.815 61.605 Q 148.177 61.605 147.779 61.515 Q 147.381 61.426 147.146 61.336 Q 146.911 61.246 146.754 61.246 Q 146.62 61.246 146.525 61.342 Q 146.429 61.437 146.418 61.627 L 145.925 61.627 L 145.925 58.95 L 146.362 58.95 Q 146.575 59.734 146.838 60.182 Q 147.101 60.63 147.516 60.815 Q 147.93 61 148.58 61 Q 149.252 61 149.655 60.737 Q 150.058 60.474 150.058 59.768 Q 150.058 59.286 149.773 58.95 Q 149.487 58.614 149.033 58.351 Q 148.58 58.088 148.07 57.83 Q 147.561 57.573 147.107 57.259 Q 146.653 56.946 146.368 56.503 Q 146.082 56.061 146.082 55.422 Q 146.082 54.773 146.407 54.33 Q 146.732 53.888 147.264 53.664 Q 147.796 53.44 148.412 53.44 Q 148.972 53.44 149.291 53.535 Q 149.61 53.63 149.789 53.726 Q 149.969 53.821 150.092 53.821 Q 150.26 53.821 150.344 53.748 Q 150.428 53.675 150.473 53.474 L 150.898 53.474 Z " fill="black" /><path d="M 153.049 60.2 L 153.049 60.2 L 152.857 59.8 Q 153.161 59.672 153.465 59.472 Q 153.769 59.272 153.977 58.888 Q 154.185 58.504 154.185 57.864 Q 153.929 57.96 153.689 57.96 Q 153.225 57.96 153.017 57.704 Q 152.809 57.448 152.809 57.096 Q 152.809 56.712 153.065 56.432 Q 153.321 56.152 153.801 56.152 Q 154.409 56.152 154.721 56.528 Q 155.033 56.904 155.033 57.56 Q 155.033 58.232 154.817 58.696 Q 154.601 59.16 154.281 59.448 Q 153.961 59.736 153.625 59.912 Q 153.289 60.088 153.049 60.2 Z " fill="black" /><path d="M 167.39 56.088 L 167.39 56.088 L 171.758 49.528 Q 171.982 49.208 172.118 48.936 Q 172.254 48.664 172.254 48.472 Q 172.254 48.232 172.046 48.144 Q 171.838 48.056 171.294 48.056 L 171.326 47.576 L 174.782 47.576 L 174.75 48.056 Q 174.318 48.056 174.014 48.184 Q 173.71 48.312 173.398 48.672 Q 173.086 49.032 172.59 49.768 L 166.718 58.168 L 166.19 58.168 L 165.294 49.512 Q 165.198 48.712 164.942 48.384 Q 164.686 48.056 164.046 48.056 L 164.078 47.576 L 167.998 47.576 L 167.95 48.056 Q 167.342 48.056 166.99 48.296 Q 166.638 48.536 166.67 49.08 Q 166.67 49.16 166.694 49.368 Q 166.718 49.576 166.718 49.656 L 167.198 54.216 L 167.31 56.088 Z " fill="black" /><path d="M 173.521 53.574 L 173.521 53.574 L 176.915 53.574 Q 177.811 53.574 178.628 53.77 Q 179.446 53.966 180.09 54.414 Q 180.734 54.862 181.109 55.613 Q 181.484 56.363 181.484 57.483 Q 181.484 58.536 181.143 59.292 Q 180.801 60.048 180.185 60.524 Q 179.569 61 178.751 61.224 Q 177.934 61.448 176.982 61.448 L 173.521 61.448 L 173.521 61.022 Q 174.047 61.022 174.294 60.944 Q 174.54 60.866 174.613 60.625 Q 174.686 60.384 174.686 59.891 L 174.686 55.03 Q 174.686 54.571 174.579 54.353 Q 174.473 54.134 174.221 54.067 Q 173.969 54 173.521 54 Z M 175.884 54.134 L 175.884 54.134 L 175.884 60.91 Q 176.063 60.922 176.237 60.927 Q 176.411 60.933 176.579 60.933 Q 177.687 60.933 178.466 60.642 Q 179.244 60.35 179.653 59.622 Q 180.062 58.894 180.062 57.584 Q 180.062 55.904 179.205 55.014 Q 178.348 54.123 176.489 54.123 Q 176.332 54.123 176.187 54.123 Q 176.041 54.123 175.884 54.134 Z " fill="black" /><path d="M 187.947 55.859 L 187.947 55.859 L 187.51 55.859 Q 187.353 55.277 187.123 54.857 Q 186.894 54.437 186.513 54.202 Q 186.132 53.966 185.516 53.966 Q 184.934 53.966 184.587 54.258 Q 184.239 54.549 184.239 55.075 Q 184.239 55.546 184.536 55.876 Q 184.833 56.206 185.298 56.47 Q 185.763 56.733 186.289 56.996 Q 186.815 57.259 187.28 57.584 Q 187.745 57.909 188.042 58.357 Q 188.339 58.805 188.339 59.454 Q 188.339 60.149 188.014 60.63 Q 187.689 61.112 187.129 61.358 Q 186.569 61.605 185.863 61.605 Q 185.225 61.605 184.827 61.515 Q 184.43 61.426 184.195 61.336 Q 183.959 61.246 183.803 61.246 Q 183.668 61.246 183.573 61.342 Q 183.478 61.437 183.467 61.627 L 182.974 61.627 L 182.974 58.95 L 183.411 58.95 Q 183.623 59.734 183.887 60.182 Q 184.15 60.63 184.564 60.815 Q 184.979 61 185.628 61 Q 186.3 61 186.703 60.737 Q 187.107 60.474 187.107 59.768 Q 187.107 59.286 186.821 58.95 Q 186.535 58.614 186.082 58.351 Q 185.628 58.088 185.119 57.83 Q 184.609 57.573 184.155 57.259 Q 183.702 56.946 183.416 56.503 Q 183.131 56.061 183.131 55.422 Q 183.131 54.773 183.455 54.33 Q 183.78 53.888 184.312 53.664 Q 184.844 53.44 185.46 53.44 Q 186.02 53.44 186.339 53.535 Q 186.659 53.63 186.838 53.726 Q 187.017 53.821 187.14 53.821 Q 187.308 53.821 187.392 53.748 Q 187.476 53.675 187.521 53.474 L 187.947 53.474 Z " fill="black" /><path d="M 190.097 60.2 L 190.097 60.2 L 189.905 59.8 Q 190.209 59.672 190.513 59.472 Q 190.817 59.272 191.025 58.888 Q 191.233 58.504 191.233 57.864 Q 190.977 57.96 190.737 57.96 Q 190.273 57.96 190.065 57.704 Q 189.857 57.448 189.857 57.096 Q 189.857 56.712 190.113 56.432 Q 190.369 56.152 190.849 56.152 Q 191.457 56.152 191.769 56.528 Q 192.081 56.904 192.081 57.56 Q 192.081 58.232 191.865 58.696 Q 191.649 59.16 191.329 59.448 Q 191.009 59.736 190.673 59.912 Q 190.337 60.088 190.097 60.2 Z " fill="black" /><path d="M 204.438 56.088 L 204.438 56.088 L 208.806 49.528 Q 209.03 49.208 209.166 48.936 Q 209.302 48.664 209.302 48.472 Q 209.302 48.232 209.094 48.144 Q 208.886 48.056 208.342 48.056 L 208.374 47.576 L 211.83 47.576 L 211.798 48.056 Q 211.366 48.056 211.062 48.184 Q 210.758 48.312 210.446 48.672 Q 210.134 49.032 209.638 49.768 L 203.766 58.168 L 203.238 58.168 L 202.342 49.512 Q 202.246 48.712 201.99 48.384 Q 201.734 48.056 201.094 48.056 L 201.126 47.576 L 205.046 47.576 L 204.998 48.056 Q 204.39 48.056 204.038 48.296 Q 203.686 48.536 203.718 49.08 Q 203.718 49.16 203.742 49.368 Q 203.766 49.576 203.766 49.656 L 204.246 54.216 L 204.358 56.088 Z " fill="black" /><path d="M 215.677 55.859 L 215.677 55.859 L 215.24 55.859 Q 215.083 55.277 214.854 54.857 Q 214.624 54.437 214.243 54.202 Q 213.862 53.966 213.246 53.966 Q 212.664 53.966 212.317 54.258 Q 211.97 54.549 211.97 55.075 Q 211.97 55.546 212.266 55.876 Q 212.563 56.206 213.028 56.47 Q 213.493 56.733 214.019 56.996 Q 214.546 57.259 215.01 57.584 Q 215.475 57.909 215.772 58.357 Q 216.069 58.805 216.069 59.454 Q 216.069 60.149 215.744 60.63 Q 215.419 61.112 214.859 61.358 Q 214.299 61.605 213.594 61.605 Q 212.955 61.605 212.558 61.515 Q 212.16 61.426 211.925 61.336 Q 211.69 61.246 211.533 61.246 Q 211.398 61.246 211.303 61.342 Q 211.208 61.437 211.197 61.627 L 210.704 61.627 L 210.704 58.95 L 211.141 58.95 Q 211.354 59.734 211.617 60.182 Q 211.88 60.63 212.294 60.815 Q 212.709 61 213.358 61 Q 214.03 61 214.434 60.737 Q 214.837 60.474 214.837 59.768 Q 214.837 59.286 214.551 58.95 Q 214.266 58.614 213.812 58.351 Q 213.358 58.088 212.849 57.83 Q 212.339 57.573 211.886 57.259 Q 211.432 56.946 211.146 56.503 Q 210.861 56.061 210.861 55.422 Q 210.861 54.773 211.186 54.33 Q 211.51 53.888 212.042 53.664 Q 212.574 53.44 213.19 53.44 Q 213.75 53.44 214.07 53.535 Q 214.389 53.63 214.568 53.726 Q 214.747 53.821 214.87 53.821 Q 215.038 53.821 215.122 53.748 Q 215.206 53.675 215.251 53.474 L 215.677 53.474 Z " fill="black" /><path d="M 221.949 57.259 L 221.949 57.259 L 221.949 57.326 Q 222.475 57.405 222.957 57.634 Q 223.438 57.864 223.752 58.278 Q 224.066 58.693 224.066 59.331 Q 224.066 60.362 223.282 60.905 Q 222.498 61.448 221.176 61.448 L 217.312 61.448 L 217.312 61.022 Q 217.816 61.022 218.057 60.938 Q 218.298 60.854 218.37 60.597 Q 218.443 60.339 218.443 59.835 L 218.443 55.109 Q 218.443 54.616 218.365 54.381 Q 218.286 54.146 218.046 54.073 Q 217.805 54 217.312 54 L 217.312 53.574 L 220.571 53.574 Q 222.206 53.574 222.929 54.084 Q 223.651 54.594 223.651 55.523 Q 223.651 56.285 223.181 56.671 Q 222.71 57.058 221.949 57.259 Z M 219.619 57.674 L 219.619 57.674 L 219.619 60.922 Q 219.854 60.933 220.084 60.933 Q 220.314 60.933 220.538 60.933 Q 220.896 60.933 221.277 60.894 Q 221.658 60.854 221.982 60.703 Q 222.307 60.552 222.503 60.227 Q 222.699 59.902 222.699 59.342 Q 222.699 58.693 222.391 58.334 Q 222.083 57.976 221.585 57.825 Q 221.086 57.674 220.515 57.674 Z M 219.619 57.091 L 219.619 57.091 L 220.515 57.091 Q 221.568 57.091 221.977 56.722 Q 222.386 56.352 222.386 55.602 Q 222.386 54.829 221.898 54.47 Q 221.411 54.112 220.347 54.112 Q 220.168 54.112 219.989 54.118 Q 219.81 54.123 219.619 54.134 Z " fill="black" /><path d="M 229.472 53.768 L 229.472 53.768 Q 229.472 56.44 228.312 58.328 Q 227.152 60.216 225.216 61.224 L 224.96 60.808 Q 226.72 59.624 227.44 57.92 Q 228.16 56.216 228.16 53.768 Q 228.16 51.32 227.44 49.616 Q 226.72 47.912 224.96 46.728 L 225.216 46.312 Q 227.152 47.32 228.312 49.208 Q 229.472 51.096 229.472 53.768 Z " fill="black" /></g></g></g><circle cx="324.0" cy="-0.0" r="2.6999999999999997" style="stroke:black;fill:black;stroke-width:2.0;stroke-dasharray:-;" /><circle cx="324.0" cy="108.0" r="2.6999999999999997" style="stroke:black;fill:black;stroke-width:2.0;stroke-dasharray:-;" /><g><g><g><path d="M 288.309 56.71 L 288.309 56.71 L 288.597 57.014 Q 287.781 57.974 286.709 58.59 Q 285.637 59.206 284.117 59.206 Q 282.677 59.206 281.813 58.67 Q 280.949 58.134 280.573 57.238 Q 280.197 56.342 280.197 55.286 Q 280.197 53.606 280.709 52.302 Q 281.221 50.998 282.109 50.11 Q 282.997 49.222 284.117 48.766 Q 285.237 48.31 286.453 48.31 Q 287.269 48.31 287.725 48.454 Q 288.181 48.598 288.437 48.75 Q 288.693 48.902 288.885 48.902 Q 289.077 48.902 289.221 48.742 Q 289.365 48.582 289.557 48.326 L 290.021 48.326 L 289.269 51.99 L 288.741 51.99 Q 288.805 50.39 288.149 49.694 Q 287.493 48.998 286.309 48.998 Q 285.381 48.998 284.565 49.422 Q 283.749 49.846 283.117 50.622 Q 282.485 51.398 282.125 52.478 Q 281.765 53.558 281.765 54.886 Q 281.765 56.486 282.525 57.326 Q 283.285 58.166 284.869 58.166 Q 286.709 58.166 288.309 56.71 Z " fill="black" /><path d="M 290.136 54.516 L 290.136 54.516 L 293.53 54.516 Q 294.426 54.516 295.243 54.712 Q 296.061 54.908 296.705 55.356 Q 297.349 55.804 297.724 56.555 Q 298.099 57.305 298.099 58.425 Q 298.099 59.478 297.758 60.234 Q 297.416 60.99 296.8 61.466 Q 296.184 61.942 295.366 62.166 Q 294.549 62.39 293.597 62.39 L 290.136 62.39 L 290.136 61.964 Q 290.662 61.964 290.909 61.886 Q 291.155 61.808 291.228 61.567 Q 291.301 61.326 291.301 60.833 L 291.301 55.972 Q 291.301 55.513 291.194 55.295 Q 291.088 55.076 290.836 55.009 Q 290.584 54.942 290.136 54.942 Z M 292.499 55.076 L 292.499 55.076 L 292.499 61.852 Q 292.678 61.864 292.852 61.869 Q 293.026 61.875 293.194 61.875 Q 294.302 61.875 295.081 61.584 Q 295.859 61.292 296.268 60.564 Q 296.677 59.836 296.677 58.526 Q 296.677 56.846 295.82 55.956 Q 294.963 55.065 293.104 55.065 Q 292.947 55.065 292.802 55.065 Q 292.656 55.065 292.499 55.076 Z " fill="black" /><path d="M 304.069 58.201 L 304.069 58.201 L 304.069 58.268 Q 304.595 58.347 305.077 58.576 Q 305.558 58.806 305.872 59.22 Q 306.186 59.635 306.186 60.273 Q 306.186 61.304 305.402 61.847 Q 304.618 62.39 303.296 62.39 L 299.432 62.39 L 299.432 61.964 Q 299.936 61.964 300.177 61.88 Q 300.418 61.796 300.49 61.539 Q 300.563 61.281 300.563 60.777 L 300.563 56.051 Q 300.563 55.558 300.485 55.323 Q 300.406 55.088 300.166 55.015 Q 299.925 54.942 299.432 54.942 L 299.432 54.516 L 302.691 54.516 Q 304.326 54.516 305.049 55.026 Q 305.771 55.536 305.771 56.465 Q 305.771 57.227 305.301 57.613 Q 304.83 58 304.069 58.201 Z M 301.739 58.616 L 301.739 58.616 L 301.739 61.864 Q 301.974 61.875 302.204 61.875 Q 302.434 61.875 302.658 61.875 Q 303.016 61.875 303.397 61.836 Q 303.778 61.796 304.102 61.645 Q 304.427 61.494 304.623 61.169 Q 304.819 60.844 304.819 60.284 Q 304.819 59.635 304.511 59.276 Q 304.203 58.918 303.705 58.767 Q 303.206 58.616 302.635 58.616 Z M 301.739 58.033 L 301.739 58.033 L 302.635 58.033 Q 303.688 58.033 304.097 57.664 Q 304.506 57.294 304.506 56.544 Q 304.506 55.771 304.018 55.412 Q 303.531 55.054 302.467 55.054 Q 302.288 55.054 302.109 55.06 Q 301.93 55.065 301.739 55.076 Z " fill="black" /></g></g></g><g><g><g><path d="M 285.147 83.781 L 285.147 83.781 L 285.435 84.085 Q 284.619 85.045 283.547 85.661 Q 282.475 86.277 280.955 86.277 Q 279.515 86.277 278.651 85.741 Q 277.787 85.205 277.411 84.309 Q 277.035 83.413 277.035 82.357 Q 277.035 80.677 277.547 79.373 Q 278.059 78.069 278.947 77.181 Q 279.835 76.293 280.955 75.837 Q 282.075 75.381 283.291 75.381 Q 284.107 75.381 284.563 75.525 Q 285.019 75.669 285.275 75.821 Q 285.531 75.973 285.723 75.973 Q 285.915 75.973 286.059 75.813 Q 286.203 75.653 286.395 75.397 L 286.859 75.397 L 286.107 79.061 L 285.579 79.061 Q 285.643 77.461 284.987 76.765 Q 284.331 76.069 283.147 76.069 Q 282.219 76.069 281.403 76.493 Q 280.587 76.917 279.955 77.693 Q 279.323 78.469 278.963 79.549 Q 278.603 80.629 278.603 81.957 Q 278.603 83.557 279.363 84.397 Q 280.123 85.237 281.707 85.237 Q 283.547 85.237 285.147 83.781 Z " fill="black" /><path d="M 292.082 83.872 L 292.082 83.872 L 291.645 83.872 Q 291.488 83.29 291.258 82.87 Q 291.029 82.45 290.648 82.214 Q 290.267 81.979 289.651 81.979 Q 289.069 81.979 288.722 82.27 Q 288.374 82.562 288.374 83.088 Q 288.374 83.558 288.671 83.889 Q 288.968 84.219 289.433 84.482 Q 289.898 84.746 290.424 85.009 Q 290.95 85.272 291.415 85.597 Q 291.88 85.922 292.177 86.37 Q 292.474 86.818 292.474 87.467 Q 292.474 88.162 292.149 88.643 Q 291.824 89.125 291.264 89.371 Q 290.704 89.618 289.998 89.618 Q 289.36 89.618 288.962 89.528 Q 288.565 89.438 288.33 89.349 Q 288.094 89.259 287.938 89.259 Q 287.803 89.259 287.708 89.354 Q 287.613 89.45 287.602 89.64 L 287.109 89.64 L 287.109 86.963 L 287.546 86.963 Q 287.758 87.747 288.022 88.195 Q 288.285 88.643 288.699 88.828 Q 289.114 89.013 289.763 89.013 Q 290.435 89.013 290.838 88.75 Q 291.242 88.486 291.242 87.781 Q 291.242 87.299 290.956 86.963 Q 290.67 86.627 290.217 86.364 Q 289.763 86.101 289.254 85.843 Q 288.744 85.586 288.29 85.272 Q 287.837 84.958 287.551 84.516 Q 287.266 84.074 287.266 83.435 Q 287.266 82.786 287.59 82.343 Q 287.915 81.901 288.447 81.677 Q 288.979 81.453 289.595 81.453 Q 290.155 81.453 290.474 81.548 Q 290.794 81.643 290.973 81.738 Q 291.152 81.834 291.275 81.834 Q 291.443 81.834 291.527 81.761 Q 291.611 81.688 291.656 81.486 L 292.082 81.486 Z " fill="black" /><path d="M 298.354 85.272 L 298.354 85.272 L 298.354 85.339 Q 298.88 85.418 299.362 85.647 Q 299.843 85.877 300.157 86.291 Q 300.47 86.706 300.47 87.344 Q 300.47 88.374 299.686 88.918 Q 298.902 89.461 297.581 89.461 L 293.717 89.461 L 293.717 89.035 Q 294.221 89.035 294.462 88.951 Q 294.702 88.867 294.775 88.61 Q 294.848 88.352 294.848 87.848 L 294.848 83.122 Q 294.848 82.629 294.77 82.394 Q 294.691 82.158 294.45 82.086 Q 294.21 82.013 293.717 82.013 L 293.717 81.587 L 296.976 81.587 Q 298.611 81.587 299.334 82.097 Q 300.056 82.606 300.056 83.536 Q 300.056 84.298 299.586 84.684 Q 299.115 85.07 298.354 85.272 Z M 296.024 85.686 L 296.024 85.686 L 296.024 88.934 Q 296.259 88.946 296.489 88.946 Q 296.718 88.946 296.942 88.946 Q 297.301 88.946 297.682 88.906 Q 298.062 88.867 298.387 88.716 Q 298.712 88.565 298.908 88.24 Q 299.104 87.915 299.104 87.355 Q 299.104 86.706 298.796 86.347 Q 298.488 85.989 297.99 85.838 Q 297.491 85.686 296.92 85.686 Z M 296.024 85.104 L 296.024 85.104 L 296.92 85.104 Q 297.973 85.104 298.382 84.734 Q 298.79 84.365 298.79 83.614 Q 298.79 82.842 298.303 82.483 Q 297.816 82.125 296.752 82.125 Q 296.573 82.125 296.394 82.13 Q 296.214 82.136 296.024 82.147 Z " fill="black" /></g></g></g><circle cx="324.0" cy="180.0" r="2.6999999999999997" style="stroke:black;fill:white;stroke-width:2.0;stroke-dasharray:-;" /><g><g><g><path d="M 321.4 196.812 L 321.4 196.812 L 321.4 186.3 L 324.584 186.3 Q 325.688 186.3 326.52 186.556 Q 327.352 186.812 327.816 187.372 Q 328.28 187.932 328.28 188.828 Q 328.28 189.66 327.872 190.292 Q 327.464 190.924 326.712 191.164 L 326.712 191.228 Q 327.672 191.404 328.288 192.028 Q 328.904 192.652 328.904 193.772 Q 328.904 194.78 328.384 195.452 Q 327.864 196.124 326.952 196.468 Q 326.04 196.812 324.84 196.812 Z M 322.776 195.724 L 322.776 195.724 L 324.632 195.724 Q 326.008 195.724 326.784 195.236 Q 327.56 194.748 327.56 193.724 Q 327.56 192.732 326.816 192.276 Q 326.072 191.82 324.632 191.82 L 322.776 191.82 Z M 322.776 190.78 L 322.776 190.78 L 324.36 190.78 Q 325.752 190.78 326.344 190.308 Q 326.936 189.836 326.936 189.036 Q 326.936 188.14 326.288 187.764 Q 325.64 187.388 324.424 187.388 L 322.776 187.388 Z " fill="black" /></g></g></g><circle cx="360.0" cy="-0.0" r="2.6999999999999997" style="stroke:black;fill:white;stroke-width:2.0;stroke-dasharray:-;" /><g><g><g><path d="M 367.772 5.256 L 367.772 5.256 L 367.772 -5.256 L 370.46 -5.256 Q 372.94 -5.256 374.236 -3.904 Q 375.532 -2.552 375.532 -0.04 Q 375.532 2.472 374.244 3.864 Q 372.956 5.256 370.524 5.256 Z M 369.148 4.136 L 369.148 4.136 L 370.364 4.136 Q 372.252 4.136 373.188 3.04 Q 374.124 1.944 374.124 -0.04 Q 374.124 -2.024 373.188 -3.08 Q 372.252 -4.136 370.364 -4.136 L 369.148 -4.136 Z " fill="black" /></g></g></g></svg>