<svg xmlns="http://www.w3.org/2000/svg" xmlns:xlink="http://www.w3.org/1999/xlink" xml:lang="en" height="266.24pt" width="315.20000000000005pt" viewBox="-85.6 -94.60000000000002 315.20000000000005 266.24"><circle cx="107.99999999999999" cy="108.0" r="18.0" style="stroke:black;fill:none;stroke-width:2.0;stroke-dasharray:-;" /><circle cx="108.0" cy="36.0" r="18.0" style="stroke:black;fill:none;stroke-width:2.0;stroke-dasharray:-;" /><path d="M 0.0,-0.0 L -36.0,-4.408728476930472e-15 L -72.0,-8.817456953860943e-15" style="stroke:black;fill:none;stroke-width:2.0;stroke-dasharray:-;stroke-linecap:round;stroke-linejoin:round;" /><path d="M -72.0,-8.817456953860943e-15 L -72.0,14.399999999999993 L -81.0,14.399999999999993 L -63.0,14.399999999999993 M -78.3,18.71999999999999 L -65.7,18.71999999999999 M -73.8,23.039999999999992 L -70.2,23.039999999999992" style="stroke:black;fill:none;stroke-width:2.0;stroke-dasharray:-;stroke-linecap:round;stroke-linejoin:round;" /><path d="M -1.3226185430791413e-14,72.0 L 53.999999999999986,72.0 L 107.99999999999999,72.0" style="stroke:black;fill:none;stroke-width:2.0;stroke-dasharray:-;stroke-linecap:round;stroke-linejoin:round;" /><path d="M 107.99999999999999,72.0 L 107.99999999999999,90.0 L 107.99999999999999,90.0 M 107.99999999999997,126.0 L 107.99999999999997,126.0 L 107.99999999999997,144.0" style="stroke:black;fill:none;stroke-width:2.0;stroke-dasharray:-;stroke-linecap:round;stroke-linejoin:round;" /><path d="M 107.99999999999999,108.0 L 107.99999999999997,117.0" style="stroke:black;fill:none;stroke-width:2.0;stroke-dasharray:-;stroke-linecap:round;stroke-linejoin:round;" /><path d="M 107.99999999999999 101.0 L 110.69999999999997 108.0 L 105.29999999999998 108.0 Z" style="stroke:black;fill:black;stroke-linecap:butt;stroke-linejoin:miter;" /><path d="M 107.99999999999997,144.0 L 107.99999999999997,158.4 L 98.99999999999997,158.4 L 116.99999999999997,158.4 M 101.69999999999997,162.71999999999997 L 114.29999999999995,162.71999999999997 M 106.19999999999997,167.04 L 109.79999999999995,167.04" style="stroke:black;fill:none;stroke-width:2.0;stroke-dasharray:-;stroke-linecap:round;stroke-linejoin:round;" /><path d="M 108.0,-0.0 L 108.0,18.0 L 108.0,18.0 M 107.99999999999999,54.0 L 107.99999999999999,54.0 L 107.99999999999999,72.0" style="stroke:black;fill:none;stroke-width:2.0;stroke-dasharray:-;stroke-linecap:round;stroke-linejoin:round;" /><path d="M 108.0,27.0 L 107.99999999999999,36.0" style="stroke:black;fill:none;stroke-width:2.0;stroke-dasharray:-;stroke-linecap:round;stroke-linejoin:round;" /><path d="M 107.99999999999999 43.0 L 105.3 36.0 L 110.69999999999999 36.0 Z" style="stroke:black;fill:black;stroke-linecap:butt;stroke-linejoin:miter;" /><path d="M 107.99999999999999,72.0 L 162.0,72.0 L 216.0,72.0" style="stroke:black;fill:none;stroke-width:2.0;stroke-dasharray:-;stroke-linecap:round;stroke-linejoin:round;" /><path d="M 216.0,72.0 L 216.0,54.0 L 207.0,50.99999999999999 L 225.0,45.0 L 207.0,39.00000000000001 L 225.0,33.0 L 207.0,27.0 L 225.0,21.000000000000007 L 216.0,18.0 L 216.0,-0.0" style="stroke:black;fill:none;stroke-width:2.0;stroke-dasharray:-;stroke-linecap:round;stroke-linejoin:round;" /><path d="M 216.0,-0.0 L 162.0,-6.613092715395707e-15 L 108.0,-1.3226185430791413e-14" style="stroke:black;fill:none;stroke-width:2.0;stroke-dasharray:-;stroke-linecap:round;stroke-linejoin:round;" /><path d="M 108.0,-1.3226185430791413e-14 L 108.0,-18.00000000000001 L 99.0,-21.000000000000014 L 117.0,-27.00000000000001 L 99.0,-33.000000000000014 L 117.0,-39.000000000000014 L 99.0,-45.000000000000014 L 117.0,-51.000000000000014 L 108.0,-54.000000000000014 L 108.0,-72.00000000000001" style="stroke:black;fill:none;stroke-width:2.0;stroke-dasharray:-;stroke-linecap:round;stroke-linejoin:round;" /><path d="M 108.0,-72.00000000000001 L 108.0,-81.00000000000001 L 108.0,-90.00000000000001" style="stroke:black;fill:none;stroke-width:2.0;stroke-dasharray:-;stroke-linecap:round;stroke-linejoin:round;" /><path d="M 108.0,-90.00000000000001 L 126.0,-90.00000000000001 L 144.0,-90.00000000000001" style="stroke:black;fill:none;stroke-width:2.0;stroke-dasharray:-;stroke-linecap:round;stroke-linejoin:round;" /><path d="M 144.0,-90.00000000000001 L 144.0,-75.60000000000002 L 135.0,-75.60000000000002 L 153.0,-75.60000000000002 M 137.70000000000002,-71.28000000000002 L 150.29999999999998,-71.28000000000002 M 142.20000000000002,-66.96000000000001 L 145.79999999999998,-66.96000000000001" style="stroke:black;fill:none;stroke-width:2.0;stroke-dasharray:-;stroke-linecap:round;stroke-linejoin:round;" /><circle cx="0.0" cy="-0.0" r="2.6999999999999997" style="stroke:black;fill:white;stroke-width:2.0;stroke-dasharray:-;" /><g><g><g><path d="M 5.264 18.544 L 5.264 18.544 L 1.072 18.544 L 1.072 22.784 L -0.08 22.784 L -0.08 18.544 L -4.272 18.544 L -4.272 17.456 L -0.08 17.456 L -0.08 13.216 L 1.072 13.216 L 1.072 17.456 L 5.264 17.456 Z " fill="black" /></g></g></g><g><g><g><path d="M -4.995 36.154 L -4.995 36.154 L -0.627 29.594 Q -0.403 29.274 -0.267 29.002 Q -0.131 28.73 -0.131 28.538 Q -0.131 28.298 -0.339 28.21 Q -0.547 28.122 -1.091 28.122 L -1.059 27.642 L 2.397 27.642 L 2.365 28.122 Q 1.933 28.122 1.629 28.25 Q 1.325 28.378 1.013 28.738 Q 0.701 29.098 0.205 29.834 L -5.667 38.234 L -6.195 38.234 L -7.091 29.578 Q -7.187 28.778 -7.443 28.45 Q -7.699 28.122 -8.339 28.122 L -8.307 27.642 L -4.387 27.642 L -4.435 28.122 Q -5.043 28.122 -5.395 28.362 Q -5.747 28.602 -5.715 29.146 Q -5.715 29.226 -5.691 29.434 Q -5.667 29.642 -5.667 29.722 L -5.187 34.282 L -5.075 36.154 Z " fill="black" /><path d="M 0.48 39.262 L 0.48 39.262 L 0.48 39.218 Q 0.088 38.982 -0.186 38.607 Q -0.461 38.232 -0.461 37.638 Q -0.461 37.011 -0.158 36.563 Q 0.144 36.115 0.659 35.874 Q 1.174 35.634 1.813 35.634 Q 2.406 35.634 2.782 35.762 Q 3.157 35.891 3.157 35.891 L 4.803 35.846 L 4.803 36.507 L 3.627 36.485 L 3.627 36.563 Q 3.773 36.765 3.93 37.039 Q 4.086 37.314 4.086 37.806 Q 4.086 38.366 3.79 38.775 Q 3.493 39.184 2.994 39.402 Q 2.496 39.621 1.869 39.621 Q 1.298 39.621 0.794 39.419 Q 0.715 39.565 0.609 39.834 Q 0.502 40.102 0.502 40.293 Q 0.502 40.528 0.777 40.64 Q 1.051 40.752 1.869 40.752 Q 2.474 40.752 2.989 40.78 Q 3.504 40.808 3.885 40.937 Q 4.266 41.066 4.473 41.351 Q 4.68 41.637 4.68 42.163 Q 4.68 42.768 4.372 43.188 Q 4.064 43.608 3.56 43.866 Q 3.056 44.123 2.468 44.241 Q 1.88 44.358 1.309 44.358 Q 0.491 44.358 0.043 44.157 Q -0.405 43.955 -0.578 43.642 Q -0.752 43.328 -0.752 43.003 Q -0.752 42.69 -0.534 42.382 Q -0.315 42.074 0.166 41.626 L 0.166 41.57 Q -0.114 41.424 -0.304 41.178 Q -0.494 40.931 -0.494 40.696 Q -0.494 40.36 -0.198 39.985 Q 0.099 39.61 0.48 39.262 Z M 0.536 41.682 L 0.536 41.682 Q 0.346 42.006 0.278 42.197 Q 0.211 42.387 0.211 42.578 Q 0.211 43.093 0.631 43.356 Q 1.051 43.619 1.936 43.619 Q 2.664 43.619 3.112 43.44 Q 3.56 43.261 3.773 43.009 Q 3.986 42.757 3.986 42.522 Q 3.986 42.219 3.79 42.051 Q 3.594 41.883 3.291 41.81 Q 2.989 41.738 2.653 41.715 Q 2.317 41.693 2.026 41.693 Q 1.947 41.693 1.902 41.693 Q 1.186 41.693 0.922 41.687 Q 0.659 41.682 0.536 41.682 Z M 1.746 36.126 L 1.746 36.126 Q 1.264 36.126 0.967 36.451 Q 0.67 36.776 0.67 37.571 Q 0.67 38.355 0.984 38.758 Q 1.298 39.162 1.869 39.162 Q 2.171 39.162 2.418 39.038 Q 2.664 38.915 2.815 38.59 Q 2.966 38.266 2.966 37.672 Q 2.966 36.91 2.636 36.518 Q 2.306 36.126 1.746 36.126 Z " fill="black" /><path d="M 5.789 39.475 L 5.789 39.475 L 6.147 39.475 Q 6.293 40.125 6.494 40.483 Q 6.696 40.842 7.015 40.982 Q 7.334 41.122 7.794 41.122 Q 8.32 41.122 8.606 40.948 Q 8.891 40.774 8.891 40.338 Q 8.891 40.046 8.751 39.85 Q 8.611 39.654 8.303 39.475 Q 7.995 39.296 7.48 39.061 Q 6.954 38.803 6.578 38.579 Q 6.203 38.355 6.007 38.053 Q 5.811 37.75 5.811 37.291 Q 5.811 36.485 6.354 36.059 Q 6.898 35.634 7.715 35.634 Q 8.208 35.634 8.55 35.757 Q 8.891 35.88 9.093 35.97 L 9.115 35.97 L 9.294 35.69 L 9.608 35.69 L 9.63 37.549 L 9.238 37.549 Q 9.026 36.686 8.645 36.39 Q 8.264 36.093 7.771 36.093 Q 7.256 36.093 6.993 36.317 Q 6.73 36.541 6.73 36.899 Q 6.73 37.19 6.909 37.381 Q 7.088 37.571 7.418 37.734 Q 7.749 37.896 8.208 38.12 Q 8.723 38.366 9.115 38.63 Q 9.507 38.893 9.731 39.223 Q 9.955 39.554 9.955 40.046 Q 9.955 40.64 9.642 40.998 Q 9.328 41.357 8.835 41.508 Q 8.342 41.659 7.805 41.659 Q 7.256 41.659 6.954 41.547 Q 6.651 41.435 6.394 41.334 L 6.349 41.334 L 6.069 41.626 L 5.811 41.626 Z " fill="black" /></g></g></g><g><g><g><rect x="-2.16" y="49.328" width="4.32" height="1.088" fill="black" /></g></g></g><circle cx="107.99999999999999" cy="72.0" r="2.6999999999999997" style="stroke:black;fill:black;stroke-width:2.0;stroke-dasharray:-;" /><circle cx="-1.3226185430791413e-14" cy="72.0" r="2.6999999999999997" style="stroke:black;fill:white;stroke-width:2.0;stroke-dasharray:-;" /><g><g><g><path d="M 70.123 109.48 L 70.123 109.48 L 71.435 103.176 Q 71.579 102.552 71.571 102.192 Q 71.563 101.832 71.275 101.688 Q 70.987 101.544 70.251 101.544 L 70.347 101.064 L 74.779 101.064 L 74.683 101.544 Q 73.979 101.544 73.627 101.688 Q 73.275 101.832 73.131 102.192 Q 72.987 102.552 72.859 103.176 L 71.547 109.544 Q 71.499 109.8 71.467 110.008 Q 71.435 110.216 71.435 110.392 Q 71.435 110.84 71.699 110.968 Q 71.963 111.096 72.715 111.096 L 72.619 111.576 L 68.251 111.576 L 68.347 111.096 Q 69.003 111.096 69.331 110.984 Q 69.659 110.872 69.819 110.528 Q 69.979 110.184 70.123 109.48 Z " fill="black" /><path d="M 78.195 114.522 L 78.195 114.522 L 78.195 114.936 L 75.35 114.936 L 75.35 114.522 Q 75.742 114.522 75.916 114.438 Q 76.09 114.354 76.134 114.169 Q 76.179 113.984 76.179 113.682 L 76.179 110.299 Q 76.179 109.918 76.056 109.84 Q 75.933 109.762 75.642 109.762 Q 75.496 109.762 75.406 109.773 Q 75.317 109.784 75.317 109.784 L 75.317 109.336 L 76.818 109.09 L 77.277 109.09 L 77.277 113.682 Q 77.277 114.006 77.327 114.191 Q 77.378 114.376 77.574 114.449 Q 77.77 114.522 78.195 114.522 Z M 76.717 106.614 L 76.717 106.614 Q 77.042 106.614 77.26 106.838 Q 77.478 107.062 77.478 107.354 Q 77.478 107.622 77.26 107.846 Q 77.042 108.07 76.717 108.07 Q 76.403 108.07 76.196 107.846 Q 75.989 107.622 75.989 107.354 Q 75.989 107.062 76.196 106.838 Q 76.403 106.614 76.717 106.614 Z " fill="black" /><path d="M 84.848 111.184 L 84.848 111.184 L 84.848 113.693 Q 84.848 114.006 84.904 114.191 Q 84.96 114.376 85.15 114.454 Q 85.341 114.533 85.744 114.533 L 85.744 114.936 L 82.866 114.936 L 82.866 114.533 Q 83.291 114.533 83.482 114.454 Q 83.672 114.376 83.717 114.191 Q 83.762 114.006 83.762 113.693 L 83.762 111.554 Q 83.762 110.803 83.588 110.45 Q 83.414 110.098 83.151 109.986 Q 82.888 109.874 82.619 109.874 Q 82.138 109.874 81.774 110.12 Q 81.41 110.366 81.141 110.59 L 81.141 113.693 Q 81.141 114.006 81.191 114.191 Q 81.242 114.376 81.432 114.454 Q 81.622 114.533 82.037 114.533 L 82.037 114.936 L 79.214 114.936 L 79.214 114.533 Q 79.606 114.533 79.78 114.454 Q 79.954 114.376 79.998 114.191 Q 80.043 114.006 80.043 113.693 L 80.043 110.288 Q 80.043 109.974 79.926 109.868 Q 79.808 109.762 79.55 109.762 Q 79.416 109.762 79.326 109.773 Q 79.237 109.784 79.237 109.784 L 79.237 109.358 L 80.738 109.09 L 81.107 109.09 L 81.107 110.008 L 81.186 110.008 Q 81.667 109.571 82.11 109.314 Q 82.552 109.056 83.112 109.056 Q 83.773 109.056 84.148 109.353 Q 84.523 109.65 84.686 110.131 Q 84.848 110.613 84.848 111.184 Z " fill="black" /></g></g></g><g><g><g><path d="M 55.226 30.682 L 55.226 30.682 L 55.13 31.498 L 53.738 31.338 L 53.738 31.386 Q 54.01 31.69 54.162 32.146 Q 54.314 32.602 54.314 33.018 Q 54.314 33.738 54.026 34.226 Q 53.738 34.714 53.274 35.01 Q 52.81 35.306 52.25 35.458 Q 51.69 35.61 51.162 35.658 Q 50.522 35.722 50.258 35.93 Q 49.994 36.138 49.994 36.362 Q 49.994 36.65 50.314 36.802 Q 50.634 36.954 51.138 37.05 Q 51.642 37.146 52.218 37.266 Q 52.794 37.386 53.298 37.594 Q 53.802 37.802 54.122 38.178 Q 54.442 38.554 54.442 39.178 Q 54.442 39.866 53.994 40.45 Q 53.546 41.034 52.666 41.394 Q 51.786 41.754 50.506 41.754 Q 49.354 41.754 48.666 41.474 Q 47.978 41.194 47.674 40.754 Q 47.37 40.314 47.37 39.834 Q 47.37 39.066 47.962 38.594 Q 48.554 38.122 49.306 37.882 L 49.306 37.818 Q 49.098 37.69 48.914 37.458 Q 48.73 37.226 48.73 36.858 Q 48.73 36.458 48.938 36.218 Q 49.146 35.978 49.474 35.826 Q 49.802 35.674 50.122 35.562 L 50.122 35.466 Q 49.498 35.194 49.034 34.698 Q 48.57 34.202 48.57 33.29 Q 48.57 32.458 48.97 31.826 Q 49.37 31.194 50.066 30.842 Q 50.762 30.49 51.626 30.49 Q 52.202 30.49 52.498 30.546 Q 52.794 30.602 53.082 30.682 Z M 53.29 39.77 L 53.29 39.77 Q 53.29 39.29 52.89 38.994 Q 52.49 38.698 51.898 38.522 Q 51.306 38.346 50.706 38.242 Q 50.106 38.138 49.69 38.058 Q 49.29 38.314 48.954 38.642 Q 48.618 38.97 48.618 39.594 Q 48.618 40.234 49.114 40.714 Q 49.61 41.194 50.826 41.194 Q 51.978 41.194 52.634 40.77 Q 53.29 40.346 53.29 39.77 Z M 52.89 32.842 L 52.89 32.842 Q 52.89 32.042 52.586 31.506 Q 52.282 30.97 51.578 30.97 Q 50.89 30.97 50.442 31.546 Q 49.994 32.122 49.994 33.29 Q 49.994 34.122 50.282 34.642 Q 50.57 35.162 51.258 35.162 Q 52.058 35.162 52.474 34.49 Q 52.89 33.818 52.89 32.842 Z " fill="black" /><path d="M 57.958 37.179 L 57.958 37.179 L 57.958 40.282 Q 57.958 40.618 58.026 40.797 Q 58.093 40.976 58.283 41.038 Q 58.474 41.099 58.843 41.099 L 58.843 41.514 L 56.021 41.514 L 56.021 41.099 Q 56.379 41.099 56.558 41.038 Q 56.738 40.976 56.794 40.791 Q 56.85 40.606 56.85 40.259 L 56.85 36.866 Q 56.85 36.552 56.732 36.446 Q 56.614 36.339 56.357 36.339 Q 56.234 36.339 56.138 36.35 Q 56.043 36.362 56.043 36.362 L 56.043 35.936 L 57.51 35.667 L 57.925 35.667 L 57.925 36.586 L 58.003 36.586 Q 58.474 36.16 58.944 35.897 Q 59.414 35.634 60.053 35.634 Q 60.579 35.634 60.91 35.902 Q 61.24 36.171 61.419 36.563 L 61.475 36.563 Q 62.494 35.634 63.435 35.634 Q 64.197 35.634 64.639 36.104 Q 65.082 36.574 65.082 37.594 L 65.082 40.058 Q 65.082 40.438 65.126 40.668 Q 65.171 40.898 65.35 40.998 Q 65.53 41.099 65.933 41.099 L 65.933 41.514 L 63.122 41.514 L 63.122 41.099 Q 63.536 41.099 63.721 40.993 Q 63.906 40.886 63.95 40.657 Q 63.995 40.427 63.995 40.058 L 63.995 37.728 Q 63.995 37.022 63.71 36.742 Q 63.424 36.462 62.976 36.462 Q 62.595 36.462 62.214 36.692 Q 61.834 36.922 61.542 37.146 L 61.542 40.058 Q 61.542 40.472 61.593 40.702 Q 61.643 40.931 61.839 41.015 Q 62.035 41.099 62.45 41.099 L 62.45 41.514 L 59.526 41.514 L 59.526 41.099 Q 59.952 41.099 60.148 41.015 Q 60.344 40.931 60.4 40.702 Q 60.456 40.472 60.456 40.058 L 60.456 37.694 Q 60.456 36.989 60.204 36.726 Q 59.952 36.462 59.515 36.462 Q 59.056 36.462 58.636 36.709 Q 58.216 36.955 57.958 37.179 Z " fill="black" /><path d="M 70.858 36.154 L 70.858 36.154 L 75.226 29.594 Q 75.45 29.274 75.586 29.002 Q 75.722 28.73 75.722 28.538 Q 75.722 28.298 75.514 28.21 Q 75.306 28.122 74.762 28.122 L 74.794 27.642 L 78.25 27.642 L 78.218 28.122 Q 77.786 28.122 77.482 28.25 Q 77.178 28.378 76.866 28.738 Q 76.554 29.098 76.058 29.834 L 70.186 38.234 L 69.658 38.234 L 68.762 29.578 Q 68.666 28.778 68.41 28.45 Q 68.154 28.122 67.514 28.122 L 67.546 27.642 L 71.466 27.642 L 71.418 28.122 Q 70.81 28.122 70.458 28.362 Q 70.106 28.602 70.138 29.146 Q 70.138 29.226 70.162 29.434 Q 70.186 29.642 70.186 29.722 L 70.666 34.282 L 70.778 36.154 Z " fill="black" /><path d="M 76.333 39.262 L 76.333 39.262 L 76.333 39.218 Q 75.941 38.982 75.666 38.607 Q 75.392 38.232 75.392 37.638 Q 75.392 37.011 75.694 36.563 Q 75.997 36.115 76.512 35.874 Q 77.027 35.634 77.666 35.634 Q 78.259 35.634 78.634 35.762 Q 79.01 35.891 79.01 35.891 L 80.656 35.846 L 80.656 36.507 L 79.48 36.485 L 79.48 36.563 Q 79.626 36.765 79.782 37.039 Q 79.939 37.314 79.939 37.806 Q 79.939 38.366 79.642 38.775 Q 79.346 39.184 78.847 39.402 Q 78.349 39.621 77.722 39.621 Q 77.15 39.621 76.646 39.419 Q 76.568 39.565 76.462 39.834 Q 76.355 40.102 76.355 40.293 Q 76.355 40.528 76.63 40.64 Q 76.904 40.752 77.722 40.752 Q 78.326 40.752 78.842 40.78 Q 79.357 40.808 79.738 40.937 Q 80.118 41.066 80.326 41.351 Q 80.533 41.637 80.533 42.163 Q 80.533 42.768 80.225 43.188 Q 79.917 43.608 79.413 43.866 Q 78.909 44.123 78.321 44.241 Q 77.733 44.358 77.162 44.358 Q 76.344 44.358 75.896 44.157 Q 75.448 43.955 75.274 43.642 Q 75.101 43.328 75.101 43.003 Q 75.101 42.69 75.319 42.382 Q 75.538 42.074 76.019 41.626 L 76.019 41.57 Q 75.739 41.424 75.549 41.178 Q 75.358 40.931 75.358 40.696 Q 75.358 40.36 75.655 39.985 Q 75.952 39.61 76.333 39.262 Z M 76.389 41.682 L 76.389 41.682 Q 76.198 42.006 76.131 42.197 Q 76.064 42.387 76.064 42.578 Q 76.064 43.093 76.484 43.356 Q 76.904 43.619 77.789 43.619 Q 78.517 43.619 78.965 43.44 Q 79.413 43.261 79.626 43.009 Q 79.838 42.757 79.838 42.522 Q 79.838 42.219 79.642 42.051 Q 79.446 41.883 79.144 41.81 Q 78.842 41.738 78.506 41.715 Q 78.17 41.693 77.878 41.693 Q 77.8 41.693 77.755 41.693 Q 77.038 41.693 76.775 41.687 Q 76.512 41.682 76.389 41.682 Z M 77.598 36.126 L 77.598 36.126 Q 77.117 36.126 76.82 36.451 Q 76.523 36.776 76.523 37.571 Q 76.523 38.355 76.837 38.758 Q 77.15 39.162 77.722 39.162 Q 78.024 39.162 78.27 39.038 Q 78.517 38.915 78.668 38.59 Q 78.819 38.266 78.819 37.672 Q 78.819 36.91 78.489 36.518 Q 78.158 36.126 77.598 36.126 Z " fill="black" /><path d="M 81.642 39.475 L 81.642 39.475 L 82 39.475 Q 82.146 40.125 82.347 40.483 Q 82.549 40.842 82.868 40.982 Q 83.187 41.122 83.646 41.122 Q 84.173 41.122 84.458 40.948 Q 84.744 40.774 84.744 40.338 Q 84.744 40.046 84.604 39.85 Q 84.464 39.654 84.156 39.475 Q 83.848 39.296 83.333 39.061 Q 82.806 38.803 82.431 38.579 Q 82.056 38.355 81.86 38.053 Q 81.664 37.75 81.664 37.291 Q 81.664 36.485 82.207 36.059 Q 82.75 35.634 83.568 35.634 Q 84.061 35.634 84.402 35.757 Q 84.744 35.88 84.946 35.97 L 84.968 35.97 L 85.147 35.69 L 85.461 35.69 L 85.483 37.549 L 85.091 37.549 Q 84.878 36.686 84.498 36.39 Q 84.117 36.093 83.624 36.093 Q 83.109 36.093 82.846 36.317 Q 82.582 36.541 82.582 36.899 Q 82.582 37.19 82.762 37.381 Q 82.941 37.571 83.271 37.734 Q 83.602 37.896 84.061 38.12 Q 84.576 38.366 84.968 38.63 Q 85.36 38.893 85.584 39.223 Q 85.808 39.554 85.808 40.046 Q 85.808 40.64 85.494 40.998 Q 85.181 41.357 84.688 41.508 Q 84.195 41.659 83.658 41.659 Q 83.109 41.659 82.806 41.547 Q 82.504 41.435 82.246 41.334 L 82.202 41.334 L 81.922 41.626 L 81.664 41.626 Z " fill="black" /></g></g></g><g><g><g><path d="M 156.302 63.04 L 156.302 63.04 L 160.67 56.48 Q 160.894 56.16 161.03 55.888 Q 161.166 55.616 161.166 55.424 Q 161.166 55.184 160.958 55.096 Q 160.75 55.008 160.206 55.008 L 160.238 54.528 L 163.694 54.528 L 163.662 55.008 Q 163.23 55.008 162.926 55.136 Q 162.622 55.264 162.31 55.624 Q 161.998 55.984 161.502 56.72 L 155.63 65.12 L 155.102 65.12 L 154.206 56.464 Q 154.11 55.664 153.854 55.336 Q 153.598 55.008 152.958 55.008 L 152.99 54.528 L 156.91 54.528 L 156.862 55.008 Q 156.254 55.008 155.902 55.248 Q 155.55 55.488 155.582 56.032 Q 155.582 56.112 155.606 56.32 Q 155.63 56.528 155.63 56.608 L 156.11 61.168 L 156.222 63.04 Z " fill="black" /><path d="M 165.222 67.986 L 165.222 67.986 L 165.222 68.4 L 162.377 68.4 L 162.377 67.986 Q 162.769 67.986 162.942 67.902 Q 163.116 67.818 163.161 67.633 Q 163.206 67.448 163.206 67.146 L 163.206 63.763 Q 163.206 63.382 163.082 63.304 Q 162.959 63.226 162.668 63.226 Q 162.522 63.226 162.433 63.237 Q 162.343 63.248 162.343 63.248 L 162.343 62.8 L 163.844 62.554 L 164.303 62.554 L 164.303 67.146 Q 164.303 67.47 164.354 67.655 Q 164.404 67.84 164.6 67.913 Q 164.796 67.986 165.222 67.986 Z M 163.743 60.078 L 163.743 60.078 Q 164.068 60.078 164.286 60.302 Q 164.505 60.526 164.505 60.818 Q 164.505 61.086 164.286 61.31 Q 164.068 61.534 163.743 61.534 Q 163.43 61.534 163.222 61.31 Q 163.015 61.086 163.015 60.818 Q 163.015 60.526 163.222 60.302 Q 163.43 60.078 163.743 60.078 Z " fill="black" /><path d="M 171.874 64.648 L 171.874 64.648 L 171.874 67.157 Q 171.874 67.47 171.93 67.655 Q 171.986 67.84 172.177 67.918 Q 172.367 67.997 172.77 67.997 L 172.77 68.4 L 169.892 68.4 L 169.892 67.997 Q 170.318 67.997 170.508 67.918 Q 170.698 67.84 170.743 67.655 Q 170.788 67.47 170.788 67.157 L 170.788 65.018 Q 170.788 64.267 170.614 63.914 Q 170.441 63.562 170.178 63.45 Q 169.914 63.338 169.646 63.338 Q 169.164 63.338 168.8 63.584 Q 168.436 63.83 168.167 64.054 L 168.167 67.157 Q 168.167 67.47 168.218 67.655 Q 168.268 67.84 168.458 67.918 Q 168.649 67.997 169.063 67.997 L 169.063 68.4 L 166.241 68.4 L 166.241 67.997 Q 166.633 67.997 166.806 67.918 Q 166.98 67.84 167.025 67.655 Q 167.07 67.47 167.07 67.157 L 167.07 63.752 Q 167.07 63.438 166.952 63.332 Q 166.834 63.226 166.577 63.226 Q 166.442 63.226 166.353 63.237 Q 166.263 63.248 166.263 63.248 L 166.263 62.822 L 167.764 62.554 L 168.134 62.554 L 168.134 63.472 L 168.212 63.472 Q 168.694 63.035 169.136 62.778 Q 169.578 62.52 170.138 62.52 Q 170.799 62.52 171.174 62.817 Q 171.55 63.114 171.712 63.595 Q 171.874 64.077 171.874 64.648 Z " fill="black" /></g></g></g><g><g><g><path d="M 190.611 30.56 L 190.611 30.56 L 190.515 31.376 L 189.123 31.216 L 189.123 31.264 Q 189.395 31.568 189.547 32.024 Q 189.699 32.48 189.699 32.896 Q 189.699 33.616 189.411 34.104 Q 189.123 34.592 188.659 34.888 Q 188.195 35.184 187.635 35.336 Q 187.075 35.488 186.547 35.536 Q 185.907 35.6 185.643 35.808 Q 185.379 36.016 185.379 36.24 Q 185.379 36.528 185.699 36.68 Q 186.019 36.832 186.523 36.928 Q 187.027 37.024 187.603 37.144 Q 188.179 37.264 188.683 37.472 Q 189.187 37.68 189.507 38.056 Q 189.827 38.432 189.827 39.056 Q 189.827 39.744 189.379 40.328 Q 188.931 40.912 188.051 41.272 Q 187.171 41.632 185.891 41.632 Q 184.739 41.632 184.051 41.352 Q 183.363 41.072 183.059 40.632 Q 182.755 40.192 182.755 39.712 Q 182.755 38.944 183.347 38.472 Q 183.939 38 184.691 37.76 L 184.691 37.696 Q 184.483 37.568 184.299 37.336 Q 184.115 37.104 184.115 36.736 Q 184.115 36.336 184.323 36.096 Q 184.531 35.856 184.859 35.704 Q 185.187 35.552 185.507 35.44 L 185.507 35.344 Q 184.883 35.072 184.419 34.576 Q 183.955 34.08 183.955 33.168 Q 183.955 32.336 184.355 31.704 Q 184.755 31.072 185.451 30.72 Q 186.147 30.368 187.011 30.368 Q 187.587 30.368 187.883 30.424 Q 188.179 30.48 188.467 30.56 Z M 188.675 39.648 L 188.675 39.648 Q 188.675 39.168 188.275 38.872 Q 187.875 38.576 187.283 38.4 Q 186.691 38.224 186.091 38.12 Q 185.491 38.016 185.075 37.936 Q 184.675 38.192 184.339 38.52 Q 184.003 38.848 184.003 39.472 Q 184.003 40.112 184.499 40.592 Q 184.995 41.072 186.211 41.072 Q 187.363 41.072 188.019 40.648 Q 188.675 40.224 188.675 39.648 Z M 188.275 32.72 L 188.275 32.72 Q 188.275 31.92 187.971 31.384 Q 187.667 30.848 186.963 30.848 Q 186.275 30.848 185.827 31.424 Q 185.379 32 185.379 33.168 Q 185.379 34 185.667 34.52 Q 185.955 35.04 186.643 35.04 Q 187.443 35.04 187.859 34.368 Q 188.275 33.696 188.275 32.72 Z " fill="black" /><path d="M 197.454 41.246 L 197.454 41.246 L 195.942 41.448 L 195.539 41.448 L 195.539 40.664 L 195.461 40.664 Q 195.091 40.978 194.626 41.235 Q 194.162 41.493 193.579 41.493 Q 192.918 41.493 192.454 41.134 Q 191.989 40.776 191.742 40.149 Q 191.496 39.522 191.496 38.726 Q 191.496 37.73 191.882 37.007 Q 192.269 36.285 192.913 35.898 Q 193.557 35.512 194.318 35.512 Q 194.979 35.512 195.517 35.814 L 195.517 34.37 Q 195.517 33.966 195.433 33.838 Q 195.349 33.709 194.99 33.709 Q 194.912 33.709 194.783 33.726 Q 194.654 33.742 194.654 33.742 L 194.654 33.317 L 196.144 33.026 L 196.603 33.026 L 196.603 40.126 Q 196.603 40.563 196.726 40.692 Q 196.85 40.821 197.152 40.821 L 197.454 40.821 Z M 195.517 40.149 L 195.517 40.149 L 195.517 36.878 Q 195.394 36.565 195.108 36.318 Q 194.822 36.072 194.296 36.072 Q 193.546 36.072 193.064 36.582 Q 192.582 37.091 192.582 38.267 Q 192.582 39.466 193.002 40.02 Q 193.422 40.574 194.184 40.574 Q 194.542 40.574 194.839 40.474 Q 195.136 40.373 195.517 40.149 Z " fill="black" /><path d="M 198.642 39.354 L 198.642 39.354 L 199 39.354 Q 199.146 40.003 199.347 40.362 Q 199.549 40.72 199.868 40.86 Q 200.187 41 200.646 41 Q 201.173 41 201.458 40.826 Q 201.744 40.653 201.744 40.216 Q 201.744 39.925 201.604 39.729 Q 201.464 39.533 201.156 39.354 Q 200.848 39.174 200.333 38.939 Q 199.806 38.682 199.431 38.458 Q 199.056 38.234 198.86 37.931 Q 198.664 37.629 198.664 37.17 Q 198.664 36.363 199.207 35.938 Q 199.75 35.512 200.568 35.512 Q 201.061 35.512 201.402 35.635 Q 201.744 35.758 201.946 35.848 L 201.968 35.848 L 202.147 35.568 L 202.461 35.568 L 202.483 37.427 L 202.091 37.427 Q 201.878 36.565 201.498 36.268 Q 201.117 35.971 200.624 35.971 Q 200.109 35.971 199.846 36.195 Q 199.582 36.419 199.582 36.778 Q 199.582 37.069 199.762 37.259 Q 199.941 37.45 200.271 37.612 Q 200.602 37.774 201.061 37.998 Q 201.576 38.245 201.968 38.508 Q 202.36 38.771 202.584 39.102 Q 202.808 39.432 202.808 39.925 Q 202.808 40.518 202.494 40.877 Q 202.181 41.235 201.688 41.386 Q 201.195 41.538 200.658 41.538 Q 200.109 41.538 199.806 41.426 Q 199.504 41.314 199.246 41.213 L 199.202 41.213 L 198.922 41.504 L 198.664 41.504 Z " fill="black" /></g></g></g><circle cx="108.0" cy="-1.3226185430791413e-14" r="2.6999999999999997" style="stroke:black;fill:black;stroke-width:2.0;stroke-dasharray:-;" /><g><g><g><path d="M 155.999 -11.66 L 155.999 -11.66 L 160.367 -18.22 Q 160.591 -18.54 160.727 -18.812 Q 160.863 -19.084 160.863 -19.276 Q 160.863 -19.516 160.655 -19.604 Q 160.447 -19.692 159.903 -19.692 L 159.935 -20.172 L 163.391 -20.172 L 163.359 -19.692 Q 162.927 -19.692 162.623 -19.564 Q 162.319 -19.436 162.007 -19.076 Q 161.695 -18.716 161.199 -17.98 L 155.327 -9.58 L 154.799 -9.58 L 153.903 -18.236 Q 153.807 -19.036 153.551 -19.364 Q 153.295 -19.692 152.655 -19.692 L 152.687 -20.172 L 156.607 -20.172 L 156.559 -19.692 Q 155.951 -19.692 155.599 -19.452 Q 155.247 -19.212 155.279 -18.668 Q 155.279 -18.588 155.303 -18.38 Q 155.327 -18.172 155.327 -18.092 L 155.807 -13.532 L 155.919 -11.66 Z " fill="black" /><path d="M 162.13 -14.174 L 162.13 -14.174 L 165.524 -14.174 Q 166.42 -14.174 167.237 -13.978 Q 168.055 -13.782 168.699 -13.334 Q 169.343 -12.886 169.718 -12.135 Q 170.093 -11.385 170.093 -10.265 Q 170.093 -9.212 169.752 -8.456 Q 169.41 -7.7 168.794 -7.224 Q 168.178 -6.748 167.36 -6.524 Q 166.543 -6.3 165.591 -6.3 L 162.13 -6.3 L 162.13 -6.726 Q 162.656 -6.726 162.903 -6.804 Q 163.149 -6.882 163.222 -7.123 Q 163.295 -7.364 163.295 -7.857 L 163.295 -12.718 Q 163.295 -13.177 163.188 -13.395 Q 163.082 -13.614 162.83 -13.681 Q 162.578 -13.748 162.13 -13.748 Z M 164.493 -13.614 L 164.493 -13.614 L 164.493 -6.838 Q 164.672 -6.826 164.846 -6.821 Q 165.02 -6.815 165.188 -6.815 Q 166.296 -6.815 167.075 -7.106 Q 167.853 -7.398 168.262 -8.126 Q 168.671 -8.854 168.671 -10.164 Q 168.671 -11.844 167.814 -12.734 Q 166.957 -13.625 165.098 -13.625 Q 164.941 -13.625 164.796 -13.625 Q 164.65 -13.625 164.493 -13.614 Z " fill="black" /></g></g></g><g><g><g><path d="M 86.29 -37.264 L 86.29 -37.264 L 86.21 -36.768 Q 85.762 -36.768 85.506 -36.672 Q 85.25 -36.576 85.122 -36.312 Q 84.994 -36.048 84.898 -35.552 L 84.418 -33.232 Q 83.442 -32.736 82.538 -32.44 Q 81.634 -32.144 80.354 -32.144 Q 79.202 -32.144 78.426 -32.464 Q 77.65 -32.784 77.194 -33.336 Q 76.738 -33.888 76.538 -34.592 Q 76.338 -35.296 76.338 -36.064 Q 76.338 -37.792 76.874 -39.104 Q 77.41 -40.416 78.314 -41.288 Q 79.218 -42.16 80.354 -42.6 Q 81.49 -43.04 82.69 -43.04 Q 83.538 -43.04 84.01 -42.896 Q 84.482 -42.752 84.738 -42.6 Q 84.994 -42.448 85.202 -42.448 Q 85.378 -42.448 85.522 -42.608 Q 85.666 -42.768 85.858 -43.024 L 86.306 -43.024 L 85.57 -39.36 L 85.042 -39.36 Q 85.09 -40.96 84.434 -41.656 Q 83.778 -42.352 82.546 -42.352 Q 81.33 -42.352 80.282 -41.64 Q 79.234 -40.928 78.602 -39.608 Q 77.97 -38.288 77.954 -36.448 Q 77.954 -34.672 78.618 -33.76 Q 79.282 -32.848 80.738 -32.848 Q 81.474 -32.848 82.034 -33.072 Q 82.594 -33.296 83.122 -33.648 L 83.458 -35.392 Q 83.586 -35.968 83.546 -36.264 Q 83.506 -36.56 83.234 -36.664 Q 82.962 -36.768 82.354 -36.768 L 82.45 -37.264 Z " fill="black" /><path d="M 87.701 -36.834 L 87.701 -36.834 L 91.094 -36.834 Q 91.99 -36.834 92.808 -36.638 Q 93.626 -36.442 94.27 -35.994 Q 94.914 -35.546 95.289 -34.795 Q 95.664 -34.045 95.664 -32.925 Q 95.664 -31.872 95.322 -31.116 Q 94.981 -30.36 94.365 -29.884 Q 93.749 -29.408 92.931 -29.184 Q 92.114 -28.96 91.162 -28.96 L 87.701 -28.96 L 87.701 -29.386 Q 88.227 -29.386 88.474 -29.464 Q 88.72 -29.542 88.793 -29.783 Q 88.866 -30.024 88.866 -30.517 L 88.866 -35.378 Q 88.866 -35.837 88.759 -36.055 Q 88.653 -36.274 88.401 -36.341 Q 88.149 -36.408 87.701 -36.408 Z M 90.064 -36.274 L 90.064 -36.274 L 90.064 -29.498 Q 90.243 -29.486 90.417 -29.481 Q 90.59 -29.475 90.758 -29.475 Q 91.867 -29.475 92.646 -29.766 Q 93.424 -30.058 93.833 -30.786 Q 94.242 -31.514 94.242 -32.824 Q 94.242 -34.504 93.385 -35.394 Q 92.528 -36.285 90.669 -36.285 Q 90.512 -36.285 90.366 -36.285 Q 90.221 -36.285 90.064 -36.274 Z " fill="black" /></g></g></g></svg>