<svg xmlns="http://www.w3.org/2000/svg" xmlns:xlink="http://www.w3.org/1999/xlink" xml:lang="en" height="262.64000000000004pt" width="769.7207999999999pt" viewBox="-72.12079999999999 -163.00000000000003 769.7207999999999 262.64000000000004"><circle cx="107.99999999999999" cy="36.0" r="18.0" style="stroke:black;fill:none;stroke-width:2.0;stroke-dasharray:-;" /><circle cx="360.0" cy="36.0" r="18.0" style="stroke:black;fill:none;stroke-width:2.0;stroke-dasharray:-;" /><circle cx="360.0" cy="-108.0" r="18.0" style="stroke:black;fill:none;stroke-width:2.0;stroke-dasharray:-;" /><path d="M 0.0,-0.0 L -18.0,-2.204364238465236e-15 L -36.0,-4.408728476930472e-15" style="stroke:black;fill:none;stroke-width:2.0;stroke-dasharray:-;stroke-linecap:round;stroke-linejoin:round;" /><path d="M -1.3226185430791413e-14,72.0 L 53.999999999999986,72.0 L 107.99999999999999,72.0" style="stroke:black;fill:none;stroke-width:2.0;stroke-dasharray:-;stroke-linecap:round;stroke-linejoin:round;" /><path d="M 107.99999999999999,72.0 L 107.99999999999999,54.0 L 107.99999999999999,54.0 M 107.99999999999999,18.0 L 107.99999999999999,18.0 L 107.99999999999999,-0.0" style="stroke:black;fill:none;stroke-width:2.0;stroke-dasharray:-;stroke-linecap:round;stroke-linejoin:round;" /><path d="M 107.99999999999999,36.0 L 107.99999999999999,27.0" style="stroke:black;fill:none;stroke-width:2.0;stroke-dasharray:-;stroke-linecap:round;stroke-linejoin:round;" /><path d="M 107.99999999999999 43.0 L 105.29999999999998 36.0 L 110.69999999999999 36.0 Z" style="stroke:black;fill:black;stroke-linecap:butt;stroke-linejoin:miter;" /><path d="M 107.99999999999999,-0.0 L 107.99999999999999,-36.0 L 107.99999999999999,-72.0" style="stroke:black;fill:none;stroke-width:2.0;stroke-dasharray:-;stroke-linecap:round;stroke-linejoin:round;" /><path d="M 107.99999999999999,-72.0 L 107.99999999999999,-90.0 L 98.99999999999999,-93.0 L 116.99999999999999,-99.0 L 98.99999999999999,-105.0 L 116.99999999999999,-110.99999999999999 L 98.99999999999999,-117.0 L 116.99999999999999,-123.0 L 107.99999999999999,-126.0 L 107.99999999999999,-144.0" style="stroke:black;fill:none;stroke-width:2.0;stroke-dasharray:-;stroke-linecap:round;stroke-linejoin:round;" /><path d="M 107.99999999999999,-144.0 L 107.99999999999999,-158.4" style="stroke:black;fill:none;stroke-width:2.0;stroke-dasharray:-;stroke-linecap:round;stroke-linejoin:round;" /><path d="M 107.99999999999999,-158.4 L 101.24999999999999,-158.4" style="stroke:black;fill:none;stroke-width:2.0;stroke-dasharray:-;stroke-linecap:round;stroke-linejoin:round;" /><path d="M 107.99999999999999,-158.4 L 114.74999999999999,-158.4" style="stroke:black;fill:none;stroke-width:2.0;stroke-dasharray:-;stroke-linecap:round;stroke-linejoin:round;" /><path d="M 107.99999999999999,-72.0 L 162.0,-72.0 L 216.0,-72.0" style="stroke:black;fill:none;stroke-width:2.0;stroke-dasharray:-;stroke-linecap:round;stroke-linejoin:round;" /><path d="M 216.0,-72.0 L 216.0,-104.76 M 207.0,-104.76 L 225.0,-104.76 M 207.0,-111.24 L 225.0,-111.24 M 216.0,-111.24 L 216.0,-144.0" style="stroke:black;fill:none;stroke-width:2.0;stroke-dasharray:-;stroke-linecap:round;stroke-linejoin:round;" /><path d="M 216.0,-144.0 L 216.0,-158.4" style="stroke:black;fill:none;stroke-width:2.0;stroke-dasharray:-;stroke-linecap:round;stroke-linejoin:round;" /><path d="M 216.0,-158.4 L 209.25,-158.4" style="stroke:black;fill:none;stroke-width:2.0;stroke-dasharray:-;stroke-linecap:round;stroke-linejoin:round;" /><path d="M 216.0,-158.4 L 222.75,-158.4" style="stroke:black;fill:none;stroke-width:2.0;stroke-dasharray:-;stroke-linecap:round;stroke-linejoin:round;" /><path d="M 107.99999999999999,72.0 L 107.99999999999999,86.39999999999999 L 98.99999999999999,86.39999999999999 L 116.99999999999999,86.39999999999999 M 101.69999999999999,90.72 L 114.29999999999998,90.72 M 106.19999999999999,95.04 L 109.79999999999998,95.04" style="stroke:black;fill:none;stroke-width:2.0;stroke-dasharray:-;stroke-linecap:round;stroke-linejoin:round;" /><path d="M 360.0,72.0 L 360.0,86.39999999999999 L 351.0,86.39999999999999 L 369.0,86.39999999999999 M 353.7,90.72 L 366.3,90.72 M 358.2,95.04 L 361.8,95.04" style="stroke:black;fill:none;stroke-width:2.0;stroke-dasharray:-;stroke-linecap:round;stroke-linejoin:round;" /><path d="M 360.0,72.0 L 360.0,54.0 L 360.0,54.0 M 360.0,18.0 L 360.0,18.0 L 360.0,-0.0" style="stroke:black;fill:none;stroke-width:2.0;stroke-dasharray:-;stroke-linecap:round;stroke-linejoin:round;" /><path d="M 360.0,36.0 L 360.0,27.0" style="stroke:black;fill:none;stroke-width:2.0;stroke-dasharray:-;stroke-linecap:round;stroke-linejoin:round;" /><path d="M 360.0 43.0 L 357.3 36.0 L 362.7 36.0 Z" style="stroke:black;fill:black;stroke-linecap:butt;stroke-linejoin:miter;" /><path d="M 360.0,-0.0 L 360.0,-18.0 L 360.0,-36.0" style="stroke:black;fill:none;stroke-width:2.0;stroke-dasharray:-;stroke-linecap:round;stroke-linejoin:round;" /><path d="M 360.0,-36.0 L 360.0,-54.0 L 360.0,-72.0" style="stroke:black;fill:none;stroke-width:2.0;stroke-dasharray:-;stroke-linecap:round;stroke-linejoin:round;" /><path d="M 360.0,-72.0 L 360.0,-90.0 L 360.0,-90.0 M 360.0,-126.0 L 360.0,-126.0 L 360.0,-144.0" style="stroke:black;fill:none;stroke-width:2.0;stroke-dasharray:-;stroke-linecap:round;stroke-linejoin:round;" /><path d="M 360.0,-99.0 L 360.0,-108.0" style="stroke:black;fill:none;stroke-width:2.0;stroke-dasharray:-;stroke-linecap:round;stroke-linejoin:round;" /><path d="M 360.0 -115.0 L 362.7 -108.0 L 357.3 -108.0 Z" style="stroke:black;fill:black;stroke-linecap:butt;stroke-linejoin:miter;" /><path d="M 360.0,-144.0 L 360.0,-158.4" style="stroke:black;fill:none;stroke-width:2.0;stroke-dasharray:-;stroke-linecap:round;stroke-linejoin:round;" /><path d="M 360.0,-158.4 L 353.25,-158.4" style="stroke:black;fill:none;stroke-width:2.0;stroke-dasharray:-;stroke-linecap:round;stroke-linejoin:round;" /><path d="M 360.0,-158.4 L 366.75,-158.4" style="stroke:black;fill:none;stroke-width:2.0;stroke-dasharray:-;stroke-linecap:round;stroke-linejoin:round;" /><path d="M 360.0,-36.0 L 468.0,-36.0 L 576.0,-36.0" style="stroke:black;fill:none;stroke-width:2.0;stroke-dasharray:-;stroke-linecap:round;stroke-linejoin:round;" /><path d="M 576.0,-36.0 L 576.0,-18.0 L 576.0,-0.0" style="stroke:black;fill:none;stroke-width:2.0;stroke-dasharray:-;stroke-linecap:round;stroke-linejoin:round;" /><path d="M 576.0,-0.0 L 576.0,32.76 M 585.0,32.76 L 567.0,32.76 M 585.0,39.24 L 567.0,39.24 M 576.0,39.24 L 576.0,72.0" style="stroke:black;fill:none;stroke-width:2.0;stroke-dasharray:-;stroke-linecap:round;stroke-linejoin:round;" /><path d="M 576.0,72.0 L 576.0,86.39999999999999 L 567.0,86.39999999999999 L 585.0,86.39999999999999 M 569.6999999999999,90.72 L 582.3000000000001,90.72 M 574.1999999999999,95.04 L 577.8000000000001,95.04" style="stroke:black;fill:none;stroke-width:2.0;stroke-dasharray:-;stroke-linecap:round;stroke-linejoin:round;" /><path d="M 576.0,-36.0 L 630.0,-36.0 L 684.0,-36.0" style="stroke:black;fill:none;stroke-width:2.0;stroke-dasharray:-;stroke-linecap:round;stroke-linejoin:round;" /><path d="M 684.0,-36.0 L 684.0,-18.0 L 684.0,-0.0" style="stroke:black;fill:none;stroke-width:2.0;stroke-dasharray:-;stroke-linecap:round;stroke-linejoin:round;" /><path d="M 684.0,-0.0 L 684.0,18.0 L 693.0,21.0 L 675.0,27.0 L 693.0,33.0 L 675.0,39.0 L 693.0,45.0 L 675.0,50.99999999999999 L 684.0,54.0 L 684.0,72.0" style="stroke:black;fill:none;stroke-width:2.0;stroke-dasharray:-;stroke-linecap:round;stroke-linejoin:round;" /><path d="M 684.0,72.0 L 684.0,86.39999999999999 L 675.0,86.39999999999999 L 693.0,86.39999999999999 M 677.6999999999999,90.72 L 690.3000000000001,90.72 M 682.1999999999999,95.04 L 685.8000000000001,95.04" style="stroke:black;fill:none;stroke-width:2.0;stroke-dasharray:-;stroke-linecap:round;stroke-linejoin:round;" /><path d="M 360.0,72.0 L 396.0,72.0 L 432.0,72.0" style="stroke:black;fill:none;stroke-width:2.0;stroke-dasharray:-;stroke-linecap:round;stroke-linejoin:round;" /><path d="M 432.0,-0.0 L 450.0,-0.0 L 468.0,-0.0" style="stroke:black;fill:none;stroke-width:2.0;stroke-dasharray:-;stroke-linecap:round;stroke-linejoin:round;" /><path d="M 107.99999999999999,-72.0 L 53.999999999999986,-72.0 L -1.5987211554602254e-14,-72.00000000000001" style="stroke:black;fill:none;stroke-width:2.0;stroke-dasharray:-;stroke-linecap:round;stroke-linejoin:round;" /><path d="M -1.1578483077671783e-14,-144.0 L -1.1578483077671783e-14,-158.4" style="stroke:black;fill:none;stroke-width:2.0;stroke-dasharray:-;stroke-linecap:round;stroke-linejoin:round;" /><path d="M -1.1578483077671783e-14,-158.4 L -6.750000000000012,-158.4" style="stroke:black;fill:none;stroke-width:2.0;stroke-dasharray:-;stroke-linecap:round;stroke-linejoin:round;" /><path d="M -1.1578483077671783e-14,-158.4 L 6.749999999999988,-158.4" style="stroke:black;fill:none;stroke-width:2.0;stroke-dasharray:-;stroke-linecap:round;stroke-linejoin:round;" /><circle cx="-36.0" cy="-4.408728476930472e-15" r="2.6999999999999997" style="stroke:black;fill:white;stroke-width:2.0;stroke-dasharray:-;" /><g><g><g><path d="M -67.682 0.282 L -67.682 0.282 L -63.314 -6.278 Q -63.09 -6.598 -62.954 -6.87 Q -62.818 -7.142 -62.818 -7.334 Q -62.818 -7.574 -63.026 -7.662 Q -63.234 -7.75 -63.778 -7.75 L -63.746 -8.23 L -60.29 -8.23 L -60.322 -7.75 Q -60.754 -7.75 -61.058 -7.622 Q -61.362 -7.494 -61.674 -7.134 Q -61.986 -6.774 -62.482 -6.038 L -68.354 2.362 L -68.882 2.362 L -69.778 -6.294 Q -69.874 -7.094 -70.13 -7.422 Q -70.386 -7.75 -71.026 -7.75 L -70.994 -8.23 L -67.074 -8.23 L -67.122 -7.75 Q -67.73 -7.75 -68.082 -7.51 Q -68.434 -7.27 -68.402 -6.726 Q -68.402 -6.646 -68.378 -6.438 Q -68.354 -6.23 -68.354 -6.15 L -67.874 -1.59 L -67.762 0.282 Z " fill="black" /><path d="M -58.762 5.228 L -58.762 5.228 L -58.762 5.642 L -61.607 5.642 L -61.607 5.228 Q -61.215 5.228 -61.042 5.144 Q -60.868 5.06 -60.823 4.875 Q -60.778 4.69 -60.778 4.388 L -60.778 1.006 Q -60.778 0.625 -60.902 0.546 Q -61.025 0.468 -61.316 0.468 Q -61.462 0.468 -61.551 0.479 Q -61.641 0.49 -61.641 0.49 L -61.641 0.042 L -60.14 -0.204 L -59.681 -0.204 L -59.681 4.388 Q -59.681 4.713 -59.63 4.898 Q -59.58 5.082 -59.384 5.155 Q -59.188 5.228 -58.762 5.228 Z M -60.241 -2.679 L -60.241 -2.679 Q -59.916 -2.679 -59.698 -2.455 Q -59.479 -2.231 -59.479 -1.94 Q -59.479 -1.671 -59.698 -1.447 Q -59.916 -1.223 -60.241 -1.223 Q -60.554 -1.223 -60.762 -1.447 Q -60.969 -1.671 -60.969 -1.94 Q -60.969 -2.231 -60.762 -2.455 Q -60.554 -2.679 -60.241 -2.679 Z " fill="black" /><path d="M -52.11 1.89 L -52.11 1.89 L -52.11 4.399 Q -52.11 4.713 -52.054 4.898 Q -51.998 5.082 -51.807 5.161 Q -51.617 5.239 -51.214 5.239 L -51.214 5.642 L -54.092 5.642 L -54.092 5.239 Q -53.666 5.239 -53.476 5.161 Q -53.286 5.082 -53.241 4.898 Q -53.196 4.713 -53.196 4.399 L -53.196 2.26 Q -53.196 1.51 -53.37 1.157 Q -53.543 0.804 -53.806 0.692 Q -54.07 0.58 -54.338 0.58 Q -54.82 0.58 -55.184 0.826 Q -55.548 1.073 -55.817 1.297 L -55.817 4.399 Q -55.817 4.713 -55.766 4.898 Q -55.716 5.082 -55.526 5.161 Q -55.335 5.239 -54.921 5.239 L -54.921 5.642 L -57.743 5.642 L -57.743 5.239 Q -57.351 5.239 -57.178 5.161 Q -57.004 5.082 -56.959 4.898 Q -56.914 4.713 -56.914 4.399 L -56.914 0.994 Q -56.914 0.681 -57.032 0.574 Q -57.15 0.468 -57.407 0.468 Q -57.542 0.468 -57.631 0.479 Q -57.721 0.49 -57.721 0.49 L -57.721 0.065 L -56.22 -0.204 L -55.85 -0.204 L -55.85 0.714 L -55.772 0.714 Q -55.29 0.278 -54.848 0.02 Q -54.406 -0.238 -53.846 -0.238 Q -53.185 -0.238 -52.81 0.059 Q -52.434 0.356 -52.272 0.838 Q -52.11 1.319 -52.11 1.89 Z " fill="black" /><path d="M -49.814 7.322 L -49.814 7.322 L -50.004 6.953 Q -49.769 6.852 -49.522 6.69 Q -49.276 6.527 -49.114 6.23 Q -48.951 5.934 -48.951 5.452 Q -49.142 5.53 -49.343 5.53 Q -49.713 5.53 -49.87 5.312 Q -50.026 5.094 -50.026 4.814 Q -50.026 4.511 -49.825 4.287 Q -49.623 4.063 -49.242 4.063 Q -48.761 4.063 -48.509 4.36 Q -48.257 4.657 -48.257 5.183 Q -48.257 5.721 -48.425 6.096 Q -48.593 6.471 -48.845 6.712 Q -49.097 6.953 -49.36 7.093 Q -49.623 7.233 -49.814 7.322 Z " fill="black" /><path d="M -45.905 -0.204 L -45.905 -0.204 L -45.905 0.759 L -45.849 0.759 Q -45.412 0.255 -44.975 0.009 Q -44.538 -0.238 -44.012 -0.238 Q -43.418 -0.238 -42.937 0.115 Q -42.455 0.468 -42.17 1.09 Q -41.884 1.711 -41.884 2.518 Q -41.884 3.57 -42.259 4.298 Q -42.634 5.026 -43.256 5.402 Q -43.878 5.777 -44.606 5.777 Q -44.953 5.777 -45.261 5.687 Q -45.569 5.598 -45.826 5.452 L -45.882 5.452 L -45.882 6.886 Q -45.882 7.278 -45.782 7.485 Q -45.681 7.692 -45.423 7.765 Q -45.166 7.838 -44.684 7.838 L -44.684 8.23 L -47.854 8.23 L -47.854 7.849 Q -47.462 7.838 -47.277 7.765 Q -47.092 7.692 -47.03 7.502 Q -46.969 7.311 -46.969 6.964 L -46.969 1.073 Q -46.969 0.748 -47.036 0.608 Q -47.103 0.468 -47.428 0.468 Q -47.529 0.468 -47.686 0.479 Q -47.842 0.49 -47.842 0.49 L -47.842 0.042 L -46.33 -0.204 Z M -45.882 1.33 L -45.882 1.33 L -45.882 4.489 Q -45.759 4.612 -45.574 4.797 Q -45.39 4.982 -45.132 5.122 Q -44.874 5.262 -44.572 5.262 Q -44.158 5.262 -43.816 5.01 Q -43.474 4.758 -43.262 4.22 Q -43.049 3.682 -43.049 2.854 Q -43.049 1.801 -43.43 1.218 Q -43.81 0.636 -44.505 0.636 Q -44.953 0.636 -45.322 0.871 Q -45.692 1.106 -45.882 1.33 Z " fill="black" /></g></g></g><g><g><g><path d="M 5.264 18.544 L 5.264 18.544 L 1.072 18.544 L 1.072 22.784 L -0.08 22.784 L -0.08 18.544 L -4.272 18.544 L -4.272 17.456 L -0.08 17.456 L -0.08 13.216 L 1.072 13.216 L 1.072 17.456 L 5.264 17.456 Z " fill="black" /></g></g></g><g><g><g><path d="M -7.846 36.154 L -7.846 36.154 L -3.478 29.594 Q -3.254 29.274 -3.118 29.002 Q -2.982 28.73 -2.982 28.538 Q -2.982 28.298 -3.19 28.21 Q -3.398 28.122 -3.942 28.122 L -3.91 27.642 L -0.454 27.642 L -0.486 28.122 Q -0.918 28.122 -1.222 28.25 Q -1.526 28.378 -1.838 28.738 Q -2.15 29.098 -2.646 29.834 L -8.518 38.234 L -9.046 38.234 L -9.942 29.578 Q -10.038 28.778 -10.294 28.45 Q -10.55 28.122 -11.19 28.122 L -11.158 27.642 L -7.238 27.642 L -7.286 28.122 Q -7.894 28.122 -8.246 28.362 Q -8.598 28.602 -8.566 29.146 Q -8.566 29.226 -8.542 29.434 Q -8.518 29.642 -8.518 29.722 L -8.038 34.282 L -7.926 36.154 Z " fill="black" /><path d="M -2.37 39.262 L -2.37 39.262 L -2.37 39.218 Q -2.762 38.982 -3.037 38.607 Q -3.311 38.232 -3.311 37.638 Q -3.311 37.011 -3.009 36.563 Q -2.706 36.115 -2.191 35.874 Q -1.676 35.634 -1.038 35.634 Q -0.444 35.634 -0.069 35.762 Q 0.306 35.891 0.306 35.891 L 1.953 35.846 L 1.953 36.507 L 0.777 36.485 L 0.777 36.563 Q 0.922 36.765 1.079 37.039 Q 1.236 37.314 1.236 37.806 Q 1.236 38.366 0.939 38.775 Q 0.642 39.184 0.144 39.402 Q -0.354 39.621 -0.982 39.621 Q -1.553 39.621 -2.057 39.419 Q -2.135 39.565 -2.242 39.834 Q -2.348 40.102 -2.348 40.293 Q -2.348 40.528 -2.074 40.64 Q -1.799 40.752 -0.982 40.752 Q -0.377 40.752 0.138 40.78 Q 0.654 40.808 1.034 40.937 Q 1.415 41.066 1.622 41.351 Q 1.83 41.637 1.83 42.163 Q 1.83 42.768 1.522 43.188 Q 1.214 43.608 0.71 43.866 Q 0.206 44.123 -0.382 44.241 Q -0.97 44.358 -1.542 44.358 Q -2.359 44.358 -2.807 44.157 Q -3.255 43.955 -3.429 43.642 Q -3.602 43.328 -3.602 43.003 Q -3.602 42.69 -3.384 42.382 Q -3.166 42.074 -2.684 41.626 L -2.684 41.57 Q -2.964 41.424 -3.154 41.178 Q -3.345 40.931 -3.345 40.696 Q -3.345 40.36 -3.048 39.985 Q -2.751 39.61 -2.37 39.262 Z M -2.314 41.682 L -2.314 41.682 Q -2.505 42.006 -2.572 42.197 Q -2.639 42.387 -2.639 42.578 Q -2.639 43.093 -2.219 43.356 Q -1.799 43.619 -0.914 43.619 Q -0.186 43.619 0.262 43.44 Q 0.71 43.261 0.922 43.009 Q 1.135 42.757 1.135 42.522 Q 1.135 42.219 0.939 42.051 Q 0.743 41.883 0.441 41.81 Q 0.138 41.738 -0.198 41.715 Q -0.534 41.693 -0.825 41.693 Q -0.903 41.693 -0.948 41.693 Q -1.665 41.693 -1.928 41.687 Q -2.191 41.682 -2.314 41.682 Z M -1.105 36.126 L -1.105 36.126 Q -1.586 36.126 -1.883 36.451 Q -2.18 36.776 -2.18 37.571 Q -2.18 38.355 -1.866 38.758 Q -1.553 39.162 -0.982 39.162 Q -0.679 39.162 -0.433 39.038 Q -0.186 38.915 -0.035 38.59 Q 0.116 38.266 0.116 37.672 Q 0.116 36.91 -0.214 36.518 Q -0.545 36.126 -1.105 36.126 Z " fill="black" /><path d="M 2.938 39.475 L 2.938 39.475 L 3.297 39.475 Q 3.442 40.125 3.644 40.483 Q 3.846 40.842 4.165 40.982 Q 4.484 41.122 4.943 41.122 Q 5.47 41.122 5.755 40.948 Q 6.041 40.774 6.041 40.338 Q 6.041 40.046 5.901 39.85 Q 5.761 39.654 5.453 39.475 Q 5.145 39.296 4.63 39.061 Q 4.103 38.803 3.728 38.579 Q 3.353 38.355 3.157 38.053 Q 2.961 37.75 2.961 37.291 Q 2.961 36.485 3.504 36.059 Q 4.047 35.634 4.865 35.634 Q 5.358 35.634 5.699 35.757 Q 6.041 35.88 6.242 35.97 L 6.265 35.97 L 6.444 35.69 L 6.758 35.69 L 6.78 37.549 L 6.388 37.549 Q 6.175 36.686 5.794 36.39 Q 5.414 36.093 4.921 36.093 Q 4.406 36.093 4.142 36.317 Q 3.879 36.541 3.879 36.899 Q 3.879 37.19 4.058 37.381 Q 4.238 37.571 4.568 37.734 Q 4.898 37.896 5.358 38.12 Q 5.873 38.366 6.265 38.63 Q 6.657 38.893 6.881 39.223 Q 7.105 39.554 7.105 40.046 Q 7.105 40.64 6.791 40.998 Q 6.478 41.357 5.985 41.508 Q 5.492 41.659 4.954 41.659 Q 4.406 41.659 4.103 41.547 Q 3.801 41.435 3.543 41.334 L 3.498 41.334 L 3.218 41.626 L 2.961 41.626 Z " fill="black" /><path d="M 12.503 41.514 L 12.503 41.514 L 8.706 41.514 L 8.706 41.11 Q 9.513 41.11 9.776 40.948 Q 10.039 40.786 10.039 40.36 L 10.039 35.477 Q 10.039 35.174 9.95 35.04 Q 9.86 34.906 9.625 34.906 Q 9.446 34.906 9.138 34.956 Q 8.83 35.006 8.606 35.062 L 8.606 34.614 L 10.678 34.043 L 11.159 34.043 L 11.159 40.36 Q 11.159 40.786 11.445 40.948 Q 11.73 41.11 12.503 41.11 Z " fill="black" /></g></g></g><g><g><g><rect x="-2.16" y="49.328" width="4.32" height="1.088" fill="black" /></g></g></g><circle cx="107.99999999999999" cy="72.0" r="2.6999999999999997" style="stroke:black;fill:black;stroke-width:2.0;stroke-dasharray:-;" /><g><g><g><path d="M 35.446 30.682 L 35.446 30.682 L 35.35 31.498 L 33.958 31.338 L 33.958 31.386 Q 34.23 31.69 34.382 32.146 Q 34.534 32.602 34.534 33.018 Q 34.534 33.738 34.246 34.226 Q 33.958 34.714 33.494 35.01 Q 33.03 35.306 32.47 35.458 Q 31.91 35.61 31.382 35.658 Q 30.742 35.722 30.478 35.93 Q 30.214 36.138 30.214 36.362 Q 30.214 36.65 30.534 36.802 Q 30.854 36.954 31.358 37.05 Q 31.862 37.146 32.438 37.266 Q 33.014 37.386 33.518 37.594 Q 34.022 37.802 34.342 38.178 Q 34.662 38.554 34.662 39.178 Q 34.662 39.866 34.214 40.45 Q 33.766 41.034 32.886 41.394 Q 32.006 41.754 30.726 41.754 Q 29.574 41.754 28.886 41.474 Q 28.198 41.194 27.894 40.754 Q 27.59 40.314 27.59 39.834 Q 27.59 39.066 28.182 38.594 Q 28.774 38.122 29.526 37.882 L 29.526 37.818 Q 29.318 37.69 29.134 37.458 Q 28.95 37.226 28.95 36.858 Q 28.95 36.458 29.158 36.218 Q 29.366 35.978 29.694 35.826 Q 30.022 35.674 30.342 35.562 L 30.342 35.466 Q 29.718 35.194 29.254 34.698 Q 28.79 34.202 28.79 33.29 Q 28.79 32.458 29.19 31.826 Q 29.59 31.194 30.286 30.842 Q 30.982 30.49 31.846 30.49 Q 32.422 30.49 32.718 30.546 Q 33.014 30.602 33.302 30.682 Z M 33.51 39.77 L 33.51 39.77 Q 33.51 39.29 33.11 38.994 Q 32.71 38.698 32.118 38.522 Q 31.526 38.346 30.926 38.242 Q 30.326 38.138 29.91 38.058 Q 29.51 38.314 29.174 38.642 Q 28.838 38.97 28.838 39.594 Q 28.838 40.234 29.334 40.714 Q 29.83 41.194 31.046 41.194 Q 32.198 41.194 32.854 40.77 Q 33.51 40.346 33.51 39.77 Z M 33.11 32.842 L 33.11 32.842 Q 33.11 32.042 32.806 31.506 Q 32.502 30.97 31.798 30.97 Q 31.11 30.97 30.662 31.546 Q 30.214 32.122 30.214 33.29 Q 30.214 34.122 30.502 34.642 Q 30.79 35.162 31.478 35.162 Q 32.278 35.162 32.694 34.49 Q 33.11 33.818 33.11 32.842 Z " fill="black" /><path d="M 38.179 37.179 L 38.179 37.179 L 38.179 40.282 Q 38.179 40.618 38.246 40.797 Q 38.314 40.976 38.504 41.038 Q 38.694 41.099 39.064 41.099 L 39.064 41.514 L 36.242 41.514 L 36.242 41.099 Q 36.6 41.099 36.779 41.038 Q 36.958 40.976 37.014 40.791 Q 37.07 40.606 37.07 40.259 L 37.07 36.866 Q 37.07 36.552 36.953 36.446 Q 36.835 36.339 36.578 36.339 Q 36.454 36.339 36.359 36.35 Q 36.264 36.362 36.264 36.362 L 36.264 35.936 L 37.731 35.667 L 38.146 35.667 L 38.146 36.586 L 38.224 36.586 Q 38.694 36.16 39.165 35.897 Q 39.635 35.634 40.274 35.634 Q 40.8 35.634 41.13 35.902 Q 41.461 36.171 41.64 36.563 L 41.696 36.563 Q 42.715 35.634 43.656 35.634 Q 44.418 35.634 44.86 36.104 Q 45.302 36.574 45.302 37.594 L 45.302 40.058 Q 45.302 40.438 45.347 40.668 Q 45.392 40.898 45.571 40.998 Q 45.75 41.099 46.154 41.099 L 46.154 41.514 L 43.342 41.514 L 43.342 41.099 Q 43.757 41.099 43.942 40.993 Q 44.126 40.886 44.171 40.657 Q 44.216 40.427 44.216 40.058 L 44.216 37.728 Q 44.216 37.022 43.93 36.742 Q 43.645 36.462 43.197 36.462 Q 42.816 36.462 42.435 36.692 Q 42.054 36.922 41.763 37.146 L 41.763 40.058 Q 41.763 40.472 41.814 40.702 Q 41.864 40.931 42.06 41.015 Q 42.256 41.099 42.67 41.099 L 42.67 41.514 L 39.747 41.514 L 39.747 41.099 Q 40.173 41.099 40.369 41.015 Q 40.565 40.931 40.621 40.702 Q 40.677 40.472 40.677 40.058 L 40.677 37.694 Q 40.677 36.989 40.425 36.726 Q 40.173 36.462 39.736 36.462 Q 39.277 36.462 38.857 36.709 Q 38.437 36.955 38.179 37.179 Z " fill="black" /><path d="M 51.485 41.514 L 51.485 41.514 L 47.688 41.514 L 47.688 41.11 Q 48.494 41.11 48.758 40.948 Q 49.021 40.786 49.021 40.36 L 49.021 35.477 Q 49.021 35.174 48.931 35.04 Q 48.842 34.906 48.606 34.906 Q 48.427 34.906 48.119 34.956 Q 47.811 35.006 47.587 35.062 L 47.587 34.614 L 49.659 34.043 L 50.141 34.043 L 50.141 40.36 Q 50.141 40.786 50.426 40.948 Q 50.712 41.11 51.485 41.11 Z " fill="black" /><path d="M 53.299 43.194 L 53.299 43.194 L 53.109 42.824 Q 53.344 42.723 53.59 42.561 Q 53.837 42.398 53.999 42.102 Q 54.162 41.805 54.162 41.323 Q 53.971 41.402 53.77 41.402 Q 53.4 41.402 53.243 41.183 Q 53.086 40.965 53.086 40.685 Q 53.086 40.382 53.288 40.158 Q 53.49 39.934 53.87 39.934 Q 54.352 39.934 54.604 40.231 Q 54.856 40.528 54.856 41.054 Q 54.856 41.592 54.688 41.967 Q 54.52 42.342 54.268 42.583 Q 54.016 42.824 53.753 42.964 Q 53.49 43.104 53.299 43.194 Z " fill="black" /><path d="M 60.333 39.565 L 60.333 39.565 L 59.952 41.514 L 55.36 41.514 L 55.36 40.965 L 56.95 39.352 Q 57.578 38.725 57.986 38.243 Q 58.395 37.762 58.597 37.274 Q 58.798 36.787 58.798 36.16 Q 58.798 35.566 58.434 35.18 Q 58.07 34.794 57.41 34.794 Q 56.805 34.794 56.396 35.034 Q 55.987 35.275 55.674 35.824 L 55.371 35.678 Q 55.651 34.894 56.239 34.446 Q 56.827 33.998 57.69 33.998 Q 58.362 33.998 58.877 34.239 Q 59.392 34.48 59.683 34.928 Q 59.974 35.376 59.974 36.014 Q 59.974 36.563 59.728 37.045 Q 59.482 37.526 59.028 38.03 Q 58.574 38.534 57.947 39.15 L 56.547 40.506 L 56.547 40.584 L 57.421 40.539 L 58.877 40.539 Q 59.202 40.539 59.375 40.45 Q 59.549 40.36 59.672 40.142 Q 59.795 39.923 59.941 39.565 Z " fill="black" /><path d="M 65.157 36.154 L 65.157 36.154 L 69.525 29.594 Q 69.749 29.274 69.885 29.002 Q 70.021 28.73 70.021 28.538 Q 70.021 28.298 69.813 28.21 Q 69.605 28.122 69.061 28.122 L 69.093 27.642 L 72.549 27.642 L 72.517 28.122 Q 72.085 28.122 71.781 28.25 Q 71.477 28.378 71.165 28.738 Q 70.853 29.098 70.357 29.834 L 64.485 38.234 L 63.957 38.234 L 63.061 29.578 Q 62.965 28.778 62.709 28.45 Q 62.453 28.122 61.813 28.122 L 61.845 27.642 L 65.765 27.642 L 65.717 28.122 Q 65.109 28.122 64.757 28.362 Q 64.405 28.602 64.437 29.146 Q 64.437 29.226 64.461 29.434 Q 64.485 29.642 64.485 29.722 L 64.965 34.282 L 65.077 36.154 Z " fill="black" /><path d="M 70.632 39.262 L 70.632 39.262 L 70.632 39.218 Q 70.24 38.982 69.966 38.607 Q 69.691 38.232 69.691 37.638 Q 69.691 37.011 69.994 36.563 Q 70.296 36.115 70.811 35.874 Q 71.326 35.634 71.965 35.634 Q 72.558 35.634 72.934 35.762 Q 73.309 35.891 73.309 35.891 L 74.955 35.846 L 74.955 36.507 L 73.779 36.485 L 73.779 36.563 Q 73.925 36.765 74.082 37.039 Q 74.238 37.314 74.238 37.806 Q 74.238 38.366 73.942 38.775 Q 73.645 39.184 73.146 39.402 Q 72.648 39.621 72.021 39.621 Q 71.45 39.621 70.946 39.419 Q 70.867 39.565 70.761 39.834 Q 70.654 40.102 70.654 40.293 Q 70.654 40.528 70.929 40.64 Q 71.203 40.752 72.021 40.752 Q 72.626 40.752 73.141 40.78 Q 73.656 40.808 74.037 40.937 Q 74.418 41.066 74.625 41.351 Q 74.832 41.637 74.832 42.163 Q 74.832 42.768 74.524 43.188 Q 74.216 43.608 73.712 43.866 Q 73.208 44.123 72.62 44.241 Q 72.032 44.358 71.461 44.358 Q 70.643 44.358 70.195 44.157 Q 69.747 43.955 69.574 43.642 Q 69.4 43.328 69.4 43.003 Q 69.4 42.69 69.618 42.382 Q 69.837 42.074 70.318 41.626 L 70.318 41.57 Q 70.038 41.424 69.848 41.178 Q 69.658 40.931 69.658 40.696 Q 69.658 40.36 69.954 39.985 Q 70.251 39.61 70.632 39.262 Z M 70.688 41.682 L 70.688 41.682 Q 70.498 42.006 70.43 42.197 Q 70.363 42.387 70.363 42.578 Q 70.363 43.093 70.783 43.356 Q 71.203 43.619 72.088 43.619 Q 72.816 43.619 73.264 43.44 Q 73.712 43.261 73.925 43.009 Q 74.138 42.757 74.138 42.522 Q 74.138 42.219 73.942 42.051 Q 73.746 41.883 73.443 41.81 Q 73.141 41.738 72.805 41.715 Q 72.469 41.693 72.178 41.693 Q 72.099 41.693 72.054 41.693 Q 71.338 41.693 71.074 41.687 Q 70.811 41.682 70.688 41.682 Z M 71.898 36.126 L 71.898 36.126 Q 71.416 36.126 71.119 36.451 Q 70.822 36.776 70.822 37.571 Q 70.822 38.355 71.136 38.758 Q 71.45 39.162 72.021 39.162 Q 72.323 39.162 72.57 39.038 Q 72.816 38.915 72.967 38.59 Q 73.118 38.266 73.118 37.672 Q 73.118 36.91 72.788 36.518 Q 72.458 36.126 71.898 36.126 Z " fill="black" /><path d="M 75.941 39.475 L 75.941 39.475 L 76.299 39.475 Q 76.445 40.125 76.646 40.483 Q 76.848 40.842 77.167 40.982 Q 77.486 41.122 77.946 41.122 Q 78.472 41.122 78.758 40.948 Q 79.043 40.774 79.043 40.338 Q 79.043 40.046 78.903 39.85 Q 78.763 39.654 78.455 39.475 Q 78.147 39.296 77.632 39.061 Q 77.106 38.803 76.73 38.579 Q 76.355 38.355 76.159 38.053 Q 75.963 37.75 75.963 37.291 Q 75.963 36.485 76.506 36.059 Q 77.05 35.634 77.867 35.634 Q 78.36 35.634 78.702 35.757 Q 79.043 35.88 79.245 35.97 L 79.267 35.97 L 79.446 35.69 L 79.76 35.69 L 79.782 37.549 L 79.39 37.549 Q 79.178 36.686 78.797 36.39 Q 78.416 36.093 77.923 36.093 Q 77.408 36.093 77.145 36.317 Q 76.882 36.541 76.882 36.899 Q 76.882 37.19 77.061 37.381 Q 77.24 37.571 77.57 37.734 Q 77.901 37.896 78.36 38.12 Q 78.875 38.366 79.267 38.63 Q 79.659 38.893 79.883 39.223 Q 80.107 39.554 80.107 40.046 Q 80.107 40.64 79.794 40.998 Q 79.48 41.357 78.987 41.508 Q 78.494 41.659 77.957 41.659 Q 77.408 41.659 77.106 41.547 Q 76.803 41.435 76.546 41.334 L 76.501 41.334 L 76.221 41.626 L 75.963 41.626 Z " fill="black" /><path d="M 85.506 41.514 L 85.506 41.514 L 81.709 41.514 L 81.709 41.11 Q 82.515 41.11 82.778 40.948 Q 83.042 40.786 83.042 40.36 L 83.042 35.477 Q 83.042 35.174 82.952 35.04 Q 82.862 34.906 82.627 34.906 Q 82.448 34.906 82.14 34.956 Q 81.832 35.006 81.608 35.062 L 81.608 34.614 L 83.68 34.043 L 84.162 34.043 L 84.162 40.36 Q 84.162 40.786 84.447 40.948 Q 84.733 41.11 85.506 41.11 Z " fill="black" /></g></g></g><circle cx="107.99999999999999" cy="-72.0" r="2.6999999999999997" style="stroke:black;fill:black;stroke-width:2.0;stroke-dasharray:-;" /><g><g><g><path d="M 69.474 -114.16 L 69.474 -114.16 L 69.378 -113.344 L 67.986 -113.504 L 67.986 -113.456 Q 68.258 -113.152 68.41 -112.696 Q 68.562 -112.24 68.562 -111.824 Q 68.562 -111.104 68.274 -110.616 Q 67.986 -110.128 67.522 -109.832 Q 67.058 -109.536 66.498 -109.384 Q 65.938 -109.232 65.41 -109.184 Q 64.77 -109.12 64.506 -108.912 Q 64.242 -108.704 64.242 -108.48 Q 64.242 -108.192 64.562 -108.04 Q 64.882 -107.888 65.386 -107.792 Q 65.89 -107.696 66.466 -107.576 Q 67.042 -107.456 67.546 -107.248 Q 68.05 -107.04 68.37 -106.664 Q 68.69 -106.288 68.69 -105.664 Q 68.69 -104.976 68.242 -104.392 Q 67.794 -103.808 66.914 -103.448 Q 66.034 -103.088 64.754 -103.088 Q 63.602 -103.088 62.914 -103.368 Q 62.226 -103.648 61.922 -104.088 Q 61.618 -104.528 61.618 -105.008 Q 61.618 -105.776 62.21 -106.248 Q 62.802 -106.72 63.554 -106.96 L 63.554 -107.024 Q 63.346 -107.152 63.162 -107.384 Q 62.978 -107.616 62.978 -107.984 Q 62.978 -108.384 63.186 -108.624 Q 63.394 -108.864 63.722 -109.016 Q 64.05 -109.168 64.37 -109.28 L 64.37 -109.376 Q 63.746 -109.648 63.282 -110.144 Q 62.818 -110.64 62.818 -111.552 Q 62.818 -112.384 63.218 -113.016 Q 63.618 -113.648 64.314 -114 Q 65.01 -114.352 65.874 -114.352 Q 66.45 -114.352 66.746 -114.296 Q 67.042 -114.24 67.33 -114.16 Z M 67.538 -105.072 L 67.538 -105.072 Q 67.538 -105.552 67.138 -105.848 Q 66.738 -106.144 66.146 -106.32 Q 65.554 -106.496 64.954 -106.6 Q 64.354 -106.704 63.938 -106.784 Q 63.538 -106.528 63.202 -106.2 Q 62.866 -105.872 62.866 -105.248 Q 62.866 -104.608 63.362 -104.128 Q 63.858 -103.648 65.074 -103.648 Q 66.226 -103.648 66.882 -104.072 Q 67.538 -104.496 67.538 -105.072 Z M 67.138 -112 L 67.138 -112 Q 67.138 -112.8 66.834 -113.336 Q 66.53 -113.872 65.826 -113.872 Q 65.138 -113.872 64.69 -113.296 Q 64.242 -112.72 64.242 -111.552 Q 64.242 -110.72 64.53 -110.2 Q 64.818 -109.68 65.506 -109.68 Q 66.306 -109.68 66.722 -110.352 Q 67.138 -111.024 67.138 -112 Z " fill="black" /><path d="M 72.206 -107.662 L 72.206 -107.662 L 72.206 -104.56 Q 72.206 -104.224 72.274 -104.045 Q 72.341 -103.866 72.531 -103.804 Q 72.722 -103.742 73.091 -103.742 L 73.091 -103.328 L 70.269 -103.328 L 70.269 -103.742 Q 70.627 -103.742 70.806 -103.804 Q 70.986 -103.866 71.042 -104.05 Q 71.098 -104.235 71.098 -104.582 L 71.098 -107.976 Q 71.098 -108.29 70.98 -108.396 Q 70.862 -108.502 70.605 -108.502 Q 70.482 -108.502 70.386 -108.491 Q 70.291 -108.48 70.291 -108.48 L 70.291 -108.906 L 71.758 -109.174 L 72.173 -109.174 L 72.173 -108.256 L 72.251 -108.256 Q 72.722 -108.682 73.192 -108.945 Q 73.662 -109.208 74.301 -109.208 Q 74.827 -109.208 75.158 -108.939 Q 75.488 -108.67 75.667 -108.278 L 75.723 -108.278 Q 76.742 -109.208 77.683 -109.208 Q 78.445 -109.208 78.887 -108.738 Q 79.33 -108.267 79.33 -107.248 L 79.33 -104.784 Q 79.33 -104.403 79.374 -104.174 Q 79.419 -103.944 79.598 -103.843 Q 79.778 -103.742 80.181 -103.742 L 80.181 -103.328 L 77.37 -103.328 L 77.37 -103.742 Q 77.784 -103.742 77.969 -103.849 Q 78.154 -103.955 78.198 -104.185 Q 78.243 -104.414 78.243 -104.784 L 78.243 -107.114 Q 78.243 -107.819 77.958 -108.099 Q 77.672 -108.379 77.224 -108.379 Q 76.843 -108.379 76.462 -108.15 Q 76.082 -107.92 75.79 -107.696 L 75.79 -104.784 Q 75.79 -104.37 75.841 -104.14 Q 75.891 -103.91 76.087 -103.826 Q 76.283 -103.742 76.698 -103.742 L 76.698 -103.328 L 73.774 -103.328 L 73.774 -103.742 Q 74.2 -103.742 74.396 -103.826 Q 74.592 -103.91 74.648 -104.14 Q 74.704 -104.37 74.704 -104.784 L 74.704 -107.147 Q 74.704 -107.853 74.452 -108.116 Q 74.2 -108.379 73.763 -108.379 Q 73.304 -108.379 72.884 -108.133 Q 72.464 -107.886 72.206 -107.662 Z " fill="black" /><path d="M 81.614 -109.152 L 81.614 -109.152 L 81.29 -109.309 Q 81.626 -110.07 82.18 -110.457 Q 82.734 -110.843 83.429 -110.843 Q 84.325 -110.843 84.874 -110.406 Q 85.422 -109.97 85.422 -109.275 Q 85.422 -108.67 85.053 -108.301 Q 84.683 -107.931 84.134 -107.573 L 84.134 -107.517 Q 84.605 -107.394 85.002 -107.147 Q 85.4 -106.901 85.635 -106.514 Q 85.87 -106.128 85.87 -105.579 Q 85.87 -104.963 85.602 -104.51 Q 85.333 -104.056 84.874 -103.759 Q 84.414 -103.462 83.826 -103.322 Q 83.238 -103.182 82.6 -103.182 Q 82.051 -103.182 81.766 -103.278 Q 81.48 -103.373 81.374 -103.53 Q 81.267 -103.686 81.267 -103.843 Q 81.267 -104.034 81.379 -104.218 Q 81.491 -104.403 81.76 -104.403 Q 81.872 -104.403 81.99 -104.342 Q 82.107 -104.28 82.421 -104.101 Q 82.678 -103.978 82.83 -103.91 Q 82.981 -103.843 83.098 -103.821 Q 83.216 -103.798 83.373 -103.798 Q 83.709 -103.798 84.039 -103.922 Q 84.37 -104.045 84.594 -104.364 Q 84.818 -104.683 84.818 -105.266 Q 84.818 -105.781 84.532 -106.15 Q 84.246 -106.52 83.765 -106.727 Q 83.283 -106.934 82.701 -106.934 L 82.454 -106.934 L 82.454 -107.461 L 82.69 -107.461 Q 83.093 -107.461 83.474 -107.646 Q 83.854 -107.83 84.101 -108.172 Q 84.347 -108.514 84.347 -108.984 Q 84.347 -109.51 84.006 -109.779 Q 83.664 -110.048 83.138 -110.048 Q 82.163 -110.048 81.614 -109.152 Z " fill="black" /><path d="M 87.494 -101.648 L 87.494 -101.648 L 87.304 -102.018 Q 87.539 -102.118 87.786 -102.281 Q 88.032 -102.443 88.194 -102.74 Q 88.357 -103.037 88.357 -103.518 Q 88.166 -103.44 87.965 -103.44 Q 87.595 -103.44 87.438 -103.658 Q 87.282 -103.877 87.282 -104.157 Q 87.282 -104.459 87.483 -104.683 Q 87.685 -104.907 88.066 -104.907 Q 88.547 -104.907 88.799 -104.61 Q 89.051 -104.314 89.051 -103.787 Q 89.051 -103.25 88.883 -102.874 Q 88.715 -102.499 88.463 -102.258 Q 88.211 -102.018 87.948 -101.878 Q 87.685 -101.738 87.494 -101.648 Z " fill="black" /><path d="M 95.066 -105.098 L 95.066 -105.098 L 93.845 -105.098 L 93.845 -103.328 L 92.736 -103.328 L 92.736 -105.098 L 89.443 -105.098 L 89.443 -105.949 L 93.038 -110.832 L 93.845 -110.832 L 93.845 -106.016 L 95.066 -106.016 Z M 92.736 -106.016 L 92.736 -106.016 L 92.736 -109.477 L 92.669 -109.477 L 90.205 -106.083 L 90.205 -106.016 Z " fill="black" /></g></g></g><g><g><g><path d="M 155.254 -108.302 L 155.254 -108.302 L 154.742 -105.742 L 148.438 -105.742 L 148.438 -106.286 L 150.87 -108.718 Q 151.67 -109.534 152.198 -110.198 Q 152.726 -110.862 152.99 -111.534 Q 153.254 -112.206 153.254 -113.038 Q 153.254 -113.934 152.718 -114.47 Q 152.182 -115.006 151.254 -115.006 Q 150.47 -115.006 149.918 -114.67 Q 149.366 -114.334 148.918 -113.438 L 148.534 -113.598 Q 148.902 -114.766 149.702 -115.406 Q 150.502 -116.046 151.67 -116.046 Q 152.582 -116.046 153.27 -115.702 Q 153.958 -115.358 154.35 -114.742 Q 154.742 -114.126 154.742 -113.278 Q 154.742 -112.574 154.446 -111.926 Q 154.15 -111.278 153.566 -110.59 Q 152.982 -109.902 152.134 -109.038 L 150.022 -107.038 L 150.022 -106.958 L 151.142 -107.006 L 153.366 -107.006 Q 154.006 -107.006 154.262 -107.294 Q 154.518 -107.582 154.79 -108.302 Z " fill="black" /><path d="M 162.505 -109.822 L 162.505 -109.822 Q 162.505 -109.454 162.257 -109.182 Q 162.009 -108.91 161.545 -108.91 Q 161.081 -108.91 160.849 -109.174 Q 160.617 -109.438 160.617 -109.838 Q 160.617 -110.238 160.865 -110.526 Q 161.113 -110.814 161.561 -110.814 Q 162.025 -110.814 162.265 -110.518 Q 162.505 -110.222 162.505 -109.822 Z " fill="black" /><path d="M 176.443 -108.062 L 176.443 -108.062 L 176.731 -107.758 Q 175.915 -106.798 174.843 -106.182 Q 173.771 -105.566 172.251 -105.566 Q 170.811 -105.566 169.947 -106.102 Q 169.083 -106.638 168.707 -107.534 Q 168.331 -108.43 168.331 -109.486 Q 168.331 -111.166 168.843 -112.47 Q 169.355 -113.774 170.243 -114.662 Q 171.131 -115.55 172.251 -116.006 Q 173.371 -116.462 174.587 -116.462 Q 175.403 -116.462 175.859 -116.318 Q 176.315 -116.174 176.571 -116.022 Q 176.827 -115.87 177.019 -115.87 Q 177.211 -115.87 177.355 -116.03 Q 177.499 -116.19 177.691 -116.446 L 178.155 -116.446 L 177.403 -112.782 L 176.875 -112.782 Q 176.939 -114.382 176.283 -115.078 Q 175.627 -115.774 174.443 -115.774 Q 173.515 -115.774 172.699 -115.35 Q 171.883 -114.926 171.251 -114.15 Q 170.619 -113.374 170.259 -112.294 Q 169.899 -111.214 169.899 -109.886 Q 169.899 -108.286 170.659 -107.446 Q 171.419 -106.606 173.003 -106.606 Q 174.843 -106.606 176.443 -108.062 Z " fill="black" /><path d="M 179.278 -104.634 L 179.278 -104.634 L 179.278 -104.678 Q 178.886 -104.914 178.612 -105.289 Q 178.338 -105.664 178.338 -106.258 Q 178.338 -106.885 178.64 -107.333 Q 178.942 -107.781 179.458 -108.022 Q 179.973 -108.262 180.611 -108.262 Q 181.205 -108.262 181.58 -108.134 Q 181.955 -108.005 181.955 -108.005 L 183.602 -108.05 L 183.602 -107.389 L 182.426 -107.411 L 182.426 -107.333 Q 182.571 -107.131 182.728 -106.857 Q 182.885 -106.582 182.885 -106.09 Q 182.885 -105.53 182.588 -105.121 Q 182.291 -104.712 181.793 -104.494 Q 181.294 -104.275 180.667 -104.275 Q 180.096 -104.275 179.592 -104.477 Q 179.514 -104.331 179.407 -104.062 Q 179.301 -103.794 179.301 -103.603 Q 179.301 -103.368 179.575 -103.256 Q 179.85 -103.144 180.667 -103.144 Q 181.272 -103.144 181.787 -103.116 Q 182.302 -103.088 182.683 -102.959 Q 183.064 -102.83 183.271 -102.545 Q 183.478 -102.259 183.478 -101.733 Q 183.478 -101.128 183.17 -100.708 Q 182.862 -100.288 182.358 -100.03 Q 181.854 -99.773 181.266 -99.655 Q 180.678 -99.538 180.107 -99.538 Q 179.29 -99.538 178.842 -99.739 Q 178.394 -99.941 178.22 -100.254 Q 178.046 -100.568 178.046 -100.893 Q 178.046 -101.206 178.265 -101.514 Q 178.483 -101.822 178.965 -102.27 L 178.965 -102.326 Q 178.685 -102.472 178.494 -102.718 Q 178.304 -102.965 178.304 -103.2 Q 178.304 -103.536 178.601 -103.911 Q 178.898 -104.286 179.278 -104.634 Z M 179.334 -102.214 L 179.334 -102.214 Q 179.144 -101.89 179.077 -101.699 Q 179.01 -101.509 179.01 -101.318 Q 179.01 -100.803 179.43 -100.54 Q 179.85 -100.277 180.734 -100.277 Q 181.462 -100.277 181.91 -100.456 Q 182.358 -100.635 182.571 -100.887 Q 182.784 -101.139 182.784 -101.374 Q 182.784 -101.677 182.588 -101.845 Q 182.392 -102.013 182.09 -102.086 Q 181.787 -102.158 181.451 -102.181 Q 181.115 -102.203 180.824 -102.203 Q 180.746 -102.203 180.701 -102.203 Q 179.984 -102.203 179.721 -102.209 Q 179.458 -102.214 179.334 -102.214 Z M 180.544 -107.77 L 180.544 -107.77 Q 180.062 -107.77 179.766 -107.445 Q 179.469 -107.12 179.469 -106.325 Q 179.469 -105.541 179.782 -105.138 Q 180.096 -104.734 180.667 -104.734 Q 180.97 -104.734 181.216 -104.858 Q 181.462 -104.981 181.614 -105.306 Q 181.765 -105.63 181.765 -106.224 Q 181.765 -106.986 181.434 -107.378 Q 181.104 -107.77 180.544 -107.77 Z " fill="black" /><path d="M 184.587 -104.421 L 184.587 -104.421 L 184.946 -104.421 Q 185.091 -103.771 185.293 -103.413 Q 185.494 -103.054 185.814 -102.914 Q 186.133 -102.774 186.592 -102.774 Q 187.118 -102.774 187.404 -102.948 Q 187.69 -103.122 187.69 -103.558 Q 187.69 -103.85 187.55 -104.046 Q 187.41 -104.242 187.102 -104.421 Q 186.794 -104.6 186.278 -104.835 Q 185.752 -105.093 185.377 -105.317 Q 185.002 -105.541 184.806 -105.843 Q 184.61 -106.146 184.61 -106.605 Q 184.61 -107.411 185.153 -107.837 Q 185.696 -108.262 186.514 -108.262 Q 187.006 -108.262 187.348 -108.139 Q 187.69 -108.016 187.891 -107.926 L 187.914 -107.926 L 188.093 -108.206 L 188.406 -108.206 L 188.429 -106.347 L 188.037 -106.347 Q 187.824 -107.21 187.443 -107.506 Q 187.062 -107.803 186.57 -107.803 Q 186.054 -107.803 185.791 -107.579 Q 185.528 -107.355 185.528 -106.997 Q 185.528 -106.706 185.707 -106.515 Q 185.886 -106.325 186.217 -106.162 Q 186.547 -106 187.006 -105.776 Q 187.522 -105.53 187.914 -105.266 Q 188.306 -105.003 188.53 -104.673 Q 188.754 -104.342 188.754 -103.85 Q 188.754 -103.256 188.44 -102.898 Q 188.126 -102.539 187.634 -102.388 Q 187.141 -102.237 186.603 -102.237 Q 186.054 -102.237 185.752 -102.349 Q 185.45 -102.461 185.192 -102.562 L 185.147 -102.562 L 184.867 -102.27 L 184.61 -102.27 Z " fill="black" /><path d="M 190.254 -108.206 L 190.254 -108.206 L 189.93 -108.363 Q 190.266 -109.125 190.82 -109.511 Q 191.374 -109.898 192.069 -109.898 Q 192.965 -109.898 193.514 -109.461 Q 194.062 -109.024 194.062 -108.33 Q 194.062 -107.725 193.693 -107.355 Q 193.323 -106.986 192.774 -106.627 L 192.774 -106.571 Q 193.245 -106.448 193.642 -106.202 Q 194.04 -105.955 194.275 -105.569 Q 194.51 -105.182 194.51 -104.634 Q 194.51 -104.018 194.242 -103.564 Q 193.973 -103.11 193.514 -102.814 Q 193.054 -102.517 192.466 -102.377 Q 191.878 -102.237 191.24 -102.237 Q 190.691 -102.237 190.406 -102.332 Q 190.12 -102.427 190.014 -102.584 Q 189.907 -102.741 189.907 -102.898 Q 189.907 -103.088 190.019 -103.273 Q 190.131 -103.458 190.4 -103.458 Q 190.512 -103.458 190.63 -103.396 Q 190.747 -103.334 191.061 -103.155 Q 191.318 -103.032 191.47 -102.965 Q 191.621 -102.898 191.738 -102.875 Q 191.856 -102.853 192.013 -102.853 Q 192.349 -102.853 192.679 -102.976 Q 193.01 -103.099 193.234 -103.418 Q 193.458 -103.738 193.458 -104.32 Q 193.458 -104.835 193.172 -105.205 Q 192.886 -105.574 192.405 -105.782 Q 191.923 -105.989 191.341 -105.989 L 191.094 -105.989 L 191.094 -106.515 L 191.33 -106.515 Q 191.733 -106.515 192.114 -106.7 Q 192.494 -106.885 192.741 -107.226 Q 192.987 -107.568 192.987 -108.038 Q 192.987 -108.565 192.646 -108.834 Q 192.304 -109.102 191.778 -109.102 Q 190.803 -109.102 190.254 -108.206 Z " fill="black" /><path d="M 196.134 -100.702 L 196.134 -100.702 L 195.944 -101.072 Q 196.179 -101.173 196.426 -101.335 Q 196.672 -101.498 196.834 -101.794 Q 196.997 -102.091 196.997 -102.573 Q 196.806 -102.494 196.605 -102.494 Q 196.235 -102.494 196.078 -102.713 Q 195.922 -102.931 195.922 -103.211 Q 195.922 -103.514 196.123 -103.738 Q 196.325 -103.962 196.706 -103.962 Q 197.187 -103.962 197.439 -103.665 Q 197.691 -103.368 197.691 -102.842 Q 197.691 -102.304 197.523 -101.929 Q 197.355 -101.554 197.103 -101.313 Q 196.851 -101.072 196.588 -100.932 Q 196.325 -100.792 196.134 -100.702 Z " fill="black" /><path d="M 203.706 -104.152 L 203.706 -104.152 L 202.485 -104.152 L 202.485 -102.382 L 201.376 -102.382 L 201.376 -104.152 L 198.083 -104.152 L 198.083 -105.003 L 201.678 -109.886 L 202.485 -109.886 L 202.485 -105.07 L 203.706 -105.07 Z M 201.376 -105.07 L 201.376 -105.07 L 201.376 -108.531 L 201.309 -108.531 L 198.845 -105.138 L 198.845 -105.07 Z " fill="black" /></g></g></g><g><g><g><path d="M 287.278 30.682 L 287.278 30.682 L 287.182 31.498 L 285.79 31.338 L 285.79 31.386 Q 286.062 31.69 286.214 32.146 Q 286.366 32.602 286.366 33.018 Q 286.366 33.738 286.078 34.226 Q 285.79 34.714 285.326 35.01 Q 284.862 35.306 284.302 35.458 Q 283.742 35.61 283.214 35.658 Q 282.574 35.722 282.31 35.93 Q 282.046 36.138 282.046 36.362 Q 282.046 36.65 282.366 36.802 Q 282.686 36.954 283.19 37.05 Q 283.694 37.146 284.27 37.266 Q 284.846 37.386 285.35 37.594 Q 285.854 37.802 286.174 38.178 Q 286.494 38.554 286.494 39.178 Q 286.494 39.866 286.046 40.45 Q 285.598 41.034 284.718 41.394 Q 283.838 41.754 282.558 41.754 Q 281.406 41.754 280.718 41.474 Q 280.03 41.194 279.726 40.754 Q 279.422 40.314 279.422 39.834 Q 279.422 39.066 280.014 38.594 Q 280.606 38.122 281.358 37.882 L 281.358 37.818 Q 281.15 37.69 280.966 37.458 Q 280.782 37.226 280.782 36.858 Q 280.782 36.458 280.99 36.218 Q 281.198 35.978 281.526 35.826 Q 281.854 35.674 282.174 35.562 L 282.174 35.466 Q 281.55 35.194 281.086 34.698 Q 280.622 34.202 280.622 33.29 Q 280.622 32.458 281.022 31.826 Q 281.422 31.194 282.118 30.842 Q 282.814 30.49 283.678 30.49 Q 284.254 30.49 284.55 30.546 Q 284.846 30.602 285.134 30.682 Z M 285.342 39.77 L 285.342 39.77 Q 285.342 39.29 284.942 38.994 Q 284.542 38.698 283.95 38.522 Q 283.358 38.346 282.758 38.242 Q 282.158 38.138 281.742 38.058 Q 281.342 38.314 281.006 38.642 Q 280.67 38.97 280.67 39.594 Q 280.67 40.234 281.166 40.714 Q 281.662 41.194 282.878 41.194 Q 284.03 41.194 284.686 40.77 Q 285.342 40.346 285.342 39.77 Z M 284.942 32.842 L 284.942 32.842 Q 284.942 32.042 284.638 31.506 Q 284.334 30.97 283.63 30.97 Q 282.942 30.97 282.494 31.546 Q 282.046 32.122 282.046 33.29 Q 282.046 34.122 282.334 34.642 Q 282.622 35.162 283.31 35.162 Q 284.11 35.162 284.526 34.49 Q 284.942 33.818 284.942 32.842 Z " fill="black" /><path d="M 290.011 37.179 L 290.011 37.179 L 290.011 40.282 Q 290.011 40.618 290.078 40.797 Q 290.146 40.976 290.336 41.038 Q 290.526 41.099 290.896 41.099 L 290.896 41.514 L 288.074 41.514 L 288.074 41.099 Q 288.432 41.099 288.611 41.038 Q 288.79 40.976 288.846 40.791 Q 288.902 40.606 288.902 40.259 L 288.902 36.866 Q 288.902 36.552 288.785 36.446 Q 288.667 36.339 288.41 36.339 Q 288.286 36.339 288.191 36.35 Q 288.096 36.362 288.096 36.362 L 288.096 35.936 L 289.563 35.667 L 289.978 35.667 L 289.978 36.586 L 290.056 36.586 Q 290.526 36.16 290.997 35.897 Q 291.467 35.634 292.106 35.634 Q 292.632 35.634 292.962 35.902 Q 293.293 36.171 293.472 36.563 L 293.528 36.563 Q 294.547 35.634 295.488 35.634 Q 296.25 35.634 296.692 36.104 Q 297.134 36.574 297.134 37.594 L 297.134 40.058 Q 297.134 40.438 297.179 40.668 Q 297.224 40.898 297.403 40.998 Q 297.582 41.099 297.986 41.099 L 297.986 41.514 L 295.174 41.514 L 295.174 41.099 Q 295.589 41.099 295.774 40.993 Q 295.958 40.886 296.003 40.657 Q 296.048 40.427 296.048 40.058 L 296.048 37.728 Q 296.048 37.022 295.762 36.742 Q 295.477 36.462 295.029 36.462 Q 294.648 36.462 294.267 36.692 Q 293.886 36.922 293.595 37.146 L 293.595 40.058 Q 293.595 40.472 293.646 40.702 Q 293.696 40.931 293.892 41.015 Q 294.088 41.099 294.502 41.099 L 294.502 41.514 L 291.579 41.514 L 291.579 41.099 Q 292.005 41.099 292.201 41.015 Q 292.397 40.931 292.453 40.702 Q 292.509 40.472 292.509 40.058 L 292.509 37.694 Q 292.509 36.989 292.257 36.726 Q 292.005 36.462 291.568 36.462 Q 291.109 36.462 290.689 36.709 Q 290.269 36.955 290.011 37.179 Z " fill="black" /><path d="M 303.317 41.514 L 303.317 41.514 L 299.52 41.514 L 299.52 41.11 Q 300.326 41.11 300.59 40.948 Q 300.853 40.786 300.853 40.36 L 300.853 35.477 Q 300.853 35.174 300.763 35.04 Q 300.674 34.906 300.438 34.906 Q 300.259 34.906 299.951 34.956 Q 299.643 35.006 299.419 35.062 L 299.419 34.614 L 301.491 34.043 L 301.973 34.043 L 301.973 40.36 Q 301.973 40.786 302.258 40.948 Q 302.544 41.11 303.317 41.11 Z " fill="black" /><path d="M 305.131 43.194 L 305.131 43.194 L 304.941 42.824 Q 305.176 42.723 305.422 42.561 Q 305.669 42.398 305.831 42.102 Q 305.994 41.805 305.994 41.323 Q 305.803 41.402 305.602 41.402 Q 305.232 41.402 305.075 41.183 Q 304.918 40.965 304.918 40.685 Q 304.918 40.382 305.12 40.158 Q 305.322 39.934 305.702 39.934 Q 306.184 39.934 306.436 40.231 Q 306.688 40.528 306.688 41.054 Q 306.688 41.592 306.52 41.967 Q 306.352 42.342 306.1 42.583 Q 305.848 42.824 305.585 42.964 Q 305.322 43.104 305.131 43.194 Z " fill="black" /><path d="M 312.165 39.565 L 312.165 39.565 L 311.784 41.514 L 307.192 41.514 L 307.192 40.965 L 308.782 39.352 Q 309.41 38.725 309.818 38.243 Q 310.227 37.762 310.429 37.274 Q 310.63 36.787 310.63 36.16 Q 310.63 35.566 310.266 35.18 Q 309.902 34.794 309.242 34.794 Q 308.637 34.794 308.228 35.034 Q 307.819 35.275 307.506 35.824 L 307.203 35.678 Q 307.483 34.894 308.071 34.446 Q 308.659 33.998 309.522 33.998 Q 310.194 33.998 310.709 34.239 Q 311.224 34.48 311.515 34.928 Q 311.806 35.376 311.806 36.014 Q 311.806 36.563 311.56 37.045 Q 311.314 37.526 310.86 38.03 Q 310.406 38.534 309.779 39.15 L 308.379 40.506 L 308.379 40.584 L 309.253 40.539 L 310.709 40.539 Q 311.034 40.539 311.207 40.45 Q 311.381 40.36 311.504 40.142 Q 311.627 39.923 311.773 39.565 Z " fill="black" /><path d="M 316.989 36.154 L 316.989 36.154 L 321.357 29.594 Q 321.581 29.274 321.717 29.002 Q 321.853 28.73 321.853 28.538 Q 321.853 28.298 321.645 28.21 Q 321.437 28.122 320.893 28.122 L 320.925 27.642 L 324.381 27.642 L 324.349 28.122 Q 323.917 28.122 323.613 28.25 Q 323.309 28.378 322.997 28.738 Q 322.685 29.098 322.189 29.834 L 316.317 38.234 L 315.789 38.234 L 314.893 29.578 Q 314.797 28.778 314.541 28.45 Q 314.285 28.122 313.645 28.122 L 313.677 27.642 L 317.597 27.642 L 317.549 28.122 Q 316.941 28.122 316.589 28.362 Q 316.237 28.602 316.269 29.146 Q 316.269 29.226 316.293 29.434 Q 316.317 29.642 316.317 29.722 L 316.797 34.282 L 316.909 36.154 Z " fill="black" /><path d="M 322.464 39.262 L 322.464 39.262 L 322.464 39.218 Q 322.072 38.982 321.798 38.607 Q 321.523 38.232 321.523 37.638 Q 321.523 37.011 321.826 36.563 Q 322.128 36.115 322.643 35.874 Q 323.158 35.634 323.797 35.634 Q 324.39 35.634 324.766 35.762 Q 325.141 35.891 325.141 35.891 L 326.787 35.846 L 326.787 36.507 L 325.611 36.485 L 325.611 36.563 Q 325.757 36.765 325.914 37.039 Q 326.07 37.314 326.07 37.806 Q 326.07 38.366 325.774 38.775 Q 325.477 39.184 324.978 39.402 Q 324.48 39.621 323.853 39.621 Q 323.282 39.621 322.778 39.419 Q 322.699 39.565 322.593 39.834 Q 322.486 40.102 322.486 40.293 Q 322.486 40.528 322.761 40.64 Q 323.035 40.752 323.853 40.752 Q 324.458 40.752 324.973 40.78 Q 325.488 40.808 325.869 40.937 Q 326.25 41.066 326.457 41.351 Q 326.664 41.637 326.664 42.163 Q 326.664 42.768 326.356 43.188 Q 326.048 43.608 325.544 43.866 Q 325.04 44.123 324.452 44.241 Q 323.864 44.358 323.293 44.358 Q 322.475 44.358 322.027 44.157 Q 321.579 43.955 321.406 43.642 Q 321.232 43.328 321.232 43.003 Q 321.232 42.69 321.45 42.382 Q 321.669 42.074 322.15 41.626 L 322.15 41.57 Q 321.87 41.424 321.68 41.178 Q 321.49 40.931 321.49 40.696 Q 321.49 40.36 321.786 39.985 Q 322.083 39.61 322.464 39.262 Z M 322.52 41.682 L 322.52 41.682 Q 322.33 42.006 322.262 42.197 Q 322.195 42.387 322.195 42.578 Q 322.195 43.093 322.615 43.356 Q 323.035 43.619 323.92 43.619 Q 324.648 43.619 325.096 43.44 Q 325.544 43.261 325.757 43.009 Q 325.97 42.757 325.97 42.522 Q 325.97 42.219 325.774 42.051 Q 325.578 41.883 325.275 41.81 Q 324.973 41.738 324.637 41.715 Q 324.301 41.693 324.01 41.693 Q 323.931 41.693 323.886 41.693 Q 323.17 41.693 322.906 41.687 Q 322.643 41.682 322.52 41.682 Z M 323.73 36.126 L 323.73 36.126 Q 323.248 36.126 322.951 36.451 Q 322.654 36.776 322.654 37.571 Q 322.654 38.355 322.968 38.758 Q 323.282 39.162 323.853 39.162 Q 324.155 39.162 324.402 39.038 Q 324.648 38.915 324.799 38.59 Q 324.95 38.266 324.95 37.672 Q 324.95 36.91 324.62 36.518 Q 324.29 36.126 323.73 36.126 Z " fill="black" /><path d="M 327.773 39.475 L 327.773 39.475 L 328.131 39.475 Q 328.277 40.125 328.478 40.483 Q 328.68 40.842 328.999 40.982 Q 329.318 41.122 329.778 41.122 Q 330.304 41.122 330.59 40.948 Q 330.875 40.774 330.875 40.338 Q 330.875 40.046 330.735 39.85 Q 330.595 39.654 330.287 39.475 Q 329.979 39.296 329.464 39.061 Q 328.938 38.803 328.562 38.579 Q 328.187 38.355 327.991 38.053 Q 327.795 37.75 327.795 37.291 Q 327.795 36.485 328.338 36.059 Q 328.882 35.634 329.699 35.634 Q 330.192 35.634 330.534 35.757 Q 330.875 35.88 331.077 35.97 L 331.099 35.97 L 331.278 35.69 L 331.592 35.69 L 331.614 37.549 L 331.222 37.549 Q 331.01 36.686 330.629 36.39 Q 330.248 36.093 329.755 36.093 Q 329.24 36.093 328.977 36.317 Q 328.714 36.541 328.714 36.899 Q 328.714 37.19 328.893 37.381 Q 329.072 37.571 329.402 37.734 Q 329.733 37.896 330.192 38.12 Q 330.707 38.366 331.099 38.63 Q 331.491 38.893 331.715 39.223 Q 331.939 39.554 331.939 40.046 Q 331.939 40.64 331.626 40.998 Q 331.312 41.357 330.819 41.508 Q 330.326 41.659 329.789 41.659 Q 329.24 41.659 328.938 41.547 Q 328.635 41.435 328.378 41.334 L 328.333 41.334 L 328.053 41.626 L 327.795 41.626 Z " fill="black" /><path d="M 337.976 39.565 L 337.976 39.565 L 337.595 41.514 L 333.003 41.514 L 333.003 40.965 L 334.594 39.352 Q 335.221 38.725 335.63 38.243 Q 336.038 37.762 336.24 37.274 Q 336.442 36.787 336.442 36.16 Q 336.442 35.566 336.078 35.18 Q 335.714 34.794 335.053 34.794 Q 334.448 34.794 334.039 35.034 Q 333.63 35.275 333.317 35.824 L 333.014 35.678 Q 333.294 34.894 333.882 34.446 Q 334.47 33.998 335.333 33.998 Q 336.005 33.998 336.52 34.239 Q 337.035 34.48 337.326 34.928 Q 337.618 35.376 337.618 36.014 Q 337.618 36.563 337.371 37.045 Q 337.125 37.526 336.671 38.03 Q 336.218 38.534 335.59 39.15 L 334.19 40.506 L 334.19 40.584 L 335.064 40.539 L 336.52 40.539 Q 336.845 40.539 337.018 40.45 Q 337.192 40.36 337.315 40.142 Q 337.438 39.923 337.584 39.565 Z " fill="black" /></g></g></g><circle cx="360.0" cy="-36.0" r="2.6999999999999997" style="stroke:black;fill:black;stroke-width:2.0;stroke-dasharray:-;" /><g><g><g><path d="M 286.662 -113.318 L 286.662 -113.318 L 286.566 -112.502 L 285.174 -112.662 L 285.174 -112.614 Q 285.446 -112.31 285.598 -111.854 Q 285.75 -111.398 285.75 -110.982 Q 285.75 -110.262 285.462 -109.774 Q 285.174 -109.286 284.71 -108.99 Q 284.246 -108.694 283.686 -108.542 Q 283.126 -108.39 282.598 -108.342 Q 281.958 -108.278 281.694 -108.07 Q 281.43 -107.862 281.43 -107.638 Q 281.43 -107.35 281.75 -107.198 Q 282.07 -107.046 282.574 -106.95 Q 283.078 -106.854 283.654 -106.734 Q 284.23 -106.614 284.734 -106.406 Q 285.238 -106.198 285.558 -105.822 Q 285.878 -105.446 285.878 -104.822 Q 285.878 -104.134 285.43 -103.55 Q 284.982 -102.966 284.102 -102.606 Q 283.222 -102.246 281.942 -102.246 Q 280.79 -102.246 280.102 -102.526 Q 279.414 -102.806 279.11 -103.246 Q 278.806 -103.686 278.806 -104.166 Q 278.806 -104.934 279.398 -105.406 Q 279.99 -105.878 280.742 -106.118 L 280.742 -106.182 Q 280.534 -106.31 280.35 -106.542 Q 280.166 -106.774 280.166 -107.142 Q 280.166 -107.542 280.374 -107.782 Q 280.582 -108.022 280.91 -108.174 Q 281.238 -108.326 281.558 -108.438 L 281.558 -108.534 Q 280.934 -108.806 280.47 -109.302 Q 280.006 -109.798 280.006 -110.71 Q 280.006 -111.542 280.406 -112.174 Q 280.806 -112.806 281.502 -113.158 Q 282.198 -113.51 283.062 -113.51 Q 283.638 -113.51 283.934 -113.454 Q 284.23 -113.398 284.518 -113.318 Z M 284.726 -104.23 L 284.726 -104.23 Q 284.726 -104.71 284.326 -105.006 Q 283.926 -105.302 283.334 -105.478 Q 282.742 -105.654 282.142 -105.758 Q 281.542 -105.862 281.126 -105.942 Q 280.726 -105.686 280.39 -105.358 Q 280.054 -105.03 280.054 -104.406 Q 280.054 -103.766 280.55 -103.286 Q 281.046 -102.806 282.262 -102.806 Q 283.414 -102.806 284.07 -103.23 Q 284.726 -103.654 284.726 -104.23 Z M 284.326 -111.158 L 284.326 -111.158 Q 284.326 -111.958 284.022 -112.494 Q 283.718 -113.03 283.014 -113.03 Q 282.326 -113.03 281.878 -112.454 Q 281.43 -111.878 281.43 -110.71 Q 281.43 -109.878 281.718 -109.358 Q 282.006 -108.838 282.694 -108.838 Q 283.494 -108.838 283.91 -109.51 Q 284.326 -110.182 284.326 -111.158 Z " fill="black" /><path d="M 289.395 -106.821 L 289.395 -106.821 L 289.395 -103.718 Q 289.395 -103.382 289.462 -103.203 Q 289.53 -103.024 289.72 -102.962 Q 289.91 -102.901 290.28 -102.901 L 290.28 -102.486 L 287.458 -102.486 L 287.458 -102.901 Q 287.816 -102.901 287.995 -102.962 Q 288.174 -103.024 288.23 -103.209 Q 288.286 -103.394 288.286 -103.741 L 288.286 -107.134 Q 288.286 -107.448 288.169 -107.554 Q 288.051 -107.661 287.794 -107.661 Q 287.67 -107.661 287.575 -107.65 Q 287.48 -107.638 287.48 -107.638 L 287.48 -108.064 L 288.947 -108.333 L 289.362 -108.333 L 289.362 -107.414 L 289.44 -107.414 Q 289.91 -107.84 290.381 -108.103 Q 290.851 -108.366 291.49 -108.366 Q 292.016 -108.366 292.346 -108.098 Q 292.677 -107.829 292.856 -107.437 L 292.912 -107.437 Q 293.931 -108.366 294.872 -108.366 Q 295.634 -108.366 296.076 -107.896 Q 296.518 -107.426 296.518 -106.406 L 296.518 -103.942 Q 296.518 -103.562 296.563 -103.332 Q 296.608 -103.102 296.787 -103.002 Q 296.966 -102.901 297.37 -102.901 L 297.37 -102.486 L 294.558 -102.486 L 294.558 -102.901 Q 294.973 -102.901 295.158 -103.007 Q 295.342 -103.114 295.387 -103.343 Q 295.432 -103.573 295.432 -103.942 L 295.432 -106.272 Q 295.432 -106.978 295.146 -107.258 Q 294.861 -107.538 294.413 -107.538 Q 294.032 -107.538 293.651 -107.308 Q 293.27 -107.078 292.979 -106.854 L 292.979 -103.942 Q 292.979 -103.528 293.03 -103.298 Q 293.08 -103.069 293.276 -102.985 Q 293.472 -102.901 293.886 -102.901 L 293.886 -102.486 L 290.963 -102.486 L 290.963 -102.901 Q 291.389 -102.901 291.585 -102.985 Q 291.781 -103.069 291.837 -103.298 Q 291.893 -103.528 291.893 -103.942 L 291.893 -106.306 Q 291.893 -107.011 291.641 -107.274 Q 291.389 -107.538 290.952 -107.538 Q 290.493 -107.538 290.073 -107.291 Q 289.653 -107.045 289.395 -106.821 Z " fill="black" /><path d="M 298.803 -108.31 L 298.803 -108.31 L 298.478 -108.467 Q 298.814 -109.229 299.369 -109.615 Q 299.923 -110.002 300.618 -110.002 Q 301.514 -110.002 302.062 -109.565 Q 302.611 -109.128 302.611 -108.434 Q 302.611 -107.829 302.242 -107.459 Q 301.872 -107.09 301.323 -106.731 L 301.323 -106.675 Q 301.794 -106.552 302.191 -106.306 Q 302.589 -106.059 302.824 -105.673 Q 303.059 -105.286 303.059 -104.738 Q 303.059 -104.122 302.79 -103.668 Q 302.522 -103.214 302.062 -102.918 Q 301.603 -102.621 301.015 -102.481 Q 300.427 -102.341 299.789 -102.341 Q 299.24 -102.341 298.954 -102.436 Q 298.669 -102.531 298.562 -102.688 Q 298.456 -102.845 298.456 -103.002 Q 298.456 -103.192 298.568 -103.377 Q 298.68 -103.562 298.949 -103.562 Q 299.061 -103.562 299.178 -103.5 Q 299.296 -103.438 299.61 -103.259 Q 299.867 -103.136 300.018 -103.069 Q 300.17 -103.002 300.287 -102.979 Q 300.405 -102.957 300.562 -102.957 Q 300.898 -102.957 301.228 -103.08 Q 301.558 -103.203 301.782 -103.522 Q 302.006 -103.842 302.006 -104.424 Q 302.006 -104.939 301.721 -105.309 Q 301.435 -105.678 300.954 -105.886 Q 300.472 -106.093 299.89 -106.093 L 299.643 -106.093 L 299.643 -106.619 L 299.878 -106.619 Q 300.282 -106.619 300.662 -106.804 Q 301.043 -106.989 301.29 -107.33 Q 301.536 -107.672 301.536 -108.142 Q 301.536 -108.669 301.194 -108.938 Q 300.853 -109.206 300.326 -109.206 Q 299.352 -109.206 298.803 -108.31 Z " fill="black" /><path d="M 304.683 -100.806 L 304.683 -100.806 L 304.493 -101.176 Q 304.728 -101.277 304.974 -101.439 Q 305.221 -101.602 305.383 -101.898 Q 305.546 -102.195 305.546 -102.677 Q 305.355 -102.598 305.154 -102.598 Q 304.784 -102.598 304.627 -102.817 Q 304.47 -103.035 304.47 -103.315 Q 304.47 -103.618 304.672 -103.842 Q 304.874 -104.066 305.254 -104.066 Q 305.736 -104.066 305.988 -103.769 Q 306.24 -103.472 306.24 -102.946 Q 306.24 -102.408 306.072 -102.033 Q 305.904 -101.658 305.652 -101.417 Q 305.4 -101.176 305.137 -101.036 Q 304.874 -100.896 304.683 -100.806 Z " fill="black" /><path d="M 312.254 -104.256 L 312.254 -104.256 L 311.034 -104.256 L 311.034 -102.486 L 309.925 -102.486 L 309.925 -104.256 L 306.632 -104.256 L 306.632 -105.107 L 310.227 -109.99 L 311.034 -109.99 L 311.034 -105.174 L 312.254 -105.174 Z M 309.925 -105.174 L 309.925 -105.174 L 309.925 -108.635 L 309.858 -108.635 L 307.394 -105.242 L 307.394 -105.174 Z " fill="black" /><path d="M 316.989 -107.846 L 316.989 -107.846 L 321.357 -114.406 Q 321.581 -114.726 321.717 -114.998 Q 321.853 -115.27 321.853 -115.462 Q 321.853 -115.702 321.645 -115.79 Q 321.437 -115.878 320.893 -115.878 L 320.925 -116.358 L 324.381 -116.358 L 324.349 -115.878 Q 323.917 -115.878 323.613 -115.75 Q 323.309 -115.622 322.997 -115.262 Q 322.685 -114.902 322.189 -114.166 L 316.317 -105.766 L 315.789 -105.766 L 314.893 -114.422 Q 314.797 -115.222 314.541 -115.55 Q 314.285 -115.878 313.645 -115.878 L 313.677 -116.358 L 317.597 -116.358 L 317.549 -115.878 Q 316.941 -115.878 316.589 -115.638 Q 316.237 -115.398 316.269 -114.854 Q 316.269 -114.774 316.293 -114.566 Q 316.317 -114.358 316.317 -114.278 L 316.797 -109.718 L 316.909 -107.846 Z " fill="black" /><path d="M 322.464 -104.738 L 322.464 -104.738 L 322.464 -104.782 Q 322.072 -105.018 321.798 -105.393 Q 321.523 -105.768 321.523 -106.362 Q 321.523 -106.989 321.826 -107.437 Q 322.128 -107.885 322.643 -108.126 Q 323.158 -108.366 323.797 -108.366 Q 324.39 -108.366 324.766 -108.238 Q 325.141 -108.109 325.141 -108.109 L 326.787 -108.154 L 326.787 -107.493 L 325.611 -107.515 L 325.611 -107.437 Q 325.757 -107.235 325.914 -106.961 Q 326.07 -106.686 326.07 -106.194 Q 326.07 -105.634 325.774 -105.225 Q 325.477 -104.816 324.978 -104.598 Q 324.48 -104.379 323.853 -104.379 Q 323.282 -104.379 322.778 -104.581 Q 322.699 -104.435 322.593 -104.166 Q 322.486 -103.898 322.486 -103.707 Q 322.486 -103.472 322.761 -103.36 Q 323.035 -103.248 323.853 -103.248 Q 324.458 -103.248 324.973 -103.22 Q 325.488 -103.192 325.869 -103.063 Q 326.25 -102.934 326.457 -102.649 Q 326.664 -102.363 326.664 -101.837 Q 326.664 -101.232 326.356 -100.812 Q 326.048 -100.392 325.544 -100.134 Q 325.04 -99.877 324.452 -99.759 Q 323.864 -99.642 323.293 -99.642 Q 322.475 -99.642 322.027 -99.843 Q 321.579 -100.045 321.406 -100.358 Q 321.232 -100.672 321.232 -100.997 Q 321.232 -101.31 321.45 -101.618 Q 321.669 -101.926 322.15 -102.374 L 322.15 -102.43 Q 321.87 -102.576 321.68 -102.822 Q 321.49 -103.069 321.49 -103.304 Q 321.49 -103.64 321.786 -104.015 Q 322.083 -104.39 322.464 -104.738 Z M 322.52 -102.318 L 322.52 -102.318 Q 322.33 -101.994 322.262 -101.803 Q 322.195 -101.613 322.195 -101.422 Q 322.195 -100.907 322.615 -100.644 Q 323.035 -100.381 323.92 -100.381 Q 324.648 -100.381 325.096 -100.56 Q 325.544 -100.739 325.757 -100.991 Q 325.97 -101.243 325.97 -101.478 Q 325.97 -101.781 325.774 -101.949 Q 325.578 -102.117 325.275 -102.19 Q 324.973 -102.262 324.637 -102.285 Q 324.301 -102.307 324.01 -102.307 Q 323.931 -102.307 323.886 -102.307 Q 323.17 -102.307 322.906 -102.313 Q 322.643 -102.318 322.52 -102.318 Z M 323.73 -107.874 L 323.73 -107.874 Q 323.248 -107.874 322.951 -107.549 Q 322.654 -107.224 322.654 -106.429 Q 322.654 -105.645 322.968 -105.242 Q 323.282 -104.838 323.853 -104.838 Q 324.155 -104.838 324.402 -104.962 Q 324.648 -105.085 324.799 -105.41 Q 324.95 -105.734 324.95 -106.328 Q 324.95 -107.09 324.62 -107.482 Q 324.29 -107.874 323.73 -107.874 Z " fill="black" /><path d="M 327.773 -104.525 L 327.773 -104.525 L 328.131 -104.525 Q 328.277 -103.875 328.478 -103.517 Q 328.68 -103.158 328.999 -103.018 Q 329.318 -102.878 329.778 -102.878 Q 330.304 -102.878 330.59 -103.052 Q 330.875 -103.226 330.875 -103.662 Q 330.875 -103.954 330.735 -104.15 Q 330.595 -104.346 330.287 -104.525 Q 329.979 -104.704 329.464 -104.939 Q 328.938 -105.197 328.562 -105.421 Q 328.187 -105.645 327.991 -105.947 Q 327.795 -106.25 327.795 -106.709 Q 327.795 -107.515 328.338 -107.941 Q 328.882 -108.366 329.699 -108.366 Q 330.192 -108.366 330.534 -108.243 Q 330.875 -108.12 331.077 -108.03 L 331.099 -108.03 L 331.278 -108.31 L 331.592 -108.31 L 331.614 -106.451 L 331.222 -106.451 Q 331.01 -107.314 330.629 -107.61 Q 330.248 -107.907 329.755 -107.907 Q 329.24 -107.907 328.977 -107.683 Q 328.714 -107.459 328.714 -107.101 Q 328.714 -106.81 328.893 -106.619 Q 329.072 -106.429 329.402 -106.266 Q 329.733 -106.104 330.192 -105.88 Q 330.707 -105.634 331.099 -105.37 Q 331.491 -105.107 331.715 -104.777 Q 331.939 -104.446 331.939 -103.954 Q 331.939 -103.36 331.626 -103.002 Q 331.312 -102.643 330.819 -102.492 Q 330.326 -102.341 329.789 -102.341 Q 329.24 -102.341 328.938 -102.453 Q 328.635 -102.565 328.378 -102.666 L 328.333 -102.666 L 328.053 -102.374 L 327.795 -102.374 Z " fill="black" /><path d="M 333.44 -108.31 L 333.44 -108.31 L 333.115 -108.467 Q 333.451 -109.229 334.006 -109.615 Q 334.56 -110.002 335.254 -110.002 Q 336.15 -110.002 336.699 -109.565 Q 337.248 -109.128 337.248 -108.434 Q 337.248 -107.829 336.878 -107.459 Q 336.509 -107.09 335.96 -106.731 L 335.96 -106.675 Q 336.43 -106.552 336.828 -106.306 Q 337.226 -106.059 337.461 -105.673 Q 337.696 -105.286 337.696 -104.738 Q 337.696 -104.122 337.427 -103.668 Q 337.158 -103.214 336.699 -102.918 Q 336.24 -102.621 335.652 -102.481 Q 335.064 -102.341 334.426 -102.341 Q 333.877 -102.341 333.591 -102.436 Q 333.306 -102.531 333.199 -102.688 Q 333.093 -102.845 333.093 -103.002 Q 333.093 -103.192 333.205 -103.377 Q 333.317 -103.562 333.586 -103.562 Q 333.698 -103.562 333.815 -103.5 Q 333.933 -103.438 334.246 -103.259 Q 334.504 -103.136 334.655 -103.069 Q 334.806 -103.002 334.924 -102.979 Q 335.042 -102.957 335.198 -102.957 Q 335.534 -102.957 335.865 -103.08 Q 336.195 -103.203 336.419 -103.522 Q 336.643 -103.842 336.643 -104.424 Q 336.643 -104.939 336.358 -105.309 Q 336.072 -105.678 335.59 -105.886 Q 335.109 -106.093 334.526 -106.093 L 334.28 -106.093 L 334.28 -106.619 L 334.515 -106.619 Q 334.918 -106.619 335.299 -106.804 Q 335.68 -106.989 335.926 -107.33 Q 336.173 -107.672 336.173 -108.142 Q 336.173 -108.669 335.831 -108.938 Q 335.49 -109.206 334.963 -109.206 Q 333.989 -109.206 333.44 -108.31 Z " fill="black" /></g></g></g><circle cx="576.0" cy="-36.0" r="2.6999999999999997" style="stroke:black;fill:black;stroke-width:2.0;stroke-dasharray:-;" /><g><g><g><path d="M 460.804 -47.794 L 460.804 -47.794 L 465.172 -54.354 Q 465.396 -54.674 465.532 -54.946 Q 465.668 -55.218 465.668 -55.41 Q 465.668 -55.65 465.46 -55.738 Q 465.252 -55.826 464.708 -55.826 L 464.74 -56.306 L 468.196 -56.306 L 468.164 -55.826 Q 467.732 -55.826 467.428 -55.698 Q 467.124 -55.57 466.812 -55.21 Q 466.5 -54.85 466.004 -54.114 L 460.132 -45.714 L 459.604 -45.714 L 458.708 -54.37 Q 458.612 -55.17 458.356 -55.498 Q 458.1 -55.826 457.46 -55.826 L 457.492 -56.306 L 461.412 -56.306 L 461.364 -55.826 Q 460.756 -55.826 460.404 -55.586 Q 460.052 -55.346 460.084 -54.802 Q 460.084 -54.722 460.108 -54.514 Q 460.132 -54.306 460.132 -54.226 L 460.612 -49.666 L 460.724 -47.794 Z " fill="black" /><path d="M 468.105 -48.314 L 468.105 -48.314 Q 468.945 -48.314 469.572 -47.95 Q 470.2 -47.586 470.541 -46.931 Q 470.883 -46.276 470.883 -45.391 Q 470.883 -44.327 470.524 -43.644 Q 470.166 -42.961 469.539 -42.63 Q 468.912 -42.3 468.105 -42.3 Q 467.288 -42.3 466.655 -42.642 Q 466.022 -42.983 465.669 -43.666 Q 465.316 -44.35 465.316 -45.38 Q 465.316 -46.254 465.664 -46.914 Q 466.011 -47.575 466.638 -47.945 Q 467.265 -48.314 468.105 -48.314 Z M 468.083 -47.799 L 468.083 -47.799 Q 467.344 -47.799 466.924 -47.2 Q 466.504 -46.601 466.504 -45.447 Q 466.504 -44.025 466.935 -43.437 Q 467.366 -42.849 468.139 -42.849 Q 468.632 -42.86 468.979 -43.095 Q 469.326 -43.33 469.511 -43.885 Q 469.696 -44.439 469.696 -45.391 Q 469.696 -46.534 469.304 -47.166 Q 468.912 -47.799 468.083 -47.799 Z " fill="black" /><path d="M 478.499 -43.006 L 478.499 -43.006 L 478.499 -42.58 L 476.987 -42.378 L 476.628 -42.378 L 476.628 -43.252 L 476.516 -43.252 Q 476.091 -42.871 475.654 -42.597 Q 475.217 -42.322 474.601 -42.322 Q 473.772 -42.322 473.336 -42.826 Q 472.899 -43.33 472.899 -44.574 L 472.899 -46.982 Q 472.899 -47.441 472.736 -47.547 Q 472.574 -47.654 472.059 -47.654 L 472.059 -48.057 L 473.616 -48.27 L 473.985 -48.27 L 473.985 -44.719 Q 473.985 -44.092 474.131 -43.745 Q 474.276 -43.398 474.523 -43.263 Q 474.769 -43.129 475.06 -43.129 Q 475.553 -43.129 475.884 -43.336 Q 476.214 -43.543 476.572 -43.834 L 476.572 -46.982 Q 476.572 -47.441 476.371 -47.547 Q 476.169 -47.654 475.598 -47.654 L 475.598 -48.057 L 477.267 -48.27 L 477.659 -48.27 L 477.659 -43.734 Q 477.659 -43.398 477.72 -43.241 Q 477.782 -43.084 477.939 -43.045 Q 478.096 -43.006 478.376 -43.006 Z " fill="black" /><path d="M 482.867 -43.554 L 482.867 -43.554 L 483.124 -43.342 Q 482.878 -43.006 482.676 -42.776 Q 482.475 -42.546 482.217 -42.423 Q 481.96 -42.3 481.556 -42.3 Q 480.907 -42.3 480.61 -42.67 Q 480.313 -43.039 480.313 -43.857 L 480.313 -47.62 L 479.608 -47.62 L 479.608 -47.956 Q 480.011 -48.247 480.347 -48.667 Q 480.683 -49.087 481.019 -49.871 L 481.411 -49.871 L 481.4 -48.169 L 482.822 -48.169 L 482.822 -47.62 L 481.4 -47.62 L 481.4 -44.226 Q 481.4 -43.599 481.517 -43.336 Q 481.635 -43.073 481.993 -43.073 Q 482.318 -43.073 482.486 -43.19 Q 482.654 -43.308 482.867 -43.554 Z " fill="black" /></g></g></g><g><g><g><path d="M 538.99 37.293 L 538.99 37.293 L 539.278 37.597 Q 538.462 38.557 537.39 39.173 Q 536.318 39.789 534.798 39.789 Q 533.358 39.789 532.494 39.253 Q 531.63 38.717 531.254 37.821 Q 530.878 36.925 530.878 35.869 Q 530.878 34.189 531.39 32.885 Q 531.902 31.581 532.79 30.693 Q 533.678 29.805 534.798 29.349 Q 535.918 28.893 537.134 28.893 Q 537.95 28.893 538.406 29.037 Q 538.862 29.181 539.118 29.333 Q 539.374 29.485 539.566 29.485 Q 539.758 29.485 539.902 29.325 Q 540.046 29.165 540.238 28.909 L 540.702 28.909 L 539.95 32.573 L 539.422 32.573 Q 539.486 30.973 538.83 30.277 Q 538.174 29.581 536.99 29.581 Q 536.062 29.581 535.246 30.005 Q 534.43 30.429 533.798 31.205 Q 533.166 31.981 532.806 33.061 Q 532.446 34.141 532.446 35.469 Q 532.446 37.069 533.206 37.909 Q 533.966 38.749 535.55 38.749 Q 537.39 38.749 538.99 37.293 Z " fill="black" /><path d="M 543.562 42.558 L 543.562 42.558 L 543.562 42.973 L 540.728 42.973 L 540.728 42.558 Q 541.12 42.558 541.294 42.48 Q 541.467 42.402 541.512 42.217 Q 541.557 42.032 541.557 41.718 L 541.557 35.805 Q 541.557 35.446 541.428 35.368 Q 541.299 35.29 541.03 35.29 Q 540.885 35.29 540.79 35.306 Q 540.694 35.323 540.694 35.323 L 540.694 34.898 L 542.218 34.606 L 542.654 34.606 L 542.654 41.718 Q 542.654 42.043 542.705 42.228 Q 542.755 42.413 542.951 42.486 Q 543.147 42.558 543.562 42.558 Z " fill="black" /><path d="M 547.482 37.093 L 547.482 37.093 Q 548.322 37.093 548.949 37.457 Q 549.576 37.821 549.918 38.476 Q 550.259 39.131 550.259 40.016 Q 550.259 41.08 549.901 41.763 Q 549.542 42.446 548.915 42.777 Q 548.288 43.107 547.482 43.107 Q 546.664 43.107 546.031 42.766 Q 545.398 42.424 545.046 41.741 Q 544.693 41.058 544.693 40.027 Q 544.693 39.154 545.04 38.493 Q 545.387 37.832 546.014 37.462 Q 546.642 37.093 547.482 37.093 Z M 547.459 37.608 L 547.459 37.608 Q 546.72 37.608 546.3 38.207 Q 545.88 38.806 545.88 39.96 Q 545.88 41.382 546.311 41.97 Q 546.742 42.558 547.515 42.558 Q 548.008 42.547 548.355 42.312 Q 548.702 42.077 548.887 41.522 Q 549.072 40.968 549.072 40.016 Q 549.072 38.874 548.68 38.241 Q 548.288 37.608 547.459 37.608 Z " fill="black" /><path d="M 554.963 42.267 L 554.963 42.267 L 554.885 42.267 Q 554.504 42.581 554.045 42.816 Q 553.586 43.051 553.048 43.051 Q 552.342 43.051 551.967 42.626 Q 551.592 42.2 551.592 41.595 Q 551.592 41.08 551.833 40.733 Q 552.074 40.386 552.46 40.167 Q 552.846 39.949 553.294 39.814 Q 553.742 39.68 554.157 39.602 Q 554.571 39.523 554.851 39.456 L 554.851 38.874 Q 554.851 38.123 554.554 37.838 Q 554.258 37.552 553.686 37.552 Q 553.339 37.552 553.188 37.642 Q 553.037 37.731 552.998 37.933 Q 552.958 38.134 552.947 38.459 Q 552.936 38.706 552.802 38.857 Q 552.667 39.008 552.41 39.008 Q 552.163 39.008 551.99 38.857 Q 551.816 38.706 551.816 38.414 Q 551.816 38.067 552.085 37.765 Q 552.354 37.462 552.852 37.278 Q 553.35 37.093 554.022 37.093 Q 555.03 37.093 555.484 37.558 Q 555.938 38.022 555.938 38.952 L 555.938 41.696 Q 555.938 42.066 556.022 42.172 Q 556.106 42.278 556.285 42.278 Q 556.475 42.278 556.615 42.2 Q 556.755 42.122 556.878 41.976 L 557.125 42.211 Q 556.542 43.04 555.758 43.04 Q 555.322 43.04 555.159 42.833 Q 554.997 42.626 554.963 42.267 Z M 554.851 41.853 L 554.851 41.853 L 554.851 39.882 Q 554.336 40.016 553.843 40.178 Q 553.35 40.341 553.031 40.621 Q 552.712 40.901 552.712 41.405 Q 552.712 41.842 552.964 42.094 Q 553.216 42.346 553.608 42.346 Q 553.843 42.346 554.174 42.239 Q 554.504 42.133 554.851 41.853 Z " fill="black" /><path d="M 563.845 42.827 L 563.845 42.827 L 562.333 43.029 L 561.93 43.029 L 561.93 42.245 L 561.851 42.245 Q 561.482 42.558 561.017 42.816 Q 560.552 43.074 559.97 43.074 Q 559.309 43.074 558.844 42.715 Q 558.379 42.357 558.133 41.73 Q 557.886 41.102 557.886 40.307 Q 557.886 39.31 558.273 38.588 Q 558.659 37.866 559.303 37.479 Q 559.947 37.093 560.709 37.093 Q 561.37 37.093 561.907 37.395 L 561.907 35.95 Q 561.907 35.547 561.823 35.418 Q 561.739 35.29 561.381 35.29 Q 561.302 35.29 561.174 35.306 Q 561.045 35.323 561.045 35.323 L 561.045 34.898 L 562.534 34.606 L 562.994 34.606 L 562.994 41.707 Q 562.994 42.144 563.117 42.273 Q 563.24 42.402 563.542 42.402 L 563.845 42.402 Z M 561.907 41.73 L 561.907 41.73 L 561.907 38.459 Q 561.784 38.146 561.498 37.899 Q 561.213 37.653 560.686 37.653 Q 559.936 37.653 559.454 38.162 Q 558.973 38.672 558.973 39.848 Q 558.973 41.046 559.393 41.601 Q 559.813 42.155 560.574 42.155 Q 560.933 42.155 561.23 42.054 Q 561.526 41.954 561.907 41.73 Z " fill="black" /></g></g></g><g><g><g><path d="M 604.814 31.192 L 604.814 31.192 L 604.718 32.008 L 603.326 31.848 L 603.326 31.896 Q 603.598 32.2 603.75 32.656 Q 603.902 33.112 603.902 33.528 Q 603.902 34.248 603.614 34.736 Q 603.326 35.224 602.862 35.52 Q 602.398 35.816 601.838 35.968 Q 601.278 36.12 600.75 36.168 Q 600.11 36.232 599.846 36.44 Q 599.582 36.648 599.582 36.872 Q 599.582 37.16 599.902 37.312 Q 600.222 37.464 600.726 37.56 Q 601.23 37.656 601.806 37.776 Q 602.382 37.896 602.886 38.104 Q 603.39 38.312 603.71 38.688 Q 604.03 39.064 604.03 39.688 Q 604.03 40.376 603.582 40.96 Q 603.134 41.544 602.254 41.904 Q 601.374 42.264 600.094 42.264 Q 598.942 42.264 598.254 41.984 Q 597.566 41.704 597.262 41.264 Q 596.958 40.824 596.958 40.344 Q 596.958 39.576 597.55 39.104 Q 598.142 38.632 598.894 38.392 L 598.894 38.328 Q 598.686 38.2 598.502 37.968 Q 598.318 37.736 598.318 37.368 Q 598.318 36.968 598.526 36.728 Q 598.734 36.488 599.062 36.336 Q 599.39 36.184 599.71 36.072 L 599.71 35.976 Q 599.086 35.704 598.622 35.208 Q 598.158 34.712 598.158 33.8 Q 598.158 32.968 598.558 32.336 Q 598.958 31.704 599.654 31.352 Q 600.35 31 601.214 31 Q 601.79 31 602.086 31.056 Q 602.382 31.112 602.67 31.192 Z M 602.878 40.28 L 602.878 40.28 Q 602.878 39.8 602.478 39.504 Q 602.078 39.208 601.486 39.032 Q 600.894 38.856 600.294 38.752 Q 599.694 38.648 599.278 38.568 Q 598.878 38.824 598.542 39.152 Q 598.206 39.48 598.206 40.104 Q 598.206 40.744 598.702 41.224 Q 599.198 41.704 600.414 41.704 Q 601.566 41.704 602.222 41.28 Q 602.878 40.856 602.878 40.28 Z M 602.478 33.352 L 602.478 33.352 Q 602.478 32.552 602.174 32.016 Q 601.87 31.48 601.166 31.48 Q 600.478 31.48 600.03 32.056 Q 599.582 32.632 599.582 33.8 Q 599.582 34.632 599.87 35.152 Q 600.158 35.672 600.846 35.672 Q 601.646 35.672 602.062 35 Q 602.478 34.328 602.478 33.352 Z " fill="black" /><path d="M 611.657 41.878 L 611.657 41.878 L 610.145 42.08 L 609.742 42.08 L 609.742 41.296 L 609.663 41.296 Q 609.294 41.61 608.829 41.867 Q 608.364 42.125 607.782 42.125 Q 607.121 42.125 606.656 41.766 Q 606.191 41.408 605.945 40.781 Q 605.698 40.154 605.698 39.358 Q 605.698 38.362 606.085 37.639 Q 606.471 36.917 607.115 36.53 Q 607.759 36.144 608.521 36.144 Q 609.182 36.144 609.719 36.446 L 609.719 35.002 Q 609.719 34.598 609.635 34.47 Q 609.551 34.341 609.193 34.341 Q 609.114 34.341 608.986 34.358 Q 608.857 34.374 608.857 34.374 L 608.857 33.949 L 610.346 33.658 L 610.806 33.658 L 610.806 40.758 Q 610.806 41.195 610.929 41.324 Q 611.052 41.453 611.354 41.453 L 611.657 41.453 Z M 609.719 40.781 L 609.719 40.781 L 609.719 37.51 Q 609.596 37.197 609.31 36.95 Q 609.025 36.704 608.498 36.704 Q 607.748 36.704 607.266 37.214 Q 606.785 37.723 606.785 38.899 Q 606.785 40.098 607.205 40.652 Q 607.625 41.206 608.386 41.206 Q 608.745 41.206 609.042 41.106 Q 609.338 41.005 609.719 40.781 Z " fill="black" /><path d="M 612.844 39.986 L 612.844 39.986 L 613.202 39.986 Q 613.348 40.635 613.55 40.994 Q 613.751 41.352 614.07 41.492 Q 614.39 41.632 614.849 41.632 Q 615.375 41.632 615.661 41.458 Q 615.946 41.285 615.946 40.848 Q 615.946 40.557 615.806 40.361 Q 615.666 40.165 615.358 39.986 Q 615.05 39.806 614.535 39.571 Q 614.009 39.314 613.634 39.09 Q 613.258 38.866 613.062 38.563 Q 612.866 38.261 612.866 37.802 Q 612.866 36.995 613.41 36.57 Q 613.953 36.144 614.77 36.144 Q 615.263 36.144 615.605 36.267 Q 615.946 36.39 616.148 36.48 L 616.17 36.48 L 616.35 36.2 L 616.663 36.2 L 616.686 38.059 L 616.294 38.059 Q 616.081 37.197 615.7 36.9 Q 615.319 36.603 614.826 36.603 Q 614.311 36.603 614.048 36.827 Q 613.785 37.051 613.785 37.41 Q 613.785 37.701 613.964 37.891 Q 614.143 38.082 614.474 38.244 Q 614.804 38.406 615.263 38.63 Q 615.778 38.877 616.17 39.14 Q 616.562 39.403 616.786 39.734 Q 617.01 40.064 617.01 40.557 Q 617.01 41.15 616.697 41.509 Q 616.383 41.867 615.89 42.018 Q 615.398 42.17 614.86 42.17 Q 614.311 42.17 614.009 42.058 Q 613.706 41.946 613.449 41.845 L 613.404 41.845 L 613.124 42.136 L 612.866 42.136 Z " fill="black" /><path d="M 623.047 40.075 L 623.047 40.075 L 622.666 42.024 L 618.074 42.024 L 618.074 41.475 L 619.665 39.862 Q 620.292 39.235 620.701 38.754 Q 621.11 38.272 621.311 37.785 Q 621.513 37.298 621.513 36.67 Q 621.513 36.077 621.149 35.69 Q 620.785 35.304 620.124 35.304 Q 619.519 35.304 619.11 35.545 Q 618.702 35.786 618.388 36.334 L 618.086 36.189 Q 618.366 35.405 618.954 34.957 Q 619.542 34.509 620.404 34.509 Q 621.076 34.509 621.591 34.75 Q 622.106 34.99 622.398 35.438 Q 622.689 35.886 622.689 36.525 Q 622.689 37.074 622.442 37.555 Q 622.196 38.037 621.742 38.541 Q 621.289 39.045 620.662 39.661 L 619.262 41.016 L 619.262 41.094 L 620.135 41.05 L 621.591 41.05 Q 621.916 41.05 622.09 40.96 Q 622.263 40.87 622.386 40.652 Q 622.51 40.434 622.655 40.075 Z " fill="black" /><path d="M 638.707 35.064 L 638.707 35.064 L 634.515 35.064 L 634.515 39.304 L 633.363 39.304 L 633.363 35.064 L 629.171 35.064 L 629.171 33.976 L 633.363 33.976 L 633.363 29.736 L 634.515 29.736 L 634.515 33.976 L 638.707 33.976 Z " fill="black" /><path d="M 652.294 31.192 L 652.294 31.192 L 652.198 32.008 L 650.806 31.848 L 650.806 31.896 Q 651.078 32.2 651.23 32.656 Q 651.382 33.112 651.382 33.528 Q 651.382 34.248 651.094 34.736 Q 650.806 35.224 650.342 35.52 Q 649.878 35.816 649.318 35.968 Q 648.758 36.12 648.23 36.168 Q 647.59 36.232 647.326 36.44 Q 647.062 36.648 647.062 36.872 Q 647.062 37.16 647.382 37.312 Q 647.702 37.464 648.206 37.56 Q 648.71 37.656 649.286 37.776 Q 649.862 37.896 650.366 38.104 Q 650.87 38.312 651.19 38.688 Q 651.51 39.064 651.51 39.688 Q 651.51 40.376 651.062 40.96 Q 650.614 41.544 649.734 41.904 Q 648.854 42.264 647.574 42.264 Q 646.422 42.264 645.734 41.984 Q 645.046 41.704 644.742 41.264 Q 644.438 40.824 644.438 40.344 Q 644.438 39.576 645.03 39.104 Q 645.622 38.632 646.374 38.392 L 646.374 38.328 Q 646.166 38.2 645.982 37.968 Q 645.798 37.736 645.798 37.368 Q 645.798 36.968 646.006 36.728 Q 646.214 36.488 646.542 36.336 Q 646.87 36.184 647.19 36.072 L 647.19 35.976 Q 646.566 35.704 646.102 35.208 Q 645.638 34.712 645.638 33.8 Q 645.638 32.968 646.038 32.336 Q 646.438 31.704 647.134 31.352 Q 647.83 31 648.694 31 Q 649.27 31 649.566 31.056 Q 649.862 31.112 650.15 31.192 Z M 650.358 40.28 L 650.358 40.28 Q 650.358 39.8 649.958 39.504 Q 649.558 39.208 648.966 39.032 Q 648.374 38.856 647.774 38.752 Q 647.174 38.648 646.758 38.568 Q 646.358 38.824 646.022 39.152 Q 645.686 39.48 645.686 40.104 Q 645.686 40.744 646.182 41.224 Q 646.678 41.704 647.894 41.704 Q 649.046 41.704 649.702 41.28 Q 650.358 40.856 650.358 40.28 Z M 649.958 33.352 L 649.958 33.352 Q 649.958 32.552 649.654 32.016 Q 649.35 31.48 648.646 31.48 Q 647.958 31.48 647.51 32.056 Q 647.062 32.632 647.062 33.8 Q 647.062 34.632 647.35 35.152 Q 647.638 35.672 648.326 35.672 Q 649.126 35.672 649.542 35 Q 649.958 34.328 649.958 33.352 Z " fill="black" /><path d="M 659.138 41.878 L 659.138 41.878 L 657.626 42.08 L 657.222 42.08 L 657.222 41.296 L 657.144 41.296 Q 656.774 41.61 656.31 41.867 Q 655.845 42.125 655.262 42.125 Q 654.602 42.125 654.137 41.766 Q 653.672 41.408 653.426 40.781 Q 653.179 40.154 653.179 39.358 Q 653.179 38.362 653.566 37.639 Q 653.952 36.917 654.596 36.53 Q 655.24 36.144 656.002 36.144 Q 656.662 36.144 657.2 36.446 L 657.2 35.002 Q 657.2 34.598 657.116 34.47 Q 657.032 34.341 656.674 34.341 Q 656.595 34.341 656.466 34.358 Q 656.338 34.374 656.338 34.374 L 656.338 33.949 L 657.827 33.658 L 658.286 33.658 L 658.286 40.758 Q 658.286 41.195 658.41 41.324 Q 658.533 41.453 658.835 41.453 L 659.138 41.453 Z M 657.2 40.781 L 657.2 40.781 L 657.2 37.51 Q 657.077 37.197 656.791 36.95 Q 656.506 36.704 655.979 36.704 Q 655.229 36.704 654.747 37.214 Q 654.266 37.723 654.266 38.899 Q 654.266 40.098 654.686 40.652 Q 655.106 41.206 655.867 41.206 Q 656.226 41.206 656.522 41.106 Q 656.819 41.005 657.2 40.781 Z " fill="black" /><path d="M 660.325 39.986 L 660.325 39.986 L 660.683 39.986 Q 660.829 40.635 661.03 40.994 Q 661.232 41.352 661.551 41.492 Q 661.87 41.632 662.33 41.632 Q 662.856 41.632 663.142 41.458 Q 663.427 41.285 663.427 40.848 Q 663.427 40.557 663.287 40.361 Q 663.147 40.165 662.839 39.986 Q 662.531 39.806 662.016 39.571 Q 661.49 39.314 661.114 39.09 Q 660.739 38.866 660.543 38.563 Q 660.347 38.261 660.347 37.802 Q 660.347 36.995 660.89 36.57 Q 661.434 36.144 662.251 36.144 Q 662.744 36.144 663.086 36.267 Q 663.427 36.39 663.629 36.48 L 663.651 36.48 L 663.83 36.2 L 664.144 36.2 L 664.166 38.059 L 663.774 38.059 Q 663.562 37.197 663.181 36.9 Q 662.8 36.603 662.307 36.603 Q 661.792 36.603 661.529 36.827 Q 661.266 37.051 661.266 37.41 Q 661.266 37.701 661.445 37.891 Q 661.624 38.082 661.954 38.244 Q 662.285 38.406 662.744 38.63 Q 663.259 38.877 663.651 39.14 Q 664.043 39.403 664.267 39.734 Q 664.491 40.064 664.491 40.557 Q 664.491 41.15 664.178 41.509 Q 663.864 41.867 663.371 42.018 Q 662.878 42.17 662.341 42.17 Q 661.792 42.17 661.49 42.058 Q 661.187 41.946 660.93 41.845 L 660.885 41.845 L 660.605 42.136 L 660.347 42.136 Z " fill="black" /><path d="M 671.066 40.254 L 671.066 40.254 L 669.845 40.254 L 669.845 42.024 L 668.736 42.024 L 668.736 40.254 L 665.443 40.254 L 665.443 39.403 L 669.038 34.52 L 669.845 34.52 L 669.845 39.336 L 671.066 39.336 Z M 668.736 39.336 L 668.736 39.336 L 668.736 35.875 L 668.669 35.875 L 666.205 39.269 L 666.205 39.336 Z " fill="black" /></g></g></g><circle cx="360.0" cy="72.0" r="2.6999999999999997" style="stroke:black;fill:black;stroke-width:2.0;stroke-dasharray:-;" /><g><g><g><rect x="429.84" y="49.328" width="4.32" height="1.088" fill="black" /></g></g></g><g><g><g><path d="M 424.07 36.154 L 424.07 36.154 L 428.438 29.594 Q 428.662 29.274 428.798 29.002 Q 428.934 28.73 428.934 28.538 Q 428.934 28.298 428.726 28.21 Q 428.518 28.122 427.974 28.122 L 428.006 27.642 L 431.462 27.642 L 431.43 28.122 Q 430.998 28.122 430.694 28.25 Q 430.39 28.378 430.078 28.738 Q 429.766 29.098 429.27 29.834 L 423.398 38.234 L 422.87 38.234 L 421.974 29.578 Q 421.878 28.778 421.622 28.45 Q 421.366 28.122 420.726 28.122 L 420.758 27.642 L 424.678 27.642 L 424.63 28.122 Q 424.022 28.122 423.67 28.362 Q 423.318 28.602 423.35 29.146 Q 423.35 29.226 423.374 29.434 Q 423.398 29.642 423.398 29.722 L 423.878 34.282 L 423.99 36.154 Z " fill="black" /><path d="M 429.546 39.262 L 429.546 39.262 L 429.546 39.218 Q 429.154 38.982 428.879 38.607 Q 428.605 38.232 428.605 37.638 Q 428.605 37.011 428.907 36.563 Q 429.21 36.115 429.725 35.874 Q 430.24 35.634 430.878 35.634 Q 431.472 35.634 431.847 35.762 Q 432.222 35.891 432.222 35.891 L 433.869 35.846 L 433.869 36.507 L 432.693 36.485 L 432.693 36.563 Q 432.838 36.765 432.995 37.039 Q 433.152 37.314 433.152 37.806 Q 433.152 38.366 432.855 38.775 Q 432.558 39.184 432.06 39.402 Q 431.562 39.621 430.934 39.621 Q 430.363 39.621 429.859 39.419 Q 429.781 39.565 429.674 39.834 Q 429.568 40.102 429.568 40.293 Q 429.568 40.528 429.842 40.64 Q 430.117 40.752 430.934 40.752 Q 431.539 40.752 432.054 40.78 Q 432.57 40.808 432.95 40.937 Q 433.331 41.066 433.538 41.351 Q 433.746 41.637 433.746 42.163 Q 433.746 42.768 433.438 43.188 Q 433.13 43.608 432.626 43.866 Q 432.122 44.123 431.534 44.241 Q 430.946 44.358 430.374 44.358 Q 429.557 44.358 429.109 44.157 Q 428.661 43.955 428.487 43.642 Q 428.314 43.328 428.314 43.003 Q 428.314 42.69 428.532 42.382 Q 428.75 42.074 429.232 41.626 L 429.232 41.57 Q 428.952 41.424 428.762 41.178 Q 428.571 40.931 428.571 40.696 Q 428.571 40.36 428.868 39.985 Q 429.165 39.61 429.546 39.262 Z M 429.602 41.682 L 429.602 41.682 Q 429.411 42.006 429.344 42.197 Q 429.277 42.387 429.277 42.578 Q 429.277 43.093 429.697 43.356 Q 430.117 43.619 431.002 43.619 Q 431.73 43.619 432.178 43.44 Q 432.626 43.261 432.838 43.009 Q 433.051 42.757 433.051 42.522 Q 433.051 42.219 432.855 42.051 Q 432.659 41.883 432.357 41.81 Q 432.054 41.738 431.718 41.715 Q 431.382 41.693 431.091 41.693 Q 431.013 41.693 430.968 41.693 Q 430.251 41.693 429.988 41.687 Q 429.725 41.682 429.602 41.682 Z M 430.811 36.126 L 430.811 36.126 Q 430.33 36.126 430.033 36.451 Q 429.736 36.776 429.736 37.571 Q 429.736 38.355 430.05 38.758 Q 430.363 39.162 430.934 39.162 Q 431.237 39.162 431.483 39.038 Q 431.73 38.915 431.881 38.59 Q 432.032 38.266 432.032 37.672 Q 432.032 36.91 431.702 36.518 Q 431.371 36.126 430.811 36.126 Z " fill="black" /><path d="M 434.854 39.475 L 434.854 39.475 L 435.213 39.475 Q 435.358 40.125 435.56 40.483 Q 435.762 40.842 436.081 40.982 Q 436.4 41.122 436.859 41.122 Q 437.386 41.122 437.671 40.948 Q 437.957 40.774 437.957 40.338 Q 437.957 40.046 437.817 39.85 Q 437.677 39.654 437.369 39.475 Q 437.061 39.296 436.546 39.061 Q 436.019 38.803 435.644 38.579 Q 435.269 38.355 435.073 38.053 Q 434.877 37.75 434.877 37.291 Q 434.877 36.485 435.42 36.059 Q 435.963 35.634 436.781 35.634 Q 437.274 35.634 437.615 35.757 Q 437.957 35.88 438.158 35.97 L 438.181 35.97 L 438.36 35.69 L 438.674 35.69 L 438.696 37.549 L 438.304 37.549 Q 438.091 36.686 437.71 36.39 Q 437.33 36.093 436.837 36.093 Q 436.322 36.093 436.058 36.317 Q 435.795 36.541 435.795 36.899 Q 435.795 37.19 435.974 37.381 Q 436.154 37.571 436.484 37.734 Q 436.814 37.896 437.274 38.12 Q 437.789 38.366 438.181 38.63 Q 438.573 38.893 438.797 39.223 Q 439.021 39.554 439.021 40.046 Q 439.021 40.64 438.707 40.998 Q 438.394 41.357 437.901 41.508 Q 437.408 41.659 436.87 41.659 Q 436.322 41.659 436.019 41.547 Q 435.717 41.435 435.459 41.334 L 435.414 41.334 L 435.134 41.626 L 434.877 41.626 Z " fill="black" /><path d="M 445.058 39.565 L 445.058 39.565 L 444.677 41.514 L 440.085 41.514 L 440.085 40.965 L 441.675 39.352 Q 442.302 38.725 442.711 38.243 Q 443.12 37.762 443.322 37.274 Q 443.523 36.787 443.523 36.16 Q 443.523 35.566 443.159 35.18 Q 442.795 34.794 442.134 34.794 Q 441.53 34.794 441.121 35.034 Q 440.712 35.275 440.398 35.824 L 440.096 35.678 Q 440.376 34.894 440.964 34.446 Q 441.552 33.998 442.414 33.998 Q 443.086 33.998 443.602 34.239 Q 444.117 34.48 444.408 34.928 Q 444.699 35.376 444.699 36.014 Q 444.699 36.563 444.453 37.045 Q 444.206 37.526 443.753 38.03 Q 443.299 38.534 442.672 39.15 L 441.272 40.506 L 441.272 40.584 L 442.146 40.539 L 443.602 40.539 Q 443.926 40.539 444.1 40.45 Q 444.274 40.36 444.397 40.142 Q 444.52 39.923 444.666 39.565 Z " fill="black" /></g></g></g><g><g><g><path d="M 437.264 18.544 L 437.264 18.544 L 433.072 18.544 L 433.072 22.784 L 431.92 22.784 L 431.92 18.544 L 427.728 18.544 L 427.728 17.456 L 431.92 17.456 L 431.92 13.216 L 433.072 13.216 L 433.072 17.456 L 437.264 17.456 Z " fill="black" /></g></g></g><circle cx="468.0" cy="-0.0" r="2.6999999999999997" style="stroke:black;fill:white;stroke-width:2.0;stroke-dasharray:-;" /><g><g><g><path d="M 478.732 0.736 L 478.732 0.736 L 483.1 -5.824 Q 483.324 -6.144 483.46 -6.416 Q 483.596 -6.688 483.596 -6.88 Q 483.596 -7.12 483.388 -7.208 Q 483.18 -7.296 482.636 -7.296 L 482.668 -7.776 L 486.124 -7.776 L 486.092 -7.296 Q 485.66 -7.296 485.356 -7.168 Q 485.052 -7.04 484.74 -6.68 Q 484.428 -6.32 483.932 -5.584 L 478.06 2.816 L 477.532 2.816 L 476.636 -5.84 Q 476.54 -6.64 476.284 -6.968 Q 476.028 -7.296 475.388 -7.296 L 475.42 -7.776 L 479.34 -7.776 L 479.292 -7.296 Q 478.684 -7.296 478.332 -7.056 Q 477.98 -6.816 478.012 -6.272 Q 478.012 -6.192 478.036 -5.984 Q 478.06 -5.776 478.06 -5.696 L 478.54 -1.136 L 478.652 0.736 Z " fill="black" /><path d="M 487.652 5.682 L 487.652 5.682 L 487.652 6.096 L 484.807 6.096 L 484.807 5.682 Q 485.199 5.682 485.373 5.598 Q 485.546 5.514 485.591 5.329 Q 485.636 5.144 485.636 4.842 L 485.636 1.459 Q 485.636 1.078 485.513 1 Q 485.39 0.922 485.098 0.922 Q 484.953 0.922 484.863 0.933 Q 484.774 0.944 484.774 0.944 L 484.774 0.496 L 486.274 0.25 L 486.734 0.25 L 486.734 4.842 Q 486.734 5.166 486.784 5.351 Q 486.834 5.536 487.03 5.609 Q 487.226 5.682 487.652 5.682 Z M 486.174 -2.226 L 486.174 -2.226 Q 486.498 -2.226 486.717 -2.002 Q 486.935 -1.778 486.935 -1.486 Q 486.935 -1.218 486.717 -0.994 Q 486.498 -0.77 486.174 -0.77 Q 485.86 -0.77 485.653 -0.994 Q 485.446 -1.218 485.446 -1.486 Q 485.446 -1.778 485.653 -2.002 Q 485.86 -2.226 486.174 -2.226 Z " fill="black" /><path d="M 494.305 2.344 L 494.305 2.344 L 494.305 4.853 Q 494.305 5.166 494.361 5.351 Q 494.417 5.536 494.607 5.614 Q 494.798 5.693 495.201 5.693 L 495.201 6.096 L 492.322 6.096 L 492.322 5.693 Q 492.748 5.693 492.938 5.614 Q 493.129 5.536 493.174 5.351 Q 493.218 5.166 493.218 4.853 L 493.218 2.714 Q 493.218 1.963 493.045 1.61 Q 492.871 1.258 492.608 1.146 Q 492.345 1.034 492.076 1.034 Q 491.594 1.034 491.23 1.28 Q 490.866 1.526 490.598 1.75 L 490.598 4.853 Q 490.598 5.166 490.648 5.351 Q 490.698 5.536 490.889 5.614 Q 491.079 5.693 491.494 5.693 L 491.494 6.096 L 488.671 6.096 L 488.671 5.693 Q 489.063 5.693 489.237 5.614 Q 489.41 5.536 489.455 5.351 Q 489.5 5.166 489.5 4.853 L 489.5 1.448 Q 489.5 1.134 489.382 1.028 Q 489.265 0.922 489.007 0.922 Q 488.873 0.922 488.783 0.933 Q 488.694 0.944 488.694 0.944 L 488.694 0.518 L 490.194 0.25 L 490.564 0.25 L 490.564 1.168 L 490.642 1.168 Q 491.124 0.731 491.566 0.474 Q 492.009 0.216 492.569 0.216 Q 493.23 0.216 493.605 0.513 Q 493.98 0.81 494.142 1.291 Q 494.305 1.773 494.305 2.344 Z " fill="black" /><path d="M 496.601 7.776 L 496.601 7.776 L 496.41 7.406 Q 496.646 7.306 496.892 7.143 Q 497.138 6.981 497.301 6.684 Q 497.463 6.387 497.463 5.906 Q 497.273 5.984 497.071 5.984 Q 496.702 5.984 496.545 5.766 Q 496.388 5.547 496.388 5.267 Q 496.388 4.965 496.59 4.741 Q 496.791 4.517 497.172 4.517 Q 497.654 4.517 497.906 4.814 Q 498.158 5.11 498.158 5.637 Q 498.158 6.174 497.99 6.55 Q 497.822 6.925 497.57 7.166 Q 497.318 7.406 497.054 7.546 Q 496.791 7.686 496.601 7.776 Z " fill="black" /><path d="M 504.362 2.344 L 504.362 2.344 L 504.362 4.853 Q 504.362 5.166 504.418 5.351 Q 504.474 5.536 504.665 5.614 Q 504.855 5.693 505.258 5.693 L 505.258 6.096 L 502.38 6.096 L 502.38 5.693 Q 502.806 5.693 502.996 5.614 Q 503.186 5.536 503.231 5.351 Q 503.276 5.166 503.276 4.853 L 503.276 2.714 Q 503.276 1.963 503.102 1.61 Q 502.929 1.258 502.666 1.146 Q 502.402 1.034 502.134 1.034 Q 501.652 1.034 501.288 1.28 Q 500.924 1.526 500.655 1.75 L 500.655 4.853 Q 500.655 5.166 500.706 5.351 Q 500.756 5.536 500.946 5.614 Q 501.137 5.693 501.551 5.693 L 501.551 6.096 L 498.729 6.096 L 498.729 5.693 Q 499.121 5.693 499.294 5.614 Q 499.468 5.536 499.513 5.351 Q 499.558 5.166 499.558 4.853 L 499.558 1.448 Q 499.558 1.134 499.44 1.028 Q 499.322 0.922 499.065 0.922 Q 498.93 0.922 498.841 0.933 Q 498.751 0.944 498.751 0.944 L 498.751 0.518 L 500.252 0.25 L 500.622 0.25 L 500.622 1.168 L 500.7 1.168 Q 501.182 0.731 501.624 0.474 Q 502.066 0.216 502.626 0.216 Q 503.287 0.216 503.662 0.513 Q 504.038 0.81 504.2 1.291 Q 504.362 1.773 504.362 2.344 Z " fill="black" /></g></g></g><g><g><g><path d="M 5.264 -89.456 L 5.264 -89.456 L 1.072 -89.456 L 1.072 -85.216 L -0.08 -85.216 L -0.08 -89.456 L -4.272 -89.456 L -4.272 -90.544 L -0.08 -90.544 L -0.08 -94.784 L 1.072 -94.784 L 1.072 -90.544 L 5.264 -90.544 Z " fill="black" /></g></g></g><g><g><g><path d="M -7.93 -107.846 L -7.93 -107.846 L -3.562 -114.406 Q -3.338 -114.726 -3.202 -114.998 Q -3.066 -115.27 -3.066 -115.462 Q -3.066 -115.702 -3.274 -115.79 Q -3.482 -115.878 -4.026 -115.878 L -3.994 -116.358 L -0.538 -116.358 L -0.57 -115.878 Q -1.002 -115.878 -1.306 -115.75 Q -1.61 -115.622 -1.922 -115.262 Q -2.234 -114.902 -2.73 -114.166 L -8.602 -105.766 L -9.13 -105.766 L -10.026 -114.422 Q -10.122 -115.222 -10.378 -115.55 Q -10.634 -115.878 -11.274 -115.878 L -11.242 -116.358 L -7.322 -116.358 L -7.37 -115.878 Q -7.978 -115.878 -8.33 -115.638 Q -8.682 -115.398 -8.65 -114.854 Q -8.65 -114.774 -8.626 -114.566 Q -8.602 -114.358 -8.602 -114.278 L -8.122 -109.718 L -8.01 -107.846 Z " fill="black" /><path d="M -2.454 -104.738 L -2.454 -104.738 L -2.454 -104.782 Q -2.846 -105.018 -3.121 -105.393 Q -3.395 -105.768 -3.395 -106.362 Q -3.395 -106.989 -3.093 -107.437 Q -2.79 -107.885 -2.275 -108.126 Q -1.76 -108.366 -1.122 -108.366 Q -0.528 -108.366 -0.153 -108.238 Q 0.222 -108.109 0.222 -108.109 L 1.869 -108.154 L 1.869 -107.493 L 0.693 -107.515 L 0.693 -107.437 Q 0.838 -107.235 0.995 -106.961 Q 1.152 -106.686 1.152 -106.194 Q 1.152 -105.634 0.855 -105.225 Q 0.558 -104.816 0.06 -104.598 Q -0.438 -104.379 -1.066 -104.379 Q -1.637 -104.379 -2.141 -104.581 Q -2.219 -104.435 -2.326 -104.166 Q -2.432 -103.898 -2.432 -103.707 Q -2.432 -103.472 -2.158 -103.36 Q -1.883 -103.248 -1.066 -103.248 Q -0.461 -103.248 0.054 -103.22 Q 0.57 -103.192 0.95 -103.063 Q 1.331 -102.934 1.538 -102.649 Q 1.746 -102.363 1.746 -101.837 Q 1.746 -101.232 1.438 -100.812 Q 1.13 -100.392 0.626 -100.134 Q 0.122 -99.877 -0.466 -99.759 Q -1.054 -99.642 -1.626 -99.642 Q -2.443 -99.642 -2.891 -99.843 Q -3.339 -100.045 -3.513 -100.358 Q -3.686 -100.672 -3.686 -100.997 Q -3.686 -101.31 -3.468 -101.618 Q -3.25 -101.926 -2.768 -102.374 L -2.768 -102.43 Q -3.048 -102.576 -3.238 -102.822 Q -3.429 -103.069 -3.429 -103.304 Q -3.429 -103.64 -3.132 -104.015 Q -2.835 -104.39 -2.454 -104.738 Z M -2.398 -102.318 L -2.398 -102.318 Q -2.589 -101.994 -2.656 -101.803 Q -2.723 -101.613 -2.723 -101.422 Q -2.723 -100.907 -2.303 -100.644 Q -1.883 -100.381 -0.998 -100.381 Q -0.27 -100.381 0.178 -100.56 Q 0.626 -100.739 0.838 -100.991 Q 1.051 -101.243 1.051 -101.478 Q 1.051 -101.781 0.855 -101.949 Q 0.659 -102.117 0.357 -102.19 Q 0.054 -102.262 -0.282 -102.285 Q -0.618 -102.307 -0.909 -102.307 Q -0.987 -102.307 -1.032 -102.307 Q -1.749 -102.307 -2.012 -102.313 Q -2.275 -102.318 -2.398 -102.318 Z M -1.189 -107.874 L -1.189 -107.874 Q -1.67 -107.874 -1.967 -107.549 Q -2.264 -107.224 -2.264 -106.429 Q -2.264 -105.645 -1.95 -105.242 Q -1.637 -104.838 -1.066 -104.838 Q -0.763 -104.838 -0.517 -104.962 Q -0.27 -105.085 -0.119 -105.41 Q 0.032 -105.734 0.032 -106.328 Q 0.032 -107.09 -0.298 -107.482 Q -0.629 -107.874 -1.189 -107.874 Z " fill="black" /><path d="M 2.854 -104.525 L 2.854 -104.525 L 3.213 -104.525 Q 3.358 -103.875 3.56 -103.517 Q 3.762 -103.158 4.081 -103.018 Q 4.4 -102.878 4.859 -102.878 Q 5.386 -102.878 5.671 -103.052 Q 5.957 -103.226 5.957 -103.662 Q 5.957 -103.954 5.817 -104.15 Q 5.677 -104.346 5.369 -104.525 Q 5.061 -104.704 4.546 -104.939 Q 4.019 -105.197 3.644 -105.421 Q 3.269 -105.645 3.073 -105.947 Q 2.877 -106.25 2.877 -106.709 Q 2.877 -107.515 3.42 -107.941 Q 3.963 -108.366 4.781 -108.366 Q 5.274 -108.366 5.615 -108.243 Q 5.957 -108.12 6.158 -108.03 L 6.181 -108.03 L 6.36 -108.31 L 6.674 -108.31 L 6.696 -106.451 L 6.304 -106.451 Q 6.091 -107.314 5.71 -107.61 Q 5.33 -107.907 4.837 -107.907 Q 4.322 -107.907 4.058 -107.683 Q 3.795 -107.459 3.795 -107.101 Q 3.795 -106.81 3.974 -106.619 Q 4.154 -106.429 4.484 -106.266 Q 4.814 -106.104 5.274 -105.88 Q 5.789 -105.634 6.181 -105.37 Q 6.573 -105.107 6.797 -104.777 Q 7.021 -104.446 7.021 -103.954 Q 7.021 -103.36 6.707 -103.002 Q 6.394 -102.643 5.901 -102.492 Q 5.408 -102.341 4.87 -102.341 Q 4.322 -102.341 4.019 -102.453 Q 3.717 -102.565 3.459 -102.666 L 3.414 -102.666 L 3.134 -102.374 L 2.877 -102.374 Z " fill="black" /><path d="M 8.522 -108.31 L 8.522 -108.31 L 8.197 -108.467 Q 8.533 -109.229 9.087 -109.615 Q 9.642 -110.002 10.336 -110.002 Q 11.232 -110.002 11.781 -109.565 Q 12.33 -109.128 12.33 -108.434 Q 12.33 -107.829 11.96 -107.459 Q 11.59 -107.09 11.042 -106.731 L 11.042 -106.675 Q 11.512 -106.552 11.91 -106.306 Q 12.307 -106.059 12.542 -105.673 Q 12.778 -105.286 12.778 -104.738 Q 12.778 -104.122 12.509 -103.668 Q 12.24 -103.214 11.781 -102.918 Q 11.322 -102.621 10.734 -102.481 Q 10.146 -102.341 9.507 -102.341 Q 8.958 -102.341 8.673 -102.436 Q 8.387 -102.531 8.281 -102.688 Q 8.174 -102.845 8.174 -103.002 Q 8.174 -103.192 8.286 -103.377 Q 8.398 -103.562 8.667 -103.562 Q 8.779 -103.562 8.897 -103.5 Q 9.014 -103.438 9.328 -103.259 Q 9.586 -103.136 9.737 -103.069 Q 9.888 -103.002 10.006 -102.979 Q 10.123 -102.957 10.28 -102.957 Q 10.616 -102.957 10.946 -103.08 Q 11.277 -103.203 11.501 -103.522 Q 11.725 -103.842 11.725 -104.424 Q 11.725 -104.939 11.439 -105.309 Q 11.154 -105.678 10.672 -105.886 Q 10.19 -106.093 9.608 -106.093 L 9.362 -106.093 L 9.362 -106.619 L 9.597 -106.619 Q 10 -106.619 10.381 -106.804 Q 10.762 -106.989 11.008 -107.33 Q 11.254 -107.672 11.254 -108.142 Q 11.254 -108.669 10.913 -108.938 Q 10.571 -109.206 10.045 -109.206 Q 9.07 -109.206 8.522 -108.31 Z " fill="black" /></g></g></g><g><g><g><rect x="-2.16" y="-130.672" width="4.32" height="1.088" fill="black" /></g></g></g></svg>