<svg xmlns="http://www.w3.org/2000/svg" xmlns:xlink="http://www.w3.org/1999/xlink" xml:lang="en" height="277.71199999999993pt" width="336.59839999999997pt" viewBox="-54.19840000000001 -22.072 336.59839999999997 277.71199999999993"><circle cx="-6.613092715395707e-15" cy="36.0" r="18.0" style="stroke:black;fill:none;stroke-width:2.0;stroke-dasharray:-;" /><circle cx="122.99999999999996" cy="36.0" r="18.0" style="stroke:black;fill:none;stroke-width:2.0;stroke-dasharray:-;" /><path d="M 0.0,-0.0 L -3.3065463576978533e-15,18.0 L -3.3065463576978533e-15,18.0 M -9.919639073093561e-15,54.0 L -9.919639073093561e-15,54.0 L -1.3226185430791413e-14,72.0" style="stroke:black;fill:none;stroke-width:2.0;stroke-dasharray:-;stroke-linecap:round;stroke-linejoin:round;" /><path d="M -4.9598195365467806e-15,27.0 L -6.819055509535661e-15,36.0" style="stroke:black;fill:none;stroke-width:2.0;stroke-dasharray:-;stroke-linecap:round;stroke-linejoin:round;" /><path d="M -7.944741364309306e-15 43.0 L -2.7000000000000064 36.0 L 2.699999999999993 36.0 Z" style="stroke:black;fill:black;stroke-linecap:butt;stroke-linejoin:miter;" /><path d="M -1.3226185430791413e-14,72.0 L -1.3226185430791413e-14,87.0 L 14.999999999999984,87.0 L 14.999999999999984,117.0 L -1.3226185430791413e-14,117.0 L -1.3226185430791413e-14,132.0" style="stroke:black;fill:none;stroke-width:2.0;stroke-dasharray:-;stroke-linecap:round;stroke-linejoin:round;" /><path d="M 14.999999999999984,117.0 L 8.999999999999988,117.0" style="stroke:black;fill:none;stroke-width:2.0;stroke-dasharray:-;stroke-linecap:round;stroke-linejoin:round;" /><path d="M 1.9999999999999867 117.0 L 8.999999999999988 112.5 L 8.999999999999986 121.5 Z" style="stroke:black;fill:black;stroke-linecap:butt;stroke-linejoin:miter;" /><path d="M 17.999999999999986,90.0 L 17.999999999999986,114.00000000000001" style="stroke:black;fill:none;stroke-width:2.0;stroke-dasharray:-;stroke-linecap:round;stroke-linejoin:round;" /><path d="M 17.999999999999986,101.99999999999999 L 32.999999999999986,101.99999999999999" style="stroke:black;fill:none;stroke-width:2.0;stroke-dasharray:-;stroke-linecap:round;stroke-linejoin:round;" /><path d="M -1.3226185430791413e-14,132.0 L -1.6532731788489267e-14,149.99999999999997 L -1.9839278146187122e-14,167.99999999999997" style="stroke:black;fill:none;stroke-width:2.0;stroke-dasharray:-;stroke-linecap:round;stroke-linejoin:round;" /><path d="M -1.9839278146187122e-14,167.99999999999997 L -1.9839278146187122e-14,183.0 L 14.999999999999979,183.0 L 14.999999999999979,212.99999999999997 L -1.9839278146187122e-14,212.99999999999997 L -1.9839278146187122e-14,227.99999999999994" style="stroke:black;fill:none;stroke-width:2.0;stroke-dasharray:-;stroke-linecap:round;stroke-linejoin:round;" /><path d="M 14.999999999999979,212.99999999999997 L 8.99999999999998,212.99999999999997" style="stroke:black;fill:none;stroke-width:2.0;stroke-dasharray:-;stroke-linecap:round;stroke-linejoin:round;" /><path d="M 1.9999999999999802 212.99999999999997 L 8.999999999999982 208.49999999999997 L 8.999999999999979 217.49999999999997 Z" style="stroke:black;fill:black;stroke-linecap:butt;stroke-linejoin:miter;" /><path d="M 17.99999999999998,185.99999999999997 L 17.99999999999998,210.0" style="stroke:black;fill:none;stroke-width:2.0;stroke-dasharray:-;stroke-linecap:round;stroke-linejoin:round;" /><path d="M 17.99999999999998,197.99999999999997 L 32.99999999999997,197.99999999999997" style="stroke:black;fill:none;stroke-width:2.0;stroke-dasharray:-;stroke-linecap:round;stroke-linejoin:round;" /><path d="M -1.9839278146187122e-14,227.99999999999994 L -1.9839278146187122e-14,242.39999999999998 L -9.00000000000002,242.39999999999998 L 8.99999999999998,242.39999999999998 M -6.300000000000019,246.71999999999994 L 6.299999999999979,246.71999999999994 M -1.8000000000000198,251.03999999999994 L 1.7999999999999803,251.03999999999994" style="stroke:black;fill:none;stroke-width:2.0;stroke-dasharray:-;stroke-linecap:round;stroke-linejoin:round;" /><path d="M 32.99999999999997,197.99999999999997 L 41.99999999999998,197.99999999999997 L 50.99999999999998,197.99999999999997" style="stroke:black;fill:none;stroke-width:2.0;stroke-dasharray:-;stroke-linecap:round;stroke-linejoin:round;" /><path d="M 50.99999999999998,197.99999999999997 L 50.99999999999998,134.99999999999997 L 50.999999999999986,72.0" style="stroke:black;fill:none;stroke-width:2.0;stroke-dasharray:-;stroke-linecap:round;stroke-linejoin:round;" /><path d="M 50.999999999999986,72.0 L 25.499999999999986,72.0 L -1.5987211554602254e-14,71.99999999999999" style="stroke:black;fill:none;stroke-width:2.0;stroke-dasharray:-;stroke-linecap:round;stroke-linejoin:round;" /><path d="M 32.99999999999997,197.99999999999997 L 104.99999999999997,197.99999999999997 L 176.99999999999997,197.99999999999997" style="stroke:black;fill:none;stroke-width:2.0;stroke-dasharray:-;stroke-linecap:round;stroke-linejoin:round;" /><path d="M 209.99999999999994,227.99999999999994 L 209.99999999999994,212.99999999999997 L 194.99999999999997,212.99999999999997 L 194.99999999999997,182.99999999999994 L 209.99999999999994,182.99999999999994 L 209.99999999999994,167.99999999999997" style="stroke:black;fill:none;stroke-width:2.0;stroke-dasharray:-;stroke-linecap:round;stroke-linejoin:round;" /><path d="M 200.99999999999994,212.99999999999997 L 194.99999999999997,212.99999999999997" style="stroke:black;fill:none;stroke-width:2.0;stroke-dasharray:-;stroke-linecap:round;stroke-linejoin:round;" /><path d="M 207.99999999999994 212.99999999999997 L 200.99999999999994 217.49999999999997 L 200.99999999999994 208.49999999999997 Z" style="stroke:black;fill:black;stroke-linecap:butt;stroke-linejoin:miter;" /><path d="M 192.0,209.99999999999994 L 192.0,185.99999999999997" style="stroke:black;fill:none;stroke-width:2.0;stroke-dasharray:-;stroke-linecap:round;stroke-linejoin:round;" /><path d="M 176.99999999999997,197.99999999999997 L 192.0,197.99999999999997" style="stroke:black;fill:none;stroke-width:2.0;stroke-dasharray:-;stroke-linecap:round;stroke-linejoin:round;" /><path d="M 209.99999999999994,167.99999999999997 L 209.99999999999994,158.99999999999997 L 209.99999999999994,149.99999999999997" style="stroke:black;fill:none;stroke-width:2.0;stroke-dasharray:-;stroke-linecap:round;stroke-linejoin:round;" /><path d="M 209.99999999999994,149.99999999999997 L 209.99999999999994,140.99999999999997 L 209.99999999999994,131.99999999999997" style="stroke:black;fill:none;stroke-width:2.0;stroke-dasharray:-;stroke-linecap:round;stroke-linejoin:round;" /><path d="M 209.99999999999994,131.99999999999997 L 209.99999999999994,116.99999999999999 L 194.99999999999994,116.99999999999999 L 194.99999999999994,86.99999999999997 L 209.99999999999994,86.99999999999997 L 209.99999999999994,71.99999999999999" style="stroke:black;fill:none;stroke-width:2.0;stroke-dasharray:-;stroke-linecap:round;stroke-linejoin:round;" /><path d="M 200.99999999999994,116.99999999999999 L 194.99999999999994,116.99999999999999" style="stroke:black;fill:none;stroke-width:2.0;stroke-dasharray:-;stroke-linecap:round;stroke-linejoin:round;" /><path d="M 207.99999999999994 116.99999999999999 L 200.99999999999994 121.49999999999999 L 200.99999999999994 112.49999999999999 Z" style="stroke:black;fill:black;stroke-linecap:butt;stroke-linejoin:miter;" /><path d="M 191.99999999999994,113.99999999999997 L 191.99999999999994,89.99999999999999" style="stroke:black;fill:none;stroke-width:2.0;stroke-dasharray:-;stroke-linecap:round;stroke-linejoin:round;" /><path d="M 176.99999999999997,101.99999999999999 L 191.99999999999994,101.99999999999999" style="stroke:black;fill:none;stroke-width:2.0;stroke-dasharray:-;stroke-linecap:round;stroke-linejoin:round;" /><path d="M 209.99999999999994,227.99999999999994 L 209.99999999999994,242.39999999999998 L 200.99999999999994,242.39999999999998 L 218.99999999999994,242.39999999999998 M 203.69999999999996,246.71999999999994 L 216.29999999999995,246.71999999999994 M 208.19999999999996,251.03999999999994 L 211.79999999999995,251.03999999999994" style="stroke:black;fill:none;stroke-width:2.0;stroke-dasharray:-;stroke-linecap:round;stroke-linejoin:round;" /><path d="M 209.99999999999994,71.99999999999999 L 209.99999999999994,53.999999999999986 L 209.99999999999994,35.999999999999986" style="stroke:black;fill:none;stroke-width:2.0;stroke-dasharray:-;stroke-linecap:round;stroke-linejoin:round;" /><path d="M 209.99999999999994,149.99999999999997 L 182.99999999999994,149.99999999999997 L 155.99999999999994,149.99999999999997" style="stroke:black;fill:none;stroke-width:2.0;stroke-dasharray:-;stroke-linecap:round;stroke-linejoin:round;" /><path d="M 122.99999999999996,119.99999999999999 L 122.99999999999996,134.99999999999997 L 137.99999999999994,134.99999999999997 L 137.99999999999994,165.0 L 122.99999999999996,165.0 L 122.99999999999996,179.99999999999997" style="stroke:black;fill:none;stroke-width:2.0;stroke-dasharray:-;stroke-linecap:round;stroke-linejoin:round;" /><path d="M 137.99999999999994,165.0 L 131.99999999999997,165.0" style="stroke:black;fill:none;stroke-width:2.0;stroke-dasharray:-;stroke-linecap:round;stroke-linejoin:round;" /><path d="M 124.99999999999996 165.0 L 131.99999999999997 160.5 L 131.99999999999994 169.5 Z" style="stroke:black;fill:black;stroke-linecap:butt;stroke-linejoin:miter;" /><path d="M 140.99999999999997,137.99999999999997 L 140.99999999999997,162.0" style="stroke:black;fill:none;stroke-width:2.0;stroke-dasharray:-;stroke-linecap:round;stroke-linejoin:round;" /><path d="M 140.99999999999997,149.99999999999997 L 155.99999999999994,149.99999999999997" style="stroke:black;fill:none;stroke-width:2.0;stroke-dasharray:-;stroke-linecap:round;stroke-linejoin:round;" /><path d="M 122.99999999999996,179.99999999999997 L 122.99999999999996,203.99999999999997 L 122.99999999999994,227.99999999999994" style="stroke:black;fill:none;stroke-width:2.0;stroke-dasharray:-;stroke-linecap:round;stroke-linejoin:round;" /><path d="M 122.99999999999994,227.99999999999994 L 122.99999999999994,242.39999999999998 L 113.99999999999994,242.39999999999998 L 131.99999999999994,242.39999999999998 M 116.69999999999996,246.71999999999994 L 129.29999999999995,246.71999999999994 M 121.19999999999996,251.03999999999994 L 124.79999999999994,251.03999999999994" style="stroke:black;fill:none;stroke-width:2.0;stroke-dasharray:-;stroke-linecap:round;stroke-linejoin:round;" /><path d="M 122.99999999999996,119.99999999999999 L 122.99999999999996,110.99999999999999 L 122.99999999999996,101.99999999999999" style="stroke:black;fill:none;stroke-width:2.0;stroke-dasharray:-;stroke-linecap:round;stroke-linejoin:round;" /><path d="M 122.99999999999996,101.99999999999999 L 122.99999999999996,87.0 L 122.99999999999996,72.0" style="stroke:black;fill:none;stroke-width:2.0;stroke-dasharray:-;stroke-linecap:round;stroke-linejoin:round;" /><path d="M 122.99999999999996,72.0 L 122.99999999999996,54.0 L 122.99999999999996,54.0 M 122.99999999999996,18.0 L 122.99999999999996,18.0 L 122.99999999999996,-0.0" style="stroke:black;fill:none;stroke-width:2.0;stroke-dasharray:-;stroke-linecap:round;stroke-linejoin:round;" /><path d="M 122.99999999999996,36.0 L 122.99999999999996,27.0" style="stroke:black;fill:none;stroke-width:2.0;stroke-dasharray:-;stroke-linecap:round;stroke-linejoin:round;" /><path d="M 122.99999999999996 43.0 L 120.29999999999995 36.0 L 125.69999999999996 36.0 Z" style="stroke:black;fill:black;stroke-linecap:butt;stroke-linejoin:miter;" /><path d="M 122.99999999999996,101.99999999999999 L 77.99999999999997,101.99999999999999 L 32.99999999999998,101.99999999999997" style="stroke:black;fill:none;stroke-width:2.0;stroke-dasharray:-;stroke-linecap:round;stroke-linejoin:round;" /><path d="M 122.99999999999996,101.99999999999999 L 149.99999999999997,101.99999999999999 L 176.99999999999997,101.99999999999999" style="stroke:black;fill:none;stroke-width:2.0;stroke-dasharray:-;stroke-linecap:round;stroke-linejoin:round;" /><path d="M -18.0,-0.0 L 61.499999999999986,-0.0 L 140.99999999999997,-0.0" style="stroke:black;fill:none;stroke-width:3;stroke-dasharray:-;stroke-linecap:round;stroke-linejoin:round;" /><circle cx="-1.3226185430791413e-14" cy="72.0" r="2.6999999999999997" style="stroke:black;fill:black;stroke-width:2.0;stroke-dasharray:-;" /><g><g><g><path d="M -54.733 38.757 L -54.733 38.757 L -53.421 32.453 Q -53.277 31.829 -53.285 31.469 Q -53.293 31.109 -53.581 30.965 Q -53.869 30.821 -54.605 30.821 L -54.509 30.341 L -50.077 30.341 L -50.173 30.821 Q -50.877 30.821 -51.229 30.965 Q -51.581 31.109 -51.725 31.469 Q -51.869 31.829 -51.997 32.453 L -53.309 38.821 Q -53.357 39.077 -53.389 39.285 Q -53.421 39.493 -53.421 39.669 Q -53.421 40.117 -53.157 40.245 Q -52.893 40.373 -52.141 40.373 L -52.237 40.853 L -56.605 40.853 L -56.509 40.373 Q -55.853 40.373 -55.525 40.261 Q -55.197 40.149 -55.037 39.805 Q -54.877 39.461 -54.733 38.757 Z " fill="black" /><path d="M -47.736 35.847 L -47.736 35.847 L -47.736 39.319 L -47.68 39.319 Q -47.355 38.938 -46.913 38.636 Q -46.47 38.333 -45.843 38.333 Q -45.261 38.333 -44.785 38.686 Q -44.309 39.039 -44.023 39.66 Q -43.738 40.282 -43.738 41.088 Q -43.738 42.164 -44.13 42.892 Q -44.522 43.62 -45.199 43.984 Q -45.877 44.348 -46.739 44.348 Q -47.243 44.348 -47.669 44.264 Q -48.094 44.18 -48.391 44.068 Q -48.688 43.956 -48.822 43.9 L -48.822 37.18 Q -48.822 36.765 -48.912 36.648 Q -49.002 36.53 -49.382 36.53 Q -49.506 36.53 -49.612 36.547 Q -49.718 36.564 -49.718 36.564 L -49.718 36.138 L -48.195 35.847 Z M -47.736 39.901 L -47.736 39.901 L -47.736 43.261 Q -47.602 43.508 -47.31 43.653 Q -47.019 43.799 -46.538 43.799 Q -45.944 43.799 -45.586 43.48 Q -45.227 43.16 -45.065 42.628 Q -44.902 42.096 -44.902 41.469 Q -44.902 40.898 -45.031 40.377 Q -45.16 39.856 -45.485 39.532 Q -45.81 39.207 -46.381 39.207 Q -46.683 39.207 -46.958 39.324 Q -47.232 39.442 -47.434 39.604 Q -47.635 39.767 -47.736 39.901 Z " fill="black" /><path d="M -39.65 43.799 L -39.65 43.799 L -39.65 44.213 L -42.494 44.213 L -42.494 43.799 Q -42.102 43.799 -41.929 43.715 Q -41.755 43.631 -41.71 43.446 Q -41.666 43.261 -41.666 42.959 L -41.666 39.576 Q -41.666 39.196 -41.789 39.117 Q -41.912 39.039 -42.203 39.039 Q -42.349 39.039 -42.438 39.05 Q -42.528 39.061 -42.528 39.061 L -42.528 38.613 L -41.027 38.367 L -40.568 38.367 L -40.568 42.959 Q -40.568 43.284 -40.518 43.468 Q -40.467 43.653 -40.271 43.726 Q -40.075 43.799 -39.65 43.799 Z M -41.128 35.892 L -41.128 35.892 Q -40.803 35.892 -40.585 36.116 Q -40.366 36.34 -40.366 36.631 Q -40.366 36.9 -40.585 37.124 Q -40.803 37.348 -41.128 37.348 Q -41.442 37.348 -41.649 37.124 Q -41.856 36.9 -41.856 36.631 Q -41.856 36.34 -41.649 36.116 Q -41.442 35.892 -41.128 35.892 Z " fill="black" /><path d="M -35.17 43.508 L -35.17 43.508 L -35.248 43.508 Q -35.629 43.821 -36.088 44.056 Q -36.547 44.292 -37.085 44.292 Q -37.79 44.292 -38.166 43.866 Q -38.541 43.44 -38.541 42.836 Q -38.541 42.32 -38.3 41.973 Q -38.059 41.626 -37.673 41.408 Q -37.286 41.189 -36.838 41.055 Q -36.39 40.92 -35.976 40.842 Q -35.562 40.764 -35.282 40.696 L -35.282 40.114 Q -35.282 39.364 -35.578 39.078 Q -35.875 38.792 -36.446 38.792 Q -36.794 38.792 -36.945 38.882 Q -37.096 38.972 -37.135 39.173 Q -37.174 39.375 -37.186 39.7 Q -37.197 39.946 -37.331 40.097 Q -37.466 40.248 -37.723 40.248 Q -37.97 40.248 -38.143 40.097 Q -38.317 39.946 -38.317 39.655 Q -38.317 39.308 -38.048 39.005 Q -37.779 38.703 -37.281 38.518 Q -36.782 38.333 -36.11 38.333 Q -35.102 38.333 -34.649 38.798 Q -34.195 39.263 -34.195 40.192 L -34.195 42.936 Q -34.195 43.306 -34.111 43.412 Q -34.027 43.519 -33.848 43.519 Q -33.658 43.519 -33.518 43.44 Q -33.378 43.362 -33.254 43.216 L -33.008 43.452 Q -33.59 44.28 -34.374 44.28 Q -34.811 44.28 -34.974 44.073 Q -35.136 43.866 -35.17 43.508 Z M -35.282 43.093 L -35.282 43.093 L -35.282 41.122 Q -35.797 41.256 -36.29 41.419 Q -36.782 41.581 -37.102 41.861 Q -37.421 42.141 -37.421 42.645 Q -37.421 43.082 -37.169 43.334 Q -36.917 43.586 -36.525 43.586 Q -36.29 43.586 -35.959 43.48 Q -35.629 43.373 -35.282 43.093 Z " fill="black" /><path d="M -32.235 42.175 L -32.235 42.175 L -31.877 42.175 Q -31.731 42.824 -31.53 43.183 Q -31.328 43.541 -31.009 43.681 Q -30.69 43.821 -30.23 43.821 Q -29.704 43.821 -29.418 43.648 Q -29.133 43.474 -29.133 43.037 Q -29.133 42.746 -29.273 42.55 Q -29.413 42.354 -29.721 42.175 Q -30.029 41.996 -30.544 41.76 Q -31.07 41.503 -31.446 41.279 Q -31.821 41.055 -32.017 40.752 Q -32.213 40.45 -32.213 39.991 Q -32.213 39.184 -31.67 38.759 Q -31.126 38.333 -30.309 38.333 Q -29.816 38.333 -29.474 38.456 Q -29.133 38.58 -28.931 38.669 L -28.909 38.669 L -28.73 38.389 L -28.416 38.389 L -28.394 40.248 L -28.786 40.248 Q -28.998 39.386 -29.379 39.089 Q -29.76 38.792 -30.253 38.792 Q -30.768 38.792 -31.031 39.016 Q -31.294 39.24 -31.294 39.599 Q -31.294 39.89 -31.115 40.08 Q -30.936 40.271 -30.606 40.433 Q -30.275 40.596 -29.816 40.82 Q -29.301 41.066 -28.909 41.329 Q -28.517 41.592 -28.293 41.923 Q -28.069 42.253 -28.069 42.746 Q -28.069 43.34 -28.382 43.698 Q -28.696 44.056 -29.189 44.208 Q -29.682 44.359 -30.219 44.359 Q -30.768 44.359 -31.07 44.247 Q -31.373 44.135 -31.63 44.034 L -31.675 44.034 L -31.955 44.325 L -32.213 44.325 Z " fill="black" /><path d="M -22.67 44.213 L -22.67 44.213 L -26.467 44.213 L -26.467 43.81 Q -25.661 43.81 -25.398 43.648 Q -25.134 43.485 -25.134 43.06 L -25.134 38.176 Q -25.134 37.874 -25.224 37.74 Q -25.314 37.605 -25.549 37.605 Q -25.728 37.605 -26.036 37.656 Q -26.344 37.706 -26.568 37.762 L -26.568 37.314 L -24.496 36.743 L -24.014 36.743 L -24.014 43.06 Q -24.014 43.485 -23.729 43.648 Q -23.443 43.81 -22.67 43.81 Z " fill="black" /></g></g></g><g><g><g><path d="M -28.682 95.48 L -28.682 95.48 L -28.73 95.96 Q -29.306 95.976 -29.658 96.216 Q -30.01 96.456 -30.426 97.064 L -36.058 106.088 L -36.522 106.088 L -37.05 99.864 L -37.114 99.864 L -41.226 106.088 L -41.674 106.088 L -42.458 97.4 Q -42.522 96.616 -42.794 96.288 Q -43.066 95.96 -43.754 95.96 L -43.674 95.48 L -39.674 95.48 L -39.754 95.96 Q -40.442 95.96 -40.714 96.096 Q -40.986 96.232 -41.018 96.552 Q -41.018 96.584 -41.018 96.648 Q -41.018 96.776 -41.018 96.96 Q -41.018 97.144 -40.986 97.368 L -40.57 101.88 L -40.49 103.416 L -40.394 103.416 L -37.162 98.728 L -37.274 97.464 Q -37.338 96.776 -37.442 96.456 Q -37.546 96.136 -37.778 96.048 Q -38.01 95.96 -38.474 95.96 L -38.394 95.48 L -34.314 95.48 L -34.394 95.96 Q -35.274 95.96 -35.57 96.248 Q -35.866 96.536 -35.802 97.432 L -35.418 101.752 L -35.354 103.384 L -35.274 103.384 L -31.866 98.024 Q -31.61 97.624 -31.386 97.192 Q -31.162 96.76 -31.162 96.408 Q -31.162 96.168 -31.338 96.064 Q -31.514 95.96 -32.042 95.96 L -31.946 95.48 Z " fill="black" /><path d="M -24.261 107.403 L -24.261 107.403 L -24.642 109.352 L -29.234 109.352 L -29.234 108.803 L -27.643 107.19 Q -27.016 106.563 -26.607 106.082 Q -26.198 105.6 -25.997 105.113 Q -25.795 104.626 -25.795 103.998 Q -25.795 103.405 -26.159 103.018 Q -26.523 102.632 -27.184 102.632 Q -27.789 102.632 -28.198 102.873 Q -28.606 103.114 -28.92 103.662 L -29.222 103.517 Q -28.942 102.733 -28.354 102.285 Q -27.766 101.837 -26.904 101.837 Q -26.232 101.837 -25.717 102.078 Q -25.202 102.318 -24.91 102.766 Q -24.619 103.214 -24.619 103.853 Q -24.619 104.402 -24.866 104.883 Q -25.112 105.365 -25.566 105.869 Q -26.019 106.373 -26.646 106.989 L -28.046 108.344 L -28.046 108.422 L -27.173 108.378 L -25.717 108.378 Q -25.392 108.378 -25.218 108.288 Q -25.045 108.198 -24.922 107.98 Q -24.798 107.762 -24.653 107.403 Z " fill="black" /><path d="M -18.253 94.648 L -18.253 94.648 L -22.413 107.416 L -23.309 107.416 L -19.133 94.648 Z " fill="black" /><path d="M -8.829 102.872 L -8.829 102.872 L -9.789 105.992 L -17.693 105.992 L -17.597 105.512 Q -16.973 105.512 -16.645 105.4 Q -16.317 105.288 -16.141 104.968 Q -15.965 104.648 -15.837 104.008 L -14.461 97.336 Q -14.349 96.808 -14.381 96.504 Q -14.413 96.2 -14.709 96.08 Q -15.005 95.96 -15.693 95.96 L -15.597 95.48 L -11.053 95.48 L -11.133 95.96 Q -11.997 95.96 -12.429 96.224 Q -12.861 96.488 -13.037 97.352 L -14.493 104.52 Q -14.605 105.048 -14.381 105.216 Q -14.157 105.384 -13.453 105.384 L -12.701 105.384 Q -11.933 105.384 -11.453 105.248 Q -10.973 105.112 -10.637 104.824 Q -10.301 104.536 -10.005 104.048 Q -9.709 103.56 -9.341 102.872 Z " fill="black" /><path d="M -2.904 107.403 L -2.904 107.403 L -3.285 109.352 L -7.877 109.352 L -7.877 108.803 L -6.286 107.19 Q -5.659 106.563 -5.25 106.082 Q -4.842 105.6 -4.64 105.113 Q -4.438 104.626 -4.438 103.998 Q -4.438 103.405 -4.802 103.018 Q -5.166 102.632 -5.827 102.632 Q -6.432 102.632 -6.841 102.873 Q -7.25 103.114 -7.563 103.662 L -7.866 103.517 Q -7.586 102.733 -6.998 102.285 Q -6.41 101.837 -5.547 101.837 Q -4.875 101.837 -4.36 102.078 Q -3.845 102.318 -3.554 102.766 Q -3.262 103.214 -3.262 103.853 Q -3.262 104.402 -3.509 104.883 Q -3.755 105.365 -4.209 105.869 Q -4.662 106.373 -5.29 106.989 L -6.69 108.344 L -6.69 108.422 L -5.816 108.378 L -4.36 108.378 Q -4.035 108.378 -3.862 108.288 Q -3.688 108.198 -3.565 107.98 Q -3.442 107.762 -3.296 107.403 Z " fill="black" /></g></g></g><g><g><g><path d="M -28.346 191.48 L -28.346 191.48 L -28.394 191.96 Q -28.97 191.976 -29.322 192.216 Q -29.674 192.456 -30.09 193.064 L -35.722 202.088 L -36.186 202.088 L -36.714 195.864 L -36.778 195.864 L -40.89 202.088 L -41.338 202.088 L -42.122 193.4 Q -42.186 192.616 -42.458 192.288 Q -42.73 191.96 -43.418 191.96 L -43.338 191.48 L -39.338 191.48 L -39.418 191.96 Q -40.106 191.96 -40.378 192.096 Q -40.65 192.232 -40.682 192.552 Q -40.682 192.584 -40.682 192.648 Q -40.682 192.776 -40.682 192.96 Q -40.682 193.144 -40.65 193.368 L -40.234 197.88 L -40.154 199.416 L -40.058 199.416 L -36.826 194.728 L -36.938 193.464 Q -37.002 192.776 -37.106 192.456 Q -37.21 192.136 -37.442 192.048 Q -37.674 191.96 -38.138 191.96 L -38.058 191.48 L -33.978 191.48 L -34.058 191.96 Q -34.938 191.96 -35.234 192.248 Q -35.53 192.536 -35.466 193.432 L -35.082 197.752 L -35.018 199.384 L -34.938 199.384 L -31.53 194.024 Q -31.274 193.624 -31.05 193.192 Q -30.826 192.76 -30.826 192.408 Q -30.826 192.168 -31.002 192.064 Q -31.178 191.96 -31.706 191.96 L -31.61 191.48 Z " fill="black" /><path d="M -24.563 205.352 L -24.563 205.352 L -28.36 205.352 L -28.36 204.949 Q -27.554 204.949 -27.29 204.786 Q -27.027 204.624 -27.027 204.198 L -27.027 199.315 Q -27.027 199.013 -27.117 198.878 Q -27.206 198.744 -27.442 198.744 Q -27.621 198.744 -27.929 198.794 Q -28.237 198.845 -28.461 198.901 L -28.461 198.453 L -26.389 197.882 L -25.907 197.882 L -25.907 204.198 Q -25.907 204.624 -25.622 204.786 Q -25.336 204.949 -24.563 204.949 Z " fill="black" /><path d="M -18.085 190.648 L -18.085 190.648 L -22.245 203.416 L -23.141 203.416 L -18.965 190.648 Z " fill="black" /><path d="M -8.661 198.872 L -8.661 198.872 L -9.621 201.992 L -17.525 201.992 L -17.429 201.512 Q -16.805 201.512 -16.477 201.4 Q -16.149 201.288 -15.973 200.968 Q -15.797 200.648 -15.669 200.008 L -14.293 193.336 Q -14.181 192.808 -14.213 192.504 Q -14.245 192.2 -14.541 192.08 Q -14.837 191.96 -15.525 191.96 L -15.429 191.48 L -10.885 191.48 L -10.965 191.96 Q -11.829 191.96 -12.261 192.224 Q -12.693 192.488 -12.869 193.352 L -14.325 200.52 Q -14.437 201.048 -14.213 201.216 Q -13.989 201.384 -13.285 201.384 L -12.533 201.384 Q -11.765 201.384 -11.285 201.248 Q -10.805 201.112 -10.469 200.824 Q -10.133 200.536 -9.837 200.048 Q -9.541 199.56 -9.173 198.872 Z " fill="black" /><path d="M -3.374 205.352 L -3.374 205.352 L -7.171 205.352 L -7.171 204.949 Q -6.365 204.949 -6.102 204.786 Q -5.838 204.624 -5.838 204.198 L -5.838 199.315 Q -5.838 199.013 -5.928 198.878 Q -6.018 198.744 -6.253 198.744 Q -6.432 198.744 -6.74 198.794 Q -7.048 198.845 -7.272 198.901 L -7.272 198.453 L -5.2 197.882 L -4.718 197.882 L -4.718 204.198 Q -4.718 204.624 -4.433 204.786 Q -4.147 204.949 -3.374 204.949 Z " fill="black" /></g></g></g><circle cx="50.99999999999998" cy="197.99999999999997" r="2.6999999999999997" style="stroke:black;fill:black;stroke-width:2.0;stroke-dasharray:-;" /><g><g><g><path d="M 220.409 190.712 L 220.409 190.712 L 218.985 198.184 L 219.065 198.184 L 221.561 195.928 Q 221.737 195.784 221.841 195.64 Q 221.945 195.496 221.945 195.336 Q 221.945 195.08 221.729 195 Q 221.513 194.92 221.225 194.92 L 221.273 194.52 L 224.713 194.52 L 224.665 194.92 Q 223.849 194.936 223.401 195.224 Q 222.953 195.512 222.553 195.88 L 220.777 197.448 L 221.961 200.2 Q 222.137 200.6 222.305 200.832 Q 222.473 201.064 222.825 201.064 Q 223.241 201.064 223.537 200.784 Q 223.833 200.504 224.089 200.136 L 224.425 200.36 Q 224.361 200.472 224.185 200.76 Q 224.009 201.048 223.721 201.368 Q 223.433 201.688 223.057 201.92 Q 222.681 202.152 222.217 202.152 Q 221.817 202.152 221.561 201.96 Q 221.305 201.768 221.153 201.48 Q 221.001 201.192 220.873 200.904 L 219.769 198.232 L 218.841 199.048 L 218.281 201.992 L 216.969 201.992 L 218.857 192.264 Q 218.857 192.264 218.881 192.104 Q 218.905 191.944 218.905 191.784 Q 218.905 191.272 218.345 191.272 Q 218.201 191.272 218.025 191.288 Q 217.849 191.304 217.849 191.304 L 217.849 190.888 L 220.057 190.712 Z " fill="black" /><path d="M 231.596 197.912 L 231.596 197.912 Q 231.596 198.28 231.348 198.552 Q 231.1 198.824 230.636 198.824 Q 230.172 198.824 229.94 198.56 Q 229.708 198.296 229.708 197.896 Q 229.708 197.496 229.956 197.208 Q 230.204 196.92 230.652 196.92 Q 231.116 196.92 231.356 197.216 Q 231.596 197.512 231.596 197.912 Z " fill="black" /><path d="M 252.622 191.48 L 252.622 191.48 L 252.574 191.96 Q 251.998 191.976 251.646 192.216 Q 251.294 192.456 250.878 193.064 L 245.246 202.088 L 244.782 202.088 L 244.254 195.864 L 244.19 195.864 L 240.078 202.088 L 239.63 202.088 L 238.846 193.4 Q 238.782 192.616 238.51 192.288 Q 238.238 191.96 237.55 191.96 L 237.63 191.48 L 241.63 191.48 L 241.55 191.96 Q 240.862 191.96 240.59 192.096 Q 240.318 192.232 240.286 192.552 Q 240.286 192.584 240.286 192.648 Q 240.286 192.776 240.286 192.96 Q 240.286 193.144 240.318 193.368 L 240.734 197.88 L 240.814 199.416 L 240.91 199.416 L 244.142 194.728 L 244.03 193.464 Q 243.966 192.776 243.862 192.456 Q 243.758 192.136 243.526 192.048 Q 243.294 191.96 242.83 191.96 L 242.91 191.48 L 246.99 191.48 L 246.91 191.96 Q 246.03 191.96 245.734 192.248 Q 245.438 192.536 245.502 193.432 L 245.886 197.752 L 245.95 199.384 L 246.03 199.384 L 249.438 194.024 Q 249.694 193.624 249.918 193.192 Q 250.142 192.76 250.142 192.408 Q 250.142 192.168 249.966 192.064 Q 249.79 191.96 249.262 191.96 L 249.358 191.48 Z " fill="black" /><path d="M 256.405 205.352 L 256.405 205.352 L 252.608 205.352 L 252.608 204.949 Q 253.414 204.949 253.678 204.786 Q 253.941 204.624 253.941 204.198 L 253.941 199.315 Q 253.941 199.013 253.851 198.878 Q 253.762 198.744 253.526 198.744 Q 253.347 198.744 253.039 198.794 Q 252.731 198.845 252.507 198.901 L 252.507 198.453 L 254.579 197.882 L 255.061 197.882 L 255.061 204.198 Q 255.061 204.624 255.346 204.786 Q 255.632 204.949 256.405 204.949 Z " fill="black" /><path d="M 262.883 190.648 L 262.883 190.648 L 258.723 203.416 L 257.827 203.416 L 262.003 190.648 Z " fill="black" /><path d="M 272.307 198.872 L 272.307 198.872 L 271.347 201.992 L 263.443 201.992 L 263.539 201.512 Q 264.163 201.512 264.491 201.4 Q 264.819 201.288 264.995 200.968 Q 265.171 200.648 265.299 200.008 L 266.675 193.336 Q 266.787 192.808 266.755 192.504 Q 266.723 192.2 266.427 192.08 Q 266.131 191.96 265.443 191.96 L 265.539 191.48 L 270.083 191.48 L 270.003 191.96 Q 269.139 191.96 268.707 192.224 Q 268.275 192.488 268.099 193.352 L 266.643 200.52 Q 266.531 201.048 266.755 201.216 Q 266.979 201.384 267.683 201.384 L 268.435 201.384 Q 269.203 201.384 269.683 201.248 Q 270.163 201.112 270.499 200.824 Q 270.835 200.536 271.131 200.048 Q 271.427 199.56 271.795 198.872 Z " fill="black" /><path d="M 277.594 205.352 L 277.594 205.352 L 273.797 205.352 L 273.797 204.949 Q 274.603 204.949 274.866 204.786 Q 275.13 204.624 275.13 204.198 L 275.13 199.315 Q 275.13 199.013 275.04 198.878 Q 274.95 198.744 274.715 198.744 Q 274.536 198.744 274.228 198.794 Q 273.92 198.845 273.696 198.901 L 273.696 198.453 L 275.768 197.882 L 276.25 197.882 L 276.25 204.198 Q 276.25 204.624 276.535 204.786 Q 276.821 204.949 277.594 204.949 Z " fill="black" /></g></g></g><circle cx="209.99999999999994" cy="149.99999999999997" r="2.6999999999999997" style="stroke:black;fill:black;stroke-width:2.0;stroke-dasharray:-;" /><g><g><g><path d="M 220.073 94.712 L 220.073 94.712 L 218.649 102.184 L 218.729 102.184 L 221.225 99.928 Q 221.401 99.784 221.505 99.64 Q 221.609 99.496 221.609 99.336 Q 221.609 99.08 221.393 99 Q 221.177 98.92 220.889 98.92 L 220.937 98.52 L 224.377 98.52 L 224.329 98.92 Q 223.513 98.936 223.065 99.224 Q 222.617 99.512 222.217 99.88 L 220.441 101.448 L 221.625 104.2 Q 221.801 104.6 221.969 104.832 Q 222.137 105.064 222.489 105.064 Q 222.905 105.064 223.201 104.784 Q 223.497 104.504 223.753 104.136 L 224.089 104.36 Q 224.025 104.472 223.849 104.76 Q 223.673 105.048 223.385 105.368 Q 223.097 105.688 222.721 105.92 Q 222.345 106.152 221.881 106.152 Q 221.481 106.152 221.225 105.96 Q 220.969 105.768 220.817 105.48 Q 220.665 105.192 220.537 104.904 L 219.433 102.232 L 218.505 103.048 L 217.945 105.992 L 216.633 105.992 L 218.521 96.264 Q 218.521 96.264 218.545 96.104 Q 218.569 95.944 218.569 95.784 Q 218.569 95.272 218.009 95.272 Q 217.865 95.272 217.689 95.288 Q 217.513 95.304 217.513 95.304 L 217.513 94.888 L 219.721 94.712 Z " fill="black" /><path d="M 231.26 101.912 L 231.26 101.912 Q 231.26 102.28 231.012 102.552 Q 230.764 102.824 230.3 102.824 Q 229.836 102.824 229.604 102.56 Q 229.372 102.296 229.372 101.896 Q 229.372 101.496 229.62 101.208 Q 229.868 100.92 230.316 100.92 Q 230.78 100.92 231.02 101.216 Q 231.26 101.512 231.26 101.912 Z " fill="black" /><path d="M 252.286 95.48 L 252.286 95.48 L 252.238 95.96 Q 251.662 95.976 251.31 96.216 Q 250.958 96.456 250.542 97.064 L 244.91 106.088 L 244.446 106.088 L 243.918 99.864 L 243.854 99.864 L 239.742 106.088 L 239.294 106.088 L 238.51 97.4 Q 238.446 96.616 238.174 96.288 Q 237.902 95.96 237.214 95.96 L 237.294 95.48 L 241.294 95.48 L 241.214 95.96 Q 240.526 95.96 240.254 96.096 Q 239.982 96.232 239.95 96.552 Q 239.95 96.584 239.95 96.648 Q 239.95 96.776 239.95 96.96 Q 239.95 97.144 239.982 97.368 L 240.398 101.88 L 240.478 103.416 L 240.574 103.416 L 243.806 98.728 L 243.694 97.464 Q 243.63 96.776 243.526 96.456 Q 243.422 96.136 243.19 96.048 Q 242.958 95.96 242.494 95.96 L 242.574 95.48 L 246.654 95.48 L 246.574 95.96 Q 245.694 95.96 245.398 96.248 Q 245.102 96.536 245.166 97.432 L 245.55 101.752 L 245.614 103.384 L 245.694 103.384 L 249.102 98.024 Q 249.358 97.624 249.582 97.192 Q 249.806 96.76 249.806 96.408 Q 249.806 96.168 249.63 96.064 Q 249.454 95.96 248.926 95.96 L 249.022 95.48 Z " fill="black" /><path d="M 256.707 107.403 L 256.707 107.403 L 256.326 109.352 L 251.734 109.352 L 251.734 108.803 L 253.325 107.19 Q 253.952 106.563 254.361 106.082 Q 254.77 105.6 254.971 105.113 Q 255.173 104.626 255.173 103.998 Q 255.173 103.405 254.809 103.018 Q 254.445 102.632 253.784 102.632 Q 253.179 102.632 252.77 102.873 Q 252.362 103.114 252.048 103.662 L 251.746 103.517 Q 252.026 102.733 252.614 102.285 Q 253.202 101.837 254.064 101.837 Q 254.736 101.837 255.251 102.078 Q 255.766 102.318 256.058 102.766 Q 256.349 103.214 256.349 103.853 Q 256.349 104.402 256.102 104.883 Q 255.856 105.365 255.402 105.869 Q 254.949 106.373 254.322 106.989 L 252.922 108.344 L 252.922 108.422 L 253.795 108.378 L 255.251 108.378 Q 255.576 108.378 255.75 108.288 Q 255.923 108.198 256.046 107.98 Q 256.17 107.762 256.315 107.403 Z " fill="black" /><path d="M 262.715 94.648 L 262.715 94.648 L 258.555 107.416 L 257.659 107.416 L 261.835 94.648 Z " fill="black" /><path d="M 272.139 102.872 L 272.139 102.872 L 271.179 105.992 L 263.275 105.992 L 263.371 105.512 Q 263.995 105.512 264.323 105.4 Q 264.651 105.288 264.827 104.968 Q 265.003 104.648 265.131 104.008 L 266.507 97.336 Q 266.619 96.808 266.587 96.504 Q 266.555 96.2 266.259 96.08 Q 265.963 95.96 265.275 95.96 L 265.371 95.48 L 269.915 95.48 L 269.835 95.96 Q 268.971 95.96 268.539 96.224 Q 268.107 96.488 267.931 97.352 L 266.475 104.52 Q 266.363 105.048 266.587 105.216 Q 266.811 105.384 267.515 105.384 L 268.267 105.384 Q 269.035 105.384 269.515 105.248 Q 269.995 105.112 270.331 104.824 Q 270.667 104.536 270.963 104.048 Q 271.259 103.56 271.627 102.872 Z " fill="black" /><path d="M 278.064 107.403 L 278.064 107.403 L 277.683 109.352 L 273.091 109.352 L 273.091 108.803 L 274.682 107.19 Q 275.309 106.563 275.718 106.082 Q 276.126 105.6 276.328 105.113 Q 276.53 104.626 276.53 103.998 Q 276.53 103.405 276.166 103.018 Q 275.802 102.632 275.141 102.632 Q 274.536 102.632 274.127 102.873 Q 273.718 103.114 273.405 103.662 L 273.102 103.517 Q 273.382 102.733 273.97 102.285 Q 274.558 101.837 275.421 101.837 Q 276.093 101.837 276.608 102.078 Q 277.123 102.318 277.414 102.766 Q 277.706 103.214 277.706 103.853 Q 277.706 104.402 277.459 104.883 Q 277.213 105.365 276.759 105.869 Q 276.306 106.373 275.678 106.989 L 274.278 108.344 L 274.278 108.422 L 275.152 108.378 L 276.608 108.378 Q 276.933 108.378 277.106 108.288 Q 277.28 108.198 277.403 107.98 Q 277.526 107.762 277.672 107.403 Z " fill="black" /></g></g></g><circle cx="209.99999999999994" cy="35.999999999999986" r="2.6999999999999997" style="stroke:black;fill:white;stroke-width:2.0;stroke-dasharray:-;" /><g><g><g><path d="M 159.961 24.098 L 159.961 24.098 L 161.273 17.794 Q 161.417 17.17 161.409 16.81 Q 161.401 16.45 161.113 16.306 Q 160.825 16.162 160.089 16.162 L 160.185 15.682 L 164.617 15.682 L 164.521 16.162 Q 163.817 16.162 163.465 16.306 Q 163.113 16.45 162.969 16.81 Q 162.825 17.17 162.697 17.794 L 161.385 24.162 Q 161.337 24.418 161.305 24.626 Q 161.273 24.834 161.273 25.01 Q 161.273 25.458 161.537 25.586 Q 161.801 25.714 162.553 25.714 L 162.457 26.194 L 158.089 26.194 L 158.185 25.714 Q 158.841 25.714 159.169 25.602 Q 159.497 25.49 159.657 25.146 Q 159.817 24.802 159.961 24.098 Z " fill="black" /><path d="M 168.078 23.674 L 168.078 23.674 Q 168.918 23.674 169.545 24.038 Q 170.172 24.402 170.514 25.058 Q 170.855 25.713 170.855 26.598 Q 170.855 27.662 170.497 28.345 Q 170.138 29.028 169.511 29.358 Q 168.884 29.689 168.078 29.689 Q 167.26 29.689 166.627 29.347 Q 165.994 29.006 165.642 28.322 Q 165.289 27.639 165.289 26.609 Q 165.289 25.735 165.636 25.074 Q 165.983 24.414 166.61 24.044 Q 167.238 23.674 168.078 23.674 Z M 168.055 24.19 L 168.055 24.19 Q 167.316 24.19 166.896 24.789 Q 166.476 25.388 166.476 26.542 Q 166.476 27.964 166.907 28.552 Q 167.338 29.14 168.111 29.14 Q 168.604 29.129 168.951 28.894 Q 169.298 28.658 169.483 28.104 Q 169.668 27.55 169.668 26.598 Q 169.668 25.455 169.276 24.822 Q 168.884 24.19 168.055 24.19 Z " fill="black" /><path d="M 178.471 28.983 L 178.471 28.983 L 178.471 29.409 L 176.959 29.61 L 176.601 29.61 L 176.601 28.737 L 176.489 28.737 Q 176.063 29.118 175.626 29.392 Q 175.19 29.666 174.574 29.666 Q 173.745 29.666 173.308 29.162 Q 172.871 28.658 172.871 27.415 L 172.871 25.007 Q 172.871 24.548 172.709 24.442 Q 172.546 24.335 172.031 24.335 L 172.031 23.932 L 173.588 23.719 L 173.958 23.719 L 173.958 27.27 Q 173.958 27.897 174.103 28.244 Q 174.249 28.591 174.495 28.726 Q 174.742 28.86 175.033 28.86 Q 175.526 28.86 175.856 28.653 Q 176.186 28.446 176.545 28.154 L 176.545 25.007 Q 176.545 24.548 176.343 24.442 Q 176.142 24.335 175.57 24.335 L 175.57 23.932 L 177.239 23.719 L 177.631 23.719 L 177.631 28.255 Q 177.631 28.591 177.693 28.748 Q 177.754 28.905 177.911 28.944 Q 178.068 28.983 178.348 28.983 Z " fill="black" /><path d="M 182.839 28.434 L 182.839 28.434 L 183.097 28.647 Q 182.85 28.983 182.649 29.213 Q 182.447 29.442 182.19 29.566 Q 181.932 29.689 181.529 29.689 Q 180.879 29.689 180.582 29.319 Q 180.286 28.95 180.286 28.132 L 180.286 24.369 L 179.58 24.369 L 179.58 24.033 Q 179.983 23.742 180.319 23.322 Q 180.655 22.902 180.991 22.118 L 181.383 22.118 L 181.372 23.82 L 182.794 23.82 L 182.794 24.369 L 181.372 24.369 L 181.372 27.762 Q 181.372 28.39 181.49 28.653 Q 181.607 28.916 181.966 28.916 Q 182.29 28.916 182.458 28.798 Q 182.626 28.681 182.839 28.434 Z " fill="black" /><path d="M 199.841 20.962 L 199.841 20.962 L 190.305 20.962 L 190.305 19.874 L 199.841 19.874 Z M 199.841 24.226 L 199.841 24.226 L 190.305 24.226 L 190.305 23.154 L 199.841 23.154 Z " fill="black" /><path d="M 210.853 14.914 L 210.853 14.914 L 209.429 22.386 L 209.509 22.386 L 212.005 20.13 Q 212.181 19.986 212.285 19.842 Q 212.389 19.698 212.389 19.538 Q 212.389 19.282 212.173 19.202 Q 211.957 19.122 211.669 19.122 L 211.717 18.722 L 215.157 18.722 L 215.109 19.122 Q 214.293 19.138 213.845 19.426 Q 213.397 19.714 212.997 20.082 L 211.221 21.65 L 212.405 24.402 Q 212.581 24.802 212.749 25.034 Q 212.917 25.266 213.269 25.266 Q 213.685 25.266 213.981 24.986 Q 214.277 24.706 214.533 24.338 L 214.869 24.562 Q 214.805 24.674 214.629 24.962 Q 214.453 25.25 214.165 25.57 Q 213.877 25.89 213.501 26.122 Q 213.125 26.354 212.661 26.354 Q 212.261 26.354 212.005 26.162 Q 211.749 25.97 211.597 25.682 Q 211.445 25.394 211.317 25.106 L 210.213 22.434 L 209.285 23.25 L 208.725 26.194 L 207.413 26.194 L 209.301 16.466 Q 209.301 16.466 209.325 16.306 Q 209.349 16.146 209.349 15.986 Q 209.349 15.474 208.789 15.474 Q 208.645 15.474 208.469 15.49 Q 208.293 15.506 208.293 15.506 L 208.293 15.09 L 210.501 14.914 Z " fill="black" /><path d="M 222.04 22.114 L 222.04 22.114 Q 222.04 22.482 221.792 22.754 Q 221.544 23.026 221.08 23.026 Q 220.616 23.026 220.384 22.762 Q 220.152 22.498 220.152 22.098 Q 220.152 21.698 220.4 21.41 Q 220.648 21.122 221.096 21.122 Q 221.56 21.122 221.8 21.418 Q 222.04 21.714 222.04 22.114 Z " fill="black" /><path d="M 228.778 24.098 L 228.778 24.098 L 230.09 17.794 Q 230.234 17.17 230.226 16.81 Q 230.218 16.45 229.93 16.306 Q 229.642 16.162 228.906 16.162 L 229.002 15.682 L 233.434 15.682 L 233.338 16.162 Q 232.634 16.162 232.282 16.306 Q 231.93 16.45 231.786 16.81 Q 231.642 17.17 231.514 17.794 L 230.202 24.162 Q 230.154 24.418 230.122 24.626 Q 230.09 24.834 230.09 25.01 Q 230.09 25.458 230.354 25.586 Q 230.618 25.714 231.37 25.714 L 231.274 26.194 L 226.906 26.194 L 227.002 25.714 Q 227.658 25.714 227.986 25.602 Q 228.314 25.49 228.474 25.146 Q 228.634 24.802 228.778 24.098 Z " fill="black" /><path d="M 235.775 21.188 L 235.775 21.188 L 235.775 24.66 L 235.831 24.66 Q 236.156 24.279 236.598 23.977 Q 237.041 23.674 237.668 23.674 Q 238.25 23.674 238.726 24.027 Q 239.202 24.38 239.488 25.002 Q 239.774 25.623 239.774 26.43 Q 239.774 27.505 239.382 28.233 Q 238.99 28.961 238.312 29.325 Q 237.634 29.689 236.772 29.689 Q 236.268 29.689 235.842 29.605 Q 235.417 29.521 235.12 29.409 Q 234.823 29.297 234.689 29.241 L 234.689 22.521 Q 234.689 22.106 234.599 21.989 Q 234.51 21.871 234.129 21.871 Q 234.006 21.871 233.899 21.888 Q 233.793 21.905 233.793 21.905 L 233.793 21.479 L 235.316 21.188 Z M 235.775 25.242 L 235.775 25.242 L 235.775 28.602 Q 235.91 28.849 236.201 28.994 Q 236.492 29.14 236.974 29.14 Q 237.567 29.14 237.926 28.821 Q 238.284 28.502 238.446 27.97 Q 238.609 27.438 238.609 26.81 Q 238.609 26.239 238.48 25.718 Q 238.351 25.198 238.026 24.873 Q 237.702 24.548 237.13 24.548 Q 236.828 24.548 236.554 24.666 Q 236.279 24.783 236.078 24.946 Q 235.876 25.108 235.775 25.242 Z " fill="black" /><path d="M 243.862 29.14 L 243.862 29.14 L 243.862 29.554 L 241.017 29.554 L 241.017 29.14 Q 241.409 29.14 241.582 29.056 Q 241.756 28.972 241.801 28.787 Q 241.846 28.602 241.846 28.3 L 241.846 24.918 Q 241.846 24.537 241.722 24.458 Q 241.599 24.38 241.308 24.38 Q 241.162 24.38 241.073 24.391 Q 240.983 24.402 240.983 24.402 L 240.983 23.954 L 242.484 23.708 L 242.943 23.708 L 242.943 28.3 Q 242.943 28.625 242.994 28.81 Q 243.044 28.994 243.24 29.067 Q 243.436 29.14 243.862 29.14 Z M 242.383 21.233 L 242.383 21.233 Q 242.708 21.233 242.926 21.457 Q 243.145 21.681 243.145 21.972 Q 243.145 22.241 242.926 22.465 Q 242.708 22.689 242.383 22.689 Q 242.07 22.689 241.862 22.465 Q 241.655 22.241 241.655 21.972 Q 241.655 21.681 241.862 21.457 Q 242.07 21.233 242.383 21.233 Z " fill="black" /><path d="M 248.342 28.849 L 248.342 28.849 L 248.263 28.849 Q 247.882 29.162 247.423 29.398 Q 246.964 29.633 246.426 29.633 Q 245.721 29.633 245.346 29.207 Q 244.97 28.782 244.97 28.177 Q 244.97 27.662 245.211 27.314 Q 245.452 26.967 245.838 26.749 Q 246.225 26.53 246.673 26.396 Q 247.121 26.262 247.535 26.183 Q 247.95 26.105 248.23 26.038 L 248.23 25.455 Q 248.23 24.705 247.933 24.419 Q 247.636 24.134 247.065 24.134 Q 246.718 24.134 246.566 24.223 Q 246.415 24.313 246.376 24.514 Q 246.337 24.716 246.326 25.041 Q 246.314 25.287 246.18 25.438 Q 246.046 25.59 245.788 25.59 Q 245.542 25.59 245.368 25.438 Q 245.194 25.287 245.194 24.996 Q 245.194 24.649 245.463 24.346 Q 245.732 24.044 246.23 23.859 Q 246.729 23.674 247.401 23.674 Q 248.409 23.674 248.862 24.139 Q 249.316 24.604 249.316 25.534 L 249.316 28.278 Q 249.316 28.647 249.4 28.754 Q 249.484 28.86 249.663 28.86 Q 249.854 28.86 249.994 28.782 Q 250.134 28.703 250.257 28.558 L 250.503 28.793 Q 249.921 29.622 249.137 29.622 Q 248.7 29.622 248.538 29.414 Q 248.375 29.207 248.342 28.849 Z M 248.23 28.434 L 248.23 28.434 L 248.23 26.463 Q 247.714 26.598 247.222 26.76 Q 246.729 26.922 246.41 27.202 Q 246.09 27.482 246.09 27.986 Q 246.09 28.423 246.342 28.675 Q 246.594 28.927 246.986 28.927 Q 247.222 28.927 247.552 28.821 Q 247.882 28.714 248.23 28.434 Z " fill="black" /><path d="M 251.276 27.516 L 251.276 27.516 L 251.634 27.516 Q 251.78 28.166 251.982 28.524 Q 252.183 28.882 252.502 29.022 Q 252.822 29.162 253.281 29.162 Q 253.807 29.162 254.093 28.989 Q 254.378 28.815 254.378 28.378 Q 254.378 28.087 254.238 27.891 Q 254.098 27.695 253.79 27.516 Q 253.482 27.337 252.967 27.102 Q 252.441 26.844 252.066 26.62 Q 251.69 26.396 251.494 26.094 Q 251.298 25.791 251.298 25.332 Q 251.298 24.526 251.842 24.1 Q 252.385 23.674 253.202 23.674 Q 253.695 23.674 254.037 23.798 Q 254.378 23.921 254.58 24.01 L 254.602 24.01 L 254.782 23.73 L 255.095 23.73 L 255.118 25.59 L 254.726 25.59 Q 254.513 24.727 254.132 24.43 Q 253.751 24.134 253.258 24.134 Q 252.743 24.134 252.48 24.358 Q 252.217 24.582 252.217 24.94 Q 252.217 25.231 252.396 25.422 Q 252.575 25.612 252.906 25.774 Q 253.236 25.937 253.695 26.161 Q 254.21 26.407 254.602 26.67 Q 254.994 26.934 255.218 27.264 Q 255.442 27.594 255.442 28.087 Q 255.442 28.681 255.129 29.039 Q 254.815 29.398 254.322 29.549 Q 253.83 29.7 253.292 29.7 Q 252.743 29.7 252.441 29.588 Q 252.138 29.476 251.881 29.375 L 251.836 29.375 L 251.556 29.666 L 251.298 29.666 Z " fill="black" /><path d="M 260.841 29.554 L 260.841 29.554 L 257.044 29.554 L 257.044 29.151 Q 257.85 29.151 258.114 28.989 Q 258.377 28.826 258.377 28.401 L 258.377 23.518 Q 258.377 23.215 258.287 23.081 Q 258.198 22.946 257.962 22.946 Q 257.783 22.946 257.475 22.997 Q 257.167 23.047 256.943 23.103 L 256.943 22.655 L 259.015 22.084 L 259.497 22.084 L 259.497 28.401 Q 259.497 28.826 259.782 28.989 Q 260.068 29.151 260.841 29.151 Z " fill="black" /></g></g></g><g><g><g><path d="M 96.387 153.52 L 96.387 153.52 L 92.115 153.52 L 92.211 153.04 Q 92.803 153.04 93.115 152.928 Q 93.427 152.816 93.587 152.504 Q 93.747 152.192 93.859 151.616 L 95.283 144.704 L 95.219 144.704 L 89.843 153.52 L 89.491 153.52 L 87.555 144.72 L 87.491 144.72 L 86.163 151.184 Q 86.003 152 86.027 152.4 Q 86.051 152.8 86.339 152.92 Q 86.627 153.04 87.235 153.04 L 87.139 153.52 L 83.443 153.52 L 83.539 153.04 Q 84.163 153.04 84.499 152.92 Q 84.835 152.8 85.027 152.4 Q 85.219 152 85.379 151.184 L 86.643 144.96 Q 86.771 144.352 86.723 144.04 Q 86.675 143.728 86.379 143.608 Q 86.083 143.488 85.443 143.488 L 85.539 143.008 L 88.739 143.008 L 90.467 151.104 L 90.531 151.104 L 95.411 143.008 L 98.435 143.008 L 98.339 143.488 Q 97.779 143.488 97.451 143.608 Q 97.123 143.728 96.947 144.04 Q 96.771 144.352 96.643 144.944 L 95.283 151.616 Q 95.107 152.496 95.371 152.768 Q 95.635 153.04 96.483 153.04 Z " fill="black" /><path d="M 102.467 156.174 L 102.467 156.174 L 102.389 156.174 Q 102.008 156.488 101.549 156.723 Q 101.09 156.958 100.552 156.958 Q 99.846 156.958 99.471 156.533 Q 99.096 156.107 99.096 155.502 Q 99.096 154.987 99.337 154.64 Q 99.578 154.293 99.964 154.074 Q 100.35 153.856 100.798 153.722 Q 101.246 153.587 101.661 153.509 Q 102.075 153.43 102.355 153.363 L 102.355 152.781 Q 102.355 152.03 102.058 151.745 Q 101.762 151.459 101.19 151.459 Q 100.843 151.459 100.692 151.549 Q 100.541 151.638 100.502 151.84 Q 100.462 152.042 100.451 152.366 Q 100.44 152.613 100.306 152.764 Q 100.171 152.915 99.914 152.915 Q 99.667 152.915 99.494 152.764 Q 99.32 152.613 99.32 152.322 Q 99.32 151.974 99.589 151.672 Q 99.858 151.37 100.356 151.185 Q 100.854 151 101.526 151 Q 102.534 151 102.988 151.465 Q 103.442 151.93 103.442 152.859 L 103.442 155.603 Q 103.442 155.973 103.526 156.079 Q 103.61 156.186 103.789 156.186 Q 103.979 156.186 104.119 156.107 Q 104.259 156.029 104.382 155.883 L 104.629 156.118 Q 104.046 156.947 103.262 156.947 Q 102.826 156.947 102.663 156.74 Q 102.501 156.533 102.467 156.174 Z M 102.355 155.76 L 102.355 155.76 L 102.355 153.789 Q 101.84 153.923 101.347 154.086 Q 100.854 154.248 100.535 154.528 Q 100.216 154.808 100.216 155.312 Q 100.216 155.749 100.468 156.001 Q 100.72 156.253 101.112 156.253 Q 101.347 156.253 101.678 156.146 Q 102.008 156.04 102.355 155.76 Z " fill="black" /><path d="M 111.674 156.309 L 111.674 156.309 L 111.674 156.734 L 110.162 156.936 L 109.803 156.936 L 109.803 156.062 L 109.691 156.062 Q 109.266 156.443 108.829 156.718 Q 108.392 156.992 107.776 156.992 Q 106.947 156.992 106.51 156.488 Q 106.074 155.984 106.074 154.741 L 106.074 152.333 Q 106.074 151.874 105.911 151.767 Q 105.749 151.661 105.234 151.661 L 105.234 151.258 L 106.79 151.045 L 107.16 151.045 L 107.16 154.595 Q 107.16 155.222 107.306 155.57 Q 107.451 155.917 107.698 156.051 Q 107.944 156.186 108.235 156.186 Q 108.728 156.186 109.058 155.978 Q 109.389 155.771 109.747 155.48 L 109.747 152.333 Q 109.747 151.874 109.546 151.767 Q 109.344 151.661 108.773 151.661 L 108.773 151.258 L 110.442 151.045 L 110.834 151.045 L 110.834 155.581 Q 110.834 155.917 110.895 156.074 Q 110.957 156.23 111.114 156.27 Q 111.27 156.309 111.55 156.309 Z " fill="black" /><path d="M 118.651 156.88 L 118.651 156.88 L 116.03 156.88 L 116.03 156.466 Q 116.355 156.466 116.478 156.415 Q 116.602 156.365 116.602 156.242 Q 116.602 156.163 116.512 156.006 L 115.784 154.954 L 115.493 154.472 L 115.426 154.472 L 114.451 155.805 Q 114.35 155.973 114.255 156.102 Q 114.16 156.23 114.16 156.286 Q 114.16 156.466 114.742 156.466 L 114.742 156.88 L 112.603 156.88 L 112.603 156.466 Q 112.928 156.466 113.152 156.337 Q 113.376 156.208 113.656 155.872 L 115.123 154.035 L 113.835 152.266 Q 113.611 151.963 113.477 151.812 Q 113.342 151.661 113.191 151.61 Q 113.04 151.56 112.782 151.56 L 112.782 151.146 L 115.47 151.146 L 115.47 151.549 Q 114.888 151.549 114.888 151.818 Q 114.888 151.93 115.022 152.154 L 115.47 152.837 L 115.795 153.408 L 115.874 153.408 L 116.422 152.669 Q 116.669 152.333 116.77 152.142 Q 116.87 151.952 116.87 151.84 Q 116.87 151.717 116.77 151.633 Q 116.669 151.549 116.366 151.549 L 116.366 151.146 L 118.427 151.146 L 118.427 151.56 Q 118.114 151.56 117.89 151.722 Q 117.666 151.885 117.442 152.142 L 116.154 153.755 L 117.654 155.782 Q 117.912 156.152 118.119 156.309 Q 118.326 156.466 118.651 156.466 Z " fill="black" /></g></g></g><circle cx="122.99999999999996" cy="101.99999999999999" r="2.6999999999999997" style="stroke:black;fill:black;stroke-width:2.0;stroke-dasharray:-;" /><g><g><g><path d="M 68.099 37.407 L 68.099 37.407 L 69.411 31.103 Q 69.555 30.479 69.547 30.119 Q 69.539 29.759 69.251 29.615 Q 68.963 29.471 68.227 29.471 L 68.323 28.991 L 72.755 28.991 L 72.659 29.471 Q 71.955 29.471 71.603 29.615 Q 71.251 29.759 71.107 30.119 Q 70.963 30.479 70.835 31.103 L 69.523 37.471 Q 69.475 37.727 69.443 37.935 Q 69.411 38.143 69.411 38.319 Q 69.411 38.767 69.675 38.895 Q 69.939 39.023 70.691 39.023 L 70.595 39.503 L 66.227 39.503 L 66.323 39.023 Q 66.979 39.023 67.307 38.911 Q 67.635 38.799 67.795 38.455 Q 67.955 38.111 68.099 37.407 Z " fill="black" /><path d="M 75.096 34.497 L 75.096 34.497 L 75.096 37.969 L 75.152 37.969 Q 75.477 37.588 75.919 37.286 Q 76.362 36.983 76.989 36.983 Q 77.571 36.983 78.047 37.336 Q 78.523 37.689 78.809 38.31 Q 79.094 38.932 79.094 39.738 Q 79.094 40.814 78.702 41.542 Q 78.31 42.27 77.633 42.634 Q 76.955 42.998 76.093 42.998 Q 75.589 42.998 75.163 42.914 Q 74.738 42.83 74.441 42.718 Q 74.144 42.606 74.01 42.55 L 74.01 35.83 Q 74.01 35.415 73.92 35.298 Q 73.83 35.18 73.45 35.18 Q 73.326 35.18 73.22 35.197 Q 73.114 35.214 73.114 35.214 L 73.114 34.788 L 74.637 34.497 Z M 75.096 38.551 L 75.096 38.551 L 75.096 41.911 Q 75.23 42.158 75.522 42.303 Q 75.813 42.449 76.294 42.449 Q 76.888 42.449 77.246 42.13 Q 77.605 41.81 77.767 41.278 Q 77.93 40.746 77.93 40.119 Q 77.93 39.548 77.801 39.027 Q 77.672 38.506 77.347 38.182 Q 77.022 37.857 76.451 37.857 Q 76.149 37.857 75.874 37.974 Q 75.6 38.092 75.398 38.254 Q 75.197 38.417 75.096 38.551 Z " fill="black" /><path d="M 83.182 42.449 L 83.182 42.449 L 83.182 42.863 L 80.338 42.863 L 80.338 42.449 Q 80.73 42.449 80.903 42.365 Q 81.077 42.281 81.122 42.096 Q 81.166 41.911 81.166 41.609 L 81.166 38.226 Q 81.166 37.846 81.043 37.767 Q 80.92 37.689 80.629 37.689 Q 80.483 37.689 80.394 37.7 Q 80.304 37.711 80.304 37.711 L 80.304 37.263 L 81.805 37.017 L 82.264 37.017 L 82.264 41.609 Q 82.264 41.934 82.314 42.118 Q 82.365 42.303 82.561 42.376 Q 82.757 42.449 83.182 42.449 Z M 81.704 34.542 L 81.704 34.542 Q 82.029 34.542 82.247 34.766 Q 82.466 34.99 82.466 35.281 Q 82.466 35.55 82.247 35.774 Q 82.029 35.998 81.704 35.998 Q 81.39 35.998 81.183 35.774 Q 80.976 35.55 80.976 35.281 Q 80.976 34.99 81.183 34.766 Q 81.39 34.542 81.704 34.542 Z " fill="black" /><path d="M 87.662 42.158 L 87.662 42.158 L 87.584 42.158 Q 87.203 42.471 86.744 42.706 Q 86.285 42.942 85.747 42.942 Q 85.042 42.942 84.666 42.516 Q 84.291 42.09 84.291 41.486 Q 84.291 40.97 84.532 40.623 Q 84.773 40.276 85.159 40.058 Q 85.546 39.839 85.994 39.705 Q 86.442 39.57 86.856 39.492 Q 87.27 39.414 87.55 39.346 L 87.55 38.764 Q 87.55 38.014 87.254 37.728 Q 86.957 37.442 86.386 37.442 Q 86.038 37.442 85.887 37.532 Q 85.736 37.622 85.697 37.823 Q 85.658 38.025 85.646 38.35 Q 85.635 38.596 85.501 38.747 Q 85.366 38.898 85.109 38.898 Q 84.862 38.898 84.689 38.747 Q 84.515 38.596 84.515 38.305 Q 84.515 37.958 84.784 37.655 Q 85.053 37.353 85.551 37.168 Q 86.05 36.983 86.722 36.983 Q 87.73 36.983 88.183 37.448 Q 88.637 37.913 88.637 38.842 L 88.637 41.586 Q 88.637 41.956 88.721 42.062 Q 88.805 42.169 88.984 42.169 Q 89.174 42.169 89.314 42.09 Q 89.454 42.012 89.578 41.866 L 89.824 42.102 Q 89.242 42.93 88.458 42.93 Q 88.021 42.93 87.858 42.723 Q 87.696 42.516 87.662 42.158 Z M 87.55 41.743 L 87.55 41.743 L 87.55 39.772 Q 87.035 39.906 86.542 40.069 Q 86.05 40.231 85.73 40.511 Q 85.411 40.791 85.411 41.295 Q 85.411 41.732 85.663 41.984 Q 85.915 42.236 86.307 42.236 Q 86.542 42.236 86.873 42.13 Q 87.203 42.023 87.55 41.743 Z " fill="black" /><path d="M 90.597 40.825 L 90.597 40.825 L 90.955 40.825 Q 91.101 41.474 91.302 41.833 Q 91.504 42.191 91.823 42.331 Q 92.142 42.471 92.602 42.471 Q 93.128 42.471 93.414 42.298 Q 93.699 42.124 93.699 41.687 Q 93.699 41.396 93.559 41.2 Q 93.419 41.004 93.111 40.825 Q 92.803 40.646 92.288 40.41 Q 91.762 40.153 91.386 39.929 Q 91.011 39.705 90.815 39.402 Q 90.619 39.1 90.619 38.641 Q 90.619 37.834 91.162 37.409 Q 91.706 36.983 92.523 36.983 Q 93.016 36.983 93.358 37.106 Q 93.699 37.23 93.901 37.319 L 93.923 37.319 L 94.102 37.039 L 94.416 37.039 L 94.438 38.898 L 94.046 38.898 Q 93.834 38.036 93.453 37.739 Q 93.072 37.442 92.579 37.442 Q 92.064 37.442 91.801 37.666 Q 91.538 37.89 91.538 38.249 Q 91.538 38.54 91.717 38.73 Q 91.896 38.921 92.226 39.083 Q 92.557 39.246 93.016 39.47 Q 93.531 39.716 93.923 39.979 Q 94.315 40.242 94.539 40.573 Q 94.763 40.903 94.763 41.396 Q 94.763 41.99 94.45 42.348 Q 94.136 42.706 93.643 42.858 Q 93.15 43.009 92.613 43.009 Q 92.064 43.009 91.762 42.897 Q 91.459 42.785 91.202 42.684 L 91.157 42.684 L 90.877 42.975 L 90.619 42.975 Z " fill="black" /><path d="M 100.8 40.914 L 100.8 40.914 L 100.419 42.863 L 95.827 42.863 L 95.827 42.314 L 97.418 40.702 Q 98.045 40.074 98.454 39.593 Q 98.862 39.111 99.064 38.624 Q 99.266 38.137 99.266 37.51 Q 99.266 36.916 98.902 36.53 Q 98.538 36.143 97.877 36.143 Q 97.272 36.143 96.863 36.384 Q 96.454 36.625 96.141 37.174 L 95.838 37.028 Q 96.118 36.244 96.706 35.796 Q 97.294 35.348 98.157 35.348 Q 98.829 35.348 99.344 35.589 Q 99.859 35.83 100.15 36.278 Q 100.442 36.726 100.442 37.364 Q 100.442 37.913 100.195 38.394 Q 99.949 38.876 99.495 39.38 Q 99.042 39.884 98.414 40.5 L 97.014 41.855 L 97.014 41.934 L 97.888 41.889 L 99.344 41.889 Q 99.669 41.889 99.842 41.799 Q 100.016 41.71 100.139 41.491 Q 100.262 41.273 100.408 40.914 Z " fill="black" /></g></g></g><g><g><g><path d="M 52.19 -8.96 L 52.19 -8.96 L 56.558 -15.52 Q 56.782 -15.84 56.918 -16.112 Q 57.054 -16.384 57.054 -16.576 Q 57.054 -16.816 56.846 -16.904 Q 56.638 -16.992 56.094 -16.992 L 56.126 -17.472 L 59.582 -17.472 L 59.55 -16.992 Q 59.118 -16.992 58.814 -16.864 Q 58.51 -16.736 58.198 -16.376 Q 57.886 -16.016 57.39 -15.28 L 51.518 -6.88 L 50.99 -6.88 L 50.094 -15.536 Q 49.998 -16.336 49.742 -16.664 Q 49.486 -16.992 48.846 -16.992 L 48.878 -17.472 L 52.798 -17.472 L 52.75 -16.992 Q 52.142 -16.992 51.79 -16.752 Q 51.438 -16.512 51.47 -15.968 Q 51.47 -15.888 51.494 -15.68 Q 51.518 -15.472 51.518 -15.392 L 51.998 -10.832 L 52.11 -8.96 Z " fill="black" /><path d="M 58.321 -11.474 L 58.321 -11.474 L 61.714 -11.474 Q 62.61 -11.474 63.428 -11.278 Q 64.246 -11.082 64.89 -10.634 Q 65.534 -10.186 65.909 -9.435 Q 66.284 -8.685 66.284 -7.565 Q 66.284 -6.512 65.942 -5.756 Q 65.601 -5 64.985 -4.524 Q 64.369 -4.048 63.551 -3.824 Q 62.734 -3.6 61.782 -3.6 L 58.321 -3.6 L 58.321 -4.026 Q 58.847 -4.026 59.094 -4.104 Q 59.34 -4.182 59.413 -4.423 Q 59.486 -4.664 59.486 -5.157 L 59.486 -10.018 Q 59.486 -10.477 59.379 -10.695 Q 59.273 -10.914 59.021 -10.981 Q 58.769 -11.048 58.321 -11.048 Z M 60.684 -10.914 L 60.684 -10.914 L 60.684 -4.138 Q 60.863 -4.126 61.037 -4.121 Q 61.21 -4.115 61.378 -4.115 Q 62.487 -4.115 63.266 -4.406 Q 64.044 -4.698 64.453 -5.426 Q 64.862 -6.154 64.862 -7.464 Q 64.862 -9.144 64.005 -10.034 Q 63.148 -10.925 61.289 -10.925 Q 61.132 -10.925 60.986 -10.925 Q 60.841 -10.925 60.684 -10.914 Z " fill="black" /><path d="M 67.639 -11.474 L 67.639 -11.474 L 71.033 -11.474 Q 71.929 -11.474 72.746 -11.278 Q 73.564 -11.082 74.208 -10.634 Q 74.852 -10.186 75.227 -9.435 Q 75.602 -8.685 75.602 -7.565 Q 75.602 -6.512 75.261 -5.756 Q 74.919 -5 74.303 -4.524 Q 73.687 -4.048 72.87 -3.824 Q 72.052 -3.6 71.1 -3.6 L 67.639 -3.6 L 67.639 -4.026 Q 68.166 -4.026 68.412 -4.104 Q 68.658 -4.182 68.731 -4.423 Q 68.804 -4.664 68.804 -5.157 L 68.804 -10.018 Q 68.804 -10.477 68.698 -10.695 Q 68.591 -10.914 68.339 -10.981 Q 68.087 -11.048 67.639 -11.048 Z M 70.002 -10.914 L 70.002 -10.914 L 70.002 -4.138 Q 70.182 -4.126 70.355 -4.121 Q 70.529 -4.115 70.697 -4.115 Q 71.806 -4.115 72.584 -4.406 Q 73.362 -4.698 73.771 -5.426 Q 74.18 -6.154 74.18 -7.464 Q 74.18 -9.144 73.323 -10.034 Q 72.466 -10.925 70.607 -10.925 Q 70.45 -10.925 70.305 -10.925 Q 70.159 -10.925 70.002 -10.914 Z " fill="black" /></g></g></g></svg>