<svg xmlns="http://www.w3.org/2000/svg" xmlns:xlink="http://www.w3.org/1999/xlink" xml:lang="en" height="334.64pt" width="622.5863999999999pt" viewBox="-189.5088 -114.99999999999999 622.5863999999999 334.64"><circle cx="-141.0" cy="-30.000000000000007" r="18.0" style="stroke:black;fill:none;stroke-width:2.0;stroke-dasharray:-;" /><path d="M 0.0,59.99999999999999 L 0.0,45.0 L -14.999999999999998,45.0 L -14.999999999999998,14.999999999999998 L 0.0,14.999999999999998 L 0.0,-0.0" style="stroke:black;fill:none;stroke-width:2.0;stroke-dasharray:-;stroke-linecap:round;stroke-linejoin:round;" /><path d="M -9.0,45.0 L -14.999999999999998,45.0" style="stroke:black;fill:none;stroke-width:2.0;stroke-dasharray:-;stroke-linecap:round;stroke-linejoin:round;" /><path d="M -2.0 45.0 L -9.0 49.5 L -9.0 40.5 Z" style="stroke:black;fill:black;stroke-linecap:butt;stroke-linejoin:miter;" /><path d="M -17.999999999999996,42.0 L -17.999999999999996,17.999999999999996" style="stroke:black;fill:none;stroke-width:2.0;stroke-dasharray:-;stroke-linecap:round;stroke-linejoin:round;" /><path d="M -32.99999999999999,29.999999999999996 L -17.999999999999996,29.999999999999996" style="stroke:black;fill:none;stroke-width:2.0;stroke-dasharray:-;stroke-linecap:round;stroke-linejoin:round;" /><path d="M 0.0,59.99999999999999 L -1.6532731788489267e-15,69.0 L -3.3065463576978533e-15,78.0" style="stroke:black;fill:none;stroke-width:2.0;stroke-dasharray:-;stroke-linecap:round;stroke-linejoin:round;" /><path d="M -3.3065463576978533e-15,78.0 L 26.999999999999996,78.0 L 54.0,78.0" style="stroke:black;fill:none;stroke-width:2.0;stroke-dasharray:-;stroke-linecap:round;stroke-linejoin:round;" /><path d="M 54.0,78.0 L 53.99999999999999,105.0 L 53.99999999999999,132.0" style="stroke:black;fill:none;stroke-width:2.0;stroke-dasharray:-;stroke-linecap:round;stroke-linejoin:round;" /><path d="M 53.99999999999999,192.0 L 53.99999999999999,176.99999999999997 L 38.999999999999986,176.99999999999997 L 38.999999999999986,147.0 L 53.99999999999999,147.0 L 53.99999999999999,132.0" style="stroke:black;fill:none;stroke-width:2.0;stroke-dasharray:-;stroke-linecap:round;stroke-linejoin:round;" /><path d="M 44.99999999999999,176.99999999999997 L 38.999999999999986,176.99999999999997" style="stroke:black;fill:none;stroke-width:2.0;stroke-dasharray:-;stroke-linecap:round;stroke-linejoin:round;" /><path d="M 51.99999999999999 176.99999999999997 L 44.99999999999999 181.49999999999997 L 44.99999999999999 172.49999999999997 Z" style="stroke:black;fill:black;stroke-linecap:butt;stroke-linejoin:miter;" /><path d="M 35.99999999999999,174.0 L 35.99999999999999,149.99999999999997" style="stroke:black;fill:none;stroke-width:2.0;stroke-dasharray:-;stroke-linecap:round;stroke-linejoin:round;" /><path d="M 20.999999999999996,162.0 L 35.99999999999999,162.0" style="stroke:black;fill:none;stroke-width:2.0;stroke-dasharray:-;stroke-linecap:round;stroke-linejoin:round;" /><path d="M 53.99999999999999,192.0 L 53.99999999999999,206.4 L 44.99999999999999,206.4 L 62.99999999999999,206.4 M 47.69999999999999,210.72 L 60.3,210.72 M 52.19999999999999,215.03999999999996 L 55.8,215.03999999999996" style="stroke:black;fill:none;stroke-width:2.0;stroke-dasharray:-;stroke-linecap:round;stroke-linejoin:round;" /><path d="M 20.999999999999996,162.0 L 11.999999999999996,162.0 L 2.9999999999999973,162.0" style="stroke:black;fill:none;stroke-width:2.0;stroke-dasharray:-;stroke-linecap:round;stroke-linejoin:round;" /><path d="M 2.9999999999999973,162.0 L 2.9999999999999982,144.0 L 2.999999999999999,126.0" style="stroke:black;fill:none;stroke-width:2.0;stroke-dasharray:-;stroke-linecap:round;stroke-linejoin:round;" /><path d="M 2.999999999999999,126.0 L -69.0,125.99999999999999 L -141.0,125.99999999999999" style="stroke:black;fill:none;stroke-width:2.0;stroke-dasharray:-;stroke-linecap:round;stroke-linejoin:round;" /><path d="M -141.0,125.99999999999999 L -141.0,129.0 L -141.0,132.0" style="stroke:black;fill:none;stroke-width:2.0;stroke-dasharray:-;stroke-linecap:round;stroke-linejoin:round;" /><path d="M -141.0,132.0 L -141.0,147.0 L -126.0,147.0 L -126.0,176.99999999999997 L -141.0,176.99999999999997 L -141.0,192.0" style="stroke:black;fill:none;stroke-width:2.0;stroke-dasharray:-;stroke-linecap:round;stroke-linejoin:round;" /><path d="M -126.0,176.99999999999997 L -132.0,176.99999999999997" style="stroke:black;fill:none;stroke-width:2.0;stroke-dasharray:-;stroke-linecap:round;stroke-linejoin:round;" /><path d="M -139.0 176.99999999999997 L -132.0 172.49999999999997 L -132.0 181.49999999999997 Z" style="stroke:black;fill:black;stroke-linecap:butt;stroke-linejoin:miter;" /><path d="M -123.0,149.99999999999997 L -123.0,174.0" style="stroke:black;fill:none;stroke-width:2.0;stroke-dasharray:-;stroke-linecap:round;stroke-linejoin:round;" /><path d="M -123.0,162.0 L -108.0,162.0" style="stroke:black;fill:none;stroke-width:2.0;stroke-dasharray:-;stroke-linecap:round;stroke-linejoin:round;" /><path d="M -141.0,192.0 L -141.0,206.4 L -149.99999999999997,206.4 L -132.0,206.4 M -147.3,210.72 L -134.7,210.72 M -142.79999999999998,215.03999999999996 L -139.2,215.03999999999996" style="stroke:black;fill:none;stroke-width:2.0;stroke-dasharray:-;stroke-linecap:round;stroke-linejoin:round;" /><path d="M -141.0,132.0 L -141.0,69.0 L -141.0,5.999999999999995" style="stroke:black;fill:none;stroke-width:2.0;stroke-dasharray:-;stroke-linecap:round;stroke-linejoin:round;" /><path d="M -141.0,5.999999999999995 L -141.0,-12.000000000000005 L -141.0,-12.000000000000005 M -141.0,-48.00000000000001 L -141.0,-48.00000000000001 L -141.0,-66.0" style="stroke:black;fill:none;stroke-width:2.0;stroke-dasharray:-;stroke-linecap:round;stroke-linejoin:round;" /><path d="M -141.0,-30.000000000000007 L -141.0,-39.00000000000001" style="stroke:black;fill:none;stroke-width:2.0;stroke-dasharray:-;stroke-linecap:round;stroke-linejoin:round;" /><path d="M -141.0 -23.000000000000007 L -143.7 -30.000000000000007 L -138.3 -30.000000000000007 Z" style="stroke:black;fill:black;stroke-linecap:butt;stroke-linejoin:miter;" /><path d="M -141.0,-66.0 L -141.0,-80.4" style="stroke:black;fill:none;stroke-width:2.0;stroke-dasharray:-;stroke-linecap:round;stroke-linejoin:round;" /><path d="M -141.0,-80.4 L -147.74999999999997,-80.4" style="stroke:black;fill:none;stroke-width:2.0;stroke-dasharray:-;stroke-linecap:round;stroke-linejoin:round;" /><path d="M -141.0,-80.4 L -134.25,-80.4" style="stroke:black;fill:none;stroke-width:2.0;stroke-dasharray:-;stroke-linecap:round;stroke-linejoin:round;" /><path d="M -108.0,162.0 L -99.0,162.0 L -90.0,162.0" style="stroke:black;fill:none;stroke-width:2.0;stroke-dasharray:-;stroke-linecap:round;stroke-linejoin:round;" /><path d="M -90.0,162.0 L -90.0,144.0 L -90.0,126.0" style="stroke:black;fill:none;stroke-width:2.0;stroke-dasharray:-;stroke-linecap:round;stroke-linejoin:round;" /><path d="M 54.0,78.0 L 81.0,78.0 L 108.0,78.0" style="stroke:black;fill:none;stroke-width:2.0;stroke-dasharray:-;stroke-linecap:round;stroke-linejoin:round;" /><path d="M 108.0,78.0 L 108.0,69.0 L 108.0,59.99999999999999" style="stroke:black;fill:none;stroke-width:2.0;stroke-dasharray:-;stroke-linecap:round;stroke-linejoin:round;" /><path d="M 108.0,-0.0 L 108.0,14.999999999999995 L 123.0,14.999999999999995 L 123.0,45.0 L 108.0,45.0 L 108.0,59.99999999999999" style="stroke:black;fill:none;stroke-width:2.0;stroke-dasharray:-;stroke-linecap:round;stroke-linejoin:round;" /><path d="M 123.0,45.0 L 117.0,45.0" style="stroke:black;fill:none;stroke-width:2.0;stroke-dasharray:-;stroke-linecap:round;stroke-linejoin:round;" /><path d="M 110.0 45.0 L 117.0 40.5 L 117.0 49.5 Z" style="stroke:black;fill:black;stroke-linecap:butt;stroke-linejoin:miter;" /><path d="M 126.0,18.0 L 126.0,42.0" style="stroke:black;fill:none;stroke-width:2.0;stroke-dasharray:-;stroke-linecap:round;stroke-linejoin:round;" /><path d="M 126.0,29.999999999999996 L 141.0,29.999999999999996" style="stroke:black;fill:none;stroke-width:2.0;stroke-dasharray:-;stroke-linecap:round;stroke-linejoin:round;" /><path d="M -32.99999999999999,29.999999999999996 L -41.99999999999999,29.999999999999996 L -50.99999999999999,29.999999999999993" style="stroke:black;fill:none;stroke-width:2.0;stroke-dasharray:-;stroke-linecap:round;stroke-linejoin:round;" /><path d="M 141.0,29.999999999999996 L 149.99999999999997,29.999999999999996 L 158.99999999999997,29.999999999999996" style="stroke:black;fill:none;stroke-width:2.0;stroke-dasharray:-;stroke-linecap:round;stroke-linejoin:round;" /><path d="M 0.0,-0.0 L 5.51091059616309e-16,-9.0 L 1.102182119232618e-15,-18.0" style="stroke:black;fill:none;stroke-width:2.0;stroke-dasharray:-;stroke-linecap:round;stroke-linejoin:round;" /><path d="M 1.102182119232618e-15,-18.0 L 1.6532731788489267e-15,-27.0 L 2.204364238465236e-15,-36.0" style="stroke:black;fill:none;stroke-width:2.0;stroke-dasharray:-;stroke-linecap:round;stroke-linejoin:round;" /><path d="M 2.204364238465236e-15,-96.0 L 2.204364238465236e-15,-81.0 L 15.0,-81.0 L 15.0,-50.99999999999999 L 2.204364238465236e-15,-50.99999999999999 L 2.204364238465236e-15,-36.0" style="stroke:black;fill:none;stroke-width:2.0;stroke-dasharray:-;stroke-linecap:round;stroke-linejoin:round;" /><path d="M 2.204364238465236e-15,-81.0 L 6.000000000000001,-81.0" style="stroke:black;fill:none;stroke-width:2.0;stroke-dasharray:-;stroke-linecap:round;stroke-linejoin:round;" /><path d="M 13.0 -81.0 L 6.0 -76.5 L 6.0 -85.5 Z" style="stroke:black;fill:black;stroke-linecap:butt;stroke-linejoin:miter;" /><path d="M 18.0,-78.0 L 18.0,-53.99999999999999" style="stroke:black;fill:none;stroke-width:2.0;stroke-dasharray:-;stroke-linecap:round;stroke-linejoin:round;" /><path d="M 18.0,-66.0 L 33.0,-66.0" style="stroke:black;fill:none;stroke-width:2.0;stroke-dasharray:-;stroke-linecap:round;stroke-linejoin:round;" /><path d="M 2.204364238465236e-15,-96.0 L 2.204364238465236e-15,-110.39999999999999" style="stroke:black;fill:none;stroke-width:2.0;stroke-dasharray:-;stroke-linecap:round;stroke-linejoin:round;" /><path d="M 2.204364238465236e-15,-110.39999999999999 L -6.749999999999998,-110.39999999999999" style="stroke:black;fill:none;stroke-width:2.0;stroke-dasharray:-;stroke-linecap:round;stroke-linejoin:round;" /><path d="M 2.204364238465236e-15,-110.39999999999999 L 6.750000000000002,-110.39999999999999" style="stroke:black;fill:none;stroke-width:2.0;stroke-dasharray:-;stroke-linecap:round;stroke-linejoin:round;" /><path d="M 108.0,-0.0 L 108.0,-9.0 L 108.0,-18.0" style="stroke:black;fill:none;stroke-width:2.0;stroke-dasharray:-;stroke-linecap:round;stroke-linejoin:round;" /><path d="M 108.0,-18.0 L 171.0,-18.0 L 234.0,-18.0" style="stroke:black;fill:none;stroke-width:2.0;stroke-dasharray:-;stroke-linecap:round;stroke-linejoin:round;" /><path d="M 234.0,-18.0 L 261.0,-18.0 L 288.0,-18.0" style="stroke:black;fill:none;stroke-width:2.0;stroke-dasharray:-;stroke-linecap:round;stroke-linejoin:round;" /><path d="M 321.0,11.999999999999996 L 321.0,-2.9999999999999973 L 306.0,-2.9999999999999973 L 306.0,-33.0 L 321.0,-33.0 L 321.0,-48.0" style="stroke:black;fill:none;stroke-width:2.0;stroke-dasharray:-;stroke-linecap:round;stroke-linejoin:round;" /><path d="M 315.0,-33.0 L 321.0,-33.0" style="stroke:black;fill:none;stroke-width:2.0;stroke-dasharray:-;stroke-linecap:round;stroke-linejoin:round;" /><path d="M 308.0 -33.0 L 315.0 -37.5 L 315.0 -28.5 Z" style="stroke:black;fill:black;stroke-linecap:butt;stroke-linejoin:miter;" /><path d="M 303.0,-5.999999999999995 L 303.0,-29.999999999999996" style="stroke:black;fill:none;stroke-width:2.0;stroke-dasharray:-;stroke-linecap:round;stroke-linejoin:round;" /><path d="M 288.0,-18.0 L 303.0,-18.0" style="stroke:black;fill:none;stroke-width:2.0;stroke-dasharray:-;stroke-linecap:round;stroke-linejoin:round;" /><path d="M 321.0,11.999999999999996 L 321.0,48.0 L 321.0,83.99999999999999" style="stroke:black;fill:none;stroke-width:2.0;stroke-dasharray:-;stroke-linecap:round;stroke-linejoin:round;" /><path d="M 321.0,83.99999999999999 L 321.0,108.0 L 321.0,132.0" style="stroke:black;fill:none;stroke-width:2.0;stroke-dasharray:-;stroke-linecap:round;stroke-linejoin:round;" /><path d="M 321.0,192.0 L 321.0,176.99999999999997 L 306.0,176.99999999999997 L 306.0,147.0 L 321.0,147.0 L 321.0,132.0" style="stroke:black;fill:none;stroke-width:2.0;stroke-dasharray:-;stroke-linecap:round;stroke-linejoin:round;" /><path d="M 312.0,176.99999999999997 L 306.0,176.99999999999997" style="stroke:black;fill:none;stroke-width:2.0;stroke-dasharray:-;stroke-linecap:round;stroke-linejoin:round;" /><path d="M 319.0 176.99999999999997 L 312.0 181.49999999999997 L 312.0 172.49999999999997 Z" style="stroke:black;fill:black;stroke-linecap:butt;stroke-linejoin:miter;" /><path d="M 303.0,174.0 L 303.0,149.99999999999997" style="stroke:black;fill:none;stroke-width:2.0;stroke-dasharray:-;stroke-linecap:round;stroke-linejoin:round;" /><path d="M 288.0,162.0 L 303.0,162.0" style="stroke:black;fill:none;stroke-width:2.0;stroke-dasharray:-;stroke-linecap:round;stroke-linejoin:round;" /><path d="M 321.0,192.0 L 321.0,206.4 L 312.0,206.4 L 330.0,206.4 M 314.69999999999993,210.72 L 327.3,210.72 M 319.19999999999993,215.03999999999996 L 322.8,215.03999999999996" style="stroke:black;fill:none;stroke-width:2.0;stroke-dasharray:-;stroke-linecap:round;stroke-linejoin:round;" /><path d="M 108.0,-18.0 L 108.0,-27.0 L 108.0,-36.0" style="stroke:black;fill:none;stroke-width:2.0;stroke-dasharray:-;stroke-linecap:round;stroke-linejoin:round;" /><path d="M 108.0,-36.0 L 108.0,-50.99999999999999 L 93.0,-50.99999999999999 L 93.0,-81.0 L 108.0,-81.0 L 108.0,-96.0" style="stroke:black;fill:none;stroke-width:2.0;stroke-dasharray:-;stroke-linecap:round;stroke-linejoin:round;" /><path d="M 102.0,-81.0 L 108.0,-81.0" style="stroke:black;fill:none;stroke-width:2.0;stroke-dasharray:-;stroke-linecap:round;stroke-linejoin:round;" /><path d="M 95.0 -81.0 L 102.0 -85.5 L 102.0 -76.5 Z" style="stroke:black;fill:black;stroke-linecap:butt;stroke-linejoin:miter;" /><path d="M 90.0,-53.99999999999999 L 90.0,-78.0" style="stroke:black;fill:none;stroke-width:2.0;stroke-dasharray:-;stroke-linecap:round;stroke-linejoin:round;" /><path d="M 75.0,-66.0 L 90.0,-66.0" style="stroke:black;fill:none;stroke-width:2.0;stroke-dasharray:-;stroke-linecap:round;stroke-linejoin:round;" /><path d="M 108.0,-96.0 L 108.0,-110.39999999999999" style="stroke:black;fill:none;stroke-width:2.0;stroke-dasharray:-;stroke-linecap:round;stroke-linejoin:round;" /><path d="M 108.0,-110.39999999999999 L 101.25,-110.39999999999999" style="stroke:black;fill:none;stroke-width:2.0;stroke-dasharray:-;stroke-linecap:round;stroke-linejoin:round;" /><path d="M 108.0,-110.39999999999999 L 114.75,-110.39999999999999" style="stroke:black;fill:none;stroke-width:2.0;stroke-dasharray:-;stroke-linecap:round;stroke-linejoin:round;" /><path d="M 75.0,-66.0 L 54.0,-66.0 L 32.99999999999999,-66.0" style="stroke:black;fill:none;stroke-width:2.0;stroke-dasharray:-;stroke-linecap:round;stroke-linejoin:round;" /><path d="M 321.0,-48.0 L 321.0,-72.0 L 321.0,-96.0" style="stroke:black;fill:none;stroke-width:2.0;stroke-dasharray:-;stroke-linecap:round;stroke-linejoin:round;" /><path d="M 321.0,-96.0 L 321.0,-110.39999999999999" style="stroke:black;fill:none;stroke-width:2.0;stroke-dasharray:-;stroke-linecap:round;stroke-linejoin:round;" /><path d="M 321.0,-110.39999999999999 L 314.25,-110.39999999999999" style="stroke:black;fill:none;stroke-width:2.0;stroke-dasharray:-;stroke-linecap:round;stroke-linejoin:round;" /><path d="M 321.0,-110.39999999999999 L 327.75,-110.39999999999999" style="stroke:black;fill:none;stroke-width:2.0;stroke-dasharray:-;stroke-linecap:round;stroke-linejoin:round;" /><path d="M 1.102182119232618e-15,-18.0 L 26.999999999999996,-18.0 L 53.99999999999999,-18.0" style="stroke:black;fill:none;stroke-width:2.0;stroke-dasharray:-;stroke-linecap:round;stroke-linejoin:round;" /><path d="M 53.99999999999999,-18.0 L 53.99999999999999,-41.99999999999999 L 53.99999999999999,-66.0" style="stroke:black;fill:none;stroke-width:2.0;stroke-dasharray:-;stroke-linecap:round;stroke-linejoin:round;" /><path d="M 2.999999999999999,126.0 L 138.0,126.0 L 273.0,126.0" style="stroke:black;fill:none;stroke-width:2.0;stroke-dasharray:-;stroke-linecap:round;stroke-linejoin:round;" /><path d="M 273.0,126.0 L 273.0,144.0 L 273.0,162.0" style="stroke:black;fill:none;stroke-width:2.0;stroke-dasharray:-;stroke-linecap:round;stroke-linejoin:round;" /><path d="M 273.0,162.0 L 282.0,162.0 L 290.99999999999994,162.0" style="stroke:black;fill:none;stroke-width:2.0;stroke-dasharray:-;stroke-linecap:round;stroke-linejoin:round;" /><path d="M 321.0,83.99999999999999 L 339.0,83.99999999999999 L 357.0,83.99999999999999" style="stroke:black;fill:none;stroke-width:2.0;stroke-dasharray:-;stroke-linecap:round;stroke-linejoin:round;" /><path d="M 234.0,-18.0 L 234.0,9.0 L 234.0,36.0" style="stroke:black;fill:none;stroke-width:2.0;stroke-dasharray:-;stroke-linecap:round;stroke-linejoin:round;" /><path d="M 234.0,36.0 L 274.26,36.0 M 274.26,27.0 L 274.26,45.0 M 280.74,27.0 L 280.74,45.0 M 280.74,36.0 L 321.0,36.0" style="stroke:black;fill:none;stroke-width:2.0;stroke-dasharray:-;stroke-linecap:round;stroke-linejoin:round;" /><g><g><g><path d="M 12.883 33.576 L 12.883 33.576 L 8.611 33.576 L 8.707 33.096 Q 9.299 33.096 9.611 32.984 Q 9.923 32.872 10.083 32.56 Q 10.243 32.248 10.355 31.672 L 11.779 24.76 L 11.715 24.76 L 6.339 33.576 L 5.987 33.576 L 4.051 24.776 L 3.987 24.776 L 2.659 31.24 Q 2.499 32.056 2.523 32.456 Q 2.547 32.856 2.835 32.976 Q 3.123 33.096 3.731 33.096 L 3.635 33.576 L -0.061 33.576 L 0.035 33.096 Q 0.659 33.096 0.995 32.976 Q 1.331 32.856 1.523 32.456 Q 1.715 32.056 1.875 31.24 L 3.139 25.016 Q 3.267 24.408 3.219 24.096 Q 3.171 23.784 2.875 23.664 Q 2.579 23.544 1.939 23.544 L 2.035 23.064 L 5.235 23.064 L 6.963 31.16 L 7.027 31.16 L 11.907 23.064 L 14.931 23.064 L 14.835 23.544 Q 14.275 23.544 13.947 23.664 Q 13.619 23.784 13.443 24.096 Q 13.267 24.408 13.139 25 L 11.779 31.672 Q 11.603 32.552 11.867 32.824 Q 12.131 33.096 12.979 33.096 Z " fill="black" /><path d="M 19.77 36.936 L 19.77 36.936 L 15.973 36.936 L 15.973 36.533 Q 16.779 36.533 17.042 36.37 Q 17.306 36.208 17.306 35.782 L 17.306 30.899 Q 17.306 30.597 17.216 30.462 Q 17.126 30.328 16.891 30.328 Q 16.712 30.328 16.404 30.378 Q 16.096 30.429 15.872 30.485 L 15.872 30.037 L 17.944 29.466 L 18.426 29.466 L 18.426 35.782 Q 18.426 36.208 18.711 36.37 Q 18.997 36.533 19.77 36.533 Z " fill="black" /></g></g></g><circle cx="54.0" cy="78.0" r="2.6999999999999997" style="stroke:black;fill:black;stroke-width:2.0;stroke-dasharray:-;" /><g><g><g><path d="M 66.838 165.531 L 66.838 165.531 L 62.566 165.531 L 62.662 165.051 Q 63.254 165.051 63.566 164.939 Q 63.878 164.827 64.038 164.515 Q 64.198 164.203 64.31 163.627 L 65.734 156.715 L 65.67 156.715 L 60.294 165.531 L 59.942 165.531 L 58.006 156.731 L 57.942 156.731 L 56.614 163.195 Q 56.454 164.011 56.478 164.411 Q 56.502 164.811 56.79 164.931 Q 57.078 165.051 57.686 165.051 L 57.59 165.531 L 53.894 165.531 L 53.99 165.051 Q 54.614 165.051 54.95 164.931 Q 55.286 164.811 55.478 164.411 Q 55.67 164.011 55.83 163.195 L 57.094 156.971 Q 57.222 156.363 57.174 156.051 Q 57.126 155.739 56.83 155.619 Q 56.534 155.499 55.894 155.499 L 55.99 155.019 L 59.19 155.019 L 60.918 163.115 L 60.982 163.115 L 65.862 155.019 L 68.886 155.019 L 68.79 155.499 Q 68.23 155.499 67.902 155.619 Q 67.574 155.739 67.398 156.051 Q 67.222 156.363 67.094 156.955 L 65.734 163.627 Q 65.558 164.507 65.822 164.779 Q 66.086 165.051 66.934 165.051 Z " fill="black" /><path d="M 74.251 162.014 L 74.251 162.014 L 71.675 168.981 L 70.69 168.981 L 73.322 162.53 L 70.902 162.53 Q 70.555 162.53 70.376 162.602 Q 70.197 162.675 70.096 162.866 Q 69.995 163.056 69.861 163.426 L 69.413 163.403 L 69.794 161.544 L 74.251 161.544 Z " fill="black" /></g></g></g><circle cx="-141.0" cy="125.99999999999999" r="2.6999999999999997" style="stroke:black;fill:black;stroke-width:2.0;stroke-dasharray:-;" /><g><g><g><path d="M -153.109 165.498 L -153.109 165.498 L -157.381 165.498 L -157.285 165.018 Q -156.693 165.018 -156.381 164.906 Q -156.069 164.794 -155.909 164.482 Q -155.749 164.17 -155.637 163.594 L -154.213 156.682 L -154.277 156.682 L -159.653 165.498 L -160.005 165.498 L -161.941 156.698 L -162.005 156.698 L -163.333 163.162 Q -163.493 163.978 -163.469 164.378 Q -163.445 164.778 -163.157 164.898 Q -162.869 165.018 -162.261 165.018 L -162.357 165.498 L -166.053 165.498 L -165.957 165.018 Q -165.333 165.018 -164.997 164.898 Q -164.661 164.778 -164.469 164.378 Q -164.277 163.978 -164.117 163.162 L -162.853 156.938 Q -162.725 156.33 -162.773 156.018 Q -162.821 155.706 -163.117 155.586 Q -163.413 155.466 -164.053 155.466 L -163.957 154.986 L -160.757 154.986 L -159.029 163.082 L -158.965 163.082 L -154.085 154.986 L -151.061 154.986 L -151.157 155.466 Q -151.717 155.466 -152.045 155.586 Q -152.373 155.706 -152.549 156.018 Q -152.725 156.33 -152.853 156.922 L -154.213 163.594 Q -154.389 164.474 -154.125 164.746 Q -153.861 165.018 -153.013 165.018 Z " fill="black" /><path d="M -146.01 161.331 L -146.01 161.331 L -145.998 161.701 Q -146.816 161.802 -147.505 162.188 Q -148.194 162.574 -148.67 163.213 Q -149.146 163.851 -149.314 164.714 L -149.224 164.725 Q -148.854 164.389 -148.49 164.176 Q -148.126 163.963 -147.645 163.963 Q -147.006 163.963 -146.519 164.266 Q -146.032 164.568 -145.752 165.128 Q -145.472 165.688 -145.472 166.483 Q -145.472 167.682 -146.138 168.348 Q -146.805 169.014 -147.936 169.014 Q -148.81 169.014 -149.375 168.6 Q -149.941 168.186 -150.215 167.463 Q -150.49 166.741 -150.49 165.8 Q -150.49 164.355 -149.902 163.37 Q -149.314 162.384 -148.3 161.869 Q -147.286 161.354 -146.01 161.331 Z M -146.57 166.562 L -146.57 166.562 Q -146.57 165.733 -146.934 165.234 Q -147.298 164.736 -148.014 164.736 Q -148.563 164.736 -148.961 165.044 Q -149.358 165.352 -149.358 166.114 Q -149.358 167.222 -148.994 167.872 Q -148.63 168.522 -147.869 168.522 Q -147.264 168.522 -146.917 168.085 Q -146.57 167.648 -146.57 166.562 Z " fill="black" /></g></g></g><g><g><g><path d="M -190.032 -28.593 L -190.032 -28.593 L -188.72 -34.897 Q -188.576 -35.521 -188.584 -35.881 Q -188.592 -36.241 -188.88 -36.385 Q -189.168 -36.529 -189.904 -36.529 L -189.808 -37.009 L -185.376 -37.009 L -185.472 -36.529 Q -186.176 -36.529 -186.528 -36.385 Q -186.88 -36.241 -187.024 -35.881 Q -187.168 -35.521 -187.296 -34.897 L -188.608 -28.529 Q -188.656 -28.273 -188.688 -28.065 Q -188.72 -27.857 -188.72 -27.681 Q -188.72 -27.233 -188.456 -27.105 Q -188.192 -26.977 -187.44 -26.977 L -187.536 -26.497 L -191.904 -26.497 L -191.808 -26.977 Q -191.152 -26.977 -190.824 -27.089 Q -190.496 -27.201 -190.336 -27.545 Q -190.176 -27.889 -190.032 -28.593 Z " fill="black" /><path d="M -183.035 -31.503 L -183.035 -31.503 L -183.035 -28.031 L -182.979 -28.031 Q -182.654 -28.412 -182.212 -28.714 Q -181.77 -29.017 -181.142 -29.017 Q -180.56 -29.017 -180.084 -28.664 Q -179.608 -28.311 -179.322 -27.69 Q -179.037 -27.068 -179.037 -26.262 Q -179.037 -25.186 -179.429 -24.458 Q -179.821 -23.73 -180.498 -23.366 Q -181.176 -23.002 -182.038 -23.002 Q -182.542 -23.002 -182.968 -23.086 Q -183.394 -23.17 -183.69 -23.282 Q -183.987 -23.394 -184.122 -23.45 L -184.122 -30.17 Q -184.122 -30.585 -184.211 -30.702 Q -184.301 -30.82 -184.682 -30.82 Q -184.805 -30.82 -184.911 -30.803 Q -185.018 -30.786 -185.018 -30.786 L -185.018 -31.212 L -183.494 -31.503 Z M -183.035 -27.449 L -183.035 -27.449 L -183.035 -24.089 Q -182.901 -23.842 -182.61 -23.697 Q -182.318 -23.551 -181.837 -23.551 Q -181.243 -23.551 -180.885 -23.87 Q -180.526 -24.19 -180.364 -24.722 Q -180.202 -25.254 -180.202 -25.881 Q -180.202 -26.452 -180.33 -26.973 Q -180.459 -27.494 -180.784 -27.818 Q -181.109 -28.143 -181.68 -28.143 Q -181.982 -28.143 -182.257 -28.026 Q -182.531 -27.908 -182.733 -27.746 Q -182.934 -27.583 -183.035 -27.449 Z " fill="black" /><path d="M -174.949 -23.551 L -174.949 -23.551 L -174.949 -23.137 L -177.794 -23.137 L -177.794 -23.551 Q -177.402 -23.551 -177.228 -23.635 Q -177.054 -23.719 -177.01 -23.904 Q -176.965 -24.089 -176.965 -24.391 L -176.965 -27.774 Q -176.965 -28.154 -177.088 -28.233 Q -177.211 -28.311 -177.502 -28.311 Q -177.648 -28.311 -177.738 -28.3 Q -177.827 -28.289 -177.827 -28.289 L -177.827 -28.737 L -176.326 -28.983 L -175.867 -28.983 L -175.867 -24.391 Q -175.867 -24.066 -175.817 -23.882 Q -175.766 -23.697 -175.57 -23.624 Q -175.374 -23.551 -174.949 -23.551 Z M -176.427 -31.458 L -176.427 -31.458 Q -176.102 -31.458 -175.884 -31.234 Q -175.666 -31.01 -175.666 -30.719 Q -175.666 -30.45 -175.884 -30.226 Q -176.102 -30.002 -176.427 -30.002 Q -176.741 -30.002 -176.948 -30.226 Q -177.155 -30.45 -177.155 -30.719 Q -177.155 -31.01 -176.948 -31.234 Q -176.741 -31.458 -176.427 -31.458 Z " fill="black" /><path d="M -170.469 -23.842 L -170.469 -23.842 L -170.547 -23.842 Q -170.928 -23.529 -171.387 -23.294 Q -171.846 -23.058 -172.384 -23.058 Q -173.09 -23.058 -173.465 -23.484 Q -173.84 -23.91 -173.84 -24.514 Q -173.84 -25.03 -173.599 -25.377 Q -173.358 -25.724 -172.972 -25.942 Q -172.586 -26.161 -172.138 -26.295 Q -171.69 -26.43 -171.275 -26.508 Q -170.861 -26.586 -170.581 -26.654 L -170.581 -27.236 Q -170.581 -27.986 -170.878 -28.272 Q -171.174 -28.558 -171.746 -28.558 Q -172.093 -28.558 -172.244 -28.468 Q -172.395 -28.378 -172.434 -28.177 Q -172.474 -27.975 -172.485 -27.65 Q -172.496 -27.404 -172.63 -27.253 Q -172.765 -27.102 -173.022 -27.102 Q -173.269 -27.102 -173.442 -27.253 Q -173.616 -27.404 -173.616 -27.695 Q -173.616 -28.042 -173.347 -28.345 Q -173.078 -28.647 -172.58 -28.832 Q -172.082 -29.017 -171.41 -29.017 Q -170.402 -29.017 -169.948 -28.552 Q -169.494 -28.087 -169.494 -27.158 L -169.494 -24.414 Q -169.494 -24.044 -169.41 -23.938 Q -169.326 -23.831 -169.147 -23.831 Q -168.957 -23.831 -168.817 -23.91 Q -168.677 -23.988 -168.554 -24.134 L -168.307 -23.898 Q -168.89 -23.07 -169.674 -23.07 Q -170.11 -23.07 -170.273 -23.277 Q -170.435 -23.484 -170.469 -23.842 Z M -170.581 -24.257 L -170.581 -24.257 L -170.581 -26.228 Q -171.096 -26.094 -171.589 -25.931 Q -172.082 -25.769 -172.401 -25.489 Q -172.72 -25.209 -172.72 -24.705 Q -172.72 -24.268 -172.468 -24.016 Q -172.216 -23.764 -171.824 -23.764 Q -171.589 -23.764 -171.258 -23.87 Q -170.928 -23.977 -170.581 -24.257 Z " fill="black" /><path d="M -167.534 -25.175 L -167.534 -25.175 L -167.176 -25.175 Q -167.03 -24.526 -166.829 -24.167 Q -166.627 -23.809 -166.308 -23.669 Q -165.989 -23.529 -165.53 -23.529 Q -165.003 -23.529 -164.718 -23.702 Q -164.432 -23.876 -164.432 -24.313 Q -164.432 -24.604 -164.572 -24.8 Q -164.712 -24.996 -165.02 -25.175 Q -165.328 -25.354 -165.843 -25.59 Q -166.37 -25.847 -166.745 -26.071 Q -167.12 -26.295 -167.316 -26.598 Q -167.512 -26.9 -167.512 -27.359 Q -167.512 -28.166 -166.969 -28.591 Q -166.426 -29.017 -165.608 -29.017 Q -165.115 -29.017 -164.774 -28.894 Q -164.432 -28.77 -164.23 -28.681 L -164.208 -28.681 L -164.029 -28.961 L -163.715 -28.961 L -163.693 -27.102 L -164.085 -27.102 Q -164.298 -27.964 -164.678 -28.261 Q -165.059 -28.558 -165.552 -28.558 Q -166.067 -28.558 -166.33 -28.334 Q -166.594 -28.11 -166.594 -27.751 Q -166.594 -27.46 -166.414 -27.27 Q -166.235 -27.079 -165.905 -26.917 Q -165.574 -26.754 -165.115 -26.53 Q -164.6 -26.284 -164.208 -26.021 Q -163.816 -25.758 -163.592 -25.427 Q -163.368 -25.097 -163.368 -24.604 Q -163.368 -24.01 -163.682 -23.652 Q -163.995 -23.294 -164.488 -23.142 Q -164.981 -22.991 -165.518 -22.991 Q -166.067 -22.991 -166.37 -23.103 Q -166.672 -23.215 -166.93 -23.316 L -166.974 -23.316 L -167.254 -23.025 L -167.512 -23.025 Z " fill="black" /></g></g></g><circle cx="-90.0" cy="126.0" r="2.6999999999999997" style="stroke:black;fill:black;stroke-width:2.0;stroke-dasharray:-;" /><g><g><g><path d="M 96.115 33.576 L 96.115 33.576 L 91.843 33.576 L 91.939 33.096 Q 92.531 33.096 92.843 32.984 Q 93.155 32.872 93.315 32.56 Q 93.475 32.248 93.587 31.672 L 95.011 24.76 L 94.947 24.76 L 89.571 33.576 L 89.219 33.576 L 87.283 24.776 L 87.219 24.776 L 85.891 31.24 Q 85.731 32.056 85.755 32.456 Q 85.779 32.856 86.067 32.976 Q 86.355 33.096 86.963 33.096 L 86.867 33.576 L 83.171 33.576 L 83.267 33.096 Q 83.891 33.096 84.227 32.976 Q 84.563 32.856 84.755 32.456 Q 84.947 32.056 85.107 31.24 L 86.371 25.016 Q 86.499 24.408 86.451 24.096 Q 86.403 23.784 86.107 23.664 Q 85.811 23.544 85.171 23.544 L 85.267 23.064 L 88.467 23.064 L 90.195 31.16 L 90.259 31.16 L 95.139 23.064 L 98.163 23.064 L 98.067 23.544 Q 97.507 23.544 97.179 23.664 Q 96.851 23.784 96.675 24.096 Q 96.499 24.408 96.371 25 L 95.011 31.672 Q 94.835 32.552 95.099 32.824 Q 95.363 33.096 96.211 33.096 Z " fill="black" /><path d="M 103.64 34.987 L 103.64 34.987 L 103.259 36.936 L 98.667 36.936 L 98.667 36.387 L 100.258 34.774 Q 100.885 34.147 101.294 33.666 Q 101.702 33.184 101.904 32.697 Q 102.106 32.21 102.106 31.582 Q 102.106 30.989 101.742 30.602 Q 101.378 30.216 100.717 30.216 Q 100.112 30.216 99.703 30.457 Q 99.294 30.698 98.981 31.246 L 98.678 31.101 Q 98.958 30.317 99.546 29.869 Q 100.134 29.421 100.997 29.421 Q 101.669 29.421 102.184 29.662 Q 102.699 29.902 102.99 30.35 Q 103.282 30.798 103.282 31.437 Q 103.282 31.986 103.035 32.467 Q 102.789 32.949 102.335 33.453 Q 101.882 33.957 101.254 34.573 L 99.854 35.928 L 99.854 36.006 L 100.728 35.962 L 102.184 35.962 Q 102.509 35.962 102.682 35.872 Q 102.856 35.782 102.979 35.564 Q 103.102 35.346 103.248 34.987 Z " fill="black" /></g></g></g><circle cx="-50.99999999999999" cy="29.999999999999993" r="2.6999999999999997" style="stroke:black;fill:white;stroke-width:2.0;stroke-dasharray:-;" /><g><g><g><path d="M -83.186 30.736 L -83.186 30.736 L -78.818 24.176 Q -78.594 23.856 -78.458 23.584 Q -78.322 23.312 -78.322 23.12 Q -78.322 22.88 -78.53 22.792 Q -78.738 22.704 -79.282 22.704 L -79.25 22.224 L -75.794 22.224 L -75.826 22.704 Q -76.258 22.704 -76.562 22.832 Q -76.866 22.96 -77.178 23.32 Q -77.49 23.68 -77.986 24.416 L -83.858 32.816 L -84.386 32.816 L -85.282 24.16 Q -85.378 23.36 -85.634 23.032 Q -85.89 22.704 -86.53 22.704 L -86.498 22.224 L -82.578 22.224 L -82.626 22.704 Q -83.234 22.704 -83.586 22.944 Q -83.938 23.184 -83.906 23.728 Q -83.906 23.808 -83.882 24.016 Q -83.858 24.224 -83.858 24.304 L -83.378 28.864 L -83.266 30.736 Z " fill="black" /><path d="M -74.266 35.682 L -74.266 35.682 L -74.266 36.096 L -77.111 36.096 L -77.111 35.682 Q -76.719 35.682 -76.546 35.598 Q -76.372 35.514 -76.327 35.329 Q -76.282 35.144 -76.282 34.842 L -76.282 31.459 Q -76.282 31.078 -76.406 31 Q -76.529 30.922 -76.82 30.922 Q -76.966 30.922 -77.055 30.933 Q -77.145 30.944 -77.145 30.944 L -77.145 30.496 L -75.644 30.25 L -75.185 30.25 L -75.185 34.842 Q -75.185 35.166 -75.134 35.351 Q -75.084 35.536 -74.888 35.609 Q -74.692 35.682 -74.266 35.682 Z M -75.745 27.774 L -75.745 27.774 Q -75.42 27.774 -75.202 27.998 Q -74.983 28.222 -74.983 28.514 Q -74.983 28.782 -75.202 29.006 Q -75.42 29.23 -75.745 29.23 Q -76.058 29.23 -76.266 29.006 Q -76.473 28.782 -76.473 28.514 Q -76.473 28.222 -76.266 27.998 Q -76.058 27.774 -75.745 27.774 Z " fill="black" /><path d="M -67.614 32.344 L -67.614 32.344 L -67.614 34.853 Q -67.614 35.166 -67.558 35.351 Q -67.502 35.536 -67.311 35.614 Q -67.121 35.693 -66.718 35.693 L -66.718 36.096 L -69.596 36.096 L -69.596 35.693 Q -69.17 35.693 -68.98 35.614 Q -68.79 35.536 -68.745 35.351 Q -68.7 35.166 -68.7 34.853 L -68.7 32.714 Q -68.7 31.963 -68.874 31.61 Q -69.047 31.258 -69.31 31.146 Q -69.574 31.034 -69.842 31.034 Q -70.324 31.034 -70.688 31.28 Q -71.052 31.526 -71.321 31.75 L -71.321 34.853 Q -71.321 35.166 -71.27 35.351 Q -71.22 35.536 -71.03 35.614 Q -70.839 35.693 -70.425 35.693 L -70.425 36.096 L -73.247 36.096 L -73.247 35.693 Q -72.855 35.693 -72.682 35.614 Q -72.508 35.536 -72.463 35.351 Q -72.418 35.166 -72.418 34.853 L -72.418 31.448 Q -72.418 31.134 -72.536 31.028 Q -72.654 30.922 -72.911 30.922 Q -73.046 30.922 -73.135 30.933 Q -73.225 30.944 -73.225 30.944 L -73.225 30.518 L -71.724 30.25 L -71.354 30.25 L -71.354 31.168 L -71.276 31.168 Q -70.794 30.731 -70.352 30.474 Q -69.91 30.216 -69.35 30.216 Q -68.689 30.216 -68.314 30.513 Q -67.938 30.81 -67.776 31.291 Q -67.614 31.773 -67.614 32.344 Z " fill="black" /><path d="M -65.318 37.776 L -65.318 37.776 L -65.508 37.406 Q -65.273 37.306 -65.026 37.143 Q -64.78 36.981 -64.618 36.684 Q -64.455 36.387 -64.455 35.906 Q -64.646 35.984 -64.847 35.984 Q -65.217 35.984 -65.374 35.766 Q -65.53 35.547 -65.53 35.267 Q -65.53 34.965 -65.329 34.741 Q -65.127 34.517 -64.746 34.517 Q -64.265 34.517 -64.013 34.814 Q -63.761 35.11 -63.761 35.637 Q -63.761 36.174 -63.929 36.55 Q -64.097 36.925 -64.349 37.166 Q -64.601 37.406 -64.864 37.546 Q -65.127 37.686 -65.318 37.776 Z " fill="black" /><path d="M -57.556 32.344 L -57.556 32.344 L -57.556 34.853 Q -57.556 35.166 -57.5 35.351 Q -57.444 35.536 -57.254 35.614 Q -57.063 35.693 -56.66 35.693 L -56.66 36.096 L -59.538 36.096 L -59.538 35.693 Q -59.113 35.693 -58.922 35.614 Q -58.732 35.536 -58.687 35.351 Q -58.642 35.166 -58.642 34.853 L -58.642 32.714 Q -58.642 31.963 -58.816 31.61 Q -58.99 31.258 -59.253 31.146 Q -59.516 31.034 -59.785 31.034 Q -60.266 31.034 -60.63 31.28 Q -60.994 31.526 -61.263 31.75 L -61.263 34.853 Q -61.263 35.166 -61.213 35.351 Q -61.162 35.536 -60.972 35.614 Q -60.782 35.693 -60.367 35.693 L -60.367 36.096 L -63.19 36.096 L -63.19 35.693 Q -62.798 35.693 -62.624 35.614 Q -62.45 35.536 -62.406 35.351 Q -62.361 35.166 -62.361 34.853 L -62.361 31.448 Q -62.361 31.134 -62.478 31.028 Q -62.596 30.922 -62.854 30.922 Q -62.988 30.922 -63.078 30.933 Q -63.167 30.944 -63.167 30.944 L -63.167 30.518 L -61.666 30.25 L -61.297 30.25 L -61.297 31.168 L -61.218 31.168 Q -60.737 30.731 -60.294 30.474 Q -59.852 30.216 -59.292 30.216 Q -58.631 30.216 -58.256 30.513 Q -57.881 30.81 -57.718 31.291 Q -57.556 31.773 -57.556 32.344 Z " fill="black" /></g></g></g><circle cx="158.99999999999997" cy="29.999999999999996" r="2.6999999999999997" style="stroke:black;fill:white;stroke-width:2.0;stroke-dasharray:-;" /><g><g><g><path d="M 169.732 30.282 L 169.732 30.282 L 174.1 23.722 Q 174.324 23.402 174.46 23.13 Q 174.596 22.858 174.596 22.666 Q 174.596 22.426 174.388 22.338 Q 174.18 22.25 173.636 22.25 L 173.668 21.77 L 177.124 21.77 L 177.092 22.25 Q 176.66 22.25 176.356 22.378 Q 176.052 22.506 175.74 22.866 Q 175.428 23.226 174.932 23.962 L 169.06 32.362 L 168.532 32.362 L 167.636 23.706 Q 167.54 22.906 167.284 22.578 Q 167.028 22.25 166.388 22.25 L 166.42 21.77 L 170.34 21.77 L 170.292 22.25 Q 169.684 22.25 169.332 22.49 Q 168.98 22.73 169.012 23.274 Q 169.012 23.354 169.036 23.562 Q 169.06 23.77 169.06 23.85 L 169.54 28.41 L 169.652 30.282 Z " fill="black" /><path d="M 178.652 35.228 L 178.652 35.228 L 178.652 35.642 L 175.807 35.642 L 175.807 35.228 Q 176.199 35.228 176.373 35.144 Q 176.546 35.06 176.591 34.875 Q 176.636 34.69 176.636 34.388 L 176.636 31.006 Q 176.636 30.625 176.513 30.546 Q 176.39 30.468 176.098 30.468 Q 175.953 30.468 175.863 30.479 Q 175.774 30.49 175.774 30.49 L 175.774 30.042 L 177.274 29.796 L 177.734 29.796 L 177.734 34.388 Q 177.734 34.713 177.784 34.898 Q 177.834 35.082 178.03 35.155 Q 178.226 35.228 178.652 35.228 Z M 177.174 27.321 L 177.174 27.321 Q 177.498 27.321 177.717 27.545 Q 177.935 27.769 177.935 28.06 Q 177.935 28.329 177.717 28.553 Q 177.498 28.777 177.174 28.777 Q 176.86 28.777 176.653 28.553 Q 176.446 28.329 176.446 28.06 Q 176.446 27.769 176.653 27.545 Q 176.86 27.321 177.174 27.321 Z " fill="black" /><path d="M 185.305 31.89 L 185.305 31.89 L 185.305 34.399 Q 185.305 34.713 185.361 34.898 Q 185.417 35.082 185.607 35.161 Q 185.798 35.239 186.201 35.239 L 186.201 35.642 L 183.322 35.642 L 183.322 35.239 Q 183.748 35.239 183.938 35.161 Q 184.129 35.082 184.174 34.898 Q 184.218 34.713 184.218 34.399 L 184.218 32.26 Q 184.218 31.51 184.045 31.157 Q 183.871 30.804 183.608 30.692 Q 183.345 30.58 183.076 30.58 Q 182.594 30.58 182.23 30.826 Q 181.866 31.073 181.598 31.297 L 181.598 34.399 Q 181.598 34.713 181.648 34.898 Q 181.698 35.082 181.889 35.161 Q 182.079 35.239 182.494 35.239 L 182.494 35.642 L 179.671 35.642 L 179.671 35.239 Q 180.063 35.239 180.237 35.161 Q 180.41 35.082 180.455 34.898 Q 180.5 34.713 180.5 34.399 L 180.5 30.994 Q 180.5 30.681 180.382 30.574 Q 180.265 30.468 180.007 30.468 Q 179.873 30.468 179.783 30.479 Q 179.694 30.49 179.694 30.49 L 179.694 30.065 L 181.194 29.796 L 181.564 29.796 L 181.564 30.714 L 181.642 30.714 Q 182.124 30.278 182.566 30.02 Q 183.009 29.762 183.569 29.762 Q 184.23 29.762 184.605 30.059 Q 184.98 30.356 185.142 30.838 Q 185.305 31.319 185.305 31.89 Z " fill="black" /><path d="M 187.601 37.322 L 187.601 37.322 L 187.41 36.953 Q 187.646 36.852 187.892 36.69 Q 188.138 36.527 188.301 36.23 Q 188.463 35.934 188.463 35.452 Q 188.273 35.53 188.071 35.53 Q 187.702 35.53 187.545 35.312 Q 187.388 35.094 187.388 34.814 Q 187.388 34.511 187.59 34.287 Q 187.791 34.063 188.172 34.063 Q 188.654 34.063 188.906 34.36 Q 189.158 34.657 189.158 35.183 Q 189.158 35.721 188.99 36.096 Q 188.822 36.471 188.57 36.712 Q 188.318 36.953 188.054 37.093 Q 187.791 37.233 187.601 37.322 Z " fill="black" /><path d="M 191.51 29.796 L 191.51 29.796 L 191.51 30.759 L 191.566 30.759 Q 192.002 30.255 192.439 30.009 Q 192.876 29.762 193.402 29.762 Q 193.996 29.762 194.478 30.115 Q 194.959 30.468 195.245 31.09 Q 195.53 31.711 195.53 32.518 Q 195.53 33.57 195.155 34.298 Q 194.78 35.026 194.158 35.402 Q 193.537 35.777 192.809 35.777 Q 192.462 35.777 192.154 35.687 Q 191.846 35.598 191.588 35.452 L 191.532 35.452 L 191.532 36.886 Q 191.532 37.278 191.633 37.485 Q 191.734 37.692 191.991 37.765 Q 192.249 37.838 192.73 37.838 L 192.73 38.23 L 189.561 38.23 L 189.561 37.849 Q 189.953 37.838 190.138 37.765 Q 190.322 37.692 190.384 37.502 Q 190.446 37.311 190.446 36.964 L 190.446 31.073 Q 190.446 30.748 190.378 30.608 Q 190.311 30.468 189.986 30.468 Q 189.886 30.468 189.729 30.479 Q 189.572 30.49 189.572 30.49 L 189.572 30.042 L 191.084 29.796 Z M 191.532 31.33 L 191.532 31.33 L 191.532 34.489 Q 191.655 34.612 191.84 34.797 Q 192.025 34.982 192.282 35.122 Q 192.54 35.262 192.842 35.262 Q 193.257 35.262 193.598 35.01 Q 193.94 34.758 194.153 34.22 Q 194.366 33.682 194.366 32.854 Q 194.366 31.801 193.985 31.218 Q 193.604 30.636 192.91 30.636 Q 192.462 30.636 192.092 30.871 Q 191.722 31.106 191.532 31.33 Z " fill="black" /></g></g></g><circle cx="1.102182119232618e-15" cy="-18.0" r="2.6999999999999997" style="stroke:black;fill:black;stroke-width:2.0;stroke-dasharray:-;" /><g><g><g><path d="M -11.885 -62.497 L -11.885 -62.497 L -16.157 -62.497 L -16.061 -62.977 Q -15.469 -62.977 -15.157 -63.089 Q -14.845 -63.201 -14.685 -63.513 Q -14.525 -63.825 -14.413 -64.401 L -12.989 -71.313 L -13.053 -71.313 L -18.429 -62.497 L -18.781 -62.497 L -20.717 -71.297 L -20.781 -71.297 L -22.109 -64.833 Q -22.269 -64.017 -22.245 -63.617 Q -22.221 -63.217 -21.933 -63.097 Q -21.645 -62.977 -21.037 -62.977 L -21.133 -62.497 L -24.829 -62.497 L -24.733 -62.977 Q -24.109 -62.977 -23.773 -63.097 Q -23.437 -63.217 -23.245 -63.617 Q -23.053 -64.017 -22.893 -64.833 L -21.629 -71.057 Q -21.501 -71.665 -21.549 -71.977 Q -21.597 -72.289 -21.893 -72.409 Q -22.189 -72.529 -22.829 -72.529 L -22.733 -73.009 L -19.533 -73.009 L -17.805 -64.913 L -17.741 -64.913 L -12.861 -73.009 L -9.837 -73.009 L -9.933 -72.529 Q -10.493 -72.529 -10.821 -72.409 Q -11.149 -72.289 -11.325 -71.977 Q -11.501 -71.665 -11.629 -71.073 L -12.989 -64.401 Q -13.165 -63.521 -12.901 -63.249 Q -12.637 -62.977 -11.789 -62.977 Z " fill="black" /><path d="M -8.896 -64.961 L -8.896 -64.961 L -9.221 -65.118 Q -8.885 -65.879 -8.33 -66.266 Q -7.776 -66.652 -7.082 -66.652 Q -6.186 -66.652 -5.637 -66.215 Q -5.088 -65.778 -5.088 -65.084 Q -5.088 -64.479 -5.458 -64.11 Q -5.827 -63.74 -6.376 -63.382 L -6.376 -63.326 Q -5.906 -63.202 -5.508 -62.956 Q -5.11 -62.71 -4.875 -62.323 Q -4.64 -61.937 -4.64 -61.388 Q -4.64 -60.772 -4.909 -60.318 Q -5.178 -59.865 -5.637 -59.568 Q -6.096 -59.271 -6.684 -59.131 Q -7.272 -58.991 -7.91 -58.991 Q -8.459 -58.991 -8.745 -59.086 Q -9.03 -59.182 -9.137 -59.338 Q -9.243 -59.495 -9.243 -59.652 Q -9.243 -59.842 -9.131 -60.027 Q -9.019 -60.212 -8.75 -60.212 Q -8.638 -60.212 -8.521 -60.15 Q -8.403 -60.089 -8.09 -59.91 Q -7.832 -59.786 -7.681 -59.719 Q -7.53 -59.652 -7.412 -59.63 Q -7.294 -59.607 -7.138 -59.607 Q -6.802 -59.607 -6.471 -59.73 Q -6.141 -59.854 -5.917 -60.173 Q -5.693 -60.492 -5.693 -61.074 Q -5.693 -61.59 -5.978 -61.959 Q -6.264 -62.329 -6.746 -62.536 Q -7.227 -62.743 -7.81 -62.743 L -8.056 -62.743 L -8.056 -63.27 L -7.821 -63.27 Q -7.418 -63.27 -7.037 -63.454 Q -6.656 -63.639 -6.41 -63.981 Q -6.163 -64.322 -6.163 -64.793 Q -6.163 -65.319 -6.505 -65.588 Q -6.846 -65.857 -7.373 -65.857 Q -8.347 -65.857 -8.896 -64.961 Z " fill="black" /></g></g></g><circle cx="108.0" cy="-18.0" r="2.6999999999999997" style="stroke:black;fill:black;stroke-width:2.0;stroke-dasharray:-;" /><g><g><g><path d="M 333.962 -14.497 L 333.962 -14.497 L 329.69 -14.497 L 329.786 -14.977 Q 330.378 -14.977 330.69 -15.089 Q 331.002 -15.201 331.162 -15.513 Q 331.322 -15.825 331.434 -16.401 L 332.858 -23.313 L 332.794 -23.313 L 327.418 -14.497 L 327.066 -14.497 L 325.13 -23.297 L 325.066 -23.297 L 323.738 -16.833 Q 323.578 -16.017 323.602 -15.617 Q 323.626 -15.217 323.914 -15.097 Q 324.202 -14.977 324.81 -14.977 L 324.714 -14.497 L 321.018 -14.497 L 321.114 -14.977 Q 321.738 -14.977 322.074 -15.097 Q 322.41 -15.217 322.602 -15.617 Q 322.794 -16.017 322.954 -16.833 L 324.218 -23.057 Q 324.346 -23.665 324.298 -23.977 Q 324.25 -24.289 323.954 -24.409 Q 323.658 -24.529 323.018 -24.529 L 323.114 -25.009 L 326.314 -25.009 L 328.042 -16.913 L 328.106 -16.913 L 332.986 -25.009 L 336.01 -25.009 L 335.914 -24.529 Q 335.354 -24.529 335.026 -24.409 Q 334.698 -24.289 334.522 -23.977 Q 334.346 -23.665 334.218 -23.073 L 332.858 -16.401 Q 332.682 -15.521 332.946 -15.249 Q 333.21 -14.977 334.058 -14.977 Z " fill="black" /><path d="M 340.658 -17.498 L 340.658 -17.498 L 337.88 -17.498 L 337.634 -16.143 L 338.126 -16.121 Q 338.642 -16.11 339.151 -15.981 Q 339.661 -15.852 340.086 -15.578 Q 340.512 -15.303 340.77 -14.838 Q 341.027 -14.374 341.027 -13.679 Q 341.027 -12.75 340.618 -12.156 Q 340.21 -11.562 339.493 -11.277 Q 338.776 -10.991 337.824 -10.991 Q 337.13 -10.991 336.805 -11.165 Q 336.48 -11.338 336.48 -11.674 Q 336.48 -11.887 336.609 -12.05 Q 336.738 -12.212 336.962 -12.212 Q 337.186 -12.212 337.421 -12.061 Q 337.656 -11.91 337.93 -11.758 Q 338.205 -11.607 338.563 -11.607 Q 338.978 -11.607 339.33 -11.77 Q 339.683 -11.932 339.907 -12.279 Q 340.131 -12.626 340.131 -13.198 Q 340.131 -13.914 339.834 -14.329 Q 339.538 -14.743 338.972 -14.922 Q 338.406 -15.102 337.611 -15.124 Q 337.365 -15.124 337.258 -15.124 Q 337.152 -15.124 337.051 -15.135 L 336.883 -15.303 L 337.544 -18.484 L 340.803 -18.484 Z " fill="black" /></g></g></g><circle cx="321.0" cy="83.99999999999999" r="2.6999999999999997" style="stroke:black;fill:black;stroke-width:2.0;stroke-dasharray:-;" /><g><g><g><path d="M 333.704 165.498 L 333.704 165.498 L 329.432 165.498 L 329.528 165.018 Q 330.12 165.018 330.432 164.906 Q 330.744 164.794 330.904 164.482 Q 331.064 164.17 331.176 163.594 L 332.6 156.682 L 332.536 156.682 L 327.16 165.498 L 326.808 165.498 L 324.872 156.698 L 324.808 156.698 L 323.48 163.162 Q 323.32 163.978 323.344 164.378 Q 323.368 164.778 323.656 164.898 Q 323.944 165.018 324.552 165.018 L 324.456 165.498 L 320.76 165.498 L 320.856 165.018 Q 321.48 165.018 321.816 164.898 Q 322.152 164.778 322.344 164.378 Q 322.536 163.978 322.696 163.162 L 323.96 156.938 Q 324.088 156.33 324.04 156.018 Q 323.992 155.706 323.696 155.586 Q 323.4 155.466 322.76 155.466 L 322.856 154.986 L 326.056 154.986 L 327.784 163.082 L 327.848 163.082 L 332.728 154.986 L 335.752 154.986 L 335.656 155.466 Q 335.096 155.466 334.768 155.586 Q 334.44 155.706 334.264 156.018 Q 334.088 156.33 333.96 156.922 L 332.6 163.594 Q 332.424 164.474 332.688 164.746 Q 332.952 165.018 333.8 165.018 Z " fill="black" /><path d="M 341.128 167.099 L 341.128 167.099 Q 341.128 168.04 340.445 168.527 Q 339.762 169.014 338.686 169.014 Q 338.003 169.014 337.454 168.813 Q 336.906 168.611 336.592 168.208 Q 336.278 167.805 336.278 167.2 Q 336.278 166.718 336.469 166.394 Q 336.659 166.069 337.023 165.794 Q 337.387 165.52 337.891 165.195 L 337.891 165.15 Q 337.275 164.747 336.962 164.428 Q 336.648 164.109 336.536 163.784 Q 336.424 163.459 336.424 163.056 Q 336.424 162.518 336.721 162.126 Q 337.018 161.734 337.538 161.527 Q 338.059 161.32 338.72 161.32 Q 339.314 161.32 339.79 161.527 Q 340.266 161.734 340.546 162.098 Q 340.826 162.462 340.826 162.933 Q 340.826 163.358 340.68 163.655 Q 340.534 163.952 340.21 164.204 Q 339.885 164.456 339.347 164.747 L 339.347 164.803 Q 340.03 165.195 340.417 165.537 Q 340.803 165.878 340.966 166.248 Q 341.128 166.618 341.128 167.099 Z M 338.283 165.408 L 338.283 165.408 Q 337.768 165.811 337.516 166.164 Q 337.264 166.517 337.264 167.077 Q 337.264 167.894 337.667 168.258 Q 338.07 168.622 338.731 168.622 Q 339.28 168.622 339.672 168.337 Q 340.064 168.051 340.064 167.469 Q 340.064 167.088 339.918 166.786 Q 339.773 166.483 339.386 166.158 Q 339 165.834 338.283 165.408 Z M 339.896 162.922 L 339.896 162.922 Q 339.896 162.328 339.577 162.048 Q 339.258 161.768 338.698 161.768 Q 338.093 161.768 337.762 162.048 Q 337.432 162.328 337.432 162.888 Q 337.432 163.213 337.578 163.465 Q 337.723 163.717 338.054 163.963 Q 338.384 164.21 338.91 164.546 Q 339.515 164.187 339.706 163.829 Q 339.896 163.47 339.896 162.922 Z " fill="black" /></g></g></g><g><g><g><path d="M 120.267 -62.424 L 120.267 -62.424 L 115.995 -62.424 L 116.091 -62.904 Q 116.683 -62.904 116.995 -63.016 Q 117.307 -63.128 117.467 -63.44 Q 117.627 -63.752 117.739 -64.328 L 119.163 -71.24 L 119.099 -71.24 L 113.723 -62.424 L 113.371 -62.424 L 111.435 -71.224 L 111.371 -71.224 L 110.043 -64.76 Q 109.883 -63.944 109.907 -63.544 Q 109.931 -63.144 110.219 -63.024 Q 110.507 -62.904 111.115 -62.904 L 111.019 -62.424 L 107.323 -62.424 L 107.419 -62.904 Q 108.043 -62.904 108.379 -63.024 Q 108.715 -63.144 108.907 -63.544 Q 109.099 -63.944 109.259 -64.76 L 110.523 -70.984 Q 110.651 -71.592 110.603 -71.904 Q 110.555 -72.216 110.259 -72.336 Q 109.963 -72.456 109.323 -72.456 L 109.419 -72.936 L 112.619 -72.936 L 114.347 -64.84 L 114.411 -64.84 L 119.291 -72.936 L 122.315 -72.936 L 122.219 -72.456 Q 121.659 -72.456 121.331 -72.336 Q 121.003 -72.216 120.827 -71.904 Q 120.651 -71.592 120.523 -71 L 119.163 -64.328 Q 118.987 -63.448 119.251 -63.176 Q 119.515 -62.904 120.363 -62.904 Z " fill="black" /><path d="M 128.33 -60.834 L 128.33 -60.834 L 127.109 -60.834 L 127.109 -59.064 L 126 -59.064 L 126 -60.834 L 122.707 -60.834 L 122.707 -61.685 L 126.302 -66.568 L 127.109 -66.568 L 127.109 -61.752 L 128.33 -61.752 Z M 126 -61.752 L 126 -61.752 L 126 -65.213 L 125.933 -65.213 L 123.469 -61.819 L 123.469 -61.752 Z " fill="black" /></g></g></g><circle cx="53.99999999999999" cy="-66.0" r="2.6999999999999997" style="stroke:black;fill:black;stroke-width:2.0;stroke-dasharray:-;" /><circle cx="2.999999999999999" cy="126.0" r="2.6999999999999997" style="stroke:black;fill:black;stroke-width:2.0;stroke-dasharray:-;" /><circle cx="357.0" cy="83.99999999999999" r="2.6999999999999997" style="stroke:black;fill:white;stroke-width:2.0;stroke-dasharray:-;" /><g><g><g><path d="M 365.172 85.413 L 365.172 85.413 L 366.484 79.109 Q 366.628 78.485 366.62 78.125 Q 366.612 77.765 366.324 77.621 Q 366.036 77.477 365.3 77.477 L 365.396 76.997 L 369.828 76.997 L 369.732 77.477 Q 369.028 77.477 368.676 77.621 Q 368.324 77.765 368.18 78.125 Q 368.036 78.485 367.908 79.109 L 366.596 85.477 Q 366.548 85.733 366.516 85.941 Q 366.484 86.149 366.484 86.325 Q 366.484 86.773 366.748 86.901 Q 367.012 87.029 367.764 87.029 L 367.668 87.509 L 363.3 87.509 L 363.396 87.029 Q 364.052 87.029 364.38 86.917 Q 364.708 86.805 364.868 86.461 Q 365.028 86.117 365.172 85.413 Z " fill="black" /><path d="M 373.289 84.989 L 373.289 84.989 Q 374.129 84.989 374.756 85.353 Q 375.383 85.717 375.725 86.372 Q 376.066 87.027 376.066 87.912 Q 376.066 88.976 375.708 89.659 Q 375.35 90.342 374.722 90.673 Q 374.095 91.003 373.289 91.003 Q 372.471 91.003 371.838 90.662 Q 371.206 90.32 370.853 89.637 Q 370.5 88.954 370.5 87.923 Q 370.5 87.05 370.847 86.389 Q 371.194 85.728 371.822 85.358 Q 372.449 84.989 373.289 84.989 Z M 373.266 85.504 L 373.266 85.504 Q 372.527 85.504 372.107 86.103 Q 371.687 86.702 371.687 87.856 Q 371.687 89.278 372.118 89.866 Q 372.55 90.454 373.322 90.454 Q 373.815 90.443 374.162 90.208 Q 374.51 89.973 374.694 89.418 Q 374.879 88.864 374.879 87.912 Q 374.879 86.77 374.487 86.137 Q 374.095 85.504 373.266 85.504 Z " fill="black" /><path d="M 383.682 90.298 L 383.682 90.298 L 383.682 90.723 L 382.17 90.925 L 381.812 90.925 L 381.812 90.051 L 381.7 90.051 Q 381.274 90.432 380.838 90.706 Q 380.401 90.981 379.785 90.981 Q 378.956 90.981 378.519 90.477 Q 378.082 89.973 378.082 88.73 L 378.082 86.322 Q 378.082 85.862 377.92 85.756 Q 377.758 85.65 377.242 85.65 L 377.242 85.246 L 378.799 85.034 L 379.169 85.034 L 379.169 88.584 Q 379.169 89.211 379.314 89.558 Q 379.46 89.906 379.706 90.04 Q 379.953 90.174 380.244 90.174 Q 380.737 90.174 381.067 89.967 Q 381.398 89.76 381.756 89.469 L 381.756 86.322 Q 381.756 85.862 381.554 85.756 Q 381.353 85.65 380.782 85.65 L 380.782 85.246 L 382.45 85.034 L 382.842 85.034 L 382.842 89.57 Q 382.842 89.906 382.904 90.062 Q 382.966 90.219 383.122 90.258 Q 383.279 90.298 383.559 90.298 Z " fill="black" /><path d="M 388.05 89.749 L 388.05 89.749 L 388.308 89.962 Q 388.062 90.298 387.86 90.527 Q 387.658 90.757 387.401 90.88 Q 387.143 91.003 386.74 91.003 Q 386.09 91.003 385.794 90.634 Q 385.497 90.264 385.497 89.446 L 385.497 85.683 L 384.791 85.683 L 384.791 85.347 Q 385.194 85.056 385.53 84.636 Q 385.866 84.216 386.202 83.432 L 386.594 83.432 L 386.583 85.134 L 388.006 85.134 L 388.006 85.683 L 386.583 85.683 L 386.583 89.077 Q 386.583 89.704 386.701 89.967 Q 386.818 90.23 387.177 90.23 Q 387.502 90.23 387.67 90.113 Q 387.838 89.995 388.05 89.749 Z " fill="black" /><path d="M 396.487 79.749 L 396.487 79.749 Q 398.135 79.749 399.087 80.773 Q 400.039 81.797 400.039 83.573 Q 400.039 84.917 399.583 85.829 Q 399.127 86.741 398.327 87.205 Q 397.527 87.669 396.487 87.669 Q 394.807 87.669 393.855 86.621 Q 392.903 85.573 392.903 83.637 Q 392.903 82.469 393.351 81.597 Q 393.799 80.725 394.607 80.237 Q 395.415 79.749 396.487 79.749 Z M 396.423 80.357 L 396.423 80.357 Q 395.511 80.357 394.951 81.125 Q 394.391 81.893 394.391 83.429 Q 394.391 85.333 394.959 86.189 Q 395.527 87.045 396.551 87.029 Q 397.207 87.029 397.655 86.725 Q 398.103 86.421 398.335 85.685 Q 398.567 84.949 398.567 83.653 Q 398.567 82.181 398.031 81.269 Q 397.495 80.357 396.423 80.357 Z " fill="black" /><path d="M 403.511 79.797 L 403.511 79.797 L 403.511 81.445 L 403.559 81.445 Q 404.167 80.549 404.607 80.125 Q 405.047 79.701 405.623 79.701 Q 406.087 79.701 406.319 79.941 Q 406.551 80.181 406.551 80.597 Q 406.551 81.045 406.335 81.253 Q 406.119 81.461 405.847 81.461 Q 405.591 81.461 405.391 81.325 Q 405.191 81.189 405.047 81.053 Q 404.903 80.917 404.807 80.917 Q 404.535 80.917 404.183 81.333 Q 403.831 81.749 403.543 82.229 L 403.543 85.877 Q 403.543 86.373 403.671 86.629 Q 403.799 86.885 404.127 86.965 Q 404.455 87.045 405.047 87.045 L 405.047 87.509 L 401.047 87.509 L 401.047 87.045 Q 401.575 87.045 401.823 86.957 Q 402.071 86.869 402.143 86.637 Q 402.215 86.405 402.215 85.957 L 402.215 81.557 Q 402.215 81.125 402.143 80.909 Q 402.071 80.693 401.639 80.693 Q 401.399 80.693 401.271 80.709 Q 401.143 80.725 401.143 80.725 L 401.143 80.277 L 403.127 79.797 Z " fill="black" /><path d="M 414.855 85.509 L 414.855 85.509 L 419.223 78.949 Q 419.447 78.629 419.583 78.357 Q 419.719 78.085 419.719 77.893 Q 419.719 77.653 419.511 77.565 Q 419.303 77.477 418.759 77.477 L 418.791 76.997 L 422.247 76.997 L 422.215 77.477 Q 421.783 77.477 421.479 77.605 Q 421.175 77.733 420.863 78.093 Q 420.551 78.453 420.055 79.189 L 414.183 87.589 L 413.655 87.589 L 412.759 78.933 Q 412.663 78.133 412.407 77.805 Q 412.151 77.477 411.511 77.477 L 411.543 76.997 L 415.463 76.997 L 415.415 77.477 Q 414.807 77.477 414.455 77.717 Q 414.103 77.957 414.135 78.501 Q 414.135 78.581 414.159 78.789 Q 414.183 78.997 414.183 79.077 L 414.663 83.637 L 414.775 85.509 Z " fill="black" /><path d="M 422.156 84.989 L 422.156 84.989 Q 422.996 84.989 423.623 85.353 Q 424.25 85.717 424.592 86.372 Q 424.934 87.027 424.934 87.912 Q 424.934 88.976 424.575 89.659 Q 424.217 90.342 423.59 90.673 Q 422.962 91.003 422.156 91.003 Q 421.338 91.003 420.706 90.662 Q 420.073 90.32 419.72 89.637 Q 419.367 88.954 419.367 87.923 Q 419.367 87.05 419.714 86.389 Q 420.062 85.728 420.689 85.358 Q 421.316 84.989 422.156 84.989 Z M 422.134 85.504 L 422.134 85.504 Q 421.394 85.504 420.974 86.103 Q 420.554 86.702 420.554 87.856 Q 420.554 89.278 420.986 89.866 Q 421.417 90.454 422.19 90.454 Q 422.682 90.443 423.03 90.208 Q 423.377 89.973 423.562 89.418 Q 423.746 88.864 423.746 87.912 Q 423.746 86.77 423.354 86.137 Q 422.962 85.504 422.134 85.504 Z " fill="black" /><path d="M 432.55 90.298 L 432.55 90.298 L 432.55 90.723 L 431.038 90.925 L 430.679 90.925 L 430.679 90.051 L 430.567 90.051 Q 430.142 90.432 429.705 90.706 Q 429.268 90.981 428.652 90.981 Q 427.823 90.981 427.386 90.477 Q 426.95 89.973 426.95 88.73 L 426.95 86.322 Q 426.95 85.862 426.787 85.756 Q 426.625 85.65 426.11 85.65 L 426.11 85.246 L 427.666 85.034 L 428.036 85.034 L 428.036 88.584 Q 428.036 89.211 428.182 89.558 Q 428.327 89.906 428.574 90.04 Q 428.82 90.174 429.111 90.174 Q 429.604 90.174 429.934 89.967 Q 430.265 89.76 430.623 89.469 L 430.623 86.322 Q 430.623 85.862 430.422 85.756 Q 430.22 85.65 429.649 85.65 L 429.649 85.246 L 431.318 85.034 L 431.71 85.034 L 431.71 89.57 Q 431.71 89.906 431.771 90.062 Q 431.833 90.219 431.99 90.258 Q 432.146 90.298 432.426 90.298 Z " fill="black" /><path d="M 436.918 89.749 L 436.918 89.749 L 437.175 89.962 Q 436.929 90.298 436.727 90.527 Q 436.526 90.757 436.268 90.88 Q 436.01 91.003 435.607 91.003 Q 434.958 91.003 434.661 90.634 Q 434.364 90.264 434.364 89.446 L 434.364 85.683 L 433.658 85.683 L 433.658 85.347 Q 434.062 85.056 434.398 84.636 Q 434.734 84.216 435.07 83.432 L 435.462 83.432 L 435.45 85.134 L 436.873 85.134 L 436.873 85.683 L 435.45 85.683 L 435.45 89.077 Q 435.45 89.704 435.568 89.967 Q 435.686 90.23 436.044 90.23 Q 436.369 90.23 436.537 90.113 Q 436.705 89.995 436.918 89.749 Z " fill="black" /></g></g></g><circle cx="234.0" cy="-18.0" r="2.6999999999999997" style="stroke:black;fill:black;stroke-width:2.0;stroke-dasharray:-;" /><circle cx="321.0" cy="36.0" r="2.6999999999999997" style="stroke:black;fill:black;stroke-width:2.0;stroke-dasharray:-;" /><g><g><g><path d="M 277.582 17.72 L 277.582 17.72 L 277.87 18.024 Q 277.054 18.984 275.982 19.6 Q 274.91 20.216 273.39 20.216 Q 271.95 20.216 271.086 19.68 Q 270.222 19.144 269.846 18.248 Q 269.47 17.352 269.47 16.296 Q 269.47 14.616 269.982 13.312 Q 270.494 12.008 271.382 11.12 Q 272.27 10.232 273.39 9.776 Q 274.51 9.32 275.726 9.32 Q 276.542 9.32 276.998 9.464 Q 277.454 9.608 277.71 9.76 Q 277.966 9.912 278.158 9.912 Q 278.35 9.912 278.494 9.752 Q 278.638 9.592 278.83 9.336 L 279.294 9.336 L 278.542 13 L 278.014 13 Q 278.078 11.4 277.422 10.704 Q 276.766 10.008 275.582 10.008 Q 274.654 10.008 273.838 10.432 Q 273.022 10.856 272.39 11.632 Q 271.758 12.408 271.398 13.488 Q 271.038 14.568 271.038 15.896 Q 271.038 17.496 271.798 18.336 Q 272.558 19.176 274.142 19.176 Q 275.982 19.176 277.582 17.72 Z " fill="black" /><path d="M 289.433 23.4 L 289.433 23.4 L 286.152 23.4 L 286.152 22.974 Q 286.611 22.974 286.835 22.896 Q 287.059 22.818 287.126 22.594 Q 287.193 22.37 287.193 21.944 L 287.193 16.938 L 287.137 16.938 L 284.36 23.4 L 284.035 23.4 L 281.19 17.128 L 281.112 17.128 L 281.112 21.642 Q 281.112 22.246 281.196 22.532 Q 281.28 22.818 281.515 22.896 Q 281.75 22.974 282.209 22.974 L 282.209 23.4 L 279.308 23.4 L 279.308 22.974 Q 279.801 22.974 280.048 22.896 Q 280.294 22.818 280.378 22.532 Q 280.462 22.246 280.462 21.642 L 280.462 17.061 Q 280.462 16.613 280.378 16.372 Q 280.294 16.131 280.048 16.042 Q 279.801 15.952 279.331 15.952 L 279.331 15.526 L 281.851 15.526 L 284.438 21.418 L 284.505 21.418 L 286.98 15.526 L 289.422 15.526 L 289.422 15.952 Q 288.996 15.952 288.761 16.042 Q 288.526 16.131 288.442 16.366 Q 288.358 16.602 288.358 17.05 L 288.358 21.944 Q 288.358 22.37 288.448 22.594 Q 288.537 22.818 288.772 22.896 Q 289.008 22.974 289.433 22.974 Z " fill="black" /></g></g></g></svg>