<svg xmlns="http://www.w3.org/2000/svg" xml:lang="en" height="243.3624pt" width="489.64000000000004pt" viewBox="-110.13199999999999 -41.5824 489.64000000000004 243.3624"><circle cx="252.0" cy="54.0" r="18.0" style="stroke:black;fill:none;stroke-width:2.0;stroke-dasharray:-;" /><path d="M 0.0,-0.0 L -27.0,-3.3065463576978533e-15 L -54.0,-6.613092715395707e-15" style="stroke:black;fill:none;stroke-width:2.0;stroke-dasharray:-;stroke-linecap:round;stroke-linejoin:round;" /><path d="M -54.0,-6.613092715395707e-15 L -54.000000000000014,68.75999999999999 M -45.000000000000014,68.75999999999999 L -63.000000000000014,68.75999999999999 M -45.000000000000014,75.24 L -63.000000000000014,75.24 M -54.000000000000014,75.24 L -54.00000000000002,144.0" style="stroke:black;fill:none;stroke-width:2.0;stroke-dasharray:-;stroke-linecap:round;stroke-linejoin:round;" /><path d="M -63.00000000000001,56.75999999999999 L -46.12892887941598,80.8615301722629" style="stroke:black;fill:none;stroke-width:2.0;stroke-dasharray:-;stroke-linecap:round;stroke-linejoin:round;" /><path d="M -43.14692468872668 85.12153615896193 L -49.07816379328453 82.92599461197089 L -43.179693965547436 78.79706573255493 Z" style="stroke:black;fill:black;stroke-linecap:butt;stroke-linejoin:miter;" /><path d="M -54.00000000000002,144.0 L 134.99999999999997,144.0 L 324.0,144.0" style="stroke:black;fill:none;stroke-width:2.0;stroke-dasharray:-;stroke-linecap:round;stroke-linejoin:round;" /><path d="M -54.0,-6.613092715395707e-15 L -72.0,-8.817456953860943e-15 L -90.0,-1.1021821192326178e-14" style="stroke:black;fill:none;stroke-width:2.0;stroke-dasharray:-;stroke-linecap:round;stroke-linejoin:round;" /><path d="M 0.0,-0.0 L -9.324460728707945e-15,50.76 M 8.999999999999991,50.76 L -9.00000000000001,50.76 M 8.99999999999999,57.239999999999995 L -9.00000000000001,57.239999999999995 M -1.0514817417479173e-14,57.239999999999995 L -1.9839278146187122e-14,108.0" style="stroke:black;fill:none;stroke-width:2.0;stroke-dasharray:-;stroke-linecap:round;stroke-linejoin:round;" /><path d="M -9.000000000000007,38.76 L 7.871071120584023,62.86153017226291" style="stroke:black;fill:none;stroke-width:2.0;stroke-dasharray:-;stroke-linecap:round;stroke-linejoin:round;" /><path d="M 10.853075311273331 67.12153615896192 L 4.921836206715478 64.92599461197088 L 10.820306034452571 60.79706573255491 Z" style="stroke:black;fill:black;stroke-linecap:butt;stroke-linejoin:miter;" /><path d="M -1.9839278146187122e-14,108.0 L 125.99999999999999,108.0 L 251.99999999999997,108.0" style="stroke:black;fill:none;stroke-width:2.0;stroke-dasharray:-;stroke-linecap:round;stroke-linejoin:round;" /><path d="M 251.99999999999997,108.0 L 251.99999999999997,144.0 L 251.99999999999997,180.0" style="stroke:black;fill:none;stroke-width:2.0;stroke-dasharray:-;stroke-linecap:round;stroke-linejoin:round;" /><path d="M 0.0,-0.0 L 122.76,-0.0 M 122.76,-9.0 L 122.76,9.0 M 129.24,-9.0 L 129.24,9.0 M 129.24,-0.0 L 252.0,-0.0" style="stroke:black;fill:none;stroke-width:2.0;stroke-dasharray:-;stroke-linecap:round;stroke-linejoin:round;" /><path d="M 110.76,9.0 L 134.86153017226292,-7.871071120584036" style="stroke:black;fill:none;stroke-width:2.0;stroke-dasharray:-;stroke-linecap:round;stroke-linejoin:round;" /><path d="M 139.1215361589619 -10.853075311273344 L 136.92599461197088 -4.921836206715492 L 132.79706573255493 -10.820306034452585 Z" style="stroke:black;fill:black;stroke-linecap:butt;stroke-linejoin:miter;" /><path d="M 252.0,-0.0 L 252.0,36.0 L 252.0,36.0 M 252.0,72.0 L 252.0,72.0 L 251.99999999999997,108.0" style="stroke:black;fill:none;stroke-width:2.0;stroke-dasharray:-;stroke-linecap:round;stroke-linejoin:round;" /><path d="M 252.0,45.0 L 252.0,54.0" style="stroke:black;fill:none;stroke-width:2.0;stroke-dasharray:-;stroke-linecap:round;stroke-linejoin:round;" /><path d="M 252.0 61.0 L 249.3 54.0 L 254.7 54.0 Z" style="stroke:black;fill:black;stroke-linecap:butt;stroke-linejoin:miter;" /><path d="M 252.0,-0.0 L 288.0,-0.0 L 324.0,-0.0" style="stroke:black;fill:none;stroke-width:2.0;stroke-dasharray:-;stroke-linecap:round;stroke-linejoin:round;" /><path d="M 324.0,-0.0 L 324.0,50.76 M 333.0,50.76 L 315.0,50.76 M 333.0,57.239999999999995 L 315.0,57.239999999999995 M 324.0,57.239999999999995 L 324.0,108.0" style="stroke:black;fill:none;stroke-width:2.0;stroke-dasharray:-;stroke-linecap:round;stroke-linejoin:round;" /><path d="M 315.0,38.76 L 331.871071120584,62.8615301722629" style="stroke:black;fill:none;stroke-width:2.0;stroke-dasharray:-;stroke-linecap:round;stroke-linejoin:round;" /><path d="M 334.8530753112733 67.1215361589619 L 328.9218362067154 64.92599461197088 L 334.8203060344525 60.79706573255491 Z" style="stroke:black;fill:black;stroke-linecap:butt;stroke-linejoin:miter;" /><path d="M 324.0,108.0 L 291.24,108.0 M 291.24,117.0 L 291.24,99.0 M 284.76,117.0 L 284.76,99.0 M 284.76,108.0 L 252.0,107.99999999999999" style="stroke:black;fill:none;stroke-width:2.0;stroke-dasharray:-;stroke-linecap:round;stroke-linejoin:round;" /><path d="M 303.24,99.0 L 279.1384698277371,115.87107112058403" style="stroke:black;fill:none;stroke-width:2.0;stroke-dasharray:-;stroke-linecap:round;stroke-linejoin:round;" /><path d="M 274.87846384103807 118.85307531127333 L 277.07400538802915 112.92183620671548 L 281.20293426744513 118.82030603445257 Z" style="stroke:black;fill:black;stroke-linecap:butt;stroke-linejoin:miter;" /><path d="M 324.0,108.0 L 324.0,144.0 L 324.0,180.0" style="stroke:black;fill:none;stroke-width:2.0;stroke-dasharray:-;stroke-linecap:round;stroke-linejoin:round;" /><path d="M 324.0,-0.0 L 342.0,-0.0 L 360.0,-0.0" style="stroke:black;fill:none;stroke-width:2.0;stroke-dasharray:-;stroke-linecap:round;stroke-linejoin:round;" /><circle cx="-54.0" cy="-6.613092715395707e-15" r="2.6999999999999997" style="stroke:black;fill:black;stroke-width:2.0;stroke-dasharray:-;" /><circle cx="0.0" cy="-0.0" r="2.6999999999999997" style="stroke:black;fill:black;stroke-width:2.0;stroke-dasharray:-;" /><g><g><g><path d="M -90.874 73.293 L -90.874 73.293 L -90.586 73.597 Q -91.402 74.557 -92.474 75.173 Q -93.546 75.789 -95.066 75.789 Q -96.506 75.789 -97.37 75.253 Q -98.234 74.717 -98.61 73.821 Q -98.986 72.925 -98.986 71.869 Q -98.986 70.189 -98.474 68.885 Q -97.962 67.581 -97.074 66.693 Q -96.186 65.805 -95.066 65.349 Q -93.946 64.893 -92.73 64.893 Q -91.914 64.893 -91.458 65.037 Q -91.002 65.181 -90.746 65.333 Q -90.49 65.485 -90.298 65.485 Q -90.106 65.485 -89.962 65.325 Q -89.818 65.165 -89.626 64.909 L -89.162 64.909 L -89.914 68.573 L -90.442 68.573 Q -90.378 66.973 -91.034 66.277 Q -91.69 65.581 -92.874 65.581 Q -93.802 65.581 -94.618 66.005 Q -95.434 66.429 -96.066 67.205 Q -96.698 67.981 -97.058 69.061 Q -97.418 70.141 -97.418 71.469 Q -97.418 73.069 -96.658 73.909 Q -95.898 74.749 -94.314 74.749 Q -92.474 74.749 -90.874 73.293 Z " fill="black" /><path d="M -81.117 75.389 L -81.117 75.389 L -81.117 75.837 Q -81.453 75.837 -81.626 75.91 Q -81.8 75.982 -81.862 76.178 Q -81.923 76.374 -81.923 76.755 L -81.923 78.256 Q -82.315 78.491 -82.752 78.682 Q -83.189 78.872 -83.738 78.99 Q -84.286 79.107 -85.014 79.107 Q -86.907 79.107 -87.926 78.077 Q -88.946 77.046 -88.946 75.086 Q -88.946 73.776 -88.425 72.846 Q -87.904 71.917 -86.991 71.43 Q -86.078 70.942 -84.902 70.942 Q -84.242 70.942 -83.855 71.049 Q -83.469 71.155 -83.25 71.267 Q -83.032 71.379 -82.886 71.379 Q -82.763 71.379 -82.679 71.273 Q -82.595 71.166 -82.45 70.965 L -82.046 70.965 L -82.046 73.754 L -82.517 73.754 Q -82.73 72.566 -83.329 72.051 Q -83.928 71.536 -84.936 71.536 Q -85.787 71.536 -86.37 71.956 Q -86.952 72.376 -87.243 73.132 Q -87.534 73.888 -87.534 74.918 Q -87.534 76.677 -86.818 77.59 Q -86.101 78.502 -84.824 78.502 Q -84.275 78.502 -83.872 78.334 Q -83.469 78.166 -83.133 77.886 L -83.133 76.834 Q -83.133 76.419 -83.2 76.206 Q -83.267 75.994 -83.486 75.915 Q -83.704 75.837 -84.152 75.837 L -84.152 75.389 Z " fill="black" /><path d="M -75.371 74.784 L -75.371 74.784 L -75.371 74.851 Q -74.845 74.93 -74.363 75.159 Q -73.882 75.389 -73.568 75.803 Q -73.254 76.218 -73.254 76.856 Q -73.254 77.886 -74.038 78.43 Q -74.822 78.973 -76.144 78.973 L -80.008 78.973 L -80.008 78.547 Q -79.504 78.547 -79.263 78.463 Q -79.022 78.379 -78.95 78.122 Q -78.877 77.864 -78.877 77.36 L -78.877 72.634 Q -78.877 72.141 -78.955 71.906 Q -79.034 71.67 -79.274 71.598 Q -79.515 71.525 -80.008 71.525 L -80.008 71.099 L -76.749 71.099 Q -75.114 71.099 -74.391 71.609 Q -73.669 72.118 -73.669 73.048 Q -73.669 73.81 -74.139 74.196 Q -74.61 74.582 -75.371 74.784 Z M -77.701 75.198 L -77.701 75.198 L -77.701 78.446 Q -77.466 78.458 -77.236 78.458 Q -77.006 78.458 -76.782 78.458 Q -76.424 78.458 -76.043 78.418 Q -75.662 78.379 -75.338 78.228 Q -75.013 78.077 -74.817 77.752 Q -74.621 77.427 -74.621 76.867 Q -74.621 76.218 -74.929 75.859 Q -75.237 75.501 -75.735 75.35 Q -76.234 75.198 -76.805 75.198 Z M -77.701 74.616 L -77.701 74.616 L -76.805 74.616 Q -75.752 74.616 -75.343 74.246 Q -74.934 73.877 -74.934 73.126 Q -74.934 72.354 -75.422 71.995 Q -75.909 71.637 -76.973 71.637 Q -77.152 71.637 -77.331 71.642 Q -77.51 71.648 -77.701 71.659 Z " fill="black" /></g></g></g><circle cx="324.0" cy="144.0" r="2.6999999999999997" style="stroke:black;fill:black;stroke-width:2.0;stroke-dasharray:-;" /><circle cx="-90.0" cy="-1.1021821192326178e-14" r="2.6999999999999997" style="stroke:black;fill:white;stroke-width:2.0;stroke-dasharray:-;" /><g><g><g><path d="M -99.82 5.44 L -99.82 5.44 Q -101.244 5.44 -102.34 4.792 Q -103.436 4.144 -104.052 2.928 Q -104.668 1.712 -104.668 0.032 Q -104.668 -1.696 -104.028 -2.92 Q -103.388 -4.144 -102.292 -4.792 Q -101.196 -5.44 -99.804 -5.44 Q -98.62 -5.44 -97.876 -5.04 Q -97.132 -4.64 -96.652 -4.144 L -97.404 -3.264 Q -97.804 -3.68 -98.348 -3.968 Q -98.892 -4.256 -99.74 -4.256 Q -101.34 -4.256 -102.3 -3.12 Q -103.26 -1.984 -103.26 0.016 Q -103.26 1.936 -102.34 3.088 Q -101.42 4.24 -99.74 4.24 Q -98.428 4.24 -97.772 3.632 L -97.772 0.928 L -100.028 0.928 L -100.028 -0.208 L -96.524 -0.208 L -96.524 4.224 Q -97.036 4.752 -97.884 5.096 Q -98.732 5.44 -99.82 5.44 Z " fill="black" /></g></g></g><g><g><g><path d="M -35.866 55.27 L -35.866 55.27 L -35.578 55.574 Q -36.394 56.534 -37.466 57.15 Q -38.538 57.766 -40.058 57.766 Q -41.498 57.766 -42.362 57.23 Q -43.226 56.694 -43.602 55.798 Q -43.978 54.902 -43.978 53.846 Q -43.978 52.166 -43.466 50.862 Q -42.954 49.558 -42.066 48.67 Q -41.178 47.782 -40.058 47.326 Q -38.938 46.87 -37.722 46.87 Q -36.906 46.87 -36.45 47.014 Q -35.994 47.158 -35.738 47.31 Q -35.482 47.462 -35.29 47.462 Q -35.098 47.462 -34.954 47.302 Q -34.81 47.142 -34.618 46.886 L -34.154 46.886 L -34.906 50.55 L -35.434 50.55 Q -35.37 48.95 -36.026 48.254 Q -36.682 47.558 -37.866 47.558 Q -38.794 47.558 -39.61 47.982 Q -40.426 48.406 -41.058 49.182 Q -41.69 49.958 -42.05 51.038 Q -42.41 52.118 -42.41 53.446 Q -42.41 55.046 -41.65 55.886 Q -40.89 56.726 -39.306 56.726 Q -37.466 56.726 -35.866 55.27 Z " fill="black" /><path d="M -26.109 57.366 L -26.109 57.366 L -26.109 57.814 Q -26.445 57.814 -26.618 57.887 Q -26.792 57.96 -26.854 58.156 Q -26.915 58.352 -26.915 58.733 L -26.915 60.234 Q -27.307 60.469 -27.744 60.659 Q -28.181 60.85 -28.73 60.967 Q -29.278 61.085 -30.006 61.085 Q -31.899 61.085 -32.918 60.054 Q -33.938 59.024 -33.938 57.064 Q -33.938 55.754 -33.417 54.824 Q -32.896 53.894 -31.983 53.407 Q -31.07 52.92 -29.894 52.92 Q -29.234 52.92 -28.847 53.026 Q -28.461 53.133 -28.242 53.245 Q -28.024 53.357 -27.878 53.357 Q -27.755 53.357 -27.671 53.25 Q -27.587 53.144 -27.442 52.942 L -27.038 52.942 L -27.038 55.731 L -27.509 55.731 Q -27.722 54.544 -28.321 54.029 Q -28.92 53.514 -29.928 53.514 Q -30.779 53.514 -31.362 53.934 Q -31.944 54.354 -32.235 55.11 Q -32.526 55.866 -32.526 56.896 Q -32.526 58.654 -31.81 59.567 Q -31.093 60.48 -29.816 60.48 Q -29.267 60.48 -28.864 60.312 Q -28.461 60.144 -28.125 59.864 L -28.125 58.811 Q -28.125 58.397 -28.192 58.184 Q -28.259 57.971 -28.478 57.893 Q -28.696 57.814 -29.144 57.814 L -29.144 57.366 Z " fill="black" /><path d="M -19.87 55.362 L -19.87 55.362 L -20.307 55.362 Q -20.464 54.779 -20.694 54.359 Q -20.923 53.939 -21.304 53.704 Q -21.685 53.469 -22.301 53.469 Q -22.883 53.469 -23.23 53.76 Q -23.578 54.051 -23.578 54.578 Q -23.578 55.048 -23.281 55.378 Q -22.984 55.709 -22.519 55.972 Q -22.054 56.235 -21.528 56.498 Q -21.002 56.762 -20.537 57.086 Q -20.072 57.411 -19.775 57.859 Q -19.478 58.307 -19.478 58.957 Q -19.478 59.651 -19.803 60.133 Q -20.128 60.614 -20.688 60.861 Q -21.248 61.107 -21.954 61.107 Q -22.592 61.107 -22.99 61.018 Q -23.387 60.928 -23.622 60.838 Q -23.858 60.749 -24.014 60.749 Q -24.149 60.749 -24.244 60.844 Q -24.339 60.939 -24.35 61.13 L -24.843 61.13 L -24.843 58.453 L -24.406 58.453 Q -24.194 59.237 -23.93 59.685 Q -23.667 60.133 -23.253 60.318 Q -22.838 60.502 -22.189 60.502 Q -21.517 60.502 -21.114 60.239 Q -20.71 59.976 -20.71 59.27 Q -20.71 58.789 -20.996 58.453 Q -21.282 58.117 -21.735 57.854 Q -22.189 57.59 -22.698 57.333 Q -23.208 57.075 -23.662 56.762 Q -24.115 56.448 -24.401 56.006 Q -24.686 55.563 -24.686 54.925 Q -24.686 54.275 -24.362 53.833 Q -24.037 53.39 -23.505 53.166 Q -22.973 52.942 -22.357 52.942 Q -21.797 52.942 -21.478 53.038 Q -21.158 53.133 -20.979 53.228 Q -20.8 53.323 -20.677 53.323 Q -20.509 53.323 -20.425 53.25 Q -20.341 53.178 -20.296 52.976 L -19.87 52.976 Z " fill="black" /></g></g></g><circle cx="251.99999999999997" cy="108.0" r="2.6999999999999997" style="stroke:black;fill:black;stroke-width:2.0;stroke-dasharray:-;" /><circle cx="251.99999999999997" cy="180.0" r="2.6999999999999997" style="stroke:black;fill:white;stroke-width:2.0;stroke-dasharray:-;" /><g><g><g><path d="M 252.448 197.18 L 252.448 197.18 Q 251.296 197.18 250.344 196.756 Q 249.392 196.332 248.688 195.628 L 249.504 194.684 Q 250.08 195.276 250.856 195.628 Q 251.632 195.98 252.512 195.98 Q 253.536 195.98 254.12 195.516 Q 254.704 195.052 254.704 194.268 Q 254.704 193.756 254.472 193.436 Q 254.24 193.116 253.832 192.892 Q 253.424 192.668 252.912 192.46 L 251.376 191.804 Q 250.912 191.596 250.4 191.268 Q 249.888 190.94 249.544 190.42 Q 249.2 189.9 249.2 189.132 Q 249.2 188.3 249.64 187.66 Q 250.08 187.02 250.84 186.66 Q 251.6 186.3 252.56 186.3 Q 253.536 186.3 254.352 186.66 Q 255.168 187.02 255.744 187.596 L 255.024 188.476 Q 254.512 188.012 253.912 187.748 Q 253.312 187.484 252.592 187.484 Q 251.68 187.484 251.136 187.892 Q 250.592 188.3 250.592 189.004 Q 250.592 189.5 250.856 189.82 Q 251.12 190.14 251.528 190.348 Q 251.936 190.556 252.368 190.732 L 253.888 191.372 Q 254.496 191.628 255 191.988 Q 255.504 192.348 255.8 192.876 Q 256.096 193.404 256.096 194.14 Q 256.096 195.004 255.656 195.692 Q 255.216 196.38 254.4 196.78 Q 253.584 197.18 252.448 197.18 Z " fill="black" /></g></g></g><circle cx="252.0" cy="-0.0" r="2.6999999999999997" style="stroke:black;fill:black;stroke-width:2.0;stroke-dasharray:-;" /><g><g><g><path d="M 122.576 -28.614 L 122.576 -28.614 L 122.864 -28.31 Q 122.048 -27.35 120.976 -26.734 Q 119.904 -26.118 118.384 -26.118 Q 116.944 -26.118 116.08 -26.654 Q 115.216 -27.19 114.84 -28.086 Q 114.464 -28.982 114.464 -30.038 Q 114.464 -31.718 114.976 -33.022 Q 115.488 -34.326 116.376 -35.214 Q 117.264 -36.102 118.384 -36.558 Q 119.504 -37.014 120.72 -37.014 Q 121.536 -37.014 121.992 -36.87 Q 122.448 -36.726 122.704 -36.574 Q 122.96 -36.422 123.152 -36.422 Q 123.344 -36.422 123.488 -36.582 Q 123.632 -36.742 123.824 -36.998 L 124.288 -36.998 L 123.536 -33.334 L 123.008 -33.334 Q 123.072 -34.934 122.416 -35.63 Q 121.76 -36.326 120.576 -36.326 Q 119.648 -36.326 118.832 -35.902 Q 118.016 -35.478 117.384 -34.702 Q 116.752 -33.926 116.392 -32.846 Q 116.032 -31.766 116.032 -30.438 Q 116.032 -28.838 116.792 -27.998 Q 117.552 -27.158 119.136 -27.158 Q 120.976 -27.158 122.576 -28.614 Z " fill="black" /><path d="M 132.333 -26.518 L 132.333 -26.518 L 132.333 -26.07 Q 131.997 -26.07 131.824 -25.998 Q 131.65 -25.925 131.588 -25.729 Q 131.527 -25.533 131.527 -25.152 L 131.527 -23.651 Q 131.135 -23.416 130.698 -23.226 Q 130.261 -23.035 129.712 -22.918 Q 129.164 -22.8 128.436 -22.8 Q 126.543 -22.8 125.524 -23.83 Q 124.504 -24.861 124.504 -26.821 Q 124.504 -28.131 125.025 -29.061 Q 125.546 -29.99 126.459 -30.478 Q 127.372 -30.965 128.548 -30.965 Q 129.208 -30.965 129.595 -30.858 Q 129.981 -30.752 130.2 -30.64 Q 130.418 -30.528 130.564 -30.528 Q 130.687 -30.528 130.771 -30.634 Q 130.855 -30.741 131 -30.942 L 131.404 -30.942 L 131.404 -28.154 L 130.933 -28.154 Q 130.72 -29.341 130.121 -29.856 Q 129.522 -30.371 128.514 -30.371 Q 127.663 -30.371 127.08 -29.951 Q 126.498 -29.531 126.207 -28.775 Q 125.916 -28.019 125.916 -26.989 Q 125.916 -25.23 126.632 -24.318 Q 127.349 -23.405 128.626 -23.405 Q 129.175 -23.405 129.578 -23.573 Q 129.981 -23.741 130.317 -24.021 L 130.317 -25.074 Q 130.317 -25.488 130.25 -25.701 Q 130.183 -25.914 129.964 -25.992 Q 129.746 -26.07 129.298 -26.07 L 129.298 -26.518 Z " fill="black" /><path d="M 133.464 -30.808 L 133.464 -30.808 L 136.858 -30.808 Q 137.754 -30.808 138.572 -30.612 Q 139.389 -30.416 140.033 -29.968 Q 140.677 -29.52 141.052 -28.77 Q 141.428 -28.019 141.428 -26.899 Q 141.428 -25.846 141.086 -25.09 Q 140.744 -24.334 140.128 -23.858 Q 139.512 -23.382 138.695 -23.158 Q 137.877 -22.934 136.925 -22.934 L 133.464 -22.934 L 133.464 -23.36 Q 133.991 -23.36 134.237 -23.438 Q 134.484 -23.517 134.556 -23.758 Q 134.629 -23.998 134.629 -24.491 L 134.629 -29.352 Q 134.629 -29.811 134.523 -30.03 Q 134.416 -30.248 134.164 -30.315 Q 133.912 -30.382 133.464 -30.382 Z M 135.828 -30.248 L 135.828 -30.248 L 135.828 -23.472 Q 136.007 -23.461 136.18 -23.455 Q 136.354 -23.45 136.522 -23.45 Q 137.631 -23.45 138.409 -23.741 Q 139.188 -24.032 139.596 -24.76 Q 140.005 -25.488 140.005 -26.798 Q 140.005 -28.478 139.148 -29.369 Q 138.292 -30.259 136.432 -30.259 Q 136.276 -30.259 136.13 -30.259 Q 135.984 -30.259 135.828 -30.248 Z " fill="black" /></g></g></g><g><g><g><path d="M 19.584 55.992 L 19.584 55.992 L 20.896 49.688 Q 21.04 49.064 21.032 48.704 Q 21.024 48.344 20.736 48.2 Q 20.448 48.056 19.712 48.056 L 19.808 47.576 L 24.24 47.576 L 24.144 48.056 Q 23.44 48.056 23.088 48.2 Q 22.736 48.344 22.592 48.704 Q 22.448 49.064 22.32 49.688 L 21.008 56.056 Q 20.96 56.312 20.928 56.52 Q 20.896 56.728 20.896 56.904 Q 20.896 57.352 21.16 57.48 Q 21.424 57.608 22.176 57.608 L 22.08 58.088 L 17.712 58.088 L 17.808 57.608 Q 18.464 57.608 18.792 57.496 Q 19.12 57.384 19.28 57.04 Q 19.44 56.696 19.584 55.992 Z " fill="black" /><path d="M 24.867 53.574 L 24.867 53.574 L 28.261 53.574 Q 29.157 53.574 29.974 53.77 Q 30.792 53.966 31.436 54.414 Q 32.08 54.862 32.455 55.613 Q 32.83 56.363 32.83 57.483 Q 32.83 58.536 32.489 59.292 Q 32.147 60.048 31.531 60.524 Q 30.915 61 30.098 61.224 Q 29.28 61.448 28.328 61.448 L 24.867 61.448 L 24.867 61.022 Q 25.394 61.022 25.64 60.944 Q 25.886 60.866 25.959 60.625 Q 26.032 60.384 26.032 59.891 L 26.032 55.03 Q 26.032 54.571 25.926 54.353 Q 25.819 54.134 25.567 54.067 Q 25.315 54 24.867 54 Z M 27.23 54.134 L 27.23 54.134 L 27.23 60.91 Q 27.41 60.922 27.583 60.927 Q 27.757 60.933 27.925 60.933 Q 29.034 60.933 29.812 60.642 Q 30.59 60.35 30.999 59.622 Q 31.408 58.894 31.408 57.584 Q 31.408 55.904 30.551 55.014 Q 29.694 54.123 27.835 54.123 Q 27.678 54.123 27.533 54.123 Q 27.387 54.123 27.23 54.134 Z " fill="black" /><path d="M 39.293 55.859 L 39.293 55.859 L 38.856 55.859 Q 38.699 55.277 38.47 54.857 Q 38.24 54.437 37.859 54.202 Q 37.478 53.966 36.862 53.966 Q 36.28 53.966 35.933 54.258 Q 35.586 54.549 35.586 55.075 Q 35.586 55.546 35.882 55.876 Q 36.179 56.206 36.644 56.47 Q 37.109 56.733 37.635 56.996 Q 38.162 57.259 38.626 57.584 Q 39.091 57.909 39.388 58.357 Q 39.685 58.805 39.685 59.454 Q 39.685 60.149 39.36 60.63 Q 39.035 61.112 38.475 61.358 Q 37.915 61.605 37.21 61.605 Q 36.571 61.605 36.174 61.515 Q 35.776 61.426 35.541 61.336 Q 35.306 61.246 35.149 61.246 Q 35.014 61.246 34.919 61.342 Q 34.824 61.437 34.813 61.627 L 34.32 61.627 L 34.32 58.95 L 34.757 58.95 Q 34.97 59.734 35.233 60.182 Q 35.496 60.63 35.91 60.815 Q 36.325 61 36.974 61 Q 37.646 61 38.05 60.737 Q 38.453 60.474 38.453 59.768 Q 38.453 59.286 38.167 58.95 Q 37.882 58.614 37.428 58.351 Q 36.974 58.088 36.465 57.83 Q 35.955 57.573 35.502 57.259 Q 35.048 56.946 34.762 56.503 Q 34.477 56.061 34.477 55.422 Q 34.477 54.773 34.802 54.33 Q 35.126 53.888 35.658 53.664 Q 36.19 53.44 36.806 53.44 Q 37.366 53.44 37.686 53.535 Q 38.005 53.63 38.184 53.726 Q 38.363 53.821 38.486 53.821 Q 38.654 53.821 38.738 53.748 Q 38.822 53.675 38.867 53.474 L 39.293 53.474 Z " fill="black" /><path d="M 56.776 52.856 L 56.776 52.856 L 47.24 52.856 L 47.24 51.768 L 56.776 51.768 Z M 56.776 56.12 L 56.776 56.12 L 47.24 56.12 L 47.24 55.048 L 56.776 55.048 Z " fill="black" /><path d="M 66.732 50.616 L 66.732 50.616 L 68.108 50.616 Q 68.252 49.944 68.42 49.32 Q 68.588 48.696 68.86 48.2 Q 69.068 47.816 69.372 47.48 Q 69.676 47.144 70.148 46.928 Q 70.62 46.712 71.308 46.712 Q 72.044 46.712 72.436 47.04 Q 72.828 47.368 72.828 47.88 Q 72.828 48.232 72.636 48.408 Q 72.444 48.584 72.188 48.584 Q 71.868 48.584 71.724 48.4 Q 71.58 48.216 71.548 47.96 Q 71.5 47.656 71.428 47.416 Q 71.356 47.176 71.068 47.176 Q 70.46 47.176 70.124 47.816 Q 69.788 48.456 69.612 49.48 L 69.42 50.616 L 70.94 50.616 L 70.844 51.272 L 69.34 51.272 L 68.428 56.728 Q 68.364 57.144 68.228 57.768 Q 68.092 58.392 67.852 59.072 Q 67.612 59.752 67.268 60.344 Q 66.924 60.936 66.428 61.312 Q 65.932 61.688 65.276 61.688 Q 64.508 61.688 64.18 61.32 Q 63.852 60.952 63.852 60.536 Q 63.852 60.2 64.02 59.976 Q 64.188 59.752 64.492 59.752 Q 64.86 59.752 64.988 59.968 Q 65.116 60.184 65.148 60.464 Q 65.18 60.744 65.244 60.96 Q 65.308 61.176 65.532 61.176 Q 65.852 61.176 66.092 60.76 Q 66.332 60.344 66.508 59.728 Q 66.684 59.112 66.796 58.504 Q 66.908 57.896 66.972 57.496 L 68.012 51.272 L 66.668 51.272 Z " fill="black" /><path d="M 73.644 53.768 L 73.644 53.768 Q 73.644 51.096 74.804 49.208 Q 75.964 47.32 77.9 46.312 L 78.156 46.728 Q 76.412 47.912 75.684 49.616 Q 74.956 51.32 74.956 53.768 Q 74.956 56.216 75.684 57.92 Q 76.412 59.624 78.156 60.808 L 77.9 61.224 Q 75.964 60.216 74.804 58.328 Q 73.644 56.44 73.644 53.768 Z " fill="black" /><path d="M 94.796 47.576 L 94.796 47.576 L 94.748 48.056 Q 94.172 48.072 93.82 48.312 Q 93.468 48.552 93.052 49.16 L 87.42 58.184 L 86.956 58.184 L 86.428 51.96 L 86.364 51.96 L 82.252 58.184 L 81.804 58.184 L 81.02 49.496 Q 80.956 48.712 80.684 48.384 Q 80.412 48.056 79.724 48.056 L 79.804 47.576 L 83.804 47.576 L 83.724 48.056 Q 83.036 48.056 82.764 48.192 Q 82.492 48.328 82.46 48.648 Q 82.46 48.68 82.46 48.744 Q 82.46 48.872 82.46 49.056 Q 82.46 49.24 82.492 49.464 L 82.908 53.976 L 82.988 55.512 L 83.084 55.512 L 86.316 50.824 L 86.204 49.56 Q 86.14 48.872 86.036 48.552 Q 85.932 48.232 85.7 48.144 Q 85.468 48.056 85.004 48.056 L 85.084 47.576 L 89.164 47.576 L 89.084 48.056 Q 88.204 48.056 87.908 48.344 Q 87.612 48.632 87.676 49.528 L 88.06 53.848 L 88.124 55.48 L 88.204 55.48 L 91.612 50.12 Q 91.868 49.72 92.092 49.288 Q 92.316 48.856 92.316 48.504 Q 92.316 48.264 92.14 48.16 Q 91.964 48.056 91.436 48.056 L 91.532 47.576 Z " fill="black" /><path d="M 95.916 60.2 L 95.916 60.2 L 95.724 59.8 Q 96.028 59.672 96.332 59.472 Q 96.636 59.272 96.844 58.888 Q 97.052 58.504 97.052 57.864 Q 96.796 57.96 96.556 57.96 Q 96.092 57.96 95.884 57.704 Q 95.676 57.448 95.676 57.096 Q 95.676 56.712 95.932 56.432 Q 96.188 56.152 96.668 56.152 Q 97.276 56.152 97.588 56.528 Q 97.9 56.904 97.9 57.56 Q 97.9 58.232 97.684 58.696 Q 97.468 59.16 97.148 59.448 Q 96.828 59.736 96.492 59.912 Q 96.156 60.088 95.916 60.2 Z " fill="black" /><path d="M 114.69 54.968 L 114.69 54.968 L 113.73 58.088 L 105.826 58.088 L 105.922 57.608 Q 106.546 57.608 106.874 57.496 Q 107.202 57.384 107.378 57.064 Q 107.554 56.744 107.682 56.104 L 109.058 49.432 Q 109.17 48.904 109.138 48.6 Q 109.106 48.296 108.81 48.176 Q 108.514 48.056 107.826 48.056 L 107.922 47.576 L 112.466 47.576 L 112.386 48.056 Q 111.522 48.056 111.09 48.32 Q 110.658 48.584 110.482 49.448 L 109.026 56.616 Q 108.914 57.144 109.138 57.312 Q 109.362 57.48 110.066 57.48 L 110.818 57.48 Q 111.586 57.48 112.066 57.344 Q 112.546 57.208 112.882 56.92 Q 113.218 56.632 113.514 56.144 Q 113.81 55.656 114.178 54.968 Z " fill="black" /><path d="M 116.258 60.2 L 116.258 60.2 L 116.066 59.8 Q 116.37 59.672 116.674 59.472 Q 116.978 59.272 117.186 58.888 Q 117.394 58.504 117.394 57.864 Q 117.138 57.96 116.898 57.96 Q 116.434 57.96 116.226 57.704 Q 116.018 57.448 116.018 57.096 Q 116.018 56.712 116.274 56.432 Q 116.53 56.152 117.01 56.152 Q 117.618 56.152 117.93 56.528 Q 118.242 56.904 118.242 57.56 Q 118.242 58.232 118.026 58.696 Q 117.81 59.16 117.49 59.448 Q 117.17 59.736 116.834 59.912 Q 116.498 60.088 116.258 60.2 Z " fill="black" /><path d="M 130.599 56.088 L 130.599 56.088 L 134.967 49.528 Q 135.191 49.208 135.327 48.936 Q 135.463 48.664 135.463 48.472 Q 135.463 48.232 135.255 48.144 Q 135.047 48.056 134.503 48.056 L 134.535 47.576 L 137.991 47.576 L 137.959 48.056 Q 137.527 48.056 137.223 48.184 Q 136.919 48.312 136.607 48.672 Q 136.295 49.032 135.799 49.768 L 129.927 58.168 L 129.399 58.168 L 128.503 49.512 Q 128.407 48.712 128.151 48.384 Q 127.895 48.056 127.255 48.056 L 127.287 47.576 L 131.207 47.576 L 131.159 48.056 Q 130.551 48.056 130.199 48.296 Q 129.847 48.536 129.879 49.08 Q 129.879 49.16 129.903 49.368 Q 129.927 49.576 129.927 49.656 L 130.407 54.216 L 130.519 56.088 Z " fill="black" /><path d="M 144.66 57.864 L 144.66 57.864 L 144.66 58.312 Q 144.324 58.312 144.15 58.385 Q 143.977 58.458 143.915 58.654 Q 143.853 58.85 143.853 59.23 L 143.853 60.731 Q 143.461 60.966 143.025 61.157 Q 142.588 61.347 142.039 61.465 Q 141.49 61.582 140.762 61.582 Q 138.869 61.582 137.85 60.552 Q 136.831 59.522 136.831 57.562 Q 136.831 56.251 137.352 55.322 Q 137.873 54.392 138.785 53.905 Q 139.698 53.418 140.874 53.418 Q 141.535 53.418 141.921 53.524 Q 142.308 53.63 142.526 53.742 Q 142.745 53.854 142.89 53.854 Q 143.013 53.854 143.097 53.748 Q 143.181 53.642 143.327 53.44 L 143.73 53.44 L 143.73 56.229 L 143.26 56.229 Q 143.047 55.042 142.448 54.526 Q 141.849 54.011 140.841 54.011 Q 139.989 54.011 139.407 54.431 Q 138.825 54.851 138.533 55.607 Q 138.242 56.363 138.242 57.394 Q 138.242 59.152 138.959 60.065 Q 139.676 60.978 140.953 60.978 Q 141.501 60.978 141.905 60.81 Q 142.308 60.642 142.644 60.362 L 142.644 59.309 Q 142.644 58.894 142.577 58.682 Q 142.509 58.469 142.291 58.39 Q 142.073 58.312 141.625 58.312 L 141.625 57.864 Z " fill="black" /><path d="M 150.898 55.859 L 150.898 55.859 L 150.461 55.859 Q 150.305 55.277 150.075 54.857 Q 149.845 54.437 149.465 54.202 Q 149.084 53.966 148.468 53.966 Q 147.885 53.966 147.538 54.258 Q 147.191 54.549 147.191 55.075 Q 147.191 55.546 147.488 55.876 Q 147.785 56.206 148.249 56.47 Q 148.714 56.733 149.241 56.996 Q 149.767 57.259 150.232 57.584 Q 150.697 57.909 150.993 58.357 Q 151.29 58.805 151.29 59.454 Q 151.29 60.149 150.965 60.63 Q 150.641 61.112 150.081 61.358 Q 149.521 61.605 148.815 61.605 Q 148.177 61.605 147.779 61.515 Q 147.381 61.426 147.146 61.336 Q 146.911 61.246 146.754 61.246 Q 146.62 61.246 146.525 61.342 Q 146.429 61.437 146.418 61.627 L 145.925 61.627 L 145.925 58.95 L 146.362 58.95 Q 146.575 59.734 146.838 60.182 Q 147.101 60.63 147.516 60.815 Q 147.93 61 148.58 61 Q 149.252 61 149.655 60.737 Q 150.058 60.474 150.058 59.768 Q 150.058 59.286 149.773 58.95 Q 149.487 58.614 149.033 58.351 Q 148.58 58.088 148.07 57.83 Q 147.561 57.573 147.107 57.259 Q 146.653 56.946 146.368 56.503 Q 146.082 56.061 146.082 55.422 Q 146.082 54.773 146.407 54.33 Q 146.732 53.888 147.264 53.664 Q 147.796 53.44 148.412 53.44 Q 148.972 53.44 149.291 53.535 Q 149.61 53.63 149.789 53.726 Q 149.969 53.821 150.092 53.821 Q 150.26 53.821 150.344 53.748 Q 150.428 53.675 150.473 53.474 L 150.898 53.474 Z " fill="black" /><path d="M 153.049 60.2 L 153.049 60.2 L 152.857 59.8 Q 153.161 59.672 153.465 59.472 Q 153.769 59.272 153.977 58.888 Q 154.185 58.504 154.185 57.864 Q 153.929 57.96 153.689 57.96 Q 153.225 57.96 153.017 57.704 Q 152.809 57.448 152.809 57.096 Q 152.809 56.712 153.065 56.432 Q 153.321 56.152 153.801 56.152 Q 154.409 56.152 154.721 56.528 Q 155.033 56.904 155.033 57.56 Q 155.033 58.232 154.817 58.696 Q 154.601 59.16 154.281 59.448 Q 153.961 59.736 153.625 59.912 Q 153.289 60.088 153.049 60.2 Z " fill="black" /><path d="M 167.39 56.088 L 167.39 56.088 L 171.758 49.528 Q 171.982 49.208 172.118 48.936 Q 172.254 48.664 172.254 48.472 Q 172.254 48.232 172.046 48.144 Q 171.838 48.056 171.294 48.056 L 171.326 47.576 L 174.782 47.576 L 174.75 48.056 Q 174.318 48.056 174.014 48.184 Q 173.71 48.312 173.398 48.672 Q 173.086 49.032 172.59 49.768 L 166.718 58.168 L 166.19 58.168 L 165.294 49.512 Q 165.198 48.712 164.942 48.384 Q 164.686 48.056 164.046 48.056 L 164.078 47.576 L 167.998 47.576 L 167.95 48.056 Q 167.342 48.056 166.99 48.296 Q 166.638 48.536 166.67 49.08 Q 166.67 49.16 166.694 49.368 Q 166.718 49.576 166.718 49.656 L 167.198 54.216 L 167.31 56.088 Z " fill="black" /><path d="M 173.521 53.574 L 173.521 53.574 L 176.915 53.574 Q 177.811 53.574 178.628 53.77 Q 179.446 53.966 180.09 54.414 Q 180.734 54.862 181.109 55.613 Q 181.484 56.363 181.484 57.483 Q 181.484 58.536 181.143 59.292 Q 180.801 60.048 180.185 60.524 Q 179.569 61 178.751 61.224 Q 177.934 61.448 176.982 61.448 L 173.521 61.448 L 173.521 61.022 Q 174.047 61.022 174.294 60.944 Q 174.54 60.866 174.613 60.625 Q 174.686 60.384 174.686 59.891 L 174.686 55.03 Q 174.686 54.571 174.579 54.353 Q 174.473 54.134 174.221 54.067 Q 173.969 54 173.521 54 Z M 175.884 54.134 L 175.884 54.134 L 175.884 60.91 Q 176.063 60.922 176.237 60.927 Q 176.411 60.933 176.579 60.933 Q 177.687 60.933 178.466 60.642 Q 179.244 60.35 179.653 59.622 Q 180.062 58.894 180.062 57.584 Q 180.062 55.904 179.205 55.014 Q 178.348 54.123 176.489 54.123 Q 176.332 54.123 176.187 54.123 Q 176.041 54.123 175.884 54.134 Z " fill="black" /><path d="M 187.947 55.859 L 187.947 55.859 L 187.51 55.859 Q 187.353 55.277 187.123 54.857 Q 186.894 54.437 186.513 54.202 Q 186.132 53.966 185.516 53.966 Q 184.934 53.966 184.587 54.258 Q 184.239 54.549 184.239 55.075 Q 184.239 55.546 184.536 55.876 Q 184.833 56.206 185.298 56.47 Q 185.763 56.733 186.289 56.996 Q 186.815 57.259 187.28 57.584 Q 187.745 57.909 188.042 58.357 Q 188.339 58.805 188.339 59.454 Q 188.339 60.149 188.014 60.63 Q 187.689 61.112 187.129 61.358 Q 186.569 61.605 185.863 61.605 Q 185.225 61.605 184.827 61.515 Q 184.43 61.426 184.195 61.336 Q 183.959 61.246 183.803 61.246 Q 183.668 61.246 183.573 61.342 Q 183.478 61.437 183.467 61.627 L 182.974 61.627 L 182.974 58.95 L 183.411 58.95 Q 183.623 59.734 183.887 60.182 Q 184.15 60.63 184.564 60.815 Q 184.979 61 185.628 61 Q 186.3 61 186.703 60.737 Q 187.107 60.474 187.107 59.768 Q 187.107 59.286 186.821 58.95 Q 186.535 58.614 186.082 58.351 Q 185.628 58.088 185.119 57.83 Q 184.609 57.573 184.155 57.259 Q 183.702 56.946 183.416 56.503 Q 183.131 56.061 183.131 55.422 Q 183.131 54.773 183.455 54.33 Q 183.78 53.888 184.312 53.664 Q 184.844 53.44 185.46 53.44 Q 186.02 53.44 186.339 53.535 Q 186.659 53.63 186.838 53.726 Q 187.017 53.821 187.14 53.821 Q 187.308 53.821 187.392 53.748 Q 187.476 53.675 187.521 53.474 L 187.947 53.474 Z " fill="black" /><path d="M 190.097 60.2 L 190.097 60.2 L 189.905 59.8 Q 190.209 59.672 190.513 59.472 Q 190.817 59.272 191.025 58.888 Q 191.233 58.504 191.233 57.864 Q 190.977 57.96 190.737 57.96 Q 190.273 57.96 190.065 57.704 Q 189.857 57.448 189.857 57.096 Q 189.857 56.712 190.113 56.432 Q 190.369 56.152 190.849 56.152 Q 191.457 56.152 191.769 56.528 Q 192.081 56.904 192.081 57.56 Q 192.081 58.232 191.865 58.696 Q 191.649 59.16 191.329 59.448 Q 191.009 59.736 190.673 59.912 Q 190.337 60.088 190.097 60.2 Z " fill="black" /><path d="M 204.438 56.088 L 204.438 56.088 L 208.806 49.528 Q 209.03 49.208 209.166 48.936 Q 209.302 48.664 209.302 48.472 Q 209.302 48.232 209.094 48.144 Q 208.886 48.056 208.342 48.056 L 208.374 47.576 L 211.83 47.576 L 211.798 48.056 Q 211.366 48.056 211.062 48.184 Q 210.758 48.312 210.446 48.672 Q 210.134 49.032 209.638 49.768 L 203.766 58.168 L 203.238 58.168 L 202.342 49.512 Q 202.246 48.712 201.99 48.384 Q 201.734 48.056 201.094 48.056 L 201.126 47.576 L 205.046 47.576 L 204.998 48.056 Q 204.39 48.056 204.038 48.296 Q 203.686 48.536 203.718 49.08 Q 203.718 49.16 203.742 49.368 Q 203.766 49.576 203.766 49.656 L 204.246 54.216 L 204.358 56.088 Z " fill="black" /><path d="M 215.677 55.859 L 215.677 55.859 L 215.24 55.859 Q 215.083 55.277 214.854 54.857 Q 214.624 54.437 214.243 54.202 Q 213.862 53.966 213.246 53.966 Q 212.664 53.966 212.317 54.258 Q 211.97 54.549 211.97 55.075 Q 211.97 55.546 212.266 55.876 Q 212.563 56.206 213.028 56.47 Q 213.493 56.733 214.019 56.996 Q 214.546 57.259 215.01 57.584 Q 215.475 57.909 215.772 58.357 Q 216.069 58.805 216.069 59.454 Q 216.069 60.149 215.744 60.63 Q 215.419 61.112 214.859 61.358 Q 214.299 61.605 213.594 61.605 Q 212.955 61.605 212.558 61.515 Q 212.16 61.426 211.925 61.336 Q 211.69 61.246 211.533 61.246 Q 211.398 61.246 211.303 61.342 Q 211.208 61.437 211.197 61.627 L 210.704 61.627 L 210.704 58.95 L 211.141 58.95 Q 211.354 59.734 211.617 60.182 Q 211.88 60.63 212.294 60.815 Q 212.709 61 213.358 61 Q 214.03 61 214.434 60.737 Q 214.837 60.474 214.837 59.768 Q 214.837 59.286 214.551 58.95 Q 214.266 58.614 213.812 58.351 Q 213.358 58.088 212.849 57.83 Q 212.339 57.573 211.886 57.259 Q 211.432 56.946 211.146 56.503 Q 210.861 56.061 210.861 55.422 Q 210.861 54.773 211.186 54.33 Q 211.51 53.888 212.042 53.664 Q 212.574 53.44 213.19 53.44 Q 213.75 53.44 214.07 53.535 Q 214.389 53.63 214.568 53.726 Q 214.747 53.821 214.87 53.821 Q 215.038 53.821 215.122 53.748 Q 215.206 53.675 215.251 53.474 L 215.677 53.474 Z " fill="black" /><path d="M 221.949 57.259 L 221.949 57.259 L 221.949 57.326 Q 222.475 57.405 222.957 57.634 Q 223.438 57.864 223.752 58.278 Q 224.066 58.693 224.066 59.331 Q 224.066 60.362 223.282 60.905 Q 222.498 61.448 221.176 61.448 L 217.312 61.448 L 217.312 61.022 Q 217.816 61.022 218.057 60.938 Q 218.298 60.854 218.37 60.597 Q 218.443 60.339 218.443 59.835 L 218.443 55.109 Q 218.443 54.616 218.365 54.381 Q 218.286 54.146 218.046 54.073 Q 217.805 54 217.312 54 L 217.312 53.574 L 220.571 53.574 Q 222.206 53.574 222.929 54.084 Q 223.651 54.594 223.651 55.523 Q 223.651 56.285 223.181 56.671 Q 222.71 57.058 221.949 57.259 Z M 219.619 57.674 L 219.619 57.674 L 219.619 60.922 Q 219.854 60.933 220.084 60.933 Q 220.314 60.933 220.538 60.933 Q 220.896 60.933 221.277 60.894 Q 221.658 60.854 221.982 60.703 Q 222.307 60.552 222.503 60.227 Q 222.699 59.902 222.699 59.342 Q 222.699 58.693 222.391 58.334 Q 222.083 57.976 221.585 57.825 Q 221.086 57.674 220.515 57.674 Z M 219.619 57.091 L 219.619 57.091 L 220.515 57.091 Q 221.568 57.091 221.977 56.722 Q 222.386 56.352 222.386 55.602 Q 222.386 54.829 221.898 54.47 Q 221.411 54.112 220.347 54.112 Q 220.168 54.112 219.989 54.118 Q 219.81 54.123 219.619 54.134 Z " fill="black" /><path d="M 229.472 53.768 L 229.472 53.768 Q 229.472 56.44 228.312 58.328 Q 227.152 60.216 225.216 61.224 L 224.96 60.808 Q 226.72 59.624 227.44 57.92 Q 228.16 56.216 228.16 53.768 Q 228.16 51.32 227.44 49.616 Q 226.72 47.912 224.96 46.728 L 225.216 46.312 Q 227.152 47.32 228.312 49.208 Q 229.472 51.096 229.472 53.768 Z " fill="black" /></g></g></g><circle cx="324.0" cy="-0.0" r="2.6999999999999997" style="stroke:black;fill:black;stroke-width:2.0;stroke-dasharray:-;" /><circle cx="324.0" cy="108.0" r="2.6999999999999997" style="stroke:black;fill:black;stroke-width:2.0;stroke-dasharray:-;" /><g><g><g><path d="M 286.869 56.71 L 286.869 56.71 L 287.157 57.014 Q 286.341 57.974 285.269 58.59 Q 284.197 59.206 282.677 59.206 Q 281.237 59.206 280.373 58.67 Q 279.509 58.134 279.133 57.238 Q 278.757 56.342 278.757 55.286 Q 278.757 53.606 279.269 52.302 Q 279.781 50.998 280.669 50.11 Q 281.557 49.222 282.677 48.766 Q 283.797 48.31 285.013 48.31 Q 285.829 48.31 286.285 48.454 Q 286.741 48.598 286.997 48.75 Q 287.253 48.902 287.445 48.902 Q 287.637 48.902 287.781 48.742 Q 287.925 48.582 288.117 48.326 L 288.581 48.326 L 287.829 51.99 L 287.301 51.99 Q 287.365 50.39 286.709 49.694 Q 286.053 48.998 284.869 48.998 Q 283.941 48.998 283.125 49.422 Q 282.309 49.846 281.677 50.622 Q 281.045 51.398 280.685 52.478 Q 280.325 53.558 280.325 54.886 Q 280.325 56.486 281.085 57.326 Q 281.845 58.166 283.429 58.166 Q 285.269 58.166 286.869 56.71 Z " fill="black" /><path d="M 288.696 54.516 L 288.696 54.516 L 292.09 54.516 Q 292.986 54.516 293.803 54.712 Q 294.621 54.908 295.265 55.356 Q 295.909 55.804 296.284 56.555 Q 296.659 57.305 296.659 58.425 Q 296.659 59.478 296.318 60.234 Q 295.976 60.99 295.36 61.466 Q 294.744 61.942 293.926 62.166 Q 293.109 62.39 292.157 62.39 L 288.696 62.39 L 288.696 61.964 Q 289.222 61.964 289.469 61.886 Q 289.715 61.808 289.788 61.567 Q 289.861 61.326 289.861 60.833 L 289.861 55.972 Q 289.861 55.513 289.754 55.295 Q 289.648 55.076 289.396 55.009 Q 289.144 54.942 288.696 54.942 Z M 291.059 55.076 L 291.059 55.076 L 291.059 61.852 Q 291.238 61.864 291.412 61.869 Q 291.586 61.875 291.754 61.875 Q 292.862 61.875 293.641 61.584 Q 294.419 61.292 294.828 60.564 Q 295.237 59.836 295.237 58.526 Q 295.237 56.846 294.38 55.956 Q 293.523 55.065 291.664 55.065 Q 291.507 55.065 291.362 55.065 Q 291.216 55.065 291.059 55.076 Z " fill="black" /><path d="M 302.629 58.201 L 302.629 58.201 L 302.629 58.268 Q 303.155 58.347 303.637 58.576 Q 304.118 58.806 304.432 59.22 Q 304.746 59.635 304.746 60.273 Q 304.746 61.304 303.962 61.847 Q 303.178 62.39 301.856 62.39 L 297.992 62.39 L 297.992 61.964 Q 298.496 61.964 298.737 61.88 Q 298.978 61.796 299.05 61.539 Q 299.123 61.281 299.123 60.777 L 299.123 56.051 Q 299.123 55.558 299.045 55.323 Q 298.966 55.088 298.726 55.015 Q 298.485 54.942 297.992 54.942 L 297.992 54.516 L 301.251 54.516 Q 302.886 54.516 303.609 55.026 Q 304.331 55.536 304.331 56.465 Q 304.331 57.227 303.861 57.613 Q 303.39 58 302.629 58.201 Z M 300.299 58.616 L 300.299 58.616 L 300.299 61.864 Q 300.534 61.875 300.764 61.875 Q 300.994 61.875 301.218 61.875 Q 301.576 61.875 301.957 61.836 Q 302.338 61.796 302.662 61.645 Q 302.987 61.494 303.183 61.169 Q 303.379 60.844 303.379 60.284 Q 303.379 59.635 303.071 59.276 Q 302.763 58.918 302.265 58.767 Q 301.766 58.616 301.195 58.616 Z M 300.299 58.033 L 300.299 58.033 L 301.195 58.033 Q 302.248 58.033 302.657 57.664 Q 303.066 57.294 303.066 56.544 Q 303.066 55.771 302.578 55.412 Q 302.091 55.054 301.027 55.054 Q 300.848 55.054 300.669 55.06 Q 300.49 55.065 300.299 55.076 Z " fill="black" /></g></g></g><g><g><g><path d="M 285.147 82.341 L 285.147 82.341 L 285.435 82.645 Q 284.619 83.605 283.547 84.221 Q 282.475 84.837 280.955 84.837 Q 279.515 84.837 278.651 84.301 Q 277.787 83.765 277.411 82.869 Q 277.035 81.973 277.035 80.917 Q 277.035 79.237 277.547 77.933 Q 278.059 76.629 278.947 75.741 Q 279.835 74.853 280.955 74.397 Q 282.075 73.941 283.291 73.941 Q 284.107 73.941 284.563 74.085 Q 285.019 74.229 285.275 74.381 Q 285.531 74.533 285.723 74.533 Q 285.915 74.533 286.059 74.373 Q 286.203 74.213 286.395 73.957 L 286.859 73.957 L 286.107 77.621 L 285.579 77.621 Q 285.643 76.021 284.987 75.325 Q 284.331 74.629 283.147 74.629 Q 282.219 74.629 281.403 75.053 Q 280.587 75.477 279.955 76.253 Q 279.323 77.029 278.963 78.109 Q 278.603 79.189 278.603 80.517 Q 278.603 82.117 279.363 82.957 Q 280.123 83.797 281.707 83.797 Q 283.547 83.797 285.147 82.341 Z " fill="black" /><path d="M 292.082 82.432 L 292.082 82.432 L 291.645 82.432 Q 291.488 81.85 291.258 81.43 Q 291.029 81.01 290.648 80.774 Q 290.267 80.539 289.651 80.539 Q 289.069 80.539 288.722 80.83 Q 288.374 81.122 288.374 81.648 Q 288.374 82.118 288.671 82.449 Q 288.968 82.779 289.433 83.042 Q 289.898 83.306 290.424 83.569 Q 290.95 83.832 291.415 84.157 Q 291.88 84.482 292.177 84.93 Q 292.474 85.378 292.474 86.027 Q 292.474 86.722 292.149 87.203 Q 291.824 87.685 291.264 87.931 Q 290.704 88.178 289.998 88.178 Q 289.36 88.178 288.962 88.088 Q 288.565 87.998 288.33 87.909 Q 288.094 87.819 287.938 87.819 Q 287.803 87.819 287.708 87.914 Q 287.613 88.01 287.602 88.2 L 287.109 88.2 L 287.109 85.523 L 287.546 85.523 Q 287.758 86.307 288.022 86.755 Q 288.285 87.203 288.699 87.388 Q 289.114 87.573 289.763 87.573 Q 290.435 87.573 290.838 87.31 Q 291.242 87.046 291.242 86.341 Q 291.242 85.859 290.956 85.523 Q 290.67 85.187 290.217 84.924 Q 289.763 84.661 289.254 84.403 Q 288.744 84.146 288.29 83.832 Q 287.837 83.518 287.551 83.076 Q 287.266 82.634 287.266 81.995 Q 287.266 81.346 287.59 80.903 Q 287.915 80.461 288.447 80.237 Q 288.979 80.013 289.595 80.013 Q 290.155 80.013 290.474 80.108 Q 290.794 80.203 290.973 80.298 Q 291.152 80.394 291.275 80.394 Q 291.443 80.394 291.527 80.321 Q 291.611 80.248 291.656 80.046 L 292.082 80.046 Z " fill="black" /><path d="M 298.354 83.832 L 298.354 83.832 L 298.354 83.899 Q 298.88 83.978 299.362 84.207 Q 299.843 84.437 300.157 84.851 Q 300.47 85.266 300.47 85.904 Q 300.47 86.934 299.686 87.478 Q 298.902 88.021 297.581 88.021 L 293.717 88.021 L 293.717 87.595 Q 294.221 87.595 294.462 87.511 Q 294.702 87.427 294.775 87.17 Q 294.848 86.912 294.848 86.408 L 294.848 81.682 Q 294.848 81.189 294.77 80.954 Q 294.691 80.718 294.45 80.646 Q 294.21 80.573 293.717 80.573 L 293.717 80.147 L 296.976 80.147 Q 298.611 80.147 299.334 80.657 Q 300.056 81.166 300.056 82.096 Q 300.056 82.858 299.586 83.244 Q 299.115 83.63 298.354 83.832 Z M 296.024 84.246 L 296.024 84.246 L 296.024 87.494 Q 296.259 87.506 296.489 87.506 Q 296.718 87.506 296.942 87.506 Q 297.301 87.506 297.682 87.466 Q 298.062 87.427 298.387 87.276 Q 298.712 87.125 298.908 86.8 Q 299.104 86.475 299.104 85.915 Q 299.104 85.266 298.796 84.907 Q 298.488 84.549 297.99 84.398 Q 297.491 84.246 296.92 84.246 Z M 296.024 83.664 L 296.024 83.664 L 296.92 83.664 Q 297.973 83.664 298.382 83.294 Q 298.79 82.925 298.79 82.174 Q 298.79 81.402 298.303 81.043 Q 297.816 80.685 296.752 80.685 Q 296.573 80.685 296.394 80.69 Q 296.214 80.696 296.024 80.707 Z " fill="black" /></g></g></g><circle cx="324.0" cy="180.0" r="2.6999999999999997" style="stroke:black;fill:white;stroke-width:2.0;stroke-dasharray:-;" /><g><g><g><path d="M 321.4 196.812 L 321.4 196.812 L 321.4 186.3 L 324.584 186.3 Q 325.688 186.3 326.52 186.556 Q 327.352 186.812 327.816 187.372 Q 328.28 187.932 328.28 188.828 Q 328.28 189.66 327.872 190.292 Q 327.464 190.924 326.712 191.164 L 326.712 191.228 Q 327.672 191.404 328.288 192.028 Q 328.904 192.652 328.904 193.772 Q 328.904 194.78 328.384 195.452 Q 327.864 196.124 326.952 196.468 Q 326.04 196.812 324.84 196.812 Z M 322.776 195.724 L 322.776 195.724 L 324.632 195.724 Q 326.008 195.724 326.784 195.236 Q 327.56 194.748 327.56 193.724 Q 327.56 192.732 326.816 192.276 Q 326.072 191.82 324.632 191.82 L 322.776 191.82 Z M 322.776 190.78 L 322.776 190.78 L 324.36 190.78 Q 325.752 190.78 326.344 190.308 Q 326.936 189.836 326.936 189.036 Q 326.936 188.14 326.288 187.764 Q 325.64 187.388 324.424 187.388 L 322.776 187.388 Z " fill="black" /></g></g></g><circle cx="360.0" cy="-0.0" r="2.6999999999999997" style="stroke:black;fill:white;stroke-width:2.0;stroke-dasharray:-;" /><g><g><g><path d="M 367.772 5.256 L 367.772 5.256 L 367.772 -5.256 L 370.46 -5.256 Q 372.94 -5.256 374.236 -3.904 Q 375.532 -2.552 375.532 -0.04 Q 375.532 2.472 374.244 3.864 Q 372.956 5.256 370.524 5.256 Z M 369.148 4.136 L 369.148 4.136 L 370.364 4.136 Q 372.252 4.136 373.188 3.04 Q 374.124 1.944 374.124 -0.04 Q 374.124 -2.024 373.188 -3.08 Q 372.252 -4.136 370.364 -4.136 L 369.148 -4.136 Z " fill="black" /></g></g></g></svg>