<svg xmlns="http://www.w3.org/2000/svg" xmlns:xlink="http://www.w3.org/1999/xlink" xml:lang="en" height="262.64000000000004pt" width="606.0992pt" viewBox="-124.49919999999999 -235.00000000000003 606.0992 262.64000000000004"><circle cx="2.204364238465236e-15" cy="-36.0" r="18.0" style="stroke:black;fill:none;stroke-width:2.0;stroke-dasharray:-;" /><circle cx="108.00000000000001" cy="-180.0" r="18.0" style="stroke:black;fill:none;stroke-width:2.0;stroke-dasharray:-;" /><circle cx="252.0" cy="-36.0" r="18.0" style="stroke:black;fill:none;stroke-width:2.0;stroke-dasharray:-;" /><circle cx="252.0" cy="-180.0" r="18.0" style="stroke:black;fill:none;stroke-width:2.0;stroke-dasharray:-;" /><circle cx="360.0" cy="-180.0" r="18.0" style="stroke:black;fill:none;stroke-width:2.0;stroke-dasharray:-;" /><path d="M 0.0,-0.0 L 0.0,14.4 L -9.0,14.4 L 9.0,14.4 M -6.3,18.72 L 6.3,18.72 M -1.8,23.04 L 1.8,23.04" style="stroke:black;fill:none;stroke-width:2.0;stroke-dasharray:-;stroke-linecap:round;stroke-linejoin:round;" /><path d="M 0.0,-0.0 L 1.102182119232618e-15,-18.0 L 1.102182119232618e-15,-18.0 M 3.3065463576978533e-15,-54.0 L 3.3065463576978533e-15,-54.0 L 4.408728476930472e-15,-72.0" style="stroke:black;fill:none;stroke-width:2.0;stroke-dasharray:-;stroke-linecap:round;stroke-linejoin:round;" /><path d="M 2.204364238465236e-15,-36.0 L 2.7554552980815448e-15,-45.0" style="stroke:black;fill:none;stroke-width:2.0;stroke-dasharray:-;stroke-linecap:round;stroke-linejoin:round;" /><path d="M 1.974897708784254e-15 -29.0 L -2.6999999999999966 -36.0 L 2.700000000000003 -36.0 Z" style="stroke:black;fill:black;stroke-linecap:butt;stroke-linejoin:miter;" /><path d="M 4.408728476930472e-15,-72.0 L 6.613092715395707e-15,-108.0 L 8.817456953860943e-15,-144.0" style="stroke:black;fill:none;stroke-width:2.0;stroke-dasharray:-;stroke-linecap:round;stroke-linejoin:round;" /><path d="M 8.817456953860943e-15,-144.0 L 9.919639073093561e-15,-162.0 L -8.99999999999999,-165.0 L 9.00000000000001,-171.0 L -8.99999999999999,-177.0 L 9.00000000000001,-183.0 L -8.999999999999988,-189.0 L 9.000000000000012,-194.99999999999997 L 1.2124003311558797e-14,-198.0 L 1.3226185430791413e-14,-216.0" style="stroke:black;fill:none;stroke-width:2.0;stroke-dasharray:-;stroke-linecap:round;stroke-linejoin:round;" /><path d="M 1.3226185430791413e-14,-216.0 L 1.3226185430791413e-14,-230.4" style="stroke:black;fill:none;stroke-width:2.0;stroke-dasharray:-;stroke-linecap:round;stroke-linejoin:round;" /><path d="M 1.3226185430791413e-14,-230.4 L -6.749999999999987,-230.4" style="stroke:black;fill:none;stroke-width:2.0;stroke-dasharray:-;stroke-linecap:round;stroke-linejoin:round;" /><path d="M 1.3226185430791413e-14,-230.4 L 6.750000000000013,-230.4" style="stroke:black;fill:none;stroke-width:2.0;stroke-dasharray:-;stroke-linecap:round;stroke-linejoin:round;" /><path d="M 8.817456953860943e-15,-144.0 L 54.00000000000001,-144.0 L 108.00000000000001,-144.0" style="stroke:black;fill:none;stroke-width:2.0;stroke-dasharray:-;stroke-linecap:round;stroke-linejoin:round;" /><path d="M 108.00000000000001,-144.0 L 108.00000000000001,-162.0 L 108.00000000000001,-162.0 M 108.00000000000001,-198.0 L 108.00000000000001,-198.0 L 108.00000000000001,-216.0" style="stroke:black;fill:none;stroke-width:2.0;stroke-dasharray:-;stroke-linecap:round;stroke-linejoin:round;" /><path d="M 108.00000000000001,-171.0 L 108.00000000000001,-180.0" style="stroke:black;fill:none;stroke-width:2.0;stroke-dasharray:-;stroke-linecap:round;stroke-linejoin:round;" /><path d="M 108.00000000000001 -187.0 L 110.70000000000002 -180.0 L 105.30000000000001 -180.0 Z" style="stroke:black;fill:black;stroke-linecap:butt;stroke-linejoin:miter;" /><path d="M 108.00000000000001,-216.0 L 108.00000000000001,-230.4" style="stroke:black;fill:none;stroke-width:2.0;stroke-dasharray:-;stroke-linecap:round;stroke-linejoin:round;" /><path d="M 108.00000000000001,-230.4 L 101.25000000000001,-230.4" style="stroke:black;fill:none;stroke-width:2.0;stroke-dasharray:-;stroke-linecap:round;stroke-linejoin:round;" /><path d="M 108.00000000000001,-230.4 L 114.75000000000001,-230.4" style="stroke:black;fill:none;stroke-width:2.0;stroke-dasharray:-;stroke-linecap:round;stroke-linejoin:round;" /><path d="M 252.0,-0.0 L 252.0,14.4 L 243.0,14.4 L 261.0,14.4 M 245.70000000000002,18.72 L 258.3,18.72 M 250.20000000000002,23.04 L 253.79999999999998,23.04" style="stroke:black;fill:none;stroke-width:2.0;stroke-dasharray:-;stroke-linecap:round;stroke-linejoin:round;" /><path d="M 252.0,-0.0 L 252.0,-18.0 L 252.0,-18.0 M 252.0,-54.0 L 252.0,-54.0 L 252.0,-72.0" style="stroke:black;fill:none;stroke-width:2.0;stroke-dasharray:-;stroke-linecap:round;stroke-linejoin:round;" /><path d="M 252.0,-36.0 L 252.0,-45.0" style="stroke:black;fill:none;stroke-width:2.0;stroke-dasharray:-;stroke-linecap:round;stroke-linejoin:round;" /><path d="M 252.0 -29.0 L 249.3 -36.0 L 254.7 -36.0 Z" style="stroke:black;fill:black;stroke-linecap:butt;stroke-linejoin:miter;" /><path d="M 252.0,-72.0 L 306.0,-72.0 L 360.0,-72.0" style="stroke:black;fill:none;stroke-width:2.0;stroke-dasharray:-;stroke-linecap:round;stroke-linejoin:round;" /><path d="M 360.0,-72.0 L 360.0,-108.0 L 360.0,-144.0" style="stroke:black;fill:none;stroke-width:2.0;stroke-dasharray:-;stroke-linecap:round;stroke-linejoin:round;" /><path d="M 360.0,-144.0 L 306.0,-144.0 L 252.0,-144.0" style="stroke:black;fill:none;stroke-width:2.0;stroke-dasharray:-;stroke-linecap:round;stroke-linejoin:round;" /><path d="M 252.0,-144.0 L 252.0,-162.0 L 252.0,-162.0 M 252.0,-198.0 L 252.0,-198.0 L 252.0,-216.0" style="stroke:black;fill:none;stroke-width:2.0;stroke-dasharray:-;stroke-linecap:round;stroke-linejoin:round;" /><path d="M 252.0,-171.0 L 252.0,-180.0" style="stroke:black;fill:none;stroke-width:2.0;stroke-dasharray:-;stroke-linecap:round;stroke-linejoin:round;" /><path d="M 252.0 -187.0 L 254.7 -180.0 L 249.3 -180.0 Z" style="stroke:black;fill:black;stroke-linecap:butt;stroke-linejoin:miter;" /><path d="M 252.0,-216.0 L 252.0,-230.4" style="stroke:black;fill:none;stroke-width:2.0;stroke-dasharray:-;stroke-linecap:round;stroke-linejoin:round;" /><path d="M 252.0,-230.4 L 245.25,-230.4" style="stroke:black;fill:none;stroke-width:2.0;stroke-dasharray:-;stroke-linecap:round;stroke-linejoin:round;" /><path d="M 252.0,-230.4 L 258.75,-230.4" style="stroke:black;fill:none;stroke-width:2.0;stroke-dasharray:-;stroke-linecap:round;stroke-linejoin:round;" /><path d="M 360.0,-144.0 L 360.0,-162.0 L 360.0,-162.0 M 360.0,-198.0 L 360.0,-198.0 L 360.0,-216.0" style="stroke:black;fill:none;stroke-width:2.0;stroke-dasharray:-;stroke-linecap:round;stroke-linejoin:round;" /><path d="M 360.0,-171.0 L 360.0,-180.0" style="stroke:black;fill:none;stroke-width:2.0;stroke-dasharray:-;stroke-linecap:round;stroke-linejoin:round;" /><path d="M 360.0 -187.0 L 362.7 -180.0 L 357.3 -180.0 Z" style="stroke:black;fill:black;stroke-linecap:butt;stroke-linejoin:miter;" /><path d="M 360.0,-216.0 L 360.0,-230.4" style="stroke:black;fill:none;stroke-width:2.0;stroke-dasharray:-;stroke-linecap:round;stroke-linejoin:round;" /><path d="M 360.0,-230.4 L 353.25,-230.4" style="stroke:black;fill:none;stroke-width:2.0;stroke-dasharray:-;stroke-linecap:round;stroke-linejoin:round;" /><path d="M 360.0,-230.4 L 366.75,-230.4" style="stroke:black;fill:none;stroke-width:2.0;stroke-dasharray:-;stroke-linecap:round;stroke-linejoin:round;" /><path d="M 360.0,-72.0 L 360.0,-54.0 L 369.0,-50.99999999999999 L 351.0,-45.0 L 369.0,-39.00000000000001 L 351.0,-33.0 L 369.0,-27.0 L 351.0,-21.000000000000007 L 360.0,-18.0 L 360.0,-0.0" style="stroke:black;fill:none;stroke-width:2.0;stroke-dasharray:-;stroke-linecap:round;stroke-linejoin:round;" /><path d="M 360.0,-0.0 L 360.0,14.4 L 351.0,14.4 L 369.0,14.4 M 353.7,18.72 L 366.3,18.72 M 358.2,23.04 L 361.8,23.04" style="stroke:black;fill:none;stroke-width:2.0;stroke-dasharray:-;stroke-linecap:round;stroke-linejoin:round;" /><path d="M 360.0,-72.0 L 414.0,-72.0 L 468.0,-72.0" style="stroke:black;fill:none;stroke-width:2.0;stroke-dasharray:-;stroke-linecap:round;stroke-linejoin:round;" /><path d="M 468.0,-72.0 L 468.0,-39.239999999999995 M 477.0,-39.239999999999995 L 459.0,-39.239999999999995 M 477.0,-32.76 L 459.0,-32.76 M 468.0,-32.76 L 468.0,-0.0" style="stroke:black;fill:none;stroke-width:2.0;stroke-dasharray:-;stroke-linecap:round;stroke-linejoin:round;" /><path d="M 468.0,-0.0 L 468.0,14.4 L 459.0,14.4 L 477.0,14.4 M 461.7,18.72 L 474.3,18.72 M 466.2,23.04 L 469.8,23.04" style="stroke:black;fill:none;stroke-width:2.0;stroke-dasharray:-;stroke-linecap:round;stroke-linejoin:round;" /><path d="M 8.817456953860943e-15,-144.0 L -53.99999999999999,-144.0 L -107.99999999999999,-144.0" style="stroke:black;fill:none;stroke-width:2.0;stroke-dasharray:-;stroke-linecap:round;stroke-linejoin:round;" /><path d="M -107.99999999999999,-216.0 L -107.99999999999999,-230.4" style="stroke:black;fill:none;stroke-width:2.0;stroke-dasharray:-;stroke-linecap:round;stroke-linejoin:round;" /><path d="M -107.99999999999999,-230.4 L -114.74999999999999,-230.4" style="stroke:black;fill:none;stroke-width:2.0;stroke-dasharray:-;stroke-linecap:round;stroke-linejoin:round;" /><path d="M -107.99999999999999,-230.4 L -101.24999999999999,-230.4" style="stroke:black;fill:none;stroke-width:2.0;stroke-dasharray:-;stroke-linecap:round;stroke-linejoin:round;" /><g><g><g><path d="M -39.922 -31.194 L -39.922 -31.194 L -38.61 -37.498 Q -38.466 -38.122 -38.474 -38.482 Q -38.482 -38.842 -38.77 -38.986 Q -39.058 -39.13 -39.794 -39.13 L -39.698 -39.61 L -35.266 -39.61 L -35.362 -39.13 Q -36.066 -39.13 -36.418 -38.986 Q -36.77 -38.842 -36.914 -38.482 Q -37.058 -38.122 -37.186 -37.498 L -38.498 -31.13 Q -38.546 -30.874 -38.578 -30.666 Q -38.61 -30.458 -38.61 -30.282 Q -38.61 -29.834 -38.346 -29.706 Q -38.082 -29.578 -37.33 -29.578 L -37.426 -29.098 L -41.794 -29.098 L -41.698 -29.578 Q -41.042 -29.578 -40.714 -29.69 Q -40.386 -29.802 -40.226 -30.146 Q -40.066 -30.49 -39.922 -31.194 Z " fill="black" /><path d="M -29.061 -29.115 L -29.061 -29.115 L -29.061 -26.606 Q -29.061 -26.293 -29.005 -26.108 Q -28.949 -25.923 -28.758 -25.845 Q -28.568 -25.766 -28.165 -25.766 L -28.165 -25.363 L -31.043 -25.363 L -31.043 -25.766 Q -30.618 -25.766 -30.427 -25.845 Q -30.237 -25.923 -30.192 -26.108 Q -30.147 -26.293 -30.147 -26.606 L -30.147 -28.746 Q -30.147 -29.496 -30.321 -29.849 Q -30.494 -30.202 -30.758 -30.314 Q -31.021 -30.426 -31.29 -30.426 Q -31.771 -30.426 -32.135 -30.179 Q -32.499 -29.933 -32.768 -29.709 L -32.768 -26.606 Q -32.768 -26.293 -32.718 -26.108 Q -32.667 -25.923 -32.477 -25.845 Q -32.286 -25.766 -31.872 -25.766 L -31.872 -25.363 L -34.694 -25.363 L -34.694 -25.766 Q -34.302 -25.766 -34.129 -25.845 Q -33.955 -25.923 -33.91 -26.108 Q -33.866 -26.293 -33.866 -26.606 L -33.866 -30.011 Q -33.866 -30.325 -33.983 -30.431 Q -34.101 -30.538 -34.358 -30.538 Q -34.493 -30.538 -34.582 -30.526 Q -34.672 -30.515 -34.672 -30.515 L -34.672 -30.941 L -33.171 -31.21 L -32.802 -31.21 L -32.802 -30.291 L -32.723 -30.291 Q -32.242 -30.728 -31.799 -30.986 Q -31.357 -31.243 -30.797 -31.243 Q -30.136 -31.243 -29.761 -30.946 Q -29.386 -30.65 -29.223 -30.168 Q -29.061 -29.686 -29.061 -29.115 Z " fill="black" /><path d="M -22.878 -25.363 L -22.878 -25.363 L -26.675 -25.363 L -26.675 -25.766 Q -25.869 -25.766 -25.606 -25.929 Q -25.342 -26.091 -25.342 -26.517 L -25.342 -31.4 Q -25.342 -31.702 -25.432 -31.837 Q -25.522 -31.971 -25.757 -31.971 Q -25.936 -31.971 -26.244 -31.921 Q -26.552 -31.87 -26.776 -31.814 L -26.776 -32.262 L -24.704 -32.834 L -24.222 -32.834 L -24.222 -26.517 Q -24.222 -26.091 -23.937 -25.929 Q -23.651 -25.766 -22.878 -25.766 Z " fill="black" /><path d="M -29.069 -37.182 L -29.069 -37.182 L -29.45 -35.234 L -34.042 -35.234 L -34.042 -35.782 L -32.451 -37.395 Q -31.824 -38.022 -31.415 -38.504 Q -31.006 -38.986 -30.805 -39.473 Q -30.603 -39.96 -30.603 -40.587 Q -30.603 -41.181 -30.967 -41.567 Q -31.331 -41.954 -31.992 -41.954 Q -32.597 -41.954 -33.006 -41.713 Q -33.414 -41.472 -33.728 -40.923 L -34.03 -41.069 Q -33.75 -41.853 -33.162 -42.301 Q -32.574 -42.749 -31.712 -42.749 Q -31.04 -42.749 -30.525 -42.508 Q -30.01 -42.267 -29.718 -41.819 Q -29.427 -41.371 -29.427 -40.733 Q -29.427 -40.184 -29.674 -39.702 Q -29.92 -39.221 -30.374 -38.717 Q -30.827 -38.213 -31.454 -37.597 L -32.854 -36.242 L -32.854 -36.163 L -31.981 -36.208 L -30.525 -36.208 Q -30.2 -36.208 -30.026 -36.298 Q -29.853 -36.387 -29.73 -36.606 Q -29.606 -36.824 -29.461 -37.182 Z " fill="black" /><rect x="-41.794" y="-46.093" width="19.986" height="1.088" fill="black" /></g></g></g><circle cx="8.817456953860943e-15" cy="-144.0" r="2.6999999999999997" style="stroke:black;fill:black;stroke-width:2.0;stroke-dasharray:-;" /><g><g><g><path d="M -38.526 -186.16 L -38.526 -186.16 L -38.622 -185.344 L -40.014 -185.504 L -40.014 -185.456 Q -39.742 -185.152 -39.59 -184.696 Q -39.438 -184.24 -39.438 -183.824 Q -39.438 -183.104 -39.726 -182.616 Q -40.014 -182.128 -40.478 -181.832 Q -40.942 -181.536 -41.502 -181.384 Q -42.062 -181.232 -42.59 -181.184 Q -43.23 -181.12 -43.494 -180.912 Q -43.758 -180.704 -43.758 -180.48 Q -43.758 -180.192 -43.438 -180.04 Q -43.118 -179.888 -42.614 -179.792 Q -42.11 -179.696 -41.534 -179.576 Q -40.958 -179.456 -40.454 -179.248 Q -39.95 -179.04 -39.63 -178.664 Q -39.31 -178.288 -39.31 -177.664 Q -39.31 -176.976 -39.758 -176.392 Q -40.206 -175.808 -41.086 -175.448 Q -41.966 -175.088 -43.246 -175.088 Q -44.398 -175.088 -45.086 -175.368 Q -45.774 -175.648 -46.078 -176.088 Q -46.382 -176.528 -46.382 -177.008 Q -46.382 -177.776 -45.79 -178.248 Q -45.198 -178.72 -44.446 -178.96 L -44.446 -179.024 Q -44.654 -179.152 -44.838 -179.384 Q -45.022 -179.616 -45.022 -179.984 Q -45.022 -180.384 -44.814 -180.624 Q -44.606 -180.864 -44.278 -181.016 Q -43.95 -181.168 -43.63 -181.28 L -43.63 -181.376 Q -44.254 -181.648 -44.718 -182.144 Q -45.182 -182.64 -45.182 -183.552 Q -45.182 -184.384 -44.782 -185.016 Q -44.382 -185.648 -43.686 -186 Q -42.99 -186.352 -42.126 -186.352 Q -41.55 -186.352 -41.254 -186.296 Q -40.958 -186.24 -40.67 -186.16 Z M -40.462 -177.072 L -40.462 -177.072 Q -40.462 -177.552 -40.862 -177.848 Q -41.262 -178.144 -41.854 -178.32 Q -42.446 -178.496 -43.046 -178.6 Q -43.646 -178.704 -44.062 -178.784 Q -44.462 -178.528 -44.798 -178.2 Q -45.134 -177.872 -45.134 -177.248 Q -45.134 -176.608 -44.638 -176.128 Q -44.142 -175.648 -42.926 -175.648 Q -41.774 -175.648 -41.118 -176.072 Q -40.462 -176.496 -40.462 -177.072 Z M -40.862 -184 L -40.862 -184 Q -40.862 -184.8 -41.166 -185.336 Q -41.47 -185.872 -42.174 -185.872 Q -42.862 -185.872 -43.31 -185.296 Q -43.758 -184.72 -43.758 -183.552 Q -43.758 -182.72 -43.47 -182.2 Q -43.182 -181.68 -42.494 -181.68 Q -41.694 -181.68 -41.278 -182.352 Q -40.862 -183.024 -40.862 -184 Z " fill="black" /><path d="M -35.794 -179.662 L -35.794 -179.662 L -35.794 -176.56 Q -35.794 -176.224 -35.726 -176.045 Q -35.659 -175.866 -35.469 -175.804 Q -35.278 -175.742 -34.909 -175.742 L -34.909 -175.328 L -37.731 -175.328 L -37.731 -175.742 Q -37.373 -175.742 -37.194 -175.804 Q -37.014 -175.866 -36.958 -176.05 Q -36.902 -176.235 -36.902 -176.582 L -36.902 -179.976 Q -36.902 -180.29 -37.02 -180.396 Q -37.138 -180.502 -37.395 -180.502 Q -37.518 -180.502 -37.614 -180.491 Q -37.709 -180.48 -37.709 -180.48 L -37.709 -180.906 L -36.242 -181.174 L -35.827 -181.174 L -35.827 -180.256 L -35.749 -180.256 Q -35.278 -180.682 -34.808 -180.945 Q -34.338 -181.208 -33.699 -181.208 Q -33.173 -181.208 -32.842 -180.939 Q -32.512 -180.67 -32.333 -180.278 L -32.277 -180.278 Q -31.258 -181.208 -30.317 -181.208 Q -29.555 -181.208 -29.113 -180.738 Q -28.67 -180.267 -28.67 -179.248 L -28.67 -176.784 Q -28.67 -176.403 -28.626 -176.174 Q -28.581 -175.944 -28.402 -175.843 Q -28.222 -175.742 -27.819 -175.742 L -27.819 -175.328 L -30.63 -175.328 L -30.63 -175.742 Q -30.216 -175.742 -30.031 -175.849 Q -29.846 -175.955 -29.802 -176.185 Q -29.757 -176.414 -29.757 -176.784 L -29.757 -179.114 Q -29.757 -179.819 -30.042 -180.099 Q -30.328 -180.379 -30.776 -180.379 Q -31.157 -180.379 -31.538 -180.15 Q -31.918 -179.92 -32.21 -179.696 L -32.21 -176.784 Q -32.21 -176.37 -32.159 -176.14 Q -32.109 -175.91 -31.913 -175.826 Q -31.717 -175.742 -31.302 -175.742 L -31.302 -175.328 L -34.226 -175.328 L -34.226 -175.742 Q -33.8 -175.742 -33.604 -175.826 Q -33.408 -175.91 -33.352 -176.14 Q -33.296 -176.37 -33.296 -176.784 L -33.296 -179.147 Q -33.296 -179.853 -33.548 -180.116 Q -33.8 -180.379 -34.237 -180.379 Q -34.696 -180.379 -35.116 -180.133 Q -35.536 -179.886 -35.794 -179.662 Z " fill="black" /><path d="M -26.386 -181.152 L -26.386 -181.152 L -26.71 -181.309 Q -26.374 -182.07 -25.82 -182.457 Q -25.266 -182.843 -24.571 -182.843 Q -23.675 -182.843 -23.126 -182.406 Q -22.578 -181.97 -22.578 -181.275 Q -22.578 -180.67 -22.947 -180.301 Q -23.317 -179.931 -23.866 -179.573 L -23.866 -179.517 Q -23.395 -179.394 -22.998 -179.147 Q -22.6 -178.901 -22.365 -178.514 Q -22.13 -178.128 -22.13 -177.579 Q -22.13 -176.963 -22.398 -176.51 Q -22.667 -176.056 -23.126 -175.759 Q -23.586 -175.462 -24.174 -175.322 Q -24.762 -175.182 -25.4 -175.182 Q -25.949 -175.182 -26.234 -175.278 Q -26.52 -175.373 -26.626 -175.53 Q -26.733 -175.686 -26.733 -175.843 Q -26.733 -176.034 -26.621 -176.218 Q -26.509 -176.403 -26.24 -176.403 Q -26.128 -176.403 -26.01 -176.342 Q -25.893 -176.28 -25.579 -176.101 Q -25.322 -175.978 -25.17 -175.91 Q -25.019 -175.843 -24.902 -175.821 Q -24.784 -175.798 -24.627 -175.798 Q -24.291 -175.798 -23.961 -175.922 Q -23.63 -176.045 -23.406 -176.364 Q -23.182 -176.683 -23.182 -177.266 Q -23.182 -177.781 -23.468 -178.15 Q -23.754 -178.52 -24.235 -178.727 Q -24.717 -178.934 -25.299 -178.934 L -25.546 -178.934 L -25.546 -179.461 L -25.31 -179.461 Q -24.907 -179.461 -24.526 -179.646 Q -24.146 -179.83 -23.899 -180.172 Q -23.653 -180.514 -23.653 -180.984 Q -23.653 -181.51 -23.994 -181.779 Q -24.336 -182.048 -24.862 -182.048 Q -25.837 -182.048 -26.386 -181.152 Z " fill="black" /><path d="M -20.506 -173.648 L -20.506 -173.648 L -20.696 -174.018 Q -20.461 -174.118 -20.214 -174.281 Q -19.968 -174.443 -19.806 -174.74 Q -19.643 -175.037 -19.643 -175.518 Q -19.834 -175.44 -20.035 -175.44 Q -20.405 -175.44 -20.562 -175.658 Q -20.718 -175.877 -20.718 -176.157 Q -20.718 -176.459 -20.517 -176.683 Q -20.315 -176.907 -19.934 -176.907 Q -19.453 -176.907 -19.201 -176.61 Q -18.949 -176.314 -18.949 -175.787 Q -18.949 -175.25 -19.117 -174.874 Q -19.285 -174.499 -19.537 -174.258 Q -19.789 -174.018 -20.052 -173.878 Q -20.315 -173.738 -20.506 -173.648 Z " fill="black" /><path d="M -12.934 -177.098 L -12.934 -177.098 L -14.155 -177.098 L -14.155 -175.328 L -15.264 -175.328 L -15.264 -177.098 L -18.557 -177.098 L -18.557 -177.949 L -14.962 -182.832 L -14.155 -182.832 L -14.155 -178.016 L -12.934 -178.016 Z M -15.264 -178.016 L -15.264 -178.016 L -15.264 -181.477 L -15.331 -181.477 L -17.795 -178.083 L -17.795 -178.016 Z " fill="black" /></g></g></g><g><g><g><path d="M 67.91 -175.267 L 67.91 -175.267 L 69.222 -181.571 Q 69.366 -182.195 69.358 -182.555 Q 69.35 -182.915 69.062 -183.059 Q 68.774 -183.203 68.038 -183.203 L 68.134 -183.683 L 72.566 -183.683 L 72.47 -183.203 Q 71.766 -183.203 71.414 -183.059 Q 71.062 -182.915 70.918 -182.555 Q 70.774 -182.195 70.646 -181.571 L 69.334 -175.203 Q 69.286 -174.947 69.254 -174.739 Q 69.222 -174.531 69.222 -174.355 Q 69.222 -173.907 69.486 -173.779 Q 69.75 -173.651 70.502 -173.651 L 70.406 -173.171 L 66.038 -173.171 L 66.134 -173.651 Q 66.79 -173.651 67.118 -173.763 Q 67.446 -173.875 67.606 -174.219 Q 67.766 -174.563 67.91 -175.267 Z " fill="black" /><path d="M 78.771 -173.166 L 78.771 -173.166 L 78.771 -170.657 Q 78.771 -170.343 78.827 -170.158 Q 78.883 -169.974 79.074 -169.895 Q 79.264 -169.817 79.667 -169.817 L 79.667 -169.414 L 76.789 -169.414 L 76.789 -169.817 Q 77.214 -169.817 77.405 -169.895 Q 77.595 -169.974 77.64 -170.158 Q 77.685 -170.343 77.685 -170.657 L 77.685 -172.796 Q 77.685 -173.546 77.511 -173.899 Q 77.338 -174.252 77.074 -174.364 Q 76.811 -174.476 76.542 -174.476 Q 76.061 -174.476 75.697 -174.23 Q 75.333 -173.983 75.064 -173.759 L 75.064 -170.657 Q 75.064 -170.343 75.114 -170.158 Q 75.165 -169.974 75.355 -169.895 Q 75.546 -169.817 75.96 -169.817 L 75.96 -169.414 L 73.138 -169.414 L 73.138 -169.817 Q 73.53 -169.817 73.703 -169.895 Q 73.877 -169.974 73.922 -170.158 Q 73.966 -170.343 73.966 -170.657 L 73.966 -174.062 Q 73.966 -174.375 73.849 -174.482 Q 73.731 -174.588 73.474 -174.588 Q 73.339 -174.588 73.25 -174.577 Q 73.16 -174.566 73.16 -174.566 L 73.16 -174.991 L 74.661 -175.26 L 75.03 -175.26 L 75.03 -174.342 L 75.109 -174.342 Q 75.59 -174.778 76.033 -175.036 Q 76.475 -175.294 77.035 -175.294 Q 77.696 -175.294 78.071 -174.997 Q 78.446 -174.7 78.609 -174.218 Q 78.771 -173.737 78.771 -173.166 Z " fill="black" /><path d="M 81.056 -175.238 L 81.056 -175.238 L 80.731 -175.394 Q 81.067 -176.156 81.622 -176.542 Q 82.176 -176.929 82.87 -176.929 Q 83.766 -176.929 84.315 -176.492 Q 84.864 -176.055 84.864 -175.361 Q 84.864 -174.756 84.494 -174.386 Q 84.125 -174.017 83.576 -173.658 L 83.576 -173.602 Q 84.046 -173.479 84.444 -173.233 Q 84.842 -172.986 85.077 -172.6 Q 85.312 -172.214 85.312 -171.665 Q 85.312 -171.049 85.043 -170.595 Q 84.774 -170.142 84.315 -169.845 Q 83.856 -169.548 83.268 -169.408 Q 82.68 -169.268 82.042 -169.268 Q 81.493 -169.268 81.207 -169.363 Q 80.922 -169.458 80.815 -169.615 Q 80.709 -169.772 80.709 -169.929 Q 80.709 -170.119 80.821 -170.304 Q 80.933 -170.489 81.202 -170.489 Q 81.314 -170.489 81.431 -170.427 Q 81.549 -170.366 81.862 -170.186 Q 82.12 -170.063 82.271 -169.996 Q 82.422 -169.929 82.54 -169.906 Q 82.658 -169.884 82.814 -169.884 Q 83.15 -169.884 83.481 -170.007 Q 83.811 -170.13 84.035 -170.45 Q 84.259 -170.769 84.259 -171.351 Q 84.259 -171.866 83.974 -172.236 Q 83.688 -172.606 83.206 -172.813 Q 82.725 -173.02 82.142 -173.02 L 81.896 -173.02 L 81.896 -173.546 L 82.131 -173.546 Q 82.534 -173.546 82.915 -173.731 Q 83.296 -173.916 83.542 -174.258 Q 83.789 -174.599 83.789 -175.07 Q 83.789 -175.596 83.447 -175.865 Q 83.106 -176.134 82.579 -176.134 Q 81.605 -176.134 81.056 -175.238 Z " fill="black" /><path d="M 78.763 -181.278 L 78.763 -181.278 L 78.382 -179.329 L 73.79 -179.329 L 73.79 -179.878 L 75.381 -181.49 Q 76.008 -182.118 76.417 -182.599 Q 76.826 -183.081 77.027 -183.568 Q 77.229 -184.055 77.229 -184.682 Q 77.229 -185.276 76.865 -185.662 Q 76.501 -186.049 75.84 -186.049 Q 75.235 -186.049 74.826 -185.808 Q 74.418 -185.567 74.104 -185.018 L 73.802 -185.164 Q 74.082 -185.948 74.67 -186.396 Q 75.258 -186.844 76.12 -186.844 Q 76.792 -186.844 77.307 -186.603 Q 77.822 -186.362 78.114 -185.914 Q 78.405 -185.466 78.405 -184.828 Q 78.405 -184.279 78.158 -183.798 Q 77.912 -183.316 77.458 -182.812 Q 77.005 -182.308 76.378 -181.692 L 74.978 -180.337 L 74.978 -180.258 L 75.851 -180.303 L 77.307 -180.303 Q 77.632 -180.303 77.806 -180.393 Q 77.979 -180.482 78.102 -180.701 Q 78.226 -180.919 78.371 -181.278 Z " fill="black" /><rect x="66.038" y="-190.188" width="20.154" height="1.088" fill="black" /></g></g></g><g><g><g><path d="M 211.91 -31.194 L 211.91 -31.194 L 213.222 -37.498 Q 213.366 -38.122 213.358 -38.482 Q 213.35 -38.842 213.062 -38.986 Q 212.774 -39.13 212.038 -39.13 L 212.134 -39.61 L 216.566 -39.61 L 216.47 -39.13 Q 215.766 -39.13 215.414 -38.986 Q 215.062 -38.842 214.918 -38.482 Q 214.774 -38.122 214.646 -37.498 L 213.334 -31.13 Q 213.286 -30.874 213.254 -30.666 Q 213.222 -30.458 213.222 -30.282 Q 213.222 -29.834 213.486 -29.706 Q 213.75 -29.578 214.502 -29.578 L 214.406 -29.098 L 210.038 -29.098 L 210.134 -29.578 Q 210.79 -29.578 211.118 -29.69 Q 211.446 -29.802 211.606 -30.146 Q 211.766 -30.49 211.91 -31.194 Z " fill="black" /><path d="M 222.771 -29.093 L 222.771 -29.093 L 222.771 -26.584 Q 222.771 -26.27 222.827 -26.086 Q 222.883 -25.901 223.074 -25.822 Q 223.264 -25.744 223.667 -25.744 L 223.667 -25.341 L 220.789 -25.341 L 220.789 -25.744 Q 221.214 -25.744 221.405 -25.822 Q 221.595 -25.901 221.64 -26.086 Q 221.685 -26.27 221.685 -26.584 L 221.685 -28.723 Q 221.685 -29.474 221.511 -29.826 Q 221.338 -30.179 221.074 -30.291 Q 220.811 -30.403 220.542 -30.403 Q 220.061 -30.403 219.697 -30.157 Q 219.333 -29.91 219.064 -29.686 L 219.064 -26.584 Q 219.064 -26.27 219.114 -26.086 Q 219.165 -25.901 219.355 -25.822 Q 219.546 -25.744 219.96 -25.744 L 219.96 -25.341 L 217.138 -25.341 L 217.138 -25.744 Q 217.53 -25.744 217.703 -25.822 Q 217.877 -25.901 217.922 -26.086 Q 217.966 -26.27 217.966 -26.584 L 217.966 -29.989 Q 217.966 -30.302 217.849 -30.409 Q 217.731 -30.515 217.474 -30.515 Q 217.339 -30.515 217.25 -30.504 Q 217.16 -30.493 217.16 -30.493 L 217.16 -30.918 L 218.661 -31.187 L 219.03 -31.187 L 219.03 -30.269 L 219.109 -30.269 Q 219.59 -30.706 220.033 -30.963 Q 220.475 -31.221 221.035 -31.221 Q 221.696 -31.221 222.071 -30.924 Q 222.446 -30.627 222.609 -30.146 Q 222.771 -29.664 222.771 -29.093 Z " fill="black" /><path d="M 229.592 -27.29 L 229.592 -27.29 L 229.211 -25.341 L 224.619 -25.341 L 224.619 -25.89 L 226.21 -27.502 Q 226.837 -28.13 227.246 -28.611 Q 227.654 -29.093 227.856 -29.58 Q 228.058 -30.067 228.058 -30.694 Q 228.058 -31.288 227.694 -31.674 Q 227.33 -32.061 226.669 -32.061 Q 226.064 -32.061 225.655 -31.82 Q 225.246 -31.579 224.933 -31.03 L 224.63 -31.176 Q 224.91 -31.96 225.498 -32.408 Q 226.086 -32.856 226.949 -32.856 Q 227.621 -32.856 228.136 -32.615 Q 228.651 -32.374 228.942 -31.926 Q 229.234 -31.478 229.234 -30.84 Q 229.234 -30.291 228.987 -29.81 Q 228.741 -29.328 228.287 -28.824 Q 227.834 -28.32 227.206 -27.704 L 225.806 -26.349 L 225.806 -26.27 L 226.68 -26.315 L 228.136 -26.315 Q 228.461 -26.315 228.634 -26.405 Q 228.808 -26.494 228.931 -26.713 Q 229.054 -26.931 229.2 -27.29 Z " fill="black" /><path d="M 222.763 -37.205 L 222.763 -37.205 L 222.382 -35.256 L 217.79 -35.256 L 217.79 -35.805 L 219.381 -37.418 Q 220.008 -38.045 220.417 -38.526 Q 220.826 -39.008 221.027 -39.495 Q 221.229 -39.982 221.229 -40.61 Q 221.229 -41.203 220.865 -41.59 Q 220.501 -41.976 219.84 -41.976 Q 219.235 -41.976 218.826 -41.735 Q 218.418 -41.494 218.104 -40.946 L 217.802 -41.091 Q 218.082 -41.875 218.67 -42.323 Q 219.258 -42.771 220.12 -42.771 Q 220.792 -42.771 221.307 -42.53 Q 221.822 -42.29 222.114 -41.842 Q 222.405 -41.394 222.405 -40.755 Q 222.405 -40.206 222.158 -39.725 Q 221.912 -39.243 221.458 -38.739 Q 221.005 -38.235 220.378 -37.619 L 218.978 -36.264 L 218.978 -36.186 L 219.851 -36.23 L 221.307 -36.23 Q 221.632 -36.23 221.806 -36.32 Q 221.979 -36.41 222.102 -36.628 Q 222.226 -36.846 222.371 -37.205 Z " fill="black" /><rect x="210.038" y="-46.115" width="20.154" height="1.088" fill="black" /></g></g></g><circle cx="360.0" cy="-72.0" r="2.6999999999999997" style="stroke:black;fill:black;stroke-width:2.0;stroke-dasharray:-;" /><circle cx="360.0" cy="-144.0" r="2.6999999999999997" style="stroke:black;fill:black;stroke-width:2.0;stroke-dasharray:-;" /><g><g><g><path d="M 211.462 -175.194 L 211.462 -175.194 L 212.774 -181.498 Q 212.918 -182.122 212.91 -182.482 Q 212.902 -182.842 212.614 -182.986 Q 212.326 -183.13 211.59 -183.13 L 211.686 -183.61 L 216.118 -183.61 L 216.022 -183.13 Q 215.318 -183.13 214.966 -182.986 Q 214.614 -182.842 214.47 -182.482 Q 214.326 -182.122 214.198 -181.498 L 212.886 -175.13 Q 212.838 -174.874 212.806 -174.666 Q 212.774 -174.458 212.774 -174.282 Q 212.774 -173.834 213.038 -173.706 Q 213.302 -173.578 214.054 -173.578 L 213.958 -173.098 L 209.59 -173.098 L 209.686 -173.578 Q 210.342 -173.578 210.67 -173.69 Q 210.998 -173.802 211.158 -174.146 Q 211.318 -174.49 211.462 -175.194 Z " fill="black" /><path d="M 222.323 -173.098 L 222.323 -173.098 L 222.323 -170.59 Q 222.323 -170.276 222.379 -170.091 Q 222.435 -169.906 222.626 -169.828 Q 222.816 -169.75 223.219 -169.75 L 223.219 -169.346 L 220.341 -169.346 L 220.341 -169.75 Q 220.766 -169.75 220.957 -169.828 Q 221.147 -169.906 221.192 -170.091 Q 221.237 -170.276 221.237 -170.59 L 221.237 -172.729 Q 221.237 -173.479 221.063 -173.832 Q 220.89 -174.185 220.626 -174.297 Q 220.363 -174.409 220.094 -174.409 Q 219.613 -174.409 219.249 -174.162 Q 218.885 -173.916 218.616 -173.692 L 218.616 -170.59 Q 218.616 -170.276 218.666 -170.091 Q 218.717 -169.906 218.907 -169.828 Q 219.098 -169.75 219.512 -169.75 L 219.512 -169.346 L 216.69 -169.346 L 216.69 -169.75 Q 217.082 -169.75 217.255 -169.828 Q 217.429 -169.906 217.474 -170.091 Q 217.518 -170.276 217.518 -170.59 L 217.518 -173.994 Q 217.518 -174.308 217.401 -174.414 Q 217.283 -174.521 217.026 -174.521 Q 216.891 -174.521 216.802 -174.51 Q 216.712 -174.498 216.712 -174.498 L 216.712 -174.924 L 218.213 -175.193 L 218.582 -175.193 L 218.582 -174.274 L 218.661 -174.274 Q 219.142 -174.711 219.585 -174.969 Q 220.027 -175.226 220.587 -175.226 Q 221.248 -175.226 221.623 -174.93 Q 221.998 -174.633 222.161 -174.151 Q 222.323 -173.67 222.323 -173.098 Z " fill="black" /><path d="M 229.682 -171.116 L 229.682 -171.116 L 228.461 -171.116 L 228.461 -169.346 L 227.352 -169.346 L 227.352 -171.116 L 224.059 -171.116 L 224.059 -171.967 L 227.654 -176.85 L 228.461 -176.85 L 228.461 -172.034 L 229.682 -172.034 Z M 227.352 -172.034 L 227.352 -172.034 L 227.352 -175.495 L 227.285 -175.495 L 224.821 -172.102 L 224.821 -172.034 Z " fill="black" /><path d="M 222.315 -181.199 L 222.315 -181.199 L 221.934 -179.25 L 217.342 -179.25 L 217.342 -179.799 L 218.933 -181.412 Q 219.56 -182.039 219.969 -182.521 Q 220.378 -183.002 220.579 -183.49 Q 220.781 -183.977 220.781 -184.604 Q 220.781 -185.198 220.417 -185.584 Q 220.053 -185.97 219.392 -185.97 Q 218.787 -185.97 218.378 -185.73 Q 217.97 -185.489 217.656 -184.94 L 217.354 -185.086 Q 217.634 -185.87 218.222 -186.318 Q 218.81 -186.766 219.672 -186.766 Q 220.344 -186.766 220.859 -186.525 Q 221.374 -186.284 221.666 -185.836 Q 221.957 -185.388 221.957 -184.75 Q 221.957 -184.201 221.71 -183.719 Q 221.464 -183.238 221.01 -182.734 Q 220.557 -182.23 219.93 -181.614 L 218.53 -180.258 L 218.53 -180.18 L 219.403 -180.225 L 220.859 -180.225 Q 221.184 -180.225 221.358 -180.314 Q 221.531 -180.404 221.654 -180.622 Q 221.778 -180.841 221.923 -181.199 Z " fill="black" /><rect x="209.59" y="-190.11" width="20.602" height="1.088" fill="black" /></g></g></g><g><g><g><path d="M 286.662 -185.318 L 286.662 -185.318 L 286.566 -184.502 L 285.174 -184.662 L 285.174 -184.614 Q 285.446 -184.31 285.598 -183.854 Q 285.75 -183.398 285.75 -182.982 Q 285.75 -182.262 285.462 -181.774 Q 285.174 -181.286 284.71 -180.99 Q 284.246 -180.694 283.686 -180.542 Q 283.126 -180.39 282.598 -180.342 Q 281.958 -180.278 281.694 -180.07 Q 281.43 -179.862 281.43 -179.638 Q 281.43 -179.35 281.75 -179.198 Q 282.07 -179.046 282.574 -178.95 Q 283.078 -178.854 283.654 -178.734 Q 284.23 -178.614 284.734 -178.406 Q 285.238 -178.198 285.558 -177.822 Q 285.878 -177.446 285.878 -176.822 Q 285.878 -176.134 285.43 -175.55 Q 284.982 -174.966 284.102 -174.606 Q 283.222 -174.246 281.942 -174.246 Q 280.79 -174.246 280.102 -174.526 Q 279.414 -174.806 279.11 -175.246 Q 278.806 -175.686 278.806 -176.166 Q 278.806 -176.934 279.398 -177.406 Q 279.99 -177.878 280.742 -178.118 L 280.742 -178.182 Q 280.534 -178.31 280.35 -178.542 Q 280.166 -178.774 280.166 -179.142 Q 280.166 -179.542 280.374 -179.782 Q 280.582 -180.022 280.91 -180.174 Q 281.238 -180.326 281.558 -180.438 L 281.558 -180.534 Q 280.934 -180.806 280.47 -181.302 Q 280.006 -181.798 280.006 -182.71 Q 280.006 -183.542 280.406 -184.174 Q 280.806 -184.806 281.502 -185.158 Q 282.198 -185.51 283.062 -185.51 Q 283.638 -185.51 283.934 -185.454 Q 284.23 -185.398 284.518 -185.318 Z M 284.726 -176.23 L 284.726 -176.23 Q 284.726 -176.71 284.326 -177.006 Q 283.926 -177.302 283.334 -177.478 Q 282.742 -177.654 282.142 -177.758 Q 281.542 -177.862 281.126 -177.942 Q 280.726 -177.686 280.39 -177.358 Q 280.054 -177.03 280.054 -176.406 Q 280.054 -175.766 280.55 -175.286 Q 281.046 -174.806 282.262 -174.806 Q 283.414 -174.806 284.07 -175.23 Q 284.726 -175.654 284.726 -176.23 Z M 284.326 -183.158 L 284.326 -183.158 Q 284.326 -183.958 284.022 -184.494 Q 283.718 -185.03 283.014 -185.03 Q 282.326 -185.03 281.878 -184.454 Q 281.43 -183.878 281.43 -182.71 Q 281.43 -181.878 281.718 -181.358 Q 282.006 -180.838 282.694 -180.838 Q 283.494 -180.838 283.91 -181.51 Q 284.326 -182.182 284.326 -183.158 Z " fill="black" /><path d="M 289.395 -178.821 L 289.395 -178.821 L 289.395 -175.718 Q 289.395 -175.382 289.462 -175.203 Q 289.53 -175.024 289.72 -174.962 Q 289.91 -174.901 290.28 -174.901 L 290.28 -174.486 L 287.458 -174.486 L 287.458 -174.901 Q 287.816 -174.901 287.995 -174.962 Q 288.174 -175.024 288.23 -175.209 Q 288.286 -175.394 288.286 -175.741 L 288.286 -179.134 Q 288.286 -179.448 288.169 -179.554 Q 288.051 -179.661 287.794 -179.661 Q 287.67 -179.661 287.575 -179.65 Q 287.48 -179.638 287.48 -179.638 L 287.48 -180.064 L 288.947 -180.333 L 289.362 -180.333 L 289.362 -179.414 L 289.44 -179.414 Q 289.91 -179.84 290.381 -180.103 Q 290.851 -180.366 291.49 -180.366 Q 292.016 -180.366 292.346 -180.098 Q 292.677 -179.829 292.856 -179.437 L 292.912 -179.437 Q 293.931 -180.366 294.872 -180.366 Q 295.634 -180.366 296.076 -179.896 Q 296.518 -179.426 296.518 -178.406 L 296.518 -175.942 Q 296.518 -175.562 296.563 -175.332 Q 296.608 -175.102 296.787 -175.002 Q 296.966 -174.901 297.37 -174.901 L 297.37 -174.486 L 294.558 -174.486 L 294.558 -174.901 Q 294.973 -174.901 295.158 -175.007 Q 295.342 -175.114 295.387 -175.343 Q 295.432 -175.573 295.432 -175.942 L 295.432 -178.272 Q 295.432 -178.978 295.146 -179.258 Q 294.861 -179.538 294.413 -179.538 Q 294.032 -179.538 293.651 -179.308 Q 293.27 -179.078 292.979 -178.854 L 292.979 -175.942 Q 292.979 -175.528 293.03 -175.298 Q 293.08 -175.069 293.276 -174.985 Q 293.472 -174.901 293.886 -174.901 L 293.886 -174.486 L 290.963 -174.486 L 290.963 -174.901 Q 291.389 -174.901 291.585 -174.985 Q 291.781 -175.069 291.837 -175.298 Q 291.893 -175.528 291.893 -175.942 L 291.893 -178.306 Q 291.893 -179.011 291.641 -179.274 Q 291.389 -179.538 290.952 -179.538 Q 290.493 -179.538 290.073 -179.291 Q 289.653 -179.045 289.395 -178.821 Z " fill="black" /><path d="M 298.803 -180.31 L 298.803 -180.31 L 298.478 -180.467 Q 298.814 -181.229 299.369 -181.615 Q 299.923 -182.002 300.618 -182.002 Q 301.514 -182.002 302.062 -181.565 Q 302.611 -181.128 302.611 -180.434 Q 302.611 -179.829 302.242 -179.459 Q 301.872 -179.09 301.323 -178.731 L 301.323 -178.675 Q 301.794 -178.552 302.191 -178.306 Q 302.589 -178.059 302.824 -177.673 Q 303.059 -177.286 303.059 -176.738 Q 303.059 -176.122 302.79 -175.668 Q 302.522 -175.214 302.062 -174.918 Q 301.603 -174.621 301.015 -174.481 Q 300.427 -174.341 299.789 -174.341 Q 299.24 -174.341 298.954 -174.436 Q 298.669 -174.531 298.562 -174.688 Q 298.456 -174.845 298.456 -175.002 Q 298.456 -175.192 298.568 -175.377 Q 298.68 -175.562 298.949 -175.562 Q 299.061 -175.562 299.178 -175.5 Q 299.296 -175.438 299.61 -175.259 Q 299.867 -175.136 300.018 -175.069 Q 300.17 -175.002 300.287 -174.979 Q 300.405 -174.957 300.562 -174.957 Q 300.898 -174.957 301.228 -175.08 Q 301.558 -175.203 301.782 -175.522 Q 302.006 -175.842 302.006 -176.424 Q 302.006 -176.939 301.721 -177.309 Q 301.435 -177.678 300.954 -177.886 Q 300.472 -178.093 299.89 -178.093 L 299.643 -178.093 L 299.643 -178.619 L 299.878 -178.619 Q 300.282 -178.619 300.662 -178.804 Q 301.043 -178.989 301.29 -179.33 Q 301.536 -179.672 301.536 -180.142 Q 301.536 -180.669 301.194 -180.938 Q 300.853 -181.206 300.326 -181.206 Q 299.352 -181.206 298.803 -180.31 Z " fill="black" /><path d="M 304.683 -172.806 L 304.683 -172.806 L 304.493 -173.176 Q 304.728 -173.277 304.974 -173.439 Q 305.221 -173.602 305.383 -173.898 Q 305.546 -174.195 305.546 -174.677 Q 305.355 -174.598 305.154 -174.598 Q 304.784 -174.598 304.627 -174.817 Q 304.47 -175.035 304.47 -175.315 Q 304.47 -175.618 304.672 -175.842 Q 304.874 -176.066 305.254 -176.066 Q 305.736 -176.066 305.988 -175.769 Q 306.24 -175.472 306.24 -174.946 Q 306.24 -174.408 306.072 -174.033 Q 305.904 -173.658 305.652 -173.417 Q 305.4 -173.176 305.137 -173.036 Q 304.874 -172.896 304.683 -172.806 Z " fill="black" /><path d="M 312.254 -176.256 L 312.254 -176.256 L 311.034 -176.256 L 311.034 -174.486 L 309.925 -174.486 L 309.925 -176.256 L 306.632 -176.256 L 306.632 -177.107 L 310.227 -181.99 L 311.034 -181.99 L 311.034 -177.174 L 312.254 -177.174 Z M 309.925 -177.174 L 309.925 -177.174 L 309.925 -180.635 L 309.858 -180.635 L 307.394 -177.242 L 307.394 -177.174 Z " fill="black" /><path d="M 316.989 -179.846 L 316.989 -179.846 L 321.357 -186.406 Q 321.581 -186.726 321.717 -186.998 Q 321.853 -187.27 321.853 -187.462 Q 321.853 -187.702 321.645 -187.79 Q 321.437 -187.878 320.893 -187.878 L 320.925 -188.358 L 324.381 -188.358 L 324.349 -187.878 Q 323.917 -187.878 323.613 -187.75 Q 323.309 -187.622 322.997 -187.262 Q 322.685 -186.902 322.189 -186.166 L 316.317 -177.766 L 315.789 -177.766 L 314.893 -186.422 Q 314.797 -187.222 314.541 -187.55 Q 314.285 -187.878 313.645 -187.878 L 313.677 -188.358 L 317.597 -188.358 L 317.549 -187.878 Q 316.941 -187.878 316.589 -187.638 Q 316.237 -187.398 316.269 -186.854 Q 316.269 -186.774 316.293 -186.566 Q 316.317 -186.358 316.317 -186.278 L 316.797 -181.718 L 316.909 -179.846 Z " fill="black" /><path d="M 322.464 -176.738 L 322.464 -176.738 L 322.464 -176.782 Q 322.072 -177.018 321.798 -177.393 Q 321.523 -177.768 321.523 -178.362 Q 321.523 -178.989 321.826 -179.437 Q 322.128 -179.885 322.643 -180.126 Q 323.158 -180.366 323.797 -180.366 Q 324.39 -180.366 324.766 -180.238 Q 325.141 -180.109 325.141 -180.109 L 326.787 -180.154 L 326.787 -179.493 L 325.611 -179.515 L 325.611 -179.437 Q 325.757 -179.235 325.914 -178.961 Q 326.07 -178.686 326.07 -178.194 Q 326.07 -177.634 325.774 -177.225 Q 325.477 -176.816 324.978 -176.598 Q 324.48 -176.379 323.853 -176.379 Q 323.282 -176.379 322.778 -176.581 Q 322.699 -176.435 322.593 -176.166 Q 322.486 -175.898 322.486 -175.707 Q 322.486 -175.472 322.761 -175.36 Q 323.035 -175.248 323.853 -175.248 Q 324.458 -175.248 324.973 -175.22 Q 325.488 -175.192 325.869 -175.063 Q 326.25 -174.934 326.457 -174.649 Q 326.664 -174.363 326.664 -173.837 Q 326.664 -173.232 326.356 -172.812 Q 326.048 -172.392 325.544 -172.134 Q 325.04 -171.877 324.452 -171.759 Q 323.864 -171.642 323.293 -171.642 Q 322.475 -171.642 322.027 -171.843 Q 321.579 -172.045 321.406 -172.358 Q 321.232 -172.672 321.232 -172.997 Q 321.232 -173.31 321.45 -173.618 Q 321.669 -173.926 322.15 -174.374 L 322.15 -174.43 Q 321.87 -174.576 321.68 -174.822 Q 321.49 -175.069 321.49 -175.304 Q 321.49 -175.64 321.786 -176.015 Q 322.083 -176.39 322.464 -176.738 Z M 322.52 -174.318 L 322.52 -174.318 Q 322.33 -173.994 322.262 -173.803 Q 322.195 -173.613 322.195 -173.422 Q 322.195 -172.907 322.615 -172.644 Q 323.035 -172.381 323.92 -172.381 Q 324.648 -172.381 325.096 -172.56 Q 325.544 -172.739 325.757 -172.991 Q 325.97 -173.243 325.97 -173.478 Q 325.97 -173.781 325.774 -173.949 Q 325.578 -174.117 325.275 -174.19 Q 324.973 -174.262 324.637 -174.285 Q 324.301 -174.307 324.01 -174.307 Q 323.931 -174.307 323.886 -174.307 Q 323.17 -174.307 322.906 -174.313 Q 322.643 -174.318 322.52 -174.318 Z M 323.73 -179.874 L 323.73 -179.874 Q 323.248 -179.874 322.951 -179.549 Q 322.654 -179.224 322.654 -178.429 Q 322.654 -177.645 322.968 -177.242 Q 323.282 -176.838 323.853 -176.838 Q 324.155 -176.838 324.402 -176.962 Q 324.648 -177.085 324.799 -177.41 Q 324.95 -177.734 324.95 -178.328 Q 324.95 -179.09 324.62 -179.482 Q 324.29 -179.874 323.73 -179.874 Z " fill="black" /><path d="M 327.773 -176.525 L 327.773 -176.525 L 328.131 -176.525 Q 328.277 -175.875 328.478 -175.517 Q 328.68 -175.158 328.999 -175.018 Q 329.318 -174.878 329.778 -174.878 Q 330.304 -174.878 330.59 -175.052 Q 330.875 -175.226 330.875 -175.662 Q 330.875 -175.954 330.735 -176.15 Q 330.595 -176.346 330.287 -176.525 Q 329.979 -176.704 329.464 -176.939 Q 328.938 -177.197 328.562 -177.421 Q 328.187 -177.645 327.991 -177.947 Q 327.795 -178.25 327.795 -178.709 Q 327.795 -179.515 328.338 -179.941 Q 328.882 -180.366 329.699 -180.366 Q 330.192 -180.366 330.534 -180.243 Q 330.875 -180.12 331.077 -180.03 L 331.099 -180.03 L 331.278 -180.31 L 331.592 -180.31 L 331.614 -178.451 L 331.222 -178.451 Q 331.01 -179.314 330.629 -179.61 Q 330.248 -179.907 329.755 -179.907 Q 329.24 -179.907 328.977 -179.683 Q 328.714 -179.459 328.714 -179.101 Q 328.714 -178.81 328.893 -178.619 Q 329.072 -178.429 329.402 -178.266 Q 329.733 -178.104 330.192 -177.88 Q 330.707 -177.634 331.099 -177.37 Q 331.491 -177.107 331.715 -176.777 Q 331.939 -176.446 331.939 -175.954 Q 331.939 -175.36 331.626 -175.002 Q 331.312 -174.643 330.819 -174.492 Q 330.326 -174.341 329.789 -174.341 Q 329.24 -174.341 328.938 -174.453 Q 328.635 -174.565 328.378 -174.666 L 328.333 -174.666 L 328.053 -174.374 L 327.795 -174.374 Z " fill="black" /><path d="M 333.44 -180.31 L 333.44 -180.31 L 333.115 -180.467 Q 333.451 -181.229 334.006 -181.615 Q 334.56 -182.002 335.254 -182.002 Q 336.15 -182.002 336.699 -181.565 Q 337.248 -181.128 337.248 -180.434 Q 337.248 -179.829 336.878 -179.459 Q 336.509 -179.09 335.96 -178.731 L 335.96 -178.675 Q 336.43 -178.552 336.828 -178.306 Q 337.226 -178.059 337.461 -177.673 Q 337.696 -177.286 337.696 -176.738 Q 337.696 -176.122 337.427 -175.668 Q 337.158 -175.214 336.699 -174.918 Q 336.24 -174.621 335.652 -174.481 Q 335.064 -174.341 334.426 -174.341 Q 333.877 -174.341 333.591 -174.436 Q 333.306 -174.531 333.199 -174.688 Q 333.093 -174.845 333.093 -175.002 Q 333.093 -175.192 333.205 -175.377 Q 333.317 -175.562 333.586 -175.562 Q 333.698 -175.562 333.815 -175.5 Q 333.933 -175.438 334.246 -175.259 Q 334.504 -175.136 334.655 -175.069 Q 334.806 -175.002 334.924 -174.979 Q 335.042 -174.957 335.198 -174.957 Q 335.534 -174.957 335.865 -175.08 Q 336.195 -175.203 336.419 -175.522 Q 336.643 -175.842 336.643 -176.424 Q 336.643 -176.939 336.358 -177.309 Q 336.072 -177.678 335.59 -177.886 Q 335.109 -178.093 334.526 -178.093 L 334.28 -178.093 L 334.28 -178.619 L 334.515 -178.619 Q 334.918 -178.619 335.299 -178.804 Q 335.68 -178.989 335.926 -179.33 Q 336.173 -179.672 336.173 -180.142 Q 336.173 -180.669 335.831 -180.938 Q 335.49 -181.206 334.963 -181.206 Q 333.989 -181.206 333.44 -180.31 Z " fill="black" /></g></g></g><g><g><g><path d="M 322.09 -42.16 L 322.09 -42.16 L 321.994 -41.344 L 320.602 -41.504 L 320.602 -41.456 Q 320.874 -41.152 321.026 -40.696 Q 321.178 -40.24 321.178 -39.824 Q 321.178 -39.104 320.89 -38.616 Q 320.602 -38.128 320.138 -37.832 Q 319.674 -37.536 319.114 -37.384 Q 318.554 -37.232 318.026 -37.184 Q 317.386 -37.12 317.122 -36.912 Q 316.858 -36.704 316.858 -36.48 Q 316.858 -36.192 317.178 -36.04 Q 317.498 -35.888 318.002 -35.792 Q 318.506 -35.696 319.082 -35.576 Q 319.658 -35.456 320.162 -35.248 Q 320.666 -35.04 320.986 -34.664 Q 321.306 -34.288 321.306 -33.664 Q 321.306 -32.976 320.858 -32.392 Q 320.41 -31.808 319.53 -31.448 Q 318.65 -31.088 317.37 -31.088 Q 316.218 -31.088 315.53 -31.368 Q 314.842 -31.648 314.538 -32.088 Q 314.234 -32.528 314.234 -33.008 Q 314.234 -33.776 314.826 -34.248 Q 315.418 -34.72 316.17 -34.96 L 316.17 -35.024 Q 315.962 -35.152 315.778 -35.384 Q 315.594 -35.616 315.594 -35.984 Q 315.594 -36.384 315.802 -36.624 Q 316.01 -36.864 316.338 -37.016 Q 316.666 -37.168 316.986 -37.28 L 316.986 -37.376 Q 316.362 -37.648 315.898 -38.144 Q 315.434 -38.64 315.434 -39.552 Q 315.434 -40.384 315.834 -41.016 Q 316.234 -41.648 316.93 -42 Q 317.626 -42.352 318.49 -42.352 Q 319.066 -42.352 319.362 -42.296 Q 319.658 -42.24 319.946 -42.16 Z M 320.154 -33.072 L 320.154 -33.072 Q 320.154 -33.552 319.754 -33.848 Q 319.354 -34.144 318.762 -34.32 Q 318.17 -34.496 317.57 -34.6 Q 316.97 -34.704 316.554 -34.784 Q 316.154 -34.528 315.818 -34.2 Q 315.482 -33.872 315.482 -33.248 Q 315.482 -32.608 315.978 -32.128 Q 316.474 -31.648 317.69 -31.648 Q 318.842 -31.648 319.498 -32.072 Q 320.154 -32.496 320.154 -33.072 Z M 319.754 -40 L 319.754 -40 Q 319.754 -40.8 319.45 -41.336 Q 319.146 -41.872 318.442 -41.872 Q 317.754 -41.872 317.306 -41.296 Q 316.858 -40.72 316.858 -39.552 Q 316.858 -38.72 317.146 -38.2 Q 317.434 -37.68 318.122 -37.68 Q 318.922 -37.68 319.338 -38.352 Q 319.754 -39.024 319.754 -40 Z " fill="black" /><path d="M 324.822 -35.662 L 324.822 -35.662 L 324.822 -32.56 Q 324.822 -32.224 324.89 -32.045 Q 324.957 -31.866 325.147 -31.804 Q 325.338 -31.742 325.707 -31.742 L 325.707 -31.328 L 322.885 -31.328 L 322.885 -31.742 Q 323.243 -31.742 323.422 -31.804 Q 323.602 -31.866 323.658 -32.05 Q 323.714 -32.235 323.714 -32.582 L 323.714 -35.976 Q 323.714 -36.29 323.596 -36.396 Q 323.478 -36.502 323.221 -36.502 Q 323.098 -36.502 323.002 -36.491 Q 322.907 -36.48 322.907 -36.48 L 322.907 -36.906 L 324.374 -37.174 L 324.789 -37.174 L 324.789 -36.256 L 324.867 -36.256 Q 325.338 -36.682 325.808 -36.945 Q 326.278 -37.208 326.917 -37.208 Q 327.443 -37.208 327.774 -36.939 Q 328.104 -36.67 328.283 -36.278 L 328.339 -36.278 Q 329.358 -37.208 330.299 -37.208 Q 331.061 -37.208 331.503 -36.738 Q 331.946 -36.267 331.946 -35.248 L 331.946 -32.784 Q 331.946 -32.403 331.99 -32.174 Q 332.035 -31.944 332.214 -31.843 Q 332.394 -31.742 332.797 -31.742 L 332.797 -31.328 L 329.986 -31.328 L 329.986 -31.742 Q 330.4 -31.742 330.585 -31.849 Q 330.77 -31.955 330.814 -32.185 Q 330.859 -32.414 330.859 -32.784 L 330.859 -35.114 Q 330.859 -35.819 330.574 -36.099 Q 330.288 -36.379 329.84 -36.379 Q 329.459 -36.379 329.078 -36.15 Q 328.698 -35.92 328.406 -35.696 L 328.406 -32.784 Q 328.406 -32.37 328.457 -32.14 Q 328.507 -31.91 328.703 -31.826 Q 328.899 -31.742 329.314 -31.742 L 329.314 -31.328 L 326.39 -31.328 L 326.39 -31.742 Q 326.816 -31.742 327.012 -31.826 Q 327.208 -31.91 327.264 -32.14 Q 327.32 -32.37 327.32 -32.784 L 327.32 -35.147 Q 327.32 -35.853 327.068 -36.116 Q 326.816 -36.379 326.379 -36.379 Q 325.92 -36.379 325.5 -36.133 Q 325.08 -35.886 324.822 -35.662 Z " fill="black" /><path d="M 338.128 -31.328 L 338.128 -31.328 L 334.331 -31.328 L 334.331 -31.731 Q 335.138 -31.731 335.401 -31.894 Q 335.664 -32.056 335.664 -32.482 L 335.664 -37.365 Q 335.664 -37.667 335.574 -37.802 Q 335.485 -37.936 335.25 -37.936 Q 335.07 -37.936 334.762 -37.886 Q 334.454 -37.835 334.23 -37.779 L 334.23 -38.227 L 336.302 -38.798 L 336.784 -38.798 L 336.784 -32.482 Q 336.784 -32.056 337.07 -31.894 Q 337.355 -31.731 338.128 -31.731 Z " fill="black" /><path d="M 339.942 -29.648 L 339.942 -29.648 L 339.752 -30.018 Q 339.987 -30.118 340.234 -30.281 Q 340.48 -30.443 340.642 -30.74 Q 340.805 -31.037 340.805 -31.518 Q 340.614 -31.44 340.413 -31.44 Q 340.043 -31.44 339.886 -31.658 Q 339.73 -31.877 339.73 -32.157 Q 339.73 -32.459 339.931 -32.683 Q 340.133 -32.907 340.514 -32.907 Q 340.995 -32.907 341.247 -32.61 Q 341.499 -32.314 341.499 -31.787 Q 341.499 -31.25 341.331 -30.874 Q 341.163 -30.499 340.911 -30.258 Q 340.659 -30.018 340.396 -29.878 Q 340.133 -29.738 339.942 -29.648 Z " fill="black" /><path d="M 346.976 -33.277 L 346.976 -33.277 L 346.595 -31.328 L 342.003 -31.328 L 342.003 -31.877 L 343.594 -33.49 Q 344.221 -34.117 344.63 -34.598 Q 345.038 -35.08 345.24 -35.567 Q 345.442 -36.054 345.442 -36.682 Q 345.442 -37.275 345.078 -37.662 Q 344.714 -38.048 344.053 -38.048 Q 343.448 -38.048 343.039 -37.807 Q 342.63 -37.566 342.317 -37.018 L 342.014 -37.163 Q 342.294 -37.947 342.882 -38.395 Q 343.47 -38.843 344.333 -38.843 Q 345.005 -38.843 345.52 -38.602 Q 346.035 -38.362 346.326 -37.914 Q 346.618 -37.466 346.618 -36.827 Q 346.618 -36.278 346.371 -35.797 Q 346.125 -35.315 345.671 -34.811 Q 345.218 -34.307 344.59 -33.691 L 343.19 -32.336 L 343.19 -32.258 L 344.064 -32.302 L 345.52 -32.302 Q 345.845 -32.302 346.018 -32.392 Q 346.192 -32.482 346.315 -32.7 Q 346.438 -32.918 346.584 -33.277 Z " fill="black" /></g></g></g><g><g><g><path d="M 405.454 -81.094 L 405.454 -81.094 L 409.822 -87.654 Q 410.046 -87.974 410.182 -88.246 Q 410.318 -88.518 410.318 -88.71 Q 410.318 -88.95 410.11 -89.038 Q 409.902 -89.126 409.358 -89.126 L 409.39 -89.606 L 412.846 -89.606 L 412.814 -89.126 Q 412.382 -89.126 412.078 -88.998 Q 411.774 -88.87 411.462 -88.51 Q 411.15 -88.15 410.654 -87.414 L 404.782 -79.014 L 404.254 -79.014 L 403.358 -87.67 Q 403.262 -88.47 403.006 -88.798 Q 402.75 -89.126 402.11 -89.126 L 402.142 -89.606 L 406.062 -89.606 L 406.014 -89.126 Q 405.406 -89.126 405.054 -88.886 Q 404.702 -88.646 404.734 -88.102 Q 404.734 -88.022 404.758 -87.814 Q 404.782 -87.606 404.782 -87.526 L 405.262 -82.966 L 405.374 -81.094 Z " fill="black" /><path d="M 412.755 -81.614 L 412.755 -81.614 Q 413.595 -81.614 414.222 -81.25 Q 414.85 -80.886 415.191 -80.231 Q 415.533 -79.576 415.533 -78.691 Q 415.533 -77.627 415.174 -76.944 Q 414.816 -76.261 414.189 -75.93 Q 413.562 -75.6 412.755 -75.6 Q 411.938 -75.6 411.305 -75.942 Q 410.672 -76.283 410.319 -76.966 Q 409.966 -77.65 409.966 -78.68 Q 409.966 -79.554 410.314 -80.214 Q 410.661 -80.875 411.288 -81.245 Q 411.915 -81.614 412.755 -81.614 Z M 412.733 -81.099 L 412.733 -81.099 Q 411.994 -81.099 411.574 -80.5 Q 411.154 -79.901 411.154 -78.747 Q 411.154 -77.325 411.585 -76.737 Q 412.016 -76.149 412.789 -76.149 Q 413.282 -76.16 413.629 -76.395 Q 413.976 -76.63 414.161 -77.185 Q 414.346 -77.739 414.346 -78.691 Q 414.346 -79.834 413.954 -80.466 Q 413.562 -81.099 412.733 -81.099 Z " fill="black" /><path d="M 423.149 -76.306 L 423.149 -76.306 L 423.149 -75.88 L 421.637 -75.678 L 421.278 -75.678 L 421.278 -76.552 L 421.166 -76.552 Q 420.741 -76.171 420.304 -75.897 Q 419.867 -75.622 419.251 -75.622 Q 418.422 -75.622 417.986 -76.126 Q 417.549 -76.63 417.549 -77.874 L 417.549 -80.282 Q 417.549 -80.741 417.386 -80.847 Q 417.224 -80.954 416.709 -80.954 L 416.709 -81.357 L 418.266 -81.57 L 418.635 -81.57 L 418.635 -78.019 Q 418.635 -77.392 418.781 -77.045 Q 418.926 -76.698 419.173 -76.563 Q 419.419 -76.429 419.71 -76.429 Q 420.203 -76.429 420.534 -76.636 Q 420.864 -76.843 421.222 -77.134 L 421.222 -80.282 Q 421.222 -80.741 421.021 -80.847 Q 420.819 -80.954 420.248 -80.954 L 420.248 -81.357 L 421.917 -81.57 L 422.309 -81.57 L 422.309 -77.034 Q 422.309 -76.698 422.37 -76.541 Q 422.432 -76.384 422.589 -76.345 Q 422.746 -76.306 423.026 -76.306 Z " fill="black" /><path d="M 427.517 -76.854 L 427.517 -76.854 L 427.774 -76.642 Q 427.528 -76.306 427.326 -76.076 Q 427.125 -75.846 426.867 -75.723 Q 426.61 -75.6 426.206 -75.6 Q 425.557 -75.6 425.26 -75.97 Q 424.963 -76.339 424.963 -77.157 L 424.963 -80.92 L 424.258 -80.92 L 424.258 -81.256 Q 424.661 -81.547 424.997 -81.967 Q 425.333 -82.387 425.669 -83.171 L 426.061 -83.171 L 426.05 -81.469 L 427.472 -81.469 L 427.472 -80.92 L 426.05 -80.92 L 426.05 -77.526 Q 426.05 -76.899 426.167 -76.636 Q 426.285 -76.373 426.643 -76.373 Q 426.968 -76.373 427.136 -76.49 Q 427.304 -76.608 427.517 -76.854 Z " fill="black" /></g></g></g><g><g><g><path d="M 430.99 -34.707 L 430.99 -34.707 L 431.278 -34.403 Q 430.462 -33.443 429.39 -32.827 Q 428.318 -32.211 426.798 -32.211 Q 425.358 -32.211 424.494 -32.747 Q 423.63 -33.283 423.254 -34.179 Q 422.878 -35.075 422.878 -36.131 Q 422.878 -37.811 423.39 -39.115 Q 423.902 -40.419 424.79 -41.307 Q 425.678 -42.195 426.798 -42.651 Q 427.918 -43.107 429.134 -43.107 Q 429.95 -43.107 430.406 -42.963 Q 430.862 -42.819 431.118 -42.667 Q 431.374 -42.515 431.566 -42.515 Q 431.758 -42.515 431.902 -42.675 Q 432.046 -42.835 432.238 -43.091 L 432.702 -43.091 L 431.95 -39.427 L 431.422 -39.427 Q 431.486 -41.027 430.83 -41.723 Q 430.174 -42.419 428.99 -42.419 Q 428.062 -42.419 427.246 -41.995 Q 426.43 -41.571 425.798 -40.795 Q 425.166 -40.019 424.806 -38.939 Q 424.446 -37.859 424.446 -36.531 Q 424.446 -34.931 425.206 -34.091 Q 425.966 -33.251 427.55 -33.251 Q 429.39 -33.251 430.99 -34.707 Z " fill="black" /><path d="M 435.562 -29.442 L 435.562 -29.442 L 435.562 -29.027 L 432.728 -29.027 L 432.728 -29.442 Q 433.12 -29.442 433.294 -29.52 Q 433.467 -29.598 433.512 -29.783 Q 433.557 -29.968 433.557 -30.282 L 433.557 -36.195 Q 433.557 -36.554 433.428 -36.632 Q 433.299 -36.71 433.03 -36.71 Q 432.885 -36.71 432.79 -36.694 Q 432.694 -36.677 432.694 -36.677 L 432.694 -37.102 L 434.218 -37.394 L 434.654 -37.394 L 434.654 -30.282 Q 434.654 -29.957 434.705 -29.772 Q 434.755 -29.587 434.951 -29.514 Q 435.147 -29.442 435.562 -29.442 Z " fill="black" /><path d="M 439.482 -34.907 L 439.482 -34.907 Q 440.322 -34.907 440.949 -34.543 Q 441.576 -34.179 441.918 -33.524 Q 442.259 -32.869 442.259 -31.984 Q 442.259 -30.92 441.901 -30.237 Q 441.542 -29.554 440.915 -29.223 Q 440.288 -28.893 439.482 -28.893 Q 438.664 -28.893 438.031 -29.234 Q 437.398 -29.576 437.046 -30.259 Q 436.693 -30.942 436.693 -31.973 Q 436.693 -32.846 437.04 -33.507 Q 437.387 -34.168 438.014 -34.538 Q 438.642 -34.907 439.482 -34.907 Z M 439.459 -34.392 L 439.459 -34.392 Q 438.72 -34.392 438.3 -33.793 Q 437.88 -33.194 437.88 -32.04 Q 437.88 -30.618 438.311 -30.03 Q 438.742 -29.442 439.515 -29.442 Q 440.008 -29.453 440.355 -29.688 Q 440.702 -29.923 440.887 -30.478 Q 441.072 -31.032 441.072 -31.984 Q 441.072 -33.126 440.68 -33.759 Q 440.288 -34.392 439.459 -34.392 Z " fill="black" /><path d="M 446.963 -29.733 L 446.963 -29.733 L 446.885 -29.733 Q 446.504 -29.419 446.045 -29.184 Q 445.586 -28.949 445.048 -28.949 Q 444.342 -28.949 443.967 -29.374 Q 443.592 -29.8 443.592 -30.405 Q 443.592 -30.92 443.833 -31.267 Q 444.074 -31.614 444.46 -31.833 Q 444.846 -32.051 445.294 -32.186 Q 445.742 -32.32 446.157 -32.398 Q 446.571 -32.477 446.851 -32.544 L 446.851 -33.126 Q 446.851 -33.877 446.554 -34.162 Q 446.258 -34.448 445.686 -34.448 Q 445.339 -34.448 445.188 -34.358 Q 445.037 -34.269 444.998 -34.067 Q 444.958 -33.866 444.947 -33.541 Q 444.936 -33.294 444.802 -33.143 Q 444.667 -32.992 444.41 -32.992 Q 444.163 -32.992 443.99 -33.143 Q 443.816 -33.294 443.816 -33.586 Q 443.816 -33.933 444.085 -34.235 Q 444.354 -34.538 444.852 -34.722 Q 445.35 -34.907 446.022 -34.907 Q 447.03 -34.907 447.484 -34.442 Q 447.938 -33.978 447.938 -33.048 L 447.938 -30.304 Q 447.938 -29.934 448.022 -29.828 Q 448.106 -29.722 448.285 -29.722 Q 448.475 -29.722 448.615 -29.8 Q 448.755 -29.878 448.878 -30.024 L 449.125 -29.789 Q 448.542 -28.96 447.758 -28.96 Q 447.322 -28.96 447.159 -29.167 Q 446.997 -29.374 446.963 -29.733 Z M 446.851 -30.147 L 446.851 -30.147 L 446.851 -32.118 Q 446.336 -31.984 445.843 -31.822 Q 445.35 -31.659 445.031 -31.379 Q 444.712 -31.099 444.712 -30.595 Q 444.712 -30.158 444.964 -29.906 Q 445.216 -29.654 445.608 -29.654 Q 445.843 -29.654 446.174 -29.761 Q 446.504 -29.867 446.851 -30.147 Z " fill="black" /><path d="M 455.845 -29.173 L 455.845 -29.173 L 454.333 -28.971 L 453.93 -28.971 L 453.93 -29.755 L 453.851 -29.755 Q 453.482 -29.442 453.017 -29.184 Q 452.552 -28.926 451.97 -28.926 Q 451.309 -28.926 450.844 -29.285 Q 450.379 -29.643 450.133 -30.27 Q 449.886 -30.898 449.886 -31.693 Q 449.886 -32.69 450.273 -33.412 Q 450.659 -34.134 451.303 -34.521 Q 451.947 -34.907 452.709 -34.907 Q 453.37 -34.907 453.907 -34.605 L 453.907 -36.05 Q 453.907 -36.453 453.823 -36.582 Q 453.739 -36.71 453.381 -36.71 Q 453.302 -36.71 453.174 -36.694 Q 453.045 -36.677 453.045 -36.677 L 453.045 -37.102 L 454.534 -37.394 L 454.994 -37.394 L 454.994 -30.293 Q 454.994 -29.856 455.117 -29.727 Q 455.24 -29.598 455.542 -29.598 L 455.845 -29.598 Z M 453.907 -30.27 L 453.907 -30.27 L 453.907 -33.541 Q 453.784 -33.854 453.498 -34.101 Q 453.213 -34.347 452.686 -34.347 Q 451.936 -34.347 451.454 -33.838 Q 450.973 -33.328 450.973 -32.152 Q 450.973 -30.954 451.393 -30.399 Q 451.813 -29.845 452.574 -29.845 Q 452.933 -29.845 453.23 -29.946 Q 453.526 -30.046 453.907 -30.27 Z " fill="black" /></g></g></g><g><g><g><path d="M -102.736 -161.456 L -102.736 -161.456 L -106.928 -161.456 L -106.928 -157.216 L -108.08 -157.216 L -108.08 -161.456 L -112.272 -161.456 L -112.272 -162.544 L -108.08 -162.544 L -108.08 -166.784 L -106.928 -166.784 L -106.928 -162.544 L -102.736 -162.544 Z " fill="black" /></g></g></g><g><g><g><path d="M -115.93 -179.846 L -115.93 -179.846 L -111.562 -186.406 Q -111.338 -186.726 -111.202 -186.998 Q -111.066 -187.27 -111.066 -187.462 Q -111.066 -187.702 -111.274 -187.79 Q -111.482 -187.878 -112.026 -187.878 L -111.994 -188.358 L -108.538 -188.358 L -108.57 -187.878 Q -109.002 -187.878 -109.306 -187.75 Q -109.61 -187.622 -109.922 -187.262 Q -110.234 -186.902 -110.73 -186.166 L -116.602 -177.766 L -117.13 -177.766 L -118.026 -186.422 Q -118.122 -187.222 -118.378 -187.55 Q -118.634 -187.878 -119.274 -187.878 L -119.242 -188.358 L -115.322 -188.358 L -115.37 -187.878 Q -115.978 -187.878 -116.33 -187.638 Q -116.682 -187.398 -116.65 -186.854 Q -116.65 -186.774 -116.626 -186.566 Q -116.602 -186.358 -116.602 -186.278 L -116.122 -181.718 L -116.01 -179.846 Z " fill="black" /><path d="M -110.454 -176.738 L -110.454 -176.738 L -110.454 -176.782 Q -110.846 -177.018 -111.121 -177.393 Q -111.395 -177.768 -111.395 -178.362 Q -111.395 -178.989 -111.093 -179.437 Q -110.79 -179.885 -110.275 -180.126 Q -109.76 -180.366 -109.122 -180.366 Q -108.528 -180.366 -108.153 -180.238 Q -107.778 -180.109 -107.778 -180.109 L -106.131 -180.154 L -106.131 -179.493 L -107.307 -179.515 L -107.307 -179.437 Q -107.162 -179.235 -107.005 -178.961 Q -106.848 -178.686 -106.848 -178.194 Q -106.848 -177.634 -107.145 -177.225 Q -107.442 -176.816 -107.94 -176.598 Q -108.438 -176.379 -109.066 -176.379 Q -109.637 -176.379 -110.141 -176.581 Q -110.219 -176.435 -110.326 -176.166 Q -110.432 -175.898 -110.432 -175.707 Q -110.432 -175.472 -110.158 -175.36 Q -109.883 -175.248 -109.066 -175.248 Q -108.461 -175.248 -107.946 -175.22 Q -107.43 -175.192 -107.05 -175.063 Q -106.669 -174.934 -106.462 -174.649 Q -106.254 -174.363 -106.254 -173.837 Q -106.254 -173.232 -106.562 -172.812 Q -106.87 -172.392 -107.374 -172.134 Q -107.878 -171.877 -108.466 -171.759 Q -109.054 -171.642 -109.626 -171.642 Q -110.443 -171.642 -110.891 -171.843 Q -111.339 -172.045 -111.513 -172.358 Q -111.686 -172.672 -111.686 -172.997 Q -111.686 -173.31 -111.468 -173.618 Q -111.25 -173.926 -110.768 -174.374 L -110.768 -174.43 Q -111.048 -174.576 -111.238 -174.822 Q -111.429 -175.069 -111.429 -175.304 Q -111.429 -175.64 -111.132 -176.015 Q -110.835 -176.39 -110.454 -176.738 Z M -110.398 -174.318 L -110.398 -174.318 Q -110.589 -173.994 -110.656 -173.803 Q -110.723 -173.613 -110.723 -173.422 Q -110.723 -172.907 -110.303 -172.644 Q -109.883 -172.381 -108.998 -172.381 Q -108.27 -172.381 -107.822 -172.56 Q -107.374 -172.739 -107.162 -172.991 Q -106.949 -173.243 -106.949 -173.478 Q -106.949 -173.781 -107.145 -173.949 Q -107.341 -174.117 -107.643 -174.19 Q -107.946 -174.262 -108.282 -174.285 Q -108.618 -174.307 -108.909 -174.307 Q -108.987 -174.307 -109.032 -174.307 Q -109.749 -174.307 -110.012 -174.313 Q -110.275 -174.318 -110.398 -174.318 Z M -109.189 -179.874 L -109.189 -179.874 Q -109.67 -179.874 -109.967 -179.549 Q -110.264 -179.224 -110.264 -178.429 Q -110.264 -177.645 -109.95 -177.242 Q -109.637 -176.838 -109.066 -176.838 Q -108.763 -176.838 -108.517 -176.962 Q -108.27 -177.085 -108.119 -177.41 Q -107.968 -177.734 -107.968 -178.328 Q -107.968 -179.09 -108.298 -179.482 Q -108.629 -179.874 -109.189 -179.874 Z " fill="black" /><path d="M -105.146 -176.525 L -105.146 -176.525 L -104.787 -176.525 Q -104.642 -175.875 -104.44 -175.517 Q -104.238 -175.158 -103.919 -175.018 Q -103.6 -174.878 -103.141 -174.878 Q -102.614 -174.878 -102.329 -175.052 Q -102.043 -175.226 -102.043 -175.662 Q -102.043 -175.954 -102.183 -176.15 Q -102.323 -176.346 -102.631 -176.525 Q -102.939 -176.704 -103.454 -176.939 Q -103.981 -177.197 -104.356 -177.421 Q -104.731 -177.645 -104.927 -177.947 Q -105.123 -178.25 -105.123 -178.709 Q -105.123 -179.515 -104.58 -179.941 Q -104.037 -180.366 -103.219 -180.366 Q -102.726 -180.366 -102.385 -180.243 Q -102.043 -180.12 -101.842 -180.03 L -101.819 -180.03 L -101.64 -180.31 L -101.326 -180.31 L -101.304 -178.451 L -101.696 -178.451 Q -101.909 -179.314 -102.29 -179.61 Q -102.67 -179.907 -103.163 -179.907 Q -103.678 -179.907 -103.942 -179.683 Q -104.205 -179.459 -104.205 -179.101 Q -104.205 -178.81 -104.026 -178.619 Q -103.846 -178.429 -103.516 -178.266 Q -103.186 -178.104 -102.726 -177.88 Q -102.211 -177.634 -101.819 -177.37 Q -101.427 -177.107 -101.203 -176.777 Q -100.979 -176.446 -100.979 -175.954 Q -100.979 -175.36 -101.293 -175.002 Q -101.606 -174.643 -102.099 -174.492 Q -102.592 -174.341 -103.13 -174.341 Q -103.678 -174.341 -103.981 -174.453 Q -104.283 -174.565 -104.541 -174.666 L -104.586 -174.666 L -104.866 -174.374 L -105.123 -174.374 Z " fill="black" /><path d="M -99.478 -180.31 L -99.478 -180.31 L -99.803 -180.467 Q -99.467 -181.229 -98.913 -181.615 Q -98.358 -182.002 -97.664 -182.002 Q -96.768 -182.002 -96.219 -181.565 Q -95.67 -181.128 -95.67 -180.434 Q -95.67 -179.829 -96.04 -179.459 Q -96.41 -179.09 -96.958 -178.731 L -96.958 -178.675 Q -96.488 -178.552 -96.09 -178.306 Q -95.693 -178.059 -95.458 -177.673 Q -95.222 -177.286 -95.222 -176.738 Q -95.222 -176.122 -95.491 -175.668 Q -95.76 -175.214 -96.219 -174.918 Q -96.678 -174.621 -97.266 -174.481 Q -97.854 -174.341 -98.493 -174.341 Q -99.042 -174.341 -99.327 -174.436 Q -99.613 -174.531 -99.719 -174.688 Q -99.826 -174.845 -99.826 -175.002 Q -99.826 -175.192 -99.714 -175.377 Q -99.602 -175.562 -99.333 -175.562 Q -99.221 -175.562 -99.103 -175.5 Q -98.986 -175.438 -98.672 -175.259 Q -98.414 -175.136 -98.263 -175.069 Q -98.112 -175.002 -97.994 -174.979 Q -97.877 -174.957 -97.72 -174.957 Q -97.384 -174.957 -97.054 -175.08 Q -96.723 -175.203 -96.499 -175.522 Q -96.275 -175.842 -96.275 -176.424 Q -96.275 -176.939 -96.561 -177.309 Q -96.846 -177.678 -97.328 -177.886 Q -97.81 -178.093 -98.392 -178.093 L -98.638 -178.093 L -98.638 -178.619 L -98.403 -178.619 Q -98 -178.619 -97.619 -178.804 Q -97.238 -178.989 -96.992 -179.33 Q -96.746 -179.672 -96.746 -180.142 Q -96.746 -180.669 -97.087 -180.938 Q -97.429 -181.206 -97.955 -181.206 Q -98.93 -181.206 -99.478 -180.31 Z " fill="black" /></g></g></g><g><g><g><rect x="-110.16" y="-202.672" width="4.32" height="1.088" fill="black" /></g></g></g></svg>