<svg xmlns="http://www.w3.org/2000/svg" xmlns:xlink="http://www.w3.org/1999/xlink" xml:lang="en" height="274.63999999999993pt" width="294.9088pt" viewBox="-48.50880000000001 -19.0 294.9088 274.63999999999993"><circle cx="-6.613092715395707e-15" cy="36.0" r="18.0" style="stroke:black;fill:none;stroke-width:2.0;stroke-dasharray:-;" /><circle cx="86.99999999999996" cy="164.99999999999994" r="18.0" style="stroke:black;fill:none;stroke-width:2.0;stroke-dasharray:-;" /><path d="M 0.0,-0.0 L 0.0,-14.4" style="stroke:black;fill:none;stroke-width:2.0;stroke-dasharray:-;stroke-linecap:round;stroke-linejoin:round;" /><path d="M 0.0,-14.4 L -6.75,-14.4" style="stroke:black;fill:none;stroke-width:2.0;stroke-dasharray:-;stroke-linecap:round;stroke-linejoin:round;" /><path d="M 0.0,-14.4 L 6.75,-14.4" style="stroke:black;fill:none;stroke-width:2.0;stroke-dasharray:-;stroke-linecap:round;stroke-linejoin:round;" /><path d="M 0.0,-0.0 L -3.3065463576978533e-15,18.0 L -3.3065463576978533e-15,18.0 M -9.919639073093561e-15,54.0 L -9.919639073093561e-15,54.0 L -1.3226185430791413e-14,72.0" style="stroke:black;fill:none;stroke-width:2.0;stroke-dasharray:-;stroke-linecap:round;stroke-linejoin:round;" /><path d="M -4.9598195365467806e-15,27.0 L -6.819055509535661e-15,36.0" style="stroke:black;fill:none;stroke-width:2.0;stroke-dasharray:-;stroke-linecap:round;stroke-linejoin:round;" /><path d="M -7.944741364309306e-15 43.0 L -2.7000000000000064 36.0 L 2.699999999999993 36.0 Z" style="stroke:black;fill:black;stroke-linecap:butt;stroke-linejoin:miter;" /><path d="M -1.3226185430791413e-14,72.0 L -1.3226185430791413e-14,87.0 L 14.999999999999984,87.0 L 14.999999999999984,117.0 L -1.3226185430791413e-14,117.0 L -1.3226185430791413e-14,132.0" style="stroke:black;fill:none;stroke-width:2.0;stroke-dasharray:-;stroke-linecap:round;stroke-linejoin:round;" /><path d="M 14.999999999999984,117.0 L 8.999999999999988,117.0" style="stroke:black;fill:none;stroke-width:2.0;stroke-dasharray:-;stroke-linecap:round;stroke-linejoin:round;" /><path d="M 1.9999999999999867 117.0 L 8.999999999999988 112.5 L 8.999999999999986 121.5 Z" style="stroke:black;fill:black;stroke-linecap:butt;stroke-linejoin:miter;" /><path d="M 17.999999999999986,90.0 L 17.999999999999986,114.00000000000001" style="stroke:black;fill:none;stroke-width:2.0;stroke-dasharray:-;stroke-linecap:round;stroke-linejoin:round;" /><path d="M 17.999999999999986,101.99999999999999 L 32.999999999999986,101.99999999999999" style="stroke:black;fill:none;stroke-width:2.0;stroke-dasharray:-;stroke-linecap:round;stroke-linejoin:round;" /><path d="M -1.3226185430791413e-14,132.0 L -1.6532731788489267e-14,149.99999999999997 L -1.9839278146187122e-14,167.99999999999997" style="stroke:black;fill:none;stroke-width:2.0;stroke-dasharray:-;stroke-linecap:round;stroke-linejoin:round;" /><path d="M -1.9839278146187122e-14,167.99999999999997 L -1.9839278146187122e-14,183.0 L 14.999999999999979,183.0 L 14.999999999999979,212.99999999999997 L -1.9839278146187122e-14,212.99999999999997 L -1.9839278146187122e-14,227.99999999999994" style="stroke:black;fill:none;stroke-width:2.0;stroke-dasharray:-;stroke-linecap:round;stroke-linejoin:round;" /><path d="M 14.999999999999979,212.99999999999997 L 8.99999999999998,212.99999999999997" style="stroke:black;fill:none;stroke-width:2.0;stroke-dasharray:-;stroke-linecap:round;stroke-linejoin:round;" /><path d="M 1.9999999999999802 212.99999999999997 L 8.999999999999982 208.49999999999997 L 8.999999999999979 217.49999999999997 Z" style="stroke:black;fill:black;stroke-linecap:butt;stroke-linejoin:miter;" /><path d="M 17.99999999999998,185.99999999999997 L 17.99999999999998,210.0" style="stroke:black;fill:none;stroke-width:2.0;stroke-dasharray:-;stroke-linecap:round;stroke-linejoin:round;" /><path d="M 17.99999999999998,197.99999999999997 L 32.99999999999997,197.99999999999997" style="stroke:black;fill:none;stroke-width:2.0;stroke-dasharray:-;stroke-linecap:round;stroke-linejoin:round;" /><path d="M -1.9839278146187122e-14,227.99999999999994 L -1.9839278146187122e-14,242.39999999999998 L -9.00000000000002,242.39999999999998 L 8.99999999999998,242.39999999999998 M -6.300000000000019,246.71999999999994 L 6.299999999999979,246.71999999999994 M -1.8000000000000198,251.03999999999994 L 1.7999999999999803,251.03999999999994" style="stroke:black;fill:none;stroke-width:2.0;stroke-dasharray:-;stroke-linecap:round;stroke-linejoin:round;" /><path d="M 32.99999999999997,197.99999999999997 L 41.99999999999998,197.99999999999997 L 50.99999999999998,197.99999999999997" style="stroke:black;fill:none;stroke-width:2.0;stroke-dasharray:-;stroke-linecap:round;stroke-linejoin:round;" /><path d="M 50.99999999999998,197.99999999999997 L 50.99999999999998,134.99999999999997 L 50.999999999999986,72.0" style="stroke:black;fill:none;stroke-width:2.0;stroke-dasharray:-;stroke-linecap:round;stroke-linejoin:round;" /><path d="M 50.999999999999986,72.0 L 25.499999999999986,72.0 L -1.5987211554602254e-14,71.99999999999999" style="stroke:black;fill:none;stroke-width:2.0;stroke-dasharray:-;stroke-linecap:round;stroke-linejoin:round;" /><path d="M 32.99999999999997,197.99999999999997 L 86.99999999999997,197.99999999999997 L 140.99999999999997,197.99999999999997" style="stroke:black;fill:none;stroke-width:2.0;stroke-dasharray:-;stroke-linecap:round;stroke-linejoin:round;" /><path d="M 173.99999999999994,227.99999999999994 L 173.99999999999994,212.99999999999997 L 158.99999999999997,212.99999999999997 L 158.99999999999997,182.99999999999994 L 173.99999999999994,182.99999999999994 L 173.99999999999994,167.99999999999997" style="stroke:black;fill:none;stroke-width:2.0;stroke-dasharray:-;stroke-linecap:round;stroke-linejoin:round;" /><path d="M 164.99999999999994,212.99999999999997 L 158.99999999999997,212.99999999999997" style="stroke:black;fill:none;stroke-width:2.0;stroke-dasharray:-;stroke-linecap:round;stroke-linejoin:round;" /><path d="M 171.99999999999994 212.99999999999997 L 164.99999999999994 217.49999999999997 L 164.99999999999994 208.49999999999997 Z" style="stroke:black;fill:black;stroke-linecap:butt;stroke-linejoin:miter;" /><path d="M 156.0,209.99999999999994 L 156.0,185.99999999999997" style="stroke:black;fill:none;stroke-width:2.0;stroke-dasharray:-;stroke-linecap:round;stroke-linejoin:round;" /><path d="M 140.99999999999997,197.99999999999997 L 156.0,197.99999999999997" style="stroke:black;fill:none;stroke-width:2.0;stroke-dasharray:-;stroke-linecap:round;stroke-linejoin:round;" /><path d="M 173.99999999999994,167.99999999999997 L 173.99999999999994,149.99999999999997 L 173.99999999999994,131.99999999999997" style="stroke:black;fill:none;stroke-width:2.0;stroke-dasharray:-;stroke-linecap:round;stroke-linejoin:round;" /><path d="M 173.99999999999994,131.99999999999997 L 173.99999999999994,116.99999999999999 L 158.99999999999994,116.99999999999999 L 158.99999999999994,86.99999999999997 L 173.99999999999994,86.99999999999997 L 173.99999999999994,71.99999999999999" style="stroke:black;fill:none;stroke-width:2.0;stroke-dasharray:-;stroke-linecap:round;stroke-linejoin:round;" /><path d="M 164.99999999999994,116.99999999999999 L 158.99999999999994,116.99999999999999" style="stroke:black;fill:none;stroke-width:2.0;stroke-dasharray:-;stroke-linecap:round;stroke-linejoin:round;" /><path d="M 171.99999999999994 116.99999999999999 L 164.99999999999994 121.49999999999999 L 164.99999999999994 112.49999999999999 Z" style="stroke:black;fill:black;stroke-linecap:butt;stroke-linejoin:miter;" /><path d="M 155.99999999999994,113.99999999999997 L 155.99999999999994,89.99999999999999" style="stroke:black;fill:none;stroke-width:2.0;stroke-dasharray:-;stroke-linecap:round;stroke-linejoin:round;" /><path d="M 140.99999999999997,101.99999999999999 L 155.99999999999994,101.99999999999999" style="stroke:black;fill:none;stroke-width:2.0;stroke-dasharray:-;stroke-linecap:round;stroke-linejoin:round;" /><path d="M 173.99999999999994,227.99999999999994 L 173.99999999999994,242.39999999999998 L 164.99999999999994,242.39999999999998 L 182.99999999999994,242.39999999999998 M 167.69999999999996,246.71999999999994 L 180.29999999999995,246.71999999999994 M 172.19999999999996,251.03999999999994 L 175.79999999999995,251.03999999999994" style="stroke:black;fill:none;stroke-width:2.0;stroke-dasharray:-;stroke-linecap:round;stroke-linejoin:round;" /><path d="M 173.99999999999994,71.99999999999999 L 173.99999999999994,53.999999999999986 L 173.99999999999994,35.999999999999986" style="stroke:black;fill:none;stroke-width:2.0;stroke-dasharray:-;stroke-linecap:round;stroke-linejoin:round;" /><path d="M 32.999999999999986,101.99999999999999 L 59.99999999999998,101.99999999999999 L 86.99999999999997,101.99999999999999" style="stroke:black;fill:none;stroke-width:2.0;stroke-dasharray:-;stroke-linecap:round;stroke-linejoin:round;" /><path d="M 86.99999999999997,101.99999999999999 L 113.99999999999997,101.99999999999999 L 140.99999999999997,101.99999999999999" style="stroke:black;fill:none;stroke-width:2.0;stroke-dasharray:-;stroke-linecap:round;stroke-linejoin:round;" /><path d="M 86.99999999999997,101.99999999999999 L 86.99999999999996,146.99999999999994 L 86.99999999999996,146.99999999999994 M 86.99999999999996,182.99999999999994 L 86.99999999999996,182.99999999999994 L 86.99999999999996,227.99999999999994" style="stroke:black;fill:none;stroke-width:2.0;stroke-dasharray:-;stroke-linecap:round;stroke-linejoin:round;" /><path d="M 90.59999999999997,173.99999999999994 L 83.39999999999996,173.99999999999994" style="stroke:black;fill:none;stroke-width:2.0;stroke-dasharray:-;stroke-linecap:round;stroke-linejoin:round;" /><path d="M 86.99999999999996,152.39999999999998 L 86.99999999999996,159.59999999999997" style="stroke:black;fill:none;stroke-width:2.0;stroke-dasharray:-;stroke-linecap:round;stroke-linejoin:round;" /><path d="M 90.59999999999997,155.99999999999994 L 83.39999999999998,155.99999999999994" style="stroke:black;fill:none;stroke-width:2.0;stroke-dasharray:-;stroke-linecap:round;stroke-linejoin:round;" /><path d="M 86.99999999999996,227.99999999999994 L 86.99999999999996,242.39999999999998 L 77.99999999999996,242.39999999999998 L 95.99999999999996,242.39999999999998 M 80.69999999999997,246.71999999999994 L 93.29999999999995,246.71999999999994 M 85.19999999999997,251.03999999999994 L 88.79999999999995,251.03999999999994" style="stroke:black;fill:none;stroke-width:2.0;stroke-dasharray:-;stroke-linecap:round;stroke-linejoin:round;" /><circle cx="-1.3226185430791413e-14" cy="72.0" r="2.6999999999999997" style="stroke:black;fill:black;stroke-width:2.0;stroke-dasharray:-;" /><g><g><g><path d="M -49.032 38.757 L -49.032 38.757 L -47.72 32.453 Q -47.576 31.829 -47.584 31.469 Q -47.592 31.109 -47.88 30.965 Q -48.168 30.821 -48.904 30.821 L -48.808 30.341 L -44.376 30.341 L -44.472 30.821 Q -45.176 30.821 -45.528 30.965 Q -45.88 31.109 -46.024 31.469 Q -46.168 31.829 -46.296 32.453 L -47.608 38.821 Q -47.656 39.077 -47.688 39.285 Q -47.72 39.493 -47.72 39.669 Q -47.72 40.117 -47.456 40.245 Q -47.192 40.373 -46.44 40.373 L -46.536 40.853 L -50.904 40.853 L -50.808 40.373 Q -50.152 40.373 -49.824 40.261 Q -49.496 40.149 -49.336 39.805 Q -49.176 39.461 -49.032 38.757 Z " fill="black" /><path d="M -42.035 35.847 L -42.035 35.847 L -42.035 39.319 L -41.979 39.319 Q -41.654 38.938 -41.212 38.636 Q -40.77 38.333 -40.142 38.333 Q -39.56 38.333 -39.084 38.686 Q -38.608 39.039 -38.322 39.66 Q -38.037 40.282 -38.037 41.088 Q -38.037 42.164 -38.429 42.892 Q -38.821 43.62 -39.498 43.984 Q -40.176 44.348 -41.038 44.348 Q -41.542 44.348 -41.968 44.264 Q -42.394 44.18 -42.69 44.068 Q -42.987 43.956 -43.122 43.9 L -43.122 37.18 Q -43.122 36.765 -43.211 36.648 Q -43.301 36.53 -43.682 36.53 Q -43.805 36.53 -43.911 36.547 Q -44.018 36.564 -44.018 36.564 L -44.018 36.138 L -42.494 35.847 Z M -42.035 39.901 L -42.035 39.901 L -42.035 43.261 Q -41.901 43.508 -41.61 43.653 Q -41.318 43.799 -40.837 43.799 Q -40.243 43.799 -39.885 43.48 Q -39.526 43.16 -39.364 42.628 Q -39.202 42.096 -39.202 41.469 Q -39.202 40.898 -39.33 40.377 Q -39.459 39.856 -39.784 39.532 Q -40.109 39.207 -40.68 39.207 Q -40.982 39.207 -41.257 39.324 Q -41.531 39.442 -41.733 39.604 Q -41.934 39.767 -42.035 39.901 Z " fill="black" /><path d="M -33.949 43.799 L -33.949 43.799 L -33.949 44.213 L -36.794 44.213 L -36.794 43.799 Q -36.402 43.799 -36.228 43.715 Q -36.054 43.631 -36.01 43.446 Q -35.965 43.261 -35.965 42.959 L -35.965 39.576 Q -35.965 39.196 -36.088 39.117 Q -36.211 39.039 -36.502 39.039 Q -36.648 39.039 -36.738 39.05 Q -36.827 39.061 -36.827 39.061 L -36.827 38.613 L -35.326 38.367 L -34.867 38.367 L -34.867 42.959 Q -34.867 43.284 -34.817 43.468 Q -34.766 43.653 -34.57 43.726 Q -34.374 43.799 -33.949 43.799 Z M -35.427 35.892 L -35.427 35.892 Q -35.102 35.892 -34.884 36.116 Q -34.666 36.34 -34.666 36.631 Q -34.666 36.9 -34.884 37.124 Q -35.102 37.348 -35.427 37.348 Q -35.741 37.348 -35.948 37.124 Q -36.155 36.9 -36.155 36.631 Q -36.155 36.34 -35.948 36.116 Q -35.741 35.892 -35.427 35.892 Z " fill="black" /><path d="M -29.469 43.508 L -29.469 43.508 L -29.547 43.508 Q -29.928 43.821 -30.387 44.056 Q -30.846 44.292 -31.384 44.292 Q -32.09 44.292 -32.465 43.866 Q -32.84 43.44 -32.84 42.836 Q -32.84 42.32 -32.599 41.973 Q -32.358 41.626 -31.972 41.408 Q -31.586 41.189 -31.138 41.055 Q -30.69 40.92 -30.275 40.842 Q -29.861 40.764 -29.581 40.696 L -29.581 40.114 Q -29.581 39.364 -29.878 39.078 Q -30.174 38.792 -30.746 38.792 Q -31.093 38.792 -31.244 38.882 Q -31.395 38.972 -31.434 39.173 Q -31.474 39.375 -31.485 39.7 Q -31.496 39.946 -31.63 40.097 Q -31.765 40.248 -32.022 40.248 Q -32.269 40.248 -32.442 40.097 Q -32.616 39.946 -32.616 39.655 Q -32.616 39.308 -32.347 39.005 Q -32.078 38.703 -31.58 38.518 Q -31.082 38.333 -30.41 38.333 Q -29.402 38.333 -28.948 38.798 Q -28.494 39.263 -28.494 40.192 L -28.494 42.936 Q -28.494 43.306 -28.41 43.412 Q -28.326 43.519 -28.147 43.519 Q -27.957 43.519 -27.817 43.44 Q -27.677 43.362 -27.554 43.216 L -27.307 43.452 Q -27.89 44.28 -28.674 44.28 Q -29.11 44.28 -29.273 44.073 Q -29.435 43.866 -29.469 43.508 Z M -29.581 43.093 L -29.581 43.093 L -29.581 41.122 Q -30.096 41.256 -30.589 41.419 Q -31.082 41.581 -31.401 41.861 Q -31.72 42.141 -31.72 42.645 Q -31.72 43.082 -31.468 43.334 Q -31.216 43.586 -30.824 43.586 Q -30.589 43.586 -30.258 43.48 Q -29.928 43.373 -29.581 43.093 Z " fill="black" /><path d="M -26.534 42.175 L -26.534 42.175 L -26.176 42.175 Q -26.03 42.824 -25.829 43.183 Q -25.627 43.541 -25.308 43.681 Q -24.989 43.821 -24.53 43.821 Q -24.003 43.821 -23.718 43.648 Q -23.432 43.474 -23.432 43.037 Q -23.432 42.746 -23.572 42.55 Q -23.712 42.354 -24.02 42.175 Q -24.328 41.996 -24.843 41.76 Q -25.37 41.503 -25.745 41.279 Q -26.12 41.055 -26.316 40.752 Q -26.512 40.45 -26.512 39.991 Q -26.512 39.184 -25.969 38.759 Q -25.426 38.333 -24.608 38.333 Q -24.115 38.333 -23.774 38.456 Q -23.432 38.58 -23.23 38.669 L -23.208 38.669 L -23.029 38.389 L -22.715 38.389 L -22.693 40.248 L -23.085 40.248 Q -23.298 39.386 -23.678 39.089 Q -24.059 38.792 -24.552 38.792 Q -25.067 38.792 -25.33 39.016 Q -25.594 39.24 -25.594 39.599 Q -25.594 39.89 -25.414 40.08 Q -25.235 40.271 -24.905 40.433 Q -24.574 40.596 -24.115 40.82 Q -23.6 41.066 -23.208 41.329 Q -22.816 41.592 -22.592 41.923 Q -22.368 42.253 -22.368 42.746 Q -22.368 43.34 -22.682 43.698 Q -22.995 44.056 -23.488 44.208 Q -23.981 44.359 -24.518 44.359 Q -25.067 44.359 -25.37 44.247 Q -25.672 44.135 -25.93 44.034 L -25.974 44.034 L -26.254 44.325 L -26.512 44.325 Z " fill="black" /></g></g></g><g><g><g><path d="M -28.682 95.48 L -28.682 95.48 L -28.73 95.96 Q -29.306 95.976 -29.658 96.216 Q -30.01 96.456 -30.426 97.064 L -36.058 106.088 L -36.522 106.088 L -37.05 99.864 L -37.114 99.864 L -41.226 106.088 L -41.674 106.088 L -42.458 97.4 Q -42.522 96.616 -42.794 96.288 Q -43.066 95.96 -43.754 95.96 L -43.674 95.48 L -39.674 95.48 L -39.754 95.96 Q -40.442 95.96 -40.714 96.096 Q -40.986 96.232 -41.018 96.552 Q -41.018 96.584 -41.018 96.648 Q -41.018 96.776 -41.018 96.96 Q -41.018 97.144 -40.986 97.368 L -40.57 101.88 L -40.49 103.416 L -40.394 103.416 L -37.162 98.728 L -37.274 97.464 Q -37.338 96.776 -37.442 96.456 Q -37.546 96.136 -37.778 96.048 Q -38.01 95.96 -38.474 95.96 L -38.394 95.48 L -34.314 95.48 L -34.394 95.96 Q -35.274 95.96 -35.57 96.248 Q -35.866 96.536 -35.802 97.432 L -35.418 101.752 L -35.354 103.384 L -35.274 103.384 L -31.866 98.024 Q -31.61 97.624 -31.386 97.192 Q -31.162 96.76 -31.162 96.408 Q -31.162 96.168 -31.338 96.064 Q -31.514 95.96 -32.042 95.96 L -31.946 95.48 Z " fill="black" /><path d="M -24.261 107.403 L -24.261 107.403 L -24.642 109.352 L -29.234 109.352 L -29.234 108.803 L -27.643 107.19 Q -27.016 106.563 -26.607 106.082 Q -26.198 105.6 -25.997 105.113 Q -25.795 104.626 -25.795 103.998 Q -25.795 103.405 -26.159 103.018 Q -26.523 102.632 -27.184 102.632 Q -27.789 102.632 -28.198 102.873 Q -28.606 103.114 -28.92 103.662 L -29.222 103.517 Q -28.942 102.733 -28.354 102.285 Q -27.766 101.837 -26.904 101.837 Q -26.232 101.837 -25.717 102.078 Q -25.202 102.318 -24.91 102.766 Q -24.619 103.214 -24.619 103.853 Q -24.619 104.402 -24.866 104.883 Q -25.112 105.365 -25.566 105.869 Q -26.019 106.373 -26.646 106.989 L -28.046 108.344 L -28.046 108.422 L -27.173 108.378 L -25.717 108.378 Q -25.392 108.378 -25.218 108.288 Q -25.045 108.198 -24.922 107.98 Q -24.798 107.762 -24.653 107.403 Z " fill="black" /><path d="M -18.253 94.648 L -18.253 94.648 L -22.413 107.416 L -23.309 107.416 L -19.133 94.648 Z " fill="black" /><path d="M -8.829 102.872 L -8.829 102.872 L -9.789 105.992 L -17.693 105.992 L -17.597 105.512 Q -16.973 105.512 -16.645 105.4 Q -16.317 105.288 -16.141 104.968 Q -15.965 104.648 -15.837 104.008 L -14.461 97.336 Q -14.349 96.808 -14.381 96.504 Q -14.413 96.2 -14.709 96.08 Q -15.005 95.96 -15.693 95.96 L -15.597 95.48 L -11.053 95.48 L -11.133 95.96 Q -11.997 95.96 -12.429 96.224 Q -12.861 96.488 -13.037 97.352 L -14.493 104.52 Q -14.605 105.048 -14.381 105.216 Q -14.157 105.384 -13.453 105.384 L -12.701 105.384 Q -11.933 105.384 -11.453 105.248 Q -10.973 105.112 -10.637 104.824 Q -10.301 104.536 -10.005 104.048 Q -9.709 103.56 -9.341 102.872 Z " fill="black" /><path d="M -2.904 107.403 L -2.904 107.403 L -3.285 109.352 L -7.877 109.352 L -7.877 108.803 L -6.286 107.19 Q -5.659 106.563 -5.25 106.082 Q -4.842 105.6 -4.64 105.113 Q -4.438 104.626 -4.438 103.998 Q -4.438 103.405 -4.802 103.018 Q -5.166 102.632 -5.827 102.632 Q -6.432 102.632 -6.841 102.873 Q -7.25 103.114 -7.563 103.662 L -7.866 103.517 Q -7.586 102.733 -6.998 102.285 Q -6.41 101.837 -5.547 101.837 Q -4.875 101.837 -4.36 102.078 Q -3.845 102.318 -3.554 102.766 Q -3.262 103.214 -3.262 103.853 Q -3.262 104.402 -3.509 104.883 Q -3.755 105.365 -4.209 105.869 Q -4.662 106.373 -5.29 106.989 L -6.69 108.344 L -6.69 108.422 L -5.816 108.378 L -4.36 108.378 Q -4.035 108.378 -3.862 108.288 Q -3.688 108.198 -3.565 107.98 Q -3.442 107.762 -3.296 107.403 Z " fill="black" /></g></g></g><g><g><g><path d="M -28.346 191.48 L -28.346 191.48 L -28.394 191.96 Q -28.97 191.976 -29.322 192.216 Q -29.674 192.456 -30.09 193.064 L -35.722 202.088 L -36.186 202.088 L -36.714 195.864 L -36.778 195.864 L -40.89 202.088 L -41.338 202.088 L -42.122 193.4 Q -42.186 192.616 -42.458 192.288 Q -42.73 191.96 -43.418 191.96 L -43.338 191.48 L -39.338 191.48 L -39.418 191.96 Q -40.106 191.96 -40.378 192.096 Q -40.65 192.232 -40.682 192.552 Q -40.682 192.584 -40.682 192.648 Q -40.682 192.776 -40.682 192.96 Q -40.682 193.144 -40.65 193.368 L -40.234 197.88 L -40.154 199.416 L -40.058 199.416 L -36.826 194.728 L -36.938 193.464 Q -37.002 192.776 -37.106 192.456 Q -37.21 192.136 -37.442 192.048 Q -37.674 191.96 -38.138 191.96 L -38.058 191.48 L -33.978 191.48 L -34.058 191.96 Q -34.938 191.96 -35.234 192.248 Q -35.53 192.536 -35.466 193.432 L -35.082 197.752 L -35.018 199.384 L -34.938 199.384 L -31.53 194.024 Q -31.274 193.624 -31.05 193.192 Q -30.826 192.76 -30.826 192.408 Q -30.826 192.168 -31.002 192.064 Q -31.178 191.96 -31.706 191.96 L -31.61 191.48 Z " fill="black" /><path d="M -24.563 205.352 L -24.563 205.352 L -28.36 205.352 L -28.36 204.949 Q -27.554 204.949 -27.29 204.786 Q -27.027 204.624 -27.027 204.198 L -27.027 199.315 Q -27.027 199.013 -27.117 198.878 Q -27.206 198.744 -27.442 198.744 Q -27.621 198.744 -27.929 198.794 Q -28.237 198.845 -28.461 198.901 L -28.461 198.453 L -26.389 197.882 L -25.907 197.882 L -25.907 204.198 Q -25.907 204.624 -25.622 204.786 Q -25.336 204.949 -24.563 204.949 Z " fill="black" /><path d="M -18.085 190.648 L -18.085 190.648 L -22.245 203.416 L -23.141 203.416 L -18.965 190.648 Z " fill="black" /><path d="M -8.661 198.872 L -8.661 198.872 L -9.621 201.992 L -17.525 201.992 L -17.429 201.512 Q -16.805 201.512 -16.477 201.4 Q -16.149 201.288 -15.973 200.968 Q -15.797 200.648 -15.669 200.008 L -14.293 193.336 Q -14.181 192.808 -14.213 192.504 Q -14.245 192.2 -14.541 192.08 Q -14.837 191.96 -15.525 191.96 L -15.429 191.48 L -10.885 191.48 L -10.965 191.96 Q -11.829 191.96 -12.261 192.224 Q -12.693 192.488 -12.869 193.352 L -14.325 200.52 Q -14.437 201.048 -14.213 201.216 Q -13.989 201.384 -13.285 201.384 L -12.533 201.384 Q -11.765 201.384 -11.285 201.248 Q -10.805 201.112 -10.469 200.824 Q -10.133 200.536 -9.837 200.048 Q -9.541 199.56 -9.173 198.872 Z " fill="black" /><path d="M -3.374 205.352 L -3.374 205.352 L -7.171 205.352 L -7.171 204.949 Q -6.365 204.949 -6.102 204.786 Q -5.838 204.624 -5.838 204.198 L -5.838 199.315 Q -5.838 199.013 -5.928 198.878 Q -6.018 198.744 -6.253 198.744 Q -6.432 198.744 -6.74 198.794 Q -7.048 198.845 -7.272 198.901 L -7.272 198.453 L -5.2 197.882 L -4.718 197.882 L -4.718 204.198 Q -4.718 204.624 -4.433 204.786 Q -4.147 204.949 -3.374 204.949 Z " fill="black" /></g></g></g><circle cx="50.99999999999998" cy="197.99999999999997" r="2.6999999999999997" style="stroke:black;fill:black;stroke-width:2.0;stroke-dasharray:-;" /><g><g><g><path d="M 184.409 190.712 L 184.409 190.712 L 182.985 198.184 L 183.065 198.184 L 185.561 195.928 Q 185.737 195.784 185.841 195.64 Q 185.945 195.496 185.945 195.336 Q 185.945 195.08 185.729 195 Q 185.513 194.92 185.225 194.92 L 185.273 194.52 L 188.713 194.52 L 188.665 194.92 Q 187.849 194.936 187.401 195.224 Q 186.953 195.512 186.553 195.88 L 184.777 197.448 L 185.961 200.2 Q 186.137 200.6 186.305 200.832 Q 186.473 201.064 186.825 201.064 Q 187.241 201.064 187.537 200.784 Q 187.833 200.504 188.089 200.136 L 188.425 200.36 Q 188.361 200.472 188.185 200.76 Q 188.009 201.048 187.721 201.368 Q 187.433 201.688 187.057 201.92 Q 186.681 202.152 186.217 202.152 Q 185.817 202.152 185.561 201.96 Q 185.305 201.768 185.153 201.48 Q 185.001 201.192 184.873 200.904 L 183.769 198.232 L 182.841 199.048 L 182.281 201.992 L 180.969 201.992 L 182.857 192.264 Q 182.857 192.264 182.881 192.104 Q 182.905 191.944 182.905 191.784 Q 182.905 191.272 182.345 191.272 Q 182.201 191.272 182.025 191.288 Q 181.849 191.304 181.849 191.304 L 181.849 190.888 L 184.057 190.712 Z " fill="black" /><path d="M 195.596 197.912 L 195.596 197.912 Q 195.596 198.28 195.348 198.552 Q 195.1 198.824 194.636 198.824 Q 194.172 198.824 193.94 198.56 Q 193.708 198.296 193.708 197.896 Q 193.708 197.496 193.956 197.208 Q 194.204 196.92 194.652 196.92 Q 195.116 196.92 195.356 197.216 Q 195.596 197.512 195.596 197.912 Z " fill="black" /><path d="M 216.622 191.48 L 216.622 191.48 L 216.574 191.96 Q 215.998 191.976 215.646 192.216 Q 215.294 192.456 214.878 193.064 L 209.246 202.088 L 208.782 202.088 L 208.254 195.864 L 208.19 195.864 L 204.078 202.088 L 203.63 202.088 L 202.846 193.4 Q 202.782 192.616 202.51 192.288 Q 202.238 191.96 201.55 191.96 L 201.63 191.48 L 205.63 191.48 L 205.55 191.96 Q 204.862 191.96 204.59 192.096 Q 204.318 192.232 204.286 192.552 Q 204.286 192.584 204.286 192.648 Q 204.286 192.776 204.286 192.96 Q 204.286 193.144 204.318 193.368 L 204.734 197.88 L 204.814 199.416 L 204.91 199.416 L 208.142 194.728 L 208.03 193.464 Q 207.966 192.776 207.862 192.456 Q 207.758 192.136 207.526 192.048 Q 207.294 191.96 206.83 191.96 L 206.91 191.48 L 210.99 191.48 L 210.91 191.96 Q 210.03 191.96 209.734 192.248 Q 209.438 192.536 209.502 193.432 L 209.886 197.752 L 209.95 199.384 L 210.03 199.384 L 213.438 194.024 Q 213.694 193.624 213.918 193.192 Q 214.142 192.76 214.142 192.408 Q 214.142 192.168 213.966 192.064 Q 213.79 191.96 213.262 191.96 L 213.358 191.48 Z " fill="black" /><path d="M 220.405 205.352 L 220.405 205.352 L 216.608 205.352 L 216.608 204.949 Q 217.414 204.949 217.678 204.786 Q 217.941 204.624 217.941 204.198 L 217.941 199.315 Q 217.941 199.013 217.851 198.878 Q 217.762 198.744 217.526 198.744 Q 217.347 198.744 217.039 198.794 Q 216.731 198.845 216.507 198.901 L 216.507 198.453 L 218.579 197.882 L 219.061 197.882 L 219.061 204.198 Q 219.061 204.624 219.346 204.786 Q 219.632 204.949 220.405 204.949 Z " fill="black" /><path d="M 226.883 190.648 L 226.883 190.648 L 222.723 203.416 L 221.827 203.416 L 226.003 190.648 Z " fill="black" /><path d="M 236.307 198.872 L 236.307 198.872 L 235.347 201.992 L 227.443 201.992 L 227.539 201.512 Q 228.163 201.512 228.491 201.4 Q 228.819 201.288 228.995 200.968 Q 229.171 200.648 229.299 200.008 L 230.675 193.336 Q 230.787 192.808 230.755 192.504 Q 230.723 192.2 230.427 192.08 Q 230.131 191.96 229.443 191.96 L 229.539 191.48 L 234.083 191.48 L 234.003 191.96 Q 233.139 191.96 232.707 192.224 Q 232.275 192.488 232.099 193.352 L 230.643 200.52 Q 230.531 201.048 230.755 201.216 Q 230.979 201.384 231.683 201.384 L 232.435 201.384 Q 233.203 201.384 233.683 201.248 Q 234.163 201.112 234.499 200.824 Q 234.835 200.536 235.131 200.048 Q 235.427 199.56 235.795 198.872 Z " fill="black" /><path d="M 241.594 205.352 L 241.594 205.352 L 237.797 205.352 L 237.797 204.949 Q 238.603 204.949 238.866 204.786 Q 239.13 204.624 239.13 204.198 L 239.13 199.315 Q 239.13 199.013 239.04 198.878 Q 238.95 198.744 238.715 198.744 Q 238.536 198.744 238.228 198.794 Q 237.92 198.845 237.696 198.901 L 237.696 198.453 L 239.768 197.882 L 240.25 197.882 L 240.25 204.198 Q 240.25 204.624 240.535 204.786 Q 240.821 204.949 241.594 204.949 Z " fill="black" /></g></g></g><g><g><g><path d="M 184.073 94.712 L 184.073 94.712 L 182.649 102.184 L 182.729 102.184 L 185.225 99.928 Q 185.401 99.784 185.505 99.64 Q 185.609 99.496 185.609 99.336 Q 185.609 99.08 185.393 99 Q 185.177 98.92 184.889 98.92 L 184.937 98.52 L 188.377 98.52 L 188.329 98.92 Q 187.513 98.936 187.065 99.224 Q 186.617 99.512 186.217 99.88 L 184.441 101.448 L 185.625 104.2 Q 185.801 104.6 185.969 104.832 Q 186.137 105.064 186.489 105.064 Q 186.905 105.064 187.201 104.784 Q 187.497 104.504 187.753 104.136 L 188.089 104.36 Q 188.025 104.472 187.849 104.76 Q 187.673 105.048 187.385 105.368 Q 187.097 105.688 186.721 105.92 Q 186.345 106.152 185.881 106.152 Q 185.481 106.152 185.225 105.96 Q 184.969 105.768 184.817 105.48 Q 184.665 105.192 184.537 104.904 L 183.433 102.232 L 182.505 103.048 L 181.945 105.992 L 180.633 105.992 L 182.521 96.264 Q 182.521 96.264 182.545 96.104 Q 182.569 95.944 182.569 95.784 Q 182.569 95.272 182.009 95.272 Q 181.865 95.272 181.689 95.288 Q 181.513 95.304 181.513 95.304 L 181.513 94.888 L 183.721 94.712 Z " fill="black" /><path d="M 195.26 101.912 L 195.26 101.912 Q 195.26 102.28 195.012 102.552 Q 194.764 102.824 194.3 102.824 Q 193.836 102.824 193.604 102.56 Q 193.372 102.296 193.372 101.896 Q 193.372 101.496 193.62 101.208 Q 193.868 100.92 194.316 100.92 Q 194.78 100.92 195.02 101.216 Q 195.26 101.512 195.26 101.912 Z " fill="black" /><path d="M 216.286 95.48 L 216.286 95.48 L 216.238 95.96 Q 215.662 95.976 215.31 96.216 Q 214.958 96.456 214.542 97.064 L 208.91 106.088 L 208.446 106.088 L 207.918 99.864 L 207.854 99.864 L 203.742 106.088 L 203.294 106.088 L 202.51 97.4 Q 202.446 96.616 202.174 96.288 Q 201.902 95.96 201.214 95.96 L 201.294 95.48 L 205.294 95.48 L 205.214 95.96 Q 204.526 95.96 204.254 96.096 Q 203.982 96.232 203.95 96.552 Q 203.95 96.584 203.95 96.648 Q 203.95 96.776 203.95 96.96 Q 203.95 97.144 203.982 97.368 L 204.398 101.88 L 204.478 103.416 L 204.574 103.416 L 207.806 98.728 L 207.694 97.464 Q 207.63 96.776 207.526 96.456 Q 207.422 96.136 207.19 96.048 Q 206.958 95.96 206.494 95.96 L 206.574 95.48 L 210.654 95.48 L 210.574 95.96 Q 209.694 95.96 209.398 96.248 Q 209.102 96.536 209.166 97.432 L 209.55 101.752 L 209.614 103.384 L 209.694 103.384 L 213.102 98.024 Q 213.358 97.624 213.582 97.192 Q 213.806 96.76 213.806 96.408 Q 213.806 96.168 213.63 96.064 Q 213.454 95.96 212.926 95.96 L 213.022 95.48 Z " fill="black" /><path d="M 220.707 107.403 L 220.707 107.403 L 220.326 109.352 L 215.734 109.352 L 215.734 108.803 L 217.325 107.19 Q 217.952 106.563 218.361 106.082 Q 218.77 105.6 218.971 105.113 Q 219.173 104.626 219.173 103.998 Q 219.173 103.405 218.809 103.018 Q 218.445 102.632 217.784 102.632 Q 217.179 102.632 216.77 102.873 Q 216.362 103.114 216.048 103.662 L 215.746 103.517 Q 216.026 102.733 216.614 102.285 Q 217.202 101.837 218.064 101.837 Q 218.736 101.837 219.251 102.078 Q 219.766 102.318 220.058 102.766 Q 220.349 103.214 220.349 103.853 Q 220.349 104.402 220.102 104.883 Q 219.856 105.365 219.402 105.869 Q 218.949 106.373 218.322 106.989 L 216.922 108.344 L 216.922 108.422 L 217.795 108.378 L 219.251 108.378 Q 219.576 108.378 219.75 108.288 Q 219.923 108.198 220.046 107.98 Q 220.17 107.762 220.315 107.403 Z " fill="black" /><path d="M 226.715 94.648 L 226.715 94.648 L 222.555 107.416 L 221.659 107.416 L 225.835 94.648 Z " fill="black" /><path d="M 236.139 102.872 L 236.139 102.872 L 235.179 105.992 L 227.275 105.992 L 227.371 105.512 Q 227.995 105.512 228.323 105.4 Q 228.651 105.288 228.827 104.968 Q 229.003 104.648 229.131 104.008 L 230.507 97.336 Q 230.619 96.808 230.587 96.504 Q 230.555 96.2 230.259 96.08 Q 229.963 95.96 229.275 95.96 L 229.371 95.48 L 233.915 95.48 L 233.835 95.96 Q 232.971 95.96 232.539 96.224 Q 232.107 96.488 231.931 97.352 L 230.475 104.52 Q 230.363 105.048 230.587 105.216 Q 230.811 105.384 231.515 105.384 L 232.267 105.384 Q 233.035 105.384 233.515 105.248 Q 233.995 105.112 234.331 104.824 Q 234.667 104.536 234.963 104.048 Q 235.259 103.56 235.627 102.872 Z " fill="black" /><path d="M 242.064 107.403 L 242.064 107.403 L 241.683 109.352 L 237.091 109.352 L 237.091 108.803 L 238.682 107.19 Q 239.309 106.563 239.718 106.082 Q 240.126 105.6 240.328 105.113 Q 240.53 104.626 240.53 103.998 Q 240.53 103.405 240.166 103.018 Q 239.802 102.632 239.141 102.632 Q 238.536 102.632 238.127 102.873 Q 237.718 103.114 237.405 103.662 L 237.102 103.517 Q 237.382 102.733 237.97 102.285 Q 238.558 101.837 239.421 101.837 Q 240.093 101.837 240.608 102.078 Q 241.123 102.318 241.414 102.766 Q 241.706 103.214 241.706 103.853 Q 241.706 104.402 241.459 104.883 Q 241.213 105.365 240.759 105.869 Q 240.306 106.373 239.678 106.989 L 238.278 108.344 L 238.278 108.422 L 239.152 108.378 L 240.608 108.378 Q 240.933 108.378 241.106 108.288 Q 241.28 108.198 241.403 107.98 Q 241.526 107.762 241.672 107.403 Z " fill="black" /></g></g></g><circle cx="173.99999999999994" cy="35.999999999999986" r="2.6999999999999997" style="stroke:black;fill:white;stroke-width:2.0;stroke-dasharray:-;" /><g><g><g><path d="M 126.811 24.098 L 126.811 24.098 L 128.123 17.794 Q 128.267 17.17 128.259 16.81 Q 128.251 16.45 127.963 16.306 Q 127.675 16.162 126.939 16.162 L 127.035 15.682 L 131.467 15.682 L 131.371 16.162 Q 130.667 16.162 130.315 16.306 Q 129.963 16.45 129.819 16.81 Q 129.675 17.17 129.547 17.794 L 128.235 24.162 Q 128.187 24.418 128.155 24.626 Q 128.123 24.834 128.123 25.01 Q 128.123 25.458 128.387 25.586 Q 128.651 25.714 129.403 25.714 L 129.307 26.194 L 124.939 26.194 L 125.035 25.714 Q 125.691 25.714 126.019 25.602 Q 126.347 25.49 126.507 25.146 Q 126.667 24.802 126.811 24.098 Z " fill="black" /><path d="M 134.928 23.674 L 134.928 23.674 Q 135.768 23.674 136.395 24.038 Q 137.022 24.402 137.364 25.058 Q 137.706 25.713 137.706 26.598 Q 137.706 27.662 137.347 28.345 Q 136.989 29.028 136.362 29.358 Q 135.734 29.689 134.928 29.689 Q 134.11 29.689 133.478 29.347 Q 132.845 29.006 132.492 28.322 Q 132.139 27.639 132.139 26.609 Q 132.139 25.735 132.486 25.074 Q 132.834 24.414 133.461 24.044 Q 134.088 23.674 134.928 23.674 Z M 134.906 24.19 L 134.906 24.19 Q 134.166 24.19 133.746 24.789 Q 133.326 25.388 133.326 26.542 Q 133.326 27.964 133.758 28.552 Q 134.189 29.14 134.962 29.14 Q 135.454 29.129 135.802 28.894 Q 136.149 28.658 136.334 28.104 Q 136.518 27.55 136.518 26.598 Q 136.518 25.455 136.126 24.822 Q 135.734 24.19 134.906 24.19 Z " fill="black" /><path d="M 145.322 28.983 L 145.322 28.983 L 145.322 29.409 L 143.81 29.61 L 143.451 29.61 L 143.451 28.737 L 143.339 28.737 Q 142.914 29.118 142.477 29.392 Q 142.04 29.666 141.424 29.666 Q 140.595 29.666 140.158 29.162 Q 139.722 28.658 139.722 27.415 L 139.722 25.007 Q 139.722 24.548 139.559 24.442 Q 139.397 24.335 138.882 24.335 L 138.882 23.932 L 140.438 23.719 L 140.808 23.719 L 140.808 27.27 Q 140.808 27.897 140.954 28.244 Q 141.099 28.591 141.346 28.726 Q 141.592 28.86 141.883 28.86 Q 142.376 28.86 142.706 28.653 Q 143.037 28.446 143.395 28.154 L 143.395 25.007 Q 143.395 24.548 143.194 24.442 Q 142.992 24.335 142.421 24.335 L 142.421 23.932 L 144.09 23.719 L 144.482 23.719 L 144.482 28.255 Q 144.482 28.591 144.543 28.748 Q 144.605 28.905 144.762 28.944 Q 144.918 28.983 145.198 28.983 Z " fill="black" /><path d="M 149.69 28.434 L 149.69 28.434 L 149.947 28.647 Q 149.701 28.983 149.499 29.213 Q 149.298 29.442 149.04 29.566 Q 148.782 29.689 148.379 29.689 Q 147.73 29.689 147.433 29.319 Q 147.136 28.95 147.136 28.132 L 147.136 24.369 L 146.43 24.369 L 146.43 24.033 Q 146.834 23.742 147.17 23.322 Q 147.506 22.902 147.842 22.118 L 148.234 22.118 L 148.222 23.82 L 149.645 23.82 L 149.645 24.369 L 148.222 24.369 L 148.222 27.762 Q 148.222 28.39 148.34 28.653 Q 148.458 28.916 148.816 28.916 Q 149.141 28.916 149.309 28.798 Q 149.477 28.681 149.69 28.434 Z " fill="black" /><path d="M 166.691 20.962 L 166.691 20.962 L 157.155 20.962 L 157.155 19.874 L 166.691 19.874 Z M 166.691 24.226 L 166.691 24.226 L 157.155 24.226 L 157.155 23.154 L 166.691 23.154 Z " fill="black" /><path d="M 177.703 14.914 L 177.703 14.914 L 176.279 22.386 L 176.359 22.386 L 178.855 20.13 Q 179.031 19.986 179.135 19.842 Q 179.239 19.698 179.239 19.538 Q 179.239 19.282 179.023 19.202 Q 178.807 19.122 178.519 19.122 L 178.567 18.722 L 182.007 18.722 L 181.959 19.122 Q 181.143 19.138 180.695 19.426 Q 180.247 19.714 179.847 20.082 L 178.071 21.65 L 179.255 24.402 Q 179.431 24.802 179.599 25.034 Q 179.767 25.266 180.119 25.266 Q 180.535 25.266 180.831 24.986 Q 181.127 24.706 181.383 24.338 L 181.719 24.562 Q 181.655 24.674 181.479 24.962 Q 181.303 25.25 181.015 25.57 Q 180.727 25.89 180.351 26.122 Q 179.975 26.354 179.511 26.354 Q 179.111 26.354 178.855 26.162 Q 178.599 25.97 178.447 25.682 Q 178.295 25.394 178.167 25.106 L 177.063 22.434 L 176.135 23.25 L 175.575 26.194 L 174.263 26.194 L 176.151 16.466 Q 176.151 16.466 176.175 16.306 Q 176.199 16.146 176.199 15.986 Q 176.199 15.474 175.639 15.474 Q 175.495 15.474 175.319 15.49 Q 175.143 15.506 175.143 15.506 L 175.143 15.09 L 177.351 14.914 Z " fill="black" /><path d="M 188.89 22.114 L 188.89 22.114 Q 188.89 22.482 188.642 22.754 Q 188.394 23.026 187.93 23.026 Q 187.466 23.026 187.234 22.762 Q 187.002 22.498 187.002 22.098 Q 187.002 21.698 187.25 21.41 Q 187.498 21.122 187.946 21.122 Q 188.41 21.122 188.65 21.418 Q 188.89 21.714 188.89 22.114 Z " fill="black" /><path d="M 195.629 24.098 L 195.629 24.098 L 196.941 17.794 Q 197.085 17.17 197.077 16.81 Q 197.069 16.45 196.781 16.306 Q 196.493 16.162 195.757 16.162 L 195.853 15.682 L 200.285 15.682 L 200.189 16.162 Q 199.485 16.162 199.133 16.306 Q 198.781 16.45 198.637 16.81 Q 198.493 17.17 198.365 17.794 L 197.053 24.162 Q 197.005 24.418 196.973 24.626 Q 196.941 24.834 196.941 25.01 Q 196.941 25.458 197.205 25.586 Q 197.469 25.714 198.221 25.714 L 198.125 26.194 L 193.757 26.194 L 193.853 25.714 Q 194.509 25.714 194.837 25.602 Q 195.165 25.49 195.325 25.146 Q 195.485 24.802 195.629 24.098 Z " fill="black" /><path d="M 202.626 21.188 L 202.626 21.188 L 202.626 24.66 L 202.682 24.66 Q 203.006 24.279 203.449 23.977 Q 203.891 23.674 204.518 23.674 Q 205.101 23.674 205.577 24.027 Q 206.053 24.38 206.338 25.002 Q 206.624 25.623 206.624 26.43 Q 206.624 27.505 206.232 28.233 Q 205.84 28.961 205.162 29.325 Q 204.485 29.689 203.622 29.689 Q 203.118 29.689 202.693 29.605 Q 202.267 29.521 201.97 29.409 Q 201.674 29.297 201.539 29.241 L 201.539 22.521 Q 201.539 22.106 201.45 21.989 Q 201.36 21.871 200.979 21.871 Q 200.856 21.871 200.75 21.888 Q 200.643 21.905 200.643 21.905 L 200.643 21.479 L 202.166 21.188 Z M 202.626 25.242 L 202.626 25.242 L 202.626 28.602 Q 202.76 28.849 203.051 28.994 Q 203.342 29.14 203.824 29.14 Q 204.418 29.14 204.776 28.821 Q 205.134 28.502 205.297 27.97 Q 205.459 27.438 205.459 26.81 Q 205.459 26.239 205.33 25.718 Q 205.202 25.198 204.877 24.873 Q 204.552 24.548 203.981 24.548 Q 203.678 24.548 203.404 24.666 Q 203.13 24.783 202.928 24.946 Q 202.726 25.108 202.626 25.242 Z " fill="black" /><path d="M 210.712 29.14 L 210.712 29.14 L 210.712 29.554 L 207.867 29.554 L 207.867 29.14 Q 208.259 29.14 208.433 29.056 Q 208.606 28.972 208.651 28.787 Q 208.696 28.602 208.696 28.3 L 208.696 24.918 Q 208.696 24.537 208.573 24.458 Q 208.45 24.38 208.158 24.38 Q 208.013 24.38 207.923 24.391 Q 207.834 24.402 207.834 24.402 L 207.834 23.954 L 209.334 23.708 L 209.794 23.708 L 209.794 28.3 Q 209.794 28.625 209.844 28.81 Q 209.894 28.994 210.09 29.067 Q 210.286 29.14 210.712 29.14 Z M 209.234 21.233 L 209.234 21.233 Q 209.558 21.233 209.777 21.457 Q 209.995 21.681 209.995 21.972 Q 209.995 22.241 209.777 22.465 Q 209.558 22.689 209.234 22.689 Q 208.92 22.689 208.713 22.465 Q 208.506 22.241 208.506 21.972 Q 208.506 21.681 208.713 21.457 Q 208.92 21.233 209.234 21.233 Z " fill="black" /><path d="M 215.192 28.849 L 215.192 28.849 L 215.114 28.849 Q 214.733 29.162 214.274 29.398 Q 213.814 29.633 213.277 29.633 Q 212.571 29.633 212.196 29.207 Q 211.821 28.782 211.821 28.177 Q 211.821 27.662 212.062 27.314 Q 212.302 26.967 212.689 26.749 Q 213.075 26.53 213.523 26.396 Q 213.971 26.262 214.386 26.183 Q 214.8 26.105 215.08 26.038 L 215.08 25.455 Q 215.08 24.705 214.783 24.419 Q 214.486 24.134 213.915 24.134 Q 213.568 24.134 213.417 24.223 Q 213.266 24.313 213.226 24.514 Q 213.187 24.716 213.176 25.041 Q 213.165 25.287 213.03 25.438 Q 212.896 25.59 212.638 25.59 Q 212.392 25.59 212.218 25.438 Q 212.045 25.287 212.045 24.996 Q 212.045 24.649 212.314 24.346 Q 212.582 24.044 213.081 23.859 Q 213.579 23.674 214.251 23.674 Q 215.259 23.674 215.713 24.139 Q 216.166 24.604 216.166 25.534 L 216.166 28.278 Q 216.166 28.647 216.25 28.754 Q 216.334 28.86 216.514 28.86 Q 216.704 28.86 216.844 28.782 Q 216.984 28.703 217.107 28.558 L 217.354 28.793 Q 216.771 29.622 215.987 29.622 Q 215.55 29.622 215.388 29.414 Q 215.226 29.207 215.192 28.849 Z M 215.08 28.434 L 215.08 28.434 L 215.08 26.463 Q 214.565 26.598 214.072 26.76 Q 213.579 26.922 213.26 27.202 Q 212.941 27.482 212.941 27.986 Q 212.941 28.423 213.193 28.675 Q 213.445 28.927 213.837 28.927 Q 214.072 28.927 214.402 28.821 Q 214.733 28.714 215.08 28.434 Z " fill="black" /><path d="M 218.126 27.516 L 218.126 27.516 L 218.485 27.516 Q 218.63 28.166 218.832 28.524 Q 219.034 28.882 219.353 29.022 Q 219.672 29.162 220.131 29.162 Q 220.658 29.162 220.943 28.989 Q 221.229 28.815 221.229 28.378 Q 221.229 28.087 221.089 27.891 Q 220.949 27.695 220.641 27.516 Q 220.333 27.337 219.818 27.102 Q 219.291 26.844 218.916 26.62 Q 218.541 26.396 218.345 26.094 Q 218.149 25.791 218.149 25.332 Q 218.149 24.526 218.692 24.1 Q 219.235 23.674 220.053 23.674 Q 220.546 23.674 220.887 23.798 Q 221.229 23.921 221.43 24.01 L 221.453 24.01 L 221.632 23.73 L 221.946 23.73 L 221.968 25.59 L 221.576 25.59 Q 221.363 24.727 220.982 24.43 Q 220.602 24.134 220.109 24.134 Q 219.594 24.134 219.33 24.358 Q 219.067 24.582 219.067 24.94 Q 219.067 25.231 219.246 25.422 Q 219.426 25.612 219.756 25.774 Q 220.086 25.937 220.546 26.161 Q 221.061 26.407 221.453 26.67 Q 221.845 26.934 222.069 27.264 Q 222.293 27.594 222.293 28.087 Q 222.293 28.681 221.979 29.039 Q 221.666 29.398 221.173 29.549 Q 220.68 29.7 220.142 29.7 Q 219.594 29.7 219.291 29.588 Q 218.989 29.476 218.731 29.375 L 218.686 29.375 L 218.406 29.666 L 218.149 29.666 Z " fill="black" /></g></g></g><circle cx="86.99999999999997" cy="101.99999999999999" r="2.6999999999999997" style="stroke:black;fill:black;stroke-width:2.0;stroke-dasharray:-;" /><g><g><g><path d="M 113.032 166.503 L 113.032 166.503 L 117.4 159.943 Q 117.624 159.623 117.76 159.351 Q 117.896 159.079 117.896 158.887 Q 117.896 158.647 117.688 158.559 Q 117.48 158.471 116.936 158.471 L 116.968 157.991 L 120.424 157.991 L 120.392 158.471 Q 119.96 158.471 119.656 158.599 Q 119.352 158.727 119.04 159.087 Q 118.728 159.447 118.232 160.183 L 112.36 168.583 L 111.832 168.583 L 110.936 159.927 Q 110.84 159.127 110.584 158.799 Q 110.328 158.471 109.688 158.471 L 109.72 157.991 L 113.64 157.991 L 113.592 158.471 Q 112.984 158.471 112.632 158.711 Q 112.28 158.951 112.312 159.495 Q 112.312 159.575 112.336 159.783 Q 112.36 159.991 112.36 160.071 L 112.84 164.631 L 112.952 166.503 Z " fill="black" /><path d="M 120.877 163.497 L 120.877 163.497 L 120.877 166.969 L 120.933 166.969 Q 121.258 166.588 121.7 166.286 Q 122.142 165.983 122.77 165.983 Q 123.352 165.983 123.828 166.336 Q 124.304 166.689 124.59 167.31 Q 124.875 167.932 124.875 168.738 Q 124.875 169.814 124.483 170.542 Q 124.091 171.27 123.414 171.634 Q 122.736 171.998 121.874 171.998 Q 121.37 171.998 120.944 171.914 Q 120.518 171.83 120.222 171.718 Q 119.925 171.606 119.79 171.55 L 119.79 164.83 Q 119.79 164.415 119.701 164.298 Q 119.611 164.18 119.23 164.18 Q 119.107 164.18 119.001 164.197 Q 118.894 164.214 118.894 164.214 L 118.894 163.788 L 120.418 163.497 Z M 120.877 167.551 L 120.877 167.551 L 120.877 170.911 Q 121.011 171.158 121.302 171.303 Q 121.594 171.449 122.075 171.449 Q 122.669 171.449 123.027 171.13 Q 123.386 170.81 123.548 170.278 Q 123.71 169.746 123.71 169.119 Q 123.71 168.548 123.582 168.027 Q 123.453 167.506 123.128 167.182 Q 122.803 166.857 122.232 166.857 Q 121.93 166.857 121.655 166.974 Q 121.381 167.092 121.179 167.254 Q 120.978 167.417 120.877 167.551 Z " fill="black" /><path d="M 128.963 171.449 L 128.963 171.449 L 128.963 171.863 L 126.118 171.863 L 126.118 171.449 Q 126.51 171.449 126.684 171.365 Q 126.858 171.281 126.902 171.096 Q 126.947 170.911 126.947 170.609 L 126.947 167.226 Q 126.947 166.846 126.824 166.767 Q 126.701 166.689 126.41 166.689 Q 126.264 166.689 126.174 166.7 Q 126.085 166.711 126.085 166.711 L 126.085 166.263 L 127.586 166.017 L 128.045 166.017 L 128.045 170.609 Q 128.045 170.934 128.095 171.118 Q 128.146 171.303 128.342 171.376 Q 128.538 171.449 128.963 171.449 Z M 127.485 163.542 L 127.485 163.542 Q 127.81 163.542 128.028 163.766 Q 128.246 163.99 128.246 164.281 Q 128.246 164.55 128.028 164.774 Q 127.81 164.998 127.485 164.998 Q 127.171 164.998 126.964 164.774 Q 126.757 164.55 126.757 164.281 Q 126.757 163.99 126.964 163.766 Q 127.171 163.542 127.485 163.542 Z " fill="black" /><path d="M 133.443 171.158 L 133.443 171.158 L 133.365 171.158 Q 132.984 171.471 132.525 171.706 Q 132.066 171.942 131.528 171.942 Q 130.822 171.942 130.447 171.516 Q 130.072 171.09 130.072 170.486 Q 130.072 169.97 130.313 169.623 Q 130.554 169.276 130.94 169.058 Q 131.326 168.839 131.774 168.705 Q 132.222 168.57 132.637 168.492 Q 133.051 168.414 133.331 168.346 L 133.331 167.764 Q 133.331 167.014 133.034 166.728 Q 132.738 166.442 132.166 166.442 Q 131.819 166.442 131.668 166.532 Q 131.517 166.622 131.478 166.823 Q 131.438 167.025 131.427 167.35 Q 131.416 167.596 131.282 167.747 Q 131.147 167.898 130.89 167.898 Q 130.643 167.898 130.47 167.747 Q 130.296 167.596 130.296 167.305 Q 130.296 166.958 130.565 166.655 Q 130.834 166.353 131.332 166.168 Q 131.83 165.983 132.502 165.983 Q 133.51 165.983 133.964 166.448 Q 134.418 166.913 134.418 167.842 L 134.418 170.586 Q 134.418 170.956 134.502 171.062 Q 134.586 171.169 134.765 171.169 Q 134.955 171.169 135.095 171.09 Q 135.235 171.012 135.358 170.866 L 135.605 171.102 Q 135.022 171.93 134.238 171.93 Q 133.802 171.93 133.639 171.723 Q 133.477 171.516 133.443 171.158 Z M 133.331 170.743 L 133.331 170.743 L 133.331 168.772 Q 132.816 168.906 132.323 169.069 Q 131.83 169.231 131.511 169.511 Q 131.192 169.791 131.192 170.295 Q 131.192 170.732 131.444 170.984 Q 131.696 171.236 132.088 171.236 Q 132.323 171.236 132.654 171.13 Q 132.984 171.023 133.331 170.743 Z " fill="black" /><path d="M 136.378 169.825 L 136.378 169.825 L 136.736 169.825 Q 136.882 170.474 137.083 170.833 Q 137.285 171.191 137.604 171.331 Q 137.923 171.471 138.382 171.471 Q 138.909 171.471 139.194 171.298 Q 139.48 171.124 139.48 170.687 Q 139.48 170.396 139.34 170.2 Q 139.2 170.004 138.892 169.825 Q 138.584 169.646 138.069 169.41 Q 137.542 169.153 137.167 168.929 Q 136.792 168.705 136.596 168.402 Q 136.4 168.1 136.4 167.641 Q 136.4 166.834 136.943 166.409 Q 137.486 165.983 138.304 165.983 Q 138.797 165.983 139.138 166.106 Q 139.48 166.23 139.682 166.319 L 139.704 166.319 L 139.883 166.039 L 140.197 166.039 L 140.219 167.898 L 139.827 167.898 Q 139.614 167.036 139.234 166.739 Q 138.853 166.442 138.36 166.442 Q 137.845 166.442 137.582 166.666 Q 137.318 166.89 137.318 167.249 Q 137.318 167.54 137.498 167.73 Q 137.677 167.921 138.007 168.083 Q 138.338 168.246 138.797 168.47 Q 139.312 168.716 139.704 168.979 Q 140.096 169.242 140.32 169.573 Q 140.544 169.903 140.544 170.396 Q 140.544 170.99 140.23 171.348 Q 139.917 171.706 139.424 171.858 Q 138.931 172.009 138.394 172.009 Q 137.845 172.009 137.542 171.897 Q 137.24 171.785 136.982 171.684 L 136.938 171.684 L 136.658 171.975 L 136.4 171.975 Z " fill="black" /></g></g></g></svg>