<svg xmlns="http://www.w3.org/2000/svg" xmlns:xlink="http://www.w3.org/1999/xlink" xml:lang="en" height="149.23999999999998pt" width="429.14228634059947pt" viewBox="-85.6 -49.6 429.14228634059947 149.23999999999998"><circle cx="221.94228634059948" cy="36.0" r="18.0" style="stroke:black;fill:none;stroke-width:2.0;stroke-dasharray:-;" /><path d="M 0.0,-0.0 L 0.0,45.0 L 77.94228634059947,-0.0 L 0.0,-45.0 L 0.0,-0.0 M 77.94228634059947,-0.0" style="stroke:black;fill:none;stroke-width:2.0;stroke-dasharray:-;stroke-linecap:round;stroke-linejoin:round;" /><path d="M 6.142785792574934,22.5 L 13.342785792574933,22.5" style="stroke:black;fill:none;stroke-width:2.0;stroke-dasharray:-;stroke-linecap:round;stroke-linejoin:round;" /><path d="M 6.142785792574934,-22.5 L 13.342785792574933,-22.5" style="stroke:black;fill:none;stroke-width:2.0;stroke-dasharray:-;stroke-linecap:round;stroke-linejoin:round;" /><path d="M 9.742785792574933,-26.099999999999998 L 9.742785792574933,-18.900000000000002" style="stroke:black;fill:none;stroke-width:2.0;stroke-dasharray:-;stroke-linecap:round;stroke-linejoin:round;" /><path d="M 0.0,-22.5 L -36.0,-22.500000000000004 L -72.0,-22.500000000000007" style="stroke:black;fill:none;stroke-width:2.0;stroke-dasharray:-;stroke-linecap:round;stroke-linejoin:round;" /><path d="M -72.0,-22.500000000000007 L -72.0,-8.100000000000007 L -81.0,-8.100000000000007 L -63.0,-8.100000000000007 M -78.3,-3.7800000000000074 L -65.7,-3.7800000000000074 M -73.8,0.5399999999999925 L -70.2,0.5399999999999925" style="stroke:black;fill:none;stroke-width:2.0;stroke-dasharray:-;stroke-linecap:round;stroke-linejoin:round;" /><path d="M 77.94228634059947,-0.0 L 95.94228634059947,-0.0 L 113.94228634059947,-0.0" style="stroke:black;fill:none;stroke-width:2.0;stroke-dasharray:-;stroke-linecap:round;stroke-linejoin:round;" /><path d="M 113.94228634059947,-0.0 L 167.94228634059948,-0.0 L 221.94228634059948,-0.0" style="stroke:black;fill:none;stroke-width:2.0;stroke-dasharray:-;stroke-linecap:round;stroke-linejoin:round;" /><path d="M 221.94228634059948,-0.0 L 275.9422863405995,-0.0 L 329.9422863405994,-0.0" style="stroke:black;fill:none;stroke-width:2.0;stroke-dasharray:-;stroke-linecap:round;stroke-linejoin:round;" /><path d="M 329.9422863405994,-0.0 L 329.9422863405994,18.0 L 338.9422863405994,21.0 L 320.9422863405994,27.0 L 338.9422863405994,33.0 L 320.9422863405994,39.0 L 338.9422863405994,45.0 L 320.9422863405994,50.99999999999999 L 329.9422863405994,54.0 L 329.9422863405994,72.0" style="stroke:black;fill:none;stroke-width:2.0;stroke-dasharray:-;stroke-linecap:round;stroke-linejoin:round;" /><path d="M 329.9422863405994,72.0 L 329.9422863405994,86.39999999999999 L 320.9422863405994,86.39999999999999 L 338.9422863405994,86.39999999999999 M 323.6422863405994,90.72 L 336.24228634059943,90.72 M 328.1422863405994,95.04 L 331.74228634059943,95.04" style="stroke:black;fill:none;stroke-width:2.0;stroke-dasharray:-;stroke-linecap:round;stroke-linejoin:round;" /><path d="M 113.94228634059947,-0.0 L 113.94228634059947,36.0 L 113.94228634059945,72.0" style="stroke:black;fill:none;stroke-width:2.0;stroke-dasharray:-;stroke-linecap:round;stroke-linejoin:round;" /><path d="M 113.94228634059945,72.0 L 41.94228634059945,71.99999999999999 L -30.057713659400548,71.99999999999999" style="stroke:black;fill:none;stroke-width:2.0;stroke-dasharray:-;stroke-linecap:round;stroke-linejoin:round;" /><path d="M -30.057713659400548,71.99999999999999 L -30.057713659400548,47.24999999999999 L -30.05771365940054,22.5" style="stroke:black;fill:none;stroke-width:2.0;stroke-dasharray:-;stroke-linecap:round;stroke-linejoin:round;" /><path d="M -30.05771365940054,22.5 L -15.02885682970027,22.5 L 0.0,22.5" style="stroke:black;fill:none;stroke-width:2.0;stroke-dasharray:-;stroke-linecap:round;stroke-linejoin:round;" /><path d="M 146.3422863405995,-17.999999999999996 L 146.34228634059946,18.000000000000004 L 137.34228634059946,18.0" style="stroke:black;fill:none;stroke-width:2;stroke-dasharray:-;stroke-linecap:round;stroke-linejoin:round;" /><path d="M 130.34228634059946 18.0 L 137.34228634059946 15.3 L 137.34228634059946 20.7 Z" style="stroke:black;fill:black;stroke-linecap:butt;stroke-linejoin:miter;" /><path d="M 221.94228634059948,-0.0 L 221.94228634059948,18.0 L 221.94228634059948,18.0 M 221.94228634059948,54.0 L 221.94228634059948,54.0 L 221.94228634059948,72.0" style="stroke:black;fill:none;stroke-width:2.0;stroke-dasharray:-;stroke-linecap:round;stroke-linejoin:round;" /><path d="M 221.94228634059948,27.0 L 221.94228634059948,36.0" style="stroke:black;fill:none;stroke-width:2.0;stroke-dasharray:-;stroke-linecap:round;stroke-linejoin:round;" /><path d="M 221.94228634059948 43.0 L 219.2422863405995 36.0 L 224.64228634059947 36.0 Z" style="stroke:black;fill:black;stroke-linecap:butt;stroke-linejoin:miter;" /><path d="M 221.94228634059948,72.0 L 221.94228634059948,86.39999999999999 L 212.94228634059948,86.39999999999999 L 230.94228634059948,86.39999999999999 M 215.64228634059947,90.72 L 228.24228634059946,90.72 M 220.14228634059947,95.04 L 223.74228634059946,95.04" style="stroke:black;fill:none;stroke-width:2.0;stroke-dasharray:-;stroke-linecap:round;stroke-linejoin:round;" /><g><g><g><path d="M 31.498 -5.44 L 31.498 -5.44 L 31.402 -4.624 L 30.01 -4.784 L 30.01 -4.736 Q 30.282 -4.432 30.434 -3.976 Q 30.586 -3.52 30.586 -3.104 Q 30.586 -2.384 30.298 -1.896 Q 30.01 -1.408 29.546 -1.112 Q 29.082 -0.816 28.522 -0.664 Q 27.962 -0.512 27.434 -0.464 Q 26.794 -0.4 26.53 -0.192 Q 26.266 0.016 26.266 0.24 Q 26.266 0.528 26.586 0.68 Q 26.906 0.832 27.41 0.928 Q 27.914 1.024 28.49 1.144 Q 29.066 1.264 29.57 1.472 Q 30.074 1.68 30.394 2.056 Q 30.714 2.432 30.714 3.056 Q 30.714 3.744 30.266 4.328 Q 29.818 4.912 28.938 5.272 Q 28.058 5.632 26.778 5.632 Q 25.626 5.632 24.938 5.352 Q 24.25 5.072 23.946 4.632 Q 23.642 4.192 23.642 3.712 Q 23.642 2.944 24.234 2.472 Q 24.826 2 25.578 1.76 L 25.578 1.696 Q 25.37 1.568 25.186 1.336 Q 25.002 1.104 25.002 0.736 Q 25.002 0.336 25.21 0.096 Q 25.418 -0.144 25.746 -0.296 Q 26.074 -0.448 26.394 -0.56 L 26.394 -0.656 Q 25.77 -0.928 25.306 -1.424 Q 24.842 -1.92 24.842 -2.832 Q 24.842 -3.664 25.242 -4.296 Q 25.642 -4.928 26.338 -5.28 Q 27.034 -5.632 27.898 -5.632 Q 28.474 -5.632 28.77 -5.576 Q 29.066 -5.52 29.354 -5.44 Z M 29.562 3.648 L 29.562 3.648 Q 29.562 3.168 29.162 2.872 Q 28.762 2.576 28.17 2.4 Q 27.578 2.224 26.978 2.12 Q 26.378 2.016 25.962 1.936 Q 25.562 2.192 25.226 2.52 Q 24.89 2.848 24.89 3.472 Q 24.89 4.112 25.386 4.592 Q 25.882 5.072 27.098 5.072 Q 28.25 5.072 28.906 4.648 Q 29.562 4.224 29.562 3.648 Z M 29.162 -3.28 L 29.162 -3.28 Q 29.162 -4.08 28.858 -4.616 Q 28.554 -5.152 27.85 -5.152 Q 27.162 -5.152 26.714 -4.576 Q 26.266 -4 26.266 -2.832 Q 26.266 -2 26.554 -1.48 Q 26.842 -0.96 27.53 -0.96 Q 28.33 -0.96 28.746 -1.632 Q 29.162 -2.304 29.162 -3.28 Z " fill="black" /><path d="M 34.231 1.058 L 34.231 1.058 L 34.231 4.16 Q 34.231 4.496 34.298 4.675 Q 34.366 4.854 34.556 4.916 Q 34.746 4.978 35.116 4.978 L 35.116 5.392 L 32.294 5.392 L 32.294 4.978 Q 32.652 4.978 32.831 4.916 Q 33.01 4.854 33.066 4.67 Q 33.122 4.485 33.122 4.138 L 33.122 0.744 Q 33.122 0.43 33.005 0.324 Q 32.887 0.218 32.63 0.218 Q 32.506 0.218 32.411 0.229 Q 32.316 0.24 32.316 0.24 L 32.316 -0.186 L 33.783 -0.454 L 34.198 -0.454 L 34.198 0.464 L 34.276 0.464 Q 34.746 0.038 35.217 -0.225 Q 35.687 -0.488 36.326 -0.488 Q 36.852 -0.488 37.182 -0.219 Q 37.513 0.05 37.692 0.442 L 37.748 0.442 Q 38.767 -0.488 39.708 -0.488 Q 40.47 -0.488 40.912 -0.018 Q 41.354 0.453 41.354 1.472 L 41.354 3.936 Q 41.354 4.317 41.399 4.546 Q 41.444 4.776 41.623 4.877 Q 41.802 4.978 42.206 4.978 L 42.206 5.392 L 39.394 5.392 L 39.394 4.978 Q 39.809 4.978 39.994 4.871 Q 40.178 4.765 40.223 4.535 Q 40.268 4.306 40.268 3.936 L 40.268 1.606 Q 40.268 0.901 39.982 0.621 Q 39.697 0.341 39.249 0.341 Q 38.868 0.341 38.487 0.57 Q 38.106 0.8 37.815 1.024 L 37.815 3.936 Q 37.815 4.35 37.866 4.58 Q 37.916 4.81 38.112 4.894 Q 38.308 4.978 38.722 4.978 L 38.722 5.392 L 35.799 5.392 L 35.799 4.978 Q 36.225 4.978 36.421 4.894 Q 36.617 4.81 36.673 4.58 Q 36.729 4.35 36.729 3.936 L 36.729 1.573 Q 36.729 0.867 36.477 0.604 Q 36.225 0.341 35.788 0.341 Q 35.329 0.341 34.909 0.587 Q 34.489 0.834 34.231 1.058 Z " fill="black" /><path d="M 47.537 5.392 L 47.537 5.392 L 43.74 5.392 L 43.74 4.989 Q 44.546 4.989 44.81 4.826 Q 45.073 4.664 45.073 4.238 L 45.073 -0.645 Q 45.073 -0.947 44.983 -1.082 Q 44.894 -1.216 44.658 -1.216 Q 44.479 -1.216 44.171 -1.166 Q 43.863 -1.115 43.639 -1.059 L 43.639 -1.507 L 45.711 -2.078 L 46.193 -2.078 L 46.193 4.238 Q 46.193 4.664 46.478 4.826 Q 46.764 4.989 47.537 4.989 Z " fill="black" /><path d="M 53.876 3.443 L 53.876 3.443 L 53.495 5.392 L 48.903 5.392 L 48.903 4.843 L 50.494 3.23 Q 51.121 2.603 51.53 2.122 Q 51.938 1.64 52.14 1.153 Q 52.342 0.666 52.342 0.038 Q 52.342 -0.555 51.978 -0.942 Q 51.614 -1.328 50.953 -1.328 Q 50.348 -1.328 49.939 -1.087 Q 49.53 -0.846 49.217 -0.298 L 48.914 -0.443 Q 49.194 -1.227 49.782 -1.675 Q 50.37 -2.123 51.233 -2.123 Q 51.905 -2.123 52.42 -1.882 Q 52.935 -1.642 53.226 -1.194 Q 53.518 -0.746 53.518 -0.107 Q 53.518 0.442 53.271 0.923 Q 53.025 1.405 52.571 1.909 Q 52.118 2.413 51.49 3.029 L 50.09 4.384 L 50.09 4.462 L 50.964 4.418 L 52.42 4.418 Q 52.745 4.418 52.918 4.328 Q 53.092 4.238 53.215 4.02 Q 53.338 3.802 53.484 3.443 Z " fill="black" /></g></g></g><circle cx="113.94228634059947" cy="-0.0" r="2.6999999999999997" style="stroke:black;fill:black;stroke-width:2.0;stroke-dasharray:-;" /><circle cx="221.94228634059948" cy="-0.0" r="2.6999999999999997" style="stroke:black;fill:black;stroke-width:2.0;stroke-dasharray:-;" /><g><g><g><path d="M 267.397 -9.094 L 267.397 -9.094 L 271.765 -15.654 Q 271.989 -15.974 272.125 -16.246 Q 272.261 -16.518 272.261 -16.71 Q 272.261 -16.95 272.053 -17.038 Q 271.845 -17.126 271.301 -17.126 L 271.333 -17.606 L 274.789 -17.606 L 274.757 -17.126 Q 274.325 -17.126 274.021 -16.998 Q 273.717 -16.87 273.405 -16.51 Q 273.093 -16.15 272.597 -15.414 L 266.725 -7.014 L 266.197 -7.014 L 265.301 -15.67 Q 265.205 -16.47 264.949 -16.798 Q 264.693 -17.126 264.053 -17.126 L 264.085 -17.606 L 268.005 -17.606 L 267.957 -17.126 Q 267.349 -17.126 266.997 -16.886 Q 266.645 -16.646 266.677 -16.102 Q 266.677 -16.022 266.701 -15.814 Q 266.725 -15.606 266.725 -15.526 L 267.205 -10.966 L 267.317 -9.094 Z " fill="black" /><path d="M 274.697 -9.614 L 274.697 -9.614 Q 275.537 -9.614 276.165 -9.25 Q 276.792 -8.886 277.133 -8.231 Q 277.475 -7.576 277.475 -6.691 Q 277.475 -5.627 277.117 -4.944 Q 276.758 -4.261 276.131 -3.93 Q 275.504 -3.6 274.697 -3.6 Q 273.88 -3.6 273.247 -3.942 Q 272.614 -4.283 272.261 -4.966 Q 271.909 -5.65 271.909 -6.68 Q 271.909 -7.554 272.256 -8.214 Q 272.603 -8.875 273.23 -9.245 Q 273.857 -9.614 274.697 -9.614 Z M 274.675 -9.099 L 274.675 -9.099 Q 273.936 -9.099 273.516 -8.5 Q 273.096 -7.901 273.096 -6.747 Q 273.096 -5.325 273.527 -4.737 Q 273.958 -4.149 274.731 -4.149 Q 275.224 -4.16 275.571 -4.395 Q 275.918 -4.63 276.103 -5.185 Q 276.288 -5.739 276.288 -6.691 Q 276.288 -7.834 275.896 -8.466 Q 275.504 -9.099 274.675 -9.099 Z " fill="black" /><path d="M 285.091 -4.306 L 285.091 -4.306 L 285.091 -3.88 L 283.579 -3.678 L 283.221 -3.678 L 283.221 -4.552 L 283.109 -4.552 Q 282.683 -4.171 282.246 -3.897 Q 281.809 -3.622 281.193 -3.622 Q 280.365 -3.622 279.928 -4.126 Q 279.491 -4.63 279.491 -5.874 L 279.491 -8.282 Q 279.491 -8.741 279.329 -8.847 Q 279.166 -8.954 278.651 -8.954 L 278.651 -9.357 L 280.208 -9.57 L 280.577 -9.57 L 280.577 -6.019 Q 280.577 -5.392 280.723 -5.045 Q 280.869 -4.698 281.115 -4.563 Q 281.361 -4.429 281.653 -4.429 Q 282.145 -4.429 282.476 -4.636 Q 282.806 -4.843 283.165 -5.134 L 283.165 -8.282 Q 283.165 -8.741 282.963 -8.847 Q 282.761 -8.954 282.19 -8.954 L 282.19 -9.357 L 283.859 -9.57 L 284.251 -9.57 L 284.251 -5.034 Q 284.251 -4.698 284.313 -4.541 Q 284.374 -4.384 284.531 -4.345 Q 284.688 -4.306 284.968 -4.306 Z " fill="black" /><path d="M 289.459 -4.854 L 289.459 -4.854 L 289.717 -4.642 Q 289.47 -4.306 289.269 -4.076 Q 289.067 -3.846 288.809 -3.723 Q 288.552 -3.6 288.149 -3.6 Q 287.499 -3.6 287.202 -3.97 Q 286.905 -4.339 286.905 -5.157 L 286.905 -8.92 L 286.2 -8.92 L 286.2 -9.256 Q 286.603 -9.547 286.939 -9.967 Q 287.275 -10.387 287.611 -11.171 L 288.003 -11.171 L 287.992 -9.469 L 289.414 -9.469 L 289.414 -8.92 L 287.992 -8.92 L 287.992 -5.526 Q 287.992 -4.899 288.109 -4.636 Q 288.227 -4.373 288.585 -4.373 Q 288.91 -4.373 289.078 -4.49 Q 289.246 -4.608 289.459 -4.854 Z " fill="black" /></g></g></g><g><g><g><path d="M 295.797 28.997 L 295.797 28.997 L 295.701 29.477 Q 295.221 29.509 294.877 29.637 Q 294.533 29.765 294.165 30.085 Q 293.797 30.405 293.269 31.061 L 290.101 35.013 L 289.605 37.413 Q 289.461 38.117 289.525 38.461 Q 289.589 38.805 289.925 38.917 Q 290.261 39.029 290.917 39.029 L 290.837 39.509 L 286.133 39.509 L 286.213 39.029 Q 286.933 39.029 287.301 38.925 Q 287.669 38.821 287.845 38.469 Q 288.021 38.117 288.165 37.413 L 288.645 35.093 L 287.269 31.653 Q 286.869 30.645 286.565 30.189 Q 286.261 29.733 285.965 29.605 Q 285.669 29.477 285.269 29.477 L 285.365 28.997 L 289.493 28.997 L 289.397 29.477 Q 288.725 29.477 288.469 29.605 Q 288.213 29.733 288.213 29.909 Q 288.213 30.069 288.261 30.237 Q 288.309 30.405 288.373 30.581 L 289.301 32.917 L 289.733 34.245 L 289.813 34.245 L 292.805 30.533 Q 292.933 30.373 293.037 30.189 Q 293.141 30.005 293.141 29.845 Q 293.141 29.669 292.957 29.573 Q 292.773 29.477 292.197 29.477 L 292.293 28.997 Z " fill="black" /><path d="M 297.456 42.454 L 297.456 42.454 L 297.456 42.869 L 294.622 42.869 L 294.622 42.454 Q 295.014 42.454 295.188 42.376 Q 295.361 42.298 295.406 42.113 Q 295.451 41.928 295.451 41.614 L 295.451 35.701 Q 295.451 35.342 295.322 35.264 Q 295.193 35.186 294.925 35.186 Q 294.779 35.186 294.684 35.202 Q 294.589 35.219 294.589 35.219 L 294.589 34.794 L 296.112 34.502 L 296.549 34.502 L 296.549 41.614 Q 296.549 41.939 296.599 42.124 Q 296.649 42.309 296.845 42.382 Q 297.041 42.454 297.456 42.454 Z " fill="black" /><path d="M 301.376 36.989 L 301.376 36.989 Q 302.216 36.989 302.843 37.353 Q 303.47 37.717 303.812 38.372 Q 304.153 39.027 304.153 39.912 Q 304.153 40.976 303.795 41.659 Q 303.437 42.342 302.809 42.673 Q 302.182 43.003 301.376 43.003 Q 300.558 43.003 299.925 42.662 Q 299.293 42.32 298.94 41.637 Q 298.587 40.954 298.587 39.923 Q 298.587 39.05 298.934 38.389 Q 299.281 37.728 299.909 37.358 Q 300.536 36.989 301.376 36.989 Z M 301.353 37.504 L 301.353 37.504 Q 300.614 37.504 300.194 38.103 Q 299.774 38.702 299.774 39.856 Q 299.774 41.278 300.205 41.866 Q 300.637 42.454 301.409 42.454 Q 301.902 42.443 302.249 42.208 Q 302.597 41.973 302.781 41.418 Q 302.966 40.864 302.966 39.912 Q 302.966 38.77 302.574 38.137 Q 302.182 37.504 301.353 37.504 Z " fill="black" /><path d="M 308.857 42.163 L 308.857 42.163 L 308.779 42.163 Q 308.398 42.477 307.939 42.712 Q 307.48 42.947 306.942 42.947 Q 306.237 42.947 305.861 42.522 Q 305.486 42.096 305.486 41.491 Q 305.486 40.976 305.727 40.629 Q 305.968 40.282 306.354 40.063 Q 306.741 39.845 307.189 39.71 Q 307.637 39.576 308.051 39.498 Q 308.465 39.419 308.745 39.352 L 308.745 38.77 Q 308.745 38.019 308.449 37.734 Q 308.152 37.448 307.581 37.448 Q 307.233 37.448 307.082 37.538 Q 306.931 37.627 306.892 37.829 Q 306.853 38.03 306.841 38.355 Q 306.83 38.602 306.696 38.753 Q 306.561 38.904 306.304 38.904 Q 306.057 38.904 305.884 38.753 Q 305.71 38.602 305.71 38.31 Q 305.71 37.963 305.979 37.661 Q 306.248 37.358 306.746 37.174 Q 307.245 36.989 307.917 36.989 Q 308.925 36.989 309.378 37.454 Q 309.832 37.918 309.832 38.848 L 309.832 41.592 Q 309.832 41.962 309.916 42.068 Q 310 42.174 310.179 42.174 Q 310.369 42.174 310.509 42.096 Q 310.649 42.018 310.773 41.872 L 311.019 42.107 Q 310.437 42.936 309.653 42.936 Q 309.216 42.936 309.053 42.729 Q 308.891 42.522 308.857 42.163 Z M 308.745 41.749 L 308.745 41.749 L 308.745 39.778 Q 308.23 39.912 307.737 40.074 Q 307.245 40.237 306.925 40.517 Q 306.606 40.797 306.606 41.301 Q 306.606 41.738 306.858 41.99 Q 307.11 42.242 307.502 42.242 Q 307.737 42.242 308.068 42.135 Q 308.398 42.029 308.745 41.749 Z " fill="black" /><path d="M 317.739 42.723 L 317.739 42.723 L 316.227 42.925 L 315.824 42.925 L 315.824 42.141 L 315.745 42.141 Q 315.376 42.454 314.911 42.712 Q 314.446 42.97 313.864 42.97 Q 313.203 42.97 312.738 42.611 Q 312.273 42.253 312.027 41.626 Q 311.781 40.998 311.781 40.203 Q 311.781 39.206 312.167 38.484 Q 312.553 37.762 313.197 37.375 Q 313.841 36.989 314.603 36.989 Q 315.264 36.989 315.801 37.291 L 315.801 35.846 Q 315.801 35.443 315.717 35.314 Q 315.633 35.186 315.275 35.186 Q 315.197 35.186 315.068 35.202 Q 314.939 35.219 314.939 35.219 L 314.939 34.794 L 316.429 34.502 L 316.888 34.502 L 316.888 41.603 Q 316.888 42.04 317.011 42.169 Q 317.134 42.298 317.437 42.298 L 317.739 42.298 Z M 315.801 41.626 L 315.801 41.626 L 315.801 38.355 Q 315.678 38.042 315.393 37.795 Q 315.107 37.549 314.581 37.549 Q 313.83 37.549 313.349 38.058 Q 312.867 38.568 312.867 39.744 Q 312.867 40.942 313.287 41.497 Q 313.707 42.051 314.469 42.051 Q 314.827 42.051 315.124 41.95 Q 315.421 41.85 315.801 41.626 Z " fill="black" /></g></g></g><g><g><g><path d="M 133.259 -26.074 L 133.259 -26.074 L 128.415 -26.074 L 128.415 -26.466 Q 129.409 -26.466 129.815 -26.676 Q 130.221 -26.886 130.221 -27.404 L 130.221 -33.326 Q 130.221 -33.69 130.123 -33.851 Q 130.025 -34.012 129.759 -34.012 Q 129.549 -34.012 129.101 -33.956 Q 128.653 -33.9 128.331 -33.788 L 128.331 -34.25 L 131.047 -35.02 L 131.453 -35.02 L 131.453 -27.404 Q 131.453 -26.886 131.873 -26.676 Q 132.293 -26.466 133.259 -26.466 Z " fill="black" /><path d="M 139.139 -36 L 139.139 -36 L 135.499 -24.828 L 134.715 -24.828 L 138.369 -36 Z " fill="black" /><path d="M 146.503 -32.612 L 146.503 -32.612 L 146.419 -31.898 L 145.201 -32.038 L 145.201 -31.996 Q 145.439 -31.73 145.572 -31.331 Q 145.705 -30.932 145.705 -30.568 Q 145.705 -29.938 145.453 -29.511 Q 145.201 -29.084 144.795 -28.825 Q 144.389 -28.566 143.899 -28.433 Q 143.409 -28.3 142.947 -28.258 Q 142.387 -28.202 142.156 -28.02 Q 141.925 -27.838 141.925 -27.642 Q 141.925 -27.39 142.205 -27.257 Q 142.485 -27.124 142.926 -27.04 Q 143.367 -26.956 143.871 -26.851 Q 144.375 -26.746 144.816 -26.564 Q 145.257 -26.382 145.537 -26.053 Q 145.817 -25.724 145.817 -25.178 Q 145.817 -24.576 145.425 -24.065 Q 145.033 -23.554 144.263 -23.239 Q 143.493 -22.924 142.373 -22.924 Q 141.365 -22.924 140.763 -23.169 Q 140.161 -23.414 139.895 -23.799 Q 139.629 -24.184 139.629 -24.604 Q 139.629 -25.276 140.147 -25.689 Q 140.665 -26.102 141.323 -26.312 L 141.323 -26.368 Q 141.141 -26.48 140.98 -26.683 Q 140.819 -26.886 140.819 -27.208 Q 140.819 -27.558 141.001 -27.768 Q 141.183 -27.978 141.47 -28.111 Q 141.757 -28.244 142.037 -28.342 L 142.037 -28.426 Q 141.491 -28.664 141.085 -29.098 Q 140.679 -29.532 140.679 -30.33 Q 140.679 -31.058 141.029 -31.611 Q 141.379 -32.164 141.988 -32.472 Q 142.597 -32.78 143.353 -32.78 Q 143.857 -32.78 144.116 -32.731 Q 144.375 -32.682 144.627 -32.612 Z M 144.809 -24.66 L 144.809 -24.66 Q 144.809 -25.08 144.459 -25.339 Q 144.109 -25.598 143.591 -25.752 Q 143.073 -25.906 142.548 -25.997 Q 142.023 -26.088 141.659 -26.158 Q 141.309 -25.934 141.015 -25.647 Q 140.721 -25.36 140.721 -24.814 Q 140.721 -24.254 141.155 -23.834 Q 141.589 -23.414 142.653 -23.414 Q 143.661 -23.414 144.235 -23.785 Q 144.809 -24.156 144.809 -24.66 Z M 144.459 -30.722 L 144.459 -30.722 Q 144.459 -31.422 144.193 -31.891 Q 143.927 -32.36 143.311 -32.36 Q 142.709 -32.36 142.317 -31.856 Q 141.925 -31.352 141.925 -30.33 Q 141.925 -29.602 142.177 -29.147 Q 142.429 -28.692 143.031 -28.692 Q 143.731 -28.692 144.095 -29.28 Q 144.459 -29.868 144.459 -30.722 Z " fill="black" /><path d="M 148.894 -26.927 L 148.894 -26.927 L 148.894 -24.212 Q 148.894 -23.918 148.953 -23.761 Q 149.011 -23.604 149.178 -23.55 Q 149.345 -23.497 149.668 -23.497 L 149.668 -23.134 L 147.198 -23.134 L 147.198 -23.497 Q 147.512 -23.497 147.669 -23.55 Q 147.826 -23.604 147.875 -23.766 Q 147.924 -23.928 147.924 -24.232 L 147.924 -27.201 Q 147.924 -27.475 147.821 -27.568 Q 147.718 -27.662 147.492 -27.662 Q 147.385 -27.662 147.301 -27.652 Q 147.218 -27.642 147.218 -27.642 L 147.218 -28.014 L 148.502 -28.25 L 148.864 -28.25 L 148.864 -27.446 L 148.933 -27.446 Q 149.345 -27.818 149.756 -28.049 Q 150.168 -28.279 150.726 -28.279 Q 151.187 -28.279 151.476 -28.044 Q 151.765 -27.809 151.922 -27.466 L 151.971 -27.466 Q 152.863 -28.279 153.686 -28.279 Q 154.352 -28.279 154.739 -27.867 Q 155.127 -27.456 155.127 -26.564 L 155.127 -24.408 Q 155.127 -24.075 155.166 -23.874 Q 155.205 -23.673 155.362 -23.585 Q 155.519 -23.497 155.871 -23.497 L 155.871 -23.134 L 153.412 -23.134 L 153.412 -23.497 Q 153.774 -23.497 153.936 -23.59 Q 154.098 -23.683 154.137 -23.884 Q 154.176 -24.085 154.176 -24.408 L 154.176 -26.446 Q 154.176 -27.064 153.926 -27.309 Q 153.676 -27.554 153.284 -27.554 Q 152.951 -27.554 152.618 -27.353 Q 152.285 -27.152 152.03 -26.956 L 152.03 -24.408 Q 152.03 -24.045 152.074 -23.844 Q 152.118 -23.644 152.289 -23.57 Q 152.461 -23.497 152.824 -23.497 L 152.824 -23.134 L 150.266 -23.134 L 150.266 -23.497 Q 150.638 -23.497 150.81 -23.57 Q 150.981 -23.644 151.03 -23.844 Q 151.079 -24.045 151.079 -24.408 L 151.079 -26.476 Q 151.079 -27.093 150.859 -27.323 Q 150.638 -27.554 150.256 -27.554 Q 149.854 -27.554 149.487 -27.338 Q 149.119 -27.123 148.894 -26.927 Z " fill="black" /><path d="M 160.536 -23.134 L 160.536 -23.134 L 157.214 -23.134 L 157.214 -23.487 Q 157.92 -23.487 158.15 -23.629 Q 158.38 -23.771 158.38 -24.143 L 158.38 -28.416 Q 158.38 -28.681 158.302 -28.798 Q 158.223 -28.916 158.018 -28.916 Q 157.861 -28.916 157.591 -28.872 Q 157.322 -28.828 157.126 -28.779 L 157.126 -29.171 L 158.939 -29.671 L 159.36 -29.671 L 159.36 -24.143 Q 159.36 -23.771 159.61 -23.629 Q 159.86 -23.487 160.536 -23.487 Z " fill="black" /><path d="M 166.083 -24.839 L 166.083 -24.839 L 165.75 -23.134 L 161.732 -23.134 L 161.732 -23.614 L 163.123 -25.025 Q 163.672 -25.574 164.03 -25.996 Q 164.388 -26.417 164.564 -26.843 Q 164.74 -27.27 164.74 -27.818 Q 164.74 -28.338 164.422 -28.676 Q 164.103 -29.014 163.525 -29.014 Q 162.996 -29.014 162.638 -28.803 Q 162.281 -28.593 162.006 -28.112 L 161.742 -28.24 Q 161.987 -28.926 162.501 -29.318 Q 163.016 -29.71 163.77 -29.71 Q 164.358 -29.71 164.809 -29.499 Q 165.26 -29.288 165.515 -28.896 Q 165.769 -28.504 165.769 -27.946 Q 165.769 -27.466 165.554 -27.044 Q 165.338 -26.623 164.941 -26.182 Q 164.544 -25.741 163.996 -25.202 L 162.771 -24.016 L 162.771 -23.947 L 163.535 -23.987 L 164.809 -23.987 Q 165.093 -23.987 165.245 -24.065 Q 165.397 -24.143 165.505 -24.334 Q 165.613 -24.526 165.74 -24.839 Z " fill="black" /></g></g></g><g><g><g><path d="M 187.721 40.806 L 187.721 40.806 L 189.033 34.502 Q 189.177 33.878 189.169 33.518 Q 189.161 33.158 188.873 33.014 Q 188.585 32.87 187.849 32.87 L 187.945 32.39 L 192.377 32.39 L 192.281 32.87 Q 191.577 32.87 191.225 33.014 Q 190.873 33.158 190.729 33.518 Q 190.585 33.878 190.457 34.502 L 189.145 40.87 Q 189.097 41.126 189.065 41.334 Q 189.033 41.542 189.033 41.718 Q 189.033 42.166 189.297 42.294 Q 189.561 42.422 190.313 42.422 L 190.217 42.902 L 185.849 42.902 L 185.945 42.422 Q 186.601 42.422 186.929 42.31 Q 187.257 42.198 187.417 41.854 Q 187.577 41.51 187.721 40.806 Z " fill="black" /><path d="M 198.582 42.51 L 198.582 42.51 L 198.582 45.018 Q 198.582 45.332 198.638 45.517 Q 198.694 45.702 198.885 45.78 Q 199.075 45.858 199.478 45.858 L 199.478 46.262 L 196.6 46.262 L 196.6 45.858 Q 197.025 45.858 197.216 45.78 Q 197.406 45.702 197.451 45.517 Q 197.496 45.332 197.496 45.018 L 197.496 42.879 Q 197.496 42.129 197.322 41.776 Q 197.149 41.423 196.885 41.311 Q 196.622 41.199 196.353 41.199 Q 195.872 41.199 195.508 41.446 Q 195.144 41.692 194.875 41.916 L 194.875 45.018 Q 194.875 45.332 194.925 45.517 Q 194.976 45.702 195.166 45.78 Q 195.357 45.858 195.771 45.858 L 195.771 46.262 L 192.949 46.262 L 192.949 45.858 Q 193.341 45.858 193.514 45.78 Q 193.688 45.702 193.733 45.517 Q 193.777 45.332 193.777 45.018 L 193.777 41.614 Q 193.777 41.3 193.66 41.194 Q 193.542 41.087 193.285 41.087 Q 193.15 41.087 193.061 41.098 Q 192.971 41.11 192.971 41.11 L 192.971 40.684 L 194.472 40.415 L 194.841 40.415 L 194.841 41.334 L 194.92 41.334 Q 195.401 40.897 195.844 40.639 Q 196.286 40.382 196.846 40.382 Q 197.507 40.382 197.882 40.678 Q 198.257 40.975 198.42 41.457 Q 198.582 41.938 198.582 42.51 Z " fill="black" /><path d="M 198.574 35.193 L 198.574 35.193 L 198.193 37.142 L 193.601 37.142 L 193.601 36.593 L 195.192 34.98 Q 195.819 34.353 196.228 33.871 Q 196.637 33.39 196.838 32.902 Q 197.04 32.415 197.04 31.788 Q 197.04 31.194 196.676 30.808 Q 196.312 30.422 195.651 30.422 Q 195.046 30.422 194.637 30.662 Q 194.229 30.903 193.915 31.452 L 193.613 31.306 Q 193.893 30.522 194.481 30.074 Q 195.069 29.626 195.931 29.626 Q 196.603 29.626 197.118 29.867 Q 197.633 30.108 197.925 30.556 Q 198.216 31.004 198.216 31.642 Q 198.216 32.191 197.969 32.673 Q 197.723 33.154 197.269 33.658 Q 196.816 34.162 196.189 34.778 L 194.789 36.134 L 194.789 36.212 L 195.662 36.167 L 197.118 36.167 Q 197.443 36.167 197.617 36.078 Q 197.79 35.988 197.913 35.77 Q 198.037 35.551 198.182 35.193 Z " fill="black" /><rect x="185.849" y="26.282" width="14.285" height="1.088" fill="black" /></g></g></g></svg>