<svg xmlns="http://www.w3.org/2000/svg" xmlns:xlink="http://www.w3.org/1999/xlink" xml:lang="en" height="139.192pt" width="440.036pt" viewBox="-71.13199999999999 -39.412000000000006 440.036 139.192"><path d="M 0.0,59.99999999999999 L 0.0,45.0 L -14.999999999999998,45.0 L -14.999999999999998,14.999999999999998 L 0.0,14.999999999999998 L 0.0,-0.0" style="stroke:black;fill:none;stroke-width:2.0;stroke-dasharray:-;stroke-linecap:round;stroke-linejoin:round;" /><path d="M -17.999999999999996,42.0 L -17.999999999999996,17.999999999999996" style="stroke:black;fill:none;stroke-width:2.0;stroke-dasharray:-;stroke-linecap:round;stroke-linejoin:round;" /><path d="M -32.99999999999999,29.999999999999996 L -17.999999999999996,29.999999999999996" style="stroke:black;fill:none;stroke-width:2.0;stroke-dasharray:-;stroke-linecap:round;stroke-linejoin:round;" /><path d="M -5.999999999999998,29.999999999999996 L 0.0,29.999999999999996" style="stroke:black;fill:none;stroke-width:2.0;stroke-dasharray:-;stroke-linecap:round;stroke-linejoin:round;" /><path d="M -12.999999999999998 29.999999999999996 L -5.999999999999997 25.499999999999996 L -5.999999999999999 34.5 Z" style="stroke:black;fill:black;stroke-linecap:butt;stroke-linejoin:miter;" /><path d="M 0.0,-0.0 L 5.51091059616309e-16,-9.0 L 1.102182119232618e-15,-18.0" style="stroke:black;fill:none;stroke-width:2.0;stroke-dasharray:-;stroke-linecap:round;stroke-linejoin:round;" /><path d="M 0.0,59.99999999999999 L -1.6532731788489267e-15,69.0 L -3.3065463576978533e-15,78.0" style="stroke:black;fill:none;stroke-width:2.0;stroke-dasharray:-;stroke-linecap:round;stroke-linejoin:round;" /><path d="M -32.99999999999999,29.999999999999996 L -41.99999999999999,29.999999999999996 L -50.99999999999999,29.999999999999993" style="stroke:black;fill:none;stroke-width:2.0;stroke-dasharray:-;stroke-linecap:round;stroke-linejoin:round;" /><path d="M 0.0,29.999999999999996 L 9.0,29.999999999999996 L 18.0,29.999999999999996" style="stroke:black;fill:none;stroke-width:2.0;stroke-dasharray:-;stroke-linecap:round;stroke-linejoin:round;" /><path d="M 180.0,59.99999999999999 L 180.0,45.0 L 165.0,45.0 L 165.0,14.999999999999998 L 180.0,14.999999999999998 L 180.0,-0.0" style="stroke:black;fill:none;stroke-width:2.0;stroke-dasharray:-;stroke-linecap:round;stroke-linejoin:round;" /><path d="M 171.0,45.0 L 165.0,45.0" style="stroke:black;fill:none;stroke-width:2.0;stroke-dasharray:-;stroke-linecap:round;stroke-linejoin:round;" /><path d="M 178.0 45.0 L 171.0 49.5 L 171.0 40.5 Z" style="stroke:black;fill:black;stroke-linecap:butt;stroke-linejoin:miter;" /><path d="M 162.0,42.0 L 162.0,17.999999999999996" style="stroke:black;fill:none;stroke-width:2.0;stroke-dasharray:-;stroke-linecap:round;stroke-linejoin:round;" /><path d="M 147.00000000000003,29.999999999999996 L 162.0,29.999999999999996" style="stroke:black;fill:none;stroke-width:2.0;stroke-dasharray:-;stroke-linecap:round;stroke-linejoin:round;" /><path d="M 180.0,-0.0 L 180.0,-9.0 L 180.0,-18.0" style="stroke:black;fill:none;stroke-width:2.0;stroke-dasharray:-;stroke-linecap:round;stroke-linejoin:round;" /><path d="M 180.0,59.99999999999999 L 180.0,69.0 L 180.0,78.0" style="stroke:black;fill:none;stroke-width:2.0;stroke-dasharray:-;stroke-linecap:round;stroke-linejoin:round;" /><path d="M 147.00000000000003,29.999999999999996 L 138.00000000000003,29.999999999999996 L 129.00000000000003,29.999999999999993" style="stroke:black;fill:none;stroke-width:2.0;stroke-dasharray:-;stroke-linecap:round;stroke-linejoin:round;" /><path d="M 360.0,54.0 L 360.0,39.0 L 336.0,39.0 L 336.0,14.999999999999998 L 360.0,14.999999999999998 L 360.0,-0.0" style="stroke:black;fill:none;stroke-width:2.0;stroke-dasharray:-;stroke-linecap:round;stroke-linejoin:round;" /><path d="M 330.0,39.0 L 330.0,14.999999999999998" style="stroke:black;fill:none;stroke-width:2.0;stroke-dasharray:-;stroke-linecap:round;stroke-linejoin:round;" /><path d="M 310.79999999999995,27.0 L 330.0,27.0" style="stroke:black;fill:none;stroke-width:2.0;stroke-dasharray:-;stroke-linecap:round;stroke-linejoin:round;" /><path d="M 360.0,-0.0 L 360.0,-9.0 L 360.0,-18.0" style="stroke:black;fill:none;stroke-width:2.0;stroke-dasharray:-;stroke-linecap:round;stroke-linejoin:round;" /><path d="M 360.0,54.0 L 360.0,63.0 L 360.0,72.0" style="stroke:black;fill:none;stroke-width:2.0;stroke-dasharray:-;stroke-linecap:round;stroke-linejoin:round;" /><path d="M 310.79999999999995,27.0 L 301.79999999999995,27.0 L 292.79999999999995,26.999999999999996" style="stroke:black;fill:none;stroke-width:2.0;stroke-dasharray:-;stroke-linecap:round;stroke-linejoin:round;" /><circle cx="1.102182119232618e-15" cy="-18.0" r="2.6999999999999997" style="stroke:black;fill:white;stroke-width:2.0;stroke-dasharray:-;" /><g><g><g><path d="M -2.832 -24.3 L -2.832 -24.3 L -2.832 -34.812 L -0.144 -34.812 Q 2.336 -34.812 3.632 -33.46 Q 4.928 -32.108 4.928 -29.596 Q 4.928 -27.084 3.64 -25.692 Q 2.352 -24.3 -0.08 -24.3 Z M -1.456 -25.42 L -1.456 -25.42 L -0.24 -25.42 Q 1.648 -25.42 2.584 -26.516 Q 3.52 -27.612 3.52 -29.596 Q 3.52 -31.58 2.584 -32.636 Q 1.648 -33.692 -0.24 -33.692 L -1.456 -33.692 Z " fill="black" /></g></g></g><circle cx="-3.3065463576978533e-15" cy="78.0" r="2.6999999999999997" style="stroke:black;fill:white;stroke-width:2.0;stroke-dasharray:-;" /><g><g><g><path d="M 0.448 95.18 L 0.448 95.18 Q -0.704 95.18 -1.656 94.756 Q -2.608 94.332 -3.312 93.628 L -2.496 92.684 Q -1.92 93.276 -1.144 93.628 Q -0.368 93.98 0.512 93.98 Q 1.536 93.98 2.12 93.516 Q 2.704 93.052 2.704 92.268 Q 2.704 91.756 2.472 91.436 Q 2.24 91.116 1.832 90.892 Q 1.424 90.668 0.912 90.46 L -0.624 89.804 Q -1.088 89.596 -1.6 89.268 Q -2.112 88.94 -2.456 88.42 Q -2.8 87.9 -2.8 87.132 Q -2.8 86.3 -2.36 85.66 Q -1.92 85.02 -1.16 84.66 Q -0.4 84.3 0.56 84.3 Q 1.536 84.3 2.352 84.66 Q 3.168 85.02 3.744 85.596 L 3.024 86.476 Q 2.512 86.012 1.912 85.748 Q 1.312 85.484 0.592 85.484 Q -0.32 85.484 -0.864 85.892 Q -1.408 86.3 -1.408 87.004 Q -1.408 87.5 -1.144 87.82 Q -0.88 88.14 -0.472 88.348 Q -0.064 88.556 0.368 88.732 L 1.888 89.372 Q 2.496 89.628 3 89.988 Q 3.504 90.348 3.8 90.876 Q 4.096 91.404 4.096 92.14 Q 4.096 93.004 3.656 93.692 Q 3.216 94.38 2.4 94.78 Q 1.584 95.18 0.448 95.18 Z " fill="black" /></g></g></g><circle cx="-50.99999999999999" cy="29.999999999999993" r="2.6999999999999997" style="stroke:black;fill:white;stroke-width:2.0;stroke-dasharray:-;" /><g><g><g><path d="M -60.82 35.44 L -60.82 35.44 Q -62.244 35.44 -63.34 34.792 Q -64.436 34.144 -65.052 32.928 Q -65.668 31.712 -65.668 30.032 Q -65.668 28.304 -65.028 27.08 Q -64.388 25.856 -63.292 25.208 Q -62.196 24.56 -60.804 24.56 Q -59.62 24.56 -58.876 24.96 Q -58.132 25.36 -57.652 25.856 L -58.404 26.736 Q -58.804 26.32 -59.348 26.032 Q -59.892 25.744 -60.74 25.744 Q -62.34 25.744 -63.3 26.88 Q -64.26 28.016 -64.26 30.016 Q -64.26 31.936 -63.34 33.088 Q -62.42 34.24 -60.74 34.24 Q -59.428 34.24 -58.772 33.632 L -58.772 30.928 L -61.028 30.928 L -61.028 29.792 L -57.524 29.792 L -57.524 34.224 Q -58.036 34.752 -58.884 35.096 Q -59.732 35.44 -60.82 35.44 Z " fill="black" /></g></g></g><circle cx="18.0" cy="29.999999999999996" r="2.6999999999999997" style="stroke:black;fill:white;stroke-width:2.0;stroke-dasharray:-;" /><g><g><g><path d="M 25.772 35.256 L 25.772 35.256 L 25.772 24.744 L 28.956 24.744 Q 30.06 24.744 30.892 25 Q 31.724 25.256 32.188 25.816 Q 32.652 26.376 32.652 27.272 Q 32.652 28.104 32.244 28.736 Q 31.836 29.368 31.084 29.608 L 31.084 29.672 Q 32.044 29.848 32.66 30.472 Q 33.276 31.096 33.276 32.216 Q 33.276 33.224 32.756 33.896 Q 32.236 34.568 31.324 34.912 Q 30.412 35.256 29.212 35.256 Z M 27.148 34.168 L 27.148 34.168 L 29.004 34.168 Q 30.38 34.168 31.156 33.68 Q 31.932 33.192 31.932 32.168 Q 31.932 31.176 31.188 30.72 Q 30.444 30.264 29.004 30.264 L 27.148 30.264 Z M 27.148 29.224 L 27.148 29.224 L 28.732 29.224 Q 30.124 29.224 30.716 28.752 Q 31.308 28.28 31.308 27.48 Q 31.308 26.584 30.66 26.208 Q 30.012 25.832 28.796 25.832 L 27.148 25.832 Z " fill="black" /></g></g></g><circle cx="180.0" cy="-18.0" r="2.6999999999999997" style="stroke:black;fill:white;stroke-width:2.0;stroke-dasharray:-;" /><g><g><g><path d="M 177.168 -24.3 L 177.168 -24.3 L 177.168 -34.812 L 179.856 -34.812 Q 182.336 -34.812 183.632 -33.46 Q 184.928 -32.108 184.928 -29.596 Q 184.928 -27.084 183.64 -25.692 Q 182.352 -24.3 179.92 -24.3 Z M 178.544 -25.42 L 178.544 -25.42 L 179.76 -25.42 Q 181.648 -25.42 182.584 -26.516 Q 183.52 -27.612 183.52 -29.596 Q 183.52 -31.58 182.584 -32.636 Q 181.648 -33.692 179.76 -33.692 L 178.544 -33.692 Z " fill="black" /></g></g></g><circle cx="180.0" cy="78.0" r="2.6999999999999997" style="stroke:black;fill:white;stroke-width:2.0;stroke-dasharray:-;" /><g><g><g><path d="M 180.448 95.18 L 180.448 95.18 Q 179.296 95.18 178.344 94.756 Q 177.392 94.332 176.688 93.628 L 177.504 92.684 Q 178.08 93.276 178.856 93.628 Q 179.632 93.98 180.512 93.98 Q 181.536 93.98 182.12 93.516 Q 182.704 93.052 182.704 92.268 Q 182.704 91.756 182.472 91.436 Q 182.24 91.116 181.832 90.892 Q 181.424 90.668 180.912 90.46 L 179.376 89.804 Q 178.912 89.596 178.4 89.268 Q 177.888 88.94 177.544 88.42 Q 177.2 87.9 177.2 87.132 Q 177.2 86.3 177.64 85.66 Q 178.08 85.02 178.84 84.66 Q 179.6 84.3 180.56 84.3 Q 181.536 84.3 182.352 84.66 Q 183.168 85.02 183.744 85.596 L 183.024 86.476 Q 182.512 86.012 181.912 85.748 Q 181.312 85.484 180.592 85.484 Q 179.68 85.484 179.136 85.892 Q 178.592 86.3 178.592 87.004 Q 178.592 87.5 178.856 87.82 Q 179.12 88.14 179.528 88.348 Q 179.936 88.556 180.368 88.732 L 181.888 89.372 Q 182.496 89.628 183 89.988 Q 183.504 90.348 183.8 90.876 Q 184.096 91.404 184.096 92.14 Q 184.096 93.004 183.656 93.692 Q 183.216 94.38 182.4 94.78 Q 181.584 95.18 180.448 95.18 Z " fill="black" /></g></g></g><circle cx="129.00000000000003" cy="29.999999999999993" r="2.6999999999999997" style="stroke:black;fill:white;stroke-width:2.0;stroke-dasharray:-;" /><g><g><g><path d="M 119.18 35.44 L 119.18 35.44 Q 117.756 35.44 116.66 34.792 Q 115.564 34.144 114.948 32.928 Q 114.332 31.712 114.332 30.032 Q 114.332 28.304 114.972 27.08 Q 115.612 25.856 116.708 25.208 Q 117.804 24.56 119.196 24.56 Q 120.38 24.56 121.124 24.96 Q 121.868 25.36 122.348 25.856 L 121.596 26.736 Q 121.196 26.32 120.652 26.032 Q 120.108 25.744 119.26 25.744 Q 117.66 25.744 116.7 26.88 Q 115.74 28.016 115.74 30.016 Q 115.74 31.936 116.66 33.088 Q 117.58 34.24 119.26 34.24 Q 120.572 34.24 121.228 33.632 L 121.228 30.928 L 118.972 30.928 L 118.972 29.792 L 122.476 29.792 L 122.476 34.224 Q 121.964 34.752 121.116 35.096 Q 120.268 35.44 119.18 35.44 Z " fill="black" /></g></g></g><circle cx="360.0" cy="-18.0" r="2.6999999999999997" style="stroke:black;fill:white;stroke-width:2.0;stroke-dasharray:-;" /><g><g><g><path d="M 357.168 -24.3 L 357.168 -24.3 L 357.168 -34.812 L 359.856 -34.812 Q 362.336 -34.812 363.632 -33.46 Q 364.928 -32.108 364.928 -29.596 Q 364.928 -27.084 363.64 -25.692 Q 362.352 -24.3 359.92 -24.3 Z M 358.544 -25.42 L 358.544 -25.42 L 359.76 -25.42 Q 361.648 -25.42 362.584 -26.516 Q 363.52 -27.612 363.52 -29.596 Q 363.52 -31.58 362.584 -32.636 Q 361.648 -33.692 359.76 -33.692 L 358.544 -33.692 Z " fill="black" /></g></g></g><circle cx="360.0" cy="72.0" r="2.6999999999999997" style="stroke:black;fill:white;stroke-width:2.0;stroke-dasharray:-;" /><g><g><g><path d="M 360.448 89.18 L 360.448 89.18 Q 359.296 89.18 358.344 88.756 Q 357.392 88.332 356.688 87.628 L 357.504 86.684 Q 358.08 87.276 358.856 87.628 Q 359.632 87.98 360.512 87.98 Q 361.536 87.98 362.12 87.516 Q 362.704 87.052 362.704 86.268 Q 362.704 85.756 362.472 85.436 Q 362.24 85.116 361.832 84.892 Q 361.424 84.668 360.912 84.46 L 359.376 83.804 Q 358.912 83.596 358.4 83.268 Q 357.888 82.94 357.544 82.42 Q 357.2 81.9 357.2 81.132 Q 357.2 80.3 357.64 79.66 Q 358.08 79.02 358.84 78.66 Q 359.6 78.3 360.56 78.3 Q 361.536 78.3 362.352 78.66 Q 363.168 79.02 363.744 79.596 L 363.024 80.476 Q 362.512 80.012 361.912 79.748 Q 361.312 79.484 360.592 79.484 Q 359.68 79.484 359.136 79.892 Q 358.592 80.3 358.592 81.004 Q 358.592 81.5 358.856 81.82 Q 359.12 82.14 359.528 82.348 Q 359.936 82.556 360.368 82.732 L 361.888 83.372 Q 362.496 83.628 363 83.988 Q 363.504 84.348 363.8 84.876 Q 364.096 85.404 364.096 86.14 Q 364.096 87.004 363.656 87.692 Q 363.216 88.38 362.4 88.78 Q 361.584 89.18 360.448 89.18 Z " fill="black" /></g></g></g><circle cx="292.79999999999995" cy="26.999999999999996" r="2.6999999999999997" style="stroke:black;fill:white;stroke-width:2.0;stroke-dasharray:-;" /><g><g><g><path d="M 282.98 32.44 L 282.98 32.44 Q 281.556 32.44 280.46 31.792 Q 279.364 31.144 278.748 29.928 Q 278.132 28.712 278.132 27.032 Q 278.132 25.304 278.772 24.08 Q 279.412 22.856 280.508 22.208 Q 281.604 21.56 282.996 21.56 Q 284.18 21.56 284.924 21.96 Q 285.668 22.36 286.148 22.856 L 285.396 23.736 Q 284.996 23.32 284.452 23.032 Q 283.908 22.744 283.06 22.744 Q 281.46 22.744 280.5 23.88 Q 279.54 25.016 279.54 27.016 Q 279.54 28.936 280.46 30.088 Q 281.38 31.24 283.06 31.24 Q 284.372 31.24 285.028 30.632 L 285.028 27.928 L 282.772 27.928 L 282.772 26.792 L 286.276 26.792 L 286.276 31.224 Q 285.764 31.752 284.916 32.096 Q 284.068 32.44 282.98 32.44 Z " fill="black" /></g></g></g></svg>