<svg xmlns="http://www.w3.org/2000/svg" xmlns:xlink="http://www.w3.org/1999/xlink" xml:lang="en" height="310.64pt" width="294.9088pt" viewBox="-48.50880000000001 -19.0 294.9088 310.64"><circle cx="-6.613092715395707e-15" cy="36.0" r="18.0" style="stroke:black;fill:none;stroke-width:2.0;stroke-dasharray:-;" /><path d="M 0.0,-0.0 L 0.0,-14.4" style="stroke:black;fill:none;stroke-width:2.0;stroke-dasharray:-;stroke-linecap:round;stroke-linejoin:round;" /><path d="M 0.0,-14.4 L -6.75,-14.4" style="stroke:black;fill:none;stroke-width:2.0;stroke-dasharray:-;stroke-linecap:round;stroke-linejoin:round;" /><path d="M 0.0,-14.4 L 6.75,-14.4" style="stroke:black;fill:none;stroke-width:2.0;stroke-dasharray:-;stroke-linecap:round;stroke-linejoin:round;" /><path d="M 0.0,-0.0 L -3.3065463576978533e-15,18.0 L -3.3065463576978533e-15,18.0 M -9.919639073093561e-15,54.0 L -9.919639073093561e-15,54.0 L -1.3226185430791413e-14,72.0" style="stroke:black;fill:none;stroke-width:2.0;stroke-dasharray:-;stroke-linecap:round;stroke-linejoin:round;" /><path d="M -4.9598195365467806e-15,27.0 L -6.819055509535661e-15,36.0" style="stroke:black;fill:none;stroke-width:2.0;stroke-dasharray:-;stroke-linecap:round;stroke-linejoin:round;" /><path d="M -7.944741364309306e-15 43.0 L -2.7000000000000064 36.0 L 2.699999999999993 36.0 Z" style="stroke:black;fill:black;stroke-linecap:butt;stroke-linejoin:miter;" /><path d="M -1.3226185430791413e-14,72.0 L -1.6532731788489267e-14,90.0 L 8.999999999999982,93.0 L -9.000000000000018,99.0 L 8.99999999999998,105.0 L -9.000000000000021,110.99999999999999 L 8.999999999999979,117.0 L -9.000000000000025,123.0 L -2.3145824503884975e-14,126.0 L -2.6452370861582827e-14,144.0" style="stroke:black;fill:none;stroke-width:2.0;stroke-dasharray:-;stroke-linecap:round;stroke-linejoin:round;" /><path d="M -2.6452370861582827e-14,144.0 L -2.6452370861582827e-14,159.0 L 14.999999999999973,159.0 L 14.999999999999973,189.0 L -2.6452370861582827e-14,189.0 L -2.6452370861582827e-14,203.99999999999997" style="stroke:black;fill:none;stroke-width:2.0;stroke-dasharray:-;stroke-linecap:round;stroke-linejoin:round;" /><path d="M 14.999999999999973,189.0 L 8.999999999999973,189.0" style="stroke:black;fill:none;stroke-width:2.0;stroke-dasharray:-;stroke-linecap:round;stroke-linejoin:round;" /><path d="M 1.9999999999999736 189.0 L 8.999999999999975 184.5 L 8.999999999999972 193.5 Z" style="stroke:black;fill:black;stroke-linecap:butt;stroke-linejoin:miter;" /><path d="M 17.99999999999997,162.0 L 17.99999999999997,186.0" style="stroke:black;fill:none;stroke-width:2.0;stroke-dasharray:-;stroke-linecap:round;stroke-linejoin:round;" /><path d="M 17.99999999999997,174.0 L 32.999999999999964,174.0" style="stroke:black;fill:none;stroke-width:2.0;stroke-dasharray:-;stroke-linecap:round;stroke-linejoin:round;" /><path d="M -2.6452370861582827e-14,203.99999999999997 L -2.6452370861582827e-14,219.0 L 14.999999999999973,219.0 L 14.999999999999973,248.99999999999997 L -2.6452370861582827e-14,248.99999999999997 L -2.6452370861582827e-14,263.99999999999994" style="stroke:black;fill:none;stroke-width:2.0;stroke-dasharray:-;stroke-linecap:round;stroke-linejoin:round;" /><path d="M 14.999999999999973,248.99999999999997 L 8.999999999999973,248.99999999999997" style="stroke:black;fill:none;stroke-width:2.0;stroke-dasharray:-;stroke-linecap:round;stroke-linejoin:round;" /><path d="M 1.9999999999999736 248.99999999999997 L 8.999999999999975 244.49999999999997 L 8.999999999999972 253.49999999999997 Z" style="stroke:black;fill:black;stroke-linecap:butt;stroke-linejoin:miter;" /><path d="M 17.99999999999997,221.99999999999997 L 17.99999999999997,246.0" style="stroke:black;fill:none;stroke-width:2.0;stroke-dasharray:-;stroke-linecap:round;stroke-linejoin:round;" /><path d="M 17.99999999999997,233.99999999999997 L 32.999999999999964,233.99999999999997" style="stroke:black;fill:none;stroke-width:2.0;stroke-dasharray:-;stroke-linecap:round;stroke-linejoin:round;" /><path d="M -2.6452370861582827e-14,263.99999999999994 L -2.6452370861582827e-14,278.4 L -9.000000000000027,278.4 L 8.999999999999973,278.4 M -6.300000000000026,282.7199999999999 L 6.299999999999974,282.7199999999999 M -1.8000000000000265,287.03999999999996 L 1.7999999999999736,287.03999999999996" style="stroke:black;fill:none;stroke-width:2.0;stroke-dasharray:-;stroke-linecap:round;stroke-linejoin:round;" /><path d="M 32.999999999999964,233.99999999999997 L 41.999999999999964,233.99999999999997 L 50.999999999999964,233.99999999999997" style="stroke:black;fill:none;stroke-width:2.0;stroke-dasharray:-;stroke-linecap:round;stroke-linejoin:round;" /><path d="M 50.999999999999964,233.99999999999997 L 50.999999999999964,189.0 L 50.99999999999997,144.0" style="stroke:black;fill:none;stroke-width:2.0;stroke-dasharray:-;stroke-linecap:round;stroke-linejoin:round;" /><path d="M 50.99999999999997,144.0 L 25.49999999999997,144.0 L -2.398081733190338e-14,144.0" style="stroke:black;fill:none;stroke-width:2.0;stroke-dasharray:-;stroke-linecap:round;stroke-linejoin:round;" /><path d="M 32.999999999999964,233.99999999999997 L 86.99999999999996,233.99999999999997 L 140.99999999999997,233.99999999999997" style="stroke:black;fill:none;stroke-width:2.0;stroke-dasharray:-;stroke-linecap:round;stroke-linejoin:round;" /><path d="M 173.99999999999994,263.99999999999994 L 173.99999999999994,248.99999999999997 L 158.99999999999994,248.99999999999997 L 158.99999999999994,218.99999999999994 L 173.99999999999994,218.99999999999994 L 173.99999999999994,203.99999999999997" style="stroke:black;fill:none;stroke-width:2.0;stroke-dasharray:-;stroke-linecap:round;stroke-linejoin:round;" /><path d="M 164.99999999999994,248.99999999999997 L 158.99999999999994,248.99999999999997" style="stroke:black;fill:none;stroke-width:2.0;stroke-dasharray:-;stroke-linecap:round;stroke-linejoin:round;" /><path d="M 171.99999999999994 248.99999999999997 L 164.99999999999994 253.49999999999997 L 164.99999999999994 244.49999999999997 Z" style="stroke:black;fill:black;stroke-linecap:butt;stroke-linejoin:miter;" /><path d="M 155.99999999999994,245.99999999999994 L 155.99999999999994,221.99999999999997" style="stroke:black;fill:none;stroke-width:2.0;stroke-dasharray:-;stroke-linecap:round;stroke-linejoin:round;" /><path d="M 140.99999999999997,233.99999999999997 L 155.99999999999994,233.99999999999997" style="stroke:black;fill:none;stroke-width:2.0;stroke-dasharray:-;stroke-linecap:round;stroke-linejoin:round;" /><path d="M 173.99999999999994,203.99999999999997 L 173.99999999999994,189.0 L 158.99999999999994,189.0 L 158.99999999999994,158.99999999999997 L 173.99999999999994,158.99999999999997 L 173.99999999999994,143.99999999999997" style="stroke:black;fill:none;stroke-width:2.0;stroke-dasharray:-;stroke-linecap:round;stroke-linejoin:round;" /><path d="M 164.99999999999994,189.0 L 158.99999999999994,189.0" style="stroke:black;fill:none;stroke-width:2.0;stroke-dasharray:-;stroke-linecap:round;stroke-linejoin:round;" /><path d="M 171.99999999999994 189.0 L 164.99999999999994 193.5 L 164.99999999999994 184.5 Z" style="stroke:black;fill:black;stroke-linecap:butt;stroke-linejoin:miter;" /><path d="M 155.99999999999994,185.99999999999997 L 155.99999999999994,162.0" style="stroke:black;fill:none;stroke-width:2.0;stroke-dasharray:-;stroke-linecap:round;stroke-linejoin:round;" /><path d="M 140.99999999999997,174.0 L 155.99999999999994,174.0" style="stroke:black;fill:none;stroke-width:2.0;stroke-dasharray:-;stroke-linecap:round;stroke-linejoin:round;" /><path d="M 173.99999999999994,263.99999999999994 L 173.99999999999994,278.4 L 164.99999999999994,278.4 L 182.99999999999994,278.4 M 167.69999999999996,282.7199999999999 L 180.29999999999995,282.7199999999999 M 172.19999999999996,287.03999999999996 L 175.79999999999995,287.03999999999996" style="stroke:black;fill:none;stroke-width:2.0;stroke-dasharray:-;stroke-linecap:round;stroke-linejoin:round;" /><path d="M 173.99999999999994,143.99999999999997 L 173.99999999999994,107.99999999999999 L 173.99999999999994,71.99999999999999" style="stroke:black;fill:none;stroke-width:2.0;stroke-dasharray:-;stroke-linecap:round;stroke-linejoin:round;" /><path d="M 32.999999999999964,174.0 L 59.999999999999964,174.0 L 86.99999999999996,174.0" style="stroke:black;fill:none;stroke-width:2.0;stroke-dasharray:-;stroke-linecap:round;stroke-linejoin:round;" /><path d="M 86.99999999999996,174.0 L 113.99999999999996,174.0 L 140.99999999999997,174.0" style="stroke:black;fill:none;stroke-width:2.0;stroke-dasharray:-;stroke-linecap:round;stroke-linejoin:round;" /><path d="M 86.99999999999996,174.0 L 86.99999999999996,123.0 L 86.99999999999996,72.0" style="stroke:black;fill:none;stroke-width:2.0;stroke-dasharray:-;stroke-linecap:round;stroke-linejoin:round;" /><path d="M 86.99999999999996,72.0 L 43.49999999999997,71.99999999999999 L -1.5987211554602254e-14,71.99999999999999" style="stroke:black;fill:none;stroke-width:2.0;stroke-dasharray:-;stroke-linecap:round;stroke-linejoin:round;" /><circle cx="-1.3226185430791413e-14" cy="72.0" r="2.6999999999999997" style="stroke:black;fill:black;stroke-width:2.0;stroke-dasharray:-;" /><g><g><g><path d="M -49.032 38.757 L -49.032 38.757 L -47.72 32.453 Q -47.576 31.829 -47.584 31.469 Q -47.592 31.109 -47.88 30.965 Q -48.168 30.821 -48.904 30.821 L -48.808 30.341 L -44.376 30.341 L -44.472 30.821 Q -45.176 30.821 -45.528 30.965 Q -45.88 31.109 -46.024 31.469 Q -46.168 31.829 -46.296 32.453 L -47.608 38.821 Q -47.656 39.077 -47.688 39.285 Q -47.72 39.493 -47.72 39.669 Q -47.72 40.117 -47.456 40.245 Q -47.192 40.373 -46.44 40.373 L -46.536 40.853 L -50.904 40.853 L -50.808 40.373 Q -50.152 40.373 -49.824 40.261 Q -49.496 40.149 -49.336 39.805 Q -49.176 39.461 -49.032 38.757 Z " fill="black" /><path d="M -42.035 35.847 L -42.035 35.847 L -42.035 39.319 L -41.979 39.319 Q -41.654 38.938 -41.212 38.636 Q -40.77 38.333 -40.142 38.333 Q -39.56 38.333 -39.084 38.686 Q -38.608 39.039 -38.322 39.66 Q -38.037 40.282 -38.037 41.088 Q -38.037 42.164 -38.429 42.892 Q -38.821 43.62 -39.498 43.984 Q -40.176 44.348 -41.038 44.348 Q -41.542 44.348 -41.968 44.264 Q -42.394 44.18 -42.69 44.068 Q -42.987 43.956 -43.122 43.9 L -43.122 37.18 Q -43.122 36.765 -43.211 36.648 Q -43.301 36.53 -43.682 36.53 Q -43.805 36.53 -43.911 36.547 Q -44.018 36.564 -44.018 36.564 L -44.018 36.138 L -42.494 35.847 Z M -42.035 39.901 L -42.035 39.901 L -42.035 43.261 Q -41.901 43.508 -41.61 43.653 Q -41.318 43.799 -40.837 43.799 Q -40.243 43.799 -39.885 43.48 Q -39.526 43.16 -39.364 42.628 Q -39.202 42.096 -39.202 41.469 Q -39.202 40.898 -39.33 40.377 Q -39.459 39.856 -39.784 39.532 Q -40.109 39.207 -40.68 39.207 Q -40.982 39.207 -41.257 39.324 Q -41.531 39.442 -41.733 39.604 Q -41.934 39.767 -42.035 39.901 Z " fill="black" /><path d="M -33.949 43.799 L -33.949 43.799 L -33.949 44.213 L -36.794 44.213 L -36.794 43.799 Q -36.402 43.799 -36.228 43.715 Q -36.054 43.631 -36.01 43.446 Q -35.965 43.261 -35.965 42.959 L -35.965 39.576 Q -35.965 39.196 -36.088 39.117 Q -36.211 39.039 -36.502 39.039 Q -36.648 39.039 -36.738 39.05 Q -36.827 39.061 -36.827 39.061 L -36.827 38.613 L -35.326 38.367 L -34.867 38.367 L -34.867 42.959 Q -34.867 43.284 -34.817 43.468 Q -34.766 43.653 -34.57 43.726 Q -34.374 43.799 -33.949 43.799 Z M -35.427 35.892 L -35.427 35.892 Q -35.102 35.892 -34.884 36.116 Q -34.666 36.34 -34.666 36.631 Q -34.666 36.9 -34.884 37.124 Q -35.102 37.348 -35.427 37.348 Q -35.741 37.348 -35.948 37.124 Q -36.155 36.9 -36.155 36.631 Q -36.155 36.34 -35.948 36.116 Q -35.741 35.892 -35.427 35.892 Z " fill="black" /><path d="M -29.469 43.508 L -29.469 43.508 L -29.547 43.508 Q -29.928 43.821 -30.387 44.056 Q -30.846 44.292 -31.384 44.292 Q -32.09 44.292 -32.465 43.866 Q -32.84 43.44 -32.84 42.836 Q -32.84 42.32 -32.599 41.973 Q -32.358 41.626 -31.972 41.408 Q -31.586 41.189 -31.138 41.055 Q -30.69 40.92 -30.275 40.842 Q -29.861 40.764 -29.581 40.696 L -29.581 40.114 Q -29.581 39.364 -29.878 39.078 Q -30.174 38.792 -30.746 38.792 Q -31.093 38.792 -31.244 38.882 Q -31.395 38.972 -31.434 39.173 Q -31.474 39.375 -31.485 39.7 Q -31.496 39.946 -31.63 40.097 Q -31.765 40.248 -32.022 40.248 Q -32.269 40.248 -32.442 40.097 Q -32.616 39.946 -32.616 39.655 Q -32.616 39.308 -32.347 39.005 Q -32.078 38.703 -31.58 38.518 Q -31.082 38.333 -30.41 38.333 Q -29.402 38.333 -28.948 38.798 Q -28.494 39.263 -28.494 40.192 L -28.494 42.936 Q -28.494 43.306 -28.41 43.412 Q -28.326 43.519 -28.147 43.519 Q -27.957 43.519 -27.817 43.44 Q -27.677 43.362 -27.554 43.216 L -27.307 43.452 Q -27.89 44.28 -28.674 44.28 Q -29.11 44.28 -29.273 44.073 Q -29.435 43.866 -29.469 43.508 Z M -29.581 43.093 L -29.581 43.093 L -29.581 41.122 Q -30.096 41.256 -30.589 41.419 Q -31.082 41.581 -31.401 41.861 Q -31.72 42.141 -31.72 42.645 Q -31.72 43.082 -31.468 43.334 Q -31.216 43.586 -30.824 43.586 Q -30.589 43.586 -30.258 43.48 Q -29.928 43.373 -29.581 43.093 Z " fill="black" /><path d="M -26.534 42.175 L -26.534 42.175 L -26.176 42.175 Q -26.03 42.824 -25.829 43.183 Q -25.627 43.541 -25.308 43.681 Q -24.989 43.821 -24.53 43.821 Q -24.003 43.821 -23.718 43.648 Q -23.432 43.474 -23.432 43.037 Q -23.432 42.746 -23.572 42.55 Q -23.712 42.354 -24.02 42.175 Q -24.328 41.996 -24.843 41.76 Q -25.37 41.503 -25.745 41.279 Q -26.12 41.055 -26.316 40.752 Q -26.512 40.45 -26.512 39.991 Q -26.512 39.184 -25.969 38.759 Q -25.426 38.333 -24.608 38.333 Q -24.115 38.333 -23.774 38.456 Q -23.432 38.58 -23.23 38.669 L -23.208 38.669 L -23.029 38.389 L -22.715 38.389 L -22.693 40.248 L -23.085 40.248 Q -23.298 39.386 -23.678 39.089 Q -24.059 38.792 -24.552 38.792 Q -25.067 38.792 -25.33 39.016 Q -25.594 39.24 -25.594 39.599 Q -25.594 39.89 -25.414 40.08 Q -25.235 40.271 -24.905 40.433 Q -24.574 40.596 -24.115 40.82 Q -23.6 41.066 -23.208 41.329 Q -22.816 41.592 -22.592 41.923 Q -22.368 42.253 -22.368 42.746 Q -22.368 43.34 -22.682 43.698 Q -22.995 44.056 -23.488 44.208 Q -23.981 44.359 -24.518 44.359 Q -25.067 44.359 -25.37 44.247 Q -25.672 44.135 -25.93 44.034 L -25.974 44.034 L -26.254 44.325 L -26.512 44.325 Z " fill="black" /></g></g></g><circle cx="-2.6452370861582827e-14" cy="144.0" r="2.6999999999999997" style="stroke:black;fill:black;stroke-width:2.0;stroke-dasharray:-;" /><g><g><g><path d="M -13.4 106.302 L -13.4 106.302 Q -13.4 107.15 -13.72 107.726 Q -14.04 108.302 -14.552 108.67 Q -15.064 109.038 -15.648 109.238 Q -16.232 109.438 -16.76 109.534 L -16.76 109.614 Q -16.472 109.806 -16.216 110.198 Q -15.96 110.59 -15.584 111.326 Q -15.208 112.062 -14.552 113.31 Q -14.28 113.79 -13.952 113.958 Q -13.624 114.126 -13.08 114.126 L -13.176 114.606 L -15.608 114.606 Q -16.056 113.614 -16.36 112.95 Q -16.664 112.286 -16.888 111.838 Q -17.112 111.39 -17.28 111.038 Q -17.448 110.686 -17.64 110.318 Q -17.816 109.982 -18.024 109.878 Q -18.232 109.774 -18.664 109.774 L -19 109.774 L -19.592 112.622 Q -19.72 113.278 -19.68 113.606 Q -19.64 113.934 -19.32 114.03 Q -19 114.126 -18.312 114.126 L -18.392 114.606 L -22.808 114.606 L -22.712 114.126 Q -22.12 114.126 -21.8 114.03 Q -21.48 113.934 -21.312 113.614 Q -21.144 113.294 -21.016 112.622 L -19.608 105.758 Q -19.512 105.31 -19.56 105.054 Q -19.608 104.798 -19.888 104.686 Q -20.168 104.574 -20.808 104.574 L -20.712 104.094 L -16.952 104.094 Q -15.272 104.094 -14.336 104.614 Q -13.4 105.134 -13.4 106.302 Z M -17.992 104.766 L -17.992 104.766 L -18.888 109.182 L -18.392 109.198 Q -17.432 109.166 -16.656 108.886 Q -15.88 108.606 -15.432 107.998 Q -14.984 107.39 -14.984 106.366 Q -14.984 105.934 -15.168 105.558 Q -15.352 105.182 -15.8 104.95 Q -16.248 104.718 -17.048 104.718 Q -17.352 104.718 -17.536 104.726 Q -17.72 104.734 -17.992 104.766 Z " fill="black" /></g></g></g><g><g><g><path d="M -28.682 167.48 L -28.682 167.48 L -28.73 167.96 Q -29.306 167.976 -29.658 168.216 Q -30.01 168.456 -30.426 169.064 L -36.058 178.088 L -36.522 178.088 L -37.05 171.864 L -37.114 171.864 L -41.226 178.088 L -41.674 178.088 L -42.458 169.4 Q -42.522 168.616 -42.794 168.288 Q -43.066 167.96 -43.754 167.96 L -43.674 167.48 L -39.674 167.48 L -39.754 167.96 Q -40.442 167.96 -40.714 168.096 Q -40.986 168.232 -41.018 168.552 Q -41.018 168.584 -41.018 168.648 Q -41.018 168.776 -41.018 168.96 Q -41.018 169.144 -40.986 169.368 L -40.57 173.88 L -40.49 175.416 L -40.394 175.416 L -37.162 170.728 L -37.274 169.464 Q -37.338 168.776 -37.442 168.456 Q -37.546 168.136 -37.778 168.048 Q -38.01 167.96 -38.474 167.96 L -38.394 167.48 L -34.314 167.48 L -34.394 167.96 Q -35.274 167.96 -35.57 168.248 Q -35.866 168.536 -35.802 169.432 L -35.418 173.752 L -35.354 175.384 L -35.274 175.384 L -31.866 170.024 Q -31.61 169.624 -31.386 169.192 Q -31.162 168.76 -31.162 168.408 Q -31.162 168.168 -31.338 168.064 Q -31.514 167.96 -32.042 167.96 L -31.946 167.48 Z " fill="black" /><path d="M -24.261 179.403 L -24.261 179.403 L -24.642 181.352 L -29.234 181.352 L -29.234 180.803 L -27.643 179.19 Q -27.016 178.563 -26.607 178.082 Q -26.198 177.6 -25.997 177.113 Q -25.795 176.626 -25.795 175.998 Q -25.795 175.405 -26.159 175.018 Q -26.523 174.632 -27.184 174.632 Q -27.789 174.632 -28.198 174.873 Q -28.606 175.114 -28.92 175.662 L -29.222 175.517 Q -28.942 174.733 -28.354 174.285 Q -27.766 173.837 -26.904 173.837 Q -26.232 173.837 -25.717 174.078 Q -25.202 174.318 -24.91 174.766 Q -24.619 175.214 -24.619 175.853 Q -24.619 176.402 -24.866 176.883 Q -25.112 177.365 -25.566 177.869 Q -26.019 178.373 -26.646 178.989 L -28.046 180.344 L -28.046 180.422 L -27.173 180.378 L -25.717 180.378 Q -25.392 180.378 -25.218 180.288 Q -25.045 180.198 -24.922 179.98 Q -24.798 179.762 -24.653 179.403 Z " fill="black" /><path d="M -18.253 166.648 L -18.253 166.648 L -22.413 179.416 L -23.309 179.416 L -19.133 166.648 Z " fill="black" /><path d="M -8.829 174.872 L -8.829 174.872 L -9.789 177.992 L -17.693 177.992 L -17.597 177.512 Q -16.973 177.512 -16.645 177.4 Q -16.317 177.288 -16.141 176.968 Q -15.965 176.648 -15.837 176.008 L -14.461 169.336 Q -14.349 168.808 -14.381 168.504 Q -14.413 168.2 -14.709 168.08 Q -15.005 167.96 -15.693 167.96 L -15.597 167.48 L -11.053 167.48 L -11.133 167.96 Q -11.997 167.96 -12.429 168.224 Q -12.861 168.488 -13.037 169.352 L -14.493 176.52 Q -14.605 177.048 -14.381 177.216 Q -14.157 177.384 -13.453 177.384 L -12.701 177.384 Q -11.933 177.384 -11.453 177.248 Q -10.973 177.112 -10.637 176.824 Q -10.301 176.536 -10.005 176.048 Q -9.709 175.56 -9.341 174.872 Z " fill="black" /><path d="M -2.904 179.403 L -2.904 179.403 L -3.285 181.352 L -7.877 181.352 L -7.877 180.803 L -6.286 179.19 Q -5.659 178.563 -5.25 178.082 Q -4.842 177.6 -4.64 177.113 Q -4.438 176.626 -4.438 175.998 Q -4.438 175.405 -4.802 175.018 Q -5.166 174.632 -5.827 174.632 Q -6.432 174.632 -6.841 174.873 Q -7.25 175.114 -7.563 175.662 L -7.866 175.517 Q -7.586 174.733 -6.998 174.285 Q -6.41 173.837 -5.547 173.837 Q -4.875 173.837 -4.36 174.078 Q -3.845 174.318 -3.554 174.766 Q -3.262 175.214 -3.262 175.853 Q -3.262 176.402 -3.509 176.883 Q -3.755 177.365 -4.209 177.869 Q -4.662 178.373 -5.29 178.989 L -6.69 180.344 L -6.69 180.422 L -5.816 180.378 L -4.36 180.378 Q -4.035 180.378 -3.862 180.288 Q -3.688 180.198 -3.565 179.98 Q -3.442 179.762 -3.296 179.403 Z " fill="black" /></g></g></g><g><g><g><path d="M -28.346 227.48 L -28.346 227.48 L -28.394 227.96 Q -28.97 227.976 -29.322 228.216 Q -29.674 228.456 -30.09 229.064 L -35.722 238.088 L -36.186 238.088 L -36.714 231.864 L -36.778 231.864 L -40.89 238.088 L -41.338 238.088 L -42.122 229.4 Q -42.186 228.616 -42.458 228.288 Q -42.73 227.96 -43.418 227.96 L -43.338 227.48 L -39.338 227.48 L -39.418 227.96 Q -40.106 227.96 -40.378 228.096 Q -40.65 228.232 -40.682 228.552 Q -40.682 228.584 -40.682 228.648 Q -40.682 228.776 -40.682 228.96 Q -40.682 229.144 -40.65 229.368 L -40.234 233.88 L -40.154 235.416 L -40.058 235.416 L -36.826 230.728 L -36.938 229.464 Q -37.002 228.776 -37.106 228.456 Q -37.21 228.136 -37.442 228.048 Q -37.674 227.96 -38.138 227.96 L -38.058 227.48 L -33.978 227.48 L -34.058 227.96 Q -34.938 227.96 -35.234 228.248 Q -35.53 228.536 -35.466 229.432 L -35.082 233.752 L -35.018 235.384 L -34.938 235.384 L -31.53 230.024 Q -31.274 229.624 -31.05 229.192 Q -30.826 228.76 -30.826 228.408 Q -30.826 228.168 -31.002 228.064 Q -31.178 227.96 -31.706 227.96 L -31.61 227.48 Z " fill="black" /><path d="M -24.563 241.352 L -24.563 241.352 L -28.36 241.352 L -28.36 240.949 Q -27.554 240.949 -27.29 240.786 Q -27.027 240.624 -27.027 240.198 L -27.027 235.315 Q -27.027 235.013 -27.117 234.878 Q -27.206 234.744 -27.442 234.744 Q -27.621 234.744 -27.929 234.794 Q -28.237 234.845 -28.461 234.901 L -28.461 234.453 L -26.389 233.882 L -25.907 233.882 L -25.907 240.198 Q -25.907 240.624 -25.622 240.786 Q -25.336 240.949 -24.563 240.949 Z " fill="black" /><path d="M -18.085 226.648 L -18.085 226.648 L -22.245 239.416 L -23.141 239.416 L -18.965 226.648 Z " fill="black" /><path d="M -8.661 234.872 L -8.661 234.872 L -9.621 237.992 L -17.525 237.992 L -17.429 237.512 Q -16.805 237.512 -16.477 237.4 Q -16.149 237.288 -15.973 236.968 Q -15.797 236.648 -15.669 236.008 L -14.293 229.336 Q -14.181 228.808 -14.213 228.504 Q -14.245 228.2 -14.541 228.08 Q -14.837 227.96 -15.525 227.96 L -15.429 227.48 L -10.885 227.48 L -10.965 227.96 Q -11.829 227.96 -12.261 228.224 Q -12.693 228.488 -12.869 229.352 L -14.325 236.52 Q -14.437 237.048 -14.213 237.216 Q -13.989 237.384 -13.285 237.384 L -12.533 237.384 Q -11.765 237.384 -11.285 237.248 Q -10.805 237.112 -10.469 236.824 Q -10.133 236.536 -9.837 236.048 Q -9.541 235.56 -9.173 234.872 Z " fill="black" /><path d="M -3.374 241.352 L -3.374 241.352 L -7.171 241.352 L -7.171 240.949 Q -6.365 240.949 -6.102 240.786 Q -5.838 240.624 -5.838 240.198 L -5.838 235.315 Q -5.838 235.013 -5.928 234.878 Q -6.018 234.744 -6.253 234.744 Q -6.432 234.744 -6.74 234.794 Q -7.048 234.845 -7.272 234.901 L -7.272 234.453 L -5.2 233.882 L -4.718 233.882 L -4.718 240.198 Q -4.718 240.624 -4.433 240.786 Q -4.147 240.949 -3.374 240.949 Z " fill="black" /></g></g></g><circle cx="50.999999999999964" cy="233.99999999999997" r="2.6999999999999997" style="stroke:black;fill:black;stroke-width:2.0;stroke-dasharray:-;" /><g><g><g><path d="M 184.409 226.712 L 184.409 226.712 L 182.985 234.184 L 183.065 234.184 L 185.561 231.928 Q 185.737 231.784 185.841 231.64 Q 185.945 231.496 185.945 231.336 Q 185.945 231.08 185.729 231 Q 185.513 230.92 185.225 230.92 L 185.273 230.52 L 188.713 230.52 L 188.665 230.92 Q 187.849 230.936 187.401 231.224 Q 186.953 231.512 186.553 231.88 L 184.777 233.448 L 185.961 236.2 Q 186.137 236.6 186.305 236.832 Q 186.473 237.064 186.825 237.064 Q 187.241 237.064 187.537 236.784 Q 187.833 236.504 188.089 236.136 L 188.425 236.36 Q 188.361 236.472 188.185 236.76 Q 188.009 237.048 187.721 237.368 Q 187.433 237.688 187.057 237.92 Q 186.681 238.152 186.217 238.152 Q 185.817 238.152 185.561 237.96 Q 185.305 237.768 185.153 237.48 Q 185.001 237.192 184.873 236.904 L 183.769 234.232 L 182.841 235.048 L 182.281 237.992 L 180.969 237.992 L 182.857 228.264 Q 182.857 228.264 182.881 228.104 Q 182.905 227.944 182.905 227.784 Q 182.905 227.272 182.345 227.272 Q 182.201 227.272 182.025 227.288 Q 181.849 227.304 181.849 227.304 L 181.849 226.888 L 184.057 226.712 Z " fill="black" /><path d="M 195.596 233.912 L 195.596 233.912 Q 195.596 234.28 195.348 234.552 Q 195.1 234.824 194.636 234.824 Q 194.172 234.824 193.94 234.56 Q 193.708 234.296 193.708 233.896 Q 193.708 233.496 193.956 233.208 Q 194.204 232.92 194.652 232.92 Q 195.116 232.92 195.356 233.216 Q 195.596 233.512 195.596 233.912 Z " fill="black" /><path d="M 216.622 227.48 L 216.622 227.48 L 216.574 227.96 Q 215.998 227.976 215.646 228.216 Q 215.294 228.456 214.878 229.064 L 209.246 238.088 L 208.782 238.088 L 208.254 231.864 L 208.19 231.864 L 204.078 238.088 L 203.63 238.088 L 202.846 229.4 Q 202.782 228.616 202.51 228.288 Q 202.238 227.96 201.55 227.96 L 201.63 227.48 L 205.63 227.48 L 205.55 227.96 Q 204.862 227.96 204.59 228.096 Q 204.318 228.232 204.286 228.552 Q 204.286 228.584 204.286 228.648 Q 204.286 228.776 204.286 228.96 Q 204.286 229.144 204.318 229.368 L 204.734 233.88 L 204.814 235.416 L 204.91 235.416 L 208.142 230.728 L 208.03 229.464 Q 207.966 228.776 207.862 228.456 Q 207.758 228.136 207.526 228.048 Q 207.294 227.96 206.83 227.96 L 206.91 227.48 L 210.99 227.48 L 210.91 227.96 Q 210.03 227.96 209.734 228.248 Q 209.438 228.536 209.502 229.432 L 209.886 233.752 L 209.95 235.384 L 210.03 235.384 L 213.438 230.024 Q 213.694 229.624 213.918 229.192 Q 214.142 228.76 214.142 228.408 Q 214.142 228.168 213.966 228.064 Q 213.79 227.96 213.262 227.96 L 213.358 227.48 Z " fill="black" /><path d="M 220.405 241.352 L 220.405 241.352 L 216.608 241.352 L 216.608 240.949 Q 217.414 240.949 217.678 240.786 Q 217.941 240.624 217.941 240.198 L 217.941 235.315 Q 217.941 235.013 217.851 234.878 Q 217.762 234.744 217.526 234.744 Q 217.347 234.744 217.039 234.794 Q 216.731 234.845 216.507 234.901 L 216.507 234.453 L 218.579 233.882 L 219.061 233.882 L 219.061 240.198 Q 219.061 240.624 219.346 240.786 Q 219.632 240.949 220.405 240.949 Z " fill="black" /><path d="M 226.883 226.648 L 226.883 226.648 L 222.723 239.416 L 221.827 239.416 L 226.003 226.648 Z " fill="black" /><path d="M 236.307 234.872 L 236.307 234.872 L 235.347 237.992 L 227.443 237.992 L 227.539 237.512 Q 228.163 237.512 228.491 237.4 Q 228.819 237.288 228.995 236.968 Q 229.171 236.648 229.299 236.008 L 230.675 229.336 Q 230.787 228.808 230.755 228.504 Q 230.723 228.2 230.427 228.08 Q 230.131 227.96 229.443 227.96 L 229.539 227.48 L 234.083 227.48 L 234.003 227.96 Q 233.139 227.96 232.707 228.224 Q 232.275 228.488 232.099 229.352 L 230.643 236.52 Q 230.531 237.048 230.755 237.216 Q 230.979 237.384 231.683 237.384 L 232.435 237.384 Q 233.203 237.384 233.683 237.248 Q 234.163 237.112 234.499 236.824 Q 234.835 236.536 235.131 236.048 Q 235.427 235.56 235.795 234.872 Z " fill="black" /><path d="M 241.594 241.352 L 241.594 241.352 L 237.797 241.352 L 237.797 240.949 Q 238.603 240.949 238.866 240.786 Q 239.13 240.624 239.13 240.198 L 239.13 235.315 Q 239.13 235.013 239.04 234.878 Q 238.95 234.744 238.715 234.744 Q 238.536 234.744 238.228 234.794 Q 237.92 234.845 237.696 234.901 L 237.696 234.453 L 239.768 233.882 L 240.25 233.882 L 240.25 240.198 Q 240.25 240.624 240.535 240.786 Q 240.821 240.949 241.594 240.949 Z " fill="black" /></g></g></g><g><g><g><path d="M 184.073 166.712 L 184.073 166.712 L 182.649 174.184 L 182.729 174.184 L 185.225 171.928 Q 185.401 171.784 185.505 171.64 Q 185.609 171.496 185.609 171.336 Q 185.609 171.08 185.393 171 Q 185.177 170.92 184.889 170.92 L 184.937 170.52 L 188.377 170.52 L 188.329 170.92 Q 187.513 170.936 187.065 171.224 Q 186.617 171.512 186.217 171.88 L 184.441 173.448 L 185.625 176.2 Q 185.801 176.6 185.969 176.832 Q 186.137 177.064 186.489 177.064 Q 186.905 177.064 187.201 176.784 Q 187.497 176.504 187.753 176.136 L 188.089 176.36 Q 188.025 176.472 187.849 176.76 Q 187.673 177.048 187.385 177.368 Q 187.097 177.688 186.721 177.92 Q 186.345 178.152 185.881 178.152 Q 185.481 178.152 185.225 177.96 Q 184.969 177.768 184.817 177.48 Q 184.665 177.192 184.537 176.904 L 183.433 174.232 L 182.505 175.048 L 181.945 177.992 L 180.633 177.992 L 182.521 168.264 Q 182.521 168.264 182.545 168.104 Q 182.569 167.944 182.569 167.784 Q 182.569 167.272 182.009 167.272 Q 181.865 167.272 181.689 167.288 Q 181.513 167.304 181.513 167.304 L 181.513 166.888 L 183.721 166.712 Z " fill="black" /><path d="M 195.26 173.912 L 195.26 173.912 Q 195.26 174.28 195.012 174.552 Q 194.764 174.824 194.3 174.824 Q 193.836 174.824 193.604 174.56 Q 193.372 174.296 193.372 173.896 Q 193.372 173.496 193.62 173.208 Q 193.868 172.92 194.316 172.92 Q 194.78 172.92 195.02 173.216 Q 195.26 173.512 195.26 173.912 Z " fill="black" /><path d="M 216.286 167.48 L 216.286 167.48 L 216.238 167.96 Q 215.662 167.976 215.31 168.216 Q 214.958 168.456 214.542 169.064 L 208.91 178.088 L 208.446 178.088 L 207.918 171.864 L 207.854 171.864 L 203.742 178.088 L 203.294 178.088 L 202.51 169.4 Q 202.446 168.616 202.174 168.288 Q 201.902 167.96 201.214 167.96 L 201.294 167.48 L 205.294 167.48 L 205.214 167.96 Q 204.526 167.96 204.254 168.096 Q 203.982 168.232 203.95 168.552 Q 203.95 168.584 203.95 168.648 Q 203.95 168.776 203.95 168.96 Q 203.95 169.144 203.982 169.368 L 204.398 173.88 L 204.478 175.416 L 204.574 175.416 L 207.806 170.728 L 207.694 169.464 Q 207.63 168.776 207.526 168.456 Q 207.422 168.136 207.19 168.048 Q 206.958 167.96 206.494 167.96 L 206.574 167.48 L 210.654 167.48 L 210.574 167.96 Q 209.694 167.96 209.398 168.248 Q 209.102 168.536 209.166 169.432 L 209.55 173.752 L 209.614 175.384 L 209.694 175.384 L 213.102 170.024 Q 213.358 169.624 213.582 169.192 Q 213.806 168.76 213.806 168.408 Q 213.806 168.168 213.63 168.064 Q 213.454 167.96 212.926 167.96 L 213.022 167.48 Z " fill="black" /><path d="M 220.707 179.403 L 220.707 179.403 L 220.326 181.352 L 215.734 181.352 L 215.734 180.803 L 217.325 179.19 Q 217.952 178.563 218.361 178.082 Q 218.77 177.6 218.971 177.113 Q 219.173 176.626 219.173 175.998 Q 219.173 175.405 218.809 175.018 Q 218.445 174.632 217.784 174.632 Q 217.179 174.632 216.77 174.873 Q 216.362 175.114 216.048 175.662 L 215.746 175.517 Q 216.026 174.733 216.614 174.285 Q 217.202 173.837 218.064 173.837 Q 218.736 173.837 219.251 174.078 Q 219.766 174.318 220.058 174.766 Q 220.349 175.214 220.349 175.853 Q 220.349 176.402 220.102 176.883 Q 219.856 177.365 219.402 177.869 Q 218.949 178.373 218.322 178.989 L 216.922 180.344 L 216.922 180.422 L 217.795 180.378 L 219.251 180.378 Q 219.576 180.378 219.75 180.288 Q 219.923 180.198 220.046 179.98 Q 220.17 179.762 220.315 179.403 Z " fill="black" /><path d="M 226.715 166.648 L 226.715 166.648 L 222.555 179.416 L 221.659 179.416 L 225.835 166.648 Z " fill="black" /><path d="M 236.139 174.872 L 236.139 174.872 L 235.179 177.992 L 227.275 177.992 L 227.371 177.512 Q 227.995 177.512 228.323 177.4 Q 228.651 177.288 228.827 176.968 Q 229.003 176.648 229.131 176.008 L 230.507 169.336 Q 230.619 168.808 230.587 168.504 Q 230.555 168.2 230.259 168.08 Q 229.963 167.96 229.275 167.96 L 229.371 167.48 L 233.915 167.48 L 233.835 167.96 Q 232.971 167.96 232.539 168.224 Q 232.107 168.488 231.931 169.352 L 230.475 176.52 Q 230.363 177.048 230.587 177.216 Q 230.811 177.384 231.515 177.384 L 232.267 177.384 Q 233.035 177.384 233.515 177.248 Q 233.995 177.112 234.331 176.824 Q 234.667 176.536 234.963 176.048 Q 235.259 175.56 235.627 174.872 Z " fill="black" /><path d="M 242.064 179.403 L 242.064 179.403 L 241.683 181.352 L 237.091 181.352 L 237.091 180.803 L 238.682 179.19 Q 239.309 178.563 239.718 178.082 Q 240.126 177.6 240.328 177.113 Q 240.53 176.626 240.53 175.998 Q 240.53 175.405 240.166 175.018 Q 239.802 174.632 239.141 174.632 Q 238.536 174.632 238.127 174.873 Q 237.718 175.114 237.405 175.662 L 237.102 175.517 Q 237.382 174.733 237.97 174.285 Q 238.558 173.837 239.421 173.837 Q 240.093 173.837 240.608 174.078 Q 241.123 174.318 241.414 174.766 Q 241.706 175.214 241.706 175.853 Q 241.706 176.402 241.459 176.883 Q 241.213 177.365 240.759 177.869 Q 240.306 178.373 239.678 178.989 L 238.278 180.344 L 238.278 180.422 L 239.152 180.378 L 240.608 180.378 Q 240.933 180.378 241.106 180.288 Q 241.28 180.198 241.403 179.98 Q 241.526 179.762 241.672 179.403 Z " fill="black" /></g></g></g><circle cx="173.99999999999994" cy="71.99999999999999" r="2.6999999999999997" style="stroke:black;fill:white;stroke-width:2.0;stroke-dasharray:-;" /><g><g><g><path d="M 126.811 60.098 L 126.811 60.098 L 128.123 53.794 Q 128.267 53.17 128.259 52.81 Q 128.251 52.45 127.963 52.306 Q 127.675 52.162 126.939 52.162 L 127.035 51.682 L 131.467 51.682 L 131.371 52.162 Q 130.667 52.162 130.315 52.306 Q 129.963 52.45 129.819 52.81 Q 129.675 53.17 129.547 53.794 L 128.235 60.162 Q 128.187 60.418 128.155 60.626 Q 128.123 60.834 128.123 61.01 Q 128.123 61.458 128.387 61.586 Q 128.651 61.714 129.403 61.714 L 129.307 62.194 L 124.939 62.194 L 125.035 61.714 Q 125.691 61.714 126.019 61.602 Q 126.347 61.49 126.507 61.146 Q 126.667 60.802 126.811 60.098 Z " fill="black" /><path d="M 134.928 59.674 L 134.928 59.674 Q 135.768 59.674 136.395 60.038 Q 137.022 60.402 137.364 61.058 Q 137.706 61.713 137.706 62.598 Q 137.706 63.662 137.347 64.345 Q 136.989 65.028 136.362 65.358 Q 135.734 65.689 134.928 65.689 Q 134.11 65.689 133.478 65.347 Q 132.845 65.006 132.492 64.322 Q 132.139 63.639 132.139 62.609 Q 132.139 61.735 132.486 61.074 Q 132.834 60.414 133.461 60.044 Q 134.088 59.674 134.928 59.674 Z M 134.906 60.19 L 134.906 60.19 Q 134.166 60.19 133.746 60.789 Q 133.326 61.388 133.326 62.542 Q 133.326 63.964 133.758 64.552 Q 134.189 65.14 134.962 65.14 Q 135.454 65.129 135.802 64.894 Q 136.149 64.658 136.334 64.104 Q 136.518 63.55 136.518 62.598 Q 136.518 61.455 136.126 60.822 Q 135.734 60.19 134.906 60.19 Z " fill="black" /><path d="M 145.322 64.983 L 145.322 64.983 L 145.322 65.409 L 143.81 65.61 L 143.451 65.61 L 143.451 64.737 L 143.339 64.737 Q 142.914 65.118 142.477 65.392 Q 142.04 65.666 141.424 65.666 Q 140.595 65.666 140.158 65.162 Q 139.722 64.658 139.722 63.415 L 139.722 61.007 Q 139.722 60.548 139.559 60.442 Q 139.397 60.335 138.882 60.335 L 138.882 59.932 L 140.438 59.719 L 140.808 59.719 L 140.808 63.27 Q 140.808 63.897 140.954 64.244 Q 141.099 64.591 141.346 64.726 Q 141.592 64.86 141.883 64.86 Q 142.376 64.86 142.706 64.653 Q 143.037 64.446 143.395 64.154 L 143.395 61.007 Q 143.395 60.548 143.194 60.442 Q 142.992 60.335 142.421 60.335 L 142.421 59.932 L 144.09 59.719 L 144.482 59.719 L 144.482 64.255 Q 144.482 64.591 144.543 64.748 Q 144.605 64.905 144.762 64.944 Q 144.918 64.983 145.198 64.983 Z " fill="black" /><path d="M 149.69 64.434 L 149.69 64.434 L 149.947 64.647 Q 149.701 64.983 149.499 65.213 Q 149.298 65.442 149.04 65.566 Q 148.782 65.689 148.379 65.689 Q 147.73 65.689 147.433 65.319 Q 147.136 64.95 147.136 64.132 L 147.136 60.369 L 146.43 60.369 L 146.43 60.033 Q 146.834 59.742 147.17 59.322 Q 147.506 58.902 147.842 58.118 L 148.234 58.118 L 148.222 59.82 L 149.645 59.82 L 149.645 60.369 L 148.222 60.369 L 148.222 63.762 Q 148.222 64.39 148.34 64.653 Q 148.458 64.916 148.816 64.916 Q 149.141 64.916 149.309 64.798 Q 149.477 64.681 149.69 64.434 Z " fill="black" /><path d="M 166.691 56.962 L 166.691 56.962 L 157.155 56.962 L 157.155 55.874 L 166.691 55.874 Z M 166.691 60.226 L 166.691 60.226 L 157.155 60.226 L 157.155 59.154 L 166.691 59.154 Z " fill="black" /><path d="M 177.703 50.914 L 177.703 50.914 L 176.279 58.386 L 176.359 58.386 L 178.855 56.13 Q 179.031 55.986 179.135 55.842 Q 179.239 55.698 179.239 55.538 Q 179.239 55.282 179.023 55.202 Q 178.807 55.122 178.519 55.122 L 178.567 54.722 L 182.007 54.722 L 181.959 55.122 Q 181.143 55.138 180.695 55.426 Q 180.247 55.714 179.847 56.082 L 178.071 57.65 L 179.255 60.402 Q 179.431 60.802 179.599 61.034 Q 179.767 61.266 180.119 61.266 Q 180.535 61.266 180.831 60.986 Q 181.127 60.706 181.383 60.338 L 181.719 60.562 Q 181.655 60.674 181.479 60.962 Q 181.303 61.25 181.015 61.57 Q 180.727 61.89 180.351 62.122 Q 179.975 62.354 179.511 62.354 Q 179.111 62.354 178.855 62.162 Q 178.599 61.97 178.447 61.682 Q 178.295 61.394 178.167 61.106 L 177.063 58.434 L 176.135 59.25 L 175.575 62.194 L 174.263 62.194 L 176.151 52.466 Q 176.151 52.466 176.175 52.306 Q 176.199 52.146 176.199 51.986 Q 176.199 51.474 175.639 51.474 Q 175.495 51.474 175.319 51.49 Q 175.143 51.506 175.143 51.506 L 175.143 51.09 L 177.351 50.914 Z " fill="black" /><path d="M 188.89 58.114 L 188.89 58.114 Q 188.89 58.482 188.642 58.754 Q 188.394 59.026 187.93 59.026 Q 187.466 59.026 187.234 58.762 Q 187.002 58.498 187.002 58.098 Q 187.002 57.698 187.25 57.41 Q 187.498 57.122 187.946 57.122 Q 188.41 57.122 188.65 57.418 Q 188.89 57.714 188.89 58.114 Z " fill="black" /><path d="M 195.629 60.098 L 195.629 60.098 L 196.941 53.794 Q 197.085 53.17 197.077 52.81 Q 197.069 52.45 196.781 52.306 Q 196.493 52.162 195.757 52.162 L 195.853 51.682 L 200.285 51.682 L 200.189 52.162 Q 199.485 52.162 199.133 52.306 Q 198.781 52.45 198.637 52.81 Q 198.493 53.17 198.365 53.794 L 197.053 60.162 Q 197.005 60.418 196.973 60.626 Q 196.941 60.834 196.941 61.01 Q 196.941 61.458 197.205 61.586 Q 197.469 61.714 198.221 61.714 L 198.125 62.194 L 193.757 62.194 L 193.853 61.714 Q 194.509 61.714 194.837 61.602 Q 195.165 61.49 195.325 61.146 Q 195.485 60.802 195.629 60.098 Z " fill="black" /><path d="M 202.626 57.188 L 202.626 57.188 L 202.626 60.66 L 202.682 60.66 Q 203.006 60.279 203.449 59.977 Q 203.891 59.674 204.518 59.674 Q 205.101 59.674 205.577 60.027 Q 206.053 60.38 206.338 61.002 Q 206.624 61.623 206.624 62.43 Q 206.624 63.505 206.232 64.233 Q 205.84 64.961 205.162 65.325 Q 204.485 65.689 203.622 65.689 Q 203.118 65.689 202.693 65.605 Q 202.267 65.521 201.97 65.409 Q 201.674 65.297 201.539 65.241 L 201.539 58.521 Q 201.539 58.106 201.45 57.989 Q 201.36 57.871 200.979 57.871 Q 200.856 57.871 200.75 57.888 Q 200.643 57.905 200.643 57.905 L 200.643 57.479 L 202.166 57.188 Z M 202.626 61.242 L 202.626 61.242 L 202.626 64.602 Q 202.76 64.849 203.051 64.994 Q 203.342 65.14 203.824 65.14 Q 204.418 65.14 204.776 64.821 Q 205.134 64.502 205.297 63.97 Q 205.459 63.438 205.459 62.81 Q 205.459 62.239 205.33 61.718 Q 205.202 61.198 204.877 60.873 Q 204.552 60.548 203.981 60.548 Q 203.678 60.548 203.404 60.666 Q 203.13 60.783 202.928 60.946 Q 202.726 61.108 202.626 61.242 Z " fill="black" /><path d="M 210.712 65.14 L 210.712 65.14 L 210.712 65.554 L 207.867 65.554 L 207.867 65.14 Q 208.259 65.14 208.433 65.056 Q 208.606 64.972 208.651 64.787 Q 208.696 64.602 208.696 64.3 L 208.696 60.918 Q 208.696 60.537 208.573 60.458 Q 208.45 60.38 208.158 60.38 Q 208.013 60.38 207.923 60.391 Q 207.834 60.402 207.834 60.402 L 207.834 59.954 L 209.334 59.708 L 209.794 59.708 L 209.794 64.3 Q 209.794 64.625 209.844 64.81 Q 209.894 64.994 210.09 65.067 Q 210.286 65.14 210.712 65.14 Z M 209.234 57.233 L 209.234 57.233 Q 209.558 57.233 209.777 57.457 Q 209.995 57.681 209.995 57.972 Q 209.995 58.241 209.777 58.465 Q 209.558 58.689 209.234 58.689 Q 208.92 58.689 208.713 58.465 Q 208.506 58.241 208.506 57.972 Q 208.506 57.681 208.713 57.457 Q 208.92 57.233 209.234 57.233 Z " fill="black" /><path d="M 215.192 64.849 L 215.192 64.849 L 215.114 64.849 Q 214.733 65.162 214.274 65.398 Q 213.814 65.633 213.277 65.633 Q 212.571 65.633 212.196 65.207 Q 211.821 64.782 211.821 64.177 Q 211.821 63.662 212.062 63.314 Q 212.302 62.967 212.689 62.749 Q 213.075 62.53 213.523 62.396 Q 213.971 62.262 214.386 62.183 Q 214.8 62.105 215.08 62.038 L 215.08 61.455 Q 215.08 60.705 214.783 60.419 Q 214.486 60.134 213.915 60.134 Q 213.568 60.134 213.417 60.223 Q 213.266 60.313 213.226 60.514 Q 213.187 60.716 213.176 61.041 Q 213.165 61.287 213.03 61.438 Q 212.896 61.59 212.638 61.59 Q 212.392 61.59 212.218 61.438 Q 212.045 61.287 212.045 60.996 Q 212.045 60.649 212.314 60.346 Q 212.582 60.044 213.081 59.859 Q 213.579 59.674 214.251 59.674 Q 215.259 59.674 215.713 60.139 Q 216.166 60.604 216.166 61.534 L 216.166 64.278 Q 216.166 64.647 216.25 64.754 Q 216.334 64.86 216.514 64.86 Q 216.704 64.86 216.844 64.782 Q 216.984 64.703 217.107 64.558 L 217.354 64.793 Q 216.771 65.622 215.987 65.622 Q 215.55 65.622 215.388 65.414 Q 215.226 65.207 215.192 64.849 Z M 215.08 64.434 L 215.08 64.434 L 215.08 62.463 Q 214.565 62.598 214.072 62.76 Q 213.579 62.922 213.26 63.202 Q 212.941 63.482 212.941 63.986 Q 212.941 64.423 213.193 64.675 Q 213.445 64.927 213.837 64.927 Q 214.072 64.927 214.402 64.821 Q 214.733 64.714 215.08 64.434 Z " fill="black" /><path d="M 218.126 63.516 L 218.126 63.516 L 218.485 63.516 Q 218.63 64.166 218.832 64.524 Q 219.034 64.882 219.353 65.022 Q 219.672 65.162 220.131 65.162 Q 220.658 65.162 220.943 64.989 Q 221.229 64.815 221.229 64.378 Q 221.229 64.087 221.089 63.891 Q 220.949 63.695 220.641 63.516 Q 220.333 63.337 219.818 63.102 Q 219.291 62.844 218.916 62.62 Q 218.541 62.396 218.345 62.094 Q 218.149 61.791 218.149 61.332 Q 218.149 60.526 218.692 60.1 Q 219.235 59.674 220.053 59.674 Q 220.546 59.674 220.887 59.798 Q 221.229 59.921 221.43 60.01 L 221.453 60.01 L 221.632 59.73 L 221.946 59.73 L 221.968 61.59 L 221.576 61.59 Q 221.363 60.727 220.982 60.43 Q 220.602 60.134 220.109 60.134 Q 219.594 60.134 219.33 60.358 Q 219.067 60.582 219.067 60.94 Q 219.067 61.231 219.246 61.422 Q 219.426 61.612 219.756 61.774 Q 220.086 61.937 220.546 62.161 Q 221.061 62.407 221.453 62.67 Q 221.845 62.934 222.069 63.264 Q 222.293 63.594 222.293 64.087 Q 222.293 64.681 221.979 65.039 Q 221.666 65.398 221.173 65.549 Q 220.68 65.7 220.142 65.7 Q 219.594 65.7 219.291 65.588 Q 218.989 65.476 218.731 65.375 L 218.686 65.375 L 218.406 65.666 L 218.149 65.666 Z " fill="black" /></g></g></g><circle cx="86.99999999999996" cy="174.0" r="2.6999999999999997" style="stroke:black;fill:black;stroke-width:2.0;stroke-dasharray:-;" /></svg>