<svg xmlns="http://www.w3.org/2000/svg" xmlns:xlink="http://www.w3.org/1999/xlink" xml:lang="en" height="266.24pt" width="315.20000000000005pt" viewBox="-85.6 -94.60000000000002 315.20000000000005 266.24"><circle cx="108.0" cy="36.0" r="18.0" style="stroke:black;fill:none;stroke-width:2.0;stroke-dasharray:-;" /><circle cx="108.0" cy="-36.000000000000014" r="18.0" style="stroke:black;fill:none;stroke-width:2.0;stroke-dasharray:-;" /><path d="M 0.0,-0.0 L -36.0,-4.408728476930472e-15 L -72.0,-8.817456953860943e-15" style="stroke:black;fill:none;stroke-width:2.0;stroke-dasharray:-;stroke-linecap:round;stroke-linejoin:round;" /><path d="M -72.0,-8.817456953860943e-15 L -72.0,14.399999999999993 L -81.0,14.399999999999993 L -63.0,14.399999999999993 M -78.3,18.71999999999999 L -65.7,18.71999999999999 M -73.8,23.039999999999992 L -70.2,23.039999999999992" style="stroke:black;fill:none;stroke-width:2.0;stroke-dasharray:-;stroke-linecap:round;stroke-linejoin:round;" /><path d="M -1.3226185430791413e-14,72.0 L 53.999999999999986,72.0 L 107.99999999999999,72.0" style="stroke:black;fill:none;stroke-width:2.0;stroke-dasharray:-;stroke-linecap:round;stroke-linejoin:round;" /><path d="M 107.99999999999999,72.0 L 107.99999999999999,90.0 L 116.99999999999999,93.0 L 98.99999999999999,99.0 L 116.99999999999999,105.0 L 98.99999999999997,110.99999999999999 L 116.99999999999997,117.0 L 98.99999999999997,123.0 L 107.99999999999997,126.0 L 107.99999999999997,144.0" style="stroke:black;fill:none;stroke-width:2.0;stroke-dasharray:-;stroke-linecap:round;stroke-linejoin:round;" /><path d="M 107.99999999999997,144.0 L 107.99999999999997,158.4 L 98.99999999999997,158.4 L 116.99999999999997,158.4 M 101.69999999999997,162.71999999999997 L 114.29999999999995,162.71999999999997 M 106.19999999999997,167.04 L 109.79999999999995,167.04" style="stroke:black;fill:none;stroke-width:2.0;stroke-dasharray:-;stroke-linecap:round;stroke-linejoin:round;" /><path d="M 108.0,-0.0 L 108.0,18.0 L 108.0,18.0 M 107.99999999999999,54.0 L 107.99999999999999,54.0 L 107.99999999999999,72.0" style="stroke:black;fill:none;stroke-width:2.0;stroke-dasharray:-;stroke-linecap:round;stroke-linejoin:round;" /><path d="M 108.0,27.0 L 107.99999999999999,36.0" style="stroke:black;fill:none;stroke-width:2.0;stroke-dasharray:-;stroke-linecap:round;stroke-linejoin:round;" /><path d="M 107.99999999999999 43.0 L 105.3 36.0 L 110.69999999999999 36.0 Z" style="stroke:black;fill:black;stroke-linecap:butt;stroke-linejoin:miter;" /><path d="M 107.99999999999999,72.0 L 162.0,72.0 L 216.0,72.0" style="stroke:black;fill:none;stroke-width:2.0;stroke-dasharray:-;stroke-linecap:round;stroke-linejoin:round;" /><path d="M 216.0,72.0 L 216.0,54.0 L 207.0,50.99999999999999 L 225.0,45.0 L 207.0,39.00000000000001 L 225.0,33.0 L 207.0,27.0 L 225.0,21.000000000000007 L 216.0,18.0 L 216.0,-0.0" style="stroke:black;fill:none;stroke-width:2.0;stroke-dasharray:-;stroke-linecap:round;stroke-linejoin:round;" /><path d="M 216.0,-0.0 L 162.0,-6.613092715395707e-15 L 108.0,-1.3226185430791413e-14" style="stroke:black;fill:none;stroke-width:2.0;stroke-dasharray:-;stroke-linecap:round;stroke-linejoin:round;" /><path d="M 108.0,-1.3226185430791413e-14 L 108.0,-18.00000000000001 L 108.0,-18.00000000000001 M 108.0,-54.000000000000014 L 108.0,-54.000000000000014 L 108.0,-72.00000000000001" style="stroke:black;fill:none;stroke-width:2.0;stroke-dasharray:-;stroke-linecap:round;stroke-linejoin:round;" /><path d="M 108.0,-36.000000000000014 L 108.0,-45.000000000000014" style="stroke:black;fill:none;stroke-width:2.0;stroke-dasharray:-;stroke-linecap:round;stroke-linejoin:round;" /><path d="M 108.0 -29.00000000000001 L 105.3 -36.000000000000014 L 110.7 -36.000000000000014 Z" style="stroke:black;fill:black;stroke-linecap:butt;stroke-linejoin:miter;" /><path d="M 108.0,-72.00000000000001 L 108.0,-81.00000000000001 L 108.0,-90.00000000000001" style="stroke:black;fill:none;stroke-width:2.0;stroke-dasharray:-;stroke-linecap:round;stroke-linejoin:round;" /><path d="M 108.0,-90.00000000000001 L 126.0,-90.00000000000001 L 144.0,-90.00000000000001" style="stroke:black;fill:none;stroke-width:2.0;stroke-dasharray:-;stroke-linecap:round;stroke-linejoin:round;" /><path d="M 144.0,-90.00000000000001 L 144.0,-75.60000000000002 L 135.0,-75.60000000000002 L 153.0,-75.60000000000002 M 137.70000000000002,-71.28000000000002 L 150.29999999999998,-71.28000000000002 M 142.20000000000002,-66.96000000000001 L 145.79999999999998,-66.96000000000001" style="stroke:black;fill:none;stroke-width:2.0;stroke-dasharray:-;stroke-linecap:round;stroke-linejoin:round;" /><circle cx="0.0" cy="-0.0" r="2.6999999999999997" style="stroke:black;fill:white;stroke-width:2.0;stroke-dasharray:-;" /><g><g><g><path d="M 5.264 18.544 L 5.264 18.544 L 1.072 18.544 L 1.072 22.784 L -0.08 22.784 L -0.08 18.544 L -4.272 18.544 L -4.272 17.456 L -0.08 17.456 L -0.08 13.216 L 1.072 13.216 L 1.072 17.456 L 5.264 17.456 Z " fill="black" /></g></g></g><g><g><g><path d="M -6.043 29.114 L -6.043 29.114 L -5.691 29.114 L -6.443 32.186 Q -6.555 32.602 -6.675 33.186 Q -6.795 33.77 -6.795 34.314 Q -6.795 34.938 -6.539 35.394 Q -6.283 35.85 -5.547 35.85 Q -4.731 35.85 -4.139 35.458 Q -3.547 35.066 -3.171 34.458 Q -2.795 33.85 -2.611 33.178 Q -2.427 32.506 -2.427 31.946 Q -2.427 31.53 -2.571 31.226 Q -2.715 30.922 -2.915 30.682 Q -3.115 30.442 -3.259 30.218 Q -3.403 29.994 -3.403 29.738 Q -3.403 29.418 -3.227 29.242 Q -3.051 29.066 -2.795 29.066 Q -2.251 29.066 -1.915 29.61 Q -1.579 30.154 -1.579 31.002 Q -1.579 31.738 -1.763 32.546 Q -1.947 33.354 -2.315 34.122 Q -2.683 34.89 -3.227 35.514 Q -3.771 36.138 -4.475 36.506 Q -5.179 36.874 -6.043 36.874 Q -6.843 36.874 -7.291 36.554 Q -7.739 36.234 -7.923 35.706 Q -8.107 35.178 -8.107 34.57 Q -8.107 33.994 -7.995 33.386 Q -7.883 32.778 -7.755 32.282 L -7.435 31.066 Q -7.403 30.938 -7.339 30.682 Q -7.275 30.426 -7.275 30.186 Q -7.275 29.978 -7.355 29.834 Q -7.435 29.69 -7.659 29.69 Q -7.851 29.69 -8.123 29.714 Q -8.395 29.738 -8.395 29.738 L -8.395 29.29 Z " fill="black" /><path d="M 0.056 37.838 L 0.056 37.838 L 0.056 37.794 Q -0.336 37.558 -0.61 37.183 Q -0.885 36.808 -0.885 36.214 Q -0.885 35.587 -0.582 35.139 Q -0.28 34.691 0.235 34.45 Q 0.75 34.21 1.389 34.21 Q 1.982 34.21 2.358 34.338 Q 2.733 34.467 2.733 34.467 L 4.379 34.422 L 4.379 35.083 L 3.203 35.061 L 3.203 35.139 Q 3.349 35.341 3.506 35.615 Q 3.662 35.89 3.662 36.382 Q 3.662 36.942 3.366 37.351 Q 3.069 37.76 2.57 37.978 Q 2.072 38.197 1.445 38.197 Q 0.874 38.197 0.37 37.995 Q 0.291 38.141 0.185 38.41 Q 0.078 38.678 0.078 38.869 Q 0.078 39.104 0.353 39.216 Q 0.627 39.328 1.445 39.328 Q 2.05 39.328 2.565 39.356 Q 3.08 39.384 3.461 39.513 Q 3.842 39.642 4.049 39.927 Q 4.256 40.213 4.256 40.739 Q 4.256 41.344 3.948 41.764 Q 3.64 42.184 3.136 42.442 Q 2.632 42.699 2.044 42.817 Q 1.456 42.934 0.885 42.934 Q 0.067 42.934 -0.381 42.733 Q -0.829 42.531 -1.002 42.218 Q -1.176 41.904 -1.176 41.579 Q -1.176 41.266 -0.958 40.958 Q -0.739 40.65 -0.258 40.202 L -0.258 40.146 Q -0.538 40 -0.728 39.754 Q -0.918 39.507 -0.918 39.272 Q -0.918 38.936 -0.622 38.561 Q -0.325 38.186 0.056 37.838 Z M 0.112 40.258 L 0.112 40.258 Q -0.078 40.582 -0.146 40.773 Q -0.213 40.963 -0.213 41.154 Q -0.213 41.669 0.207 41.932 Q 0.627 42.195 1.512 42.195 Q 2.24 42.195 2.688 42.016 Q 3.136 41.837 3.349 41.585 Q 3.562 41.333 3.562 41.098 Q 3.562 40.795 3.366 40.627 Q 3.17 40.459 2.867 40.386 Q 2.565 40.314 2.229 40.291 Q 1.893 40.269 1.602 40.269 Q 1.523 40.269 1.478 40.269 Q 0.762 40.269 0.498 40.263 Q 0.235 40.258 0.112 40.258 Z M 1.322 34.702 L 1.322 34.702 Q 0.84 34.702 0.543 35.027 Q 0.246 35.352 0.246 36.147 Q 0.246 36.931 0.56 37.334 Q 0.874 37.738 1.445 37.738 Q 1.747 37.738 1.994 37.614 Q 2.24 37.491 2.391 37.166 Q 2.542 36.842 2.542 36.248 Q 2.542 35.486 2.212 35.094 Q 1.882 34.702 1.322 34.702 Z " fill="black" /><path d="M 5.365 38.051 L 5.365 38.051 L 5.723 38.051 Q 5.869 38.701 6.07 39.059 Q 6.272 39.418 6.591 39.558 Q 6.91 39.698 7.37 39.698 Q 7.896 39.698 8.182 39.524 Q 8.467 39.35 8.467 38.914 Q 8.467 38.622 8.327 38.426 Q 8.187 38.23 7.879 38.051 Q 7.571 37.872 7.056 37.637 Q 6.53 37.379 6.154 37.155 Q 5.779 36.931 5.583 36.629 Q 5.387 36.326 5.387 35.867 Q 5.387 35.061 5.93 34.635 Q 6.474 34.21 7.291 34.21 Q 7.784 34.21 8.126 34.333 Q 8.467 34.456 8.669 34.546 L 8.691 34.546 L 8.87 34.266 L 9.184 34.266 L 9.206 36.125 L 8.814 36.125 Q 8.602 35.262 8.221 34.966 Q 7.84 34.669 7.347 34.669 Q 6.832 34.669 6.569 34.893 Q 6.306 35.117 6.306 35.475 Q 6.306 35.766 6.485 35.957 Q 6.664 36.147 6.994 36.31 Q 7.325 36.472 7.784 36.696 Q 8.299 36.942 8.691 37.206 Q 9.083 37.469 9.307 37.799 Q 9.531 38.13 9.531 38.622 Q 9.531 39.216 9.218 39.574 Q 8.904 39.933 8.411 40.084 Q 7.918 40.235 7.381 40.235 Q 6.832 40.235 6.53 40.123 Q 6.227 40.011 5.97 39.91 L 5.925 39.91 L 5.645 40.202 L 5.387 40.202 Z " fill="black" /></g></g></g><g><g><g><rect x="-2.16" y="49.328" width="4.32" height="1.088" fill="black" /></g></g></g><circle cx="107.99999999999999" cy="72.0" r="2.6999999999999997" style="stroke:black;fill:black;stroke-width:2.0;stroke-dasharray:-;" /><circle cx="-1.3226185430791413e-14" cy="72.0" r="2.6999999999999997" style="stroke:black;fill:white;stroke-width:2.0;stroke-dasharray:-;" /><g><g><g><path d="M 88.843 106.646 L 88.843 106.646 L 88.763 107.142 Q 88.315 107.142 88.059 107.238 Q 87.803 107.334 87.675 107.598 Q 87.547 107.862 87.451 108.358 L 86.971 110.678 Q 85.995 111.174 85.091 111.47 Q 84.187 111.766 82.907 111.766 Q 81.755 111.766 80.979 111.446 Q 80.203 111.126 79.747 110.574 Q 79.291 110.022 79.091 109.318 Q 78.891 108.614 78.891 107.846 Q 78.891 106.118 79.427 104.806 Q 79.963 103.494 80.867 102.622 Q 81.771 101.75 82.907 101.31 Q 84.043 100.87 85.243 100.87 Q 86.091 100.87 86.563 101.014 Q 87.035 101.158 87.291 101.31 Q 87.547 101.462 87.755 101.462 Q 87.931 101.462 88.075 101.302 Q 88.219 101.142 88.411 100.886 L 88.859 100.886 L 88.123 104.55 L 87.595 104.55 Q 87.643 102.95 86.987 102.254 Q 86.331 101.558 85.099 101.558 Q 83.883 101.558 82.835 102.27 Q 81.787 102.982 81.155 104.302 Q 80.523 105.622 80.507 107.462 Q 80.507 109.238 81.171 110.15 Q 81.835 111.062 83.291 111.062 Q 84.027 111.062 84.587 110.838 Q 85.147 110.614 85.675 110.262 L 86.011 108.518 Q 86.139 107.942 86.099 107.646 Q 86.059 107.35 85.787 107.246 Q 85.515 107.142 84.907 107.142 L 85.003 106.646 Z " fill="black" /><path d="M 95.362 109.362 L 95.362 109.362 L 94.925 109.362 Q 94.768 108.779 94.538 108.359 Q 94.309 107.939 93.928 107.704 Q 93.547 107.469 92.931 107.469 Q 92.349 107.469 92.002 107.76 Q 91.654 108.051 91.654 108.578 Q 91.654 109.048 91.951 109.378 Q 92.248 109.709 92.713 109.972 Q 93.178 110.235 93.704 110.498 Q 94.23 110.762 94.695 111.086 Q 95.16 111.411 95.457 111.859 Q 95.754 112.307 95.754 112.957 Q 95.754 113.651 95.429 114.133 Q 95.104 114.614 94.544 114.861 Q 93.984 115.107 93.278 115.107 Q 92.64 115.107 92.242 115.018 Q 91.845 114.928 91.61 114.838 Q 91.374 114.749 91.218 114.749 Q 91.083 114.749 90.988 114.844 Q 90.893 114.939 90.882 115.13 L 90.389 115.13 L 90.389 112.453 L 90.826 112.453 Q 91.038 113.237 91.302 113.685 Q 91.565 114.133 91.979 114.318 Q 92.394 114.502 93.043 114.502 Q 93.715 114.502 94.118 114.239 Q 94.522 113.976 94.522 113.27 Q 94.522 112.789 94.236 112.453 Q 93.95 112.117 93.497 111.854 Q 93.043 111.59 92.534 111.333 Q 92.024 111.075 91.57 110.762 Q 91.117 110.448 90.831 110.006 Q 90.546 109.563 90.546 108.925 Q 90.546 108.275 90.87 107.833 Q 91.195 107.39 91.727 107.166 Q 92.259 106.942 92.875 106.942 Q 93.435 106.942 93.754 107.038 Q 94.074 107.133 94.253 107.228 Q 94.432 107.323 94.555 107.323 Q 94.723 107.323 94.807 107.25 Q 94.891 107.178 94.936 106.976 L 95.362 106.976 Z " fill="black" /></g></g></g><g><g><g><path d="M 55.834 29.258 L 55.834 29.258 L 55.738 30.074 L 54.346 29.914 L 54.346 29.962 Q 54.618 30.266 54.77 30.722 Q 54.922 31.178 54.922 31.594 Q 54.922 32.314 54.634 32.802 Q 54.346 33.29 53.882 33.586 Q 53.418 33.882 52.858 34.034 Q 52.298 34.186 51.77 34.234 Q 51.13 34.298 50.866 34.506 Q 50.602 34.714 50.602 34.938 Q 50.602 35.226 50.922 35.378 Q 51.242 35.53 51.746 35.626 Q 52.25 35.722 52.826 35.842 Q 53.402 35.962 53.906 36.17 Q 54.41 36.378 54.73 36.754 Q 55.05 37.13 55.05 37.754 Q 55.05 38.442 54.602 39.026 Q 54.154 39.61 53.274 39.97 Q 52.394 40.33 51.114 40.33 Q 49.962 40.33 49.274 40.05 Q 48.586 39.77 48.282 39.33 Q 47.978 38.89 47.978 38.41 Q 47.978 37.642 48.57 37.17 Q 49.162 36.698 49.914 36.458 L 49.914 36.394 Q 49.706 36.266 49.522 36.034 Q 49.338 35.802 49.338 35.434 Q 49.338 35.034 49.546 34.794 Q 49.754 34.554 50.082 34.402 Q 50.41 34.25 50.73 34.138 L 50.73 34.042 Q 50.106 33.77 49.642 33.274 Q 49.178 32.778 49.178 31.866 Q 49.178 31.034 49.578 30.402 Q 49.978 29.77 50.674 29.418 Q 51.37 29.066 52.234 29.066 Q 52.81 29.066 53.106 29.122 Q 53.402 29.178 53.69 29.258 Z M 53.898 38.346 L 53.898 38.346 Q 53.898 37.866 53.498 37.57 Q 53.098 37.274 52.506 37.098 Q 51.914 36.922 51.314 36.818 Q 50.714 36.714 50.298 36.634 Q 49.898 36.89 49.562 37.218 Q 49.226 37.546 49.226 38.17 Q 49.226 38.81 49.722 39.29 Q 50.218 39.77 51.434 39.77 Q 52.586 39.77 53.242 39.346 Q 53.898 38.922 53.898 38.346 Z M 53.498 31.418 L 53.498 31.418 Q 53.498 30.618 53.194 30.082 Q 52.89 29.546 52.186 29.546 Q 51.498 29.546 51.05 30.122 Q 50.602 30.698 50.602 31.866 Q 50.602 32.698 50.89 33.218 Q 51.178 33.738 51.866 33.738 Q 52.666 33.738 53.082 33.066 Q 53.498 32.394 53.498 31.418 Z " fill="black" /><path d="M 58.566 35.755 L 58.566 35.755 L 58.566 38.858 Q 58.566 39.194 58.634 39.373 Q 58.701 39.552 58.891 39.614 Q 59.082 39.675 59.451 39.675 L 59.451 40.09 L 56.629 40.09 L 56.629 39.675 Q 56.987 39.675 57.166 39.614 Q 57.346 39.552 57.402 39.367 Q 57.458 39.182 57.458 38.835 L 57.458 35.442 Q 57.458 35.128 57.34 35.022 Q 57.222 34.915 56.965 34.915 Q 56.842 34.915 56.746 34.926 Q 56.651 34.938 56.651 34.938 L 56.651 34.512 L 58.118 34.243 L 58.533 34.243 L 58.533 35.162 L 58.611 35.162 Q 59.082 34.736 59.552 34.473 Q 60.022 34.21 60.661 34.21 Q 61.187 34.21 61.518 34.478 Q 61.848 34.747 62.027 35.139 L 62.083 35.139 Q 63.102 34.21 64.043 34.21 Q 64.805 34.21 65.247 34.68 Q 65.69 35.15 65.69 36.17 L 65.69 38.634 Q 65.69 39.014 65.734 39.244 Q 65.779 39.474 65.958 39.574 Q 66.138 39.675 66.541 39.675 L 66.541 40.09 L 63.73 40.09 L 63.73 39.675 Q 64.144 39.675 64.329 39.569 Q 64.514 39.462 64.558 39.233 Q 64.603 39.003 64.603 38.634 L 64.603 36.304 Q 64.603 35.598 64.318 35.318 Q 64.032 35.038 63.584 35.038 Q 63.203 35.038 62.822 35.268 Q 62.442 35.498 62.15 35.722 L 62.15 38.634 Q 62.15 39.048 62.201 39.278 Q 62.251 39.507 62.447 39.591 Q 62.643 39.675 63.058 39.675 L 63.058 40.09 L 60.134 40.09 L 60.134 39.675 Q 60.56 39.675 60.756 39.591 Q 60.952 39.507 61.008 39.278 Q 61.064 39.048 61.064 38.634 L 61.064 36.27 Q 61.064 35.565 60.812 35.302 Q 60.56 35.038 60.123 35.038 Q 59.664 35.038 59.244 35.285 Q 58.824 35.531 58.566 35.755 Z " fill="black" /><path d="M 70.234 29.114 L 70.234 29.114 L 70.586 29.114 L 69.834 32.186 Q 69.722 32.602 69.602 33.186 Q 69.482 33.77 69.482 34.314 Q 69.482 34.938 69.738 35.394 Q 69.994 35.85 70.73 35.85 Q 71.546 35.85 72.138 35.458 Q 72.73 35.066 73.106 34.458 Q 73.482 33.85 73.666 33.178 Q 73.85 32.506 73.85 31.946 Q 73.85 31.53 73.706 31.226 Q 73.562 30.922 73.362 30.682 Q 73.162 30.442 73.018 30.218 Q 72.874 29.994 72.874 29.738 Q 72.874 29.418 73.05 29.242 Q 73.226 29.066 73.482 29.066 Q 74.026 29.066 74.362 29.61 Q 74.698 30.154 74.698 31.002 Q 74.698 31.738 74.514 32.546 Q 74.33 33.354 73.962 34.122 Q 73.594 34.89 73.05 35.514 Q 72.506 36.138 71.802 36.506 Q 71.098 36.874 70.234 36.874 Q 69.434 36.874 68.986 36.554 Q 68.538 36.234 68.354 35.706 Q 68.17 35.178 68.17 34.57 Q 68.17 33.994 68.282 33.386 Q 68.394 32.778 68.522 32.282 L 68.842 31.066 Q 68.874 30.938 68.938 30.682 Q 69.002 30.426 69.002 30.186 Q 69.002 29.978 68.922 29.834 Q 68.842 29.69 68.618 29.69 Q 68.426 29.69 68.154 29.714 Q 67.882 29.738 67.882 29.738 L 67.882 29.29 Z " fill="black" /><path d="M 76.333 37.838 L 76.333 37.838 L 76.333 37.794 Q 75.941 37.558 75.666 37.183 Q 75.392 36.808 75.392 36.214 Q 75.392 35.587 75.694 35.139 Q 75.997 34.691 76.512 34.45 Q 77.027 34.21 77.666 34.21 Q 78.259 34.21 78.634 34.338 Q 79.01 34.467 79.01 34.467 L 80.656 34.422 L 80.656 35.083 L 79.48 35.061 L 79.48 35.139 Q 79.626 35.341 79.782 35.615 Q 79.939 35.89 79.939 36.382 Q 79.939 36.942 79.642 37.351 Q 79.346 37.76 78.847 37.978 Q 78.349 38.197 77.722 38.197 Q 77.15 38.197 76.646 37.995 Q 76.568 38.141 76.462 38.41 Q 76.355 38.678 76.355 38.869 Q 76.355 39.104 76.63 39.216 Q 76.904 39.328 77.722 39.328 Q 78.326 39.328 78.842 39.356 Q 79.357 39.384 79.738 39.513 Q 80.118 39.642 80.326 39.927 Q 80.533 40.213 80.533 40.739 Q 80.533 41.344 80.225 41.764 Q 79.917 42.184 79.413 42.442 Q 78.909 42.699 78.321 42.817 Q 77.733 42.934 77.162 42.934 Q 76.344 42.934 75.896 42.733 Q 75.448 42.531 75.274 42.218 Q 75.101 41.904 75.101 41.579 Q 75.101 41.266 75.319 40.958 Q 75.538 40.65 76.019 40.202 L 76.019 40.146 Q 75.739 40 75.549 39.754 Q 75.358 39.507 75.358 39.272 Q 75.358 38.936 75.655 38.561 Q 75.952 38.186 76.333 37.838 Z M 76.389 40.258 L 76.389 40.258 Q 76.198 40.582 76.131 40.773 Q 76.064 40.963 76.064 41.154 Q 76.064 41.669 76.484 41.932 Q 76.904 42.195 77.789 42.195 Q 78.517 42.195 78.965 42.016 Q 79.413 41.837 79.626 41.585 Q 79.838 41.333 79.838 41.098 Q 79.838 40.795 79.642 40.627 Q 79.446 40.459 79.144 40.386 Q 78.842 40.314 78.506 40.291 Q 78.17 40.269 77.878 40.269 Q 77.8 40.269 77.755 40.269 Q 77.038 40.269 76.775 40.263 Q 76.512 40.258 76.389 40.258 Z M 77.598 34.702 L 77.598 34.702 Q 77.117 34.702 76.82 35.027 Q 76.523 35.352 76.523 36.147 Q 76.523 36.931 76.837 37.334 Q 77.15 37.738 77.722 37.738 Q 78.024 37.738 78.27 37.614 Q 78.517 37.491 78.668 37.166 Q 78.819 36.842 78.819 36.248 Q 78.819 35.486 78.489 35.094 Q 78.158 34.702 77.598 34.702 Z " fill="black" /><path d="M 81.642 38.051 L 81.642 38.051 L 82 38.051 Q 82.146 38.701 82.347 39.059 Q 82.549 39.418 82.868 39.558 Q 83.187 39.698 83.646 39.698 Q 84.173 39.698 84.458 39.524 Q 84.744 39.35 84.744 38.914 Q 84.744 38.622 84.604 38.426 Q 84.464 38.23 84.156 38.051 Q 83.848 37.872 83.333 37.637 Q 82.806 37.379 82.431 37.155 Q 82.056 36.931 81.86 36.629 Q 81.664 36.326 81.664 35.867 Q 81.664 35.061 82.207 34.635 Q 82.75 34.21 83.568 34.21 Q 84.061 34.21 84.402 34.333 Q 84.744 34.456 84.946 34.546 L 84.968 34.546 L 85.147 34.266 L 85.461 34.266 L 85.483 36.125 L 85.091 36.125 Q 84.878 35.262 84.498 34.966 Q 84.117 34.669 83.624 34.669 Q 83.109 34.669 82.846 34.893 Q 82.582 35.117 82.582 35.475 Q 82.582 35.766 82.762 35.957 Q 82.941 36.147 83.271 36.31 Q 83.602 36.472 84.061 36.696 Q 84.576 36.942 84.968 37.206 Q 85.36 37.469 85.584 37.799 Q 85.808 38.13 85.808 38.622 Q 85.808 39.216 85.494 39.574 Q 85.181 39.933 84.688 40.084 Q 84.195 40.235 83.658 40.235 Q 83.109 40.235 82.806 40.123 Q 82.504 40.011 82.246 39.91 L 82.202 39.91 L 81.922 40.202 L 81.664 40.202 Z " fill="black" /></g></g></g><g><g><g><path d="M 190.611 30.56 L 190.611 30.56 L 190.515 31.376 L 189.123 31.216 L 189.123 31.264 Q 189.395 31.568 189.547 32.024 Q 189.699 32.48 189.699 32.896 Q 189.699 33.616 189.411 34.104 Q 189.123 34.592 188.659 34.888 Q 188.195 35.184 187.635 35.336 Q 187.075 35.488 186.547 35.536 Q 185.907 35.6 185.643 35.808 Q 185.379 36.016 185.379 36.24 Q 185.379 36.528 185.699 36.68 Q 186.019 36.832 186.523 36.928 Q 187.027 37.024 187.603 37.144 Q 188.179 37.264 188.683 37.472 Q 189.187 37.68 189.507 38.056 Q 189.827 38.432 189.827 39.056 Q 189.827 39.744 189.379 40.328 Q 188.931 40.912 188.051 41.272 Q 187.171 41.632 185.891 41.632 Q 184.739 41.632 184.051 41.352 Q 183.363 41.072 183.059 40.632 Q 182.755 40.192 182.755 39.712 Q 182.755 38.944 183.347 38.472 Q 183.939 38 184.691 37.76 L 184.691 37.696 Q 184.483 37.568 184.299 37.336 Q 184.115 37.104 184.115 36.736 Q 184.115 36.336 184.323 36.096 Q 184.531 35.856 184.859 35.704 Q 185.187 35.552 185.507 35.44 L 185.507 35.344 Q 184.883 35.072 184.419 34.576 Q 183.955 34.08 183.955 33.168 Q 183.955 32.336 184.355 31.704 Q 184.755 31.072 185.451 30.72 Q 186.147 30.368 187.011 30.368 Q 187.587 30.368 187.883 30.424 Q 188.179 30.48 188.467 30.56 Z M 188.675 39.648 L 188.675 39.648 Q 188.675 39.168 188.275 38.872 Q 187.875 38.576 187.283 38.4 Q 186.691 38.224 186.091 38.12 Q 185.491 38.016 185.075 37.936 Q 184.675 38.192 184.339 38.52 Q 184.003 38.848 184.003 39.472 Q 184.003 40.112 184.499 40.592 Q 184.995 41.072 186.211 41.072 Q 187.363 41.072 188.019 40.648 Q 188.675 40.224 188.675 39.648 Z M 188.275 32.72 L 188.275 32.72 Q 188.275 31.92 187.971 31.384 Q 187.667 30.848 186.963 30.848 Q 186.275 30.848 185.827 31.424 Q 185.379 32 185.379 33.168 Q 185.379 34 185.667 34.52 Q 185.955 35.04 186.643 35.04 Q 187.443 35.04 187.859 34.368 Q 188.275 33.696 188.275 32.72 Z " fill="black" /><path d="M 197.454 41.246 L 197.454 41.246 L 195.942 41.448 L 195.539 41.448 L 195.539 40.664 L 195.461 40.664 Q 195.091 40.978 194.626 41.235 Q 194.162 41.493 193.579 41.493 Q 192.918 41.493 192.454 41.134 Q 191.989 40.776 191.742 40.149 Q 191.496 39.522 191.496 38.726 Q 191.496 37.73 191.882 37.007 Q 192.269 36.285 192.913 35.898 Q 193.557 35.512 194.318 35.512 Q 194.979 35.512 195.517 35.814 L 195.517 34.37 Q 195.517 33.966 195.433 33.838 Q 195.349 33.709 194.99 33.709 Q 194.912 33.709 194.783 33.726 Q 194.654 33.742 194.654 33.742 L 194.654 33.317 L 196.144 33.026 L 196.603 33.026 L 196.603 40.126 Q 196.603 40.563 196.726 40.692 Q 196.85 40.821 197.152 40.821 L 197.454 40.821 Z M 195.517 40.149 L 195.517 40.149 L 195.517 36.878 Q 195.394 36.565 195.108 36.318 Q 194.822 36.072 194.296 36.072 Q 193.546 36.072 193.064 36.582 Q 192.582 37.091 192.582 38.267 Q 192.582 39.466 193.002 40.02 Q 193.422 40.574 194.184 40.574 Q 194.542 40.574 194.839 40.474 Q 195.136 40.373 195.517 40.149 Z " fill="black" /><path d="M 198.642 39.354 L 198.642 39.354 L 199 39.354 Q 199.146 40.003 199.347 40.362 Q 199.549 40.72 199.868 40.86 Q 200.187 41 200.646 41 Q 201.173 41 201.458 40.826 Q 201.744 40.653 201.744 40.216 Q 201.744 39.925 201.604 39.729 Q 201.464 39.533 201.156 39.354 Q 200.848 39.174 200.333 38.939 Q 199.806 38.682 199.431 38.458 Q 199.056 38.234 198.86 37.931 Q 198.664 37.629 198.664 37.17 Q 198.664 36.363 199.207 35.938 Q 199.75 35.512 200.568 35.512 Q 201.061 35.512 201.402 35.635 Q 201.744 35.758 201.946 35.848 L 201.968 35.848 L 202.147 35.568 L 202.461 35.568 L 202.483 37.427 L 202.091 37.427 Q 201.878 36.565 201.498 36.268 Q 201.117 35.971 200.624 35.971 Q 200.109 35.971 199.846 36.195 Q 199.582 36.419 199.582 36.778 Q 199.582 37.069 199.762 37.259 Q 199.941 37.45 200.271 37.612 Q 200.602 37.774 201.061 37.998 Q 201.576 38.245 201.968 38.508 Q 202.36 38.771 202.584 39.102 Q 202.808 39.432 202.808 39.925 Q 202.808 40.518 202.494 40.877 Q 202.181 41.235 201.688 41.386 Q 201.195 41.538 200.658 41.538 Q 200.109 41.538 199.806 41.426 Q 199.504 41.314 199.246 41.213 L 199.202 41.213 L 198.922 41.504 L 198.664 41.504 Z " fill="black" /></g></g></g><circle cx="108.0" cy="-1.3226185430791413e-14" r="2.6999999999999997" style="stroke:black;fill:black;stroke-width:2.0;stroke-dasharray:-;" /><g><g><g><path d="M 151.056 -17.41 L 151.056 -17.41 L 151.408 -17.41 L 150.656 -14.338 Q 150.544 -13.922 150.424 -13.338 Q 150.304 -12.754 150.304 -12.21 Q 150.304 -11.586 150.56 -11.13 Q 150.816 -10.674 151.552 -10.674 Q 152.368 -10.674 152.96 -11.066 Q 153.552 -11.458 153.928 -12.066 Q 154.304 -12.674 154.488 -13.346 Q 154.672 -14.018 154.672 -14.578 Q 154.672 -14.994 154.528 -15.298 Q 154.384 -15.602 154.184 -15.842 Q 153.984 -16.082 153.84 -16.306 Q 153.696 -16.53 153.696 -16.786 Q 153.696 -17.106 153.872 -17.282 Q 154.048 -17.458 154.304 -17.458 Q 154.848 -17.458 155.184 -16.914 Q 155.52 -16.37 155.52 -15.522 Q 155.52 -14.786 155.336 -13.978 Q 155.152 -13.17 154.784 -12.402 Q 154.416 -11.634 153.872 -11.01 Q 153.328 -10.386 152.624 -10.018 Q 151.92 -9.65 151.056 -9.65 Q 150.256 -9.65 149.808 -9.97 Q 149.36 -10.29 149.176 -10.818 Q 148.992 -11.346 148.992 -11.954 Q 148.992 -12.53 149.104 -13.138 Q 149.216 -13.746 149.344 -14.242 L 149.664 -15.458 Q 149.696 -15.586 149.76 -15.842 Q 149.824 -16.098 149.824 -16.338 Q 149.824 -16.546 149.744 -16.69 Q 149.664 -16.834 149.44 -16.834 Q 149.248 -16.834 148.976 -16.81 Q 148.704 -16.786 148.704 -16.786 L 148.704 -17.234 Z " fill="black" /><path d="M 158.981 -12.314 L 158.981 -12.314 Q 159.821 -12.314 160.448 -11.95 Q 161.076 -11.586 161.417 -10.931 Q 161.759 -10.276 161.759 -9.391 Q 161.759 -8.327 161.4 -7.644 Q 161.042 -6.961 160.415 -6.63 Q 159.788 -6.3 158.981 -6.3 Q 158.164 -6.3 157.531 -6.642 Q 156.898 -6.983 156.545 -7.666 Q 156.192 -8.35 156.192 -9.38 Q 156.192 -10.254 156.54 -10.914 Q 156.887 -11.575 157.514 -11.945 Q 158.141 -12.314 158.981 -12.314 Z M 158.959 -11.799 L 158.959 -11.799 Q 158.22 -11.799 157.8 -11.2 Q 157.38 -10.601 157.38 -9.447 Q 157.38 -8.025 157.811 -7.437 Q 158.242 -6.849 159.015 -6.849 Q 159.508 -6.86 159.855 -7.095 Q 160.202 -7.33 160.387 -7.885 Q 160.572 -8.439 160.572 -9.391 Q 160.572 -10.534 160.18 -11.166 Q 159.788 -11.799 158.959 -11.799 Z " fill="black" /><path d="M 169.375 -7.006 L 169.375 -7.006 L 169.375 -6.58 L 167.863 -6.378 L 167.504 -6.378 L 167.504 -7.252 L 167.392 -7.252 Q 166.967 -6.871 166.53 -6.597 Q 166.093 -6.322 165.477 -6.322 Q 164.648 -6.322 164.212 -6.826 Q 163.775 -7.33 163.775 -8.574 L 163.775 -10.982 Q 163.775 -11.441 163.612 -11.547 Q 163.45 -11.654 162.935 -11.654 L 162.935 -12.057 L 164.492 -12.27 L 164.861 -12.27 L 164.861 -8.719 Q 164.861 -8.092 165.007 -7.745 Q 165.152 -7.398 165.399 -7.263 Q 165.645 -7.129 165.936 -7.129 Q 166.429 -7.129 166.76 -7.336 Q 167.09 -7.543 167.448 -7.834 L 167.448 -10.982 Q 167.448 -11.441 167.247 -11.547 Q 167.045 -11.654 166.474 -11.654 L 166.474 -12.057 L 168.143 -12.27 L 168.535 -12.27 L 168.535 -7.734 Q 168.535 -7.398 168.596 -7.241 Q 168.658 -7.084 168.815 -7.045 Q 168.972 -7.006 169.252 -7.006 Z " fill="black" /><path d="M 173.743 -7.554 L 173.743 -7.554 L 174 -7.342 Q 173.754 -7.006 173.552 -6.776 Q 173.351 -6.546 173.093 -6.423 Q 172.836 -6.3 172.432 -6.3 Q 171.783 -6.3 171.486 -6.67 Q 171.189 -7.039 171.189 -7.857 L 171.189 -11.62 L 170.484 -11.62 L 170.484 -11.956 Q 170.887 -12.247 171.223 -12.667 Q 171.559 -13.087 171.895 -13.871 L 172.287 -13.871 L 172.276 -12.169 L 173.698 -12.169 L 173.698 -11.62 L 172.276 -11.62 L 172.276 -8.226 Q 172.276 -7.599 172.393 -7.336 Q 172.511 -7.073 172.869 -7.073 Q 173.194 -7.073 173.362 -7.19 Q 173.53 -7.308 173.743 -7.554 Z " fill="black" /></g></g></g><g><g><g><path d="M 67.581 -40.043 L 67.581 -40.043 L 66.381 -34.347 Q 66.381 -34.347 66.341 -34.099 Q 66.301 -33.851 66.301 -33.675 Q 66.301 -33.371 66.589 -33.371 Q 67.005 -33.371 67.325 -33.683 Q 67.645 -33.995 67.837 -34.203 L 68.157 -33.963 Q 67.885 -33.579 67.565 -33.187 Q 67.245 -32.795 66.845 -32.539 Q 66.445 -32.283 65.917 -32.283 Q 64.909 -32.283 64.909 -33.131 Q 64.909 -33.339 64.965 -33.667 Q 65.021 -33.995 65.181 -34.699 L 65.997 -38.507 Q 65.997 -38.507 66.021 -38.651 Q 66.045 -38.795 66.045 -39.003 Q 66.045 -39.163 65.949 -39.315 Q 65.853 -39.467 65.533 -39.467 Q 65.325 -39.467 65.157 -39.451 Q 64.989 -39.435 64.989 -39.435 L 64.989 -39.867 L 67.229 -40.043 Z M 67.965 -42.187 L 67.965 -42.187 Q 67.965 -41.787 67.709 -41.555 Q 67.453 -41.323 67.085 -41.323 Q 66.733 -41.323 66.493 -41.547 Q 66.253 -41.771 66.253 -42.187 Q 66.253 -42.603 66.493 -42.835 Q 66.733 -43.067 67.133 -43.067 Q 67.533 -43.067 67.749 -42.827 Q 67.965 -42.587 67.965 -42.187 Z " fill="black" /><path d="M 71.922 -34.947 L 71.922 -34.947 Q 72.762 -34.947 73.389 -34.583 Q 74.016 -34.219 74.358 -33.564 Q 74.699 -32.909 74.699 -32.024 Q 74.699 -30.96 74.341 -30.277 Q 73.982 -29.594 73.355 -29.263 Q 72.728 -28.933 71.922 -28.933 Q 71.104 -28.933 70.471 -29.274 Q 69.838 -29.616 69.486 -30.299 Q 69.133 -30.982 69.133 -32.013 Q 69.133 -32.886 69.48 -33.547 Q 69.827 -34.208 70.454 -34.578 Q 71.082 -34.947 71.922 -34.947 Z M 71.899 -34.432 L 71.899 -34.432 Q 71.16 -34.432 70.74 -33.833 Q 70.32 -33.234 70.32 -32.08 Q 70.32 -30.658 70.751 -30.07 Q 71.182 -29.482 71.955 -29.482 Q 72.448 -29.493 72.795 -29.728 Q 73.142 -29.963 73.327 -30.518 Q 73.512 -31.072 73.512 -32.024 Q 73.512 -33.166 73.12 -33.799 Q 72.728 -34.432 71.899 -34.432 Z " fill="black" /><path d="M 82.315 -29.638 L 82.315 -29.638 L 82.315 -29.213 L 80.803 -29.011 L 80.445 -29.011 L 80.445 -29.885 L 80.333 -29.885 Q 79.907 -29.504 79.47 -29.23 Q 79.034 -28.955 78.418 -28.955 Q 77.589 -28.955 77.152 -29.459 Q 76.715 -29.963 76.715 -31.206 L 76.715 -33.614 Q 76.715 -34.074 76.553 -34.18 Q 76.39 -34.286 75.875 -34.286 L 75.875 -34.69 L 77.432 -34.902 L 77.802 -34.902 L 77.802 -31.352 Q 77.802 -30.725 77.947 -30.378 Q 78.093 -30.03 78.339 -29.896 Q 78.586 -29.762 78.877 -29.762 Q 79.37 -29.762 79.7 -29.969 Q 80.03 -30.176 80.389 -30.467 L 80.389 -33.614 Q 80.389 -34.074 80.187 -34.18 Q 79.986 -34.286 79.414 -34.286 L 79.414 -34.69 L 81.083 -34.902 L 81.475 -34.902 L 81.475 -30.366 Q 81.475 -30.03 81.537 -29.874 Q 81.598 -29.717 81.755 -29.678 Q 81.912 -29.638 82.192 -29.638 Z " fill="black" /><path d="M 86.683 -30.187 L 86.683 -30.187 L 86.941 -29.974 Q 86.694 -29.638 86.493 -29.409 Q 86.291 -29.179 86.034 -29.056 Q 85.776 -28.933 85.373 -28.933 Q 84.723 -28.933 84.426 -29.302 Q 84.13 -29.672 84.13 -30.49 L 84.13 -34.253 L 83.424 -34.253 L 83.424 -34.589 Q 83.827 -34.88 84.163 -35.3 Q 84.499 -35.72 84.835 -36.504 L 85.227 -36.504 L 85.216 -34.802 L 86.638 -34.802 L 86.638 -34.253 L 85.216 -34.253 L 85.216 -30.859 Q 85.216 -30.232 85.334 -29.969 Q 85.451 -29.706 85.81 -29.706 Q 86.134 -29.706 86.302 -29.823 Q 86.47 -29.941 86.683 -30.187 Z " fill="black" /></g></g></g></svg>