<svg xmlns="http://www.w3.org/2000/svg" xmlns:xlink="http://www.w3.org/1999/xlink" width="900" height="532" version="1.1">
<style type="text/css">
.l0{
  fill: #ffffff;
  stroke: #ffffff;
  stroke-linecap:round;
  stroke-linejoin:round;
  stroke-width: 0.308595;
}
.l1{
  fill: #0044ee;
  stroke: #0044ee;
  stroke-linecap:round;
  stroke-linejoin:round;
  stroke-width: 0.308595;
}
.l2{
  fill: #aaaaaa; fill-opacity: 0.2;
  stroke: #aaaaaa;
  stroke-linecap:round;
  stroke-linejoin:round;
  stroke-width: 0.308595;
}
.l3{
  fill: #222222; fill-opacity: 0.5;
  stroke: #222222;
  stroke-linecap:round;
  stroke-linejoin:round;
  stroke-width: 0.308595;
}
.l4{
  fill: #229900;
  stroke: #229900;
  stroke-linecap:round;
  stroke-linejoin:round;
  stroke-width: 0.308595;
}
.l5{
  fill: #bb2200;
  stroke: #bb2200;
  stroke-linecap:round;
  stroke-linejoin:round;
  stroke-width: 0.308595;
}
.l6{
  fill: #00ccee; fill-opacity: 0.5;
  stroke: #00ccee;
  stroke-linecap:round;
  stroke-linejoin:round;
  stroke-width: 0.308595;
}
.l7{
  fill: #ff0000; fill-opacity: 0.5;
  stroke: #ff0000;
  stroke-linecap:round;
  stroke-linejoin:round;
  stroke-width: 0.308595;
}
.l8{
  fill: #888800; fill-opacity: 0.5;
  stroke: #888800;
  stroke-linecap:round;
  stroke-linejoin:round;
  stroke-width: 0.308595;
}
.l9{
  fill: #00aaaa; fill-opacity: 0.5;
  stroke: #00aaaa;
  stroke-linecap:round;
  stroke-linejoin:round;
  stroke-width: 0.308595;
}
.l10{
  fill: #880088;
  stroke: #880088;
  stroke-linecap:round;
  stroke-linejoin:round;
  stroke-width: 0.308595;
}
.l11{
  fill: #00ff00; fill-opacity: 0.5;
  stroke: #00ff00;
  stroke-linecap:round;
  stroke-linejoin:round;
  stroke-width: 0.308595;
}
.l12{
  fill: #0000cc; fill-opacity: 0.5;
  stroke: #0000cc;
  stroke-linecap:round;
  stroke-linejoin:round;
  stroke-width: 0.308595;
}
.l13{
  fill: #666600; fill-opacity: 0.5;
  stroke: #666600;
  stroke-linecap:round;
  stroke-linejoin:round;
  stroke-width: 0.308595;
}
.l14{
  fill: #557755; fill-opacity: 0.2;
  stroke: #557755;
  stroke-linecap:round;
  stroke-linejoin:round;
  stroke-width: 0.308595;
}
.l15{
  fill: #aa2222; fill-opacity: 0.5;
  stroke: #aa2222;
  stroke-linecap:round;
  stroke-linejoin:round;
  stroke-width: 0.308595;
}
.l16{
  fill: #7ccc40; fill-opacity: 0.5;
  stroke: #7ccc40;
  stroke-linecap:round;
  stroke-linejoin:round;
  stroke-width: 0.308595;
}
.l17{
  fill: #00ffcc; fill-opacity: 0.2;
  stroke: #00ffcc;
  stroke-linecap:round;
  stroke-linejoin:round;
  stroke-width: 0.308595;
}
.l18{
  fill: #ce0097; fill-opacity: 0.5;
  stroke: #ce0097;
  stroke-linecap:round;
  stroke-linejoin:round;
  stroke-width: 0.308595;
}
.l19{
  fill: #d2d46b; fill-opacity: 0.2;
  stroke: #d2d46b;
  stroke-linecap:round;
  stroke-linejoin:round;
  stroke-width: 0.308595;
}
.l20{
  fill: #ef6158; fill-opacity: 0.2;
  stroke: #ef6158;
  stroke-linecap:round;
  stroke-linejoin:round;
  stroke-width: 0.308595;
}
.l21{
  fill: #fdb200; fill-opacity: 0.2;
  stroke: #fdb200;
  stroke-linecap:round;
  stroke-linejoin:round;
  stroke-width: 0.308595;
}
text {font-family: Sans-Serif;}
</style>
<rect class="l0" x="0" y="0" width="900" height="532"/>
<text fill="#0044ee"  xml:space="preserve" font-size="4.01174" transform="translate(347.993, 272.399)" >v_a</text>
<text fill="#0044ee"  xml:space="preserve" font-size="2.97166" transform="translate(363.565, 317.845)" >GND</text>
<text fill="#0044ee"  xml:space="preserve" font-size="4.01174" transform="translate(499.29, 226.681)" >vout_tg_on</text>
<text fill="#0044ee"  xml:space="preserve" font-size="2.97166" transform="translate(432.141, 266.412)" >GND</text>
<text fill="#0044ee"  xml:space="preserve" font-size="2.97166" transform="translate(426.427, 186.406)" >VDD</text>
<text fill="#0044ee"  xml:space="preserve" font-size="4.01174" transform="translate(499.29, 318.117)" >vout_tg_off</text>
<text fill="#0044ee"  xml:space="preserve" font-size="2.97166" transform="translate(432.141, 363.563)" >GND</text>
<text fill="#0044ee"  xml:space="preserve" font-size="2.97166" transform="translate(426.427, 277.842)" >VDD</text>
<text fill="#0044ee"  xml:space="preserve" font-size="2.97166" transform="translate(443.571, 297.843)" >GND</text>
<text fill="#0044ee"  xml:space="preserve" font-size="2.97166" transform="translate(437.856, 343.561)" >VDD</text>
<text fill="#0044ee"  xml:space="preserve" font-size="2.97166" transform="translate(323.562, 317.845)" >GND</text>
<text fill="#0044ee"  xml:space="preserve" font-size="2.97166" transform="translate(317.847, 266.412)" >VDD</text>
<text fill="#0044ee"  xml:space="preserve" font-size="2.97166" transform="translate(489.289, 266.412)" >GND</text>
<text fill="#0044ee"  xml:space="preserve" font-size="2.97166" transform="translate(489.289, 363.563)" >GND</text>
<text fill="#aa2222"  xml:space="preserve" font-size="2.97166" transform="translate(654.123, 226.74)" >? </text>
<text fill="#aa2222"  xml:space="preserve" font-size="2.97166" transform="translate(654.123, 223.168)" >vth =</text>
<text fill="#aa2222"  xml:space="preserve" font-size="2.97166" transform="translate(676.982, 226.74)" >? </text>
<text fill="#aa2222"  xml:space="preserve" font-size="2.97166" transform="translate(676.982, 223.168)" >id =</text>
<text fill="#aa2222"  xml:space="preserve" font-size="2.97166" transform="translate(654.123, 238.169)" >? </text>
<text fill="#aa2222"  xml:space="preserve" font-size="2.97166" transform="translate(654.123, 234.598)" >vgs =</text>
<text fill="#aa2222"  xml:space="preserve" font-size="2.97166" transform="translate(676.982, 261.028)" >? </text>
<text fill="#aa2222"  xml:space="preserve" font-size="2.97166" transform="translate(676.982, 257.456)" >gmb =</text>
<text fill="#aa2222"  xml:space="preserve" font-size="2.97166" transform="translate(699.841, 226.74)" >? </text>
<text fill="#aa2222"  xml:space="preserve" font-size="2.97166" transform="translate(699.841, 223.168)" >cgs =</text>
<text fill="#aa2222"  xml:space="preserve" font-size="2.97166" transform="translate(676.982, 238.169)" >? </text>
<text fill="#aa2222"  xml:space="preserve" font-size="2.97166" transform="translate(676.982, 234.598)" >gm =</text>
<text fill="#aa2222"  xml:space="preserve" font-size="2.97166" transform="translate(676.982, 249.599)" >? </text>
<text fill="#aa2222"  xml:space="preserve" font-size="2.97166" transform="translate(676.982, 246.027)" >gds =</text>
<text fill="#aa2222"  xml:space="preserve" font-size="2.97166" transform="translate(654.123, 249.599)" >? </text>
<text fill="#aa2222"  xml:space="preserve" font-size="2.97166" transform="translate(654.123, 246.027)" >vds =</text>
<text fill="#aa2222"  xml:space="preserve" font-size="2.97166" transform="translate(654.123, 261.028)" >? </text>
<text fill="#aa2222"  xml:space="preserve" font-size="2.97166" transform="translate(654.123, 257.456)" >vod =</text>
<text fill="#222222"  xml:space="preserve" font-size="11.8866" transform="translate(612.87, 507.382)" >2024-11-25  22:03:09</text>
<text fill="#222222"  xml:space="preserve" font-size="11.8866" transform="translate(432.856, 484.523)" >Simon Dorrer</text>
<text fill="#222222"  xml:space="preserve" font-size="11.8866" transform="translate(432.856, 507.382)" >Page  of </text>
<text fill="#222222"  xml:space="preserve" font-size="11.8866" transform="translate(530.006, 507.382)" >Rev. 1.0</text>
<text fill="#222222"  xml:space="preserve" font-size="14.8583" transform="translate(137.119, 520.081)" >SCHEM</text>
<text fill="#222222"  xml:space="preserve" font-size="2.97166" transform="translate(367.136, 291.057)" >v_a</text>
<text fill="#222222"  xml:space="preserve" font-size="2.97166" transform="translate(367.136, 298.201)" >0.75</text>
<text fill="#222222"  xml:space="preserve" font-size="2.97166" transform="translate(327.133, 291.057)" >VDD</text>
<text fill="#222222"  xml:space="preserve" font-size="2.97166" transform="translate(327.133, 298.201)" >1.5</text>
<text fill="#222222"  xml:space="preserve" font-size="4.45749" transform="translate(174.264, 449.204)" >MODEL</text>
<text fill="#222222"  xml:space="preserve" font-size="4.45749" style="font-family:Monospace;" transform="translate(177.122, 461.46)" >.lib cornerMOSlv.lib mos_tt</text>
<text fill="#222222"  xml:space="preserve" font-size="4.45749" style="font-family:Monospace;" transform="translate(177.122, 466.573)" >.lib cornerRES.lib res_typ</text>
<text fill="#222222"  xml:space="preserve" font-size="5.94332" transform="translate(587.153, 167.032)" >Simulate</text>
<text fill="#222222"  xml:space="preserve" font-size="5.94332" transform="translate(587.153, 184.176)" >Annotate OP</text>
<text fill="#222222"  xml:space="preserve" font-size="4.45749" transform="translate(174.264, 60.6026)" >NGSPICE1</text>
<text fill="#222222"  xml:space="preserve" font-size="4.45749" style="font-family:Monospace;" transform="translate(177.122, 72.8587)" >.param temp=27</text>
<text fill="#222222"  xml:space="preserve" font-size="4.45749" style="font-family:Monospace;" transform="translate(177.122, 77.9715)" >.options savecurrents</text>
<text fill="#222222"  xml:space="preserve" font-size="4.45749" style="font-family:Monospace;" transform="translate(177.122, 83.0842)" >.control</text>
<text fill="#222222"  xml:space="preserve" font-size="4.45749" style="font-family:Monospace;" transform="translate(177.122, 88.197)" >save all</text>
<text fill="#222222"  xml:space="preserve" font-size="4.45749" style="font-family:Monospace;" transform="translate(177.122, 98.4224)" >show n.x1.xm1.nsg13_lv_nmos</text>
<text fill="#222222"  xml:space="preserve" font-size="4.45749" style="font-family:Monospace;" transform="translate(177.122, 103.535)" >show n.x1.xm2.nsg13_lv_pmos</text>
<text fill="#222222"  xml:space="preserve" font-size="4.45749" style="font-family:Monospace;" transform="translate(177.122, 113.761)" >* Save transistor parameters</text>
<text fill="#222222"  xml:space="preserve" font-size="4.45749" style="font-family:Monospace;" transform="translate(177.122, 118.873)" >save @n.x1.xm1.nsg13_lv_nmos[vth]</text>
<text fill="#222222"  xml:space="preserve" font-size="4.45749" style="font-family:Monospace;" transform="translate(177.122, 123.986)" >save @n.x1.xm1.nsg13_lv_nmos[vgs]</text>
<text fill="#222222"  xml:space="preserve" font-size="4.45749" style="font-family:Monospace;" transform="translate(177.122, 129.099)" >save @n.x1.xm1.nsg13_lv_nmos[vds]</text>
<text fill="#222222"  xml:space="preserve" font-size="4.45749" style="font-family:Monospace;" transform="translate(177.122, 134.212)" >save @n.x1.xm1.nsg13_lv_nmos[vgt]</text>
<text fill="#222222"  xml:space="preserve" font-size="4.45749" style="font-family:Monospace;" transform="translate(177.122, 139.324)" >save @n.x1.xm1.nsg13_lv_nmos[ids]</text>
<text fill="#222222"  xml:space="preserve" font-size="4.45749" style="font-family:Monospace;" transform="translate(177.122, 144.437)" >save @n.x1.xm1.nsg13_lv_nmos[gm]</text>
<text fill="#222222"  xml:space="preserve" font-size="4.45749" style="font-family:Monospace;" transform="translate(177.122, 149.55)" >save @n.x1.xm1.nsg13_lv_nmos[gds]</text>
<text fill="#222222"  xml:space="preserve" font-size="4.45749" style="font-family:Monospace;" transform="translate(177.122, 154.663)" >save @n.x1.xm1.nsg13_lv_nmos[gmb]</text>
<text fill="#222222"  xml:space="preserve" font-size="4.45749" style="font-family:Monospace;" transform="translate(177.122, 159.775)" >save @n.x1.xm1.nsg13_lv_nmos[cgs]</text>
<text fill="#222222"  xml:space="preserve" font-size="4.45749" style="font-family:Monospace;" transform="translate(177.122, 164.888)" >save @n.x1.xm1.nsg13_lv_nmos[cgd]</text>
<text fill="#222222"  xml:space="preserve" font-size="4.45749" style="font-family:Monospace;" transform="translate(177.122, 170.001)" >save @n.x1.xm1.nsg13_lv_nmos[fug]</text>
<text fill="#222222"  xml:space="preserve" font-size="4.45749" style="font-family:Monospace;" transform="translate(177.122, 175.114)" >save @n.x1.xm1.nsg13_lv_nmos[rg]</text>
<text fill="#222222"  xml:space="preserve" font-size="4.45749" style="font-family:Monospace;" transform="translate(177.122, 185.339)" >save @n.x1.xm2.nsg13_lv_pmos[vth]</text>
<text fill="#222222"  xml:space="preserve" font-size="4.45749" style="font-family:Monospace;" transform="translate(177.122, 190.452)" >save @n.x1.xm2.nsg13_lv_pmos[vgs]</text>
<text fill="#222222"  xml:space="preserve" font-size="4.45749" style="font-family:Monospace;" transform="translate(177.122, 195.564)" >save @n.x1.xm2.nsg13_lv_pmos[vds]</text>
<text fill="#222222"  xml:space="preserve" font-size="4.45749" style="font-family:Monospace;" transform="translate(177.122, 200.677)" >save @n.x1.xm2.nsg13_lv_pmos[vgt]</text>
<text fill="#222222"  xml:space="preserve" font-size="4.45749" style="font-family:Monospace;" transform="translate(177.122, 205.79)" >save @n.x1.xm2.nsg13_lv_pmos[ids]</text>
<text fill="#222222"  xml:space="preserve" font-size="4.45749" style="font-family:Monospace;" transform="translate(177.122, 210.903)" >save @n.x1.xm2.nsg13_lv_pmos[gm]</text>
<text fill="#222222"  xml:space="preserve" font-size="4.45749" style="font-family:Monospace;" transform="translate(177.122, 216.015)" >save @n.x1.xm2.nsg13_lv_pmos[gds]</text>
<text fill="#222222"  xml:space="preserve" font-size="4.45749" style="font-family:Monospace;" transform="translate(177.122, 221.128)" >save @n.x1.xm2.nsg13_lv_pmos[gmb]</text>
<text fill="#222222"  xml:space="preserve" font-size="4.45749" style="font-family:Monospace;" transform="translate(177.122, 226.241)" >save @n.x1.xm2.nsg13_lv_pmos[cgs]</text>
<text fill="#222222"  xml:space="preserve" font-size="4.45749" style="font-family:Monospace;" transform="translate(177.122, 231.354)" >save @n.x1.xm2.nsg13_lv_pmos[cgd]</text>
<text fill="#222222"  xml:space="preserve" font-size="4.45749" style="font-family:Monospace;" transform="translate(177.122, 236.466)" >save @n.x1.xm2.nsg13_lv_pmos[fug]</text>
<text fill="#222222"  xml:space="preserve" font-size="4.45749" style="font-family:Monospace;" transform="translate(177.122, 241.579)" >save @n.x1.xm2.nsg13_lv_pmos[rg]</text>
<text fill="#222222"  xml:space="preserve" font-size="4.45749" style="font-family:Monospace;" transform="translate(177.122, 251.805)" >save @n.x2.xm1.nsg13_lv_nmos[vth]</text>
<text fill="#222222"  xml:space="preserve" font-size="4.45749" style="font-family:Monospace;" transform="translate(177.122, 256.917)" >save @n.x2.xm1.nsg13_lv_nmos[vgs]</text>
<text fill="#222222"  xml:space="preserve" font-size="4.45749" style="font-family:Monospace;" transform="translate(177.122, 262.03)" >save @n.x2.xm1.nsg13_lv_nmos[vds]</text>
<text fill="#222222"  xml:space="preserve" font-size="4.45749" style="font-family:Monospace;" transform="translate(177.122, 267.143)" >save @n.x2.xm1.nsg13_lv_nmos[vgt]</text>
<text fill="#222222"  xml:space="preserve" font-size="4.45749" style="font-family:Monospace;" transform="translate(177.122, 272.256)" >save @n.x2.xm1.nsg13_lv_nmos[ids]</text>
<text fill="#222222"  xml:space="preserve" font-size="4.45749" style="font-family:Monospace;" transform="translate(177.122, 277.368)" >save @n.x2.xm1.nsg13_lv_nmos[gm]</text>
<text fill="#222222"  xml:space="preserve" font-size="4.45749" style="font-family:Monospace;" transform="translate(177.122, 282.481)" >save @n.x2.xm1.nsg13_lv_nmos[gds]</text>
<text fill="#222222"  xml:space="preserve" font-size="4.45749" style="font-family:Monospace;" transform="translate(177.122, 287.594)" >save @n.x2.xm1.nsg13_lv_nmos[gmb]</text>
<text fill="#222222"  xml:space="preserve" font-size="4.45749" style="font-family:Monospace;" transform="translate(177.122, 292.707)" >save @n.x2.xm1.nsg13_lv_nmos[cgs]</text>
<text fill="#222222"  xml:space="preserve" font-size="4.45749" style="font-family:Monospace;" transform="translate(177.122, 297.819)" >save @n.x2.xm1.nsg13_lv_nmos[cgd]</text>
<text fill="#222222"  xml:space="preserve" font-size="4.45749" style="font-family:Monospace;" transform="translate(177.122, 302.932)" >save @n.x2.xm1.nsg13_lv_nmos[fug]</text>
<text fill="#222222"  xml:space="preserve" font-size="4.45749" style="font-family:Monospace;" transform="translate(177.122, 308.045)" >save @n.x2.xm1.nsg13_lv_nmos[rg]</text>
<text fill="#222222"  xml:space="preserve" font-size="4.45749" style="font-family:Monospace;" transform="translate(177.122, 318.27)" >save @n.x2.xm2.nsg13_lv_pmos[vth]</text>
<text fill="#222222"  xml:space="preserve" font-size="4.45749" style="font-family:Monospace;" transform="translate(177.122, 323.383)" >save @n.x2.xm2.nsg13_lv_pmos[vgs]</text>
<text fill="#222222"  xml:space="preserve" font-size="4.45749" style="font-family:Monospace;" transform="translate(177.122, 328.496)" >save @n.x2.xm2.nsg13_lv_pmos[vds]</text>
<text fill="#222222"  xml:space="preserve" font-size="4.45749" style="font-family:Monospace;" transform="translate(177.122, 333.608)" >save @n.x2.xm2.nsg13_lv_pmos[vgt]</text>
<text fill="#222222"  xml:space="preserve" font-size="4.45749" style="font-family:Monospace;" transform="translate(177.122, 338.721)" >save @n.x2.xm2.nsg13_lv_pmos[ids]</text>
<text fill="#222222"  xml:space="preserve" font-size="4.45749" style="font-family:Monospace;" transform="translate(177.122, 343.834)" >save @n.x2.xm2.nsg13_lv_pmos[gm]</text>
<text fill="#222222"  xml:space="preserve" font-size="4.45749" style="font-family:Monospace;" transform="translate(177.122, 348.947)" >save @n.x2.xm2.nsg13_lv_pmos[gds]</text>
<text fill="#222222"  xml:space="preserve" font-size="4.45749" style="font-family:Monospace;" transform="translate(177.122, 354.059)" >save @n.x2.xm2.nsg13_lv_pmos[gmb]</text>
<text fill="#222222"  xml:space="preserve" font-size="4.45749" style="font-family:Monospace;" transform="translate(177.122, 359.172)" >save @n.x2.xm2.nsg13_lv_pmos[cgs]</text>
<text fill="#222222"  xml:space="preserve" font-size="4.45749" style="font-family:Monospace;" transform="translate(177.122, 364.285)" >save @n.x2.xm2.nsg13_lv_pmos[cgd]</text>
<text fill="#222222"  xml:space="preserve" font-size="4.45749" style="font-family:Monospace;" transform="translate(177.122, 369.398)" >save @n.x2.xm2.nsg13_lv_pmos[fug]</text>
<text fill="#222222"  xml:space="preserve" font-size="4.45749" style="font-family:Monospace;" transform="translate(177.122, 374.51)" >save @n.x2.xm2.nsg13_lv_pmos[rg]</text>
<text fill="#222222"  xml:space="preserve" font-size="4.45749" style="font-family:Monospace;" transform="translate(177.122, 384.736)" >* Operating Point Analysis</text>
<text fill="#222222"  xml:space="preserve" font-size="4.45749" style="font-family:Monospace;" transform="translate(177.122, 389.849)" >op</text>
<text fill="#222222"  xml:space="preserve" font-size="4.45749" style="font-family:Monospace;" transform="translate(177.122, 394.961)" >remzerovec</text>
<text fill="#222222"  xml:space="preserve" font-size="4.45749" style="font-family:Monospace;" transform="translate(177.122, 400.074)" >write transmission_gate_tb_op.raw</text>
<text fill="#222222"  xml:space="preserve" font-size="4.45749" style="font-family:Monospace;" transform="translate(177.122, 410.3)" >quit</text>
<text fill="#222222"  xml:space="preserve" font-size="4.45749" style="font-family:Monospace;" transform="translate(177.122, 415.412)" >.endc</text>
<text fill="#666600"  xml:space="preserve" font-size="2.97166" transform="translate(483.717, 243.196)" >1</text>
<text fill="#666600"  xml:space="preserve" font-size="2.97166" transform="translate(483.717, 255.34)" >2</text>
<text fill="#222222"  xml:space="preserve" font-size="2.97166" transform="translate(491.432, 245.339)" >C1</text>
<text fill="#222222"  xml:space="preserve" font-size="2.97166" transform="translate(491.432, 248.911)" >5p</text>
<text fill="#222222"  xml:space="preserve" font-size="2.97166" transform="translate(491.432, 252.483)" >m=1</text>
<text fill="#666600"  xml:space="preserve" font-size="2.97166" transform="translate(483.717, 334.632)" >1</text>
<text fill="#666600"  xml:space="preserve" font-size="2.97166" transform="translate(483.717, 346.776)" >2</text>
<text fill="#222222"  xml:space="preserve" font-size="2.97166" transform="translate(491.432, 336.775)" >C2</text>
<text fill="#222222"  xml:space="preserve" font-size="2.97166" transform="translate(491.432, 340.347)" >5p</text>
<text fill="#222222"  xml:space="preserve" font-size="2.97166" transform="translate(491.432, 343.918)" >m=1</text>
<text fill="#aa2222"  xml:space="preserve" font-size="2.97166" transform="translate(699.841, 249.599)" >? </text>
<text fill="#aa2222"  xml:space="preserve" font-size="2.97166" transform="translate(699.841, 246.027)" >fug(f_t) =</text>
<text fill="#aa2222"  xml:space="preserve" font-size="2.97166" transform="translate(699.841, 238.169)" >? </text>
<text fill="#aa2222"  xml:space="preserve" font-size="2.97166" transform="translate(699.841, 234.598)" >cgd =</text>
<text fill="#aa2222"  xml:space="preserve" font-size="2.97166" transform="translate(699.841, 261.028)" >? </text>
<text fill="#aa2222"  xml:space="preserve" font-size="2.97166" transform="translate(699.841, 257.456)" >rg =</text>
<text fill="#aa2222"  xml:space="preserve" font-size="2.97166" transform="translate(568.402, 226.74)" >? </text>
<text fill="#aa2222"  xml:space="preserve" font-size="2.97166" transform="translate(568.402, 223.168)" >vth =</text>
<text fill="#aa2222"  xml:space="preserve" font-size="2.97166" transform="translate(591.261, 226.74)" >? </text>
<text fill="#aa2222"  xml:space="preserve" font-size="2.97166" transform="translate(591.261, 223.168)" >id =</text>
<text fill="#aa2222"  xml:space="preserve" font-size="2.97166" transform="translate(568.402, 238.169)" >? </text>
<text fill="#aa2222"  xml:space="preserve" font-size="2.97166" transform="translate(568.402, 234.598)" >vgs =</text>
<text fill="#aa2222"  xml:space="preserve" font-size="2.97166" transform="translate(591.261, 261.028)" >? </text>
<text fill="#aa2222"  xml:space="preserve" font-size="2.97166" transform="translate(591.261, 257.456)" >gmb =</text>
<text fill="#aa2222"  xml:space="preserve" font-size="2.97166" transform="translate(614.12, 226.74)" >? </text>
<text fill="#aa2222"  xml:space="preserve" font-size="2.97166" transform="translate(614.12, 223.168)" >cgs =</text>
<text fill="#aa2222"  xml:space="preserve" font-size="2.97166" transform="translate(591.261, 238.169)" >? </text>
<text fill="#aa2222"  xml:space="preserve" font-size="2.97166" transform="translate(591.261, 234.598)" >gm =</text>
<text fill="#aa2222"  xml:space="preserve" font-size="2.97166" transform="translate(591.261, 249.599)" >? </text>
<text fill="#aa2222"  xml:space="preserve" font-size="2.97166" transform="translate(591.261, 246.027)" >gds =</text>
<text fill="#aa2222"  xml:space="preserve" font-size="2.97166" transform="translate(568.402, 249.599)" >? </text>
<text fill="#aa2222"  xml:space="preserve" font-size="2.97166" transform="translate(568.402, 246.027)" >vds =</text>
<text fill="#aa2222"  xml:space="preserve" font-size="2.97166" transform="translate(568.402, 261.028)" >? </text>
<text fill="#aa2222"  xml:space="preserve" font-size="2.97166" transform="translate(568.402, 257.456)" >vod =</text>
<text fill="#aa2222"  xml:space="preserve" font-size="2.97166" transform="translate(614.12, 249.599)" >? </text>
<text fill="#aa2222"  xml:space="preserve" font-size="2.97166" transform="translate(614.12, 246.027)" >fug(f_t) =</text>
<text fill="#aa2222"  xml:space="preserve" font-size="2.97166" transform="translate(614.12, 238.169)" >? </text>
<text fill="#aa2222"  xml:space="preserve" font-size="2.97166" transform="translate(614.12, 234.598)" >cgd =</text>
<text fill="#aa2222"  xml:space="preserve" font-size="2.97166" transform="translate(614.12, 261.028)" >? </text>
<text fill="#aa2222"  xml:space="preserve" font-size="2.97166" transform="translate(614.12, 257.456)" >rg =</text>
<text fill="#aa2222"  xml:space="preserve" font-size="2.97166" transform="translate(654.123, 318.175)" >? </text>
<text fill="#aa2222"  xml:space="preserve" font-size="2.97166" transform="translate(654.123, 314.604)" >vth =</text>
<text fill="#aa2222"  xml:space="preserve" font-size="2.97166" transform="translate(676.982, 318.175)" >? </text>
<text fill="#aa2222"  xml:space="preserve" font-size="2.97166" transform="translate(676.982, 314.604)" >id =</text>
<text fill="#aa2222"  xml:space="preserve" font-size="2.97166" transform="translate(654.123, 329.605)" >? </text>
<text fill="#aa2222"  xml:space="preserve" font-size="2.97166" transform="translate(654.123, 326.033)" >vgs =</text>
<text fill="#aa2222"  xml:space="preserve" font-size="2.97166" transform="translate(676.982, 352.464)" >? </text>
<text fill="#aa2222"  xml:space="preserve" font-size="2.97166" transform="translate(676.982, 348.892)" >gmb =</text>
<text fill="#aa2222"  xml:space="preserve" font-size="2.97166" transform="translate(699.841, 318.175)" >? </text>
<text fill="#aa2222"  xml:space="preserve" font-size="2.97166" transform="translate(699.841, 314.604)" >cgs =</text>
<text fill="#aa2222"  xml:space="preserve" font-size="2.97166" transform="translate(676.982, 329.605)" >? </text>
<text fill="#aa2222"  xml:space="preserve" font-size="2.97166" transform="translate(676.982, 326.033)" >gm =</text>
<text fill="#aa2222"  xml:space="preserve" font-size="2.97166" transform="translate(676.982, 341.034)" >? </text>
<text fill="#aa2222"  xml:space="preserve" font-size="2.97166" transform="translate(676.982, 337.463)" >gds =</text>
<text fill="#aa2222"  xml:space="preserve" font-size="2.97166" transform="translate(654.123, 341.034)" >? </text>
<text fill="#aa2222"  xml:space="preserve" font-size="2.97166" transform="translate(654.123, 337.463)" >vds =</text>
<text fill="#aa2222"  xml:space="preserve" font-size="2.97166" transform="translate(654.123, 352.464)" >? </text>
<text fill="#aa2222"  xml:space="preserve" font-size="2.97166" transform="translate(654.123, 348.892)" >vod =</text>
<text fill="#aa2222"  xml:space="preserve" font-size="2.97166" transform="translate(699.841, 341.034)" >? </text>
<text fill="#aa2222"  xml:space="preserve" font-size="2.97166" transform="translate(699.841, 337.463)" >fug(f_t) =</text>
<text fill="#aa2222"  xml:space="preserve" font-size="2.97166" transform="translate(699.841, 329.605)" >? </text>
<text fill="#aa2222"  xml:space="preserve" font-size="2.97166" transform="translate(699.841, 326.033)" >cgd =</text>
<text fill="#aa2222"  xml:space="preserve" font-size="2.97166" transform="translate(699.841, 352.464)" >? </text>
<text fill="#aa2222"  xml:space="preserve" font-size="2.97166" transform="translate(699.841, 348.892)" >rg =</text>
<text fill="#aa2222"  xml:space="preserve" font-size="2.97166" transform="translate(568.402, 318.175)" >? </text>
<text fill="#aa2222"  xml:space="preserve" font-size="2.97166" transform="translate(568.402, 314.604)" >vth =</text>
<text fill="#aa2222"  xml:space="preserve" font-size="2.97166" transform="translate(591.261, 318.175)" >? </text>
<text fill="#aa2222"  xml:space="preserve" font-size="2.97166" transform="translate(591.261, 314.604)" >id =</text>
<text fill="#aa2222"  xml:space="preserve" font-size="2.97166" transform="translate(568.402, 329.605)" >? </text>
<text fill="#aa2222"  xml:space="preserve" font-size="2.97166" transform="translate(568.402, 326.033)" >vgs =</text>
<text fill="#aa2222"  xml:space="preserve" font-size="2.97166" transform="translate(591.261, 352.464)" >? </text>
<text fill="#aa2222"  xml:space="preserve" font-size="2.97166" transform="translate(591.261, 348.892)" >gmb =</text>
<text fill="#aa2222"  xml:space="preserve" font-size="2.97166" transform="translate(614.12, 318.175)" >? </text>
<text fill="#aa2222"  xml:space="preserve" font-size="2.97166" transform="translate(614.12, 314.604)" >cgs =</text>
<text fill="#aa2222"  xml:space="preserve" font-size="2.97166" transform="translate(591.261, 329.605)" >? </text>
<text fill="#aa2222"  xml:space="preserve" font-size="2.97166" transform="translate(591.261, 326.033)" >gm =</text>
<text fill="#aa2222"  xml:space="preserve" font-size="2.97166" transform="translate(591.261, 341.034)" >? </text>
<text fill="#aa2222"  xml:space="preserve" font-size="2.97166" transform="translate(591.261, 337.463)" >gds =</text>
<text fill="#aa2222"  xml:space="preserve" font-size="2.97166" transform="translate(568.402, 341.034)" >? </text>
<text fill="#aa2222"  xml:space="preserve" font-size="2.97166" transform="translate(568.402, 337.463)" >vds =</text>
<text fill="#aa2222"  xml:space="preserve" font-size="2.97166" transform="translate(568.402, 352.464)" >? </text>
<text fill="#aa2222"  xml:space="preserve" font-size="2.97166" transform="translate(568.402, 348.892)" >vod =</text>
<text fill="#aa2222"  xml:space="preserve" font-size="2.97166" transform="translate(614.12, 341.034)" >? </text>
<text fill="#aa2222"  xml:space="preserve" font-size="2.97166" transform="translate(614.12, 337.463)" >fug(f_t) =</text>
<text fill="#aa2222"  xml:space="preserve" font-size="2.97166" transform="translate(614.12, 329.605)" >? </text>
<text fill="#aa2222"  xml:space="preserve" font-size="2.97166" transform="translate(614.12, 326.033)" >cgd =</text>
<text fill="#aa2222"  xml:space="preserve" font-size="2.97166" transform="translate(614.12, 352.464)" >? </text>
<text fill="#aa2222"  xml:space="preserve" font-size="2.97166" transform="translate(614.12, 348.892)" >rg =</text>
<text fill="#222222"  xml:space="preserve" font-size="2.97166" transform="translate(394.424, 236.839)" >transmission_gate_wo_dummy</text>
<text fill="#222222"  xml:space="preserve" font-size="2.97166" transform="translate(409.283, 221.195)" >x1</text>
<text fill="#222222"  xml:space="preserve" font-size="2.97166" transform="translate(420.141, 215.266)" >VDD</text>
<text fill="#222222"  xml:space="preserve" font-size="2.97166" transform="translate(438.429, 215.572)" >di_tg_ctrl</text>
<text fill="#222222"  xml:space="preserve" font-size="2.97166" transform="translate(421.426, 242.717)" >VSS</text>
<text fill="#222222"  xml:space="preserve" font-size="2.97166" transform="translate(460.716, 230.981)" >v_b</text>
<text fill="#222222"  xml:space="preserve" font-size="2.97166" transform="translate(405.711, 230.981)" >v_a</text>
<text fill="#222222"  xml:space="preserve" font-size="2.97166" transform="translate(438.571, 242.411)" >di_tg_ctrl_n</text>
<text fill="#222222"  xml:space="preserve" font-size="2.97166" transform="translate(451.429, 222.123)" >PMOS: 3.0u / 0.13u</text>
<text fill="#222222"  xml:space="preserve" font-size="2.97166" transform="translate(451.429, 235.874)" >NMOS: 1.0u / 0.13u</text>
<text fill="#222222"  xml:space="preserve" font-size="2.97166" transform="translate(394.424, 328.274)" >transmission_gate_wo_dummy</text>
<text fill="#222222"  xml:space="preserve" font-size="2.97166" transform="translate(409.283, 312.63)" >x2</text>
<text fill="#222222"  xml:space="preserve" font-size="2.97166" transform="translate(420.141, 306.701)" >VDD</text>
<text fill="#222222"  xml:space="preserve" font-size="2.97166" transform="translate(438.429, 307.007)" >di_tg_ctrl</text>
<text fill="#222222"  xml:space="preserve" font-size="2.97166" transform="translate(421.426, 334.152)" >VSS</text>
<text fill="#222222"  xml:space="preserve" font-size="2.97166" transform="translate(460.716, 322.417)" >v_b</text>
<text fill="#222222"  xml:space="preserve" font-size="2.97166" transform="translate(405.711, 322.417)" >v_a</text>
<text fill="#222222"  xml:space="preserve" font-size="2.97166" transform="translate(438.571, 333.846)" >di_tg_ctrl_n</text>
<text fill="#222222"  xml:space="preserve" font-size="2.97166" transform="translate(451.429, 313.559)" >PMOS: 3.0u / 0.13u</text>
<text fill="#222222"  xml:space="preserve" font-size="2.97166" transform="translate(451.429, 327.31)" >NMOS: 1.0u / 0.13u</text>
<path class="l4" d="M202.838 513.733L807.171 513.733"/>
<path class="l4" d="M92.8295 513.733L111.402 513.733"/>
<path class="l4" d="M807.171 7.98L807.171 513.733"/>
<path class="l4" d="M92.8295 7.98L807.171 7.98"/>
<path class="l4" d="M92.8295 7.98L92.8295 513.733"/>
<path class="l4" d="M429.998 468.016L429.998 513.733"/>
<path class="l4" d="M429.998 468.016L807.171 468.016"/>
<path class="l4" d="M429.998 490.875L807.171 490.875"/>
<path class="l4" d="M610.012 490.875L610.012 513.733"/>
<path class="l4" d="M610.012 468.016L610.012 490.875"/>
<path class="l4" d="M527.149 490.875L527.149 513.733"/>
<path class="l4" d="M362.136 287.287L363.565 287.287"/>
<path class="l4" d="M362.85 286.573L362.85 288.002"/>
<path class="l4" d="M361.422 285.144L361.422 302.289"/>
<circle class="l4" cx="361.422" cy="293.716" r="4.28605" style="fill:none;" />
<path class="l4" d="M361.422 313.718L361.422 317.29"/>
<path class="l4" d="M359.993 317.29L362.85 317.29"/>
<path class="l4" d="M361.422 318.718L362.85 317.29"/>
<path class="l4" d="M359.993 317.29L361.422 318.718"/>
<path class="l4" d="M429.998 262.285L429.998 265.857"/>
<path class="l4" d="M428.57 265.857L431.427 265.857"/>
<path class="l4" d="M429.998 267.286L431.427 265.857"/>
<path class="l4" d="M428.57 265.857L429.998 267.286"/>
<path class="l4" d="M429.998 187.994L429.998 193.709"/>
<path class="l4" d="M427.141 187.994L432.856 187.994"/>
<path class="l4" d="M429.998 359.436L429.998 363.008"/>
<path class="l4" d="M428.57 363.008L431.427 363.008"/>
<path class="l4" d="M429.998 364.436L431.427 363.008"/>
<path class="l4" d="M428.57 363.008L429.998 364.436"/>
<path class="l4" d="M429.998 279.43L429.998 285.144"/>
<path class="l4" d="M427.141 279.43L432.856 279.43"/>
<path class="l4" d="M441.428 293.716L441.428 297.288"/>
<path class="l4" d="M439.999 297.288L442.857 297.288"/>
<path class="l4" d="M441.428 298.717L442.857 297.288"/>
<path class="l4" d="M439.999 297.288L441.428 298.717"/>
<path class="l4" d="M441.428 345.149L441.428 350.864"/>
<path class="l4" d="M438.571 345.149L444.285 345.149"/>
<path class="l4" d="M322.133 287.287L323.562 287.287"/>
<path class="l4" d="M322.847 286.573L322.847 288.002"/>
<path class="l4" d="M321.419 285.144L321.419 302.289"/>
<circle class="l4" cx="321.419" cy="293.716" r="4.28605" style="fill:none;" />
<path class="l4" d="M321.419 313.718L321.419 317.29"/>
<path class="l4" d="M319.99 317.29L322.847 317.29"/>
<path class="l4" d="M321.419 318.718L322.847 317.29"/>
<path class="l4" d="M319.99 317.29L321.419 318.718"/>
<path class="l4" d="M321.419 268L321.419 273.715"/>
<path class="l4" d="M318.561 268L324.276 268"/>
<path class="l4" d="M172.836 450.871L192.837 450.871"/>
<path class="l4" d="M172.836 450.871L172.836 456.586"/>
<path class="l4" d="M584.296 165.135L575.724 161.563L575.724 163.706L567.152 163.706L570.009 165.135L567.152 166.564L575.724 166.564L575.724 168.707L584.296 165.135"/>
<path class="l4" d="M584.296 182.279L575.724 178.708L575.724 180.851L567.152 180.851L570.009 182.279L567.152 183.708L575.724 183.708L575.724 185.851L584.296 182.279"/>
<path class="l4" d="M172.836 62.2699L192.837 62.2699"/>
<path class="l4" d="M172.836 62.2699L172.836 67.9847"/>
<path class="l4" d="M487.146 249.427L487.146 256.571"/>
<path class="l4" d="M487.146 239.427L487.146 246.57"/>
<path class="l4" d="M484.288 246.57L490.003 246.57"/>
<path class="l4" d="M484.288 249.427L490.003 249.427"/>
<path class="l4" d="M487.86 241.57L489.289 241.57"/>
<path class="l4" d="M488.574 240.855L488.574 242.284"/>
<path class="l4" d="M487.146 262.285L487.146 265.857"/>
<path class="l4" d="M485.717 265.857L488.574 265.857"/>
<path class="l4" d="M487.146 267.286L488.574 265.857"/>
<path class="l4" d="M485.717 265.857L487.146 267.286"/>
<path class="l4" d="M487.146 340.863L487.146 348.006"/>
<path class="l4" d="M487.146 330.862L487.146 338.006"/>
<path class="l4" d="M484.288 338.006L490.003 338.006"/>
<path class="l4" d="M484.288 340.863L490.003 340.863"/>
<path class="l4" d="M487.86 333.005L489.289 333.005"/>
<path class="l4" d="M488.574 332.291L488.574 333.72"/>
<path class="l4" d="M487.146 359.436L487.146 363.008"/>
<path class="l4" d="M485.717 363.008L488.574 363.008"/>
<path class="l4" d="M487.146 364.436L488.574 363.008"/>
<path class="l4" d="M485.717 363.008L487.146 364.436"/>
<path class="l4" d="M435.713 216.568L435.713 222.282"/>
<path class="l4" d="M435.713 233.712L435.713 239.427"/>
<path class="l4" d="M435.713 227.997L447.143 222.282"/>
<path class="l4" d="M435.713 227.997L447.143 233.712"/>
<path class="l4" d="M447.143 222.282L447.143 233.712"/>
<path class="l4" d="M424.284 222.282L424.284 233.712"/>
<path class="l4" d="M424.284 233.712L435.713 227.997"/>
<path class="l4" d="M424.284 222.282L435.713 227.997"/>
<path class="l4" d="M447.143 227.997L452.857 227.997"/>
<path class="l4" d="M418.569 227.997L424.284 227.997"/>
<path class="l4" d="M429.998 222.282L429.998 225.14"/>
<path class="l4" d="M435.713 222.282L435.713 227.997"/>
<path class="l4" d="M429.998 230.854L429.998 233.712"/>
<path class="l4" d="M435.713 230.854L435.713 233.712"/>
<circle class="l4" cx="435.72" cy="229.502" r="1.3715" style="fill:none;" />
<path class="l4" d="M435.713 308.003L435.713 313.718"/>
<path class="l4" d="M435.713 325.147L435.713 330.862"/>
<path class="l4" d="M435.713 319.433L447.143 313.718"/>
<path class="l4" d="M435.713 319.433L447.143 325.147"/>
<path class="l4" d="M447.143 313.718L447.143 325.147"/>
<path class="l4" d="M424.284 313.718L424.284 325.147"/>
<path class="l4" d="M424.284 325.147L435.713 319.433"/>
<path class="l4" d="M424.284 313.718L435.713 319.433"/>
<path class="l4" d="M447.143 319.433L452.857 319.433"/>
<path class="l4" d="M418.569 319.433L424.284 319.433"/>
<path class="l4" d="M429.998 313.718L429.998 316.575"/>
<path class="l4" d="M435.713 313.718L435.713 319.433"/>
<path class="l4" d="M429.998 322.29L429.998 325.147"/>
<path class="l4" d="M435.713 322.29L435.713 325.147"/>
<circle class="l4" cx="435.72" cy="320.938" r="1.3715" style="fill:none;" />
<path class="l5" d="M355.35 273.358L356.064 273.358L356.064 274.072L355.35 274.072L355.35 273.358z"/>
<path class="l5" d="M132.833 509.447L132.743 509.537L132.654 509.626L132.565 509.715L132.475 509.805L132.386 509.894L132.297 509.983L132.208 510.072L132.118 510.162L132.029 510.251L131.94 510.34L131.85 510.43L131.761 510.519L131.672 510.608L131.582 510.698L131.493 510.787L131.404 510.876L131.315 510.965L131.225 511.055L131.136 511.144L131.047 511.233L130.957 511.323L130.868 511.412L130.779 511.501L130.69 511.59L130.6 511.68L130.511 511.769L130.422 511.858L130.332 511.948L130.243 512.037L130.154 512.126L130.064 512.216L129.975 512.305L129.975 512.305L129.889 512.394L129.808 512.483L129.732 512.573L129.663 512.662L129.598 512.751L129.54 512.841L129.487 512.93L129.439 513.019L129.398 513.108L129.361 513.198L129.331 513.287L129.305 513.376L129.286 513.466L129.272 513.555L129.264 513.644L129.261 513.733L129.264 513.823L129.272 513.912L129.286 514.001L129.305 514.091L129.331 514.18L129.361 514.269L129.398 514.359L129.439 514.448L129.487 514.537L129.54 514.626L129.598 514.716L129.663 514.805L129.732 514.894L129.808 514.984L129.889 515.073L129.975 515.162L129.975 515.162L130.065 515.252L130.155 515.342L130.246 515.433L130.338 515.525L130.43 515.617L130.524 515.71L130.617 515.804L130.712 515.899L130.807 515.994L130.903 516.09L131 516.187L131.097 516.284L131.195 516.382L131.294 516.481L131.393 516.58L131.493 516.68L131.594 516.781L131.695 516.882L131.798 516.985L131.901 517.088L132.004 517.191L132.108 517.295L132.213 517.4L132.319 517.506L132.426 517.612L132.533 517.72L132.64 517.827L132.749 517.936L132.858 518.045L132.968 518.155L133.078 518.265L133.19 518.377L133.19 518.377L133.301 518.488L133.41 518.597L133.518 518.705L133.625 518.812L133.73 518.917L133.834 519.021L133.937 519.124L134.038 519.225L134.138 519.325L134.236 519.423L134.333 519.52L134.429 519.616L134.523 519.71L134.616 519.803L134.707 519.894L134.797 519.984L134.886 520.073L134.973 520.16L135.059 520.246L135.143 520.33L135.226 520.413L135.308 520.495L135.388 520.575L135.467 520.654L135.544 520.731L135.62 520.807L135.695 520.882L135.768 520.955L135.84 521.027L135.91 521.097L135.979 521.166L136.047 521.234L136.047 521.234L136.112 521.3L136.173 521.364L136.229 521.426L136.281 521.485L136.33 521.543L136.374 521.598L136.413 521.652L136.449 521.703L136.48 521.752L136.508 521.799L136.531 521.844L136.549 521.887L136.564 521.928L136.574 521.967L136.581 522.003L136.583 522.038L136.581 522.07L136.574 522.1L136.564 522.129L136.549 522.155L136.531 522.179L136.508 522.201L136.48 522.221L136.449 522.239L136.413 522.254L136.374 522.268L136.33 522.279L136.281 522.289L136.229 522.296L136.173 522.301L136.112 522.305L136.047 522.306L136.047 522.306L135.98 522.306L135.913 522.306L135.846 522.306L135.779 522.306L135.712 522.306L135.645 522.306L135.578 522.306L135.511 522.306L135.444 522.306L135.377 522.306L135.31 522.306L135.243 522.306L135.176 522.306L135.11 522.306L135.043 522.306L134.976 522.306L134.909 522.306L134.842 522.306L134.775 522.306L134.708 522.306L134.641 522.306L134.574 522.306L134.507 522.306L134.44 522.306L134.373 522.306L134.306 522.306L134.239 522.306L134.172 522.306L134.105 522.306L134.038 522.306L133.971 522.306L133.904 522.306L133.904 522.306L133.837 522.306L133.772 522.306L133.706 522.306L133.642 522.306L133.578 522.306L133.515 522.306L133.452 522.306L133.391 522.306L133.33 522.306L133.269 522.306L133.21 522.306L133.151 522.306L133.092 522.306L133.035 522.306L132.978 522.306L132.922 522.306L132.866 522.306L132.812 522.306L132.758 522.306L132.704 522.306L132.652 522.306L132.6 522.306L132.548 522.306L132.498 522.306L132.448 522.306L132.399 522.306L132.35 522.306L132.302 522.306L132.255 522.306L132.209 522.306L132.163 522.306L132.118 522.306L132.118 522.306L132.074 522.305L132.029 522.303L131.984 522.299L131.94 522.294L131.895 522.288L131.85 522.28L131.806 522.271L131.761 522.261L131.716 522.249L131.672 522.236L131.627 522.221L131.582 522.205L131.538 522.188L131.493 522.169L131.449 522.149L131.404 522.127L131.359 522.104L131.315 522.08L131.27 522.054L131.225 522.027L131.181 521.998L131.136 521.968L131.091 521.937L131.047 521.904L131.002 521.87L130.957 521.834L130.913 521.797L130.868 521.759L130.823 521.719L130.779 521.678L130.734 521.635L130.69 521.591L130.69 521.591L130.645 521.547L130.6 521.502L130.556 521.457L130.511 521.413L130.466 521.368L130.422 521.323L130.377 521.279L130.332 521.234L130.288 521.189L130.243 521.145L130.198 521.1L130.154 521.055L130.109 521.011L130.064 520.966L130.02 520.922L129.975 520.877L129.931 520.832L129.886 520.788L129.841 520.743L129.797 520.698L129.752 520.654L129.707 520.609L129.663 520.564L129.618 520.52L129.573 520.475L129.529 520.43L129.484 520.386L129.439 520.341L129.395 520.296L129.35 520.252L129.305 520.207L129.261 520.163L129.261 520.163L129.216 520.117L129.169 520.07L129.121 520.022L129.071 519.973L129.02 519.922L128.968 519.87L128.914 519.816L128.859 519.761L128.803 519.704L128.745 519.646L128.685 519.587L128.625 519.526L128.563 519.464L128.499 519.401L128.434 519.336L128.368 519.27L128.3 519.202L128.231 519.133L128.161 519.062L128.089 518.991L128.016 518.917L127.941 518.843L127.865 518.767L127.788 518.689L127.709 518.61L127.628 518.53L127.547 518.449L127.464 518.366L127.379 518.281L127.294 518.195L127.206 518.108L127.118 518.02L127.118 518.02L127.029 517.933L126.939 517.852L126.85 517.777L126.761 517.707L126.671 517.643L126.582 517.584L126.493 517.531L126.403 517.484L126.314 517.442L126.225 517.406L126.136 517.375L126.046 517.35L125.957 517.33L125.868 517.316L125.778 517.308L125.689 517.305L125.6 517.308L125.511 517.316L125.421 517.33L125.332 517.35L125.243 517.375L125.153 517.406L125.064 517.442L124.975 517.484L124.886 517.531L124.796 517.584L124.707 517.643L124.618 517.707L124.528 517.777L124.439 517.852L124.35 517.933L124.26 518.02L124.26 518.02L124.172 518.108L124.085 518.195L123.999 518.281L123.914 518.366L123.831 518.449L123.75 518.53L123.67 518.61L123.591 518.689L123.513 518.767L123.437 518.843L123.363 518.917L123.289 518.991L123.218 519.062L123.147 519.133L123.078 519.202L123.01 519.27L122.944 519.336L122.879 519.401L122.816 519.464L122.754 519.526L122.693 519.587L122.634 519.646L122.576 519.704L122.519 519.761L122.464 519.816L122.41 519.87L122.358 519.922L122.307 519.973L122.258 520.022L122.21 520.07L122.163 520.117L122.117 520.163L122.117 520.163L122.073 520.207L122.028 520.252L121.984 520.296L121.939 520.341L121.894 520.386L121.85 520.43L121.805 520.475L121.76 520.52L121.716 520.564L121.671 520.609L121.626 520.654L121.582 520.698L121.537 520.743L121.492 520.788L121.448 520.832L121.403 520.877L121.358 520.922L121.314 520.966L121.269 521.011L121.225 521.055L121.18 521.1L121.135 521.145L121.091 521.189L121.046 521.234L121.001 521.279L120.957 521.323L120.912 521.368L120.867 521.413L120.823 521.457L120.778 521.502L120.733 521.547L120.689 521.591L120.689 521.591L120.644 521.635L120.599 521.678L120.555 521.719L120.51 521.759L120.466 521.797L120.421 521.834L120.376 521.87L120.332 521.904L120.287 521.937L120.242 521.968L120.198 521.998L120.153 522.027L120.108 522.054L120.064 522.08L120.019 522.104L119.974 522.127L119.93 522.149L119.885 522.169L119.84 522.188L119.796 522.205L119.751 522.221L119.707 522.236L119.662 522.249L119.617 522.261L119.573 522.271L119.528 522.28L119.483 522.288L119.439 522.294L119.394 522.299L119.349 522.303L119.305 522.305L119.26 522.306L119.26 522.306L119.215 522.306L119.169 522.306L119.123 522.306L119.076 522.306L119.028 522.306L118.98 522.306L118.93 522.306L118.881 522.306L118.83 522.306L118.779 522.306L118.727 522.306L118.674 522.306L118.621 522.306L118.567 522.306L118.512 522.306L118.456 522.306L118.4 522.306L118.343 522.306L118.286 522.306L118.228 522.306L118.169 522.306L118.109 522.306L118.049 522.306L117.988 522.306L117.926 522.306L117.863 522.306L117.8 522.306L117.737 522.306L117.672 522.306L117.607 522.306L117.541 522.306L117.474 522.306L117.474 522.306L117.407 522.306L117.34 522.306L117.273 522.306L117.206 522.306L117.139 522.306L117.072 522.306L117.005 522.306L116.938 522.306L116.871 522.306L116.805 522.306L116.738 522.306L116.671 522.306L116.604 522.306L116.537 522.306L116.47 522.306L116.403 522.306L116.336 522.306L116.269 522.306L116.202 522.306L116.135 522.306L116.068 522.306L116.001 522.306L115.934 522.306L115.867 522.306L115.8 522.306L115.733 522.306L115.666 522.306L115.599 522.306L115.532 522.306L115.465 522.306L115.398 522.306L115.331 522.306L115.331 522.306L115.266 522.305L115.206 522.301L115.149 522.296L115.097 522.289L115.049 522.279L115.005 522.268L114.965 522.254L114.929 522.239L114.898 522.221L114.871 522.201L114.848 522.179L114.829 522.155L114.814 522.129L114.804 522.1L114.798 522.07L114.795 522.038L114.798 522.003L114.804 521.967L114.814 521.928L114.829 521.887L114.848 521.844L114.871 521.799L114.898 521.752L114.929 521.703L114.965 521.652L115.005 521.598L115.049 521.543L115.097 521.485L115.149 521.426L115.206 521.364L115.266 521.3L115.331 521.234L115.331 521.234L115.399 521.166L115.468 521.097L115.538 521.027L115.61 520.955L115.683 520.882L115.758 520.807L115.834 520.731L115.912 520.654L115.99 520.575L116.071 520.495L116.152 520.413L116.235 520.33L116.32 520.246L116.406 520.16L116.493 520.073L116.581 519.984L116.671 519.894L116.763 519.803L116.855 519.71L116.95 519.616L117.045 519.52L117.142 519.423L117.241 519.325L117.34 519.225L117.441 519.124L117.544 519.021L117.648 518.917L117.753 518.812L117.86 518.705L117.968 518.597L118.078 518.488L118.189 518.377L118.189 518.377L118.3 518.265L118.41 518.155L118.52 518.045L118.629 517.936L118.738 517.827L118.846 517.72L118.953 517.612L119.059 517.506L119.165 517.4L119.27 517.295L119.374 517.191L119.478 517.088L119.581 516.985L119.683 516.882L119.784 516.781L119.885 516.68L119.985 516.58L120.085 516.481L120.183 516.382L120.281 516.284L120.379 516.187L120.475 516.09L120.571 515.994L120.666 515.899L120.761 515.804L120.855 515.71L120.948 515.617L121.04 515.525L121.132 515.433L121.223 515.342L121.313 515.252L121.403 515.162L121.403 515.162L121.49 515.073L121.571 514.984L121.646 514.894L121.716 514.805L121.78 514.716L121.838 514.626L121.891 514.537L121.939 514.448L121.981 514.359L122.017 514.269L122.048 514.18L122.073 514.091L122.092 514.001L122.106 513.912L122.115 513.823L122.117 513.733L122.115 513.644L122.106 513.555L122.092 513.466L122.073 513.376L122.048 513.287L122.017 513.198L121.981 513.108L121.939 513.019L121.891 512.93L121.838 512.841L121.78 512.751L121.716 512.662L121.646 512.573L121.571 512.483L121.49 512.394L121.403 512.305L121.403 512.305L121.313 512.215L121.223 512.125L121.132 512.034L121.04 511.942L120.948 511.85L120.855 511.756L120.761 511.663L120.666 511.568L120.571 511.473L120.475 511.377L120.379 511.28L120.281 511.183L120.183 511.085L120.085 510.986L119.985 510.887L119.885 510.787L119.784 510.686L119.683 510.585L119.581 510.482L119.478 510.379L119.374 510.276L119.27 510.172L119.165 510.067L119.059 509.961L118.953 509.854L118.846 509.747L118.738 509.64L118.629 509.531L118.52 509.422L118.41 509.312L118.3 509.202L118.189 509.09L118.189 509.09L118.078 508.979L117.968 508.87L117.86 508.762L117.753 508.655L117.648 508.55L117.544 508.446L117.441 508.343L117.34 508.242L117.241 508.142L117.142 508.044L117.045 507.947L116.95 507.851L116.855 507.757L116.763 507.664L116.671 507.573L116.581 507.483L116.493 507.394L116.406 507.307L116.32 507.221L116.235 507.137L116.152 507.054L116.071 506.972L115.99 506.892L115.912 506.813L115.834 506.736L115.758 506.66L115.683 506.585L115.61 506.512L115.538 506.44L115.468 506.37L115.399 506.301L115.331 506.233L115.331 506.233L115.266 506.167L115.206 506.103L115.149 506.041L115.097 505.982L115.049 505.924L115.005 505.869L114.965 505.815L114.929 505.764L114.898 505.715L114.871 505.668L114.848 505.623L114.829 505.58L114.814 505.539L114.804 505.5L114.798 505.464L114.795 505.429L114.798 505.397L114.804 505.366L114.814 505.338L114.829 505.312L114.848 505.288L114.871 505.266L114.898 505.246L114.929 505.228L114.965 505.213L115.005 505.199L115.049 505.188L115.097 505.178L115.149 505.171L115.206 505.166L115.266 505.162L115.331 505.161L115.331 505.161L115.398 505.161L115.465 505.161L115.532 505.161L115.599 505.161L115.666 505.161L115.733 505.161L115.8 505.161L115.867 505.161L115.934 505.161L116.001 505.161L116.068 505.161L116.135 505.161L116.202 505.161L116.269 505.161L116.336 505.161L116.403 505.161L116.47 505.161L116.537 505.161L116.604 505.161L116.671 505.161L116.738 505.161L116.805 505.161L116.871 505.161L116.938 505.161L117.005 505.161L117.072 505.161L117.139 505.161L117.206 505.161L117.273 505.161L117.34 505.161L117.407 505.161L117.474 505.161L117.474 505.161L117.541 505.161L117.607 505.161L117.672 505.161L117.737 505.161L117.8 505.161L117.863 505.161L117.926 505.161L117.988 505.161L118.049 505.161L118.109 505.161L118.169 505.161L118.228 505.161L118.286 505.161L118.343 505.161L118.4 505.161L118.456 505.161L118.512 505.161L118.567 505.161L118.621 505.161L118.674 505.161L118.727 505.161L118.779 505.161L118.83 505.161L118.881 505.161L118.93 505.161L118.98 505.161L119.028 505.161L119.076 505.161L119.123 505.161L119.169 505.161L119.215 505.161L119.26 505.161L119.26 505.161L119.305 505.162L119.349 505.164L119.394 505.168L119.439 505.173L119.483 505.179L119.528 505.187L119.573 505.196L119.617 505.206L119.662 505.218L119.707 505.231L119.751 505.246L119.796 505.262L119.84 505.279L119.885 505.298L119.93 505.318L119.974 505.34L120.019 505.363L120.064 505.387L120.108 505.413L120.153 505.44L120.198 505.469L120.242 505.499L120.287 505.53L120.332 505.563L120.376 505.597L120.421 505.633L120.466 505.67L120.51 505.708L120.555 505.748L120.599 505.789L120.644 505.832L120.689 505.876L120.689 505.876L120.733 505.92L120.778 505.965L120.823 506.01L120.867 506.054L120.912 506.099L120.957 506.144L121.001 506.188L121.046 506.233L121.091 506.278L121.135 506.322L121.18 506.367L121.225 506.411L121.269 506.456L121.314 506.501L121.358 506.545L121.403 506.59L121.448 506.635L121.492 506.679L121.537 506.724L121.582 506.769L121.626 506.813L121.671 506.858L121.716 506.903L121.76 506.947L121.805 506.992L121.85 507.037L121.894 507.081L121.939 507.126L121.984 507.17L122.028 507.215L122.073 507.26L122.117 507.304L122.117 507.304L122.163 507.35L122.21 507.397L122.258 507.445L122.307 507.494L122.358 507.545L122.41 507.597L122.464 507.651L122.519 507.706L122.576 507.763L122.634 507.821L122.693 507.88L122.754 507.941L122.816 508.003L122.879 508.066L122.944 508.131L123.01 508.197L123.078 508.265L123.147 508.334L123.218 508.405L123.289 508.476L123.363 508.55L123.437 508.624L123.513 508.7L123.591 508.778L123.67 508.857L123.75 508.937L123.831 509.018L123.914 509.101L123.999 509.186L124.085 509.272L124.172 509.359L124.26 509.447L124.26 509.447L124.35 509.534L124.439 509.615L124.528 509.69L124.618 509.76L124.707 509.824L124.796 509.883L124.886 509.936L124.975 509.983L125.064 510.025L125.153 510.061L125.243 510.092L125.332 510.117L125.421 510.137L125.511 510.151L125.6 510.159L125.689 510.162L125.778 510.159L125.868 510.151L125.957 510.137L126.046 510.117L126.136 510.092L126.225 510.061L126.314 510.025L126.403 509.983L126.493 509.936L126.582 509.883L126.671 509.824L126.761 509.76L126.85 509.69L126.939 509.615L127.029 509.534L127.118 509.447L127.118 509.447L127.206 509.359L127.294 509.272L127.379 509.186L127.464 509.101L127.547 509.018L127.628 508.937L127.709 508.857L127.788 508.778L127.865 508.7L127.941 508.624L128.016 508.55L128.089 508.476L128.161 508.405L128.231 508.334L128.3 508.265L128.368 508.197L128.434 508.131L128.499 508.066L128.563 508.003L128.625 507.941L128.685 507.88L128.745 507.821L128.803 507.763L128.859 507.706L128.914 507.651L128.968 507.597L129.02 507.545L129.071 507.494L129.121 507.445L129.169 507.397L129.216 507.35L129.261 507.304L129.261 507.304L129.305 507.26L129.35 507.215L129.395 507.17L129.439 507.126L129.484 507.081L129.529 507.037L129.573 506.992L129.618 506.947L129.663 506.903L129.707 506.858L129.752 506.813L129.797 506.769L129.841 506.724L129.886 506.679L129.931 506.635L129.975 506.59L130.02 506.545L130.064 506.501L130.109 506.456L130.154 506.411L130.198 506.367L130.243 506.322L130.288 506.278L130.332 506.233L130.377 506.188L130.422 506.144L130.466 506.099L130.511 506.054L130.556 506.01L130.6 505.965L130.645 505.92L130.69 505.876L130.69 505.876L130.734 505.832L130.779 505.789L130.823 505.748L130.868 505.708L130.913 505.67L130.957 505.633L131.002 505.597L131.047 505.563L131.091 505.53L131.136 505.499L131.181 505.469L131.225 505.44L131.27 505.413L131.315 505.387L131.359 505.363L131.404 505.34L131.449 505.318L131.493 505.298L131.538 505.279L131.582 505.262L131.627 505.246L131.672 505.231L131.716 505.218L131.761 505.206L131.806 505.196L131.85 505.187L131.895 505.179L131.94 505.173L131.984 505.168L132.029 505.164L132.074 505.162L132.118 505.161L132.118 505.161L132.163 505.161L132.209 505.161L132.255 505.161L132.302 505.161L132.35 505.161L132.399 505.161L132.448 505.161L132.498 505.161L132.548 505.161L132.6 505.161L132.652 505.161L132.704 505.161L132.758 505.161L132.812 505.161L132.866 505.161L132.922 505.161L132.978 505.161L133.035 505.161L133.092 505.161L133.151 505.161L133.21 505.161L133.269 505.161L133.33 505.161L133.391 505.161L133.452 505.161L133.515 505.161L133.578 505.161L133.642 505.161L133.706 505.161L133.772 505.161L133.837 505.161L133.904 505.161L133.904 505.161L133.971 505.161L134.038 505.161L134.105 505.161L134.172 505.161L134.239 505.161L134.306 505.161L134.373 505.161L134.44 505.161L134.507 505.161L134.574 505.161L134.641 505.161L134.708 505.161L134.775 505.161L134.842 505.161L134.909 505.161L134.976 505.161L135.043 505.161L135.11 505.161L135.176 505.161L135.243 505.161L135.31 505.161L135.377 505.161L135.444 505.161L135.511 505.161L135.578 505.161L135.645 505.161L135.712 505.161L135.779 505.161L135.846 505.161L135.913 505.161L135.98 505.161L136.047 505.161L136.047 505.161L136.112 505.162L136.173 505.166L136.229 505.171L136.281 505.178L136.33 505.188L136.374 505.199L136.413 505.213L136.449 505.228L136.48 505.246L136.508 505.266L136.531 505.288L136.549 505.312L136.564 505.338L136.574 505.366L136.581 505.397L136.583 505.429L136.581 505.464L136.574 505.5L136.564 505.539L136.549 505.58L136.531 505.623L136.508 505.668L136.48 505.715L136.449 505.764L136.413 505.815L136.374 505.869L136.33 505.924L136.281 505.982L136.229 506.041L136.173 506.103L136.112 506.167L136.047 506.233L136.047 506.233L135.979 506.301L135.909 506.371L135.837 506.443L135.762 506.518L135.686 506.594L135.608 506.672L135.527 506.753L135.444 506.836L135.36 506.92L135.273 507.007L135.184 507.096L135.093 507.187L135 507.28L134.904 507.376L134.807 507.473L134.708 507.572L134.606 507.674L134.503 507.777L134.397 507.883L134.289 507.991L134.179 508.101L134.067 508.213L133.953 508.327L133.837 508.443L133.719 508.561L133.599 508.681L133.476 508.804L133.352 508.928L133.225 509.055L133.096 509.184L132.965 509.315L132.833 509.447"/>
<path class="l5" d="M360.707 284.43L362.136 284.43L362.136 285.859L360.707 285.859L360.707 284.43z"/>
<path class="l5" d="M360.707 301.574L362.136 301.574L362.136 303.003L360.707 303.003L360.707 301.574z"/>
<path class="l5" d="M360.707 313.004L362.136 313.004L362.136 314.432L360.707 314.432L360.707 313.004z"/>
<path class="l5" d="M498.218 227.64L498.932 227.64L498.932 228.354L498.218 228.354L498.218 227.64z"/>
<path class="l5" d="M429.284 261.571L430.713 261.571L430.713 263L429.284 263L429.284 261.571z"/>
<path class="l5" d="M429.284 192.994L430.713 192.994L430.713 194.423L429.284 194.423L429.284 192.994z"/>
<path class="l5" d="M498.218 319.076L498.932 319.076L498.932 319.79L498.218 319.79L498.218 319.076z"/>
<path class="l5" d="M429.284 358.721L430.713 358.721L430.713 360.15L429.284 360.15L429.284 358.721z"/>
<path class="l5" d="M429.284 284.43L430.713 284.43L430.713 285.859L429.284 285.859L429.284 284.43z"/>
<path class="l5" d="M440.714 293.002L442.142 293.002L442.142 294.431L440.714 294.431L440.714 293.002z"/>
<path class="l5" d="M440.714 350.149L442.142 350.149L442.142 351.578L440.714 351.578L440.714 350.149z"/>
<path class="l5" d="M320.704 284.43L322.133 284.43L322.133 285.859L320.704 285.859L320.704 284.43z"/>
<path class="l5" d="M320.704 301.574L322.133 301.574L322.133 303.003L320.704 303.003L320.704 301.574z"/>
<path class="l5" d="M320.704 313.004L322.133 313.004L322.133 314.432L320.704 314.432L320.704 313.004z"/>
<path class="l5" d="M320.704 273.001L322.133 273.001L322.133 274.429L320.704 274.429L320.704 273.001z"/>
<path class="l5" d="M486.431 238.712L487.86 238.712L487.86 240.141L486.431 240.141L486.431 238.712z"/>
<path class="l5" d="M486.431 255.856L487.86 255.856L487.86 257.285L486.431 257.285L486.431 255.856z"/>
<path class="l5" d="M486.431 261.571L487.86 261.571L487.86 263L486.431 263L486.431 261.571z"/>
<path class="l5" d="M486.431 330.148L487.86 330.148L487.86 331.577L486.431 331.577L486.431 330.148z"/>
<path class="l5" d="M486.431 347.292L487.86 347.292L487.86 348.721L486.431 348.721L486.431 347.292z"/>
<path class="l5" d="M486.431 358.721L487.86 358.721L487.86 360.15L486.431 360.15L486.431 358.721z"/>
<path class="l5" d="M429.284 215.853L430.713 215.853L430.713 217.282L429.284 217.282L429.284 215.853z"/>
<path class="l5" d="M434.999 215.853L436.428 215.853L436.428 217.282L434.999 217.282L434.999 215.853z"/>
<path class="l5" d="M429.284 238.712L430.713 238.712L430.713 240.141L429.284 240.141L429.284 238.712z"/>
<path class="l5" d="M457.858 227.283L459.286 227.283L459.286 228.711L457.858 228.711L457.858 227.283z"/>
<path class="l5" d="M412.14 227.283L413.569 227.283L413.569 228.711L412.14 228.711L412.14 227.283z"/>
<path class="l5" d="M434.999 238.712L436.428 238.712L436.428 240.141L434.999 240.141L434.999 238.712z"/>
<path class="l5" d="M429.284 307.289L430.713 307.289L430.713 308.718L429.284 308.718L429.284 307.289z"/>
<path class="l5" d="M434.999 307.289L436.428 307.289L436.428 308.718L434.999 308.718L434.999 307.289z"/>
<path class="l5" d="M429.284 330.148L430.713 330.148L430.713 331.577L429.284 331.577L429.284 330.148z"/>
<path class="l5" d="M457.858 318.718L459.286 318.718L459.286 320.147L457.858 320.147L457.858 318.718z"/>
<path class="l5" d="M412.14 318.718L413.569 318.718L413.569 320.147L412.14 320.147L412.14 318.718z"/>
<path class="l5" d="M434.999 330.148L436.428 330.148L436.428 331.577L434.999 331.577L434.999 330.148z"/>
<path class="l7" d="M429.998 216.568L429.998 222.282"/>
<path class="l7" d="M429.998 233.712L429.998 239.427"/>
<path class="l7" d="M452.857 227.997L458.572 227.997"/>
<path class="l7" d="M412.854 227.997L418.569 227.997"/>
<path class="l7" d="M429.998 308.003L429.998 313.718"/>
<path class="l7" d="M429.998 325.147L429.998 330.862"/>
<path class="l7" d="M452.857 319.433L458.572 319.433"/>
<path class="l7" d="M412.854 319.433L418.569 319.433"/>
<circle class="l15" cx="652.873" cy="227.997" r="0.535756" />
<circle class="l15" cx="675.732" cy="227.997" r="0.535756" />
<circle class="l15" cx="652.873" cy="239.427" r="0.535756" />
<circle class="l15" cx="675.732" cy="262.285" r="0.535756" />
<circle class="l15" cx="698.591" cy="227.997" r="0.535756" />
<circle class="l15" cx="675.732" cy="239.427" r="0.535756" />
<circle class="l15" cx="675.732" cy="250.856" r="0.535756" />
<circle class="l15" cx="652.873" cy="250.856" r="0.535756" />
<circle class="l15" cx="652.873" cy="262.285" r="0.535756" />
<circle class="l15" cx="698.591" cy="250.856" r="0.535756" />
<circle class="l15" cx="698.591" cy="239.427" r="0.535756" />
<circle class="l15" cx="698.591" cy="262.285" r="0.535756" />
<circle class="l15" cx="567.152" cy="227.997" r="0.535756" />
<circle class="l15" cx="590.011" cy="227.997" r="0.535756" />
<circle class="l15" cx="567.152" cy="239.427" r="0.535756" />
<circle class="l15" cx="590.011" cy="262.285" r="0.535756" />
<circle class="l15" cx="612.87" cy="227.997" r="0.535756" />
<circle class="l15" cx="590.011" cy="239.427" r="0.535756" />
<circle class="l15" cx="590.011" cy="250.856" r="0.535756" />
<circle class="l15" cx="567.152" cy="250.856" r="0.535756" />
<circle class="l15" cx="567.152" cy="262.285" r="0.535756" />
<circle class="l15" cx="612.87" cy="250.856" r="0.535756" />
<circle class="l15" cx="612.87" cy="239.427" r="0.535756" />
<circle class="l15" cx="612.87" cy="262.285" r="0.535756" />
<circle class="l15" cx="652.873" cy="319.433" r="0.535756" />
<circle class="l15" cx="675.732" cy="319.433" r="0.535756" />
<circle class="l15" cx="652.873" cy="330.862" r="0.535756" />
<circle class="l15" cx="675.732" cy="353.721" r="0.535756" />
<circle class="l15" cx="698.591" cy="319.433" r="0.535756" />
<circle class="l15" cx="675.732" cy="330.862" r="0.535756" />
<circle class="l15" cx="675.732" cy="342.292" r="0.535756" />
<circle class="l15" cx="652.873" cy="342.292" r="0.535756" />
<circle class="l15" cx="652.873" cy="353.721" r="0.535756" />
<circle class="l15" cx="698.591" cy="342.292" r="0.535756" />
<circle class="l15" cx="698.591" cy="330.862" r="0.535756" />
<circle class="l15" cx="698.591" cy="353.721" r="0.535756" />
<circle class="l15" cx="567.152" cy="319.433" r="0.535756" />
<circle class="l15" cx="590.011" cy="319.433" r="0.535756" />
<circle class="l15" cx="567.152" cy="330.862" r="0.535756" />
<circle class="l15" cx="590.011" cy="353.721" r="0.535756" />
<circle class="l15" cx="612.87" cy="319.433" r="0.535756" />
<circle class="l15" cx="590.011" cy="330.862" r="0.535756" />
<circle class="l15" cx="590.011" cy="342.292" r="0.535756" />
<circle class="l15" cx="567.152" cy="342.292" r="0.535756" />
<circle class="l15" cx="567.152" cy="353.721" r="0.535756" />
<circle class="l15" cx="612.87" cy="342.292" r="0.535756" />
<circle class="l15" cx="612.87" cy="330.862" r="0.535756" />
<circle class="l15" cx="612.87" cy="353.721" r="0.535756" />
<path class="l1" d="M361.422 302.289L361.422 313.718"/>
<path class="l1" d="M361.422 273.715L361.422 285.144"/>
<path class="l1" d="M355.707 273.715L361.422 273.715"/>
<path class="l1" d="M429.998 285.144L429.998 308.003"/>
<path class="l1" d="M395.71 227.997L412.854 227.997"/>
<path class="l1" d="M395.71 319.433L412.854 319.433"/>
<path class="l1" d="M395.71 273.715L395.71 319.433"/>
<path class="l1" d="M395.71 227.997L395.71 273.715"/>
<path class="l1" d="M361.422 273.715L395.71 273.715"/>
<path class="l1" d="M458.572 319.433L487.146 319.433"/>
<path class="l1" d="M458.572 227.997L487.146 227.997"/>
<path class="l1" d="M441.428 350.864L441.428 353.721"/>
<path class="l1" d="M435.713 353.721L441.428 353.721"/>
<path class="l1" d="M441.428 290.859L441.428 293.716"/>
<path class="l1" d="M435.713 290.859L441.428 290.859"/>
<path class="l1" d="M435.713 290.859L435.713 308.003"/>
<path class="l1" d="M429.998 205.138L429.998 216.568"/>
<path class="l1" d="M435.713 330.862L435.713 353.721"/>
<path class="l1" d="M429.998 330.862L429.998 359.436"/>
<path class="l1" d="M429.998 205.138L435.713 205.138"/>
<path class="l1" d="M429.998 193.709L429.998 205.138"/>
<path class="l1" d="M435.713 205.138L435.713 216.568"/>
<path class="l1" d="M429.998 250.856L429.998 262.285"/>
<path class="l1" d="M435.713 239.427L435.713 250.856"/>
<path class="l1" d="M429.998 250.856L435.713 250.856"/>
<path class="l1" d="M429.998 239.427L429.998 250.856"/>
<path class="l1" d="M487.146 227.997L487.146 239.427"/>
<path class="l1" d="M487.146 227.997L498.575 227.997"/>
<path class="l1" d="M487.146 256.571L487.146 262.285"/>
<path class="l1" d="M487.146 319.433L487.146 330.862"/>
<path class="l1" d="M487.146 348.006L487.146 359.436"/>
<path class="l1" d="M487.146 319.433L498.575 319.433"/>
<path class="l1" d="M321.419 273.715L321.419 285.144"/>
<path class="l1" d="M321.419 302.289L321.419 313.718"/>
<circle class="l1" cx="429.998" cy="250.856" r="1.05722"/>
<circle class="l1" cx="429.998" cy="250.856" r="1.05722"/>
<circle class="l1" cx="429.998" cy="250.856" r="1.05722"/>
<circle class="l1" cx="429.998" cy="205.138" r="1.05722"/>
<circle class="l1" cx="429.998" cy="205.138" r="1.05722"/>
<circle class="l1" cx="429.998" cy="205.138" r="1.05722"/>
<circle class="l1" cx="361.422" cy="273.715" r="1.05722"/>
<circle class="l1" cx="395.71" cy="273.715" r="1.05722"/>
<circle class="l1" cx="395.71" cy="273.715" r="1.05722"/>
<circle class="l1" cx="395.71" cy="273.715" r="1.05722"/>
<circle class="l1" cx="361.422" cy="273.715" r="1.05722"/>
<circle class="l1" cx="361.422" cy="273.715" r="1.05722"/>
<circle class="l1" cx="487.146" cy="227.997" r="1.05722"/>
<circle class="l1" cx="487.146" cy="227.997" r="1.05722"/>
<circle class="l1" cx="487.146" cy="227.997" r="1.05722"/>
<circle class="l1" cx="487.146" cy="319.433" r="1.05722"/>
<circle class="l1" cx="487.146" cy="319.433" r="1.05722"/>
<circle class="l1" cx="487.146" cy="319.433" r="1.05722"/>
<text fill="#222222"  xml:space="preserve" font-size="14.8583" transform="translate(172.836, 35.7582)" >Testbench for Operating Point analysis - Parameterizable Transmission Gate</text>
<text fill="#222222"  xml:space="preserve" font-size="5.94332" transform="translate(575.724, 213.392)" >x1 NMOS M1:</text>
<text fill="#222222"  xml:space="preserve" font-size="5.94332" transform="translate(661.445, 213.392)" >x1 PMOS M2:</text>
<text fill="#222222"  xml:space="preserve" font-size="5.94332" transform="translate(575.724, 304.828)" >x2 NMOS M1:</text>
<text fill="#222222"  xml:space="preserve" font-size="5.94332" transform="translate(661.445, 304.828)" >x2 PMOS M2:</text>
<text fill="#222222"  xml:space="preserve" font-size="7.42915" transform="translate(452.857, 289.033)" >TG is OFF!</text>
<text fill="#222222"  xml:space="preserve" font-size="7.42915" transform="translate(452.857, 197.597)" >TG is ON!</text>
</svg>
