<svg xmlns="http://www.w3.org/2000/svg" xmlns:xlink="http://www.w3.org/1999/xlink" width="1066" height="666" version="1.1">
<style type="text/css">
.l0{
  fill: #ffffff;
  stroke: #ffffff;
  stroke-linecap:round;
  stroke-linejoin:round;
  stroke-width: 0.810527;
}
.l1{
  fill: #0099cc;
  stroke: #0099cc;
  stroke-linecap:round;
  stroke-linejoin:round;
  stroke-width: 0.810527;
}
.l2{
  fill: #aaaaaa; fill-opacity: 0.2;
  stroke: #aaaaaa;
  stroke-linecap:round;
  stroke-linejoin:round;
  stroke-width: 0.810527;
}
.l3{
  fill: #222222; fill-opacity: 0.5;
  stroke: #222222;
  stroke-linecap:round;
  stroke-linejoin:round;
  stroke-width: 0.810527;
}
.l4{
  fill: #229900;
  stroke: #229900;
  stroke-linecap:round;
  stroke-linejoin:round;
  stroke-width: 0.810527;
}
.l5{
  fill: #bb2200;
  stroke: #bb2200;
  stroke-linecap:round;
  stroke-linejoin:round;
  stroke-width: 0.810527;
}
.l6{
  fill: #0066cc; fill-opacity: 0.5;
  stroke: #0066cc;
  stroke-linecap:round;
  stroke-linejoin:round;
  stroke-width: 0.810527;
}
.l7{
  fill: #ff0000; fill-opacity: 0.5;
  stroke: #ff0000;
  stroke-linecap:round;
  stroke-linejoin:round;
  stroke-width: 0.810527;
}
.l8{
  fill: #888800; fill-opacity: 0.5;
  stroke: #888800;
  stroke-linecap:round;
  stroke-linejoin:round;
  stroke-width: 0.810527;
}
.l9{
  fill: #00aaaa; fill-opacity: 0.5;
  stroke: #00aaaa;
  stroke-linecap:round;
  stroke-linejoin:round;
  stroke-width: 0.810527;
}
.l10{
  fill: #880088;
  stroke: #880088;
  stroke-linecap:round;
  stroke-linejoin:round;
  stroke-width: 0.810527;
}
.l11{
  fill: #00ff00; fill-opacity: 0.5;
  stroke: #00ff00;
  stroke-linecap:round;
  stroke-linejoin:round;
  stroke-width: 0.810527;
}
.l12{
  fill: #0000cc; fill-opacity: 0.5;
  stroke: #0000cc;
  stroke-linecap:round;
  stroke-linejoin:round;
  stroke-width: 0.810527;
}
.l13{
  fill: #666600; fill-opacity: 0.5;
  stroke: #666600;
  stroke-linecap:round;
  stroke-linejoin:round;
  stroke-width: 0.810527;
}
.l14{
  fill: #557755; fill-opacity: 0.2;
  stroke: #557755;
  stroke-linecap:round;
  stroke-linejoin:round;
  stroke-width: 0.810527;
}
.l15{
  fill: #aa2222; fill-opacity: 0.5;
  stroke: #aa2222;
  stroke-linecap:round;
  stroke-linejoin:round;
  stroke-width: 0.810527;
}
.l16{
  fill: #7ccc40; fill-opacity: 0.5;
  stroke: #7ccc40;
  stroke-linecap:round;
  stroke-linejoin:round;
  stroke-width: 0.810527;
}
.l17{
  fill: #00ffcc; fill-opacity: 0.2;
  stroke: #00ffcc;
  stroke-linecap:round;
  stroke-linejoin:round;
  stroke-width: 0.810527;
}
.l18{
  fill: #ce0097; fill-opacity: 0.5;
  stroke: #ce0097;
  stroke-linecap:round;
  stroke-linejoin:round;
  stroke-width: 0.810527;
}
.l19{
  fill: #d2d46b; fill-opacity: 0.2;
  stroke: #d2d46b;
  stroke-linecap:round;
  stroke-linejoin:round;
  stroke-width: 0.810527;
}
.l20{
  fill: #ef6158; fill-opacity: 0.2;
  stroke: #ef6158;
  stroke-linecap:round;
  stroke-linejoin:round;
  stroke-width: 0.810527;
}
.l21{
  fill: #fdb200; fill-opacity: 0.2;
  stroke: #fdb200;
  stroke-linecap:round;
  stroke-linejoin:round;
  stroke-width: 0.810527;
}
text {font-family: Sans-Serif;}
</style>
<rect class="l0" x="0" y="0" width="1066" height="666"/>
<path class="l4" d="M573.526 472.291L573.526 508.314"/>
<path class="l4" d="M573.526 490.302L585.534 490.302"/>
<path class="l4" d="M561.519 472.291L567.522 478.294"/>
<path class="l4" d="M561.519 508.314L573.526 496.306"/>
<path class="l4" d="M573.526 484.298L564.52 481.296L570.524 475.293L573.526 484.298"/>
<path class="l4" d="M693.604 472.291L693.604 508.314"/>
<path class="l4" d="M681.597 490.302L693.604 490.302"/>
<path class="l4" d="M699.608 478.294L705.612 472.291"/>
<path class="l4" d="M693.604 496.306L705.612 508.314"/>
<path class="l4" d="M693.604 484.298L702.61 481.296L696.606 475.293L693.604 484.298"/>
<path class="l4" d="M561.519 412.252L561.519 448.275"/>
<path class="l4" d="M557.016 430.263L561.519 436.267"/>
<path class="l4" d="M561.519 436.267L566.021 430.263"/>
<path class="l4" d="M885.729 310.185L885.729 346.209"/>
<path class="l4" d="M881.226 328.197L885.729 334.201"/>
<path class="l4" d="M885.729 334.201L890.232 328.197"/>
<path class="l4" d="M357.386 268.158L369.394 268.158"/>
<path class="l4" d="M453.448 250.146L465.456 250.146"/>
<path class="l4" d="M453.448 286.17L465.456 286.17"/>
<path class="l4" d="M453.448 232.134L453.448 304.181"/>
<path class="l4" d="M369.394 268.158L453.448 304.181"/>
<path class="l4" d="M369.394 268.158L453.448 232.134"/>
<path class="l4" d="M357.386 220.127L465.456 220.127"/>
<path class="l4" d="M357.386 220.127L357.386 316.189"/>
<path class="l4" d="M357.386 316.189L465.456 316.189"/>
<path class="l4" d="M465.456 220.127L465.456 316.189"/>
<path class="l4" d="M400.914 116.559L400.914 143.577"/>
<path class="l4" d="M393.409 112.056L393.409 119.561"/>
<path class="l4" d="M393.409 140.575L393.409 148.08"/>
<path class="l4" d="M403.916 121.062L403.916 139.074"/>
<path class="l4" d="M393.409 140.575L400.914 140.575"/>
<path class="l4" d="M393.409 119.561L400.914 119.561"/>
<path class="l4" d="M404.216 130.068L417.425 130.068"/>
<path class="l4" d="M397.912 118.06L400.914 119.561L397.912 121.062L397.912 118.06"/>
<path class="l4" d="M561.519 340.205L561.519 376.228"/>
<path class="l4" d="M557.016 358.216L561.519 364.22"/>
<path class="l4" d="M561.519 364.22L566.021 358.216"/>
<path class="l4" d="M705.612 340.205L705.612 376.228"/>
<path class="l4" d="M701.109 358.216L705.612 364.22"/>
<path class="l4" d="M705.612 364.22L710.115 358.216"/>
<path class="l4" d="M569.023 116.559L569.023 143.577"/>
<path class="l4" d="M561.519 112.056L561.519 119.561"/>
<path class="l4" d="M561.519 140.575L561.519 148.08"/>
<path class="l4" d="M572.025 121.062L572.025 139.074"/>
<path class="l4" d="M561.519 140.575L569.023 140.575"/>
<path class="l4" d="M561.519 119.561L569.023 119.561"/>
<path class="l4" d="M572.326 130.068L585.534 130.068"/>
<path class="l4" d="M566.021 118.06L569.023 119.561L566.021 121.062L566.021 118.06"/>
<path class="l4" d="M698.107 116.559L698.107 143.577"/>
<path class="l4" d="M705.612 112.056L705.612 119.561"/>
<path class="l4" d="M705.612 140.575L705.612 148.08"/>
<path class="l4" d="M695.105 121.062L695.105 139.074"/>
<path class="l4" d="M698.107 140.575L705.612 140.575"/>
<path class="l4" d="M698.107 119.561L705.612 119.561"/>
<path class="l4" d="M681.597 130.068L694.805 130.068"/>
<path class="l4" d="M701.109 118.06L698.107 119.561L701.109 121.062L701.109 118.06"/>
<path class="l4" d="M878.224 116.559L878.224 143.577"/>
<path class="l4" d="M885.729 112.056L885.729 119.561"/>
<path class="l4" d="M885.729 140.575L885.729 148.08"/>
<path class="l4" d="M875.222 121.062L875.222 139.074"/>
<path class="l4" d="M878.224 140.575L885.729 140.575"/>
<path class="l4" d="M878.224 119.561L885.729 119.561"/>
<path class="l4" d="M861.714 130.068L874.922 130.068"/>
<path class="l4" d="M881.226 118.06L878.224 119.561L881.226 121.062L881.226 118.06"/>
<path class="l4" d="M313.858 446.774L313.858 473.792"/>
<path class="l4" d="M321.362 442.271L321.362 449.776"/>
<path class="l4" d="M321.362 470.79L321.362 478.294"/>
<path class="l4" d="M310.856 451.277L310.856 469.289"/>
<path class="l4" d="M313.858 470.79L321.362 470.79"/>
<path class="l4" d="M313.858 449.776L321.362 449.776"/>
<path class="l4" d="M297.347 460.283L310.555 460.283"/>
<path class="l4" d="M318.36 472.291L321.362 470.79L318.36 469.289L318.36 472.291"/>
<path class="l4" d="M205.787 476.793L205.787 503.811"/>
<path class="l4" d="M213.292 472.291L213.292 479.795"/>
<path class="l4" d="M213.292 500.809L213.292 508.314"/>
<path class="l4" d="M202.785 481.296L202.785 499.308"/>
<path class="l4" d="M205.787 500.809L213.292 500.809"/>
<path class="l4" d="M205.787 479.795L213.292 479.795"/>
<path class="l4" d="M189.277 490.302L202.485 490.302"/>
<path class="l4" d="M210.29 502.31L213.292 500.809L210.29 499.308L210.29 502.31"/>
<path class="l4" d="M205.787 416.754L205.787 443.772"/>
<path class="l4" d="M213.292 412.252L213.292 419.756"/>
<path class="l4" d="M213.292 440.77L213.292 448.275"/>
<path class="l4" d="M202.785 421.257L202.785 439.269"/>
<path class="l4" d="M205.787 440.77L213.292 440.77"/>
<path class="l4" d="M205.787 419.756L213.292 419.756"/>
<path class="l4" d="M189.277 430.263L202.485 430.263"/>
<path class="l4" d="M208.789 418.255L205.787 419.756L208.789 421.257L208.789 418.255"/>
<path class="l4" d="M271.83 71.53L298.848 71.53"/>
<path class="l4" d="M295.846 64.0251L303.351 64.0251"/>
<path class="l4" d="M267.327 64.0251L274.832 64.0251"/>
<path class="l4" d="M276.333 74.532L294.345 74.532"/>
<path class="l4" d="M274.832 64.0251L274.832 71.53"/>
<path class="l4" d="M295.846 64.0251L295.846 71.53"/>
<path class="l4" d="M285.339 74.8322L285.339 88.0407"/>
<path class="l4" d="M297.347 68.5281L295.846 71.53L294.345 68.5281L297.347 68.5281"/>
<path class="l4" d="M620.057 464.786L647.074 464.786"/>
<path class="l4" d="M615.554 472.291L623.059 472.291"/>
<path class="l4" d="M644.072 472.291L651.577 472.291"/>
<path class="l4" d="M624.56 461.784L642.571 461.784"/>
<path class="l4" d="M644.072 464.786L644.072 472.291"/>
<path class="l4" d="M623.059 464.786L623.059 472.291"/>
<path class="l4" d="M633.565 448.275L633.565 461.484"/>
<path class="l4" d="M645.573 469.289L644.072 472.291L642.571 469.289L645.573 469.289"/>
<path class="l4" d="M705.612 412.252L705.612 419.756"/>
<path class="l4" d="M705.612 419.756L711.616 421.257"/>
<path class="l4" d="M699.608 424.259L711.616 421.257"/>
<path class="l4" d="M699.608 424.259L711.616 427.261"/>
<path class="l4" d="M699.608 430.263L711.616 427.261"/>
<path class="l4" d="M699.608 430.263L711.616 433.265"/>
<path class="l4" d="M705.612 440.77L705.612 448.275"/>
<path class="l4" d="M699.608 436.267L711.616 433.265"/>
<path class="l4" d="M699.608 436.267L711.616 439.269"/>
<path class="l4" d="M705.612 440.77L711.616 439.269"/>
<path class="l4" d="M717.62 421.257L717.62 439.269"/>
<path class="l4" d="M717.62 430.263L723.624 430.263"/>
<path class="l4" d="M801.675 412.252L801.675 419.756"/>
<path class="l4" d="M795.671 421.257L801.675 419.756"/>
<path class="l4" d="M795.671 421.257L807.679 424.259"/>
<path class="l4" d="M795.671 427.261L807.679 424.259"/>
<path class="l4" d="M795.671 427.261L807.679 430.263"/>
<path class="l4" d="M795.671 433.265L807.679 430.263"/>
<path class="l4" d="M801.675 440.77L801.675 448.275"/>
<path class="l4" d="M795.671 433.265L807.679 436.267"/>
<path class="l4" d="M795.671 439.269L807.679 436.267"/>
<path class="l4" d="M795.671 439.269L801.675 440.77"/>
<path class="l4" d="M789.667 421.257L789.667 439.269"/>
<path class="l4" d="M783.663 430.263L789.667 430.263"/>
<path class="l4" d="M801.675 460.283L801.675 467.788"/>
<path class="l4" d="M795.671 469.289L801.675 467.788"/>
<path class="l4" d="M795.671 469.289L807.679 472.291"/>
<path class="l4" d="M795.671 475.293L807.679 472.291"/>
<path class="l4" d="M795.671 475.293L807.679 478.294"/>
<path class="l4" d="M795.671 481.296L807.679 478.294"/>
<path class="l4" d="M801.675 488.801L801.675 496.306"/>
<path class="l4" d="M795.671 481.296L807.679 484.298"/>
<path class="l4" d="M795.671 487.3L807.679 484.298"/>
<path class="l4" d="M795.671 487.3L801.675 488.801"/>
<path class="l4" d="M789.667 469.289L789.667 487.3"/>
<path class="l4" d="M783.663 478.294L789.667 478.294"/>
<path class="l4" d="M495.476 412.252L495.476 419.756"/>
<path class="l4" d="M495.476 419.756L501.48 421.257"/>
<path class="l4" d="M489.472 424.259L501.48 421.257"/>
<path class="l4" d="M489.472 424.259L501.48 427.261"/>
<path class="l4" d="M489.472 430.263L501.48 427.261"/>
<path class="l4" d="M489.472 430.263L501.48 433.265"/>
<path class="l4" d="M495.476 440.77L495.476 448.275"/>
<path class="l4" d="M489.472 436.267L501.48 433.265"/>
<path class="l4" d="M489.472 436.267L501.48 439.269"/>
<path class="l4" d="M495.476 440.77L501.48 439.269"/>
<path class="l4" d="M507.483 421.257L507.483 439.269"/>
<path class="l4" d="M507.483 430.263L513.487 430.263"/>
<path class="l4" d="M495.476 460.283L495.476 467.788"/>
<path class="l4" d="M495.476 467.788L501.48 469.289"/>
<path class="l4" d="M489.472 472.291L501.48 469.289"/>
<path class="l4" d="M489.472 472.291L501.48 475.293"/>
<path class="l4" d="M489.472 478.294L501.48 475.293"/>
<path class="l4" d="M489.472 478.294L501.48 481.296"/>
<path class="l4" d="M495.476 488.801L495.476 496.306"/>
<path class="l4" d="M489.472 484.298L501.48 481.296"/>
<path class="l4" d="M489.472 484.298L501.48 487.3"/>
<path class="l4" d="M495.476 488.801L501.48 487.3"/>
<path class="l4" d="M507.483 469.289L507.483 487.3"/>
<path class="l4" d="M507.483 478.294L513.487 478.294"/>
<path class="l4" d="M885.729 436.267L885.729 443.772"/>
<path class="l4" d="M885.729 443.772L891.733 445.273"/>
<path class="l4" d="M879.725 448.275L891.733 445.273"/>
<path class="l4" d="M879.725 448.275L891.733 451.277"/>
<path class="l4" d="M879.725 454.279L891.733 451.277"/>
<path class="l4" d="M879.725 454.279L891.733 457.281"/>
<path class="l4" d="M885.729 464.786L885.729 472.291"/>
<path class="l4" d="M879.725 460.283L891.733 457.281"/>
<path class="l4" d="M879.725 460.283L891.733 463.285"/>
<path class="l4" d="M885.729 464.786L891.733 463.285"/>
<path class="l4" d="M897.737 445.273L897.737 463.285"/>
<path class="l4" d="M897.737 454.279L903.741 454.279"/>
<path class="l4" d="M878.224 56.5203L878.224 83.5378"/>
<path class="l4" d="M885.729 52.0173L885.729 59.5222"/>
<path class="l4" d="M885.729 80.5359L885.729 88.0407"/>
<path class="l4" d="M875.222 61.0232L875.222 79.0349"/>
<path class="l4" d="M878.224 80.5359L885.729 80.5359"/>
<path class="l4" d="M878.224 59.5222L885.729 59.5222"/>
<path class="l4" d="M861.714 70.029L874.922 70.029"/>
<path class="l4" d="M881.226 58.0212L878.224 59.5222L881.226 61.0232L881.226 58.0212"/>
<path class="l4" d="M698.107 56.5203L698.107 83.5378"/>
<path class="l4" d="M705.612 52.0173L705.612 59.5222"/>
<path class="l4" d="M705.612 80.5359L705.612 88.0407"/>
<path class="l4" d="M695.105 61.0232L695.105 79.0349"/>
<path class="l4" d="M698.107 80.5359L705.612 80.5359"/>
<path class="l4" d="M698.107 59.5222L705.612 59.5222"/>
<path class="l4" d="M681.597 70.029L694.805 70.029"/>
<path class="l4" d="M701.109 58.0212L698.107 59.5222L701.109 61.0232L701.109 58.0212"/>
<path class="l4" d="M569.023 56.5203L569.023 83.5378"/>
<path class="l4" d="M561.519 52.0173L561.519 59.5222"/>
<path class="l4" d="M561.519 80.5359L561.519 88.0407"/>
<path class="l4" d="M572.025 61.0232L572.025 79.0349"/>
<path class="l4" d="M561.519 80.5359L569.023 80.5359"/>
<path class="l4" d="M561.519 59.5222L569.023 59.5222"/>
<path class="l4" d="M572.326 70.029L585.534 70.029"/>
<path class="l4" d="M566.021 58.0212L569.023 59.5222L566.021 61.0232L566.021 58.0212"/>
<path class="l4" d="M400.914 56.5203L400.914 83.5378"/>
<path class="l4" d="M393.409 52.0173L393.409 59.5222"/>
<path class="l4" d="M393.409 80.5359L393.409 88.0407"/>
<path class="l4" d="M403.916 61.0232L403.916 79.0349"/>
<path class="l4" d="M393.409 80.5359L400.914 80.5359"/>
<path class="l4" d="M393.409 59.5222L400.914 59.5222"/>
<path class="l4" d="M404.216 70.029L417.425 70.029"/>
<path class="l4" d="M397.912 58.0212L400.914 59.5222L397.912 61.0232L397.912 58.0212"/>
<path class="l5" d="M117.23 625.39L117.042 625.578L116.854 625.765L116.667 625.953L116.479 626.141L116.292 626.328L116.104 626.516L115.916 626.703L115.729 626.891L115.541 627.079L115.353 627.266L115.166 627.454L114.978 627.642L114.791 627.829L114.603 628.017L114.415 628.204L114.228 628.392L114.04 628.58L113.852 628.767L113.665 628.955L113.477 629.143L113.29 629.33L113.102 629.518L112.914 629.705L112.727 629.893L112.539 630.081L112.352 630.268L112.164 630.456L111.976 630.644L111.789 630.831L111.601 631.019L111.413 631.206L111.226 631.394L111.226 631.394L111.044 631.582L110.874 631.769L110.716 631.957L110.569 632.144L110.434 632.332L110.311 632.52L110.2 632.707L110.1 632.895L110.012 633.083L109.936 633.27L109.871 633.458L109.819 633.645L109.778 633.833L109.748 634.021L109.731 634.208L109.725 634.396L109.731 634.584L109.748 634.771L109.778 634.959L109.819 635.146L109.871 635.334L109.936 635.522L110.012 635.709L110.1 635.897L110.2 636.085L110.311 636.272L110.434 636.46L110.569 636.647L110.716 636.835L110.874 637.023L111.044 637.21L111.226 637.398L111.226 637.398L111.414 637.586L111.604 637.776L111.795 637.967L111.988 638.16L112.182 638.354L112.378 638.55L112.575 638.747L112.774 638.946L112.974 639.146L113.175 639.347L113.378 639.55L113.583 639.755L113.789 639.961L113.996 640.168L114.205 640.377L114.415 640.587L114.627 640.799L114.84 641.013L115.055 641.227L115.271 641.443L115.489 641.661L115.708 641.88L115.929 642.101L116.151 642.323L116.374 642.547L116.599 642.772L116.826 642.998L117.054 643.226L117.283 643.455L117.514 643.686L117.746 643.918L117.98 644.152L117.98 644.152L118.213 644.385L118.443 644.615L118.671 644.843L118.895 645.067L119.116 645.288L119.335 645.507L119.55 645.722L119.763 645.935L119.972 646.144L120.179 646.351L120.383 646.555L120.583 646.756L120.781 646.953L120.976 647.148L121.168 647.34L121.357 647.529L121.544 647.716L121.727 647.899L121.907 648.079L122.084 648.257L122.259 648.431L122.43 648.602L122.599 648.771L122.765 648.937L122.927 649.099L123.087 649.259L123.244 649.416L123.398 649.57L123.549 649.721L123.697 649.869L123.842 650.014L123.984 650.156L123.984 650.156L124.12 650.295L124.248 650.429L124.367 650.559L124.477 650.684L124.578 650.805L124.67 650.921L124.754 651.033L124.828 651.141L124.894 651.245L124.952 651.343L125 651.438L125.039 651.528L125.07 651.614L125.092 651.695L125.105 651.772L125.11 651.845L125.105 651.913L125.092 651.977L125.07 652.036L125.039 652.091L125 652.142L124.952 652.188L124.894 652.23L124.828 652.267L124.754 652.3L124.67 652.329L124.578 652.353L124.477 652.372L124.367 652.388L124.248 652.399L124.12 652.405L123.984 652.408L123.984 652.408L123.843 652.408L123.703 652.408L123.562 652.408L123.421 652.408L123.281 652.408L123.14 652.408L122.999 652.408L122.858 652.408L122.718 652.408L122.577 652.408L122.436 652.408L122.295 652.408L122.155 652.408L122.014 652.408L121.873 652.408L121.733 652.408L121.592 652.408L121.451 652.408L121.31 652.408L121.17 652.408L121.029 652.408L120.888 652.408L120.748 652.408L120.607 652.408L120.466 652.408L120.325 652.408L120.185 652.408L120.044 652.408L119.903 652.408L119.763 652.408L119.622 652.408L119.481 652.408L119.481 652.408L119.341 652.408L119.203 652.408L119.066 652.408L118.93 652.408L118.796 652.408L118.663 652.408L118.532 652.408L118.402 652.408L118.274 652.408L118.147 652.408L118.022 652.408L117.898 652.408L117.776 652.408L117.655 652.408L117.535 652.408L117.417 652.408L117.301 652.408L117.186 652.408L117.072 652.408L116.96 652.408L116.849 652.408L116.74 652.408L116.632 652.408L116.526 652.408L116.421 652.408L116.318 652.408L116.216 652.408L116.116 652.408L116.017 652.408L115.919 652.408L115.823 652.408L115.729 652.408L115.729 652.408L115.635 652.406L115.541 652.402L115.447 652.394L115.353 652.384L115.26 652.371L115.166 652.355L115.072 652.336L114.978 652.314L114.884 652.289L114.791 652.261L114.697 652.23L114.603 652.197L114.509 652.16L114.415 652.12L114.322 652.078L114.228 652.032L114.134 651.984L114.04 651.933L113.946 651.879L113.852 651.821L113.759 651.761L113.665 651.698L113.571 651.632L113.477 651.563L113.383 651.492L113.29 651.417L113.196 651.339L113.102 651.258L113.008 651.175L112.914 651.088L112.821 650.999L112.727 650.907L112.727 650.907L112.633 650.813L112.539 650.719L112.445 650.625L112.352 650.531L112.258 650.438L112.164 650.344L112.07 650.25L111.976 650.156L111.882 650.062L111.789 649.969L111.695 649.875L111.601 649.781L111.507 649.687L111.413 649.593L111.32 649.5L111.226 649.406L111.132 649.312L111.038 649.218L110.944 649.124L110.851 649.03L110.757 648.937L110.663 648.843L110.569 648.749L110.475 648.655L110.381 648.561L110.288 648.468L110.194 648.374L110.1 648.28L110.006 648.186L109.912 648.092L109.819 647.999L109.725 647.905L109.725 647.905L109.63 647.809L109.531 647.711L109.43 647.61L109.326 647.506L109.219 647.399L109.109 647.289L108.996 647.176L108.881 647.06L108.762 646.942L108.64 646.82L108.516 646.695L108.388 646.568L108.258 646.437L108.124 646.304L107.988 646.168L107.849 646.029L107.706 645.886L107.561 645.741L107.413 645.593L107.262 645.442L107.108 645.288L106.952 645.131L106.792 644.972L106.629 644.809L106.463 644.643L106.295 644.475L106.123 644.303L105.949 644.129L105.772 643.951L105.591 643.771L105.408 643.588L105.222 643.402L105.222 643.402L105.034 643.22L104.847 643.05L104.659 642.892L104.471 642.745L104.284 642.61L104.096 642.487L103.909 642.376L103.721 642.276L103.533 642.188L103.346 642.112L103.158 642.047L102.97 641.995L102.783 641.954L102.595 641.924L102.408 641.907L102.22 641.901L102.032 641.907L101.845 641.924L101.657 641.954L101.469 641.995L101.282 642.047L101.094 642.112L100.907 642.188L100.719 642.276L100.531 642.376L100.344 642.487L100.156 642.61L99.9685 642.745L99.7808 642.892L99.5932 643.05L99.4056 643.22L99.218 643.402L99.218 643.402L99.0318 643.588L98.8486 643.771L98.6683 643.951L98.4909 644.129L98.3165 644.303L98.145 644.475L97.9765 644.643L97.8108 644.809L97.6481 644.972L97.4883 645.131L97.3315 645.288L97.1776 645.442L97.0266 645.593L96.8786 645.741L96.7335 645.886L96.5913 646.029L96.452 646.168L96.3157 646.304L96.1823 646.437L96.0519 646.568L95.9243 646.695L95.7997 646.82L95.6781 646.942L95.5594 647.06L95.4436 647.176L95.3307 647.289L95.2208 647.399L95.1138 647.506L95.0097 647.61L94.9085 647.711L94.8103 647.809L94.7151 647.905L94.7151 647.905L94.6212 647.999L94.5274 648.092L94.4336 648.186L94.3398 648.28L94.246 648.374L94.1522 648.468L94.0584 648.561L93.9646 648.655L93.8708 648.749L93.7769 648.843L93.6831 648.937L93.5893 649.03L93.4955 649.124L93.4017 649.218L93.3079 649.312L93.2141 649.406L93.1203 649.5L93.0265 649.593L92.9326 649.687L92.8388 649.781L92.745 649.875L92.6512 649.969L92.5574 650.062L92.4636 650.156L92.3698 650.25L92.276 650.344L92.1822 650.438L92.0883 650.531L91.9945 650.625L91.9007 650.719L91.8069 650.813L91.7131 650.907L91.7131 650.907L91.6193 650.999L91.5255 651.088L91.4317 651.175L91.3379 651.258L91.244 651.339L91.1502 651.417L91.0564 651.492L90.9626 651.563L90.8688 651.632L90.775 651.698L90.6812 651.761L90.5874 651.821L90.4936 651.879L90.3998 651.933L90.3059 651.984L90.2121 652.032L90.1183 652.078L90.0245 652.12L89.9307 652.16L89.8369 652.197L89.7431 652.23L89.6493 652.261L89.5555 652.289L89.4616 652.314L89.3678 652.336L89.274 652.355L89.1802 652.371L89.0864 652.384L88.9926 652.394L88.8988 652.402L88.805 652.406L88.7112 652.408L88.7112 652.408L88.6166 652.408L88.5206 652.408L88.4231 652.408L88.3242 652.408L88.2238 652.408L88.1219 652.408L88.0186 652.408L87.9138 652.408L87.8075 652.408L87.6998 652.408L87.5906 652.408L87.4799 652.408L87.3677 652.408L87.2542 652.408L87.1391 652.408L87.0226 652.408L86.9046 652.408L86.7851 652.408L86.6642 652.408L86.5418 652.408L86.4179 652.408L86.2926 652.408L86.1658 652.408L86.0375 652.408L85.9078 652.408L85.7766 652.408L85.644 652.408L85.5099 652.408L85.3743 652.408L85.2372 652.408L85.0987 652.408L84.9587 652.408L84.9587 652.408L84.818 652.408L84.6773 652.408L84.5366 652.408L84.3958 652.408L84.2551 652.408L84.1144 652.408L83.9737 652.408L83.833 652.408L83.6923 652.408L83.5515 652.408L83.4108 652.408L83.2701 652.408L83.1294 652.408L82.9887 652.408L82.848 652.408L82.7072 652.408L82.5665 652.408L82.4258 652.408L82.2851 652.408L82.1444 652.408L82.0037 652.408L81.863 652.408L81.7222 652.408L81.5815 652.408L81.4408 652.408L81.3001 652.408L81.1594 652.408L81.0187 652.408L80.8779 652.408L80.7372 652.408L80.5965 652.408L80.4558 652.408L80.4558 652.408L80.3195 652.405L80.1919 652.399L80.0732 652.388L79.9633 652.372L79.8621 652.353L79.7698 652.329L79.6862 652.3L79.6115 652.267L79.5455 652.23L79.4884 652.188L79.44 652.142L79.4004 652.091L79.3696 652.036L79.3476 651.977L79.3345 651.913L79.3301 651.845L79.3345 651.772L79.3476 651.695L79.3696 651.614L79.4004 651.528L79.44 651.438L79.4884 651.343L79.5455 651.245L79.6115 651.141L79.6862 651.033L79.7698 650.921L79.8621 650.805L79.9633 650.684L80.0732 650.559L80.1919 650.429L80.3195 650.295L80.4558 650.156L80.4558 650.156L80.598 650.014L80.7431 649.869L80.8911 649.721L81.0421 649.57L81.196 649.416L81.3529 649.259L81.5126 649.099L81.6753 648.937L81.841 648.771L82.0095 648.602L82.181 648.431L82.3555 648.257L82.5328 648.079L82.7131 647.899L82.8963 647.716L83.0825 647.529L83.2716 647.34L83.4636 647.148L83.6586 646.953L83.8564 646.756L84.0572 646.555L84.261 646.351L84.4677 646.144L84.6773 645.935L84.8898 645.722L85.1053 645.507L85.3237 645.288L85.545 645.067L85.7693 644.843L85.9965 644.615L86.2266 644.385L86.4597 644.152L86.4597 644.152L86.6935 643.918L86.9258 643.686L87.1567 643.455L87.3861 643.226L87.614 642.998L87.8405 642.772L88.0655 642.547L88.289 642.323L88.5111 642.101L88.7317 641.88L88.9508 641.661L89.1685 641.443L89.3847 641.227L89.5994 641.013L89.8127 640.799L90.0245 640.587L90.2348 640.377L90.4437 640.168L90.6511 639.961L90.8571 639.755L91.0616 639.55L91.2646 639.347L91.4661 639.146L91.6662 638.946L91.8648 638.747L92.062 638.55L92.2576 638.354L92.4519 638.16L92.6446 637.967L92.8359 637.776L93.0257 637.586L93.2141 637.398L93.2141 637.398L93.3958 637.21L93.5659 637.023L93.7242 636.835L93.8708 636.647L94.0056 636.46L94.1287 636.272L94.2401 636.085L94.3398 635.897L94.4278 635.709L94.504 635.522L94.5685 635.334L94.6212 635.146L94.6623 634.959L94.6916 634.771L94.7092 634.584L94.7151 634.396L94.7092 634.208L94.6916 634.021L94.6623 633.833L94.6212 633.645L94.5685 633.458L94.504 633.27L94.4278 633.083L94.3398 632.895L94.2401 632.707L94.1287 632.52L94.0056 632.332L93.8708 632.144L93.7242 631.957L93.5659 631.769L93.3958 631.582L93.2141 631.394L93.2141 631.394L93.0257 631.206L92.8359 631.016L92.6446 630.825L92.4519 630.632L92.2576 630.438L92.062 630.242L91.8648 630.045L91.6662 629.846L91.4661 629.646L91.2646 629.444L91.0616 629.241L90.8571 629.037L90.6511 628.831L90.4437 628.624L90.2348 628.415L90.0245 628.204L89.8127 627.993L89.5994 627.779L89.3847 627.565L89.1685 627.348L88.9508 627.131L88.7317 626.912L88.5111 626.691L88.289 626.469L88.0655 626.245L87.8405 626.02L87.614 625.794L87.3861 625.566L87.1567 625.337L86.9258 625.106L86.6935 624.873L86.4597 624.64L86.4597 624.64L86.2266 624.407L85.9965 624.176L85.7693 623.949L85.545 623.725L85.3237 623.504L85.1053 623.285L84.8898 623.07L84.6773 622.857L84.4677 622.648L84.261 622.441L84.0572 622.237L83.8564 622.036L83.6586 621.838L83.4636 621.644L83.2716 621.451L83.0825 621.262L82.8963 621.076L82.7131 620.893L82.5328 620.713L82.3555 620.535L82.181 620.361L82.0095 620.189L81.841 620.021L81.6753 619.855L81.5126 619.693L81.3529 619.533L81.196 619.376L81.0421 619.222L80.8911 619.071L80.7431 618.923L80.598 618.778L80.4558 618.636L80.4558 618.636L80.3195 618.497L80.1919 618.363L80.0732 618.233L79.9633 618.108L79.8621 617.987L79.7698 617.871L79.6862 617.758L79.6115 617.651L79.5455 617.547L79.4884 617.448L79.44 617.354L79.4004 617.264L79.3696 617.178L79.3476 617.097L79.3345 617.02L79.3301 616.947L79.3345 616.879L79.3476 616.815L79.3696 616.756L79.4004 616.701L79.44 616.65L79.4884 616.604L79.5455 616.562L79.6115 616.525L79.6862 616.492L79.7698 616.463L79.8621 616.439L79.9633 616.419L80.0732 616.404L80.1919 616.393L80.3195 616.386L80.4558 616.384L80.4558 616.384L80.5965 616.384L80.7372 616.384L80.8779 616.384L81.0187 616.384L81.1594 616.384L81.3001 616.384L81.4408 616.384L81.5815 616.384L81.7222 616.384L81.863 616.384L82.0037 616.384L82.1444 616.384L82.2851 616.384L82.4258 616.384L82.5665 616.384L82.7072 616.384L82.848 616.384L82.9887 616.384L83.1294 616.384L83.2701 616.384L83.4108 616.384L83.5515 616.384L83.6923 616.384L83.833 616.384L83.9737 616.384L84.1144 616.384L84.2551 616.384L84.3958 616.384L84.5366 616.384L84.6773 616.384L84.818 616.384L84.9587 616.384L84.9587 616.384L85.0987 616.384L85.2372 616.384L85.3743 616.384L85.5099 616.384L85.644 616.384L85.7766 616.384L85.9078 616.384L86.0375 616.384L86.1658 616.384L86.2926 616.384L86.4179 616.384L86.5418 616.384L86.6642 616.384L86.7851 616.384L86.9046 616.384L87.0226 616.384L87.1391 616.384L87.2542 616.384L87.3677 616.384L87.4799 616.384L87.5906 616.384L87.6998 616.384L87.8075 616.384L87.9138 616.384L88.0186 616.384L88.1219 616.384L88.2238 616.384L88.3242 616.384L88.4231 616.384L88.5206 616.384L88.6166 616.384L88.7112 616.384L88.7112 616.384L88.805 616.386L88.8988 616.39L88.9926 616.397L89.0864 616.408L89.1802 616.421L89.274 616.437L89.3678 616.456L89.4616 616.478L89.5555 616.503L89.6493 616.531L89.7431 616.562L89.8369 616.595L89.9307 616.632L90.0245 616.672L90.1183 616.714L90.2121 616.759L90.3059 616.808L90.3998 616.859L90.4936 616.913L90.5874 616.971L90.6812 617.031L90.775 617.094L90.8688 617.16L90.9626 617.229L91.0564 617.3L91.1502 617.375L91.244 617.453L91.3379 617.533L91.4317 617.617L91.5255 617.703L91.6193 617.793L91.7131 617.885L91.7131 617.885L91.8069 617.979L91.9007 618.073L91.9945 618.167L92.0883 618.26L92.1822 618.354L92.276 618.448L92.3698 618.542L92.4636 618.636L92.5574 618.73L92.6512 618.823L92.745 618.917L92.8388 619.011L92.9326 619.105L93.0265 619.199L93.1203 619.292L93.2141 619.386L93.3079 619.48L93.4017 619.574L93.4955 619.668L93.5893 619.761L93.6831 619.855L93.7769 619.949L93.8708 620.043L93.9646 620.137L94.0584 620.23L94.1522 620.324L94.246 620.418L94.3398 620.512L94.4336 620.606L94.5274 620.7L94.6212 620.793L94.7151 620.887L94.7151 620.887L94.8103 620.982L94.9085 621.081L95.0097 621.182L95.1138 621.286L95.2208 621.393L95.3307 621.503L95.4436 621.616L95.5594 621.731L95.6781 621.85L95.7997 621.972L95.9243 622.096L96.0519 622.224L96.1823 622.354L96.3157 622.488L96.452 622.624L96.5913 622.763L96.7335 622.906L96.8786 623.051L97.0266 623.199L97.1776 623.35L97.3315 623.504L97.4883 623.66L97.6481 623.82L97.8108 623.983L97.9765 624.149L98.145 624.317L98.3165 624.489L98.4909 624.663L98.6683 624.84L98.8486 625.021L99.0318 625.204L99.218 625.39L99.218 625.39L99.4056 625.572L99.5932 625.742L99.7808 625.9L99.9685 626.047L100.156 626.182L100.344 626.305L100.531 626.416L100.719 626.516L100.907 626.604L101.094 626.68L101.282 626.744L101.469 626.797L101.657 626.838L101.845 626.868L102.032 626.885L102.22 626.891L102.408 626.885L102.595 626.868L102.783 626.838L102.97 626.797L103.158 626.744L103.346 626.68L103.533 626.604L103.721 626.516L103.909 626.416L104.096 626.305L104.284 626.182L104.471 626.047L104.659 625.9L104.847 625.742L105.034 625.572L105.222 625.39L105.222 625.39L105.408 625.204L105.591 625.021L105.772 624.84L105.949 624.663L106.123 624.489L106.295 624.317L106.463 624.149L106.629 623.983L106.792 623.82L106.952 623.66L107.108 623.504L107.262 623.35L107.413 623.199L107.561 623.051L107.706 622.906L107.849 622.763L107.988 622.624L108.124 622.488L108.258 622.354L108.388 622.224L108.516 622.096L108.64 621.972L108.762 621.85L108.881 621.731L108.996 621.616L109.109 621.503L109.219 621.393L109.326 621.286L109.43 621.182L109.531 621.081L109.63 620.982L109.725 620.887L109.725 620.887L109.819 620.793L109.912 620.7L110.006 620.606L110.1 620.512L110.194 620.418L110.288 620.324L110.381 620.23L110.475 620.137L110.569 620.043L110.663 619.949L110.757 619.855L110.851 619.761L110.944 619.668L111.038 619.574L111.132 619.48L111.226 619.386L111.32 619.292L111.413 619.199L111.507 619.105L111.601 619.011L111.695 618.917L111.789 618.823L111.882 618.73L111.976 618.636L112.07 618.542L112.164 618.448L112.258 618.354L112.352 618.26L112.445 618.167L112.539 618.073L112.633 617.979L112.727 617.885L112.727 617.885L112.821 617.793L112.914 617.703L113.008 617.617L113.102 617.533L113.196 617.453L113.29 617.375L113.383 617.3L113.477 617.229L113.571 617.16L113.665 617.094L113.759 617.031L113.852 616.971L113.946 616.913L114.04 616.859L114.134 616.808L114.228 616.759L114.322 616.714L114.415 616.672L114.509 616.632L114.603 616.595L114.697 616.562L114.791 616.531L114.884 616.503L114.978 616.478L115.072 616.456L115.166 616.437L115.26 616.421L115.353 616.408L115.447 616.397L115.541 616.39L115.635 616.386L115.729 616.384L115.729 616.384L115.823 616.384L115.919 616.384L116.017 616.384L116.116 616.384L116.216 616.384L116.318 616.384L116.421 616.384L116.526 616.384L116.632 616.384L116.74 616.384L116.849 616.384L116.96 616.384L117.072 616.384L117.186 616.384L117.301 616.384L117.417 616.384L117.535 616.384L117.655 616.384L117.776 616.384L117.898 616.384L118.022 616.384L118.147 616.384L118.274 616.384L118.402 616.384L118.532 616.384L118.663 616.384L118.796 616.384L118.93 616.384L119.066 616.384L119.203 616.384L119.341 616.384L119.481 616.384L119.481 616.384L119.622 616.384L119.763 616.384L119.903 616.384L120.044 616.384L120.185 616.384L120.325 616.384L120.466 616.384L120.607 616.384L120.748 616.384L120.888 616.384L121.029 616.384L121.17 616.384L121.31 616.384L121.451 616.384L121.592 616.384L121.733 616.384L121.873 616.384L122.014 616.384L122.155 616.384L122.295 616.384L122.436 616.384L122.577 616.384L122.718 616.384L122.858 616.384L122.999 616.384L123.14 616.384L123.281 616.384L123.421 616.384L123.562 616.384L123.703 616.384L123.843 616.384L123.984 616.384L123.984 616.384L124.12 616.386L124.248 616.393L124.367 616.404L124.477 616.419L124.578 616.439L124.67 616.463L124.754 616.492L124.828 616.525L124.894 616.562L124.952 616.604L125 616.65L125.039 616.701L125.07 616.756L125.092 616.815L125.105 616.879L125.11 616.947L125.105 617.02L125.092 617.097L125.07 617.178L125.039 617.264L125 617.354L124.952 617.448L124.894 617.547L124.828 617.651L124.754 617.758L124.67 617.871L124.578 617.987L124.477 618.108L124.367 618.233L124.248 618.363L124.12 618.497L123.984 618.636L123.984 618.636L123.841 618.779L123.694 618.926L123.542 619.078L123.386 619.234L123.226 619.394L123.061 619.559L122.891 619.728L122.718 619.902L122.54 620.08L122.357 620.263L122.17 620.45L121.979 620.641L121.783 620.837L121.583 621.037L121.379 621.241L121.17 621.45L120.956 621.663L120.739 621.881L120.517 622.103L120.29 622.33L120.059 622.56L119.824 622.796L119.584 623.035L119.34 623.279L119.092 623.528L118.839 623.781L118.582 624.038L118.32 624.3L118.054 624.566L117.784 624.836L117.509 625.111L117.23 625.39"/>
<path class="l5" d="M560.018 506.813L563.02 506.813L563.02 509.815L560.018 509.815L560.018 506.813z"/>
<path class="l5" d="M584.033 488.801L587.035 488.801L587.035 491.803L584.033 491.803L584.033 488.801z"/>
<path class="l5" d="M560.018 470.79L563.02 470.79L563.02 473.792L560.018 473.792L560.018 470.79z"/>
<path class="l5" d="M704.111 506.813L707.113 506.813L707.113 509.815L704.111 509.815L704.111 506.813z"/>
<path class="l5" d="M680.096 488.801L683.098 488.801L683.098 491.803L680.096 491.803L680.096 488.801z"/>
<path class="l5" d="M704.111 470.79L707.113 470.79L707.113 473.792L704.111 473.792L704.111 470.79z"/>
<path class="l5" d="M560.018 410.751L563.02 410.751L563.02 413.752L560.018 413.752L560.018 410.751z"/>
<path class="l5" d="M560.018 446.774L563.02 446.774L563.02 449.776L560.018 449.776L560.018 446.774z"/>
<path class="l5" d="M884.228 308.684L887.23 308.684L887.23 311.686L884.228 311.686L884.228 308.684z"/>
<path class="l5" d="M884.228 344.708L887.23 344.708L887.23 347.71L884.228 347.71L884.228 344.708z"/>
<path class="l5" d="M704.862 399.493L706.363 399.493L706.363 400.994L704.862 400.994L704.862 399.493z"/>
<path class="l5" d="M704.862 459.532L706.363 459.532L706.363 461.033L704.862 461.033L704.862 459.532z"/>
<path class="l5" d="M415.924 218.626L418.926 218.626L418.926 221.628L415.924 221.628L415.924 218.626z"/>
<path class="l5" d="M355.885 266.657L358.887 266.657L358.887 269.659L355.885 269.659L355.885 266.657z"/>
<path class="l5" d="M463.955 248.645L466.957 248.645L466.957 251.647L463.955 251.647L463.955 248.645z"/>
<path class="l5" d="M463.955 284.669L466.957 284.669L466.957 287.671L463.955 287.671L463.955 284.669z"/>
<path class="l5" d="M391.908 218.626L394.91 218.626L394.91 221.628L391.908 221.628L391.908 218.626z"/>
<path class="l5" d="M391.908 314.688L394.91 314.688L394.91 317.69L391.908 317.69L391.908 314.688z"/>
<path class="l5" d="M415.924 314.688L418.926 314.688L418.926 317.69L415.924 317.69L415.924 314.688z"/>
<path class="l5" d="M396.411 128.567L393.409 130.068L396.411 131.569L396.411 128.567"/>
<path class="l5" d="M391.908 146.579L394.91 146.579L394.91 149.581L391.908 149.581L391.908 146.579z"/>
<path class="l5" d="M415.924 128.567L418.926 128.567L418.926 131.569L415.924 131.569L415.924 128.567z"/>
<path class="l5" d="M391.908 110.555L394.91 110.555L394.91 113.557L391.908 113.557L391.908 110.555z"/>
<path class="l5" d="M393.362 130.021L393.456 130.021L393.456 130.115L393.362 130.115L393.362 130.021z"/>
<path class="l5" d="M560.018 338.704L563.02 338.704L563.02 341.706L560.018 341.706L560.018 338.704z"/>
<path class="l5" d="M560.018 374.727L563.02 374.727L563.02 377.729L560.018 377.729L560.018 374.727z"/>
<path class="l5" d="M704.111 338.704L707.113 338.704L707.113 341.706L704.111 341.706L704.111 338.704z"/>
<path class="l5" d="M704.111 374.727L707.113 374.727L707.113 377.729L704.111 377.729L704.111 374.727z"/>
<path class="l5" d="M494.725 387.485L496.226 387.485L496.226 388.986L494.725 388.986L494.725 387.485z"/>
<path class="l5" d="M564.52 128.567L561.519 130.068L564.52 131.569L564.52 128.567"/>
<path class="l5" d="M560.018 146.579L563.02 146.579L563.02 149.581L560.018 149.581L560.018 146.579z"/>
<path class="l5" d="M584.033 128.567L587.035 128.567L587.035 131.569L584.033 131.569L584.033 128.567z"/>
<path class="l5" d="M560.018 110.555L563.02 110.555L563.02 113.557L560.018 113.557L560.018 110.555z"/>
<path class="l5" d="M561.472 130.021L561.565 130.021L561.565 130.115L561.472 130.115L561.472 130.021z"/>
<path class="l5" d="M702.61 128.567L705.612 130.068L702.61 131.569L702.61 128.567"/>
<path class="l5" d="M704.111 146.579L707.113 146.579L707.113 149.581L704.111 149.581L704.111 146.579z"/>
<path class="l5" d="M680.096 128.567L683.098 128.567L683.098 131.569L680.096 131.569L680.096 128.567z"/>
<path class="l5" d="M704.111 110.555L707.113 110.555L707.113 113.557L704.111 113.557L704.111 110.555z"/>
<path class="l5" d="M705.565 130.021L705.659 130.021L705.659 130.115L705.565 130.115L705.565 130.021z"/>
<path class="l5" d="M882.727 128.567L885.729 130.068L882.727 131.569L882.727 128.567"/>
<path class="l5" d="M884.228 146.579L887.23 146.579L887.23 149.581L884.228 149.581L884.228 146.579z"/>
<path class="l5" d="M860.213 128.567L863.215 128.567L863.215 131.569L860.213 131.569L860.213 128.567z"/>
<path class="l5" d="M884.228 110.555L887.23 110.555L887.23 113.557L884.228 113.557L884.228 110.555z"/>
<path class="l5" d="M885.682 130.021L885.776 130.021L885.776 130.115L885.682 130.115L885.682 130.021z"/>
<path class="l5" d="M320.612 207.368L322.113 207.368L322.113 208.869L320.612 208.869L320.612 207.368z"/>
<path class="l5" d="M321.362 461.784L318.36 460.283L321.362 458.782L321.362 461.784"/>
<path class="l5" d="M319.861 440.77L322.863 440.77L322.863 443.772L319.861 443.772L319.861 440.77z"/>
<path class="l5" d="M295.846 458.782L298.848 458.782L298.848 461.784L295.846 461.784L295.846 458.782z"/>
<path class="l5" d="M319.861 476.793L322.863 476.793L322.863 479.795L319.861 479.795L319.861 476.793z"/>
<path class="l5" d="M321.316 460.236L321.409 460.236L321.409 460.33L321.316 460.33L321.316 460.236z"/>
<path class="l5" d="M213.292 491.803L210.29 490.302L213.292 488.801L213.292 491.803"/>
<path class="l5" d="M211.791 470.79L214.793 470.79L214.793 473.792L211.791 473.792L211.791 470.79z"/>
<path class="l5" d="M187.776 488.801L190.778 488.801L190.778 491.803L187.776 491.803L187.776 488.801z"/>
<path class="l5" d="M211.791 506.813L214.793 506.813L214.793 509.815L211.791 509.815L211.791 506.813z"/>
<path class="l5" d="M213.245 490.255L213.339 490.255L213.339 490.349L213.245 490.349L213.245 490.255z"/>
<path class="l5" d="M210.29 428.762L213.292 430.263L210.29 431.764L210.29 428.762"/>
<path class="l5" d="M211.791 446.774L214.793 446.774L214.793 449.776L211.791 449.776L211.791 446.774z"/>
<path class="l5" d="M187.776 428.762L190.778 428.762L190.778 431.764L187.776 431.764L187.776 428.762z"/>
<path class="l5" d="M211.791 410.751L214.793 410.751L214.793 413.752L211.791 413.752L211.791 410.751z"/>
<path class="l5" d="M213.245 430.216L213.339 430.216L213.339 430.31L213.245 430.31L213.245 430.216z"/>
<path class="l5" d="M286.84 67.0271L285.339 64.0251L283.838 67.0271L286.84 67.0271"/>
<path class="l5" d="M265.826 62.5242L268.828 62.5242L268.828 65.5261L265.826 65.5261L265.826 62.5242z"/>
<path class="l5" d="M283.838 86.5398L286.84 86.5398L286.84 89.5417L283.838 89.5417L283.838 86.5398z"/>
<path class="l5" d="M301.85 62.5242L304.852 62.5242L304.852 65.5261L301.85 65.5261L301.85 62.5242z"/>
<path class="l5" d="M285.292 63.9782L285.386 63.9782L285.386 64.072L285.292 64.072L285.292 63.9782z"/>
<path class="l5" d="M635.066 472.291L633.565 469.289L632.064 472.291L635.066 472.291"/>
<path class="l5" d="M614.053 470.79L617.055 470.79L617.055 473.792L614.053 473.792L614.053 470.79z"/>
<path class="l5" d="M632.064 446.774L635.066 446.774L635.066 449.776L632.064 449.776L632.064 446.774z"/>
<path class="l5" d="M650.076 470.79L653.078 470.79L653.078 473.792L650.076 473.792L650.076 470.79z"/>
<path class="l5" d="M633.518 472.244L633.612 472.244L633.612 472.337L633.518 472.337L633.518 472.244z"/>
<path class="l5" d="M248.565 459.532L250.066 459.532L250.066 461.033L248.565 461.033L248.565 459.532z"/>
<path class="l5" d="M704.111 410.751L707.113 410.751L707.113 413.752L704.111 413.752L704.111 410.751z"/>
<path class="l5" d="M704.111 446.774L707.113 446.774L707.113 449.776L704.111 449.776L704.111 446.774z"/>
<path class="l5" d="M722.123 428.762L725.125 428.762L725.125 431.764L722.123 431.764L722.123 428.762z"/>
<path class="l5" d="M800.174 410.751L803.176 410.751L803.176 413.752L800.174 413.752L800.174 410.751z"/>
<path class="l5" d="M800.174 446.774L803.176 446.774L803.176 449.776L800.174 449.776L800.174 446.774z"/>
<path class="l5" d="M782.162 428.762L785.164 428.762L785.164 431.764L782.162 431.764L782.162 428.762z"/>
<path class="l5" d="M800.174 458.782L803.176 458.782L803.176 461.784L800.174 461.784L800.174 458.782z"/>
<path class="l5" d="M800.174 494.805L803.176 494.805L803.176 497.807L800.174 497.807L800.174 494.805z"/>
<path class="l5" d="M782.162 476.793L785.164 476.793L785.164 479.795L782.162 479.795L782.162 476.793z"/>
<path class="l5" d="M493.975 410.751L496.977 410.751L496.977 413.752L493.975 413.752L493.975 410.751z"/>
<path class="l5" d="M493.975 446.774L496.977 446.774L496.977 449.776L493.975 449.776L493.975 446.774z"/>
<path class="l5" d="M511.986 428.762L514.988 428.762L514.988 431.764L511.986 431.764L511.986 428.762z"/>
<path class="l5" d="M493.975 458.782L496.977 458.782L496.977 461.784L493.975 461.784L493.975 458.782z"/>
<path class="l5" d="M493.975 494.805L496.977 494.805L496.977 497.807L493.975 497.807L493.975 494.805z"/>
<path class="l5" d="M511.986 476.793L514.988 476.793L514.988 479.795L511.986 479.795L511.986 476.793z"/>
<path class="l5" d="M884.228 434.766L887.23 434.766L887.23 437.768L884.228 437.768L884.228 434.766z"/>
<path class="l5" d="M884.228 470.79L887.23 470.79L887.23 473.792L884.228 473.792L884.228 470.79z"/>
<path class="l5" d="M902.24 452.778L905.242 452.778L905.242 455.78L902.24 455.78L902.24 452.778z"/>
<path class="l5" d="M882.727 68.5281L885.729 70.029L882.727 71.53L882.727 68.5281"/>
<path class="l5" d="M884.228 86.5398L887.23 86.5398L887.23 89.5417L884.228 89.5417L884.228 86.5398z"/>
<path class="l5" d="M860.213 68.5281L863.215 68.5281L863.215 71.53L860.213 71.53L860.213 68.5281z"/>
<path class="l5" d="M884.228 50.5163L887.23 50.5163L887.23 53.5183L884.228 53.5183L884.228 50.5163z"/>
<path class="l5" d="M885.682 69.9821L885.776 69.9821L885.776 70.0759L885.682 70.0759L885.682 69.9821z"/>
<path class="l5" d="M702.61 68.5281L705.612 70.029L702.61 71.53L702.61 68.5281"/>
<path class="l5" d="M704.111 86.5398L707.113 86.5398L707.113 89.5417L704.111 89.5417L704.111 86.5398z"/>
<path class="l5" d="M680.096 68.5281L683.098 68.5281L683.098 71.53L680.096 71.53L680.096 68.5281z"/>
<path class="l5" d="M704.111 50.5163L707.113 50.5163L707.113 53.5183L704.111 53.5183L704.111 50.5163z"/>
<path class="l5" d="M705.565 69.9821L705.659 69.9821L705.659 70.0759L705.565 70.0759L705.565 69.9821z"/>
<path class="l5" d="M564.52 68.5281L561.519 70.029L564.52 71.53L564.52 68.5281"/>
<path class="l5" d="M560.018 86.5398L563.02 86.5398L563.02 89.5417L560.018 89.5417L560.018 86.5398z"/>
<path class="l5" d="M584.033 68.5281L587.035 68.5281L587.035 71.53L584.033 71.53L584.033 68.5281z"/>
<path class="l5" d="M560.018 50.5163L563.02 50.5163L563.02 53.5183L560.018 53.5183L560.018 50.5163z"/>
<path class="l5" d="M561.472 69.9821L561.565 69.9821L561.565 70.0759L561.472 70.0759L561.472 69.9821z"/>
<path class="l5" d="M396.411 68.5281L393.409 70.029L396.411 71.53L396.411 68.5281"/>
<path class="l5" d="M391.908 86.5398L394.91 86.5398L394.91 89.5417L391.908 89.5417L391.908 86.5398z"/>
<path class="l5" d="M415.924 68.5281L418.926 68.5281L418.926 71.53L415.924 71.53L415.924 68.5281z"/>
<path class="l5" d="M391.908 50.5163L394.91 50.5163L394.91 53.5183L391.908 53.5183L391.908 50.5163z"/>
<path class="l5" d="M393.362 69.9821L393.456 69.9821L393.456 70.0759L393.362 70.0759L393.362 69.9821z"/>
<path class="l5" d="M103.346 28.0017L105.222 28.0017"/>
<path class="l5" d="M96.9665 31.0037L94.7151 28.0017L96.9665 24.9998L101.094 24.9998L103.346 28.0017L101.094 31.0037L96.9665 31.0037"/>
<path class="l5" d="M104.471 27.2512L105.972 27.2512L105.972 28.7522L104.471 28.7522L104.471 27.2512z"/>
<path class="l5" d="M103.346 532.33L105.222 532.33"/>
<path class="l5" d="M96.9665 535.332L94.7151 532.33L96.9665 529.328L101.094 529.328L103.346 532.33L101.094 535.332L96.9665 535.332"/>
<path class="l5" d="M104.471 531.579L105.972 531.579L105.972 533.08L104.471 533.08L104.471 531.579z"/>
<path class="l5" d="M102.22 340.205L105.222 340.205"/>
<path class="l5" d="M102.22 340.205L99.9685 337.203L94.7151 337.203L96.9665 340.205L94.7151 343.207L99.9685 343.207L102.22 340.205"/>
<path class="l5" d="M104.471 339.454L105.972 339.454L105.972 340.955L104.471 340.955L104.471 339.454z"/>
<path class="l5" d="M981.792 364.22L987.045 364.22"/>
<path class="l5" d="M992.299 364.22L990.047 361.218L984.794 361.218L987.045 364.22L984.794 367.222L990.047 367.222L992.299 364.22"/>
<path class="l5" d="M981.041 363.47L982.542 363.47L982.542 364.971L981.041 364.971L981.041 363.47z"/>
<path class="l6" d="M258.321 634.396L735.632 634.396"/>
<path class="l6" d="M27.1711 634.396L66.1965 634.396"/>
<text fill="#222222"  xml:space="preserve" font-size="12.4881" transform="translate(264.325, 648.737)" >         bandgap_banba.sch</text>
<text fill="#222222"  xml:space="preserve" font-size="12.4881" transform="translate(264.325, 630.725)" >(c) 2025 Harald Pretl, Apache-2.0 license</text>
<text fill="#222222"  xml:space="preserve" font-size="12.4881" transform="translate(597.632, 630.725)" >2026-06-12  23:03:12</text>
<text fill="#222222"  xml:space="preserve" font-size="31.2203" transform="translate(126.236, 647.734)" >SCHEM</text>
<text fill="#222222"  xml:space="preserve" font-size="6.24406" transform="translate(534.018, 504.978)" >pnpMPA</text>
<text fill="#222222"  xml:space="preserve" font-size="6.24406" transform="translate(551.018, 480.212)" >Q1</text>
<text fill="#ff0000"  xml:space="preserve" font-size="4.68304" transform="translate(564.522, 473.166)" >e</text>
<text fill="#ff0000"  xml:space="preserve" font-size="4.68304" transform="translate(564.522, 510.69)" >c</text>
<text fill="#ff0000"  xml:space="preserve" font-size="4.68304" transform="translate(579.905, 488.175)" >b</text>
<text fill="#666600"  xml:space="preserve" font-size="6.24406" transform="translate(530.018, 489.968)" >w=1.0e-6</text>
<text fill="#666600"  xml:space="preserve" font-size="6.24406" transform="translate(533.018, 497.473)" >l=2.0e-6</text>
<text fill="#222222"  xml:space="preserve" font-size="6.24406" transform="translate(707.113, 504.978)" >pnpMPA</text>
<text fill="#222222"  xml:space="preserve" font-size="6.24406" transform="translate(707.113, 480.212)" >Q2</text>
<text fill="#ff0000"  xml:space="preserve" font-size="4.68304" transform="translate(699.608, 473.166)" >e</text>
<text fill="#ff0000"  xml:space="preserve" font-size="4.68304" transform="translate(699.608, 510.69)" >c</text>
<text fill="#ff0000"  xml:space="preserve" font-size="4.68304" transform="translate(684.225, 488.175)" >b</text>
<text fill="#666600"  xml:space="preserve" font-size="6.24406" transform="translate(707.113, 489.968)" >w=1.0e-6</text>
<text fill="#666600"  xml:space="preserve" font-size="6.24406" transform="translate(707.113, 497.473)" >l=2.0e-6</text>
<text fill="#222222"  xml:space="preserve" font-size="6.24406" transform="translate(570.524, 424.676)" >Vmeas</text>
<text fill="#222222"  xml:space="preserve" font-size="6.24406" transform="translate(894.735, 322.609)" >Vmeas1</text>
<text fill="#0099cc"  xml:space="preserve" font-size="10.3027" transform="translate(688.109, 404.72)" >v2</text>
<text fill="#0099cc"  xml:space="preserve" font-size="10.3027" transform="translate(688.109, 464.759)" >v3</text>
<text fill="#222222"  xml:space="preserve" font-size="6.24406" transform="translate(425.442, 270.225)" >ota-5t</text>
<text fill="#222222"  xml:space="preserve" font-size="6.24406" transform="translate(340.384, 218.592)" >xota</text>
<text fill="#222222"  xml:space="preserve" font-size="6.24406" transform="translate(420.693, 235.136) rotate(270)" >vdd</text>
<text fill="#222222"  xml:space="preserve" font-size="6.24406" transform="translate(384.403, 271.426)" >vout</text>
<text fill="#222222"  xml:space="preserve" font-size="6.24406" transform="translate(436.446, 253.414)" >vinp</text>
<text fill="#222222"  xml:space="preserve" font-size="6.24406" transform="translate(436.446, 289.438)" >vinn</text>
<text fill="#222222"  xml:space="preserve" font-size="6.24406" transform="translate(396.677, 253.129) rotate(270)" >ibias_20u</text>
<text fill="#222222"  xml:space="preserve" font-size="6.24406" transform="translate(396.677, 314.175) rotate(270)" >d_ena</text>
<text fill="#222222"  xml:space="preserve" font-size="6.24406" transform="translate(420.693, 313.187) rotate(270)" >vss</text>
<text fill="#222222"  xml:space="preserve" font-size="6.24406" transform="translate(402.415, 117.726)" >M4</text>
<text fill="#ff0000"  xml:space="preserve" font-size="4.68304" transform="translate(411.421, 128.316)" >G</text>
<text fill="#222222"  xml:space="preserve" font-size="6.24406" transform="translate(343.405, 147.338)" >sg13_lv_pmos</text>
<text fill="#666600"  xml:space="preserve" font-size="6.24406" transform="translate(371.655, 139.49)" >m=1</text>
<text fill="#666600"  xml:space="preserve" font-size="6.24406" transform="translate(369.655, 134.237)" >ng=1</text>
<text fill="#666600"  xml:space="preserve" font-size="6.24406" transform="translate(371.655, 126.732)" >l=1u</text>
<text fill="#666600"  xml:space="preserve" font-size="6.24406" transform="translate(368.655, 119.977)" >w=5u</text>
<text fill="#ff0000"  xml:space="preserve" font-size="4.68304" transform="translate(387.908, 144.827)" >D</text>
<text fill="#ff0000"  xml:space="preserve" font-size="4.68304" transform="translate(388.908, 118.442)" >S</text>
<text fill="#ff0000"  xml:space="preserve" font-size="4.68304" transform="translate(390.409, 128.316)" >B</text>
<text fill="#222222"  xml:space="preserve" font-size="6.24406" transform="translate(570.524, 352.629)" >Vmeas2</text>
<text fill="#222222"  xml:space="preserve" font-size="6.24406" transform="translate(714.618, 352.629)" >Vmeas3</text>
<text fill="#0099cc"  xml:space="preserve" font-size="10.3027" transform="translate(477.973, 392.713)" >v1</text>
<text fill="#222222"  xml:space="preserve" font-size="6.24406" transform="translate(570.524, 117.726)" >M1</text>
<text fill="#ff0000"  xml:space="preserve" font-size="4.68304" transform="translate(579.53, 128.316)" >G</text>
<text fill="#222222"  xml:space="preserve" font-size="6.24406" transform="translate(511.515, 147.338)" >sg13_lv_pmos</text>
<text fill="#666600"  xml:space="preserve" font-size="6.24406" transform="translate(539.764, 139.49)" >m=1</text>
<text fill="#666600"  xml:space="preserve" font-size="6.24406" transform="translate(537.764, 134.237)" >ng=1</text>
<text fill="#666600"  xml:space="preserve" font-size="6.24406" transform="translate(539.764, 126.732)" >l=1u</text>
<text fill="#666600"  xml:space="preserve" font-size="6.24406" transform="translate(536.764, 119.977)" >w=5u</text>
<text fill="#ff0000"  xml:space="preserve" font-size="4.68304" transform="translate(556.018, 144.827)" >D</text>
<text fill="#ff0000"  xml:space="preserve" font-size="4.68304" transform="translate(557.018, 118.442)" >S</text>
<text fill="#ff0000"  xml:space="preserve" font-size="4.68304" transform="translate(558.519, 128.316)" >B</text>
<text fill="#222222"  xml:space="preserve" font-size="6.24406" transform="translate(687.606, 117.726)" >M2</text>
<text fill="#ff0000"  xml:space="preserve" font-size="4.68304" transform="translate(683.601, 128.316)" >G</text>
<text fill="#222222"  xml:space="preserve" font-size="6.24406" transform="translate(711.616, 147.338)" >sg13_lv_pmos</text>
<text fill="#666600"  xml:space="preserve" font-size="6.24406" transform="translate(712.367, 139.49)" >m=1</text>
<text fill="#666600"  xml:space="preserve" font-size="6.24406" transform="translate(712.367, 134.237)" >ng=1</text>
<text fill="#666600"  xml:space="preserve" font-size="6.24406" transform="translate(712.367, 126.732)" >l=1u</text>
<text fill="#666600"  xml:space="preserve" font-size="6.24406" transform="translate(712.367, 119.977)" >w=5u</text>
<text fill="#ff0000"  xml:space="preserve" font-size="4.68304" transform="translate(707.113, 144.827)" >D</text>
<text fill="#ff0000"  xml:space="preserve" font-size="4.68304" transform="translate(707.113, 118.442)" >S</text>
<text fill="#ff0000"  xml:space="preserve" font-size="4.68304" transform="translate(705.612, 128.316)" >B</text>
<text fill="#222222"  xml:space="preserve" font-size="6.24406" transform="translate(867.723, 117.726)" >M3</text>
<text fill="#ff0000"  xml:space="preserve" font-size="4.68304" transform="translate(863.718, 128.316)" >G</text>
<text fill="#222222"  xml:space="preserve" font-size="6.24406" transform="translate(891.733, 147.338)" >sg13_lv_pmos</text>
<text fill="#666600"  xml:space="preserve" font-size="6.24406" transform="translate(892.484, 139.49)" >m=1</text>
<text fill="#666600"  xml:space="preserve" font-size="6.24406" transform="translate(892.484, 134.237)" >ng=1</text>
<text fill="#666600"  xml:space="preserve" font-size="6.24406" transform="translate(892.484, 126.732)" >l=1u</text>
<text fill="#666600"  xml:space="preserve" font-size="6.24406" transform="translate(892.484, 119.977)" >w=5u</text>
<text fill="#ff0000"  xml:space="preserve" font-size="4.68304" transform="translate(887.23, 144.827)" >D</text>
<text fill="#ff0000"  xml:space="preserve" font-size="4.68304" transform="translate(887.23, 118.442)" >S</text>
<text fill="#ff0000"  xml:space="preserve" font-size="4.68304" transform="translate(885.729, 128.316)" >B</text>
<text fill="#0099cc"  xml:space="preserve" font-size="10.3027" transform="translate(303.859, 212.595)" >vg</text>
<text fill="#222222"  xml:space="preserve" font-size="6.24406" transform="translate(303.357, 447.941)" >M5</text>
<text fill="#ff0000"  xml:space="preserve" font-size="4.68304" transform="translate(299.351, 458.531)" >G</text>
<text fill="#222222"  xml:space="preserve" font-size="6.24406" transform="translate(327.366, 477.553)" >sg13_lv_nmos</text>
<text fill="#666600"  xml:space="preserve" font-size="6.24406" transform="translate(328.117, 469.705)" >m=1</text>
<text fill="#666600"  xml:space="preserve" font-size="6.24406" transform="translate(328.117, 464.451)" >ng=1</text>
<text fill="#666600"  xml:space="preserve" font-size="6.24406" transform="translate(328.117, 456.947)" >l=0.13u</text>
<text fill="#666600"  xml:space="preserve" font-size="6.24406" transform="translate(328.117, 450.192)" >w=1u</text>
<text fill="#ff0000"  xml:space="preserve" font-size="4.68304" transform="translate(322.863, 475.042)" >S</text>
<text fill="#ff0000"  xml:space="preserve" font-size="4.68304" transform="translate(322.863, 448.657)" >D</text>
<text fill="#ff0000"  xml:space="preserve" font-size="4.68304" transform="translate(321.362, 458.531)" >B</text>
<text fill="#222222"  xml:space="preserve" font-size="6.24406" transform="translate(191.286, 477.96)" >M10</text>
<text fill="#ff0000"  xml:space="preserve" font-size="4.68304" transform="translate(191.28, 488.551)" >G</text>
<text fill="#222222"  xml:space="preserve" font-size="6.24406" transform="translate(219.296, 507.572)" >sg13_lv_nmos</text>
<text fill="#666600"  xml:space="preserve" font-size="6.24406" transform="translate(220.047, 499.724)" >m=1</text>
<text fill="#666600"  xml:space="preserve" font-size="6.24406" transform="translate(220.047, 494.471)" >ng=1</text>
<text fill="#666600"  xml:space="preserve" font-size="6.24406" transform="translate(220.047, 486.966)" >l=0.13u</text>
<text fill="#666600"  xml:space="preserve" font-size="6.24406" transform="translate(220.047, 480.212)" >w=1.0u</text>
<text fill="#ff0000"  xml:space="preserve" font-size="4.68304" transform="translate(214.793, 505.061)" >S</text>
<text fill="#ff0000"  xml:space="preserve" font-size="4.68304" transform="translate(214.793, 478.676)" >D</text>
<text fill="#ff0000"  xml:space="preserve" font-size="4.68304" transform="translate(213.292, 488.551)" >B</text>
<text fill="#222222"  xml:space="preserve" font-size="6.24406" transform="translate(191.286, 417.921)" >M11</text>
<text fill="#ff0000"  xml:space="preserve" font-size="4.68304" transform="translate(191.28, 428.512)" >G</text>
<text fill="#222222"  xml:space="preserve" font-size="6.24406" transform="translate(219.296, 447.533)" >sg13_lv_pmos</text>
<text fill="#666600"  xml:space="preserve" font-size="6.24406" transform="translate(220.047, 439.685)" >m=1</text>
<text fill="#666600"  xml:space="preserve" font-size="6.24406" transform="translate(220.047, 434.432)" >ng=1</text>
<text fill="#666600"  xml:space="preserve" font-size="6.24406" transform="translate(220.047, 426.927)" >l=0.13u</text>
<text fill="#666600"  xml:space="preserve" font-size="6.24406" transform="translate(220.047, 420.173)" >w=5u</text>
<text fill="#ff0000"  xml:space="preserve" font-size="4.68304" transform="translate(214.793, 445.022)" >D</text>
<text fill="#ff0000"  xml:space="preserve" font-size="4.68304" transform="translate(214.793, 418.637)" >S</text>
<text fill="#ff0000"  xml:space="preserve" font-size="4.68304" transform="translate(213.292, 428.512)" >B</text>
<text fill="#222222"  xml:space="preserve" font-size="6.24406" transform="translate(301.858, 95.031) rotate(270)" >Mstab2</text>
<text fill="#ff0000"  xml:space="preserve" font-size="4.68304" transform="translate(290.224, 86.0368) rotate(270)" >G</text>
<text fill="#222222"  xml:space="preserve" font-size="6.24406" transform="translate(272.246, 58.0212) rotate(270)" >sg13_lv_pmos</text>
<text fill="#666600"  xml:space="preserve" font-size="6.24406" transform="translate(280.094, 57.2707) rotate(270)" >m=1</text>
<text fill="#666600"  xml:space="preserve" font-size="6.24406" transform="translate(285.348, 57.2707) rotate(270)" >ng=60</text>
<text fill="#666600"  xml:space="preserve" font-size="6.24406" transform="translate(292.853, 57.2707) rotate(270)" >l=1u</text>
<text fill="#666600"  xml:space="preserve" font-size="6.24406" transform="translate(299.607, 57.2707) rotate(270)" >w=300u</text>
<text fill="#ff0000"  xml:space="preserve" font-size="4.68304" transform="translate(273.713, 62.5242) rotate(270)" >D</text>
<text fill="#ff0000"  xml:space="preserve" font-size="4.68304" transform="translate(300.098, 62.5242) rotate(270)" >S</text>
<text fill="#ff0000"  xml:space="preserve" font-size="4.68304" transform="translate(290.224, 64.0251) rotate(270)" >B</text>
<text fill="#222222"  xml:space="preserve" font-size="6.24406" transform="translate(621.223, 463.285) rotate(270)" >Mstab1</text>
<text fill="#ff0000"  xml:space="preserve" font-size="4.68304" transform="translate(631.814, 454.279) rotate(270)" >G</text>
<text fill="#222222"  xml:space="preserve" font-size="6.24406" transform="translate(650.835, 522.294) rotate(270)" >sg13_lv_nmos</text>
<text fill="#666600"  xml:space="preserve" font-size="6.24406" transform="translate(642.987, 494.045) rotate(270)" >m=1</text>
<text fill="#666600"  xml:space="preserve" font-size="6.24406" transform="translate(637.734, 500.045) rotate(270)" >ng=60</text>
<text fill="#666600"  xml:space="preserve" font-size="6.24406" transform="translate(630.229, 494.045) rotate(270)" >l=1u</text>
<text fill="#666600"  xml:space="preserve" font-size="6.24406" transform="translate(623.475, 505.045) rotate(270)" >w=300u</text>
<text fill="#ff0000"  xml:space="preserve" font-size="4.68304" transform="translate(648.324, 476.792) rotate(270)" >S</text>
<text fill="#ff0000"  xml:space="preserve" font-size="4.68304" transform="translate(621.939, 477.792) rotate(270)" >D</text>
<text fill="#ff0000"  xml:space="preserve" font-size="4.68304" transform="translate(631.814, 475.291) rotate(270)" >B</text>
<text fill="#0099cc"  xml:space="preserve" font-size="8.42948" transform="translate(223.815, 457.518)" >ena_n</text>
<text fill="#222222"  xml:space="preserve" font-size="6.24406" transform="translate(618.006, 435.332)" >bandgap_banba_res-13k</text>
<text fill="#222222"  xml:space="preserve" font-size="6.24406" transform="translate(685.606, 425.726)" >xr1</text>
<text fill="#222222"  xml:space="preserve" font-size="6.24406" transform="translate(693.604, 415.52)" >rp</text>
<text fill="#222222"  xml:space="preserve" font-size="6.24406" transform="translate(693.604, 445.539)" >rn</text>
<text fill="#222222"  xml:space="preserve" font-size="6.24406" transform="translate(720.622, 424.525)" >bn</text>
<text fill="#222222"  xml:space="preserve" font-size="6.24406" transform="translate(811.281, 435.332)" >bandgap_banba_res-40k</text>
<text fill="#222222"  xml:space="preserve" font-size="6.24406" transform="translate(810.681, 425.726)" >xr2a</text>
<text fill="#222222"  xml:space="preserve" font-size="6.24406" transform="translate(806.682, 415.52)" >rp</text>
<text fill="#222222"  xml:space="preserve" font-size="6.24406" transform="translate(806.682, 445.539)" >rn</text>
<text fill="#222222"  xml:space="preserve" font-size="6.24406" transform="translate(778.665, 424.525)" >bn</text>
<text fill="#222222"  xml:space="preserve" font-size="6.24406" transform="translate(811.281, 483.364)" >bandgap_banba_res-40k</text>
<text fill="#222222"  xml:space="preserve" font-size="6.24406" transform="translate(810.681, 473.757)" >xr2b</text>
<text fill="#222222"  xml:space="preserve" font-size="6.24406" transform="translate(806.682, 463.551)" >rp</text>
<text fill="#222222"  xml:space="preserve" font-size="6.24406" transform="translate(806.682, 493.57)" >rn</text>
<text fill="#222222"  xml:space="preserve" font-size="6.24406" transform="translate(778.665, 472.557)" >bn</text>
<text fill="#222222"  xml:space="preserve" font-size="6.24406" transform="translate(407.869, 435.332)" >bandgap_banba_res-40k</text>
<text fill="#222222"  xml:space="preserve" font-size="6.24406" transform="translate(471.47, 425.726)" >xr3a</text>
<text fill="#222222"  xml:space="preserve" font-size="6.24406" transform="translate(483.468, 415.52)" >rp</text>
<text fill="#222222"  xml:space="preserve" font-size="6.24406" transform="translate(483.468, 445.539)" >rn</text>
<text fill="#222222"  xml:space="preserve" font-size="6.24406" transform="translate(510.485, 424.525)" >bn</text>
<text fill="#222222"  xml:space="preserve" font-size="6.24406" transform="translate(407.869, 483.364)" >bandgap_banba_res-40k</text>
<text fill="#222222"  xml:space="preserve" font-size="6.24406" transform="translate(471.47, 473.757)" >xr3b</text>
<text fill="#222222"  xml:space="preserve" font-size="6.24406" transform="translate(483.468, 463.551)" >rp</text>
<text fill="#222222"  xml:space="preserve" font-size="6.24406" transform="translate(483.468, 493.57)" >rn</text>
<text fill="#222222"  xml:space="preserve" font-size="6.24406" transform="translate(510.485, 472.557)" >bn</text>
<text fill="#222222"  xml:space="preserve" font-size="6.24406" transform="translate(798.123, 459.348)" >bandgap_banba_res-40k</text>
<text fill="#222222"  xml:space="preserve" font-size="6.24406" transform="translate(865.723, 449.742)" >xr4</text>
<text fill="#222222"  xml:space="preserve" font-size="6.24406" transform="translate(873.722, 439.535)" >rp</text>
<text fill="#222222"  xml:space="preserve" font-size="6.24406" transform="translate(873.722, 469.555)" >rn</text>
<text fill="#222222"  xml:space="preserve" font-size="6.24406" transform="translate(900.739, 448.541)" >bn</text>
<text fill="#222222"  xml:space="preserve" font-size="6.24406" transform="translate(859.723, 57.6869)" >M3sw</text>
<text fill="#ff0000"  xml:space="preserve" font-size="4.68304" transform="translate(863.718, 68.2773)" >G</text>
<text fill="#222222"  xml:space="preserve" font-size="6.24406" transform="translate(891.733, 87.2989)" >sg13_lv_pmos</text>
<text fill="#666600"  xml:space="preserve" font-size="6.24406" transform="translate(892.484, 79.4511)" >m=1</text>
<text fill="#666600"  xml:space="preserve" font-size="6.24406" transform="translate(892.484, 74.1977)" >ng=1</text>
<text fill="#666600"  xml:space="preserve" font-size="6.24406" transform="translate(892.484, 66.6928)" >l=0.13u</text>
<text fill="#666600"  xml:space="preserve" font-size="6.24406" transform="translate(892.484, 59.9384)" >w=5u</text>
<text fill="#ff0000"  xml:space="preserve" font-size="4.68304" transform="translate(887.23, 84.7881)" >D</text>
<text fill="#ff0000"  xml:space="preserve" font-size="4.68304" transform="translate(887.23, 58.403)" >S</text>
<text fill="#ff0000"  xml:space="preserve" font-size="4.68304" transform="translate(885.729, 68.2773)" >B</text>
<text fill="#222222"  xml:space="preserve" font-size="6.24406" transform="translate(679.606, 57.6869)" >M2sw</text>
<text fill="#ff0000"  xml:space="preserve" font-size="4.68304" transform="translate(683.601, 68.2773)" >G</text>
<text fill="#222222"  xml:space="preserve" font-size="6.24406" transform="translate(711.616, 87.2989)" >sg13_lv_pmos</text>
<text fill="#666600"  xml:space="preserve" font-size="6.24406" transform="translate(712.367, 79.4511)" >m=1</text>
<text fill="#666600"  xml:space="preserve" font-size="6.24406" transform="translate(712.367, 74.1977)" >ng=1</text>
<text fill="#666600"  xml:space="preserve" font-size="6.24406" transform="translate(712.367, 66.6928)" >l=0.13u</text>
<text fill="#666600"  xml:space="preserve" font-size="6.24406" transform="translate(712.367, 59.9384)" >w=5u</text>
<text fill="#ff0000"  xml:space="preserve" font-size="4.68304" transform="translate(707.113, 84.7881)" >D</text>
<text fill="#ff0000"  xml:space="preserve" font-size="4.68304" transform="translate(707.113, 58.403)" >S</text>
<text fill="#ff0000"  xml:space="preserve" font-size="4.68304" transform="translate(705.612, 68.2773)" >B</text>
<text fill="#222222"  xml:space="preserve" font-size="6.24406" transform="translate(570.524, 57.6869)" >M1sw</text>
<text fill="#ff0000"  xml:space="preserve" font-size="4.68304" transform="translate(579.53, 68.2773)" >G</text>
<text fill="#222222"  xml:space="preserve" font-size="6.24406" transform="translate(511.515, 87.2989)" >sg13_lv_pmos</text>
<text fill="#666600"  xml:space="preserve" font-size="6.24406" transform="translate(539.764, 79.4511)" >m=1</text>
<text fill="#666600"  xml:space="preserve" font-size="6.24406" transform="translate(537.764, 74.1977)" >ng=1</text>
<text fill="#666600"  xml:space="preserve" font-size="6.24406" transform="translate(529.764, 66.6928)" >l=0.13u</text>
<text fill="#666600"  xml:space="preserve" font-size="6.24406" transform="translate(536.764, 59.9384)" >w=5u</text>
<text fill="#ff0000"  xml:space="preserve" font-size="4.68304" transform="translate(556.018, 84.7881)" >D</text>
<text fill="#ff0000"  xml:space="preserve" font-size="4.68304" transform="translate(557.018, 58.403)" >S</text>
<text fill="#ff0000"  xml:space="preserve" font-size="4.68304" transform="translate(558.519, 68.2773)" >B</text>
<text fill="#222222"  xml:space="preserve" font-size="6.24406" transform="translate(402.415, 57.6869)" >M4sw</text>
<text fill="#ff0000"  xml:space="preserve" font-size="4.68304" transform="translate(411.421, 68.2773)" >G</text>
<text fill="#222222"  xml:space="preserve" font-size="6.24406" transform="translate(343.405, 87.2989)" >sg13_lv_pmos</text>
<text fill="#666600"  xml:space="preserve" font-size="6.24406" transform="translate(371.655, 79.4511)" >m=1</text>
<text fill="#666600"  xml:space="preserve" font-size="6.24406" transform="translate(369.655, 74.1977)" >ng=1</text>
<text fill="#666600"  xml:space="preserve" font-size="6.24406" transform="translate(361.655, 66.6928)" >l=0.13u</text>
<text fill="#666600"  xml:space="preserve" font-size="6.24406" transform="translate(368.655, 59.9384)" >w=5u</text>
<text fill="#ff0000"  xml:space="preserve" font-size="4.68304" transform="translate(387.908, 84.7881)" >D</text>
<text fill="#ff0000"  xml:space="preserve" font-size="4.68304" transform="translate(388.908, 58.403)" >S</text>
<text fill="#ff0000"  xml:space="preserve" font-size="4.68304" transform="translate(390.409, 68.2773)" >B</text>
<text fill="#0099cc"  xml:space="preserve" font-size="10.3027" transform="translate(73.3079, 31.7279)" >vdd</text>
<text fill="#0099cc"  xml:space="preserve" font-size="10.3027" transform="translate(77.3079, 536.056)" >vss</text>
<text fill="#0099cc"  xml:space="preserve" font-size="10.3027" transform="translate(62.9646, 344.306)" >d_ena</text>
<text fill="#0099cc"  xml:space="preserve" font-size="10.3027" transform="translate(993.8, 368.322)" >vref_0v6</text>
<path class="l1" d="M705.612 508.314L705.612 532.33"/>
<path class="l1" d="M561.519 508.314L561.519 532.33"/>
<path class="l1" d="M669.589 490.302L681.597 490.302"/>
<path class="l1" d="M669.589 490.302L669.589 532.33"/>
<path class="l1" d="M585.534 490.302L597.542 490.302"/>
<path class="l1" d="M597.542 490.302L597.542 532.33"/>
<path class="l1" d="M561.519 532.33L597.542 532.33"/>
<path class="l1" d="M705.612 448.275L705.612 472.291"/>
<path class="l1" d="M525.495 130.068L561.519 130.068"/>
<path class="l1" d="M705.612 130.068L741.636 130.068"/>
<path class="l1" d="M561.519 448.275L561.519 472.291"/>
<path class="l1" d="M669.589 532.33L705.612 532.33"/>
<path class="l1" d="M357.386 130.068L393.409 130.068"/>
<path class="l1" d="M321.362 268.158L357.386 268.158"/>
<path class="l1" d="M885.729 130.068L921.753 130.068"/>
<path class="l1" d="M849.706 130.068L861.714 130.068"/>
<path class="l1" d="M849.706 130.068L849.706 160.088"/>
<path class="l1" d="M495.476 388.236L495.476 412.252"/>
<path class="l1" d="M495.476 388.236L561.519 388.236"/>
<path class="l1" d="M525.495 532.33L561.519 532.33"/>
<path class="l1" d="M705.612 388.236L801.675 388.236"/>
<path class="l1" d="M801.675 388.236L801.675 412.252"/>
<path class="l1" d="M801.675 532.33L885.729 532.33"/>
<path class="l1" d="M417.425 316.189L417.425 532.33"/>
<path class="l1" d="M417.425 190.107L477.464 190.107"/>
<path class="l1" d="M417.425 190.107L417.425 220.127"/>
<path class="l1" d="M885.729 148.08L885.729 310.185"/>
<path class="l1" d="M561.519 376.228L561.519 388.236"/>
<path class="l1" d="M705.612 388.236L705.612 412.252"/>
<path class="l1" d="M705.612 376.228L705.612 388.236"/>
<path class="l1" d="M885.729 472.291L885.729 532.33"/>
<path class="l1" d="M393.409 148.08L393.409 220.127"/>
<path class="l1" d="M465.456 286.17L561.519 286.17"/>
<path class="l1" d="M561.519 148.08L561.519 286.17"/>
<path class="l1" d="M465.456 250.146L705.612 250.146"/>
<path class="l1" d="M705.612 148.08L705.612 250.146"/>
<path class="l1" d="M885.729 364.22L885.729 436.267"/>
<path class="l1" d="M561.519 400.244L561.519 412.252"/>
<path class="l1" d="M321.362 478.294L321.362 532.33"/>
<path class="l1" d="M321.362 268.158L321.362 442.271"/>
<path class="l1" d="M321.362 532.33L357.386 532.33"/>
<path class="l1" d="M921.753 70.029L921.753 130.068"/>
<path class="l1" d="M885.729 28.0017L921.753 28.0017"/>
<path class="l1" d="M741.636 70.029L741.636 130.068"/>
<path class="l1" d="M705.612 28.0017L741.636 28.0017"/>
<path class="l1" d="M477.464 28.0017L525.495 28.0017"/>
<path class="l1" d="M393.409 28.0017L477.464 28.0017"/>
<path class="l1" d="M477.464 28.0017L477.464 190.107"/>
<path class="l1" d="M357.386 70.029L357.386 130.068"/>
<path class="l1" d="M177.269 490.302L189.277 490.302"/>
<path class="l1" d="M177.269 460.283L177.269 490.302"/>
<path class="l1" d="M177.269 430.263L189.277 430.263"/>
<path class="l1" d="M213.292 508.314L213.292 532.33"/>
<path class="l1" d="M213.292 400.244L213.292 412.252"/>
<path class="l1" d="M213.292 28.0017L213.292 400.244"/>
<path class="l1" d="M237.308 400.244L237.308 430.263"/>
<path class="l1" d="M153.253 460.283L177.269 460.283"/>
<path class="l1" d="M177.269 430.263L177.269 460.283"/>
<path class="l1" d="M153.253 340.205L153.253 460.283"/>
<path class="l1" d="M105.222 340.205L153.253 340.205"/>
<path class="l1" d="M213.292 460.283L213.292 472.291"/>
<path class="l1" d="M213.292 400.244L237.308 400.244"/>
<path class="l1" d="M213.292 430.263L237.308 430.263"/>
<path class="l1" d="M651.577 532.33L669.589 532.33"/>
<path class="l1" d="M561.519 388.236L561.519 400.244"/>
<path class="l1" d="M213.292 448.275L213.292 460.283"/>
<path class="l1" d="M561.519 286.17L561.519 340.205"/>
<path class="l1" d="M705.612 250.146L705.612 340.205"/>
<path class="l1" d="M357.386 532.33L417.425 532.33"/>
<path class="l1" d="M393.409 316.189L393.409 340.205"/>
<path class="l1" d="M321.362 460.283L357.386 460.283"/>
<path class="l1" d="M357.386 460.283L357.386 532.33"/>
<path class="l1" d="M261.323 460.283L297.347 460.283"/>
<path class="l1" d="M303.351 28.0017L357.386 28.0017"/>
<path class="l1" d="M321.362 160.088L429.433 160.088"/>
<path class="l1" d="M321.362 160.088L321.362 268.158"/>
<path class="l1" d="M267.327 28.0017L267.327 64.0251"/>
<path class="l1" d="M213.292 28.0017L267.327 28.0017"/>
<path class="l1" d="M285.339 28.0017L285.339 64.0251"/>
<path class="l1" d="M267.327 28.0017L285.339 28.0017"/>
<path class="l1" d="M303.351 28.0017L303.351 64.0251"/>
<path class="l1" d="M285.339 28.0017L303.351 28.0017"/>
<path class="l1" d="M561.519 400.244L633.565 400.244"/>
<path class="l1" d="M633.565 400.244L633.565 448.275"/>
<path class="l1" d="M615.554 472.291L615.554 532.33"/>
<path class="l1" d="M597.542 532.33L615.554 532.33"/>
<path class="l1" d="M633.565 472.291L633.565 532.33"/>
<path class="l1" d="M615.554 532.33L633.565 532.33"/>
<path class="l1" d="M651.577 472.291L651.577 532.33"/>
<path class="l1" d="M633.565 532.33L651.577 532.33"/>
<path class="l1" d="M801.675 496.306L801.675 532.33"/>
<path class="l1" d="M771.655 532.33L801.675 532.33"/>
<path class="l1" d="M801.675 448.275L801.675 460.283"/>
<path class="l1" d="M495.476 496.306L495.476 532.33"/>
<path class="l1" d="M417.425 532.33L495.476 532.33"/>
<path class="l1" d="M495.476 448.275L495.476 460.283"/>
<path class="l1" d="M885.729 28.0017L885.729 52.0173"/>
<path class="l1" d="M741.636 28.0017L885.729 28.0017"/>
<path class="l1" d="M885.729 88.0407L885.729 112.056"/>
<path class="l1" d="M885.729 70.029L921.753 70.029"/>
<path class="l1" d="M921.753 28.0017L921.753 70.029"/>
<path class="l1" d="M705.612 88.0407L705.612 112.056"/>
<path class="l1" d="M705.612 70.029L741.636 70.029"/>
<path class="l1" d="M741.636 28.0017L741.636 70.029"/>
<path class="l1" d="M705.612 28.0017L705.612 52.0173"/>
<path class="l1" d="M561.519 28.0017L705.612 28.0017"/>
<path class="l1" d="M561.519 28.0017L561.519 52.0173"/>
<path class="l1" d="M525.495 28.0017L561.519 28.0017"/>
<path class="l1" d="M525.495 70.029L561.519 70.029"/>
<path class="l1" d="M525.495 70.029L525.495 130.068"/>
<path class="l1" d="M561.519 88.0407L561.519 112.056"/>
<path class="l1" d="M393.409 88.0407L393.409 112.056"/>
<path class="l1" d="M393.409 28.0017L393.409 52.0173"/>
<path class="l1" d="M357.386 28.0017L393.409 28.0017"/>
<path class="l1" d="M357.386 70.029L393.409 70.029"/>
<path class="l1" d="M357.386 28.0017L357.386 70.029"/>
<path class="l1" d="M525.495 28.0017L525.495 70.029"/>
<path class="l1" d="M849.706 70.029L861.714 70.029"/>
<path class="l1" d="M849.706 70.029L849.706 100.049"/>
<path class="l1" d="M669.589 100.049L849.706 100.049"/>
<path class="l1" d="M153.253 340.205L393.409 340.205"/>
<path class="l1" d="M261.323 100.049L261.323 460.283"/>
<path class="l1" d="M213.292 460.283L261.323 460.283"/>
<path class="l1" d="M417.425 70.029L429.433 70.029"/>
<path class="l1" d="M429.433 70.029L429.433 100.049"/>
<path class="l1" d="M261.323 100.049L429.433 100.049"/>
<path class="l1" d="M585.534 70.029L597.542 70.029"/>
<path class="l1" d="M597.542 70.029L597.542 100.049"/>
<path class="l1" d="M429.433 100.049L597.542 100.049"/>
<path class="l1" d="M669.589 70.029L681.597 70.029"/>
<path class="l1" d="M669.589 70.029L669.589 100.049"/>
<path class="l1" d="M597.542 100.049L669.589 100.049"/>
<path class="l1" d="M417.425 130.068L429.433 130.068"/>
<path class="l1" d="M585.534 130.068L597.542 130.068"/>
<path class="l1" d="M429.433 160.088L597.542 160.088"/>
<path class="l1" d="M669.589 130.068L681.597 130.068"/>
<path class="l1" d="M669.589 130.068L669.589 160.088"/>
<path class="l1" d="M669.589 160.088L849.706 160.088"/>
<path class="l1" d="M429.433 130.068L429.433 160.088"/>
<path class="l1" d="M597.542 130.068L597.542 160.088"/>
<path class="l1" d="M285.339 88.0407L285.339 160.088"/>
<path class="l1" d="M285.339 160.088L321.362 160.088"/>
<path class="l1" d="M597.542 160.088L669.589 160.088"/>
<path class="l1" d="M105.222 28.0017L213.292 28.0017"/>
<path class="l1" d="M237.308 532.33L321.362 532.33"/>
<path class="l1" d="M105.222 532.33L213.292 532.33"/>
<path class="l1" d="M885.729 364.22L981.792 364.22"/>
<path class="l1" d="M885.729 346.209L885.729 364.22"/>
<path class="l1" d="M213.292 490.302L237.308 490.302"/>
<path class="l1" d="M237.308 490.302L237.308 532.33"/>
<path class="l1" d="M213.292 532.33L237.308 532.33"/>
<path class="l1" d="M903.741 454.279L915.749 454.279"/>
<path class="l1" d="M915.749 454.279L915.749 532.33"/>
<path class="l1" d="M885.729 532.33L915.749 532.33"/>
<path class="l1" d="M771.655 430.263L783.663 430.263"/>
<path class="l1" d="M771.655 478.294L771.655 532.33"/>
<path class="l1" d="M705.612 532.33L771.655 532.33"/>
<path class="l1" d="M771.655 478.294L783.663 478.294"/>
<path class="l1" d="M771.655 430.263L771.655 478.294"/>
<path class="l1" d="M723.624 430.263L771.655 430.263"/>
<path class="l1" d="M513.487 430.263L525.495 430.263"/>
<path class="l1" d="M525.495 478.294L525.495 532.33"/>
<path class="l1" d="M495.476 532.33L525.495 532.33"/>
<path class="l1" d="M513.487 478.294L525.495 478.294"/>
<path class="l1" d="M525.495 430.263L525.495 478.294"/>
<circle class="l1" cx="213.292" cy="28.0017" r="2.22144"/>
<circle class="l1" cx="429.433" cy="100.049" r="2.22144"/>
<circle class="l1" cx="261.323" cy="460.283" r="2.22144"/>
<circle class="l1" cx="213.292" cy="28.0017" r="2.22144"/>
<circle class="l1" cx="267.327" cy="28.0017" r="2.22144"/>
<circle class="l1" cx="213.292" cy="28.0017" r="2.22144"/>
<circle class="l1" cx="213.292" cy="400.244" r="2.22144"/>
<circle class="l1" cx="153.253" cy="340.205" r="2.22144"/>
<circle class="l1" cx="213.292" cy="400.244" r="2.22144"/>
<circle class="l1" cx="153.253" cy="340.205" r="2.22144"/>
<circle class="l1" cx="153.253" cy="340.205" r="2.22144"/>
<circle class="l1" cx="213.292" cy="400.244" r="2.22144"/>
<circle class="l1" cx="213.292" cy="532.33" r="2.22144"/>
<circle class="l1" cx="237.308" cy="532.33" r="2.22144"/>
<circle class="l1" cx="237.308" cy="532.33" r="2.22144"/>
<circle class="l1" cx="213.292" cy="532.33" r="2.22144"/>
<circle class="l1" cx="237.308" cy="532.33" r="2.22144"/>
<circle class="l1" cx="321.362" cy="532.33" r="2.22144"/>
<circle class="l1" cx="213.292" cy="460.283" r="2.22144"/>
<circle class="l1" cx="261.323" cy="460.283" r="2.22144"/>
<circle class="l1" cx="261.323" cy="460.283" r="2.22144"/>
<circle class="l1" cx="213.292" cy="460.283" r="2.22144"/>
<circle class="l1" cx="213.292" cy="460.283" r="2.22144"/>
<circle class="l1" cx="177.269" cy="460.283" r="2.22144"/>
<circle class="l1" cx="177.269" cy="460.283" r="2.22144"/>
<circle class="l1" cx="213.292" cy="532.33" r="2.22144"/>
<circle class="l1" cx="177.269" cy="460.283" r="2.22144"/>
<circle class="l1" cx="321.362" cy="160.088" r="2.22144"/>
<circle class="l1" cx="429.433" cy="160.088" r="2.22144"/>
<circle class="l1" cx="429.433" cy="160.088" r="2.22144"/>
<circle class="l1" cx="597.542" cy="160.088" r="2.22144"/>
<circle class="l1" cx="429.433" cy="100.049" r="2.22144"/>
<circle class="l1" cx="597.542" cy="100.049" r="2.22144"/>
<circle class="l1" cx="429.433" cy="100.049" r="2.22144"/>
<circle class="l1" cx="357.386" cy="28.0017" r="2.22144"/>
<circle class="l1" cx="357.386" cy="70.029" r="2.22144"/>
<circle class="l1" cx="357.386" cy="70.029" r="2.22144"/>
<circle class="l1" cx="357.386" cy="28.0017" r="2.22144"/>
<circle class="l1" cx="393.409" cy="28.0017" r="2.22144"/>
<circle class="l1" cx="393.409" cy="28.0017" r="2.22144"/>
<circle class="l1" cx="285.339" cy="28.0017" r="2.22144"/>
<circle class="l1" cx="303.351" cy="28.0017" r="2.22144"/>
<circle class="l1" cx="303.351" cy="28.0017" r="2.22144"/>
<circle class="l1" cx="267.327" cy="28.0017" r="2.22144"/>
<circle class="l1" cx="285.339" cy="28.0017" r="2.22144"/>
<circle class="l1" cx="285.339" cy="28.0017" r="2.22144"/>
<circle class="l1" cx="267.327" cy="28.0017" r="2.22144"/>
<circle class="l1" cx="321.362" cy="160.088" r="2.22144"/>
<circle class="l1" cx="321.362" cy="268.158" r="2.22144"/>
<circle class="l1" cx="321.362" cy="160.088" r="2.22144"/>
<circle class="l1" cx="429.433" cy="160.088" r="2.22144"/>
<circle class="l1" cx="303.351" cy="28.0017" r="2.22144"/>
<circle class="l1" cx="357.386" cy="28.0017" r="2.22144"/>
<circle class="l1" cx="357.386" cy="70.029" r="2.22144"/>
<circle class="l1" cx="477.464" cy="28.0017" r="2.22144"/>
<circle class="l1" cx="393.409" cy="28.0017" r="2.22144"/>
<circle class="l1" cx="477.464" cy="28.0017" r="2.22144"/>
<circle class="l1" cx="477.464" cy="28.0017" r="2.22144"/>
<circle class="l1" cx="525.495" cy="28.0017" r="2.22144"/>
<circle class="l1" cx="321.362" cy="268.158" r="2.22144"/>
<circle class="l1" cx="705.612" cy="250.146" r="2.22144"/>
<circle class="l1" cx="561.519" cy="286.17" r="2.22144"/>
<circle class="l1" cx="417.425" cy="532.33" r="2.22144"/>
<circle class="l1" cx="561.519" cy="388.236" r="2.22144"/>
<circle class="l1" cx="321.362" cy="268.158" r="2.22144"/>
<circle class="l1" cx="495.476" cy="532.33" r="2.22144"/>
<circle class="l1" cx="525.495" cy="532.33" r="2.22144"/>
<circle class="l1" cx="417.425" cy="532.33" r="2.22144"/>
<circle class="l1" cx="495.476" cy="532.33" r="2.22144"/>
<circle class="l1" cx="495.476" cy="532.33" r="2.22144"/>
<circle class="l1" cx="357.386" cy="532.33" r="2.22144"/>
<circle class="l1" cx="357.386" cy="532.33" r="2.22144"/>
<circle class="l1" cx="417.425" cy="532.33" r="2.22144"/>
<circle class="l1" cx="321.362" cy="532.33" r="2.22144"/>
<circle class="l1" cx="357.386" cy="532.33" r="2.22144"/>
<circle class="l1" cx="321.362" cy="532.33" r="2.22144"/>
<circle class="l1" cx="597.542" cy="160.088" r="2.22144"/>
<circle class="l1" cx="669.589" cy="160.088" r="2.22144"/>
<circle class="l1" cx="597.542" cy="160.088" r="2.22144"/>
<circle class="l1" cx="669.589" cy="160.088" r="2.22144"/>
<circle class="l1" cx="669.589" cy="160.088" r="2.22144"/>
<circle class="l1" cx="597.542" cy="100.049" r="2.22144"/>
<circle class="l1" cx="669.589" cy="100.049" r="2.22144"/>
<circle class="l1" cx="669.589" cy="100.049" r="2.22144"/>
<circle class="l1" cx="597.542" cy="100.049" r="2.22144"/>
<circle class="l1" cx="669.589" cy="100.049" r="2.22144"/>
<circle class="l1" cx="525.495" cy="28.0017" r="2.22144"/>
<circle class="l1" cx="525.495" cy="70.029" r="2.22144"/>
<circle class="l1" cx="525.495" cy="70.029" r="2.22144"/>
<circle class="l1" cx="525.495" cy="70.029" r="2.22144"/>
<circle class="l1" cx="525.495" cy="28.0017" r="2.22144"/>
<circle class="l1" cx="561.519" cy="28.0017" r="2.22144"/>
<circle class="l1" cx="561.519" cy="28.0017" r="2.22144"/>
<circle class="l1" cx="561.519" cy="28.0017" r="2.22144"/>
<circle class="l1" cx="705.612" cy="28.0017" r="2.22144"/>
<circle class="l1" cx="705.612" cy="28.0017" r="2.22144"/>
<circle class="l1" cx="741.636" cy="28.0017" r="2.22144"/>
<circle class="l1" cx="741.636" cy="70.029" r="2.22144"/>
<circle class="l1" cx="741.636" cy="70.029" r="2.22144"/>
<circle class="l1" cx="741.636" cy="28.0017" r="2.22144"/>
<circle class="l1" cx="885.729" cy="28.0017" r="2.22144"/>
<circle class="l1" cx="705.612" cy="28.0017" r="2.22144"/>
<circle class="l1" cx="741.636" cy="28.0017" r="2.22144"/>
<circle class="l1" cx="741.636" cy="70.029" r="2.22144"/>
<circle class="l1" cx="705.612" cy="250.146" r="2.22144"/>
<circle class="l1" cx="561.519" cy="286.17" r="2.22144"/>
<circle class="l1" cx="561.519" cy="400.244" r="2.22144"/>
<circle class="l1" cx="705.612" cy="250.146" r="2.22144"/>
<circle class="l1" cx="561.519" cy="286.17" r="2.22144"/>
<circle class="l1" cx="561.519" cy="388.236" r="2.22144"/>
<circle class="l1" cx="561.519" cy="400.244" r="2.22144"/>
<circle class="l1" cx="561.519" cy="400.244" r="2.22144"/>
<circle class="l1" cx="705.612" cy="388.236" r="2.22144"/>
<circle class="l1" cx="705.612" cy="388.236" r="2.22144"/>
<circle class="l1" cx="561.519" cy="388.236" r="2.22144"/>
<circle class="l1" cx="705.612" cy="388.236" r="2.22144"/>
<circle class="l1" cx="525.495" cy="478.294" r="2.22144"/>
<circle class="l1" cx="525.495" cy="478.294" r="2.22144"/>
<circle class="l1" cx="525.495" cy="478.294" r="2.22144"/>
<circle class="l1" cx="525.495" cy="532.33" r="2.22144"/>
<circle class="l1" cx="771.655" cy="430.263" r="2.22144"/>
<circle class="l1" cx="705.612" cy="532.33" r="2.22144"/>
<circle class="l1" cx="771.655" cy="532.33" r="2.22144"/>
<circle class="l1" cx="633.565" cy="532.33" r="2.22144"/>
<circle class="l1" cx="651.577" cy="532.33" r="2.22144"/>
<circle class="l1" cx="651.577" cy="532.33" r="2.22144"/>
<circle class="l1" cx="615.554" cy="532.33" r="2.22144"/>
<circle class="l1" cx="633.565" cy="532.33" r="2.22144"/>
<circle class="l1" cx="633.565" cy="532.33" r="2.22144"/>
<circle class="l1" cx="597.542" cy="532.33" r="2.22144"/>
<circle class="l1" cx="615.554" cy="532.33" r="2.22144"/>
<circle class="l1" cx="615.554" cy="532.33" r="2.22144"/>
<circle class="l1" cx="651.577" cy="532.33" r="2.22144"/>
<circle class="l1" cx="669.589" cy="532.33" r="2.22144"/>
<circle class="l1" cx="525.495" cy="532.33" r="2.22144"/>
<circle class="l1" cx="561.519" cy="532.33" r="2.22144"/>
<circle class="l1" cx="669.589" cy="532.33" r="2.22144"/>
<circle class="l1" cx="705.612" cy="532.33" r="2.22144"/>
<circle class="l1" cx="561.519" cy="532.33" r="2.22144"/>
<circle class="l1" cx="597.542" cy="532.33" r="2.22144"/>
<circle class="l1" cx="597.542" cy="532.33" r="2.22144"/>
<circle class="l1" cx="669.589" cy="532.33" r="2.22144"/>
<circle class="l1" cx="561.519" cy="532.33" r="2.22144"/>
<circle class="l1" cx="705.612" cy="532.33" r="2.22144"/>
<circle class="l1" cx="921.753" cy="70.029" r="2.22144"/>
<circle class="l1" cx="921.753" cy="70.029" r="2.22144"/>
<circle class="l1" cx="885.729" cy="28.0017" r="2.22144"/>
<circle class="l1" cx="885.729" cy="28.0017" r="2.22144"/>
<circle class="l1" cx="921.753" cy="70.029" r="2.22144"/>
<circle class="l1" cx="885.729" cy="364.22" r="2.22144"/>
<circle class="l1" cx="885.729" cy="364.22" r="2.22144"/>
<circle class="l1" cx="885.729" cy="364.22" r="2.22144"/>
<circle class="l1" cx="771.655" cy="430.263" r="2.22144"/>
<circle class="l1" cx="771.655" cy="478.294" r="2.22144"/>
<circle class="l1" cx="771.655" cy="478.294" r="2.22144"/>
<circle class="l1" cx="771.655" cy="478.294" r="2.22144"/>
<circle class="l1" cx="771.655" cy="532.33" r="2.22144"/>
<circle class="l1" cx="771.655" cy="430.263" r="2.22144"/>
<circle class="l1" cx="885.729" cy="532.33" r="2.22144"/>
<circle class="l1" cx="771.655" cy="532.33" r="2.22144"/>
<circle class="l1" cx="801.675" cy="532.33" r="2.22144"/>
<circle class="l1" cx="801.675" cy="532.33" r="2.22144"/>
<circle class="l1" cx="885.729" cy="532.33" r="2.22144"/>
<circle class="l1" cx="801.675" cy="532.33" r="2.22144"/>
<circle class="l1" cx="885.729" cy="532.33" r="2.22144"/>
<text fill="#222222"  xml:space="preserve" font-size="12.4881" transform="translate(711.616, 519.653)" >m=32</text>
<text fill="#222222"  xml:space="preserve" font-size="12.4881" transform="translate(519.491, 555.677)" >15uA</text>
<text fill="#222222"  xml:space="preserve" font-size="12.4881" transform="translate(735.632, 555.677)" >15uA</text>
<text fill="#222222"  xml:space="preserve" font-size="12.4881" transform="translate(867.718, 555.677)" >15uA</text>
<text fill="#222222"  xml:space="preserve" font-size="12.4881" transform="translate(567.522, 465.618)" >m=2</text>
<text fill="#222222"  xml:space="preserve" font-size="12.4881" transform="translate(915.749, 357.548)" >0.6V</text>
<text fill="#222222"  xml:space="preserve" font-size="12.4881" transform="translate(123.234, 21.3292)" >1.5V (nom)</text>
</svg>
