<svg xmlns="http://www.w3.org/2000/svg" xmlns:xlink="http://www.w3.org/1999/xlink" width="1066" height="666" version="1.1">
<style type="text/css">
.l0{
  fill: #ffffff;
  stroke: #ffffff;
  stroke-linecap:round;
  stroke-linejoin:round;
  stroke-width: 1.18299;
}
.l1{
  fill: #0099cc;
  stroke: #0099cc;
  stroke-linecap:round;
  stroke-linejoin:round;
  stroke-width: 1.18299;
}
.l2{
  fill: #aaaaaa; fill-opacity: 0.2;
  stroke: #aaaaaa;
  stroke-linecap:round;
  stroke-linejoin:round;
  stroke-width: 1.18299;
}
.l3{
  fill: #222222; fill-opacity: 0.5;
  stroke: #222222;
  stroke-linecap:round;
  stroke-linejoin:round;
  stroke-width: 1.18299;
}
.l4{
  fill: #229900;
  stroke: #229900;
  stroke-linecap:round;
  stroke-linejoin:round;
  stroke-width: 1.18299;
}
.l5{
  fill: #bb2200;
  stroke: #bb2200;
  stroke-linecap:round;
  stroke-linejoin:round;
  stroke-width: 1.18299;
}
.l6{
  fill: #0066cc; fill-opacity: 0.5;
  stroke: #0066cc;
  stroke-linecap:round;
  stroke-linejoin:round;
  stroke-width: 1.18299;
}
.l7{
  fill: #ff0000; fill-opacity: 0.5;
  stroke: #ff0000;
  stroke-linecap:round;
  stroke-linejoin:round;
  stroke-width: 1.18299;
}
.l8{
  fill: #888800; fill-opacity: 0.5;
  stroke: #888800;
  stroke-linecap:round;
  stroke-linejoin:round;
  stroke-width: 1.18299;
}
.l9{
  fill: #00aaaa; fill-opacity: 0.5;
  stroke: #00aaaa;
  stroke-linecap:round;
  stroke-linejoin:round;
  stroke-width: 1.18299;
}
.l10{
  fill: #880088;
  stroke: #880088;
  stroke-linecap:round;
  stroke-linejoin:round;
  stroke-width: 1.18299;
}
.l11{
  fill: #00ff00; fill-opacity: 0.5;
  stroke: #00ff00;
  stroke-linecap:round;
  stroke-linejoin:round;
  stroke-width: 1.18299;
}
.l12{
  fill: #0000cc; fill-opacity: 0.5;
  stroke: #0000cc;
  stroke-linecap:round;
  stroke-linejoin:round;
  stroke-width: 1.18299;
}
.l13{
  fill: #666600; fill-opacity: 0.5;
  stroke: #666600;
  stroke-linecap:round;
  stroke-linejoin:round;
  stroke-width: 1.18299;
}
.l14{
  fill: #557755; fill-opacity: 0.2;
  stroke: #557755;
  stroke-linecap:round;
  stroke-linejoin:round;
  stroke-width: 1.18299;
}
.l15{
  fill: #aa2222; fill-opacity: 0.5;
  stroke: #aa2222;
  stroke-linecap:round;
  stroke-linejoin:round;
  stroke-width: 1.18299;
}
.l16{
  fill: #7ccc40; fill-opacity: 0.5;
  stroke: #7ccc40;
  stroke-linecap:round;
  stroke-linejoin:round;
  stroke-width: 1.18299;
}
.l17{
  fill: #00ffcc; fill-opacity: 0.2;
  stroke: #00ffcc;
  stroke-linecap:round;
  stroke-linejoin:round;
  stroke-width: 1.18299;
}
.l18{
  fill: #ce0097; fill-opacity: 0.5;
  stroke: #ce0097;
  stroke-linecap:round;
  stroke-linejoin:round;
  stroke-width: 1.18299;
}
.l19{
  fill: #d2d46b; fill-opacity: 0.2;
  stroke: #d2d46b;
  stroke-linecap:round;
  stroke-linejoin:round;
  stroke-width: 1.18299;
}
.l20{
  fill: #ef6158; fill-opacity: 0.2;
  stroke: #ef6158;
  stroke-linecap:round;
  stroke-linejoin:round;
  stroke-width: 1.18299;
}
.l21{
  fill: #fdb200; fill-opacity: 0.2;
  stroke: #fdb200;
  stroke-linecap:round;
  stroke-linejoin:round;
  stroke-width: 1.18299;
}
text {font-family: Sans-Serif;}
</style>
<rect class="l0" x="0" y="0" width="1066" height="666"/>
<path class="l4" d="M296.402 285.352L296.402 294.115"/>
<path class="l4" d="M296.402 285.352L302.974 283.161"/>
<path class="l4" d="M289.83 278.78L302.974 283.161"/>
<path class="l4" d="M289.83 278.78L302.974 274.398"/>
<path class="l4" d="M289.83 270.017L302.974 274.398"/>
<path class="l4" d="M289.83 270.017L302.974 265.635"/>
<path class="l4" d="M289.83 261.254L302.974 265.635"/>
<path class="l4" d="M289.83 261.254L302.974 256.872"/>
<path class="l4" d="M289.83 252.491L302.974 256.872"/>
<path class="l4" d="M289.83 252.491L296.402 250.3"/>
<path class="l4" d="M296.402 241.537L296.402 250.3"/>
<path class="l4" d="M208.773 381.744L212.059 381.744"/>
<path class="l5" d="M147.433 429.939L147.159 430.213L146.886 430.487L146.612 430.761L146.338 431.035L146.064 431.309L145.79 431.582L145.516 431.856L145.242 432.13L144.969 432.404L144.695 432.678L144.421 432.952L144.147 433.225L143.873 433.499L143.599 433.773L143.326 434.047L143.052 434.321L142.778 434.595L142.504 434.868L142.23 435.142L141.956 435.416L141.683 435.69L141.409 435.964L141.135 436.238L140.861 436.512L140.587 436.785L140.313 437.059L140.04 437.333L139.766 437.607L139.492 437.881L139.218 438.155L138.944 438.428L138.67 438.702L138.67 438.702L138.405 438.976L138.157 439.25L137.926 439.524L137.712 439.798L137.515 440.071L137.335 440.345L137.173 440.619L137.027 440.893L136.899 441.167L136.788 441.441L136.694 441.714L136.617 441.988L136.557 442.262L136.514 442.536L136.488 442.81L136.48 443.084L136.488 443.358L136.514 443.631L136.557 443.905L136.617 444.179L136.694 444.453L136.788 444.727L136.899 445.001L137.027 445.274L137.173 445.548L137.335 445.822L137.515 446.096L137.712 446.37L137.926 446.644L138.157 446.917L138.405 447.191L138.67 447.465L138.67 447.465L138.945 447.74L139.222 448.017L139.501 448.296L139.783 448.578L140.066 448.861L140.352 449.147L140.64 449.434L140.93 449.724L141.222 450.016L141.516 450.311L141.812 450.607L142.11 450.905L142.411 451.206L142.714 451.509L143.019 451.813L143.326 452.12L143.635 452.43L143.946 452.741L144.259 453.054L144.575 453.37L144.893 453.688L145.213 454.007L145.535 454.329L145.859 454.653L146.185 454.98L146.513 455.308L146.844 455.639L147.176 455.971L147.511 456.306L147.848 456.643L148.187 456.982L148.529 457.323L148.529 457.323L148.869 457.664L149.205 457.999L149.536 458.331L149.864 458.658L150.187 458.981L150.505 459.3L150.82 459.615L151.13 459.925L151.436 460.231L151.738 460.532L152.035 460.83L152.328 461.123L152.617 461.412L152.901 461.696L153.182 461.977L153.458 462.253L153.729 462.524L153.997 462.792L154.26 463.055L154.519 463.314L154.773 463.568L155.024 463.819L155.27 464.065L155.512 464.306L155.749 464.544L155.982 464.777L156.211 465.006L156.436 465.231L156.656 465.451L156.872 465.667L157.084 465.879L157.291 466.086L157.291 466.086L157.49 466.288L157.677 466.484L157.85 466.674L158.01 466.856L158.158 467.033L158.293 467.203L158.415 467.367L158.524 467.524L158.62 467.675L158.703 467.819L158.774 467.957L158.832 468.089L158.877 468.214L158.909 468.333L158.928 468.445L158.935 468.551L158.928 468.65L158.909 468.743L158.877 468.83L158.832 468.91L158.774 468.984L158.703 469.051L158.62 469.112L158.524 469.167L158.415 469.215L158.293 469.257L158.158 469.292L158.01 469.321L157.85 469.343L157.677 469.36L157.49 469.369L157.291 469.372L157.291 469.372L157.086 469.372L156.881 469.372L156.675 469.372L156.47 469.372L156.265 469.372L156.059 469.372L155.854 469.372L155.648 469.372L155.443 469.372L155.238 469.372L155.032 469.372L154.827 469.372L154.622 469.372L154.416 469.372L154.211 469.372L154.005 469.372L153.8 469.372L153.595 469.372L153.389 469.372L153.184 469.372L152.978 469.372L152.773 469.372L152.568 469.372L152.362 469.372L152.157 469.372L151.952 469.372L151.746 469.372L151.541 469.372L151.335 469.372L151.13 469.372L150.925 469.372L150.719 469.372L150.719 469.372L150.515 469.372L150.313 469.372L150.113 469.372L149.915 469.372L149.719 469.372L149.526 469.372L149.334 469.372L149.145 469.372L148.958 469.372L148.772 469.372L148.59 469.372L148.409 469.372L148.23 469.372L148.054 469.372L147.879 469.372L147.707 469.372L147.537 469.372L147.369 469.372L147.203 469.372L147.04 469.372L146.878 469.372L146.719 469.372L146.561 469.372L146.406 469.372L146.253 469.372L146.103 469.372L145.954 469.372L145.807 469.372L145.663 469.372L145.521 469.372L145.38 469.372L145.242 469.372L145.242 469.372L145.106 469.37L144.969 469.364L144.832 469.353L144.695 469.338L144.558 469.319L144.421 469.295L144.284 469.268L144.147 469.235L144.01 469.199L143.873 469.158L143.736 469.113L143.599 469.064L143.463 469.011L143.326 468.953L143.189 468.891L143.052 468.825L142.915 468.754L142.778 468.679L142.641 468.6L142.504 468.517L142.367 468.429L142.23 468.337L142.093 468.241L141.956 468.14L141.819 468.035L141.683 467.926L141.546 467.813L141.409 467.695L141.272 467.573L141.135 467.447L140.998 467.316L140.861 467.182L140.861 467.182L140.724 467.045L140.587 466.908L140.45 466.771L140.313 466.634L140.176 466.497L140.04 466.36L139.903 466.223L139.766 466.086L139.629 465.949L139.492 465.812L139.355 465.676L139.218 465.539L139.081 465.402L138.944 465.265L138.807 465.128L138.67 464.991L138.533 464.854L138.396 464.717L138.26 464.58L138.123 464.443L137.986 464.306L137.849 464.169L137.712 464.032L137.575 463.896L137.438 463.759L137.301 463.622L137.164 463.485L137.027 463.348L136.89 463.211L136.753 463.074L136.617 462.937L136.48 462.8L136.48 462.8L136.341 462.661L136.197 462.518L136.05 462.37L135.898 462.218L135.742 462.062L135.581 461.902L135.416 461.737L135.247 461.568L135.074 461.395L134.896 461.217L134.715 461.035L134.529 460.849L134.338 460.659L134.143 460.464L133.944 460.265L133.741 460.062L133.534 459.854L133.322 459.642L133.106 459.426L132.885 459.206L132.661 458.981L132.432 458.752L132.199 458.519L131.961 458.282L131.72 458.04L131.473 457.794L131.223 457.544L130.969 457.289L130.71 457.03L130.447 456.767L130.179 456.5L129.907 456.228L129.907 456.228L129.634 455.963L129.36 455.715L129.086 455.484L128.812 455.27L128.538 455.073L128.264 454.893L127.991 454.73L127.717 454.585L127.443 454.457L127.169 454.345L126.895 454.251L126.621 454.174L126.348 454.114L126.074 454.072L125.8 454.046L125.526 454.037L125.252 454.046L124.978 454.072L124.704 454.114L124.431 454.174L124.157 454.251L123.883 454.345L123.609 454.457L123.335 454.585L123.061 454.73L122.788 454.893L122.514 455.073L122.24 455.27L121.966 455.484L121.692 455.715L121.418 455.963L121.145 456.228L121.145 456.228L120.873 456.5L120.605 456.767L120.342 457.03L120.083 457.289L119.829 457.544L119.579 457.794L119.333 458.04L119.091 458.282L118.853 458.519L118.62 458.752L118.391 458.981L118.167 459.206L117.946 459.426L117.73 459.642L117.518 459.854L117.311 460.062L117.108 460.265L116.909 460.464L116.714 460.659L116.524 460.849L116.337 461.035L116.156 461.217L115.978 461.395L115.805 461.568L115.636 461.737L115.471 461.902L115.31 462.062L115.154 462.218L115.002 462.37L114.855 462.518L114.711 462.661L114.572 462.8L114.572 462.8L114.435 462.937L114.299 463.074L114.162 463.211L114.025 463.348L113.888 463.485L113.751 463.622L113.614 463.759L113.477 463.896L113.34 464.032L113.203 464.169L113.066 464.306L112.929 464.443L112.792 464.58L112.656 464.717L112.519 464.854L112.382 464.991L112.245 465.128L112.108 465.265L111.971 465.402L111.834 465.539L111.697 465.676L111.56 465.812L111.423 465.949L111.286 466.086L111.149 466.223L111.012 466.36L110.876 466.497L110.739 466.634L110.602 466.771L110.465 466.908L110.328 467.045L110.191 467.182L110.191 467.182L110.054 467.316L109.917 467.447L109.78 467.573L109.643 467.695L109.506 467.813L109.369 467.926L109.233 468.035L109.096 468.14L108.959 468.241L108.822 468.337L108.685 468.429L108.548 468.517L108.411 468.6L108.274 468.679L108.137 468.754L108 468.825L107.863 468.891L107.726 468.953L107.589 469.011L107.453 469.064L107.316 469.113L107.179 469.158L107.042 469.199L106.905 469.235L106.768 469.268L106.631 469.295L106.494 469.319L106.357 469.338L106.22 469.353L106.083 469.364L105.946 469.37L105.81 469.372L105.81 469.372L105.672 469.372L105.531 469.372L105.389 469.372L105.245 469.372L105.098 469.372L104.95 469.372L104.799 469.372L104.646 469.372L104.491 469.372L104.333 469.372L104.174 469.372L104.012 469.372L103.849 469.372L103.683 469.372L103.515 469.372L103.345 469.372L103.173 469.372L102.998 469.372L102.822 469.372L102.643 469.372L102.462 469.372L102.28 469.372L102.095 469.372L101.907 469.372L101.718 469.372L101.527 469.372L101.333 469.372L101.137 469.372L100.939 469.372L100.739 469.372L100.537 469.372L100.333 469.372L100.333 469.372L100.127 469.372L99.922 469.372L99.7166 469.372L99.5112 469.372L99.3058 469.372L99.1005 469.372L98.8951 469.372L98.6897 469.372L98.4843 469.372L98.2789 469.372L98.0736 469.372L97.8682 469.372L97.6628 469.372L97.4574 469.372L97.252 469.372L97.0467 469.372L96.8413 469.372L96.6359 469.372L96.4305 469.372L96.2251 469.372L96.0198 469.372L95.8144 469.372L95.609 469.372L95.4036 469.372L95.1982 469.372L94.9929 469.372L94.7875 469.372L94.5821 469.372L94.3767 469.372L94.1713 469.372L93.966 469.372L93.7606 469.372L93.7606 469.372L93.5616 469.369L93.3755 469.36L93.2022 469.343L93.0417 469.321L92.8941 469.292L92.7593 469.257L92.6374 469.215L92.5283 469.167L92.432 469.112L92.3486 469.051L92.278 468.984L92.2202 468.91L92.1753 468.83L92.1432 468.743L92.1239 468.65L92.1175 468.551L92.1239 468.445L92.1432 468.333L92.1753 468.214L92.2202 468.089L92.278 467.957L92.3486 467.819L92.432 467.675L92.5283 467.524L92.6374 467.367L92.7593 467.203L92.8941 467.033L93.0417 466.856L93.2022 466.674L93.3755 466.484L93.5616 466.288L93.7606 466.086L93.7606 466.086L93.9681 465.879L94.1799 465.667L94.396 465.451L94.6163 465.231L94.841 465.006L95.0699 464.777L95.3031 464.544L95.5405 464.306L95.7823 464.065L96.0283 463.819L96.2786 463.568L96.5332 463.314L96.7921 463.055L97.0552 462.792L97.3226 462.524L97.5943 462.253L97.8703 461.977L98.1506 461.696L98.4351 461.412L98.7239 461.123L99.017 460.83L99.3144 460.532L99.616 460.231L99.922 459.925L100.232 459.615L100.547 459.3L100.865 458.981L101.188 458.658L101.516 458.331L101.847 457.999L102.183 457.664L102.523 457.323L102.523 457.323L102.865 456.982L103.204 456.643L103.541 456.306L103.876 455.971L104.208 455.639L104.539 455.308L104.867 454.98L105.193 454.653L105.518 454.329L105.839 454.007L106.159 453.688L106.477 453.37L106.793 453.054L107.106 452.741L107.417 452.43L107.726 452.12L108.033 451.813L108.338 451.509L108.641 451.206L108.942 450.905L109.24 450.607L109.536 450.311L109.83 450.016L110.123 449.724L110.412 449.434L110.7 449.147L110.986 448.861L111.269 448.578L111.551 448.296L111.83 448.017L112.107 447.74L112.382 447.465L112.382 447.465L112.647 447.191L112.895 446.917L113.126 446.644L113.34 446.37L113.537 446.096L113.717 445.822L113.879 445.548L114.025 445.274L114.153 445.001L114.264 444.727L114.358 444.453L114.435 444.179L114.495 443.905L114.538 443.631L114.564 443.358L114.572 443.084L114.564 442.81L114.538 442.536L114.495 442.262L114.435 441.988L114.358 441.714L114.264 441.441L114.153 441.167L114.025 440.893L113.879 440.619L113.717 440.345L113.537 440.071L113.34 439.798L113.126 439.524L112.895 439.25L112.647 438.976L112.382 438.702L112.382 438.702L112.107 438.427L111.83 438.15L111.551 437.871L111.269 437.59L110.986 437.306L110.7 437.021L110.412 436.733L110.123 436.443L109.83 436.151L109.536 435.857L109.24 435.561L108.942 435.262L108.641 434.962L108.338 434.659L108.033 434.354L107.726 434.047L107.417 433.738L107.106 433.427L106.793 433.113L106.477 432.798L106.159 432.48L105.839 432.16L105.518 431.838L105.193 431.514L104.867 431.188L104.539 430.859L104.208 430.529L103.876 430.196L103.541 429.861L103.204 429.524L102.865 429.185L102.523 428.844L102.523 428.844L102.183 428.504L101.847 428.168L101.516 427.836L101.188 427.509L100.865 427.186L100.547 426.867L100.232 426.553L99.922 426.243L99.616 425.937L99.3144 425.635L99.017 425.338L98.7239 425.044L98.4351 424.756L98.1506 424.471L97.8703 424.191L97.5943 423.915L97.3226 423.643L97.0552 423.376L96.7921 423.113L96.5332 422.854L96.2786 422.599L96.0283 422.349L95.7823 422.103L95.5405 421.861L95.3031 421.624L95.0699 421.39L94.841 421.162L94.6163 420.937L94.396 420.717L94.1799 420.5L93.9681 420.289L93.7606 420.081L93.7606 420.081L93.5616 419.879L93.3755 419.683L93.2022 419.494L93.0417 419.311L92.8941 419.134L92.7593 418.964L92.6374 418.801L92.5283 418.643L92.432 418.493L92.3486 418.348L92.278 418.21L92.2202 418.079L92.1753 417.954L92.1432 417.835L92.1239 417.722L92.1175 417.617L92.1239 417.517L92.1432 417.424L92.1753 417.337L92.2202 417.257L92.278 417.183L92.3486 417.116L92.432 417.055L92.5283 417L92.6374 416.952L92.7593 416.911L92.8941 416.875L93.0417 416.846L93.2022 416.824L93.3755 416.808L93.5616 416.798L93.7606 416.795L93.7606 416.795L93.966 416.795L94.1713 416.795L94.3767 416.795L94.5821 416.795L94.7875 416.795L94.9929 416.795L95.1982 416.795L95.4036 416.795L95.609 416.795L95.8144 416.795L96.0198 416.795L96.2251 416.795L96.4305 416.795L96.6359 416.795L96.8413 416.795L97.0467 416.795L97.252 416.795L97.4574 416.795L97.6628 416.795L97.8682 416.795L98.0736 416.795L98.2789 416.795L98.4843 416.795L98.6897 416.795L98.8951 416.795L99.1005 416.795L99.3058 416.795L99.5112 416.795L99.7166 416.795L99.922 416.795L100.127 416.795L100.333 416.795L100.333 416.795L100.537 416.795L100.739 416.795L100.939 416.795L101.137 416.795L101.333 416.795L101.527 416.795L101.718 416.795L101.907 416.795L102.095 416.795L102.28 416.795L102.462 416.795L102.643 416.795L102.822 416.795L102.998 416.795L103.173 416.795L103.345 416.795L103.515 416.795L103.683 416.795L103.849 416.795L104.012 416.795L104.174 416.795L104.333 416.795L104.491 416.795L104.646 416.795L104.799 416.795L104.95 416.795L105.098 416.795L105.245 416.795L105.389 416.795L105.531 416.795L105.672 416.795L105.81 416.795L105.81 416.795L105.946 416.797L106.083 416.804L106.22 416.814L106.357 416.829L106.494 416.849L106.631 416.872L106.768 416.9L106.905 416.932L107.042 416.968L107.179 417.009L107.316 417.054L107.453 417.103L107.589 417.157L107.726 417.214L107.863 417.276L108 417.343L108.137 417.413L108.274 417.488L108.411 417.567L108.548 417.651L108.685 417.739L108.822 417.831L108.959 417.927L109.096 418.027L109.233 418.132L109.369 418.241L109.506 418.355L109.643 418.472L109.78 418.594L109.917 418.72L110.054 418.851L110.191 418.986L110.191 418.986L110.328 419.123L110.465 419.26L110.602 419.397L110.739 419.533L110.876 419.67L111.012 419.807L111.149 419.944L111.286 420.081L111.423 420.218L111.56 420.355L111.697 420.492L111.834 420.629L111.971 420.766L112.108 420.903L112.245 421.04L112.382 421.176L112.519 421.313L112.656 421.45L112.792 421.587L112.929 421.724L113.066 421.861L113.203 421.998L113.34 422.135L113.477 422.272L113.614 422.409L113.751 422.546L113.888 422.683L114.025 422.82L114.162 422.956L114.299 423.093L114.435 423.23L114.572 423.367L114.572 423.367L114.711 423.506L114.855 423.65L115.002 423.797L115.154 423.949L115.31 424.105L115.471 424.266L115.636 424.43L115.805 424.599L115.978 424.773L116.156 424.95L116.337 425.132L116.524 425.318L116.714 425.509L116.909 425.703L117.108 425.902L117.311 426.106L117.518 426.313L117.73 426.525L117.946 426.741L118.167 426.961L118.391 427.186L118.62 427.415L118.853 427.648L119.091 427.886L119.333 428.127L119.579 428.373L119.829 428.624L120.083 428.878L120.342 429.137L120.605 429.4L120.873 429.668L121.145 429.939L121.145 429.939L121.418 430.205L121.692 430.453L121.966 430.684L122.24 430.898L122.514 431.095L122.788 431.274L123.061 431.437L123.335 431.582L123.609 431.711L123.883 431.822L124.157 431.916L124.431 431.993L124.704 432.053L124.978 432.096L125.252 432.122L125.526 432.13L125.8 432.122L126.074 432.096L126.348 432.053L126.621 431.993L126.895 431.916L127.169 431.822L127.443 431.711L127.717 431.582L127.991 431.437L128.264 431.274L128.538 431.095L128.812 430.898L129.086 430.684L129.36 430.453L129.634 430.205L129.907 429.939L129.907 429.939L130.179 429.668L130.447 429.4L130.71 429.137L130.969 428.878L131.223 428.624L131.473 428.373L131.72 428.127L131.961 427.886L132.199 427.648L132.432 427.415L132.661 427.186L132.885 426.961L133.106 426.741L133.322 426.525L133.534 426.313L133.741 426.106L133.944 425.902L134.143 425.703L134.338 425.509L134.529 425.318L134.715 425.132L134.896 424.95L135.074 424.773L135.247 424.599L135.416 424.43L135.581 424.266L135.742 424.105L135.898 423.949L136.05 423.797L136.197 423.65L136.341 423.506L136.48 423.367L136.48 423.367L136.617 423.23L136.753 423.093L136.89 422.956L137.027 422.82L137.164 422.683L137.301 422.546L137.438 422.409L137.575 422.272L137.712 422.135L137.849 421.998L137.986 421.861L138.123 421.724L138.26 421.587L138.396 421.45L138.533 421.313L138.67 421.176L138.807 421.04L138.944 420.903L139.081 420.766L139.218 420.629L139.355 420.492L139.492 420.355L139.629 420.218L139.766 420.081L139.903 419.944L140.04 419.807L140.176 419.67L140.313 419.533L140.45 419.397L140.587 419.26L140.724 419.123L140.861 418.986L140.861 418.986L140.998 418.851L141.135 418.72L141.272 418.594L141.409 418.472L141.546 418.355L141.683 418.241L141.819 418.132L141.956 418.027L142.093 417.927L142.23 417.831L142.367 417.739L142.504 417.651L142.641 417.567L142.778 417.488L142.915 417.413L143.052 417.343L143.189 417.276L143.326 417.214L143.463 417.157L143.599 417.103L143.736 417.054L143.873 417.009L144.01 416.968L144.147 416.932L144.284 416.9L144.421 416.872L144.558 416.849L144.695 416.829L144.832 416.814L144.969 416.804L145.106 416.797L145.242 416.795L145.242 416.795L145.38 416.795L145.521 416.795L145.663 416.795L145.807 416.795L145.954 416.795L146.103 416.795L146.253 416.795L146.406 416.795L146.561 416.795L146.719 416.795L146.878 416.795L147.04 416.795L147.203 416.795L147.369 416.795L147.537 416.795L147.707 416.795L147.879 416.795L148.054 416.795L148.23 416.795L148.409 416.795L148.59 416.795L148.772 416.795L148.958 416.795L149.145 416.795L149.334 416.795L149.526 416.795L149.719 416.795L149.915 416.795L150.113 416.795L150.313 416.795L150.515 416.795L150.719 416.795L150.719 416.795L150.925 416.795L151.13 416.795L151.335 416.795L151.541 416.795L151.746 416.795L151.952 416.795L152.157 416.795L152.362 416.795L152.568 416.795L152.773 416.795L152.978 416.795L153.184 416.795L153.389 416.795L153.595 416.795L153.8 416.795L154.005 416.795L154.211 416.795L154.416 416.795L154.622 416.795L154.827 416.795L155.032 416.795L155.238 416.795L155.443 416.795L155.648 416.795L155.854 416.795L156.059 416.795L156.265 416.795L156.47 416.795L156.675 416.795L156.881 416.795L157.086 416.795L157.291 416.795L157.291 416.795L157.49 416.798L157.677 416.808L157.85 416.824L158.01 416.846L158.158 416.875L158.293 416.911L158.415 416.952L158.524 417L158.62 417.055L158.703 417.116L158.774 417.183L158.832 417.257L158.877 417.337L158.909 417.424L158.928 417.517L158.935 417.617L158.928 417.722L158.909 417.835L158.877 417.954L158.832 418.079L158.774 418.21L158.703 418.348L158.62 418.493L158.524 418.643L158.415 418.801L158.293 418.964L158.158 419.134L158.01 419.311L157.85 419.494L157.677 419.683L157.49 419.879L157.291 420.081L157.291 420.081L157.083 420.29L156.868 420.505L156.646 420.726L156.419 420.954L156.184 421.188L155.944 421.429L155.697 421.676L155.443 421.93L155.183 422.189L154.917 422.456L154.644 422.729L154.365 423.008L154.079 423.293L153.787 423.585L153.489 423.884L153.184 424.189L152.873 424.5L152.555 424.818L152.231 425.142L151.9 425.472L151.563 425.809L151.22 426.153L150.87 426.502L150.514 426.859L150.151 427.221L149.782 427.59L149.407 427.966L149.025 428.348L148.637 428.736L148.242 429.131L147.841 429.532L147.433 429.939"/>
<path class="l5" d="M170.983 206.486L173.722 206.486"/>
<path class="l5" d="M161.673 210.867L158.387 206.486L161.673 202.104L167.697 202.104L170.983 206.486L167.697 210.867L161.673 210.867"/>
<path class="l5" d="M172.627 205.391L174.817 205.391L174.817 207.581L172.627 207.581L172.627 205.391z"/>
<path class="l5" d="M170.983 329.166L173.722 329.166"/>
<path class="l5" d="M161.673 333.548L158.387 329.166L161.673 324.785L167.697 324.785L170.983 329.166L167.697 333.548L161.673 333.548"/>
<path class="l5" d="M172.627 328.071L174.817 328.071L174.817 330.262L172.627 330.262L172.627 328.071z"/>
<path class="l5" d="M286.544 205.391L288.735 205.391L288.735 207.581L286.544 207.581L286.544 205.391z"/>
<path class="l5" d="M286.544 328.071L288.735 328.071L288.735 330.262L286.544 330.262L286.544 328.071z"/>
<path class="l5" d="M294.211 239.347L298.593 239.347L298.593 243.728L294.211 243.728L294.211 239.347z"/>
<path class="l5" d="M294.211 291.924L298.593 291.924L298.593 296.305L294.211 296.305L294.211 291.924z"/>
<path class="l5" d="M170.983 381.744L173.722 381.744"/>
<path class="l5" d="M161.673 386.125L158.387 381.744L161.673 377.362L167.697 377.362L170.983 381.744L167.697 386.125L161.673 386.125"/>
<path class="l5" d="M172.627 380.648L174.817 380.648L174.817 382.839L172.627 382.839L172.627 380.648z"/>
<path class="l5" d="M207.678 380.648L209.869 380.648L209.869 382.839L207.678 382.839L207.678 380.648z"/>
<path class="l6" d="M353.361 443.084L1050.01 443.084"/>
<path class="l6" d="M15.99 443.084L72.9487 443.084"/>
<text fill="#222222"  xml:space="preserve" font-size="18.2268" transform="translate(362.124, 464.015)" >         bandgap_simple_res-10k.sch</text>
<text fill="#222222"  xml:space="preserve" font-size="18.2268" transform="translate(362.124, 437.726)" >(c) 2025 Harald Pretl, Apache-2.0 license</text>
<text fill="#222222"  xml:space="preserve" font-size="18.2268" transform="translate(844.01, 437.726)" >2026-06-12  23:03:12</text>
<text fill="#222222"  xml:space="preserve" font-size="45.567" transform="translate(160.578, 462.551)" >SCHEM</text>
<text fill="#0099cc"  xml:space="preserve" font-size="15.0371" transform="translate(140.333, 211.924)" >rp</text>
<text fill="#0099cc"  xml:space="preserve" font-size="15.0371" transform="translate(140.333, 334.605)" >rn</text>
<text fill="#0099cc"  xml:space="preserve" font-size="12.3031" transform="translate(245.449, 202.45)" >rp,r[1]</text>
<text fill="#0099cc"  xml:space="preserve" font-size="12.3031" transform="translate(245.449, 325.13)" >r[1],rn</text>
<text fill="#666600"  xml:space="preserve" font-size="9.1134" transform="translate(309.547, 272.815)" >w/l = 0.5e-6 / 10e-6</text>
<text fill="#222222"  xml:space="preserve" font-size="9.1134" transform="translate(309.547, 261.861)" >rppd</text>
<text fill="#222222"  xml:space="preserve" font-size="9.1134" transform="translate(309.547, 250.908)" >R[1..2]</text>
<text fill="#666600"  xml:space="preserve" font-size="9.1134" transform="translate(309.547, 302.39)" >R=5.278k</text>
<text fill="#666600"  xml:space="preserve" font-size="9.1134" transform="translate(309.547, 281.578)" >b=0</text>
<text fill="#666600"  xml:space="preserve" font-size="9.1134" transform="translate(309.547, 290.341)" >m=1</text>
<text fill="#0099cc"  xml:space="preserve" font-size="4.5567" transform="translate(277.124, 270.211)" >bn</text>
<text fill="#0099cc"  xml:space="preserve" font-size="15.0371" transform="translate(136.333, 387.182)" >bn</text>
<text fill="#229900"  xml:space="preserve" font-size="6.83505" transform="translate(213.013, 383.944)" >NC</text>
<path class="l1" d="M296.402 206.486L296.402 241.537"/>
<path class="l1" d="M296.402 294.115L296.402 329.166"/>
<path class="l1" d="M226.299 329.166L296.402 329.166"/>
<path class="l1" d="M226.299 206.486L296.402 206.486"/>
<path class="l1" d="M173.722 329.166L208.773 329.166"/>
<path class="l1" d="M173.722 206.486L208.773 206.486"/>
<path class="l1" d="M173.722 381.744L208.773 381.744"/>
</svg>
