<svg xmlns="http://www.w3.org/2000/svg" xmlns:xlink="http://www.w3.org/1999/xlink" width="1072" height="670" version="1.1">
<style type="text/css">
.l0{
  fill: #ffffff;
  stroke: #ffffff;
  stroke-linecap:round;
  stroke-linejoin:round;
  stroke-width: 1.18965;
}
.l1{
  fill: #0099cc;
  stroke: #0099cc;
  stroke-linecap:round;
  stroke-linejoin:round;
  stroke-width: 1.18965;
}
.l2{
  fill: #aaaaaa; fill-opacity: 0.2;
  stroke: #aaaaaa;
  stroke-linecap:round;
  stroke-linejoin:round;
  stroke-width: 1.18965;
}
.l3{
  fill: #222222; fill-opacity: 0.5;
  stroke: #222222;
  stroke-linecap:round;
  stroke-linejoin:round;
  stroke-width: 1.18965;
}
.l4{
  fill: #229900;
  stroke: #229900;
  stroke-linecap:round;
  stroke-linejoin:round;
  stroke-width: 1.18965;
}
.l5{
  fill: #bb2200;
  stroke: #bb2200;
  stroke-linecap:round;
  stroke-linejoin:round;
  stroke-width: 1.18965;
}
.l6{
  fill: #0066cc; fill-opacity: 0.5;
  stroke: #0066cc;
  stroke-linecap:round;
  stroke-linejoin:round;
  stroke-width: 1.18965;
}
.l7{
  fill: #ff0000; fill-opacity: 0.5;
  stroke: #ff0000;
  stroke-linecap:round;
  stroke-linejoin:round;
  stroke-width: 1.18965;
}
.l8{
  fill: #888800; fill-opacity: 0.5;
  stroke: #888800;
  stroke-linecap:round;
  stroke-linejoin:round;
  stroke-width: 1.18965;
}
.l9{
  fill: #00aaaa; fill-opacity: 0.5;
  stroke: #00aaaa;
  stroke-linecap:round;
  stroke-linejoin:round;
  stroke-width: 1.18965;
}
.l10{
  fill: #880088;
  stroke: #880088;
  stroke-linecap:round;
  stroke-linejoin:round;
  stroke-width: 1.18965;
}
.l11{
  fill: #00ff00; fill-opacity: 0.5;
  stroke: #00ff00;
  stroke-linecap:round;
  stroke-linejoin:round;
  stroke-width: 1.18965;
}
.l12{
  fill: #0000cc; fill-opacity: 0.5;
  stroke: #0000cc;
  stroke-linecap:round;
  stroke-linejoin:round;
  stroke-width: 1.18965;
}
.l13{
  fill: #666600; fill-opacity: 0.5;
  stroke: #666600;
  stroke-linecap:round;
  stroke-linejoin:round;
  stroke-width: 1.18965;
}
.l14{
  fill: #557755; fill-opacity: 0.2;
  stroke: #557755;
  stroke-linecap:round;
  stroke-linejoin:round;
  stroke-width: 1.18965;
}
.l15{
  fill: #aa2222; fill-opacity: 0.5;
  stroke: #aa2222;
  stroke-linecap:round;
  stroke-linejoin:round;
  stroke-width: 1.18965;
}
.l16{
  fill: #7ccc40; fill-opacity: 0.5;
  stroke: #7ccc40;
  stroke-linecap:round;
  stroke-linejoin:round;
  stroke-width: 1.18965;
}
.l17{
  fill: #00ffcc; fill-opacity: 0.2;
  stroke: #00ffcc;
  stroke-linecap:round;
  stroke-linejoin:round;
  stroke-width: 1.18965;
}
.l18{
  fill: #ce0097; fill-opacity: 0.5;
  stroke: #ce0097;
  stroke-linecap:round;
  stroke-linejoin:round;
  stroke-width: 1.18965;
}
.l19{
  fill: #d2d46b; fill-opacity: 0.2;
  stroke: #d2d46b;
  stroke-linecap:round;
  stroke-linejoin:round;
  stroke-width: 1.18965;
}
.l20{
  fill: #ef6158; fill-opacity: 0.2;
  stroke: #ef6158;
  stroke-linecap:round;
  stroke-linejoin:round;
  stroke-width: 1.18965;
}
.l21{
  fill: #fdb200; fill-opacity: 0.2;
  stroke: #fdb200;
  stroke-linecap:round;
  stroke-linejoin:round;
  stroke-width: 1.18965;
}
text {font-family: Sans-Serif;}
</style>
<rect class="l0" x="0" y="0" width="1072" height="670"/>
<path class="l4" d="M245.197 283.614L245.197 292.426"/>
<path class="l4" d="M245.197 283.614L251.806 281.411"/>
<path class="l4" d="M238.588 277.005L251.806 281.411"/>
<path class="l4" d="M238.588 277.005L251.806 272.599"/>
<path class="l4" d="M238.588 268.192L251.806 272.599"/>
<path class="l4" d="M238.588 268.192L251.806 263.786"/>
<path class="l4" d="M238.588 259.38L251.806 263.786"/>
<path class="l4" d="M238.588 259.38L251.806 254.974"/>
<path class="l4" d="M238.588 250.568L251.806 254.974"/>
<path class="l4" d="M238.588 250.568L245.197 248.365"/>
<path class="l4" d="M245.197 239.553L245.197 248.365"/>
<path class="l4" d="M386.193 283.614L386.193 292.426"/>
<path class="l4" d="M386.193 283.614L392.802 281.411"/>
<path class="l4" d="M379.583 277.005L392.802 281.411"/>
<path class="l4" d="M379.583 277.005L392.802 272.599"/>
<path class="l4" d="M379.583 268.192L392.802 272.599"/>
<path class="l4" d="M379.583 268.192L392.802 263.786"/>
<path class="l4" d="M379.583 259.38L392.802 263.786"/>
<path class="l4" d="M379.583 259.38L392.802 254.974"/>
<path class="l4" d="M379.583 250.568L392.802 254.974"/>
<path class="l4" d="M379.583 250.568L386.193 248.365"/>
<path class="l4" d="M386.193 239.553L386.193 248.365"/>
<path class="l4" d="M209.948 380.548L213.253 380.548"/>
<path class="l5" d="M148.263 429.015L147.988 429.291L147.712 429.566L147.437 429.841L147.162 430.117L146.886 430.392L146.611 430.667L146.335 430.943L146.06 431.218L145.785 431.494L145.509 431.769L145.234 432.044L144.958 432.32L144.683 432.595L144.408 432.871L144.132 433.146L143.857 433.421L143.582 433.697L143.306 433.972L143.031 434.247L142.755 434.523L142.48 434.798L142.205 435.074L141.929 435.349L141.654 435.624L141.379 435.9L141.103 436.175L140.828 436.45L140.552 436.726L140.277 437.001L140.002 437.277L139.726 437.552L139.451 437.827L139.451 437.827L139.184 438.103L138.935 438.378L138.702 438.654L138.487 438.929L138.289 439.204L138.108 439.48L137.945 439.755L137.799 440.03L137.669 440.306L137.558 440.581L137.463 440.857L137.385 441.132L137.325 441.407L137.282 441.683L137.256 441.958L137.248 442.233L137.256 442.509L137.282 442.784L137.325 443.06L137.385 443.335L137.463 443.61L137.558 443.886L137.669 444.161L137.799 444.437L137.945 444.712L138.108 444.987L138.289 445.263L138.487 445.538L138.702 445.813L138.935 446.089L139.184 446.364L139.451 446.64L139.451 446.64L139.727 446.916L140.006 447.195L140.287 447.475L140.57 447.758L140.855 448.043L141.142 448.331L141.431 448.62L141.723 448.911L142.016 449.205L142.312 449.501L142.61 449.799L142.91 450.099L143.213 450.401L143.517 450.706L143.824 451.012L144.132 451.321L144.443 451.632L144.756 451.945L145.071 452.26L145.389 452.578L145.708 452.897L146.03 453.219L146.354 453.542L146.68 453.868L147.008 454.196L147.338 454.527L147.67 454.859L148.005 455.194L148.342 455.53L148.68 455.869L149.021 456.21L149.365 456.553L149.365 456.553L149.707 456.895L150.044 457.233L150.378 457.567L150.707 457.896L151.032 458.221L151.352 458.541L151.669 458.857L151.981 459.169L152.288 459.477L152.592 459.78L152.891 460.08L153.185 460.374L153.476 460.665L153.762 460.951L154.044 461.233L154.321 461.51L154.595 461.783L154.864 462.052L155.128 462.317L155.389 462.577L155.645 462.833L155.896 463.085L156.144 463.332L156.387 463.576L156.626 463.814L156.86 464.049L157.09 464.279L157.316 464.505L157.538 464.727L157.755 464.944L157.968 465.157L158.177 465.366L158.177 465.366L158.377 465.569L158.564 465.766L158.738 465.956L158.9 466.14L159.048 466.318L159.184 466.489L159.306 466.653L159.416 466.811L159.513 466.963L159.597 467.108L159.668 467.247L159.726 467.379L159.771 467.505L159.803 467.625L159.823 467.737L159.829 467.844L159.823 467.944L159.803 468.038L159.771 468.125L159.726 468.205L159.668 468.28L159.597 468.347L159.513 468.409L159.416 468.464L159.306 468.512L159.184 468.554L159.048 468.589L158.9 468.618L158.738 468.641L158.564 468.657L158.377 468.667L158.177 468.67L158.177 468.67L157.97 468.67L157.764 468.67L157.557 468.67L157.351 468.67L157.144 468.67L156.938 468.67L156.731 468.67L156.524 468.67L156.318 468.67L156.111 468.67L155.905 468.67L155.698 468.67L155.492 468.67L155.285 468.67L155.079 468.67L154.872 468.67L154.666 468.67L154.459 468.67L154.253 468.67L154.046 468.67L153.84 468.67L153.633 468.67L153.426 468.67L153.22 468.67L153.013 468.67L152.807 468.67L152.6 468.67L152.394 468.67L152.187 468.67L151.981 468.67L151.774 468.67L151.568 468.67L151.568 468.67L151.362 468.67L151.159 468.67L150.958 468.67L150.759 468.67L150.562 468.67L150.367 468.67L150.175 468.67L149.984 468.67L149.796 468.67L149.61 468.67L149.426 468.67L149.244 468.67L149.064 468.67L148.887 468.67L148.712 468.67L148.538 468.67L148.367 468.67L148.199 468.67L148.032 468.67L147.867 468.67L147.705 468.67L147.544 468.67L147.386 468.67L147.23 468.67L147.077 468.67L146.925 468.67L146.775 468.67L146.628 468.67L146.483 468.67L146.34 468.67L146.199 468.67L146.06 468.67L146.06 468.67L145.922 468.668L145.785 468.662L145.647 468.651L145.509 468.636L145.372 468.616L145.234 468.593L145.096 468.565L144.958 468.532L144.821 468.496L144.683 468.455L144.545 468.41L144.408 468.36L144.27 468.307L144.132 468.248L143.995 468.186L143.857 468.119L143.719 468.048L143.582 467.973L143.444 467.893L143.306 467.81L143.168 467.721L143.031 467.629L142.893 467.532L142.755 467.431L142.618 467.325L142.48 467.216L142.342 467.102L142.205 466.983L142.067 466.861L141.929 466.734L141.792 466.603L141.654 466.467L141.654 466.467L141.516 466.329L141.379 466.192L141.241 466.054L141.103 465.916L140.965 465.779L140.828 465.641L140.69 465.503L140.552 465.366L140.415 465.228L140.277 465.09L140.139 464.952L140.002 464.815L139.864 464.677L139.726 464.539L139.589 464.402L139.451 464.264L139.313 464.126L139.175 463.989L139.038 463.851L138.9 463.713L138.762 463.576L138.625 463.438L138.487 463.3L138.349 463.162L138.212 463.025L138.074 462.887L137.936 462.749L137.799 462.612L137.661 462.474L137.523 462.336L137.385 462.199L137.248 462.061L137.248 462.061L137.108 461.921L136.964 461.777L136.815 461.629L136.663 461.476L136.506 461.319L136.344 461.157L136.179 460.992L136.009 460.822L135.834 460.647L135.656 460.469L135.473 460.286L135.286 460.099L135.094 459.907L134.898 459.712L134.698 459.512L134.494 459.307L134.285 459.098L134.072 458.885L133.855 458.668L133.633 458.447L133.408 458.221L133.177 457.99L132.943 457.756L132.704 457.517L132.461 457.274L132.213 457.027L131.962 456.775L131.706 456.519L131.445 456.259L131.181 455.994L130.912 455.725L130.639 455.452L130.639 455.452L130.363 455.185L130.088 454.935L129.812 454.703L129.537 454.488L129.262 454.29L128.986 454.109L128.711 453.946L128.436 453.8L128.16 453.67L127.885 453.559L127.609 453.464L127.334 453.386L127.059 453.326L126.783 453.283L126.508 453.257L126.233 453.249L125.957 453.257L125.682 453.283L125.406 453.326L125.131 453.386L124.856 453.464L124.58 453.559L124.305 453.67L124.029 453.8L123.754 453.946L123.479 454.109L123.203 454.29L122.928 454.488L122.653 454.703L122.377 454.935L122.102 455.185L121.826 455.452L121.826 455.452L121.553 455.725L121.284 455.994L121.02 456.259L120.759 456.519L120.503 456.775L120.252 457.027L120.004 457.274L119.761 457.517L119.522 457.756L119.288 457.99L119.058 458.221L118.832 458.447L118.61 458.668L118.393 458.885L118.18 459.098L117.971 459.307L117.767 459.512L117.567 459.712L117.371 459.907L117.179 460.099L116.992 460.286L116.809 460.469L116.631 460.647L116.457 460.822L116.287 460.992L116.121 461.157L115.96 461.319L115.802 461.476L115.65 461.629L115.501 461.777L115.357 461.921L115.217 462.061L115.217 462.061L115.08 462.199L114.942 462.336L114.804 462.474L114.667 462.612L114.529 462.749L114.391 462.887L114.253 463.025L114.116 463.162L113.978 463.3L113.84 463.438L113.703 463.576L113.565 463.713L113.427 463.851L113.29 463.989L113.152 464.126L113.014 464.264L112.877 464.402L112.739 464.539L112.601 464.677L112.463 464.815L112.326 464.952L112.188 465.09L112.05 465.228L111.913 465.366L111.775 465.503L111.637 465.641L111.5 465.779L111.362 465.916L111.224 466.054L111.087 466.192L110.949 466.329L110.811 466.467L110.811 466.467L110.673 466.603L110.536 466.734L110.398 466.861L110.26 466.983L110.123 467.102L109.985 467.216L109.847 467.325L109.71 467.431L109.572 467.532L109.434 467.629L109.297 467.721L109.159 467.81L109.021 467.893L108.884 467.973L108.746 468.048L108.608 468.119L108.47 468.186L108.333 468.248L108.195 468.307L108.057 468.36L107.92 468.41L107.782 468.455L107.644 468.496L107.507 468.532L107.369 468.565L107.231 468.593L107.094 468.616L106.956 468.636L106.818 468.651L106.68 468.662L106.543 468.668L106.405 468.67L106.405 468.67L106.266 468.67L106.125 468.67L105.982 468.67L105.837 468.67L105.69 468.67L105.54 468.67L105.389 468.67L105.235 468.67L105.079 468.67L104.921 468.67L104.76 468.67L104.598 468.67L104.433 468.67L104.267 468.67L104.098 468.67L103.927 468.67L103.753 468.67L103.578 468.67L103.401 468.67L103.221 468.67L103.039 468.67L102.855 468.67L102.669 468.67L102.481 468.67L102.291 468.67L102.098 468.67L101.903 468.67L101.706 468.67L101.507 468.67L101.306 468.67L101.103 468.67L100.897 468.67L100.897 468.67L100.691 468.67L100.484 468.67L100.278 468.67L100.071 468.67L99.8648 468.67L99.6582 468.67L99.4517 468.67L99.2452 468.67L99.0386 468.67L98.8321 468.67L98.6256 468.67L98.419 468.67L98.2125 468.67L98.006 468.67L97.7994 468.67L97.5929 468.67L97.3863 468.67L97.1798 468.67L96.9733 468.67L96.7667 468.67L96.5602 468.67L96.3537 468.67L96.1471 468.67L95.9406 468.67L95.7341 468.67L95.5275 468.67L95.321 468.67L95.1144 468.67L94.9079 468.67L94.7014 468.67L94.4948 468.67L94.2883 468.67L94.2883 468.67L94.0882 468.667L93.9011 468.657L93.7268 468.641L93.5654 468.618L93.417 468.589L93.2814 468.554L93.1588 468.512L93.0491 468.464L92.9523 468.409L92.8684 468.347L92.7974 468.28L92.7393 468.205L92.6941 468.125L92.6618 468.038L92.6425 467.944L92.636 467.844L92.6425 467.737L92.6618 467.625L92.6941 467.505L92.7393 467.379L92.7974 467.247L92.8684 467.108L92.9523 466.963L93.0491 466.811L93.1588 466.653L93.2814 466.489L93.417 466.318L93.5654 466.14L93.7268 465.956L93.9011 465.766L94.0882 465.569L94.2883 465.366L94.2883 465.366L94.497 465.157L94.71 464.944L94.9273 464.727L95.1489 464.505L95.3748 464.279L95.605 464.049L95.8395 463.814L96.0783 463.576L96.3214 463.332L96.5688 463.085L96.8205 462.833L97.0765 462.577L97.3369 462.317L97.6015 462.052L97.8704 461.783L98.1436 461.51L98.4212 461.233L98.703 460.951L98.9892 460.665L99.2796 460.374L99.5743 460.08L99.8734 459.78L100.177 459.477L100.484 459.169L100.796 458.857L101.113 458.541L101.433 458.221L101.758 457.896L102.087 457.567L102.421 457.233L102.758 456.895L103.101 456.553L103.101 456.553L103.444 456.21L103.785 455.869L104.124 455.53L104.46 455.194L104.795 454.859L105.127 454.527L105.457 454.196L105.785 453.868L106.111 453.542L106.435 453.219L106.757 452.897L107.076 452.578L107.394 452.26L107.709 451.945L108.022 451.632L108.333 451.321L108.641 451.012L108.948 450.706L109.252 450.401L109.555 450.099L109.855 449.799L110.153 449.501L110.449 449.205L110.742 448.911L111.034 448.62L111.323 448.331L111.61 448.043L111.896 447.758L112.178 447.475L112.459 447.195L112.738 446.916L113.014 446.64L113.014 446.64L113.281 446.364L113.531 446.089L113.763 445.813L113.978 445.538L114.176 445.263L114.357 444.987L114.52 444.712L114.667 444.437L114.796 444.161L114.907 443.886L115.002 443.61L115.08 443.335L115.14 443.06L115.183 442.784L115.209 442.509L115.217 442.233L115.209 441.958L115.183 441.683L115.14 441.407L115.08 441.132L115.002 440.857L114.907 440.581L114.796 440.306L114.667 440.03L114.52 439.755L114.357 439.48L114.176 439.204L113.978 438.929L113.763 438.654L113.531 438.378L113.281 438.103L113.014 437.827L113.014 437.827L112.738 437.551L112.459 437.272L112.178 436.992L111.896 436.709L111.61 436.424L111.323 436.136L111.034 435.847L110.742 435.556L110.449 435.262L110.153 434.966L109.855 434.668L109.555 434.368L109.252 434.066L108.948 433.761L108.641 433.455L108.333 433.146L108.022 432.835L107.709 432.522L107.394 432.207L107.076 431.889L106.757 431.57L106.435 431.248L106.111 430.925L105.785 430.599L105.457 430.271L105.127 429.94L104.795 429.608L104.46 429.273L104.124 428.937L103.785 428.598L103.444 428.257L103.101 427.914L103.101 427.914L102.758 427.572L102.421 427.234L102.087 426.9L101.758 426.571L101.433 426.246L101.113 425.926L100.796 425.61L100.484 425.298L100.177 424.99L99.8734 424.687L99.5743 424.387L99.2796 424.093L98.9892 423.802L98.703 423.516L98.4212 423.234L98.1436 422.957L97.8704 422.684L97.6015 422.415L97.3369 422.15L97.0765 421.89L96.8205 421.634L96.5688 421.382L96.3214 421.135L96.0783 420.891L95.8395 420.653L95.605 420.418L95.3748 420.188L95.1489 419.962L94.9273 419.74L94.71 419.523L94.497 419.31L94.2883 419.101L94.2883 419.101L94.0882 418.898L93.9011 418.701L93.7268 418.511L93.5654 418.327L93.417 418.149L93.2814 417.978L93.1588 417.814L93.0491 417.656L92.9523 417.504L92.8684 417.359L92.7974 417.22L92.7393 417.088L92.6941 416.962L92.6618 416.842L92.6425 416.73L92.636 416.623L92.6425 416.523L92.6618 416.429L92.6941 416.342L92.7393 416.262L92.7974 416.187L92.8684 416.12L92.9523 416.058L93.0491 416.003L93.1588 415.955L93.2814 415.913L93.417 415.878L93.5654 415.849L93.7268 415.826L93.9011 415.81L94.0882 415.8L94.2883 415.797L94.2883 415.797L94.4948 415.797L94.7014 415.797L94.9079 415.797L95.1144 415.797L95.321 415.797L95.5275 415.797L95.7341 415.797L95.9406 415.797L96.1471 415.797L96.3537 415.797L96.5602 415.797L96.7667 415.797L96.9733 415.797L97.1798 415.797L97.3863 415.797L97.5929 415.797L97.7994 415.797L98.006 415.797L98.2125 415.797L98.419 415.797L98.6256 415.797L98.8321 415.797L99.0386 415.797L99.2452 415.797L99.4517 415.797L99.6582 415.797L99.8648 415.797L100.071 415.797L100.278 415.797L100.484 415.797L100.691 415.797L100.897 415.797L100.897 415.797L101.103 415.797L101.306 415.797L101.507 415.797L101.706 415.797L101.903 415.797L102.098 415.797L102.291 415.797L102.481 415.797L102.669 415.797L102.855 415.797L103.039 415.797L103.221 415.797L103.401 415.797L103.578 415.797L103.753 415.797L103.927 415.797L104.098 415.797L104.267 415.797L104.433 415.797L104.598 415.797L104.76 415.797L104.921 415.797L105.079 415.797L105.235 415.797L105.389 415.797L105.54 415.797L105.69 415.797L105.837 415.797L105.982 415.797L106.125 415.797L106.266 415.797L106.405 415.797L106.405 415.797L106.543 415.799L106.68 415.805L106.818 415.816L106.956 415.831L107.094 415.851L107.231 415.874L107.369 415.902L107.507 415.935L107.644 415.971L107.782 416.012L107.92 416.057L108.057 416.107L108.195 416.16L108.333 416.219L108.47 416.281L108.608 416.348L108.746 416.419L108.884 416.494L109.021 416.574L109.159 416.657L109.297 416.746L109.434 416.838L109.572 416.935L109.71 417.036L109.847 417.142L109.985 417.251L110.123 417.365L110.26 417.484L110.398 417.606L110.536 417.733L110.673 417.864L110.811 418L110.811 418L110.949 418.138L111.087 418.275L111.224 418.413L111.362 418.551L111.5 418.688L111.637 418.826L111.775 418.964L111.913 419.101L112.05 419.239L112.188 419.377L112.326 419.515L112.463 419.652L112.601 419.79L112.739 419.928L112.877 420.065L113.014 420.203L113.152 420.341L113.29 420.478L113.427 420.616L113.565 420.754L113.703 420.891L113.84 421.029L113.978 421.167L114.116 421.305L114.253 421.442L114.391 421.58L114.529 421.718L114.667 421.855L114.804 421.993L114.942 422.131L115.08 422.268L115.217 422.406L115.217 422.406L115.357 422.546L115.501 422.69L115.65 422.838L115.802 422.991L115.96 423.148L116.121 423.31L116.287 423.475L116.457 423.645L116.631 423.82L116.809 423.998L116.992 424.181L117.179 424.368L117.371 424.56L117.567 424.755L117.767 424.955L117.971 425.16L118.18 425.369L118.393 425.582L118.61 425.799L118.832 426.02L119.058 426.246L119.288 426.477L119.522 426.711L119.761 426.95L120.004 427.193L120.252 427.44L120.503 427.692L120.759 427.948L121.02 428.208L121.284 428.473L121.553 428.742L121.826 429.015L121.826 429.015L122.102 429.282L122.377 429.532L122.653 429.764L122.928 429.979L123.203 430.177L123.479 430.358L123.754 430.521L124.029 430.667L124.305 430.797L124.58 430.908L124.856 431.003L125.131 431.081L125.406 431.141L125.682 431.184L125.957 431.21L126.233 431.218L126.508 431.21L126.783 431.184L127.059 431.141L127.334 431.081L127.609 431.003L127.885 430.908L128.16 430.797L128.436 430.667L128.711 430.521L128.986 430.358L129.262 430.177L129.537 429.979L129.812 429.764L130.088 429.532L130.363 429.282L130.639 429.015L130.639 429.015L130.912 428.742L131.181 428.473L131.445 428.208L131.706 427.948L131.962 427.692L132.213 427.44L132.461 427.193L132.704 426.95L132.943 426.711L133.177 426.477L133.408 426.246L133.633 426.02L133.855 425.799L134.072 425.582L134.285 425.369L134.494 425.16L134.698 424.955L134.898 424.755L135.094 424.56L135.286 424.368L135.473 424.181L135.656 423.998L135.834 423.82L136.009 423.645L136.179 423.475L136.344 423.31L136.506 423.148L136.663 422.991L136.815 422.838L136.964 422.69L137.108 422.546L137.248 422.406L137.248 422.406L137.385 422.268L137.523 422.131L137.661 421.993L137.799 421.855L137.936 421.718L138.074 421.58L138.212 421.442L138.349 421.305L138.487 421.167L138.625 421.029L138.762 420.891L138.9 420.754L139.038 420.616L139.175 420.478L139.313 420.341L139.451 420.203L139.589 420.065L139.726 419.928L139.864 419.79L140.002 419.652L140.139 419.515L140.277 419.377L140.415 419.239L140.552 419.101L140.69 418.964L140.828 418.826L140.965 418.688L141.103 418.551L141.241 418.413L141.379 418.275L141.516 418.138L141.654 418L141.654 418L141.792 417.864L141.929 417.733L142.067 417.606L142.205 417.484L142.342 417.365L142.48 417.251L142.618 417.142L142.755 417.036L142.893 416.935L143.031 416.838L143.168 416.746L143.306 416.657L143.444 416.574L143.582 416.494L143.719 416.419L143.857 416.348L143.995 416.281L144.132 416.219L144.27 416.16L144.408 416.107L144.545 416.057L144.683 416.012L144.821 415.971L144.958 415.935L145.096 415.902L145.234 415.874L145.372 415.851L145.509 415.831L145.647 415.816L145.785 415.805L145.922 415.799L146.06 415.797L146.06 415.797L146.199 415.797L146.34 415.797L146.483 415.797L146.628 415.797L146.775 415.797L146.925 415.797L147.077 415.797L147.23 415.797L147.386 415.797L147.544 415.797L147.705 415.797L147.867 415.797L148.032 415.797L148.199 415.797L148.367 415.797L148.538 415.797L148.712 415.797L148.887 415.797L149.064 415.797L149.244 415.797L149.426 415.797L149.61 415.797L149.796 415.797L149.984 415.797L150.175 415.797L150.367 415.797L150.562 415.797L150.759 415.797L150.958 415.797L151.159 415.797L151.362 415.797L151.568 415.797L151.568 415.797L151.774 415.797L151.981 415.797L152.187 415.797L152.394 415.797L152.6 415.797L152.807 415.797L153.013 415.797L153.22 415.797L153.426 415.797L153.633 415.797L153.84 415.797L154.046 415.797L154.253 415.797L154.459 415.797L154.666 415.797L154.872 415.797L155.079 415.797L155.285 415.797L155.492 415.797L155.698 415.797L155.905 415.797L156.111 415.797L156.318 415.797L156.524 415.797L156.731 415.797L156.938 415.797L157.144 415.797L157.351 415.797L157.557 415.797L157.764 415.797L157.97 415.797L158.177 415.797L158.177 415.797L158.377 415.8L158.564 415.81L158.738 415.826L158.9 415.849L159.048 415.878L159.184 415.913L159.306 415.955L159.416 416.003L159.513 416.058L159.597 416.12L159.668 416.187L159.726 416.262L159.771 416.342L159.803 416.429L159.823 416.523L159.829 416.623L159.823 416.73L159.803 416.842L159.771 416.962L159.726 417.088L159.668 417.22L159.597 417.359L159.513 417.504L159.416 417.656L159.306 417.814L159.184 417.978L159.048 418.149L158.9 418.327L158.738 418.511L158.564 418.701L158.377 418.898L158.177 419.101L158.177 419.101L157.967 419.311L157.751 419.527L157.528 419.75L157.299 419.979L157.063 420.215L156.821 420.457L156.573 420.705L156.318 420.96L156.057 421.222L155.789 421.49L155.514 421.764L155.234 422.045L154.946 422.332L154.653 422.625L154.353 422.926L154.046 423.232L153.733 423.545L153.414 423.865L153.088 424.191L152.755 424.523L152.416 424.862L152.071 425.207L151.719 425.559L151.361 425.917L150.996 426.282L150.625 426.653L150.248 427.031L149.864 427.415L149.473 427.805L149.076 428.202L148.673 428.605L148.263 429.015"/>
<path class="l5" d="M171.946 204.304L174.7 204.304"/>
<path class="l5" d="M162.583 208.71L159.278 204.304L162.583 199.898L168.641 199.898L171.946 204.304L168.641 208.71L162.583 208.71"/>
<path class="l5" d="M173.598 203.202L175.801 203.202L175.801 205.406L173.598 205.406L173.598 203.202z"/>
<path class="l5" d="M171.946 327.675L174.7 327.675"/>
<path class="l5" d="M162.583 332.081L159.278 327.675L162.583 323.269L168.641 323.269L171.946 327.675L168.641 332.081L162.583 332.081"/>
<path class="l5" d="M173.598 326.573L175.801 326.573L175.801 328.776L173.598 328.776L173.598 326.573z"/>
<path class="l5" d="M242.994 290.223L247.4 290.223L247.4 294.629L242.994 294.629L242.994 290.223z"/>
<path class="l5" d="M242.994 237.35L247.4 237.35L247.4 241.756L242.994 241.756L242.994 237.35z"/>
<path class="l5" d="M383.989 290.223L388.396 290.223L388.396 294.629L383.989 294.629L383.989 290.223z"/>
<path class="l5" d="M383.989 237.35L388.396 237.35L388.396 241.756L383.989 241.756L383.989 237.35z"/>
<path class="l5" d="M171.946 380.548L174.7 380.548"/>
<path class="l5" d="M162.583 384.954L159.278 380.548L162.583 376.142L168.641 376.142L171.946 380.548L168.641 384.954L162.583 384.954"/>
<path class="l5" d="M173.598 379.447L175.801 379.447L175.801 381.65L173.598 381.65L173.598 379.447z"/>
<path class="l5" d="M208.847 379.447L211.05 379.447L211.05 381.65L208.847 381.65L208.847 379.447z"/>
<path class="l6" d="M355.35 442.233L1055.92 442.233"/>
<path class="l6" d="M16.08 442.233L73.3593 442.233"/>
<text fill="#222222"  xml:space="preserve" font-size="18.3294" transform="translate(364.162, 463.283)" >         bandgap_banba_res-13k.sch</text>
<text fill="#222222"  xml:space="preserve" font-size="18.3294" transform="translate(364.162, 436.846)" >(c) 2024-2025 Harald Pretl, Apache-2.0 license</text>
<text fill="#222222"  xml:space="preserve" font-size="18.3294" transform="translate(849.92, 436.846)" >2025-10-02  10:39:47</text>
<text fill="#222222"  xml:space="preserve" font-size="45.8235" transform="translate(161.481, 461.811)" >SCHEM</text>
<text fill="#0099cc"  xml:space="preserve" font-size="15.1217" transform="translate(141.213, 209.773)" >rp</text>
<text fill="#0099cc"  xml:space="preserve" font-size="15.1217" transform="translate(141.213, 333.144)" >rn</text>
<text fill="#666600"  xml:space="preserve" font-size="9.16469" transform="translate(258.416, 271.006)" >w/l = 0.5e-6 / 3e-6</text>
<text fill="#222222"  xml:space="preserve" font-size="9.16469" transform="translate(258.416, 259.991)" >rhigh</text>
<text fill="#222222"  xml:space="preserve" font-size="9.16469" transform="translate(258.416, 248.976)" >XR1</text>
<text fill="#666600"  xml:space="preserve" font-size="9.16469" transform="translate(258.416, 300.748)" >R=9190 </text>
<text fill="#666600"  xml:space="preserve" font-size="9.16469" transform="translate(258.416, 279.819)" >b=0</text>
<text fill="#666600"  xml:space="preserve" font-size="9.16469" transform="translate(258.416, 288.631)" >m=1</text>
<text fill="#0099cc"  xml:space="preserve" font-size="4.58235" transform="translate(225.81, 268.388)" >bn</text>
<text fill="#666600"  xml:space="preserve" font-size="9.16469" transform="translate(399.411, 271.006)" >w/l = 0.5e-6 / 3e-6</text>
<text fill="#222222"  xml:space="preserve" font-size="9.16469" transform="translate(399.411, 259.991)" >rhigh</text>
<text fill="#222222"  xml:space="preserve" font-size="9.16469" transform="translate(399.411, 248.976)" >XR2[1..3]</text>
<text fill="#666600"  xml:space="preserve" font-size="9.16469" transform="translate(399.411, 300.748)" >R=9190 </text>
<text fill="#666600"  xml:space="preserve" font-size="9.16469" transform="translate(399.411, 279.819)" >b=0</text>
<text fill="#666600"  xml:space="preserve" font-size="9.16469" transform="translate(399.411, 288.631)" >m=1</text>
<text fill="#0099cc"  xml:space="preserve" font-size="4.58235" transform="translate(366.806, 268.388)" >bn</text>
<text fill="#0099cc"  xml:space="preserve" font-size="15.1217" transform="translate(137.213, 386.017)" >bn</text>
<text fill="#229900"  xml:space="preserve" font-size="6.87352" transform="translate(214.268, 382.761)" >NC</text>
<path class="l1" d="M245.197 292.426L245.197 327.675"/>
<path class="l1" d="M174.7 327.675L245.197 327.675"/>
<path class="l1" d="M174.7 204.304L386.193 204.304"/>
<path class="l1" d="M386.193 204.304L386.193 239.553"/>
<path class="l1" d="M245.197 221.928L245.197 239.553"/>
<path class="l1" d="M245.197 221.928L350.944 221.928"/>
<path class="l1" d="M350.944 310.05L386.193 310.05"/>
<path class="l1" d="M350.944 221.928L350.944 310.05"/>
<path class="l1" d="M386.193 292.426L386.193 310.05"/>
<path class="l1" d="M174.7 380.548L209.948 380.548"/>
</svg>
