<svg xmlns="http://www.w3.org/2000/svg" xmlns:xlink="http://www.w3.org/1999/xlink" width="1072" height="670" version="1.1">
<style type="text/css">
.l0{
  fill: #ffffff;
  stroke: #ffffff;
  stroke-linecap:round;
  stroke-linejoin:round;
  stroke-width: 0.807887;
}
.l1{
  fill: #0099cc;
  stroke: #0099cc;
  stroke-linecap:round;
  stroke-linejoin:round;
  stroke-width: 0.807887;
}
.l2{
  fill: #aaaaaa; fill-opacity: 0.2;
  stroke: #aaaaaa;
  stroke-linecap:round;
  stroke-linejoin:round;
  stroke-width: 0.807887;
}
.l3{
  fill: #222222; fill-opacity: 0.5;
  stroke: #222222;
  stroke-linecap:round;
  stroke-linejoin:round;
  stroke-width: 0.807887;
}
.l4{
  fill: #229900;
  stroke: #229900;
  stroke-linecap:round;
  stroke-linejoin:round;
  stroke-width: 0.807887;
}
.l5{
  fill: #bb2200;
  stroke: #bb2200;
  stroke-linecap:round;
  stroke-linejoin:round;
  stroke-width: 0.807887;
}
.l6{
  fill: #0066cc; fill-opacity: 0.5;
  stroke: #0066cc;
  stroke-linecap:round;
  stroke-linejoin:round;
  stroke-width: 0.807887;
}
.l7{
  fill: #ff0000; fill-opacity: 0.5;
  stroke: #ff0000;
  stroke-linecap:round;
  stroke-linejoin:round;
  stroke-width: 0.807887;
}
.l8{
  fill: #888800; fill-opacity: 0.5;
  stroke: #888800;
  stroke-linecap:round;
  stroke-linejoin:round;
  stroke-width: 0.807887;
}
.l9{
  fill: #00aaaa; fill-opacity: 0.5;
  stroke: #00aaaa;
  stroke-linecap:round;
  stroke-linejoin:round;
  stroke-width: 0.807887;
}
.l10{
  fill: #880088;
  stroke: #880088;
  stroke-linecap:round;
  stroke-linejoin:round;
  stroke-width: 0.807887;
}
.l11{
  fill: #00ff00; fill-opacity: 0.5;
  stroke: #00ff00;
  stroke-linecap:round;
  stroke-linejoin:round;
  stroke-width: 0.807887;
}
.l12{
  fill: #0000cc; fill-opacity: 0.5;
  stroke: #0000cc;
  stroke-linecap:round;
  stroke-linejoin:round;
  stroke-width: 0.807887;
}
.l13{
  fill: #666600; fill-opacity: 0.5;
  stroke: #666600;
  stroke-linecap:round;
  stroke-linejoin:round;
  stroke-width: 0.807887;
}
.l14{
  fill: #557755; fill-opacity: 0.2;
  stroke: #557755;
  stroke-linecap:round;
  stroke-linejoin:round;
  stroke-width: 0.807887;
}
.l15{
  fill: #aa2222; fill-opacity: 0.5;
  stroke: #aa2222;
  stroke-linecap:round;
  stroke-linejoin:round;
  stroke-width: 0.807887;
}
.l16{
  fill: #7ccc40; fill-opacity: 0.5;
  stroke: #7ccc40;
  stroke-linecap:round;
  stroke-linejoin:round;
  stroke-width: 0.807887;
}
.l17{
  fill: #00ffcc; fill-opacity: 0.2;
  stroke: #00ffcc;
  stroke-linecap:round;
  stroke-linejoin:round;
  stroke-width: 0.807887;
}
.l18{
  fill: #ce0097; fill-opacity: 0.5;
  stroke: #ce0097;
  stroke-linecap:round;
  stroke-linejoin:round;
  stroke-width: 0.807887;
}
.l19{
  fill: #d2d46b; fill-opacity: 0.2;
  stroke: #d2d46b;
  stroke-linecap:round;
  stroke-linejoin:round;
  stroke-width: 0.807887;
}
.l20{
  fill: #ef6158; fill-opacity: 0.2;
  stroke: #ef6158;
  stroke-linecap:round;
  stroke-linejoin:round;
  stroke-width: 0.807887;
}
.l21{
  fill: #fdb200; fill-opacity: 0.2;
  stroke: #fdb200;
  stroke-linecap:round;
  stroke-linejoin:round;
  stroke-width: 0.807887;
}
text {font-family: Sans-Serif;}
</style>
<rect class="l0" x="0" y="0" width="1072" height="670"/>
<path class="l4" d="M81.0401 629.43L81.0401 647.383"/>
<path class="l4" d="M75.0557 638.406L81.0401 638.406"/>
<path class="l4" d="M93.0088 554.626L134.899 554.626"/>
<path class="l4" d="M93.0088 554.626L93.0088 566.594"/>
<path class="l4" d="M93.0088 321.236L134.899 321.236"/>
<path class="l4" d="M93.0088 321.236L93.0088 333.205"/>
<path class="l4" d="M321.91 421.474L324.902 421.474"/>
<path class="l4" d="M323.406 419.978L323.406 422.97"/>
<path class="l4" d="M320.414 416.986L320.414 452.892"/>
<circle class="l4" cx="320.414" cy="434.939" r="8.97652" style="fill:none;" />
<path class="l4" d="M320.414 488.798L320.414 496.278"/>
<path class="l4" d="M317.422 496.278L323.406 496.278"/>
<path class="l4" d="M320.414 499.27L323.406 496.278"/>
<path class="l4" d="M317.422 496.278L320.414 499.27"/>
<path class="l4" d="M392.226 566.594L374.273 559.114L374.273 563.602L356.32 563.602L362.304 566.594L356.32 569.586L374.273 569.586L374.273 574.075L392.226 566.594"/>
<path class="l4" d="M535.85 566.594L517.897 559.114L517.897 563.602L499.944 563.602L505.929 566.594L499.944 569.586L517.897 569.586L517.897 574.075L535.85 566.594"/>
<path class="l4" d="M440.101 416.986L440.101 452.892"/>
<path class="l4" d="M440.101 434.939L452.07 434.939"/>
<path class="l4" d="M428.132 416.986L434.117 422.97"/>
<path class="l4" d="M428.132 452.892L440.101 440.923"/>
<path class="l4" d="M440.101 428.954L431.124 425.962L437.109 419.978L440.101 428.954"/>
<path class="l4" d="M679.475 416.986L679.475 452.892"/>
<path class="l4" d="M667.506 434.939L679.475 434.939"/>
<path class="l4" d="M685.459 422.97L691.443 416.986"/>
<path class="l4" d="M679.475 440.923L691.443 452.892"/>
<path class="l4" d="M679.475 428.954L688.451 425.962L682.467 419.978L679.475 428.954"/>
<path class="l4" d="M435.613 301.787L435.613 328.716"/>
<path class="l4" d="M428.132 297.299L428.132 304.779"/>
<path class="l4" d="M428.132 325.724L428.132 333.205"/>
<path class="l4" d="M438.605 306.275L438.605 324.228"/>
<path class="l4" d="M428.132 325.724L435.613 325.724"/>
<path class="l4" d="M428.132 304.779L435.613 304.779"/>
<path class="l4" d="M438.904 315.252L452.07 315.252"/>
<path class="l4" d="M431.124 327.22L428.132 325.724L431.124 324.228L431.124 327.22"/>
<path class="l4" d="M799.162 416.986L799.162 452.892"/>
<path class="l4" d="M787.193 434.939L799.162 434.939"/>
<path class="l4" d="M805.146 422.97L811.13 416.986"/>
<path class="l4" d="M799.162 440.923L811.13 452.892"/>
<path class="l4" d="M799.162 428.954L808.138 425.962L802.154 419.978L799.162 428.954"/>
<path class="l4" d="M428.132 357.142L428.132 393.048"/>
<path class="l4" d="M423.644 375.095L428.132 381.079"/>
<path class="l4" d="M428.132 381.079L432.62 375.095"/>
<path class="l4" d="M811.13 255.408L811.13 291.314"/>
<path class="l4" d="M806.642 273.361L811.13 279.346"/>
<path class="l4" d="M811.13 279.346L815.619 273.361"/>
<path class="l4" d="M435.613 110.288L435.613 137.217"/>
<path class="l4" d="M428.132 105.8L428.132 113.28"/>
<path class="l4" d="M428.132 134.225L428.132 141.706"/>
<path class="l4" d="M438.605 114.776L438.605 132.729"/>
<path class="l4" d="M428.132 134.225L435.613 134.225"/>
<path class="l4" d="M428.132 113.28L435.613 113.28"/>
<path class="l4" d="M438.904 123.753L452.07 123.753"/>
<path class="l4" d="M432.62 111.784L435.613 113.28L432.62 114.776L432.62 111.784"/>
<path class="l4" d="M435.613 253.912L435.613 280.842"/>
<path class="l4" d="M428.132 249.424L428.132 256.904"/>
<path class="l4" d="M428.132 277.849L428.132 285.33"/>
<path class="l4" d="M438.605 258.4L438.605 276.353"/>
<path class="l4" d="M428.132 277.849L435.613 277.849"/>
<path class="l4" d="M428.132 256.904L435.613 256.904"/>
<path class="l4" d="M438.904 267.377L452.07 267.377"/>
<path class="l4" d="M431.124 279.346L428.132 277.849L431.124 276.353L431.124 279.346"/>
<path class="l4" d="M683.963 301.787L683.963 328.716"/>
<path class="l4" d="M691.443 297.299L691.443 304.779"/>
<path class="l4" d="M691.443 325.724L691.443 333.205"/>
<path class="l4" d="M680.971 306.275L680.971 324.228"/>
<path class="l4" d="M683.963 325.724L691.443 325.724"/>
<path class="l4" d="M683.963 304.779L691.443 304.779"/>
<path class="l4" d="M667.506 315.252L680.672 315.252"/>
<path class="l4" d="M688.451 327.22L691.443 325.724L688.451 324.228L688.451 327.22"/>
<path class="l4" d="M683.963 253.912L683.963 280.842"/>
<path class="l4" d="M691.443 249.424L691.443 256.904"/>
<path class="l4" d="M691.443 277.849L691.443 285.33"/>
<path class="l4" d="M680.971 258.4L680.971 276.353"/>
<path class="l4" d="M683.963 277.849L691.443 277.849"/>
<path class="l4" d="M683.963 256.904L691.443 256.904"/>
<path class="l4" d="M667.506 267.377L680.672 267.377"/>
<path class="l4" d="M688.451 279.346L691.443 277.849L688.451 276.353L688.451 279.346"/>
<path class="l4" d="M435.613 62.413L435.613 89.3426"/>
<path class="l4" d="M428.132 57.9248L428.132 65.4052"/>
<path class="l4" d="M428.132 86.3504L428.132 93.8308"/>
<path class="l4" d="M438.605 66.9013L438.605 84.8543"/>
<path class="l4" d="M428.132 86.3504L435.613 86.3504"/>
<path class="l4" d="M428.132 65.4052L435.613 65.4052"/>
<path class="l4" d="M438.904 75.8778L452.07 75.8778"/>
<path class="l4" d="M432.62 63.9091L435.613 65.4052L432.62 66.9013L432.62 63.9091"/>
<path class="l4" d="M683.963 110.288L683.963 137.217"/>
<path class="l4" d="M691.443 105.8L691.443 113.28"/>
<path class="l4" d="M691.443 134.225L691.443 141.706"/>
<path class="l4" d="M680.971 114.776L680.971 132.729"/>
<path class="l4" d="M683.963 134.225L691.443 134.225"/>
<path class="l4" d="M683.963 113.28L691.443 113.28"/>
<path class="l4" d="M667.506 123.753L680.672 123.753"/>
<path class="l4" d="M686.955 111.784L683.963 113.28L686.955 114.776L686.955 111.784"/>
<path class="l4" d="M683.963 62.413L683.963 89.3426"/>
<path class="l4" d="M691.443 57.9248L691.443 65.4052"/>
<path class="l4" d="M691.443 86.3504L691.443 93.8308"/>
<path class="l4" d="M680.971 66.9013L680.971 84.8543"/>
<path class="l4" d="M683.963 86.3504L691.443 86.3504"/>
<path class="l4" d="M683.963 65.4052L691.443 65.4052"/>
<path class="l4" d="M667.506 75.8778L680.672 75.8778"/>
<path class="l4" d="M686.955 63.9091L683.963 65.4052L686.955 66.9013L686.955 63.9091"/>
<path class="l4" d="M803.65 140.21L803.65 167.139"/>
<path class="l4" d="M811.13 135.721L811.13 143.202"/>
<path class="l4" d="M811.13 164.147L811.13 171.627"/>
<path class="l4" d="M800.658 144.698L800.658 162.651"/>
<path class="l4" d="M803.65 164.147L811.13 164.147"/>
<path class="l4" d="M803.65 143.202L811.13 143.202"/>
<path class="l4" d="M787.193 153.674L800.358 153.674"/>
<path class="l4" d="M806.642 141.706L803.65 143.202L806.642 144.698L806.642 141.706"/>
<path class="l4" d="M803.65 200.053L803.65 226.983"/>
<path class="l4" d="M811.13 195.565L811.13 203.045"/>
<path class="l4" d="M811.13 223.99L811.13 231.471"/>
<path class="l4" d="M800.658 204.541L800.658 222.494"/>
<path class="l4" d="M803.65 223.99L811.13 223.99"/>
<path class="l4" d="M803.65 203.045L811.13 203.045"/>
<path class="l4" d="M787.193 213.518L800.358 213.518"/>
<path class="l4" d="M806.642 201.549L803.65 203.045L806.642 204.541L806.642 201.549"/>
<path class="l4" d="M540.339 158.163L540.339 185.092"/>
<path class="l4" d="M547.819 153.674L547.819 161.155"/>
<path class="l4" d="M547.819 182.1L547.819 189.58"/>
<path class="l4" d="M537.346 162.651L537.346 180.604"/>
<path class="l4" d="M540.339 182.1L547.819 182.1"/>
<path class="l4" d="M540.339 161.155L547.819 161.155"/>
<path class="l4" d="M523.882 171.627L537.047 171.627"/>
<path class="l4" d="M543.331 159.659L540.339 161.155L543.331 162.651L543.331 159.659"/>
<path class="l4" d="M547.819 213.518L547.819 249.424"/>
<path class="l4" d="M543.331 231.471L547.819 237.455"/>
<path class="l4" d="M547.819 237.455L552.307 231.471"/>
<path class="l4" d="M691.443 357.142L691.443 364.623"/>
<path class="l4" d="M691.443 364.623L697.428 366.119"/>
<path class="l4" d="M685.459 369.111L697.428 366.119"/>
<path class="l4" d="M685.459 369.111L697.428 372.103"/>
<path class="l4" d="M685.459 375.095L697.428 372.103"/>
<path class="l4" d="M685.459 375.095L697.428 378.087"/>
<path class="l4" d="M691.443 385.568L691.443 393.048"/>
<path class="l4" d="M685.459 381.079L697.428 378.087"/>
<path class="l4" d="M685.459 381.079L697.428 384.072"/>
<path class="l4" d="M691.443 385.568L697.428 384.072"/>
<path class="l4" d="M703.412 366.119L703.412 384.072"/>
<path class="l4" d="M703.412 375.095L709.396 375.095"/>
<path class="l4" d="M428.132 189.58L428.132 197.061"/>
<path class="l4" d="M428.132 197.061L434.117 198.557"/>
<path class="l4" d="M422.148 201.549L434.117 198.557"/>
<path class="l4" d="M422.148 201.549L434.117 204.541"/>
<path class="l4" d="M422.148 207.533L434.117 204.541"/>
<path class="l4" d="M422.148 207.533L434.117 210.526"/>
<path class="l4" d="M428.132 218.006L428.132 225.486"/>
<path class="l4" d="M422.148 213.518L434.117 210.526"/>
<path class="l4" d="M422.148 213.518L434.117 216.51"/>
<path class="l4" d="M428.132 218.006L434.117 216.51"/>
<path class="l4" d="M440.101 198.557L440.101 216.51"/>
<path class="l4" d="M440.101 207.533L446.085 207.533"/>
<path class="l4" d="M691.443 165.643L691.443 173.123"/>
<path class="l4" d="M685.459 174.62L691.443 173.123"/>
<path class="l4" d="M685.459 174.62L697.428 177.612"/>
<path class="l4" d="M685.459 180.604L697.428 177.612"/>
<path class="l4" d="M685.459 180.604L697.428 183.596"/>
<path class="l4" d="M685.459 186.588L697.428 183.596"/>
<path class="l4" d="M691.443 194.069L691.443 201.549"/>
<path class="l4" d="M685.459 186.588L697.428 189.58"/>
<path class="l4" d="M685.459 192.573L697.428 189.58"/>
<path class="l4" d="M685.459 192.573L691.443 194.069"/>
<path class="l4" d="M679.475 174.62L679.475 192.573"/>
<path class="l4" d="M673.49 183.596L679.475 183.596"/>
<path class="l4" d="M811.13 357.142L811.13 364.623"/>
<path class="l4" d="M805.146 366.119L811.13 364.623"/>
<path class="l4" d="M805.146 366.119L817.115 369.111"/>
<path class="l4" d="M805.146 372.103L817.115 369.111"/>
<path class="l4" d="M805.146 372.103L817.115 375.095"/>
<path class="l4" d="M805.146 378.087L817.115 375.095"/>
<path class="l4" d="M811.13 385.568L811.13 393.048"/>
<path class="l4" d="M805.146 378.087L817.115 381.079"/>
<path class="l4" d="M805.146 384.072L817.115 381.079"/>
<path class="l4" d="M805.146 384.072L811.13 385.568"/>
<path class="l4" d="M799.162 366.119L799.162 384.072"/>
<path class="l4" d="M793.177 375.095L799.162 375.095"/>
<path class="l4" d="M452.07 207.533L459.55 207.533"/>
<path class="l4" d="M459.55 204.541L459.55 210.526"/>
<path class="l4" d="M459.55 204.541L462.542 207.533"/>
<path class="l4" d="M459.55 210.526L462.542 207.533"/>
<path class="l4" d="M715.381 375.095L722.861 375.095"/>
<path class="l4" d="M722.861 372.103L722.861 378.087"/>
<path class="l4" d="M722.861 372.103L725.853 375.095"/>
<path class="l4" d="M722.861 378.087L725.853 375.095"/>
<path class="l4" d="M779.712 375.095L787.193 375.095"/>
<path class="l4" d="M779.712 372.103L779.712 378.087"/>
<path class="l4" d="M776.72 375.095L779.712 372.103"/>
<path class="l4" d="M776.72 375.095L779.712 378.087"/>
<path class="l4" d="M660.026 183.596L667.506 183.596"/>
<path class="l4" d="M660.026 180.604L660.026 186.588"/>
<path class="l4" d="M657.033 183.596L660.026 180.604"/>
<path class="l4" d="M657.033 183.596L660.026 186.588"/>
<path class="l4" d="M984.676 69.8935L984.676 75.8778"/>
<path class="l4" d="M984.676 69.8935L990.661 69.8935"/>
<path class="l4" d="M984.676 159.659L984.676 165.643"/>
<path class="l4" d="M984.676 159.659L990.661 159.659"/>
<path class="l4" d="M218.68 45.9561L218.68 51.9404"/>
<path class="l4" d="M218.68 45.9561L224.664 45.9561"/>
<path class="l4" d="M218.68 135.721L218.68 141.706"/>
<path class="l4" d="M218.68 135.721L224.664 135.721"/>
<path class="l4" d="M882.942 440.923L882.942 446.907"/>
<path class="l4" d="M882.942 440.923L888.927 440.923"/>
<path class="l4" d="M882.942 530.688L882.942 536.672"/>
<path class="l4" d="M882.942 530.688L888.927 530.688"/>
<path class="l4" d="M960.739 440.923L960.739 446.907"/>
<path class="l4" d="M960.739 440.923L966.723 440.923"/>
<path class="l4" d="M960.739 530.688L960.739 536.672"/>
<path class="l4" d="M960.739 530.688L966.723 530.688"/>
<path class="l4" d="M912.864 69.8935L912.864 75.8778"/>
<path class="l4" d="M912.864 69.8935L918.849 69.8935"/>
<path class="l4" d="M912.864 159.659L912.864 165.643"/>
<path class="l4" d="M912.864 159.659L918.849 159.659"/>
<path class="l5" d="M73.5596 636.91L76.5518 636.91L76.5518 639.902L73.5596 639.902L73.5596 636.91z"/>
<path class="l5" d="M318.918 415.489L321.91 415.489L321.91 418.482L318.918 418.482L318.918 415.489z"/>
<path class="l5" d="M318.918 451.396L321.91 451.396L321.91 454.388L318.918 454.388L318.918 451.396z"/>
<path class="l5" d="M318.918 487.302L321.91 487.302L321.91 490.294L318.918 490.294L318.918 487.302z"/>
<path class="l5" d="M182.774 629.43L182.587 629.617L182.4 629.804L182.213 629.991L182.026 630.178L181.839 630.365L181.652 630.552L181.465 630.739L181.278 630.926L181.091 631.113L180.904 631.3L180.717 631.487L180.53 631.674L180.343 631.861L180.156 632.048L179.969 632.235L179.782 632.422L179.595 632.609L179.408 632.796L179.221 632.983L179.034 633.17L178.847 633.357L178.66 633.544L178.473 633.731L178.286 633.918L178.099 634.105L177.912 634.292L177.725 634.479L177.538 634.666L177.351 634.853L177.164 635.04L176.977 635.227L176.79 635.414L176.79 635.414L176.608 635.601L176.439 635.788L176.281 635.975L176.135 636.162L176.001 636.349L175.878 636.536L175.767 636.723L175.668 636.91L175.58 637.097L175.504 637.284L175.44 637.471L175.387 637.658L175.346 637.845L175.317 638.032L175.299 638.219L175.294 638.406L175.299 638.593L175.317 638.78L175.346 638.967L175.387 639.154L175.44 639.341L175.504 639.528L175.58 639.715L175.668 639.902L175.767 640.089L175.878 640.276L176.001 640.463L176.135 640.65L176.281 640.837L176.439 641.025L176.608 641.212L176.79 641.399L176.79 641.399L176.977 641.586L177.167 641.775L177.357 641.966L177.549 642.158L177.743 642.352L177.938 642.547L178.134 642.743L178.332 642.941L178.532 643.141L178.733 643.342L178.935 643.544L179.139 643.748L179.344 643.953L179.551 644.16L179.759 644.368L179.969 644.578L180.18 644.789L180.392 645.001L180.607 645.215L180.822 645.431L181.039 645.648L181.257 645.866L181.477 646.086L181.699 646.308L181.921 646.53L182.146 646.755L182.371 646.98L182.599 647.208L182.827 647.436L183.057 647.666L183.289 647.898L183.522 648.131L183.522 648.131L183.754 648.363L183.984 648.593L184.21 648.819L184.434 649.043L184.654 649.263L184.872 649.481L185.087 649.696L185.299 649.908L185.508 650.116L185.714 650.322L185.917 650.526L186.117 650.726L186.314 650.923L186.508 651.117L186.7 651.309L186.888 651.497L187.074 651.683L187.256 651.865L187.436 652.045L187.613 652.222L187.787 652.396L187.958 652.567L188.126 652.735L188.291 652.9L188.453 653.062L188.612 653.221L188.769 653.377L188.922 653.531L189.072 653.681L189.22 653.829L189.365 653.974L189.506 654.115L189.506 654.115L189.642 654.253L189.769 654.387L189.888 654.516L189.997 654.641L190.098 654.762L190.19 654.878L190.273 654.99L190.348 655.097L190.414 655.2L190.471 655.299L190.519 655.393L190.558 655.483L190.589 655.568L190.611 655.649L190.624 655.726L190.628 655.798L190.624 655.866L190.611 655.93L190.589 655.989L190.558 656.044L190.519 656.094L190.471 656.14L190.414 656.182L190.348 656.219L190.273 656.252L190.19 656.28L190.098 656.305L189.997 656.324L189.888 656.34L189.769 656.351L189.642 656.357L189.506 656.359L189.506 656.359L189.366 656.359L189.226 656.359L189.086 656.359L188.945 656.359L188.805 656.359L188.665 656.359L188.525 656.359L188.384 656.359L188.244 656.359L188.104 656.359L187.964 656.359L187.823 656.359L187.683 656.359L187.543 656.359L187.402 656.359L187.262 656.359L187.122 656.359L186.982 656.359L186.841 656.359L186.701 656.359L186.561 656.359L186.421 656.359L186.28 656.359L186.14 656.359L186 656.359L185.86 656.359L185.719 656.359L185.579 656.359L185.439 656.359L185.299 656.359L185.158 656.359L185.018 656.359L185.018 656.359L184.879 656.359L184.74 656.359L184.604 656.359L184.469 656.359L184.335 656.359L184.203 656.359L184.072 656.359L183.943 656.359L183.815 656.359L183.689 656.359L183.564 656.359L183.44 656.359L183.318 656.359L183.198 656.359L183.079 656.359L182.961 656.359L182.845 656.359L182.73 656.359L182.617 656.359L182.505 656.359L182.395 656.359L182.286 656.359L182.179 656.359L182.073 656.359L181.968 656.359L181.865 656.359L181.764 656.359L181.664 656.359L181.565 656.359L181.468 656.359L181.372 656.359L181.278 656.359L181.278 656.359L181.184 656.358L181.091 656.354L180.997 656.346L180.904 656.336L180.81 656.323L180.717 656.307L180.623 656.288L180.53 656.266L180.436 656.241L180.343 656.213L180.249 656.183L180.156 656.149L180.062 656.112L179.969 656.073L179.875 656.031L179.782 655.985L179.688 655.937L179.595 655.886L179.501 655.832L179.408 655.775L179.314 655.715L179.221 655.652L179.127 655.587L179.034 655.518L178.94 655.446L178.847 655.372L178.753 655.294L178.66 655.214L178.566 655.131L178.473 655.044L178.379 654.955L178.286 654.863L178.286 654.863L178.192 654.77L178.099 654.676L178.005 654.583L177.912 654.489L177.818 654.396L177.725 654.302L177.631 654.209L177.538 654.115L177.444 654.022L177.351 653.928L177.257 653.835L177.164 653.741L177.07 653.648L176.977 653.554L176.883 653.461L176.79 653.367L176.696 653.274L176.603 653.18L176.509 653.087L176.416 652.993L176.322 652.9L176.229 652.806L176.135 652.713L176.042 652.619L175.948 652.526L175.855 652.432L175.761 652.339L175.668 652.245L175.574 652.152L175.481 652.058L175.387 651.965L175.294 651.871L175.294 651.871L175.199 651.776L175.101 651.678L175 651.577L174.896 651.474L174.789 651.367L174.68 651.258L174.567 651.145L174.452 651.03L174.334 650.911L174.212 650.79L174.088 650.666L173.961 650.539L173.831 650.409L173.698 650.276L173.562 650.14L173.423 650.001L173.282 649.859L173.137 649.715L172.989 649.567L172.839 649.417L172.686 649.263L172.529 649.107L172.37 648.948L172.208 648.785L172.043 648.62L171.875 648.452L171.704 648.281L171.53 648.108L171.353 647.931L171.173 647.751L170.991 647.568L170.805 647.383L170.805 647.383L170.618 647.202L170.431 647.032L170.244 646.874L170.057 646.728L169.87 646.594L169.683 646.471L169.496 646.36L169.309 646.261L169.122 646.173L168.935 646.097L168.748 646.033L168.561 645.98L168.374 645.939L168.187 645.91L168 645.893L167.813 645.887L167.626 645.893L167.439 645.91L167.252 645.939L167.065 645.98L166.878 646.033L166.691 646.097L166.504 646.173L166.317 646.261L166.13 646.36L165.943 646.471L165.756 646.594L165.569 646.728L165.382 646.874L165.195 647.032L165.008 647.202L164.821 647.383L164.821 647.383L164.635 647.568L164.453 647.751L164.273 647.931L164.096 648.108L163.922 648.281L163.751 648.452L163.583 648.62L163.418 648.785L163.256 648.948L163.097 649.107L162.941 649.263L162.787 649.417L162.637 649.567L162.489 649.715L162.344 649.859L162.203 650.001L162.064 650.14L161.928 650.276L161.795 650.409L161.665 650.539L161.538 650.666L161.414 650.79L161.293 650.911L161.174 651.03L161.059 651.145L160.946 651.258L160.837 651.367L160.73 651.474L160.626 651.577L160.526 651.678L160.428 651.776L160.333 651.871L160.333 651.871L160.239 651.965L160.146 652.058L160.052 652.152L159.959 652.245L159.865 652.339L159.772 652.432L159.678 652.526L159.585 652.619L159.491 652.713L159.398 652.806L159.304 652.9L159.211 652.993L159.117 653.087L159.024 653.18L158.93 653.274L158.837 653.367L158.743 653.461L158.65 653.554L158.556 653.648L158.463 653.741L158.369 653.835L158.276 653.928L158.182 654.022L158.089 654.115L157.995 654.209L157.902 654.302L157.808 654.396L157.715 654.489L157.621 654.583L157.528 654.676L157.434 654.77L157.34 654.863L157.34 654.863L157.247 654.955L157.153 655.044L157.06 655.131L156.966 655.214L156.873 655.294L156.779 655.372L156.686 655.446L156.592 655.518L156.499 655.587L156.405 655.652L156.312 655.715L156.218 655.775L156.125 655.832L156.031 655.886L155.938 655.937L155.844 655.985L155.751 656.031L155.657 656.073L155.564 656.112L155.47 656.149L155.377 656.183L155.283 656.213L155.19 656.241L155.096 656.266L155.003 656.288L154.909 656.307L154.816 656.323L154.722 656.336L154.629 656.346L154.535 656.354L154.442 656.358L154.348 656.359L154.348 656.359L154.254 656.359L154.158 656.359L154.061 656.359L153.963 656.359L153.863 656.359L153.761 656.359L153.658 656.359L153.554 656.359L153.448 656.359L153.34 656.359L153.231 656.359L153.121 656.359L153.009 656.359L152.896 656.359L152.781 656.359L152.665 656.359L152.548 656.359L152.429 656.359L152.308 656.359L152.186 656.359L152.063 656.359L151.938 656.359L151.811 656.359L151.683 656.359L151.554 656.359L151.423 656.359L151.291 656.359L151.157 656.359L151.022 656.359L150.886 656.359L150.748 656.359L150.608 656.359L150.608 656.359L150.468 656.359L150.328 656.359L150.187 656.359L150.047 656.359L149.907 656.359L149.767 656.359L149.626 656.359L149.486 656.359L149.346 656.359L149.206 656.359L149.065 656.359L148.925 656.359L148.785 656.359L148.644 656.359L148.504 656.359L148.364 656.359L148.224 656.359L148.083 656.359L147.943 656.359L147.803 656.359L147.663 656.359L147.522 656.359L147.382 656.359L147.242 656.359L147.102 656.359L146.961 656.359L146.821 656.359L146.681 656.359L146.541 656.359L146.4 656.359L146.26 656.359L146.12 656.359L146.12 656.359L145.984 656.357L145.857 656.351L145.739 656.34L145.629 656.324L145.528 656.305L145.436 656.28L145.353 656.252L145.278 656.219L145.213 656.182L145.156 656.14L145.107 656.094L145.068 656.044L145.037 655.989L145.015 655.93L145.002 655.866L144.998 655.798L145.002 655.726L145.015 655.649L145.037 655.568L145.068 655.483L145.107 655.393L145.156 655.299L145.213 655.2L145.278 655.097L145.353 654.99L145.436 654.878L145.528 654.762L145.629 654.641L145.739 654.516L145.857 654.387L145.984 654.253L146.12 654.115L146.12 654.115L146.262 653.974L146.406 653.829L146.554 653.681L146.704 653.531L146.858 653.377L147.014 653.221L147.173 653.062L147.335 652.9L147.501 652.735L147.669 652.567L147.839 652.396L148.013 652.222L148.19 652.045L148.37 651.865L148.552 651.683L148.738 651.497L148.926 651.309L149.118 651.117L149.312 650.923L149.509 650.726L149.71 650.526L149.913 650.322L150.119 650.116L150.328 649.908L150.539 649.696L150.754 649.481L150.972 649.263L151.193 649.043L151.416 648.819L151.643 648.593L151.872 648.363L152.104 648.131L152.104 648.131L152.337 647.898L152.569 647.666L152.799 647.436L153.028 647.208L153.255 646.98L153.48 646.755L153.705 646.53L153.928 646.308L154.149 646.086L154.369 645.866L154.587 645.648L154.804 645.431L155.02 645.215L155.234 645.001L155.446 644.789L155.657 644.578L155.867 644.368L156.075 644.16L156.282 643.953L156.487 643.748L156.691 643.544L156.893 643.342L157.094 643.141L157.294 642.941L157.492 642.743L157.688 642.547L157.883 642.352L158.077 642.158L158.269 641.966L158.46 641.775L158.649 641.586L158.837 641.399L158.837 641.399L159.018 641.212L159.187 641.025L159.345 640.837L159.491 640.65L159.626 640.463L159.748 640.276L159.859 640.089L159.959 639.902L160.046 639.715L160.122 639.528L160.187 639.341L160.239 639.154L160.28 638.967L160.309 638.78L160.327 638.593L160.333 638.406L160.327 638.219L160.309 638.032L160.28 637.845L160.239 637.658L160.187 637.471L160.122 637.284L160.046 637.097L159.959 636.91L159.859 636.723L159.748 636.536L159.626 636.349L159.491 636.162L159.345 635.975L159.187 635.788L159.018 635.601L158.837 635.414L158.837 635.414L158.649 635.226L158.46 635.037L158.269 634.847L158.077 634.654L157.883 634.461L157.688 634.266L157.492 634.069L157.294 633.871L157.094 633.672L156.893 633.471L156.691 633.269L156.487 633.065L156.282 632.86L156.075 632.653L155.867 632.445L155.657 632.235L155.446 632.024L155.234 631.811L155.02 631.597L154.804 631.382L154.587 631.165L154.369 630.946L154.149 630.726L153.928 630.505L153.705 630.282L153.48 630.058L153.255 629.832L153.028 629.605L152.799 629.377L152.569 629.146L152.337 628.915L152.104 628.682L152.104 628.682L151.872 628.449L151.643 628.22L151.416 627.994L151.193 627.77L150.972 627.549L150.754 627.332L150.539 627.117L150.328 626.905L150.119 626.696L149.913 626.49L149.71 626.287L149.509 626.087L149.312 625.89L149.118 625.695L148.926 625.504L148.738 625.316L148.552 625.13L148.37 624.947L148.19 624.768L148.013 624.591L147.839 624.417L147.669 624.246L147.501 624.078L147.335 623.913L147.173 623.751L147.014 623.592L146.858 623.435L146.704 623.282L146.554 623.131L146.406 622.984L146.262 622.839L146.12 622.697L146.12 622.697L145.984 622.559L145.857 622.426L145.739 622.296L145.629 622.171L145.528 622.051L145.436 621.935L145.353 621.823L145.278 621.716L145.213 621.613L145.156 621.514L145.107 621.42L145.068 621.33L145.037 621.244L145.015 621.163L145.002 621.087L144.998 621.014L145.002 620.946L145.015 620.883L145.037 620.824L145.068 620.769L145.107 620.718L145.156 620.672L145.213 620.631L145.278 620.594L145.353 620.561L145.436 620.532L145.528 620.508L145.629 620.488L145.739 620.473L145.857 620.462L145.984 620.456L146.12 620.453L146.12 620.453L146.26 620.453L146.4 620.453L146.541 620.453L146.681 620.453L146.821 620.453L146.961 620.453L147.102 620.453L147.242 620.453L147.382 620.453L147.522 620.453L147.663 620.453L147.803 620.453L147.943 620.453L148.083 620.453L148.224 620.453L148.364 620.453L148.504 620.453L148.644 620.453L148.785 620.453L148.925 620.453L149.065 620.453L149.206 620.453L149.346 620.453L149.486 620.453L149.626 620.453L149.767 620.453L149.907 620.453L150.047 620.453L150.187 620.453L150.328 620.453L150.468 620.453L150.608 620.453L150.608 620.453L150.748 620.453L150.886 620.453L151.022 620.453L151.157 620.453L151.291 620.453L151.423 620.453L151.554 620.453L151.683 620.453L151.811 620.453L151.938 620.453L152.063 620.453L152.186 620.453L152.308 620.453L152.429 620.453L152.548 620.453L152.665 620.453L152.781 620.453L152.896 620.453L153.009 620.453L153.121 620.453L153.231 620.453L153.34 620.453L153.448 620.453L153.554 620.453L153.658 620.453L153.761 620.453L153.863 620.453L153.963 620.453L154.061 620.453L154.158 620.453L154.254 620.453L154.348 620.453L154.348 620.453L154.442 620.455L154.535 620.459L154.629 620.466L154.722 620.477L154.816 620.49L154.909 620.506L155.003 620.525L155.096 620.547L155.19 620.572L155.283 620.599L155.377 620.63L155.47 620.664L155.564 620.7L155.657 620.74L155.751 620.782L155.844 620.827L155.938 620.876L156.031 620.927L156.125 620.981L156.218 621.038L156.312 621.098L156.405 621.16L156.499 621.226L156.592 621.295L156.686 621.366L156.779 621.441L156.873 621.518L156.966 621.599L157.06 621.682L157.153 621.768L157.247 621.857L157.34 621.949L157.34 621.949L157.434 622.043L157.528 622.136L157.621 622.23L157.715 622.323L157.808 622.417L157.902 622.51L157.995 622.604L158.089 622.697L158.182 622.791L158.276 622.884L158.369 622.978L158.463 623.071L158.556 623.165L158.65 623.258L158.743 623.352L158.837 623.445L158.93 623.539L159.024 623.632L159.117 623.726L159.211 623.82L159.304 623.913L159.398 624.007L159.491 624.1L159.585 624.194L159.678 624.287L159.772 624.381L159.865 624.474L159.959 624.568L160.052 624.661L160.146 624.755L160.239 624.848L160.333 624.942L160.333 624.942L160.428 625.037L160.526 625.134L160.626 625.235L160.73 625.339L160.837 625.446L160.946 625.555L161.059 625.668L161.174 625.783L161.293 625.901L161.414 626.023L161.538 626.147L161.665 626.274L161.795 626.404L161.928 626.537L162.064 626.673L162.203 626.812L162.344 626.953L162.489 627.098L162.637 627.246L162.787 627.396L162.941 627.549L163.097 627.706L163.256 627.865L163.418 628.027L163.583 628.192L163.751 628.36L163.922 628.531L164.096 628.705L164.273 628.882L164.453 629.062L164.635 629.244L164.821 629.43L164.821 629.43L165.008 629.611L165.195 629.78L165.382 629.938L165.569 630.084L165.756 630.219L165.943 630.342L166.13 630.453L166.317 630.552L166.504 630.64L166.691 630.716L166.878 630.78L167.065 630.832L167.252 630.873L167.439 630.903L167.626 630.92L167.813 630.926L168 630.92L168.187 630.903L168.374 630.873L168.561 630.832L168.748 630.78L168.935 630.716L169.122 630.64L169.309 630.552L169.496 630.453L169.683 630.342L169.87 630.219L170.057 630.084L170.244 629.938L170.431 629.78L170.618 629.611L170.805 629.43L170.805 629.43L170.991 629.244L171.173 629.062L171.353 628.882L171.53 628.705L171.704 628.531L171.875 628.36L172.043 628.192L172.208 628.027L172.37 627.865L172.529 627.706L172.686 627.549L172.839 627.396L172.989 627.246L173.137 627.098L173.282 626.953L173.423 626.812L173.562 626.673L173.698 626.537L173.831 626.404L173.961 626.274L174.088 626.147L174.212 626.023L174.334 625.901L174.452 625.783L174.567 625.668L174.68 625.555L174.789 625.446L174.896 625.339L175 625.235L175.101 625.134L175.199 625.037L175.294 624.942L175.294 624.942L175.387 624.848L175.481 624.755L175.574 624.661L175.668 624.568L175.761 624.474L175.855 624.381L175.948 624.287L176.042 624.194L176.135 624.1L176.229 624.007L176.322 623.913L176.416 623.82L176.509 623.726L176.603 623.632L176.696 623.539L176.79 623.445L176.883 623.352L176.977 623.258L177.07 623.165L177.164 623.071L177.257 622.978L177.351 622.884L177.444 622.791L177.538 622.697L177.631 622.604L177.725 622.51L177.818 622.417L177.912 622.323L178.005 622.23L178.099 622.136L178.192 622.043L178.286 621.949L178.286 621.949L178.379 621.857L178.473 621.768L178.566 621.682L178.66 621.599L178.753 621.518L178.847 621.441L178.94 621.366L179.034 621.295L179.127 621.226L179.221 621.16L179.314 621.098L179.408 621.038L179.501 620.981L179.595 620.927L179.688 620.876L179.782 620.827L179.875 620.782L179.969 620.74L180.062 620.7L180.156 620.664L180.249 620.63L180.343 620.599L180.436 620.572L180.53 620.547L180.623 620.525L180.717 620.506L180.81 620.49L180.904 620.477L180.997 620.466L181.091 620.459L181.184 620.455L181.278 620.453L181.278 620.453L181.372 620.453L181.468 620.453L181.565 620.453L181.664 620.453L181.764 620.453L181.865 620.453L181.968 620.453L182.073 620.453L182.179 620.453L182.286 620.453L182.395 620.453L182.505 620.453L182.617 620.453L182.73 620.453L182.845 620.453L182.961 620.453L183.079 620.453L183.198 620.453L183.318 620.453L183.44 620.453L183.564 620.453L183.689 620.453L183.815 620.453L183.943 620.453L184.072 620.453L184.203 620.453L184.335 620.453L184.469 620.453L184.604 620.453L184.74 620.453L184.879 620.453L185.018 620.453L185.018 620.453L185.158 620.453L185.299 620.453L185.439 620.453L185.579 620.453L185.719 620.453L185.86 620.453L186 620.453L186.14 620.453L186.28 620.453L186.421 620.453L186.561 620.453L186.701 620.453L186.841 620.453L186.982 620.453L187.122 620.453L187.262 620.453L187.402 620.453L187.543 620.453L187.683 620.453L187.823 620.453L187.964 620.453L188.104 620.453L188.244 620.453L188.384 620.453L188.525 620.453L188.665 620.453L188.805 620.453L188.945 620.453L189.086 620.453L189.226 620.453L189.366 620.453L189.506 620.453L189.506 620.453L189.642 620.456L189.769 620.462L189.888 620.473L189.997 620.488L190.098 620.508L190.19 620.532L190.273 620.561L190.348 620.594L190.414 620.631L190.471 620.672L190.519 620.718L190.558 620.769L190.589 620.824L190.611 620.883L190.624 620.946L190.628 621.014L190.624 621.087L190.611 621.163L190.589 621.244L190.558 621.33L190.519 621.42L190.471 621.514L190.414 621.613L190.348 621.716L190.273 621.823L190.19 621.935L190.098 622.051L189.997 622.171L189.888 622.296L189.769 622.426L189.642 622.559L189.506 622.697L189.506 622.697L189.364 622.84L189.217 622.987L189.066 623.138L188.91 623.294L188.75 623.454L188.586 623.618L188.417 623.787L188.244 623.96L188.067 624.137L187.885 624.319L187.698 624.505L187.508 624.696L187.313 624.891L187.113 625.091L186.909 625.294L186.701 625.503L186.489 625.715L186.272 625.932L186.05 626.153L185.825 626.379L185.594 626.609L185.36 626.844L185.121 627.083L184.878 627.326L184.63 627.574L184.378 627.826L184.122 628.082L183.861 628.343L183.596 628.608L183.326 628.878L183.052 629.152L182.774 629.43"/>
<path class="l5" d="M319.666 33.2393L321.162 33.2393L321.162 34.7354L319.666 34.7354L319.666 33.2393z"/>
<path class="l5" d="M426.636 451.396L429.628 451.396L429.628 454.388L426.636 454.388L426.636 451.396z"/>
<path class="l5" d="M450.573 433.442L453.566 433.442L453.566 436.435L450.573 436.435L450.573 433.442z"/>
<path class="l5" d="M426.636 415.489L429.628 415.489L429.628 418.482L426.636 418.482L426.636 415.489z"/>
<path class="l5" d="M689.947 451.396L692.939 451.396L692.939 454.388L689.947 454.388L689.947 451.396z"/>
<path class="l5" d="M666.01 433.442L669.002 433.442L669.002 436.435L666.01 436.435L666.01 433.442z"/>
<path class="l5" d="M689.947 415.489L692.939 415.489L692.939 418.482L689.947 418.482L689.947 415.489z"/>
<path class="l5" d="M428.132 316.748L431.124 315.252L428.132 313.756L428.132 316.748"/>
<path class="l5" d="M426.636 295.803L429.628 295.803L429.628 298.795L426.636 298.795L426.636 295.803z"/>
<path class="l5" d="M450.573 313.756L453.566 313.756L453.566 316.748L450.573 316.748L450.573 313.756z"/>
<path class="l5" d="M426.636 331.709L429.628 331.709L429.628 334.701L426.636 334.701L426.636 331.709z"/>
<path class="l5" d="M428.085 315.205L428.179 315.205L428.179 315.298L428.085 315.298L428.085 315.205z"/>
<path class="l5" d="M809.634 451.396L812.626 451.396L812.626 454.388L809.634 454.388L809.634 451.396z"/>
<path class="l5" d="M785.697 433.442L788.689 433.442L788.689 436.435L785.697 436.435L785.697 433.442z"/>
<path class="l5" d="M809.634 415.489L812.626 415.489L812.626 418.482L809.634 418.482L809.634 415.489z"/>
<path class="l5" d="M918.101 320.488L919.597 320.488L919.597 321.984L918.101 321.984L918.101 320.488z"/>
<path class="l5" d="M426.636 355.646L429.628 355.646L429.628 358.638L426.636 358.638L426.636 355.646z"/>
<path class="l5" d="M426.636 391.552L429.628 391.552L429.628 394.544L426.636 394.544L426.636 391.552z"/>
<path class="l5" d="M809.634 253.912L812.626 253.912L812.626 256.904L809.634 256.904L809.634 253.912z"/>
<path class="l5" d="M809.634 289.818L812.626 289.818L812.626 292.81L809.634 292.81L809.634 289.818z"/>
<path class="l5" d="M690.695 344.425L692.191 344.425L692.191 345.921L690.695 345.921L690.695 344.425z"/>
<path class="l5" d="M690.695 404.269L692.191 404.269L692.191 405.765L690.695 405.765L690.695 404.269z"/>
<path class="l5" d="M427.384 344.425L428.88 344.425L428.88 345.921L427.384 345.921L427.384 344.425z"/>
<path class="l5" d="M499.196 75.1298L500.692 75.1298L500.692 76.6259L499.196 76.6259L499.196 75.1298z"/>
<path class="l5" d="M431.124 122.256L428.132 123.753L431.124 125.249L431.124 122.256"/>
<path class="l5" d="M426.636 140.21L429.628 140.21L429.628 143.202L426.636 143.202L426.636 140.21z"/>
<path class="l5" d="M450.573 122.256L453.566 122.256L453.566 125.249L450.573 125.249L450.573 122.256z"/>
<path class="l5" d="M426.636 104.303L429.628 104.303L429.628 107.296L426.636 107.296L426.636 104.303z"/>
<path class="l5" d="M428.085 123.706L428.179 123.706L428.179 123.799L428.085 123.799L428.085 123.706z"/>
<path class="l5" d="M511.165 314.504L512.661 314.504L512.661 316L511.165 316L511.165 314.504z"/>
<path class="l5" d="M511.165 266.629L512.661 266.629L512.661 268.125L511.165 268.125L511.165 266.629z"/>
<path class="l5" d="M499.196 123.005L500.692 123.005L500.692 124.501L499.196 124.501L499.196 123.005z"/>
<path class="l5" d="M428.132 268.873L431.124 267.377L428.132 265.881L428.132 268.873"/>
<path class="l5" d="M426.636 247.928L429.628 247.928L429.628 250.92L426.636 250.92L426.636 247.928z"/>
<path class="l5" d="M450.573 265.881L453.566 265.881L453.566 268.873L450.573 268.873L450.573 265.881z"/>
<path class="l5" d="M426.636 283.834L429.628 283.834L429.628 286.826L426.636 286.826L426.636 283.834z"/>
<path class="l5" d="M428.085 267.33L428.179 267.33L428.179 267.424L428.085 267.424L428.085 267.33z"/>
<path class="l5" d="M691.443 316.748L688.451 315.252L691.443 313.756L691.443 316.748"/>
<path class="l5" d="M689.947 295.803L692.939 295.803L692.939 298.795L689.947 298.795L689.947 295.803z"/>
<path class="l5" d="M666.01 313.756L669.002 313.756L669.002 316.748L666.01 316.748L666.01 313.756z"/>
<path class="l5" d="M689.947 331.709L692.939 331.709L692.939 334.701L689.947 334.701L689.947 331.709z"/>
<path class="l5" d="M691.397 315.205L691.49 315.205L691.49 315.298L691.397 315.298L691.397 315.205z"/>
<path class="l5" d="M691.443 268.873L688.451 267.377L691.443 265.881L691.443 268.873"/>
<path class="l5" d="M689.947 247.928L692.939 247.928L692.939 250.92L689.947 250.92L689.947 247.928z"/>
<path class="l5" d="M666.01 265.881L669.002 265.881L669.002 268.873L666.01 268.873L666.01 265.881z"/>
<path class="l5" d="M689.947 283.834L692.939 283.834L692.939 286.826L689.947 286.826L689.947 283.834z"/>
<path class="l5" d="M691.397 267.33L691.49 267.33L691.49 267.424L691.397 267.424L691.397 267.33z"/>
<path class="l5" d="M431.124 74.3817L428.132 75.8778L431.124 77.3739L431.124 74.3817"/>
<path class="l5" d="M426.636 92.3348L429.628 92.3348L429.628 95.3269L426.636 95.3269L426.636 92.3348z"/>
<path class="l5" d="M450.573 74.3817L453.566 74.3817L453.566 77.3739L450.573 77.3739L450.573 74.3817z"/>
<path class="l5" d="M426.636 56.4287L429.628 56.4287L429.628 59.4209L426.636 59.4209L426.636 56.4287z"/>
<path class="l5" d="M428.085 75.8311L428.179 75.8311L428.179 75.9246L428.085 75.9246L428.085 75.8311z"/>
<path class="l5" d="M688.451 122.256L691.443 123.753L688.451 125.249L688.451 122.256"/>
<path class="l5" d="M689.947 140.21L692.939 140.21L692.939 143.202L689.947 143.202L689.947 140.21z"/>
<path class="l5" d="M666.01 122.256L669.002 122.256L669.002 125.249L666.01 125.249L666.01 122.256z"/>
<path class="l5" d="M689.947 104.303L692.939 104.303L692.939 107.296L689.947 107.296L689.947 104.303z"/>
<path class="l5" d="M691.397 123.706L691.49 123.706L691.49 123.799L691.397 123.799L691.397 123.706z"/>
<path class="l5" d="M688.451 74.3817L691.443 75.8778L688.451 77.3739L688.451 74.3817"/>
<path class="l5" d="M689.947 92.3348L692.939 92.3348L692.939 95.3269L689.947 95.3269L689.947 92.3348z"/>
<path class="l5" d="M666.01 74.3817L669.002 74.3817L669.002 77.3739L666.01 77.3739L666.01 74.3817z"/>
<path class="l5" d="M689.947 56.4287L692.939 56.4287L692.939 59.4209L689.947 59.4209L689.947 56.4287z"/>
<path class="l5" d="M691.397 75.8311L691.49 75.8311L691.49 75.9246L691.397 75.9246L691.397 75.8311z"/>
<path class="l5" d="M808.138 152.178L811.13 153.674L808.138 155.17L808.138 152.178"/>
<path class="l5" d="M809.634 170.131L812.626 170.131L812.626 173.123L809.634 173.123L809.634 170.131z"/>
<path class="l5" d="M785.697 152.178L788.689 152.178L788.689 155.17L785.697 155.17L785.697 152.178z"/>
<path class="l5" d="M809.634 134.225L812.626 134.225L812.626 137.217L809.634 137.217L809.634 134.225z"/>
<path class="l5" d="M811.084 153.628L811.177 153.628L811.177 153.721L811.084 153.721L811.084 153.628z"/>
<path class="l5" d="M808.138 212.022L811.13 213.518L808.138 215.014L808.138 212.022"/>
<path class="l5" d="M809.634 229.975L812.626 229.975L812.626 232.967L809.634 232.967L809.634 229.975z"/>
<path class="l5" d="M785.697 212.022L788.689 212.022L788.689 215.014L785.697 215.014L785.697 212.022z"/>
<path class="l5" d="M809.634 194.069L812.626 194.069L812.626 197.061L809.634 197.061L809.634 194.069z"/>
<path class="l5" d="M811.084 213.471L811.177 213.471L811.177 213.565L811.084 213.565L811.084 213.471z"/>
<path class="l5" d="M544.827 170.131L547.819 171.627L544.827 173.123L544.827 170.131"/>
<path class="l5" d="M546.323 188.084L549.315 188.084L549.315 191.076L546.323 191.076L546.323 188.084z"/>
<path class="l5" d="M522.386 170.131L525.378 170.131L525.378 173.123L522.386 173.123L522.386 170.131z"/>
<path class="l5" d="M546.323 152.178L549.315 152.178L549.315 155.17L546.323 155.17L546.323 152.178z"/>
<path class="l5" d="M547.772 171.581L547.866 171.581L547.866 171.674L547.772 171.674L547.772 171.581z"/>
<path class="l5" d="M546.323 212.022L549.315 212.022L549.315 215.014L546.323 215.014L546.323 212.022z"/>
<path class="l5" d="M546.323 247.928L549.315 247.928L549.315 250.92L546.323 250.92L546.323 247.928z"/>
<path class="l5" d="M689.947 355.646L692.939 355.646L692.939 358.638L689.947 358.638L689.947 355.646z"/>
<path class="l5" d="M689.947 391.552L692.939 391.552L692.939 394.544L689.947 394.544L689.947 391.552z"/>
<path class="l5" d="M707.9 373.599L710.893 373.599L710.893 376.591L707.9 376.591L707.9 373.599z"/>
<path class="l5" d="M426.636 188.084L429.628 188.084L429.628 191.076L426.636 191.076L426.636 188.084z"/>
<path class="l5" d="M426.636 223.99L429.628 223.99L429.628 226.983L426.636 226.983L426.636 223.99z"/>
<path class="l5" d="M444.589 206.037L447.581 206.037L447.581 209.03L444.589 209.03L444.589 206.037z"/>
<path class="l5" d="M689.947 164.147L692.939 164.147L692.939 167.139L689.947 167.139L689.947 164.147z"/>
<path class="l5" d="M689.947 200.053L692.939 200.053L692.939 203.045L689.947 203.045L689.947 200.053z"/>
<path class="l5" d="M671.994 182.1L674.986 182.1L674.986 185.092L671.994 185.092L671.994 182.1z"/>
<path class="l5" d="M809.634 355.646L812.626 355.646L812.626 358.638L809.634 358.638L809.634 355.646z"/>
<path class="l5" d="M809.634 391.552L812.626 391.552L812.626 394.544L809.634 394.544L809.634 391.552z"/>
<path class="l5" d="M791.681 373.599L794.673 373.599L794.673 376.591L791.681 376.591L791.681 373.599z"/>
<path class="l5" d="M450.573 206.037L453.566 206.037L453.566 209.03L450.573 209.03L450.573 206.037z"/>
<path class="l5" d="M713.885 373.599L716.877 373.599L716.877 376.591L713.885 376.591L713.885 373.599z"/>
<path class="l5" d="M785.697 373.599L788.689 373.599L788.689 376.591L785.697 376.591L785.697 373.599z"/>
<path class="l5" d="M666.01 182.1L669.002 182.1L669.002 185.092L666.01 185.092L666.01 182.1z"/>
<path class="l6" d="M323.406 638.406L799.162 638.406"/>
<path class="l6" d="M93.0088 638.406L131.907 638.406"/>
<text fill="#222222"  xml:space="preserve" font-size="9.33558" transform="translate(96.0009, 551.134)" >MODEL</text>
<text fill="#222222"  xml:space="preserve" font-size="9.33558" style="font-family:Monospace;" transform="translate(101.985, 576.802)" >.lib cornerMOSlv.lib mos_tt</text>
<text fill="#222222"  xml:space="preserve" font-size="9.33558" style="font-family:Monospace;" transform="translate(101.985, 587.51)" >.lib cornerHBT.lib hbt_typ</text>
<text fill="#222222"  xml:space="preserve" font-size="9.33558" style="font-family:Monospace;" transform="translate(101.985, 598.218)" >.lib cornerRES.lib res_typ</text>
<text fill="#222222"  xml:space="preserve" font-size="9.33558" transform="translate(96.0009, 317.744)" >NGSPICE</text>
<text fill="#222222"  xml:space="preserve" font-size="9.33558" style="font-family:Monospace;" transform="translate(101.985, 343.413)" >.temp 27</text>
<text fill="#222222"  xml:space="preserve" font-size="9.33558" style="font-family:Monospace;" transform="translate(101.985, 354.121)" >.include bandgap_simple.save</text>
<text fill="#222222"  xml:space="preserve" font-size="9.33558" style="font-family:Monospace;" transform="translate(101.985, 364.829)" >.control</text>
<text fill="#222222"  xml:space="preserve" font-size="9.33558" style="font-family:Monospace;" transform="translate(101.985, 375.537)" >save all</text>
<text fill="#222222"  xml:space="preserve" font-size="9.33558" style="font-family:Monospace;" transform="translate(101.985, 386.244)" >set filetype=ascii</text>
<text fill="#222222"  xml:space="preserve" font-size="9.33558" style="font-family:Monospace;" transform="translate(101.985, 407.66)" >op</text>
<text fill="#222222"  xml:space="preserve" font-size="9.33558" style="font-family:Monospace;" transform="translate(101.985, 418.368)" >write bandgap_simple.raw</text>
<text fill="#222222"  xml:space="preserve" font-size="9.33558" style="font-family:Monospace;" transform="translate(101.985, 439.784)" >dc temp -30 125 1</text>
<text fill="#222222"  xml:space="preserve" font-size="9.33558" style="font-family:Monospace;" transform="translate(101.985, 450.492)" >set appendwrite</text>
<text fill="#222222"  xml:space="preserve" font-size="9.33558" style="font-family:Monospace;" transform="translate(101.985, 461.2)" >write bandgap_simple.raw</text>
<text fill="#222222"  xml:space="preserve" font-size="9.33558" style="font-family:Monospace;" transform="translate(101.985, 471.908)" >plot vref</text>
<text fill="#222222"  xml:space="preserve" font-size="9.33558" style="font-family:Monospace;" transform="translate(101.985, 493.324)" >wrdata bandgap_simple.txt vref</text>
<text fill="#222222"  xml:space="preserve" font-size="9.33558" style="font-family:Monospace;" transform="translate(101.985, 504.031)" >.endc</text>
<text fill="#222222"  xml:space="preserve" font-size="6.22372" transform="translate(332.383, 429.369)" >Vdd</text>
<text fill="#222222"  xml:space="preserve" font-size="6.22372" transform="translate(332.383, 444.33)" >1.5</text>
<text fill="#0099cc"  xml:space="preserve" font-size="6.22372" transform="translate(324.902, 497.441)" >GND</text>
<text fill="#222222"  xml:space="preserve" font-size="12.4474" transform="translate(329.39, 652.701)" >         bandgap_simple.sch</text>
<text fill="#222222"  xml:space="preserve" font-size="12.4474" transform="translate(329.39, 634.748)" >(c) 2025 Harald Pretl, Apache-2.0 license</text>
<text fill="#222222"  xml:space="preserve" font-size="12.4474" transform="translate(661.162, 634.748)" >2025-10-02  10:34:32</text>
<text fill="#222222"  xml:space="preserve" font-size="31.1186" transform="translate(191.75, 651.701)" >SCHEM</text>
<text fill="#222222"  xml:space="preserve" font-size="12.4474" transform="translate(398.21, 570.396)" >simulate</text>
<text fill="#222222"  xml:space="preserve" font-size="12.4474" transform="translate(541.835, 570.396)" >annotate OP</text>
<text fill="#0099cc"  xml:space="preserve" font-size="10.2691" transform="translate(290.926, 38.4495)" >v_dd</text>
<text fill="#222222"  xml:space="preserve" font-size="6.22372" transform="translate(400.636, 449.566)" >pnpMPA</text>
<text fill="#222222"  xml:space="preserve" font-size="6.22372" transform="translate(413.636, 424.881)" >XQ1</text>
<text fill="#ff0000"  xml:space="preserve" font-size="4.66779" transform="translate(431.117, 417.858)" >e</text>
<text fill="#ff0000"  xml:space="preserve" font-size="4.66779" transform="translate(431.117, 455.26)" >c</text>
<text fill="#ff0000"  xml:space="preserve" font-size="4.66779" transform="translate(446.459, 432.819)" >b</text>
<text fill="#666600"  xml:space="preserve" font-size="6.22372" transform="translate(396.636, 434.605)" >w=1.0e-6</text>
<text fill="#666600"  xml:space="preserve" font-size="6.22372" transform="translate(399.636, 442.086)" >l=2.0e-6</text>
<text fill="#222222"  xml:space="preserve" font-size="6.22372" transform="translate(692.939, 449.566)" >pnpMPA</text>
<text fill="#222222"  xml:space="preserve" font-size="6.22372" transform="translate(692.939, 424.881)" >XQ2</text>
<text fill="#ff0000"  xml:space="preserve" font-size="4.66779" transform="translate(685.459, 417.858)" >e</text>
<text fill="#ff0000"  xml:space="preserve" font-size="4.66779" transform="translate(685.459, 455.26)" >c</text>
<text fill="#ff0000"  xml:space="preserve" font-size="4.66779" transform="translate(670.116, 432.819)" >b</text>
<text fill="#666600"  xml:space="preserve" font-size="6.22372" transform="translate(692.939, 434.605)" >w=1.0e-6</text>
<text fill="#666600"  xml:space="preserve" font-size="6.22372" transform="translate(692.939, 442.086)" >l=2.0e-6</text>
<text fill="#222222"  xml:space="preserve" font-size="6.22372" transform="translate(437.109, 302.95)" >M1A</text>
<text fill="#ff0000"  xml:space="preserve" font-size="4.66779" transform="translate(446.085, 313.506)" >G</text>
<text fill="#222222"  xml:space="preserve" font-size="6.22372" transform="translate(378.148, 332.465)" >sg13_lv_nmos</text>
<text fill="#666600"  xml:space="preserve" font-size="6.22372" transform="translate(406.4, 324.643)" >m=1</text>
<text fill="#666600"  xml:space="preserve" font-size="6.22372" transform="translate(404.4, 319.407)" >ng=3</text>
<text fill="#666600"  xml:space="preserve" font-size="6.22372" transform="translate(406.4, 311.926)" >l=1u</text>
<text fill="#666600"  xml:space="preserve" font-size="6.22372" transform="translate(399.4, 305.194)" >w=15u</text>
<text fill="#ff0000"  xml:space="preserve" font-size="4.66779" transform="translate(423.636, 329.963)" >S</text>
<text fill="#ff0000"  xml:space="preserve" font-size="4.66779" transform="translate(422.636, 303.663)" >D</text>
<text fill="#ff0000"  xml:space="preserve" font-size="4.66779" transform="translate(425.132, 313.506)" >B</text>
<text fill="#222222"  xml:space="preserve" font-size="6.22372" transform="translate(812.626, 449.566)" >pnpMPA</text>
<text fill="#222222"  xml:space="preserve" font-size="6.22372" transform="translate(812.626, 424.881)" >XQ3</text>
<text fill="#ff0000"  xml:space="preserve" font-size="4.66779" transform="translate(805.146, 417.858)" >e</text>
<text fill="#ff0000"  xml:space="preserve" font-size="4.66779" transform="translate(805.146, 455.26)" >c</text>
<text fill="#ff0000"  xml:space="preserve" font-size="4.66779" transform="translate(789.803, 432.819)" >b</text>
<text fill="#666600"  xml:space="preserve" font-size="6.22372" transform="translate(812.626, 434.605)" >w=1.0e-6</text>
<text fill="#666600"  xml:space="preserve" font-size="6.22372" transform="translate(812.626, 442.086)" >l=2.0e-6</text>
<text fill="#0099cc"  xml:space="preserve" font-size="8.40202" transform="translate(900.352, 318.48)" >vref</text>
<text fill="#222222"  xml:space="preserve" font-size="6.22372" transform="translate(437.109, 369.526)" >Vmeas</text>
<text fill="#222222"  xml:space="preserve" font-size="6.22372" transform="translate(820.107, 267.792)" >Vmeas1</text>
<text fill="#0099cc"  xml:space="preserve" font-size="10.2691" transform="translate(673.955, 349.635)" >v2</text>
<text fill="#0099cc"  xml:space="preserve" font-size="10.2691" transform="translate(673.955, 409.479)" >v3</text>
<text fill="#0099cc"  xml:space="preserve" font-size="10.2691" transform="translate(410.644, 349.635)" >v1</text>
<text fill="#0099cc"  xml:space="preserve" font-size="8.40202" transform="translate(483.448, 73.1217)" >vg4</text>
<text fill="#222222"  xml:space="preserve" font-size="6.22372" transform="translate(437.109, 111.451)" >M4B</text>
<text fill="#ff0000"  xml:space="preserve" font-size="4.66779" transform="translate(446.085, 122.007)" >G</text>
<text fill="#222222"  xml:space="preserve" font-size="6.22372" transform="translate(378.148, 140.966)" >sg13_lv_pmos</text>
<text fill="#666600"  xml:space="preserve" font-size="6.22372" transform="translate(406.4, 133.144)" >m=1</text>
<text fill="#666600"  xml:space="preserve" font-size="6.22372" transform="translate(400.4, 127.908)" >ng=10</text>
<text fill="#666600"  xml:space="preserve" font-size="6.22372" transform="translate(406.4, 120.427)" >l=1u</text>
<text fill="#666600"  xml:space="preserve" font-size="6.22372" transform="translate(399.4, 113.695)" >w=50u</text>
<text fill="#ff0000"  xml:space="preserve" font-size="4.66779" transform="translate(422.636, 138.464)" >D</text>
<text fill="#ff0000"  xml:space="preserve" font-size="4.66779" transform="translate(423.636, 112.164)" >S</text>
<text fill="#ff0000"  xml:space="preserve" font-size="4.66779" transform="translate(425.132, 122.007)" >B</text>
<text fill="#0099cc"  xml:space="preserve" font-size="8.40202" transform="translate(495.417, 312.496)" >vg1</text>
<text fill="#0099cc"  xml:space="preserve" font-size="8.40202" transform="translate(495.417, 264.621)" >vg2</text>
<text fill="#0099cc"  xml:space="preserve" font-size="8.40202" transform="translate(483.448, 120.996)" >vg3</text>
<text fill="#222222"  xml:space="preserve" font-size="6.22372" transform="translate(437.109, 255.075)" >M1B</text>
<text fill="#ff0000"  xml:space="preserve" font-size="4.66779" transform="translate(446.085, 265.631)" >G</text>
<text fill="#222222"  xml:space="preserve" font-size="6.22372" transform="translate(378.148, 284.591)" >sg13_lv_nmos</text>
<text fill="#666600"  xml:space="preserve" font-size="6.22372" transform="translate(406.4, 276.768)" >m=1</text>
<text fill="#666600"  xml:space="preserve" font-size="6.22372" transform="translate(404.4, 271.532)" >ng=3</text>
<text fill="#666600"  xml:space="preserve" font-size="6.22372" transform="translate(406.4, 264.052)" >l=1u</text>
<text fill="#666600"  xml:space="preserve" font-size="6.22372" transform="translate(399.4, 257.319)" >w=15u</text>
<text fill="#ff0000"  xml:space="preserve" font-size="4.66779" transform="translate(423.636, 282.088)" >S</text>
<text fill="#ff0000"  xml:space="preserve" font-size="4.66779" transform="translate(422.636, 255.789)" >D</text>
<text fill="#ff0000"  xml:space="preserve" font-size="4.66779" transform="translate(425.132, 265.631)" >B</text>
<text fill="#222222"  xml:space="preserve" font-size="6.22372" transform="translate(668.467, 302.95)" >M2A</text>
<text fill="#ff0000"  xml:space="preserve" font-size="4.66779" transform="translate(669.49, 313.506)" >G</text>
<text fill="#222222"  xml:space="preserve" font-size="6.22372" transform="translate(697.428, 332.465)" >sg13_lv_nmos</text>
<text fill="#666600"  xml:space="preserve" font-size="6.22372" transform="translate(698.176, 324.643)" >m=1</text>
<text fill="#666600"  xml:space="preserve" font-size="6.22372" transform="translate(698.176, 319.407)" >ng=3</text>
<text fill="#666600"  xml:space="preserve" font-size="6.22372" transform="translate(698.176, 311.926)" >l=1u</text>
<text fill="#666600"  xml:space="preserve" font-size="6.22372" transform="translate(698.176, 305.194)" >w=15u</text>
<text fill="#ff0000"  xml:space="preserve" font-size="4.66779" transform="translate(692.939, 329.963)" >S</text>
<text fill="#ff0000"  xml:space="preserve" font-size="4.66779" transform="translate(692.939, 303.663)" >D</text>
<text fill="#ff0000"  xml:space="preserve" font-size="4.66779" transform="translate(691.443, 313.506)" >B</text>
<text fill="#222222"  xml:space="preserve" font-size="6.22372" transform="translate(669.467, 255.075)" >M2B</text>
<text fill="#ff0000"  xml:space="preserve" font-size="4.66779" transform="translate(669.49, 265.631)" >G</text>
<text fill="#222222"  xml:space="preserve" font-size="6.22372" transform="translate(697.428, 284.591)" >sg13_lv_nmos</text>
<text fill="#666600"  xml:space="preserve" font-size="6.22372" transform="translate(698.176, 276.768)" >m=1</text>
<text fill="#666600"  xml:space="preserve" font-size="6.22372" transform="translate(698.176, 271.532)" >ng=3</text>
<text fill="#666600"  xml:space="preserve" font-size="6.22372" transform="translate(698.176, 264.052)" >l=1u</text>
<text fill="#666600"  xml:space="preserve" font-size="6.22372" transform="translate(698.176, 257.319)" >w=15u</text>
<text fill="#ff0000"  xml:space="preserve" font-size="4.66779" transform="translate(692.939, 282.088)" >S</text>
<text fill="#ff0000"  xml:space="preserve" font-size="4.66779" transform="translate(692.939, 255.789)" >D</text>
<text fill="#ff0000"  xml:space="preserve" font-size="4.66779" transform="translate(691.443, 265.631)" >B</text>
<text fill="#222222"  xml:space="preserve" font-size="6.22372" transform="translate(437.109, 63.5759)" >M4A</text>
<text fill="#ff0000"  xml:space="preserve" font-size="4.66779" transform="translate(446.085, 74.1318)" >G</text>
<text fill="#222222"  xml:space="preserve" font-size="6.22372" transform="translate(378.148, 93.0914)" >sg13_lv_pmos</text>
<text fill="#666600"  xml:space="preserve" font-size="6.22372" transform="translate(406.4, 85.2692)" >m=1</text>
<text fill="#666600"  xml:space="preserve" font-size="6.22372" transform="translate(400.4, 80.0329)" >ng=10</text>
<text fill="#666600"  xml:space="preserve" font-size="6.22372" transform="translate(406.4, 72.5524)" >l=1u</text>
<text fill="#666600"  xml:space="preserve" font-size="6.22372" transform="translate(399.4, 65.82)" >w=50u</text>
<text fill="#ff0000"  xml:space="preserve" font-size="4.66779" transform="translate(422.636, 90.5888)" >D</text>
<text fill="#ff0000"  xml:space="preserve" font-size="4.66779" transform="translate(423.636, 64.2896)" >S</text>
<text fill="#ff0000"  xml:space="preserve" font-size="4.66779" transform="translate(425.132, 74.1318)" >B</text>
<text fill="#222222"  xml:space="preserve" font-size="6.22372" transform="translate(669.467, 111.451)" >M3B</text>
<text fill="#ff0000"  xml:space="preserve" font-size="4.66779" transform="translate(669.49, 122.007)" >G</text>
<text fill="#222222"  xml:space="preserve" font-size="6.22372" transform="translate(697.428, 140.966)" >sg13_lv_pmos</text>
<text fill="#666600"  xml:space="preserve" font-size="6.22372" transform="translate(698.176, 133.144)" >m=1</text>
<text fill="#666600"  xml:space="preserve" font-size="6.22372" transform="translate(698.176, 127.908)" >ng=10</text>
<text fill="#666600"  xml:space="preserve" font-size="6.22372" transform="translate(698.176, 120.427)" >l=1u</text>
<text fill="#666600"  xml:space="preserve" font-size="6.22372" transform="translate(698.176, 113.695)" >w=50u</text>
<text fill="#ff0000"  xml:space="preserve" font-size="4.66779" transform="translate(692.939, 138.464)" >D</text>
<text fill="#ff0000"  xml:space="preserve" font-size="4.66779" transform="translate(692.939, 112.164)" >S</text>
<text fill="#ff0000"  xml:space="preserve" font-size="4.66779" transform="translate(691.443, 122.007)" >B</text>
<text fill="#222222"  xml:space="preserve" font-size="6.22372" transform="translate(668.467, 63.5759)" >M3A</text>
<text fill="#ff0000"  xml:space="preserve" font-size="4.66779" transform="translate(669.49, 74.1318)" >G</text>
<text fill="#222222"  xml:space="preserve" font-size="6.22372" transform="translate(697.428, 93.0914)" >sg13_lv_pmos</text>
<text fill="#666600"  xml:space="preserve" font-size="6.22372" transform="translate(698.176, 85.2692)" >m=1</text>
<text fill="#666600"  xml:space="preserve" font-size="6.22372" transform="translate(698.176, 80.0329)" >ng=10</text>
<text fill="#666600"  xml:space="preserve" font-size="6.22372" transform="translate(698.176, 72.5524)" >l=1u</text>
<text fill="#666600"  xml:space="preserve" font-size="6.22372" transform="translate(698.176, 65.82)" >w=50u</text>
<text fill="#ff0000"  xml:space="preserve" font-size="4.66779" transform="translate(692.939, 90.5888)" >D</text>
<text fill="#ff0000"  xml:space="preserve" font-size="4.66779" transform="translate(692.939, 64.2896)" >S</text>
<text fill="#ff0000"  xml:space="preserve" font-size="4.66779" transform="translate(691.443, 74.1318)" >B</text>
<text fill="#222222"  xml:space="preserve" font-size="6.22372" transform="translate(788.154, 141.372)" >M5A</text>
<text fill="#ff0000"  xml:space="preserve" font-size="4.66779" transform="translate(789.177, 151.928)" >G</text>
<text fill="#222222"  xml:space="preserve" font-size="6.22372" transform="translate(817.115, 170.888)" >sg13_lv_pmos</text>
<text fill="#666600"  xml:space="preserve" font-size="6.22372" transform="translate(817.863, 163.066)" >m=1</text>
<text fill="#666600"  xml:space="preserve" font-size="6.22372" transform="translate(817.863, 157.829)" >ng=10</text>
<text fill="#666600"  xml:space="preserve" font-size="6.22372" transform="translate(817.863, 150.349)" >l=1u</text>
<text fill="#666600"  xml:space="preserve" font-size="6.22372" transform="translate(817.863, 143.617)" >w=50u</text>
<text fill="#ff0000"  xml:space="preserve" font-size="4.66779" transform="translate(812.626, 168.385)" >D</text>
<text fill="#ff0000"  xml:space="preserve" font-size="4.66779" transform="translate(812.626, 142.086)" >S</text>
<text fill="#ff0000"  xml:space="preserve" font-size="4.66779" transform="translate(811.13, 151.928)" >B</text>
<text fill="#222222"  xml:space="preserve" font-size="6.22372" transform="translate(789.154, 201.216)" >M5B</text>
<text fill="#ff0000"  xml:space="preserve" font-size="4.66779" transform="translate(789.177, 211.772)" >G</text>
<text fill="#222222"  xml:space="preserve" font-size="6.22372" transform="translate(817.115, 230.731)" >sg13_lv_pmos</text>
<text fill="#666600"  xml:space="preserve" font-size="6.22372" transform="translate(817.863, 222.909)" >m=1</text>
<text fill="#666600"  xml:space="preserve" font-size="6.22372" transform="translate(817.863, 217.673)" >ng=10</text>
<text fill="#666600"  xml:space="preserve" font-size="6.22372" transform="translate(817.863, 210.192)" >l=1u</text>
<text fill="#666600"  xml:space="preserve" font-size="6.22372" transform="translate(817.863, 203.46)" >w=50u</text>
<text fill="#ff0000"  xml:space="preserve" font-size="4.66779" transform="translate(812.626, 228.229)" >D</text>
<text fill="#ff0000"  xml:space="preserve" font-size="4.66779" transform="translate(812.626, 201.93)" >S</text>
<text fill="#ff0000"  xml:space="preserve" font-size="4.66779" transform="translate(811.13, 211.772)" >B</text>
<text fill="#222222"  xml:space="preserve" font-size="6.22372" transform="translate(511.843, 159.325)" >Mstartup</text>
<text fill="#ff0000"  xml:space="preserve" font-size="4.66779" transform="translate(525.866, 169.881)" >G</text>
<text fill="#222222"  xml:space="preserve" font-size="6.22372" transform="translate(553.803, 188.841)" >sg13_lv_pmos</text>
<text fill="#666600"  xml:space="preserve" font-size="6.22372" transform="translate(554.551, 181.019)" >m=1</text>
<text fill="#666600"  xml:space="preserve" font-size="6.22372" transform="translate(554.551, 175.782)" >ng=1</text>
<text fill="#666600"  xml:space="preserve" font-size="6.22372" transform="translate(554.551, 168.302)" >l=10u</text>
<text fill="#666600"  xml:space="preserve" font-size="6.22372" transform="translate(554.551, 161.57)" >w=0.5u</text>
<text fill="#ff0000"  xml:space="preserve" font-size="4.66779" transform="translate(549.315, 186.338)" >D</text>
<text fill="#ff0000"  xml:space="preserve" font-size="4.66779" transform="translate(549.315, 160.039)" >S</text>
<text fill="#ff0000"  xml:space="preserve" font-size="4.66779" transform="translate(547.819, 169.881)" >B</text>
<text fill="#222222"  xml:space="preserve" font-size="6.22372" transform="translate(556.796, 225.901)" >Vmeas2</text>
<text fill="#222222"  xml:space="preserve" font-size="6.22372" transform="translate(606.868, 380.148)" >bandgap_simple_res-6k</text>
<text fill="#222222"  xml:space="preserve" font-size="6.22372" transform="translate(671.467, 370.573)" >xr1</text>
<text fill="#222222"  xml:space="preserve" font-size="6.22372" transform="translate(679.475, 360.399)" >rp</text>
<text fill="#222222"  xml:space="preserve" font-size="6.22372" transform="translate(679.475, 390.321)" >rn</text>
<text fill="#222222"  xml:space="preserve" font-size="6.22372" transform="translate(706.404, 369.376)" >bn</text>
<text fill="#222222"  xml:space="preserve" font-size="6.22372" transform="translate(339.557, 212.586)" >bandgap_simple_res-10k</text>
<text fill="#222222"  xml:space="preserve" font-size="6.22372" transform="translate(408.156, 203.011)" >xr4</text>
<text fill="#222222"  xml:space="preserve" font-size="6.22372" transform="translate(416.163, 192.838)" >rp</text>
<text fill="#222222"  xml:space="preserve" font-size="6.22372" transform="translate(416.163, 222.76)" >rn</text>
<text fill="#222222"  xml:space="preserve" font-size="6.22372" transform="translate(443.093, 201.814)" >bn</text>
<text fill="#222222"  xml:space="preserve" font-size="6.22372" transform="translate(701.018, 188.649)" >bandgap_simple_res-10k</text>
<text fill="#222222"  xml:space="preserve" font-size="6.22372" transform="translate(700.42, 179.074)" >xr3</text>
<text fill="#222222"  xml:space="preserve" font-size="6.22372" transform="translate(696.412, 168.9)" >rp</text>
<text fill="#222222"  xml:space="preserve" font-size="6.22372" transform="translate(696.412, 198.822)" >rn</text>
<text fill="#222222"  xml:space="preserve" font-size="6.22372" transform="translate(668.483, 177.877)" >bn</text>
<text fill="#222222"  xml:space="preserve" font-size="6.22372" transform="translate(820.705, 380.148)" >bandgap_simple_res-37k5</text>
<text fill="#222222"  xml:space="preserve" font-size="6.22372" transform="translate(820.107, 370.573)" >xr2</text>
<text fill="#222222"  xml:space="preserve" font-size="6.22372" transform="translate(816.099, 360.399)" >rp</text>
<text fill="#222222"  xml:space="preserve" font-size="6.22372" transform="translate(816.099, 390.321)" >rn</text>
<text fill="#222222"  xml:space="preserve" font-size="6.22372" transform="translate(788.169, 369.376)" >bn</text>
<text fill="#0099cc"  xml:space="preserve" font-size="6.22372" transform="translate(460.713, 203.045) rotate(270)" >GND</text>
<text fill="#0099cc"  xml:space="preserve" font-size="6.22372" transform="translate(724.024, 370.607) rotate(270)" >GND</text>
<text fill="#0099cc"  xml:space="preserve" font-size="6.22372" transform="translate(782.713, 370.607) rotate(270)" >GND</text>
<text fill="#0099cc"  xml:space="preserve" font-size="6.22372" transform="translate(663.026, 179.108) rotate(270)" >GND</text>
<text fill="#aa2222"  xml:space="preserve" font-size="6.22372" style="font-family:Monospace;" transform="translate(987.669, 78.5368)" >?</text>
<text fill="#229900"  xml:space="preserve" font-size="6.22372" transform="translate(984.676, 68.406)" >M5A</text>
<text fill="#aa2222"  xml:space="preserve" font-size="6.22372" style="font-family:Monospace;" transform="translate(987.669, 168.302)" >?</text>
<text fill="#229900"  xml:space="preserve" font-size="6.22372" transform="translate(984.676, 158.171)" >M5B</text>
<text fill="#aa2222"  xml:space="preserve" font-size="6.22372" style="font-family:Monospace;" transform="translate(221.672, 54.5994)" >?</text>
<text fill="#229900"  xml:space="preserve" font-size="6.22372" transform="translate(218.68, 44.4686)" >M4A</text>
<text fill="#aa2222"  xml:space="preserve" font-size="6.22372" style="font-family:Monospace;" transform="translate(221.672, 144.365)" >?</text>
<text fill="#229900"  xml:space="preserve" font-size="6.22372" transform="translate(218.68, 134.234)" >M4B</text>
<text fill="#aa2222"  xml:space="preserve" font-size="6.22372" style="font-family:Monospace;" transform="translate(885.935, 449.566)" >?</text>
<text fill="#229900"  xml:space="preserve" font-size="6.22372" transform="translate(882.942, 439.435)" >M1B</text>
<text fill="#aa2222"  xml:space="preserve" font-size="6.22372" style="font-family:Monospace;" transform="translate(885.935, 539.331)" >?</text>
<text fill="#229900"  xml:space="preserve" font-size="6.22372" transform="translate(882.942, 529.201)" >M1A</text>
<text fill="#aa2222"  xml:space="preserve" font-size="6.22372" style="font-family:Monospace;" transform="translate(963.731, 449.566)" >?</text>
<text fill="#229900"  xml:space="preserve" font-size="6.22372" transform="translate(960.739, 439.435)" >M2B</text>
<text fill="#aa2222"  xml:space="preserve" font-size="6.22372" style="font-family:Monospace;" transform="translate(963.731, 539.331)" >?</text>
<text fill="#229900"  xml:space="preserve" font-size="6.22372" transform="translate(960.739, 529.201)" >M2A</text>
<text fill="#aa2222"  xml:space="preserve" font-size="6.22372" style="font-family:Monospace;" transform="translate(915.856, 78.5368)" >?</text>
<text fill="#229900"  xml:space="preserve" font-size="6.22372" transform="translate(912.864, 68.406)" >M3A</text>
<text fill="#aa2222"  xml:space="preserve" font-size="6.22372" style="font-family:Monospace;" transform="translate(915.856, 168.302)" >?</text>
<text fill="#229900"  xml:space="preserve" font-size="6.22372" transform="translate(912.864, 158.171)" >M3B</text>
<path class="l1" d="M320.414 476.829L320.414 488.798"/>
<path class="l1" d="M320.414 452.892L320.414 476.829"/>
<path class="l1" d="M691.443 452.892L691.443 476.829"/>
<path class="l1" d="M428.132 452.892L428.132 476.829"/>
<path class="l1" d="M655.537 434.939L667.506 434.939"/>
<path class="l1" d="M655.537 434.939L655.537 476.829"/>
<path class="l1" d="M452.07 434.939L464.038 434.939"/>
<path class="l1" d="M464.038 434.939L464.038 476.829"/>
<path class="l1" d="M428.132 476.829L464.038 476.829"/>
<path class="l1" d="M691.443 393.048L691.443 416.986"/>
<path class="l1" d="M428.132 33.9874L428.132 57.9248"/>
<path class="l1" d="M601.678 33.9874L691.443 33.9874"/>
<path class="l1" d="M691.443 33.9874L691.443 57.9248"/>
<path class="l1" d="M392.226 33.9874L428.132 33.9874"/>
<path class="l1" d="M655.537 75.8778L667.506 75.8778"/>
<path class="l1" d="M452.07 315.252L464.038 315.252"/>
<path class="l1" d="M392.226 75.8778L428.132 75.8778"/>
<path class="l1" d="M392.226 33.9874L392.226 75.8778"/>
<path class="l1" d="M320.414 33.9874L392.226 33.9874"/>
<path class="l1" d="M691.443 75.8778L727.349 75.8778"/>
<path class="l1" d="M727.349 33.9874L727.349 75.8778"/>
<path class="l1" d="M691.443 33.9874L727.349 33.9874"/>
<path class="l1" d="M392.226 315.252L428.132 315.252"/>
<path class="l1" d="M392.226 476.829L428.132 476.829"/>
<path class="l1" d="M691.443 315.252L727.349 315.252"/>
<path class="l1" d="M727.349 476.829L775.224 476.829"/>
<path class="l1" d="M775.224 476.829L811.13 476.829"/>
<path class="l1" d="M811.13 452.892L811.13 476.829"/>
<path class="l1" d="M775.224 434.939L787.193 434.939"/>
<path class="l1" d="M775.224 434.939L775.224 476.829"/>
<path class="l1" d="M811.13 393.048L811.13 416.986"/>
<path class="l1" d="M727.349 33.9874L811.13 33.9874"/>
<path class="l1" d="M811.13 321.236L811.13 357.142"/>
<path class="l1" d="M811.13 33.9874L847.036 33.9874"/>
<path class="l1" d="M811.13 321.236L918.849 321.236"/>
<path class="l1" d="M428.132 393.048L428.132 416.986"/>
<path class="l1" d="M811.13 291.314L811.13 321.236"/>
<path class="l1" d="M691.443 285.33L691.443 297.299"/>
<path class="l1" d="M691.443 267.377L727.349 267.377"/>
<path class="l1" d="M727.349 267.377L727.349 315.252"/>
<path class="l1" d="M428.132 285.33L428.132 297.299"/>
<path class="l1" d="M392.226 267.377L428.132 267.377"/>
<path class="l1" d="M392.226 267.377L392.226 315.252"/>
<path class="l1" d="M428.132 237.455L464.038 237.455"/>
<path class="l1" d="M428.132 237.455L428.132 249.424"/>
<path class="l1" d="M428.132 225.486L428.132 237.455"/>
<path class="l1" d="M464.038 237.455L464.038 315.252"/>
<path class="l1" d="M476.007 177.612L476.007 267.377"/>
<path class="l1" d="M452.07 267.377L476.007 267.377"/>
<path class="l1" d="M428.132 177.612L476.007 177.612"/>
<path class="l1" d="M428.132 177.612L428.132 189.58"/>
<path class="l1" d="M428.132 141.706L428.132 177.612"/>
<path class="l1" d="M428.132 93.8308L428.132 105.8"/>
<path class="l1" d="M643.569 123.753L667.506 123.753"/>
<path class="l1" d="M691.443 93.8308L691.443 105.8"/>
<path class="l1" d="M691.443 123.753L727.349 123.753"/>
<path class="l1" d="M727.349 75.8778L727.349 123.753"/>
<path class="l1" d="M392.226 123.753L428.132 123.753"/>
<path class="l1" d="M392.226 75.8778L392.226 123.753"/>
<path class="l1" d="M655.537 153.674L691.443 153.674"/>
<path class="l1" d="M643.569 123.753L643.569 213.518"/>
<path class="l1" d="M691.443 201.549L691.443 213.518"/>
<path class="l1" d="M691.443 213.518L787.193 213.518"/>
<path class="l1" d="M691.443 213.518L691.443 249.424"/>
<path class="l1" d="M655.537 75.8778L655.537 153.674"/>
<path class="l1" d="M691.443 141.706L691.443 153.674"/>
<path class="l1" d="M691.443 153.674L787.193 153.674"/>
<path class="l1" d="M691.443 153.674L691.443 165.643"/>
<path class="l1" d="M320.414 33.9874L320.414 416.986"/>
<path class="l1" d="M428.132 333.205L428.132 357.142"/>
<path class="l1" d="M392.226 315.252L392.226 476.829"/>
<path class="l1" d="M691.443 333.205L691.443 357.142"/>
<path class="l1" d="M727.349 315.252L727.349 476.829"/>
<path class="l1" d="M643.569 213.518L691.443 213.518"/>
<path class="l1" d="M320.414 476.829L392.226 476.829"/>
<path class="l1" d="M691.443 476.829L727.349 476.829"/>
<path class="l1" d="M811.13 33.9874L811.13 135.721"/>
<path class="l1" d="M847.036 153.674L847.036 213.518"/>
<path class="l1" d="M811.13 213.518L847.036 213.518"/>
<path class="l1" d="M811.13 153.674L847.036 153.674"/>
<path class="l1" d="M847.036 33.9874L847.036 153.674"/>
<path class="l1" d="M811.13 171.627L811.13 195.565"/>
<path class="l1" d="M811.13 231.471L811.13 255.408"/>
<path class="l1" d="M655.537 476.829L691.443 476.829"/>
<path class="l1" d="M464.038 476.829L655.537 476.829"/>
<path class="l1" d="M452.07 75.8778L655.537 75.8778"/>
<path class="l1" d="M511.913 171.627L523.882 171.627"/>
<path class="l1" d="M547.819 189.58L547.819 201.549"/>
<path class="l1" d="M464.038 315.252L667.506 315.252"/>
<path class="l1" d="M547.819 123.753L643.569 123.753"/>
<path class="l1" d="M547.819 123.753L547.819 153.674"/>
<path class="l1" d="M452.07 123.753L547.819 123.753"/>
<path class="l1" d="M547.819 171.627L601.678 171.627"/>
<path class="l1" d="M428.132 33.9874L601.678 33.9874"/>
<path class="l1" d="M511.913 201.549L547.819 201.549"/>
<path class="l1" d="M511.913 171.627L511.913 201.549"/>
<path class="l1" d="M547.819 267.377L667.506 267.377"/>
<path class="l1" d="M547.819 249.424L547.819 267.377"/>
<path class="l1" d="M476.007 267.377L547.819 267.377"/>
<path class="l1" d="M601.678 33.9874L601.678 171.627"/>
<path class="l1" d="M547.819 201.549L547.819 213.518"/>
<path class="l1" d="M446.085 207.533L452.07 207.533"/>
<path class="l1" d="M667.506 183.596L673.49 183.596"/>
<path class="l1" d="M787.193 375.095L793.177 375.095"/>
<path class="l1" d="M709.396 375.095L715.381 375.095"/>
<circle class="l1" cx="392.226" cy="33.9874" r="2.21421"/>
<circle class="l1" cx="320.414" cy="476.829" r="2.21421"/>
<circle class="l1" cx="392.226" cy="476.829" r="2.21421"/>
<circle class="l1" cx="320.414" cy="476.829" r="2.21421"/>
<circle class="l1" cx="320.414" cy="476.829" r="2.21421"/>
<circle class="l1" cx="428.132" cy="33.9874" r="2.21421"/>
<circle class="l1" cx="601.678" cy="33.9874" r="2.21421"/>
<circle class="l1" cx="547.819" cy="123.753" r="2.21421"/>
<circle class="l1" cx="547.819" cy="123.753" r="2.21421"/>
<circle class="l1" cx="547.819" cy="123.753" r="2.21421"/>
<circle class="l1" cx="643.569" cy="123.753" r="2.21421"/>
<circle class="l1" cx="655.537" cy="75.8778" r="2.21421"/>
<circle class="l1" cx="392.226" cy="75.8778" r="2.21421"/>
<circle class="l1" cx="428.132" cy="177.612" r="2.21421"/>
<circle class="l1" cx="392.226" cy="33.9874" r="2.21421"/>
<circle class="l1" cx="392.226" cy="75.8778" r="2.21421"/>
<circle class="l1" cx="392.226" cy="75.8778" r="2.21421"/>
<circle class="l1" cx="392.226" cy="33.9874" r="2.21421"/>
<circle class="l1" cx="428.132" cy="33.9874" r="2.21421"/>
<circle class="l1" cx="428.132" cy="33.9874" r="2.21421"/>
<circle class="l1" cx="547.819" cy="201.549" r="2.21421"/>
<circle class="l1" cx="476.007" cy="267.377" r="2.21421"/>
<circle class="l1" cx="547.819" cy="267.377" r="2.21421"/>
<circle class="l1" cx="547.819" cy="267.377" r="2.21421"/>
<circle class="l1" cx="547.819" cy="267.377" r="2.21421"/>
<circle class="l1" cx="547.819" cy="201.549" r="2.21421"/>
<circle class="l1" cx="464.038" cy="315.252" r="2.21421"/>
<circle class="l1" cx="547.819" cy="201.549" r="2.21421"/>
<circle class="l1" cx="392.226" cy="315.252" r="2.21421"/>
<circle class="l1" cx="392.226" cy="476.829" r="2.21421"/>
<circle class="l1" cx="428.132" cy="177.612" r="2.21421"/>
<circle class="l1" cx="428.132" cy="177.612" r="2.21421"/>
<circle class="l1" cx="476.007" cy="267.377" r="2.21421"/>
<circle class="l1" cx="476.007" cy="267.377" r="2.21421"/>
<circle class="l1" cx="464.038" cy="315.252" r="2.21421"/>
<circle class="l1" cx="428.132" cy="237.455" r="2.21421"/>
<circle class="l1" cx="428.132" cy="237.455" r="2.21421"/>
<circle class="l1" cx="428.132" cy="237.455" r="2.21421"/>
<circle class="l1" cx="392.226" cy="315.252" r="2.21421"/>
<circle class="l1" cx="392.226" cy="315.252" r="2.21421"/>
<circle class="l1" cx="464.038" cy="315.252" r="2.21421"/>
<circle class="l1" cx="464.038" cy="476.829" r="2.21421"/>
<circle class="l1" cx="655.537" cy="476.829" r="2.21421"/>
<circle class="l1" cx="392.226" cy="476.829" r="2.21421"/>
<circle class="l1" cx="428.132" cy="476.829" r="2.21421"/>
<circle class="l1" cx="428.132" cy="476.829" r="2.21421"/>
<circle class="l1" cx="464.038" cy="476.829" r="2.21421"/>
<circle class="l1" cx="464.038" cy="476.829" r="2.21421"/>
<circle class="l1" cx="428.132" cy="476.829" r="2.21421"/>
<circle class="l1" cx="601.678" cy="33.9874" r="2.21421"/>
<circle class="l1" cx="691.443" cy="153.674" r="2.21421"/>
<circle class="l1" cx="691.443" cy="153.674" r="2.21421"/>
<circle class="l1" cx="691.443" cy="153.674" r="2.21421"/>
<circle class="l1" cx="655.537" cy="75.8778" r="2.21421"/>
<circle class="l1" cx="643.569" cy="123.753" r="2.21421"/>
<circle class="l1" cx="691.443" cy="153.674" r="2.21421"/>
<circle class="l1" cx="727.349" cy="75.8778" r="2.21421"/>
<circle class="l1" cx="643.569" cy="123.753" r="2.21421"/>
<circle class="l1" cx="727.349" cy="33.9874" r="2.21421"/>
<circle class="l1" cx="811.13" cy="33.9874" r="2.21421"/>
<circle class="l1" cx="691.443" cy="33.9874" r="2.21421"/>
<circle class="l1" cx="727.349" cy="33.9874" r="2.21421"/>
<circle class="l1" cx="727.349" cy="33.9874" r="2.21421"/>
<circle class="l1" cx="727.349" cy="75.8778" r="2.21421"/>
<circle class="l1" cx="727.349" cy="75.8778" r="2.21421"/>
<circle class="l1" cx="655.537" cy="75.8778" r="2.21421"/>
<circle class="l1" cx="691.443" cy="33.9874" r="2.21421"/>
<circle class="l1" cx="601.678" cy="33.9874" r="2.21421"/>
<circle class="l1" cx="691.443" cy="33.9874" r="2.21421"/>
<circle class="l1" cx="691.443" cy="213.518" r="2.21421"/>
<circle class="l1" cx="727.349" cy="315.252" r="2.21421"/>
<circle class="l1" cx="727.349" cy="476.829" r="2.21421"/>
<circle class="l1" cx="691.443" cy="213.518" r="2.21421"/>
<circle class="l1" cx="691.443" cy="213.518" r="2.21421"/>
<circle class="l1" cx="691.443" cy="213.518" r="2.21421"/>
<circle class="l1" cx="727.349" cy="315.252" r="2.21421"/>
<circle class="l1" cx="727.349" cy="315.252" r="2.21421"/>
<circle class="l1" cx="655.537" cy="476.829" r="2.21421"/>
<circle class="l1" cx="691.443" cy="476.829" r="2.21421"/>
<circle class="l1" cx="691.443" cy="476.829" r="2.21421"/>
<circle class="l1" cx="727.349" cy="476.829" r="2.21421"/>
<circle class="l1" cx="775.224" cy="476.829" r="2.21421"/>
<circle class="l1" cx="775.224" cy="476.829" r="2.21421"/>
<circle class="l1" cx="727.349" cy="476.829" r="2.21421"/>
<circle class="l1" cx="775.224" cy="476.829" r="2.21421"/>
<circle class="l1" cx="655.537" cy="476.829" r="2.21421"/>
<circle class="l1" cx="691.443" cy="476.829" r="2.21421"/>
<circle class="l1" cx="847.036" cy="153.674" r="2.21421"/>
<circle class="l1" cx="847.036" cy="153.674" r="2.21421"/>
<circle class="l1" cx="847.036" cy="153.674" r="2.21421"/>
<circle class="l1" cx="811.13" cy="33.9874" r="2.21421"/>
<circle class="l1" cx="811.13" cy="33.9874" r="2.21421"/>
<circle class="l1" cx="811.13" cy="321.236" r="2.21421"/>
<circle class="l1" cx="811.13" cy="321.236" r="2.21421"/>
<circle class="l1" cx="811.13" cy="321.236" r="2.21421"/>
<text fill="#222222"  xml:space="preserve" font-size="12.4474" transform="translate(637.584, 428.288)" >m=32</text>
<text fill="#222222"  xml:space="preserve" font-size="12.4474" transform="translate(416.163, 500.1)" >10uA</text>
<text fill="#222222"  xml:space="preserve" font-size="12.4474" transform="translate(667.506, 500.1)" >10uA</text>
<text fill="#222222"  xml:space="preserve" font-size="12.4474" transform="translate(793.177, 500.1)" >10uA</text>
<text fill="#222222"  xml:space="preserve" font-size="12.4474" transform="translate(446.085, 428.288)" >m=2</text>
<text fill="#222222"  xml:space="preserve" font-size="12.4474" transform="translate(757.271, 428.288)" >m=32</text>
<text fill="#222222"  xml:space="preserve" font-size="12.4474" transform="translate(835.068, 314.585)" >1.16V</text>
<text fill="#222222"  xml:space="preserve" font-size="12.4474" transform="translate(595.694, 308.601)" >1.16V</text>
<text fill="#222222"  xml:space="preserve" font-size="12.4474" transform="translate(595.694, 260.726)" >1.28V</text>
<text fill="#222222"  xml:space="preserve" font-size="12.4474" transform="translate(547.819, 69.227)" >1.10V</text>
<text fill="#222222"  xml:space="preserve" font-size="12.4474" transform="translate(547.819, 117.102)" >0.98V</text>
<text fill="#222222"  xml:space="preserve" font-size="12.4474" transform="translate(434.117, 404.35)" >0.78V</text>
<text fill="#222222"  xml:space="preserve" font-size="12.4474" transform="translate(446.085, 21.3523)" >1.5V (nom)</text>
<text fill="#222222"  xml:space="preserve" font-size="6.22372" transform="translate(74.0479, 632.687)" >b</text>
</svg>
