<svg xmlns="http://www.w3.org/2000/svg" xmlns:xlink="http://www.w3.org/1999/xlink" width="900" height="532" version="1.1">
<style type="text/css">
.l0{
  fill: #ffffff;
  stroke: #ffffff;
  stroke-linecap:round;
  stroke-linejoin:round;
  stroke-width: 0.647448;
}
.l1{
  fill: #0055ee;
  stroke: #0055ee;
  stroke-linecap:round;
  stroke-linejoin:round;
  stroke-width: 0.647448;
}
.l2{
  fill: #aaaaaa; fill-opacity: 0.2;
  stroke: #aaaaaa;
  stroke-linecap:round;
  stroke-linejoin:round;
  stroke-width: 0.647448;
}
.l3{
  fill: #222222; fill-opacity: 0.5;
  stroke: #222222;
  stroke-linecap:round;
  stroke-linejoin:round;
  stroke-width: 0.647448;
}
.l4{
  fill: #229900;
  stroke: #229900;
  stroke-linecap:round;
  stroke-linejoin:round;
  stroke-width: 0.647448;
}
.l5{
  fill: #bb2200;
  stroke: #bb2200;
  stroke-linecap:round;
  stroke-linejoin:round;
  stroke-width: 0.647448;
}
.l6{
  fill: #0055ee; fill-opacity: 0.5;
  stroke: #0055ee;
  stroke-linecap:round;
  stroke-linejoin:round;
  stroke-width: 0.647448;
}
.l7{
  fill: #ff0000; fill-opacity: 0.5;
  stroke: #ff0000;
  stroke-linecap:round;
  stroke-linejoin:round;
  stroke-width: 0.647448;
}
.l8{
  fill: #888800; fill-opacity: 0.5;
  stroke: #888800;
  stroke-linecap:round;
  stroke-linejoin:round;
  stroke-width: 0.647448;
}
.l9{
  fill: #00aaaa; fill-opacity: 0.5;
  stroke: #00aaaa;
  stroke-linecap:round;
  stroke-linejoin:round;
  stroke-width: 0.647448;
}
.l10{
  fill: #880088;
  stroke: #880088;
  stroke-linecap:round;
  stroke-linejoin:round;
  stroke-width: 0.647448;
}
.l11{
  fill: #00ff00; fill-opacity: 0.5;
  stroke: #00ff00;
  stroke-linecap:round;
  stroke-linejoin:round;
  stroke-width: 0.647448;
}
.l12{
  fill: #0000cc; fill-opacity: 0.5;
  stroke: #0000cc;
  stroke-linecap:round;
  stroke-linejoin:round;
  stroke-width: 0.647448;
}
.l13{
  fill: #666600; fill-opacity: 0.5;
  stroke: #666600;
  stroke-linecap:round;
  stroke-linejoin:round;
  stroke-width: 0.647448;
}
.l14{
  fill: #557755; fill-opacity: 0.2;
  stroke: #557755;
  stroke-linecap:round;
  stroke-linejoin:round;
  stroke-width: 0.647448;
}
.l15{
  fill: #aa2222; fill-opacity: 0.5;
  stroke: #aa2222;
  stroke-linecap:round;
  stroke-linejoin:round;
  stroke-width: 0.647448;
}
.l16{
  fill: #7ccc40; fill-opacity: 0.5;
  stroke: #7ccc40;
  stroke-linecap:round;
  stroke-linejoin:round;
  stroke-width: 0.647448;
}
.l17{
  fill: #00ffcc; fill-opacity: 0.2;
  stroke: #00ffcc;
  stroke-linecap:round;
  stroke-linejoin:round;
  stroke-width: 0.647448;
}
.l18{
  fill: #ce0097; fill-opacity: 0.5;
  stroke: #ce0097;
  stroke-linecap:round;
  stroke-linejoin:round;
  stroke-width: 0.647448;
}
.l19{
  fill: #d2d46b; fill-opacity: 0.2;
  stroke: #d2d46b;
  stroke-linecap:round;
  stroke-linejoin:round;
  stroke-width: 0.647448;
}
.l20{
  fill: #ef6158; fill-opacity: 0.2;
  stroke: #ef6158;
  stroke-linecap:round;
  stroke-linejoin:round;
  stroke-width: 0.647448;
}
.l21{
  fill: #fdb200; fill-opacity: 0.2;
  stroke: #fdb200;
  stroke-linecap:round;
  stroke-linejoin:round;
  stroke-width: 0.647448;
}
text {font-family: Sans-Serif;}
</style>
<rect class="l0" x="0" y="0" width="900" height="532"/>
<path class="l4" d="M482.372 377.265L482.372 406.041"/>
<path class="l4" d="M482.372 391.653L491.964 391.653"/>
<path class="l4" d="M472.781 377.265L477.576 382.061"/>
<path class="l4" d="M472.781 406.041L482.372 396.449"/>
<path class="l4" d="M482.372 386.857L475.179 384.459L479.974 379.663L482.372 386.857"/>
<path class="l4" d="M578.291 377.265L578.291 406.041"/>
<path class="l4" d="M568.699 391.653L578.291 391.653"/>
<path class="l4" d="M583.087 382.061L587.882 377.265"/>
<path class="l4" d="M578.291 396.449L587.882 406.041"/>
<path class="l4" d="M578.291 386.857L585.484 384.459L580.689 379.663L578.291 386.857"/>
<path class="l4" d="M472.781 329.306L472.781 358.081"/>
<path class="l4" d="M469.184 343.694L472.781 348.49"/>
<path class="l4" d="M472.781 348.49L476.378 343.694"/>
<path class="l4" d="M731.76 247.776L731.76 276.551"/>
<path class="l4" d="M728.163 262.163L731.76 266.959"/>
<path class="l4" d="M731.76 266.959L735.357 262.163"/>
<path class="l4" d="M309.72 214.204L319.311 214.204"/>
<path class="l4" d="M386.454 199.816L396.046 199.816"/>
<path class="l4" d="M386.454 228.592L396.046 228.592"/>
<path class="l4" d="M386.454 185.429L386.454 242.98"/>
<path class="l4" d="M319.311 214.204L386.454 242.98"/>
<path class="l4" d="M319.311 214.204L386.454 185.429"/>
<path class="l4" d="M309.72 175.837L396.046 175.837"/>
<path class="l4" d="M309.72 175.837L309.72 252.571"/>
<path class="l4" d="M309.72 252.571L396.046 252.571"/>
<path class="l4" d="M396.046 175.837L396.046 252.571"/>
<path class="l4" d="M344.49 93.1074L344.49 114.689"/>
<path class="l4" d="M338.495 89.5105L338.495 95.5054"/>
<path class="l4" d="M338.495 112.291L338.495 118.286"/>
<path class="l4" d="M346.888 96.7043L346.888 111.092"/>
<path class="l4" d="M338.495 112.291L344.49 112.291"/>
<path class="l4" d="M338.495 95.5054L344.49 95.5054"/>
<path class="l4" d="M347.128 103.898L357.679 103.898"/>
<path class="l4" d="M342.092 94.3064L344.49 95.5054L342.092 96.7043L342.092 94.3064"/>
<path class="l4" d="M472.781 271.755L472.781 300.531"/>
<path class="l4" d="M469.184 286.143L472.781 290.939"/>
<path class="l4" d="M472.781 290.939L476.378 286.143"/>
<path class="l4" d="M587.882 271.755L587.882 300.531"/>
<path class="l4" d="M584.286 286.143L587.882 290.939"/>
<path class="l4" d="M587.882 290.939L591.479 286.143"/>
<path class="l4" d="M478.775 93.1074L478.775 114.689"/>
<path class="l4" d="M472.781 89.5105L472.781 95.5054"/>
<path class="l4" d="M472.781 112.291L472.781 118.286"/>
<path class="l4" d="M481.173 96.7043L481.173 111.092"/>
<path class="l4" d="M472.781 112.291L478.775 112.291"/>
<path class="l4" d="M472.781 95.5054L478.775 95.5054"/>
<path class="l4" d="M481.413 103.898L491.964 103.898"/>
<path class="l4" d="M476.378 94.3064L478.775 95.5054L476.378 96.7043L476.378 94.3064"/>
<path class="l4" d="M581.888 93.1074L581.888 114.689"/>
<path class="l4" d="M587.882 89.5105L587.882 95.5054"/>
<path class="l4" d="M587.882 112.291L587.882 118.286"/>
<path class="l4" d="M579.49 96.7043L579.49 111.092"/>
<path class="l4" d="M581.888 112.291L587.882 112.291"/>
<path class="l4" d="M581.888 95.5054L587.882 95.5054"/>
<path class="l4" d="M568.699 103.898L579.25 103.898"/>
<path class="l4" d="M584.286 94.3064L581.888 95.5054L584.286 96.7043L584.286 94.3064"/>
<path class="l4" d="M725.765 93.1074L725.765 114.689"/>
<path class="l4" d="M731.76 89.5105L731.76 95.5054"/>
<path class="l4" d="M731.76 112.291L731.76 118.286"/>
<path class="l4" d="M723.367 96.7043L723.367 111.092"/>
<path class="l4" d="M725.765 112.291L731.76 112.291"/>
<path class="l4" d="M725.765 95.5054L731.76 95.5054"/>
<path class="l4" d="M712.576 103.898L723.127 103.898"/>
<path class="l4" d="M728.163 94.3064L725.765 95.5054L728.163 96.7043L728.163 94.3064"/>
<path class="l4" d="M274.949 356.883L274.949 378.464"/>
<path class="l4" d="M280.944 353.286L280.944 359.28"/>
<path class="l4" d="M280.944 376.066L280.944 382.061"/>
<path class="l4" d="M272.551 360.479L272.551 374.867"/>
<path class="l4" d="M274.949 376.066L280.944 376.066"/>
<path class="l4" d="M274.949 359.28L280.944 359.28"/>
<path class="l4" d="M261.761 367.673L272.312 367.673"/>
<path class="l4" d="M278.546 377.265L280.944 376.066L278.546 374.867L278.546 377.265"/>
<path class="l4" d="M188.623 380.862L188.623 402.444"/>
<path class="l4" d="M194.618 377.265L194.618 383.26"/>
<path class="l4" d="M194.618 400.046L194.618 406.041"/>
<path class="l4" d="M186.225 384.459L186.225 398.847"/>
<path class="l4" d="M188.623 400.046L194.618 400.046"/>
<path class="l4" d="M188.623 383.26L194.618 383.26"/>
<path class="l4" d="M175.434 391.653L185.985 391.653"/>
<path class="l4" d="M192.22 401.245L194.618 400.046L192.22 398.847L192.22 401.245"/>
<path class="l4" d="M188.623 332.903L188.623 354.485"/>
<path class="l4" d="M194.618 329.306L194.618 335.301"/>
<path class="l4" d="M194.618 352.087L194.618 358.081"/>
<path class="l4" d="M186.225 336.5L186.225 350.888"/>
<path class="l4" d="M188.623 352.087L194.618 352.087"/>
<path class="l4" d="M188.623 335.301L194.618 335.301"/>
<path class="l4" d="M175.434 343.694L185.985 343.694"/>
<path class="l4" d="M191.021 334.102L188.623 335.301L191.021 336.5L191.021 334.102"/>
<path class="l4" d="M241.378 57.1381L262.959 57.1381"/>
<path class="l4" d="M260.562 51.1432L266.556 51.1432"/>
<path class="l4" d="M237.781 51.1432L243.776 51.1432"/>
<path class="l4" d="M244.975 59.536L259.363 59.536"/>
<path class="l4" d="M243.776 51.1432L243.776 57.1381"/>
<path class="l4" d="M260.562 51.1432L260.562 57.1381"/>
<path class="l4" d="M252.169 59.7758L252.169 70.3268"/>
<path class="l4" d="M261.761 54.7401L260.562 57.1381L259.363 54.7401L261.761 54.7401"/>
<path class="l4" d="M519.541 371.27L541.122 371.27"/>
<path class="l4" d="M515.944 377.265L521.939 377.265"/>
<path class="l4" d="M538.724 377.265L544.719 377.265"/>
<path class="l4" d="M523.138 368.872L537.525 368.872"/>
<path class="l4" d="M538.724 371.27L538.724 377.265"/>
<path class="l4" d="M521.939 371.27L521.939 377.265"/>
<path class="l4" d="M530.332 358.081L530.332 368.632"/>
<path class="l4" d="M539.923 374.867L538.724 377.265L537.525 374.867L539.923 374.867"/>
<path class="l4" d="M587.882 329.306L587.882 335.301"/>
<path class="l4" d="M587.882 335.301L592.678 336.5"/>
<path class="l4" d="M583.087 338.898L592.678 336.5"/>
<path class="l4" d="M583.087 338.898L592.678 341.296"/>
<path class="l4" d="M583.087 343.694L592.678 341.296"/>
<path class="l4" d="M583.087 343.694L592.678 346.092"/>
<path class="l4" d="M587.882 352.087L587.882 358.081"/>
<path class="l4" d="M583.087 348.49L592.678 346.092"/>
<path class="l4" d="M583.087 348.49L592.678 350.888"/>
<path class="l4" d="M587.882 352.087L592.678 350.888"/>
<path class="l4" d="M597.474 336.5L597.474 350.888"/>
<path class="l4" d="M597.474 343.694L602.27 343.694"/>
<path class="l4" d="M664.617 329.306L664.617 335.301"/>
<path class="l4" d="M659.821 336.5L664.617 335.301"/>
<path class="l4" d="M659.821 336.5L669.413 338.898"/>
<path class="l4" d="M659.821 341.296L669.413 338.898"/>
<path class="l4" d="M659.821 341.296L669.413 343.694"/>
<path class="l4" d="M659.821 346.092L669.413 343.694"/>
<path class="l4" d="M664.617 352.087L664.617 358.081"/>
<path class="l4" d="M659.821 346.092L669.413 348.49"/>
<path class="l4" d="M659.821 350.888L669.413 348.49"/>
<path class="l4" d="M659.821 350.888L664.617 352.087"/>
<path class="l4" d="M655.025 336.5L655.025 350.888"/>
<path class="l4" d="M650.229 343.694L655.025 343.694"/>
<path class="l4" d="M664.617 367.673L664.617 373.668"/>
<path class="l4" d="M659.821 374.867L664.617 373.668"/>
<path class="l4" d="M659.821 374.867L669.413 377.265"/>
<path class="l4" d="M659.821 379.663L669.413 377.265"/>
<path class="l4" d="M659.821 379.663L669.413 382.061"/>
<path class="l4" d="M659.821 384.459L669.413 382.061"/>
<path class="l4" d="M664.617 390.454L664.617 396.449"/>
<path class="l4" d="M659.821 384.459L669.413 386.857"/>
<path class="l4" d="M659.821 389.255L669.413 386.857"/>
<path class="l4" d="M659.821 389.255L664.617 390.454"/>
<path class="l4" d="M655.025 374.867L655.025 389.255"/>
<path class="l4" d="M650.229 382.061L655.025 382.061"/>
<path class="l4" d="M420.026 329.306L420.026 335.301"/>
<path class="l4" d="M420.026 335.301L424.821 336.5"/>
<path class="l4" d="M415.23 338.898L424.821 336.5"/>
<path class="l4" d="M415.23 338.898L424.821 341.296"/>
<path class="l4" d="M415.23 343.694L424.821 341.296"/>
<path class="l4" d="M415.23 343.694L424.821 346.092"/>
<path class="l4" d="M420.026 352.087L420.026 358.081"/>
<path class="l4" d="M415.23 348.49L424.821 346.092"/>
<path class="l4" d="M415.23 348.49L424.821 350.888"/>
<path class="l4" d="M420.026 352.087L424.821 350.888"/>
<path class="l4" d="M429.617 336.5L429.617 350.888"/>
<path class="l4" d="M429.617 343.694L434.413 343.694"/>
<path class="l4" d="M420.026 367.673L420.026 373.668"/>
<path class="l4" d="M420.026 373.668L424.821 374.867"/>
<path class="l4" d="M415.23 377.265L424.821 374.867"/>
<path class="l4" d="M415.23 377.265L424.821 379.663"/>
<path class="l4" d="M415.23 382.061L424.821 379.663"/>
<path class="l4" d="M415.23 382.061L424.821 384.459"/>
<path class="l4" d="M420.026 390.454L420.026 396.449"/>
<path class="l4" d="M415.23 386.857L424.821 384.459"/>
<path class="l4" d="M415.23 386.857L424.821 389.255"/>
<path class="l4" d="M420.026 390.454L424.821 389.255"/>
<path class="l4" d="M429.617 374.867L429.617 389.255"/>
<path class="l4" d="M429.617 382.061L434.413 382.061"/>
<path class="l4" d="M731.76 348.49L731.76 354.485"/>
<path class="l4" d="M731.76 354.485L736.556 355.684"/>
<path class="l4" d="M726.964 358.081L736.556 355.684"/>
<path class="l4" d="M726.964 358.081L736.556 360.479"/>
<path class="l4" d="M726.964 362.877L736.556 360.479"/>
<path class="l4" d="M726.964 362.877L736.556 365.275"/>
<path class="l4" d="M731.76 371.27L731.76 377.265"/>
<path class="l4" d="M726.964 367.673L736.556 365.275"/>
<path class="l4" d="M726.964 367.673L736.556 370.071"/>
<path class="l4" d="M731.76 371.27L736.556 370.071"/>
<path class="l4" d="M741.352 355.684L741.352 370.071"/>
<path class="l4" d="M741.352 362.877L746.147 362.877"/>
<path class="l4" d="M725.765 45.1483L725.765 66.7299"/>
<path class="l4" d="M731.76 41.5514L731.76 47.5463"/>
<path class="l4" d="M731.76 64.332L731.76 70.3268"/>
<path class="l4" d="M723.367 48.7452L723.367 63.133"/>
<path class="l4" d="M725.765 64.332L731.76 64.332"/>
<path class="l4" d="M725.765 47.5463L731.76 47.5463"/>
<path class="l4" d="M712.576 55.9391L723.127 55.9391"/>
<path class="l4" d="M728.163 46.3473L725.765 47.5463L728.163 48.7452L728.163 46.3473"/>
<path class="l4" d="M581.888 45.1483L581.888 66.7299"/>
<path class="l4" d="M587.882 41.5514L587.882 47.5463"/>
<path class="l4" d="M587.882 64.332L587.882 70.3268"/>
<path class="l4" d="M579.49 48.7452L579.49 63.133"/>
<path class="l4" d="M581.888 64.332L587.882 64.332"/>
<path class="l4" d="M581.888 47.5463L587.882 47.5463"/>
<path class="l4" d="M568.699 55.9391L579.25 55.9391"/>
<path class="l4" d="M584.286 46.3473L581.888 47.5463L584.286 48.7452L584.286 46.3473"/>
<path class="l4" d="M478.775 45.1483L478.775 66.7299"/>
<path class="l4" d="M472.781 41.5514L472.781 47.5463"/>
<path class="l4" d="M472.781 64.332L472.781 70.3268"/>
<path class="l4" d="M481.173 48.7452L481.173 63.133"/>
<path class="l4" d="M472.781 64.332L478.775 64.332"/>
<path class="l4" d="M472.781 47.5463L478.775 47.5463"/>
<path class="l4" d="M481.413 55.9391L491.964 55.9391"/>
<path class="l4" d="M476.378 46.3473L478.775 47.5463L476.378 48.7452L476.378 46.3473"/>
<path class="l4" d="M344.49 45.1483L344.49 66.7299"/>
<path class="l4" d="M338.495 41.5514L338.495 47.5463"/>
<path class="l4" d="M338.495 64.332L338.495 70.3268"/>
<path class="l4" d="M346.888 48.7452L346.888 63.133"/>
<path class="l4" d="M338.495 64.332L344.49 64.332"/>
<path class="l4" d="M338.495 47.5463L344.49 47.5463"/>
<path class="l4" d="M347.128 55.9391L357.679 55.9391"/>
<path class="l4" d="M342.092 46.3473L344.49 47.5463L342.092 48.7452L342.092 46.3473"/>
<path class="l5" d="M117.883 499.561L117.733 499.711L117.583 499.861L117.434 500.01L117.284 500.16L117.134 500.31L116.984 500.46L116.834 500.61L116.684 500.76L116.534 500.91L116.384 501.06L116.235 501.209L116.085 501.359L115.935 501.509L115.785 501.659L115.635 501.809L115.485 501.959L115.335 502.109L115.185 502.259L115.036 502.408L114.886 502.558L114.736 502.708L114.586 502.858L114.436 503.008L114.286 503.158L114.136 503.308L113.987 503.458L113.837 503.607L113.687 503.757L113.537 503.907L113.387 504.057L113.237 504.207L113.087 504.357L113.087 504.357L112.942 504.507L112.806 504.657L112.68 504.806L112.563 504.956L112.455 505.106L112.357 505.256L112.268 505.406L112.188 505.556L112.118 505.706L112.057 505.855L112.005 506.005L111.963 506.155L111.93 506.305L111.907 506.455L111.893 506.605L111.888 506.755L111.893 506.905L111.907 507.054L111.93 507.204L111.963 507.354L112.005 507.504L112.057 507.654L112.118 507.804L112.188 507.954L112.268 508.104L112.357 508.253L112.455 508.403L112.563 508.553L112.68 508.703L112.806 508.853L112.942 509.003L113.087 509.153L113.087 509.153L113.238 509.303L113.389 509.455L113.542 509.608L113.696 509.762L113.851 509.917L114.008 510.073L114.165 510.23L114.324 510.389L114.484 510.549L114.645 510.71L114.807 510.872L114.97 511.035L115.135 511.2L115.3 511.366L115.467 511.532L115.635 511.701L115.804 511.87L115.975 512.04L116.146 512.212L116.319 512.384L116.493 512.558L116.668 512.733L116.844 512.909L117.021 513.087L117.2 513.265L117.38 513.445L117.561 513.626L117.743 513.808L117.926 513.991L118.11 514.176L118.296 514.361L118.483 514.548L118.483 514.548L118.669 514.734L118.853 514.918L119.034 515.1L119.213 515.279L119.39 515.456L119.565 515.63L119.737 515.802L119.906 515.972L120.074 516.139L120.239 516.304L120.402 516.467L120.562 516.628L120.72 516.786L120.876 516.941L121.029 517.095L121.18 517.246L121.329 517.394L121.475 517.541L121.619 517.685L121.761 517.827L121.9 517.966L122.037 518.103L122.172 518.238L122.304 518.37L122.434 518.5L122.562 518.627L122.687 518.753L122.81 518.876L122.931 518.996L123.049 519.114L123.165 519.23L123.279 519.344L123.279 519.344L123.387 519.455L123.489 519.562L123.584 519.665L123.672 519.766L123.753 519.862L123.827 519.955L123.893 520.045L123.953 520.131L124.006 520.213L124.051 520.292L124.09 520.368L124.122 520.44L124.146 520.508L124.164 520.573L124.174 520.635L124.178 520.693L124.174 520.747L124.164 520.798L124.146 520.846L124.122 520.89L124.09 520.93L124.051 520.967L124.006 521L123.953 521.03L123.893 521.056L123.827 521.079L123.753 521.099L123.672 521.114L123.584 521.127L123.489 521.135L123.387 521.141L123.279 521.142L123.279 521.142L123.166 521.142L123.054 521.142L122.941 521.142L122.829 521.142L122.717 521.142L122.604 521.142L122.492 521.142L122.379 521.142L122.267 521.142L122.155 521.142L122.042 521.142L121.93 521.142L121.817 521.142L121.705 521.142L121.593 521.142L121.48 521.142L121.368 521.142L121.255 521.142L121.143 521.142L121.03 521.142L120.918 521.142L120.806 521.142L120.693 521.142L120.581 521.142L120.468 521.142L120.356 521.142L120.244 521.142L120.131 521.142L120.019 521.142L119.906 521.142L119.794 521.142L119.682 521.142L119.682 521.142L119.57 521.142L119.459 521.142L119.35 521.142L119.241 521.142L119.134 521.142L119.028 521.142L118.924 521.142L118.82 521.142L118.717 521.142L118.616 521.142L118.516 521.142L118.417 521.142L118.319 521.142L118.223 521.142L118.127 521.142L118.033 521.142L117.94 521.142L117.848 521.142L117.757 521.142L117.668 521.142L117.579 521.142L117.492 521.142L117.406 521.142L117.321 521.142L117.237 521.142L117.155 521.142L117.074 521.142L116.993 521.142L116.914 521.142L116.836 521.142L116.76 521.142L116.684 521.142L116.684 521.142L116.609 521.141L116.534 521.138L116.459 521.132L116.384 521.124L116.31 521.113L116.235 521.1L116.16 521.085L116.085 521.068L116.01 521.048L115.935 521.025L115.86 521.001L115.785 520.974L115.71 520.945L115.635 520.913L115.56 520.879L115.485 520.843L115.41 520.804L115.335 520.763L115.26 520.72L115.185 520.674L115.111 520.626L115.036 520.576L114.961 520.523L114.886 520.468L114.811 520.411L114.736 520.351L114.661 520.289L114.586 520.224L114.511 520.158L114.436 520.089L114.361 520.017L114.286 519.943L114.286 519.943L114.211 519.869L114.136 519.794L114.061 519.719L113.987 519.644L113.912 519.569L113.837 519.494L113.762 519.419L113.687 519.344L113.612 519.269L113.537 519.194L113.462 519.119L113.387 519.044L113.312 518.969L113.237 518.894L113.162 518.819L113.087 518.744L113.012 518.67L112.937 518.595L112.862 518.52L112.788 518.445L112.713 518.37L112.638 518.295L112.563 518.22L112.488 518.145L112.413 518.07L112.338 517.995L112.263 517.92L112.188 517.845L112.113 517.77L112.038 517.695L111.963 517.62L111.888 517.546L111.888 517.546L111.812 517.469L111.734 517.391L111.653 517.31L111.57 517.227L111.484 517.142L111.397 517.054L111.306 516.964L111.214 516.871L111.119 516.776L111.022 516.679L110.922 516.58L110.82 516.478L110.716 516.373L110.61 516.267L110.501 516.158L110.39 516.047L110.276 515.933L110.16 515.817L110.042 515.699L109.921 515.578L109.798 515.456L109.673 515.33L109.545 515.203L109.415 515.073L109.283 514.94L109.148 514.806L109.011 514.669L108.872 514.529L108.73 514.388L108.586 514.244L108.44 514.097L108.291 513.949L108.291 513.949L108.141 513.803L107.992 513.668L107.842 513.541L107.692 513.424L107.542 513.316L107.392 513.218L107.242 513.129L107.092 513.049L106.943 512.979L106.793 512.918L106.643 512.867L106.493 512.825L106.343 512.792L106.193 512.768L106.043 512.754L105.893 512.75L105.744 512.754L105.594 512.768L105.444 512.792L105.294 512.825L105.144 512.867L104.994 512.918L104.844 512.979L104.694 513.049L104.545 513.129L104.395 513.218L104.245 513.316L104.095 513.424L103.945 513.541L103.795 513.668L103.645 513.803L103.495 513.949L103.495 513.949L103.347 514.097L103.2 514.244L103.056 514.388L102.915 514.529L102.775 514.669L102.638 514.806L102.504 514.94L102.371 515.073L102.241 515.203L102.114 515.33L101.989 515.456L101.866 515.578L101.745 515.699L101.627 515.817L101.511 515.933L101.397 516.047L101.286 516.158L101.177 516.267L101.071 516.373L100.966 516.478L100.864 516.58L100.765 516.679L100.668 516.776L100.573 516.871L100.48 516.964L100.39 517.054L100.302 517.142L100.217 517.227L100.134 517.31L100.053 517.391L99.9746 517.469L99.8985 517.546L99.8985 517.546L99.8236 517.62L99.7486 517.695L99.6737 517.77L99.5988 517.845L99.5238 517.92L99.4489 517.995L99.374 518.07L99.299 518.145L99.2241 518.22L99.1492 518.295L99.0742 518.37L98.9993 518.445L98.9243 518.52L98.8494 518.595L98.7745 518.67L98.6995 518.744L98.6246 518.819L98.5497 518.894L98.4747 518.969L98.3998 519.044L98.3249 519.119L98.2499 519.194L98.175 519.269L98.1 519.344L98.0251 519.419L97.9502 519.494L97.8752 519.569L97.8003 519.644L97.7254 519.719L97.6504 519.794L97.5755 519.869L97.5006 519.943L97.5006 519.943L97.4256 520.017L97.3507 520.089L97.2757 520.158L97.2008 520.224L97.1259 520.289L97.0509 520.351L96.976 520.411L96.9011 520.468L96.8261 520.523L96.7512 520.576L96.6763 520.626L96.6013 520.674L96.5264 520.72L96.4515 520.763L96.3765 520.804L96.3016 520.843L96.2266 520.879L96.1517 520.913L96.0768 520.945L96.0018 520.974L95.9269 521.001L95.852 521.025L95.777 521.048L95.7021 521.068L95.6272 521.085L95.5522 521.1L95.4773 521.113L95.4023 521.124L95.3274 521.132L95.2525 521.138L95.1775 521.141L95.1026 521.142L95.1026 521.142L95.0271 521.142L94.9504 521.142L94.8725 521.142L94.7935 521.142L94.7133 521.142L94.6319 521.142L94.5494 521.142L94.4656 521.142L94.3808 521.142L94.2947 521.142L94.2075 521.142L94.1191 521.142L94.0295 521.142L93.9388 521.142L93.8468 521.142L93.7538 521.142L93.6595 521.142L93.5641 521.142L93.4675 521.142L93.3697 521.142L93.2708 521.142L93.1707 521.142L93.0694 521.142L92.9669 521.142L92.8633 521.142L92.7585 521.142L92.6525 521.142L92.5454 521.142L92.4371 521.142L92.3276 521.142L92.217 521.142L92.1052 521.142L92.1052 521.142L91.9928 521.142L91.8803 521.142L91.7679 521.142L91.6555 521.142L91.5431 521.142L91.4307 521.142L91.3183 521.142L91.2059 521.142L91.0935 521.142L90.9811 521.142L90.8687 521.142L90.7563 521.142L90.6439 521.142L90.5315 521.142L90.4191 521.142L90.3067 521.142L90.1943 521.142L90.0819 521.142L89.9695 521.142L89.8571 521.142L89.7447 521.142L89.6323 521.142L89.5199 521.142L89.4075 521.142L89.2951 521.142L89.1826 521.142L89.0702 521.142L88.9578 521.142L88.8454 521.142L88.733 521.142L88.6206 521.142L88.5082 521.142L88.5082 521.142L88.3993 521.141L88.2975 521.135L88.2026 521.127L88.1148 521.114L88.034 521.099L87.9603 521.079L87.8935 521.056L87.8338 521.03L87.7811 521L87.7354 520.967L87.6968 520.93L87.6652 520.89L87.6406 520.846L87.623 520.798L87.6125 520.747L87.609 520.693L87.6125 520.635L87.623 520.573L87.6406 520.508L87.6652 520.44L87.6968 520.368L87.7354 520.292L87.7811 520.213L87.8338 520.131L87.8935 520.045L87.9603 519.955L88.034 519.862L88.1148 519.766L88.2026 519.665L88.2975 519.562L88.3993 519.455L88.5082 519.344L88.5082 519.344L88.6218 519.23L88.7377 519.114L88.856 518.996L88.9766 518.876L89.0995 518.753L89.2248 518.627L89.3524 518.5L89.4824 518.37L89.6147 518.238L89.7494 518.103L89.8863 517.966L90.0257 517.827L90.1674 517.685L90.3114 517.541L90.4577 517.394L90.6064 517.246L90.7575 517.095L90.9109 516.941L91.0666 516.786L91.2247 516.628L91.3851 516.467L91.5478 516.304L91.7129 516.139L91.8803 515.972L92.0501 515.802L92.2222 515.63L92.3967 515.456L92.5735 515.279L92.7527 515.1L92.9341 514.918L93.118 514.734L93.3041 514.548L93.3041 514.548L93.4909 514.361L93.6765 514.176L93.8609 513.991L94.0441 513.808L94.2262 513.626L94.4071 513.445L94.5868 513.265L94.7654 513.087L94.9428 512.909L95.119 512.733L95.294 512.558L95.4679 512.384L95.6406 512.212L95.8122 512.04L95.9825 511.87L96.1517 511.701L96.3197 511.532L96.4866 511.366L96.6523 511.2L96.8168 511.035L96.9801 510.872L97.1423 510.71L97.3033 510.549L97.4631 510.389L97.6217 510.23L97.7792 510.073L97.9355 509.917L98.0907 509.762L98.2446 509.608L98.3974 509.455L98.5491 509.303L98.6995 509.153L98.6995 509.153L98.8447 509.003L98.9805 508.853L99.107 508.703L99.2241 508.553L99.3318 508.403L99.4302 508.253L99.5191 508.104L99.5988 507.954L99.669 507.804L99.7299 507.654L99.7814 507.504L99.8236 507.354L99.8564 507.204L99.8798 507.054L99.8938 506.905L99.8985 506.755L99.8938 506.605L99.8798 506.455L99.8564 506.305L99.8236 506.155L99.7814 506.005L99.7299 505.855L99.669 505.706L99.5988 505.556L99.5191 505.406L99.4302 505.256L99.3318 505.106L99.2241 504.956L99.107 504.806L98.9805 504.657L98.8447 504.507L98.6995 504.357L98.6995 504.357L98.5491 504.206L98.3974 504.055L98.2446 503.902L98.0907 503.748L97.9355 503.593L97.7792 503.436L97.6217 503.279L97.4631 503.12L97.3033 502.96L97.1423 502.799L96.9801 502.637L96.8168 502.474L96.6523 502.309L96.4866 502.144L96.3197 501.977L96.1517 501.809L95.9825 501.64L95.8122 501.469L95.6406 501.298L95.4679 501.125L95.294 500.951L95.119 500.776L94.9428 500.6L94.7654 500.423L94.5868 500.244L94.4071 500.064L94.2262 499.883L94.0441 499.701L93.8609 499.518L93.6765 499.334L93.4909 499.148L93.3041 498.961L93.3041 498.961L93.118 498.775L92.9341 498.591L92.7527 498.41L92.5735 498.231L92.3967 498.054L92.2222 497.879L92.0501 497.707L91.8803 497.538L91.7129 497.37L91.5478 497.205L91.3851 497.042L91.2247 496.882L91.0666 496.724L90.9109 496.568L90.7575 496.415L90.6064 496.264L90.4577 496.115L90.3114 495.969L90.1674 495.825L90.0257 495.683L89.8863 495.544L89.7494 495.407L89.6147 495.272L89.4824 495.14L89.3524 495.01L89.2248 494.882L89.0995 494.757L88.9766 494.634L88.856 494.513L88.7377 494.395L88.6218 494.279L88.5082 494.165L88.5082 494.165L88.3993 494.055L88.2975 493.948L88.2026 493.844L88.1148 493.744L88.034 493.647L87.9603 493.554L87.8935 493.465L87.8338 493.379L87.7811 493.296L87.7354 493.217L87.6968 493.142L87.6652 493.07L87.6406 493.001L87.623 492.936L87.6125 492.875L87.609 492.817L87.6125 492.762L87.623 492.711L87.6406 492.664L87.6652 492.62L87.6968 492.58L87.7354 492.543L87.7811 492.509L87.8338 492.479L87.8935 492.453L87.9603 492.43L88.034 492.411L88.1148 492.395L88.2026 492.383L88.2975 492.374L88.3993 492.369L88.5082 492.367L88.5082 492.367L88.6206 492.367L88.733 492.367L88.8454 492.367L88.9578 492.367L89.0702 492.367L89.1826 492.367L89.2951 492.367L89.4075 492.367L89.5199 492.367L89.6323 492.367L89.7447 492.367L89.8571 492.367L89.9695 492.367L90.0819 492.367L90.1943 492.367L90.3067 492.367L90.4191 492.367L90.5315 492.367L90.6439 492.367L90.7563 492.367L90.8687 492.367L90.9811 492.367L91.0935 492.367L91.2059 492.367L91.3183 492.367L91.4307 492.367L91.5431 492.367L91.6555 492.367L91.7679 492.367L91.8803 492.367L91.9928 492.367L92.1052 492.367L92.1052 492.367L92.217 492.367L92.3276 492.367L92.4371 492.367L92.5454 492.367L92.6525 492.367L92.7585 492.367L92.8633 492.367L92.9669 492.367L93.0694 492.367L93.1707 492.367L93.2708 492.367L93.3697 492.367L93.4675 492.367L93.5641 492.367L93.6595 492.367L93.7538 492.367L93.8468 492.367L93.9388 492.367L94.0295 492.367L94.1191 492.367L94.2075 492.367L94.2947 492.367L94.3808 492.367L94.4656 492.367L94.5494 492.367L94.6319 492.367L94.7133 492.367L94.7935 492.367L94.8725 492.367L94.9504 492.367L95.0271 492.367L95.1026 492.367L95.1026 492.367L95.1775 492.368L95.2525 492.372L95.3274 492.378L95.4023 492.386L95.4773 492.396L95.5522 492.409L95.6272 492.424L95.7021 492.442L95.777 492.462L95.852 492.484L95.9269 492.509L96.0018 492.536L96.0768 492.565L96.1517 492.596L96.2266 492.63L96.3016 492.667L96.3765 492.705L96.4515 492.746L96.5264 492.79L96.6013 492.835L96.6763 492.883L96.7512 492.934L96.8261 492.986L96.9011 493.041L96.976 493.099L97.0509 493.159L97.1259 493.221L97.2008 493.285L97.2757 493.352L97.3507 493.421L97.4256 493.492L97.5006 493.566L97.5006 493.566L97.5755 493.641L97.6504 493.716L97.7254 493.791L97.8003 493.866L97.8752 493.941L97.9502 494.016L98.0251 494.091L98.1 494.165L98.175 494.24L98.2499 494.315L98.3249 494.39L98.3998 494.465L98.4747 494.54L98.5497 494.615L98.6246 494.69L98.6995 494.765L98.7745 494.84L98.8494 494.915L98.9243 494.99L98.9993 495.065L99.0742 495.14L99.1492 495.215L99.2241 495.289L99.299 495.364L99.374 495.439L99.4489 495.514L99.5238 495.589L99.5988 495.664L99.6737 495.739L99.7486 495.814L99.8236 495.889L99.8985 495.964L99.8985 495.964L99.9746 496.04L100.053 496.118L100.134 496.199L100.217 496.282L100.302 496.368L100.39 496.456L100.48 496.546L100.573 496.638L100.668 496.733L100.765 496.83L100.864 496.93L100.966 497.032L101.071 497.136L101.177 497.243L101.286 497.351L101.397 497.463L101.511 497.576L101.627 497.692L101.745 497.81L101.866 497.931L101.989 498.054L102.114 498.179L102.241 498.307L102.371 498.437L102.504 498.569L102.638 498.704L102.775 498.841L102.915 498.98L103.056 499.122L103.2 499.266L103.347 499.412L103.495 499.561L103.495 499.561L103.645 499.706L103.795 499.842L103.945 499.968L104.095 500.085L104.245 500.193L104.395 500.291L104.545 500.38L104.694 500.46L104.844 500.53L104.994 500.591L105.144 500.643L105.294 500.685L105.444 500.718L105.594 500.741L105.744 500.755L105.893 500.76L106.043 500.755L106.193 500.741L106.343 500.718L106.493 500.685L106.643 500.643L106.793 500.591L106.943 500.53L107.092 500.46L107.242 500.38L107.392 500.291L107.542 500.193L107.692 500.085L107.842 499.968L107.992 499.842L108.141 499.706L108.291 499.561L108.291 499.561L108.44 499.412L108.586 499.266L108.73 499.122L108.872 498.98L109.011 498.841L109.148 498.704L109.283 498.569L109.415 498.437L109.545 498.307L109.673 498.179L109.798 498.054L109.921 497.931L110.042 497.81L110.16 497.692L110.276 497.576L110.39 497.463L110.501 497.351L110.61 497.243L110.716 497.136L110.82 497.032L110.922 496.93L111.022 496.83L111.119 496.733L111.214 496.638L111.306 496.546L111.397 496.456L111.484 496.368L111.57 496.282L111.653 496.199L111.734 496.118L111.812 496.04L111.888 495.964L111.888 495.964L111.963 495.889L112.038 495.814L112.113 495.739L112.188 495.664L112.263 495.589L112.338 495.514L112.413 495.439L112.488 495.364L112.563 495.289L112.638 495.215L112.713 495.14L112.788 495.065L112.862 494.99L112.937 494.915L113.012 494.84L113.087 494.765L113.162 494.69L113.237 494.615L113.312 494.54L113.387 494.465L113.462 494.39L113.537 494.315L113.612 494.24L113.687 494.165L113.762 494.091L113.837 494.016L113.912 493.941L113.987 493.866L114.061 493.791L114.136 493.716L114.211 493.641L114.286 493.566L114.286 493.566L114.361 493.492L114.436 493.421L114.511 493.352L114.586 493.285L114.661 493.221L114.736 493.159L114.811 493.099L114.886 493.041L114.961 492.986L115.036 492.934L115.111 492.883L115.185 492.835L115.26 492.79L115.335 492.746L115.41 492.705L115.485 492.667L115.56 492.63L115.635 492.596L115.71 492.565L115.785 492.536L115.86 492.509L115.935 492.484L116.01 492.462L116.085 492.442L116.16 492.424L116.235 492.409L116.31 492.396L116.384 492.386L116.459 492.378L116.534 492.372L116.609 492.368L116.684 492.367L116.684 492.367L116.76 492.367L116.836 492.367L116.914 492.367L116.993 492.367L117.074 492.367L117.155 492.367L117.237 492.367L117.321 492.367L117.406 492.367L117.492 492.367L117.579 492.367L117.668 492.367L117.757 492.367L117.848 492.367L117.94 492.367L118.033 492.367L118.127 492.367L118.223 492.367L118.319 492.367L118.417 492.367L118.516 492.367L118.616 492.367L118.717 492.367L118.82 492.367L118.924 492.367L119.028 492.367L119.134 492.367L119.241 492.367L119.35 492.367L119.459 492.367L119.57 492.367L119.682 492.367L119.682 492.367L119.794 492.367L119.906 492.367L120.019 492.367L120.131 492.367L120.244 492.367L120.356 492.367L120.468 492.367L120.581 492.367L120.693 492.367L120.806 492.367L120.918 492.367L121.03 492.367L121.143 492.367L121.255 492.367L121.368 492.367L121.48 492.367L121.593 492.367L121.705 492.367L121.817 492.367L121.93 492.367L122.042 492.367L122.155 492.367L122.267 492.367L122.379 492.367L122.492 492.367L122.604 492.367L122.717 492.367L122.829 492.367L122.941 492.367L123.054 492.367L123.166 492.367L123.279 492.367L123.279 492.367L123.387 492.369L123.489 492.374L123.584 492.383L123.672 492.395L123.753 492.411L123.827 492.43L123.893 492.453L123.953 492.479L124.006 492.509L124.051 492.543L124.09 492.58L124.122 492.62L124.146 492.664L124.164 492.711L124.174 492.762L124.178 492.817L124.174 492.875L124.164 492.936L124.146 493.001L124.122 493.07L124.09 493.142L124.051 493.217L124.006 493.296L123.953 493.379L123.893 493.465L123.827 493.554L123.753 493.647L123.672 493.744L123.584 493.844L123.489 493.948L123.387 494.055L123.279 494.165L123.279 494.165L123.164 494.28L123.047 494.397L122.926 494.518L122.801 494.643L122.673 494.771L122.541 494.903L122.406 495.038L122.267 495.177L122.125 495.319L121.979 495.465L121.83 495.614L121.677 495.767L121.521 495.924L121.361 496.083L121.197 496.247L121.03 496.414L120.86 496.584L120.686 496.758L120.509 496.935L120.328 497.116L120.144 497.3L119.956 497.488L119.764 497.68L119.569 497.875L119.371 498.073L119.169 498.275L118.963 498.481L118.754 498.69L118.542 498.902L118.326 499.118L118.106 499.338L117.883 499.561"/>
<path class="l5" d="M471.582 404.842L473.98 404.842L473.98 407.24L471.582 407.24L471.582 404.842z"/>
<path class="l5" d="M490.765 390.454L493.163 390.454L493.163 392.852L490.765 392.852L490.765 390.454z"/>
<path class="l5" d="M471.582 376.066L473.98 376.066L473.98 378.464L471.582 378.464L471.582 376.066z"/>
<path class="l5" d="M586.683 404.842L589.081 404.842L589.081 407.24L586.683 407.24L586.683 404.842z"/>
<path class="l5" d="M567.5 390.454L569.898 390.454L569.898 392.852L567.5 392.852L567.5 390.454z"/>
<path class="l5" d="M586.683 376.066L589.081 376.066L589.081 378.464L586.683 378.464L586.683 376.066z"/>
<path class="l5" d="M471.582 328.107L473.98 328.107L473.98 330.505L471.582 330.505L471.582 328.107z"/>
<path class="l5" d="M471.582 356.883L473.98 356.883L473.98 359.28L471.582 359.28L471.582 356.883z"/>
<path class="l5" d="M730.561 246.577L732.959 246.577L732.959 248.975L730.561 248.975L730.561 246.577z"/>
<path class="l5" d="M730.561 275.352L732.959 275.352L732.959 277.75L730.561 277.75L730.561 275.352z"/>
<path class="l5" d="M587.283 319.115L588.482 319.115L588.482 320.314L587.283 320.314L587.283 319.115z"/>
<path class="l5" d="M587.283 367.074L588.482 367.074L588.482 368.273L587.283 368.273L587.283 367.074z"/>
<path class="l5" d="M356.48 174.638L358.878 174.638L358.878 177.036L356.48 177.036L356.48 174.638z"/>
<path class="l5" d="M308.521 213.005L310.919 213.005L310.919 215.403L308.521 215.403L308.521 213.005z"/>
<path class="l5" d="M394.847 198.617L397.245 198.617L397.245 201.015L394.847 201.015L394.847 198.617z"/>
<path class="l5" d="M394.847 227.393L397.245 227.393L397.245 229.791L394.847 229.791L394.847 227.393z"/>
<path class="l5" d="M337.296 174.638L339.694 174.638L339.694 177.036L337.296 177.036L337.296 174.638z"/>
<path class="l5" d="M337.296 251.372L339.694 251.372L339.694 253.77L337.296 253.77L337.296 251.372z"/>
<path class="l5" d="M356.48 251.372L358.878 251.372L358.878 253.77L356.48 253.77L356.48 251.372z"/>
<path class="l5" d="M340.893 102.699L338.495 103.898L340.893 105.097L340.893 102.699"/>
<path class="l5" d="M337.296 117.087L339.694 117.087L339.694 119.485L337.296 119.485L337.296 117.087z"/>
<path class="l5" d="M356.48 102.699L358.878 102.699L358.878 105.097L356.48 105.097L356.48 102.699z"/>
<path class="l5" d="M337.296 88.3115L339.694 88.3115L339.694 90.7095L337.296 90.7095L337.296 88.3115z"/>
<path class="l5" d="M338.458 103.861L338.533 103.861L338.533 103.936L338.458 103.936L338.458 103.861z"/>
<path class="l5" d="M471.582 270.556L473.98 270.556L473.98 272.954L471.582 272.954L471.582 270.556z"/>
<path class="l5" d="M471.582 299.332L473.98 299.332L473.98 301.73L471.582 301.73L471.582 299.332z"/>
<path class="l5" d="M586.683 270.556L589.081 270.556L589.081 272.954L586.683 272.954L586.683 270.556z"/>
<path class="l5" d="M586.683 299.332L589.081 299.332L589.081 301.73L586.683 301.73L586.683 299.332z"/>
<path class="l5" d="M419.426 309.523L420.625 309.523L420.625 310.722L419.426 310.722L419.426 309.523z"/>
<path class="l5" d="M475.179 102.699L472.781 103.898L475.179 105.097L475.179 102.699"/>
<path class="l5" d="M471.582 117.087L473.98 117.087L473.98 119.485L471.582 119.485L471.582 117.087z"/>
<path class="l5" d="M490.765 102.699L493.163 102.699L493.163 105.097L490.765 105.097L490.765 102.699z"/>
<path class="l5" d="M471.582 88.3115L473.98 88.3115L473.98 90.7095L471.582 90.7095L471.582 88.3115z"/>
<path class="l5" d="M472.743 103.861L472.818 103.861L472.818 103.936L472.743 103.936L472.743 103.861z"/>
<path class="l5" d="M585.484 102.699L587.882 103.898L585.484 105.097L585.484 102.699"/>
<path class="l5" d="M586.683 117.087L589.081 117.087L589.081 119.485L586.683 119.485L586.683 117.087z"/>
<path class="l5" d="M567.5 102.699L569.898 102.699L569.898 105.097L567.5 105.097L567.5 102.699z"/>
<path class="l5" d="M586.683 88.3115L589.081 88.3115L589.081 90.7095L586.683 90.7095L586.683 88.3115z"/>
<path class="l5" d="M587.845 103.861L587.92 103.861L587.92 103.936L587.845 103.936L587.845 103.861z"/>
<path class="l5" d="M729.362 102.699L731.76 103.898L729.362 105.097L729.362 102.699"/>
<path class="l5" d="M730.561 117.087L732.959 117.087L732.959 119.485L730.561 119.485L730.561 117.087z"/>
<path class="l5" d="M711.377 102.699L713.775 102.699L713.775 105.097L711.377 105.097L711.377 102.699z"/>
<path class="l5" d="M730.561 88.3115L732.959 88.3115L732.959 90.7095L730.561 90.7095L730.561 88.3115z"/>
<path class="l5" d="M731.722 103.861L731.797 103.861L731.797 103.936L731.722 103.936L731.722 103.861z"/>
<path class="l5" d="M280.345 165.646L281.544 165.646L281.544 166.845L280.345 166.845L280.345 165.646z"/>
<path class="l5" d="M280.944 368.872L278.546 367.673L280.944 366.474L280.944 368.872"/>
<path class="l5" d="M279.745 352.087L282.143 352.087L282.143 354.485L279.745 354.485L279.745 352.087z"/>
<path class="l5" d="M260.562 366.474L262.959 366.474L262.959 368.872L260.562 368.872L260.562 366.474z"/>
<path class="l5" d="M279.745 380.862L282.143 380.862L282.143 383.26L279.745 383.26L279.745 380.862z"/>
<path class="l5" d="M280.907 367.636L280.982 367.636L280.982 367.711L280.907 367.711L280.907 367.636z"/>
<path class="l5" d="M194.618 392.852L192.22 391.653L194.618 390.454L194.618 392.852"/>
<path class="l5" d="M193.419 376.066L195.817 376.066L195.817 378.464L193.419 378.464L193.419 376.066z"/>
<path class="l5" d="M174.235 390.454L176.633 390.454L176.633 392.852L174.235 392.852L174.235 390.454z"/>
<path class="l5" d="M193.419 404.842L195.817 404.842L195.817 407.24L193.419 407.24L193.419 404.842z"/>
<path class="l5" d="M194.58 391.615L194.655 391.615L194.655 391.69L194.58 391.69L194.58 391.615z"/>
<path class="l5" d="M192.22 342.495L194.618 343.694L192.22 344.893L192.22 342.495"/>
<path class="l5" d="M193.419 356.883L195.817 356.883L195.817 359.28L193.419 359.28L193.419 356.883z"/>
<path class="l5" d="M174.235 342.495L176.633 342.495L176.633 344.893L174.235 344.893L174.235 342.495z"/>
<path class="l5" d="M193.419 328.107L195.817 328.107L195.817 330.505L193.419 330.505L193.419 328.107z"/>
<path class="l5" d="M194.58 343.656L194.655 343.656L194.655 343.731L194.58 343.731L194.58 343.656z"/>
<path class="l5" d="M253.368 53.5412L252.169 51.1432L250.97 53.5412L253.368 53.5412"/>
<path class="l5" d="M236.582 49.9442L238.98 49.9442L238.98 52.3422L236.582 52.3422L236.582 49.9442z"/>
<path class="l5" d="M250.97 69.1279L253.368 69.1279L253.368 71.5258L250.97 71.5258L250.97 69.1279z"/>
<path class="l5" d="M265.357 49.9442L267.755 49.9442L267.755 52.3422L265.357 52.3422L265.357 49.9442z"/>
<path class="l5" d="M252.131 51.1057L252.206 51.1057L252.206 51.1807L252.131 51.1807L252.131 51.1057z"/>
<path class="l5" d="M531.53 377.265L530.332 374.867L529.133 377.265L531.53 377.265"/>
<path class="l5" d="M514.745 376.066L517.143 376.066L517.143 378.464L514.745 378.464L514.745 376.066z"/>
<path class="l5" d="M529.133 356.883L531.53 356.883L531.53 359.28L529.133 359.28L529.133 356.883z"/>
<path class="l5" d="M543.52 376.066L545.918 376.066L545.918 378.464L543.52 378.464L543.52 376.066z"/>
<path class="l5" d="M530.294 377.228L530.369 377.228L530.369 377.303L530.294 377.303L530.294 377.228z"/>
<path class="l5" d="M222.794 367.074L223.993 367.074L223.993 368.273L222.794 368.273L222.794 367.074z"/>
<path class="l5" d="M586.683 328.107L589.081 328.107L589.081 330.505L586.683 330.505L586.683 328.107z"/>
<path class="l5" d="M586.683 356.883L589.081 356.883L589.081 359.28L586.683 359.28L586.683 356.883z"/>
<path class="l5" d="M601.071 342.495L603.469 342.495L603.469 344.893L601.071 344.893L601.071 342.495z"/>
<path class="l5" d="M663.418 328.107L665.816 328.107L665.816 330.505L663.418 330.505L663.418 328.107z"/>
<path class="l5" d="M663.418 356.883L665.816 356.883L665.816 359.28L663.418 359.28L663.418 356.883z"/>
<path class="l5" d="M649.03 342.495L651.428 342.495L651.428 344.893L649.03 344.893L649.03 342.495z"/>
<path class="l5" d="M663.418 366.474L665.816 366.474L665.816 368.872L663.418 368.872L663.418 366.474z"/>
<path class="l5" d="M663.418 395.25L665.816 395.25L665.816 397.648L663.418 397.648L663.418 395.25z"/>
<path class="l5" d="M649.03 380.862L651.428 380.862L651.428 383.26L649.03 383.26L649.03 380.862z"/>
<path class="l5" d="M418.827 328.107L421.225 328.107L421.225 330.505L418.827 330.505L418.827 328.107z"/>
<path class="l5" d="M418.827 356.883L421.225 356.883L421.225 359.28L418.827 359.28L418.827 356.883z"/>
<path class="l5" d="M433.214 342.495L435.612 342.495L435.612 344.893L433.214 344.893L433.214 342.495z"/>
<path class="l5" d="M418.827 366.474L421.225 366.474L421.225 368.872L418.827 368.872L418.827 366.474z"/>
<path class="l5" d="M418.827 395.25L421.225 395.25L421.225 397.648L418.827 397.648L418.827 395.25z"/>
<path class="l5" d="M433.214 380.862L435.612 380.862L435.612 383.26L433.214 383.26L433.214 380.862z"/>
<path class="l5" d="M730.561 347.291L732.959 347.291L732.959 349.689L730.561 349.689L730.561 347.291z"/>
<path class="l5" d="M730.561 376.066L732.959 376.066L732.959 378.464L730.561 378.464L730.561 376.066z"/>
<path class="l5" d="M744.949 361.678L747.346 361.678L747.346 364.076L744.949 364.076L744.949 361.678z"/>
<path class="l5" d="M729.362 54.7401L731.76 55.9391L729.362 57.1381L729.362 54.7401"/>
<path class="l5" d="M730.561 69.1279L732.959 69.1279L732.959 71.5258L730.561 71.5258L730.561 69.1279z"/>
<path class="l5" d="M711.377 54.7401L713.775 54.7401L713.775 57.1381L711.377 57.1381L711.377 54.7401z"/>
<path class="l5" d="M730.561 40.3524L732.959 40.3524L732.959 42.7504L730.561 42.7504L730.561 40.3524z"/>
<path class="l5" d="M731.722 55.9016L731.797 55.9016L731.797 55.9766L731.722 55.9766L731.722 55.9016z"/>
<path class="l5" d="M585.484 54.7401L587.882 55.9391L585.484 57.1381L585.484 54.7401"/>
<path class="l5" d="M586.683 69.1279L589.081 69.1279L589.081 71.5258L586.683 71.5258L586.683 69.1279z"/>
<path class="l5" d="M567.5 54.7401L569.898 54.7401L569.898 57.1381L567.5 57.1381L567.5 54.7401z"/>
<path class="l5" d="M586.683 40.3524L589.081 40.3524L589.081 42.7504L586.683 42.7504L586.683 40.3524z"/>
<path class="l5" d="M587.845 55.9016L587.92 55.9016L587.92 55.9766L587.845 55.9766L587.845 55.9016z"/>
<path class="l5" d="M475.179 54.7401L472.781 55.9391L475.179 57.1381L475.179 54.7401"/>
<path class="l5" d="M471.582 69.1279L473.98 69.1279L473.98 71.5258L471.582 71.5258L471.582 69.1279z"/>
<path class="l5" d="M490.765 54.7401L493.163 54.7401L493.163 57.1381L490.765 57.1381L490.765 54.7401z"/>
<path class="l5" d="M471.582 40.3524L473.98 40.3524L473.98 42.7504L471.582 42.7504L471.582 40.3524z"/>
<path class="l5" d="M472.743 55.9016L472.818 55.9016L472.818 55.9766L472.743 55.9766L472.743 55.9016z"/>
<path class="l5" d="M340.893 54.7401L338.495 55.9391L340.893 57.1381L340.893 54.7401"/>
<path class="l5" d="M337.296 69.1279L339.694 69.1279L339.694 71.5258L337.296 71.5258L337.296 69.1279z"/>
<path class="l5" d="M356.48 54.7401L358.878 54.7401L358.878 57.1381L356.48 57.1381L356.48 54.7401z"/>
<path class="l5" d="M337.296 40.3524L339.694 40.3524L339.694 42.7504L337.296 42.7504L337.296 40.3524z"/>
<path class="l5" d="M338.458 55.9016L338.533 55.9016L338.533 55.9766L338.458 55.9766L338.458 55.9016z"/>
<path class="l5" d="M106.793 22.3677L108.291 22.3677"/>
<path class="l5" d="M101.697 24.7657L99.8985 22.3677L101.697 19.9698L104.994 19.9698L106.793 22.3677L104.994 24.7657L101.697 24.7657"/>
<path class="l5" d="M107.692 21.7682L108.891 21.7682L108.891 22.9672L107.692 22.9672L107.692 21.7682z"/>
<path class="l5" d="M106.793 425.224L108.291 425.224"/>
<path class="l5" d="M101.697 427.622L99.8985 425.224L101.697 422.826L104.994 422.826L106.793 425.224L104.994 427.622L101.697 427.622"/>
<path class="l5" d="M107.692 424.625L108.891 424.625L108.891 425.824L107.692 425.824L107.692 424.625z"/>
<path class="l5" d="M105.893 271.755L108.291 271.755"/>
<path class="l5" d="M105.893 271.755L104.095 269.357L99.8985 269.357L101.697 271.755L99.8985 274.153L104.095 274.153L105.893 271.755"/>
<path class="l5" d="M107.692 271.156L108.891 271.156L108.891 272.355L107.692 272.355L107.692 271.156z"/>
<path class="l5" d="M808.494 290.939L812.691 290.939"/>
<path class="l5" d="M816.887 290.939L815.089 288.541L810.892 288.541L812.691 290.939L810.892 293.337L815.089 293.337L816.887 290.939"/>
<path class="l5" d="M807.895 290.339L809.094 290.339L809.094 291.538L807.895 291.538L807.895 290.339z"/>
<path class="l6" d="M230.587 506.755L611.862 506.755"/>
<path class="l6" d="M45.9445 506.755L77.1179 506.755"/>
<text fill="#222222"  xml:space="preserve" font-size="9.97549" transform="translate(235.383, 518.21)" >         bandgap_banba.sch</text>
<text fill="#222222"  xml:space="preserve" font-size="9.97549" transform="translate(235.383, 503.823)" >(c) 2025 H. Pretl, Apache-2.0 license</text>
<text fill="#222222"  xml:space="preserve" font-size="9.97549" transform="translate(507.862, 503.823)" >2025-07-31  23:14:38</text>
<text fill="#222222"  xml:space="preserve" font-size="24.9387" transform="translate(125.077, 517.409)" >SCHEM</text>
<text fill="#222222"  xml:space="preserve" font-size="4.98775" transform="translate(451.582, 403.376)" >pnpMPA</text>
<text fill="#222222"  xml:space="preserve" font-size="4.98775" transform="translate(461.582, 383.592)" >XQ1</text>
<text fill="#ff0000"  xml:space="preserve" font-size="3.74081" transform="translate(474.576, 377.964)" >e</text>
<text fill="#ff0000"  xml:space="preserve" font-size="3.74081" transform="translate(475.576, 407.939)" >c</text>
<text fill="#ff0000"  xml:space="preserve" font-size="3.74081" transform="translate(487.468, 389.954)" >b</text>
<text fill="#666600"  xml:space="preserve" font-size="4.98775" transform="translate(447.582, 391.386)" >w=1.0e-6</text>
<text fill="#666600"  xml:space="preserve" font-size="4.98775" transform="translate(450.582, 397.381)" >l=2.0e-6</text>
<text fill="#222222"  xml:space="preserve" font-size="4.98775" transform="translate(589.081, 403.376)" >pnpMPA</text>
<text fill="#222222"  xml:space="preserve" font-size="4.98775" transform="translate(589.081, 383.592)" >XQ2</text>
<text fill="#ff0000"  xml:space="preserve" font-size="3.74081" transform="translate(583.087, 377.964)" >e</text>
<text fill="#ff0000"  xml:space="preserve" font-size="3.74081" transform="translate(583.087, 407.939)" >c</text>
<text fill="#ff0000"  xml:space="preserve" font-size="3.74081" transform="translate(570.195, 389.954)" >b</text>
<text fill="#666600"  xml:space="preserve" font-size="4.98775" transform="translate(589.081, 391.386)" >w=1.0e-6</text>
<text fill="#666600"  xml:space="preserve" font-size="4.98775" transform="translate(589.081, 397.381)" >l=2.0e-6</text>
<text fill="#222222"  xml:space="preserve" font-size="4.98775" transform="translate(479.974, 339.23)" >Vmeas</text>
<text fill="#222222"  xml:space="preserve" font-size="4.98775" transform="translate(738.954, 257.7)" >Vmeas1</text>
<text fill="#0055ee"  xml:space="preserve" font-size="8.22978" transform="translate(574.286, 323.29)" >v2</text>
<text fill="#0055ee"  xml:space="preserve" font-size="8.22978" transform="translate(574.286, 371.249)" >v3</text>
<text fill="#222222"  xml:space="preserve" font-size="4.98775" transform="translate(364.26, 215.855)" >ota-5t</text>
<text fill="#222222"  xml:space="preserve" font-size="4.98775" transform="translate(296.322, 174.611)" >xota</text>
<text fill="#222222"  xml:space="preserve" font-size="4.98775" transform="translate(360.289, 187.827) rotate(270)" >vdd</text>
<text fill="#222222"  xml:space="preserve" font-size="4.98775" transform="translate(331.301, 216.815)" >vout</text>
<text fill="#222222"  xml:space="preserve" font-size="4.98775" transform="translate(374.056, 202.427)" >vinp</text>
<text fill="#222222"  xml:space="preserve" font-size="4.98775" transform="translate(374.056, 231.202)" >vinn</text>
<text fill="#222222"  xml:space="preserve" font-size="4.98775" transform="translate(341.106, 201.235) rotate(270)" >ibias_20u</text>
<text fill="#222222"  xml:space="preserve" font-size="4.98775" transform="translate(341.106, 250.786) rotate(270)" >d_ena</text>
<text fill="#222222"  xml:space="preserve" font-size="4.98775" transform="translate(360.289, 250.173) rotate(270)" >vss</text>
<text fill="#222222"  xml:space="preserve" font-size="4.98775" transform="translate(345.689, 94.0394)" >M4</text>
<text fill="#ff0000"  xml:space="preserve" font-size="3.74081" transform="translate(352.883, 102.499)" >G</text>
<text fill="#222222"  xml:space="preserve" font-size="4.98775" transform="translate(297.699, 117.693)" >sg13_lv_pmos</text>
<text fill="#666600"  xml:space="preserve" font-size="4.98775" transform="translate(321.1, 111.425)" >m=1</text>
<text fill="#666600"  xml:space="preserve" font-size="4.98775" transform="translate(320.1, 107.228)" >ng=1</text>
<text fill="#666600"  xml:space="preserve" font-size="4.98775" transform="translate(322.1, 101.233)" >l=1u</text>
<text fill="#666600"  xml:space="preserve" font-size="4.98775" transform="translate(319.1, 95.8378)" >w=5u</text>
<text fill="#ff0000"  xml:space="preserve" font-size="3.74081" transform="translate(334.296, 115.688)" >D</text>
<text fill="#ff0000"  xml:space="preserve" font-size="3.74081" transform="translate(334.296, 94.6113)" >S</text>
<text fill="#ff0000"  xml:space="preserve" font-size="3.74081" transform="translate(335.495, 102.499)" >B</text>
<text fill="#222222"  xml:space="preserve" font-size="4.98775" transform="translate(479.974, 281.679)" >Vmeas2</text>
<text fill="#222222"  xml:space="preserve" font-size="4.98775" transform="translate(595.076, 281.679)" >Vmeas3</text>
<text fill="#0055ee"  xml:space="preserve" font-size="8.22978" transform="translate(406.429, 313.698)" >v1</text>
<text fill="#222222"  xml:space="preserve" font-size="4.98775" transform="translate(479.974, 94.0394)" >M1</text>
<text fill="#ff0000"  xml:space="preserve" font-size="3.74081" transform="translate(487.168, 102.499)" >G</text>
<text fill="#222222"  xml:space="preserve" font-size="4.98775" transform="translate(431.985, 117.693)" >sg13_lv_pmos</text>
<text fill="#666600"  xml:space="preserve" font-size="4.98775" transform="translate(455.385, 111.425)" >m=1</text>
<text fill="#666600"  xml:space="preserve" font-size="4.98775" transform="translate(454.385, 107.228)" >ng=1</text>
<text fill="#666600"  xml:space="preserve" font-size="4.98775" transform="translate(456.385, 101.233)" >l=1u</text>
<text fill="#666600"  xml:space="preserve" font-size="4.98775" transform="translate(453.385, 95.8378)" >w=5u</text>
<text fill="#ff0000"  xml:space="preserve" font-size="3.74081" transform="translate(468.582, 115.688)" >D</text>
<text fill="#ff0000"  xml:space="preserve" font-size="3.74081" transform="translate(468.582, 94.6113)" >S</text>
<text fill="#ff0000"  xml:space="preserve" font-size="3.74081" transform="translate(469.781, 102.499)" >B</text>
<text fill="#222222"  xml:space="preserve" font-size="4.98775" transform="translate(573.689, 94.0394)" >M2</text>
<text fill="#ff0000"  xml:space="preserve" font-size="3.74081" transform="translate(570.495, 102.499)" >G</text>
<text fill="#222222"  xml:space="preserve" font-size="4.98775" transform="translate(592.678, 117.693)" >sg13_lv_pmos</text>
<text fill="#666600"  xml:space="preserve" font-size="4.98775" transform="translate(593.278, 111.425)" >m=1</text>
<text fill="#666600"  xml:space="preserve" font-size="4.98775" transform="translate(593.278, 107.228)" >ng=1</text>
<text fill="#666600"  xml:space="preserve" font-size="4.98775" transform="translate(593.278, 101.233)" >l=1u</text>
<text fill="#666600"  xml:space="preserve" font-size="4.98775" transform="translate(593.278, 95.8378)" >w=5u</text>
<text fill="#ff0000"  xml:space="preserve" font-size="3.74081" transform="translate(589.081, 115.688)" >D</text>
<text fill="#ff0000"  xml:space="preserve" font-size="3.74081" transform="translate(589.081, 94.6113)" >S</text>
<text fill="#ff0000"  xml:space="preserve" font-size="3.74081" transform="translate(587.882, 102.499)" >B</text>
<text fill="#222222"  xml:space="preserve" font-size="4.98775" transform="translate(717.566, 94.0394)" >M3</text>
<text fill="#ff0000"  xml:space="preserve" font-size="3.74081" transform="translate(714.372, 102.499)" >G</text>
<text fill="#222222"  xml:space="preserve" font-size="4.98775" transform="translate(736.556, 117.693)" >sg13_lv_pmos</text>
<text fill="#666600"  xml:space="preserve" font-size="4.98775" transform="translate(737.155, 111.425)" >m=1</text>
<text fill="#666600"  xml:space="preserve" font-size="4.98775" transform="translate(737.155, 107.228)" >ng=1</text>
<text fill="#666600"  xml:space="preserve" font-size="4.98775" transform="translate(737.155, 101.233)" >l=1u</text>
<text fill="#666600"  xml:space="preserve" font-size="4.98775" transform="translate(737.155, 95.8378)" >w=5u</text>
<text fill="#ff0000"  xml:space="preserve" font-size="3.74081" transform="translate(732.959, 115.688)" >D</text>
<text fill="#ff0000"  xml:space="preserve" font-size="3.74081" transform="translate(732.959, 94.6113)" >S</text>
<text fill="#ff0000"  xml:space="preserve" font-size="3.74081" transform="translate(731.76, 102.499)" >B</text>
<text fill="#0055ee"  xml:space="preserve" font-size="8.22978" transform="translate(267.347, 169.821)" >vg</text>
<text fill="#222222"  xml:space="preserve" font-size="4.98775" transform="translate(266.75, 357.814)" >M5</text>
<text fill="#ff0000"  xml:space="preserve" font-size="3.74081" transform="translate(263.556, 366.274)" >G</text>
<text fill="#222222"  xml:space="preserve" font-size="4.98775" transform="translate(285.74, 381.468)" >sg13_lv_nmos</text>
<text fill="#666600"  xml:space="preserve" font-size="4.98775" transform="translate(286.34, 375.2)" >m=1</text>
<text fill="#666600"  xml:space="preserve" font-size="4.98775" transform="translate(286.34, 371.003)" >ng=1</text>
<text fill="#666600"  xml:space="preserve" font-size="4.98775" transform="translate(286.34, 365.008)" >l=0.13u</text>
<text fill="#666600"  xml:space="preserve" font-size="4.98775" transform="translate(286.34, 359.613)" >w=1u</text>
<text fill="#ff0000"  xml:space="preserve" font-size="3.74081" transform="translate(282.143, 379.463)" >S</text>
<text fill="#ff0000"  xml:space="preserve" font-size="3.74081" transform="translate(282.143, 358.386)" >D</text>
<text fill="#ff0000"  xml:space="preserve" font-size="3.74081" transform="translate(280.944, 366.274)" >B</text>
<text fill="#222222"  xml:space="preserve" font-size="4.98775" transform="translate(177.424, 381.794)" >M10</text>
<text fill="#ff0000"  xml:space="preserve" font-size="3.74081" transform="translate(177.23, 390.254)" >G</text>
<text fill="#222222"  xml:space="preserve" font-size="4.98775" transform="translate(199.414, 405.448)" >sg13_lv_nmos</text>
<text fill="#666600"  xml:space="preserve" font-size="4.98775" transform="translate(200.013, 399.179)" >m=1</text>
<text fill="#666600"  xml:space="preserve" font-size="4.98775" transform="translate(200.013, 394.983)" >ng=1</text>
<text fill="#666600"  xml:space="preserve" font-size="4.98775" transform="translate(200.013, 388.988)" >l=0.13u</text>
<text fill="#666600"  xml:space="preserve" font-size="4.98775" transform="translate(200.013, 383.592)" >w=1.0u</text>
<text fill="#ff0000"  xml:space="preserve" font-size="3.74081" transform="translate(195.817, 403.442)" >S</text>
<text fill="#ff0000"  xml:space="preserve" font-size="3.74081" transform="translate(195.817, 382.366)" >D</text>
<text fill="#ff0000"  xml:space="preserve" font-size="3.74081" transform="translate(194.618, 390.254)" >B</text>
<text fill="#222222"  xml:space="preserve" font-size="4.98775" transform="translate(177.424, 333.835)" >M11</text>
<text fill="#ff0000"  xml:space="preserve" font-size="3.74081" transform="translate(177.23, 342.294)" >G</text>
<text fill="#222222"  xml:space="preserve" font-size="4.98775" transform="translate(199.414, 357.489)" >sg13_lv_pmos</text>
<text fill="#666600"  xml:space="preserve" font-size="4.98775" transform="translate(200.013, 351.22)" >m=1</text>
<text fill="#666600"  xml:space="preserve" font-size="4.98775" transform="translate(200.013, 347.024)" >ng=1</text>
<text fill="#666600"  xml:space="preserve" font-size="4.98775" transform="translate(200.013, 341.029)" >l=0.13u</text>
<text fill="#666600"  xml:space="preserve" font-size="4.98775" transform="translate(200.013, 335.633)" >w=5u</text>
<text fill="#ff0000"  xml:space="preserve" font-size="3.74081" transform="translate(195.817, 355.483)" >D</text>
<text fill="#ff0000"  xml:space="preserve" font-size="3.74081" transform="translate(195.817, 334.407)" >S</text>
<text fill="#ff0000"  xml:space="preserve" font-size="3.74081" transform="translate(194.618, 342.294)" >B</text>
<text fill="#222222"  xml:space="preserve" font-size="4.98775" transform="translate(265.364, 76.3371) rotate(270)" >Mstab2</text>
<text fill="#ff0000"  xml:space="preserve" font-size="3.74081" transform="translate(256.071, 68.5309) rotate(270)" >G</text>
<text fill="#222222"  xml:space="preserve" font-size="4.98775" transform="translate(241.71, 46.3473) rotate(270)" >sg13_lv_pmos</text>
<text fill="#666600"  xml:space="preserve" font-size="4.98775" transform="translate(247.979, 45.7478) rotate(270)" >m=1</text>
<text fill="#666600"  xml:space="preserve" font-size="4.98775" transform="translate(252.176, 45.7478) rotate(270)" >ng=60</text>
<text fill="#666600"  xml:space="preserve" font-size="4.98775" transform="translate(258.17, 45.7478) rotate(270)" >l=1u</text>
<text fill="#666600"  xml:space="preserve" font-size="4.98775" transform="translate(263.566, 45.7478) rotate(270)" >w=300u</text>
<text fill="#ff0000"  xml:space="preserve" font-size="3.74081" transform="translate(242.882, 49.9442) rotate(270)" >D</text>
<text fill="#ff0000"  xml:space="preserve" font-size="3.74081" transform="translate(263.958, 49.9442) rotate(270)" >S</text>
<text fill="#ff0000"  xml:space="preserve" font-size="3.74081" transform="translate(256.071, 51.1432) rotate(270)" >B</text>
<text fill="#222222"  xml:space="preserve" font-size="4.98775" transform="translate(520.473, 370.071) rotate(270)" >Mstab1</text>
<text fill="#ff0000"  xml:space="preserve" font-size="3.74081" transform="translate(528.932, 362.877) rotate(270)" >G</text>
<text fill="#222222"  xml:space="preserve" font-size="4.98775" transform="translate(544.127, 418.061) rotate(270)" >sg13_lv_nmos</text>
<text fill="#666600"  xml:space="preserve" font-size="4.98775" transform="translate(537.858, 394.661) rotate(270)" >m=1</text>
<text fill="#666600"  xml:space="preserve" font-size="4.98775" transform="translate(533.661, 398.661) rotate(270)" >ng=60</text>
<text fill="#666600"  xml:space="preserve" font-size="4.98775" transform="translate(527.667, 393.661) rotate(270)" >l=1u</text>
<text fill="#666600"  xml:space="preserve" font-size="4.98775" transform="translate(522.271, 402.661) rotate(270)" >w=300u</text>
<text fill="#ff0000"  xml:space="preserve" font-size="3.74081" transform="translate(542.121, 381.464) rotate(270)" >S</text>
<text fill="#ff0000"  xml:space="preserve" font-size="3.74081" transform="translate(521.045, 381.464) rotate(270)" >D</text>
<text fill="#ff0000"  xml:space="preserve" font-size="3.74081" transform="translate(528.932, 380.265) rotate(270)" >B</text>
<text fill="#0055ee"  xml:space="preserve" font-size="6.73346" transform="translate(203.194, 365.465)" >ena_n</text>
<text fill="#222222"  xml:space="preserve" font-size="4.98775" transform="translate(519.209, 347.743)" >bandgap_banba_res-13k</text>
<text fill="#222222"  xml:space="preserve" font-size="4.98775" transform="translate(572.689, 340.07)" >xr1</text>
<text fill="#222222"  xml:space="preserve" font-size="4.98775" transform="translate(578.291, 331.917)" >rp</text>
<text fill="#222222"  xml:space="preserve" font-size="4.98775" transform="translate(578.291, 355.896)" >rn</text>
<text fill="#222222"  xml:space="preserve" font-size="4.98775" transform="translate(599.872, 339.11)" >bn</text>
<text fill="#222222"  xml:space="preserve" font-size="4.98775" transform="translate(672.29, 347.743)" >bandgap_banba_res-40k</text>
<text fill="#222222"  xml:space="preserve" font-size="4.98775" transform="translate(671.811, 340.07)" >xr2a</text>
<text fill="#222222"  xml:space="preserve" font-size="4.98775" transform="translate(669.209, 331.917)" >rp</text>
<text fill="#222222"  xml:space="preserve" font-size="4.98775" transform="translate(669.209, 355.896)" >rn</text>
<text fill="#222222"  xml:space="preserve" font-size="4.98775" transform="translate(646.627, 339.11)" >bn</text>
<text fill="#222222"  xml:space="preserve" font-size="4.98775" transform="translate(672.29, 386.11)" >bandgap_banba_res-40k</text>
<text fill="#222222"  xml:space="preserve" font-size="4.98775" transform="translate(671.811, 378.437)" >xr2b</text>
<text fill="#222222"  xml:space="preserve" font-size="4.98775" transform="translate(669.209, 370.284)" >rp</text>
<text fill="#222222"  xml:space="preserve" font-size="4.98775" transform="translate(669.209, 394.263)" >rn</text>
<text fill="#222222"  xml:space="preserve" font-size="4.98775" transform="translate(646.627, 377.478)" >bn</text>
<text fill="#222222"  xml:space="preserve" font-size="4.98775" transform="translate(351.352, 347.743)" >bandgap_banba_res-40k</text>
<text fill="#222222"  xml:space="preserve" font-size="4.98775" transform="translate(401.832, 340.07)" >xr3a</text>
<text fill="#222222"  xml:space="preserve" font-size="4.98775" transform="translate(410.434, 331.917)" >rp</text>
<text fill="#222222"  xml:space="preserve" font-size="4.98775" transform="translate(410.434, 355.896)" >rn</text>
<text fill="#222222"  xml:space="preserve" font-size="4.98775" transform="translate(432.015, 339.11)" >bn</text>
<text fill="#222222"  xml:space="preserve" font-size="4.98775" transform="translate(351.352, 386.11)" >bandgap_banba_res-40k</text>
<text fill="#222222"  xml:space="preserve" font-size="4.98775" transform="translate(401.832, 378.437)" >xr3b</text>
<text fill="#222222"  xml:space="preserve" font-size="4.98775" transform="translate(410.434, 370.284)" >rp</text>
<text fill="#222222"  xml:space="preserve" font-size="4.98775" transform="translate(410.434, 394.263)" >rn</text>
<text fill="#222222"  xml:space="preserve" font-size="4.98775" transform="translate(432.015, 377.478)" >bn</text>
<text fill="#222222"  xml:space="preserve" font-size="4.98775" transform="translate(663.086, 366.927)" >bandgap_banba_res-40k</text>
<text fill="#222222"  xml:space="preserve" font-size="4.98775" transform="translate(716.566, 359.253)" >xr4</text>
<text fill="#222222"  xml:space="preserve" font-size="4.98775" transform="translate(722.168, 351.1)" >rp</text>
<text fill="#222222"  xml:space="preserve" font-size="4.98775" transform="translate(722.168, 375.08)" >rn</text>
<text fill="#222222"  xml:space="preserve" font-size="4.98775" transform="translate(743.75, 358.294)" >bn</text>
<text fill="#222222"  xml:space="preserve" font-size="4.98775" transform="translate(710.566, 46.0802)" >M3sw</text>
<text fill="#ff0000"  xml:space="preserve" font-size="3.74081" transform="translate(714.372, 54.5399)" >G</text>
<text fill="#222222"  xml:space="preserve" font-size="4.98775" transform="translate(736.556, 69.7343)" >sg13_lv_pmos</text>
<text fill="#666600"  xml:space="preserve" font-size="4.98775" transform="translate(737.155, 63.4654)" >m=1</text>
<text fill="#666600"  xml:space="preserve" font-size="4.98775" transform="translate(737.155, 59.269)" >ng=1</text>
<text fill="#666600"  xml:space="preserve" font-size="4.98775" transform="translate(737.155, 53.2741)" >l=0.13u</text>
<text fill="#666600"  xml:space="preserve" font-size="4.98775" transform="translate(737.155, 47.8787)" >w=5u</text>
<text fill="#ff0000"  xml:space="preserve" font-size="3.74081" transform="translate(732.959, 67.7286)" >D</text>
<text fill="#ff0000"  xml:space="preserve" font-size="3.74081" transform="translate(732.959, 46.6522)" >S</text>
<text fill="#ff0000"  xml:space="preserve" font-size="3.74081" transform="translate(731.76, 54.5399)" >B</text>
<text fill="#222222"  xml:space="preserve" font-size="4.98775" transform="translate(566.689, 46.0802)" >M2sw</text>
<text fill="#ff0000"  xml:space="preserve" font-size="3.74081" transform="translate(570.495, 54.5399)" >G</text>
<text fill="#222222"  xml:space="preserve" font-size="4.98775" transform="translate(592.678, 69.7343)" >sg13_lv_pmos</text>
<text fill="#666600"  xml:space="preserve" font-size="4.98775" transform="translate(593.278, 63.4654)" >m=1</text>
<text fill="#666600"  xml:space="preserve" font-size="4.98775" transform="translate(593.278, 59.269)" >ng=1</text>
<text fill="#666600"  xml:space="preserve" font-size="4.98775" transform="translate(593.278, 53.2741)" >l=0.13u</text>
<text fill="#666600"  xml:space="preserve" font-size="4.98775" transform="translate(593.278, 47.8787)" >w=5u</text>
<text fill="#ff0000"  xml:space="preserve" font-size="3.74081" transform="translate(589.081, 67.7286)" >D</text>
<text fill="#ff0000"  xml:space="preserve" font-size="3.74081" transform="translate(589.081, 46.6522)" >S</text>
<text fill="#ff0000"  xml:space="preserve" font-size="3.74081" transform="translate(587.882, 54.5399)" >B</text>
<text fill="#222222"  xml:space="preserve" font-size="4.98775" transform="translate(479.974, 46.0802)" >M1sw</text>
<text fill="#ff0000"  xml:space="preserve" font-size="3.74081" transform="translate(487.168, 54.5399)" >G</text>
<text fill="#222222"  xml:space="preserve" font-size="4.98775" transform="translate(431.985, 69.7343)" >sg13_lv_pmos</text>
<text fill="#666600"  xml:space="preserve" font-size="4.98775" transform="translate(455.385, 63.4654)" >m=1</text>
<text fill="#666600"  xml:space="preserve" font-size="4.98775" transform="translate(454.385, 59.269)" >ng=1</text>
<text fill="#666600"  xml:space="preserve" font-size="4.98775" transform="translate(448.385, 53.2741)" >l=0.13u</text>
<text fill="#666600"  xml:space="preserve" font-size="4.98775" transform="translate(453.385, 47.8787)" >w=5u</text>
<text fill="#ff0000"  xml:space="preserve" font-size="3.74081" transform="translate(468.582, 67.7286)" >D</text>
<text fill="#ff0000"  xml:space="preserve" font-size="3.74081" transform="translate(468.582, 46.6522)" >S</text>
<text fill="#ff0000"  xml:space="preserve" font-size="3.74081" transform="translate(469.781, 54.5399)" >B</text>
<text fill="#222222"  xml:space="preserve" font-size="4.98775" transform="translate(345.689, 46.0802)" >M4sw</text>
<text fill="#ff0000"  xml:space="preserve" font-size="3.74081" transform="translate(352.883, 54.5399)" >G</text>
<text fill="#222222"  xml:space="preserve" font-size="4.98775" transform="translate(297.699, 69.7343)" >sg13_lv_pmos</text>
<text fill="#666600"  xml:space="preserve" font-size="4.98775" transform="translate(321.1, 63.4654)" >m=1</text>
<text fill="#666600"  xml:space="preserve" font-size="4.98775" transform="translate(320.1, 59.269)" >ng=1</text>
<text fill="#666600"  xml:space="preserve" font-size="4.98775" transform="translate(314.1, 53.2741)" >l=0.13u</text>
<text fill="#666600"  xml:space="preserve" font-size="4.98775" transform="translate(319.1, 47.8787)" >w=5u</text>
<text fill="#ff0000"  xml:space="preserve" font-size="3.74081" transform="translate(334.296, 67.7286)" >D</text>
<text fill="#ff0000"  xml:space="preserve" font-size="3.74081" transform="translate(334.296, 46.6522)" >S</text>
<text fill="#ff0000"  xml:space="preserve" font-size="3.74081" transform="translate(335.495, 54.5399)" >B</text>
<text fill="#0055ee"  xml:space="preserve" font-size="8.22978" transform="translate(83.7744, 25.3442)" >vdd</text>
<text fill="#0055ee"  xml:space="preserve" font-size="8.22978" transform="translate(85.7744, 428.201)" >vss</text>
<text fill="#0055ee"  xml:space="preserve" font-size="8.22978" transform="translate(75.299, 275.031)" >d_ena</text>
<text fill="#0055ee"  xml:space="preserve" font-size="8.22978" transform="translate(818.086, 294.215)" >vref_0v6</text>
<path class="l1" d="M587.882 406.041L587.882 425.224"/>
<path class="l1" d="M472.781 406.041L472.781 425.224"/>
<path class="l1" d="M559.107 391.653L568.699 391.653"/>
<path class="l1" d="M559.107 391.653L559.107 425.224"/>
<path class="l1" d="M491.964 391.653L501.556 391.653"/>
<path class="l1" d="M501.556 391.653L501.556 425.224"/>
<path class="l1" d="M472.781 425.224L501.556 425.224"/>
<path class="l1" d="M587.882 358.081L587.882 377.265"/>
<path class="l1" d="M444.005 103.898L472.781 103.898"/>
<path class="l1" d="M587.882 103.898L616.658 103.898"/>
<path class="l1" d="M472.781 358.081L472.781 377.265"/>
<path class="l1" d="M559.107 425.224L587.882 425.224"/>
<path class="l1" d="M309.72 103.898L338.495 103.898"/>
<path class="l1" d="M280.944 214.204L309.72 214.204"/>
<path class="l1" d="M731.76 103.898L760.535 103.898"/>
<path class="l1" d="M702.984 103.898L712.576 103.898"/>
<path class="l1" d="M702.984 103.898L702.984 127.878"/>
<path class="l1" d="M420.026 310.122L420.026 329.306"/>
<path class="l1" d="M420.026 310.122L472.781 310.122"/>
<path class="l1" d="M444.005 425.224L472.781 425.224"/>
<path class="l1" d="M587.882 310.122L664.617 310.122"/>
<path class="l1" d="M664.617 310.122L664.617 329.306"/>
<path class="l1" d="M664.617 425.224L731.76 425.224"/>
<path class="l1" d="M357.679 252.571L357.679 425.224"/>
<path class="l1" d="M357.679 151.857L405.638 151.857"/>
<path class="l1" d="M357.679 151.857L357.679 175.837"/>
<path class="l1" d="M731.76 118.286L731.76 247.776"/>
<path class="l1" d="M472.781 300.531L472.781 310.122"/>
<path class="l1" d="M587.882 310.122L587.882 329.306"/>
<path class="l1" d="M587.882 300.531L587.882 310.122"/>
<path class="l1" d="M731.76 377.265L731.76 425.224"/>
<path class="l1" d="M338.495 118.286L338.495 175.837"/>
<path class="l1" d="M396.046 228.592L472.781 228.592"/>
<path class="l1" d="M472.781 118.286L472.781 228.592"/>
<path class="l1" d="M396.046 199.816L587.882 199.816"/>
<path class="l1" d="M587.882 118.286L587.882 199.816"/>
<path class="l1" d="M731.76 290.939L731.76 348.49"/>
<path class="l1" d="M472.781 319.714L472.781 329.306"/>
<path class="l1" d="M280.944 382.061L280.944 425.224"/>
<path class="l1" d="M280.944 214.204L280.944 353.286"/>
<path class="l1" d="M280.944 425.224L309.72 425.224"/>
<path class="l1" d="M760.535 55.9391L760.535 103.898"/>
<path class="l1" d="M731.76 22.3677L760.535 22.3677"/>
<path class="l1" d="M616.658 55.9391L616.658 103.898"/>
<path class="l1" d="M587.882 22.3677L616.658 22.3677"/>
<path class="l1" d="M405.638 22.3677L444.005 22.3677"/>
<path class="l1" d="M338.495 22.3677L405.638 22.3677"/>
<path class="l1" d="M405.638 22.3677L405.638 151.857"/>
<path class="l1" d="M309.72 55.9391L309.72 103.898"/>
<path class="l1" d="M165.842 391.653L175.434 391.653"/>
<path class="l1" d="M165.842 367.673L165.842 391.653"/>
<path class="l1" d="M165.842 343.694L175.434 343.694"/>
<path class="l1" d="M194.618 406.041L194.618 425.224"/>
<path class="l1" d="M194.618 319.714L194.618 329.306"/>
<path class="l1" d="M194.618 22.3677L194.618 319.714"/>
<path class="l1" d="M213.801 319.714L213.801 343.694"/>
<path class="l1" d="M146.659 367.673L165.842 367.673"/>
<path class="l1" d="M165.842 343.694L165.842 367.673"/>
<path class="l1" d="M146.659 271.755L146.659 367.673"/>
<path class="l1" d="M108.291 271.755L146.659 271.755"/>
<path class="l1" d="M194.618 367.673L194.618 377.265"/>
<path class="l1" d="M194.618 319.714L213.801 319.714"/>
<path class="l1" d="M194.618 343.694L213.801 343.694"/>
<path class="l1" d="M544.719 425.224L559.107 425.224"/>
<path class="l1" d="M472.781 310.122L472.781 319.714"/>
<path class="l1" d="M194.618 358.081L194.618 367.673"/>
<path class="l1" d="M472.781 228.592L472.781 271.755"/>
<path class="l1" d="M587.882 199.816L587.882 271.755"/>
<path class="l1" d="M309.72 425.224L357.679 425.224"/>
<path class="l1" d="M338.495 252.571L338.495 271.755"/>
<path class="l1" d="M280.944 367.673L309.72 367.673"/>
<path class="l1" d="M309.72 367.673L309.72 425.224"/>
<path class="l1" d="M232.985 367.673L261.761 367.673"/>
<path class="l1" d="M266.556 22.3677L309.72 22.3677"/>
<path class="l1" d="M280.944 127.878L367.271 127.878"/>
<path class="l1" d="M280.944 127.878L280.944 214.204"/>
<path class="l1" d="M237.781 22.3677L237.781 51.1432"/>
<path class="l1" d="M194.618 22.3677L237.781 22.3677"/>
<path class="l1" d="M252.169 22.3677L252.169 51.1432"/>
<path class="l1" d="M237.781 22.3677L252.169 22.3677"/>
<path class="l1" d="M266.556 22.3677L266.556 51.1432"/>
<path class="l1" d="M252.169 22.3677L266.556 22.3677"/>
<path class="l1" d="M472.781 319.714L530.332 319.714"/>
<path class="l1" d="M530.332 319.714L530.332 358.081"/>
<path class="l1" d="M515.944 377.265L515.944 425.224"/>
<path class="l1" d="M501.556 425.224L515.944 425.224"/>
<path class="l1" d="M530.332 377.265L530.332 425.224"/>
<path class="l1" d="M515.944 425.224L530.332 425.224"/>
<path class="l1" d="M544.719 377.265L544.719 425.224"/>
<path class="l1" d="M530.332 425.224L544.719 425.224"/>
<path class="l1" d="M664.617 396.449L664.617 425.224"/>
<path class="l1" d="M640.637 425.224L664.617 425.224"/>
<path class="l1" d="M664.617 358.081L664.617 367.673"/>
<path class="l1" d="M420.026 396.449L420.026 425.224"/>
<path class="l1" d="M357.679 425.224L420.026 425.224"/>
<path class="l1" d="M420.026 358.081L420.026 367.673"/>
<path class="l1" d="M731.76 22.3677L731.76 41.5514"/>
<path class="l1" d="M616.658 22.3677L731.76 22.3677"/>
<path class="l1" d="M731.76 70.3268L731.76 89.5105"/>
<path class="l1" d="M731.76 55.9391L760.535 55.9391"/>
<path class="l1" d="M760.535 22.3677L760.535 55.9391"/>
<path class="l1" d="M587.882 70.3268L587.882 89.5105"/>
<path class="l1" d="M587.882 55.9391L616.658 55.9391"/>
<path class="l1" d="M616.658 22.3677L616.658 55.9391"/>
<path class="l1" d="M587.882 22.3677L587.882 41.5514"/>
<path class="l1" d="M472.781 22.3677L587.882 22.3677"/>
<path class="l1" d="M472.781 22.3677L472.781 41.5514"/>
<path class="l1" d="M444.005 22.3677L472.781 22.3677"/>
<path class="l1" d="M444.005 55.9391L472.781 55.9391"/>
<path class="l1" d="M444.005 55.9391L444.005 103.898"/>
<path class="l1" d="M472.781 70.3268L472.781 89.5105"/>
<path class="l1" d="M338.495 70.3268L338.495 89.5105"/>
<path class="l1" d="M338.495 22.3677L338.495 41.5514"/>
<path class="l1" d="M309.72 22.3677L338.495 22.3677"/>
<path class="l1" d="M309.72 55.9391L338.495 55.9391"/>
<path class="l1" d="M309.72 22.3677L309.72 55.9391"/>
<path class="l1" d="M444.005 22.3677L444.005 55.9391"/>
<path class="l1" d="M702.984 55.9391L712.576 55.9391"/>
<path class="l1" d="M702.984 55.9391L702.984 79.9187"/>
<path class="l1" d="M559.107 79.9187L702.984 79.9187"/>
<path class="l1" d="M146.659 271.755L338.495 271.755"/>
<path class="l1" d="M232.985 79.9187L232.985 367.673"/>
<path class="l1" d="M194.618 367.673L232.985 367.673"/>
<path class="l1" d="M357.679 55.9391L367.271 55.9391"/>
<path class="l1" d="M367.271 55.9391L367.271 79.9187"/>
<path class="l1" d="M232.985 79.9187L367.271 79.9187"/>
<path class="l1" d="M491.964 55.9391L501.556 55.9391"/>
<path class="l1" d="M501.556 55.9391L501.556 79.9187"/>
<path class="l1" d="M367.271 79.9187L501.556 79.9187"/>
<path class="l1" d="M559.107 55.9391L568.699 55.9391"/>
<path class="l1" d="M559.107 55.9391L559.107 79.9187"/>
<path class="l1" d="M501.556 79.9187L559.107 79.9187"/>
<path class="l1" d="M357.679 103.898L367.271 103.898"/>
<path class="l1" d="M491.964 103.898L501.556 103.898"/>
<path class="l1" d="M367.271 127.878L501.556 127.878"/>
<path class="l1" d="M559.107 103.898L568.699 103.898"/>
<path class="l1" d="M559.107 103.898L559.107 127.878"/>
<path class="l1" d="M559.107 127.878L702.984 127.878"/>
<path class="l1" d="M367.271 103.898L367.271 127.878"/>
<path class="l1" d="M501.556 103.898L501.556 127.878"/>
<path class="l1" d="M252.169 70.3268L252.169 127.878"/>
<path class="l1" d="M252.169 127.878L280.944 127.878"/>
<path class="l1" d="M501.556 127.878L559.107 127.878"/>
<path class="l1" d="M108.291 22.3677L194.618 22.3677"/>
<path class="l1" d="M213.801 425.224L280.944 425.224"/>
<path class="l1" d="M108.291 425.224L194.618 425.224"/>
<path class="l1" d="M731.76 290.939L808.494 290.939"/>
<path class="l1" d="M731.76 276.551L731.76 290.939"/>
<path class="l1" d="M194.618 391.653L213.801 391.653"/>
<path class="l1" d="M213.801 391.653L213.801 425.224"/>
<path class="l1" d="M194.618 425.224L213.801 425.224"/>
<path class="l1" d="M746.147 362.877L755.739 362.877"/>
<path class="l1" d="M755.739 362.877L755.739 425.224"/>
<path class="l1" d="M731.76 425.224L755.739 425.224"/>
<path class="l1" d="M640.637 343.694L650.229 343.694"/>
<path class="l1" d="M640.637 382.061L640.637 425.224"/>
<path class="l1" d="M587.882 425.224L640.637 425.224"/>
<path class="l1" d="M640.637 382.061L650.229 382.061"/>
<path class="l1" d="M640.637 343.694L640.637 382.061"/>
<path class="l1" d="M602.27 343.694L640.637 343.694"/>
<path class="l1" d="M434.413 343.694L444.005 343.694"/>
<path class="l1" d="M444.005 382.061L444.005 425.224"/>
<path class="l1" d="M420.026 425.224L444.005 425.224"/>
<path class="l1" d="M434.413 382.061L444.005 382.061"/>
<path class="l1" d="M444.005 343.694L444.005 382.061"/>
<circle class="l1" cx="194.618" cy="22.3677" r="1.77449"/>
<circle class="l1" cx="367.271" cy="79.9187" r="1.77449"/>
<circle class="l1" cx="232.985" cy="367.673" r="1.77449"/>
<circle class="l1" cx="194.618" cy="22.3677" r="1.77449"/>
<circle class="l1" cx="237.781" cy="22.3677" r="1.77449"/>
<circle class="l1" cx="194.618" cy="22.3677" r="1.77449"/>
<circle class="l1" cx="194.618" cy="319.714" r="1.77449"/>
<circle class="l1" cx="146.659" cy="271.755" r="1.77449"/>
<circle class="l1" cx="194.618" cy="319.714" r="1.77449"/>
<circle class="l1" cx="146.659" cy="271.755" r="1.77449"/>
<circle class="l1" cx="146.659" cy="271.755" r="1.77449"/>
<circle class="l1" cx="194.618" cy="319.714" r="1.77449"/>
<circle class="l1" cx="194.618" cy="425.224" r="1.77449"/>
<circle class="l1" cx="213.801" cy="425.224" r="1.77449"/>
<circle class="l1" cx="213.801" cy="425.224" r="1.77449"/>
<circle class="l1" cx="194.618" cy="425.224" r="1.77449"/>
<circle class="l1" cx="213.801" cy="425.224" r="1.77449"/>
<circle class="l1" cx="280.944" cy="425.224" r="1.77449"/>
<circle class="l1" cx="194.618" cy="367.673" r="1.77449"/>
<circle class="l1" cx="232.985" cy="367.673" r="1.77449"/>
<circle class="l1" cx="232.985" cy="367.673" r="1.77449"/>
<circle class="l1" cx="194.618" cy="367.673" r="1.77449"/>
<circle class="l1" cx="194.618" cy="367.673" r="1.77449"/>
<circle class="l1" cx="165.842" cy="367.673" r="1.77449"/>
<circle class="l1" cx="165.842" cy="367.673" r="1.77449"/>
<circle class="l1" cx="194.618" cy="425.224" r="1.77449"/>
<circle class="l1" cx="165.842" cy="367.673" r="1.77449"/>
<circle class="l1" cx="280.944" cy="127.878" r="1.77449"/>
<circle class="l1" cx="367.271" cy="127.878" r="1.77449"/>
<circle class="l1" cx="367.271" cy="127.878" r="1.77449"/>
<circle class="l1" cx="501.556" cy="127.878" r="1.77449"/>
<circle class="l1" cx="367.271" cy="79.9187" r="1.77449"/>
<circle class="l1" cx="501.556" cy="79.9187" r="1.77449"/>
<circle class="l1" cx="367.271" cy="79.9187" r="1.77449"/>
<circle class="l1" cx="309.72" cy="22.3677" r="1.77449"/>
<circle class="l1" cx="309.72" cy="55.9391" r="1.77449"/>
<circle class="l1" cx="309.72" cy="55.9391" r="1.77449"/>
<circle class="l1" cx="309.72" cy="22.3677" r="1.77449"/>
<circle class="l1" cx="338.495" cy="22.3677" r="1.77449"/>
<circle class="l1" cx="338.495" cy="22.3677" r="1.77449"/>
<circle class="l1" cx="252.169" cy="22.3677" r="1.77449"/>
<circle class="l1" cx="266.556" cy="22.3677" r="1.77449"/>
<circle class="l1" cx="266.556" cy="22.3677" r="1.77449"/>
<circle class="l1" cx="237.781" cy="22.3677" r="1.77449"/>
<circle class="l1" cx="252.169" cy="22.3677" r="1.77449"/>
<circle class="l1" cx="252.169" cy="22.3677" r="1.77449"/>
<circle class="l1" cx="237.781" cy="22.3677" r="1.77449"/>
<circle class="l1" cx="280.944" cy="127.878" r="1.77449"/>
<circle class="l1" cx="280.944" cy="214.204" r="1.77449"/>
<circle class="l1" cx="280.944" cy="127.878" r="1.77449"/>
<circle class="l1" cx="367.271" cy="127.878" r="1.77449"/>
<circle class="l1" cx="266.556" cy="22.3677" r="1.77449"/>
<circle class="l1" cx="309.72" cy="22.3677" r="1.77449"/>
<circle class="l1" cx="309.72" cy="55.9391" r="1.77449"/>
<circle class="l1" cx="405.638" cy="22.3677" r="1.77449"/>
<circle class="l1" cx="338.495" cy="22.3677" r="1.77449"/>
<circle class="l1" cx="405.638" cy="22.3677" r="1.77449"/>
<circle class="l1" cx="405.638" cy="22.3677" r="1.77449"/>
<circle class="l1" cx="444.005" cy="22.3677" r="1.77449"/>
<circle class="l1" cx="280.944" cy="214.204" r="1.77449"/>
<circle class="l1" cx="587.882" cy="199.816" r="1.77449"/>
<circle class="l1" cx="472.781" cy="228.592" r="1.77449"/>
<circle class="l1" cx="357.679" cy="425.224" r="1.77449"/>
<circle class="l1" cx="472.781" cy="310.122" r="1.77449"/>
<circle class="l1" cx="280.944" cy="214.204" r="1.77449"/>
<circle class="l1" cx="420.026" cy="425.224" r="1.77449"/>
<circle class="l1" cx="444.005" cy="425.224" r="1.77449"/>
<circle class="l1" cx="357.679" cy="425.224" r="1.77449"/>
<circle class="l1" cx="420.026" cy="425.224" r="1.77449"/>
<circle class="l1" cx="420.026" cy="425.224" r="1.77449"/>
<circle class="l1" cx="309.72" cy="425.224" r="1.77449"/>
<circle class="l1" cx="309.72" cy="425.224" r="1.77449"/>
<circle class="l1" cx="357.679" cy="425.224" r="1.77449"/>
<circle class="l1" cx="280.944" cy="425.224" r="1.77449"/>
<circle class="l1" cx="309.72" cy="425.224" r="1.77449"/>
<circle class="l1" cx="280.944" cy="425.224" r="1.77449"/>
<circle class="l1" cx="501.556" cy="127.878" r="1.77449"/>
<circle class="l1" cx="559.107" cy="127.878" r="1.77449"/>
<circle class="l1" cx="501.556" cy="127.878" r="1.77449"/>
<circle class="l1" cx="559.107" cy="127.878" r="1.77449"/>
<circle class="l1" cx="559.107" cy="127.878" r="1.77449"/>
<circle class="l1" cx="501.556" cy="79.9187" r="1.77449"/>
<circle class="l1" cx="559.107" cy="79.9187" r="1.77449"/>
<circle class="l1" cx="559.107" cy="79.9187" r="1.77449"/>
<circle class="l1" cx="501.556" cy="79.9187" r="1.77449"/>
<circle class="l1" cx="559.107" cy="79.9187" r="1.77449"/>
<circle class="l1" cx="444.005" cy="22.3677" r="1.77449"/>
<circle class="l1" cx="444.005" cy="55.9391" r="1.77449"/>
<circle class="l1" cx="444.005" cy="55.9391" r="1.77449"/>
<circle class="l1" cx="444.005" cy="55.9391" r="1.77449"/>
<circle class="l1" cx="444.005" cy="22.3677" r="1.77449"/>
<circle class="l1" cx="472.781" cy="22.3677" r="1.77449"/>
<circle class="l1" cx="472.781" cy="22.3677" r="1.77449"/>
<circle class="l1" cx="472.781" cy="22.3677" r="1.77449"/>
<circle class="l1" cx="587.882" cy="22.3677" r="1.77449"/>
<circle class="l1" cx="587.882" cy="22.3677" r="1.77449"/>
<circle class="l1" cx="616.658" cy="22.3677" r="1.77449"/>
<circle class="l1" cx="616.658" cy="55.9391" r="1.77449"/>
<circle class="l1" cx="616.658" cy="55.9391" r="1.77449"/>
<circle class="l1" cx="616.658" cy="22.3677" r="1.77449"/>
<circle class="l1" cx="731.76" cy="22.3677" r="1.77449"/>
<circle class="l1" cx="587.882" cy="22.3677" r="1.77449"/>
<circle class="l1" cx="616.658" cy="22.3677" r="1.77449"/>
<circle class="l1" cx="616.658" cy="55.9391" r="1.77449"/>
<circle class="l1" cx="587.882" cy="199.816" r="1.77449"/>
<circle class="l1" cx="472.781" cy="228.592" r="1.77449"/>
<circle class="l1" cx="472.781" cy="319.714" r="1.77449"/>
<circle class="l1" cx="587.882" cy="199.816" r="1.77449"/>
<circle class="l1" cx="472.781" cy="228.592" r="1.77449"/>
<circle class="l1" cx="472.781" cy="310.122" r="1.77449"/>
<circle class="l1" cx="472.781" cy="319.714" r="1.77449"/>
<circle class="l1" cx="472.781" cy="319.714" r="1.77449"/>
<circle class="l1" cx="587.882" cy="310.122" r="1.77449"/>
<circle class="l1" cx="587.882" cy="310.122" r="1.77449"/>
<circle class="l1" cx="472.781" cy="310.122" r="1.77449"/>
<circle class="l1" cx="587.882" cy="310.122" r="1.77449"/>
<circle class="l1" cx="444.005" cy="382.061" r="1.77449"/>
<circle class="l1" cx="444.005" cy="382.061" r="1.77449"/>
<circle class="l1" cx="444.005" cy="382.061" r="1.77449"/>
<circle class="l1" cx="444.005" cy="425.224" r="1.77449"/>
<circle class="l1" cx="640.637" cy="343.694" r="1.77449"/>
<circle class="l1" cx="587.882" cy="425.224" r="1.77449"/>
<circle class="l1" cx="640.637" cy="425.224" r="1.77449"/>
<circle class="l1" cx="530.332" cy="425.224" r="1.77449"/>
<circle class="l1" cx="544.719" cy="425.224" r="1.77449"/>
<circle class="l1" cx="544.719" cy="425.224" r="1.77449"/>
<circle class="l1" cx="515.944" cy="425.224" r="1.77449"/>
<circle class="l1" cx="530.332" cy="425.224" r="1.77449"/>
<circle class="l1" cx="530.332" cy="425.224" r="1.77449"/>
<circle class="l1" cx="501.556" cy="425.224" r="1.77449"/>
<circle class="l1" cx="515.944" cy="425.224" r="1.77449"/>
<circle class="l1" cx="515.944" cy="425.224" r="1.77449"/>
<circle class="l1" cx="544.719" cy="425.224" r="1.77449"/>
<circle class="l1" cx="559.107" cy="425.224" r="1.77449"/>
<circle class="l1" cx="444.005" cy="425.224" r="1.77449"/>
<circle class="l1" cx="472.781" cy="425.224" r="1.77449"/>
<circle class="l1" cx="559.107" cy="425.224" r="1.77449"/>
<circle class="l1" cx="587.882" cy="425.224" r="1.77449"/>
<circle class="l1" cx="472.781" cy="425.224" r="1.77449"/>
<circle class="l1" cx="501.556" cy="425.224" r="1.77449"/>
<circle class="l1" cx="501.556" cy="425.224" r="1.77449"/>
<circle class="l1" cx="559.107" cy="425.224" r="1.77449"/>
<circle class="l1" cx="472.781" cy="425.224" r="1.77449"/>
<circle class="l1" cx="587.882" cy="425.224" r="1.77449"/>
<circle class="l1" cx="760.535" cy="55.9391" r="1.77449"/>
<circle class="l1" cx="760.535" cy="55.9391" r="1.77449"/>
<circle class="l1" cx="731.76" cy="22.3677" r="1.77449"/>
<circle class="l1" cx="731.76" cy="22.3677" r="1.77449"/>
<circle class="l1" cx="760.535" cy="55.9391" r="1.77449"/>
<circle class="l1" cx="731.76" cy="290.939" r="1.77449"/>
<circle class="l1" cx="731.76" cy="290.939" r="1.77449"/>
<circle class="l1" cx="731.76" cy="290.939" r="1.77449"/>
<circle class="l1" cx="640.637" cy="343.694" r="1.77449"/>
<circle class="l1" cx="640.637" cy="382.061" r="1.77449"/>
<circle class="l1" cx="640.637" cy="382.061" r="1.77449"/>
<circle class="l1" cx="640.637" cy="382.061" r="1.77449"/>
<circle class="l1" cx="640.637" cy="425.224" r="1.77449"/>
<circle class="l1" cx="640.637" cy="343.694" r="1.77449"/>
<circle class="l1" cx="731.76" cy="425.224" r="1.77449"/>
<circle class="l1" cx="640.637" cy="425.224" r="1.77449"/>
<circle class="l1" cx="664.617" cy="425.224" r="1.77449"/>
<circle class="l1" cx="664.617" cy="425.224" r="1.77449"/>
<circle class="l1" cx="731.76" cy="425.224" r="1.77449"/>
<circle class="l1" cx="664.617" cy="425.224" r="1.77449"/>
<circle class="l1" cx="731.76" cy="425.224" r="1.77449"/>
<text fill="#222222"  xml:space="preserve" font-size="9.97549" transform="translate(592.678, 415.098)" >m=32</text>
<text fill="#222222"  xml:space="preserve" font-size="9.97549" transform="translate(439.209, 443.874)" >15uA</text>
<text fill="#222222"  xml:space="preserve" font-size="9.97549" transform="translate(611.862, 443.874)" >15uA</text>
<text fill="#222222"  xml:space="preserve" font-size="9.97549" transform="translate(717.372, 443.874)" >15uA</text>
<text fill="#222222"  xml:space="preserve" font-size="9.97549" transform="translate(477.576, 371.935)" >m=2</text>
<text fill="#222222"  xml:space="preserve" font-size="9.97549" transform="translate(755.739, 285.609)" >0.6V</text>
<text fill="#222222"  xml:space="preserve" font-size="9.97549" transform="translate(122.679, 17.0377)" >1.5V (nom)</text>
</svg>
