<svg xmlns="http://www.w3.org/2000/svg" xmlns:xlink="http://www.w3.org/1999/xlink" width="900" height="532" version="1.1">
<style type="text/css">
.l0{
  fill: #ffffff;
  stroke: #ffffff;
  stroke-linecap:round;
  stroke-linejoin:round;
  stroke-width: 0.799017;
}
.l1{
  fill: #0044ee;
  stroke: #0044ee;
  stroke-linecap:round;
  stroke-linejoin:round;
  stroke-width: 0.799017;
}
.l2{
  fill: #aaaaaa; fill-opacity: 0.2;
  stroke: #aaaaaa;
  stroke-linecap:round;
  stroke-linejoin:round;
  stroke-width: 0.799017;
}
.l3{
  fill: #222222; fill-opacity: 0.5;
  stroke: #222222;
  stroke-linecap:round;
  stroke-linejoin:round;
  stroke-width: 0.799017;
}
.l4{
  fill: #229900;
  stroke: #229900;
  stroke-linecap:round;
  stroke-linejoin:round;
  stroke-width: 0.799017;
}
.l5{
  fill: #bb2200;
  stroke: #bb2200;
  stroke-linecap:round;
  stroke-linejoin:round;
  stroke-width: 0.799017;
}
.l6{
  fill: #00ccee; fill-opacity: 0.5;
  stroke: #00ccee;
  stroke-linecap:round;
  stroke-linejoin:round;
  stroke-width: 0.799017;
}
.l7{
  fill: #ff0000; fill-opacity: 0.5;
  stroke: #ff0000;
  stroke-linecap:round;
  stroke-linejoin:round;
  stroke-width: 0.799017;
}
.l8{
  fill: #888800; fill-opacity: 0.5;
  stroke: #888800;
  stroke-linecap:round;
  stroke-linejoin:round;
  stroke-width: 0.799017;
}
.l9{
  fill: #00aaaa; fill-opacity: 0.5;
  stroke: #00aaaa;
  stroke-linecap:round;
  stroke-linejoin:round;
  stroke-width: 0.799017;
}
.l10{
  fill: #880088;
  stroke: #880088;
  stroke-linecap:round;
  stroke-linejoin:round;
  stroke-width: 0.799017;
}
.l11{
  fill: #00ff00; fill-opacity: 0.5;
  stroke: #00ff00;
  stroke-linecap:round;
  stroke-linejoin:round;
  stroke-width: 0.799017;
}
.l12{
  fill: #0000cc; fill-opacity: 0.5;
  stroke: #0000cc;
  stroke-linecap:round;
  stroke-linejoin:round;
  stroke-width: 0.799017;
}
.l13{
  fill: #666600; fill-opacity: 0.5;
  stroke: #666600;
  stroke-linecap:round;
  stroke-linejoin:round;
  stroke-width: 0.799017;
}
.l14{
  fill: #557755; fill-opacity: 0.2;
  stroke: #557755;
  stroke-linecap:round;
  stroke-linejoin:round;
  stroke-width: 0.799017;
}
.l15{
  fill: #aa2222; fill-opacity: 0.5;
  stroke: #aa2222;
  stroke-linecap:round;
  stroke-linejoin:round;
  stroke-width: 0.799017;
}
.l16{
  fill: #7ccc40; fill-opacity: 0.5;
  stroke: #7ccc40;
  stroke-linecap:round;
  stroke-linejoin:round;
  stroke-width: 0.799017;
}
.l17{
  fill: #00ffcc; fill-opacity: 0.2;
  stroke: #00ffcc;
  stroke-linecap:round;
  stroke-linejoin:round;
  stroke-width: 0.799017;
}
.l18{
  fill: #ce0097; fill-opacity: 0.5;
  stroke: #ce0097;
  stroke-linecap:round;
  stroke-linejoin:round;
  stroke-width: 0.799017;
}
.l19{
  fill: #d2d46b; fill-opacity: 0.2;
  stroke: #d2d46b;
  stroke-linecap:round;
  stroke-linejoin:round;
  stroke-width: 0.799017;
}
.l20{
  fill: #ef6158; fill-opacity: 0.2;
  stroke: #ef6158;
  stroke-linecap:round;
  stroke-linejoin:round;
  stroke-width: 0.799017;
}
.l21{
  fill: #fdb200; fill-opacity: 0.2;
  stroke: #fdb200;
  stroke-linecap:round;
  stroke-linejoin:round;
  stroke-width: 0.799017;
}
text {font-family: Sans-Serif;}
</style>
<rect class="l0" x="0" y="0" width="900" height="532"/>
<text fill="#0044ee"  xml:space="preserve" font-size="12.6955" transform="translate(118.988, 163.779)" >rp</text>
<text fill="#0044ee"  xml:space="preserve" font-size="12.6955" transform="translate(118.988, 267.355)" >rn</text>
<text fill="#0044ee"  xml:space="preserve" font-size="10.3872" transform="translate(207.998, 155.78)" >rp,r[1]</text>
<text fill="#0044ee"  xml:space="preserve" font-size="10.3872" transform="translate(207.998, 259.356)" >r[1],rn</text>
<text fill="#222222"  xml:space="preserve" font-size="15.3885" transform="translate(305.733, 376.613)" >         bandgap_simple_res-10k.sch</text>
<text fill="#222222"  xml:space="preserve" font-size="15.3885" transform="translate(305.733, 354.418)" >(c) 2024 H. Pretl, Apache-2.0 license</text>
<text fill="#222222"  xml:space="preserve" font-size="15.3885" transform="translate(714.5, 354.418)" >2025-01-02  16:13:22</text>
<text fill="#222222"  xml:space="preserve" font-size="38.4712" transform="translate(135.572, 375.377)" >SCHEM</text>
<text fill="#666600"  xml:space="preserve" font-size="7.69424" transform="translate(261.343, 215.187)" >w/l = 0.5e-6 / 10e-6</text>
<text fill="#222222"  xml:space="preserve" font-size="7.69424" transform="translate(261.343, 205.939)" >rppd</text>
<text fill="#222222"  xml:space="preserve" font-size="7.69424" transform="translate(261.343, 196.691)" >XR[1..2]</text>
<text fill="#666600"  xml:space="preserve" font-size="7.69424" transform="translate(261.343, 240.156)" >R=5278 </text>
<text fill="#666600"  xml:space="preserve" font-size="7.69424" transform="translate(261.343, 222.585)" >b=0</text>
<text fill="#666600"  xml:space="preserve" font-size="7.69424" transform="translate(261.343, 229.984)" >m=1</text>
<path class="l4" d="M250.246 225.772L250.246 233.17"/>
<path class="l4" d="M250.246 225.772L255.794 223.922"/>
<path class="l4" d="M244.697 220.223L255.794 223.922"/>
<path class="l4" d="M244.697 220.223L255.794 216.524"/>
<path class="l4" d="M244.697 212.825L255.794 216.524"/>
<path class="l4" d="M244.697 212.825L255.794 209.126"/>
<path class="l4" d="M244.697 205.426L255.794 209.126"/>
<path class="l4" d="M244.697 205.426L255.794 201.727"/>
<path class="l4" d="M244.697 198.028L255.794 201.727"/>
<path class="l4" d="M244.697 198.028L250.246 196.178"/>
<path class="l4" d="M250.246 188.78L250.246 196.178"/>
<path class="l5" d="M124.475 347.844L124.243 348.075L124.012 348.306L123.781 348.537L123.55 348.769L123.319 349L123.087 349.231L122.856 349.462L122.625 349.693L122.394 349.925L122.163 350.156L121.931 350.387L121.7 350.618L121.469 350.849L121.238 351.081L121.007 351.312L120.775 351.543L120.544 351.774L120.313 352.005L120.082 352.236L119.851 352.468L119.619 352.699L119.388 352.93L119.157 353.161L118.926 353.392L118.695 353.624L118.463 353.855L118.232 354.086L118.001 354.317L117.77 354.548L117.539 354.78L117.307 355.011L117.076 355.242L117.076 355.242L116.852 355.473L116.643 355.704L116.448 355.936L116.267 356.167L116.101 356.398L115.949 356.629L115.812 356.86L115.689 357.092L115.581 357.323L115.487 357.554L115.407 357.785L115.342 358.016L115.292 358.248L115.256 358.479L115.234 358.71L115.227 358.941L115.234 359.172L115.256 359.404L115.292 359.635L115.342 359.866L115.407 360.097L115.487 360.328L115.581 360.56L115.689 360.791L115.812 361.022L115.949 361.253L116.101 361.484L116.267 361.716L116.448 361.947L116.643 362.178L116.852 362.409L117.076 362.64L117.076 362.64L117.308 362.872L117.542 363.106L117.778 363.342L118.016 363.58L118.255 363.819L118.496 364.06L118.739 364.303L118.984 364.548L119.23 364.794L119.479 365.043L119.729 365.293L119.981 365.545L120.234 365.799L120.49 366.054L120.747 366.312L121.007 366.571L121.268 366.832L121.53 367.095L121.795 367.359L122.061 367.626L122.33 367.894L122.6 368.164L122.872 368.436L123.145 368.709L123.421 368.985L123.698 369.262L123.977 369.541L124.258 369.822L124.541 370.105L124.825 370.389L125.111 370.675L125.399 370.963L125.399 370.963L125.687 371.251L125.97 371.534L126.25 371.814L126.526 372.091L126.799 372.363L127.068 372.632L127.334 372.898L127.596 373.16L127.854 373.418L128.109 373.673L128.36 373.924L128.607 374.171L128.851 374.415L129.091 374.655L129.328 374.892L129.561 375.125L129.79 375.354L130.016 375.58L130.238 375.802L130.457 376.021L130.672 376.236L130.883 376.447L131.091 376.655L131.295 376.859L131.495 377.059L131.692 377.256L131.886 377.45L132.075 377.639L132.261 377.825L132.444 378.008L132.622 378.187L132.798 378.362L132.798 378.362L132.966 378.532L133.123 378.698L133.269 378.858L133.405 379.012L133.529 379.161L133.643 379.305L133.746 379.443L133.838 379.576L133.919 379.703L133.99 379.825L134.049 379.941L134.098 380.052L134.136 380.158L134.163 380.258L134.179 380.353L134.185 380.443L134.179 380.527L134.163 380.605L134.136 380.678L134.098 380.746L134.049 380.808L133.99 380.865L133.919 380.917L133.838 380.963L133.746 381.003L133.643 381.039L133.529 381.068L133.405 381.093L133.269 381.112L133.123 381.125L132.966 381.133L132.798 381.136L132.798 381.136L132.624 381.136L132.451 381.136L132.277 381.136L132.104 381.136L131.931 381.136L131.757 381.136L131.584 381.136L131.41 381.136L131.237 381.136L131.064 381.136L130.89 381.136L130.717 381.136L130.543 381.136L130.37 381.136L130.197 381.136L130.023 381.136L129.85 381.136L129.677 381.136L129.503 381.136L129.33 381.136L129.156 381.136L128.983 381.136L128.81 381.136L128.636 381.136L128.463 381.136L128.289 381.136L128.116 381.136L127.943 381.136L127.769 381.136L127.596 381.136L127.422 381.136L127.249 381.136L127.249 381.136L127.076 381.136L126.906 381.136L126.737 381.136L126.57 381.136L126.405 381.136L126.241 381.136L126.079 381.136L125.92 381.136L125.762 381.136L125.605 381.136L125.451 381.136L125.298 381.136L125.147 381.136L124.998 381.136L124.851 381.136L124.706 381.136L124.562 381.136L124.42 381.136L124.28 381.136L124.142 381.136L124.006 381.136L123.871 381.136L123.739 381.136L123.608 381.136L123.478 381.136L123.351 381.136L123.226 381.136L123.102 381.136L122.98 381.136L122.86 381.136L122.742 381.136L122.625 381.136L122.625 381.136L122.509 381.134L122.394 381.129L122.278 381.12L122.163 381.107L122.047 381.091L121.931 381.071L121.816 381.048L121.7 381.021L121.585 380.99L121.469 380.956L121.353 380.918L121.238 380.876L121.122 380.831L121.007 380.782L120.891 380.73L120.775 380.674L120.66 380.614L120.544 380.551L120.429 380.484L120.313 380.414L120.197 380.34L120.082 380.262L119.966 380.181L119.851 380.096L119.735 380.007L119.619 379.915L119.504 379.819L119.388 379.72L119.273 379.617L119.157 379.511L119.041 379.4L118.926 379.287L118.926 379.287L118.81 379.171L118.695 379.055L118.579 378.94L118.463 378.824L118.348 378.709L118.232 378.593L118.117 378.477L118.001 378.362L117.885 378.246L117.77 378.131L117.654 378.015L117.539 377.899L117.423 377.784L117.307 377.668L117.192 377.553L117.076 377.437L116.961 377.321L116.845 377.206L116.729 377.09L116.614 376.975L116.498 376.859L116.383 376.743L116.267 376.628L116.151 376.512L116.036 376.397L115.92 376.281L115.805 376.165L115.689 376.05L115.573 375.934L115.458 375.819L115.342 375.703L115.227 375.587L115.227 375.587L115.109 375.47L114.988 375.349L114.864 375.224L114.735 375.096L114.604 374.964L114.468 374.829L114.329 374.69L114.186 374.547L114.04 374.401L113.89 374.251L113.737 374.097L113.579 373.94L113.419 373.779L113.254 373.615L113.086 373.447L112.915 373.275L112.74 373.1L112.561 372.921L112.378 372.739L112.192 372.553L112.003 372.363L111.809 372.17L111.612 371.973L111.412 371.773L111.208 371.569L111 371.361L110.789 371.149L110.574 370.935L110.355 370.716L110.133 370.494L109.907 370.268L109.678 370.039L109.678 370.039L109.447 369.815L109.216 369.605L108.984 369.41L108.753 369.229L108.522 369.063L108.291 368.912L108.06 368.774L107.828 368.651L107.597 368.543L107.366 368.449L107.135 368.37L106.904 368.305L106.672 368.254L106.441 368.218L106.21 368.196L105.979 368.189L105.748 368.196L105.516 368.218L105.285 368.254L105.054 368.305L104.823 368.37L104.592 368.449L104.36 368.543L104.129 368.651L103.898 368.774L103.667 368.912L103.436 369.063L103.204 369.229L102.973 369.41L102.742 369.605L102.511 369.815L102.28 370.039L102.28 370.039L102.05 370.268L101.824 370.494L101.602 370.716L101.384 370.935L101.169 371.149L100.958 371.361L100.75 371.569L100.546 371.773L100.345 371.973L100.148 372.17L99.955 372.363L99.7654 372.553L99.5794 372.739L99.3969 372.921L99.2181 373.1L99.0429 373.275L98.8713 373.447L98.7033 373.615L98.539 373.779L98.3782 373.94L98.2211 374.097L98.0675 374.251L97.9176 374.401L97.7713 374.547L97.6286 374.69L97.4895 374.829L97.3541 374.964L97.2222 375.096L97.094 375.224L96.9694 375.349L96.8483 375.47L96.7309 375.587L96.7309 375.587L96.6153 375.703L96.4997 375.819L96.3841 375.934L96.2685 376.05L96.1529 376.165L96.0373 376.281L95.9217 376.397L95.8061 376.512L95.6905 376.628L95.5749 376.743L95.4593 376.859L95.3438 376.975L95.2282 377.09L95.1126 377.206L94.997 377.321L94.8814 377.437L94.7658 377.553L94.6502 377.668L94.5346 377.784L94.419 377.899L94.3034 378.015L94.1878 378.131L94.0722 378.246L93.9566 378.362L93.841 378.477L93.7254 378.593L93.6098 378.709L93.4942 378.824L93.3786 378.94L93.263 379.055L93.1474 379.171L93.0318 379.287L93.0318 379.287L92.9162 379.4L92.8006 379.511L92.685 379.617L92.5694 379.72L92.4538 379.819L92.3382 379.915L92.2226 380.007L92.107 380.096L91.9914 380.181L91.8758 380.262L91.7602 380.34L91.6446 380.414L91.529 380.484L91.4134 380.551L91.2978 380.614L91.1822 380.674L91.0666 380.73L90.951 380.782L90.8354 380.831L90.7198 380.876L90.6042 380.918L90.4886 380.956L90.373 380.99L90.2574 381.021L90.1418 381.048L90.0262 381.071L89.9106 381.091L89.795 381.107L89.6794 381.12L89.5638 381.129L89.4482 381.134L89.3326 381.136L89.3326 381.136L89.2161 381.136L89.0978 381.136L88.9777 381.136L88.8558 381.136L88.7321 381.136L88.6065 381.136L88.4792 381.136L88.35 381.136L88.2191 381.136L88.0863 381.136L87.9518 381.136L87.8154 381.136L87.6772 381.136L87.5372 381.136L87.3954 381.136L87.2519 381.136L87.1065 381.136L86.9592 381.136L86.8102 381.136L86.6594 381.136L86.5068 381.136L86.3524 381.136L86.1961 381.136L86.0381 381.136L85.8782 381.136L85.7166 381.136L85.5531 381.136L85.3878 381.136L85.2208 381.136L85.0519 381.136L84.8812 381.136L84.7087 381.136L84.7087 381.136L84.5353 381.136L84.3619 381.136L84.1885 381.136L84.0151 381.136L83.8417 381.136L83.6683 381.136L83.4949 381.136L83.3215 381.136L83.1481 381.136L82.9747 381.136L82.8013 381.136L82.6279 381.136L82.4545 381.136L82.2811 381.136L82.1077 381.136L81.9343 381.136L81.7609 381.136L81.5875 381.136L81.4141 381.136L81.2407 381.136L81.0673 381.136L80.8939 381.136L80.7205 381.136L80.5471 381.136L80.3737 381.136L80.2003 381.136L80.0269 381.136L79.8535 381.136L79.6802 381.136L79.5068 381.136L79.3334 381.136L79.16 381.136L79.16 381.136L78.992 381.133L78.8348 381.125L78.6885 381.112L78.5531 381.093L78.4284 381.068L78.3146 381.039L78.2117 381.003L78.1196 380.963L78.0383 380.917L77.9678 380.865L77.9082 380.808L77.8595 380.746L77.8215 380.678L77.7945 380.605L77.7782 380.527L77.7728 380.443L77.7782 380.353L77.7945 380.258L77.8215 380.158L77.8595 380.052L77.9082 379.941L77.9678 379.825L78.0383 379.703L78.1196 379.576L78.2117 379.443L78.3146 379.305L78.4284 379.161L78.5531 379.012L78.6885 378.858L78.8348 378.698L78.992 378.532L79.16 378.362L79.16 378.362L79.3352 378.187L79.514 378.008L79.6964 377.825L79.8824 377.639L80.0721 377.45L80.2654 377.256L80.4622 377.059L80.6627 376.859L80.8668 376.655L81.0746 376.447L81.2859 376.236L81.5008 376.021L81.7194 375.802L81.9415 375.58L82.1673 375.354L82.3967 375.125L82.6297 374.892L82.8663 374.655L83.1066 374.415L83.3504 374.171L83.5979 373.924L83.8489 373.673L84.1036 373.418L84.3619 373.16L84.6238 372.898L84.8893 372.632L85.1584 372.363L85.4312 372.091L85.7075 371.814L85.9875 371.534L86.2711 371.251L86.5583 370.963L86.5583 370.963L86.8464 370.675L87.1326 370.389L87.4171 370.105L87.6998 369.822L87.9807 369.541L88.2597 369.262L88.537 368.985L88.8124 368.709L89.0861 368.436L89.3579 368.164L89.6279 367.894L89.8962 367.626L90.1626 367.359L90.4272 367.095L90.69 366.832L90.951 366.571L91.2102 366.312L91.4676 366.054L91.7232 365.799L91.9769 365.545L92.2289 365.293L92.4791 365.043L92.7274 364.794L92.974 364.548L93.2187 364.303L93.4617 364.06L93.7028 363.819L93.9421 363.58L94.1796 363.342L94.4153 363.106L94.6493 362.872L94.8814 362.64L94.8814 362.64L95.1053 362.409L95.3149 362.178L95.5099 361.947L95.6905 361.716L95.8567 361.484L96.0084 361.253L96.1457 361.022L96.2685 360.791L96.3769 360.56L96.4708 360.328L96.5503 360.097L96.6153 359.866L96.6659 359.635L96.702 359.404L96.7237 359.172L96.7309 358.941L96.7237 358.71L96.702 358.479L96.6659 358.248L96.6153 358.016L96.5503 357.785L96.4708 357.554L96.3769 357.323L96.2685 357.092L96.1457 356.86L96.0084 356.629L95.8567 356.398L95.6905 356.167L95.5099 355.936L95.3149 355.704L95.1053 355.473L94.8814 355.242L94.8814 355.242L94.6493 355.01L94.4153 354.776L94.1796 354.54L93.9421 354.303L93.7028 354.063L93.4617 353.822L93.2187 353.579L92.974 353.335L92.7274 353.088L92.4791 352.84L92.2289 352.59L91.9769 352.338L91.7232 352.084L91.4676 351.828L91.2102 351.571L90.951 351.312L90.69 351.051L90.4272 350.788L90.1626 350.523L89.8962 350.257L89.6279 349.989L89.3579 349.719L89.0861 349.447L88.8124 349.173L88.537 348.898L88.2597 348.62L87.9807 348.341L87.6998 348.06L87.4171 347.778L87.1326 347.493L86.8464 347.207L86.5583 346.919L86.5583 346.919L86.2711 346.632L85.9875 346.348L85.7075 346.068L85.4312 345.792L85.1584 345.519L84.8893 345.25L84.6238 344.984L84.3619 344.723L84.1036 344.464L83.8489 344.21L83.5979 343.959L83.3504 343.711L83.1066 343.467L82.8663 343.227L82.6297 342.99L82.3967 342.757L82.1673 342.528L81.9415 342.302L81.7194 342.08L81.5008 341.862L81.2859 341.647L81.0746 341.435L80.8668 341.228L80.6627 341.023L80.4622 340.823L80.2654 340.626L80.0721 340.433L79.8824 340.243L79.6964 340.057L79.514 339.875L79.3352 339.696L79.16 339.521L79.16 339.521L78.992 339.35L78.8348 339.185L78.6885 339.025L78.5531 338.87L78.4284 338.721L78.3146 338.578L78.2117 338.44L78.1196 338.307L78.0383 338.18L77.9678 338.058L77.9082 337.941L77.8595 337.83L77.8215 337.724L77.7945 337.624L77.7782 337.529L77.7728 337.44L77.7782 337.356L77.7945 337.277L77.8215 337.204L77.8595 337.136L77.9082 337.074L77.9678 337.017L78.0383 336.966L78.1196 336.92L78.2117 336.879L78.3146 336.844L78.4284 336.814L78.5531 336.79L78.6885 336.771L78.8348 336.757L78.992 336.749L79.16 336.746L79.16 336.746L79.3334 336.746L79.5068 336.746L79.6802 336.746L79.8535 336.746L80.0269 336.746L80.2003 336.746L80.3737 336.746L80.5471 336.746L80.7205 336.746L80.8939 336.746L81.0673 336.746L81.2407 336.746L81.4141 336.746L81.5875 336.746L81.7609 336.746L81.9343 336.746L82.1077 336.746L82.2811 336.746L82.4545 336.746L82.6279 336.746L82.8013 336.746L82.9747 336.746L83.1481 336.746L83.3215 336.746L83.4949 336.746L83.6683 336.746L83.8417 336.746L84.0151 336.746L84.1885 336.746L84.3619 336.746L84.5353 336.746L84.7087 336.746L84.7087 336.746L84.8812 336.746L85.0519 336.746L85.2208 336.746L85.3878 336.746L85.5531 336.746L85.7166 336.746L85.8782 336.746L86.0381 336.746L86.1961 336.746L86.3524 336.746L86.5068 336.746L86.6594 336.746L86.8102 336.746L86.9592 336.746L87.1065 336.746L87.2519 336.746L87.3954 336.746L87.5372 336.746L87.6772 336.746L87.8154 336.746L87.9518 336.746L88.0863 336.746L88.2191 336.746L88.35 336.746L88.4792 336.746L88.6065 336.746L88.7321 336.746L88.8558 336.746L88.9777 336.746L89.0978 336.746L89.2161 336.746L89.3326 336.746L89.3326 336.746L89.4482 336.748L89.5638 336.754L89.6794 336.763L89.795 336.775L89.9106 336.791L90.0262 336.811L90.1418 336.835L90.2574 336.862L90.373 336.893L90.4886 336.927L90.6042 336.965L90.7198 337.006L90.8354 337.052L90.951 337.1L91.0666 337.153L91.1822 337.209L91.2978 337.268L91.4134 337.332L91.529 337.398L91.6446 337.469L91.7602 337.543L91.8758 337.621L91.9914 337.702L92.107 337.787L92.2226 337.875L92.3382 337.967L92.4538 338.063L92.5694 338.162L92.685 338.265L92.8006 338.372L92.9162 338.482L93.0318 338.596L93.0318 338.596L93.1474 338.711L93.263 338.827L93.3786 338.943L93.4942 339.058L93.6098 339.174L93.7254 339.289L93.841 339.405L93.9566 339.521L94.0722 339.636L94.1878 339.752L94.3034 339.867L94.419 339.983L94.5346 340.099L94.6502 340.214L94.7658 340.33L94.8814 340.445L94.997 340.561L95.1126 340.677L95.2282 340.792L95.3438 340.908L95.4593 341.023L95.5749 341.139L95.6905 341.255L95.8061 341.37L95.9217 341.486L96.0373 341.601L96.1529 341.717L96.2685 341.833L96.3841 341.948L96.4997 342.064L96.6153 342.179L96.7309 342.295L96.7309 342.295L96.8483 342.412L96.9694 342.533L97.094 342.658L97.2222 342.786L97.3541 342.918L97.4895 343.054L97.6286 343.193L97.7713 343.335L97.9176 343.482L98.0675 343.632L98.2211 343.785L98.3782 343.942L98.539 344.103L98.7033 344.267L98.8713 344.435L99.0429 344.607L99.2181 344.782L99.3969 344.961L99.5794 345.143L99.7654 345.329L99.955 345.519L100.148 345.712L100.345 345.909L100.546 346.11L100.75 346.314L100.958 346.522L101.169 346.733L101.384 346.948L101.602 347.166L101.824 347.389L102.05 347.614L102.28 347.844L102.28 347.844L102.511 348.068L102.742 348.277L102.973 348.472L103.204 348.653L103.436 348.819L103.667 348.971L103.898 349.108L104.129 349.231L104.36 349.339L104.592 349.433L104.823 349.513L105.054 349.578L105.285 349.628L105.516 349.664L105.748 349.686L105.979 349.693L106.21 349.686L106.441 349.664L106.672 349.628L106.904 349.578L107.135 349.513L107.366 349.433L107.597 349.339L107.828 349.231L108.06 349.108L108.291 348.971L108.522 348.819L108.753 348.653L108.984 348.472L109.216 348.277L109.447 348.068L109.678 347.844L109.678 347.844L109.907 347.614L110.133 347.389L110.355 347.166L110.574 346.948L110.789 346.733L111 346.522L111.208 346.314L111.412 346.11L111.612 345.909L111.809 345.712L112.003 345.519L112.192 345.329L112.378 345.143L112.561 344.961L112.74 344.782L112.915 344.607L113.086 344.435L113.254 344.267L113.419 344.103L113.579 343.942L113.737 343.785L113.89 343.632L114.04 343.482L114.186 343.335L114.329 343.193L114.468 343.054L114.604 342.918L114.735 342.786L114.864 342.658L114.988 342.533L115.109 342.412L115.227 342.295L115.227 342.295L115.342 342.179L115.458 342.064L115.573 341.948L115.689 341.833L115.805 341.717L115.92 341.601L116.036 341.486L116.151 341.37L116.267 341.255L116.383 341.139L116.498 341.023L116.614 340.908L116.729 340.792L116.845 340.677L116.961 340.561L117.076 340.445L117.192 340.33L117.307 340.214L117.423 340.099L117.539 339.983L117.654 339.867L117.77 339.752L117.885 339.636L118.001 339.521L118.117 339.405L118.232 339.289L118.348 339.174L118.463 339.058L118.579 338.943L118.695 338.827L118.81 338.711L118.926 338.596L118.926 338.596L119.041 338.482L119.157 338.372L119.273 338.265L119.388 338.162L119.504 338.063L119.619 337.967L119.735 337.875L119.851 337.787L119.966 337.702L120.082 337.621L120.197 337.543L120.313 337.469L120.429 337.398L120.544 337.332L120.66 337.268L120.775 337.209L120.891 337.153L121.007 337.1L121.122 337.052L121.238 337.006L121.353 336.965L121.469 336.927L121.585 336.893L121.7 336.862L121.816 336.835L121.931 336.811L122.047 336.791L122.163 336.775L122.278 336.763L122.394 336.754L122.509 336.748L122.625 336.746L122.625 336.746L122.742 336.746L122.86 336.746L122.98 336.746L123.102 336.746L123.226 336.746L123.351 336.746L123.478 336.746L123.608 336.746L123.739 336.746L123.871 336.746L124.006 336.746L124.142 336.746L124.28 336.746L124.42 336.746L124.562 336.746L124.706 336.746L124.851 336.746L124.998 336.746L125.147 336.746L125.298 336.746L125.451 336.746L125.605 336.746L125.762 336.746L125.92 336.746L126.079 336.746L126.241 336.746L126.405 336.746L126.57 336.746L126.737 336.746L126.906 336.746L127.076 336.746L127.249 336.746L127.249 336.746L127.422 336.746L127.596 336.746L127.769 336.746L127.943 336.746L128.116 336.746L128.289 336.746L128.463 336.746L128.636 336.746L128.81 336.746L128.983 336.746L129.156 336.746L129.33 336.746L129.503 336.746L129.677 336.746L129.85 336.746L130.023 336.746L130.197 336.746L130.37 336.746L130.543 336.746L130.717 336.746L130.89 336.746L131.064 336.746L131.237 336.746L131.41 336.746L131.584 336.746L131.757 336.746L131.931 336.746L132.104 336.746L132.277 336.746L132.451 336.746L132.624 336.746L132.798 336.746L132.798 336.746L132.966 336.749L133.123 336.757L133.269 336.771L133.405 336.79L133.529 336.814L133.643 336.844L133.746 336.879L133.838 336.92L133.919 336.966L133.99 337.017L134.049 337.074L134.098 337.136L134.136 337.204L134.163 337.277L134.179 337.356L134.185 337.44L134.179 337.529L134.163 337.624L134.136 337.724L134.098 337.83L134.049 337.941L133.99 338.058L133.919 338.18L133.838 338.307L133.746 338.44L133.643 338.578L133.529 338.721L133.405 338.87L133.269 339.025L133.123 339.185L132.966 339.35L132.798 339.521L132.798 339.521L132.622 339.697L132.44 339.878L132.253 340.065L132.061 340.258L131.863 340.455L131.66 340.659L131.451 340.867L131.237 341.081L131.018 341.301L130.793 341.526L130.562 341.756L130.327 341.992L130.086 342.233L129.839 342.479L129.587 342.731L129.33 342.989L129.067 343.251L128.799 343.52L128.525 343.793L128.246 344.072L127.961 344.357L127.672 344.647L127.376 344.942L127.076 345.243L126.769 345.549L126.458 345.861L126.141 346.178L125.818 346.5L125.491 346.828L125.157 347.161L124.819 347.5L124.475 347.844"/>
<path class="l5" d="M144.358 159.187L146.669 159.187"/>
<path class="l5" d="M136.497 162.886L133.722 159.187L136.497 155.488L141.583 155.488L144.358 159.187L141.583 162.886L136.497 162.886"/>
<path class="l5" d="M145.745 158.262L147.594 158.262L147.594 160.112L145.745 160.112L145.745 158.262z"/>
<path class="l5" d="M144.358 262.763L146.669 262.763"/>
<path class="l5" d="M136.497 266.462L133.722 262.763L136.497 259.064L141.583 259.064L144.358 262.763L141.583 266.462L136.497 266.462"/>
<path class="l5" d="M145.745 261.838L147.594 261.838L147.594 263.688L145.745 263.688L145.745 261.838z"/>
<path class="l5" d="M241.923 158.262L243.772 158.262L243.772 160.112L241.923 160.112L241.923 158.262z"/>
<path class="l5" d="M241.923 261.838L243.772 261.838L243.772 263.688L241.923 263.688L241.923 261.838z"/>
<path class="l5" d="M248.396 231.32L252.095 231.32L252.095 235.02L248.396 235.02L248.396 231.32z"/>
<path class="l5" d="M248.396 186.931L252.095 186.931L252.095 190.63L248.396 190.63L248.396 186.931z"/>
<path class="l6" d="M298.335 358.941L886.5 358.941"/>
<path class="l6" d="M13.5 358.941L61.589 358.941"/>
<path class="l1" d="M250.246 159.187L250.246 188.78"/>
<path class="l1" d="M250.246 233.17L250.246 262.763"/>
<path class="l1" d="M191.059 262.763L250.246 262.763"/>
<path class="l1" d="M191.059 159.187L250.246 159.187"/>
<path class="l1" d="M146.669 262.763L176.263 262.763"/>
<path class="l1" d="M146.669 159.187L176.263 159.187"/>
</svg>
