<svg xmlns="http://www.w3.org/2000/svg" xmlns:xlink="http://www.w3.org/1999/xlink" width="1066" height="666" version="1.1">
<style type="text/css">
.l0{
  fill: #ffffff;
  stroke: #ffffff;
  stroke-linecap:round;
  stroke-linejoin:round;
  stroke-width: 1.18299;
}
.l1{
  fill: #0099cc;
  stroke: #0099cc;
  stroke-linecap:round;
  stroke-linejoin:round;
  stroke-width: 1.18299;
}
.l2{
  fill: #aaaaaa; fill-opacity: 0.2;
  stroke: #aaaaaa;
  stroke-linecap:round;
  stroke-linejoin:round;
  stroke-width: 1.18299;
}
.l3{
  fill: #222222; fill-opacity: 0.5;
  stroke: #222222;
  stroke-linecap:round;
  stroke-linejoin:round;
  stroke-width: 1.18299;
}
.l4{
  fill: #229900;
  stroke: #229900;
  stroke-linecap:round;
  stroke-linejoin:round;
  stroke-width: 1.18299;
}
.l5{
  fill: #bb2200;
  stroke: #bb2200;
  stroke-linecap:round;
  stroke-linejoin:round;
  stroke-width: 1.18299;
}
.l6{
  fill: #0066cc; fill-opacity: 0.5;
  stroke: #0066cc;
  stroke-linecap:round;
  stroke-linejoin:round;
  stroke-width: 1.18299;
}
.l7{
  fill: #ff0000; fill-opacity: 0.5;
  stroke: #ff0000;
  stroke-linecap:round;
  stroke-linejoin:round;
  stroke-width: 1.18299;
}
.l8{
  fill: #888800; fill-opacity: 0.5;
  stroke: #888800;
  stroke-linecap:round;
  stroke-linejoin:round;
  stroke-width: 1.18299;
}
.l9{
  fill: #00aaaa; fill-opacity: 0.5;
  stroke: #00aaaa;
  stroke-linecap:round;
  stroke-linejoin:round;
  stroke-width: 1.18299;
}
.l10{
  fill: #880088;
  stroke: #880088;
  stroke-linecap:round;
  stroke-linejoin:round;
  stroke-width: 1.18299;
}
.l11{
  fill: #00ff00; fill-opacity: 0.5;
  stroke: #00ff00;
  stroke-linecap:round;
  stroke-linejoin:round;
  stroke-width: 1.18299;
}
.l12{
  fill: #0000cc; fill-opacity: 0.5;
  stroke: #0000cc;
  stroke-linecap:round;
  stroke-linejoin:round;
  stroke-width: 1.18299;
}
.l13{
  fill: #666600; fill-opacity: 0.5;
  stroke: #666600;
  stroke-linecap:round;
  stroke-linejoin:round;
  stroke-width: 1.18299;
}
.l14{
  fill: #557755; fill-opacity: 0.2;
  stroke: #557755;
  stroke-linecap:round;
  stroke-linejoin:round;
  stroke-width: 1.18299;
}
.l15{
  fill: #aa2222; fill-opacity: 0.5;
  stroke: #aa2222;
  stroke-linecap:round;
  stroke-linejoin:round;
  stroke-width: 1.18299;
}
.l16{
  fill: #7ccc40; fill-opacity: 0.5;
  stroke: #7ccc40;
  stroke-linecap:round;
  stroke-linejoin:round;
  stroke-width: 1.18299;
}
.l17{
  fill: #00ffcc; fill-opacity: 0.2;
  stroke: #00ffcc;
  stroke-linecap:round;
  stroke-linejoin:round;
  stroke-width: 1.18299;
}
.l18{
  fill: #ce0097; fill-opacity: 0.5;
  stroke: #ce0097;
  stroke-linecap:round;
  stroke-linejoin:round;
  stroke-width: 1.18299;
}
.l19{
  fill: #d2d46b; fill-opacity: 0.2;
  stroke: #d2d46b;
  stroke-linecap:round;
  stroke-linejoin:round;
  stroke-width: 1.18299;
}
.l20{
  fill: #ef6158; fill-opacity: 0.2;
  stroke: #ef6158;
  stroke-linecap:round;
  stroke-linejoin:round;
  stroke-width: 1.18299;
}
.l21{
  fill: #fdb200; fill-opacity: 0.2;
  stroke: #fdb200;
  stroke-linecap:round;
  stroke-linejoin:round;
  stroke-width: 1.18299;
}
text {font-family: Sans-Serif;}
</style>
<rect class="l0" x="0" y="0" width="1066" height="666"/>
<path class="l4" d="M419.083 367.044L419.083 375.807"/>
<path class="l4" d="M419.083 367.044L425.655 364.853"/>
<path class="l4" d="M412.51 360.472L425.655 364.853"/>
<path class="l4" d="M412.51 360.472L425.655 356.09"/>
<path class="l4" d="M412.51 351.709L425.655 356.09"/>
<path class="l4" d="M412.51 351.709L425.655 347.327"/>
<path class="l4" d="M412.51 342.946L425.655 347.327"/>
<path class="l4" d="M412.51 342.946L425.655 338.564"/>
<path class="l4" d="M412.51 334.183L425.655 338.564"/>
<path class="l4" d="M412.51 334.183L419.083 331.992"/>
<path class="l4" d="M419.083 323.229L419.083 331.992"/>
<path class="l4" d="M243.825 288.178L252.588 288.178"/>
<path class="l4" d="M252.588 288.178L254.779 294.75"/>
<path class="l4" d="M254.779 294.75L259.16 281.606"/>
<path class="l4" d="M259.16 281.606L263.541 294.75"/>
<path class="l4" d="M263.541 294.75L267.923 281.606"/>
<path class="l4" d="M267.923 281.606L272.304 294.75"/>
<path class="l4" d="M272.304 294.75L276.686 281.606"/>
<path class="l4" d="M276.686 281.606L281.067 294.75"/>
<path class="l4" d="M281.067 294.75L285.449 281.606"/>
<path class="l4" d="M285.449 281.606L287.639 288.178"/>
<path class="l4" d="M287.639 288.178L296.402 288.178"/>
<path class="l4" d="M243.825 147.972L252.588 147.972"/>
<path class="l4" d="M252.588 147.972L254.779 154.544"/>
<path class="l4" d="M254.779 154.544L259.16 141.4"/>
<path class="l4" d="M259.16 141.4L263.541 154.544"/>
<path class="l4" d="M263.541 154.544L267.923 141.4"/>
<path class="l4" d="M267.923 141.4L272.304 154.544"/>
<path class="l4" d="M272.304 154.544L276.686 141.4"/>
<path class="l4" d="M276.686 141.4L281.067 154.544"/>
<path class="l4" d="M281.067 154.544L285.449 141.4"/>
<path class="l4" d="M285.449 141.4L287.639 147.972"/>
<path class="l4" d="M287.639 147.972L296.402 147.972"/>
<path class="l4" d="M208.773 463.435L212.059 463.435"/>
<path class="l5" d="M147.433 511.631L147.159 511.905L146.886 512.179L146.612 512.453L146.338 512.727L146.064 513.001L145.79 513.274L145.516 513.548L145.242 513.822L144.969 514.096L144.695 514.37L144.421 514.644L144.147 514.917L143.873 515.191L143.599 515.465L143.326 515.739L143.052 516.013L142.778 516.287L142.504 516.56L142.23 516.834L141.956 517.108L141.683 517.382L141.409 517.656L141.135 517.93L140.861 518.203L140.587 518.477L140.313 518.751L140.04 519.025L139.766 519.299L139.492 519.573L139.218 519.847L138.944 520.12L138.67 520.394L138.67 520.394L138.405 520.668L138.157 520.942L137.926 521.216L137.712 521.49L137.515 521.763L137.335 522.037L137.173 522.311L137.027 522.585L136.899 522.859L136.788 523.133L136.694 523.406L136.617 523.68L136.557 523.954L136.514 524.228L136.488 524.502L136.48 524.776L136.488 525.049L136.514 525.323L136.557 525.597L136.617 525.871L136.694 526.145L136.788 526.419L136.899 526.693L137.027 526.966L137.173 527.24L137.335 527.514L137.515 527.788L137.712 528.062L137.926 528.336L138.157 528.609L138.405 528.883L138.67 529.157L138.67 529.157L138.945 529.432L139.222 529.709L139.501 529.988L139.783 530.27L140.066 530.553L140.352 530.839L140.64 531.126L140.93 531.416L141.222 531.708L141.516 532.002L141.812 532.299L142.11 532.597L142.411 532.898L142.714 533.201L143.019 533.505L143.326 533.812L143.635 534.122L143.946 534.433L144.259 534.746L144.575 535.062L144.893 535.379L145.213 535.699L145.535 536.021L145.859 536.345L146.185 536.672L146.513 537L146.844 537.331L147.176 537.663L147.511 537.998L147.848 538.335L148.187 538.674L148.529 539.015L148.529 539.015L148.869 539.356L149.205 539.691L149.536 540.023L149.864 540.35L150.187 540.673L150.505 540.992L150.82 541.307L151.13 541.617L151.436 541.923L151.738 542.224L152.035 542.522L152.328 542.815L152.617 543.104L152.901 543.388L153.182 543.668L153.458 543.944L153.729 544.216L153.997 544.484L154.26 544.747L154.519 545.006L154.773 545.26L155.024 545.51L155.27 545.757L155.512 545.998L155.749 546.236L155.982 546.469L156.211 546.698L156.436 546.922L156.656 547.143L156.872 547.359L157.084 547.571L157.291 547.778L157.291 547.778L157.49 547.98L157.677 548.176L157.85 548.365L158.01 548.548L158.158 548.725L158.293 548.895L158.415 549.059L158.524 549.216L158.62 549.367L158.703 549.511L158.774 549.649L158.832 549.781L158.877 549.906L158.909 550.025L158.928 550.137L158.935 550.243L158.928 550.342L158.909 550.435L158.877 550.522L158.832 550.602L158.774 550.676L158.703 550.743L158.62 550.804L158.524 550.859L158.415 550.907L158.293 550.949L158.158 550.984L158.01 551.013L157.85 551.035L157.677 551.051L157.49 551.061L157.291 551.064L157.291 551.064L157.086 551.064L156.881 551.064L156.675 551.064L156.47 551.064L156.265 551.064L156.059 551.064L155.854 551.064L155.648 551.064L155.443 551.064L155.238 551.064L155.032 551.064L154.827 551.064L154.622 551.064L154.416 551.064L154.211 551.064L154.005 551.064L153.8 551.064L153.595 551.064L153.389 551.064L153.184 551.064L152.978 551.064L152.773 551.064L152.568 551.064L152.362 551.064L152.157 551.064L151.952 551.064L151.746 551.064L151.541 551.064L151.335 551.064L151.13 551.064L150.925 551.064L150.719 551.064L150.719 551.064L150.515 551.064L150.313 551.064L150.113 551.064L149.915 551.064L149.719 551.064L149.526 551.064L149.334 551.064L149.145 551.064L148.958 551.064L148.772 551.064L148.59 551.064L148.409 551.064L148.23 551.064L148.054 551.064L147.879 551.064L147.707 551.064L147.537 551.064L147.369 551.064L147.203 551.064L147.04 551.064L146.878 551.064L146.719 551.064L146.561 551.064L146.406 551.064L146.253 551.064L146.103 551.064L145.954 551.064L145.807 551.064L145.663 551.064L145.521 551.064L145.38 551.064L145.242 551.064L145.242 551.064L145.106 551.062L144.969 551.056L144.832 551.045L144.695 551.03L144.558 551.011L144.421 550.987L144.284 550.959L144.147 550.927L144.01 550.891L143.873 550.85L143.736 550.805L143.599 550.756L143.463 550.703L143.326 550.645L143.189 550.583L143.052 550.517L142.915 550.446L142.778 550.371L142.641 550.292L142.504 550.209L142.367 550.121L142.23 550.029L142.093 549.933L141.956 549.832L141.819 549.727L141.683 549.618L141.546 549.505L141.409 549.387L141.272 549.265L141.135 549.139L140.998 549.008L140.861 548.874L140.861 548.874L140.724 548.737L140.587 548.6L140.45 548.463L140.313 548.326L140.176 548.189L140.04 548.052L139.903 547.915L139.766 547.778L139.629 547.641L139.492 547.504L139.355 547.367L139.218 547.231L139.081 547.094L138.944 546.957L138.807 546.82L138.67 546.683L138.533 546.546L138.396 546.409L138.26 546.272L138.123 546.135L137.986 545.998L137.849 545.861L137.712 545.724L137.575 545.588L137.438 545.451L137.301 545.314L137.164 545.177L137.027 545.04L136.89 544.903L136.753 544.766L136.617 544.629L136.48 544.492L136.48 544.492L136.341 544.353L136.197 544.21L136.05 544.062L135.898 543.91L135.742 543.754L135.581 543.594L135.416 543.429L135.247 543.26L135.074 543.087L134.896 542.909L134.715 542.727L134.529 542.541L134.338 542.351L134.143 542.156L133.944 541.957L133.741 541.754L133.534 541.546L133.322 541.334L133.106 541.118L132.885 540.898L132.661 540.673L132.432 540.444L132.199 540.211L131.961 539.974L131.72 539.732L131.473 539.486L131.223 539.236L130.969 538.981L130.71 538.722L130.447 538.459L130.179 538.192L129.907 537.92L129.907 537.92L129.634 537.655L129.36 537.407L129.086 537.175L128.812 536.962L128.538 536.765L128.264 536.585L127.991 536.422L127.717 536.277L127.443 536.149L127.169 536.037L126.895 535.943L126.621 535.866L126.348 535.806L126.074 535.763L125.8 535.738L125.526 535.729L125.252 535.738L124.978 535.763L124.704 535.806L124.431 535.866L124.157 535.943L123.883 536.037L123.609 536.149L123.335 536.277L123.061 536.422L122.788 536.585L122.514 536.765L122.24 536.962L121.966 537.175L121.692 537.407L121.418 537.655L121.145 537.92L121.145 537.92L120.873 538.192L120.605 538.459L120.342 538.722L120.083 538.981L119.829 539.236L119.579 539.486L119.333 539.732L119.091 539.974L118.853 540.211L118.62 540.444L118.391 540.673L118.167 540.898L117.946 541.118L117.73 541.334L117.518 541.546L117.311 541.754L117.108 541.957L116.909 542.156L116.714 542.351L116.524 542.541L116.337 542.727L116.156 542.909L115.978 543.087L115.805 543.26L115.636 543.429L115.471 543.594L115.31 543.754L115.154 543.91L115.002 544.062L114.855 544.21L114.711 544.353L114.572 544.492L114.572 544.492L114.435 544.629L114.299 544.766L114.162 544.903L114.025 545.04L113.888 545.177L113.751 545.314L113.614 545.451L113.477 545.588L113.34 545.724L113.203 545.861L113.066 545.998L112.929 546.135L112.792 546.272L112.656 546.409L112.519 546.546L112.382 546.683L112.245 546.82L112.108 546.957L111.971 547.094L111.834 547.231L111.697 547.367L111.56 547.504L111.423 547.641L111.286 547.778L111.149 547.915L111.012 548.052L110.876 548.189L110.739 548.326L110.602 548.463L110.465 548.6L110.328 548.737L110.191 548.874L110.191 548.874L110.054 549.008L109.917 549.139L109.78 549.265L109.643 549.387L109.506 549.505L109.369 549.618L109.233 549.727L109.096 549.832L108.959 549.933L108.822 550.029L108.685 550.121L108.548 550.209L108.411 550.292L108.274 550.371L108.137 550.446L108 550.517L107.863 550.583L107.726 550.645L107.589 550.703L107.453 550.756L107.316 550.805L107.179 550.85L107.042 550.891L106.905 550.927L106.768 550.959L106.631 550.987L106.494 551.011L106.357 551.03L106.22 551.045L106.083 551.056L105.946 551.062L105.81 551.064L105.81 551.064L105.672 551.064L105.531 551.064L105.389 551.064L105.245 551.064L105.098 551.064L104.95 551.064L104.799 551.064L104.646 551.064L104.491 551.064L104.333 551.064L104.174 551.064L104.012 551.064L103.849 551.064L103.683 551.064L103.515 551.064L103.345 551.064L103.173 551.064L102.998 551.064L102.822 551.064L102.643 551.064L102.462 551.064L102.28 551.064L102.095 551.064L101.907 551.064L101.718 551.064L101.527 551.064L101.333 551.064L101.137 551.064L100.939 551.064L100.739 551.064L100.537 551.064L100.333 551.064L100.333 551.064L100.127 551.064L99.922 551.064L99.7166 551.064L99.5112 551.064L99.3058 551.064L99.1005 551.064L98.8951 551.064L98.6897 551.064L98.4843 551.064L98.2789 551.064L98.0736 551.064L97.8682 551.064L97.6628 551.064L97.4574 551.064L97.252 551.064L97.0467 551.064L96.8413 551.064L96.6359 551.064L96.4305 551.064L96.2251 551.064L96.0198 551.064L95.8144 551.064L95.609 551.064L95.4036 551.064L95.1982 551.064L94.9929 551.064L94.7875 551.064L94.5821 551.064L94.3767 551.064L94.1713 551.064L93.966 551.064L93.7606 551.064L93.7606 551.064L93.5616 551.061L93.3755 551.051L93.2022 551.035L93.0417 551.013L92.8941 550.984L92.7593 550.949L92.6374 550.907L92.5283 550.859L92.432 550.804L92.3486 550.743L92.278 550.676L92.2202 550.602L92.1753 550.522L92.1432 550.435L92.1239 550.342L92.1175 550.243L92.1239 550.137L92.1432 550.025L92.1753 549.906L92.2202 549.781L92.278 549.649L92.3486 549.511L92.432 549.367L92.5283 549.216L92.6374 549.059L92.7593 548.895L92.8941 548.725L93.0417 548.548L93.2022 548.365L93.3755 548.176L93.5616 547.98L93.7606 547.778L93.7606 547.778L93.9681 547.571L94.1799 547.359L94.396 547.143L94.6163 546.922L94.841 546.698L95.0699 546.469L95.3031 546.236L95.5405 545.998L95.7823 545.757L96.0283 545.51L96.2786 545.26L96.5332 545.006L96.7921 544.747L97.0552 544.484L97.3226 544.216L97.5943 543.944L97.8703 543.668L98.1506 543.388L98.4351 543.104L98.7239 542.815L99.017 542.522L99.3144 542.224L99.616 541.923L99.922 541.617L100.232 541.307L100.547 540.992L100.865 540.673L101.188 540.35L101.516 540.023L101.847 539.691L102.183 539.356L102.523 539.015L102.523 539.015L102.865 538.674L103.204 538.335L103.541 537.998L103.876 537.663L104.208 537.331L104.539 537L104.867 536.672L105.193 536.345L105.518 536.021L105.839 535.699L106.159 535.379L106.477 535.062L106.793 534.746L107.106 534.433L107.417 534.122L107.726 533.812L108.033 533.505L108.338 533.201L108.641 532.898L108.942 532.597L109.24 532.299L109.536 532.002L109.83 531.708L110.123 531.416L110.412 531.126L110.7 530.839L110.986 530.553L111.269 530.27L111.551 529.988L111.83 529.709L112.107 529.432L112.382 529.157L112.382 529.157L112.647 528.883L112.895 528.609L113.126 528.336L113.34 528.062L113.537 527.788L113.717 527.514L113.879 527.24L114.025 526.966L114.153 526.693L114.264 526.419L114.358 526.145L114.435 525.871L114.495 525.597L114.538 525.323L114.564 525.049L114.572 524.776L114.564 524.502L114.538 524.228L114.495 523.954L114.435 523.68L114.358 523.406L114.264 523.133L114.153 522.859L114.025 522.585L113.879 522.311L113.717 522.037L113.537 521.763L113.34 521.49L113.126 521.216L112.895 520.942L112.647 520.668L112.382 520.394L112.382 520.394L112.107 520.119L111.83 519.842L111.551 519.563L111.269 519.282L110.986 518.998L110.7 518.713L110.412 518.425L110.123 518.135L109.83 517.843L109.536 517.549L109.24 517.253L108.942 516.954L108.641 516.654L108.338 516.351L108.033 516.046L107.726 515.739L107.417 515.43L107.106 515.119L106.793 514.805L106.477 514.49L106.159 514.172L105.839 513.852L105.518 513.53L105.193 513.206L104.867 512.88L104.539 512.551L104.208 512.221L103.876 511.888L103.541 511.553L103.204 511.216L102.865 510.877L102.523 510.536L102.523 510.536L102.183 510.196L101.847 509.86L101.516 509.528L101.188 509.201L100.865 508.878L100.547 508.559L100.232 508.245L99.922 507.934L99.616 507.629L99.3144 507.327L99.017 507.03L98.7239 506.736L98.4351 506.448L98.1506 506.163L97.8703 505.883L97.5943 505.607L97.3226 505.335L97.0552 505.068L96.7921 504.805L96.5332 504.546L96.2786 504.291L96.0283 504.041L95.7823 503.795L95.5405 503.553L95.3031 503.316L95.0699 503.082L94.841 502.853L94.6163 502.629L94.396 502.408L94.1799 502.192L93.9681 501.981L93.7606 501.773L93.7606 501.773L93.5616 501.571L93.3755 501.375L93.2022 501.186L93.0417 501.003L92.8941 500.826L92.7593 500.656L92.6374 500.493L92.5283 500.335L92.432 500.185L92.3486 500.04L92.278 499.902L92.2202 499.771L92.1753 499.645L92.1432 499.527L92.1239 499.414L92.1175 499.309L92.1239 499.209L92.1432 499.116L92.1753 499.029L92.2202 498.949L92.278 498.875L92.3486 498.808L92.432 498.747L92.5283 498.692L92.6374 498.644L92.7593 498.603L92.8941 498.567L93.0417 498.538L93.2022 498.516L93.3755 498.5L93.5616 498.49L93.7606 498.487L93.7606 498.487L93.966 498.487L94.1713 498.487L94.3767 498.487L94.5821 498.487L94.7875 498.487L94.9929 498.487L95.1982 498.487L95.4036 498.487L95.609 498.487L95.8144 498.487L96.0198 498.487L96.2251 498.487L96.4305 498.487L96.6359 498.487L96.8413 498.487L97.0467 498.487L97.252 498.487L97.4574 498.487L97.6628 498.487L97.8682 498.487L98.0736 498.487L98.2789 498.487L98.4843 498.487L98.6897 498.487L98.8951 498.487L99.1005 498.487L99.3058 498.487L99.5112 498.487L99.7166 498.487L99.922 498.487L100.127 498.487L100.333 498.487L100.333 498.487L100.537 498.487L100.739 498.487L100.939 498.487L101.137 498.487L101.333 498.487L101.527 498.487L101.718 498.487L101.907 498.487L102.095 498.487L102.28 498.487L102.462 498.487L102.643 498.487L102.822 498.487L102.998 498.487L103.173 498.487L103.345 498.487L103.515 498.487L103.683 498.487L103.849 498.487L104.012 498.487L104.174 498.487L104.333 498.487L104.491 498.487L104.646 498.487L104.799 498.487L104.95 498.487L105.098 498.487L105.245 498.487L105.389 498.487L105.531 498.487L105.672 498.487L105.81 498.487L105.81 498.487L105.946 498.489L106.083 498.496L106.22 498.506L106.357 498.521L106.494 498.54L106.631 498.564L106.768 498.592L106.905 498.624L107.042 498.66L107.179 498.701L107.316 498.746L107.453 498.795L107.589 498.849L107.726 498.906L107.863 498.968L108 499.035L108.137 499.105L108.274 499.18L108.411 499.259L108.548 499.343L108.685 499.43L108.822 499.522L108.959 499.619L109.096 499.719L109.233 499.824L109.369 499.933L109.506 500.047L109.643 500.164L109.78 500.286L109.917 500.412L110.054 500.543L110.191 500.678L110.191 500.678L110.328 500.815L110.465 500.952L110.602 501.088L110.739 501.225L110.876 501.362L111.012 501.499L111.149 501.636L111.286 501.773L111.423 501.91L111.56 502.047L111.697 502.184L111.834 502.321L111.971 502.458L112.108 502.595L112.245 502.732L112.382 502.868L112.519 503.005L112.656 503.142L112.792 503.279L112.929 503.416L113.066 503.553L113.203 503.69L113.34 503.827L113.477 503.964L113.614 504.101L113.751 504.238L113.888 504.375L114.025 504.511L114.162 504.648L114.299 504.785L114.435 504.922L114.572 505.059L114.572 505.059L114.711 505.198L114.855 505.342L115.002 505.489L115.154 505.641L115.31 505.797L115.471 505.958L115.636 506.122L115.805 506.291L115.978 506.465L116.156 506.642L116.337 506.824L116.524 507.01L116.714 507.201L116.909 507.395L117.108 507.594L117.311 507.798L117.518 508.005L117.73 508.217L117.946 508.433L118.167 508.653L118.391 508.878L118.62 509.107L118.853 509.34L119.091 509.578L119.333 509.819L119.579 510.065L119.829 510.316L120.083 510.57L120.342 510.829L120.605 511.092L120.873 511.36L121.145 511.631L121.145 511.631L121.418 511.897L121.692 512.145L121.966 512.376L122.24 512.59L122.514 512.787L122.788 512.966L123.061 513.129L123.335 513.274L123.609 513.403L123.883 513.514L124.157 513.608L124.431 513.685L124.704 513.745L124.978 513.788L125.252 513.813L125.526 513.822L125.8 513.813L126.074 513.788L126.348 513.745L126.621 513.685L126.895 513.608L127.169 513.514L127.443 513.403L127.717 513.274L127.991 513.129L128.264 512.966L128.538 512.787L128.812 512.59L129.086 512.376L129.36 512.145L129.634 511.897L129.907 511.631L129.907 511.631L130.179 511.36L130.447 511.092L130.71 510.829L130.969 510.57L131.223 510.316L131.473 510.065L131.72 509.819L131.961 509.578L132.199 509.34L132.432 509.107L132.661 508.878L132.885 508.653L133.106 508.433L133.322 508.217L133.534 508.005L133.741 507.798L133.944 507.594L134.143 507.395L134.338 507.201L134.529 507.01L134.715 506.824L134.896 506.642L135.074 506.465L135.247 506.291L135.416 506.122L135.581 505.958L135.742 505.797L135.898 505.641L136.05 505.489L136.197 505.342L136.341 505.198L136.48 505.059L136.48 505.059L136.617 504.922L136.753 504.785L136.89 504.648L137.027 504.511L137.164 504.375L137.301 504.238L137.438 504.101L137.575 503.964L137.712 503.827L137.849 503.69L137.986 503.553L138.123 503.416L138.26 503.279L138.396 503.142L138.533 503.005L138.67 502.868L138.807 502.732L138.944 502.595L139.081 502.458L139.218 502.321L139.355 502.184L139.492 502.047L139.629 501.91L139.766 501.773L139.903 501.636L140.04 501.499L140.176 501.362L140.313 501.225L140.45 501.088L140.587 500.952L140.724 500.815L140.861 500.678L140.861 500.678L140.998 500.543L141.135 500.412L141.272 500.286L141.409 500.164L141.546 500.047L141.683 499.933L141.819 499.824L141.956 499.719L142.093 499.619L142.23 499.522L142.367 499.43L142.504 499.343L142.641 499.259L142.778 499.18L142.915 499.105L143.052 499.035L143.189 498.968L143.326 498.906L143.463 498.849L143.599 498.795L143.736 498.746L143.873 498.701L144.01 498.66L144.147 498.624L144.284 498.592L144.421 498.564L144.558 498.54L144.695 498.521L144.832 498.506L144.969 498.496L145.106 498.489L145.242 498.487L145.242 498.487L145.38 498.487L145.521 498.487L145.663 498.487L145.807 498.487L145.954 498.487L146.103 498.487L146.253 498.487L146.406 498.487L146.561 498.487L146.719 498.487L146.878 498.487L147.04 498.487L147.203 498.487L147.369 498.487L147.537 498.487L147.707 498.487L147.879 498.487L148.054 498.487L148.23 498.487L148.409 498.487L148.59 498.487L148.772 498.487L148.958 498.487L149.145 498.487L149.334 498.487L149.526 498.487L149.719 498.487L149.915 498.487L150.113 498.487L150.313 498.487L150.515 498.487L150.719 498.487L150.719 498.487L150.925 498.487L151.13 498.487L151.335 498.487L151.541 498.487L151.746 498.487L151.952 498.487L152.157 498.487L152.362 498.487L152.568 498.487L152.773 498.487L152.978 498.487L153.184 498.487L153.389 498.487L153.595 498.487L153.8 498.487L154.005 498.487L154.211 498.487L154.416 498.487L154.622 498.487L154.827 498.487L155.032 498.487L155.238 498.487L155.443 498.487L155.648 498.487L155.854 498.487L156.059 498.487L156.265 498.487L156.47 498.487L156.675 498.487L156.881 498.487L157.086 498.487L157.291 498.487L157.291 498.487L157.49 498.49L157.677 498.5L157.85 498.516L158.01 498.538L158.158 498.567L158.293 498.603L158.415 498.644L158.524 498.692L158.62 498.747L158.703 498.808L158.774 498.875L158.832 498.949L158.877 499.029L158.909 499.116L158.928 499.209L158.935 499.309L158.928 499.414L158.909 499.527L158.877 499.645L158.832 499.771L158.774 499.902L158.703 500.04L158.62 500.185L158.524 500.335L158.415 500.493L158.293 500.656L158.158 500.826L158.01 501.003L157.85 501.186L157.677 501.375L157.49 501.571L157.291 501.773L157.291 501.773L157.083 501.982L156.868 502.197L156.646 502.418L156.419 502.646L156.184 502.88L155.944 503.121L155.697 503.368L155.443 503.622L155.183 503.881L154.917 504.148L154.644 504.421L154.365 504.7L154.079 504.985L153.787 505.277L153.489 505.576L153.184 505.881L152.873 506.192L152.555 506.51L152.231 506.834L151.9 507.164L151.563 507.501L151.22 507.845L150.87 508.194L150.514 508.551L150.151 508.913L149.782 509.282L149.407 509.658L149.025 510.04L148.637 510.428L148.242 510.823L147.841 511.224L147.433 511.631"/>
<path class="l5" d="M170.983 288.178L173.722 288.178"/>
<path class="l5" d="M161.673 292.559L158.387 288.178L161.673 283.796L167.697 283.796L170.983 288.178L167.697 292.559L161.673 292.559"/>
<path class="l5" d="M172.627 287.083L174.817 287.083L174.817 289.273L172.627 289.273L172.627 287.083z"/>
<path class="l5" d="M170.983 410.858L173.722 410.858"/>
<path class="l5" d="M161.673 415.24L158.387 410.858L161.673 406.477L167.697 406.477L170.983 410.858L167.697 415.24L161.673 415.24"/>
<path class="l5" d="M172.627 409.763L174.817 409.763L174.817 411.954L172.627 411.954L172.627 409.763z"/>
<path class="l5" d="M409.224 287.083L411.415 287.083L411.415 289.273L409.224 289.273L409.224 287.083z"/>
<path class="l5" d="M409.224 409.763L411.415 409.763L411.415 411.954L409.224 411.954L409.224 409.763z"/>
<path class="l5" d="M416.892 321.039L421.273 321.039L421.273 325.42L416.892 325.42L416.892 321.039z"/>
<path class="l5" d="M416.892 373.616L421.273 373.616L421.273 377.997L416.892 377.997L416.892 373.616z"/>
<path class="l5" d="M294.211 285.987L298.593 285.987L298.593 290.369L294.211 290.369L294.211 285.987z"/>
<path class="l5" d="M241.634 285.987L246.016 285.987L246.016 290.369L241.634 290.369L241.634 285.987z"/>
<path class="l5" d="M330.358 287.083L332.549 287.083L332.549 289.273L330.358 289.273L330.358 287.083z"/>
<path class="l5" d="M294.211 145.781L298.593 145.781L298.593 150.162L294.211 150.162L294.211 145.781z"/>
<path class="l5" d="M241.634 145.781L246.016 145.781L246.016 150.162L241.634 150.162L241.634 145.781z"/>
<path class="l5" d="M170.983 463.435L173.722 463.435"/>
<path class="l5" d="M161.673 467.817L158.387 463.435L161.673 459.054L167.697 459.054L170.983 463.435L167.697 467.817L161.673 467.817"/>
<path class="l5" d="M172.627 462.34L174.817 462.34L174.817 464.531L172.627 464.531L172.627 462.34z"/>
<path class="l5" d="M207.678 462.34L209.869 462.34L209.869 464.531L207.678 464.531L207.678 462.34z"/>
<path class="l6" d="M353.361 524.776L1050.01 524.776"/>
<path class="l6" d="M15.99 524.776L72.9487 524.776"/>
<text fill="#222222"  xml:space="preserve" font-size="18.2268" transform="translate(362.124, 545.707)" >         bandgap_simple_res-37k5.sch</text>
<text fill="#222222"  xml:space="preserve" font-size="18.2268" transform="translate(362.124, 519.418)" >(c) 2025 Harald Pretl, Apache-2.0 license</text>
<text fill="#222222"  xml:space="preserve" font-size="18.2268" transform="translate(844.01, 519.418)" >2026-06-12  23:03:12</text>
<text fill="#222222"  xml:space="preserve" font-size="45.567" transform="translate(160.578, 544.243)" >SCHEM</text>
<text fill="#0099cc"  xml:space="preserve" font-size="15.0371" transform="translate(140.333, 293.616)" >rp</text>
<text fill="#0099cc"  xml:space="preserve" font-size="15.0371" transform="translate(140.333, 416.297)" >rn</text>
<text fill="#0099cc"  xml:space="preserve" font-size="12.3031" transform="translate(344.129, 284.142)" >rp1,r[1..6]</text>
<text fill="#0099cc"  xml:space="preserve" font-size="12.3031" transform="translate(352.129, 406.822)" >r[1..6],rn</text>
<text fill="#666600"  xml:space="preserve" font-size="9.1134" transform="translate(432.227, 354.507)" >w/l = 0.5e-6 / 10e-6</text>
<text fill="#222222"  xml:space="preserve" font-size="9.1134" transform="translate(432.227, 343.553)" >rppd</text>
<text fill="#222222"  xml:space="preserve" font-size="9.1134" transform="translate(432.227, 332.6)" >R[1..7]</text>
<text fill="#666600"  xml:space="preserve" font-size="9.1134" transform="translate(432.227, 384.082)" >R=5.278k</text>
<text fill="#666600"  xml:space="preserve" font-size="9.1134" transform="translate(432.227, 363.27)" >b=0</text>
<text fill="#666600"  xml:space="preserve" font-size="9.1134" transform="translate(432.227, 372.033)" >m=1</text>
<text fill="#0099cc"  xml:space="preserve" font-size="4.5567" transform="translate(399.804, 351.903)" >bn</text>
<text fill="#666600"  xml:space="preserve" font-size="9.1134" transform="translate(271.222, 394.322) rotate(270)" >w/l = 0.5e-6 / 10e-6</text>
<text fill="#222222"  xml:space="preserve" font-size="9.1134" transform="translate(282.175, 323.322) rotate(270)" >rppd</text>
<text fill="#222222"  xml:space="preserve" font-size="9.1134" transform="translate(293.129, 339.322) rotate(270)" >R1[1..2]</text>
<text fill="#666600"  xml:space="preserve" font-size="9.1134" transform="translate(241.647, 348.322) rotate(270)" >R=5.278k</text>
<text fill="#666600"  xml:space="preserve" font-size="9.1134" transform="translate(262.459, 321.322) rotate(270)" >b=0</text>
<text fill="#666600"  xml:space="preserve" font-size="9.1134" transform="translate(253.696, 324.322) rotate(270)" >m=1</text>
<text fill="#0099cc"  xml:space="preserve" font-size="4.5567" transform="translate(270.777, 274.9) rotate(270)" >bn</text>
<text fill="#0099cc"  xml:space="preserve" font-size="12.3031" transform="translate(308.263, 284.142)" >rp1</text>
<text fill="#666600"  xml:space="preserve" font-size="9.1134" transform="translate(271.222, 254.116) rotate(270)" >w/l = 0.5e-6 / 10e-6</text>
<text fill="#222222"  xml:space="preserve" font-size="9.1134" transform="translate(282.175, 183.116) rotate(270)" >rppd</text>
<text fill="#222222"  xml:space="preserve" font-size="9.1134" transform="translate(293.129, 228.116) rotate(270)" >Rdummy[1..5]</text>
<text fill="#666600"  xml:space="preserve" font-size="9.1134" transform="translate(241.647, 208.116) rotate(270)" >R=5.278k</text>
<text fill="#666600"  xml:space="preserve" font-size="9.1134" transform="translate(262.459, 181.116) rotate(270)" >b=0</text>
<text fill="#666600"  xml:space="preserve" font-size="9.1134" transform="translate(253.696, 184.116) rotate(270)" >m=1</text>
<text fill="#0099cc"  xml:space="preserve" font-size="4.5567" transform="translate(270.777, 134.693) rotate(270)" >bn</text>
<text fill="#0099cc"  xml:space="preserve" font-size="15.0371" transform="translate(136.333, 468.874)" >bn</text>
<text fill="#229900"  xml:space="preserve" font-size="6.83505" transform="translate(213.013, 465.636)" >NC</text>
<path class="l1" d="M173.722 410.858L208.773 410.858"/>
<path class="l1" d="M208.773 288.178L243.825 288.178"/>
<path class="l1" d="M419.083 288.178L419.083 323.229"/>
<path class="l1" d="M419.083 375.807L419.083 410.858"/>
<path class="l1" d="M348.979 410.858L419.083 410.858"/>
<path class="l1" d="M348.979 288.178L419.083 288.178"/>
<path class="l1" d="M296.402 288.178L331.454 288.178"/>
<path class="l1" d="M208.773 147.972L243.825 147.972"/>
<path class="l1" d="M208.773 147.972L208.773 288.178"/>
<path class="l1" d="M173.722 288.178L208.773 288.178"/>
<path class="l1" d="M296.402 147.972L331.454 147.972"/>
<path class="l1" d="M331.454 112.92L331.454 147.972"/>
<path class="l1" d="M208.773 112.92L331.454 112.92"/>
<path class="l1" d="M208.773 112.92L208.773 147.972"/>
<path class="l1" d="M173.722 463.435L208.773 463.435"/>
<circle class="l1" cx="208.773" cy="147.972" r="3.24227"/>
<circle class="l1" cx="208.773" cy="147.972" r="3.24227"/>
<circle class="l1" cx="208.773" cy="288.178" r="3.24227"/>
<circle class="l1" cx="208.773" cy="147.972" r="3.24227"/>
<circle class="l1" cx="208.773" cy="288.178" r="3.24227"/>
<circle class="l1" cx="208.773" cy="288.178" r="3.24227"/>
<text fill="#222222"  xml:space="preserve" font-size="18.2268" transform="translate(384.031, 155.759)" >Keep a few dummy resistors around</text>
<text fill="#222222"  xml:space="preserve" font-size="18.2268" transform="translate(384.031, 176.665)" >to compensate TC.</text>
</svg>
