<svg xmlns="http://www.w3.org/2000/svg" xmlns:xlink="http://www.w3.org/1999/xlink" width="1072" height="670" version="1.1">
<style type="text/css">
.l0{
  fill: #ffffff;
  stroke: #ffffff;
  stroke-linecap:round;
  stroke-linejoin:round;
  stroke-width: 1.17609;
}
.l1{
  fill: #0099cc;
  stroke: #0099cc;
  stroke-linecap:round;
  stroke-linejoin:round;
  stroke-width: 1.17609;
}
.l2{
  fill: #aaaaaa; fill-opacity: 0.2;
  stroke: #aaaaaa;
  stroke-linecap:round;
  stroke-linejoin:round;
  stroke-width: 1.17609;
}
.l3{
  fill: #222222; fill-opacity: 0.5;
  stroke: #222222;
  stroke-linecap:round;
  stroke-linejoin:round;
  stroke-width: 1.17609;
}
.l4{
  fill: #229900;
  stroke: #229900;
  stroke-linecap:round;
  stroke-linejoin:round;
  stroke-width: 1.17609;
}
.l5{
  fill: #bb2200;
  stroke: #bb2200;
  stroke-linecap:round;
  stroke-linejoin:round;
  stroke-width: 1.17609;
}
.l6{
  fill: #0066cc; fill-opacity: 0.5;
  stroke: #0066cc;
  stroke-linecap:round;
  stroke-linejoin:round;
  stroke-width: 1.17609;
}
.l7{
  fill: #ff0000; fill-opacity: 0.5;
  stroke: #ff0000;
  stroke-linecap:round;
  stroke-linejoin:round;
  stroke-width: 1.17609;
}
.l8{
  fill: #888800; fill-opacity: 0.5;
  stroke: #888800;
  stroke-linecap:round;
  stroke-linejoin:round;
  stroke-width: 1.17609;
}
.l9{
  fill: #00aaaa; fill-opacity: 0.5;
  stroke: #00aaaa;
  stroke-linecap:round;
  stroke-linejoin:round;
  stroke-width: 1.17609;
}
.l10{
  fill: #880088;
  stroke: #880088;
  stroke-linecap:round;
  stroke-linejoin:round;
  stroke-width: 1.17609;
}
.l11{
  fill: #00ff00; fill-opacity: 0.5;
  stroke: #00ff00;
  stroke-linecap:round;
  stroke-linejoin:round;
  stroke-width: 1.17609;
}
.l12{
  fill: #0000cc; fill-opacity: 0.5;
  stroke: #0000cc;
  stroke-linecap:round;
  stroke-linejoin:round;
  stroke-width: 1.17609;
}
.l13{
  fill: #666600; fill-opacity: 0.5;
  stroke: #666600;
  stroke-linecap:round;
  stroke-linejoin:round;
  stroke-width: 1.17609;
}
.l14{
  fill: #557755; fill-opacity: 0.2;
  stroke: #557755;
  stroke-linecap:round;
  stroke-linejoin:round;
  stroke-width: 1.17609;
}
.l15{
  fill: #aa2222; fill-opacity: 0.5;
  stroke: #aa2222;
  stroke-linecap:round;
  stroke-linejoin:round;
  stroke-width: 1.17609;
}
.l16{
  fill: #7ccc40; fill-opacity: 0.5;
  stroke: #7ccc40;
  stroke-linecap:round;
  stroke-linejoin:round;
  stroke-width: 1.17609;
}
.l17{
  fill: #00ffcc; fill-opacity: 0.2;
  stroke: #00ffcc;
  stroke-linecap:round;
  stroke-linejoin:round;
  stroke-width: 1.17609;
}
.l18{
  fill: #ce0097; fill-opacity: 0.5;
  stroke: #ce0097;
  stroke-linecap:round;
  stroke-linejoin:round;
  stroke-width: 1.17609;
}
.l19{
  fill: #d2d46b; fill-opacity: 0.2;
  stroke: #d2d46b;
  stroke-linecap:round;
  stroke-linejoin:round;
  stroke-width: 1.17609;
}
.l20{
  fill: #ef6158; fill-opacity: 0.2;
  stroke: #ef6158;
  stroke-linecap:round;
  stroke-linejoin:round;
  stroke-width: 1.17609;
}
.l21{
  fill: #fdb200; fill-opacity: 0.2;
  stroke: #fdb200;
  stroke-linecap:round;
  stroke-linejoin:round;
  stroke-width: 1.17609;
}
text {font-family: Sans-Serif;}
</style>
<rect class="l0" x="0" y="0" width="1072" height="670"/>
<path class="l4" d="M22.004 506.622L82.9866 506.622"/>
<path class="l4" d="M22.004 506.622L22.004 524.046"/>
<path class="l4" d="M22.004 27.4736L82.9866 27.4736"/>
<path class="l4" d="M22.004 27.4736L22.004 44.8972"/>
<path class="l4" d="M512.043 295.361L516.398 295.361"/>
<path class="l4" d="M514.221 293.183L514.221 297.539"/>
<path class="l4" d="M509.865 288.827L509.865 341.098"/>
<circle class="l4" cx="509.865" cy="314.963" r="13.0677" style="fill:none;" />
<path class="l4" d="M509.865 393.369L509.865 404.259"/>
<path class="l4" d="M505.509 404.259L514.221 404.259"/>
<path class="l4" d="M509.865 408.615L514.221 404.259"/>
<path class="l4" d="M505.509 404.259L509.865 408.615"/>
<path class="l4" d="M440.17 524.046L414.035 513.156L414.035 519.69L387.899 519.69L396.611 524.046L387.899 528.402L414.035 528.402L414.035 534.936L440.17 524.046"/>
<path class="l4" d="M666.677 524.046L640.542 513.156L640.542 519.69L614.406 519.69L623.118 524.046L614.406 528.402L640.542 528.402L640.542 534.936L666.677 524.046"/>
<path class="l4" d="M599.161 295.361L603.516 295.361"/>
<path class="l4" d="M601.338 293.183L601.338 297.539"/>
<path class="l4" d="M596.983 288.827L596.983 341.098"/>
<circle class="l4" cx="596.983" cy="314.963" r="13.0677" style="fill:none;" />
<path class="l4" d="M736.371 175.574L858.336 175.574"/>
<path class="l4" d="M736.371 227.845L858.336 227.845"/>
<path class="l4" d="M736.371 175.574L736.371 227.845"/>
<path class="l4" d="M858.336 175.574L858.336 227.845"/>
<path class="l4" d="M797.354 208.243L797.354 210.421"/>
<path class="l4" d="M797.354 192.998L797.354 195.176"/>
<path class="l4" d="M795.176 199.532L799.532 199.532"/>
<path class="l4" d="M795.176 203.887L799.532 203.887"/>
<circle class="l4" cx="797.354" cy="201.71" r="6.16017" style="fill:none;" />
<path class="l4" d="M997.725 284.472L997.725 306.251"/>
<path class="l4" d="M997.725 253.98L997.725 275.76"/>
<path class="l4" d="M989.013 275.76L1006.44 275.76"/>
<path class="l4" d="M989.013 284.472L1006.44 284.472"/>
<path class="l4" d="M999.903 260.514L1004.26 260.514"/>
<path class="l4" d="M1002.08 258.336L1002.08 262.692"/>
<path class="l5" d="M507.687 286.65L512.043 286.65L512.043 291.005L507.687 291.005L507.687 286.65z"/>
<path class="l5" d="M507.687 338.92L512.043 338.92L512.043 343.276L507.687 343.276L507.687 338.92z"/>
<path class="l5" d="M507.687 391.191L512.043 391.191L512.043 395.547L507.687 395.547L507.687 391.191z"/>
<path class="l5" d="M152.681 615.52L152.409 615.792L152.136 616.064L151.864 616.337L151.592 616.609L151.32 616.881L151.048 617.153L150.775 617.426L150.503 617.698L150.231 617.97L149.959 618.242L149.686 618.515L149.414 618.787L149.142 619.059L148.87 619.331L148.597 619.603L148.325 619.876L148.053 620.148L147.781 620.42L147.508 620.692L147.236 620.965L146.964 621.237L146.692 621.509L146.419 621.781L146.147 622.054L145.875 622.326L145.603 622.598L145.33 622.87L145.058 623.143L144.786 623.415L144.514 623.687L144.241 623.959L143.969 624.232L143.969 624.232L143.705 624.504L143.459 624.776L143.229 625.048L143.016 625.321L142.821 625.593L142.642 625.865L142.48 626.137L142.336 626.41L142.208 626.682L142.097 626.954L142.004 627.226L141.927 627.499L141.868 627.771L141.825 628.043L141.8 628.315L141.791 628.588L141.8 628.86L141.825 629.132L141.868 629.404L141.927 629.677L142.004 629.949L142.097 630.221L142.208 630.493L142.336 630.765L142.48 631.038L142.642 631.31L142.821 631.582L143.016 631.854L143.229 632.127L143.459 632.399L143.705 632.671L143.969 632.943L143.969 632.943L144.242 633.217L144.518 633.492L144.795 633.77L145.075 634.049L145.357 634.331L145.641 634.615L145.927 634.901L146.215 635.189L146.506 635.48L146.798 635.772L147.093 636.067L147.389 636.363L147.688 636.662L147.989 636.963L148.292 637.266L148.597 637.572L148.905 637.879L149.214 638.188L149.526 638.5L149.839 638.814L150.155 639.13L150.473 639.448L150.793 639.768L151.116 640.09L151.44 640.414L151.766 640.741L152.095 641.069L152.426 641.4L152.759 641.733L153.094 642.068L153.431 642.405L153.77 642.744L153.77 642.744L154.108 643.082L154.442 643.416L154.772 643.746L155.097 644.071L155.418 644.393L155.735 644.709L156.048 645.022L156.356 645.331L156.66 645.635L156.96 645.935L157.256 646.23L157.547 646.522L157.834 646.809L158.117 647.092L158.396 647.37L158.67 647.645L158.94 647.915L159.206 648.181L159.468 648.442L159.725 648.7L159.978 648.953L160.227 649.201L160.472 649.446L160.712 649.686L160.948 649.923L161.18 650.154L161.408 650.382L161.631 650.605L161.85 650.824L162.065 651.039L162.275 651.25L162.482 651.456L162.482 651.456L162.68 651.657L162.865 651.852L163.037 652.04L163.196 652.222L163.343 652.397L163.477 652.566L163.598 652.729L163.707 652.885L163.803 653.035L163.885 653.179L163.956 653.316L164.013 653.447L164.058 653.571L164.09 653.689L164.109 653.801L164.115 653.906L164.109 654.005L164.09 654.098L164.058 654.184L164.013 654.264L163.956 654.337L163.885 654.404L163.803 654.465L163.707 654.519L163.598 654.567L163.477 654.608L163.343 654.643L163.196 654.672L163.037 654.694L162.865 654.71L162.68 654.72L162.482 654.723L162.482 654.723L162.278 654.723L162.073 654.723L161.869 654.723L161.665 654.723L161.461 654.723L161.257 654.723L161.052 654.723L160.848 654.723L160.644 654.723L160.44 654.723L160.236 654.723L160.032 654.723L159.827 654.723L159.623 654.723L159.419 654.723L159.215 654.723L159.011 654.723L158.806 654.723L158.602 654.723L158.398 654.723L158.194 654.723L157.99 654.723L157.786 654.723L157.581 654.723L157.377 654.723L157.173 654.723L156.969 654.723L156.765 654.723L156.56 654.723L156.356 654.723L156.152 654.723L155.948 654.723L155.948 654.723L155.745 654.723L155.544 654.723L155.345 654.723L155.148 654.723L154.954 654.723L154.761 654.723L154.571 654.723L154.382 654.723L154.196 654.723L154.012 654.723L153.831 654.723L153.651 654.723L153.473 654.723L153.298 654.723L153.124 654.723L152.953 654.723L152.784 654.723L152.617 654.723L152.452 654.723L152.29 654.723L152.129 654.723L151.971 654.723L151.814 654.723L151.66 654.723L151.508 654.723L151.358 654.723L151.21 654.723L151.065 654.723L150.921 654.723L150.78 654.723L150.64 654.723L150.503 654.723L150.503 654.723L150.367 654.721L150.231 654.714L150.095 654.704L149.959 654.689L149.822 654.67L149.686 654.646L149.55 654.619L149.414 654.587L149.278 654.551L149.142 654.51L149.006 654.466L148.87 654.417L148.733 654.363L148.597 654.306L148.461 654.244L148.325 654.178L148.189 654.108L148.053 654.034L147.917 653.955L147.781 653.872L147.644 653.785L147.508 653.694L147.372 653.598L147.236 653.498L147.1 653.394L146.964 653.285L146.828 653.172L146.692 653.055L146.555 652.934L146.419 652.809L146.283 652.679L146.147 652.545L146.147 652.545L146.011 652.409L145.875 652.273L145.739 652.137L145.603 652L145.467 651.864L145.33 651.728L145.194 651.592L145.058 651.456L144.922 651.32L144.786 651.184L144.65 651.048L144.514 650.912L144.378 650.775L144.241 650.639L144.105 650.503L143.969 650.367L143.833 650.231L143.697 650.095L143.561 649.959L143.425 649.823L143.289 649.686L143.152 649.55L143.016 649.414L142.88 649.278L142.744 649.142L142.608 649.006L142.472 648.87L142.336 648.734L142.2 648.597L142.063 648.461L141.927 648.325L141.791 648.189L141.791 648.189L141.653 648.051L141.51 647.908L141.364 647.762L141.213 647.611L141.057 647.455L140.898 647.296L140.734 647.132L140.566 646.964L140.394 646.792L140.217 646.615L140.037 646.434L139.851 646.249L139.662 646.06L139.469 645.866L139.271 645.669L139.069 645.467L138.862 645.26L138.652 645.05L138.437 644.835L138.218 644.616L137.995 644.393L137.767 644.165L137.535 643.933L137.299 643.697L137.059 643.457L136.814 643.212L136.565 642.963L136.312 642.71L136.055 642.453L135.793 642.191L135.527 641.925L135.257 641.655L135.257 641.655L134.985 641.391L134.713 641.145L134.441 640.915L134.168 640.702L133.896 640.507L133.624 640.328L133.352 640.166L133.079 640.022L132.807 639.894L132.535 639.784L132.263 639.69L131.99 639.613L131.718 639.554L131.446 639.511L131.174 639.486L130.901 639.477L130.629 639.486L130.357 639.511L130.085 639.554L129.812 639.613L129.54 639.69L129.268 639.784L128.996 639.894L128.724 640.022L128.451 640.166L128.179 640.328L127.907 640.507L127.635 640.702L127.362 640.915L127.09 641.145L126.818 641.391L126.546 641.655L126.546 641.655L126.275 641.925L126.01 642.191L125.748 642.453L125.491 642.71L125.238 642.963L124.989 643.212L124.744 643.457L124.504 643.697L124.268 643.933L124.036 644.165L123.808 644.393L123.585 644.616L123.366 644.835L123.151 645.05L122.94 645.26L122.734 645.467L122.532 645.669L122.334 645.866L122.141 646.06L121.951 646.249L121.766 646.434L121.586 646.615L121.409 646.792L121.237 646.964L121.069 647.132L120.905 647.296L120.746 647.455L120.59 647.611L120.439 647.762L120.292 647.908L120.15 648.051L120.012 648.189L120.012 648.189L119.876 648.325L119.739 648.461L119.603 648.597L119.467 648.734L119.331 648.87L119.195 649.006L119.059 649.142L118.923 649.278L118.787 649.414L118.651 649.55L118.514 649.686L118.378 649.823L118.242 649.959L118.106 650.095L117.97 650.231L117.834 650.367L117.698 650.503L117.562 650.639L117.425 650.775L117.289 650.912L117.153 651.048L117.017 651.184L116.881 651.32L116.745 651.456L116.609 651.592L116.473 651.728L116.336 651.864L116.2 652L116.064 652.137L115.928 652.273L115.792 652.409L115.656 652.545L115.656 652.545L115.52 652.679L115.384 652.809L115.247 652.934L115.111 653.055L114.975 653.172L114.839 653.285L114.703 653.394L114.567 653.498L114.431 653.598L114.295 653.694L114.158 653.785L114.022 653.872L113.886 653.955L113.75 654.034L113.614 654.108L113.478 654.178L113.342 654.244L113.206 654.306L113.07 654.363L112.933 654.417L112.797 654.466L112.661 654.51L112.525 654.551L112.389 654.587L112.253 654.619L112.117 654.646L111.981 654.67L111.844 654.689L111.708 654.704L111.572 654.714L111.436 654.721L111.3 654.723L111.3 654.723L111.163 654.723L111.023 654.723L110.882 654.723L110.738 654.723L110.593 654.723L110.445 654.723L110.295 654.723L110.143 654.723L109.989 654.723L109.832 654.723L109.674 654.723L109.513 654.723L109.351 654.723L109.186 654.723L109.019 654.723L108.85 654.723L108.679 654.723L108.505 654.723L108.33 654.723L108.152 654.723L107.972 654.723L107.791 654.723L107.607 654.723L107.42 654.723L107.232 654.723L107.042 654.723L106.849 654.723L106.655 654.723L106.458 654.723L106.259 654.723L106.058 654.723L105.855 654.723L105.855 654.723L105.651 654.723L105.447 654.723L105.243 654.723L105.038 654.723L104.834 654.723L104.63 654.723L104.426 654.723L104.222 654.723L104.017 654.723L103.813 654.723L103.609 654.723L103.405 654.723L103.201 654.723L102.997 654.723L102.792 654.723L102.588 654.723L102.384 654.723L102.18 654.723L101.976 654.723L101.771 654.723L101.567 654.723L101.363 654.723L101.159 654.723L100.955 654.723L100.75 654.723L100.546 654.723L100.342 654.723L100.138 654.723L99.9338 654.723L99.7296 654.723L99.5254 654.723L99.3212 654.723L99.3212 654.723L99.1234 654.72L98.9384 654.71L98.7661 654.694L98.6066 654.672L98.4598 654.643L98.3258 654.608L98.2046 654.567L98.0961 654.519L98.0004 654.465L97.9175 654.404L97.8473 654.337L97.7898 654.264L97.7452 654.184L97.7133 654.098L97.6941 654.005L97.6878 653.906L97.6941 653.801L97.7133 653.689L97.7452 653.571L97.7898 653.447L97.8473 653.316L97.9175 653.179L98.0004 653.035L98.0961 652.885L98.2046 652.729L98.3258 652.566L98.4598 652.397L98.6066 652.222L98.7661 652.04L98.9384 651.852L99.1234 651.657L99.3212 651.456L99.3212 651.456L99.5275 651.25L99.7381 651.039L99.9529 650.824L100.172 650.605L100.395 650.382L100.623 650.154L100.855 649.923L101.091 649.686L101.331 649.446L101.576 649.201L101.825 648.953L102.078 648.7L102.335 648.442L102.597 648.181L102.863 647.915L103.133 647.645L103.407 647.37L103.686 647.092L103.968 646.809L104.256 646.522L104.547 646.23L104.843 645.935L105.143 645.635L105.447 645.331L105.755 645.022L106.068 644.709L106.385 644.393L106.706 644.071L107.031 643.746L107.361 643.416L107.695 643.082L108.033 642.744L108.033 642.744L108.372 642.405L108.709 642.068L109.044 641.733L109.377 641.4L109.708 641.069L110.037 640.741L110.363 640.414L110.687 640.09L111.01 639.768L111.33 639.448L111.648 639.13L111.964 638.814L112.277 638.5L112.589 638.188L112.898 637.879L113.206 637.572L113.511 637.266L113.814 636.963L114.115 636.662L114.414 636.363L114.71 636.067L115.005 635.772L115.297 635.48L115.588 635.189L115.876 634.901L116.162 634.615L116.446 634.331L116.728 634.049L117.007 633.77L117.285 633.492L117.56 633.217L117.834 632.943L117.834 632.943L118.098 632.671L118.344 632.399L118.574 632.127L118.787 631.854L118.982 631.582L119.161 631.31L119.323 631.038L119.467 630.765L119.595 630.493L119.705 630.221L119.799 629.949L119.876 629.677L119.935 629.404L119.978 629.132L120.003 628.86L120.012 628.588L120.003 628.315L119.978 628.043L119.935 627.771L119.876 627.499L119.799 627.226L119.705 626.954L119.595 626.682L119.467 626.41L119.323 626.137L119.161 625.865L118.982 625.593L118.787 625.321L118.574 625.048L118.344 624.776L118.098 624.504L117.834 624.232L117.834 624.232L117.56 623.958L117.285 623.683L117.007 623.405L116.728 623.126L116.446 622.844L116.162 622.56L115.876 622.274L115.588 621.986L115.297 621.695L115.005 621.403L114.71 621.108L114.414 620.812L114.115 620.513L113.814 620.212L113.511 619.909L113.206 619.603L112.898 619.296L112.589 618.987L112.277 618.675L111.964 618.361L111.648 618.046L111.33 617.728L111.01 617.407L110.687 617.085L110.363 616.761L110.037 616.434L109.708 616.106L109.377 615.775L109.044 615.442L108.709 615.107L108.372 614.77L108.033 614.431L108.033 614.431L107.695 614.093L107.361 613.759L107.031 613.429L106.706 613.104L106.385 612.783L106.068 612.466L105.755 612.153L105.447 611.845L105.143 611.54L104.843 611.241L104.547 610.945L104.256 610.653L103.968 610.366L103.686 610.083L103.407 609.805L103.133 609.53L102.863 609.26L102.597 608.994L102.335 608.733L102.078 608.476L101.825 608.222L101.576 607.974L101.331 607.729L101.091 607.489L100.855 607.253L100.623 607.021L100.395 606.793L100.172 606.57L99.9529 606.351L99.7381 606.136L99.5275 605.925L99.3212 605.719L99.3212 605.719L99.1234 605.518L98.9384 605.323L98.7661 605.135L98.6066 604.953L98.4598 604.778L98.3258 604.609L98.2046 604.446L98.0961 604.29L98.0004 604.14L97.9175 603.996L97.8473 603.859L97.7898 603.728L97.7452 603.604L97.7133 603.486L97.6941 603.374L97.6878 603.269L97.6941 603.17L97.7133 603.077L97.7452 602.991L97.7898 602.912L97.8473 602.838L97.9175 602.771L98.0004 602.711L98.0961 602.656L98.2046 602.608L98.3258 602.567L98.4598 602.532L98.6066 602.503L98.7661 602.481L98.9384 602.465L99.1234 602.455L99.3212 602.452L99.3212 602.452L99.5254 602.452L99.7296 602.452L99.9338 602.452L100.138 602.452L100.342 602.452L100.546 602.452L100.75 602.452L100.955 602.452L101.159 602.452L101.363 602.452L101.567 602.452L101.771 602.452L101.976 602.452L102.18 602.452L102.384 602.452L102.588 602.452L102.792 602.452L102.997 602.452L103.201 602.452L103.405 602.452L103.609 602.452L103.813 602.452L104.017 602.452L104.222 602.452L104.426 602.452L104.63 602.452L104.834 602.452L105.038 602.452L105.243 602.452L105.447 602.452L105.651 602.452L105.855 602.452L105.855 602.452L106.058 602.452L106.259 602.452L106.458 602.452L106.655 602.452L106.849 602.452L107.042 602.452L107.232 602.452L107.42 602.452L107.607 602.452L107.791 602.452L107.972 602.452L108.152 602.452L108.33 602.452L108.505 602.452L108.679 602.452L108.85 602.452L109.019 602.452L109.186 602.452L109.351 602.452L109.513 602.452L109.674 602.452L109.832 602.452L109.989 602.452L110.143 602.452L110.295 602.452L110.445 602.452L110.593 602.452L110.738 602.452L110.882 602.452L111.023 602.452L111.163 602.452L111.3 602.452L111.3 602.452L111.436 602.454L111.572 602.461L111.708 602.471L111.844 602.486L111.981 602.505L112.117 602.529L112.253 602.556L112.389 602.588L112.525 602.624L112.661 602.665L112.797 602.71L112.933 602.758L113.07 602.812L113.206 602.869L113.342 602.931L113.478 602.997L113.614 603.067L113.75 603.141L113.886 603.22L114.022 603.303L114.158 603.39L114.295 603.482L114.431 603.577L114.567 603.677L114.703 603.781L114.839 603.89L114.975 604.003L115.111 604.12L115.247 604.241L115.384 604.366L115.52 604.496L115.656 604.63L115.656 604.63L115.792 604.766L115.928 604.902L116.064 605.038L116.2 605.175L116.336 605.311L116.473 605.447L116.609 605.583L116.745 605.719L116.881 605.855L117.017 605.991L117.153 606.127L117.289 606.264L117.425 606.4L117.562 606.536L117.698 606.672L117.834 606.808L117.97 606.944L118.106 607.08L118.242 607.216L118.378 607.353L118.514 607.489L118.651 607.625L118.787 607.761L118.923 607.897L119.059 608.033L119.195 608.169L119.331 608.305L119.467 608.442L119.603 608.578L119.739 608.714L119.876 608.85L120.012 608.986L120.012 608.986L120.15 609.124L120.292 609.267L120.439 609.413L120.59 609.565L120.746 609.72L120.905 609.879L121.069 610.043L121.237 610.211L121.409 610.383L121.586 610.56L121.766 610.741L121.951 610.926L122.141 611.115L122.334 611.309L122.532 611.506L122.734 611.708L122.94 611.915L123.151 612.125L123.366 612.34L123.585 612.559L123.808 612.783L124.036 613.01L124.268 613.242L124.504 613.478L124.744 613.718L124.989 613.963L125.238 614.212L125.491 614.465L125.748 614.722L126.01 614.984L126.275 615.25L126.546 615.52L126.546 615.52L126.818 615.784L127.09 616.03L127.362 616.26L127.635 616.473L127.907 616.668L128.179 616.847L128.451 617.009L128.724 617.153L128.996 617.281L129.268 617.392L129.54 617.485L129.812 617.562L130.085 617.621L130.357 617.664L130.629 617.689L130.901 617.698L131.174 617.689L131.446 617.664L131.718 617.621L131.99 617.562L132.263 617.485L132.535 617.392L132.807 617.281L133.079 617.153L133.352 617.009L133.624 616.847L133.896 616.668L134.168 616.473L134.441 616.26L134.713 616.03L134.985 615.784L135.257 615.52L135.257 615.52L135.527 615.25L135.793 614.984L136.055 614.722L136.312 614.465L136.565 614.212L136.814 613.963L137.059 613.718L137.299 613.478L137.535 613.242L137.767 613.01L137.995 612.783L138.218 612.559L138.437 612.34L138.652 612.125L138.862 611.915L139.069 611.708L139.271 611.506L139.469 611.309L139.662 611.115L139.851 610.926L140.037 610.741L140.217 610.56L140.394 610.383L140.566 610.211L140.734 610.043L140.898 609.879L141.057 609.72L141.213 609.565L141.364 609.413L141.51 609.267L141.653 609.124L141.791 608.986L141.791 608.986L141.927 608.85L142.063 608.714L142.2 608.578L142.336 608.442L142.472 608.305L142.608 608.169L142.744 608.033L142.88 607.897L143.016 607.761L143.152 607.625L143.289 607.489L143.425 607.353L143.561 607.216L143.697 607.08L143.833 606.944L143.969 606.808L144.105 606.672L144.241 606.536L144.378 606.4L144.514 606.264L144.65 606.127L144.786 605.991L144.922 605.855L145.058 605.719L145.194 605.583L145.33 605.447L145.467 605.311L145.603 605.175L145.739 605.038L145.875 604.902L146.011 604.766L146.147 604.63L146.147 604.63L146.283 604.496L146.419 604.366L146.555 604.241L146.692 604.12L146.828 604.003L146.964 603.89L147.1 603.781L147.236 603.677L147.372 603.577L147.508 603.482L147.644 603.39L147.781 603.303L147.917 603.22L148.053 603.141L148.189 603.067L148.325 602.997L148.461 602.931L148.597 602.869L148.733 602.812L148.87 602.758L149.006 602.71L149.142 602.665L149.278 602.624L149.414 602.588L149.55 602.556L149.686 602.529L149.822 602.505L149.959 602.486L150.095 602.471L150.231 602.461L150.367 602.454L150.503 602.452L150.503 602.452L150.64 602.452L150.78 602.452L150.921 602.452L151.065 602.452L151.21 602.452L151.358 602.452L151.508 602.452L151.66 602.452L151.814 602.452L151.971 602.452L152.129 602.452L152.29 602.452L152.452 602.452L152.617 602.452L152.784 602.452L152.953 602.452L153.124 602.452L153.298 602.452L153.473 602.452L153.651 602.452L153.831 602.452L154.012 602.452L154.196 602.452L154.382 602.452L154.571 602.452L154.761 602.452L154.954 602.452L155.148 602.452L155.345 602.452L155.544 602.452L155.745 602.452L155.948 602.452L155.948 602.452L156.152 602.452L156.356 602.452L156.56 602.452L156.765 602.452L156.969 602.452L157.173 602.452L157.377 602.452L157.581 602.452L157.786 602.452L157.99 602.452L158.194 602.452L158.398 602.452L158.602 602.452L158.806 602.452L159.011 602.452L159.215 602.452L159.419 602.452L159.623 602.452L159.827 602.452L160.032 602.452L160.236 602.452L160.44 602.452L160.644 602.452L160.848 602.452L161.052 602.452L161.257 602.452L161.461 602.452L161.665 602.452L161.869 602.452L162.073 602.452L162.278 602.452L162.482 602.452L162.482 602.452L162.68 602.455L162.865 602.465L163.037 602.481L163.196 602.503L163.343 602.532L163.477 602.567L163.598 602.608L163.707 602.656L163.803 602.711L163.885 602.771L163.956 602.838L164.013 602.912L164.058 602.991L164.09 603.077L164.109 603.17L164.115 603.269L164.109 603.374L164.09 603.486L164.058 603.604L164.013 603.728L163.956 603.859L163.885 603.996L163.803 604.14L163.707 604.29L163.598 604.446L163.477 604.609L163.343 604.778L163.196 604.953L163.037 605.135L162.865 605.323L162.68 605.518L162.482 605.719L162.482 605.719L162.274 605.926L162.061 606.14L161.84 606.36L161.614 606.587L161.381 606.82L161.142 607.059L160.896 607.305L160.644 607.557L160.386 607.815L160.121 608.08L159.85 608.351L159.572 608.629L159.288 608.913L158.998 609.203L158.701 609.5L158.398 609.803L158.089 610.112L157.773 610.428L157.451 610.75L157.122 611.079L156.787 611.414L156.446 611.755L156.098 612.103L155.744 612.457L155.383 612.818L155.016 613.184L154.643 613.558L154.263 613.937L153.877 614.323L153.485 614.716L153.086 615.115L152.681 615.52"/>
<path class="l5" d="M508.776 130.926L510.954 130.926L510.954 133.104L508.776 133.104L508.776 130.926z"/>
<path class="l5" d="M996.636 200.621L998.814 200.621L998.814 202.798L996.636 202.798L996.636 200.621z"/>
<path class="l5" d="M594.805 286.65L599.161 286.65L599.161 291.005L594.805 291.005L594.805 286.65z"/>
<path class="l5" d="M594.805 338.92L599.161 338.92L599.161 343.276L594.805 343.276L594.805 338.92z"/>
<path class="l5" d="M595.894 200.621L598.072 200.621L598.072 202.798L595.894 202.798L595.894 200.621z"/>
<path class="l5" d="M777.752 173.396L782.108 173.396L782.108 177.752L777.752 177.752L777.752 173.396z"/>
<path class="l5" d="M734.193 199.532L738.549 199.532L738.549 203.887L734.193 203.887L734.193 199.532z"/>
<path class="l5" d="M856.159 199.532L860.514 199.532L860.514 203.887L856.159 203.887L856.159 199.532z"/>
<path class="l5" d="M777.752 225.667L782.108 225.667L782.108 230.023L777.752 230.023L777.752 225.667z"/>
<path class="l5" d="M995.547 251.802L999.903 251.802L999.903 256.158L995.547 256.158L995.547 251.802z"/>
<path class="l5" d="M995.547 304.073L999.903 304.073L999.903 308.429L995.547 308.429L995.547 304.073z"/>
<path class="l6" d="M357.408 628.588L1050 628.588"/>
<path class="l6" d="M22.004 628.588L78.6307 628.588"/>
<text fill="#222222"  xml:space="preserve" font-size="13.5904" transform="translate(26.3599, 501.539)" >MODEL</text>
<text fill="#222222"  xml:space="preserve" font-size="13.5904" style="font-family:Monospace;" transform="translate(35.0717, 538.907)" >.lib cornerMOSlv.lib mos_tt</text>
<text fill="#222222"  xml:space="preserve" font-size="13.5904" style="font-family:Monospace;" transform="translate(35.0717, 554.495)" >.lib cornerHBT.lib hbt_typ</text>
<text fill="#222222"  xml:space="preserve" font-size="13.5904" style="font-family:Monospace;" transform="translate(35.0717, 570.083)" >.lib cornerRES.lib res_typ</text>
<text fill="#222222"  xml:space="preserve" font-size="13.5904" transform="translate(26.3599, 22.3901)" >NGSPICE</text>
<text fill="#222222"  xml:space="preserve" font-size="13.5904" style="font-family:Monospace;" transform="translate(35.0717, 59.7578)" >.include bandgap_banba_tb.save</text>
<text fill="#222222"  xml:space="preserve" font-size="13.5904" style="font-family:Monospace;" transform="translate(35.0717, 75.346)" >.control</text>
<text fill="#222222"  xml:space="preserve" font-size="13.5904" style="font-family:Monospace;" transform="translate(35.0717, 90.9341)" >option klu</text>
<text fill="#222222"  xml:space="preserve" font-size="13.5904" style="font-family:Monospace;" transform="translate(35.0717, 106.522)" >option method=gear</text>
<text fill="#222222"  xml:space="preserve" font-size="13.5904" style="font-family:Monospace;" transform="translate(35.0717, 122.111)" >option noacct</text>
<text fill="#222222"  xml:space="preserve" font-size="13.5904" style="font-family:Monospace;" transform="translate(35.0717, 137.699)" >option noinit</text>
<text fill="#222222"  xml:space="preserve" font-size="13.5904" style="font-family:Monospace;" transform="translate(35.0717, 153.287)" >save v(vref)</text>
<text fill="#222222"  xml:space="preserve" font-size="13.5904" style="font-family:Monospace;" transform="translate(35.0717, 168.875)" >save all</text>
<text fill="#222222"  xml:space="preserve" font-size="13.5904" style="font-family:Monospace;" transform="translate(35.0717, 200.051)" >compose temp_vec start=-30 stop=125 step=5</text>
<text fill="#222222"  xml:space="preserve" font-size="13.5904" style="font-family:Monospace;" transform="translate(35.0717, 215.64)" >let vref_vec=vector(length(temp_vec))</text>
<text fill="#222222"  xml:space="preserve" font-size="13.5904" style="font-family:Monospace;" transform="translate(35.0717, 231.228)" >let idx=0</text>
<text fill="#222222"  xml:space="preserve" font-size="13.5904" style="font-family:Monospace;" transform="translate(35.0717, 262.404)" >foreach tmp $&amp;temp_vec</text>
<text fill="#222222"  xml:space="preserve" font-size="13.5904" style="font-family:Monospace;" transform="translate(35.0717, 277.992)" >  option temp=$tmp</text>
<text fill="#222222"  xml:space="preserve" font-size="13.5904" style="font-family:Monospace;" transform="translate(35.0717, 293.581)" >  tran 0.01u 50u</text>
<text fill="#222222"  xml:space="preserve" font-size="13.5904" style="font-family:Monospace;" transform="translate(35.0717, 309.169)" >  meas tran vr FIND v(vref) AT=50u</text>
<text fill="#222222"  xml:space="preserve" font-size="13.5904" style="font-family:Monospace;" transform="translate(35.0717, 324.757)" >  let vref_vec[idx]=vr</text>
<text fill="#222222"  xml:space="preserve" font-size="13.5904" style="font-family:Monospace;" transform="translate(35.0717, 340.345)" >  let idx=idx+1</text>
<text fill="#222222"  xml:space="preserve" font-size="13.5904" style="font-family:Monospace;" transform="translate(35.0717, 355.933)" >end</text>
<text fill="#222222"  xml:space="preserve" font-size="13.5904" style="font-family:Monospace;" transform="translate(35.0717, 387.11)" >plot vref_vec vs temp_vec</text>
<text fill="#222222"  xml:space="preserve" font-size="13.5904" style="font-family:Monospace;" transform="translate(35.0717, 402.698)" >wrdata bandgap_banba.txt vref_vec vs temp_vec</text>
<text fill="#222222"  xml:space="preserve" font-size="13.5904" style="font-family:Monospace;" transform="translate(35.0717, 433.874)" >.endc</text>
<text fill="#222222"  xml:space="preserve" font-size="9.06027" transform="translate(527.288, 306.855)" >Vdd</text>
<text fill="#222222"  xml:space="preserve" font-size="9.06027" transform="translate(527.288, 328.634)" >1.5</text>
<text fill="#0099cc"  xml:space="preserve" font-size="9.06027" transform="translate(516.398, 405.952)" >GND</text>
<text fill="#222222"  xml:space="preserve" font-size="18.1205" transform="translate(366.12, 649.397)" >         bandgap_banba_tb.sch</text>
<text fill="#222222"  xml:space="preserve" font-size="18.1205" transform="translate(366.12, 623.261)" >(c) 2025 Harald Pretl, Apache-2.0 license</text>
<text fill="#222222"  xml:space="preserve" font-size="18.1205" transform="translate(843.996, 623.261)" >2025-10-02  10:37:02</text>
<text fill="#222222"  xml:space="preserve" font-size="45.3013" transform="translate(165.749, 647.942)" >SCHEM</text>
<text fill="#222222"  xml:space="preserve" font-size="18.1205" transform="translate(448.882, 529.999)" >simulate</text>
<text fill="#222222"  xml:space="preserve" font-size="18.1205" transform="translate(675.389, 529.999)" >annotate OP</text>
<text fill="#0099cc"  xml:space="preserve" font-size="14.9494" transform="translate(469.331, 138.511)" >v_dd</text>
<text fill="#0099cc"  xml:space="preserve" font-size="12.2314" transform="translate(970.547, 197.697)" >vref</text>
<text fill="#222222"  xml:space="preserve" font-size="9.06027" transform="translate(614.406, 306.855)" >V1</text>
<text fill="#222222"  xml:space="preserve" font-size="9.06027" transform="translate(614.406, 328.634)" >1.5 pwl(0 0 1u 0 1.001u 1.5)</text>
<text fill="#0099cc"  xml:space="preserve" font-size="14.9494" transform="translate(563.449, 208.205)" >ena</text>
<text fill="#222222"  xml:space="preserve" font-size="13.5904" transform="translate(791.691, 243.67)" >bandgap_banba</text>
<text fill="#222222"  xml:space="preserve" font-size="9.06027" transform="translate(862.692, 173.347)" >xbg</text>
<text fill="#222222"  xml:space="preserve" font-size="9.06027" transform="translate(771.642, 186.85)" >vdd</text>
<text fill="#222222"  xml:space="preserve" font-size="9.06027" transform="translate(740.727, 206.452)" >d_ena</text>
<text fill="#222222"  xml:space="preserve" font-size="9.06027" transform="translate(813.981, 206.452)" >vref_0v6</text>
<text fill="#222222"  xml:space="preserve" font-size="9.06027" transform="translate(771.464, 221.697)" >vss</text>
<text fill="#666600"  xml:space="preserve" font-size="9.06027" transform="translate(987.369, 265.474)" >1</text>
<text fill="#666600"  xml:space="preserve" font-size="9.06027" transform="translate(987.369, 302.499)" >2</text>
<text fill="#222222"  xml:space="preserve" font-size="9.06027" transform="translate(1010.79, 272.008)" >Cload</text>
<text fill="#222222"  xml:space="preserve" font-size="9.06027" transform="translate(1010.79, 282.898)" >10f</text>
<text fill="#222222"  xml:space="preserve" font-size="9.06027" transform="translate(1010.79, 293.787)" >m=1</text>
<path class="l1" d="M509.865 375.945L509.865 393.369"/>
<path class="l1" d="M509.865 341.098L509.865 375.945"/>
<path class="l1" d="M596.983 341.098L596.983 375.945"/>
<path class="l1" d="M509.865 375.945L596.983 375.945"/>
<path class="l1" d="M596.983 201.71L596.983 288.827"/>
<path class="l1" d="M509.865 132.015L509.865 288.827"/>
<path class="l1" d="M779.93 375.945L997.725 375.945"/>
<path class="l1" d="M997.725 201.71L997.725 253.98"/>
<path class="l1" d="M997.725 306.251L997.725 375.945"/>
<path class="l1" d="M779.93 132.015L779.93 175.574"/>
<path class="l1" d="M509.865 132.015L779.93 132.015"/>
<path class="l1" d="M779.93 227.845L779.93 375.945"/>
<path class="l1" d="M596.983 375.945L779.93 375.945"/>
<path class="l1" d="M858.336 201.71L997.725 201.71"/>
<path class="l1" d="M596.983 201.71L736.371 201.71"/>
<circle class="l1" cx="596.983" cy="375.945" r="3.22336"/>
<circle class="l1" cx="779.93" cy="375.945" r="3.22336"/>
<circle class="l1" cx="509.865" cy="375.945" r="3.22336"/>
<circle class="l1" cx="596.983" cy="375.945" r="3.22336"/>
<circle class="l1" cx="596.983" cy="375.945" r="3.22336"/>
<circle class="l1" cx="509.865" cy="375.945" r="3.22336"/>
<circle class="l1" cx="509.865" cy="375.945" r="3.22336"/>
<circle class="l1" cx="779.93" cy="375.945" r="3.22336"/>
<circle class="l1" cx="779.93" cy="375.945" r="3.22336"/>
</svg>
