<svg xmlns="http://www.w3.org/2000/svg" xmlns:xlink="http://www.w3.org/1999/xlink" width="900" height="509" version="1.1">
<style type="text/css">
.l0{
  fill: #ffffff;
  stroke: #ffffff;
  stroke-linecap:round;
  stroke-linejoin:round;
  stroke-width: 0.714783;
}
.l1{
  fill: #0044ee;
  stroke: #0044ee;
  stroke-linecap:round;
  stroke-linejoin:round;
  stroke-width: 0.714783;
}
.l2{
  fill: #aaaaaa; fill-opacity: 0.2;
  stroke: #aaaaaa;
  stroke-linecap:round;
  stroke-linejoin:round;
  stroke-width: 0.714783;
}
.l3{
  fill: #222222; fill-opacity: 0.5;
  stroke: #222222;
  stroke-linecap:round;
  stroke-linejoin:round;
  stroke-width: 0.714783;
}
.l4{
  fill: #229900;
  stroke: #229900;
  stroke-linecap:round;
  stroke-linejoin:round;
  stroke-width: 0.714783;
}
.l5{
  fill: #bb2200;
  stroke: #bb2200;
  stroke-linecap:round;
  stroke-linejoin:round;
  stroke-width: 0.714783;
}
.l6{
  fill: #00ccee; fill-opacity: 0.5;
  stroke: #00ccee;
  stroke-linecap:round;
  stroke-linejoin:round;
  stroke-width: 0.714783;
}
.l7{
  fill: #ff0000; fill-opacity: 0.5;
  stroke: #ff0000;
  stroke-linecap:round;
  stroke-linejoin:round;
  stroke-width: 0.714783;
}
.l8{
  fill: #888800; fill-opacity: 0.5;
  stroke: #888800;
  stroke-linecap:round;
  stroke-linejoin:round;
  stroke-width: 0.714783;
}
.l9{
  fill: #00aaaa; fill-opacity: 0.5;
  stroke: #00aaaa;
  stroke-linecap:round;
  stroke-linejoin:round;
  stroke-width: 0.714783;
}
.l10{
  fill: #880088;
  stroke: #880088;
  stroke-linecap:round;
  stroke-linejoin:round;
  stroke-width: 0.714783;
}
.l11{
  fill: #00ff00; fill-opacity: 0.5;
  stroke: #00ff00;
  stroke-linecap:round;
  stroke-linejoin:round;
  stroke-width: 0.714783;
}
.l12{
  fill: #0000cc; fill-opacity: 0.5;
  stroke: #0000cc;
  stroke-linecap:round;
  stroke-linejoin:round;
  stroke-width: 0.714783;
}
.l13{
  fill: #666600; fill-opacity: 0.5;
  stroke: #666600;
  stroke-linecap:round;
  stroke-linejoin:round;
  stroke-width: 0.714783;
}
.l14{
  fill: #557755; fill-opacity: 0.2;
  stroke: #557755;
  stroke-linecap:round;
  stroke-linejoin:round;
  stroke-width: 0.714783;
}
.l15{
  fill: #aa2222; fill-opacity: 0.5;
  stroke: #aa2222;
  stroke-linecap:round;
  stroke-linejoin:round;
  stroke-width: 0.714783;
}
.l16{
  fill: #7ccc40; fill-opacity: 0.5;
  stroke: #7ccc40;
  stroke-linecap:round;
  stroke-linejoin:round;
  stroke-width: 0.714783;
}
.l17{
  fill: #00ffcc; fill-opacity: 0.2;
  stroke: #00ffcc;
  stroke-linecap:round;
  stroke-linejoin:round;
  stroke-width: 0.714783;
}
.l18{
  fill: #ce0097; fill-opacity: 0.5;
  stroke: #ce0097;
  stroke-linecap:round;
  stroke-linejoin:round;
  stroke-width: 0.714783;
}
.l19{
  fill: #d2d46b; fill-opacity: 0.2;
  stroke: #d2d46b;
  stroke-linecap:round;
  stroke-linejoin:round;
  stroke-width: 0.714783;
}
.l20{
  fill: #ef6158; fill-opacity: 0.2;
  stroke: #ef6158;
  stroke-linecap:round;
  stroke-linejoin:round;
  stroke-width: 0.714783;
}
.l21{
  fill: #fdb200; fill-opacity: 0.2;
  stroke: #fdb200;
  stroke-linecap:round;
  stroke-linejoin:round;
  stroke-width: 0.714783;
}
text {font-family: Sans-Serif;}
</style>
<rect class="l0" x="0" y="0" width="900" height="509"/>
<text fill="#0044ee"  xml:space="preserve" font-size="6.8831" transform="translate(435.109, 308.402)" >GND</text>
<text fill="#0044ee"  xml:space="preserve" font-size="11.3571" transform="translate(398.181, 105.227)" >v_dd</text>
<text fill="#0044ee"  xml:space="preserve" font-size="9.29218" transform="translate(779.119, 150.191)" >vref</text>
<text fill="#0044ee"  xml:space="preserve" font-size="11.3571" transform="translate(470.365, 158.174)" >ena</text>
<text fill="#222222"  xml:space="preserve" font-size="10.3246" transform="translate(62.8257, 381.02)" >MODEL</text>
<text fill="#222222"  xml:space="preserve" font-size="10.3246" style="font-family:Monospace;" transform="translate(69.444, 409.408)" >.lib cornerMOSlv.lib mos_tt</text>
<text fill="#222222"  xml:space="preserve" font-size="10.3246" style="font-family:Monospace;" transform="translate(69.444, 421.25)" >.lib cornerHBT.lib hbt_typ</text>
<text fill="#222222"  xml:space="preserve" font-size="10.3246" style="font-family:Monospace;" transform="translate(69.444, 433.093)" >.lib cornerRES.lib res_typ</text>
<text fill="#222222"  xml:space="preserve" font-size="10.3246" transform="translate(62.8257, 17.0098)" >NGSPICE</text>
<text fill="#222222"  xml:space="preserve" font-size="10.3246" style="font-family:Monospace;" transform="translate(69.444, 45.3981)" >.control</text>
<text fill="#222222"  xml:space="preserve" font-size="10.3246" style="font-family:Monospace;" transform="translate(69.444, 57.2404)" >option klu</text>
<text fill="#222222"  xml:space="preserve" font-size="10.3246" style="font-family:Monospace;" transform="translate(69.444, 69.0828)" >option method=gear</text>
<text fill="#222222"  xml:space="preserve" font-size="10.3246" style="font-family:Monospace;" transform="translate(69.444, 80.9252)" >option noacct</text>
<text fill="#222222"  xml:space="preserve" font-size="10.3246" style="font-family:Monospace;" transform="translate(69.444, 92.7676)" >option noinit</text>
<text fill="#222222"  xml:space="preserve" font-size="10.3246" style="font-family:Monospace;" transform="translate(69.444, 104.61)" >save v(vref)</text>
<text fill="#222222"  xml:space="preserve" font-size="10.3246" style="font-family:Monospace;" transform="translate(69.444, 116.452)" >save all</text>
<text fill="#222222"  xml:space="preserve" font-size="10.3246" style="font-family:Monospace;" transform="translate(69.444, 140.137)" >compose temp_vec start=-30 stop=125 step=5</text>
<text fill="#222222"  xml:space="preserve" font-size="10.3246" style="font-family:Monospace;" transform="translate(69.444, 151.979)" >let vref_vec=vector(length(temp_vec))</text>
<text fill="#222222"  xml:space="preserve" font-size="10.3246" style="font-family:Monospace;" transform="translate(69.444, 163.822)" >let idx=0</text>
<text fill="#222222"  xml:space="preserve" font-size="10.3246" style="font-family:Monospace;" transform="translate(69.444, 187.507)" >foreach tmp $&amp;temp_vec</text>
<text fill="#222222"  xml:space="preserve" font-size="10.3246" style="font-family:Monospace;" transform="translate(69.444, 199.349)" >  option temp=$tmp</text>
<text fill="#222222"  xml:space="preserve" font-size="10.3246" style="font-family:Monospace;" transform="translate(69.444, 211.191)" >  tran 0.01u 50u</text>
<text fill="#222222"  xml:space="preserve" font-size="10.3246" style="font-family:Monospace;" transform="translate(69.444, 223.034)" >  meas tran vr FIND v(vref) AT=50u</text>
<text fill="#222222"  xml:space="preserve" font-size="10.3246" style="font-family:Monospace;" transform="translate(69.444, 234.876)" >  let vref_vec[idx]=vr</text>
<text fill="#222222"  xml:space="preserve" font-size="10.3246" style="font-family:Monospace;" transform="translate(69.444, 246.718)" >  let idx=idx+1</text>
<text fill="#222222"  xml:space="preserve" font-size="10.3246" style="font-family:Monospace;" transform="translate(69.444, 258.561)" >end</text>
<text fill="#222222"  xml:space="preserve" font-size="10.3246" style="font-family:Monospace;" transform="translate(69.444, 282.246)" >plot vref_vec vs temp_vec</text>
<text fill="#222222"  xml:space="preserve" font-size="10.3246" style="font-family:Monospace;" transform="translate(69.444, 294.088)" >wrdata bandgap_banba.txt vref_vec vs temp_vec</text>
<text fill="#222222"  xml:space="preserve" font-size="10.3246" style="font-family:Monospace;" transform="translate(69.444, 317.773)" >.endc</text>
<text fill="#222222"  xml:space="preserve" font-size="6.8831" transform="translate(443.382, 233.118)" >Vdd</text>
<text fill="#222222"  xml:space="preserve" font-size="6.8831" transform="translate(443.382, 249.664)" >1.5</text>
<text fill="#222222"  xml:space="preserve" font-size="13.7662" transform="translate(320.942, 493.348)" >         bandgap_banba_tb.sch</text>
<text fill="#222222"  xml:space="preserve" font-size="13.7662" transform="translate(320.942, 473.493)" >(c) 2025 H. Pretl, Apache-2.0 license</text>
<text fill="#222222"  xml:space="preserve" font-size="13.7662" transform="translate(686.484, 473.493)" >2025-01-07  14:32:17</text>
<text fill="#222222"  xml:space="preserve" font-size="34.4155" transform="translate(168.72, 492.242)" >SCHEM</text>
<text fill="#222222"  xml:space="preserve" font-size="13.7662" transform="translate(383.816, 402.618)" >simulate</text>
<text fill="#222222"  xml:space="preserve" font-size="13.7662" transform="translate(555.894, 402.618)" >annotate OP</text>
<text fill="#222222"  xml:space="preserve" font-size="6.8831" transform="translate(509.565, 233.118)" >V1</text>
<text fill="#222222"  xml:space="preserve" font-size="6.8831" transform="translate(509.565, 249.664)" >1.5 pwl(0 0 1u 0 1.001u 1.5)</text>
<text fill="#222222"  xml:space="preserve" font-size="10.3246" transform="translate(644.249, 185.116)" >bandgap_banba</text>
<text fill="#222222"  xml:space="preserve" font-size="6.8831" transform="translate(698.189, 131.692)" >xbg</text>
<text fill="#222222"  xml:space="preserve" font-size="6.8831" transform="translate(629.933, 141.95)" >vdd</text>
<text fill="#222222"  xml:space="preserve" font-size="6.8831" transform="translate(605.532, 156.842)" >d_ena</text>
<text fill="#222222"  xml:space="preserve" font-size="6.8831" transform="translate(663.57, 156.842)" >vref_0v6</text>
<text fill="#222222"  xml:space="preserve" font-size="6.8831" transform="translate(628.278, 168.424)" >vss</text>
<text fill="#666600"  xml:space="preserve" font-size="6.8831" transform="translate(793.464, 201.681)" >1</text>
<text fill="#666600"  xml:space="preserve" font-size="6.8831" transform="translate(793.464, 229.809)" >2</text>
<text fill="#222222"  xml:space="preserve" font-size="6.8831" transform="translate(810.701, 206.645)" >Cload</text>
<text fill="#222222"  xml:space="preserve" font-size="6.8831" transform="translate(810.701, 214.918)" >10f</text>
<text fill="#222222"  xml:space="preserve" font-size="6.8831" transform="translate(810.701, 223.191)" >m=1</text>
<path class="l4" d="M59.5165 384.882L105.845 384.882"/>
<path class="l4" d="M59.5165 384.882L59.5165 398.119"/>
<path class="l4" d="M59.5165 20.8717L105.845 20.8717"/>
<path class="l4" d="M59.5165 20.8717L59.5165 34.1085"/>
<path class="l4" d="M431.799 224.386L435.109 224.386"/>
<path class="l4" d="M433.454 222.732L433.454 226.041"/>
<path class="l4" d="M430.145 219.423L430.145 259.133"/>
<circle class="l4" cx="430.145" cy="239.278" r="9.92755" style="fill:none;" />
<path class="l4" d="M430.145 298.843L430.145 307.116"/>
<path class="l4" d="M426.836 307.116L433.454 307.116"/>
<path class="l4" d="M430.145 310.425L433.454 307.116"/>
<path class="l4" d="M426.836 307.116L430.145 310.425"/>
<path class="l4" d="M377.198 398.119L357.343 389.846L357.343 394.809L337.488 394.809L344.106 398.119L337.488 401.428L357.343 401.428L357.343 406.391L377.198 398.119"/>
<path class="l4" d="M549.275 398.119L529.42 389.846L529.42 394.809L509.565 394.809L516.184 398.119L509.565 401.428L529.42 401.428L529.42 406.391L549.275 398.119"/>
<path class="l4" d="M497.983 224.386L501.292 224.386"/>
<path class="l4" d="M499.638 222.732L499.638 226.041"/>
<path class="l4" d="M496.329 219.423L496.329 259.133"/>
<circle class="l4" cx="496.329" cy="239.278" r="9.92755" style="fill:none;" />
<path class="l4" d="M602.222 133.384L694.879 133.384"/>
<path class="l4" d="M602.222 173.094L694.879 173.094"/>
<path class="l4" d="M602.222 133.384L602.222 173.094"/>
<path class="l4" d="M694.879 133.384L694.879 173.094"/>
<path class="l4" d="M648.551 158.203L648.551 159.857"/>
<path class="l4" d="M648.551 146.621L648.551 148.275"/>
<path class="l4" d="M646.896 151.584L650.206 151.584"/>
<path class="l4" d="M646.896 154.894L650.206 154.894"/>
<circle class="l4" cx="648.551" cy="153.239" r="4.67989" style="fill:none;" />
<path class="l4" d="M800.773 216.113L800.773 232.659"/>
<path class="l4" d="M800.773 192.949L800.773 209.495"/>
<path class="l4" d="M794.155 209.495L807.392 209.495"/>
<path class="l4" d="M794.155 216.113L807.392 216.113"/>
<path class="l4" d="M802.428 197.913L805.737 197.913"/>
<path class="l4" d="M804.083 196.258L804.083 199.568"/>
<path class="l5" d="M428.49 217.768L431.799 217.768L431.799 221.077L428.49 221.077L428.49 217.768z"/>
<path class="l5" d="M428.49 257.478L431.799 257.478L431.799 260.787L428.49 260.787L428.49 257.478z"/>
<path class="l5" d="M428.49 297.188L431.799 297.188L431.799 300.498L428.49 300.498L428.49 297.188z"/>
<path class="l5" d="M158.792 467.611L158.585 467.818L158.378 468.025L158.171 468.232L157.965 468.439L157.758 468.645L157.551 468.852L157.344 469.059L157.137 469.266L156.931 469.473L156.724 469.68L156.517 469.886L156.31 470.093L156.103 470.3L155.896 470.507L155.69 470.714L155.483 470.921L155.276 471.127L155.069 471.334L154.862 471.541L154.655 471.748L154.449 471.955L154.242 472.161L154.035 472.368L153.828 472.575L153.621 472.782L153.415 472.989L153.208 473.196L153.001 473.402L152.794 473.609L152.587 473.816L152.38 474.023L152.174 474.23L152.174 474.23L151.973 474.437L151.786 474.643L151.611 474.85L151.45 475.057L151.301 475.264L151.165 475.471L151.043 475.677L150.933 475.884L150.836 476.091L150.752 476.298L150.681 476.505L150.622 476.712L150.577 476.918L150.545 477.125L150.525 477.332L150.519 477.539L150.525 477.746L150.545 477.953L150.577 478.159L150.622 478.366L150.681 478.573L150.752 478.78L150.836 478.987L150.933 479.193L151.043 479.4L151.165 479.607L151.301 479.814L151.45 480.021L151.611 480.228L151.786 480.434L151.973 480.641L152.174 480.848L152.174 480.848L152.381 481.056L152.59 481.265L152.801 481.476L153.014 481.688L153.228 481.902L153.444 482.118L153.661 482.335L153.88 482.554L154.1 482.775L154.323 482.997L154.546 483.221L154.772 483.446L154.999 483.673L155.227 483.902L155.458 484.132L155.69 484.364L155.923 484.598L156.158 484.833L156.395 485.069L156.633 485.308L156.873 485.548L157.115 485.789L157.358 486.032L157.603 486.277L157.849 486.524L158.097 486.772L158.347 487.021L158.598 487.273L158.851 487.525L159.105 487.78L159.362 488.036L159.619 488.294L159.619 488.294L159.876 488.551L160.13 488.804L160.38 489.055L160.628 489.302L160.872 489.546L161.112 489.787L161.35 490.024L161.584 490.259L161.815 490.49L162.043 490.717L162.268 490.942L162.489 491.163L162.707 491.382L162.922 491.596L163.134 491.808L163.342 492.017L163.547 492.222L163.749 492.424L163.948 492.622L164.144 492.818L164.336 493.01L164.525 493.199L164.711 493.385L164.893 493.568L165.073 493.747L165.249 493.923L165.422 494.096L165.591 494.266L165.758 494.432L165.921 494.595L166.081 494.755L166.238 494.912L166.238 494.912L166.388 495.065L166.528 495.213L166.659 495.356L166.781 495.494L166.892 495.627L166.994 495.756L167.086 495.879L167.168 495.998L167.241 496.112L167.304 496.221L167.357 496.325L167.401 496.424L167.435 496.519L167.459 496.609L167.474 496.694L167.479 496.774L167.474 496.849L167.459 496.919L167.435 496.984L167.401 497.045L167.357 497.101L167.304 497.152L167.241 497.198L167.168 497.239L167.086 497.275L166.994 497.307L166.892 497.333L166.781 497.355L166.659 497.372L166.528 497.384L166.388 497.392L166.238 497.394L166.238 497.394L166.082 497.394L165.927 497.394L165.772 497.394L165.617 497.394L165.462 497.394L165.307 497.394L165.152 497.394L164.997 497.394L164.842 497.394L164.686 497.394L164.531 497.394L164.376 497.394L164.221 497.394L164.066 497.394L163.911 497.394L163.756 497.394L163.601 497.394L163.445 497.394L163.29 497.394L163.135 497.394L162.98 497.394L162.825 497.394L162.67 497.394L162.515 497.394L162.36 497.394L162.205 497.394L162.049 497.394L161.894 497.394L161.739 497.394L161.584 497.394L161.429 497.394L161.274 497.394L161.274 497.394L161.12 497.394L160.967 497.394L160.816 497.394L160.666 497.394L160.518 497.394L160.372 497.394L160.228 497.394L160.085 497.394L159.943 497.394L159.803 497.394L159.665 497.394L159.529 497.394L159.394 497.394L159.261 497.394L159.129 497.394L158.999 497.394L158.87 497.394L158.743 497.394L158.618 497.394L158.495 497.394L158.373 497.394L158.252 497.394L158.134 497.394L158.016 497.394L157.901 497.394L157.787 497.394L157.675 497.394L157.564 497.394L157.455 497.394L157.347 497.394L157.242 497.394L157.137 497.394L157.137 497.394L157.034 497.392L156.931 497.388L156.827 497.379L156.724 497.368L156.62 497.354L156.517 497.336L156.413 497.315L156.31 497.291L156.207 497.263L156.103 497.232L156 497.198L155.896 497.161L155.793 497.121L155.69 497.077L155.586 497.03L155.483 496.98L155.379 496.927L155.276 496.87L155.173 496.811L155.069 496.748L154.966 496.681L154.862 496.612L154.759 496.539L154.655 496.463L154.552 496.384L154.449 496.302L154.345 496.216L154.242 496.127L154.138 496.035L154.035 495.94L153.932 495.841L153.828 495.739L153.828 495.739L153.725 495.636L153.621 495.533L153.518 495.429L153.415 495.326L153.311 495.222L153.208 495.119L153.104 495.016L153.001 494.912L152.897 494.809L152.794 494.705L152.691 494.602L152.587 494.498L152.484 494.395L152.38 494.292L152.277 494.188L152.174 494.085L152.07 493.981L151.967 493.878L151.863 493.775L151.76 493.671L151.657 493.568L151.553 493.464L151.45 493.361L151.346 493.258L151.243 493.154L151.139 493.051L151.036 492.947L150.933 492.844L150.829 492.74L150.726 492.637L150.622 492.534L150.519 492.43L150.519 492.43L150.414 492.325L150.306 492.217L150.194 492.105L150.08 491.991L149.962 491.873L149.84 491.752L149.716 491.627L149.588 491.5L149.457 491.369L149.323 491.235L149.186 491.097L149.045 490.957L148.902 490.813L148.755 490.666L148.604 490.515L148.451 490.362L148.294 490.205L148.134 490.045L147.971 489.882L147.804 489.716L147.635 489.546L147.462 489.373L147.286 489.197L147.106 489.018L146.924 488.835L146.738 488.649L146.549 488.46L146.357 488.268L146.161 488.072L145.962 487.874L145.76 487.672L145.555 487.466L145.555 487.466L145.348 487.266L145.142 487.079L144.935 486.904L144.728 486.743L144.521 486.594L144.314 486.458L144.107 486.335L143.901 486.225L143.694 486.129L143.487 486.045L143.28 485.973L143.073 485.915L142.867 485.87L142.66 485.838L142.453 485.818L142.246 485.812L142.039 485.818L141.832 485.838L141.626 485.87L141.419 485.915L141.212 485.973L141.005 486.045L140.798 486.129L140.591 486.225L140.385 486.335L140.178 486.458L139.971 486.594L139.764 486.743L139.557 486.904L139.351 487.079L139.144 487.266L138.937 487.466L138.937 487.466L138.732 487.672L138.53 487.874L138.331 488.072L138.135 488.268L137.943 488.46L137.754 488.649L137.568 488.835L137.386 489.018L137.206 489.197L137.03 489.373L136.857 489.546L136.688 489.716L136.521 489.882L136.358 490.045L136.198 490.205L136.041 490.362L135.888 490.515L135.738 490.666L135.591 490.813L135.447 490.957L135.306 491.097L135.169 491.235L135.035 491.369L134.904 491.5L134.776 491.627L134.652 491.752L134.531 491.873L134.413 491.991L134.298 492.105L134.186 492.217L134.078 492.325L133.973 492.43L133.973 492.43L133.87 492.534L133.766 492.637L133.663 492.74L133.559 492.844L133.456 492.947L133.353 493.051L133.249 493.154L133.146 493.258L133.042 493.361L132.939 493.464L132.836 493.568L132.732 493.671L132.629 493.775L132.525 493.878L132.422 493.981L132.318 494.085L132.215 494.188L132.112 494.292L132.008 494.395L131.905 494.498L131.801 494.602L131.698 494.705L131.595 494.809L131.491 494.912L131.388 495.016L131.284 495.119L131.181 495.222L131.078 495.326L130.974 495.429L130.871 495.533L130.767 495.636L130.664 495.739L130.664 495.739L130.56 495.841L130.457 495.94L130.354 496.035L130.25 496.127L130.147 496.216L130.043 496.302L129.94 496.384L129.837 496.463L129.733 496.539L129.63 496.612L129.526 496.681L129.423 496.748L129.32 496.811L129.216 496.87L129.113 496.927L129.009 496.98L128.906 497.03L128.802 497.077L128.699 497.121L128.596 497.161L128.492 497.198L128.389 497.232L128.285 497.263L128.182 497.291L128.079 497.315L127.975 497.336L127.872 497.354L127.768 497.368L127.665 497.379L127.562 497.388L127.458 497.392L127.355 497.394L127.355 497.394L127.251 497.394L127.145 497.394L127.037 497.394L126.928 497.394L126.817 497.394L126.705 497.394L126.591 497.394L126.476 497.394L126.359 497.394L126.24 497.394L126.119 497.394L125.997 497.394L125.874 497.394L125.749 497.394L125.622 497.394L125.493 497.394L125.363 497.394L125.232 497.394L125.098 497.394L124.963 497.394L124.827 497.394L124.689 497.394L124.549 497.394L124.407 497.394L124.264 497.394L124.12 497.394L123.974 497.394L123.826 497.394L123.676 497.394L123.525 497.394L123.373 497.394L123.218 497.394L123.218 497.394L123.063 497.394L122.908 497.394L122.753 497.394L122.598 497.394L122.443 497.394L122.288 497.394L122.132 497.394L121.977 497.394L121.822 497.394L121.667 497.394L121.512 497.394L121.357 497.394L121.202 497.394L121.047 497.394L120.891 497.394L120.736 497.394L120.581 497.394L120.426 497.394L120.271 497.394L120.116 497.394L119.961 497.394L119.806 497.394L119.651 497.394L119.495 497.394L119.34 497.394L119.185 497.394L119.03 497.394L118.875 497.394L118.72 497.394L118.565 497.394L118.41 497.394L118.254 497.394L118.254 497.394L118.104 497.392L117.964 497.384L117.833 497.372L117.712 497.355L117.6 497.333L117.498 497.307L117.406 497.275L117.324 497.239L117.251 497.198L117.188 497.152L117.135 497.101L117.091 497.045L117.057 496.984L117.033 496.919L117.018 496.849L117.014 496.774L117.018 496.694L117.033 496.609L117.057 496.519L117.091 496.424L117.135 496.325L117.188 496.221L117.251 496.112L117.324 495.998L117.406 495.879L117.498 495.756L117.6 495.627L117.712 495.494L117.833 495.356L117.964 495.213L118.104 495.065L118.254 494.912L118.254 494.912L118.411 494.755L118.571 494.595L118.734 494.432L118.901 494.266L119.07 494.096L119.243 493.923L119.419 493.747L119.599 493.568L119.781 493.385L119.967 493.199L120.156 493.01L120.349 492.818L120.544 492.622L120.743 492.424L120.945 492.222L121.15 492.017L121.358 491.808L121.57 491.596L121.785 491.382L122.003 491.163L122.225 490.942L122.449 490.717L122.677 490.49L122.908 490.259L123.142 490.024L123.38 489.787L123.621 489.546L123.865 489.302L124.112 489.055L124.362 488.804L124.616 488.551L124.873 488.294L124.873 488.294L125.131 488.036L125.387 487.78L125.641 487.525L125.894 487.273L126.145 487.021L126.395 486.772L126.643 486.524L126.889 486.277L127.134 486.032L127.377 485.789L127.619 485.548L127.859 485.308L128.097 485.069L128.334 484.833L128.569 484.598L128.802 484.364L129.034 484.132L129.265 483.902L129.493 483.673L129.72 483.446L129.946 483.221L130.169 482.997L130.392 482.775L130.612 482.554L130.831 482.335L131.048 482.118L131.264 481.902L131.478 481.688L131.691 481.476L131.902 481.265L132.111 481.056L132.318 480.848L132.318 480.848L132.519 480.641L132.706 480.434L132.881 480.228L133.042 480.021L133.191 479.814L133.327 479.607L133.45 479.4L133.559 479.193L133.656 478.987L133.74 478.78L133.812 478.573L133.87 478.366L133.915 478.159L133.947 477.953L133.967 477.746L133.973 477.539L133.967 477.332L133.947 477.125L133.915 476.918L133.87 476.712L133.812 476.505L133.74 476.298L133.656 476.091L133.559 475.884L133.45 475.677L133.327 475.471L133.191 475.264L133.042 475.057L132.881 474.85L132.706 474.643L132.519 474.437L132.318 474.23L132.318 474.23L132.111 474.022L131.902 473.813L131.691 473.602L131.478 473.389L131.264 473.175L131.048 472.96L130.831 472.742L130.612 472.523L130.392 472.303L130.169 472.081L129.946 471.857L129.72 471.631L129.493 471.404L129.265 471.176L129.034 470.946L128.802 470.714L128.569 470.48L128.334 470.245L128.097 470.008L127.859 469.77L127.619 469.53L127.377 469.289L127.134 469.045L126.889 468.801L126.643 468.554L126.395 468.306L126.145 468.056L125.894 467.805L125.641 467.552L125.387 467.298L125.131 467.042L124.873 466.784L124.873 466.784L124.616 466.527L124.362 466.273L124.112 466.023L123.865 465.776L123.621 465.532L123.38 465.291L123.142 465.054L122.908 464.819L122.677 464.588L122.449 464.36L122.225 464.136L122.003 463.914L121.785 463.696L121.57 463.481L121.358 463.27L121.15 463.061L120.945 462.856L120.743 462.654L120.544 462.455L120.349 462.26L120.156 462.067L119.967 461.878L119.781 461.693L119.599 461.51L119.419 461.331L119.243 461.155L119.07 460.982L118.901 460.812L118.734 460.646L118.571 460.482L118.411 460.322L118.254 460.166L118.254 460.166L118.104 460.013L117.964 459.865L117.833 459.722L117.712 459.584L117.6 459.451L117.498 459.322L117.406 459.199L117.324 459.08L117.251 458.966L117.188 458.857L117.135 458.753L117.091 458.653L117.057 458.559L117.033 458.469L117.018 458.384L117.014 458.304L117.018 458.229L117.033 458.159L117.057 458.093L117.091 458.033L117.135 457.977L117.188 457.926L117.251 457.88L117.324 457.839L117.406 457.803L117.498 457.771L117.6 457.744L117.712 457.723L117.833 457.706L117.964 457.693L118.104 457.686L118.254 457.684L118.254 457.684L118.41 457.684L118.565 457.684L118.72 457.684L118.875 457.684L119.03 457.684L119.185 457.684L119.34 457.684L119.495 457.684L119.651 457.684L119.806 457.684L119.961 457.684L120.116 457.684L120.271 457.684L120.426 457.684L120.581 457.684L120.736 457.684L120.891 457.684L121.047 457.684L121.202 457.684L121.357 457.684L121.512 457.684L121.667 457.684L121.822 457.684L121.977 457.684L122.132 457.684L122.288 457.684L122.443 457.684L122.598 457.684L122.753 457.684L122.908 457.684L123.063 457.684L123.218 457.684L123.218 457.684L123.373 457.684L123.525 457.684L123.676 457.684L123.826 457.684L123.974 457.684L124.12 457.684L124.264 457.684L124.407 457.684L124.549 457.684L124.689 457.684L124.827 457.684L124.963 457.684L125.098 457.684L125.232 457.684L125.363 457.684L125.493 457.684L125.622 457.684L125.749 457.684L125.874 457.684L125.997 457.684L126.119 457.684L126.24 457.684L126.359 457.684L126.476 457.684L126.591 457.684L126.705 457.684L126.817 457.684L126.928 457.684L127.037 457.684L127.145 457.684L127.251 457.684L127.355 457.684L127.355 457.684L127.458 457.685L127.562 457.69L127.665 457.698L127.768 457.71L127.872 457.724L127.975 457.742L128.079 457.763L128.182 457.787L128.285 457.815L128.389 457.845L128.492 457.879L128.596 457.916L128.699 457.957L128.802 458L128.906 458.047L129.009 458.097L129.113 458.151L129.216 458.207L129.32 458.267L129.423 458.33L129.526 458.396L129.63 458.466L129.733 458.539L129.837 458.615L129.94 458.694L130.043 458.776L130.147 458.862L130.25 458.951L130.354 459.043L130.457 459.138L130.56 459.237L130.664 459.338L130.664 459.338L130.767 459.442L130.871 459.545L130.974 459.649L131.078 459.752L131.181 459.855L131.284 459.959L131.388 460.062L131.491 460.166L131.595 460.269L131.698 460.373L131.801 460.476L131.905 460.579L132.008 460.683L132.112 460.786L132.215 460.89L132.318 460.993L132.422 461.096L132.525 461.2L132.629 461.303L132.732 461.407L132.836 461.51L132.939 461.613L133.042 461.717L133.146 461.82L133.249 461.924L133.353 462.027L133.456 462.131L133.559 462.234L133.663 462.337L133.766 462.441L133.87 462.544L133.973 462.648L133.973 462.648L134.078 462.753L134.186 462.861L134.298 462.972L134.413 463.087L134.531 463.205L134.652 463.326L134.776 463.451L134.904 463.578L135.035 463.709L135.169 463.843L135.306 463.981L135.447 464.121L135.591 464.265L135.738 464.412L135.888 464.562L136.041 464.716L136.198 464.873L136.358 465.033L136.521 465.196L136.688 465.362L136.857 465.532L137.03 465.705L137.206 465.881L137.386 466.06L137.568 466.243L137.754 466.429L137.943 466.618L138.135 466.81L138.331 467.005L138.53 467.204L138.732 467.406L138.937 467.611L138.937 467.611L139.144 467.812L139.351 467.999L139.557 468.174L139.764 468.335L139.971 468.484L140.178 468.62L140.385 468.742L140.591 468.852L140.798 468.949L141.005 469.033L141.212 469.104L141.419 469.163L141.626 469.208L141.832 469.24L142.039 469.259L142.246 469.266L142.453 469.259L142.66 469.24L142.867 469.208L143.073 469.163L143.28 469.104L143.487 469.033L143.694 468.949L143.901 468.852L144.107 468.742L144.314 468.62L144.521 468.484L144.728 468.335L144.935 468.174L145.142 467.999L145.348 467.812L145.555 467.611L145.555 467.611L145.76 467.406L145.962 467.204L146.161 467.005L146.357 466.81L146.549 466.618L146.738 466.429L146.924 466.243L147.106 466.06L147.286 465.881L147.462 465.705L147.635 465.532L147.804 465.362L147.971 465.196L148.134 465.033L148.294 464.873L148.451 464.716L148.604 464.562L148.755 464.412L148.902 464.265L149.045 464.121L149.186 463.981L149.323 463.843L149.457 463.709L149.588 463.578L149.716 463.451L149.84 463.326L149.962 463.205L150.08 463.087L150.194 462.972L150.306 462.861L150.414 462.753L150.519 462.648L150.519 462.648L150.622 462.544L150.726 462.441L150.829 462.337L150.933 462.234L151.036 462.131L151.139 462.027L151.243 461.924L151.346 461.82L151.45 461.717L151.553 461.613L151.657 461.51L151.76 461.407L151.863 461.303L151.967 461.2L152.07 461.096L152.174 460.993L152.277 460.89L152.38 460.786L152.484 460.683L152.587 460.579L152.691 460.476L152.794 460.373L152.897 460.269L153.001 460.166L153.104 460.062L153.208 459.959L153.311 459.855L153.415 459.752L153.518 459.649L153.621 459.545L153.725 459.442L153.828 459.338L153.828 459.338L153.932 459.237L154.035 459.138L154.138 459.043L154.242 458.951L154.345 458.862L154.449 458.776L154.552 458.694L154.655 458.615L154.759 458.539L154.862 458.466L154.966 458.396L155.069 458.33L155.173 458.267L155.276 458.207L155.379 458.151L155.483 458.097L155.586 458.047L155.69 458L155.793 457.957L155.896 457.916L156 457.879L156.103 457.845L156.207 457.815L156.31 457.787L156.413 457.763L156.517 457.742L156.62 457.724L156.724 457.71L156.827 457.698L156.931 457.69L157.034 457.685L157.137 457.684L157.137 457.684L157.242 457.684L157.347 457.684L157.455 457.684L157.564 457.684L157.675 457.684L157.787 457.684L157.901 457.684L158.016 457.684L158.134 457.684L158.252 457.684L158.373 457.684L158.495 457.684L158.618 457.684L158.743 457.684L158.87 457.684L158.999 457.684L159.129 457.684L159.261 457.684L159.394 457.684L159.529 457.684L159.665 457.684L159.803 457.684L159.943 457.684L160.085 457.684L160.228 457.684L160.372 457.684L160.518 457.684L160.666 457.684L160.816 457.684L160.967 457.684L161.12 457.684L161.274 457.684L161.274 457.684L161.429 457.684L161.584 457.684L161.739 457.684L161.894 457.684L162.049 457.684L162.205 457.684L162.36 457.684L162.515 457.684L162.67 457.684L162.825 457.684L162.98 457.684L163.135 457.684L163.29 457.684L163.445 457.684L163.601 457.684L163.756 457.684L163.911 457.684L164.066 457.684L164.221 457.684L164.376 457.684L164.531 457.684L164.686 457.684L164.842 457.684L164.997 457.684L165.152 457.684L165.307 457.684L165.462 457.684L165.617 457.684L165.772 457.684L165.927 457.684L166.082 457.684L166.238 457.684L166.238 457.684L166.388 457.686L166.528 457.693L166.659 457.706L166.781 457.723L166.892 457.744L166.994 457.771L167.086 457.803L167.168 457.839L167.241 457.88L167.304 457.926L167.357 457.977L167.401 458.033L167.435 458.093L167.459 458.159L167.474 458.229L167.479 458.304L167.474 458.384L167.459 458.469L167.435 458.559L167.401 458.653L167.357 458.753L167.304 458.857L167.241 458.966L167.168 459.08L167.086 459.199L166.994 459.322L166.892 459.451L166.781 459.584L166.659 459.722L166.528 459.865L166.388 460.013L166.238 460.166L166.238 460.166L166.08 460.323L165.918 460.486L165.75 460.653L165.578 460.825L165.401 461.002L165.22 461.184L165.033 461.37L164.842 461.562L164.645 461.758L164.444 461.959L164.238 462.165L164.027 462.376L163.811 462.592L163.591 462.812L163.366 463.038L163.135 463.268L162.9 463.503L162.66 463.743L162.415 463.988L162.166 464.238L161.911 464.492L161.652 464.751L161.388 465.016L161.119 465.285L160.845 465.558L160.566 465.837L160.283 466.121L159.994 466.409L159.701 466.702L159.403 467.001L159.1 467.304L158.792 467.611"/>
<path class="l5" d="M429.318 99.4648L430.972 99.4648L430.972 101.119L429.318 101.119L429.318 99.4648z"/>
<path class="l5" d="M799.946 152.412L801.601 152.412L801.601 154.066L799.946 154.066L799.946 152.412z"/>
<path class="l5" d="M494.674 217.768L497.983 217.768L497.983 221.077L494.674 221.077L494.674 217.768z"/>
<path class="l5" d="M494.674 257.478L497.983 257.478L497.983 260.787L494.674 260.787L494.674 257.478z"/>
<path class="l5" d="M495.501 152.412L497.156 152.412L497.156 154.066L495.501 154.066L495.501 152.412z"/>
<path class="l5" d="M633.66 131.729L636.969 131.729L636.969 135.039L633.66 135.039L633.66 131.729z"/>
<path class="l5" d="M600.568 151.584L603.877 151.584L603.877 154.894L600.568 154.894L600.568 151.584z"/>
<path class="l5" d="M693.225 151.584L696.534 151.584L696.534 154.894L693.225 154.894L693.225 151.584z"/>
<path class="l5" d="M633.66 171.44L636.969 171.44L636.969 174.749L633.66 174.749L633.66 171.44z"/>
<path class="l5" d="M799.119 191.295L802.428 191.295L802.428 194.604L799.119 194.604L799.119 191.295z"/>
<path class="l5" d="M799.119 231.005L802.428 231.005L802.428 234.314L799.119 234.314L799.119 231.005z"/>
<path class="l6" d="M314.324 477.539L840.484 477.539"/>
<path class="l6" d="M59.5165 477.539L102.536 477.539"/>
<path class="l1" d="M430.145 285.606L430.145 298.843"/>
<path class="l1" d="M430.145 259.133L430.145 285.606"/>
<path class="l1" d="M496.329 259.133L496.329 285.606"/>
<path class="l1" d="M430.145 285.606L496.329 285.606"/>
<path class="l1" d="M496.329 153.239L496.329 219.423"/>
<path class="l1" d="M430.145 100.292L430.145 219.423"/>
<path class="l1" d="M635.314 285.606L800.773 285.606"/>
<path class="l1" d="M800.773 153.239L800.773 192.949"/>
<path class="l1" d="M800.773 232.659L800.773 285.606"/>
<path class="l1" d="M635.314 100.292L635.314 133.384"/>
<path class="l1" d="M430.145 100.292L635.314 100.292"/>
<path class="l1" d="M635.314 173.094L635.314 285.606"/>
<path class="l1" d="M496.329 285.606L635.314 285.606"/>
<path class="l1" d="M694.879 153.239L800.773 153.239"/>
<path class="l1" d="M496.329 153.239L602.222 153.239"/>
<circle class="l1" cx="496.329" cy="285.606" r="2.44879"/>
<circle class="l1" cx="635.314" cy="285.606" r="2.44879"/>
<circle class="l1" cx="430.145" cy="285.606" r="2.44879"/>
<circle class="l1" cx="496.329" cy="285.606" r="2.44879"/>
<circle class="l1" cx="496.329" cy="285.606" r="2.44879"/>
<circle class="l1" cx="430.145" cy="285.606" r="2.44879"/>
<circle class="l1" cx="430.145" cy="285.606" r="2.44879"/>
<circle class="l1" cx="635.314" cy="285.606" r="2.44879"/>
<circle class="l1" cx="635.314" cy="285.606" r="2.44879"/>
</svg>
