<svg xmlns="http://www.w3.org/2000/svg" xmlns:xlink="http://www.w3.org/1999/xlink" width="900" height="532" version="1.1">
<style type="text/css">
.l0{
  fill: #ffffff;
  stroke: #ffffff;
  stroke-linecap:round;
  stroke-linejoin:round;
  stroke-width: 0.641486;
}
.l1{
  fill: #0055ee;
  stroke: #0055ee;
  stroke-linecap:round;
  stroke-linejoin:round;
  stroke-width: 0.641486;
}
.l2{
  fill: #aaaaaa; fill-opacity: 0.2;
  stroke: #aaaaaa;
  stroke-linecap:round;
  stroke-linejoin:round;
  stroke-width: 0.641486;
}
.l3{
  fill: #222222; fill-opacity: 0.5;
  stroke: #222222;
  stroke-linecap:round;
  stroke-linejoin:round;
  stroke-width: 0.641486;
}
.l4{
  fill: #229900;
  stroke: #229900;
  stroke-linecap:round;
  stroke-linejoin:round;
  stroke-width: 0.641486;
}
.l5{
  fill: #bb2200;
  stroke: #bb2200;
  stroke-linecap:round;
  stroke-linejoin:round;
  stroke-width: 0.641486;
}
.l6{
  fill: #0055ee; fill-opacity: 0.5;
  stroke: #0055ee;
  stroke-linecap:round;
  stroke-linejoin:round;
  stroke-width: 0.641486;
}
.l7{
  fill: #ff0000; fill-opacity: 0.5;
  stroke: #ff0000;
  stroke-linecap:round;
  stroke-linejoin:round;
  stroke-width: 0.641486;
}
.l8{
  fill: #888800; fill-opacity: 0.5;
  stroke: #888800;
  stroke-linecap:round;
  stroke-linejoin:round;
  stroke-width: 0.641486;
}
.l9{
  fill: #00aaaa; fill-opacity: 0.5;
  stroke: #00aaaa;
  stroke-linecap:round;
  stroke-linejoin:round;
  stroke-width: 0.641486;
}
.l10{
  fill: #880088;
  stroke: #880088;
  stroke-linecap:round;
  stroke-linejoin:round;
  stroke-width: 0.641486;
}
.l11{
  fill: #00ff00; fill-opacity: 0.5;
  stroke: #00ff00;
  stroke-linecap:round;
  stroke-linejoin:round;
  stroke-width: 0.641486;
}
.l12{
  fill: #0000cc; fill-opacity: 0.5;
  stroke: #0000cc;
  stroke-linecap:round;
  stroke-linejoin:round;
  stroke-width: 0.641486;
}
.l13{
  fill: #666600; fill-opacity: 0.5;
  stroke: #666600;
  stroke-linecap:round;
  stroke-linejoin:round;
  stroke-width: 0.641486;
}
.l14{
  fill: #557755; fill-opacity: 0.2;
  stroke: #557755;
  stroke-linecap:round;
  stroke-linejoin:round;
  stroke-width: 0.641486;
}
.l15{
  fill: #aa2222; fill-opacity: 0.5;
  stroke: #aa2222;
  stroke-linecap:round;
  stroke-linejoin:round;
  stroke-width: 0.641486;
}
.l16{
  fill: #7ccc40; fill-opacity: 0.5;
  stroke: #7ccc40;
  stroke-linecap:round;
  stroke-linejoin:round;
  stroke-width: 0.641486;
}
.l17{
  fill: #00ffcc; fill-opacity: 0.2;
  stroke: #00ffcc;
  stroke-linecap:round;
  stroke-linejoin:round;
  stroke-width: 0.641486;
}
.l18{
  fill: #ce0097; fill-opacity: 0.5;
  stroke: #ce0097;
  stroke-linecap:round;
  stroke-linejoin:round;
  stroke-width: 0.641486;
}
.l19{
  fill: #d2d46b; fill-opacity: 0.2;
  stroke: #d2d46b;
  stroke-linecap:round;
  stroke-linejoin:round;
  stroke-width: 0.641486;
}
.l20{
  fill: #ef6158; fill-opacity: 0.2;
  stroke: #ef6158;
  stroke-linecap:round;
  stroke-linejoin:round;
  stroke-width: 0.641486;
}
.l21{
  fill: #fdb200; fill-opacity: 0.2;
  stroke: #fdb200;
  stroke-linecap:round;
  stroke-linejoin:round;
  stroke-width: 0.641486;
}
text {font-family: Sans-Serif;}
</style>
<rect class="l0" x="0" y="0" width="900" height="532"/>
<path class="l4" d="M119.468 499.786L119.468 514.041"/>
<path class="l4" d="M114.717 506.914L119.468 506.914"/>
<path class="l4" d="M128.972 440.389L162.234 440.389"/>
<path class="l4" d="M128.972 440.389L128.972 449.893"/>
<path class="l4" d="M128.972 255.071L162.234 255.071"/>
<path class="l4" d="M128.972 255.071L128.972 264.574"/>
<path class="l4" d="M310.726 334.663L313.102 334.663"/>
<path class="l4" d="M311.914 333.475L311.914 335.851"/>
<path class="l4" d="M309.538 331.099L309.538 359.609"/>
<circle class="l4" cx="309.538" cy="345.354" r="7.12762" style="fill:none;" />
<path class="l4" d="M309.538 388.12L309.538 394.06"/>
<path class="l4" d="M307.162 394.06L311.914 394.06"/>
<path class="l4" d="M309.538 396.436L311.914 394.06"/>
<path class="l4" d="M307.162 394.06L309.538 396.436"/>
<path class="l4" d="M366.559 449.893L352.304 443.953L352.304 447.517L338.049 447.517L342.801 449.893L338.049 452.269L352.304 452.269L352.304 455.832L366.559 449.893"/>
<path class="l4" d="M480.601 449.893L466.346 443.953L466.346 447.517L452.091 447.517L456.843 449.893L452.091 452.269L466.346 452.269L466.346 455.832L480.601 449.893"/>
<path class="l4" d="M404.573 331.099L404.573 359.609"/>
<path class="l4" d="M404.573 345.354L414.077 345.354"/>
<path class="l4" d="M395.07 331.099L399.822 335.851"/>
<path class="l4" d="M395.07 359.609L404.573 350.106"/>
<path class="l4" d="M404.573 340.602L397.446 338.227L402.197 333.475L404.573 340.602"/>
<path class="l4" d="M594.643 331.099L594.643 359.609"/>
<path class="l4" d="M585.14 345.354L594.643 345.354"/>
<path class="l4" d="M599.395 335.851L604.147 331.099"/>
<path class="l4" d="M594.643 350.106L604.147 359.609"/>
<path class="l4" d="M594.643 340.602L601.771 338.227L597.019 333.475L594.643 340.602"/>
<path class="l4" d="M401.009 239.628L401.009 261.011"/>
<path class="l4" d="M395.07 236.064L395.07 242.004"/>
<path class="l4" d="M395.07 258.635L395.07 264.574"/>
<path class="l4" d="M403.385 243.192L403.385 257.447"/>
<path class="l4" d="M395.07 258.635L401.009 258.635"/>
<path class="l4" d="M395.07 242.004L401.009 242.004"/>
<path class="l4" d="M403.623 250.319L414.077 250.319"/>
<path class="l4" d="M397.446 259.823L395.07 258.635L397.446 257.447L397.446 259.823"/>
<path class="l4" d="M689.678 331.099L689.678 359.609"/>
<path class="l4" d="M680.175 345.354L689.678 345.354"/>
<path class="l4" d="M694.43 335.851L699.182 331.099"/>
<path class="l4" d="M689.678 350.106L699.182 359.609"/>
<path class="l4" d="M689.678 340.602L696.806 338.227L692.054 333.475L689.678 340.602"/>
<path class="l4" d="M395.07 283.581L395.07 312.092"/>
<path class="l4" d="M391.506 297.837L395.07 302.588"/>
<path class="l4" d="M395.07 302.588L398.634 297.837"/>
<path class="l4" d="M699.182 202.802L699.182 231.312"/>
<path class="l4" d="M695.618 217.057L699.182 221.809"/>
<path class="l4" d="M699.182 221.809L702.746 217.057"/>
<path class="l4" d="M401.009 87.5718L401.009 108.955"/>
<path class="l4" d="M395.07 84.008L395.07 89.9477"/>
<path class="l4" d="M395.07 106.579L395.07 112.518"/>
<path class="l4" d="M403.385 91.1356L403.385 105.391"/>
<path class="l4" d="M395.07 106.579L401.009 106.579"/>
<path class="l4" d="M395.07 89.9477L401.009 89.9477"/>
<path class="l4" d="M403.623 98.2632L414.077 98.2632"/>
<path class="l4" d="M398.634 88.7597L401.009 89.9477L398.634 91.1356L398.634 88.7597"/>
<path class="l4" d="M401.009 201.614L401.009 222.997"/>
<path class="l4" d="M395.07 198.05L395.07 203.99"/>
<path class="l4" d="M395.07 220.621L395.07 226.56"/>
<path class="l4" d="M403.385 205.178L403.385 219.433"/>
<path class="l4" d="M395.07 220.621L401.009 220.621"/>
<path class="l4" d="M395.07 203.99L401.009 203.99"/>
<path class="l4" d="M403.623 212.305L414.077 212.305"/>
<path class="l4" d="M397.446 221.809L395.07 220.621L397.446 219.433L397.446 221.809"/>
<path class="l4" d="M598.207 239.628L598.207 261.011"/>
<path class="l4" d="M604.147 236.064L604.147 242.004"/>
<path class="l4" d="M604.147 258.635L604.147 264.574"/>
<path class="l4" d="M595.831 243.192L595.831 257.447"/>
<path class="l4" d="M598.207 258.635L604.147 258.635"/>
<path class="l4" d="M598.207 242.004L604.147 242.004"/>
<path class="l4" d="M585.14 250.319L595.594 250.319"/>
<path class="l4" d="M601.771 259.823L604.147 258.635L601.771 257.447L601.771 259.823"/>
<path class="l4" d="M598.207 201.614L598.207 222.997"/>
<path class="l4" d="M604.147 198.05L604.147 203.99"/>
<path class="l4" d="M604.147 220.621L604.147 226.56"/>
<path class="l4" d="M595.831 205.178L595.831 219.433"/>
<path class="l4" d="M598.207 220.621L604.147 220.621"/>
<path class="l4" d="M598.207 203.99L604.147 203.99"/>
<path class="l4" d="M585.14 212.305L595.594 212.305"/>
<path class="l4" d="M601.771 221.809L604.147 220.621L601.771 219.433L601.771 221.809"/>
<path class="l4" d="M401.009 49.5578L401.009 70.9407"/>
<path class="l4" d="M395.07 45.994L395.07 51.9337"/>
<path class="l4" d="M395.07 68.5648L395.07 74.5045"/>
<path class="l4" d="M403.385 53.1216L403.385 67.3769"/>
<path class="l4" d="M395.07 68.5648L401.009 68.5648"/>
<path class="l4" d="M395.07 51.9337L401.009 51.9337"/>
<path class="l4" d="M403.623 60.2492L414.077 60.2492"/>
<path class="l4" d="M398.634 50.7457L401.009 51.9337L398.634 53.1216L398.634 50.7457"/>
<path class="l4" d="M598.207 87.5718L598.207 108.955"/>
<path class="l4" d="M604.147 84.008L604.147 89.9477"/>
<path class="l4" d="M604.147 106.579L604.147 112.518"/>
<path class="l4" d="M595.831 91.1356L595.831 105.391"/>
<path class="l4" d="M598.207 106.579L604.147 106.579"/>
<path class="l4" d="M598.207 89.9477L604.147 89.9477"/>
<path class="l4" d="M585.14 98.2632L595.594 98.2632"/>
<path class="l4" d="M600.583 88.7597L598.207 89.9477L600.583 91.1356L600.583 88.7597"/>
<path class="l4" d="M598.207 49.5578L598.207 70.9407"/>
<path class="l4" d="M604.147 45.994L604.147 51.9337"/>
<path class="l4" d="M604.147 68.5648L604.147 74.5045"/>
<path class="l4" d="M595.831 53.1216L595.831 67.3769"/>
<path class="l4" d="M598.207 68.5648L604.147 68.5648"/>
<path class="l4" d="M598.207 51.9337L604.147 51.9337"/>
<path class="l4" d="M585.14 60.2492L595.594 60.2492"/>
<path class="l4" d="M600.583 50.7457L598.207 51.9337L600.583 53.1216L600.583 50.7457"/>
<path class="l4" d="M693.242 111.331L693.242 132.713"/>
<path class="l4" d="M699.182 107.767L699.182 113.706"/>
<path class="l4" d="M699.182 130.338L699.182 136.277"/>
<path class="l4" d="M690.866 114.894L690.866 129.15"/>
<path class="l4" d="M693.242 130.338L699.182 130.338"/>
<path class="l4" d="M693.242 113.706L699.182 113.706"/>
<path class="l4" d="M680.175 122.022L690.629 122.022"/>
<path class="l4" d="M695.618 112.518L693.242 113.706L695.618 114.894L695.618 112.518"/>
<path class="l4" d="M693.242 158.848L693.242 180.231"/>
<path class="l4" d="M699.182 155.284L699.182 161.224"/>
<path class="l4" d="M699.182 177.855L699.182 183.795"/>
<path class="l4" d="M690.866 162.412L690.866 176.667"/>
<path class="l4" d="M693.242 177.855L699.182 177.855"/>
<path class="l4" d="M693.242 161.224L699.182 161.224"/>
<path class="l4" d="M680.175 169.539L690.629 169.539"/>
<path class="l4" d="M695.618 160.036L693.242 161.224L695.618 162.412L695.618 160.036"/>
<path class="l4" d="M484.165 125.586L484.165 146.969"/>
<path class="l4" d="M490.105 122.022L490.105 127.962"/>
<path class="l4" d="M490.105 144.593L490.105 150.532"/>
<path class="l4" d="M481.789 129.15L481.789 143.405"/>
<path class="l4" d="M484.165 144.593L490.105 144.593"/>
<path class="l4" d="M484.165 127.962L490.105 127.962"/>
<path class="l4" d="M471.098 136.277L481.552 136.277"/>
<path class="l4" d="M486.541 126.774L484.165 127.962L486.541 129.15L486.541 126.774"/>
<path class="l4" d="M490.105 169.539L490.105 198.05"/>
<path class="l4" d="M486.541 183.795L490.105 188.546"/>
<path class="l4" d="M490.105 188.546L493.669 183.795"/>
<path class="l4" d="M604.147 283.581L604.147 289.521"/>
<path class="l4" d="M604.147 289.521L608.899 290.709"/>
<path class="l4" d="M599.395 293.085L608.899 290.709"/>
<path class="l4" d="M599.395 293.085L608.899 295.461"/>
<path class="l4" d="M599.395 297.837L608.899 295.461"/>
<path class="l4" d="M599.395 297.837L608.899 300.213"/>
<path class="l4" d="M604.147 306.152L604.147 312.092"/>
<path class="l4" d="M599.395 302.588L608.899 300.213"/>
<path class="l4" d="M599.395 302.588L608.899 304.964"/>
<path class="l4" d="M604.147 306.152L608.899 304.964"/>
<path class="l4" d="M613.65 290.709L613.65 304.964"/>
<path class="l4" d="M613.65 297.837L618.402 297.837"/>
<path class="l4" d="M395.07 150.532L395.07 156.472"/>
<path class="l4" d="M395.07 156.472L399.822 157.66"/>
<path class="l4" d="M390.318 160.036L399.822 157.66"/>
<path class="l4" d="M390.318 160.036L399.822 162.412"/>
<path class="l4" d="M390.318 164.788L399.822 162.412"/>
<path class="l4" d="M390.318 164.788L399.822 167.164"/>
<path class="l4" d="M395.07 173.103L395.07 179.043"/>
<path class="l4" d="M390.318 169.539L399.822 167.164"/>
<path class="l4" d="M390.318 169.539L399.822 171.915"/>
<path class="l4" d="M395.07 173.103L399.822 171.915"/>
<path class="l4" d="M404.573 157.66L404.573 171.915"/>
<path class="l4" d="M404.573 164.788L409.325 164.788"/>
<path class="l4" d="M604.147 131.525L604.147 137.465"/>
<path class="l4" d="M599.395 138.653L604.147 137.465"/>
<path class="l4" d="M599.395 138.653L608.899 141.029"/>
<path class="l4" d="M599.395 143.405L608.899 141.029"/>
<path class="l4" d="M599.395 143.405L608.899 145.781"/>
<path class="l4" d="M599.395 148.157L608.899 145.781"/>
<path class="l4" d="M604.147 154.096L604.147 160.036"/>
<path class="l4" d="M599.395 148.157L608.899 150.532"/>
<path class="l4" d="M599.395 152.908L608.899 150.532"/>
<path class="l4" d="M599.395 152.908L604.147 154.096"/>
<path class="l4" d="M594.643 138.653L594.643 152.908"/>
<path class="l4" d="M589.892 145.781L594.643 145.781"/>
<path class="l4" d="M699.182 283.581L699.182 289.521"/>
<path class="l4" d="M694.43 290.709L699.182 289.521"/>
<path class="l4" d="M694.43 290.709L703.933 293.085"/>
<path class="l4" d="M694.43 295.461L703.933 293.085"/>
<path class="l4" d="M694.43 295.461L703.933 297.837"/>
<path class="l4" d="M694.43 300.213L703.933 297.837"/>
<path class="l4" d="M699.182 306.152L699.182 312.092"/>
<path class="l4" d="M694.43 300.213L703.933 302.588"/>
<path class="l4" d="M694.43 304.964L703.933 302.588"/>
<path class="l4" d="M694.43 304.964L699.182 306.152"/>
<path class="l4" d="M689.678 290.709L689.678 304.964"/>
<path class="l4" d="M684.926 297.837L689.678 297.837"/>
<path class="l4" d="M414.077 164.788L420.016 164.788"/>
<path class="l4" d="M420.016 162.412L420.016 167.164"/>
<path class="l4" d="M420.016 162.412L422.392 164.788"/>
<path class="l4" d="M420.016 167.164L422.392 164.788"/>
<path class="l4" d="M623.154 297.837L629.093 297.837"/>
<path class="l4" d="M629.093 295.461L629.093 300.213"/>
<path class="l4" d="M629.093 295.461L631.469 297.837"/>
<path class="l4" d="M629.093 300.213L631.469 297.837"/>
<path class="l4" d="M674.235 297.837L680.175 297.837"/>
<path class="l4" d="M674.235 295.461L674.235 300.213"/>
<path class="l4" d="M671.859 297.837L674.235 295.461"/>
<path class="l4" d="M671.859 297.837L674.235 300.213"/>
<path class="l4" d="M579.2 145.781L585.14 145.781"/>
<path class="l4" d="M579.2 143.405L579.2 148.157"/>
<path class="l4" d="M576.824 145.781L579.2 143.405"/>
<path class="l4" d="M576.824 145.781L579.2 148.157"/>
<path class="l5" d="M113.529 505.726L115.904 505.726L115.904 508.102L113.529 508.102L113.529 505.726z"/>
<path class="l5" d="M308.35 329.911L310.726 329.911L310.726 332.287L308.35 332.287L308.35 329.911z"/>
<path class="l5" d="M308.35 358.422L310.726 358.422L310.726 360.797L308.35 360.797L308.35 358.422z"/>
<path class="l5" d="M308.35 386.932L310.726 386.932L310.726 389.308L308.35 389.308L308.35 386.932z"/>
<path class="l5" d="M200.248 499.786L200.1 499.935L199.951 500.083L199.803 500.232L199.654 500.38L199.506 500.529L199.357 500.677L199.209 500.826L199.06 500.974L198.912 501.123L198.763 501.271L198.615 501.419L198.466 501.568L198.318 501.716L198.169 501.865L198.021 502.013L197.872 502.162L197.724 502.31L197.575 502.459L197.427 502.607L197.278 502.756L197.13 502.904L196.981 503.053L196.833 503.201L196.684 503.35L196.536 503.498L196.387 503.647L196.239 503.795L196.09 503.944L195.942 504.092L195.793 504.241L195.645 504.389L195.496 504.538L195.496 504.538L195.352 504.686L195.218 504.835L195.093 504.983L194.977 505.132L194.87 505.28L194.772 505.429L194.684 505.577L194.605 505.726L194.536 505.874L194.475 506.023L194.424 506.171L194.383 506.32L194.35 506.468L194.327 506.617L194.313 506.765L194.308 506.914L194.313 507.062L194.327 507.211L194.35 507.359L194.383 507.508L194.424 507.656L194.475 507.805L194.536 507.953L194.605 508.102L194.684 508.25L194.772 508.399L194.87 508.547L194.977 508.696L195.093 508.844L195.218 508.993L195.352 509.141L195.496 509.29L195.496 509.29L195.645 509.439L195.796 509.589L195.947 509.74L196.1 509.893L196.253 510.047L196.408 510.201L196.564 510.357L196.721 510.515L196.88 510.673L197.039 510.833L197.2 510.993L197.362 511.155L197.525 511.318L197.689 511.482L197.854 511.647L198.021 511.814L198.188 511.982L198.357 512.15L198.527 512.32L198.698 512.491L198.87 512.664L199.044 512.837L199.218 513.012L199.394 513.187L199.571 513.364L199.749 513.542L199.928 513.722L200.109 513.902L200.29 514.084L200.473 514.266L200.657 514.45L200.842 514.635L200.842 514.635L201.026 514.82L201.209 515.002L201.388 515.182L201.566 515.359L201.741 515.534L201.914 515.707L202.084 515.878L202.253 516.046L202.419 516.212L202.582 516.375L202.743 516.537L202.902 516.696L203.059 516.852L203.213 517.007L203.365 517.159L203.515 517.308L203.662 517.455L203.807 517.6L203.95 517.743L204.09 517.884L204.228 518.022L204.364 518.157L204.497 518.291L204.629 518.422L204.757 518.551L204.884 518.677L205.008 518.801L205.13 518.923L205.249 519.042L205.366 519.16L205.481 519.275L205.594 519.387L205.594 519.387L205.702 519.497L205.803 519.603L205.897 519.705L205.984 519.805L206.064 519.9L206.137 519.993L206.203 520.081L206.262 520.167L206.314 520.248L206.359 520.327L206.398 520.402L206.429 520.473L206.453 520.541L206.471 520.605L206.481 520.666L206.485 520.723L206.481 520.777L206.471 520.828L206.453 520.875L206.429 520.918L206.398 520.958L206.359 520.995L206.314 521.028L206.262 521.058L206.203 521.084L206.137 521.106L206.064 521.125L205.984 521.141L205.897 521.153L205.803 521.162L205.702 521.167L205.594 521.169L205.594 521.169L205.482 521.169L205.371 521.169L205.26 521.169L205.148 521.169L205.037 521.169L204.926 521.169L204.814 521.169L204.703 521.169L204.591 521.169L204.48 521.169L204.369 521.169L204.257 521.169L204.146 521.169L204.035 521.169L203.923 521.169L203.812 521.169L203.7 521.169L203.589 521.169L203.478 521.169L203.366 521.169L203.255 521.169L203.144 521.169L203.032 521.169L202.921 521.169L202.81 521.169L202.698 521.169L202.587 521.169L202.475 521.169L202.364 521.169L202.253 521.169L202.141 521.169L202.03 521.169L202.03 521.169L201.919 521.169L201.81 521.169L201.701 521.169L201.594 521.169L201.488 521.169L201.383 521.169L201.279 521.169L201.176 521.169L201.075 521.169L200.974 521.169L200.875 521.169L200.777 521.169L200.68 521.169L200.584 521.169L200.49 521.169L200.397 521.169L200.304 521.169L200.213 521.169L200.123 521.169L200.035 521.169L199.947 521.169L199.861 521.169L199.775 521.169L199.691 521.169L199.608 521.169L199.526 521.169L199.446 521.169L199.366 521.169L199.288 521.169L199.211 521.169L199.135 521.169L199.06 521.169L199.06 521.169L198.986 521.168L198.912 521.164L198.837 521.159L198.763 521.15L198.689 521.14L198.615 521.127L198.54 521.112L198.466 521.095L198.392 521.075L198.318 521.053L198.243 521.029L198.169 521.002L198.095 520.973L198.021 520.942L197.946 520.908L197.872 520.872L197.798 520.834L197.724 520.793L197.649 520.75L197.575 520.705L197.501 520.657L197.427 520.607L197.352 520.555L197.278 520.501L197.204 520.444L197.13 520.385L197.055 520.323L196.981 520.259L196.907 520.193L196.833 520.125L196.758 520.054L196.684 519.981L196.684 519.981L196.61 519.907L196.536 519.833L196.461 519.758L196.387 519.684L196.313 519.61L196.239 519.536L196.165 519.461L196.09 519.387L196.016 519.313L195.942 519.239L195.868 519.164L195.793 519.09L195.719 519.016L195.645 518.942L195.571 518.867L195.496 518.793L195.422 518.719L195.348 518.645L195.274 518.57L195.199 518.496L195.125 518.422L195.051 518.348L194.977 518.273L194.902 518.199L194.828 518.125L194.754 518.051L194.68 517.976L194.605 517.902L194.531 517.828L194.457 517.754L194.383 517.679L194.308 517.605L194.308 517.605L194.233 517.53L194.155 517.452L194.075 517.372L193.993 517.29L193.908 517.205L193.821 517.118L193.732 517.029L193.64 516.937L193.546 516.843L193.45 516.747L193.351 516.648L193.25 516.547L193.147 516.444L193.042 516.338L192.934 516.23L192.823 516.12L192.711 516.008L192.596 515.893L192.479 515.776L192.359 515.656L192.238 515.534L192.113 515.41L191.987 515.284L191.858 515.155L191.727 515.024L191.594 514.891L191.458 514.755L191.32 514.617L191.18 514.476L191.037 514.334L190.892 514.189L190.745 514.041L190.745 514.041L190.596 513.897L190.448 513.763L190.299 513.638L190.151 513.522L190.002 513.415L189.854 513.317L189.705 513.229L189.557 513.15L189.408 513.081L189.26 513.02L189.111 512.969L188.963 512.928L188.814 512.895L188.666 512.872L188.517 512.858L188.369 512.853L188.22 512.858L188.072 512.872L187.923 512.895L187.775 512.928L187.626 512.969L187.478 513.02L187.329 513.081L187.181 513.15L187.032 513.229L186.884 513.317L186.735 513.415L186.587 513.522L186.438 513.638L186.29 513.763L186.141 513.897L185.993 514.041L185.993 514.041L185.845 514.189L185.7 514.334L185.558 514.476L185.417 514.617L185.279 514.755L185.144 514.891L185.01 515.024L184.879 515.155L184.75 515.284L184.624 515.41L184.5 515.534L184.378 515.656L184.258 515.776L184.141 515.893L184.026 516.008L183.914 516.12L183.804 516.23L183.696 516.338L183.59 516.444L183.487 516.547L183.386 516.648L183.287 516.747L183.191 516.843L183.097 516.937L183.006 517.029L182.916 517.118L182.829 517.205L182.745 517.29L182.662 517.372L182.582 517.452L182.504 517.53L182.429 517.605L182.429 517.605L182.355 517.679L182.28 517.754L182.206 517.828L182.132 517.902L182.058 517.976L181.984 518.051L181.909 518.125L181.835 518.199L181.761 518.273L181.687 518.348L181.612 518.422L181.538 518.496L181.464 518.57L181.39 518.645L181.315 518.719L181.241 518.793L181.167 518.867L181.093 518.942L181.018 519.016L180.944 519.09L180.87 519.164L180.796 519.239L180.721 519.313L180.647 519.387L180.573 519.461L180.499 519.536L180.424 519.61L180.35 519.684L180.276 519.758L180.202 519.833L180.127 519.907L180.053 519.981L180.053 519.981L179.979 520.054L179.905 520.125L179.83 520.193L179.756 520.259L179.682 520.323L179.608 520.385L179.533 520.444L179.459 520.501L179.385 520.555L179.311 520.607L179.236 520.657L179.162 520.705L179.088 520.75L179.014 520.793L178.939 520.834L178.865 520.872L178.791 520.908L178.717 520.942L178.642 520.973L178.568 521.002L178.494 521.029L178.42 521.053L178.345 521.075L178.271 521.095L178.197 521.112L178.123 521.127L178.048 521.14L177.974 521.15L177.9 521.159L177.826 521.164L177.751 521.168L177.677 521.169L177.677 521.169L177.602 521.169L177.526 521.169L177.449 521.169L177.371 521.169L177.292 521.169L177.211 521.169L177.129 521.169L177.046 521.169L176.962 521.169L176.877 521.169L176.79 521.169L176.703 521.169L176.614 521.169L176.524 521.169L176.433 521.169L176.341 521.169L176.247 521.169L176.153 521.169L176.057 521.169L175.96 521.169L175.862 521.169L175.763 521.169L175.663 521.169L175.561 521.169L175.459 521.169L175.355 521.169L175.25 521.169L175.144 521.169L175.036 521.169L174.928 521.169L174.818 521.169L174.707 521.169L174.707 521.169L174.596 521.169L174.485 521.169L174.373 521.169L174.262 521.169L174.151 521.169L174.039 521.169L173.928 521.169L173.816 521.169L173.705 521.169L173.594 521.169L173.482 521.169L173.371 521.169L173.26 521.169L173.148 521.169L173.037 521.169L172.925 521.169L172.814 521.169L172.703 521.169L172.591 521.169L172.48 521.169L172.369 521.169L172.257 521.169L172.146 521.169L172.035 521.169L171.923 521.169L171.812 521.169L171.7 521.169L171.589 521.169L171.478 521.169L171.366 521.169L171.255 521.169L171.144 521.169L171.144 521.169L171.036 521.167L170.935 521.162L170.841 521.153L170.754 521.141L170.674 521.125L170.601 521.106L170.535 521.084L170.475 521.058L170.423 521.028L170.378 520.995L170.34 520.958L170.308 520.918L170.284 520.875L170.267 520.828L170.256 520.777L170.253 520.723L170.256 520.666L170.267 520.605L170.284 520.541L170.308 520.473L170.34 520.402L170.378 520.327L170.423 520.248L170.475 520.167L170.535 520.081L170.601 519.993L170.674 519.9L170.754 519.805L170.841 519.705L170.935 519.603L171.036 519.497L171.144 519.387L171.144 519.387L171.256 519.275L171.371 519.16L171.488 519.042L171.608 518.923L171.729 518.801L171.854 518.677L171.98 518.551L172.109 518.422L172.24 518.291L172.373 518.157L172.509 518.022L172.647 517.884L172.787 517.743L172.93 517.6L173.075 517.455L173.222 517.308L173.372 517.159L173.524 517.007L173.678 516.852L173.835 516.696L173.994 516.537L174.155 516.375L174.319 516.212L174.485 516.046L174.653 515.878L174.823 515.707L174.996 515.534L175.171 515.359L175.349 515.182L175.529 515.002L175.711 514.82L175.895 514.635L175.895 514.635L176.08 514.45L176.264 514.266L176.447 514.084L176.629 513.902L176.809 513.722L176.988 513.542L177.166 513.364L177.343 513.187L177.519 513.012L177.693 512.837L177.867 512.664L178.039 512.491L178.21 512.32L178.38 512.15L178.549 511.982L178.717 511.814L178.883 511.647L179.048 511.482L179.213 511.318L179.376 511.155L179.537 510.993L179.698 510.833L179.858 510.673L180.016 510.515L180.173 510.357L180.329 510.201L180.484 510.047L180.638 509.893L180.79 509.74L180.942 509.589L181.092 509.439L181.241 509.29L181.241 509.29L181.385 509.141L181.519 508.993L181.645 508.844L181.761 508.696L181.867 508.547L181.965 508.399L182.053 508.25L182.132 508.102L182.202 507.953L182.262 507.805L182.313 507.656L182.355 507.508L182.387 507.359L182.41 507.211L182.424 507.062L182.429 506.914L182.424 506.765L182.41 506.617L182.387 506.468L182.355 506.32L182.313 506.171L182.262 506.023L182.202 505.874L182.132 505.726L182.053 505.577L181.965 505.429L181.867 505.28L181.761 505.132L181.645 504.983L181.519 504.835L181.385 504.686L181.241 504.538L181.241 504.538L181.092 504.389L180.942 504.239L180.79 504.087L180.638 503.935L180.484 503.781L180.329 503.626L180.173 503.47L180.016 503.313L179.858 503.154L179.698 502.995L179.537 502.834L179.376 502.672L179.213 502.509L179.048 502.345L178.883 502.18L178.717 502.013L178.549 501.846L178.38 501.677L178.21 501.507L178.039 501.336L177.867 501.164L177.693 500.99L177.519 500.816L177.343 500.64L177.166 500.463L176.988 500.285L176.809 500.106L176.629 499.925L176.447 499.744L176.264 499.561L176.08 499.377L175.895 499.192L175.895 499.192L175.711 499.008L175.529 498.826L175.349 498.646L175.171 498.468L174.996 498.293L174.823 498.12L174.653 497.95L174.485 497.781L174.319 497.616L174.155 497.452L173.994 497.291L173.835 497.132L173.678 496.975L173.524 496.821L173.372 496.669L173.222 496.519L173.075 496.372L172.93 496.227L172.787 496.084L172.647 495.944L172.509 495.806L172.373 495.67L172.24 495.537L172.109 495.406L171.98 495.277L171.854 495.15L171.729 495.026L171.608 494.904L171.488 494.785L171.371 494.668L171.256 494.553L171.144 494.44L171.144 494.44L171.036 494.331L170.935 494.225L170.841 494.122L170.754 494.023L170.674 493.927L170.601 493.835L170.535 493.746L170.475 493.661L170.423 493.579L170.378 493.501L170.34 493.426L170.308 493.355L170.284 493.287L170.267 493.222L170.256 493.161L170.253 493.104L170.256 493.05L170.267 493L170.284 492.953L170.308 492.909L170.34 492.869L170.378 492.832L170.423 492.799L170.475 492.77L170.535 492.744L170.601 492.721L170.674 492.702L170.754 492.686L170.841 492.674L170.935 492.665L171.036 492.66L171.144 492.658L171.144 492.658L171.255 492.658L171.366 492.658L171.478 492.658L171.589 492.658L171.7 492.658L171.812 492.658L171.923 492.658L172.035 492.658L172.146 492.658L172.257 492.658L172.369 492.658L172.48 492.658L172.591 492.658L172.703 492.658L172.814 492.658L172.925 492.658L173.037 492.658L173.148 492.658L173.26 492.658L173.371 492.658L173.482 492.658L173.594 492.658L173.705 492.658L173.816 492.658L173.928 492.658L174.039 492.658L174.151 492.658L174.262 492.658L174.373 492.658L174.485 492.658L174.596 492.658L174.707 492.658L174.707 492.658L174.818 492.658L174.928 492.658L175.036 492.658L175.144 492.658L175.25 492.658L175.355 492.658L175.459 492.658L175.561 492.658L175.663 492.658L175.763 492.658L175.862 492.658L175.96 492.658L176.057 492.658L176.153 492.658L176.247 492.658L176.341 492.658L176.433 492.658L176.524 492.658L176.614 492.658L176.703 492.658L176.79 492.658L176.877 492.658L176.962 492.658L177.046 492.658L177.129 492.658L177.211 492.658L177.292 492.658L177.371 492.658L177.449 492.658L177.526 492.658L177.602 492.658L177.677 492.658L177.677 492.658L177.751 492.66L177.826 492.663L177.9 492.669L177.974 492.677L178.048 492.687L178.123 492.7L178.197 492.715L178.271 492.733L178.345 492.752L178.42 492.774L178.494 492.799L178.568 492.826L178.642 492.855L178.717 492.886L178.791 492.919L178.865 492.955L178.939 492.994L179.014 493.034L179.088 493.077L179.162 493.122L179.236 493.17L179.311 493.22L179.385 493.272L179.459 493.327L179.533 493.384L179.608 493.443L179.682 493.504L179.756 493.568L179.83 493.634L179.905 493.703L179.979 493.773L180.053 493.846L180.053 493.846L180.127 493.921L180.202 493.995L180.276 494.069L180.35 494.143L180.424 494.218L180.499 494.292L180.573 494.366L180.647 494.44L180.721 494.515L180.796 494.589L180.87 494.663L180.944 494.737L181.018 494.812L181.093 494.886L181.167 494.96L181.241 495.034L181.315 495.109L181.39 495.183L181.464 495.257L181.538 495.331L181.612 495.406L181.687 495.48L181.761 495.554L181.835 495.628L181.909 495.703L181.984 495.777L182.058 495.851L182.132 495.925L182.206 496L182.28 496.074L182.355 496.148L182.429 496.222L182.429 496.222L182.504 496.298L182.582 496.375L182.662 496.455L182.745 496.538L182.829 496.622L182.916 496.71L183.006 496.799L183.097 496.89L183.191 496.984L183.287 497.081L183.386 497.179L183.487 497.28L183.59 497.384L183.696 497.489L183.804 497.597L183.914 497.707L184.026 497.82L184.141 497.935L184.258 498.052L184.378 498.171L184.5 498.293L184.624 498.417L184.75 498.544L184.879 498.672L185.01 498.803L185.144 498.937L185.279 499.073L185.417 499.211L185.558 499.351L185.7 499.494L185.845 499.639L185.993 499.786L185.993 499.786L186.141 499.93L186.29 500.065L186.438 500.19L186.587 500.306L186.735 500.413L186.884 500.51L187.032 500.598L187.181 500.677L187.329 500.747L187.478 500.807L187.626 500.858L187.775 500.9L187.923 500.932L188.072 500.955L188.22 500.969L188.369 500.974L188.517 500.969L188.666 500.955L188.814 500.932L188.963 500.9L189.111 500.858L189.26 500.807L189.408 500.747L189.557 500.677L189.705 500.598L189.854 500.51L190.002 500.413L190.151 500.306L190.299 500.19L190.448 500.065L190.596 499.93L190.745 499.786L190.745 499.786L190.892 499.639L191.037 499.494L191.18 499.351L191.32 499.211L191.458 499.073L191.594 498.937L191.727 498.803L191.858 498.672L191.987 498.544L192.113 498.417L192.238 498.293L192.359 498.171L192.479 498.052L192.596 497.935L192.711 497.82L192.823 497.707L192.934 497.597L193.042 497.489L193.147 497.384L193.25 497.28L193.351 497.179L193.45 497.081L193.546 496.984L193.64 496.89L193.732 496.799L193.821 496.71L193.908 496.622L193.993 496.538L194.075 496.455L194.155 496.375L194.233 496.298L194.308 496.222L194.308 496.222L194.383 496.148L194.457 496.074L194.531 496L194.605 495.925L194.68 495.851L194.754 495.777L194.828 495.703L194.902 495.628L194.977 495.554L195.051 495.48L195.125 495.406L195.199 495.331L195.274 495.257L195.348 495.183L195.422 495.109L195.496 495.034L195.571 494.96L195.645 494.886L195.719 494.812L195.793 494.737L195.868 494.663L195.942 494.589L196.016 494.515L196.09 494.44L196.165 494.366L196.239 494.292L196.313 494.218L196.387 494.143L196.461 494.069L196.536 493.995L196.61 493.921L196.684 493.846L196.684 493.846L196.758 493.773L196.833 493.703L196.907 493.634L196.981 493.568L197.055 493.504L197.13 493.443L197.204 493.384L197.278 493.327L197.352 493.272L197.427 493.22L197.501 493.17L197.575 493.122L197.649 493.077L197.724 493.034L197.798 492.994L197.872 492.955L197.946 492.919L198.021 492.886L198.095 492.855L198.169 492.826L198.243 492.799L198.318 492.774L198.392 492.752L198.466 492.733L198.54 492.715L198.615 492.7L198.689 492.687L198.763 492.677L198.837 492.669L198.912 492.663L198.986 492.66L199.06 492.658L199.06 492.658L199.135 492.658L199.211 492.658L199.288 492.658L199.366 492.658L199.446 492.658L199.526 492.658L199.608 492.658L199.691 492.658L199.775 492.658L199.861 492.658L199.947 492.658L200.035 492.658L200.123 492.658L200.213 492.658L200.304 492.658L200.397 492.658L200.49 492.658L200.584 492.658L200.68 492.658L200.777 492.658L200.875 492.658L200.974 492.658L201.075 492.658L201.176 492.658L201.279 492.658L201.383 492.658L201.488 492.658L201.594 492.658L201.701 492.658L201.81 492.658L201.919 492.658L202.03 492.658L202.03 492.658L202.141 492.658L202.253 492.658L202.364 492.658L202.475 492.658L202.587 492.658L202.698 492.658L202.81 492.658L202.921 492.658L203.032 492.658L203.144 492.658L203.255 492.658L203.366 492.658L203.478 492.658L203.589 492.658L203.7 492.658L203.812 492.658L203.923 492.658L204.035 492.658L204.146 492.658L204.257 492.658L204.369 492.658L204.48 492.658L204.591 492.658L204.703 492.658L204.814 492.658L204.926 492.658L205.037 492.658L205.148 492.658L205.26 492.658L205.371 492.658L205.482 492.658L205.594 492.658L205.594 492.658L205.702 492.66L205.803 492.665L205.897 492.674L205.984 492.686L206.064 492.702L206.137 492.721L206.203 492.744L206.262 492.77L206.314 492.799L206.359 492.832L206.398 492.869L206.429 492.909L206.453 492.953L206.471 493L206.481 493.05L206.485 493.104L206.481 493.161L206.471 493.222L206.453 493.287L206.429 493.355L206.398 493.426L206.359 493.501L206.314 493.579L206.262 493.661L206.203 493.746L206.137 493.835L206.064 493.927L205.984 494.023L205.897 494.122L205.803 494.225L205.702 494.331L205.594 494.44L205.594 494.44L205.481 494.553L205.364 494.67L205.244 494.79L205.12 494.914L204.993 495.041L204.863 495.171L204.729 495.305L204.591 495.443L204.45 495.584L204.306 495.728L204.158 495.876L204.007 496.027L203.852 496.182L203.694 496.341L203.532 496.502L203.366 496.668L203.198 496.837L203.025 497.009L202.85 497.185L202.67 497.364L202.488 497.547L202.301 497.733L202.112 497.922L201.919 498.116L201.722 498.312L201.522 498.512L201.318 498.716L201.111 498.923L200.901 499.134L200.687 499.348L200.469 499.565L200.248 499.786"/>
<path class="l5" d="M308.944 26.393L310.132 26.393L310.132 27.581L308.944 27.581L308.944 26.393z"/>
<path class="l5" d="M393.882 358.422L396.258 358.422L396.258 360.797L393.882 360.797L393.882 358.422z"/>
<path class="l5" d="M412.889 344.166L415.265 344.166L415.265 346.542L412.889 346.542L412.889 344.166z"/>
<path class="l5" d="M393.882 329.911L396.258 329.911L396.258 332.287L393.882 332.287L393.882 329.911z"/>
<path class="l5" d="M602.959 358.422L605.335 358.422L605.335 360.797L602.959 360.797L602.959 358.422z"/>
<path class="l5" d="M583.952 344.166L586.328 344.166L586.328 346.542L583.952 346.542L583.952 344.166z"/>
<path class="l5" d="M602.959 329.911L605.335 329.911L605.335 332.287L602.959 332.287L602.959 329.911z"/>
<path class="l5" d="M395.07 251.507L397.446 250.319L395.07 249.131L395.07 251.507"/>
<path class="l5" d="M393.882 234.876L396.258 234.876L396.258 237.252L393.882 237.252L393.882 234.876z"/>
<path class="l5" d="M412.889 249.131L415.265 249.131L415.265 251.507L412.889 251.507L412.889 249.131z"/>
<path class="l5" d="M393.882 263.387L396.258 263.387L396.258 265.762L393.882 265.762L393.882 263.387z"/>
<path class="l5" d="M395.033 250.282L395.107 250.282L395.107 250.356L395.033 250.356L395.033 250.282z"/>
<path class="l5" d="M697.994 358.422L700.37 358.422L700.37 360.797L697.994 360.797L697.994 358.422z"/>
<path class="l5" d="M678.987 344.166L681.363 344.166L681.363 346.542L678.987 346.542L678.987 344.166z"/>
<path class="l5" d="M697.994 329.911L700.37 329.911L700.37 332.287L697.994 332.287L697.994 329.911z"/>
<path class="l5" d="M784.119 254.477L785.307 254.477L785.307 255.665L784.119 255.665L784.119 254.477z"/>
<path class="l5" d="M393.882 282.394L396.258 282.394L396.258 284.769L393.882 284.769L393.882 282.394z"/>
<path class="l5" d="M393.882 310.904L396.258 310.904L396.258 313.28L393.882 313.28L393.882 310.904z"/>
<path class="l5" d="M697.994 201.614L700.37 201.614L700.37 203.99L697.994 203.99L697.994 201.614z"/>
<path class="l5" d="M697.994 230.124L700.37 230.124L700.37 232.5L697.994 232.5L697.994 230.124z"/>
<path class="l5" d="M603.553 273.484L604.741 273.484L604.741 274.672L603.553 274.672L603.553 273.484z"/>
<path class="l5" d="M603.553 321.002L604.741 321.002L604.741 322.189L603.553 322.189L603.553 321.002z"/>
<path class="l5" d="M394.476 273.484L395.664 273.484L395.664 274.672L394.476 274.672L394.476 273.484z"/>
<path class="l5" d="M451.497 59.6553L452.685 59.6553L452.685 60.8432L451.497 60.8432L451.497 59.6553z"/>
<path class="l5" d="M397.446 97.0753L395.07 98.2632L397.446 99.4512L397.446 97.0753"/>
<path class="l5" d="M393.882 111.331L396.258 111.331L396.258 113.706L393.882 113.706L393.882 111.331z"/>
<path class="l5" d="M412.889 97.0753L415.265 97.0753L415.265 99.4512L412.889 99.4512L412.889 97.0753z"/>
<path class="l5" d="M393.882 82.8201L396.258 82.8201L396.258 85.1959L393.882 85.1959L393.882 82.8201z"/>
<path class="l5" d="M395.033 98.2261L395.107 98.2261L395.107 98.3004L395.033 98.3004L395.033 98.2261z"/>
<path class="l5" d="M461 249.725L462.188 249.725L462.188 250.913L461 250.913L461 249.725z"/>
<path class="l5" d="M461 211.711L462.188 211.711L462.188 212.899L461 212.899L461 211.711z"/>
<path class="l5" d="M451.497 97.6693L452.685 97.6693L452.685 98.8572L451.497 98.8572L451.497 97.6693z"/>
<path class="l5" d="M395.07 213.493L397.446 212.305L395.07 211.117L395.07 213.493"/>
<path class="l5" d="M393.882 196.862L396.258 196.862L396.258 199.238L393.882 199.238L393.882 196.862z"/>
<path class="l5" d="M412.889 211.117L415.265 211.117L415.265 213.493L412.889 213.493L412.889 211.117z"/>
<path class="l5" d="M393.882 225.373L396.258 225.373L396.258 227.748L393.882 227.748L393.882 225.373z"/>
<path class="l5" d="M395.033 212.268L395.107 212.268L395.107 212.342L395.033 212.342L395.033 212.268z"/>
<path class="l5" d="M604.147 251.507L601.771 250.319L604.147 249.131L604.147 251.507"/>
<path class="l5" d="M602.959 234.876L605.335 234.876L605.335 237.252L602.959 237.252L602.959 234.876z"/>
<path class="l5" d="M583.952 249.131L586.328 249.131L586.328 251.507L583.952 251.507L583.952 249.131z"/>
<path class="l5" d="M602.959 263.387L605.335 263.387L605.335 265.762L602.959 265.762L602.959 263.387z"/>
<path class="l5" d="M604.11 250.282L604.184 250.282L604.184 250.356L604.11 250.356L604.11 250.282z"/>
<path class="l5" d="M604.147 213.493L601.771 212.305L604.147 211.117L604.147 213.493"/>
<path class="l5" d="M602.959 196.862L605.335 196.862L605.335 199.238L602.959 199.238L602.959 196.862z"/>
<path class="l5" d="M583.952 211.117L586.328 211.117L586.328 213.493L583.952 213.493L583.952 211.117z"/>
<path class="l5" d="M602.959 225.373L605.335 225.373L605.335 227.748L602.959 227.748L602.959 225.373z"/>
<path class="l5" d="M604.11 212.268L604.184 212.268L604.184 212.342L604.11 212.342L604.11 212.268z"/>
<path class="l5" d="M397.446 59.0613L395.07 60.2492L397.446 61.4372L397.446 59.0613"/>
<path class="l5" d="M393.882 73.3166L396.258 73.3166L396.258 75.6924L393.882 75.6924L393.882 73.3166z"/>
<path class="l5" d="M412.889 59.0613L415.265 59.0613L415.265 61.4372L412.889 61.4372L412.889 59.0613z"/>
<path class="l5" d="M393.882 44.8061L396.258 44.8061L396.258 47.1819L393.882 47.1819L393.882 44.8061z"/>
<path class="l5" d="M395.033 60.2121L395.107 60.2121L395.107 60.2864L395.033 60.2864L395.033 60.2121z"/>
<path class="l5" d="M601.771 97.0753L604.147 98.2632L601.771 99.4512L601.771 97.0753"/>
<path class="l5" d="M602.959 111.331L605.335 111.331L605.335 113.706L602.959 113.706L602.959 111.331z"/>
<path class="l5" d="M583.952 97.0753L586.328 97.0753L586.328 99.4512L583.952 99.4512L583.952 97.0753z"/>
<path class="l5" d="M602.959 82.8201L605.335 82.8201L605.335 85.1959L602.959 85.1959L602.959 82.8201z"/>
<path class="l5" d="M604.11 98.2261L604.184 98.2261L604.184 98.3004L604.11 98.3004L604.11 98.2261z"/>
<path class="l5" d="M601.771 59.0613L604.147 60.2492L601.771 61.4372L601.771 59.0613"/>
<path class="l5" d="M602.959 73.3166L605.335 73.3166L605.335 75.6924L602.959 75.6924L602.959 73.3166z"/>
<path class="l5" d="M583.952 59.0613L586.328 59.0613L586.328 61.4372L583.952 61.4372L583.952 59.0613z"/>
<path class="l5" d="M602.959 44.8061L605.335 44.8061L605.335 47.1819L602.959 47.1819L602.959 44.8061z"/>
<path class="l5" d="M604.11 60.2121L604.184 60.2121L604.184 60.2864L604.11 60.2864L604.11 60.2121z"/>
<path class="l5" d="M696.806 120.834L699.182 122.022L696.806 123.21L696.806 120.834"/>
<path class="l5" d="M697.994 135.089L700.37 135.089L700.37 137.465L697.994 137.465L697.994 135.089z"/>
<path class="l5" d="M678.987 120.834L681.363 120.834L681.363 123.21L678.987 123.21L678.987 120.834z"/>
<path class="l5" d="M697.994 106.579L700.37 106.579L700.37 108.955L697.994 108.955L697.994 106.579z"/>
<path class="l5" d="M699.145 121.985L699.219 121.985L699.219 122.059L699.145 122.059L699.145 121.985z"/>
<path class="l5" d="M696.806 168.352L699.182 169.539L696.806 170.727L696.806 168.352"/>
<path class="l5" d="M697.994 182.607L700.37 182.607L700.37 184.983L697.994 184.983L697.994 182.607z"/>
<path class="l5" d="M678.987 168.352L681.363 168.352L681.363 170.727L678.987 170.727L678.987 168.352z"/>
<path class="l5" d="M697.994 154.096L700.37 154.096L700.37 156.472L697.994 156.472L697.994 154.096z"/>
<path class="l5" d="M699.145 169.502L699.219 169.502L699.219 169.577L699.145 169.577L699.145 169.502z"/>
<path class="l5" d="M487.729 135.089L490.105 136.277L487.729 137.465L487.729 135.089"/>
<path class="l5" d="M488.917 149.345L491.293 149.345L491.293 151.72L488.917 151.72L488.917 149.345z"/>
<path class="l5" d="M469.91 135.089L472.286 135.089L472.286 137.465L469.91 137.465L469.91 135.089z"/>
<path class="l5" d="M488.917 120.834L491.293 120.834L491.293 123.21L488.917 123.21L488.917 120.834z"/>
<path class="l5" d="M490.068 136.24L490.142 136.24L490.142 136.314L490.068 136.314L490.068 136.24z"/>
<path class="l5" d="M488.917 168.352L491.293 168.352L491.293 170.727L488.917 170.727L488.917 168.352z"/>
<path class="l5" d="M488.917 196.862L491.293 196.862L491.293 199.238L488.917 199.238L488.917 196.862z"/>
<path class="l5" d="M602.959 282.394L605.335 282.394L605.335 284.769L602.959 284.769L602.959 282.394z"/>
<path class="l5" d="M602.959 310.904L605.335 310.904L605.335 313.28L602.959 313.28L602.959 310.904z"/>
<path class="l5" d="M617.214 296.649L619.59 296.649L619.59 299.025L617.214 299.025L617.214 296.649z"/>
<path class="l5" d="M393.882 149.345L396.258 149.345L396.258 151.72L393.882 151.72L393.882 149.345z"/>
<path class="l5" d="M393.882 177.855L396.258 177.855L396.258 180.231L393.882 180.231L393.882 177.855z"/>
<path class="l5" d="M408.137 163.6L410.513 163.6L410.513 165.976L408.137 165.976L408.137 163.6z"/>
<path class="l5" d="M602.959 130.338L605.335 130.338L605.335 132.713L602.959 132.713L602.959 130.338z"/>
<path class="l5" d="M602.959 158.848L605.335 158.848L605.335 161.224L602.959 161.224L602.959 158.848z"/>
<path class="l5" d="M588.704 144.593L591.079 144.593L591.079 146.969L588.704 146.969L588.704 144.593z"/>
<path class="l5" d="M697.994 282.394L700.37 282.394L700.37 284.769L697.994 284.769L697.994 282.394z"/>
<path class="l5" d="M697.994 310.904L700.37 310.904L700.37 313.28L697.994 313.28L697.994 310.904z"/>
<path class="l5" d="M683.739 296.649L686.114 296.649L686.114 299.025L683.739 299.025L683.739 296.649z"/>
<path class="l5" d="M412.889 163.6L415.265 163.6L415.265 165.976L412.889 165.976L412.889 163.6z"/>
<path class="l5" d="M621.966 296.649L624.342 296.649L624.342 299.025L621.966 299.025L621.966 296.649z"/>
<path class="l5" d="M678.987 296.649L681.363 296.649L681.363 299.025L678.987 299.025L678.987 296.649z"/>
<path class="l5" d="M583.952 144.593L586.328 144.593L586.328 146.969L583.952 146.969L583.952 144.593z"/>
<path class="l6" d="M311.914 506.914L689.678 506.914"/>
<path class="l6" d="M128.972 506.914L159.858 506.914"/>
<text fill="#222222"  xml:space="preserve" font-size="7.41273" transform="translate(131.348, 437.616)" >MODEL</text>
<text fill="#222222"  xml:space="preserve" font-size="7.41273" style="font-family:Monospace;" transform="translate(136.099, 457.998)" >.lib cornerMOSlv.lib mos_tt</text>
<text fill="#222222"  xml:space="preserve" font-size="7.41273" style="font-family:Monospace;" transform="translate(136.099, 466.501)" >.lib cornerHBT.lib hbt_typ</text>
<text fill="#222222"  xml:space="preserve" font-size="7.41273" style="font-family:Monospace;" transform="translate(136.099, 475.003)" >.lib cornerRES.lib res_typ</text>
<text fill="#222222"  xml:space="preserve" font-size="7.41273" transform="translate(131.348, 252.298)" >NGSPICE</text>
<text fill="#222222"  xml:space="preserve" font-size="7.41273" style="font-family:Monospace;" transform="translate(136.099, 272.68)" >.temp 27</text>
<text fill="#222222"  xml:space="preserve" font-size="7.41273" style="font-family:Monospace;" transform="translate(136.099, 281.182)" >.control</text>
<text fill="#222222"  xml:space="preserve" font-size="7.41273" style="font-family:Monospace;" transform="translate(136.099, 289.685)" >save all</text>
<text fill="#222222"  xml:space="preserve" font-size="7.41273" style="font-family:Monospace;" transform="translate(136.099, 298.187)" >set filetype=ascii</text>
<text fill="#222222"  xml:space="preserve" font-size="7.41273" style="font-family:Monospace;" transform="translate(136.099, 315.192)" >op</text>
<text fill="#222222"  xml:space="preserve" font-size="7.41273" style="font-family:Monospace;" transform="translate(136.099, 323.694)" >write bandgap_simple.raw</text>
<text fill="#222222"  xml:space="preserve" font-size="7.41273" style="font-family:Monospace;" transform="translate(136.099, 340.699)" >dc temp -30 125 1</text>
<text fill="#222222"  xml:space="preserve" font-size="7.41273" style="font-family:Monospace;" transform="translate(136.099, 349.202)" >set appendwrite</text>
<text fill="#222222"  xml:space="preserve" font-size="7.41273" style="font-family:Monospace;" transform="translate(136.099, 357.704)" >write bandgap_simple.raw</text>
<text fill="#222222"  xml:space="preserve" font-size="7.41273" style="font-family:Monospace;" transform="translate(136.099, 366.206)" >plot vref</text>
<text fill="#222222"  xml:space="preserve" font-size="7.41273" style="font-family:Monospace;" transform="translate(136.099, 383.211)" >wrdata bandgap_simple.txt vref</text>
<text fill="#222222"  xml:space="preserve" font-size="7.41273" style="font-family:Monospace;" transform="translate(136.099, 391.714)" >.endc</text>
<text fill="#222222"  xml:space="preserve" font-size="4.94182" transform="translate(319.042, 340.932)" >Vdd</text>
<text fill="#222222"  xml:space="preserve" font-size="4.94182" transform="translate(319.042, 352.811)" >1.5</text>
<text fill="#0055ee"  xml:space="preserve" font-size="4.94182" transform="translate(313.102, 394.983)" >GND</text>
<text fill="#222222"  xml:space="preserve" font-size="9.88364" transform="translate(316.666, 518.264)" >         bandgap_simple.sch</text>
<text fill="#222222"  xml:space="preserve" font-size="9.88364" transform="translate(316.666, 504.009)" >(c) 2025 H. Pretl, Apache-2.0 license</text>
<text fill="#222222"  xml:space="preserve" font-size="9.88364" transform="translate(585.678, 504.009)" >2025-07-31  23:05:35</text>
<text fill="#222222"  xml:space="preserve" font-size="24.7091" transform="translate(207.376, 517.47)" >SCHEM</text>
<text fill="#222222"  xml:space="preserve" font-size="9.88364" transform="translate(371.311, 452.867)" >simulate</text>
<text fill="#222222"  xml:space="preserve" font-size="9.88364" transform="translate(485.353, 452.867)" >annotate OP</text>
<text fill="#0055ee"  xml:space="preserve" font-size="8.154" transform="translate(286.974, 30.53)" >v_dd</text>
<text fill="#222222"  xml:space="preserve" font-size="4.94182" transform="translate(373.882, 356.969)" >pnpMPA</text>
<text fill="#222222"  xml:space="preserve" font-size="4.94182" transform="translate(383.882, 337.368)" >XQ1</text>
<text fill="#ff0000"  xml:space="preserve" font-size="3.70636" transform="translate(396.822, 331.791)" >e</text>
<text fill="#ff0000"  xml:space="preserve" font-size="3.70636" transform="translate(397.822, 361.49)" >c</text>
<text fill="#ff0000"  xml:space="preserve" font-size="3.70636" transform="translate(409.622, 343.671)" >b</text>
<text fill="#666600"  xml:space="preserve" font-size="4.94182" transform="translate(369.882, 345.09)" >w=1.0e-6</text>
<text fill="#666600"  xml:space="preserve" font-size="4.94182" transform="translate(372.882, 351.029)" >l=2.0e-6</text>
<text fill="#222222"  xml:space="preserve" font-size="4.94182" transform="translate(605.335, 356.969)" >pnpMPA</text>
<text fill="#222222"  xml:space="preserve" font-size="4.94182" transform="translate(605.335, 337.368)" >XQ2</text>
<text fill="#ff0000"  xml:space="preserve" font-size="3.70636" transform="translate(599.395, 331.791)" >e</text>
<text fill="#ff0000"  xml:space="preserve" font-size="3.70636" transform="translate(599.395, 361.49)" >c</text>
<text fill="#ff0000"  xml:space="preserve" font-size="3.70636" transform="translate(586.595, 343.671)" >b</text>
<text fill="#666600"  xml:space="preserve" font-size="4.94182" transform="translate(605.335, 345.09)" >w=1.0e-6</text>
<text fill="#666600"  xml:space="preserve" font-size="4.94182" transform="translate(605.335, 351.029)" >l=2.0e-6</text>
<text fill="#222222"  xml:space="preserve" font-size="4.94182" transform="translate(402.197, 240.551)" >M1A</text>
<text fill="#ff0000"  xml:space="preserve" font-size="3.70636" transform="translate(409.325, 248.933)" >G</text>
<text fill="#222222"  xml:space="preserve" font-size="4.94182" transform="translate(356.318, 263.987)" >sg13_lv_nmos</text>
<text fill="#666600"  xml:space="preserve" font-size="4.94182" transform="translate(377.724, 257.776)" >m=1</text>
<text fill="#666600"  xml:space="preserve" font-size="4.94182" transform="translate(376.724, 253.618)" >ng=3</text>
<text fill="#666600"  xml:space="preserve" font-size="4.94182" transform="translate(378.724, 247.679)" >l=1u</text>
<text fill="#666600"  xml:space="preserve" font-size="4.94182" transform="translate(372.724, 242.333)" >w=15u</text>
<text fill="#ff0000"  xml:space="preserve" font-size="3.70636" transform="translate(390.882, 262)" >S</text>
<text fill="#ff0000"  xml:space="preserve" font-size="3.70636" transform="translate(390.882, 241.118)" >D</text>
<text fill="#ff0000"  xml:space="preserve" font-size="3.70636" transform="translate(392.07, 248.933)" >B</text>
<text fill="#222222"  xml:space="preserve" font-size="4.94182" transform="translate(700.37, 356.969)" >pnpMPA</text>
<text fill="#222222"  xml:space="preserve" font-size="4.94182" transform="translate(700.37, 337.368)" >XQ3</text>
<text fill="#ff0000"  xml:space="preserve" font-size="3.70636" transform="translate(694.43, 331.791)" >e</text>
<text fill="#ff0000"  xml:space="preserve" font-size="3.70636" transform="translate(694.43, 361.49)" >c</text>
<text fill="#ff0000"  xml:space="preserve" font-size="3.70636" transform="translate(681.63, 343.671)" >b</text>
<text fill="#666600"  xml:space="preserve" font-size="4.94182" transform="translate(700.37, 345.09)" >w=1.0e-6</text>
<text fill="#666600"  xml:space="preserve" font-size="4.94182" transform="translate(700.37, 351.029)" >l=2.0e-6</text>
<text fill="#0055ee"  xml:space="preserve" font-size="6.67146" transform="translate(769.525, 252.883)" >vref</text>
<text fill="#222222"  xml:space="preserve" font-size="4.94182" transform="translate(402.197, 293.414)" >Vmeas</text>
<text fill="#222222"  xml:space="preserve" font-size="4.94182" transform="translate(706.309, 212.635)" >Vmeas1</text>
<text fill="#0055ee"  xml:space="preserve" font-size="8.154" transform="translate(590.583, 277.621)" >v2</text>
<text fill="#0055ee"  xml:space="preserve" font-size="8.154" transform="translate(590.583, 325.139)" >v3</text>
<text fill="#0055ee"  xml:space="preserve" font-size="8.154" transform="translate(381.506, 277.621)" >v1</text>
<text fill="#0055ee"  xml:space="preserve" font-size="6.67146" transform="translate(438.903, 58.0608)" >vg4</text>
<text fill="#222222"  xml:space="preserve" font-size="4.94182" transform="translate(402.197, 88.4952)" >M4B</text>
<text fill="#ff0000"  xml:space="preserve" font-size="3.70636" transform="translate(409.325, 96.8769)" >G</text>
<text fill="#222222"  xml:space="preserve" font-size="4.94182" transform="translate(356.318, 111.931)" >sg13_lv_pmos</text>
<text fill="#666600"  xml:space="preserve" font-size="4.94182" transform="translate(377.724, 105.72)" >m=1</text>
<text fill="#666600"  xml:space="preserve" font-size="4.94182" transform="translate(373.724, 101.562)" >ng=10</text>
<text fill="#666600"  xml:space="preserve" font-size="4.94182" transform="translate(378.724, 95.6228)" >l=1u</text>
<text fill="#666600"  xml:space="preserve" font-size="4.94182" transform="translate(372.724, 90.2771)" >w=50u</text>
<text fill="#ff0000"  xml:space="preserve" font-size="3.70636" transform="translate(390.882, 109.944)" >D</text>
<text fill="#ff0000"  xml:space="preserve" font-size="3.70636" transform="translate(390.882, 89.0619)" >S</text>
<text fill="#ff0000"  xml:space="preserve" font-size="3.70636" transform="translate(392.07, 96.8769)" >B</text>
<text fill="#0055ee"  xml:space="preserve" font-size="6.67146" transform="translate(448.406, 248.131)" >vg1</text>
<text fill="#0055ee"  xml:space="preserve" font-size="6.67146" transform="translate(448.406, 210.117)" >vg2</text>
<text fill="#0055ee"  xml:space="preserve" font-size="6.67146" transform="translate(438.903, 96.0748)" >vg3</text>
<text fill="#222222"  xml:space="preserve" font-size="4.94182" transform="translate(402.197, 202.537)" >M1B</text>
<text fill="#ff0000"  xml:space="preserve" font-size="3.70636" transform="translate(409.325, 210.919)" >G</text>
<text fill="#222222"  xml:space="preserve" font-size="4.94182" transform="translate(356.318, 225.973)" >sg13_lv_nmos</text>
<text fill="#666600"  xml:space="preserve" font-size="4.94182" transform="translate(377.724, 219.762)" >m=1</text>
<text fill="#666600"  xml:space="preserve" font-size="4.94182" transform="translate(376.724, 215.604)" >ng=3</text>
<text fill="#666600"  xml:space="preserve" font-size="4.94182" transform="translate(378.724, 209.665)" >l=1u</text>
<text fill="#666600"  xml:space="preserve" font-size="4.94182" transform="translate(372.724, 204.319)" >w=15u</text>
<text fill="#ff0000"  xml:space="preserve" font-size="3.70636" transform="translate(390.882, 223.986)" >S</text>
<text fill="#ff0000"  xml:space="preserve" font-size="3.70636" transform="translate(390.882, 203.104)" >D</text>
<text fill="#ff0000"  xml:space="preserve" font-size="3.70636" transform="translate(392.07, 210.919)" >B</text>
<text fill="#222222"  xml:space="preserve" font-size="4.94182" transform="translate(586.019, 240.551)" >M2A</text>
<text fill="#ff0000"  xml:space="preserve" font-size="3.70636" transform="translate(586.892, 248.933)" >G</text>
<text fill="#222222"  xml:space="preserve" font-size="4.94182" transform="translate(608.899, 263.987)" >sg13_lv_nmos</text>
<text fill="#666600"  xml:space="preserve" font-size="4.94182" transform="translate(609.492, 257.776)" >m=1</text>
<text fill="#666600"  xml:space="preserve" font-size="4.94182" transform="translate(609.492, 253.618)" >ng=3</text>
<text fill="#666600"  xml:space="preserve" font-size="4.94182" transform="translate(609.492, 247.679)" >l=1u</text>
<text fill="#666600"  xml:space="preserve" font-size="4.94182" transform="translate(609.492, 242.333)" >w=15u</text>
<text fill="#ff0000"  xml:space="preserve" font-size="3.70636" transform="translate(605.335, 262)" >S</text>
<text fill="#ff0000"  xml:space="preserve" font-size="3.70636" transform="translate(605.335, 241.118)" >D</text>
<text fill="#ff0000"  xml:space="preserve" font-size="3.70636" transform="translate(604.147, 248.933)" >B</text>
<text fill="#222222"  xml:space="preserve" font-size="4.94182" transform="translate(586.019, 202.537)" >M2B</text>
<text fill="#ff0000"  xml:space="preserve" font-size="3.70636" transform="translate(586.892, 210.919)" >G</text>
<text fill="#222222"  xml:space="preserve" font-size="4.94182" transform="translate(608.899, 225.973)" >sg13_lv_nmos</text>
<text fill="#666600"  xml:space="preserve" font-size="4.94182" transform="translate(609.492, 219.762)" >m=1</text>
<text fill="#666600"  xml:space="preserve" font-size="4.94182" transform="translate(609.492, 215.604)" >ng=3</text>
<text fill="#666600"  xml:space="preserve" font-size="4.94182" transform="translate(609.492, 209.665)" >l=1u</text>
<text fill="#666600"  xml:space="preserve" font-size="4.94182" transform="translate(609.492, 204.319)" >w=15u</text>
<text fill="#ff0000"  xml:space="preserve" font-size="3.70636" transform="translate(605.335, 223.986)" >S</text>
<text fill="#ff0000"  xml:space="preserve" font-size="3.70636" transform="translate(605.335, 203.104)" >D</text>
<text fill="#ff0000"  xml:space="preserve" font-size="3.70636" transform="translate(604.147, 210.919)" >B</text>
<text fill="#222222"  xml:space="preserve" font-size="4.94182" transform="translate(402.197, 50.4812)" >M4A</text>
<text fill="#ff0000"  xml:space="preserve" font-size="3.70636" transform="translate(409.325, 58.8629)" >G</text>
<text fill="#222222"  xml:space="preserve" font-size="4.94182" transform="translate(356.318, 73.9174)" >sg13_lv_pmos</text>
<text fill="#666600"  xml:space="preserve" font-size="4.94182" transform="translate(377.724, 67.7063)" >m=1</text>
<text fill="#666600"  xml:space="preserve" font-size="4.94182" transform="translate(373.724, 63.5485)" >ng=10</text>
<text fill="#666600"  xml:space="preserve" font-size="4.94182" transform="translate(378.724, 57.6088)" >l=1u</text>
<text fill="#666600"  xml:space="preserve" font-size="4.94182" transform="translate(372.724, 52.2631)" >w=50u</text>
<text fill="#ff0000"  xml:space="preserve" font-size="3.70636" transform="translate(390.882, 71.9302)" >D</text>
<text fill="#ff0000"  xml:space="preserve" font-size="3.70636" transform="translate(390.882, 51.0479)" >S</text>
<text fill="#ff0000"  xml:space="preserve" font-size="3.70636" transform="translate(392.07, 58.8629)" >B</text>
<text fill="#222222"  xml:space="preserve" font-size="4.94182" transform="translate(586.019, 88.4952)" >M3B</text>
<text fill="#ff0000"  xml:space="preserve" font-size="3.70636" transform="translate(586.892, 96.8769)" >G</text>
<text fill="#222222"  xml:space="preserve" font-size="4.94182" transform="translate(608.899, 111.931)" >sg13_lv_pmos</text>
<text fill="#666600"  xml:space="preserve" font-size="4.94182" transform="translate(609.492, 105.72)" >m=1</text>
<text fill="#666600"  xml:space="preserve" font-size="4.94182" transform="translate(609.492, 101.562)" >ng=10</text>
<text fill="#666600"  xml:space="preserve" font-size="4.94182" transform="translate(609.492, 95.6228)" >l=1u</text>
<text fill="#666600"  xml:space="preserve" font-size="4.94182" transform="translate(609.492, 90.2771)" >w=50u</text>
<text fill="#ff0000"  xml:space="preserve" font-size="3.70636" transform="translate(605.335, 109.944)" >D</text>
<text fill="#ff0000"  xml:space="preserve" font-size="3.70636" transform="translate(605.335, 89.0619)" >S</text>
<text fill="#ff0000"  xml:space="preserve" font-size="3.70636" transform="translate(604.147, 96.8769)" >B</text>
<text fill="#222222"  xml:space="preserve" font-size="4.94182" transform="translate(586.019, 50.4812)" >M3A</text>
<text fill="#ff0000"  xml:space="preserve" font-size="3.70636" transform="translate(586.892, 58.8629)" >G</text>
<text fill="#222222"  xml:space="preserve" font-size="4.94182" transform="translate(608.899, 73.9174)" >sg13_lv_pmos</text>
<text fill="#666600"  xml:space="preserve" font-size="4.94182" transform="translate(609.492, 67.7063)" >m=1</text>
<text fill="#666600"  xml:space="preserve" font-size="4.94182" transform="translate(609.492, 63.5485)" >ng=10</text>
<text fill="#666600"  xml:space="preserve" font-size="4.94182" transform="translate(609.492, 57.6088)" >l=1u</text>
<text fill="#666600"  xml:space="preserve" font-size="4.94182" transform="translate(609.492, 52.2631)" >w=50u</text>
<text fill="#ff0000"  xml:space="preserve" font-size="3.70636" transform="translate(605.335, 71.9302)" >D</text>
<text fill="#ff0000"  xml:space="preserve" font-size="3.70636" transform="translate(605.335, 51.0479)" >S</text>
<text fill="#ff0000"  xml:space="preserve" font-size="3.70636" transform="translate(604.147, 58.8629)" >B</text>
<text fill="#222222"  xml:space="preserve" font-size="4.94182" transform="translate(681.054, 112.254)" >M5A</text>
<text fill="#ff0000"  xml:space="preserve" font-size="3.70636" transform="translate(681.926, 120.636)" >G</text>
<text fill="#222222"  xml:space="preserve" font-size="4.94182" transform="translate(703.933, 135.69)" >sg13_lv_pmos</text>
<text fill="#666600"  xml:space="preserve" font-size="4.94182" transform="translate(704.527, 129.479)" >m=1</text>
<text fill="#666600"  xml:space="preserve" font-size="4.94182" transform="translate(704.527, 125.321)" >ng=10</text>
<text fill="#666600"  xml:space="preserve" font-size="4.94182" transform="translate(704.527, 119.382)" >l=1u</text>
<text fill="#666600"  xml:space="preserve" font-size="4.94182" transform="translate(704.527, 114.036)" >w=50u</text>
<text fill="#ff0000"  xml:space="preserve" font-size="3.70636" transform="translate(700.37, 133.703)" >D</text>
<text fill="#ff0000"  xml:space="preserve" font-size="3.70636" transform="translate(700.37, 112.821)" >S</text>
<text fill="#ff0000"  xml:space="preserve" font-size="3.70636" transform="translate(699.182, 120.636)" >B</text>
<text fill="#222222"  xml:space="preserve" font-size="4.94182" transform="translate(681.054, 159.771)" >M5B</text>
<text fill="#ff0000"  xml:space="preserve" font-size="3.70636" transform="translate(681.926, 168.153)" >G</text>
<text fill="#222222"  xml:space="preserve" font-size="4.94182" transform="translate(703.933, 183.208)" >sg13_lv_pmos</text>
<text fill="#666600"  xml:space="preserve" font-size="4.94182" transform="translate(704.527, 176.996)" >m=1</text>
<text fill="#666600"  xml:space="preserve" font-size="4.94182" transform="translate(704.527, 172.839)" >ng=10</text>
<text fill="#666600"  xml:space="preserve" font-size="4.94182" transform="translate(704.527, 166.899)" >l=1u</text>
<text fill="#666600"  xml:space="preserve" font-size="4.94182" transform="translate(704.527, 161.553)" >w=50u</text>
<text fill="#ff0000"  xml:space="preserve" font-size="3.70636" transform="translate(700.37, 181.22)" >D</text>
<text fill="#ff0000"  xml:space="preserve" font-size="3.70636" transform="translate(700.37, 160.338)" >S</text>
<text fill="#ff0000"  xml:space="preserve" font-size="3.70636" transform="translate(699.182, 168.153)" >B</text>
<text fill="#222222"  xml:space="preserve" font-size="4.94182" transform="translate(460.977, 126.509)" >Mstartup</text>
<text fill="#ff0000"  xml:space="preserve" font-size="3.70636" transform="translate(472.85, 134.891)" >G</text>
<text fill="#222222"  xml:space="preserve" font-size="4.94182" transform="translate(494.857, 149.945)" >sg13_lv_pmos</text>
<text fill="#666600"  xml:space="preserve" font-size="4.94182" transform="translate(495.45, 143.734)" >m=1</text>
<text fill="#666600"  xml:space="preserve" font-size="4.94182" transform="translate(495.45, 139.576)" >ng=1</text>
<text fill="#666600"  xml:space="preserve" font-size="4.94182" transform="translate(495.45, 133.637)" >l=10u</text>
<text fill="#666600"  xml:space="preserve" font-size="4.94182" transform="translate(495.45, 128.291)" >w=0.5u</text>
<text fill="#ff0000"  xml:space="preserve" font-size="3.70636" transform="translate(491.293, 147.958)" >D</text>
<text fill="#ff0000"  xml:space="preserve" font-size="3.70636" transform="translate(491.293, 127.076)" >S</text>
<text fill="#ff0000"  xml:space="preserve" font-size="3.70636" transform="translate(490.105, 134.891)" >B</text>
<text fill="#222222"  xml:space="preserve" font-size="4.94182" transform="translate(497.232, 179.372)" >Vmeas2</text>
<text fill="#222222"  xml:space="preserve" font-size="4.94182" transform="translate(539.544, 301.849)" >bandgap_simple_res-6k</text>
<text fill="#222222"  xml:space="preserve" font-size="4.94182" transform="translate(589.019, 294.246)" >xr1</text>
<text fill="#222222"  xml:space="preserve" font-size="4.94182" transform="translate(594.643, 286.168)" >rp</text>
<text fill="#222222"  xml:space="preserve" font-size="4.94182" transform="translate(594.643, 309.927)" >rn</text>
<text fill="#222222"  xml:space="preserve" font-size="4.94182" transform="translate(616.026, 293.296)" >bn</text>
<text fill="#222222"  xml:space="preserve" font-size="4.94182" transform="translate(327.467, 168.8)" >bandgap_simple_res-10k</text>
<text fill="#222222"  xml:space="preserve" font-size="4.94182" transform="translate(379.942, 161.197)" >xr4</text>
<text fill="#222222"  xml:space="preserve" font-size="4.94182" transform="translate(385.566, 153.119)" >rp</text>
<text fill="#222222"  xml:space="preserve" font-size="4.94182" transform="translate(385.566, 176.878)" >rn</text>
<text fill="#222222"  xml:space="preserve" font-size="4.94182" transform="translate(406.949, 160.247)" >bn</text>
<text fill="#222222"  xml:space="preserve" font-size="4.94182" transform="translate(611.75, 149.793)" >bandgap_simple_res-10k</text>
<text fill="#222222"  xml:space="preserve" font-size="4.94182" transform="translate(611.274, 142.19)" >xr3</text>
<text fill="#222222"  xml:space="preserve" font-size="4.94182" transform="translate(608.65, 134.112)" >rp</text>
<text fill="#222222"  xml:space="preserve" font-size="4.94182" transform="translate(608.65, 157.871)" >rn</text>
<text fill="#222222"  xml:space="preserve" font-size="4.94182" transform="translate(586.267, 141.24)" >bn</text>
<text fill="#222222"  xml:space="preserve" font-size="4.94182" transform="translate(706.785, 301.849)" >bandgap_simple_res-37k5</text>
<text fill="#222222"  xml:space="preserve" font-size="4.94182" transform="translate(706.309, 294.246)" >xr2</text>
<text fill="#222222"  xml:space="preserve" font-size="4.94182" transform="translate(703.685, 286.168)" >rp</text>
<text fill="#222222"  xml:space="preserve" font-size="4.94182" transform="translate(703.685, 309.927)" >rn</text>
<text fill="#222222"  xml:space="preserve" font-size="4.94182" transform="translate(681.302, 293.296)" >bn</text>
<text fill="#0055ee"  xml:space="preserve" font-size="4.94182" transform="translate(420.94, 161.224) rotate(270)" >GND</text>
<text fill="#0055ee"  xml:space="preserve" font-size="4.94182" transform="translate(630.017, 294.273) rotate(270)" >GND</text>
<text fill="#0055ee"  xml:space="preserve" font-size="4.94182" transform="translate(676.618, 294.273) rotate(270)" >GND</text>
<text fill="#0055ee"  xml:space="preserve" font-size="4.94182" transform="translate(581.583, 142.217) rotate(270)" >GND</text>
<path class="l1" d="M309.538 378.616L309.538 388.12"/>
<path class="l1" d="M309.538 359.609L309.538 378.616"/>
<path class="l1" d="M604.147 359.609L604.147 378.616"/>
<path class="l1" d="M395.07 359.609L395.07 378.616"/>
<path class="l1" d="M575.636 345.354L585.14 345.354"/>
<path class="l1" d="M575.636 345.354L575.636 378.616"/>
<path class="l1" d="M414.077 345.354L423.58 345.354"/>
<path class="l1" d="M423.58 345.354L423.58 378.616"/>
<path class="l1" d="M395.07 378.616L423.58 378.616"/>
<path class="l1" d="M604.147 312.092L604.147 331.099"/>
<path class="l1" d="M395.07 26.987L395.07 45.994"/>
<path class="l1" d="M532.871 26.987L604.147 26.987"/>
<path class="l1" d="M604.147 26.987L604.147 45.994"/>
<path class="l1" d="M366.559 26.987L395.07 26.987"/>
<path class="l1" d="M575.636 60.2492L585.14 60.2492"/>
<path class="l1" d="M414.077 250.319L423.58 250.319"/>
<path class="l1" d="M366.559 60.2492L395.07 60.2492"/>
<path class="l1" d="M366.559 26.987L366.559 60.2492"/>
<path class="l1" d="M309.538 26.987L366.559 26.987"/>
<path class="l1" d="M604.147 60.2492L632.657 60.2492"/>
<path class="l1" d="M632.657 26.987L632.657 60.2492"/>
<path class="l1" d="M604.147 26.987L632.657 26.987"/>
<path class="l1" d="M366.559 250.319L395.07 250.319"/>
<path class="l1" d="M366.559 378.616L395.07 378.616"/>
<path class="l1" d="M604.147 250.319L632.657 250.319"/>
<path class="l1" d="M632.657 378.616L670.671 378.616"/>
<path class="l1" d="M670.671 378.616L699.182 378.616"/>
<path class="l1" d="M699.182 359.609L699.182 378.616"/>
<path class="l1" d="M670.671 345.354L680.175 345.354"/>
<path class="l1" d="M670.671 345.354L670.671 378.616"/>
<path class="l1" d="M699.182 312.092L699.182 331.099"/>
<path class="l1" d="M632.657 26.987L699.182 26.987"/>
<path class="l1" d="M699.182 255.071L699.182 283.581"/>
<path class="l1" d="M699.182 26.987L727.692 26.987"/>
<path class="l1" d="M699.182 255.071L784.713 255.071"/>
<path class="l1" d="M395.07 312.092L395.07 331.099"/>
<path class="l1" d="M699.182 231.312L699.182 255.071"/>
<path class="l1" d="M604.147 226.56L604.147 236.064"/>
<path class="l1" d="M604.147 212.305L632.657 212.305"/>
<path class="l1" d="M632.657 212.305L632.657 250.319"/>
<path class="l1" d="M395.07 226.56L395.07 236.064"/>
<path class="l1" d="M366.559 212.305L395.07 212.305"/>
<path class="l1" d="M366.559 212.305L366.559 250.319"/>
<path class="l1" d="M395.07 188.546L423.58 188.546"/>
<path class="l1" d="M395.07 188.546L395.07 198.05"/>
<path class="l1" d="M395.07 179.043L395.07 188.546"/>
<path class="l1" d="M423.58 188.546L423.58 250.319"/>
<path class="l1" d="M433.084 141.029L433.084 212.305"/>
<path class="l1" d="M414.077 212.305L433.084 212.305"/>
<path class="l1" d="M395.07 141.029L433.084 141.029"/>
<path class="l1" d="M395.07 141.029L395.07 150.532"/>
<path class="l1" d="M395.07 112.518L395.07 141.029"/>
<path class="l1" d="M395.07 74.5045L395.07 84.008"/>
<path class="l1" d="M566.133 98.2632L585.14 98.2632"/>
<path class="l1" d="M604.147 74.5045L604.147 84.008"/>
<path class="l1" d="M604.147 98.2632L632.657 98.2632"/>
<path class="l1" d="M632.657 60.2492L632.657 98.2632"/>
<path class="l1" d="M366.559 98.2632L395.07 98.2632"/>
<path class="l1" d="M366.559 60.2492L366.559 98.2632"/>
<path class="l1" d="M575.636 122.022L604.147 122.022"/>
<path class="l1" d="M566.133 98.2632L566.133 169.539"/>
<path class="l1" d="M604.147 160.036L604.147 169.539"/>
<path class="l1" d="M604.147 169.539L680.175 169.539"/>
<path class="l1" d="M604.147 169.539L604.147 198.05"/>
<path class="l1" d="M575.636 60.2492L575.636 122.022"/>
<path class="l1" d="M604.147 112.518L604.147 122.022"/>
<path class="l1" d="M604.147 122.022L680.175 122.022"/>
<path class="l1" d="M604.147 122.022L604.147 131.525"/>
<path class="l1" d="M309.538 26.987L309.538 331.099"/>
<path class="l1" d="M395.07 264.574L395.07 283.581"/>
<path class="l1" d="M366.559 250.319L366.559 378.616"/>
<path class="l1" d="M604.147 264.574L604.147 283.581"/>
<path class="l1" d="M632.657 250.319L632.657 378.616"/>
<path class="l1" d="M566.133 169.539L604.147 169.539"/>
<path class="l1" d="M309.538 378.616L366.559 378.616"/>
<path class="l1" d="M604.147 378.616L632.657 378.616"/>
<path class="l1" d="M699.182 26.987L699.182 107.767"/>
<path class="l1" d="M727.692 122.022L727.692 169.539"/>
<path class="l1" d="M699.182 169.539L727.692 169.539"/>
<path class="l1" d="M699.182 122.022L727.692 122.022"/>
<path class="l1" d="M727.692 26.987L727.692 122.022"/>
<path class="l1" d="M699.182 136.277L699.182 155.284"/>
<path class="l1" d="M699.182 183.795L699.182 202.802"/>
<path class="l1" d="M575.636 378.616L604.147 378.616"/>
<path class="l1" d="M423.58 378.616L575.636 378.616"/>
<path class="l1" d="M414.077 60.2492L575.636 60.2492"/>
<path class="l1" d="M461.594 136.277L471.098 136.277"/>
<path class="l1" d="M490.105 150.532L490.105 160.036"/>
<path class="l1" d="M423.58 250.319L585.14 250.319"/>
<path class="l1" d="M490.105 98.2632L566.133 98.2632"/>
<path class="l1" d="M490.105 98.2632L490.105 122.022"/>
<path class="l1" d="M414.077 98.2632L490.105 98.2632"/>
<path class="l1" d="M490.105 136.277L532.871 136.277"/>
<path class="l1" d="M395.07 26.987L532.871 26.987"/>
<path class="l1" d="M461.594 160.036L490.105 160.036"/>
<path class="l1" d="M461.594 136.277L461.594 160.036"/>
<path class="l1" d="M490.105 212.305L585.14 212.305"/>
<path class="l1" d="M490.105 198.05L490.105 212.305"/>
<path class="l1" d="M433.084 212.305L490.105 212.305"/>
<path class="l1" d="M532.871 26.987L532.871 136.277"/>
<path class="l1" d="M490.105 160.036L490.105 169.539"/>
<path class="l1" d="M409.325 164.788L414.077 164.788"/>
<path class="l1" d="M585.14 145.781L589.892 145.781"/>
<path class="l1" d="M680.175 297.837L684.926 297.837"/>
<path class="l1" d="M618.402 297.837L623.154 297.837"/>
<circle class="l1" cx="366.559" cy="26.987" r="1.75815"/>
<circle class="l1" cx="309.538" cy="378.616" r="1.75815"/>
<circle class="l1" cx="366.559" cy="378.616" r="1.75815"/>
<circle class="l1" cx="309.538" cy="378.616" r="1.75815"/>
<circle class="l1" cx="309.538" cy="378.616" r="1.75815"/>
<circle class="l1" cx="395.07" cy="26.987" r="1.75815"/>
<circle class="l1" cx="532.871" cy="26.987" r="1.75815"/>
<circle class="l1" cx="490.105" cy="98.2632" r="1.75815"/>
<circle class="l1" cx="490.105" cy="98.2632" r="1.75815"/>
<circle class="l1" cx="490.105" cy="98.2632" r="1.75815"/>
<circle class="l1" cx="566.133" cy="98.2632" r="1.75815"/>
<circle class="l1" cx="575.636" cy="60.2492" r="1.75815"/>
<circle class="l1" cx="366.559" cy="60.2492" r="1.75815"/>
<circle class="l1" cx="395.07" cy="141.029" r="1.75815"/>
<circle class="l1" cx="366.559" cy="26.987" r="1.75815"/>
<circle class="l1" cx="366.559" cy="60.2492" r="1.75815"/>
<circle class="l1" cx="366.559" cy="60.2492" r="1.75815"/>
<circle class="l1" cx="366.559" cy="26.987" r="1.75815"/>
<circle class="l1" cx="395.07" cy="26.987" r="1.75815"/>
<circle class="l1" cx="395.07" cy="26.987" r="1.75815"/>
<circle class="l1" cx="490.105" cy="160.036" r="1.75815"/>
<circle class="l1" cx="433.084" cy="212.305" r="1.75815"/>
<circle class="l1" cx="490.105" cy="212.305" r="1.75815"/>
<circle class="l1" cx="490.105" cy="212.305" r="1.75815"/>
<circle class="l1" cx="490.105" cy="212.305" r="1.75815"/>
<circle class="l1" cx="490.105" cy="160.036" r="1.75815"/>
<circle class="l1" cx="423.58" cy="250.319" r="1.75815"/>
<circle class="l1" cx="490.105" cy="160.036" r="1.75815"/>
<circle class="l1" cx="366.559" cy="250.319" r="1.75815"/>
<circle class="l1" cx="366.559" cy="378.616" r="1.75815"/>
<circle class="l1" cx="395.07" cy="141.029" r="1.75815"/>
<circle class="l1" cx="395.07" cy="141.029" r="1.75815"/>
<circle class="l1" cx="433.084" cy="212.305" r="1.75815"/>
<circle class="l1" cx="433.084" cy="212.305" r="1.75815"/>
<circle class="l1" cx="423.58" cy="250.319" r="1.75815"/>
<circle class="l1" cx="395.07" cy="188.546" r="1.75815"/>
<circle class="l1" cx="395.07" cy="188.546" r="1.75815"/>
<circle class="l1" cx="395.07" cy="188.546" r="1.75815"/>
<circle class="l1" cx="366.559" cy="250.319" r="1.75815"/>
<circle class="l1" cx="366.559" cy="250.319" r="1.75815"/>
<circle class="l1" cx="423.58" cy="250.319" r="1.75815"/>
<circle class="l1" cx="423.58" cy="378.616" r="1.75815"/>
<circle class="l1" cx="575.636" cy="378.616" r="1.75815"/>
<circle class="l1" cx="366.559" cy="378.616" r="1.75815"/>
<circle class="l1" cx="395.07" cy="378.616" r="1.75815"/>
<circle class="l1" cx="395.07" cy="378.616" r="1.75815"/>
<circle class="l1" cx="423.58" cy="378.616" r="1.75815"/>
<circle class="l1" cx="423.58" cy="378.616" r="1.75815"/>
<circle class="l1" cx="395.07" cy="378.616" r="1.75815"/>
<circle class="l1" cx="532.871" cy="26.987" r="1.75815"/>
<circle class="l1" cx="604.147" cy="122.022" r="1.75815"/>
<circle class="l1" cx="604.147" cy="122.022" r="1.75815"/>
<circle class="l1" cx="604.147" cy="122.022" r="1.75815"/>
<circle class="l1" cx="575.636" cy="60.2492" r="1.75815"/>
<circle class="l1" cx="566.133" cy="98.2632" r="1.75815"/>
<circle class="l1" cx="604.147" cy="122.022" r="1.75815"/>
<circle class="l1" cx="632.657" cy="60.2492" r="1.75815"/>
<circle class="l1" cx="566.133" cy="98.2632" r="1.75815"/>
<circle class="l1" cx="632.657" cy="26.987" r="1.75815"/>
<circle class="l1" cx="699.182" cy="26.987" r="1.75815"/>
<circle class="l1" cx="604.147" cy="26.987" r="1.75815"/>
<circle class="l1" cx="632.657" cy="26.987" r="1.75815"/>
<circle class="l1" cx="632.657" cy="26.987" r="1.75815"/>
<circle class="l1" cx="632.657" cy="60.2492" r="1.75815"/>
<circle class="l1" cx="632.657" cy="60.2492" r="1.75815"/>
<circle class="l1" cx="575.636" cy="60.2492" r="1.75815"/>
<circle class="l1" cx="604.147" cy="26.987" r="1.75815"/>
<circle class="l1" cx="532.871" cy="26.987" r="1.75815"/>
<circle class="l1" cx="604.147" cy="26.987" r="1.75815"/>
<circle class="l1" cx="604.147" cy="169.539" r="1.75815"/>
<circle class="l1" cx="632.657" cy="250.319" r="1.75815"/>
<circle class="l1" cx="632.657" cy="378.616" r="1.75815"/>
<circle class="l1" cx="604.147" cy="169.539" r="1.75815"/>
<circle class="l1" cx="604.147" cy="169.539" r="1.75815"/>
<circle class="l1" cx="604.147" cy="169.539" r="1.75815"/>
<circle class="l1" cx="632.657" cy="250.319" r="1.75815"/>
<circle class="l1" cx="632.657" cy="250.319" r="1.75815"/>
<circle class="l1" cx="575.636" cy="378.616" r="1.75815"/>
<circle class="l1" cx="604.147" cy="378.616" r="1.75815"/>
<circle class="l1" cx="604.147" cy="378.616" r="1.75815"/>
<circle class="l1" cx="632.657" cy="378.616" r="1.75815"/>
<circle class="l1" cx="670.671" cy="378.616" r="1.75815"/>
<circle class="l1" cx="670.671" cy="378.616" r="1.75815"/>
<circle class="l1" cx="632.657" cy="378.616" r="1.75815"/>
<circle class="l1" cx="670.671" cy="378.616" r="1.75815"/>
<circle class="l1" cx="575.636" cy="378.616" r="1.75815"/>
<circle class="l1" cx="604.147" cy="378.616" r="1.75815"/>
<circle class="l1" cx="727.692" cy="122.022" r="1.75815"/>
<circle class="l1" cx="727.692" cy="122.022" r="1.75815"/>
<circle class="l1" cx="727.692" cy="122.022" r="1.75815"/>
<circle class="l1" cx="699.182" cy="26.987" r="1.75815"/>
<circle class="l1" cx="699.182" cy="26.987" r="1.75815"/>
<circle class="l1" cx="699.182" cy="255.071" r="1.75815"/>
<circle class="l1" cx="699.182" cy="255.071" r="1.75815"/>
<circle class="l1" cx="699.182" cy="255.071" r="1.75815"/>
<text fill="#222222"  xml:space="preserve" font-size="9.88364" transform="translate(561.381, 340.073)" >m=32</text>
<text fill="#222222"  xml:space="preserve" font-size="9.88364" transform="translate(385.566, 397.094)" >10uA</text>
<text fill="#222222"  xml:space="preserve" font-size="9.88364" transform="translate(585.14, 397.094)" >10uA</text>
<text fill="#222222"  xml:space="preserve" font-size="9.88364" transform="translate(684.926, 397.094)" >10uA</text>
<text fill="#222222"  xml:space="preserve" font-size="9.88364" transform="translate(409.325, 340.073)" >m=2</text>
<text fill="#222222"  xml:space="preserve" font-size="9.88364" transform="translate(656.416, 340.073)" >m=32</text>
<text fill="#222222"  xml:space="preserve" font-size="9.88364" transform="translate(718.189, 249.79)" >1.16V</text>
<text fill="#222222"  xml:space="preserve" font-size="9.88364" transform="translate(528.119, 245.038)" >1.16V</text>
<text fill="#222222"  xml:space="preserve" font-size="9.88364" transform="translate(528.119, 207.024)" >1.28V</text>
<text fill="#222222"  xml:space="preserve" font-size="9.88364" transform="translate(490.105, 54.9683)" >1.10V</text>
<text fill="#222222"  xml:space="preserve" font-size="9.88364" transform="translate(490.105, 92.9823)" >0.98V</text>
<text fill="#222222"  xml:space="preserve" font-size="9.88364" transform="translate(399.822, 321.066)" >0.78V</text>
<text fill="#222222"  xml:space="preserve" font-size="9.88364" transform="translate(409.325, 16.9543)" >1.5V (nom)</text>
<text fill="#222222"  xml:space="preserve" font-size="4.94182" transform="translate(114.092, 502.373)" >b</text>
</svg>
