<svg xmlns="http://www.w3.org/2000/svg" xmlns:xlink="http://www.w3.org/1999/xlink" width="900" height="532" version="1.1">
<style type="text/css">
.l0{
  fill: #ffffff;
  stroke: #ffffff;
  stroke-linecap:round;
  stroke-linejoin:round;
  stroke-width: 0.799017;
}
.l1{
  fill: #0044ee;
  stroke: #0044ee;
  stroke-linecap:round;
  stroke-linejoin:round;
  stroke-width: 0.799017;
}
.l2{
  fill: #aaaaaa; fill-opacity: 0.2;
  stroke: #aaaaaa;
  stroke-linecap:round;
  stroke-linejoin:round;
  stroke-width: 0.799017;
}
.l3{
  fill: #222222; fill-opacity: 0.5;
  stroke: #222222;
  stroke-linecap:round;
  stroke-linejoin:round;
  stroke-width: 0.799017;
}
.l4{
  fill: #229900;
  stroke: #229900;
  stroke-linecap:round;
  stroke-linejoin:round;
  stroke-width: 0.799017;
}
.l5{
  fill: #bb2200;
  stroke: #bb2200;
  stroke-linecap:round;
  stroke-linejoin:round;
  stroke-width: 0.799017;
}
.l6{
  fill: #00ccee; fill-opacity: 0.5;
  stroke: #00ccee;
  stroke-linecap:round;
  stroke-linejoin:round;
  stroke-width: 0.799017;
}
.l7{
  fill: #ff0000; fill-opacity: 0.5;
  stroke: #ff0000;
  stroke-linecap:round;
  stroke-linejoin:round;
  stroke-width: 0.799017;
}
.l8{
  fill: #888800; fill-opacity: 0.5;
  stroke: #888800;
  stroke-linecap:round;
  stroke-linejoin:round;
  stroke-width: 0.799017;
}
.l9{
  fill: #00aaaa; fill-opacity: 0.5;
  stroke: #00aaaa;
  stroke-linecap:round;
  stroke-linejoin:round;
  stroke-width: 0.799017;
}
.l10{
  fill: #880088;
  stroke: #880088;
  stroke-linecap:round;
  stroke-linejoin:round;
  stroke-width: 0.799017;
}
.l11{
  fill: #00ff00; fill-opacity: 0.5;
  stroke: #00ff00;
  stroke-linecap:round;
  stroke-linejoin:round;
  stroke-width: 0.799017;
}
.l12{
  fill: #0000cc; fill-opacity: 0.5;
  stroke: #0000cc;
  stroke-linecap:round;
  stroke-linejoin:round;
  stroke-width: 0.799017;
}
.l13{
  fill: #666600; fill-opacity: 0.5;
  stroke: #666600;
  stroke-linecap:round;
  stroke-linejoin:round;
  stroke-width: 0.799017;
}
.l14{
  fill: #557755; fill-opacity: 0.2;
  stroke: #557755;
  stroke-linecap:round;
  stroke-linejoin:round;
  stroke-width: 0.799017;
}
.l15{
  fill: #aa2222; fill-opacity: 0.5;
  stroke: #aa2222;
  stroke-linecap:round;
  stroke-linejoin:round;
  stroke-width: 0.799017;
}
.l16{
  fill: #7ccc40; fill-opacity: 0.5;
  stroke: #7ccc40;
  stroke-linecap:round;
  stroke-linejoin:round;
  stroke-width: 0.799017;
}
.l17{
  fill: #00ffcc; fill-opacity: 0.2;
  stroke: #00ffcc;
  stroke-linecap:round;
  stroke-linejoin:round;
  stroke-width: 0.799017;
}
.l18{
  fill: #ce0097; fill-opacity: 0.5;
  stroke: #ce0097;
  stroke-linecap:round;
  stroke-linejoin:round;
  stroke-width: 0.799017;
}
.l19{
  fill: #d2d46b; fill-opacity: 0.2;
  stroke: #d2d46b;
  stroke-linecap:round;
  stroke-linejoin:round;
  stroke-width: 0.799017;
}
.l20{
  fill: #ef6158; fill-opacity: 0.2;
  stroke: #ef6158;
  stroke-linecap:round;
  stroke-linejoin:round;
  stroke-width: 0.799017;
}
.l21{
  fill: #fdb200; fill-opacity: 0.2;
  stroke: #fdb200;
  stroke-linecap:round;
  stroke-linejoin:round;
  stroke-width: 0.799017;
}
text {font-family: Sans-Serif;}
</style>
<rect class="l0" x="0" y="0" width="900" height="532"/>
<text fill="#0044ee"  xml:space="preserve" font-size="12.6955" transform="translate(118.988, 160.865)" >rp</text>
<text fill="#0044ee"  xml:space="preserve" font-size="12.6955" transform="translate(118.988, 264.442)" >rn</text>
<text fill="#222222"  xml:space="preserve" font-size="15.3885" transform="translate(305.733, 373.7)" >         bandgap_simple_res-6k.sch</text>
<text fill="#222222"  xml:space="preserve" font-size="15.3885" transform="translate(305.733, 351.505)" >(c) 2025 H. Pretl, Apache-2.0 license</text>
<text fill="#222222"  xml:space="preserve" font-size="15.3885" transform="translate(714.5, 351.505)" >2025-01-10  08:33:10</text>
<text fill="#222222"  xml:space="preserve" font-size="38.4712" transform="translate(135.572, 372.464)" >SCHEM</text>
<text fill="#666600"  xml:space="preserve" font-size="7.69424" transform="translate(202.157, 212.274)" >w/l = 0.5e-6 / 10e-6</text>
<text fill="#222222"  xml:space="preserve" font-size="7.69424" transform="translate(202.157, 203.026)" >rppd</text>
<text fill="#222222"  xml:space="preserve" font-size="7.69424" transform="translate(202.157, 193.778)" >XR1</text>
<text fill="#666600"  xml:space="preserve" font-size="7.69424" transform="translate(202.157, 237.243)" >R=5278 </text>
<text fill="#666600"  xml:space="preserve" font-size="7.69424" transform="translate(202.157, 219.672)" >b=0</text>
<text fill="#666600"  xml:space="preserve" font-size="7.69424" transform="translate(202.157, 227.071)" >m=1</text>
<text fill="#666600"  xml:space="preserve" font-size="7.69424" transform="translate(320.53, 212.274)" >w/l = 0.5e-6 / 10e-6</text>
<text fill="#222222"  xml:space="preserve" font-size="7.69424" transform="translate(320.53, 203.026)" >rppd</text>
<text fill="#222222"  xml:space="preserve" font-size="7.69424" transform="translate(320.53, 193.778)" >XR2[1..5]</text>
<text fill="#666600"  xml:space="preserve" font-size="7.69424" transform="translate(320.53, 237.243)" >R=5278 </text>
<text fill="#666600"  xml:space="preserve" font-size="7.69424" transform="translate(320.53, 219.672)" >b=0</text>
<text fill="#666600"  xml:space="preserve" font-size="7.69424" transform="translate(320.53, 227.071)" >m=1</text>
<path class="l4" d="M191.059 222.859L191.059 230.257"/>
<path class="l4" d="M191.059 222.859L196.608 221.009"/>
<path class="l4" d="M185.511 217.31L196.608 221.009"/>
<path class="l4" d="M185.511 217.31L196.608 213.611"/>
<path class="l4" d="M185.511 209.912L196.608 213.611"/>
<path class="l4" d="M185.511 209.912L196.608 206.212"/>
<path class="l4" d="M185.511 202.513L196.608 206.212"/>
<path class="l4" d="M185.511 202.513L196.608 198.814"/>
<path class="l4" d="M185.511 195.115L196.608 198.814"/>
<path class="l4" d="M185.511 195.115L191.059 193.265"/>
<path class="l4" d="M191.059 185.867L191.059 193.265"/>
<path class="l4" d="M309.432 222.859L309.432 230.257"/>
<path class="l4" d="M309.432 222.859L314.981 221.009"/>
<path class="l4" d="M303.883 217.31L314.981 221.009"/>
<path class="l4" d="M303.883 217.31L314.981 213.611"/>
<path class="l4" d="M303.883 209.912L314.981 213.611"/>
<path class="l4" d="M303.883 209.912L314.981 206.212"/>
<path class="l4" d="M303.883 202.513L314.981 206.212"/>
<path class="l4" d="M303.883 202.513L314.981 198.814"/>
<path class="l4" d="M303.883 195.115L314.981 198.814"/>
<path class="l4" d="M303.883 195.115L309.432 193.265"/>
<path class="l4" d="M309.432 185.867L309.432 193.265"/>
<path class="l5" d="M124.475 344.931L124.243 345.162L124.012 345.393L123.781 345.624L123.55 345.855L123.319 346.087L123.087 346.318L122.856 346.549L122.625 346.78L122.394 347.011L122.163 347.243L121.931 347.474L121.7 347.705L121.469 347.936L121.238 348.167L121.007 348.399L120.775 348.63L120.544 348.861L120.313 349.092L120.082 349.323L119.851 349.555L119.619 349.786L119.388 350.017L119.157 350.248L118.926 350.479L118.695 350.711L118.463 350.942L118.232 351.173L118.001 351.404L117.77 351.635L117.539 351.867L117.307 352.098L117.076 352.329L117.076 352.329L116.852 352.56L116.643 352.791L116.448 353.023L116.267 353.254L116.101 353.485L115.949 353.716L115.812 353.947L115.689 354.179L115.581 354.41L115.487 354.641L115.407 354.872L115.342 355.103L115.292 355.335L115.256 355.566L115.234 355.797L115.227 356.028L115.234 356.259L115.256 356.491L115.292 356.722L115.342 356.953L115.407 357.184L115.487 357.415L115.581 357.647L115.689 357.878L115.812 358.109L115.949 358.34L116.101 358.571L116.267 358.802L116.448 359.034L116.643 359.265L116.852 359.496L117.076 359.727L117.076 359.727L117.308 359.959L117.542 360.193L117.778 360.429L118.016 360.667L118.255 360.906L118.496 361.147L118.739 361.39L118.984 361.635L119.23 361.881L119.479 362.13L119.729 362.38L119.981 362.632L120.234 362.885L120.49 363.141L120.747 363.398L121.007 363.658L121.268 363.919L121.53 364.181L121.795 364.446L122.061 364.712L122.33 364.981L122.6 365.251L122.872 365.523L123.145 365.796L123.421 366.072L123.698 366.349L123.977 366.628L124.258 366.909L124.541 367.192L124.825 367.476L125.111 367.762L125.399 368.05L125.399 368.05L125.687 368.338L125.97 368.621L126.25 368.901L126.526 369.177L126.799 369.45L127.068 369.719L127.334 369.985L127.596 370.247L127.854 370.505L128.109 370.76L128.36 371.011L128.607 371.258L128.851 371.502L129.091 371.742L129.328 371.979L129.561 372.212L129.79 372.441L130.016 372.667L130.238 372.889L130.457 373.108L130.672 373.323L130.883 373.534L131.091 373.742L131.295 373.946L131.495 374.146L131.692 374.343L131.886 374.537L132.075 374.726L132.261 374.912L132.444 375.095L132.622 375.273L132.798 375.449L132.798 375.449L132.966 375.619L133.123 375.785L133.269 375.944L133.405 376.099L133.529 376.248L133.643 376.392L133.746 376.53L133.838 376.662L133.919 376.79L133.99 376.912L134.049 377.028L134.098 377.139L134.136 377.245L134.163 377.345L134.179 377.44L134.185 377.529L134.179 377.613L134.163 377.692L134.136 377.765L134.098 377.833L134.049 377.895L133.99 377.952L133.919 378.004L133.838 378.05L133.746 378.09L133.643 378.126L133.529 378.155L133.405 378.18L133.269 378.199L133.123 378.212L132.966 378.22L132.798 378.223L132.798 378.223L132.624 378.223L132.451 378.223L132.277 378.223L132.104 378.223L131.931 378.223L131.757 378.223L131.584 378.223L131.41 378.223L131.237 378.223L131.064 378.223L130.89 378.223L130.717 378.223L130.543 378.223L130.37 378.223L130.197 378.223L130.023 378.223L129.85 378.223L129.677 378.223L129.503 378.223L129.33 378.223L129.156 378.223L128.983 378.223L128.81 378.223L128.636 378.223L128.463 378.223L128.289 378.223L128.116 378.223L127.943 378.223L127.769 378.223L127.596 378.223L127.422 378.223L127.249 378.223L127.249 378.223L127.076 378.223L126.906 378.223L126.737 378.223L126.57 378.223L126.405 378.223L126.241 378.223L126.079 378.223L125.92 378.223L125.762 378.223L125.605 378.223L125.451 378.223L125.298 378.223L125.147 378.223L124.998 378.223L124.851 378.223L124.706 378.223L124.562 378.223L124.42 378.223L124.28 378.223L124.142 378.223L124.006 378.223L123.871 378.223L123.739 378.223L123.608 378.223L123.478 378.223L123.351 378.223L123.226 378.223L123.102 378.223L122.98 378.223L122.86 378.223L122.742 378.223L122.625 378.223L122.625 378.223L122.509 378.221L122.394 378.216L122.278 378.207L122.163 378.194L122.047 378.178L121.931 378.158L121.816 378.135L121.7 378.107L121.585 378.077L121.469 378.042L121.353 378.004L121.238 377.963L121.122 377.918L121.007 377.869L120.891 377.817L120.775 377.761L120.66 377.701L120.544 377.638L120.429 377.571L120.313 377.501L120.197 377.426L120.082 377.349L119.966 377.268L119.851 377.183L119.735 377.094L119.619 377.002L119.504 376.906L119.388 376.807L119.273 376.704L119.157 376.597L119.041 376.487L118.926 376.373L118.926 376.373L118.81 376.258L118.695 376.142L118.579 376.027L118.463 375.911L118.348 375.795L118.232 375.68L118.117 375.564L118.001 375.449L117.885 375.333L117.77 375.217L117.654 375.102L117.539 374.986L117.423 374.871L117.307 374.755L117.192 374.639L117.076 374.524L116.961 374.408L116.845 374.293L116.729 374.177L116.614 374.061L116.498 373.946L116.383 373.83L116.267 373.715L116.151 373.599L116.036 373.484L115.92 373.368L115.805 373.252L115.689 373.137L115.573 373.021L115.458 372.906L115.342 372.79L115.227 372.674L115.227 372.674L115.109 372.557L114.988 372.436L114.864 372.311L114.735 372.183L114.604 372.051L114.468 371.916L114.329 371.777L114.186 371.634L114.04 371.488L113.89 371.338L113.737 371.184L113.579 371.027L113.419 370.866L113.254 370.702L113.086 370.534L112.915 370.362L112.74 370.187L112.561 370.008L112.378 369.826L112.192 369.64L112.003 369.45L111.809 369.257L111.612 369.06L111.412 368.86L111.208 368.655L111 368.448L110.789 368.236L110.574 368.021L110.355 367.803L110.133 367.581L109.907 367.355L109.678 367.126L109.678 367.126L109.447 366.902L109.216 366.692L108.984 366.497L108.753 366.316L108.522 366.15L108.291 365.998L108.06 365.861L107.828 365.738L107.597 365.63L107.366 365.536L107.135 365.457L106.904 365.392L106.672 365.341L106.441 365.305L106.21 365.283L105.979 365.276L105.748 365.283L105.516 365.305L105.285 365.341L105.054 365.392L104.823 365.457L104.592 365.536L104.36 365.63L104.129 365.738L103.898 365.861L103.667 365.998L103.436 366.15L103.204 366.316L102.973 366.497L102.742 366.692L102.511 366.902L102.28 367.126L102.28 367.126L102.05 367.355L101.824 367.581L101.602 367.803L101.384 368.021L101.169 368.236L100.958 368.448L100.75 368.655L100.546 368.86L100.345 369.06L100.148 369.257L99.955 369.45L99.7654 369.64L99.5794 369.826L99.3969 370.008L99.2181 370.187L99.0429 370.362L98.8713 370.534L98.7033 370.702L98.539 370.866L98.3782 371.027L98.2211 371.184L98.0675 371.338L97.9176 371.488L97.7713 371.634L97.6286 371.777L97.4895 371.916L97.3541 372.051L97.2222 372.183L97.094 372.311L96.9694 372.436L96.8483 372.557L96.7309 372.674L96.7309 372.674L96.6153 372.79L96.4997 372.906L96.3841 373.021L96.2685 373.137L96.1529 373.252L96.0373 373.368L95.9217 373.484L95.8061 373.599L95.6905 373.715L95.5749 373.83L95.4593 373.946L95.3438 374.061L95.2282 374.177L95.1126 374.293L94.997 374.408L94.8814 374.524L94.7658 374.639L94.6502 374.755L94.5346 374.871L94.419 374.986L94.3034 375.102L94.1878 375.217L94.0722 375.333L93.9566 375.449L93.841 375.564L93.7254 375.68L93.6098 375.795L93.4942 375.911L93.3786 376.027L93.263 376.142L93.1474 376.258L93.0318 376.373L93.0318 376.373L92.9162 376.487L92.8006 376.597L92.685 376.704L92.5694 376.807L92.4538 376.906L92.3382 377.002L92.2226 377.094L92.107 377.183L91.9914 377.268L91.8758 377.349L91.7602 377.426L91.6446 377.501L91.529 377.571L91.4134 377.638L91.2978 377.701L91.1822 377.761L91.0666 377.817L90.951 377.869L90.8354 377.918L90.7198 377.963L90.6042 378.004L90.4886 378.042L90.373 378.077L90.2574 378.107L90.1418 378.135L90.0262 378.158L89.9106 378.178L89.795 378.194L89.6794 378.207L89.5638 378.216L89.4482 378.221L89.3326 378.223L89.3326 378.223L89.2161 378.223L89.0978 378.223L88.9777 378.223L88.8558 378.223L88.7321 378.223L88.6065 378.223L88.4792 378.223L88.35 378.223L88.2191 378.223L88.0863 378.223L87.9518 378.223L87.8154 378.223L87.6772 378.223L87.5372 378.223L87.3954 378.223L87.2519 378.223L87.1065 378.223L86.9592 378.223L86.8102 378.223L86.6594 378.223L86.5068 378.223L86.3524 378.223L86.1961 378.223L86.0381 378.223L85.8782 378.223L85.7166 378.223L85.5531 378.223L85.3878 378.223L85.2208 378.223L85.0519 378.223L84.8812 378.223L84.7087 378.223L84.7087 378.223L84.5353 378.223L84.3619 378.223L84.1885 378.223L84.0151 378.223L83.8417 378.223L83.6683 378.223L83.4949 378.223L83.3215 378.223L83.1481 378.223L82.9747 378.223L82.8013 378.223L82.6279 378.223L82.4545 378.223L82.2811 378.223L82.1077 378.223L81.9343 378.223L81.7609 378.223L81.5875 378.223L81.4141 378.223L81.2407 378.223L81.0673 378.223L80.8939 378.223L80.7205 378.223L80.5471 378.223L80.3737 378.223L80.2003 378.223L80.0269 378.223L79.8535 378.223L79.6802 378.223L79.5068 378.223L79.3334 378.223L79.16 378.223L79.16 378.223L78.992 378.22L78.8348 378.212L78.6885 378.199L78.5531 378.18L78.4284 378.155L78.3146 378.126L78.2117 378.09L78.1196 378.05L78.0383 378.004L77.9678 377.952L77.9082 377.895L77.8595 377.833L77.8215 377.765L77.7945 377.692L77.7782 377.613L77.7728 377.529L77.7782 377.44L77.7945 377.345L77.8215 377.245L77.8595 377.139L77.9082 377.028L77.9678 376.912L78.0383 376.79L78.1196 376.662L78.2117 376.53L78.3146 376.392L78.4284 376.248L78.5531 376.099L78.6885 375.944L78.8348 375.785L78.992 375.619L79.16 375.449L79.16 375.449L79.3352 375.273L79.514 375.095L79.6964 374.912L79.8824 374.726L80.0721 374.537L80.2654 374.343L80.4622 374.146L80.6627 373.946L80.8668 373.742L81.0746 373.534L81.2859 373.323L81.5008 373.108L81.7194 372.889L81.9415 372.667L82.1673 372.441L82.3967 372.212L82.6297 371.979L82.8663 371.742L83.1066 371.502L83.3504 371.258L83.5979 371.011L83.8489 370.76L84.1036 370.505L84.3619 370.247L84.6238 369.985L84.8893 369.719L85.1584 369.45L85.4312 369.177L85.7075 368.901L85.9875 368.621L86.2711 368.338L86.5583 368.05L86.5583 368.05L86.8464 367.762L87.1326 367.476L87.4171 367.192L87.6998 366.909L87.9807 366.628L88.2597 366.349L88.537 366.072L88.8124 365.796L89.0861 365.523L89.3579 365.251L89.6279 364.981L89.8962 364.712L90.1626 364.446L90.4272 364.181L90.69 363.919L90.951 363.658L91.2102 363.398L91.4676 363.141L91.7232 362.885L91.9769 362.632L92.2289 362.38L92.4791 362.13L92.7274 361.881L92.974 361.635L93.2187 361.39L93.4617 361.147L93.7028 360.906L93.9421 360.667L94.1796 360.429L94.4153 360.193L94.6493 359.959L94.8814 359.727L94.8814 359.727L95.1053 359.496L95.3149 359.265L95.5099 359.034L95.6905 358.802L95.8567 358.571L96.0084 358.34L96.1457 358.109L96.2685 357.878L96.3769 357.647L96.4708 357.415L96.5503 357.184L96.6153 356.953L96.6659 356.722L96.702 356.491L96.7237 356.259L96.7309 356.028L96.7237 355.797L96.702 355.566L96.6659 355.335L96.6153 355.103L96.5503 354.872L96.4708 354.641L96.3769 354.41L96.2685 354.179L96.1457 353.947L96.0084 353.716L95.8567 353.485L95.6905 353.254L95.5099 353.023L95.3149 352.791L95.1053 352.56L94.8814 352.329L94.8814 352.329L94.6493 352.097L94.4153 351.863L94.1796 351.627L93.9421 351.39L93.7028 351.15L93.4617 350.909L93.2187 350.666L92.974 350.422L92.7274 350.175L92.4791 349.927L92.2289 349.677L91.9769 349.425L91.7232 349.171L91.4676 348.915L91.2102 348.658L90.951 348.399L90.69 348.138L90.4272 347.875L90.1626 347.61L89.8962 347.344L89.6279 347.076L89.3579 346.806L89.0861 346.534L88.8124 346.26L88.537 345.985L88.2597 345.707L87.9807 345.428L87.6998 345.147L87.4171 344.865L87.1326 344.58L86.8464 344.294L86.5583 344.006L86.5583 344.006L86.2711 343.719L85.9875 343.435L85.7075 343.155L85.4312 342.879L85.1584 342.606L84.8893 342.337L84.6238 342.071L84.3619 341.81L84.1036 341.551L83.8489 341.297L83.5979 341.045L83.3504 340.798L83.1066 340.554L82.8663 340.314L82.6297 340.077L82.3967 339.844L82.1673 339.615L81.9415 339.389L81.7194 339.167L81.5008 338.948L81.2859 338.734L81.0746 338.522L80.8668 338.314L80.6627 338.11L80.4622 337.91L80.2654 337.713L80.0721 337.52L79.8824 337.33L79.6964 337.144L79.514 336.962L79.3352 336.783L79.16 336.608L79.16 336.608L78.992 336.437L78.8348 336.272L78.6885 336.112L78.5531 335.957L78.4284 335.808L78.3146 335.665L78.2117 335.527L78.1196 335.394L78.0383 335.266L77.9678 335.145L77.9082 335.028L77.8595 334.917L77.8215 334.811L77.7945 334.711L77.7782 334.616L77.7728 334.527L77.7782 334.443L77.7945 334.364L77.8215 334.291L77.8595 334.223L77.9082 334.161L77.9678 334.104L78.0383 334.053L78.1196 334.007L78.2117 333.966L78.3146 333.931L78.4284 333.901L78.5531 333.877L78.6885 333.858L78.8348 333.844L78.992 333.836L79.16 333.833L79.16 333.833L79.3334 333.833L79.5068 333.833L79.6802 333.833L79.8535 333.833L80.0269 333.833L80.2003 333.833L80.3737 333.833L80.5471 333.833L80.7205 333.833L80.8939 333.833L81.0673 333.833L81.2407 333.833L81.4141 333.833L81.5875 333.833L81.7609 333.833L81.9343 333.833L82.1077 333.833L82.2811 333.833L82.4545 333.833L82.6279 333.833L82.8013 333.833L82.9747 333.833L83.1481 333.833L83.3215 333.833L83.4949 333.833L83.6683 333.833L83.8417 333.833L84.0151 333.833L84.1885 333.833L84.3619 333.833L84.5353 333.833L84.7087 333.833L84.7087 333.833L84.8812 333.833L85.0519 333.833L85.2208 333.833L85.3878 333.833L85.5531 333.833L85.7166 333.833L85.8782 333.833L86.0381 333.833L86.1961 333.833L86.3524 333.833L86.5068 333.833L86.6594 333.833L86.8102 333.833L86.9592 333.833L87.1065 333.833L87.2519 333.833L87.3954 333.833L87.5372 333.833L87.6772 333.833L87.8154 333.833L87.9518 333.833L88.0863 333.833L88.2191 333.833L88.35 333.833L88.4792 333.833L88.6065 333.833L88.7321 333.833L88.8558 333.833L88.9777 333.833L89.0978 333.833L89.2161 333.833L89.3326 333.833L89.3326 333.833L89.4482 333.835L89.5638 333.84L89.6794 333.849L89.795 333.862L89.9106 333.878L90.0262 333.898L90.1418 333.922L90.2574 333.949L90.373 333.98L90.4886 334.014L90.6042 334.052L90.7198 334.093L90.8354 334.138L90.951 334.187L91.0666 334.24L91.1822 334.296L91.2978 334.355L91.4134 334.418L91.529 334.485L91.6446 334.556L91.7602 334.63L91.8758 334.707L91.9914 334.789L92.107 334.874L92.2226 334.962L92.3382 335.054L92.4538 335.15L92.5694 335.249L92.685 335.352L92.8006 335.459L92.9162 335.569L93.0318 335.683L93.0318 335.683L93.1474 335.798L93.263 335.914L93.3786 336.03L93.4942 336.145L93.6098 336.261L93.7254 336.376L93.841 336.492L93.9566 336.608L94.0722 336.723L94.1878 336.839L94.3034 336.954L94.419 337.07L94.5346 337.186L94.6502 337.301L94.7658 337.417L94.8814 337.532L94.997 337.648L95.1126 337.764L95.2282 337.879L95.3438 337.995L95.4593 338.11L95.5749 338.226L95.6905 338.342L95.8061 338.457L95.9217 338.573L96.0373 338.688L96.1529 338.804L96.2685 338.92L96.3841 339.035L96.4997 339.151L96.6153 339.266L96.7309 339.382L96.7309 339.382L96.8483 339.499L96.9694 339.62L97.094 339.745L97.2222 339.873L97.3541 340.005L97.4895 340.141L97.6286 340.28L97.7713 340.422L97.9176 340.569L98.0675 340.719L98.2211 340.872L98.3782 341.029L98.539 341.19L98.7033 341.354L98.8713 341.522L99.0429 341.694L99.2181 341.869L99.3969 342.048L99.5794 342.23L99.7654 342.416L99.955 342.606L100.148 342.799L100.345 342.996L100.546 343.197L100.75 343.401L100.958 343.609L101.169 343.82L101.384 344.035L101.602 344.253L101.824 344.475L102.05 344.701L102.28 344.931L102.28 344.931L102.511 345.155L102.742 345.364L102.973 345.559L103.204 345.74L103.436 345.906L103.667 346.058L103.898 346.195L104.129 346.318L104.36 346.426L104.592 346.52L104.823 346.6L105.054 346.665L105.285 346.715L105.516 346.751L105.748 346.773L105.979 346.78L106.21 346.773L106.441 346.751L106.672 346.715L106.904 346.665L107.135 346.6L107.366 346.52L107.597 346.426L107.828 346.318L108.06 346.195L108.291 346.058L108.522 345.906L108.753 345.74L108.984 345.559L109.216 345.364L109.447 345.155L109.678 344.931L109.678 344.931L109.907 344.701L110.133 344.475L110.355 344.253L110.574 344.035L110.789 343.82L111 343.609L111.208 343.401L111.412 343.197L111.612 342.996L111.809 342.799L112.003 342.606L112.192 342.416L112.378 342.23L112.561 342.048L112.74 341.869L112.915 341.694L113.086 341.522L113.254 341.354L113.419 341.19L113.579 341.029L113.737 340.872L113.89 340.719L114.04 340.569L114.186 340.422L114.329 340.28L114.468 340.141L114.604 340.005L114.735 339.873L114.864 339.745L114.988 339.62L115.109 339.499L115.227 339.382L115.227 339.382L115.342 339.266L115.458 339.151L115.573 339.035L115.689 338.92L115.805 338.804L115.92 338.688L116.036 338.573L116.151 338.457L116.267 338.342L116.383 338.226L116.498 338.11L116.614 337.995L116.729 337.879L116.845 337.764L116.961 337.648L117.076 337.532L117.192 337.417L117.307 337.301L117.423 337.186L117.539 337.07L117.654 336.954L117.77 336.839L117.885 336.723L118.001 336.608L118.117 336.492L118.232 336.376L118.348 336.261L118.463 336.145L118.579 336.03L118.695 335.914L118.81 335.798L118.926 335.683L118.926 335.683L119.041 335.569L119.157 335.459L119.273 335.352L119.388 335.249L119.504 335.15L119.619 335.054L119.735 334.962L119.851 334.874L119.966 334.789L120.082 334.707L120.197 334.63L120.313 334.556L120.429 334.485L120.544 334.418L120.66 334.355L120.775 334.296L120.891 334.24L121.007 334.187L121.122 334.138L121.238 334.093L121.353 334.052L121.469 334.014L121.585 333.98L121.7 333.949L121.816 333.922L121.931 333.898L122.047 333.878L122.163 333.862L122.278 333.849L122.394 333.84L122.509 333.835L122.625 333.833L122.625 333.833L122.742 333.833L122.86 333.833L122.98 333.833L123.102 333.833L123.226 333.833L123.351 333.833L123.478 333.833L123.608 333.833L123.739 333.833L123.871 333.833L124.006 333.833L124.142 333.833L124.28 333.833L124.42 333.833L124.562 333.833L124.706 333.833L124.851 333.833L124.998 333.833L125.147 333.833L125.298 333.833L125.451 333.833L125.605 333.833L125.762 333.833L125.92 333.833L126.079 333.833L126.241 333.833L126.405 333.833L126.57 333.833L126.737 333.833L126.906 333.833L127.076 333.833L127.249 333.833L127.249 333.833L127.422 333.833L127.596 333.833L127.769 333.833L127.943 333.833L128.116 333.833L128.289 333.833L128.463 333.833L128.636 333.833L128.81 333.833L128.983 333.833L129.156 333.833L129.33 333.833L129.503 333.833L129.677 333.833L129.85 333.833L130.023 333.833L130.197 333.833L130.37 333.833L130.543 333.833L130.717 333.833L130.89 333.833L131.064 333.833L131.237 333.833L131.41 333.833L131.584 333.833L131.757 333.833L131.931 333.833L132.104 333.833L132.277 333.833L132.451 333.833L132.624 333.833L132.798 333.833L132.798 333.833L132.966 333.836L133.123 333.844L133.269 333.858L133.405 333.877L133.529 333.901L133.643 333.931L133.746 333.966L133.838 334.007L133.919 334.053L133.99 334.104L134.049 334.161L134.098 334.223L134.136 334.291L134.163 334.364L134.179 334.443L134.185 334.527L134.179 334.616L134.163 334.711L134.136 334.811L134.098 334.917L134.049 335.028L133.99 335.145L133.919 335.266L133.838 335.394L133.746 335.527L133.643 335.665L133.529 335.808L133.405 335.957L133.269 336.112L133.123 336.272L132.966 336.437L132.798 336.608L132.798 336.608L132.622 336.784L132.44 336.965L132.253 337.152L132.061 337.345L131.863 337.542L131.66 337.745L131.451 337.954L131.237 338.168L131.018 338.388L130.793 338.612L130.562 338.843L130.327 339.078L130.086 339.32L129.839 339.566L129.587 339.818L129.33 340.076L129.067 340.338L128.799 340.607L128.525 340.88L128.246 341.159L127.961 341.444L127.672 341.734L127.376 342.029L127.076 342.33L126.769 342.636L126.458 342.947L126.141 343.264L125.818 343.587L125.491 343.915L125.157 344.248L124.819 344.587L124.475 344.931"/>
<path class="l5" d="M144.358 156.274L146.669 156.274"/>
<path class="l5" d="M136.497 159.973L133.722 156.274L136.497 152.575L141.583 152.575L144.358 156.274L141.583 159.973L136.497 159.973"/>
<path class="l5" d="M145.745 155.349L147.594 155.349L147.594 157.199L145.745 157.199L145.745 155.349z"/>
<path class="l5" d="M144.358 259.85L146.669 259.85"/>
<path class="l5" d="M136.497 263.549L133.722 259.85L136.497 256.151L141.583 256.151L144.358 259.85L141.583 263.549L136.497 263.549"/>
<path class="l5" d="M145.745 258.925L147.594 258.925L147.594 260.775L145.745 260.775L145.745 258.925z"/>
<path class="l5" d="M189.21 228.407L192.909 228.407L192.909 232.107L189.21 232.107L189.21 228.407z"/>
<path class="l5" d="M189.21 184.018L192.909 184.018L192.909 187.717L189.21 187.717L189.21 184.018z"/>
<path class="l5" d="M307.583 228.407L311.282 228.407L311.282 232.107L307.583 232.107L307.583 228.407z"/>
<path class="l5" d="M307.583 184.018L311.282 184.018L311.282 187.717L307.583 187.717L307.583 184.018z"/>
<path class="l6" d="M298.335 356.028L886.5 356.028"/>
<path class="l6" d="M13.5 356.028L61.589 356.028"/>
<path class="l1" d="M146.669 259.85L191.059 259.85"/>
<path class="l1" d="M191.059 230.257L191.059 259.85"/>
<path class="l1" d="M146.669 156.274L309.432 156.274"/>
<path class="l1" d="M309.432 156.274L309.432 185.867"/>
<path class="l1" d="M191.059 171.07L191.059 185.867"/>
<path class="l1" d="M191.059 171.07L279.839 171.07"/>
<path class="l1" d="M279.839 171.07L279.839 259.85"/>
<path class="l1" d="M279.839 259.85L309.432 259.85"/>
<path class="l1" d="M309.432 230.257L309.432 259.85"/>
</svg>
