<svg xmlns="http://www.w3.org/2000/svg" xmlns:xlink="http://www.w3.org/1999/xlink" width="1066" height="666" version="1.1">
<style type="text/css">
.l0{
  fill: #ffffff;
  stroke: #ffffff;
  stroke-linecap:round;
  stroke-linejoin:round;
  stroke-width: 0.936235;
}
.l1{
  fill: #0099cc;
  stroke: #0099cc;
  stroke-linecap:round;
  stroke-linejoin:round;
  stroke-width: 0.936235;
}
.l2{
  fill: #aaaaaa; fill-opacity: 0.2;
  stroke: #aaaaaa;
  stroke-linecap:round;
  stroke-linejoin:round;
  stroke-width: 0.936235;
}
.l3{
  fill: #222222; fill-opacity: 0.5;
  stroke: #222222;
  stroke-linecap:round;
  stroke-linejoin:round;
  stroke-width: 0.936235;
}
.l4{
  fill: #229900;
  stroke: #229900;
  stroke-linecap:round;
  stroke-linejoin:round;
  stroke-width: 0.936235;
}
.l5{
  fill: #bb2200;
  stroke: #bb2200;
  stroke-linecap:round;
  stroke-linejoin:round;
  stroke-width: 0.936235;
}
.l6{
  fill: #0066cc; fill-opacity: 0.5;
  stroke: #0066cc;
  stroke-linecap:round;
  stroke-linejoin:round;
  stroke-width: 0.936235;
}
.l7{
  fill: #ff0000; fill-opacity: 0.5;
  stroke: #ff0000;
  stroke-linecap:round;
  stroke-linejoin:round;
  stroke-width: 0.936235;
}
.l8{
  fill: #888800; fill-opacity: 0.5;
  stroke: #888800;
  stroke-linecap:round;
  stroke-linejoin:round;
  stroke-width: 0.936235;
}
.l9{
  fill: #00aaaa; fill-opacity: 0.5;
  stroke: #00aaaa;
  stroke-linecap:round;
  stroke-linejoin:round;
  stroke-width: 0.936235;
}
.l10{
  fill: #880088;
  stroke: #880088;
  stroke-linecap:round;
  stroke-linejoin:round;
  stroke-width: 0.936235;
}
.l11{
  fill: #00ff00; fill-opacity: 0.5;
  stroke: #00ff00;
  stroke-linecap:round;
  stroke-linejoin:round;
  stroke-width: 0.936235;
}
.l12{
  fill: #0000cc; fill-opacity: 0.5;
  stroke: #0000cc;
  stroke-linecap:round;
  stroke-linejoin:round;
  stroke-width: 0.936235;
}
.l13{
  fill: #666600; fill-opacity: 0.5;
  stroke: #666600;
  stroke-linecap:round;
  stroke-linejoin:round;
  stroke-width: 0.936235;
}
.l14{
  fill: #557755; fill-opacity: 0.2;
  stroke: #557755;
  stroke-linecap:round;
  stroke-linejoin:round;
  stroke-width: 0.936235;
}
.l15{
  fill: #aa2222; fill-opacity: 0.5;
  stroke: #aa2222;
  stroke-linecap:round;
  stroke-linejoin:round;
  stroke-width: 0.936235;
}
.l16{
  fill: #7ccc40; fill-opacity: 0.5;
  stroke: #7ccc40;
  stroke-linecap:round;
  stroke-linejoin:round;
  stroke-width: 0.936235;
}
.l17{
  fill: #00ffcc; fill-opacity: 0.2;
  stroke: #00ffcc;
  stroke-linecap:round;
  stroke-linejoin:round;
  stroke-width: 0.936235;
}
.l18{
  fill: #ce0097; fill-opacity: 0.5;
  stroke: #ce0097;
  stroke-linecap:round;
  stroke-linejoin:round;
  stroke-width: 0.936235;
}
.l19{
  fill: #d2d46b; fill-opacity: 0.2;
  stroke: #d2d46b;
  stroke-linecap:round;
  stroke-linejoin:round;
  stroke-width: 0.936235;
}
.l20{
  fill: #ef6158; fill-opacity: 0.2;
  stroke: #ef6158;
  stroke-linecap:round;
  stroke-linejoin:round;
  stroke-width: 0.936235;
}
.l21{
  fill: #fdb200; fill-opacity: 0.2;
  stroke: #fdb200;
  stroke-linecap:round;
  stroke-linejoin:round;
  stroke-width: 0.936235;
}
text {font-family: Sans-Serif;}
</style>
<rect class="l0" x="0" y="0" width="1066" height="666"/>
<path class="l4" d="M15.99 455.751L64.5355 455.751"/>
<path class="l4" d="M15.99 455.751L15.99 469.621"/>
<path class="l4" d="M15.99 143.672L64.5355 143.672"/>
<path class="l4" d="M15.99 143.672L15.99 157.543"/>
<path class="l4" d="M281.257 259.835L284.724 259.835"/>
<path class="l4" d="M282.99 258.101L282.99 261.569"/>
<path class="l4" d="M279.523 254.634L279.523 296.244"/>
<circle class="l4" cx="279.523" cy="275.439" r="10.4026" style="fill:none;" />
<path class="l4" d="M279.523 337.855L279.523 346.523"/>
<path class="l4" d="M276.055 346.523L282.99 346.523"/>
<path class="l4" d="M279.523 349.991L282.99 346.523"/>
<path class="l4" d="M276.055 346.523L279.523 349.991"/>
<path class="l4" d="M447.699 259.835L447.699 291.043"/>
<path class="l4" d="M439.03 254.634L439.03 263.302"/>
<path class="l4" d="M439.03 287.575L439.03 296.244"/>
<path class="l4" d="M451.166 265.036L451.166 285.841"/>
<path class="l4" d="M439.03 287.575L447.699 287.575"/>
<path class="l4" d="M439.03 263.302L447.699 263.302"/>
<path class="l4" d="M451.513 275.439L466.77 275.439"/>
<path class="l4" d="M442.497 289.309L439.03 287.575L442.497 285.841L442.497 289.309"/>
<path class="l4" d="M362.744 462.686L341.939 454.017L341.939 459.218L321.133 459.218L328.068 462.686L321.133 466.153L341.939 466.153L341.939 471.355L362.744 462.686"/>
<path class="l4" d="M529.186 462.686L508.38 454.017L508.38 459.218L487.575 459.218L494.51 462.686L487.575 466.153L508.38 466.153L508.38 471.355L529.186 462.686"/>
<path class="l4" d="M439.03 171.413L439.03 181.815"/>
<path class="l4" d="M439.03 202.621L439.03 213.023"/>
<path class="l4" d="M440.763 176.614L444.231 176.614"/>
<path class="l4" d="M442.497 174.88L442.497 178.348"/>
<path class="l4" d="M439.03 187.017L439.03 193.952L440.763 193.952L439.03 199.153L437.296 193.952L439.03 193.952L439.03 187.017"/>
<circle class="l4" cx="439.03" cy="192.218" r="10.4026" style="fill:none;" />
<path class="l4" d="M575.997 259.835L575.997 291.043"/>
<path class="l4" d="M584.666 254.634L584.666 263.302"/>
<path class="l4" d="M584.666 287.575L584.666 296.244"/>
<path class="l4" d="M572.53 265.036L572.53 285.841"/>
<path class="l4" d="M575.997 287.575L584.666 287.575"/>
<path class="l4" d="M575.997 263.302L584.666 263.302"/>
<path class="l4" d="M556.926 275.439L572.183 275.439"/>
<path class="l4" d="M581.199 289.309L584.666 287.575L581.199 285.841L581.199 289.309"/>
<path class="l4" d="M742.439 259.835L742.439 291.043"/>
<path class="l4" d="M751.108 254.634L751.108 263.302"/>
<path class="l4" d="M751.108 287.575L751.108 296.244"/>
<path class="l4" d="M738.972 265.036L738.972 285.841"/>
<path class="l4" d="M742.439 287.575L751.108 287.575"/>
<path class="l4" d="M742.439 263.302L751.108 263.302"/>
<path class="l4" d="M723.368 275.439L738.625 275.439"/>
<path class="l4" d="M747.641 289.309L751.108 287.575L747.641 285.841L747.641 289.309"/>
<path class="l4" d="M922.751 259.835L922.751 291.043"/>
<path class="l4" d="M931.42 254.634L931.42 263.302"/>
<path class="l4" d="M931.42 287.575L931.42 296.244"/>
<path class="l4" d="M919.284 265.036L919.284 285.841"/>
<path class="l4" d="M922.751 287.575L931.42 287.575"/>
<path class="l4" d="M922.751 263.302L931.42 263.302"/>
<path class="l4" d="M903.68 275.439L918.937 275.439"/>
<path class="l4" d="M927.953 289.309L931.42 287.575L927.953 285.841L927.953 289.309"/>
<path class="l4" d="M669.621 273.705L673.089 273.705"/>
<path class="l4" d="M671.355 271.971L671.355 275.439"/>
<path class="l4" d="M667.887 268.504L667.887 310.114"/>
<circle class="l4" cx="667.887" cy="289.309" r="10.4026" style="fill:none;" />
<path class="l4" d="M836.063 273.705L839.53 273.705"/>
<path class="l4" d="M837.797 271.971L837.797 275.439"/>
<path class="l4" d="M834.329 268.504L834.329 310.114"/>
<circle class="l4" cx="834.329" cy="289.309" r="10.4026" style="fill:none;" />
<path class="l4" d="M1016.37 273.705L1019.84 273.705"/>
<path class="l4" d="M1018.11 271.971L1018.11 275.439"/>
<path class="l4" d="M1014.64 268.504L1014.64 310.114"/>
<circle class="l4" cx="1014.64" cy="289.309" r="10.4026" style="fill:none;" />
<path class="l4" d="M584.666 185.283L584.666 226.893"/>
<path class="l4" d="M579.465 206.088L584.666 213.023"/>
<path class="l4" d="M584.666 213.023L589.868 206.088"/>
<path class="l4" d="M751.108 185.283L751.108 226.893"/>
<path class="l4" d="M745.907 206.088L751.108 213.023"/>
<path class="l4" d="M751.108 213.023L756.309 206.088"/>
<path class="l4" d="M931.42 185.283L931.42 226.893"/>
<path class="l4" d="M926.219 206.088L931.42 213.023"/>
<path class="l4" d="M931.42 213.023L936.621 206.088"/>
<path class="l4" d="M432.095 344.79L432.095 351.725"/>
<path class="l4" d="M432.095 344.79L439.03 344.79"/>
<path class="l4" d="M577.731 344.79L577.731 351.725"/>
<path class="l4" d="M577.731 344.79L584.666 344.79"/>
<path class="l4" d="M744.173 344.79L744.173 351.725"/>
<path class="l4" d="M744.173 344.79L751.108 344.79"/>
<path class="l4" d="M924.485 344.79L924.485 351.725"/>
<path class="l4" d="M924.485 344.79L931.42 344.79"/>
<path class="l5" d="M277.789 252.9L281.257 252.9L281.257 256.367L277.789 256.367L277.789 252.9z"/>
<path class="l5" d="M277.789 294.51L281.257 294.51L281.257 297.978L277.789 297.978L277.789 294.51z"/>
<path class="l5" d="M277.789 336.121L281.257 336.121L281.257 339.588L277.789 339.588L277.789 336.121z"/>
<path class="l5" d="M120.016 500.829L119.799 501.046L119.583 501.262L119.366 501.479L119.149 501.696L118.933 501.912L118.716 502.129L118.499 502.346L118.282 502.563L118.066 502.779L117.849 502.996L117.632 503.213L117.416 503.43L117.199 503.646L116.982 503.863L116.765 504.08L116.549 504.296L116.332 504.513L116.115 504.73L115.898 504.947L115.682 505.163L115.465 505.38L115.248 505.597L115.032 505.813L114.815 506.03L114.598 506.247L114.381 506.464L114.165 506.68L113.948 506.897L113.731 507.114L113.515 507.331L113.298 507.547L113.081 507.764L113.081 507.764L112.871 507.981L112.675 508.197L112.492 508.414L112.323 508.631L112.167 508.848L112.025 509.064L111.896 509.281L111.781 509.498L111.679 509.714L111.591 509.931L111.517 510.148L111.456 510.365L111.408 510.581L111.374 510.798L111.354 511.015L111.347 511.231L111.354 511.448L111.374 511.665L111.408 511.882L111.456 512.098L111.517 512.315L111.591 512.532L111.679 512.749L111.781 512.965L111.896 513.182L112.025 513.399L112.167 513.615L112.323 513.832L112.492 514.049L112.675 514.266L112.871 514.482L113.081 514.699L113.081 514.699L113.299 514.917L113.518 515.136L113.739 515.357L113.962 515.579L114.186 515.804L114.412 516.03L114.64 516.258L114.869 516.487L115.1 516.718L115.333 516.951L115.567 517.185L115.804 517.422L116.042 517.659L116.281 517.899L116.522 518.14L116.765 518.383L117.01 518.628L117.256 518.874L117.504 519.122L117.754 519.372L118.006 519.624L118.259 519.877L118.514 520.131L118.77 520.388L119.028 520.646L119.288 520.906L119.55 521.168L119.813 521.431L120.078 521.696L120.345 521.963L120.613 522.231L120.883 522.501L120.883 522.501L121.152 522.77L121.418 523.036L121.681 523.298L121.94 523.557L122.195 523.813L122.447 524.065L122.696 524.314L122.942 524.56L123.184 524.802L123.423 525.041L123.658 525.276L123.89 525.508L124.119 525.737L124.344 525.962L124.566 526.184L124.784 526.402L124.999 526.617L125.211 526.829L125.419 527.037L125.624 527.242L125.825 527.443L126.023 527.641L126.218 527.836L126.409 528.027L126.597 528.215L126.782 528.4L126.963 528.581L127.141 528.759L127.315 528.933L127.486 529.104L127.654 529.272L127.818 529.436L127.818 529.436L127.976 529.596L128.123 529.751L128.26 529.901L128.387 530.046L128.504 530.185L128.611 530.32L128.707 530.449L128.793 530.574L128.87 530.693L128.936 530.807L128.991 530.917L129.037 531.021L129.073 531.12L129.098 531.214L129.113 531.303L129.118 531.387L129.113 531.465L129.098 531.539L129.073 531.608L129.037 531.671L128.991 531.729L128.936 531.783L128.87 531.831L128.793 531.874L128.707 531.912L128.611 531.945L128.504 531.973L128.387 531.996L128.26 532.014L128.123 532.027L127.976 532.034L127.818 532.037L127.818 532.037L127.656 532.037L127.493 532.037L127.33 532.037L127.168 532.037L127.005 532.037L126.843 532.037L126.68 532.037L126.518 532.037L126.355 532.037L126.193 532.037L126.03 532.037L125.868 532.037L125.705 532.037L125.543 532.037L125.38 532.037L125.217 532.037L125.055 532.037L124.892 532.037L124.73 532.037L124.567 532.037L124.405 532.037L124.242 532.037L124.08 532.037L123.917 532.037L123.755 532.037L123.592 532.037L123.43 532.037L123.267 532.037L123.104 532.037L122.942 532.037L122.779 532.037L122.617 532.037L122.617 532.037L122.455 532.037L122.295 532.037L122.137 532.037L121.98 532.037L121.825 532.037L121.672 532.037L121.521 532.037L121.371 532.037L121.223 532.037L121.076 532.037L120.931 532.037L120.788 532.037L120.647 532.037L120.507 532.037L120.369 532.037L120.233 532.037L120.098 532.037L119.965 532.037L119.834 532.037L119.705 532.037L119.577 532.037L119.451 532.037L119.326 532.037L119.203 532.037L119.082 532.037L118.963 532.037L118.845 532.037L118.729 532.037L118.615 532.037L118.502 532.037L118.392 532.037L118.282 532.037L118.282 532.037L118.174 532.035L118.066 532.03L117.957 532.021L117.849 532.01L117.741 531.994L117.632 531.976L117.524 531.954L117.416 531.928L117.307 531.9L117.199 531.867L117.09 531.832L116.982 531.793L116.874 531.751L116.765 531.705L116.657 531.656L116.549 531.603L116.44 531.547L116.332 531.488L116.224 531.425L116.115 531.359L116.007 531.29L115.898 531.217L115.79 531.141L115.682 531.061L115.573 530.979L115.465 530.892L115.357 530.802L115.248 530.709L115.14 530.613L115.032 530.513L114.923 530.41L114.815 530.303L114.815 530.303L114.706 530.195L114.598 530.086L114.49 529.978L114.381 529.87L114.273 529.761L114.165 529.653L114.056 529.544L113.948 529.436L113.84 529.328L113.731 529.219L113.623 529.111L113.515 529.003L113.406 528.894L113.298 528.786L113.189 528.678L113.081 528.569L112.973 528.461L112.864 528.352L112.756 528.244L112.648 528.136L112.539 528.027L112.431 527.919L112.323 527.811L112.214 527.702L112.106 527.594L111.997 527.486L111.889 527.377L111.781 527.269L111.672 527.16L111.564 527.052L111.456 526.944L111.347 526.835L111.347 526.835L111.237 526.725L111.124 526.612L111.007 526.495L110.887 526.375L110.763 526.251L110.636 526.124L110.506 525.994L110.372 525.86L110.235 525.723L110.094 525.582L109.95 525.439L109.803 525.291L109.652 525.141L109.498 524.987L109.341 524.829L109.18 524.668L109.016 524.504L108.848 524.336L108.677 524.165L108.503 523.991L108.325 523.813L108.144 523.632L107.959 523.447L107.771 523.26L107.58 523.068L107.385 522.873L107.187 522.675L106.986 522.474L106.781 522.269L106.573 522.061L106.361 521.849L106.146 521.634L106.146 521.634L105.929 521.424L105.713 521.228L105.496 521.045L105.279 520.876L105.062 520.72L104.846 520.578L104.629 520.449L104.412 520.334L104.196 520.232L103.979 520.144L103.762 520.07L103.545 520.009L103.329 519.961L103.112 519.927L102.895 519.907L102.678 519.9L102.462 519.907L102.245 519.927L102.028 519.961L101.812 520.009L101.595 520.07L101.378 520.144L101.161 520.232L100.945 520.334L100.728 520.449L100.511 520.578L100.295 520.72L100.078 520.876L99.8611 521.045L99.6444 521.228L99.4276 521.424L99.2109 521.634L99.2109 521.634L98.9959 521.849L98.7843 522.061L98.576 522.269L98.3711 522.474L98.1696 522.675L97.9716 522.873L97.7768 523.068L97.5855 523.26L97.3976 523.447L97.213 523.632L97.0319 523.813L96.8541 523.991L96.6797 524.165L96.5087 524.336L96.3411 524.504L96.1768 524.668L96.016 524.829L95.8585 524.987L95.7044 525.141L95.5538 525.291L95.4065 525.439L95.2625 525.582L95.122 525.723L94.9849 525.86L94.8511 525.994L94.7207 526.124L94.5937 526.251L94.4702 526.375L94.3499 526.495L94.2331 526.612L94.1197 526.725L94.0096 526.835L94.0096 526.835L93.9013 526.944L93.7929 527.052L93.6845 527.16L93.5762 527.269L93.4678 527.377L93.3595 527.486L93.2511 527.594L93.1427 527.702L93.0344 527.811L92.926 527.919L92.8177 528.027L92.7093 528.136L92.6009 528.244L92.4926 528.352L92.3842 528.461L92.2758 528.569L92.1675 528.678L92.0591 528.786L91.9508 528.894L91.8424 529.003L91.734 529.111L91.6257 529.219L91.5173 529.328L91.409 529.436L91.3006 529.544L91.1922 529.653L91.0839 529.761L90.9755 529.87L90.8672 529.978L90.7588 530.086L90.6504 530.195L90.5421 530.303L90.5421 530.303L90.4337 530.41L90.3254 530.513L90.217 530.613L90.1086 530.709L90.0003 530.802L89.8919 530.892L89.7836 530.979L89.6752 531.061L89.5668 531.141L89.4585 531.217L89.3501 531.29L89.2418 531.359L89.1334 531.425L89.025 531.488L88.9167 531.547L88.8083 531.603L88.6999 531.656L88.5916 531.705L88.4832 531.751L88.3749 531.793L88.2665 531.832L88.1581 531.867L88.0498 531.9L87.9414 531.928L87.8331 531.954L87.7247 531.976L87.6163 531.994L87.508 532.01L87.3996 532.021L87.2913 532.03L87.1829 532.035L87.0745 532.037L87.0745 532.037L86.9653 532.037L86.8544 532.037L86.7418 532.037L86.6276 532.037L86.5116 532.037L86.3939 532.037L86.2745 532.037L86.1535 532.037L86.0307 532.037L85.9063 532.037L85.7801 532.037L85.6523 532.037L85.5228 532.037L85.3916 532.037L85.2587 532.037L85.1241 532.037L84.9878 532.037L84.8498 532.037L84.7101 532.037L84.5687 532.037L84.4256 532.037L84.2809 532.037L84.1344 532.037L83.9863 532.037L83.8364 532.037L83.6849 532.037L83.5317 532.037L83.3767 532.037L83.2201 532.037L83.0618 532.037L82.9018 532.037L82.7401 532.037L82.7401 532.037L82.5776 532.037L82.415 532.037L82.2525 532.037L82.09 532.037L81.9274 532.037L81.7649 532.037L81.6023 532.037L81.4398 532.037L81.2772 532.037L81.1147 532.037L80.9522 532.037L80.7896 532.037L80.6271 532.037L80.4645 532.037L80.302 532.037L80.1395 532.037L79.9769 532.037L79.8144 532.037L79.6518 532.037L79.4893 532.037L79.3268 532.037L79.1642 532.037L79.0017 532.037L78.8391 532.037L78.6766 532.037L78.5141 532.037L78.3515 532.037L78.189 532.037L78.0264 532.037L77.8639 532.037L77.7014 532.037L77.5388 532.037L77.5388 532.037L77.3813 532.034L77.234 532.027L77.0969 532.014L76.9699 531.996L76.8531 531.973L76.7464 531.945L76.6499 531.912L76.5636 531.874L76.4874 531.831L76.4213 531.783L76.3655 531.729L76.3198 531.671L76.2842 531.608L76.2588 531.539L76.2436 531.465L76.2385 531.387L76.2436 531.303L76.2588 531.214L76.2842 531.12L76.3198 531.021L76.3655 530.917L76.4213 530.807L76.4874 530.693L76.5636 530.574L76.6499 530.449L76.7464 530.32L76.8531 530.185L76.9699 530.046L77.0969 529.901L77.234 529.751L77.3813 529.596L77.5388 529.436L77.5388 529.436L77.703 529.272L77.8707 529.104L78.0417 528.933L78.2161 528.759L78.3938 528.581L78.575 528.4L78.7596 528.215L78.9475 528.027L79.1388 527.836L79.3335 527.641L79.5316 527.443L79.7331 527.242L79.938 527.037L80.1462 526.829L80.3579 526.617L80.5729 526.402L80.7913 526.184L81.0131 525.962L81.2383 525.737L81.4669 525.508L81.6988 525.276L81.9342 525.041L82.1729 524.802L82.415 524.56L82.6605 524.314L82.9094 524.065L83.1617 523.813L83.4174 523.557L83.6764 523.298L83.9389 523.036L84.2047 522.77L84.4739 522.501L84.4739 522.501L84.7439 522.231L85.0123 521.963L85.279 521.696L85.5439 521.431L85.8072 521.168L86.0688 520.906L86.3287 520.646L86.5869 520.388L86.8434 520.131L87.0982 519.877L87.3514 519.624L87.6028 519.372L87.8525 519.122L88.1006 518.874L88.3469 518.628L88.5916 518.383L88.8346 518.14L89.0758 517.899L89.3154 517.659L89.5533 517.422L89.7895 517.185L90.024 516.951L90.2568 516.718L90.4879 516.487L90.7173 516.258L90.945 516.03L91.1711 515.804L91.3954 515.579L91.6181 515.357L91.839 515.136L92.0583 514.917L92.2758 514.699L92.2758 514.699L92.4858 514.482L92.6822 514.266L92.8651 514.049L93.0344 513.832L93.1901 513.615L93.3324 513.399L93.461 513.182L93.5762 512.965L93.6778 512.749L93.7658 512.532L93.8403 512.315L93.9013 512.098L93.9487 511.882L93.9825 511.665L94.0028 511.448L94.0096 511.231L94.0028 511.015L93.9825 510.798L93.9487 510.581L93.9013 510.365L93.8403 510.148L93.7658 509.931L93.6778 509.714L93.5762 509.498L93.461 509.281L93.3324 509.064L93.1901 508.848L93.0344 508.631L92.8651 508.414L92.6822 508.197L92.4858 507.981L92.2758 507.764L92.2758 507.764L92.0583 507.546L91.839 507.327L91.6181 507.106L91.3954 506.884L91.1711 506.659L90.945 506.433L90.7173 506.205L90.4879 505.976L90.2568 505.745L90.024 505.512L89.7895 505.278L89.5533 505.041L89.3154 504.803L89.0758 504.564L88.8346 504.323L88.5916 504.08L88.3469 503.835L88.1006 503.589L87.8525 503.341L87.6028 503.091L87.3514 502.839L87.0982 502.586L86.8434 502.332L86.5869 502.075L86.3287 501.817L86.0688 501.557L85.8072 501.295L85.5439 501.032L85.279 500.767L85.0123 500.5L84.7439 500.232L84.4739 499.962L84.4739 499.962L84.2047 499.693L83.9389 499.427L83.6764 499.165L83.4174 498.905L83.1617 498.65L82.9094 498.398L82.6605 498.149L82.415 497.903L82.1729 497.661L81.9342 497.422L81.6988 497.187L81.4669 496.955L81.2383 496.726L81.0131 496.501L80.7913 496.279L80.5729 496.061L80.3579 495.846L80.1462 495.634L79.938 495.426L79.7331 495.221L79.5316 495.02L79.3335 494.822L79.1388 494.627L78.9475 494.436L78.7596 494.248L78.575 494.063L78.3938 493.882L78.2161 493.704L78.0417 493.53L77.8707 493.359L77.703 493.191L77.5388 493.027L77.5388 493.027L77.3813 492.867L77.234 492.712L77.0969 492.562L76.9699 492.417L76.8531 492.278L76.7464 492.143L76.6499 492.014L76.5636 491.889L76.4874 491.77L76.4213 491.655L76.3655 491.546L76.3198 491.442L76.2842 491.343L76.2588 491.249L76.2436 491.16L76.2385 491.076L76.2436 490.998L76.2588 490.924L76.2842 490.855L76.3198 490.792L76.3655 490.734L76.4213 490.68L76.4874 490.632L76.5636 490.589L76.6499 490.551L76.7464 490.518L76.8531 490.49L76.9699 490.467L77.0969 490.449L77.234 490.436L77.3813 490.429L77.5388 490.426L77.5388 490.426L77.7014 490.426L77.8639 490.426L78.0264 490.426L78.189 490.426L78.3515 490.426L78.5141 490.426L78.6766 490.426L78.8391 490.426L79.0017 490.426L79.1642 490.426L79.3268 490.426L79.4893 490.426L79.6518 490.426L79.8144 490.426L79.9769 490.426L80.1395 490.426L80.302 490.426L80.4645 490.426L80.6271 490.426L80.7896 490.426L80.9522 490.426L81.1147 490.426L81.2772 490.426L81.4398 490.426L81.6023 490.426L81.7649 490.426L81.9274 490.426L82.09 490.426L82.2525 490.426L82.415 490.426L82.5776 490.426L82.7401 490.426L82.7401 490.426L82.9018 490.426L83.0618 490.426L83.2201 490.426L83.3767 490.426L83.5317 490.426L83.6849 490.426L83.8364 490.426L83.9863 490.426L84.1344 490.426L84.2809 490.426L84.4256 490.426L84.5687 490.426L84.7101 490.426L84.8498 490.426L84.9878 490.426L85.1241 490.426L85.2587 490.426L85.3916 490.426L85.5228 490.426L85.6523 490.426L85.7801 490.426L85.9063 490.426L86.0307 490.426L86.1535 490.426L86.2745 490.426L86.3939 490.426L86.5116 490.426L86.6276 490.426L86.7418 490.426L86.8544 490.426L86.9653 490.426L87.0745 490.426L87.0745 490.426L87.1829 490.428L87.2913 490.433L87.3996 490.441L87.508 490.453L87.6163 490.469L87.7247 490.487L87.8331 490.509L87.9414 490.535L88.0498 490.563L88.1581 490.596L88.2665 490.631L88.3749 490.67L88.4832 490.712L88.5916 490.758L88.6999 490.807L88.8083 490.86L88.9167 490.916L89.025 490.975L89.1334 491.037L89.2418 491.104L89.3501 491.173L89.4585 491.246L89.5668 491.322L89.6752 491.401L89.7836 491.484L89.8919 491.571L90.0003 491.661L90.1086 491.754L90.217 491.85L90.3254 491.95L90.4337 492.053L90.5421 492.16L90.5421 492.16L90.6504 492.268L90.7588 492.377L90.8672 492.485L90.9755 492.593L91.0839 492.702L91.1922 492.81L91.3006 492.919L91.409 493.027L91.5173 493.135L91.6257 493.244L91.734 493.352L91.8424 493.46L91.9508 493.569L92.0591 493.677L92.1675 493.785L92.2758 493.894L92.3842 494.002L92.4926 494.111L92.6009 494.219L92.7093 494.327L92.8177 494.436L92.926 494.544L93.0344 494.652L93.1427 494.761L93.2511 494.869L93.3595 494.977L93.4678 495.086L93.5762 495.194L93.6845 495.302L93.7929 495.411L93.9013 495.519L94.0096 495.628L94.0096 495.628L94.1197 495.738L94.2331 495.851L94.3499 495.968L94.4702 496.088L94.5937 496.212L94.7207 496.339L94.8511 496.469L94.9849 496.603L95.122 496.74L95.2625 496.88L95.4065 497.024L95.5538 497.172L95.7044 497.322L95.8585 497.476L96.016 497.634L96.1768 497.795L96.3411 497.959L96.5087 498.127L96.6797 498.298L96.8541 498.472L97.0319 498.65L97.213 498.831L97.3976 499.016L97.5855 499.203L97.7768 499.395L97.9716 499.589L98.1696 499.788L98.3711 499.989L98.576 500.194L98.7843 500.402L98.9959 500.614L99.2109 500.829L99.2109 500.829L99.4276 501.039L99.6444 501.235L99.8611 501.418L100.078 501.587L100.295 501.743L100.511 501.885L100.728 502.014L100.945 502.129L101.161 502.231L101.378 502.319L101.595 502.393L101.812 502.454L102.028 502.502L102.245 502.536L102.462 502.556L102.678 502.563L102.895 502.556L103.112 502.536L103.329 502.502L103.545 502.454L103.762 502.393L103.979 502.319L104.196 502.231L104.412 502.129L104.629 502.014L104.846 501.885L105.062 501.743L105.279 501.587L105.496 501.418L105.713 501.235L105.929 501.039L106.146 500.829L106.146 500.829L106.361 500.614L106.573 500.402L106.781 500.194L106.986 499.989L107.187 499.788L107.385 499.589L107.58 499.395L107.771 499.203L107.959 499.016L108.144 498.831L108.325 498.65L108.503 498.472L108.677 498.298L108.848 498.127L109.016 497.959L109.18 497.795L109.341 497.634L109.498 497.476L109.652 497.322L109.803 497.172L109.95 497.024L110.094 496.88L110.235 496.74L110.372 496.603L110.506 496.469L110.636 496.339L110.763 496.212L110.887 496.088L111.007 495.968L111.124 495.851L111.237 495.738L111.347 495.628L111.347 495.628L111.456 495.519L111.564 495.411L111.672 495.302L111.781 495.194L111.889 495.086L111.997 494.977L112.106 494.869L112.214 494.761L112.323 494.652L112.431 494.544L112.539 494.436L112.648 494.327L112.756 494.219L112.864 494.111L112.973 494.002L113.081 493.894L113.189 493.785L113.298 493.677L113.406 493.569L113.515 493.46L113.623 493.352L113.731 493.244L113.84 493.135L113.948 493.027L114.056 492.919L114.165 492.81L114.273 492.702L114.381 492.593L114.49 492.485L114.598 492.377L114.706 492.268L114.815 492.16L114.815 492.16L114.923 492.053L115.032 491.95L115.14 491.85L115.248 491.754L115.357 491.661L115.465 491.571L115.573 491.484L115.682 491.401L115.79 491.322L115.898 491.246L116.007 491.173L116.115 491.104L116.224 491.037L116.332 490.975L116.44 490.916L116.549 490.86L116.657 490.807L116.765 490.758L116.874 490.712L116.982 490.67L117.09 490.631L117.199 490.596L117.307 490.563L117.416 490.535L117.524 490.509L117.632 490.487L117.741 490.469L117.849 490.453L117.957 490.441L118.066 490.433L118.174 490.428L118.282 490.426L118.282 490.426L118.392 490.426L118.502 490.426L118.615 490.426L118.729 490.426L118.845 490.426L118.963 490.426L119.082 490.426L119.203 490.426L119.326 490.426L119.451 490.426L119.577 490.426L119.705 490.426L119.834 490.426L119.965 490.426L120.098 490.426L120.233 490.426L120.369 490.426L120.507 490.426L120.647 490.426L120.788 490.426L120.931 490.426L121.076 490.426L121.223 490.426L121.371 490.426L121.521 490.426L121.672 490.426L121.825 490.426L121.98 490.426L122.137 490.426L122.295 490.426L122.455 490.426L122.617 490.426L122.617 490.426L122.779 490.426L122.942 490.426L123.104 490.426L123.267 490.426L123.43 490.426L123.592 490.426L123.755 490.426L123.917 490.426L124.08 490.426L124.242 490.426L124.405 490.426L124.567 490.426L124.73 490.426L124.892 490.426L125.055 490.426L125.217 490.426L125.38 490.426L125.543 490.426L125.705 490.426L125.868 490.426L126.03 490.426L126.193 490.426L126.355 490.426L126.518 490.426L126.68 490.426L126.843 490.426L127.005 490.426L127.168 490.426L127.33 490.426L127.493 490.426L127.656 490.426L127.818 490.426L127.818 490.426L127.976 490.429L128.123 490.436L128.26 490.449L128.387 490.467L128.504 490.49L128.611 490.518L128.707 490.551L128.793 490.589L128.87 490.632L128.936 490.68L128.991 490.734L129.037 490.792L129.073 490.855L129.098 490.924L129.113 490.998L129.118 491.076L129.113 491.16L129.098 491.249L129.073 491.343L129.037 491.442L128.991 491.546L128.936 491.655L128.87 491.77L128.793 491.889L128.707 492.014L128.611 492.143L128.504 492.278L128.387 492.417L128.26 492.562L128.123 492.712L127.976 492.867L127.818 493.027L127.818 493.027L127.653 493.192L127.483 493.362L127.308 493.537L127.127 493.718L126.942 493.903L126.751 494.094L126.556 494.289L126.355 494.49L126.15 494.695L125.939 494.906L125.723 495.122L125.502 495.343L125.276 495.569L125.045 495.8L124.809 496.036L124.567 496.278L124.321 496.524L124.07 496.776L123.813 497.032L123.551 497.294L123.285 497.56L123.013 497.832L122.736 498.109L122.454 498.391L122.167 498.678L121.875 498.97L121.578 499.267L121.276 499.569L120.969 499.876L120.656 500.189L120.339 500.506L120.016 500.829"/>
<path class="l5" d="M439.03 277.173L442.497 275.439L439.03 273.705L439.03 277.173"/>
<path class="l5" d="M437.296 252.9L440.763 252.9L440.763 256.367L437.296 256.367L437.296 252.9z"/>
<path class="l5" d="M465.036 273.705L468.504 273.705L468.504 277.173L465.036 277.173L465.036 273.705z"/>
<path class="l5" d="M437.296 294.51L440.763 294.51L440.763 297.978L437.296 297.978L437.296 294.51z"/>
<path class="l5" d="M438.976 275.385L439.084 275.385L439.084 275.493L438.976 275.493L438.976 275.385z"/>
<path class="l5" d="M437.296 169.679L440.763 169.679L440.763 173.146L437.296 173.146L437.296 169.679z"/>
<path class="l5" d="M437.296 211.289L440.763 211.289L440.763 214.757L437.296 214.757L437.296 211.289z"/>
<path class="l5" d="M486.708 274.572L488.442 274.572L488.442 276.306L486.708 276.306L486.708 274.572z"/>
<path class="l5" d="M278.656 156.676L280.39 156.676L280.39 158.409L278.656 158.409L278.656 156.676z"/>
<path class="l5" d="M584.666 277.173L581.199 275.439L584.666 273.705L584.666 277.173"/>
<path class="l5" d="M582.933 252.9L586.4 252.9L586.4 256.367L582.933 256.367L582.933 252.9z"/>
<path class="l5" d="M555.192 273.705L558.66 273.705L558.66 277.173L555.192 277.173L555.192 273.705z"/>
<path class="l5" d="M582.933 294.51L586.4 294.51L586.4 297.978L582.933 297.978L582.933 294.51z"/>
<path class="l5" d="M584.612 275.385L584.721 275.385L584.721 275.493L584.612 275.493L584.612 275.385z"/>
<path class="l5" d="M751.108 277.173L747.641 275.439L751.108 273.705L751.108 277.173"/>
<path class="l5" d="M749.374 252.9L752.842 252.9L752.842 256.367L749.374 256.367L749.374 252.9z"/>
<path class="l5" d="M721.634 273.705L725.102 273.705L725.102 277.173L721.634 277.173L721.634 273.705z"/>
<path class="l5" d="M749.374 294.51L752.842 294.51L752.842 297.978L749.374 297.978L749.374 294.51z"/>
<path class="l5" d="M751.054 275.385L751.162 275.385L751.162 275.493L751.054 275.493L751.054 275.385z"/>
<path class="l5" d="M931.42 277.173L927.953 275.439L931.42 273.705L931.42 277.173"/>
<path class="l5" d="M929.686 252.9L933.154 252.9L933.154 256.367L929.686 256.367L929.686 252.9z"/>
<path class="l5" d="M901.946 273.705L905.414 273.705L905.414 277.173L901.946 277.173L901.946 273.705z"/>
<path class="l5" d="M929.686 294.51L933.154 294.51L933.154 297.978L929.686 297.978L929.686 294.51z"/>
<path class="l5" d="M931.366 275.385L931.474 275.385L931.474 275.493L931.366 275.493L931.366 275.385z"/>
<path class="l5" d="M666.153 266.77L669.621 266.77L669.621 270.238L666.153 270.238L666.153 266.77z"/>
<path class="l5" d="M666.153 308.38L669.621 308.38L669.621 311.848L666.153 311.848L666.153 308.38z"/>
<path class="l5" d="M832.595 266.77L836.063 266.77L836.063 270.238L832.595 270.238L832.595 266.77z"/>
<path class="l5" d="M832.595 308.38L836.063 308.38L836.063 311.848L832.595 311.848L832.595 308.38z"/>
<path class="l5" d="M1012.91 266.77L1016.37 266.77L1016.37 270.238L1012.91 270.238L1012.91 266.77z"/>
<path class="l5" d="M1012.91 308.38L1016.37 308.38L1016.37 311.848L1012.91 311.848L1012.91 308.38z"/>
<path class="l5" d="M584.341 171.088L584.991 171.088L584.991 171.738L584.341 171.738L584.341 171.088z"/>
<path class="l5" d="M750.783 171.088L751.433 171.088L751.433 171.738L750.783 171.738L750.783 171.088z"/>
<path class="l5" d="M931.095 171.088L931.745 171.088L931.745 171.738L931.095 171.738L931.095 171.088z"/>
<path class="l5" d="M501.12 240.438L501.77 240.438L501.77 241.089L501.12 241.089L501.12 240.438z"/>
<path class="l5" d="M667.02 170.546L668.754 170.546L668.754 172.28L667.02 172.28L667.02 170.546z"/>
<path class="l5" d="M833.462 170.546L835.196 170.546L835.196 172.28L833.462 172.28L833.462 170.546z"/>
<path class="l5" d="M1013.77 170.546L1015.51 170.546L1015.51 172.28L1013.77 172.28L1013.77 170.546z"/>
<path class="l5" d="M582.933 183.549L586.4 183.549L586.4 187.017L582.933 187.017L582.933 183.549z"/>
<path class="l5" d="M582.933 225.16L586.4 225.16L586.4 228.627L582.933 228.627L582.933 225.16z"/>
<path class="l5" d="M749.374 183.549L752.842 183.549L752.842 187.017L749.374 187.017L749.374 183.549z"/>
<path class="l5" d="M749.374 225.16L752.842 225.16L752.842 228.627L749.374 228.627L749.374 225.16z"/>
<path class="l5" d="M929.686 183.549L933.154 183.549L933.154 187.017L929.686 187.017L929.686 183.549z"/>
<path class="l5" d="M929.686 225.16L933.154 225.16L933.154 228.627L929.686 228.627L929.686 225.16z"/>
<path class="l6" d="M282.99 511.231L834.329 511.231"/>
<path class="l6" d="M15.99 511.231L61.068 511.231"/>
<path class="l15" d="M587.267 165.345L591.601 160.143"/>
<path class="l15" d="M584.666 171.413L587.267 165.345"/>
<path class="l15" d="M591.601 152.341L591.601 161.877"/>
<path class="l15" d="M589.868 160.143L604.605 160.143"/>
<path class="l15" d="M593.335 157.543L596.803 157.543"/>
<path class="l15" d="M596.803 154.942L596.803 157.543"/>
<path class="l15" d="M596.803 154.942L599.403 154.942"/>
<path class="l15" d="M599.403 154.942L599.403 157.543"/>
<path class="l15" d="M599.403 157.543L602.004 157.543"/>
<path class="l15" d="M602.004 154.942L602.004 157.543"/>
<path class="l15" d="M602.004 154.942L603.955 154.942"/>
<path class="l15" d="M753.709 165.345L758.043 160.143"/>
<path class="l15" d="M751.108 171.413L753.709 165.345"/>
<path class="l15" d="M758.043 152.341L758.043 161.877"/>
<path class="l15" d="M756.309 160.143L771.047 160.143"/>
<path class="l15" d="M759.777 157.543L763.245 157.543"/>
<path class="l15" d="M763.245 154.942L763.245 157.543"/>
<path class="l15" d="M763.245 154.942L765.845 154.942"/>
<path class="l15" d="M765.845 154.942L765.845 157.543"/>
<path class="l15" d="M765.845 157.543L768.446 157.543"/>
<path class="l15" d="M768.446 154.942L768.446 157.543"/>
<path class="l15" d="M768.446 154.942L770.396 154.942"/>
<path class="l15" d="M934.021 165.345L938.355 160.143"/>
<path class="l15" d="M931.42 171.413L934.021 165.345"/>
<path class="l15" d="M938.355 152.341L938.355 161.877"/>
<path class="l15" d="M936.621 160.143L951.359 160.143"/>
<path class="l15" d="M940.089 157.543L943.557 157.543"/>
<path class="l15" d="M943.557 154.942L943.557 157.543"/>
<path class="l15" d="M943.557 154.942L946.157 154.942"/>
<path class="l15" d="M946.157 154.942L946.157 157.543"/>
<path class="l15" d="M946.157 157.543L948.758 157.543"/>
<path class="l15" d="M948.758 154.942L948.758 157.543"/>
<path class="l15" d="M948.758 154.942L950.708 154.942"/>
<path class="l15" d="M504.046 234.695L508.38 229.494"/>
<path class="l15" d="M501.445 240.763L504.046 234.695"/>
<path class="l15" d="M508.38 221.692L508.38 231.228"/>
<path class="l15" d="M506.647 229.494L521.384 229.494"/>
<path class="l15" d="M510.114 226.893L513.582 226.893"/>
<path class="l15" d="M513.582 224.293L513.582 226.893"/>
<path class="l15" d="M513.582 224.293L516.182 224.293"/>
<path class="l15" d="M516.182 224.293L516.182 226.893"/>
<path class="l15" d="M516.182 226.893L518.783 226.893"/>
<path class="l15" d="M518.783 224.293L518.783 226.893"/>
<path class="l15" d="M518.783 224.293L520.734 224.293"/>
<text fill="#222222"  xml:space="preserve" font-size="10.8187" transform="translate(19.4575, 451.704)" >MODEL</text>
<text fill="#222222"  xml:space="preserve" font-size="10.8187" style="font-family:Monospace;" transform="translate(26.3926, 469.042)" >.lib cornerMOSlv.lib mos_tt</text>
<text fill="#222222"  xml:space="preserve" font-size="10.8187" transform="translate(19.4575, 139.626)" >NGSPICE</text>
<text fill="#222222"  xml:space="preserve" font-size="10.8187" style="font-family:Monospace;" transform="translate(26.3926, 169.372)" >.temp 27</text>
<text fill="#222222"  xml:space="preserve" font-size="10.8187" style="font-family:Monospace;" transform="translate(26.3926, 181.781)" >.include current_mirror.save</text>
<text fill="#222222"  xml:space="preserve" font-size="10.8187" style="font-family:Monospace;" transform="translate(26.3926, 194.191)" >.control</text>
<text fill="#222222"  xml:space="preserve" font-size="10.8187" style="font-family:Monospace;" transform="translate(26.3926, 206.6)" >save all</text>
<text fill="#222222"  xml:space="preserve" font-size="10.8187" style="font-family:Monospace;" transform="translate(26.3926, 231.418)" >op</text>
<text fill="#222222"  xml:space="preserve" font-size="10.8187" style="font-family:Monospace;" transform="translate(26.3926, 243.827)" >write current_mirror.raw</text>
<text fill="#222222"  xml:space="preserve" font-size="10.8187" style="font-family:Monospace;" transform="translate(26.3926, 256.236)" >dc Vout1 0 1.5 10m</text>
<text fill="#222222"  xml:space="preserve" font-size="10.8187" style="font-family:Monospace;" transform="translate(26.3926, 268.645)" >plot i(viout1) vs v(out1)</text>
<text fill="#222222"  xml:space="preserve" font-size="10.8187" style="font-family:Monospace;" transform="translate(26.3926, 281.054)" >dc Vout2 0 1.5 10m</text>
<text fill="#222222"  xml:space="preserve" font-size="10.8187" style="font-family:Monospace;" transform="translate(26.3926, 293.463)" >plot i(viout2) vs v(out2)</text>
<text fill="#222222"  xml:space="preserve" font-size="10.8187" style="font-family:Monospace;" transform="translate(26.3926, 305.872)" >dc Vout3 0 1.5 10m</text>
<text fill="#222222"  xml:space="preserve" font-size="10.8187" style="font-family:Monospace;" transform="translate(26.3926, 318.281)" >plot i(viout3) vs v(out3)</text>
<text fill="#222222"  xml:space="preserve" font-size="10.8187" style="font-family:Monospace;" transform="translate(26.3926, 343.099)" >.endc</text>
<text fill="#222222"  xml:space="preserve" font-size="7.21248" transform="translate(293.393, 268.985)" >Vdd</text>
<text fill="#222222"  xml:space="preserve" font-size="7.21248" transform="translate(293.393, 286.322)" >1.5</text>
<text fill="#0099cc"  xml:space="preserve" font-size="7.21248" transform="translate(284.724, 347.871)" >GND</text>
<text fill="#222222"  xml:space="preserve" font-size="14.425" transform="translate(289.926, 527.797)" >         current_mirror.sch</text>
<text fill="#222222"  xml:space="preserve" font-size="14.425" transform="translate(289.926, 506.992)" >(c) 2024-2025 Harald Pretl, Apache-2.0 license</text>
<text fill="#222222"  xml:space="preserve" font-size="14.425" transform="translate(678.329, 506.992)" >2026-06-24  15:14:13</text>
<text fill="#222222"  xml:space="preserve" font-size="36.0624" transform="translate(130.419, 526.638)" >SCHEM</text>
<text fill="#222222"  xml:space="preserve" font-size="7.21248" transform="translate(449.432, 261.183)" >M1</text>
<text fill="#ff0000"  xml:space="preserve" font-size="5.40936" transform="translate(459.835, 273.415)" >G</text>
<text fill="#222222"  xml:space="preserve" font-size="7.21248" transform="translate(379.095, 295.387)" >sg13_lv_nmos</text>
<text fill="#666600"  xml:space="preserve" font-size="7.21248" transform="translate(413.228, 286.322)" >m=1</text>
<text fill="#666600"  xml:space="preserve" font-size="7.21248" transform="translate(410.228, 280.254)" >ng=2</text>
<text fill="#666600"  xml:space="preserve" font-size="7.21248" transform="translate(401.228, 271.585)" >l=0.13u</text>
<text fill="#666600"  xml:space="preserve" font-size="7.21248" transform="translate(409.228, 263.783)" >w=1u</text>
<text fill="#ff0000"  xml:space="preserve" font-size="5.40936" transform="translate(433.296, 292.487)" >S</text>
<text fill="#ff0000"  xml:space="preserve" font-size="5.40936" transform="translate(433.296, 262.01)" >D</text>
<text fill="#ff0000"  xml:space="preserve" font-size="5.40936" transform="translate(435.03, 273.415)" >B</text>
<text fill="#222222"  xml:space="preserve" font-size="14.425" transform="translate(369.679, 467.284)" >simulate</text>
<text fill="#222222"  xml:space="preserve" font-size="14.425" transform="translate(536.121, 467.284)" >annotate OP</text>
<text fill="#222222"  xml:space="preserve" font-size="7.21248" transform="translate(452.9, 191.832)" >Ibias</text>
<text fill="#222222"  xml:space="preserve" font-size="7.21248" transform="translate(452.9, 200.105)" >20u</text>
<text fill="#0099cc"  xml:space="preserve" font-size="11.9006" transform="translate(492.777, 280.61)" >v_gs</text>
<text fill="#0099cc"  xml:space="preserve" font-size="11.9006" transform="translate(245.322, 162.714)" >v_dd</text>
<text fill="#222222"  xml:space="preserve" font-size="7.21248" transform="translate(563.264, 261.183)" >M2</text>
<text fill="#ff0000"  xml:space="preserve" font-size="5.40936" transform="translate(559.861, 273.415)" >G</text>
<text fill="#222222"  xml:space="preserve" font-size="7.21248" transform="translate(591.601, 295.387)" >sg13_lv_nmos</text>
<text fill="#666600"  xml:space="preserve" font-size="7.21248" transform="translate(592.468, 286.322)" >m=1</text>
<text fill="#666600"  xml:space="preserve" font-size="7.21248" transform="translate(592.468, 280.254)" >ng=1</text>
<text fill="#666600"  xml:space="preserve" font-size="7.21248" transform="translate(592.468, 271.585)" >l=0.13u</text>
<text fill="#666600"  xml:space="preserve" font-size="7.21248" transform="translate(592.468, 263.783)" >w=0.5u</text>
<text fill="#ff0000"  xml:space="preserve" font-size="5.40936" transform="translate(586.4, 292.487)" >S</text>
<text fill="#ff0000"  xml:space="preserve" font-size="5.40936" transform="translate(586.4, 262.01)" >D</text>
<text fill="#ff0000"  xml:space="preserve" font-size="5.40936" transform="translate(584.666, 273.415)" >B</text>
<text fill="#222222"  xml:space="preserve" font-size="7.21248" transform="translate(729.706, 261.183)" >M3</text>
<text fill="#ff0000"  xml:space="preserve" font-size="5.40936" transform="translate(726.303, 273.415)" >G</text>
<text fill="#222222"  xml:space="preserve" font-size="7.21248" transform="translate(758.043, 295.387)" >sg13_lv_nmos</text>
<text fill="#666600"  xml:space="preserve" font-size="7.21248" transform="translate(758.91, 286.322)" >m=1</text>
<text fill="#666600"  xml:space="preserve" font-size="7.21248" transform="translate(758.91, 280.254)" >ng=2</text>
<text fill="#666600"  xml:space="preserve" font-size="7.21248" transform="translate(758.91, 271.585)" >l=0.13u</text>
<text fill="#666600"  xml:space="preserve" font-size="7.21248" transform="translate(758.91, 263.783)" >w=1u</text>
<text fill="#ff0000"  xml:space="preserve" font-size="5.40936" transform="translate(752.842, 292.487)" >S</text>
<text fill="#ff0000"  xml:space="preserve" font-size="5.40936" transform="translate(752.842, 262.01)" >D</text>
<text fill="#ff0000"  xml:space="preserve" font-size="5.40936" transform="translate(751.108, 273.415)" >B</text>
<text fill="#222222"  xml:space="preserve" font-size="7.21248" transform="translate(910.018, 261.183)" >M4</text>
<text fill="#ff0000"  xml:space="preserve" font-size="5.40936" transform="translate(906.615, 273.415)" >G</text>
<text fill="#222222"  xml:space="preserve" font-size="7.21248" transform="translate(938.355, 295.387)" >sg13_lv_nmos</text>
<text fill="#666600"  xml:space="preserve" font-size="7.21248" transform="translate(939.222, 286.322)" >m=1</text>
<text fill="#666600"  xml:space="preserve" font-size="7.21248" transform="translate(939.222, 280.254)" >ng=4</text>
<text fill="#666600"  xml:space="preserve" font-size="7.21248" transform="translate(939.222, 271.585)" >l=0.13u</text>
<text fill="#666600"  xml:space="preserve" font-size="7.21248" transform="translate(939.222, 263.783)" >w=2u</text>
<text fill="#ff0000"  xml:space="preserve" font-size="5.40936" transform="translate(933.154, 292.487)" >S</text>
<text fill="#ff0000"  xml:space="preserve" font-size="5.40936" transform="translate(933.154, 262.01)" >D</text>
<text fill="#ff0000"  xml:space="preserve" font-size="5.40936" transform="translate(931.42, 273.415)" >B</text>
<text fill="#222222"  xml:space="preserve" font-size="7.21248" transform="translate(681.757, 282.855)" >Vout1</text>
<text fill="#222222"  xml:space="preserve" font-size="7.21248" transform="translate(681.757, 300.192)" >0.6</text>
<text fill="#222222"  xml:space="preserve" font-size="7.21248" transform="translate(848.199, 282.855)" >Vout2</text>
<text fill="#222222"  xml:space="preserve" font-size="7.21248" transform="translate(848.199, 300.192)" >0.6</text>
<text fill="#222222"  xml:space="preserve" font-size="7.21248" transform="translate(1028.51, 282.855)" >Vout3</text>
<text fill="#222222"  xml:space="preserve" font-size="7.21248" transform="translate(1028.51, 300.192)" >0.6</text>
<text fill="#0099cc"  xml:space="preserve" font-size="11.9006" transform="translate(673.089, 176.584)" >out1</text>
<text fill="#0099cc"  xml:space="preserve" font-size="11.9006" transform="translate(839.53, 176.584)" >out2</text>
<text fill="#0099cc"  xml:space="preserve" font-size="11.9006" transform="translate(1019.84, 176.584)" >out3</text>
<text fill="#222222"  xml:space="preserve" font-size="7.21248" transform="translate(595.069, 199.634)" >Viout1</text>
<text fill="#222222"  xml:space="preserve" font-size="7.21248" transform="translate(761.511, 199.634)" >Viout2</text>
<text fill="#222222"  xml:space="preserve" font-size="7.21248" transform="translate(941.823, 199.634)" >Viout3</text>
<text fill="#aa2222"  xml:space="preserve" font-size="7.21248" style="font-family:Monospace;" transform="translate(435.562, 354.806)" >ids   = NaN</text>
<text fill="#aa2222"  xml:space="preserve" font-size="7.21248" style="font-family:Monospace;" transform="translate(435.562, 363.079)" >gm    = NaN</text>
<text fill="#aa2222"  xml:space="preserve" font-size="7.21248" style="font-family:Monospace;" transform="translate(435.562, 371.352)" >gds   = NaN</text>
<text fill="#aa2222"  xml:space="preserve" font-size="7.21248" style="font-family:Monospace;" transform="translate(435.562, 379.624)" >vth   = NaN</text>
<text fill="#aa2222"  xml:space="preserve" font-size="7.21248" style="font-family:Monospace;" transform="translate(435.562, 387.897)" >vgs   = NaN</text>
<text fill="#aa2222"  xml:space="preserve" font-size="7.21248" style="font-family:Monospace;" transform="translate(435.562, 396.17)" >vdss  = NaN</text>
<text fill="#aa2222"  xml:space="preserve" font-size="7.21248" style="font-family:Monospace;" transform="translate(435.562, 404.442)" >vds   = NaN</text>
<text fill="#aa2222"  xml:space="preserve" font-size="7.21248" style="font-family:Monospace;" transform="translate(435.562, 412.715)" >cgg   = NaN</text>
<text fill="#aa2222"  xml:space="preserve" font-size="7.21248" style="font-family:Monospace;" transform="translate(435.562, 420.988)" >ft    = NaN</text>
<text fill="#aa2222"  xml:space="preserve" font-size="7.21248" style="font-family:Monospace;" transform="translate(435.562, 429.261)" >gm/id = NaN</text>
<text fill="#229900"  xml:space="preserve" font-size="7.21248" transform="translate(432.095, 343.066)" >M1</text>
<text fill="#aa2222"  xml:space="preserve" font-size="7.21248" style="font-family:Monospace;" transform="translate(581.199, 354.806)" >ids   = NaN</text>
<text fill="#aa2222"  xml:space="preserve" font-size="7.21248" style="font-family:Monospace;" transform="translate(581.199, 363.079)" >gm    = NaN</text>
<text fill="#aa2222"  xml:space="preserve" font-size="7.21248" style="font-family:Monospace;" transform="translate(581.199, 371.352)" >gds   = NaN</text>
<text fill="#aa2222"  xml:space="preserve" font-size="7.21248" style="font-family:Monospace;" transform="translate(581.199, 379.624)" >vth   = NaN</text>
<text fill="#aa2222"  xml:space="preserve" font-size="7.21248" style="font-family:Monospace;" transform="translate(581.199, 387.897)" >vgs   = NaN</text>
<text fill="#aa2222"  xml:space="preserve" font-size="7.21248" style="font-family:Monospace;" transform="translate(581.199, 396.17)" >vdss  = NaN</text>
<text fill="#aa2222"  xml:space="preserve" font-size="7.21248" style="font-family:Monospace;" transform="translate(581.199, 404.442)" >vds   = NaN</text>
<text fill="#aa2222"  xml:space="preserve" font-size="7.21248" style="font-family:Monospace;" transform="translate(581.199, 412.715)" >cgg   = NaN</text>
<text fill="#aa2222"  xml:space="preserve" font-size="7.21248" style="font-family:Monospace;" transform="translate(581.199, 420.988)" >ft    = NaN</text>
<text fill="#aa2222"  xml:space="preserve" font-size="7.21248" style="font-family:Monospace;" transform="translate(581.199, 429.261)" >gm/id = NaN</text>
<text fill="#229900"  xml:space="preserve" font-size="7.21248" transform="translate(577.731, 343.066)" >M2</text>
<text fill="#aa2222"  xml:space="preserve" font-size="7.21248" style="font-family:Monospace;" transform="translate(747.641, 354.806)" >ids   = NaN</text>
<text fill="#aa2222"  xml:space="preserve" font-size="7.21248" style="font-family:Monospace;" transform="translate(747.641, 363.079)" >gm    = NaN</text>
<text fill="#aa2222"  xml:space="preserve" font-size="7.21248" style="font-family:Monospace;" transform="translate(747.641, 371.352)" >gds   = NaN</text>
<text fill="#aa2222"  xml:space="preserve" font-size="7.21248" style="font-family:Monospace;" transform="translate(747.641, 379.624)" >vth   = NaN</text>
<text fill="#aa2222"  xml:space="preserve" font-size="7.21248" style="font-family:Monospace;" transform="translate(747.641, 387.897)" >vgs   = NaN</text>
<text fill="#aa2222"  xml:space="preserve" font-size="7.21248" style="font-family:Monospace;" transform="translate(747.641, 396.17)" >vdss  = NaN</text>
<text fill="#aa2222"  xml:space="preserve" font-size="7.21248" style="font-family:Monospace;" transform="translate(747.641, 404.442)" >vds   = NaN</text>
<text fill="#aa2222"  xml:space="preserve" font-size="7.21248" style="font-family:Monospace;" transform="translate(747.641, 412.715)" >cgg   = NaN</text>
<text fill="#aa2222"  xml:space="preserve" font-size="7.21248" style="font-family:Monospace;" transform="translate(747.641, 420.988)" >ft    = NaN</text>
<text fill="#aa2222"  xml:space="preserve" font-size="7.21248" style="font-family:Monospace;" transform="translate(747.641, 429.261)" >gm/id = NaN</text>
<text fill="#229900"  xml:space="preserve" font-size="7.21248" transform="translate(744.173, 343.066)" >M3</text>
<text fill="#aa2222"  xml:space="preserve" font-size="7.21248" style="font-family:Monospace;" transform="translate(927.953, 354.806)" >ids   = NaN</text>
<text fill="#aa2222"  xml:space="preserve" font-size="7.21248" style="font-family:Monospace;" transform="translate(927.953, 363.079)" >gm    = NaN</text>
<text fill="#aa2222"  xml:space="preserve" font-size="7.21248" style="font-family:Monospace;" transform="translate(927.953, 371.352)" >gds   = NaN</text>
<text fill="#aa2222"  xml:space="preserve" font-size="7.21248" style="font-family:Monospace;" transform="translate(927.953, 379.624)" >vth   = NaN</text>
<text fill="#aa2222"  xml:space="preserve" font-size="7.21248" style="font-family:Monospace;" transform="translate(927.953, 387.897)" >vgs   = NaN</text>
<text fill="#aa2222"  xml:space="preserve" font-size="7.21248" style="font-family:Monospace;" transform="translate(927.953, 396.17)" >vdss  = NaN</text>
<text fill="#aa2222"  xml:space="preserve" font-size="7.21248" style="font-family:Monospace;" transform="translate(927.953, 404.442)" >vds   = NaN</text>
<text fill="#aa2222"  xml:space="preserve" font-size="7.21248" style="font-family:Monospace;" transform="translate(927.953, 412.715)" >cgg   = NaN</text>
<text fill="#aa2222"  xml:space="preserve" font-size="7.21248" style="font-family:Monospace;" transform="translate(927.953, 420.988)" >ft    = NaN</text>
<text fill="#aa2222"  xml:space="preserve" font-size="7.21248" style="font-family:Monospace;" transform="translate(927.953, 429.261)" >gm/id = NaN</text>
<text fill="#229900"  xml:space="preserve" font-size="7.21248" transform="translate(924.485, 343.066)" >M4</text>
<path class="l1" d="M279.523 323.984L279.523 337.855"/>
<path class="l1" d="M390.484 275.439L439.03 275.439"/>
<path class="l1" d="M279.523 157.543L279.523 254.634"/>
<path class="l1" d="M279.523 157.543L439.03 157.543"/>
<path class="l1" d="M439.03 240.763L439.03 254.634"/>
<path class="l1" d="M466.77 275.439L487.575 275.439"/>
<path class="l1" d="M487.575 240.763L487.575 275.439"/>
<path class="l1" d="M439.03 240.763L487.575 240.763"/>
<path class="l1" d="M439.03 157.543L439.03 171.413"/>
<path class="l1" d="M439.03 213.023L439.03 240.763"/>
<path class="l1" d="M584.666 275.439L633.212 275.439"/>
<path class="l1" d="M751.108 275.439L799.654 275.439"/>
<path class="l1" d="M931.42 275.439L979.966 275.439"/>
<path class="l1" d="M889.81 275.439L903.68 275.439"/>
<path class="l1" d="M709.498 275.439L723.368 275.439"/>
<path class="l1" d="M543.056 275.439L556.926 275.439"/>
<path class="l1" d="M543.056 240.763L543.056 275.439"/>
<path class="l1" d="M279.523 323.984L390.484 323.984"/>
<path class="l1" d="M279.523 296.244L279.523 323.984"/>
<path class="l1" d="M390.484 275.439L390.484 323.984"/>
<path class="l1" d="M390.484 323.984L439.03 323.984"/>
<path class="l1" d="M439.03 296.244L439.03 323.984"/>
<path class="l1" d="M439.03 323.984L584.666 323.984"/>
<path class="l1" d="M584.666 296.244L584.666 323.984"/>
<path class="l1" d="M584.666 323.984L633.212 323.984"/>
<path class="l1" d="M633.212 275.439L633.212 323.984"/>
<path class="l1" d="M751.108 296.244L751.108 323.984"/>
<path class="l1" d="M667.887 323.984L751.108 323.984"/>
<path class="l1" d="M667.887 310.114L667.887 323.984"/>
<path class="l1" d="M633.212 323.984L667.887 323.984"/>
<path class="l1" d="M751.108 323.984L799.654 323.984"/>
<path class="l1" d="M799.654 275.439L799.654 323.984"/>
<path class="l1" d="M834.329 323.984L931.42 323.984"/>
<path class="l1" d="M931.42 296.244L931.42 323.984"/>
<path class="l1" d="M931.42 323.984L979.966 323.984"/>
<path class="l1" d="M979.966 275.439L979.966 323.984"/>
<path class="l1" d="M889.81 240.763L889.81 275.439"/>
<path class="l1" d="M487.575 240.763L543.056 240.763"/>
<path class="l1" d="M709.498 240.763L709.498 275.439"/>
<path class="l1" d="M543.056 240.763L709.498 240.763"/>
<path class="l1" d="M584.666 171.413L667.887 171.413"/>
<path class="l1" d="M667.887 171.413L667.887 268.504"/>
<path class="l1" d="M834.329 310.114L834.329 323.984"/>
<path class="l1" d="M799.654 323.984L834.329 323.984"/>
<path class="l1" d="M834.329 171.413L834.329 275.439"/>
<path class="l1" d="M751.108 171.413L834.329 171.413"/>
<path class="l1" d="M709.498 240.763L889.81 240.763"/>
<path class="l1" d="M931.42 171.413L1014.64 171.413"/>
<path class="l1" d="M1014.64 171.413L1014.64 268.504"/>
<path class="l1" d="M1014.64 310.114L1014.64 323.984"/>
<path class="l1" d="M979.966 323.984L1014.64 323.984"/>
<path class="l1" d="M584.666 226.893L584.666 254.634"/>
<path class="l1" d="M584.666 171.413L584.666 185.283"/>
<path class="l1" d="M751.108 226.893L751.108 254.634"/>
<path class="l1" d="M751.108 171.413L751.108 185.283"/>
<path class="l1" d="M931.42 226.893L931.42 254.634"/>
<path class="l1" d="M931.42 171.413L931.42 185.283"/>
<circle class="l1" cx="279.523" cy="323.984" r="2.56598"/>
<circle class="l1" cx="279.523" cy="323.984" r="2.56598"/>
<circle class="l1" cx="390.484" cy="323.984" r="2.56598"/>
<circle class="l1" cx="279.523" cy="323.984" r="2.56598"/>
<circle class="l1" cx="543.056" cy="240.763" r="2.56598"/>
<circle class="l1" cx="709.498" cy="240.763" r="2.56598"/>
<circle class="l1" cx="487.575" cy="240.763" r="2.56598"/>
<circle class="l1" cx="543.056" cy="240.763" r="2.56598"/>
<circle class="l1" cx="543.056" cy="240.763" r="2.56598"/>
<circle class="l1" cx="439.03" cy="240.763" r="2.56598"/>
<circle class="l1" cx="439.03" cy="240.763" r="2.56598"/>
<circle class="l1" cx="487.575" cy="240.763" r="2.56598"/>
<circle class="l1" cx="487.575" cy="240.763" r="2.56598"/>
<circle class="l1" cx="439.03" cy="240.763" r="2.56598"/>
<circle class="l1" cx="439.03" cy="323.984" r="2.56598"/>
<circle class="l1" cx="584.666" cy="323.984" r="2.56598"/>
<circle class="l1" cx="439.03" cy="323.984" r="2.56598"/>
<circle class="l1" cx="390.484" cy="323.984" r="2.56598"/>
<circle class="l1" cx="439.03" cy="323.984" r="2.56598"/>
<circle class="l1" cx="390.484" cy="323.984" r="2.56598"/>
<circle class="l1" cx="709.498" cy="240.763" r="2.56598"/>
<circle class="l1" cx="709.498" cy="240.763" r="2.56598"/>
<circle class="l1" cx="799.654" cy="323.984" r="2.56598"/>
<circle class="l1" cx="834.329" cy="323.984" r="2.56598"/>
<circle class="l1" cx="834.329" cy="323.984" r="2.56598"/>
<circle class="l1" cx="834.329" cy="323.984" r="2.56598"/>
<circle class="l1" cx="931.42" cy="323.984" r="2.56598"/>
<circle class="l1" cx="799.654" cy="323.984" r="2.56598"/>
<circle class="l1" cx="751.108" cy="323.984" r="2.56598"/>
<circle class="l1" cx="799.654" cy="323.984" r="2.56598"/>
<circle class="l1" cx="633.212" cy="323.984" r="2.56598"/>
<circle class="l1" cx="667.887" cy="323.984" r="2.56598"/>
<circle class="l1" cx="667.887" cy="323.984" r="2.56598"/>
<circle class="l1" cx="667.887" cy="323.984" r="2.56598"/>
<circle class="l1" cx="751.108" cy="323.984" r="2.56598"/>
<circle class="l1" cx="751.108" cy="323.984" r="2.56598"/>
<circle class="l1" cx="633.212" cy="323.984" r="2.56598"/>
<circle class="l1" cx="584.666" cy="323.984" r="2.56598"/>
<circle class="l1" cx="633.212" cy="323.984" r="2.56598"/>
<circle class="l1" cx="584.666" cy="323.984" r="2.56598"/>
<circle class="l1" cx="979.966" cy="323.984" r="2.56598"/>
<circle class="l1" cx="979.966" cy="323.984" r="2.56598"/>
<circle class="l1" cx="931.42" cy="323.984" r="2.56598"/>
<circle class="l1" cx="979.966" cy="323.984" r="2.56598"/>
<circle class="l1" cx="931.42" cy="323.984" r="2.56598"/>
</svg>
