<svg xmlns="http://www.w3.org/2000/svg" xmlns:xlink="http://www.w3.org/1999/xlink" width="900" height="506" version="1.1">
<style type="text/css">
.l0{
  fill: #ffffff;
  stroke: #ffffff;
  stroke-linecap:round;
  stroke-linejoin:round;
  stroke-width: 0.632354;
}
.l1{
  fill: #0044ee;
  stroke: #0044ee;
  stroke-linecap:round;
  stroke-linejoin:round;
  stroke-width: 0.632354;
}
.l2{
  fill: #aaaaaa; fill-opacity: 0.2;
  stroke: #aaaaaa;
  stroke-linecap:round;
  stroke-linejoin:round;
  stroke-width: 0.632354;
}
.l3{
  fill: #222222; fill-opacity: 0.5;
  stroke: #222222;
  stroke-linecap:round;
  stroke-linejoin:round;
  stroke-width: 0.632354;
}
.l4{
  fill: #229900;
  stroke: #229900;
  stroke-linecap:round;
  stroke-linejoin:round;
  stroke-width: 0.632354;
}
.l5{
  fill: #bb2200;
  stroke: #bb2200;
  stroke-linecap:round;
  stroke-linejoin:round;
  stroke-width: 0.632354;
}
.l6{
  fill: #00ccee; fill-opacity: 0.5;
  stroke: #00ccee;
  stroke-linecap:round;
  stroke-linejoin:round;
  stroke-width: 0.632354;
}
.l7{
  fill: #ff0000; fill-opacity: 0.5;
  stroke: #ff0000;
  stroke-linecap:round;
  stroke-linejoin:round;
  stroke-width: 0.632354;
}
.l8{
  fill: #888800; fill-opacity: 0.5;
  stroke: #888800;
  stroke-linecap:round;
  stroke-linejoin:round;
  stroke-width: 0.632354;
}
.l9{
  fill: #00aaaa; fill-opacity: 0.5;
  stroke: #00aaaa;
  stroke-linecap:round;
  stroke-linejoin:round;
  stroke-width: 0.632354;
}
.l10{
  fill: #880088;
  stroke: #880088;
  stroke-linecap:round;
  stroke-linejoin:round;
  stroke-width: 0.632354;
}
.l11{
  fill: #00ff00; fill-opacity: 0.5;
  stroke: #00ff00;
  stroke-linecap:round;
  stroke-linejoin:round;
  stroke-width: 0.632354;
}
.l12{
  fill: #0000cc; fill-opacity: 0.5;
  stroke: #0000cc;
  stroke-linecap:round;
  stroke-linejoin:round;
  stroke-width: 0.632354;
}
.l13{
  fill: #666600; fill-opacity: 0.5;
  stroke: #666600;
  stroke-linecap:round;
  stroke-linejoin:round;
  stroke-width: 0.632354;
}
.l14{
  fill: #557755; fill-opacity: 0.2;
  stroke: #557755;
  stroke-linecap:round;
  stroke-linejoin:round;
  stroke-width: 0.632354;
}
.l15{
  fill: #aa2222; fill-opacity: 0.5;
  stroke: #aa2222;
  stroke-linecap:round;
  stroke-linejoin:round;
  stroke-width: 0.632354;
}
.l16{
  fill: #7ccc40; fill-opacity: 0.5;
  stroke: #7ccc40;
  stroke-linecap:round;
  stroke-linejoin:round;
  stroke-width: 0.632354;
}
.l17{
  fill: #00ffcc; fill-opacity: 0.2;
  stroke: #00ffcc;
  stroke-linecap:round;
  stroke-linejoin:round;
  stroke-width: 0.632354;
}
.l18{
  fill: #ce0097; fill-opacity: 0.5;
  stroke: #ce0097;
  stroke-linecap:round;
  stroke-linejoin:round;
  stroke-width: 0.632354;
}
.l19{
  fill: #d2d46b; fill-opacity: 0.2;
  stroke: #d2d46b;
  stroke-linecap:round;
  stroke-linejoin:round;
  stroke-width: 0.632354;
}
.l20{
  fill: #ef6158; fill-opacity: 0.2;
  stroke: #ef6158;
  stroke-linecap:round;
  stroke-linejoin:round;
  stroke-width: 0.632354;
}
.l21{
  fill: #fdb200; fill-opacity: 0.2;
  stroke: #fdb200;
  stroke-linecap:round;
  stroke-linejoin:round;
  stroke-width: 0.632354;
}
text {font-family: Sans-Serif;}
</style>
<rect class="l0" x="0" y="0" width="900" height="506"/>
<text fill="#0044ee"  xml:space="preserve" font-size="6.08934" transform="translate(240.386, 265.555)" >GND</text>
<text fill="#0044ee"  xml:space="preserve" font-size="10.0474" transform="translate(416.04, 208.768)" >v_gs</text>
<text fill="#0044ee"  xml:space="preserve" font-size="10.0474" transform="translate(208.604, 109.231)" >v_dd</text>
<text fill="#0044ee"  xml:space="preserve" font-size="10.0474" transform="translate(568.274, 120.941)" >out1</text>
<text fill="#0044ee"  xml:space="preserve" font-size="10.0474" transform="translate(708.797, 120.941)" >out2</text>
<text fill="#0044ee"  xml:space="preserve" font-size="10.0474" transform="translate(861.03, 120.941)" >out3</text>
<text fill="#222222"  xml:space="preserve" font-size="9.134" transform="translate(16.4276, 353.219)" >MODEL</text>
<text fill="#222222"  xml:space="preserve" font-size="9.134" style="font-family:Monospace;" transform="translate(22.2827, 367.857)" >.lib cornerMOSlv.lib mos_tt</text>
<text fill="#222222"  xml:space="preserve" font-size="9.134" transform="translate(16.4276, 89.7383)" >NGSPICE</text>
<text fill="#222222"  xml:space="preserve" font-size="9.134" style="font-family:Monospace;" transform="translate(22.2827, 114.853)" >.temp 27</text>
<text fill="#222222"  xml:space="preserve" font-size="9.134" style="font-family:Monospace;" transform="translate(22.2827, 125.33)" >.control</text>
<text fill="#222222"  xml:space="preserve" font-size="9.134" style="font-family:Monospace;" transform="translate(22.2827, 135.806)" >save all</text>
<text fill="#222222"  xml:space="preserve" font-size="9.134" style="font-family:Monospace;" transform="translate(22.2827, 156.76)" >op</text>
<text fill="#222222"  xml:space="preserve" font-size="9.134" style="font-family:Monospace;" transform="translate(22.2827, 167.236)" >write current_mirror_improved.raw</text>
<text fill="#222222"  xml:space="preserve" font-size="9.134" style="font-family:Monospace;" transform="translate(22.2827, 177.713)" >dc Vout1 0 1.5 10m</text>
<text fill="#222222"  xml:space="preserve" font-size="9.134" style="font-family:Monospace;" transform="translate(22.2827, 188.19)" >plot i(viout1) vs v(out1)</text>
<text fill="#222222"  xml:space="preserve" font-size="9.134" style="font-family:Monospace;" transform="translate(22.2827, 198.666)" >dc Vout2 0 1.5 10m</text>
<text fill="#222222"  xml:space="preserve" font-size="9.134" style="font-family:Monospace;" transform="translate(22.2827, 209.143)" >plot i(viout2) vs v(out2)</text>
<text fill="#222222"  xml:space="preserve" font-size="9.134" style="font-family:Monospace;" transform="translate(22.2827, 219.62)" >dc Vout3 0 1.5 10m</text>
<text fill="#222222"  xml:space="preserve" font-size="9.134" style="font-family:Monospace;" transform="translate(22.2827, 230.097)" >plot i(viout3) vs v(out3)</text>
<text fill="#222222"  xml:space="preserve" font-size="9.134" style="font-family:Monospace;" transform="translate(22.2827, 251.05)" >.endc</text>
<text fill="#222222"  xml:space="preserve" font-size="6.08934" transform="translate(247.705, 198.953)" >Vdd</text>
<text fill="#222222"  xml:space="preserve" font-size="6.08934" transform="translate(247.705, 213.591)" >1.5</text>
<text fill="#222222"  xml:space="preserve" font-size="12.1787" transform="translate(244.778, 417.463)" >         current_mirror_improved.sch</text>
<text fill="#222222"  xml:space="preserve" font-size="12.1787" transform="translate(244.778, 399.897)" >Copyright 2024 Harald Pretl</text>
<text fill="#222222"  xml:space="preserve" font-size="12.1787" transform="translate(568.405, 399.897)" >2024-08-27  18:49:49</text>
<text fill="#222222"  xml:space="preserve" font-size="30.4467" transform="translate(110.11, 416.485)" >SCHEM</text>
<text fill="#222222"  xml:space="preserve" font-size="6.08934" transform="translate(379.446, 220.512)" >M1</text>
<text fill="#ff0000"  xml:space="preserve" font-size="4.567" transform="translate(365.199, 193.064)" >D</text>
<text fill="#ff0000"  xml:space="preserve" font-size="4.567" transform="translate(366.199, 218.796)" >S</text>
<text fill="#ff0000"  xml:space="preserve" font-size="4.567" transform="translate(367.663, 209.166)" >B</text>
<text fill="#ff0000"  xml:space="preserve" font-size="4.567" transform="translate(388.228, 209.166)" >G</text>
<text fill="#222222"  xml:space="preserve" font-size="6.08934" transform="translate(320.808, 191.634)" >sg13_lv_nmos</text>
<text fill="#666600"  xml:space="preserve" font-size="6.08934" transform="translate(349.076, 218.317)" >m=1</text>
<text fill="#666600"  xml:space="preserve" font-size="6.08934" transform="translate(347.076, 213.925)" >ng=2</text>
<text fill="#666600"  xml:space="preserve" font-size="6.08934" transform="translate(349.076, 208.07)" >l=5u</text>
<text fill="#666600"  xml:space="preserve" font-size="6.08934" transform="translate(346.076, 202.215)" >w=4u</text>
<text fill="#222222"  xml:space="preserve" font-size="12.1787" transform="translate(312.112, 331.418)" >simulate</text>
<text fill="#222222"  xml:space="preserve" font-size="12.1787" transform="translate(452.635, 331.418)" >annotate OP</text>
<text fill="#222222"  xml:space="preserve" font-size="6.08934" transform="translate(382.373, 133.815)" >Ibias</text>
<text fill="#222222"  xml:space="preserve" font-size="6.08934" transform="translate(382.373, 140.799)" >20u</text>
<text fill="#222222"  xml:space="preserve" font-size="6.08934" transform="translate(475.838, 220.512)" >M2</text>
<text fill="#ff0000"  xml:space="preserve" font-size="4.567" transform="translate(495.085, 193.064)" >D</text>
<text fill="#ff0000"  xml:space="preserve" font-size="4.567" transform="translate(495.085, 218.796)" >S</text>
<text fill="#ff0000"  xml:space="preserve" font-size="4.567" transform="translate(493.621, 209.166)" >B</text>
<text fill="#ff0000"  xml:space="preserve" font-size="4.567" transform="translate(472.055, 209.166)" >G</text>
<text fill="#222222"  xml:space="preserve" font-size="6.08934" transform="translate(499.476, 191.634)" >sg13_lv_nmos</text>
<text fill="#666600"  xml:space="preserve" font-size="6.08934" transform="translate(500.208, 218.317)" >m=1</text>
<text fill="#666600"  xml:space="preserve" font-size="6.08934" transform="translate(500.208, 213.925)" >ng=1</text>
<text fill="#666600"  xml:space="preserve" font-size="6.08934" transform="translate(500.208, 208.07)" >l=5u</text>
<text fill="#666600"  xml:space="preserve" font-size="6.08934" transform="translate(500.208, 202.215)" >w=2u</text>
<text fill="#222222"  xml:space="preserve" font-size="6.08934" transform="translate(616.361, 220.512)" >M3</text>
<text fill="#ff0000"  xml:space="preserve" font-size="4.567" transform="translate(635.608, 193.064)" >D</text>
<text fill="#ff0000"  xml:space="preserve" font-size="4.567" transform="translate(635.608, 218.796)" >S</text>
<text fill="#ff0000"  xml:space="preserve" font-size="4.567" transform="translate(634.144, 209.166)" >B</text>
<text fill="#ff0000"  xml:space="preserve" font-size="4.567" transform="translate(612.578, 209.166)" >G</text>
<text fill="#222222"  xml:space="preserve" font-size="6.08934" transform="translate(639.999, 191.634)" >sg13_lv_nmos</text>
<text fill="#666600"  xml:space="preserve" font-size="6.08934" transform="translate(640.731, 218.317)" >m=1</text>
<text fill="#666600"  xml:space="preserve" font-size="6.08934" transform="translate(640.731, 213.925)" >ng=2</text>
<text fill="#666600"  xml:space="preserve" font-size="6.08934" transform="translate(640.731, 208.07)" >l=5u</text>
<text fill="#666600"  xml:space="preserve" font-size="6.08934" transform="translate(640.731, 202.215)" >w=4u</text>
<text fill="#222222"  xml:space="preserve" font-size="6.08934" transform="translate(768.595, 220.512)" >M4</text>
<text fill="#ff0000"  xml:space="preserve" font-size="4.567" transform="translate(787.841, 193.064)" >D</text>
<text fill="#ff0000"  xml:space="preserve" font-size="4.567" transform="translate(787.841, 218.796)" >S</text>
<text fill="#ff0000"  xml:space="preserve" font-size="4.567" transform="translate(786.377, 209.166)" >B</text>
<text fill="#ff0000"  xml:space="preserve" font-size="4.567" transform="translate(764.812, 209.166)" >G</text>
<text fill="#222222"  xml:space="preserve" font-size="6.08934" transform="translate(792.232, 191.634)" >sg13_lv_nmos</text>
<text fill="#666600"  xml:space="preserve" font-size="6.08934" transform="translate(792.964, 218.317)" >m=1</text>
<text fill="#666600"  xml:space="preserve" font-size="6.08934" transform="translate(792.964, 213.925)" >ng=4</text>
<text fill="#666600"  xml:space="preserve" font-size="6.08934" transform="translate(792.964, 208.07)" >l=5u</text>
<text fill="#666600"  xml:space="preserve" font-size="6.08934" transform="translate(792.964, 202.215)" >w=8u</text>
<text fill="#222222"  xml:space="preserve" font-size="6.08934" transform="translate(575.593, 210.663)" >Vout1</text>
<text fill="#222222"  xml:space="preserve" font-size="6.08934" transform="translate(575.593, 225.301)" >0.6</text>
<text fill="#222222"  xml:space="preserve" font-size="6.08934" transform="translate(716.116, 210.663)" >Vout2</text>
<text fill="#222222"  xml:space="preserve" font-size="6.08934" transform="translate(716.116, 225.301)" >0.6</text>
<text fill="#222222"  xml:space="preserve" font-size="6.08934" transform="translate(868.349, 210.663)" >Vout3</text>
<text fill="#222222"  xml:space="preserve" font-size="6.08934" transform="translate(868.349, 225.301)" >0.6</text>
<text fill="#222222"  xml:space="preserve" font-size="6.08934" transform="translate(502.403, 140.402)" >Viout1</text>
<text fill="#222222"  xml:space="preserve" font-size="6.08934" transform="translate(642.927, 140.402)" >Viout2</text>
<text fill="#222222"  xml:space="preserve" font-size="6.08934" transform="translate(795.16, 140.402)" >Viout3</text>
<path class="l4" d="M13.5 356.636L54.4859 356.636"/>
<path class="l4" d="M13.5 356.636L13.5 368.346"/>
<path class="l4" d="M13.5 93.1549L54.4859 93.1549"/>
<path class="l4" d="M13.5 93.1549L13.5 104.865"/>
<path class="l4" d="M237.459 191.228L240.386 191.228"/>
<path class="l4" d="M238.923 189.765L238.923 192.692"/>
<path class="l4" d="M235.995 186.837L235.995 221.968"/>
<circle class="l4" cx="235.995" cy="204.402" r="8.7827" style="fill:none;" />
<path class="l4" d="M235.995 257.099L235.995 264.418"/>
<path class="l4" d="M233.067 264.418L238.923 264.418"/>
<path class="l4" d="M235.995 267.345L238.923 264.418"/>
<path class="l4" d="M233.067 264.418L235.995 267.345"/>
<path class="l4" d="M377.982 191.228L377.982 217.576"/>
<path class="l4" d="M370.663 214.649L370.663 221.968"/>
<path class="l4" d="M370.663 186.837L370.663 194.156"/>
<path class="l4" d="M380.909 195.62L380.909 213.185"/>
<path class="l4" d="M370.663 194.156L377.982 194.156"/>
<path class="l4" d="M370.663 214.649L377.982 214.649"/>
<path class="l4" d="M381.202 204.402L394.084 204.402"/>
<path class="l4" d="M375.054 213.185L372.127 214.649L375.054 216.113L375.054 213.185"/>
<path class="l4" d="M306.257 327.36L288.691 320.041L288.691 324.433L271.126 324.433L276.981 327.36L271.126 330.288L288.691 330.288L288.691 334.679L306.257 327.36"/>
<path class="l4" d="M446.78 327.36L429.214 320.041L429.214 324.433L411.649 324.433L417.504 327.36L411.649 330.288L429.214 330.288L429.214 334.679L446.78 327.36"/>
<path class="l4" d="M370.663 116.575L370.663 125.358"/>
<path class="l4" d="M370.663 142.924L370.663 151.706"/>
<path class="l4" d="M372.127 120.967L375.054 120.967"/>
<path class="l4" d="M373.591 119.503L373.591 122.431"/>
<path class="l4" d="M370.663 129.749L370.663 135.605L372.127 135.605L370.663 139.996L369.199 135.605L370.663 135.605L370.663 129.749"/>
<circle class="l4" cx="370.663" cy="134.141" r="8.7827" style="fill:none;" />
<path class="l4" d="M486.302 191.228L486.302 217.576"/>
<path class="l4" d="M493.621 214.649L493.621 221.968"/>
<path class="l4" d="M493.621 186.837L493.621 194.156"/>
<path class="l4" d="M483.374 195.62L483.374 213.185"/>
<path class="l4" d="M486.302 194.156L493.621 194.156"/>
<path class="l4" d="M486.302 214.649L493.621 214.649"/>
<path class="l4" d="M470.2 204.402L483.081 204.402"/>
<path class="l4" d="M489.229 213.185L492.157 214.649L489.229 216.113L489.229 213.185"/>
<path class="l4" d="M626.825 191.228L626.825 217.576"/>
<path class="l4" d="M634.144 214.649L634.144 221.968"/>
<path class="l4" d="M634.144 186.837L634.144 194.156"/>
<path class="l4" d="M623.897 195.62L623.897 213.185"/>
<path class="l4" d="M626.825 194.156L634.144 194.156"/>
<path class="l4" d="M626.825 214.649L634.144 214.649"/>
<path class="l4" d="M610.723 204.402L623.605 204.402"/>
<path class="l4" d="M629.753 213.185L632.68 214.649L629.753 216.113L629.753 213.185"/>
<path class="l4" d="M779.058 191.228L779.058 217.576"/>
<path class="l4" d="M786.377 214.649L786.377 221.968"/>
<path class="l4" d="M786.377 186.837L786.377 194.156"/>
<path class="l4" d="M776.131 195.62L776.131 213.185"/>
<path class="l4" d="M779.058 194.156L786.377 194.156"/>
<path class="l4" d="M779.058 214.649L786.377 214.649"/>
<path class="l4" d="M762.957 204.402L775.838 204.402"/>
<path class="l4" d="M781.986 213.185L784.913 214.649L781.986 216.113L781.986 213.185"/>
<path class="l4" d="M565.346 202.939L568.274 202.939"/>
<path class="l4" d="M566.81 201.475L566.81 204.402"/>
<path class="l4" d="M563.882 198.547L563.882 233.678"/>
<circle class="l4" cx="563.882" cy="216.113" r="8.7827" style="fill:none;" />
<path class="l4" d="M705.869 202.939L708.797 202.939"/>
<path class="l4" d="M707.333 201.475L707.333 204.402"/>
<path class="l4" d="M704.405 198.547L704.405 233.678"/>
<circle class="l4" cx="704.405" cy="216.113" r="8.7827" style="fill:none;" />
<path class="l4" d="M858.103 202.939L861.03 202.939"/>
<path class="l4" d="M859.566 201.475L859.566 204.402"/>
<path class="l4" d="M856.639 198.547L856.639 233.678"/>
<circle class="l4" cx="856.639" cy="216.113" r="8.7827" style="fill:none;" />
<path class="l4" d="M493.621 128.286L493.621 163.416"/>
<path class="l4" d="M489.229 145.851L493.621 151.706"/>
<path class="l4" d="M493.621 151.706L498.012 145.851"/>
<path class="l4" d="M634.144 128.286L634.144 163.416"/>
<path class="l4" d="M629.753 145.851L634.144 151.706"/>
<path class="l4" d="M634.144 151.706L638.535 145.851"/>
<path class="l4" d="M786.377 128.286L786.377 163.416"/>
<path class="l4" d="M781.986 145.851L786.377 151.706"/>
<path class="l4" d="M786.377 151.706L790.769 145.851"/>
<path class="l5" d="M234.531 185.373L237.459 185.373L237.459 188.301L234.531 188.301L234.531 185.373z"/>
<path class="l5" d="M234.531 220.504L237.459 220.504L237.459 223.432L234.531 223.432L234.531 220.504z"/>
<path class="l5" d="M234.531 255.635L237.459 255.635L237.459 258.562L234.531 258.562L234.531 255.635z"/>
<path class="l5" d="M101.327 394.694L101.144 394.877L100.961 395.06L100.778 395.243L100.595 395.426L100.412 395.609L100.229 395.792L100.046 395.975L99.8632 396.158L99.6802 396.341L99.4972 396.524L99.3143 396.707L99.1313 396.89L98.9483 397.073L98.7653 397.256L98.5824 397.439L98.3994 397.622L98.2164 397.805L98.0335 397.988L97.8505 398.171L97.6675 398.354L97.4845 398.537L97.3016 398.72L97.1186 398.903L96.9356 399.086L96.7526 399.268L96.5697 399.451L96.3867 399.634L96.2037 399.817L96.0207 400L95.8378 400.183L95.6548 400.366L95.4718 400.549L95.4718 400.549L95.2946 400.732L95.1288 400.915L94.9744 401.098L94.8314 401.281L94.6999 401.464L94.5798 401.647L94.4712 401.83L94.374 402.013L94.2882 402.196L94.2139 402.379L94.151 402.562L94.0995 402.745L94.0595 402.928L94.0309 403.111L94.0138 403.294L94.008 403.477L94.0138 403.66L94.0309 403.843L94.0595 404.026L94.0995 404.209L94.151 404.392L94.2139 404.575L94.2882 404.758L94.374 404.941L94.4712 405.124L94.5798 405.307L94.6999 405.49L94.8314 405.673L94.9744 405.856L95.1288 406.038L95.2946 406.221L95.4718 406.404L95.4718 406.404L95.6555 406.588L95.8406 406.773L96.0272 406.96L96.2152 407.148L96.4046 407.337L96.5954 407.528L96.7877 407.72L96.9814 407.914L97.1765 408.109L97.373 408.306L97.571 408.504L97.7704 408.703L97.9713 408.904L98.1735 409.106L98.3772 409.31L98.5824 409.515L98.7889 409.722L98.9969 409.93L99.2063 410.139L99.4172 410.35L99.6295 410.562L99.8432 410.776L100.058 410.991L100.275 411.207L100.493 411.425L100.712 411.645L100.933 411.866L101.155 412.088L101.379 412.312L101.604 412.537L101.831 412.763L102.059 412.991L102.059 412.991L102.286 413.219L102.511 413.443L102.732 413.665L102.951 413.883L103.167 414.099L103.38 414.312L103.59 414.522L103.797 414.73L104.002 414.934L104.203 415.136L104.402 415.334L104.598 415.53L104.791 415.723L104.981 415.913L105.168 416.101L105.352 416.285L105.534 416.467L105.713 416.645L105.888 416.821L106.061 416.994L106.231 417.164L106.399 417.331L106.563 417.496L106.725 417.657L106.883 417.816L107.039 417.972L107.192 418.125L107.342 418.275L107.489 418.422L107.634 418.566L107.775 418.708L107.914 418.847L107.914 418.847L108.047 418.982L108.171 419.112L108.287 419.239L108.394 419.361L108.493 419.479L108.583 419.593L108.664 419.702L108.737 419.807L108.802 419.908L108.857 420.004L108.905 420.097L108.943 420.185L108.973 420.268L108.995 420.348L109.008 420.423L109.012 420.493L109.008 420.56L108.995 420.622L108.973 420.68L108.943 420.733L108.905 420.783L108.857 420.828L108.802 420.869L108.737 420.905L108.664 420.937L108.583 420.965L108.493 420.989L108.394 421.008L108.287 421.023L108.171 421.034L108.047 421.04L107.914 421.042L107.914 421.042L107.777 421.042L107.64 421.042L107.502 421.042L107.365 421.042L107.228 421.042L107.091 421.042L106.953 421.042L106.816 421.042L106.679 421.042L106.542 421.042L106.404 421.042L106.267 421.042L106.13 421.042L105.993 421.042L105.856 421.042L105.718 421.042L105.581 421.042L105.444 421.042L105.307 421.042L105.169 421.042L105.032 421.042L104.895 421.042L104.758 421.042L104.62 421.042L104.483 421.042L104.346 421.042L104.209 421.042L104.072 421.042L103.934 421.042L103.797 421.042L103.66 421.042L103.523 421.042L103.523 421.042L103.386 421.042L103.251 421.042L103.117 421.042L102.985 421.042L102.854 421.042L102.725 421.042L102.597 421.042L102.471 421.042L102.345 421.042L102.222 421.042L102.1 421.042L101.979 421.042L101.859 421.042L101.742 421.042L101.625 421.042L101.51 421.042L101.396 421.042L101.284 421.042L101.173 421.042L101.064 421.042L100.956 421.042L100.85 421.042L100.744 421.042L100.641 421.042L100.539 421.042L100.438 421.042L100.338 421.042L100.241 421.042L100.144 421.042L100.049 421.042L99.9554 421.042L99.8632 421.042L99.8632 421.042L99.7717 421.041L99.6802 421.037L99.5887 421.029L99.4972 421.019L99.4057 421.007L99.3143 420.991L99.2228 420.972L99.1313 420.951L99.0398 420.926L98.9483 420.899L98.8568 420.869L98.7653 420.836L98.6739 420.801L98.5824 420.762L98.4909 420.721L98.3994 420.676L98.3079 420.629L98.2164 420.579L98.1249 420.526L98.0335 420.47L97.942 420.412L97.8505 420.35L97.759 420.286L97.6675 420.219L97.576 420.149L97.4845 420.076L97.393 420L97.3016 419.922L97.2101 419.84L97.1186 419.756L97.0271 419.669L96.9356 419.578L96.9356 419.578L96.8441 419.487L96.7526 419.395L96.6612 419.304L96.5697 419.213L96.4782 419.121L96.3867 419.03L96.2952 418.938L96.2037 418.847L96.1122 418.755L96.0207 418.664L95.9293 418.572L95.8378 418.481L95.7463 418.389L95.6548 418.298L95.5633 418.206L95.4718 418.115L95.3803 418.023L95.2889 417.932L95.1974 417.84L95.1059 417.749L95.0144 417.657L94.9229 417.566L94.8314 417.474L94.7399 417.383L94.6485 417.291L94.557 417.2L94.4655 417.108L94.374 417.017L94.2825 416.925L94.191 416.834L94.0995 416.742L94.008 416.651L94.008 416.651L93.9151 416.558L93.8194 416.462L93.7207 416.364L93.6192 416.262L93.5149 416.158L93.4077 416.051L93.2976 415.94L93.1847 415.828L93.0689 415.712L92.9502 415.593L92.8287 415.472L92.7044 415.347L92.5771 415.22L92.4471 415.09L92.3141 414.957L92.1783 414.821L92.0397 414.683L91.8981 414.541L91.7538 414.397L91.6065 414.249L91.4564 414.099L91.3035 413.946L91.1477 413.791L90.989 413.632L90.8275 413.47L90.6631 413.306L90.4958 413.139L90.3257 412.969L90.1528 412.796L89.9769 412.62L89.7982 412.441L89.6167 412.26L89.6167 412.26L89.4337 412.082L89.2508 411.916L89.0678 411.762L88.8848 411.619L88.7018 411.488L88.5189 411.368L88.3359 411.259L88.1529 411.162L87.9699 411.076L87.787 411.002L87.604 410.939L87.421 410.887L87.2381 410.847L87.0551 410.819L86.8721 410.801L86.6891 410.796L86.5062 410.801L86.3232 410.819L86.1402 410.847L85.9572 410.887L85.7743 410.939L85.5913 411.002L85.4083 411.076L85.2254 411.162L85.0424 411.259L84.8594 411.368L84.6764 411.488L84.4935 411.619L84.3105 411.762L84.1275 411.916L83.9445 412.082L83.7616 412.26L83.7616 412.26L83.58 412.441L83.4013 412.62L83.2255 412.796L83.0525 412.969L82.8824 413.139L82.7152 413.306L82.5508 413.47L82.3893 413.632L82.2306 413.791L82.0748 413.946L81.9218 414.099L81.7717 414.249L81.6245 414.397L81.4801 414.541L81.3386 414.683L81.1999 414.821L81.0641 414.957L80.9312 415.09L80.8011 415.22L80.6739 415.347L80.5495 415.472L80.428 415.593L80.3094 415.712L80.1936 415.828L80.0807 415.94L79.9706 416.051L79.8634 416.158L79.759 416.262L79.6575 416.364L79.5589 416.462L79.4631 416.558L79.3702 416.651L79.3702 416.651L79.2787 416.742L79.1872 416.834L79.0958 416.925L79.0043 417.017L78.9128 417.108L78.8213 417.2L78.7298 417.291L78.6383 417.383L78.5468 417.474L78.4554 417.566L78.3639 417.657L78.2724 417.749L78.1809 417.84L78.0894 417.932L77.9979 418.023L77.9064 418.115L77.815 418.206L77.7235 418.298L77.632 418.389L77.5405 418.481L77.449 418.572L77.3575 418.664L77.266 418.755L77.1745 418.847L77.0831 418.938L76.9916 419.03L76.9001 419.121L76.8086 419.213L76.7171 419.304L76.6256 419.395L76.5341 419.487L76.4427 419.578L76.4427 419.578L76.3512 419.669L76.2597 419.756L76.1682 419.84L76.0767 419.922L75.9852 420L75.8937 420.076L75.8023 420.149L75.7108 420.219L75.6193 420.286L75.5278 420.35L75.4363 420.412L75.3448 420.47L75.2533 420.526L75.1618 420.579L75.0704 420.629L74.9789 420.676L74.8874 420.721L74.7959 420.762L74.7044 420.801L74.6129 420.836L74.5214 420.869L74.43 420.899L74.3385 420.926L74.247 420.951L74.1555 420.972L74.064 420.991L73.9725 421.007L73.881 421.019L73.7895 421.029L73.6981 421.037L73.6066 421.041L73.5151 421.042L73.5151 421.042L73.4229 421.042L73.3293 421.042L73.2342 421.042L73.1377 421.042L73.0398 421.042L72.9404 421.042L72.8397 421.042L72.7375 421.042L72.6338 421.042L72.5288 421.042L72.4223 421.042L72.3143 421.042L72.205 421.042L72.0942 421.042L71.982 421.042L71.8683 421.042L71.7533 421.042L71.6368 421.042L71.5188 421.042L71.3995 421.042L71.2787 421.042L71.1565 421.042L71.0328 421.042L70.9077 421.042L70.7812 421.042L70.6533 421.042L70.5239 421.042L70.3931 421.042L70.2609 421.042L70.1272 421.042L69.9921 421.042L69.8556 421.042L69.8556 421.042L69.7184 421.042L69.5812 421.042L69.4439 421.042L69.3067 421.042L69.1695 421.042L69.0323 421.042L68.895 421.042L68.7578 421.042L68.6206 421.042L68.4833 421.042L68.3461 421.042L68.2089 421.042L68.0716 421.042L67.9344 421.042L67.7972 421.042L67.66 421.042L67.5227 421.042L67.3855 421.042L67.2483 421.042L67.111 421.042L66.9738 421.042L66.8366 421.042L66.6994 421.042L66.5621 421.042L66.4249 421.042L66.2877 421.042L66.1504 421.042L66.0132 421.042L65.876 421.042L65.7387 421.042L65.6015 421.042L65.4643 421.042L65.4643 421.042L65.3313 421.04L65.207 421.034L65.0912 421.023L64.984 421.008L64.8853 420.989L64.7953 420.965L64.7138 420.937L64.6409 420.905L64.5766 420.869L64.5208 420.828L64.4737 420.783L64.4351 420.733L64.405 420.68L64.3836 420.622L64.3707 420.56L64.3664 420.493L64.3707 420.423L64.3836 420.348L64.405 420.268L64.4351 420.185L64.4737 420.097L64.5208 420.004L64.5766 419.908L64.6409 419.807L64.7138 419.702L64.7953 419.593L64.8853 419.479L64.984 419.361L65.0912 419.239L65.207 419.112L65.3313 418.982L65.4643 418.847L65.4643 418.847L65.6029 418.708L65.7445 418.566L65.8888 418.422L66.0361 418.275L66.1862 418.125L66.3391 417.972L66.4949 417.816L66.6536 417.657L66.8151 417.496L66.9795 417.331L67.1468 417.164L67.3169 416.994L67.4899 416.821L67.6657 416.645L67.8444 416.467L68.0259 416.285L68.2103 416.101L68.3976 415.913L68.5877 415.723L68.7807 415.53L68.9765 415.334L69.1752 415.136L69.3768 414.934L69.5812 414.73L69.7884 414.522L69.9986 414.312L70.2116 414.099L70.4274 413.883L70.6461 413.665L70.8677 413.443L71.0921 413.219L71.3194 412.991L71.3194 412.991L71.5474 412.763L71.774 412.537L71.9991 412.312L72.2228 412.088L72.4451 411.866L72.666 411.645L72.8854 411.425L73.1034 411.207L73.32 410.991L73.5351 410.776L73.7488 410.562L73.9611 410.35L74.1719 410.139L74.3814 409.93L74.5893 409.722L74.7959 409.515L75.001 409.31L75.2047 409.106L75.407 408.904L75.6078 408.703L75.8073 408.504L76.0052 408.306L76.2018 408.109L76.3969 407.914L76.5906 407.72L76.7829 407.528L76.9737 407.337L77.1631 407.148L77.3511 406.96L77.5376 406.773L77.7228 406.588L77.9064 406.404L77.9064 406.404L78.0837 406.221L78.2495 406.038L78.4039 405.856L78.5468 405.673L78.6784 405.49L78.7984 405.307L78.9071 405.124L79.0043 404.941L79.09 404.758L79.1644 404.575L79.2273 404.392L79.2787 404.209L79.3188 404.026L79.3473 403.843L79.3645 403.66L79.3702 403.477L79.3645 403.294L79.3473 403.111L79.3188 402.928L79.2787 402.745L79.2273 402.562L79.1644 402.379L79.09 402.196L79.0043 402.013L78.9071 401.83L78.7984 401.647L78.6784 401.464L78.5468 401.281L78.4039 401.098L78.2495 400.915L78.0837 400.732L77.9064 400.549L77.9064 400.549L77.7228 400.366L77.5376 400.18L77.3511 399.994L77.1631 399.806L76.9737 399.617L76.7829 399.426L76.5906 399.233L76.3969 399.04L76.2018 398.845L76.0052 398.648L75.8073 398.45L75.6078 398.251L75.407 398.05L75.2047 397.848L75.001 397.644L74.7959 397.439L74.5893 397.232L74.3814 397.024L74.1719 396.815L73.9611 396.604L73.7488 396.392L73.5351 396.178L73.32 395.963L73.1034 395.746L72.8854 395.528L72.666 395.309L72.4451 395.088L72.2228 394.866L71.9991 394.642L71.774 394.417L71.5474 394.19L71.3194 393.962L71.3194 393.962L71.0921 393.735L70.8677 393.511L70.6461 393.289L70.4274 393.07L70.2116 392.854L69.9986 392.641L69.7884 392.431L69.5812 392.224L69.3768 392.02L69.1752 391.818L68.9765 391.619L68.7807 391.424L68.5877 391.231L68.3976 391.04L68.2103 390.853L68.0259 390.669L67.8444 390.487L67.6657 390.309L67.4899 390.133L67.3169 389.96L67.1468 389.79L66.9795 389.622L66.8151 389.458L66.6536 389.296L66.4949 389.138L66.3391 388.982L66.1862 388.829L66.0361 388.679L65.8888 388.532L65.7445 388.387L65.6029 388.246L65.4643 388.107L65.4643 388.107L65.3313 387.972L65.207 387.841L65.0912 387.715L64.984 387.593L64.8853 387.475L64.7953 387.361L64.7138 387.252L64.6409 387.147L64.5766 387.046L64.5208 386.949L64.4737 386.857L64.4351 386.769L64.405 386.686L64.3836 386.606L64.3707 386.531L64.3664 386.46L64.3707 386.394L64.3836 386.332L64.405 386.274L64.4351 386.22L64.4737 386.171L64.5208 386.126L64.5766 386.085L64.6409 386.049L64.7138 386.017L64.7953 385.989L64.8853 385.965L64.984 385.946L65.0912 385.931L65.207 385.92L65.3313 385.914L65.4643 385.911L65.4643 385.911L65.6015 385.911L65.7387 385.911L65.876 385.911L66.0132 385.911L66.1504 385.911L66.2877 385.911L66.4249 385.911L66.5621 385.911L66.6994 385.911L66.8366 385.911L66.9738 385.911L67.111 385.911L67.2483 385.911L67.3855 385.911L67.5227 385.911L67.66 385.911L67.7972 385.911L67.9344 385.911L68.0716 385.911L68.2089 385.911L68.3461 385.911L68.4833 385.911L68.6206 385.911L68.7578 385.911L68.895 385.911L69.0323 385.911L69.1695 385.911L69.3067 385.911L69.4439 385.911L69.5812 385.911L69.7184 385.911L69.8556 385.911L69.8556 385.911L69.9921 385.911L70.1272 385.911L70.2609 385.911L70.3931 385.911L70.5239 385.911L70.6533 385.911L70.7812 385.911L70.9077 385.911L71.0328 385.911L71.1565 385.911L71.2787 385.911L71.3995 385.911L71.5188 385.911L71.6368 385.911L71.7533 385.911L71.8683 385.911L71.982 385.911L72.0942 385.911L72.205 385.911L72.3143 385.911L72.4223 385.911L72.5288 385.911L72.6338 385.911L72.7375 385.911L72.8397 385.911L72.9404 385.911L73.0398 385.911L73.1377 385.911L73.2342 385.911L73.3293 385.911L73.4229 385.911L73.5151 385.911L73.5151 385.911L73.6066 385.913L73.6981 385.917L73.7895 385.924L73.881 385.934L73.9725 385.947L74.064 385.963L74.1555 385.982L74.247 386.003L74.3385 386.027L74.43 386.054L74.5214 386.084L74.6129 386.117L74.7044 386.153L74.7959 386.192L74.8874 386.233L74.9789 386.277L75.0704 386.325L75.1618 386.375L75.2533 386.428L75.3448 386.483L75.4363 386.542L75.5278 386.603L75.6193 386.668L75.7108 386.735L75.8023 386.805L75.8937 386.878L75.9852 386.954L76.0767 387.032L76.1682 387.114L76.2597 387.198L76.3512 387.285L76.4427 387.375L76.4427 387.375L76.5341 387.467L76.6256 387.558L76.7171 387.65L76.8086 387.741L76.9001 387.833L76.9916 387.924L77.0831 388.016L77.1745 388.107L77.266 388.199L77.3575 388.29L77.449 388.382L77.5405 388.473L77.632 388.565L77.7235 388.656L77.815 388.748L77.9064 388.839L77.9979 388.931L78.0894 389.022L78.1809 389.113L78.2724 389.205L78.3639 389.296L78.4554 389.388L78.5468 389.479L78.6383 389.571L78.7298 389.662L78.8213 389.754L78.9128 389.845L79.0043 389.937L79.0958 390.028L79.1872 390.12L79.2787 390.211L79.3702 390.303L79.3702 390.303L79.4631 390.396L79.5589 390.492L79.6575 390.59L79.759 390.692L79.8634 390.796L79.9706 390.903L80.0807 391.013L80.1936 391.126L80.3094 391.242L80.428 391.361L80.5495 391.482L80.6739 391.606L80.8011 391.734L80.9312 391.864L81.0641 391.997L81.1999 392.133L81.3386 392.271L81.4801 392.413L81.6245 392.557L81.7717 392.704L81.9218 392.854L82.0748 393.007L82.2306 393.163L82.3893 393.322L82.5508 393.483L82.7152 393.648L82.8824 393.815L83.0525 393.985L83.2255 394.158L83.4013 394.334L83.58 394.513L83.7616 394.694L83.7616 394.694L83.9445 394.871L84.1275 395.037L84.3105 395.192L84.4935 395.335L84.6764 395.466L84.8594 395.586L85.0424 395.695L85.2254 395.792L85.4083 395.878L85.5913 395.952L85.7743 396.015L85.9572 396.066L86.1402 396.106L86.3232 396.135L86.5062 396.152L86.6891 396.158L86.8721 396.152L87.0551 396.135L87.2381 396.106L87.421 396.066L87.604 396.015L87.787 395.952L87.9699 395.878L88.1529 395.792L88.3359 395.695L88.5189 395.586L88.7018 395.466L88.8848 395.335L89.0678 395.192L89.2508 395.037L89.4337 394.871L89.6167 394.694L89.6167 394.694L89.7982 394.513L89.9769 394.334L90.1528 394.158L90.3257 393.985L90.4958 393.815L90.6631 393.648L90.8275 393.483L90.989 393.322L91.1477 393.163L91.3035 393.007L91.4564 392.854L91.6065 392.704L91.7538 392.557L91.8981 392.413L92.0397 392.271L92.1783 392.133L92.3141 391.997L92.4471 391.864L92.5771 391.734L92.7044 391.606L92.8287 391.482L92.9502 391.361L93.0689 391.242L93.1847 391.126L93.2976 391.013L93.4077 390.903L93.5149 390.796L93.6192 390.692L93.7207 390.59L93.8194 390.492L93.9151 390.396L94.008 390.303L94.008 390.303L94.0995 390.211L94.191 390.12L94.2825 390.028L94.374 389.937L94.4655 389.845L94.557 389.754L94.6485 389.662L94.7399 389.571L94.8314 389.479L94.9229 389.388L95.0144 389.296L95.1059 389.205L95.1974 389.113L95.2889 389.022L95.3803 388.931L95.4718 388.839L95.5633 388.748L95.6548 388.656L95.7463 388.565L95.8378 388.473L95.9293 388.382L96.0207 388.29L96.1122 388.199L96.2037 388.107L96.2952 388.016L96.3867 387.924L96.4782 387.833L96.5697 387.741L96.6612 387.65L96.7526 387.558L96.8441 387.467L96.9356 387.375L96.9356 387.375L97.0271 387.285L97.1186 387.198L97.2101 387.114L97.3016 387.032L97.393 386.954L97.4845 386.878L97.576 386.805L97.6675 386.735L97.759 386.668L97.8505 386.603L97.942 386.542L98.0335 386.483L98.1249 386.428L98.2164 386.375L98.3079 386.325L98.3994 386.277L98.4909 386.233L98.5824 386.192L98.6739 386.153L98.7653 386.117L98.8568 386.084L98.9483 386.054L99.0398 386.027L99.1313 386.003L99.2228 385.982L99.3143 385.963L99.4057 385.947L99.4972 385.934L99.5887 385.924L99.6802 385.917L99.7717 385.913L99.8632 385.911L99.8632 385.911L99.9554 385.911L100.049 385.911L100.144 385.911L100.241 385.911L100.338 385.911L100.438 385.911L100.539 385.911L100.641 385.911L100.744 385.911L100.85 385.911L100.956 385.911L101.064 385.911L101.173 385.911L101.284 385.911L101.396 385.911L101.51 385.911L101.625 385.911L101.742 385.911L101.859 385.911L101.979 385.911L102.1 385.911L102.222 385.911L102.345 385.911L102.471 385.911L102.597 385.911L102.725 385.911L102.854 385.911L102.985 385.911L103.117 385.911L103.251 385.911L103.386 385.911L103.523 385.911L103.523 385.911L103.66 385.911L103.797 385.911L103.934 385.911L104.072 385.911L104.209 385.911L104.346 385.911L104.483 385.911L104.62 385.911L104.758 385.911L104.895 385.911L105.032 385.911L105.169 385.911L105.307 385.911L105.444 385.911L105.581 385.911L105.718 385.911L105.856 385.911L105.993 385.911L106.13 385.911L106.267 385.911L106.404 385.911L106.542 385.911L106.679 385.911L106.816 385.911L106.953 385.911L107.091 385.911L107.228 385.911L107.365 385.911L107.502 385.911L107.64 385.911L107.777 385.911L107.914 385.911L107.914 385.911L108.047 385.914L108.171 385.92L108.287 385.931L108.394 385.946L108.493 385.965L108.583 385.989L108.664 386.017L108.737 386.049L108.802 386.085L108.857 386.126L108.905 386.171L108.943 386.22L108.973 386.274L108.995 386.332L109.008 386.394L109.012 386.46L109.008 386.531L108.995 386.606L108.973 386.686L108.943 386.769L108.905 386.857L108.857 386.949L108.802 387.046L108.737 387.147L108.664 387.252L108.583 387.361L108.493 387.475L108.394 387.593L108.287 387.715L108.171 387.841L108.047 387.972L107.914 388.107L107.914 388.107L107.775 388.247L107.631 388.39L107.483 388.538L107.331 388.69L107.174 388.847L107.013 389.008L106.848 389.173L106.679 389.342L106.505 389.516L106.327 389.694L106.145 389.876L105.958 390.063L105.768 390.254L105.573 390.449L105.373 390.648L105.169 390.852L104.961 391.06L104.749 391.272L104.533 391.489L104.312 391.709L104.087 391.935L103.857 392.164L103.623 392.398L103.385 392.636L103.143 392.878L102.897 393.125L102.646 393.375L102.39 393.631L102.131 393.89L101.867 394.154L101.599 394.422L101.327 394.694"/>
<path class="l5" d="M373.591 205.866L370.663 204.402L373.591 202.939L373.591 205.866"/>
<path class="l5" d="M369.199 185.373L372.127 185.373L372.127 188.301L369.199 188.301L369.199 185.373z"/>
<path class="l5" d="M392.62 202.939L395.547 202.939L395.547 205.866L392.62 205.866L392.62 202.939z"/>
<path class="l5" d="M369.199 220.504L372.127 220.504L372.127 223.432L369.199 223.432L369.199 220.504z"/>
<path class="l5" d="M370.617 204.357L370.709 204.357L370.709 204.448L370.617 204.448L370.617 204.357z"/>
<path class="l5" d="M369.199 115.112L372.127 115.112L372.127 118.039L369.199 118.039L369.199 115.112z"/>
<path class="l5" d="M369.199 150.242L372.127 150.242L372.127 153.17L369.199 153.17L369.199 150.242z"/>
<path class="l5" d="M410.917 203.671L412.381 203.671L412.381 205.134L410.917 205.134L410.917 203.671z"/>
<path class="l5" d="M235.263 104.133L236.727 104.133L236.727 105.597L235.263 105.597L235.263 104.133z"/>
<path class="l5" d="M490.693 205.866L493.621 204.402L490.693 202.939L490.693 205.866"/>
<path class="l5" d="M492.157 185.373L495.085 185.373L495.085 188.301L492.157 188.301L492.157 185.373z"/>
<path class="l5" d="M468.736 202.939L471.664 202.939L471.664 205.866L468.736 205.866L468.736 202.939z"/>
<path class="l5" d="M492.157 220.504L495.085 220.504L495.085 223.432L492.157 223.432L492.157 220.504z"/>
<path class="l5" d="M493.575 204.357L493.666 204.357L493.666 204.448L493.575 204.448L493.575 204.357z"/>
<path class="l5" d="M631.216 205.866L634.144 204.402L631.216 202.939L631.216 205.866"/>
<path class="l5" d="M632.68 185.373L635.608 185.373L635.608 188.301L632.68 188.301L632.68 185.373z"/>
<path class="l5" d="M609.26 202.939L612.187 202.939L612.187 205.866L609.26 205.866L609.26 202.939z"/>
<path class="l5" d="M632.68 220.504L635.608 220.504L635.608 223.432L632.68 223.432L632.68 220.504z"/>
<path class="l5" d="M634.098 204.357L634.19 204.357L634.19 204.448L634.098 204.448L634.098 204.357z"/>
<path class="l5" d="M783.45 205.866L786.377 204.402L783.45 202.939L783.45 205.866"/>
<path class="l5" d="M784.913 185.373L787.841 185.373L787.841 188.301L784.913 188.301L784.913 185.373z"/>
<path class="l5" d="M761.493 202.939L764.421 202.939L764.421 205.866L761.493 205.866L761.493 202.939z"/>
<path class="l5" d="M784.913 220.504L787.841 220.504L787.841 223.432L784.913 223.432L784.913 220.504z"/>
<path class="l5" d="M786.332 204.357L786.423 204.357L786.423 204.448L786.332 204.448L786.332 204.357z"/>
<path class="l5" d="M562.419 197.084L565.346 197.084L565.346 200.011L562.419 200.011L562.419 197.084z"/>
<path class="l5" d="M562.419 232.214L565.346 232.214L565.346 235.142L562.419 235.142L562.419 232.214z"/>
<path class="l5" d="M702.942 197.084L705.869 197.084L705.869 200.011L702.942 200.011L702.942 197.084z"/>
<path class="l5" d="M702.942 232.214L705.869 232.214L705.869 235.142L702.942 235.142L702.942 232.214z"/>
<path class="l5" d="M855.175 197.084L858.103 197.084L858.103 200.011L855.175 200.011L855.175 197.084z"/>
<path class="l5" d="M855.175 232.214L858.103 232.214L858.103 235.142L855.175 235.142L855.175 232.214z"/>
<path class="l5" d="M493.346 116.301L493.895 116.301L493.895 116.85L493.346 116.85L493.346 116.301z"/>
<path class="l5" d="M633.869 116.301L634.418 116.301L634.418 116.85L633.869 116.85L633.869 116.301z"/>
<path class="l5" d="M786.103 116.301L786.652 116.301L786.652 116.85L786.103 116.85L786.103 116.301z"/>
<path class="l5" d="M423.085 174.852L423.634 174.852L423.634 175.401L423.085 175.401L423.085 174.852z"/>
<path class="l5" d="M563.15 115.844L564.614 115.844L564.614 117.307L563.15 117.307L563.15 115.844z"/>
<path class="l5" d="M703.674 115.844L705.137 115.844L705.137 117.307L703.674 117.307L703.674 115.844z"/>
<path class="l5" d="M855.907 115.844L857.371 115.844L857.371 117.307L855.907 117.307L855.907 115.844z"/>
<path class="l5" d="M492.157 126.822L495.085 126.822L495.085 129.749L492.157 129.749L492.157 126.822z"/>
<path class="l5" d="M492.157 161.953L495.085 161.953L495.085 164.88L492.157 164.88L492.157 161.953z"/>
<path class="l5" d="M632.68 126.822L635.608 126.822L635.608 129.749L632.68 129.749L632.68 126.822z"/>
<path class="l5" d="M632.68 161.953L635.608 161.953L635.608 164.88L632.68 164.88L632.68 161.953z"/>
<path class="l5" d="M784.913 126.822L787.841 126.822L787.841 129.749L784.913 129.749L784.913 126.822z"/>
<path class="l5" d="M784.913 161.953L787.841 161.953L787.841 164.88L784.913 164.88L784.913 161.953z"/>
<path class="l6" d="M238.923 403.477L704.405 403.477"/>
<path class="l6" d="M13.5 403.477L51.5584 403.477"/>
<path class="l15" d="M495.816 111.452L499.476 107.061"/>
<path class="l15" d="M493.621 116.575L495.816 111.452"/>
<path class="l15" d="M499.476 100.474L499.476 108.525"/>
<path class="l15" d="M498.012 107.061L510.454 107.061"/>
<path class="l15" d="M500.94 104.865L503.867 104.865"/>
<path class="l15" d="M503.867 102.67L503.867 104.865"/>
<path class="l15" d="M503.867 102.67L506.063 102.67"/>
<path class="l15" d="M506.063 102.67L506.063 104.865"/>
<path class="l15" d="M506.063 104.865L508.259 104.865"/>
<path class="l15" d="M508.259 102.67L508.259 104.865"/>
<path class="l15" d="M508.259 102.67L509.905 102.67"/>
<path class="l15" d="M636.34 111.452L639.999 107.061"/>
<path class="l15" d="M634.144 116.575L636.34 111.452"/>
<path class="l15" d="M639.999 100.474L639.999 108.525"/>
<path class="l15" d="M638.535 107.061L650.977 107.061"/>
<path class="l15" d="M641.463 104.865L644.39 104.865"/>
<path class="l15" d="M644.39 102.67L644.39 104.865"/>
<path class="l15" d="M644.39 102.67L646.586 102.67"/>
<path class="l15" d="M646.586 102.67L646.586 104.865"/>
<path class="l15" d="M646.586 104.865L648.782 104.865"/>
<path class="l15" d="M648.782 102.67L648.782 104.865"/>
<path class="l15" d="M648.782 102.67L650.428 102.67"/>
<path class="l15" d="M788.573 111.452L792.232 107.061"/>
<path class="l15" d="M786.377 116.575L788.573 111.452"/>
<path class="l15" d="M792.232 100.474L792.232 108.525"/>
<path class="l15" d="M790.769 107.061L803.211 107.061"/>
<path class="l15" d="M793.696 104.865L796.624 104.865"/>
<path class="l15" d="M796.624 102.67L796.624 104.865"/>
<path class="l15" d="M796.624 102.67L798.819 102.67"/>
<path class="l15" d="M798.819 102.67L798.819 104.865"/>
<path class="l15" d="M798.819 104.865L801.015 104.865"/>
<path class="l15" d="M801.015 102.67L801.015 104.865"/>
<path class="l15" d="M801.015 102.67L802.662 102.67"/>
<path class="l15" d="M425.555 170.004L429.214 165.612"/>
<path class="l15" d="M423.359 175.127L425.555 170.004"/>
<path class="l15" d="M429.214 159.025L429.214 167.076"/>
<path class="l15" d="M427.751 165.612L440.193 165.612"/>
<path class="l15" d="M430.678 163.416L433.606 163.416"/>
<path class="l15" d="M433.606 161.221L433.606 163.416"/>
<path class="l15" d="M433.606 161.221L435.801 161.221"/>
<path class="l15" d="M435.801 161.221L435.801 163.416"/>
<path class="l15" d="M435.801 163.416L437.997 163.416"/>
<path class="l15" d="M437.997 161.221L437.997 163.416"/>
<path class="l15" d="M437.997 161.221L439.644 161.221"/>
<path class="l1" d="M235.995 245.388L235.995 257.099"/>
<path class="l1" d="M329.677 204.402L370.663 204.402"/>
<path class="l1" d="M235.995 104.865L235.995 186.837"/>
<path class="l1" d="M235.995 104.865L370.663 104.865"/>
<path class="l1" d="M370.663 175.127L370.663 186.837"/>
<path class="l1" d="M394.084 204.402L411.649 204.402"/>
<path class="l1" d="M411.649 175.127L411.649 204.402"/>
<path class="l1" d="M370.663 175.127L411.649 175.127"/>
<path class="l1" d="M370.663 104.865L370.663 116.575"/>
<path class="l1" d="M370.663 151.706L370.663 175.127"/>
<path class="l1" d="M493.621 204.402L534.607 204.402"/>
<path class="l1" d="M634.144 204.402L675.13 204.402"/>
<path class="l1" d="M786.377 204.402L827.363 204.402"/>
<path class="l1" d="M751.246 204.402L762.957 204.402"/>
<path class="l1" d="M599.013 204.402L610.723 204.402"/>
<path class="l1" d="M458.49 204.402L470.2 204.402"/>
<path class="l1" d="M458.49 175.127L458.49 204.402"/>
<path class="l1" d="M235.995 245.388L329.677 245.388"/>
<path class="l1" d="M235.995 221.968L235.995 245.388"/>
<path class="l1" d="M329.677 204.402L329.677 245.388"/>
<path class="l1" d="M329.677 245.388L370.663 245.388"/>
<path class="l1" d="M370.663 221.968L370.663 245.388"/>
<path class="l1" d="M370.663 245.388L493.621 245.388"/>
<path class="l1" d="M493.621 221.968L493.621 245.388"/>
<path class="l1" d="M493.621 245.388L534.607 245.388"/>
<path class="l1" d="M534.607 204.402L534.607 245.388"/>
<path class="l1" d="M634.144 221.968L634.144 245.388"/>
<path class="l1" d="M563.882 245.388L634.144 245.388"/>
<path class="l1" d="M563.882 233.678L563.882 245.388"/>
<path class="l1" d="M534.607 245.388L563.882 245.388"/>
<path class="l1" d="M634.144 245.388L675.13 245.388"/>
<path class="l1" d="M675.13 204.402L675.13 245.388"/>
<path class="l1" d="M704.405 245.388L786.377 245.388"/>
<path class="l1" d="M786.377 221.968L786.377 245.388"/>
<path class="l1" d="M786.377 245.388L827.363 245.388"/>
<path class="l1" d="M827.363 204.402L827.363 245.388"/>
<path class="l1" d="M751.246 175.127L751.246 204.402"/>
<path class="l1" d="M411.649 175.127L458.49 175.127"/>
<path class="l1" d="M599.013 175.127L599.013 204.402"/>
<path class="l1" d="M458.49 175.127L599.013 175.127"/>
<path class="l1" d="M493.621 116.575L563.882 116.575"/>
<path class="l1" d="M563.882 116.575L563.882 198.547"/>
<path class="l1" d="M704.405 233.678L704.405 245.388"/>
<path class="l1" d="M675.13 245.388L704.405 245.388"/>
<path class="l1" d="M704.405 116.575L704.405 204.402"/>
<path class="l1" d="M634.144 116.575L704.405 116.575"/>
<path class="l1" d="M599.013 175.127L751.246 175.127"/>
<path class="l1" d="M786.377 116.575L856.639 116.575"/>
<path class="l1" d="M856.639 116.575L856.639 198.547"/>
<path class="l1" d="M856.639 233.678L856.639 245.388"/>
<path class="l1" d="M827.363 245.388L856.639 245.388"/>
<path class="l1" d="M493.621 163.416L493.621 186.837"/>
<path class="l1" d="M493.621 116.575L493.621 128.286"/>
<path class="l1" d="M634.144 163.416L634.144 186.837"/>
<path class="l1" d="M634.144 116.575L634.144 128.286"/>
<path class="l1" d="M786.377 163.416L786.377 186.837"/>
<path class="l1" d="M786.377 116.575L786.377 128.286"/>
<circle class="l1" cx="235.995" cy="245.388" r="2.1664"/>
<circle class="l1" cx="235.995" cy="245.388" r="2.1664"/>
<circle class="l1" cx="329.677" cy="245.388" r="2.1664"/>
<circle class="l1" cx="235.995" cy="245.388" r="2.1664"/>
<circle class="l1" cx="458.49" cy="175.127" r="2.1664"/>
<circle class="l1" cx="599.013" cy="175.127" r="2.1664"/>
<circle class="l1" cx="411.649" cy="175.127" r="2.1664"/>
<circle class="l1" cx="458.49" cy="175.127" r="2.1664"/>
<circle class="l1" cx="458.49" cy="175.127" r="2.1664"/>
<circle class="l1" cx="370.663" cy="175.127" r="2.1664"/>
<circle class="l1" cx="370.663" cy="175.127" r="2.1664"/>
<circle class="l1" cx="411.649" cy="175.127" r="2.1664"/>
<circle class="l1" cx="411.649" cy="175.127" r="2.1664"/>
<circle class="l1" cx="370.663" cy="175.127" r="2.1664"/>
<circle class="l1" cx="370.663" cy="245.388" r="2.1664"/>
<circle class="l1" cx="493.621" cy="245.388" r="2.1664"/>
<circle class="l1" cx="370.663" cy="245.388" r="2.1664"/>
<circle class="l1" cx="329.677" cy="245.388" r="2.1664"/>
<circle class="l1" cx="370.663" cy="245.388" r="2.1664"/>
<circle class="l1" cx="329.677" cy="245.388" r="2.1664"/>
<circle class="l1" cx="599.013" cy="175.127" r="2.1664"/>
<circle class="l1" cx="599.013" cy="175.127" r="2.1664"/>
<circle class="l1" cx="675.13" cy="245.388" r="2.1664"/>
<circle class="l1" cx="704.405" cy="245.388" r="2.1664"/>
<circle class="l1" cx="704.405" cy="245.388" r="2.1664"/>
<circle class="l1" cx="704.405" cy="245.388" r="2.1664"/>
<circle class="l1" cx="786.377" cy="245.388" r="2.1664"/>
<circle class="l1" cx="675.13" cy="245.388" r="2.1664"/>
<circle class="l1" cx="634.144" cy="245.388" r="2.1664"/>
<circle class="l1" cx="675.13" cy="245.388" r="2.1664"/>
<circle class="l1" cx="534.607" cy="245.388" r="2.1664"/>
<circle class="l1" cx="563.882" cy="245.388" r="2.1664"/>
<circle class="l1" cx="563.882" cy="245.388" r="2.1664"/>
<circle class="l1" cx="563.882" cy="245.388" r="2.1664"/>
<circle class="l1" cx="634.144" cy="245.388" r="2.1664"/>
<circle class="l1" cx="634.144" cy="245.388" r="2.1664"/>
<circle class="l1" cx="534.607" cy="245.388" r="2.1664"/>
<circle class="l1" cx="493.621" cy="245.388" r="2.1664"/>
<circle class="l1" cx="534.607" cy="245.388" r="2.1664"/>
<circle class="l1" cx="493.621" cy="245.388" r="2.1664"/>
<circle class="l1" cx="827.363" cy="245.388" r="2.1664"/>
<circle class="l1" cx="827.363" cy="245.388" r="2.1664"/>
<circle class="l1" cx="786.377" cy="245.388" r="2.1664"/>
<circle class="l1" cx="827.363" cy="245.388" r="2.1664"/>
<circle class="l1" cx="786.377" cy="245.388" r="2.1664"/>
</svg>
