<svg xmlns="http://www.w3.org/2000/svg" xmlns:xlink="http://www.w3.org/1999/xlink" width="1067" height="667" version="1.1">
<style type="text/css">
.l0{
  fill: #ffffff;
  stroke: #ffffff;
  stroke-linecap:round;
  stroke-linejoin:round;
  stroke-width: 0.743211;
}
.l1{
  fill: #0099cc;
  stroke: #0099cc;
  stroke-linecap:round;
  stroke-linejoin:round;
  stroke-width: 0.743211;
}
.l2{
  fill: #aaaaaa; fill-opacity: 0.2;
  stroke: #aaaaaa;
  stroke-linecap:round;
  stroke-linejoin:round;
  stroke-width: 0.743211;
}
.l3{
  fill: #222222; fill-opacity: 0.5;
  stroke: #222222;
  stroke-linecap:round;
  stroke-linejoin:round;
  stroke-width: 0.743211;
}
.l4{
  fill: #229900;
  stroke: #229900;
  stroke-linecap:round;
  stroke-linejoin:round;
  stroke-width: 0.743211;
}
.l5{
  fill: #bb2200;
  stroke: #bb2200;
  stroke-linecap:round;
  stroke-linejoin:round;
  stroke-width: 0.743211;
}
.l6{
  fill: #0066cc; fill-opacity: 0.5;
  stroke: #0066cc;
  stroke-linecap:round;
  stroke-linejoin:round;
  stroke-width: 0.743211;
}
.l7{
  fill: #ff0000; fill-opacity: 0.5;
  stroke: #ff0000;
  stroke-linecap:round;
  stroke-linejoin:round;
  stroke-width: 0.743211;
}
.l8{
  fill: #888800; fill-opacity: 0.5;
  stroke: #888800;
  stroke-linecap:round;
  stroke-linejoin:round;
  stroke-width: 0.743211;
}
.l9{
  fill: #00aaaa; fill-opacity: 0.5;
  stroke: #00aaaa;
  stroke-linecap:round;
  stroke-linejoin:round;
  stroke-width: 0.743211;
}
.l10{
  fill: #880088;
  stroke: #880088;
  stroke-linecap:round;
  stroke-linejoin:round;
  stroke-width: 0.743211;
}
.l11{
  fill: #00ff00; fill-opacity: 0.5;
  stroke: #00ff00;
  stroke-linecap:round;
  stroke-linejoin:round;
  stroke-width: 0.743211;
}
.l12{
  fill: #0000cc; fill-opacity: 0.5;
  stroke: #0000cc;
  stroke-linecap:round;
  stroke-linejoin:round;
  stroke-width: 0.743211;
}
.l13{
  fill: #666600; fill-opacity: 0.5;
  stroke: #666600;
  stroke-linecap:round;
  stroke-linejoin:round;
  stroke-width: 0.743211;
}
.l14{
  fill: #557755; fill-opacity: 0.2;
  stroke: #557755;
  stroke-linecap:round;
  stroke-linejoin:round;
  stroke-width: 0.743211;
}
.l15{
  fill: #aa2222; fill-opacity: 0.5;
  stroke: #aa2222;
  stroke-linecap:round;
  stroke-linejoin:round;
  stroke-width: 0.743211;
}
.l16{
  fill: #7ccc40; fill-opacity: 0.5;
  stroke: #7ccc40;
  stroke-linecap:round;
  stroke-linejoin:round;
  stroke-width: 0.743211;
}
.l17{
  fill: #00ffcc; fill-opacity: 0.2;
  stroke: #00ffcc;
  stroke-linecap:round;
  stroke-linejoin:round;
  stroke-width: 0.743211;
}
.l18{
  fill: #ce0097; fill-opacity: 0.5;
  stroke: #ce0097;
  stroke-linecap:round;
  stroke-linejoin:round;
  stroke-width: 0.743211;
}
.l19{
  fill: #d2d46b; fill-opacity: 0.2;
  stroke: #d2d46b;
  stroke-linecap:round;
  stroke-linejoin:round;
  stroke-width: 0.743211;
}
.l20{
  fill: #ef6158; fill-opacity: 0.2;
  stroke: #ef6158;
  stroke-linecap:round;
  stroke-linejoin:round;
  stroke-width: 0.743211;
}
.l21{
  fill: #fdb200; fill-opacity: 0.2;
  stroke: #fdb200;
  stroke-linecap:round;
  stroke-linejoin:round;
  stroke-width: 0.743211;
}
text {font-family: Sans-Serif;}
</style>
<rect class="l0" x="0" y="0" width="1067" height="667"/>
<path class="l4" stroke-dasharray="3.08295,3.08295" style="fill:none;" d="M456.426 386.901L1050.99 386.901L1050.99 574.08L456.426 574.08L456.426 386.901"/>
<path class="l4" stroke-dasharray="3.08295,3.08295" style="fill:none;" d="M456.426 133.659L1050.99 133.659L1050.99 320.838L456.426 320.838L456.426 133.659"/>
<path class="l4" d="M49.0366 552.059L87.5735 552.059"/>
<path class="l4" d="M49.0366 552.059L49.0366 563.07"/>
<path class="l4" d="M49.0366 34.5641L87.5735 34.5641"/>
<path class="l4" d="M49.0366 34.5641L49.0366 45.5746"/>
<path class="l4" d="M698.658 552.059L698.658 558.941"/>
<path class="l4" d="M695.905 558.941L701.411 558.941"/>
<path class="l4" d="M698.658 561.693L701.411 558.941"/>
<path class="l4" d="M695.905 558.941L698.658 561.693"/>
<path class="l4" d="M501.845 490.125L504.597 490.125"/>
<path class="l4" d="M503.221 488.749L503.221 491.501"/>
<path class="l4" d="M500.468 485.996L500.468 519.027"/>
<circle class="l4" cx="500.468" cy="502.512" r="8.2579" style="fill:none;" />
<path class="l4" d="M500.468 552.059L500.468 558.941"/>
<path class="l4" d="M497.716 558.941L503.221 558.941"/>
<path class="l4" d="M500.468 561.693L503.221 558.941"/>
<path class="l4" d="M497.716 558.941L500.468 561.693"/>
<path class="l4" d="M737.195 552.059L737.195 558.941"/>
<path class="l4" d="M734.442 558.941L739.947 558.941"/>
<path class="l4" d="M737.195 561.693L739.947 558.941"/>
<path class="l4" d="M734.442 558.941L737.195 561.693"/>
<path class="l4" d="M691.776 490.125L691.776 514.899"/>
<path class="l4" d="M698.658 485.996L698.658 492.877"/>
<path class="l4" d="M698.658 512.146L698.658 519.027"/>
<path class="l4" d="M689.024 494.254L689.024 510.77"/>
<path class="l4" d="M691.776 512.146L698.658 512.146"/>
<path class="l4" d="M691.776 492.877L698.658 492.877"/>
<path class="l4" d="M676.637 502.512L688.748 502.512"/>
<path class="l4" d="M695.905 513.522L698.658 512.146L695.905 510.77L695.905 513.522"/>
<path class="l4" d="M698.658 430.943L698.658 439.201"/>
<path class="l4" d="M698.658 455.717L698.658 463.975"/>
<path class="l4" d="M700.034 435.072L702.787 435.072"/>
<path class="l4" d="M701.411 433.696L701.411 436.448"/>
<path class="l4" d="M698.658 443.33L698.658 448.835L700.034 448.835L698.658 452.964L697.282 448.835L698.658 448.835L698.658 443.33"/>
<circle class="l4" cx="698.658" cy="447.459" r="8.2579" style="fill:none;" />
<path class="l4" d="M625.713 470.856L625.713 473.609"/>
<path class="l4" d="M624.337 472.233L627.09 472.233"/>
<path class="l4" d="M621.584 474.985L654.616 474.985"/>
<circle class="l4" cx="638.1" cy="474.985" r="8.2579" style="fill:none;" />
<path class="l4" d="M973.921 552.059L973.921 558.941"/>
<path class="l4" d="M971.169 558.941L976.674 558.941"/>
<path class="l4" d="M973.921 561.693L976.674 558.941"/>
<path class="l4" d="M971.169 558.941L973.921 561.693"/>
<path class="l4" d="M1012.46 552.059L1012.46 558.941"/>
<path class="l4" d="M1009.71 558.941L1015.21 558.941"/>
<path class="l4" d="M1012.46 561.693L1015.21 558.941"/>
<path class="l4" d="M1009.71 558.941L1012.46 561.693"/>
<path class="l4" d="M967.04 490.125L967.04 514.899"/>
<path class="l4" d="M973.921 485.996L973.921 492.877"/>
<path class="l4" d="M973.921 512.146L973.921 519.027"/>
<path class="l4" d="M964.287 494.254L964.287 510.77"/>
<path class="l4" d="M967.04 512.146L973.921 512.146"/>
<path class="l4" d="M967.04 492.877L973.921 492.877"/>
<path class="l4" d="M951.9 502.512L964.012 502.512"/>
<path class="l4" d="M971.169 513.522L973.921 512.146L971.169 510.77L971.169 513.522"/>
<path class="l4" d="M973.921 430.943L973.921 439.201"/>
<path class="l4" d="M973.921 455.717L973.921 463.975"/>
<path class="l4" d="M975.298 435.072L978.05 435.072"/>
<path class="l4" d="M976.674 433.696L976.674 436.448"/>
<path class="l4" d="M973.921 443.33L973.921 448.835L975.298 448.835L973.921 452.964L972.545 448.835L973.921 448.835L973.921 443.33"/>
<circle class="l4" cx="973.921" cy="447.459" r="8.2579" style="fill:none;" />
<path class="l4" d="M918.869 474.985L951.9 474.985"/>
<path class="l4" d="M929.879 474.985L935.384 470.856"/>
<path class="l4" d="M929.879 474.985L935.384 479.114"/>
<path class="l4" d="M863.816 474.985L896.848 474.985"/>
<path class="l4" d="M874.826 474.985L880.332 470.856"/>
<path class="l4" d="M874.826 474.985L880.332 479.114"/>
<path class="l4" d="M907.858 543.801L907.858 552.059"/>
<path class="l4" d="M907.858 519.027L907.858 527.285"/>
<path class="l4" d="M903.729 547.93L906.482 547.93"/>
<path class="l4" d="M905.105 546.554L905.105 549.306"/>
<path class="l4" d="M907.858 539.672L907.858 534.167L906.482 534.167L907.858 530.038L909.234 534.167L907.858 534.167L907.858 539.672"/>
<circle class="l4" cx="907.858" cy="535.543" r="8.2579" style="fill:none;" />
<path class="l4" d="M907.858 552.059L907.858 558.941"/>
<path class="l4" d="M905.105 558.941L910.611 558.941"/>
<path class="l4" d="M907.858 561.693L910.611 558.941"/>
<path class="l4" d="M905.105 558.941L907.858 561.693"/>
<path class="l4" d="M489.458 67.5957L472.942 60.7141L472.942 64.843L456.426 64.843L461.932 67.5957L456.426 70.3483L472.942 70.3483L472.942 74.4772L489.458 67.5957"/>
<path class="l4" d="M489.458 34.5641L472.942 27.6825L472.942 31.8114L456.426 31.8114L461.932 34.5641L456.426 37.3167L472.942 37.3167L472.942 41.4456L489.458 34.5641"/>
<path class="l4" d="M698.658 298.817L698.658 305.698"/>
<path class="l4" d="M695.905 305.698L701.411 305.698"/>
<path class="l4" d="M698.658 308.451L701.411 305.698"/>
<path class="l4" d="M695.905 305.698L698.658 308.451"/>
<path class="l4" d="M737.195 298.817L737.195 305.698"/>
<path class="l4" d="M734.442 305.698L739.947 305.698"/>
<path class="l4" d="M737.195 308.451L739.947 305.698"/>
<path class="l4" d="M734.442 305.698L737.195 308.451"/>
<path class="l4" d="M691.776 236.883L691.776 261.656"/>
<path class="l4" d="M698.658 232.754L698.658 239.635"/>
<path class="l4" d="M698.658 258.904L698.658 265.785"/>
<path class="l4" d="M689.024 241.012L689.024 257.527"/>
<path class="l4" d="M691.776 258.904L698.658 258.904"/>
<path class="l4" d="M691.776 239.635L698.658 239.635"/>
<path class="l4" d="M676.637 249.269L688.748 249.269"/>
<path class="l4" d="M695.905 260.28L698.658 258.904L695.905 257.527L695.905 260.28"/>
<path class="l4" d="M698.658 177.701L698.658 185.959"/>
<path class="l4" d="M698.658 202.475L698.658 210.733"/>
<path class="l4" d="M700.034 181.83L702.787 181.83"/>
<path class="l4" d="M701.411 180.454L701.411 183.206"/>
<path class="l4" d="M698.658 190.088L698.658 195.593L700.034 195.593L698.658 199.722L697.282 195.593L698.658 195.593L698.658 190.088"/>
<circle class="l4" cx="698.658" cy="194.217" r="8.2579" style="fill:none;" />
<path class="l4" d="M973.921 298.817L973.921 305.698"/>
<path class="l4" d="M971.169 305.698L976.674 305.698"/>
<path class="l4" d="M973.921 308.451L976.674 305.698"/>
<path class="l4" d="M971.169 305.698L973.921 308.451"/>
<path class="l4" d="M1012.46 298.817L1012.46 305.698"/>
<path class="l4" d="M1009.71 305.698L1015.21 305.698"/>
<path class="l4" d="M1012.46 308.451L1015.21 305.698"/>
<path class="l4" d="M1009.71 305.698L1012.46 308.451"/>
<path class="l4" d="M967.04 236.883L967.04 261.656"/>
<path class="l4" d="M973.921 232.754L973.921 239.635"/>
<path class="l4" d="M973.921 258.904L973.921 265.785"/>
<path class="l4" d="M964.287 241.012L964.287 257.527"/>
<path class="l4" d="M967.04 258.904L973.921 258.904"/>
<path class="l4" d="M967.04 239.635L973.921 239.635"/>
<path class="l4" d="M951.9 249.269L964.012 249.269"/>
<path class="l4" d="M971.169 260.28L973.921 258.904L971.169 257.527L971.169 260.28"/>
<path class="l4" d="M973.921 177.701L973.921 185.959"/>
<path class="l4" d="M973.921 202.475L973.921 210.733"/>
<path class="l4" d="M975.298 181.83L978.05 181.83"/>
<path class="l4" d="M976.674 180.454L976.674 183.206"/>
<path class="l4" d="M973.921 190.088L973.921 195.593L975.298 195.593L973.921 199.722L972.545 195.593L973.921 195.593L973.921 190.088"/>
<circle class="l4" cx="973.921" cy="194.217" r="8.2579" style="fill:none;" />
<path class="l4" d="M577.542 285.054L577.542 293.312"/>
<path class="l4" d="M577.542 260.28L577.542 268.538"/>
<path class="l4" d="M573.413 289.183L576.166 289.183"/>
<path class="l4" d="M574.789 287.806L574.789 290.559"/>
<path class="l4" d="M577.542 280.925L577.542 275.419L576.166 275.419L577.542 271.29L578.918 275.419L577.542 275.419L577.542 280.925"/>
<circle class="l4" cx="577.542" cy="276.796" r="8.2579" style="fill:none;" />
<path class="l4" d="M577.542 298.817L577.542 305.698"/>
<path class="l4" d="M574.789 305.698L580.295 305.698"/>
<path class="l4" d="M577.542 308.451L580.295 305.698"/>
<path class="l4" d="M574.789 305.698L577.542 308.451"/>
<path class="l4" d="M852.805 285.054L852.805 293.312"/>
<path class="l4" d="M852.805 260.28L852.805 268.538"/>
<path class="l4" d="M848.676 289.183L851.429 289.183"/>
<path class="l4" d="M850.053 287.806L850.053 290.559"/>
<path class="l4" d="M852.805 280.925L852.805 275.419L851.429 275.419L852.805 271.29L854.182 275.419L852.805 275.419L852.805 280.925"/>
<circle class="l4" cx="852.805" cy="276.796" r="8.2579" style="fill:none;" />
<path class="l4" d="M852.805 298.817L852.805 305.698"/>
<path class="l4" d="M850.053 305.698L855.558 305.698"/>
<path class="l4" d="M852.805 308.451L855.558 305.698"/>
<path class="l4" d="M850.053 305.698L852.805 308.451"/>
<path class="l4" d="M592.682 217.614L592.682 220.367"/>
<path class="l4" d="M591.305 218.99L594.058 218.99"/>
<path class="l4" d="M588.553 221.743L621.584 221.743"/>
<circle class="l4" cx="605.068" cy="221.743" r="8.2579" style="fill:none;" />
<path class="l4" d="M867.945 217.614L867.945 220.367"/>
<path class="l4" d="M866.569 218.99L869.321 218.99"/>
<path class="l4" d="M863.816 221.743L896.848 221.743"/>
<circle class="l4" cx="880.332" cy="221.743" r="8.2579" style="fill:none;" />
<path class="l4" d="M643.605 221.743L676.637 221.743"/>
<path class="l4" d="M654.616 221.743L660.121 217.614"/>
<path class="l4" d="M654.616 221.743L660.121 225.872"/>
<path class="l4" d="M918.869 221.743L951.9 221.743"/>
<path class="l4" d="M929.879 221.743L935.384 217.614"/>
<path class="l4" d="M929.879 221.743L935.384 225.872"/>
<path class="l4" d="M753.711 474.985L753.711 480.491"/>
<path class="l4" d="M753.711 474.985L759.216 474.985"/>
<path class="l5" d="M697.282 550.683L700.034 550.683L700.034 553.435L697.282 553.435L697.282 550.683z"/>
<path class="l5" d="M499.092 484.62L501.845 484.62L501.845 487.372L499.092 487.372L499.092 484.62z"/>
<path class="l5" d="M499.092 517.651L501.845 517.651L501.845 520.404L499.092 520.404L499.092 517.651z"/>
<path class="l5" d="M499.092 550.683L501.845 550.683L501.845 553.435L499.092 553.435L499.092 550.683z"/>
<path class="l5" d="M735.819 550.683L738.571 550.683L738.571 553.435L735.819 553.435L735.819 550.683z"/>
<path class="l5" d="M98.584 615.37L98.4119 615.542L98.2399 615.714L98.0679 615.886L97.8958 616.058L97.7238 616.23L97.5518 616.402L97.3797 616.574L97.2077 616.746L97.0356 616.918L96.8636 617.09L96.6916 617.262L96.5195 617.434L96.3475 617.606L96.1754 617.778L96.0034 617.95L95.8314 618.122L95.6593 618.294L95.4873 618.466L95.3152 618.638L95.1432 618.81L94.9712 618.982L94.7991 619.154L94.6271 619.327L94.455 619.499L94.283 619.671L94.111 619.843L93.9389 620.015L93.7669 620.187L93.5948 620.359L93.4228 620.531L93.2508 620.703L93.0787 620.875L93.0787 620.875L92.9121 621.047L92.7561 621.219L92.611 621.391L92.4766 621.563L92.3529 621.735L92.24 621.907L92.1379 622.079L92.0465 622.251L91.9658 622.423L91.896 622.595L91.8368 622.767L91.7884 622.939L91.7508 623.111L91.7239 623.283L91.7078 623.455L91.7024 623.628L91.7078 623.8L91.7239 623.972L91.7508 624.144L91.7884 624.316L91.8368 624.488L91.896 624.66L91.9658 624.832L92.0465 625.004L92.1379 625.176L92.24 625.348L92.3529 625.52L92.4766 625.692L92.611 625.864L92.7561 626.036L92.9121 626.208L93.0787 626.38L93.0787 626.38L93.2514 626.553L93.4255 626.727L93.6009 626.902L93.7776 627.079L93.9557 627.257L94.1352 627.437L94.3159 627.617L94.498 627.799L94.6815 627.983L94.8663 628.168L95.0525 628.354L95.24 628.541L95.4288 628.73L95.619 628.92L95.8105 629.112L96.0034 629.305L96.1976 629.499L96.3932 629.695L96.5901 629.892L96.7883 630.09L96.9879 630.289L97.1889 630.49L97.3911 630.693L97.5948 630.896L97.7997 631.101L98.006 631.307L98.2137 631.515L98.4227 631.724L98.633 631.934L98.8447 632.146L99.0578 632.359L99.2721 632.574L99.2721 632.574L99.4859 632.787L99.6969 632.998L99.9052 633.207L100.111 633.412L100.314 633.615L100.514 633.815L100.712 634.013L100.907 634.208L101.099 634.4L101.288 634.59L101.475 634.776L101.659 634.961L101.841 635.142L102.019 635.321L102.195 635.497L102.369 635.67L102.54 635.841L102.708 636.009L102.873 636.174L103.036 636.337L103.195 636.497L103.353 636.654L103.507 636.809L103.659 636.961L103.808 637.11L103.955 637.256L104.099 637.4L104.24 637.541L104.378 637.68L104.514 637.815L104.647 637.948L104.777 638.079L104.777 638.079L104.902 638.206L105.019 638.329L105.128 638.448L105.229 638.563L105.322 638.674L105.406 638.78L105.483 638.883L105.552 638.982L105.612 639.077L105.664 639.168L105.709 639.254L105.745 639.337L105.773 639.416L105.794 639.49L105.806 639.561L105.81 639.627L105.806 639.69L105.794 639.748L105.773 639.803L105.745 639.853L105.709 639.899L105.664 639.942L105.612 639.98L105.552 640.014L105.483 640.045L105.406 640.071L105.322 640.093L105.229 640.111L105.128 640.125L105.019 640.135L104.902 640.141L104.777 640.143L104.777 640.143L104.648 640.143L104.519 640.143L104.39 640.143L104.261 640.143L104.132 640.143L104.003 640.143L103.874 640.143L103.745 640.143L103.616 640.143L103.487 640.143L103.358 640.143L103.229 640.143L103.1 640.143L102.971 640.143L102.842 640.143L102.713 640.143L102.584 640.143L102.455 640.143L102.326 640.143L102.197 640.143L102.068 640.143L101.939 640.143L101.81 640.143L101.681 640.143L101.552 640.143L101.423 640.143L101.294 640.143L101.165 640.143L101.036 640.143L100.907 640.143L100.777 640.143L100.648 640.143L100.648 640.143L100.52 640.143L100.393 640.143L100.267 640.143L100.143 640.143L100.02 640.143L99.8985 640.143L99.7782 640.143L99.6592 640.143L99.5416 640.143L99.4254 640.143L99.3105 640.143L99.1969 640.143L99.0847 640.143L98.9738 640.143L98.8642 640.143L98.756 640.143L98.6492 640.143L98.5437 640.143L98.4395 640.143L98.3367 640.143L98.2352 640.143L98.1351 640.143L98.0363 640.143L97.9388 640.143L97.8427 640.143L97.748 640.143L97.6546 640.143L97.5625 640.143L97.4718 640.143L97.3824 640.143L97.2944 640.143L97.2077 640.143L97.2077 640.143L97.1217 640.142L97.0356 640.138L96.9496 640.131L96.8636 640.122L96.7776 640.11L96.6916 640.095L96.6055 640.077L96.5195 640.057L96.4335 640.034L96.3475 640.009L96.2615 639.981L96.1754 639.95L96.0894 639.916L96.0034 639.88L95.9174 639.841L95.8314 639.799L95.7453 639.755L95.6593 639.708L95.5733 639.658L95.4873 639.606L95.4013 639.551L95.3152 639.493L95.2292 639.432L95.1432 639.369L95.0572 639.303L94.9712 639.235L94.8851 639.163L94.7991 639.09L94.7131 639.013L94.6271 638.934L94.5411 638.852L94.455 638.767L94.455 638.767L94.369 638.681L94.283 638.595L94.197 638.509L94.111 638.423L94.0249 638.337L93.9389 638.251L93.8529 638.165L93.7669 638.079L93.6809 637.993L93.5948 637.907L93.5088 637.821L93.4228 637.735L93.3368 637.649L93.2508 637.563L93.1647 637.477L93.0787 637.391L92.9927 637.305L92.9067 637.219L92.8207 637.133L92.7346 637.047L92.6486 636.961L92.5626 636.875L92.4766 636.789L92.3906 636.703L92.3045 636.617L92.2185 636.53L92.1325 636.444L92.0465 636.358L91.9605 636.272L91.8744 636.186L91.7884 636.1L91.7024 636.014L91.7024 636.014L91.615 635.927L91.525 635.837L91.4323 635.744L91.3368 635.649L91.2387 635.551L91.1379 635.45L91.0344 635.346L90.9282 635.24L90.8194 635.131L90.7078 635.02L90.5936 634.906L90.4766 634.789L90.357 634.669L90.2347 634.547L90.1097 634.422L89.982 634.294L89.8516 634.164L89.7186 634.031L89.5828 633.895L89.4444 633.756L89.3033 633.615L89.1594 633.471L89.0129 633.325L88.8638 633.176L88.7119 633.024L88.5573 632.869L88.4001 632.712L88.2401 632.552L88.0775 632.389L87.9122 632.224L87.7442 632.056L87.5735 631.885L87.5735 631.885L87.4014 631.719L87.2294 631.563L87.0573 631.418L86.8853 631.283L86.7133 631.16L86.5412 631.047L86.3692 630.945L86.1971 630.853L86.0251 630.773L85.8531 630.703L85.681 630.644L85.509 630.595L85.3369 630.557L85.1649 630.531L84.9929 630.514L84.8208 630.509L84.6488 630.514L84.4767 630.531L84.3047 630.557L84.1327 630.595L83.9606 630.644L83.7886 630.703L83.6165 630.773L83.4445 630.853L83.2725 630.945L83.1004 631.047L82.9284 631.16L82.7563 631.283L82.5843 631.418L82.4123 631.563L82.2402 631.719L82.0682 631.885L82.0682 631.885L81.8975 632.056L81.7295 632.224L81.5642 632.389L81.4015 632.552L81.2416 632.712L81.0843 632.869L80.9298 633.024L80.7779 633.176L80.6287 633.325L80.4822 633.471L80.3384 633.615L80.1973 633.756L80.0588 633.895L79.9231 634.031L79.79 634.164L79.6596 634.294L79.532 634.422L79.407 634.547L79.2846 634.669L79.165 634.789L79.0481 634.906L78.9338 635.02L78.8223 635.131L78.7134 635.24L78.6072 635.346L78.5037 635.45L78.4029 635.551L78.3048 635.649L78.2094 635.744L78.1167 635.837L78.0266 635.927L77.9392 636.014L77.9392 636.014L77.8532 636.1L77.7672 636.186L77.6812 636.272L77.5952 636.358L77.5091 636.444L77.4231 636.53L77.3371 636.617L77.2511 636.703L77.1651 636.789L77.079 636.875L76.993 636.961L76.907 637.047L76.821 637.133L76.735 637.219L76.6489 637.305L76.5629 637.391L76.4769 637.477L76.3909 637.563L76.3049 637.649L76.2188 637.735L76.1328 637.821L76.0468 637.907L75.9608 637.993L75.8748 638.079L75.7887 638.165L75.7027 638.251L75.6167 638.337L75.5307 638.423L75.4447 638.509L75.3586 638.595L75.2726 638.681L75.1866 638.767L75.1866 638.767L75.1006 638.852L75.0146 638.934L74.9285 639.013L74.8425 639.09L74.7565 639.163L74.6705 639.235L74.5845 639.303L74.4985 639.369L74.4124 639.432L74.3264 639.493L74.2404 639.551L74.1544 639.606L74.0684 639.658L73.9823 639.708L73.8963 639.755L73.8103 639.799L73.7243 639.841L73.6383 639.88L73.5522 639.916L73.4662 639.95L73.3802 639.981L73.2942 640.009L73.2082 640.034L73.1221 640.057L73.0361 640.077L72.9501 640.095L72.8641 640.11L72.7781 640.122L72.692 640.131L72.606 640.138L72.52 640.142L72.434 640.143L72.434 640.143L72.3473 640.143L72.2592 640.143L72.1699 640.143L72.0791 640.143L71.9871 640.143L71.8937 640.143L71.7989 640.143L71.7028 640.143L71.6054 640.143L71.5066 640.143L71.4064 640.143L71.305 640.143L71.2021 640.143L71.098 640.143L70.9925 640.143L70.8856 640.143L70.7774 640.143L70.6679 640.143L70.557 640.143L70.4448 640.143L70.3312 640.143L70.2163 640.143L70.1 640.143L69.9824 640.143L69.8635 640.143L69.7432 640.143L69.6215 640.143L69.4986 640.143L69.3742 640.143L69.2486 640.143L69.1215 640.143L68.9932 640.143L68.9932 640.143L68.8642 640.143L68.7351 640.143L68.6061 640.143L68.4771 640.143L68.348 640.143L68.219 640.143L68.09 640.143L67.9609 640.143L67.8319 640.143L67.7029 640.143L67.5739 640.143L67.4448 640.143L67.3158 640.143L67.1868 640.143L67.0577 640.143L66.9287 640.143L66.7997 640.143L66.6707 640.143L66.5416 640.143L66.4126 640.143L66.2836 640.143L66.1545 640.143L66.0255 640.143L65.8965 640.143L65.7674 640.143L65.6384 640.143L65.5094 640.143L65.3804 640.143L65.2513 640.143L65.1223 640.143L64.9933 640.143L64.8642 640.143L64.8642 640.143L64.7392 640.141L64.6223 640.135L64.5134 640.125L64.4126 640.111L64.3199 640.093L64.2352 640.071L64.1586 640.045L64.0901 640.014L64.0296 639.98L63.9772 639.942L63.9328 639.899L63.8965 639.853L63.8683 639.803L63.8481 639.748L63.836 639.69L63.832 639.627L63.836 639.561L63.8481 639.49L63.8683 639.416L63.8965 639.337L63.9328 639.254L63.9772 639.168L64.0296 639.077L64.0901 638.982L64.1586 638.883L64.2352 638.78L64.3199 638.674L64.4126 638.563L64.5134 638.448L64.6223 638.329L64.7392 638.206L64.8642 638.079L64.8642 638.079L64.9946 637.948L65.1277 637.815L65.2634 637.68L65.4019 637.541L65.543 637.4L65.6868 637.256L65.8333 637.11L65.9825 636.961L66.1344 636.809L66.2889 636.654L66.4462 636.497L66.6061 636.337L66.7688 636.174L66.9341 636.009L67.1021 635.841L67.2728 635.67L67.4462 635.497L67.6222 635.321L67.801 635.142L67.9825 634.961L68.1666 634.776L68.3534 634.59L68.5429 634.4L68.7351 634.208L68.93 634.013L69.1276 633.815L69.3279 633.615L69.5308 633.412L69.7364 633.207L69.9448 632.998L70.1558 632.787L70.3695 632.574L70.3695 632.574L70.5839 632.359L70.7969 632.146L71.0086 631.934L71.2189 631.724L71.4279 631.515L71.6356 631.307L71.8419 631.101L72.0469 630.896L72.2505 630.693L72.4528 630.49L72.6537 630.289L72.8533 630.09L73.0516 629.892L73.2485 629.695L73.444 629.499L73.6383 629.305L73.8311 629.112L74.0227 628.92L74.2128 628.73L74.4017 628.541L74.5892 628.354L74.7753 628.168L74.9601 627.983L75.1436 627.799L75.3257 627.617L75.5065 627.437L75.6859 627.257L75.864 627.079L76.0408 626.902L76.2162 626.727L76.3902 626.553L76.5629 626.38L76.5629 626.38L76.7296 626.208L76.8855 626.036L77.0307 625.864L77.1651 625.692L77.2887 625.52L77.4016 625.348L77.5038 625.176L77.5952 625.004L77.6758 624.832L77.7457 624.66L77.8048 624.488L77.8532 624.316L77.8909 624.144L77.9177 623.972L77.9339 623.8L77.9392 623.628L77.9339 623.455L77.9177 623.283L77.8909 623.111L77.8532 622.939L77.8048 622.767L77.7457 622.595L77.6758 622.423L77.5952 622.251L77.5038 622.079L77.4016 621.907L77.2887 621.735L77.1651 621.563L77.0307 621.391L76.8855 621.219L76.7296 621.047L76.5629 620.875L76.5629 620.875L76.3902 620.702L76.2162 620.528L76.0408 620.353L75.864 620.176L75.6859 619.998L75.5065 619.818L75.3257 619.638L75.1436 619.456L74.9601 619.272L74.7753 619.087L74.5892 618.901L74.4017 618.714L74.2128 618.525L74.0227 618.335L73.8311 618.143L73.6383 617.95L73.444 617.756L73.2485 617.56L73.0516 617.364L72.8533 617.165L72.6537 616.966L72.4528 616.765L72.2505 616.562L72.0469 616.359L71.8419 616.154L71.6356 615.948L71.4279 615.74L71.2189 615.531L71.0086 615.321L70.7969 615.109L70.5839 614.896L70.3695 614.681L70.3695 614.681L70.1558 614.468L69.9448 614.257L69.7364 614.048L69.5308 613.843L69.3279 613.64L69.1276 613.44L68.93 613.242L68.7351 613.047L68.5429 612.855L68.3534 612.665L68.1666 612.479L67.9825 612.294L67.801 612.113L67.6222 611.934L67.4462 611.758L67.2728 611.585L67.1021 611.414L66.9341 611.246L66.7688 611.081L66.6061 610.918L66.4462 610.758L66.2889 610.601L66.1344 610.446L65.9825 610.294L65.8333 610.145L65.6868 609.999L65.543 609.855L65.4019 609.714L65.2634 609.575L65.1277 609.44L64.9946 609.307L64.8642 609.176L64.8642 609.176L64.7392 609.049L64.6223 608.926L64.5134 608.807L64.4126 608.692L64.3199 608.581L64.2352 608.475L64.1586 608.372L64.0901 608.273L64.0296 608.178L63.9772 608.088L63.9328 608.001L63.8965 607.918L63.8683 607.84L63.8481 607.765L63.836 607.694L63.832 607.628L63.836 607.565L63.8481 607.507L63.8683 607.452L63.8965 607.402L63.9328 607.356L63.9772 607.313L64.0296 607.275L64.0901 607.241L64.1586 607.211L64.2352 607.184L64.3199 607.162L64.4126 607.144L64.5134 607.13L64.6223 607.12L64.7392 607.114L64.8642 607.112L64.8642 607.112L64.9933 607.112L65.1223 607.112L65.2513 607.112L65.3804 607.112L65.5094 607.112L65.6384 607.112L65.7674 607.112L65.8965 607.112L66.0255 607.112L66.1545 607.112L66.2836 607.112L66.4126 607.112L66.5416 607.112L66.6707 607.112L66.7997 607.112L66.9287 607.112L67.0577 607.112L67.1868 607.112L67.3158 607.112L67.4448 607.112L67.5739 607.112L67.7029 607.112L67.8319 607.112L67.9609 607.112L68.09 607.112L68.219 607.112L68.348 607.112L68.4771 607.112L68.6061 607.112L68.7351 607.112L68.8642 607.112L68.9932 607.112L68.9932 607.112L69.1215 607.112L69.2486 607.112L69.3742 607.112L69.4986 607.112L69.6215 607.112L69.7432 607.112L69.8635 607.112L69.9824 607.112L70.1 607.112L70.2163 607.112L70.3312 607.112L70.4448 607.112L70.557 607.112L70.6679 607.112L70.7774 607.112L70.8856 607.112L70.9925 607.112L71.098 607.112L71.2021 607.112L71.305 607.112L71.4064 607.112L71.5066 607.112L71.6054 607.112L71.7028 607.112L71.7989 607.112L71.8937 607.112L71.9871 607.112L72.0791 607.112L72.1699 607.112L72.2592 607.112L72.3473 607.112L72.434 607.112L72.434 607.112L72.52 607.113L72.606 607.117L72.692 607.124L72.7781 607.133L72.8641 607.145L72.9501 607.16L73.0361 607.178L73.1221 607.198L73.2082 607.221L73.2942 607.246L73.3802 607.274L73.4662 607.305L73.5522 607.339L73.6383 607.375L73.7243 607.414L73.8103 607.456L73.8963 607.5L73.9823 607.547L74.0684 607.597L74.1544 607.649L74.2404 607.704L74.3264 607.762L74.4124 607.823L74.4985 607.886L74.5845 607.952L74.6705 608.02L74.7565 608.092L74.8425 608.165L74.9285 608.242L75.0146 608.321L75.1006 608.403L75.1866 608.488L75.1866 608.488L75.2726 608.574L75.3586 608.66L75.4447 608.746L75.5307 608.832L75.6167 608.918L75.7027 609.004L75.7887 609.09L75.8748 609.176L75.9608 609.262L76.0468 609.348L76.1328 609.434L76.2188 609.52L76.3049 609.606L76.3909 609.692L76.4769 609.778L76.5629 609.864L76.6489 609.95L76.735 610.036L76.821 610.122L76.907 610.208L76.993 610.294L77.079 610.38L77.1651 610.466L77.2511 610.553L77.3371 610.639L77.4231 610.725L77.5091 610.811L77.5952 610.897L77.6812 610.983L77.7672 611.069L77.8532 611.155L77.9392 611.241L77.9392 611.241L78.0266 611.328L78.1167 611.418L78.2094 611.511L78.3048 611.606L78.4029 611.704L78.5037 611.805L78.6072 611.909L78.7134 612.015L78.8223 612.124L78.9338 612.235L79.0481 612.35L79.165 612.466L79.2846 612.586L79.407 612.708L79.532 612.833L79.6596 612.961L79.79 613.091L79.9231 613.224L80.0588 613.36L80.1973 613.499L80.3384 613.64L80.4822 613.784L80.6287 613.93L80.7779 614.079L80.9298 614.231L81.0843 614.386L81.2416 614.543L81.4015 614.703L81.5642 614.866L81.7295 615.031L81.8975 615.199L82.0682 615.37L82.0682 615.37L82.2402 615.536L82.4123 615.692L82.5843 615.837L82.7563 615.972L82.9284 616.095L83.1004 616.208L83.2725 616.31L83.4445 616.402L83.6165 616.482L83.7886 616.552L83.9606 616.612L84.1327 616.66L84.3047 616.698L84.4767 616.724L84.6488 616.741L84.8208 616.746L84.9929 616.741L85.1649 616.724L85.3369 616.698L85.509 616.66L85.681 616.612L85.8531 616.552L86.0251 616.482L86.1971 616.402L86.3692 616.31L86.5412 616.208L86.7133 616.095L86.8853 615.972L87.0573 615.837L87.2294 615.692L87.4014 615.536L87.5735 615.37L87.5735 615.37L87.7442 615.199L87.9122 615.031L88.0775 614.866L88.2401 614.703L88.4001 614.543L88.5573 614.386L88.7119 614.231L88.8638 614.079L89.0129 613.93L89.1594 613.784L89.3033 613.64L89.4444 613.499L89.5828 613.36L89.7186 613.224L89.8516 613.091L89.982 612.961L90.1097 612.833L90.2347 612.708L90.357 612.586L90.4766 612.466L90.5936 612.35L90.7078 612.235L90.8194 612.124L90.9282 612.015L91.0344 611.909L91.1379 611.805L91.2387 611.704L91.3368 611.606L91.4323 611.511L91.525 611.418L91.615 611.328L91.7024 611.241L91.7024 611.241L91.7884 611.155L91.8744 611.069L91.9605 610.983L92.0465 610.897L92.1325 610.811L92.2185 610.725L92.3045 610.639L92.3906 610.553L92.4766 610.466L92.5626 610.38L92.6486 610.294L92.7346 610.208L92.8207 610.122L92.9067 610.036L92.9927 609.95L93.0787 609.864L93.1647 609.778L93.2508 609.692L93.3368 609.606L93.4228 609.52L93.5088 609.434L93.5948 609.348L93.6809 609.262L93.7669 609.176L93.8529 609.09L93.9389 609.004L94.0249 608.918L94.111 608.832L94.197 608.746L94.283 608.66L94.369 608.574L94.455 608.488L94.455 608.488L94.5411 608.403L94.6271 608.321L94.7131 608.242L94.7991 608.165L94.8851 608.092L94.9712 608.02L95.0572 607.952L95.1432 607.886L95.2292 607.823L95.3152 607.762L95.4013 607.704L95.4873 607.649L95.5733 607.597L95.6593 607.547L95.7453 607.5L95.8314 607.456L95.9174 607.414L96.0034 607.375L96.0894 607.339L96.1754 607.305L96.2615 607.274L96.3475 607.246L96.4335 607.221L96.5195 607.198L96.6055 607.178L96.6916 607.16L96.7776 607.145L96.8636 607.133L96.9496 607.124L97.0356 607.117L97.1217 607.113L97.2077 607.112L97.2077 607.112L97.2944 607.112L97.3824 607.112L97.4718 607.112L97.5625 607.112L97.6546 607.112L97.748 607.112L97.8427 607.112L97.9388 607.112L98.0363 607.112L98.1351 607.112L98.2352 607.112L98.3367 607.112L98.4395 607.112L98.5437 607.112L98.6492 607.112L98.756 607.112L98.8642 607.112L98.9738 607.112L99.0847 607.112L99.1969 607.112L99.3105 607.112L99.4254 607.112L99.5416 607.112L99.6592 607.112L99.7782 607.112L99.8985 607.112L100.02 607.112L100.143 607.112L100.267 607.112L100.393 607.112L100.52 607.112L100.648 607.112L100.648 607.112L100.777 607.112L100.907 607.112L101.036 607.112L101.165 607.112L101.294 607.112L101.423 607.112L101.552 607.112L101.681 607.112L101.81 607.112L101.939 607.112L102.068 607.112L102.197 607.112L102.326 607.112L102.455 607.112L102.584 607.112L102.713 607.112L102.842 607.112L102.971 607.112L103.1 607.112L103.229 607.112L103.358 607.112L103.487 607.112L103.616 607.112L103.745 607.112L103.874 607.112L104.003 607.112L104.132 607.112L104.261 607.112L104.39 607.112L104.519 607.112L104.648 607.112L104.777 607.112L104.777 607.112L104.902 607.114L105.019 607.12L105.128 607.13L105.229 607.144L105.322 607.162L105.406 607.184L105.483 607.211L105.552 607.241L105.612 607.275L105.664 607.313L105.709 607.356L105.745 607.402L105.773 607.452L105.794 607.507L105.806 607.565L105.81 607.628L105.806 607.694L105.794 607.765L105.773 607.84L105.745 607.918L105.709 608.001L105.664 608.088L105.612 608.178L105.552 608.273L105.483 608.372L105.406 608.475L105.322 608.581L105.229 608.692L105.128 608.807L105.019 608.926L104.902 609.049L104.777 609.176L104.777 609.176L104.646 609.307L104.511 609.442L104.372 609.581L104.229 609.725L104.082 609.872L103.931 610.023L103.775 610.178L103.616 610.337L103.453 610.501L103.286 610.668L103.114 610.839L102.939 611.015L102.759 611.194L102.576 611.378L102.388 611.565L102.197 611.757L102.001 611.952L101.802 612.152L101.598 612.356L101.39 612.563L101.179 612.775L100.963 612.991L100.743 613.21L100.519 613.434L100.292 613.662L100.06 613.894L99.8239 614.13L99.584 614.37L99.34 614.614L99.092 614.862L98.84 615.114L98.584 615.37"/>
<path class="l5" d="M698.658 503.888L695.905 502.512L698.658 501.135L698.658 503.888"/>
<path class="l5" d="M697.282 484.62L700.034 484.62L700.034 487.372L697.282 487.372L697.282 484.62z"/>
<path class="l5" d="M675.261 501.135L678.013 501.135L678.013 503.888L675.261 503.888L675.261 501.135z"/>
<path class="l5" d="M697.282 517.651L700.034 517.651L700.034 520.404L697.282 520.404L697.282 517.651z"/>
<path class="l5" d="M698.615 502.469L698.701 502.469L698.701 502.555L698.615 502.555L698.615 502.469z"/>
<path class="l5" d="M697.282 429.567L700.034 429.567L700.034 432.32L697.282 432.32L697.282 429.567z"/>
<path class="l5" d="M697.282 462.598L700.034 462.598L700.034 465.351L697.282 465.351L697.282 462.598z"/>
<path class="l5" d="M499.78 408.234L501.157 408.234L501.157 409.61L499.78 409.61L499.78 408.234z"/>
<path class="l5" d="M620.208 473.609L622.961 473.609L622.961 476.362L620.208 476.362L620.208 473.609z"/>
<path class="l5" d="M653.24 473.609L655.992 473.609L655.992 476.362L653.24 476.362L653.24 473.609z"/>
<path class="l5" d="M598.875 474.297L600.251 474.297L600.251 475.673L598.875 475.673L598.875 474.297z"/>
<path class="l5" d="M681.454 474.297L682.83 474.297L682.83 475.673L681.454 475.673L681.454 474.297z"/>
<path class="l5" d="M972.545 550.683L975.298 550.683L975.298 553.435L972.545 553.435L972.545 550.683z"/>
<path class="l5" d="M1011.08 550.683L1013.83 550.683L1013.83 553.435L1011.08 553.435L1011.08 550.683z"/>
<path class="l5" d="M973.921 503.888L971.169 502.512L973.921 501.135L973.921 503.888"/>
<path class="l5" d="M972.545 484.62L975.298 484.62L975.298 487.372L972.545 487.372L972.545 484.62z"/>
<path class="l5" d="M950.524 501.135L953.277 501.135L953.277 503.888L950.524 503.888L950.524 501.135z"/>
<path class="l5" d="M972.545 517.651L975.298 517.651L975.298 520.404L972.545 520.404L972.545 517.651z"/>
<path class="l5" d="M973.878 502.469L973.964 502.469L973.964 502.555L973.878 502.555L973.878 502.469z"/>
<path class="l5" d="M972.545 429.567L975.298 429.567L975.298 432.32L972.545 432.32L972.545 429.567z"/>
<path class="l5" d="M972.545 462.598L975.298 462.598L975.298 465.351L972.545 465.351L972.545 462.598z"/>
<path class="l5" d="M950.524 473.609L953.277 473.609L953.277 476.362L950.524 476.362L950.524 473.609z"/>
<path class="l5" d="M917.492 473.609L920.245 473.609L920.245 476.362L917.492 476.362L917.492 473.609z"/>
<path class="l5" d="M895.471 473.609L898.224 473.609L898.224 476.362L895.471 476.362L895.471 473.609z"/>
<path class="l5" d="M862.44 473.609L865.192 473.609L865.192 476.362L862.44 476.362L862.44 473.609z"/>
<path class="l5" d="M906.482 550.683L909.234 550.683L909.234 553.435L906.482 553.435L906.482 550.683z"/>
<path class="l5" d="M906.482 517.651L909.234 517.651L909.234 520.404L906.482 520.404L906.482 517.651z"/>
<path class="l5" d="M906.482 550.683L909.234 550.683L909.234 553.435L906.482 553.435L906.482 550.683z"/>
<path class="l5" d="M852.117 501.824L853.494 501.824L853.494 503.2L852.117 503.2L852.117 501.824z"/>
<path class="l5" d="M697.282 297.441L700.034 297.441L700.034 300.193L697.282 300.193L697.282 297.441z"/>
<path class="l5" d="M735.819 297.441L738.571 297.441L738.571 300.193L735.819 300.193L735.819 297.441z"/>
<path class="l5" d="M698.658 250.646L695.905 249.269L698.658 247.893L698.658 250.646"/>
<path class="l5" d="M697.282 231.377L700.034 231.377L700.034 234.13L697.282 234.13L697.282 231.377z"/>
<path class="l5" d="M675.261 247.893L678.013 247.893L678.013 250.646L675.261 250.646L675.261 247.893z"/>
<path class="l5" d="M697.282 264.409L700.034 264.409L700.034 267.162L697.282 267.162L697.282 264.409z"/>
<path class="l5" d="M698.615 249.226L698.701 249.226L698.701 249.312L698.615 249.312L698.615 249.226z"/>
<path class="l5" d="M697.282 176.325L700.034 176.325L700.034 179.077L697.282 179.077L697.282 176.325z"/>
<path class="l5" d="M697.282 209.356L700.034 209.356L700.034 212.109L697.282 212.109L697.282 209.356z"/>
<path class="l5" d="M499.78 154.992L501.157 154.992L501.157 156.368L499.78 156.368L499.78 154.992z"/>
<path class="l5" d="M972.545 297.441L975.298 297.441L975.298 300.193L972.545 300.193L972.545 297.441z"/>
<path class="l5" d="M1011.08 297.441L1013.83 297.441L1013.83 300.193L1011.08 300.193L1011.08 297.441z"/>
<path class="l5" d="M973.921 250.646L971.169 249.269L973.921 247.893L973.921 250.646"/>
<path class="l5" d="M972.545 231.377L975.298 231.377L975.298 234.13L972.545 234.13L972.545 231.377z"/>
<path class="l5" d="M950.524 247.893L953.277 247.893L953.277 250.646L950.524 250.646L950.524 247.893z"/>
<path class="l5" d="M972.545 264.409L975.298 264.409L975.298 267.162L972.545 267.162L972.545 264.409z"/>
<path class="l5" d="M973.878 249.226L973.964 249.226L973.964 249.312L973.878 249.312L973.878 249.226z"/>
<path class="l5" d="M972.545 176.325L975.298 176.325L975.298 179.077L972.545 179.077L972.545 176.325z"/>
<path class="l5" d="M972.545 209.356L975.298 209.356L975.298 212.109L972.545 212.109L972.545 209.356z"/>
<path class="l5" d="M576.166 291.935L578.918 291.935L578.918 294.688L576.166 294.688L576.166 291.935z"/>
<path class="l5" d="M576.166 258.904L578.918 258.904L578.918 261.656L576.166 261.656L576.166 258.904z"/>
<path class="l5" d="M576.166 297.441L578.918 297.441L578.918 300.193L576.166 300.193L576.166 297.441z"/>
<path class="l5" d="M851.429 291.935L854.182 291.935L854.182 294.688L851.429 294.688L851.429 291.935z"/>
<path class="l5" d="M851.429 258.904L854.182 258.904L854.182 261.656L851.429 261.656L851.429 258.904z"/>
<path class="l5" d="M851.429 297.441L854.182 297.441L854.182 300.193L851.429 300.193L851.429 297.441z"/>
<path class="l5" d="M587.176 220.367L589.929 220.367L589.929 223.119L587.176 223.119L587.176 220.367z"/>
<path class="l5" d="M620.208 220.367L622.961 220.367L622.961 223.119L620.208 223.119L620.208 220.367z"/>
<path class="l5" d="M862.44 220.367L865.192 220.367L865.192 223.119L862.44 223.119L862.44 220.367z"/>
<path class="l5" d="M895.471 220.367L898.224 220.367L898.224 223.119L895.471 223.119L895.471 220.367z"/>
<path class="l5" d="M554.833 248.581L556.209 248.581L556.209 249.958L554.833 249.958L554.833 248.581z"/>
<path class="l5" d="M830.096 248.581L831.473 248.581L831.473 249.958L830.096 249.958L830.096 248.581z"/>
<path class="l5" d="M675.261 220.367L678.013 220.367L678.013 223.119L675.261 223.119L675.261 220.367z"/>
<path class="l5" d="M642.229 220.367L644.982 220.367L644.982 223.119L642.229 223.119L642.229 220.367z"/>
<path class="l5" d="M950.524 220.367L953.277 220.367L953.277 223.119L950.524 223.119L950.524 220.367z"/>
<path class="l5" d="M917.492 220.367L920.245 220.367L920.245 223.119L917.492 223.119L917.492 220.367z"/>
<path class="l6" d="M227.958 623.628L665.626 623.628"/>
<path class="l6" d="M16.005 623.628L51.7892 623.628"/>
<text fill="#222222"  xml:space="preserve" font-size="8.58821" transform="translate(51.7892, 548.847)" >MODEL</text>
<text fill="#222222"  xml:space="preserve" font-size="8.58821" style="font-family:Monospace;" transform="translate(57.2945, 562.61)" >.lib cornerMOSlv.lib mos_tt</text>
<text fill="#222222"  xml:space="preserve" font-size="8.58821" transform="translate(51.7892, 31.3516)" >NGSPICE</text>
<text fill="#222222"  xml:space="preserve" font-size="8.58821" style="font-family:Monospace;" transform="translate(57.2945, 54.9655)" >.param temp=27</text>
<text fill="#222222"  xml:space="preserve" font-size="8.58821" style="font-family:Monospace;" transform="translate(57.2945, 64.8162)" >.include mosfet_diode_loopgain.save</text>
<text fill="#222222"  xml:space="preserve" font-size="8.58821" style="font-family:Monospace;" transform="translate(57.2945, 74.6668)" >.options savecurrents reltol=1e-3 abstol=1e-12 gmin=1e-15</text>
<text fill="#222222"  xml:space="preserve" font-size="8.58821" style="font-family:Monospace;" transform="translate(57.2945, 84.5175)" >.control</text>
<text fill="#222222"  xml:space="preserve" font-size="8.58821" style="font-family:Monospace;" transform="translate(57.2945, 94.3682)" >save all</text>
<text fill="#222222"  xml:space="preserve" font-size="8.58821" style="font-family:Monospace;" transform="translate(57.2945, 114.07)" >* Operating Point Analysis</text>
<text fill="#222222"  xml:space="preserve" font-size="8.58821" style="font-family:Monospace;" transform="translate(57.2945, 123.92)" >op</text>
<text fill="#222222"  xml:space="preserve" font-size="8.58821" style="font-family:Monospace;" transform="translate(57.2945, 133.771)" >remzerovec</text>
<text fill="#222222"  xml:space="preserve" font-size="8.58821" style="font-family:Monospace;" transform="translate(57.2945, 143.622)" >write mosfet_diode_loopgain.raw</text>
<text fill="#222222"  xml:space="preserve" font-size="8.58821" style="font-family:Monospace;" transform="translate(57.2945, 153.472)" >set appendwrite</text>
<text fill="#222222"  xml:space="preserve" font-size="8.58821" style="font-family:Monospace;" transform="translate(57.2945, 173.174)" >* AC Analysis</text>
<text fill="#222222"  xml:space="preserve" font-size="8.58821" style="font-family:Monospace;" transform="translate(57.2945, 183.024)" >ac dec 1001 10k 100G</text>
<text fill="#222222"  xml:space="preserve" font-size="8.58821" style="font-family:Monospace;" transform="translate(57.2945, 192.875)" >remzerovec</text>
<text fill="#222222"  xml:space="preserve" font-size="8.58821" style="font-family:Monospace;" transform="translate(57.2945, 202.726)" >write mosfet_diode_loopgain.raw</text>
<text fill="#222222"  xml:space="preserve" font-size="8.58821" style="font-family:Monospace;" transform="translate(57.2945, 212.576)" >set appendwrite</text>
<text fill="#222222"  xml:space="preserve" font-size="8.58821" style="font-family:Monospace;" transform="translate(57.2945, 232.278)" >* Middlebrook's Method</text>
<text fill="#222222"  xml:space="preserve" font-size="8.58821" style="font-family:Monospace;" transform="translate(57.2945, 242.128)" >let tv=-v(vr1)/v(vf1)</text>
<text fill="#222222"  xml:space="preserve" font-size="8.58821" style="font-family:Monospace;" transform="translate(57.2945, 251.979)" >let ti=-i(vir1)/i(vif1)</text>
<text fill="#222222"  xml:space="preserve" font-size="8.58821" style="font-family:Monospace;" transform="translate(57.2945, 261.83)" >let tmb=(tv*ti - 1)/(tv + ti + 2)</text>
<text fill="#222222"  xml:space="preserve" font-size="8.58821" style="font-family:Monospace;" transform="translate(57.2945, 281.531)" >plot db(tmb) ylabel 'Magnitude - Middlebrook'</text>
<text fill="#222222"  xml:space="preserve" font-size="8.58821" style="font-family:Monospace;" transform="translate(57.2945, 291.382)" >plot 180/pi*cphase(tmb) ylabel 'Phase - Middlebrook'</text>
<text fill="#222222"  xml:space="preserve" font-size="8.58821" style="font-family:Monospace;" transform="translate(57.2945, 311.083)" >* Tian's Method</text>
<text fill="#222222"  xml:space="preserve" font-size="8.58821" style="font-family:Monospace;" transform="translate(57.2945, 320.934)" >* vtest=0, itest=1:</text>
<text fill="#222222"  xml:space="preserve" font-size="8.58821" style="font-family:Monospace;" transform="translate(57.2945, 330.785)" >let A=i(Vimeas2)</text>
<text fill="#222222"  xml:space="preserve" font-size="8.58821" style="font-family:Monospace;" transform="translate(57.2945, 340.635)" >let C=v(vmeas2)</text>
<text fill="#222222"  xml:space="preserve" font-size="8.58821" style="font-family:Monospace;" transform="translate(57.2945, 360.337)" >* vtest=1, itest=0:</text>
<text fill="#222222"  xml:space="preserve" font-size="8.58821" style="font-family:Monospace;" transform="translate(57.2945, 370.187)" >let B=i(Vimeas1)</text>
<text fill="#222222"  xml:space="preserve" font-size="8.58821" style="font-family:Monospace;" transform="translate(57.2945, 380.038)" >let D=v(vmeas1)</text>
<text fill="#222222"  xml:space="preserve" font-size="8.58821" style="font-family:Monospace;" transform="translate(57.2945, 389.889)" >let ttian=(A*D-B*C-A)/(2*(B*C-A*D)+A-D+1)</text>
<text fill="#222222"  xml:space="preserve" font-size="8.58821" style="font-family:Monospace;" transform="translate(57.2945, 409.59)" >plot db(ttian) ylabel 'Magnitude - Tian'</text>
<text fill="#222222"  xml:space="preserve" font-size="8.58821" style="font-family:Monospace;" transform="translate(57.2945, 419.441)" >plot 180/pi*cphase(ttian) ylabel 'Phase - Tian'</text>
<text fill="#222222"  xml:space="preserve" font-size="8.58821" style="font-family:Monospace;" transform="translate(57.2945, 439.142)" >* Middlebrook vs. Tian</text>
<text fill="#222222"  xml:space="preserve" font-size="8.58821" style="font-family:Monospace;" transform="translate(57.2945, 448.993)" >plot db(tmb) db(ttian) ylabel 'Magnitude'</text>
<text fill="#222222"  xml:space="preserve" font-size="8.58821" style="font-family:Monospace;" transform="translate(57.2945, 458.843)" >plot 180/pi*cphase(tmb) 180/pi*cphase(ttian) ylabel 'Phase'</text>
<text fill="#222222"  xml:space="preserve" font-size="8.58821" style="font-family:Monospace;" transform="translate(57.2945, 478.545)" >write mosfet_diode_loopgain.raw</text>
<text fill="#222222"  xml:space="preserve" font-size="8.58821" style="font-family:Monospace;" transform="translate(57.2945, 498.246)" >*quit</text>
<text fill="#222222"  xml:space="preserve" font-size="8.58821" style="font-family:Monospace;" transform="translate(57.2945, 508.097)" >.endc</text>
<text fill="#0099cc"  xml:space="preserve" font-size="5.72548" transform="translate(702.787, 560.01)" >GND</text>
<text fill="#222222"  xml:space="preserve" font-size="5.72548" transform="translate(511.479, 497.388)" >Vdd</text>
<text fill="#222222"  xml:space="preserve" font-size="5.72548" transform="translate(511.479, 511.151)" >1.5</text>
<text fill="#0099cc"  xml:space="preserve" font-size="5.72548" transform="translate(504.597, 560.01)" >GND</text>
<text fill="#0099cc"  xml:space="preserve" font-size="5.72548" transform="translate(741.324, 560.01)" >GND</text>
<text fill="#222222"  xml:space="preserve" font-size="11.451" transform="translate(233.463, 636.778)" >         mosfet_diode_loopgain.sch</text>
<text fill="#222222"  xml:space="preserve" font-size="11.451" transform="translate(233.463, 620.262)" >(c) 2024-2025 H. Pretl, S. Dorrer, Apache-2.0 license</text>
<text fill="#222222"  xml:space="preserve" font-size="11.451" transform="translate(543.626, 620.262)" >2025-10-01  22:36:34</text>
<text fill="#222222"  xml:space="preserve" font-size="28.6274" transform="translate(106.842, 635.858)" >SCHEM</text>
<text fill="#222222"  xml:space="preserve" font-size="5.72548" transform="translate(681.4, 491.195)" >M1</text>
<text fill="#ff0000"  xml:space="preserve" font-size="4.29411" transform="translate(679.142, 500.905)" >G</text>
<text fill="#222222"  xml:space="preserve" font-size="5.72548" transform="translate(704.163, 518.347)" >sg13_lv_nmos</text>
<text fill="#666600"  xml:space="preserve" font-size="5.72548" transform="translate(704.851, 511.151)" >m=1</text>
<text fill="#666600"  xml:space="preserve" font-size="5.72548" transform="translate(704.851, 506.334)" >ng=1</text>
<text fill="#666600"  xml:space="preserve" font-size="5.72548" transform="translate(704.851, 499.452)" >l=0.13u</text>
<text fill="#666600"  xml:space="preserve" font-size="5.72548" transform="translate(704.851, 493.259)" >w=1u</text>
<text fill="#ff0000"  xml:space="preserve" font-size="4.29411" transform="translate(700.034, 516.045)" >S</text>
<text fill="#ff0000"  xml:space="preserve" font-size="4.29411" transform="translate(700.034, 491.851)" >D</text>
<text fill="#ff0000"  xml:space="preserve" font-size="4.29411" transform="translate(698.658, 500.905)" >B</text>
<text fill="#222222"  xml:space="preserve" font-size="5.72548" transform="translate(709.669, 447.152)" >Ibias1</text>
<text fill="#222222"  xml:space="preserve" font-size="5.72548" transform="translate(709.669, 453.72)" >20u</text>
<text fill="#0099cc"  xml:space="preserve" font-size="9.44704" transform="translate(473.339, 413.027)" >v_dd</text>
<text fill="#222222"  xml:space="preserve" font-size="5.72548" transform="translate(632.976, 463.975) rotate(270)" >Vtest1</text>
<text fill="#222222"  xml:space="preserve" font-size="5.72548" transform="translate(646.74, 463.975) rotate(270)" >dc 0 ac 1</text>
<text fill="#0099cc"  xml:space="preserve" font-size="7.72939" transform="translate(585.187, 472.45)" >vf1</text>
<text fill="#0099cc"  xml:space="preserve" font-size="7.72939" transform="translate(667.766, 472.45)" >vr1</text>
<text fill="#0099cc"  xml:space="preserve" font-size="5.72548" transform="translate(978.05, 560.01)" >GND</text>
<text fill="#0099cc"  xml:space="preserve" font-size="5.72548" transform="translate(1016.59, 560.01)" >GND</text>
<text fill="#222222"  xml:space="preserve" font-size="5.72548" transform="translate(956.663, 491.195)" >M2</text>
<text fill="#ff0000"  xml:space="preserve" font-size="4.29411" transform="translate(954.405, 500.905)" >G</text>
<text fill="#222222"  xml:space="preserve" font-size="5.72548" transform="translate(979.427, 518.347)" >sg13_lv_nmos</text>
<text fill="#666600"  xml:space="preserve" font-size="5.72548" transform="translate(980.115, 511.151)" >m=1</text>
<text fill="#666600"  xml:space="preserve" font-size="5.72548" transform="translate(980.115, 506.334)" >ng=1</text>
<text fill="#666600"  xml:space="preserve" font-size="5.72548" transform="translate(980.115, 499.452)" >l=0.13u</text>
<text fill="#666600"  xml:space="preserve" font-size="5.72548" transform="translate(980.115, 493.259)" >w=1u</text>
<text fill="#ff0000"  xml:space="preserve" font-size="4.29411" transform="translate(975.298, 516.045)" >S</text>
<text fill="#ff0000"  xml:space="preserve" font-size="4.29411" transform="translate(975.298, 491.851)" >D</text>
<text fill="#ff0000"  xml:space="preserve" font-size="4.29411" transform="translate(973.921, 500.905)" >B</text>
<text fill="#222222"  xml:space="preserve" font-size="5.72548" transform="translate(984.932, 447.152)" >Ibias2</text>
<text fill="#222222"  xml:space="preserve" font-size="5.72548" transform="translate(984.932, 453.72)" >20u</text>
<text fill="#222222"  xml:space="preserve" font-size="5.72548" transform="translate(944.338, 495.243) rotate(270)" >Vir1</text>
<text fill="#222222"  xml:space="preserve" font-size="5.72548" transform="translate(889.286, 495.243) rotate(270)" >Vif1</text>
<text fill="#222222"  xml:space="preserve" font-size="5.72548" transform="translate(868.848, 533.113)" >Itest1</text>
<text fill="#222222"  xml:space="preserve" font-size="5.72548" transform="translate(868.848, 539.68)" >dc 0 ac 1</text>
<text fill="#0099cc"  xml:space="preserve" font-size="5.72548" transform="translate(911.987, 560.01)" >GND</text>
<text fill="#0099cc"  xml:space="preserve" font-size="7.72939" transform="translate(833.429, 499.976)" >v_gs</text>
<text fill="#222222"  xml:space="preserve" font-size="11.451" transform="translate(494.963, 71.4931)" >Annotate OP</text>
<text fill="#222222"  xml:space="preserve" font-size="11.451" transform="translate(494.963, 38.4615)" >Simulate</text>
<text fill="#0099cc"  xml:space="preserve" font-size="5.72548" transform="translate(702.787, 306.768)" >GND</text>
<text fill="#0099cc"  xml:space="preserve" font-size="5.72548" transform="translate(741.324, 306.768)" >GND</text>
<text fill="#222222"  xml:space="preserve" font-size="5.72548" transform="translate(681.4, 237.952)" >M3</text>
<text fill="#ff0000"  xml:space="preserve" font-size="4.29411" transform="translate(679.142, 247.663)" >G</text>
<text fill="#222222"  xml:space="preserve" font-size="5.72548" transform="translate(704.163, 265.105)" >sg13_lv_nmos</text>
<text fill="#666600"  xml:space="preserve" font-size="5.72548" transform="translate(704.851, 257.909)" >m=1</text>
<text fill="#666600"  xml:space="preserve" font-size="5.72548" transform="translate(704.851, 253.092)" >ng=1</text>
<text fill="#666600"  xml:space="preserve" font-size="5.72548" transform="translate(704.851, 246.21)" >l=0.13u</text>
<text fill="#666600"  xml:space="preserve" font-size="5.72548" transform="translate(704.851, 240.017)" >w=1u</text>
<text fill="#ff0000"  xml:space="preserve" font-size="4.29411" transform="translate(700.034, 262.803)" >S</text>
<text fill="#ff0000"  xml:space="preserve" font-size="4.29411" transform="translate(700.034, 238.609)" >D</text>
<text fill="#ff0000"  xml:space="preserve" font-size="4.29411" transform="translate(698.658, 247.663)" >B</text>
<text fill="#222222"  xml:space="preserve" font-size="5.72548" transform="translate(709.669, 193.91)" >Ibias3</text>
<text fill="#222222"  xml:space="preserve" font-size="5.72548" transform="translate(709.669, 200.477)" >20u</text>
<text fill="#0099cc"  xml:space="preserve" font-size="9.44704" transform="translate(473.339, 159.785)" >v_dd</text>
<text fill="#0099cc"  xml:space="preserve" font-size="5.72548" transform="translate(978.05, 306.768)" >GND</text>
<text fill="#0099cc"  xml:space="preserve" font-size="5.72548" transform="translate(1016.59, 306.768)" >GND</text>
<text fill="#222222"  xml:space="preserve" font-size="5.72548" transform="translate(956.663, 237.952)" >M4</text>
<text fill="#ff0000"  xml:space="preserve" font-size="4.29411" transform="translate(954.405, 247.663)" >G</text>
<text fill="#222222"  xml:space="preserve" font-size="5.72548" transform="translate(979.427, 265.105)" >sg13_lv_nmos</text>
<text fill="#666600"  xml:space="preserve" font-size="5.72548" transform="translate(980.115, 257.909)" >m=1</text>
<text fill="#666600"  xml:space="preserve" font-size="5.72548" transform="translate(980.115, 253.092)" >ng=1</text>
<text fill="#666600"  xml:space="preserve" font-size="5.72548" transform="translate(980.115, 246.21)" >l=0.13u</text>
<text fill="#666600"  xml:space="preserve" font-size="5.72548" transform="translate(980.115, 240.017)" >w=1u</text>
<text fill="#ff0000"  xml:space="preserve" font-size="4.29411" transform="translate(975.298, 262.803)" >S</text>
<text fill="#ff0000"  xml:space="preserve" font-size="4.29411" transform="translate(975.298, 238.609)" >D</text>
<text fill="#ff0000"  xml:space="preserve" font-size="4.29411" transform="translate(973.921, 247.663)" >B</text>
<text fill="#222222"  xml:space="preserve" font-size="5.72548" transform="translate(984.932, 193.91)" >Ibias4</text>
<text fill="#222222"  xml:space="preserve" font-size="5.72548" transform="translate(984.932, 200.477)" >20u</text>
<text fill="#222222"  xml:space="preserve" font-size="5.72548" transform="translate(538.532, 274.366)" >Itest2</text>
<text fill="#222222"  xml:space="preserve" font-size="5.72548" transform="translate(538.532, 280.933)" >dc 0 ac 0</text>
<text fill="#0099cc"  xml:space="preserve" font-size="5.72548" transform="translate(581.671, 306.768)" >GND</text>
<text fill="#222222"  xml:space="preserve" font-size="5.72548" transform="translate(813.795, 274.366)" >Itest3</text>
<text fill="#222222"  xml:space="preserve" font-size="5.72548" transform="translate(813.795, 280.933)" >dc 0 ac 1</text>
<text fill="#0099cc"  xml:space="preserve" font-size="5.72548" transform="translate(856.934, 306.768)" >GND</text>
<text fill="#222222"  xml:space="preserve" font-size="5.72548" transform="translate(599.945, 210.733) rotate(270)" >Vtest2</text>
<text fill="#222222"  xml:space="preserve" font-size="5.72548" transform="translate(613.708, 210.733) rotate(270)" >dc 0 ac 1</text>
<text fill="#222222"  xml:space="preserve" font-size="5.72548" transform="translate(875.208, 210.733) rotate(270)" >Vtest3</text>
<text fill="#222222"  xml:space="preserve" font-size="5.72548" transform="translate(888.971, 210.733) rotate(270)" >dc 0 ac 0</text>
<text fill="#0099cc"  xml:space="preserve" font-size="7.72939" transform="translate(522.145, 246.734)" >vmeas1</text>
<text fill="#0099cc"  xml:space="preserve" font-size="7.72939" transform="translate(797.408, 246.734)" >vmeas2</text>
<text fill="#222222"  xml:space="preserve" font-size="5.72548" transform="translate(669.075, 257.001) rotate(270)" >Vimeas1</text>
<text fill="#222222"  xml:space="preserve" font-size="5.72548" transform="translate(944.338, 257.001) rotate(270)" >Vimeas2</text>
<text fill="#aa2222"  xml:space="preserve" font-size="5.72548" style="font-family:Monospace;" transform="translate(756.463, 482.937)" >?</text>
<text fill="#229900"  xml:space="preserve" font-size="5.72548" transform="translate(753.711, 473.617)" >M1</text>
<path class="l1" d="M698.658 519.027L698.658 552.059"/>
<path class="l1" d="M500.468 519.027L500.468 552.059"/>
<path class="l1" d="M698.658 502.512L737.195 502.512"/>
<path class="l1" d="M737.195 502.512L737.195 552.059"/>
<path class="l1" d="M698.658 408.922L698.658 430.943"/>
<path class="l1" d="M500.468 408.922L500.468 485.996"/>
<path class="l1" d="M577.542 474.985L577.542 502.512"/>
<path class="l1" d="M698.658 474.985L698.658 485.996"/>
<path class="l1" d="M577.542 502.512L676.637 502.512"/>
<path class="l1" d="M577.542 474.985L621.584 474.985"/>
<path class="l1" d="M654.616 474.985L698.658 474.985"/>
<path class="l1" d="M698.658 463.975L698.658 474.985"/>
<path class="l1" d="M973.921 519.027L973.921 552.059"/>
<path class="l1" d="M973.921 502.512L1012.46 502.512"/>
<path class="l1" d="M1012.46 502.512L1012.46 552.059"/>
<path class="l1" d="M973.921 408.922L973.921 430.943"/>
<path class="l1" d="M852.805 474.985L852.805 502.512"/>
<path class="l1" d="M852.805 502.512L951.9 502.512"/>
<path class="l1" d="M973.921 474.985L973.921 485.996"/>
<path class="l1" d="M698.658 408.922L973.921 408.922"/>
<path class="l1" d="M500.468 408.922L698.658 408.922"/>
<path class="l1" d="M852.805 474.985L863.816 474.985"/>
<path class="l1" d="M907.858 474.985L918.869 474.985"/>
<path class="l1" d="M951.9 474.985L973.921 474.985"/>
<path class="l1" d="M973.921 463.975L973.921 474.985"/>
<path class="l1" d="M907.858 474.985L907.858 519.027"/>
<path class="l1" d="M896.848 474.985L907.858 474.985"/>
<path class="l1" d="M698.658 265.785L698.658 298.817"/>
<path class="l1" d="M698.658 249.269L737.195 249.269"/>
<path class="l1" d="M737.195 249.269L737.195 298.817"/>
<path class="l1" d="M698.658 155.68L698.658 177.701"/>
<path class="l1" d="M577.542 221.743L577.542 249.269"/>
<path class="l1" d="M577.542 249.269L676.637 249.269"/>
<path class="l1" d="M698.658 221.743L698.658 232.754"/>
<path class="l1" d="M973.921 265.785L973.921 298.817"/>
<path class="l1" d="M973.921 249.269L1012.46 249.269"/>
<path class="l1" d="M1012.46 249.269L1012.46 298.817"/>
<path class="l1" d="M973.921 155.68L973.921 177.701"/>
<path class="l1" d="M852.805 221.743L852.805 249.269"/>
<path class="l1" d="M852.805 249.269L951.9 249.269"/>
<path class="l1" d="M698.658 155.68L973.921 155.68"/>
<path class="l1" d="M500.468 155.68L698.658 155.68"/>
<path class="l1" d="M577.542 249.269L577.542 260.28"/>
<path class="l1" d="M577.542 293.312L577.542 298.817"/>
<path class="l1" d="M852.805 293.312L852.805 298.817"/>
<path class="l1" d="M852.805 249.269L852.805 260.28"/>
<path class="l1" d="M973.921 221.743L973.921 232.754"/>
<path class="l1" d="M555.521 249.269L577.542 249.269"/>
<path class="l1" d="M830.784 249.269L852.805 249.269"/>
<path class="l1" d="M577.542 221.743L588.553 221.743"/>
<path class="l1" d="M621.584 221.743L643.605 221.743"/>
<path class="l1" d="M676.637 221.743L698.658 221.743"/>
<path class="l1" d="M698.658 210.733L698.658 221.743"/>
<path class="l1" d="M951.9 221.743L973.921 221.743"/>
<path class="l1" d="M973.921 210.733L973.921 221.743"/>
<path class="l1" d="M896.848 221.743L918.869 221.743"/>
<path class="l1" d="M852.805 221.743L863.816 221.743"/>
<circle class="l1" cx="698.658" cy="155.68" r="2.03695"/>
<circle class="l1" cx="577.542" cy="249.269" r="2.03695"/>
<circle class="l1" cx="577.542" cy="249.269" r="2.03695"/>
<circle class="l1" cx="577.542" cy="249.269" r="2.03695"/>
<circle class="l1" cx="577.542" cy="249.269" r="2.03695"/>
<circle class="l1" cx="698.658" cy="408.922" r="2.03695"/>
<circle class="l1" cx="698.658" cy="474.985" r="2.03695"/>
<circle class="l1" cx="698.658" cy="155.68" r="2.03695"/>
<circle class="l1" cx="698.658" cy="155.68" r="2.03695"/>
<circle class="l1" cx="698.658" cy="221.743" r="2.03695"/>
<circle class="l1" cx="698.658" cy="221.743" r="2.03695"/>
<circle class="l1" cx="852.805" cy="249.269" r="2.03695"/>
<circle class="l1" cx="852.805" cy="249.269" r="2.03695"/>
<circle class="l1" cx="852.805" cy="249.269" r="2.03695"/>
<circle class="l1" cx="852.805" cy="249.269" r="2.03695"/>
<circle class="l1" cx="698.658" cy="221.743" r="2.03695"/>
<circle class="l1" cx="698.658" cy="408.922" r="2.03695"/>
<circle class="l1" cx="698.658" cy="408.922" r="2.03695"/>
<circle class="l1" cx="698.658" cy="474.985" r="2.03695"/>
<circle class="l1" cx="698.658" cy="474.985" r="2.03695"/>
<circle class="l1" cx="973.921" cy="221.743" r="2.03695"/>
<circle class="l1" cx="973.921" cy="221.743" r="2.03695"/>
<circle class="l1" cx="973.921" cy="221.743" r="2.03695"/>
<circle class="l1" cx="907.858" cy="474.985" r="2.03695"/>
<circle class="l1" cx="907.858" cy="474.985" r="2.03695"/>
<circle class="l1" cx="973.921" cy="474.985" r="2.03695"/>
<circle class="l1" cx="973.921" cy="474.985" r="2.03695"/>
<circle class="l1" cx="907.858" cy="474.985" r="2.03695"/>
<circle class="l1" cx="973.921" cy="474.985" r="2.03695"/>
<text fill="#222222"  xml:space="preserve" font-size="11.451" transform="translate(456.426, 375.277)" >Middlebrook's Method</text>
<text fill="#222222"  xml:space="preserve" font-size="11.451" transform="translate(456.426, 122.035)" >Tian's Method</text>
</svg>
