<svg xmlns="http://www.w3.org/2000/svg" xmlns:xlink="http://www.w3.org/1999/xlink" width="900" height="532" version="1.1">
<style type="text/css">
.l0{
  fill: #ffffff;
  stroke: #ffffff;
  stroke-linecap:round;
  stroke-linejoin:round;
  stroke-width: 0.78941;
}
.l1{
  fill: #0044ee;
  stroke: #0044ee;
  stroke-linecap:round;
  stroke-linejoin:round;
  stroke-width: 0.78941;
}
.l2{
  fill: #aaaaaa; fill-opacity: 0.2;
  stroke: #aaaaaa;
  stroke-linecap:round;
  stroke-linejoin:round;
  stroke-width: 0.78941;
}
.l3{
  fill: #222222; fill-opacity: 0.5;
  stroke: #222222;
  stroke-linecap:round;
  stroke-linejoin:round;
  stroke-width: 0.78941;
}
.l4{
  fill: #229900;
  stroke: #229900;
  stroke-linecap:round;
  stroke-linejoin:round;
  stroke-width: 0.78941;
}
.l5{
  fill: #bb2200;
  stroke: #bb2200;
  stroke-linecap:round;
  stroke-linejoin:round;
  stroke-width: 0.78941;
}
.l6{
  fill: #00ccee; fill-opacity: 0.5;
  stroke: #00ccee;
  stroke-linecap:round;
  stroke-linejoin:round;
  stroke-width: 0.78941;
}
.l7{
  fill: #ff0000; fill-opacity: 0.5;
  stroke: #ff0000;
  stroke-linecap:round;
  stroke-linejoin:round;
  stroke-width: 0.78941;
}
.l8{
  fill: #888800; fill-opacity: 0.5;
  stroke: #888800;
  stroke-linecap:round;
  stroke-linejoin:round;
  stroke-width: 0.78941;
}
.l9{
  fill: #00aaaa; fill-opacity: 0.5;
  stroke: #00aaaa;
  stroke-linecap:round;
  stroke-linejoin:round;
  stroke-width: 0.78941;
}
.l10{
  fill: #880088;
  stroke: #880088;
  stroke-linecap:round;
  stroke-linejoin:round;
  stroke-width: 0.78941;
}
.l11{
  fill: #00ff00; fill-opacity: 0.5;
  stroke: #00ff00;
  stroke-linecap:round;
  stroke-linejoin:round;
  stroke-width: 0.78941;
}
.l12{
  fill: #0000cc; fill-opacity: 0.5;
  stroke: #0000cc;
  stroke-linecap:round;
  stroke-linejoin:round;
  stroke-width: 0.78941;
}
.l13{
  fill: #666600; fill-opacity: 0.5;
  stroke: #666600;
  stroke-linecap:round;
  stroke-linejoin:round;
  stroke-width: 0.78941;
}
.l14{
  fill: #557755; fill-opacity: 0.2;
  stroke: #557755;
  stroke-linecap:round;
  stroke-linejoin:round;
  stroke-width: 0.78941;
}
.l15{
  fill: #aa2222; fill-opacity: 0.5;
  stroke: #aa2222;
  stroke-linecap:round;
  stroke-linejoin:round;
  stroke-width: 0.78941;
}
.l16{
  fill: #7ccc40; fill-opacity: 0.5;
  stroke: #7ccc40;
  stroke-linecap:round;
  stroke-linejoin:round;
  stroke-width: 0.78941;
}
.l17{
  fill: #00ffcc; fill-opacity: 0.2;
  stroke: #00ffcc;
  stroke-linecap:round;
  stroke-linejoin:round;
  stroke-width: 0.78941;
}
.l18{
  fill: #ce0097; fill-opacity: 0.5;
  stroke: #ce0097;
  stroke-linecap:round;
  stroke-linejoin:round;
  stroke-width: 0.78941;
}
.l19{
  fill: #d2d46b; fill-opacity: 0.2;
  stroke: #d2d46b;
  stroke-linecap:round;
  stroke-linejoin:round;
  stroke-width: 0.78941;
}
.l20{
  fill: #ef6158; fill-opacity: 0.2;
  stroke: #ef6158;
  stroke-linecap:round;
  stroke-linejoin:round;
  stroke-width: 0.78941;
}
.l21{
  fill: #fdb200; fill-opacity: 0.2;
  stroke: #fdb200;
  stroke-linecap:round;
  stroke-linejoin:round;
  stroke-width: 0.78941;
}
text {font-family: Sans-Serif;}
</style>
<rect class="l0" x="0" y="0" width="900" height="532"/>
<text fill="#0044ee"  xml:space="preserve" font-size="7.60172" transform="translate(572.432, 325.53)" >GND</text>
<text fill="#0044ee"  xml:space="preserve" font-size="7.60172" transform="translate(404.317, 325.53)" >GND</text>
<text fill="#0044ee"  xml:space="preserve" font-size="7.60172" transform="translate(623.597, 325.53)" >GND</text>
<text fill="#0044ee"  xml:space="preserve" font-size="12.5428" transform="translate(482.302, 218.092)" >v_gs</text>
<text fill="#0044ee"  xml:space="preserve" font-size="12.5428" transform="translate(364.353, 130.38)" >v_dd</text>
<text fill="#222222"  xml:space="preserve" font-size="11.4026" transform="translate(22.4031, 434.966)" >MODEL</text>
<text fill="#222222"  xml:space="preserve" font-size="11.4026" style="font-family:Monospace;" transform="translate(29.7125, 453.24)" >.lib cornerMOSlv.lib mos_tt</text>
<text fill="#222222"  xml:space="preserve" font-size="11.4026" transform="translate(22.4031, 18.3335)" >NGSPICE</text>
<text fill="#222222"  xml:space="preserve" font-size="11.4026" style="font-family:Monospace;" transform="translate(29.7125, 49.6857)" >.temp 27</text>
<text fill="#222222"  xml:space="preserve" font-size="11.4026" style="font-family:Monospace;" transform="translate(29.7125, 62.7644)" >.control</text>
<text fill="#222222"  xml:space="preserve" font-size="11.4026" style="font-family:Monospace;" transform="translate(29.7125, 75.8432)" >save all</text>
<text fill="#222222"  xml:space="preserve" font-size="11.4026" style="font-family:Monospace;" transform="translate(29.7125, 88.922)" >save @n.xm1.nsg13_lv_nmos[gm]</text>
<text fill="#222222"  xml:space="preserve" font-size="11.4026" style="font-family:Monospace;" transform="translate(29.7125, 102.001)" >save @n.xm1.nsg13_lv_nmos[gds]</text>
<text fill="#222222"  xml:space="preserve" font-size="11.4026" style="font-family:Monospace;" transform="translate(29.7125, 115.079)" >save @n.xm1.nsg13_lv_nmos[vth]</text>
<text fill="#222222"  xml:space="preserve" font-size="11.4026" style="font-family:Monospace;" transform="translate(29.7125, 128.158)" >save @n.xm1.nsg13_lv_nmos[cgg]</text>
<text fill="#222222"  xml:space="preserve" font-size="11.4026" style="font-family:Monospace;" transform="translate(29.7125, 141.237)" >save @n.xm1.nsg13_lv_nmos[cgd]</text>
<text fill="#222222"  xml:space="preserve" font-size="11.4026" style="font-family:Monospace;" transform="translate(29.7125, 154.316)" >save @n.xm1.nsg13_lv_nmos[cgdol]</text>
<text fill="#222222"  xml:space="preserve" font-size="11.4026" style="font-family:Monospace;" transform="translate(29.7125, 167.395)" >save @n.xm1.nsg13_lv_nmos[cgsol]</text>
<text fill="#222222"  xml:space="preserve" font-size="11.4026" style="font-family:Monospace;" transform="translate(29.7125, 180.473)" >save @n.xm1.nsg13_lv_nmos[vdss]</text>
<text fill="#222222"  xml:space="preserve" font-size="11.4026" style="font-family:Monospace;" transform="translate(29.7125, 193.552)" >save @n.xm1.nsg13_lv_nmos[fug]</text>
<text fill="#222222"  xml:space="preserve" font-size="11.4026" style="font-family:Monospace;" transform="translate(29.7125, 206.631)" >save @n.xm1.nsg13_lv_nmos[rg]</text>
<text fill="#222222"  xml:space="preserve" font-size="11.4026" style="font-family:Monospace;" transform="translate(29.7125, 219.71)" >save @n.xm1.nsg13_lv_nmos[sid]</text>
<text fill="#222222"  xml:space="preserve" font-size="11.4026" style="font-family:Monospace;" transform="translate(29.7125, 232.788)" >op</text>
<text fill="#222222"  xml:space="preserve" font-size="11.4026" style="font-family:Monospace;" transform="translate(29.7125, 245.867)" >write mosfet_diode_sizing.raw</text>
<text fill="#222222"  xml:space="preserve" font-size="11.4026" style="font-family:Monospace;" transform="translate(29.7125, 258.946)" >.endc</text>
<text fill="#222222"  xml:space="preserve" font-size="7.60172" transform="translate(413.453, 242.386)" >Vdd</text>
<text fill="#222222"  xml:space="preserve" font-size="7.60172" transform="translate(413.453, 260.659)" >1.5</text>
<text fill="#222222"  xml:space="preserve" font-size="15.2034" transform="translate(307.468, 515.166)" >         mosfet_diode_sizing.sch</text>
<text fill="#222222"  xml:space="preserve" font-size="15.2034" transform="translate(307.468, 493.238)" >(c) 2024 H. Pretl, Apache-2.0 license</text>
<text fill="#222222"  xml:space="preserve" font-size="15.2034" transform="translate(711.252, 493.238)" >2025-03-16  11:47:35</text>
<text fill="#222222"  xml:space="preserve" font-size="38.0086" transform="translate(139.353, 513.945)" >SCHEM</text>
<text fill="#222222"  xml:space="preserve" font-size="7.60172" transform="translate(543.986, 234.163)" >M1</text>
<text fill="#ff0000"  xml:space="preserve" font-size="5.70129" transform="translate(541.022, 247.056)" >G</text>
<text fill="#222222"  xml:space="preserve" font-size="7.60172" transform="translate(574.259, 270.213)" >sg13_lv_nmos</text>
<text fill="#666600"  xml:space="preserve" font-size="7.60172" transform="translate(575.173, 260.659)" >m=1</text>
<text fill="#666600"  xml:space="preserve" font-size="7.60172" transform="translate(575.173, 254.264)" >ng=1</text>
<text fill="#666600"  xml:space="preserve" font-size="7.60172" transform="translate(575.173, 245.127)" >l=0.13u</text>
<text fill="#666600"  xml:space="preserve" font-size="7.60172" transform="translate(575.173, 236.904)" >w=1u</text>
<text fill="#ff0000"  xml:space="preserve" font-size="5.70129" transform="translate(568.777, 267.157)" >S</text>
<text fill="#ff0000"  xml:space="preserve" font-size="5.70129" transform="translate(568.777, 235.035)" >D</text>
<text fill="#ff0000"  xml:space="preserve" font-size="5.70129" transform="translate(566.95, 247.056)" >B</text>
<text fill="#222222"  xml:space="preserve" font-size="15.2034" transform="translate(391.525, 407.49)" >simulate</text>
<text fill="#222222"  xml:space="preserve" font-size="15.2034" transform="translate(566.95, 407.49)" >annotate OP</text>
<text fill="#aa2222"  xml:space="preserve" font-size="7.60172" transform="translate(97.2628, 347.64)" >? </text>
<text fill="#aa2222"  xml:space="preserve" font-size="7.60172" transform="translate(83.2628, 338.504)" >gds=</text>
<text fill="#aa2222"  xml:space="preserve" font-size="7.60172" transform="translate(97.2628, 325.712)" >? </text>
<text fill="#aa2222"  xml:space="preserve" font-size="7.60172" transform="translate(85.2628, 316.576)" >gm=</text>
<text fill="#aa2222"  xml:space="preserve" font-size="7.60172" transform="translate(97.2628, 369.568)" >? </text>
<text fill="#aa2222"  xml:space="preserve" font-size="7.60172" transform="translate(84.2628, 360.432)" >vth=</text>
<text fill="#aa2222"  xml:space="preserve" font-size="7.60172" transform="translate(170.356, 325.712)" >? </text>
<text fill="#aa2222"  xml:space="preserve" font-size="7.60172" transform="translate(157.356, 316.576)" >cgs=</text>
<text fill="#aa2222"  xml:space="preserve" font-size="7.60172" transform="translate(97.2628, 391.496)" >? </text>
<text fill="#aa2222"  xml:space="preserve" font-size="7.60172" transform="translate(43.2628, 382.36)" >vdss(vds_sat)=</text>
<text fill="#aa2222"  xml:space="preserve" font-size="7.60172" transform="translate(170.356, 347.64)" >? </text>
<text fill="#aa2222"  xml:space="preserve" font-size="7.60172" transform="translate(141.356, 338.504)" >fug(f_t)=</text>
<text fill="#aa2222"  xml:space="preserve" font-size="7.60172" transform="translate(170.356, 369.568)" >? </text>
<text fill="#aa2222"  xml:space="preserve" font-size="7.60172" transform="translate(156.356, 360.432)" >cdg=</text>
<text fill="#aa2222"  xml:space="preserve" font-size="7.60172" transform="translate(243.45, 325.712)" >? </text>
<text fill="#aa2222"  xml:space="preserve" font-size="7.60172" transform="translate(232.45, 316.576)" >sid=</text>
<text fill="#aa2222"  xml:space="preserve" font-size="7.60172" transform="translate(170.356, 391.496)" >? </text>
<text fill="#aa2222"  xml:space="preserve" font-size="7.60172" transform="translate(162.356, 382.36)" >rg=</text>
<text fill="#222222"  xml:space="preserve" font-size="7.60172" transform="translate(581.568, 175.688)" >Ibias</text>
<text fill="#222222"  xml:space="preserve" font-size="7.60172" transform="translate(581.568, 184.407)" >20u</text>
<text fill="#aa2222"  xml:space="preserve" font-size="7.60172" style="font-family:Monospace;" transform="translate(680.244, 215.889)" >?</text>
<text fill="#229900"  xml:space="preserve" font-size="7.60172" transform="translate(676.59, 203.516)" >M1</text>
<path class="l4" d="M18.7484 439.232L69.9139 439.232"/>
<path class="l4" d="M18.7484 439.232L18.7484 453.85"/>
<path class="l4" d="M18.7484 22.5987L69.9139 22.5987"/>
<path class="l4" d="M18.7484 22.5987L18.7484 37.2174"/>
<path class="l4" d="M566.95 314.973L566.95 324.109"/>
<path class="l4" d="M563.295 324.109L570.604 324.109"/>
<path class="l4" d="M566.95 327.764L570.604 324.109"/>
<path class="l4" d="M563.295 324.109L566.95 327.764"/>
<path class="l4" d="M400.662 232.742L404.317 232.742"/>
<path class="l4" d="M402.489 230.915L402.489 234.57"/>
<path class="l4" d="M398.835 227.26L398.835 271.117"/>
<circle class="l4" cx="398.835" cy="249.188" r="10.964" style="fill:none;" />
<path class="l4" d="M398.835 314.973L398.835 324.109"/>
<path class="l4" d="M395.18 324.109L402.489 324.109"/>
<path class="l4" d="M398.835 327.764L402.489 324.109"/>
<path class="l4" d="M395.18 324.109L398.835 327.764"/>
<path class="l4" d="M618.115 314.973L618.115 324.109"/>
<path class="l4" d="M614.46 324.109L621.77 324.109"/>
<path class="l4" d="M618.115 327.764L621.77 324.109"/>
<path class="l4" d="M614.46 324.109L618.115 327.764"/>
<path class="l4" d="M557.813 232.742L557.813 265.635"/>
<path class="l4" d="M566.95 227.26L566.95 236.397"/>
<path class="l4" d="M566.95 261.98L566.95 271.117"/>
<path class="l4" d="M554.158 238.224L554.158 260.153"/>
<path class="l4" d="M557.813 261.98L566.95 261.98"/>
<path class="l4" d="M557.813 236.397L566.95 236.397"/>
<path class="l4" d="M537.712 249.188L553.793 249.188"/>
<path class="l4" d="M563.295 263.807L566.95 261.98L563.295 260.153L563.295 263.807"/>
<path class="l4" d="M384.216 402.685L362.288 393.548L362.288 399.03L340.36 399.03L347.669 402.685L340.36 406.339L362.288 406.339L362.288 411.822L384.216 402.685"/>
<path class="l4" d="M559.64 402.685L537.712 393.548L537.712 399.03L515.784 399.03L523.093 402.685L515.784 406.339L537.712 406.339L537.712 411.822L559.64 402.685"/>
<path class="l4" d="M566.95 154.167L566.95 165.131"/>
<path class="l4" d="M566.95 187.059L566.95 198.023"/>
<path class="l4" d="M568.777 159.649L572.432 159.649"/>
<path class="l4" d="M570.604 157.822L570.604 161.476"/>
<path class="l4" d="M566.95 170.613L566.95 177.922L568.777 177.922L566.95 183.404L565.122 177.922L566.95 177.922L566.95 170.613"/>
<circle class="l4" cx="566.95" cy="176.095" r="10.964" style="fill:none;" />
<path class="l4" d="M676.59 205.332L676.59 212.642"/>
<path class="l4" d="M676.59 205.332L683.899 205.332"/>
<path class="l5" d="M565.122 313.145L568.777 313.145L568.777 316.8L565.122 316.8L565.122 313.145z"/>
<path class="l5" d="M397.007 225.433L400.662 225.433L400.662 229.088L397.007 229.088L397.007 225.433z"/>
<path class="l5" d="M397.007 269.289L400.662 269.289L400.662 272.944L397.007 272.944L397.007 269.289z"/>
<path class="l5" d="M397.007 313.145L400.662 313.145L400.662 316.8L397.007 316.8L397.007 313.145z"/>
<path class="l5" d="M616.288 313.145L619.942 313.145L619.942 316.8L616.288 316.8L616.288 313.145z"/>
<path class="l5" d="M128.389 486.742L128.16 486.971L127.932 487.199L127.703 487.428L127.475 487.656L127.247 487.884L127.018 488.113L126.79 488.341L126.561 488.57L126.333 488.798L126.104 489.026L125.876 489.255L125.648 489.483L125.419 489.712L125.191 489.94L124.962 490.169L124.734 490.397L124.506 490.625L124.277 490.854L124.049 491.082L123.82 491.311L123.592 491.539L123.363 491.767L123.135 491.996L122.907 492.224L122.678 492.453L122.45 492.681L122.221 492.91L121.993 493.138L121.765 493.366L121.536 493.595L121.308 493.823L121.079 494.052L121.079 494.052L120.858 494.28L120.651 494.509L120.458 494.737L120.28 494.965L120.116 495.194L119.966 495.422L119.83 495.651L119.709 495.879L119.602 496.107L119.509 496.336L119.43 496.564L119.366 496.793L119.316 497.021L119.281 497.25L119.259 497.478L119.252 497.706L119.259 497.935L119.281 498.163L119.316 498.392L119.366 498.62L119.43 498.848L119.509 499.077L119.602 499.305L119.709 499.534L119.83 499.762L119.966 499.991L120.116 500.219L120.28 500.447L120.458 500.676L120.651 500.904L120.858 501.133L121.079 501.361L121.079 501.361L121.309 501.59L121.54 501.821L121.773 502.054L122.007 502.289L122.244 502.525L122.482 502.764L122.722 503.004L122.964 503.245L123.207 503.489L123.453 503.734L123.7 503.982L123.949 504.231L124.2 504.481L124.452 504.734L124.706 504.988L124.962 505.244L125.22 505.502L125.48 505.762L125.741 506.023L126.005 506.286L126.27 506.551L126.536 506.818L126.805 507.087L127.075 507.357L127.347 507.629L127.621 507.903L127.897 508.179L128.175 508.456L128.454 508.736L128.735 509.017L129.018 509.299L129.302 509.584L129.302 509.584L129.586 509.868L129.866 510.148L130.143 510.425L130.416 510.698L130.685 510.967L130.951 511.233L131.214 511.495L131.472 511.754L131.727 512.009L131.979 512.261L132.227 512.509L132.472 512.753L132.713 512.994L132.95 513.232L133.184 513.465L133.414 513.696L133.64 513.922L133.864 514.145L134.083 514.365L134.299 514.581L134.511 514.793L134.72 515.002L134.925 515.207L135.127 515.409L135.325 515.607L135.52 515.801L135.711 515.992L135.898 516.18L136.082 516.363L136.262 516.544L136.439 516.72L136.612 516.893L136.612 516.893L136.778 517.062L136.933 517.225L137.077 517.383L137.211 517.536L137.334 517.683L137.447 517.825L137.549 517.961L137.64 518.093L137.72 518.218L137.789 518.339L137.848 518.454L137.897 518.564L137.934 518.668L137.961 518.767L137.977 518.861L137.982 518.949L137.977 519.032L137.961 519.11L137.934 519.182L137.897 519.249L137.848 519.311L137.789 519.367L137.72 519.418L137.64 519.463L137.549 519.503L137.447 519.538L137.334 519.567L137.211 519.592L137.077 519.61L136.933 519.624L136.778 519.632L136.612 519.634L136.612 519.634L136.44 519.634L136.269 519.634L136.098 519.634L135.926 519.634L135.755 519.634L135.584 519.634L135.412 519.634L135.241 519.634L135.07 519.634L134.899 519.634L134.727 519.634L134.556 519.634L134.385 519.634L134.213 519.634L134.042 519.634L133.871 519.634L133.699 519.634L133.528 519.634L133.357 519.634L133.185 519.634L133.014 519.634L132.843 519.634L132.671 519.634L132.5 519.634L132.329 519.634L132.158 519.634L131.986 519.634L131.815 519.634L131.644 519.634L131.472 519.634L131.301 519.634L131.13 519.634L131.13 519.634L130.959 519.634L130.791 519.634L130.624 519.634L130.459 519.634L130.295 519.634L130.134 519.634L129.974 519.634L129.816 519.634L129.66 519.634L129.506 519.634L129.353 519.634L129.202 519.634L129.053 519.634L128.906 519.634L128.761 519.634L128.617 519.634L128.475 519.634L128.335 519.634L128.197 519.634L128.06 519.634L127.926 519.634L127.793 519.634L127.661 519.634L127.532 519.634L127.405 519.634L127.279 519.634L127.155 519.634L127.032 519.634L126.912 519.634L126.793 519.634L126.676 519.634L126.561 519.634L126.561 519.634L126.447 519.633L126.333 519.627L126.219 519.618L126.104 519.606L125.99 519.59L125.876 519.57L125.762 519.547L125.648 519.52L125.533 519.49L125.419 519.456L125.305 519.418L125.191 519.377L125.077 519.333L124.962 519.285L124.848 519.233L124.734 519.178L124.62 519.119L124.506 519.056L124.391 518.99L124.277 518.921L124.163 518.847L124.049 518.771L123.935 518.69L123.82 518.607L123.706 518.519L123.592 518.428L123.478 518.333L123.363 518.235L123.249 518.134L123.135 518.028L123.021 517.919L122.907 517.807L122.907 517.807L122.792 517.693L122.678 517.579L122.564 517.464L122.45 517.35L122.336 517.236L122.221 517.122L122.107 517.008L121.993 516.893L121.879 516.779L121.765 516.665L121.65 516.551L121.536 516.437L121.422 516.322L121.308 516.208L121.194 516.094L121.079 515.98L120.965 515.866L120.851 515.751L120.737 515.637L120.622 515.523L120.508 515.409L120.394 515.294L120.28 515.18L120.166 515.066L120.051 514.952L119.937 514.838L119.823 514.723L119.709 514.609L119.595 514.495L119.48 514.381L119.366 514.267L119.252 514.152L119.252 514.152L119.136 514.036L119.016 513.917L118.893 513.794L118.767 513.667L118.636 513.537L118.502 513.403L118.365 513.265L118.224 513.125L118.08 512.98L117.931 512.832L117.78 512.68L117.625 512.525L117.466 512.366L117.303 512.204L117.137 512.038L116.968 511.868L116.795 511.695L116.618 511.518L116.438 511.338L116.254 511.154L116.067 510.967L115.876 510.776L115.681 510.582L115.483 510.383L115.281 510.182L115.076 509.977L114.867 509.768L114.655 509.555L114.439 509.34L114.22 509.12L113.997 508.897L113.77 508.67L113.77 508.67L113.542 508.449L113.313 508.242L113.085 508.049L112.856 507.871L112.628 507.707L112.399 507.557L112.171 507.421L111.943 507.3L111.714 507.193L111.486 507.1L111.257 507.021L111.029 506.957L110.801 506.907L110.572 506.872L110.344 506.85L110.115 506.843L109.887 506.85L109.658 506.872L109.43 506.907L109.202 506.957L108.973 507.021L108.745 507.1L108.516 507.193L108.288 507.3L108.06 507.421L107.831 507.557L107.603 507.707L107.374 507.871L107.146 508.049L106.917 508.242L106.689 508.449L106.461 508.67L106.461 508.67L106.234 508.897L106.011 509.12L105.791 509.34L105.576 509.555L105.363 509.768L105.154 509.977L104.949 510.182L104.747 510.383L104.549 510.582L104.355 510.776L104.164 510.967L103.977 511.154L103.793 511.338L103.613 511.518L103.436 511.695L103.263 511.868L103.093 512.038L102.927 512.204L102.765 512.366L102.606 512.525L102.451 512.68L102.299 512.832L102.151 512.98L102.006 513.125L101.866 513.265L101.728 513.403L101.594 513.537L101.464 513.667L101.337 513.794L101.214 513.917L101.095 514.036L100.979 514.152L100.979 514.152L100.864 514.267L100.75 514.381L100.636 514.495L100.522 514.609L100.408 514.723L100.293 514.838L100.179 514.952L100.065 515.066L99.9507 515.18L99.8365 515.294L99.7223 515.409L99.6081 515.523L99.4939 515.637L99.3797 515.751L99.2655 515.866L99.1513 515.98L99.0371 516.094L98.9229 516.208L98.8086 516.322L98.6944 516.437L98.5802 516.551L98.466 516.665L98.3518 516.779L98.2376 516.893L98.1234 517.008L98.0092 517.122L97.895 517.236L97.7808 517.35L97.6666 517.464L97.5524 517.579L97.4381 517.693L97.3239 517.807L97.3239 517.807L97.2097 517.919L97.0955 518.028L96.9813 518.134L96.8671 518.235L96.7529 518.333L96.6387 518.428L96.5245 518.519L96.4103 518.607L96.2961 518.69L96.1819 518.771L96.0676 518.847L95.9534 518.921L95.8392 518.99L95.725 519.056L95.6108 519.119L95.4966 519.178L95.3824 519.233L95.2682 519.285L95.154 519.333L95.0398 519.377L94.9256 519.418L94.8113 519.456L94.6971 519.49L94.5829 519.52L94.4687 519.547L94.3545 519.57L94.2403 519.59L94.1261 519.606L94.0119 519.618L93.8977 519.627L93.7835 519.633L93.6693 519.634L93.6693 519.634L93.5542 519.634L93.4373 519.634L93.3186 519.634L93.1982 519.634L93.0759 519.634L92.9519 519.634L92.8261 519.634L92.6985 519.634L92.5691 519.634L92.438 519.634L92.305 519.634L92.1703 519.634L92.0338 519.634L91.8955 519.634L91.7554 519.634L91.6135 519.634L91.4699 519.634L91.3244 519.634L91.1772 519.634L91.0282 519.634L90.8774 519.634L90.7248 519.634L90.5705 519.634L90.4143 519.634L90.2564 519.634L90.0967 519.634L89.9352 519.634L89.7719 519.634L89.6068 519.634L89.44 519.634L89.2713 519.634L89.1009 519.634L89.1009 519.634L88.9296 519.634L88.7583 519.634L88.587 519.634L88.4157 519.634L88.2444 519.634L88.073 519.634L87.9017 519.634L87.7304 519.634L87.5591 519.634L87.3878 519.634L87.2165 519.634L87.0452 519.634L86.8739 519.634L86.7025 519.634L86.5312 519.634L86.3599 519.634L86.1886 519.634L86.0173 519.634L85.846 519.634L85.6747 519.634L85.5034 519.634L85.332 519.634L85.1607 519.634L84.9894 519.634L84.8181 519.634L84.6468 519.634L84.4755 519.634L84.3042 519.634L84.1328 519.634L83.9615 519.634L83.7902 519.634L83.6189 519.634L83.6189 519.634L83.453 519.632L83.2977 519.624L83.1532 519.61L83.0193 519.592L82.8962 519.567L82.7838 519.538L82.682 519.503L82.591 519.463L82.5107 519.418L82.4411 519.367L82.3822 519.311L82.3341 519.249L82.2966 519.182L82.2698 519.11L82.2538 519.032L82.2484 518.949L82.2538 518.861L82.2698 518.767L82.2966 518.668L82.3341 518.564L82.3822 518.454L82.4411 518.339L82.5107 518.218L82.591 518.093L82.682 517.961L82.7838 517.825L82.8962 517.683L83.0193 517.536L83.1532 517.383L83.2977 517.225L83.453 517.062L83.6189 516.893L83.6189 516.893L83.792 516.72L83.9687 516.544L84.1489 516.363L84.3327 516.18L84.5201 515.992L84.711 515.801L84.9055 515.607L85.1036 515.409L85.3053 515.207L85.5105 515.002L85.7193 514.793L85.9316 514.581L86.1476 514.365L86.3671 514.145L86.5901 513.922L86.8167 513.696L87.047 513.465L87.2807 513.232L87.5181 512.994L87.759 512.753L88.0034 512.509L88.2515 512.261L88.5031 512.009L88.7583 511.754L89.017 511.495L89.2794 511.233L89.5453 510.967L89.8147 510.698L90.0878 510.425L90.3644 510.148L90.6445 509.868L90.9283 509.584L90.9283 509.584L91.2129 509.299L91.4957 509.017L91.7768 508.736L92.0561 508.456L92.3336 508.179L92.6093 507.903L92.8832 507.629L93.1553 507.357L93.4257 507.087L93.6942 506.818L93.961 506.551L94.226 506.286L94.4892 506.023L94.7507 505.762L95.0103 505.502L95.2682 505.244L95.5243 504.988L95.7786 504.734L96.0311 504.481L96.2818 504.231L96.5307 503.982L96.7779 503.734L97.0232 503.489L97.2668 503.245L97.5086 503.004L97.7487 502.764L97.9869 502.525L98.2233 502.289L98.458 502.054L98.6909 501.821L98.922 501.59L99.1513 501.361L99.1513 501.361L99.3726 501.133L99.5796 500.904L99.7723 500.676L99.9507 500.447L100.115 500.219L100.265 499.991L100.4 499.762L100.522 499.534L100.629 499.305L100.722 499.077L100.8 498.848L100.864 498.62L100.914 498.392L100.95 498.163L100.971 497.935L100.979 497.706L100.971 497.478L100.95 497.25L100.914 497.021L100.864 496.793L100.8 496.564L100.722 496.336L100.629 496.107L100.522 495.879L100.4 495.651L100.265 495.422L100.115 495.194L99.9507 494.965L99.7723 494.737L99.5796 494.509L99.3726 494.28L99.1513 494.052L99.1513 494.052L98.922 493.822L98.6909 493.591L98.458 493.358L98.2233 493.124L97.9869 492.887L97.7487 492.649L97.5086 492.409L97.2668 492.167L97.0232 491.924L96.7779 491.678L96.5307 491.431L96.2818 491.182L96.0311 490.931L95.7786 490.679L95.5243 490.425L95.2682 490.169L95.0103 489.911L94.7507 489.651L94.4892 489.39L94.226 489.126L93.961 488.861L93.6942 488.595L93.4257 488.326L93.1553 488.056L92.8832 487.784L92.6093 487.51L92.3336 487.234L92.0561 486.956L91.7768 486.677L91.4957 486.396L91.2129 486.113L90.9283 485.829L90.9283 485.829L90.6445 485.545L90.3644 485.265L90.0878 484.988L89.8147 484.715L89.5453 484.446L89.2794 484.18L89.017 483.917L88.7583 483.659L88.5031 483.404L88.2515 483.152L88.0034 482.904L87.759 482.659L87.5181 482.418L87.2807 482.181L87.047 481.947L86.8167 481.717L86.5901 481.491L86.3671 481.267L86.1476 481.048L85.9316 480.832L85.7193 480.62L85.5105 480.411L85.3053 480.206L85.1036 480.004L84.9055 479.806L84.711 479.611L84.5201 479.42L84.3327 479.233L84.1489 479.049L83.9687 478.869L83.792 478.692L83.6189 478.519L83.6189 478.519L83.453 478.351L83.2977 478.187L83.1532 478.029L83.0193 477.877L82.8962 477.73L82.7838 477.588L82.682 477.451L82.591 477.32L82.5107 477.194L82.4411 477.074L82.3822 476.959L82.3341 476.849L82.2966 476.745L82.2698 476.646L82.2538 476.552L82.2484 476.464L82.2538 476.381L82.2698 476.303L82.2966 476.231L82.3341 476.164L82.3822 476.102L82.4411 476.046L82.5107 475.995L82.591 475.95L82.682 475.909L82.7838 475.875L82.8962 475.845L83.0193 475.821L83.1532 475.802L83.2977 475.789L83.453 475.781L83.6189 475.778L83.6189 475.778L83.7902 475.778L83.9615 475.778L84.1328 475.778L84.3042 475.778L84.4755 475.778L84.6468 475.778L84.8181 475.778L84.9894 475.778L85.1607 475.778L85.332 475.778L85.5034 475.778L85.6747 475.778L85.846 475.778L86.0173 475.778L86.1886 475.778L86.3599 475.778L86.5312 475.778L86.7025 475.778L86.8739 475.778L87.0452 475.778L87.2165 475.778L87.3878 475.778L87.5591 475.778L87.7304 475.778L87.9017 475.778L88.073 475.778L88.2444 475.778L88.4157 475.778L88.587 475.778L88.7583 475.778L88.9296 475.778L89.1009 475.778L89.1009 475.778L89.2713 475.778L89.44 475.778L89.6068 475.778L89.7719 475.778L89.9352 475.778L90.0967 475.778L90.2564 475.778L90.4143 475.778L90.5705 475.778L90.7248 475.778L90.8774 475.778L91.0282 475.778L91.1772 475.778L91.3244 475.778L91.4699 475.778L91.6135 475.778L91.7554 475.778L91.8955 475.778L92.0338 475.778L92.1703 475.778L92.305 475.778L92.438 475.778L92.5691 475.778L92.6985 475.778L92.8261 475.778L92.9519 475.778L93.0759 475.778L93.1982 475.778L93.3186 475.778L93.4373 475.778L93.5542 475.778L93.6693 475.778L93.6693 475.778L93.7835 475.78L93.8977 475.785L94.0119 475.794L94.1261 475.807L94.2403 475.823L94.3545 475.843L94.4687 475.866L94.5829 475.893L94.6971 475.923L94.8113 475.957L94.9256 475.994L95.0398 476.035L95.154 476.08L95.2682 476.128L95.3824 476.18L95.4966 476.235L95.6108 476.294L95.725 476.356L95.8392 476.423L95.9534 476.492L96.0676 476.565L96.1819 476.642L96.2961 476.722L96.4103 476.806L96.5245 476.894L96.6387 476.985L96.7529 477.079L96.8671 477.177L96.9813 477.279L97.0955 477.384L97.2097 477.493L97.3239 477.606L97.3239 477.606L97.4381 477.72L97.5524 477.834L97.6666 477.948L97.7808 478.062L97.895 478.177L98.0092 478.291L98.1234 478.405L98.2376 478.519L98.3518 478.634L98.466 478.748L98.5802 478.862L98.6944 478.976L98.8086 479.09L98.9229 479.205L99.0371 479.319L99.1513 479.433L99.2655 479.547L99.3797 479.661L99.4939 479.776L99.6081 479.89L99.7223 480.004L99.8365 480.118L99.9507 480.232L100.065 480.347L100.179 480.461L100.293 480.575L100.408 480.689L100.522 480.803L100.636 480.918L100.75 481.032L100.864 481.146L100.979 481.26L100.979 481.26L101.095 481.376L101.214 481.496L101.337 481.619L101.464 481.746L101.594 481.876L101.728 482.01L101.866 482.147L102.006 482.288L102.151 482.433L102.299 482.581L102.451 482.733L102.606 482.888L102.765 483.047L102.927 483.209L103.093 483.375L103.263 483.544L103.436 483.718L103.613 483.894L103.793 484.074L103.977 484.258L104.164 484.446L104.355 484.637L104.549 484.831L104.747 485.029L104.949 485.231L105.154 485.436L105.363 485.645L105.576 485.857L105.791 486.073L106.011 486.293L106.234 486.516L106.461 486.742L106.461 486.742L106.689 486.964L106.917 487.171L107.146 487.363L107.374 487.542L107.603 487.706L107.831 487.856L108.06 487.991L108.288 488.113L108.516 488.22L108.745 488.313L108.973 488.391L109.202 488.455L109.43 488.505L109.658 488.541L109.887 488.563L110.115 488.57L110.344 488.563L110.572 488.541L110.801 488.505L111.029 488.455L111.257 488.391L111.486 488.313L111.714 488.22L111.943 488.113L112.171 487.991L112.399 487.856L112.628 487.706L112.856 487.542L113.085 487.363L113.313 487.171L113.542 486.964L113.77 486.742L113.77 486.742L113.997 486.516L114.22 486.293L114.439 486.073L114.655 485.857L114.867 485.645L115.076 485.436L115.281 485.231L115.483 485.029L115.681 484.831L115.876 484.637L116.067 484.446L116.254 484.258L116.438 484.074L116.618 483.894L116.795 483.718L116.968 483.544L117.137 483.375L117.303 483.209L117.466 483.047L117.625 482.888L117.78 482.733L117.931 482.581L118.08 482.433L118.224 482.288L118.365 482.147L118.502 482.01L118.636 481.876L118.767 481.746L118.893 481.619L119.016 481.496L119.136 481.376L119.252 481.26L119.252 481.26L119.366 481.146L119.48 481.032L119.595 480.918L119.709 480.803L119.823 480.689L119.937 480.575L120.051 480.461L120.166 480.347L120.28 480.232L120.394 480.118L120.508 480.004L120.622 479.89L120.737 479.776L120.851 479.661L120.965 479.547L121.079 479.433L121.194 479.319L121.308 479.205L121.422 479.09L121.536 478.976L121.65 478.862L121.765 478.748L121.879 478.634L121.993 478.519L122.107 478.405L122.221 478.291L122.336 478.177L122.45 478.062L122.564 477.948L122.678 477.834L122.792 477.72L122.907 477.606L122.907 477.606L123.021 477.493L123.135 477.384L123.249 477.279L123.363 477.177L123.478 477.079L123.592 476.985L123.706 476.894L123.82 476.806L123.935 476.722L124.049 476.642L124.163 476.565L124.277 476.492L124.391 476.423L124.506 476.356L124.62 476.294L124.734 476.235L124.848 476.18L124.962 476.128L125.077 476.08L125.191 476.035L125.305 475.994L125.419 475.957L125.533 475.923L125.648 475.893L125.762 475.866L125.876 475.843L125.99 475.823L126.104 475.807L126.219 475.794L126.333 475.785L126.447 475.78L126.561 475.778L126.561 475.778L126.676 475.778L126.793 475.778L126.912 475.778L127.032 475.778L127.155 475.778L127.279 475.778L127.405 475.778L127.532 475.778L127.661 475.778L127.793 475.778L127.926 475.778L128.06 475.778L128.197 475.778L128.335 475.778L128.475 475.778L128.617 475.778L128.761 475.778L128.906 475.778L129.053 475.778L129.202 475.778L129.353 475.778L129.506 475.778L129.66 475.778L129.816 475.778L129.974 475.778L130.134 475.778L130.295 475.778L130.459 475.778L130.624 475.778L130.791 475.778L130.959 475.778L131.13 475.778L131.13 475.778L131.301 475.778L131.472 475.778L131.644 475.778L131.815 475.778L131.986 475.778L132.158 475.778L132.329 475.778L132.5 475.778L132.671 475.778L132.843 475.778L133.014 475.778L133.185 475.778L133.357 475.778L133.528 475.778L133.699 475.778L133.871 475.778L134.042 475.778L134.213 475.778L134.385 475.778L134.556 475.778L134.727 475.778L134.899 475.778L135.07 475.778L135.241 475.778L135.412 475.778L135.584 475.778L135.755 475.778L135.926 475.778L136.098 475.778L136.269 475.778L136.44 475.778L136.612 475.778L136.612 475.778L136.778 475.781L136.933 475.789L137.077 475.802L137.211 475.821L137.334 475.845L137.447 475.875L137.549 475.909L137.64 475.95L137.72 475.995L137.789 476.046L137.848 476.102L137.897 476.164L137.934 476.231L137.961 476.303L137.977 476.381L137.982 476.464L137.977 476.552L137.961 476.646L137.934 476.745L137.897 476.849L137.848 476.959L137.789 477.074L137.72 477.194L137.64 477.32L137.549 477.451L137.447 477.588L137.334 477.73L137.211 477.877L137.077 478.029L136.933 478.187L136.778 478.351L136.612 478.519L136.612 478.519L136.438 478.693L136.258 478.873L136.074 479.057L135.884 479.247L135.688 479.443L135.487 479.644L135.281 479.85L135.07 480.061L134.853 480.278L134.631 480.5L134.403 480.728L134.17 480.961L133.932 481.199L133.689 481.442L133.44 481.691L133.185 481.946L132.926 482.205L132.661 482.47L132.39 482.741L132.115 483.016L131.834 483.297L131.547 483.584L131.255 483.876L130.958 484.173L130.656 484.475L130.348 484.783L130.035 485.096L129.716 485.415L129.392 485.739L129.063 486.068L128.729 486.402L128.389 486.742"/>
<path class="l5" d="M566.95 251.016L563.295 249.188L566.95 247.361L566.95 251.016"/>
<path class="l5" d="M565.122 225.433L568.777 225.433L568.777 229.088L565.122 229.088L565.122 225.433z"/>
<path class="l5" d="M535.885 247.361L539.54 247.361L539.54 251.016L535.885 251.016L535.885 247.361z"/>
<path class="l5" d="M565.122 269.289L568.777 269.289L568.777 272.944L565.122 272.944L565.122 269.289z"/>
<path class="l5" d="M566.892 249.131L567.007 249.131L567.007 249.246L566.892 249.246L566.892 249.131z"/>
<path class="l5" d="M565.122 152.34L568.777 152.34L568.777 155.994L565.122 155.994L565.122 152.34z"/>
<path class="l5" d="M565.122 196.196L568.777 196.196L568.777 199.85L565.122 199.85L565.122 196.196z"/>
<path class="l5" d="M514.87 211.728L516.698 211.728L516.698 213.555L514.87 213.555L514.87 211.728z"/>
<path class="l5" d="M397.921 124.016L399.748 124.016L399.748 125.843L397.921 125.843L397.921 124.016z"/>
<path class="l6" d="M300.158 497.706L881.252 497.706"/>
<path class="l6" d="M18.7484 497.706L66.2592 497.706"/>
<circle class="l15" cx="106.461" cy="351.519" r="1.3705" />
<circle class="l15" cx="106.461" cy="329.591" r="1.3705" />
<circle class="l15" cx="106.461" cy="373.447" r="1.3705" />
<circle class="l15" cx="179.554" cy="329.591" r="1.3705" />
<circle class="l15" cx="106.461" cy="395.375" r="1.3705" />
<circle class="l15" cx="179.554" cy="351.519" r="1.3705" />
<circle class="l15" cx="179.554" cy="373.447" r="1.3705" />
<circle class="l15" cx="252.648" cy="329.591" r="1.3705" />
<circle class="l15" cx="179.554" cy="395.375" r="1.3705" />
<path class="l1" d="M566.95 271.117L566.95 314.973"/>
<path class="l1" d="M398.835 271.117L398.835 314.973"/>
<path class="l1" d="M566.95 249.188L618.115 249.188"/>
<path class="l1" d="M618.115 249.188L618.115 314.973"/>
<path class="l1" d="M566.95 124.93L566.95 154.167"/>
<path class="l1" d="M398.835 124.93L398.835 227.26"/>
<path class="l1" d="M398.835 124.93L566.95 124.93"/>
<path class="l1" d="M566.95 212.642L566.95 227.26"/>
<path class="l1" d="M515.784 249.188L537.712 249.188"/>
<path class="l1" d="M515.784 212.642L515.784 249.188"/>
<path class="l1" d="M515.784 212.642L566.95 212.642"/>
<path class="l1" d="M566.95 198.023L566.95 212.642"/>
<circle class="l1" cx="566.95" cy="212.642" r="2.70446"/>
<circle class="l1" cx="566.95" cy="212.642" r="2.70446"/>
<circle class="l1" cx="566.95" cy="212.642" r="2.70446"/>
</svg>
