<svg xmlns="http://www.w3.org/2000/svg" xmlns:xlink="http://www.w3.org/1999/xlink" width="900" height="506" version="1.1">
<style type="text/css">
.l0{
  fill: #ffffff;
  stroke: #ffffff;
  stroke-linecap:round;
  stroke-linejoin:round;
  stroke-width: 0.750829;
}
.l1{
  fill: #0044ee;
  stroke: #0044ee;
  stroke-linecap:round;
  stroke-linejoin:round;
  stroke-width: 0.750829;
}
.l2{
  fill: #aaaaaa; fill-opacity: 0.2;
  stroke: #aaaaaa;
  stroke-linecap:round;
  stroke-linejoin:round;
  stroke-width: 0.750829;
}
.l3{
  fill: #222222; fill-opacity: 0.5;
  stroke: #222222;
  stroke-linecap:round;
  stroke-linejoin:round;
  stroke-width: 0.750829;
}
.l4{
  fill: #229900;
  stroke: #229900;
  stroke-linecap:round;
  stroke-linejoin:round;
  stroke-width: 0.750829;
}
.l5{
  fill: #bb2200;
  stroke: #bb2200;
  stroke-linecap:round;
  stroke-linejoin:round;
  stroke-width: 0.750829;
}
.l6{
  fill: #00ccee; fill-opacity: 0.5;
  stroke: #00ccee;
  stroke-linecap:round;
  stroke-linejoin:round;
  stroke-width: 0.750829;
}
.l7{
  fill: #ff0000; fill-opacity: 0.5;
  stroke: #ff0000;
  stroke-linecap:round;
  stroke-linejoin:round;
  stroke-width: 0.750829;
}
.l8{
  fill: #888800; fill-opacity: 0.5;
  stroke: #888800;
  stroke-linecap:round;
  stroke-linejoin:round;
  stroke-width: 0.750829;
}
.l9{
  fill: #00aaaa; fill-opacity: 0.5;
  stroke: #00aaaa;
  stroke-linecap:round;
  stroke-linejoin:round;
  stroke-width: 0.750829;
}
.l10{
  fill: #880088;
  stroke: #880088;
  stroke-linecap:round;
  stroke-linejoin:round;
  stroke-width: 0.750829;
}
.l11{
  fill: #00ff00; fill-opacity: 0.5;
  stroke: #00ff00;
  stroke-linecap:round;
  stroke-linejoin:round;
  stroke-width: 0.750829;
}
.l12{
  fill: #0000cc; fill-opacity: 0.5;
  stroke: #0000cc;
  stroke-linecap:round;
  stroke-linejoin:round;
  stroke-width: 0.750829;
}
.l13{
  fill: #666600; fill-opacity: 0.5;
  stroke: #666600;
  stroke-linecap:round;
  stroke-linejoin:round;
  stroke-width: 0.750829;
}
.l14{
  fill: #557755; fill-opacity: 0.2;
  stroke: #557755;
  stroke-linecap:round;
  stroke-linejoin:round;
  stroke-width: 0.750829;
}
.l15{
  fill: #aa2222; fill-opacity: 0.5;
  stroke: #aa2222;
  stroke-linecap:round;
  stroke-linejoin:round;
  stroke-width: 0.750829;
}
.l16{
  fill: #7ccc40; fill-opacity: 0.5;
  stroke: #7ccc40;
  stroke-linecap:round;
  stroke-linejoin:round;
  stroke-width: 0.750829;
}
.l17{
  fill: #00ffcc; fill-opacity: 0.2;
  stroke: #00ffcc;
  stroke-linecap:round;
  stroke-linejoin:round;
  stroke-width: 0.750829;
}
.l18{
  fill: #ce0097; fill-opacity: 0.5;
  stroke: #ce0097;
  stroke-linecap:round;
  stroke-linejoin:round;
  stroke-width: 0.750829;
}
.l19{
  fill: #d2d46b; fill-opacity: 0.2;
  stroke: #d2d46b;
  stroke-linecap:round;
  stroke-linejoin:round;
  stroke-width: 0.750829;
}
.l20{
  fill: #ef6158; fill-opacity: 0.2;
  stroke: #ef6158;
  stroke-linecap:round;
  stroke-linejoin:round;
  stroke-width: 0.750829;
}
.l21{
  fill: #fdb200; fill-opacity: 0.2;
  stroke: #fdb200;
  stroke-linecap:round;
  stroke-linejoin:round;
  stroke-width: 0.750829;
}
text {font-family: Sans-Serif;}
</style>
<rect class="l0" x="0" y="0" width="900" height="506"/>
<text fill="#0044ee"  xml:space="preserve" font-size="7.23021" transform="translate(566.448, 309.62)" >GND</text>
<text fill="#0044ee"  xml:space="preserve" font-size="7.23021" transform="translate(406.549, 309.62)" >GND</text>
<text fill="#0044ee"  xml:space="preserve" font-size="7.23021" transform="translate(615.113, 309.62)" >GND</text>
<text fill="#0044ee"  xml:space="preserve" font-size="11.9298" transform="translate(480.355, 207.433)" >v_gs</text>
<text fill="#0044ee"  xml:space="preserve" font-size="11.9298" transform="translate(367.121, 124.008)" >v_dd</text>
<text fill="#222222"  xml:space="preserve" font-size="10.8453" transform="translate(43.3007, 413.709)" >MODEL</text>
<text fill="#222222"  xml:space="preserve" font-size="10.8453" style="font-family:Monospace;" transform="translate(50.2528, 431.089)" >.lib cornerMOSlv.lib mos_tt</text>
<text fill="#222222"  xml:space="preserve" font-size="10.8453" transform="translate(43.3007, 17.4375)" >NGSPICE</text>
<text fill="#222222"  xml:space="preserve" font-size="10.8453" style="font-family:Monospace;" transform="translate(50.2528, 47.2574)" >.temp 27</text>
<text fill="#222222"  xml:space="preserve" font-size="10.8453" style="font-family:Monospace;" transform="translate(50.2528, 59.697)" >.control</text>
<text fill="#222222"  xml:space="preserve" font-size="10.8453" style="font-family:Monospace;" transform="translate(50.2528, 72.1366)" >save all</text>
<text fill="#222222"  xml:space="preserve" font-size="10.8453" style="font-family:Monospace;" transform="translate(50.2528, 84.5762)" >save @n.xm1.nsg13_lv_nmos[gm]</text>
<text fill="#222222"  xml:space="preserve" font-size="10.8453" style="font-family:Monospace;" transform="translate(50.2528, 97.0157)" >save @n.xm1.nsg13_lv_nmos[gds]</text>
<text fill="#222222"  xml:space="preserve" font-size="10.8453" style="font-family:Monospace;" transform="translate(50.2528, 109.455)" >save @n.xm1.nsg13_lv_nmos[vth]</text>
<text fill="#222222"  xml:space="preserve" font-size="10.8453" style="font-family:Monospace;" transform="translate(50.2528, 121.895)" >save @n.xm1.nsg13_lv_nmos[cgg]</text>
<text fill="#222222"  xml:space="preserve" font-size="10.8453" style="font-family:Monospace;" transform="translate(50.2528, 134.334)" >save @n.xm1.nsg13_lv_nmos[cgd]</text>
<text fill="#222222"  xml:space="preserve" font-size="10.8453" style="font-family:Monospace;" transform="translate(50.2528, 146.774)" >save @n.xm1.nsg13_lv_nmos[vdss]</text>
<text fill="#222222"  xml:space="preserve" font-size="10.8453" style="font-family:Monospace;" transform="translate(50.2528, 159.214)" >save @n.xm1.nsg13_lv_nmos[fug]</text>
<text fill="#222222"  xml:space="preserve" font-size="10.8453" style="font-family:Monospace;" transform="translate(50.2528, 171.653)" >save @n.xm1.nsg13_lv_nmos[rg]</text>
<text fill="#222222"  xml:space="preserve" font-size="10.8453" style="font-family:Monospace;" transform="translate(50.2528, 184.093)" >save @n.xm1.nsg13_lv_nmos[sid]</text>
<text fill="#222222"  xml:space="preserve" font-size="10.8453" style="font-family:Monospace;" transform="translate(50.2528, 196.532)" >op</text>
<text fill="#222222"  xml:space="preserve" font-size="10.8453" style="font-family:Monospace;" transform="translate(50.2528, 208.972)" >write mosfet_diode_sizing.raw</text>
<text fill="#222222"  xml:space="preserve" font-size="10.8453" style="font-family:Monospace;" transform="translate(50.2528, 221.411)" >.endc</text>
<text fill="#222222"  xml:space="preserve" font-size="7.23021" transform="translate(415.239, 230.54)" >Vdd</text>
<text fill="#222222"  xml:space="preserve" font-size="7.23021" transform="translate(415.239, 247.92)" >1.5</text>
<text fill="#222222"  xml:space="preserve" font-size="14.4604" transform="translate(314.434, 489.988)" >         mosfet_diode_sizing.sch</text>
<text fill="#222222"  xml:space="preserve" font-size="14.4604" transform="translate(314.434, 469.132)" >Copyright 2024 Harald Pretl</text>
<text fill="#222222"  xml:space="preserve" font-size="14.4604" transform="translate(704.175, 469.132)" >2024-08-27  18:49:49</text>
<text fill="#222222"  xml:space="preserve" font-size="36.151" transform="translate(154.535, 488.827)" >SCHEM</text>
<text fill="#222222"  xml:space="preserve" font-size="7.23021" transform="translate(539.806, 256.138)" >M1</text>
<text fill="#ff0000"  xml:space="preserve" font-size="5.42266" transform="translate(562.972, 223.548)" >D</text>
<text fill="#ff0000"  xml:space="preserve" font-size="5.42266" transform="translate(562.972, 254.1)" >S</text>
<text fill="#ff0000"  xml:space="preserve" font-size="5.42266" transform="translate(561.234, 242.666)" >B</text>
<text fill="#ff0000"  xml:space="preserve" font-size="5.42266" transform="translate(536.378, 242.666)" >G</text>
<text fill="#222222"  xml:space="preserve" font-size="7.23021" transform="translate(568.186, 221.85)" >sg13_lv_nmos</text>
<text fill="#666600"  xml:space="preserve" font-size="7.23021" transform="translate(569.055, 253.531)" >m=1</text>
<text fill="#666600"  xml:space="preserve" font-size="7.23021" transform="translate(569.055, 248.317)" >ng=1</text>
<text fill="#666600"  xml:space="preserve" font-size="7.23021" transform="translate(569.055, 241.365)" >l=0.13u</text>
<text fill="#666600"  xml:space="preserve" font-size="7.23021" transform="translate(569.055, 234.413)" >w=1u</text>
<text fill="#222222"  xml:space="preserve" font-size="14.4604" transform="translate(394.383, 387.635)" >simulate</text>
<text fill="#222222"  xml:space="preserve" font-size="14.4604" transform="translate(561.234, 387.635)" >annotate OP</text>
<text fill="#aa2222"  xml:space="preserve" font-size="7.23021" transform="translate(114.209, 330.93)" >? </text>
<text fill="#aa2222"  xml:space="preserve" font-size="7.23021" transform="translate(100.209, 322.24)" >gds=</text>
<text fill="#aa2222"  xml:space="preserve" font-size="7.23021" transform="translate(114.209, 310.074)" >? </text>
<text fill="#aa2222"  xml:space="preserve" font-size="7.23021" transform="translate(102.209, 301.384)" >gm=</text>
<text fill="#aa2222"  xml:space="preserve" font-size="7.23021" transform="translate(114.209, 351.787)" >? </text>
<text fill="#aa2222"  xml:space="preserve" font-size="7.23021" transform="translate(102.209, 343.097)" >vth=</text>
<text fill="#aa2222"  xml:space="preserve" font-size="7.23021" transform="translate(183.73, 310.074)" >? </text>
<text fill="#aa2222"  xml:space="preserve" font-size="7.23021" transform="translate(170.73, 301.384)" >cgs=</text>
<text fill="#aa2222"  xml:space="preserve" font-size="7.23021" transform="translate(114.209, 372.643)" >? </text>
<text fill="#aa2222"  xml:space="preserve" font-size="7.23021" transform="translate(63.2086, 363.953)" >vdss(vds_sat)=</text>
<text fill="#aa2222"  xml:space="preserve" font-size="7.23021" transform="translate(183.73, 330.93)" >? </text>
<text fill="#aa2222"  xml:space="preserve" font-size="7.23021" transform="translate(154.73, 322.24)" >fug(f_t)=</text>
<text fill="#aa2222"  xml:space="preserve" font-size="7.23021" transform="translate(183.73, 351.787)" >? </text>
<text fill="#aa2222"  xml:space="preserve" font-size="7.23021" transform="translate(169.73, 343.097)" >cdg=</text>
<text fill="#aa2222"  xml:space="preserve" font-size="7.23021" transform="translate(253.251, 310.074)" >? </text>
<text fill="#aa2222"  xml:space="preserve" font-size="7.23021" transform="translate(242.251, 301.384)" >sid=</text>
<text fill="#aa2222"  xml:space="preserve" font-size="7.23021" transform="translate(183.73, 372.643)" >? </text>
<text fill="#aa2222"  xml:space="preserve" font-size="7.23021" transform="translate(175.73, 363.953)" >rg=</text>
<text fill="#222222"  xml:space="preserve" font-size="7.23021" transform="translate(575.138, 167.102)" >Ibias</text>
<text fill="#222222"  xml:space="preserve" font-size="7.23021" transform="translate(575.138, 175.395)" >20u</text>
<path class="l4" d="M39.8246 417.765L88.4895 417.765"/>
<path class="l4" d="M39.8246 417.765L39.8246 431.67"/>
<path class="l4" d="M39.8246 21.4942L88.4895 21.4942"/>
<path class="l4" d="M39.8246 21.4942L39.8246 35.3985"/>
<path class="l4" d="M561.234 299.579L561.234 308.269"/>
<path class="l4" d="M557.758 308.269L564.71 308.269"/>
<path class="l4" d="M561.234 311.745L564.71 308.269"/>
<path class="l4" d="M557.758 308.269L561.234 311.745"/>
<path class="l4" d="M403.073 221.368L406.549 221.368"/>
<path class="l4" d="M404.811 219.63L404.811 223.106"/>
<path class="l4" d="M401.335 216.154L401.335 257.866"/>
<circle class="l4" cx="401.335" cy="237.01" r="10.4282" style="fill:none;" />
<path class="l4" d="M401.335 299.579L401.335 308.269"/>
<path class="l4" d="M397.859 308.269L404.811 308.269"/>
<path class="l4" d="M401.335 311.745L404.811 308.269"/>
<path class="l4" d="M397.859 308.269L401.335 311.745"/>
<path class="l4" d="M609.899 299.579L609.899 308.269"/>
<path class="l4" d="M606.423 308.269L613.375 308.269"/>
<path class="l4" d="M609.899 311.745L613.375 308.269"/>
<path class="l4" d="M606.423 308.269L609.899 311.745"/>
<path class="l4" d="M552.544 221.368L552.544 252.652"/>
<path class="l4" d="M561.234 249.176L561.234 257.866"/>
<path class="l4" d="M561.234 216.154L561.234 224.844"/>
<path class="l4" d="M549.068 226.582L549.068 247.438"/>
<path class="l4" d="M552.544 224.844L561.234 224.844"/>
<path class="l4" d="M552.544 249.176L561.234 249.176"/>
<path class="l4" d="M533.425 237.01L548.72 237.01"/>
<path class="l4" d="M556.02 247.438L559.496 249.176L556.02 250.914L556.02 247.438"/>
<path class="l4" d="M387.431 383.005L366.575 374.315L366.575 379.529L345.718 379.529L352.67 383.005L345.718 386.481L366.575 386.481L366.575 391.695L387.431 383.005"/>
<path class="l4" d="M554.282 383.005L533.425 374.315L533.425 379.529L512.569 379.529L519.521 383.005L512.569 386.481L533.425 386.481L533.425 391.695L554.282 383.005"/>
<path class="l4" d="M561.234 146.632L561.234 157.061"/>
<path class="l4" d="M561.234 177.917L561.234 188.345"/>
<path class="l4" d="M562.972 151.847L566.448 151.847"/>
<path class="l4" d="M564.71 150.109L564.71 153.585"/>
<path class="l4" d="M561.234 162.275L561.234 169.227L562.972 169.227L561.234 174.441L559.496 169.227L561.234 169.227L561.234 162.275"/>
<circle class="l4" cx="561.234" cy="167.489" r="10.4282" style="fill:none;" />
<path class="l5" d="M559.496 297.841L562.972 297.841L562.972 301.317L559.496 301.317L559.496 297.841z"/>
<path class="l5" d="M399.597 214.416L403.073 214.416L403.073 217.892L399.597 217.892L399.597 214.416z"/>
<path class="l5" d="M399.597 256.128L403.073 256.128L403.073 259.605L399.597 259.605L399.597 256.128z"/>
<path class="l5" d="M399.597 297.841L403.073 297.841L403.073 301.317L399.597 301.317L399.597 297.841z"/>
<path class="l5" d="M608.161 297.841L611.637 297.841L611.637 301.317L608.161 301.317L608.161 297.841z"/>
<path class="l5" d="M144.107 462.954L143.889 463.171L143.672 463.389L143.455 463.606L143.237 463.823L143.02 464.04L142.803 464.258L142.586 464.475L142.368 464.692L142.151 464.909L141.934 465.127L141.717 465.344L141.499 465.561L141.282 465.778L141.065 465.996L140.848 466.213L140.63 466.43L140.413 466.647L140.196 466.865L139.979 467.082L139.761 467.299L139.544 467.516L139.327 467.734L139.11 467.951L138.892 468.168L138.675 468.386L138.458 468.603L138.241 468.82L138.023 469.037L137.806 469.255L137.589 469.472L137.372 469.689L137.154 469.906L137.154 469.906L136.944 470.124L136.747 470.341L136.564 470.558L136.394 470.775L136.238 470.993L136.095 471.21L135.966 471.427L135.851 471.644L135.749 471.862L135.661 472.079L135.586 472.296L135.525 472.513L135.477 472.731L135.444 472.948L135.423 473.165L135.416 473.382L135.423 473.6L135.444 473.817L135.477 474.034L135.525 474.251L135.586 474.469L135.661 474.686L135.749 474.903L135.851 475.12L135.966 475.338L136.095 475.555L136.238 475.772L136.394 475.989L136.564 476.207L136.747 476.424L136.944 476.641L137.154 476.858L137.154 476.858L137.372 477.077L137.592 477.296L137.814 477.518L138.037 477.741L138.262 477.966L138.488 478.192L138.717 478.421L138.947 478.651L139.178 478.882L139.412 479.116L139.647 479.351L139.884 479.588L140.122 479.826L140.362 480.066L140.604 480.308L140.848 480.552L141.093 480.797L141.34 481.044L141.589 481.293L141.839 481.543L142.091 481.795L142.345 482.049L142.6 482.304L142.857 482.561L143.116 482.82L143.377 483.081L143.639 483.343L143.903 483.607L144.168 483.872L144.436 484.14L144.705 484.409L144.976 484.68L144.976 484.68L145.245 484.949L145.512 485.216L145.775 485.479L146.035 485.739L146.291 485.995L146.544 486.248L146.793 486.497L147.039 486.743L147.282 486.986L147.521 487.225L147.757 487.461L147.99 487.694L148.219 487.923L148.445 488.149L148.667 488.371L148.886 488.59L149.102 488.806L149.314 489.018L149.523 489.227L149.728 489.432L149.93 489.634L150.129 489.833L150.324 490.028L150.516 490.22L150.704 490.408L150.889 490.593L151.071 490.775L151.249 490.953L151.424 491.128L151.595 491.299L151.763 491.467L151.928 491.632L151.928 491.632L152.086 491.792L152.233 491.947L152.371 492.098L152.498 492.243L152.615 492.383L152.722 492.518L152.819 492.648L152.905 492.772L152.982 492.892L153.048 493.006L153.104 493.116L153.15 493.22L153.185 493.32L153.211 493.414L153.226 493.503L153.231 493.587L153.226 493.666L153.211 493.74L153.185 493.808L153.15 493.872L153.104 493.931L153.048 493.984L152.982 494.033L152.905 494.076L152.819 494.114L152.722 494.147L152.615 494.175L152.498 494.198L152.371 494.216L152.233 494.229L152.086 494.236L151.928 494.239L151.928 494.239L151.765 494.239L151.602 494.239L151.439 494.239L151.276 494.239L151.113 494.239L150.95 494.239L150.787 494.239L150.624 494.239L150.461 494.239L150.298 494.239L150.135 494.239L149.972 494.239L149.809 494.239L149.646 494.239L149.484 494.239L149.321 494.239L149.158 494.239L148.995 494.239L148.832 494.239L148.669 494.239L148.506 494.239L148.343 494.239L148.18 494.239L148.017 494.239L147.854 494.239L147.691 494.239L147.528 494.239L147.365 494.239L147.202 494.239L147.039 494.239L146.877 494.239L146.714 494.239L146.714 494.239L146.551 494.239L146.391 494.239L146.232 494.239L146.075 494.239L145.92 494.239L145.766 494.239L145.615 494.239L145.464 494.239L145.316 494.239L145.169 494.239L145.024 494.239L144.88 494.239L144.739 494.239L144.599 494.239L144.46 494.239L144.324 494.239L144.189 494.239L144.056 494.239L143.924 494.239L143.794 494.239L143.666 494.239L143.54 494.239L143.415 494.239L143.292 494.239L143.17 494.239L143.051 494.239L142.933 494.239L142.817 494.239L142.702 494.239L142.589 494.239L142.478 494.239L142.368 494.239L142.368 494.239L142.26 494.237L142.151 494.232L142.043 494.223L141.934 494.212L141.825 494.196L141.717 494.178L141.608 494.156L141.499 494.13L141.391 494.101L141.282 494.069L141.174 494.033L141.065 493.994L140.956 493.952L140.848 493.906L140.739 493.857L140.63 493.804L140.522 493.748L140.413 493.689L140.305 493.626L140.196 493.56L140.087 493.49L139.979 493.417L139.87 493.341L139.761 493.261L139.653 493.178L139.544 493.091L139.436 493.001L139.327 492.908L139.218 492.811L139.11 492.711L139.001 492.608L138.892 492.501L138.892 492.501L138.784 492.392L138.675 492.283L138.567 492.175L138.458 492.066L138.349 491.958L138.241 491.849L138.132 491.74L138.023 491.632L137.915 491.523L137.806 491.414L137.698 491.306L137.589 491.197L137.48 491.089L137.372 490.98L137.263 490.871L137.154 490.763L137.046 490.654L136.937 490.545L136.829 490.437L136.72 490.328L136.611 490.22L136.503 490.111L136.394 490.002L136.285 489.894L136.177 489.785L136.068 489.676L135.959 489.568L135.851 489.459L135.742 489.351L135.634 489.242L135.525 489.133L135.416 489.025L135.416 489.025L135.306 488.914L135.192 488.801L135.075 488.683L134.955 488.563L134.831 488.439L134.703 488.312L134.573 488.181L134.439 488.047L134.301 487.91L134.16 487.769L134.016 487.624L133.868 487.477L133.717 487.326L133.563 487.171L133.405 487.013L133.244 486.852L133.079 486.687L132.911 486.519L132.74 486.348L132.565 486.173L132.387 485.995L132.205 485.813L132.02 485.628L131.832 485.44L131.64 485.248L131.445 485.053L131.246 484.854L131.044 484.652L130.839 484.447L130.63 484.238L130.418 484.026L130.202 483.811L130.202 483.811L129.985 483.6L129.768 483.403L129.551 483.22L129.333 483.05L129.116 482.894L128.899 482.751L128.681 482.622L128.464 482.507L128.247 482.405L128.03 482.317L127.812 482.242L127.595 482.181L127.378 482.134L127.161 482.1L126.943 482.079L126.726 482.073L126.509 482.079L126.292 482.1L126.074 482.134L125.857 482.181L125.64 482.242L125.423 482.317L125.205 482.405L124.988 482.507L124.771 482.622L124.554 482.751L124.336 482.894L124.119 483.05L123.902 483.22L123.685 483.403L123.467 483.6L123.25 483.811L123.25 483.811L123.035 484.026L122.822 484.238L122.614 484.447L122.408 484.652L122.206 484.854L122.008 485.053L121.813 485.248L121.621 485.44L121.432 485.628L121.247 485.813L121.066 485.995L120.888 486.173L120.713 486.348L120.541 486.519L120.373 486.687L120.209 486.852L120.047 487.013L119.889 487.171L119.735 487.326L119.584 487.477L119.436 487.624L119.292 487.769L119.151 487.91L119.014 488.047L118.88 488.181L118.749 488.312L118.622 488.439L118.498 488.563L118.377 488.683L118.26 488.801L118.146 488.914L118.036 489.025L118.036 489.025L117.927 489.133L117.819 489.242L117.71 489.351L117.602 489.459L117.493 489.568L117.384 489.676L117.276 489.785L117.167 489.894L117.058 490.002L116.95 490.111L116.841 490.22L116.733 490.328L116.624 490.437L116.515 490.545L116.407 490.654L116.298 490.763L116.189 490.871L116.081 490.98L115.972 491.089L115.864 491.197L115.755 491.306L115.646 491.414L115.538 491.523L115.429 491.632L115.32 491.74L115.212 491.849L115.103 491.958L114.994 492.066L114.886 492.175L114.777 492.283L114.669 492.392L114.56 492.501L114.56 492.501L114.451 492.608L114.343 492.711L114.234 492.811L114.125 492.908L114.017 493.001L113.908 493.091L113.8 493.178L113.691 493.261L113.582 493.341L113.474 493.417L113.365 493.49L113.256 493.56L113.148 493.626L113.039 493.689L112.931 493.748L112.822 493.804L112.713 493.857L112.605 493.906L112.496 493.952L112.387 493.994L112.279 494.033L112.17 494.069L112.062 494.101L111.953 494.13L111.844 494.156L111.736 494.178L111.627 494.196L111.518 494.212L111.41 494.223L111.301 494.232L111.193 494.237L111.084 494.239L111.084 494.239L110.974 494.239L110.863 494.239L110.75 494.239L110.636 494.239L110.52 494.239L110.402 494.239L110.282 494.239L110.161 494.239L110.038 494.239L109.913 494.239L109.786 494.239L109.658 494.239L109.528 494.239L109.397 494.239L109.264 494.239L109.129 494.239L108.992 494.239L108.854 494.239L108.714 494.239L108.572 494.239L108.429 494.239L108.283 494.239L108.137 494.239L107.988 494.239L107.838 494.239L107.686 494.239L107.532 494.239L107.377 494.239L107.22 494.239L107.061 494.239L106.901 494.239L106.739 494.239L106.739 494.239L106.576 494.239L106.413 494.239L106.25 494.239L106.087 494.239L105.924 494.239L105.761 494.239L105.598 494.239L105.435 494.239L105.272 494.239L105.109 494.239L104.947 494.239L104.784 494.239L104.621 494.239L104.458 494.239L104.295 494.239L104.132 494.239L103.969 494.239L103.806 494.239L103.643 494.239L103.48 494.239L103.317 494.239L103.154 494.239L102.991 494.239L102.828 494.239L102.665 494.239L102.502 494.239L102.339 494.239L102.177 494.239L102.014 494.239L101.851 494.239L101.688 494.239L101.525 494.239L101.525 494.239L101.367 494.236L101.219 494.229L101.082 494.216L100.954 494.198L100.837 494.175L100.73 494.147L100.634 494.114L100.547 494.076L100.471 494.033L100.405 493.984L100.349 493.931L100.303 493.872L100.267 493.808L100.242 493.74L100.226 493.666L100.221 493.587L100.226 493.503L100.242 493.414L100.267 493.32L100.303 493.22L100.349 493.116L100.405 493.006L100.471 492.892L100.547 492.772L100.634 492.648L100.73 492.518L100.837 492.383L100.954 492.243L101.082 492.098L101.219 491.947L101.367 491.792L101.525 491.632L101.525 491.632L101.689 491.467L101.857 491.299L102.029 491.128L102.204 490.953L102.382 490.775L102.563 490.593L102.749 490.408L102.937 490.22L103.129 490.028L103.324 489.833L103.522 489.634L103.724 489.432L103.93 489.227L104.139 489.018L104.351 488.806L104.566 488.59L104.785 488.371L105.008 488.149L105.233 487.923L105.462 487.694L105.695 487.461L105.931 487.225L106.17 486.986L106.413 486.743L106.659 486.497L106.909 486.248L107.161 485.995L107.418 485.739L107.677 485.479L107.941 485.216L108.207 484.949L108.477 484.68L108.477 484.68L108.748 484.409L109.017 484.14L109.284 483.872L109.55 483.607L109.813 483.343L110.076 483.081L110.336 482.82L110.595 482.561L110.852 482.304L111.108 482.049L111.361 481.795L111.613 481.543L111.864 481.293L112.112 481.044L112.359 480.797L112.605 480.552L112.848 480.308L113.09 480.066L113.33 479.826L113.569 479.588L113.806 479.351L114.041 479.116L114.274 478.882L114.506 478.651L114.736 478.421L114.964 478.192L115.191 477.966L115.415 477.741L115.639 477.518L115.86 477.296L116.08 477.077L116.298 476.858L116.298 476.858L116.508 476.641L116.705 476.424L116.889 476.207L117.058 475.989L117.215 475.772L117.357 475.555L117.486 475.338L117.602 475.12L117.703 474.903L117.792 474.686L117.866 474.469L117.927 474.251L117.975 474.034L118.009 473.817L118.029 473.6L118.036 473.382L118.029 473.165L118.009 472.948L117.975 472.731L117.927 472.513L117.866 472.296L117.792 472.079L117.703 471.862L117.602 471.644L117.486 471.427L117.357 471.21L117.215 470.993L117.058 470.775L116.889 470.558L116.705 470.341L116.508 470.124L116.298 469.906L116.298 469.906L116.08 469.688L115.86 469.468L115.639 469.247L115.415 469.024L115.191 468.799L114.964 468.572L114.736 468.344L114.506 468.114L114.274 467.882L114.041 467.649L113.806 467.414L113.569 467.177L113.33 466.939L113.09 466.698L112.848 466.457L112.605 466.213L112.359 465.968L112.112 465.721L111.864 465.472L111.613 465.222L111.361 464.97L111.108 464.716L110.852 464.461L110.595 464.203L110.336 463.945L110.076 463.684L109.813 463.422L109.55 463.158L109.284 462.892L109.017 462.625L108.748 462.356L108.477 462.085L108.477 462.085L108.207 461.815L107.941 461.549L107.677 461.286L107.418 461.026L107.161 460.77L106.909 460.517L106.659 460.267L106.413 460.021L106.17 459.779L105.931 459.539L105.695 459.303L105.462 459.071L105.233 458.842L105.008 458.616L104.785 458.394L104.566 458.175L104.351 457.959L104.139 457.747L103.93 457.538L103.724 457.333L103.522 457.131L103.324 456.932L103.129 456.737L102.937 456.545L102.749 456.357L102.563 456.172L102.382 455.99L102.204 455.812L102.029 455.637L101.857 455.466L101.689 455.298L101.525 455.133L101.525 455.133L101.367 454.973L101.219 454.817L101.082 454.667L100.954 454.522L100.837 454.382L100.73 454.247L100.634 454.117L100.547 453.992L100.471 453.873L100.405 453.758L100.349 453.649L100.303 453.544L100.267 453.445L100.242 453.351L100.226 453.262L100.221 453.178L100.226 453.099L100.242 453.025L100.267 452.956L100.303 452.893L100.349 452.834L100.405 452.781L100.471 452.732L100.547 452.689L100.634 452.651L100.73 452.618L100.837 452.59L100.954 452.567L101.082 452.549L101.219 452.536L101.367 452.529L101.525 452.526L101.525 452.526L101.688 452.526L101.851 452.526L102.014 452.526L102.177 452.526L102.339 452.526L102.502 452.526L102.665 452.526L102.828 452.526L102.991 452.526L103.154 452.526L103.317 452.526L103.48 452.526L103.643 452.526L103.806 452.526L103.969 452.526L104.132 452.526L104.295 452.526L104.458 452.526L104.621 452.526L104.784 452.526L104.947 452.526L105.109 452.526L105.272 452.526L105.435 452.526L105.598 452.526L105.761 452.526L105.924 452.526L106.087 452.526L106.25 452.526L106.413 452.526L106.576 452.526L106.739 452.526L106.739 452.526L106.901 452.526L107.061 452.526L107.22 452.526L107.377 452.526L107.532 452.526L107.686 452.526L107.838 452.526L107.988 452.526L108.137 452.526L108.283 452.526L108.429 452.526L108.572 452.526L108.714 452.526L108.854 452.526L108.992 452.526L109.129 452.526L109.264 452.526L109.397 452.526L109.528 452.526L109.658 452.526L109.786 452.526L109.913 452.526L110.038 452.526L110.161 452.526L110.282 452.526L110.402 452.526L110.52 452.526L110.636 452.526L110.75 452.526L110.863 452.526L110.974 452.526L111.084 452.526L111.084 452.526L111.193 452.528L111.301 452.533L111.41 452.541L111.518 452.553L111.627 452.568L111.736 452.587L111.844 452.609L111.953 452.635L112.062 452.663L112.17 452.696L112.279 452.731L112.387 452.77L112.496 452.813L112.605 452.859L112.713 452.908L112.822 452.96L112.931 453.016L113.039 453.076L113.148 453.139L113.256 453.205L113.365 453.274L113.474 453.347L113.582 453.424L113.691 453.504L113.8 453.587L113.908 453.673L114.017 453.763L114.125 453.857L114.234 453.953L114.343 454.054L114.451 454.157L114.56 454.264L114.56 454.264L114.669 454.373L114.777 454.481L114.886 454.59L114.994 454.699L115.103 454.807L115.212 454.916L115.32 455.024L115.429 455.133L115.538 455.242L115.646 455.35L115.755 455.459L115.864 455.568L115.972 455.676L116.081 455.785L116.189 455.893L116.298 456.002L116.407 456.111L116.515 456.219L116.624 456.328L116.733 456.437L116.841 456.545L116.95 456.654L117.058 456.762L117.167 456.871L117.276 456.98L117.384 457.088L117.493 457.197L117.602 457.306L117.71 457.414L117.819 457.523L117.927 457.631L118.036 457.74L118.036 457.74L118.146 457.85L118.26 457.964L118.377 458.081L118.498 458.202L118.622 458.326L118.749 458.453L118.88 458.584L119.014 458.718L119.151 458.855L119.292 458.996L119.436 459.14L119.584 459.288L119.735 459.439L119.889 459.594L120.047 459.751L120.209 459.913L120.373 460.077L120.541 460.245L120.713 460.417L120.888 460.592L121.066 460.77L121.247 460.951L121.432 461.136L121.621 461.325L121.813 461.517L122.008 461.712L122.206 461.91L122.408 462.112L122.614 462.318L122.822 462.526L123.035 462.739L123.25 462.954L123.25 462.954L123.467 463.165L123.685 463.362L123.902 463.545L124.119 463.715L124.336 463.871L124.554 464.013L124.771 464.142L124.988 464.258L125.205 464.36L125.423 464.448L125.64 464.522L125.857 464.584L126.074 464.631L126.292 464.665L126.509 464.685L126.726 464.692L126.943 464.685L127.161 464.665L127.378 464.631L127.595 464.584L127.812 464.522L128.03 464.448L128.247 464.36L128.464 464.258L128.681 464.142L128.899 464.013L129.116 463.871L129.333 463.715L129.551 463.545L129.768 463.362L129.985 463.165L130.202 462.954L130.202 462.954L130.418 462.739L130.63 462.526L130.839 462.318L131.044 462.112L131.246 461.91L131.445 461.712L131.64 461.517L131.832 461.325L132.02 461.136L132.205 460.951L132.387 460.77L132.565 460.592L132.74 460.417L132.911 460.245L133.079 460.077L133.244 459.913L133.405 459.751L133.563 459.594L133.717 459.439L133.868 459.288L134.016 459.14L134.16 458.996L134.301 458.855L134.439 458.718L134.573 458.584L134.703 458.453L134.831 458.326L134.955 458.202L135.075 458.081L135.192 457.964L135.306 457.85L135.416 457.74L135.416 457.74L135.525 457.631L135.634 457.523L135.742 457.414L135.851 457.306L135.959 457.197L136.068 457.088L136.177 456.98L136.285 456.871L136.394 456.762L136.503 456.654L136.611 456.545L136.72 456.437L136.829 456.328L136.937 456.219L137.046 456.111L137.154 456.002L137.263 455.893L137.372 455.785L137.48 455.676L137.589 455.568L137.698 455.459L137.806 455.35L137.915 455.242L138.023 455.133L138.132 455.024L138.241 454.916L138.349 454.807L138.458 454.699L138.567 454.59L138.675 454.481L138.784 454.373L138.892 454.264L138.892 454.264L139.001 454.157L139.11 454.054L139.218 453.953L139.327 453.857L139.436 453.763L139.544 453.673L139.653 453.587L139.761 453.504L139.87 453.424L139.979 453.347L140.087 453.274L140.196 453.205L140.305 453.139L140.413 453.076L140.522 453.016L140.63 452.96L140.739 452.908L140.848 452.859L140.956 452.813L141.065 452.77L141.174 452.731L141.282 452.696L141.391 452.663L141.499 452.635L141.608 452.609L141.717 452.587L141.825 452.568L141.934 452.553L142.043 452.541L142.151 452.533L142.26 452.528L142.368 452.526L142.368 452.526L142.478 452.526L142.589 452.526L142.702 452.526L142.817 452.526L142.933 452.526L143.051 452.526L143.17 452.526L143.292 452.526L143.415 452.526L143.54 452.526L143.666 452.526L143.794 452.526L143.924 452.526L144.056 452.526L144.189 452.526L144.324 452.526L144.46 452.526L144.599 452.526L144.739 452.526L144.88 452.526L145.024 452.526L145.169 452.526L145.316 452.526L145.464 452.526L145.615 452.526L145.766 452.526L145.92 452.526L146.075 452.526L146.232 452.526L146.391 452.526L146.551 452.526L146.714 452.526L146.714 452.526L146.877 452.526L147.039 452.526L147.202 452.526L147.365 452.526L147.528 452.526L147.691 452.526L147.854 452.526L148.017 452.526L148.18 452.526L148.343 452.526L148.506 452.526L148.669 452.526L148.832 452.526L148.995 452.526L149.158 452.526L149.321 452.526L149.484 452.526L149.646 452.526L149.809 452.526L149.972 452.526L150.135 452.526L150.298 452.526L150.461 452.526L150.624 452.526L150.787 452.526L150.95 452.526L151.113 452.526L151.276 452.526L151.439 452.526L151.602 452.526L151.765 452.526L151.928 452.526L151.928 452.526L152.086 452.529L152.233 452.536L152.371 452.549L152.498 452.567L152.615 452.59L152.722 452.618L152.819 452.651L152.905 452.689L152.982 452.732L153.048 452.781L153.104 452.834L153.15 452.893L153.185 452.956L153.211 453.025L153.226 453.099L153.231 453.178L153.226 453.262L153.211 453.351L153.185 453.445L153.15 453.544L153.104 453.649L153.048 453.758L152.982 453.873L152.905 453.992L152.819 454.117L152.722 454.247L152.615 454.382L152.498 454.522L152.371 454.667L152.233 454.817L152.086 454.973L151.928 455.133L151.928 455.133L151.762 455.299L151.592 455.469L151.416 455.645L151.235 455.826L151.049 456.011L150.858 456.202L150.662 456.398L150.461 456.599L150.255 456.806L150.044 457.017L149.827 457.233L149.606 457.455L149.379 457.682L149.147 457.913L148.911 458.15L148.669 458.392L148.422 458.639L148.17 458.891L147.913 459.148L147.65 459.41L147.383 459.678L147.111 459.95L146.833 460.227L146.551 460.51L146.263 460.798L145.97 461.091L145.672 461.388L145.369 461.691L145.061 461.999L144.748 462.313L144.43 462.631L144.107 462.954"/>
<path class="l5" d="M557.758 238.748L561.234 237.01L557.758 235.272L557.758 238.748"/>
<path class="l5" d="M559.496 214.416L562.972 214.416L562.972 217.892L559.496 217.892L559.496 214.416z"/>
<path class="l5" d="M531.687 235.272L535.164 235.272L535.164 238.748L531.687 238.748L531.687 235.272z"/>
<path class="l5" d="M559.496 256.128L562.972 256.128L562.972 259.605L559.496 259.605L559.496 256.128z"/>
<path class="l5" d="M561.18 236.956L561.288 236.956L561.288 237.064L561.18 237.064L561.18 236.956z"/>
<path class="l5" d="M559.496 144.894L562.972 144.894L562.972 148.371L559.496 148.371L559.496 144.894z"/>
<path class="l5" d="M559.496 186.607L562.972 186.607L562.972 190.083L559.496 190.083L559.496 186.607z"/>
<path class="l5" d="M511.7 201.38L513.438 201.38L513.438 203.119L511.7 203.119L511.7 201.38z"/>
<path class="l5" d="M400.466 117.955L402.204 117.955L402.204 119.693L400.466 119.693L400.466 117.955z"/>
<path class="l6" d="M307.481 473.382L860.175 473.382"/>
<path class="l6" d="M39.8246 473.382L85.0135 473.382"/>
<circle class="l15" cx="123.25" cy="334.34" r="1.30352" />
<circle class="l15" cx="123.25" cy="313.483" r="1.30352" />
<circle class="l15" cx="123.25" cy="355.196" r="1.30352" />
<circle class="l15" cx="192.771" cy="313.483" r="1.30352" />
<circle class="l15" cx="123.25" cy="376.053" r="1.30352" />
<circle class="l15" cx="192.771" cy="334.34" r="1.30352" />
<circle class="l15" cx="192.771" cy="355.196" r="1.30352" />
<circle class="l15" cx="262.293" cy="313.483" r="1.30352" />
<circle class="l15" cx="192.771" cy="376.053" r="1.30352" />
<path class="l1" d="M561.234 257.866L561.234 299.579"/>
<path class="l1" d="M401.335 257.866L401.335 299.579"/>
<path class="l1" d="M561.234 237.01L609.899 237.01"/>
<path class="l1" d="M609.899 237.01L609.899 299.579"/>
<path class="l1" d="M561.234 118.824L561.234 146.632"/>
<path class="l1" d="M401.335 118.824L401.335 216.154"/>
<path class="l1" d="M401.335 118.824L561.234 118.824"/>
<path class="l1" d="M561.234 202.249L561.234 216.154"/>
<path class="l1" d="M512.569 237.01L533.425 237.01"/>
<path class="l1" d="M512.569 202.249L512.569 237.01"/>
<path class="l1" d="M512.569 202.249L561.234 202.249"/>
<path class="l1" d="M561.234 188.345L561.234 202.249"/>
<circle class="l1" cx="561.234" cy="202.249" r="2.57229"/>
<circle class="l1" cx="561.234" cy="202.249" r="2.57229"/>
<circle class="l1" cx="561.234" cy="202.249" r="2.57229"/>
</svg>
