<svg xmlns="http://www.w3.org/2000/svg" xmlns:xlink="http://www.w3.org/1999/xlink" width="1066" height="666" version="1.1">
<style type="text/css">
.l0{
  fill: #ffffff;
  stroke: #ffffff;
  stroke-linecap:round;
  stroke-linejoin:round;
  stroke-width: 1.18299;
}
.l1{
  fill: #0099cc;
  stroke: #0099cc;
  stroke-linecap:round;
  stroke-linejoin:round;
  stroke-width: 1.18299;
}
.l2{
  fill: #aaaaaa; fill-opacity: 0.2;
  stroke: #aaaaaa;
  stroke-linecap:round;
  stroke-linejoin:round;
  stroke-width: 1.18299;
}
.l3{
  fill: #222222; fill-opacity: 0.5;
  stroke: #222222;
  stroke-linecap:round;
  stroke-linejoin:round;
  stroke-width: 1.18299;
}
.l4{
  fill: #229900;
  stroke: #229900;
  stroke-linecap:round;
  stroke-linejoin:round;
  stroke-width: 1.18299;
}
.l5{
  fill: #bb2200;
  stroke: #bb2200;
  stroke-linecap:round;
  stroke-linejoin:round;
  stroke-width: 1.18299;
}
.l6{
  fill: #0066cc; fill-opacity: 0.5;
  stroke: #0066cc;
  stroke-linecap:round;
  stroke-linejoin:round;
  stroke-width: 1.18299;
}
.l7{
  fill: #ff0000; fill-opacity: 0.5;
  stroke: #ff0000;
  stroke-linecap:round;
  stroke-linejoin:round;
  stroke-width: 1.18299;
}
.l8{
  fill: #888800; fill-opacity: 0.5;
  stroke: #888800;
  stroke-linecap:round;
  stroke-linejoin:round;
  stroke-width: 1.18299;
}
.l9{
  fill: #00aaaa; fill-opacity: 0.5;
  stroke: #00aaaa;
  stroke-linecap:round;
  stroke-linejoin:round;
  stroke-width: 1.18299;
}
.l10{
  fill: #880088;
  stroke: #880088;
  stroke-linecap:round;
  stroke-linejoin:round;
  stroke-width: 1.18299;
}
.l11{
  fill: #00ff00; fill-opacity: 0.5;
  stroke: #00ff00;
  stroke-linecap:round;
  stroke-linejoin:round;
  stroke-width: 1.18299;
}
.l12{
  fill: #0000cc; fill-opacity: 0.5;
  stroke: #0000cc;
  stroke-linecap:round;
  stroke-linejoin:round;
  stroke-width: 1.18299;
}
.l13{
  fill: #666600; fill-opacity: 0.5;
  stroke: #666600;
  stroke-linecap:round;
  stroke-linejoin:round;
  stroke-width: 1.18299;
}
.l14{
  fill: #557755; fill-opacity: 0.2;
  stroke: #557755;
  stroke-linecap:round;
  stroke-linejoin:round;
  stroke-width: 1.18299;
}
.l15{
  fill: #aa2222; fill-opacity: 0.5;
  stroke: #aa2222;
  stroke-linecap:round;
  stroke-linejoin:round;
  stroke-width: 1.18299;
}
.l16{
  fill: #7ccc40; fill-opacity: 0.5;
  stroke: #7ccc40;
  stroke-linecap:round;
  stroke-linejoin:round;
  stroke-width: 1.18299;
}
.l17{
  fill: #00ffcc; fill-opacity: 0.2;
  stroke: #00ffcc;
  stroke-linecap:round;
  stroke-linejoin:round;
  stroke-width: 1.18299;
}
.l18{
  fill: #ce0097; fill-opacity: 0.5;
  stroke: #ce0097;
  stroke-linecap:round;
  stroke-linejoin:round;
  stroke-width: 1.18299;
}
.l19{
  fill: #d2d46b; fill-opacity: 0.2;
  stroke: #d2d46b;
  stroke-linecap:round;
  stroke-linejoin:round;
  stroke-width: 1.18299;
}
.l20{
  fill: #ef6158; fill-opacity: 0.2;
  stroke: #ef6158;
  stroke-linecap:round;
  stroke-linejoin:round;
  stroke-width: 1.18299;
}
.l21{
  fill: #fdb200; fill-opacity: 0.2;
  stroke: #fdb200;
  stroke-linecap:round;
  stroke-linejoin:round;
  stroke-width: 1.18299;
}
text {font-family: Sans-Serif;}
</style>
<rect class="l0" x="0" y="0" width="1066" height="666"/>
<path class="l4" d="M15.99 483.722L77.3302 483.722"/>
<path class="l4" d="M15.99 483.722L15.99 501.247"/>
<path class="l4" d="M15.99 98.1548L77.3302 98.1548"/>
<path class="l4" d="M15.99 98.1548L15.99 115.681"/>
<path class="l4" d="M673.206 334.753L673.206 345.706"/>
<path class="l4" d="M668.825 345.706L677.588 345.706"/>
<path class="l4" d="M673.206 350.088L677.588 345.706"/>
<path class="l4" d="M668.825 345.706L673.206 350.088"/>
<path class="l4" d="M473.851 236.17L478.232 236.17"/>
<path class="l4" d="M476.041 233.979L476.041 238.361"/>
<path class="l4" d="M471.66 229.598L471.66 282.175"/>
<circle class="l4" cx="471.66" cy="255.887" r="13.1443" style="fill:none;" />
<path class="l4" d="M471.66 334.753L471.66 345.706"/>
<path class="l4" d="M467.278 345.706L476.041 345.706"/>
<path class="l4" d="M471.66 350.088L476.041 345.706"/>
<path class="l4" d="M467.278 345.706L471.66 350.088"/>
<path class="l4" d="M734.546 334.753L734.546 345.706"/>
<path class="l4" d="M730.165 345.706L738.928 345.706"/>
<path class="l4" d="M734.546 350.088L738.928 345.706"/>
<path class="l4" d="M730.165 345.706L734.546 350.088"/>
<path class="l4" d="M662.253 236.17L662.253 275.603"/>
<path class="l4" d="M673.206 229.598L673.206 240.552"/>
<path class="l4" d="M673.206 271.222L673.206 282.175"/>
<path class="l4" d="M657.871 242.742L657.871 269.031"/>
<path class="l4" d="M662.253 271.222L673.206 271.222"/>
<path class="l4" d="M662.253 240.552L673.206 240.552"/>
<path class="l4" d="M638.155 255.887L657.433 255.887"/>
<path class="l4" d="M668.825 273.412L673.206 271.222L668.825 269.031L668.825 273.412"/>
<path class="l4" d="M454.134 439.907L427.845 428.954L427.845 435.526L401.557 435.526L410.32 439.907L401.557 444.289L427.845 444.289L427.845 450.861L454.134 439.907"/>
<path class="l4" d="M664.443 439.907L638.155 428.954L638.155 435.526L611.866 435.526L620.629 439.907L611.866 444.289L638.155 444.289L638.155 450.861L664.443 439.907"/>
<path class="l4" d="M673.206 141.969L673.206 155.114"/>
<path class="l4" d="M673.206 181.402L673.206 194.546"/>
<path class="l4" d="M675.397 148.541L679.778 148.541"/>
<path class="l4" d="M677.588 146.351L677.588 150.732"/>
<path class="l4" d="M673.206 161.686L673.206 170.449L675.397 170.449L673.206 177.021L671.015 170.449L673.206 170.449L673.206 161.686"/>
<circle class="l4" cx="673.206" cy="168.258" r="13.1443" style="fill:none;" />
<path class="l4" d="M804.649 220.835L804.649 229.598"/>
<path class="l4" d="M804.649 220.835L813.412 220.835"/>
<path class="l5" d="M671.015 332.562L675.397 332.562L675.397 336.943L671.015 336.943L671.015 332.562z"/>
<path class="l5" d="M469.469 227.407L473.851 227.407L473.851 231.789L469.469 231.789L469.469 227.407z"/>
<path class="l5" d="M469.469 279.985L473.851 279.985L473.851 284.366L469.469 284.366L469.469 279.985z"/>
<path class="l5" d="M469.469 332.562L473.851 332.562L473.851 336.943L469.469 336.943L469.469 332.562z"/>
<path class="l5" d="M732.356 332.562L736.737 332.562L736.737 336.943L732.356 336.943L732.356 332.562z"/>
<path class="l5" d="M147.433 540.68L147.159 540.954L146.886 541.228L146.612 541.502L146.338 541.776L146.064 542.049L145.79 542.323L145.516 542.597L145.242 542.871L144.969 543.145L144.695 543.419L144.421 543.693L144.147 543.966L143.873 544.24L143.599 544.514L143.326 544.788L143.052 545.062L142.778 545.336L142.504 545.609L142.23 545.883L141.956 546.157L141.683 546.431L141.409 546.705L141.135 546.979L140.861 547.252L140.587 547.526L140.313 547.8L140.04 548.074L139.766 548.348L139.492 548.622L139.218 548.895L138.944 549.169L138.67 549.443L138.67 549.443L138.405 549.717L138.157 549.991L137.926 550.265L137.712 550.539L137.515 550.812L137.335 551.086L137.173 551.36L137.027 551.634L136.899 551.908L136.788 552.182L136.694 552.455L136.617 552.729L136.557 553.003L136.514 553.277L136.488 553.551L136.48 553.825L136.488 554.098L136.514 554.372L136.557 554.646L136.617 554.92L136.694 555.194L136.788 555.468L136.899 555.741L137.027 556.015L137.173 556.289L137.335 556.563L137.515 556.837L137.712 557.111L137.926 557.385L138.157 557.658L138.405 557.932L138.67 558.206L138.67 558.206L138.945 558.481L139.222 558.758L139.501 559.037L139.783 559.319L140.066 559.602L140.352 559.888L140.64 560.175L140.93 560.465L141.222 560.757L141.516 561.051L141.812 561.348L142.11 561.646L142.411 561.947L142.714 562.249L143.019 562.554L143.326 562.861L143.635 563.17L143.946 563.482L144.259 563.795L144.575 564.111L144.893 564.428L145.213 564.748L145.535 565.07L145.859 565.394L146.185 565.721L146.513 566.049L146.844 566.38L147.176 566.712L147.511 567.047L147.848 567.384L148.187 567.723L148.529 568.064L148.529 568.064L148.869 568.404L149.205 568.74L149.536 569.072L149.864 569.399L150.187 569.722L150.505 570.041L150.82 570.356L151.13 570.666L151.436 570.972L151.738 571.273L152.035 571.571L152.328 571.864L152.617 572.153L152.901 572.437L153.182 572.717L153.458 572.993L153.729 573.265L153.997 573.533L154.26 573.796L154.519 574.055L154.773 574.309L155.024 574.559L155.27 574.805L155.512 575.047L155.749 575.285L155.982 575.518L156.211 575.747L156.436 575.971L156.656 576.192L156.872 576.408L157.084 576.62L157.291 576.827L157.291 576.827L157.49 577.029L157.677 577.225L157.85 577.414L158.01 577.597L158.158 577.774L158.293 577.944L158.415 578.108L158.524 578.265L158.62 578.416L158.703 578.56L158.774 578.698L158.832 578.83L158.877 578.955L158.909 579.074L158.928 579.186L158.935 579.292L158.928 579.391L158.909 579.484L158.877 579.571L158.832 579.651L158.774 579.725L158.703 579.792L158.62 579.853L158.524 579.908L158.415 579.956L158.293 579.998L158.158 580.033L158.01 580.062L157.85 580.084L157.677 580.1L157.49 580.11L157.291 580.113L157.291 580.113L157.086 580.113L156.881 580.113L156.675 580.113L156.47 580.113L156.265 580.113L156.059 580.113L155.854 580.113L155.648 580.113L155.443 580.113L155.238 580.113L155.032 580.113L154.827 580.113L154.622 580.113L154.416 580.113L154.211 580.113L154.005 580.113L153.8 580.113L153.595 580.113L153.389 580.113L153.184 580.113L152.978 580.113L152.773 580.113L152.568 580.113L152.362 580.113L152.157 580.113L151.952 580.113L151.746 580.113L151.541 580.113L151.335 580.113L151.13 580.113L150.925 580.113L150.719 580.113L150.719 580.113L150.515 580.113L150.313 580.113L150.113 580.113L149.915 580.113L149.719 580.113L149.526 580.113L149.334 580.113L149.145 580.113L148.958 580.113L148.772 580.113L148.59 580.113L148.409 580.113L148.23 580.113L148.054 580.113L147.879 580.113L147.707 580.113L147.537 580.113L147.369 580.113L147.203 580.113L147.04 580.113L146.878 580.113L146.719 580.113L146.561 580.113L146.406 580.113L146.253 580.113L146.103 580.113L145.954 580.113L145.807 580.113L145.663 580.113L145.521 580.113L145.38 580.113L145.242 580.113L145.242 580.113L145.106 580.111L144.969 580.105L144.832 580.094L144.695 580.079L144.558 580.06L144.421 580.036L144.284 580.008L144.147 579.976L144.01 579.94L143.873 579.899L143.736 579.854L143.599 579.805L143.463 579.752L143.326 579.694L143.189 579.632L143.052 579.566L142.915 579.495L142.778 579.42L142.641 579.341L142.504 579.258L142.367 579.17L142.23 579.078L142.093 578.982L141.956 578.881L141.819 578.776L141.683 578.667L141.546 578.554L141.409 578.436L141.272 578.314L141.135 578.188L140.998 578.057L140.861 577.923L140.861 577.923L140.724 577.786L140.587 577.649L140.45 577.512L140.313 577.375L140.176 577.238L140.04 577.101L139.903 576.964L139.766 576.827L139.629 576.69L139.492 576.553L139.355 576.416L139.218 576.279L139.081 576.143L138.944 576.006L138.807 575.869L138.67 575.732L138.533 575.595L138.396 575.458L138.26 575.321L138.123 575.184L137.986 575.047L137.849 574.91L137.712 574.773L137.575 574.636L137.438 574.5L137.301 574.363L137.164 574.226L137.027 574.089L136.89 573.952L136.753 573.815L136.617 573.678L136.48 573.541L136.48 573.541L136.341 573.402L136.197 573.259L136.05 573.111L135.898 572.959L135.742 572.803L135.581 572.643L135.416 572.478L135.247 572.309L135.074 572.136L134.896 571.958L134.715 571.776L134.529 571.59L134.338 571.4L134.143 571.205L133.944 571.006L133.741 570.803L133.534 570.595L133.322 570.383L133.106 570.167L132.885 569.947L132.661 569.722L132.432 569.493L132.199 569.26L131.961 569.023L131.72 568.781L131.473 568.535L131.223 568.285L130.969 568.03L130.71 567.771L130.447 567.508L130.179 567.241L129.907 566.969L129.907 566.969L129.634 566.704L129.36 566.455L129.086 566.224L128.812 566.01L128.538 565.814L128.264 565.634L127.991 565.471L127.717 565.326L127.443 565.198L127.169 565.086L126.895 564.992L126.621 564.915L126.348 564.855L126.074 564.812L125.8 564.787L125.526 564.778L125.252 564.787L124.978 564.812L124.704 564.855L124.431 564.915L124.157 564.992L123.883 565.086L123.609 565.198L123.335 565.326L123.061 565.471L122.788 565.634L122.514 565.814L122.24 566.01L121.966 566.224L121.692 566.455L121.418 566.704L121.145 566.969L121.145 566.969L120.873 567.241L120.605 567.508L120.342 567.771L120.083 568.03L119.829 568.285L119.579 568.535L119.333 568.781L119.091 569.023L118.853 569.26L118.62 569.493L118.391 569.722L118.167 569.947L117.946 570.167L117.73 570.383L117.518 570.595L117.311 570.803L117.108 571.006L116.909 571.205L116.714 571.4L116.524 571.59L116.337 571.776L116.156 571.958L115.978 572.136L115.805 572.309L115.636 572.478L115.471 572.643L115.31 572.803L115.154 572.959L115.002 573.111L114.855 573.259L114.711 573.402L114.572 573.541L114.572 573.541L114.435 573.678L114.299 573.815L114.162 573.952L114.025 574.089L113.888 574.226L113.751 574.363L113.614 574.5L113.477 574.636L113.34 574.773L113.203 574.91L113.066 575.047L112.929 575.184L112.792 575.321L112.656 575.458L112.519 575.595L112.382 575.732L112.245 575.869L112.108 576.006L111.971 576.143L111.834 576.279L111.697 576.416L111.56 576.553L111.423 576.69L111.286 576.827L111.149 576.964L111.012 577.101L110.876 577.238L110.739 577.375L110.602 577.512L110.465 577.649L110.328 577.786L110.191 577.923L110.191 577.923L110.054 578.057L109.917 578.188L109.78 578.314L109.643 578.436L109.506 578.554L109.369 578.667L109.233 578.776L109.096 578.881L108.959 578.982L108.822 579.078L108.685 579.17L108.548 579.258L108.411 579.341L108.274 579.42L108.137 579.495L108 579.566L107.863 579.632L107.726 579.694L107.589 579.752L107.453 579.805L107.316 579.854L107.179 579.899L107.042 579.94L106.905 579.976L106.768 580.008L106.631 580.036L106.494 580.06L106.357 580.079L106.22 580.094L106.083 580.105L105.946 580.111L105.81 580.113L105.81 580.113L105.672 580.113L105.531 580.113L105.389 580.113L105.245 580.113L105.098 580.113L104.95 580.113L104.799 580.113L104.646 580.113L104.491 580.113L104.333 580.113L104.174 580.113L104.012 580.113L103.849 580.113L103.683 580.113L103.515 580.113L103.345 580.113L103.173 580.113L102.998 580.113L102.822 580.113L102.643 580.113L102.462 580.113L102.28 580.113L102.095 580.113L101.907 580.113L101.718 580.113L101.527 580.113L101.333 580.113L101.137 580.113L100.939 580.113L100.739 580.113L100.537 580.113L100.333 580.113L100.333 580.113L100.127 580.113L99.922 580.113L99.7166 580.113L99.5112 580.113L99.3058 580.113L99.1005 580.113L98.8951 580.113L98.6897 580.113L98.4843 580.113L98.2789 580.113L98.0736 580.113L97.8682 580.113L97.6628 580.113L97.4574 580.113L97.252 580.113L97.0467 580.113L96.8413 580.113L96.6359 580.113L96.4305 580.113L96.2251 580.113L96.0198 580.113L95.8144 580.113L95.609 580.113L95.4036 580.113L95.1982 580.113L94.9929 580.113L94.7875 580.113L94.5821 580.113L94.3767 580.113L94.1713 580.113L93.966 580.113L93.7606 580.113L93.7606 580.113L93.5616 580.11L93.3755 580.1L93.2022 580.084L93.0417 580.062L92.8941 580.033L92.7593 579.998L92.6374 579.956L92.5283 579.908L92.432 579.853L92.3486 579.792L92.278 579.725L92.2202 579.651L92.1753 579.571L92.1432 579.484L92.1239 579.391L92.1175 579.292L92.1239 579.186L92.1432 579.074L92.1753 578.955L92.2202 578.83L92.278 578.698L92.3486 578.56L92.432 578.416L92.5283 578.265L92.6374 578.108L92.7593 577.944L92.8941 577.774L93.0417 577.597L93.2022 577.414L93.3755 577.225L93.5616 577.029L93.7606 576.827L93.7606 576.827L93.9681 576.62L94.1799 576.408L94.396 576.192L94.6163 575.971L94.841 575.747L95.0699 575.518L95.3031 575.285L95.5405 575.047L95.7823 574.805L96.0283 574.559L96.2786 574.309L96.5332 574.055L96.7921 573.796L97.0552 573.533L97.3226 573.265L97.5943 572.993L97.8703 572.717L98.1506 572.437L98.4351 572.153L98.7239 571.864L99.017 571.571L99.3144 571.273L99.616 570.972L99.922 570.666L100.232 570.356L100.547 570.041L100.865 569.722L101.188 569.399L101.516 569.072L101.847 568.74L102.183 568.404L102.523 568.064L102.523 568.064L102.865 567.723L103.204 567.384L103.541 567.047L103.876 566.712L104.208 566.38L104.539 566.049L104.867 565.721L105.193 565.394L105.518 565.07L105.839 564.748L106.159 564.428L106.477 564.111L106.793 563.795L107.106 563.482L107.417 563.17L107.726 562.861L108.033 562.554L108.338 562.249L108.641 561.947L108.942 561.646L109.24 561.348L109.536 561.051L109.83 560.757L110.123 560.465L110.412 560.175L110.7 559.888L110.986 559.602L111.269 559.319L111.551 559.037L111.83 558.758L112.107 558.481L112.382 558.206L112.382 558.206L112.647 557.932L112.895 557.658L113.126 557.385L113.34 557.111L113.537 556.837L113.717 556.563L113.879 556.289L114.025 556.015L114.153 555.741L114.264 555.468L114.358 555.194L114.435 554.92L114.495 554.646L114.538 554.372L114.564 554.098L114.572 553.825L114.564 553.551L114.538 553.277L114.495 553.003L114.435 552.729L114.358 552.455L114.264 552.182L114.153 551.908L114.025 551.634L113.879 551.36L113.717 551.086L113.537 550.812L113.34 550.539L113.126 550.265L112.895 549.991L112.647 549.717L112.382 549.443L112.382 549.443L112.107 549.168L111.83 548.891L111.551 548.612L111.269 548.331L110.986 548.047L110.7 547.762L110.412 547.474L110.123 547.184L109.83 546.892L109.536 546.598L109.24 546.301L108.942 546.003L108.641 545.702L108.338 545.4L108.033 545.095L107.726 544.788L107.417 544.479L107.106 544.167L106.793 543.854L106.477 543.538L106.159 543.221L105.839 542.901L105.518 542.579L105.193 542.255L104.867 541.929L104.539 541.6L104.208 541.27L103.876 540.937L103.541 540.602L103.204 540.265L102.865 539.926L102.523 539.585L102.523 539.585L102.183 539.245L101.847 538.909L101.516 538.577L101.188 538.25L100.865 537.927L100.547 537.608L100.232 537.294L99.922 536.983L99.616 536.678L99.3144 536.376L99.017 536.078L98.7239 535.785L98.4351 535.497L98.1506 535.212L97.8703 534.932L97.5943 534.656L97.3226 534.384L97.0552 534.117L96.7921 533.854L96.5332 533.595L96.2786 533.34L96.0283 533.09L95.7823 532.844L95.5405 532.602L95.3031 532.365L95.0699 532.131L94.841 531.902L94.6163 531.678L94.396 531.457L94.1799 531.241L93.9681 531.03L93.7606 530.822L93.7606 530.822L93.5616 530.62L93.3755 530.424L93.2022 530.235L93.0417 530.052L92.8941 529.875L92.7593 529.705L92.6374 529.542L92.5283 529.384L92.432 529.234L92.3486 529.089L92.278 528.951L92.2202 528.82L92.1753 528.694L92.1432 528.576L92.1239 528.463L92.1175 528.357L92.1239 528.258L92.1432 528.165L92.1753 528.078L92.2202 527.998L92.278 527.924L92.3486 527.857L92.432 527.796L92.5283 527.741L92.6374 527.693L92.7593 527.651L92.8941 527.616L93.0417 527.587L93.2022 527.565L93.3755 527.549L93.5616 527.539L93.7606 527.536L93.7606 527.536L93.966 527.536L94.1713 527.536L94.3767 527.536L94.5821 527.536L94.7875 527.536L94.9929 527.536L95.1982 527.536L95.4036 527.536L95.609 527.536L95.8144 527.536L96.0198 527.536L96.2251 527.536L96.4305 527.536L96.6359 527.536L96.8413 527.536L97.0467 527.536L97.252 527.536L97.4574 527.536L97.6628 527.536L97.8682 527.536L98.0736 527.536L98.2789 527.536L98.4843 527.536L98.6897 527.536L98.8951 527.536L99.1005 527.536L99.3058 527.536L99.5112 527.536L99.7166 527.536L99.922 527.536L100.127 527.536L100.333 527.536L100.333 527.536L100.537 527.536L100.739 527.536L100.939 527.536L101.137 527.536L101.333 527.536L101.527 527.536L101.718 527.536L101.907 527.536L102.095 527.536L102.28 527.536L102.462 527.536L102.643 527.536L102.822 527.536L102.998 527.536L103.173 527.536L103.345 527.536L103.515 527.536L103.683 527.536L103.849 527.536L104.012 527.536L104.174 527.536L104.333 527.536L104.491 527.536L104.646 527.536L104.799 527.536L104.95 527.536L105.098 527.536L105.245 527.536L105.389 527.536L105.531 527.536L105.672 527.536L105.81 527.536L105.81 527.536L105.946 527.538L106.083 527.545L106.22 527.555L106.357 527.57L106.494 527.589L106.631 527.613L106.768 527.641L106.905 527.673L107.042 527.709L107.179 527.75L107.316 527.795L107.453 527.844L107.589 527.898L107.726 527.955L107.863 528.017L108 528.084L108.137 528.154L108.274 528.229L108.411 528.308L108.548 528.392L108.685 528.479L108.822 528.571L108.959 528.668L109.096 528.768L109.233 528.873L109.369 528.982L109.506 529.096L109.643 529.213L109.78 529.335L109.917 529.461L110.054 529.592L110.191 529.727L110.191 529.727L110.328 529.864L110.465 530.001L110.602 530.137L110.739 530.274L110.876 530.411L111.012 530.548L111.149 530.685L111.286 530.822L111.423 530.959L111.56 531.096L111.697 531.233L111.834 531.37L111.971 531.507L112.108 531.644L112.245 531.78L112.382 531.917L112.519 532.054L112.656 532.191L112.792 532.328L112.929 532.465L113.066 532.602L113.203 532.739L113.34 532.876L113.477 533.013L113.614 533.15L113.751 533.287L113.888 533.424L114.025 533.56L114.162 533.697L114.299 533.834L114.435 533.971L114.572 534.108L114.572 534.108L114.711 534.247L114.855 534.391L115.002 534.538L115.154 534.69L115.31 534.846L115.471 535.007L115.636 535.171L115.805 535.34L115.978 535.514L116.156 535.691L116.337 535.873L116.524 536.059L116.714 536.25L116.909 536.444L117.108 536.643L117.311 536.847L117.518 537.054L117.73 537.266L117.946 537.482L118.167 537.702L118.391 537.927L118.62 538.156L118.853 538.389L119.091 538.626L119.333 538.868L119.579 539.114L119.829 539.365L120.083 539.619L120.342 539.878L120.605 540.141L120.873 540.409L121.145 540.68L121.145 540.68L121.418 540.946L121.692 541.194L121.966 541.425L122.24 541.639L122.514 541.836L122.788 542.015L123.061 542.178L123.335 542.323L123.609 542.452L123.883 542.563L124.157 542.657L124.431 542.734L124.704 542.794L124.978 542.837L125.252 542.862L125.526 542.871L125.8 542.862L126.074 542.837L126.348 542.794L126.621 542.734L126.895 542.657L127.169 542.563L127.443 542.452L127.717 542.323L127.991 542.178L128.264 542.015L128.538 541.836L128.812 541.639L129.086 541.425L129.36 541.194L129.634 540.946L129.907 540.68L129.907 540.68L130.179 540.409L130.447 540.141L130.71 539.878L130.969 539.619L131.223 539.365L131.473 539.114L131.72 538.868L131.961 538.626L132.199 538.389L132.432 538.156L132.661 537.927L132.885 537.702L133.106 537.482L133.322 537.266L133.534 537.054L133.741 536.847L133.944 536.643L134.143 536.444L134.338 536.25L134.529 536.059L134.715 535.873L134.896 535.691L135.074 535.514L135.247 535.34L135.416 535.171L135.581 535.007L135.742 534.846L135.898 534.69L136.05 534.538L136.197 534.391L136.341 534.247L136.48 534.108L136.48 534.108L136.617 533.971L136.753 533.834L136.89 533.697L137.027 533.56L137.164 533.424L137.301 533.287L137.438 533.15L137.575 533.013L137.712 532.876L137.849 532.739L137.986 532.602L138.123 532.465L138.26 532.328L138.396 532.191L138.533 532.054L138.67 531.917L138.807 531.78L138.944 531.644L139.081 531.507L139.218 531.37L139.355 531.233L139.492 531.096L139.629 530.959L139.766 530.822L139.903 530.685L140.04 530.548L140.176 530.411L140.313 530.274L140.45 530.137L140.587 530.001L140.724 529.864L140.861 529.727L140.861 529.727L140.998 529.592L141.135 529.461L141.272 529.335L141.409 529.213L141.546 529.096L141.683 528.982L141.819 528.873L141.956 528.768L142.093 528.668L142.23 528.571L142.367 528.479L142.504 528.392L142.641 528.308L142.778 528.229L142.915 528.154L143.052 528.084L143.189 528.017L143.326 527.955L143.463 527.898L143.599 527.844L143.736 527.795L143.873 527.75L144.01 527.709L144.147 527.673L144.284 527.641L144.421 527.613L144.558 527.589L144.695 527.57L144.832 527.555L144.969 527.545L145.106 527.538L145.242 527.536L145.242 527.536L145.38 527.536L145.521 527.536L145.663 527.536L145.807 527.536L145.954 527.536L146.103 527.536L146.253 527.536L146.406 527.536L146.561 527.536L146.719 527.536L146.878 527.536L147.04 527.536L147.203 527.536L147.369 527.536L147.537 527.536L147.707 527.536L147.879 527.536L148.054 527.536L148.23 527.536L148.409 527.536L148.59 527.536L148.772 527.536L148.958 527.536L149.145 527.536L149.334 527.536L149.526 527.536L149.719 527.536L149.915 527.536L150.113 527.536L150.313 527.536L150.515 527.536L150.719 527.536L150.719 527.536L150.925 527.536L151.13 527.536L151.335 527.536L151.541 527.536L151.746 527.536L151.952 527.536L152.157 527.536L152.362 527.536L152.568 527.536L152.773 527.536L152.978 527.536L153.184 527.536L153.389 527.536L153.595 527.536L153.8 527.536L154.005 527.536L154.211 527.536L154.416 527.536L154.622 527.536L154.827 527.536L155.032 527.536L155.238 527.536L155.443 527.536L155.648 527.536L155.854 527.536L156.059 527.536L156.265 527.536L156.47 527.536L156.675 527.536L156.881 527.536L157.086 527.536L157.291 527.536L157.291 527.536L157.49 527.539L157.677 527.549L157.85 527.565L158.01 527.587L158.158 527.616L158.293 527.651L158.415 527.693L158.524 527.741L158.62 527.796L158.703 527.857L158.774 527.924L158.832 527.998L158.877 528.078L158.909 528.165L158.928 528.258L158.935 528.357L158.928 528.463L158.909 528.576L158.877 528.694L158.832 528.82L158.774 528.951L158.703 529.089L158.62 529.234L158.524 529.384L158.415 529.542L158.293 529.705L158.158 529.875L158.01 530.052L157.85 530.235L157.677 530.424L157.49 530.62L157.291 530.822L157.291 530.822L157.083 531.031L156.868 531.246L156.646 531.467L156.419 531.695L156.184 531.929L155.944 532.17L155.697 532.417L155.443 532.67L155.183 532.93L154.917 533.197L154.644 533.47L154.365 533.749L154.079 534.034L153.787 534.326L153.489 534.625L153.184 534.93L152.873 535.241L152.555 535.559L152.231 535.883L151.9 536.213L151.563 536.55L151.22 536.894L150.87 537.243L150.514 537.6L150.151 537.962L149.782 538.331L149.407 538.707L149.025 539.089L148.637 539.477L148.242 539.872L147.841 540.273L147.433 540.68"/>
<path class="l5" d="M673.206 258.077L668.825 255.887L673.206 253.696L673.206 258.077"/>
<path class="l5" d="M671.015 227.407L675.397 227.407L675.397 231.789L671.015 231.789L671.015 227.407z"/>
<path class="l5" d="M635.964 253.696L640.345 253.696L640.345 258.077L635.964 258.077L635.964 253.696z"/>
<path class="l5" d="M671.015 279.985L675.397 279.985L675.397 284.366L671.015 284.366L671.015 279.985z"/>
<path class="l5" d="M673.138 255.818L673.275 255.818L673.275 255.955L673.138 255.955L673.138 255.818z"/>
<path class="l5" d="M671.015 139.778L675.397 139.778L675.397 144.16L671.015 144.16L671.015 139.778z"/>
<path class="l5" d="M671.015 192.356L675.397 192.356L675.397 196.737L671.015 196.737L671.015 192.356z"/>
<path class="l5" d="M610.771 210.977L612.961 210.977L612.961 213.168L610.771 213.168L610.771 210.977z"/>
<path class="l5" d="M470.564 105.822L472.755 105.822L472.755 108.013L470.564 108.013L470.564 105.822z"/>
<path class="l6" d="M353.361 553.825L1050.01 553.825"/>
<path class="l6" d="M15.99 553.825L72.9487 553.825"/>
<text fill="#222222"  xml:space="preserve" font-size="13.6701" transform="translate(20.3714, 478.608)" >MODEL</text>
<text fill="#222222"  xml:space="preserve" font-size="13.6701" style="font-family:Monospace;" transform="translate(29.1343, 500.515)" >.lib cornerMOSlv.lib mos_tt</text>
<text fill="#222222"  xml:space="preserve" font-size="13.6701" transform="translate(20.3714, 93.0415)" >NGSPICE</text>
<text fill="#222222"  xml:space="preserve" font-size="13.6701" style="font-family:Monospace;" transform="translate(29.1343, 130.628)" >.temp 27</text>
<text fill="#222222"  xml:space="preserve" font-size="13.6701" style="font-family:Monospace;" transform="translate(29.1343, 146.308)" >.include mosfet_diode_noise.save</text>
<text fill="#222222"  xml:space="preserve" font-size="13.6701" style="font-family:Monospace;" transform="translate(29.1343, 161.987)" >.control</text>
<text fill="#222222"  xml:space="preserve" font-size="13.6701" style="font-family:Monospace;" transform="translate(29.1343, 177.667)" >option sparse</text>
<text fill="#222222"  xml:space="preserve" font-size="13.6701" style="font-family:Monospace;" transform="translate(29.1343, 193.347)" >save all</text>
<text fill="#222222"  xml:space="preserve" font-size="13.6701" style="font-family:Monospace;" transform="translate(29.1343, 209.026)" >op</text>
<text fill="#222222"  xml:space="preserve" font-size="13.6701" style="font-family:Monospace;" transform="translate(29.1343, 224.706)" >noise v(v_gs) Ibias dec 101 1k 300e9</text>
<text fill="#222222"  xml:space="preserve" font-size="13.6701" style="font-family:Monospace;" transform="translate(29.1343, 240.385)" >setplot noise1</text>
<text fill="#222222"  xml:space="preserve" font-size="13.6701" style="font-family:Monospace;" transform="translate(29.1343, 256.065)" >plot loglog onoise_spectrum</text>
<text fill="#222222"  xml:space="preserve" font-size="13.6701" style="font-family:Monospace;" transform="translate(29.1343, 271.745)" >setplot noise2</text>
<text fill="#222222"  xml:space="preserve" font-size="13.6701" style="font-family:Monospace;" transform="translate(29.1343, 287.424)" >print onoise_total</text>
<text fill="#222222"  xml:space="preserve" font-size="13.6701" style="font-family:Monospace;" transform="translate(29.1343, 303.104)" >write mosfet_diode_noise.raw</text>
<text fill="#222222"  xml:space="preserve" font-size="13.6701" style="font-family:Monospace;" transform="translate(29.1343, 318.783)" >.endc</text>
<text fill="#0099cc"  xml:space="preserve" font-size="9.1134" transform="translate(679.778, 347.409)" >GND</text>
<text fill="#222222"  xml:space="preserve" font-size="9.1134" transform="translate(489.186, 247.731)" >Vdd</text>
<text fill="#222222"  xml:space="preserve" font-size="9.1134" transform="translate(489.186, 269.638)" >1.5</text>
<text fill="#0099cc"  xml:space="preserve" font-size="9.1134" transform="translate(478.232, 347.409)" >GND</text>
<text fill="#0099cc"  xml:space="preserve" font-size="9.1134" transform="translate(741.118, 347.409)" >GND</text>
<text fill="#222222"  xml:space="preserve" font-size="18.2268" transform="translate(362.124, 574.756)" >         mosfet_diode_noise.sch</text>
<text fill="#222222"  xml:space="preserve" font-size="18.2268" transform="translate(362.124, 548.467)" >(c) 2024-2025 Harald Pretl, Apache-2.0 license</text>
<text fill="#222222"  xml:space="preserve" font-size="18.2268" transform="translate(844.01, 548.467)" >2026-06-24  15:14:13</text>
<text fill="#222222"  xml:space="preserve" font-size="45.567" transform="translate(160.578, 573.292)" >SCHEM</text>
<text fill="#222222"  xml:space="preserve" font-size="9.1134" transform="translate(646.062, 237.873)" >M1</text>
<text fill="#ff0000"  xml:space="preserve" font-size="6.83505" transform="translate(641.917, 253.33)" >G</text>
<text fill="#222222"  xml:space="preserve" font-size="9.1134" transform="translate(681.969, 281.093)" >sg13_lv_nmos</text>
<text fill="#666600"  xml:space="preserve" font-size="9.1134" transform="translate(683.064, 269.638)" >m=1</text>
<text fill="#666600"  xml:space="preserve" font-size="9.1134" transform="translate(683.064, 261.971)" >ng=1</text>
<text fill="#666600"  xml:space="preserve" font-size="9.1134" transform="translate(683.064, 251.017)" >l=0.13u</text>
<text fill="#666600"  xml:space="preserve" font-size="9.1134" transform="translate(683.064, 241.159)" >w=1u</text>
<text fill="#ff0000"  xml:space="preserve" font-size="6.83505" transform="translate(675.397, 277.428)" >S</text>
<text fill="#ff0000"  xml:space="preserve" font-size="6.83505" transform="translate(675.397, 238.918)" >D</text>
<text fill="#ff0000"  xml:space="preserve" font-size="6.83505" transform="translate(673.206, 253.33)" >B</text>
<text fill="#222222"  xml:space="preserve" font-size="18.2268" transform="translate(462.897, 445.957)" >simulate</text>
<text fill="#222222"  xml:space="preserve" font-size="18.2268" transform="translate(673.206, 445.957)" >annotate OP</text>
<text fill="#222222"  xml:space="preserve" font-size="9.1134" transform="translate(690.732, 167.77)" >Ibias</text>
<text fill="#222222"  xml:space="preserve" font-size="9.1134" transform="translate(690.732, 178.223)" >dc 20u ac 1</text>
<text fill="#0099cc"  xml:space="preserve" font-size="15.0371" transform="translate(570.294, 218.606)" >v_gs</text>
<text fill="#0099cc"  xml:space="preserve" font-size="15.0371" transform="translate(428.088, 113.452)" >v_dd</text>
<text fill="#aa2222"  xml:space="preserve" font-size="9.1134" style="font-family:Monospace;" transform="translate(809.031, 233.492)" >ids   = NaN</text>
<text fill="#aa2222"  xml:space="preserve" font-size="9.1134" style="font-family:Monospace;" transform="translate(809.031, 243.945)" >gm    = NaN</text>
<text fill="#aa2222"  xml:space="preserve" font-size="9.1134" style="font-family:Monospace;" transform="translate(809.031, 254.398)" >gds   = NaN</text>
<text fill="#aa2222"  xml:space="preserve" font-size="9.1134" style="font-family:Monospace;" transform="translate(809.031, 264.851)" >vth   = NaN</text>
<text fill="#aa2222"  xml:space="preserve" font-size="9.1134" style="font-family:Monospace;" transform="translate(809.031, 275.304)" >vgs   = NaN</text>
<text fill="#aa2222"  xml:space="preserve" font-size="9.1134" style="font-family:Monospace;" transform="translate(809.031, 285.757)" >vdss  = NaN</text>
<text fill="#aa2222"  xml:space="preserve" font-size="9.1134" style="font-family:Monospace;" transform="translate(809.031, 296.21)" >vds   = NaN</text>
<text fill="#aa2222"  xml:space="preserve" font-size="9.1134" style="font-family:Monospace;" transform="translate(809.031, 306.663)" >cgg   = NaN</text>
<text fill="#aa2222"  xml:space="preserve" font-size="9.1134" style="font-family:Monospace;" transform="translate(809.031, 317.116)" >ft    = NaN</text>
<text fill="#aa2222"  xml:space="preserve" font-size="9.1134" style="font-family:Monospace;" transform="translate(809.031, 327.569)" >gm/id = NaN</text>
<text fill="#229900"  xml:space="preserve" font-size="9.1134" transform="translate(804.649, 218.657)" >M1</text>
<path class="l1" d="M673.206 282.175L673.206 334.753"/>
<path class="l1" d="M471.66 282.175L471.66 334.753"/>
<path class="l1" d="M673.206 255.887L734.546 255.887"/>
<path class="l1" d="M734.546 255.887L734.546 334.753"/>
<path class="l1" d="M673.206 106.918L673.206 141.969"/>
<path class="l1" d="M471.66 106.918L471.66 229.598"/>
<path class="l1" d="M471.66 106.918L673.206 106.918"/>
<path class="l1" d="M673.206 212.072L673.206 229.598"/>
<path class="l1" d="M611.866 255.887L638.155 255.887"/>
<path class="l1" d="M611.866 212.072L611.866 255.887"/>
<path class="l1" d="M611.866 212.072L673.206 212.072"/>
<path class="l1" d="M673.206 194.546L673.206 212.072"/>
<circle class="l1" cx="673.206" cy="212.072" r="3.24227"/>
<circle class="l1" cx="673.206" cy="212.072" r="3.24227"/>
<circle class="l1" cx="673.206" cy="212.072" r="3.24227"/>
</svg>
