<svg xmlns="http://www.w3.org/2000/svg" xmlns:xlink="http://www.w3.org/1999/xlink" width="900" height="532" version="1.1">
<style type="text/css">
.l0{
  fill: #ffffff;
  stroke: #ffffff;
  stroke-linecap:round;
  stroke-linejoin:round;
  stroke-width: 0.799017;
}
.l1{
  fill: #0044ee;
  stroke: #0044ee;
  stroke-linecap:round;
  stroke-linejoin:round;
  stroke-width: 0.799017;
}
.l2{
  fill: #aaaaaa; fill-opacity: 0.2;
  stroke: #aaaaaa;
  stroke-linecap:round;
  stroke-linejoin:round;
  stroke-width: 0.799017;
}
.l3{
  fill: #222222; fill-opacity: 0.5;
  stroke: #222222;
  stroke-linecap:round;
  stroke-linejoin:round;
  stroke-width: 0.799017;
}
.l4{
  fill: #229900;
  stroke: #229900;
  stroke-linecap:round;
  stroke-linejoin:round;
  stroke-width: 0.799017;
}
.l5{
  fill: #bb2200;
  stroke: #bb2200;
  stroke-linecap:round;
  stroke-linejoin:round;
  stroke-width: 0.799017;
}
.l6{
  fill: #00ccee; fill-opacity: 0.5;
  stroke: #00ccee;
  stroke-linecap:round;
  stroke-linejoin:round;
  stroke-width: 0.799017;
}
.l7{
  fill: #ff0000; fill-opacity: 0.5;
  stroke: #ff0000;
  stroke-linecap:round;
  stroke-linejoin:round;
  stroke-width: 0.799017;
}
.l8{
  fill: #888800; fill-opacity: 0.5;
  stroke: #888800;
  stroke-linecap:round;
  stroke-linejoin:round;
  stroke-width: 0.799017;
}
.l9{
  fill: #00aaaa; fill-opacity: 0.5;
  stroke: #00aaaa;
  stroke-linecap:round;
  stroke-linejoin:round;
  stroke-width: 0.799017;
}
.l10{
  fill: #880088;
  stroke: #880088;
  stroke-linecap:round;
  stroke-linejoin:round;
  stroke-width: 0.799017;
}
.l11{
  fill: #00ff00; fill-opacity: 0.5;
  stroke: #00ff00;
  stroke-linecap:round;
  stroke-linejoin:round;
  stroke-width: 0.799017;
}
.l12{
  fill: #0000cc; fill-opacity: 0.5;
  stroke: #0000cc;
  stroke-linecap:round;
  stroke-linejoin:round;
  stroke-width: 0.799017;
}
.l13{
  fill: #666600; fill-opacity: 0.5;
  stroke: #666600;
  stroke-linecap:round;
  stroke-linejoin:round;
  stroke-width: 0.799017;
}
.l14{
  fill: #557755; fill-opacity: 0.2;
  stroke: #557755;
  stroke-linecap:round;
  stroke-linejoin:round;
  stroke-width: 0.799017;
}
.l15{
  fill: #aa2222; fill-opacity: 0.5;
  stroke: #aa2222;
  stroke-linecap:round;
  stroke-linejoin:round;
  stroke-width: 0.799017;
}
.l16{
  fill: #7ccc40; fill-opacity: 0.5;
  stroke: #7ccc40;
  stroke-linecap:round;
  stroke-linejoin:round;
  stroke-width: 0.799017;
}
.l17{
  fill: #00ffcc; fill-opacity: 0.2;
  stroke: #00ffcc;
  stroke-linecap:round;
  stroke-linejoin:round;
  stroke-width: 0.799017;
}
.l18{
  fill: #ce0097; fill-opacity: 0.5;
  stroke: #ce0097;
  stroke-linecap:round;
  stroke-linejoin:round;
  stroke-width: 0.799017;
}
.l19{
  fill: #d2d46b; fill-opacity: 0.2;
  stroke: #d2d46b;
  stroke-linecap:round;
  stroke-linejoin:round;
  stroke-width: 0.799017;
}
.l20{
  fill: #ef6158; fill-opacity: 0.2;
  stroke: #ef6158;
  stroke-linecap:round;
  stroke-linejoin:round;
  stroke-width: 0.799017;
}
.l21{
  fill: #fdb200; fill-opacity: 0.2;
  stroke: #fdb200;
  stroke-linecap:round;
  stroke-linejoin:round;
  stroke-width: 0.799017;
}
text {font-family: Sans-Serif;}
</style>
<rect class="l0" x="0" y="0" width="900" height="532"/>
<text fill="#0044ee"  xml:space="preserve" font-size="7.69424" transform="translate(573.922, 278.165)" >GND</text>
<text fill="#0044ee"  xml:space="preserve" font-size="7.69424" transform="translate(403.761, 278.165)" >GND</text>
<text fill="#0044ee"  xml:space="preserve" font-size="7.69424" transform="translate(625.71, 278.165)" >GND</text>
<text fill="#0044ee"  xml:space="preserve" font-size="12.6955" transform="translate(482.036, 169.42)" >v_gs</text>
<text fill="#0044ee"  xml:space="preserve" font-size="12.6955" transform="translate(362.663, 80.6401)" >v_dd</text>
<text fill="#222222"  xml:space="preserve" font-size="11.5414" transform="translate(17.1992, 388.934)" >MODEL</text>
<text fill="#222222"  xml:space="preserve" font-size="11.5414" style="font-family:Monospace;" transform="translate(24.5975, 407.43)" >.lib cornerMOSlv.lib mos_tt</text>
<text fill="#222222"  xml:space="preserve" font-size="11.5414" transform="translate(17.1992, 63.4084)" >NGSPICE</text>
<text fill="#222222"  xml:space="preserve" font-size="11.5414" style="font-family:Monospace;" transform="translate(24.5975, 95.1421)" >.temp 27</text>
<text fill="#222222"  xml:space="preserve" font-size="11.5414" style="font-family:Monospace;" transform="translate(24.5975, 108.38)" >.control</text>
<text fill="#222222"  xml:space="preserve" font-size="11.5414" style="font-family:Monospace;" transform="translate(24.5975, 121.618)" >option sparse</text>
<text fill="#222222"  xml:space="preserve" font-size="11.5414" style="font-family:Monospace;" transform="translate(24.5975, 134.856)" >save all</text>
<text fill="#222222"  xml:space="preserve" font-size="11.5414" style="font-family:Monospace;" transform="translate(24.5975, 148.094)" >op</text>
<text fill="#222222"  xml:space="preserve" font-size="11.5414" style="font-family:Monospace;" transform="translate(24.5975, 161.332)" >noise v(v_gs) Ibias dec 101 1k 300e9</text>
<text fill="#222222"  xml:space="preserve" font-size="11.5414" style="font-family:Monospace;" transform="translate(24.5975, 174.57)" >setplot noise1</text>
<text fill="#222222"  xml:space="preserve" font-size="11.5414" style="font-family:Monospace;" transform="translate(24.5975, 187.808)" >plot loglog onoise_spectrum</text>
<text fill="#222222"  xml:space="preserve" font-size="11.5414" style="font-family:Monospace;" transform="translate(24.5975, 201.046)" >setplot noise2</text>
<text fill="#222222"  xml:space="preserve" font-size="11.5414" style="font-family:Monospace;" transform="translate(24.5975, 214.283)" >print onoise_total</text>
<text fill="#222222"  xml:space="preserve" font-size="11.5414" style="font-family:Monospace;" transform="translate(24.5975, 227.521)" >write mosfet_diode_noise.raw</text>
<text fill="#222222"  xml:space="preserve" font-size="11.5414" style="font-family:Monospace;" transform="translate(24.5975, 240.759)" >.endc</text>
<text fill="#222222"  xml:space="preserve" font-size="7.69424" transform="translate(413.008, 194.009)" >Vdd</text>
<text fill="#222222"  xml:space="preserve" font-size="7.69424" transform="translate(413.008, 212.505)" >1.5</text>
<text fill="#222222"  xml:space="preserve" font-size="15.3885" transform="translate(305.733, 470.109)" >         mosfet_diode_noise.sch</text>
<text fill="#222222"  xml:space="preserve" font-size="15.3885" transform="translate(305.733, 447.914)" >(c) 2024 H. Pretl, Apache-2.0 license</text>
<text fill="#222222"  xml:space="preserve" font-size="15.3885" transform="translate(714.5, 447.914)" >2025-03-16  12:07:57</text>
<text fill="#222222"  xml:space="preserve" font-size="38.4712" transform="translate(135.572, 468.873)" >SCHEM</text>
<text fill="#222222"  xml:space="preserve" font-size="7.69424" transform="translate(545.275, 185.686)" >M1</text>
<text fill="#ff0000"  xml:space="preserve" font-size="5.77068" transform="translate(542.178, 198.736)" >G</text>
<text fill="#222222"  xml:space="preserve" font-size="7.69424" transform="translate(575.771, 222.176)" >sg13_lv_nmos</text>
<text fill="#666600"  xml:space="preserve" font-size="7.69424" transform="translate(576.696, 212.505)" >m=1</text>
<text fill="#666600"  xml:space="preserve" font-size="7.69424" transform="translate(576.696, 206.032)" >ng=1</text>
<text fill="#666600"  xml:space="preserve" font-size="7.69424" transform="translate(576.696, 196.784)" >l=0.13u</text>
<text fill="#666600"  xml:space="preserve" font-size="7.69424" transform="translate(576.696, 188.461)" >w=1u</text>
<text fill="#ff0000"  xml:space="preserve" font-size="5.77068" transform="translate(570.222, 219.082)" >S</text>
<text fill="#ff0000"  xml:space="preserve" font-size="5.77068" transform="translate(570.222, 186.569)" >D</text>
<text fill="#ff0000"  xml:space="preserve" font-size="5.77068" transform="translate(568.373, 198.736)" >B</text>
<text fill="#222222"  xml:space="preserve" font-size="15.3885" transform="translate(390.814, 361.232)" >simulate</text>
<text fill="#222222"  xml:space="preserve" font-size="15.3885" transform="translate(568.373, 361.232)" >annotate OP</text>
<text fill="#222222"  xml:space="preserve" font-size="7.69424" transform="translate(583.169, 126.5)" >Ibias</text>
<text fill="#222222"  xml:space="preserve" font-size="7.69424" transform="translate(583.169, 135.325)" >dc 20u ac 1</text>
<path class="l4" d="M13.5 393.251L65.2881 393.251"/>
<path class="l4" d="M13.5 393.251L13.5 408.047"/>
<path class="l4" d="M13.5 67.7254L65.2881 67.7254"/>
<path class="l4" d="M13.5 67.7254L13.5 82.522"/>
<path class="l4" d="M568.373 267.48L568.373 276.728"/>
<path class="l4" d="M564.674 276.728L572.072 276.728"/>
<path class="l4" d="M568.373 280.427L572.072 276.728"/>
<path class="l4" d="M564.674 276.728L568.373 280.427"/>
<path class="l4" d="M400.061 184.249L403.761 184.249"/>
<path class="l4" d="M401.911 182.399L401.911 186.098"/>
<path class="l4" d="M398.212 178.7L398.212 223.09"/>
<circle class="l4" cx="398.212" cy="200.895" r="11.0975" style="fill:none;" />
<path class="l4" d="M398.212 267.48L398.212 276.728"/>
<path class="l4" d="M394.513 276.728L401.911 276.728"/>
<path class="l4" d="M398.212 280.427L401.911 276.728"/>
<path class="l4" d="M394.513 276.728L398.212 280.427"/>
<path class="l4" d="M620.161 267.48L620.161 276.728"/>
<path class="l4" d="M616.462 276.728L623.86 276.728"/>
<path class="l4" d="M620.161 280.427L623.86 276.728"/>
<path class="l4" d="M616.462 276.728L620.161 280.427"/>
<path class="l4" d="M559.125 184.249L559.125 217.541"/>
<path class="l4" d="M568.373 178.7L568.373 187.948"/>
<path class="l4" d="M568.373 213.842L568.373 223.09"/>
<path class="l4" d="M555.426 189.797L555.426 211.992"/>
<path class="l4" d="M559.125 213.842L568.373 213.842"/>
<path class="l4" d="M559.125 187.948L568.373 187.948"/>
<path class="l4" d="M538.78 200.895L555.056 200.895"/>
<path class="l4" d="M564.674 215.692L568.373 213.842L564.674 211.992L564.674 215.692"/>
<path class="l4" d="M383.415 356.259L361.22 347.011L361.22 352.56L339.025 352.56L346.424 356.259L339.025 359.958L361.22 359.958L361.22 365.507L383.415 356.259"/>
<path class="l4" d="M560.975 356.259L538.78 347.011L538.78 352.56L516.585 352.56L523.983 356.259L516.585 359.958L538.78 359.958L538.78 365.507L560.975 356.259"/>
<path class="l4" d="M568.373 104.717L568.373 115.814"/>
<path class="l4" d="M568.373 138.009L568.373 149.107"/>
<path class="l4" d="M570.222 110.266L573.922 110.266"/>
<path class="l4" d="M572.072 108.416L572.072 112.115"/>
<path class="l4" d="M568.373 121.363L568.373 128.761L570.222 128.761L568.373 134.31L566.523 128.761L568.373 128.761L568.373 121.363"/>
<circle class="l4" cx="568.373" cy="126.912" r="11.0975" style="fill:none;" />
<path class="l5" d="M566.523 265.63L570.222 265.63L570.222 269.329L566.523 269.329L566.523 265.63z"/>
<path class="l5" d="M396.362 176.85L400.061 176.85L400.061 180.55L396.362 180.55L396.362 176.85z"/>
<path class="l5" d="M396.362 221.24L400.061 221.24L400.061 224.939L396.362 224.939L396.362 221.24z"/>
<path class="l5" d="M396.362 265.63L400.061 265.63L400.061 269.329L396.362 269.329L396.362 265.63z"/>
<path class="l5" d="M618.311 265.63L622.011 265.63L622.011 269.329L618.311 269.329L618.311 265.63z"/>
<path class="l5" d="M124.475 441.34L124.243 441.571L124.012 441.802L123.781 442.033L123.55 442.265L123.319 442.496L123.087 442.727L122.856 442.958L122.625 443.189L122.394 443.421L122.163 443.652L121.931 443.883L121.7 444.114L121.469 444.345L121.238 444.577L121.007 444.808L120.775 445.039L120.544 445.27L120.313 445.501L120.082 445.733L119.851 445.964L119.619 446.195L119.388 446.426L119.157 446.657L118.926 446.889L118.695 447.12L118.463 447.351L118.232 447.582L118.001 447.813L117.77 448.045L117.539 448.276L117.307 448.507L117.076 448.738L117.076 448.738L116.852 448.969L116.643 449.201L116.448 449.432L116.267 449.663L116.101 449.894L115.949 450.125L115.812 450.357L115.689 450.588L115.581 450.819L115.487 451.05L115.407 451.281L115.342 451.512L115.292 451.744L115.256 451.975L115.234 452.206L115.227 452.437L115.234 452.668L115.256 452.9L115.292 453.131L115.342 453.362L115.407 453.593L115.487 453.824L115.581 454.056L115.689 454.287L115.812 454.518L115.949 454.749L116.101 454.98L116.267 455.212L116.448 455.443L116.643 455.674L116.852 455.905L117.076 456.136L117.076 456.136L117.308 456.369L117.542 456.602L117.778 456.838L118.016 457.076L118.255 457.315L118.496 457.556L118.739 457.799L118.984 458.044L119.23 458.29L119.479 458.539L119.729 458.789L119.981 459.041L120.234 459.295L120.49 459.55L120.747 459.808L121.007 460.067L121.268 460.328L121.53 460.591L121.795 460.855L122.061 461.122L122.33 461.39L122.6 461.66L122.872 461.932L123.145 462.205L123.421 462.481L123.698 462.758L123.977 463.037L124.258 463.318L124.541 463.601L124.825 463.885L125.111 464.171L125.399 464.46L125.399 464.46L125.687 464.747L125.97 465.03L126.25 465.31L126.526 465.587L126.799 465.859L127.068 466.128L127.334 466.394L127.596 466.656L127.854 466.914L128.109 467.169L128.36 467.42L128.607 467.667L128.851 467.911L129.091 468.151L129.328 468.388L129.561 468.621L129.79 468.85L130.016 469.076L130.238 469.298L130.457 469.517L130.672 469.732L130.883 469.943L131.091 470.151L131.295 470.355L131.495 470.556L131.692 470.752L131.886 470.946L132.075 471.135L132.261 471.321L132.444 471.504L132.622 471.683L132.798 471.858L132.798 471.858L132.966 472.029L133.123 472.194L133.269 472.354L133.405 472.508L133.529 472.657L133.643 472.801L133.746 472.939L133.838 473.072L133.919 473.199L133.99 473.321L134.049 473.437L134.098 473.548L134.136 473.654L134.163 473.754L134.179 473.849L134.185 473.939L134.179 474.023L134.163 474.101L134.136 474.174L134.098 474.242L134.049 474.304L133.99 474.361L133.919 474.413L133.838 474.459L133.746 474.499L133.643 474.535L133.529 474.564L133.405 474.589L133.269 474.608L133.123 474.621L132.966 474.629L132.798 474.632L132.798 474.632L132.624 474.632L132.451 474.632L132.277 474.632L132.104 474.632L131.931 474.632L131.757 474.632L131.584 474.632L131.41 474.632L131.237 474.632L131.064 474.632L130.89 474.632L130.717 474.632L130.543 474.632L130.37 474.632L130.197 474.632L130.023 474.632L129.85 474.632L129.677 474.632L129.503 474.632L129.33 474.632L129.156 474.632L128.983 474.632L128.81 474.632L128.636 474.632L128.463 474.632L128.289 474.632L128.116 474.632L127.943 474.632L127.769 474.632L127.596 474.632L127.422 474.632L127.249 474.632L127.249 474.632L127.076 474.632L126.906 474.632L126.737 474.632L126.57 474.632L126.405 474.632L126.241 474.632L126.079 474.632L125.92 474.632L125.762 474.632L125.605 474.632L125.451 474.632L125.298 474.632L125.147 474.632L124.998 474.632L124.851 474.632L124.706 474.632L124.562 474.632L124.42 474.632L124.28 474.632L124.142 474.632L124.006 474.632L123.871 474.632L123.739 474.632L123.608 474.632L123.478 474.632L123.351 474.632L123.226 474.632L123.102 474.632L122.98 474.632L122.86 474.632L122.742 474.632L122.625 474.632L122.625 474.632L122.509 474.63L122.394 474.625L122.278 474.616L122.163 474.603L122.047 474.587L121.931 474.567L121.816 474.544L121.7 474.517L121.585 474.486L121.469 474.452L121.353 474.414L121.238 474.372L121.122 474.327L121.007 474.278L120.891 474.226L120.775 474.17L120.66 474.11L120.544 474.047L120.429 473.98L120.313 473.91L120.197 473.836L120.082 473.758L119.966 473.677L119.851 473.592L119.735 473.503L119.619 473.411L119.504 473.315L119.388 473.216L119.273 473.113L119.157 473.007L119.041 472.896L118.926 472.783L118.926 472.783L118.81 472.667L118.695 472.551L118.579 472.436L118.463 472.32L118.348 472.205L118.232 472.089L118.117 471.973L118.001 471.858L117.885 471.742L117.77 471.627L117.654 471.511L117.539 471.395L117.423 471.28L117.307 471.164L117.192 471.049L117.076 470.933L116.961 470.817L116.845 470.702L116.729 470.586L116.614 470.471L116.498 470.355L116.383 470.239L116.267 470.124L116.151 470.008L116.036 469.893L115.92 469.777L115.805 469.661L115.689 469.546L115.573 469.43L115.458 469.315L115.342 469.199L115.227 469.083L115.227 469.083L115.109 468.966L114.988 468.845L114.864 468.72L114.735 468.592L114.604 468.46L114.468 468.325L114.329 468.186L114.186 468.043L114.04 467.897L113.89 467.747L113.737 467.593L113.579 467.436L113.419 467.275L113.254 467.111L113.086 466.943L112.915 466.772L112.74 466.596L112.561 466.417L112.378 466.235L112.192 466.049L112.003 465.859L111.809 465.666L111.612 465.469L111.412 465.269L111.208 465.065L111 464.857L110.789 464.646L110.574 464.431L110.355 464.212L110.133 463.99L109.907 463.764L109.678 463.535L109.678 463.535L109.447 463.311L109.216 463.101L108.984 462.906L108.753 462.726L108.522 462.559L108.291 462.408L108.06 462.27L107.828 462.148L107.597 462.039L107.366 461.945L107.135 461.866L106.904 461.801L106.672 461.75L106.441 461.714L106.21 461.692L105.979 461.685L105.748 461.692L105.516 461.714L105.285 461.75L105.054 461.801L104.823 461.866L104.592 461.945L104.36 462.039L104.129 462.148L103.898 462.27L103.667 462.408L103.436 462.559L103.204 462.726L102.973 462.906L102.742 463.101L102.511 463.311L102.28 463.535L102.28 463.535L102.05 463.764L101.824 463.99L101.602 464.212L101.384 464.431L101.169 464.646L100.958 464.857L100.75 465.065L100.546 465.269L100.345 465.469L100.148 465.666L99.955 465.859L99.7654 466.049L99.5794 466.235L99.3969 466.417L99.2181 466.596L99.0429 466.772L98.8713 466.943L98.7033 467.111L98.539 467.275L98.3782 467.436L98.2211 467.593L98.0675 467.747L97.9176 467.897L97.7713 468.043L97.6286 468.186L97.4895 468.325L97.3541 468.46L97.2222 468.592L97.094 468.72L96.9694 468.845L96.8483 468.966L96.7309 469.083L96.7309 469.083L96.6153 469.199L96.4997 469.315L96.3841 469.43L96.2685 469.546L96.1529 469.661L96.0373 469.777L95.9217 469.893L95.8061 470.008L95.6905 470.124L95.5749 470.239L95.4593 470.355L95.3438 470.471L95.2282 470.586L95.1126 470.702L94.997 470.817L94.8814 470.933L94.7658 471.049L94.6502 471.164L94.5346 471.28L94.419 471.395L94.3034 471.511L94.1878 471.627L94.0722 471.742L93.9566 471.858L93.841 471.973L93.7254 472.089L93.6098 472.205L93.4942 472.32L93.3786 472.436L93.263 472.551L93.1474 472.667L93.0318 472.783L93.0318 472.783L92.9162 472.896L92.8006 473.007L92.685 473.113L92.5694 473.216L92.4538 473.315L92.3382 473.411L92.2226 473.503L92.107 473.592L91.9914 473.677L91.8758 473.758L91.7602 473.836L91.6446 473.91L91.529 473.98L91.4134 474.047L91.2978 474.11L91.1822 474.17L91.0666 474.226L90.951 474.278L90.8354 474.327L90.7198 474.372L90.6042 474.414L90.4886 474.452L90.373 474.486L90.2574 474.517L90.1418 474.544L90.0262 474.567L89.9106 474.587L89.795 474.603L89.6794 474.616L89.5638 474.625L89.4482 474.63L89.3326 474.632L89.3326 474.632L89.2161 474.632L89.0978 474.632L88.9777 474.632L88.8558 474.632L88.7321 474.632L88.6065 474.632L88.4792 474.632L88.35 474.632L88.2191 474.632L88.0863 474.632L87.9518 474.632L87.8154 474.632L87.6772 474.632L87.5372 474.632L87.3954 474.632L87.2519 474.632L87.1065 474.632L86.9592 474.632L86.8102 474.632L86.6594 474.632L86.5068 474.632L86.3524 474.632L86.1961 474.632L86.0381 474.632L85.8782 474.632L85.7166 474.632L85.5531 474.632L85.3878 474.632L85.2208 474.632L85.0519 474.632L84.8812 474.632L84.7087 474.632L84.7087 474.632L84.5353 474.632L84.3619 474.632L84.1885 474.632L84.0151 474.632L83.8417 474.632L83.6683 474.632L83.4949 474.632L83.3215 474.632L83.1481 474.632L82.9747 474.632L82.8013 474.632L82.6279 474.632L82.4545 474.632L82.2811 474.632L82.1077 474.632L81.9343 474.632L81.7609 474.632L81.5875 474.632L81.4141 474.632L81.2407 474.632L81.0673 474.632L80.8939 474.632L80.7205 474.632L80.5471 474.632L80.3737 474.632L80.2003 474.632L80.0269 474.632L79.8535 474.632L79.6802 474.632L79.5068 474.632L79.3334 474.632L79.16 474.632L79.16 474.632L78.992 474.629L78.8348 474.621L78.6885 474.608L78.5531 474.589L78.4284 474.564L78.3146 474.535L78.2117 474.499L78.1196 474.459L78.0383 474.413L77.9678 474.361L77.9082 474.304L77.8595 474.242L77.8215 474.174L77.7945 474.101L77.7782 474.023L77.7728 473.939L77.7782 473.849L77.7945 473.754L77.8215 473.654L77.8595 473.548L77.9082 473.437L77.9678 473.321L78.0383 473.199L78.1196 473.072L78.2117 472.939L78.3146 472.801L78.4284 472.657L78.5531 472.508L78.6885 472.354L78.8348 472.194L78.992 472.029L79.16 471.858L79.16 471.858L79.3352 471.683L79.514 471.504L79.6964 471.321L79.8824 471.135L80.0721 470.946L80.2654 470.752L80.4622 470.556L80.6627 470.355L80.8668 470.151L81.0746 469.943L81.2859 469.732L81.5008 469.517L81.7194 469.298L81.9415 469.076L82.1673 468.85L82.3967 468.621L82.6297 468.388L82.8663 468.151L83.1066 467.911L83.3504 467.667L83.5979 467.42L83.8489 467.169L84.1036 466.914L84.3619 466.656L84.6238 466.394L84.8893 466.128L85.1584 465.859L85.4312 465.587L85.7075 465.31L85.9875 465.03L86.2711 464.747L86.5583 464.46L86.5583 464.46L86.8464 464.171L87.1326 463.885L87.4171 463.601L87.6998 463.318L87.9807 463.037L88.2597 462.758L88.537 462.481L88.8124 462.205L89.0861 461.932L89.3579 461.66L89.6279 461.39L89.8962 461.122L90.1626 460.855L90.4272 460.591L90.69 460.328L90.951 460.067L91.2102 459.808L91.4676 459.55L91.7232 459.295L91.9769 459.041L92.2289 458.789L92.4791 458.539L92.7274 458.29L92.974 458.044L93.2187 457.799L93.4617 457.556L93.7028 457.315L93.9421 457.076L94.1796 456.838L94.4153 456.602L94.6493 456.369L94.8814 456.136L94.8814 456.136L95.1053 455.905L95.3149 455.674L95.5099 455.443L95.6905 455.212L95.8567 454.98L96.0084 454.749L96.1457 454.518L96.2685 454.287L96.3769 454.056L96.4708 453.824L96.5503 453.593L96.6153 453.362L96.6659 453.131L96.702 452.9L96.7237 452.668L96.7309 452.437L96.7237 452.206L96.702 451.975L96.6659 451.744L96.6153 451.512L96.5503 451.281L96.4708 451.05L96.3769 450.819L96.2685 450.588L96.1457 450.357L96.0084 450.125L95.8567 449.894L95.6905 449.663L95.5099 449.432L95.3149 449.201L95.1053 448.969L94.8814 448.738L94.8814 448.738L94.6493 448.506L94.4153 448.272L94.1796 448.036L93.9421 447.799L93.7028 447.56L93.4617 447.318L93.2187 447.076L92.974 446.831L92.7274 446.584L92.4791 446.336L92.2289 446.086L91.9769 445.834L91.7232 445.58L91.4676 445.324L91.2102 445.067L90.951 444.808L90.69 444.547L90.4272 444.284L90.1626 444.019L89.8962 443.753L89.6279 443.485L89.3579 443.215L89.0861 442.943L88.8124 442.669L88.537 442.394L88.2597 442.117L87.9807 441.837L87.6998 441.557L87.4171 441.274L87.1326 440.989L86.8464 440.703L86.5583 440.415L86.5583 440.415L86.2711 440.128L85.9875 439.844L85.7075 439.564L85.4312 439.288L85.1584 439.015L84.8893 438.746L84.6238 438.481L84.3619 438.219L84.1036 437.96L83.8489 437.706L83.5979 437.455L83.3504 437.207L83.1066 436.963L82.8663 436.723L82.6297 436.486L82.3967 436.253L82.1673 436.024L81.9415 435.798L81.7194 435.576L81.5008 435.358L81.2859 435.143L81.0746 434.931L80.8668 434.724L80.6627 434.52L80.4622 434.319L80.2654 434.122L80.0721 433.929L79.8824 433.739L79.6964 433.553L79.514 433.371L79.3352 433.192L79.16 433.017L79.16 433.017L78.992 432.846L78.8348 432.681L78.6885 432.521L78.5531 432.366L78.4284 432.217L78.3146 432.074L78.2117 431.936L78.1196 431.803L78.0383 431.676L77.9678 431.554L77.9082 431.437L77.8595 431.326L77.8215 431.22L77.7945 431.12L77.7782 431.025L77.7728 430.936L77.7782 430.852L77.7945 430.773L77.8215 430.7L77.8595 430.633L77.9082 430.57L77.9678 430.513L78.0383 430.462L78.1196 430.416L78.2117 430.375L78.3146 430.34L78.4284 430.31L78.5531 430.286L78.6885 430.267L78.8348 430.253L78.992 430.245L79.16 430.242L79.16 430.242L79.3334 430.242L79.5068 430.242L79.6802 430.242L79.8535 430.242L80.0269 430.242L80.2003 430.242L80.3737 430.242L80.5471 430.242L80.7205 430.242L80.8939 430.242L81.0673 430.242L81.2407 430.242L81.4141 430.242L81.5875 430.242L81.7609 430.242L81.9343 430.242L82.1077 430.242L82.2811 430.242L82.4545 430.242L82.6279 430.242L82.8013 430.242L82.9747 430.242L83.1481 430.242L83.3215 430.242L83.4949 430.242L83.6683 430.242L83.8417 430.242L84.0151 430.242L84.1885 430.242L84.3619 430.242L84.5353 430.242L84.7087 430.242L84.7087 430.242L84.8812 430.242L85.0519 430.242L85.2208 430.242L85.3878 430.242L85.5531 430.242L85.7166 430.242L85.8782 430.242L86.0381 430.242L86.1961 430.242L86.3524 430.242L86.5068 430.242L86.6594 430.242L86.8102 430.242L86.9592 430.242L87.1065 430.242L87.2519 430.242L87.3954 430.242L87.5372 430.242L87.6772 430.242L87.8154 430.242L87.9518 430.242L88.0863 430.242L88.2191 430.242L88.35 430.242L88.4792 430.242L88.6065 430.242L88.7321 430.242L88.8558 430.242L88.9777 430.242L89.0978 430.242L89.2161 430.242L89.3326 430.242L89.3326 430.242L89.4482 430.244L89.5638 430.25L89.6794 430.259L89.795 430.271L89.9106 430.288L90.0262 430.307L90.1418 430.331L90.2574 430.358L90.373 430.389L90.4886 430.423L90.6042 430.461L90.7198 430.502L90.8354 430.548L90.951 430.596L91.0666 430.649L91.1822 430.705L91.2978 430.764L91.4134 430.828L91.529 430.894L91.6446 430.965L91.7602 431.039L91.8758 431.117L91.9914 431.198L92.107 431.283L92.2226 431.371L92.3382 431.463L92.4538 431.559L92.5694 431.658L92.685 431.761L92.8006 431.868L92.9162 431.978L93.0318 432.092L93.0318 432.092L93.1474 432.208L93.263 432.323L93.3786 432.439L93.4942 432.554L93.6098 432.67L93.7254 432.786L93.841 432.901L93.9566 433.017L94.0722 433.132L94.1878 433.248L94.3034 433.364L94.419 433.479L94.5346 433.595L94.6502 433.71L94.7658 433.826L94.8814 433.942L94.997 434.057L95.1126 434.173L95.2282 434.288L95.3438 434.404L95.4593 434.52L95.5749 434.635L95.6905 434.751L95.8061 434.866L95.9217 434.982L96.0373 435.098L96.1529 435.213L96.2685 435.329L96.3841 435.444L96.4997 435.56L96.6153 435.676L96.7309 435.791L96.7309 435.791L96.8483 435.909L96.9694 436.03L97.094 436.154L97.2222 436.282L97.3541 436.414L97.4895 436.55L97.6286 436.689L97.7713 436.831L97.9176 436.978L98.0675 437.128L98.2211 437.281L98.3782 437.438L98.539 437.599L98.7033 437.764L98.8713 437.931L99.0429 438.103L99.2181 438.278L99.3969 438.457L99.5794 438.64L99.7654 438.826L99.955 439.015L100.148 439.208L100.345 439.405L100.546 439.606L100.75 439.81L100.958 440.018L101.169 440.229L101.384 440.444L101.602 440.662L101.824 440.885L102.05 441.11L102.28 441.34L102.28 441.34L102.511 441.564L102.742 441.773L102.973 441.968L103.204 442.149L103.436 442.315L103.667 442.467L103.898 442.604L104.129 442.727L104.36 442.835L104.592 442.929L104.823 443.009L105.054 443.074L105.285 443.124L105.516 443.161L105.748 443.182L105.979 443.189L106.21 443.182L106.441 443.161L106.672 443.124L106.904 443.074L107.135 443.009L107.366 442.929L107.597 442.835L107.828 442.727L108.06 442.604L108.291 442.467L108.522 442.315L108.753 442.149L108.984 441.968L109.216 441.773L109.447 441.564L109.678 441.34L109.678 441.34L109.907 441.11L110.133 440.885L110.355 440.662L110.574 440.444L110.789 440.229L111 440.018L111.208 439.81L111.412 439.606L111.612 439.405L111.809 439.208L112.003 439.015L112.192 438.826L112.378 438.64L112.561 438.457L112.74 438.278L112.915 438.103L113.086 437.931L113.254 437.764L113.419 437.599L113.579 437.438L113.737 437.281L113.89 437.128L114.04 436.978L114.186 436.831L114.329 436.689L114.468 436.55L114.604 436.414L114.735 436.282L114.864 436.154L114.988 436.03L115.109 435.909L115.227 435.791L115.227 435.791L115.342 435.676L115.458 435.56L115.573 435.444L115.689 435.329L115.805 435.213L115.92 435.098L116.036 434.982L116.151 434.866L116.267 434.751L116.383 434.635L116.498 434.52L116.614 434.404L116.729 434.288L116.845 434.173L116.961 434.057L117.076 433.942L117.192 433.826L117.307 433.71L117.423 433.595L117.539 433.479L117.654 433.364L117.77 433.248L117.885 433.132L118.001 433.017L118.117 432.901L118.232 432.786L118.348 432.67L118.463 432.554L118.579 432.439L118.695 432.323L118.81 432.208L118.926 432.092L118.926 432.092L119.041 431.978L119.157 431.868L119.273 431.761L119.388 431.658L119.504 431.559L119.619 431.463L119.735 431.371L119.851 431.283L119.966 431.198L120.082 431.117L120.197 431.039L120.313 430.965L120.429 430.894L120.544 430.828L120.66 430.764L120.775 430.705L120.891 430.649L121.007 430.596L121.122 430.548L121.238 430.502L121.353 430.461L121.469 430.423L121.585 430.389L121.7 430.358L121.816 430.331L121.931 430.307L122.047 430.288L122.163 430.271L122.278 430.259L122.394 430.25L122.509 430.244L122.625 430.242L122.625 430.242L122.742 430.242L122.86 430.242L122.98 430.242L123.102 430.242L123.226 430.242L123.351 430.242L123.478 430.242L123.608 430.242L123.739 430.242L123.871 430.242L124.006 430.242L124.142 430.242L124.28 430.242L124.42 430.242L124.562 430.242L124.706 430.242L124.851 430.242L124.998 430.242L125.147 430.242L125.298 430.242L125.451 430.242L125.605 430.242L125.762 430.242L125.92 430.242L126.079 430.242L126.241 430.242L126.405 430.242L126.57 430.242L126.737 430.242L126.906 430.242L127.076 430.242L127.249 430.242L127.249 430.242L127.422 430.242L127.596 430.242L127.769 430.242L127.943 430.242L128.116 430.242L128.289 430.242L128.463 430.242L128.636 430.242L128.81 430.242L128.983 430.242L129.156 430.242L129.33 430.242L129.503 430.242L129.677 430.242L129.85 430.242L130.023 430.242L130.197 430.242L130.37 430.242L130.543 430.242L130.717 430.242L130.89 430.242L131.064 430.242L131.237 430.242L131.41 430.242L131.584 430.242L131.757 430.242L131.931 430.242L132.104 430.242L132.277 430.242L132.451 430.242L132.624 430.242L132.798 430.242L132.798 430.242L132.966 430.245L133.123 430.253L133.269 430.267L133.405 430.286L133.529 430.31L133.643 430.34L133.746 430.375L133.838 430.416L133.919 430.462L133.99 430.513L134.049 430.57L134.098 430.633L134.136 430.7L134.163 430.773L134.179 430.852L134.185 430.936L134.179 431.025L134.163 431.12L134.136 431.22L134.098 431.326L134.049 431.437L133.99 431.554L133.919 431.676L133.838 431.803L133.746 431.936L133.643 432.074L133.529 432.217L133.405 432.366L133.269 432.521L133.123 432.681L132.966 432.846L132.798 433.017L132.798 433.017L132.622 433.193L132.44 433.374L132.253 433.561L132.061 433.754L131.863 433.951L131.66 434.155L131.451 434.363L131.237 434.577L131.018 434.797L130.793 435.022L130.562 435.252L130.327 435.488L130.086 435.729L129.839 435.975L129.587 436.227L129.33 436.485L129.067 436.747L128.799 437.016L128.525 437.289L128.246 437.568L127.961 437.853L127.672 438.143L127.376 438.438L127.076 438.739L126.769 439.045L126.458 439.357L126.141 439.674L125.818 439.996L125.491 440.324L125.157 440.657L124.819 440.996L124.475 441.34"/>
<path class="l5" d="M568.373 202.744L564.674 200.895L568.373 199.045L568.373 202.744"/>
<path class="l5" d="M566.523 176.85L570.222 176.85L570.222 180.55L566.523 180.55L566.523 176.85z"/>
<path class="l5" d="M536.93 199.045L540.629 199.045L540.629 202.744L536.93 202.744L536.93 199.045z"/>
<path class="l5" d="M566.523 221.24L570.222 221.24L570.222 224.939L566.523 224.939L566.523 221.24z"/>
<path class="l5" d="M568.315 200.837L568.431 200.837L568.431 200.953L568.315 200.953L568.315 200.837z"/>
<path class="l5" d="M566.523 102.867L570.222 102.867L570.222 106.567L566.523 106.567L566.523 102.867z"/>
<path class="l5" d="M566.523 147.257L570.222 147.257L570.222 150.956L566.523 150.956L566.523 147.257z"/>
<path class="l5" d="M515.66 162.979L517.51 162.979L517.51 164.828L515.66 164.828L515.66 162.979z"/>
<path class="l5" d="M397.287 74.1989L399.137 74.1989L399.137 76.0485L397.287 76.0485L397.287 74.1989z"/>
<path class="l6" d="M298.335 452.437L886.5 452.437"/>
<path class="l6" d="M13.5 452.437L61.589 452.437"/>
<path class="l1" d="M568.373 223.09L568.373 267.48"/>
<path class="l1" d="M398.212 223.09L398.212 267.48"/>
<path class="l1" d="M568.373 200.895L620.161 200.895"/>
<path class="l1" d="M620.161 200.895L620.161 267.48"/>
<path class="l1" d="M568.373 75.1237L568.373 104.717"/>
<path class="l1" d="M398.212 75.1237L398.212 178.7"/>
<path class="l1" d="M398.212 75.1237L568.373 75.1237"/>
<path class="l1" d="M568.373 163.903L568.373 178.7"/>
<path class="l1" d="M516.585 200.895L538.78 200.895"/>
<path class="l1" d="M516.585 163.903L516.585 200.895"/>
<path class="l1" d="M516.585 163.903L568.373 163.903"/>
<path class="l1" d="M568.373 149.107L568.373 163.903"/>
<circle class="l1" cx="568.373" cy="163.903" r="2.73737"/>
<circle class="l1" cx="568.373" cy="163.903" r="2.73737"/>
<circle class="l1" cx="568.373" cy="163.903" r="2.73737"/>
</svg>
