<svg xmlns="http://www.w3.org/2000/svg" xmlns:xlink="http://www.w3.org/1999/xlink" width="1067" height="667" version="1.1">
<style type="text/css">
.l0{
  fill: #ffffff;
  stroke: #ffffff;
  stroke-linecap:round;
  stroke-linejoin:round;
  stroke-width: 1.1841;
}
.l1{
  fill: #0099cc;
  stroke: #0099cc;
  stroke-linecap:round;
  stroke-linejoin:round;
  stroke-width: 1.1841;
}
.l2{
  fill: #aaaaaa; fill-opacity: 0.2;
  stroke: #aaaaaa;
  stroke-linecap:round;
  stroke-linejoin:round;
  stroke-width: 1.1841;
}
.l3{
  fill: #222222; fill-opacity: 0.5;
  stroke: #222222;
  stroke-linecap:round;
  stroke-linejoin:round;
  stroke-width: 1.1841;
}
.l4{
  fill: #229900;
  stroke: #229900;
  stroke-linecap:round;
  stroke-linejoin:round;
  stroke-width: 1.1841;
}
.l5{
  fill: #bb2200;
  stroke: #bb2200;
  stroke-linecap:round;
  stroke-linejoin:round;
  stroke-width: 1.1841;
}
.l6{
  fill: #0066cc; fill-opacity: 0.5;
  stroke: #0066cc;
  stroke-linecap:round;
  stroke-linejoin:round;
  stroke-width: 1.1841;
}
.l7{
  fill: #ff0000; fill-opacity: 0.5;
  stroke: #ff0000;
  stroke-linecap:round;
  stroke-linejoin:round;
  stroke-width: 1.1841;
}
.l8{
  fill: #888800; fill-opacity: 0.5;
  stroke: #888800;
  stroke-linecap:round;
  stroke-linejoin:round;
  stroke-width: 1.1841;
}
.l9{
  fill: #00aaaa; fill-opacity: 0.5;
  stroke: #00aaaa;
  stroke-linecap:round;
  stroke-linejoin:round;
  stroke-width: 1.1841;
}
.l10{
  fill: #880088;
  stroke: #880088;
  stroke-linecap:round;
  stroke-linejoin:round;
  stroke-width: 1.1841;
}
.l11{
  fill: #00ff00; fill-opacity: 0.5;
  stroke: #00ff00;
  stroke-linecap:round;
  stroke-linejoin:round;
  stroke-width: 1.1841;
}
.l12{
  fill: #0000cc; fill-opacity: 0.5;
  stroke: #0000cc;
  stroke-linecap:round;
  stroke-linejoin:round;
  stroke-width: 1.1841;
}
.l13{
  fill: #666600; fill-opacity: 0.5;
  stroke: #666600;
  stroke-linecap:round;
  stroke-linejoin:round;
  stroke-width: 1.1841;
}
.l14{
  fill: #557755; fill-opacity: 0.2;
  stroke: #557755;
  stroke-linecap:round;
  stroke-linejoin:round;
  stroke-width: 1.1841;
}
.l15{
  fill: #aa2222; fill-opacity: 0.5;
  stroke: #aa2222;
  stroke-linecap:round;
  stroke-linejoin:round;
  stroke-width: 1.1841;
}
.l16{
  fill: #7ccc40; fill-opacity: 0.5;
  stroke: #7ccc40;
  stroke-linecap:round;
  stroke-linejoin:round;
  stroke-width: 1.1841;
}
.l17{
  fill: #00ffcc; fill-opacity: 0.2;
  stroke: #00ffcc;
  stroke-linecap:round;
  stroke-linejoin:round;
  stroke-width: 1.1841;
}
.l18{
  fill: #ce0097; fill-opacity: 0.5;
  stroke: #ce0097;
  stroke-linecap:round;
  stroke-linejoin:round;
  stroke-width: 1.1841;
}
.l19{
  fill: #d2d46b; fill-opacity: 0.2;
  stroke: #d2d46b;
  stroke-linecap:round;
  stroke-linejoin:round;
  stroke-width: 1.1841;
}
.l20{
  fill: #ef6158; fill-opacity: 0.2;
  stroke: #ef6158;
  stroke-linecap:round;
  stroke-linejoin:round;
  stroke-width: 1.1841;
}
.l21{
  fill: #fdb200; fill-opacity: 0.2;
  stroke: #fdb200;
  stroke-linecap:round;
  stroke-linejoin:round;
  stroke-width: 1.1841;
}
text {font-family: Sans-Serif;}
</style>
<rect class="l0" x="0" y="0" width="1067" height="667"/>
<path class="l4" d="M16.005 475.592L77.4027 475.592"/>
<path class="l4" d="M16.005 475.592L16.005 493.134"/>
<path class="l4" d="M16.005 107.206L77.4027 107.206"/>
<path class="l4" d="M16.005 107.206L16.005 124.748"/>
<path class="l4" d="M673.838 326.483L673.838 337.447"/>
<path class="l4" d="M669.452 337.447L678.223 337.447"/>
<path class="l4" d="M673.838 341.833L678.223 337.447"/>
<path class="l4" d="M669.452 337.447L673.838 341.833"/>
<path class="l4" d="M474.295 227.808L478.681 227.808"/>
<path class="l4" d="M476.488 225.615L476.488 230.001"/>
<path class="l4" d="M472.102 221.23L472.102 273.857"/>
<circle class="l4" cx="472.102" cy="247.543" r="13.1567" style="fill:none;" />
<path class="l4" d="M472.102 326.483L472.102 337.447"/>
<path class="l4" d="M467.717 337.447L476.488 337.447"/>
<path class="l4" d="M472.102 341.833L476.488 337.447"/>
<path class="l4" d="M467.717 337.447L472.102 341.833"/>
<path class="l4" d="M735.235 326.483L735.235 337.447"/>
<path class="l4" d="M730.85 337.447L739.621 337.447"/>
<path class="l4" d="M735.235 341.833L739.621 337.447"/>
<path class="l4" d="M730.85 337.447L735.235 341.833"/>
<path class="l4" d="M662.874 227.808L662.874 267.278"/>
<path class="l4" d="M673.838 221.23L673.838 232.194"/>
<path class="l4" d="M673.838 262.893L673.838 273.857"/>
<path class="l4" d="M658.488 234.387L658.488 260.7"/>
<path class="l4" d="M662.874 262.893L673.838 262.893"/>
<path class="l4" d="M662.874 232.194L673.838 232.194"/>
<path class="l4" d="M638.753 247.543L658.05 247.543"/>
<path class="l4" d="M669.452 265.085L673.838 262.893L669.452 260.7L669.452 265.085"/>
<path class="l4" d="M454.56 431.736L428.247 420.772L428.247 427.351L401.933 427.351L410.705 431.736L401.933 436.122L428.247 436.122L428.247 442.7L454.56 431.736"/>
<path class="l4" d="M665.067 431.736L638.753 420.772L638.753 427.351L612.44 427.351L621.211 431.736L612.44 436.122L638.753 436.122L638.753 442.7L665.067 431.736"/>
<path class="l4" d="M673.838 133.519L673.838 146.676"/>
<path class="l4" d="M673.838 172.989L673.838 186.145"/>
<path class="l4" d="M676.03 140.097L680.416 140.097"/>
<path class="l4" d="M678.223 137.904L678.223 142.29"/>
<path class="l4" d="M673.838 153.254L673.838 162.025L676.03 162.025L673.838 168.603L671.645 162.025L673.838 162.025L673.838 153.254"/>
<circle class="l4" cx="673.838" cy="159.832" r="13.1567" style="fill:none;" />
<path class="l4" d="M805.404 194.917L805.404 203.688"/>
<path class="l4" d="M805.404 194.917L814.175 194.917"/>
<path class="l5" d="M671.645 324.29L676.03 324.29L676.03 328.676L671.645 328.676L671.645 324.29z"/>
<path class="l5" d="M469.91 219.037L474.295 219.037L474.295 223.423L469.91 223.423L469.91 219.037z"/>
<path class="l5" d="M469.91 271.664L474.295 271.664L474.295 276.049L469.91 276.049L469.91 271.664z"/>
<path class="l5" d="M469.91 324.29L474.295 324.29L474.295 328.676L469.91 328.676L469.91 324.29z"/>
<path class="l5" d="M733.043 324.29L737.428 324.29L737.428 328.676L733.043 328.676L733.043 324.29z"/>
<path class="l5" d="M147.572 532.604L147.297 532.878L147.023 533.152L146.749 533.426L146.475 533.7L146.201 533.974L145.927 534.249L145.653 534.523L145.379 534.797L145.105 535.071L144.831 535.345L144.556 535.619L144.282 535.893L144.008 536.167L143.734 536.441L143.46 536.715L143.186 536.99L142.912 537.264L142.638 537.538L142.364 537.812L142.09 538.086L141.815 538.36L141.541 538.634L141.267 538.908L140.993 539.182L140.719 539.456L140.445 539.731L140.171 540.005L139.897 540.279L139.623 540.553L139.349 540.827L139.075 541.101L138.8 541.375L138.8 541.375L138.535 541.649L138.286 541.923L138.055 542.197L137.841 542.471L137.644 542.746L137.464 543.02L137.301 543.294L137.156 543.568L137.027 543.842L136.916 544.116L136.822 544.39L136.745 544.664L136.685 544.938L136.642 545.212L136.616 545.487L136.608 545.761L136.616 546.035L136.642 546.309L136.685 546.583L136.745 546.857L136.822 547.131L136.916 547.405L137.027 547.679L137.156 547.953L137.301 548.228L137.464 548.502L137.644 548.776L137.841 549.05L138.055 549.324L138.286 549.598L138.535 549.872L138.8 550.146L138.8 550.146L139.076 550.421L139.353 550.699L139.632 550.978L139.914 551.26L140.198 551.543L140.484 551.829L140.772 552.117L141.062 552.408L141.354 552.7L141.648 552.994L141.945 553.291L142.244 553.59L142.545 553.89L142.848 554.193L143.153 554.499L143.46 554.806L143.77 555.115L144.081 555.427L144.395 555.741L144.711 556.056L145.029 556.374L145.349 556.695L145.671 557.017L145.995 557.341L146.322 557.668L146.651 557.997L146.982 558.327L147.315 558.66L147.65 558.995L147.987 559.333L148.326 559.672L148.668 560.014L148.668 560.014L149.008 560.354L149.345 560.69L149.677 561.022L150.004 561.35L150.327 561.673L150.647 561.992L150.961 562.307L151.272 562.618L151.578 562.924L151.88 563.226L152.178 563.523L152.471 563.817L152.76 564.106L153.045 564.391L153.325 564.671L153.602 564.947L153.874 565.219L154.141 565.487L154.405 565.75L154.664 566.01L154.919 566.264L155.169 566.515L155.415 566.761L155.657 567.003L155.895 567.241L156.128 567.474L156.358 567.703L156.582 567.928L156.803 568.149L157.019 568.365L157.231 568.577L157.439 568.785L157.439 568.785L157.638 568.987L157.824 569.183L157.998 569.373L158.159 569.556L158.306 569.732L158.441 569.903L158.563 570.066L158.672 570.224L158.769 570.375L158.852 570.519L158.923 570.657L158.981 570.789L159.026 570.914L159.058 571.033L159.077 571.146L159.084 571.252L159.077 571.351L159.058 571.444L159.026 571.531L158.981 571.611L158.923 571.685L158.852 571.753L158.769 571.814L158.672 571.868L158.563 571.917L158.441 571.958L158.306 571.994L158.159 572.023L157.998 572.045L157.824 572.061L157.638 572.071L157.439 572.074L157.439 572.074L157.233 572.074L157.028 572.074L156.822 572.074L156.617 572.074L156.411 572.074L156.206 572.074L156 572.074L155.794 572.074L155.589 572.074L155.383 572.074L155.178 572.074L154.972 572.074L154.767 572.074L154.561 572.074L154.355 572.074L154.15 572.074L153.944 572.074L153.739 572.074L153.533 572.074L153.328 572.074L153.122 572.074L152.916 572.074L152.711 572.074L152.505 572.074L152.3 572.074L152.094 572.074L151.889 572.074L151.683 572.074L151.477 572.074L151.272 572.074L151.066 572.074L150.861 572.074L150.861 572.074L150.656 572.074L150.454 572.074L150.254 572.074L150.056 572.074L149.86 572.074L149.666 572.074L149.474 572.074L149.285 572.074L149.097 572.074L148.912 572.074L148.729 572.074L148.548 572.074L148.369 572.074L148.193 572.074L148.018 572.074L147.846 572.074L147.675 572.074L147.507 572.074L147.341 572.074L147.178 572.074L147.016 572.074L146.856 572.074L146.699 572.074L146.544 572.074L146.391 572.074L146.24 572.074L146.091 572.074L145.944 572.074L145.8 572.074L145.657 572.074L145.517 572.074L145.379 572.074L145.379 572.074L145.242 572.072L145.105 572.065L144.968 572.055L144.831 572.04L144.694 572.02L144.556 571.997L144.419 571.969L144.282 571.937L144.145 571.901L144.008 571.86L143.871 571.815L143.734 571.766L143.597 571.712L143.46 571.654L143.323 571.592L143.186 571.526L143.049 571.455L142.912 571.38L142.775 571.301L142.638 571.217L142.501 571.13L142.364 571.038L142.227 570.941L142.09 570.841L141.953 570.736L141.815 570.626L141.678 570.513L141.541 570.395L141.404 570.273L141.267 570.147L141.13 570.016L140.993 569.881L140.993 569.881L140.856 569.744L140.719 569.607L140.582 569.47L140.445 569.333L140.308 569.196L140.171 569.059L140.034 568.922L139.897 568.785L139.76 568.648L139.623 568.511L139.486 568.374L139.349 568.237L139.212 568.1L139.075 567.963L138.937 567.825L138.8 567.688L138.663 567.551L138.526 567.414L138.389 567.277L138.252 567.14L138.115 567.003L137.978 566.866L137.841 566.729L137.704 566.592L137.567 566.455L137.43 566.318L137.293 566.181L137.156 566.044L137.019 565.907L136.882 565.77L136.745 565.633L136.608 565.496L136.608 565.496L136.468 565.356L136.325 565.213L136.177 565.065L136.025 564.913L135.869 564.757L135.708 564.596L135.543 564.431L135.374 564.262L135.201 564.089L135.023 563.911L134.841 563.729L134.655 563.543L134.464 563.352L134.269 563.157L134.07 562.958L133.867 562.755L133.659 562.547L133.447 562.335L133.231 562.119L133.01 561.898L132.785 561.673L132.556 561.444L132.323 561.211L132.085 560.973L131.843 560.731L131.597 560.485L131.346 560.234L131.091 559.979L130.832 559.72L130.569 559.457L130.301 559.189L130.029 558.917L130.029 558.917L129.755 558.652L129.481 558.403L129.207 558.172L128.933 557.958L128.659 557.761L128.385 557.581L128.111 557.418L127.837 557.273L127.562 557.144L127.288 557.033L127.014 556.939L126.74 556.862L126.466 556.802L126.192 556.759L125.918 556.733L125.644 556.725L125.37 556.733L125.096 556.759L124.821 556.802L124.547 556.862L124.273 556.939L123.999 557.033L123.725 557.144L123.451 557.273L123.177 557.418L122.903 557.581L122.629 557.761L122.355 557.958L122.081 558.172L121.806 558.403L121.532 558.652L121.258 558.917L121.258 558.917L120.986 559.189L120.719 559.457L120.455 559.72L120.196 559.979L119.941 560.234L119.691 560.485L119.444 560.731L119.202 560.973L118.965 561.211L118.731 561.444L118.502 561.673L118.277 561.898L118.057 562.119L117.841 562.335L117.629 562.547L117.421 562.755L117.217 562.958L117.018 563.157L116.823 563.352L116.633 563.543L116.447 563.729L116.265 563.911L116.087 564.089L115.913 564.262L115.744 564.431L115.579 564.596L115.419 564.757L115.262 564.913L115.11 565.065L114.963 565.213L114.819 565.356L114.68 565.496L114.68 565.496L114.543 565.633L114.406 565.77L114.269 565.907L114.132 566.044L113.995 566.181L113.858 566.318L113.721 566.455L113.584 566.592L113.446 566.729L113.309 566.866L113.172 567.003L113.035 567.14L112.898 567.277L112.761 567.414L112.624 567.551L112.487 567.688L112.35 567.825L112.213 567.963L112.076 568.1L111.939 568.237L111.802 568.374L111.665 568.511L111.528 568.648L111.391 568.785L111.254 568.922L111.117 569.059L110.98 569.196L110.843 569.333L110.705 569.47L110.568 569.607L110.431 569.744L110.294 569.881L110.294 569.881L110.157 570.016L110.02 570.147L109.883 570.273L109.746 570.395L109.609 570.513L109.472 570.626L109.335 570.736L109.198 570.841L109.061 570.941L108.924 571.038L108.787 571.13L108.65 571.217L108.513 571.301L108.376 571.38L108.239 571.455L108.102 571.526L107.965 571.592L107.827 571.654L107.69 571.712L107.553 571.766L107.416 571.815L107.279 571.86L107.142 571.901L107.005 571.937L106.868 571.969L106.731 571.997L106.594 572.02L106.457 572.04L106.32 572.055L106.183 572.065L106.046 572.072L105.909 572.074L105.909 572.074L105.771 572.074L105.63 572.074L105.488 572.074L105.343 572.074L105.197 572.074L105.048 572.074L104.897 572.074L104.744 572.074L104.589 572.074L104.431 572.074L104.272 572.074L104.11 572.074L103.946 572.074L103.78 572.074L103.612 572.074L103.442 572.074L103.27 572.074L103.095 572.074L102.918 572.074L102.74 572.074L102.559 572.074L102.376 572.074L102.19 572.074L102.003 572.074L101.813 572.074L101.622 572.074L101.428 572.074L101.232 572.074L101.034 572.074L100.834 572.074L100.631 572.074L100.427 572.074L100.427 572.074L100.221 572.074L100.016 572.074L99.8101 572.074L99.6046 572.074L99.399 572.074L99.1934 572.074L98.9878 572.074L98.7823 572.074L98.5767 572.074L98.3711 572.074L98.1656 572.074L97.96 572.074L97.7544 572.074L97.5488 572.074L97.3433 572.074L97.1377 572.074L96.9321 572.074L96.7265 572.074L96.521 572.074L96.3154 572.074L96.1098 572.074L95.9043 572.074L95.6987 572.074L95.4931 572.074L95.2875 572.074L95.082 572.074L94.8764 572.074L94.6708 572.074L94.4652 572.074L94.2597 572.074L94.0541 572.074L93.8485 572.074L93.8485 572.074L93.6494 572.071L93.4631 572.061L93.2896 572.045L93.129 572.023L92.9813 571.994L92.8464 571.958L92.7243 571.917L92.6151 571.868L92.5187 571.814L92.4352 571.753L92.3645 571.685L92.3067 571.611L92.2618 571.531L92.2296 571.444L92.2104 571.351L92.2039 571.252L92.2104 571.146L92.2296 571.033L92.2618 570.914L92.3067 570.789L92.3645 570.657L92.4352 570.519L92.5187 570.375L92.6151 570.224L92.7243 570.066L92.8464 569.903L92.9813 569.732L93.129 569.556L93.2896 569.373L93.4631 569.183L93.6494 568.987L93.8485 568.785L93.8485 568.785L94.0562 568.577L94.2682 568.365L94.4845 568.149L94.7051 567.928L94.9299 567.703L95.1591 567.474L95.3925 567.241L95.6302 567.003L95.8721 566.761L96.1184 566.515L96.3689 566.264L96.6238 566.01L96.8829 565.75L97.1463 565.487L97.4139 565.219L97.6859 564.947L97.9621 564.671L98.2426 564.391L98.5274 564.106L98.8165 563.817L99.1099 563.523L99.4076 563.226L99.7095 562.924L100.016 562.618L100.326 562.307L100.641 561.992L100.96 561.673L101.283 561.35L101.611 561.022L101.943 560.69L102.279 560.354L102.62 560.014L102.62 560.014L102.961 559.672L103.301 559.333L103.638 558.995L103.973 558.66L104.306 558.327L104.637 557.997L104.966 557.668L105.292 557.341L105.616 557.017L105.939 556.695L106.259 556.374L106.577 556.056L106.893 555.741L107.206 555.427L107.518 555.115L107.827 554.806L108.135 554.499L108.44 554.193L108.743 553.89L109.044 553.59L109.342 553.291L109.639 552.994L109.934 552.7L110.226 552.408L110.516 552.117L110.804 551.829L111.09 551.543L111.374 551.26L111.655 550.978L111.935 550.699L112.212 550.421L112.487 550.146L112.487 550.146L112.753 549.872L113.001 549.598L113.232 549.324L113.446 549.05L113.643 548.776L113.823 548.502L113.986 548.228L114.132 547.953L114.26 547.679L114.372 547.405L114.466 547.131L114.543 546.857L114.603 546.583L114.646 546.309L114.671 546.035L114.68 545.761L114.671 545.487L114.646 545.212L114.603 544.938L114.543 544.664L114.466 544.39L114.372 544.116L114.26 543.842L114.132 543.568L113.986 543.294L113.823 543.02L113.643 542.746L113.446 542.471L113.232 542.197L113.001 541.923L112.753 541.649L112.487 541.375L112.487 541.375L112.212 541.1L111.935 540.823L111.655 540.543L111.374 540.262L111.09 539.978L110.804 539.692L110.516 539.404L110.226 539.114L109.934 538.822L109.639 538.527L109.342 538.23L109.044 537.932L108.743 537.631L108.44 537.328L108.135 537.023L107.827 536.715L107.518 536.406L107.206 536.094L106.893 535.781L106.577 535.465L106.259 535.147L105.939 534.827L105.616 534.504L105.292 534.18L104.966 533.854L104.637 533.525L104.306 533.194L103.973 532.861L103.638 532.526L103.301 532.189L102.961 531.849L102.62 531.508L102.62 531.508L102.279 531.167L101.943 530.831L101.611 530.499L101.283 530.171L100.96 529.848L100.641 529.529L100.326 529.214L100.016 528.904L99.7095 528.597L99.4076 528.296L99.1099 527.998L98.8165 527.705L98.5274 527.415L98.2426 527.131L97.9621 526.85L97.6859 526.574L97.4139 526.302L97.1463 526.034L96.8829 525.771L96.6238 525.512L96.3689 525.257L96.1184 525.006L95.8721 524.76L95.6302 524.518L95.3925 524.28L95.1591 524.047L94.9299 523.818L94.7051 523.593L94.4845 523.373L94.2682 523.156L94.0562 522.944L93.8485 522.737L93.8485 522.737L93.6494 522.534L93.4631 522.338L93.2896 522.149L93.129 521.966L92.9813 521.789L92.8464 521.619L92.7243 521.455L92.6151 521.298L92.5187 521.147L92.4352 521.002L92.3645 520.864L92.3067 520.732L92.2618 520.607L92.2296 520.488L92.2104 520.376L92.2039 520.27L92.2104 520.17L92.2296 520.077L92.2618 519.99L92.3067 519.91L92.3645 519.836L92.4352 519.769L92.5187 519.708L92.6151 519.653L92.7243 519.605L92.8464 519.563L92.9813 519.528L93.129 519.499L93.2896 519.476L93.4631 519.46L93.6494 519.451L93.8485 519.447L93.8485 519.447L94.0541 519.447L94.2597 519.447L94.4652 519.447L94.6708 519.447L94.8764 519.447L95.082 519.447L95.2875 519.447L95.4931 519.447L95.6987 519.447L95.9043 519.447L96.1098 519.447L96.3154 519.447L96.521 519.447L96.7265 519.447L96.9321 519.447L97.1377 519.447L97.3433 519.447L97.5488 519.447L97.7544 519.447L97.96 519.447L98.1656 519.447L98.3711 519.447L98.5767 519.447L98.7823 519.447L98.9878 519.447L99.1934 519.447L99.399 519.447L99.6046 519.447L99.8101 519.447L100.016 519.447L100.221 519.447L100.427 519.447L100.427 519.447L100.631 519.447L100.834 519.447L101.034 519.447L101.232 519.447L101.428 519.447L101.622 519.447L101.813 519.447L102.003 519.447L102.19 519.447L102.376 519.447L102.559 519.447L102.74 519.447L102.918 519.447L103.095 519.447L103.27 519.447L103.442 519.447L103.612 519.447L103.78 519.447L103.946 519.447L104.11 519.447L104.272 519.447L104.431 519.447L104.589 519.447L104.744 519.447L104.897 519.447L105.048 519.447L105.197 519.447L105.343 519.447L105.488 519.447L105.63 519.447L105.771 519.447L105.909 519.447L105.909 519.447L106.046 519.449L106.183 519.456L106.32 519.467L106.457 519.482L106.594 519.501L106.731 519.524L106.868 519.552L107.005 519.584L107.142 519.621L107.279 519.661L107.416 519.706L107.553 519.756L107.69 519.809L107.827 519.867L107.965 519.929L108.102 519.996L108.239 520.066L108.376 520.141L108.513 520.22L108.65 520.304L108.787 520.392L108.924 520.484L109.061 520.58L109.198 520.681L109.335 520.786L109.472 520.895L109.609 521.008L109.746 521.126L109.883 521.248L110.02 521.375L110.157 521.505L110.294 521.64L110.294 521.64L110.431 521.777L110.568 521.914L110.705 522.051L110.843 522.188L110.98 522.325L111.117 522.462L111.254 522.599L111.391 522.737L111.528 522.874L111.665 523.011L111.802 523.148L111.939 523.285L112.076 523.422L112.213 523.559L112.35 523.696L112.487 523.833L112.624 523.97L112.761 524.107L112.898 524.244L113.035 524.381L113.172 524.518L113.309 524.655L113.446 524.792L113.584 524.929L113.721 525.066L113.858 525.203L113.995 525.34L114.132 525.477L114.269 525.615L114.406 525.752L114.543 525.889L114.68 526.026L114.68 526.026L114.819 526.165L114.963 526.308L115.11 526.456L115.262 526.608L115.419 526.764L115.579 526.925L115.744 527.09L115.913 527.259L116.087 527.433L116.265 527.61L116.447 527.792L116.633 527.979L116.823 528.169L117.018 528.364L117.217 528.563L117.421 528.767L117.629 528.974L117.841 529.186L118.057 529.403L118.277 529.623L118.502 529.848L118.731 530.077L118.965 530.311L119.202 530.548L119.444 530.79L119.691 531.037L119.941 531.287L120.196 531.542L120.455 531.801L120.719 532.064L120.986 532.332L121.258 532.604L121.258 532.604L121.532 532.87L121.806 533.118L122.081 533.349L122.355 533.563L122.629 533.76L122.903 533.94L123.177 534.103L123.451 534.249L123.725 534.377L123.999 534.488L124.273 534.583L124.547 534.66L124.821 534.72L125.096 534.763L125.37 534.788L125.644 534.797L125.918 534.788L126.192 534.763L126.466 534.72L126.74 534.66L127.014 534.583L127.288 534.488L127.562 534.377L127.837 534.249L128.111 534.103L128.385 533.94L128.659 533.76L128.933 533.563L129.207 533.349L129.481 533.118L129.755 532.87L130.029 532.604L130.029 532.604L130.301 532.332L130.569 532.064L130.832 531.801L131.091 531.542L131.346 531.287L131.597 531.037L131.843 530.79L132.085 530.548L132.323 530.311L132.556 530.077L132.785 529.848L133.01 529.623L133.231 529.403L133.447 529.186L133.659 528.974L133.867 528.767L134.07 528.563L134.269 528.364L134.464 528.169L134.655 527.979L134.841 527.792L135.023 527.61L135.201 527.433L135.374 527.259L135.543 527.09L135.708 526.925L135.869 526.764L136.025 526.608L136.177 526.456L136.325 526.308L136.468 526.165L136.608 526.026L136.608 526.026L136.745 525.889L136.882 525.752L137.019 525.615L137.156 525.477L137.293 525.34L137.43 525.203L137.567 525.066L137.704 524.929L137.841 524.792L137.978 524.655L138.115 524.518L138.252 524.381L138.389 524.244L138.526 524.107L138.663 523.97L138.8 523.833L138.937 523.696L139.075 523.559L139.212 523.422L139.349 523.285L139.486 523.148L139.623 523.011L139.76 522.874L139.897 522.737L140.034 522.599L140.171 522.462L140.308 522.325L140.445 522.188L140.582 522.051L140.719 521.914L140.856 521.777L140.993 521.64L140.993 521.64L141.13 521.505L141.267 521.375L141.404 521.248L141.541 521.126L141.678 521.008L141.815 520.895L141.953 520.786L142.09 520.681L142.227 520.58L142.364 520.484L142.501 520.392L142.638 520.304L142.775 520.22L142.912 520.141L143.049 520.066L143.186 519.996L143.323 519.929L143.46 519.867L143.597 519.809L143.734 519.756L143.871 519.706L144.008 519.661L144.145 519.621L144.282 519.584L144.419 519.552L144.556 519.524L144.694 519.501L144.831 519.482L144.968 519.467L145.105 519.456L145.242 519.449L145.379 519.447L145.379 519.447L145.517 519.447L145.657 519.447L145.8 519.447L145.944 519.447L146.091 519.447L146.24 519.447L146.391 519.447L146.544 519.447L146.699 519.447L146.856 519.447L147.016 519.447L147.178 519.447L147.341 519.447L147.507 519.447L147.675 519.447L147.846 519.447L148.018 519.447L148.193 519.447L148.369 519.447L148.548 519.447L148.729 519.447L148.912 519.447L149.097 519.447L149.285 519.447L149.474 519.447L149.666 519.447L149.86 519.447L150.056 519.447L150.254 519.447L150.454 519.447L150.656 519.447L150.861 519.447L150.861 519.447L151.066 519.447L151.272 519.447L151.477 519.447L151.683 519.447L151.889 519.447L152.094 519.447L152.3 519.447L152.505 519.447L152.711 519.447L152.916 519.447L153.122 519.447L153.328 519.447L153.533 519.447L153.739 519.447L153.944 519.447L154.15 519.447L154.355 519.447L154.561 519.447L154.767 519.447L154.972 519.447L155.178 519.447L155.383 519.447L155.589 519.447L155.794 519.447L156 519.447L156.206 519.447L156.411 519.447L156.617 519.447L156.822 519.447L157.028 519.447L157.233 519.447L157.439 519.447L157.439 519.447L157.638 519.451L157.824 519.46L157.998 519.476L158.159 519.499L158.306 519.528L158.441 519.563L158.563 519.605L158.672 519.653L158.769 519.708L158.852 519.769L158.923 519.836L158.981 519.91L159.026 519.99L159.058 520.077L159.077 520.17L159.084 520.27L159.077 520.376L159.058 520.488L159.026 520.607L158.981 520.732L158.923 520.864L158.852 521.002L158.769 521.147L158.672 521.298L158.563 521.455L158.441 521.619L158.306 521.789L158.159 521.966L157.998 522.149L157.824 522.338L157.638 522.534L157.439 522.737L157.439 522.737L157.23 522.945L157.015 523.161L156.793 523.382L156.565 523.61L156.331 523.845L156.09 524.086L155.843 524.333L155.589 524.587L155.329 524.847L155.062 525.113L154.789 525.386L154.51 525.666L154.224 525.952L153.931 526.244L153.633 526.543L153.328 526.848L153.016 527.16L152.698 527.478L152.374 527.802L152.043 528.133L151.705 528.47L151.362 528.814L151.012 529.164L150.655 529.52L150.292 529.883L149.923 530.253L149.547 530.629L149.165 531.011L148.776 531.399L148.381 531.795L147.979 532.196L147.572 532.604"/>
<path class="l5" d="M673.838 249.736L669.452 247.543L673.838 245.35L673.838 249.736"/>
<path class="l5" d="M671.645 219.037L676.03 219.037L676.03 223.423L671.645 223.423L671.645 219.037z"/>
<path class="l5" d="M636.56 245.35L640.946 245.35L640.946 249.736L636.56 249.736L636.56 245.35z"/>
<path class="l5" d="M671.645 271.664L676.03 271.664L676.03 276.049L671.645 276.049L671.645 271.664z"/>
<path class="l5" d="M673.769 247.475L673.906 247.475L673.906 247.612L673.769 247.612L673.769 247.475z"/>
<path class="l5" d="M671.645 131.326L676.03 131.326L676.03 135.712L671.645 135.712L671.645 131.326z"/>
<path class="l5" d="M671.645 183.953L676.03 183.953L676.03 188.338L671.645 188.338L671.645 183.953z"/>
<path class="l5" d="M611.344 202.591L613.536 202.591L613.536 204.784L611.344 204.784L611.344 202.591z"/>
<path class="l5" d="M471.006 97.3381L473.199 97.3381L473.199 99.5309L471.006 99.5309L471.006 97.3381z"/>
<path class="l6" d="M353.692 545.761L1051 545.761"/>
<path class="l6" d="M16.005 545.761L73.0172 545.761"/>
<text fill="#222222"  xml:space="preserve" font-size="13.6829" transform="translate(20.3906, 470.474)" >MODEL</text>
<text fill="#222222"  xml:space="preserve" font-size="13.6829" style="font-family:Monospace;" transform="translate(29.1617, 492.401)" >.lib cornerMOSlv.lib mos_tt</text>
<text fill="#222222"  xml:space="preserve" font-size="13.6829" transform="translate(20.3906, 102.087)" >NGSPICE</text>
<text fill="#222222"  xml:space="preserve" font-size="13.6829" style="font-family:Monospace;" transform="translate(29.1617, 139.71)" >.temp 27</text>
<text fill="#222222"  xml:space="preserve" font-size="13.6829" style="font-family:Monospace;" transform="translate(29.1617, 155.404)" >.include mosfet_diode_sizing.save</text>
<text fill="#222222"  xml:space="preserve" font-size="13.6829" style="font-family:Monospace;" transform="translate(29.1617, 171.098)" >.control</text>
<text fill="#222222"  xml:space="preserve" font-size="13.6829" style="font-family:Monospace;" transform="translate(29.1617, 186.792)" >save all</text>
<text fill="#222222"  xml:space="preserve" font-size="13.6829" style="font-family:Monospace;" transform="translate(29.1617, 202.487)" >op</text>
<text fill="#222222"  xml:space="preserve" font-size="13.6829" style="font-family:Monospace;" transform="translate(29.1617, 218.181)" >write mosfet_diode_sizing.raw</text>
<text fill="#222222"  xml:space="preserve" font-size="13.6829" style="font-family:Monospace;" transform="translate(29.1617, 233.875)" >.endc</text>
<text fill="#0099cc"  xml:space="preserve" font-size="9.12195" transform="translate(680.416, 339.151)" >GND</text>
<text fill="#222222"  xml:space="preserve" font-size="9.12195" transform="translate(489.644, 239.38)" >Vdd</text>
<text fill="#222222"  xml:space="preserve" font-size="9.12195" transform="translate(489.644, 261.308)" >1.5</text>
<text fill="#0099cc"  xml:space="preserve" font-size="9.12195" transform="translate(478.681, 339.151)" >GND</text>
<text fill="#0099cc"  xml:space="preserve" font-size="9.12195" transform="translate(741.814, 339.151)" >GND</text>
<text fill="#222222"  xml:space="preserve" font-size="18.2439" transform="translate(362.464, 566.712)" >         mosfet_diode_sizing.sch</text>
<text fill="#222222"  xml:space="preserve" font-size="18.2439" transform="translate(362.464, 540.398)" >(c) 2024-2025 Harald Pretl, Apache-2.0 license</text>
<text fill="#222222"  xml:space="preserve" font-size="18.2439" transform="translate(844.995, 540.398)" >2025-10-01  22:41:27</text>
<text fill="#222222"  xml:space="preserve" font-size="45.6097" transform="translate(160.728, 565.247)" >SCHEM</text>
<text fill="#222222"  xml:space="preserve" font-size="9.12195" transform="translate(646.681, 229.513)" >M1</text>
<text fill="#ff0000"  xml:space="preserve" font-size="6.84146" transform="translate(642.524, 244.984)" >G</text>
<text fill="#222222"  xml:space="preserve" font-size="9.12195" transform="translate(682.609, 272.773)" >sg13_lv_nmos</text>
<text fill="#666600"  xml:space="preserve" font-size="9.12195" transform="translate(683.705, 261.308)" >m=1</text>
<text fill="#666600"  xml:space="preserve" font-size="9.12195" transform="translate(683.705, 253.633)" >ng=1</text>
<text fill="#666600"  xml:space="preserve" font-size="9.12195" transform="translate(683.705, 242.669)" >l=0.13u</text>
<text fill="#666600"  xml:space="preserve" font-size="9.12195" transform="translate(683.705, 232.802)" >w=1u</text>
<text fill="#ff0000"  xml:space="preserve" font-size="6.84146" transform="translate(676.03, 269.105)" >S</text>
<text fill="#ff0000"  xml:space="preserve" font-size="6.84146" transform="translate(676.03, 230.559)" >D</text>
<text fill="#ff0000"  xml:space="preserve" font-size="6.84146" transform="translate(673.838, 244.984)" >B</text>
<text fill="#222222"  xml:space="preserve" font-size="18.2439" transform="translate(463.331, 437.802)" >simulate</text>
<text fill="#222222"  xml:space="preserve" font-size="18.2439" transform="translate(673.838, 437.802)" >annotate OP</text>
<text fill="#222222"  xml:space="preserve" font-size="9.12195" transform="translate(691.38, 159.344)" >Ibias</text>
<text fill="#222222"  xml:space="preserve" font-size="9.12195" transform="translate(691.38, 169.807)" >20u</text>
<text fill="#0099cc"  xml:space="preserve" font-size="15.0512" transform="translate(570.862, 210.228)" >v_gs</text>
<text fill="#0099cc"  xml:space="preserve" font-size="15.0512" transform="translate(428.524, 104.974)" >v_dd</text>
<text fill="#aa2222"  xml:space="preserve" font-size="9.12195" style="font-family:Monospace;" transform="translate(809.79, 207.585)" >?</text>
<text fill="#229900"  xml:space="preserve" font-size="9.12195" transform="translate(805.404, 192.736)" >M1</text>
<path class="l1" d="M673.838 273.857L673.838 326.483"/>
<path class="l1" d="M472.102 273.857L472.102 326.483"/>
<path class="l1" d="M673.838 247.543L735.235 247.543"/>
<path class="l1" d="M735.235 247.543L735.235 326.483"/>
<path class="l1" d="M673.838 98.4345L673.838 133.519"/>
<path class="l1" d="M472.102 98.4345L472.102 221.23"/>
<path class="l1" d="M472.102 98.4345L673.838 98.4345"/>
<path class="l1" d="M673.838 203.688L673.838 221.23"/>
<path class="l1" d="M612.44 247.543L638.753 247.543"/>
<path class="l1" d="M612.44 203.688L612.44 247.543"/>
<path class="l1" d="M612.44 203.688L673.838 203.688"/>
<path class="l1" d="M673.838 186.145L673.838 203.688"/>
<circle class="l1" cx="673.838" cy="203.688" r="3.24531"/>
<circle class="l1" cx="673.838" cy="203.688" r="3.24531"/>
<circle class="l1" cx="673.838" cy="203.688" r="3.24531"/>
</svg>
