<svg xmlns="http://www.w3.org/2000/svg" xmlns:xlink="http://www.w3.org/1999/xlink" width="900" height="506" version="1.1">
<style type="text/css">
.l0{
  fill: #ffffff;
  stroke: #ffffff;
  stroke-linecap:round;
  stroke-linejoin:round;
  stroke-width: 0.636409;
}
.l1{
  fill: #0044ee;
  stroke: #0044ee;
  stroke-linecap:round;
  stroke-linejoin:round;
  stroke-width: 0.636409;
}
.l2{
  fill: #aaaaaa; fill-opacity: 0.2;
  stroke: #aaaaaa;
  stroke-linecap:round;
  stroke-linejoin:round;
  stroke-width: 0.636409;
}
.l3{
  fill: #222222; fill-opacity: 0.5;
  stroke: #222222;
  stroke-linecap:round;
  stroke-linejoin:round;
  stroke-width: 0.636409;
}
.l4{
  fill: #229900;
  stroke: #229900;
  stroke-linecap:round;
  stroke-linejoin:round;
  stroke-width: 0.636409;
}
.l5{
  fill: #bb2200;
  stroke: #bb2200;
  stroke-linecap:round;
  stroke-linejoin:round;
  stroke-width: 0.636409;
}
.l6{
  fill: #00ccee; fill-opacity: 0.5;
  stroke: #00ccee;
  stroke-linecap:round;
  stroke-linejoin:round;
  stroke-width: 0.636409;
}
.l7{
  fill: #ff0000; fill-opacity: 0.5;
  stroke: #ff0000;
  stroke-linecap:round;
  stroke-linejoin:round;
  stroke-width: 0.636409;
}
.l8{
  fill: #888800; fill-opacity: 0.5;
  stroke: #888800;
  stroke-linecap:round;
  stroke-linejoin:round;
  stroke-width: 0.636409;
}
.l9{
  fill: #00aaaa; fill-opacity: 0.5;
  stroke: #00aaaa;
  stroke-linecap:round;
  stroke-linejoin:round;
  stroke-width: 0.636409;
}
.l10{
  fill: #880088;
  stroke: #880088;
  stroke-linecap:round;
  stroke-linejoin:round;
  stroke-width: 0.636409;
}
.l11{
  fill: #00ff00; fill-opacity: 0.5;
  stroke: #00ff00;
  stroke-linecap:round;
  stroke-linejoin:round;
  stroke-width: 0.636409;
}
.l12{
  fill: #0000cc; fill-opacity: 0.5;
  stroke: #0000cc;
  stroke-linecap:round;
  stroke-linejoin:round;
  stroke-width: 0.636409;
}
.l13{
  fill: #666600; fill-opacity: 0.5;
  stroke: #666600;
  stroke-linecap:round;
  stroke-linejoin:round;
  stroke-width: 0.636409;
}
.l14{
  fill: #557755; fill-opacity: 0.2;
  stroke: #557755;
  stroke-linecap:round;
  stroke-linejoin:round;
  stroke-width: 0.636409;
}
.l15{
  fill: #aa2222; fill-opacity: 0.5;
  stroke: #aa2222;
  stroke-linecap:round;
  stroke-linejoin:round;
  stroke-width: 0.636409;
}
.l16{
  fill: #7ccc40; fill-opacity: 0.5;
  stroke: #7ccc40;
  stroke-linecap:round;
  stroke-linejoin:round;
  stroke-width: 0.636409;
}
.l17{
  fill: #00ffcc; fill-opacity: 0.2;
  stroke: #00ffcc;
  stroke-linecap:round;
  stroke-linejoin:round;
  stroke-width: 0.636409;
}
.l18{
  fill: #ce0097; fill-opacity: 0.5;
  stroke: #ce0097;
  stroke-linecap:round;
  stroke-linejoin:round;
  stroke-width: 0.636409;
}
.l19{
  fill: #d2d46b; fill-opacity: 0.2;
  stroke: #d2d46b;
  stroke-linecap:round;
  stroke-linejoin:round;
  stroke-width: 0.636409;
}
.l20{
  fill: #ef6158; fill-opacity: 0.2;
  stroke: #ef6158;
  stroke-linecap:round;
  stroke-linejoin:round;
  stroke-width: 0.636409;
}
.l21{
  fill: #fdb200; fill-opacity: 0.2;
  stroke: #fdb200;
  stroke-linecap:round;
  stroke-linejoin:round;
  stroke-width: 0.636409;
}
text {font-family: Sans-Serif;}
</style>
<rect class="l0" x="0" y="0" width="900" height="506"/>
<text fill="#0044ee"  xml:space="preserve" font-size="6.12838" transform="translate(536.475, 256.244)" >GND</text>
<text fill="#0044ee"  xml:space="preserve" font-size="6.12838" transform="translate(324.339, 256.244)" >GND</text>
<text fill="#0044ee"  xml:space="preserve" font-size="6.12838" transform="translate(577.724, 256.244)" >GND</text>
<text fill="#0044ee"  xml:space="preserve" font-size="10.1118" transform="translate(292.5, 98.9176)" >v_dd</text>
<text fill="#0044ee"  xml:space="preserve" font-size="8.27332" transform="translate(415.514, 162.522)" >vf</text>
<text fill="#0044ee"  xml:space="preserve" font-size="8.27332" transform="translate(503.904, 162.522)" >vr</text>
<text fill="#0044ee"  xml:space="preserve" font-size="6.12838" transform="translate(831.109, 256.244)" >GND</text>
<text fill="#0044ee"  xml:space="preserve" font-size="6.12838" transform="translate(872.358, 256.244)" >GND</text>
<text fill="#0044ee"  xml:space="preserve" font-size="6.12838" transform="translate(760.397, 256.244)" >GND</text>
<text fill="#0044ee"  xml:space="preserve" font-size="8.27332" transform="translate(677.577, 191.985)" >v_gs</text>
<text fill="#222222"  xml:space="preserve" font-size="9.19258" transform="translate(16.4463, 344.47)" >MODEL</text>
<text fill="#222222"  xml:space="preserve" font-size="9.19258" style="font-family:Monospace;" transform="translate(22.339, 359.202)" >.lib cornerMOSlv.lib mos_tt</text>
<text fill="#222222"  xml:space="preserve" font-size="9.19258" transform="translate(16.4463, 114.656)" >NGSPICE</text>
<text fill="#222222"  xml:space="preserve" font-size="9.19258" style="font-family:Monospace;" transform="translate(22.339, 139.932)" >.temp 27</text>
<text fill="#222222"  xml:space="preserve" font-size="9.19258" style="font-family:Monospace;" transform="translate(22.339, 150.476)" >.control</text>
<text fill="#222222"  xml:space="preserve" font-size="9.19258" style="font-family:Monospace;" transform="translate(22.339, 161.019)" >save all</text>
<text fill="#222222"  xml:space="preserve" font-size="9.19258" style="font-family:Monospace;" transform="translate(22.339, 171.563)" >op</text>
<text fill="#222222"  xml:space="preserve" font-size="9.19258" style="font-family:Monospace;" transform="translate(22.339, 182.107)" >ac dec 101 30k 30G</text>
<text fill="#222222"  xml:space="preserve" font-size="9.19258" style="font-family:Monospace;" transform="translate(22.339, 192.651)" >let tv=-v(vr)/v(vf)</text>
<text fill="#222222"  xml:space="preserve" font-size="9.19258" style="font-family:Monospace;" transform="translate(22.339, 203.195)" >let ti=-i(vir)/i(vif)</text>
<text fill="#222222"  xml:space="preserve" font-size="9.19258" style="font-family:Monospace;" transform="translate(22.339, 213.739)" >let t=(tv*ti - 1)/(tv + ti + 2)</text>
<text fill="#222222"  xml:space="preserve" font-size="9.19258" style="font-family:Monospace;" transform="translate(22.339, 224.283)" >plot db(t)</text>
<text fill="#222222"  xml:space="preserve" font-size="9.19258" style="font-family:Monospace;" transform="translate(22.339, 234.827)" >plot 180/pi*ph(t)</text>
<text fill="#222222"  xml:space="preserve" font-size="9.19258" style="font-family:Monospace;" transform="translate(22.339, 245.37)" >write mosfet_diode_loopgain.raw</text>
<text fill="#222222"  xml:space="preserve" font-size="9.19258" style="font-family:Monospace;" transform="translate(22.339, 255.914)" >.endc</text>
<text fill="#222222"  xml:space="preserve" font-size="6.12838" transform="translate(331.705, 189.215)" >Vdd</text>
<text fill="#222222"  xml:space="preserve" font-size="6.12838" transform="translate(331.705, 203.947)" >1.5</text>
<text fill="#222222"  xml:space="preserve" font-size="12.2568" transform="translate(246.261, 409.126)" >         /foss/designs/xschem/mosfet_diode_loopgain.sch</text>
<text fill="#222222"  xml:space="preserve" font-size="12.2568" transform="translate(246.261, 391.448)" >Copyright 2024 Harald Pretl</text>
<text fill="#222222"  xml:space="preserve" font-size="12.2568" transform="translate(572.836, 391.448)" >2024-08-27  17:39:44</text>
<text fill="#222222"  xml:space="preserve" font-size="30.6419" transform="translate(110.729, 408.141)" >SCHEM</text>
<text fill="#222222"  xml:space="preserve" font-size="6.12838" transform="translate(514.217, 210.913)" >M1</text>
<text fill="#ff0000"  xml:space="preserve" font-size="4.59629" transform="translate(533.529, 183.289)" >D</text>
<text fill="#ff0000"  xml:space="preserve" font-size="4.59629" transform="translate(533.529, 209.185)" >S</text>
<text fill="#ff0000"  xml:space="preserve" font-size="4.59629" transform="translate(532.056, 199.493)" >B</text>
<text fill="#ff0000"  xml:space="preserve" font-size="4.59629" transform="translate(510.377, 199.493)" >G</text>
<text fill="#222222"  xml:space="preserve" font-size="6.12838" transform="translate(537.948, 181.849)" >sg13_lv_nmos</text>
<text fill="#666600"  xml:space="preserve" font-size="6.12838" transform="translate(538.685, 208.703)" >m=1</text>
<text fill="#666600"  xml:space="preserve" font-size="6.12838" transform="translate(538.685, 204.283)" >ng=1</text>
<text fill="#666600"  xml:space="preserve" font-size="6.12838" transform="translate(538.685, 198.391)" >l=0.13u</text>
<text fill="#666600"  xml:space="preserve" font-size="6.12838" transform="translate(538.685, 192.498)" >w=1u</text>
<text fill="#222222"  xml:space="preserve" font-size="12.2568" transform="translate(314.026, 322.575)" >simulate</text>
<text fill="#222222"  xml:space="preserve" font-size="12.2568" transform="translate(455.451, 322.575)" >annotate OP</text>
<text fill="#222222"  xml:space="preserve" font-size="6.12838" transform="translate(543.841, 135.444)" >Ibias1</text>
<text fill="#222222"  xml:space="preserve" font-size="6.12838" transform="translate(543.841, 142.474)" >20u</text>
<text fill="#222222"  xml:space="preserve" font-size="6.12838" transform="translate(461.752, 153.451) rotate(270)" >Vtest</text>
<text fill="#222222"  xml:space="preserve" font-size="6.12838" transform="translate(476.484, 153.451) rotate(270)" >dc 0 ac 1</text>
<text fill="#222222"  xml:space="preserve" font-size="6.12838" transform="translate(808.85, 210.913)" >M2</text>
<text fill="#ff0000"  xml:space="preserve" font-size="4.59629" transform="translate(828.163, 183.289)" >D</text>
<text fill="#ff0000"  xml:space="preserve" font-size="4.59629" transform="translate(828.163, 209.185)" >S</text>
<text fill="#ff0000"  xml:space="preserve" font-size="4.59629" transform="translate(826.689, 199.493)" >B</text>
<text fill="#ff0000"  xml:space="preserve" font-size="4.59629" transform="translate(805.011, 199.493)" >G</text>
<text fill="#222222"  xml:space="preserve" font-size="6.12838" transform="translate(832.582, 181.849)" >sg13_lv_nmos</text>
<text fill="#666600"  xml:space="preserve" font-size="6.12838" transform="translate(833.319, 208.703)" >m=1</text>
<text fill="#666600"  xml:space="preserve" font-size="6.12838" transform="translate(833.319, 204.283)" >ng=1</text>
<text fill="#666600"  xml:space="preserve" font-size="6.12838" transform="translate(833.319, 198.391)" >l=0.13u</text>
<text fill="#666600"  xml:space="preserve" font-size="6.12838" transform="translate(833.319, 192.498)" >w=1u</text>
<text fill="#222222"  xml:space="preserve" font-size="6.12838" transform="translate(838.475, 135.444)" >Ibias2</text>
<text fill="#222222"  xml:space="preserve" font-size="6.12838" transform="translate(838.475, 142.474)" >20u</text>
<text fill="#222222"  xml:space="preserve" font-size="6.12838" transform="translate(795.025, 183.075) rotate(270)" >Vir</text>
<text fill="#222222"  xml:space="preserve" font-size="6.12838" transform="translate(736.098, 183.075) rotate(270)" >Vif</text>
<text fill="#222222"  xml:space="preserve" font-size="6.12838" transform="translate(716.192, 227.454)" >Itest</text>
<text fill="#222222"  xml:space="preserve" font-size="6.12838" transform="translate(716.192, 234.483)" >dc 0 ac 1</text>
<path class="l4" d="M13.5 347.909L54.7487 347.909"/>
<path class="l4" d="M13.5 347.909L13.5 359.694"/>
<path class="l4" d="M13.5 118.095L54.7487 118.095"/>
<path class="l4" d="M13.5 118.095L13.5 129.88"/>
<path class="l4" d="M532.056 247.733L532.056 255.099"/>
<path class="l4" d="M529.109 255.099L535.002 255.099"/>
<path class="l4" d="M532.056 258.046L535.002 255.099"/>
<path class="l4" d="M529.109 255.099L532.056 258.046"/>
<path class="l4" d="M321.392 181.441L324.339 181.441"/>
<path class="l4" d="M322.866 179.968L322.866 182.914"/>
<path class="l4" d="M319.919 177.021L319.919 212.377"/>
<circle class="l4" cx="319.919" cy="194.699" r="8.83901" style="fill:none;" />
<path class="l4" d="M319.919 247.733L319.919 255.099"/>
<path class="l4" d="M316.973 255.099L322.866 255.099"/>
<path class="l4" d="M319.919 258.046L322.866 255.099"/>
<path class="l4" d="M316.973 255.099L319.919 258.046"/>
<path class="l4" d="M573.304 247.733L573.304 255.099"/>
<path class="l4" d="M570.358 255.099L576.251 255.099"/>
<path class="l4" d="M573.304 258.046L576.251 255.099"/>
<path class="l4" d="M570.358 255.099L573.304 258.046"/>
<path class="l4" d="M524.69 181.441L524.69 207.958"/>
<path class="l4" d="M532.056 205.012L532.056 212.377"/>
<path class="l4" d="M532.056 177.021L532.056 184.387"/>
<path class="l4" d="M521.743 185.86L521.743 203.538"/>
<path class="l4" d="M524.69 184.387L532.056 184.387"/>
<path class="l4" d="M524.69 205.012L532.056 205.012"/>
<path class="l4" d="M508.485 194.699L521.449 194.699"/>
<path class="l4" d="M527.636 203.538L530.582 205.012L527.636 206.485L527.636 203.538"/>
<path class="l4" d="M308.134 318.446L290.456 311.08L290.456 315.499L272.778 315.499L278.67 318.446L272.778 321.392L290.456 321.392L290.456 325.811L308.134 318.446"/>
<path class="l4" d="M449.558 318.446L431.88 311.08L431.88 315.499L414.202 315.499L420.095 318.446L414.202 321.392L431.88 321.392L431.88 325.811L449.558 318.446"/>
<path class="l4" d="M532.056 118.095L532.056 126.934"/>
<path class="l4" d="M532.056 144.612L532.056 153.451"/>
<path class="l4" d="M533.529 122.514L536.475 122.514"/>
<path class="l4" d="M535.002 121.041L535.002 123.987"/>
<path class="l4" d="M532.056 131.353L532.056 137.246L533.529 137.246L532.056 141.665L530.582 137.246L532.056 137.246L532.056 131.353"/>
<circle class="l4" cx="532.056" cy="135.773" r="8.83901" style="fill:none;" />
<path class="l4" d="M453.978 160.816L453.978 163.763"/>
<path class="l4" d="M452.504 162.29L455.451 162.29"/>
<path class="l4" d="M449.558 165.236L484.914 165.236"/>
<circle class="l4" cx="467.236" cy="165.236" r="8.83901" style="fill:none;" />
<path class="l4" d="M826.689 247.733L826.689 255.099"/>
<path class="l4" d="M823.743 255.099L829.636 255.099"/>
<path class="l4" d="M826.689 258.046L829.636 255.099"/>
<path class="l4" d="M823.743 255.099L826.689 258.046"/>
<path class="l4" d="M867.938 247.733L867.938 255.099"/>
<path class="l4" d="M864.992 255.099L870.884 255.099"/>
<path class="l4" d="M867.938 258.046L870.884 255.099"/>
<path class="l4" d="M864.992 255.099L867.938 258.046"/>
<path class="l4" d="M819.323 181.441L819.323 207.958"/>
<path class="l4" d="M826.689 205.012L826.689 212.377"/>
<path class="l4" d="M826.689 177.021L826.689 184.387"/>
<path class="l4" d="M816.377 185.86L816.377 203.538"/>
<path class="l4" d="M819.323 184.387L826.689 184.387"/>
<path class="l4" d="M819.323 205.012L826.689 205.012"/>
<path class="l4" d="M803.119 194.699L816.083 194.699"/>
<path class="l4" d="M822.27 203.538L825.216 205.012L822.27 206.485L822.27 203.538"/>
<path class="l4" d="M826.689 118.095L826.689 126.934"/>
<path class="l4" d="M826.689 144.612L826.689 153.451"/>
<path class="l4" d="M828.163 122.514L831.109 122.514"/>
<path class="l4" d="M829.636 121.041L829.636 123.987"/>
<path class="l4" d="M826.689 131.353L826.689 137.246L828.163 137.246L826.689 141.665L825.216 137.246L826.689 137.246L826.689 131.353"/>
<circle class="l4" cx="826.689" cy="135.773" r="8.83901" style="fill:none;" />
<path class="l4" d="M767.763 165.236L803.119 165.236"/>
<path class="l4" d="M779.548 165.236L785.441 160.816"/>
<path class="l4" d="M779.548 165.236L785.441 169.655"/>
<path class="l4" d="M708.836 165.236L744.192 165.236"/>
<path class="l4" d="M720.621 165.236L726.514 160.816"/>
<path class="l4" d="M720.621 165.236L726.514 169.655"/>
<path class="l4" d="M755.977 238.894L755.977 247.733"/>
<path class="l4" d="M755.977 212.377L755.977 221.216"/>
<path class="l4" d="M751.558 243.314L754.504 243.314"/>
<path class="l4" d="M753.031 241.841L753.031 244.787"/>
<path class="l4" d="M755.977 234.475L755.977 228.582L754.504 228.582L755.977 224.163L757.45 228.582L755.977 228.582L755.977 234.475"/>
<circle class="l4" cx="755.977" cy="230.055" r="8.83901" style="fill:none;" />
<path class="l4" d="M755.977 247.733L755.977 255.099"/>
<path class="l4" d="M753.031 255.099L758.924 255.099"/>
<path class="l4" d="M755.977 258.046L758.924 255.099"/>
<path class="l4" d="M753.031 255.099L755.977 258.046"/>
<path class="l5" d="M530.582 246.26L533.529 246.26L533.529 249.207L530.582 249.207L530.582 246.26z"/>
<path class="l5" d="M318.446 175.548L321.392 175.548L321.392 178.494L318.446 178.494L318.446 175.548z"/>
<path class="l5" d="M318.446 210.904L321.392 210.904L321.392 213.851L318.446 213.851L318.446 210.904z"/>
<path class="l5" d="M318.446 246.26L321.392 246.26L321.392 249.207L318.446 249.207L318.446 246.26z"/>
<path class="l5" d="M571.831 246.26L574.777 246.26L574.777 249.207L571.831 249.207L571.831 246.26z"/>
<path class="l5" d="M101.89 386.211L101.706 386.395L101.522 386.58L101.338 386.764L101.154 386.948L100.969 387.132L100.785 387.316L100.601 387.5L100.417 387.684L100.233 387.869L100.049 388.053L99.8645 388.237L99.6804 388.421L99.4962 388.605L99.3121 388.789L99.128 388.974L98.9438 389.158L98.7597 389.342L98.5755 389.526L98.3914 389.71L98.2072 389.894L98.0231 390.078L97.8389 390.263L97.6548 390.447L97.4706 390.631L97.2865 390.815L97.1023 390.999L96.9182 391.183L96.7341 391.367L96.5499 391.552L96.3658 391.736L96.1816 391.92L95.9975 392.104L95.9975 392.104L95.8191 392.288L95.6522 392.472L95.4968 392.656L95.353 392.841L95.2206 393.025L95.0998 393.209L94.9904 393.393L94.8926 393.577L94.8063 393.761L94.7315 393.945L94.6682 394.13L94.6164 394.314L94.5761 394.498L94.5473 394.682L94.5301 394.866L94.5243 395.05L94.5301 395.234L94.5473 395.419L94.5761 395.603L94.6164 395.787L94.6682 395.971L94.7315 396.155L94.8063 396.339L94.8926 396.523L94.9904 396.708L95.0998 396.892L95.2206 397.076L95.353 397.26L95.4968 397.444L95.6522 397.628L95.8191 397.813L95.9975 397.997L95.9975 397.997L96.1823 398.182L96.3686 398.368L96.5564 398.556L96.7456 398.745L96.9362 398.935L97.1282 399.127L97.3217 399.321L97.5167 399.516L97.713 399.712L97.9109 399.91L98.1101 400.109L98.3108 400.31L98.5129 400.512L98.7165 400.716L98.9215 400.921L99.128 401.127L99.3358 401.335L99.5452 401.544L99.7559 401.755L99.9681 401.967L100.182 402.181L100.397 402.396L100.613 402.613L100.831 402.831L101.051 403.05L101.272 403.271L101.494 403.493L101.718 403.717L101.943 403.942L102.169 404.168L102.397 404.396L102.627 404.626L102.627 404.626L102.855 404.855L103.081 405.081L103.304 405.304L103.524 405.524L103.742 405.741L103.956 405.955L104.168 406.167L104.376 406.375L104.582 406.581L104.785 406.784L104.985 406.984L105.182 407.181L105.376 407.375L105.567 407.567L105.756 407.755L105.941 407.941L106.124 408.123L106.304 408.303L106.481 408.48L106.655 408.654L106.826 408.825L106.994 408.994L107.16 409.159L107.322 409.322L107.482 409.481L107.639 409.638L107.793 409.792L107.944 409.943L108.092 410.091L108.237 410.237L108.38 410.379L108.519 410.519L108.519 410.519L108.653 410.655L108.778 410.786L108.895 410.914L109.003 411.037L109.102 411.155L109.193 411.27L109.275 411.38L109.348 411.485L109.413 411.587L109.469 411.684L109.516 411.777L109.555 411.865L109.585 411.949L109.607 412.029L109.62 412.105L109.624 412.176L109.62 412.243L109.607 412.305L109.585 412.364L109.555 412.418L109.516 412.467L109.469 412.513L109.413 412.554L109.348 412.59L109.275 412.623L109.193 412.651L109.102 412.674L109.003 412.694L108.895 412.709L108.778 412.72L108.653 412.726L108.519 412.728L108.519 412.728L108.381 412.728L108.243 412.728L108.105 412.728L107.967 412.728L107.829 412.728L107.691 412.728L107.553 412.728L107.415 412.728L107.276 412.728L107.138 412.728L107 412.728L106.862 412.728L106.724 412.728L106.586 412.728L106.448 412.728L106.31 412.728L106.172 412.728L106.033 412.728L105.895 412.728L105.757 412.728L105.619 412.728L105.481 412.728L105.343 412.728L105.205 412.728L105.067 412.728L104.929 412.728L104.79 412.728L104.652 412.728L104.514 412.728L104.376 412.728L104.238 412.728L104.1 412.728L104.1 412.728L103.963 412.728L103.827 412.728L103.692 412.728L103.559 412.728L103.427 412.728L103.297 412.728L103.168 412.728L103.041 412.728L102.915 412.728L102.791 412.728L102.668 412.728L102.546 412.728L102.426 412.728L102.307 412.728L102.19 412.728L102.074 412.728L101.96 412.728L101.847 412.728L101.735 412.728L101.625 412.728L101.517 412.728L101.41 412.728L101.304 412.728L101.2 412.728L101.097 412.728L100.995 412.728L100.895 412.728L100.797 412.728L100.7 412.728L100.604 412.728L100.51 412.728L100.417 412.728L100.417 412.728L100.325 412.727L100.233 412.723L100.141 412.715L100.049 412.705L99.9566 412.692L99.8645 412.677L99.7725 412.658L99.6804 412.636L99.5883 412.612L99.4962 412.584L99.4042 412.554L99.3121 412.521L99.22 412.485L99.128 412.446L99.0359 412.405L98.9438 412.36L98.8517 412.313L98.7597 412.262L98.6676 412.209L98.5755 412.153L98.4834 412.094L98.3914 412.032L98.2993 411.967L98.2072 411.9L98.1151 411.829L98.0231 411.756L97.931 411.68L97.8389 411.6L97.7469 411.518L97.6548 411.434L97.5627 411.346L97.4706 411.255L97.4706 411.255L97.3786 411.163L97.2865 411.071L97.1944 410.979L97.1023 410.887L97.0103 410.795L96.9182 410.703L96.8261 410.611L96.7341 410.519L96.642 410.427L96.5499 410.334L96.4578 410.242L96.3658 410.15L96.2737 410.058L96.1816 409.966L96.0895 409.874L95.9975 409.782L95.9054 409.69L95.8133 409.598L95.7212 409.506L95.6292 409.414L95.5371 409.322L95.445 409.23L95.353 409.138L95.2609 409.045L95.1688 408.953L95.0767 408.861L94.9847 408.769L94.8926 408.677L94.8005 408.585L94.7084 408.493L94.6164 408.401L94.5243 408.309L94.5243 408.309L94.4308 408.215L94.3344 408.119L94.2351 408.02L94.133 407.918L94.028 407.813L93.9201 407.705L93.8093 407.594L93.6956 407.48L93.5791 407.364L93.4597 407.244L93.3374 407.122L93.2123 406.997L93.0842 406.869L92.9533 406.738L92.8195 406.604L92.6828 406.467L92.5433 406.328L92.4009 406.185L92.2556 406.04L92.1074 405.892L91.9563 405.741L91.8024 405.587L91.6456 405.43L91.4859 405.27L91.3233 405.108L91.1579 404.942L90.9896 404.774L90.8184 404.603L90.6443 404.429L90.4673 404.252L90.2875 404.072L90.1048 403.889L90.1048 403.889L89.9206 403.711L89.7365 403.544L89.5524 403.389L89.3682 403.245L89.1841 403.112L88.9999 402.992L88.8158 402.882L88.6316 402.784L88.4475 402.698L88.2633 402.623L88.0792 402.56L87.895 402.508L87.7109 402.468L87.5267 402.439L87.3426 402.422L87.1585 402.416L86.9743 402.422L86.7902 402.439L86.606 402.468L86.4219 402.508L86.2377 402.56L86.0536 402.623L85.8694 402.698L85.6853 402.784L85.5011 402.882L85.317 402.992L85.1328 403.112L84.9487 403.245L84.7646 403.389L84.5804 403.544L84.3963 403.711L84.2121 403.889L84.2121 403.889L84.0294 404.072L83.8496 404.252L83.6726 404.429L83.4985 404.603L83.3274 404.774L83.159 404.942L82.9936 405.108L82.831 405.27L82.6713 405.43L82.5145 405.587L82.3606 405.741L82.2095 405.892L82.0613 406.04L81.916 406.185L81.7736 406.328L81.6341 406.467L81.4974 406.604L81.3636 406.738L81.2327 406.869L81.1047 406.997L80.9795 407.122L80.8572 407.244L80.7378 407.364L80.6213 407.48L80.5076 407.594L80.3968 407.705L80.2889 407.813L80.1839 407.918L80.0818 408.02L79.9825 408.119L79.8861 408.215L79.7926 408.309L79.7926 408.309L79.7005 408.401L79.6085 408.493L79.5164 408.585L79.4243 408.677L79.3322 408.769L79.2402 408.861L79.1481 408.953L79.056 409.045L78.964 409.138L78.8719 409.23L78.7798 409.322L78.6877 409.414L78.5957 409.506L78.5036 409.598L78.4115 409.69L78.3194 409.782L78.2274 409.874L78.1353 409.966L78.0432 410.058L77.9511 410.15L77.8591 410.242L77.767 410.334L77.6749 410.427L77.5829 410.519L77.4908 410.611L77.3987 410.703L77.3066 410.795L77.2146 410.887L77.1225 410.979L77.0304 411.071L76.9383 411.163L76.8463 411.255L76.8463 411.255L76.7542 411.346L76.6621 411.434L76.5701 411.518L76.478 411.6L76.3859 411.68L76.2938 411.756L76.2018 411.829L76.1097 411.9L76.0176 411.967L75.9255 412.032L75.8335 412.094L75.7414 412.153L75.6493 412.209L75.5572 412.262L75.4652 412.313L75.3731 412.36L75.281 412.405L75.189 412.446L75.0969 412.485L75.0048 412.521L74.9127 412.554L74.8207 412.584L74.7286 412.612L74.6365 412.636L74.5444 412.658L74.4524 412.677L74.3603 412.692L74.2682 412.705L74.1762 412.715L74.0841 412.723L73.992 412.727L73.8999 412.728L73.8999 412.728L73.8071 412.728L73.7129 412.728L73.6172 412.728L73.5201 412.728L73.4216 412.728L73.3216 412.728L73.2202 412.728L73.1173 412.728L73.013 412.728L72.9073 412.728L72.8001 412.728L72.6915 412.728L72.5814 412.728L72.4699 412.728L72.357 412.728L72.2426 412.728L72.1268 412.728L72.0096 412.728L71.8909 412.728L71.7707 412.728L71.6492 412.728L71.5262 412.728L71.4017 412.728L71.2759 412.728L71.1485 412.728L71.0198 412.728L70.8896 412.728L70.7579 412.728L70.6249 412.728L70.4904 412.728L70.3544 412.728L70.217 412.728L70.217 412.728L70.0789 412.728L69.9408 412.728L69.8027 412.728L69.6646 412.728L69.5265 412.728L69.3884 412.728L69.2502 412.728L69.1121 412.728L68.974 412.728L68.8359 412.728L68.6978 412.728L68.5597 412.728L68.4216 412.728L68.2835 412.728L68.1454 412.728L68.0073 412.728L67.8691 412.728L67.731 412.728L67.5929 412.728L67.4548 412.728L67.3167 412.728L67.1786 412.728L67.0405 412.728L66.9024 412.728L66.7643 412.728L66.6262 412.728L66.4881 412.728L66.3499 412.728L66.2118 412.728L66.0737 412.728L65.9356 412.728L65.7975 412.728L65.7975 412.728L65.6637 412.726L65.5385 412.72L65.422 412.709L65.3141 412.694L65.2149 412.674L65.1242 412.651L65.0422 412.623L64.9688 412.59L64.9041 412.554L64.848 412.513L64.8005 412.467L64.7617 412.418L64.7315 412.364L64.7099 412.305L64.6969 412.243L64.6926 412.176L64.6969 412.105L64.7099 412.029L64.7315 411.949L64.7617 411.865L64.8005 411.777L64.848 411.684L64.9041 411.587L64.9688 411.485L65.0422 411.38L65.1242 411.27L65.2149 411.155L65.3141 411.037L65.422 410.914L65.5385 410.786L65.6637 410.655L65.7975 410.519L65.7975 410.519L65.9371 410.379L66.0795 410.237L66.2248 410.091L66.373 409.943L66.524 409.792L66.678 409.638L66.8348 409.481L66.9945 409.322L67.157 409.159L67.3225 408.994L67.4908 408.825L67.662 408.654L67.8361 408.48L68.013 408.303L68.1928 408.123L68.3755 407.941L68.5611 407.755L68.7496 407.567L68.9409 407.375L69.1352 407.181L69.3322 406.984L69.5322 406.784L69.7351 406.581L69.9408 406.375L70.1494 406.167L70.3609 405.955L70.5752 405.741L70.7925 405.524L71.0126 405.304L71.2356 405.081L71.4614 404.855L71.6902 404.626L71.6902 404.626L71.9196 404.396L72.1477 404.168L72.3743 403.942L72.5994 403.717L72.8231 403.493L73.0454 403.271L73.2662 403.05L73.4856 402.831L73.7036 402.613L73.9201 402.396L74.1352 402.181L74.3488 401.967L74.561 401.755L74.7717 401.544L74.9811 401.335L75.189 401.127L75.3954 400.921L75.6004 400.716L75.804 400.512L76.0061 400.31L76.2068 400.109L76.406 399.91L76.6039 399.712L76.8002 399.516L76.9952 399.321L77.1887 399.127L77.3807 398.935L77.5713 398.745L77.7605 398.556L77.9483 398.368L78.1346 398.182L78.3194 397.997L78.3194 397.997L78.4978 397.813L78.6647 397.628L78.8201 397.444L78.964 397.26L79.0963 397.076L79.2172 396.892L79.3265 396.708L79.4243 396.523L79.5106 396.339L79.5854 396.155L79.6487 395.971L79.7005 395.787L79.7408 395.603L79.7696 395.419L79.7869 395.234L79.7926 395.05L79.7869 394.866L79.7696 394.682L79.7408 394.498L79.7005 394.314L79.6487 394.13L79.5854 393.945L79.5106 393.761L79.4243 393.577L79.3265 393.393L79.2172 393.209L79.0963 393.025L78.964 392.841L78.8201 392.656L78.6647 392.472L78.4978 392.288L78.3194 392.104L78.3194 392.104L78.1346 391.919L77.9483 391.733L77.7605 391.545L77.5713 391.356L77.3807 391.165L77.1887 390.973L76.9952 390.78L76.8002 390.585L76.6039 390.388L76.406 390.191L76.2068 389.991L76.0061 389.791L75.804 389.589L75.6004 389.385L75.3954 389.18L75.189 388.974L74.9811 388.766L74.7717 388.556L74.561 388.346L74.3488 388.133L74.1352 387.92L73.9201 387.705L73.7036 387.488L73.4856 387.27L73.2662 387.051L73.0454 386.83L72.8231 386.608L72.5994 386.384L72.3743 386.159L72.1477 385.932L71.9196 385.704L71.6902 385.475L71.6902 385.475L71.4614 385.246L71.2356 385.02L71.0126 384.797L70.7925 384.577L70.5752 384.36L70.3609 384.145L70.1494 383.934L69.9408 383.725L69.7351 383.52L69.5322 383.317L69.3322 383.117L69.1352 382.92L68.9409 382.725L68.7496 382.534L68.5611 382.346L68.3755 382.16L68.1928 381.977L68.013 381.798L67.8361 381.621L67.662 381.447L67.4908 381.275L67.3225 381.107L67.157 380.942L66.9945 380.779L66.8348 380.619L66.678 380.463L66.524 380.309L66.373 380.158L66.2248 380.009L66.0795 379.864L65.9371 379.722L65.7975 379.582L65.7975 379.582L65.6637 379.446L65.5385 379.314L65.422 379.187L65.3141 379.064L65.2149 378.945L65.1242 378.831L65.0422 378.721L64.9688 378.615L64.9041 378.514L64.848 378.417L64.8005 378.324L64.7617 378.235L64.7315 378.151L64.7099 378.071L64.6969 377.996L64.6926 377.925L64.6969 377.858L64.7099 377.795L64.7315 377.737L64.7617 377.683L64.8005 377.633L64.848 377.588L64.9041 377.547L64.9688 377.51L65.0422 377.478L65.1242 377.45L65.2149 377.426L65.3141 377.407L65.422 377.392L65.5385 377.381L65.6637 377.374L65.7975 377.372L65.7975 377.372L65.9356 377.372L66.0737 377.372L66.2118 377.372L66.3499 377.372L66.4881 377.372L66.6262 377.372L66.7643 377.372L66.9024 377.372L67.0405 377.372L67.1786 377.372L67.3167 377.372L67.4548 377.372L67.5929 377.372L67.731 377.372L67.8691 377.372L68.0073 377.372L68.1454 377.372L68.2835 377.372L68.4216 377.372L68.5597 377.372L68.6978 377.372L68.8359 377.372L68.974 377.372L69.1121 377.372L69.2502 377.372L69.3884 377.372L69.5265 377.372L69.6646 377.372L69.8027 377.372L69.9408 377.372L70.0789 377.372L70.217 377.372L70.217 377.372L70.3544 377.372L70.4904 377.372L70.6249 377.372L70.7579 377.372L70.8896 377.372L71.0198 377.372L71.1485 377.372L71.2759 377.372L71.4017 377.372L71.5262 377.372L71.6492 377.372L71.7707 377.372L71.8909 377.372L72.0096 377.372L72.1268 377.372L72.2426 377.372L72.357 377.372L72.4699 377.372L72.5814 377.372L72.6915 377.372L72.8001 377.372L72.9073 377.372L73.013 377.372L73.1173 377.372L73.2202 377.372L73.3216 377.372L73.4216 377.372L73.5201 377.372L73.6172 377.372L73.7129 377.372L73.8071 377.372L73.8999 377.372L73.8999 377.372L73.992 377.374L74.0841 377.378L74.1762 377.385L74.2682 377.395L74.3603 377.408L74.4524 377.424L74.5444 377.443L74.6365 377.464L74.7286 377.489L74.8207 377.516L74.9127 377.546L75.0048 377.579L75.0969 377.615L75.189 377.654L75.281 377.696L75.3731 377.741L75.4652 377.788L75.5572 377.838L75.6493 377.892L75.7414 377.948L75.8335 378.007L75.9255 378.069L76.0176 378.133L76.1097 378.201L76.2018 378.271L76.2938 378.345L76.3859 378.421L76.478 378.5L76.5701 378.582L76.6621 378.667L76.7542 378.755L76.8463 378.845L76.8463 378.845L76.9383 378.938L77.0304 379.03L77.1225 379.122L77.2146 379.214L77.3066 379.306L77.3987 379.398L77.4908 379.49L77.5829 379.582L77.6749 379.674L77.767 379.766L77.8591 379.858L77.9511 379.95L78.0432 380.042L78.1353 380.134L78.2274 380.227L78.3194 380.319L78.4115 380.411L78.5036 380.503L78.5957 380.595L78.6877 380.687L78.7798 380.779L78.8719 380.871L78.964 380.963L79.056 381.055L79.1481 381.147L79.2402 381.239L79.3322 381.331L79.4243 381.424L79.5164 381.516L79.6085 381.608L79.7005 381.7L79.7926 381.792L79.7926 381.792L79.8861 381.885L79.9825 381.982L80.0818 382.081L80.1839 382.183L80.2889 382.288L80.3968 382.396L80.5076 382.507L80.6213 382.62L80.7378 382.737L80.8572 382.856L80.9795 382.979L81.1047 383.104L81.2327 383.232L81.3636 383.363L81.4974 383.497L81.6341 383.633L81.7736 383.773L81.916 383.915L82.0613 384.061L82.2095 384.209L82.3606 384.36L82.5145 384.514L82.6713 384.671L82.831 384.83L82.9936 384.993L83.159 385.158L83.3274 385.327L83.4985 385.498L83.6726 385.672L83.8496 385.849L84.0294 386.029L84.2121 386.211L84.2121 386.211L84.3963 386.39L84.5804 386.557L84.7646 386.712L84.9487 386.856L85.1328 386.988L85.317 387.109L85.5011 387.218L85.6853 387.316L85.8694 387.403L86.0536 387.477L86.2377 387.541L86.4219 387.592L86.606 387.633L86.7902 387.661L86.9743 387.679L87.1585 387.684L87.3426 387.679L87.5267 387.661L87.7109 387.633L87.895 387.592L88.0792 387.541L88.2633 387.477L88.4475 387.403L88.6316 387.316L88.8158 387.218L88.9999 387.109L89.1841 386.988L89.3682 386.856L89.5524 386.712L89.7365 386.557L89.9206 386.39L90.1048 386.211L90.1048 386.211L90.2875 386.029L90.4673 385.849L90.6443 385.672L90.8184 385.498L90.9896 385.327L91.1579 385.158L91.3233 384.993L91.4859 384.83L91.6456 384.671L91.8024 384.514L91.9563 384.36L92.1074 384.209L92.2556 384.061L92.4009 383.915L92.5433 383.773L92.6828 383.633L92.8195 383.497L92.9533 383.363L93.0842 383.232L93.2123 383.104L93.3374 382.979L93.4597 382.856L93.5791 382.737L93.6956 382.62L93.8093 382.507L93.9201 382.396L94.028 382.288L94.133 382.183L94.2351 382.081L94.3344 381.982L94.4308 381.885L94.5243 381.792L94.5243 381.792L94.6164 381.7L94.7084 381.608L94.8005 381.516L94.8926 381.424L94.9847 381.331L95.0767 381.239L95.1688 381.147L95.2609 381.055L95.353 380.963L95.445 380.871L95.5371 380.779L95.6292 380.687L95.7212 380.595L95.8133 380.503L95.9054 380.411L95.9975 380.319L96.0895 380.227L96.1816 380.134L96.2737 380.042L96.3658 379.95L96.4578 379.858L96.5499 379.766L96.642 379.674L96.7341 379.582L96.8261 379.49L96.9182 379.398L97.0103 379.306L97.1023 379.214L97.1944 379.122L97.2865 379.03L97.3786 378.938L97.4706 378.845L97.4706 378.845L97.5627 378.755L97.6548 378.667L97.7469 378.582L97.8389 378.5L97.931 378.421L98.0231 378.345L98.1151 378.271L98.2072 378.201L98.2993 378.133L98.3914 378.069L98.4834 378.007L98.5755 377.948L98.6676 377.892L98.7597 377.838L98.8517 377.788L98.9438 377.741L99.0359 377.696L99.128 377.654L99.22 377.615L99.3121 377.579L99.4042 377.546L99.4962 377.516L99.5883 377.489L99.6804 377.464L99.7725 377.443L99.8645 377.424L99.9566 377.408L100.049 377.395L100.141 377.385L100.233 377.378L100.325 377.374L100.417 377.372L100.417 377.372L100.51 377.372L100.604 377.372L100.7 377.372L100.797 377.372L100.895 377.372L100.995 377.372L101.097 377.372L101.2 377.372L101.304 377.372L101.41 377.372L101.517 377.372L101.625 377.372L101.735 377.372L101.847 377.372L101.96 377.372L102.074 377.372L102.19 377.372L102.307 377.372L102.426 377.372L102.546 377.372L102.668 377.372L102.791 377.372L102.915 377.372L103.041 377.372L103.168 377.372L103.297 377.372L103.427 377.372L103.559 377.372L103.692 377.372L103.827 377.372L103.963 377.372L104.1 377.372L104.1 377.372L104.238 377.372L104.376 377.372L104.514 377.372L104.652 377.372L104.79 377.372L104.929 377.372L105.067 377.372L105.205 377.372L105.343 377.372L105.481 377.372L105.619 377.372L105.757 377.372L105.895 377.372L106.033 377.372L106.172 377.372L106.31 377.372L106.448 377.372L106.586 377.372L106.724 377.372L106.862 377.372L107 377.372L107.138 377.372L107.276 377.372L107.415 377.372L107.553 377.372L107.691 377.372L107.829 377.372L107.967 377.372L108.105 377.372L108.243 377.372L108.381 377.372L108.519 377.372L108.519 377.372L108.653 377.374L108.778 377.381L108.895 377.392L109.003 377.407L109.102 377.426L109.193 377.45L109.275 377.478L109.348 377.51L109.413 377.547L109.469 377.588L109.516 377.633L109.555 377.683L109.585 377.737L109.607 377.795L109.62 377.858L109.624 377.925L109.62 377.996L109.607 378.071L109.585 378.151L109.555 378.235L109.516 378.324L109.469 378.417L109.413 378.514L109.348 378.615L109.275 378.721L109.193 378.831L109.102 378.945L109.003 379.064L108.895 379.187L108.778 379.314L108.653 379.446L108.519 379.582L108.519 379.582L108.379 379.722L108.235 379.867L108.086 380.016L107.932 380.169L107.775 380.327L107.613 380.488L107.447 380.655L107.276 380.825L107.102 381L106.923 381.179L106.739 381.362L106.551 381.55L106.359 381.742L106.163 381.939L105.962 382.139L105.757 382.344L105.548 382.554L105.334 382.767L105.116 382.985L104.894 383.207L104.667 383.434L104.437 383.665L104.201 383.9L103.962 384.14L103.718 384.384L103.47 384.632L103.217 384.884L102.96 385.141L102.699 385.402L102.434 385.668L102.164 385.937L101.89 386.211"/>
<path class="l5" d="M529.109 196.173L532.056 194.699L529.109 193.226L529.109 196.173"/>
<path class="l5" d="M530.582 175.548L533.529 175.548L533.529 178.494L530.582 178.494L530.582 175.548z"/>
<path class="l5" d="M507.012 193.226L509.958 193.226L509.958 196.173L507.012 196.173L507.012 193.226z"/>
<path class="l5" d="M530.582 210.904L533.529 210.904L533.529 213.851L530.582 213.851L530.582 210.904z"/>
<path class="l5" d="M532.009 194.653L532.102 194.653L532.102 194.745L532.009 194.745L532.009 194.653z"/>
<path class="l5" d="M530.582 116.621L533.529 116.621L533.529 119.568L530.582 119.568L530.582 116.621z"/>
<path class="l5" d="M530.582 151.977L533.529 151.977L533.529 154.924L530.582 154.924L530.582 151.977z"/>
<path class="l5" d="M319.183 93.7873L320.656 93.7873L320.656 95.2604L319.183 95.2604L319.183 93.7873z"/>
<path class="l5" d="M448.085 163.763L451.031 163.763L451.031 166.709L448.085 166.709L448.085 163.763z"/>
<path class="l5" d="M483.441 163.763L486.387 163.763L486.387 166.709L483.441 166.709L483.441 163.763z"/>
<path class="l5" d="M425.251 164.499L426.724 164.499L426.724 165.973L425.251 165.973L425.251 164.499z"/>
<path class="l5" d="M513.641 164.499L515.114 164.499L515.114 165.973L513.641 165.973L513.641 164.499z"/>
<path class="l5" d="M825.216 246.26L828.163 246.26L828.163 249.207L825.216 249.207L825.216 246.26z"/>
<path class="l5" d="M866.465 246.26L869.411 246.26L869.411 249.207L866.465 249.207L866.465 246.26z"/>
<path class="l5" d="M823.743 196.173L826.689 194.699L823.743 193.226L823.743 196.173"/>
<path class="l5" d="M825.216 175.548L828.163 175.548L828.163 178.494L825.216 178.494L825.216 175.548z"/>
<path class="l5" d="M801.645 193.226L804.592 193.226L804.592 196.173L801.645 196.173L801.645 193.226z"/>
<path class="l5" d="M825.216 210.904L828.163 210.904L828.163 213.851L825.216 213.851L825.216 210.904z"/>
<path class="l5" d="M826.643 194.653L826.735 194.653L826.735 194.745L826.643 194.745L826.643 194.653z"/>
<path class="l5" d="M825.216 116.621L828.163 116.621L828.163 119.568L825.216 119.568L825.216 116.621z"/>
<path class="l5" d="M825.216 151.977L828.163 151.977L828.163 154.924L825.216 154.924L825.216 151.977z"/>
<path class="l5" d="M801.645 163.763L804.592 163.763L804.592 166.709L801.645 166.709L801.645 163.763z"/>
<path class="l5" d="M766.289 163.763L769.236 163.763L769.236 166.709L766.289 166.709L766.289 163.763z"/>
<path class="l5" d="M742.719 163.763L745.665 163.763L745.665 166.709L742.719 166.709L742.719 163.763z"/>
<path class="l5" d="M707.363 163.763L710.309 163.763L710.309 166.709L707.363 166.709L707.363 163.763z"/>
<path class="l5" d="M754.504 246.26L757.45 246.26L757.45 249.207L754.504 249.207L754.504 246.26z"/>
<path class="l5" d="M754.504 210.904L757.45 210.904L757.45 213.851L754.504 213.851L754.504 210.904z"/>
<path class="l5" d="M754.504 246.26L757.45 246.26L757.45 249.207L754.504 249.207L754.504 246.26z"/>
<path class="l5" d="M696.314 193.963L697.787 193.963L697.787 195.436L696.314 195.436L696.314 193.963z"/>
<path class="l6" d="M240.368 395.05L708.836 395.05"/>
<path class="l6" d="M13.5 395.05L51.8024 395.05"/>
<path class="l1" d="M532.056 212.377L532.056 247.733"/>
<path class="l1" d="M319.919 212.377L319.919 247.733"/>
<path class="l1" d="M532.056 194.699L573.304 194.699"/>
<path class="l1" d="M573.304 194.699L573.304 247.733"/>
<path class="l1" d="M532.056 94.5238L532.056 118.095"/>
<path class="l1" d="M319.919 94.5238L319.919 177.021"/>
<path class="l1" d="M402.417 165.236L402.417 194.699"/>
<path class="l1" d="M532.056 165.236L532.056 177.021"/>
<path class="l1" d="M402.417 194.699L508.485 194.699"/>
<path class="l1" d="M402.417 165.236L449.558 165.236"/>
<path class="l1" d="M484.914 165.236L532.056 165.236"/>
<path class="l1" d="M532.056 153.451L532.056 165.236"/>
<path class="l1" d="M826.689 212.377L826.689 247.733"/>
<path class="l1" d="M826.689 194.699L867.938 194.699"/>
<path class="l1" d="M867.938 194.699L867.938 247.733"/>
<path class="l1" d="M826.689 94.5238L826.689 118.095"/>
<path class="l1" d="M697.05 165.236L697.05 194.699"/>
<path class="l1" d="M697.05 194.699L803.119 194.699"/>
<path class="l1" d="M826.689 165.236L826.689 177.021"/>
<path class="l1" d="M532.056 94.5238L826.689 94.5238"/>
<path class="l1" d="M319.919 94.5238L532.056 94.5238"/>
<path class="l1" d="M697.05 165.236L708.836 165.236"/>
<path class="l1" d="M755.977 165.236L767.763 165.236"/>
<path class="l1" d="M803.119 165.236L826.689 165.236"/>
<path class="l1" d="M826.689 153.451L826.689 165.236"/>
<path class="l1" d="M755.977 165.236L755.977 212.377"/>
<path class="l1" d="M744.192 165.236L755.977 165.236"/>
<circle class="l1" cx="532.056" cy="94.5238" r="2.18029"/>
<circle class="l1" cx="532.056" cy="94.5238" r="2.18029"/>
<circle class="l1" cx="532.056" cy="165.236" r="2.18029"/>
<circle class="l1" cx="532.056" cy="165.236" r="2.18029"/>
<circle class="l1" cx="532.056" cy="165.236" r="2.18029"/>
<circle class="l1" cx="532.056" cy="94.5238" r="2.18029"/>
<circle class="l1" cx="755.977" cy="165.236" r="2.18029"/>
<circle class="l1" cx="755.977" cy="165.236" r="2.18029"/>
<circle class="l1" cx="826.689" cy="165.236" r="2.18029"/>
<circle class="l1" cx="826.689" cy="165.236" r="2.18029"/>
<circle class="l1" cx="755.977" cy="165.236" r="2.18029"/>
<circle class="l1" cx="826.689" cy="165.236" r="2.18029"/>
</svg>
