<svg xmlns="http://www.w3.org/2000/svg" xmlns:xlink="http://www.w3.org/1999/xlink" width="900" height="506" version="1.1">
<style type="text/css">
.l0{
  fill: #ffffff;
  stroke: #ffffff;
  stroke-linecap:round;
  stroke-linejoin:round;
  stroke-width: 0.591613;
}
.l1{
  fill: #0044ee;
  stroke: #0044ee;
  stroke-linecap:round;
  stroke-linejoin:round;
  stroke-width: 0.591613;
}
.l2{
  fill: #aaaaaa; fill-opacity: 0.2;
  stroke: #aaaaaa;
  stroke-linecap:round;
  stroke-linejoin:round;
  stroke-width: 0.591613;
}
.l3{
  fill: #222222; fill-opacity: 0.5;
  stroke: #222222;
  stroke-linecap:round;
  stroke-linejoin:round;
  stroke-width: 0.591613;
}
.l4{
  fill: #229900;
  stroke: #229900;
  stroke-linecap:round;
  stroke-linejoin:round;
  stroke-width: 0.591613;
}
.l5{
  fill: #bb2200;
  stroke: #bb2200;
  stroke-linecap:round;
  stroke-linejoin:round;
  stroke-width: 0.591613;
}
.l6{
  fill: #00ccee; fill-opacity: 0.5;
  stroke: #00ccee;
  stroke-linecap:round;
  stroke-linejoin:round;
  stroke-width: 0.591613;
}
.l7{
  fill: #ff0000; fill-opacity: 0.5;
  stroke: #ff0000;
  stroke-linecap:round;
  stroke-linejoin:round;
  stroke-width: 0.591613;
}
.l8{
  fill: #888800; fill-opacity: 0.5;
  stroke: #888800;
  stroke-linecap:round;
  stroke-linejoin:round;
  stroke-width: 0.591613;
}
.l9{
  fill: #00aaaa; fill-opacity: 0.5;
  stroke: #00aaaa;
  stroke-linecap:round;
  stroke-linejoin:round;
  stroke-width: 0.591613;
}
.l10{
  fill: #880088;
  stroke: #880088;
  stroke-linecap:round;
  stroke-linejoin:round;
  stroke-width: 0.591613;
}
.l11{
  fill: #00ff00; fill-opacity: 0.5;
  stroke: #00ff00;
  stroke-linecap:round;
  stroke-linejoin:round;
  stroke-width: 0.591613;
}
.l12{
  fill: #0000cc; fill-opacity: 0.5;
  stroke: #0000cc;
  stroke-linecap:round;
  stroke-linejoin:round;
  stroke-width: 0.591613;
}
.l13{
  fill: #666600; fill-opacity: 0.5;
  stroke: #666600;
  stroke-linecap:round;
  stroke-linejoin:round;
  stroke-width: 0.591613;
}
.l14{
  fill: #557755; fill-opacity: 0.2;
  stroke: #557755;
  stroke-linecap:round;
  stroke-linejoin:round;
  stroke-width: 0.591613;
}
.l15{
  fill: #aa2222; fill-opacity: 0.5;
  stroke: #aa2222;
  stroke-linecap:round;
  stroke-linejoin:round;
  stroke-width: 0.591613;
}
.l16{
  fill: #7ccc40; fill-opacity: 0.5;
  stroke: #7ccc40;
  stroke-linecap:round;
  stroke-linejoin:round;
  stroke-width: 0.591613;
}
.l17{
  fill: #00ffcc; fill-opacity: 0.2;
  stroke: #00ffcc;
  stroke-linecap:round;
  stroke-linejoin:round;
  stroke-width: 0.591613;
}
.l18{
  fill: #ce0097; fill-opacity: 0.5;
  stroke: #ce0097;
  stroke-linecap:round;
  stroke-linejoin:round;
  stroke-width: 0.591613;
}
.l19{
  fill: #d2d46b; fill-opacity: 0.2;
  stroke: #d2d46b;
  stroke-linecap:round;
  stroke-linejoin:round;
  stroke-width: 0.591613;
}
.l20{
  fill: #ef6158; fill-opacity: 0.2;
  stroke: #ef6158;
  stroke-linecap:round;
  stroke-linejoin:round;
  stroke-width: 0.591613;
}
.l21{
  fill: #fdb200; fill-opacity: 0.2;
  stroke: #fdb200;
  stroke-linecap:round;
  stroke-linejoin:round;
  stroke-width: 0.591613;
}
text {font-family: Sans-Serif;}
</style>
<rect class="l0" x="0" y="0" width="900" height="506"/>
<text fill="#222222"  xml:space="preserve" font-size="11.394" transform="translate(230.884, 17.9358)" >1.45 &lt; 1.5(nom) &lt; 1.55V</text>
<text fill="#222222"  xml:space="preserve" font-size="11.394" transform="translate(510.257, 423.301)" >4uA</text>
<text fill="#222222"  xml:space="preserve" font-size="11.394" transform="translate(285.663, 198.707)" >0.7 &lt; 0.8(nom) &lt; 0.9V</text>
<text fill="#0044ee"  xml:space="preserve" font-size="9.40008" transform="translate(169.135, 257.838)" >ibias_20u</text>
<text fill="#0044ee"  xml:space="preserve" font-size="9.40008" transform="translate(196.536, 27.4234)" >vdd</text>
<text fill="#0044ee"  xml:space="preserve" font-size="9.40008" transform="translate(198.536, 410.877)" >vss</text>
<text fill="#0044ee"  xml:space="preserve" font-size="9.40008" transform="translate(194.135, 175.669)" >vinp</text>
<text fill="#0044ee"  xml:space="preserve" font-size="9.40008" transform="translate(194.135, 224.97)" >vinn</text>
<text fill="#0044ee"  xml:space="preserve" font-size="9.40008" transform="translate(685.55, 148.28)" >vout</text>
<text fill="#0044ee"  xml:space="preserve" font-size="9.40008" transform="translate(186.135, 383.829)" >d_ena</text>
<text fill="#0044ee"  xml:space="preserve" font-size="7.69097" transform="translate(298.639, 350.175)" >ena_n</text>
<text fill="#0044ee"  xml:space="preserve" font-size="7.69097" transform="translate(438.064, 339.219)" >gate_n</text>
<text fill="#0044ee"  xml:space="preserve" font-size="7.69097" transform="translate(514.755, 103.669)" >gate_p</text>
<text fill="#0044ee"  xml:space="preserve" font-size="7.69097" transform="translate(507.843, 251.573)" >tail</text>
<text fill="#222222"  xml:space="preserve" font-size="11.394" transform="translate(343.181, 491.774)" >         /foss/designs/xschem/ota-5t.sch</text>
<text fill="#222222"  xml:space="preserve" font-size="11.394" transform="translate(343.181, 475.341)" >Copyright 2024 Harald Pretl</text>
<text fill="#222222"  xml:space="preserve" font-size="11.394" transform="translate(651.196, 475.341)" >2024-08-25  16:10:36</text>
<text fill="#222222"  xml:space="preserve" font-size="28.4851" transform="translate(217.189, 490.859)" >SCHEM</text>
<text fill="#222222"  xml:space="preserve" font-size="5.69702" transform="translate(503.996, 356.814)" >M5</text>
<text fill="#ff0000"  xml:space="preserve" font-size="4.27276" transform="translate(522.582, 331.134)" >D</text>
<text fill="#ff0000"  xml:space="preserve" font-size="4.27276" transform="translate(522.582, 355.208)" >S</text>
<text fill="#ff0000"  xml:space="preserve" font-size="4.27276" transform="translate(521.213, 346.199)" >B</text>
<text fill="#ff0000"  xml:space="preserve" font-size="4.27276" transform="translate(501.779, 346.199)" >G</text>
<text fill="#222222"  xml:space="preserve" font-size="5.69702" transform="translate(526.691, 329.796)" >sg13_lv_nmos</text>
<text fill="#666600"  xml:space="preserve" font-size="5.69702" transform="translate(527.375, 354.76)" >m=1</text>
<text fill="#666600"  xml:space="preserve" font-size="5.69702" transform="translate(527.375, 350.651)" >ng=1</text>
<text fill="#666600"  xml:space="preserve" font-size="5.69702" transform="translate(527.375, 345.174)" >l=5u</text>
<text fill="#666600"  xml:space="preserve" font-size="5.69702" transform="translate(527.375, 339.696)" >w=0.5u</text>
<text fill="#222222"  xml:space="preserve" font-size="5.69702" transform="translate(558.775, 94.9314)" >M4</text>
<text fill="#ff0000"  xml:space="preserve" font-size="4.27276" transform="translate(577.361, 119.658)" >D</text>
<text fill="#ff0000"  xml:space="preserve" font-size="4.27276" transform="translate(577.361, 95.5847)" >S</text>
<text fill="#ff0000"  xml:space="preserve" font-size="4.27276" transform="translate(575.992, 104.594)" >B</text>
<text fill="#ff0000"  xml:space="preserve" font-size="4.27276" transform="translate(556.558, 104.594)" >G</text>
<text fill="#222222"  xml:space="preserve" font-size="5.69702" transform="translate(581.47, 121.949)" >sg13_lv_pmos</text>
<text fill="#666600"  xml:space="preserve" font-size="5.69702" transform="translate(582.154, 96.9856)" >m=1</text>
<text fill="#666600"  xml:space="preserve" font-size="5.69702" transform="translate(582.154, 101.094)" >ng=1</text>
<text fill="#666600"  xml:space="preserve" font-size="5.69702" transform="translate(582.154, 106.572)" >l=5u</text>
<text fill="#666600"  xml:space="preserve" font-size="5.69702" transform="translate(582.154, 112.05)" >w=1.5u</text>
<text fill="#222222"  xml:space="preserve" font-size="5.69702" transform="translate(460.173, 186.999)" >M1</text>
<text fill="#ff0000"  xml:space="preserve" font-size="4.27276" transform="translate(478.759, 161.32)" >D</text>
<text fill="#ff0000"  xml:space="preserve" font-size="4.27276" transform="translate(478.759, 185.393)" >S</text>
<text fill="#ff0000"  xml:space="preserve" font-size="4.27276" transform="translate(477.39, 176.384)" >B</text>
<text fill="#ff0000"  xml:space="preserve" font-size="4.27276" transform="translate(457.956, 176.384)" >G</text>
<text fill="#222222"  xml:space="preserve" font-size="5.69702" transform="translate(482.867, 159.982)" >sg13_lv_nmos</text>
<text fill="#666600"  xml:space="preserve" font-size="5.69702" transform="translate(483.552, 184.945)" >m=1</text>
<text fill="#666600"  xml:space="preserve" font-size="5.69702" transform="translate(483.552, 180.837)" >ng=1</text>
<text fill="#666600"  xml:space="preserve" font-size="5.69702" transform="translate(483.552, 175.359)" >l=5u</text>
<text fill="#666600"  xml:space="preserve" font-size="5.69702" transform="translate(483.552, 169.881)" >w=2u</text>
<text fill="#222222"  xml:space="preserve" font-size="5.69702" transform="translate(584.209, 186.999)" >M2</text>
<text fill="#ff0000"  xml:space="preserve" font-size="4.27276" transform="translate(570.622, 161.32)" >D</text>
<text fill="#ff0000"  xml:space="preserve" font-size="4.27276" transform="translate(571.622, 185.393)" >S</text>
<text fill="#ff0000"  xml:space="preserve" font-size="4.27276" transform="translate(572.992, 176.384)" >B</text>
<text fill="#ff0000"  xml:space="preserve" font-size="4.27276" transform="translate(592.425, 176.384)" >G</text>
<text fill="#222222"  xml:space="preserve" font-size="5.69702" transform="translate(528.514, 159.982)" >sg13_lv_nmos</text>
<text fill="#666600"  xml:space="preserve" font-size="5.69702" transform="translate(554.829, 184.945)" >m=1</text>
<text fill="#666600"  xml:space="preserve" font-size="5.69702" transform="translate(552.829, 180.837)" >ng=1</text>
<text fill="#666600"  xml:space="preserve" font-size="5.69702" transform="translate(554.829, 175.359)" >l=5u</text>
<text fill="#666600"  xml:space="preserve" font-size="5.69702" transform="translate(551.829, 169.881)" >w=2u</text>
<text fill="#222222"  xml:space="preserve" font-size="5.69702" transform="translate(485.606, 94.9314)" >M3</text>
<text fill="#ff0000"  xml:space="preserve" font-size="4.27276" transform="translate(472.02, 119.658)" >D</text>
<text fill="#ff0000"  xml:space="preserve" font-size="4.27276" transform="translate(473.02, 95.5847)" >S</text>
<text fill="#ff0000"  xml:space="preserve" font-size="4.27276" transform="translate(474.39, 104.594)" >B</text>
<text fill="#ff0000"  xml:space="preserve" font-size="4.27276" transform="translate(493.823, 104.594)" >G</text>
<text fill="#222222"  xml:space="preserve" font-size="5.69702" transform="translate(429.912, 121.949)" >sg13_lv_pmos</text>
<text fill="#666600"  xml:space="preserve" font-size="5.69702" transform="translate(456.227, 96.9856)" >m=1</text>
<text fill="#666600"  xml:space="preserve" font-size="5.69702" transform="translate(454.227, 101.094)" >ng=1</text>
<text fill="#666600"  xml:space="preserve" font-size="5.69702" transform="translate(456.227, 106.572)" >l=5u</text>
<text fill="#666600"  xml:space="preserve" font-size="5.69702" transform="translate(447.227, 112.05)" >w=1.5u</text>
<text fill="#222222"  xml:space="preserve" font-size="5.69702" transform="translate(387.004, 356.814)" >M6</text>
<text fill="#ff0000"  xml:space="preserve" font-size="4.27276" transform="translate(373.418, 331.134)" >D</text>
<text fill="#ff0000"  xml:space="preserve" font-size="4.27276" transform="translate(374.418, 355.208)" >S</text>
<text fill="#ff0000"  xml:space="preserve" font-size="4.27276" transform="translate(375.787, 346.199)" >B</text>
<text fill="#ff0000"  xml:space="preserve" font-size="4.27276" transform="translate(395.221, 346.199)" >G</text>
<text fill="#222222"  xml:space="preserve" font-size="5.69702" transform="translate(331.309, 329.796)" >sg13_lv_nmos</text>
<text fill="#666600"  xml:space="preserve" font-size="5.69702" transform="translate(357.625, 354.76)" >m=1</text>
<text fill="#666600"  xml:space="preserve" font-size="5.69702" transform="translate(355.625, 350.651)" >ng=5</text>
<text fill="#666600"  xml:space="preserve" font-size="5.69702" transform="translate(357.625, 345.174)" >l=5u</text>
<text fill="#666600"  xml:space="preserve" font-size="5.69702" transform="translate(348.625, 339.696)" >w=2.5u</text>
<text fill="#222222"  xml:space="preserve" font-size="5.69702" transform="translate(427.305, 395.159)" >M9</text>
<text fill="#ff0000"  xml:space="preserve" font-size="4.27276" transform="translate(445.892, 369.48)" >D</text>
<text fill="#ff0000"  xml:space="preserve" font-size="4.27276" transform="translate(445.892, 393.553)" >S</text>
<text fill="#ff0000"  xml:space="preserve" font-size="4.27276" transform="translate(444.522, 384.544)" >B</text>
<text fill="#ff0000"  xml:space="preserve" font-size="4.27276" transform="translate(425.088, 384.544)" >G</text>
<text fill="#222222"  xml:space="preserve" font-size="5.69702" transform="translate(450, 368.142)" >sg13_lv_nmos</text>
<text fill="#666600"  xml:space="preserve" font-size="5.69702" transform="translate(450.685, 393.105)" >m=1</text>
<text fill="#666600"  xml:space="preserve" font-size="5.69702" transform="translate(450.685, 388.997)" >ng=1</text>
<text fill="#666600"  xml:space="preserve" font-size="5.69702" transform="translate(450.685, 383.519)" >l=0.13u</text>
<text fill="#666600"  xml:space="preserve" font-size="5.69702" transform="translate(450.685, 378.041)" >w=0.5u</text>
<text fill="#222222"  xml:space="preserve" font-size="5.69702" transform="translate(489.04, 51.1082)" >M11</text>
<text fill="#ff0000"  xml:space="preserve" font-size="4.27276" transform="translate(511.626, 75.835)" >D</text>
<text fill="#ff0000"  xml:space="preserve" font-size="4.27276" transform="translate(511.626, 51.7615)" >S</text>
<text fill="#ff0000"  xml:space="preserve" font-size="4.27276" transform="translate(510.257, 60.7708)" >B</text>
<text fill="#ff0000"  xml:space="preserve" font-size="4.27276" transform="translate(490.823, 60.7708)" >G</text>
<text fill="#222222"  xml:space="preserve" font-size="5.69702" transform="translate(515.735, 78.1259)" >sg13_lv_pmos</text>
<text fill="#666600"  xml:space="preserve" font-size="5.69702" transform="translate(516.42, 53.1624)" >m=1</text>
<text fill="#666600"  xml:space="preserve" font-size="5.69702" transform="translate(516.42, 57.2708)" >ng=1</text>
<text fill="#666600"  xml:space="preserve" font-size="5.69702" transform="translate(516.42, 62.7487)" >l=0.13u</text>
<text fill="#666600"  xml:space="preserve" font-size="5.69702" transform="translate(516.42, 68.2266)" >w=1.5u</text>
<text fill="#222222"  xml:space="preserve" font-size="5.69702" transform="translate(252.012, 395.159)" >M7</text>
<text fill="#ff0000"  xml:space="preserve" font-size="4.27276" transform="translate(270.599, 369.48)" >D</text>
<text fill="#ff0000"  xml:space="preserve" font-size="4.27276" transform="translate(270.599, 393.553)" >S</text>
<text fill="#ff0000"  xml:space="preserve" font-size="4.27276" transform="translate(269.229, 384.544)" >B</text>
<text fill="#ff0000"  xml:space="preserve" font-size="4.27276" transform="translate(249.796, 384.544)" >G</text>
<text fill="#222222"  xml:space="preserve" font-size="5.69702" transform="translate(274.707, 368.142)" >sg13_lv_nmos</text>
<text fill="#666600"  xml:space="preserve" font-size="5.69702" transform="translate(275.392, 393.105)" >m=1</text>
<text fill="#666600"  xml:space="preserve" font-size="5.69702" transform="translate(275.392, 388.997)" >ng=1</text>
<text fill="#666600"  xml:space="preserve" font-size="5.69702" transform="translate(275.392, 383.519)" >l=0.13u</text>
<text fill="#666600"  xml:space="preserve" font-size="5.69702" transform="translate(275.392, 378.041)" >w=0.5u</text>
<text fill="#222222"  xml:space="preserve" font-size="5.69702" transform="translate(252.012, 51.1082)" >M8</text>
<text fill="#ff0000"  xml:space="preserve" font-size="4.27276" transform="translate(270.599, 75.835)" >D</text>
<text fill="#ff0000"  xml:space="preserve" font-size="4.27276" transform="translate(270.599, 51.7615)" >S</text>
<text fill="#ff0000"  xml:space="preserve" font-size="4.27276" transform="translate(269.229, 60.7708)" >B</text>
<text fill="#ff0000"  xml:space="preserve" font-size="4.27276" transform="translate(249.796, 60.7708)" >G</text>
<text fill="#222222"  xml:space="preserve" font-size="5.69702" transform="translate(274.707, 78.1259)" >sg13_lv_pmos</text>
<text fill="#666600"  xml:space="preserve" font-size="5.69702" transform="translate(275.392, 53.1624)" >m=1</text>
<text fill="#666600"  xml:space="preserve" font-size="5.69702" transform="translate(275.392, 57.2708)" >ng=1</text>
<text fill="#666600"  xml:space="preserve" font-size="5.69702" transform="translate(275.392, 62.7487)" >l=0.13u</text>
<text fill="#666600"  xml:space="preserve" font-size="5.69702" transform="translate(275.392, 68.2266)" >w=1.5u</text>
<text fill="#222222"  xml:space="preserve" font-size="5.69702" transform="translate(412.349, 296.557)" >M10</text>
<text fill="#ff0000"  xml:space="preserve" font-size="4.27276" transform="translate(434.936, 270.878)" >D</text>
<text fill="#ff0000"  xml:space="preserve" font-size="4.27276" transform="translate(434.936, 294.951)" >S</text>
<text fill="#ff0000"  xml:space="preserve" font-size="4.27276" transform="translate(433.566, 285.942)" >B</text>
<text fill="#ff0000"  xml:space="preserve" font-size="4.27276" transform="translate(414.133, 285.942)" >G</text>
<text fill="#222222"  xml:space="preserve" font-size="5.69702" transform="translate(439.044, 269.54)" >sg13_lv_nmos</text>
<text fill="#666600"  xml:space="preserve" font-size="5.69702" transform="translate(439.729, 294.503)" >m=1</text>
<text fill="#666600"  xml:space="preserve" font-size="5.69702" transform="translate(439.729, 290.395)" >ng=1</text>
<text fill="#666600"  xml:space="preserve" font-size="5.69702" transform="translate(439.729, 284.917)" >l=0.13u</text>
<text fill="#666600"  xml:space="preserve" font-size="5.69702" transform="translate(439.729, 279.439)" >w=0.5u</text>
<path class="l4" d="M514.365 329.417L514.365 354.067"/>
<path class="l4" d="M521.213 351.328L521.213 358.176"/>
<path class="l4" d="M521.213 325.308L521.213 332.156"/>
<path class="l4" d="M511.626 333.525L511.626 349.959"/>
<path class="l4" d="M514.365 332.156L521.213 332.156"/>
<path class="l4" d="M514.365 351.328L521.213 351.328"/>
<path class="l4" d="M499.301 341.742L511.353 341.742"/>
<path class="l4" d="M517.104 349.959L519.843 351.328L517.104 352.698L517.104 349.959"/>
<path class="l4" d="M569.144 93.867L569.144 118.518"/>
<path class="l4" d="M575.992 89.7585L575.992 96.6059"/>
<path class="l4" d="M575.992 115.779L575.992 122.626"/>
<path class="l4" d="M566.405 97.9754L566.405 114.409"/>
<path class="l4" d="M569.144 115.779L575.992 115.779"/>
<path class="l4" d="M569.144 96.6059L575.992 96.6059"/>
<path class="l4" d="M554.08 106.192L566.132 106.192"/>
<path class="l4" d="M571.883 95.2364L569.144 96.6059L571.883 97.9754L571.883 95.2364"/>
<path class="l4" d="M470.542 159.602L470.542 184.252"/>
<path class="l4" d="M477.39 181.513L477.39 188.361"/>
<path class="l4" d="M477.39 155.493L477.39 162.341"/>
<path class="l4" d="M467.803 163.71L467.803 180.144"/>
<path class="l4" d="M470.542 162.341L477.39 162.341"/>
<path class="l4" d="M470.542 181.513L477.39 181.513"/>
<path class="l4" d="M455.478 171.927L467.529 171.927"/>
<path class="l4" d="M473.281 180.144L476.02 181.513L473.281 182.883L473.281 180.144"/>
<path class="l4" d="M582.839 159.602L582.839 184.252"/>
<path class="l4" d="M575.992 181.513L575.992 188.361"/>
<path class="l4" d="M575.992 155.493L575.992 162.341"/>
<path class="l4" d="M585.578 163.71L585.578 180.144"/>
<path class="l4" d="M575.992 162.341L582.839 162.341"/>
<path class="l4" d="M575.992 181.513L582.839 181.513"/>
<path class="l4" d="M585.852 171.927L597.903 171.927"/>
<path class="l4" d="M580.1 180.144L577.361 181.513L580.1 182.883L580.1 180.144"/>
<path class="l4" d="M484.237 93.867L484.237 118.518"/>
<path class="l4" d="M477.39 89.7585L477.39 96.6059"/>
<path class="l4" d="M477.39 115.779L477.39 122.626"/>
<path class="l4" d="M486.976 97.9754L486.976 114.409"/>
<path class="l4" d="M477.39 115.779L484.237 115.779"/>
<path class="l4" d="M477.39 96.6059L484.237 96.6059"/>
<path class="l4" d="M487.25 106.192L499.301 106.192"/>
<path class="l4" d="M481.498 95.2364L484.237 96.6059L481.498 97.9754L481.498 95.2364"/>
<path class="l4" d="M385.635 329.417L385.635 354.067"/>
<path class="l4" d="M378.787 351.328L378.787 358.176"/>
<path class="l4" d="M378.787 325.308L378.787 332.156"/>
<path class="l4" d="M388.374 333.525L388.374 349.959"/>
<path class="l4" d="M378.787 332.156L385.635 332.156"/>
<path class="l4" d="M378.787 351.328L385.635 351.328"/>
<path class="l4" d="M388.648 341.742L400.699 341.742"/>
<path class="l4" d="M382.896 349.959L380.157 351.328L382.896 352.698L382.896 349.959"/>
<path class="l4" d="M437.675 367.762L437.675 392.413"/>
<path class="l4" d="M444.522 389.674L444.522 396.521"/>
<path class="l4" d="M444.522 363.654L444.522 370.501"/>
<path class="l4" d="M434.936 371.87L434.936 388.304"/>
<path class="l4" d="M437.675 370.501L444.522 370.501"/>
<path class="l4" d="M437.675 389.674L444.522 389.674"/>
<path class="l4" d="M422.61 380.087L434.662 380.087"/>
<path class="l4" d="M440.414 388.304L443.153 389.674L440.414 391.043L440.414 388.304"/>
<path class="l4" d="M503.41 50.0437L503.41 74.6943"/>
<path class="l4" d="M510.257 45.9353L510.257 52.7827"/>
<path class="l4" d="M510.257 71.9553L510.257 78.8027"/>
<path class="l4" d="M500.671 54.1522L500.671 70.5859"/>
<path class="l4" d="M503.41 71.9553L510.257 71.9553"/>
<path class="l4" d="M503.41 52.7827L510.257 52.7827"/>
<path class="l4" d="M488.345 62.369L500.397 62.369"/>
<path class="l4" d="M506.148 51.4132L503.41 52.7827L506.148 54.1522L506.148 51.4132"/>
<path class="l4" d="M262.382 367.762L262.382 392.413"/>
<path class="l4" d="M269.229 389.674L269.229 396.521"/>
<path class="l4" d="M269.229 363.654L269.229 370.501"/>
<path class="l4" d="M259.643 371.87L259.643 388.304"/>
<path class="l4" d="M262.382 370.501L269.229 370.501"/>
<path class="l4" d="M262.382 389.674L269.229 389.674"/>
<path class="l4" d="M247.318 380.087L259.369 380.087"/>
<path class="l4" d="M265.121 388.304L267.86 389.674L265.121 391.043L265.121 388.304"/>
<path class="l4" d="M262.382 50.0437L262.382 74.6943"/>
<path class="l4" d="M269.229 45.9353L269.229 52.7827"/>
<path class="l4" d="M269.229 71.9553L269.229 78.8027"/>
<path class="l4" d="M259.643 54.1522L259.643 70.5859"/>
<path class="l4" d="M262.382 71.9553L269.229 71.9553"/>
<path class="l4" d="M262.382 52.7827L269.229 52.7827"/>
<path class="l4" d="M247.318 62.369L259.369 62.369"/>
<path class="l4" d="M265.121 51.4132L262.382 52.7827L265.121 54.1522L265.121 51.4132"/>
<path class="l4" d="M426.719 269.16L426.719 293.81"/>
<path class="l4" d="M433.566 291.071L433.566 297.919"/>
<path class="l4" d="M433.566 265.051L433.566 271.899"/>
<path class="l4" d="M423.98 273.268L423.98 289.702"/>
<path class="l4" d="M426.719 271.899L433.566 271.899"/>
<path class="l4" d="M426.719 291.071L433.566 291.071"/>
<path class="l4" d="M411.655 281.485L423.706 281.485"/>
<path class="l4" d="M429.458 289.702L432.197 291.071L429.458 292.441L429.458 289.702"/>
<path class="l5" d="M208.972 470.473L208.801 470.644L208.63 470.815L208.459 470.986L208.288 471.157L208.116 471.329L207.945 471.5L207.774 471.671L207.603 471.842L207.432 472.013L207.26 472.185L207.089 472.356L206.918 472.527L206.747 472.698L206.576 472.869L206.405 473.04L206.233 473.212L206.062 473.383L205.891 473.554L205.72 473.725L205.549 473.896L205.377 474.068L205.206 474.239L205.035 474.41L204.864 474.581L204.693 474.752L204.522 474.923L204.35 475.095L204.179 475.266L204.008 475.437L203.837 475.608L203.666 475.779L203.494 475.951L203.494 475.951L203.329 476.122L203.173 476.293L203.029 476.464L202.895 476.635L202.772 476.807L202.66 476.978L202.558 477.149L202.467 477.32L202.387 477.491L202.318 477.662L202.259 477.834L202.211 478.005L202.173 478.176L202.146 478.347L202.13 478.518L202.125 478.69L202.13 478.861L202.146 479.032L202.173 479.203L202.211 479.374L202.259 479.545L202.318 479.717L202.387 479.888L202.467 480.059L202.558 480.23L202.66 480.401L202.772 480.573L202.895 480.744L203.029 480.915L203.173 481.086L203.329 481.257L203.494 481.429L203.494 481.429L203.666 481.6L203.839 481.774L204.014 481.948L204.19 482.124L204.367 482.301L204.546 482.48L204.725 482.66L204.907 482.841L205.089 483.023L205.273 483.207L205.458 483.392L205.645 483.579L205.833 483.767L206.022 483.956L206.213 484.147L206.405 484.339L206.598 484.532L206.792 484.726L206.988 484.922L207.186 485.12L207.384 485.318L207.584 485.518L207.785 485.719L207.988 485.922L208.192 486.126L208.397 486.331L208.604 486.538L208.812 486.746L209.021 486.955L209.232 487.166L209.444 487.378L209.657 487.591L209.657 487.591L209.87 487.804L210.08 488.014L210.287 488.221L210.492 488.426L210.694 488.628L210.893 488.827L211.089 489.023L211.283 489.217L211.475 489.409L211.663 489.597L211.849 489.783L212.032 489.966L212.213 490.147L212.391 490.325L212.566 490.5L212.738 490.672L212.908 490.842L213.075 491.009L213.24 491.174L213.402 491.336L213.561 491.495L213.717 491.651L213.871 491.805L214.022 491.956L214.171 492.105L214.316 492.251L214.46 492.394L214.6 492.534L214.738 492.672L214.873 492.807L215.005 492.939L215.135 493.069L215.135 493.069L215.259 493.195L215.376 493.318L215.484 493.436L215.584 493.551L215.677 493.661L215.761 493.767L215.837 493.869L215.905 493.968L215.965 494.062L216.018 494.152L216.062 494.239L216.098 494.321L216.126 494.399L216.146 494.473L216.158 494.544L216.162 494.61L216.158 494.672L216.146 494.73L216.126 494.784L216.098 494.834L216.062 494.881L216.018 494.923L215.965 494.961L215.905 494.995L215.837 495.025L215.761 495.051L215.677 495.073L215.584 495.091L215.484 495.105L215.376 495.115L215.259 495.121L215.135 495.123L215.135 495.123L215.007 495.123L214.878 495.123L214.75 495.123L214.621 495.123L214.493 495.123L214.365 495.123L214.236 495.123L214.108 495.123L213.979 495.123L213.851 495.123L213.723 495.123L213.594 495.123L213.466 495.123L213.338 495.123L213.209 495.123L213.081 495.123L212.952 495.123L212.824 495.123L212.696 495.123L212.567 495.123L212.439 495.123L212.31 495.123L212.182 495.123L212.054 495.123L211.925 495.123L211.797 495.123L211.668 495.123L211.54 495.123L211.412 495.123L211.283 495.123L211.155 495.123L211.027 495.123L211.027 495.123L210.899 495.123L210.772 495.123L210.647 495.123L210.524 495.123L210.401 495.123L210.28 495.123L210.161 495.123L210.042 495.123L209.925 495.123L209.81 495.123L209.695 495.123L209.582 495.123L209.47 495.123L209.36 495.123L209.251 495.123L209.144 495.123L209.037 495.123L208.932 495.123L208.829 495.123L208.726 495.123L208.625 495.123L208.526 495.123L208.427 495.123L208.33 495.123L208.235 495.123L208.14 495.123L208.048 495.123L207.956 495.123L207.866 495.123L207.777 495.123L207.689 495.123L207.603 495.123L207.603 495.123L207.517 495.122L207.432 495.118L207.346 495.111L207.26 495.102L207.175 495.09L207.089 495.075L207.004 495.058L206.918 495.038L206.833 495.015L206.747 494.99L206.661 494.961L206.576 494.931L206.49 494.897L206.405 494.861L206.319 494.822L206.233 494.781L206.148 494.737L206.062 494.69L205.977 494.64L205.891 494.588L205.805 494.533L205.72 494.476L205.634 494.416L205.549 494.353L205.463 494.287L205.377 494.219L205.292 494.148L205.206 494.075L205.121 493.999L205.035 493.92L204.949 493.838L204.864 493.754L204.864 493.754L204.778 493.668L204.693 493.583L204.607 493.497L204.522 493.411L204.436 493.326L204.35 493.24L204.265 493.155L204.179 493.069L204.094 492.983L204.008 492.898L203.922 492.812L203.837 492.727L203.751 492.641L203.666 492.555L203.58 492.47L203.494 492.384L203.409 492.299L203.323 492.213L203.238 492.128L203.152 492.042L203.066 491.956L202.981 491.871L202.895 491.785L202.81 491.7L202.724 491.614L202.638 491.528L202.553 491.443L202.467 491.357L202.382 491.272L202.296 491.186L202.211 491.1L202.125 491.015L202.125 491.015L202.038 490.928L201.948 490.838L201.856 490.746L201.761 490.651L201.664 490.553L201.563 490.453L201.46 490.35L201.355 490.245L201.246 490.136L201.135 490.025L201.022 489.911L200.905 489.795L200.786 489.676L200.665 489.554L200.54 489.43L200.413 489.303L200.283 489.173L200.151 489.041L200.016 488.906L199.878 488.768L199.738 488.628L199.595 488.485L199.449 488.339L199.3 488.19L199.149 488.039L198.995 487.885L198.839 487.729L198.68 487.57L198.518 487.408L198.354 487.243L198.186 487.076L198.017 486.906L198.017 486.906L197.845 486.741L197.674 486.585L197.503 486.441L197.332 486.307L197.161 486.184L196.989 486.072L196.818 485.97L196.647 485.879L196.476 485.799L196.305 485.73L196.133 485.671L195.962 485.623L195.791 485.585L195.62 485.558L195.449 485.542L195.278 485.537L195.106 485.542L194.935 485.558L194.764 485.585L194.593 485.623L194.422 485.671L194.25 485.73L194.079 485.799L193.908 485.879L193.737 485.97L193.566 486.072L193.395 486.184L193.223 486.307L193.052 486.441L192.881 486.585L192.71 486.741L192.539 486.906L192.539 486.906L192.369 487.076L192.202 487.243L192.037 487.408L191.875 487.57L191.716 487.729L191.56 487.885L191.406 488.039L191.255 488.19L191.106 488.339L190.961 488.485L190.817 488.628L190.677 488.768L190.539 488.906L190.404 489.041L190.272 489.173L190.142 489.303L190.015 489.43L189.891 489.554L189.769 489.676L189.65 489.795L189.534 489.911L189.42 490.025L189.309 490.136L189.201 490.245L189.095 490.35L188.992 490.453L188.892 490.553L188.794 490.651L188.699 490.746L188.607 490.838L188.517 490.928L188.43 491.015L188.43 491.015L188.345 491.1L188.259 491.186L188.173 491.272L188.088 491.357L188.002 491.443L187.917 491.528L187.831 491.614L187.745 491.7L187.66 491.785L187.574 491.871L187.489 491.956L187.403 492.042L187.317 492.128L187.232 492.213L187.146 492.299L187.061 492.384L186.975 492.47L186.89 492.555L186.804 492.641L186.718 492.727L186.633 492.812L186.547 492.898L186.462 492.983L186.376 493.069L186.29 493.155L186.205 493.24L186.119 493.326L186.034 493.411L185.948 493.497L185.862 493.583L185.777 493.668L185.691 493.754L185.691 493.754L185.606 493.838L185.52 493.92L185.434 493.999L185.349 494.075L185.263 494.148L185.178 494.219L185.092 494.287L185.007 494.353L184.921 494.416L184.835 494.476L184.75 494.533L184.664 494.588L184.579 494.64L184.493 494.69L184.407 494.737L184.322 494.781L184.236 494.822L184.151 494.861L184.065 494.897L183.979 494.931L183.894 494.961L183.808 494.99L183.723 495.015L183.637 495.038L183.551 495.058L183.466 495.075L183.38 495.09L183.295 495.102L183.209 495.111L183.123 495.118L183.038 495.122L182.952 495.123L182.952 495.123L182.866 495.123L182.778 495.123L182.689 495.123L182.599 495.123L182.508 495.123L182.415 495.123L182.32 495.123L182.225 495.123L182.128 495.123L182.029 495.123L181.93 495.123L181.829 495.123L181.727 495.123L181.623 495.123L181.518 495.123L181.412 495.123L181.304 495.123L181.195 495.123L181.085 495.123L180.973 495.123L180.86 495.123L180.746 495.123L180.63 495.123L180.513 495.123L180.395 495.123L180.275 495.123L180.154 495.123L180.031 495.123L179.908 495.123L179.783 495.123L179.656 495.123L179.529 495.123L179.529 495.123L179.4 495.123L179.272 495.123L179.143 495.123L179.015 495.123L178.887 495.123L178.758 495.123L178.63 495.123L178.501 495.123L178.373 495.123L178.245 495.123L178.116 495.123L177.988 495.123L177.86 495.123L177.731 495.123L177.603 495.123L177.474 495.123L177.346 495.123L177.218 495.123L177.089 495.123L176.961 495.123L176.832 495.123L176.704 495.123L176.576 495.123L176.447 495.123L176.319 495.123L176.191 495.123L176.062 495.123L175.934 495.123L175.805 495.123L175.677 495.123L175.549 495.123L175.42 495.123L175.42 495.123L175.296 495.121L175.179 495.115L175.071 495.105L174.971 495.091L174.879 495.073L174.794 495.051L174.718 495.025L174.65 494.995L174.59 494.961L174.538 494.923L174.493 494.881L174.457 494.834L174.429 494.784L174.409 494.73L174.397 494.672L174.393 494.61L174.397 494.544L174.409 494.473L174.429 494.399L174.457 494.321L174.493 494.239L174.538 494.152L174.59 494.062L174.65 493.968L174.718 493.869L174.794 493.767L174.879 493.661L174.971 493.551L175.071 493.436L175.179 493.318L175.296 493.195L175.42 493.069L175.42 493.069L175.55 492.939L175.682 492.807L175.817 492.672L175.955 492.534L176.096 492.394L176.239 492.251L176.384 492.105L176.533 491.956L176.684 491.805L176.838 491.651L176.994 491.495L177.153 491.336L177.315 491.174L177.48 491.009L177.647 490.842L177.817 490.672L177.989 490.5L178.164 490.325L178.342 490.147L178.523 489.966L178.706 489.783L178.892 489.597L179.081 489.409L179.272 489.217L179.466 489.023L179.662 488.827L179.862 488.628L180.064 488.426L180.268 488.221L180.475 488.014L180.685 487.804L180.898 487.591L180.898 487.591L181.111 487.378L181.323 487.166L181.534 486.955L181.743 486.746L181.951 486.538L182.158 486.331L182.363 486.126L182.567 485.922L182.77 485.719L182.971 485.518L183.171 485.318L183.37 485.12L183.567 484.922L183.763 484.726L183.957 484.532L184.151 484.339L184.342 484.147L184.533 483.956L184.722 483.767L184.91 483.579L185.097 483.392L185.282 483.207L185.466 483.023L185.648 482.841L185.83 482.66L186.01 482.48L186.188 482.301L186.365 482.124L186.541 481.948L186.716 481.774L186.889 481.6L187.061 481.429L187.061 481.429L187.227 481.257L187.382 481.086L187.526 480.915L187.66 480.744L187.783 480.573L187.895 480.401L187.997 480.23L188.088 480.059L188.168 479.888L188.238 479.717L188.296 479.545L188.345 479.374L188.382 479.203L188.409 479.032L188.425 478.861L188.43 478.69L188.425 478.518L188.409 478.347L188.382 478.176L188.345 478.005L188.296 477.834L188.238 477.662L188.168 477.491L188.088 477.32L187.997 477.149L187.895 476.978L187.783 476.807L187.66 476.635L187.526 476.464L187.382 476.293L187.227 476.122L187.061 475.951L187.061 475.951L186.889 475.779L186.716 475.606L186.541 475.431L186.365 475.255L186.188 475.078L186.01 474.899L185.83 474.72L185.648 474.538L185.466 474.356L185.282 474.172L185.097 473.987L184.91 473.8L184.722 473.612L184.533 473.423L184.342 473.232L184.151 473.04L183.957 472.847L183.763 472.653L183.567 472.457L183.37 472.259L183.171 472.061L182.971 471.861L182.77 471.66L182.567 471.457L182.363 471.253L182.158 471.048L181.951 470.841L181.743 470.633L181.534 470.424L181.323 470.213L181.111 470.001L180.898 469.788L180.898 469.788L180.685 469.575L180.475 469.365L180.268 469.158L180.064 468.953L179.862 468.751L179.662 468.552L179.466 468.356L179.272 468.162L179.081 467.97L178.892 467.782L178.706 467.596L178.523 467.413L178.342 467.232L178.164 467.054L177.989 466.879L177.817 466.707L177.647 466.537L177.48 466.37L177.315 466.205L177.153 466.043L176.994 465.884L176.838 465.728L176.684 465.574L176.533 465.423L176.384 465.274L176.239 465.129L176.096 464.985L175.955 464.845L175.817 464.707L175.682 464.572L175.55 464.44L175.42 464.31L175.42 464.31L175.296 464.184L175.179 464.061L175.071 463.943L174.971 463.829L174.879 463.718L174.794 463.612L174.718 463.51L174.65 463.411L174.59 463.317L174.538 463.227L174.493 463.141L174.457 463.058L174.429 462.98L174.409 462.906L174.397 462.836L174.393 462.769L174.397 462.707L174.409 462.649L174.429 462.595L174.457 462.545L174.493 462.499L174.538 462.456L174.59 462.418L174.65 462.384L174.718 462.354L174.794 462.328L174.879 462.306L174.971 462.288L175.071 462.274L175.179 462.264L175.296 462.258L175.42 462.256L175.42 462.256L175.549 462.256L175.677 462.256L175.805 462.256L175.934 462.256L176.062 462.256L176.191 462.256L176.319 462.256L176.447 462.256L176.576 462.256L176.704 462.256L176.832 462.256L176.961 462.256L177.089 462.256L177.218 462.256L177.346 462.256L177.474 462.256L177.603 462.256L177.731 462.256L177.86 462.256L177.988 462.256L178.116 462.256L178.245 462.256L178.373 462.256L178.501 462.256L178.63 462.256L178.758 462.256L178.887 462.256L179.015 462.256L179.143 462.256L179.272 462.256L179.4 462.256L179.529 462.256L179.529 462.256L179.656 462.256L179.783 462.256L179.908 462.256L180.031 462.256L180.154 462.256L180.275 462.256L180.395 462.256L180.513 462.256L180.63 462.256L180.746 462.256L180.86 462.256L180.973 462.256L181.085 462.256L181.195 462.256L181.304 462.256L181.412 462.256L181.518 462.256L181.623 462.256L181.727 462.256L181.829 462.256L181.93 462.256L182.029 462.256L182.128 462.256L182.225 462.256L182.32 462.256L182.415 462.256L182.508 462.256L182.599 462.256L182.689 462.256L182.778 462.256L182.866 462.256L182.952 462.256L182.952 462.256L183.038 462.257L183.123 462.261L183.209 462.268L183.295 462.277L183.38 462.289L183.466 462.304L183.551 462.321L183.637 462.341L183.723 462.364L183.808 462.39L183.894 462.418L183.979 462.448L184.065 462.482L184.151 462.518L184.236 462.557L184.322 462.598L184.407 462.642L184.493 462.689L184.579 462.739L184.664 462.791L184.75 462.846L184.835 462.903L184.921 462.963L185.007 463.026L185.092 463.092L185.178 463.16L185.263 463.231L185.349 463.304L185.434 463.381L185.52 463.459L185.606 463.541L185.691 463.625L185.691 463.625L185.777 463.711L185.862 463.797L185.948 463.882L186.034 463.968L186.119 464.053L186.205 464.139L186.29 464.224L186.376 464.31L186.462 464.396L186.547 464.481L186.633 464.567L186.718 464.652L186.804 464.738L186.89 464.824L186.975 464.909L187.061 464.995L187.146 465.08L187.232 465.166L187.317 465.252L187.403 465.337L187.489 465.423L187.574 465.508L187.66 465.594L187.745 465.68L187.831 465.765L187.917 465.851L188.002 465.936L188.088 466.022L188.173 466.107L188.259 466.193L188.345 466.279L188.43 466.364L188.43 466.364L188.517 466.451L188.607 466.541L188.699 466.633L188.794 466.728L188.892 466.826L188.992 466.926L189.095 467.029L189.201 467.135L189.309 467.243L189.42 467.354L189.534 467.468L189.65 467.584L189.769 467.703L189.891 467.825L190.015 467.949L190.142 468.076L190.272 468.206L190.404 468.338L190.539 468.473L190.677 468.611L190.817 468.751L190.961 468.895L191.106 469.04L191.255 469.189L191.406 469.34L191.56 469.494L191.716 469.65L191.875 469.809L192.037 469.971L192.202 470.136L192.369 470.303L192.539 470.473L192.539 470.473L192.71 470.639L192.881 470.794L193.052 470.938L193.223 471.072L193.395 471.195L193.566 471.307L193.737 471.409L193.908 471.5L194.079 471.58L194.25 471.65L194.422 471.708L194.593 471.757L194.764 471.794L194.935 471.821L195.106 471.837L195.278 471.842L195.449 471.837L195.62 471.821L195.791 471.794L195.962 471.757L196.133 471.708L196.305 471.65L196.476 471.58L196.647 471.5L196.818 471.409L196.989 471.307L197.161 471.195L197.332 471.072L197.503 470.938L197.674 470.794L197.845 470.639L198.017 470.473L198.017 470.473L198.186 470.303L198.354 470.136L198.518 469.971L198.68 469.809L198.839 469.65L198.995 469.494L199.149 469.34L199.3 469.189L199.449 469.04L199.595 468.895L199.738 468.751L199.878 468.611L200.016 468.473L200.151 468.338L200.283 468.206L200.413 468.076L200.54 467.949L200.665 467.825L200.786 467.703L200.905 467.584L201.022 467.468L201.135 467.354L201.246 467.243L201.355 467.135L201.46 467.029L201.563 466.926L201.664 466.826L201.761 466.728L201.856 466.633L201.948 466.541L202.038 466.451L202.125 466.364L202.125 466.364L202.211 466.279L202.296 466.193L202.382 466.107L202.467 466.022L202.553 465.936L202.638 465.851L202.724 465.765L202.81 465.68L202.895 465.594L202.981 465.508L203.066 465.423L203.152 465.337L203.238 465.252L203.323 465.166L203.409 465.08L203.494 464.995L203.58 464.909L203.666 464.824L203.751 464.738L203.837 464.652L203.922 464.567L204.008 464.481L204.094 464.396L204.179 464.31L204.265 464.224L204.35 464.139L204.436 464.053L204.522 463.968L204.607 463.882L204.693 463.797L204.778 463.711L204.864 463.625L204.864 463.625L204.949 463.541L205.035 463.459L205.121 463.381L205.206 463.304L205.292 463.231L205.377 463.16L205.463 463.092L205.549 463.026L205.634 462.963L205.72 462.903L205.805 462.846L205.891 462.791L205.977 462.739L206.062 462.689L206.148 462.642L206.233 462.598L206.319 462.557L206.405 462.518L206.49 462.482L206.576 462.448L206.661 462.418L206.747 462.39L206.833 462.364L206.918 462.341L207.004 462.321L207.089 462.304L207.175 462.289L207.26 462.277L207.346 462.268L207.432 462.261L207.517 462.257L207.603 462.256L207.603 462.256L207.689 462.256L207.777 462.256L207.866 462.256L207.956 462.256L208.048 462.256L208.14 462.256L208.235 462.256L208.33 462.256L208.427 462.256L208.526 462.256L208.625 462.256L208.726 462.256L208.829 462.256L208.932 462.256L209.037 462.256L209.144 462.256L209.251 462.256L209.36 462.256L209.47 462.256L209.582 462.256L209.695 462.256L209.81 462.256L209.925 462.256L210.042 462.256L210.161 462.256L210.28 462.256L210.401 462.256L210.524 462.256L210.647 462.256L210.772 462.256L210.899 462.256L211.027 462.256L211.027 462.256L211.155 462.256L211.283 462.256L211.412 462.256L211.54 462.256L211.668 462.256L211.797 462.256L211.925 462.256L212.054 462.256L212.182 462.256L212.31 462.256L212.439 462.256L212.567 462.256L212.696 462.256L212.824 462.256L212.952 462.256L213.081 462.256L213.209 462.256L213.338 462.256L213.466 462.256L213.594 462.256L213.723 462.256L213.851 462.256L213.979 462.256L214.108 462.256L214.236 462.256L214.365 462.256L214.493 462.256L214.621 462.256L214.75 462.256L214.878 462.256L215.007 462.256L215.135 462.256L215.135 462.256L215.259 462.258L215.376 462.264L215.484 462.274L215.584 462.288L215.677 462.306L215.761 462.328L215.837 462.354L215.905 462.384L215.965 462.418L216.018 462.456L216.062 462.499L216.098 462.545L216.126 462.595L216.146 462.649L216.158 462.707L216.162 462.769L216.158 462.836L216.146 462.906L216.126 462.98L216.098 463.058L216.062 463.141L216.018 463.227L215.965 463.317L215.905 463.411L215.837 463.51L215.761 463.612L215.677 463.718L215.584 463.829L215.484 463.943L215.376 464.061L215.259 464.184L215.135 464.31L215.135 464.31L215.005 464.44L214.87 464.575L214.732 464.713L214.589 464.856L214.443 465.002L214.292 465.153L214.138 465.307L213.979 465.466L213.817 465.628L213.65 465.795L213.48 465.965L213.305 466.14L213.127 466.318L212.944 466.501L212.758 466.687L212.567 466.878L212.373 467.072L212.174 467.271L211.971 467.474L211.765 467.68L211.554 467.891L211.339 468.106L211.121 468.324L210.898 468.547L210.671 468.774L210.441 469.004L210.206 469.239L209.967 469.478L209.725 469.72L209.478 469.967L209.227 470.218L208.972 470.473"/>
<path class="l5" d="M518.474 343.111L521.213 341.742L518.474 340.373L518.474 343.111"/>
<path class="l5" d="M519.843 323.939L522.582 323.939L522.582 326.678L519.843 326.678L519.843 323.939z"/>
<path class="l5" d="M497.932 340.373L500.671 340.373L500.671 343.111L497.932 343.111L497.932 340.373z"/>
<path class="l5" d="M519.843 356.806L522.582 356.806L522.582 359.545L519.843 359.545L519.843 356.806z"/>
<path class="l5" d="M521.17 341.699L521.256 341.699L521.256 341.785L521.17 341.785L521.17 341.699z"/>
<path class="l5" d="M573.253 104.823L575.992 106.192L573.253 107.562L573.253 104.823"/>
<path class="l5" d="M574.622 121.256L577.361 121.256L577.361 123.995L574.622 123.995L574.622 121.256z"/>
<path class="l5" d="M552.711 104.823L555.45 104.823L555.45 107.562L552.711 107.562L552.711 104.823z"/>
<path class="l5" d="M574.622 88.3891L577.361 88.3891L577.361 91.128L574.622 91.128L574.622 88.3891z"/>
<path class="l5" d="M575.949 106.149L576.035 106.149L576.035 106.235L575.949 106.235L575.949 106.149z"/>
<path class="l5" d="M474.651 173.297L477.39 171.927L474.651 170.558L474.651 173.297"/>
<path class="l5" d="M476.02 154.124L478.759 154.124L478.759 156.863L476.02 156.863L476.02 154.124z"/>
<path class="l5" d="M454.108 170.558L456.847 170.558L456.847 173.297L454.108 173.297L454.108 170.558z"/>
<path class="l5" d="M476.02 186.991L478.759 186.991L478.759 189.73L476.02 189.73L476.02 186.991z"/>
<path class="l5" d="M477.347 171.884L477.432 171.884L477.432 171.97L477.347 171.97L477.347 171.884z"/>
<path class="l5" d="M578.731 173.297L575.992 171.927L578.731 170.558L578.731 173.297"/>
<path class="l5" d="M574.622 154.124L577.361 154.124L577.361 156.863L574.622 156.863L574.622 154.124z"/>
<path class="l5" d="M596.534 170.558L599.273 170.558L599.273 173.297L596.534 173.297L596.534 170.558z"/>
<path class="l5" d="M574.622 186.991L577.361 186.991L577.361 189.73L574.622 189.73L574.622 186.991z"/>
<path class="l5" d="M575.949 171.884L576.035 171.884L576.035 171.97L575.949 171.97L575.949 171.884z"/>
<path class="l5" d="M480.128 104.823L477.39 106.192L480.128 107.562L480.128 104.823"/>
<path class="l5" d="M476.02 121.256L478.759 121.256L478.759 123.995L476.02 123.995L476.02 121.256z"/>
<path class="l5" d="M497.932 104.823L500.671 104.823L500.671 107.562L497.932 107.562L497.932 104.823z"/>
<path class="l5" d="M476.02 88.3891L478.759 88.3891L478.759 91.128L476.02 91.128L476.02 88.3891z"/>
<path class="l5" d="M477.347 106.149L477.432 106.149L477.432 106.235L477.347 106.235L477.347 106.149z"/>
<path class="l5" d="M381.526 343.111L378.787 341.742L381.526 340.373L381.526 343.111"/>
<path class="l5" d="M377.418 323.939L380.157 323.939L380.157 326.678L377.418 326.678L377.418 323.939z"/>
<path class="l5" d="M399.329 340.373L402.068 340.373L402.068 343.111L399.329 343.111L399.329 340.373z"/>
<path class="l5" d="M377.418 356.806L380.157 356.806L380.157 359.545L377.418 359.545L377.418 356.806z"/>
<path class="l5" d="M378.744 341.699L378.83 341.699L378.83 341.785L378.744 341.785L378.744 341.699z"/>
<path class="l5" d="M441.783 381.457L444.522 380.087L441.783 378.718L441.783 381.457"/>
<path class="l5" d="M443.153 362.284L445.892 362.284L445.892 365.023L443.153 365.023L443.153 362.284z"/>
<path class="l5" d="M421.241 378.718L423.98 378.718L423.98 381.457L421.241 381.457L421.241 378.718z"/>
<path class="l5" d="M443.153 395.152L445.892 395.152L445.892 397.891L443.153 397.891L443.153 395.152z"/>
<path class="l5" d="M444.479 380.045L444.565 380.045L444.565 380.13L444.479 380.13L444.479 380.045z"/>
<path class="l5" d="M507.518 60.9995L510.257 62.369L507.518 63.7385L507.518 60.9995"/>
<path class="l5" d="M508.887 77.4332L511.626 77.4332L511.626 80.1722L508.887 80.1722L508.887 77.4332z"/>
<path class="l5" d="M486.976 60.9995L489.715 60.9995L489.715 63.7385L486.976 63.7385L486.976 60.9995z"/>
<path class="l5" d="M508.887 44.5658L511.626 44.5658L511.626 47.3048L508.887 47.3048L508.887 44.5658z"/>
<path class="l5" d="M510.214 62.3262L510.3 62.3262L510.3 62.4118L510.214 62.4118L510.214 62.3262z"/>
<path class="l5" d="M222.667 254.096L225.406 254.096"/>
<path class="l5" d="M222.667 254.096L220.613 251.357L215.82 251.357L217.874 254.096L215.82 256.835L220.613 256.835L222.667 254.096"/>
<path class="l5" d="M224.721 253.411L226.091 253.411L226.091 254.78L224.721 254.78L224.721 253.411z"/>
<path class="l5" d="M223.694 24.0237L225.406 24.0237"/>
<path class="l5" d="M217.874 26.7627L215.82 24.0237L217.874 21.2848L221.64 21.2848L223.694 24.0237L221.64 26.7627L217.874 26.7627"/>
<path class="l5" d="M224.721 23.339L226.091 23.339L226.091 24.7084L224.721 24.7084L224.721 23.339z"/>
<path class="l5" d="M223.694 407.477L225.406 407.477"/>
<path class="l5" d="M217.874 410.216L215.82 407.477L217.874 404.738L221.64 404.738L223.694 407.477L221.64 410.216L217.874 410.216"/>
<path class="l5" d="M224.721 406.792L226.091 406.792L226.091 408.162L224.721 408.162L224.721 406.792z"/>
<path class="l5" d="M222.667 171.927L225.406 171.927"/>
<path class="l5" d="M222.667 171.927L220.613 169.188L215.82 169.188L217.874 171.927L215.82 174.666L220.613 174.666L222.667 171.927"/>
<path class="l5" d="M224.721 171.242L226.091 171.242L226.091 172.612L224.721 172.612L224.721 171.242z"/>
<path class="l5" d="M222.667 221.228L225.406 221.228"/>
<path class="l5" d="M222.667 221.228L220.613 218.489L215.82 218.489L217.874 221.228L215.82 223.967L220.613 223.967L222.667 221.228"/>
<path class="l5" d="M224.721 220.543L226.091 220.543L226.091 221.913L224.721 221.913L224.721 220.543z"/>
<path class="l5" d="M674.594 144.538L679.387 144.538"/>
<path class="l5" d="M684.18 144.538L682.126 141.799L677.333 141.799L679.387 144.538L677.333 147.276L682.126 147.276L684.18 144.538"/>
<path class="l5" d="M673.909 143.853L675.279 143.853L675.279 145.222L673.909 145.222L673.909 143.853z"/>
<path class="l5" d="M266.49 381.457L269.229 380.087L266.49 378.718L266.49 381.457"/>
<path class="l5" d="M267.86 362.284L270.599 362.284L270.599 365.023L267.86 365.023L267.86 362.284z"/>
<path class="l5" d="M245.948 378.718L248.687 378.718L248.687 381.457L245.948 381.457L245.948 378.718z"/>
<path class="l5" d="M267.86 395.152L270.599 395.152L270.599 397.891L267.86 397.891L267.86 395.152z"/>
<path class="l5" d="M269.186 380.045L269.272 380.045L269.272 380.13L269.186 380.13L269.186 380.045z"/>
<path class="l5" d="M266.49 60.9995L269.229 62.369L266.49 63.7385L266.49 60.9995"/>
<path class="l5" d="M267.86 77.4332L270.599 77.4332L270.599 80.1722L267.86 80.1722L267.86 77.4332z"/>
<path class="l5" d="M245.948 60.9995L248.687 60.9995L248.687 63.7385L245.948 63.7385L245.948 60.9995z"/>
<path class="l5" d="M267.86 44.5658L270.599 44.5658L270.599 47.3048L267.86 47.3048L267.86 44.5658z"/>
<path class="l5" d="M269.186 62.3262L269.272 62.3262L269.272 62.4118L269.186 62.4118L269.186 62.3262z"/>
<path class="l5" d="M222.667 380.087L225.406 380.087"/>
<path class="l5" d="M222.667 380.087L220.613 377.348L215.82 377.348L217.874 380.087L215.82 382.826L220.613 382.826L222.667 380.087"/>
<path class="l5" d="M224.721 379.403L226.091 379.403L226.091 380.772L224.721 380.772L224.721 379.403z"/>
<path class="l5" d="M430.827 282.855L433.566 281.485L430.827 280.116L430.827 282.855"/>
<path class="l5" d="M432.197 263.682L434.936 263.682L434.936 266.421L432.197 266.421L432.197 263.682z"/>
<path class="l5" d="M410.285 280.116L413.024 280.116L413.024 282.855L410.285 282.855L410.285 280.116z"/>
<path class="l5" d="M432.197 296.549L434.936 296.549L434.936 299.288L432.197 299.288L432.197 296.549z"/>
<path class="l5" d="M433.523 281.442L433.609 281.442L433.609 281.528L433.523 281.528L433.523 281.442z"/>
<path class="l5" d="M323.324 352.013L324.693 352.013L324.693 353.383L323.324 353.383L323.324 352.013z"/>
<path class="l5" d="M465.749 341.057L467.118 341.057L467.118 342.427L465.749 342.427L465.749 341.057z"/>
<path class="l5" d="M542.44 105.507L543.809 105.507L543.809 106.877L542.44 106.877L542.44 105.507z"/>
<path class="l5" d="M520.528 253.411L521.897 253.411L521.897 254.78L520.528 254.78L520.528 253.411z"/>
<path class="l6" d="M337.703 478.69L773.196 478.69"/>
<path class="l6" d="M126.804 478.69L162.41 478.69"/>
<path class="l1" d="M521.213 106.192L554.08 106.192"/>
<path class="l1" d="M477.39 133.582L477.39 155.493"/>
<path class="l1" d="M477.39 133.582L521.213 133.582"/>
<path class="l1" d="M477.39 122.626L477.39 133.582"/>
<path class="l1" d="M521.213 106.192L521.213 133.582"/>
<path class="l1" d="M510.257 106.192L521.213 106.192"/>
<path class="l1" d="M575.992 144.538L575.992 155.493"/>
<path class="l1" d="M444.522 341.742L499.301 341.742"/>
<path class="l1" d="M444.522 341.742L444.522 363.654"/>
<path class="l1" d="M433.566 341.742L444.522 341.742"/>
<path class="l1" d="M378.787 358.176L378.787 407.477"/>
<path class="l1" d="M477.39 407.477L521.213 407.477"/>
<path class="l1" d="M521.213 358.176L521.213 407.477"/>
<path class="l1" d="M444.522 396.521L444.522 407.477"/>
<path class="l1" d="M378.787 407.477L444.522 407.477"/>
<path class="l1" d="M444.522 380.087L477.39 380.087"/>
<path class="l1" d="M477.39 380.087L477.39 407.477"/>
<path class="l1" d="M444.522 407.477L477.39 407.477"/>
<path class="l1" d="M521.213 341.742L554.08 341.742"/>
<path class="l1" d="M554.08 341.742L554.08 407.477"/>
<path class="l1" d="M521.213 407.477L554.08 407.477"/>
<path class="l1" d="M345.92 341.742L378.787 341.742"/>
<path class="l1" d="M345.92 341.742L345.92 407.477"/>
<path class="l1" d="M345.92 407.477L378.787 407.477"/>
<path class="l1" d="M477.39 24.0237L477.39 89.7585"/>
<path class="l1" d="M510.257 24.0237L510.257 45.9353"/>
<path class="l1" d="M477.39 24.0237L510.257 24.0237"/>
<path class="l1" d="M575.992 24.0237L575.992 89.7585"/>
<path class="l1" d="M510.257 62.369L543.124 62.369"/>
<path class="l1" d="M543.124 24.0237L543.124 62.369"/>
<path class="l1" d="M510.257 24.0237L543.124 24.0237"/>
<path class="l1" d="M575.992 106.192L608.859 106.192"/>
<path class="l1" d="M608.859 24.0237L608.859 106.192"/>
<path class="l1" d="M575.992 24.0237L608.859 24.0237"/>
<path class="l1" d="M543.124 24.0237L575.992 24.0237"/>
<path class="l1" d="M444.522 106.192L477.39 106.192"/>
<path class="l1" d="M444.522 24.0237L444.522 106.192"/>
<path class="l1" d="M444.522 24.0237L477.39 24.0237"/>
<path class="l1" d="M554.08 171.927L575.992 171.927"/>
<path class="l1" d="M575.992 144.538L674.594 144.538"/>
<path class="l1" d="M575.992 122.626L575.992 144.538"/>
<path class="l1" d="M477.39 188.361L477.39 210.272"/>
<path class="l1" d="M521.213 210.272L575.992 210.272"/>
<path class="l1" d="M575.992 188.361L575.992 210.272"/>
<path class="l1" d="M477.39 171.927L554.08 171.927"/>
<path class="l1" d="M477.39 210.272L521.213 210.272"/>
<path class="l1" d="M597.903 171.927L630.771 171.927"/>
<path class="l1" d="M302.097 24.0237L444.522 24.0237"/>
<path class="l1" d="M302.097 407.477L345.92 407.477"/>
<path class="l1" d="M225.406 171.927L455.478 171.927"/>
<path class="l1" d="M225.406 221.228L630.771 221.228"/>
<path class="l1" d="M269.229 24.0237L269.229 45.9353"/>
<path class="l1" d="M225.406 24.0237L269.229 24.0237"/>
<path class="l1" d="M269.229 352.698L269.229 363.654"/>
<path class="l1" d="M269.229 396.521L269.229 407.477"/>
<path class="l1" d="M225.406 407.477L269.229 407.477"/>
<path class="l1" d="M236.362 62.369L247.318 62.369"/>
<path class="l1" d="M236.362 380.087L247.318 380.087"/>
<path class="l1" d="M236.362 89.7585L389.743 89.7585"/>
<path class="l1" d="M236.362 62.369L236.362 89.7585"/>
<path class="l1" d="M389.743 62.369L389.743 89.7585"/>
<path class="l1" d="M389.743 62.369L488.345 62.369"/>
<path class="l1" d="M324.008 352.698L324.008 380.087"/>
<path class="l1" d="M225.406 380.087L236.362 380.087"/>
<path class="l1" d="M400.699 341.742L433.566 341.742"/>
<path class="l1" d="M630.771 171.927L630.771 221.228"/>
<path class="l1" d="M433.566 297.919L433.566 341.742"/>
<path class="l1" d="M269.229 78.8027L269.229 352.698"/>
<path class="l1" d="M554.08 171.927L554.08 341.742"/>
<path class="l1" d="M521.213 210.272L521.213 325.308"/>
<path class="l1" d="M236.362 281.485L236.362 380.087"/>
<path class="l1" d="M378.787 254.096L433.566 254.096"/>
<path class="l1" d="M378.787 254.096L378.787 325.308"/>
<path class="l1" d="M225.406 254.096L378.787 254.096"/>
<path class="l1" d="M236.362 281.485L411.655 281.485"/>
<path class="l1" d="M236.362 89.7585L236.362 281.485"/>
<path class="l1" d="M269.229 380.087L302.097 380.087"/>
<path class="l1" d="M302.097 380.087L302.097 407.477"/>
<path class="l1" d="M269.229 407.477L302.097 407.477"/>
<path class="l1" d="M433.566 254.096L433.566 265.051"/>
<path class="l1" d="M433.566 281.485L477.39 281.485"/>
<path class="l1" d="M477.39 281.485L477.39 380.087"/>
<path class="l1" d="M269.229 352.698L324.008 352.698"/>
<path class="l1" d="M324.008 380.087L422.61 380.087"/>
<path class="l1" d="M510.257 78.8027L510.257 106.192"/>
<path class="l1" d="M499.301 106.192L510.257 106.192"/>
<path class="l1" d="M269.229 62.369L302.097 62.369"/>
<path class="l1" d="M302.097 24.0237L302.097 62.369"/>
<path class="l1" d="M269.229 24.0237L302.097 24.0237"/>
<circle class="l1" cx="269.229" cy="24.0237" r="2.02682"/>
<circle class="l1" cx="302.097" cy="24.0237" r="2.02682"/>
<circle class="l1" cx="302.097" cy="24.0237" r="2.02682"/>
<circle class="l1" cx="269.229" cy="24.0237" r="2.02682"/>
<circle class="l1" cx="269.229" cy="24.0237" r="2.02682"/>
<circle class="l1" cx="302.097" cy="24.0237" r="2.02682"/>
<circle class="l1" cx="444.522" cy="24.0237" r="2.02682"/>
<circle class="l1" cx="236.362" cy="89.7585" r="2.02682"/>
<circle class="l1" cx="236.362" cy="281.485" r="2.02682"/>
<circle class="l1" cx="378.787" cy="254.096" r="2.02682"/>
<circle class="l1" cx="269.229" cy="352.698" r="2.02682"/>
<circle class="l1" cx="236.362" cy="89.7585" r="2.02682"/>
<circle class="l1" cx="236.362" cy="89.7585" r="2.02682"/>
<circle class="l1" cx="269.229" cy="352.698" r="2.02682"/>
<circle class="l1" cx="269.229" cy="407.477" r="2.02682"/>
<circle class="l1" cx="302.097" cy="407.477" r="2.02682"/>
<circle class="l1" cx="302.097" cy="407.477" r="2.02682"/>
<circle class="l1" cx="236.362" cy="281.485" r="2.02682"/>
<circle class="l1" cx="236.362" cy="281.485" r="2.02682"/>
<circle class="l1" cx="236.362" cy="380.087" r="2.02682"/>
<circle class="l1" cx="236.362" cy="380.087" r="2.02682"/>
<circle class="l1" cx="236.362" cy="380.087" r="2.02682"/>
<circle class="l1" cx="269.229" cy="407.477" r="2.02682"/>
<circle class="l1" cx="269.229" cy="407.477" r="2.02682"/>
<circle class="l1" cx="269.229" cy="352.698" r="2.02682"/>
<circle class="l1" cx="302.097" cy="407.477" r="2.02682"/>
<circle class="l1" cx="345.92" cy="407.477" r="2.02682"/>
<circle class="l1" cx="444.522" cy="24.0237" r="2.02682"/>
<circle class="l1" cx="477.39" cy="24.0237" r="2.02682"/>
<circle class="l1" cx="444.522" cy="24.0237" r="2.02682"/>
<circle class="l1" cx="543.124" cy="24.0237" r="2.02682"/>
<circle class="l1" cx="575.992" cy="24.0237" r="2.02682"/>
<circle class="l1" cx="510.257" cy="24.0237" r="2.02682"/>
<circle class="l1" cx="543.124" cy="24.0237" r="2.02682"/>
<circle class="l1" cx="543.124" cy="24.0237" r="2.02682"/>
<circle class="l1" cx="477.39" cy="24.0237" r="2.02682"/>
<circle class="l1" cx="510.257" cy="24.0237" r="2.02682"/>
<circle class="l1" cx="510.257" cy="24.0237" r="2.02682"/>
<circle class="l1" cx="477.39" cy="24.0237" r="2.02682"/>
<circle class="l1" cx="510.257" cy="106.192" r="2.02682"/>
<circle class="l1" cx="510.257" cy="106.192" r="2.02682"/>
<circle class="l1" cx="378.787" cy="254.096" r="2.02682"/>
<circle class="l1" cx="378.787" cy="254.096" r="2.02682"/>
<circle class="l1" cx="521.213" cy="210.272" r="2.02682"/>
<circle class="l1" cx="554.08" cy="171.927" r="2.02682"/>
<circle class="l1" cx="554.08" cy="341.742" r="2.02682"/>
<circle class="l1" cx="521.213" cy="210.272" r="2.02682"/>
<circle class="l1" cx="554.08" cy="171.927" r="2.02682"/>
<circle class="l1" cx="521.213" cy="210.272" r="2.02682"/>
<circle class="l1" cx="554.08" cy="171.927" r="2.02682"/>
<circle class="l1" cx="510.257" cy="106.192" r="2.02682"/>
<circle class="l1" cx="521.213" cy="106.192" r="2.02682"/>
<circle class="l1" cx="521.213" cy="106.192" r="2.02682"/>
<circle class="l1" cx="477.39" cy="133.582" r="2.02682"/>
<circle class="l1" cx="477.39" cy="133.582" r="2.02682"/>
<circle class="l1" cx="477.39" cy="133.582" r="2.02682"/>
<circle class="l1" cx="521.213" cy="106.192" r="2.02682"/>
<circle class="l1" cx="477.39" cy="380.087" r="2.02682"/>
<circle class="l1" cx="433.566" cy="341.742" r="2.02682"/>
<circle class="l1" cx="433.566" cy="341.742" r="2.02682"/>
<circle class="l1" cx="345.92" cy="407.477" r="2.02682"/>
<circle class="l1" cx="378.787" cy="407.477" r="2.02682"/>
<circle class="l1" cx="345.92" cy="407.477" r="2.02682"/>
<circle class="l1" cx="521.213" cy="407.477" r="2.02682"/>
<circle class="l1" cx="554.08" cy="341.742" r="2.02682"/>
<circle class="l1" cx="554.08" cy="341.742" r="2.02682"/>
<circle class="l1" cx="444.522" cy="407.477" r="2.02682"/>
<circle class="l1" cx="477.39" cy="407.477" r="2.02682"/>
<circle class="l1" cx="477.39" cy="380.087" r="2.02682"/>
<circle class="l1" cx="477.39" cy="407.477" r="2.02682"/>
<circle class="l1" cx="477.39" cy="380.087" r="2.02682"/>
<circle class="l1" cx="378.787" cy="407.477" r="2.02682"/>
<circle class="l1" cx="444.522" cy="407.477" r="2.02682"/>
<circle class="l1" cx="444.522" cy="407.477" r="2.02682"/>
<circle class="l1" cx="521.213" cy="407.477" r="2.02682"/>
<circle class="l1" cx="477.39" cy="407.477" r="2.02682"/>
<circle class="l1" cx="521.213" cy="407.477" r="2.02682"/>
<circle class="l1" cx="378.787" cy="407.477" r="2.02682"/>
<circle class="l1" cx="433.566" cy="341.742" r="2.02682"/>
<circle class="l1" cx="444.522" cy="341.742" r="2.02682"/>
<circle class="l1" cx="444.522" cy="341.742" r="2.02682"/>
<circle class="l1" cx="444.522" cy="341.742" r="2.02682"/>
<circle class="l1" cx="575.992" cy="24.0237" r="2.02682"/>
<circle class="l1" cx="575.992" cy="24.0237" r="2.02682"/>
<circle class="l1" cx="575.992" cy="144.538" r="2.02682"/>
<circle class="l1" cx="575.992" cy="144.538" r="2.02682"/>
<circle class="l1" cx="575.992" cy="144.538" r="2.02682"/>
</svg>
