<svg xmlns="http://www.w3.org/2000/svg" xmlns:xlink="http://www.w3.org/1999/xlink" width="1072" height="670" version="1.1">
<style type="text/css">
.l0{
  fill: #ffffff;
  stroke: #ffffff;
  stroke-linecap:round;
  stroke-linejoin:round;
  stroke-width: 0.964137;
}
.l1{
  fill: #0099cc;
  stroke: #0099cc;
  stroke-linecap:round;
  stroke-linejoin:round;
  stroke-width: 0.964137;
}
.l2{
  fill: #aaaaaa; fill-opacity: 0.2;
  stroke: #aaaaaa;
  stroke-linecap:round;
  stroke-linejoin:round;
  stroke-width: 0.964137;
}
.l3{
  fill: #222222; fill-opacity: 0.5;
  stroke: #222222;
  stroke-linecap:round;
  stroke-linejoin:round;
  stroke-width: 0.964137;
}
.l4{
  fill: #229900;
  stroke: #229900;
  stroke-linecap:round;
  stroke-linejoin:round;
  stroke-width: 0.964137;
}
.l5{
  fill: #bb2200;
  stroke: #bb2200;
  stroke-linecap:round;
  stroke-linejoin:round;
  stroke-width: 0.964137;
}
.l6{
  fill: #0066cc; fill-opacity: 0.5;
  stroke: #0066cc;
  stroke-linecap:round;
  stroke-linejoin:round;
  stroke-width: 0.964137;
}
.l7{
  fill: #ff0000; fill-opacity: 0.5;
  stroke: #ff0000;
  stroke-linecap:round;
  stroke-linejoin:round;
  stroke-width: 0.964137;
}
.l8{
  fill: #888800; fill-opacity: 0.5;
  stroke: #888800;
  stroke-linecap:round;
  stroke-linejoin:round;
  stroke-width: 0.964137;
}
.l9{
  fill: #00aaaa; fill-opacity: 0.5;
  stroke: #00aaaa;
  stroke-linecap:round;
  stroke-linejoin:round;
  stroke-width: 0.964137;
}
.l10{
  fill: #880088;
  stroke: #880088;
  stroke-linecap:round;
  stroke-linejoin:round;
  stroke-width: 0.964137;
}
.l11{
  fill: #00ff00; fill-opacity: 0.5;
  stroke: #00ff00;
  stroke-linecap:round;
  stroke-linejoin:round;
  stroke-width: 0.964137;
}
.l12{
  fill: #0000cc; fill-opacity: 0.5;
  stroke: #0000cc;
  stroke-linecap:round;
  stroke-linejoin:round;
  stroke-width: 0.964137;
}
.l13{
  fill: #666600; fill-opacity: 0.5;
  stroke: #666600;
  stroke-linecap:round;
  stroke-linejoin:round;
  stroke-width: 0.964137;
}
.l14{
  fill: #557755; fill-opacity: 0.2;
  stroke: #557755;
  stroke-linecap:round;
  stroke-linejoin:round;
  stroke-width: 0.964137;
}
.l15{
  fill: #aa2222; fill-opacity: 0.5;
  stroke: #aa2222;
  stroke-linecap:round;
  stroke-linejoin:round;
  stroke-width: 0.964137;
}
.l16{
  fill: #7ccc40; fill-opacity: 0.5;
  stroke: #7ccc40;
  stroke-linecap:round;
  stroke-linejoin:round;
  stroke-width: 0.964137;
}
.l17{
  fill: #00ffcc; fill-opacity: 0.2;
  stroke: #00ffcc;
  stroke-linecap:round;
  stroke-linejoin:round;
  stroke-width: 0.964137;
}
.l18{
  fill: #ce0097; fill-opacity: 0.5;
  stroke: #ce0097;
  stroke-linecap:round;
  stroke-linejoin:round;
  stroke-width: 0.964137;
}
.l19{
  fill: #d2d46b; fill-opacity: 0.2;
  stroke: #d2d46b;
  stroke-linecap:round;
  stroke-linejoin:round;
  stroke-width: 0.964137;
}
.l20{
  fill: #ef6158; fill-opacity: 0.2;
  stroke: #ef6158;
  stroke-linecap:round;
  stroke-linejoin:round;
  stroke-width: 0.964137;
}
.l21{
  fill: #fdb200; fill-opacity: 0.2;
  stroke: #fdb200;
  stroke-linecap:round;
  stroke-linejoin:round;
  stroke-width: 0.964137;
}
text {font-family: Sans-Serif;}
</style>
<rect class="l0" x="0" y="0" width="1072" height="670"/>
<path class="l4" d="M649.911 434.628L649.911 466.765"/>
<path class="l4" d="M658.838 429.271L658.838 438.198"/>
<path class="l4" d="M658.838 463.195L658.838 472.122"/>
<path class="l4" d="M646.34 439.984L646.34 461.409"/>
<path class="l4" d="M649.911 463.195L658.838 463.195"/>
<path class="l4" d="M649.911 438.198L658.838 438.198"/>
<path class="l4" d="M630.271 450.696L645.983 450.696"/>
<path class="l4" d="M655.267 464.98L658.838 463.195L655.267 461.409L655.267 464.98"/>
<path class="l4" d="M721.329 127.532L721.329 159.67"/>
<path class="l4" d="M730.256 122.176L730.256 131.103"/>
<path class="l4" d="M730.256 156.099L730.256 165.026"/>
<path class="l4" d="M717.758 132.888L717.758 154.314"/>
<path class="l4" d="M721.329 156.099L730.256 156.099"/>
<path class="l4" d="M721.329 131.103L730.256 131.103"/>
<path class="l4" d="M701.689 143.601L717.401 143.601"/>
<path class="l4" d="M724.9 129.317L721.329 131.103L724.9 132.888L724.9 129.317"/>
<path class="l4" d="M592.777 213.233L592.777 245.371"/>
<path class="l4" d="M601.704 207.877L601.704 216.804"/>
<path class="l4" d="M601.704 241.8L601.704 250.727"/>
<path class="l4" d="M589.206 218.589L589.206 240.015"/>
<path class="l4" d="M592.777 241.8L601.704 241.8"/>
<path class="l4" d="M592.777 216.804L601.704 216.804"/>
<path class="l4" d="M573.137 229.302L588.849 229.302"/>
<path class="l4" d="M598.133 243.585L601.704 241.8L598.133 240.015L598.133 243.585"/>
<path class="l4" d="M739.183 213.233L739.183 245.371"/>
<path class="l4" d="M730.256 207.877L730.256 216.804"/>
<path class="l4" d="M730.256 241.8L730.256 250.727"/>
<path class="l4" d="M742.754 218.589L742.754 240.015"/>
<path class="l4" d="M730.256 241.8L739.183 241.8"/>
<path class="l4" d="M730.256 216.804L739.183 216.804"/>
<path class="l4" d="M743.111 229.302L758.823 229.302"/>
<path class="l4" d="M733.827 243.585L730.256 241.8L733.827 240.015L733.827 243.585"/>
<path class="l4" d="M610.631 127.532L610.631 159.67"/>
<path class="l4" d="M601.704 122.176L601.704 131.103"/>
<path class="l4" d="M601.704 156.099L601.704 165.026"/>
<path class="l4" d="M614.202 132.888L614.202 154.314"/>
<path class="l4" d="M601.704 156.099L610.631 156.099"/>
<path class="l4" d="M601.704 131.103L610.631 131.103"/>
<path class="l4" d="M614.559 143.601L630.271 143.601"/>
<path class="l4" d="M607.06 129.317L610.631 131.103L607.06 132.888L607.06 129.317"/>
<path class="l4" d="M482.08 434.628L482.08 466.765"/>
<path class="l4" d="M473.153 429.271L473.153 438.198"/>
<path class="l4" d="M473.153 463.195L473.153 472.122"/>
<path class="l4" d="M485.651 439.984L485.651 461.409"/>
<path class="l4" d="M473.153 463.195L482.08 463.195"/>
<path class="l4" d="M473.153 438.198L482.08 438.198"/>
<path class="l4" d="M486.008 450.696L501.72 450.696"/>
<path class="l4" d="M476.723 464.98L473.153 463.195L476.723 461.409L476.723 464.98"/>
<path class="l4" d="M549.926 484.62L549.926 516.758"/>
<path class="l4" d="M558.854 479.264L558.854 488.191"/>
<path class="l4" d="M558.854 513.187L558.854 522.114"/>
<path class="l4" d="M546.356 489.976L546.356 511.401"/>
<path class="l4" d="M549.926 513.187L558.854 513.187"/>
<path class="l4" d="M549.926 488.191L558.854 488.191"/>
<path class="l4" d="M530.287 500.689L545.998 500.689"/>
<path class="l4" d="M555.283 514.972L558.854 513.187L555.283 511.401L555.283 514.972"/>
<path class="l4" d="M635.628 70.3979L635.628 102.536"/>
<path class="l4" d="M644.555 65.0415L644.555 73.9687"/>
<path class="l4" d="M644.555 98.9649L644.555 107.892"/>
<path class="l4" d="M632.057 75.7542L632.057 97.1795"/>
<path class="l4" d="M635.628 98.9649L644.555 98.9649"/>
<path class="l4" d="M635.628 73.9687L644.555 73.9687"/>
<path class="l4" d="M615.988 86.4668L631.7 86.4668"/>
<path class="l4" d="M639.198 72.1833L635.628 73.9687L639.198 75.7542L639.198 72.1833"/>
<path class="l4" d="M307.107 484.62L307.107 516.758"/>
<path class="l4" d="M316.034 479.264L316.034 488.191"/>
<path class="l4" d="M316.034 513.187L316.034 522.114"/>
<path class="l4" d="M303.536 489.976L303.536 511.401"/>
<path class="l4" d="M307.107 513.187L316.034 513.187"/>
<path class="l4" d="M307.107 488.191L316.034 488.191"/>
<path class="l4" d="M287.467 500.689L303.179 500.689"/>
<path class="l4" d="M312.463 514.972L316.034 513.187L312.463 511.401L312.463 514.972"/>
<path class="l4" d="M307.107 413.202L307.107 445.34"/>
<path class="l4" d="M316.034 407.846L316.034 416.773"/>
<path class="l4" d="M316.034 441.769L316.034 450.696"/>
<path class="l4" d="M303.536 418.559L303.536 439.984"/>
<path class="l4" d="M307.107 441.769L316.034 441.769"/>
<path class="l4" d="M307.107 416.773L316.034 416.773"/>
<path class="l4" d="M287.467 429.271L303.179 429.271"/>
<path class="l4" d="M310.678 414.988L307.107 416.773L310.678 418.559L310.678 414.988"/>
<path class="l4" d="M535.643 356.068L535.643 388.206"/>
<path class="l4" d="M544.57 350.712L544.57 359.639"/>
<path class="l4" d="M544.57 384.635L544.57 393.562"/>
<path class="l4" d="M532.072 361.425L532.072 382.85"/>
<path class="l4" d="M535.643 384.635L544.57 384.635"/>
<path class="l4" d="M535.643 359.639L544.57 359.639"/>
<path class="l4" d="M516.003 372.137L531.715 372.137"/>
<path class="l4" d="M540.999 386.421L544.57 384.635L540.999 382.85L540.999 386.421"/>
<path class="l4" d="M192.839 484.62L192.839 516.758"/>
<path class="l4" d="M201.766 479.264L201.766 488.191"/>
<path class="l4" d="M201.766 513.187L201.766 522.114"/>
<path class="l4" d="M189.268 489.976L189.268 511.401"/>
<path class="l4" d="M192.839 513.187L201.766 513.187"/>
<path class="l4" d="M192.839 488.191L201.766 488.191"/>
<path class="l4" d="M173.199 500.689L188.911 500.689"/>
<path class="l4" d="M198.195 514.972L201.766 513.187L198.195 511.401L198.195 514.972"/>
<path class="l4" d="M192.839 413.202L192.839 445.34"/>
<path class="l4" d="M201.766 407.846L201.766 416.773"/>
<path class="l4" d="M201.766 441.769L201.766 450.696"/>
<path class="l4" d="M189.268 418.559L189.268 439.984"/>
<path class="l4" d="M192.839 441.769L201.766 441.769"/>
<path class="l4" d="M192.839 416.773L201.766 416.773"/>
<path class="l4" d="M173.199 429.271L188.911 429.271"/>
<path class="l4" d="M196.409 414.988L192.839 416.773L196.409 418.559L196.409 414.988"/>
<path class="l4" d="M930.225 429.271L930.225 436.413"/>
<path class="l4" d="M930.225 429.271L937.367 429.271"/>
<path class="l4" d="M930.225 279.294L930.225 286.436"/>
<path class="l4" d="M930.225 279.294L937.367 279.294"/>
<path class="l4" d="M1044.49 279.294L1044.49 286.436"/>
<path class="l4" d="M1044.49 279.294L1051.63 279.294"/>
<path class="l4" d="M930.225 136.459L930.225 143.601"/>
<path class="l4" d="M930.225 136.459L937.367 136.459"/>
<path class="l4" d="M1044.49 136.459L1044.49 143.601"/>
<path class="l4" d="M1044.49 136.459L1051.63 136.459"/>
<path class="l5" d="M123.206 618.528L122.983 618.751L122.76 618.974L122.537 619.197L122.314 619.421L122.09 619.644L121.867 619.867L121.644 620.09L121.421 620.313L121.198 620.536L120.975 620.76L120.751 620.983L120.528 621.206L120.305 621.429L120.082 621.652L119.859 621.876L119.635 622.099L119.412 622.322L119.189 622.545L118.966 622.768L118.743 622.991L118.52 623.215L118.296 623.438L118.073 623.661L117.85 623.884L117.627 624.107L117.404 624.33L117.181 624.554L116.957 624.777L116.734 625L116.511 625.223L116.288 625.446L116.065 625.67L116.065 625.67L115.848 625.893L115.646 626.116L115.458 626.339L115.283 626.562L115.123 626.785L114.977 627.009L114.844 627.232L114.726 627.455L114.621 627.678L114.53 627.901L114.454 628.125L114.391 628.348L114.342 628.571L114.307 628.794L114.286 629.017L114.279 629.24L114.286 629.464L114.307 629.687L114.342 629.91L114.391 630.133L114.454 630.356L114.53 630.58L114.621 630.803L114.726 631.026L114.844 631.249L114.977 631.472L115.123 631.695L115.283 631.919L115.458 632.142L115.646 632.365L115.848 632.588L116.065 632.811L116.065 632.811L116.289 633.035L116.514 633.261L116.742 633.489L116.971 633.718L117.202 633.949L117.435 634.182L117.67 634.416L117.906 634.653L118.144 634.891L118.384 635.13L118.625 635.372L118.868 635.615L119.113 635.86L119.36 636.107L119.608 636.355L119.859 636.605L120.111 636.857L120.364 637.111L120.62 637.366L120.877 637.624L121.136 637.883L121.397 638.143L121.659 638.406L121.923 638.67L122.189 638.936L122.457 639.203L122.726 639.473L122.997 639.744L123.27 640.017L123.545 640.291L123.821 640.568L124.099 640.846L124.099 640.846L124.376 641.123L124.65 641.397L124.92 641.667L125.187 641.934L125.45 642.197L125.71 642.457L125.966 642.713L126.219 642.966L126.469 643.215L126.714 643.461L126.957 643.704L127.196 643.942L127.431 644.178L127.663 644.41L127.891 644.638L128.116 644.863L128.338 645.084L128.556 645.302L128.77 645.517L128.981 645.728L129.189 645.935L129.393 646.139L129.593 646.34L129.79 646.537L129.984 646.73L130.174 646.92L130.36 647.107L130.543 647.29L130.723 647.47L130.899 647.646L131.072 647.818L131.241 647.988L131.241 647.988L131.403 648.152L131.555 648.312L131.696 648.466L131.827 648.615L131.947 648.759L132.057 648.898L132.156 649.031L132.245 649.159L132.324 649.282L132.392 649.4L132.449 649.512L132.496 649.62L132.533 649.722L132.559 649.818L132.575 649.91L132.58 649.996L132.575 650.077L132.559 650.153L132.533 650.224L132.496 650.289L132.449 650.349L132.392 650.404L132.324 650.454L132.245 650.498L132.156 650.538L132.057 650.572L131.947 650.6L131.827 650.624L131.696 650.642L131.555 650.655L131.403 650.663L131.241 650.666L131.241 650.666L131.073 650.666L130.906 650.666L130.739 650.666L130.571 650.666L130.404 650.666L130.237 650.666L130.069 650.666L129.902 650.666L129.734 650.666L129.567 650.666L129.4 650.666L129.232 650.666L129.065 650.666L128.897 650.666L128.73 650.666L128.563 650.666L128.395 650.666L128.228 650.666L128.061 650.666L127.893 650.666L127.726 650.666L127.558 650.666L127.391 650.666L127.224 650.666L127.056 650.666L126.889 650.666L126.721 650.666L126.554 650.666L126.387 650.666L126.219 650.666L126.052 650.666L125.885 650.666L125.885 650.666L125.718 650.666L125.553 650.666L125.39 650.666L125.229 650.666L125.069 650.666L124.912 650.666L124.756 650.666L124.601 650.666L124.449 650.666L124.298 650.666L124.149 650.666L124.001 650.666L123.856 650.666L123.712 650.666L123.57 650.666L123.43 650.666L123.291 650.666L123.154 650.666L123.019 650.666L122.886 650.666L122.754 650.666L122.624 650.666L122.496 650.666L122.369 650.666L122.245 650.666L122.122 650.666L122.001 650.666L121.881 650.666L121.764 650.666L121.648 650.666L121.533 650.666L121.421 650.666L121.421 650.666L121.309 650.664L121.198 650.659L121.086 650.65L120.975 650.638L120.863 650.622L120.751 650.603L120.64 650.58L120.528 650.554L120.417 650.524L120.305 650.491L120.193 650.455L120.082 650.415L119.97 650.371L119.859 650.324L119.747 650.273L119.635 650.219L119.524 650.162L119.412 650.101L119.301 650.036L119.189 649.968L119.078 649.897L118.966 649.822L118.854 649.743L118.743 649.661L118.631 649.576L118.52 649.487L118.408 649.395L118.296 649.299L118.185 649.199L118.073 649.096L117.962 648.99L117.85 648.88L117.85 648.88L117.738 648.769L117.627 648.657L117.515 648.546L117.404 648.434L117.292 648.322L117.181 648.211L117.069 648.099L116.957 647.988L116.846 647.876L116.734 647.764L116.623 647.653L116.511 647.541L116.399 647.43L116.288 647.318L116.176 647.206L116.065 647.095L115.953 646.983L115.841 646.872L115.73 646.76L115.618 646.648L115.507 646.537L115.395 646.425L115.283 646.314L115.172 646.202L115.06 646.091L114.949 645.979L114.837 645.867L114.726 645.756L114.614 645.644L114.502 645.533L114.391 645.421L114.279 645.309L114.279 645.309L114.166 645.196L114.049 645.079L113.929 644.959L113.805 644.835L113.678 644.708L113.547 644.577L113.413 644.443L113.275 644.305L113.134 644.164L112.989 644.019L112.841 643.871L112.689 643.719L112.534 643.564L112.375 643.405L112.213 643.243L112.047 643.078L111.878 642.908L111.706 642.736L111.53 642.56L111.35 642.38L111.167 642.197L110.98 642.011L110.79 641.82L110.597 641.627L110.4 641.43L110.199 641.229L109.995 641.025L109.788 640.818L109.577 640.607L109.362 640.392L109.144 640.175L108.923 639.953L108.923 639.953L108.7 639.737L108.476 639.535L108.253 639.346L108.03 639.172L107.807 639.012L107.584 638.865L107.361 638.733L107.137 638.614L106.914 638.509L106.691 638.419L106.468 638.342L106.245 638.279L106.022 638.23L105.798 638.196L105.575 638.175L105.352 638.168L105.129 638.175L104.906 638.196L104.682 638.23L104.459 638.279L104.236 638.342L104.013 638.419L103.79 638.509L103.567 638.614L103.343 638.733L103.12 638.865L102.897 639.012L102.674 639.172L102.451 639.346L102.227 639.535L102.004 639.737L101.781 639.953L101.781 639.953L101.56 640.175L101.342 640.392L101.127 640.607L100.916 640.818L100.709 641.025L100.505 641.229L100.304 641.43L100.107 641.627L99.9137 641.82L99.7237 642.011L99.5371 642.197L99.354 642.38L99.1744 642.56L98.9983 642.736L98.8257 642.908L98.6566 643.078L98.4909 643.243L98.3288 643.405L98.1701 643.564L98.0149 643.719L97.8632 643.871L97.715 644.019L97.5703 644.164L97.4291 644.305L97.2913 644.443L97.1571 644.577L97.0263 644.708L96.899 644.835L96.7752 644.959L96.6549 645.079L96.5381 645.196L96.4248 645.309L96.4248 645.309L96.3132 645.421L96.2016 645.533L96.09 645.644L95.9784 645.756L95.8668 645.867L95.7552 645.979L95.6437 646.091L95.5321 646.202L95.4205 646.314L95.3089 646.425L95.1973 646.537L95.0857 646.648L94.9741 646.76L94.8625 646.872L94.7509 646.983L94.6393 647.095L94.5278 647.206L94.4162 647.318L94.3046 647.43L94.193 647.541L94.0814 647.653L93.9698 647.764L93.8582 647.876L93.7466 647.988L93.635 648.099L93.5234 648.211L93.4119 648.322L93.3003 648.434L93.1887 648.546L93.0771 648.657L92.9655 648.769L92.8539 648.88L92.8539 648.88L92.7423 648.99L92.6307 649.096L92.5191 649.199L92.4075 649.299L92.296 649.395L92.1844 649.487L92.0728 649.576L91.9612 649.661L91.8496 649.743L91.738 649.822L91.6264 649.897L91.5148 649.968L91.4032 650.036L91.2916 650.101L91.1801 650.162L91.0685 650.219L90.9569 650.273L90.8453 650.324L90.7337 650.371L90.6221 650.415L90.5105 650.455L90.3989 650.491L90.2873 650.524L90.1757 650.554L90.0642 650.58L89.9526 650.603L89.841 650.622L89.7294 650.638L89.6178 650.65L89.5062 650.659L89.3946 650.664L89.283 650.666L89.283 650.666L89.1706 650.666L89.0564 650.666L88.9404 650.666L88.8227 650.666L88.7033 650.666L88.5821 650.666L88.4592 650.666L88.3345 650.666L88.2081 650.666L88.0799 650.666L87.95 650.666L87.8184 650.666L87.685 650.666L87.5499 650.666L87.413 650.666L87.2744 650.666L87.134 650.666L86.9919 650.666L86.8481 650.666L86.7025 650.666L86.5552 650.666L86.4061 650.666L86.2553 650.666L86.1027 650.666L85.9484 650.666L85.7923 650.666L85.6346 650.666L85.475 650.666L85.3137 650.666L85.1507 650.666L84.9859 650.666L84.8194 650.666L84.8194 650.666L84.652 650.666L84.4847 650.666L84.3173 650.666L84.1499 650.666L83.9825 650.666L83.8151 650.666L83.6477 650.666L83.4803 650.666L83.313 650.666L83.1456 650.666L82.9782 650.666L82.8108 650.666L82.6434 650.666L82.476 650.666L82.3086 650.666L82.1413 650.666L81.9739 650.666L81.8065 650.666L81.6391 650.666L81.4717 650.666L81.3043 650.666L81.137 650.666L80.9696 650.666L80.8022 650.666L80.6348 650.666L80.4674 650.666L80.3 650.666L80.1326 650.666L79.9653 650.666L79.7979 650.666L79.6305 650.666L79.4631 650.666L79.4631 650.666L79.301 650.663L79.1493 650.655L79.008 650.642L78.8773 650.624L78.7569 650.6L78.6471 650.572L78.5477 650.538L78.4588 650.498L78.3803 650.454L78.3123 650.404L78.2548 650.349L78.2077 650.289L78.1711 650.224L78.1449 650.153L78.1293 650.077L78.124 649.996L78.1293 649.91L78.1449 649.818L78.1711 649.722L78.2077 649.62L78.2548 649.512L78.3123 649.4L78.3803 649.282L78.4588 649.159L78.5477 649.031L78.6471 648.898L78.7569 648.759L78.8773 648.615L79.008 648.466L79.1493 648.312L79.301 648.152L79.4631 647.988L79.4631 647.988L79.6322 647.818L79.8048 647.646L79.981 647.47L80.1605 647.29L80.3436 647.107L80.5302 646.92L80.7202 646.73L80.9138 646.537L81.1108 646.34L81.3113 646.139L81.5153 645.935L81.7228 645.728L81.9338 645.517L82.1482 645.302L82.3662 645.084L82.5876 644.863L82.8125 644.638L83.041 644.41L83.2729 644.178L83.5082 643.942L83.7471 643.704L83.9895 643.461L84.2353 643.215L84.4847 642.966L84.7375 642.713L84.9938 642.457L85.2536 642.197L85.5169 641.934L85.7836 641.667L86.0539 641.397L86.3276 641.123L86.6049 640.846L86.6049 640.846L86.883 640.568L87.1593 640.291L87.4339 640.017L87.7068 639.744L87.9779 639.473L88.2473 639.203L88.515 638.936L88.7809 638.67L89.045 638.406L89.3074 638.143L89.5681 637.883L89.827 637.624L90.0842 637.366L90.3396 637.111L90.5933 636.857L90.8453 636.605L91.0955 636.355L91.3439 636.107L91.5907 635.86L91.8356 635.615L92.0789 635.372L92.3204 635.13L92.5601 634.891L92.7981 634.653L93.0344 634.416L93.2689 634.182L93.5016 633.949L93.7327 633.718L93.962 633.489L94.1895 633.261L94.4153 633.035L94.6393 632.811L94.6393 632.811L94.8555 632.588L95.0578 632.365L95.2461 632.142L95.4205 631.919L95.5809 631.695L95.7273 631.472L95.8599 631.249L95.9784 631.026L96.083 630.803L96.1737 630.58L96.2504 630.356L96.3132 630.133L96.362 629.91L96.3969 629.687L96.4178 629.464L96.4248 629.24L96.4178 629.017L96.3969 628.794L96.362 628.571L96.3132 628.348L96.2504 628.125L96.1737 627.901L96.083 627.678L95.9784 627.455L95.8599 627.232L95.7273 627.009L95.5809 626.785L95.4205 626.562L95.2461 626.339L95.0578 626.116L94.8555 625.893L94.6393 625.67L94.6393 625.67L94.4153 625.446L94.1895 625.22L93.962 624.992L93.7327 624.763L93.5016 624.532L93.2689 624.299L93.0344 624.065L92.7981 623.828L92.5601 623.59L92.3204 623.351L92.0789 623.109L91.8356 622.866L91.5907 622.621L91.3439 622.374L91.0955 622.126L90.8453 621.876L90.5933 621.624L90.3396 621.37L90.0842 621.114L89.827 620.857L89.5681 620.598L89.3074 620.338L89.045 620.075L88.7809 619.811L88.515 619.545L88.2473 619.278L87.9779 619.008L87.7068 618.737L87.4339 618.464L87.1593 618.19L86.883 617.913L86.6049 617.635L86.6049 617.635L86.3276 617.358L86.0539 617.084L85.7836 616.814L85.5169 616.547L85.2536 616.284L84.9938 616.024L84.7375 615.768L84.4847 615.515L84.2353 615.266L83.9895 615.02L83.7471 614.777L83.5082 614.538L83.2729 614.303L83.041 614.071L82.8125 613.843L82.5876 613.618L82.3662 613.396L82.1482 613.178L81.9338 612.964L81.7228 612.753L81.5153 612.546L81.3113 612.342L81.1108 612.141L80.9138 611.944L80.7202 611.75L80.5302 611.56L80.3436 611.374L80.1605 611.191L79.981 611.011L79.8048 610.835L79.6322 610.662L79.4631 610.493L79.4631 610.493L79.301 610.329L79.1493 610.169L79.008 610.015L78.8773 609.866L78.7569 609.722L78.6471 609.583L78.5477 609.45L78.4588 609.322L78.3803 609.199L78.3123 609.081L78.2548 608.969L78.2077 608.861L78.1711 608.759L78.1449 608.663L78.1293 608.571L78.124 608.485L78.1293 608.404L78.1449 608.328L78.1711 608.257L78.2077 608.192L78.2548 608.132L78.3123 608.077L78.3803 608.027L78.4588 607.983L78.5477 607.943L78.6471 607.909L78.7569 607.881L78.8773 607.857L79.008 607.839L79.1493 607.826L79.301 607.818L79.4631 607.815L79.4631 607.815L79.6305 607.815L79.7979 607.815L79.9653 607.815L80.1326 607.815L80.3 607.815L80.4674 607.815L80.6348 607.815L80.8022 607.815L80.9696 607.815L81.137 607.815L81.3043 607.815L81.4717 607.815L81.6391 607.815L81.8065 607.815L81.9739 607.815L82.1413 607.815L82.3086 607.815L82.476 607.815L82.6434 607.815L82.8108 607.815L82.9782 607.815L83.1456 607.815L83.313 607.815L83.4803 607.815L83.6477 607.815L83.8151 607.815L83.9825 607.815L84.1499 607.815L84.3173 607.815L84.4847 607.815L84.652 607.815L84.8194 607.815L84.8194 607.815L84.9859 607.815L85.1507 607.815L85.3137 607.815L85.475 607.815L85.6346 607.815L85.7923 607.815L85.9484 607.815L86.1027 607.815L86.2553 607.815L86.4061 607.815L86.5552 607.815L86.7025 607.815L86.8481 607.815L86.9919 607.815L87.134 607.815L87.2744 607.815L87.413 607.815L87.5499 607.815L87.685 607.815L87.8184 607.815L87.95 607.815L88.0799 607.815L88.2081 607.815L88.3345 607.815L88.4592 607.815L88.5821 607.815L88.7033 607.815L88.8227 607.815L88.9404 607.815L89.0564 607.815L89.1706 607.815L89.283 607.815L89.283 607.815L89.3946 607.817L89.5062 607.822L89.6178 607.831L89.7294 607.843L89.841 607.859L89.9526 607.878L90.0642 607.901L90.1757 607.927L90.2873 607.956L90.3989 607.99L90.5105 608.026L90.6221 608.066L90.7337 608.11L90.8453 608.157L90.9569 608.207L91.0685 608.262L91.1801 608.319L91.2916 608.38L91.4032 608.445L91.5148 608.513L91.6264 608.584L91.738 608.659L91.8496 608.738L91.9612 608.819L92.0728 608.905L92.1844 608.994L92.296 609.086L92.4075 609.182L92.5191 609.282L92.6307 609.384L92.7423 609.491L92.8539 609.601L92.8539 609.601L92.9655 609.712L93.0771 609.824L93.1887 609.935L93.3003 610.047L93.4119 610.159L93.5234 610.27L93.635 610.382L93.7466 610.493L93.8582 610.605L93.9698 610.717L94.0814 610.828L94.193 610.94L94.3046 611.051L94.4162 611.163L94.5278 611.274L94.6393 611.386L94.7509 611.498L94.8625 611.609L94.9741 611.721L95.0857 611.832L95.1973 611.944L95.3089 612.056L95.4205 612.167L95.5321 612.279L95.6437 612.39L95.7552 612.502L95.8668 612.614L95.9784 612.725L96.09 612.837L96.2016 612.948L96.3132 613.06L96.4248 613.171L96.4248 613.171L96.5381 613.285L96.6549 613.402L96.7752 613.522L96.899 613.646L97.0263 613.773L97.1571 613.904L97.2913 614.038L97.4291 614.176L97.5703 614.317L97.715 614.462L97.8632 614.61L98.0149 614.762L98.1701 614.917L98.3288 615.075L98.4909 615.238L98.6566 615.403L98.8257 615.572L98.9983 615.745L99.1744 615.921L99.354 616.101L99.5371 616.284L99.7237 616.47L99.9137 616.66L100.107 616.854L100.304 617.051L100.505 617.251L100.709 617.455L100.916 617.663L101.127 617.874L101.342 618.088L101.56 618.306L101.781 618.528L101.781 618.528L102.004 618.744L102.227 618.946L102.451 619.135L102.674 619.309L102.897 619.469L103.12 619.616L103.343 619.748L103.567 619.867L103.79 619.971L104.013 620.062L104.236 620.139L104.459 620.202L104.682 620.25L104.906 620.285L105.129 620.306L105.352 620.313L105.575 620.306L105.798 620.285L106.022 620.25L106.245 620.202L106.468 620.139L106.691 620.062L106.914 619.971L107.137 619.867L107.361 619.748L107.584 619.616L107.807 619.469L108.03 619.309L108.253 619.135L108.476 618.946L108.7 618.744L108.923 618.528L108.923 618.528L109.144 618.306L109.362 618.088L109.577 617.874L109.788 617.663L109.995 617.455L110.199 617.251L110.4 617.051L110.597 616.854L110.79 616.66L110.98 616.47L111.167 616.284L111.35 616.101L111.53 615.921L111.706 615.745L111.878 615.572L112.047 615.403L112.213 615.238L112.375 615.075L112.534 614.917L112.689 614.762L112.841 614.61L112.989 614.462L113.134 614.317L113.275 614.176L113.413 614.038L113.547 613.904L113.678 613.773L113.805 613.646L113.929 613.522L114.049 613.402L114.166 613.285L114.279 613.171L114.279 613.171L114.391 613.06L114.502 612.948L114.614 612.837L114.726 612.725L114.837 612.614L114.949 612.502L115.06 612.39L115.172 612.279L115.283 612.167L115.395 612.056L115.507 611.944L115.618 611.832L115.73 611.721L115.841 611.609L115.953 611.498L116.065 611.386L116.176 611.274L116.288 611.163L116.399 611.051L116.511 610.94L116.623 610.828L116.734 610.717L116.846 610.605L116.957 610.493L117.069 610.382L117.181 610.27L117.292 610.159L117.404 610.047L117.515 609.935L117.627 609.824L117.738 609.712L117.85 609.601L117.85 609.601L117.962 609.491L118.073 609.384L118.185 609.282L118.296 609.182L118.408 609.086L118.52 608.994L118.631 608.905L118.743 608.819L118.854 608.738L118.966 608.659L119.078 608.584L119.189 608.513L119.301 608.445L119.412 608.38L119.524 608.319L119.635 608.262L119.747 608.207L119.859 608.157L119.97 608.11L120.082 608.066L120.193 608.026L120.305 607.99L120.417 607.956L120.528 607.927L120.64 607.901L120.751 607.878L120.863 607.859L120.975 607.843L121.086 607.831L121.198 607.822L121.309 607.817L121.421 607.815L121.421 607.815L121.533 607.815L121.648 607.815L121.764 607.815L121.881 607.815L122.001 607.815L122.122 607.815L122.245 607.815L122.369 607.815L122.496 607.815L122.624 607.815L122.754 607.815L122.886 607.815L123.019 607.815L123.154 607.815L123.291 607.815L123.43 607.815L123.57 607.815L123.712 607.815L123.856 607.815L124.001 607.815L124.149 607.815L124.298 607.815L124.449 607.815L124.601 607.815L124.756 607.815L124.912 607.815L125.069 607.815L125.229 607.815L125.39 607.815L125.553 607.815L125.718 607.815L125.885 607.815L125.885 607.815L126.052 607.815L126.219 607.815L126.387 607.815L126.554 607.815L126.721 607.815L126.889 607.815L127.056 607.815L127.224 607.815L127.391 607.815L127.558 607.815L127.726 607.815L127.893 607.815L128.061 607.815L128.228 607.815L128.395 607.815L128.563 607.815L128.73 607.815L128.897 607.815L129.065 607.815L129.232 607.815L129.4 607.815L129.567 607.815L129.734 607.815L129.902 607.815L130.069 607.815L130.237 607.815L130.404 607.815L130.571 607.815L130.739 607.815L130.906 607.815L131.073 607.815L131.241 607.815L131.241 607.815L131.403 607.818L131.555 607.826L131.696 607.839L131.827 607.857L131.947 607.881L132.057 607.909L132.156 607.943L132.245 607.983L132.324 608.027L132.392 608.077L132.449 608.132L132.496 608.192L132.533 608.257L132.559 608.328L132.575 608.404L132.58 608.485L132.575 608.571L132.559 608.663L132.533 608.759L132.496 608.861L132.449 608.969L132.392 609.081L132.324 609.199L132.245 609.322L132.156 609.45L132.057 609.583L131.947 609.722L131.827 609.866L131.696 610.015L131.555 610.169L131.403 610.329L131.241 610.493L131.241 610.493L131.071 610.663L130.896 610.839L130.715 611.019L130.529 611.205L130.339 611.396L130.142 611.592L129.941 611.793L129.734 612L129.523 612.212L129.305 612.429L129.083 612.651L128.856 612.879L128.623 613.111L128.385 613.349L128.142 613.593L127.893 613.841L127.639 614.095L127.381 614.354L127.116 614.618L126.847 614.887L126.572 615.162L126.293 615.442L126.007 615.727L125.717 616.017L125.422 616.313L125.121 616.613L124.815 616.919L124.504 617.231L124.187 617.547L123.865 617.869L123.539 618.196L123.206 618.528"/>
<path class="l5" d="M658.838 452.482L655.267 450.696L658.838 448.911L658.838 452.482"/>
<path class="l5" d="M657.053 427.486L660.624 427.486L660.624 431.057L657.053 431.057L657.053 427.486z"/>
<path class="l5" d="M628.486 448.911L632.057 448.911L632.057 452.482L628.486 452.482L628.486 448.911z"/>
<path class="l5" d="M657.053 470.336L660.624 470.336L660.624 473.907L657.053 473.907L657.053 470.336z"/>
<path class="l5" d="M658.782 450.641L658.894 450.641L658.894 450.752L658.782 450.752L658.782 450.641z"/>
<path class="l5" d="M726.685 141.815L730.256 143.601L726.685 145.386L726.685 141.815"/>
<path class="l5" d="M728.47 163.241L732.041 163.241L732.041 166.812L728.47 166.812L728.47 163.241z"/>
<path class="l5" d="M699.903 141.815L703.474 141.815L703.474 145.386L699.903 145.386L699.903 141.815z"/>
<path class="l5" d="M728.47 120.39L732.041 120.39L732.041 123.961L728.47 123.961L728.47 120.39z"/>
<path class="l5" d="M730.2 143.545L730.312 143.545L730.312 143.657L730.2 143.657L730.2 143.545z"/>
<path class="l5" d="M601.704 231.087L598.133 229.302L601.704 227.517L601.704 231.087"/>
<path class="l5" d="M599.919 206.091L603.49 206.091L603.49 209.662L599.919 209.662L599.919 206.091z"/>
<path class="l5" d="M571.352 227.517L574.923 227.517L574.923 231.087L571.352 231.087L571.352 227.517z"/>
<path class="l5" d="M599.919 248.942L603.49 248.942L603.49 252.513L599.919 252.513L599.919 248.942z"/>
<path class="l5" d="M601.648 229.246L601.76 229.246L601.76 229.358L601.648 229.358L601.648 229.246z"/>
<path class="l5" d="M730.256 231.087L733.827 229.302L730.256 227.517L730.256 231.087"/>
<path class="l5" d="M728.47 206.091L732.041 206.091L732.041 209.662L728.47 209.662L728.47 206.091z"/>
<path class="l5" d="M757.037 227.517L760.608 227.517L760.608 231.087L757.037 231.087L757.037 227.517z"/>
<path class="l5" d="M728.47 248.942L732.041 248.942L732.041 252.513L728.47 252.513L728.47 248.942z"/>
<path class="l5" d="M730.2 229.246L730.312 229.246L730.312 229.358L730.2 229.358L730.2 229.246z"/>
<path class="l5" d="M605.275 141.815L601.704 143.601L605.275 145.386L605.275 141.815"/>
<path class="l5" d="M599.919 163.241L603.49 163.241L603.49 166.812L599.919 166.812L599.919 163.241z"/>
<path class="l5" d="M628.486 141.815L632.057 141.815L632.057 145.386L628.486 145.386L628.486 141.815z"/>
<path class="l5" d="M599.919 120.39L603.49 120.39L603.49 123.961L599.919 123.961L599.919 120.39z"/>
<path class="l5" d="M601.648 143.545L601.76 143.545L601.76 143.657L601.648 143.657L601.648 143.545z"/>
<path class="l5" d="M473.153 452.482L476.723 450.696L473.153 448.911L473.153 452.482"/>
<path class="l5" d="M471.367 427.486L474.938 427.486L474.938 431.057L471.367 431.057L471.367 427.486z"/>
<path class="l5" d="M499.934 448.911L503.505 448.911L503.505 452.482L499.934 452.482L499.934 448.911z"/>
<path class="l5" d="M471.367 470.336L474.938 470.336L474.938 473.907L471.367 473.907L471.367 470.336z"/>
<path class="l5" d="M473.097 450.641L473.208 450.641L473.208 450.752L473.097 450.752L473.097 450.641z"/>
<path class="l5" d="M558.854 502.474L555.283 500.689L558.854 498.903L558.854 502.474"/>
<path class="l5" d="M557.068 477.478L560.639 477.478L560.639 481.049L557.068 481.049L557.068 477.478z"/>
<path class="l5" d="M528.501 498.903L532.072 498.903L532.072 502.474L528.501 502.474L528.501 498.903z"/>
<path class="l5" d="M557.068 520.329L560.639 520.329L560.639 523.9L557.068 523.9L557.068 520.329z"/>
<path class="l5" d="M558.798 500.633L558.909 500.633L558.909 500.745L558.798 500.745L558.798 500.633z"/>
<path class="l5" d="M640.984 84.6814L644.555 86.4668L640.984 88.2523L640.984 84.6814"/>
<path class="l5" d="M642.769 106.107L646.34 106.107L646.34 109.678L642.769 109.678L642.769 106.107z"/>
<path class="l5" d="M614.202 84.6814L617.773 84.6814L617.773 88.2523L614.202 88.2523L614.202 84.6814z"/>
<path class="l5" d="M642.769 63.2561L646.34 63.2561L646.34 66.827L642.769 66.827L642.769 63.2561z"/>
<path class="l5" d="M644.499 86.411L644.611 86.411L644.611 86.5226L644.499 86.5226L644.499 86.411z"/>
<path class="l5" d="M126.777 336.428L130.348 336.428"/>
<path class="l5" d="M126.777 336.428L124.099 332.857L117.85 332.857L120.528 336.428L117.85 339.999L124.099 339.999L126.777 336.428"/>
<path class="l5" d="M129.455 335.536L131.241 335.536L131.241 337.321L129.455 337.321L129.455 335.536z"/>
<path class="l5" d="M128.116 36.4745L130.348 36.4745"/>
<path class="l5" d="M120.528 40.0454L117.85 36.4745L120.528 32.9036L125.438 32.9036L128.116 36.4745L125.438 40.0454L120.528 40.0454"/>
<path class="l5" d="M129.455 35.5818L131.241 35.5818L131.241 37.3672L129.455 37.3672L129.455 35.5818z"/>
<path class="l5" d="M128.116 536.398L130.348 536.398"/>
<path class="l5" d="M120.528 539.968L117.85 536.398L120.528 532.827L125.438 532.827L128.116 536.398L125.438 539.968L120.528 539.968"/>
<path class="l5" d="M129.455 535.505L131.241 535.505L131.241 537.29L129.455 537.29L129.455 535.505z"/>
<path class="l5" d="M126.777 229.302L130.348 229.302"/>
<path class="l5" d="M126.777 229.302L124.099 225.731L117.85 225.731L120.528 229.302L117.85 232.873L124.099 232.873L126.777 229.302"/>
<path class="l5" d="M129.455 228.409L131.241 228.409L131.241 230.195L129.455 230.195L129.455 228.409z"/>
<path class="l5" d="M126.777 293.578L130.348 293.578"/>
<path class="l5" d="M126.777 293.578L124.099 290.007L117.85 290.007L120.528 293.578L117.85 297.149L124.099 297.149L126.777 293.578"/>
<path class="l5" d="M129.455 292.685L131.241 292.685L131.241 294.471L129.455 294.471L129.455 292.685z"/>
<path class="l5" d="M830.24 193.593L836.489 193.593"/>
<path class="l5" d="M842.739 193.593L840.06 190.022L833.811 190.022L836.489 193.593L833.811 197.164L840.06 197.164L842.739 193.593"/>
<path class="l5" d="M829.348 192.7L831.133 192.7L831.133 194.486L829.348 194.486L829.348 192.7z"/>
<path class="l5" d="M316.034 502.474L312.463 500.689L316.034 498.903L316.034 502.474"/>
<path class="l5" d="M314.248 477.478L317.819 477.478L317.819 481.049L314.248 481.049L314.248 477.478z"/>
<path class="l5" d="M285.681 498.903L289.252 498.903L289.252 502.474L285.681 502.474L285.681 498.903z"/>
<path class="l5" d="M314.248 520.329L317.819 520.329L317.819 523.9L314.248 523.9L314.248 520.329z"/>
<path class="l5" d="M315.978 500.633L316.09 500.633L316.09 500.745L315.978 500.745L315.978 500.633z"/>
<path class="l5" d="M312.463 427.486L316.034 429.271L312.463 431.057L312.463 427.486"/>
<path class="l5" d="M314.248 448.911L317.819 448.911L317.819 452.482L314.248 452.482L314.248 448.911z"/>
<path class="l5" d="M285.681 427.486L289.252 427.486L289.252 431.057L285.681 431.057L285.681 427.486z"/>
<path class="l5" d="M314.248 406.06L317.819 406.06L317.819 409.631L314.248 409.631L314.248 406.06z"/>
<path class="l5" d="M315.978 429.215L316.09 429.215L316.09 429.327L315.978 429.327L315.978 429.215z"/>
<path class="l5" d="M126.777 464.98L130.348 464.98"/>
<path class="l5" d="M126.777 464.98L124.099 461.409L117.85 461.409L120.528 464.98L117.85 468.551L124.099 468.551L126.777 464.98"/>
<path class="l5" d="M129.455 464.087L131.241 464.087L131.241 465.873L129.455 465.873L129.455 464.087z"/>
<path class="l5" d="M544.57 373.923L540.999 372.137L544.57 370.352L544.57 373.923"/>
<path class="l5" d="M542.785 348.926L546.356 348.926L546.356 352.497L542.785 352.497L542.785 348.926z"/>
<path class="l5" d="M514.218 370.352L517.789 370.352L517.789 373.923L514.218 373.923L514.218 370.352z"/>
<path class="l5" d="M542.785 391.777L546.356 391.777L546.356 395.348L542.785 395.348L542.785 391.777z"/>
<path class="l5" d="M544.514 372.081L544.626 372.081L544.626 372.193L544.514 372.193L544.514 372.081z"/>
<path class="l5" d="M507.969 499.796L509.754 499.796L509.754 501.582L507.969 501.582L507.969 499.796z"/>
<path class="l5" d="M586.528 449.804L588.313 449.804L588.313 451.589L586.528 451.589L586.528 449.804z"/>
<path class="l5" d="M686.513 142.708L688.298 142.708L688.298 144.494L686.513 144.494L686.513 142.708z"/>
<path class="l5" d="M657.946 335.536L659.731 335.536L659.731 337.321L657.946 337.321L657.946 335.536z"/>
<path class="l5" d="M201.766 502.474L198.195 500.689L201.766 498.903L201.766 502.474"/>
<path class="l5" d="M199.98 477.478L203.551 477.478L203.551 481.049L199.98 481.049L199.98 477.478z"/>
<path class="l5" d="M171.413 498.903L174.984 498.903L174.984 502.474L171.413 502.474L171.413 498.903z"/>
<path class="l5" d="M199.98 520.329L203.551 520.329L203.551 523.9L199.98 523.9L199.98 520.329z"/>
<path class="l5" d="M201.71 500.633L201.822 500.633L201.822 500.745L201.71 500.745L201.71 500.633z"/>
<path class="l5" d="M198.195 427.486L201.766 429.271L198.195 431.057L198.195 427.486"/>
<path class="l5" d="M199.98 448.911L203.551 448.911L203.551 452.482L199.98 452.482L199.98 448.911z"/>
<path class="l5" d="M171.413 427.486L174.984 427.486L174.984 431.057L171.413 431.057L171.413 427.486z"/>
<path class="l5" d="M199.98 406.06L203.551 406.06L203.551 409.631L199.98 409.631L199.98 406.06z"/>
<path class="l5" d="M201.71 429.215L201.822 429.215L201.822 429.327L201.71 429.327L201.71 429.215z"/>
<path class="l5" d="M436.551 371.244L438.336 371.244L438.336 373.03L436.551 373.03L436.551 371.244z"/>
<path class="l6" d="M291.038 629.24L858.807 629.24"/>
<path class="l6" d="M16.08 629.24L62.5014 629.24"/>
<text fill="#222222"  xml:space="preserve" font-size="14.8549" transform="translate(298.179, 646.3)" >         ota-5t.sch</text>
<text fill="#222222"  xml:space="preserve" font-size="14.8549" transform="translate(298.179, 624.874)" >(c) 2024-2025 Harald Pretl, Apache-2.0 license</text>
<text fill="#222222"  xml:space="preserve" font-size="14.8549" transform="translate(702.807, 624.874)" >2025-10-02  09:26:31</text>
<text fill="#222222"  xml:space="preserve" font-size="37.1371" transform="translate(133.919, 645.107)" >SCHEM</text>
<text fill="#222222"  xml:space="preserve" font-size="7.42743" transform="translate(637.126, 436.015)" >M5</text>
<text fill="#ff0000"  xml:space="preserve" font-size="5.57057" transform="translate(633.413, 448.613)" >G</text>
<text fill="#222222"  xml:space="preserve" font-size="7.42743" transform="translate(665.98, 471.239)" >sg13_lv_nmos</text>
<text fill="#666600"  xml:space="preserve" font-size="7.42743" transform="translate(666.873, 461.904)" >m=1</text>
<text fill="#666600"  xml:space="preserve" font-size="7.42743" transform="translate(666.873, 455.655)" >ng=1</text>
<text fill="#666600"  xml:space="preserve" font-size="7.42743" transform="translate(666.873, 446.728)" >l=5u</text>
<text fill="#666600"  xml:space="preserve" font-size="7.42743" transform="translate(666.873, 438.693)" >w=0.5u</text>
<text fill="#ff0000"  xml:space="preserve" font-size="5.57057" transform="translate(660.624, 468.253)" >S</text>
<text fill="#ff0000"  xml:space="preserve" font-size="5.57057" transform="translate(660.624, 436.867)" >D</text>
<text fill="#ff0000"  xml:space="preserve" font-size="5.57057" transform="translate(658.838, 448.613)" >B</text>
<text fill="#222222"  xml:space="preserve" font-size="7.42743" transform="translate(708.543, 128.92)" >M4</text>
<text fill="#ff0000"  xml:space="preserve" font-size="5.57057" transform="translate(704.831, 141.517)" >G</text>
<text fill="#222222"  xml:space="preserve" font-size="7.42743" transform="translate(737.398, 164.144)" >sg13_lv_pmos</text>
<text fill="#666600"  xml:space="preserve" font-size="7.42743" transform="translate(738.29, 154.809)" >m=1</text>
<text fill="#666600"  xml:space="preserve" font-size="7.42743" transform="translate(738.29, 148.56)" >ng=1</text>
<text fill="#666600"  xml:space="preserve" font-size="7.42743" transform="translate(738.29, 139.632)" >l=5u</text>
<text fill="#666600"  xml:space="preserve" font-size="7.42743" transform="translate(738.29, 131.598)" >w=1.5u</text>
<text fill="#ff0000"  xml:space="preserve" font-size="5.57057" transform="translate(732.041, 161.157)" >D</text>
<text fill="#ff0000"  xml:space="preserve" font-size="5.57057" transform="translate(732.041, 129.771)" >S</text>
<text fill="#ff0000"  xml:space="preserve" font-size="5.57057" transform="translate(730.256, 141.517)" >B</text>
<text fill="#222222"  xml:space="preserve" font-size="7.42743" transform="translate(579.992, 214.621)" >M1</text>
<text fill="#ff0000"  xml:space="preserve" font-size="5.57057" transform="translate(576.279, 227.218)" >G</text>
<text fill="#222222"  xml:space="preserve" font-size="7.42743" transform="translate(608.846, 249.845)" >sg13_lv_nmos</text>
<text fill="#666600"  xml:space="preserve" font-size="7.42743" transform="translate(609.739, 240.51)" >m=1</text>
<text fill="#666600"  xml:space="preserve" font-size="7.42743" transform="translate(609.739, 234.261)" >ng=1</text>
<text fill="#666600"  xml:space="preserve" font-size="7.42743" transform="translate(609.739, 225.333)" >l=5u</text>
<text fill="#666600"  xml:space="preserve" font-size="7.42743" transform="translate(609.739, 217.299)" >w=2u</text>
<text fill="#ff0000"  xml:space="preserve" font-size="5.57057" transform="translate(603.49, 246.858)" >S</text>
<text fill="#ff0000"  xml:space="preserve" font-size="5.57057" transform="translate(603.49, 215.473)" >D</text>
<text fill="#ff0000"  xml:space="preserve" font-size="5.57057" transform="translate(601.704, 227.218)" >B</text>
<text fill="#222222"  xml:space="preserve" font-size="7.42743" transform="translate(740.968, 214.621)" >M2</text>
<text fill="#ff0000"  xml:space="preserve" font-size="5.57057" transform="translate(751.681, 227.218)" >G</text>
<text fill="#222222"  xml:space="preserve" font-size="7.42743" transform="translate(669.114, 249.845)" >sg13_lv_nmos</text>
<text fill="#666600"  xml:space="preserve" font-size="7.42743" transform="translate(704.221, 240.51)" >m=1</text>
<text fill="#666600"  xml:space="preserve" font-size="7.42743" transform="translate(701.221, 234.261)" >ng=1</text>
<text fill="#666600"  xml:space="preserve" font-size="7.42743" transform="translate(704.221, 225.333)" >l=5u</text>
<text fill="#666600"  xml:space="preserve" font-size="7.42743" transform="translate(700.221, 217.299)" >w=2u</text>
<text fill="#ff0000"  xml:space="preserve" font-size="5.57057" transform="translate(724.47, 246.858)" >S</text>
<text fill="#ff0000"  xml:space="preserve" font-size="5.57057" transform="translate(724.47, 215.473)" >D</text>
<text fill="#ff0000"  xml:space="preserve" font-size="5.57057" transform="translate(726.256, 227.218)" >B</text>
<text fill="#222222"  xml:space="preserve" font-size="7.42743" transform="translate(612.417, 128.92)" >M3</text>
<text fill="#ff0000"  xml:space="preserve" font-size="5.57057" transform="translate(623.129, 141.517)" >G</text>
<text fill="#222222"  xml:space="preserve" font-size="7.42743" transform="translate(540.562, 164.144)" >sg13_lv_pmos</text>
<text fill="#666600"  xml:space="preserve" font-size="7.42743" transform="translate(575.67, 154.809)" >m=1</text>
<text fill="#666600"  xml:space="preserve" font-size="7.42743" transform="translate(572.67, 148.56)" >ng=1</text>
<text fill="#666600"  xml:space="preserve" font-size="7.42743" transform="translate(575.67, 139.632)" >l=5u</text>
<text fill="#666600"  xml:space="preserve" font-size="7.42743" transform="translate(564.67, 131.598)" >w=1.5u</text>
<text fill="#ff0000"  xml:space="preserve" font-size="5.57057" transform="translate(595.919, 161.157)" >D</text>
<text fill="#ff0000"  xml:space="preserve" font-size="5.57057" transform="translate(595.919, 129.771)" >S</text>
<text fill="#ff0000"  xml:space="preserve" font-size="5.57057" transform="translate(597.704, 141.517)" >B</text>
<text fill="#222222"  xml:space="preserve" font-size="7.42743" transform="translate(483.865, 436.015)" >M6</text>
<text fill="#ff0000"  xml:space="preserve" font-size="5.57057" transform="translate(494.578, 448.613)" >G</text>
<text fill="#222222"  xml:space="preserve" font-size="7.42743" transform="translate(412.011, 471.239)" >sg13_lv_nmos</text>
<text fill="#666600"  xml:space="preserve" font-size="7.42743" transform="translate(447.118, 461.904)" >m=1</text>
<text fill="#666600"  xml:space="preserve" font-size="7.42743" transform="translate(444.118, 455.655)" >ng=5</text>
<text fill="#666600"  xml:space="preserve" font-size="7.42743" transform="translate(447.118, 446.728)" >l=5u</text>
<text fill="#666600"  xml:space="preserve" font-size="7.42743" transform="translate(436.118, 438.693)" >w=2.5u</text>
<text fill="#ff0000"  xml:space="preserve" font-size="5.57057" transform="translate(467.367, 468.253)" >S</text>
<text fill="#ff0000"  xml:space="preserve" font-size="5.57057" transform="translate(467.367, 436.867)" >D</text>
<text fill="#ff0000"  xml:space="preserve" font-size="5.57057" transform="translate(469.153, 448.613)" >B</text>
<text fill="#222222"  xml:space="preserve" font-size="7.42743" transform="translate(537.141, 486.008)" >M9</text>
<text fill="#ff0000"  xml:space="preserve" font-size="5.57057" transform="translate(533.428, 498.605)" >G</text>
<text fill="#222222"  xml:space="preserve" font-size="7.42743" transform="translate(565.995, 521.232)" >sg13_lv_nmos</text>
<text fill="#666600"  xml:space="preserve" font-size="7.42743" transform="translate(566.888, 511.896)" >m=1</text>
<text fill="#666600"  xml:space="preserve" font-size="7.42743" transform="translate(566.888, 505.647)" >ng=1</text>
<text fill="#666600"  xml:space="preserve" font-size="7.42743" transform="translate(566.888, 496.72)" >l=0.13u</text>
<text fill="#666600"  xml:space="preserve" font-size="7.42743" transform="translate(566.888, 488.686)" >w=0.5u</text>
<text fill="#ff0000"  xml:space="preserve" font-size="5.57057" transform="translate(560.639, 518.245)" >S</text>
<text fill="#ff0000"  xml:space="preserve" font-size="5.57057" transform="translate(560.639, 486.859)" >D</text>
<text fill="#ff0000"  xml:space="preserve" font-size="5.57057" transform="translate(558.854, 498.605)" >B</text>
<text fill="#222222"  xml:space="preserve" font-size="7.42743" transform="translate(617.842, 71.7856)" >M11</text>
<text fill="#ff0000"  xml:space="preserve" font-size="5.57057" transform="translate(619.129, 84.3831)" >G</text>
<text fill="#222222"  xml:space="preserve" font-size="7.42743" transform="translate(651.696, 107.01)" >sg13_lv_pmos</text>
<text fill="#666600"  xml:space="preserve" font-size="7.42743" transform="translate(652.589, 97.6745)" >m=1</text>
<text fill="#666600"  xml:space="preserve" font-size="7.42743" transform="translate(652.589, 91.4255)" >ng=1</text>
<text fill="#666600"  xml:space="preserve" font-size="7.42743" transform="translate(652.589, 82.4983)" >l=0.13u</text>
<text fill="#666600"  xml:space="preserve" font-size="7.42743" transform="translate(652.589, 74.4638)" >w=1.5u</text>
<text fill="#ff0000"  xml:space="preserve" font-size="5.57057" transform="translate(646.34, 104.023)" >D</text>
<text fill="#ff0000"  xml:space="preserve" font-size="5.57057" transform="translate(646.34, 72.6374)" >S</text>
<text fill="#ff0000"  xml:space="preserve" font-size="5.57057" transform="translate(644.555, 84.3831)" >B</text>
<text fill="#0099cc"  xml:space="preserve" font-size="12.2553" transform="translate(58.9573, 341.307)" >ibias_20u</text>
<text fill="#0099cc"  xml:space="preserve" font-size="12.2553" transform="translate(93.1762, 40.9069)" >vdd</text>
<text fill="#0099cc"  xml:space="preserve" font-size="12.2553" transform="translate(97.1762, 540.83)" >vss</text>
<text fill="#0099cc"  xml:space="preserve" font-size="12.2553" transform="translate(90.9573, 234.181)" >vinp</text>
<text fill="#0099cc"  xml:space="preserve" font-size="12.2553" transform="translate(90.9573, 298.457)" >vinn</text>
<text fill="#0099cc"  xml:space="preserve" font-size="12.2553" transform="translate(844.524, 198.472)" >vout</text>
<text fill="#222222"  xml:space="preserve" font-size="7.42743" transform="translate(294.321, 486.008)" >M7</text>
<text fill="#ff0000"  xml:space="preserve" font-size="5.57057" transform="translate(290.609, 498.605)" >G</text>
<text fill="#222222"  xml:space="preserve" font-size="7.42743" transform="translate(323.176, 521.232)" >sg13_lv_nmos</text>
<text fill="#666600"  xml:space="preserve" font-size="7.42743" transform="translate(324.068, 511.896)" >m=1</text>
<text fill="#666600"  xml:space="preserve" font-size="7.42743" transform="translate(324.068, 505.647)" >ng=1</text>
<text fill="#666600"  xml:space="preserve" font-size="7.42743" transform="translate(324.068, 496.72)" >l=0.13u</text>
<text fill="#666600"  xml:space="preserve" font-size="7.42743" transform="translate(324.068, 488.686)" >w=0.5u</text>
<text fill="#ff0000"  xml:space="preserve" font-size="5.57057" transform="translate(317.819, 518.245)" >S</text>
<text fill="#ff0000"  xml:space="preserve" font-size="5.57057" transform="translate(317.819, 486.859)" >D</text>
<text fill="#ff0000"  xml:space="preserve" font-size="5.57057" transform="translate(316.034, 498.605)" >B</text>
<text fill="#222222"  xml:space="preserve" font-size="7.42743" transform="translate(294.321, 414.59)" >M8</text>
<text fill="#ff0000"  xml:space="preserve" font-size="5.57057" transform="translate(290.609, 427.188)" >G</text>
<text fill="#222222"  xml:space="preserve" font-size="7.42743" transform="translate(323.176, 449.814)" >sg13_lv_pmos</text>
<text fill="#666600"  xml:space="preserve" font-size="7.42743" transform="translate(324.068, 440.479)" >m=1</text>
<text fill="#666600"  xml:space="preserve" font-size="7.42743" transform="translate(324.068, 434.23)" >ng=1</text>
<text fill="#666600"  xml:space="preserve" font-size="7.42743" transform="translate(324.068, 425.303)" >l=0.13u</text>
<text fill="#666600"  xml:space="preserve" font-size="7.42743" transform="translate(324.068, 417.268)" >w=1.5u</text>
<text fill="#ff0000"  xml:space="preserve" font-size="5.57057" transform="translate(317.819, 446.827)" >D</text>
<text fill="#ff0000"  xml:space="preserve" font-size="5.57057" transform="translate(317.819, 415.442)" >S</text>
<text fill="#ff0000"  xml:space="preserve" font-size="5.57057" transform="translate(316.034, 427.188)" >B</text>
<text fill="#0099cc"  xml:space="preserve" font-size="12.2553" transform="translate(78.9573, 469.859)" >d_ena</text>
<text fill="#222222"  xml:space="preserve" font-size="7.42743" transform="translate(517.857, 357.456)" >M10</text>
<text fill="#ff0000"  xml:space="preserve" font-size="5.57057" transform="translate(519.145, 370.053)" >G</text>
<text fill="#222222"  xml:space="preserve" font-size="7.42743" transform="translate(551.712, 392.68)" >sg13_lv_nmos</text>
<text fill="#666600"  xml:space="preserve" font-size="7.42743" transform="translate(552.605, 383.345)" >m=1</text>
<text fill="#666600"  xml:space="preserve" font-size="7.42743" transform="translate(552.605, 377.096)" >ng=1</text>
<text fill="#666600"  xml:space="preserve" font-size="7.42743" transform="translate(552.605, 368.169)" >l=0.13u</text>
<text fill="#666600"  xml:space="preserve" font-size="7.42743" transform="translate(552.605, 360.134)" >w=0.5u</text>
<text fill="#ff0000"  xml:space="preserve" font-size="5.57057" transform="translate(546.356, 389.693)" >S</text>
<text fill="#ff0000"  xml:space="preserve" font-size="5.57057" transform="translate(546.356, 358.308)" >D</text>
<text fill="#ff0000"  xml:space="preserve" font-size="5.57057" transform="translate(544.57, 370.053)" >B</text>
<text fill="#0099cc"  xml:space="preserve" font-size="10.027" transform="translate(478.076, 497.4)" >ena_n</text>
<text fill="#0099cc"  xml:space="preserve" font-size="10.027" transform="translate(552.635, 447.407)" >gate_n</text>
<text fill="#0099cc"  xml:space="preserve" font-size="10.027" transform="translate(652.62, 140.312)" >gate_p</text>
<text fill="#0099cc"  xml:space="preserve" font-size="10.027" transform="translate(641.053, 333.139)" >tail</text>
<text fill="#222222"  xml:space="preserve" font-size="7.42743" transform="translate(175.053, 486.008)" >M12</text>
<text fill="#ff0000"  xml:space="preserve" font-size="5.57057" transform="translate(176.34, 498.605)" >G</text>
<text fill="#222222"  xml:space="preserve" font-size="7.42743" transform="translate(208.907, 521.232)" >sg13_lv_nmos</text>
<text fill="#666600"  xml:space="preserve" font-size="7.42743" transform="translate(209.8, 511.896)" >m=1</text>
<text fill="#666600"  xml:space="preserve" font-size="7.42743" transform="translate(209.8, 505.647)" >ng=1</text>
<text fill="#666600"  xml:space="preserve" font-size="7.42743" transform="translate(209.8, 496.72)" >l=0.13u</text>
<text fill="#666600"  xml:space="preserve" font-size="7.42743" transform="translate(209.8, 488.686)" >w=0.5u</text>
<text fill="#ff0000"  xml:space="preserve" font-size="5.57057" transform="translate(203.551, 518.245)" >S</text>
<text fill="#ff0000"  xml:space="preserve" font-size="5.57057" transform="translate(203.551, 486.859)" >D</text>
<text fill="#ff0000"  xml:space="preserve" font-size="5.57057" transform="translate(201.766, 498.605)" >B</text>
<text fill="#222222"  xml:space="preserve" font-size="7.42743" transform="translate(175.053, 414.59)" >M13</text>
<text fill="#ff0000"  xml:space="preserve" font-size="5.57057" transform="translate(176.34, 427.188)" >G</text>
<text fill="#222222"  xml:space="preserve" font-size="7.42743" transform="translate(208.907, 449.814)" >sg13_lv_pmos</text>
<text fill="#666600"  xml:space="preserve" font-size="7.42743" transform="translate(209.8, 440.479)" >m=1</text>
<text fill="#666600"  xml:space="preserve" font-size="7.42743" transform="translate(209.8, 434.23)" >ng=1</text>
<text fill="#666600"  xml:space="preserve" font-size="7.42743" transform="translate(209.8, 425.303)" >l=0.13u</text>
<text fill="#666600"  xml:space="preserve" font-size="7.42743" transform="translate(209.8, 417.268)" >w=1.5u</text>
<text fill="#ff0000"  xml:space="preserve" font-size="5.57057" transform="translate(203.551, 446.827)" >D</text>
<text fill="#ff0000"  xml:space="preserve" font-size="5.57057" transform="translate(203.551, 415.442)" >S</text>
<text fill="#ff0000"  xml:space="preserve" font-size="5.57057" transform="translate(201.766, 427.188)" >B</text>
<text fill="#0099cc"  xml:space="preserve" font-size="10.027" transform="translate(417.658, 368.848)" >ena</text>
<text fill="#aa2222"  xml:space="preserve" font-size="7.42743" style="font-family:Monospace;" transform="translate(933.796, 439.586)" >?</text>
<text fill="#229900"  xml:space="preserve" font-size="7.42743" transform="translate(930.225, 427.496)" >M5</text>
<text fill="#aa2222"  xml:space="preserve" font-size="7.42743" style="font-family:Monospace;" transform="translate(933.796, 289.609)" >?</text>
<text fill="#229900"  xml:space="preserve" font-size="7.42743" transform="translate(930.225, 277.519)" >M1</text>
<text fill="#aa2222"  xml:space="preserve" font-size="7.42743" style="font-family:Monospace;" transform="translate(1048.06, 289.609)" >?</text>
<text fill="#229900"  xml:space="preserve" font-size="7.42743" transform="translate(1044.49, 277.519)" >M2</text>
<text fill="#aa2222"  xml:space="preserve" font-size="7.42743" style="font-family:Monospace;" transform="translate(933.796, 146.774)" >?</text>
<text fill="#229900"  xml:space="preserve" font-size="7.42743" transform="translate(930.225, 134.684)" >M3</text>
<text fill="#aa2222"  xml:space="preserve" font-size="7.42743" style="font-family:Monospace;" transform="translate(1048.06, 146.774)" >?</text>
<text fill="#229900"  xml:space="preserve" font-size="7.42743" transform="translate(1044.49, 134.684)" >M4</text>
<path class="l1" d="M658.838 143.601L701.689 143.601"/>
<path class="l1" d="M601.704 179.31L601.704 207.877"/>
<path class="l1" d="M601.704 179.31L658.838 179.31"/>
<path class="l1" d="M601.704 165.026L601.704 179.31"/>
<path class="l1" d="M658.838 143.601L658.838 179.31"/>
<path class="l1" d="M644.555 143.601L658.838 143.601"/>
<path class="l1" d="M558.854 450.696L630.271 450.696"/>
<path class="l1" d="M558.854 450.696L558.854 479.264"/>
<path class="l1" d="M544.57 450.696L558.854 450.696"/>
<path class="l1" d="M473.153 472.122L473.153 536.398"/>
<path class="l1" d="M601.704 536.398L658.838 536.398"/>
<path class="l1" d="M658.838 472.122L658.838 536.398"/>
<path class="l1" d="M558.854 522.114L558.854 536.398"/>
<path class="l1" d="M473.153 536.398L558.854 536.398"/>
<path class="l1" d="M558.854 500.689L601.704 500.689"/>
<path class="l1" d="M601.704 500.689L601.704 536.398"/>
<path class="l1" d="M558.854 536.398L601.704 536.398"/>
<path class="l1" d="M658.838 450.696L701.689 450.696"/>
<path class="l1" d="M701.689 450.696L701.689 536.398"/>
<path class="l1" d="M658.838 536.398L701.689 536.398"/>
<path class="l1" d="M430.302 450.696L473.153 450.696"/>
<path class="l1" d="M430.302 450.696L430.302 536.398"/>
<path class="l1" d="M430.302 536.398L473.153 536.398"/>
<path class="l1" d="M601.704 36.4745L601.704 122.176"/>
<path class="l1" d="M644.555 36.4745L644.555 65.0415"/>
<path class="l1" d="M601.704 36.4745L644.555 36.4745"/>
<path class="l1" d="M730.256 36.4745L730.256 122.176"/>
<path class="l1" d="M644.555 86.4668L687.405 86.4668"/>
<path class="l1" d="M687.405 36.4745L687.405 86.4668"/>
<path class="l1" d="M644.555 36.4745L687.405 36.4745"/>
<path class="l1" d="M730.256 143.601L773.106 143.601"/>
<path class="l1" d="M773.106 36.4745L773.106 143.601"/>
<path class="l1" d="M730.256 36.4745L773.106 36.4745"/>
<path class="l1" d="M687.405 36.4745L730.256 36.4745"/>
<path class="l1" d="M558.854 143.601L601.704 143.601"/>
<path class="l1" d="M558.854 36.4745L558.854 143.601"/>
<path class="l1" d="M558.854 36.4745L601.704 36.4745"/>
<path class="l1" d="M701.689 229.302L730.256 229.302"/>
<path class="l1" d="M730.256 193.593L730.256 207.877"/>
<path class="l1" d="M601.704 250.727L601.704 279.294"/>
<path class="l1" d="M658.838 279.294L730.256 279.294"/>
<path class="l1" d="M730.256 250.727L730.256 279.294"/>
<path class="l1" d="M601.704 229.302L701.689 229.302"/>
<path class="l1" d="M601.704 279.294L658.838 279.294"/>
<path class="l1" d="M316.034 522.114L316.034 536.398"/>
<path class="l1" d="M273.183 429.271L287.467 429.271"/>
<path class="l1" d="M273.183 500.689L287.467 500.689"/>
<path class="l1" d="M401.735 472.122L401.735 500.689"/>
<path class="l1" d="M501.72 450.696L544.57 450.696"/>
<path class="l1" d="M787.39 229.302L787.39 293.578"/>
<path class="l1" d="M544.57 393.562L544.57 450.696"/>
<path class="l1" d="M701.689 229.302L701.689 450.696"/>
<path class="l1" d="M658.838 279.294L658.838 429.271"/>
<path class="l1" d="M273.183 472.122L273.183 500.689"/>
<path class="l1" d="M473.153 336.428L473.153 429.271"/>
<path class="l1" d="M401.735 372.137L516.003 372.137"/>
<path class="l1" d="M316.034 500.689L358.884 500.689"/>
<path class="l1" d="M358.884 500.689L358.884 536.398"/>
<path class="l1" d="M544.57 336.428L544.57 350.712"/>
<path class="l1" d="M544.57 372.137L601.704 372.137"/>
<path class="l1" d="M601.704 372.137L601.704 500.689"/>
<path class="l1" d="M401.735 500.689L530.287 500.689"/>
<path class="l1" d="M644.555 107.892L644.555 143.601"/>
<path class="l1" d="M630.271 143.601L644.555 143.601"/>
<path class="l1" d="M316.034 536.398L358.884 536.398"/>
<path class="l1" d="M316.034 457.838L316.034 479.264"/>
<path class="l1" d="M316.034 393.562L316.034 407.846"/>
<path class="l1" d="M316.034 393.562L358.884 393.562"/>
<path class="l1" d="M358.884 393.562L358.884 429.271"/>
<path class="l1" d="M316.034 429.271L358.884 429.271"/>
<path class="l1" d="M316.034 36.4745L316.034 393.562"/>
<path class="l1" d="M316.034 36.4745L558.854 36.4745"/>
<path class="l1" d="M473.153 336.428L544.57 336.428"/>
<path class="l1" d="M130.348 336.428L473.153 336.428"/>
<path class="l1" d="M130.348 229.302L573.137 229.302"/>
<path class="l1" d="M201.766 522.114L201.766 536.398"/>
<path class="l1" d="M158.915 429.271L173.199 429.271"/>
<path class="l1" d="M158.915 500.689L173.199 500.689"/>
<path class="l1" d="M158.915 464.98L158.915 500.689"/>
<path class="l1" d="M201.766 500.689L244.616 500.689"/>
<path class="l1" d="M244.616 500.689L244.616 536.398"/>
<path class="l1" d="M201.766 536.398L244.616 536.398"/>
<path class="l1" d="M201.766 464.98L201.766 479.264"/>
<path class="l1" d="M201.766 393.562L201.766 407.846"/>
<path class="l1" d="M201.766 393.562L244.616 393.562"/>
<path class="l1" d="M244.616 393.562L244.616 429.271"/>
<path class="l1" d="M201.766 429.271L244.616 429.271"/>
<path class="l1" d="M130.348 464.98L158.915 464.98"/>
<path class="l1" d="M158.915 429.271L158.915 464.98"/>
<path class="l1" d="M130.348 536.398L201.766 536.398"/>
<path class="l1" d="M201.766 36.4745L201.766 393.562"/>
<path class="l1" d="M130.348 36.4745L201.766 36.4745"/>
<path class="l1" d="M201.766 450.696L201.766 464.98"/>
<path class="l1" d="M273.183 429.271L273.183 464.98"/>
<path class="l1" d="M273.183 464.98L273.183 472.122"/>
<path class="l1" d="M316.034 450.696L316.034 457.838"/>
<path class="l1" d="M401.735 372.137L401.735 457.838"/>
<path class="l1" d="M401.735 86.4668L401.735 372.137"/>
<path class="l1" d="M401.735 86.4668L615.988 86.4668"/>
<path class="l1" d="M273.183 472.122L401.735 472.122"/>
<path class="l1" d="M358.884 536.398L430.302 536.398"/>
<path class="l1" d="M316.034 457.838L401.735 457.838"/>
<path class="l1" d="M244.616 536.398L316.034 536.398"/>
<path class="l1" d="M201.766 36.4745L316.034 36.4745"/>
<path class="l1" d="M201.766 464.98L273.183 464.98"/>
<path class="l1" d="M758.823 229.302L787.39 229.302"/>
<path class="l1" d="M130.348 293.578L787.39 293.578"/>
<path class="l1" d="M730.256 193.593L830.24 193.593"/>
<path class="l1" d="M730.256 165.026L730.256 193.593"/>
<circle class="l1" cx="201.766" cy="36.4745" r="2.64245"/>
<circle class="l1" cx="316.034" cy="36.4745" r="2.64245"/>
<circle class="l1" cx="201.766" cy="36.4745" r="2.64245"/>
<circle class="l1" cx="201.766" cy="36.4745" r="2.64245"/>
<circle class="l1" cx="201.766" cy="393.562" r="2.64245"/>
<circle class="l1" cx="473.153" cy="336.428" r="2.64245"/>
<circle class="l1" cx="201.766" cy="464.98" r="2.64245"/>
<circle class="l1" cx="273.183" cy="464.98" r="2.64245"/>
<circle class="l1" cx="244.616" cy="536.398" r="2.64245"/>
<circle class="l1" cx="316.034" cy="536.398" r="2.64245"/>
<circle class="l1" cx="273.183" cy="472.122" r="2.64245"/>
<circle class="l1" cx="273.183" cy="464.98" r="2.64245"/>
<circle class="l1" cx="273.183" cy="472.122" r="2.64245"/>
<circle class="l1" cx="273.183" cy="464.98" r="2.64245"/>
<circle class="l1" cx="201.766" cy="464.98" r="2.64245"/>
<circle class="l1" cx="201.766" cy="536.398" r="2.64245"/>
<circle class="l1" cx="158.915" cy="464.98" r="2.64245"/>
<circle class="l1" cx="158.915" cy="464.98" r="2.64245"/>
<circle class="l1" cx="201.766" cy="393.562" r="2.64245"/>
<circle class="l1" cx="201.766" cy="393.562" r="2.64245"/>
<circle class="l1" cx="201.766" cy="464.98" r="2.64245"/>
<circle class="l1" cx="201.766" cy="536.398" r="2.64245"/>
<circle class="l1" cx="244.616" cy="536.398" r="2.64245"/>
<circle class="l1" cx="244.616" cy="536.398" r="2.64245"/>
<circle class="l1" cx="158.915" cy="464.98" r="2.64245"/>
<circle class="l1" cx="201.766" cy="536.398" r="2.64245"/>
<circle class="l1" cx="273.183" cy="472.122" r="2.64245"/>
<circle class="l1" cx="316.034" cy="36.4745" r="2.64245"/>
<circle class="l1" cx="558.854" cy="36.4745" r="2.64245"/>
<circle class="l1" cx="316.034" cy="36.4745" r="2.64245"/>
<circle class="l1" cx="316.034" cy="393.562" r="2.64245"/>
<circle class="l1" cx="558.854" cy="36.4745" r="2.64245"/>
<circle class="l1" cx="601.704" cy="36.4745" r="2.64245"/>
<circle class="l1" cx="558.854" cy="36.4745" r="2.64245"/>
<circle class="l1" cx="401.735" cy="372.137" r="2.64245"/>
<circle class="l1" cx="473.153" cy="336.428" r="2.64245"/>
<circle class="l1" cx="473.153" cy="336.428" r="2.64245"/>
<circle class="l1" cx="316.034" cy="457.838" r="2.64245"/>
<circle class="l1" cx="358.884" cy="536.398" r="2.64245"/>
<circle class="l1" cx="430.302" cy="536.398" r="2.64245"/>
<circle class="l1" cx="401.735" cy="372.137" r="2.64245"/>
<circle class="l1" cx="316.034" cy="457.838" r="2.64245"/>
<circle class="l1" cx="316.034" cy="393.562" r="2.64245"/>
<circle class="l1" cx="316.034" cy="393.562" r="2.64245"/>
<circle class="l1" cx="316.034" cy="457.838" r="2.64245"/>
<circle class="l1" cx="316.034" cy="536.398" r="2.64245"/>
<circle class="l1" cx="358.884" cy="536.398" r="2.64245"/>
<circle class="l1" cx="358.884" cy="536.398" r="2.64245"/>
<circle class="l1" cx="401.735" cy="372.137" r="2.64245"/>
<circle class="l1" cx="544.57" cy="450.696" r="2.64245"/>
<circle class="l1" cx="544.57" cy="450.696" r="2.64245"/>
<circle class="l1" cx="316.034" cy="536.398" r="2.64245"/>
<circle class="l1" cx="430.302" cy="536.398" r="2.64245"/>
<circle class="l1" cx="473.153" cy="536.398" r="2.64245"/>
<circle class="l1" cx="430.302" cy="536.398" r="2.64245"/>
<circle class="l1" cx="558.854" cy="536.398" r="2.64245"/>
<circle class="l1" cx="601.704" cy="536.398" r="2.64245"/>
<circle class="l1" cx="601.704" cy="500.689" r="2.64245"/>
<circle class="l1" cx="473.153" cy="536.398" r="2.64245"/>
<circle class="l1" cx="558.854" cy="536.398" r="2.64245"/>
<circle class="l1" cx="558.854" cy="536.398" r="2.64245"/>
<circle class="l1" cx="473.153" cy="536.398" r="2.64245"/>
<circle class="l1" cx="544.57" cy="450.696" r="2.64245"/>
<circle class="l1" cx="558.854" cy="450.696" r="2.64245"/>
<circle class="l1" cx="558.854" cy="450.696" r="2.64245"/>
<circle class="l1" cx="558.854" cy="450.696" r="2.64245"/>
<circle class="l1" cx="687.405" cy="36.4745" r="2.64245"/>
<circle class="l1" cx="730.256" cy="36.4745" r="2.64245"/>
<circle class="l1" cx="730.256" cy="36.4745" r="2.64245"/>
<circle class="l1" cx="644.555" cy="36.4745" r="2.64245"/>
<circle class="l1" cx="687.405" cy="36.4745" r="2.64245"/>
<circle class="l1" cx="687.405" cy="36.4745" r="2.64245"/>
<circle class="l1" cx="730.256" cy="36.4745" r="2.64245"/>
<circle class="l1" cx="601.704" cy="36.4745" r="2.64245"/>
<circle class="l1" cx="644.555" cy="36.4745" r="2.64245"/>
<circle class="l1" cx="644.555" cy="36.4745" r="2.64245"/>
<circle class="l1" cx="601.704" cy="36.4745" r="2.64245"/>
<circle class="l1" cx="730.256" cy="193.593" r="2.64245"/>
<circle class="l1" cx="730.256" cy="193.593" r="2.64245"/>
<circle class="l1" cx="644.555" cy="143.601" r="2.64245"/>
<circle class="l1" cx="644.555" cy="143.601" r="2.64245"/>
<circle class="l1" cx="658.838" cy="279.294" r="2.64245"/>
<circle class="l1" cx="701.689" cy="229.302" r="2.64245"/>
<circle class="l1" cx="701.689" cy="450.696" r="2.64245"/>
<circle class="l1" cx="658.838" cy="279.294" r="2.64245"/>
<circle class="l1" cx="701.689" cy="229.302" r="2.64245"/>
<circle class="l1" cx="658.838" cy="279.294" r="2.64245"/>
<circle class="l1" cx="730.256" cy="193.593" r="2.64245"/>
<circle class="l1" cx="701.689" cy="229.302" r="2.64245"/>
<circle class="l1" cx="644.555" cy="143.601" r="2.64245"/>
<circle class="l1" cx="658.838" cy="143.601" r="2.64245"/>
<circle class="l1" cx="658.838" cy="143.601" r="2.64245"/>
<circle class="l1" cx="601.704" cy="179.31" r="2.64245"/>
<circle class="l1" cx="601.704" cy="179.31" r="2.64245"/>
<circle class="l1" cx="601.704" cy="179.31" r="2.64245"/>
<circle class="l1" cx="658.838" cy="143.601" r="2.64245"/>
<circle class="l1" cx="601.704" cy="500.689" r="2.64245"/>
<circle class="l1" cx="658.838" cy="536.398" r="2.64245"/>
<circle class="l1" cx="701.689" cy="450.696" r="2.64245"/>
<circle class="l1" cx="701.689" cy="450.696" r="2.64245"/>
<circle class="l1" cx="601.704" cy="500.689" r="2.64245"/>
<circle class="l1" cx="601.704" cy="536.398" r="2.64245"/>
<circle class="l1" cx="658.838" cy="536.398" r="2.64245"/>
<circle class="l1" cx="601.704" cy="536.398" r="2.64245"/>
<circle class="l1" cx="658.838" cy="536.398" r="2.64245"/>
<text fill="#222222"  xml:space="preserve" font-size="14.8549" transform="translate(280.325, 28.5374)" >1.45 &lt; 1.5(nom) &lt; 1.55V</text>
<text fill="#222222"  xml:space="preserve" font-size="14.8549" transform="translate(644.555, 557.028)" >4uA</text>
<text fill="#222222"  xml:space="preserve" font-size="14.8549" transform="translate(416.018, 264.215)" >0.7 &lt; 0.8(nom) &lt; 0.9V</text>
<text fill="#222222"  xml:space="preserve" font-size="11.1411" transform="translate(551.712, 433.75)" >~0.7V</text>
<text fill="#222222"  xml:space="preserve" font-size="11.1411" transform="translate(630.271, 269.49)" >~0.38V</text>
<text fill="#222222"  xml:space="preserve" font-size="11.1411" transform="translate(630.271, 190.93)" >~0.78V</text>
</svg>
