<svg xmlns="http://www.w3.org/2000/svg" xmlns:xlink="http://www.w3.org/1999/xlink" width="900" height="532" version="1.1">
<style type="text/css">
.l0{
  fill: #ffffff;
  stroke: #ffffff;
  stroke-linecap:round;
  stroke-linejoin:round;
  stroke-width: 0.622012;
}
.l1{
  fill: #0044ee;
  stroke: #0044ee;
  stroke-linecap:round;
  stroke-linejoin:round;
  stroke-width: 0.622012;
}
.l2{
  fill: #aaaaaa; fill-opacity: 0.2;
  stroke: #aaaaaa;
  stroke-linecap:round;
  stroke-linejoin:round;
  stroke-width: 0.622012;
}
.l3{
  fill: #222222; fill-opacity: 0.5;
  stroke: #222222;
  stroke-linecap:round;
  stroke-linejoin:round;
  stroke-width: 0.622012;
}
.l4{
  fill: #229900;
  stroke: #229900;
  stroke-linecap:round;
  stroke-linejoin:round;
  stroke-width: 0.622012;
}
.l5{
  fill: #bb2200;
  stroke: #bb2200;
  stroke-linecap:round;
  stroke-linejoin:round;
  stroke-width: 0.622012;
}
.l6{
  fill: #00ccee; fill-opacity: 0.5;
  stroke: #00ccee;
  stroke-linecap:round;
  stroke-linejoin:round;
  stroke-width: 0.622012;
}
.l7{
  fill: #ff0000; fill-opacity: 0.5;
  stroke: #ff0000;
  stroke-linecap:round;
  stroke-linejoin:round;
  stroke-width: 0.622012;
}
.l8{
  fill: #888800; fill-opacity: 0.5;
  stroke: #888800;
  stroke-linecap:round;
  stroke-linejoin:round;
  stroke-width: 0.622012;
}
.l9{
  fill: #00aaaa; fill-opacity: 0.5;
  stroke: #00aaaa;
  stroke-linecap:round;
  stroke-linejoin:round;
  stroke-width: 0.622012;
}
.l10{
  fill: #880088;
  stroke: #880088;
  stroke-linecap:round;
  stroke-linejoin:round;
  stroke-width: 0.622012;
}
.l11{
  fill: #00ff00; fill-opacity: 0.5;
  stroke: #00ff00;
  stroke-linecap:round;
  stroke-linejoin:round;
  stroke-width: 0.622012;
}
.l12{
  fill: #0000cc; fill-opacity: 0.5;
  stroke: #0000cc;
  stroke-linecap:round;
  stroke-linejoin:round;
  stroke-width: 0.622012;
}
.l13{
  fill: #666600; fill-opacity: 0.5;
  stroke: #666600;
  stroke-linecap:round;
  stroke-linejoin:round;
  stroke-width: 0.622012;
}
.l14{
  fill: #557755; fill-opacity: 0.2;
  stroke: #557755;
  stroke-linecap:round;
  stroke-linejoin:round;
  stroke-width: 0.622012;
}
.l15{
  fill: #aa2222; fill-opacity: 0.5;
  stroke: #aa2222;
  stroke-linecap:round;
  stroke-linejoin:round;
  stroke-width: 0.622012;
}
.l16{
  fill: #7ccc40; fill-opacity: 0.5;
  stroke: #7ccc40;
  stroke-linecap:round;
  stroke-linejoin:round;
  stroke-width: 0.622012;
}
.l17{
  fill: #00ffcc; fill-opacity: 0.2;
  stroke: #00ffcc;
  stroke-linecap:round;
  stroke-linejoin:round;
  stroke-width: 0.622012;
}
.l18{
  fill: #ce0097; fill-opacity: 0.5;
  stroke: #ce0097;
  stroke-linecap:round;
  stroke-linejoin:round;
  stroke-width: 0.622012;
}
.l19{
  fill: #d2d46b; fill-opacity: 0.2;
  stroke: #d2d46b;
  stroke-linecap:round;
  stroke-linejoin:round;
  stroke-width: 0.622012;
}
.l20{
  fill: #ef6158; fill-opacity: 0.2;
  stroke: #ef6158;
  stroke-linecap:round;
  stroke-linejoin:round;
  stroke-width: 0.622012;
}
.l21{
  fill: #fdb200; fill-opacity: 0.2;
  stroke: #fdb200;
  stroke-linecap:round;
  stroke-linejoin:round;
  stroke-width: 0.622012;
}
text {font-family: Sans-Serif;}
</style>
<rect class="l0" x="0" y="0" width="900" height="532"/>
<text fill="#0044ee"  xml:space="preserve" font-size="9.88309" transform="translate(66.0687, 271.086)" >ibias_20u</text>
<text fill="#0044ee"  xml:space="preserve" font-size="9.88309" transform="translate(93.4387, 28.8326)" >vdd</text>
<text fill="#0044ee"  xml:space="preserve" font-size="9.88309" transform="translate(95.4387, 431.989)" >vss</text>
<text fill="#0044ee"  xml:space="preserve" font-size="9.88309" transform="translate(91.0687, 184.696)" >vinp</text>
<text fill="#0044ee"  xml:space="preserve" font-size="9.88309" transform="translate(91.0687, 236.53)" >vinn</text>
<text fill="#0044ee"  xml:space="preserve" font-size="9.88309" transform="translate(698.805, 155.899)" >vout</text>
<text fill="#0044ee"  xml:space="preserve" font-size="9.88309" transform="translate(83.0687, 374.755)" >d_ena</text>
<text fill="#0044ee"  xml:space="preserve" font-size="8.08616" transform="translate(402.675, 396.965)" >ena_n</text>
<text fill="#0044ee"  xml:space="preserve" font-size="8.08616" transform="translate(463.028, 356.649)" >gate_n</text>
<text fill="#0044ee"  xml:space="preserve" font-size="8.08616" transform="translate(543.659, 108.996)" >gate_p</text>
<text fill="#0044ee"  xml:space="preserve" font-size="8.08616" transform="translate(535.621, 264.499)" >tail</text>
<text fill="#0044ee"  xml:space="preserve" font-size="8.08616" transform="translate(354.081, 293.296)" >ena</text>
<text fill="#222222"  xml:space="preserve" font-size="11.9795" transform="translate(258.213, 517.043)" >         ota-5t.sch</text>
<text fill="#222222"  xml:space="preserve" font-size="11.9795" transform="translate(258.213, 499.765)" >(c) 2024-2025 H. Pretl, Apache-2.0 license</text>
<text fill="#222222"  xml:space="preserve" font-size="11.9795" transform="translate(574.324, 499.765)" >2025-03-16  11:57:53</text>
<text fill="#222222"  xml:space="preserve" font-size="29.9488" transform="translate(125.747, 516.081)" >SCHEM</text>
<text fill="#222222"  xml:space="preserve" font-size="5.98975" transform="translate(531.422, 347.462)" >M5</text>
<text fill="#ff0000"  xml:space="preserve" font-size="4.49231" transform="translate(527.783, 357.622)" >G</text>
<text fill="#222222"  xml:space="preserve" font-size="5.98975" transform="translate(554.821, 375.868)" >sg13_lv_nmos</text>
<text fill="#666600"  xml:space="preserve" font-size="5.98975" transform="translate(555.541, 368.34)" >m=1</text>
<text fill="#666600"  xml:space="preserve" font-size="5.98975" transform="translate(555.541, 363.301)" >ng=1</text>
<text fill="#666600"  xml:space="preserve" font-size="5.98975" transform="translate(555.541, 356.102)" >l=5u</text>
<text fill="#666600"  xml:space="preserve" font-size="5.98975" transform="translate(555.541, 349.622)" >w=0.5u</text>
<text fill="#ff0000"  xml:space="preserve" font-size="4.49231" transform="translate(550.501, 373.46)" >S</text>
<text fill="#ff0000"  xml:space="preserve" font-size="4.49231" transform="translate(550.501, 348.149)" >D</text>
<text fill="#ff0000"  xml:space="preserve" font-size="4.49231" transform="translate(549.061, 357.622)" >B</text>
<text fill="#222222"  xml:space="preserve" font-size="5.98975" transform="translate(589.016, 99.8093)" >M4</text>
<text fill="#ff0000"  xml:space="preserve" font-size="4.49231" transform="translate(585.377, 109.968)" >G</text>
<text fill="#222222"  xml:space="preserve" font-size="5.98975" transform="translate(612.414, 128.215)" >sg13_lv_pmos</text>
<text fill="#666600"  xml:space="preserve" font-size="5.98975" transform="translate(613.134, 120.687)" >m=1</text>
<text fill="#666600"  xml:space="preserve" font-size="5.98975" transform="translate(613.134, 115.648)" >ng=1</text>
<text fill="#666600"  xml:space="preserve" font-size="5.98975" transform="translate(613.134, 108.448)" >l=5u</text>
<text fill="#666600"  xml:space="preserve" font-size="5.98975" transform="translate(613.134, 101.969)" >w=1.5u</text>
<text fill="#ff0000"  xml:space="preserve" font-size="4.49231" transform="translate(608.095, 125.807)" >D</text>
<text fill="#ff0000"  xml:space="preserve" font-size="4.49231" transform="translate(608.095, 100.496)" >S</text>
<text fill="#ff0000"  xml:space="preserve" font-size="4.49231" transform="translate(606.655, 109.968)" >B</text>
<text fill="#222222"  xml:space="preserve" font-size="5.98975" transform="translate(485.347, 168.922)" >M1</text>
<text fill="#ff0000"  xml:space="preserve" font-size="4.49231" transform="translate(481.708, 179.081)" >G</text>
<text fill="#222222"  xml:space="preserve" font-size="5.98975" transform="translate(508.746, 197.328)" >sg13_lv_nmos</text>
<text fill="#666600"  xml:space="preserve" font-size="5.98975" transform="translate(509.466, 189.8)" >m=1</text>
<text fill="#666600"  xml:space="preserve" font-size="5.98975" transform="translate(509.466, 184.76)" >ng=1</text>
<text fill="#666600"  xml:space="preserve" font-size="5.98975" transform="translate(509.466, 177.561)" >l=5u</text>
<text fill="#666600"  xml:space="preserve" font-size="5.98975" transform="translate(509.466, 171.082)" >w=2u</text>
<text fill="#ff0000"  xml:space="preserve" font-size="4.49231" transform="translate(504.426, 194.919)" >S</text>
<text fill="#ff0000"  xml:space="preserve" font-size="4.49231" transform="translate(504.426, 169.609)" >D</text>
<text fill="#ff0000"  xml:space="preserve" font-size="4.49231" transform="translate(502.986, 179.081)" >B</text>
<text fill="#222222"  xml:space="preserve" font-size="5.98975" transform="translate(615.294, 168.922)" >M2</text>
<text fill="#ff0000"  xml:space="preserve" font-size="4.49231" transform="translate(623.933, 179.081)" >G</text>
<text fill="#222222"  xml:space="preserve" font-size="5.98975" transform="translate(556.896, 197.328)" >sg13_lv_nmos</text>
<text fill="#666600"  xml:space="preserve" font-size="5.98975" transform="translate(585.176, 189.8)" >m=1</text>
<text fill="#666600"  xml:space="preserve" font-size="5.98975" transform="translate(583.176, 184.76)" >ng=1</text>
<text fill="#666600"  xml:space="preserve" font-size="5.98975" transform="translate(585.176, 177.561)" >l=5u</text>
<text fill="#666600"  xml:space="preserve" font-size="5.98975" transform="translate(582.176, 171.082)" >w=2u</text>
<text fill="#ff0000"  xml:space="preserve" font-size="4.49231" transform="translate(602.215, 194.919)" >S</text>
<text fill="#ff0000"  xml:space="preserve" font-size="4.49231" transform="translate(601.215, 169.609)" >D</text>
<text fill="#ff0000"  xml:space="preserve" font-size="4.49231" transform="translate(603.655, 179.081)" >B</text>
<text fill="#222222"  xml:space="preserve" font-size="5.98975" transform="translate(511.625, 99.8093)" >M3</text>
<text fill="#ff0000"  xml:space="preserve" font-size="4.49231" transform="translate(520.264, 109.968)" >G</text>
<text fill="#222222"  xml:space="preserve" font-size="5.98975" transform="translate(453.227, 128.215)" >sg13_lv_pmos</text>
<text fill="#666600"  xml:space="preserve" font-size="5.98975" transform="translate(481.507, 120.687)" >m=1</text>
<text fill="#666600"  xml:space="preserve" font-size="5.98975" transform="translate(479.507, 115.648)" >ng=1</text>
<text fill="#666600"  xml:space="preserve" font-size="5.98975" transform="translate(481.507, 108.448)" >l=5u</text>
<text fill="#666600"  xml:space="preserve" font-size="5.98975" transform="translate(472.507, 101.969)" >w=1.5u</text>
<text fill="#ff0000"  xml:space="preserve" font-size="4.49231" transform="translate(497.546, 125.807)" >D</text>
<text fill="#ff0000"  xml:space="preserve" font-size="4.49231" transform="translate(498.546, 100.496)" >S</text>
<text fill="#ff0000"  xml:space="preserve" font-size="4.49231" transform="translate(499.986, 109.968)" >B</text>
<text fill="#222222"  xml:space="preserve" font-size="5.98975" transform="translate(407.957, 347.462)" >M6</text>
<text fill="#ff0000"  xml:space="preserve" font-size="4.49231" transform="translate(416.596, 357.622)" >G</text>
<text fill="#222222"  xml:space="preserve" font-size="5.98975" transform="translate(349.558, 375.868)" >sg13_lv_nmos</text>
<text fill="#666600"  xml:space="preserve" font-size="5.98975" transform="translate(377.838, 368.34)" >m=1</text>
<text fill="#666600"  xml:space="preserve" font-size="5.98975" transform="translate(375.838, 363.301)" >ng=5</text>
<text fill="#666600"  xml:space="preserve" font-size="5.98975" transform="translate(377.838, 356.102)" >l=5u</text>
<text fill="#666600"  xml:space="preserve" font-size="5.98975" transform="translate(368.838, 349.622)" >w=2.5u</text>
<text fill="#ff0000"  xml:space="preserve" font-size="4.49231" transform="translate(394.878, 373.46)" >S</text>
<text fill="#ff0000"  xml:space="preserve" font-size="4.49231" transform="translate(393.878, 348.149)" >D</text>
<text fill="#ff0000"  xml:space="preserve" font-size="4.49231" transform="translate(396.317, 357.622)" >B</text>
<text fill="#222222"  xml:space="preserve" font-size="5.98975" transform="translate(450.791, 387.778)" >M9</text>
<text fill="#ff0000"  xml:space="preserve" font-size="4.49231" transform="translate(447.152, 397.937)" >G</text>
<text fill="#222222"  xml:space="preserve" font-size="5.98975" transform="translate(474.189, 416.184)" >sg13_lv_nmos</text>
<text fill="#666600"  xml:space="preserve" font-size="5.98975" transform="translate(474.909, 408.656)" >m=1</text>
<text fill="#666600"  xml:space="preserve" font-size="5.98975" transform="translate(474.909, 403.616)" >ng=1</text>
<text fill="#666600"  xml:space="preserve" font-size="5.98975" transform="translate(474.909, 396.417)" >l=0.13u</text>
<text fill="#666600"  xml:space="preserve" font-size="5.98975" transform="translate(474.909, 389.938)" >w=0.5u</text>
<text fill="#ff0000"  xml:space="preserve" font-size="4.49231" transform="translate(469.87, 413.775)" >S</text>
<text fill="#ff0000"  xml:space="preserve" font-size="4.49231" transform="translate(469.87, 388.465)" >D</text>
<text fill="#ff0000"  xml:space="preserve" font-size="4.49231" transform="translate(468.43, 397.937)" >B</text>
<text fill="#222222"  xml:space="preserve" font-size="5.98975" transform="translate(515.903, 53.7343)" >M11</text>
<text fill="#ff0000"  xml:space="preserve" font-size="4.49231" transform="translate(516.264, 63.8934)" >G</text>
<text fill="#222222"  xml:space="preserve" font-size="5.98975" transform="translate(543.302, 82.1402)" >sg13_lv_pmos</text>
<text fill="#666600"  xml:space="preserve" font-size="5.98975" transform="translate(544.022, 74.6121)" >m=1</text>
<text fill="#666600"  xml:space="preserve" font-size="5.98975" transform="translate(544.022, 69.5726)" >ng=1</text>
<text fill="#666600"  xml:space="preserve" font-size="5.98975" transform="translate(544.022, 62.3734)" >l=0.13u</text>
<text fill="#666600"  xml:space="preserve" font-size="5.98975" transform="translate(544.022, 55.8941)" >w=1.5u</text>
<text fill="#ff0000"  xml:space="preserve" font-size="4.49231" transform="translate(538.982, 79.7317)" >D</text>
<text fill="#ff0000"  xml:space="preserve" font-size="4.49231" transform="translate(538.982, 54.4212)" >S</text>
<text fill="#ff0000"  xml:space="preserve" font-size="4.49231" transform="translate(537.542, 63.8934)" >B</text>
<text fill="#222222"  xml:space="preserve" font-size="5.98975" transform="translate(254.972, 387.778)" >M7</text>
<text fill="#ff0000"  xml:space="preserve" font-size="4.49231" transform="translate(251.333, 397.937)" >G</text>
<text fill="#222222"  xml:space="preserve" font-size="5.98975" transform="translate(278.371, 416.184)" >sg13_lv_nmos</text>
<text fill="#666600"  xml:space="preserve" font-size="5.98975" transform="translate(279.091, 408.656)" >m=1</text>
<text fill="#666600"  xml:space="preserve" font-size="5.98975" transform="translate(279.091, 403.616)" >ng=1</text>
<text fill="#666600"  xml:space="preserve" font-size="5.98975" transform="translate(279.091, 396.417)" >l=0.13u</text>
<text fill="#666600"  xml:space="preserve" font-size="5.98975" transform="translate(279.091, 389.938)" >w=0.5u</text>
<text fill="#ff0000"  xml:space="preserve" font-size="4.49231" transform="translate(274.051, 413.775)" >S</text>
<text fill="#ff0000"  xml:space="preserve" font-size="4.49231" transform="translate(274.051, 388.465)" >D</text>
<text fill="#ff0000"  xml:space="preserve" font-size="4.49231" transform="translate(272.611, 397.937)" >B</text>
<text fill="#222222"  xml:space="preserve" font-size="5.98975" transform="translate(254.972, 330.184)" >M8</text>
<text fill="#ff0000"  xml:space="preserve" font-size="4.49231" transform="translate(251.333, 340.343)" >G</text>
<text fill="#222222"  xml:space="preserve" font-size="5.98975" transform="translate(278.371, 358.59)" >sg13_lv_pmos</text>
<text fill="#666600"  xml:space="preserve" font-size="5.98975" transform="translate(279.091, 351.062)" >m=1</text>
<text fill="#666600"  xml:space="preserve" font-size="5.98975" transform="translate(279.091, 346.023)" >ng=1</text>
<text fill="#666600"  xml:space="preserve" font-size="5.98975" transform="translate(279.091, 338.823)" >l=0.13u</text>
<text fill="#666600"  xml:space="preserve" font-size="5.98975" transform="translate(279.091, 332.344)" >w=1.5u</text>
<text fill="#ff0000"  xml:space="preserve" font-size="4.49231" transform="translate(274.051, 356.182)" >D</text>
<text fill="#ff0000"  xml:space="preserve" font-size="4.49231" transform="translate(274.051, 330.871)" >S</text>
<text fill="#ff0000"  xml:space="preserve" font-size="4.49231" transform="translate(272.611, 340.343)" >B</text>
<text fill="#222222"  xml:space="preserve" font-size="5.98975" transform="translate(435.272, 284.109)" >M10</text>
<text fill="#ff0000"  xml:space="preserve" font-size="4.49231" transform="translate(435.633, 294.268)" >G</text>
<text fill="#222222"  xml:space="preserve" font-size="5.98975" transform="translate(462.671, 312.515)" >sg13_lv_nmos</text>
<text fill="#666600"  xml:space="preserve" font-size="5.98975" transform="translate(463.391, 304.987)" >m=1</text>
<text fill="#666600"  xml:space="preserve" font-size="5.98975" transform="translate(463.391, 299.948)" >ng=1</text>
<text fill="#666600"  xml:space="preserve" font-size="5.98975" transform="translate(463.391, 292.748)" >l=0.13u</text>
<text fill="#666600"  xml:space="preserve" font-size="5.98975" transform="translate(463.391, 286.269)" >w=0.5u</text>
<text fill="#ff0000"  xml:space="preserve" font-size="4.49231" transform="translate(458.351, 310.107)" >S</text>
<text fill="#ff0000"  xml:space="preserve" font-size="4.49231" transform="translate(458.351, 284.796)" >D</text>
<text fill="#ff0000"  xml:space="preserve" font-size="4.49231" transform="translate(456.911, 294.268)" >B</text>
<text fill="#222222"  xml:space="preserve" font-size="5.98975" transform="translate(158.822, 387.778)" >M12</text>
<text fill="#ff0000"  xml:space="preserve" font-size="4.49231" transform="translate(159.183, 397.937)" >G</text>
<text fill="#222222"  xml:space="preserve" font-size="5.98975" transform="translate(186.221, 416.184)" >sg13_lv_nmos</text>
<text fill="#666600"  xml:space="preserve" font-size="5.98975" transform="translate(186.941, 408.656)" >m=1</text>
<text fill="#666600"  xml:space="preserve" font-size="5.98975" transform="translate(186.941, 403.616)" >ng=1</text>
<text fill="#666600"  xml:space="preserve" font-size="5.98975" transform="translate(186.941, 396.417)" >l=0.13u</text>
<text fill="#666600"  xml:space="preserve" font-size="5.98975" transform="translate(186.941, 389.938)" >w=0.5u</text>
<text fill="#ff0000"  xml:space="preserve" font-size="4.49231" transform="translate(181.901, 413.775)" >S</text>
<text fill="#ff0000"  xml:space="preserve" font-size="4.49231" transform="translate(181.901, 388.465)" >D</text>
<text fill="#ff0000"  xml:space="preserve" font-size="4.49231" transform="translate(180.461, 397.937)" >B</text>
<text fill="#222222"  xml:space="preserve" font-size="5.98975" transform="translate(158.822, 330.184)" >M13</text>
<text fill="#ff0000"  xml:space="preserve" font-size="4.49231" transform="translate(159.183, 340.343)" >G</text>
<text fill="#222222"  xml:space="preserve" font-size="5.98975" transform="translate(186.221, 358.59)" >sg13_lv_pmos</text>
<text fill="#666600"  xml:space="preserve" font-size="5.98975" transform="translate(186.941, 351.062)" >m=1</text>
<text fill="#666600"  xml:space="preserve" font-size="5.98975" transform="translate(186.941, 346.023)" >ng=1</text>
<text fill="#666600"  xml:space="preserve" font-size="5.98975" transform="translate(186.941, 338.823)" >l=0.13u</text>
<text fill="#666600"  xml:space="preserve" font-size="5.98975" transform="translate(186.941, 332.344)" >w=1.5u</text>
<text fill="#ff0000"  xml:space="preserve" font-size="4.49231" transform="translate(181.901, 356.182)" >D</text>
<text fill="#ff0000"  xml:space="preserve" font-size="4.49231" transform="translate(181.901, 330.871)" >S</text>
<text fill="#ff0000"  xml:space="preserve" font-size="4.49231" transform="translate(180.461, 340.343)" >B</text>
<text fill="#aa2222"  xml:space="preserve" font-size="5.98975" style="font-family:Monospace;" transform="translate(770.797, 350.342)" >?</text>
<text fill="#229900"  xml:space="preserve" font-size="5.98975" transform="translate(767.917, 340.592)" >M5</text>
<text fill="#aa2222"  xml:space="preserve" font-size="5.98975" style="font-family:Monospace;" transform="translate(770.797, 229.395)" >?</text>
<text fill="#229900"  xml:space="preserve" font-size="5.98975" transform="translate(767.917, 219.645)" >M1</text>
<text fill="#aa2222"  xml:space="preserve" font-size="5.98975" style="font-family:Monospace;" transform="translate(862.947, 229.395)" >?</text>
<text fill="#229900"  xml:space="preserve" font-size="5.98975" transform="translate(860.067, 219.645)" >M2</text>
<text fill="#aa2222"  xml:space="preserve" font-size="5.98975" style="font-family:Monospace;" transform="translate(770.797, 114.208)" >?</text>
<text fill="#229900"  xml:space="preserve" font-size="5.98975" transform="translate(767.917, 104.458)" >M3</text>
<text fill="#aa2222"  xml:space="preserve" font-size="5.98975" style="font-family:Monospace;" transform="translate(862.947, 114.208)" >?</text>
<text fill="#229900"  xml:space="preserve" font-size="5.98975" transform="translate(860.067, 104.458)" >M4</text>
<path class="l4" d="M541.862 346.343L541.862 372.26"/>
<path class="l4" d="M549.061 342.024L549.061 349.223"/>
<path class="l4" d="M549.061 369.381L549.061 376.58"/>
<path class="l4" d="M538.982 350.663L538.982 367.941"/>
<path class="l4" d="M541.862 369.381L549.061 369.381"/>
<path class="l4" d="M541.862 349.223L549.061 349.223"/>
<path class="l4" d="M526.024 359.302L538.694 359.302"/>
<path class="l4" d="M546.182 370.821L549.061 369.381L546.182 367.941L546.182 370.821"/>
<path class="l4" d="M599.456 98.6902L599.456 124.607"/>
<path class="l4" d="M606.655 94.3706L606.655 101.57"/>
<path class="l4" d="M606.655 121.728L606.655 128.927"/>
<path class="l4" d="M596.576 103.01L596.576 120.288"/>
<path class="l4" d="M599.456 121.728L606.655 121.728"/>
<path class="l4" d="M599.456 101.57L606.655 101.57"/>
<path class="l4" d="M583.617 111.649L596.288 111.649"/>
<path class="l4" d="M602.335 100.13L599.456 101.57L602.335 103.01L602.335 100.13"/>
<path class="l4" d="M495.787 167.803L495.787 193.72"/>
<path class="l4" d="M502.986 163.483L502.986 170.682"/>
<path class="l4" d="M502.986 190.84L502.986 198.039"/>
<path class="l4" d="M492.907 172.122L492.907 189.4"/>
<path class="l4" d="M495.787 190.84L502.986 190.84"/>
<path class="l4" d="M495.787 170.682L502.986 170.682"/>
<path class="l4" d="M479.949 180.761L492.619 180.761"/>
<path class="l4" d="M500.107 192.28L502.986 190.84L500.107 189.4L500.107 192.28"/>
<path class="l4" d="M613.854 167.803L613.854 193.72"/>
<path class="l4" d="M606.655 163.483L606.655 170.682"/>
<path class="l4" d="M606.655 190.84L606.655 198.039"/>
<path class="l4" d="M616.734 172.122L616.734 189.4"/>
<path class="l4" d="M606.655 190.84L613.854 190.84"/>
<path class="l4" d="M606.655 170.682L613.854 170.682"/>
<path class="l4" d="M617.022 180.761L629.692 180.761"/>
<path class="l4" d="M609.535 192.28L606.655 190.84L609.535 189.4L609.535 192.28"/>
<path class="l4" d="M510.185 98.6902L510.185 124.607"/>
<path class="l4" d="M502.986 94.3706L502.986 101.57"/>
<path class="l4" d="M502.986 121.728L502.986 128.927"/>
<path class="l4" d="M513.065 103.01L513.065 120.288"/>
<path class="l4" d="M502.986 121.728L510.185 121.728"/>
<path class="l4" d="M502.986 101.57L510.185 101.57"/>
<path class="l4" d="M513.353 111.649L526.024 111.649"/>
<path class="l4" d="M507.306 100.13L510.185 101.57L507.306 103.01L507.306 100.13"/>
<path class="l4" d="M406.517 346.343L406.517 372.26"/>
<path class="l4" d="M399.317 342.024L399.317 349.223"/>
<path class="l4" d="M399.317 369.381L399.317 376.58"/>
<path class="l4" d="M409.396 350.663L409.396 367.941"/>
<path class="l4" d="M399.317 369.381L406.517 369.381"/>
<path class="l4" d="M399.317 349.223L406.517 349.223"/>
<path class="l4" d="M409.684 359.302L422.355 359.302"/>
<path class="l4" d="M402.197 370.821L399.317 369.381L402.197 367.941L402.197 370.821"/>
<path class="l4" d="M461.231 386.659L461.231 412.576"/>
<path class="l4" d="M468.43 382.339L468.43 389.539"/>
<path class="l4" d="M468.43 409.696L468.43 416.896"/>
<path class="l4" d="M458.351 390.978L458.351 408.257"/>
<path class="l4" d="M461.231 409.696L468.43 409.696"/>
<path class="l4" d="M461.231 389.539L468.43 389.539"/>
<path class="l4" d="M445.392 399.617L458.063 399.617"/>
<path class="l4" d="M465.55 411.136L468.43 409.696L465.55 408.257L465.55 411.136"/>
<path class="l4" d="M530.343 52.6152L530.343 78.5323"/>
<path class="l4" d="M537.542 48.2956L537.542 55.4948"/>
<path class="l4" d="M537.542 75.6527L537.542 82.8519"/>
<path class="l4" d="M527.464 56.9347L527.464 74.2128"/>
<path class="l4" d="M530.343 75.6527L537.542 75.6527"/>
<path class="l4" d="M530.343 55.4948L537.542 55.4948"/>
<path class="l4" d="M514.505 65.5737L527.176 65.5737"/>
<path class="l4" d="M533.223 54.055L530.343 55.4948L533.223 56.9347L533.223 54.055"/>
<path class="l4" d="M265.412 386.659L265.412 412.576"/>
<path class="l4" d="M272.611 382.339L272.611 389.539"/>
<path class="l4" d="M272.611 409.696L272.611 416.896"/>
<path class="l4" d="M262.532 390.978L262.532 408.257"/>
<path class="l4" d="M265.412 409.696L272.611 409.696"/>
<path class="l4" d="M265.412 389.539L272.611 389.539"/>
<path class="l4" d="M249.574 399.617L262.244 399.617"/>
<path class="l4" d="M269.732 411.136L272.611 409.696L269.732 408.257L269.732 411.136"/>
<path class="l4" d="M265.412 329.065L265.412 354.982"/>
<path class="l4" d="M272.611 324.746L272.611 331.945"/>
<path class="l4" d="M272.611 352.103L272.611 359.302"/>
<path class="l4" d="M262.532 333.385L262.532 350.663"/>
<path class="l4" d="M265.412 352.103L272.611 352.103"/>
<path class="l4" d="M265.412 331.945L272.611 331.945"/>
<path class="l4" d="M249.574 342.024L262.244 342.024"/>
<path class="l4" d="M268.292 330.505L265.412 331.945L268.292 333.385L268.292 330.505"/>
<path class="l4" d="M449.712 282.99L449.712 308.907"/>
<path class="l4" d="M456.911 278.671L456.911 285.87"/>
<path class="l4" d="M456.911 306.028L456.911 313.227"/>
<path class="l4" d="M446.832 287.31L446.832 304.588"/>
<path class="l4" d="M449.712 306.028L456.911 306.028"/>
<path class="l4" d="M449.712 285.87L456.911 285.87"/>
<path class="l4" d="M433.874 295.949L446.544 295.949"/>
<path class="l4" d="M454.032 307.467L456.911 306.028L454.032 304.588L454.032 307.467"/>
<path class="l4" d="M173.262 386.659L173.262 412.576"/>
<path class="l4" d="M180.461 382.339L180.461 389.539"/>
<path class="l4" d="M180.461 409.696L180.461 416.896"/>
<path class="l4" d="M170.382 390.978L170.382 408.257"/>
<path class="l4" d="M173.262 409.696L180.461 409.696"/>
<path class="l4" d="M173.262 389.539L180.461 389.539"/>
<path class="l4" d="M157.424 399.617L170.094 399.617"/>
<path class="l4" d="M177.582 411.136L180.461 409.696L177.582 408.257L177.582 411.136"/>
<path class="l4" d="M173.262 329.065L173.262 354.982"/>
<path class="l4" d="M180.461 324.746L180.461 331.945"/>
<path class="l4" d="M180.461 352.103L180.461 359.302"/>
<path class="l4" d="M170.382 333.385L170.382 350.663"/>
<path class="l4" d="M173.262 352.103L180.461 352.103"/>
<path class="l4" d="M173.262 331.945L180.461 331.945"/>
<path class="l4" d="M157.424 342.024L170.094 342.024"/>
<path class="l4" d="M176.142 330.505L173.262 331.945L176.142 333.385L176.142 330.505"/>
<path class="l4" d="M767.917 342.024L767.917 347.783"/>
<path class="l4" d="M767.917 342.024L773.677 342.024"/>
<path class="l4" d="M767.917 221.077L767.917 226.836"/>
<path class="l4" d="M767.917 221.077L773.677 221.077"/>
<path class="l4" d="M860.067 221.077L860.067 226.836"/>
<path class="l4" d="M860.067 221.077L865.827 221.077"/>
<path class="l4" d="M767.917 105.889L767.917 111.649"/>
<path class="l4" d="M767.917 105.889L773.677 105.889"/>
<path class="l4" d="M860.067 105.889L860.067 111.649"/>
<path class="l4" d="M860.067 105.889L865.827 105.889"/>
<path class="l5" d="M117.108 494.647L116.928 494.827L116.748 495.007L116.568 495.187L116.388 495.367L116.208 495.547L116.028 495.727L115.848 495.907L115.668 496.087L115.488 496.267L115.308 496.447L115.128 496.627L114.948 496.807L114.768 496.987L114.588 497.167L114.408 497.347L114.228 497.527L114.048 497.707L113.868 497.887L113.688 498.067L113.509 498.247L113.329 498.427L113.149 498.607L112.969 498.787L112.789 498.967L112.609 499.147L112.429 499.327L112.249 499.507L112.069 499.687L111.889 499.867L111.709 500.047L111.529 500.227L111.349 500.407L111.349 500.407L111.174 500.587L111.011 500.767L110.859 500.947L110.719 501.126L110.589 501.306L110.471 501.486L110.364 501.666L110.269 501.846L110.185 502.026L110.111 502.206L110.05 502.386L109.999 502.566L109.96 502.746L109.931 502.926L109.915 503.106L109.909 503.286L109.915 503.466L109.931 503.646L109.96 503.826L109.999 504.006L110.05 504.186L110.111 504.366L110.185 504.546L110.269 504.726L110.364 504.906L110.471 505.086L110.589 505.266L110.719 505.446L110.859 505.626L111.011 505.806L111.174 505.986L111.349 506.166L111.349 506.166L111.529 506.347L111.712 506.529L111.895 506.712L112.08 506.897L112.266 507.083L112.454 507.271L112.643 507.46L112.834 507.651L113.026 507.843L113.219 508.036L113.414 508.231L113.61 508.427L113.807 508.624L114.006 508.823L114.207 509.024L114.408 509.226L114.612 509.429L114.816 509.633L115.022 509.839L115.23 510.047L115.438 510.256L115.649 510.466L115.86 510.677L116.073 510.89L116.288 511.105L116.504 511.321L116.721 511.538L116.939 511.757L117.159 511.977L117.381 512.198L117.604 512.421L117.828 512.645L117.828 512.645L118.052 512.869L118.272 513.09L118.49 513.308L118.705 513.523L118.918 513.735L119.127 513.944L119.334 514.151L119.538 514.355L119.739 514.556L119.937 514.754L120.133 514.95L120.325 515.142L120.515 515.332L120.702 515.519L120.886 515.703L121.068 515.885L121.246 516.063L121.422 516.239L121.595 516.412L121.765 516.582L121.932 516.75L122.097 516.914L122.259 517.076L122.418 517.235L122.574 517.391L122.727 517.544L122.877 517.695L123.025 517.842L123.17 517.987L123.312 518.129L123.451 518.268L123.587 518.405L123.587 518.405L123.718 518.537L123.841 518.666L123.954 518.791L124.06 518.911L124.157 519.027L124.245 519.139L124.326 519.246L124.397 519.35L124.461 519.449L124.515 519.544L124.562 519.634L124.6 519.721L124.629 519.803L124.65 519.881L124.663 519.955L124.667 520.024L124.663 520.09L124.65 520.151L124.629 520.208L124.6 520.261L124.562 520.309L124.515 520.353L124.461 520.394L124.397 520.429L124.326 520.461L124.245 520.488L124.157 520.512L124.06 520.531L123.954 520.545L123.841 520.556L123.718 520.562L123.587 520.564L123.587 520.564L123.452 520.564L123.317 520.564L123.182 520.564L123.047 520.564L122.912 520.564L122.778 520.564L122.643 520.564L122.508 520.564L122.373 520.564L122.238 520.564L122.103 520.564L121.968 520.564L121.833 520.564L121.698 520.564L121.563 520.564L121.428 520.564L121.293 520.564L121.158 520.564L121.023 520.564L120.888 520.564L120.753 520.564L120.618 520.564L120.483 520.564L120.348 520.564L120.213 520.564L120.078 520.564L119.943 520.564L119.808 520.564L119.673 520.564L119.538 520.564L119.403 520.564L119.268 520.564L119.268 520.564L119.134 520.564L119.001 520.564L118.869 520.564L118.739 520.564L118.611 520.564L118.483 520.564L118.357 520.564L118.233 520.564L118.11 520.564L117.988 520.564L117.868 520.564L117.749 520.564L117.632 520.564L117.516 520.564L117.401 520.564L117.288 520.564L117.176 520.564L117.066 520.564L116.957 520.564L116.849 520.564L116.743 520.564L116.638 520.564L116.535 520.564L116.433 520.564L116.333 520.564L116.234 520.564L116.136 520.564L116.039 520.564L115.945 520.564L115.851 520.564L115.759 520.564L115.668 520.564L115.668 520.564L115.578 520.563L115.488 520.559L115.398 520.552L115.308 520.542L115.218 520.529L115.128 520.514L115.038 520.495L114.948 520.474L114.858 520.45L114.768 520.424L114.678 520.394L114.588 520.362L114.498 520.327L114.408 520.289L114.318 520.248L114.228 520.204L114.138 520.158L114.048 520.109L113.958 520.057L113.868 520.002L113.778 519.944L113.688 519.884L113.599 519.821L113.509 519.754L113.419 519.686L113.329 519.614L113.239 519.539L113.149 519.462L113.059 519.382L112.969 519.299L112.879 519.213L112.789 519.125L112.789 519.125L112.699 519.035L112.609 518.945L112.519 518.855L112.429 518.765L112.339 518.675L112.249 518.585L112.159 518.495L112.069 518.405L111.979 518.315L111.889 518.225L111.799 518.135L111.709 518.045L111.619 517.955L111.529 517.865L111.439 517.775L111.349 517.685L111.259 517.595L111.169 517.505L111.079 517.415L110.989 517.325L110.899 517.235L110.809 517.145L110.719 517.055L110.629 516.965L110.539 516.875L110.449 516.785L110.359 516.695L110.269 516.605L110.179 516.515L110.089 516.425L109.999 516.335L109.909 516.245L109.909 516.245L109.818 516.153L109.723 516.059L109.626 515.962L109.526 515.862L109.424 515.76L109.318 515.654L109.21 515.546L109.099 515.435L108.985 515.321L108.868 515.204L108.749 515.085L108.627 514.962L108.501 514.837L108.373 514.709L108.243 514.579L108.109 514.445L107.973 514.309L107.834 514.169L107.691 514.027L107.547 513.883L107.399 513.735L107.249 513.585L107.095 513.431L106.939 513.275L106.78 513.116L106.619 512.955L106.454 512.79L106.287 512.623L106.117 512.453L105.944 512.28L105.768 512.104L105.589 511.925L105.589 511.925L105.409 511.751L105.229 511.588L105.049 511.436L104.869 511.295L104.689 511.166L104.509 511.048L104.33 510.941L104.15 510.845L103.97 510.761L103.79 510.688L103.61 510.626L103.43 510.575L103.25 510.536L103.07 510.508L102.89 510.491L102.71 510.485L102.53 510.491L102.35 510.508L102.17 510.536L101.99 510.575L101.81 510.626L101.63 510.688L101.45 510.761L101.27 510.845L101.09 510.941L100.91 511.048L100.73 511.166L100.55 511.295L100.37 511.436L100.19 511.588L100.01 511.751L99.83 511.925L99.83 511.925L99.6514 512.104L99.4757 512.28L99.3027 512.453L99.1326 512.623L98.9653 512.79L98.8007 512.955L98.639 513.116L98.4801 513.275L98.3241 513.431L98.1708 513.585L98.0204 513.735L97.8727 513.883L97.7279 514.027L97.5859 514.169L97.4467 514.309L97.3103 514.445L97.1767 514.579L97.0459 514.709L96.918 514.837L96.7928 514.962L96.6705 515.085L96.551 515.204L96.4343 515.321L96.3204 515.435L96.2093 515.546L96.101 515.654L95.9956 515.76L95.8929 515.862L95.7931 515.962L95.6961 516.059L95.6019 516.153L95.5105 516.245L95.5105 516.245L95.4205 516.335L95.3305 516.425L95.2405 516.515L95.1505 516.605L95.0605 516.695L94.9705 516.785L94.8805 516.875L94.7905 516.965L94.7006 517.055L94.6106 517.145L94.5206 517.235L94.4306 517.325L94.3406 517.415L94.2506 517.505L94.1606 517.595L94.0706 517.685L93.9806 517.775L93.8906 517.865L93.8007 517.955L93.7107 518.045L93.6207 518.135L93.5307 518.225L93.4407 518.315L93.3507 518.405L93.2607 518.495L93.1707 518.585L93.0807 518.675L92.9907 518.765L92.9008 518.855L92.8108 518.945L92.7208 519.035L92.6308 519.125L92.6308 519.125L92.5408 519.213L92.4508 519.299L92.3608 519.382L92.2708 519.462L92.1808 519.539L92.0908 519.614L92.0008 519.686L91.9109 519.754L91.8209 519.821L91.7309 519.884L91.6409 519.944L91.5509 520.002L91.4609 520.057L91.3709 520.109L91.2809 520.158L91.1909 520.204L91.1009 520.248L91.011 520.289L90.921 520.327L90.831 520.362L90.741 520.394L90.651 520.424L90.561 520.45L90.471 520.474L90.381 520.495L90.291 520.514L90.201 520.529L90.1111 520.542L90.0211 520.552L89.9311 520.559L89.8411 520.563L89.7511 520.564L89.7511 520.564L89.6604 520.564L89.5683 520.564L89.4748 520.564L89.3799 520.564L89.2836 520.564L89.1858 520.564L89.0867 520.564L88.9862 520.564L88.8842 520.564L88.7809 520.564L88.6761 520.564L88.57 520.564L88.4624 520.564L88.3534 520.564L88.2431 520.564L88.1313 520.564L88.0181 520.564L87.9035 520.564L87.7875 520.564L87.6701 520.564L87.5513 520.564L87.431 520.564L87.3094 520.564L87.1864 520.564L87.0619 520.564L86.9361 520.564L86.8088 520.564L86.6802 520.564L86.5501 520.564L86.4186 520.564L86.2858 520.564L86.1515 520.564L86.1515 520.564L86.0165 520.564L85.8815 520.564L85.7465 520.564L85.6115 520.564L85.4766 520.564L85.3416 520.564L85.2066 520.564L85.0716 520.564L84.9366 520.564L84.8016 520.564L84.6666 520.564L84.5317 520.564L84.3967 520.564L84.2617 520.564L84.1267 520.564L83.9917 520.564L83.8567 520.564L83.7217 520.564L83.5868 520.564L83.4518 520.564L83.3168 520.564L83.1818 520.564L83.0468 520.564L82.9118 520.564L82.7769 520.564L82.6419 520.564L82.5069 520.564L82.3719 520.564L82.2369 520.564L82.1019 520.564L81.9669 520.564L81.832 520.564L81.832 520.564L81.7012 520.562L81.5789 520.556L81.465 520.545L81.3595 520.531L81.2625 520.512L81.1739 520.488L81.0938 520.461L81.022 520.429L80.9588 520.394L80.9039 520.353L80.8575 520.309L80.8196 520.261L80.79 520.208L80.7689 520.151L80.7563 520.09L80.7521 520.024L80.7563 519.955L80.7689 519.881L80.79 519.803L80.8196 519.721L80.8575 519.634L80.9039 519.544L80.9588 519.449L81.022 519.35L81.0938 519.246L81.1739 519.139L81.2625 519.027L81.3595 518.911L81.465 518.791L81.5789 518.666L81.7012 518.537L81.832 518.405L81.832 518.405L81.9683 518.268L82.1075 518.129L82.2496 517.987L82.3944 517.842L82.542 517.695L82.6925 517.544L82.8457 517.391L83.0018 517.235L83.1607 517.076L83.3224 516.914L83.4869 516.75L83.6543 516.582L83.8244 516.412L83.9973 516.239L84.1731 516.063L84.3517 515.885L84.5331 515.703L84.7173 515.519L84.9043 515.332L85.0941 515.142L85.2867 514.95L85.4822 514.754L85.6804 514.556L85.8815 514.355L86.0854 514.151L86.2921 513.944L86.5016 513.735L86.7139 513.523L86.9291 513.308L87.147 513.09L87.3678 512.869L87.5913 512.645L87.5913 512.645L87.8156 512.421L88.0385 512.198L88.2599 511.977L88.48 511.757L88.6986 511.538L88.9159 511.321L89.1317 511.105L89.3461 510.89L89.5592 510.677L89.7708 510.466L89.981 510.256L90.1898 510.047L90.3972 509.839L90.6032 509.633L90.8078 509.429L91.011 509.226L91.2127 509.024L91.4131 508.823L91.6121 508.624L91.8096 508.427L92.0058 508.231L92.2005 508.036L92.3939 507.843L92.5858 507.651L92.7763 507.46L92.9654 507.271L93.1531 507.083L93.3395 506.897L93.5244 506.712L93.7079 506.529L93.8899 506.347L94.0706 506.166L94.0706 506.166L94.245 505.986L94.4081 505.806L94.5599 505.626L94.7006 505.446L94.8299 505.266L94.948 505.086L95.0549 504.906L95.1505 504.726L95.2349 504.546L95.308 504.366L95.3699 504.186L95.4205 504.006L95.4598 503.826L95.488 503.646L95.5048 503.466L95.5105 503.286L95.5048 503.106L95.488 502.926L95.4598 502.746L95.4205 502.566L95.3699 502.386L95.308 502.206L95.2349 502.026L95.1505 501.846L95.0549 501.666L94.948 501.486L94.8299 501.306L94.7006 501.126L94.5599 500.947L94.4081 500.767L94.245 500.587L94.0706 500.407L94.0706 500.407L93.8899 500.226L93.7079 500.044L93.5244 499.86L93.3395 499.675L93.1531 499.489L92.9654 499.301L92.7763 499.112L92.5858 498.922L92.3939 498.73L92.2005 498.536L92.0058 498.342L91.8096 498.146L91.6121 497.948L91.4131 497.749L91.2127 497.549L91.011 497.347L90.8078 497.144L90.6032 496.939L90.3972 496.733L90.1898 496.526L89.981 496.317L89.7708 496.107L89.5592 495.895L89.3461 495.682L89.1317 495.468L88.9159 495.252L88.6986 495.035L88.48 494.816L88.2599 494.596L88.0385 494.374L87.8156 494.152L87.5913 493.927L87.5913 493.927L87.3678 493.704L87.147 493.483L86.9291 493.265L86.7139 493.05L86.5016 492.838L86.2921 492.628L86.0854 492.421L85.8815 492.217L85.6804 492.016L85.4822 491.818L85.2867 491.623L85.0941 491.43L84.9043 491.24L84.7173 491.053L84.5331 490.869L84.3517 490.688L84.1731 490.509L83.9973 490.333L83.8244 490.16L83.6543 489.99L83.4869 489.823L83.3224 489.658L83.1607 489.497L83.0018 489.338L82.8457 489.182L82.6925 489.028L82.542 488.878L82.3944 488.73L82.2496 488.586L82.1075 488.443L81.9683 488.304L81.832 488.168L81.832 488.168L81.7012 488.035L81.5789 487.906L81.465 487.782L81.3595 487.662L81.2625 487.546L81.1739 487.434L81.0938 487.326L81.022 487.223L80.9588 487.124L80.9039 487.029L80.8575 486.938L80.8196 486.852L80.79 486.77L80.7689 486.691L80.7563 486.618L80.7521 486.548L80.7563 486.483L80.7689 486.422L80.79 486.365L80.8196 486.312L80.8575 486.263L80.9039 486.219L80.9588 486.179L81.022 486.143L81.0938 486.111L81.1739 486.084L81.2625 486.061L81.3595 486.042L81.465 486.027L81.5789 486.017L81.7012 486.01L81.832 486.008L81.832 486.008L81.9669 486.008L82.1019 486.008L82.2369 486.008L82.3719 486.008L82.5069 486.008L82.6419 486.008L82.7769 486.008L82.9118 486.008L83.0468 486.008L83.1818 486.008L83.3168 486.008L83.4518 486.008L83.5868 486.008L83.7217 486.008L83.8567 486.008L83.9917 486.008L84.1267 486.008L84.2617 486.008L84.3967 486.008L84.5317 486.008L84.6666 486.008L84.8016 486.008L84.9366 486.008L85.0716 486.008L85.2066 486.008L85.3416 486.008L85.4766 486.008L85.6115 486.008L85.7465 486.008L85.8815 486.008L86.0165 486.008L86.1515 486.008L86.1515 486.008L86.2858 486.008L86.4186 486.008L86.5501 486.008L86.6802 486.008L86.8088 486.008L86.9361 486.008L87.0619 486.008L87.1864 486.008L87.3094 486.008L87.431 486.008L87.5513 486.008L87.6701 486.008L87.7875 486.008L87.9035 486.008L88.0181 486.008L88.1313 486.008L88.2431 486.008L88.3534 486.008L88.4624 486.008L88.57 486.008L88.6761 486.008L88.7809 486.008L88.8842 486.008L88.9862 486.008L89.0867 486.008L89.1858 486.008L89.2836 486.008L89.3799 486.008L89.4748 486.008L89.5683 486.008L89.6604 486.008L89.7511 486.008L89.7511 486.008L89.8411 486.01L89.9311 486.014L90.0211 486.021L90.1111 486.031L90.201 486.043L90.291 486.059L90.381 486.077L90.471 486.098L90.561 486.122L90.651 486.149L90.741 486.178L90.831 486.211L90.921 486.246L91.011 486.284L91.1009 486.324L91.1909 486.368L91.2809 486.414L91.3709 486.464L91.4609 486.516L91.5509 486.571L91.6409 486.628L91.7309 486.689L91.8209 486.752L91.9109 486.818L92.0008 486.887L92.0908 486.959L92.1808 487.033L92.2708 487.111L92.3608 487.191L92.4508 487.274L92.5408 487.359L92.6308 487.448L92.6308 487.448L92.7208 487.538L92.8108 487.628L92.9008 487.718L92.9907 487.808L93.0807 487.898L93.1707 487.988L93.2607 488.078L93.3507 488.168L93.4407 488.258L93.5307 488.348L93.6207 488.438L93.7107 488.528L93.8007 488.618L93.8906 488.708L93.9806 488.798L94.0706 488.888L94.1606 488.978L94.2506 489.068L94.3406 489.158L94.4306 489.248L94.5206 489.338L94.6106 489.428L94.7006 489.518L94.7905 489.608L94.8805 489.698L94.9705 489.788L95.0605 489.878L95.1505 489.968L95.2405 490.058L95.3305 490.148L95.4205 490.238L95.5105 490.328L95.5105 490.328L95.6019 490.419L95.6961 490.513L95.7931 490.61L95.8929 490.71L95.9956 490.813L96.101 490.918L96.2093 491.026L96.3204 491.138L96.4343 491.251L96.551 491.368L96.6705 491.488L96.7928 491.61L96.918 491.735L97.0459 491.863L97.1767 491.994L97.3103 492.127L97.4467 492.264L97.5859 492.403L97.7279 492.545L97.8727 492.69L98.0204 492.838L98.1708 492.988L98.3241 493.141L98.4801 493.297L98.639 493.456L98.8007 493.618L98.9653 493.782L99.1326 493.95L99.3027 494.12L99.4757 494.293L99.6514 494.469L99.83 494.647L99.83 494.647L100.01 494.822L100.19 494.985L100.37 495.137L100.55 495.277L100.73 495.406L100.91 495.525L101.09 495.631L101.27 495.727L101.45 495.811L101.63 495.885L101.81 495.946L101.99 495.997L102.17 496.036L102.35 496.065L102.53 496.081L102.71 496.087L102.89 496.081L103.07 496.065L103.25 496.036L103.43 495.997L103.61 495.946L103.79 495.885L103.97 495.811L104.15 495.727L104.33 495.631L104.509 495.525L104.689 495.406L104.869 495.277L105.049 495.137L105.229 494.985L105.409 494.822L105.589 494.647L105.589 494.647L105.768 494.469L105.944 494.293L106.117 494.12L106.287 493.95L106.454 493.782L106.619 493.618L106.78 493.456L106.939 493.297L107.095 493.141L107.249 492.988L107.399 492.838L107.547 492.69L107.691 492.545L107.834 492.403L107.973 492.264L108.109 492.127L108.243 491.994L108.373 491.863L108.501 491.735L108.627 491.61L108.749 491.488L108.868 491.368L108.985 491.251L109.099 491.138L109.21 491.026L109.318 490.918L109.424 490.813L109.526 490.71L109.626 490.61L109.723 490.513L109.818 490.419L109.909 490.328L109.909 490.328L109.999 490.238L110.089 490.148L110.179 490.058L110.269 489.968L110.359 489.878L110.449 489.788L110.539 489.698L110.629 489.608L110.719 489.518L110.809 489.428L110.899 489.338L110.989 489.248L111.079 489.158L111.169 489.068L111.259 488.978L111.349 488.888L111.439 488.798L111.529 488.708L111.619 488.618L111.709 488.528L111.799 488.438L111.889 488.348L111.979 488.258L112.069 488.168L112.159 488.078L112.249 487.988L112.339 487.898L112.429 487.808L112.519 487.718L112.609 487.628L112.699 487.538L112.789 487.448L112.789 487.448L112.879 487.359L112.969 487.274L113.059 487.191L113.149 487.111L113.239 487.033L113.329 486.959L113.419 486.887L113.509 486.818L113.599 486.752L113.688 486.689L113.778 486.628L113.868 486.571L113.958 486.516L114.048 486.464L114.138 486.414L114.228 486.368L114.318 486.324L114.408 486.284L114.498 486.246L114.588 486.211L114.678 486.178L114.768 486.149L114.858 486.122L114.948 486.098L115.038 486.077L115.128 486.059L115.218 486.043L115.308 486.031L115.398 486.021L115.488 486.014L115.578 486.01L115.668 486.008L115.668 486.008L115.759 486.008L115.851 486.008L115.945 486.008L116.039 486.008L116.136 486.008L116.234 486.008L116.333 486.008L116.433 486.008L116.535 486.008L116.638 486.008L116.743 486.008L116.849 486.008L116.957 486.008L117.066 486.008L117.176 486.008L117.288 486.008L117.401 486.008L117.516 486.008L117.632 486.008L117.749 486.008L117.868 486.008L117.988 486.008L118.11 486.008L118.233 486.008L118.357 486.008L118.483 486.008L118.611 486.008L118.739 486.008L118.869 486.008L119.001 486.008L119.134 486.008L119.268 486.008L119.268 486.008L119.403 486.008L119.538 486.008L119.673 486.008L119.808 486.008L119.943 486.008L120.078 486.008L120.213 486.008L120.348 486.008L120.483 486.008L120.618 486.008L120.753 486.008L120.888 486.008L121.023 486.008L121.158 486.008L121.293 486.008L121.428 486.008L121.563 486.008L121.698 486.008L121.833 486.008L121.968 486.008L122.103 486.008L122.238 486.008L122.373 486.008L122.508 486.008L122.643 486.008L122.778 486.008L122.912 486.008L123.047 486.008L123.182 486.008L123.317 486.008L123.452 486.008L123.587 486.008L123.587 486.008L123.718 486.01L123.841 486.017L123.954 486.027L124.06 486.042L124.157 486.061L124.245 486.084L124.326 486.111L124.397 486.143L124.461 486.179L124.515 486.219L124.562 486.263L124.6 486.312L124.629 486.365L124.65 486.422L124.663 486.483L124.667 486.548L124.663 486.618L124.65 486.691L124.629 486.77L124.6 486.852L124.562 486.938L124.515 487.029L124.461 487.124L124.397 487.223L124.326 487.326L124.245 487.434L124.157 487.546L124.06 487.662L123.954 487.782L123.841 487.906L123.718 488.035L123.587 488.168L123.587 488.168L123.45 488.305L123.309 488.446L123.163 488.592L123.014 488.742L122.86 488.896L122.702 489.054L122.539 489.216L122.373 489.383L122.202 489.554L122.027 489.729L121.847 489.908L121.664 490.091L121.476 490.279L121.284 490.471L121.088 490.667L120.888 490.868L120.683 491.072L120.474 491.281L120.261 491.494L120.044 491.711L119.823 491.933L119.597 492.158L119.367 492.388L119.133 492.622L118.895 492.861L118.652 493.103L118.405 493.35L118.154 493.601L117.899 493.856L117.64 494.116L117.376 494.379L117.108 494.647"/>
<path class="l5" d="M549.061 360.742L546.182 359.302L549.061 357.862L549.061 360.742"/>
<path class="l5" d="M547.621 340.584L550.501 340.584L550.501 343.464L547.621 343.464L547.621 340.584z"/>
<path class="l5" d="M524.584 357.862L527.464 357.862L527.464 360.742L524.584 360.742L524.584 357.862z"/>
<path class="l5" d="M547.621 375.14L550.501 375.14L550.501 378.02L547.621 378.02L547.621 375.14z"/>
<path class="l5" d="M549.016 359.257L549.106 359.257L549.106 359.347L549.016 359.347L549.016 359.257z"/>
<path class="l5" d="M603.775 110.209L606.655 111.649L603.775 113.089L603.775 110.209"/>
<path class="l5" d="M605.215 127.487L608.095 127.487L608.095 130.367L605.215 130.367L605.215 127.487z"/>
<path class="l5" d="M582.178 110.209L585.057 110.209L585.057 113.089L582.178 113.089L582.178 110.209z"/>
<path class="l5" d="M605.215 92.9308L608.095 92.9308L608.095 95.8105L605.215 95.8105L605.215 92.9308z"/>
<path class="l5" d="M606.61 111.604L606.7 111.604L606.7 111.694L606.61 111.694L606.61 111.604z"/>
<path class="l5" d="M502.986 182.201L500.107 180.761L502.986 179.321L502.986 182.201"/>
<path class="l5" d="M501.546 162.043L504.426 162.043L504.426 164.923L501.546 164.923L501.546 162.043z"/>
<path class="l5" d="M478.509 179.321L481.389 179.321L481.389 182.201L478.509 182.201L478.509 179.321z"/>
<path class="l5" d="M501.546 196.6L504.426 196.6L504.426 199.479L501.546 199.479L501.546 196.6z"/>
<path class="l5" d="M502.941 180.716L503.031 180.716L503.031 180.806L502.941 180.806L502.941 180.716z"/>
<path class="l5" d="M606.655 182.201L609.535 180.761L606.655 179.321L606.655 182.201"/>
<path class="l5" d="M605.215 162.043L608.095 162.043L608.095 164.923L605.215 164.923L605.215 162.043z"/>
<path class="l5" d="M628.253 179.321L631.132 179.321L631.132 182.201L628.253 182.201L628.253 179.321z"/>
<path class="l5" d="M605.215 196.6L608.095 196.6L608.095 199.479L605.215 199.479L605.215 196.6z"/>
<path class="l5" d="M606.61 180.716L606.7 180.716L606.7 180.806L606.61 180.806L606.61 180.716z"/>
<path class="l5" d="M505.866 110.209L502.986 111.649L505.866 113.089L505.866 110.209"/>
<path class="l5" d="M501.546 127.487L504.426 127.487L504.426 130.367L501.546 130.367L501.546 127.487z"/>
<path class="l5" d="M524.584 110.209L527.464 110.209L527.464 113.089L524.584 113.089L524.584 110.209z"/>
<path class="l5" d="M501.546 92.9308L504.426 92.9308L504.426 95.8105L501.546 95.8105L501.546 92.9308z"/>
<path class="l5" d="M502.941 111.604L503.031 111.604L503.031 111.694L502.941 111.694L502.941 111.604z"/>
<path class="l5" d="M399.317 360.742L402.197 359.302L399.317 357.862L399.317 360.742"/>
<path class="l5" d="M397.878 340.584L400.757 340.584L400.757 343.464L397.878 343.464L397.878 340.584z"/>
<path class="l5" d="M420.915 357.862L423.795 357.862L423.795 360.742L420.915 360.742L420.915 357.862z"/>
<path class="l5" d="M397.878 375.14L400.757 375.14L400.757 378.02L397.878 378.02L397.878 375.14z"/>
<path class="l5" d="M399.273 359.257L399.362 359.257L399.362 359.347L399.273 359.347L399.273 359.257z"/>
<path class="l5" d="M468.43 401.057L465.55 399.617L468.43 398.178L468.43 401.057"/>
<path class="l5" d="M466.99 380.9L469.87 380.9L469.87 383.779L466.99 383.779L466.99 380.9z"/>
<path class="l5" d="M443.953 398.178L446.832 398.178L446.832 401.057L443.953 401.057L443.953 398.178z"/>
<path class="l5" d="M466.99 415.456L469.87 415.456L469.87 418.335L466.99 418.335L466.99 415.456z"/>
<path class="l5" d="M468.385 399.573L468.475 399.573L468.475 399.662L468.385 399.662L468.385 399.573z"/>
<path class="l5" d="M534.663 64.1339L537.542 65.5737L534.663 67.0136L534.663 64.1339"/>
<path class="l5" d="M536.103 81.412L538.982 81.412L538.982 84.2917L536.103 84.2917L536.103 81.412z"/>
<path class="l5" d="M513.065 64.1339L515.945 64.1339L515.945 67.0136L513.065 67.0136L513.065 64.1339z"/>
<path class="l5" d="M536.103 46.8558L538.982 46.8558L538.982 49.7355L536.103 49.7355L536.103 46.8558z"/>
<path class="l5" d="M537.498 65.5288L537.587 65.5288L537.587 65.6187L537.498 65.6187L537.498 65.5288z"/>
<path class="l5" d="M119.988 267.152L122.867 267.152"/>
<path class="l5" d="M119.988 267.152L117.828 264.272L112.789 264.272L114.948 267.152L112.789 270.032L117.828 270.032L119.988 267.152"/>
<path class="l5" d="M122.148 266.432L123.587 266.432L123.587 267.872L122.148 267.872L122.148 266.432z"/>
<path class="l5" d="M121.068 25.2581L122.867 25.2581"/>
<path class="l5" d="M114.948 28.1378L112.789 25.2581L114.948 22.3784L118.908 22.3784L121.068 25.2581L118.908 28.1378L114.948 28.1378"/>
<path class="l5" d="M122.148 24.5382L123.587 24.5382L123.587 25.978L122.148 25.978L122.148 24.5382z"/>
<path class="l5" d="M121.068 428.414L122.867 428.414"/>
<path class="l5" d="M114.948 431.294L112.789 428.414L114.948 425.535L118.908 425.535L121.068 428.414L118.908 431.294L114.948 431.294"/>
<path class="l5" d="M122.148 427.694L123.587 427.694L123.587 429.134L122.148 429.134L122.148 427.694z"/>
<path class="l5" d="M119.988 180.761L122.867 180.761"/>
<path class="l5" d="M119.988 180.761L117.828 177.882L112.789 177.882L114.948 180.761L112.789 183.641L117.828 183.641L119.988 180.761"/>
<path class="l5" d="M122.148 180.041L123.587 180.041L123.587 181.481L122.148 181.481L122.148 180.041z"/>
<path class="l5" d="M119.988 232.596L122.867 232.596"/>
<path class="l5" d="M119.988 232.596L117.828 229.716L112.789 229.716L114.948 232.596L112.789 235.475L117.828 235.475L119.988 232.596"/>
<path class="l5" d="M122.148 231.876L123.587 231.876L123.587 233.316L122.148 233.316L122.148 231.876z"/>
<path class="l5" d="M687.286 151.964L692.326 151.964"/>
<path class="l5" d="M697.365 151.964L695.205 149.085L690.166 149.085L692.326 151.964L690.166 154.844L695.205 154.844L697.365 151.964"/>
<path class="l5" d="M686.566 151.244L688.006 151.244L688.006 152.684L686.566 152.684L686.566 151.244z"/>
<path class="l5" d="M272.611 401.057L269.732 399.617L272.611 398.178L272.611 401.057"/>
<path class="l5" d="M271.171 380.9L274.051 380.9L274.051 383.779L271.171 383.779L271.171 380.9z"/>
<path class="l5" d="M248.134 398.178L251.014 398.178L251.014 401.057L248.134 401.057L248.134 398.178z"/>
<path class="l5" d="M271.171 415.456L274.051 415.456L274.051 418.335L271.171 418.335L271.171 415.456z"/>
<path class="l5" d="M272.566 399.573L272.656 399.573L272.656 399.662L272.566 399.662L272.566 399.573z"/>
<path class="l5" d="M269.732 340.584L272.611 342.024L269.732 343.464L269.732 340.584"/>
<path class="l5" d="M271.171 357.862L274.051 357.862L274.051 360.742L271.171 360.742L271.171 357.862z"/>
<path class="l5" d="M248.134 340.584L251.014 340.584L251.014 343.464L248.134 343.464L248.134 340.584z"/>
<path class="l5" d="M271.171 323.306L274.051 323.306L274.051 326.185L271.171 326.185L271.171 323.306z"/>
<path class="l5" d="M272.566 341.979L272.656 341.979L272.656 342.069L272.566 342.069L272.566 341.979z"/>
<path class="l5" d="M119.988 370.821L122.867 370.821"/>
<path class="l5" d="M119.988 370.821L117.828 367.941L112.789 367.941L114.948 370.821L112.789 373.7L117.828 373.7L119.988 370.821"/>
<path class="l5" d="M122.148 370.101L123.587 370.101L123.587 371.541L122.148 371.541L122.148 370.101z"/>
<path class="l5" d="M456.911 297.389L454.032 295.949L456.911 294.509L456.911 297.389"/>
<path class="l5" d="M455.471 277.231L458.351 277.231L458.351 280.11L455.471 280.11L455.471 277.231z"/>
<path class="l5" d="M432.434 294.509L435.314 294.509L435.314 297.389L432.434 297.389L432.434 294.509z"/>
<path class="l5" d="M455.471 311.787L458.351 311.787L458.351 314.667L455.471 314.667L455.471 311.787z"/>
<path class="l5" d="M456.866 295.904L456.956 295.904L456.956 295.994L456.866 295.994L456.866 295.904z"/>
<path class="l5" d="M427.394 398.898L428.834 398.898L428.834 400.337L427.394 400.337L427.394 398.898z"/>
<path class="l5" d="M490.748 358.582L492.187 358.582L492.187 360.022L490.748 360.022L490.748 358.582z"/>
<path class="l5" d="M571.379 110.929L572.819 110.929L572.819 112.369L571.379 112.369L571.379 110.929z"/>
<path class="l5" d="M548.341 266.432L549.781 266.432L549.781 267.872L548.341 267.872L548.341 266.432z"/>
<path class="l5" d="M180.461 401.057L177.582 399.617L180.461 398.178L180.461 401.057"/>
<path class="l5" d="M179.021 380.9L181.901 380.9L181.901 383.779L179.021 383.779L179.021 380.9z"/>
<path class="l5" d="M155.984 398.178L158.864 398.178L158.864 401.057L155.984 401.057L155.984 398.178z"/>
<path class="l5" d="M179.021 415.456L181.901 415.456L181.901 418.335L179.021 418.335L179.021 415.456z"/>
<path class="l5" d="M180.416 399.573L180.506 399.573L180.506 399.662L180.416 399.662L180.416 399.573z"/>
<path class="l5" d="M177.582 340.584L180.461 342.024L177.582 343.464L177.582 340.584"/>
<path class="l5" d="M179.021 357.862L181.901 357.862L181.901 360.742L179.021 360.742L179.021 357.862z"/>
<path class="l5" d="M155.984 340.584L158.864 340.584L158.864 343.464L155.984 343.464L155.984 340.584z"/>
<path class="l5" d="M179.021 323.306L181.901 323.306L181.901 326.185L179.021 326.185L179.021 323.306z"/>
<path class="l5" d="M180.416 341.979L180.506 341.979L180.506 342.069L180.416 342.069L180.416 341.979z"/>
<path class="l5" d="M369.801 295.229L371.241 295.229L371.241 296.669L369.801 296.669L369.801 295.229z"/>
<path class="l6" d="M252.453 503.286L710.324 503.286"/>
<path class="l6" d="M30.7175 503.286L68.1534 503.286"/>
<path class="l1" d="M549.061 111.649L583.617 111.649"/>
<path class="l1" d="M502.986 140.446L502.986 163.483"/>
<path class="l1" d="M502.986 140.446L549.061 140.446"/>
<path class="l1" d="M502.986 128.927L502.986 140.446"/>
<path class="l1" d="M549.061 111.649L549.061 140.446"/>
<path class="l1" d="M537.542 111.649L549.061 111.649"/>
<path class="l1" d="M468.43 359.302L526.024 359.302"/>
<path class="l1" d="M468.43 359.302L468.43 382.339"/>
<path class="l1" d="M456.911 359.302L468.43 359.302"/>
<path class="l1" d="M399.317 376.58L399.317 428.414"/>
<path class="l1" d="M502.986 428.414L549.061 428.414"/>
<path class="l1" d="M549.061 376.58L549.061 428.414"/>
<path class="l1" d="M468.43 416.896L468.43 428.414"/>
<path class="l1" d="M399.317 428.414L468.43 428.414"/>
<path class="l1" d="M468.43 399.617L502.986 399.617"/>
<path class="l1" d="M502.986 399.617L502.986 428.414"/>
<path class="l1" d="M468.43 428.414L502.986 428.414"/>
<path class="l1" d="M549.061 359.302L583.617 359.302"/>
<path class="l1" d="M583.617 359.302L583.617 428.414"/>
<path class="l1" d="M549.061 428.414L583.617 428.414"/>
<path class="l1" d="M364.761 359.302L399.317 359.302"/>
<path class="l1" d="M364.761 359.302L364.761 428.414"/>
<path class="l1" d="M364.761 428.414L399.317 428.414"/>
<path class="l1" d="M502.986 25.2581L502.986 94.3706"/>
<path class="l1" d="M537.542 25.2581L537.542 48.2956"/>
<path class="l1" d="M502.986 25.2581L537.542 25.2581"/>
<path class="l1" d="M606.655 25.2581L606.655 94.3706"/>
<path class="l1" d="M537.542 65.5737L572.099 65.5737"/>
<path class="l1" d="M572.099 25.2581L572.099 65.5737"/>
<path class="l1" d="M537.542 25.2581L572.099 25.2581"/>
<path class="l1" d="M606.655 111.649L641.211 111.649"/>
<path class="l1" d="M641.211 25.2581L641.211 111.649"/>
<path class="l1" d="M606.655 25.2581L641.211 25.2581"/>
<path class="l1" d="M572.099 25.2581L606.655 25.2581"/>
<path class="l1" d="M468.43 111.649L502.986 111.649"/>
<path class="l1" d="M468.43 25.2581L468.43 111.649"/>
<path class="l1" d="M468.43 25.2581L502.986 25.2581"/>
<path class="l1" d="M583.617 180.761L606.655 180.761"/>
<path class="l1" d="M606.655 151.964L606.655 163.483"/>
<path class="l1" d="M502.986 198.039L502.986 221.077"/>
<path class="l1" d="M549.061 221.077L606.655 221.077"/>
<path class="l1" d="M606.655 198.039L606.655 221.077"/>
<path class="l1" d="M502.986 180.761L583.617 180.761"/>
<path class="l1" d="M502.986 221.077L549.061 221.077"/>
<path class="l1" d="M272.611 416.896L272.611 428.414"/>
<path class="l1" d="M238.055 342.024L249.574 342.024"/>
<path class="l1" d="M238.055 399.617L249.574 399.617"/>
<path class="l1" d="M341.724 376.58L341.724 399.617"/>
<path class="l1" d="M422.355 359.302L456.911 359.302"/>
<path class="l1" d="M652.73 180.761L652.73 232.596"/>
<path class="l1" d="M456.911 313.227L456.911 359.302"/>
<path class="l1" d="M583.617 180.761L583.617 359.302"/>
<path class="l1" d="M549.061 221.077L549.061 342.024"/>
<path class="l1" d="M238.055 376.58L238.055 399.617"/>
<path class="l1" d="M399.317 267.152L399.317 342.024"/>
<path class="l1" d="M341.724 295.949L433.874 295.949"/>
<path class="l1" d="M272.611 399.617L307.167 399.617"/>
<path class="l1" d="M307.167 399.617L307.167 428.414"/>
<path class="l1" d="M456.911 267.152L456.911 278.671"/>
<path class="l1" d="M456.911 295.949L502.986 295.949"/>
<path class="l1" d="M502.986 295.949L502.986 399.617"/>
<path class="l1" d="M341.724 399.617L445.392 399.617"/>
<path class="l1" d="M537.542 82.8519L537.542 111.649"/>
<path class="l1" d="M526.024 111.649L537.542 111.649"/>
<path class="l1" d="M272.611 428.414L307.167 428.414"/>
<path class="l1" d="M272.611 365.061L272.611 382.339"/>
<path class="l1" d="M272.611 313.227L272.611 324.746"/>
<path class="l1" d="M272.611 313.227L307.167 313.227"/>
<path class="l1" d="M307.167 313.227L307.167 342.024"/>
<path class="l1" d="M272.611 342.024L307.167 342.024"/>
<path class="l1" d="M272.611 25.2581L272.611 313.227"/>
<path class="l1" d="M272.611 25.2581L468.43 25.2581"/>
<path class="l1" d="M399.317 267.152L456.911 267.152"/>
<path class="l1" d="M122.867 267.152L399.317 267.152"/>
<path class="l1" d="M122.867 180.761L479.949 180.761"/>
<path class="l1" d="M180.461 416.896L180.461 428.414"/>
<path class="l1" d="M145.905 342.024L157.424 342.024"/>
<path class="l1" d="M145.905 399.617L157.424 399.617"/>
<path class="l1" d="M145.905 370.821L145.905 399.617"/>
<path class="l1" d="M180.461 399.617L215.017 399.617"/>
<path class="l1" d="M215.017 399.617L215.017 428.414"/>
<path class="l1" d="M180.461 428.414L215.017 428.414"/>
<path class="l1" d="M180.461 370.821L180.461 382.339"/>
<path class="l1" d="M180.461 313.227L180.461 324.746"/>
<path class="l1" d="M180.461 313.227L215.017 313.227"/>
<path class="l1" d="M215.017 313.227L215.017 342.024"/>
<path class="l1" d="M180.461 342.024L215.017 342.024"/>
<path class="l1" d="M122.867 370.821L145.905 370.821"/>
<path class="l1" d="M145.905 342.024L145.905 370.821"/>
<path class="l1" d="M122.867 428.414L180.461 428.414"/>
<path class="l1" d="M180.461 25.2581L180.461 313.227"/>
<path class="l1" d="M122.867 25.2581L180.461 25.2581"/>
<path class="l1" d="M180.461 359.302L180.461 370.821"/>
<path class="l1" d="M238.055 342.024L238.055 370.821"/>
<path class="l1" d="M238.055 370.821L238.055 376.58"/>
<path class="l1" d="M272.611 359.302L272.611 365.061"/>
<path class="l1" d="M341.724 295.949L341.724 365.061"/>
<path class="l1" d="M341.724 65.5737L341.724 295.949"/>
<path class="l1" d="M341.724 65.5737L514.505 65.5737"/>
<path class="l1" d="M238.055 376.58L341.724 376.58"/>
<path class="l1" d="M307.167 428.414L364.761 428.414"/>
<path class="l1" d="M272.611 365.061L341.724 365.061"/>
<path class="l1" d="M215.017 428.414L272.611 428.414"/>
<path class="l1" d="M180.461 25.2581L272.611 25.2581"/>
<path class="l1" d="M180.461 370.821L238.055 370.821"/>
<path class="l1" d="M629.692 180.761L652.73 180.761"/>
<path class="l1" d="M122.867 232.596L652.73 232.596"/>
<path class="l1" d="M606.655 151.964L687.286 151.964"/>
<path class="l1" d="M606.655 128.927L606.655 151.964"/>
<circle class="l1" cx="180.461" cy="25.2581" r="2.13097"/>
<circle class="l1" cx="272.611" cy="25.2581" r="2.13097"/>
<circle class="l1" cx="180.461" cy="25.2581" r="2.13097"/>
<circle class="l1" cx="180.461" cy="25.2581" r="2.13097"/>
<circle class="l1" cx="180.461" cy="313.227" r="2.13097"/>
<circle class="l1" cx="399.317" cy="267.152" r="2.13097"/>
<circle class="l1" cx="180.461" cy="370.821" r="2.13097"/>
<circle class="l1" cx="238.055" cy="370.821" r="2.13097"/>
<circle class="l1" cx="215.017" cy="428.414" r="2.13097"/>
<circle class="l1" cx="272.611" cy="428.414" r="2.13097"/>
<circle class="l1" cx="238.055" cy="376.58" r="2.13097"/>
<circle class="l1" cx="238.055" cy="370.821" r="2.13097"/>
<circle class="l1" cx="238.055" cy="376.58" r="2.13097"/>
<circle class="l1" cx="238.055" cy="370.821" r="2.13097"/>
<circle class="l1" cx="180.461" cy="370.821" r="2.13097"/>
<circle class="l1" cx="180.461" cy="428.414" r="2.13097"/>
<circle class="l1" cx="145.905" cy="370.821" r="2.13097"/>
<circle class="l1" cx="145.905" cy="370.821" r="2.13097"/>
<circle class="l1" cx="180.461" cy="313.227" r="2.13097"/>
<circle class="l1" cx="180.461" cy="313.227" r="2.13097"/>
<circle class="l1" cx="180.461" cy="370.821" r="2.13097"/>
<circle class="l1" cx="180.461" cy="428.414" r="2.13097"/>
<circle class="l1" cx="215.017" cy="428.414" r="2.13097"/>
<circle class="l1" cx="215.017" cy="428.414" r="2.13097"/>
<circle class="l1" cx="145.905" cy="370.821" r="2.13097"/>
<circle class="l1" cx="180.461" cy="428.414" r="2.13097"/>
<circle class="l1" cx="238.055" cy="376.58" r="2.13097"/>
<circle class="l1" cx="272.611" cy="25.2581" r="2.13097"/>
<circle class="l1" cx="468.43" cy="25.2581" r="2.13097"/>
<circle class="l1" cx="272.611" cy="25.2581" r="2.13097"/>
<circle class="l1" cx="272.611" cy="313.227" r="2.13097"/>
<circle class="l1" cx="468.43" cy="25.2581" r="2.13097"/>
<circle class="l1" cx="502.986" cy="25.2581" r="2.13097"/>
<circle class="l1" cx="468.43" cy="25.2581" r="2.13097"/>
<circle class="l1" cx="341.724" cy="295.949" r="2.13097"/>
<circle class="l1" cx="399.317" cy="267.152" r="2.13097"/>
<circle class="l1" cx="399.317" cy="267.152" r="2.13097"/>
<circle class="l1" cx="272.611" cy="365.061" r="2.13097"/>
<circle class="l1" cx="307.167" cy="428.414" r="2.13097"/>
<circle class="l1" cx="364.761" cy="428.414" r="2.13097"/>
<circle class="l1" cx="341.724" cy="295.949" r="2.13097"/>
<circle class="l1" cx="272.611" cy="365.061" r="2.13097"/>
<circle class="l1" cx="272.611" cy="313.227" r="2.13097"/>
<circle class="l1" cx="272.611" cy="313.227" r="2.13097"/>
<circle class="l1" cx="272.611" cy="365.061" r="2.13097"/>
<circle class="l1" cx="272.611" cy="428.414" r="2.13097"/>
<circle class="l1" cx="307.167" cy="428.414" r="2.13097"/>
<circle class="l1" cx="307.167" cy="428.414" r="2.13097"/>
<circle class="l1" cx="341.724" cy="295.949" r="2.13097"/>
<circle class="l1" cx="456.911" cy="359.302" r="2.13097"/>
<circle class="l1" cx="456.911" cy="359.302" r="2.13097"/>
<circle class="l1" cx="272.611" cy="428.414" r="2.13097"/>
<circle class="l1" cx="364.761" cy="428.414" r="2.13097"/>
<circle class="l1" cx="399.317" cy="428.414" r="2.13097"/>
<circle class="l1" cx="364.761" cy="428.414" r="2.13097"/>
<circle class="l1" cx="468.43" cy="428.414" r="2.13097"/>
<circle class="l1" cx="502.986" cy="428.414" r="2.13097"/>
<circle class="l1" cx="502.986" cy="399.617" r="2.13097"/>
<circle class="l1" cx="399.317" cy="428.414" r="2.13097"/>
<circle class="l1" cx="468.43" cy="428.414" r="2.13097"/>
<circle class="l1" cx="468.43" cy="428.414" r="2.13097"/>
<circle class="l1" cx="399.317" cy="428.414" r="2.13097"/>
<circle class="l1" cx="456.911" cy="359.302" r="2.13097"/>
<circle class="l1" cx="468.43" cy="359.302" r="2.13097"/>
<circle class="l1" cx="468.43" cy="359.302" r="2.13097"/>
<circle class="l1" cx="468.43" cy="359.302" r="2.13097"/>
<circle class="l1" cx="572.099" cy="25.2581" r="2.13097"/>
<circle class="l1" cx="606.655" cy="25.2581" r="2.13097"/>
<circle class="l1" cx="606.655" cy="25.2581" r="2.13097"/>
<circle class="l1" cx="537.542" cy="25.2581" r="2.13097"/>
<circle class="l1" cx="572.099" cy="25.2581" r="2.13097"/>
<circle class="l1" cx="572.099" cy="25.2581" r="2.13097"/>
<circle class="l1" cx="606.655" cy="25.2581" r="2.13097"/>
<circle class="l1" cx="502.986" cy="25.2581" r="2.13097"/>
<circle class="l1" cx="537.542" cy="25.2581" r="2.13097"/>
<circle class="l1" cx="537.542" cy="25.2581" r="2.13097"/>
<circle class="l1" cx="502.986" cy="25.2581" r="2.13097"/>
<circle class="l1" cx="606.655" cy="151.964" r="2.13097"/>
<circle class="l1" cx="606.655" cy="151.964" r="2.13097"/>
<circle class="l1" cx="537.542" cy="111.649" r="2.13097"/>
<circle class="l1" cx="537.542" cy="111.649" r="2.13097"/>
<circle class="l1" cx="549.061" cy="221.077" r="2.13097"/>
<circle class="l1" cx="583.617" cy="180.761" r="2.13097"/>
<circle class="l1" cx="583.617" cy="359.302" r="2.13097"/>
<circle class="l1" cx="549.061" cy="221.077" r="2.13097"/>
<circle class="l1" cx="583.617" cy="180.761" r="2.13097"/>
<circle class="l1" cx="549.061" cy="221.077" r="2.13097"/>
<circle class="l1" cx="606.655" cy="151.964" r="2.13097"/>
<circle class="l1" cx="583.617" cy="180.761" r="2.13097"/>
<circle class="l1" cx="537.542" cy="111.649" r="2.13097"/>
<circle class="l1" cx="549.061" cy="111.649" r="2.13097"/>
<circle class="l1" cx="549.061" cy="111.649" r="2.13097"/>
<circle class="l1" cx="502.986" cy="140.446" r="2.13097"/>
<circle class="l1" cx="502.986" cy="140.446" r="2.13097"/>
<circle class="l1" cx="502.986" cy="140.446" r="2.13097"/>
<circle class="l1" cx="549.061" cy="111.649" r="2.13097"/>
<circle class="l1" cx="502.986" cy="399.617" r="2.13097"/>
<circle class="l1" cx="549.061" cy="428.414" r="2.13097"/>
<circle class="l1" cx="583.617" cy="359.302" r="2.13097"/>
<circle class="l1" cx="583.617" cy="359.302" r="2.13097"/>
<circle class="l1" cx="502.986" cy="399.617" r="2.13097"/>
<circle class="l1" cx="502.986" cy="428.414" r="2.13097"/>
<circle class="l1" cx="549.061" cy="428.414" r="2.13097"/>
<circle class="l1" cx="502.986" cy="428.414" r="2.13097"/>
<circle class="l1" cx="549.061" cy="428.414" r="2.13097"/>
<text fill="#222222"  xml:space="preserve" font-size="11.9795" transform="translate(243.814, 18.8574)" >1.45 &lt; 1.5(nom) &lt; 1.55V</text>
<text fill="#222222"  xml:space="preserve" font-size="11.9795" transform="translate(537.542, 445.051)" >4uA</text>
<text fill="#222222"  xml:space="preserve" font-size="11.9795" transform="translate(353.242, 208.917)" >0.7 &lt; 0.8(nom) &lt; 0.9V</text>
<text fill="#222222"  xml:space="preserve" font-size="8.98462" transform="translate(462.671, 345.636)" >~0.7V</text>
<text fill="#222222"  xml:space="preserve" font-size="8.98462" transform="translate(526.024, 213.17)" >~0.38V</text>
<text fill="#222222"  xml:space="preserve" font-size="8.98462" transform="translate(526.024, 149.817)" >~0.78V</text>
</svg>
