<svg xmlns="http://www.w3.org/2000/svg" xmlns:xlink="http://www.w3.org/1999/xlink" width="1125" height="659" version="1.1">
<style type="text/css">
.l0{
  fill: #ffffff;
  stroke: #ffffff;
  stroke-linecap:round;
  stroke-linejoin:round;
  stroke-width: 1.0277;
}
.l1{
  fill: #0099cc;
  stroke: #0099cc;
  stroke-linecap:round;
  stroke-linejoin:round;
  stroke-width: 1.0277;
}
.l2{
  fill: #aaaaaa; fill-opacity: 0.2;
  stroke: #aaaaaa;
  stroke-linecap:round;
  stroke-linejoin:round;
  stroke-width: 1.0277;
}
.l3{
  fill: #222222; fill-opacity: 0.5;
  stroke: #222222;
  stroke-linecap:round;
  stroke-linejoin:round;
  stroke-width: 1.0277;
}
.l4{
  fill: #229900;
  stroke: #229900;
  stroke-linecap:round;
  stroke-linejoin:round;
  stroke-width: 1.0277;
}
.l5{
  fill: #bb2200;
  stroke: #bb2200;
  stroke-linecap:round;
  stroke-linejoin:round;
  stroke-width: 1.0277;
}
.l6{
  fill: #0066cc; fill-opacity: 0.5;
  stroke: #0066cc;
  stroke-linecap:round;
  stroke-linejoin:round;
  stroke-width: 1.0277;
}
.l7{
  fill: #ff0000; fill-opacity: 0.5;
  stroke: #ff0000;
  stroke-linecap:round;
  stroke-linejoin:round;
  stroke-width: 1.0277;
}
.l8{
  fill: #888800; fill-opacity: 0.5;
  stroke: #888800;
  stroke-linecap:round;
  stroke-linejoin:round;
  stroke-width: 1.0277;
}
.l9{
  fill: #00aaaa; fill-opacity: 0.5;
  stroke: #00aaaa;
  stroke-linecap:round;
  stroke-linejoin:round;
  stroke-width: 1.0277;
}
.l10{
  fill: #880088;
  stroke: #880088;
  stroke-linecap:round;
  stroke-linejoin:round;
  stroke-width: 1.0277;
}
.l11{
  fill: #00ff00; fill-opacity: 0.5;
  stroke: #00ff00;
  stroke-linecap:round;
  stroke-linejoin:round;
  stroke-width: 1.0277;
}
.l12{
  fill: #0000cc; fill-opacity: 0.5;
  stroke: #0000cc;
  stroke-linecap:round;
  stroke-linejoin:round;
  stroke-width: 1.0277;
}
.l13{
  fill: #666600; fill-opacity: 0.5;
  stroke: #666600;
  stroke-linecap:round;
  stroke-linejoin:round;
  stroke-width: 1.0277;
}
.l14{
  fill: #557755; fill-opacity: 0.2;
  stroke: #557755;
  stroke-linecap:round;
  stroke-linejoin:round;
  stroke-width: 1.0277;
}
.l15{
  fill: #aa2222; fill-opacity: 0.5;
  stroke: #aa2222;
  stroke-linecap:round;
  stroke-linejoin:round;
  stroke-width: 1.0277;
}
.l16{
  fill: #7ccc40; fill-opacity: 0.5;
  stroke: #7ccc40;
  stroke-linecap:round;
  stroke-linejoin:round;
  stroke-width: 1.0277;
}
.l17{
  fill: #00ffcc; fill-opacity: 0.2;
  stroke: #00ffcc;
  stroke-linecap:round;
  stroke-linejoin:round;
  stroke-width: 1.0277;
}
.l18{
  fill: #ce0097; fill-opacity: 0.5;
  stroke: #ce0097;
  stroke-linecap:round;
  stroke-linejoin:round;
  stroke-width: 1.0277;
}
.l19{
  fill: #d2d46b; fill-opacity: 0.2;
  stroke: #d2d46b;
  stroke-linecap:round;
  stroke-linejoin:round;
  stroke-width: 1.0277;
}
.l20{
  fill: #ef6158; fill-opacity: 0.2;
  stroke: #ef6158;
  stroke-linecap:round;
  stroke-linejoin:round;
  stroke-width: 1.0277;
}
.l21{
  fill: #fdb200; fill-opacity: 0.2;
  stroke: #fdb200;
  stroke-linecap:round;
  stroke-linejoin:round;
  stroke-width: 1.0277;
}
text {font-family: Sans-Serif;}
</style>
<rect class="l0" x="0" y="0" width="1125" height="659"/>
<path class="l4" d="M52.0752 522.746L105.363 522.746"/>
<path class="l4" d="M52.0752 522.746L52.0752 537.971"/>
<path class="l4" d="M52.0752 65.9899L105.363 65.9899"/>
<path class="l4" d="M52.0752 65.9899L52.0752 81.2151"/>
<path class="l4" d="M449.834 376.203L453.64 376.203"/>
<path class="l4" d="M451.737 374.3L451.737 378.106"/>
<path class="l4" d="M447.93 370.494L447.93 416.169"/>
<circle class="l4" cx="447.93" cy="393.332" r="11.4189" style="fill:none;" />
<path class="l4" d="M447.93 431.395L447.93 440.91"/>
<path class="l4" d="M444.124 440.91L451.737 440.91"/>
<path class="l4" d="M447.93 444.717L451.737 440.91"/>
<path class="l4" d="M444.124 440.91L447.93 444.717"/>
<path class="l4" d="M432.705 522.746L409.867 513.23L409.867 518.94L387.03 518.94L394.642 522.746L387.03 526.552L409.867 526.552L409.867 532.262L432.705 522.746"/>
<path class="l4" d="M615.408 522.746L592.57 513.23L592.57 518.94L569.732 518.94L577.345 522.746L569.732 526.552L592.57 526.552L592.57 532.262L615.408 522.746"/>
<path class="l4" d="M912.299 164.954L927.524 164.954"/>
<path class="l4" d="M790.497 142.116L805.723 142.116"/>
<path class="l4" d="M790.497 187.791L805.723 187.791"/>
<path class="l4" d="M805.723 119.278L805.723 210.629"/>
<path class="l4" d="M805.723 210.629L912.299 164.954"/>
<path class="l4" d="M805.723 119.278L912.299 164.954"/>
<path class="l4" d="M790.497 104.053L927.524 104.053"/>
<path class="l4" d="M927.524 104.053L927.524 225.854"/>
<path class="l4" d="M790.497 225.854L927.524 225.854"/>
<path class="l4" d="M790.497 104.053L790.497 225.854"/>
<path class="l4" d="M510.734 376.203L514.541 376.203"/>
<path class="l4" d="M512.637 374.3L512.637 378.106"/>
<path class="l4" d="M508.831 370.494L508.831 416.169"/>
<circle class="l4" cx="508.831" cy="393.332" r="11.4189" style="fill:none;" />
<path class="l4" d="M508.831 431.395L508.831 440.91"/>
<path class="l4" d="M505.025 440.91L512.637 440.91"/>
<path class="l4" d="M508.831 444.717L512.637 440.91"/>
<path class="l4" d="M505.025 440.91L508.831 444.717"/>
<path class="l4" d="M1041.71 222.048L1041.71 241.08"/>
<path class="l4" d="M1041.71 195.404L1041.71 214.436"/>
<path class="l4" d="M1034.1 214.436L1049.33 214.436"/>
<path class="l4" d="M1034.1 222.048L1049.33 222.048"/>
<path class="l4" d="M1043.62 201.114L1047.42 201.114"/>
<path class="l4" d="M1045.52 199.21L1045.52 203.017"/>
<path class="l4" d="M586.86 216.339L590.667 216.339"/>
<path class="l4" d="M588.763 214.436L588.763 218.242"/>
<path class="l4" d="M584.957 210.629L584.957 256.305"/>
<circle class="l4" cx="584.957" cy="233.467" r="11.4189" style="fill:none;" />
<path class="l4" d="M881.849 27.9269L881.849 39.3458"/>
<path class="l4" d="M881.849 62.1836L881.849 73.6025"/>
<path class="l4" d="M883.752 33.6363L887.558 33.6363"/>
<path class="l4" d="M885.655 31.7332L885.655 35.5395"/>
<path class="l4" d="M881.849 45.0552L881.849 52.6678L883.752 52.6678L881.849 58.3773L879.945 52.6678L881.849 52.6678L881.849 45.0552"/>
<circle class="l4" cx="881.849" cy="50.7647" r="11.4189" style="fill:none;" />
<path class="l4" d="M883.752 300.077L887.558 300.077"/>
<path class="l4" d="M885.655 298.174L885.655 301.98"/>
<path class="l4" d="M881.849 294.368L881.849 340.043"/>
<circle class="l4" cx="881.849" cy="317.206" r="11.4189" style="fill:none;" />
<path class="l4" d="M52.0752 454.232L105.363 454.232"/>
<path class="l4" d="M52.0752 454.232L52.0752 469.458"/>
<path class="l5" d="M446.027 368.591L449.834 368.591L449.834 372.397L446.027 372.397L446.027 368.591z"/>
<path class="l5" d="M446.027 414.266L449.834 414.266L449.834 418.073L446.027 418.073L446.027 414.266z"/>
<path class="l5" d="M446.027 429.491L449.834 429.491L449.834 433.298L446.027 433.298L446.027 429.491z"/>
<path class="l5" d="M166.264 610.291L166.026 610.529L165.788 610.767L165.551 611.004L165.313 611.242L165.075 611.48L164.837 611.718L164.599 611.956L164.361 612.194L164.123 612.432L163.885 612.67L163.647 612.908L163.409 613.145L163.172 613.383L162.934 613.621L162.696 613.859L162.458 614.097L162.22 614.335L161.982 614.573L161.744 614.811L161.506 615.049L161.268 615.287L161.031 615.524L160.793 615.762L160.555 616L160.317 616.238L160.079 616.476L159.841 616.714L159.603 616.952L159.365 617.19L159.127 617.428L158.889 617.665L158.652 617.903L158.652 617.903L158.421 618.141L158.206 618.379L158.005 618.617L157.819 618.855L157.648 619.093L157.492 619.331L157.351 619.569L157.224 619.806L157.113 620.044L157.016 620.282L156.934 620.52L156.867 620.758L156.815 620.996L156.778 621.234L156.756 621.472L156.748 621.71L156.756 621.948L156.778 622.185L156.815 622.423L156.867 622.661L156.934 622.899L157.016 623.137L157.113 623.375L157.224 623.613L157.351 623.851L157.492 624.089L157.648 624.326L157.819 624.564L158.005 624.802L158.206 625.04L158.421 625.278L158.652 625.516L158.652 625.516L158.89 625.755L159.131 625.995L159.374 626.238L159.618 626.482L159.864 626.729L160.112 626.977L160.362 627.227L160.614 627.479L160.868 627.732L161.123 627.988L161.381 628.245L161.64 628.504L161.901 628.766L162.164 629.029L162.429 629.293L162.696 629.56L162.964 629.829L163.235 630.099L163.507 630.371L163.781 630.646L164.057 630.922L164.335 631.199L164.615 631.479L164.896 631.761L165.18 632.044L165.465 632.329L165.752 632.617L166.041 632.906L166.332 633.196L166.625 633.489L166.919 633.784L167.216 634.08L167.216 634.08L167.511 634.376L167.803 634.667L168.091 634.955L168.375 635.24L168.656 635.52L168.933 635.797L169.206 636.071L169.476 636.34L169.742 636.606L170.004 636.868L170.262 637.126L170.517 637.381L170.767 637.632L171.015 637.879L171.258 638.122L171.498 638.362L171.734 638.598L171.966 638.831L172.195 639.059L172.42 639.284L172.641 639.505L172.858 639.723L173.072 639.936L173.282 640.146L173.488 640.353L173.691 640.555L173.89 640.754L174.085 640.949L174.276 641.141L174.464 641.328L174.648 641.512L174.828 641.693L174.828 641.693L175.001 641.868L175.163 642.038L175.313 642.203L175.453 642.362L175.581 642.515L175.698 642.663L175.804 642.805L175.899 642.942L175.983 643.073L176.055 643.198L176.116 643.318L176.167 643.432L176.206 643.541L176.233 643.644L176.25 643.742L176.256 643.834L176.25 643.92L176.233 644.001L176.206 644.076L176.167 644.146L176.116 644.21L176.055 644.269L175.983 644.322L175.899 644.369L175.804 644.411L175.698 644.447L175.581 644.478L175.453 644.503L175.313 644.522L175.163 644.536L175.001 644.545L174.828 644.547L174.828 644.547L174.65 644.547L174.472 644.547L174.293 644.547L174.115 644.547L173.936 644.547L173.758 644.547L173.579 644.547L173.401 644.547L173.223 644.547L173.044 644.547L172.866 644.547L172.687 644.547L172.509 644.547L172.33 644.547L172.152 644.547L171.974 644.547L171.795 644.547L171.617 644.547L171.438 644.547L171.26 644.547L171.082 644.547L170.903 644.547L170.725 644.547L170.546 644.547L170.368 644.547L170.189 644.547L170.011 644.547L169.833 644.547L169.654 644.547L169.476 644.547L169.297 644.547L169.119 644.547L169.119 644.547L168.941 644.547L168.766 644.547L168.592 644.547L168.42 644.547L168.25 644.547L168.082 644.547L167.916 644.547L167.751 644.547L167.588 644.547L167.428 644.547L167.269 644.547L167.112 644.547L166.956 644.547L166.803 644.547L166.652 644.547L166.502 644.547L166.354 644.547L166.208 644.547L166.064 644.547L165.922 644.547L165.782 644.547L165.643 644.547L165.507 644.547L165.372 644.547L165.239 644.547L165.108 644.547L164.979 644.547L164.852 644.547L164.726 644.547L164.603 644.547L164.481 644.547L164.361 644.547L164.361 644.547L164.242 644.546L164.123 644.54L164.004 644.531L163.885 644.518L163.766 644.501L163.647 644.481L163.528 644.456L163.409 644.428L163.291 644.397L163.172 644.362L163.053 644.323L162.934 644.28L162.815 644.233L162.696 644.183L162.577 644.129L162.458 644.072L162.339 644.01L162.22 643.945L162.101 643.877L161.982 643.804L161.863 643.728L161.744 643.648L161.625 643.564L161.506 643.477L161.387 643.386L161.268 643.291L161.149 643.193L161.031 643.09L160.912 642.984L160.793 642.875L160.674 642.761L160.555 642.644L160.555 642.644L160.436 642.525L160.317 642.406L160.198 642.287L160.079 642.169L159.96 642.05L159.841 641.931L159.722 641.812L159.603 641.693L159.484 641.574L159.365 641.455L159.246 641.336L159.127 641.217L159.008 641.098L158.889 640.979L158.771 640.86L158.652 640.741L158.533 640.622L158.414 640.503L158.295 640.384L158.176 640.265L158.057 640.146L157.938 640.027L157.819 639.909L157.7 639.79L157.581 639.671L157.462 639.552L157.343 639.433L157.224 639.314L157.105 639.195L156.986 639.076L156.867 638.957L156.748 638.838L156.748 638.838L156.628 638.717L156.503 638.593L156.375 638.464L156.243 638.332L156.107 638.197L155.968 638.057L155.825 637.914L155.678 637.767L155.527 637.617L155.373 637.463L155.215 637.305L155.053 637.143L154.888 636.978L154.719 636.808L154.546 636.636L154.369 636.459L154.189 636.279L154.005 636.095L153.818 635.907L153.626 635.716L153.431 635.52L153.232 635.322L153.029 635.119L152.823 634.913L152.613 634.703L152.399 634.489L152.182 634.272L151.961 634.05L151.736 633.825L151.507 633.597L151.275 633.365L151.039 633.129L151.039 633.129L150.801 632.898L150.563 632.682L150.325 632.482L150.087 632.296L149.85 632.125L149.612 631.969L149.374 631.828L149.136 631.701L148.898 631.59L148.66 631.493L148.422 631.411L148.184 631.344L147.946 631.292L147.708 631.255L147.471 631.233L147.233 631.225L146.995 631.233L146.757 631.255L146.519 631.292L146.281 631.344L146.043 631.411L145.805 631.493L145.567 631.59L145.33 631.701L145.092 631.828L144.854 631.969L144.616 632.125L144.378 632.296L144.14 632.482L143.902 632.682L143.664 632.898L143.426 633.129L143.426 633.129L143.19 633.365L142.958 633.597L142.729 633.825L142.505 634.05L142.283 634.272L142.066 634.489L141.852 634.703L141.642 634.913L141.436 635.119L141.233 635.322L141.034 635.52L140.839 635.716L140.648 635.907L140.46 636.095L140.276 636.279L140.096 636.459L139.919 636.636L139.746 636.808L139.577 636.978L139.412 637.143L139.25 637.305L139.092 637.463L138.938 637.617L138.787 637.767L138.641 637.914L138.498 638.057L138.358 638.197L138.222 638.332L138.091 638.464L137.962 638.593L137.838 638.717L137.717 638.838L137.717 638.838L137.598 638.957L137.479 639.076L137.36 639.195L137.241 639.314L137.122 639.433L137.003 639.552L136.884 639.671L136.765 639.79L136.646 639.909L136.527 640.027L136.409 640.146L136.29 640.265L136.171 640.384L136.052 640.503L135.933 640.622L135.814 640.741L135.695 640.86L135.576 640.979L135.457 641.098L135.338 641.217L135.219 641.336L135.1 641.455L134.981 641.574L134.862 641.693L134.743 641.812L134.624 641.931L134.505 642.05L134.386 642.169L134.267 642.287L134.149 642.406L134.03 642.525L133.911 642.644L133.911 642.644L133.792 642.761L133.673 642.875L133.554 642.984L133.435 643.09L133.316 643.193L133.197 643.291L133.078 643.386L132.959 643.477L132.84 643.564L132.721 643.648L132.602 643.728L132.483 643.804L132.364 643.877L132.245 643.945L132.126 644.01L132.007 644.072L131.889 644.129L131.77 644.183L131.651 644.233L131.532 644.28L131.413 644.323L131.294 644.362L131.175 644.397L131.056 644.428L130.937 644.456L130.818 644.481L130.699 644.501L130.58 644.518L130.461 644.531L130.342 644.54L130.223 644.546L130.104 644.547L130.104 644.547L129.984 644.547L129.863 644.547L129.739 644.547L129.614 644.547L129.486 644.547L129.357 644.547L129.226 644.547L129.093 644.547L128.959 644.547L128.822 644.547L128.683 644.547L128.543 644.547L128.401 644.547L128.257 644.547L128.111 644.547L127.963 644.547L127.814 644.547L127.662 644.547L127.509 644.547L127.354 644.547L127.197 644.547L127.038 644.547L126.877 644.547L126.714 644.547L126.55 644.547L126.384 644.547L126.215 644.547L126.045 644.547L125.873 644.547L125.7 644.547L125.524 644.547L125.346 644.547L125.346 644.547L125.168 644.547L124.99 644.547L124.811 644.547L124.633 644.547L124.454 644.547L124.276 644.547L124.098 644.547L123.919 644.547L123.741 644.547L123.562 644.547L123.384 644.547L123.205 644.547L123.027 644.547L122.849 644.547L122.67 644.547L122.492 644.547L122.313 644.547L122.135 644.547L121.956 644.547L121.778 644.547L121.6 644.547L121.421 644.547L121.243 644.547L121.064 644.547L120.886 644.547L120.708 644.547L120.529 644.547L120.351 644.547L120.172 644.547L119.994 644.547L119.815 644.547L119.637 644.547L119.637 644.547L119.464 644.545L119.302 644.536L119.152 644.522L119.013 644.503L118.884 644.478L118.767 644.447L118.661 644.411L118.566 644.369L118.483 644.322L118.41 644.269L118.349 644.21L118.299 644.146L118.26 644.076L118.232 644.001L118.215 643.92L118.21 643.834L118.215 643.742L118.232 643.644L118.26 643.541L118.299 643.432L118.349 643.318L118.41 643.198L118.483 643.073L118.566 642.942L118.661 642.805L118.767 642.663L118.884 642.515L119.013 642.362L119.152 642.203L119.302 642.038L119.464 641.868L119.637 641.693L119.637 641.693L119.817 641.512L120.001 641.328L120.189 641.141L120.38 640.949L120.576 640.754L120.774 640.555L120.977 640.353L121.183 640.146L121.393 639.936L121.607 639.723L121.825 639.505L122.046 639.284L122.271 639.059L122.499 638.831L122.731 638.598L122.968 638.362L123.207 638.122L123.451 637.879L123.698 637.632L123.949 637.381L124.203 637.126L124.462 636.868L124.724 636.606L124.99 636.34L125.259 636.071L125.532 635.797L125.809 635.52L126.09 635.24L126.374 634.955L126.662 634.667L126.954 634.376L127.25 634.08L127.25 634.08L127.546 633.784L127.841 633.489L128.133 633.196L128.424 632.906L128.713 632.617L129 632.329L129.286 632.044L129.569 631.761L129.851 631.479L130.13 631.199L130.408 630.922L130.684 630.646L130.958 630.371L131.231 630.099L131.501 629.829L131.77 629.56L132.036 629.293L132.301 629.029L132.564 628.766L132.825 628.504L133.085 628.245L133.342 627.988L133.597 627.732L133.851 627.479L134.103 627.227L134.353 626.977L134.601 626.729L134.847 626.482L135.092 626.238L135.334 625.995L135.575 625.755L135.814 625.516L135.814 625.516L136.044 625.278L136.26 625.04L136.461 624.802L136.646 624.564L136.817 624.326L136.974 624.089L137.115 623.851L137.241 623.613L137.353 623.375L137.449 623.137L137.531 622.899L137.598 622.661L137.65 622.423L137.687 622.185L137.71 621.948L137.717 621.71L137.71 621.472L137.687 621.234L137.65 620.996L137.598 620.758L137.531 620.52L137.449 620.282L137.353 620.044L137.241 619.806L137.115 619.569L136.974 619.331L136.817 619.093L136.646 618.855L136.461 618.617L136.26 618.379L136.044 618.141L135.814 617.903L135.814 617.903L135.575 617.665L135.334 617.424L135.092 617.181L134.847 616.937L134.601 616.691L134.353 616.443L134.103 616.193L133.851 615.941L133.597 615.687L133.342 615.431L133.085 615.174L132.825 614.915L132.564 614.654L132.301 614.391L132.036 614.126L131.77 613.859L131.501 613.591L131.231 613.32L130.958 613.048L130.684 612.774L130.408 612.498L130.13 612.22L129.851 611.94L129.569 611.659L129.286 611.375L129 611.09L128.713 610.803L128.424 610.514L128.133 610.223L127.841 609.93L127.546 609.636L127.25 609.339L127.25 609.339L126.954 609.044L126.662 608.752L126.374 608.464L126.09 608.179L125.809 607.899L125.532 607.622L125.259 607.349L124.99 607.079L124.724 606.813L124.462 606.551L124.203 606.293L123.949 606.038L123.698 605.787L123.451 605.54L123.207 605.297L122.968 605.057L122.731 604.821L122.499 604.589L122.271 604.36L122.046 604.135L121.825 603.914L121.607 603.697L121.393 603.483L121.183 603.273L120.977 603.067L120.774 602.864L120.576 602.665L120.38 602.47L120.189 602.279L120.001 602.091L119.817 601.907L119.637 601.727L119.637 601.727L119.464 601.551L119.302 601.381L119.152 601.216L119.013 601.057L118.884 600.904L118.767 600.756L118.661 600.614L118.566 600.478L118.483 600.347L118.41 600.221L118.349 600.101L118.299 599.987L118.26 599.878L118.232 599.775L118.215 599.678L118.21 599.586L118.215 599.499L118.232 599.418L118.26 599.343L118.299 599.273L118.349 599.209L118.41 599.151L118.483 599.098L118.566 599.05L118.661 599.008L118.767 598.972L118.884 598.942L119.013 598.916L119.152 598.897L119.302 598.883L119.464 598.875L119.637 598.872L119.637 598.872L119.815 598.872L119.994 598.872L120.172 598.872L120.351 598.872L120.529 598.872L120.708 598.872L120.886 598.872L121.064 598.872L121.243 598.872L121.421 598.872L121.6 598.872L121.778 598.872L121.956 598.872L122.135 598.872L122.313 598.872L122.492 598.872L122.67 598.872L122.849 598.872L123.027 598.872L123.205 598.872L123.384 598.872L123.562 598.872L123.741 598.872L123.919 598.872L124.098 598.872L124.276 598.872L124.454 598.872L124.633 598.872L124.811 598.872L124.99 598.872L125.168 598.872L125.346 598.872L125.346 598.872L125.524 598.872L125.7 598.872L125.873 598.872L126.045 598.872L126.215 598.872L126.384 598.872L126.55 598.872L126.714 598.872L126.877 598.872L127.038 598.872L127.197 598.872L127.354 598.872L127.509 598.872L127.662 598.872L127.814 598.872L127.963 598.872L128.111 598.872L128.257 598.872L128.401 598.872L128.543 598.872L128.683 598.872L128.822 598.872L128.959 598.872L129.093 598.872L129.226 598.872L129.357 598.872L129.486 598.872L129.614 598.872L129.739 598.872L129.863 598.872L129.984 598.872L130.104 598.872L130.104 598.872L130.223 598.874L130.342 598.879L130.461 598.889L130.58 598.902L130.699 598.918L130.818 598.939L130.937 598.963L131.056 598.991L131.175 599.022L131.294 599.058L131.413 599.097L131.532 599.139L131.651 599.186L131.77 599.236L131.889 599.29L132.007 599.348L132.126 599.409L132.245 599.474L132.364 599.543L132.483 599.615L132.602 599.691L132.721 599.771L132.84 599.855L132.959 599.942L133.078 600.033L133.197 600.128L133.316 600.227L133.435 600.329L133.554 600.435L133.673 600.545L133.792 600.658L133.911 600.775L133.911 600.775L134.03 600.894L134.149 601.013L134.267 601.132L134.386 601.251L134.505 601.37L134.624 601.489L134.743 601.608L134.862 601.727L134.981 601.846L135.1 601.964L135.219 602.083L135.338 602.202L135.457 602.321L135.576 602.44L135.695 602.559L135.814 602.678L135.933 602.797L136.052 602.916L136.171 603.035L136.29 603.154L136.409 603.273L136.527 603.392L136.646 603.511L136.765 603.63L136.884 603.749L137.003 603.868L137.122 603.987L137.241 604.106L137.36 604.224L137.479 604.343L137.598 604.462L137.717 604.581L137.717 604.581L137.838 604.702L137.962 604.827L138.091 604.955L138.222 605.087L138.358 605.222L138.498 605.362L138.641 605.505L138.787 605.652L138.938 605.802L139.092 605.957L139.25 606.115L139.412 606.276L139.577 606.442L139.746 606.611L139.919 606.784L140.096 606.96L140.276 607.141L140.46 607.325L140.648 607.512L140.839 607.704L141.034 607.899L141.233 608.098L141.436 608.3L141.642 608.507L141.852 608.717L142.066 608.93L142.283 609.148L142.505 609.369L142.729 609.594L142.958 609.822L143.19 610.055L143.426 610.291L143.426 610.291L143.664 610.521L143.902 610.737L144.14 610.938L144.378 611.123L144.616 611.294L144.854 611.45L145.092 611.592L145.33 611.718L145.567 611.83L145.805 611.926L146.043 612.008L146.281 612.075L146.519 612.127L146.757 612.164L146.995 612.186L147.233 612.194L147.471 612.186L147.708 612.164L147.946 612.127L148.184 612.075L148.422 612.008L148.66 611.926L148.898 611.83L149.136 611.718L149.374 611.592L149.612 611.45L149.85 611.294L150.087 611.123L150.325 610.938L150.563 610.737L150.801 610.521L151.039 610.291L151.039 610.291L151.275 610.055L151.507 609.822L151.736 609.594L151.961 609.369L152.182 609.148L152.399 608.93L152.613 608.717L152.823 608.507L153.029 608.3L153.232 608.098L153.431 607.899L153.626 607.704L153.818 607.512L154.005 607.325L154.189 607.141L154.369 606.96L154.546 606.784L154.719 606.611L154.888 606.442L155.053 606.276L155.215 606.115L155.373 605.957L155.527 605.802L155.678 605.652L155.825 605.505L155.968 605.362L156.107 605.222L156.243 605.087L156.375 604.955L156.503 604.827L156.628 604.702L156.748 604.581L156.748 604.581L156.867 604.462L156.986 604.343L157.105 604.224L157.224 604.106L157.343 603.987L157.462 603.868L157.581 603.749L157.7 603.63L157.819 603.511L157.938 603.392L158.057 603.273L158.176 603.154L158.295 603.035L158.414 602.916L158.533 602.797L158.652 602.678L158.771 602.559L158.889 602.44L159.008 602.321L159.127 602.202L159.246 602.083L159.365 601.964L159.484 601.846L159.603 601.727L159.722 601.608L159.841 601.489L159.96 601.37L160.079 601.251L160.198 601.132L160.317 601.013L160.436 600.894L160.555 600.775L160.555 600.775L160.674 600.658L160.793 600.545L160.912 600.435L161.031 600.329L161.149 600.227L161.268 600.128L161.387 600.033L161.506 599.942L161.625 599.855L161.744 599.771L161.863 599.691L161.982 599.615L162.101 599.543L162.22 599.474L162.339 599.409L162.458 599.348L162.577 599.29L162.696 599.236L162.815 599.186L162.934 599.139L163.053 599.097L163.172 599.058L163.291 599.022L163.409 598.991L163.528 598.963L163.647 598.939L163.766 598.918L163.885 598.902L164.004 598.889L164.123 598.879L164.242 598.874L164.361 598.872L164.361 598.872L164.481 598.872L164.603 598.872L164.726 598.872L164.852 598.872L164.979 598.872L165.108 598.872L165.239 598.872L165.372 598.872L165.507 598.872L165.643 598.872L165.782 598.872L165.922 598.872L166.064 598.872L166.208 598.872L166.354 598.872L166.502 598.872L166.652 598.872L166.803 598.872L166.956 598.872L167.112 598.872L167.269 598.872L167.428 598.872L167.588 598.872L167.751 598.872L167.916 598.872L168.082 598.872L168.25 598.872L168.42 598.872L168.592 598.872L168.766 598.872L168.941 598.872L169.119 598.872L169.119 598.872L169.297 598.872L169.476 598.872L169.654 598.872L169.833 598.872L170.011 598.872L170.189 598.872L170.368 598.872L170.546 598.872L170.725 598.872L170.903 598.872L171.082 598.872L171.26 598.872L171.438 598.872L171.617 598.872L171.795 598.872L171.974 598.872L172.152 598.872L172.33 598.872L172.509 598.872L172.687 598.872L172.866 598.872L173.044 598.872L173.223 598.872L173.401 598.872L173.579 598.872L173.758 598.872L173.936 598.872L174.115 598.872L174.293 598.872L174.472 598.872L174.65 598.872L174.828 598.872L174.828 598.872L175.001 598.875L175.163 598.883L175.313 598.897L175.453 598.916L175.581 598.942L175.698 598.972L175.804 599.008L175.899 599.05L175.983 599.098L176.055 599.151L176.116 599.209L176.167 599.273L176.206 599.343L176.233 599.418L176.25 599.499L176.256 599.586L176.25 599.678L176.233 599.775L176.206 599.878L176.167 599.987L176.116 600.101L176.055 600.221L175.983 600.347L175.899 600.478L175.804 600.614L175.698 600.756L175.581 600.904L175.453 601.057L175.313 601.216L175.163 601.381L175.001 601.551L174.828 601.727L174.828 601.727L174.647 601.908L174.46 602.095L174.268 602.287L174.07 602.485L173.867 602.688L173.657 602.897L173.443 603.112L173.223 603.332L172.997 603.558L172.765 603.79L172.528 604.027L172.286 604.269L172.038 604.517L171.784 604.771L171.525 605.03L171.26 605.295L170.99 605.565L170.714 605.841L170.432 606.123L170.145 606.41L169.852 606.703L169.554 607.001L169.25 607.305L168.94 607.614L168.625 607.929L168.305 608.25L167.979 608.576L167.647 608.908L167.31 609.245L166.967 609.588L166.618 609.937L166.264 610.291"/>
<path class="l5" d="M446.979 354.317L448.882 354.317L448.882 356.22L446.979 356.22L446.979 354.317z"/>
<path class="l5" d="M849.495 102.15L853.301 102.15L853.301 105.956L849.495 105.956L849.495 102.15z"/>
<path class="l5" d="M925.621 163.051L929.427 163.051L929.427 166.857L925.621 166.857L925.621 163.051z"/>
<path class="l5" d="M788.594 140.213L792.401 140.213L792.401 144.019L788.594 144.019L788.594 140.213z"/>
<path class="l5" d="M788.594 185.888L792.401 185.888L792.401 189.695L788.594 189.695L788.594 185.888z"/>
<path class="l5" d="M879.945 102.15L883.752 102.15L883.752 105.956L879.945 105.956L879.945 102.15z"/>
<path class="l5" d="M879.945 223.951L883.752 223.951L883.752 227.758L879.945 227.758L879.945 223.951z"/>
<path class="l5" d="M849.495 223.951L853.301 223.951L853.301 227.758L849.495 227.758L849.495 223.951z"/>
<path class="l5" d="M506.928 368.591L510.734 368.591L510.734 372.397L506.928 372.397L506.928 368.591z"/>
<path class="l5" d="M506.928 414.266L510.734 414.266L510.734 418.073L506.928 418.073L506.928 414.266z"/>
<path class="l5" d="M506.928 429.491L510.734 429.491L510.734 433.298L506.928 433.298L506.928 429.491z"/>
<path class="l5" d="M507.88 354.317L509.783 354.317L509.783 356.22L507.88 356.22L507.88 354.317z"/>
<path class="l5" d="M1039.81 193.501L1043.62 193.501L1043.62 197.307L1039.81 197.307L1039.81 193.501z"/>
<path class="l5" d="M1039.81 239.177L1043.62 239.177L1043.62 242.983L1039.81 242.983L1039.81 239.177z"/>
<path class="l5" d="M1040.76 164.002L1042.66 164.002L1042.66 165.905L1040.76 165.905L1040.76 164.002z"/>
<path class="l5" d="M583.054 208.726L586.86 208.726L586.86 212.532L583.054 212.532L583.054 208.726z"/>
<path class="l5" d="M583.054 254.402L586.86 254.402L586.86 258.208L583.054 258.208L583.054 254.402z"/>
<path class="l5" d="M629.681 141.164L631.584 141.164L631.584 143.067L629.681 143.067L629.681 141.164z"/>
<path class="l5" d="M879.945 26.0237L883.752 26.0237L883.752 29.83L879.945 29.83L879.945 26.0237z"/>
<path class="l5" d="M879.945 71.6993L883.752 71.6993L883.752 75.5056L879.945 75.5056L879.945 71.6993z"/>
<path class="l5" d="M879.945 292.465L883.752 292.465L883.752 296.271L879.945 296.271L879.945 292.465z"/>
<path class="l5" d="M879.945 338.14L883.752 338.14L883.752 341.947L879.945 341.947L879.945 338.14z"/>
<path class="l5" d="M675.952 141.759L676.665 141.759L676.665 142.473L675.952 142.473L675.952 141.759z"/>
<path class="l5" d="M950.005 164.597L950.719 164.597L950.719 165.31L950.005 165.31L950.005 164.597z"/>
<path class="l5" d="M881.492 286.398L882.205 286.398L882.205 287.112L881.492 287.112L881.492 286.398z"/>
<path class="l5" d="M880.897 240.128L882.8 240.128L882.8 242.031L880.897 242.031L880.897 240.128z"/>
<path class="l6" d="M345.16 621.71L950.362 621.71"/>
<path class="l6" d="M52.0752 621.71L101.557 621.71"/>
<path class="l15" d="M679.163 135.455L683.921 129.745"/>
<path class="l15" d="M676.308 142.116L679.163 135.455"/>
<path class="l15" d="M683.921 121.181L683.921 131.649"/>
<path class="l15" d="M682.018 129.745L698.195 129.745"/>
<path class="l15" d="M685.824 126.891L689.63 126.891"/>
<path class="l15" d="M689.63 124.036L689.63 126.891"/>
<path class="l15" d="M689.63 124.036L692.485 124.036"/>
<path class="l15" d="M692.485 124.036L692.485 126.891"/>
<path class="l15" d="M692.485 126.891L695.34 126.891"/>
<path class="l15" d="M695.34 124.036L695.34 126.891"/>
<path class="l15" d="M695.34 124.036L697.481 124.036"/>
<path class="l15" d="M953.217 158.293L957.975 152.583"/>
<path class="l15" d="M950.362 164.954L953.217 158.293"/>
<path class="l15" d="M957.975 144.019L957.975 154.486"/>
<path class="l15" d="M956.071 152.583L972.248 152.583"/>
<path class="l15" d="M959.878 149.728L963.684 149.728"/>
<path class="l15" d="M963.684 146.874L963.684 149.728"/>
<path class="l15" d="M963.684 146.874L966.539 146.874"/>
<path class="l15" d="M966.539 146.874L966.539 149.728"/>
<path class="l15" d="M966.539 149.728L969.393 149.728"/>
<path class="l15" d="M969.393 146.874L969.393 149.728"/>
<path class="l15" d="M969.393 146.874L971.534 146.874"/>
<path class="l15" d="M884.703 280.094L889.461 274.385"/>
<path class="l15" d="M881.849 286.755L884.703 280.094"/>
<path class="l15" d="M889.461 265.821L889.461 276.288"/>
<path class="l15" d="M887.558 274.385L903.735 274.385"/>
<path class="l15" d="M891.364 271.53L895.171 271.53"/>
<path class="l15" d="M895.171 268.675L895.171 271.53"/>
<path class="l15" d="M895.171 268.675L898.025 268.675"/>
<path class="l15" d="M898.025 268.675L898.025 271.53"/>
<path class="l15" d="M898.025 271.53L900.88 271.53"/>
<path class="l15" d="M900.88 268.675L900.88 271.53"/>
<path class="l15" d="M900.88 268.675L903.021 268.675"/>
<text fill="#222222"  xml:space="preserve" font-size="11.8757" transform="translate(55.8815, 518.304)" >MODEL</text>
<text fill="#222222"  xml:space="preserve" font-size="11.8757" style="font-family:Monospace;" transform="translate(63.4941, 550.957)" >.lib cornerMOSlv.lib mos_tt</text>
<text fill="#222222"  xml:space="preserve" font-size="11.8757" style="font-family:Monospace;" transform="translate(63.4941, 564.578)" >.lib cornerRES.lib res_typ</text>
<text fill="#222222"  xml:space="preserve" font-size="11.8757" transform="translate(55.8815, 61.5478)" >NGSPICE</text>
<text fill="#222222"  xml:space="preserve" font-size="11.8757" style="font-family:Monospace;" transform="translate(63.4941, 94.2006)" >.temp 27</text>
<text fill="#222222"  xml:space="preserve" font-size="11.8757" style="font-family:Monospace;" transform="translate(63.4941, 107.822)" >.control</text>
<text fill="#222222"  xml:space="preserve" font-size="11.8757" style="font-family:Monospace;" transform="translate(63.4941, 121.443)" >option sparse</text>
<text fill="#222222"  xml:space="preserve" font-size="11.8757" style="font-family:Monospace;" transform="translate(63.4941, 135.065)" >save all</text>
<text fill="#222222"  xml:space="preserve" font-size="11.8757" style="font-family:Monospace;" transform="translate(63.4941, 148.686)" >op</text>
<text fill="#222222"  xml:space="preserve" font-size="11.8757" style="font-family:Monospace;" transform="translate(63.4941, 162.308)" >write ota-improved_tb-ac.raw</text>
<text fill="#222222"  xml:space="preserve" font-size="11.8757" style="font-family:Monospace;" transform="translate(63.4941, 175.929)" >set appendwrite</text>
<text fill="#222222"  xml:space="preserve" font-size="11.8757" style="font-family:Monospace;" transform="translate(63.4941, 203.172)" >ac dec 101 1k 1G</text>
<text fill="#222222"  xml:space="preserve" font-size="11.8757" style="font-family:Monospace;" transform="translate(63.4941, 216.793)" >write ota-improved_tb-ac.raw</text>
<text fill="#222222"  xml:space="preserve" font-size="11.8757" style="font-family:Monospace;" transform="translate(63.4941, 230.414)" >plot 20*log10(v_out)</text>
<text fill="#222222"  xml:space="preserve" font-size="11.8757" style="font-family:Monospace;" transform="translate(63.4941, 257.657)" >meas ac dcgain MAX vmag(v_out) FROM=10 TO=10k</text>
<text fill="#222222"  xml:space="preserve" font-size="11.8757" style="font-family:Monospace;" transform="translate(63.4941, 271.279)" >let f3db = dcgain/sqrt(2)</text>
<text fill="#222222"  xml:space="preserve" font-size="11.8757" style="font-family:Monospace;" transform="translate(63.4941, 284.9)" >meas ac fbw WHEN vmag(v_out)=f3db FALL=1</text>
<text fill="#222222"  xml:space="preserve" font-size="11.8757" style="font-family:Monospace;" transform="translate(63.4941, 298.521)" >let gainerror=(dcgain-1)/1</text>
<text fill="#222222"  xml:space="preserve" font-size="11.8757" style="font-family:Monospace;" transform="translate(63.4941, 312.143)" >print dcgain</text>
<text fill="#222222"  xml:space="preserve" font-size="11.8757" style="font-family:Monospace;" transform="translate(63.4941, 325.764)" >print fbw</text>
<text fill="#222222"  xml:space="preserve" font-size="11.8757" style="font-family:Monospace;" transform="translate(63.4941, 339.385)" >print gainerror</text>
<text fill="#222222"  xml:space="preserve" font-size="11.8757" style="font-family:Monospace;" transform="translate(63.4941, 366.628)" >noise v(v_out) Vin dec 101 1k 100MEG 1000</text>
<text fill="#222222"  xml:space="preserve" font-size="11.8757" style="font-family:Monospace;" transform="translate(63.4941, 380.25)" >print onoise_total</text>
<text fill="#222222"  xml:space="preserve" font-size="11.8757" style="font-family:Monospace;" transform="translate(63.4941, 407.492)" >.endc</text>
<text fill="#222222"  xml:space="preserve" font-size="7.9171" transform="translate(463.156, 386.247)" >Vdd</text>
<text fill="#222222"  xml:space="preserve" font-size="7.9171" transform="translate(463.156, 405.278)" >1.5</text>
<text fill="#0099cc"  xml:space="preserve" font-size="7.9171" transform="translate(453.64, 442.39)" >GND</text>
<text fill="#222222"  xml:space="preserve" font-size="15.8342" transform="translate(352.773, 639.893)" >         ota-improved_tb-ac.sch</text>
<text fill="#222222"  xml:space="preserve" font-size="15.8342" transform="translate(352.773, 617.056)" >(c) 2024-2025 Harald Pretl, Apache-2.0 license</text>
<text fill="#222222"  xml:space="preserve" font-size="15.8342" transform="translate(778.362, 617.056)" >2025-10-02  10:00:26</text>
<text fill="#222222"  xml:space="preserve" font-size="39.5855" transform="translate(177.683, 638.622)" >SCHEM</text>
<text fill="#222222"  xml:space="preserve" font-size="15.8342" transform="translate(440.318, 528.123)" >simulate</text>
<text fill="#222222"  xml:space="preserve" font-size="15.8342" transform="translate(623.02, 528.123)" >annotate OP</text>
<text fill="#0099cc"  xml:space="preserve" font-size="13.0632" transform="translate(411.221, 360.945)" >v_dd</text>
<text fill="#222222"  xml:space="preserve" font-size="7.9171" transform="translate(817.141, 167.575)" >ota-improved</text>
<text fill="#222222"  xml:space="preserve" font-size="7.9171" transform="translate(931.33, 102.106)" >xota</text>
<text fill="#222222"  xml:space="preserve" font-size="7.9171" transform="translate(852.551, 123.084) rotate(270)" >vdd</text>
<text fill="#222222"  xml:space="preserve" font-size="7.9171" transform="translate(875.267, 169.097)" >vout</text>
<text fill="#222222"  xml:space="preserve" font-size="7.9171" transform="translate(809.529, 146.26)" >vinp</text>
<text fill="#222222"  xml:space="preserve" font-size="7.9171" transform="translate(809.529, 191.935)" >vinn</text>
<text fill="#222222"  xml:space="preserve" font-size="7.9171" transform="translate(883.001, 139.859) rotate(270)" >ibias_5u</text>
<text fill="#222222"  xml:space="preserve" font-size="7.9171" transform="translate(883.001, 223.21) rotate(270)" >d_ena</text>
<text fill="#222222"  xml:space="preserve" font-size="7.9171" transform="translate(852.551, 222.048) rotate(270)" >vss</text>
<text fill="#222222"  xml:space="preserve" font-size="7.9171" transform="translate(524.056, 386.247)" >Vss</text>
<text fill="#222222"  xml:space="preserve" font-size="7.9171" transform="translate(524.056, 405.278)" >0</text>
<text fill="#0099cc"  xml:space="preserve" font-size="7.9171" transform="translate(514.541, 442.39)" >GND</text>
<text fill="#0099cc"  xml:space="preserve" font-size="13.0632" transform="translate(474.122, 360.945)" >v_ss</text>
<text fill="#666600"  xml:space="preserve" font-size="7.9171" transform="translate(1032.91, 205.448)" >1</text>
<text fill="#666600"  xml:space="preserve" font-size="7.9171" transform="translate(1032.91, 237.801)" >2</text>
<text fill="#222222"  xml:space="preserve" font-size="7.9171" transform="translate(1053.13, 211.157)" >C1</text>
<text fill="#222222"  xml:space="preserve" font-size="7.9171" transform="translate(1053.13, 220.673)" >50f</text>
<text fill="#222222"  xml:space="preserve" font-size="7.9171" transform="translate(1053.13, 230.188)" >m=1</text>
<text fill="#0099cc"  xml:space="preserve" font-size="10.6881" transform="translate(1010.81, 161.448)" >v_out</text>
<text fill="#222222"  xml:space="preserve" font-size="7.9171" transform="translate(600.182, 226.382)" >Vin</text>
<text fill="#222222"  xml:space="preserve" font-size="7.9171" transform="translate(600.182, 245.414)" >dc 0.8 ac 1</text>
<text fill="#0099cc"  xml:space="preserve" font-size="10.6881" transform="translate(607.73, 138.61)" >v_in</text>
<text fill="#222222"  xml:space="preserve" font-size="7.9171" transform="translate(897.074, 50.3408)" >I0</text>
<text fill="#222222"  xml:space="preserve" font-size="7.9171" transform="translate(897.074, 59.4217)" >5u</text>
<text fill="#222222"  xml:space="preserve" font-size="7.9171" transform="translate(897.074, 310.121)" >Venable</text>
<text fill="#222222"  xml:space="preserve" font-size="7.9171" transform="translate(897.074, 329.152)" >1.5</text>
<text fill="#0099cc"  xml:space="preserve" font-size="10.6881" transform="translate(847.945, 237.574)" >v_ena</text>
<text fill="#222222"  xml:space="preserve" font-size="11.8757" transform="translate(55.8815, 449.79)" >SAVE</text>
<text fill="#222222"  xml:space="preserve" font-size="11.8757" style="font-family:Monospace;" transform="translate(63.4941, 468.822)" >.include [file rootname [xschem get schname]].save</text>
<path class="l1" d="M447.93 416.169L447.93 431.395"/>
<path class="l1" d="M508.831 416.169L508.831 431.395"/>
<path class="l1" d="M508.831 355.269L508.831 370.494"/>
<path class="l1" d="M881.849 355.269L1041.71 355.269"/>
<path class="l1" d="M851.398 12.7017L881.849 12.7017"/>
<path class="l1" d="M851.398 225.854L851.398 355.269"/>
<path class="l1" d="M1041.71 241.08L1041.71 355.269"/>
<path class="l1" d="M1041.71 164.954L1041.71 195.404"/>
<path class="l1" d="M980.812 164.954L1041.71 164.954"/>
<path class="l1" d="M980.812 164.954L980.812 256.305"/>
<path class="l1" d="M927.524 164.954L980.812 164.954"/>
<path class="l1" d="M737.209 256.305L980.812 256.305"/>
<path class="l1" d="M737.209 187.791L737.209 256.305"/>
<path class="l1" d="M737.209 187.791L790.497 187.791"/>
<path class="l1" d="M584.957 256.305L584.957 355.269"/>
<path class="l1" d="M508.831 355.269L584.957 355.269"/>
<path class="l1" d="M584.957 142.116L584.957 210.629"/>
<path class="l1" d="M584.957 142.116L790.497 142.116"/>
<path class="l1" d="M881.849 12.7017L881.849 27.9269"/>
<path class="l1" d="M881.849 73.6025L881.849 104.053"/>
<path class="l1" d="M851.398 65.9899L851.398 104.053"/>
<path class="l1" d="M447.93 65.9899L851.398 65.9899"/>
<path class="l1" d="M447.93 65.9899L447.93 370.494"/>
<path class="l1" d="M851.398 12.7017L851.398 65.9899"/>
<path class="l1" d="M881.849 340.043L881.849 355.269"/>
<path class="l1" d="M851.398 355.269L881.849 355.269"/>
<path class="l1" d="M584.957 355.269L851.398 355.269"/>
<path class="l1" d="M881.849 225.854L881.849 294.368"/>
<circle class="l1" cx="851.398" cy="65.9899" r="2.81666"/>
<circle class="l1" cx="584.957" cy="355.269" r="2.81666"/>
<circle class="l1" cx="584.957" cy="355.269" r="2.81666"/>
<circle class="l1" cx="851.398" cy="355.269" r="2.81666"/>
<circle class="l1" cx="584.957" cy="355.269" r="2.81666"/>
<circle class="l1" cx="851.398" cy="65.9899" r="2.81666"/>
<circle class="l1" cx="851.398" cy="65.9899" r="2.81666"/>
<circle class="l1" cx="980.812" cy="164.954" r="2.81666"/>
<circle class="l1" cx="851.398" cy="355.269" r="2.81666"/>
<circle class="l1" cx="851.398" cy="355.269" r="2.81666"/>
<circle class="l1" cx="881.849" cy="355.269" r="2.81666"/>
<circle class="l1" cx="881.849" cy="355.269" r="2.81666"/>
<circle class="l1" cx="881.849" cy="355.269" r="2.81666"/>
<circle class="l1" cx="980.812" cy="164.954" r="2.81666"/>
<circle class="l1" cx="980.812" cy="164.954" r="2.81666"/>
</svg>
