<svg xmlns="http://www.w3.org/2000/svg" xmlns:xlink="http://www.w3.org/1999/xlink" width="900" height="509" version="1.1">
<style type="text/css">
.l0{
  fill: #ffffff;
  stroke: #ffffff;
  stroke-linecap:round;
  stroke-linejoin:round;
  stroke-width: 0.635023;
}
.l1{
  fill: #0044ee;
  stroke: #0044ee;
  stroke-linecap:round;
  stroke-linejoin:round;
  stroke-width: 0.635023;
}
.l2{
  fill: #aaaaaa; fill-opacity: 0.2;
  stroke: #aaaaaa;
  stroke-linecap:round;
  stroke-linejoin:round;
  stroke-width: 0.635023;
}
.l3{
  fill: #222222; fill-opacity: 0.5;
  stroke: #222222;
  stroke-linecap:round;
  stroke-linejoin:round;
  stroke-width: 0.635023;
}
.l4{
  fill: #229900;
  stroke: #229900;
  stroke-linecap:round;
  stroke-linejoin:round;
  stroke-width: 0.635023;
}
.l5{
  fill: #bb2200;
  stroke: #bb2200;
  stroke-linecap:round;
  stroke-linejoin:round;
  stroke-width: 0.635023;
}
.l6{
  fill: #00ccee; fill-opacity: 0.5;
  stroke: #00ccee;
  stroke-linecap:round;
  stroke-linejoin:round;
  stroke-width: 0.635023;
}
.l7{
  fill: #ff0000; fill-opacity: 0.5;
  stroke: #ff0000;
  stroke-linecap:round;
  stroke-linejoin:round;
  stroke-width: 0.635023;
}
.l8{
  fill: #888800; fill-opacity: 0.5;
  stroke: #888800;
  stroke-linecap:round;
  stroke-linejoin:round;
  stroke-width: 0.635023;
}
.l9{
  fill: #00aaaa; fill-opacity: 0.5;
  stroke: #00aaaa;
  stroke-linecap:round;
  stroke-linejoin:round;
  stroke-width: 0.635023;
}
.l10{
  fill: #880088;
  stroke: #880088;
  stroke-linecap:round;
  stroke-linejoin:round;
  stroke-width: 0.635023;
}
.l11{
  fill: #00ff00; fill-opacity: 0.5;
  stroke: #00ff00;
  stroke-linecap:round;
  stroke-linejoin:round;
  stroke-width: 0.635023;
}
.l12{
  fill: #0000cc; fill-opacity: 0.5;
  stroke: #0000cc;
  stroke-linecap:round;
  stroke-linejoin:round;
  stroke-width: 0.635023;
}
.l13{
  fill: #666600; fill-opacity: 0.5;
  stroke: #666600;
  stroke-linecap:round;
  stroke-linejoin:round;
  stroke-width: 0.635023;
}
.l14{
  fill: #557755; fill-opacity: 0.2;
  stroke: #557755;
  stroke-linecap:round;
  stroke-linejoin:round;
  stroke-width: 0.635023;
}
.l15{
  fill: #aa2222; fill-opacity: 0.5;
  stroke: #aa2222;
  stroke-linecap:round;
  stroke-linejoin:round;
  stroke-width: 0.635023;
}
.l16{
  fill: #7ccc40; fill-opacity: 0.5;
  stroke: #7ccc40;
  stroke-linecap:round;
  stroke-linejoin:round;
  stroke-width: 0.635023;
}
.l17{
  fill: #00ffcc; fill-opacity: 0.2;
  stroke: #00ffcc;
  stroke-linecap:round;
  stroke-linejoin:round;
  stroke-width: 0.635023;
}
.l18{
  fill: #ce0097; fill-opacity: 0.5;
  stroke: #ce0097;
  stroke-linecap:round;
  stroke-linejoin:round;
  stroke-width: 0.635023;
}
.l19{
  fill: #d2d46b; fill-opacity: 0.2;
  stroke: #d2d46b;
  stroke-linecap:round;
  stroke-linejoin:round;
  stroke-width: 0.635023;
}
.l20{
  fill: #ef6158; fill-opacity: 0.2;
  stroke: #ef6158;
  stroke-linecap:round;
  stroke-linejoin:round;
  stroke-width: 0.635023;
}
.l21{
  fill: #fdb200; fill-opacity: 0.2;
  stroke: #fdb200;
  stroke-linecap:round;
  stroke-linejoin:round;
  stroke-width: 0.635023;
}
text {font-family: Sans-Serif;}
</style>
<rect class="l0" x="0" y="0" width="900" height="509"/>
<text fill="#0044ee"  xml:space="preserve" font-size="6.11503" transform="translate(365.918, 341.694)" >GND</text>
<text fill="#0044ee"  xml:space="preserve" font-size="10.0898" transform="translate(334.099, 278.787)" >v_dd</text>
<text fill="#0044ee"  xml:space="preserve" font-size="6.11503" transform="translate(412.957, 341.694)" >GND</text>
<text fill="#0044ee"  xml:space="preserve" font-size="10.0898" transform="translate(383.137, 278.787)" >v_ss</text>
<text fill="#0044ee"  xml:space="preserve" font-size="8.25529" transform="translate(795.666, 124.699)" >v_out</text>
<text fill="#0044ee"  xml:space="preserve" font-size="8.25529" transform="translate(485.155, 107.06)" >v_in</text>
<text fill="#0044ee"  xml:space="preserve" font-size="8.25529" transform="translate(671.189, 183.498)" >v_ena</text>
<text fill="#222222"  xml:space="preserve" font-size="9.17255" transform="translate(58.6968, 429.728)" >MODEL</text>
<text fill="#222222"  xml:space="preserve" font-size="9.17255" style="font-family:Monospace;" transform="translate(64.5766, 444.427)" >.lib cornerMOSlv.lib mos_tt</text>
<text fill="#222222"  xml:space="preserve" font-size="9.17255" transform="translate(58.6968, 47.5384)" >NGSPICE</text>
<text fill="#222222"  xml:space="preserve" font-size="9.17255" style="font-family:Monospace;" transform="translate(64.5766, 72.7589)" >.param temp=27</text>
<text fill="#222222"  xml:space="preserve" font-size="9.17255" style="font-family:Monospace;" transform="translate(64.5766, 83.2798)" >.control</text>
<text fill="#222222"  xml:space="preserve" font-size="9.17255" style="font-family:Monospace;" transform="translate(64.5766, 93.8007)" >option sparse</text>
<text fill="#222222"  xml:space="preserve" font-size="9.17255" style="font-family:Monospace;" transform="translate(64.5766, 104.322)" >save all</text>
<text fill="#222222"  xml:space="preserve" font-size="9.17255" style="font-family:Monospace;" transform="translate(64.5766, 114.843)" >op</text>
<text fill="#222222"  xml:space="preserve" font-size="9.17255" style="font-family:Monospace;" transform="translate(64.5766, 125.363)" >write ota-5t_tb.raw</text>
<text fill="#222222"  xml:space="preserve" font-size="9.17255" style="font-family:Monospace;" transform="translate(64.5766, 135.884)" >set appendwrite</text>
<text fill="#222222"  xml:space="preserve" font-size="9.17255" style="font-family:Monospace;" transform="translate(64.5766, 156.926)" >ac dec 101 1k 100MEG</text>
<text fill="#222222"  xml:space="preserve" font-size="9.17255" style="font-family:Monospace;" transform="translate(64.5766, 167.447)" >write ota-5t_tb.raw</text>
<text fill="#222222"  xml:space="preserve" font-size="9.17255" style="font-family:Monospace;" transform="translate(64.5766, 177.968)" >plot 20*log10(v_out)</text>
<text fill="#222222"  xml:space="preserve" font-size="9.17255" style="font-family:Monospace;" transform="translate(64.5766, 199.01)" >meas ac dcgain MAX vmag(v_out) FROM=10 TO=10k</text>
<text fill="#222222"  xml:space="preserve" font-size="9.17255" style="font-family:Monospace;" transform="translate(64.5766, 209.531)" >let f3db = dcgain/sqrt(2)</text>
<text fill="#222222"  xml:space="preserve" font-size="9.17255" style="font-family:Monospace;" transform="translate(64.5766, 220.052)" >meas ac fbw WHEN vmag(v_out)=f3db FALL=1</text>
<text fill="#222222"  xml:space="preserve" font-size="9.17255" style="font-family:Monospace;" transform="translate(64.5766, 230.573)" >let gainerror=(dcgain-1)/1</text>
<text fill="#222222"  xml:space="preserve" font-size="9.17255" style="font-family:Monospace;" transform="translate(64.5766, 241.093)" >print dcgain</text>
<text fill="#222222"  xml:space="preserve" font-size="9.17255" style="font-family:Monospace;" transform="translate(64.5766, 251.614)" >print fbw</text>
<text fill="#222222"  xml:space="preserve" font-size="9.17255" style="font-family:Monospace;" transform="translate(64.5766, 262.135)" >print gainerror</text>
<text fill="#222222"  xml:space="preserve" font-size="9.17255" style="font-family:Monospace;" transform="translate(64.5766, 283.177)" >noise v(v_out) Vin dec 101 1k 100MEG</text>
<text fill="#222222"  xml:space="preserve" font-size="9.17255" style="font-family:Monospace;" transform="translate(64.5766, 293.698)" >print onoise_total</text>
<text fill="#222222"  xml:space="preserve" font-size="9.17255" style="font-family:Monospace;" transform="translate(64.5766, 314.74)" >.endc</text>
<text fill="#222222"  xml:space="preserve" font-size="6.11503" transform="translate(373.268, 298.33)" >Vdd</text>
<text fill="#222222"  xml:space="preserve" font-size="6.11503" transform="translate(373.268, 313.03)" >1.5</text>
<text fill="#222222"  xml:space="preserve" font-size="12.2301" transform="translate(288.01, 494.242)" >         ota-5t_tb-ac.sch</text>
<text fill="#222222"  xml:space="preserve" font-size="12.2301" transform="translate(288.01, 476.603)" >Copyright 2024 Harald Pretl</text>
<text fill="#222222"  xml:space="preserve" font-size="12.2301" transform="translate(613.578, 476.603)" >2024-08-26  07:52:29</text>
<text fill="#222222"  xml:space="preserve" font-size="30.5752" transform="translate(152.774, 493.26)" >SCHEM</text>
<text fill="#222222"  xml:space="preserve" font-size="12.2301" transform="translate(355.629, 407.865)" >simulate</text>
<text fill="#222222"  xml:space="preserve" font-size="12.2301" transform="translate(496.745, 407.865)" >annotate OP</text>
<text fill="#222222"  xml:space="preserve" font-size="6.11503" transform="translate(646.681, 129.432)" >ota-5t</text>
<text fill="#222222"  xml:space="preserve" font-size="6.11503" transform="translate(734.878, 78.8652)" >xota</text>
<text fill="#222222"  xml:space="preserve" font-size="6.11503" transform="translate(674.03, 95.0682) rotate(270)" >vdd</text>
<text fill="#222222"  xml:space="preserve" font-size="6.11503" transform="translate(690.479, 130.608)" >vout</text>
<text fill="#222222"  xml:space="preserve" font-size="6.11503" transform="translate(640.801, 112.968)" >vinp</text>
<text fill="#222222"  xml:space="preserve" font-size="6.11503" transform="translate(640.801, 148.247)" >vinn</text>
<text fill="#222222"  xml:space="preserve" font-size="6.11503" transform="translate(697.55, 113.309) rotate(270)" >ibias_20u</text>
<text fill="#222222"  xml:space="preserve" font-size="6.11503" transform="translate(697.55, 172.867) rotate(270)" >d_ena</text>
<text fill="#222222"  xml:space="preserve" font-size="6.11503" transform="translate(674.03, 171.506) rotate(270)" >vss</text>
<text fill="#222222"  xml:space="preserve" font-size="6.11503" transform="translate(420.307, 298.33)" >Vss</text>
<text fill="#222222"  xml:space="preserve" font-size="6.11503" transform="translate(420.307, 313.03)" >0</text>
<text fill="#666600"  xml:space="preserve" font-size="6.11503" transform="translate(813.196, 158.684)" >1</text>
<text fill="#666600"  xml:space="preserve" font-size="6.11503" transform="translate(813.196, 183.673)" >2</text>
<text fill="#222222"  xml:space="preserve" font-size="6.11503" transform="translate(828.956, 163.094)" >C1</text>
<text fill="#222222"  xml:space="preserve" font-size="6.11503" transform="translate(828.956, 170.444)" >50f</text>
<text fill="#222222"  xml:space="preserve" font-size="6.11503" transform="translate(828.956, 177.794)" >m=1</text>
<text fill="#222222"  xml:space="preserve" font-size="6.11503" transform="translate(479.105, 174.854)" >Vin</text>
<text fill="#222222"  xml:space="preserve" font-size="6.11503" transform="translate(479.105, 189.553)" >dc 0.8 ac 1</text>
<text fill="#222222"  xml:space="preserve" font-size="6.11503" transform="translate(708.419, 38.8823)" >I0</text>
<text fill="#222222"  xml:space="preserve" font-size="6.11503" transform="translate(708.419, 45.8963)" >20u</text>
<text fill="#222222"  xml:space="preserve" font-size="6.11503" transform="translate(708.419, 239.532)" >Venable</text>
<text fill="#222222"  xml:space="preserve" font-size="6.11503" transform="translate(708.419, 254.231)" >1.5</text>
<path class="l4" d="M55.7569 433.159L96.9157 433.159"/>
<path class="l4" d="M55.7569 433.159L55.7569 444.919"/>
<path class="l4" d="M55.7569 50.9694L96.9157 50.9694"/>
<path class="l4" d="M55.7569 50.9694L55.7569 62.7291"/>
<path class="l4" d="M362.978 290.573L365.918 290.573"/>
<path class="l4" d="M364.448 289.103L364.448 292.043"/>
<path class="l4" d="M361.508 286.163L361.508 321.442"/>
<circle class="l4" cx="361.508" cy="303.802" r="8.81976" style="fill:none;" />
<path class="l4" d="M361.508 333.202L361.508 340.551"/>
<path class="l4" d="M358.569 340.551L364.448 340.551"/>
<path class="l4" d="M361.508 343.491L364.448 340.551"/>
<path class="l4" d="M358.569 340.551L361.508 343.491"/>
<path class="l4" d="M349.749 403.76L332.109 396.41L332.109 400.82L314.47 400.82L320.35 403.76L314.47 406.7L332.109 406.7L332.109 411.109L349.749 403.76"/>
<path class="l4" d="M490.865 403.76L473.225 396.41L473.225 400.82L455.586 400.82L461.466 403.76L455.586 406.7L473.225 406.7L473.225 411.109L490.865 403.76"/>
<path class="l4" d="M720.179 127.407L731.938 127.407"/>
<path class="l4" d="M626.101 109.768L637.861 109.768"/>
<path class="l4" d="M626.101 145.047L637.861 145.047"/>
<path class="l4" d="M637.861 92.1283L637.861 162.686"/>
<path class="l4" d="M637.861 162.686L720.179 127.407"/>
<path class="l4" d="M637.861 92.1283L720.179 127.407"/>
<path class="l4" d="M626.101 80.3686L731.938 80.3686"/>
<path class="l4" d="M731.938 80.3686L731.938 174.446"/>
<path class="l4" d="M626.101 174.446L731.938 174.446"/>
<path class="l4" d="M626.101 80.3686L626.101 174.446"/>
<path class="l4" d="M410.017 290.573L412.957 290.573"/>
<path class="l4" d="M411.487 289.103L411.487 292.043"/>
<path class="l4" d="M408.547 286.163L408.547 321.442"/>
<circle class="l4" cx="408.547" cy="303.802" r="8.81976" style="fill:none;" />
<path class="l4" d="M408.547 333.202L408.547 340.551"/>
<path class="l4" d="M405.607 340.551L411.487 340.551"/>
<path class="l4" d="M408.547 343.491L411.487 340.551"/>
<path class="l4" d="M405.607 340.551L408.547 343.491"/>
<path class="l4" d="M820.136 171.506L820.136 186.206"/>
<path class="l4" d="M820.136 150.927L820.136 165.626"/>
<path class="l4" d="M814.256 165.626L826.016 165.626"/>
<path class="l4" d="M814.256 171.506L826.016 171.506"/>
<path class="l4" d="M821.606 155.337L824.546 155.337"/>
<path class="l4" d="M823.076 153.867L823.076 156.806"/>
<path class="l4" d="M468.815 167.096L471.755 167.096"/>
<path class="l4" d="M470.285 165.626L470.285 168.566"/>
<path class="l4" d="M467.346 162.686L467.346 197.965"/>
<circle class="l4" cx="467.346" cy="180.326" r="8.81976" style="fill:none;" />
<path class="l4" d="M696.659 21.5702L696.659 30.39"/>
<path class="l4" d="M696.659 48.0295L696.659 56.8492"/>
<path class="l4" d="M698.129 25.9801L701.069 25.9801"/>
<path class="l4" d="M699.599 24.5101L699.599 27.4501"/>
<path class="l4" d="M696.659 34.7999L696.659 40.6797L698.129 40.6797L696.659 45.0896L695.189 40.6797L696.659 40.6797L696.659 34.7999"/>
<circle class="l4" cx="696.659" cy="39.2097" r="8.81976" style="fill:none;" />
<path class="l4" d="M698.129 231.774L701.069 231.774"/>
<path class="l4" d="M699.599 230.304L699.599 233.244"/>
<path class="l4" d="M696.659 227.365L696.659 262.644"/>
<circle class="l4" cx="696.659" cy="245.004" r="8.81976" style="fill:none;" />
<path class="l5" d="M360.038 284.693L362.978 284.693L362.978 287.633L360.038 287.633L360.038 284.693z"/>
<path class="l5" d="M360.038 319.972L362.978 319.972L362.978 322.912L360.038 322.912L360.038 319.972z"/>
<path class="l5" d="M360.038 331.732L362.978 331.732L362.978 334.672L360.038 334.672L360.038 331.732z"/>
<path class="l5" d="M143.954 471.378L143.771 471.562L143.587 471.745L143.403 471.929L143.219 472.113L143.036 472.297L142.852 472.48L142.668 472.664L142.484 472.848L142.301 473.032L142.117 473.215L141.933 473.399L141.749 473.583L141.566 473.767L141.382 473.95L141.198 474.134L141.015 474.318L140.831 474.501L140.647 474.685L140.463 474.869L140.28 475.053L140.096 475.236L139.912 475.42L139.728 475.604L139.545 475.788L139.361 475.971L139.177 476.155L138.993 476.339L138.81 476.523L138.626 476.706L138.442 476.89L138.258 477.074L138.075 477.258L138.075 477.258L137.897 477.441L137.73 477.625L137.575 477.809L137.431 477.993L137.299 478.176L137.179 478.36L137.07 478.544L136.972 478.728L136.886 478.911L136.811 479.095L136.748 479.279L136.697 479.463L136.656 479.646L136.628 479.83L136.61 480.014L136.605 480.198L136.61 480.381L136.628 480.565L136.656 480.749L136.697 480.933L136.748 481.116L136.811 481.3L136.886 481.484L136.972 481.668L137.07 481.851L137.179 482.035L137.299 482.219L137.431 482.403L137.575 482.586L137.73 482.77L137.897 482.954L138.075 483.138L138.075 483.138L138.259 483.322L138.445 483.508L138.632 483.695L138.821 483.884L139.011 484.074L139.203 484.266L139.396 484.459L139.59 484.653L139.786 484.849L139.984 485.047L140.183 485.246L140.383 485.446L140.585 485.647L140.788 485.851L140.992 486.055L141.198 486.261L141.406 486.469L141.615 486.677L141.825 486.888L142.037 487.1L142.25 487.313L142.464 487.527L142.68 487.743L142.898 487.961L143.117 488.18L143.337 488.4L143.559 488.622L143.782 488.845L144.007 489.07L144.233 489.296L144.46 489.523L144.689 489.752L144.689 489.752L144.918 489.981L145.143 490.206L145.366 490.428L145.585 490.648L145.802 490.865L146.016 491.079L146.227 491.29L146.435 491.498L146.64 491.703L146.843 491.906L147.042 492.105L147.239 492.302L147.433 492.496L147.624 492.686L147.812 492.875L147.997 493.06L148.179 493.242L148.359 493.421L148.535 493.598L148.709 493.772L148.88 493.943L149.048 494.111L149.213 494.276L149.375 494.438L149.534 494.597L149.691 494.754L149.844 494.907L149.995 495.058L150.143 495.206L150.288 495.351L150.43 495.493L150.569 495.632L150.569 495.632L150.703 495.768L150.828 495.899L150.944 496.026L151.052 496.149L151.151 496.267L151.241 496.381L151.323 496.491L151.396 496.597L151.461 496.698L151.517 496.795L151.564 496.888L151.603 496.976L151.633 497.06L151.654 497.139L151.667 497.215L151.672 497.286L151.667 497.353L151.654 497.415L151.633 497.473L151.603 497.527L151.564 497.577L151.517 497.622L151.461 497.663L151.396 497.699L151.323 497.732L151.241 497.76L151.151 497.783L151.052 497.803L150.944 497.818L150.828 497.828L150.703 497.835L150.569 497.837L150.569 497.837L150.431 497.837L150.294 497.837L150.156 497.837L150.018 497.837L149.88 497.837L149.742 497.837L149.605 497.837L149.467 497.837L149.329 497.837L149.191 497.837L149.053 497.837L148.916 497.837L148.778 497.837L148.64 497.837L148.502 497.837L148.364 497.837L148.226 497.837L148.089 497.837L147.951 497.837L147.813 497.837L147.675 497.837L147.537 497.837L147.4 497.837L147.262 497.837L147.124 497.837L146.986 497.837L146.848 497.837L146.711 497.837L146.573 497.837L146.435 497.837L146.297 497.837L146.159 497.837L146.159 497.837L146.022 497.837L145.887 497.837L145.752 497.837L145.62 497.837L145.488 497.837L145.358 497.837L145.23 497.837L145.103 497.837L144.977 497.837L144.853 497.837L144.73 497.837L144.609 497.837L144.489 497.837L144.371 497.837L144.254 497.837L144.138 497.837L144.024 497.837L143.911 497.837L143.8 497.837L143.69 497.837L143.582 497.837L143.475 497.837L143.369 497.837L143.265 497.837L143.163 497.837L143.062 497.837L142.962 497.837L142.863 497.837L142.767 497.837L142.671 497.837L142.577 497.837L142.484 497.837L142.484 497.837L142.393 497.836L142.301 497.831L142.209 497.824L142.117 497.814L142.025 497.801L141.933 497.785L141.841 497.767L141.749 497.745L141.658 497.721L141.566 497.694L141.474 497.663L141.382 497.63L141.29 497.594L141.198 497.556L141.106 497.514L141.015 497.47L140.923 497.422L140.831 497.372L140.739 497.319L140.647 497.263L140.555 497.204L140.463 497.142L140.371 497.078L140.28 497.01L140.188 496.94L140.096 496.867L140.004 496.791L139.912 496.712L139.82 496.63L139.728 496.545L139.636 496.458L139.545 496.367L139.545 496.367L139.453 496.275L139.361 496.183L139.269 496.092L139.177 496L139.085 495.908L138.993 495.816L138.901 495.724L138.81 495.632L138.718 495.54L138.626 495.448L138.534 495.357L138.442 495.265L138.35 495.173L138.258 495.081L138.166 494.989L138.075 494.897L137.983 494.805L137.891 494.713L137.799 494.622L137.707 494.53L137.615 494.438L137.523 494.346L137.431 494.254L137.34 494.162L137.248 494.07L137.156 493.978L137.064 493.887L136.972 493.795L136.88 493.703L136.788 493.611L136.697 493.519L136.605 493.427L136.605 493.427L136.511 493.334L136.415 493.238L136.316 493.139L136.214 493.037L136.109 492.932L136.002 492.824L135.891 492.714L135.778 492.6L135.662 492.484L135.542 492.365L135.42 492.243L135.295 492.118L135.168 491.99L135.037 491.86L134.904 491.726L134.767 491.59L134.628 491.451L134.486 491.308L134.341 491.163L134.193 491.016L134.042 490.865L133.889 490.711L133.732 490.555L133.573 490.395L133.411 490.233L133.246 490.068L133.078 489.9L132.907 489.729L132.733 489.556L132.557 489.379L132.377 489.2L132.195 489.017L132.195 489.017L132.011 488.839L131.827 488.673L131.644 488.518L131.46 488.374L131.276 488.242L131.092 488.122L130.909 488.012L130.725 487.915L130.541 487.829L130.357 487.754L130.174 487.691L129.99 487.639L129.806 487.599L129.622 487.57L129.439 487.553L129.255 487.547L129.071 487.553L128.887 487.57L128.704 487.599L128.52 487.639L128.336 487.691L128.152 487.754L127.969 487.829L127.785 487.915L127.601 488.012L127.417 488.122L127.234 488.242L127.05 488.374L126.866 488.518L126.682 488.673L126.499 488.839L126.315 489.017L126.315 489.017L126.133 489.2L125.953 489.379L125.777 489.556L125.603 489.729L125.432 489.9L125.264 490.068L125.099 490.233L124.937 490.395L124.777 490.555L124.621 490.711L124.467 490.865L124.317 491.016L124.169 491.163L124.024 491.308L123.882 491.451L123.742 491.59L123.606 491.726L123.473 491.86L123.342 491.99L123.214 492.118L123.089 492.243L122.967 492.365L122.848 492.484L122.732 492.6L122.618 492.714L122.508 492.824L122.4 492.932L122.295 493.037L122.194 493.139L122.095 493.238L121.998 493.334L121.905 493.427L121.905 493.427L121.813 493.519L121.721 493.611L121.629 493.703L121.538 493.795L121.446 493.887L121.354 493.978L121.262 494.07L121.17 494.162L121.078 494.254L120.986 494.346L120.894 494.438L120.803 494.53L120.711 494.622L120.619 494.713L120.527 494.805L120.435 494.897L120.343 494.989L120.251 495.081L120.159 495.173L120.068 495.265L119.976 495.357L119.884 495.448L119.792 495.54L119.7 495.632L119.608 495.724L119.516 495.816L119.424 495.908L119.333 496L119.241 496.092L119.149 496.183L119.057 496.275L118.965 496.367L118.965 496.367L118.873 496.458L118.781 496.545L118.69 496.63L118.598 496.712L118.506 496.791L118.414 496.867L118.322 496.94L118.23 497.01L118.138 497.078L118.046 497.142L117.955 497.204L117.863 497.263L117.771 497.319L117.679 497.372L117.587 497.422L117.495 497.47L117.403 497.514L117.311 497.556L117.22 497.594L117.128 497.63L117.036 497.663L116.944 497.694L116.852 497.721L116.76 497.745L116.668 497.767L116.576 497.785L116.485 497.801L116.393 497.814L116.301 497.824L116.209 497.831L116.117 497.836L116.025 497.837L116.025 497.837L115.933 497.837L115.839 497.837L115.743 497.837L115.646 497.837L115.548 497.837L115.448 497.837L115.347 497.837L115.244 497.837L115.14 497.837L115.035 497.837L114.928 497.837L114.819 497.837L114.71 497.837L114.598 497.837L114.486 497.837L114.371 497.837L114.256 497.837L114.139 497.837L114.021 497.837L113.901 497.837L113.779 497.837L113.657 497.837L113.532 497.837L113.407 497.837L113.28 497.837L113.151 497.837L113.021 497.837L112.89 497.837L112.757 497.837L112.623 497.837L112.487 497.837L112.35 497.837L112.35 497.837L112.212 497.837L112.075 497.837L111.937 497.837L111.799 497.837L111.661 497.837L111.523 497.837L111.386 497.837L111.248 497.837L111.11 497.837L110.972 497.837L110.834 497.837L110.697 497.837L110.559 497.837L110.421 497.837L110.283 497.837L110.145 497.837L110.008 497.837L109.87 497.837L109.732 497.837L109.594 497.837L109.456 497.837L109.319 497.837L109.181 497.837L109.043 497.837L108.905 497.837L108.767 497.837L108.629 497.837L108.492 497.837L108.354 497.837L108.216 497.837L108.078 497.837L107.94 497.837L107.94 497.837L107.807 497.835L107.682 497.828L107.566 497.818L107.458 497.803L107.359 497.783L107.269 497.76L107.187 497.732L107.114 497.699L107.049 497.663L106.993 497.622L106.946 497.577L106.907 497.527L106.877 497.473L106.855 497.415L106.842 497.353L106.838 497.286L106.842 497.215L106.855 497.139L106.877 497.06L106.907 496.976L106.946 496.888L106.993 496.795L107.049 496.698L107.114 496.597L107.187 496.491L107.269 496.381L107.359 496.267L107.458 496.149L107.566 496.026L107.682 495.899L107.807 495.768L107.94 495.632L107.94 495.632L108.08 495.493L108.222 495.351L108.367 495.206L108.515 495.058L108.665 494.907L108.819 494.754L108.975 494.597L109.135 494.438L109.297 494.276L109.462 494.111L109.63 493.943L109.801 493.772L109.975 493.598L110.151 493.421L110.331 493.242L110.513 493.06L110.698 492.875L110.886 492.686L111.077 492.496L111.271 492.302L111.467 492.105L111.667 491.906L111.869 491.703L112.075 491.498L112.283 491.29L112.494 491.079L112.708 490.865L112.925 490.648L113.144 490.428L113.367 490.206L113.592 489.981L113.82 489.752L113.82 489.752L114.049 489.523L114.277 489.296L114.503 489.07L114.728 488.845L114.951 488.622L115.173 488.4L115.393 488.18L115.612 487.961L115.829 487.743L116.045 487.527L116.26 487.313L116.473 487.1L116.685 486.888L116.895 486.677L117.104 486.469L117.311 486.261L117.517 486.055L117.722 485.851L117.925 485.647L118.127 485.446L118.327 485.246L118.526 485.047L118.723 484.849L118.919 484.653L119.114 484.459L119.307 484.266L119.498 484.074L119.689 483.884L119.877 483.695L120.065 483.508L120.251 483.322L120.435 483.138L120.435 483.138L120.613 482.954L120.78 482.77L120.935 482.586L121.078 482.403L121.21 482.219L121.331 482.035L121.44 481.851L121.538 481.668L121.624 481.484L121.698 481.3L121.761 481.116L121.813 480.933L121.853 480.749L121.882 480.565L121.899 480.381L121.905 480.198L121.899 480.014L121.882 479.83L121.853 479.646L121.813 479.463L121.761 479.279L121.698 479.095L121.624 478.911L121.538 478.728L121.44 478.544L121.331 478.36L121.21 478.176L121.078 477.993L120.935 477.809L120.78 477.625L120.613 477.441L120.435 477.258L120.435 477.258L120.251 477.073L120.065 476.887L119.877 476.7L119.689 476.511L119.498 476.321L119.307 476.129L119.114 475.936L118.919 475.742L118.723 475.546L118.526 475.348L118.327 475.15L118.127 474.949L117.925 474.748L117.722 474.545L117.517 474.34L117.311 474.134L117.104 473.927L116.895 473.718L116.685 473.507L116.473 473.296L116.26 473.082L116.045 472.868L115.829 472.652L115.612 472.434L115.393 472.215L115.173 471.995L114.951 471.773L114.728 471.55L114.503 471.325L114.277 471.099L114.049 470.872L113.82 470.643L113.82 470.643L113.592 470.415L113.367 470.189L113.144 469.967L112.925 469.747L112.708 469.53L112.494 469.316L112.283 469.105L112.075 468.897L111.869 468.692L111.667 468.49L111.467 468.29L111.271 468.093L111.077 467.9L110.886 467.709L110.698 467.521L110.513 467.335L110.331 467.153L110.151 466.974L109.975 466.797L109.801 466.623L109.63 466.453L109.462 466.285L109.297 466.12L109.135 465.957L108.975 465.798L108.819 465.642L108.665 465.488L108.515 465.337L108.367 465.189L108.222 465.044L108.08 464.902L107.94 464.763L107.94 464.763L107.807 464.627L107.682 464.496L107.566 464.369L107.458 464.246L107.359 464.128L107.269 464.014L107.187 463.904L107.114 463.798L107.049 463.697L106.993 463.6L106.946 463.508L106.907 463.419L106.877 463.335L106.855 463.256L106.842 463.18L106.838 463.109L106.842 463.043L106.855 462.98L106.877 462.922L106.907 462.868L106.946 462.819L106.993 462.773L107.049 462.732L107.114 462.696L107.187 462.664L107.269 462.636L107.359 462.612L107.458 462.593L107.566 462.577L107.682 462.567L107.807 462.56L107.94 462.558L107.94 462.558L108.078 462.558L108.216 462.558L108.354 462.558L108.492 462.558L108.629 462.558L108.767 462.558L108.905 462.558L109.043 462.558L109.181 462.558L109.319 462.558L109.456 462.558L109.594 462.558L109.732 462.558L109.87 462.558L110.008 462.558L110.145 462.558L110.283 462.558L110.421 462.558L110.559 462.558L110.697 462.558L110.834 462.558L110.972 462.558L111.11 462.558L111.248 462.558L111.386 462.558L111.523 462.558L111.661 462.558L111.799 462.558L111.937 462.558L112.075 462.558L112.212 462.558L112.35 462.558L112.35 462.558L112.487 462.558L112.623 462.558L112.757 462.558L112.89 462.558L113.021 462.558L113.151 462.558L113.28 462.558L113.407 462.558L113.532 462.558L113.657 462.558L113.779 462.558L113.901 462.558L114.021 462.558L114.139 462.558L114.256 462.558L114.371 462.558L114.486 462.558L114.598 462.558L114.71 462.558L114.819 462.558L114.928 462.558L115.035 462.558L115.14 462.558L115.244 462.558L115.347 462.558L115.448 462.558L115.548 462.558L115.646 462.558L115.743 462.558L115.839 462.558L115.933 462.558L116.025 462.558L116.025 462.558L116.117 462.56L116.209 462.564L116.301 462.571L116.393 462.581L116.485 462.594L116.576 462.61L116.668 462.628L116.76 462.65L116.852 462.674L116.944 462.702L117.036 462.732L117.128 462.765L117.22 462.801L117.311 462.839L117.403 462.881L117.495 462.926L117.587 462.973L117.679 463.023L117.771 463.076L117.863 463.132L117.955 463.191L118.046 463.253L118.138 463.317L118.23 463.385L118.322 463.455L118.414 463.528L118.506 463.605L118.598 463.684L118.69 463.765L118.781 463.85L118.873 463.938L118.965 464.028L118.965 464.028L119.057 464.12L119.149 464.212L119.241 464.304L119.333 464.396L119.424 464.487L119.516 464.579L119.608 464.671L119.7 464.763L119.792 464.855L119.884 464.947L119.976 465.039L120.068 465.13L120.159 465.222L120.251 465.314L120.343 465.406L120.435 465.498L120.527 465.59L120.619 465.682L120.711 465.774L120.803 465.865L120.894 465.957L120.986 466.049L121.078 466.141L121.17 466.233L121.262 466.325L121.354 466.417L121.446 466.509L121.538 466.6L121.629 466.692L121.721 466.784L121.813 466.876L121.905 466.968L121.905 466.968L121.998 467.061L122.095 467.157L122.194 467.256L122.295 467.358L122.4 467.463L122.508 467.571L122.618 467.681L122.732 467.795L122.848 467.911L122.967 468.03L123.089 468.152L123.214 468.277L123.342 468.405L123.473 468.536L123.606 468.669L123.742 468.805L123.882 468.945L124.024 469.087L124.169 469.232L124.317 469.38L124.467 469.53L124.621 469.684L124.777 469.84L124.937 470L125.099 470.162L125.264 470.327L125.432 470.495L125.603 470.666L125.777 470.84L125.953 471.016L126.133 471.196L126.315 471.378L126.315 471.378L126.499 471.556L126.682 471.722L126.866 471.877L127.05 472.021L127.234 472.153L127.417 472.274L127.601 472.383L127.785 472.48L127.969 472.566L128.152 472.641L128.336 472.704L128.52 472.756L128.704 472.796L128.887 472.825L129.071 472.842L129.255 472.848L129.439 472.842L129.622 472.825L129.806 472.796L129.99 472.756L130.174 472.704L130.357 472.641L130.541 472.566L130.725 472.48L130.909 472.383L131.092 472.274L131.276 472.153L131.46 472.021L131.644 471.877L131.827 471.722L132.011 471.556L132.195 471.378L132.195 471.378L132.377 471.196L132.557 471.016L132.733 470.84L132.907 470.666L133.078 470.495L133.246 470.327L133.411 470.162L133.573 470L133.732 469.84L133.889 469.684L134.042 469.53L134.193 469.38L134.341 469.232L134.486 469.087L134.628 468.945L134.767 468.805L134.904 468.669L135.037 468.536L135.168 468.405L135.295 468.277L135.42 468.152L135.542 468.03L135.662 467.911L135.778 467.795L135.891 467.681L136.002 467.571L136.109 467.463L136.214 467.358L136.316 467.256L136.415 467.157L136.511 467.061L136.605 466.968L136.605 466.968L136.697 466.876L136.788 466.784L136.88 466.692L136.972 466.6L137.064 466.509L137.156 466.417L137.248 466.325L137.34 466.233L137.431 466.141L137.523 466.049L137.615 465.957L137.707 465.865L137.799 465.774L137.891 465.682L137.983 465.59L138.075 465.498L138.166 465.406L138.258 465.314L138.35 465.222L138.442 465.13L138.534 465.039L138.626 464.947L138.718 464.855L138.81 464.763L138.901 464.671L138.993 464.579L139.085 464.487L139.177 464.396L139.269 464.304L139.361 464.212L139.453 464.12L139.545 464.028L139.545 464.028L139.636 463.938L139.728 463.85L139.82 463.765L139.912 463.684L140.004 463.605L140.096 463.528L140.188 463.455L140.28 463.385L140.371 463.317L140.463 463.253L140.555 463.191L140.647 463.132L140.739 463.076L140.831 463.023L140.923 462.973L141.015 462.926L141.106 462.881L141.198 462.839L141.29 462.801L141.382 462.765L141.474 462.732L141.566 462.702L141.658 462.674L141.749 462.65L141.841 462.628L141.933 462.61L142.025 462.594L142.117 462.581L142.209 462.571L142.301 462.564L142.393 462.56L142.484 462.558L142.484 462.558L142.577 462.558L142.671 462.558L142.767 462.558L142.863 462.558L142.962 462.558L143.062 462.558L143.163 462.558L143.265 462.558L143.369 462.558L143.475 462.558L143.582 462.558L143.69 462.558L143.8 462.558L143.911 462.558L144.024 462.558L144.138 462.558L144.254 462.558L144.371 462.558L144.489 462.558L144.609 462.558L144.73 462.558L144.853 462.558L144.977 462.558L145.103 462.558L145.23 462.558L145.358 462.558L145.488 462.558L145.62 462.558L145.752 462.558L145.887 462.558L146.022 462.558L146.159 462.558L146.159 462.558L146.297 462.558L146.435 462.558L146.573 462.558L146.711 462.558L146.848 462.558L146.986 462.558L147.124 462.558L147.262 462.558L147.4 462.558L147.537 462.558L147.675 462.558L147.813 462.558L147.951 462.558L148.089 462.558L148.226 462.558L148.364 462.558L148.502 462.558L148.64 462.558L148.778 462.558L148.916 462.558L149.053 462.558L149.191 462.558L149.329 462.558L149.467 462.558L149.605 462.558L149.742 462.558L149.88 462.558L150.018 462.558L150.156 462.558L150.294 462.558L150.431 462.558L150.569 462.558L150.569 462.558L150.703 462.56L150.828 462.567L150.944 462.577L151.052 462.593L151.151 462.612L151.241 462.636L151.323 462.664L151.396 462.696L151.461 462.732L151.517 462.773L151.564 462.819L151.603 462.868L151.633 462.922L151.654 462.98L151.667 463.043L151.672 463.109L151.667 463.18L151.654 463.256L151.633 463.335L151.603 463.419L151.564 463.508L151.517 463.6L151.461 463.697L151.396 463.798L151.323 463.904L151.241 464.014L151.151 464.128L151.052 464.246L150.944 464.369L150.828 464.496L150.703 464.627L150.569 464.763L150.569 464.763L150.429 464.903L150.285 465.047L150.136 465.196L149.984 465.349L149.826 465.506L149.665 465.667L149.499 465.833L149.329 466.003L149.155 466.178L148.976 466.356L148.793 466.539L148.605 466.727L148.414 466.918L148.218 467.114L148.018 467.315L147.813 467.519L147.604 467.728L147.391 467.941L147.174 468.159L146.952 468.38L146.726 468.607L146.495 468.837L146.261 469.072L146.022 469.311L145.778 469.554L145.531 469.802L145.279 470.054L145.022 470.31L144.762 470.57L144.497 470.835L144.228 471.104L143.954 471.378"/>
<path class="l5" d="M360.773 273.668L362.243 273.668L362.243 275.138L360.773 275.138L360.773 273.668z"/>
<path class="l5" d="M671.67 78.8986L674.61 78.8986L674.61 81.8386L671.67 81.8386L671.67 78.8986z"/>
<path class="l5" d="M730.468 125.937L733.408 125.937L733.408 128.877L730.468 128.877L730.468 125.937z"/>
<path class="l5" d="M624.631 108.298L627.571 108.298L627.571 111.238L624.631 111.238L624.631 108.298z"/>
<path class="l5" d="M624.631 143.577L627.571 143.577L627.571 146.517L624.631 146.517L624.631 143.577z"/>
<path class="l5" d="M695.189 78.8986L698.129 78.8986L698.129 81.8386L695.189 81.8386L695.189 78.8986z"/>
<path class="l5" d="M695.189 172.976L698.129 172.976L698.129 175.916L695.189 175.916L695.189 172.976z"/>
<path class="l5" d="M671.67 172.976L674.61 172.976L674.61 175.916L671.67 175.916L671.67 172.976z"/>
<path class="l5" d="M407.077 284.693L410.017 284.693L410.017 287.633L407.077 287.633L407.077 284.693z"/>
<path class="l5" d="M407.077 319.972L410.017 319.972L410.017 322.912L407.077 322.912L407.077 319.972z"/>
<path class="l5" d="M407.077 331.732L410.017 331.732L410.017 334.672L407.077 334.672L407.077 331.732z"/>
<path class="l5" d="M407.812 273.668L409.282 273.668L409.282 275.138L407.812 275.138L407.812 273.668z"/>
<path class="l5" d="M818.666 149.457L821.606 149.457L821.606 152.397L818.666 152.397L818.666 149.457z"/>
<path class="l5" d="M818.666 184.736L821.606 184.736L821.606 187.676L818.666 187.676L818.666 184.736z"/>
<path class="l5" d="M819.401 126.672L820.871 126.672L820.871 128.142L819.401 128.142L819.401 126.672z"/>
<path class="l5" d="M465.876 161.216L468.815 161.216L468.815 164.156L465.876 164.156L465.876 161.216z"/>
<path class="l5" d="M465.876 196.495L468.815 196.495L468.815 199.435L465.876 199.435L465.876 196.495z"/>
<path class="l5" d="M501.89 109.033L503.36 109.033L503.36 110.503L501.89 110.503L501.89 109.033z"/>
<path class="l5" d="M695.189 20.1003L698.129 20.1003L698.129 23.0402L695.189 23.0402L695.189 20.1003z"/>
<path class="l5" d="M695.189 55.3793L698.129 55.3793L698.129 58.3192L695.189 58.3192L695.189 55.3793z"/>
<path class="l5" d="M695.189 225.895L698.129 225.895L698.129 228.835L695.189 228.835L695.189 225.895z"/>
<path class="l5" d="M695.189 261.174L698.129 261.174L698.129 264.114L695.189 264.114L695.189 261.174z"/>
<path class="l5" d="M537.628 109.492L538.179 109.492L538.179 110.043L537.628 110.043L537.628 109.492z"/>
<path class="l5" d="M749.302 127.132L749.853 127.132L749.853 127.683L749.302 127.683L749.302 127.132z"/>
<path class="l5" d="M696.384 221.209L696.935 221.209L696.935 221.76L696.384 221.76L696.384 221.209z"/>
<path class="l5" d="M695.924 185.471L697.394 185.471L697.394 186.941L695.924 186.941L695.924 185.471z"/>
<path class="l6" d="M282.131 480.198L749.578 480.198"/>
<path class="l6" d="M55.7569 480.198L93.9758 480.198"/>
<path class="l15" d="M540.109 104.623L543.783 100.213"/>
<path class="l15" d="M537.904 109.768L540.109 104.623"/>
<path class="l15" d="M543.783 93.5982L543.783 101.683"/>
<path class="l15" d="M542.313 100.213L554.808 100.213"/>
<path class="l15" d="M545.253 98.0081L548.193 98.0081"/>
<path class="l15" d="M548.193 95.8032L548.193 98.0081"/>
<path class="l15" d="M548.193 95.8032L550.398 95.8032"/>
<path class="l15" d="M550.398 95.8032L550.398 98.0081"/>
<path class="l15" d="M550.398 98.0081L552.603 98.0081"/>
<path class="l15" d="M552.603 95.8032L552.603 98.0081"/>
<path class="l15" d="M552.603 95.8032L554.257 95.8032"/>
<path class="l15" d="M751.783 122.262L755.458 117.853"/>
<path class="l15" d="M749.578 127.407L751.783 122.262"/>
<path class="l15" d="M755.458 111.238L755.458 119.323"/>
<path class="l15" d="M753.988 117.853L766.482 117.853"/>
<path class="l15" d="M756.928 115.648L759.867 115.648"/>
<path class="l15" d="M759.867 113.443L759.867 115.648"/>
<path class="l15" d="M759.867 113.443L762.072 113.443"/>
<path class="l15" d="M762.072 113.443L762.072 115.648"/>
<path class="l15" d="M762.072 115.648L764.277 115.648"/>
<path class="l15" d="M764.277 113.443L764.277 115.648"/>
<path class="l15" d="M764.277 113.443L765.931 113.443"/>
<path class="l15" d="M698.864 216.34L702.539 211.93"/>
<path class="l15" d="M696.659 221.485L698.864 216.34"/>
<path class="l15" d="M702.539 205.315L702.539 213.4"/>
<path class="l15" d="M701.069 211.93L713.564 211.93"/>
<path class="l15" d="M704.009 209.725L706.949 209.725"/>
<path class="l15" d="M706.949 207.52L706.949 209.725"/>
<path class="l15" d="M706.949 207.52L709.154 207.52"/>
<path class="l15" d="M709.154 207.52L709.154 209.725"/>
<path class="l15" d="M709.154 209.725L711.359 209.725"/>
<path class="l15" d="M711.359 207.52L711.359 209.725"/>
<path class="l15" d="M711.359 207.52L713.013 207.52"/>
<path class="l1" d="M361.508 321.442L361.508 333.202"/>
<path class="l1" d="M408.547 321.442L408.547 333.202"/>
<path class="l1" d="M408.547 274.403L408.547 286.163"/>
<path class="l1" d="M696.659 274.403L820.136 274.403"/>
<path class="l1" d="M673.14 9.81054L696.659 9.81054"/>
<path class="l1" d="M673.14 174.446L673.14 274.403"/>
<path class="l1" d="M820.136 186.206L820.136 274.403"/>
<path class="l1" d="M820.136 127.407L820.136 150.927"/>
<path class="l1" d="M773.097 127.407L820.136 127.407"/>
<path class="l1" d="M773.097 127.407L773.097 197.965"/>
<path class="l1" d="M731.938 127.407L773.097 127.407"/>
<path class="l1" d="M584.942 197.965L773.097 197.965"/>
<path class="l1" d="M584.942 145.047L584.942 197.965"/>
<path class="l1" d="M584.942 145.047L626.101 145.047"/>
<path class="l1" d="M467.346 197.965L467.346 274.403"/>
<path class="l1" d="M408.547 274.403L467.346 274.403"/>
<path class="l1" d="M467.346 109.768L467.346 162.686"/>
<path class="l1" d="M467.346 109.768L626.101 109.768"/>
<path class="l1" d="M696.659 9.81054L696.659 21.5702"/>
<path class="l1" d="M696.659 56.8492L696.659 80.3686"/>
<path class="l1" d="M673.14 50.9694L673.14 80.3686"/>
<path class="l1" d="M361.508 50.9694L673.14 50.9694"/>
<path class="l1" d="M361.508 50.9694L361.508 286.163"/>
<path class="l1" d="M673.14 9.81054L673.14 50.9694"/>
<path class="l1" d="M696.659 262.644L696.659 274.403"/>
<path class="l1" d="M673.14 274.403L696.659 274.403"/>
<path class="l1" d="M467.346 274.403L673.14 274.403"/>
<path class="l1" d="M696.659 174.446L696.659 227.365"/>
<circle class="l1" cx="673.14" cy="50.9694" r="2.17554"/>
<circle class="l1" cx="467.346" cy="274.403" r="2.17554"/>
<circle class="l1" cx="467.346" cy="274.403" r="2.17554"/>
<circle class="l1" cx="673.14" cy="274.403" r="2.17554"/>
<circle class="l1" cx="467.346" cy="274.403" r="2.17554"/>
<circle class="l1" cx="673.14" cy="50.9694" r="2.17554"/>
<circle class="l1" cx="673.14" cy="50.9694" r="2.17554"/>
<circle class="l1" cx="773.097" cy="127.407" r="2.17554"/>
<circle class="l1" cx="673.14" cy="274.403" r="2.17554"/>
<circle class="l1" cx="673.14" cy="274.403" r="2.17554"/>
<circle class="l1" cx="696.659" cy="274.403" r="2.17554"/>
<circle class="l1" cx="696.659" cy="274.403" r="2.17554"/>
<circle class="l1" cx="696.659" cy="274.403" r="2.17554"/>
<circle class="l1" cx="773.097" cy="127.407" r="2.17554"/>
<circle class="l1" cx="773.097" cy="127.407" r="2.17554"/>
</svg>
