<svg xmlns="http://www.w3.org/2000/svg" xmlns:xlink="http://www.w3.org/1999/xlink" width="1066" height="666" version="1.1">
<style type="text/css">
.l0{
  fill: #ffffff;
  stroke: #ffffff;
  stroke-linecap:round;
  stroke-linejoin:round;
  stroke-width: 1.03862;
}
.l1{
  fill: #0099cc;
  stroke: #0099cc;
  stroke-linecap:round;
  stroke-linejoin:round;
  stroke-width: 1.03862;
}
.l2{
  fill: #aaaaaa; fill-opacity: 0.2;
  stroke: #aaaaaa;
  stroke-linecap:round;
  stroke-linejoin:round;
  stroke-width: 1.03862;
}
.l3{
  fill: #222222; fill-opacity: 0.5;
  stroke: #222222;
  stroke-linecap:round;
  stroke-linejoin:round;
  stroke-width: 1.03862;
}
.l4{
  fill: #229900;
  stroke: #229900;
  stroke-linecap:round;
  stroke-linejoin:round;
  stroke-width: 1.03862;
}
.l5{
  fill: #bb2200;
  stroke: #bb2200;
  stroke-linecap:round;
  stroke-linejoin:round;
  stroke-width: 1.03862;
}
.l6{
  fill: #0066cc; fill-opacity: 0.5;
  stroke: #0066cc;
  stroke-linecap:round;
  stroke-linejoin:round;
  stroke-width: 1.03862;
}
.l7{
  fill: #ff0000; fill-opacity: 0.5;
  stroke: #ff0000;
  stroke-linecap:round;
  stroke-linejoin:round;
  stroke-width: 1.03862;
}
.l8{
  fill: #888800; fill-opacity: 0.5;
  stroke: #888800;
  stroke-linecap:round;
  stroke-linejoin:round;
  stroke-width: 1.03862;
}
.l9{
  fill: #00aaaa; fill-opacity: 0.5;
  stroke: #00aaaa;
  stroke-linecap:round;
  stroke-linejoin:round;
  stroke-width: 1.03862;
}
.l10{
  fill: #880088;
  stroke: #880088;
  stroke-linecap:round;
  stroke-linejoin:round;
  stroke-width: 1.03862;
}
.l11{
  fill: #00ff00; fill-opacity: 0.5;
  stroke: #00ff00;
  stroke-linecap:round;
  stroke-linejoin:round;
  stroke-width: 1.03862;
}
.l12{
  fill: #0000cc; fill-opacity: 0.5;
  stroke: #0000cc;
  stroke-linecap:round;
  stroke-linejoin:round;
  stroke-width: 1.03862;
}
.l13{
  fill: #666600; fill-opacity: 0.5;
  stroke: #666600;
  stroke-linecap:round;
  stroke-linejoin:round;
  stroke-width: 1.03862;
}
.l14{
  fill: #557755; fill-opacity: 0.2;
  stroke: #557755;
  stroke-linecap:round;
  stroke-linejoin:round;
  stroke-width: 1.03862;
}
.l15{
  fill: #aa2222; fill-opacity: 0.5;
  stroke: #aa2222;
  stroke-linecap:round;
  stroke-linejoin:round;
  stroke-width: 1.03862;
}
.l16{
  fill: #7ccc40; fill-opacity: 0.5;
  stroke: #7ccc40;
  stroke-linecap:round;
  stroke-linejoin:round;
  stroke-width: 1.03862;
}
.l17{
  fill: #00ffcc; fill-opacity: 0.2;
  stroke: #00ffcc;
  stroke-linecap:round;
  stroke-linejoin:round;
  stroke-width: 1.03862;
}
.l18{
  fill: #ce0097; fill-opacity: 0.5;
  stroke: #ce0097;
  stroke-linecap:round;
  stroke-linejoin:round;
  stroke-width: 1.03862;
}
.l19{
  fill: #d2d46b; fill-opacity: 0.2;
  stroke: #d2d46b;
  stroke-linecap:round;
  stroke-linejoin:round;
  stroke-width: 1.03862;
}
.l20{
  fill: #ef6158; fill-opacity: 0.2;
  stroke: #ef6158;
  stroke-linecap:round;
  stroke-linejoin:round;
  stroke-width: 1.03862;
}
.l21{
  fill: #fdb200; fill-opacity: 0.2;
  stroke: #fdb200;
  stroke-linecap:round;
  stroke-linejoin:round;
  stroke-width: 1.03862;
}
text {font-family: Sans-Serif;}
</style>
<rect class="l0" x="0" y="0" width="1066" height="666"/>
<path class="l4" d="M17.1534 566.766L71.0076 566.766"/>
<path class="l4" d="M17.1534 566.766L17.1534 582.153"/>
<path class="l4" d="M17.1534 66.6908L71.0076 66.6908"/>
<path class="l4" d="M17.1534 66.6908L17.1534 82.0777"/>
<path class="l4" d="M419.137 380.199L422.983 380.199"/>
<path class="l4" d="M421.06 378.276L421.06 382.123"/>
<path class="l4" d="M417.213 374.429L417.213 420.59"/>
<circle class="l4" cx="417.213" cy="397.51" r="11.5402" style="fill:none;" />
<path class="l4" d="M417.213 435.977L417.213 445.594"/>
<path class="l4" d="M413.367 445.594L421.06 445.594"/>
<path class="l4" d="M417.213 449.441L421.06 445.594"/>
<path class="l4" d="M413.367 445.594L417.213 449.441"/>
<path class="l4" d="M401.826 528.299L378.746 518.682L378.746 524.452L355.666 524.452L363.359 528.299L355.666 532.145L378.746 532.145L378.746 537.915L401.826 528.299"/>
<path class="l4" d="M586.47 528.299L563.389 518.682L563.389 524.452L540.309 524.452L548.002 528.299L540.309 532.145L563.389 532.145L563.389 537.915L586.47 528.299"/>
<path class="l4" d="M886.515 166.706L901.902 166.706"/>
<path class="l4" d="M763.419 143.625L778.806 143.625"/>
<path class="l4" d="M763.419 189.786L778.806 189.786"/>
<path class="l4" d="M778.806 120.545L778.806 212.867"/>
<path class="l4" d="M778.806 212.867L886.515 166.706"/>
<path class="l4" d="M778.806 120.545L886.515 166.706"/>
<path class="l4" d="M763.419 105.158L901.902 105.158"/>
<path class="l4" d="M901.902 105.158L901.902 228.254"/>
<path class="l4" d="M763.419 228.254L901.902 228.254"/>
<path class="l4" d="M763.419 105.158L763.419 228.254"/>
<path class="l4" d="M480.684 380.199L484.531 380.199"/>
<path class="l4" d="M482.608 378.276L482.608 382.123"/>
<path class="l4" d="M478.761 374.429L478.761 420.59"/>
<circle class="l4" cx="478.761" cy="397.51" r="11.5402" style="fill:none;" />
<path class="l4" d="M478.761 435.977L478.761 445.594"/>
<path class="l4" d="M474.914 445.594L482.608 445.594"/>
<path class="l4" d="M478.761 449.441L482.608 445.594"/>
<path class="l4" d="M474.914 445.594L478.761 449.441"/>
<path class="l4" d="M1017.3 224.407L1017.3 243.64"/>
<path class="l4" d="M1017.3 197.48L1017.3 216.713"/>
<path class="l4" d="M1009.61 216.713L1025 216.713"/>
<path class="l4" d="M1009.61 224.407L1025 224.407"/>
<path class="l4" d="M1019.23 203.25L1023.07 203.25"/>
<path class="l4" d="M1021.15 201.326L1021.15 205.173"/>
<path class="l4" d="M557.619 218.637L561.466 218.637"/>
<path class="l4" d="M559.542 216.713L559.542 220.56"/>
<path class="l4" d="M555.696 212.867L555.696 259.027"/>
<circle class="l4" cx="555.696" cy="235.947" r="11.5402" style="fill:none;" />
<path class="l4" d="M855.741 28.2235L855.741 39.7637"/>
<path class="l4" d="M855.741 62.8441L855.741 74.3843"/>
<path class="l4" d="M857.664 33.9936L861.511 33.9936"/>
<path class="l4" d="M859.587 32.0702L859.587 35.917"/>
<path class="l4" d="M855.741 45.5338L855.741 53.2273L857.664 53.2273L855.741 58.9974L853.817 53.2273L855.741 53.2273L855.741 45.5338"/>
<circle class="l4" cx="855.741" cy="51.3039" r="11.5402" style="fill:none;" />
<path class="l4" d="M857.664 303.265L861.511 303.265"/>
<path class="l4" d="M859.587 301.341L859.587 305.188"/>
<path class="l4" d="M855.741 297.495L855.741 343.655"/>
<circle class="l4" cx="855.741" cy="320.575" r="11.5402" style="fill:none;" />
<path class="l4" d="M657.634 172.476L661.481 172.476"/>
<path class="l4" d="M659.557 170.553L659.557 174.399"/>
<path class="l4" d="M655.711 166.706L655.711 212.867"/>
<circle class="l4" cx="655.711" cy="189.786" r="11.5402" style="fill:none;" />
<path class="l5" d="M415.29 372.506L419.137 372.506L419.137 376.353L415.29 376.353L415.29 372.506z"/>
<path class="l5" d="M415.29 418.667L419.137 418.667L419.137 422.513L415.29 422.513L415.29 418.667z"/>
<path class="l5" d="M415.29 434.054L419.137 434.054L419.137 437.9L415.29 437.9L415.29 434.054z"/>
<path class="l5" d="M132.555 616.773L132.315 617.014L132.074 617.254L131.834 617.495L131.594 617.735L131.353 617.975L131.113 618.216L130.872 618.456L130.632 618.697L130.392 618.937L130.151 619.178L129.911 619.418L129.67 619.658L129.43 619.899L129.189 620.139L128.949 620.38L128.709 620.62L128.468 620.86L128.228 621.101L127.987 621.341L127.747 621.582L127.506 621.822L127.266 622.063L127.026 622.303L126.785 622.543L126.545 622.784L126.304 623.024L126.064 623.265L125.824 623.505L125.583 623.746L125.343 623.986L125.102 624.226L124.862 624.467L124.862 624.467L124.629 624.707L124.411 624.948L124.208 625.188L124.02 625.428L123.848 625.669L123.69 625.909L123.547 626.15L123.419 626.39L123.307 626.631L123.209 626.871L123.126 627.111L123.059 627.352L123.006 627.592L122.969 627.833L122.946 628.073L122.938 628.314L122.946 628.554L122.969 628.794L123.006 629.035L123.059 629.275L123.126 629.516L123.209 629.756L123.307 629.996L123.419 630.237L123.547 630.477L123.69 630.718L123.848 630.958L124.02 631.199L124.208 631.439L124.411 631.679L124.629 631.92L124.862 632.16L124.862 632.16L125.103 632.402L125.346 632.645L125.592 632.89L125.839 633.137L126.087 633.386L126.338 633.637L126.591 633.889L126.845 634.144L127.102 634.4L127.36 634.658L127.62 634.919L127.882 635.181L128.146 635.444L128.412 635.71L128.679 635.978L128.949 636.247L129.22 636.519L129.494 636.792L129.769 637.067L130.046 637.344L130.325 637.623L130.606 637.904L130.888 638.187L131.173 638.471L131.459 638.758L131.748 639.046L132.038 639.336L132.33 639.628L132.624 639.922L132.92 640.218L133.217 640.516L133.517 640.815L133.517 640.815L133.816 641.114L134.111 641.409L134.402 641.7L134.689 641.987L134.973 642.271L135.253 642.551L135.529 642.827L135.801 643.099L136.07 643.368L136.334 643.633L136.595 643.894L136.853 644.151L137.106 644.405L137.356 644.655L137.602 644.901L137.845 645.143L138.083 645.382L138.318 645.616L138.549 645.847L138.776 646.075L139 646.298L139.219 646.518L139.435 646.734L139.648 646.946L139.856 647.155L140.061 647.359L140.262 647.56L140.459 647.758L140.653 647.951L140.842 648.141L141.028 648.327L141.21 648.509L141.21 648.509L141.385 648.686L141.549 648.858L141.701 649.024L141.842 649.185L141.971 649.34L142.089 649.489L142.197 649.633L142.292 649.771L142.377 649.904L142.45 650.03L142.512 650.151L142.563 650.267L142.602 650.377L142.63 650.481L142.647 650.58L142.653 650.673L142.647 650.76L142.63 650.842L142.602 650.918L142.563 650.988L142.512 651.053L142.45 651.112L142.377 651.166L142.292 651.214L142.197 651.256L142.089 651.292L141.971 651.323L141.842 651.349L141.701 651.369L141.549 651.383L141.385 651.391L141.21 651.394L141.21 651.394L141.03 651.394L140.85 651.394L140.67 651.394L140.489 651.394L140.309 651.394L140.129 651.394L139.948 651.394L139.768 651.394L139.588 651.394L139.407 651.394L139.227 651.394L139.047 651.394L138.866 651.394L138.686 651.394L138.506 651.394L138.325 651.394L138.145 651.394L137.965 651.394L137.784 651.394L137.604 651.394L137.424 651.394L137.244 651.394L137.063 651.394L136.883 651.394L136.703 651.394L136.522 651.394L136.342 651.394L136.162 651.394L135.981 651.394L135.801 651.394L135.621 651.394L135.44 651.394L135.44 651.394L135.261 651.394L135.083 651.394L134.908 651.394L134.734 651.394L134.562 651.394L134.392 651.394L134.224 651.394L134.058 651.394L133.894 651.394L133.731 651.394L133.571 651.394L133.412 651.394L133.255 651.394L133.1 651.394L132.947 651.394L132.796 651.394L132.646 651.394L132.499 651.394L132.353 651.394L132.21 651.394L132.068 651.394L131.928 651.394L131.79 651.394L131.654 651.394L131.519 651.394L131.387 651.394L131.256 651.394L131.128 651.394L131.001 651.394L130.876 651.394L130.753 651.394L130.632 651.394L130.632 651.394L130.512 651.392L130.392 651.386L130.271 651.377L130.151 651.364L130.031 651.347L129.911 651.326L129.79 651.302L129.67 651.274L129.55 651.242L129.43 651.206L129.31 651.167L129.189 651.123L129.069 651.076L128.949 651.026L128.829 650.971L128.709 650.913L128.588 650.851L128.468 650.785L128.348 650.716L128.228 650.643L128.108 650.566L127.987 650.485L127.867 650.4L127.747 650.312L127.627 650.22L127.506 650.124L127.386 650.025L127.266 649.921L127.146 649.814L127.026 649.703L126.905 649.589L126.785 649.471L126.785 649.471L126.665 649.35L126.545 649.23L126.425 649.11L126.304 648.99L126.184 648.87L126.064 648.749L125.944 648.629L125.824 648.509L125.703 648.389L125.583 648.268L125.463 648.148L125.343 648.028L125.222 647.908L125.102 647.788L124.982 647.667L124.862 647.547L124.742 647.427L124.621 647.307L124.501 647.187L124.381 647.066L124.261 646.946L124.141 646.826L124.02 646.706L123.9 646.586L123.78 646.465L123.66 646.345L123.54 646.225L123.419 646.105L123.299 645.984L123.179 645.864L123.059 645.744L122.938 645.624L122.938 645.624L122.816 645.502L122.691 645.376L122.561 645.246L122.428 645.113L122.29 644.976L122.15 644.835L122.005 644.69L121.857 644.542L121.704 644.39L121.549 644.234L121.389 644.074L121.225 643.911L121.058 643.744L120.887 643.573L120.713 643.398L120.534 643.22L120.352 643.037L120.166 642.851L119.976 642.662L119.783 642.468L119.586 642.271L119.385 642.07L119.18 641.865L118.972 641.657L118.759 641.445L118.543 641.229L118.324 641.009L118.1 640.785L117.873 640.558L117.642 640.327L117.407 640.092L117.168 639.854L117.168 639.854L116.928 639.621L116.688 639.403L116.447 639.2L116.207 639.012L115.966 638.839L115.726 638.682L115.485 638.539L115.245 638.411L115.005 638.299L114.764 638.201L114.524 638.118L114.283 638.051L114.043 637.998L113.802 637.96L113.562 637.938L113.322 637.93L113.081 637.938L112.841 637.96L112.6 637.998L112.36 638.051L112.12 638.118L111.879 638.201L111.639 638.299L111.398 638.411L111.158 638.539L110.917 638.682L110.677 638.839L110.437 639.012L110.196 639.2L109.956 639.403L109.715 639.621L109.475 639.854L109.475 639.854L109.236 640.092L109.002 640.327L108.771 640.558L108.543 640.785L108.32 641.009L108.1 641.229L107.884 641.445L107.672 641.657L107.463 641.865L107.259 642.07L107.058 642.271L106.86 642.468L106.667 642.662L106.477 642.851L106.291 643.037L106.109 643.22L105.931 643.398L105.756 643.573L105.585 643.744L105.418 643.911L105.254 644.074L105.095 644.234L104.939 644.39L104.787 644.542L104.638 644.69L104.494 644.835L104.353 644.976L104.216 645.113L104.082 645.246L103.953 645.376L103.827 645.502L103.705 645.624L103.705 645.624L103.585 645.744L103.464 645.864L103.344 645.984L103.224 646.105L103.104 646.225L102.984 646.345L102.863 646.465L102.743 646.586L102.623 646.706L102.503 646.826L102.383 646.946L102.262 647.066L102.142 647.187L102.022 647.307L101.902 647.427L101.781 647.547L101.661 647.667L101.541 647.788L101.421 647.908L101.301 648.028L101.18 648.148L101.06 648.268L100.94 648.389L100.82 648.509L100.7 648.629L100.579 648.749L100.459 648.87L100.339 648.99L100.219 649.11L100.099 649.23L99.9783 649.35L99.8581 649.471L99.8581 649.471L99.7379 649.589L99.6177 649.703L99.4975 649.814L99.3773 649.921L99.257 650.025L99.1368 650.124L99.0166 650.22L98.8964 650.312L98.7762 650.4L98.656 650.485L98.5358 650.566L98.4156 650.643L98.2954 650.716L98.1751 650.785L98.0549 650.851L97.9347 650.913L97.8145 650.971L97.6943 651.026L97.5741 651.076L97.4539 651.123L97.3337 651.167L97.2135 651.206L97.0933 651.242L96.973 651.274L96.8528 651.302L96.7326 651.326L96.6124 651.347L96.4922 651.364L96.372 651.377L96.2518 651.386L96.1316 651.392L96.0114 651.394L96.0114 651.394L95.8902 651.394L95.7672 651.394L95.6423 651.394L95.5155 651.394L95.3868 651.394L95.2563 651.394L95.1239 651.394L94.9896 651.394L94.8534 651.394L94.7153 651.394L94.5754 651.394L94.4336 651.394L94.2899 651.394L94.1443 651.394L93.9969 651.394L93.8476 651.394L93.6964 651.394L93.5433 651.394L93.3883 651.394L93.2315 651.394L93.0728 651.394L92.9122 651.394L92.7497 651.394L92.5854 651.394L92.4191 651.394L92.251 651.394L92.081 651.394L91.9092 651.394L91.7354 651.394L91.5598 651.394L91.3823 651.394L91.2029 651.394L91.2029 651.394L91.0226 651.394L90.8423 651.394L90.662 651.394L90.4817 651.394L90.3014 651.394L90.1211 651.394L89.9407 651.394L89.7604 651.394L89.5801 651.394L89.3998 651.394L89.2195 651.394L89.0392 651.394L88.8588 651.394L88.6785 651.394L88.4982 651.394L88.3179 651.394L88.1376 651.394L87.9573 651.394L87.777 651.394L87.5966 651.394L87.4163 651.394L87.236 651.394L87.0557 651.394L86.8754 651.394L86.6951 651.394L86.5147 651.394L86.3344 651.394L86.1541 651.394L85.9738 651.394L85.7935 651.394L85.6132 651.394L85.4329 651.394L85.4329 651.394L85.2582 651.391L85.0948 651.383L84.9426 651.369L84.8017 651.349L84.6721 651.323L84.5538 651.292L84.4468 651.256L84.351 651.214L84.2664 651.166L84.1932 651.112L84.1312 651.053L84.0805 650.988L84.041 650.918L84.0129 650.842L83.996 650.76L83.9903 650.673L83.996 650.58L84.0129 650.481L84.041 650.377L84.0805 650.267L84.1312 650.151L84.1932 650.03L84.2664 649.904L84.351 649.771L84.4468 649.633L84.5538 649.489L84.6721 649.34L84.8017 649.185L84.9426 649.024L85.0948 648.858L85.2582 648.686L85.4329 648.509L85.4329 648.509L85.615 648.327L85.801 648.141L85.9907 647.951L86.1842 647.758L86.3814 647.56L86.5824 647.359L86.7871 647.155L86.9956 646.946L87.2078 646.734L87.4238 646.518L87.6436 646.298L87.8671 646.075L88.0944 645.847L88.3254 645.616L88.5602 645.382L88.7987 645.143L89.041 644.901L89.2871 644.655L89.5369 644.405L89.7905 644.151L90.0478 643.894L90.3089 643.633L90.5737 643.368L90.8423 643.099L91.1147 642.827L91.3908 642.551L91.6706 642.271L91.9543 641.987L92.2416 641.7L92.5328 641.409L92.8277 641.114L93.1263 640.815L93.1263 640.815L93.4259 640.516L93.7236 640.218L94.0194 639.922L94.3134 639.628L94.6055 639.336L94.8957 639.046L95.184 638.758L95.4704 638.471L95.755 638.187L96.0377 637.904L96.3185 637.623L96.5974 637.344L96.8744 637.067L97.1496 636.792L97.4229 636.519L97.6943 636.247L97.9638 635.978L98.2315 635.71L98.4973 635.444L98.7612 635.181L99.0232 634.919L99.2833 634.658L99.5416 634.4L99.798 634.144L100.052 633.889L100.305 633.637L100.556 633.386L100.805 633.137L101.052 632.89L101.297 632.645L101.54 632.402L101.781 632.16L101.781 632.16L102.014 631.92L102.232 631.679L102.435 631.439L102.623 631.199L102.796 630.958L102.954 630.718L103.096 630.477L103.224 630.237L103.337 629.996L103.434 629.756L103.517 629.516L103.585 629.275L103.637 629.035L103.675 628.794L103.697 628.554L103.705 628.314L103.697 628.073L103.675 627.833L103.637 627.592L103.585 627.352L103.517 627.111L103.434 626.871L103.337 626.631L103.224 626.39L103.096 626.15L102.954 625.909L102.796 625.669L102.623 625.428L102.435 625.188L102.232 624.948L102.014 624.707L101.781 624.467L101.781 624.467L101.54 624.225L101.297 623.982L101.052 623.737L100.805 623.49L100.556 623.241L100.305 622.99L100.052 622.738L99.798 622.483L99.5416 622.227L99.2833 621.969L99.0232 621.709L98.7612 621.447L98.4973 621.183L98.2315 620.917L97.9638 620.649L97.6943 620.38L97.4229 620.108L97.1496 619.835L96.8744 619.56L96.5974 619.283L96.3185 619.004L96.0377 618.723L95.755 618.44L95.4704 618.156L95.184 617.869L94.8957 617.581L94.6055 617.291L94.3134 616.999L94.0194 616.705L93.7236 616.409L93.4259 616.111L93.1263 615.812L93.1263 615.812L92.8277 615.513L92.5328 615.218L92.2416 614.927L91.9543 614.64L91.6706 614.356L91.3908 614.076L91.1147 613.8L90.8423 613.528L90.5737 613.259L90.3089 612.994L90.0478 612.733L89.7905 612.476L89.5369 612.222L89.2871 611.972L89.041 611.726L88.7987 611.484L88.5602 611.246L88.3254 611.011L88.0944 610.78L87.8671 610.552L87.6436 610.329L87.4238 610.109L87.2078 609.893L86.9956 609.681L86.7871 609.472L86.5824 609.268L86.3814 609.067L86.1842 608.87L85.9907 608.676L85.801 608.486L85.615 608.3L85.4329 608.118L85.4329 608.118L85.2582 607.941L85.0948 607.769L84.9426 607.603L84.8017 607.442L84.6721 607.287L84.5538 607.138L84.4468 606.994L84.351 606.856L84.2664 606.724L84.1932 606.597L84.1312 606.476L84.0805 606.36L84.041 606.25L84.0129 606.146L83.996 606.047L83.9903 605.954L83.996 605.867L84.0129 605.785L84.041 605.709L84.0805 605.639L84.1312 605.574L84.1932 605.515L84.2664 605.461L84.351 605.413L84.4468 605.371L84.5538 605.335L84.6721 605.304L84.8017 605.278L84.9426 605.259L85.0948 605.244L85.2582 605.236L85.4329 605.233L85.4329 605.233L85.6132 605.233L85.7935 605.233L85.9738 605.233L86.1541 605.233L86.3344 605.233L86.5147 605.233L86.6951 605.233L86.8754 605.233L87.0557 605.233L87.236 605.233L87.4163 605.233L87.5966 605.233L87.777 605.233L87.9573 605.233L88.1376 605.233L88.3179 605.233L88.4982 605.233L88.6785 605.233L88.8588 605.233L89.0392 605.233L89.2195 605.233L89.3998 605.233L89.5801 605.233L89.7604 605.233L89.9407 605.233L90.1211 605.233L90.3014 605.233L90.4817 605.233L90.662 605.233L90.8423 605.233L91.0226 605.233L91.2029 605.233L91.2029 605.233L91.3823 605.233L91.5598 605.233L91.7354 605.233L91.9092 605.233L92.081 605.233L92.251 605.233L92.4191 605.233L92.5854 605.233L92.7497 605.233L92.9122 605.233L93.0728 605.233L93.2315 605.233L93.3883 605.233L93.5433 605.233L93.6964 605.233L93.8476 605.233L93.9969 605.233L94.1443 605.233L94.2899 605.233L94.4336 605.233L94.5754 605.233L94.7153 605.233L94.8534 605.233L94.9896 605.233L95.1239 605.233L95.2563 605.233L95.3868 605.233L95.5155 605.233L95.6423 605.233L95.7672 605.233L95.8902 605.233L96.0114 605.233L96.0114 605.233L96.1316 605.235L96.2518 605.241L96.372 605.25L96.4922 605.263L96.6124 605.28L96.7326 605.301L96.8528 605.325L96.973 605.353L97.0933 605.385L97.2135 605.421L97.3337 605.46L97.4539 605.504L97.5741 605.551L97.6943 605.601L97.8145 605.656L97.9347 605.714L98.0549 605.776L98.1751 605.842L98.2954 605.911L98.4156 605.984L98.5358 606.061L98.656 606.142L98.7762 606.227L98.8964 606.315L99.0166 606.407L99.1368 606.503L99.257 606.602L99.3773 606.706L99.4975 606.813L99.6177 606.924L99.7379 607.038L99.8581 607.157L99.8581 607.157L99.9783 607.277L100.099 607.397L100.219 607.517L100.339 607.637L100.459 607.758L100.579 607.878L100.7 607.998L100.82 608.118L100.94 608.238L101.06 608.359L101.18 608.479L101.301 608.599L101.421 608.719L101.541 608.839L101.661 608.96L101.781 609.08L101.902 609.2L102.022 609.32L102.142 609.441L102.262 609.561L102.383 609.681L102.503 609.801L102.623 609.921L102.743 610.042L102.863 610.162L102.984 610.282L103.104 610.402L103.224 610.522L103.344 610.643L103.464 610.763L103.585 610.883L103.705 611.003L103.705 611.003L103.827 611.125L103.953 611.251L104.082 611.381L104.216 611.514L104.353 611.651L104.494 611.792L104.638 611.937L104.787 612.085L104.939 612.237L105.095 612.393L105.254 612.553L105.418 612.716L105.585 612.883L105.756 613.054L105.931 613.229L106.109 613.407L106.291 613.59L106.477 613.776L106.667 613.965L106.86 614.159L107.058 614.356L107.259 614.557L107.463 614.762L107.672 614.97L107.884 615.182L108.1 615.398L108.32 615.618L108.543 615.842L108.771 616.069L109.002 616.3L109.236 616.535L109.475 616.773L109.475 616.773L109.715 617.006L109.956 617.224L110.196 617.427L110.437 617.615L110.677 617.788L110.917 617.945L111.158 618.088L111.398 618.216L111.639 618.329L111.879 618.426L112.12 618.509L112.36 618.576L112.6 618.629L112.841 618.667L113.081 618.689L113.322 618.697L113.562 618.689L113.802 618.667L114.043 618.629L114.283 618.576L114.524 618.509L114.764 618.426L115.005 618.329L115.245 618.216L115.485 618.088L115.726 617.945L115.966 617.788L116.207 617.615L116.447 617.427L116.688 617.224L116.928 617.006L117.168 616.773L117.168 616.773L117.407 616.535L117.642 616.3L117.873 616.069L118.1 615.842L118.324 615.618L118.543 615.398L118.759 615.182L118.972 614.97L119.18 614.762L119.385 614.557L119.586 614.356L119.783 614.159L119.976 613.965L120.166 613.776L120.352 613.59L120.534 613.407L120.713 613.229L120.887 613.054L121.058 612.883L121.225 612.716L121.389 612.553L121.549 612.393L121.704 612.237L121.857 612.085L122.005 611.937L122.15 611.792L122.29 611.651L122.428 611.514L122.561 611.381L122.691 611.251L122.816 611.125L122.938 611.003L122.938 611.003L123.059 610.883L123.179 610.763L123.299 610.643L123.419 610.522L123.54 610.402L123.66 610.282L123.78 610.162L123.9 610.042L124.02 609.921L124.141 609.801L124.261 609.681L124.381 609.561L124.501 609.441L124.621 609.32L124.742 609.2L124.862 609.08L124.982 608.96L125.102 608.839L125.222 608.719L125.343 608.599L125.463 608.479L125.583 608.359L125.703 608.238L125.824 608.118L125.944 607.998L126.064 607.878L126.184 607.758L126.304 607.637L126.425 607.517L126.545 607.397L126.665 607.277L126.785 607.157L126.785 607.157L126.905 607.038L127.026 606.924L127.146 606.813L127.266 606.706L127.386 606.602L127.506 606.503L127.627 606.407L127.747 606.315L127.867 606.227L127.987 606.142L128.108 606.061L128.228 605.984L128.348 605.911L128.468 605.842L128.588 605.776L128.709 605.714L128.829 605.656L128.949 605.601L129.069 605.551L129.189 605.504L129.31 605.46L129.43 605.421L129.55 605.385L129.67 605.353L129.79 605.325L129.911 605.301L130.031 605.28L130.151 605.263L130.271 605.25L130.392 605.241L130.512 605.235L130.632 605.233L130.632 605.233L130.753 605.233L130.876 605.233L131.001 605.233L131.128 605.233L131.256 605.233L131.387 605.233L131.519 605.233L131.654 605.233L131.79 605.233L131.928 605.233L132.068 605.233L132.21 605.233L132.353 605.233L132.499 605.233L132.646 605.233L132.796 605.233L132.947 605.233L133.1 605.233L133.255 605.233L133.412 605.233L133.571 605.233L133.731 605.233L133.894 605.233L134.058 605.233L134.224 605.233L134.392 605.233L134.562 605.233L134.734 605.233L134.908 605.233L135.083 605.233L135.261 605.233L135.44 605.233L135.44 605.233L135.621 605.233L135.801 605.233L135.981 605.233L136.162 605.233L136.342 605.233L136.522 605.233L136.703 605.233L136.883 605.233L137.063 605.233L137.244 605.233L137.424 605.233L137.604 605.233L137.784 605.233L137.965 605.233L138.145 605.233L138.325 605.233L138.506 605.233L138.686 605.233L138.866 605.233L139.047 605.233L139.227 605.233L139.407 605.233L139.588 605.233L139.768 605.233L139.948 605.233L140.129 605.233L140.309 605.233L140.489 605.233L140.67 605.233L140.85 605.233L141.03 605.233L141.21 605.233L141.21 605.233L141.385 605.236L141.549 605.244L141.701 605.259L141.842 605.278L141.971 605.304L142.089 605.335L142.197 605.371L142.292 605.413L142.377 605.461L142.45 605.515L142.512 605.574L142.563 605.639L142.602 605.709L142.63 605.785L142.647 605.867L142.653 605.954L142.647 606.047L142.63 606.146L142.602 606.25L142.563 606.36L142.512 606.476L142.45 606.597L142.377 606.724L142.292 606.856L142.197 606.994L142.089 607.138L141.971 607.287L141.842 607.442L141.701 607.603L141.549 607.769L141.385 607.941L141.21 608.118L141.21 608.118L141.027 608.301L140.839 608.49L140.644 608.685L140.444 608.885L140.238 609.09L140.027 609.302L139.81 609.518L139.588 609.741L139.359 609.969L139.126 610.203L138.886 610.443L138.641 610.688L138.39 610.938L138.134 611.195L137.872 611.457L137.604 611.725L137.331 611.998L137.052 612.277L136.767 612.561L136.477 612.851L136.181 613.147L135.88 613.449L135.573 613.756L135.26 614.069L134.942 614.387L134.618 614.711L134.288 615.041L133.953 615.376L133.612 615.717L133.265 616.063L132.913 616.416L132.555 616.773"/>
<path class="l5" d="M416.252 358.081L418.175 358.081L418.175 360.004L416.252 360.004L416.252 358.081z"/>
<path class="l5" d="M823.044 103.235L826.89 103.235L826.89 107.081L823.044 107.081L823.044 103.235z"/>
<path class="l5" d="M899.978 164.782L903.825 164.782L903.825 168.629L899.978 168.629L899.978 164.782z"/>
<path class="l5" d="M761.496 141.702L765.343 141.702L765.343 145.549L761.496 145.549L761.496 141.702z"/>
<path class="l5" d="M761.496 187.863L765.343 187.863L765.343 191.71L761.496 191.71L761.496 187.863z"/>
<path class="l5" d="M853.817 103.235L857.664 103.235L857.664 107.081L853.817 107.081L853.817 103.235z"/>
<path class="l5" d="M853.817 226.33L857.664 226.33L857.664 230.177L853.817 230.177L853.817 226.33z"/>
<path class="l5" d="M823.044 226.33L826.89 226.33L826.89 230.177L823.044 230.177L823.044 226.33z"/>
<path class="l5" d="M476.838 372.506L480.684 372.506L480.684 376.353L476.838 376.353L476.838 372.506z"/>
<path class="l5" d="M476.838 418.667L480.684 418.667L480.684 422.513L476.838 422.513L476.838 418.667z"/>
<path class="l5" d="M476.838 434.054L480.684 434.054L480.684 437.9L476.838 437.9L476.838 434.054z"/>
<path class="l5" d="M477.799 358.081L479.723 358.081L479.723 360.004L477.799 360.004L477.799 358.081z"/>
<path class="l5" d="M1015.38 195.556L1019.23 195.556L1019.23 199.403L1015.38 199.403L1015.38 195.556z"/>
<path class="l5" d="M1015.38 241.717L1019.23 241.717L1019.23 245.564L1015.38 245.564L1015.38 241.717z"/>
<path class="l5" d="M1016.34 165.744L1018.27 165.744L1018.27 167.668L1016.34 167.668L1016.34 165.744z"/>
<path class="l5" d="M553.772 210.943L557.619 210.943L557.619 214.79L553.772 214.79L553.772 210.943z"/>
<path class="l5" d="M553.772 257.104L557.619 257.104L557.619 260.951L553.772 260.951L553.772 257.104z"/>
<path class="l5" d="M600.895 142.664L602.818 142.664L602.818 144.587L600.895 144.587L600.895 142.664z"/>
<path class="l5" d="M853.817 26.3001L857.664 26.3001L857.664 30.1469L853.817 30.1469L853.817 26.3001z"/>
<path class="l5" d="M853.817 72.4609L857.664 72.4609L857.664 76.3076L853.817 76.3076L853.817 72.4609z"/>
<path class="l5" d="M853.817 295.571L857.664 295.571L857.664 299.418L853.817 299.418L853.817 295.571z"/>
<path class="l5" d="M853.817 341.732L857.664 341.732L857.664 345.579L853.817 345.579L853.817 341.732z"/>
<path class="l5" d="M647.657 143.265L648.378 143.265L648.378 143.986L647.657 143.986L647.657 143.265z"/>
<path class="l5" d="M924.621 166.345L925.343 166.345L925.343 167.066L924.621 167.066L924.621 166.345z"/>
<path class="l5" d="M855.38 289.441L856.101 289.441L856.101 290.162L855.38 290.162L855.38 289.441z"/>
<path class="l5" d="M854.779 242.679L856.702 242.679L856.702 244.602L854.779 244.602L854.779 242.679z"/>
<path class="l5" d="M653.787 164.782L657.634 164.782L657.634 168.629L653.787 168.629L653.787 164.782z"/>
<path class="l5" d="M653.787 210.943L657.634 210.943L657.634 214.79L653.787 214.79L653.787 210.943z"/>
<path class="l6" d="M313.352 628.314L924.982 628.314"/>
<path class="l6" d="M17.1534 628.314L67.1609 628.314"/>
<path class="l15" d="M650.902 136.894L655.711 131.124"/>
<path class="l15" d="M648.017 143.625L650.902 136.894"/>
<path class="l15" d="M655.711 122.468L655.711 133.047"/>
<path class="l15" d="M653.787 131.124L670.136 131.124"/>
<path class="l15" d="M657.634 128.239L661.481 128.239"/>
<path class="l15" d="M661.481 125.353L661.481 128.239"/>
<path class="l15" d="M661.481 125.353L664.366 125.353"/>
<path class="l15" d="M664.366 125.353L664.366 128.239"/>
<path class="l15" d="M664.366 128.239L667.251 128.239"/>
<path class="l15" d="M667.251 125.353L667.251 128.239"/>
<path class="l15" d="M667.251 125.353L669.415 125.353"/>
<path class="l15" d="M927.867 159.974L932.675 154.204"/>
<path class="l15" d="M924.982 166.706L927.867 159.974"/>
<path class="l15" d="M932.675 145.549L932.675 156.127"/>
<path class="l15" d="M930.752 154.204L947.101 154.204"/>
<path class="l15" d="M934.599 151.319L938.445 151.319"/>
<path class="l15" d="M938.445 148.434L938.445 151.319"/>
<path class="l15" d="M938.445 148.434L941.33 148.434"/>
<path class="l15" d="M941.33 148.434L941.33 151.319"/>
<path class="l15" d="M941.33 151.319L944.216 151.319"/>
<path class="l15" d="M944.216 148.434L944.216 151.319"/>
<path class="l15" d="M944.216 148.434L946.379 148.434"/>
<path class="l15" d="M858.626 283.069L863.434 277.299"/>
<path class="l15" d="M855.741 289.801L858.626 283.069"/>
<path class="l15" d="M863.434 268.644L863.434 279.223"/>
<path class="l15" d="M861.511 277.299L877.859 277.299"/>
<path class="l15" d="M865.358 274.414L869.204 274.414"/>
<path class="l15" d="M869.204 271.529L869.204 274.414"/>
<path class="l15" d="M869.204 271.529L872.089 271.529"/>
<path class="l15" d="M872.089 271.529L872.089 274.414"/>
<path class="l15" d="M872.089 274.414L874.974 274.414"/>
<path class="l15" d="M874.974 271.529L874.974 274.414"/>
<path class="l15" d="M874.974 271.529L877.138 271.529"/>
<text fill="#222222"  xml:space="preserve" font-size="12.0018" transform="translate(21.0001, 562.277)" >MODEL</text>
<text fill="#222222"  xml:space="preserve" font-size="12.0018" style="font-family:Monospace;" transform="translate(28.6936, 581.51)" >.lib cornerMOSlv.lib mos_tt</text>
<text fill="#222222"  xml:space="preserve" font-size="12.0018" transform="translate(21.0001, 62.2015)" >NGSPICE</text>
<text fill="#222222"  xml:space="preserve" font-size="12.0018" style="font-family:Monospace;" transform="translate(28.6936, 95.2012)" >.temp 27</text>
<text fill="#222222"  xml:space="preserve" font-size="12.0018" style="font-family:Monospace;" transform="translate(28.6936, 108.967)" >.control</text>
<text fill="#222222"  xml:space="preserve" font-size="12.0018" style="font-family:Monospace;" transform="translate(28.6936, 122.733)" >option sparse</text>
<text fill="#222222"  xml:space="preserve" font-size="12.0018" style="font-family:Monospace;" transform="translate(28.6936, 136.499)" >set filetype=ascii</text>
<text fill="#222222"  xml:space="preserve" font-size="12.0018" style="font-family:Monospace;" transform="translate(28.6936, 150.266)" >save all</text>
<text fill="#222222"  xml:space="preserve" font-size="12.0018" style="font-family:Monospace;" transform="translate(28.6936, 177.798)" >*op</text>
<text fill="#222222"  xml:space="preserve" font-size="12.0018" style="font-family:Monospace;" transform="translate(28.6936, 191.564)" >*write ota-5t_tb-noise.raw</text>
<text fill="#222222"  xml:space="preserve" font-size="12.0018" style="font-family:Monospace;" transform="translate(28.6936, 205.33)" >*set appendwrite</text>
<text fill="#222222"  xml:space="preserve" font-size="12.0018" style="font-family:Monospace;" transform="translate(28.6936, 232.862)" >ac dec 101 1k 1G</text>
<text fill="#222222"  xml:space="preserve" font-size="12.0018" style="font-family:Monospace;" transform="translate(28.6936, 246.628)" >*write ota-5t_tb-noise.raw</text>
<text fill="#222222"  xml:space="preserve" font-size="12.0018" style="font-family:Monospace;" transform="translate(28.6936, 260.394)" >plot 20*log10(v_out)</text>
<text fill="#222222"  xml:space="preserve" font-size="12.0018" style="font-family:Monospace;" transform="translate(28.6936, 287.926)" >noise v(v_out) Vin lin 1000 1MEG 1000MEG 1</text>
<text fill="#222222"  xml:space="preserve" font-size="12.0018" style="font-family:Monospace;" transform="translate(28.6936, 301.692)" >print inoise_total</text>
<text fill="#222222"  xml:space="preserve" font-size="12.0018" style="font-family:Monospace;" transform="translate(28.6936, 315.458)" >print onoise_total</text>
<text fill="#222222"  xml:space="preserve" font-size="12.0018" style="font-family:Monospace;" transform="translate(28.6936, 342.99)" >setplot noise1</text>
<text fill="#222222"  xml:space="preserve" font-size="12.0018" style="font-family:Monospace;" transform="translate(28.6936, 356.756)" >plot inoise_spectrum linplot</text>
<text fill="#222222"  xml:space="preserve" font-size="12.0018" style="font-family:Monospace;" transform="translate(28.6936, 370.523)" >plot onoise_spectrum linplot</text>
<text fill="#222222"  xml:space="preserve" font-size="12.0018" style="font-family:Monospace;" transform="translate(28.6936, 398.055)" >setplot noise2</text>
<text fill="#222222"  xml:space="preserve" font-size="12.0018" style="font-family:Monospace;" transform="translate(28.6936, 411.821)" >write ota-5t_tb-noise.raw</text>
<text fill="#222222"  xml:space="preserve" font-size="12.0018" style="font-family:Monospace;" transform="translate(28.6936, 439.353)" >.endc</text>
<text fill="#222222"  xml:space="preserve" font-size="8.0012" transform="translate(432.6, 390.35)" >Vdd</text>
<text fill="#222222"  xml:space="preserve" font-size="8.0012" transform="translate(432.6, 409.583)" >1.5</text>
<text fill="#0099cc"  xml:space="preserve" font-size="8.0012" transform="translate(422.983, 447.089)" >GND</text>
<text fill="#222222"  xml:space="preserve" font-size="16.0024" transform="translate(321.045, 646.69)" >         ota-5t_tb-noise.sch</text>
<text fill="#222222"  xml:space="preserve" font-size="16.0024" transform="translate(321.045, 623.61)" >(c) 2024-2025 Harald Pretl, Apache-2.0 license</text>
<text fill="#222222"  xml:space="preserve" font-size="16.0024" transform="translate(752.982, 623.61)" >2026-06-24  15:14:13</text>
<text fill="#222222"  xml:space="preserve" font-size="40.006" transform="translate(144.095, 645.405)" >SCHEM</text>
<text fill="#222222"  xml:space="preserve" font-size="16.0024" transform="translate(409.52, 533.329)" >simulate</text>
<text fill="#222222"  xml:space="preserve" font-size="16.0024" transform="translate(594.163, 533.329)" >annotate OP</text>
<text fill="#0099cc"  xml:space="preserve" font-size="13.202" transform="translate(380.443, 364.779)" >v_dd</text>
<text fill="#222222"  xml:space="preserve" font-size="8.0012" transform="translate(790.346, 169.355)" >ota-5t</text>
<text fill="#222222"  xml:space="preserve" font-size="8.0012" transform="translate(905.748, 103.191)" >xota</text>
<text fill="#222222"  xml:space="preserve" font-size="8.0012" transform="translate(826.132, 124.392) rotate(270)" >vdd</text>
<text fill="#222222"  xml:space="preserve" font-size="8.0012" transform="translate(849.281, 170.894)" >vout</text>
<text fill="#222222"  xml:space="preserve" font-size="8.0012" transform="translate(782.653, 147.813)" >vinp</text>
<text fill="#222222"  xml:space="preserve" font-size="8.0012" transform="translate(782.653, 193.974)" >vinn</text>
<text fill="#222222"  xml:space="preserve" font-size="8.0012" transform="translate(856.906, 146.005) rotate(270)" >ibias_20u</text>
<text fill="#222222"  xml:space="preserve" font-size="8.0012" transform="translate(856.906, 225.326) rotate(270)" >d_ena</text>
<text fill="#222222"  xml:space="preserve" font-size="8.0012" transform="translate(826.132, 224.407) rotate(270)" >vss</text>
<text fill="#222222"  xml:space="preserve" font-size="8.0012" transform="translate(494.148, 390.35)" >Vss</text>
<text fill="#222222"  xml:space="preserve" font-size="8.0012" transform="translate(494.148, 409.583)" >0</text>
<text fill="#0099cc"  xml:space="preserve" font-size="8.0012" transform="translate(484.531, 447.089)" >GND</text>
<text fill="#0099cc"  xml:space="preserve" font-size="13.202" transform="translate(443.991, 364.779)" >v_ss</text>
<text fill="#666600"  xml:space="preserve" font-size="8.0012" transform="translate(1008.46, 207.63)" >1</text>
<text fill="#666600"  xml:space="preserve" font-size="8.0012" transform="translate(1008.46, 240.327)" >2</text>
<text fill="#222222"  xml:space="preserve" font-size="8.0012" transform="translate(1028.84, 213.4)" >C1</text>
<text fill="#222222"  xml:space="preserve" font-size="8.0012" transform="translate(1028.84, 223.017)" >50f</text>
<text fill="#222222"  xml:space="preserve" font-size="8.0012" transform="translate(1028.84, 232.634)" >m=1</text>
<text fill="#0099cc"  xml:space="preserve" font-size="10.8016" transform="translate(986.38, 163.163)" >v_out</text>
<text fill="#222222"  xml:space="preserve" font-size="8.0012" transform="translate(571.083, 228.787)" >Vcm</text>
<text fill="#222222"  xml:space="preserve" font-size="8.0012" transform="translate(571.083, 248.02)" >dc 0.8</text>
<text fill="#0099cc"  xml:space="preserve" font-size="10.8016" transform="translate(571.933, 140.082)" >v_cm</text>
<text fill="#222222"  xml:space="preserve" font-size="8.0012" transform="translate(871.128, 50.8755)" >I0</text>
<text fill="#222222"  xml:space="preserve" font-size="8.0012" transform="translate(871.128, 60.0529)" >20u</text>
<text fill="#222222"  xml:space="preserve" font-size="8.0012" transform="translate(871.128, 313.415)" >Venable</text>
<text fill="#222222"  xml:space="preserve" font-size="8.0012" transform="translate(871.128, 332.649)" >1.5</text>
<text fill="#0099cc"  xml:space="preserve" font-size="10.8016" transform="translate(821.817, 240.097)" >v_ena</text>
<text fill="#222222"  xml:space="preserve" font-size="8.0012" transform="translate(671.098, 182.626)" >Vin</text>
<text fill="#222222"  xml:space="preserve" font-size="8.0012" transform="translate(671.098, 201.86)" >dc 0 ac 1</text>
<path class="l1" d="M417.213 420.59L417.213 435.977"/>
<path class="l1" d="M478.761 420.59L478.761 435.977"/>
<path class="l1" d="M478.761 359.042L478.761 374.429"/>
<path class="l1" d="M855.741 359.042L1017.3 359.042"/>
<path class="l1" d="M824.967 12.8366L855.741 12.8366"/>
<path class="l1" d="M824.967 228.254L824.967 359.042"/>
<path class="l1" d="M1017.3 243.64L1017.3 359.042"/>
<path class="l1" d="M901.902 166.706L1017.3 166.706"/>
<path class="l1" d="M709.565 189.786L763.419 189.786"/>
<path class="l1" d="M555.696 259.027L555.696 359.042"/>
<path class="l1" d="M478.761 359.042L555.696 359.042"/>
<path class="l1" d="M555.696 143.625L555.696 212.867"/>
<path class="l1" d="M655.711 143.625L763.419 143.625"/>
<path class="l1" d="M855.741 12.8366L855.741 28.2235"/>
<path class="l1" d="M855.741 74.3843L855.741 105.158"/>
<path class="l1" d="M824.967 66.6908L824.967 105.158"/>
<path class="l1" d="M417.213 66.6908L824.967 66.6908"/>
<path class="l1" d="M417.213 66.6908L417.213 374.429"/>
<path class="l1" d="M824.967 12.8366L824.967 66.6908"/>
<path class="l1" d="M855.741 343.655L855.741 359.042"/>
<path class="l1" d="M824.967 359.042L855.741 359.042"/>
<path class="l1" d="M555.696 359.042L824.967 359.042"/>
<path class="l1" d="M855.741 228.254L855.741 297.495"/>
<path class="l1" d="M655.711 143.625L655.711 166.706"/>
<path class="l1" d="M555.696 143.625L655.711 143.625"/>
<path class="l1" d="M709.565 189.786L709.565 235.947"/>
<path class="l1" d="M655.711 235.947L709.565 235.947"/>
<path class="l1" d="M655.711 212.867L655.711 235.947"/>
<path class="l1" d="M1017.3 166.706L1017.3 197.48"/>
<circle class="l1" cx="655.711" cy="143.625" r="2.84658"/>
<circle class="l1" cx="824.967" cy="66.6908" r="2.84658"/>
<circle class="l1" cx="555.696" cy="359.042" r="2.84658"/>
<circle class="l1" cx="555.696" cy="359.042" r="2.84658"/>
<circle class="l1" cx="824.967" cy="359.042" r="2.84658"/>
<circle class="l1" cx="555.696" cy="359.042" r="2.84658"/>
<circle class="l1" cx="824.967" cy="66.6908" r="2.84658"/>
<circle class="l1" cx="655.711" cy="143.625" r="2.84658"/>
<circle class="l1" cx="824.967" cy="66.6908" r="2.84658"/>
<circle class="l1" cx="655.711" cy="143.625" r="2.84658"/>
<circle class="l1" cx="824.967" cy="359.042" r="2.84658"/>
<circle class="l1" cx="824.967" cy="359.042" r="2.84658"/>
<circle class="l1" cx="855.741" cy="359.042" r="2.84658"/>
<circle class="l1" cx="855.741" cy="359.042" r="2.84658"/>
<circle class="l1" cx="855.741" cy="359.042" r="2.84658"/>
</svg>
