<svg xmlns="http://www.w3.org/2000/svg" xmlns:xlink="http://www.w3.org/1999/xlink" width="2460" height="1215" version="1.1">
<style type="text/css">
.l0{
  fill: #ffffff;
  stroke: #ffffff;
  stroke-linecap:round;
  stroke-linejoin:round;
  stroke-width: 0.494261;
}
.l1{
  fill: #0044ee;
  stroke: #0044ee;
  stroke-linecap:round;
  stroke-linejoin:round;
  stroke-width: 0.494261;
}
.l2{
  fill: #aaaaaa; fill-opacity: 0.2;
  stroke: #aaaaaa;
  stroke-linecap:round;
  stroke-linejoin:round;
  stroke-width: 0.494261;
}
.l3{
  fill: #222222; fill-opacity: 0.5;
  stroke: #222222;
  stroke-linecap:round;
  stroke-linejoin:round;
  stroke-width: 0.494261;
}
.l4{
  fill: #229900;
  stroke: #229900;
  stroke-linecap:round;
  stroke-linejoin:round;
  stroke-width: 0.494261;
}
.l5{
  fill: #bb2200;
  stroke: #bb2200;
  stroke-linecap:round;
  stroke-linejoin:round;
  stroke-width: 0.494261;
}
.l6{
  fill: #00ccee; fill-opacity: 0.5;
  stroke: #00ccee;
  stroke-linecap:round;
  stroke-linejoin:round;
  stroke-width: 0.494261;
}
.l7{
  fill: #ff0000; fill-opacity: 0.5;
  stroke: #ff0000;
  stroke-linecap:round;
  stroke-linejoin:round;
  stroke-width: 0.494261;
}
.l8{
  fill: #888800; fill-opacity: 0.5;
  stroke: #888800;
  stroke-linecap:round;
  stroke-linejoin:round;
  stroke-width: 0.494261;
}
.l9{
  fill: #00aaaa; fill-opacity: 0.5;
  stroke: #00aaaa;
  stroke-linecap:round;
  stroke-linejoin:round;
  stroke-width: 0.494261;
}
.l10{
  fill: #880088;
  stroke: #880088;
  stroke-linecap:round;
  stroke-linejoin:round;
  stroke-width: 0.494261;
}
.l11{
  fill: #00ff00; fill-opacity: 0.5;
  stroke: #00ff00;
  stroke-linecap:round;
  stroke-linejoin:round;
  stroke-width: 0.494261;
}
.l12{
  fill: #0000cc; fill-opacity: 0.5;
  stroke: #0000cc;
  stroke-linecap:round;
  stroke-linejoin:round;
  stroke-width: 0.494261;
}
.l13{
  fill: #666600; fill-opacity: 0.5;
  stroke: #666600;
  stroke-linecap:round;
  stroke-linejoin:round;
  stroke-width: 0.494261;
}
.l14{
  fill: #557755; fill-opacity: 0.2;
  stroke: #557755;
  stroke-linecap:round;
  stroke-linejoin:round;
  stroke-width: 0.494261;
}
.l15{
  fill: #aa2222; fill-opacity: 0.5;
  stroke: #aa2222;
  stroke-linecap:round;
  stroke-linejoin:round;
  stroke-width: 0.494261;
}
.l16{
  fill: #7ccc40; fill-opacity: 0.5;
  stroke: #7ccc40;
  stroke-linecap:round;
  stroke-linejoin:round;
  stroke-width: 0.494261;
}
.l17{
  fill: #00ffcc; fill-opacity: 0.2;
  stroke: #00ffcc;
  stroke-linecap:round;
  stroke-linejoin:round;
  stroke-width: 0.494261;
}
.l18{
  fill: #ce0097; fill-opacity: 0.5;
  stroke: #ce0097;
  stroke-linecap:round;
  stroke-linejoin:round;
  stroke-width: 0.494261;
}
.l19{
  fill: #d2d46b; fill-opacity: 0.2;
  stroke: #d2d46b;
  stroke-linecap:round;
  stroke-linejoin:round;
  stroke-width: 0.494261;
}
.l20{
  fill: #ef6158; fill-opacity: 0.2;
  stroke: #ef6158;
  stroke-linecap:round;
  stroke-linejoin:round;
  stroke-width: 0.494261;
}
.l21{
  fill: #fdb200; fill-opacity: 0.2;
  stroke: #fdb200;
  stroke-linecap:round;
  stroke-linejoin:round;
  stroke-width: 0.494261;
}
text {font-family: Sans-Serif;}
</style>
<rect class="l0" x="0" y="0" width="2460" height="1215"/>
<text fill="#0044ee"  xml:space="preserve" font-size="10.394" transform="translate(727.083, 1083.82)" >GND</text>
<text fill="#0044ee"  xml:space="preserve" font-size="17.1502" transform="translate(671.092, 976.896)" >v_dd</text>
<text fill="#0044ee"  xml:space="preserve" font-size="10.394" transform="translate(886.991, 1083.82)" >GND</text>
<text fill="#0044ee"  xml:space="preserve" font-size="17.1502" transform="translate(835, 976.896)" >v_ss</text>
<text fill="#0044ee"  xml:space="preserve" font-size="14.032" transform="translate(689.089, 804.933)" >v_in</text>
<text fill="#0044ee"  xml:space="preserve" font-size="14.032" transform="translate(881.994, 804.933)" >v_ena</text>
<text fill="#0044ee"  xml:space="preserve" font-size="17.1502" transform="translate(1290.74, 637.091)" >v_dd</text>
<text fill="#0044ee"  xml:space="preserve" font-size="17.1502" transform="translate(1294.74, 996.885)" >v_ss</text>
<text fill="#0044ee"  xml:space="preserve" font-size="14.032" transform="translate(1068.87, 774.95)" >v_in</text>
<text fill="#0044ee"  xml:space="preserve" font-size="14.032" transform="translate(1381.71, 904.876)" >v_ena</text>
<text fill="#0044ee"  xml:space="preserve" font-size="17.1502" transform="translate(675.092, 916.93)" >v_ss</text>
<text fill="#0044ee"  xml:space="preserve" font-size="17.1502" transform="translate(835, 916.93)" >v_ss</text>
<text fill="#0044ee"  xml:space="preserve" font-size="14.032" transform="translate(1114.85, 924.864)" >vf1</text>
<text fill="#ff0000"  xml:space="preserve" font-size="14.032" transform="translate(1263.76, 924.864)" >vr1</text>
<text fill="#0044ee"  xml:space="preserve" font-size="17.1502" transform="translate(2050.3, 637.091)" >v_dd</text>
<text fill="#0044ee"  xml:space="preserve" font-size="17.1502" transform="translate(2054.3, 996.885)" >v_ss</text>
<text fill="#0044ee"  xml:space="preserve" font-size="14.032" transform="translate(1828.44, 774.95)" >v_in</text>
<text fill="#0044ee"  xml:space="preserve" font-size="14.032" transform="translate(2141.27, 904.876)" >v_ena</text>
<text fill="#0044ee"  xml:space="preserve" font-size="17.1502" transform="translate(1290.74, 77.4119)" >v_dd</text>
<text fill="#0044ee"  xml:space="preserve" font-size="17.1502" transform="translate(1294.74, 437.206)" >v_ss</text>
<text fill="#0044ee"  xml:space="preserve" font-size="14.032" transform="translate(1068.87, 215.271)" >v_in</text>
<text fill="#0044ee"  xml:space="preserve" font-size="14.032" transform="translate(1381.71, 345.196)" >v_ena</text>
<text fill="#0044ee"  xml:space="preserve" font-size="17.1502" transform="translate(2050.3, 77.4119)" >v_dd</text>
<text fill="#0044ee"  xml:space="preserve" font-size="17.1502" transform="translate(2054.3, 437.206)" >v_ss</text>
<text fill="#0044ee"  xml:space="preserve" font-size="14.032" transform="translate(1828.44, 215.271)" >v_in</text>
<text fill="#0044ee"  xml:space="preserve" font-size="14.032" transform="translate(2141.27, 345.196)" >v_ena</text>
<text fill="#0044ee"  xml:space="preserve" font-size="14.032" transform="translate(1141.85, 423.755)" >vmeas1</text>
<text fill="#0044ee"  xml:space="preserve" font-size="14.032" transform="translate(1901.41, 423.755)" >vmeas2</text>
<text fill="#222222"  xml:space="preserve" font-size="15.5911" transform="translate(24.9857, 1043.57)" >MODEL</text>
<text fill="#222222"  xml:space="preserve" font-size="15.5911" style="font-family:Monospace;" transform="translate(34.9799, 1068.55)" >.lib cornerMOSlv.lib mos_tt</text>
<text fill="#222222"  xml:space="preserve" font-size="15.5911" transform="translate(24.9857, 24.151)" >NGSPICE</text>
<text fill="#222222"  xml:space="preserve" font-size="15.5911" style="font-family:Monospace;" transform="translate(34.9799, 67.0196)" >.param temp=27</text>
<text fill="#222222"  xml:space="preserve" font-size="15.5911" style="font-family:Monospace;" transform="translate(34.9799, 84.9025)" >.options savecurrents reltol=1e-3 abstol=1e-12 gmin=1e-15</text>
<text fill="#222222"  xml:space="preserve" font-size="15.5911" style="font-family:Monospace;" transform="translate(34.9799, 102.785)" >.control</text>
<text fill="#222222"  xml:space="preserve" font-size="15.5911" style="font-family:Monospace;" transform="translate(34.9799, 120.668)" >save all</text>
<text fill="#222222"  xml:space="preserve" font-size="15.5911" style="font-family:Monospace;" transform="translate(34.9799, 156.434)" >* Operating Point Analysis</text>
<text fill="#222222"  xml:space="preserve" font-size="15.5911" style="font-family:Monospace;" transform="translate(34.9799, 174.317)" >op</text>
<text fill="#222222"  xml:space="preserve" font-size="15.5911" style="font-family:Monospace;" transform="translate(34.9799, 192.2)" >remzerovec</text>
<text fill="#222222"  xml:space="preserve" font-size="15.5911" style="font-family:Monospace;" transform="translate(34.9799, 210.083)" >write ota-5t_tb-loopgain.raw</text>
<text fill="#222222"  xml:space="preserve" font-size="15.5911" style="font-family:Monospace;" transform="translate(34.9799, 227.966)" >set appendwrite</text>
<text fill="#222222"  xml:space="preserve" font-size="15.5911" style="font-family:Monospace;" transform="translate(34.9799, 263.732)" >* AC Analysis</text>
<text fill="#222222"  xml:space="preserve" font-size="15.5911" style="font-family:Monospace;" transform="translate(34.9799, 281.615)" >ac dec 1001 10k 100G</text>
<text fill="#222222"  xml:space="preserve" font-size="15.5911" style="font-family:Monospace;" transform="translate(34.9799, 299.498)" >remzerovec</text>
<text fill="#222222"  xml:space="preserve" font-size="15.5911" style="font-family:Monospace;" transform="translate(34.9799, 317.381)" >write ota-5t_tb-loopgain.raw</text>
<text fill="#222222"  xml:space="preserve" font-size="15.5911" style="font-family:Monospace;" transform="translate(34.9799, 335.264)" >set appendwrite</text>
<text fill="#222222"  xml:space="preserve" font-size="15.5911" style="font-family:Monospace;" transform="translate(34.9799, 371.03)" >* Middlebrook's Method</text>
<text fill="#222222"  xml:space="preserve" font-size="15.5911" style="font-family:Monospace;" transform="translate(34.9799, 388.913)" >let tv=-v(vr1)/v(vf1)</text>
<text fill="#222222"  xml:space="preserve" font-size="15.5911" style="font-family:Monospace;" transform="translate(34.9799, 406.796)" >let ti=-i(vir1)/i(vif1)</text>
<text fill="#222222"  xml:space="preserve" font-size="15.5911" style="font-family:Monospace;" transform="translate(34.9799, 424.678)" >let tmb=(tv*ti - 1)/(tv + ti + 2)</text>
<text fill="#222222"  xml:space="preserve" font-size="15.5911" style="font-family:Monospace;" transform="translate(34.9799, 460.444)" >plot db(tmb) ylabel 'Magnitude - Middlebrook'</text>
<text fill="#222222"  xml:space="preserve" font-size="15.5911" style="font-family:Monospace;" transform="translate(34.9799, 478.327)" >plot 180/pi*cphase(tmb) ylabel 'Phase - Middlebrook'</text>
<text fill="#222222"  xml:space="preserve" font-size="15.5911" style="font-family:Monospace;" transform="translate(34.9799, 514.093)" >* Tian's Method</text>
<text fill="#222222"  xml:space="preserve" font-size="15.5911" style="font-family:Monospace;" transform="translate(34.9799, 531.976)" >* vtest=0, itest=1:</text>
<text fill="#222222"  xml:space="preserve" font-size="15.5911" style="font-family:Monospace;" transform="translate(34.9799, 549.859)" >let A=i(Vimeas2)</text>
<text fill="#222222"  xml:space="preserve" font-size="15.5911" style="font-family:Monospace;" transform="translate(34.9799, 567.742)" >let C=v(vmeas2)</text>
<text fill="#222222"  xml:space="preserve" font-size="15.5911" style="font-family:Monospace;" transform="translate(34.9799, 603.508)" >* vtest=1, itest=0:</text>
<text fill="#222222"  xml:space="preserve" font-size="15.5911" style="font-family:Monospace;" transform="translate(34.9799, 621.391)" >let B=i(Vimeas1)</text>
<text fill="#222222"  xml:space="preserve" font-size="15.5911" style="font-family:Monospace;" transform="translate(34.9799, 639.274)" >let D=v(vmeas1)</text>
<text fill="#222222"  xml:space="preserve" font-size="15.5911" style="font-family:Monospace;" transform="translate(34.9799, 657.157)" >let ttian=(A*D-B*C-A)/(2*(B*C-A*D)+A-D+1)</text>
<text fill="#222222"  xml:space="preserve" font-size="15.5911" style="font-family:Monospace;" transform="translate(34.9799, 692.923)" >plot db(ttian) ylabel 'Magnitude - Tian'</text>
<text fill="#222222"  xml:space="preserve" font-size="15.5911" style="font-family:Monospace;" transform="translate(34.9799, 710.806)" >plot 180/pi*cphase(ttian) ylabel 'Phase - Tian'</text>
<text fill="#222222"  xml:space="preserve" font-size="15.5911" style="font-family:Monospace;" transform="translate(34.9799, 746.571)" >* Middlebrook vs. Tian</text>
<text fill="#222222"  xml:space="preserve" font-size="15.5911" style="font-family:Monospace;" transform="translate(34.9799, 764.454)" >plot db(tmb) db(ttian) ylabel 'Magnitude'</text>
<text fill="#222222"  xml:space="preserve" font-size="15.5911" style="font-family:Monospace;" transform="translate(34.9799, 782.337)" >plot 180/pi*cphase(tmb) 180/pi*cphase(ttian) ylabel 'Phase'</text>
<text fill="#222222"  xml:space="preserve" font-size="15.5911" style="font-family:Monospace;" transform="translate(34.9799, 818.103)" >write ota-5t_tb-loopgain.raw</text>
<text fill="#222222"  xml:space="preserve" font-size="15.5911" style="font-family:Monospace;" transform="translate(34.9799, 853.869)" >*quit</text>
<text fill="#222222"  xml:space="preserve" font-size="15.5911" style="font-family:Monospace;" transform="translate(34.9799, 871.752)" >.endc</text>
<text fill="#222222"  xml:space="preserve" font-size="20.7881" transform="translate(394.774, 1203.2)" >         /foss/designs/analog-circuit-design/xschem/ota-5t_tb-loopgain.sch</text>
<text fill="#222222"  xml:space="preserve" font-size="20.7881" transform="translate(394.774, 1173.21)" >(c) 2024 H. Pretl, S. Dorrer, Apache-2.0 license</text>
<text fill="#222222"  xml:space="preserve" font-size="20.7881" transform="translate(953.324, 1173.21)" >2024-12-04  08:30:02</text>
<text fill="#222222"  xml:space="preserve" font-size="51.9702" transform="translate(164.905, 1201.53)" >SCHEM</text>
<text fill="#222222"  xml:space="preserve" font-size="20.7881" transform="translate(759.564, 736.457)" >Annotate OP</text>
<text fill="#222222"  xml:space="preserve" font-size="20.7881" transform="translate(759.564, 676.492)" >Simulate</text>
<text fill="#222222"  xml:space="preserve" font-size="10.394" transform="translate(739.576, 1010.11)" >Vdd</text>
<text fill="#222222"  xml:space="preserve" font-size="10.394" transform="translate(739.576, 1035.1)" >1.5</text>
<text fill="#222222"  xml:space="preserve" font-size="10.394" transform="translate(899.484, 1010.11)" >Vss</text>
<text fill="#222222"  xml:space="preserve" font-size="10.394" transform="translate(899.484, 1035.1)" >0</text>
<text fill="#222222"  xml:space="preserve" font-size="10.394" transform="translate(739.576, 850.206)" >Vin</text>
<text fill="#222222"  xml:space="preserve" font-size="10.394" transform="translate(739.576, 875.191)" >dc 0.75</text>
<text fill="#222222"  xml:space="preserve" font-size="10.394" transform="translate(899.484, 850.206)" >Venable</text>
<text fill="#222222"  xml:space="preserve" font-size="10.394" transform="translate(899.484, 875.191)" >1.5</text>
<text fill="#666600"  xml:space="preserve" font-size="10.394" transform="translate(1567.1, 882.687)" >1</text>
<text fill="#666600"  xml:space="preserve" font-size="10.394" transform="translate(1567.1, 925.163)" >2</text>
<text fill="#222222"  xml:space="preserve" font-size="10.394" transform="translate(1594.09, 890.183)" >C2</text>
<text fill="#222222"  xml:space="preserve" font-size="10.394" transform="translate(1594.09, 902.676)" >50f</text>
<text fill="#222222"  xml:space="preserve" font-size="10.394" transform="translate(1594.09, 915.168)" >m=1</text>
<text fill="#222222"  xml:space="preserve" font-size="10.394" transform="translate(1399.2, 679.054)" >I1</text>
<text fill="#222222"  xml:space="preserve" font-size="10.394" transform="translate(1399.2, 690.976)" >20u</text>
<text fill="#222222"  xml:space="preserve" font-size="10.394" transform="translate(1294.26, 812.977)" >ota-5t</text>
<text fill="#222222"  xml:space="preserve" font-size="10.394" transform="translate(1444.17, 727.026)" >x1</text>
<text fill="#222222"  xml:space="preserve" font-size="10.394" transform="translate(1340.75, 754.567) rotate(270)" >vdd</text>
<text fill="#222222"  xml:space="preserve" font-size="10.394" transform="translate(1371.2, 814.976)" >vout</text>
<text fill="#222222"  xml:space="preserve" font-size="10.394" transform="translate(1284.26, 784.993)" >vinp</text>
<text fill="#222222"  xml:space="preserve" font-size="10.394" transform="translate(1284.26, 844.959)" >vinn</text>
<text fill="#222222"  xml:space="preserve" font-size="10.394" transform="translate(1380.72, 784.579) rotate(270)" >ibias_20u</text>
<text fill="#222222"  xml:space="preserve" font-size="10.394" transform="translate(1380.72, 885.51) rotate(270)" >d_ena</text>
<text fill="#222222"  xml:space="preserve" font-size="10.394" transform="translate(1340.75, 884.493) rotate(270)" >vss</text>
<text fill="#222222"  xml:space="preserve" font-size="10.394" transform="translate(1200.01, 909.478) rotate(270)" >Vtest1</text>
<text fill="#222222"  xml:space="preserve" font-size="10.394" transform="translate(1224.99, 909.478) rotate(270)" >dc 0 ac 1</text>
<text fill="#666600"  xml:space="preserve" font-size="10.394" transform="translate(2326.66, 882.687)" >1</text>
<text fill="#666600"  xml:space="preserve" font-size="10.394" transform="translate(2326.66, 925.163)" >2</text>
<text fill="#222222"  xml:space="preserve" font-size="10.394" transform="translate(2353.65, 890.183)" >C1</text>
<text fill="#222222"  xml:space="preserve" font-size="10.394" transform="translate(2353.65, 902.676)" >50f</text>
<text fill="#222222"  xml:space="preserve" font-size="10.394" transform="translate(2353.65, 915.168)" >m=1</text>
<text fill="#222222"  xml:space="preserve" font-size="10.394" transform="translate(2158.76, 679.054)" >I2</text>
<text fill="#222222"  xml:space="preserve" font-size="10.394" transform="translate(2158.76, 690.976)" >20u</text>
<text fill="#222222"  xml:space="preserve" font-size="10.394" transform="translate(2053.82, 812.977)" >ota-5t</text>
<text fill="#222222"  xml:space="preserve" font-size="10.394" transform="translate(2203.74, 727.026)" >x2</text>
<text fill="#222222"  xml:space="preserve" font-size="10.394" transform="translate(2100.31, 754.567) rotate(270)" >vdd</text>
<text fill="#222222"  xml:space="preserve" font-size="10.394" transform="translate(2130.76, 814.976)" >vout</text>
<text fill="#222222"  xml:space="preserve" font-size="10.394" transform="translate(2043.83, 784.993)" >vinp</text>
<text fill="#222222"  xml:space="preserve" font-size="10.394" transform="translate(2043.83, 844.959)" >vinn</text>
<text fill="#222222"  xml:space="preserve" font-size="10.394" transform="translate(2140.29, 784.579) rotate(270)" >ibias_20u</text>
<text fill="#222222"  xml:space="preserve" font-size="10.394" transform="translate(2140.29, 885.51) rotate(270)" >d_ena</text>
<text fill="#222222"  xml:space="preserve" font-size="10.394" transform="translate(2100.31, 884.493) rotate(270)" >vss</text>
<text fill="#222222"  xml:space="preserve" font-size="10.394" transform="translate(2045.09, 965.458) rotate(270)" >Vir1</text>
<text fill="#222222"  xml:space="preserve" font-size="10.394" transform="translate(1945.15, 965.458) rotate(270)" >Vif1</text>
<text fill="#222222"  xml:space="preserve" font-size="10.394" transform="translate(1910.88, 995.015)" >Itest1</text>
<text fill="#222222"  xml:space="preserve" font-size="10.394" transform="translate(1910.88, 1006.94)" >dc 0 ac 1</text>
<text fill="#666600"  xml:space="preserve" font-size="10.394" transform="translate(1567.1, 323.008)" >1</text>
<text fill="#666600"  xml:space="preserve" font-size="10.394" transform="translate(1567.1, 365.484)" >2</text>
<text fill="#222222"  xml:space="preserve" font-size="10.394" transform="translate(1594.09, 330.504)" >C3</text>
<text fill="#222222"  xml:space="preserve" font-size="10.394" transform="translate(1594.09, 342.997)" >50f</text>
<text fill="#222222"  xml:space="preserve" font-size="10.394" transform="translate(1594.09, 355.489)" >m=1</text>
<text fill="#222222"  xml:space="preserve" font-size="10.394" transform="translate(1399.2, 119.375)" >I3</text>
<text fill="#222222"  xml:space="preserve" font-size="10.394" transform="translate(1399.2, 131.297)" >20u</text>
<text fill="#222222"  xml:space="preserve" font-size="10.394" transform="translate(1294.26, 253.298)" >ota-5t</text>
<text fill="#222222"  xml:space="preserve" font-size="10.394" transform="translate(1444.17, 167.347)" >x3</text>
<text fill="#222222"  xml:space="preserve" font-size="10.394" transform="translate(1340.75, 194.888) rotate(270)" >vdd</text>
<text fill="#222222"  xml:space="preserve" font-size="10.394" transform="translate(1371.2, 255.297)" >vout</text>
<text fill="#222222"  xml:space="preserve" font-size="10.394" transform="translate(1284.26, 225.314)" >vinp</text>
<text fill="#222222"  xml:space="preserve" font-size="10.394" transform="translate(1284.26, 285.28)" >vinn</text>
<text fill="#222222"  xml:space="preserve" font-size="10.394" transform="translate(1380.72, 224.9) rotate(270)" >ibias_20u</text>
<text fill="#222222"  xml:space="preserve" font-size="10.394" transform="translate(1380.72, 325.831) rotate(270)" >d_ena</text>
<text fill="#222222"  xml:space="preserve" font-size="10.394" transform="translate(1340.75, 324.814) rotate(270)" >vss</text>
<text fill="#666600"  xml:space="preserve" font-size="10.394" transform="translate(2326.66, 323.008)" >1</text>
<text fill="#666600"  xml:space="preserve" font-size="10.394" transform="translate(2326.66, 365.484)" >2</text>
<text fill="#222222"  xml:space="preserve" font-size="10.394" transform="translate(2353.65, 330.504)" >C4</text>
<text fill="#222222"  xml:space="preserve" font-size="10.394" transform="translate(2353.65, 342.997)" >50f</text>
<text fill="#222222"  xml:space="preserve" font-size="10.394" transform="translate(2353.65, 355.489)" >m=1</text>
<text fill="#222222"  xml:space="preserve" font-size="10.394" transform="translate(2158.76, 119.375)" >I4</text>
<text fill="#222222"  xml:space="preserve" font-size="10.394" transform="translate(2158.76, 131.297)" >20u</text>
<text fill="#222222"  xml:space="preserve" font-size="10.394" transform="translate(2053.82, 253.298)" >ota-5t</text>
<text fill="#222222"  xml:space="preserve" font-size="10.394" transform="translate(2203.74, 167.347)" >x4</text>
<text fill="#222222"  xml:space="preserve" font-size="10.394" transform="translate(2100.31, 194.888) rotate(270)" >vdd</text>
<text fill="#222222"  xml:space="preserve" font-size="10.394" transform="translate(2130.76, 255.297)" >vout</text>
<text fill="#222222"  xml:space="preserve" font-size="10.394" transform="translate(2043.83, 225.314)" >vinp</text>
<text fill="#222222"  xml:space="preserve" font-size="10.394" transform="translate(2043.83, 285.28)" >vinn</text>
<text fill="#222222"  xml:space="preserve" font-size="10.394" transform="translate(2140.29, 224.9) rotate(270)" >ibias_20u</text>
<text fill="#222222"  xml:space="preserve" font-size="10.394" transform="translate(2140.29, 325.831) rotate(270)" >d_ena</text>
<text fill="#222222"  xml:space="preserve" font-size="10.394" transform="translate(2100.31, 324.814) rotate(270)" >vss</text>
<text fill="#222222"  xml:space="preserve" font-size="10.394" transform="translate(1119.36, 455.325)" >Itest3</text>
<text fill="#222222"  xml:space="preserve" font-size="10.394" transform="translate(1119.36, 467.246)" >dc 0 ac 0</text>
<text fill="#222222"  xml:space="preserve" font-size="10.394" transform="translate(1160.03, 349.799) rotate(270)" >Vtest2</text>
<text fill="#222222"  xml:space="preserve" font-size="10.394" transform="translate(1185.01, 349.799) rotate(270)" >dc 0 ac 1</text>
<text fill="#222222"  xml:space="preserve" font-size="10.394" transform="translate(1285.53, 428.779) rotate(270)" >Vimeas1</text>
<text fill="#222222"  xml:space="preserve" font-size="10.394" transform="translate(1878.92, 455.325)" >Itest2</text>
<text fill="#222222"  xml:space="preserve" font-size="10.394" transform="translate(1878.92, 467.246)" >dc 0 ac 1</text>
<text fill="#222222"  xml:space="preserve" font-size="10.394" transform="translate(1919.59, 349.799) rotate(270)" >Vtest3</text>
<text fill="#222222"  xml:space="preserve" font-size="10.394" transform="translate(1944.58, 349.799) rotate(270)" >dc 0 ac 0</text>
<text fill="#222222"  xml:space="preserve" font-size="10.394" transform="translate(2045.09, 428.779) rotate(270)" >Vimeas2</text>
<path class="l4" stroke-dasharray="5.59679,5.59679" style="fill:none;" d="M1039.4 589.662L2458.59 589.662L2458.59 1089.38L1039.4 1089.38L1039.4 589.662"/>
<path class="l4" stroke-dasharray="5.59679,5.59679" style="fill:none;" d="M1039.4 29.9828L2458.59 29.9828L2458.59 529.696L1039.4 529.696L1039.4 29.9828"/>
<path class="l4" d="M19.9885 1049.4L89.9484 1049.4"/>
<path class="l4" d="M19.9885 1049.4L19.9885 1069.39"/>
<path class="l4" d="M19.9885 29.9828L89.9484 29.9828"/>
<path class="l4" d="M19.9885 29.9828L19.9885 49.9713"/>
<path class="l4" d="M749.57 729.582L719.587 717.089L719.587 724.585L689.605 724.585L699.599 729.582L689.605 734.579L719.587 734.579L719.587 742.074L749.57 729.582"/>
<path class="l4" d="M749.57 669.616L719.587 657.123L719.587 664.619L689.605 664.619L699.599 669.616L689.605 674.613L719.587 674.613L719.587 682.109L749.57 669.616"/>
<path class="l4" d="M722.086 996.928L727.083 996.928"/>
<path class="l4" d="M724.585 994.43L724.585 999.427"/>
<path class="l4" d="M719.587 989.433L719.587 1049.4"/>
<circle class="l4" cx="719.587" cy="1019.42" r="14.9914" style="fill:none;" />
<path class="l4" d="M719.587 1069.39L719.587 1081.88"/>
<path class="l4" d="M714.59 1081.88L724.585 1081.88"/>
<path class="l4" d="M719.587 1086.88L724.585 1081.88"/>
<path class="l4" d="M714.59 1081.88L719.587 1086.88"/>
<path class="l4" d="M881.994 996.928L886.991 996.928"/>
<path class="l4" d="M884.493 994.43L884.493 999.427"/>
<path class="l4" d="M879.496 989.433L879.496 1049.4"/>
<circle class="l4" cx="879.496" cy="1019.42" r="14.9914" style="fill:none;" />
<path class="l4" d="M879.496 1069.39L879.496 1081.88"/>
<path class="l4" d="M874.499 1081.88L884.493 1081.88"/>
<path class="l4" d="M879.496 1086.88L884.493 1081.88"/>
<path class="l4" d="M874.499 1081.88L879.496 1086.88"/>
<path class="l4" d="M722.086 837.02L727.083 837.02"/>
<path class="l4" d="M724.585 834.521L724.585 839.519"/>
<path class="l4" d="M719.587 829.524L719.587 889.49"/>
<circle class="l4" cx="719.587" cy="859.507" r="14.9914" style="fill:none;" />
<path class="l4" d="M881.994 837.02L886.991 837.02"/>
<path class="l4" d="M884.493 834.521L884.493 839.519"/>
<path class="l4" d="M879.496 829.524L879.496 889.49"/>
<circle class="l4" cx="879.496" cy="859.507" r="14.9914" style="fill:none;" />
<path class="l4" d="M1579.09 904.481L1579.09 929.467"/>
<path class="l4" d="M1579.09 869.501L1579.09 894.487"/>
<path class="l4" d="M1569.1 894.487L1589.09 894.487"/>
<path class="l4" d="M1569.1 904.481L1589.09 904.481"/>
<path class="l4" d="M1581.59 876.997L1586.59 876.997"/>
<path class="l4" d="M1584.09 874.499L1584.09 879.496"/>
<path class="l4" d="M1379.21 649.627L1379.21 664.619"/>
<path class="l4" d="M1379.21 694.602L1379.21 709.593"/>
<path class="l4" d="M1381.71 657.123L1386.7 657.123"/>
<path class="l4" d="M1384.21 654.625L1384.21 659.622"/>
<path class="l4" d="M1379.21 672.115L1379.21 682.109L1381.71 682.109L1379.21 689.605L1376.71 682.109L1379.21 682.109L1379.21 672.115"/>
<circle class="l4" cx="1379.21" cy="679.61" r="14.9914" style="fill:none;" />
<path class="l4" d="M1419.19 809.536L1439.17 809.536"/>
<path class="l4" d="M1259.28 779.553L1279.27 779.553"/>
<path class="l4" d="M1259.28 839.519L1279.27 839.519"/>
<path class="l4" d="M1279.27 749.57L1279.27 869.501"/>
<path class="l4" d="M1279.27 869.501L1419.19 809.536"/>
<path class="l4" d="M1279.27 749.57L1419.19 809.536"/>
<path class="l4" d="M1259.28 729.582L1439.17 729.582"/>
<path class="l4" d="M1439.17 729.582L1439.17 889.49"/>
<path class="l4" d="M1259.28 889.49L1439.17 889.49"/>
<path class="l4" d="M1259.28 729.582L1259.28 889.49"/>
<path class="l4" d="M1186.82 921.971L1186.82 926.968"/>
<path class="l4" d="M1184.32 924.47L1189.32 924.47"/>
<path class="l4" d="M1179.32 929.467L1239.29 929.467"/>
<circle class="l4" cx="1209.31" cy="929.467" r="14.9914" style="fill:none;" />
<path class="l4" d="M2338.66 904.481L2338.66 929.467"/>
<path class="l4" d="M2338.66 869.501L2338.66 894.487"/>
<path class="l4" d="M2328.66 894.487L2348.65 894.487"/>
<path class="l4" d="M2328.66 904.481L2348.65 904.481"/>
<path class="l4" d="M2341.16 876.997L2346.15 876.997"/>
<path class="l4" d="M2343.66 874.499L2343.66 879.496"/>
<path class="l4" d="M2138.77 649.627L2138.77 664.619"/>
<path class="l4" d="M2138.77 694.602L2138.77 709.593"/>
<path class="l4" d="M2141.27 657.123L2146.27 657.123"/>
<path class="l4" d="M2143.77 654.625L2143.77 659.622"/>
<path class="l4" d="M2138.77 672.115L2138.77 682.109L2141.27 682.109L2138.77 689.605L2136.27 682.109L2138.77 682.109L2138.77 672.115"/>
<circle class="l4" cx="2138.77" cy="679.61" r="14.9914" style="fill:none;" />
<path class="l4" d="M2178.75 809.536L2198.74 809.536"/>
<path class="l4" d="M2018.84 779.553L2038.83 779.553"/>
<path class="l4" d="M2018.84 839.519L2038.83 839.519"/>
<path class="l4" d="M2038.83 749.57L2038.83 869.501"/>
<path class="l4" d="M2038.83 869.501L2178.75 809.536"/>
<path class="l4" d="M2038.83 749.57L2178.75 809.536"/>
<path class="l4" d="M2018.84 729.582L2198.74 729.582"/>
<path class="l4" d="M2198.74 729.582L2198.74 889.49"/>
<path class="l4" d="M2018.84 889.49L2198.74 889.49"/>
<path class="l4" d="M2018.84 729.582L2018.84 889.49"/>
<path class="l4" d="M1998.85 929.467L2058.82 929.467"/>
<path class="l4" d="M2018.84 929.467L2028.84 921.971"/>
<path class="l4" d="M2018.84 929.467L2028.84 936.963"/>
<path class="l4" d="M1898.91 929.467L1958.88 929.467"/>
<path class="l4" d="M1918.9 929.467L1928.89 921.971"/>
<path class="l4" d="M1918.9 929.467L1928.89 936.963"/>
<path class="l4" d="M1978.87 1014.42L1978.87 1029.41"/>
<path class="l4" d="M1978.87 969.444L1978.87 984.435"/>
<path class="l4" d="M1971.37 1021.91L1976.37 1021.91"/>
<path class="l4" d="M1973.87 1019.42L1973.87 1024.41"/>
<path class="l4" d="M1978.87 1006.92L1978.87 996.928L1976.37 996.928L1978.87 989.433L1981.36 996.928L1978.87 996.928L1978.87 1006.92"/>
<circle class="l4" cx="1978.87" cy="999.427" r="14.9914" style="fill:none;" />
<path class="l4" d="M1579.09 344.802L1579.09 369.788"/>
<path class="l4" d="M1579.09 309.822L1579.09 334.808"/>
<path class="l4" d="M1569.1 334.808L1589.09 334.808"/>
<path class="l4" d="M1569.1 344.802L1589.09 344.802"/>
<path class="l4" d="M1581.59 317.318L1586.59 317.318"/>
<path class="l4" d="M1584.09 314.819L1584.09 319.817"/>
<path class="l4" d="M1379.21 89.9484L1379.21 104.94"/>
<path class="l4" d="M1379.21 134.923L1379.21 149.914"/>
<path class="l4" d="M1381.71 97.4441L1386.7 97.4441"/>
<path class="l4" d="M1384.21 94.9456L1384.21 99.9427"/>
<path class="l4" d="M1379.21 112.436L1379.21 122.43L1381.71 122.43L1379.21 129.925L1376.71 122.43L1379.21 122.43L1379.21 112.436"/>
<circle class="l4" cx="1379.21" cy="119.931" r="14.9914" style="fill:none;" />
<path class="l4" d="M1419.19 249.857L1439.17 249.857"/>
<path class="l4" d="M1259.28 219.874L1279.27 219.874"/>
<path class="l4" d="M1259.28 279.84L1279.27 279.84"/>
<path class="l4" d="M1279.27 189.891L1279.27 309.822"/>
<path class="l4" d="M1279.27 309.822L1419.19 249.857"/>
<path class="l4" d="M1279.27 189.891L1419.19 249.857"/>
<path class="l4" d="M1259.28 169.903L1439.17 169.903"/>
<path class="l4" d="M1439.17 169.903L1439.17 329.811"/>
<path class="l4" d="M1259.28 329.811L1439.17 329.811"/>
<path class="l4" d="M1259.28 169.903L1259.28 329.811"/>
<path class="l4" d="M2338.66 344.802L2338.66 369.788"/>
<path class="l4" d="M2338.66 309.822L2338.66 334.808"/>
<path class="l4" d="M2328.66 334.808L2348.65 334.808"/>
<path class="l4" d="M2328.66 344.802L2348.65 344.802"/>
<path class="l4" d="M2341.16 317.318L2346.15 317.318"/>
<path class="l4" d="M2343.66 314.819L2343.66 319.817"/>
<path class="l4" d="M2138.77 89.9484L2138.77 104.94"/>
<path class="l4" d="M2138.77 134.923L2138.77 149.914"/>
<path class="l4" d="M2141.27 97.4441L2146.27 97.4441"/>
<path class="l4" d="M2143.77 94.9456L2143.77 99.9427"/>
<path class="l4" d="M2138.77 112.436L2138.77 122.43L2141.27 122.43L2138.77 129.925L2136.27 122.43L2138.77 122.43L2138.77 112.436"/>
<circle class="l4" cx="2138.77" cy="119.931" r="14.9914" style="fill:none;" />
<path class="l4" d="M2178.75 249.857L2198.74 249.857"/>
<path class="l4" d="M2018.84 219.874L2038.83 219.874"/>
<path class="l4" d="M2018.84 279.84L2038.83 279.84"/>
<path class="l4" d="M2038.83 189.891L2038.83 309.822"/>
<path class="l4" d="M2038.83 309.822L2178.75 249.857"/>
<path class="l4" d="M2038.83 189.891L2178.75 249.857"/>
<path class="l4" d="M2018.84 169.903L2198.74 169.903"/>
<path class="l4" d="M2198.74 169.903L2198.74 329.811"/>
<path class="l4" d="M2018.84 329.811L2198.74 329.811"/>
<path class="l4" d="M2018.84 169.903L2018.84 329.811"/>
<path class="l4" d="M1099.37 474.728L1099.37 489.719"/>
<path class="l4" d="M1099.37 429.754L1099.37 444.745"/>
<path class="l4" d="M1101.87 482.223L1106.87 482.223"/>
<path class="l4" d="M1104.37 479.725L1104.37 484.722"/>
<path class="l4" d="M1099.37 467.232L1099.37 457.238L1101.87 457.238L1099.37 449.742L1096.87 457.238L1099.37 457.238L1099.37 467.232"/>
<circle class="l4" cx="1099.37" cy="459.736" r="14.9914" style="fill:none;" />
<path class="l4" d="M1146.84 362.292L1146.84 367.289"/>
<path class="l4" d="M1144.34 364.791L1149.34 364.791"/>
<path class="l4" d="M1139.35 369.788L1199.31 369.788"/>
<circle class="l4" cx="1169.33" cy="369.788" r="14.9914" style="fill:none;" />
<path class="l4" d="M1239.29 369.788L1299.25 369.788"/>
<path class="l4" d="M1259.28 369.788L1269.27 362.292"/>
<path class="l4" d="M1259.28 369.788L1269.27 377.284"/>
<path class="l4" d="M1858.93 474.728L1858.93 489.719"/>
<path class="l4" d="M1858.93 429.754L1858.93 444.745"/>
<path class="l4" d="M1861.43 482.223L1866.43 482.223"/>
<path class="l4" d="M1863.93 479.725L1863.93 484.722"/>
<path class="l4" d="M1858.93 467.232L1858.93 457.238L1861.43 457.238L1858.93 449.742L1856.44 457.238L1858.93 457.238L1858.93 467.232"/>
<circle class="l4" cx="1858.93" cy="459.736" r="14.9914" style="fill:none;" />
<path class="l4" d="M1906.41 362.292L1906.41 367.289"/>
<path class="l4" d="M1903.91 364.791L1908.91 364.791"/>
<path class="l4" d="M1898.91 369.788L1958.88 369.788"/>
<circle class="l4" cx="1928.89" cy="369.788" r="14.9914" style="fill:none;" />
<path class="l4" d="M1998.85 369.788L2058.82 369.788"/>
<path class="l4" d="M2018.84 369.788L2028.84 362.292"/>
<path class="l4" d="M2018.84 369.788L2028.84 377.284"/>
<path class="l5" d="M149.914 1164.33L149.602 1164.64L149.289 1164.96L148.977 1165.27L148.665 1165.58L148.352 1165.89L148.04 1166.21L147.728 1166.52L147.415 1166.83L147.103 1167.14L146.791 1167.46L146.479 1167.77L146.166 1168.08L145.854 1168.39L145.542 1168.7L145.229 1169.02L144.917 1169.33L144.605 1169.64L144.292 1169.95L143.98 1170.27L143.668 1170.58L143.355 1170.89L143.043 1171.2L142.731 1171.52L142.418 1171.83L142.106 1172.14L141.794 1172.45L141.481 1172.77L141.169 1173.08L140.857 1173.39L140.544 1173.7L140.232 1174.01L139.92 1174.33L139.92 1174.33L139.617 1174.64L139.334 1174.95L139.071 1175.26L138.827 1175.58L138.602 1175.89L138.397 1176.2L138.212 1176.51L138.046 1176.83L137.899 1177.14L137.773 1177.45L137.665 1177.76L137.577 1178.07L137.509 1178.39L137.46 1178.7L137.431 1179.01L137.421 1179.32L137.431 1179.64L137.46 1179.95L137.509 1180.26L137.577 1180.57L137.665 1180.89L137.773 1181.2L137.899 1181.51L138.046 1181.82L138.212 1182.13L138.397 1182.45L138.602 1182.76L138.827 1183.07L139.071 1183.38L139.334 1183.7L139.617 1184.01L139.92 1184.32L139.92 1184.32L140.233 1184.63L140.549 1184.95L140.868 1185.27L141.189 1185.59L141.512 1185.91L141.838 1186.24L142.166 1186.57L142.496 1186.9L142.829 1187.23L143.165 1187.57L143.503 1187.9L143.843 1188.24L144.186 1188.59L144.531 1188.93L144.879 1189.28L145.229 1189.63L145.582 1189.98L145.937 1190.34L146.294 1190.7L146.654 1191.06L147.017 1191.42L147.381 1191.78L147.749 1192.15L148.118 1192.52L148.49 1192.89L148.865 1193.27L149.242 1193.64L149.621 1194.02L150.003 1194.4L150.387 1194.79L150.774 1195.18L151.163 1195.56L151.163 1195.56L151.551 1195.95L151.934 1196.34L152.313 1196.71L152.686 1197.09L153.054 1197.46L153.418 1197.82L153.777 1198.18L154.13 1198.53L154.479 1198.88L154.823 1199.22L155.162 1199.56L155.497 1199.9L155.826 1200.23L156.151 1200.55L156.47 1200.87L156.785 1201.19L157.095 1201.5L157.4 1201.8L157.7 1202.1L157.995 1202.4L158.286 1202.69L158.571 1202.97L158.852 1203.25L159.128 1203.53L159.398 1203.8L159.664 1204.07L159.925 1204.33L160.182 1204.58L160.433 1204.83L160.679 1205.08L160.921 1205.32L161.158 1205.56L161.158 1205.56L161.385 1205.79L161.597 1206.01L161.794 1206.23L161.977 1206.44L162.146 1206.64L162.3 1206.83L162.439 1207.02L162.563 1207.2L162.673 1207.37L162.768 1207.54L162.849 1207.69L162.914 1207.84L162.966 1207.99L163.002 1208.12L163.024 1208.25L163.032 1208.37L163.024 1208.48L163.002 1208.59L162.966 1208.69L162.914 1208.78L162.849 1208.86L162.768 1208.94L162.673 1209.01L162.563 1209.07L162.439 1209.13L162.3 1209.17L162.146 1209.22L161.977 1209.25L161.794 1209.27L161.597 1209.29L161.385 1209.3L161.158 1209.31L161.158 1209.31L160.923 1209.31L160.689 1209.31L160.455 1209.31L160.221 1209.31L159.986 1209.31L159.752 1209.31L159.518 1209.31L159.284 1209.31L159.049 1209.31L158.815 1209.31L158.581 1209.31L158.347 1209.31L158.112 1209.31L157.878 1209.31L157.644 1209.31L157.41 1209.31L157.175 1209.31L156.941 1209.31L156.707 1209.31L156.473 1209.31L156.239 1209.31L156.004 1209.31L155.77 1209.31L155.536 1209.31L155.302 1209.31L155.067 1209.31L154.833 1209.31L154.599 1209.31L154.365 1209.31L154.13 1209.31L153.896 1209.31L153.662 1209.31L153.662 1209.31L153.429 1209.31L153.198 1209.31L152.97 1209.31L152.744 1209.31L152.521 1209.31L152.3 1209.31L152.082 1209.31L151.866 1209.31L151.653 1209.31L151.441 1209.31L151.233 1209.31L151.027 1209.31L150.823 1209.31L150.622 1209.31L150.423 1209.31L150.226 1209.31L150.032 1209.31L149.841 1209.31L149.652 1209.31L149.465 1209.31L149.281 1209.31L149.099 1209.31L148.92 1209.31L148.743 1209.31L148.568 1209.31L148.396 1209.31L148.227 1209.31L148.06 1209.31L147.895 1209.31L147.733 1209.31L147.573 1209.31L147.415 1209.31L147.415 1209.31L147.259 1209.3L147.103 1209.3L146.947 1209.28L146.791 1209.27L146.635 1209.25L146.479 1209.22L146.322 1209.19L146.166 1209.15L146.01 1209.11L145.854 1209.06L145.698 1209.01L145.542 1208.96L145.385 1208.89L145.229 1208.83L145.073 1208.76L144.917 1208.68L144.761 1208.6L144.605 1208.52L144.448 1208.43L144.292 1208.33L144.136 1208.23L143.98 1208.13L143.824 1208.02L143.668 1207.9L143.511 1207.78L143.355 1207.66L143.199 1207.53L143.043 1207.39L142.887 1207.25L142.731 1207.11L142.574 1206.96L142.418 1206.81L142.418 1206.81L142.262 1206.65L142.106 1206.5L141.95 1206.34L141.794 1206.18L141.638 1206.03L141.481 1205.87L141.325 1205.71L141.169 1205.56L141.013 1205.4L140.857 1205.25L140.701 1205.09L140.544 1204.93L140.388 1204.78L140.232 1204.62L140.076 1204.47L139.92 1204.31L139.764 1204.15L139.607 1204L139.451 1203.84L139.295 1203.68L139.139 1203.53L138.983 1203.37L138.827 1203.22L138.67 1203.06L138.514 1202.9L138.358 1202.75L138.202 1202.59L138.046 1202.44L137.89 1202.28L137.734 1202.12L137.577 1201.97L137.421 1201.81L137.421 1201.81L137.263 1201.65L137.099 1201.49L136.931 1201.32L136.758 1201.15L136.579 1200.97L136.396 1200.79L136.209 1200.6L136.016 1200.41L135.818 1200.21L135.616 1200.01L135.408 1199.8L135.196 1199.59L134.979 1199.37L134.757 1199.15L134.53 1198.92L134.298 1198.69L134.061 1198.45L133.82 1198.21L133.573 1197.96L133.322 1197.71L133.066 1197.46L132.805 1197.19L132.539 1196.93L132.268 1196.66L131.992 1196.38L131.712 1196.1L131.426 1195.82L131.136 1195.53L130.84 1195.23L130.54 1194.93L130.235 1194.63L129.925 1194.32L129.925 1194.32L129.613 1194.01L129.301 1193.73L128.989 1193.47L128.676 1193.22L128.364 1193L128.052 1192.79L127.739 1192.61L127.427 1192.44L127.115 1192.29L126.802 1192.17L126.49 1192.06L126.178 1191.97L125.865 1191.9L125.553 1191.86L125.241 1191.83L124.928 1191.82L124.616 1191.83L124.304 1191.86L123.991 1191.9L123.679 1191.97L123.367 1192.06L123.054 1192.17L122.742 1192.29L122.43 1192.44L122.117 1192.61L121.805 1192.79L121.493 1193L121.181 1193.22L120.868 1193.47L120.556 1193.73L120.244 1194.01L119.931 1194.32L119.931 1194.32L119.621 1194.63L119.316 1194.93L119.016 1195.23L118.721 1195.53L118.431 1195.82L118.145 1196.1L117.865 1196.38L117.589 1196.66L117.318 1196.93L117.052 1197.19L116.791 1197.46L116.535 1197.71L116.283 1197.96L116.037 1198.21L115.795 1198.45L115.559 1198.69L115.327 1198.92L115.1 1199.15L114.878 1199.37L114.661 1199.59L114.449 1199.8L114.241 1200.01L114.039 1200.21L113.841 1200.41L113.648 1200.6L113.46 1200.79L113.277 1200.97L113.099 1201.15L112.926 1201.32L112.758 1201.49L112.594 1201.65L112.436 1201.81L112.436 1201.81L112.279 1201.97L112.123 1202.12L111.967 1202.28L111.811 1202.44L111.655 1202.59L111.499 1202.75L111.342 1202.9L111.186 1203.06L111.03 1203.22L110.874 1203.37L110.718 1203.53L110.562 1203.68L110.405 1203.84L110.249 1204L110.093 1204.15L109.937 1204.31L109.781 1204.47L109.625 1204.62L109.468 1204.78L109.312 1204.93L109.156 1205.09L109 1205.25L108.844 1205.4L108.688 1205.56L108.532 1205.71L108.375 1205.87L108.219 1206.03L108.063 1206.18L107.907 1206.34L107.751 1206.5L107.595 1206.65L107.438 1206.81L107.438 1206.81L107.282 1206.96L107.126 1207.11L106.97 1207.25L106.814 1207.39L106.658 1207.53L106.501 1207.66L106.345 1207.78L106.189 1207.9L106.033 1208.02L105.877 1208.13L105.721 1208.23L105.564 1208.33L105.408 1208.43L105.252 1208.52L105.096 1208.6L104.94 1208.68L104.784 1208.76L104.628 1208.83L104.471 1208.89L104.315 1208.96L104.159 1209.01L104.003 1209.06L103.847 1209.11L103.691 1209.15L103.534 1209.19L103.378 1209.22L103.222 1209.25L103.066 1209.27L102.91 1209.28L102.754 1209.3L102.597 1209.3L102.441 1209.31L102.441 1209.31L102.284 1209.31L102.124 1209.31L101.962 1209.31L101.797 1209.31L101.63 1209.31L101.46 1209.31L101.288 1209.31L101.114 1209.31L100.937 1209.31L100.758 1209.31L100.576 1209.31L100.392 1209.31L100.205 1209.31L100.016 1209.31L99.8243 1209.31L99.6304 1209.31L99.4339 1209.31L99.2351 1209.31L99.0338 1209.31L98.83 1209.31L98.6239 1209.31L98.4152 1209.31L98.2042 1209.31L97.9907 1209.31L97.7747 1209.31L97.5564 1209.31L97.3355 1209.31L97.1123 1209.31L96.8866 1209.31L96.6584 1209.31L96.4279 1209.31L96.1948 1209.31L96.1948 1209.31L95.9606 1209.31L95.7264 1209.31L95.4921 1209.31L95.2579 1209.31L95.0236 1209.31L94.7894 1209.31L94.5552 1209.31L94.3209 1209.31L94.0867 1209.31L93.8524 1209.31L93.6182 1209.31L93.384 1209.31L93.1497 1209.31L92.9155 1209.31L92.6812 1209.31L92.447 1209.31L92.2127 1209.31L91.9785 1209.31L91.7443 1209.31L91.51 1209.31L91.2758 1209.31L91.0415 1209.31L90.8073 1209.31L90.5731 1209.31L90.3388 1209.31L90.1046 1209.31L89.8703 1209.31L89.6361 1209.31L89.4019 1209.31L89.1676 1209.31L88.9334 1209.31L88.6991 1209.31L88.6991 1209.31L88.4722 1209.3L88.2599 1209.29L88.0623 1209.27L87.8793 1209.25L87.7109 1209.22L87.5572 1209.17L87.4181 1209.13L87.2937 1209.07L87.1839 1209.01L87.0887 1208.94L87.0082 1208.86L86.9423 1208.78L86.8911 1208.69L86.8545 1208.59L86.8325 1208.48L86.8252 1208.37L86.8325 1208.25L86.8545 1208.12L86.8911 1207.99L86.9423 1207.84L87.0082 1207.69L87.0887 1207.54L87.1839 1207.37L87.2937 1207.2L87.4181 1207.02L87.5572 1206.83L87.7109 1206.64L87.8793 1206.44L88.0623 1206.23L88.2599 1206.01L88.4722 1205.79L88.6991 1205.56L88.6991 1205.56L88.9358 1205.32L89.1774 1205.08L89.4238 1204.83L89.6751 1204.58L89.9313 1204.33L90.1924 1204.07L90.4584 1203.8L90.7292 1203.53L91.0049 1203.25L91.2855 1202.97L91.571 1202.69L91.8614 1202.4L92.1566 1202.1L92.4567 1201.8L92.7617 1201.5L93.0716 1201.19L93.3864 1200.87L93.706 1200.55L94.0306 1200.23L94.36 1199.9L94.6942 1199.56L95.0334 1199.22L95.3774 1198.88L95.7264 1198.53L96.0802 1198.18L96.4388 1197.82L96.8024 1197.46L97.1708 1197.09L97.5442 1196.71L97.9224 1196.34L98.3054 1195.95L98.6934 1195.56L98.6934 1195.56L99.0826 1195.18L99.4693 1194.79L99.8536 1194.4L100.235 1194.02L100.615 1193.64L100.992 1193.27L101.366 1192.89L101.739 1192.52L102.108 1192.15L102.475 1191.78L102.84 1191.42L103.203 1191.06L103.562 1190.7L103.92 1190.34L104.275 1189.98L104.628 1189.63L104.978 1189.28L105.325 1188.93L105.671 1188.59L106.013 1188.24L106.354 1187.9L106.692 1187.57L107.027 1187.23L107.36 1186.9L107.691 1186.57L108.019 1186.24L108.345 1185.91L108.668 1185.59L108.989 1185.27L109.307 1184.95L109.623 1184.63L109.937 1184.32L109.937 1184.32L110.24 1184.01L110.523 1183.7L110.786 1183.38L111.03 1183.07L111.255 1182.76L111.46 1182.45L111.645 1182.13L111.811 1181.82L111.957 1181.51L112.084 1181.2L112.192 1180.89L112.279 1180.57L112.348 1180.26L112.396 1179.95L112.426 1179.64L112.436 1179.32L112.426 1179.01L112.396 1178.7L112.348 1178.39L112.279 1178.07L112.192 1177.76L112.084 1177.45L111.957 1177.14L111.811 1176.83L111.645 1176.51L111.46 1176.2L111.255 1175.89L111.03 1175.58L110.786 1175.26L110.523 1174.95L110.24 1174.64L109.937 1174.33L109.937 1174.33L109.623 1174.01L109.307 1173.7L108.989 1173.38L108.668 1173.06L108.345 1172.73L108.019 1172.41L107.691 1172.08L107.36 1171.75L107.027 1171.42L106.692 1171.08L106.354 1170.74L106.013 1170.4L105.671 1170.06L105.325 1169.71L104.978 1169.37L104.628 1169.02L104.275 1168.66L103.92 1168.31L103.562 1167.95L103.203 1167.59L102.84 1167.23L102.475 1166.87L102.108 1166.5L101.739 1166.13L101.366 1165.76L100.992 1165.38L100.615 1165L100.235 1164.63L99.8536 1164.24L99.4693 1163.86L99.0826 1163.47L98.6934 1163.08L98.6934 1163.08L98.3054 1162.7L97.9224 1162.31L97.5442 1161.93L97.1708 1161.56L96.8024 1161.19L96.4388 1160.83L96.0802 1160.47L95.7264 1160.12L95.3774 1159.77L95.0334 1159.42L94.6942 1159.08L94.36 1158.75L94.0306 1158.42L93.706 1158.1L93.3864 1157.78L93.0716 1157.46L92.7617 1157.15L92.4567 1156.85L92.1566 1156.55L91.8614 1156.25L91.571 1155.96L91.2855 1155.68L91.0049 1155.39L90.7292 1155.12L90.4584 1154.85L90.1924 1154.58L89.9313 1154.32L89.6751 1154.06L89.4238 1153.81L89.1774 1153.57L88.9358 1153.33L88.6991 1153.09L88.6991 1153.09L88.4722 1152.86L88.2599 1152.63L88.0623 1152.42L87.8793 1152.21L87.7109 1152.01L87.5572 1151.82L87.4181 1151.63L87.2937 1151.45L87.1839 1151.28L87.0887 1151.11L87.0082 1150.95L86.9423 1150.8L86.8911 1150.66L86.8545 1150.53L86.8325 1150.4L86.8252 1150.28L86.8325 1150.16L86.8545 1150.06L86.8911 1149.96L86.9423 1149.87L87.0082 1149.78L87.0887 1149.71L87.1839 1149.64L87.2937 1149.58L87.4181 1149.52L87.5572 1149.47L87.7109 1149.43L87.8793 1149.4L88.0623 1149.37L88.2599 1149.36L88.4722 1149.34L88.6991 1149.34L88.6991 1149.34L88.9334 1149.34L89.1676 1149.34L89.4019 1149.34L89.6361 1149.34L89.8703 1149.34L90.1046 1149.34L90.3388 1149.34L90.5731 1149.34L90.8073 1149.34L91.0415 1149.34L91.2758 1149.34L91.51 1149.34L91.7443 1149.34L91.9785 1149.34L92.2127 1149.34L92.447 1149.34L92.6812 1149.34L92.9155 1149.34L93.1497 1149.34L93.384 1149.34L93.6182 1149.34L93.8524 1149.34L94.0867 1149.34L94.3209 1149.34L94.5552 1149.34L94.7894 1149.34L95.0236 1149.34L95.2579 1149.34L95.4921 1149.34L95.7264 1149.34L95.9606 1149.34L96.1948 1149.34L96.1948 1149.34L96.4279 1149.34L96.6584 1149.34L96.8866 1149.34L97.1123 1149.34L97.3355 1149.34L97.5564 1149.34L97.7747 1149.34L97.9907 1149.34L98.2042 1149.34L98.4152 1149.34L98.6239 1149.34L98.83 1149.34L99.0338 1149.34L99.2351 1149.34L99.4339 1149.34L99.6304 1149.34L99.8243 1149.34L100.016 1149.34L100.205 1149.34L100.392 1149.34L100.576 1149.34L100.758 1149.34L100.937 1149.34L101.114 1149.34L101.288 1149.34L101.46 1149.34L101.63 1149.34L101.797 1149.34L101.962 1149.34L102.124 1149.34L102.284 1149.34L102.441 1149.34L102.441 1149.34L102.597 1149.34L102.754 1149.35L102.91 1149.36L103.066 1149.38L103.222 1149.4L103.378 1149.43L103.534 1149.46L103.691 1149.5L103.847 1149.54L104.003 1149.58L104.159 1149.64L104.315 1149.69L104.471 1149.75L104.628 1149.82L104.784 1149.89L104.94 1149.97L105.096 1150.05L105.252 1150.13L105.408 1150.22L105.564 1150.32L105.721 1150.42L105.877 1150.52L106.033 1150.63L106.189 1150.75L106.345 1150.87L106.501 1150.99L106.658 1151.12L106.814 1151.25L106.97 1151.39L107.126 1151.54L107.282 1151.69L107.438 1151.84L107.438 1151.84L107.595 1152L107.751 1152.15L107.907 1152.31L108.063 1152.46L108.219 1152.62L108.375 1152.78L108.532 1152.93L108.688 1153.09L108.844 1153.24L109 1153.4L109.156 1153.56L109.312 1153.71L109.468 1153.87L109.625 1154.03L109.781 1154.18L109.937 1154.34L110.093 1154.49L110.249 1154.65L110.405 1154.81L110.562 1154.96L110.718 1155.12L110.874 1155.28L111.03 1155.43L111.186 1155.59L111.342 1155.74L111.499 1155.9L111.655 1156.06L111.811 1156.21L111.967 1156.37L112.123 1156.52L112.279 1156.68L112.436 1156.84L112.436 1156.84L112.594 1157L112.758 1157.16L112.926 1157.33L113.099 1157.5L113.277 1157.68L113.46 1157.86L113.648 1158.05L113.841 1158.24L114.039 1158.44L114.241 1158.64L114.449 1158.85L114.661 1159.06L114.878 1159.28L115.1 1159.5L115.327 1159.73L115.559 1159.96L115.795 1160.2L116.037 1160.44L116.283 1160.68L116.535 1160.94L116.791 1161.19L117.052 1161.45L117.318 1161.72L117.589 1161.99L117.865 1162.27L118.145 1162.55L118.431 1162.83L118.721 1163.12L119.016 1163.42L119.316 1163.72L119.621 1164.02L119.931 1164.33L119.931 1164.33L120.244 1164.63L120.556 1164.92L120.868 1165.18L121.181 1165.43L121.493 1165.65L121.805 1165.85L122.117 1166.04L122.43 1166.21L122.742 1166.35L123.054 1166.48L123.367 1166.59L123.679 1166.67L123.991 1166.74L124.304 1166.79L124.616 1166.82L124.928 1166.83L125.241 1166.82L125.553 1166.79L125.865 1166.74L126.178 1166.67L126.49 1166.59L126.802 1166.48L127.115 1166.35L127.427 1166.21L127.739 1166.04L128.052 1165.85L128.364 1165.65L128.676 1165.43L128.989 1165.18L129.301 1164.92L129.613 1164.63L129.925 1164.33L129.925 1164.33L130.235 1164.02L130.54 1163.72L130.84 1163.42L131.136 1163.12L131.426 1162.83L131.712 1162.55L131.992 1162.27L132.268 1161.99L132.539 1161.72L132.805 1161.45L133.066 1161.19L133.322 1160.94L133.573 1160.68L133.82 1160.44L134.061 1160.2L134.298 1159.96L134.53 1159.73L134.757 1159.5L134.979 1159.28L135.196 1159.06L135.408 1158.85L135.616 1158.64L135.818 1158.44L136.016 1158.24L136.209 1158.05L136.396 1157.86L136.579 1157.68L136.758 1157.5L136.931 1157.33L137.099 1157.16L137.263 1157L137.421 1156.84L137.421 1156.84L137.577 1156.68L137.734 1156.52L137.89 1156.37L138.046 1156.21L138.202 1156.06L138.358 1155.9L138.514 1155.74L138.67 1155.59L138.827 1155.43L138.983 1155.28L139.139 1155.12L139.295 1154.96L139.451 1154.81L139.607 1154.65L139.764 1154.49L139.92 1154.34L140.076 1154.18L140.232 1154.03L140.388 1153.87L140.544 1153.71L140.701 1153.56L140.857 1153.4L141.013 1153.24L141.169 1153.09L141.325 1152.93L141.481 1152.78L141.638 1152.62L141.794 1152.46L141.95 1152.31L142.106 1152.15L142.262 1152L142.418 1151.84L142.418 1151.84L142.574 1151.69L142.731 1151.54L142.887 1151.39L143.043 1151.25L143.199 1151.12L143.355 1150.99L143.511 1150.87L143.668 1150.75L143.824 1150.63L143.98 1150.52L144.136 1150.42L144.292 1150.32L144.448 1150.22L144.605 1150.13L144.761 1150.05L144.917 1149.97L145.073 1149.89L145.229 1149.82L145.385 1149.75L145.542 1149.69L145.698 1149.64L145.854 1149.58L146.01 1149.54L146.166 1149.5L146.322 1149.46L146.479 1149.43L146.635 1149.4L146.791 1149.38L146.947 1149.36L147.103 1149.35L147.259 1149.34L147.415 1149.34L147.415 1149.34L147.573 1149.34L147.733 1149.34L147.895 1149.34L148.06 1149.34L148.227 1149.34L148.396 1149.34L148.568 1149.34L148.743 1149.34L148.92 1149.34L149.099 1149.34L149.281 1149.34L149.465 1149.34L149.652 1149.34L149.841 1149.34L150.032 1149.34L150.226 1149.34L150.423 1149.34L150.622 1149.34L150.823 1149.34L151.027 1149.34L151.233 1149.34L151.441 1149.34L151.653 1149.34L151.866 1149.34L152.082 1149.34L152.3 1149.34L152.521 1149.34L152.744 1149.34L152.97 1149.34L153.198 1149.34L153.429 1149.34L153.662 1149.34L153.662 1149.34L153.896 1149.34L154.13 1149.34L154.365 1149.34L154.599 1149.34L154.833 1149.34L155.067 1149.34L155.302 1149.34L155.536 1149.34L155.77 1149.34L156.004 1149.34L156.239 1149.34L156.473 1149.34L156.707 1149.34L156.941 1149.34L157.175 1149.34L157.41 1149.34L157.644 1149.34L157.878 1149.34L158.112 1149.34L158.347 1149.34L158.581 1149.34L158.815 1149.34L159.049 1149.34L159.284 1149.34L159.518 1149.34L159.752 1149.34L159.986 1149.34L160.221 1149.34L160.455 1149.34L160.689 1149.34L160.923 1149.34L161.158 1149.34L161.158 1149.34L161.385 1149.34L161.597 1149.36L161.794 1149.37L161.977 1149.4L162.146 1149.43L162.3 1149.47L162.439 1149.52L162.563 1149.58L162.673 1149.64L162.768 1149.71L162.849 1149.78L162.914 1149.87L162.966 1149.96L163.002 1150.06L163.024 1150.16L163.032 1150.28L163.024 1150.4L163.002 1150.53L162.966 1150.66L162.914 1150.8L162.849 1150.95L162.768 1151.11L162.673 1151.28L162.563 1151.45L162.439 1151.63L162.3 1151.82L162.146 1152.01L161.977 1152.21L161.794 1152.42L161.597 1152.63L161.385 1152.86L161.158 1153.09L161.158 1153.09L160.92 1153.33L160.674 1153.57L160.422 1153.82L160.162 1154.08L159.895 1154.35L159.62 1154.63L159.339 1154.91L159.049 1155.2L158.753 1155.49L158.449 1155.8L158.138 1156.11L157.82 1156.43L157.494 1156.75L157.161 1157.09L156.82 1157.43L156.473 1157.77L156.118 1158.13L155.755 1158.49L155.386 1158.86L155.009 1159.24L154.624 1159.62L154.233 1160.01L153.834 1160.41L153.428 1160.82L153.014 1161.23L152.593 1161.65L152.165 1162.08L151.729 1162.52L151.287 1162.96L150.836 1163.41L150.379 1163.87L149.914 1164.33"/>
<path class="l5" d="M717.089 986.934L722.086 986.934L722.086 991.931L717.089 991.931L717.089 986.934z"/>
<path class="l5" d="M717.089 1046.9L722.086 1046.9L722.086 1051.9L717.089 1051.9L717.089 1046.9z"/>
<path class="l5" d="M717.089 1066.89L722.086 1066.89L722.086 1071.89L717.089 1071.89L717.089 1066.89z"/>
<path class="l5" d="M718.338 968.195L720.837 968.195L720.837 970.693L718.338 970.693L718.338 968.195z"/>
<path class="l5" d="M876.997 986.934L881.994 986.934L881.994 991.931L876.997 991.931L876.997 986.934z"/>
<path class="l5" d="M876.997 1046.9L881.994 1046.9L881.994 1051.9L876.997 1051.9L876.997 1046.9z"/>
<path class="l5" d="M876.997 1066.89L881.994 1066.89L881.994 1071.89L876.997 1071.89L876.997 1066.89z"/>
<path class="l5" d="M878.246 968.195L880.745 968.195L880.745 970.693L878.246 970.693L878.246 968.195z"/>
<path class="l5" d="M717.089 827.026L722.086 827.026L722.086 832.023L717.089 832.023L717.089 827.026z"/>
<path class="l5" d="M717.089 886.991L722.086 886.991L722.086 891.989L717.089 891.989L717.089 886.991z"/>
<path class="l5" d="M718.338 808.287L720.837 808.287L720.837 810.785L718.338 810.785L718.338 808.287z"/>
<path class="l5" d="M876.997 827.026L881.994 827.026L881.994 832.023L876.997 832.023L876.997 827.026z"/>
<path class="l5" d="M876.997 886.991L881.994 886.991L881.994 891.989L876.997 891.989L876.997 886.991z"/>
<path class="l5" d="M878.246 808.287L880.745 808.287L880.745 810.785L878.246 810.785L878.246 808.287z"/>
<path class="l5" d="M1337.98 628.39L1340.48 628.39L1340.48 630.888L1337.98 630.888L1337.98 628.39z"/>
<path class="l5" d="M1337.98 988.183L1340.48 988.183L1340.48 990.682L1337.98 990.682L1337.98 988.183z"/>
<path class="l5" d="M1576.6 867.003L1581.59 867.003L1581.59 872L1576.6 872L1576.6 867.003z"/>
<path class="l5" d="M1576.6 926.968L1581.59 926.968L1581.59 931.966L1576.6 931.966L1576.6 926.968z"/>
<path class="l5" d="M1098.12 778.304L1100.62 778.304L1100.62 780.802L1098.12 780.802L1098.12 778.304z"/>
<path class="l5" d="M1376.71 647.129L1381.71 647.129L1381.71 652.126L1376.71 652.126L1376.71 647.129z"/>
<path class="l5" d="M1376.71 707.095L1381.71 707.095L1381.71 712.092L1376.71 712.092L1376.71 707.095z"/>
<path class="l5" d="M1377.96 908.229L1380.46 908.229L1380.46 910.728L1377.96 910.728L1377.96 908.229z"/>
<path class="l5" d="M718.338 908.229L720.837 908.229L720.837 910.728L718.338 910.728L718.338 908.229z"/>
<path class="l5" d="M878.246 908.229L880.745 908.229L880.745 910.728L878.246 910.728L878.246 908.229z"/>
<path class="l5" d="M1336.73 727.083L1341.73 727.083L1341.73 732.08L1336.73 732.08L1336.73 727.083z"/>
<path class="l5" d="M1436.68 807.037L1441.67 807.037L1441.67 812.034L1436.68 812.034L1436.68 807.037z"/>
<path class="l5" d="M1256.78 777.054L1261.78 777.054L1261.78 782.052L1256.78 782.052L1256.78 777.054z"/>
<path class="l5" d="M1256.78 837.02L1261.78 837.02L1261.78 842.017L1256.78 842.017L1256.78 837.02z"/>
<path class="l5" d="M1376.71 727.083L1381.71 727.083L1381.71 732.08L1376.71 732.08L1376.71 727.083z"/>
<path class="l5" d="M1376.71 886.991L1381.71 886.991L1381.71 891.989L1376.71 891.989L1376.71 886.991z"/>
<path class="l5" d="M1336.73 886.991L1341.73 886.991L1341.73 891.989L1336.73 891.989L1336.73 886.991z"/>
<path class="l5" d="M1176.83 926.968L1181.82 926.968L1181.82 931.966L1176.83 931.966L1176.83 926.968z"/>
<path class="l5" d="M1236.79 926.968L1241.79 926.968L1241.79 931.966L1236.79 931.966L1236.79 926.968z"/>
<path class="l5" d="M1138.1 928.218L1140.6 928.218L1140.6 930.716L1138.1 930.716L1138.1 928.218z"/>
<path class="l7" d="M1288.01 928.218L1290.51 928.218L1290.51 930.716L1288.01 930.716L1288.01 928.218z"/>
<path class="l5" d="M2097.55 628.39L2100.05 628.39L2100.05 630.888L2097.55 630.888L2097.55 628.39z"/>
<path class="l5" d="M2097.55 988.183L2100.05 988.183L2100.05 990.682L2097.55 990.682L2097.55 988.183z"/>
<path class="l5" d="M2336.16 867.003L2341.16 867.003L2341.16 872L2336.16 872L2336.16 867.003z"/>
<path class="l5" d="M2336.16 926.968L2341.16 926.968L2341.16 931.966L2336.16 931.966L2336.16 926.968z"/>
<path class="l5" d="M1857.68 778.304L1860.18 778.304L1860.18 780.802L1857.68 780.802L1857.68 778.304z"/>
<path class="l5" d="M2136.27 647.129L2141.27 647.129L2141.27 652.126L2136.27 652.126L2136.27 647.129z"/>
<path class="l5" d="M2136.27 707.095L2141.27 707.095L2141.27 712.092L2136.27 712.092L2136.27 707.095z"/>
<path class="l5" d="M2137.52 908.229L2140.02 908.229L2140.02 910.728L2137.52 910.728L2137.52 908.229z"/>
<path class="l5" d="M2096.3 727.083L2101.3 727.083L2101.3 732.08L2096.3 732.08L2096.3 727.083z"/>
<path class="l5" d="M2196.24 807.037L2201.24 807.037L2201.24 812.034L2196.24 812.034L2196.24 807.037z"/>
<path class="l5" d="M2016.34 777.054L2021.34 777.054L2021.34 782.052L2016.34 782.052L2016.34 777.054z"/>
<path class="l5" d="M2016.34 837.02L2021.34 837.02L2021.34 842.017L2016.34 842.017L2016.34 837.02z"/>
<path class="l5" d="M2136.27 727.083L2141.27 727.083L2141.27 732.08L2136.27 732.08L2136.27 727.083z"/>
<path class="l5" d="M2136.27 886.991L2141.27 886.991L2141.27 891.989L2136.27 891.989L2136.27 886.991z"/>
<path class="l5" d="M2096.3 886.991L2101.3 886.991L2101.3 891.989L2096.3 891.989L2096.3 886.991z"/>
<path class="l5" d="M2056.32 926.968L2061.32 926.968L2061.32 931.966L2056.32 931.966L2056.32 926.968z"/>
<path class="l5" d="M1996.36 926.968L2001.35 926.968L2001.35 931.966L1996.36 931.966L1996.36 926.968z"/>
<path class="l5" d="M1956.38 926.968L1961.38 926.968L1961.38 931.966L1956.38 931.966L1956.38 926.968z"/>
<path class="l5" d="M1896.41 926.968L1901.41 926.968L1901.41 931.966L1896.41 931.966L1896.41 926.968z"/>
<path class="l5" d="M1976.37 1026.91L1981.36 1026.91L1981.36 1031.91L1976.37 1031.91L1976.37 1026.91z"/>
<path class="l5" d="M1976.37 966.946L1981.36 966.946L1981.36 971.943L1976.37 971.943L1976.37 966.946z"/>
<path class="l5" d="M1337.98 68.7106L1340.48 68.7106L1340.48 71.2092L1337.98 71.2092L1337.98 68.7106z"/>
<path class="l5" d="M1337.98 428.504L1340.48 428.504L1340.48 431.003L1337.98 431.003L1337.98 428.504z"/>
<path class="l5" d="M1576.6 307.324L1581.59 307.324L1581.59 312.321L1576.6 312.321L1576.6 307.324z"/>
<path class="l5" d="M1576.6 367.289L1581.59 367.289L1581.59 372.287L1576.6 372.287L1576.6 367.289z"/>
<path class="l5" d="M1098.12 218.625L1100.62 218.625L1100.62 221.123L1098.12 221.123L1098.12 218.625z"/>
<path class="l5" d="M1376.71 87.4499L1381.71 87.4499L1381.71 92.447L1376.71 92.447L1376.71 87.4499z"/>
<path class="l5" d="M1376.71 147.415L1381.71 147.415L1381.71 152.413L1376.71 152.413L1376.71 147.415z"/>
<path class="l5" d="M1377.96 348.55L1380.46 348.55L1380.46 351.049L1377.96 351.049L1377.96 348.55z"/>
<path class="l5" d="M1336.73 167.404L1341.73 167.404L1341.73 172.401L1336.73 172.401L1336.73 167.404z"/>
<path class="l5" d="M1436.68 247.358L1441.67 247.358L1441.67 252.355L1436.68 252.355L1436.68 247.358z"/>
<path class="l5" d="M1256.78 217.375L1261.78 217.375L1261.78 222.372L1256.78 222.372L1256.78 217.375z"/>
<path class="l5" d="M1256.78 277.341L1261.78 277.341L1261.78 282.338L1256.78 282.338L1256.78 277.341z"/>
<path class="l5" d="M1376.71 167.404L1381.71 167.404L1381.71 172.401L1376.71 172.401L1376.71 167.404z"/>
<path class="l5" d="M1376.71 327.312L1381.71 327.312L1381.71 332.309L1376.71 332.309L1376.71 327.312z"/>
<path class="l5" d="M1336.73 327.312L1341.73 327.312L1341.73 332.309L1336.73 332.309L1336.73 327.312z"/>
<path class="l5" d="M2097.55 68.7106L2100.05 68.7106L2100.05 71.2092L2097.55 71.2092L2097.55 68.7106z"/>
<path class="l5" d="M2097.55 428.504L2100.05 428.504L2100.05 431.003L2097.55 431.003L2097.55 428.504z"/>
<path class="l5" d="M2336.16 307.324L2341.16 307.324L2341.16 312.321L2336.16 312.321L2336.16 307.324z"/>
<path class="l5" d="M2336.16 367.289L2341.16 367.289L2341.16 372.287L2336.16 372.287L2336.16 367.289z"/>
<path class="l5" d="M1857.68 218.625L1860.18 218.625L1860.18 221.123L1857.68 221.123L1857.68 218.625z"/>
<path class="l5" d="M2136.27 87.4499L2141.27 87.4499L2141.27 92.447L2136.27 92.447L2136.27 87.4499z"/>
<path class="l5" d="M2136.27 147.415L2141.27 147.415L2141.27 152.413L2136.27 152.413L2136.27 147.415z"/>
<path class="l5" d="M2137.52 348.55L2140.02 348.55L2140.02 351.049L2137.52 351.049L2137.52 348.55z"/>
<path class="l5" d="M2096.3 167.404L2101.3 167.404L2101.3 172.401L2096.3 172.401L2096.3 167.404z"/>
<path class="l5" d="M2196.24 247.358L2201.24 247.358L2201.24 252.355L2196.24 252.355L2196.24 247.358z"/>
<path class="l5" d="M2016.34 217.375L2021.34 217.375L2021.34 222.372L2016.34 222.372L2016.34 217.375z"/>
<path class="l5" d="M2016.34 277.341L2021.34 277.341L2021.34 282.338L2016.34 282.338L2016.34 277.341z"/>
<path class="l5" d="M2136.27 167.404L2141.27 167.404L2141.27 172.401L2136.27 172.401L2136.27 167.404z"/>
<path class="l5" d="M2136.27 327.312L2141.27 327.312L2141.27 332.309L2136.27 332.309L2136.27 327.312z"/>
<path class="l5" d="M2096.3 327.312L2101.3 327.312L2101.3 332.309L2096.3 332.309L2096.3 327.312z"/>
<path class="l5" d="M1096.87 487.221L1101.87 487.221L1101.87 492.218L1096.87 492.218L1096.87 487.221z"/>
<path class="l5" d="M1096.87 427.255L1101.87 427.255L1101.87 432.252L1096.87 432.252L1096.87 427.255z"/>
<path class="l5" d="M1136.85 367.289L1141.85 367.289L1141.85 372.287L1136.85 372.287L1136.85 367.289z"/>
<path class="l5" d="M1196.81 367.289L1201.81 367.289L1201.81 372.287L1196.81 372.287L1196.81 367.289z"/>
<path class="l5" d="M1138.1 408.516L1140.6 408.516L1140.6 411.014L1138.1 411.014L1138.1 408.516z"/>
<path class="l5" d="M1296.76 367.289L1301.75 367.289L1301.75 372.287L1296.76 372.287L1296.76 367.289z"/>
<path class="l5" d="M1236.79 367.289L1241.79 367.289L1241.79 372.287L1236.79 372.287L1236.79 367.289z"/>
<path class="l5" d="M1856.44 487.221L1861.43 487.221L1861.43 492.218L1856.44 492.218L1856.44 487.221z"/>
<path class="l5" d="M1856.44 427.255L1861.43 427.255L1861.43 432.252L1856.44 432.252L1856.44 427.255z"/>
<path class="l5" d="M1896.41 367.289L1901.41 367.289L1901.41 372.287L1896.41 372.287L1896.41 367.289z"/>
<path class="l5" d="M1956.38 367.289L1961.38 367.289L1961.38 372.287L1956.38 372.287L1956.38 367.289z"/>
<path class="l5" d="M1897.66 408.516L1900.16 408.516L1900.16 411.014L1897.66 411.014L1897.66 408.516z"/>
<path class="l5" d="M2056.32 367.289L2061.32 367.289L2061.32 372.287L2056.32 372.287L2056.32 367.289z"/>
<path class="l5" d="M1996.36 367.289L2001.35 367.289L2001.35 372.287L1996.36 372.287L1996.36 367.289z"/>
<path class="l6" d="M384.779 1179.32L1179.32 1179.32"/>
<path class="l6" d="M0 1179.32L64.9627 1179.32"/>
<path class="l1" d="M719.587 1049.4L719.587 1069.39"/>
<path class="l1" d="M879.496 1049.4L879.496 1069.39"/>
<path class="l1" d="M879.496 889.49L879.496 909.478"/>
<path class="l7" d="M1499.14 809.536L1579.09 809.536"/>
<path class="l1" d="M1379.21 629.639L1379.21 649.627"/>
<path class="l1" d="M1339.23 629.639L1379.21 629.639"/>
<path class="l1" d="M1339.23 629.639L1339.23 729.582"/>
<path class="l1" d="M1379.21 709.593L1379.21 729.582"/>
<path class="l1" d="M1099.37 839.519L1259.28 839.519"/>
<path class="l1" d="M1099.37 839.519L1099.37 929.467"/>
<path class="l1" d="M1379.21 889.49L1379.21 909.478"/>
<path class="l1" d="M719.587 969.444L719.587 989.433"/>
<path class="l1" d="M879.496 969.444L879.496 989.433"/>
<path class="l1" d="M719.587 889.49L719.587 909.478"/>
<path class="l1" d="M719.587 809.536L719.587 829.524"/>
<path class="l1" d="M879.496 809.536L879.496 829.524"/>
<path class="l1" d="M1339.23 889.49L1339.23 989.433"/>
<path class="l7" d="M1579.09 809.536L1579.09 869.501"/>
<path class="l1" d="M1579.09 929.467L1579.09 989.433"/>
<path class="l1" d="M1339.23 989.433L1579.09 989.433"/>
<path class="l7" d="M1499.14 809.536L1499.14 929.467"/>
<path class="l7" d="M1439.17 809.536L1499.14 809.536"/>
<path class="l1" d="M1099.37 779.553L1259.28 779.553"/>
<path class="l7" d="M1239.29 929.467L1499.14 929.467"/>
<path class="l1" d="M1099.37 929.467L1179.32 929.467"/>
<path class="l1" d="M2258.7 809.536L2338.66 809.536"/>
<path class="l1" d="M2138.77 629.639L2138.77 649.627"/>
<path class="l1" d="M2098.8 629.639L2138.77 629.639"/>
<path class="l1" d="M2098.8 629.639L2098.8 729.582"/>
<path class="l1" d="M2138.77 709.593L2138.77 729.582"/>
<path class="l1" d="M1858.93 839.519L2018.84 839.519"/>
<path class="l1" d="M1858.93 839.519L1858.93 929.467"/>
<path class="l1" d="M2138.77 889.49L2138.77 909.478"/>
<path class="l1" d="M2098.8 889.49L2098.8 989.433"/>
<path class="l1" d="M2338.66 809.536L2338.66 869.501"/>
<path class="l1" d="M2338.66 929.467L2338.66 989.433"/>
<path class="l1" d="M2098.8 989.433L2338.66 989.433"/>
<path class="l1" d="M2258.7 809.536L2258.7 929.467"/>
<path class="l1" d="M2198.74 809.536L2258.7 809.536"/>
<path class="l1" d="M1858.93 779.553L2018.84 779.553"/>
<path class="l1" d="M1978.87 929.467L1998.85 929.467"/>
<path class="l1" d="M2098.8 989.433L2098.8 1049.4"/>
<path class="l1" d="M1978.87 929.467L1978.87 969.444"/>
<path class="l1" d="M1958.88 929.467L1978.87 929.467"/>
<path class="l1" d="M2058.82 929.467L2258.7 929.467"/>
<path class="l1" d="M1858.93 929.467L1898.91 929.467"/>
<path class="l1" d="M1978.87 1029.41L1978.87 1049.4"/>
<path class="l1" d="M1978.87 1049.4L2098.8 1049.4"/>
<path class="l1" d="M1499.14 249.857L1579.09 249.857"/>
<path class="l1" d="M1379.21 69.9599L1379.21 89.9484"/>
<path class="l1" d="M1339.23 69.9599L1379.21 69.9599"/>
<path class="l1" d="M1339.23 69.9599L1339.23 169.903"/>
<path class="l1" d="M1379.21 149.914L1379.21 169.903"/>
<path class="l1" d="M1099.37 279.84L1259.28 279.84"/>
<path class="l1" d="M1379.21 329.811L1379.21 349.799"/>
<path class="l1" d="M1339.23 329.811L1339.23 429.754"/>
<path class="l1" d="M1579.09 249.857L1579.09 309.822"/>
<path class="l1" d="M1579.09 369.788L1579.09 429.754"/>
<path class="l1" d="M1339.23 429.754L1579.09 429.754"/>
<path class="l1" d="M1499.14 249.857L1499.14 369.788"/>
<path class="l1" d="M1439.17 249.857L1499.14 249.857"/>
<path class="l1" d="M1099.37 219.874L1259.28 219.874"/>
<path class="l1" d="M2258.7 249.857L2338.66 249.857"/>
<path class="l1" d="M2138.77 69.9599L2138.77 89.9484"/>
<path class="l1" d="M2098.8 69.9599L2138.77 69.9599"/>
<path class="l1" d="M2098.8 69.9599L2098.8 169.903"/>
<path class="l1" d="M2138.77 149.914L2138.77 169.903"/>
<path class="l1" d="M1858.93 279.84L2018.84 279.84"/>
<path class="l1" d="M1858.93 279.84L1858.93 369.788"/>
<path class="l1" d="M2138.77 329.811L2138.77 349.799"/>
<path class="l1" d="M2098.8 329.811L2098.8 429.754"/>
<path class="l1" d="M2338.66 249.857L2338.66 309.822"/>
<path class="l1" d="M2338.66 369.788L2338.66 429.754"/>
<path class="l1" d="M2098.8 429.754L2338.66 429.754"/>
<path class="l1" d="M2258.7 249.857L2258.7 369.788"/>
<path class="l1" d="M2198.74 249.857L2258.7 249.857"/>
<path class="l1" d="M1858.93 219.874L2018.84 219.874"/>
<path class="l1" d="M2098.8 429.754L2098.8 509.708"/>
<path class="l1" d="M2058.82 369.788L2258.7 369.788"/>
<path class="l1" d="M1099.37 479.725L1099.37 509.708"/>
<path class="l1" d="M1199.31 369.788L1239.29 369.788"/>
<path class="l1" d="M1299.25 369.788L1499.14 369.788"/>
<path class="l1" d="M1099.37 369.788L1139.35 369.788"/>
<path class="l1" d="M1099.37 279.84L1099.37 369.788"/>
<path class="l1" d="M1099.37 409.765L1139.35 409.765"/>
<path class="l1" d="M1099.37 369.788L1099.37 409.765"/>
<path class="l1" d="M1099.37 409.765L1099.37 429.754"/>
<path class="l1" d="M1099.37 509.708L1339.23 509.708"/>
<path class="l1" d="M1339.23 429.754L1339.23 509.708"/>
<path class="l1" d="M1958.88 369.788L1998.85 369.788"/>
<path class="l1" d="M1858.93 369.788L1898.91 369.788"/>
<path class="l1" d="M1858.93 489.719L1858.93 509.708"/>
<path class="l1" d="M1858.93 509.708L2098.8 509.708"/>
<path class="l1" d="M1858.93 409.765L1858.93 429.754"/>
<path class="l1" d="M1858.93 409.765L1898.91 409.765"/>
<path class="l1" d="M1858.93 369.788L1858.93 409.765"/>
<circle class="l1" cx="1099.37" cy="369.788" r="3.69788"/>
<circle class="l1" cx="1099.37" cy="409.765" r="3.69788"/>
<circle class="l1" cx="1099.37" cy="369.788" r="3.69788"/>
<circle class="l1" cx="1099.37" cy="369.788" r="3.69788"/>
<circle class="l1" cx="1099.37" cy="409.765" r="3.69788"/>
<circle class="l1" cx="1099.37" cy="409.765" r="3.69788"/>
<circle class="l1" cx="1499.14" cy="249.857" r="3.69788"/>
<circle class="l1" cx="1499.14" cy="249.857" r="3.69788"/>
<circle class="l1" cx="1339.23" cy="429.754" r="3.69788"/>
<circle class="l1" cx="1499.14" cy="249.857" r="3.69788"/>
<circle class="l1" cx="1339.23" cy="429.754" r="3.69788"/>
<circle class="l1" cx="1339.23" cy="429.754" r="3.69788"/>
<circle class="l7" cx="1499.14" cy="809.536" r="3.69788"/>
<circle class="l7" cx="1499.14" cy="809.536" r="3.69788"/>
<circle class="l7" cx="1499.14" cy="809.536" r="3.69788"/>
<circle class="l1" cx="1858.93" cy="369.788" r="3.69788"/>
<circle class="l1" cx="1858.93" cy="409.765" r="3.69788"/>
<circle class="l1" cx="1858.93" cy="369.788" r="3.69788"/>
<circle class="l1" cx="1858.93" cy="369.788" r="3.69788"/>
<circle class="l1" cx="1858.93" cy="409.765" r="3.69788"/>
<circle class="l1" cx="1858.93" cy="409.765" r="3.69788"/>
<circle class="l1" cx="1978.87" cy="929.467" r="3.69788"/>
<circle class="l1" cx="1978.87" cy="929.467" r="3.69788"/>
<circle class="l1" cx="1978.87" cy="929.467" r="3.69788"/>
<circle class="l1" cx="2258.7" cy="249.857" r="3.69788"/>
<circle class="l1" cx="2258.7" cy="249.857" r="3.69788"/>
<circle class="l1" cx="2098.8" cy="429.754" r="3.69788"/>
<circle class="l1" cx="2258.7" cy="249.857" r="3.69788"/>
<circle class="l1" cx="2098.8" cy="429.754" r="3.69788"/>
<circle class="l1" cx="2098.8" cy="429.754" r="3.69788"/>
<circle class="l1" cx="2098.8" cy="989.433" r="3.69788"/>
<circle class="l1" cx="2258.7" cy="809.536" r="3.69788"/>
<circle class="l1" cx="2258.7" cy="809.536" r="3.69788"/>
<circle class="l1" cx="2098.8" cy="989.433" r="3.69788"/>
<circle class="l1" cx="2098.8" cy="989.433" r="3.69788"/>
<circle class="l1" cx="2258.7" cy="809.536" r="3.69788"/>
<text fill="#222222"  xml:space="preserve" font-size="20.7881" transform="translate(1039.4, 578.555)" >Middlebrook's Method</text>
<text fill="#222222"  xml:space="preserve" font-size="20.7881" transform="translate(1039.4, 18.8756)" >Tian's Method</text>
</svg>
