<svg xmlns="http://www.w3.org/2000/svg" xmlns:xlink="http://www.w3.org/1999/xlink" width="1085" height="678" version="1.1">
<style type="text/css">
.l0{
  fill: #ffffff;
  stroke: #ffffff;
  stroke-linecap:round;
  stroke-linejoin:round;
  stroke-width: 0.632591;
}
.l1{
  fill: #0099cc;
  stroke: #0099cc;
  stroke-linecap:round;
  stroke-linejoin:round;
  stroke-width: 0.632591;
}
.l2{
  fill: #aaaaaa; fill-opacity: 0.2;
  stroke: #aaaaaa;
  stroke-linecap:round;
  stroke-linejoin:round;
  stroke-width: 0.632591;
}
.l3{
  fill: #222222; fill-opacity: 0.5;
  stroke: #222222;
  stroke-linecap:round;
  stroke-linejoin:round;
  stroke-width: 0.632591;
}
.l4{
  fill: #229900;
  stroke: #229900;
  stroke-linecap:round;
  stroke-linejoin:round;
  stroke-width: 0.632591;
}
.l5{
  fill: #bb2200;
  stroke: #bb2200;
  stroke-linecap:round;
  stroke-linejoin:round;
  stroke-width: 0.632591;
}
.l6{
  fill: #0066cc; fill-opacity: 0.5;
  stroke: #0066cc;
  stroke-linecap:round;
  stroke-linejoin:round;
  stroke-width: 0.632591;
}
.l7{
  fill: #ff0000; fill-opacity: 0.5;
  stroke: #ff0000;
  stroke-linecap:round;
  stroke-linejoin:round;
  stroke-width: 0.632591;
}
.l8{
  fill: #888800; fill-opacity: 0.5;
  stroke: #888800;
  stroke-linecap:round;
  stroke-linejoin:round;
  stroke-width: 0.632591;
}
.l9{
  fill: #00aaaa; fill-opacity: 0.5;
  stroke: #00aaaa;
  stroke-linecap:round;
  stroke-linejoin:round;
  stroke-width: 0.632591;
}
.l10{
  fill: #880088;
  stroke: #880088;
  stroke-linecap:round;
  stroke-linejoin:round;
  stroke-width: 0.632591;
}
.l11{
  fill: #00ff00; fill-opacity: 0.5;
  stroke: #00ff00;
  stroke-linecap:round;
  stroke-linejoin:round;
  stroke-width: 0.632591;
}
.l12{
  fill: #0000cc; fill-opacity: 0.5;
  stroke: #0000cc;
  stroke-linecap:round;
  stroke-linejoin:round;
  stroke-width: 0.632591;
}
.l13{
  fill: #666600; fill-opacity: 0.5;
  stroke: #666600;
  stroke-linecap:round;
  stroke-linejoin:round;
  stroke-width: 0.632591;
}
.l14{
  fill: #557755; fill-opacity: 0.2;
  stroke: #557755;
  stroke-linecap:round;
  stroke-linejoin:round;
  stroke-width: 0.632591;
}
.l15{
  fill: #aa2222; fill-opacity: 0.5;
  stroke: #aa2222;
  stroke-linecap:round;
  stroke-linejoin:round;
  stroke-width: 0.632591;
}
.l16{
  fill: #7ccc40; fill-opacity: 0.5;
  stroke: #7ccc40;
  stroke-linecap:round;
  stroke-linejoin:round;
  stroke-width: 0.632591;
}
.l17{
  fill: #00ffcc; fill-opacity: 0.2;
  stroke: #00ffcc;
  stroke-linecap:round;
  stroke-linejoin:round;
  stroke-width: 0.632591;
}
.l18{
  fill: #ce0097; fill-opacity: 0.5;
  stroke: #ce0097;
  stroke-linecap:round;
  stroke-linejoin:round;
  stroke-width: 0.632591;
}
.l19{
  fill: #d2d46b; fill-opacity: 0.2;
  stroke: #d2d46b;
  stroke-linecap:round;
  stroke-linejoin:round;
  stroke-width: 0.632591;
}
.l20{
  fill: #ef6158; fill-opacity: 0.2;
  stroke: #ef6158;
  stroke-linecap:round;
  stroke-linejoin:round;
  stroke-width: 0.632591;
}
.l21{
  fill: #fdb200; fill-opacity: 0.2;
  stroke: #fdb200;
  stroke-linecap:round;
  stroke-linejoin:round;
  stroke-width: 0.632591;
}
text {font-family: Sans-Serif;}
</style>
<rect class="l0" x="0" y="0" width="1085" height="678"/>
<path class="l4" d="M156.21 575.987L189.011 575.987"/>
<path class="l4" d="M156.21 575.987L156.21 585.359"/>
<path class="l4" d="M156.21 238.606L189.011 238.606"/>
<path class="l4" d="M156.21 238.606L156.21 247.977"/>
<path class="l4" d="M391.674 274.921L394.017 274.921"/>
<path class="l4" d="M392.845 273.749L392.845 276.092"/>
<path class="l4" d="M390.503 271.407L390.503 299.522"/>
<circle class="l4" cx="390.503" cy="285.464" r="7.02879" style="fill:none;" />
<path class="l4" d="M390.503 308.893L390.503 314.751"/>
<path class="l4" d="M388.16 314.751L392.845 314.751"/>
<path class="l4" d="M390.503 317.094L392.845 314.751"/>
<path class="l4" d="M388.16 314.751L390.503 317.094"/>
<path class="l4" d="M390.503 590.045L376.445 584.187L376.445 587.702L362.387 587.702L367.073 590.045L362.387 592.388L376.445 592.388L376.445 595.902L390.503 590.045"/>
<path class="l4" d="M502.963 590.045L488.906 584.187L488.906 587.702L474.848 587.702L479.534 590.045L474.848 592.388L488.906 592.388L488.906 595.902L502.963 590.045"/>
<path class="l4" d="M662.282 360.438L690.397 360.438"/>
<path class="l4" d="M606.052 360.438L615.424 360.438"/>
<path class="l4" d="M606.052 379.181L615.424 379.181"/>
<path class="l4" d="M615.424 341.694L615.424 397.925"/>
<path class="l4" d="M615.424 397.925L681.026 369.81"/>
<path class="l4" d="M615.424 341.694L681.026 369.81"/>
<path class="l4" d="M606.052 332.323L690.397 332.323"/>
<path class="l4" d="M690.397 332.323L690.397 407.296"/>
<path class="l4" d="M606.052 407.296L690.397 407.296"/>
<path class="l4" d="M606.052 332.323L606.052 407.296"/>
<path class="l4" d="M662.282 379.181L690.397 379.181"/>
<path class="l4" d="M429.161 274.921L431.504 274.921"/>
<path class="l4" d="M430.332 273.749L430.332 276.092"/>
<path class="l4" d="M427.989 271.407L427.989 299.522"/>
<circle class="l4" cx="427.989" cy="285.464" r="7.02879" style="fill:none;" />
<path class="l4" d="M427.989 308.893L427.989 314.751"/>
<path class="l4" d="M425.646 314.751L430.332 314.751"/>
<path class="l4" d="M427.989 317.094L430.332 314.751"/>
<path class="l4" d="M425.646 314.751L427.989 317.094"/>
<path class="l4" d="M770.057 404.953L770.057 416.668"/>
<path class="l4" d="M770.057 388.553L770.057 400.268"/>
<path class="l4" d="M765.371 400.268L774.743 400.268"/>
<path class="l4" d="M765.371 404.953L774.743 404.953"/>
<path class="l4" d="M771.228 392.067L773.571 392.067"/>
<path class="l4" d="M772.4 390.896L772.4 393.239"/>
<path class="l4" d="M480.705 401.439L483.048 401.439"/>
<path class="l4" d="M481.877 400.268L481.877 402.611"/>
<path class="l4" d="M479.534 397.925L479.534 426.04"/>
<circle class="l4" cx="479.534" cy="411.982" r="7.02879" style="fill:none;" />
<path class="l4" d="M662.282 290.15L662.282 297.179"/>
<path class="l4" d="M662.282 311.236L662.282 318.265"/>
<path class="l4" d="M663.454 293.664L665.797 293.664"/>
<path class="l4" d="M664.625 292.493L664.625 294.836"/>
<path class="l4" d="M662.282 300.693L662.282 305.379L663.454 305.379L662.282 308.893L661.111 305.379L662.282 305.379L662.282 300.693"/>
<circle class="l4" cx="662.282" cy="304.208" r="7.02879" style="fill:none;" />
<path class="l4" d="M663.454 452.983L665.797 452.983"/>
<path class="l4" d="M664.625 451.812L664.625 454.155"/>
<path class="l4" d="M662.282 449.469L662.282 477.584"/>
<circle class="l4" cx="662.282" cy="463.527" r="7.02879" style="fill:none;" />
<path class="l4" d="M541.621 373.324L543.964 373.324"/>
<path class="l4" d="M542.793 372.152L542.793 374.495"/>
<path class="l4" d="M540.45 369.81L540.45 397.925"/>
<circle class="l4" cx="540.45" cy="383.867" r="7.02879" style="fill:none;" />
<path class="l4" d="M812.23 386.21L812.23 397.925"/>
<path class="l4" d="M812.23 369.81L812.23 381.524"/>
<path class="l4" d="M807.544 381.524L816.915 381.524"/>
<path class="l4" d="M807.544 386.21L816.915 386.21"/>
<path class="l4" d="M813.401 373.324L815.744 373.324"/>
<path class="l4" d="M814.573 372.152L814.573 374.495"/>
<path class="l4" d="M662.282 107.402L690.397 107.402"/>
<path class="l4" d="M606.052 107.402L615.424 107.402"/>
<path class="l4" d="M606.052 126.145L615.424 126.145"/>
<path class="l4" d="M615.424 88.6581L615.424 144.888"/>
<path class="l4" d="M615.424 144.888L681.026 116.773"/>
<path class="l4" d="M615.424 88.6581L681.026 116.773"/>
<path class="l4" d="M606.052 79.2864L690.397 79.2864"/>
<path class="l4" d="M690.397 79.2864L690.397 154.26"/>
<path class="l4" d="M606.052 154.26L690.397 154.26"/>
<path class="l4" d="M606.052 79.2864L606.052 154.26"/>
<path class="l4" d="M662.282 126.145L690.397 126.145"/>
<path class="l4" d="M774.743 151.917L774.743 163.632"/>
<path class="l4" d="M774.743 135.517L774.743 147.231"/>
<path class="l4" d="M770.057 147.231L779.429 147.231"/>
<path class="l4" d="M770.057 151.917L779.429 151.917"/>
<path class="l4" d="M775.914 139.031L778.257 139.031"/>
<path class="l4" d="M777.086 137.86L777.086 140.203"/>
<path class="l4" d="M480.705 148.403L483.048 148.403"/>
<path class="l4" d="M481.877 147.231L481.877 149.574"/>
<path class="l4" d="M479.534 144.888L479.534 173.004"/>
<circle class="l4" cx="479.534" cy="158.946" r="7.02879" style="fill:none;" />
<path class="l4" d="M662.282 37.1137L662.282 44.1425"/>
<path class="l4" d="M662.282 58.2L662.282 65.2288"/>
<path class="l4" d="M663.454 40.6281L665.797 40.6281"/>
<path class="l4" d="M664.625 39.4566L664.625 41.7995"/>
<path class="l4" d="M662.282 47.6569L662.282 52.3427L663.454 52.3427L662.282 55.8571L661.111 52.3427L662.282 52.3427L662.282 47.6569"/>
<circle class="l4" cx="662.282" cy="51.1712" r="7.02879" style="fill:none;" />
<path class="l4" d="M812.23 133.174L812.23 144.888"/>
<path class="l4" d="M812.23 116.773L812.23 128.488"/>
<path class="l4" d="M807.544 128.488L816.915 128.488"/>
<path class="l4" d="M807.544 133.174L816.915 133.174"/>
<path class="l4" d="M813.401 120.288L815.744 120.288"/>
<path class="l4" d="M814.573 119.116L814.573 121.459"/>
<path class="l4" d="M888.375 68.7432L890.718 68.7432"/>
<path class="l4" d="M889.546 67.5717L889.546 69.9147"/>
<path class="l4" d="M887.203 65.2288L887.203 93.344"/>
<path class="l4" d="M877.832 79.2864L887.203 69.9147"/>
<path class="l4" d="M877.832 79.2864L887.203 88.6581"/>
<path class="l4" d="M887.203 88.6581L896.575 79.2864"/>
<path class="l4" d="M887.203 69.9147L896.575 79.2864"/>
<path class="l4" d="M868.46 69.9147L870.803 69.9147"/>
<path class="l4" d="M873.146 69.9147L875.489 69.9147"/>
<path class="l4" d="M877.832 69.9147L880.175 69.9147"/>
<path class="l4" d="M868.46 88.6581L870.803 88.6581"/>
<path class="l4" d="M873.146 88.6581L875.489 88.6581"/>
<path class="l4" d="M877.832 88.6581L880.175 88.6581"/>
<path class="l4" d="M887.203 112.087L887.203 117.945"/>
<path class="l4" d="M884.86 117.945L889.546 117.945"/>
<path class="l4" d="M887.203 120.288L889.546 117.945"/>
<path class="l4" d="M884.86 117.945L887.203 120.288"/>
<path class="l4" d="M888.375 312.408L890.718 312.408"/>
<path class="l4" d="M889.546 311.236L889.546 313.579"/>
<path class="l4" d="M887.203 308.893L887.203 337.009"/>
<path class="l4" d="M877.832 322.951L887.203 313.579"/>
<path class="l4" d="M877.832 322.951L887.203 332.323"/>
<path class="l4" d="M887.203 332.323L896.575 322.951"/>
<path class="l4" d="M887.203 313.579L896.575 322.951"/>
<path class="l4" d="M868.46 313.579L870.803 313.579"/>
<path class="l4" d="M873.146 313.579L875.489 313.579"/>
<path class="l4" d="M877.832 313.579L880.175 313.579"/>
<path class="l4" d="M868.46 332.323L870.803 332.323"/>
<path class="l4" d="M873.146 332.323L875.489 332.323"/>
<path class="l4" d="M877.832 332.323L880.175 332.323"/>
<path class="l4" d="M887.203 341.694L887.203 347.552"/>
<path class="l4" d="M884.86 347.552L889.546 347.552"/>
<path class="l4" d="M887.203 349.895L889.546 347.552"/>
<path class="l4" d="M884.86 347.552L887.203 349.895"/>
<path class="l4" d="M888.375 40.6281L890.718 40.6281"/>
<path class="l4" d="M889.546 39.4566L889.546 41.7995"/>
<path class="l4" d="M887.203 37.1137L887.203 65.2288"/>
<path class="l4" d="M877.832 51.1712L887.203 41.7995"/>
<path class="l4" d="M877.832 51.1712L887.203 60.543"/>
<path class="l4" d="M887.203 60.543L896.575 51.1712"/>
<path class="l4" d="M887.203 41.7995L896.575 51.1712"/>
<path class="l4" d="M868.46 41.7995L870.803 41.7995"/>
<path class="l4" d="M873.146 41.7995L875.489 41.7995"/>
<path class="l4" d="M877.832 41.7995L880.175 41.7995"/>
<path class="l4" d="M868.46 60.543L870.803 60.543"/>
<path class="l4" d="M873.146 60.543L875.489 60.543"/>
<path class="l4" d="M877.832 60.543L880.175 60.543"/>
<path class="l4" d="M553.336 356.923L553.336 359.266"/>
<path class="l4" d="M552.165 358.095L554.508 358.095"/>
<path class="l4" d="M549.822 360.438L577.937 360.438"/>
<circle class="l4" cx="563.879" cy="360.438" r="7.02879" style="fill:none;" />
<path class="l5" d="M389.331 270.235L391.674 270.235L391.674 272.578L389.331 272.578L389.331 270.235z"/>
<path class="l5" d="M389.331 298.35L391.674 298.35L391.674 300.693L389.331 300.693L389.331 298.35z"/>
<path class="l5" d="M389.331 307.722L391.674 307.722L391.674 310.065L389.331 310.065L389.331 307.722z"/>
<path class="l5" d="M226.498 643.932L226.351 644.079L226.205 644.225L226.058 644.371L225.912 644.518L225.765 644.664L225.619 644.811L225.473 644.957L225.326 645.104L225.18 645.25L225.033 645.396L224.887 645.543L224.74 645.689L224.594 645.836L224.447 645.982L224.301 646.129L224.155 646.275L224.008 646.421L223.862 646.568L223.715 646.714L223.569 646.861L223.422 647.007L223.276 647.154L223.13 647.3L222.983 647.447L222.837 647.593L222.69 647.739L222.544 647.886L222.397 648.032L222.251 648.179L222.105 648.325L221.958 648.472L221.812 648.618L221.812 648.618L221.67 648.764L221.537 648.911L221.414 649.057L221.299 649.204L221.194 649.35L221.098 649.497L221.011 649.643L220.933 649.789L220.864 649.936L220.805 650.082L220.755 650.229L220.713 650.375L220.681 650.522L220.659 650.668L220.645 650.814L220.64 650.961L220.645 651.107L220.659 651.254L220.681 651.4L220.713 651.547L220.755 651.693L220.805 651.84L220.864 651.986L220.933 652.132L221.011 652.279L221.098 652.425L221.194 652.572L221.299 652.718L221.414 652.865L221.537 653.011L221.67 653.157L221.812 653.304L221.812 653.304L221.959 653.451L222.107 653.599L222.256 653.748L222.407 653.899L222.558 654.05L222.711 654.203L222.865 654.357L223.02 654.512L223.176 654.668L223.333 654.825L223.492 654.984L223.651 655.143L223.812 655.304L223.974 655.466L224.137 655.629L224.301 655.793L224.466 655.959L224.633 656.125L224.8 656.293L224.969 656.461L225.139 656.631L225.31 656.802L225.482 656.974L225.656 657.148L225.83 657.322L226.006 657.498L226.182 657.675L226.36 657.852L226.539 658.031L226.719 658.212L226.901 658.393L227.083 658.575L227.083 658.575L227.265 658.757L227.445 658.937L227.622 659.114L227.797 659.289L227.97 659.462L228.14 659.632L228.308 659.801L228.474 659.967L228.638 660.13L228.799 660.291L228.958 660.45L229.115 660.607L229.269 660.762L229.422 660.914L229.571 661.064L229.719 661.211L229.864 661.357L230.007 661.5L230.148 661.64L230.286 661.779L230.423 661.915L230.556 662.049L230.688 662.18L230.817 662.309L230.944 662.436L231.069 662.561L231.191 662.684L231.312 662.804L231.429 662.922L231.545 663.037L231.658 663.15L231.769 663.261L231.769 663.261L231.876 663.369L231.975 663.474L232.068 663.575L232.154 663.673L232.232 663.768L232.305 663.858L232.37 663.946L232.428 664.03L232.48 664.111L232.524 664.188L232.562 664.262L232.593 664.332L232.617 664.399L232.634 664.462L232.644 664.523L232.648 664.579L232.644 664.632L232.634 664.682L232.617 664.728L232.593 664.771L232.562 664.811L232.524 664.847L232.48 664.879L232.428 664.909L232.37 664.934L232.305 664.957L232.232 664.976L232.154 664.991L232.068 665.003L231.975 665.012L231.876 665.017L231.769 665.018L231.769 665.018L231.659 665.018L231.549 665.018L231.44 665.018L231.33 665.018L231.22 665.018L231.11 665.018L231 665.018L230.891 665.018L230.781 665.018L230.671 665.018L230.561 665.018L230.451 665.018L230.341 665.018L230.232 665.018L230.122 665.018L230.012 665.018L229.902 665.018L229.792 665.018L229.682 665.018L229.573 665.018L229.463 665.018L229.353 665.018L229.243 665.018L229.133 665.018L229.024 665.018L228.914 665.018L228.804 665.018L228.694 665.018L228.584 665.018L228.474 665.018L228.365 665.018L228.255 665.018L228.255 665.018L228.145 665.018L228.037 665.018L227.93 665.018L227.825 665.018L227.72 665.018L227.616 665.018L227.514 665.018L227.413 665.018L227.313 665.018L227.214 665.018L227.116 665.018L227.019 665.018L226.924 665.018L226.829 665.018L226.736 665.018L226.644 665.018L226.553 665.018L226.463 665.018L226.375 665.018L226.287 665.018L226.201 665.018L226.115 665.018L226.031 665.018L225.948 665.018L225.867 665.018L225.786 665.018L225.706 665.018L225.628 665.018L225.551 665.018L225.475 665.018L225.4 665.018L225.326 665.018L225.326 665.018L225.253 665.017L225.18 665.014L225.106 665.008L225.033 665L224.96 664.99L224.887 664.977L224.814 664.962L224.74 664.945L224.667 664.926L224.594 664.904L224.521 664.88L224.447 664.854L224.374 664.825L224.301 664.794L224.228 664.761L224.155 664.726L224.081 664.688L224.008 664.648L223.935 664.605L223.862 664.561L223.789 664.514L223.715 664.465L223.642 664.413L223.569 664.36L223.496 664.303L223.422 664.245L223.349 664.185L223.276 664.122L223.203 664.056L223.13 663.989L223.056 663.919L222.983 663.847L222.983 663.847L222.91 663.774L222.837 663.701L222.763 663.627L222.69 663.554L222.617 663.481L222.544 663.408L222.471 663.335L222.397 663.261L222.324 663.188L222.251 663.115L222.178 663.042L222.105 662.968L222.031 662.895L221.958 662.822L221.885 662.749L221.812 662.676L221.738 662.602L221.665 662.529L221.592 662.456L221.519 662.383L221.446 662.309L221.372 662.236L221.299 662.163L221.226 662.09L221.153 662.017L221.08 661.943L221.006 661.87L220.933 661.797L220.86 661.724L220.787 661.651L220.713 661.577L220.64 661.504L220.64 661.504L220.566 661.43L220.489 661.353L220.41 661.274L220.329 661.193L220.246 661.109L220.16 661.024L220.072 660.936L219.981 660.845L219.889 660.752L219.794 660.658L219.696 660.56L219.597 660.461L219.495 660.359L219.391 660.255L219.285 660.148L219.176 660.04L219.065 659.929L218.952 659.816L218.836 659.7L218.718 659.582L218.598 659.462L218.476 659.34L218.351 659.215L218.224 659.088L218.095 658.959L217.963 658.827L217.829 658.693L217.693 658.557L217.555 658.419L217.414 658.278L217.271 658.135L217.126 657.99L217.126 657.99L216.979 657.848L216.833 657.715L216.687 657.592L216.54 657.477L216.394 657.372L216.247 657.276L216.101 657.189L215.954 657.111L215.808 657.042L215.661 656.983L215.515 656.933L215.369 656.891L215.222 656.859L215.076 656.837L214.929 656.823L214.783 656.818L214.636 656.823L214.49 656.837L214.344 656.859L214.197 656.891L214.051 656.933L213.904 656.983L213.758 657.042L213.611 657.111L213.465 657.189L213.319 657.276L213.172 657.372L213.026 657.477L212.879 657.592L212.733 657.715L212.586 657.848L212.44 657.99L212.44 657.99L212.295 658.135L212.152 658.278L212.011 658.419L211.873 658.557L211.736 658.693L211.603 658.827L211.471 658.959L211.342 659.088L211.215 659.215L211.09 659.34L210.968 659.462L210.848 659.582L210.73 659.7L210.614 659.816L210.501 659.929L210.39 660.04L210.281 660.148L210.175 660.255L210.071 660.359L209.969 660.461L209.869 660.56L209.772 660.658L209.677 660.752L209.585 660.845L209.494 660.936L209.406 661.024L209.32 661.109L209.237 661.193L209.156 661.274L209.077 661.353L209 661.43L208.926 661.504L208.926 661.504L208.852 661.577L208.779 661.651L208.706 661.724L208.633 661.797L208.559 661.87L208.486 661.943L208.413 662.017L208.34 662.09L208.267 662.163L208.193 662.236L208.12 662.309L208.047 662.383L207.974 662.456L207.901 662.529L207.827 662.602L207.754 662.676L207.681 662.749L207.608 662.822L207.534 662.895L207.461 662.968L207.388 663.042L207.315 663.115L207.242 663.188L207.168 663.261L207.095 663.335L207.022 663.408L206.949 663.481L206.876 663.554L206.802 663.627L206.729 663.701L206.656 663.774L206.583 663.847L206.583 663.847L206.509 663.919L206.436 663.989L206.363 664.056L206.29 664.122L206.217 664.185L206.143 664.245L206.07 664.303L205.997 664.36L205.924 664.413L205.85 664.465L205.777 664.514L205.704 664.561L205.631 664.605L205.558 664.648L205.484 664.688L205.411 664.726L205.338 664.761L205.265 664.794L205.192 664.825L205.118 664.854L205.045 664.88L204.972 664.904L204.899 664.926L204.825 664.945L204.752 664.962L204.679 664.977L204.606 664.99L204.533 665L204.459 665.008L204.386 665.014L204.313 665.017L204.24 665.018L204.24 665.018L204.166 665.018L204.091 665.018L204.015 665.018L203.938 665.018L203.859 665.018L203.78 665.018L203.699 665.018L203.617 665.018L203.534 665.018L203.45 665.018L203.365 665.018L203.279 665.018L203.191 665.018L203.103 665.018L203.013 665.018L202.922 665.018L202.83 665.018L202.736 665.018L202.642 665.018L202.547 665.018L202.45 665.018L202.352 665.018L202.253 665.018L202.153 665.018L202.052 665.018L201.949 665.018L201.846 665.018L201.741 665.018L201.635 665.018L201.528 665.018L201.42 665.018L201.311 665.018L201.311 665.018L201.201 665.018L201.091 665.018L200.982 665.018L200.872 665.018L200.762 665.018L200.652 665.018L200.542 665.018L200.432 665.018L200.323 665.018L200.213 665.018L200.103 665.018L199.993 665.018L199.883 665.018L199.774 665.018L199.664 665.018L199.554 665.018L199.444 665.018L199.334 665.018L199.224 665.018L199.115 665.018L199.005 665.018L198.895 665.018L198.785 665.018L198.675 665.018L198.565 665.018L198.456 665.018L198.346 665.018L198.236 665.018L198.126 665.018L198.016 665.018L197.906 665.018L197.797 665.018L197.797 665.018L197.69 665.017L197.591 665.012L197.498 665.003L197.412 664.991L197.333 664.976L197.261 664.957L197.196 664.934L197.138 664.909L197.086 664.879L197.042 664.847L197.004 664.811L196.973 664.771L196.949 664.728L196.932 664.682L196.921 664.632L196.918 664.579L196.921 664.523L196.932 664.462L196.949 664.399L196.973 664.332L197.004 664.262L197.042 664.188L197.086 664.111L197.138 664.03L197.196 663.946L197.261 663.858L197.333 663.768L197.412 663.673L197.498 663.575L197.591 663.474L197.69 663.369L197.797 663.261L197.797 663.261L197.908 663.15L198.021 663.037L198.136 662.922L198.254 662.804L198.374 662.684L198.497 662.561L198.621 662.436L198.748 662.309L198.878 662.18L199.009 662.049L199.143 661.915L199.279 661.779L199.418 661.64L199.558 661.5L199.701 661.357L199.847 661.211L199.994 661.064L200.144 660.914L200.296 660.762L200.451 660.607L200.607 660.45L200.767 660.291L200.928 660.13L201.091 659.967L201.257 659.801L201.425 659.632L201.596 659.462L201.769 659.289L201.944 659.114L202.121 658.937L202.301 658.757L202.483 658.575L202.483 658.575L202.665 658.393L202.846 658.212L203.026 658.031L203.206 657.852L203.383 657.675L203.56 657.498L203.736 657.322L203.91 657.148L204.084 656.974L204.256 656.802L204.427 656.631L204.597 656.461L204.765 656.293L204.933 656.125L205.099 655.959L205.265 655.793L205.429 655.629L205.592 655.466L205.754 655.304L205.915 655.143L206.074 654.984L206.233 654.825L206.39 654.668L206.546 654.512L206.701 654.357L206.855 654.203L207.008 654.05L207.159 653.899L207.31 653.748L207.459 653.599L207.607 653.451L207.754 653.304L207.754 653.304L207.896 653.157L208.029 653.011L208.152 652.865L208.267 652.718L208.372 652.572L208.468 652.425L208.555 652.279L208.633 652.132L208.701 651.986L208.761 651.84L208.811 651.693L208.852 651.547L208.884 651.4L208.907 651.254L208.921 651.107L208.926 650.961L208.921 650.814L208.907 650.668L208.884 650.522L208.852 650.375L208.811 650.229L208.761 650.082L208.701 649.936L208.633 649.789L208.555 649.643L208.468 649.497L208.372 649.35L208.267 649.204L208.152 649.057L208.029 648.911L207.896 648.764L207.754 648.618L207.754 648.618L207.607 648.471L207.459 648.323L207.31 648.174L207.159 648.023L207.008 647.872L206.855 647.719L206.701 647.565L206.546 647.41L206.39 647.254L206.233 647.096L206.074 646.938L205.915 646.778L205.754 646.618L205.592 646.456L205.429 646.293L205.265 646.129L205.099 645.963L204.933 645.797L204.765 645.629L204.597 645.461L204.427 645.291L204.256 645.12L204.084 644.947L203.91 644.774L203.736 644.6L203.56 644.424L203.383 644.247L203.206 644.069L203.026 643.89L202.846 643.71L202.665 643.529L202.483 643.346L202.483 643.346L202.301 643.165L202.121 642.985L201.944 642.808L201.769 642.633L201.596 642.46L201.425 642.289L201.257 642.121L201.091 641.955L200.928 641.792L200.767 641.63L200.607 641.471L200.451 641.315L200.296 641.16L200.144 641.008L199.994 640.858L199.847 640.711L199.701 640.565L199.558 640.422L199.418 640.282L199.279 640.143L199.143 640.007L199.009 639.873L198.878 639.742L198.748 639.612L198.621 639.485L198.497 639.361L198.374 639.238L198.254 639.118L198.136 639L198.021 638.885L197.908 638.772L197.797 638.661L197.797 638.661L197.69 638.552L197.591 638.448L197.498 638.347L197.412 638.249L197.333 638.154L197.261 638.063L197.196 637.976L197.138 637.892L197.086 637.811L197.042 637.734L197.004 637.66L196.973 637.59L196.949 637.523L196.932 637.459L196.921 637.399L196.918 637.343L196.921 637.289L196.932 637.24L196.949 637.193L196.973 637.15L197.004 637.111L197.042 637.075L197.086 637.042L197.138 637.013L197.196 636.987L197.261 636.965L197.333 636.946L197.412 636.931L197.498 636.919L197.591 636.91L197.69 636.905L197.797 636.903L197.797 636.903L197.906 636.903L198.016 636.903L198.126 636.903L198.236 636.903L198.346 636.903L198.456 636.903L198.565 636.903L198.675 636.903L198.785 636.903L198.895 636.903L199.005 636.903L199.115 636.903L199.224 636.903L199.334 636.903L199.444 636.903L199.554 636.903L199.664 636.903L199.774 636.903L199.883 636.903L199.993 636.903L200.103 636.903L200.213 636.903L200.323 636.903L200.432 636.903L200.542 636.903L200.652 636.903L200.762 636.903L200.872 636.903L200.982 636.903L201.091 636.903L201.201 636.903L201.311 636.903L201.311 636.903L201.42 636.903L201.528 636.903L201.635 636.903L201.741 636.903L201.846 636.903L201.949 636.903L202.052 636.903L202.153 636.903L202.253 636.903L202.352 636.903L202.45 636.903L202.547 636.903L202.642 636.903L202.736 636.903L202.83 636.903L202.922 636.903L203.013 636.903L203.103 636.903L203.191 636.903L203.279 636.903L203.365 636.903L203.45 636.903L203.534 636.903L203.617 636.903L203.699 636.903L203.78 636.903L203.859 636.903L203.938 636.903L204.015 636.903L204.091 636.903L204.166 636.903L204.24 636.903L204.24 636.903L204.313 636.904L204.386 636.908L204.459 636.914L204.533 636.922L204.606 636.932L204.679 636.945L204.752 636.959L204.825 636.977L204.899 636.996L204.972 637.018L205.045 637.042L205.118 637.068L205.192 637.097L205.265 637.128L205.338 637.161L205.411 637.196L205.484 637.234L205.558 637.274L205.631 637.316L205.704 637.361L205.777 637.408L205.85 637.457L205.924 637.509L205.997 637.562L206.07 637.618L206.143 637.677L206.217 637.737L206.29 637.8L206.363 637.865L206.436 637.933L206.509 638.003L206.583 638.075L206.583 638.075L206.656 638.148L206.729 638.221L206.802 638.294L206.876 638.368L206.949 638.441L207.022 638.514L207.095 638.587L207.168 638.661L207.242 638.734L207.315 638.807L207.388 638.88L207.461 638.953L207.534 639.027L207.608 639.1L207.681 639.173L207.754 639.246L207.827 639.319L207.901 639.393L207.974 639.466L208.047 639.539L208.12 639.612L208.193 639.686L208.267 639.759L208.34 639.832L208.413 639.905L208.486 639.978L208.559 640.052L208.633 640.125L208.706 640.198L208.779 640.271L208.852 640.345L208.926 640.418L208.926 640.418L209 640.492L209.077 640.569L209.156 640.648L209.237 640.729L209.32 640.812L209.406 640.898L209.494 640.986L209.585 641.077L209.677 641.169L209.772 641.264L209.869 641.362L209.969 641.461L210.071 641.563L210.175 641.667L210.281 641.773L210.39 641.882L210.501 641.993L210.614 642.106L210.73 642.222L210.848 642.34L210.968 642.46L211.09 642.582L211.215 642.707L211.342 642.834L211.471 642.963L211.603 643.095L211.736 643.229L211.873 643.365L212.011 643.503L212.152 643.644L212.295 643.787L212.44 643.932L212.44 643.932L212.586 644.074L212.733 644.207L212.879 644.33L213.026 644.445L213.172 644.55L213.319 644.646L213.465 644.733L213.611 644.811L213.758 644.879L213.904 644.939L214.051 644.989L214.197 645.03L214.344 645.062L214.49 645.085L214.636 645.099L214.783 645.104L214.929 645.099L215.076 645.085L215.222 645.062L215.369 645.03L215.515 644.989L215.661 644.939L215.808 644.879L215.954 644.811L216.101 644.733L216.247 644.646L216.394 644.55L216.54 644.445L216.687 644.33L216.833 644.207L216.979 644.074L217.126 643.932L217.126 643.932L217.271 643.787L217.414 643.644L217.555 643.503L217.693 643.365L217.829 643.229L217.963 643.095L218.095 642.963L218.224 642.834L218.351 642.707L218.476 642.582L218.598 642.46L218.718 642.34L218.836 642.222L218.952 642.106L219.065 641.993L219.176 641.882L219.285 641.773L219.391 641.667L219.495 641.563L219.597 641.461L219.696 641.362L219.794 641.264L219.889 641.169L219.981 641.077L220.072 640.986L220.16 640.898L220.246 640.812L220.329 640.729L220.41 640.648L220.489 640.569L220.566 640.492L220.64 640.418L220.64 640.418L220.713 640.345L220.787 640.271L220.86 640.198L220.933 640.125L221.006 640.052L221.08 639.978L221.153 639.905L221.226 639.832L221.299 639.759L221.372 639.686L221.446 639.612L221.519 639.539L221.592 639.466L221.665 639.393L221.738 639.319L221.812 639.246L221.885 639.173L221.958 639.1L222.031 639.027L222.105 638.953L222.178 638.88L222.251 638.807L222.324 638.734L222.397 638.661L222.471 638.587L222.544 638.514L222.617 638.441L222.69 638.368L222.763 638.294L222.837 638.221L222.91 638.148L222.983 638.075L222.983 638.075L223.056 638.003L223.13 637.933L223.203 637.865L223.276 637.8L223.349 637.737L223.422 637.677L223.496 637.618L223.569 637.562L223.642 637.509L223.715 637.457L223.789 637.408L223.862 637.361L223.935 637.316L224.008 637.274L224.081 637.234L224.155 637.196L224.228 637.161L224.301 637.128L224.374 637.097L224.447 637.068L224.521 637.042L224.594 637.018L224.667 636.996L224.74 636.977L224.814 636.959L224.887 636.945L224.96 636.932L225.033 636.922L225.106 636.914L225.18 636.908L225.253 636.904L225.326 636.903L225.326 636.903L225.4 636.903L225.475 636.903L225.551 636.903L225.628 636.903L225.706 636.903L225.786 636.903L225.867 636.903L225.948 636.903L226.031 636.903L226.115 636.903L226.201 636.903L226.287 636.903L226.375 636.903L226.463 636.903L226.553 636.903L226.644 636.903L226.736 636.903L226.829 636.903L226.924 636.903L227.019 636.903L227.116 636.903L227.214 636.903L227.313 636.903L227.413 636.903L227.514 636.903L227.616 636.903L227.72 636.903L227.825 636.903L227.93 636.903L228.037 636.903L228.145 636.903L228.255 636.903L228.255 636.903L228.365 636.903L228.474 636.903L228.584 636.903L228.694 636.903L228.804 636.903L228.914 636.903L229.024 636.903L229.133 636.903L229.243 636.903L229.353 636.903L229.463 636.903L229.573 636.903L229.682 636.903L229.792 636.903L229.902 636.903L230.012 636.903L230.122 636.903L230.232 636.903L230.341 636.903L230.451 636.903L230.561 636.903L230.671 636.903L230.781 636.903L230.891 636.903L231 636.903L231.11 636.903L231.22 636.903L231.33 636.903L231.44 636.903L231.549 636.903L231.659 636.903L231.769 636.903L231.769 636.903L231.876 636.905L231.975 636.91L232.068 636.919L232.154 636.931L232.232 636.946L232.305 636.965L232.37 636.987L232.428 637.013L232.48 637.042L232.524 637.075L232.562 637.111L232.593 637.15L232.617 637.193L232.634 637.24L232.644 637.289L232.648 637.343L232.644 637.399L232.634 637.459L232.617 637.523L232.593 637.59L232.562 637.66L232.524 637.734L232.48 637.811L232.428 637.892L232.37 637.976L232.305 638.063L232.232 638.154L232.154 638.249L232.068 638.347L231.975 638.448L231.876 638.552L231.769 638.661L231.769 638.661L231.658 638.772L231.543 638.887L231.424 639.005L231.302 639.127L231.177 639.253L231.048 639.381L230.916 639.513L230.781 639.649L230.642 639.788L230.499 639.93L230.353 640.076L230.204 640.226L230.051 640.378L229.895 640.534L229.736 640.694L229.573 640.857L229.406 641.023L229.236 641.193L229.063 641.367L228.886 641.543L228.706 641.724L228.522 641.907L228.335 642.094L228.145 642.285L227.951 642.479L227.754 642.676L227.553 642.877L227.349 643.081L227.141 643.289L226.93 643.5L226.715 643.714L226.498 643.932"/>
<path class="l5" d="M389.917 261.449L391.088 261.449L391.088 262.621L389.917 262.621L389.917 261.449z"/>
<path class="l5" d="M642.367 331.151L644.71 331.151L644.71 333.494L642.367 333.494L642.367 331.151z"/>
<path class="l5" d="M604.88 359.266L607.223 359.266L607.223 361.609L604.88 361.609L604.88 359.266z"/>
<path class="l5" d="M604.88 378.01L607.223 378.01L607.223 380.353L604.88 380.353L604.88 378.01z"/>
<path class="l5" d="M661.111 331.151L663.454 331.151L663.454 333.494L661.111 333.494L661.111 331.151z"/>
<path class="l5" d="M661.111 406.125L663.454 406.125L663.454 408.468L661.111 408.468L661.111 406.125z"/>
<path class="l5" d="M642.367 406.125L644.71 406.125L644.71 408.468L642.367 408.468L642.367 406.125z"/>
<path class="l5" d="M689.226 359.266L691.569 359.266L691.569 361.609L689.226 361.609L689.226 359.266z"/>
<path class="l5" d="M689.226 378.01L691.569 378.01L691.569 380.353L689.226 380.353L689.226 378.01z"/>
<path class="l5" d="M426.818 270.235L429.161 270.235L429.161 272.578L426.818 272.578L426.818 270.235z"/>
<path class="l5" d="M426.818 298.35L429.161 298.35L429.161 300.693L426.818 300.693L426.818 298.35z"/>
<path class="l5" d="M426.818 307.722L429.161 307.722L429.161 310.065L426.818 310.065L426.818 307.722z"/>
<path class="l5" d="M427.404 261.449L428.575 261.449L428.575 262.621L427.404 262.621L427.404 261.449z"/>
<path class="l5" d="M768.885 387.381L771.228 387.381L771.228 389.724L768.885 389.724L768.885 387.381z"/>
<path class="l5" d="M768.885 415.497L771.228 415.497L771.228 417.84L768.885 417.84L768.885 415.497z"/>
<path class="l5" d="M746.042 378.595L747.213 378.595L747.213 379.767L746.042 379.767L746.042 378.595z"/>
<path class="l5" d="M478.362 396.753L480.705 396.753L480.705 399.096L478.362 399.096L478.362 396.753z"/>
<path class="l5" d="M478.362 424.868L480.705 424.868L480.705 427.211L478.362 427.211L478.362 424.868z"/>
<path class="l5" d="M507.063 359.852L508.235 359.852L508.235 361.024L507.063 361.024L507.063 359.852z"/>
<path class="l5" d="M661.111 288.978L663.454 288.978L663.454 291.321L661.111 291.321L661.111 288.978z"/>
<path class="l5" d="M661.111 317.094L663.454 317.094L663.454 319.437L661.111 319.437L661.111 317.094z"/>
<path class="l5" d="M661.111 448.298L663.454 448.298L663.454 450.641L661.111 450.641L661.111 448.298z"/>
<path class="l5" d="M661.111 476.413L663.454 476.413L663.454 478.756L661.111 478.756L661.111 476.413z"/>
<path class="l5" d="M516.801 360.218L517.24 360.218L517.24 360.657L516.801 360.657L516.801 360.218z"/>
<path class="l5" d="M704.235 378.962L704.675 378.962L704.675 379.401L704.235 379.401L704.235 378.962z"/>
<path class="l5" d="M662.063 444.564L662.502 444.564L662.502 445.003L662.063 445.003L662.063 444.564z"/>
<path class="l5" d="M661.696 416.082L662.868 416.082L662.868 417.254L661.696 417.254L661.696 416.082z"/>
<path class="l5" d="M539.278 368.638L541.621 368.638L541.621 370.981L539.278 370.981L539.278 368.638z"/>
<path class="l5" d="M539.278 396.753L541.621 396.753L541.621 399.096L539.278 399.096L539.278 396.753z"/>
<path class="l5" d="M811.058 368.638L813.401 368.638L813.401 370.981L811.058 370.981L811.058 368.638z"/>
<path class="l5" d="M811.058 396.753L813.401 396.753L813.401 399.096L811.058 399.096L811.058 396.753z"/>
<path class="l5" d="M746.042 359.852L747.213 359.852L747.213 361.024L746.042 361.024L746.042 359.852z"/>
<path class="l5" d="M704.235 360.218L704.675 360.218L704.675 360.657L704.235 360.657L704.235 360.218z"/>
<path class="l5" d="M642.367 78.1149L644.71 78.1149L644.71 80.4579L642.367 80.4579L642.367 78.1149z"/>
<path class="l5" d="M604.88 106.23L607.223 106.23L607.223 108.573L604.88 108.573L604.88 106.23z"/>
<path class="l5" d="M604.88 124.973L607.223 124.973L607.223 127.316L604.88 127.316L604.88 124.973z"/>
<path class="l5" d="M661.111 78.1149L663.454 78.1149L663.454 80.4579L661.111 80.4579L661.111 78.1149z"/>
<path class="l5" d="M661.111 153.089L663.454 153.089L663.454 155.432L661.111 155.432L661.111 153.089z"/>
<path class="l5" d="M642.367 153.089L644.71 153.089L644.71 155.432L642.367 155.432L642.367 153.089z"/>
<path class="l5" d="M689.226 106.23L691.569 106.23L691.569 108.573L689.226 108.573L689.226 106.23z"/>
<path class="l5" d="M689.226 124.973L691.569 124.973L691.569 127.316L689.226 127.316L689.226 124.973z"/>
<path class="l5" d="M773.571 134.345L775.914 134.345L775.914 136.688L773.571 136.688L773.571 134.345z"/>
<path class="l5" d="M773.571 162.46L775.914 162.46L775.914 164.803L773.571 164.803L773.571 162.46z"/>
<path class="l5" d="M478.362 143.717L480.705 143.717L480.705 146.06L478.362 146.06L478.362 143.717z"/>
<path class="l5" d="M478.362 171.832L480.705 171.832L480.705 174.175L478.362 174.175L478.362 171.832z"/>
<path class="l5" d="M507.063 106.816L508.235 106.816L508.235 107.987L507.063 107.987L507.063 106.816z"/>
<path class="l5" d="M661.111 35.9422L663.454 35.9422L663.454 38.2851L661.111 38.2851L661.111 35.9422z"/>
<path class="l5" d="M661.111 64.0574L663.454 64.0574L663.454 66.4003L661.111 66.4003L661.111 64.0574z"/>
<path class="l5" d="M535.544 107.182L535.984 107.182L535.984 107.621L535.544 107.621L535.544 107.182z"/>
<path class="l5" d="M704.235 125.925L704.675 125.925L704.675 126.365L704.235 126.365L704.235 125.925z"/>
<path class="l5" d="M689.812 177.104L690.983 177.104L690.983 178.275L689.812 178.275L689.812 177.104z"/>
<path class="l5" d="M811.058 115.602L813.401 115.602L813.401 117.945L811.058 117.945L811.058 115.602z"/>
<path class="l5" d="M811.058 143.717L813.401 143.717L813.401 146.06L811.058 146.06L811.058 143.717z"/>
<path class="l5" d="M704.235 107.182L704.675 107.182L704.675 107.621L704.235 107.621L704.235 107.182z"/>
<path class="l5" d="M478.948 205.219L480.12 205.219L480.12 206.39L478.948 206.39L478.948 205.219z"/>
<path class="l5" d="M642.953 27.1562L644.125 27.1562L644.125 28.3277L642.953 28.3277L642.953 27.1562z"/>
<path class="l5" d="M886.032 64.0574L888.375 64.0574L888.375 66.4003L886.032 66.4003L886.032 64.0574z"/>
<path class="l5" d="M886.032 92.1725L888.375 92.1725L888.375 94.5154L886.032 94.5154L886.032 92.1725z"/>
<path class="l5" d="M867.288 68.7432L869.631 68.7432L869.631 71.0861L867.288 71.0861L867.288 68.7432z"/>
<path class="l5" d="M867.288 87.4866L869.631 87.4866L869.631 89.8296L867.288 89.8296L867.288 87.4866z"/>
<path class="l5" d="M886.032 110.916L888.375 110.916L888.375 113.259L886.032 113.259L886.032 110.916z"/>
<path class="l5" d="M915.099 22.8365L915.538 22.8365L915.538 23.2758L915.099 23.2758L915.099 22.8365z"/>
<path class="l5" d="M910.047 22.4704L911.218 22.4704L911.218 23.6418L910.047 23.6418L910.047 22.4704z"/>
<path class="l5" d="M642.953 280.192L644.125 280.192L644.125 281.364L642.953 281.364L642.953 280.192z"/>
<path class="l5" d="M478.948 486.37L480.12 486.37L480.12 487.542L478.948 487.542L478.948 486.37z"/>
<path class="l5" d="M886.032 307.722L888.375 307.722L888.375 310.065L886.032 310.065L886.032 307.722z"/>
<path class="l5" d="M886.032 335.837L888.375 335.837L888.375 338.18L886.032 338.18L886.032 335.837z"/>
<path class="l5" d="M867.288 312.408L869.631 312.408L869.631 314.751L867.288 314.751L867.288 312.408z"/>
<path class="l5" d="M867.288 331.151L869.631 331.151L869.631 333.494L867.288 333.494L867.288 331.151z"/>
<path class="l5" d="M886.032 340.523L888.375 340.523L888.375 342.866L886.032 342.866L886.032 340.523z"/>
<path class="l5" d="M915.099 294.616L915.538 294.616L915.538 295.055L915.099 295.055L915.099 294.616z"/>
<path class="l5" d="M910.047 294.25L911.218 294.25L911.218 295.422L910.047 295.422L910.047 294.25z"/>
<path class="l5" d="M750.728 125.559L751.899 125.559L751.899 126.731L750.728 126.731L750.728 125.559z"/>
<path class="l5" d="M750.728 106.816L751.899 106.816L751.899 107.987L750.728 107.987L750.728 106.816z"/>
<path class="l5" d="M886.032 35.9422L888.375 35.9422L888.375 38.2851L886.032 38.2851L886.032 35.9422z"/>
<path class="l5" d="M886.032 64.0574L888.375 64.0574L888.375 66.4003L886.032 66.4003L886.032 64.0574z"/>
<path class="l5" d="M867.288 40.6281L869.631 40.6281L869.631 42.971L867.288 42.971L867.288 40.6281z"/>
<path class="l5" d="M867.288 59.3715L869.631 59.3715L869.631 61.7144L867.288 61.7144L867.288 59.3715z"/>
<path class="l5" d="M591.409 359.852L592.58 359.852L592.58 361.024L591.409 361.024L591.409 359.852z"/>
<path class="l5" d="M591.409 378.595L592.58 378.595L592.58 379.767L591.409 379.767L591.409 378.595z"/>
<path class="l5" d="M548.65 359.266L550.993 359.266L550.993 361.609L548.65 361.609L548.65 359.266z"/>
<path class="l5" d="M576.765 359.266L579.108 359.266L579.108 361.609L576.765 361.609L576.765 359.266z"/>
<path class="l6" d="M336.615 650.961L709.141 650.961"/>
<path class="l6" d="M156.21 650.961L186.668 650.961"/>
<path class="l15" d="M518.778 356.338L521.707 352.823"/>
<path class="l15" d="M517.021 360.438L518.778 356.338"/>
<path class="l15" d="M521.707 347.552L521.707 353.995"/>
<path class="l15" d="M520.535 352.823L530.492 352.823"/>
<path class="l15" d="M522.878 351.066L525.221 351.066"/>
<path class="l15" d="M525.221 349.309L525.221 351.066"/>
<path class="l15" d="M525.221 349.309L526.978 349.309"/>
<path class="l15" d="M526.978 349.309L526.978 351.066"/>
<path class="l15" d="M526.978 351.066L528.735 351.066"/>
<path class="l15" d="M528.735 349.309L528.735 351.066"/>
<path class="l15" d="M528.735 349.309L530.053 349.309"/>
<path class="l15" d="M706.212 375.081L709.141 371.567"/>
<path class="l15" d="M704.455 379.181L706.212 375.081"/>
<path class="l15" d="M709.141 366.295L709.141 372.738"/>
<path class="l15" d="M707.969 371.567L717.927 371.567"/>
<path class="l15" d="M710.312 369.81L712.655 369.81"/>
<path class="l15" d="M712.655 368.052L712.655 369.81"/>
<path class="l15" d="M712.655 368.052L714.412 368.052"/>
<path class="l15" d="M714.412 368.052L714.412 369.81"/>
<path class="l15" d="M714.412 369.81L716.17 369.81"/>
<path class="l15" d="M716.17 368.052L716.17 369.81"/>
<path class="l15" d="M716.17 368.052L717.487 368.052"/>
<path class="l15" d="M664.039 440.683L666.968 437.169"/>
<path class="l15" d="M662.282 444.783L664.039 440.683"/>
<path class="l15" d="M666.968 431.897L666.968 438.34"/>
<path class="l15" d="M665.797 437.169L675.754 437.169"/>
<path class="l15" d="M668.14 435.412L670.482 435.412"/>
<path class="l15" d="M670.482 433.654L670.482 435.412"/>
<path class="l15" d="M670.482 433.654L672.24 433.654"/>
<path class="l15" d="M672.24 433.654L672.24 435.412"/>
<path class="l15" d="M672.24 435.412L673.997 435.412"/>
<path class="l15" d="M673.997 433.654L673.997 435.412"/>
<path class="l15" d="M673.997 433.654L675.315 433.654"/>
<path class="l15" d="M706.212 356.338L709.141 352.823"/>
<path class="l15" d="M704.455 360.438L706.212 356.338"/>
<path class="l15" d="M709.141 347.552L709.141 353.995"/>
<path class="l15" d="M707.969 352.823L717.927 352.823"/>
<path class="l15" d="M710.312 351.066L712.655 351.066"/>
<path class="l15" d="M712.655 349.309L712.655 351.066"/>
<path class="l15" d="M712.655 349.309L714.412 349.309"/>
<path class="l15" d="M714.412 349.309L714.412 351.066"/>
<path class="l15" d="M714.412 351.066L716.17 351.066"/>
<path class="l15" d="M716.17 349.309L716.17 351.066"/>
<path class="l15" d="M716.17 349.309L717.487 349.309"/>
<path class="l15" d="M537.521 103.301L540.45 99.787"/>
<path class="l15" d="M535.764 107.402L537.521 103.301"/>
<path class="l15" d="M540.45 94.5154L540.45 100.958"/>
<path class="l15" d="M539.278 99.787L549.236 99.787"/>
<path class="l15" d="M541.621 98.0298L543.964 98.0298"/>
<path class="l15" d="M543.964 96.2726L543.964 98.0298"/>
<path class="l15" d="M543.964 96.2726L545.722 96.2726"/>
<path class="l15" d="M545.722 96.2726L545.722 98.0298"/>
<path class="l15" d="M545.722 98.0298L547.479 98.0298"/>
<path class="l15" d="M547.479 96.2726L547.479 98.0298"/>
<path class="l15" d="M547.479 96.2726L548.797 96.2726"/>
<path class="l15" d="M706.212 122.045L709.141 118.53"/>
<path class="l15" d="M704.455 126.145L706.212 122.045"/>
<path class="l15" d="M709.141 113.259L709.141 119.702"/>
<path class="l15" d="M707.969 118.53L717.927 118.53"/>
<path class="l15" d="M710.312 116.773L712.655 116.773"/>
<path class="l15" d="M712.655 115.016L712.655 116.773"/>
<path class="l15" d="M712.655 115.016L714.412 115.016"/>
<path class="l15" d="M714.412 115.016L714.412 116.773"/>
<path class="l15" d="M714.412 116.773L716.17 116.773"/>
<path class="l15" d="M716.17 115.016L716.17 116.773"/>
<path class="l15" d="M716.17 115.016L717.487 115.016"/>
<path class="l15" d="M706.212 103.301L709.141 99.787"/>
<path class="l15" d="M704.455 107.402L706.212 103.301"/>
<path class="l15" d="M709.141 94.5154L709.141 100.958"/>
<path class="l15" d="M707.969 99.787L717.927 99.787"/>
<path class="l15" d="M710.312 98.0298L712.655 98.0298"/>
<path class="l15" d="M712.655 96.2726L712.655 98.0298"/>
<path class="l15" d="M712.655 96.2726L714.412 96.2726"/>
<path class="l15" d="M714.412 96.2726L714.412 98.0298"/>
<path class="l15" d="M714.412 98.0298L716.17 98.0298"/>
<path class="l15" d="M716.17 96.2726L716.17 98.0298"/>
<path class="l15" d="M716.17 96.2726L717.487 96.2726"/>
<path class="l15" d="M917.076 18.956L920.004 15.4416"/>
<path class="l15" d="M915.318 23.0561L917.076 18.956"/>
<path class="l15" d="M920.004 10.17L920.004 16.6131"/>
<path class="l15" d="M918.833 15.4416L928.79 15.4416"/>
<path class="l15" d="M921.176 13.6844L923.519 13.6844"/>
<path class="l15" d="M923.519 11.9272L923.519 13.6844"/>
<path class="l15" d="M923.519 11.9272L925.276 11.9272"/>
<path class="l15" d="M925.276 11.9272L925.276 13.6844"/>
<path class="l15" d="M925.276 13.6844L927.033 13.6844"/>
<path class="l15" d="M927.033 11.9272L927.033 13.6844"/>
<path class="l15" d="M927.033 11.9272L928.351 11.9272"/>
<path class="l15" d="M917.076 290.736L920.004 287.221"/>
<path class="l15" d="M915.318 294.836L917.076 290.736"/>
<path class="l15" d="M920.004 281.95L920.004 288.393"/>
<path class="l15" d="M918.833 287.221L928.79 287.221"/>
<path class="l15" d="M921.176 285.464L923.519 285.464"/>
<path class="l15" d="M923.519 283.707L923.519 285.464"/>
<path class="l15" d="M923.519 283.707L925.276 283.707"/>
<path class="l15" d="M925.276 283.707L925.276 285.464"/>
<path class="l15" d="M925.276 285.464L927.033 285.464"/>
<path class="l15" d="M927.033 283.707L927.033 285.464"/>
<path class="l15" d="M927.033 283.707L928.351 283.707"/>
<text fill="#222222"  xml:space="preserve" font-size="7.30994" transform="translate(158.553, 573.253)" >MODEL</text>
<text fill="#222222"  xml:space="preserve" font-size="7.30994" style="font-family:Monospace;" transform="translate(163.238, 593.352)" >.lib cornerMOSlv.lib mos_tt</text>
<text fill="#222222"  xml:space="preserve" font-size="7.30994" style="font-family:Monospace;" transform="translate(163.238, 601.737)" >.lib cornerRES.lib res_typ</text>
<text fill="#222222"  xml:space="preserve" font-size="7.30994" style="font-family:Monospace;" transform="translate(163.238, 610.121)" >.lib cornerCAP.lib cap_typ</text>
<text fill="#222222"  xml:space="preserve" font-size="7.30994" transform="translate(158.553, 235.871)" >NGSPICE</text>
<text fill="#222222"  xml:space="preserve" font-size="7.30994" style="font-family:Monospace;" transform="translate(163.238, 255.97)" >.temp 27</text>
<text fill="#222222"  xml:space="preserve" font-size="7.30994" style="font-family:Monospace;" transform="translate(163.238, 264.355)" >.include ota-diff_tb-acol.save</text>
<text fill="#222222"  xml:space="preserve" font-size="7.30994" style="font-family:Monospace;" transform="translate(163.238, 272.739)" >.control</text>
<text fill="#222222"  xml:space="preserve" font-size="7.30994" style="font-family:Monospace;" transform="translate(163.238, 281.124)" >option sparse</text>
<text fill="#222222"  xml:space="preserve" font-size="7.30994" style="font-family:Monospace;" transform="translate(163.238, 289.508)" >set filetype=ascii</text>
<text fill="#222222"  xml:space="preserve" font-size="7.30994" style="font-family:Monospace;" transform="translate(163.238, 297.893)" >save all</text>
<text fill="#222222"  xml:space="preserve" font-size="7.30994" style="font-family:Monospace;" transform="translate(163.238, 314.662)" >op</text>
<text fill="#222222"  xml:space="preserve" font-size="7.30994" style="font-family:Monospace;" transform="translate(163.238, 323.046)" >write ota-diff_tb-acol.raw</text>
<text fill="#222222"  xml:space="preserve" font-size="7.30994" style="font-family:Monospace;" transform="translate(163.238, 331.431)" >set appendwrite</text>
<text fill="#222222"  xml:space="preserve" font-size="7.30994" style="font-family:Monospace;" transform="translate(163.238, 348.2)" >ac dec 101 1k 10G</text>
<text fill="#222222"  xml:space="preserve" font-size="7.30994" style="font-family:Monospace;" transform="translate(163.238, 356.584)" >write ota-diff_tb-acol.raw</text>
<text fill="#222222"  xml:space="preserve" font-size="7.30994" style="font-family:Monospace;" transform="translate(163.238, 364.969)" >plot 20*log10(vout)</text>
<text fill="#222222"  xml:space="preserve" font-size="7.30994" style="font-family:Monospace;" transform="translate(163.238, 373.353)" >plot cph(vout)*180/pi</text>
<text fill="#222222"  xml:space="preserve" font-size="7.30994" style="font-family:Monospace;" transform="translate(163.238, 381.738)" >plot 20*log10(voutcm)</text>
<text fill="#222222"  xml:space="preserve" font-size="7.30994" style="font-family:Monospace;" transform="translate(163.238, 390.122)" >plot cph(voutcm)*180/pi</text>
<text fill="#222222"  xml:space="preserve" font-size="7.30994" style="font-family:Monospace;" transform="translate(163.238, 406.891)" >.endc</text>
<text fill="#222222"  xml:space="preserve" font-size="4.87329" transform="translate(399.874, 281.103)" >Vdd</text>
<text fill="#222222"  xml:space="preserve" font-size="4.87329" transform="translate(399.874, 292.818)" >1.5</text>
<text fill="#0099cc"  xml:space="preserve" font-size="4.87329" transform="translate(394.017, 315.661)" >GND</text>
<text fill="#222222"  xml:space="preserve" font-size="9.74658" transform="translate(341.301, 662.154)" >         ota-diff_tb-acol.sch</text>
<text fill="#222222"  xml:space="preserve" font-size="9.74658" transform="translate(341.301, 648.096)" >(c) 2024-2025 Harald Pretl, Apache-2.0 license</text>
<text fill="#222222"  xml:space="preserve" font-size="9.74658" transform="translate(605.141, 648.096)" >2025-10-02  22:08:30</text>
<text fill="#222222"  xml:space="preserve" font-size="24.3665" transform="translate(233.526, 661.371)" >SCHEM</text>
<text fill="#222222"  xml:space="preserve" font-size="9.74658" transform="translate(395.188, 593.395)" >simulate</text>
<text fill="#222222"  xml:space="preserve" font-size="9.74658" transform="translate(507.649, 593.395)" >annotate OP</text>
<text fill="#0099cc"  xml:space="preserve" font-size="8.04093" transform="translate(367.988, 265.529)" >v_dd</text>
<text fill="#222222"  xml:space="preserve" font-size="4.87329" transform="translate(622.452, 371.423)" >ota-diff</text>
<text fill="#222222"  xml:space="preserve" font-size="4.87329" transform="translate(692.74, 331.125)" >xota</text>
<text fill="#222222"  xml:space="preserve" font-size="4.87329" transform="translate(644.248, 344.037) rotate(270)" >vdd</text>
<text fill="#222222"  xml:space="preserve" font-size="4.87329" transform="translate(617.767, 362.988)" >vinp</text>
<text fill="#222222"  xml:space="preserve" font-size="4.87329" transform="translate(617.767, 381.732)" >vinn</text>
<text fill="#222222"  xml:space="preserve" font-size="4.87329" transform="translate(662.992, 356.666) rotate(270)" >ibias_20u</text>
<text fill="#222222"  xml:space="preserve" font-size="4.87329" transform="translate(662.992, 404.896) rotate(270)" >d_ena</text>
<text fill="#222222"  xml:space="preserve" font-size="4.87329" transform="translate(644.248, 404.953) rotate(270)" >vss</text>
<text fill="#222222"  xml:space="preserve" font-size="4.87329" transform="translate(673.997, 358.303)" >voutn</text>
<text fill="#222222"  xml:space="preserve" font-size="4.87329" transform="translate(673.997, 377.046)" >voutp</text>
<text fill="#222222"  xml:space="preserve" font-size="4.87329" transform="translate(437.361, 281.103)" >Vss</text>
<text fill="#222222"  xml:space="preserve" font-size="4.87329" transform="translate(437.361, 292.818)" >0</text>
<text fill="#0099cc"  xml:space="preserve" font-size="4.87329" transform="translate(431.504, 315.661)" >GND</text>
<text fill="#0099cc"  xml:space="preserve" font-size="8.04093" transform="translate(407.475, 265.529)" >v_ss</text>
<text fill="#666600"  xml:space="preserve" font-size="4.87329" transform="translate(764.714, 394.735)" >1</text>
<text fill="#666600"  xml:space="preserve" font-size="4.87329" transform="translate(764.714, 414.65)" >2</text>
<text fill="#222222"  xml:space="preserve" font-size="4.87329" transform="translate(777.086, 398.249)" >C1</text>
<text fill="#222222"  xml:space="preserve" font-size="4.87329" transform="translate(777.086, 404.107)" >100f</text>
<text fill="#222222"  xml:space="preserve" font-size="4.87329" transform="translate(777.086, 409.964)" >m=1</text>
<text fill="#0099cc"  xml:space="preserve" font-size="6.57894" transform="translate(726.456, 377.023)" >voutp</text>
<text fill="#222222"  xml:space="preserve" font-size="4.87329" transform="translate(488.906, 407.621)" >Vcm</text>
<text fill="#222222"  xml:space="preserve" font-size="4.87329" transform="translate(488.906, 419.336)" >dc 0.75</text>
<text fill="#0099cc"  xml:space="preserve" font-size="6.57894" transform="translate(489.477, 358.28)" >v_cm</text>
<text fill="#222222"  xml:space="preserve" font-size="4.87329" transform="translate(671.654, 303.947)" >I0</text>
<text fill="#222222"  xml:space="preserve" font-size="4.87329" transform="translate(671.654, 309.536)" >20u</text>
<text fill="#222222"  xml:space="preserve" font-size="4.87329" transform="translate(671.654, 459.166)" >Venable</text>
<text fill="#222222"  xml:space="preserve" font-size="4.87329" transform="translate(671.654, 470.88)" >1.5</text>
<text fill="#0099cc"  xml:space="preserve" font-size="6.57894" transform="translate(642.111, 414.51)" >v_ena</text>
<text fill="#222222"  xml:space="preserve" font-size="4.87329" transform="translate(549.822, 379.506)" >Vin</text>
<text fill="#222222"  xml:space="preserve" font-size="4.87329" transform="translate(549.822, 391.221)" >dc 0 ac 1</text>
<text fill="#666600"  xml:space="preserve" font-size="4.87329" transform="translate(806.887, 375.992)" >1</text>
<text fill="#666600"  xml:space="preserve" font-size="4.87329" transform="translate(806.887, 395.907)" >2</text>
<text fill="#222222"  xml:space="preserve" font-size="4.87329" transform="translate(819.258, 379.506)" >C2</text>
<text fill="#222222"  xml:space="preserve" font-size="4.87329" transform="translate(819.258, 385.363)" >100f</text>
<text fill="#222222"  xml:space="preserve" font-size="4.87329" transform="translate(819.258, 391.221)" >m=1</text>
<text fill="#0099cc"  xml:space="preserve" font-size="6.57894" transform="translate(726.456, 358.28)" >voutn</text>
<text fill="#222222"  xml:space="preserve" font-size="4.87329" transform="translate(622.452, 118.387)" >ota-diff</text>
<text fill="#222222"  xml:space="preserve" font-size="4.87329" transform="translate(692.74, 78.0883)" >xota1</text>
<text fill="#222222"  xml:space="preserve" font-size="4.87329" transform="translate(644.248, 91.001) rotate(270)" >vdd</text>
<text fill="#222222"  xml:space="preserve" font-size="4.87329" transform="translate(617.767, 109.952)" >vinp</text>
<text fill="#222222"  xml:space="preserve" font-size="4.87329" transform="translate(617.767, 128.696)" >vinn</text>
<text fill="#222222"  xml:space="preserve" font-size="4.87329" transform="translate(662.992, 103.629) rotate(270)" >ibias_20u</text>
<text fill="#222222"  xml:space="preserve" font-size="4.87329" transform="translate(662.992, 151.86) rotate(270)" >d_ena</text>
<text fill="#222222"  xml:space="preserve" font-size="4.87329" transform="translate(644.248, 151.917) rotate(270)" >vss</text>
<text fill="#222222"  xml:space="preserve" font-size="4.87329" transform="translate(673.997, 105.266)" >voutn</text>
<text fill="#222222"  xml:space="preserve" font-size="4.87329" transform="translate(673.997, 124.01)" >voutp</text>
<text fill="#666600"  xml:space="preserve" font-size="4.87329" transform="translate(769.4, 141.699)" >1</text>
<text fill="#666600"  xml:space="preserve" font-size="4.87329" transform="translate(769.4, 161.614)" >2</text>
<text fill="#222222"  xml:space="preserve" font-size="4.87329" transform="translate(781.772, 145.213)" >C3</text>
<text fill="#222222"  xml:space="preserve" font-size="4.87329" transform="translate(781.772, 151.071)" >100f</text>
<text fill="#222222"  xml:space="preserve" font-size="4.87329" transform="translate(781.772, 156.928)" >m=1</text>
<text fill="#222222"  xml:space="preserve" font-size="4.87329" transform="translate(488.906, 154.585)" >Vcm1</text>
<text fill="#222222"  xml:space="preserve" font-size="4.87329" transform="translate(488.906, 166.3)" >dc 0.75 ac 1</text>
<text fill="#0099cc"  xml:space="preserve" font-size="6.57894" transform="translate(486.477, 105.243)" >vincm</text>
<text fill="#222222"  xml:space="preserve" font-size="4.87329" transform="translate(671.654, 50.9103)" >I1</text>
<text fill="#222222"  xml:space="preserve" font-size="4.87329" transform="translate(671.654, 56.5)" >20u</text>
<text fill="#0099cc"  xml:space="preserve" font-size="6.57894" transform="translate(670.226, 175.531)" >v_ena</text>
<text fill="#666600"  xml:space="preserve" font-size="4.87329" transform="translate(806.887, 122.955)" >1</text>
<text fill="#666600"  xml:space="preserve" font-size="4.87329" transform="translate(806.887, 142.87)" >2</text>
<text fill="#222222"  xml:space="preserve" font-size="4.87329" transform="translate(819.258, 126.47)" >C4</text>
<text fill="#222222"  xml:space="preserve" font-size="4.87329" transform="translate(819.258, 132.327)" >100f</text>
<text fill="#222222"  xml:space="preserve" font-size="4.87329" transform="translate(819.258, 138.184)" >m=1</text>
<text fill="#0099cc"  xml:space="preserve" font-size="8.04093" transform="translate(459.019, 209.298)" >v_ss</text>
<text fill="#0099cc"  xml:space="preserve" font-size="8.04093" transform="translate(621.024, 31.2359)" >v_dd</text>
<text fill="#222222"  xml:space="preserve" font-size="4.87329" transform="translate(896.575, 86.0543)" >0.5</text>
<text fill="#222222"  xml:space="preserve" font-size="4.87329" transform="translate(896.575, 75.5111)" >E1</text>
<text fill="#0099cc"  xml:space="preserve" font-size="4.87329" transform="translate(890.718, 118.855)" >GND</text>
<text fill="#0099cc"  xml:space="preserve" font-size="6.57894" transform="translate(884.461, 20.898)" >voutcm</text>
<text fill="#0099cc"  xml:space="preserve" font-size="8.04093" transform="translate(621.024, 284.272)" >v_dd</text>
<text fill="#0099cc"  xml:space="preserve" font-size="8.04093" transform="translate(459.019, 490.45)" >v_ss</text>
<text fill="#222222"  xml:space="preserve" font-size="4.87329" transform="translate(896.575, 329.719)" >1</text>
<text fill="#222222"  xml:space="preserve" font-size="4.87329" transform="translate(896.575, 319.176)" >E2</text>
<text fill="#0099cc"  xml:space="preserve" font-size="4.87329" transform="translate(890.718, 348.462)" >GND</text>
<text fill="#0099cc"  xml:space="preserve" font-size="6.57894" transform="translate(894.461, 292.678)" >vout</text>
<text fill="#0099cc"  xml:space="preserve" font-size="6.57894" transform="translate(721.142, 123.987)" >voutcmp</text>
<text fill="#0099cc"  xml:space="preserve" font-size="6.57894" transform="translate(721.142, 105.243)" >voutcmn</text>
<text fill="#222222"  xml:space="preserve" font-size="4.87329" transform="translate(896.575, 57.9391)" >0.5</text>
<text fill="#222222"  xml:space="preserve" font-size="4.87329" transform="translate(896.575, 47.3959)" >E3</text>
<text fill="#0099cc"  xml:space="preserve" font-size="6.57894" transform="translate(576.823, 358.28)" >vinp</text>
<text fill="#0099cc"  xml:space="preserve" font-size="6.57894" transform="translate(576.823, 377.023)" >vinn</text>
<text fill="#222222"  xml:space="preserve" font-size="4.87329" transform="translate(559.518, 351.066) rotate(270)" >Vin1</text>
<text fill="#222222"  xml:space="preserve" font-size="4.87329" transform="translate(571.233, 351.066) rotate(270)" >0</text>
<path class="l1" d="M390.503 299.522L390.503 308.893"/>
<path class="l1" d="M427.989 299.522L427.989 308.893"/>
<path class="l1" d="M427.989 262.035L427.989 271.407"/>
<path class="l1" d="M643.539 280.778L662.282 280.778"/>
<path class="l1" d="M643.539 407.296L643.539 486.956"/>
<path class="l1" d="M770.057 416.668L770.057 486.956"/>
<path class="l1" d="M690.397 379.181L770.057 379.181"/>
<path class="l1" d="M573.251 379.181L606.052 379.181"/>
<path class="l1" d="M479.534 426.04L479.534 486.956"/>
<path class="l1" d="M479.534 360.438L479.534 397.925"/>
<path class="l1" d="M662.282 280.778L662.282 290.15"/>
<path class="l1" d="M662.282 318.265L662.282 332.323"/>
<path class="l1" d="M390.503 262.035L390.503 271.407"/>
<path class="l1" d="M643.539 280.778L643.539 332.323"/>
<path class="l1" d="M662.282 477.584L662.282 486.956"/>
<path class="l1" d="M643.539 486.956L662.282 486.956"/>
<path class="l1" d="M479.534 486.956L643.539 486.956"/>
<path class="l1" d="M662.282 407.296L662.282 449.469"/>
<path class="l1" d="M540.45 360.438L540.45 369.81"/>
<path class="l1" d="M479.534 360.438L540.45 360.438"/>
<path class="l1" d="M573.251 379.181L573.251 411.982"/>
<path class="l1" d="M540.45 411.982L573.251 411.982"/>
<path class="l1" d="M540.45 397.925L540.45 411.982"/>
<path class="l1" d="M812.23 397.925L812.23 486.956"/>
<path class="l1" d="M770.057 379.181L770.057 388.553"/>
<path class="l1" d="M770.057 486.956L812.23 486.956"/>
<path class="l1" d="M662.282 486.956L770.057 486.956"/>
<path class="l1" d="M812.23 360.438L812.23 369.81"/>
<path class="l1" d="M643.539 27.742L662.282 27.742"/>
<path class="l1" d="M479.534 173.004L479.534 205.805"/>
<path class="l1" d="M479.534 107.402L479.534 144.888"/>
<path class="l1" d="M577.937 107.402L606.052 107.402"/>
<path class="l1" d="M662.282 27.742L662.282 37.1137"/>
<path class="l1" d="M662.282 60.543L662.282 79.2864"/>
<path class="l1" d="M643.539 27.742L643.539 79.2864"/>
<path class="l1" d="M577.937 107.402L577.937 126.145"/>
<path class="l1" d="M479.534 107.402L577.937 107.402"/>
<path class="l1" d="M774.743 126.145L774.743 135.517"/>
<path class="l1" d="M685.711 107.402L812.23 107.402"/>
<path class="l1" d="M812.23 107.402L812.23 116.773"/>
<path class="l1" d="M577.937 126.145L606.052 126.145"/>
<path class="l1" d="M887.203 102.716L887.203 112.087"/>
<path class="l1" d="M812.23 69.9147L812.23 107.402"/>
<path class="l1" d="M887.203 23.0561L887.203 37.1137"/>
<path class="l1" d="M887.203 23.0561L915.318 23.0561"/>
<path class="l1" d="M662.282 177.689L690.397 177.689"/>
<path class="l1" d="M662.282 154.26L662.282 177.689"/>
<path class="l1" d="M685.711 360.438L812.23 360.438"/>
<path class="l1" d="M887.203 337.009L887.203 341.694"/>
<path class="l1" d="M887.203 294.836L887.203 308.893"/>
<path class="l1" d="M887.203 294.836L915.318 294.836"/>
<path class="l1" d="M812.23 332.323L868.46 332.323"/>
<path class="l1" d="M812.23 332.323L812.23 360.438"/>
<path class="l1" d="M770.057 313.579L868.46 313.579"/>
<path class="l1" d="M770.057 313.579L770.057 379.181"/>
<path class="l1" d="M859.088 60.543L868.46 60.543"/>
<path class="l1" d="M859.088 88.6581L859.088 102.716"/>
<path class="l1" d="M859.088 102.716L887.203 102.716"/>
<path class="l1" d="M887.203 93.344L887.203 102.716"/>
<path class="l1" d="M859.088 88.6581L868.46 88.6581"/>
<path class="l1" d="M859.088 60.543L859.088 88.6581"/>
<path class="l1" d="M774.743 41.7995L868.46 41.7995"/>
<path class="l1" d="M774.743 41.7995L774.743 126.145"/>
<path class="l1" d="M774.743 205.805L812.23 205.805"/>
<path class="l1" d="M643.539 154.26L643.539 205.805"/>
<path class="l1" d="M479.534 205.805L643.539 205.805"/>
<path class="l1" d="M812.23 144.888L812.23 205.805"/>
<path class="l1" d="M774.743 163.632L774.743 205.805"/>
<path class="l1" d="M643.539 205.805L774.743 205.805"/>
<path class="l1" d="M812.23 69.9147L868.46 69.9147"/>
<path class="l1" d="M690.397 126.145L774.743 126.145"/>
<path class="l1" d="M540.45 360.438L549.822 360.438"/>
<path class="l1" d="M577.937 360.438L606.052 360.438"/>
<circle class="l1" cx="643.539" cy="205.805" r="1.73377"/>
<circle class="l1" cx="577.937" cy="107.402" r="1.73377"/>
<circle class="l1" cx="540.45" cy="360.438" r="1.73377"/>
<circle class="l1" cx="643.539" cy="486.956" r="1.73377"/>
<circle class="l1" cx="774.743" cy="126.145" r="1.73377"/>
<circle class="l1" cx="643.539" cy="205.805" r="1.73377"/>
<circle class="l1" cx="774.743" cy="205.805" r="1.73377"/>
<circle class="l1" cx="643.539" cy="205.805" r="1.73377"/>
<circle class="l1" cx="812.23" cy="107.402" r="1.73377"/>
<circle class="l1" cx="577.937" cy="107.402" r="1.73377"/>
<circle class="l1" cx="577.937" cy="107.402" r="1.73377"/>
<circle class="l1" cx="540.45" cy="360.438" r="1.73377"/>
<circle class="l1" cx="812.23" cy="360.438" r="1.73377"/>
<circle class="l1" cx="540.45" cy="360.438" r="1.73377"/>
<circle class="l1" cx="770.057" cy="379.181" r="1.73377"/>
<circle class="l1" cx="643.539" cy="486.956" r="1.73377"/>
<circle class="l1" cx="662.282" cy="486.956" r="1.73377"/>
<circle class="l1" cx="770.057" cy="486.956" r="1.73377"/>
<circle class="l1" cx="643.539" cy="486.956" r="1.73377"/>
<circle class="l1" cx="662.282" cy="486.956" r="1.73377"/>
<circle class="l1" cx="662.282" cy="486.956" r="1.73377"/>
<circle class="l1" cx="774.743" cy="126.145" r="1.73377"/>
<circle class="l1" cx="859.088" cy="88.6581" r="1.73377"/>
<circle class="l1" cx="859.088" cy="88.6581" r="1.73377"/>
<circle class="l1" cx="887.203" cy="102.716" r="1.73377"/>
<circle class="l1" cx="859.088" cy="88.6581" r="1.73377"/>
<circle class="l1" cx="812.23" cy="107.402" r="1.73377"/>
<circle class="l1" cx="774.743" cy="205.805" r="1.73377"/>
<circle class="l1" cx="774.743" cy="205.805" r="1.73377"/>
<circle class="l1" cx="887.203" cy="102.716" r="1.73377"/>
<circle class="l1" cx="887.203" cy="102.716" r="1.73377"/>
<circle class="l1" cx="812.23" cy="107.402" r="1.73377"/>
<circle class="l1" cx="774.743" cy="126.145" r="1.73377"/>
<circle class="l1" cx="770.057" cy="379.181" r="1.73377"/>
<circle class="l1" cx="812.23" cy="360.438" r="1.73377"/>
<circle class="l1" cx="812.23" cy="360.438" r="1.73377"/>
<circle class="l1" cx="770.057" cy="379.181" r="1.73377"/>
<circle class="l1" cx="770.057" cy="486.956" r="1.73377"/>
<circle class="l1" cx="770.057" cy="486.956" r="1.73377"/>
</svg>
