<svg xmlns="http://www.w3.org/2000/svg" xmlns:xlink="http://www.w3.org/1999/xlink" width="1066" height="666" version="1.1">
<style type="text/css">
.l0{
  fill: #ffffff;
  stroke: #ffffff;
  stroke-linecap:round;
  stroke-linejoin:round;
  stroke-width: 0.621394;
}
.l1{
  fill: #0099cc;
  stroke: #0099cc;
  stroke-linecap:round;
  stroke-linejoin:round;
  stroke-width: 0.621394;
}
.l2{
  fill: #aaaaaa; fill-opacity: 0.2;
  stroke: #aaaaaa;
  stroke-linecap:round;
  stroke-linejoin:round;
  stroke-width: 0.621394;
}
.l3{
  fill: #222222; fill-opacity: 0.5;
  stroke: #222222;
  stroke-linecap:round;
  stroke-linejoin:round;
  stroke-width: 0.621394;
}
.l4{
  fill: #229900;
  stroke: #229900;
  stroke-linecap:round;
  stroke-linejoin:round;
  stroke-width: 0.621394;
}
.l5{
  fill: #bb2200;
  stroke: #bb2200;
  stroke-linecap:round;
  stroke-linejoin:round;
  stroke-width: 0.621394;
}
.l6{
  fill: #0066cc; fill-opacity: 0.5;
  stroke: #0066cc;
  stroke-linecap:round;
  stroke-linejoin:round;
  stroke-width: 0.621394;
}
.l7{
  fill: #ff0000; fill-opacity: 0.5;
  stroke: #ff0000;
  stroke-linecap:round;
  stroke-linejoin:round;
  stroke-width: 0.621394;
}
.l8{
  fill: #888800; fill-opacity: 0.5;
  stroke: #888800;
  stroke-linecap:round;
  stroke-linejoin:round;
  stroke-width: 0.621394;
}
.l9{
  fill: #00aaaa; fill-opacity: 0.5;
  stroke: #00aaaa;
  stroke-linecap:round;
  stroke-linejoin:round;
  stroke-width: 0.621394;
}
.l10{
  fill: #880088;
  stroke: #880088;
  stroke-linecap:round;
  stroke-linejoin:round;
  stroke-width: 0.621394;
}
.l11{
  fill: #00ff00; fill-opacity: 0.5;
  stroke: #00ff00;
  stroke-linecap:round;
  stroke-linejoin:round;
  stroke-width: 0.621394;
}
.l12{
  fill: #0000cc; fill-opacity: 0.5;
  stroke: #0000cc;
  stroke-linecap:round;
  stroke-linejoin:round;
  stroke-width: 0.621394;
}
.l13{
  fill: #666600; fill-opacity: 0.5;
  stroke: #666600;
  stroke-linecap:round;
  stroke-linejoin:round;
  stroke-width: 0.621394;
}
.l14{
  fill: #557755; fill-opacity: 0.2;
  stroke: #557755;
  stroke-linecap:round;
  stroke-linejoin:round;
  stroke-width: 0.621394;
}
.l15{
  fill: #aa2222; fill-opacity: 0.5;
  stroke: #aa2222;
  stroke-linecap:round;
  stroke-linejoin:round;
  stroke-width: 0.621394;
}
.l16{
  fill: #7ccc40; fill-opacity: 0.5;
  stroke: #7ccc40;
  stroke-linecap:round;
  stroke-linejoin:round;
  stroke-width: 0.621394;
}
.l17{
  fill: #00ffcc; fill-opacity: 0.2;
  stroke: #00ffcc;
  stroke-linecap:round;
  stroke-linejoin:round;
  stroke-width: 0.621394;
}
.l18{
  fill: #ce0097; fill-opacity: 0.5;
  stroke: #ce0097;
  stroke-linecap:round;
  stroke-linejoin:round;
  stroke-width: 0.621394;
}
.l19{
  fill: #d2d46b; fill-opacity: 0.2;
  stroke: #d2d46b;
  stroke-linecap:round;
  stroke-linejoin:round;
  stroke-width: 0.621394;
}
.l20{
  fill: #ef6158; fill-opacity: 0.2;
  stroke: #ef6158;
  stroke-linecap:round;
  stroke-linejoin:round;
  stroke-width: 0.621394;
}
.l21{
  fill: #fdb200; fill-opacity: 0.2;
  stroke: #fdb200;
  stroke-linecap:round;
  stroke-linejoin:round;
  stroke-width: 0.621394;
}
text {font-family: Sans-Serif;}
</style>
<rect class="l0" x="0" y="0" width="1066" height="666"/>
<path class="l4" d="M153.547 565.793L185.767 565.793"/>
<path class="l4" d="M153.547 565.793L153.547 574.999"/>
<path class="l4" d="M153.547 234.382L185.767 234.382"/>
<path class="l4" d="M153.547 234.382L153.547 243.588"/>
<path class="l4" d="M384.843 270.055L387.145 270.055"/>
<path class="l4" d="M385.994 268.904L385.994 271.206"/>
<path class="l4" d="M383.693 266.603L383.693 294.22"/>
<circle class="l4" cx="383.693" cy="280.412" r="6.90438" style="fill:none;" />
<path class="l4" d="M383.693 303.426L383.693 309.18"/>
<path class="l4" d="M381.391 309.18L385.994 309.18"/>
<path class="l4" d="M383.693 311.481L385.994 309.18"/>
<path class="l4" d="M381.391 309.18L383.693 311.481"/>
<path class="l4" d="M383.693 579.602L369.884 573.848L369.884 577.3L356.075 577.3L360.678 579.602L356.075 581.903L369.884 581.903L369.884 585.355L383.693 579.602"/>
<path class="l4" d="M494.163 579.602L480.354 573.848L480.354 577.3L466.545 577.3L471.148 579.602L466.545 581.903L480.354 581.903L480.354 585.355L494.163 579.602"/>
<path class="l4" d="M650.662 354.058L678.28 354.058"/>
<path class="l4" d="M595.427 354.058L604.633 354.058"/>
<path class="l4" d="M595.427 372.47L604.633 372.47"/>
<path class="l4" d="M604.633 335.647L604.633 390.882"/>
<path class="l4" d="M604.633 390.882L669.074 363.264"/>
<path class="l4" d="M604.633 335.647L669.074 363.264"/>
<path class="l4" d="M595.427 326.441L678.28 326.441"/>
<path class="l4" d="M678.28 326.441L678.28 400.088"/>
<path class="l4" d="M595.427 400.088L678.28 400.088"/>
<path class="l4" d="M595.427 326.441L595.427 400.088"/>
<path class="l4" d="M650.662 372.47L678.28 372.47"/>
<path class="l4" d="M421.667 270.055L423.968 270.055"/>
<path class="l4" d="M422.818 268.904L422.818 271.206"/>
<path class="l4" d="M420.516 266.603L420.516 294.22"/>
<circle class="l4" cx="420.516" cy="280.412" r="6.90438" style="fill:none;" />
<path class="l4" d="M420.516 303.426L420.516 309.18"/>
<path class="l4" d="M418.215 309.18L422.818 309.18"/>
<path class="l4" d="M420.516 311.481L422.818 309.18"/>
<path class="l4" d="M418.215 309.18L420.516 311.481"/>
<path class="l4" d="M756.529 397.786L756.529 409.293"/>
<path class="l4" d="M756.529 381.676L756.529 393.183"/>
<path class="l4" d="M751.926 393.183L761.132 393.183"/>
<path class="l4" d="M751.926 397.786L761.132 397.786"/>
<path class="l4" d="M757.68 385.128L759.982 385.128"/>
<path class="l4" d="M758.831 383.977L758.831 386.279"/>
<path class="l4" d="M472.299 394.334L474.6 394.334"/>
<path class="l4" d="M473.45 393.183L473.45 395.485"/>
<path class="l4" d="M471.148 390.882L471.148 418.499"/>
<circle class="l4" cx="471.148" cy="404.69" r="6.90438" style="fill:none;" />
<path class="l4" d="M650.662 285.015L650.662 291.919"/>
<path class="l4" d="M650.662 305.728L650.662 312.632"/>
<path class="l4" d="M651.813 288.467L654.114 288.467"/>
<path class="l4" d="M652.964 287.316L652.964 289.617"/>
<path class="l4" d="M650.662 295.371L650.662 299.974L651.813 299.974L650.662 303.426L649.511 299.974L650.662 299.974L650.662 295.371"/>
<circle class="l4" cx="650.662" cy="298.823" r="6.90438" style="fill:none;" />
<path class="l4" d="M651.813 444.966L654.114 444.966"/>
<path class="l4" d="M652.964 443.815L652.964 446.117"/>
<path class="l4" d="M650.662 441.514L650.662 469.131"/>
<circle class="l4" cx="650.662" cy="455.323" r="6.90438" style="fill:none;" />
<path class="l4" d="M532.137 366.716L534.438 366.716"/>
<path class="l4" d="M533.288 365.566L533.288 367.867"/>
<path class="l4" d="M530.986 363.264L530.986 390.882"/>
<circle class="l4" cx="530.986" cy="377.073" r="6.90438" style="fill:none;" />
<path class="l4" d="M797.956 379.374L797.956 390.882"/>
<path class="l4" d="M797.956 363.264L797.956 374.772"/>
<path class="l4" d="M793.353 374.772L802.559 374.772"/>
<path class="l4" d="M793.353 379.374L802.559 379.374"/>
<path class="l4" d="M799.106 366.716L801.408 366.716"/>
<path class="l4" d="M800.257 365.566L800.257 367.867"/>
<path class="l4" d="M650.662 105.501L678.28 105.501"/>
<path class="l4" d="M595.427 105.501L604.633 105.501"/>
<path class="l4" d="M595.427 123.912L604.633 123.912"/>
<path class="l4" d="M604.633 87.0889L604.633 142.324"/>
<path class="l4" d="M604.633 142.324L669.074 114.706"/>
<path class="l4" d="M604.633 87.0889L669.074 114.706"/>
<path class="l4" d="M595.427 77.8831L678.28 77.8831"/>
<path class="l4" d="M678.28 77.8831L678.28 151.53"/>
<path class="l4" d="M595.427 151.53L678.28 151.53"/>
<path class="l4" d="M595.427 77.8831L595.427 151.53"/>
<path class="l4" d="M650.662 123.912L678.28 123.912"/>
<path class="l4" d="M761.132 149.228L761.132 160.736"/>
<path class="l4" d="M761.132 133.118L761.132 144.625"/>
<path class="l4" d="M756.529 144.625L765.735 144.625"/>
<path class="l4" d="M756.529 149.228L765.735 149.228"/>
<path class="l4" d="M762.283 136.57L764.584 136.57"/>
<path class="l4" d="M763.434 135.42L763.434 137.721"/>
<path class="l4" d="M472.299 145.776L474.6 145.776"/>
<path class="l4" d="M473.45 144.625L473.45 146.927"/>
<path class="l4" d="M471.148 142.324L471.148 169.942"/>
<circle class="l4" cx="471.148" cy="156.133" r="6.90438" style="fill:none;" />
<path class="l4" d="M650.662 36.4568L650.662 43.3612"/>
<path class="l4" d="M650.662 57.1699L650.662 64.0743"/>
<path class="l4" d="M651.813 39.909L654.114 39.909"/>
<path class="l4" d="M652.964 38.7583L652.964 41.0597"/>
<path class="l4" d="M650.662 46.8134L650.662 51.4163L651.813 51.4163L650.662 54.8685L649.511 51.4163L650.662 51.4163L650.662 46.8134"/>
<circle class="l4" cx="650.662" cy="50.2656" r="6.90438" style="fill:none;" />
<path class="l4" d="M797.956 130.817L797.956 142.324"/>
<path class="l4" d="M797.956 114.706L797.956 126.214"/>
<path class="l4" d="M793.353 126.214L802.559 126.214"/>
<path class="l4" d="M793.353 130.817L802.559 130.817"/>
<path class="l4" d="M799.106 118.159L801.408 118.159"/>
<path class="l4" d="M800.257 117.008L800.257 119.309"/>
<path class="l4" d="M872.753 67.5265L875.055 67.5265"/>
<path class="l4" d="M873.904 66.3758L873.904 68.6772"/>
<path class="l4" d="M871.602 64.0743L871.602 91.6919"/>
<path class="l4" d="M862.397 77.8831L871.602 68.6772"/>
<path class="l4" d="M862.397 77.8831L871.602 87.0889"/>
<path class="l4" d="M871.602 87.0889L880.808 77.8831"/>
<path class="l4" d="M871.602 68.6772L880.808 77.8831"/>
<path class="l4" d="M853.191 68.6772L855.492 68.6772"/>
<path class="l4" d="M857.794 68.6772L860.095 68.6772"/>
<path class="l4" d="M862.397 68.6772L864.698 68.6772"/>
<path class="l4" d="M853.191 87.0889L855.492 87.0889"/>
<path class="l4" d="M857.794 87.0889L860.095 87.0889"/>
<path class="l4" d="M862.397 87.0889L864.698 87.0889"/>
<path class="l4" d="M871.602 110.104L871.602 115.857"/>
<path class="l4" d="M869.301 115.857L873.904 115.857"/>
<path class="l4" d="M871.602 118.159L873.904 115.857"/>
<path class="l4" d="M869.301 115.857L871.602 118.159"/>
<path class="l4" d="M872.753 306.878L875.055 306.878"/>
<path class="l4" d="M873.904 305.728L873.904 308.029"/>
<path class="l4" d="M871.602 303.426L871.602 331.044"/>
<path class="l4" d="M862.397 317.235L871.602 308.029"/>
<path class="l4" d="M862.397 317.235L871.602 326.441"/>
<path class="l4" d="M871.602 326.441L880.808 317.235"/>
<path class="l4" d="M871.602 308.029L880.808 317.235"/>
<path class="l4" d="M853.191 308.029L855.492 308.029"/>
<path class="l4" d="M857.794 308.029L860.095 308.029"/>
<path class="l4" d="M862.397 308.029L864.698 308.029"/>
<path class="l4" d="M853.191 326.441L855.492 326.441"/>
<path class="l4" d="M857.794 326.441L860.095 326.441"/>
<path class="l4" d="M862.397 326.441L864.698 326.441"/>
<path class="l4" d="M871.602 335.647L871.602 341.4"/>
<path class="l4" d="M869.301 341.4L873.904 341.4"/>
<path class="l4" d="M871.602 343.702L873.904 341.4"/>
<path class="l4" d="M869.301 341.4L871.602 343.702"/>
<path class="l4" d="M872.753 39.909L875.055 39.909"/>
<path class="l4" d="M873.904 38.7583L873.904 41.0597"/>
<path class="l4" d="M871.602 36.4568L871.602 64.0743"/>
<path class="l4" d="M862.397 50.2656L871.602 41.0597"/>
<path class="l4" d="M862.397 50.2656L871.602 59.4714"/>
<path class="l4" d="M871.602 59.4714L880.808 50.2656"/>
<path class="l4" d="M871.602 41.0597L880.808 50.2656"/>
<path class="l4" d="M853.191 41.0597L855.492 41.0597"/>
<path class="l4" d="M857.794 41.0597L860.095 41.0597"/>
<path class="l4" d="M862.397 41.0597L864.698 41.0597"/>
<path class="l4" d="M853.191 59.4714L855.492 59.4714"/>
<path class="l4" d="M857.794 59.4714L860.095 59.4714"/>
<path class="l4" d="M862.397 59.4714L864.698 59.4714"/>
<path class="l4" d="M543.644 350.606L543.644 352.908"/>
<path class="l4" d="M542.494 351.757L544.795 351.757"/>
<path class="l4" d="M540.192 354.058L567.81 354.058"/>
<circle class="l4" cx="554.001" cy="354.058" r="6.90438" style="fill:none;" />
<path class="l5" d="M382.542 265.452L384.843 265.452L384.843 267.754L382.542 267.754L382.542 265.452z"/>
<path class="l5" d="M382.542 293.07L384.843 293.07L384.843 295.371L382.542 295.371L382.542 293.07z"/>
<path class="l5" d="M382.542 302.276L384.843 302.276L384.843 304.577L382.542 304.577L382.542 302.276z"/>
<path class="l5" d="M222.59 632.535L222.447 632.679L222.303 632.823L222.159 632.967L222.015 633.11L221.871 633.254L221.727 633.398L221.584 633.542L221.44 633.686L221.296 633.83L221.152 633.974L221.008 634.117L220.864 634.261L220.721 634.405L220.577 634.549L220.433 634.693L220.289 634.837L220.145 634.98L220.001 635.124L219.858 635.268L219.714 635.412L219.57 635.556L219.426 635.7L219.282 635.843L219.138 635.987L218.994 636.131L218.851 636.275L218.707 636.419L218.563 636.563L218.419 636.706L218.275 636.85L218.131 636.994L217.988 637.138L217.988 637.138L217.848 637.282L217.718 637.426L217.597 637.57L217.484 637.713L217.381 637.857L217.286 638.001L217.201 638.145L217.125 638.289L217.057 638.433L216.999 638.576L216.949 638.72L216.909 638.864L216.877 639.008L216.855 639.152L216.841 639.296L216.837 639.439L216.841 639.583L216.855 639.727L216.877 639.871L216.909 640.015L216.949 640.159L216.999 640.303L217.057 640.446L217.125 640.59L217.201 640.734L217.286 640.878L217.381 641.022L217.484 641.166L217.597 641.309L217.718 641.453L217.848 641.597L217.988 641.741L217.988 641.741L218.132 641.885L218.278 642.031L218.424 642.178L218.572 642.325L218.721 642.474L218.871 642.624L219.022 642.775L219.174 642.928L219.328 643.081L219.482 643.236L219.638 643.391L219.795 643.548L219.952 643.706L220.111 643.865L220.272 644.025L220.433 644.186L220.595 644.349L220.759 644.512L220.923 644.677L221.089 644.843L221.256 645.009L221.424 645.177L221.593 645.347L221.763 645.517L221.935 645.688L222.107 645.861L222.281 646.034L222.456 646.209L222.632 646.385L222.809 646.562L222.987 646.74L223.166 646.919L223.166 646.919L223.345 647.098L223.521 647.274L223.695 647.449L223.867 647.62L224.037 647.79L224.204 647.958L224.369 648.123L224.532 648.286L224.693 648.446L224.852 648.605L225.008 648.761L225.162 648.915L225.313 649.067L225.463 649.216L225.61 649.363L225.755 649.508L225.898 649.651L226.038 649.792L226.176 649.93L226.312 650.066L226.446 650.199L226.578 650.331L226.707 650.46L226.834 650.587L226.959 650.712L227.081 650.834L227.201 650.955L227.319 651.073L227.435 651.188L227.549 651.302L227.66 651.413L227.769 651.522L227.769 651.522L227.873 651.628L227.971 651.731L228.062 651.831L228.146 651.927L228.224 652.019L228.295 652.109L228.359 652.195L228.416 652.277L228.467 652.357L228.51 652.432L228.548 652.505L228.578 652.574L228.601 652.64L228.618 652.702L228.628 652.761L228.632 652.817L228.628 652.869L228.618 652.918L228.601 652.963L228.578 653.006L228.548 653.044L228.51 653.08L228.467 653.112L228.416 653.14L228.359 653.166L228.295 653.188L228.224 653.206L228.146 653.221L228.062 653.233L227.971 653.242L227.873 653.247L227.769 653.248L227.769 653.248L227.661 653.248L227.553 653.248L227.445 653.248L227.337 653.248L227.229 653.248L227.121 653.248L227.014 653.248L226.906 653.248L226.798 653.248L226.69 653.248L226.582 653.248L226.474 653.248L226.366 653.248L226.258 653.248L226.151 653.248L226.043 653.248L225.935 653.248L225.827 653.248L225.719 653.248L225.611 653.248L225.503 653.248L225.395 653.248L225.288 653.248L225.18 653.248L225.072 653.248L224.964 653.248L224.856 653.248L224.748 653.248L224.64 653.248L224.532 653.248L224.424 653.248L224.317 653.248L224.317 653.248L224.209 653.248L224.103 653.248L223.998 653.248L223.894 653.248L223.791 653.248L223.69 653.248L223.589 653.248L223.49 653.248L223.391 653.248L223.294 653.248L223.198 653.248L223.103 653.248L223.009 653.248L222.916 653.248L222.825 653.248L222.734 653.248L222.645 653.248L222.557 653.248L222.47 653.248L222.384 653.248L222.299 653.248L222.215 653.248L222.133 653.248L222.051 653.248L221.971 653.248L221.892 653.248L221.813 653.248L221.736 653.248L221.661 653.248L221.586 653.248L221.512 653.248L221.44 653.248L221.44 653.248L221.368 653.247L221.296 653.244L221.224 653.238L221.152 653.23L221.08 653.22L221.008 653.208L220.936 653.193L220.864 653.176L220.792 653.157L220.721 653.136L220.649 653.112L220.577 653.086L220.505 653.058L220.433 653.028L220.361 652.995L220.289 652.961L220.217 652.923L220.145 652.884L220.073 652.843L220.001 652.799L219.929 652.753L219.858 652.704L219.786 652.654L219.714 652.601L219.642 652.546L219.57 652.489L219.498 652.429L219.426 652.367L219.354 652.303L219.282 652.237L219.21 652.168L219.138 652.098L219.138 652.098L219.066 652.026L218.994 651.954L218.923 651.882L218.851 651.81L218.779 651.738L218.707 651.666L218.635 651.594L218.563 651.522L218.491 651.45L218.419 651.378L218.347 651.306L218.275 651.234L218.203 651.163L218.131 651.091L218.059 651.019L217.988 650.947L217.916 650.875L217.844 650.803L217.772 650.731L217.7 650.659L217.628 650.587L217.556 650.515L217.484 650.443L217.412 650.371L217.34 650.3L217.268 650.228L217.196 650.156L217.125 650.084L217.053 650.012L216.981 649.94L216.909 649.868L216.837 649.796L216.837 649.796L216.764 649.723L216.689 649.648L216.611 649.57L216.531 649.49L216.449 649.408L216.365 649.324L216.278 649.238L216.19 649.149L216.099 649.058L216.005 648.964L215.91 648.869L215.812 648.771L215.712 648.671L215.61 648.569L215.505 648.464L215.398 648.358L215.289 648.249L215.178 648.137L215.065 648.024L214.949 647.908L214.831 647.79L214.711 647.67L214.588 647.547L214.463 647.423L214.336 647.296L214.207 647.166L214.076 647.035L213.942 646.901L213.806 646.765L213.668 646.627L213.527 646.487L213.385 646.344L213.385 646.344L213.241 646.205L213.097 646.074L212.953 645.953L212.809 645.84L212.665 645.737L212.522 645.643L212.378 645.557L212.234 645.481L212.09 645.413L211.946 645.355L211.802 645.306L211.659 645.265L211.515 645.234L211.371 645.211L211.227 645.198L211.083 645.193L210.939 645.198L210.796 645.211L210.652 645.234L210.508 645.265L210.364 645.306L210.22 645.355L210.076 645.413L209.932 645.481L209.789 645.557L209.645 645.643L209.501 645.737L209.357 645.84L209.213 645.953L209.069 646.074L208.926 646.205L208.782 646.344L208.782 646.344L208.639 646.487L208.499 646.627L208.36 646.765L208.224 646.901L208.091 647.035L207.959 647.166L207.83 647.296L207.703 647.423L207.578 647.547L207.456 647.67L207.335 647.79L207.217 647.908L207.102 648.024L206.988 648.137L206.877 648.249L206.768 648.358L206.661 648.464L206.557 648.569L206.454 648.671L206.354 648.771L206.257 648.869L206.161 648.964L206.068 649.058L205.977 649.149L205.888 649.238L205.802 649.324L205.717 649.408L205.635 649.49L205.555 649.57L205.478 649.648L205.403 649.723L205.33 649.796L205.33 649.796L205.258 649.868L205.186 649.94L205.114 650.012L205.042 650.084L204.97 650.156L204.898 650.228L204.826 650.3L204.754 650.371L204.682 650.443L204.61 650.515L204.538 650.587L204.466 650.659L204.395 650.731L204.323 650.803L204.251 650.875L204.179 650.947L204.107 651.019L204.035 651.091L203.963 651.163L203.891 651.234L203.819 651.306L203.747 651.378L203.675 651.45L203.603 651.522L203.532 651.594L203.46 651.666L203.388 651.738L203.316 651.81L203.244 651.882L203.172 651.954L203.1 652.026L203.028 652.098L203.028 652.098L202.956 652.168L202.884 652.237L202.812 652.303L202.74 652.367L202.668 652.429L202.597 652.489L202.525 652.546L202.453 652.601L202.381 652.654L202.309 652.704L202.237 652.753L202.165 652.799L202.093 652.843L202.021 652.884L201.949 652.923L201.877 652.961L201.805 652.995L201.734 653.028L201.662 653.058L201.59 653.086L201.518 653.112L201.446 653.136L201.374 653.157L201.302 653.176L201.23 653.193L201.158 653.208L201.086 653.22L201.014 653.23L200.942 653.238L200.87 653.244L200.799 653.247L200.727 653.248L200.727 653.248L200.654 653.248L200.581 653.248L200.506 653.248L200.43 653.248L200.353 653.248L200.275 653.248L200.196 653.248L200.115 653.248L200.034 653.248L199.951 653.248L199.868 653.248L199.783 653.248L199.697 653.248L199.61 653.248L199.521 653.248L199.432 653.248L199.342 653.248L199.25 653.248L199.157 653.248L199.063 653.248L198.968 653.248L198.872 653.248L198.775 653.248L198.677 653.248L198.577 653.248L198.477 653.248L198.375 653.248L198.272 653.248L198.168 653.248L198.063 653.248L197.957 653.248L197.85 653.248L197.85 653.248L197.742 653.248L197.634 653.248L197.526 653.248L197.418 653.248L197.31 653.248L197.203 653.248L197.095 653.248L196.987 653.248L196.879 653.248L196.771 653.248L196.663 653.248L196.555 653.248L196.447 653.248L196.339 653.248L196.232 653.248L196.124 653.248L196.016 653.248L195.908 653.248L195.8 653.248L195.692 653.248L195.584 653.248L195.476 653.248L195.369 653.248L195.261 653.248L195.153 653.248L195.045 653.248L194.937 653.248L194.829 653.248L194.721 653.248L194.613 653.248L194.505 653.248L194.398 653.248L194.398 653.248L194.293 653.247L194.195 653.242L194.104 653.233L194.02 653.221L193.942 653.206L193.872 653.188L193.808 653.166L193.75 653.14L193.7 653.112L193.656 653.08L193.619 653.044L193.588 653.006L193.565 652.963L193.548 652.918L193.538 652.869L193.535 652.817L193.538 652.761L193.548 652.702L193.565 652.64L193.588 652.574L193.619 652.505L193.656 652.432L193.7 652.357L193.75 652.277L193.808 652.195L193.872 652.109L193.942 652.019L194.02 651.927L194.104 651.831L194.195 651.731L194.293 651.628L194.398 651.522L194.398 651.522L194.507 651.413L194.618 651.302L194.731 651.188L194.847 651.073L194.965 650.955L195.085 650.834L195.208 650.712L195.333 650.587L195.46 650.46L195.589 650.331L195.72 650.199L195.854 650.066L195.99 649.93L196.128 649.792L196.269 649.651L196.411 649.508L196.556 649.363L196.704 649.216L196.853 649.067L197.005 648.915L197.159 648.761L197.315 648.605L197.473 648.446L197.634 648.286L197.797 648.123L197.962 647.958L198.13 647.79L198.299 647.62L198.471 647.449L198.645 647.274L198.822 647.098L199.001 646.919L199.001 646.919L199.18 646.74L199.358 646.562L199.535 646.385L199.711 646.209L199.885 646.034L200.059 645.861L200.232 645.688L200.403 645.517L200.573 645.347L200.742 645.177L200.91 645.009L201.077 644.843L201.243 644.677L201.408 644.512L201.571 644.349L201.734 644.186L201.895 644.025L202.055 643.865L202.214 643.706L202.372 643.548L202.529 643.391L202.684 643.236L202.839 643.081L202.992 642.928L203.144 642.775L203.296 642.624L203.446 642.474L203.594 642.325L203.742 642.178L203.889 642.031L204.034 641.885L204.179 641.741L204.179 641.741L204.318 641.597L204.449 641.453L204.57 641.309L204.682 641.166L204.786 641.022L204.88 640.878L204.965 640.734L205.042 640.59L205.109 640.446L205.168 640.303L205.217 640.159L205.258 640.015L205.289 639.871L205.312 639.727L205.325 639.583L205.33 639.439L205.325 639.296L205.312 639.152L205.289 639.008L205.258 638.864L205.217 638.72L205.168 638.576L205.109 638.433L205.042 638.289L204.965 638.145L204.88 638.001L204.786 637.857L204.682 637.713L204.57 637.57L204.449 637.426L204.318 637.282L204.179 637.138L204.179 637.138L204.034 636.994L203.889 636.848L203.742 636.701L203.594 636.554L203.446 636.405L203.296 636.255L203.144 636.104L202.992 635.951L202.839 635.798L202.684 635.643L202.529 635.488L202.372 635.331L202.214 635.173L202.055 635.014L201.895 634.854L201.734 634.693L201.571 634.53L201.408 634.367L201.243 634.202L201.077 634.036L200.91 633.87L200.742 633.702L200.573 633.532L200.403 633.362L200.232 633.191L200.059 633.018L199.885 632.845L199.711 632.67L199.535 632.494L199.358 632.317L199.18 632.139L199.001 631.96L199.001 631.96L198.822 631.781L198.645 631.605L198.471 631.43L198.299 631.259L198.13 631.089L197.962 630.921L197.797 630.756L197.634 630.593L197.473 630.433L197.315 630.274L197.159 630.118L197.005 629.964L196.853 629.812L196.704 629.663L196.556 629.516L196.411 629.371L196.269 629.228L196.128 629.087L195.99 628.949L195.854 628.813L195.72 628.679L195.589 628.548L195.46 628.419L195.333 628.292L195.208 628.167L195.085 628.045L194.965 627.924L194.847 627.806L194.731 627.691L194.618 627.577L194.507 627.466L194.398 627.357L194.398 627.357L194.293 627.251L194.195 627.148L194.104 627.048L194.02 626.952L193.942 626.86L193.872 626.77L193.808 626.684L193.75 626.602L193.7 626.522L193.656 626.447L193.619 626.374L193.588 626.305L193.565 626.239L193.548 626.177L193.538 626.118L193.535 626.062L193.538 626.01L193.548 625.961L193.565 625.916L193.588 625.873L193.619 625.835L193.656 625.799L193.7 625.767L193.75 625.739L193.808 625.713L193.872 625.691L193.942 625.673L194.02 625.658L194.104 625.646L194.195 625.637L194.293 625.632L194.398 625.631L194.398 625.631L194.505 625.631L194.613 625.631L194.721 625.631L194.829 625.631L194.937 625.631L195.045 625.631L195.153 625.631L195.261 625.631L195.369 625.631L195.476 625.631L195.584 625.631L195.692 625.631L195.8 625.631L195.908 625.631L196.016 625.631L196.124 625.631L196.232 625.631L196.339 625.631L196.447 625.631L196.555 625.631L196.663 625.631L196.771 625.631L196.879 625.631L196.987 625.631L197.095 625.631L197.203 625.631L197.31 625.631L197.418 625.631L197.526 625.631L197.634 625.631L197.742 625.631L197.85 625.631L197.85 625.631L197.957 625.631L198.063 625.631L198.168 625.631L198.272 625.631L198.375 625.631L198.477 625.631L198.577 625.631L198.677 625.631L198.775 625.631L198.872 625.631L198.968 625.631L199.063 625.631L199.157 625.631L199.25 625.631L199.342 625.631L199.432 625.631L199.521 625.631L199.61 625.631L199.697 625.631L199.783 625.631L199.868 625.631L199.951 625.631L200.034 625.631L200.115 625.631L200.196 625.631L200.275 625.631L200.353 625.631L200.43 625.631L200.506 625.631L200.581 625.631L200.654 625.631L200.727 625.631L200.727 625.631L200.799 625.632L200.87 625.635L200.942 625.641L201.014 625.649L201.086 625.659L201.158 625.671L201.23 625.686L201.302 625.703L201.374 625.722L201.446 625.743L201.518 625.767L201.59 625.793L201.662 625.821L201.734 625.851L201.805 625.884L201.877 625.918L201.949 625.955L202.021 625.995L202.093 626.036L202.165 626.08L202.237 626.126L202.309 626.175L202.381 626.225L202.453 626.278L202.525 626.333L202.597 626.39L202.668 626.45L202.74 626.512L202.812 626.576L202.884 626.642L202.956 626.711L203.028 626.781L203.028 626.781L203.1 626.853L203.172 626.925L203.244 626.997L203.316 627.069L203.388 627.141L203.46 627.213L203.532 627.285L203.603 627.357L203.675 627.429L203.747 627.501L203.819 627.573L203.891 627.644L203.963 627.716L204.035 627.788L204.107 627.86L204.179 627.932L204.251 628.004L204.323 628.076L204.395 628.148L204.466 628.22L204.538 628.292L204.61 628.364L204.682 628.436L204.754 628.508L204.826 628.579L204.898 628.651L204.97 628.723L205.042 628.795L205.114 628.867L205.186 628.939L205.258 629.011L205.33 629.083L205.33 629.083L205.403 629.156L205.478 629.231L205.555 629.309L205.635 629.389L205.717 629.471L205.802 629.555L205.888 629.641L205.977 629.73L206.068 629.821L206.161 629.914L206.257 630.01L206.354 630.108L206.454 630.208L206.557 630.31L206.661 630.415L206.768 630.521L206.877 630.63L206.988 630.742L207.102 630.855L207.217 630.971L207.335 631.089L207.456 631.209L207.578 631.332L207.703 631.456L207.83 631.583L207.959 631.713L208.091 631.844L208.224 631.978L208.36 632.114L208.499 632.252L208.639 632.392L208.782 632.535L208.782 632.535L208.926 632.674L209.069 632.805L209.213 632.926L209.357 633.039L209.501 633.142L209.645 633.236L209.789 633.322L209.932 633.398L210.076 633.466L210.22 633.524L210.364 633.573L210.508 633.614L210.652 633.645L210.796 633.668L210.939 633.681L211.083 633.686L211.227 633.681L211.371 633.668L211.515 633.645L211.659 633.614L211.802 633.573L211.946 633.524L212.09 633.466L212.234 633.398L212.378 633.322L212.522 633.236L212.665 633.142L212.809 633.039L212.953 632.926L213.097 632.805L213.241 632.674L213.385 632.535L213.385 632.535L213.527 632.392L213.668 632.252L213.806 632.114L213.942 631.978L214.076 631.844L214.207 631.713L214.336 631.583L214.463 631.456L214.588 631.332L214.711 631.209L214.831 631.089L214.949 630.971L215.065 630.855L215.178 630.742L215.289 630.63L215.398 630.521L215.505 630.415L215.61 630.31L215.712 630.208L215.812 630.108L215.91 630.01L216.005 629.914L216.099 629.821L216.19 629.73L216.278 629.641L216.365 629.555L216.449 629.471L216.531 629.389L216.611 629.309L216.689 629.231L216.764 629.156L216.837 629.083L216.837 629.083L216.909 629.011L216.981 628.939L217.053 628.867L217.125 628.795L217.196 628.723L217.268 628.651L217.34 628.579L217.412 628.508L217.484 628.436L217.556 628.364L217.628 628.292L217.7 628.22L217.772 628.148L217.844 628.076L217.916 628.004L217.988 627.932L218.059 627.86L218.131 627.788L218.203 627.716L218.275 627.644L218.347 627.573L218.419 627.501L218.491 627.429L218.563 627.357L218.635 627.285L218.707 627.213L218.779 627.141L218.851 627.069L218.923 626.997L218.994 626.925L219.066 626.853L219.138 626.781L219.138 626.781L219.21 626.711L219.282 626.642L219.354 626.576L219.426 626.512L219.498 626.45L219.57 626.39L219.642 626.333L219.714 626.278L219.786 626.225L219.858 626.175L219.929 626.126L220.001 626.08L220.073 626.036L220.145 625.995L220.217 625.955L220.289 625.918L220.361 625.884L220.433 625.851L220.505 625.821L220.577 625.793L220.649 625.767L220.721 625.743L220.792 625.722L220.864 625.703L220.936 625.686L221.008 625.671L221.08 625.659L221.152 625.649L221.224 625.641L221.296 625.635L221.368 625.632L221.44 625.631L221.44 625.631L221.512 625.631L221.586 625.631L221.661 625.631L221.736 625.631L221.813 625.631L221.892 625.631L221.971 625.631L222.051 625.631L222.133 625.631L222.215 625.631L222.299 625.631L222.384 625.631L222.47 625.631L222.557 625.631L222.645 625.631L222.734 625.631L222.825 625.631L222.916 625.631L223.009 625.631L223.103 625.631L223.198 625.631L223.294 625.631L223.391 625.631L223.49 625.631L223.589 625.631L223.69 625.631L223.791 625.631L223.894 625.631L223.998 625.631L224.103 625.631L224.209 625.631L224.317 625.631L224.317 625.631L224.424 625.631L224.532 625.631L224.64 625.631L224.748 625.631L224.856 625.631L224.964 625.631L225.072 625.631L225.18 625.631L225.288 625.631L225.395 625.631L225.503 625.631L225.611 625.631L225.719 625.631L225.827 625.631L225.935 625.631L226.043 625.631L226.151 625.631L226.258 625.631L226.366 625.631L226.474 625.631L226.582 625.631L226.69 625.631L226.798 625.631L226.906 625.631L227.014 625.631L227.121 625.631L227.229 625.631L227.337 625.631L227.445 625.631L227.553 625.631L227.661 625.631L227.769 625.631L227.769 625.631L227.873 625.632L227.971 625.637L228.062 625.646L228.146 625.658L228.224 625.673L228.295 625.691L228.359 625.713L228.416 625.739L228.467 625.767L228.51 625.799L228.548 625.835L228.578 625.873L228.601 625.916L228.618 625.961L228.628 626.01L228.632 626.062L228.628 626.118L228.618 626.177L228.601 626.239L228.578 626.305L228.548 626.374L228.51 626.447L228.467 626.522L228.416 626.602L228.359 626.684L228.295 626.77L228.224 626.86L228.146 626.952L228.062 627.048L227.971 627.148L227.873 627.251L227.769 627.357L227.769 627.357L227.659 627.466L227.546 627.579L227.43 627.696L227.31 627.815L227.187 627.938L227.061 628.065L226.931 628.195L226.798 628.328L226.661 628.464L226.521 628.604L226.378 628.747L226.231 628.894L226.081 629.044L225.928 629.198L225.771 629.354L225.611 629.514L225.448 629.678L225.281 629.845L225.111 630.015L224.937 630.189L224.76 630.366L224.58 630.546L224.396 630.73L224.209 630.917L224.018 631.107L223.824 631.301L223.627 631.498L223.427 631.699L223.223 631.903L223.015 632.11L222.805 632.321L222.59 632.535"/>
<path class="l5" d="M383.117 256.822L384.268 256.822L384.268 257.972L383.117 257.972L383.117 256.822z"/>
<path class="l5" d="M631.1 325.29L633.401 325.29L633.401 327.592L631.1 327.592L631.1 325.29z"/>
<path class="l5" d="M594.276 352.908L596.578 352.908L596.578 355.209L594.276 355.209L594.276 352.908z"/>
<path class="l5" d="M594.276 371.319L596.578 371.319L596.578 373.621L594.276 373.621L594.276 371.319z"/>
<path class="l5" d="M649.511 325.29L651.813 325.29L651.813 327.592L649.511 327.592L649.511 325.29z"/>
<path class="l5" d="M649.511 398.937L651.813 398.937L651.813 401.238L649.511 401.238L649.511 398.937z"/>
<path class="l5" d="M631.1 398.937L633.401 398.937L633.401 401.238L631.1 401.238L631.1 398.937z"/>
<path class="l5" d="M677.129 352.908L679.43 352.908L679.43 355.209L677.129 355.209L677.129 352.908z"/>
<path class="l5" d="M677.129 371.319L679.43 371.319L679.43 373.621L677.129 373.621L677.129 371.319z"/>
<path class="l5" d="M419.365 265.452L421.667 265.452L421.667 267.754L419.365 267.754L419.365 265.452z"/>
<path class="l5" d="M419.365 293.07L421.667 293.07L421.667 295.371L419.365 295.371L419.365 293.07z"/>
<path class="l5" d="M419.365 302.276L421.667 302.276L421.667 304.577L419.365 304.577L419.365 302.276z"/>
<path class="l5" d="M419.941 256.822L421.091 256.822L421.091 257.972L419.941 257.972L419.941 256.822z"/>
<path class="l5" d="M755.379 380.525L757.68 380.525L757.68 382.827L755.379 382.827L755.379 380.525z"/>
<path class="l5" d="M755.379 408.143L757.68 408.143L757.68 410.444L755.379 410.444L755.379 408.143z"/>
<path class="l5" d="M732.939 371.895L734.09 371.895L734.09 373.045L732.939 373.045L732.939 371.895z"/>
<path class="l5" d="M469.998 389.731L472.299 389.731L472.299 392.032L469.998 392.032L469.998 389.731z"/>
<path class="l5" d="M469.998 417.349L472.299 417.349L472.299 419.65L469.998 419.65L469.998 417.349z"/>
<path class="l5" d="M498.19 353.483L499.341 353.483L499.341 354.634L498.19 354.634L498.19 353.483z"/>
<path class="l5" d="M649.511 283.864L651.813 283.864L651.813 286.165L649.511 286.165L649.511 283.864z"/>
<path class="l5" d="M649.511 311.481L651.813 311.481L651.813 313.783L649.511 313.783L649.511 311.481z"/>
<path class="l5" d="M649.511 440.363L651.813 440.363L651.813 442.665L649.511 442.665L649.511 440.363z"/>
<path class="l5" d="M649.511 467.981L651.813 467.981L651.813 470.282L649.511 470.282L649.511 467.981z"/>
<path class="l5" d="M507.756 353.843L508.187 353.843L508.187 354.274L507.756 354.274L507.756 353.843z"/>
<path class="l5" d="M691.873 372.254L692.304 372.254L692.304 372.686L691.873 372.686L691.873 372.254z"/>
<path class="l5" d="M650.446 436.695L650.878 436.695L650.878 437.127L650.446 437.127L650.446 436.695z"/>
<path class="l5" d="M650.087 408.718L651.238 408.718L651.238 409.869L650.087 409.869L650.087 408.718z"/>
<path class="l5" d="M529.835 362.113L532.137 362.113L532.137 364.415L529.835 364.415L529.835 362.113z"/>
<path class="l5" d="M529.835 389.731L532.137 389.731L532.137 392.032L529.835 392.032L529.835 389.731z"/>
<path class="l5" d="M796.805 362.113L799.106 362.113L799.106 364.415L796.805 364.415L796.805 362.113z"/>
<path class="l5" d="M796.805 389.731L799.106 389.731L799.106 392.032L796.805 392.032L796.805 389.731z"/>
<path class="l5" d="M732.939 353.483L734.09 353.483L734.09 354.634L732.939 354.634L732.939 353.483z"/>
<path class="l5" d="M691.873 353.843L692.304 353.843L692.304 354.274L691.873 354.274L691.873 353.843z"/>
<path class="l5" d="M631.1 76.7324L633.401 76.7324L633.401 79.0338L631.1 79.0338L631.1 76.7324z"/>
<path class="l5" d="M594.276 104.35L596.578 104.35L596.578 106.651L594.276 106.651L594.276 104.35z"/>
<path class="l5" d="M594.276 122.762L596.578 122.762L596.578 125.063L594.276 125.063L594.276 122.762z"/>
<path class="l5" d="M649.511 76.7324L651.813 76.7324L651.813 79.0338L649.511 79.0338L649.511 76.7324z"/>
<path class="l5" d="M649.511 150.379L651.813 150.379L651.813 152.681L649.511 152.681L649.511 150.379z"/>
<path class="l5" d="M631.1 150.379L633.401 150.379L633.401 152.681L631.1 152.681L631.1 150.379z"/>
<path class="l5" d="M677.129 104.35L679.43 104.35L679.43 106.651L677.129 106.651L677.129 104.35z"/>
<path class="l5" d="M677.129 122.762L679.43 122.762L679.43 125.063L677.129 125.063L677.129 122.762z"/>
<path class="l5" d="M759.982 131.967L762.283 131.967L762.283 134.269L759.982 134.269L759.982 131.967z"/>
<path class="l5" d="M759.982 159.585L762.283 159.585L762.283 161.886L759.982 161.886L759.982 159.585z"/>
<path class="l5" d="M469.998 141.173L472.299 141.173L472.299 143.475L469.998 143.475L469.998 141.173z"/>
<path class="l5" d="M469.998 168.791L472.299 168.791L472.299 171.092L469.998 171.092L469.998 168.791z"/>
<path class="l5" d="M498.19 104.925L499.341 104.925L499.341 106.076L498.19 106.076L498.19 104.925z"/>
<path class="l5" d="M649.511 35.3061L651.813 35.3061L651.813 37.6075L649.511 37.6075L649.511 35.3061z"/>
<path class="l5" d="M649.511 62.9236L651.813 62.9236L651.813 65.2251L649.511 65.2251L649.511 62.9236z"/>
<path class="l5" d="M526.168 105.285L526.599 105.285L526.599 105.716L526.168 105.716L526.168 105.285z"/>
<path class="l5" d="M691.873 123.697L692.304 123.697L692.304 124.128L691.873 124.128L691.873 123.697z"/>
<path class="l5" d="M677.704 173.969L678.855 173.969L678.855 175.12L677.704 175.12L677.704 173.969z"/>
<path class="l5" d="M796.805 113.556L799.106 113.556L799.106 115.857L796.805 115.857L796.805 113.556z"/>
<path class="l5" d="M796.805 141.173L799.106 141.173L799.106 143.475L796.805 143.475L796.805 141.173z"/>
<path class="l5" d="M691.873 105.285L692.304 105.285L692.304 105.716L691.873 105.716L691.873 105.285z"/>
<path class="l5" d="M470.573 201.587L471.724 201.587L471.724 202.737L470.573 202.737L470.573 201.587z"/>
<path class="l5" d="M631.675 26.6756L632.826 26.6756L632.826 27.8263L631.675 27.8263L631.675 26.6756z"/>
<path class="l5" d="M870.452 62.9236L872.753 62.9236L872.753 65.2251L870.452 65.2251L870.452 62.9236z"/>
<path class="l5" d="M870.452 90.5411L872.753 90.5411L872.753 92.8426L870.452 92.8426L870.452 90.5411z"/>
<path class="l5" d="M852.04 67.5265L854.341 67.5265L854.341 69.828L852.04 69.828L852.04 67.5265z"/>
<path class="l5" d="M852.04 85.9382L854.341 85.9382L854.341 88.2397L852.04 88.2397L852.04 85.9382z"/>
<path class="l5" d="M870.452 108.953L872.753 108.953L872.753 111.254L870.452 111.254L870.452 108.953z"/>
<path class="l5" d="M899.004 22.4323L899.436 22.4323L899.436 22.8638L899.004 22.8638L899.004 22.4323z"/>
<path class="l5" d="M894.042 22.0727L895.192 22.0727L895.192 23.2234L894.042 23.2234L894.042 22.0727z"/>
<path class="l5" d="M631.675 275.233L632.826 275.233L632.826 276.384L631.675 276.384L631.675 275.233z"/>
<path class="l5" d="M470.573 477.762L471.724 477.762L471.724 478.913L470.573 478.913L470.573 477.762z"/>
<path class="l5" d="M870.452 302.276L872.753 302.276L872.753 304.577L870.452 304.577L870.452 302.276z"/>
<path class="l5" d="M870.452 329.893L872.753 329.893L872.753 332.194L870.452 332.194L870.452 329.893z"/>
<path class="l5" d="M852.04 306.878L854.341 306.878L854.341 309.18L852.04 309.18L852.04 306.878z"/>
<path class="l5" d="M852.04 325.29L854.341 325.29L854.341 327.592L852.04 327.592L852.04 325.29z"/>
<path class="l5" d="M870.452 334.496L872.753 334.496L872.753 336.797L870.452 336.797L870.452 334.496z"/>
<path class="l5" d="M899.004 289.402L899.436 289.402L899.436 289.833L899.004 289.833L899.004 289.402z"/>
<path class="l5" d="M894.042 289.042L895.192 289.042L895.192 290.193L894.042 290.193L894.042 289.042z"/>
<path class="l5" d="M737.542 123.337L738.693 123.337L738.693 124.488L737.542 124.488L737.542 123.337z"/>
<path class="l5" d="M737.542 104.925L738.693 104.925L738.693 106.076L737.542 106.076L737.542 104.925z"/>
<path class="l5" d="M870.452 35.3061L872.753 35.3061L872.753 37.6075L870.452 37.6075L870.452 35.3061z"/>
<path class="l5" d="M870.452 62.9236L872.753 62.9236L872.753 65.2251L870.452 65.2251L870.452 62.9236z"/>
<path class="l5" d="M852.04 39.909L854.341 39.909L854.341 42.2104L852.04 42.2104L852.04 39.909z"/>
<path class="l5" d="M852.04 58.3207L854.341 58.3207L854.341 60.6221L852.04 60.6221L852.04 58.3207z"/>
<path class="l5" d="M581.043 353.483L582.194 353.483L582.194 354.634L581.043 354.634L581.043 353.483z"/>
<path class="l5" d="M581.043 371.895L582.194 371.895L582.194 373.045L581.043 373.045L581.043 371.895z"/>
<path class="l5" d="M539.041 352.908L541.343 352.908L541.343 355.209L539.041 355.209L539.041 352.908z"/>
<path class="l5" d="M566.659 352.908L568.96 352.908L568.96 355.209L566.659 355.209L566.659 352.908z"/>
<path class="l6" d="M330.759 639.439L696.691 639.439"/>
<path class="l6" d="M153.547 639.439L183.466 639.439"/>
<path class="l15" d="M509.698 350.031L512.575 346.579"/>
<path class="l15" d="M507.972 354.058L509.698 350.031"/>
<path class="l15" d="M512.575 341.4L512.575 347.729"/>
<path class="l15" d="M511.424 346.579L521.205 346.579"/>
<path class="l15" d="M513.725 344.853L516.027 344.853"/>
<path class="l15" d="M516.027 343.126L516.027 344.853"/>
<path class="l15" d="M516.027 343.126L517.753 343.126"/>
<path class="l15" d="M517.753 343.126L517.753 344.853"/>
<path class="l15" d="M517.753 344.853L519.479 344.853"/>
<path class="l15" d="M519.479 343.126L519.479 344.853"/>
<path class="l15" d="M519.479 343.126L520.773 343.126"/>
<path class="l15" d="M693.815 368.442L696.691 364.99"/>
<path class="l15" d="M692.088 372.47L693.815 368.442"/>
<path class="l15" d="M696.691 359.812L696.691 366.141"/>
<path class="l15" d="M695.541 364.99L705.322 364.99"/>
<path class="l15" d="M697.842 363.264L700.144 363.264"/>
<path class="l15" d="M700.144 361.538L700.144 363.264"/>
<path class="l15" d="M700.144 361.538L701.87 361.538"/>
<path class="l15" d="M701.87 361.538L701.87 363.264"/>
<path class="l15" d="M701.87 363.264L703.596 363.264"/>
<path class="l15" d="M703.596 361.538L703.596 363.264"/>
<path class="l15" d="M703.596 361.538L704.89 361.538"/>
<path class="l15" d="M652.388 432.883L655.265 429.431"/>
<path class="l15" d="M650.662 436.911L652.388 432.883"/>
<path class="l15" d="M655.265 424.253L655.265 430.582"/>
<path class="l15" d="M654.114 429.431L663.896 429.431"/>
<path class="l15" d="M656.416 427.705L658.717 427.705"/>
<path class="l15" d="M658.717 425.979L658.717 427.705"/>
<path class="l15" d="M658.717 425.979L660.443 425.979"/>
<path class="l15" d="M660.443 425.979L660.443 427.705"/>
<path class="l15" d="M660.443 427.705L662.169 427.705"/>
<path class="l15" d="M662.169 425.979L662.169 427.705"/>
<path class="l15" d="M662.169 425.979L663.464 425.979"/>
<path class="l15" d="M693.815 350.031L696.691 346.579"/>
<path class="l15" d="M692.088 354.058L693.815 350.031"/>
<path class="l15" d="M696.691 341.4L696.691 347.729"/>
<path class="l15" d="M695.541 346.579L705.322 346.579"/>
<path class="l15" d="M697.842 344.853L700.144 344.853"/>
<path class="l15" d="M700.144 343.126L700.144 344.853"/>
<path class="l15" d="M700.144 343.126L701.87 343.126"/>
<path class="l15" d="M701.87 343.126L701.87 344.853"/>
<path class="l15" d="M701.87 344.853L703.596 344.853"/>
<path class="l15" d="M703.596 343.126L703.596 344.853"/>
<path class="l15" d="M703.596 343.126L704.89 343.126"/>
<path class="l15" d="M528.109 101.473L530.986 98.0209"/>
<path class="l15" d="M526.383 105.501L528.109 101.473"/>
<path class="l15" d="M530.986 92.8426L530.986 99.1716"/>
<path class="l15" d="M529.835 98.0209L539.617 98.0209"/>
<path class="l15" d="M532.137 96.2948L534.438 96.2948"/>
<path class="l15" d="M534.438 94.5687L534.438 96.2948"/>
<path class="l15" d="M534.438 94.5687L536.165 94.5687"/>
<path class="l15" d="M536.165 94.5687L536.165 96.2948"/>
<path class="l15" d="M536.165 96.2948L537.891 96.2948"/>
<path class="l15" d="M537.891 94.5687L537.891 96.2948"/>
<path class="l15" d="M537.891 94.5687L539.185 94.5687"/>
<path class="l15" d="M693.815 119.885L696.691 116.433"/>
<path class="l15" d="M692.088 123.912L693.815 119.885"/>
<path class="l15" d="M696.691 111.254L696.691 117.583"/>
<path class="l15" d="M695.541 116.433L705.322 116.433"/>
<path class="l15" d="M697.842 114.706L700.144 114.706"/>
<path class="l15" d="M700.144 112.98L700.144 114.706"/>
<path class="l15" d="M700.144 112.98L701.87 112.98"/>
<path class="l15" d="M701.87 112.98L701.87 114.706"/>
<path class="l15" d="M701.87 114.706L703.596 114.706"/>
<path class="l15" d="M703.596 112.98L703.596 114.706"/>
<path class="l15" d="M703.596 112.98L704.89 112.98"/>
<path class="l15" d="M693.815 101.473L696.691 98.0209"/>
<path class="l15" d="M692.088 105.501L693.815 101.473"/>
<path class="l15" d="M696.691 92.8426L696.691 99.1716"/>
<path class="l15" d="M695.541 98.0209L705.322 98.0209"/>
<path class="l15" d="M697.842 96.2948L700.144 96.2948"/>
<path class="l15" d="M700.144 94.5687L700.144 96.2948"/>
<path class="l15" d="M700.144 94.5687L701.87 94.5687"/>
<path class="l15" d="M701.87 94.5687L701.87 96.2948"/>
<path class="l15" d="M701.87 96.2948L703.596 96.2948"/>
<path class="l15" d="M703.596 94.5687L703.596 96.2948"/>
<path class="l15" d="M703.596 94.5687L704.89 94.5687"/>
<path class="l15" d="M900.946 18.6205L903.823 15.1683"/>
<path class="l15" d="M899.22 22.648L900.946 18.6205"/>
<path class="l15" d="M903.823 9.99L903.823 16.319"/>
<path class="l15" d="M902.672 15.1683L912.453 15.1683"/>
<path class="l15" d="M904.974 13.4422L907.275 13.4422"/>
<path class="l15" d="M907.275 11.7161L907.275 13.4422"/>
<path class="l15" d="M907.275 11.7161L909.001 11.7161"/>
<path class="l15" d="M909.001 11.7161L909.001 13.4422"/>
<path class="l15" d="M909.001 13.4422L910.727 13.4422"/>
<path class="l15" d="M910.727 11.7161L910.727 13.4422"/>
<path class="l15" d="M910.727 11.7161L912.022 11.7161"/>
<path class="l15" d="M900.946 285.59L903.823 282.138"/>
<path class="l15" d="M899.22 289.617L900.946 285.59"/>
<path class="l15" d="M903.823 276.959L903.823 283.288"/>
<path class="l15" d="M902.672 282.138L912.453 282.138"/>
<path class="l15" d="M904.974 280.412L907.275 280.412"/>
<path class="l15" d="M907.275 278.686L907.275 280.412"/>
<path class="l15" d="M907.275 278.686L909.001 278.686"/>
<path class="l15" d="M909.001 278.686L909.001 280.412"/>
<path class="l15" d="M909.001 280.412L910.727 280.412"/>
<path class="l15" d="M910.727 278.686L910.727 280.412"/>
<path class="l15" d="M910.727 278.686L912.022 278.686"/>
<text fill="#222222"  xml:space="preserve" font-size="7.18056" transform="translate(155.848, 563.107)" >MODEL</text>
<text fill="#222222"  xml:space="preserve" font-size="7.18056" style="font-family:Monospace;" transform="translate(160.451, 582.85)" >.lib cornerMOSlv.lib mos_tt</text>
<text fill="#222222"  xml:space="preserve" font-size="7.18056" style="font-family:Monospace;" transform="translate(160.451, 591.086)" >.lib cornerRES.lib res_typ</text>
<text fill="#222222"  xml:space="preserve" font-size="7.18056" style="font-family:Monospace;" transform="translate(160.451, 599.322)" >.lib cornerCAP.lib cap_typ</text>
<text fill="#222222"  xml:space="preserve" font-size="7.18056" transform="translate(155.848, 231.697)" >NGSPICE</text>
<text fill="#222222"  xml:space="preserve" font-size="7.18056" style="font-family:Monospace;" transform="translate(160.451, 251.44)" >.temp 27</text>
<text fill="#222222"  xml:space="preserve" font-size="7.18056" style="font-family:Monospace;" transform="translate(160.451, 259.676)" >.include ota-diff_tb-acol.save</text>
<text fill="#222222"  xml:space="preserve" font-size="7.18056" style="font-family:Monospace;" transform="translate(160.451, 267.912)" >.control</text>
<text fill="#222222"  xml:space="preserve" font-size="7.18056" style="font-family:Monospace;" transform="translate(160.451, 276.148)" >option sparse</text>
<text fill="#222222"  xml:space="preserve" font-size="7.18056" style="font-family:Monospace;" transform="translate(160.451, 284.384)" >set filetype=ascii</text>
<text fill="#222222"  xml:space="preserve" font-size="7.18056" style="font-family:Monospace;" transform="translate(160.451, 292.62)" >save all</text>
<text fill="#222222"  xml:space="preserve" font-size="7.18056" style="font-family:Monospace;" transform="translate(160.451, 309.093)" >op</text>
<text fill="#222222"  xml:space="preserve" font-size="7.18056" style="font-family:Monospace;" transform="translate(160.451, 317.329)" >write ota-diff_tb-acol.raw</text>
<text fill="#222222"  xml:space="preserve" font-size="7.18056" style="font-family:Monospace;" transform="translate(160.451, 325.565)" >set appendwrite</text>
<text fill="#222222"  xml:space="preserve" font-size="7.18056" style="font-family:Monospace;" transform="translate(160.451, 342.037)" >ac dec 101 1k 10G</text>
<text fill="#222222"  xml:space="preserve" font-size="7.18056" style="font-family:Monospace;" transform="translate(160.451, 350.273)" >write ota-diff_tb-acol.raw</text>
<text fill="#222222"  xml:space="preserve" font-size="7.18056" style="font-family:Monospace;" transform="translate(160.451, 358.509)" >plot 20*log10(vout)</text>
<text fill="#222222"  xml:space="preserve" font-size="7.18056" style="font-family:Monospace;" transform="translate(160.451, 366.745)" >plot cph(vout)*180/pi</text>
<text fill="#222222"  xml:space="preserve" font-size="7.18056" style="font-family:Monospace;" transform="translate(160.451, 374.981)" >plot 20*log10(voutcm)</text>
<text fill="#222222"  xml:space="preserve" font-size="7.18056" style="font-family:Monospace;" transform="translate(160.451, 383.218)" >plot cph(voutcm)*180/pi</text>
<text fill="#222222"  xml:space="preserve" font-size="7.18056" style="font-family:Monospace;" transform="translate(160.451, 399.69)" >.endc</text>
<text fill="#222222"  xml:space="preserve" font-size="4.78704" transform="translate(392.899, 276.128)" >Vdd</text>
<text fill="#222222"  xml:space="preserve" font-size="4.78704" transform="translate(392.899, 287.635)" >1.5</text>
<text fill="#0099cc"  xml:space="preserve" font-size="4.78704" transform="translate(387.145, 310.074)" >GND</text>
<text fill="#222222"  xml:space="preserve" font-size="9.57408" transform="translate(335.362, 650.434)" >         ota-diff_tb-acol.sch</text>
<text fill="#222222"  xml:space="preserve" font-size="9.57408" transform="translate(335.362, 636.625)" >(c) 2024-2025 Harald Pretl, Apache-2.0 license</text>
<text fill="#222222"  xml:space="preserve" font-size="9.57408" transform="translate(594.691, 636.625)" >2026-06-24  15:14:13</text>
<text fill="#222222"  xml:space="preserve" font-size="23.9352" transform="translate(229.495, 649.665)" >SCHEM</text>
<text fill="#222222"  xml:space="preserve" font-size="9.57408" transform="translate(388.296, 582.795)" >simulate</text>
<text fill="#222222"  xml:space="preserve" font-size="9.57408" transform="translate(498.766, 582.795)" >annotate OP</text>
<text fill="#0099cc"  xml:space="preserve" font-size="7.89861" transform="translate(361.241, 260.829)" >v_dd</text>
<text fill="#222222"  xml:space="preserve" font-size="4.78704" transform="translate(611.537, 364.849)" >ota-diff</text>
<text fill="#222222"  xml:space="preserve" font-size="4.78704" transform="translate(680.581, 325.264)" >xota</text>
<text fill="#222222"  xml:space="preserve" font-size="4.78704" transform="translate(632.948, 337.948) rotate(270)" >vdd</text>
<text fill="#222222"  xml:space="preserve" font-size="4.78704" transform="translate(606.934, 356.564)" >vinp</text>
<text fill="#222222"  xml:space="preserve" font-size="4.78704" transform="translate(606.934, 374.976)" >vinn</text>
<text fill="#222222"  xml:space="preserve" font-size="4.78704" transform="translate(651.359, 349.742) rotate(270)" >ibias_20u</text>
<text fill="#222222"  xml:space="preserve" font-size="4.78704" transform="translate(651.359, 397.977) rotate(270)" >d_ena</text>
<text fill="#222222"  xml:space="preserve" font-size="4.78704" transform="translate(632.948, 397.786) rotate(270)" >vss</text>
<text fill="#222222"  xml:space="preserve" font-size="4.78704" transform="translate(662.169, 351.961)" >voutn</text>
<text fill="#222222"  xml:space="preserve" font-size="4.78704" transform="translate(662.169, 370.373)" >voutp</text>
<text fill="#222222"  xml:space="preserve" font-size="4.78704" transform="translate(429.722, 276.128)" >Vss</text>
<text fill="#222222"  xml:space="preserve" font-size="4.78704" transform="translate(429.722, 287.635)" >0</text>
<text fill="#0099cc"  xml:space="preserve" font-size="4.78704" transform="translate(423.968, 310.074)" >GND</text>
<text fill="#0099cc"  xml:space="preserve" font-size="7.89861" transform="translate(400.064, 260.829)" >v_ss</text>
<text fill="#666600"  xml:space="preserve" font-size="4.78704" transform="translate(751.228, 387.749)" >1</text>
<text fill="#666600"  xml:space="preserve" font-size="4.78704" transform="translate(751.228, 407.311)" >2</text>
<text fill="#222222"  xml:space="preserve" font-size="4.78704" transform="translate(763.434, 391.201)" >C1</text>
<text fill="#222222"  xml:space="preserve" font-size="4.78704" transform="translate(763.434, 396.954)" >100f</text>
<text fill="#222222"  xml:space="preserve" font-size="4.78704" transform="translate(763.434, 402.708)" >m=1</text>
<text fill="#0099cc"  xml:space="preserve" font-size="6.4625" transform="translate(713.364, 370.35)" >voutp</text>
<text fill="#222222"  xml:space="preserve" font-size="4.78704" transform="translate(480.354, 400.407)" >Vcm</text>
<text fill="#222222"  xml:space="preserve" font-size="4.78704" transform="translate(480.354, 411.914)" >dc 0.75</text>
<text fill="#0099cc"  xml:space="preserve" font-size="6.4625" transform="translate(480.615, 351.938)" >v_cm</text>
<text fill="#222222"  xml:space="preserve" font-size="4.78704" transform="translate(659.868, 298.567)" >I0</text>
<text fill="#222222"  xml:space="preserve" font-size="4.78704" transform="translate(659.868, 304.058)" >20u</text>
<text fill="#222222"  xml:space="preserve" font-size="4.78704" transform="translate(659.868, 451.039)" >Venable</text>
<text fill="#222222"  xml:space="preserve" font-size="4.78704" transform="translate(659.868, 462.546)" >1.5</text>
<text fill="#0099cc"  xml:space="preserve" font-size="6.4625" transform="translate(630.511, 407.174)" >v_ena</text>
<text fill="#222222"  xml:space="preserve" font-size="4.78704" transform="translate(540.192, 372.789)" >Vin</text>
<text fill="#222222"  xml:space="preserve" font-size="4.78704" transform="translate(540.192, 384.296)" >dc 0 ac 1</text>
<text fill="#666600"  xml:space="preserve" font-size="4.78704" transform="translate(792.654, 369.337)" >1</text>
<text fill="#666600"  xml:space="preserve" font-size="4.78704" transform="translate(792.654, 388.899)" >2</text>
<text fill="#222222"  xml:space="preserve" font-size="4.78704" transform="translate(804.86, 372.789)" >C2</text>
<text fill="#222222"  xml:space="preserve" font-size="4.78704" transform="translate(804.86, 378.543)" >100f</text>
<text fill="#222222"  xml:space="preserve" font-size="4.78704" transform="translate(804.86, 384.296)" >m=1</text>
<text fill="#0099cc"  xml:space="preserve" font-size="6.4625" transform="translate(713.364, 351.938)" >voutn</text>
<text fill="#222222"  xml:space="preserve" font-size="4.78704" transform="translate(611.537, 116.291)" >ota-diff</text>
<text fill="#222222"  xml:space="preserve" font-size="4.78704" transform="translate(680.581, 76.7062)" >xota1</text>
<text fill="#222222"  xml:space="preserve" font-size="4.78704" transform="translate(632.948, 89.3904) rotate(270)" >vdd</text>
<text fill="#222222"  xml:space="preserve" font-size="4.78704" transform="translate(606.934, 108.006)" >vinp</text>
<text fill="#222222"  xml:space="preserve" font-size="4.78704" transform="translate(606.934, 126.418)" >vinn</text>
<text fill="#222222"  xml:space="preserve" font-size="4.78704" transform="translate(651.359, 101.185) rotate(270)" >ibias_20u</text>
<text fill="#222222"  xml:space="preserve" font-size="4.78704" transform="translate(651.359, 149.42) rotate(270)" >d_ena</text>
<text fill="#222222"  xml:space="preserve" font-size="4.78704" transform="translate(632.948, 149.228) rotate(270)" >vss</text>
<text fill="#222222"  xml:space="preserve" font-size="4.78704" transform="translate(662.169, 103.403)" >voutn</text>
<text fill="#222222"  xml:space="preserve" font-size="4.78704" transform="translate(662.169, 121.815)" >voutp</text>
<text fill="#666600"  xml:space="preserve" font-size="4.78704" transform="translate(755.831, 139.191)" >1</text>
<text fill="#666600"  xml:space="preserve" font-size="4.78704" transform="translate(755.831, 158.753)" >2</text>
<text fill="#222222"  xml:space="preserve" font-size="4.78704" transform="translate(768.037, 142.643)" >C3</text>
<text fill="#222222"  xml:space="preserve" font-size="4.78704" transform="translate(768.037, 148.397)" >100f</text>
<text fill="#222222"  xml:space="preserve" font-size="4.78704" transform="translate(768.037, 154.15)" >m=1</text>
<text fill="#222222"  xml:space="preserve" font-size="4.78704" transform="translate(480.354, 151.849)" >Vcm1</text>
<text fill="#222222"  xml:space="preserve" font-size="4.78704" transform="translate(480.354, 163.356)" >dc 0.75 ac 1</text>
<text fill="#0099cc"  xml:space="preserve" font-size="6.4625" transform="translate(477.615, 103.381)" >vincm</text>
<text fill="#222222"  xml:space="preserve" font-size="4.78704" transform="translate(659.868, 50.0093)" >I1</text>
<text fill="#222222"  xml:space="preserve" font-size="4.78704" transform="translate(659.868, 55.5)" >20u</text>
<text fill="#0099cc"  xml:space="preserve" font-size="6.4625" transform="translate(658.129, 172.425)" >v_ena</text>
<text fill="#666600"  xml:space="preserve" font-size="4.78704" transform="translate(792.654, 120.779)" >1</text>
<text fill="#666600"  xml:space="preserve" font-size="4.78704" transform="translate(792.654, 140.342)" >2</text>
<text fill="#222222"  xml:space="preserve" font-size="4.78704" transform="translate(804.86, 124.231)" >C4</text>
<text fill="#222222"  xml:space="preserve" font-size="4.78704" transform="translate(804.86, 129.985)" >100f</text>
<text fill="#222222"  xml:space="preserve" font-size="4.78704" transform="translate(804.86, 135.739)" >m=1</text>
<text fill="#0099cc"  xml:space="preserve" font-size="7.89861" transform="translate(450.696, 205.594)" >v_ss</text>
<text fill="#0099cc"  xml:space="preserve" font-size="7.89861" transform="translate(609.798, 30.683)" >v_dd</text>
<text fill="#222222"  xml:space="preserve" font-size="4.78704" transform="translate(880.808, 84.5312)" >0.5</text>
<text fill="#222222"  xml:space="preserve" font-size="4.78704" transform="translate(880.808, 74.1746)" >E1</text>
<text fill="#0099cc"  xml:space="preserve" font-size="4.78704" transform="translate(875.055, 116.752)" >GND</text>
<text fill="#0099cc"  xml:space="preserve" font-size="6.4625" transform="translate(868.466, 20.5281)" >voutcm</text>
<text fill="#0099cc"  xml:space="preserve" font-size="7.89861" transform="translate(609.798, 279.241)" >v_dd</text>
<text fill="#0099cc"  xml:space="preserve" font-size="7.89861" transform="translate(450.696, 481.769)" >v_ss</text>
<text fill="#222222"  xml:space="preserve" font-size="4.78704" transform="translate(880.808, 323.883)" >1</text>
<text fill="#222222"  xml:space="preserve" font-size="4.78704" transform="translate(880.808, 313.527)" >E2</text>
<text fill="#0099cc"  xml:space="preserve" font-size="4.78704" transform="translate(875.055, 342.295)" >GND</text>
<text fill="#0099cc"  xml:space="preserve" font-size="6.4625" transform="translate(878.466, 287.498)" >vout</text>
<text fill="#0099cc"  xml:space="preserve" font-size="6.4625" transform="translate(707.967, 121.792)" >voutcmp</text>
<text fill="#0099cc"  xml:space="preserve" font-size="6.4625" transform="translate(707.967, 103.381)" >voutcmn</text>
<text fill="#222222"  xml:space="preserve" font-size="4.78704" transform="translate(880.808, 56.9137)" >0.5</text>
<text fill="#222222"  xml:space="preserve" font-size="4.78704" transform="translate(880.808, 46.5571)" >E3</text>
<text fill="#0099cc"  xml:space="preserve" font-size="6.4625" transform="translate(566.468, 351.938)" >vinp</text>
<text fill="#0099cc"  xml:space="preserve" font-size="6.4625" transform="translate(566.468, 370.35)" >vinn</text>
<text fill="#222222"  xml:space="preserve" font-size="4.78704" transform="translate(549.717, 344.853) rotate(270)" >Vin1</text>
<text fill="#222222"  xml:space="preserve" font-size="4.78704" transform="translate(561.224, 344.853) rotate(270)" >0</text>
<path class="l1" d="M383.693 294.22L383.693 303.426"/>
<path class="l1" d="M420.516 294.22L420.516 303.426"/>
<path class="l1" d="M420.516 257.397L420.516 266.603"/>
<path class="l1" d="M632.25 275.809L650.662 275.809"/>
<path class="l1" d="M632.25 400.088L632.25 478.337"/>
<path class="l1" d="M756.529 409.293L756.529 478.337"/>
<path class="l1" d="M678.28 372.47L756.529 372.47"/>
<path class="l1" d="M563.207 372.47L595.427 372.47"/>
<path class="l1" d="M471.148 418.499L471.148 478.337"/>
<path class="l1" d="M471.148 354.058L471.148 390.882"/>
<path class="l1" d="M650.662 275.809L650.662 285.015"/>
<path class="l1" d="M650.662 312.632L650.662 326.441"/>
<path class="l1" d="M383.693 257.397L383.693 266.603"/>
<path class="l1" d="M632.25 275.809L632.25 326.441"/>
<path class="l1" d="M650.662 469.131L650.662 478.337"/>
<path class="l1" d="M632.25 478.337L650.662 478.337"/>
<path class="l1" d="M471.148 478.337L632.25 478.337"/>
<path class="l1" d="M650.662 400.088L650.662 441.514"/>
<path class="l1" d="M530.986 354.058L530.986 363.264"/>
<path class="l1" d="M471.148 354.058L530.986 354.058"/>
<path class="l1" d="M563.207 372.47L563.207 404.69"/>
<path class="l1" d="M530.986 404.69L563.207 404.69"/>
<path class="l1" d="M530.986 390.882L530.986 404.69"/>
<path class="l1" d="M797.956 390.882L797.956 478.337"/>
<path class="l1" d="M756.529 372.47L756.529 381.676"/>
<path class="l1" d="M756.529 478.337L797.956 478.337"/>
<path class="l1" d="M650.662 478.337L756.529 478.337"/>
<path class="l1" d="M797.956 354.058L797.956 363.264"/>
<path class="l1" d="M632.25 27.251L650.662 27.251"/>
<path class="l1" d="M471.148 169.942L471.148 202.162"/>
<path class="l1" d="M471.148 105.501L471.148 142.324"/>
<path class="l1" d="M567.81 105.501L595.427 105.501"/>
<path class="l1" d="M650.662 27.251L650.662 36.4568"/>
<path class="l1" d="M650.662 59.4714L650.662 77.8831"/>
<path class="l1" d="M632.25 27.251L632.25 77.8831"/>
<path class="l1" d="M567.81 105.501L567.81 123.912"/>
<path class="l1" d="M471.148 105.501L567.81 105.501"/>
<path class="l1" d="M761.132 123.912L761.132 133.118"/>
<path class="l1" d="M673.677 105.501L797.956 105.501"/>
<path class="l1" d="M797.956 105.501L797.956 114.706"/>
<path class="l1" d="M567.81 123.912L595.427 123.912"/>
<path class="l1" d="M871.602 100.898L871.602 110.104"/>
<path class="l1" d="M797.956 68.6772L797.956 105.501"/>
<path class="l1" d="M871.602 22.648L871.602 36.4568"/>
<path class="l1" d="M871.602 22.648L899.22 22.648"/>
<path class="l1" d="M650.662 174.544L678.28 174.544"/>
<path class="l1" d="M650.662 151.53L650.662 174.544"/>
<path class="l1" d="M673.677 354.058L797.956 354.058"/>
<path class="l1" d="M871.602 331.044L871.602 335.647"/>
<path class="l1" d="M871.602 289.617L871.602 303.426"/>
<path class="l1" d="M871.602 289.617L899.22 289.617"/>
<path class="l1" d="M797.956 326.441L853.191 326.441"/>
<path class="l1" d="M797.956 326.441L797.956 354.058"/>
<path class="l1" d="M756.529 308.029L853.191 308.029"/>
<path class="l1" d="M756.529 308.029L756.529 372.47"/>
<path class="l1" d="M843.985 59.4714L853.191 59.4714"/>
<path class="l1" d="M843.985 87.0889L843.985 100.898"/>
<path class="l1" d="M843.985 100.898L871.602 100.898"/>
<path class="l1" d="M871.602 91.6919L871.602 100.898"/>
<path class="l1" d="M843.985 87.0889L853.191 87.0889"/>
<path class="l1" d="M843.985 59.4714L843.985 87.0889"/>
<path class="l1" d="M761.132 41.0597L853.191 41.0597"/>
<path class="l1" d="M761.132 41.0597L761.132 123.912"/>
<path class="l1" d="M761.132 202.162L797.956 202.162"/>
<path class="l1" d="M632.25 151.53L632.25 202.162"/>
<path class="l1" d="M471.148 202.162L632.25 202.162"/>
<path class="l1" d="M797.956 142.324L797.956 202.162"/>
<path class="l1" d="M761.132 160.736L761.132 202.162"/>
<path class="l1" d="M632.25 202.162L761.132 202.162"/>
<path class="l1" d="M797.956 68.6772L853.191 68.6772"/>
<path class="l1" d="M678.28 123.912L761.132 123.912"/>
<path class="l1" d="M530.986 354.058L540.192 354.058"/>
<path class="l1" d="M567.81 354.058L595.427 354.058"/>
<circle class="l1" cx="632.25" cy="202.162" r="1.70308"/>
<circle class="l1" cx="567.81" cy="105.501" r="1.70308"/>
<circle class="l1" cx="530.986" cy="354.058" r="1.70308"/>
<circle class="l1" cx="632.25" cy="478.337" r="1.70308"/>
<circle class="l1" cx="761.132" cy="123.912" r="1.70308"/>
<circle class="l1" cx="632.25" cy="202.162" r="1.70308"/>
<circle class="l1" cx="761.132" cy="202.162" r="1.70308"/>
<circle class="l1" cx="632.25" cy="202.162" r="1.70308"/>
<circle class="l1" cx="797.956" cy="105.501" r="1.70308"/>
<circle class="l1" cx="567.81" cy="105.501" r="1.70308"/>
<circle class="l1" cx="567.81" cy="105.501" r="1.70308"/>
<circle class="l1" cx="530.986" cy="354.058" r="1.70308"/>
<circle class="l1" cx="797.956" cy="354.058" r="1.70308"/>
<circle class="l1" cx="530.986" cy="354.058" r="1.70308"/>
<circle class="l1" cx="756.529" cy="372.47" r="1.70308"/>
<circle class="l1" cx="632.25" cy="478.337" r="1.70308"/>
<circle class="l1" cx="650.662" cy="478.337" r="1.70308"/>
<circle class="l1" cx="756.529" cy="478.337" r="1.70308"/>
<circle class="l1" cx="632.25" cy="478.337" r="1.70308"/>
<circle class="l1" cx="650.662" cy="478.337" r="1.70308"/>
<circle class="l1" cx="650.662" cy="478.337" r="1.70308"/>
<circle class="l1" cx="761.132" cy="123.912" r="1.70308"/>
<circle class="l1" cx="843.985" cy="87.0889" r="1.70308"/>
<circle class="l1" cx="843.985" cy="87.0889" r="1.70308"/>
<circle class="l1" cx="871.602" cy="100.898" r="1.70308"/>
<circle class="l1" cx="843.985" cy="87.0889" r="1.70308"/>
<circle class="l1" cx="797.956" cy="105.501" r="1.70308"/>
<circle class="l1" cx="761.132" cy="202.162" r="1.70308"/>
<circle class="l1" cx="761.132" cy="202.162" r="1.70308"/>
<circle class="l1" cx="871.602" cy="100.898" r="1.70308"/>
<circle class="l1" cx="871.602" cy="100.898" r="1.70308"/>
<circle class="l1" cx="797.956" cy="105.501" r="1.70308"/>
<circle class="l1" cx="761.132" cy="123.912" r="1.70308"/>
<circle class="l1" cx="756.529" cy="372.47" r="1.70308"/>
<circle class="l1" cx="797.956" cy="354.058" r="1.70308"/>
<circle class="l1" cx="797.956" cy="354.058" r="1.70308"/>
<circle class="l1" cx="756.529" cy="372.47" r="1.70308"/>
<circle class="l1" cx="756.529" cy="478.337" r="1.70308"/>
<circle class="l1" cx="756.529" cy="478.337" r="1.70308"/>
</svg>
