<svg xmlns="http://www.w3.org/2000/svg" xmlns:xlink="http://www.w3.org/1999/xlink" width="1072" height="670" version="1.1">
<style type="text/css">
.l0{
  fill: #ffffff;
  stroke: #ffffff;
  stroke-linecap:round;
  stroke-linejoin:round;
  stroke-width: 0.570644;
}
.l1{
  fill: #0099cc;
  stroke: #0099cc;
  stroke-linecap:round;
  stroke-linejoin:round;
  stroke-width: 0.570644;
}
.l2{
  fill: #aaaaaa; fill-opacity: 0.2;
  stroke: #aaaaaa;
  stroke-linecap:round;
  stroke-linejoin:round;
  stroke-width: 0.570644;
}
.l3{
  fill: #222222; fill-opacity: 0.5;
  stroke: #222222;
  stroke-linecap:round;
  stroke-linejoin:round;
  stroke-width: 0.570644;
}
.l4{
  fill: #229900;
  stroke: #229900;
  stroke-linecap:round;
  stroke-linejoin:round;
  stroke-width: 0.570644;
}
.l5{
  fill: #bb2200;
  stroke: #bb2200;
  stroke-linecap:round;
  stroke-linejoin:round;
  stroke-width: 0.570644;
}
.l6{
  fill: #0066cc; fill-opacity: 0.5;
  stroke: #0066cc;
  stroke-linecap:round;
  stroke-linejoin:round;
  stroke-width: 0.570644;
}
.l7{
  fill: #ff0000; fill-opacity: 0.5;
  stroke: #ff0000;
  stroke-linecap:round;
  stroke-linejoin:round;
  stroke-width: 0.570644;
}
.l8{
  fill: #888800; fill-opacity: 0.5;
  stroke: #888800;
  stroke-linecap:round;
  stroke-linejoin:round;
  stroke-width: 0.570644;
}
.l9{
  fill: #00aaaa; fill-opacity: 0.5;
  stroke: #00aaaa;
  stroke-linecap:round;
  stroke-linejoin:round;
  stroke-width: 0.570644;
}
.l10{
  fill: #880088;
  stroke: #880088;
  stroke-linecap:round;
  stroke-linejoin:round;
  stroke-width: 0.570644;
}
.l11{
  fill: #00ff00; fill-opacity: 0.5;
  stroke: #00ff00;
  stroke-linecap:round;
  stroke-linejoin:round;
  stroke-width: 0.570644;
}
.l12{
  fill: #0000cc; fill-opacity: 0.5;
  stroke: #0000cc;
  stroke-linecap:round;
  stroke-linejoin:round;
  stroke-width: 0.570644;
}
.l13{
  fill: #666600; fill-opacity: 0.5;
  stroke: #666600;
  stroke-linecap:round;
  stroke-linejoin:round;
  stroke-width: 0.570644;
}
.l14{
  fill: #557755; fill-opacity: 0.2;
  stroke: #557755;
  stroke-linecap:round;
  stroke-linejoin:round;
  stroke-width: 0.570644;
}
.l15{
  fill: #aa2222; fill-opacity: 0.5;
  stroke: #aa2222;
  stroke-linecap:round;
  stroke-linejoin:round;
  stroke-width: 0.570644;
}
.l16{
  fill: #7ccc40; fill-opacity: 0.5;
  stroke: #7ccc40;
  stroke-linecap:round;
  stroke-linejoin:round;
  stroke-width: 0.570644;
}
.l17{
  fill: #00ffcc; fill-opacity: 0.2;
  stroke: #00ffcc;
  stroke-linecap:round;
  stroke-linejoin:round;
  stroke-width: 0.570644;
}
.l18{
  fill: #ce0097; fill-opacity: 0.5;
  stroke: #ce0097;
  stroke-linecap:round;
  stroke-linejoin:round;
  stroke-width: 0.570644;
}
.l19{
  fill: #d2d46b; fill-opacity: 0.2;
  stroke: #d2d46b;
  stroke-linecap:round;
  stroke-linejoin:round;
  stroke-width: 0.570644;
}
.l20{
  fill: #ef6158; fill-opacity: 0.2;
  stroke: #ef6158;
  stroke-linecap:round;
  stroke-linejoin:round;
  stroke-width: 0.570644;
}
.l21{
  fill: #fdb200; fill-opacity: 0.2;
  stroke: #fdb200;
  stroke-linecap:round;
  stroke-linejoin:round;
  stroke-width: 0.570644;
}
text {font-family: Sans-Serif;}
</style>
<rect class="l0" x="0" y="0" width="1072" height="670"/>
<path class="l4" stroke-dasharray="2.36712,2.36712" style="fill:none;" d="M455.687 327.391L1055.92 327.391L1055.92 538.741L455.687 538.741L455.687 327.391"/>
<path class="l4" stroke-dasharray="2.36712,2.36712" style="fill:none;" d="M455.687 90.6799L1055.92 90.6799L1055.92 302.029L455.687 302.029L455.687 90.6799"/>
<path class="l4" d="M24.534 521.833L54.1229 521.833"/>
<path class="l4" d="M24.534 521.833L24.534 530.287"/>
<path class="l4" d="M24.534 90.6799L54.1229 90.6799"/>
<path class="l4" d="M24.534 90.6799L24.534 99.1339"/>
<path class="l4" d="M333.104 386.569L320.423 381.286L320.423 384.456L307.742 384.456L311.969 386.569L307.742 388.683L320.423 388.683L320.423 391.853L333.104 386.569"/>
<path class="l4" d="M333.104 361.207L320.423 355.924L320.423 359.094L307.742 359.094L311.969 361.207L307.742 363.321L320.423 363.321L320.423 366.491L333.104 361.207"/>
<path class="l4" d="M321.48 499.641L323.594 499.641"/>
<path class="l4" d="M322.537 498.585L322.537 500.698"/>
<path class="l4" d="M320.423 496.471L320.423 521.833"/>
<circle class="l4" cx="320.423" cy="509.152" r="6.34049" style="fill:none;" />
<path class="l4" d="M320.423 530.287L320.423 535.571"/>
<path class="l4" d="M318.31 535.571L322.537 535.571"/>
<path class="l4" d="M320.423 537.684L322.537 535.571"/>
<path class="l4" d="M318.31 535.571L320.423 537.684"/>
<path class="l4" d="M389.112 499.641L391.226 499.641"/>
<path class="l4" d="M390.169 498.585L390.169 500.698"/>
<path class="l4" d="M388.055 496.471L388.055 521.833"/>
<circle class="l4" cx="388.055" cy="509.152" r="6.34049" style="fill:none;" />
<path class="l4" d="M388.055 530.287L388.055 535.571"/>
<path class="l4" d="M385.942 535.571L390.169 535.571"/>
<path class="l4" d="M388.055 537.684L390.169 535.571"/>
<path class="l4" d="M385.942 535.571L388.055 537.684"/>
<path class="l4" d="M321.48 432.009L323.594 432.009"/>
<path class="l4" d="M322.537 430.953L322.537 433.066"/>
<path class="l4" d="M320.423 428.839L320.423 454.201"/>
<circle class="l4" cx="320.423" cy="441.52" r="6.34049" style="fill:none;" />
<path class="l4" d="M389.112 432.009L391.226 432.009"/>
<path class="l4" d="M390.169 430.953L390.169 433.066"/>
<path class="l4" d="M388.055 428.839L388.055 454.201"/>
<circle class="l4" cx="388.055" cy="441.52" r="6.34049" style="fill:none;" />
<path class="l4" d="M683.945 460.542L683.945 471.109"/>
<path class="l4" d="M683.945 445.747L683.945 456.315"/>
<path class="l4" d="M679.718 456.315L688.172 456.315"/>
<path class="l4" d="M679.718 460.542L688.172 460.542"/>
<path class="l4" d="M685.001 448.917L687.115 448.917"/>
<path class="l4" d="M686.058 447.861L686.058 449.974"/>
<path class="l4" d="M599.405 352.753L599.405 359.094"/>
<path class="l4" d="M599.405 371.775L599.405 378.115"/>
<path class="l4" d="M600.462 355.924L602.575 355.924"/>
<path class="l4" d="M601.518 354.867L601.518 356.98"/>
<path class="l4" d="M599.405 362.264L599.405 366.491L600.462 366.491L599.405 369.661L598.348 366.491L599.405 366.491L599.405 362.264"/>
<circle class="l4" cx="599.405" cy="365.434" r="6.34049" style="fill:none;" />
<path class="l4" d="M616.313 420.385L624.767 420.385"/>
<path class="l4" d="M548.681 407.704L557.135 407.704"/>
<path class="l4" d="M548.681 433.066L557.135 433.066"/>
<path class="l4" d="M557.135 395.023L557.135 445.747"/>
<path class="l4" d="M557.135 445.747L616.313 420.385"/>
<path class="l4" d="M557.135 395.023L616.313 420.385"/>
<path class="l4" d="M548.681 386.569L624.767 386.569"/>
<path class="l4" d="M624.767 386.569L624.767 454.201"/>
<path class="l4" d="M548.681 454.201L624.767 454.201"/>
<path class="l4" d="M548.681 386.569L548.681 454.201"/>
<path class="l4" d="M518.035 467.939L518.035 470.052"/>
<path class="l4" d="M516.979 468.996L519.092 468.996"/>
<path class="l4" d="M514.865 471.109L540.227 471.109"/>
<circle class="l4" cx="527.546" cy="471.109" r="6.34049" style="fill:none;" />
<path class="l4" d="M1005.2 460.542L1005.2 471.109"/>
<path class="l4" d="M1005.2 445.747L1005.2 456.315"/>
<path class="l4" d="M1000.97 456.315L1009.42 456.315"/>
<path class="l4" d="M1000.97 460.542L1009.42 460.542"/>
<path class="l4" d="M1006.25 448.917L1008.37 448.917"/>
<path class="l4" d="M1007.31 447.861L1007.31 449.974"/>
<path class="l4" d="M920.656 352.753L920.656 359.094"/>
<path class="l4" d="M920.656 371.775L920.656 378.115"/>
<path class="l4" d="M921.713 355.924L923.827 355.924"/>
<path class="l4" d="M922.77 354.867L922.77 356.98"/>
<path class="l4" d="M920.656 362.264L920.656 366.491L921.713 366.491L920.656 369.661L919.6 366.491L920.656 366.491L920.656 362.264"/>
<circle class="l4" cx="920.656" cy="365.434" r="6.34049" style="fill:none;" />
<path class="l4" d="M937.564 420.385L946.018 420.385"/>
<path class="l4" d="M869.932 407.704L878.386 407.704"/>
<path class="l4" d="M869.932 433.066L878.386 433.066"/>
<path class="l4" d="M878.386 395.023L878.386 445.747"/>
<path class="l4" d="M878.386 445.747L937.564 420.385"/>
<path class="l4" d="M878.386 395.023L937.564 420.385"/>
<path class="l4" d="M869.932 386.569L946.018 386.569"/>
<path class="l4" d="M946.018 386.569L946.018 454.201"/>
<path class="l4" d="M869.932 454.201L946.018 454.201"/>
<path class="l4" d="M869.932 386.569L869.932 454.201"/>
<path class="l4" d="M861.478 471.109L886.84 471.109"/>
<path class="l4" d="M869.932 471.109L874.159 467.939"/>
<path class="l4" d="M869.932 471.109L874.159 474.279"/>
<path class="l4" d="M819.208 471.109L844.57 471.109"/>
<path class="l4" d="M827.662 471.109L831.889 467.939"/>
<path class="l4" d="M827.662 471.109L831.889 474.279"/>
<path class="l4" d="M853.024 507.039L853.024 513.379"/>
<path class="l4" d="M853.024 488.017L853.024 494.358"/>
<path class="l4" d="M849.854 510.209L851.968 510.209"/>
<path class="l4" d="M850.911 509.152L850.911 511.266"/>
<path class="l4" d="M853.024 503.868L853.024 499.641L851.968 499.641L853.024 496.471L854.081 499.641L853.024 499.641L853.024 503.868"/>
<circle class="l4" cx="853.024" cy="500.698" r="6.34049" style="fill:none;" />
<path class="l4" d="M683.945 223.83L683.945 234.398"/>
<path class="l4" d="M683.945 209.036L683.945 219.603"/>
<path class="l4" d="M679.718 219.603L688.172 219.603"/>
<path class="l4" d="M679.718 223.83L688.172 223.83"/>
<path class="l4" d="M685.001 212.206L687.115 212.206"/>
<path class="l4" d="M686.058 211.149L686.058 213.263"/>
<path class="l4" d="M599.405 116.042L599.405 122.382"/>
<path class="l4" d="M599.405 135.063L599.405 141.404"/>
<path class="l4" d="M600.462 119.212L602.575 119.212"/>
<path class="l4" d="M601.518 118.155L601.518 120.269"/>
<path class="l4" d="M599.405 125.553L599.405 129.78L600.462 129.78L599.405 132.95L598.348 129.78L599.405 129.78L599.405 125.553"/>
<circle class="l4" cx="599.405" cy="128.723" r="6.34049" style="fill:none;" />
<path class="l4" d="M616.313 183.674L624.767 183.674"/>
<path class="l4" d="M548.681 170.993L557.135 170.993"/>
<path class="l4" d="M548.681 196.355L557.135 196.355"/>
<path class="l4" d="M557.135 158.312L557.135 209.036"/>
<path class="l4" d="M557.135 209.036L616.313 183.674"/>
<path class="l4" d="M557.135 158.312L616.313 183.674"/>
<path class="l4" d="M548.681 149.858L624.767 149.858"/>
<path class="l4" d="M624.767 149.858L624.767 217.49"/>
<path class="l4" d="M548.681 217.49L624.767 217.49"/>
<path class="l4" d="M548.681 149.858L548.681 217.49"/>
<path class="l4" d="M1005.2 223.83L1005.2 234.398"/>
<path class="l4" d="M1005.2 209.036L1005.2 219.603"/>
<path class="l4" d="M1000.97 219.603L1009.42 219.603"/>
<path class="l4" d="M1000.97 223.83L1009.42 223.83"/>
<path class="l4" d="M1006.25 212.206L1008.37 212.206"/>
<path class="l4" d="M1007.31 211.149L1007.31 213.263"/>
<path class="l4" d="M920.656 116.042L920.656 122.382"/>
<path class="l4" d="M920.656 135.063L920.656 141.404"/>
<path class="l4" d="M921.713 119.212L923.827 119.212"/>
<path class="l4" d="M922.77 118.155L922.77 120.269"/>
<path class="l4" d="M920.656 125.553L920.656 129.78L921.713 129.78L920.656 132.95L919.6 129.78L920.656 129.78L920.656 125.553"/>
<circle class="l4" cx="920.656" cy="128.723" r="6.34049" style="fill:none;" />
<path class="l4" d="M937.564 183.674L946.018 183.674"/>
<path class="l4" d="M869.932 170.993L878.386 170.993"/>
<path class="l4" d="M869.932 196.355L878.386 196.355"/>
<path class="l4" d="M878.386 158.312L878.386 209.036"/>
<path class="l4" d="M878.386 209.036L937.564 183.674"/>
<path class="l4" d="M878.386 158.312L937.564 183.674"/>
<path class="l4" d="M869.932 149.858L946.018 149.858"/>
<path class="l4" d="M946.018 149.858L946.018 217.49"/>
<path class="l4" d="M869.932 217.49L946.018 217.49"/>
<path class="l4" d="M869.932 149.858L869.932 217.49"/>
<path class="l4" d="M481.049 278.781L481.049 285.121"/>
<path class="l4" d="M481.049 259.76L481.049 266.1"/>
<path class="l4" d="M482.106 281.951L484.219 281.951"/>
<path class="l4" d="M483.163 280.895L483.163 283.008"/>
<path class="l4" d="M481.049 275.611L481.049 271.384L482.106 271.384L481.049 268.214L479.992 271.384L481.049 271.384L481.049 275.611"/>
<circle class="l4" cx="481.049" cy="272.441" r="6.34049" style="fill:none;" />
<path class="l4" d="M501.127 231.227L501.127 233.341"/>
<path class="l4" d="M500.071 232.284L502.184 232.284"/>
<path class="l4" d="M497.957 234.398L523.319 234.398"/>
<circle class="l4" cx="510.638" cy="234.398" r="6.34049" style="fill:none;" />
<path class="l4" d="M540.227 234.398L565.589 234.398"/>
<path class="l4" d="M548.681 234.398L552.908 231.227"/>
<path class="l4" d="M548.681 234.398L552.908 237.568"/>
<path class="l4" d="M802.3 278.781L802.3 285.121"/>
<path class="l4" d="M802.3 259.76L802.3 266.1"/>
<path class="l4" d="M803.357 281.951L805.471 281.951"/>
<path class="l4" d="M804.414 280.895L804.414 283.008"/>
<path class="l4" d="M802.3 275.611L802.3 271.384L803.357 271.384L802.3 268.214L801.244 271.384L802.3 271.384L802.3 275.611"/>
<circle class="l4" cx="802.3" cy="272.441" r="6.34049" style="fill:none;" />
<path class="l4" d="M822.379 231.227L822.379 233.341"/>
<path class="l4" d="M821.322 232.284L823.435 232.284"/>
<path class="l4" d="M819.208 234.398L844.57 234.398"/>
<circle class="l4" cx="831.889" cy="234.398" r="6.34049" style="fill:none;" />
<path class="l4" d="M861.478 234.398L886.84 234.398"/>
<path class="l4" d="M869.932 234.398L874.159 231.227"/>
<path class="l4" d="M869.932 234.398L874.159 237.568"/>
<path class="l5" d="M79.4849 570.443L79.3528 570.576L79.2207 570.708L79.0886 570.84L78.9565 570.972L78.8244 571.104L78.6923 571.236L78.5602 571.368L78.4281 571.5L78.296 571.632L78.1639 571.764L78.0318 571.896L77.8998 572.029L77.7677 572.161L77.6356 572.293L77.5035 572.425L77.3714 572.557L77.2393 572.689L77.1072 572.821L76.9751 572.953L76.843 573.085L76.7109 573.217L76.5788 573.35L76.4467 573.482L76.3146 573.614L76.1825 573.746L76.0504 573.878L75.9184 574.01L75.7863 574.142L75.6542 574.274L75.5221 574.406L75.39 574.538L75.2579 574.67L75.2579 574.67L75.1299 574.803L75.0102 574.935L74.8988 575.067L74.7956 575.199L74.7006 575.331L74.6139 575.463L74.5355 575.595L74.4653 575.727L74.4034 575.859L74.3497 575.991L74.3043 576.123L74.2672 576.256L74.2383 576.388L74.2176 576.52L74.2053 576.652L74.2011 576.784L74.2053 576.916L74.2176 577.048L74.2383 577.18L74.2672 577.312L74.3043 577.444L74.3497 577.576L74.4034 577.709L74.4653 577.841L74.5355 577.973L74.6139 578.105L74.7006 578.237L74.7956 578.369L74.8988 578.501L75.0102 578.633L75.1299 578.765L75.2579 578.897L75.2579 578.897L75.3905 579.03L75.5241 579.164L75.6588 579.298L75.7945 579.434L75.9313 579.571L76.069 579.709L76.2078 579.847L76.3477 579.987L76.4885 580.128L76.6304 580.27L76.7733 580.413L76.9173 580.557L77.0623 580.702L77.2083 580.848L77.3554 580.995L77.5035 581.143L77.6526 581.292L77.8027 581.442L77.9539 581.593L78.1062 581.746L78.2594 581.899L78.4137 582.053L78.569 582.209L78.7253 582.365L78.8827 582.522L79.0411 582.681L79.2006 582.84L79.361 583.001L79.5225 583.162L79.6851 583.325L79.8487 583.488L80.0133 583.653L80.0133 583.653L80.1773 583.817L80.3394 583.979L80.4993 584.139L80.6572 584.297L80.813 584.453L80.9668 584.606L81.1185 584.758L81.2681 584.908L81.4157 585.055L81.5612 585.201L81.7047 585.344L81.846 585.486L81.9854 585.625L82.1226 585.762L82.2578 585.897L82.3909 586.03L82.522 586.162L82.651 586.291L82.7779 586.417L82.9028 586.542L83.0256 586.665L83.1463 586.786L83.265 586.905L83.3816 587.021L83.4962 587.136L83.6087 587.248L83.7191 587.359L83.8275 587.467L83.9337 587.573L84.038 587.678L84.1401 587.78L84.2402 587.88L84.2402 587.88L84.3362 587.977L84.426 588.072L84.5096 588.163L84.587 588.251L84.6582 588.336L84.7232 588.418L84.782 588.497L84.8347 588.573L84.8811 588.646L84.9214 588.716L84.9554 588.782L84.9833 588.846L85.0049 588.906L85.0204 588.963L85.0297 589.018L85.0328 589.069L85.0297 589.117L85.0204 589.162L85.0049 589.203L84.9833 589.242L84.9554 589.278L84.9214 589.31L84.8811 589.34L84.8347 589.366L84.782 589.389L84.7232 589.409L84.6582 589.426L84.587 589.44L84.5096 589.451L84.426 589.459L84.3362 589.463L84.2402 589.465L84.2402 589.465L84.1412 589.465L84.0421 589.465L83.943 589.465L83.844 589.465L83.7449 589.465L83.6458 589.465L83.5468 589.465L83.4477 589.465L83.3486 589.465L83.2495 589.465L83.1505 589.465L83.0514 589.465L82.9523 589.465L82.8533 589.465L82.7542 589.465L82.6551 589.465L82.5561 589.465L82.457 589.465L82.3579 589.465L82.2588 589.465L82.1598 589.465L82.0607 589.465L81.9616 589.465L81.8626 589.465L81.7635 589.465L81.6644 589.465L81.5654 589.465L81.4663 589.465L81.3672 589.465L81.2681 589.465L81.1691 589.465L81.07 589.465L81.07 589.465L80.9714 589.465L80.8739 589.465L80.7774 589.465L80.682 589.465L80.5875 589.465L80.4942 589.465L80.4018 589.465L80.3105 589.465L80.2202 589.465L80.1309 589.465L80.0427 589.465L79.9555 589.465L79.8693 589.465L79.7842 589.465L79.7 589.465L79.617 589.465L79.5349 589.465L79.4539 589.465L79.3739 589.465L79.295 589.465L79.2171 589.465L79.1402 589.465L79.0643 589.465L78.9895 589.465L78.9157 589.465L78.843 589.465L78.7713 589.465L78.7006 589.465L78.6309 589.465L78.5623 589.465L78.4947 589.465L78.4281 589.465L78.4281 589.465L78.3621 589.464L78.296 589.461L78.23 589.456L78.1639 589.448L78.0979 589.439L78.0318 589.428L77.9658 589.414L77.8998 589.399L77.8337 589.381L77.7677 589.362L77.7016 589.34L77.6356 589.316L77.5695 589.291L77.5035 589.263L77.4374 589.233L77.3714 589.201L77.3053 589.167L77.2393 589.131L77.1732 589.092L77.1072 589.052L77.0411 589.01L76.9751 588.965L76.9091 588.919L76.843 588.87L76.777 588.82L76.7109 588.767L76.6449 588.713L76.5788 588.656L76.5128 588.597L76.4467 588.536L76.3807 588.473L76.3146 588.408L76.3146 588.408L76.2486 588.342L76.1825 588.276L76.1165 588.21L76.0504 588.144L75.9844 588.078L75.9184 588.012L75.8523 587.946L75.7863 587.88L75.7202 587.814L75.6542 587.748L75.5881 587.682L75.5221 587.616L75.456 587.55L75.39 587.484L75.3239 587.417L75.2579 587.351L75.1918 587.285L75.1258 587.219L75.0597 587.153L74.9937 587.087L74.9277 587.021L74.8616 586.955L74.7956 586.889L74.7295 586.823L74.6635 586.757L74.5974 586.691L74.5314 586.625L74.4653 586.559L74.3993 586.493L74.3332 586.427L74.2672 586.361L74.2011 586.295L74.2011 586.295L74.1341 586.228L74.0649 586.158L73.9937 586.087L73.9204 586.014L73.8451 585.939L73.7677 585.861L73.6882 585.782L73.6067 585.7L73.5231 585.617L73.4375 585.531L73.3498 585.443L73.26 585.354L73.1681 585.262L73.0742 585.168L72.9782 585.072L72.8802 584.974L72.7801 584.874L72.6779 584.771L72.5737 584.667L72.4674 584.561L72.3591 584.453L72.2486 584.342L72.1361 584.23L72.0216 584.115L71.905 583.999L71.7863 583.88L71.6656 583.759L71.5428 583.636L71.4179 583.511L71.291 583.384L71.162 583.255L71.0309 583.124L71.0309 583.124L70.8988 582.996L70.7667 582.877L70.6346 582.765L70.5025 582.662L70.3704 582.567L70.2383 582.48L70.1062 582.402L69.9741 582.332L69.8421 582.27L69.71 582.216L69.5779 582.171L69.4458 582.134L69.3137 582.105L69.1816 582.084L69.0495 582.072L68.9174 582.068L68.7853 582.072L68.6532 582.084L68.5211 582.105L68.389 582.134L68.2569 582.171L68.1248 582.216L67.9927 582.27L67.8607 582.332L67.7286 582.402L67.5965 582.48L67.4644 582.567L67.3323 582.662L67.2002 582.765L67.0681 582.877L66.936 582.996L66.8039 583.124L66.8039 583.124L66.6728 583.255L66.5438 583.384L66.4169 583.511L66.292 583.636L66.1692 583.759L66.0485 583.88L65.9298 583.999L65.8132 584.115L65.6987 584.23L65.5862 584.342L65.4757 584.453L65.3674 584.561L65.2611 584.667L65.1569 584.771L65.0547 584.874L64.9546 584.974L64.8566 585.072L64.7606 585.168L64.6667 585.262L64.5748 585.354L64.485 585.443L64.3973 585.531L64.3117 585.617L64.2281 585.7L64.1466 585.782L64.0671 585.861L63.9897 585.939L63.9144 586.014L63.8411 586.087L63.7699 586.158L63.7007 586.228L63.6337 586.295L63.6337 586.295L63.5676 586.361L63.5016 586.427L63.4355 586.493L63.3695 586.559L63.3034 586.625L63.2374 586.691L63.1713 586.757L63.1053 586.823L63.0392 586.889L62.9732 586.955L62.9071 587.021L62.8411 587.087L62.7751 587.153L62.709 587.219L62.643 587.285L62.5769 587.351L62.5109 587.417L62.4448 587.484L62.3788 587.55L62.3127 587.616L62.2467 587.682L62.1806 587.748L62.1146 587.814L62.0485 587.88L61.9825 587.946L61.9164 588.012L61.8504 588.078L61.7843 588.144L61.7183 588.21L61.6523 588.276L61.5862 588.342L61.5202 588.408L61.5202 588.408L61.4541 588.473L61.3881 588.536L61.322 588.597L61.256 588.656L61.1899 588.713L61.1239 588.767L61.0578 588.82L60.9918 588.87L60.9257 588.919L60.8597 588.965L60.7936 589.01L60.7276 589.052L60.6616 589.092L60.5955 589.131L60.5295 589.167L60.4634 589.201L60.3974 589.233L60.3313 589.263L60.2653 589.291L60.1992 589.316L60.1332 589.34L60.0671 589.362L60.0011 589.381L59.935 589.399L59.869 589.414L59.8029 589.428L59.7369 589.439L59.6709 589.448L59.6048 589.456L59.5388 589.461L59.4727 589.464L59.4067 589.465L59.4067 589.465L59.3401 589.465L59.2725 589.465L59.2039 589.465L59.1342 589.465L59.0635 589.465L58.9918 589.465L58.9191 589.465L58.8453 589.465L58.7705 589.465L58.6946 589.465L58.6177 589.465L58.5398 589.465L58.4609 589.465L58.3809 589.465L58.2999 589.465L58.2178 589.465L58.1348 589.465L58.0506 589.465L57.9655 589.465L57.8793 589.465L57.7921 589.465L57.7039 589.465L57.6146 589.465L57.5243 589.465L57.433 589.465L57.3406 589.465L57.2472 589.465L57.1528 589.465L57.0574 589.465L56.9609 589.465L56.8634 589.465L56.7648 589.465L56.7648 589.465L56.6657 589.465L56.5667 589.465L56.4676 589.465L56.3685 589.465L56.2694 589.465L56.1704 589.465L56.0713 589.465L55.9722 589.465L55.8732 589.465L55.7741 589.465L55.675 589.465L55.576 589.465L55.4769 589.465L55.3778 589.465L55.2787 589.465L55.1797 589.465L55.0806 589.465L54.9815 589.465L54.8825 589.465L54.7834 589.465L54.6843 589.465L54.5853 589.465L54.4862 589.465L54.3871 589.465L54.288 589.465L54.189 589.465L54.0899 589.465L53.9908 589.465L53.8918 589.465L53.7927 589.465L53.6936 589.465L53.5946 589.465L53.5946 589.465L53.4986 589.463L53.4088 589.459L53.3252 589.451L53.2478 589.44L53.1766 589.426L53.1116 589.409L53.0528 589.389L53.0001 589.366L52.9537 589.34L52.9134 589.31L52.8794 589.278L52.8515 589.242L52.8299 589.203L52.8144 589.162L52.8051 589.117L52.802 589.069L52.8051 589.018L52.8144 588.963L52.8299 588.906L52.8515 588.846L52.8794 588.782L52.9134 588.716L52.9537 588.646L53.0001 588.573L53.0528 588.497L53.1116 588.418L53.1766 588.336L53.2478 588.251L53.3252 588.163L53.4088 588.072L53.4986 587.977L53.5946 587.88L53.5946 587.88L53.6947 587.78L53.7968 587.678L53.9011 587.573L54.0073 587.467L54.1157 587.359L54.2261 587.248L54.3386 587.136L54.4532 587.021L54.5698 586.905L54.6885 586.786L54.8092 586.665L54.932 586.542L55.0569 586.417L55.1838 586.291L55.3128 586.162L55.4439 586.03L55.577 585.897L55.7122 585.762L55.8494 585.625L55.9887 585.486L56.1301 585.344L56.2736 585.201L56.4191 585.055L56.5667 584.908L56.7163 584.758L56.868 584.606L57.0218 584.453L57.1776 584.297L57.3355 584.139L57.4954 583.979L57.6575 583.817L57.8215 583.653L57.8215 583.653L57.9861 583.488L58.1497 583.325L58.3123 583.162L58.4738 583.001L58.6342 582.84L58.7937 582.681L58.9521 582.522L59.1095 582.365L59.2658 582.209L59.4211 582.053L59.5754 581.899L59.7286 581.746L59.8809 581.593L60.032 581.442L60.1822 581.292L60.3313 581.143L60.4794 580.995L60.6265 580.848L60.7725 580.702L60.9175 580.557L61.0614 580.413L61.2044 580.27L61.3463 580.128L61.4871 579.987L61.627 579.847L61.7658 579.709L61.9035 579.571L62.0403 579.434L62.176 579.298L62.3107 579.164L62.4443 579.03L62.5769 578.897L62.5769 578.897L62.7049 578.765L62.8246 578.633L62.936 578.501L63.0392 578.369L63.1342 578.237L63.2209 578.105L63.2993 577.973L63.3695 577.841L63.4314 577.709L63.4851 577.576L63.5305 577.444L63.5676 577.312L63.5965 577.18L63.6171 577.048L63.6295 576.916L63.6337 576.784L63.6295 576.652L63.6171 576.52L63.5965 576.388L63.5676 576.256L63.5305 576.123L63.4851 575.991L63.4314 575.859L63.3695 575.727L63.2993 575.595L63.2209 575.463L63.1342 575.331L63.0392 575.199L62.936 575.067L62.8246 574.935L62.7049 574.803L62.5769 574.67L62.5769 574.67L62.4443 574.538L62.3107 574.404L62.176 574.27L62.0403 574.134L61.9035 573.997L61.7658 573.859L61.627 573.721L61.4871 573.581L61.3463 573.44L61.2044 573.298L61.0614 573.155L60.9175 573.011L60.7725 572.866L60.6265 572.72L60.4794 572.573L60.3313 572.425L60.1822 572.276L60.032 572.126L59.8809 571.974L59.7286 571.822L59.5754 571.669L59.4211 571.515L59.2658 571.359L59.1095 571.203L58.9521 571.046L58.7937 570.887L58.6342 570.728L58.4738 570.567L58.3123 570.406L58.1497 570.243L57.9861 570.08L57.8215 569.915L57.8215 569.915L57.6575 569.751L57.4954 569.589L57.3355 569.429L57.1776 569.271L57.0218 569.115L56.868 568.962L56.7163 568.81L56.5667 568.66L56.4191 568.513L56.2736 568.367L56.1301 568.224L55.9887 568.082L55.8494 567.943L55.7122 567.806L55.577 567.671L55.4439 567.537L55.3128 567.406L55.1838 567.277L55.0569 567.15L54.932 567.026L54.8092 566.903L54.6885 566.782L54.5698 566.663L54.4532 566.547L54.3386 566.432L54.2261 566.32L54.1157 566.209L54.0073 566.101L53.9011 565.995L53.7968 565.89L53.6947 565.788L53.5946 565.688L53.5946 565.688L53.4986 565.591L53.4088 565.496L53.3252 565.405L53.2478 565.317L53.1766 565.231L53.1116 565.149L53.0528 565.07L53.0001 564.995L52.9537 564.922L52.9134 564.852L52.8794 564.786L52.8515 564.722L52.8299 564.662L52.8144 564.605L52.8051 564.55L52.802 564.499L52.8051 564.451L52.8144 564.406L52.8299 564.365L52.8515 564.326L52.8794 564.29L52.9134 564.258L52.9537 564.228L53.0001 564.202L53.0528 564.179L53.1116 564.159L53.1766 564.142L53.2478 564.128L53.3252 564.117L53.4088 564.109L53.4986 564.105L53.5946 564.103L53.5946 564.103L53.6936 564.103L53.7927 564.103L53.8918 564.103L53.9908 564.103L54.0899 564.103L54.189 564.103L54.288 564.103L54.3871 564.103L54.4862 564.103L54.5853 564.103L54.6843 564.103L54.7834 564.103L54.8825 564.103L54.9815 564.103L55.0806 564.103L55.1797 564.103L55.2787 564.103L55.3778 564.103L55.4769 564.103L55.576 564.103L55.675 564.103L55.7741 564.103L55.8732 564.103L55.9722 564.103L56.0713 564.103L56.1704 564.103L56.2694 564.103L56.3685 564.103L56.4676 564.103L56.5667 564.103L56.6657 564.103L56.7648 564.103L56.7648 564.103L56.8634 564.103L56.9609 564.103L57.0574 564.103L57.1528 564.103L57.2472 564.103L57.3406 564.103L57.433 564.103L57.5243 564.103L57.6146 564.103L57.7039 564.103L57.7921 564.103L57.8793 564.103L57.9655 564.103L58.0506 564.103L58.1348 564.103L58.2178 564.103L58.2999 564.103L58.3809 564.103L58.4609 564.103L58.5398 564.103L58.6177 564.103L58.6946 564.103L58.7705 564.103L58.8453 564.103L58.9191 564.103L58.9918 564.103L59.0635 564.103L59.1342 564.103L59.2039 564.103L59.2725 564.103L59.3401 564.103L59.4067 564.103L59.4067 564.103L59.4727 564.104L59.5388 564.107L59.6048 564.112L59.6709 564.119L59.7369 564.129L59.8029 564.14L59.869 564.154L59.935 564.169L60.0011 564.187L60.0671 564.206L60.1332 564.228L60.1992 564.252L60.2653 564.277L60.3313 564.305L60.3974 564.335L60.4634 564.367L60.5295 564.401L60.5955 564.437L60.6616 564.476L60.7276 564.516L60.7936 564.558L60.8597 564.602L60.9257 564.649L60.9918 564.697L61.0578 564.748L61.1239 564.801L61.1899 564.855L61.256 564.912L61.322 564.971L61.3881 565.032L61.4541 565.095L61.5202 565.16L61.5202 565.16L61.5862 565.226L61.6523 565.292L61.7183 565.358L61.7843 565.424L61.8504 565.49L61.9164 565.556L61.9825 565.622L62.0485 565.688L62.1146 565.754L62.1806 565.82L62.2467 565.886L62.3127 565.952L62.3788 566.018L62.4448 566.084L62.5109 566.15L62.5769 566.216L62.643 566.283L62.709 566.349L62.7751 566.415L62.8411 566.481L62.9071 566.547L62.9732 566.613L63.0392 566.679L63.1053 566.745L63.1713 566.811L63.2374 566.877L63.3034 566.943L63.3695 567.009L63.4355 567.075L63.5016 567.141L63.5676 567.207L63.6337 567.273L63.6337 567.273L63.7007 567.34L63.7699 567.409L63.8411 567.481L63.9144 567.554L63.9897 567.629L64.0671 567.707L64.1466 567.786L64.2281 567.868L64.3117 567.951L64.3973 568.037L64.485 568.125L64.5748 568.214L64.6667 568.306L64.7606 568.4L64.8566 568.496L64.9546 568.594L65.0547 568.694L65.1569 568.796L65.2611 568.901L65.3674 569.007L65.4757 569.115L65.5862 569.226L65.6987 569.338L65.8132 569.453L65.9298 569.569L66.0485 569.688L66.1692 569.809L66.292 569.932L66.4169 570.056L66.5438 570.183L66.6728 570.312L66.8039 570.443L66.8039 570.443L66.936 570.571L67.0681 570.691L67.2002 570.803L67.3323 570.906L67.4644 571.001L67.5965 571.087L67.7286 571.166L67.8607 571.236L67.9927 571.298L68.1248 571.352L68.2569 571.397L68.389 571.434L68.5211 571.463L68.6532 571.484L68.7853 571.496L68.9174 571.5L69.0495 571.496L69.1816 571.484L69.3137 571.463L69.4458 571.434L69.5779 571.397L69.71 571.352L69.8421 571.298L69.9741 571.236L70.1062 571.166L70.2383 571.087L70.3704 571.001L70.5025 570.906L70.6346 570.803L70.7667 570.691L70.8988 570.571L71.0309 570.443L71.0309 570.443L71.162 570.312L71.291 570.183L71.4179 570.056L71.5428 569.932L71.6656 569.809L71.7863 569.688L71.905 569.569L72.0216 569.453L72.1361 569.338L72.2486 569.226L72.3591 569.115L72.4674 569.007L72.5737 568.901L72.6779 568.796L72.7801 568.694L72.8802 568.594L72.9782 568.496L73.0742 568.4L73.1681 568.306L73.26 568.214L73.3498 568.125L73.4375 568.037L73.5231 567.951L73.6067 567.868L73.6882 567.786L73.7677 567.707L73.8451 567.629L73.9204 567.554L73.9937 567.481L74.0649 567.409L74.1341 567.34L74.2011 567.273L74.2011 567.273L74.2672 567.207L74.3332 567.141L74.3993 567.075L74.4653 567.009L74.5314 566.943L74.5974 566.877L74.6635 566.811L74.7295 566.745L74.7956 566.679L74.8616 566.613L74.9277 566.547L74.9937 566.481L75.0597 566.415L75.1258 566.349L75.1918 566.283L75.2579 566.216L75.3239 566.15L75.39 566.084L75.456 566.018L75.5221 565.952L75.5881 565.886L75.6542 565.82L75.7202 565.754L75.7863 565.688L75.8523 565.622L75.9184 565.556L75.9844 565.49L76.0504 565.424L76.1165 565.358L76.1825 565.292L76.2486 565.226L76.3146 565.16L76.3146 565.16L76.3807 565.095L76.4467 565.032L76.5128 564.971L76.5788 564.912L76.6449 564.855L76.7109 564.801L76.777 564.748L76.843 564.697L76.9091 564.649L76.9751 564.602L77.0411 564.558L77.1072 564.516L77.1732 564.476L77.2393 564.437L77.3053 564.401L77.3714 564.367L77.4374 564.335L77.5035 564.305L77.5695 564.277L77.6356 564.252L77.7016 564.228L77.7677 564.206L77.8337 564.187L77.8998 564.169L77.9658 564.154L78.0318 564.14L78.0979 564.129L78.1639 564.119L78.23 564.112L78.296 564.107L78.3621 564.104L78.4281 564.103L78.4281 564.103L78.4947 564.103L78.5623 564.103L78.6309 564.103L78.7006 564.103L78.7713 564.103L78.843 564.103L78.9157 564.103L78.9895 564.103L79.0643 564.103L79.1402 564.103L79.2171 564.103L79.295 564.103L79.3739 564.103L79.4539 564.103L79.5349 564.103L79.617 564.103L79.7 564.103L79.7842 564.103L79.8693 564.103L79.9555 564.103L80.0427 564.103L80.1309 564.103L80.2202 564.103L80.3105 564.103L80.4018 564.103L80.4942 564.103L80.5875 564.103L80.682 564.103L80.7774 564.103L80.8739 564.103L80.9714 564.103L81.07 564.103L81.07 564.103L81.1691 564.103L81.2681 564.103L81.3672 564.103L81.4663 564.103L81.5654 564.103L81.6644 564.103L81.7635 564.103L81.8626 564.103L81.9616 564.103L82.0607 564.103L82.1598 564.103L82.2588 564.103L82.3579 564.103L82.457 564.103L82.5561 564.103L82.6551 564.103L82.7542 564.103L82.8533 564.103L82.9523 564.103L83.0514 564.103L83.1505 564.103L83.2495 564.103L83.3486 564.103L83.4477 564.103L83.5468 564.103L83.6458 564.103L83.7449 564.103L83.844 564.103L83.943 564.103L84.0421 564.103L84.1412 564.103L84.2402 564.103L84.2402 564.103L84.3362 564.105L84.426 564.109L84.5096 564.117L84.587 564.128L84.6582 564.142L84.7232 564.159L84.782 564.179L84.8347 564.202L84.8811 564.228L84.9214 564.258L84.9554 564.29L84.9833 564.326L85.0049 564.365L85.0204 564.406L85.0297 564.451L85.0328 564.499L85.0297 564.55L85.0204 564.605L85.0049 564.662L84.9833 564.722L84.9554 564.786L84.9214 564.852L84.8811 564.922L84.8347 564.995L84.782 565.07L84.7232 565.149L84.6582 565.231L84.587 565.317L84.5096 565.405L84.426 565.496L84.3362 565.591L84.2402 565.688L84.2402 565.688L84.1396 565.789L84.0359 565.892L83.9291 565.999L83.8192 566.109L83.7062 566.222L83.5901 566.338L83.4709 566.457L83.3486 566.58L83.2232 566.705L83.0947 566.834L82.9632 566.965L82.8285 567.1L82.6907 567.238L82.5499 567.378L82.4059 567.522L82.2588 567.669L82.1087 567.82L81.9554 567.973L81.7991 568.129L81.6397 568.289L81.4771 568.451L81.3115 568.617L81.1428 568.786L80.9709 568.957L80.796 569.132L80.618 569.31L80.4369 569.491L80.2527 569.676L80.0654 569.863L79.875 570.053L79.6815 570.247L79.4849 570.443"/>
<path class="l5" d="M319.367 495.414L321.48 495.414L321.48 497.528L319.367 497.528L319.367 495.414z"/>
<path class="l5" d="M319.367 520.776L321.48 520.776L321.48 522.89L319.367 522.89L319.367 520.776z"/>
<path class="l5" d="M319.367 529.23L321.48 529.23L321.48 531.344L319.367 531.344L319.367 529.23z"/>
<path class="l5" d="M319.895 487.489L320.952 487.489L320.952 488.545L319.895 488.545L319.895 487.489z"/>
<path class="l5" d="M386.999 495.414L389.112 495.414L389.112 497.528L386.999 497.528L386.999 495.414z"/>
<path class="l5" d="M386.999 520.776L389.112 520.776L389.112 522.89L386.999 522.89L386.999 520.776z"/>
<path class="l5" d="M386.999 529.23L389.112 529.23L389.112 531.344L386.999 531.344L386.999 529.23z"/>
<path class="l5" d="M387.527 487.489L388.584 487.489L388.584 488.545L387.527 488.545L387.527 487.489z"/>
<path class="l5" d="M319.367 427.782L321.48 427.782L321.48 429.896L319.367 429.896L319.367 427.782z"/>
<path class="l5" d="M319.367 453.144L321.48 453.144L321.48 455.258L319.367 455.258L319.367 453.144z"/>
<path class="l5" d="M319.895 419.857L320.952 419.857L320.952 420.914L319.895 420.914L319.895 419.857z"/>
<path class="l5" d="M386.999 427.782L389.112 427.782L389.112 429.896L386.999 429.896L386.999 427.782z"/>
<path class="l5" d="M386.999 453.144L389.112 453.144L389.112 455.258L386.999 455.258L386.999 453.144z"/>
<path class="l5" d="M387.527 419.857L388.584 419.857L388.584 420.914L387.527 420.914L387.527 419.857z"/>
<path class="l5" d="M581.969 343.771L583.025 343.771L583.025 344.828L581.969 344.828L581.969 343.771z"/>
<path class="l5" d="M581.969 495.943L583.025 495.943L583.025 496.999L581.969 496.999L581.969 495.943z"/>
<path class="l5" d="M682.888 444.69L685.001 444.69L685.001 446.804L682.888 446.804L682.888 444.69z"/>
<path class="l5" d="M682.888 470.052L685.001 470.052L685.001 472.166L682.888 472.166L682.888 470.052z"/>
<path class="l5" d="M480.521 407.176L481.577 407.176L481.577 408.233L480.521 408.233L480.521 407.176z"/>
<path class="l5" d="M598.348 351.697L600.462 351.697L600.462 353.81L598.348 353.81L598.348 351.697z"/>
<path class="l5" d="M598.348 377.059L600.462 377.059L600.462 379.172L598.348 379.172L598.348 377.059z"/>
<path class="l5" d="M598.877 462.127L599.933 462.127L599.933 463.184L598.877 463.184L598.877 462.127z"/>
<path class="l5" d="M319.895 462.127L320.952 462.127L320.952 463.184L319.895 463.184L319.895 462.127z"/>
<path class="l5" d="M387.527 462.127L388.584 462.127L388.584 463.184L387.527 463.184L387.527 462.127z"/>
<path class="l5" d="M581.44 385.513L583.554 385.513L583.554 387.626L581.44 387.626L581.44 385.513z"/>
<path class="l5" d="M623.71 419.328L625.824 419.328L625.824 421.442L623.71 421.442L623.71 419.328z"/>
<path class="l5" d="M547.624 406.648L549.738 406.648L549.738 408.761L547.624 408.761L547.624 406.648z"/>
<path class="l5" d="M547.624 432.009L549.738 432.009L549.738 434.123L547.624 434.123L547.624 432.009z"/>
<path class="l5" d="M598.348 385.513L600.462 385.513L600.462 387.626L598.348 387.626L598.348 385.513z"/>
<path class="l5" d="M598.348 453.144L600.462 453.144L600.462 455.258L598.348 455.258L598.348 453.144z"/>
<path class="l5" d="M581.44 453.144L583.554 453.144L583.554 455.258L581.44 455.258L581.44 453.144z"/>
<path class="l5" d="M513.808 470.052L515.922 470.052L515.922 472.166L513.808 472.166L513.808 470.052z"/>
<path class="l5" d="M539.17 470.052L541.284 470.052L541.284 472.166L539.17 472.166L539.17 470.052z"/>
<path class="l5" d="M497.429 470.581L498.485 470.581L498.485 471.638L497.429 471.638L497.429 470.581z"/>
<path class="l5" d="M560.834 470.581L561.89 470.581L561.89 471.638L560.834 471.638L560.834 470.581z"/>
<path class="l5" d="M903.22 343.771L904.277 343.771L904.277 344.828L903.22 344.828L903.22 343.771z"/>
<path class="l5" d="M903.22 495.943L904.277 495.943L904.277 496.999L903.22 496.999L903.22 495.943z"/>
<path class="l5" d="M1004.14 444.69L1006.25 444.69L1006.25 446.804L1004.14 446.804L1004.14 444.69z"/>
<path class="l5" d="M1004.14 470.052L1006.25 470.052L1006.25 472.166L1004.14 472.166L1004.14 470.052z"/>
<path class="l5" d="M801.772 407.176L802.829 407.176L802.829 408.233L801.772 408.233L801.772 407.176z"/>
<path class="l5" d="M919.6 351.697L921.713 351.697L921.713 353.81L919.6 353.81L919.6 351.697z"/>
<path class="l5" d="M919.6 377.059L921.713 377.059L921.713 379.172L919.6 379.172L919.6 377.059z"/>
<path class="l5" d="M920.128 462.127L921.185 462.127L921.185 463.184L920.128 463.184L920.128 462.127z"/>
<path class="l5" d="M902.692 385.513L904.805 385.513L904.805 387.626L902.692 387.626L902.692 385.513z"/>
<path class="l5" d="M944.961 419.328L947.075 419.328L947.075 421.442L944.961 421.442L944.961 419.328z"/>
<path class="l5" d="M868.876 406.648L870.989 406.648L870.989 408.761L868.876 408.761L868.876 406.648z"/>
<path class="l5" d="M868.876 432.009L870.989 432.009L870.989 434.123L868.876 434.123L868.876 432.009z"/>
<path class="l5" d="M919.6 385.513L921.713 385.513L921.713 387.626L919.6 387.626L919.6 385.513z"/>
<path class="l5" d="M919.6 453.144L921.713 453.144L921.713 455.258L919.6 455.258L919.6 453.144z"/>
<path class="l5" d="M902.692 453.144L904.805 453.144L904.805 455.258L902.692 455.258L902.692 453.144z"/>
<path class="l5" d="M885.784 470.052L887.897 470.052L887.897 472.166L885.784 472.166L885.784 470.052z"/>
<path class="l5" d="M860.422 470.052L862.535 470.052L862.535 472.166L860.422 472.166L860.422 470.052z"/>
<path class="l5" d="M843.514 470.052L845.627 470.052L845.627 472.166L843.514 472.166L843.514 470.052z"/>
<path class="l5" d="M818.152 470.052L820.265 470.052L820.265 472.166L818.152 472.166L818.152 470.052z"/>
<path class="l5" d="M851.968 512.322L854.081 512.322L854.081 514.436L851.968 514.436L851.968 512.322z"/>
<path class="l5" d="M851.968 486.96L854.081 486.96L854.081 489.074L851.968 489.074L851.968 486.96z"/>
<path class="l5" d="M581.969 107.059L583.025 107.059L583.025 108.116L581.969 108.116L581.969 107.059z"/>
<path class="l5" d="M581.969 259.231L583.025 259.231L583.025 260.288L581.969 260.288L581.969 259.231z"/>
<path class="l5" d="M682.888 207.979L685.001 207.979L685.001 210.092L682.888 210.092L682.888 207.979z"/>
<path class="l5" d="M682.888 233.341L685.001 233.341L685.001 235.454L682.888 235.454L682.888 233.341z"/>
<path class="l5" d="M480.521 170.464L481.577 170.464L481.577 171.521L480.521 171.521L480.521 170.464z"/>
<path class="l5" d="M598.348 114.985L600.462 114.985L600.462 117.099L598.348 117.099L598.348 114.985z"/>
<path class="l5" d="M598.348 140.347L600.462 140.347L600.462 142.461L598.348 142.461L598.348 140.347z"/>
<path class="l5" d="M598.877 225.415L599.933 225.415L599.933 226.472L598.877 226.472L598.877 225.415z"/>
<path class="l5" d="M581.44 148.801L583.554 148.801L583.554 150.915L581.44 150.915L581.44 148.801z"/>
<path class="l5" d="M623.71 182.617L625.824 182.617L625.824 184.73L623.71 184.73L623.71 182.617z"/>
<path class="l5" d="M547.624 169.936L549.738 169.936L549.738 172.049L547.624 172.049L547.624 169.936z"/>
<path class="l5" d="M547.624 195.298L549.738 195.298L549.738 197.411L547.624 197.411L547.624 195.298z"/>
<path class="l5" d="M598.348 148.801L600.462 148.801L600.462 150.915L598.348 150.915L598.348 148.801z"/>
<path class="l5" d="M598.348 216.433L600.462 216.433L600.462 218.546L598.348 218.546L598.348 216.433z"/>
<path class="l5" d="M581.44 216.433L583.554 216.433L583.554 218.546L581.44 218.546L581.44 216.433z"/>
<path class="l5" d="M903.22 107.059L904.277 107.059L904.277 108.116L903.22 108.116L903.22 107.059z"/>
<path class="l5" d="M903.22 259.231L904.277 259.231L904.277 260.288L903.22 260.288L903.22 259.231z"/>
<path class="l5" d="M1004.14 207.979L1006.25 207.979L1006.25 210.092L1004.14 210.092L1004.14 207.979z"/>
<path class="l5" d="M1004.14 233.341L1006.25 233.341L1006.25 235.454L1004.14 235.454L1004.14 233.341z"/>
<path class="l5" d="M801.772 170.464L802.829 170.464L802.829 171.521L801.772 171.521L801.772 170.464z"/>
<path class="l5" d="M919.6 114.985L921.713 114.985L921.713 117.099L919.6 117.099L919.6 114.985z"/>
<path class="l5" d="M919.6 140.347L921.713 140.347L921.713 142.461L919.6 142.461L919.6 140.347z"/>
<path class="l5" d="M920.128 225.415L921.185 225.415L921.185 226.472L920.128 226.472L920.128 225.415z"/>
<path class="l5" d="M902.692 148.801L904.805 148.801L904.805 150.915L902.692 150.915L902.692 148.801z"/>
<path class="l5" d="M944.961 182.617L947.075 182.617L947.075 184.73L944.961 184.73L944.961 182.617z"/>
<path class="l5" d="M868.876 169.936L870.989 169.936L870.989 172.049L868.876 172.049L868.876 169.936z"/>
<path class="l5" d="M868.876 195.298L870.989 195.298L870.989 197.411L868.876 197.411L868.876 195.298z"/>
<path class="l5" d="M919.6 148.801L921.713 148.801L921.713 150.915L919.6 150.915L919.6 148.801z"/>
<path class="l5" d="M919.6 216.433L921.713 216.433L921.713 218.546L919.6 218.546L919.6 216.433z"/>
<path class="l5" d="M902.692 216.433L904.805 216.433L904.805 218.546L902.692 218.546L902.692 216.433z"/>
<path class="l5" d="M479.992 284.065L482.106 284.065L482.106 286.178L479.992 286.178L479.992 284.065z"/>
<path class="l5" d="M479.992 258.703L482.106 258.703L482.106 260.816L479.992 260.816L479.992 258.703z"/>
<path class="l5" d="M496.9 233.341L499.014 233.341L499.014 235.454L496.9 235.454L496.9 233.341z"/>
<path class="l5" d="M522.262 233.341L524.376 233.341L524.376 235.454L522.262 235.454L522.262 233.341z"/>
<path class="l5" d="M497.429 250.777L498.485 250.777L498.485 251.834L497.429 251.834L497.429 250.777z"/>
<path class="l5" d="M564.532 233.341L566.646 233.341L566.646 235.454L564.532 235.454L564.532 233.341z"/>
<path class="l5" d="M539.17 233.341L541.284 233.341L541.284 235.454L539.17 235.454L539.17 233.341z"/>
<path class="l5" d="M801.244 284.065L803.357 284.065L803.357 286.178L801.244 286.178L801.244 284.065z"/>
<path class="l5" d="M801.244 258.703L803.357 258.703L803.357 260.816L801.244 260.816L801.244 258.703z"/>
<path class="l5" d="M818.152 233.341L820.265 233.341L820.265 235.454L818.152 235.454L818.152 233.341z"/>
<path class="l5" d="M843.514 233.341L845.627 233.341L845.627 235.454L843.514 235.454L843.514 233.341z"/>
<path class="l5" d="M818.68 250.777L819.737 250.777L819.737 251.834L818.68 251.834L818.68 250.777z"/>
<path class="l5" d="M885.784 233.341L887.897 233.341L887.897 235.454L885.784 235.454L885.784 233.341z"/>
<path class="l5" d="M860.422 233.341L862.535 233.341L862.535 235.454L860.422 235.454L860.422 233.341z"/>
<path class="l6" d="M178.819 576.784L514.865 576.784"/>
<path class="l6" d="M16.08 576.784L43.5554 576.784"/>
<text fill="#222222"  xml:space="preserve" font-size="6.59411" transform="translate(26.6475, 519.367)" >MODEL</text>
<text fill="#222222"  xml:space="preserve" font-size="6.59411" style="font-family:Monospace;" transform="translate(30.8745, 529.934)" >.lib cornerMOSlv.lib mos_tt</text>
<text fill="#222222"  xml:space="preserve" font-size="6.59411" transform="translate(26.6475, 88.2133)" >NGSPICE</text>
<text fill="#222222"  xml:space="preserve" font-size="6.59411" style="font-family:Monospace;" transform="translate(30.8745, 106.344)" >.param temp=27</text>
<text fill="#222222"  xml:space="preserve" font-size="6.59411" style="font-family:Monospace;" transform="translate(30.8745, 113.908)" >.options savecurrents reltol=1e-3 abstol=1e-12 gmin=1e-15</text>
<text fill="#222222"  xml:space="preserve" font-size="6.59411" style="font-family:Monospace;" transform="translate(30.8745, 121.471)" >.control</text>
<text fill="#222222"  xml:space="preserve" font-size="6.59411" style="font-family:Monospace;" transform="translate(30.8745, 129.035)" >save all</text>
<text fill="#222222"  xml:space="preserve" font-size="6.59411" style="font-family:Monospace;" transform="translate(30.8745, 144.161)" >* Operating Point Analysis</text>
<text fill="#222222"  xml:space="preserve" font-size="6.59411" style="font-family:Monospace;" transform="translate(30.8745, 151.725)" >op</text>
<text fill="#222222"  xml:space="preserve" font-size="6.59411" style="font-family:Monospace;" transform="translate(30.8745, 159.288)" >remzerovec</text>
<text fill="#222222"  xml:space="preserve" font-size="6.59411" style="font-family:Monospace;" transform="translate(30.8745, 166.852)" >write ota-5t_tb-loopgain.raw</text>
<text fill="#222222"  xml:space="preserve" font-size="6.59411" style="font-family:Monospace;" transform="translate(30.8745, 174.415)" >set appendwrite</text>
<text fill="#222222"  xml:space="preserve" font-size="6.59411" style="font-family:Monospace;" transform="translate(30.8745, 189.542)" >* AC Analysis</text>
<text fill="#222222"  xml:space="preserve" font-size="6.59411" style="font-family:Monospace;" transform="translate(30.8745, 197.106)" >ac dec 101 1 100G</text>
<text fill="#222222"  xml:space="preserve" font-size="6.59411" style="font-family:Monospace;" transform="translate(30.8745, 204.669)" >remzerovec</text>
<text fill="#222222"  xml:space="preserve" font-size="6.59411" style="font-family:Monospace;" transform="translate(30.8745, 212.232)" >write ota-5t_tb-loopgain.raw</text>
<text fill="#222222"  xml:space="preserve" font-size="6.59411" style="font-family:Monospace;" transform="translate(30.8745, 219.796)" >set appendwrite</text>
<text fill="#222222"  xml:space="preserve" font-size="6.59411" style="font-family:Monospace;" transform="translate(30.8745, 234.923)" >* Middlebrook's Method</text>
<text fill="#222222"  xml:space="preserve" font-size="6.59411" style="font-family:Monospace;" transform="translate(30.8745, 242.486)" >let tv=-v(vr1)/v(vf1)</text>
<text fill="#222222"  xml:space="preserve" font-size="6.59411" style="font-family:Monospace;" transform="translate(30.8745, 250.05)" >let ti=-i(vir1)/i(vif1)</text>
<text fill="#222222"  xml:space="preserve" font-size="6.59411" style="font-family:Monospace;" transform="translate(30.8745, 257.613)" >let tmb=(tv*ti - 1)/(tv + ti + 2)</text>
<text fill="#222222"  xml:space="preserve" font-size="6.59411" style="font-family:Monospace;" transform="translate(30.8745, 272.74)" >plot db(tmb) ylabel 'Magnitude - Middlebrook'</text>
<text fill="#222222"  xml:space="preserve" font-size="6.59411" style="font-family:Monospace;" transform="translate(30.8745, 280.303)" >plot 180/pi*cphase(tmb) ylabel 'Phase - Middlebrook'</text>
<text fill="#222222"  xml:space="preserve" font-size="6.59411" style="font-family:Monospace;" transform="translate(30.8745, 295.43)" >* Tian's Method</text>
<text fill="#222222"  xml:space="preserve" font-size="6.59411" style="font-family:Monospace;" transform="translate(30.8745, 302.994)" >* vtest=0, itest=1:</text>
<text fill="#222222"  xml:space="preserve" font-size="6.59411" style="font-family:Monospace;" transform="translate(30.8745, 310.557)" >let A=i(Vimeas2)</text>
<text fill="#222222"  xml:space="preserve" font-size="6.59411" style="font-family:Monospace;" transform="translate(30.8745, 318.121)" >let C=v(vmeas2)</text>
<text fill="#222222"  xml:space="preserve" font-size="6.59411" style="font-family:Monospace;" transform="translate(30.8745, 333.247)" >* vtest=1, itest=0:</text>
<text fill="#222222"  xml:space="preserve" font-size="6.59411" style="font-family:Monospace;" transform="translate(30.8745, 340.811)" >let B=i(Vimeas1)</text>
<text fill="#222222"  xml:space="preserve" font-size="6.59411" style="font-family:Monospace;" transform="translate(30.8745, 348.374)" >let D=v(vmeas1)</text>
<text fill="#222222"  xml:space="preserve" font-size="6.59411" style="font-family:Monospace;" transform="translate(30.8745, 355.938)" >let ttian=(A*D-B*C-A)/(2*(B*C-A*D)+A-D+1)</text>
<text fill="#222222"  xml:space="preserve" font-size="6.59411" style="font-family:Monospace;" transform="translate(30.8745, 371.065)" >plot db(ttian) ylabel 'Magnitude - Tian'</text>
<text fill="#222222"  xml:space="preserve" font-size="6.59411" style="font-family:Monospace;" transform="translate(30.8745, 378.628)" >plot 180/pi*cphase(ttian) ylabel 'Phase - Tian'</text>
<text fill="#222222"  xml:space="preserve" font-size="6.59411" style="font-family:Monospace;" transform="translate(30.8745, 393.755)" >* Middlebrook vs. Tian</text>
<text fill="#222222"  xml:space="preserve" font-size="6.59411" style="font-family:Monospace;" transform="translate(30.8745, 401.318)" >plot db(tmb) db(ttian) ylabel 'Magnitude'</text>
<text fill="#222222"  xml:space="preserve" font-size="6.59411" style="font-family:Monospace;" transform="translate(30.8745, 408.882)" >plot 180/pi*cphase(tmb) 180/pi*cphase(ttian) ylabel 'Phase'</text>
<text fill="#222222"  xml:space="preserve" font-size="6.59411" style="font-family:Monospace;" transform="translate(30.8745, 424.009)" >write ota-5t_tb-loopgain.raw</text>
<text fill="#222222"  xml:space="preserve" font-size="6.59411" style="font-family:Monospace;" transform="translate(30.8745, 439.136)" >*quit</text>
<text fill="#222222"  xml:space="preserve" font-size="6.59411" style="font-family:Monospace;" transform="translate(30.8745, 446.699)" >.endc</text>
<text fill="#222222"  xml:space="preserve" font-size="8.79214" transform="translate(183.046, 586.881)" >         ota-5t_tb-loopgain.sch</text>
<text fill="#222222"  xml:space="preserve" font-size="8.79214" transform="translate(183.046, 574.2)" >(c) 2024-2025 H. Pretl, S. Dorrer, Apache-2.0 license</text>
<text fill="#222222"  xml:space="preserve" font-size="8.79214" transform="translate(412.865, 574.2)" >2025-10-02  09:36:58</text>
<text fill="#222222"  xml:space="preserve" font-size="21.9804" transform="translate(85.8254, 586.175)" >SCHEM</text>
<text fill="#222222"  xml:space="preserve" font-size="8.79214" transform="translate(337.331, 389.553)" >Annotate OP</text>
<text fill="#222222"  xml:space="preserve" font-size="8.79214" transform="translate(337.331, 364.191)" >Simulate</text>
<text fill="#222222"  xml:space="preserve" font-size="4.39607" transform="translate(328.877, 505.218)" >Vdd</text>
<text fill="#222222"  xml:space="preserve" font-size="4.39607" transform="translate(328.877, 515.786)" >1.5</text>
<text fill="#0099cc"  xml:space="preserve" font-size="4.39607" transform="translate(323.594, 536.392)" >GND</text>
<text fill="#0099cc"  xml:space="preserve" font-size="7.25352" transform="translate(299.253, 491.169)" >v_dd</text>
<text fill="#222222"  xml:space="preserve" font-size="4.39607" transform="translate(396.509, 505.218)" >Vss</text>
<text fill="#222222"  xml:space="preserve" font-size="4.39607" transform="translate(396.509, 515.786)" >0</text>
<text fill="#0099cc"  xml:space="preserve" font-size="4.39607" transform="translate(391.226, 536.392)" >GND</text>
<text fill="#0099cc"  xml:space="preserve" font-size="7.25352" transform="translate(368.885, 491.169)" >v_ss</text>
<text fill="#222222"  xml:space="preserve" font-size="4.39607" transform="translate(328.877, 437.586)" >Vin</text>
<text fill="#222222"  xml:space="preserve" font-size="4.39607" transform="translate(328.877, 448.154)" >dc 0.75</text>
<text fill="#0099cc"  xml:space="preserve" font-size="5.9347" transform="translate(306.367, 418.438)" >v_in</text>
<text fill="#222222"  xml:space="preserve" font-size="4.39607" transform="translate(396.509, 437.586)" >Venable</text>
<text fill="#222222"  xml:space="preserve" font-size="4.39607" transform="translate(396.509, 448.154)" >1.5</text>
<text fill="#0099cc"  xml:space="preserve" font-size="5.9347" transform="translate(389.112, 418.438)" >v_ena</text>
<text fill="#0099cc"  xml:space="preserve" font-size="7.25352" transform="translate(561.327, 347.451)" >v_dd</text>
<text fill="#0099cc"  xml:space="preserve" font-size="7.25352" transform="translate(563.327, 499.623)" >v_ss</text>
<text fill="#666600"  xml:space="preserve" font-size="4.39607" transform="translate(678.831, 451.324)" >1</text>
<text fill="#666600"  xml:space="preserve" font-size="4.39607" transform="translate(678.831, 469.289)" >2</text>
<text fill="#222222"  xml:space="preserve" font-size="4.39607" transform="translate(690.285, 454.494)" >C2</text>
<text fill="#222222"  xml:space="preserve" font-size="4.39607" transform="translate(690.285, 459.778)" >50f</text>
<text fill="#222222"  xml:space="preserve" font-size="4.39607" transform="translate(690.285, 465.062)" >m=1</text>
<text fill="#0099cc"  xml:space="preserve" font-size="5.9347" transform="translate(466.992, 405.757)" >v_in</text>
<text fill="#222222"  xml:space="preserve" font-size="4.39607" transform="translate(607.859, 365.199)" >I1</text>
<text fill="#222222"  xml:space="preserve" font-size="4.39607" transform="translate(607.859, 370.241)" >20u</text>
<text fill="#0099cc"  xml:space="preserve" font-size="5.9347" transform="translate(600.462, 460.708)" >v_ena</text>
<text fill="#0099cc"  xml:space="preserve" font-size="7.25352" transform="translate(301.253, 465.807)" >v_ss</text>
<text fill="#0099cc"  xml:space="preserve" font-size="7.25352" transform="translate(368.885, 465.807)" >v_ss</text>
<text fill="#222222"  xml:space="preserve" font-size="4.39607" transform="translate(563.475, 421.841)" >ota-5t</text>
<text fill="#222222"  xml:space="preserve" font-size="4.39607" transform="translate(626.88, 385.489)" >x1</text>
<text fill="#222222"  xml:space="preserve" font-size="4.39607" transform="translate(583.137, 397.137) rotate(270)" >vdd</text>
<text fill="#222222"  xml:space="preserve" font-size="4.39607" transform="translate(594.745, 422.686)" >vout</text>
<text fill="#222222"  xml:space="preserve" font-size="4.39607" transform="translate(559.248, 410.005)" >vinp</text>
<text fill="#222222"  xml:space="preserve" font-size="4.39607" transform="translate(559.248, 435.367)" >vinn</text>
<text fill="#222222"  xml:space="preserve" font-size="4.39607" transform="translate(600.045, 409.683) rotate(270)" >ibias_20u</text>
<text fill="#222222"  xml:space="preserve" font-size="4.39607" transform="translate(600.045, 453.407) rotate(270)" >d_ena</text>
<text fill="#222222"  xml:space="preserve" font-size="4.39607" transform="translate(583.137, 452.088) rotate(270)" >vss</text>
<text fill="#222222"  xml:space="preserve" font-size="4.39607" transform="translate(523.612, 462.655) rotate(270)" >Vtest1</text>
<text fill="#222222"  xml:space="preserve" font-size="4.39607" transform="translate(534.18, 462.655) rotate(270)" >dc 0 ac 1</text>
<text fill="#0099cc"  xml:space="preserve" font-size="5.9347" transform="translate(486.9, 469.162)" >vf1</text>
<text fill="#0099cc"  xml:space="preserve" font-size="5.9347" transform="translate(550.305, 469.162)" >vr1</text>
<text fill="#0099cc"  xml:space="preserve" font-size="7.25352" transform="translate(882.578, 347.451)" >v_dd</text>
<text fill="#0099cc"  xml:space="preserve" font-size="7.25352" transform="translate(884.578, 499.623)" >v_ss</text>
<text fill="#666600"  xml:space="preserve" font-size="4.39607" transform="translate(1000.08, 451.324)" >1</text>
<text fill="#666600"  xml:space="preserve" font-size="4.39607" transform="translate(1000.08, 469.289)" >2</text>
<text fill="#222222"  xml:space="preserve" font-size="4.39607" transform="translate(1011.54, 454.494)" >C1</text>
<text fill="#222222"  xml:space="preserve" font-size="4.39607" transform="translate(1011.54, 459.778)" >50f</text>
<text fill="#222222"  xml:space="preserve" font-size="4.39607" transform="translate(1011.54, 465.062)" >m=1</text>
<text fill="#0099cc"  xml:space="preserve" font-size="5.9347" transform="translate(788.244, 405.757)" >v_in</text>
<text fill="#222222"  xml:space="preserve" font-size="4.39607" transform="translate(929.11, 365.199)" >I2</text>
<text fill="#222222"  xml:space="preserve" font-size="4.39607" transform="translate(929.11, 370.241)" >20u</text>
<text fill="#0099cc"  xml:space="preserve" font-size="5.9347" transform="translate(921.713, 460.708)" >v_ena</text>
<text fill="#222222"  xml:space="preserve" font-size="4.39607" transform="translate(884.727, 421.841)" >ota-5t</text>
<text fill="#222222"  xml:space="preserve" font-size="4.39607" transform="translate(948.132, 385.489)" >x2</text>
<text fill="#222222"  xml:space="preserve" font-size="4.39607" transform="translate(904.388, 397.137) rotate(270)" >vdd</text>
<text fill="#222222"  xml:space="preserve" font-size="4.39607" transform="translate(915.997, 422.686)" >vout</text>
<text fill="#222222"  xml:space="preserve" font-size="4.39607" transform="translate(880.5, 410.005)" >vinp</text>
<text fill="#222222"  xml:space="preserve" font-size="4.39607" transform="translate(880.5, 435.367)" >vinn</text>
<text fill="#222222"  xml:space="preserve" font-size="4.39607" transform="translate(921.296, 409.683) rotate(270)" >ibias_20u</text>
<text fill="#222222"  xml:space="preserve" font-size="4.39607" transform="translate(921.296, 453.407) rotate(270)" >d_ena</text>
<text fill="#222222"  xml:space="preserve" font-size="4.39607" transform="translate(904.388, 452.088) rotate(270)" >vss</text>
<text fill="#222222"  xml:space="preserve" font-size="4.39607" transform="translate(881.034, 486.45) rotate(270)" >Vir1</text>
<text fill="#222222"  xml:space="preserve" font-size="4.39607" transform="translate(838.764, 486.45) rotate(270)" >Vif1</text>
<text fill="#222222"  xml:space="preserve" font-size="4.39607" transform="translate(825.57, 498.832)" >Itest1</text>
<text fill="#222222"  xml:space="preserve" font-size="4.39607" transform="translate(825.57, 503.874)" >dc 0 ac 1</text>
<text fill="#0099cc"  xml:space="preserve" font-size="7.25352" transform="translate(561.327, 110.74)" >v_dd</text>
<text fill="#0099cc"  xml:space="preserve" font-size="7.25352" transform="translate(563.327, 262.911)" >v_ss</text>
<text fill="#666600"  xml:space="preserve" font-size="4.39607" transform="translate(678.831, 214.612)" >1</text>
<text fill="#666600"  xml:space="preserve" font-size="4.39607" transform="translate(678.831, 232.577)" >2</text>
<text fill="#222222"  xml:space="preserve" font-size="4.39607" transform="translate(690.285, 217.783)" >C3</text>
<text fill="#222222"  xml:space="preserve" font-size="4.39607" transform="translate(690.285, 223.066)" >50f</text>
<text fill="#222222"  xml:space="preserve" font-size="4.39607" transform="translate(690.285, 228.35)" >m=1</text>
<text fill="#0099cc"  xml:space="preserve" font-size="5.9347" transform="translate(466.992, 169.046)" >v_in</text>
<text fill="#222222"  xml:space="preserve" font-size="4.39607" transform="translate(607.859, 128.487)" >I3</text>
<text fill="#222222"  xml:space="preserve" font-size="4.39607" transform="translate(607.859, 133.53)" >20u</text>
<text fill="#0099cc"  xml:space="preserve" font-size="5.9347" transform="translate(600.462, 223.997)" >v_ena</text>
<text fill="#222222"  xml:space="preserve" font-size="4.39607" transform="translate(563.475, 185.129)" >ota-5t</text>
<text fill="#222222"  xml:space="preserve" font-size="4.39607" transform="translate(626.88, 148.777)" >x3</text>
<text fill="#222222"  xml:space="preserve" font-size="4.39607" transform="translate(583.137, 160.425) rotate(270)" >vdd</text>
<text fill="#222222"  xml:space="preserve" font-size="4.39607" transform="translate(594.745, 185.975)" >vout</text>
<text fill="#222222"  xml:space="preserve" font-size="4.39607" transform="translate(559.248, 173.294)" >vinp</text>
<text fill="#222222"  xml:space="preserve" font-size="4.39607" transform="translate(559.248, 198.656)" >vinn</text>
<text fill="#222222"  xml:space="preserve" font-size="4.39607" transform="translate(600.045, 172.971) rotate(270)" >ibias_20u</text>
<text fill="#222222"  xml:space="preserve" font-size="4.39607" transform="translate(600.045, 216.695) rotate(270)" >d_ena</text>
<text fill="#222222"  xml:space="preserve" font-size="4.39607" transform="translate(583.137, 215.376) rotate(270)" >vss</text>
<text fill="#0099cc"  xml:space="preserve" font-size="7.25352" transform="translate(882.578, 110.74)" >v_dd</text>
<text fill="#0099cc"  xml:space="preserve" font-size="7.25352" transform="translate(884.578, 262.911)" >v_ss</text>
<text fill="#666600"  xml:space="preserve" font-size="4.39607" transform="translate(1000.08, 214.612)" >1</text>
<text fill="#666600"  xml:space="preserve" font-size="4.39607" transform="translate(1000.08, 232.577)" >2</text>
<text fill="#222222"  xml:space="preserve" font-size="4.39607" transform="translate(1011.54, 217.783)" >C4</text>
<text fill="#222222"  xml:space="preserve" font-size="4.39607" transform="translate(1011.54, 223.066)" >50f</text>
<text fill="#222222"  xml:space="preserve" font-size="4.39607" transform="translate(1011.54, 228.35)" >m=1</text>
<text fill="#0099cc"  xml:space="preserve" font-size="5.9347" transform="translate(788.244, 169.046)" >v_in</text>
<text fill="#222222"  xml:space="preserve" font-size="4.39607" transform="translate(929.11, 128.487)" >I4</text>
<text fill="#222222"  xml:space="preserve" font-size="4.39607" transform="translate(929.11, 133.53)" >20u</text>
<text fill="#0099cc"  xml:space="preserve" font-size="5.9347" transform="translate(921.713, 223.997)" >v_ena</text>
<text fill="#222222"  xml:space="preserve" font-size="4.39607" transform="translate(884.727, 185.129)" >ota-5t</text>
<text fill="#222222"  xml:space="preserve" font-size="4.39607" transform="translate(948.132, 148.777)" >x4</text>
<text fill="#222222"  xml:space="preserve" font-size="4.39607" transform="translate(904.388, 160.425) rotate(270)" >vdd</text>
<text fill="#222222"  xml:space="preserve" font-size="4.39607" transform="translate(915.997, 185.975)" >vout</text>
<text fill="#222222"  xml:space="preserve" font-size="4.39607" transform="translate(880.5, 173.294)" >vinp</text>
<text fill="#222222"  xml:space="preserve" font-size="4.39607" transform="translate(880.5, 198.656)" >vinn</text>
<text fill="#222222"  xml:space="preserve" font-size="4.39607" transform="translate(921.296, 172.971) rotate(270)" >ibias_20u</text>
<text fill="#222222"  xml:space="preserve" font-size="4.39607" transform="translate(921.296, 216.695) rotate(270)" >d_ena</text>
<text fill="#222222"  xml:space="preserve" font-size="4.39607" transform="translate(904.388, 215.376) rotate(270)" >vss</text>
<text fill="#222222"  xml:space="preserve" font-size="4.39607" transform="translate(489.503, 270.575)" >Itest3</text>
<text fill="#222222"  xml:space="preserve" font-size="4.39607" transform="translate(489.503, 275.617)" >dc 0 ac 0</text>
<text fill="#222222"  xml:space="preserve" font-size="4.39607" transform="translate(506.704, 225.944) rotate(270)" >Vtest2</text>
<text fill="#222222"  xml:space="preserve" font-size="4.39607" transform="translate(517.272, 225.944) rotate(270)" >dc 0 ac 1</text>
<text fill="#0099cc"  xml:space="preserve" font-size="5.9347" transform="translate(499.014, 257.223)" >vmeas1</text>
<text fill="#222222"  xml:space="preserve" font-size="4.39607" transform="translate(559.783, 259.738) rotate(270)" >Vimeas1</text>
<text fill="#222222"  xml:space="preserve" font-size="4.39607" transform="translate(810.754, 270.575)" >Itest2</text>
<text fill="#222222"  xml:space="preserve" font-size="4.39607" transform="translate(810.754, 275.617)" >dc 0 ac 1</text>
<text fill="#222222"  xml:space="preserve" font-size="4.39607" transform="translate(827.955, 225.944) rotate(270)" >Vtest3</text>
<text fill="#222222"  xml:space="preserve" font-size="4.39607" transform="translate(838.523, 225.944) rotate(270)" >dc 0 ac 0</text>
<text fill="#0099cc"  xml:space="preserve" font-size="5.9347" transform="translate(820.265, 257.223)" >vmeas2</text>
<text fill="#222222"  xml:space="preserve" font-size="4.39607" transform="translate(881.034, 259.738) rotate(270)" >Vimeas2</text>
<path class="l1" d="M320.423 521.833L320.423 530.287"/>
<path class="l1" d="M388.055 521.833L388.055 530.287"/>
<path class="l1" d="M388.055 454.201L388.055 462.655"/>
<path class="l1" d="M650.129 420.385L683.945 420.385"/>
<path class="l1" d="M599.405 344.299L599.405 352.753"/>
<path class="l1" d="M582.497 344.299L599.405 344.299"/>
<path class="l1" d="M582.497 344.299L582.497 386.569"/>
<path class="l1" d="M599.405 378.115L599.405 386.569"/>
<path class="l1" d="M481.049 433.066L548.681 433.066"/>
<path class="l1" d="M481.049 433.066L481.049 471.109"/>
<path class="l1" d="M599.405 454.201L599.405 462.655"/>
<path class="l1" d="M320.423 488.017L320.423 496.471"/>
<path class="l1" d="M388.055 488.017L388.055 496.471"/>
<path class="l1" d="M320.423 454.201L320.423 462.655"/>
<path class="l1" d="M320.423 420.385L320.423 428.839"/>
<path class="l1" d="M388.055 420.385L388.055 428.839"/>
<path class="l1" d="M582.497 454.201L582.497 496.471"/>
<path class="l1" d="M683.945 420.385L683.945 445.747"/>
<path class="l1" d="M683.945 471.109L683.945 496.471"/>
<path class="l1" d="M582.497 496.471L683.945 496.471"/>
<path class="l1" d="M650.129 420.385L650.129 471.109"/>
<path class="l1" d="M624.767 420.385L650.129 420.385"/>
<path class="l1" d="M481.049 407.704L548.681 407.704"/>
<path class="l1" d="M540.227 471.109L650.129 471.109"/>
<path class="l1" d="M481.049 471.109L514.865 471.109"/>
<path class="l1" d="M971.38 420.385L1005.2 420.385"/>
<path class="l1" d="M920.656 344.299L920.656 352.753"/>
<path class="l1" d="M903.748 344.299L920.656 344.299"/>
<path class="l1" d="M903.748 344.299L903.748 386.569"/>
<path class="l1" d="M920.656 378.115L920.656 386.569"/>
<path class="l1" d="M802.3 433.066L869.932 433.066"/>
<path class="l1" d="M802.3 433.066L802.3 471.109"/>
<path class="l1" d="M920.656 454.201L920.656 462.655"/>
<path class="l1" d="M903.748 454.201L903.748 496.471"/>
<path class="l1" d="M1005.2 420.385L1005.2 445.747"/>
<path class="l1" d="M1005.2 471.109L1005.2 496.471"/>
<path class="l1" d="M903.748 496.471L1005.2 496.471"/>
<path class="l1" d="M971.38 420.385L971.38 471.109"/>
<path class="l1" d="M946.018 420.385L971.38 420.385"/>
<path class="l1" d="M802.3 407.704L869.932 407.704"/>
<path class="l1" d="M853.024 471.109L861.478 471.109"/>
<path class="l1" d="M903.748 496.471L903.748 521.833"/>
<path class="l1" d="M853.024 471.109L853.024 488.017"/>
<path class="l1" d="M844.57 471.109L853.024 471.109"/>
<path class="l1" d="M886.84 471.109L971.38 471.109"/>
<path class="l1" d="M802.3 471.109L819.208 471.109"/>
<path class="l1" d="M853.024 513.379L853.024 521.833"/>
<path class="l1" d="M853.024 521.833L903.748 521.833"/>
<path class="l1" d="M650.129 183.674L683.945 183.674"/>
<path class="l1" d="M599.405 107.588L599.405 116.042"/>
<path class="l1" d="M582.497 107.588L599.405 107.588"/>
<path class="l1" d="M582.497 107.588L582.497 149.858"/>
<path class="l1" d="M599.405 141.404L599.405 149.858"/>
<path class="l1" d="M481.049 196.355L548.681 196.355"/>
<path class="l1" d="M599.405 217.49L599.405 225.944"/>
<path class="l1" d="M582.497 217.49L582.497 259.76"/>
<path class="l1" d="M683.945 183.674L683.945 209.036"/>
<path class="l1" d="M683.945 234.398L683.945 259.76"/>
<path class="l1" d="M582.497 259.76L683.945 259.76"/>
<path class="l1" d="M650.129 183.674L650.129 234.398"/>
<path class="l1" d="M624.767 183.674L650.129 183.674"/>
<path class="l1" d="M481.049 170.993L548.681 170.993"/>
<path class="l1" d="M971.38 183.674L1005.2 183.674"/>
<path class="l1" d="M920.656 107.588L920.656 116.042"/>
<path class="l1" d="M903.748 107.588L920.656 107.588"/>
<path class="l1" d="M903.748 107.588L903.748 149.858"/>
<path class="l1" d="M920.656 141.404L920.656 149.858"/>
<path class="l1" d="M802.3 196.355L869.932 196.355"/>
<path class="l1" d="M802.3 196.355L802.3 234.398"/>
<path class="l1" d="M920.656 217.49L920.656 225.944"/>
<path class="l1" d="M903.748 217.49L903.748 259.76"/>
<path class="l1" d="M1005.2 183.674L1005.2 209.036"/>
<path class="l1" d="M1005.2 234.398L1005.2 259.76"/>
<path class="l1" d="M903.748 259.76L1005.2 259.76"/>
<path class="l1" d="M971.38 183.674L971.38 234.398"/>
<path class="l1" d="M946.018 183.674L971.38 183.674"/>
<path class="l1" d="M802.3 170.993L869.932 170.993"/>
<path class="l1" d="M903.748 259.76L903.748 293.575"/>
<path class="l1" d="M886.84 234.398L971.38 234.398"/>
<path class="l1" d="M481.049 280.895L481.049 293.575"/>
<path class="l1" d="M523.319 234.398L540.227 234.398"/>
<path class="l1" d="M565.589 234.398L650.129 234.398"/>
<path class="l1" d="M481.049 234.398L497.957 234.398"/>
<path class="l1" d="M481.049 196.355L481.049 234.398"/>
<path class="l1" d="M481.049 251.306L497.957 251.306"/>
<path class="l1" d="M481.049 234.398L481.049 251.306"/>
<path class="l1" d="M481.049 251.306L481.049 259.76"/>
<path class="l1" d="M481.049 293.575L582.497 293.575"/>
<path class="l1" d="M582.497 259.76L582.497 293.575"/>
<path class="l1" d="M844.57 234.398L861.478 234.398"/>
<path class="l1" d="M802.3 234.398L819.208 234.398"/>
<path class="l1" d="M802.3 285.121L802.3 293.575"/>
<path class="l1" d="M802.3 293.575L903.748 293.575"/>
<path class="l1" d="M802.3 251.306L802.3 259.76"/>
<path class="l1" d="M802.3 251.306L819.208 251.306"/>
<path class="l1" d="M802.3 234.398L802.3 251.306"/>
<circle class="l1" cx="481.049" cy="234.398" r="1.56399"/>
<circle class="l1" cx="481.049" cy="251.306" r="1.56399"/>
<circle class="l1" cx="481.049" cy="234.398" r="1.56399"/>
<circle class="l1" cx="481.049" cy="234.398" r="1.56399"/>
<circle class="l1" cx="481.049" cy="251.306" r="1.56399"/>
<circle class="l1" cx="481.049" cy="251.306" r="1.56399"/>
<circle class="l1" cx="650.129" cy="183.674" r="1.56399"/>
<circle class="l1" cx="650.129" cy="183.674" r="1.56399"/>
<circle class="l1" cx="582.497" cy="259.76" r="1.56399"/>
<circle class="l1" cx="650.129" cy="183.674" r="1.56399"/>
<circle class="l1" cx="582.497" cy="259.76" r="1.56399"/>
<circle class="l1" cx="582.497" cy="259.76" r="1.56399"/>
<circle class="l1" cx="650.129" cy="420.385" r="1.56399"/>
<circle class="l1" cx="650.129" cy="420.385" r="1.56399"/>
<circle class="l1" cx="650.129" cy="420.385" r="1.56399"/>
<circle class="l1" cx="802.3" cy="234.398" r="1.56399"/>
<circle class="l1" cx="802.3" cy="251.306" r="1.56399"/>
<circle class="l1" cx="802.3" cy="234.398" r="1.56399"/>
<circle class="l1" cx="802.3" cy="234.398" r="1.56399"/>
<circle class="l1" cx="802.3" cy="251.306" r="1.56399"/>
<circle class="l1" cx="802.3" cy="251.306" r="1.56399"/>
<circle class="l1" cx="853.024" cy="471.109" r="1.56399"/>
<circle class="l1" cx="853.024" cy="471.109" r="1.56399"/>
<circle class="l1" cx="853.024" cy="471.109" r="1.56399"/>
<circle class="l1" cx="971.38" cy="183.674" r="1.56399"/>
<circle class="l1" cx="971.38" cy="183.674" r="1.56399"/>
<circle class="l1" cx="903.748" cy="259.76" r="1.56399"/>
<circle class="l1" cx="971.38" cy="183.674" r="1.56399"/>
<circle class="l1" cx="903.748" cy="259.76" r="1.56399"/>
<circle class="l1" cx="903.748" cy="259.76" r="1.56399"/>
<circle class="l1" cx="903.748" cy="496.471" r="1.56399"/>
<circle class="l1" cx="971.38" cy="420.385" r="1.56399"/>
<circle class="l1" cx="971.38" cy="420.385" r="1.56399"/>
<circle class="l1" cx="903.748" cy="496.471" r="1.56399"/>
<circle class="l1" cx="903.748" cy="496.471" r="1.56399"/>
<circle class="l1" cx="971.38" cy="420.385" r="1.56399"/>
<text fill="#222222"  xml:space="preserve" font-size="8.79214" transform="translate(455.687, 322.694)" >Middlebrook's Method</text>
<text fill="#222222"  xml:space="preserve" font-size="8.79214" transform="translate(455.687, 85.9822)" >Tian's Method</text>
</svg>
