<svg xmlns="http://www.w3.org/2000/svg" xmlns:xlink="http://www.w3.org/1999/xlink" width="900" height="509" version="1.1">
<style type="text/css">
.l0{
  fill: #ffffff;
  stroke: #ffffff;
  stroke-linecap:round;
  stroke-linejoin:round;
  stroke-width: 0.5408;
}
.l1{
  fill: #0044ee;
  stroke: #0044ee;
  stroke-linecap:round;
  stroke-linejoin:round;
  stroke-width: 0.5408;
}
.l2{
  fill: #aaaaaa; fill-opacity: 0.2;
  stroke: #aaaaaa;
  stroke-linecap:round;
  stroke-linejoin:round;
  stroke-width: 0.5408;
}
.l3{
  fill: #222222; fill-opacity: 0.5;
  stroke: #222222;
  stroke-linecap:round;
  stroke-linejoin:round;
  stroke-width: 0.5408;
}
.l4{
  fill: #229900;
  stroke: #229900;
  stroke-linecap:round;
  stroke-linejoin:round;
  stroke-width: 0.5408;
}
.l5{
  fill: #bb2200;
  stroke: #bb2200;
  stroke-linecap:round;
  stroke-linejoin:round;
  stroke-width: 0.5408;
}
.l6{
  fill: #00ccee; fill-opacity: 0.5;
  stroke: #00ccee;
  stroke-linecap:round;
  stroke-linejoin:round;
  stroke-width: 0.5408;
}
.l7{
  fill: #ff0000; fill-opacity: 0.5;
  stroke: #ff0000;
  stroke-linecap:round;
  stroke-linejoin:round;
  stroke-width: 0.5408;
}
.l8{
  fill: #888800; fill-opacity: 0.5;
  stroke: #888800;
  stroke-linecap:round;
  stroke-linejoin:round;
  stroke-width: 0.5408;
}
.l9{
  fill: #00aaaa; fill-opacity: 0.5;
  stroke: #00aaaa;
  stroke-linecap:round;
  stroke-linejoin:round;
  stroke-width: 0.5408;
}
.l10{
  fill: #880088;
  stroke: #880088;
  stroke-linecap:round;
  stroke-linejoin:round;
  stroke-width: 0.5408;
}
.l11{
  fill: #00ff00; fill-opacity: 0.5;
  stroke: #00ff00;
  stroke-linecap:round;
  stroke-linejoin:round;
  stroke-width: 0.5408;
}
.l12{
  fill: #0000cc; fill-opacity: 0.5;
  stroke: #0000cc;
  stroke-linecap:round;
  stroke-linejoin:round;
  stroke-width: 0.5408;
}
.l13{
  fill: #666600; fill-opacity: 0.5;
  stroke: #666600;
  stroke-linecap:round;
  stroke-linejoin:round;
  stroke-width: 0.5408;
}
.l14{
  fill: #557755; fill-opacity: 0.2;
  stroke: #557755;
  stroke-linecap:round;
  stroke-linejoin:round;
  stroke-width: 0.5408;
}
.l15{
  fill: #aa2222; fill-opacity: 0.5;
  stroke: #aa2222;
  stroke-linecap:round;
  stroke-linejoin:round;
  stroke-width: 0.5408;
}
.l16{
  fill: #7ccc40; fill-opacity: 0.5;
  stroke: #7ccc40;
  stroke-linecap:round;
  stroke-linejoin:round;
  stroke-width: 0.5408;
}
.l17{
  fill: #00ffcc; fill-opacity: 0.2;
  stroke: #00ffcc;
  stroke-linecap:round;
  stroke-linejoin:round;
  stroke-width: 0.5408;
}
.l18{
  fill: #ce0097; fill-opacity: 0.5;
  stroke: #ce0097;
  stroke-linecap:round;
  stroke-linejoin:round;
  stroke-width: 0.5408;
}
.l19{
  fill: #d2d46b; fill-opacity: 0.2;
  stroke: #d2d46b;
  stroke-linecap:round;
  stroke-linejoin:round;
  stroke-width: 0.5408;
}
.l20{
  fill: #ef6158; fill-opacity: 0.2;
  stroke: #ef6158;
  stroke-linecap:round;
  stroke-linejoin:round;
  stroke-width: 0.5408;
}
.l21{
  fill: #fdb200; fill-opacity: 0.2;
  stroke: #fdb200;
  stroke-linecap:round;
  stroke-linejoin:round;
  stroke-width: 0.5408;
}
text {font-family: Sans-Serif;}
</style>
<rect class="l0" x="0" y="0" width="900" height="509"/>
<text fill="#0044ee"  xml:space="preserve" font-size="5.2077" transform="translate(448.748, 344.39)" >GND</text>
<text fill="#0044ee"  xml:space="preserve" font-size="5.2077" transform="translate(393.667, 344.39)" >GND</text>
<text fill="#0044ee"  xml:space="preserve" font-size="5.2077" transform="translate(493.815, 344.39)" >GND</text>
<text fill="#0044ee"  xml:space="preserve" font-size="5.2077" transform="translate(523.859, 344.39)" >GND</text>
<text fill="#0044ee"  xml:space="preserve" font-size="7.03039" transform="translate(404.689, 410.929)" >g</text>
<text fill="#0044ee"  xml:space="preserve" font-size="7.03039" transform="translate(474.793, 445.98)" >d</text>
<text fill="#0044ee"  xml:space="preserve" font-size="7.03039" transform="translate(481.296, 410.929)" >b</text>
<text fill="#0044ee"  xml:space="preserve" font-size="5.2077" transform="translate(573.933, 344.39)" >GND</text>
<text fill="#0044ee"  xml:space="preserve" font-size="8.5927" transform="translate(561.422, 416.968)" >n</text>
<text fill="#222222"  xml:space="preserve" font-size="7.81155" transform="translate(157.067, 440.357)" >MODEL</text>
<text fill="#222222"  xml:space="preserve" font-size="7.81155" style="font-family:Monospace;" transform="translate(162.074, 452.876)" >.lib cornerMOSlv.lib mos_tt</text>
<text fill="#222222"  xml:space="preserve" font-size="10.4154" transform="translate(352.356, 495.299)" >         /foss/designs/xschem/techsweep_sg13g2_lv_pmos.sch</text>
<text fill="#222222"  xml:space="preserve" font-size="10.4154" transform="translate(352.356, 480.277)" >(c) 2024 Harald Pretl (adapted from Boris Murmann)</text>
<text fill="#222222"  xml:space="preserve" font-size="10.4154" transform="translate(625.437, 480.277)" >2024-08-19  13:13:30</text>
<text fill="#222222"  xml:space="preserve" font-size="26.0385" transform="translate(237.185, 494.463)" >SCHEM</text>
<text fill="#222222"  xml:space="preserve" font-size="10.4154" transform="translate(399.926, 291.507)" >simulate</text>
<text fill="#222222"  xml:space="preserve" font-size="10.4154" transform="translate(399.926, 311.536)" >annotate OP</text>
<text fill="#aa2222"  xml:space="preserve" font-size="5.2077" transform="translate(633.091, 340.556)" >? </text>
<text fill="#aa2222"  xml:space="preserve" font-size="5.2077" transform="translate(625.091, 334.297)" >gds=</text>
<text fill="#aa2222"  xml:space="preserve" font-size="5.2077" transform="translate(633.091, 325.534)" >? </text>
<text fill="#aa2222"  xml:space="preserve" font-size="5.2077" transform="translate(626.091, 319.275)" >gm=</text>
<text fill="#aa2222"  xml:space="preserve" font-size="5.2077" transform="translate(633.091, 355.579)" >? </text>
<text fill="#aa2222"  xml:space="preserve" font-size="5.2077" transform="translate(626.091, 349.319)" >vth=</text>
<text fill="#aa2222"  xml:space="preserve" font-size="5.2077" transform="translate(633.091, 385.623)" >? </text>
<text fill="#aa2222"  xml:space="preserve" font-size="5.2077" transform="translate(625.091, 379.364)" >cgs=</text>
<text fill="#aa2222"  xml:space="preserve" font-size="5.2077" transform="translate(633.091, 370.601)" >? </text>
<text fill="#aa2222"  xml:space="preserve" font-size="5.2077" transform="translate(598.091, 364.342)" >vdss(vds_sat)=</text>
<text fill="#aa2222"  xml:space="preserve" font-size="5.2077" transform="translate(633.091, 400.645)" >? </text>
<text fill="#aa2222"  xml:space="preserve" font-size="5.2077" transform="translate(615.091, 394.386)" >fug(f_t)=</text>
<text fill="#aa2222"  xml:space="preserve" font-size="5.2077" transform="translate(633.091, 415.667)" >? </text>
<text fill="#aa2222"  xml:space="preserve" font-size="5.2077" transform="translate(625.091, 409.408)" >cdg=</text>
<text fill="#aa2222"  xml:space="preserve" font-size="5.2077" transform="translate(633.091, 445.712)" >? </text>
<text fill="#aa2222"  xml:space="preserve" font-size="5.2077" transform="translate(627.091, 439.453)" >sid=</text>
<text fill="#aa2222"  xml:space="preserve" font-size="5.2077" transform="translate(633.091, 430.69)" >? </text>
<text fill="#aa2222"  xml:space="preserve" font-size="5.2077" transform="translate(629.091, 424.43)" >rg=</text>
<text fill="#222222"  xml:space="preserve" font-size="7.81155" transform="translate(497.57, 14.7279)" >NGSPICE_SAVE</text>
<text fill="#222222"  xml:space="preserve" font-size="7.81155" style="font-family:Monospace;" transform="translate(502.578, 36.2062)" >.save b d g n</text>
<text fill="#222222"  xml:space="preserve" font-size="7.81155" style="font-family:Monospace;" transform="translate(502.578, 45.1661)" >.save @n.xm1.nsg13_lv_pmos[cgsol]</text>
<text fill="#222222"  xml:space="preserve" font-size="7.81155" style="font-family:Monospace;" transform="translate(502.578, 54.1259)" >.save @n.xm1.nsg13_lv_pmos[cgdol]</text>
<text fill="#222222"  xml:space="preserve" font-size="7.81155" style="font-family:Monospace;" transform="translate(502.578, 63.0858)" >.save @n.xm1.nsg13_lv_pmos[cdd]</text>
<text fill="#222222"  xml:space="preserve" font-size="7.81155" style="font-family:Monospace;" transform="translate(502.578, 72.0456)" >.save @n.xm1.nsg13_lv_pmos[cgb]</text>
<text fill="#222222"  xml:space="preserve" font-size="7.81155" style="font-family:Monospace;" transform="translate(502.578, 81.0055)" >.save @n.xm1.nsg13_lv_pmos[cgd]</text>
<text fill="#222222"  xml:space="preserve" font-size="7.81155" style="font-family:Monospace;" transform="translate(502.578, 89.9653)" >.save @n.xm1.nsg13_lv_pmos[cgg]</text>
<text fill="#222222"  xml:space="preserve" font-size="7.81155" style="font-family:Monospace;" transform="translate(502.578, 98.9252)" >.save @n.xm1.nsg13_lv_pmos[cgs]</text>
<text fill="#222222"  xml:space="preserve" font-size="7.81155" style="font-family:Monospace;" transform="translate(502.578, 107.885)" >.save @n.xm1.nsg13_lv_pmos[css]</text>
<text fill="#222222"  xml:space="preserve" font-size="7.81155" style="font-family:Monospace;" transform="translate(502.578, 116.845)" >.save @n.xm1.nsg13_lv_pmos[gds]</text>
<text fill="#222222"  xml:space="preserve" font-size="7.81155" style="font-family:Monospace;" transform="translate(502.578, 125.805)" >.save @n.xm1.nsg13_lv_pmos[gm]</text>
<text fill="#222222"  xml:space="preserve" font-size="7.81155" style="font-family:Monospace;" transform="translate(502.578, 134.765)" >.save @n.xm1.nsg13_lv_pmos[gmb]</text>
<text fill="#222222"  xml:space="preserve" font-size="7.81155" style="font-family:Monospace;" transform="translate(502.578, 143.724)" >.save @n.xm1.nsg13_lv_pmos[ids]</text>
<text fill="#222222"  xml:space="preserve" font-size="7.81155" style="font-family:Monospace;" transform="translate(502.578, 152.684)" >.save @n.xm1.nsg13_lv_pmos[l]</text>
<text fill="#222222"  xml:space="preserve" font-size="7.81155" style="font-family:Monospace;" transform="translate(502.578, 161.644)" >.save @n.xm1.nsg13_lv_pmos[vgs]</text>
<text fill="#222222"  xml:space="preserve" font-size="7.81155" style="font-family:Monospace;" transform="translate(502.578, 170.604)" >.save @n.xm1.nsg13_lv_pmos[vds]</text>
<text fill="#222222"  xml:space="preserve" font-size="7.81155" style="font-family:Monospace;" transform="translate(502.578, 179.564)" >.save @n.xm1.nsg13_lv_pmos[vsb]</text>
<text fill="#222222"  xml:space="preserve" font-size="7.81155" style="font-family:Monospace;" transform="translate(502.578, 188.524)" >.save @n.xm1.nsg13_lv_pmos[vth]</text>
<text fill="#222222"  xml:space="preserve" font-size="7.81155" style="font-family:Monospace;" transform="translate(502.578, 197.483)" >.save @n.xm1.nsg13_lv_pmos[vdss]</text>
<text fill="#222222"  xml:space="preserve" font-size="7.81155" style="font-family:Monospace;" transform="translate(502.578, 206.443)" >.save @n.xm1.nsg13_lv_pmos[fug]</text>
<text fill="#222222"  xml:space="preserve" font-size="7.81155" style="font-family:Monospace;" transform="translate(502.578, 215.403)" >.save @n.xm1.nsg13_lv_pmos[sid]</text>
<text fill="#222222"  xml:space="preserve" font-size="7.81155" style="font-family:Monospace;" transform="translate(502.578, 224.363)" >.save @n.xm1.nsg13_lv_pmos[sfl]</text>
<text fill="#222222"  xml:space="preserve" font-size="7.81155" style="font-family:Monospace;" transform="translate(502.578, 233.323)" >.save @n.xm1.nsg13_lv_pmos[cjd]</text>
<text fill="#222222"  xml:space="preserve" font-size="7.81155" style="font-family:Monospace;" transform="translate(502.578, 242.283)" >.save @n.xm1.nsg13_lv_pmos[cjs]</text>
<text fill="#222222"  xml:space="preserve" font-size="7.81155" style="font-family:Monospace;" transform="translate(502.578, 251.243)" >.save @n.xm1.nsg13_lv_pmos[rg]</text>
<text fill="#222222"  xml:space="preserve" font-size="5.2077" transform="translate(430.481, 402.941)" >M1</text>
<text fill="#ff0000"  xml:space="preserve" font-size="3.90577" transform="translate(446.244, 425.544)" >D</text>
<text fill="#ff0000"  xml:space="preserve" font-size="3.90577" transform="translate(446.244, 403.538)" >S</text>
<text fill="#ff0000"  xml:space="preserve" font-size="3.90577" transform="translate(444.993, 411.774)" >B</text>
<text fill="#ff0000"  xml:space="preserve" font-size="3.90577" transform="translate(426.97, 411.774)" >G</text>
<text fill="#222222"  xml:space="preserve" font-size="5.2077" transform="translate(450, 427.638)" >sg13_lv_pmos</text>
<text fill="#666600"  xml:space="preserve" font-size="5.2077" transform="translate(450.626, 404.819)" >m=1</text>
<text fill="#666600"  xml:space="preserve" font-size="5.2077" transform="translate(450.626, 408.574)" >ng=1</text>
<text fill="#666600"  xml:space="preserve" font-size="5.2077" transform="translate(450.626, 413.582)" >l={lx}</text>
<text fill="#666600"  xml:space="preserve" font-size="5.2077" transform="translate(450.626, 418.589)" >w={wx}</text>
<text fill="#222222"  xml:space="preserve" font-size="5.2077" transform="translate(530.118, 408.574)" >vd</text>
<text fill="#222222"  xml:space="preserve" font-size="5.2077" transform="translate(530.118, 421.093)" >0.75</text>
<text fill="#222222"  xml:space="preserve" font-size="5.2077" transform="translate(500.074, 381.32)" >vsb</text>
<text fill="#222222"  xml:space="preserve" font-size="5.2077" transform="translate(500.074, 368.801)" >{vbx}</text>
<text fill="#222222"  xml:space="preserve" font-size="5.2077" transform="translate(399.926, 368.515)" >vg</text>
<text fill="#222222"  xml:space="preserve" font-size="5.2077" transform="translate(399.926, 381.034)" >0.65 AC 1</text>
<text fill="#222222"  xml:space="preserve" font-size="5.2077" transform="translate(582.696, 387.919)" >1</text>
<text fill="#222222"  xml:space="preserve" font-size="5.2077" transform="translate(582.696, 375.4)" >H1</text>
<text fill="#222222"  xml:space="preserve" font-size="5.2077" transform="translate(582.696, 381.66)" >vd</text>
<text fill="#222222"  xml:space="preserve" font-size="7.81155" transform="translate(157.067, 14.7279)" >NGSPICE_CTRL</text>
<text fill="#222222"  xml:space="preserve" font-size="7.81155" style="font-family:Monospace;" transform="translate(162.074, 36.2062)" >.option sparse</text>
<text fill="#222222"  xml:space="preserve" font-size="7.81155" style="font-family:Monospace;" transform="translate(162.074, 45.1661)" >.param temp=27</text>
<text fill="#222222"  xml:space="preserve" font-size="7.81155" style="font-family:Monospace;" transform="translate(162.074, 54.1259)" >.param wx=5u lx=0.13u vbx=0</text>
<text fill="#222222"  xml:space="preserve" font-size="7.81155" style="font-family:Monospace;" transform="translate(162.074, 63.0858)" >.noise v(n) vg lin 1 1 1 1</text>
<text fill="#222222"  xml:space="preserve" font-size="7.81155" style="font-family:Monospace;" transform="translate(162.074, 72.0456)" >.control</text>
<text fill="#222222"  xml:space="preserve" font-size="7.81155" style="font-family:Monospace;" transform="translate(162.074, 81.0055)" >option numdgt=3</text>
<text fill="#222222"  xml:space="preserve" font-size="7.81155" style="font-family:Monospace;" transform="translate(162.074, 89.9653)" >set wr_singlescale</text>
<text fill="#222222"  xml:space="preserve" font-size="7.81155" style="font-family:Monospace;" transform="translate(162.074, 98.9252)" >set wr_vecnames</text>
<text fill="#222222"  xml:space="preserve" font-size="7.81155" style="font-family:Monospace;" transform="translate(162.074, 116.845)" >compose l_vec  values 0.13u 0.2u 0.3u 0.4u 0.5u 1u 5u 10u</text>
<text fill="#222222"  xml:space="preserve" font-size="7.81155" style="font-family:Monospace;" transform="translate(162.074, 125.805)" >compose vg_vec start= 0 stop=1.5  step=25m</text>
<text fill="#222222"  xml:space="preserve" font-size="7.81155" style="font-family:Monospace;" transform="translate(162.074, 134.765)" >compose vd_vec start= 0 stop=1.5  step=25m</text>
<text fill="#222222"  xml:space="preserve" font-size="7.81155" style="font-family:Monospace;" transform="translate(162.074, 143.724)" >compose vb_vec values 0 0.4 0.8 1.2</text>
<text fill="#222222"  xml:space="preserve" font-size="7.81155" style="font-family:Monospace;" transform="translate(162.074, 161.644)" >foreach var1 $&amp;l_vec</text>
<text fill="#222222"  xml:space="preserve" font-size="7.81155" style="font-family:Monospace;" transform="translate(162.074, 170.604)" >  alterparam lx=$var1</text>
<text fill="#222222"  xml:space="preserve" font-size="7.81155" style="font-family:Monospace;" transform="translate(162.074, 179.564)" >  reset</text>
<text fill="#222222"  xml:space="preserve" font-size="7.81155" style="font-family:Monospace;" transform="translate(162.074, 188.524)" >  foreach var2 $&amp;vg_vec</text>
<text fill="#222222"  xml:space="preserve" font-size="7.81155" style="font-family:Monospace;" transform="translate(162.074, 197.483)" >    alter vg $var2</text>
<text fill="#222222"  xml:space="preserve" font-size="7.81155" style="font-family:Monospace;" transform="translate(162.074, 206.443)" >    foreach var3 $&amp;vd_vec</text>
<text fill="#222222"  xml:space="preserve" font-size="7.81155" style="font-family:Monospace;" transform="translate(162.074, 215.403)" >      alter vd $var3</text>
<text fill="#222222"  xml:space="preserve" font-size="7.81155" style="font-family:Monospace;" transform="translate(162.074, 224.363)" >      foreach var4 $&amp;vb_vec</text>
<text fill="#222222"  xml:space="preserve" font-size="7.81155" style="font-family:Monospace;" transform="translate(162.074, 233.323)" >        alter vsb $var4</text>
<text fill="#222222"  xml:space="preserve" font-size="7.81155" style="font-family:Monospace;" transform="translate(162.074, 242.283)" >        run </text>
<text fill="#222222"  xml:space="preserve" font-size="7.81155" style="font-family:Monospace;" transform="translate(162.074, 251.243)" >        wrdata techsweep_sg13_lv_pmos.txt noise1.all</text>
<text fill="#222222"  xml:space="preserve" font-size="7.81155" style="font-family:Monospace;" transform="translate(162.074, 260.202)" >        destroy all</text>
<text fill="#222222"  xml:space="preserve" font-size="7.81155" style="font-family:Monospace;" transform="translate(162.074, 269.162)" >        set appendwrite</text>
<text fill="#222222"  xml:space="preserve" font-size="7.81155" style="font-family:Monospace;" transform="translate(162.074, 278.122)" >        unset set wr_vecnames</text>
<text fill="#222222"  xml:space="preserve" font-size="7.81155" style="font-family:Monospace;" transform="translate(162.074, 287.082)" >      end</text>
<text fill="#222222"  xml:space="preserve" font-size="7.81155" style="font-family:Monospace;" transform="translate(162.074, 296.042)" >    end</text>
<text fill="#222222"  xml:space="preserve" font-size="7.81155" style="font-family:Monospace;" transform="translate(162.074, 305.002)" >  end</text>
<text fill="#222222"  xml:space="preserve" font-size="7.81155" style="font-family:Monospace;" transform="translate(162.074, 313.962)" >end</text>
<text fill="#222222"  xml:space="preserve" font-size="7.81155" style="font-family:Monospace;" transform="translate(162.074, 331.881)" >set appendwrite=0</text>
<text fill="#222222"  xml:space="preserve" font-size="7.81155" style="font-family:Monospace;" transform="translate(162.074, 349.801)" >alterparam lx=0.13u</text>
<text fill="#222222"  xml:space="preserve" font-size="7.81155" style="font-family:Monospace;" transform="translate(162.074, 358.761)" >alterparam vbx=0</text>
<text fill="#222222"  xml:space="preserve" font-size="7.81155" style="font-family:Monospace;" transform="translate(162.074, 367.721)" >reset</text>
<text fill="#222222"  xml:space="preserve" font-size="7.81155" style="font-family:Monospace;" transform="translate(162.074, 376.68)" >op</text>
<text fill="#222222"  xml:space="preserve" font-size="7.81155" style="font-family:Monospace;" transform="translate(162.074, 385.64)" >*showmod</text>
<text fill="#222222"  xml:space="preserve" font-size="7.81155" style="font-family:Monospace;" transform="translate(162.074, 394.6)" >show</text>
<text fill="#222222"  xml:space="preserve" font-size="7.81155" style="font-family:Monospace;" transform="translate(162.074, 403.56)" >write techsweep_sg13g2_lv_pmos.raw</text>
<text fill="#222222"  xml:space="preserve" font-size="7.81155" style="font-family:Monospace;" transform="translate(162.074, 412.52)" >.endc</text>
<path class="l4" d="M154.563 443.279L189.615 443.279"/>
<path class="l4" d="M154.563 443.279L154.563 453.294"/>
<path class="l4" d="M394.919 288.05L379.896 281.79L379.896 285.546L364.874 285.546L369.882 288.05L364.874 290.553L379.896 290.553L379.896 294.309L394.919 288.05"/>
<path class="l4" d="M394.919 308.079L379.896 301.82L379.896 305.576L364.874 305.576L369.882 308.079L364.874 310.583L379.896 310.583L379.896 314.338L394.919 308.079"/>
<path class="l4" d="M495.067 17.6498L530.118 17.6498"/>
<path class="l4" d="M495.067 17.6498L495.067 27.6646"/>
<path class="l4" d="M438.733 401.968L438.733 424.501"/>
<path class="l4" d="M444.993 398.212L444.993 404.472"/>
<path class="l4" d="M444.993 421.998L444.993 428.257"/>
<path class="l4" d="M436.23 405.724L436.23 420.746"/>
<path class="l4" d="M438.733 421.998L444.993 421.998"/>
<path class="l4" d="M438.733 404.472L444.993 404.472"/>
<path class="l4" d="M424.963 413.235L435.979 413.235"/>
<path class="l4" d="M441.237 403.22L438.733 404.472L441.237 405.724L441.237 403.22"/>
<path class="l4" d="M444.993 341.879L444.993 348.138"/>
<path class="l4" d="M442.489 341.879L447.496 341.879"/>
<path class="l4" d="M444.993 339.375L447.496 341.879"/>
<path class="l4" d="M442.489 341.879L444.993 339.375"/>
<path class="l4" d="M521.356 401.968L523.859 401.968"/>
<path class="l4" d="M522.607 400.716L522.607 403.22"/>
<path class="l4" d="M520.104 398.212L520.104 428.257"/>
<circle class="l4" cx="520.104" cy="413.235" r="7.51111" style="fill:none;" />
<path class="l4" d="M491.311 384.442L493.815 384.442"/>
<path class="l4" d="M492.563 383.19L492.563 385.694"/>
<path class="l4" d="M490.059 358.153L490.059 388.198"/>
<circle class="l4" cx="490.059" cy="373.175" r="7.51111" style="fill:none;" />
<path class="l4" d="M391.163 361.909L393.667 361.909"/>
<path class="l4" d="M392.415 360.657L392.415 363.161"/>
<path class="l4" d="M389.911 358.153L389.911 388.198"/>
<circle class="l4" cx="389.911" cy="373.175" r="7.51111" style="fill:none;" />
<path class="l4" d="M389.911 341.879L389.911 348.138"/>
<path class="l4" d="M387.407 341.879L392.415 341.879"/>
<path class="l4" d="M389.911 339.375L392.415 341.879"/>
<path class="l4" d="M387.407 341.879L389.911 339.375"/>
<path class="l4" d="M490.059 341.879L490.059 348.138"/>
<path class="l4" d="M487.556 341.879L492.563 341.879"/>
<path class="l4" d="M490.059 339.375L492.563 341.879"/>
<path class="l4" d="M487.556 341.879L490.059 339.375"/>
<path class="l4" d="M520.104 341.879L520.104 348.138"/>
<path class="l4" d="M517.6 341.879L522.607 341.879"/>
<path class="l4" d="M520.104 339.375L522.607 341.879"/>
<path class="l4" d="M517.6 341.879L520.104 339.375"/>
<path class="l4" d="M570.178 368.168L580.192 378.183"/>
<path class="l4" d="M560.163 378.183L570.178 368.168"/>
<path class="l4" d="M560.163 378.183L570.178 388.198"/>
<path class="l4" d="M570.178 388.198L580.192 378.183"/>
<path class="l4" d="M570.178 363.161L570.178 393.205"/>
<path class="l4" d="M575.185 368.168L580.192 368.168"/>
<path class="l4" d="M577.689 365.664L577.689 370.672"/>
<path class="l4" d="M570.178 341.879L570.178 348.138"/>
<path class="l4" d="M567.674 341.879L572.681 341.879"/>
<path class="l4" d="M570.178 339.375L572.681 341.879"/>
<path class="l4" d="M567.674 341.879L570.178 339.375"/>
<path class="l4" d="M154.563 17.6498L189.615 17.6498"/>
<path class="l4" d="M154.563 17.6498L154.563 27.6646"/>
<path class="l5" d="M229.674 475.827L229.518 475.984L229.361 476.14L229.205 476.297L229.048 476.453L228.892 476.61L228.735 476.766L228.579 476.923L228.422 477.079L228.266 477.236L228.109 477.392L227.953 477.549L227.796 477.705L227.64 477.861L227.484 478.018L227.327 478.174L227.171 478.331L227.014 478.487L226.858 478.644L226.701 478.8L226.545 478.957L226.388 479.113L226.232 479.27L226.075 479.426L225.919 479.583L225.762 479.739L225.606 479.896L225.449 480.052L225.293 480.209L225.136 480.365L224.98 480.522L224.823 480.678L224.667 480.835L224.667 480.835L224.515 480.991L224.373 481.148L224.241 481.304L224.119 481.461L224.007 481.617L223.904 481.774L223.811 481.93L223.728 482.086L223.655 482.243L223.591 482.399L223.537 482.556L223.493 482.712L223.459 482.869L223.435 483.025L223.42 483.182L223.415 483.338L223.42 483.495L223.435 483.651L223.459 483.808L223.493 483.964L223.537 484.121L223.591 484.277L223.655 484.434L223.728 484.59L223.811 484.747L223.904 484.903L224.007 485.06L224.119 485.216L224.241 485.373L224.373 485.529L224.515 485.686L224.667 485.842L224.667 485.842L224.824 485.999L224.982 486.157L225.142 486.317L225.303 486.478L225.465 486.64L225.628 486.803L225.792 486.967L225.958 487.133L226.125 487.3L226.293 487.468L226.462 487.637L226.633 487.808L226.804 487.98L226.977 488.153L227.152 488.327L227.327 488.502L227.504 488.679L227.682 488.857L227.861 489.036L228.041 489.216L228.223 489.398L228.405 489.58L228.589 489.764L228.774 489.95L228.961 490.136L229.149 490.324L229.337 490.513L229.528 490.703L229.719 490.894L229.911 491.087L230.105 491.28L230.3 491.475L230.3 491.475L230.495 491.67L230.686 491.862L230.876 492.051L231.063 492.238L231.248 492.423L231.43 492.605L231.609 492.785L231.787 492.962L231.962 493.137L232.134 493.309L232.304 493.479L232.471 493.647L232.636 493.812L232.799 493.974L232.959 494.134L233.117 494.292L233.272 494.447L233.425 494.6L233.575 494.75L233.723 494.898L233.869 495.044L234.012 495.187L234.152 495.328L234.29 495.466L234.426 495.601L234.559 495.735L234.69 495.865L234.819 495.994L234.944 496.12L235.068 496.243L235.189 496.364L235.308 496.483L235.308 496.483L235.421 496.598L235.528 496.71L235.627 496.818L235.718 496.923L235.803 497.024L235.88 497.121L235.949 497.214L236.012 497.304L236.067 497.39L236.114 497.473L236.155 497.552L236.188 497.627L236.213 497.699L236.232 497.766L236.243 497.831L236.246 497.891L236.243 497.948L236.232 498.001L236.213 498.051L236.188 498.096L236.155 498.139L236.114 498.177L236.067 498.212L236.012 498.243L235.949 498.271L235.88 498.295L235.803 498.315L235.718 498.331L235.627 498.344L235.528 498.353L235.421 498.359L235.308 498.361L235.308 498.361L235.19 498.361L235.073 498.361L234.955 498.361L234.838 498.361L234.721 498.361L234.603 498.361L234.486 498.361L234.369 498.361L234.251 498.361L234.134 498.361L234.017 498.361L233.899 498.361L233.782 498.361L233.665 498.361L233.547 498.361L233.43 498.361L233.312 498.361L233.195 498.361L233.078 498.361L232.96 498.361L232.843 498.361L232.726 498.361L232.608 498.361L232.491 498.361L232.374 498.361L232.256 498.361L232.139 498.361L232.021 498.361L231.904 498.361L231.787 498.361L231.669 498.361L231.552 498.361L231.552 498.361L231.435 498.361L231.32 498.361L231.205 498.361L231.092 498.361L230.98 498.361L230.87 498.361L230.76 498.361L230.652 498.361L230.545 498.361L230.44 498.361L230.335 498.361L230.232 498.361L230.13 498.361L230.029 498.361L229.929 498.361L229.831 498.361L229.734 498.361L229.638 498.361L229.543 498.361L229.449 498.361L229.357 498.361L229.266 498.361L229.176 498.361L229.087 498.361L229 498.361L228.914 498.361L228.829 498.361L228.745 498.361L228.663 498.361L228.581 498.361L228.501 498.361L228.422 498.361L228.422 498.361L228.344 498.359L228.266 498.356L228.188 498.35L228.109 498.341L228.031 498.33L227.953 498.317L227.875 498.301L227.796 498.282L227.718 498.262L227.64 498.238L227.562 498.213L227.484 498.185L227.405 498.154L227.327 498.121L227.249 498.085L227.171 498.048L227.092 498.007L227.014 497.964L226.936 497.919L226.858 497.872L226.779 497.821L226.701 497.769L226.623 497.714L226.545 497.656L226.466 497.596L226.388 497.534L226.31 497.469L226.232 497.402L226.153 497.332L226.075 497.26L225.997 497.186L225.919 497.109L225.919 497.109L225.84 497.03L225.762 496.952L225.684 496.874L225.606 496.796L225.527 496.718L225.449 496.639L225.371 496.561L225.293 496.483L225.215 496.405L225.136 496.326L225.058 496.248L224.98 496.17L224.902 496.092L224.823 496.013L224.745 495.935L224.667 495.857L224.589 495.779L224.51 495.7L224.432 495.622L224.354 495.544L224.276 495.466L224.197 495.387L224.119 495.309L224.041 495.231L223.963 495.153L223.884 495.074L223.806 494.996L223.728 494.918L223.65 494.84L223.571 494.761L223.493 494.683L223.415 494.605L223.415 494.605L223.336 494.526L223.254 494.444L223.169 494.359L223.082 494.272L222.993 494.183L222.902 494.092L222.807 493.997L222.711 493.901L222.612 493.802L222.51 493.7L222.406 493.596L222.3 493.49L222.191 493.381L222.08 493.27L221.966 493.156L221.85 493.04L221.732 492.922L221.611 492.801L221.487 492.677L221.361 492.551L221.233 492.423L221.102 492.292L220.969 492.159L220.833 492.023L220.695 491.885L220.554 491.744L220.411 491.601L220.266 491.456L220.118 491.308L219.968 491.158L219.815 491.005L219.659 490.849L219.659 490.849L219.503 490.698L219.346 490.556L219.19 490.424L219.034 490.302L218.877 490.189L218.721 490.087L218.564 489.994L218.408 489.911L218.251 489.837L218.095 489.774L217.938 489.72L217.782 489.676L217.625 489.642L217.469 489.617L217.312 489.602L217.156 489.598L216.999 489.602L216.843 489.617L216.686 489.642L216.53 489.676L216.373 489.72L216.217 489.774L216.06 489.837L215.904 489.911L215.747 489.994L215.591 490.087L215.434 490.189L215.278 490.302L215.121 490.424L214.965 490.556L214.809 490.698L214.652 490.849L214.652 490.849L214.497 491.005L214.344 491.158L214.194 491.308L214.046 491.456L213.9 491.601L213.757 491.744L213.617 491.885L213.478 492.023L213.343 492.159L213.209 492.292L213.079 492.423L212.95 492.551L212.824 492.677L212.701 492.801L212.58 492.922L212.461 493.04L212.345 493.156L212.231 493.27L212.12 493.381L212.011 493.49L211.905 493.596L211.801 493.7L211.7 493.802L211.601 493.901L211.504 493.997L211.41 494.092L211.318 494.183L211.229 494.272L211.142 494.359L211.058 494.444L210.976 494.526L210.896 494.605L210.896 494.605L210.818 494.683L210.74 494.761L210.662 494.84L210.584 494.918L210.505 494.996L210.427 495.074L210.349 495.153L210.271 495.231L210.192 495.309L210.114 495.387L210.036 495.466L209.958 495.544L209.879 495.622L209.801 495.7L209.723 495.779L209.645 495.857L209.566 495.935L209.488 496.013L209.41 496.092L209.332 496.17L209.253 496.248L209.175 496.326L209.097 496.405L209.019 496.483L208.94 496.561L208.862 496.639L208.784 496.718L208.706 496.796L208.627 496.874L208.549 496.952L208.471 497.03L208.393 497.109L208.393 497.109L208.315 497.186L208.236 497.26L208.158 497.332L208.08 497.402L208.002 497.469L207.923 497.534L207.845 497.596L207.767 497.656L207.689 497.714L207.61 497.769L207.532 497.821L207.454 497.872L207.376 497.919L207.297 497.964L207.219 498.007L207.141 498.048L207.063 498.085L206.984 498.121L206.906 498.154L206.828 498.185L206.75 498.213L206.671 498.238L206.593 498.262L206.515 498.282L206.437 498.301L206.359 498.317L206.28 498.33L206.202 498.341L206.124 498.35L206.046 498.356L205.967 498.359L205.889 498.361L205.889 498.361L205.81 498.361L205.73 498.361L205.649 498.361L205.566 498.361L205.483 498.361L205.398 498.361L205.311 498.361L205.224 498.361L205.135 498.361L205.046 498.361L204.954 498.361L204.862 498.361L204.769 498.361L204.674 498.361L204.578 498.361L204.481 498.361L204.382 498.361L204.283 498.361L204.182 498.361L204.08 498.361L203.976 498.361L203.872 498.361L203.766 498.361L203.659 498.361L203.551 498.361L203.442 498.361L203.331 498.361L203.219 498.361L203.106 498.361L202.992 498.361L202.876 498.361L202.759 498.361L202.759 498.361L202.642 498.361L202.525 498.361L202.407 498.361L202.29 498.361L202.173 498.361L202.055 498.361L201.938 498.361L201.821 498.361L201.703 498.361L201.586 498.361L201.468 498.361L201.351 498.361L201.234 498.361L201.116 498.361L200.999 498.361L200.882 498.361L200.764 498.361L200.647 498.361L200.53 498.361L200.412 498.361L200.295 498.361L200.178 498.361L200.06 498.361L199.943 498.361L199.825 498.361L199.708 498.361L199.591 498.361L199.473 498.361L199.356 498.361L199.239 498.361L199.121 498.361L199.004 498.361L199.004 498.361L198.89 498.359L198.784 498.353L198.685 498.344L198.593 498.331L198.509 498.315L198.432 498.295L198.362 498.271L198.3 498.243L198.245 498.212L198.197 498.177L198.157 498.139L198.124 498.096L198.098 498.051L198.08 498.001L198.069 497.948L198.065 497.891L198.069 497.831L198.08 497.766L198.098 497.699L198.124 497.627L198.157 497.552L198.197 497.473L198.245 497.39L198.3 497.304L198.362 497.214L198.432 497.121L198.509 497.024L198.593 496.923L198.685 496.818L198.784 496.71L198.89 496.598L199.004 496.483L199.004 496.483L199.122 496.364L199.244 496.243L199.367 496.12L199.493 495.994L199.621 495.865L199.752 495.735L199.885 495.601L200.021 495.466L200.159 495.328L200.3 495.187L200.443 495.044L200.588 494.898L200.736 494.75L200.887 494.6L201.039 494.447L201.195 494.292L201.352 494.134L201.512 493.974L201.675 493.812L201.84 493.647L202.008 493.479L202.178 493.309L202.35 493.137L202.525 492.962L202.702 492.785L202.882 492.605L203.064 492.423L203.248 492.238L203.435 492.051L203.625 491.862L203.817 491.67L204.011 491.475L204.011 491.475L204.206 491.28L204.4 491.087L204.593 490.894L204.784 490.703L204.974 490.513L205.163 490.324L205.351 490.136L205.537 489.95L205.722 489.764L205.906 489.58L206.089 489.398L206.27 489.216L206.451 489.036L206.63 488.857L206.808 488.679L206.984 488.502L207.16 488.327L207.334 488.153L207.507 487.98L207.679 487.808L207.849 487.637L208.019 487.468L208.187 487.3L208.354 487.133L208.519 486.967L208.684 486.803L208.847 486.64L209.009 486.478L209.17 486.317L209.329 486.157L209.488 485.999L209.645 485.842L209.645 485.842L209.796 485.686L209.938 485.529L210.07 485.373L210.192 485.216L210.305 485.06L210.407 484.903L210.5 484.747L210.584 484.59L210.657 484.434L210.72 484.277L210.774 484.121L210.818 483.964L210.852 483.808L210.877 483.651L210.892 483.495L210.896 483.338L210.892 483.182L210.877 483.025L210.852 482.869L210.818 482.712L210.774 482.556L210.72 482.399L210.657 482.243L210.584 482.086L210.5 481.93L210.407 481.774L210.305 481.617L210.192 481.461L210.07 481.304L209.938 481.148L209.796 480.991L209.645 480.835L209.645 480.835L209.488 480.678L209.329 480.519L209.17 480.36L209.009 480.199L208.847 480.037L208.684 479.874L208.519 479.709L208.354 479.544L208.187 479.377L208.019 479.209L207.849 479.039L207.679 478.869L207.507 478.697L207.334 478.524L207.16 478.35L206.984 478.174L206.808 477.998L206.63 477.82L206.451 477.641L206.27 477.461L206.089 477.279L205.906 477.096L205.722 476.912L205.537 476.727L205.351 476.541L205.163 476.353L204.974 476.164L204.784 475.974L204.593 475.783L204.4 475.59L204.206 475.396L204.011 475.201L204.011 475.201L203.817 475.007L203.625 474.815L203.435 474.626L203.248 474.438L203.064 474.254L202.882 474.072L202.702 473.892L202.525 473.715L202.35 473.54L202.178 473.368L202.008 473.198L201.84 473.03L201.675 472.865L201.512 472.703L201.352 472.542L201.195 472.385L201.039 472.229L200.887 472.077L200.736 471.926L200.588 471.778L200.443 471.633L200.3 471.49L200.159 471.349L200.021 471.211L199.885 471.075L199.752 470.942L199.621 470.811L199.493 470.683L199.367 470.557L199.244 470.434L199.122 470.312L199.004 470.194L199.004 470.194L198.89 470.078L198.784 469.967L198.685 469.858L198.593 469.754L198.509 469.653L198.432 469.556L198.362 469.462L198.3 469.372L198.245 469.286L198.197 469.204L198.157 469.125L198.124 469.05L198.098 468.978L198.08 468.91L198.069 468.846L198.065 468.786L198.069 468.729L198.08 468.676L198.098 468.626L198.124 468.58L198.157 468.538L198.197 468.5L198.245 468.465L198.3 468.433L198.362 468.406L198.432 468.382L198.509 468.362L198.593 468.345L198.685 468.333L198.784 468.323L198.89 468.318L199.004 468.316L199.004 468.316L199.121 468.316L199.239 468.316L199.356 468.316L199.473 468.316L199.591 468.316L199.708 468.316L199.825 468.316L199.943 468.316L200.06 468.316L200.178 468.316L200.295 468.316L200.412 468.316L200.53 468.316L200.647 468.316L200.764 468.316L200.882 468.316L200.999 468.316L201.116 468.316L201.234 468.316L201.351 468.316L201.468 468.316L201.586 468.316L201.703 468.316L201.821 468.316L201.938 468.316L202.055 468.316L202.173 468.316L202.29 468.316L202.407 468.316L202.525 468.316L202.642 468.316L202.759 468.316L202.759 468.316L202.876 468.316L202.992 468.316L203.106 468.316L203.219 468.316L203.331 468.316L203.442 468.316L203.551 468.316L203.659 468.316L203.766 468.316L203.872 468.316L203.976 468.316L204.08 468.316L204.182 468.316L204.283 468.316L204.382 468.316L204.481 468.316L204.578 468.316L204.674 468.316L204.769 468.316L204.862 468.316L204.954 468.316L205.046 468.316L205.135 468.316L205.224 468.316L205.311 468.316L205.398 468.316L205.483 468.316L205.566 468.316L205.649 468.316L205.73 468.316L205.81 468.316L205.889 468.316L205.889 468.316L205.967 468.317L206.046 468.321L206.124 468.327L206.202 468.336L206.28 468.347L206.359 468.36L206.437 468.376L206.515 468.394L206.593 468.415L206.671 468.438L206.75 468.464L206.828 468.492L206.906 468.523L206.984 468.556L207.063 468.591L207.141 468.629L207.219 468.669L207.297 468.712L207.376 468.757L207.454 468.805L207.532 468.855L207.61 468.908L207.689 468.963L207.767 469.02L207.845 469.08L207.923 469.143L208.002 469.207L208.08 469.275L208.158 469.344L208.236 469.416L208.315 469.491L208.393 469.568L208.393 469.568L208.471 469.646L208.549 469.724L208.627 469.803L208.706 469.881L208.784 469.959L208.862 470.037L208.94 470.116L209.019 470.194L209.097 470.272L209.175 470.35L209.253 470.429L209.332 470.507L209.41 470.585L209.488 470.663L209.566 470.742L209.645 470.82L209.723 470.898L209.801 470.976L209.879 471.055L209.958 471.133L210.036 471.211L210.114 471.289L210.192 471.368L210.271 471.446L210.349 471.524L210.427 471.602L210.505 471.68L210.584 471.759L210.662 471.837L210.74 471.915L210.818 471.993L210.896 472.072L210.896 472.072L210.976 472.151L211.058 472.233L211.142 472.317L211.229 472.404L211.318 472.493L211.41 472.585L211.504 472.679L211.601 472.776L211.7 472.875L211.801 472.976L211.905 473.08L212.011 473.187L212.12 473.295L212.231 473.407L212.345 473.52L212.461 473.637L212.58 473.755L212.701 473.876L212.824 474L212.95 474.126L213.079 474.254L213.209 474.385L213.343 474.518L213.478 474.654L213.617 474.792L213.757 474.932L213.9 475.075L214.046 475.221L214.194 475.369L214.344 475.519L214.497 475.672L214.652 475.827L214.652 475.827L214.809 475.979L214.965 476.121L215.121 476.253L215.278 476.375L215.434 476.487L215.591 476.59L215.747 476.683L215.904 476.766L216.06 476.839L216.217 476.903L216.373 476.957L216.53 477.001L216.686 477.035L216.843 477.06L216.999 477.074L217.156 477.079L217.312 477.074L217.469 477.06L217.625 477.035L217.782 477.001L217.938 476.957L218.095 476.903L218.251 476.839L218.408 476.766L218.564 476.683L218.721 476.59L218.877 476.487L219.034 476.375L219.19 476.253L219.346 476.121L219.503 475.979L219.659 475.827L219.659 475.827L219.815 475.672L219.968 475.519L220.118 475.369L220.266 475.221L220.411 475.075L220.554 474.932L220.695 474.792L220.833 474.654L220.969 474.518L221.102 474.385L221.233 474.254L221.361 474.126L221.487 474L221.611 473.876L221.732 473.755L221.85 473.637L221.966 473.52L222.08 473.407L222.191 473.295L222.3 473.187L222.406 473.08L222.51 472.976L222.612 472.875L222.711 472.776L222.807 472.679L222.902 472.585L222.993 472.493L223.082 472.404L223.169 472.317L223.254 472.233L223.336 472.151L223.415 472.072L223.415 472.072L223.493 471.993L223.571 471.915L223.65 471.837L223.728 471.759L223.806 471.68L223.884 471.602L223.963 471.524L224.041 471.446L224.119 471.368L224.197 471.289L224.276 471.211L224.354 471.133L224.432 471.055L224.51 470.976L224.589 470.898L224.667 470.82L224.745 470.742L224.823 470.663L224.902 470.585L224.98 470.507L225.058 470.429L225.136 470.35L225.215 470.272L225.293 470.194L225.371 470.116L225.449 470.037L225.527 469.959L225.606 469.881L225.684 469.803L225.762 469.724L225.84 469.646L225.919 469.568L225.919 469.568L225.997 469.491L226.075 469.416L226.153 469.344L226.232 469.275L226.31 469.207L226.388 469.143L226.466 469.08L226.545 469.02L226.623 468.963L226.701 468.908L226.779 468.855L226.858 468.805L226.936 468.757L227.014 468.712L227.092 468.669L227.171 468.629L227.249 468.591L227.327 468.556L227.405 468.523L227.484 468.492L227.562 468.464L227.64 468.438L227.718 468.415L227.796 468.394L227.875 468.376L227.953 468.36L228.031 468.347L228.109 468.336L228.188 468.327L228.266 468.321L228.344 468.317L228.422 468.316L228.422 468.316L228.501 468.316L228.581 468.316L228.663 468.316L228.745 468.316L228.829 468.316L228.914 468.316L229 468.316L229.087 468.316L229.176 468.316L229.266 468.316L229.357 468.316L229.449 468.316L229.543 468.316L229.638 468.316L229.734 468.316L229.831 468.316L229.929 468.316L230.029 468.316L230.13 468.316L230.232 468.316L230.335 468.316L230.44 468.316L230.545 468.316L230.652 468.316L230.76 468.316L230.87 468.316L230.98 468.316L231.092 468.316L231.205 468.316L231.32 468.316L231.435 468.316L231.552 468.316L231.552 468.316L231.669 468.316L231.787 468.316L231.904 468.316L232.021 468.316L232.139 468.316L232.256 468.316L232.374 468.316L232.491 468.316L232.608 468.316L232.726 468.316L232.843 468.316L232.96 468.316L233.078 468.316L233.195 468.316L233.312 468.316L233.43 468.316L233.547 468.316L233.665 468.316L233.782 468.316L233.899 468.316L234.017 468.316L234.134 468.316L234.251 468.316L234.369 468.316L234.486 468.316L234.603 468.316L234.721 468.316L234.838 468.316L234.955 468.316L235.073 468.316L235.19 468.316L235.308 468.316L235.308 468.316L235.421 468.318L235.528 468.323L235.627 468.333L235.718 468.345L235.803 468.362L235.88 468.382L235.949 468.406L236.012 468.433L236.067 468.465L236.114 468.5L236.155 468.538L236.188 468.58L236.213 468.626L236.232 468.676L236.243 468.729L236.246 468.786L236.243 468.846L236.232 468.91L236.213 468.978L236.188 469.05L236.155 469.125L236.114 469.204L236.067 469.286L236.012 469.372L235.949 469.462L235.88 469.556L235.803 469.653L235.718 469.754L235.627 469.858L235.528 469.967L235.421 470.078L235.308 470.194L235.308 470.194L235.188 470.313L235.066 470.436L234.939 470.562L234.809 470.693L234.675 470.827L234.537 470.964L234.396 471.105L234.251 471.25L234.103 471.399L233.951 471.551L233.795 471.707L233.635 471.866L233.472 472.03L233.305 472.196L233.135 472.367L232.96 472.541L232.782 472.719L232.601 472.901L232.416 473.086L232.227 473.275L232.034 473.467L231.838 473.663L231.638 473.863L231.435 474.067L231.227 474.274L231.017 474.485L230.802 474.699L230.584 474.918L230.362 475.14L230.136 475.365L229.907 475.594L229.674 475.827"/>
<path class="l5" d="M442.489 411.983L444.993 413.235L442.489 414.487L442.489 411.983"/>
<path class="l5" d="M443.741 427.005L446.244 427.005L446.244 429.509L443.741 429.509L443.741 427.005z"/>
<path class="l5" d="M423.711 411.983L426.215 411.983L426.215 414.487L423.711 414.487L423.711 411.983z"/>
<path class="l5" d="M443.741 396.961L446.244 396.961L446.244 399.464L443.741 399.464L443.741 396.961z"/>
<path class="l5" d="M444.953 413.196L445.032 413.196L445.032 413.274L444.953 413.274L444.953 413.196z"/>
<path class="l5" d="M443.741 346.887L446.244 346.887L446.244 349.39L443.741 349.39L443.741 346.887z"/>
<path class="l5" d="M518.852 396.961L521.356 396.961L521.356 399.464L518.852 399.464L518.852 396.961z"/>
<path class="l5" d="M518.852 427.005L521.356 427.005L521.356 429.509L518.852 429.509L518.852 427.005z"/>
<path class="l5" d="M488.807 386.946L491.311 386.946L491.311 389.45L488.807 389.45L488.807 386.946z"/>
<path class="l5" d="M488.807 356.901L491.311 356.901L491.311 359.405L488.807 359.405L488.807 356.901z"/>
<path class="l5" d="M388.659 356.901L391.163 356.901L391.163 359.405L388.659 359.405L388.659 356.901z"/>
<path class="l5" d="M388.659 386.946L391.163 386.946L391.163 389.45L388.659 389.45L388.659 386.946z"/>
<path class="l5" d="M388.659 346.887L391.163 346.887L391.163 349.39L388.659 349.39L388.659 346.887z"/>
<path class="l5" d="M488.807 346.887L491.311 346.887L491.311 349.39L488.807 349.39L488.807 346.887z"/>
<path class="l5" d="M518.852 346.887L521.356 346.887L521.356 349.39L518.852 349.39L518.852 346.887z"/>
<path class="l5" d="M409.315 412.609L410.567 412.609L410.567 413.861L409.315 413.861L409.315 412.609z"/>
<path class="l5" d="M479.418 447.661L480.67 447.661L480.67 448.912L479.418 448.912L479.418 447.661z"/>
<path class="l5" d="M479.418 412.609L480.67 412.609L480.67 413.861L479.418 413.861L479.418 412.609z"/>
<path class="l5" d="M568.926 361.909L571.43 361.909L571.43 364.413L568.926 364.413L568.926 361.909z"/>
<path class="l5" d="M568.926 391.953L571.43 391.953L571.43 394.457L568.926 394.457L568.926 391.953z"/>
<path class="l5" d="M568.926 346.887L571.43 346.887L571.43 349.39L568.926 349.39L568.926 346.887z"/>
<path class="l5" d="M569.552 412.609L570.804 412.609L570.804 413.861L569.552 413.861L569.552 412.609z"/>
<path class="l6" d="M347.348 483.338L745.437 483.338"/>
<path class="l6" d="M154.563 483.338L187.111 483.338"/>
<circle class="l15" cx="640.281" cy="343.131" r="0.938888" />
<circle class="l15" cx="640.281" cy="328.109" r="0.938888" />
<circle class="l15" cx="640.281" cy="358.153" r="0.938888" />
<circle class="l15" cx="640.281" cy="388.198" r="0.938888" />
<circle class="l15" cx="640.281" cy="373.175" r="0.938888" />
<circle class="l15" cx="640.281" cy="403.22" r="0.938888" />
<circle class="l15" cx="640.281" cy="418.242" r="0.938888" />
<circle class="l15" cx="640.281" cy="448.287" r="0.938888" />
<circle class="l15" cx="640.281" cy="433.264" r="0.938888" />
<path class="l1" d="M389.911 388.198L389.911 413.235"/>
<path class="l1" d="M389.911 413.235L424.963 413.235"/>
<path class="l1" d="M389.911 348.138L389.911 358.153"/>
<path class="l1" d="M444.993 348.138L444.993 398.212"/>
<path class="l1" d="M444.993 428.257L444.993 448.287"/>
<path class="l1" d="M444.993 448.287L520.104 448.287"/>
<path class="l1" d="M520.104 428.257L520.104 448.287"/>
<path class="l1" d="M520.104 348.138L520.104 398.212"/>
<path class="l1" d="M490.059 388.198L490.059 413.235"/>
<path class="l1" d="M444.993 413.235L490.059 413.235"/>
<path class="l1" d="M490.059 348.138L490.059 358.153"/>
<path class="l1" d="M570.178 348.138L570.178 363.161"/>
<path class="l1" d="M570.178 393.205L570.178 418.242"/>
</svg>
