<svg xmlns="http://www.w3.org/2000/svg" xmlns:xlink="http://www.w3.org/1999/xlink" width="1067" height="667" version="1.1">
<style type="text/css">
.l0{
  fill: #ffffff;
  stroke: #ffffff;
  stroke-linecap:round;
  stroke-linejoin:round;
  stroke-width: 0.894914;
}
.l1{
  fill: #0099cc;
  stroke: #0099cc;
  stroke-linecap:round;
  stroke-linejoin:round;
  stroke-width: 0.894914;
}
.l2{
  fill: #aaaaaa; fill-opacity: 0.2;
  stroke: #aaaaaa;
  stroke-linecap:round;
  stroke-linejoin:round;
  stroke-width: 0.894914;
}
.l3{
  fill: #222222; fill-opacity: 0.5;
  stroke: #222222;
  stroke-linecap:round;
  stroke-linejoin:round;
  stroke-width: 0.894914;
}
.l4{
  fill: #229900;
  stroke: #229900;
  stroke-linecap:round;
  stroke-linejoin:round;
  stroke-width: 0.894914;
}
.l5{
  fill: #bb2200;
  stroke: #bb2200;
  stroke-linecap:round;
  stroke-linejoin:round;
  stroke-width: 0.894914;
}
.l6{
  fill: #0066cc; fill-opacity: 0.5;
  stroke: #0066cc;
  stroke-linecap:round;
  stroke-linejoin:round;
  stroke-width: 0.894914;
}
.l7{
  fill: #ff0000; fill-opacity: 0.5;
  stroke: #ff0000;
  stroke-linecap:round;
  stroke-linejoin:round;
  stroke-width: 0.894914;
}
.l8{
  fill: #888800; fill-opacity: 0.5;
  stroke: #888800;
  stroke-linecap:round;
  stroke-linejoin:round;
  stroke-width: 0.894914;
}
.l9{
  fill: #00aaaa; fill-opacity: 0.5;
  stroke: #00aaaa;
  stroke-linecap:round;
  stroke-linejoin:round;
  stroke-width: 0.894914;
}
.l10{
  fill: #880088;
  stroke: #880088;
  stroke-linecap:round;
  stroke-linejoin:round;
  stroke-width: 0.894914;
}
.l11{
  fill: #00ff00; fill-opacity: 0.5;
  stroke: #00ff00;
  stroke-linecap:round;
  stroke-linejoin:round;
  stroke-width: 0.894914;
}
.l12{
  fill: #0000cc; fill-opacity: 0.5;
  stroke: #0000cc;
  stroke-linecap:round;
  stroke-linejoin:round;
  stroke-width: 0.894914;
}
.l13{
  fill: #666600; fill-opacity: 0.5;
  stroke: #666600;
  stroke-linecap:round;
  stroke-linejoin:round;
  stroke-width: 0.894914;
}
.l14{
  fill: #557755; fill-opacity: 0.2;
  stroke: #557755;
  stroke-linecap:round;
  stroke-linejoin:round;
  stroke-width: 0.894914;
}
.l15{
  fill: #aa2222; fill-opacity: 0.5;
  stroke: #aa2222;
  stroke-linecap:round;
  stroke-linejoin:round;
  stroke-width: 0.894914;
}
.l16{
  fill: #7ccc40; fill-opacity: 0.5;
  stroke: #7ccc40;
  stroke-linecap:round;
  stroke-linejoin:round;
  stroke-width: 0.894914;
}
.l17{
  fill: #00ffcc; fill-opacity: 0.2;
  stroke: #00ffcc;
  stroke-linecap:round;
  stroke-linejoin:round;
  stroke-width: 0.894914;
}
.l18{
  fill: #ce0097; fill-opacity: 0.5;
  stroke: #ce0097;
  stroke-linecap:round;
  stroke-linejoin:round;
  stroke-width: 0.894914;
}
.l19{
  fill: #d2d46b; fill-opacity: 0.2;
  stroke: #d2d46b;
  stroke-linecap:round;
  stroke-linejoin:round;
  stroke-width: 0.894914;
}
.l20{
  fill: #ef6158; fill-opacity: 0.2;
  stroke: #ef6158;
  stroke-linecap:round;
  stroke-linejoin:round;
  stroke-width: 0.894914;
}
.l21{
  fill: #fdb200; fill-opacity: 0.2;
  stroke: #fdb200;
  stroke-linecap:round;
  stroke-linejoin:round;
  stroke-width: 0.894914;
}
text {font-family: Sans-Serif;}
</style>
<rect class="l0" x="0" y="0" width="1067" height="667"/>
<path class="l4" d="M99.8967 580.099L146.3 580.099"/>
<path class="l4" d="M99.8967 580.099L99.8967 593.357"/>
<path class="l4" d="M99.8967 23.263L146.3 23.263"/>
<path class="l4" d="M99.8967 23.263L99.8967 36.521"/>
<path class="l4" d="M530.781 580.099L530.781 588.385"/>
<path class="l4" d="M527.467 588.385L534.096 588.385"/>
<path class="l4" d="M530.781 591.699L534.096 588.385"/>
<path class="l4" d="M527.467 588.385L530.781 591.699"/>
<path class="l4" d="M444.604 580.099L444.604 588.385"/>
<path class="l4" d="M441.29 588.385L447.919 588.385"/>
<path class="l4" d="M444.604 591.699L447.919 588.385"/>
<path class="l4" d="M441.29 588.385L444.604 591.699"/>
<path class="l4" d="M446.262 532.038L449.576 532.038"/>
<path class="l4" d="M447.919 530.381L447.919 533.696"/>
<path class="l4" d="M444.604 527.067L444.604 566.841"/>
<circle class="l4" cx="444.604" cy="546.954" r="9.94349" style="fill:none;" />
<path class="l4" d="M618.616 479.006L621.93 479.006"/>
<path class="l4" d="M620.273 477.349L620.273 480.664"/>
<path class="l4" d="M616.958 474.035L616.958 513.809"/>
<circle class="l4" cx="616.958" cy="493.922" r="9.94349" style="fill:none;" />
<path class="l4" d="M616.958 580.099L616.958 588.385"/>
<path class="l4" d="M613.644 588.385L620.273 588.385"/>
<path class="l4" d="M616.958 591.699L620.273 588.385"/>
<path class="l4" d="M613.644 588.385L616.958 591.699"/>
<path class="l4" d="M577.184 580.099L577.184 588.385"/>
<path class="l4" d="M573.87 588.385L580.499 588.385"/>
<path class="l4" d="M577.184 591.699L580.499 588.385"/>
<path class="l4" d="M573.87 588.385L577.184 591.699"/>
<path class="l4" d="M522.495 479.006L522.495 508.837"/>
<path class="l4" d="M530.781 474.035L530.781 482.321"/>
<path class="l4" d="M530.781 505.522L530.781 513.809"/>
<path class="l4" d="M519.181 483.978L519.181 503.865"/>
<path class="l4" d="M522.495 505.522L530.781 505.522"/>
<path class="l4" d="M522.495 482.321L530.781 482.321"/>
<path class="l4" d="M504.265 493.922L518.849 493.922"/>
<path class="l4" d="M527.467 507.18L530.781 505.522L527.467 503.865L527.467 507.18"/>
<path class="l4" d="M384.943 407.745L365.057 399.459L365.057 404.43L345.17 404.43L351.799 407.745L345.17 411.059L365.057 411.059L365.057 416.031L384.943 407.745"/>
<path class="l4" d="M384.943 434.261L365.057 425.974L365.057 430.946L345.17 430.946L351.799 434.261L345.17 437.575L365.057 437.575L365.057 442.547L384.943 434.261"/>
<path class="l4" d="M578.842 561.869L582.156 561.869"/>
<path class="l4" d="M580.499 560.212L580.499 563.526"/>
<path class="l4" d="M577.184 527.067L577.184 566.841"/>
<circle class="l4" cx="577.184" cy="546.954" r="9.94349" style="fill:none;" />
<path class="l4" d="M510.894 23.263L557.297 23.263"/>
<path class="l4" d="M510.894 23.263L510.894 36.521"/>
<path class="l4" d="M676.619 533.696L689.877 546.954"/>
<path class="l4" d="M663.361 546.954L676.619 533.696"/>
<path class="l4" d="M663.361 546.954L676.619 560.212"/>
<path class="l4" d="M676.619 560.212L689.877 546.954"/>
<path class="l4" d="M676.619 527.067L676.619 566.841"/>
<path class="l4" d="M683.248 533.696L689.877 533.696"/>
<path class="l4" d="M686.563 530.381L686.563 537.01"/>
<path class="l4" d="M676.619 580.099L676.619 588.385"/>
<path class="l4" d="M673.305 588.385L679.934 588.385"/>
<path class="l4" d="M676.619 591.699L679.934 588.385"/>
<path class="l4" d="M673.305 588.385L676.619 591.699"/>
<path class="l5" d="M529.124 578.441L532.439 578.441L532.439 581.756L529.124 581.756L529.124 578.441z"/>
<path class="l5" d="M442.947 578.441L446.262 578.441L446.262 581.756L442.947 581.756L442.947 578.441z"/>
<path class="l5" d="M442.947 525.409L446.262 525.409L446.262 528.724L442.947 528.724L442.947 525.409z"/>
<path class="l5" d="M442.947 565.183L446.262 565.183L446.262 568.498L442.947 568.498L442.947 565.183z"/>
<path class="l5" d="M615.301 472.377L618.616 472.377L618.616 475.692L615.301 475.692L615.301 472.377z"/>
<path class="l5" d="M615.301 512.151L618.616 512.151L618.616 515.466L615.301 515.466L615.301 512.151z"/>
<path class="l5" d="M615.301 578.441L618.616 578.441L618.616 581.756L615.301 581.756L615.301 578.441z"/>
<path class="l5" d="M575.527 578.441L578.842 578.441L578.842 581.756L575.527 581.756L575.527 578.441z"/>
<path class="l5" d="M199.332 623.187L199.124 623.394L198.917 623.601L198.71 623.809L198.503 624.016L198.296 624.223L198.089 624.43L197.882 624.637L197.674 624.844L197.467 625.052L197.26 625.259L197.053 625.466L196.846 625.673L196.639 625.88L196.431 626.087L196.224 626.294L196.017 626.502L195.81 626.709L195.603 626.916L195.396 627.123L195.188 627.33L194.981 627.537L194.774 627.745L194.567 627.952L194.36 628.159L194.153 628.366L193.946 628.573L193.738 628.78L193.531 628.987L193.324 629.195L193.117 629.402L192.91 629.609L192.703 629.816L192.703 629.816L192.502 630.023L192.314 630.23L192.139 630.438L191.978 630.645L191.829 630.852L191.693 631.059L191.57 631.266L191.46 631.473L191.363 631.681L191.278 631.888L191.207 632.095L191.149 632.302L191.104 632.509L191.071 632.716L191.052 632.923L191.045 633.131L191.052 633.338L191.071 633.545L191.104 633.752L191.149 633.959L191.207 634.166L191.278 634.374L191.363 634.581L191.46 634.788L191.57 634.995L191.693 635.202L191.829 635.409L191.978 635.616L192.139 635.824L192.314 636.031L192.502 636.238L192.703 636.445L192.703 636.445L192.911 636.653L193.12 636.863L193.331 637.074L193.544 637.287L193.759 637.501L193.975 637.717L194.192 637.935L194.412 638.154L194.633 638.375L194.855 638.598L195.079 638.822L195.305 639.048L195.532 639.275L195.761 639.504L195.992 639.735L196.224 639.967L196.458 640.201L196.694 640.436L196.931 640.673L197.169 640.912L197.41 641.152L197.652 641.394L197.895 641.638L198.14 641.883L198.387 642.13L198.636 642.378L198.886 642.628L199.137 642.88L199.391 643.133L199.646 643.388L199.902 643.645L200.16 643.903L200.16 643.903L200.418 644.16L200.672 644.414L200.923 644.665L201.17 644.913L201.414 645.157L201.656 645.398L201.894 645.636L202.128 645.871L202.36 646.102L202.588 646.33L202.813 646.555L203.035 646.777L203.253 646.996L203.468 647.211L203.68 647.423L203.889 647.632L204.095 647.837L204.297 648.039L204.496 648.238L204.692 648.434L204.884 648.627L205.074 648.816L205.26 649.002L205.443 649.185L205.622 649.365L205.799 649.541L205.972 649.714L206.142 649.884L206.309 650.051L206.472 650.215L206.632 650.375L206.789 650.532L206.789 650.532L206.94 650.685L207.081 650.833L207.212 650.976L207.333 651.114L207.445 651.248L207.547 651.377L207.639 651.5L207.721 651.619L207.794 651.733L207.857 651.843L207.911 651.947L207.954 652.047L207.988 652.141L208.013 652.231L208.027 652.316L208.032 652.396L208.027 652.471L208.013 652.542L207.988 652.607L207.954 652.668L207.911 652.724L207.857 652.775L207.794 652.821L207.721 652.862L207.639 652.899L207.547 652.93L207.445 652.957L207.333 652.979L207.212 652.996L207.081 653.008L206.94 653.015L206.789 653.018L206.789 653.018L206.634 653.018L206.478 653.018L206.323 653.018L206.168 653.018L206.012 653.018L205.857 653.018L205.702 653.018L205.546 653.018L205.391 653.018L205.236 653.018L205.08 653.018L204.925 653.018L204.769 653.018L204.614 653.018L204.459 653.018L204.303 653.018L204.148 653.018L203.993 653.018L203.837 653.018L203.682 653.018L203.527 653.018L203.371 653.018L203.216 653.018L203.06 653.018L202.905 653.018L202.75 653.018L202.594 653.018L202.439 653.018L202.284 653.018L202.128 653.018L201.973 653.018L201.817 653.018L201.817 653.018L201.663 653.018L201.51 653.018L201.359 653.018L201.209 653.018L201.061 653.018L200.914 653.018L200.77 653.018L200.626 653.018L200.485 653.018L200.345 653.018L200.206 653.018L200.07 653.018L199.934 653.018L199.801 653.018L199.669 653.018L199.539 653.018L199.41 653.018L199.283 653.018L199.158 653.018L199.034 653.018L198.912 653.018L198.791 653.018L198.672 653.018L198.555 653.018L198.439 653.018L198.325 653.018L198.212 653.018L198.102 653.018L197.992 653.018L197.885 653.018L197.779 653.018L197.674 653.018L197.674 653.018L197.571 653.016L197.467 653.011L197.364 653.003L197.26 652.992L197.156 652.977L197.053 652.959L196.949 652.938L196.846 652.914L196.742 652.887L196.639 652.856L196.535 652.822L196.431 652.785L196.328 652.744L196.224 652.7L196.121 652.653L196.017 652.603L195.914 652.55L195.81 652.493L195.706 652.433L195.603 652.37L195.499 652.304L195.396 652.234L195.292 652.161L195.188 652.085L195.085 652.006L194.981 651.924L194.878 651.838L194.774 651.749L194.671 651.657L194.567 651.561L194.463 651.462L194.36 651.36L194.36 651.36L194.256 651.257L194.153 651.153L194.049 651.05L193.946 650.946L193.842 650.842L193.738 650.739L193.635 650.635L193.531 650.532L193.428 650.428L193.324 650.325L193.221 650.221L193.117 650.117L193.013 650.014L192.91 649.91L192.806 649.807L192.703 649.703L192.599 649.6L192.495 649.496L192.392 649.392L192.288 649.289L192.185 649.185L192.081 649.082L191.978 648.978L191.874 648.874L191.77 648.771L191.667 648.667L191.563 648.564L191.46 648.46L191.356 648.357L191.253 648.253L191.149 648.149L191.045 648.046L191.045 648.046L190.94 647.941L190.832 647.832L190.72 647.721L190.605 647.606L190.487 647.488L190.366 647.366L190.241 647.242L190.113 647.114L189.982 646.983L189.848 646.848L189.71 646.711L189.569 646.57L189.425 646.426L189.278 646.279L189.128 646.128L188.974 645.974L188.817 645.817L188.657 645.657L188.493 645.494L188.326 645.327L188.157 645.157L187.983 644.984L187.807 644.807L187.627 644.628L187.444 644.445L187.258 644.259L187.069 644.069L186.876 643.877L186.681 643.681L186.481 643.482L186.279 643.28L186.074 643.074L186.074 643.074L185.866 642.873L185.659 642.686L185.452 642.511L185.245 642.349L185.038 642.2L184.831 642.064L184.624 641.941L184.416 641.831L184.209 641.734L184.002 641.65L183.795 641.579L183.588 641.52L183.381 641.475L183.173 641.443L182.966 641.423L182.759 641.417L182.552 641.423L182.345 641.443L182.138 641.475L181.93 641.52L181.723 641.579L181.516 641.65L181.309 641.734L181.102 641.831L180.895 641.941L180.688 642.064L180.48 642.2L180.273 642.349L180.066 642.511L179.859 642.686L179.652 642.873L179.445 643.074L179.445 643.074L179.239 643.28L179.037 643.482L178.838 643.681L178.642 643.877L178.449 644.069L178.26 644.259L178.074 644.445L177.891 644.628L177.711 644.807L177.535 644.984L177.362 645.157L177.192 645.327L177.025 645.494L176.862 645.657L176.701 645.817L176.544 645.974L176.391 646.128L176.24 646.279L176.093 646.426L175.949 646.57L175.808 646.711L175.67 646.848L175.536 646.983L175.405 647.114L175.277 647.242L175.153 647.366L175.031 647.488L174.913 647.606L174.798 647.721L174.687 647.832L174.578 647.941L174.473 648.046L174.473 648.046L174.369 648.149L174.266 648.253L174.162 648.357L174.059 648.46L173.955 648.564L173.851 648.667L173.748 648.771L173.644 648.874L173.541 648.978L173.437 649.082L173.334 649.185L173.23 649.289L173.126 649.392L173.023 649.496L172.919 649.6L172.816 649.703L172.712 649.807L172.608 649.91L172.505 650.014L172.401 650.117L172.298 650.221L172.194 650.325L172.091 650.428L171.987 650.532L171.883 650.635L171.78 650.739L171.676 650.842L171.573 650.946L171.469 651.05L171.366 651.153L171.262 651.257L171.158 651.36L171.158 651.36L171.055 651.462L170.951 651.561L170.848 651.657L170.744 651.749L170.64 651.838L170.537 651.924L170.433 652.006L170.33 652.085L170.226 652.161L170.123 652.234L170.019 652.304L169.915 652.37L169.812 652.433L169.708 652.493L169.605 652.55L169.501 652.603L169.398 652.653L169.294 652.7L169.19 652.744L169.087 652.785L168.983 652.822L168.88 652.856L168.776 652.887L168.673 652.914L168.569 652.938L168.465 652.959L168.362 652.977L168.258 652.992L168.155 653.003L168.051 653.011L167.947 653.016L167.844 653.018L167.844 653.018L167.739 653.018L167.633 653.018L167.526 653.018L167.417 653.018L167.306 653.018L167.193 653.018L167.079 653.018L166.963 653.018L166.846 653.018L166.727 653.018L166.607 653.018L166.484 653.018L166.361 653.018L166.235 653.018L166.108 653.018L165.979 653.018L165.849 653.018L165.717 653.018L165.584 653.018L165.449 653.018L165.312 653.018L165.174 653.018L165.034 653.018L164.892 653.018L164.749 653.018L164.604 653.018L164.457 653.018L164.309 653.018L164.16 653.018L164.008 653.018L163.855 653.018L163.701 653.018L163.701 653.018L163.545 653.018L163.39 653.018L163.235 653.018L163.079 653.018L162.924 653.018L162.769 653.018L162.613 653.018L162.458 653.018L162.302 653.018L162.147 653.018L161.992 653.018L161.836 653.018L161.681 653.018L161.526 653.018L161.37 653.018L161.215 653.018L161.06 653.018L160.904 653.018L160.749 653.018L160.593 653.018L160.438 653.018L160.283 653.018L160.127 653.018L159.972 653.018L159.817 653.018L159.661 653.018L159.506 653.018L159.35 653.018L159.195 653.018L159.04 653.018L158.884 653.018L158.729 653.018L158.729 653.018L158.578 653.015L158.438 653.008L158.307 652.996L158.185 652.979L158.074 652.957L157.972 652.93L157.879 652.899L157.797 652.862L157.724 652.821L157.661 652.775L157.607 652.724L157.564 652.668L157.53 652.607L157.505 652.542L157.491 652.471L157.486 652.396L157.491 652.316L157.505 652.231L157.53 652.141L157.564 652.047L157.607 651.947L157.661 651.843L157.724 651.733L157.797 651.619L157.879 651.5L157.972 651.377L158.074 651.248L158.185 651.114L158.307 650.976L158.438 650.833L158.578 650.685L158.729 650.532L158.729 650.532L158.886 650.375L159.046 650.215L159.21 650.051L159.376 649.884L159.546 649.714L159.719 649.541L159.896 649.365L160.076 649.185L160.258 649.002L160.445 648.816L160.634 648.627L160.826 648.434L161.022 648.238L161.221 648.039L161.424 647.837L161.629 647.632L161.838 647.423L162.05 647.211L162.265 646.996L162.484 646.777L162.705 646.555L162.93 646.33L163.159 646.102L163.39 645.871L163.625 645.636L163.863 645.398L164.104 645.157L164.348 644.913L164.596 644.665L164.847 644.414L165.101 644.16L165.358 643.903L165.358 643.903L165.616 643.645L165.873 643.388L166.128 643.133L166.381 642.88L166.633 642.628L166.883 642.378L167.131 642.13L167.378 641.883L167.623 641.638L167.867 641.394L168.108 641.152L168.349 640.912L168.588 640.673L168.825 640.436L169.06 640.201L169.294 639.967L169.526 639.735L169.757 639.504L169.986 639.275L170.213 639.048L170.439 638.822L170.663 638.598L170.886 638.375L171.107 638.154L171.326 637.935L171.544 637.717L171.76 637.501L171.974 637.287L172.187 637.074L172.398 636.863L172.608 636.653L172.816 636.445L172.816 636.445L173.016 636.238L173.204 636.031L173.379 635.824L173.541 635.616L173.69 635.409L173.826 635.202L173.949 634.995L174.059 634.788L174.156 634.581L174.24 634.374L174.311 634.166L174.369 633.959L174.415 633.752L174.447 633.545L174.466 633.338L174.473 633.131L174.466 632.923L174.447 632.716L174.415 632.509L174.369 632.302L174.311 632.095L174.24 631.888L174.156 631.681L174.059 631.473L173.949 631.266L173.826 631.059L173.69 630.852L173.541 630.645L173.379 630.438L173.204 630.23L173.016 630.023L172.816 629.816L172.816 629.816L172.608 629.608L172.398 629.399L172.187 629.187L171.974 628.975L171.76 628.76L171.544 628.544L171.326 628.326L171.107 628.107L170.886 627.886L170.663 627.664L170.439 627.439L170.213 627.214L169.986 626.986L169.757 626.757L169.526 626.527L169.294 626.294L169.06 626.061L168.825 625.825L168.588 625.588L168.349 625.349L168.108 625.109L167.867 624.867L167.623 624.623L167.378 624.378L167.131 624.131L166.883 623.883L166.633 623.633L166.381 623.381L166.128 623.128L165.873 622.873L165.616 622.617L165.358 622.358L165.358 622.358L165.101 622.101L164.847 621.847L164.596 621.596L164.348 621.349L164.104 621.104L163.863 620.863L163.625 620.625L163.39 620.391L163.159 620.159L162.93 619.931L162.705 619.706L162.484 619.484L162.265 619.266L162.05 619.05L161.838 618.838L161.629 618.63L161.424 618.424L161.221 618.222L161.022 618.023L160.826 617.827L160.634 617.634L160.445 617.445L160.258 617.259L160.076 617.076L159.896 616.896L159.719 616.72L159.546 616.547L159.376 616.377L159.21 616.21L159.046 616.047L158.886 615.886L158.729 615.73L158.729 615.73L158.578 615.577L158.438 615.428L158.307 615.285L158.185 615.147L158.074 615.013L157.972 614.885L157.879 614.761L157.797 614.642L157.724 614.528L157.661 614.419L157.607 614.314L157.564 614.215L157.53 614.12L157.505 614.03L157.491 613.945L157.486 613.865L157.491 613.79L157.505 613.719L157.53 613.654L157.564 613.593L157.607 613.537L157.661 613.486L157.724 613.44L157.797 613.399L157.879 613.363L157.972 613.331L158.074 613.304L158.185 613.282L158.307 613.265L158.438 613.253L158.578 613.246L158.729 613.244L158.729 613.244L158.884 613.244L159.04 613.244L159.195 613.244L159.35 613.244L159.506 613.244L159.661 613.244L159.817 613.244L159.972 613.244L160.127 613.244L160.283 613.244L160.438 613.244L160.593 613.244L160.749 613.244L160.904 613.244L161.06 613.244L161.215 613.244L161.37 613.244L161.526 613.244L161.681 613.244L161.836 613.244L161.992 613.244L162.147 613.244L162.302 613.244L162.458 613.244L162.613 613.244L162.769 613.244L162.924 613.244L163.079 613.244L163.235 613.244L163.39 613.244L163.545 613.244L163.701 613.244L163.701 613.244L163.855 613.244L164.008 613.244L164.16 613.244L164.309 613.244L164.457 613.244L164.604 613.244L164.749 613.244L164.892 613.244L165.034 613.244L165.174 613.244L165.312 613.244L165.449 613.244L165.584 613.244L165.717 613.244L165.849 613.244L165.979 613.244L166.108 613.244L166.235 613.244L166.361 613.244L166.484 613.244L166.607 613.244L166.727 613.244L166.846 613.244L166.963 613.244L167.079 613.244L167.193 613.244L167.306 613.244L167.417 613.244L167.526 613.244L167.633 613.244L167.739 613.244L167.844 613.244L167.844 613.244L167.947 613.245L168.051 613.25L168.155 613.258L168.258 613.27L168.362 613.284L168.465 613.302L168.569 613.323L168.673 613.347L168.776 613.375L168.88 613.405L168.983 613.439L169.087 613.477L169.19 613.517L169.294 613.561L169.398 613.608L169.501 613.658L169.605 613.711L169.708 613.768L169.812 613.828L169.915 613.891L170.019 613.957L170.123 614.027L170.226 614.1L170.33 614.176L170.433 614.255L170.537 614.338L170.64 614.423L170.744 614.512L170.848 614.605L170.951 614.7L171.055 614.799L171.158 614.901L171.158 614.901L171.262 615.004L171.366 615.108L171.469 615.212L171.573 615.315L171.676 615.419L171.78 615.522L171.883 615.626L171.987 615.73L172.091 615.833L172.194 615.937L172.298 616.04L172.401 616.144L172.505 616.247L172.608 616.351L172.712 616.455L172.816 616.558L172.919 616.662L173.023 616.765L173.126 616.869L173.23 616.972L173.334 617.076L173.437 617.18L173.541 617.283L173.644 617.387L173.748 617.49L173.851 617.594L173.955 617.697L174.059 617.801L174.162 617.905L174.266 618.008L174.369 618.112L174.473 618.215L174.473 618.215L174.578 618.321L174.687 618.429L174.798 618.541L174.913 618.656L175.031 618.774L175.153 618.895L175.277 619.02L175.405 619.148L175.536 619.279L175.67 619.413L175.808 619.551L175.949 619.691L176.093 619.835L176.24 619.983L176.391 620.133L176.544 620.287L176.701 620.444L176.862 620.604L177.025 620.768L177.192 620.934L177.362 621.104L177.535 621.277L177.711 621.454L177.891 621.633L178.074 621.816L178.26 622.002L178.449 622.192L178.642 622.384L178.838 622.58L179.037 622.779L179.239 622.982L179.445 623.187L179.445 623.187L179.652 623.388L179.859 623.576L180.066 623.75L180.273 623.912L180.48 624.061L180.688 624.197L180.895 624.32L181.102 624.43L181.309 624.527L181.516 624.611L181.723 624.683L181.93 624.741L182.138 624.786L182.345 624.818L182.552 624.838L182.759 624.844L182.966 624.838L183.173 624.818L183.381 624.786L183.588 624.741L183.795 624.683L184.002 624.611L184.209 624.527L184.416 624.43L184.624 624.32L184.831 624.197L185.038 624.061L185.245 623.912L185.452 623.75L185.659 623.576L185.866 623.388L186.074 623.187L186.074 623.187L186.279 622.982L186.481 622.779L186.681 622.58L186.876 622.384L187.069 622.192L187.258 622.002L187.444 621.816L187.627 621.633L187.807 621.454L187.983 621.277L188.157 621.104L188.326 620.934L188.493 620.768L188.657 620.604L188.817 620.444L188.974 620.287L189.128 620.133L189.278 619.983L189.425 619.835L189.569 619.691L189.71 619.551L189.848 619.413L189.982 619.279L190.113 619.148L190.241 619.02L190.366 618.895L190.487 618.774L190.605 618.656L190.72 618.541L190.832 618.429L190.94 618.321L191.045 618.215L191.045 618.215L191.149 618.112L191.253 618.008L191.356 617.905L191.46 617.801L191.563 617.697L191.667 617.594L191.77 617.49L191.874 617.387L191.978 617.283L192.081 617.18L192.185 617.076L192.288 616.972L192.392 616.869L192.495 616.765L192.599 616.662L192.703 616.558L192.806 616.455L192.91 616.351L193.013 616.247L193.117 616.144L193.221 616.04L193.324 615.937L193.428 615.833L193.531 615.73L193.635 615.626L193.738 615.522L193.842 615.419L193.946 615.315L194.049 615.212L194.153 615.108L194.256 615.004L194.36 614.901L194.36 614.901L194.463 614.799L194.567 614.7L194.671 614.605L194.774 614.512L194.878 614.423L194.981 614.338L195.085 614.255L195.188 614.176L195.292 614.1L195.396 614.027L195.499 613.957L195.603 613.891L195.706 613.828L195.81 613.768L195.914 613.711L196.017 613.658L196.121 613.608L196.224 613.561L196.328 613.517L196.431 613.477L196.535 613.439L196.639 613.405L196.742 613.375L196.846 613.347L196.949 613.323L197.053 613.302L197.156 613.284L197.26 613.27L197.364 613.258L197.467 613.25L197.571 613.245L197.674 613.244L197.674 613.244L197.779 613.244L197.885 613.244L197.992 613.244L198.102 613.244L198.212 613.244L198.325 613.244L198.439 613.244L198.555 613.244L198.672 613.244L198.791 613.244L198.912 613.244L199.034 613.244L199.158 613.244L199.283 613.244L199.41 613.244L199.539 613.244L199.669 613.244L199.801 613.244L199.934 613.244L200.07 613.244L200.206 613.244L200.345 613.244L200.485 613.244L200.626 613.244L200.77 613.244L200.914 613.244L201.061 613.244L201.209 613.244L201.359 613.244L201.51 613.244L201.663 613.244L201.817 613.244L201.817 613.244L201.973 613.244L202.128 613.244L202.284 613.244L202.439 613.244L202.594 613.244L202.75 613.244L202.905 613.244L203.06 613.244L203.216 613.244L203.371 613.244L203.527 613.244L203.682 613.244L203.837 613.244L203.993 613.244L204.148 613.244L204.303 613.244L204.459 613.244L204.614 613.244L204.769 613.244L204.925 613.244L205.08 613.244L205.236 613.244L205.391 613.244L205.546 613.244L205.702 613.244L205.857 613.244L206.012 613.244L206.168 613.244L206.323 613.244L206.478 613.244L206.634 613.244L206.789 613.244L206.789 613.244L206.94 613.246L207.081 613.253L207.212 613.265L207.333 613.282L207.445 613.304L207.547 613.331L207.639 613.363L207.721 613.399L207.794 613.44L207.857 613.486L207.911 613.537L207.954 613.593L207.988 613.654L208.013 613.719L208.027 613.79L208.032 613.865L208.027 613.945L208.013 614.03L207.988 614.12L207.954 614.215L207.911 614.314L207.857 614.419L207.794 614.528L207.721 614.642L207.639 614.761L207.547 614.885L207.445 615.013L207.333 615.147L207.212 615.285L207.081 615.428L206.94 615.577L206.789 615.73L206.789 615.73L206.631 615.887L206.469 616.05L206.301 616.217L206.129 616.39L205.952 616.567L205.77 616.749L205.583 616.936L205.391 617.128L205.194 617.324L204.993 617.526L204.786 617.732L204.575 617.943L204.359 618.16L204.138 618.38L203.913 618.606L203.682 618.837L203.446 619.072L203.206 619.313L202.961 619.558L202.711 619.808L202.456 620.063L202.196 620.323L201.932 620.587L201.662 620.857L201.388 621.131L201.109 621.41L200.825 621.694L200.536 621.983L200.242 622.277L199.943 622.575L199.64 622.879L199.332 623.187"/>
<path class="l5" d="M530.781 495.579L527.467 493.922L530.781 492.264L530.781 495.579"/>
<path class="l5" d="M529.124 472.377L532.439 472.377L532.439 475.692L529.124 475.692L529.124 472.377z"/>
<path class="l5" d="M502.608 492.264L505.923 492.264L505.923 495.579L502.608 495.579L502.608 492.264z"/>
<path class="l5" d="M529.124 512.151L532.439 512.151L532.439 515.466L529.124 515.466L529.124 512.151z"/>
<path class="l5" d="M530.73 493.87L530.833 493.87L530.833 493.973L530.73 493.973L530.73 493.87z"/>
<path class="l5" d="M575.527 565.183L578.842 565.183L578.842 568.498L575.527 568.498L575.527 565.183z"/>
<path class="l5" d="M575.527 525.409L578.842 525.409L578.842 528.724L575.527 528.724L575.527 525.409z"/>
<path class="l5" d="M443.776 493.093L445.433 493.093L445.433 494.75L443.776 494.75L443.776 493.093z"/>
<path class="l5" d="M529.953 420.174L531.61 420.174L531.61 421.831L529.953 421.831L529.953 420.174z"/>
<path class="l5" d="M576.356 493.093L578.013 493.093L578.013 494.75L576.356 494.75L576.356 493.093z"/>
<path class="l5" d="M674.962 525.409L678.277 525.409L678.277 528.724L674.962 528.724L674.962 525.409z"/>
<path class="l5" d="M674.962 565.183L678.277 565.183L678.277 568.498L674.962 568.498L674.962 565.183z"/>
<path class="l5" d="M674.962 578.441L678.277 578.441L678.277 581.756L674.962 581.756L674.962 578.441z"/>
<path class="l5" d="M675.791 506.351L677.448 506.351L677.448 508.008L675.791 508.008L675.791 506.351z"/>
<path class="l6" d="M355.113 633.131L882.118 633.131"/>
<path class="l6" d="M99.8967 633.131L142.985 633.131"/>
<circle class="l15" cx="776.054" cy="454.148" r="1.24294" />
<circle class="l15" cx="776.054" cy="434.261" r="1.24294" />
<circle class="l15" cx="776.054" cy="474.035" r="1.24294" />
<circle class="l15" cx="776.054" cy="513.809" r="1.24294" />
<circle class="l15" cx="776.054" cy="493.922" r="1.24294" />
<circle class="l15" cx="776.054" cy="533.696" r="1.24294" />
<circle class="l15" cx="776.054" cy="553.583" r="1.24294" />
<circle class="l15" cx="776.054" cy="593.357" r="1.24294" />
<circle class="l15" cx="776.054" cy="573.47" r="1.24294" />
<text fill="#222222"  xml:space="preserve" font-size="10.3412" transform="translate(103.211, 576.23)" >MODEL</text>
<text fill="#222222"  xml:space="preserve" font-size="10.3412" style="font-family:Monospace;" transform="translate(109.84, 592.803)" >.lib cornerMOSlv.lib mos_tt</text>
<text fill="#222222"  xml:space="preserve" font-size="10.3412" transform="translate(103.211, 19.3948)" >NGSPICE_CTRL</text>
<text fill="#222222"  xml:space="preserve" font-size="10.3412" style="font-family:Monospace;" transform="translate(109.84, 47.8287)" >.option sparse</text>
<text fill="#222222"  xml:space="preserve" font-size="10.3412" style="font-family:Monospace;" transform="translate(109.84, 59.6901)" >.temp 27</text>
<text fill="#222222"  xml:space="preserve" font-size="10.3412" style="font-family:Monospace;" transform="translate(109.84, 71.5515)" >.param wx=5u lx=0.13u vbx=0</text>
<text fill="#222222"  xml:space="preserve" font-size="10.3412" style="font-family:Monospace;" transform="translate(109.84, 83.4129)" >.noise v(n) vg lin 1 1 1 1</text>
<text fill="#222222"  xml:space="preserve" font-size="10.3412" style="font-family:Monospace;" transform="translate(109.84, 95.2743)" >.control</text>
<text fill="#222222"  xml:space="preserve" font-size="10.3412" style="font-family:Monospace;" transform="translate(109.84, 107.136)" >option numdgt=3</text>
<text fill="#222222"  xml:space="preserve" font-size="10.3412" style="font-family:Monospace;" transform="translate(109.84, 118.997)" >set wr_singlescale</text>
<text fill="#222222"  xml:space="preserve" font-size="10.3412" style="font-family:Monospace;" transform="translate(109.84, 130.858)" >set wr_vecnames</text>
<text fill="#222222"  xml:space="preserve" font-size="10.3412" style="font-family:Monospace;" transform="translate(109.84, 154.581)" >compose l_vec  values 0.13u 0.2u 0.3u 0.4u 0.5u 1u 5u 10u</text>
<text fill="#222222"  xml:space="preserve" font-size="10.3412" style="font-family:Monospace;" transform="translate(109.84, 166.443)" >compose vg_vec start= 0 stop=1.5  step=25m</text>
<text fill="#222222"  xml:space="preserve" font-size="10.3412" style="font-family:Monospace;" transform="translate(109.84, 178.304)" >compose vd_vec start= 0 stop=1.5  step=25m</text>
<text fill="#222222"  xml:space="preserve" font-size="10.3412" style="font-family:Monospace;" transform="translate(109.84, 190.165)" >compose vb_vec values 0 0.4 0.8 1.2</text>
<text fill="#222222"  xml:space="preserve" font-size="10.3412" style="font-family:Monospace;" transform="translate(109.84, 213.888)" >foreach var1 $&amp;l_vec</text>
<text fill="#222222"  xml:space="preserve" font-size="10.3412" style="font-family:Monospace;" transform="translate(109.84, 225.75)" >  alterparam lx=$var1</text>
<text fill="#222222"  xml:space="preserve" font-size="10.3412" style="font-family:Monospace;" transform="translate(109.84, 237.611)" >  reset</text>
<text fill="#222222"  xml:space="preserve" font-size="10.3412" style="font-family:Monospace;" transform="translate(109.84, 249.472)" >  foreach var2 $&amp;vg_vec</text>
<text fill="#222222"  xml:space="preserve" font-size="10.3412" style="font-family:Monospace;" transform="translate(109.84, 261.334)" >    alter vg $var2</text>
<text fill="#222222"  xml:space="preserve" font-size="10.3412" style="font-family:Monospace;" transform="translate(109.84, 273.195)" >    foreach var3 $&amp;vd_vec</text>
<text fill="#222222"  xml:space="preserve" font-size="10.3412" style="font-family:Monospace;" transform="translate(109.84, 285.057)" >      alter vd $var3</text>
<text fill="#222222"  xml:space="preserve" font-size="10.3412" style="font-family:Monospace;" transform="translate(109.84, 296.918)" >      foreach var4 $&amp;vb_vec</text>
<text fill="#222222"  xml:space="preserve" font-size="10.3412" style="font-family:Monospace;" transform="translate(109.84, 308.779)" >        alter vsb $var4</text>
<text fill="#222222"  xml:space="preserve" font-size="10.3412" style="font-family:Monospace;" transform="translate(109.84, 320.641)" >        run </text>
<text fill="#222222"  xml:space="preserve" font-size="10.3412" style="font-family:Monospace;" transform="translate(109.84, 332.502)" >        wrdata techsweep_sg13_lv_nmos.txt noise1.all</text>
<text fill="#222222"  xml:space="preserve" font-size="10.3412" style="font-family:Monospace;" transform="translate(109.84, 344.364)" >        destroy all</text>
<text fill="#222222"  xml:space="preserve" font-size="10.3412" style="font-family:Monospace;" transform="translate(109.84, 356.225)" >        set appendwrite</text>
<text fill="#222222"  xml:space="preserve" font-size="10.3412" style="font-family:Monospace;" transform="translate(109.84, 368.086)" >        unset set wr_vecnames</text>
<text fill="#222222"  xml:space="preserve" font-size="10.3412" style="font-family:Monospace;" transform="translate(109.84, 379.948)" >      end</text>
<text fill="#222222"  xml:space="preserve" font-size="10.3412" style="font-family:Monospace;" transform="translate(109.84, 391.809)" >    end</text>
<text fill="#222222"  xml:space="preserve" font-size="10.3412" style="font-family:Monospace;" transform="translate(109.84, 403.671)" >  end</text>
<text fill="#222222"  xml:space="preserve" font-size="10.3412" style="font-family:Monospace;" transform="translate(109.84, 415.532)" >end</text>
<text fill="#222222"  xml:space="preserve" font-size="10.3412" style="font-family:Monospace;" transform="translate(109.84, 439.255)" >set appendwrite=0</text>
<text fill="#222222"  xml:space="preserve" font-size="10.3412" style="font-family:Monospace;" transform="translate(109.84, 462.978)" >alterparam lx=0.13u</text>
<text fill="#222222"  xml:space="preserve" font-size="10.3412" style="font-family:Monospace;" transform="translate(109.84, 474.839)" >alterparam vbx=0</text>
<text fill="#222222"  xml:space="preserve" font-size="10.3412" style="font-family:Monospace;" transform="translate(109.84, 486.7)" >reset</text>
<text fill="#222222"  xml:space="preserve" font-size="10.3412" style="font-family:Monospace;" transform="translate(109.84, 498.562)" >op</text>
<text fill="#222222"  xml:space="preserve" font-size="10.3412" style="font-family:Monospace;" transform="translate(109.84, 510.423)" >*showmod</text>
<text fill="#222222"  xml:space="preserve" font-size="10.3412" style="font-family:Monospace;" transform="translate(109.84, 522.285)" >show</text>
<text fill="#222222"  xml:space="preserve" font-size="10.3412" style="font-family:Monospace;" transform="translate(109.84, 534.146)" >write techsweep_sg13g2_lv_nmos.raw</text>
<text fill="#222222"  xml:space="preserve" font-size="10.3412" style="font-family:Monospace;" transform="translate(109.84, 546.007)" >.endc</text>
<text fill="#0099cc"  xml:space="preserve" font-size="6.89416" transform="translate(535.753, 589.673)" >GND</text>
<text fill="#0099cc"  xml:space="preserve" font-size="6.89416" transform="translate(449.576, 589.673)" >GND</text>
<text fill="#222222"  xml:space="preserve" font-size="6.89416" transform="translate(457.862, 540.784)" >vg</text>
<text fill="#222222"  xml:space="preserve" font-size="6.89416" transform="translate(457.862, 557.357)" >0.65 AC 1</text>
<text fill="#222222"  xml:space="preserve" font-size="6.89416" transform="translate(630.216, 487.752)" >vd</text>
<text fill="#222222"  xml:space="preserve" font-size="6.89416" transform="translate(630.216, 504.325)" >0.75</text>
<text fill="#0099cc"  xml:space="preserve" font-size="6.89416" transform="translate(621.93, 589.673)" >GND</text>
<text fill="#0099cc"  xml:space="preserve" font-size="6.89416" transform="translate(582.156, 589.673)" >GND</text>
<text fill="#222222"  xml:space="preserve" font-size="13.7883" transform="translate(361.742, 648.965)" >         techsweep_sg13g2_lv_nmos.sch</text>
<text fill="#222222"  xml:space="preserve" font-size="13.7883" transform="translate(361.742, 629.078)" >(c) 2024-2025 Harald Pretl, Apache-2.0 license</text>
<text fill="#222222"  xml:space="preserve" font-size="13.7883" transform="translate(728.118, 629.078)" >2025-10-01  21:37:08</text>
<text fill="#222222"  xml:space="preserve" font-size="34.4708" transform="translate(209.275, 647.858)" >SCHEM</text>
<text fill="#222222"  xml:space="preserve" font-size="6.89416" transform="translate(510.838, 480.295)" >M1</text>
<text fill="#ff0000"  xml:space="preserve" font-size="5.17062" transform="translate(506.894, 491.988)" >G</text>
<text fill="#222222"  xml:space="preserve" font-size="6.89416" transform="translate(537.41, 512.99)" >sg13_lv_nmos</text>
<text fill="#666600"  xml:space="preserve" font-size="6.89416" transform="translate(538.239, 504.325)" >m=1</text>
<text fill="#666600"  xml:space="preserve" font-size="6.89416" transform="translate(538.239, 498.524)" >ng=1</text>
<text fill="#666600"  xml:space="preserve" font-size="6.89416" transform="translate(538.239, 490.238)" >l={lx}</text>
<text fill="#666600"  xml:space="preserve" font-size="6.89416" transform="translate(538.239, 482.78)" >w={wx}</text>
<text fill="#ff0000"  xml:space="preserve" font-size="5.17062" transform="translate(532.439, 510.217)" >S</text>
<text fill="#ff0000"  xml:space="preserve" font-size="5.17062" transform="translate(532.439, 481.085)" >D</text>
<text fill="#ff0000"  xml:space="preserve" font-size="5.17062" transform="translate(530.781, 491.988)" >B</text>
<text fill="#222222"  xml:space="preserve" font-size="13.7883" transform="translate(391.572, 412.265)" >simulate</text>
<text fill="#222222"  xml:space="preserve" font-size="13.7883" transform="translate(391.572, 438.781)" >annotate OP</text>
<text fill="#aa2222"  xml:space="preserve" font-size="6.89416" transform="translate(767.154, 450.711)" >? </text>
<text fill="#aa2222"  xml:space="preserve" font-size="6.89416" transform="translate(755.154, 442.425)" >gds=</text>
<text fill="#aa2222"  xml:space="preserve" font-size="6.89416" transform="translate(767.154, 430.824)" >? </text>
<text fill="#aa2222"  xml:space="preserve" font-size="6.89416" transform="translate(756.154, 422.538)" >gm=</text>
<text fill="#aa2222"  xml:space="preserve" font-size="6.89416" transform="translate(767.154, 470.598)" >? </text>
<text fill="#aa2222"  xml:space="preserve" font-size="6.89416" transform="translate(756.154, 462.312)" >vth=</text>
<text fill="#aa2222"  xml:space="preserve" font-size="6.89416" transform="translate(767.154, 510.372)" >? </text>
<text fill="#aa2222"  xml:space="preserve" font-size="6.89416" transform="translate(755.154, 502.086)" >cgs=</text>
<text fill="#aa2222"  xml:space="preserve" font-size="6.89416" transform="translate(767.154, 490.485)" >? </text>
<text fill="#aa2222"  xml:space="preserve" font-size="6.89416" transform="translate(719.154, 482.199)" >vdss(vds_sat)=</text>
<text fill="#aa2222"  xml:space="preserve" font-size="6.89416" transform="translate(767.154, 530.259)" >? </text>
<text fill="#aa2222"  xml:space="preserve" font-size="6.89416" transform="translate(743.154, 521.973)" >fug(f_t)=</text>
<text fill="#aa2222"  xml:space="preserve" font-size="6.89416" transform="translate(767.154, 550.146)" >? </text>
<text fill="#aa2222"  xml:space="preserve" font-size="6.89416" transform="translate(755.154, 541.86)" >cdg=</text>
<text fill="#aa2222"  xml:space="preserve" font-size="6.89416" transform="translate(767.154, 589.92)" >? </text>
<text fill="#aa2222"  xml:space="preserve" font-size="6.89416" transform="translate(757.154, 581.633)" >sid=</text>
<text fill="#aa2222"  xml:space="preserve" font-size="6.89416" transform="translate(767.154, 570.033)" >? </text>
<text fill="#aa2222"  xml:space="preserve" font-size="6.89416" transform="translate(760.154, 561.747)" >rg=</text>
<text fill="#222222"  xml:space="preserve" font-size="6.89416" transform="translate(590.442, 557.735)" >vsb</text>
<text fill="#222222"  xml:space="preserve" font-size="6.89416" transform="translate(590.442, 541.163)" >{vbx}</text>
<text fill="#0099cc"  xml:space="preserve" font-size="9.30711" transform="translate(436.947, 490.869)" >g</text>
<text fill="#0099cc"  xml:space="preserve" font-size="9.30711" transform="translate(523.124, 417.95)" >d</text>
<text fill="#0099cc"  xml:space="preserve" font-size="9.30711" transform="translate(578.842, 490.869)" >b</text>
<text fill="#222222"  xml:space="preserve" font-size="10.3412" transform="translate(514.209, 19.3948)" >NGSPICE_SAVE</text>
<text fill="#222222"  xml:space="preserve" font-size="10.3412" style="font-family:Monospace;" transform="translate(520.838, 47.8287)" >.save b d g n</text>
<text fill="#222222"  xml:space="preserve" font-size="10.3412" style="font-family:Monospace;" transform="translate(520.838, 59.6901)" >.save @n.xm1.nsg13_lv_nmos[cgsol]</text>
<text fill="#222222"  xml:space="preserve" font-size="10.3412" style="font-family:Monospace;" transform="translate(520.838, 71.5515)" >.save @n.xm1.nsg13_lv_nmos[cgdol]</text>
<text fill="#222222"  xml:space="preserve" font-size="10.3412" style="font-family:Monospace;" transform="translate(520.838, 83.4129)" >.save @n.xm1.nsg13_lv_nmos[cdd]</text>
<text fill="#222222"  xml:space="preserve" font-size="10.3412" style="font-family:Monospace;" transform="translate(520.838, 95.2743)" >.save @n.xm1.nsg13_lv_nmos[cgb]</text>
<text fill="#222222"  xml:space="preserve" font-size="10.3412" style="font-family:Monospace;" transform="translate(520.838, 107.136)" >.save @n.xm1.nsg13_lv_nmos[cgd]</text>
<text fill="#222222"  xml:space="preserve" font-size="10.3412" style="font-family:Monospace;" transform="translate(520.838, 118.997)" >.save @n.xm1.nsg13_lv_nmos[cgg]</text>
<text fill="#222222"  xml:space="preserve" font-size="10.3412" style="font-family:Monospace;" transform="translate(520.838, 130.858)" >.save @n.xm1.nsg13_lv_nmos[cgs]</text>
<text fill="#222222"  xml:space="preserve" font-size="10.3412" style="font-family:Monospace;" transform="translate(520.838, 142.72)" >.save @n.xm1.nsg13_lv_nmos[css]</text>
<text fill="#222222"  xml:space="preserve" font-size="10.3412" style="font-family:Monospace;" transform="translate(520.838, 154.581)" >.save @n.xm1.nsg13_lv_nmos[gds]</text>
<text fill="#222222"  xml:space="preserve" font-size="10.3412" style="font-family:Monospace;" transform="translate(520.838, 166.443)" >.save @n.xm1.nsg13_lv_nmos[gm]</text>
<text fill="#222222"  xml:space="preserve" font-size="10.3412" style="font-family:Monospace;" transform="translate(520.838, 178.304)" >.save @n.xm1.nsg13_lv_nmos[gmb]</text>
<text fill="#222222"  xml:space="preserve" font-size="10.3412" style="font-family:Monospace;" transform="translate(520.838, 190.165)" >.save @n.xm1.nsg13_lv_nmos[ids]</text>
<text fill="#222222"  xml:space="preserve" font-size="10.3412" style="font-family:Monospace;" transform="translate(520.838, 202.027)" >.save @n.xm1.nsg13_lv_nmos[l]</text>
<text fill="#222222"  xml:space="preserve" font-size="10.3412" style="font-family:Monospace;" transform="translate(520.838, 213.888)" >.save @n.xm1.nsg13_lv_nmos[vgs]</text>
<text fill="#222222"  xml:space="preserve" font-size="10.3412" style="font-family:Monospace;" transform="translate(520.838, 225.75)" >.save @n.xm1.nsg13_lv_nmos[vds]</text>
<text fill="#222222"  xml:space="preserve" font-size="10.3412" style="font-family:Monospace;" transform="translate(520.838, 237.611)" >.save @n.xm1.nsg13_lv_nmos[vsb]</text>
<text fill="#222222"  xml:space="preserve" font-size="10.3412" style="font-family:Monospace;" transform="translate(520.838, 249.472)" >.save @n.xm1.nsg13_lv_nmos[vth]</text>
<text fill="#222222"  xml:space="preserve" font-size="10.3412" style="font-family:Monospace;" transform="translate(520.838, 261.334)" >.save @n.xm1.nsg13_lv_nmos[vdss]</text>
<text fill="#222222"  xml:space="preserve" font-size="10.3412" style="font-family:Monospace;" transform="translate(520.838, 273.195)" >.save @n.xm1.nsg13_lv_nmos[fug]</text>
<text fill="#222222"  xml:space="preserve" font-size="10.3412" style="font-family:Monospace;" transform="translate(520.838, 285.057)" >.save @n.xm1.nsg13_lv_nmos[sid]</text>
<text fill="#222222"  xml:space="preserve" font-size="10.3412" style="font-family:Monospace;" transform="translate(520.838, 296.918)" >.save @n.xm1.nsg13_lv_nmos[sfl]</text>
<text fill="#222222"  xml:space="preserve" font-size="10.3412" style="font-family:Monospace;" transform="translate(520.838, 308.779)" >.save @n.xm1.nsg13_lv_nmos[cjd]</text>
<text fill="#222222"  xml:space="preserve" font-size="10.3412" style="font-family:Monospace;" transform="translate(520.838, 320.641)" >.save @n.xm1.nsg13_lv_nmos[cjs]</text>
<text fill="#222222"  xml:space="preserve" font-size="10.3412" style="font-family:Monospace;" transform="translate(520.838, 332.502)" >.save @n.xm1.nsg13_lv_nmos[rg]</text>
<text fill="#222222"  xml:space="preserve" font-size="6.89416" transform="translate(693.192, 559.843)" >1</text>
<text fill="#222222"  xml:space="preserve" font-size="6.89416" transform="translate(693.192, 543.27)" >H4</text>
<text fill="#222222"  xml:space="preserve" font-size="6.89416" transform="translate(693.192, 551.556)" >vd</text>
<text fill="#0099cc"  xml:space="preserve" font-size="6.89416" transform="translate(681.591, 589.673)" >GND</text>
<text fill="#0099cc"  xml:space="preserve" font-size="11.3754" transform="translate(664.648, 512.122)" >n</text>
<path class="l1" d="M530.781 513.809L530.781 580.099"/>
<path class="l1" d="M530.781 493.922L577.184 493.922"/>
<path class="l1" d="M530.781 421.003L616.958 421.003"/>
<path class="l1" d="M444.604 493.922L504.265 493.922"/>
<path class="l1" d="M530.781 421.003L530.781 474.035"/>
<path class="l1" d="M616.958 421.003L616.958 474.035"/>
<path class="l1" d="M577.184 566.841L577.184 580.099"/>
<path class="l1" d="M577.184 493.922L577.184 527.067"/>
<path class="l1" d="M616.958 513.809L616.958 580.099"/>
<path class="l1" d="M444.604 493.922L444.604 527.067"/>
<path class="l1" d="M444.604 566.841L444.604 580.099"/>
<path class="l1" d="M676.619 566.841L676.619 580.099"/>
<path class="l1" d="M676.619 500.551L676.619 527.067"/>
<text fill="#222222"  xml:space="preserve" font-size="13.7883" transform="translate(650.103, 645.65)" >Original implementation by (c) Boris Murmann</text>
</svg>
