<svg xmlns="http://www.w3.org/2000/svg" xmlns:xlink="http://www.w3.org/1999/xlink" width="900" height="506" version="1.1">
<style type="text/css">
.l0{
  fill: #ffffff;
  stroke: #ffffff;
  stroke-linecap:round;
  stroke-linejoin:round;
  stroke-width: 0.537612;
}
.l1{
  fill: #0044ee;
  stroke: #0044ee;
  stroke-linecap:round;
  stroke-linejoin:round;
  stroke-width: 0.537612;
}
.l2{
  fill: #aaaaaa; fill-opacity: 0.2;
  stroke: #aaaaaa;
  stroke-linecap:round;
  stroke-linejoin:round;
  stroke-width: 0.537612;
}
.l3{
  fill: #222222; fill-opacity: 0.5;
  stroke: #222222;
  stroke-linecap:round;
  stroke-linejoin:round;
  stroke-width: 0.537612;
}
.l4{
  fill: #229900;
  stroke: #229900;
  stroke-linecap:round;
  stroke-linejoin:round;
  stroke-width: 0.537612;
}
.l5{
  fill: #bb2200;
  stroke: #bb2200;
  stroke-linecap:round;
  stroke-linejoin:round;
  stroke-width: 0.537612;
}
.l6{
  fill: #00ccee; fill-opacity: 0.5;
  stroke: #00ccee;
  stroke-linecap:round;
  stroke-linejoin:round;
  stroke-width: 0.537612;
}
.l7{
  fill: #ff0000; fill-opacity: 0.5;
  stroke: #ff0000;
  stroke-linecap:round;
  stroke-linejoin:round;
  stroke-width: 0.537612;
}
.l8{
  fill: #888800; fill-opacity: 0.5;
  stroke: #888800;
  stroke-linecap:round;
  stroke-linejoin:round;
  stroke-width: 0.537612;
}
.l9{
  fill: #00aaaa; fill-opacity: 0.5;
  stroke: #00aaaa;
  stroke-linecap:round;
  stroke-linejoin:round;
  stroke-width: 0.537612;
}
.l10{
  fill: #880088;
  stroke: #880088;
  stroke-linecap:round;
  stroke-linejoin:round;
  stroke-width: 0.537612;
}
.l11{
  fill: #00ff00; fill-opacity: 0.5;
  stroke: #00ff00;
  stroke-linecap:round;
  stroke-linejoin:round;
  stroke-width: 0.537612;
}
.l12{
  fill: #0000cc; fill-opacity: 0.5;
  stroke: #0000cc;
  stroke-linecap:round;
  stroke-linejoin:round;
  stroke-width: 0.537612;
}
.l13{
  fill: #666600; fill-opacity: 0.5;
  stroke: #666600;
  stroke-linecap:round;
  stroke-linejoin:round;
  stroke-width: 0.537612;
}
.l14{
  fill: #557755; fill-opacity: 0.2;
  stroke: #557755;
  stroke-linecap:round;
  stroke-linejoin:round;
  stroke-width: 0.537612;
}
.l15{
  fill: #aa2222; fill-opacity: 0.5;
  stroke: #aa2222;
  stroke-linecap:round;
  stroke-linejoin:round;
  stroke-width: 0.537612;
}
.l16{
  fill: #7ccc40; fill-opacity: 0.5;
  stroke: #7ccc40;
  stroke-linecap:round;
  stroke-linejoin:round;
  stroke-width: 0.537612;
}
.l17{
  fill: #00ffcc; fill-opacity: 0.2;
  stroke: #00ffcc;
  stroke-linecap:round;
  stroke-linejoin:round;
  stroke-width: 0.537612;
}
.l18{
  fill: #ce0097; fill-opacity: 0.5;
  stroke: #ce0097;
  stroke-linecap:round;
  stroke-linejoin:round;
  stroke-width: 0.537612;
}
.l19{
  fill: #d2d46b; fill-opacity: 0.2;
  stroke: #d2d46b;
  stroke-linecap:round;
  stroke-linejoin:round;
  stroke-width: 0.537612;
}
.l20{
  fill: #ef6158; fill-opacity: 0.2;
  stroke: #ef6158;
  stroke-linecap:round;
  stroke-linejoin:round;
  stroke-width: 0.537612;
}
.l21{
  fill: #fdb200; fill-opacity: 0.2;
  stroke: #fdb200;
  stroke-linecap:round;
  stroke-linejoin:round;
  stroke-width: 0.537612;
}
text {font-family: Sans-Serif;}
</style>
<rect class="l0" x="0" y="0" width="900" height="506"/>
<text fill="#0044ee"  xml:space="preserve" font-size="5.17701" transform="translate(448.756, 342.36)" >GND</text>
<text fill="#0044ee"  xml:space="preserve" font-size="5.17701" transform="translate(393.999, 342.36)" >GND</text>
<text fill="#0044ee"  xml:space="preserve" font-size="5.17701" transform="translate(493.557, 342.36)" >GND</text>
<text fill="#0044ee"  xml:space="preserve" font-size="5.17701" transform="translate(523.424, 342.36)" >GND</text>
<text fill="#0044ee"  xml:space="preserve" font-size="6.98896" transform="translate(404.932, 408.507)" >g</text>
<text fill="#0044ee"  xml:space="preserve" font-size="6.98896" transform="translate(474.623, 443.352)" >d</text>
<text fill="#0044ee"  xml:space="preserve" font-size="6.98896" transform="translate(481.112, 408.507)" >b</text>
<text fill="#0044ee"  xml:space="preserve" font-size="5.17701" transform="translate(573.203, 342.36)" >GND</text>
<text fill="#0044ee"  xml:space="preserve" font-size="8.54206" transform="translate(560.736, 414.511)" >n</text>
<text fill="#222222"  xml:space="preserve" font-size="7.76551" transform="translate(158.793, 437.762)" >MODEL</text>
<text fill="#222222"  xml:space="preserve" font-size="7.76551" style="font-family:Monospace;" transform="translate(163.771, 450.206)" >.lib cornerMOSlv.lib mos_tt</text>
<text fill="#222222"  xml:space="preserve" font-size="10.354" transform="translate(352.931, 492.38)" >         techsweep_sg13g2_lv_pmos.sch</text>
<text fill="#222222"  xml:space="preserve" font-size="10.354" transform="translate(352.931, 477.446)" >(c) 2024 Harald Pretl (adapted from Boris Murmann)</text>
<text fill="#222222"  xml:space="preserve" font-size="10.354" transform="translate(625.696, 477.446)" >2024-08-27  18:49:49</text>
<text fill="#222222"  xml:space="preserve" font-size="25.885" transform="translate(238.44, 491.548)" >SCHEM</text>
<text fill="#222222"  xml:space="preserve" font-size="10.354" transform="translate(400.221, 289.753)" >simulate</text>
<text fill="#222222"  xml:space="preserve" font-size="10.354" transform="translate(400.221, 309.665)" >annotate OP</text>
<text fill="#aa2222"  xml:space="preserve" font-size="5.17701" transform="translate(631.982, 338.532)" >? </text>
<text fill="#aa2222"  xml:space="preserve" font-size="5.17701" transform="translate(623.982, 332.309)" >gds=</text>
<text fill="#aa2222"  xml:space="preserve" font-size="5.17701" transform="translate(631.982, 323.598)" >? </text>
<text fill="#aa2222"  xml:space="preserve" font-size="5.17701" transform="translate(624.982, 317.375)" >gm=</text>
<text fill="#aa2222"  xml:space="preserve" font-size="5.17701" transform="translate(631.982, 353.465)" >? </text>
<text fill="#aa2222"  xml:space="preserve" font-size="5.17701" transform="translate(624.982, 347.243)" >vth=</text>
<text fill="#aa2222"  xml:space="preserve" font-size="5.17701" transform="translate(631.982, 383.333)" >? </text>
<text fill="#aa2222"  xml:space="preserve" font-size="5.17701" transform="translate(623.982, 377.11)" >cgs=</text>
<text fill="#aa2222"  xml:space="preserve" font-size="5.17701" transform="translate(631.982, 368.399)" >? </text>
<text fill="#aa2222"  xml:space="preserve" font-size="5.17701" transform="translate(596.982, 362.176)" >vdss(vds_sat)=</text>
<text fill="#aa2222"  xml:space="preserve" font-size="5.17701" transform="translate(631.982, 398.266)" >? </text>
<text fill="#aa2222"  xml:space="preserve" font-size="5.17701" transform="translate(613.982, 392.044)" >fug(f_t)=</text>
<text fill="#aa2222"  xml:space="preserve" font-size="5.17701" transform="translate(631.982, 413.2)" >? </text>
<text fill="#aa2222"  xml:space="preserve" font-size="5.17701" transform="translate(623.982, 406.978)" >cdg=</text>
<text fill="#aa2222"  xml:space="preserve" font-size="5.17701" transform="translate(631.982, 443.067)" >? </text>
<text fill="#aa2222"  xml:space="preserve" font-size="5.17701" transform="translate(625.982, 436.845)" >sid=</text>
<text fill="#aa2222"  xml:space="preserve" font-size="5.17701" transform="translate(631.982, 428.134)" >? </text>
<text fill="#aa2222"  xml:space="preserve" font-size="5.17701" transform="translate(627.982, 421.911)" >rg=</text>
<text fill="#222222"  xml:space="preserve" font-size="7.76551" transform="translate(497.29, 14.6411)" >NGSPICE_SAVE</text>
<text fill="#222222"  xml:space="preserve" font-size="7.76551" style="font-family:Monospace;" transform="translate(502.268, 35.9928)" >.save b d g n</text>
<text fill="#222222"  xml:space="preserve" font-size="7.76551" style="font-family:Monospace;" transform="translate(502.268, 44.8999)" >.save @n.xm1.nsg13_lv_pmos[cgsol]</text>
<text fill="#222222"  xml:space="preserve" font-size="7.76551" style="font-family:Monospace;" transform="translate(502.268, 53.8069)" >.save @n.xm1.nsg13_lv_pmos[cgdol]</text>
<text fill="#222222"  xml:space="preserve" font-size="7.76551" style="font-family:Monospace;" transform="translate(502.268, 62.714)" >.save @n.xm1.nsg13_lv_pmos[cdd]</text>
<text fill="#222222"  xml:space="preserve" font-size="7.76551" style="font-family:Monospace;" transform="translate(502.268, 71.621)" >.save @n.xm1.nsg13_lv_pmos[cgb]</text>
<text fill="#222222"  xml:space="preserve" font-size="7.76551" style="font-family:Monospace;" transform="translate(502.268, 80.528)" >.save @n.xm1.nsg13_lv_pmos[cgd]</text>
<text fill="#222222"  xml:space="preserve" font-size="7.76551" style="font-family:Monospace;" transform="translate(502.268, 89.4351)" >.save @n.xm1.nsg13_lv_pmos[cgg]</text>
<text fill="#222222"  xml:space="preserve" font-size="7.76551" style="font-family:Monospace;" transform="translate(502.268, 98.3421)" >.save @n.xm1.nsg13_lv_pmos[cgs]</text>
<text fill="#222222"  xml:space="preserve" font-size="7.76551" style="font-family:Monospace;" transform="translate(502.268, 107.249)" >.save @n.xm1.nsg13_lv_pmos[css]</text>
<text fill="#222222"  xml:space="preserve" font-size="7.76551" style="font-family:Monospace;" transform="translate(502.268, 116.156)" >.save @n.xm1.nsg13_lv_pmos[gds]</text>
<text fill="#222222"  xml:space="preserve" font-size="7.76551" style="font-family:Monospace;" transform="translate(502.268, 125.063)" >.save @n.xm1.nsg13_lv_pmos[gm]</text>
<text fill="#222222"  xml:space="preserve" font-size="7.76551" style="font-family:Monospace;" transform="translate(502.268, 133.97)" >.save @n.xm1.nsg13_lv_pmos[gmb]</text>
<text fill="#222222"  xml:space="preserve" font-size="7.76551" style="font-family:Monospace;" transform="translate(502.268, 142.877)" >.save @n.xm1.nsg13_lv_pmos[ids]</text>
<text fill="#222222"  xml:space="preserve" font-size="7.76551" style="font-family:Monospace;" transform="translate(502.268, 151.784)" >.save @n.xm1.nsg13_lv_pmos[l]</text>
<text fill="#222222"  xml:space="preserve" font-size="7.76551" style="font-family:Monospace;" transform="translate(502.268, 160.691)" >.save @n.xm1.nsg13_lv_pmos[vgs]</text>
<text fill="#222222"  xml:space="preserve" font-size="7.76551" style="font-family:Monospace;" transform="translate(502.268, 169.598)" >.save @n.xm1.nsg13_lv_pmos[vds]</text>
<text fill="#222222"  xml:space="preserve" font-size="7.76551" style="font-family:Monospace;" transform="translate(502.268, 178.505)" >.save @n.xm1.nsg13_lv_pmos[vsb]</text>
<text fill="#222222"  xml:space="preserve" font-size="7.76551" style="font-family:Monospace;" transform="translate(502.268, 187.413)" >.save @n.xm1.nsg13_lv_pmos[vth]</text>
<text fill="#222222"  xml:space="preserve" font-size="7.76551" style="font-family:Monospace;" transform="translate(502.268, 196.32)" >.save @n.xm1.nsg13_lv_pmos[vdss]</text>
<text fill="#222222"  xml:space="preserve" font-size="7.76551" style="font-family:Monospace;" transform="translate(502.268, 205.227)" >.save @n.xm1.nsg13_lv_pmos[fug]</text>
<text fill="#222222"  xml:space="preserve" font-size="7.76551" style="font-family:Monospace;" transform="translate(502.268, 214.134)" >.save @n.xm1.nsg13_lv_pmos[sid]</text>
<text fill="#222222"  xml:space="preserve" font-size="7.76551" style="font-family:Monospace;" transform="translate(502.268, 223.041)" >.save @n.xm1.nsg13_lv_pmos[sfl]</text>
<text fill="#222222"  xml:space="preserve" font-size="7.76551" style="font-family:Monospace;" transform="translate(502.268, 231.948)" >.save @n.xm1.nsg13_lv_pmos[cjd]</text>
<text fill="#222222"  xml:space="preserve" font-size="7.76551" style="font-family:Monospace;" transform="translate(502.268, 240.855)" >.save @n.xm1.nsg13_lv_pmos[cjs]</text>
<text fill="#222222"  xml:space="preserve" font-size="7.76551" style="font-family:Monospace;" transform="translate(502.268, 249.762)" >.save @n.xm1.nsg13_lv_pmos[rg]</text>
<text fill="#222222"  xml:space="preserve" font-size="5.17701" transform="translate(430.555, 400.566)" >M1</text>
<text fill="#ff0000"  xml:space="preserve" font-size="3.88275" transform="translate(446.267, 423.036)" >D</text>
<text fill="#ff0000"  xml:space="preserve" font-size="3.88275" transform="translate(446.267, 401.16)" >S</text>
<text fill="#ff0000"  xml:space="preserve" font-size="3.88275" transform="translate(445.022, 409.347)" >B</text>
<text fill="#ff0000"  xml:space="preserve" font-size="3.88275" transform="translate(427.088, 409.347)" >G</text>
<text fill="#222222"  xml:space="preserve" font-size="5.17701" transform="translate(450, 425.118)" >sg13_lv_pmos</text>
<text fill="#666600"  xml:space="preserve" font-size="5.17701" transform="translate(450.622, 402.433)" >m=1</text>
<text fill="#666600"  xml:space="preserve" font-size="5.17701" transform="translate(450.622, 406.166)" >ng=1</text>
<text fill="#666600"  xml:space="preserve" font-size="5.17701" transform="translate(450.622, 411.144)" >l={lx}</text>
<text fill="#666600"  xml:space="preserve" font-size="5.17701" transform="translate(450.622, 416.122)" >w={wx}</text>
<text fill="#222222"  xml:space="preserve" font-size="5.17701" transform="translate(529.646, 406.166)" >vd</text>
<text fill="#222222"  xml:space="preserve" font-size="5.17701" transform="translate(529.646, 418.611)" >0.75</text>
<text fill="#222222"  xml:space="preserve" font-size="5.17701" transform="translate(499.779, 379.072)" >vsb</text>
<text fill="#222222"  xml:space="preserve" font-size="5.17701" transform="translate(499.779, 366.628)" >{vbx}</text>
<text fill="#222222"  xml:space="preserve" font-size="5.17701" transform="translate(400.221, 366.343)" >vg</text>
<text fill="#222222"  xml:space="preserve" font-size="5.17701" transform="translate(400.221, 378.788)" >0.65 AC 1</text>
<text fill="#222222"  xml:space="preserve" font-size="5.17701" transform="translate(581.914, 385.633)" >1</text>
<text fill="#222222"  xml:space="preserve" font-size="5.17701" transform="translate(581.914, 373.188)" >H1</text>
<text fill="#222222"  xml:space="preserve" font-size="5.17701" transform="translate(581.914, 379.41)" >vd</text>
<text fill="#222222"  xml:space="preserve" font-size="7.76551" transform="translate(158.793, 14.6411)" >NGSPICE_CTRL</text>
<text fill="#222222"  xml:space="preserve" font-size="7.76551" style="font-family:Monospace;" transform="translate(163.771, 35.9928)" >.option sparse</text>
<text fill="#222222"  xml:space="preserve" font-size="7.76551" style="font-family:Monospace;" transform="translate(163.771, 44.8999)" >.temp 27</text>
<text fill="#222222"  xml:space="preserve" font-size="7.76551" style="font-family:Monospace;" transform="translate(163.771, 53.8069)" >.param wx=5u lx=0.13u vbx=0</text>
<text fill="#222222"  xml:space="preserve" font-size="7.76551" style="font-family:Monospace;" transform="translate(163.771, 62.714)" >.noise v(n) vg lin 1 1 1 1</text>
<text fill="#222222"  xml:space="preserve" font-size="7.76551" style="font-family:Monospace;" transform="translate(163.771, 71.621)" >.control</text>
<text fill="#222222"  xml:space="preserve" font-size="7.76551" style="font-family:Monospace;" transform="translate(163.771, 80.528)" >option numdgt=3</text>
<text fill="#222222"  xml:space="preserve" font-size="7.76551" style="font-family:Monospace;" transform="translate(163.771, 89.4351)" >set wr_singlescale</text>
<text fill="#222222"  xml:space="preserve" font-size="7.76551" style="font-family:Monospace;" transform="translate(163.771, 98.3421)" >set wr_vecnames</text>
<text fill="#222222"  xml:space="preserve" font-size="7.76551" style="font-family:Monospace;" transform="translate(163.771, 116.156)" >compose l_vec  values 0.13u 0.2u 0.3u 0.4u 0.5u 1u 5u 10u</text>
<text fill="#222222"  xml:space="preserve" font-size="7.76551" style="font-family:Monospace;" transform="translate(163.771, 125.063)" >compose vg_vec start= 0 stop=1.5  step=25m</text>
<text fill="#222222"  xml:space="preserve" font-size="7.76551" style="font-family:Monospace;" transform="translate(163.771, 133.97)" >compose vd_vec start= 0 stop=1.5  step=25m</text>
<text fill="#222222"  xml:space="preserve" font-size="7.76551" style="font-family:Monospace;" transform="translate(163.771, 142.877)" >compose vb_vec values 0 0.4 0.8 1.2</text>
<text fill="#222222"  xml:space="preserve" font-size="7.76551" style="font-family:Monospace;" transform="translate(163.771, 160.691)" >foreach var1 $&amp;l_vec</text>
<text fill="#222222"  xml:space="preserve" font-size="7.76551" style="font-family:Monospace;" transform="translate(163.771, 169.598)" >  alterparam lx=$var1</text>
<text fill="#222222"  xml:space="preserve" font-size="7.76551" style="font-family:Monospace;" transform="translate(163.771, 178.505)" >  reset</text>
<text fill="#222222"  xml:space="preserve" font-size="7.76551" style="font-family:Monospace;" transform="translate(163.771, 187.413)" >  foreach var2 $&amp;vg_vec</text>
<text fill="#222222"  xml:space="preserve" font-size="7.76551" style="font-family:Monospace;" transform="translate(163.771, 196.32)" >    alter vg $var2</text>
<text fill="#222222"  xml:space="preserve" font-size="7.76551" style="font-family:Monospace;" transform="translate(163.771, 205.227)" >    foreach var3 $&amp;vd_vec</text>
<text fill="#222222"  xml:space="preserve" font-size="7.76551" style="font-family:Monospace;" transform="translate(163.771, 214.134)" >      alter vd $var3</text>
<text fill="#222222"  xml:space="preserve" font-size="7.76551" style="font-family:Monospace;" transform="translate(163.771, 223.041)" >      foreach var4 $&amp;vb_vec</text>
<text fill="#222222"  xml:space="preserve" font-size="7.76551" style="font-family:Monospace;" transform="translate(163.771, 231.948)" >        alter vsb $var4</text>
<text fill="#222222"  xml:space="preserve" font-size="7.76551" style="font-family:Monospace;" transform="translate(163.771, 240.855)" >        run </text>
<text fill="#222222"  xml:space="preserve" font-size="7.76551" style="font-family:Monospace;" transform="translate(163.771, 249.762)" >        wrdata techsweep_sg13_lv_pmos.txt noise1.all</text>
<text fill="#222222"  xml:space="preserve" font-size="7.76551" style="font-family:Monospace;" transform="translate(163.771, 258.669)" >        destroy all</text>
<text fill="#222222"  xml:space="preserve" font-size="7.76551" style="font-family:Monospace;" transform="translate(163.771, 267.576)" >        set appendwrite</text>
<text fill="#222222"  xml:space="preserve" font-size="7.76551" style="font-family:Monospace;" transform="translate(163.771, 276.483)" >        unset set wr_vecnames</text>
<text fill="#222222"  xml:space="preserve" font-size="7.76551" style="font-family:Monospace;" transform="translate(163.771, 285.39)" >      end</text>
<text fill="#222222"  xml:space="preserve" font-size="7.76551" style="font-family:Monospace;" transform="translate(163.771, 294.297)" >    end</text>
<text fill="#222222"  xml:space="preserve" font-size="7.76551" style="font-family:Monospace;" transform="translate(163.771, 303.204)" >  end</text>
<text fill="#222222"  xml:space="preserve" font-size="7.76551" style="font-family:Monospace;" transform="translate(163.771, 312.111)" >end</text>
<text fill="#222222"  xml:space="preserve" font-size="7.76551" style="font-family:Monospace;" transform="translate(163.771, 329.925)" >set appendwrite=0</text>
<text fill="#222222"  xml:space="preserve" font-size="7.76551" style="font-family:Monospace;" transform="translate(163.771, 347.739)" >alterparam lx=0.13u</text>
<text fill="#222222"  xml:space="preserve" font-size="7.76551" style="font-family:Monospace;" transform="translate(163.771, 356.646)" >alterparam vbx=0</text>
<text fill="#222222"  xml:space="preserve" font-size="7.76551" style="font-family:Monospace;" transform="translate(163.771, 365.553)" >reset</text>
<text fill="#222222"  xml:space="preserve" font-size="7.76551" style="font-family:Monospace;" transform="translate(163.771, 374.46)" >op</text>
<text fill="#222222"  xml:space="preserve" font-size="7.76551" style="font-family:Monospace;" transform="translate(163.771, 383.367)" >*showmod</text>
<text fill="#222222"  xml:space="preserve" font-size="7.76551" style="font-family:Monospace;" transform="translate(163.771, 392.274)" >show</text>
<text fill="#222222"  xml:space="preserve" font-size="7.76551" style="font-family:Monospace;" transform="translate(163.771, 401.181)" >write techsweep_sg13g2_lv_pmos.raw</text>
<text fill="#222222"  xml:space="preserve" font-size="7.76551" style="font-family:Monospace;" transform="translate(163.771, 410.088)" >.endc</text>
<path class="l4" d="M156.304 440.666L191.15 440.666"/>
<path class="l4" d="M156.304 440.666L156.304 450.622"/>
<path class="l4" d="M395.243 286.352L380.31 280.13L380.31 283.863L365.376 283.863L370.354 286.352L365.376 288.841L380.31 288.841L380.31 292.574L395.243 286.352"/>
<path class="l4" d="M395.243 306.263L380.31 300.041L380.31 303.774L365.376 303.774L370.354 306.263L365.376 308.752L380.31 308.752L380.31 312.486L395.243 306.263"/>
<path class="l4" d="M494.801 17.5458L529.646 17.5458"/>
<path class="l4" d="M494.801 17.5458L494.801 27.5016"/>
<path class="l4" d="M438.8 399.599L438.8 421.999"/>
<path class="l4" d="M445.022 395.865L445.022 402.088"/>
<path class="l4" d="M445.022 419.51L445.022 425.733"/>
<path class="l4" d="M436.311 403.332L436.311 418.266"/>
<path class="l4" d="M438.8 419.51L445.022 419.51"/>
<path class="l4" d="M438.8 402.088L445.022 402.088"/>
<path class="l4" d="M425.111 410.799L436.062 410.799"/>
<path class="l4" d="M441.289 400.843L438.8 402.088L441.289 403.332L441.289 400.843"/>
<path class="l4" d="M445.022 339.864L445.022 346.087"/>
<path class="l4" d="M442.533 339.864L447.511 339.864"/>
<path class="l4" d="M445.022 337.375L447.511 339.864"/>
<path class="l4" d="M442.533 339.864L445.022 337.375"/>
<path class="l4" d="M520.935 399.599L523.424 399.599"/>
<path class="l4" d="M522.179 398.354L522.179 400.843"/>
<path class="l4" d="M519.69 395.865L519.69 425.733"/>
<circle class="l4" cx="519.69" cy="410.799" r="7.46684" style="fill:none;" />
<path class="l4" d="M491.068 382.176L493.557 382.176"/>
<path class="l4" d="M492.312 380.932L492.312 383.421"/>
<path class="l4" d="M489.823 356.042L489.823 385.91"/>
<circle class="l4" cx="489.823" cy="370.976" r="7.46684" style="fill:none;" />
<path class="l4" d="M391.51 359.776L393.999 359.776"/>
<path class="l4" d="M392.754 358.531L392.754 361.02"/>
<path class="l4" d="M390.265 356.042L390.265 385.91"/>
<circle class="l4" cx="390.265" cy="370.976" r="7.46684" style="fill:none;" />
<path class="l4" d="M390.265 339.864L390.265 346.087"/>
<path class="l4" d="M387.776 339.864L392.754 339.864"/>
<path class="l4" d="M390.265 337.375L392.754 339.864"/>
<path class="l4" d="M387.776 339.864L390.265 337.375"/>
<path class="l4" d="M489.823 339.864L489.823 346.087"/>
<path class="l4" d="M487.334 339.864L492.312 339.864"/>
<path class="l4" d="M489.823 337.375L492.312 339.864"/>
<path class="l4" d="M487.334 339.864L489.823 337.375"/>
<path class="l4" d="M519.69 339.864L519.69 346.087"/>
<path class="l4" d="M517.202 339.864L522.179 339.864"/>
<path class="l4" d="M519.69 337.375L522.179 339.864"/>
<path class="l4" d="M517.202 339.864L519.69 337.375"/>
<path class="l4" d="M569.469 365.998L579.425 375.954"/>
<path class="l4" d="M559.514 375.954L569.469 365.998"/>
<path class="l4" d="M559.514 375.954L569.469 385.91"/>
<path class="l4" d="M569.469 385.91L579.425 375.954"/>
<path class="l4" d="M569.469 361.02L569.469 390.888"/>
<path class="l4" d="M574.447 365.998L579.425 365.998"/>
<path class="l4" d="M576.936 363.509L576.936 368.487"/>
<path class="l4" d="M569.469 339.864L569.469 346.087"/>
<path class="l4" d="M566.98 339.864L571.958 339.864"/>
<path class="l4" d="M569.469 337.375L571.958 339.864"/>
<path class="l4" d="M566.98 339.864L569.469 337.375"/>
<path class="l4" d="M156.304 17.5458L191.15 17.5458"/>
<path class="l4" d="M156.304 17.5458L156.304 27.5016"/>
<path class="l5" d="M230.973 473.023L230.817 473.178L230.662 473.334L230.506 473.489L230.351 473.645L230.195 473.801L230.039 473.956L229.884 474.112L229.728 474.267L229.573 474.423L229.417 474.578L229.262 474.734L229.106 474.889L228.951 475.045L228.795 475.201L228.639 475.356L228.484 475.512L228.328 475.667L228.173 475.823L228.017 475.978L227.862 476.134L227.706 476.289L227.551 476.445L227.395 476.601L227.239 476.756L227.084 476.912L226.928 477.067L226.773 477.223L226.617 477.378L226.462 477.534L226.306 477.69L226.15 477.845L225.995 478.001L225.995 478.001L225.844 478.156L225.703 478.312L225.572 478.467L225.45 478.623L225.339 478.778L225.237 478.934L225.144 479.09L225.062 479.245L224.989 479.401L224.925 479.556L224.872 479.712L224.828 479.867L224.794 480.023L224.77 480.178L224.755 480.334L224.75 480.49L224.755 480.645L224.77 480.801L224.794 480.956L224.828 481.112L224.872 481.267L224.925 481.423L224.989 481.579L225.062 481.734L225.144 481.89L225.237 482.045L225.339 482.201L225.45 482.356L225.572 482.512L225.703 482.667L225.844 482.823L225.995 482.979L225.995 482.979L226.151 483.135L226.308 483.292L226.467 483.451L226.627 483.61L226.788 483.772L226.95 483.934L227.114 484.097L227.278 484.262L227.444 484.428L227.611 484.595L227.78 484.763L227.949 484.933L228.12 485.104L228.292 485.275L228.465 485.449L228.639 485.623L228.815 485.799L228.992 485.975L229.17 486.154L229.349 486.333L229.53 486.513L229.711 486.695L229.894 486.878L230.078 487.062L230.264 487.247L230.45 487.434L230.638 487.622L230.827 487.811L231.017 488.001L231.209 488.192L231.401 488.385L231.595 488.579L231.595 488.579L231.788 488.772L231.979 488.963L232.167 489.151L232.353 489.337L232.537 489.521L232.718 489.702L232.897 489.88L233.073 490.056L233.247 490.23L233.418 490.402L233.587 490.571L233.753 490.737L233.918 490.901L234.079 491.063L234.238 491.222L234.395 491.379L234.549 491.533L234.701 491.685L234.851 491.834L234.998 491.982L235.143 492.126L235.285 492.268L235.424 492.408L235.562 492.545L235.697 492.68L235.829 492.813L235.959 492.943L236.087 493.07L236.212 493.196L236.335 493.318L236.455 493.439L236.573 493.557L236.573 493.557L236.686 493.671L236.792 493.783L236.89 493.89L236.981 493.994L237.065 494.094L237.142 494.191L237.211 494.284L237.273 494.373L237.328 494.459L237.375 494.541L237.415 494.619L237.448 494.694L237.473 494.765L237.492 494.833L237.503 494.896L237.506 494.957L237.503 495.013L237.492 495.066L237.473 495.115L237.448 495.161L237.415 495.203L237.375 495.241L237.328 495.276L237.273 495.307L237.211 495.334L237.142 495.358L237.065 495.378L236.981 495.394L236.89 495.407L236.792 495.416L236.686 495.421L236.573 495.423L236.573 495.423L236.456 495.423L236.34 495.423L236.223 495.423L236.106 495.423L235.99 495.423L235.873 495.423L235.756 495.423L235.64 495.423L235.523 495.423L235.406 495.423L235.29 495.423L235.173 495.423L235.056 495.423L234.94 495.423L234.823 495.423L234.706 495.423L234.59 495.423L234.473 495.423L234.356 495.423L234.24 495.423L234.123 495.423L234.006 495.423L233.89 495.423L233.773 495.423L233.656 495.423L233.54 495.423L233.423 495.423L233.306 495.423L233.19 495.423L233.073 495.423L232.956 495.423L232.84 495.423L232.84 495.423L232.723 495.423L232.609 495.423L232.495 495.423L232.383 495.423L232.271 495.423L232.161 495.423L232.053 495.423L231.945 495.423L231.839 495.423L231.734 495.423L231.63 495.423L231.527 495.423L231.426 495.423L231.325 495.423L231.226 495.423L231.128 495.423L231.032 495.423L230.936 495.423L230.842 495.423L230.749 495.423L230.657 495.423L230.567 495.423L230.478 495.423L230.389 495.423L230.303 495.423L230.217 495.423L230.132 495.423L230.049 495.423L229.967 495.423L229.886 495.423L229.807 495.423L229.728 495.423L229.728 495.423L229.651 495.422L229.573 495.418L229.495 495.412L229.417 495.404L229.339 495.393L229.262 495.38L229.184 495.364L229.106 495.345L229.028 495.325L228.951 495.302L228.873 495.276L228.795 495.248L228.717 495.218L228.639 495.185L228.562 495.15L228.484 495.112L228.406 495.072L228.328 495.03L228.251 494.985L228.173 494.937L228.095 494.887L228.017 494.835L227.939 494.78L227.862 494.723L227.784 494.664L227.706 494.602L227.628 494.537L227.551 494.47L227.473 494.401L227.395 494.329L227.317 494.255L227.239 494.179L227.239 494.179L227.162 494.101L227.084 494.023L227.006 493.945L226.928 493.868L226.851 493.79L226.773 493.712L226.695 493.634L226.617 493.557L226.539 493.479L226.462 493.401L226.384 493.323L226.306 493.245L226.228 493.168L226.15 493.09L226.073 493.012L225.995 492.934L225.917 492.857L225.839 492.779L225.762 492.701L225.684 492.623L225.606 492.545L225.528 492.468L225.45 492.39L225.373 492.312L225.295 492.234L225.217 492.157L225.139 492.079L225.062 492.001L224.984 491.923L224.906 491.845L224.828 491.768L224.75 491.69L224.75 491.69L224.671 491.611L224.59 491.529L224.506 491.446L224.42 491.359L224.331 491.271L224.24 491.179L224.146 491.086L224.05 490.99L223.952 490.891L223.851 490.791L223.748 490.687L223.642 490.581L223.534 490.473L223.423 490.363L223.31 490.25L223.195 490.134L223.077 490.016L222.957 489.896L222.834 489.773L222.709 489.648L222.581 489.521L222.451 489.39L222.319 489.258L222.184 489.123L222.046 488.986L221.907 488.846L221.764 488.704L221.62 488.559L221.473 488.412L221.323 488.263L221.171 488.111L221.017 487.956L221.017 487.956L220.861 487.806L220.706 487.665L220.55 487.534L220.395 487.412L220.239 487.3L220.084 487.198L219.928 487.106L219.773 487.023L219.617 486.95L219.461 486.887L219.306 486.833L219.15 486.79L218.995 486.756L218.839 486.731L218.684 486.717L218.528 486.712L218.373 486.717L218.217 486.731L218.061 486.756L217.906 486.79L217.75 486.833L217.595 486.887L217.439 486.95L217.284 487.023L217.128 487.106L216.973 487.198L216.817 487.3L216.661 487.412L216.506 487.534L216.35 487.665L216.195 487.806L216.039 487.956L216.039 487.956L215.885 488.111L215.733 488.263L215.583 488.412L215.436 488.559L215.292 488.704L215.15 488.846L215.01 488.986L214.872 489.123L214.738 489.258L214.605 489.39L214.475 489.521L214.347 489.648L214.222 489.773L214.1 489.896L213.979 490.016L213.861 490.134L213.746 490.25L213.633 490.363L213.522 490.473L213.414 490.581L213.308 490.687L213.205 490.791L213.104 490.891L213.006 490.99L212.91 491.086L212.816 491.179L212.725 491.271L212.636 491.359L212.55 491.446L212.466 491.529L212.385 491.611L212.306 491.69L212.306 491.69L212.228 491.768L212.15 491.845L212.072 491.923L211.995 492.001L211.917 492.079L211.839 492.157L211.761 492.234L211.683 492.312L211.606 492.39L211.528 492.468L211.45 492.545L211.372 492.623L211.295 492.701L211.217 492.779L211.139 492.857L211.061 492.934L210.983 493.012L210.906 493.09L210.828 493.168L210.75 493.245L210.672 493.323L210.595 493.401L210.517 493.479L210.439 493.557L210.361 493.634L210.283 493.712L210.206 493.79L210.128 493.868L210.05 493.945L209.972 494.023L209.895 494.101L209.817 494.179L209.817 494.179L209.739 494.255L209.661 494.329L209.583 494.401L209.506 494.47L209.428 494.537L209.35 494.602L209.272 494.664L209.195 494.723L209.117 494.78L209.039 494.835L208.961 494.887L208.883 494.937L208.806 494.985L208.728 495.03L208.65 495.072L208.572 495.112L208.495 495.15L208.417 495.185L208.339 495.218L208.261 495.248L208.183 495.276L208.106 495.302L208.028 495.325L207.95 495.345L207.872 495.364L207.795 495.38L207.717 495.393L207.639 495.404L207.561 495.412L207.483 495.418L207.406 495.422L207.328 495.423L207.328 495.423L207.249 495.423L207.17 495.423L207.089 495.423L207.007 495.423L206.924 495.423L206.839 495.423L206.754 495.423L206.667 495.423L206.579 495.423L206.489 495.423L206.399 495.423L206.307 495.423L206.214 495.423L206.12 495.423L206.024 495.423L205.928 495.423L205.83 495.423L205.731 495.423L205.631 495.423L205.529 495.423L205.426 495.423L205.323 495.423L205.217 495.423L205.111 495.423L205.004 495.423L204.895 495.423L204.785 495.423L204.674 495.423L204.561 495.423L204.448 495.423L204.333 495.423L204.217 495.423L204.217 495.423L204.1 495.423L203.983 495.423L203.867 495.423L203.75 495.423L203.633 495.423L203.517 495.423L203.4 495.423L203.283 495.423L203.167 495.423L203.05 495.423L202.933 495.423L202.817 495.423L202.7 495.423L202.583 495.423L202.467 495.423L202.35 495.423L202.233 495.423L202.117 495.423L202 495.423L201.883 495.423L201.767 495.423L201.65 495.423L201.533 495.423L201.417 495.423L201.3 495.423L201.183 495.423L201.067 495.423L200.95 495.423L200.833 495.423L200.717 495.423L200.6 495.423L200.483 495.423L200.483 495.423L200.37 495.421L200.264 495.416L200.166 495.407L200.075 495.394L199.991 495.378L199.914 495.358L199.845 495.334L199.783 495.307L199.729 495.276L199.681 495.241L199.641 495.203L199.608 495.161L199.583 495.115L199.564 495.066L199.554 495.013L199.55 494.957L199.554 494.896L199.564 494.833L199.583 494.765L199.608 494.694L199.641 494.619L199.681 494.541L199.729 494.459L199.783 494.373L199.845 494.284L199.914 494.191L199.991 494.094L200.075 493.994L200.166 493.89L200.264 493.783L200.37 493.671L200.483 493.557L200.483 493.557L200.601 493.439L200.721 493.318L200.844 493.196L200.969 493.07L201.097 492.943L201.227 492.813L201.359 492.68L201.494 492.545L201.632 492.408L201.771 492.268L201.914 492.126L202.058 491.982L202.205 491.834L202.355 491.685L202.507 491.533L202.661 491.379L202.818 491.222L202.977 491.063L203.139 490.901L203.303 490.737L203.469 490.571L203.638 490.402L203.81 490.23L203.983 490.056L204.16 489.88L204.338 489.702L204.519 489.521L204.703 489.337L204.889 489.151L205.077 488.963L205.268 488.772L205.461 488.579L205.461 488.579L205.655 488.385L205.848 488.192L206.039 488.001L206.229 487.811L206.418 487.622L206.606 487.434L206.792 487.247L206.978 487.062L207.162 486.878L207.345 486.695L207.527 486.513L207.707 486.333L207.886 486.154L208.064 485.975L208.241 485.799L208.417 485.623L208.591 485.449L208.764 485.275L208.936 485.104L209.107 484.933L209.277 484.763L209.445 484.595L209.612 484.428L209.778 484.262L209.943 484.097L210.106 483.934L210.268 483.772L210.429 483.61L210.589 483.451L210.748 483.292L210.905 483.135L211.061 482.979L211.061 482.979L211.212 482.823L211.353 482.667L211.484 482.512L211.606 482.356L211.718 482.201L211.82 482.045L211.912 481.89L211.995 481.734L212.068 481.579L212.131 481.423L212.184 481.267L212.228 481.112L212.262 480.956L212.286 480.801L212.301 480.645L212.306 480.49L212.301 480.334L212.286 480.178L212.262 480.023L212.228 479.867L212.184 479.712L212.131 479.556L212.068 479.401L211.995 479.245L211.912 479.09L211.82 478.934L211.718 478.778L211.606 478.623L211.484 478.467L211.353 478.312L211.212 478.156L211.061 478.001L211.061 478.001L210.905 477.844L210.748 477.687L210.589 477.529L210.429 477.369L210.268 477.208L210.106 477.045L209.943 476.882L209.778 476.717L209.612 476.551L209.445 476.384L209.277 476.216L209.107 476.046L208.936 475.876L208.764 475.704L208.591 475.531L208.417 475.356L208.241 475.181L208.064 475.004L207.886 474.826L207.707 474.646L207.527 474.466L207.345 474.284L207.162 474.101L206.978 473.917L206.792 473.732L206.606 473.545L206.418 473.358L206.229 473.169L206.039 472.978L205.848 472.787L205.655 472.594L205.461 472.401L205.461 472.401L205.268 472.207L205.077 472.016L204.889 471.828L204.703 471.642L204.519 471.459L204.338 471.278L204.16 471.099L203.983 470.923L203.81 470.749L203.638 470.578L203.469 470.409L203.303 470.242L203.139 470.078L202.977 469.916L202.818 469.757L202.661 469.6L202.507 469.446L202.355 469.294L202.205 469.145L202.058 468.998L201.914 468.853L201.771 468.711L201.632 468.571L201.494 468.434L201.359 468.299L201.227 468.166L201.097 468.036L200.969 467.909L200.844 467.784L200.721 467.661L200.601 467.541L200.483 467.423L200.483 467.423L200.37 467.308L200.264 467.197L200.166 467.089L200.075 466.985L199.991 466.885L199.914 466.788L199.845 466.695L199.783 466.606L199.729 466.52L199.681 466.438L199.641 466.36L199.608 466.285L199.583 466.214L199.564 466.147L199.554 466.083L199.55 466.023L199.554 465.966L199.564 465.913L199.583 465.864L199.608 465.818L199.641 465.777L199.681 465.738L199.729 465.704L199.783 465.673L199.845 465.645L199.914 465.622L199.991 465.601L200.075 465.585L200.166 465.572L200.264 465.563L200.37 465.558L200.483 465.556L200.483 465.556L200.6 465.556L200.717 465.556L200.833 465.556L200.95 465.556L201.067 465.556L201.183 465.556L201.3 465.556L201.417 465.556L201.533 465.556L201.65 465.556L201.767 465.556L201.883 465.556L202 465.556L202.117 465.556L202.233 465.556L202.35 465.556L202.467 465.556L202.583 465.556L202.7 465.556L202.817 465.556L202.933 465.556L203.05 465.556L203.167 465.556L203.283 465.556L203.4 465.556L203.517 465.556L203.633 465.556L203.75 465.556L203.867 465.556L203.983 465.556L204.1 465.556L204.217 465.556L204.217 465.556L204.333 465.556L204.448 465.556L204.561 465.556L204.674 465.556L204.785 465.556L204.895 465.556L205.004 465.556L205.111 465.556L205.217 465.556L205.323 465.556L205.426 465.556L205.529 465.556L205.631 465.556L205.731 465.556L205.83 465.556L205.928 465.556L206.024 465.556L206.12 465.556L206.214 465.556L206.307 465.556L206.399 465.556L206.489 465.556L206.579 465.556L206.667 465.556L206.754 465.556L206.839 465.556L206.924 465.556L207.007 465.556L207.089 465.556L207.17 465.556L207.249 465.556L207.328 465.556L207.328 465.556L207.406 465.557L207.483 465.561L207.561 465.567L207.639 465.575L207.717 465.586L207.795 465.6L207.872 465.615L207.95 465.634L208.028 465.654L208.106 465.677L208.183 465.703L208.261 465.731L208.339 465.761L208.417 465.794L208.495 465.829L208.572 465.867L208.65 465.907L208.728 465.95L208.806 465.995L208.883 466.042L208.961 466.092L209.039 466.144L209.117 466.199L209.195 466.256L209.272 466.315L209.35 466.377L209.428 466.442L209.506 466.509L209.583 466.578L209.661 466.65L209.739 466.724L209.817 466.8L209.817 466.8L209.895 466.878L209.972 466.956L210.05 467.034L210.128 467.112L210.206 467.189L210.283 467.267L210.361 467.345L210.439 467.423L210.517 467.5L210.595 467.578L210.672 467.656L210.75 467.734L210.828 467.812L210.906 467.889L210.983 467.967L211.061 468.045L211.139 468.123L211.217 468.2L211.295 468.278L211.372 468.356L211.45 468.434L211.528 468.512L211.606 468.589L211.683 468.667L211.761 468.745L211.839 468.823L211.917 468.9L211.995 468.978L212.072 469.056L212.15 469.134L212.228 469.212L212.306 469.289L212.306 469.289L212.385 469.368L212.466 469.45L212.55 469.534L212.636 469.62L212.725 469.709L212.816 469.8L212.91 469.893L213.006 469.989L213.104 470.088L213.205 470.189L213.308 470.292L213.414 470.398L213.522 470.506L213.633 470.616L213.746 470.729L213.861 470.845L213.979 470.963L214.1 471.083L214.222 471.206L214.347 471.331L214.475 471.459L214.605 471.589L214.738 471.721L214.872 471.856L215.01 471.993L215.15 472.133L215.292 472.275L215.436 472.42L215.583 472.567L215.733 472.717L215.885 472.868L216.039 473.023L216.039 473.023L216.195 473.173L216.35 473.314L216.506 473.446L216.661 473.567L216.817 473.679L216.973 473.781L217.128 473.873L217.284 473.956L217.439 474.029L217.595 474.092L217.75 474.146L217.906 474.189L218.061 474.223L218.217 474.248L218.373 474.262L218.528 474.267L218.684 474.262L218.839 474.248L218.995 474.223L219.15 474.189L219.306 474.146L219.461 474.092L219.617 474.029L219.773 473.956L219.928 473.873L220.084 473.781L220.239 473.679L220.395 473.567L220.55 473.446L220.706 473.314L220.861 473.173L221.017 473.023L221.017 473.023L221.171 472.868L221.323 472.717L221.473 472.567L221.62 472.42L221.764 472.275L221.907 472.133L222.046 471.993L222.184 471.856L222.319 471.721L222.451 471.589L222.581 471.459L222.709 471.331L222.834 471.206L222.957 471.083L223.077 470.963L223.195 470.845L223.31 470.729L223.423 470.616L223.534 470.506L223.642 470.398L223.748 470.292L223.851 470.189L223.952 470.088L224.05 469.989L224.146 469.893L224.24 469.8L224.331 469.709L224.42 469.62L224.506 469.534L224.59 469.45L224.671 469.368L224.75 469.289L224.75 469.289L224.828 469.212L224.906 469.134L224.984 469.056L225.062 468.978L225.139 468.9L225.217 468.823L225.295 468.745L225.373 468.667L225.45 468.589L225.528 468.512L225.606 468.434L225.684 468.356L225.762 468.278L225.839 468.2L225.917 468.123L225.995 468.045L226.073 467.967L226.15 467.889L226.228 467.812L226.306 467.734L226.384 467.656L226.462 467.578L226.539 467.5L226.617 467.423L226.695 467.345L226.773 467.267L226.851 467.189L226.928 467.112L227.006 467.034L227.084 466.956L227.162 466.878L227.239 466.8L227.239 466.8L227.317 466.724L227.395 466.65L227.473 466.578L227.551 466.509L227.628 466.442L227.706 466.377L227.784 466.315L227.862 466.256L227.939 466.199L228.017 466.144L228.095 466.092L228.173 466.042L228.251 465.995L228.328 465.95L228.406 465.907L228.484 465.867L228.562 465.829L228.639 465.794L228.717 465.761L228.795 465.731L228.873 465.703L228.951 465.677L229.028 465.654L229.106 465.634L229.184 465.615L229.262 465.6L229.339 465.586L229.417 465.575L229.495 465.567L229.573 465.561L229.651 465.557L229.728 465.556L229.728 465.556L229.807 465.556L229.886 465.556L229.967 465.556L230.049 465.556L230.132 465.556L230.217 465.556L230.303 465.556L230.389 465.556L230.478 465.556L230.567 465.556L230.657 465.556L230.749 465.556L230.842 465.556L230.936 465.556L231.032 465.556L231.128 465.556L231.226 465.556L231.325 465.556L231.426 465.556L231.527 465.556L231.63 465.556L231.734 465.556L231.839 465.556L231.945 465.556L232.053 465.556L232.161 465.556L232.271 465.556L232.383 465.556L232.495 465.556L232.609 465.556L232.723 465.556L232.84 465.556L232.84 465.556L232.956 465.556L233.073 465.556L233.19 465.556L233.306 465.556L233.423 465.556L233.54 465.556L233.656 465.556L233.773 465.556L233.89 465.556L234.006 465.556L234.123 465.556L234.24 465.556L234.356 465.556L234.473 465.556L234.59 465.556L234.706 465.556L234.823 465.556L234.94 465.556L235.056 465.556L235.173 465.556L235.29 465.556L235.406 465.556L235.523 465.556L235.64 465.556L235.756 465.556L235.873 465.556L235.99 465.556L236.106 465.556L236.223 465.556L236.34 465.556L236.456 465.556L236.573 465.556L236.573 465.556L236.686 465.558L236.792 465.563L236.89 465.572L236.981 465.585L237.065 465.601L237.142 465.622L237.211 465.645L237.273 465.673L237.328 465.704L237.375 465.738L237.415 465.777L237.448 465.818L237.473 465.864L237.492 465.913L237.503 465.966L237.506 466.023L237.503 466.083L237.492 466.147L237.473 466.214L237.448 466.285L237.415 466.36L237.375 466.438L237.328 466.52L237.273 466.606L237.211 466.695L237.142 466.788L237.065 466.885L236.981 466.985L236.89 467.089L236.792 467.197L236.686 467.308L236.573 467.423L236.573 467.423L236.454 467.541L236.332 467.663L236.207 467.789L236.077 467.918L235.944 468.052L235.807 468.188L235.667 468.329L235.523 468.473L235.375 468.62L235.224 468.772L235.069 468.927L234.91 469.085L234.748 469.247L234.582 469.413L234.413 469.583L234.24 469.756L234.063 469.933L233.882 470.113L233.698 470.297L233.51 470.485L233.319 470.677L233.124 470.872L232.925 471.07L232.723 471.273L232.517 471.479L232.307 471.688L232.094 471.902L231.877 472.119L231.656 472.339L231.432 472.563L231.204 472.791L230.973 473.023"/>
<path class="l5" d="M442.533 409.555L445.022 410.799L442.533 412.044L442.533 409.555"/>
<path class="l5" d="M443.778 424.488L446.267 424.488L446.267 426.977L443.778 426.977L443.778 424.488z"/>
<path class="l5" d="M423.866 409.555L426.355 409.555L426.355 412.044L423.866 412.044L423.866 409.555z"/>
<path class="l5" d="M443.778 394.621L446.267 394.621L446.267 397.11L443.778 397.11L443.778 394.621z"/>
<path class="l5" d="M444.983 410.76L445.061 410.76L445.061 410.838L444.983 410.838L444.983 410.76z"/>
<path class="l5" d="M443.778 344.842L446.267 344.842L446.267 347.331L443.778 347.331L443.778 344.842z"/>
<path class="l5" d="M518.446 394.621L520.935 394.621L520.935 397.11L518.446 397.11L518.446 394.621z"/>
<path class="l5" d="M518.446 424.488L520.935 424.488L520.935 426.977L518.446 426.977L518.446 424.488z"/>
<path class="l5" d="M488.579 384.665L491.068 384.665L491.068 387.154L488.579 387.154L488.579 384.665z"/>
<path class="l5" d="M488.579 354.798L491.068 354.798L491.068 357.287L488.579 357.287L488.579 354.798z"/>
<path class="l5" d="M389.021 354.798L391.51 354.798L391.51 357.287L389.021 357.287L389.021 354.798z"/>
<path class="l5" d="M389.021 384.665L391.51 384.665L391.51 387.154L389.021 387.154L389.021 384.665z"/>
<path class="l5" d="M389.021 344.842L391.51 344.842L391.51 347.331L389.021 347.331L389.021 344.842z"/>
<path class="l5" d="M488.579 344.842L491.068 344.842L491.068 347.331L488.579 347.331L488.579 344.842z"/>
<path class="l5" d="M518.446 344.842L520.935 344.842L520.935 347.331L518.446 347.331L518.446 344.842z"/>
<path class="l5" d="M409.555 410.177L410.799 410.177L410.799 411.421L409.555 411.421L409.555 410.177z"/>
<path class="l5" d="M479.245 445.022L480.49 445.022L480.49 446.267L479.245 446.267L479.245 445.022z"/>
<path class="l5" d="M479.245 410.177L480.49 410.177L480.49 411.421L479.245 411.421L479.245 410.177z"/>
<path class="l5" d="M568.225 359.776L570.714 359.776L570.714 362.265L568.225 362.265L568.225 359.776z"/>
<path class="l5" d="M568.225 389.643L570.714 389.643L570.714 392.132L568.225 392.132L568.225 389.643z"/>
<path class="l5" d="M568.225 344.842L570.714 344.842L570.714 347.331L568.225 347.331L568.225 344.842z"/>
<path class="l5" d="M568.847 410.177L570.092 410.177L570.092 411.421L568.847 411.421L568.847 410.177z"/>
<path class="l6" d="M347.953 480.49L743.696 480.49"/>
<path class="l6" d="M156.304 480.49L188.661 480.49"/>
<circle class="l15" cx="639.16" cy="341.109" r="0.933354" />
<circle class="l15" cx="639.16" cy="326.175" r="0.933354" />
<circle class="l15" cx="639.16" cy="356.042" r="0.933354" />
<circle class="l15" cx="639.16" cy="385.91" r="0.933354" />
<circle class="l15" cx="639.16" cy="370.976" r="0.933354" />
<circle class="l15" cx="639.16" cy="400.843" r="0.933354" />
<circle class="l15" cx="639.16" cy="415.777" r="0.933354" />
<circle class="l15" cx="639.16" cy="445.644" r="0.933354" />
<circle class="l15" cx="639.16" cy="430.711" r="0.933354" />
<path class="l1" d="M390.265 385.91L390.265 410.799"/>
<path class="l1" d="M390.265 410.799L425.111 410.799"/>
<path class="l1" d="M390.265 346.087L390.265 356.042"/>
<path class="l1" d="M445.022 346.087L445.022 395.865"/>
<path class="l1" d="M445.022 425.733L445.022 445.644"/>
<path class="l1" d="M445.022 445.644L519.69 445.644"/>
<path class="l1" d="M519.69 425.733L519.69 445.644"/>
<path class="l1" d="M519.69 346.087L519.69 395.865"/>
<path class="l1" d="M489.823 385.91L489.823 410.799"/>
<path class="l1" d="M445.022 410.799L489.823 410.799"/>
<path class="l1" d="M489.823 346.087L489.823 356.042"/>
<path class="l1" d="M569.469 346.087L569.469 361.02"/>
<path class="l1" d="M569.469 390.888L569.469 415.777"/>
</svg>
