<svg xmlns="http://www.w3.org/2000/svg" xmlns:xlink="http://www.w3.org/1999/xlink" width="1066" height="666" version="1.1">
<style type="text/css">
.l0{
  fill: #ffffff;
  stroke: #ffffff;
  stroke-linecap:round;
  stroke-linejoin:round;
  stroke-width: 0.893573;
}
.l1{
  fill: #0099cc;
  stroke: #0099cc;
  stroke-linecap:round;
  stroke-linejoin:round;
  stroke-width: 0.893573;
}
.l2{
  fill: #aaaaaa; fill-opacity: 0.2;
  stroke: #aaaaaa;
  stroke-linecap:round;
  stroke-linejoin:round;
  stroke-width: 0.893573;
}
.l3{
  fill: #222222; fill-opacity: 0.5;
  stroke: #222222;
  stroke-linecap:round;
  stroke-linejoin:round;
  stroke-width: 0.893573;
}
.l4{
  fill: #229900;
  stroke: #229900;
  stroke-linecap:round;
  stroke-linejoin:round;
  stroke-width: 0.893573;
}
.l5{
  fill: #bb2200;
  stroke: #bb2200;
  stroke-linecap:round;
  stroke-linejoin:round;
  stroke-width: 0.893573;
}
.l6{
  fill: #0066cc; fill-opacity: 0.5;
  stroke: #0066cc;
  stroke-linecap:round;
  stroke-linejoin:round;
  stroke-width: 0.893573;
}
.l7{
  fill: #ff0000; fill-opacity: 0.5;
  stroke: #ff0000;
  stroke-linecap:round;
  stroke-linejoin:round;
  stroke-width: 0.893573;
}
.l8{
  fill: #888800; fill-opacity: 0.5;
  stroke: #888800;
  stroke-linecap:round;
  stroke-linejoin:round;
  stroke-width: 0.893573;
}
.l9{
  fill: #00aaaa; fill-opacity: 0.5;
  stroke: #00aaaa;
  stroke-linecap:round;
  stroke-linejoin:round;
  stroke-width: 0.893573;
}
.l10{
  fill: #880088;
  stroke: #880088;
  stroke-linecap:round;
  stroke-linejoin:round;
  stroke-width: 0.893573;
}
.l11{
  fill: #00ff00; fill-opacity: 0.5;
  stroke: #00ff00;
  stroke-linecap:round;
  stroke-linejoin:round;
  stroke-width: 0.893573;
}
.l12{
  fill: #0000cc; fill-opacity: 0.5;
  stroke: #0000cc;
  stroke-linecap:round;
  stroke-linejoin:round;
  stroke-width: 0.893573;
}
.l13{
  fill: #666600; fill-opacity: 0.5;
  stroke: #666600;
  stroke-linecap:round;
  stroke-linejoin:round;
  stroke-width: 0.893573;
}
.l14{
  fill: #557755; fill-opacity: 0.2;
  stroke: #557755;
  stroke-linecap:round;
  stroke-linejoin:round;
  stroke-width: 0.893573;
}
.l15{
  fill: #aa2222; fill-opacity: 0.5;
  stroke: #aa2222;
  stroke-linecap:round;
  stroke-linejoin:round;
  stroke-width: 0.893573;
}
.l16{
  fill: #7ccc40; fill-opacity: 0.5;
  stroke: #7ccc40;
  stroke-linecap:round;
  stroke-linejoin:round;
  stroke-width: 0.893573;
}
.l17{
  fill: #00ffcc; fill-opacity: 0.2;
  stroke: #00ffcc;
  stroke-linecap:round;
  stroke-linejoin:round;
  stroke-width: 0.893573;
}
.l18{
  fill: #ce0097; fill-opacity: 0.5;
  stroke: #ce0097;
  stroke-linecap:round;
  stroke-linejoin:round;
  stroke-width: 0.893573;
}
.l19{
  fill: #d2d46b; fill-opacity: 0.2;
  stroke: #d2d46b;
  stroke-linecap:round;
  stroke-linejoin:round;
  stroke-width: 0.893573;
}
.l20{
  fill: #ef6158; fill-opacity: 0.2;
  stroke: #ef6158;
  stroke-linecap:round;
  stroke-linejoin:round;
  stroke-width: 0.893573;
}
.l21{
  fill: #fdb200; fill-opacity: 0.2;
  stroke: #fdb200;
  stroke-linecap:round;
  stroke-linejoin:round;
  stroke-width: 0.893573;
}
text {font-family: Sans-Serif;}
</style>
<rect class="l0" x="0" y="0" width="1066" height="666"/>
<path class="l4" d="M99.8091 579.229L146.143 579.229"/>
<path class="l4" d="M99.8091 579.229L99.8091 592.467"/>
<path class="l4" d="M99.8091 23.2281L146.143 23.2281"/>
<path class="l4" d="M99.8091 23.2281L99.8091 36.4662"/>
<path class="l4" d="M530.048 579.229L530.048 587.503"/>
<path class="l4" d="M526.738 587.503L533.357 587.503"/>
<path class="l4" d="M530.048 590.812L533.357 587.503"/>
<path class="l4" d="M526.738 587.503L530.048 590.812"/>
<path class="l4" d="M444 579.229L444 587.503"/>
<path class="l4" d="M440.691 587.503L447.31 587.503"/>
<path class="l4" d="M444 590.812L447.31 587.503"/>
<path class="l4" d="M440.691 587.503L444 590.812"/>
<path class="l4" d="M445.655 531.241L448.964 531.241"/>
<path class="l4" d="M447.31 529.586L447.31 532.896"/>
<path class="l4" d="M444 526.276L444 565.991"/>
<circle class="l4" cx="444" cy="546.134" r="9.92859" style="fill:none;" />
<path class="l4" d="M617.75 478.288L621.06 478.288"/>
<path class="l4" d="M619.405 476.634L619.405 479.943"/>
<path class="l4" d="M616.096 473.324L616.096 513.038"/>
<circle class="l4" cx="616.096" cy="493.181" r="9.92859" style="fill:none;" />
<path class="l4" d="M616.096 579.229L616.096 587.503"/>
<path class="l4" d="M612.786 587.503L619.405 587.503"/>
<path class="l4" d="M616.096 590.812L619.405 587.503"/>
<path class="l4" d="M612.786 587.503L616.096 590.812"/>
<path class="l4" d="M576.381 579.229L576.381 587.503"/>
<path class="l4" d="M573.072 587.503L579.691 587.503"/>
<path class="l4" d="M576.381 590.812L579.691 587.503"/>
<path class="l4" d="M573.072 587.503L576.381 590.812"/>
<path class="l4" d="M521.774 478.288L521.774 508.074"/>
<path class="l4" d="M530.048 473.324L530.048 481.598"/>
<path class="l4" d="M530.048 504.765L530.048 513.038"/>
<path class="l4" d="M518.464 483.253L518.464 503.11"/>
<path class="l4" d="M521.774 504.765L530.048 504.765"/>
<path class="l4" d="M521.774 481.598L530.048 481.598"/>
<path class="l4" d="M503.572 493.181L518.134 493.181"/>
<path class="l4" d="M526.738 506.419L530.048 504.765L526.738 503.11L526.738 506.419"/>
<path class="l4" d="M384.429 407.133L364.571 398.86L364.571 403.824L344.714 403.824L351.333 407.133L344.714 410.443L364.571 410.443L364.571 415.407L384.429 407.133"/>
<path class="l4" d="M384.429 433.61L364.571 425.336L364.571 430.3L344.714 430.3L351.333 433.61L344.714 436.919L364.571 436.919L364.571 441.883L384.429 433.61"/>
<path class="l4" d="M578.036 561.027L581.346 561.027"/>
<path class="l4" d="M579.691 559.372L579.691 562.681"/>
<path class="l4" d="M576.381 526.276L576.381 565.991"/>
<circle class="l4" cx="576.381" cy="546.134" r="9.92859" style="fill:none;" />
<path class="l4" d="M510.191 23.2281L556.524 23.2281"/>
<path class="l4" d="M510.191 23.2281L510.191 36.4662"/>
<path class="l4" d="M675.667 532.896L688.905 546.134"/>
<path class="l4" d="M662.429 546.134L675.667 532.896"/>
<path class="l4" d="M662.429 546.134L675.667 559.372"/>
<path class="l4" d="M675.667 559.372L688.905 546.134"/>
<path class="l4" d="M675.667 526.276L675.667 565.991"/>
<path class="l4" d="M682.286 532.896L688.905 532.896"/>
<path class="l4" d="M685.596 529.586L685.596 536.205"/>
<path class="l4" d="M675.667 579.229L675.667 587.503"/>
<path class="l4" d="M672.358 587.503L678.977 587.503"/>
<path class="l4" d="M675.667 590.812L678.977 587.503"/>
<path class="l4" d="M672.358 587.503L675.667 590.812"/>
<path class="l5" d="M528.393 577.574L531.703 577.574L531.703 580.884L528.393 580.884L528.393 577.574z"/>
<path class="l5" d="M442.345 577.574L445.655 577.574L445.655 580.884L442.345 580.884L442.345 577.574z"/>
<path class="l5" d="M442.345 524.622L445.655 524.622L445.655 527.931L442.345 527.931L442.345 524.622z"/>
<path class="l5" d="M442.345 564.336L445.655 564.336L445.655 567.646L442.345 567.646L442.345 564.336z"/>
<path class="l5" d="M614.441 471.669L617.75 471.669L617.75 474.979L614.441 474.979L614.441 471.669z"/>
<path class="l5" d="M614.441 511.384L617.75 511.384L617.75 514.693L614.441 514.693L614.441 511.384z"/>
<path class="l5" d="M614.441 577.574L617.75 577.574L617.75 580.884L614.441 580.884L614.441 577.574z"/>
<path class="l5" d="M574.726 577.574L578.036 577.574L578.036 580.884L574.726 580.884L574.726 577.574z"/>
<path class="l5" d="M199.095 622.253L198.888 622.46L198.681 622.666L198.474 622.873L198.268 623.08L198.061 623.287L197.854 623.494L197.647 623.701L197.44 623.908L197.233 624.114L197.027 624.321L196.82 624.528L196.613 624.735L196.406 624.942L196.199 625.149L195.992 625.355L195.785 625.562L195.579 625.769L195.372 625.976L195.165 626.183L194.958 626.39L194.751 626.597L194.544 626.803L194.338 627.01L194.131 627.217L193.924 627.424L193.717 627.631L193.51 627.838L193.303 628.044L193.096 628.251L192.89 628.458L192.683 628.665L192.476 628.872L192.476 628.872L192.276 629.079L192.088 629.286L191.914 629.492L191.752 629.699L191.603 629.906L191.468 630.113L191.345 630.32L191.235 630.527L191.138 630.733L191.054 630.94L190.983 631.147L190.925 631.354L190.879 631.561L190.847 631.768L190.828 631.975L190.821 632.181L190.828 632.388L190.847 632.595L190.879 632.802L190.925 633.009L190.983 633.216L191.054 633.422L191.138 633.629L191.235 633.836L191.345 634.043L191.468 634.25L191.603 634.457L191.752 634.664L191.914 634.87L192.088 635.077L192.276 635.284L192.476 635.491L192.476 635.491L192.684 635.699L192.893 635.908L193.104 636.119L193.316 636.331L193.53 636.545L193.746 636.761L193.963 636.978L194.182 637.197L194.403 637.418L194.625 637.64L194.849 637.864L195.074 638.089L195.301 638.316L195.53 638.545L195.76 638.775L195.992 639.007L196.226 639.241L196.461 639.476L196.698 639.713L196.936 639.951L197.176 640.191L197.418 640.433L197.661 640.676L197.906 640.921L198.152 641.167L198.4 641.415L198.65 641.665L198.901 641.916L199.154 642.169L199.408 642.423L199.665 642.68L199.922 642.937L199.922 642.937L200.179 643.194L200.433 643.448L200.683 643.698L200.931 643.946L201.175 644.19L201.416 644.431L201.653 644.668L201.887 644.902L202.118 645.133L202.346 645.361L202.571 645.586L202.792 645.807L203.011 646.026L203.225 646.24L203.437 646.452L203.646 646.661L203.851 646.866L204.053 647.068L204.252 647.267L204.447 647.462L204.639 647.654L204.828 647.843L205.014 648.029L205.197 648.212L205.376 648.391L205.552 648.567L205.725 648.74L205.895 648.91L206.061 649.076L206.225 649.24L206.385 649.4L206.541 649.556L206.541 649.556L206.692 649.709L206.832 649.857L206.963 650L207.084 650.138L207.196 650.271L207.298 650.4L207.39 650.524L207.472 650.642L207.545 650.756L207.608 650.865L207.661 650.97L207.705 651.069L207.739 651.164L207.763 651.253L207.778 651.338L207.782 651.418L207.778 651.493L207.763 651.563L207.739 651.629L207.705 651.69L207.661 651.745L207.608 651.796L207.545 651.842L207.472 651.883L207.39 651.92L207.298 651.951L207.196 651.978L207.084 652L206.963 652.017L206.832 652.029L206.692 652.036L206.541 652.039L206.541 652.039L206.386 652.039L206.231 652.039L206.076 652.039L205.921 652.039L205.766 652.039L205.611 652.039L205.455 652.039L205.3 652.039L205.145 652.039L204.99 652.039L204.835 652.039L204.68 652.039L204.525 652.039L204.37 652.039L204.214 652.039L204.059 652.039L203.904 652.039L203.749 652.039L203.594 652.039L203.439 652.039L203.284 652.039L203.128 652.039L202.973 652.039L202.818 652.039L202.663 652.039L202.508 652.039L202.353 652.039L202.198 652.039L202.043 652.039L201.887 652.039L201.732 652.039L201.577 652.039L201.577 652.039L201.423 652.039L201.27 652.039L201.119 652.039L200.97 652.039L200.822 652.039L200.675 652.039L200.531 652.039L200.388 652.039L200.246 652.039L200.107 652.039L199.968 652.039L199.832 652.039L199.697 652.039L199.564 652.039L199.432 652.039L199.302 652.039L199.173 652.039L199.047 652.039L198.921 652.039L198.798 652.039L198.676 652.039L198.555 652.039L198.436 652.039L198.319 652.039L198.204 652.039L198.09 652.039L197.978 652.039L197.867 652.039L197.758 652.039L197.65 652.039L197.544 652.039L197.44 652.039L197.44 652.039L197.337 652.037L197.233 652.032L197.13 652.024L197.027 652.013L196.923 651.998L196.82 651.98L196.716 651.959L196.613 651.935L196.509 651.908L196.406 651.877L196.303 651.843L196.199 651.806L196.096 651.765L195.992 651.722L195.889 651.675L195.785 651.625L195.682 651.572L195.579 651.515L195.475 651.455L195.372 651.392L195.268 651.326L195.165 651.256L195.061 651.184L194.958 651.108L194.855 651.029L194.751 650.946L194.648 650.861L194.544 650.772L194.441 650.68L194.338 650.584L194.234 650.486L194.131 650.384L194.131 650.384L194.027 650.28L193.924 650.177L193.82 650.074L193.717 649.97L193.614 649.867L193.51 649.763L193.407 649.66L193.303 649.556L193.2 649.453L193.096 649.35L192.993 649.246L192.89 649.143L192.786 649.039L192.683 648.936L192.579 648.832L192.476 648.729L192.372 648.626L192.269 648.522L192.166 648.419L192.062 648.315L191.959 648.212L191.855 648.109L191.752 648.005L191.649 647.902L191.545 647.798L191.442 647.695L191.338 647.591L191.235 647.488L191.131 647.385L191.028 647.281L190.925 647.178L190.821 647.074L190.821 647.074L190.716 646.969L190.608 646.861L190.496 646.749L190.382 646.635L190.264 646.517L190.142 646.396L190.018 646.271L189.89 646.143L189.759 646.013L189.625 645.878L189.488 645.741L189.347 645.6L189.204 645.457L189.057 645.31L188.906 645.159L188.753 645.006L188.596 644.849L188.436 644.689L188.273 644.526L188.106 644.359L187.937 644.19L187.764 644.017L187.588 643.841L187.408 643.661L187.226 643.479L187.04 643.293L186.851 643.104L186.658 642.912L186.463 642.716L186.264 642.517L186.062 642.315L185.857 642.11L185.857 642.11L185.65 641.91L185.443 641.722L185.236 641.548L185.029 641.386L184.823 641.237L184.616 641.102L184.409 640.979L184.202 640.869L183.995 640.772L183.788 640.688L183.582 640.617L183.375 640.559L183.168 640.513L182.961 640.481L182.754 640.462L182.547 640.455L182.34 640.462L182.134 640.481L181.927 640.513L181.72 640.559L181.513 640.617L181.306 640.688L181.099 640.772L180.893 640.869L180.686 640.979L180.479 641.102L180.272 641.237L180.065 641.386L179.858 641.548L179.651 641.722L179.445 641.91L179.238 642.11L179.238 642.11L179.033 642.315L178.831 642.517L178.632 642.716L178.436 642.912L178.244 643.104L178.055 643.293L177.869 643.479L177.686 643.661L177.507 643.841L177.331 644.017L177.158 644.19L176.988 644.359L176.822 644.526L176.659 644.689L176.499 644.849L176.342 645.006L176.188 645.159L176.038 645.31L175.891 645.457L175.747 645.6L175.607 645.741L175.469 645.878L175.335 646.013L175.204 646.143L175.077 646.271L174.952 646.396L174.831 646.517L174.713 646.635L174.598 646.749L174.487 646.861L174.379 646.969L174.274 647.074L174.274 647.074L174.17 647.178L174.067 647.281L173.963 647.385L173.86 647.488L173.756 647.591L173.653 647.695L173.55 647.798L173.446 647.902L173.343 648.005L173.239 648.109L173.136 648.212L173.032 648.315L172.929 648.419L172.826 648.522L172.722 648.626L172.619 648.729L172.515 648.832L172.412 648.936L172.308 649.039L172.205 649.143L172.102 649.246L171.998 649.35L171.895 649.453L171.791 649.556L171.688 649.66L171.585 649.763L171.481 649.867L171.378 649.97L171.274 650.074L171.171 650.177L171.067 650.28L170.964 650.384L170.964 650.384L170.861 650.486L170.757 650.584L170.654 650.68L170.55 650.772L170.447 650.861L170.343 650.946L170.24 651.029L170.137 651.108L170.033 651.184L169.93 651.256L169.826 651.326L169.723 651.392L169.619 651.455L169.516 651.515L169.413 651.572L169.309 651.625L169.206 651.675L169.102 651.722L168.999 651.765L168.896 651.806L168.792 651.843L168.689 651.877L168.585 651.908L168.482 651.935L168.378 651.959L168.275 651.98L168.172 651.998L168.068 652.013L167.965 652.024L167.861 652.032L167.758 652.037L167.654 652.039L167.654 652.039L167.55 652.039L167.444 652.039L167.337 652.039L167.228 652.039L167.117 652.039L167.005 652.039L166.891 652.039L166.775 652.039L166.658 652.039L166.539 652.039L166.419 652.039L166.297 652.039L166.173 652.039L166.048 652.039L165.921 652.039L165.793 652.039L165.663 652.039L165.531 652.039L165.398 652.039L165.263 652.039L165.126 652.039L164.988 652.039L164.848 652.039L164.707 652.039L164.564 652.039L164.419 652.039L164.273 652.039L164.125 652.039L163.976 652.039L163.825 652.039L163.672 652.039L163.518 652.039L163.518 652.039L163.362 652.039L163.207 652.039L163.052 652.039L162.897 652.039L162.742 652.039L162.587 652.039L162.432 652.039L162.276 652.039L162.121 652.039L161.966 652.039L161.811 652.039L161.656 652.039L161.501 652.039L161.346 652.039L161.191 652.039L161.035 652.039L160.88 652.039L160.725 652.039L160.57 652.039L160.415 652.039L160.26 652.039L160.105 652.039L159.949 652.039L159.794 652.039L159.639 652.039L159.484 652.039L159.329 652.039L159.174 652.039L159.019 652.039L158.864 652.039L158.708 652.039L158.553 652.039L158.553 652.039L158.403 652.036L158.262 652.029L158.131 652.017L158.01 652L157.899 651.978L157.797 651.951L157.705 651.92L157.622 651.883L157.55 651.842L157.487 651.796L157.433 651.745L157.39 651.69L157.356 651.629L157.332 651.563L157.317 651.493L157.312 651.418L157.317 651.338L157.332 651.253L157.356 651.164L157.39 651.069L157.433 650.97L157.487 650.865L157.55 650.756L157.622 650.642L157.705 650.524L157.797 650.4L157.899 650.271L158.01 650.138L158.131 650L158.262 649.857L158.403 649.709L158.553 649.556L158.553 649.556L158.71 649.4L158.87 649.24L159.033 649.076L159.2 648.91L159.369 648.74L159.542 648.567L159.718 648.391L159.898 648.212L160.08 648.029L160.266 647.843L160.455 647.654L160.648 647.462L160.843 647.267L161.042 647.068L161.244 646.866L161.449 646.661L161.658 646.452L161.869 646.24L162.084 646.026L162.302 645.807L162.524 645.586L162.748 645.361L162.976 645.133L163.207 644.902L163.442 644.668L163.679 644.431L163.92 644.19L164.164 643.946L164.411 643.698L164.662 643.448L164.915 643.194L165.172 642.937L165.172 642.937L165.43 642.68L165.686 642.423L165.941 642.169L166.194 641.916L166.445 641.665L166.695 641.415L166.943 641.167L167.189 640.921L167.434 640.676L167.677 640.433L167.919 640.191L168.159 639.951L168.397 639.713L168.634 639.476L168.869 639.241L169.102 639.007L169.334 638.775L169.565 638.545L169.793 638.316L170.02 638.089L170.246 637.864L170.469 637.64L170.692 637.418L170.912 637.197L171.131 636.978L171.349 636.761L171.564 636.545L171.778 636.331L171.991 636.119L172.202 635.908L172.411 635.699L172.619 635.491L172.619 635.491L172.819 635.284L173.007 635.077L173.181 634.87L173.343 634.664L173.491 634.457L173.627 634.25L173.75 634.043L173.86 633.836L173.957 633.629L174.041 633.422L174.112 633.216L174.17 633.009L174.215 632.802L174.248 632.595L174.267 632.388L174.274 632.181L174.267 631.975L174.248 631.768L174.215 631.561L174.17 631.354L174.112 631.147L174.041 630.94L173.957 630.733L173.86 630.527L173.75 630.32L173.627 630.113L173.491 629.906L173.343 629.699L173.181 629.492L173.007 629.286L172.819 629.079L172.619 628.872L172.619 628.872L172.411 628.664L172.202 628.455L171.991 628.244L171.778 628.032L171.564 627.817L171.349 627.602L171.131 627.384L170.912 627.165L170.692 626.945L170.469 626.723L170.246 626.499L170.02 626.273L169.793 626.046L169.565 625.818L169.334 625.587L169.102 625.355L168.869 625.122L168.634 624.887L168.397 624.65L168.159 624.412L167.919 624.172L167.677 623.93L167.434 623.687L167.189 623.442L166.943 623.196L166.695 622.948L166.445 622.698L166.194 622.447L165.941 622.194L165.686 621.939L165.43 621.683L165.172 621.425L165.172 621.425L164.915 621.168L164.662 620.915L164.411 620.664L164.164 620.417L163.92 620.173L163.679 619.932L163.442 619.695L163.207 619.46L162.976 619.229L162.748 619.001L162.524 618.777L162.302 618.555L162.084 618.337L161.869 618.122L161.658 617.911L161.449 617.702L161.244 617.497L161.042 617.295L160.843 617.096L160.648 616.901L160.455 616.708L160.266 616.519L160.08 616.333L159.898 616.151L159.718 615.971L159.542 615.795L159.369 615.622L159.2 615.453L159.033 615.286L158.87 615.123L158.71 614.963L158.553 614.806L158.553 614.806L158.403 614.654L158.262 614.506L158.131 614.363L158.01 614.225L157.899 614.091L157.797 613.963L157.705 613.839L157.622 613.72L157.55 613.607L157.487 613.497L157.433 613.393L157.39 613.294L157.356 613.199L157.332 613.11L157.317 613.025L157.312 612.945L157.317 612.87L157.332 612.799L157.356 612.734L157.39 612.673L157.433 612.618L157.487 612.567L157.55 612.521L157.622 612.479L157.705 612.443L157.797 612.411L157.899 612.385L158.01 612.363L158.131 612.346L158.262 612.334L158.403 612.327L158.553 612.324L158.553 612.324L158.708 612.324L158.864 612.324L159.019 612.324L159.174 612.324L159.329 612.324L159.484 612.324L159.639 612.324L159.794 612.324L159.949 612.324L160.105 612.324L160.26 612.324L160.415 612.324L160.57 612.324L160.725 612.324L160.88 612.324L161.035 612.324L161.191 612.324L161.346 612.324L161.501 612.324L161.656 612.324L161.811 612.324L161.966 612.324L162.121 612.324L162.276 612.324L162.432 612.324L162.587 612.324L162.742 612.324L162.897 612.324L163.052 612.324L163.207 612.324L163.362 612.324L163.518 612.324L163.518 612.324L163.672 612.324L163.825 612.324L163.976 612.324L164.125 612.324L164.273 612.324L164.419 612.324L164.564 612.324L164.707 612.324L164.848 612.324L164.988 612.324L165.126 612.324L165.263 612.324L165.398 612.324L165.531 612.324L165.663 612.324L165.793 612.324L165.921 612.324L166.048 612.324L166.173 612.324L166.297 612.324L166.419 612.324L166.539 612.324L166.658 612.324L166.775 612.324L166.891 612.324L167.005 612.324L167.117 612.324L167.228 612.324L167.337 612.324L167.444 612.324L167.55 612.324L167.654 612.324L167.654 612.324L167.758 612.326L167.861 612.331L167.965 612.339L168.068 612.35L168.172 612.365L168.275 612.382L168.378 612.403L168.482 612.428L168.585 612.455L168.689 612.486L168.792 612.52L168.896 612.557L168.999 612.597L169.102 612.641L169.206 612.688L169.309 612.738L169.413 612.791L169.516 612.848L169.619 612.908L169.723 612.971L169.826 613.037L169.93 613.106L170.033 613.179L170.137 613.255L170.24 613.334L170.343 613.417L170.447 613.502L170.55 613.591L170.654 613.683L170.757 613.779L170.861 613.877L170.964 613.979L170.964 613.979L171.067 614.082L171.171 614.186L171.274 614.289L171.378 614.393L171.481 614.496L171.585 614.6L171.688 614.703L171.791 614.806L171.895 614.91L171.998 615.013L172.102 615.117L172.205 615.22L172.308 615.323L172.412 615.427L172.515 615.53L172.619 615.634L172.722 615.737L172.826 615.841L172.929 615.944L173.032 616.047L173.136 616.151L173.239 616.254L173.343 616.358L173.446 616.461L173.55 616.565L173.653 616.668L173.756 616.771L173.86 616.875L173.963 616.978L174.067 617.082L174.17 617.185L174.274 617.289L174.274 617.289L174.379 617.394L174.487 617.502L174.598 617.613L174.713 617.728L174.831 617.846L174.952 617.967L175.077 618.092L175.204 618.219L175.335 618.35L175.469 618.484L175.607 618.622L175.747 618.762L175.891 618.906L176.038 619.053L176.188 619.203L176.342 619.357L176.499 619.514L176.659 619.674L176.822 619.837L176.988 620.003L177.158 620.173L177.331 620.346L177.507 620.522L177.686 620.701L177.869 620.884L178.055 621.07L178.244 621.259L178.436 621.451L178.632 621.647L178.831 621.846L179.033 622.048L179.238 622.253L179.238 622.253L179.445 622.453L179.651 622.641L179.858 622.815L180.065 622.977L180.272 623.125L180.479 623.261L180.686 623.384L180.893 623.494L181.099 623.591L181.306 623.675L181.513 623.746L181.72 623.804L181.927 623.849L182.134 623.882L182.34 623.901L182.547 623.908L182.754 623.901L182.961 623.882L183.168 623.849L183.375 623.804L183.582 623.746L183.788 623.675L183.995 623.591L184.202 623.494L184.409 623.384L184.616 623.261L184.823 623.125L185.029 622.977L185.236 622.815L185.443 622.641L185.65 622.453L185.857 622.253L185.857 622.253L186.062 622.048L186.264 621.846L186.463 621.647L186.658 621.451L186.851 621.259L187.04 621.07L187.226 620.884L187.408 620.701L187.588 620.522L187.764 620.346L187.937 620.173L188.106 620.003L188.273 619.837L188.436 619.674L188.596 619.514L188.753 619.357L188.906 619.203L189.057 619.053L189.204 618.906L189.347 618.762L189.488 618.622L189.625 618.484L189.759 618.35L189.89 618.219L190.018 618.092L190.142 617.967L190.264 617.846L190.382 617.728L190.496 617.613L190.608 617.502L190.716 617.394L190.821 617.289L190.821 617.289L190.925 617.185L191.028 617.082L191.131 616.978L191.235 616.875L191.338 616.771L191.442 616.668L191.545 616.565L191.649 616.461L191.752 616.358L191.855 616.254L191.959 616.151L192.062 616.047L192.166 615.944L192.269 615.841L192.372 615.737L192.476 615.634L192.579 615.53L192.683 615.427L192.786 615.323L192.89 615.22L192.993 615.117L193.096 615.013L193.2 614.91L193.303 614.806L193.407 614.703L193.51 614.6L193.614 614.496L193.717 614.393L193.82 614.289L193.924 614.186L194.027 614.082L194.131 613.979L194.131 613.979L194.234 613.877L194.338 613.779L194.441 613.683L194.544 613.591L194.648 613.502L194.751 613.417L194.855 613.334L194.958 613.255L195.061 613.179L195.165 613.106L195.268 613.037L195.372 612.971L195.475 612.908L195.579 612.848L195.682 612.791L195.785 612.738L195.889 612.688L195.992 612.641L196.096 612.597L196.199 612.557L196.303 612.52L196.406 612.486L196.509 612.455L196.613 612.428L196.716 612.403L196.82 612.382L196.923 612.365L197.027 612.35L197.13 612.339L197.233 612.331L197.337 612.326L197.44 612.324L197.44 612.324L197.544 612.324L197.65 612.324L197.758 612.324L197.867 612.324L197.978 612.324L198.09 612.324L198.204 612.324L198.319 612.324L198.436 612.324L198.555 612.324L198.676 612.324L198.798 612.324L198.921 612.324L199.047 612.324L199.173 612.324L199.302 612.324L199.432 612.324L199.564 612.324L199.697 612.324L199.832 612.324L199.968 612.324L200.107 612.324L200.246 612.324L200.388 612.324L200.531 612.324L200.675 612.324L200.822 612.324L200.97 612.324L201.119 612.324L201.27 612.324L201.423 612.324L201.577 612.324L201.577 612.324L201.732 612.324L201.887 612.324L202.043 612.324L202.198 612.324L202.353 612.324L202.508 612.324L202.663 612.324L202.818 612.324L202.973 612.324L203.128 612.324L203.284 612.324L203.439 612.324L203.594 612.324L203.749 612.324L203.904 612.324L204.059 612.324L204.214 612.324L204.37 612.324L204.525 612.324L204.68 612.324L204.835 612.324L204.99 612.324L205.145 612.324L205.3 612.324L205.455 612.324L205.611 612.324L205.766 612.324L205.921 612.324L206.076 612.324L206.231 612.324L206.386 612.324L206.541 612.324L206.541 612.324L206.692 612.327L206.832 612.334L206.963 612.346L207.084 612.363L207.196 612.385L207.298 612.411L207.39 612.443L207.472 612.479L207.545 612.521L207.608 612.567L207.661 612.618L207.705 612.673L207.739 612.734L207.763 612.799L207.778 612.87L207.782 612.945L207.778 613.025L207.763 613.11L207.739 613.199L207.705 613.294L207.661 613.393L207.608 613.497L207.545 613.607L207.472 613.72L207.39 613.839L207.298 613.963L207.196 614.091L207.084 614.225L206.963 614.363L206.832 614.506L206.692 614.654L206.541 614.806L206.541 614.806L206.384 614.964L206.221 615.126L206.054 615.294L205.882 615.466L205.705 615.643L205.523 615.824L205.337 616.011L205.145 616.203L204.949 616.399L204.748 616.6L204.542 616.806L204.331 617.017L204.115 617.233L203.894 617.453L203.669 617.679L203.439 617.909L203.204 618.144L202.964 618.384L202.719 618.629L202.469 618.879L202.215 619.133L201.955 619.393L201.691 619.657L201.422 619.926L201.148 620.2L200.869 620.478L200.586 620.762L200.297 621.051L200.004 621.344L199.706 621.642L199.403 621.945L199.095 622.253"/>
<path class="l5" d="M530.048 494.836L526.738 493.181L530.048 491.526L530.048 494.836"/>
<path class="l5" d="M528.393 471.669L531.703 471.669L531.703 474.979L528.393 474.979L528.393 471.669z"/>
<path class="l5" d="M501.917 491.526L505.226 491.526L505.226 494.836L501.917 494.836L501.917 491.526z"/>
<path class="l5" d="M528.393 511.384L531.703 511.384L531.703 514.693L528.393 514.693L528.393 511.384z"/>
<path class="l5" d="M529.996 493.129L530.1 493.129L530.1 493.233L529.996 493.233L529.996 493.129z"/>
<path class="l5" d="M574.726 564.336L578.036 564.336L578.036 567.646L574.726 567.646L574.726 564.336z"/>
<path class="l5" d="M574.726 524.622L578.036 524.622L578.036 527.931L574.726 527.931L574.726 524.622z"/>
<path class="l5" d="M443.173 492.354L444.827 492.354L444.827 494.009L443.173 494.009L443.173 492.354z"/>
<path class="l5" d="M529.22 419.544L530.875 419.544L530.875 421.199L529.22 421.199L529.22 419.544z"/>
<path class="l5" d="M575.554 492.354L577.209 492.354L577.209 494.009L575.554 494.009L575.554 492.354z"/>
<path class="l5" d="M674.012 524.622L677.322 524.622L677.322 527.931L674.012 527.931L674.012 524.622z"/>
<path class="l5" d="M674.012 564.336L677.322 564.336L677.322 567.646L674.012 567.646L674.012 564.336z"/>
<path class="l5" d="M674.012 577.574L677.322 577.574L677.322 580.884L674.012 580.884L674.012 577.574z"/>
<path class="l5" d="M674.84 505.592L676.494 505.592L676.494 507.247L674.84 507.247L674.84 505.592z"/>
<path class="l6" d="M354.643 632.181L880.858 632.181"/>
<path class="l6" d="M99.8091 632.181L142.833 632.181"/>
<circle class="l15" cx="774.953" cy="453.467" r="1.24107" />
<circle class="l15" cx="774.953" cy="433.61" r="1.24107" />
<circle class="l15" cx="774.953" cy="473.324" r="1.24107" />
<circle class="l15" cx="774.953" cy="513.038" r="1.24107" />
<circle class="l15" cx="774.953" cy="493.181" r="1.24107" />
<circle class="l15" cx="774.953" cy="532.896" r="1.24107" />
<circle class="l15" cx="774.953" cy="552.753" r="1.24107" />
<circle class="l15" cx="774.953" cy="592.467" r="1.24107" />
<circle class="l15" cx="774.953" cy="572.61" r="1.24107" />
<text fill="#222222"  xml:space="preserve" font-size="10.3257" transform="translate(103.119, 575.367)" >MODEL</text>
<text fill="#222222"  xml:space="preserve" font-size="10.3257" style="font-family:Monospace;" transform="translate(109.738, 591.914)" >.lib cornerMOSlv.lib mos_tt</text>
<text fill="#222222"  xml:space="preserve" font-size="10.3257" transform="translate(103.119, 19.3658)" >NGSPICE_CTRL</text>
<text fill="#222222"  xml:space="preserve" font-size="10.3257" style="font-family:Monospace;" transform="translate(109.738, 47.757)" >.option sparse</text>
<text fill="#222222"  xml:space="preserve" font-size="10.3257" style="font-family:Monospace;" transform="translate(109.738, 59.6006)" >.temp 27</text>
<text fill="#222222"  xml:space="preserve" font-size="10.3257" style="font-family:Monospace;" transform="translate(109.738, 71.4442)" >.param wx=5u lx=0.13u vbx=0</text>
<text fill="#222222"  xml:space="preserve" font-size="10.3257" style="font-family:Monospace;" transform="translate(109.738, 83.2879)" >.noise v(n) vg lin 1 1 1 1</text>
<text fill="#222222"  xml:space="preserve" font-size="10.3257" style="font-family:Monospace;" transform="translate(109.738, 95.1315)" >.control</text>
<text fill="#222222"  xml:space="preserve" font-size="10.3257" style="font-family:Monospace;" transform="translate(109.738, 106.975)" >option numdgt=3</text>
<text fill="#222222"  xml:space="preserve" font-size="10.3257" style="font-family:Monospace;" transform="translate(109.738, 118.819)" >set wr_singlescale</text>
<text fill="#222222"  xml:space="preserve" font-size="10.3257" style="font-family:Monospace;" transform="translate(109.738, 130.662)" >set wr_vecnames</text>
<text fill="#222222"  xml:space="preserve" font-size="10.3257" style="font-family:Monospace;" transform="translate(109.738, 154.35)" >compose l_vec  values 0.13u 0.2u 0.3u 0.4u 0.5u 1u 5u 10u</text>
<text fill="#222222"  xml:space="preserve" font-size="10.3257" style="font-family:Monospace;" transform="translate(109.738, 166.193)" >compose vg_vec start= 0 stop=1.5  step=25m</text>
<text fill="#222222"  xml:space="preserve" font-size="10.3257" style="font-family:Monospace;" transform="translate(109.738, 178.037)" >compose vd_vec start= 0 stop=1.5  step=25m</text>
<text fill="#222222"  xml:space="preserve" font-size="10.3257" style="font-family:Monospace;" transform="translate(109.738, 189.88)" >compose vb_vec values 0 0.4 0.8 1.2</text>
<text fill="#222222"  xml:space="preserve" font-size="10.3257" style="font-family:Monospace;" transform="translate(109.738, 213.568)" >foreach var1 $&amp;l_vec</text>
<text fill="#222222"  xml:space="preserve" font-size="10.3257" style="font-family:Monospace;" transform="translate(109.738, 225.411)" >  alterparam lx=$var1</text>
<text fill="#222222"  xml:space="preserve" font-size="10.3257" style="font-family:Monospace;" transform="translate(109.738, 237.255)" >  reset</text>
<text fill="#222222"  xml:space="preserve" font-size="10.3257" style="font-family:Monospace;" transform="translate(109.738, 249.098)" >  foreach var2 $&amp;vg_vec</text>
<text fill="#222222"  xml:space="preserve" font-size="10.3257" style="font-family:Monospace;" transform="translate(109.738, 260.942)" >    alter vg $var2</text>
<text fill="#222222"  xml:space="preserve" font-size="10.3257" style="font-family:Monospace;" transform="translate(109.738, 272.786)" >    foreach var3 $&amp;vd_vec</text>
<text fill="#222222"  xml:space="preserve" font-size="10.3257" style="font-family:Monospace;" transform="translate(109.738, 284.629)" >      alter vd $var3</text>
<text fill="#222222"  xml:space="preserve" font-size="10.3257" style="font-family:Monospace;" transform="translate(109.738, 296.473)" >      foreach var4 $&amp;vb_vec</text>
<text fill="#222222"  xml:space="preserve" font-size="10.3257" style="font-family:Monospace;" transform="translate(109.738, 308.316)" >        alter vsb $var4</text>
<text fill="#222222"  xml:space="preserve" font-size="10.3257" style="font-family:Monospace;" transform="translate(109.738, 320.16)" >        run </text>
<text fill="#222222"  xml:space="preserve" font-size="10.3257" style="font-family:Monospace;" transform="translate(109.738, 332.004)" >        wrdata techsweep_sg13_lv_nmos.txt noise1.all</text>
<text fill="#222222"  xml:space="preserve" font-size="10.3257" style="font-family:Monospace;" transform="translate(109.738, 343.847)" >        destroy all</text>
<text fill="#222222"  xml:space="preserve" font-size="10.3257" style="font-family:Monospace;" transform="translate(109.738, 355.691)" >        set appendwrite</text>
<text fill="#222222"  xml:space="preserve" font-size="10.3257" style="font-family:Monospace;" transform="translate(109.738, 367.535)" >        unset set wr_vecnames</text>
<text fill="#222222"  xml:space="preserve" font-size="10.3257" style="font-family:Monospace;" transform="translate(109.738, 379.378)" >      end</text>
<text fill="#222222"  xml:space="preserve" font-size="10.3257" style="font-family:Monospace;" transform="translate(109.738, 391.222)" >    end</text>
<text fill="#222222"  xml:space="preserve" font-size="10.3257" style="font-family:Monospace;" transform="translate(109.738, 403.065)" >  end</text>
<text fill="#222222"  xml:space="preserve" font-size="10.3257" style="font-family:Monospace;" transform="translate(109.738, 414.909)" >end</text>
<text fill="#222222"  xml:space="preserve" font-size="10.3257" style="font-family:Monospace;" transform="translate(109.738, 438.596)" >set appendwrite=0</text>
<text fill="#222222"  xml:space="preserve" font-size="10.3257" style="font-family:Monospace;" transform="translate(109.738, 462.283)" >alterparam lx=0.13u</text>
<text fill="#222222"  xml:space="preserve" font-size="10.3257" style="font-family:Monospace;" transform="translate(109.738, 474.127)" >alterparam vbx=0</text>
<text fill="#222222"  xml:space="preserve" font-size="10.3257" style="font-family:Monospace;" transform="translate(109.738, 485.971)" >reset</text>
<text fill="#222222"  xml:space="preserve" font-size="10.3257" style="font-family:Monospace;" transform="translate(109.738, 497.814)" >op</text>
<text fill="#222222"  xml:space="preserve" font-size="10.3257" style="font-family:Monospace;" transform="translate(109.738, 509.658)" >*showmod</text>
<text fill="#222222"  xml:space="preserve" font-size="10.3257" style="font-family:Monospace;" transform="translate(109.738, 521.501)" >show</text>
<text fill="#222222"  xml:space="preserve" font-size="10.3257" style="font-family:Monospace;" transform="translate(109.738, 533.345)" >write techsweep_sg13g2_lv_nmos.raw</text>
<text fill="#222222"  xml:space="preserve" font-size="10.3257" style="font-family:Monospace;" transform="translate(109.738, 545.189)" >.endc</text>
<text fill="#0099cc"  xml:space="preserve" font-size="6.88382" transform="translate(535.012, 588.789)" >GND</text>
<text fill="#0099cc"  xml:space="preserve" font-size="6.88382" transform="translate(448.964, 588.789)" >GND</text>
<text fill="#222222"  xml:space="preserve" font-size="6.88382" transform="translate(457.238, 539.973)" >vg</text>
<text fill="#222222"  xml:space="preserve" font-size="6.88382" transform="translate(457.238, 556.521)" >0.65 AC 1</text>
<text fill="#222222"  xml:space="preserve" font-size="6.88382" transform="translate(629.334, 487.021)" >vd</text>
<text fill="#222222"  xml:space="preserve" font-size="6.88382" transform="translate(629.334, 503.569)" >0.75</text>
<text fill="#0099cc"  xml:space="preserve" font-size="6.88382" transform="translate(621.06, 588.789)" >GND</text>
<text fill="#0099cc"  xml:space="preserve" font-size="6.88382" transform="translate(581.346, 588.789)" >GND</text>
<text fill="#222222"  xml:space="preserve" font-size="13.7676" transform="translate(361.262, 647.992)" >         techsweep_sg13g2_lv_nmos.sch</text>
<text fill="#222222"  xml:space="preserve" font-size="13.7676" transform="translate(361.262, 628.135)" >(c) 2024-2025 Harald Pretl, Apache-2.0 license</text>
<text fill="#222222"  xml:space="preserve" font-size="13.7676" transform="translate(726.858, 628.135)" >2026-06-24  15:14:13</text>
<text fill="#222222"  xml:space="preserve" font-size="34.4191" transform="translate(209.024, 646.886)" >SCHEM</text>
<text fill="#222222"  xml:space="preserve" font-size="6.88382" transform="translate(510.119, 479.575)" >M1</text>
<text fill="#ff0000"  xml:space="preserve" font-size="5.16286" transform="translate(506.191, 491.25)" >G</text>
<text fill="#222222"  xml:space="preserve" font-size="6.88382" transform="translate(536.667, 512.221)" >sg13_lv_nmos</text>
<text fill="#666600"  xml:space="preserve" font-size="6.88382" transform="translate(537.494, 503.569)" >m=1</text>
<text fill="#666600"  xml:space="preserve" font-size="6.88382" transform="translate(537.494, 497.777)" >ng=1</text>
<text fill="#666600"  xml:space="preserve" font-size="6.88382" transform="translate(537.494, 489.503)" >l={lx}</text>
<text fill="#666600"  xml:space="preserve" font-size="6.88382" transform="translate(537.494, 482.057)" >w={wx}</text>
<text fill="#ff0000"  xml:space="preserve" font-size="5.16286" transform="translate(531.703, 509.452)" >S</text>
<text fill="#ff0000"  xml:space="preserve" font-size="5.16286" transform="translate(531.703, 480.364)" >D</text>
<text fill="#ff0000"  xml:space="preserve" font-size="5.16286" transform="translate(530.048, 491.25)" >B</text>
<text fill="#222222"  xml:space="preserve" font-size="13.7676" transform="translate(391.048, 411.634)" >simulate</text>
<text fill="#222222"  xml:space="preserve" font-size="13.7676" transform="translate(391.048, 438.111)" >annotate OP</text>
<text fill="#aa2222"  xml:space="preserve" font-size="6.88382" transform="translate(766.057, 450.029)" >? </text>
<text fill="#aa2222"  xml:space="preserve" font-size="6.88382" transform="translate(754.057, 441.755)" >gds=</text>
<text fill="#aa2222"  xml:space="preserve" font-size="6.88382" transform="translate(766.057, 430.172)" >? </text>
<text fill="#aa2222"  xml:space="preserve" font-size="6.88382" transform="translate(755.057, 421.898)" >gm=</text>
<text fill="#aa2222"  xml:space="preserve" font-size="6.88382" transform="translate(766.057, 469.886)" >? </text>
<text fill="#aa2222"  xml:space="preserve" font-size="6.88382" transform="translate(755.057, 461.612)" >vth=</text>
<text fill="#aa2222"  xml:space="preserve" font-size="6.88382" transform="translate(766.057, 509.601)" >? </text>
<text fill="#aa2222"  xml:space="preserve" font-size="6.88382" transform="translate(754.057, 501.327)" >cgs=</text>
<text fill="#aa2222"  xml:space="preserve" font-size="6.88382" transform="translate(766.057, 489.743)" >? </text>
<text fill="#aa2222"  xml:space="preserve" font-size="6.88382" transform="translate(718.057, 481.47)" >vdss(vds_sat)=</text>
<text fill="#aa2222"  xml:space="preserve" font-size="6.88382" transform="translate(766.057, 529.458)" >? </text>
<text fill="#aa2222"  xml:space="preserve" font-size="6.88382" transform="translate(742.057, 521.184)" >fug(f_t)=</text>
<text fill="#aa2222"  xml:space="preserve" font-size="6.88382" transform="translate(766.057, 549.315)" >? </text>
<text fill="#aa2222"  xml:space="preserve" font-size="6.88382" transform="translate(754.057, 541.041)" >cdg=</text>
<text fill="#aa2222"  xml:space="preserve" font-size="6.88382" transform="translate(766.057, 589.029)" >? </text>
<text fill="#aa2222"  xml:space="preserve" font-size="6.88382" transform="translate(756.057, 580.755)" >sid=</text>
<text fill="#aa2222"  xml:space="preserve" font-size="6.88382" transform="translate(766.057, 569.172)" >? </text>
<text fill="#aa2222"  xml:space="preserve" font-size="6.88382" transform="translate(759.057, 560.898)" >rg=</text>
<text fill="#222222"  xml:space="preserve" font-size="6.88382" transform="translate(589.619, 556.899)" >vsb</text>
<text fill="#222222"  xml:space="preserve" font-size="6.88382" transform="translate(589.619, 540.352)" >{vbx}</text>
<text fill="#0099cc"  xml:space="preserve" font-size="9.29316" transform="translate(436.345, 490.133)" >g</text>
<text fill="#0099cc"  xml:space="preserve" font-size="9.29316" transform="translate(522.393, 417.323)" >d</text>
<text fill="#0099cc"  xml:space="preserve" font-size="9.29316" transform="translate(578.036, 490.133)" >b</text>
<text fill="#222222"  xml:space="preserve" font-size="10.3257" transform="translate(513.5, 19.3658)" >NGSPICE_SAVE</text>
<text fill="#222222"  xml:space="preserve" font-size="10.3257" style="font-family:Monospace;" transform="translate(520.119, 47.757)" >.save b d g n</text>
<text fill="#222222"  xml:space="preserve" font-size="10.3257" style="font-family:Monospace;" transform="translate(520.119, 59.6006)" >.save @n.xm1.nsg13_lv_nmos[cgsol]</text>
<text fill="#222222"  xml:space="preserve" font-size="10.3257" style="font-family:Monospace;" transform="translate(520.119, 71.4442)" >.save @n.xm1.nsg13_lv_nmos[cgdol]</text>
<text fill="#222222"  xml:space="preserve" font-size="10.3257" style="font-family:Monospace;" transform="translate(520.119, 83.2879)" >.save @n.xm1.nsg13_lv_nmos[cdd]</text>
<text fill="#222222"  xml:space="preserve" font-size="10.3257" style="font-family:Monospace;" transform="translate(520.119, 95.1315)" >.save @n.xm1.nsg13_lv_nmos[cgb]</text>
<text fill="#222222"  xml:space="preserve" font-size="10.3257" style="font-family:Monospace;" transform="translate(520.119, 106.975)" >.save @n.xm1.nsg13_lv_nmos[cgd]</text>
<text fill="#222222"  xml:space="preserve" font-size="10.3257" style="font-family:Monospace;" transform="translate(520.119, 118.819)" >.save @n.xm1.nsg13_lv_nmos[cgg]</text>
<text fill="#222222"  xml:space="preserve" font-size="10.3257" style="font-family:Monospace;" transform="translate(520.119, 130.662)" >.save @n.xm1.nsg13_lv_nmos[cgs]</text>
<text fill="#222222"  xml:space="preserve" font-size="10.3257" style="font-family:Monospace;" transform="translate(520.119, 142.506)" >.save @n.xm1.nsg13_lv_nmos[css]</text>
<text fill="#222222"  xml:space="preserve" font-size="10.3257" style="font-family:Monospace;" transform="translate(520.119, 154.35)" >.save @n.xm1.nsg13_lv_nmos[gds]</text>
<text fill="#222222"  xml:space="preserve" font-size="10.3257" style="font-family:Monospace;" transform="translate(520.119, 166.193)" >.save @n.xm1.nsg13_lv_nmos[gm]</text>
<text fill="#222222"  xml:space="preserve" font-size="10.3257" style="font-family:Monospace;" transform="translate(520.119, 178.037)" >.save @n.xm1.nsg13_lv_nmos[gmb]</text>
<text fill="#222222"  xml:space="preserve" font-size="10.3257" style="font-family:Monospace;" transform="translate(520.119, 189.88)" >.save @n.xm1.nsg13_lv_nmos[ids]</text>
<text fill="#222222"  xml:space="preserve" font-size="10.3257" style="font-family:Monospace;" transform="translate(520.119, 201.724)" >.save @n.xm1.nsg13_lv_nmos[l]</text>
<text fill="#222222"  xml:space="preserve" font-size="10.3257" style="font-family:Monospace;" transform="translate(520.119, 213.568)" >.save @n.xm1.nsg13_lv_nmos[vgs]</text>
<text fill="#222222"  xml:space="preserve" font-size="10.3257" style="font-family:Monospace;" transform="translate(520.119, 225.411)" >.save @n.xm1.nsg13_lv_nmos[vds]</text>
<text fill="#222222"  xml:space="preserve" font-size="10.3257" style="font-family:Monospace;" transform="translate(520.119, 237.255)" >.save @n.xm1.nsg13_lv_nmos[vsb]</text>
<text fill="#222222"  xml:space="preserve" font-size="10.3257" style="font-family:Monospace;" transform="translate(520.119, 249.098)" >.save @n.xm1.nsg13_lv_nmos[vth]</text>
<text fill="#222222"  xml:space="preserve" font-size="10.3257" style="font-family:Monospace;" transform="translate(520.119, 260.942)" >.save @n.xm1.nsg13_lv_nmos[vdss]</text>
<text fill="#222222"  xml:space="preserve" font-size="10.3257" style="font-family:Monospace;" transform="translate(520.119, 272.786)" >.save @n.xm1.nsg13_lv_nmos[fug]</text>
<text fill="#222222"  xml:space="preserve" font-size="10.3257" style="font-family:Monospace;" transform="translate(520.119, 284.629)" >.save @n.xm1.nsg13_lv_nmos[sid]</text>
<text fill="#222222"  xml:space="preserve" font-size="10.3257" style="font-family:Monospace;" transform="translate(520.119, 296.473)" >.save @n.xm1.nsg13_lv_nmos[sfl]</text>
<text fill="#222222"  xml:space="preserve" font-size="10.3257" style="font-family:Monospace;" transform="translate(520.119, 308.316)" >.save @n.xm1.nsg13_lv_nmos[cjd]</text>
<text fill="#222222"  xml:space="preserve" font-size="10.3257" style="font-family:Monospace;" transform="translate(520.119, 320.16)" >.save @n.xm1.nsg13_lv_nmos[cjs]</text>
<text fill="#222222"  xml:space="preserve" font-size="10.3257" style="font-family:Monospace;" transform="translate(520.119, 332.004)" >.save @n.xm1.nsg13_lv_nmos[rg]</text>
<text fill="#222222"  xml:space="preserve" font-size="6.88382" transform="translate(692.215, 559.003)" >1</text>
<text fill="#222222"  xml:space="preserve" font-size="6.88382" transform="translate(692.215, 542.456)" >H4</text>
<text fill="#222222"  xml:space="preserve" font-size="6.88382" transform="translate(692.215, 550.729)" >vd</text>
<text fill="#0099cc"  xml:space="preserve" font-size="6.88382" transform="translate(680.631, 588.789)" >GND</text>
<text fill="#0099cc"  xml:space="preserve" font-size="11.3583" transform="translate(663.703, 511.355)" >n</text>
<path class="l1" d="M530.048 513.038L530.048 579.229"/>
<path class="l1" d="M530.048 493.181L576.381 493.181"/>
<path class="l1" d="M530.048 420.372L616.096 420.372"/>
<path class="l1" d="M444 493.181L503.572 493.181"/>
<path class="l1" d="M530.048 420.372L530.048 473.324"/>
<path class="l1" d="M616.096 420.372L616.096 473.324"/>
<path class="l1" d="M576.381 565.991L576.381 579.229"/>
<path class="l1" d="M576.381 493.181L576.381 526.276"/>
<path class="l1" d="M616.096 513.038L616.096 579.229"/>
<path class="l1" d="M444 493.181L444 526.276"/>
<path class="l1" d="M444 565.991L444 579.229"/>
<path class="l1" d="M675.667 565.991L675.667 579.229"/>
<path class="l1" d="M675.667 499.8L675.667 526.276"/>
<text fill="#222222"  xml:space="preserve" font-size="13.7676" transform="translate(649.191, 644.682)" >Original implementation by (c) Boris Murmann</text>
</svg>
