<svg xmlns="http://www.w3.org/2000/svg" xmlns:xlink="http://www.w3.org/1999/xlink" width="1067" height="667" version="1.1">
<style type="text/css">
.l0{
  fill: #ffffff;
  stroke: #ffffff;
  stroke-linecap:round;
  stroke-linejoin:round;
  stroke-width: 0.885838;
}
.l1{
  fill: #0099cc;
  stroke: #0099cc;
  stroke-linecap:round;
  stroke-linejoin:round;
  stroke-width: 0.885838;
}
.l2{
  fill: #aaaaaa; fill-opacity: 0.2;
  stroke: #aaaaaa;
  stroke-linecap:round;
  stroke-linejoin:round;
  stroke-width: 0.885838;
}
.l3{
  fill: #222222; fill-opacity: 0.5;
  stroke: #222222;
  stroke-linecap:round;
  stroke-linejoin:round;
  stroke-width: 0.885838;
}
.l4{
  fill: #229900;
  stroke: #229900;
  stroke-linecap:round;
  stroke-linejoin:round;
  stroke-width: 0.885838;
}
.l5{
  fill: #bb2200;
  stroke: #bb2200;
  stroke-linecap:round;
  stroke-linejoin:round;
  stroke-width: 0.885838;
}
.l6{
  fill: #0066cc; fill-opacity: 0.5;
  stroke: #0066cc;
  stroke-linecap:round;
  stroke-linejoin:round;
  stroke-width: 0.885838;
}
.l7{
  fill: #ff0000; fill-opacity: 0.5;
  stroke: #ff0000;
  stroke-linecap:round;
  stroke-linejoin:round;
  stroke-width: 0.885838;
}
.l8{
  fill: #888800; fill-opacity: 0.5;
  stroke: #888800;
  stroke-linecap:round;
  stroke-linejoin:round;
  stroke-width: 0.885838;
}
.l9{
  fill: #00aaaa; fill-opacity: 0.5;
  stroke: #00aaaa;
  stroke-linecap:round;
  stroke-linejoin:round;
  stroke-width: 0.885838;
}
.l10{
  fill: #880088;
  stroke: #880088;
  stroke-linecap:round;
  stroke-linejoin:round;
  stroke-width: 0.885838;
}
.l11{
  fill: #00ff00; fill-opacity: 0.5;
  stroke: #00ff00;
  stroke-linecap:round;
  stroke-linejoin:round;
  stroke-width: 0.885838;
}
.l12{
  fill: #0000cc; fill-opacity: 0.5;
  stroke: #0000cc;
  stroke-linecap:round;
  stroke-linejoin:round;
  stroke-width: 0.885838;
}
.l13{
  fill: #666600; fill-opacity: 0.5;
  stroke: #666600;
  stroke-linecap:round;
  stroke-linejoin:round;
  stroke-width: 0.885838;
}
.l14{
  fill: #557755; fill-opacity: 0.2;
  stroke: #557755;
  stroke-linecap:round;
  stroke-linejoin:round;
  stroke-width: 0.885838;
}
.l15{
  fill: #aa2222; fill-opacity: 0.5;
  stroke: #aa2222;
  stroke-linecap:round;
  stroke-linejoin:round;
  stroke-width: 0.885838;
}
.l16{
  fill: #7ccc40; fill-opacity: 0.5;
  stroke: #7ccc40;
  stroke-linecap:round;
  stroke-linejoin:round;
  stroke-width: 0.885838;
}
.l17{
  fill: #00ffcc; fill-opacity: 0.2;
  stroke: #00ffcc;
  stroke-linecap:round;
  stroke-linejoin:round;
  stroke-width: 0.885838;
}
.l18{
  fill: #ce0097; fill-opacity: 0.5;
  stroke: #ce0097;
  stroke-linecap:round;
  stroke-linejoin:round;
  stroke-width: 0.885838;
}
.l19{
  fill: #d2d46b; fill-opacity: 0.2;
  stroke: #d2d46b;
  stroke-linecap:round;
  stroke-linejoin:round;
  stroke-width: 0.885838;
}
.l20{
  fill: #ef6158; fill-opacity: 0.2;
  stroke: #ef6158;
  stroke-linecap:round;
  stroke-linejoin:round;
  stroke-width: 0.885838;
}
.l21{
  fill: #fdb200; fill-opacity: 0.2;
  stroke: #fdb200;
  stroke-linecap:round;
  stroke-linejoin:round;
  stroke-width: 0.885838;
}
text {font-family: Sans-Serif;}
</style>
<rect class="l0" x="0" y="0" width="1067" height="667"/>
<path class="l4" d="M108.298 580.879L154.23 580.879"/>
<path class="l4" d="M108.298 580.879L108.298 594.002"/>
<path class="l4" d="M423.262 377.464L403.577 369.262L403.577 374.183L383.892 374.183L390.454 377.464L383.892 380.745L403.577 380.745L403.577 385.666L423.262 377.464"/>
<path class="l4" d="M423.262 403.711L403.577 395.509L403.577 400.43L383.892 400.43L390.454 403.711L383.892 406.992L403.577 406.992L403.577 411.913L423.262 403.711"/>
<path class="l4" d="M554.498 23.1285L600.43 23.1285"/>
<path class="l4" d="M554.498 23.1285L554.498 36.2521"/>
<path class="l4" d="M480.678 526.744L480.678 556.272"/>
<path class="l4" d="M488.88 521.823L488.88 530.025"/>
<path class="l4" d="M488.88 552.991L488.88 561.193"/>
<path class="l4" d="M477.397 531.665L477.397 551.351"/>
<path class="l4" d="M480.678 552.991L488.88 552.991"/>
<path class="l4" d="M480.678 530.025L488.88 530.025"/>
<path class="l4" d="M462.633 541.508L477.069 541.508"/>
<path class="l4" d="M483.959 528.384L480.678 530.025L483.959 531.665L483.959 528.384"/>
<path class="l4" d="M488.88 448.003L488.88 456.205"/>
<path class="l4" d="M485.599 448.003L492.161 448.003"/>
<path class="l4" d="M488.88 444.722L492.161 448.003"/>
<path class="l4" d="M485.599 448.003L488.88 444.722"/>
<path class="l4" d="M588.947 526.744L592.228 526.744"/>
<path class="l4" d="M590.587 525.104L590.587 528.384"/>
<path class="l4" d="M587.306 521.823L587.306 561.193"/>
<circle class="l4" cx="587.306" cy="541.508" r="9.84265" style="fill:none;" />
<path class="l4" d="M549.576 503.778L552.857 503.778"/>
<path class="l4" d="M551.217 502.137L551.217 505.418"/>
<path class="l4" d="M547.936 469.329L547.936 508.699"/>
<circle class="l4" cx="547.936" cy="489.014" r="9.84265" style="fill:none;" />
<path class="l4" d="M418.341 474.25L421.622 474.25"/>
<path class="l4" d="M419.981 472.609L419.981 475.89"/>
<path class="l4" d="M416.701 469.329L416.701 508.699"/>
<circle class="l4" cx="416.701" cy="489.014" r="9.84265" style="fill:none;" />
<path class="l4" d="M416.701 448.003L416.701 456.205"/>
<path class="l4" d="M413.42 448.003L419.981 448.003"/>
<path class="l4" d="M416.701 444.722L419.981 448.003"/>
<path class="l4" d="M413.42 448.003L416.701 444.722"/>
<path class="l4" d="M547.936 448.003L547.936 456.205"/>
<path class="l4" d="M544.655 448.003L551.217 448.003"/>
<path class="l4" d="M547.936 444.722L551.217 448.003"/>
<path class="l4" d="M544.655 448.003L547.936 444.722"/>
<path class="l4" d="M587.306 448.003L587.306 456.205"/>
<path class="l4" d="M584.026 448.003L590.587 448.003"/>
<path class="l4" d="M587.306 444.722L590.587 448.003"/>
<path class="l4" d="M584.026 448.003L587.306 444.722"/>
<path class="l4" d="M652.924 482.452L666.048 495.576"/>
<path class="l4" d="M639.801 495.576L652.924 482.452"/>
<path class="l4" d="M639.801 495.576L652.924 508.699"/>
<path class="l4" d="M652.924 508.699L666.048 495.576"/>
<path class="l4" d="M652.924 475.89L652.924 515.261"/>
<path class="l4" d="M659.486 482.452L666.048 482.452"/>
<path class="l4" d="M662.767 479.171L662.767 485.733"/>
<path class="l4" d="M652.924 448.003L652.924 456.205"/>
<path class="l4" d="M649.643 448.003L656.205 448.003"/>
<path class="l4" d="M652.924 444.722L656.205 448.003"/>
<path class="l4" d="M649.643 448.003L652.924 444.722"/>
<path class="l4" d="M108.298 23.1285L154.23 23.1285"/>
<path class="l4" d="M108.298 23.1285L108.298 36.2521"/>
<path class="l5" d="M206.724 623.53L206.519 623.735L206.314 623.94L206.109 624.145L205.904 624.35L205.699 624.555L205.494 624.76L205.289 624.965L205.084 625.17L204.879 625.375L204.674 625.581L204.469 625.786L204.263 625.991L204.058 626.196L203.853 626.401L203.648 626.606L203.443 626.811L203.238 627.016L203.033 627.221L202.828 627.426L202.623 627.631L202.418 627.836L202.213 628.041L202.008 628.246L201.803 628.451L201.598 628.656L201.393 628.861L201.188 629.066L200.983 629.272L200.778 629.477L200.572 629.682L200.367 629.887L200.162 630.092L200.162 630.092L199.964 630.297L199.778 630.502L199.605 630.707L199.445 630.912L199.297 631.117L199.163 631.322L199.041 631.527L198.932 631.732L198.836 631.937L198.753 632.142L198.682 632.347L198.624 632.552L198.58 632.757L198.548 632.963L198.528 633.168L198.522 633.373L198.528 633.578L198.548 633.783L198.58 633.988L198.624 634.193L198.682 634.398L198.753 634.603L198.836 634.808L198.932 635.013L199.041 635.218L199.163 635.423L199.297 635.628L199.445 635.833L199.605 636.038L199.778 636.243L199.964 636.448L200.162 636.654L200.162 636.654L200.368 636.859L200.576 637.067L200.785 637.276L200.995 637.487L201.208 637.699L201.422 637.913L201.637 638.128L201.854 638.345L202.073 638.564L202.293 638.784L202.515 639.006L202.738 639.23L202.963 639.455L203.19 639.681L203.418 639.91L203.648 640.139L203.88 640.371L204.113 640.604L204.348 640.839L204.584 641.075L204.822 641.313L205.061 641.552L205.302 641.794L205.545 642.036L205.789 642.281L206.035 642.526L206.283 642.774L206.532 643.023L206.783 643.274L207.035 643.526L207.289 643.78L207.544 644.036L207.544 644.036L207.799 644.29L208.051 644.542L208.299 644.79L208.544 645.035L208.786 645.277L209.025 645.516L209.26 645.751L209.492 645.984L209.721 646.213L209.947 646.439L210.17 646.661L210.389 646.881L210.606 647.097L210.819 647.31L211.029 647.52L211.235 647.727L211.439 647.93L211.639 648.13L211.836 648.327L212.03 648.521L212.221 648.712L212.408 648.899L212.592 649.083L212.773 649.264L212.951 649.442L213.126 649.617L213.297 649.788L213.465 649.956L213.63 650.121L213.792 650.283L213.951 650.442L214.106 650.597L214.106 650.597L214.255 650.749L214.394 650.895L214.524 651.037L214.644 651.174L214.755 651.306L214.856 651.434L214.947 651.556L215.029 651.674L215.101 651.787L215.163 651.895L215.216 651.998L215.26 652.097L215.293 652.19L215.317 652.279L215.332 652.363L215.336 652.443L215.332 652.517L215.317 652.587L215.293 652.652L215.26 652.712L215.216 652.767L215.163 652.818L215.101 652.863L215.029 652.904L214.947 652.94L214.856 652.971L214.755 652.998L214.644 653.019L214.524 653.036L214.394 653.048L214.255 653.056L214.106 653.058L214.106 653.058L213.952 653.058L213.799 653.058L213.645 653.058L213.491 653.058L213.337 653.058L213.183 653.058L213.03 653.058L212.876 653.058L212.722 653.058L212.568 653.058L212.414 653.058L212.261 653.058L212.107 653.058L211.953 653.058L211.799 653.058L211.645 653.058L211.492 653.058L211.338 653.058L211.184 653.058L211.03 653.058L210.876 653.058L210.723 653.058L210.569 653.058L210.415 653.058L210.261 653.058L210.108 653.058L209.954 653.058L209.8 653.058L209.646 653.058L209.492 653.058L209.339 653.058L209.185 653.058L209.185 653.058L209.032 653.058L208.88 653.058L208.731 653.058L208.582 653.058L208.436 653.058L208.291 653.058L208.147 653.058L208.006 653.058L207.866 653.058L207.727 653.058L207.59 653.058L207.455 653.058L207.321 653.058L207.189 653.058L207.058 653.058L206.929 653.058L206.802 653.058L206.676 653.058L206.552 653.058L206.429 653.058L206.308 653.058L206.189 653.058L206.071 653.058L205.955 653.058L205.841 653.058L205.728 653.058L205.616 653.058L205.507 653.058L205.398 653.058L205.292 653.058L205.187 653.058L205.084 653.058L205.084 653.058L204.981 653.056L204.879 653.052L204.776 653.044L204.674 653.032L204.571 653.018L204.469 653L204.366 652.979L204.263 652.955L204.161 652.928L204.058 652.898L203.956 652.864L203.853 652.827L203.751 652.787L203.648 652.744L203.546 652.697L203.443 652.648L203.341 652.595L203.238 652.539L203.136 652.48L203.033 652.417L202.931 652.351L202.828 652.283L202.726 652.21L202.623 652.135L202.52 652.057L202.418 651.975L202.315 651.89L202.213 651.802L202.11 651.711L202.008 651.616L201.905 651.518L201.803 651.417L201.803 651.417L201.7 651.315L201.598 651.212L201.495 651.11L201.393 651.007L201.29 650.905L201.188 650.802L201.085 650.7L200.983 650.597L200.88 650.495L200.778 650.392L200.675 650.29L200.572 650.187L200.47 650.085L200.367 649.982L200.265 649.88L200.162 649.777L200.06 649.675L199.957 649.572L199.855 649.469L199.752 649.367L199.65 649.264L199.547 649.162L199.445 649.059L199.342 648.957L199.24 648.854L199.137 648.752L199.035 648.649L198.932 648.547L198.829 648.444L198.727 648.342L198.624 648.239L198.522 648.137L198.522 648.137L198.418 648.032L198.31 647.925L198.2 647.815L198.086 647.701L197.969 647.584L197.849 647.464L197.726 647.34L197.599 647.214L197.469 647.084L197.336 646.951L197.2 646.815L197.061 646.676L196.918 646.533L196.773 646.387L196.624 646.238L196.471 646.086L196.316 645.931L196.157 645.772L195.996 645.61L195.831 645.445L195.662 645.277L195.491 645.106L195.316 644.931L195.139 644.753L194.957 644.572L194.773 644.388L194.586 644.201L194.395 644.01L194.201 643.816L194.004 643.619L193.804 643.419L193.601 643.215L193.601 643.215L193.396 643.017L193.19 642.831L192.985 642.658L192.78 642.498L192.575 642.35L192.37 642.216L192.165 642.094L191.96 641.985L191.755 641.889L191.55 641.806L191.345 641.735L191.14 641.677L190.935 641.633L190.73 641.6L190.525 641.581L190.32 641.575L190.115 641.581L189.91 641.6L189.705 641.633L189.499 641.677L189.294 641.735L189.089 641.806L188.884 641.889L188.679 641.985L188.474 642.094L188.269 642.216L188.064 642.35L187.859 642.498L187.654 642.658L187.449 642.831L187.244 643.017L187.039 643.215L187.039 643.215L186.835 643.419L186.635 643.619L186.438 643.816L186.244 644.01L186.054 644.201L185.866 644.388L185.682 644.572L185.501 644.753L185.323 644.931L185.148 645.106L184.977 645.277L184.809 645.445L184.644 645.61L184.482 645.772L184.323 645.931L184.168 646.086L184.016 646.238L183.867 646.387L183.721 646.533L183.579 646.676L183.439 646.815L183.303 646.951L183.17 647.084L183.04 647.214L182.914 647.34L182.79 647.464L182.67 647.584L182.553 647.701L182.44 647.815L182.329 647.925L182.222 648.032L182.117 648.137L182.117 648.137L182.015 648.239L181.912 648.342L181.81 648.444L181.707 648.547L181.605 648.649L181.502 648.752L181.4 648.854L181.297 648.957L181.195 649.059L181.092 649.162L180.99 649.264L180.887 649.367L180.785 649.469L180.682 649.572L180.58 649.675L180.477 649.777L180.375 649.88L180.272 649.982L180.169 650.085L180.067 650.187L179.964 650.29L179.862 650.392L179.759 650.495L179.657 650.597L179.554 650.7L179.452 650.802L179.349 650.905L179.247 651.007L179.144 651.11L179.042 651.212L178.939 651.315L178.837 651.417L178.837 651.417L178.734 651.518L178.632 651.616L178.529 651.711L178.427 651.802L178.324 651.89L178.221 651.975L178.119 652.057L178.016 652.135L177.914 652.21L177.811 652.283L177.709 652.351L177.606 652.417L177.504 652.48L177.401 652.539L177.299 652.595L177.196 652.648L177.094 652.697L176.991 652.744L176.889 652.787L176.786 652.827L176.684 652.864L176.581 652.898L176.478 652.928L176.376 652.955L176.273 652.979L176.171 653L176.068 653.018L175.966 653.032L175.863 653.044L175.761 653.052L175.658 653.056L175.556 653.058L175.556 653.058L175.452 653.058L175.347 653.058L175.241 653.058L175.133 653.058L175.023 653.058L174.912 653.058L174.799 653.058L174.684 653.058L174.568 653.058L174.45 653.058L174.331 653.058L174.21 653.058L174.088 653.058L173.963 653.058L173.838 653.058L173.71 653.058L173.581 653.058L173.451 653.058L173.319 653.058L173.185 653.058L173.049 653.058L172.912 653.058L172.774 653.058L172.634 653.058L172.492 653.058L172.349 653.058L172.204 653.058L172.057 653.058L171.909 653.058L171.759 653.058L171.608 653.058L171.455 653.058L171.455 653.058L171.301 653.058L171.147 653.058L170.993 653.058L170.839 653.058L170.686 653.058L170.532 653.058L170.378 653.058L170.224 653.058L170.071 653.058L169.917 653.058L169.763 653.058L169.609 653.058L169.455 653.058L169.302 653.058L169.148 653.058L168.994 653.058L168.84 653.058L168.686 653.058L168.533 653.058L168.379 653.058L168.225 653.058L168.071 653.058L167.917 653.058L167.764 653.058L167.61 653.058L167.456 653.058L167.302 653.058L167.148 653.058L166.995 653.058L166.841 653.058L166.687 653.058L166.533 653.058L166.533 653.058L166.384 653.056L166.245 653.048L166.115 653.036L165.995 653.019L165.885 652.998L165.784 652.971L165.692 652.94L165.611 652.904L165.538 652.863L165.476 652.818L165.423 652.767L165.38 652.712L165.346 652.652L165.322 652.587L165.308 652.517L165.303 652.443L165.308 652.363L165.322 652.279L165.346 652.19L165.38 652.097L165.423 651.998L165.476 651.895L165.538 651.787L165.611 651.674L165.692 651.556L165.784 651.434L165.885 651.306L165.995 651.174L166.115 651.037L166.245 650.895L166.384 650.749L166.533 650.597L166.533 650.597L166.689 650.442L166.847 650.283L167.009 650.121L167.174 649.956L167.342 649.788L167.514 649.617L167.688 649.442L167.866 649.264L168.047 649.083L168.231 648.899L168.419 648.712L168.609 648.521L168.803 648.327L169 648.13L169.201 647.93L169.404 647.727L169.611 647.52L169.821 647.31L170.034 647.097L170.25 646.881L170.469 646.661L170.692 646.439L170.918 646.213L171.147 645.984L171.379 645.751L171.615 645.516L171.854 645.277L172.095 645.035L172.341 644.79L172.589 644.542L172.84 644.29L173.095 644.036L173.095 644.036L173.351 643.78L173.605 643.526L173.857 643.274L174.108 643.023L174.357 642.774L174.604 642.526L174.85 642.281L175.094 642.036L175.337 641.794L175.578 641.552L175.818 641.313L176.056 641.075L176.292 640.839L176.527 640.604L176.76 640.371L176.991 640.139L177.221 639.91L177.449 639.681L177.676 639.455L177.901 639.23L178.125 639.006L178.346 638.784L178.567 638.564L178.785 638.345L179.002 638.128L179.218 637.913L179.432 637.699L179.644 637.487L179.855 637.276L180.064 637.067L180.271 636.859L180.477 636.654L180.477 636.654L180.676 636.448L180.862 636.243L181.035 636.038L181.195 635.833L181.342 635.628L181.477 635.423L181.598 635.218L181.707 635.013L181.804 634.808L181.887 634.603L181.957 634.398L182.015 634.193L182.06 633.988L182.092 633.783L182.111 633.578L182.117 633.373L182.111 633.168L182.092 632.963L182.06 632.757L182.015 632.552L181.957 632.347L181.887 632.142L181.804 631.937L181.707 631.732L181.598 631.527L181.477 631.322L181.342 631.117L181.195 630.912L181.035 630.707L180.862 630.502L180.676 630.297L180.477 630.092L180.477 630.092L180.271 629.886L180.064 629.678L179.855 629.469L179.644 629.259L179.432 629.046L179.218 628.833L179.002 628.617L178.785 628.4L178.567 628.181L178.346 627.961L178.125 627.739L177.901 627.516L177.676 627.291L177.449 627.064L177.221 626.836L176.991 626.606L176.76 626.374L176.527 626.141L176.292 625.907L176.056 625.67L175.818 625.432L175.578 625.193L175.337 624.952L175.094 624.709L174.85 624.465L174.604 624.219L174.357 623.971L174.108 623.722L173.857 623.472L173.605 623.219L173.351 622.965L173.095 622.71L173.095 622.71L172.84 622.455L172.589 622.204L172.341 621.955L172.095 621.71L171.854 621.468L171.615 621.23L171.379 620.994L171.147 620.762L170.918 620.533L170.692 620.307L170.469 620.084L170.25 619.865L170.034 619.648L169.821 619.435L169.611 619.225L169.404 619.019L169.201 618.815L169 618.615L168.803 618.418L168.609 618.224L168.419 618.034L168.231 617.846L168.047 617.662L167.866 617.481L167.688 617.303L167.514 617.128L167.342 616.957L167.174 616.789L167.009 616.624L166.847 616.462L166.689 616.303L166.533 616.148L166.533 616.148L166.384 615.997L166.245 615.85L166.115 615.708L165.995 615.571L165.885 615.439L165.784 615.312L165.692 615.189L165.611 615.071L165.538 614.959L165.476 614.85L165.423 614.747L165.38 614.649L165.346 614.555L165.322 614.466L165.308 614.382L165.303 614.303L165.308 614.228L165.322 614.158L165.346 614.093L165.38 614.033L165.423 613.978L165.476 613.928L165.538 613.882L165.611 613.841L165.692 613.805L165.784 613.774L165.885 613.747L165.995 613.726L166.115 613.709L166.245 613.697L166.384 613.69L166.533 613.687L166.533 613.687L166.687 613.687L166.841 613.687L166.995 613.687L167.148 613.687L167.302 613.687L167.456 613.687L167.61 613.687L167.764 613.687L167.917 613.687L168.071 613.687L168.225 613.687L168.379 613.687L168.533 613.687L168.686 613.687L168.84 613.687L168.994 613.687L169.148 613.687L169.302 613.687L169.455 613.687L169.609 613.687L169.763 613.687L169.917 613.687L170.071 613.687L170.224 613.687L170.378 613.687L170.532 613.687L170.686 613.687L170.839 613.687L170.993 613.687L171.147 613.687L171.301 613.687L171.455 613.687L171.455 613.687L171.608 613.687L171.759 613.687L171.909 613.687L172.057 613.687L172.204 613.687L172.349 613.687L172.492 613.687L172.634 613.687L172.774 613.687L172.912 613.687L173.049 613.687L173.185 613.687L173.319 613.687L173.451 613.687L173.581 613.687L173.71 613.687L173.838 613.687L173.963 613.687L174.088 613.687L174.21 613.687L174.331 613.687L174.45 613.687L174.568 613.687L174.684 613.687L174.799 613.687L174.912 613.687L175.023 613.687L175.133 613.687L175.241 613.687L175.347 613.687L175.452 613.687L175.556 613.687L175.556 613.687L175.658 613.689L175.761 613.694L175.863 613.702L175.966 613.713L176.068 613.727L176.171 613.745L176.273 613.766L176.376 613.79L176.478 613.817L176.581 613.848L176.684 613.881L176.786 613.918L176.889 613.958L176.991 614.001L177.094 614.048L177.196 614.097L177.299 614.15L177.401 614.206L177.504 614.266L177.606 614.328L177.709 614.394L177.811 614.463L177.914 614.535L178.016 614.61L178.119 614.689L178.221 614.77L178.324 614.855L178.427 614.943L178.529 615.035L178.632 615.129L178.734 615.227L178.837 615.328L178.837 615.328L178.939 615.43L179.042 615.533L179.144 615.635L179.247 615.738L179.349 615.84L179.452 615.943L179.554 616.045L179.657 616.148L179.759 616.251L179.862 616.353L179.964 616.456L180.067 616.558L180.169 616.661L180.272 616.763L180.375 616.866L180.477 616.968L180.58 617.071L180.682 617.173L180.785 617.276L180.887 617.378L180.99 617.481L181.092 617.583L181.195 617.686L181.297 617.788L181.4 617.891L181.502 617.994L181.605 618.096L181.707 618.199L181.81 618.301L181.912 618.404L182.015 618.506L182.117 618.609L182.117 618.609L182.222 618.713L182.329 618.82L182.44 618.931L182.553 619.044L182.67 619.161L182.79 619.282L182.914 619.405L183.04 619.531L183.17 619.661L183.303 619.794L183.439 619.93L183.579 620.07L183.721 620.212L183.867 620.358L184.016 620.507L184.168 620.659L184.323 620.815L184.482 620.973L184.644 621.135L184.809 621.3L184.977 621.468L185.148 621.64L185.323 621.814L185.501 621.992L185.682 622.173L185.866 622.357L186.054 622.545L186.244 622.735L186.438 622.929L186.635 623.126L186.835 623.327L187.039 623.53L187.039 623.53L187.244 623.729L187.449 623.914L187.654 624.087L187.859 624.248L188.064 624.395L188.269 624.53L188.474 624.651L188.679 624.76L188.884 624.856L189.089 624.94L189.294 625.01L189.499 625.068L189.705 625.113L189.91 625.145L190.115 625.164L190.32 625.17L190.525 625.164L190.73 625.145L190.935 625.113L191.14 625.068L191.345 625.01L191.55 624.94L191.755 624.856L191.96 624.76L192.165 624.651L192.37 624.53L192.575 624.395L192.78 624.248L192.985 624.087L193.19 623.914L193.396 623.729L193.601 623.53L193.601 623.53L193.804 623.327L194.004 623.126L194.201 622.929L194.395 622.735L194.586 622.545L194.773 622.357L194.957 622.173L195.139 621.992L195.316 621.814L195.491 621.64L195.662 621.468L195.831 621.3L195.996 621.135L196.157 620.973L196.316 620.815L196.471 620.659L196.624 620.507L196.773 620.358L196.918 620.212L197.061 620.07L197.2 619.93L197.336 619.794L197.469 619.661L197.599 619.531L197.726 619.405L197.849 619.282L197.969 619.161L198.086 619.044L198.2 618.931L198.31 618.82L198.418 618.713L198.522 618.609L198.522 618.609L198.624 618.506L198.727 618.404L198.829 618.301L198.932 618.199L199.035 618.096L199.137 617.994L199.24 617.891L199.342 617.788L199.445 617.686L199.547 617.583L199.65 617.481L199.752 617.378L199.855 617.276L199.957 617.173L200.06 617.071L200.162 616.968L200.265 616.866L200.367 616.763L200.47 616.661L200.572 616.558L200.675 616.456L200.778 616.353L200.88 616.251L200.983 616.148L201.085 616.045L201.188 615.943L201.29 615.84L201.393 615.738L201.495 615.635L201.598 615.533L201.7 615.43L201.803 615.328L201.803 615.328L201.905 615.227L202.008 615.129L202.11 615.035L202.213 614.943L202.315 614.855L202.418 614.77L202.52 614.689L202.623 614.61L202.726 614.535L202.828 614.463L202.931 614.394L203.033 614.328L203.136 614.266L203.238 614.206L203.341 614.15L203.443 614.097L203.546 614.048L203.648 614.001L203.751 613.958L203.853 613.918L203.956 613.881L204.058 613.848L204.161 613.817L204.263 613.79L204.366 613.766L204.469 613.745L204.571 613.727L204.674 613.713L204.776 613.702L204.879 613.694L204.981 613.689L205.084 613.687L205.084 613.687L205.187 613.687L205.292 613.687L205.398 613.687L205.507 613.687L205.616 613.687L205.728 613.687L205.841 613.687L205.955 613.687L206.071 613.687L206.189 613.687L206.308 613.687L206.429 613.687L206.552 613.687L206.676 613.687L206.802 613.687L206.929 613.687L207.058 613.687L207.189 613.687L207.321 613.687L207.455 613.687L207.59 613.687L207.727 613.687L207.866 613.687L208.006 613.687L208.147 613.687L208.291 613.687L208.436 613.687L208.582 613.687L208.731 613.687L208.88 613.687L209.032 613.687L209.185 613.687L209.185 613.687L209.339 613.687L209.492 613.687L209.646 613.687L209.8 613.687L209.954 613.687L210.108 613.687L210.261 613.687L210.415 613.687L210.569 613.687L210.723 613.687L210.876 613.687L211.03 613.687L211.184 613.687L211.338 613.687L211.492 613.687L211.645 613.687L211.799 613.687L211.953 613.687L212.107 613.687L212.261 613.687L212.414 613.687L212.568 613.687L212.722 613.687L212.876 613.687L213.03 613.687L213.183 613.687L213.337 613.687L213.491 613.687L213.645 613.687L213.799 613.687L213.952 613.687L214.106 613.687L214.106 613.687L214.255 613.69L214.394 613.697L214.524 613.709L214.644 613.726L214.755 613.747L214.856 613.774L214.947 613.805L215.029 613.841L215.101 613.882L215.163 613.928L215.216 613.978L215.26 614.033L215.293 614.093L215.317 614.158L215.332 614.228L215.336 614.303L215.332 614.382L215.317 614.466L215.293 614.555L215.26 614.649L215.216 614.747L215.163 614.85L215.101 614.959L215.029 615.071L214.947 615.189L214.856 615.312L214.755 615.439L214.644 615.571L214.524 615.708L214.394 615.85L214.255 615.997L214.106 616.148L214.106 616.148L213.95 616.304L213.789 616.465L213.623 616.631L213.452 616.802L213.277 616.977L213.097 617.157L212.912 617.342L212.722 617.532L212.527 617.727L212.328 617.926L212.124 618.13L211.915 618.34L211.701 618.553L211.482 618.772L211.259 618.996L211.03 619.224L210.797 619.457L210.559 619.695L210.317 619.938L210.069 620.185L209.817 620.437L209.56 620.694L209.298 620.956L209.031 621.223L208.759 621.495L208.483 621.771L208.202 622.052L207.916 622.338L207.625 622.629L207.33 622.924L207.029 623.225L206.724 623.53"/>
<path class="l5" d="M485.599 539.867L488.88 541.508L485.599 543.148L485.599 539.867"/>
<path class="l5" d="M487.24 559.553L490.52 559.553L490.52 562.834L487.24 562.834L487.24 559.553z"/>
<path class="l5" d="M460.992 539.867L464.273 539.867L464.273 543.148L460.992 543.148L460.992 539.867z"/>
<path class="l5" d="M487.24 520.182L490.52 520.182L490.52 523.463L487.24 523.463L487.24 520.182z"/>
<path class="l5" d="M488.829 541.457L488.931 541.457L488.931 541.559L488.829 541.559L488.829 541.457z"/>
<path class="l5" d="M487.24 454.565L490.52 454.565L490.52 457.845L487.24 457.845L487.24 454.565z"/>
<path class="l5" d="M585.666 520.182L588.947 520.182L588.947 523.463L585.666 523.463L585.666 520.182z"/>
<path class="l5" d="M585.666 559.553L588.947 559.553L588.947 562.834L585.666 562.834L585.666 559.553z"/>
<path class="l5" d="M546.295 507.059L549.576 507.059L549.576 510.34L546.295 510.34L546.295 507.059z"/>
<path class="l5" d="M546.295 467.688L549.576 467.688L549.576 470.969L546.295 470.969L546.295 467.688z"/>
<path class="l5" d="M415.06 467.688L418.341 467.688L418.341 470.969L415.06 470.969L415.06 467.688z"/>
<path class="l5" d="M415.06 507.059L418.341 507.059L418.341 510.34L415.06 510.34L415.06 507.059z"/>
<path class="l5" d="M415.06 454.565L418.341 454.565L418.341 457.845L415.06 457.845L415.06 454.565z"/>
<path class="l5" d="M546.295 454.565L549.576 454.565L549.576 457.845L546.295 457.845L546.295 454.565z"/>
<path class="l5" d="M585.666 454.565L588.947 454.565L588.947 457.845L585.666 457.845L585.666 454.565z"/>
<path class="l5" d="M442.127 540.688L443.768 540.688L443.768 542.328L442.127 542.328L442.127 540.688z"/>
<path class="l5" d="M533.992 586.62L535.633 586.62L535.633 588.261L533.992 588.261L533.992 586.62z"/>
<path class="l5" d="M533.992 540.688L535.633 540.688L535.633 542.328L533.992 542.328L533.992 540.688z"/>
<path class="l5" d="M651.284 474.25L654.565 474.25L654.565 477.531L651.284 477.531L651.284 474.25z"/>
<path class="l5" d="M651.284 513.62L654.565 513.62L654.565 516.901L651.284 516.901L651.284 513.62z"/>
<path class="l5" d="M651.284 454.565L654.565 454.565L654.565 457.845L651.284 457.845L651.284 454.565z"/>
<path class="l5" d="M652.104 540.688L653.744 540.688L653.744 542.328L652.104 542.328L652.104 540.688z"/>
<path class="l6" d="M360.926 633.373L882.586 633.373"/>
<path class="l6" d="M108.298 633.373L150.949 633.373"/>
<circle class="l15" cx="744.789" cy="449.643" r="1.23033" />
<circle class="l15" cx="744.789" cy="429.958" r="1.23033" />
<circle class="l15" cx="744.789" cy="469.329" r="1.23033" />
<circle class="l15" cx="744.789" cy="508.699" r="1.23033" />
<circle class="l15" cx="744.789" cy="489.014" r="1.23033" />
<circle class="l15" cx="744.789" cy="528.384" r="1.23033" />
<circle class="l15" cx="744.789" cy="548.07" r="1.23033" />
<circle class="l15" cx="744.789" cy="587.44" r="1.23033" />
<circle class="l15" cx="744.789" cy="567.755" r="1.23033" />
<text fill="#222222"  xml:space="preserve" font-size="10.2364" transform="translate(111.579, 577.05)" >MODEL</text>
<text fill="#222222"  xml:space="preserve" font-size="10.2364" style="font-family:Monospace;" transform="translate(118.14, 593.454)" >.lib cornerMOSlv.lib mos_tt</text>
<text fill="#222222"  xml:space="preserve" font-size="13.6485" transform="translate(367.487, 649.046)" >         techsweep_sg13g2_lv_pmos.sch</text>
<text fill="#222222"  xml:space="preserve" font-size="13.6485" transform="translate(367.487, 629.361)" >(c) 2024-2025 Harald Pretl, Apache-2.0 license</text>
<text fill="#222222"  xml:space="preserve" font-size="13.6485" transform="translate(728.586, 629.361)" >2025-10-01  21:38:53</text>
<text fill="#222222"  xml:space="preserve" font-size="34.1212" transform="translate(216.567, 647.95)" >SCHEM</text>
<text fill="#222222"  xml:space="preserve" font-size="13.6485" transform="translate(429.824, 381.857)" >simulate</text>
<text fill="#222222"  xml:space="preserve" font-size="13.6485" transform="translate(429.824, 408.104)" >annotate OP</text>
<text fill="#aa2222"  xml:space="preserve" font-size="6.82424" transform="translate(735.918, 446.201)" >? </text>
<text fill="#aa2222"  xml:space="preserve" font-size="6.82424" transform="translate(723.918, 437.998)" >gds=</text>
<text fill="#aa2222"  xml:space="preserve" font-size="6.82424" transform="translate(735.918, 426.515)" >? </text>
<text fill="#aa2222"  xml:space="preserve" font-size="6.82424" transform="translate(724.918, 418.313)" >gm=</text>
<text fill="#aa2222"  xml:space="preserve" font-size="6.82424" transform="translate(735.918, 465.886)" >? </text>
<text fill="#aa2222"  xml:space="preserve" font-size="6.82424" transform="translate(724.918, 457.684)" >vth=</text>
<text fill="#aa2222"  xml:space="preserve" font-size="6.82424" transform="translate(735.918, 505.257)" >? </text>
<text fill="#aa2222"  xml:space="preserve" font-size="6.82424" transform="translate(723.918, 497.054)" >cgs=</text>
<text fill="#aa2222"  xml:space="preserve" font-size="6.82424" transform="translate(735.918, 485.571)" >? </text>
<text fill="#aa2222"  xml:space="preserve" font-size="6.82424" transform="translate(687.918, 477.369)" >vdss(vds_sat)=</text>
<text fill="#aa2222"  xml:space="preserve" font-size="6.82424" transform="translate(735.918, 524.942)" >? </text>
<text fill="#aa2222"  xml:space="preserve" font-size="6.82424" transform="translate(711.918, 516.74)" >fug(f_t)=</text>
<text fill="#aa2222"  xml:space="preserve" font-size="6.82424" transform="translate(735.918, 544.627)" >? </text>
<text fill="#aa2222"  xml:space="preserve" font-size="6.82424" transform="translate(723.918, 536.425)" >cdg=</text>
<text fill="#aa2222"  xml:space="preserve" font-size="6.82424" transform="translate(735.918, 583.998)" >? </text>
<text fill="#aa2222"  xml:space="preserve" font-size="6.82424" transform="translate(725.918, 575.795)" >sid=</text>
<text fill="#aa2222"  xml:space="preserve" font-size="6.82424" transform="translate(735.918, 564.312)" >? </text>
<text fill="#aa2222"  xml:space="preserve" font-size="6.82424" transform="translate(728.918, 556.11)" >rg=</text>
<text fill="#222222"  xml:space="preserve" font-size="10.2364" transform="translate(557.779, 19.2996)" >NGSPICE_SAVE</text>
<text fill="#222222"  xml:space="preserve" font-size="10.2364" style="font-family:Monospace;" transform="translate(564.34, 47.4451)" >.save b d g n</text>
<text fill="#222222"  xml:space="preserve" font-size="10.2364" style="font-family:Monospace;" transform="translate(564.34, 59.1862)" >.save @n.xm1.nsg13_lv_pmos[cgsol]</text>
<text fill="#222222"  xml:space="preserve" font-size="10.2364" style="font-family:Monospace;" transform="translate(564.34, 70.9273)" >.save @n.xm1.nsg13_lv_pmos[cgdol]</text>
<text fill="#222222"  xml:space="preserve" font-size="10.2364" style="font-family:Monospace;" transform="translate(564.34, 82.6684)" >.save @n.xm1.nsg13_lv_pmos[cdd]</text>
<text fill="#222222"  xml:space="preserve" font-size="10.2364" style="font-family:Monospace;" transform="translate(564.34, 94.4095)" >.save @n.xm1.nsg13_lv_pmos[cgb]</text>
<text fill="#222222"  xml:space="preserve" font-size="10.2364" style="font-family:Monospace;" transform="translate(564.34, 106.151)" >.save @n.xm1.nsg13_lv_pmos[cgd]</text>
<text fill="#222222"  xml:space="preserve" font-size="10.2364" style="font-family:Monospace;" transform="translate(564.34, 117.892)" >.save @n.xm1.nsg13_lv_pmos[cgg]</text>
<text fill="#222222"  xml:space="preserve" font-size="10.2364" style="font-family:Monospace;" transform="translate(564.34, 129.633)" >.save @n.xm1.nsg13_lv_pmos[cgs]</text>
<text fill="#222222"  xml:space="preserve" font-size="10.2364" style="font-family:Monospace;" transform="translate(564.34, 141.374)" >.save @n.xm1.nsg13_lv_pmos[css]</text>
<text fill="#222222"  xml:space="preserve" font-size="10.2364" style="font-family:Monospace;" transform="translate(564.34, 153.115)" >.save @n.xm1.nsg13_lv_pmos[gds]</text>
<text fill="#222222"  xml:space="preserve" font-size="10.2364" style="font-family:Monospace;" transform="translate(564.34, 164.856)" >.save @n.xm1.nsg13_lv_pmos[gm]</text>
<text fill="#222222"  xml:space="preserve" font-size="10.2364" style="font-family:Monospace;" transform="translate(564.34, 176.597)" >.save @n.xm1.nsg13_lv_pmos[gmb]</text>
<text fill="#222222"  xml:space="preserve" font-size="10.2364" style="font-family:Monospace;" transform="translate(564.34, 188.338)" >.save @n.xm1.nsg13_lv_pmos[ids]</text>
<text fill="#222222"  xml:space="preserve" font-size="10.2364" style="font-family:Monospace;" transform="translate(564.34, 200.079)" >.save @n.xm1.nsg13_lv_pmos[l]</text>
<text fill="#222222"  xml:space="preserve" font-size="10.2364" style="font-family:Monospace;" transform="translate(564.34, 211.82)" >.save @n.xm1.nsg13_lv_pmos[vgs]</text>
<text fill="#222222"  xml:space="preserve" font-size="10.2364" style="font-family:Monospace;" transform="translate(564.34, 223.562)" >.save @n.xm1.nsg13_lv_pmos[vds]</text>
<text fill="#222222"  xml:space="preserve" font-size="10.2364" style="font-family:Monospace;" transform="translate(564.34, 235.303)" >.save @n.xm1.nsg13_lv_pmos[vsb]</text>
<text fill="#222222"  xml:space="preserve" font-size="10.2364" style="font-family:Monospace;" transform="translate(564.34, 247.044)" >.save @n.xm1.nsg13_lv_pmos[vth]</text>
<text fill="#222222"  xml:space="preserve" font-size="10.2364" style="font-family:Monospace;" transform="translate(564.34, 258.785)" >.save @n.xm1.nsg13_lv_pmos[vdss]</text>
<text fill="#222222"  xml:space="preserve" font-size="10.2364" style="font-family:Monospace;" transform="translate(564.34, 270.526)" >.save @n.xm1.nsg13_lv_pmos[fug]</text>
<text fill="#222222"  xml:space="preserve" font-size="10.2364" style="font-family:Monospace;" transform="translate(564.34, 282.267)" >.save @n.xm1.nsg13_lv_pmos[sid]</text>
<text fill="#222222"  xml:space="preserve" font-size="10.2364" style="font-family:Monospace;" transform="translate(564.34, 294.008)" >.save @n.xm1.nsg13_lv_pmos[sfl]</text>
<text fill="#222222"  xml:space="preserve" font-size="10.2364" style="font-family:Monospace;" transform="translate(564.34, 305.749)" >.save @n.xm1.nsg13_lv_pmos[cjd]</text>
<text fill="#222222"  xml:space="preserve" font-size="10.2364" style="font-family:Monospace;" transform="translate(564.34, 317.49)" >.save @n.xm1.nsg13_lv_pmos[cjs]</text>
<text fill="#222222"  xml:space="preserve" font-size="10.2364" style="font-family:Monospace;" transform="translate(564.34, 329.231)" >.save @n.xm1.nsg13_lv_pmos[rg]</text>
<text fill="#222222"  xml:space="preserve" font-size="6.82424" transform="translate(469.037, 528.019)" >M1</text>
<text fill="#ff0000"  xml:space="preserve" font-size="5.11818" transform="translate(465.195, 539.593)" >G</text>
<text fill="#222222"  xml:space="preserve" font-size="6.82424" transform="translate(495.442, 560.382)" >sg13_lv_pmos</text>
<text fill="#666600"  xml:space="preserve" font-size="6.82424" transform="translate(496.262, 551.805)" >m=1</text>
<text fill="#666600"  xml:space="preserve" font-size="6.82424" transform="translate(496.262, 546.064)" >ng=1</text>
<text fill="#666600"  xml:space="preserve" font-size="6.82424" transform="translate(496.262, 537.862)" >l={lx}</text>
<text fill="#666600"  xml:space="preserve" font-size="6.82424" transform="translate(496.262, 530.48)" >w={wx}</text>
<text fill="#ff0000"  xml:space="preserve" font-size="5.11818" transform="translate(490.52, 557.638)" >D</text>
<text fill="#ff0000"  xml:space="preserve" font-size="5.11818" transform="translate(490.52, 528.802)" >S</text>
<text fill="#ff0000"  xml:space="preserve" font-size="5.11818" transform="translate(488.88, 539.593)" >B</text>
<text fill="#0099cc"  xml:space="preserve" font-size="6.82424" transform="translate(493.801, 451.293)" >GND</text>
<text fill="#222222"  xml:space="preserve" font-size="6.82424" transform="translate(600.43, 535.401)" >vd</text>
<text fill="#222222"  xml:space="preserve" font-size="6.82424" transform="translate(600.43, 551.805)" >0.75</text>
<text fill="#222222"  xml:space="preserve" font-size="6.82424" transform="translate(561.059, 499.686)" >vsb</text>
<text fill="#222222"  xml:space="preserve" font-size="6.82424" transform="translate(561.059, 483.282)" >{vbx}</text>
<text fill="#222222"  xml:space="preserve" font-size="6.82424" transform="translate(429.824, 482.907)" >vg</text>
<text fill="#222222"  xml:space="preserve" font-size="6.82424" transform="translate(429.824, 499.311)" >0.65 AC 1</text>
<text fill="#0099cc"  xml:space="preserve" font-size="6.82424" transform="translate(421.622, 451.293)" >GND</text>
<text fill="#0099cc"  xml:space="preserve" font-size="6.82424" transform="translate(552.857, 451.293)" >GND</text>
<text fill="#0099cc"  xml:space="preserve" font-size="6.82424" transform="translate(592.228, 451.293)" >GND</text>
<text fill="#0099cc"  xml:space="preserve" font-size="9.21272" transform="translate(435.307, 538.486)" >g</text>
<text fill="#0099cc"  xml:space="preserve" font-size="9.21272" transform="translate(527.172, 584.418)" >d</text>
<text fill="#0099cc"  xml:space="preserve" font-size="9.21272" transform="translate(536.453, 538.486)" >b</text>
<text fill="#222222"  xml:space="preserve" font-size="6.82424" transform="translate(669.329, 508.334)" >1</text>
<text fill="#222222"  xml:space="preserve" font-size="6.82424" transform="translate(669.329, 491.929)" >H1</text>
<text fill="#222222"  xml:space="preserve" font-size="6.82424" transform="translate(669.329, 500.132)" >vd</text>
<text fill="#0099cc"  xml:space="preserve" font-size="6.82424" transform="translate(657.845, 451.293)" >GND</text>
<text fill="#0099cc"  xml:space="preserve" font-size="11.26" transform="translate(641.003, 546.401)" >n</text>
<text fill="#222222"  xml:space="preserve" font-size="10.2364" transform="translate(111.579, 19.2996)" >NGSPICE_CTRL</text>
<text fill="#222222"  xml:space="preserve" font-size="10.2364" style="font-family:Monospace;" transform="translate(118.14, 47.4451)" >.option sparse</text>
<text fill="#222222"  xml:space="preserve" font-size="10.2364" style="font-family:Monospace;" transform="translate(118.14, 59.1862)" >.temp 27</text>
<text fill="#222222"  xml:space="preserve" font-size="10.2364" style="font-family:Monospace;" transform="translate(118.14, 70.9273)" >.param wx=5u lx=0.13u vbx=0</text>
<text fill="#222222"  xml:space="preserve" font-size="10.2364" style="font-family:Monospace;" transform="translate(118.14, 82.6684)" >.noise v(n) vg lin 1 1 1 1</text>
<text fill="#222222"  xml:space="preserve" font-size="10.2364" style="font-family:Monospace;" transform="translate(118.14, 94.4095)" >.control</text>
<text fill="#222222"  xml:space="preserve" font-size="10.2364" style="font-family:Monospace;" transform="translate(118.14, 106.151)" >option numdgt=3</text>
<text fill="#222222"  xml:space="preserve" font-size="10.2364" style="font-family:Monospace;" transform="translate(118.14, 117.892)" >set wr_singlescale</text>
<text fill="#222222"  xml:space="preserve" font-size="10.2364" style="font-family:Monospace;" transform="translate(118.14, 129.633)" >set wr_vecnames</text>
<text fill="#222222"  xml:space="preserve" font-size="10.2364" style="font-family:Monospace;" transform="translate(118.14, 153.115)" >compose l_vec  values 0.13u 0.2u 0.3u 0.4u 0.5u 1u 5u 10u</text>
<text fill="#222222"  xml:space="preserve" font-size="10.2364" style="font-family:Monospace;" transform="translate(118.14, 164.856)" >compose vg_vec start= 0 stop=1.5  step=25m</text>
<text fill="#222222"  xml:space="preserve" font-size="10.2364" style="font-family:Monospace;" transform="translate(118.14, 176.597)" >compose vd_vec start= 0 stop=1.5  step=25m</text>
<text fill="#222222"  xml:space="preserve" font-size="10.2364" style="font-family:Monospace;" transform="translate(118.14, 188.338)" >compose vb_vec values 0 0.4 0.8 1.2</text>
<text fill="#222222"  xml:space="preserve" font-size="10.2364" style="font-family:Monospace;" transform="translate(118.14, 211.82)" >foreach var1 $&amp;l_vec</text>
<text fill="#222222"  xml:space="preserve" font-size="10.2364" style="font-family:Monospace;" transform="translate(118.14, 223.562)" >  alterparam lx=$var1</text>
<text fill="#222222"  xml:space="preserve" font-size="10.2364" style="font-family:Monospace;" transform="translate(118.14, 235.303)" >  reset</text>
<text fill="#222222"  xml:space="preserve" font-size="10.2364" style="font-family:Monospace;" transform="translate(118.14, 247.044)" >  foreach var2 $&amp;vg_vec</text>
<text fill="#222222"  xml:space="preserve" font-size="10.2364" style="font-family:Monospace;" transform="translate(118.14, 258.785)" >    alter vg $var2</text>
<text fill="#222222"  xml:space="preserve" font-size="10.2364" style="font-family:Monospace;" transform="translate(118.14, 270.526)" >    foreach var3 $&amp;vd_vec</text>
<text fill="#222222"  xml:space="preserve" font-size="10.2364" style="font-family:Monospace;" transform="translate(118.14, 282.267)" >      alter vd $var3</text>
<text fill="#222222"  xml:space="preserve" font-size="10.2364" style="font-family:Monospace;" transform="translate(118.14, 294.008)" >      foreach var4 $&amp;vb_vec</text>
<text fill="#222222"  xml:space="preserve" font-size="10.2364" style="font-family:Monospace;" transform="translate(118.14, 305.749)" >        alter vsb $var4</text>
<text fill="#222222"  xml:space="preserve" font-size="10.2364" style="font-family:Monospace;" transform="translate(118.14, 317.49)" >        run </text>
<text fill="#222222"  xml:space="preserve" font-size="10.2364" style="font-family:Monospace;" transform="translate(118.14, 329.231)" >        wrdata techsweep_sg13_lv_pmos.txt noise1.all</text>
<text fill="#222222"  xml:space="preserve" font-size="10.2364" style="font-family:Monospace;" transform="translate(118.14, 340.973)" >        destroy all</text>
<text fill="#222222"  xml:space="preserve" font-size="10.2364" style="font-family:Monospace;" transform="translate(118.14, 352.714)" >        set appendwrite</text>
<text fill="#222222"  xml:space="preserve" font-size="10.2364" style="font-family:Monospace;" transform="translate(118.14, 364.455)" >        unset set wr_vecnames</text>
<text fill="#222222"  xml:space="preserve" font-size="10.2364" style="font-family:Monospace;" transform="translate(118.14, 376.196)" >      end</text>
<text fill="#222222"  xml:space="preserve" font-size="10.2364" style="font-family:Monospace;" transform="translate(118.14, 387.937)" >    end</text>
<text fill="#222222"  xml:space="preserve" font-size="10.2364" style="font-family:Monospace;" transform="translate(118.14, 399.678)" >  end</text>
<text fill="#222222"  xml:space="preserve" font-size="10.2364" style="font-family:Monospace;" transform="translate(118.14, 411.419)" >end</text>
<text fill="#222222"  xml:space="preserve" font-size="10.2364" style="font-family:Monospace;" transform="translate(118.14, 434.901)" >set appendwrite=0</text>
<text fill="#222222"  xml:space="preserve" font-size="10.2364" style="font-family:Monospace;" transform="translate(118.14, 458.384)" >alterparam lx=0.13u</text>
<text fill="#222222"  xml:space="preserve" font-size="10.2364" style="font-family:Monospace;" transform="translate(118.14, 470.125)" >alterparam vbx=0</text>
<text fill="#222222"  xml:space="preserve" font-size="10.2364" style="font-family:Monospace;" transform="translate(118.14, 481.866)" >reset</text>
<text fill="#222222"  xml:space="preserve" font-size="10.2364" style="font-family:Monospace;" transform="translate(118.14, 493.607)" >op</text>
<text fill="#222222"  xml:space="preserve" font-size="10.2364" style="font-family:Monospace;" transform="translate(118.14, 505.348)" >*showmod</text>
<text fill="#222222"  xml:space="preserve" font-size="10.2364" style="font-family:Monospace;" transform="translate(118.14, 517.089)" >show</text>
<text fill="#222222"  xml:space="preserve" font-size="10.2364" style="font-family:Monospace;" transform="translate(118.14, 528.83)" >write techsweep_sg13g2_lv_pmos.raw</text>
<text fill="#222222"  xml:space="preserve" font-size="10.2364" style="font-family:Monospace;" transform="translate(118.14, 540.571)" >.endc</text>
<path class="l1" d="M416.701 508.699L416.701 541.508"/>
<path class="l1" d="M416.701 541.508L462.633 541.508"/>
<path class="l1" d="M416.701 456.205L416.701 469.329"/>
<path class="l1" d="M488.88 456.205L488.88 521.823"/>
<path class="l1" d="M488.88 561.193L488.88 587.44"/>
<path class="l1" d="M488.88 587.44L587.306 587.44"/>
<path class="l1" d="M587.306 561.193L587.306 587.44"/>
<path class="l1" d="M587.306 456.205L587.306 521.823"/>
<path class="l1" d="M547.936 508.699L547.936 541.508"/>
<path class="l1" d="M488.88 541.508L547.936 541.508"/>
<path class="l1" d="M547.936 456.205L547.936 469.329"/>
<path class="l1" d="M652.924 456.205L652.924 475.89"/>
<path class="l1" d="M652.924 515.261L652.924 548.07"/>
<text fill="#222222"  xml:space="preserve" font-size="13.6485" transform="translate(639.801, 645.765)" >Original implementation by (c) Boris Murmann</text>
</svg>
