<?xml version="1.0" encoding="utf-8" standalone="no"?>
<!DOCTYPE svg PUBLIC "-//W3C//DTD SVG 1.1//EN"
  "http://www.w3.org/Graphics/SVG/1.1/DTD/svg11.dtd">
<svg xmlns:xlink="http://www.w3.org/1999/xlink" width="405.62pt" height="298.8pt" viewBox="0 0 405.62 298.8" xmlns="http://www.w3.org/2000/svg" version="1.1">
 <metadata>
  <rdf:RDF xmlns:dc="http://purl.org/dc/elements/1.1/" xmlns:cc="http://creativecommons.org/ns#" xmlns:rdf="http://www.w3.org/1999/02/22-rdf-syntax-ns#">
   <cc:Work>
    <dc:type rdf:resource="http://purl.org/dc/dcmitype/StillImage"/>
    <dc:date>2024-11-15T11:59:54.800570</dc:date>
    <dc:format>image/svg+xml</dc:format>
    <dc:creator>
     <cc:Agent>
      <dc:title>Matplotlib v3.9.2, https://matplotlib.org/</dc:title>
     </cc:Agent>
    </dc:creator>
   </cc:Work>
  </rdf:RDF>
 </metadata>
 <defs>
  <style type="text/css">*{stroke-linejoin: round; stroke-linecap: butt}</style>
 </defs>
 <g id="figure_1">
  <g id="patch_1">
   <path d="M 0 298.8 
L 405.62 298.8 
L 405.62 0 
L 0 0 
z
" style="fill: #ffffff"/>
  </g>
  <g id="axes_1">
   <g id="patch_2">
    <path d="M 49.76 121.08 
C 54.533656 121.08 59.112438 119.183406 62.487922 115.807922 
C 65.863406 112.432438 67.76 107.853656 67.76 103.08 
C 67.76 98.306344 65.863406 93.727562 62.487922 90.352078 
C 59.112438 86.976594 54.533656 85.08 49.76 85.08 
C 44.986344 85.08 40.407562 86.976594 37.032078 90.352078 
C 33.656594 93.727562 31.76 98.306344 31.76 103.08 
C 31.76 107.853656 33.656594 112.432438 37.032078 115.807922 
C 40.407562 119.183406 44.986344 121.08 49.76 121.08 
L 49.76 121.08 
z
" clip-path="url(#pddf63ce5ad)" style="fill: none; stroke: #000000; stroke-width: 2; stroke-linejoin: miter"/>
   </g>
   <g id="line2d_1">
    <path d="M 205.76 175.08 
L 205.76 160.08 
L 190.76 160.08 
L 190.76 130.08 
L 205.76 130.08 
L 205.76 115.08 
" clip-path="url(#pddf63ce5ad)" style="fill: none; stroke: #000000; stroke-width: 2; stroke-linecap: round"/>
   </g>
   <g id="line2d_2">
    <path d="M 196.76 160.08 
L 190.76 160.08 
" clip-path="url(#pddf63ce5ad)" style="fill: none; stroke: #000000; stroke-width: 2; stroke-linecap: round"/>
   </g>
   <g id="patch_3">
    <path d="M 196.76 155.58 
L 205.76 160.08 
L 196.76 164.58 
z
" clip-path="url(#pddf63ce5ad)"/>
   </g>
   <g id="line2d_3">
    <path d="M 187.76 157.08 
L 187.76 133.08 
" clip-path="url(#pddf63ce5ad)" style="fill: none; stroke: #000000; stroke-width: 2; stroke-linecap: round"/>
   </g>
   <g id="line2d_4">
    <path d="M 172.76 145.08 
L 187.76 145.08 
" clip-path="url(#pddf63ce5ad)" style="fill: none; stroke: #000000; stroke-width: 2; stroke-linecap: round"/>
   </g>
   <g id="line2d_5">
    <path d="M 205.76 175.08 
L 205.76 184.08 
L 205.76 193.08 
" clip-path="url(#pddf63ce5ad)" style="fill: none; stroke: #000000; stroke-width: 2; stroke-linecap: round"/>
   </g>
   <g id="line2d_6">
    <path d="M 205.76 193.08 
L 232.76 193.08 
L 259.76 193.08 
" clip-path="url(#pddf63ce5ad)" style="fill: none; stroke: #000000; stroke-width: 2; stroke-linecap: round"/>
   </g>
   <g id="line2d_7">
    <path d="M 259.76 193.08 
L 259.76 202.08 
L 259.76 211.08 
" clip-path="url(#pddf63ce5ad)" style="fill: none; stroke: #000000; stroke-width: 2; stroke-linecap: round"/>
   </g>
   <g id="line2d_8">
    <path d="M 259.76 271.08 
L 259.76 256.08 
L 244.76 256.08 
L 244.76 226.08 
L 259.76 226.08 
L 259.76 211.08 
" clip-path="url(#pddf63ce5ad)" style="fill: none; stroke: #000000; stroke-width: 2; stroke-linecap: round"/>
   </g>
   <g id="line2d_9">
    <path d="M 250.76 256.08 
L 244.76 256.08 
" clip-path="url(#pddf63ce5ad)" style="fill: none; stroke: #000000; stroke-width: 2; stroke-linecap: round"/>
   </g>
   <g id="patch_4">
    <path d="M 250.76 251.58 
L 259.76 256.08 
L 250.76 260.58 
z
" clip-path="url(#pddf63ce5ad)"/>
   </g>
   <g id="line2d_10">
    <path d="M 241.76 253.08 
L 241.76 229.08 
" clip-path="url(#pddf63ce5ad)" style="fill: none; stroke: #000000; stroke-width: 2; stroke-linecap: round"/>
   </g>
   <g id="line2d_11">
    <path d="M 226.76 241.08 
L 241.76 241.08 
" clip-path="url(#pddf63ce5ad)" style="fill: none; stroke: #000000; stroke-width: 2; stroke-linecap: round"/>
   </g>
   <g id="line2d_12">
    <path d="M 259.76 271.08 
L 259.76 285.48 
L 250.76 285.48 
L 268.76 285.48 
M 253.46 289.8 
L 266.06 289.8 
M 257.96 294.12 
L 261.56 294.12 
" clip-path="url(#pddf63ce5ad)" style="fill: none; stroke: #000000; stroke-width: 2; stroke-linecap: round"/>
   </g>
   <g id="line2d_13">
    <path d="M 226.76 241.08 
L 154.76 241.08 
L 82.76 241.08 
" clip-path="url(#pddf63ce5ad)" style="fill: none; stroke: #000000; stroke-width: 2; stroke-linecap: round"/>
   </g>
   <g id="line2d_14">
    <path d="M 49.76 211.08 
L 49.76 226.08 
L 64.76 226.08 
L 64.76 256.08 
L 49.76 256.08 
L 49.76 271.08 
" clip-path="url(#pddf63ce5ad)" style="fill: none; stroke: #000000; stroke-width: 2; stroke-linecap: round"/>
   </g>
   <g id="line2d_15">
    <path d="M 64.76 256.08 
L 58.76 256.08 
" clip-path="url(#pddf63ce5ad)" style="fill: none; stroke: #000000; stroke-width: 2; stroke-linecap: round"/>
   </g>
   <g id="patch_5">
    <path d="M 58.76 260.58 
L 49.76 256.08 
L 58.76 251.58 
z
" clip-path="url(#pddf63ce5ad)"/>
   </g>
   <g id="line2d_16">
    <path d="M 67.76 229.08 
L 67.76 253.08 
" clip-path="url(#pddf63ce5ad)" style="fill: none; stroke: #000000; stroke-width: 2; stroke-linecap: round"/>
   </g>
   <g id="line2d_17">
    <path d="M 67.76 241.08 
L 82.76 241.08 
" clip-path="url(#pddf63ce5ad)" style="fill: none; stroke: #000000; stroke-width: 2; stroke-linecap: round"/>
   </g>
   <g id="line2d_18">
    <path d="M 49.76 271.08 
L 49.76 285.48 
L 40.76 285.48 
L 58.76 285.48 
M 43.46 289.8 
L 56.06 289.8 
M 47.96 294.12 
L 51.56 294.12 
" clip-path="url(#pddf63ce5ad)" style="fill: none; stroke: #000000; stroke-width: 2; stroke-linecap: round"/>
   </g>
   <g id="line2d_19">
    <path d="M 49.76 211.08 
L 49.76 202.08 
L 49.76 193.08 
" clip-path="url(#pddf63ce5ad)" style="fill: none; stroke: #000000; stroke-width: 2; stroke-linecap: round"/>
   </g>
   <g id="line2d_20">
    <path d="M 49.76 193.08 
L 49.76 166.08 
L 49.76 139.08 
" clip-path="url(#pddf63ce5ad)" style="fill: none; stroke: #000000; stroke-width: 2; stroke-linecap: round"/>
   </g>
   <g id="line2d_21">
    <path d="M 49.76 139.08 
L 49.76 121.08 
L 49.76 121.08 
M 49.76 85.08 
L 49.76 85.08 
L 49.76 67.08 
" clip-path="url(#pddf63ce5ad)" style="fill: none; stroke: #000000; stroke-width: 2; stroke-linecap: round"/>
   </g>
   <g id="line2d_22">
    <path d="M 49.76 103.08 
L 49.76 94.08 
" clip-path="url(#pddf63ce5ad)" style="fill: none; stroke: #000000; stroke-width: 2; stroke-linecap: round"/>
   </g>
   <g id="patch_6">
    <path d="M 52.46 103.08 
L 49.76 112.08 
L 47.06 103.08 
z
" clip-path="url(#pddf63ce5ad)"/>
   </g>
   <g id="line2d_23">
    <path d="M 49.76 67.08 
L 49.76 52.68 
" clip-path="url(#pddf63ce5ad)" style="fill: none; stroke: #000000; stroke-width: 2; stroke-linecap: round"/>
   </g>
   <g id="line2d_24">
    <path d="M 49.76 52.68 
L 43.01 52.68 
" clip-path="url(#pddf63ce5ad)" style="fill: none; stroke: #000000; stroke-width: 2; stroke-linecap: round"/>
   </g>
   <g id="line2d_25">
    <path d="M 49.76 52.68 
L 56.51 52.68 
" clip-path="url(#pddf63ce5ad)" style="fill: none; stroke: #000000; stroke-width: 2; stroke-linecap: round"/>
   </g>
   <g id="line2d_26">
    <path d="M 49.76 193.08 
L 76.76 193.08 
L 103.76 193.08 
" clip-path="url(#pddf63ce5ad)" style="fill: none; stroke: #000000; stroke-width: 2; stroke-linecap: round"/>
   </g>
   <g id="line2d_27">
    <path d="M 103.76 193.08 
L 103.76 217.08 
L 103.76 241.08 
" clip-path="url(#pddf63ce5ad)" style="fill: none; stroke: #000000; stroke-width: 2; stroke-linecap: round"/>
   </g>
   <g id="line2d_28">
    <path d="M 259.76 193.08 
L 286.76 193.08 
L 313.76 193.08 
" clip-path="url(#pddf63ce5ad)" style="fill: none; stroke: #000000; stroke-width: 2; stroke-linecap: round"/>
   </g>
   <g id="line2d_29">
    <path d="M 313.76 193.08 
L 313.76 184.08 
L 313.76 175.08 
" clip-path="url(#pddf63ce5ad)" style="fill: none; stroke: #000000; stroke-width: 2; stroke-linecap: round"/>
   </g>
   <g id="line2d_30">
    <path d="M 313.76 115.08 
L 313.76 130.08 
L 328.76 130.08 
L 328.76 160.08 
L 313.76 160.08 
L 313.76 175.08 
" clip-path="url(#pddf63ce5ad)" style="fill: none; stroke: #000000; stroke-width: 2; stroke-linecap: round"/>
   </g>
   <g id="line2d_31">
    <path d="M 328.76 160.08 
L 322.76 160.08 
" clip-path="url(#pddf63ce5ad)" style="fill: none; stroke: #000000; stroke-width: 2; stroke-linecap: round"/>
   </g>
   <g id="patch_7">
    <path d="M 322.76 164.58 
L 313.76 160.08 
L 322.76 155.58 
z
" clip-path="url(#pddf63ce5ad)"/>
   </g>
   <g id="line2d_32">
    <path d="M 331.76 133.08 
L 331.76 157.08 
" clip-path="url(#pddf63ce5ad)" style="fill: none; stroke: #000000; stroke-width: 2; stroke-linecap: round"/>
   </g>
   <g id="line2d_33">
    <path d="M 331.76 145.08 
L 346.76 145.08 
" clip-path="url(#pddf63ce5ad)" style="fill: none; stroke: #000000; stroke-width: 2; stroke-linecap: round"/>
   </g>
   <g id="line2d_34">
    <path d="M 172.76 145.08 
L 163.76 145.08 
L 154.76 145.08 
" clip-path="url(#pddf63ce5ad)" style="fill: none; stroke: #000000; stroke-width: 2; stroke-linecap: round"/>
   </g>
   <g id="line2d_35">
    <path d="M 346.76 145.08 
L 355.76 145.08 
L 364.76 145.08 
" clip-path="url(#pddf63ce5ad)" style="fill: none; stroke: #000000; stroke-width: 2; stroke-linecap: round"/>
   </g>
   <g id="line2d_36">
    <path d="M 205.76 115.08 
L 205.76 106.08 
L 205.76 97.08 
" clip-path="url(#pddf63ce5ad)" style="fill: none; stroke: #000000; stroke-width: 2; stroke-linecap: round"/>
   </g>
   <g id="line2d_37">
    <path d="M 205.76 97.08 
L 205.76 88.08 
L 205.76 79.08 
" clip-path="url(#pddf63ce5ad)" style="fill: none; stroke: #000000; stroke-width: 2; stroke-linecap: round"/>
   </g>
   <g id="line2d_38">
    <path d="M 205.76 19.08 
L 205.76 34.08 
L 220.76 34.08 
L 220.76 64.08 
L 205.76 64.08 
L 205.76 79.08 
" clip-path="url(#pddf63ce5ad)" style="fill: none; stroke: #000000; stroke-width: 2; stroke-linecap: round"/>
   </g>
   <g id="line2d_39">
    <path d="M 205.76 34.08 
L 211.76 34.08 
" clip-path="url(#pddf63ce5ad)" style="fill: none; stroke: #000000; stroke-width: 2; stroke-linecap: round"/>
   </g>
   <g id="patch_8">
    <path d="M 211.76 29.58 
L 220.76 34.08 
L 211.76 38.58 
z
" clip-path="url(#pddf63ce5ad)"/>
   </g>
   <g id="line2d_40">
    <path d="M 223.76 37.08 
L 223.76 61.08 
" clip-path="url(#pddf63ce5ad)" style="fill: none; stroke: #000000; stroke-width: 2; stroke-linecap: round"/>
   </g>
   <g id="line2d_41">
    <path d="M 223.76 49.08 
L 238.76 49.08 
" clip-path="url(#pddf63ce5ad)" style="fill: none; stroke: #000000; stroke-width: 2; stroke-linecap: round"/>
   </g>
   <g id="line2d_42">
    <path d="M 205.76 19.08 
L 205.76 4.68 
" clip-path="url(#pddf63ce5ad)" style="fill: none; stroke: #000000; stroke-width: 2; stroke-linecap: round"/>
   </g>
   <g id="line2d_43">
    <path d="M 205.76 4.68 
L 199.01 4.68 
" clip-path="url(#pddf63ce5ad)" style="fill: none; stroke: #000000; stroke-width: 2; stroke-linecap: round"/>
   </g>
   <g id="line2d_44">
    <path d="M 205.76 4.68 
L 212.51 4.68 
" clip-path="url(#pddf63ce5ad)" style="fill: none; stroke: #000000; stroke-width: 2; stroke-linecap: round"/>
   </g>
   <g id="line2d_45">
    <path d="M 313.76 115.08 
L 313.76 106.08 
L 313.76 97.08 
" clip-path="url(#pddf63ce5ad)" style="fill: none; stroke: #000000; stroke-width: 2; stroke-linecap: round"/>
   </g>
   <g id="line2d_46">
    <path d="M 313.76 97.08 
L 340.76 97.08 
L 367.76 97.08 
" clip-path="url(#pddf63ce5ad)" style="fill: none; stroke: #000000; stroke-width: 2; stroke-linecap: round"/>
   </g>
   <g id="line2d_47">
    <path d="M 313.76 97.08 
L 313.76 88.08 
L 313.76 79.08 
" clip-path="url(#pddf63ce5ad)" style="fill: none; stroke: #000000; stroke-width: 2; stroke-linecap: round"/>
   </g>
   <g id="line2d_48">
    <path d="M 313.76 79.08 
L 313.76 64.08 
L 298.76 64.08 
L 298.76 34.08 
L 313.76 34.08 
L 313.76 19.08 
" clip-path="url(#pddf63ce5ad)" style="fill: none; stroke: #000000; stroke-width: 2; stroke-linecap: round"/>
   </g>
   <g id="line2d_49">
    <path d="M 307.76 34.08 
L 313.76 34.08 
" clip-path="url(#pddf63ce5ad)" style="fill: none; stroke: #000000; stroke-width: 2; stroke-linecap: round"/>
   </g>
   <g id="patch_9">
    <path d="M 307.76 38.58 
L 298.76 34.08 
L 307.76 29.58 
z
" clip-path="url(#pddf63ce5ad)"/>
   </g>
   <g id="line2d_50">
    <path d="M 295.76 61.08 
L 295.76 37.08 
" clip-path="url(#pddf63ce5ad)" style="fill: none; stroke: #000000; stroke-width: 2; stroke-linecap: round"/>
   </g>
   <g id="line2d_51">
    <path d="M 280.76 49.08 
L 295.76 49.08 
" clip-path="url(#pddf63ce5ad)" style="fill: none; stroke: #000000; stroke-width: 2; stroke-linecap: round"/>
   </g>
   <g id="line2d_52">
    <path d="M 313.76 19.08 
L 313.76 4.68 
" clip-path="url(#pddf63ce5ad)" style="fill: none; stroke: #000000; stroke-width: 2; stroke-linecap: round"/>
   </g>
   <g id="line2d_53">
    <path d="M 313.76 4.68 
L 307.01 4.68 
" clip-path="url(#pddf63ce5ad)" style="fill: none; stroke: #000000; stroke-width: 2; stroke-linecap: round"/>
   </g>
   <g id="line2d_54">
    <path d="M 313.76 4.68 
L 320.51 4.68 
" clip-path="url(#pddf63ce5ad)" style="fill: none; stroke: #000000; stroke-width: 2; stroke-linecap: round"/>
   </g>
   <g id="line2d_55">
    <path d="M 280.76 49.08 
L 259.76 49.08 
L 238.76 49.08 
" clip-path="url(#pddf63ce5ad)" style="fill: none; stroke: #000000; stroke-width: 2; stroke-linecap: round"/>
   </g>
   <g id="line2d_56">
    <path d="M 205.76 97.08 
L 232.76 97.08 
L 259.76 97.08 
" clip-path="url(#pddf63ce5ad)" style="fill: none; stroke: #000000; stroke-width: 2; stroke-linecap: round"/>
   </g>
   <g id="line2d_57">
    <path d="M 259.76 97.08 
L 259.76 73.08 
L 259.76 49.08 
" clip-path="url(#pddf63ce5ad)" style="fill: none; stroke: #000000; stroke-width: 2; stroke-linecap: round"/>
   </g>
   <g id="text_1">
    <!-- $M_1$ -->
    <g transform="translate(205.32 149.495) scale(0.16 -0.16)">
     <defs>
      <path id="DejaVuSans-Oblique-4d" d="M 1081 4666 
L 2028 4666 
L 2572 1522 
L 4378 4666 
L 5350 4666 
L 4441 0 
L 3828 0 
L 4622 4091 
L 2791 897 
L 2175 897 
L 1581 4103 
L 788 0 
L 172 0 
L 1081 4666 
z
" transform="scale(0.015625)"/>
      <path id="DejaVuSans-31" d="M 794 531 
L 1825 531 
L 1825 4091 
L 703 3866 
L 703 4441 
L 1819 4666 
L 2450 4666 
L 2450 531 
L 3481 531 
L 3481 0 
L 794 0 
L 794 531 
z
" transform="scale(0.015625)"/>
     </defs>
     <use xlink:href="#DejaVuSans-Oblique-4d" transform="translate(0 0.09375)"/>
     <use xlink:href="#DejaVuSans-31" transform="translate(86.279297 -16.3125) scale(0.7)"/>
    </g>
   </g>
   <g id="patch_10">
    <path d="M 259.76 195.78 
C 260.476048 195.78 261.162866 195.495511 261.669188 194.989188 
C 262.175511 194.482866 262.46 193.796048 262.46 193.08 
C 262.46 192.363952 262.175511 191.677134 261.669188 191.170812 
C 261.162866 190.664489 260.476048 190.38 259.76 190.38 
C 259.043952 190.38 258.357134 190.664489 257.850812 191.170812 
C 257.344489 191.677134 257.06 192.363952 257.06 193.08 
C 257.06 193.796048 257.344489 194.482866 257.850812 194.989188 
C 258.357134 195.495511 259.043952 195.78 259.76 195.78 
z
" clip-path="url(#pddf63ce5ad)" style="stroke: #000000; stroke-width: 2; stroke-linejoin: miter"/>
   </g>
   <g id="text_2">
    <!-- $M_5$ -->
    <g transform="translate(259.32 245.495) scale(0.16 -0.16)">
     <defs>
      <path id="DejaVuSans-35" d="M 691 4666 
L 3169 4666 
L 3169 4134 
L 1269 4134 
L 1269 2991 
Q 1406 3038 1543 3061 
Q 1681 3084 1819 3084 
Q 2600 3084 3056 2656 
Q 3513 2228 3513 1497 
Q 3513 744 3044 326 
Q 2575 -91 1722 -91 
Q 1428 -91 1123 -41 
Q 819 9 494 109 
L 494 744 
Q 775 591 1075 516 
Q 1375 441 1709 441 
Q 2250 441 2565 725 
Q 2881 1009 2881 1497 
Q 2881 1984 2565 2268 
Q 2250 2553 1709 2553 
Q 1456 2553 1204 2497 
Q 953 2441 691 2322 
L 691 4666 
z
" transform="scale(0.015625)"/>
     </defs>
     <use xlink:href="#DejaVuSans-Oblique-4d" transform="translate(0 0.09375)"/>
     <use xlink:href="#DejaVuSans-35" transform="translate(86.279297 -16.3125) scale(0.7)"/>
    </g>
   </g>
   <g id="text_3">
    <!-- $M_6$ -->
    <g transform="translate(24.72 245.495) scale(0.16 -0.16)">
     <defs>
      <path id="DejaVuSans-36" d="M 2113 2584 
Q 1688 2584 1439 2293 
Q 1191 2003 1191 1497 
Q 1191 994 1439 701 
Q 1688 409 2113 409 
Q 2538 409 2786 701 
Q 3034 994 3034 1497 
Q 3034 2003 2786 2293 
Q 2538 2584 2113 2584 
z
M 3366 4563 
L 3366 3988 
Q 3128 4100 2886 4159 
Q 2644 4219 2406 4219 
Q 1781 4219 1451 3797 
Q 1122 3375 1075 2522 
Q 1259 2794 1537 2939 
Q 1816 3084 2150 3084 
Q 2853 3084 3261 2657 
Q 3669 2231 3669 1497 
Q 3669 778 3244 343 
Q 2819 -91 2113 -91 
Q 1303 -91 875 529 
Q 447 1150 447 2328 
Q 447 3434 972 4092 
Q 1497 4750 2381 4750 
Q 2619 4750 2861 4703 
Q 3103 4656 3366 4563 
z
" transform="scale(0.015625)"/>
     </defs>
     <use xlink:href="#DejaVuSans-Oblique-4d" transform="translate(0 0.09375)"/>
     <use xlink:href="#DejaVuSans-36" transform="translate(86.279297 -16.3125) scale(0.7)"/>
    </g>
   </g>
   <g id="patch_11">
    <path d="M 49.76 195.78 
C 50.476048 195.78 51.162866 195.495511 51.669188 194.989188 
C 52.175511 194.482866 52.46 193.796048 52.46 193.08 
C 52.46 192.363952 52.175511 191.677134 51.669188 191.170812 
C 51.162866 190.664489 50.476048 190.38 49.76 190.38 
C 49.043952 190.38 48.357134 190.664489 47.850812 191.170812 
C 47.344489 191.677134 47.06 192.363952 47.06 193.08 
C 47.06 193.796048 47.344489 194.482866 47.850812 194.989188 
C 48.357134 195.495511 49.043952 195.78 49.76 195.78 
z
" clip-path="url(#pddf63ce5ad)" style="stroke: #000000; stroke-width: 2; stroke-linejoin: miter"/>
   </g>
   <g id="text_4">
    <!-- $I_\mathrm{bias}$ -->
    <g transform="translate(-0 107.495) scale(0.16 -0.16)">
     <defs>
      <path id="DejaVuSans-Oblique-49" d="M 1081 4666 
L 1716 4666 
L 806 0 
L 172 0 
L 1081 4666 
z
" transform="scale(0.015625)"/>
      <path id="DejaVuSans-62" d="M 3116 1747 
Q 3116 2381 2855 2742 
Q 2594 3103 2138 3103 
Q 1681 3103 1420 2742 
Q 1159 2381 1159 1747 
Q 1159 1113 1420 752 
Q 1681 391 2138 391 
Q 2594 391 2855 752 
Q 3116 1113 3116 1747 
z
M 1159 2969 
Q 1341 3281 1617 3432 
Q 1894 3584 2278 3584 
Q 2916 3584 3314 3078 
Q 3713 2572 3713 1747 
Q 3713 922 3314 415 
Q 2916 -91 2278 -91 
Q 1894 -91 1617 61 
Q 1341 213 1159 525 
L 1159 0 
L 581 0 
L 581 4863 
L 1159 4863 
L 1159 2969 
z
" transform="scale(0.015625)"/>
      <path id="DejaVuSans-69" d="M 603 3500 
L 1178 3500 
L 1178 0 
L 603 0 
L 603 3500 
z
M 603 4863 
L 1178 4863 
L 1178 4134 
L 603 4134 
L 603 4863 
z
" transform="scale(0.015625)"/>
      <path id="DejaVuSans-61" d="M 2194 1759 
Q 1497 1759 1228 1600 
Q 959 1441 959 1056 
Q 959 750 1161 570 
Q 1363 391 1709 391 
Q 2188 391 2477 730 
Q 2766 1069 2766 1631 
L 2766 1759 
L 2194 1759 
z
M 3341 1997 
L 3341 0 
L 2766 0 
L 2766 531 
Q 2569 213 2275 61 
Q 1981 -91 1556 -91 
Q 1019 -91 701 211 
Q 384 513 384 1019 
Q 384 1609 779 1909 
Q 1175 2209 1959 2209 
L 2766 2209 
L 2766 2266 
Q 2766 2663 2505 2880 
Q 2244 3097 1772 3097 
Q 1472 3097 1187 3025 
Q 903 2953 641 2809 
L 641 3341 
Q 956 3463 1253 3523 
Q 1550 3584 1831 3584 
Q 2591 3584 2966 3190 
Q 3341 2797 3341 1997 
z
" transform="scale(0.015625)"/>
      <path id="DejaVuSans-73" d="M 2834 3397 
L 2834 2853 
Q 2591 2978 2328 3040 
Q 2066 3103 1784 3103 
Q 1356 3103 1142 2972 
Q 928 2841 928 2578 
Q 928 2378 1081 2264 
Q 1234 2150 1697 2047 
L 1894 2003 
Q 2506 1872 2764 1633 
Q 3022 1394 3022 966 
Q 3022 478 2636 193 
Q 2250 -91 1575 -91 
Q 1294 -91 989 -36 
Q 684 19 347 128 
L 347 722 
Q 666 556 975 473 
Q 1284 391 1588 391 
Q 1994 391 2212 530 
Q 2431 669 2431 922 
Q 2431 1156 2273 1281 
Q 2116 1406 1581 1522 
L 1381 1569 
Q 847 1681 609 1914 
Q 372 2147 372 2553 
Q 372 3047 722 3315 
Q 1072 3584 1716 3584 
Q 2034 3584 2315 3537 
Q 2597 3491 2834 3397 
z
" transform="scale(0.015625)"/>
     </defs>
     <use xlink:href="#DejaVuSans-Oblique-49" transform="translate(0 0.09375)"/>
     <use xlink:href="#DejaVuSans-62" transform="translate(29.492188 -16.3125) scale(0.7)"/>
     <use xlink:href="#DejaVuSans-69" transform="translate(73.925781 -16.3125) scale(0.7)"/>
     <use xlink:href="#DejaVuSans-61" transform="translate(93.374023 -16.3125) scale(0.7)"/>
     <use xlink:href="#DejaVuSans-73" transform="translate(136.269531 -16.3125) scale(0.7)"/>
    </g>
   </g>
   <g id="patch_12">
    <path d="M 103.76 243.78 
C 104.476048 243.78 105.162866 243.495511 105.669188 242.989188 
C 106.175511 242.482866 106.46 241.796048 106.46 241.08 
C 106.46 240.363952 106.175511 239.677134 105.669188 239.170812 
C 105.162866 238.664489 104.476048 238.38 103.76 238.38 
C 103.043952 238.38 102.357134 238.664489 101.850812 239.170812 
C 101.344489 239.677134 101.06 240.363952 101.06 241.08 
C 101.06 241.796048 101.344489 242.482866 101.850812 242.989188 
C 102.357134 243.495511 103.043952 243.78 103.76 243.78 
z
" clip-path="url(#pddf63ce5ad)" style="stroke: #000000; stroke-width: 2; stroke-linejoin: miter"/>
   </g>
   <g id="text_5">
    <!-- $M_2$ -->
    <g transform="translate(288.72 149.495) scale(0.16 -0.16)">
     <defs>
      <path id="DejaVuSans-32" d="M 1228 531 
L 3431 531 
L 3431 0 
L 469 0 
L 469 531 
Q 828 903 1448 1529 
Q 2069 2156 2228 2338 
Q 2531 2678 2651 2914 
Q 2772 3150 2772 3378 
Q 2772 3750 2511 3984 
Q 2250 4219 1831 4219 
Q 1534 4219 1204 4116 
Q 875 4013 500 3803 
L 500 4441 
Q 881 4594 1212 4672 
Q 1544 4750 1819 4750 
Q 2544 4750 2975 4387 
Q 3406 4025 3406 3419 
Q 3406 3131 3298 2873 
Q 3191 2616 2906 2266 
Q 2828 2175 2409 1742 
Q 1991 1309 1228 531 
z
" transform="scale(0.015625)"/>
     </defs>
     <use xlink:href="#DejaVuSans-Oblique-4d" transform="translate(0 0.09375)"/>
     <use xlink:href="#DejaVuSans-32" transform="translate(86.279297 -16.3125) scale(0.7)"/>
    </g>
   </g>
   <g id="patch_13">
    <path d="M 154.76 147.78 
C 155.476048 147.78 156.162866 147.495511 156.669188 146.989188 
C 157.175511 146.482866 157.46 145.796048 157.46 145.08 
C 157.46 144.363952 157.175511 143.677134 156.669188 143.170812 
C 156.162866 142.664489 155.476048 142.38 154.76 142.38 
C 154.043952 142.38 153.357134 142.664489 152.850812 143.170812 
C 152.344489 143.677134 152.06 144.363952 152.06 145.08 
C 152.06 145.796048 152.344489 146.482866 152.850812 146.989188 
C 153.357134 147.495511 154.043952 147.78 154.76 147.78 
z
" clip-path="url(#pddf63ce5ad)" style="fill: #ffffff; stroke: #000000; stroke-width: 2; stroke-linejoin: miter"/>
   </g>
   <g id="text_6">
    <!-- $V_\mathrm{in,p}$ -->
    <g transform="translate(113.9 148.44) scale(0.16 -0.16)">
     <defs>
      <path id="DejaVuSans-Oblique-56" d="M 1319 0 
L 500 4666 
L 1119 4666 
L 1797 653 
L 4063 4666 
L 4750 4666 
L 2053 0 
L 1319 0 
z
" transform="scale(0.015625)"/>
      <path id="DejaVuSans-6e" d="M 3513 2113 
L 3513 0 
L 2938 0 
L 2938 2094 
Q 2938 2591 2744 2837 
Q 2550 3084 2163 3084 
Q 1697 3084 1428 2787 
Q 1159 2491 1159 1978 
L 1159 0 
L 581 0 
L 581 3500 
L 1159 3500 
L 1159 2956 
Q 1366 3272 1645 3428 
Q 1925 3584 2291 3584 
Q 2894 3584 3203 3211 
Q 3513 2838 3513 2113 
z
" transform="scale(0.015625)"/>
      <path id="DejaVuSans-2c" d="M 750 794 
L 1409 794 
L 1409 256 
L 897 -744 
L 494 -744 
L 750 256 
L 750 794 
z
" transform="scale(0.015625)"/>
      <path id="DejaVuSans-70" d="M 1159 525 
L 1159 -1331 
L 581 -1331 
L 581 3500 
L 1159 3500 
L 1159 2969 
Q 1341 3281 1617 3432 
Q 1894 3584 2278 3584 
Q 2916 3584 3314 3078 
Q 3713 2572 3713 1747 
Q 3713 922 3314 415 
Q 2916 -91 2278 -91 
Q 1894 -91 1617 61 
Q 1341 213 1159 525 
z
M 3116 1747 
Q 3116 2381 2855 2742 
Q 2594 3103 2138 3103 
Q 1681 3103 1420 2742 
Q 1159 2381 1159 1747 
Q 1159 1113 1420 752 
Q 1681 391 2138 391 
Q 2594 391 2855 752 
Q 3116 1113 3116 1747 
z
" transform="scale(0.015625)"/>
     </defs>
     <use xlink:href="#DejaVuSans-Oblique-56" transform="translate(0 0.09375)"/>
     <use xlink:href="#DejaVuSans-69" transform="translate(68.408203 -16.3125) scale(0.7)"/>
     <use xlink:href="#DejaVuSans-6e" transform="translate(87.856445 -16.3125) scale(0.7)"/>
     <use xlink:href="#DejaVuSans-2c" transform="translate(132.22168 -16.3125) scale(0.7)"/>
     <use xlink:href="#DejaVuSans-70" transform="translate(168.110352 -16.3125) scale(0.7)"/>
    </g>
   </g>
   <g id="patch_14">
    <path d="M 364.76 147.78 
C 365.476048 147.78 366.162866 147.495511 366.669188 146.989188 
C 367.175511 146.482866 367.46 145.796048 367.46 145.08 
C 367.46 144.363952 367.175511 143.677134 366.669188 143.170812 
C 366.162866 142.664489 365.476048 142.38 364.76 142.38 
C 364.043952 142.38 363.357134 142.664489 362.850812 143.170812 
C 362.344489 143.677134 362.06 144.363952 362.06 145.08 
C 362.06 145.796048 362.344489 146.482866 362.850812 146.989188 
C 363.357134 147.495511 364.043952 147.78 364.76 147.78 
z
" clip-path="url(#pddf63ce5ad)" style="fill: #ffffff; stroke: #000000; stroke-width: 2; stroke-linejoin: miter"/>
   </g>
   <g id="text_7">
    <!-- $V_\mathrm{in,n}$ -->
    <g transform="translate(371.06 148.92) scale(0.16 -0.16)">
     <use xlink:href="#DejaVuSans-Oblique-56" transform="translate(0 0.09375)"/>
     <use xlink:href="#DejaVuSans-69" transform="translate(68.408203 -16.3125) scale(0.7)"/>
     <use xlink:href="#DejaVuSans-6e" transform="translate(87.856445 -16.3125) scale(0.7)"/>
     <use xlink:href="#DejaVuSans-2c" transform="translate(132.22168 -16.3125) scale(0.7)"/>
     <use xlink:href="#DejaVuSans-6e" transform="translate(168.110352 -16.3125) scale(0.7)"/>
    </g>
   </g>
   <g id="patch_15">
    <path d="M 205.76 99.78 
C 206.476048 99.78 207.162866 99.495511 207.669188 98.989188 
C 208.175511 98.482866 208.46 97.796048 208.46 97.08 
C 208.46 96.363952 208.175511 95.677134 207.669188 95.170812 
C 207.162866 94.664489 206.476048 94.38 205.76 94.38 
C 205.043952 94.38 204.357134 94.664489 203.850812 95.170812 
C 203.344489 95.677134 203.06 96.363952 203.06 97.08 
C 203.06 97.796048 203.344489 98.482866 203.850812 98.989188 
C 204.357134 99.495511 205.043952 99.78 205.76 99.78 
z
" clip-path="url(#pddf63ce5ad)" style="stroke: #000000; stroke-width: 2; stroke-linejoin: miter"/>
   </g>
   <g id="text_8">
    <!-- $M_3$ -->
    <g transform="translate(180.72 53.495) scale(0.16 -0.16)">
     <defs>
      <path id="DejaVuSans-33" d="M 2597 2516 
Q 3050 2419 3304 2112 
Q 3559 1806 3559 1356 
Q 3559 666 3084 287 
Q 2609 -91 1734 -91 
Q 1441 -91 1130 -33 
Q 819 25 488 141 
L 488 750 
Q 750 597 1062 519 
Q 1375 441 1716 441 
Q 2309 441 2620 675 
Q 2931 909 2931 1356 
Q 2931 1769 2642 2001 
Q 2353 2234 1838 2234 
L 1294 2234 
L 1294 2753 
L 1863 2753 
Q 2328 2753 2575 2939 
Q 2822 3125 2822 3475 
Q 2822 3834 2567 4026 
Q 2313 4219 1838 4219 
Q 1578 4219 1281 4162 
Q 984 4106 628 3988 
L 628 4550 
Q 988 4650 1302 4700 
Q 1616 4750 1894 4750 
Q 2613 4750 3031 4423 
Q 3450 4097 3450 3541 
Q 3450 3153 3228 2886 
Q 3006 2619 2597 2516 
z
" transform="scale(0.015625)"/>
     </defs>
     <use xlink:href="#DejaVuSans-Oblique-4d" transform="translate(0 0.09375)"/>
     <use xlink:href="#DejaVuSans-33" transform="translate(86.279297 -16.3125) scale(0.7)"/>
    </g>
   </g>
   <g id="patch_16">
    <path d="M 313.76 99.78 
C 314.476048 99.78 315.162866 99.495511 315.669188 98.989188 
C 316.175511 98.482866 316.46 97.796048 316.46 97.08 
C 316.46 96.363952 316.175511 95.677134 315.669188 95.170812 
C 315.162866 94.664489 314.476048 94.38 313.76 94.38 
C 313.043952 94.38 312.357134 94.664489 311.850812 95.170812 
C 311.344489 95.677134 311.06 96.363952 311.06 97.08 
C 311.06 97.796048 311.344489 98.482866 311.850812 98.989188 
C 312.357134 99.495511 313.043952 99.78 313.76 99.78 
z
" clip-path="url(#pddf63ce5ad)" style="stroke: #000000; stroke-width: 2; stroke-linejoin: miter"/>
   </g>
   <g id="patch_17">
    <path d="M 367.76 99.78 
C 368.476048 99.78 369.162866 99.495511 369.669188 98.989188 
C 370.175511 98.482866 370.46 97.796048 370.46 97.08 
C 370.46 96.363952 370.175511 95.677134 369.669188 95.170812 
C 369.162866 94.664489 368.476048 94.38 367.76 94.38 
C 367.043952 94.38 366.357134 94.664489 365.850812 95.170812 
C 365.344489 95.677134 365.06 96.363952 365.06 97.08 
C 365.06 97.796048 365.344489 98.482866 365.850812 98.989188 
C 366.357134 99.495511 367.043952 99.78 367.76 99.78 
z
" clip-path="url(#pddf63ce5ad)" style="fill: #ffffff; stroke: #000000; stroke-width: 2; stroke-linejoin: miter"/>
   </g>
   <g id="text_9">
    <!-- $V_\mathrm{out}$ -->
    <g transform="translate(374.06 101.495) scale(0.16 -0.16)">
     <defs>
      <path id="DejaVuSans-6f" d="M 1959 3097 
Q 1497 3097 1228 2736 
Q 959 2375 959 1747 
Q 959 1119 1226 758 
Q 1494 397 1959 397 
Q 2419 397 2687 759 
Q 2956 1122 2956 1747 
Q 2956 2369 2687 2733 
Q 2419 3097 1959 3097 
z
M 1959 3584 
Q 2709 3584 3137 3096 
Q 3566 2609 3566 1747 
Q 3566 888 3137 398 
Q 2709 -91 1959 -91 
Q 1206 -91 779 398 
Q 353 888 353 1747 
Q 353 2609 779 3096 
Q 1206 3584 1959 3584 
z
" transform="scale(0.015625)"/>
      <path id="DejaVuSans-75" d="M 544 1381 
L 544 3500 
L 1119 3500 
L 1119 1403 
Q 1119 906 1312 657 
Q 1506 409 1894 409 
Q 2359 409 2629 706 
Q 2900 1003 2900 1516 
L 2900 3500 
L 3475 3500 
L 3475 0 
L 2900 0 
L 2900 538 
Q 2691 219 2414 64 
Q 2138 -91 1772 -91 
Q 1169 -91 856 284 
Q 544 659 544 1381 
z
M 1991 3584 
L 1991 3584 
z
" transform="scale(0.015625)"/>
      <path id="DejaVuSans-74" d="M 1172 4494 
L 1172 3500 
L 2356 3500 
L 2356 3053 
L 1172 3053 
L 1172 1153 
Q 1172 725 1289 603 
Q 1406 481 1766 481 
L 2356 481 
L 2356 0 
L 1766 0 
Q 1100 0 847 248 
Q 594 497 594 1153 
L 594 3053 
L 172 3053 
L 172 3500 
L 594 3500 
L 594 4494 
L 1172 4494 
z
" transform="scale(0.015625)"/>
     </defs>
     <use xlink:href="#DejaVuSans-Oblique-56" transform="translate(0 0.09375)"/>
     <use xlink:href="#DejaVuSans-6f" transform="translate(68.408203 -16.3125) scale(0.7)"/>
     <use xlink:href="#DejaVuSans-75" transform="translate(111.235352 -16.3125) scale(0.7)"/>
     <use xlink:href="#DejaVuSans-74" transform="translate(155.600586 -16.3125) scale(0.7)"/>
    </g>
   </g>
   <g id="text_10">
    <!-- $M_4$ -->
    <g transform="translate(313.32 53.495) scale(0.16 -0.16)">
     <defs>
      <path id="DejaVuSans-34" d="M 2419 4116 
L 825 1625 
L 2419 1625 
L 2419 4116 
z
M 2253 4666 
L 3047 4666 
L 3047 1625 
L 3713 1625 
L 3713 1100 
L 3047 1100 
L 3047 0 
L 2419 0 
L 2419 1100 
L 313 1100 
L 313 1709 
L 2253 4666 
z
" transform="scale(0.015625)"/>
     </defs>
     <use xlink:href="#DejaVuSans-Oblique-4d" transform="translate(0 0.09375)"/>
     <use xlink:href="#DejaVuSans-34" transform="translate(86.279297 -16.3125) scale(0.7)"/>
    </g>
   </g>
   <g id="patch_18">
    <path d="M 259.76 51.78 
C 260.476048 51.78 261.162866 51.495511 261.669188 50.989188 
C 262.175511 50.482866 262.46 49.796048 262.46 49.08 
C 262.46 48.363952 262.175511 47.677134 261.669188 47.170812 
C 261.162866 46.664489 260.476048 46.38 259.76 46.38 
C 259.043952 46.38 258.357134 46.664489 257.850812 47.170812 
C 257.344489 47.677134 257.06 48.363952 257.06 49.08 
C 257.06 49.796048 257.344489 50.482866 257.850812 50.989188 
C 258.357134 51.495511 259.043952 51.78 259.76 51.78 
z
" clip-path="url(#pddf63ce5ad)" style="stroke: #000000; stroke-width: 2; stroke-linejoin: miter"/>
   </g>
  </g>
 </g>
 <defs>
  <clipPath id="pddf63ce5ad">
   <rect x="1.1712" y="0" width="401.1096" height="298.8"/>
  </clipPath>
 </defs>
</svg>
